v 0.0 1.0 -1.0
v 0.1951 0.9808 -1.0
v 0.3827 0.9239 -1.0
v 0.5556 0.8315 -1.0
v 0.7071 0.7071 -1.0
v 0.8315 0.5556 -1.0
v 0.9239 0.3827 -1.0
v 0.9808 0.1951 -1.0
v 1.0 0.0 -1.0
v 0.9808 -0.1951 -1.0
v 0.9239 -0.3827 -1.0
v 0.8315 -0.5556 -1.0
v 0.7071 -0.7071 -1.0
v 0.5556 -0.8315 -1.0
v 0.3827 -0.9239 -1.0
v 0.1951 -0.9808 -1.0
v 0.0 -1.0 -1.0
v -0.1951 -0.9808 -1.0
v -0.3827 -0.9239 -1.0
v -0.5556 -0.8315 -1.0
v -0.7071 -0.7071 -1.0
v -0.8315 -0.5556 -1.0
v -0.9239 -0.3827 -1.0
v -0.9808 -0.1951 -1.0
v -1.0 0.0 -1.0
v -0.9808 0.1951 -1.0
v -0.9239 0.3827 -1.0
v -0.8315 0.5556 -1.0
v -0.7071 0.7071 -1.0
v -0.5556 0.8315 -1.0
v -0.3827 0.9239 -1.0
v -0.1951 0.9808 -1.0
v 0.0 0.0 1.0
gi 0 0 0 0
gi 0 0 0 0
gi 0 0 0 0
gi 0 0 0 0
gi 0 0 0 0
gi 0 0 0 0
gi 0 0 0 0
gi 0 0 0 0
gi 0 0 0 0
gi 0 0 0 0
gi 0 0 0 0
gi 0 0 0 0
gi 0 0 0 0
gi 0 0 0 0
gi 0 0 0 0
gi 0 0 0 0
gi 0 0 0 0
gi 0 0 0 0
gi 0 0 0 0
gi 0 0 0 0
gi 0 0 0 0
gi 0 0 0 0
gi 0 0 0 0
gi 0 0 0 0
gi 0 0 0 0
gi 0 0 0 0
gi 0 0 0 0
gi 0 0 0 0
gi 0 0 0 0
gi 0 0 0 0
gi 0 0 0 0
gi 0 0 0 0
gi 0 0 0 0
gw 0.0 0.0 0.0 0.0
gw 0.0 0.0 0.0 0.0
gw 0.0 0.0 0.0 0.0
gw 0.0 0.0 0.0 0.0
gw 0.0 0.0 0.0 0.0
gw 0.0 0.0 0.0 0.0
gw 0.0 0.0 0.0 0.0
gw 0.0 0.0 0.0 0.0
gw 0.0 0.0 0.0 0.0
gw 0.0 0.0 0.0 0.0
gw 0.0 0.0 0.0 0.0
gw 0.0 0.0 0.0 0.0
gw 0.0 0.0 0.0 0.0
gw 0.0 0.0 0.0 0.0
gw 0.0 0.0 0.0 0.0
gw 0.0 0.0 0.0 0.0
gw 0.0 0.0 0.0 0.0
gw 0.0 0.0 0.0 0.0
gw 0.0 0.0 0.0 0.0
gw 0.0 0.0 0.0 0.0
gw 0.0 0.0 0.0 0.0
gw 0.0 0.0 0.0 0.0
gw 0.0 0.0 0.0 0.0
gw 0.0 0.0 0.0 0.0
gw 0.0 0.0 0.0 0.0
gw 0.0 0.0 0.0 0.0
gw 0.0 0.0 0.0 0.0
gw 0.0 0.0 0.0 0.0
gw 0.0 0.0 0.0 0.0
gw 0.0 0.0 0.0 0.0
gw 0.0 0.0 0.0 0.0
gw 0.0 0.0 0.0 0.0
gw 0.0 0.0 0.0 0.0
vt 0.25 0.49
vt 0.25 0.25
vt 0.2968 0.4854
vt 0.3418 0.4717
vt 0.3833 0.4496
vt 0.4197 0.4197
vt 0.4496 0.3833
vt 0.4717 0.3418
vt 0.4854 0.2968
vt 0.49 0.25
vt 0.4854 0.2032
vt 0.4717 0.1582
vt 0.4496 0.1167
vt 0.4197 0.0803
vt 0.3833 0.0504
vt 0.3418 0.0283
vt 0.2968 0.0146
vt 0.25 0.01
vt 0.2032 0.0146
vt 0.1582 0.0283
vt 0.1167 0.0504
vt 0.0803 0.0803
vt 0.0504 0.1167
vt 0.0283 0.1582
vt 0.0146 0.2032
vt 0.01 0.25
vt 0.0146 0.2968
vt 0.0283 0.3418
vt 0.0504 0.3833
vt 0.0803 0.4197
vt 0.1167 0.4496
vt 0.1582 0.4717
vt 0.7968 0.0146
vt 0.5146 0.2032
vt 0.7032 0.4854
vt 0.2032 0.4854
vt 0.75 0.49
vt 0.7968 0.4854
vt 0.8418 0.4717
vt 0.8833 0.4496
vt 0.9197 0.4197
vt 0.9496 0.3833
vt 0.9717 0.3418
vt 0.9854 0.2968
vt 0.99 0.25
vt 0.9854 0.2032
vt 0.9717 0.1582
vt 0.9496 0.1167
vt 0.9197 0.0803
vt 0.8833 0.0504
vt 0.8418 0.0283
vt 0.75 0.01
vt 0.7032 0.0146
vt 0.6582 0.0283
vt 0.6167 0.0504
vt 0.5803 0.0803
vt 0.5504 0.1167
vt 0.5283 0.1582
vt 0.51 0.25
vt 0.5146 0.2968
vt 0.5283 0.3418
vt 0.5504 0.3833
vt 0.5803 0.4197
vt 0.6167 0.4496
vt 0.6582 0.4717
vn 0.0878 0.891 0.4455
vn 0.2599 0.8567 0.4455
vn 0.422 0.7896 0.4455
vn 0.568 0.6921 0.4455
vn 0.6921 0.568 0.4455
vn 0.7896 0.422 0.4455
vn 0.8567 0.2599 0.4455
vn 0.891 0.0878 0.4455
vn 0.891 -0.0878 0.4455
vn 0.8567 -0.2599 0.4455
vn 0.7896 -0.422 0.4455
vn 0.6921 -0.568 0.4455
vn 0.568 -0.6921 0.4455
vn 0.422 -0.7896 0.4455
vn 0.2599 -0.8567 0.4455
vn 0.0878 -0.891 0.4455
vn -0.0878 -0.891 0.4455
vn -0.2599 -0.8567 0.4455
vn -0.422 -0.7896 0.4455
vn -0.568 -0.6921 0.4455
vn -0.6921 -0.568 0.4455
vn -0.7896 -0.422 0.4455
vn -0.8567 -0.2599 0.4455
vn -0.891 -0.0878 0.4455
vn -0.891 0.0878 0.4455
vn -0.8567 0.2599 0.4455
vn -0.7896 0.422 0.4455
vn -0.6921 0.568 0.4455
vn -0.568 0.6921 0.4455
vn -0.422 0.7896 0.4455
vn 0.0 0.0 -1.0
vn -0.2599 0.8567 0.4455
vn -0.0878 0.891 0.4455
vn 0.0 0.0 -1.0
vn -0.0 0.0 -1.0
vn -0.0 0.0 -1.0
vn 0.0 0.0 -1.0
vn -0.0 0.0 -1.0
vn 0.0 0.0 -1.0
vn 0.0 0.0 -1.0
vn -0.0 0.0 -1.0
vtan 0.9811 0.0 -0.1933
vtan 0.9811 0.0 -0.1933
vtan 0.8638 0.0 -0.5039
vtan 0.8638 0.0 -0.5039
vtan 0.726 -0.0 -0.6877
vtan 0.6172 0.0 -0.7868
vtan 0.6172 0.0 -0.7868
vtan 0.5413 0.0 -0.8409
vtan 0.5413 0.0 -0.8409
vtan 0.4914 -0.0 -0.8709
vtan 0.4914 -0.0 -0.8709
vtan 0.4613 -0.0 -0.8872
vtan 0.4613 -0.0 -0.8872
vtan 0.4472 0.0 -0.8944
vtan 0.4472 0.0 -0.8944
vtan 0.4613 0.0 -0.8872
vtan 0.4613 0.0 -0.8872
vtan 0.4914 -0.0 -0.8709
vtan 0.4914 -0.0 -0.8709
vtan 0.5413 0.0 -0.8409
vtan 0.6172 -0.0 -0.7868
vtan 0.6172 -0.0 -0.7868
vtan 0.726 -0.0 -0.6877
vtan 0.726 -0.0 -0.6877
vtan 0.8638 0.0 -0.5039
vtan 0.8638 0.0 -0.5039
vtan 0.9811 0.0 -0.1933
vtan 0.9811 -0.0 0.1933
vtan 0.8638 -0.0 0.5039
vtan 0.726 0.0 0.6877
vtan 0.6172 0.0 0.7868
vtan 0.6172 0.0 0.7868
vtan 0.5413 -0.0 0.8409
vtan 0.5413 -0.0 0.8409
vtan 0.4914 0.0 0.8709
vtan 0.4914 0.0 0.8709
vtan 0.4613 -0.0 0.8872
vtan 0.4613 -0.0 0.8872
vtan 0.4472 0.0 0.8944
vtan 0.4472 0.0 0.8944
vtan 0.4613 0.0 0.8872
vtan 0.4613 0.0 0.8872
vtan 0.4914 0.0 0.8709
vtan 0.4914 0.0 0.8709
vtan 0.5413 -0.0 0.8409
vtan 0.5413 -0.0 0.8409
vtan 0.6172 -0.0 0.7868
vtan 0.6172 -0.0 0.7868
vtan 0.726 0.0 0.6877
vtan 0.726 0.0 0.6877
vtan 1.0 -0.0 0.0
vtan 1.0 -0.0 0.0
vtan 0.8638 -0.0 0.5039
vtan 0.9811 -0.0 0.1933
vtan 0.9811 -0.0 0.1933
vtan 1.0 0.0 0.0
vtan 1.0 0.0 0.0
vtan 1.0 -0.0 0.0
vtan 1.0 -0.0 0.0
vtan 1.0 -0.0 0.0
vtan 1.0 0.0 0.0
vtan 1.0 -0.0 0.0
vtan 1.0 0.0 0.0
vtan 1.0 0.0 0.0
vtan 1.0 0.0 0.0
vtan 1.0 -0.0 0.0
vtan 1.0 -0.0 0.0
vtan 1.0 -0.0 0.0
vtan 1.0 0.0 -0.0
vtan 1.0 0.0 -0.0
vtan 1.0 0.0 -0.0
vtan 1.0 0.0 0.0
vtan 1.0 -0.0 0.0
vtan 1.0 0.0 -0.0
vtan 1.0 0.0 0.0
vtan 1.0 0.0 0.0
vtan 1.0 0.0 0.0
vtan 1.0 -0.0 -0.0
vtan 1.0 0.0 0.0
f 0/0/0/0 32/1/0/0 1/2/0/1 
f 1/2/1/2 32/1/1/3 2/3/1/2 
f 2/3/2/4 32/1/2/4 3/4/2/4 
f 3/4/3/5 32/1/3/6 4/5/3/5 
f 4/5/4/7 32/1/4/7 5/6/4/8 
f 5/6/5/9 32/1/5/10 6/7/5/10 
f 6/7/6/11 32/1/6/12 7/8/6/12 
f 7/8/7/13 32/1/7/14 8/9/7/14 
f 8/9/8/14 32/1/8/14 9/10/8/13 
f 9/10/9/15 32/1/9/15 10/11/9/16 
f 10/11/10/17 32/1/10/17 11/12/10/18 
f 11/12/11/19 32/1/11/19 12/13/11/19 
f 12/13/12/20 32/1/12/21 13/14/12/21 
f 13/14/13/22 32/1/13/23 14/15/13/22 
f 14/15/14/24 32/1/14/25 15/16/14/24 
f 15/16/15/26 32/1/15/26 16/17/15/26 
f 16/17/16/27 32/1/16/27 17/18/16/27 
f 17/18/17/28 32/1/17/28 18/19/17/28 
f 18/19/18/29 32/1/18/29 19/20/18/29 
f 19/20/19/30 32/1/19/30 20/21/19/31 
f 20/21/20/32 32/1/20/32 21/22/20/33 
f 21/22/21/34 32/1/21/35 22/23/21/35 
f 22/23/22/36 32/1/22/37 23/24/22/37 
f 23/24/23/38 32/1/23/39 24/25/23/39 
f 24/25/24/39 32/1/24/39 25/26/24/38 
f 25/26/25/40 32/1/25/40 26/27/25/41 
f 26/27/26/42 32/1/26/42 27/28/26/43 
f 27/28/27/44 32/1/27/45 28/29/27/45 
f 28/29/28/46 32/1/28/47 29/30/28/47 
f 29/30/29/48 32/1/29/49 30/31/29/49 
f 15/32/30/50 23/33/30/51 31/34/30/50 
f 30/31/31/52 32/1/31/52 31/35/31/52 
f 31/35/32/53 32/1/32/53 0/0/32/54 
f 31/34/30/50 0/36/30/55 1/37/30/55 
f 1/37/30/56 2/38/30/56 3/39/30/56 
f 3/39/30/57 4/40/30/57 5/41/30/57 
f 5/41/30/55 6/42/30/55 7/43/30/55 
f 7/43/30/55 8/44/30/55 9/45/30/55 
f 9/45/30/58 10/46/30/58 11/47/30/58 
f 11/47/30/59 12/48/30/59 13/49/30/59 
f 13/49/30/60 14/50/30/60 15/32/30/60 
f 15/32/30/50 16/51/30/55 17/52/30/55 
f 17/52/30/61 18/53/30/61 19/54/30/61 
f 19/54/30/62 20/55/30/62 21/56/30/62 
f 21/56/30/63 22/57/30/63 23/33/30/63 
f 23/33/30/55 24/58/30/55 25/59/30/55 
f 25/59/30/55 26/60/30/55 27/61/30/55 
f 27/61/30/64 28/62/30/64 29/63/30/64 
f 29/63/30/65 30/64/30/65 31/34/30/65 
f 31/34/30/50 1/37/30/55 7/43/30/51 
f 1/37/33/66 3/39/33/67 7/43/33/66 
f 3/39/34/68 5/41/34/68 7/43/34/68 
f 7/43/35/69 9/45/35/69 15/32/35/70 
f 9/45/36/71 11/47/36/71 15/32/36/71 
f 11/47/30/72 13/49/30/72 15/32/30/72 
f 15/32/30/50 17/52/30/55 23/33/30/51 
f 17/52/37/73 19/54/37/73 23/33/37/73 
f 19/54/38/74 21/56/38/74 23/33/38/74 
f 23/33/39/75 25/59/39/75 31/34/39/76 
f 25/59/40/77 27/61/40/77 31/34/40/77 
f 27/61/30/78 29/63/30/78 31/34/30/78 
f 31/34/30/50 7/43/30/51 15/32/30/50 
