v 0.0 1.0 -1.0
v 0.0 1.0 1.0
v 0.1951 0.9808 -1.0
v 0.1951 0.9808 1.0
v 0.3827 0.9239 -1.0
v 0.3827 0.9239 1.0
v 0.5556 0.8315 -1.0
v 0.5556 0.8315 1.0
v 0.7071 0.7071 -1.0
v 0.7071 0.7071 1.0
v 0.8315 0.5556 -1.0
v 0.8315 0.5556 1.0
v 0.9239 0.3827 -1.0
v 0.9239 0.3827 1.0
v 0.9808 0.1951 -1.0
v 0.9808 0.1951 1.0
v 1.0 0.0 -1.0
v 1.0 0.0 1.0
v 0.9808 -0.1951 -1.0
v 0.9808 -0.1951 1.0
v 0.9239 -0.3827 -1.0
v 0.9239 -0.3827 1.0
v 0.8315 -0.5556 -1.0
v 0.8315 -0.5556 1.0
v 0.7071 -0.7071 -1.0
v 0.7071 -0.7071 1.0
v 0.5556 -0.8315 -1.0
v 0.5556 -0.8315 1.0
v 0.3827 -0.9239 -1.0
v 0.3827 -0.9239 1.0
v 0.1951 -0.9808 -1.0
v 0.1951 -0.9808 1.0
v 0.0 -1.0 -1.0
v 0.0 -1.0 1.0
v -0.1951 -0.9808 -1.0
v -0.1951 -0.9808 1.0
v -0.3827 -0.9239 -1.0
v -0.3827 -0.9239 1.0
v -0.5556 -0.8315 -1.0
v -0.5556 -0.8315 1.0
v -0.7071 -0.7071 -1.0
v -0.7071 -0.7071 1.0
v -0.8315 -0.5556 -1.0
v -0.8315 -0.5556 1.0
v -0.9239 -0.3827 -1.0
v -0.9239 -0.3827 1.0
v -0.9808 -0.1951 -1.0
v -0.9808 -0.1951 1.0
v -1.0 0.0 -1.0
v -1.0 0.0 1.0
v -0.9808 0.1951 -1.0
v -0.9808 0.1951 1.0
v -0.9239 0.3827 -1.0
v -0.9239 0.3827 1.0
v -0.8315 0.5556 -1.0
v -0.8315 0.5556 1.0
v -0.7071 0.7071 -1.0
v -0.7071 0.7071 1.0
v -0.5556 0.8315 -1.0
v -0.5556 0.8315 1.0
v -0.3827 0.9239 -1.0
v -0.3827 0.9239 1.0
v -0.1951 0.9808 -1.0
v -0.1951 0.9808 1.0
gi 0 0 0 0
gi 0 0 0 0
gi 0 0 0 0
gi 0 0 0 0
gi 0 0 0 0
gi 0 0 0 0
gi 0 0 0 0
gi 0 0 0 0
gi 0 0 0 0
gi 0 0 0 0
gi 0 0 0 0
gi 0 0 0 0
gi 0 0 0 0
gi 0 0 0 0
gi 0 0 0 0
gi 0 0 0 0
gi 0 0 0 0
gi 0 0 0 0
gi 0 0 0 0
gi 0 0 0 0
gi 0 0 0 0
gi 0 0 0 0
gi 0 0 0 0
gi 0 0 0 0
gi 0 0 0 0
gi 0 0 0 0
gi 0 0 0 0
gi 0 0 0 0
gi 0 0 0 0
gi 0 0 0 0
gi 0 0 0 0
gi 0 0 0 0
gi 0 0 0 0
gi 0 0 0 0
gi 0 0 0 0
gi 0 0 0 0
gi 0 0 0 0
gi 0 0 0 0
gi 0 0 0 0
gi 0 0 0 0
gi 0 0 0 0
gi 0 0 0 0
gi 0 0 0 0
gi 0 0 0 0
gi 0 0 0 0
gi 0 0 0 0
gi 0 0 0 0
gi 0 0 0 0
gi 0 0 0 0
gi 0 0 0 0
gi 0 0 0 0
gi 0 0 0 0
gi 0 0 0 0
gi 0 0 0 0
gi 0 0 0 0
gi 0 0 0 0
gi 0 0 0 0
gi 0 0 0 0
gi 0 0 0 0
gi 0 0 0 0
gi 0 0 0 0
gi 0 0 0 0
gi 0 0 0 0
gi 0 0 0 0
gw 0.0 0.0 0.0 0.0
gw 0.0 0.0 0.0 0.0
gw 0.0 0.0 0.0 0.0
gw 0.0 0.0 0.0 0.0
gw 0.0 0.0 0.0 0.0
gw 0.0 0.0 0.0 0.0
gw 0.0 0.0 0.0 0.0
gw 0.0 0.0 0.0 0.0
gw 0.0 0.0 0.0 0.0
gw 0.0 0.0 0.0 0.0
gw 0.0 0.0 0.0 0.0
gw 0.0 0.0 0.0 0.0
gw 0.0 0.0 0.0 0.0
gw 0.0 0.0 0.0 0.0
gw 0.0 0.0 0.0 0.0
gw 0.0 0.0 0.0 0.0
gw 0.0 0.0 0.0 0.0
gw 0.0 0.0 0.0 0.0
gw 0.0 0.0 0.0 0.0
gw 0.0 0.0 0.0 0.0
gw 0.0 0.0 0.0 0.0
gw 0.0 0.0 0.0 0.0
gw 0.0 0.0 0.0 0.0
gw 0.0 0.0 0.0 0.0
gw 0.0 0.0 0.0 0.0
gw 0.0 0.0 0.0 0.0
gw 0.0 0.0 0.0 0.0
gw 0.0 0.0 0.0 0.0
gw 0.0 0.0 0.0 0.0
gw 0.0 0.0 0.0 0.0
gw 0.0 0.0 0.0 0.0
gw 0.0 0.0 0.0 0.0
gw 0.0 0.0 0.0 0.0
gw 0.0 0.0 0.0 0.0
gw 0.0 0.0 0.0 0.0
gw 0.0 0.0 0.0 0.0
gw 0.0 0.0 0.0 0.0
gw 0.0 0.0 0.0 0.0
gw 0.0 0.0 0.0 0.0
gw 0.0 0.0 0.0 0.0
gw 0.0 0.0 0.0 0.0
gw 0.0 0.0 0.0 0.0
gw 0.0 0.0 0.0 0.0
gw 0.0 0.0 0.0 0.0
gw 0.0 0.0 0.0 0.0
gw 0.0 0.0 0.0 0.0
gw 0.0 0.0 0.0 0.0
gw 0.0 0.0 0.0 0.0
gw 0.0 0.0 0.0 0.0
gw 0.0 0.0 0.0 0.0
gw 0.0 0.0 0.0 0.0
gw 0.0 0.0 0.0 0.0
gw 0.0 0.0 0.0 0.0
gw 0.0 0.0 0.0 0.0
gw 0.0 0.0 0.0 0.0
gw 0.0 0.0 0.0 0.0
gw 0.0 0.0 0.0 0.0
gw 0.0 0.0 0.0 0.0
gw 0.0 0.0 0.0 0.0
gw 0.0 0.0 0.0 0.0
gw 0.0 0.0 0.0 0.0
gw 0.0 0.0 0.0 0.0
gw 0.0 0.0 0.0 0.0
gw 0.0 0.0 0.0 0.0
vt 1.0 1.0
vt 0.9688 0.5
vt 1.0 0.5
vt 0.9688 1.0
vt 0.9375 0.5
vt 0.9375 1.0
vt 0.9062 0.5
vt 0.9062 1.0
vt 0.875 0.5
vt 0.875 1.0
vt 0.8438 0.5
vt 0.8438 1.0
vt 0.8125 0.5
vt 0.8125 1.0
vt 0.7812 0.5
vt 0.7812 1.0
vt 0.75 0.5
vt 0.75 1.0
vt 0.7188 0.5
vt 0.7188 1.0
vt 0.6875 0.5
vt 0.6875 1.0
vt 0.6562 0.5
vt 0.6562 1.0
vt 0.625 0.5
vt 0.625 1.0
vt 0.5938 0.5
vt 0.5938 1.0
vt 0.5625 0.5
vt 0.5625 1.0
vt 0.5312 0.5
vt 0.5312 1.0
vt 0.5 0.5
vt 0.5 1.0
vt 0.4688 0.5
vt 0.4688 1.0
vt 0.4375 0.5
vt 0.4375 1.0
vt 0.4062 0.5
vt 0.4062 1.0
vt 0.375 0.5
vt 0.375 1.0
vt 0.3438 0.5
vt 0.3438 1.0
vt 0.3125 0.5
vt 0.3125 1.0
vt 0.2812 0.5
vt 0.2812 1.0
vt 0.25 0.5
vt 0.25 1.0
vt 0.2188 0.5
vt 0.2188 1.0
vt 0.1875 0.5
vt 0.1875 1.0
vt 0.1562 0.5
vt 0.1562 1.0
vt 0.125 0.5
vt 0.125 1.0
vt 0.0938 0.5
vt 0.0938 1.0
vt 0.0625 0.5
vt 0.1582 0.0283
vt 0.4717 0.1582
vt 0.3418 0.4717
vt 0.0625 1.0
vt 0.0312 0.5
vt 0.0312 1.0
vt 0.0 0.5
vt 0.7968 0.0146
vt 0.5146 0.2032
vt 0.7032 0.4854
vt 0.2968 0.4854
vt 0.25 0.49
vt 0.2032 0.4854
vt 0.1582 0.4717
vt 0.1167 0.4496
vt 0.0803 0.4197
vt 0.0504 0.3833
vt 0.0283 0.3418
vt 0.0146 0.2968
vt 0.01 0.25
vt 0.0146 0.2032
vt 0.0283 0.1582
vt 0.0504 0.1167
vt 0.0803 0.0803
vt 0.1167 0.0504
vt 0.2032 0.0146
vt 0.3418 0.0283
vt 0.25 0.01
vt 0.2968 0.0146
vt 0.3833 0.0504
vt 0.4197 0.0803
vt 0.4496 0.1167
vt 0.4854 0.2032
vt 0.4717 0.3418
vt 0.49 0.25
vt 0.4854 0.2968
vt 0.4496 0.3833
vt 0.4197 0.4197
vt 0.3833 0.4496
vt 0.0 1.0
vt 0.75 0.49
vt 0.7968 0.4854
vt 0.8418 0.4717
vt 0.8833 0.4496
vt 0.9197 0.4197
vt 0.9496 0.3833
vt 0.9717 0.3418
vt 0.9854 0.2968
vt 0.99 0.25
vt 0.9854 0.2032
vt 0.9717 0.1582
vt 0.9496 0.1167
vt 0.9197 0.0803
vt 0.8833 0.0504
vt 0.8418 0.0283
vt 0.75 0.01
vt 0.7032 0.0146
vt 0.6582 0.0283
vt 0.6167 0.0504
vt 0.5803 0.0803
vt 0.5504 0.1167
vt 0.5283 0.1582
vt 0.51 0.25
vt 0.5146 0.2968
vt 0.5283 0.3418
vt 0.5504 0.3833
vt 0.5803 0.4197
vt 0.6167 0.4496
vt 0.6582 0.4717
vn 0.098 0.9952 0.0
vn 0.2903 0.9569 0.0
vn 0.4714 0.8819 0.0
vn 0.6344 0.773 0.0
vn 0.773 0.6344 0.0
vn 0.8819 0.4714 0.0
vn 0.9569 0.2903 0.0
vn 0.9952 0.098 0.0
vn 0.9952 -0.098 0.0
vn 0.9569 -0.2903 0.0
vn 0.8819 -0.4714 0.0
vn 0.773 -0.6344 0.0
vn 0.6344 -0.773 0.0
vn 0.4714 -0.8819 0.0
vn 0.2903 -0.9569 0.0
vn 0.098 -0.9952 0.0
vn -0.098 -0.9952 0.0
vn -0.2903 -0.9569 0.0
vn -0.4714 -0.8819 0.0
vn -0.6344 -0.773 0.0
vn -0.773 -0.6344 0.0
vn -0.8819 -0.4714 0.0
vn -0.9569 -0.2903 0.0
vn -0.9952 -0.098 0.0
vn -0.9952 0.098 0.0
vn -0.9569 0.2903 0.0
vn -0.8819 0.4714 0.0
vn -0.773 0.6344 0.0
vn -0.6344 0.773 0.0
vn -0.4714 0.8819 0.0
vn 0.0 0.0 1.0
vn -0.2903 0.9569 0.0
vn -0.098 0.9952 0.0
vn 0.0 0.0 -1.0
vn 0.2903 0.9569 0.0
vn 0.6344 0.773 0.0
vn 0.8819 0.4714 0.0
vn 0.8819 -0.4714 0.0
vn 0.6344 -0.773 0.0
vn 0.2903 -0.9569 0.0
vn -0.2903 -0.9569 0.0
vn -0.6344 -0.773 0.0
vn -0.8819 -0.4714 0.0
vn -0.8819 0.4714 0.0
vn -0.6344 0.773 0.0
vn 0.0 0.0 1.0
vn -0.2903 0.9569 0.0
vn 0.0 0.0 -1.0
vn -0.0 0.0 -1.0
vn -0.0 0.0 -1.0
vn 0.0 0.0 -1.0
vn -0.0 0.0 -1.0
vn 0.0 0.0 -1.0
vn 0.0 0.0 -1.0
vn -0.0 0.0 -1.0
vtan -0.9952 0.098 0.0
vtan -0.9569 0.2903 0.0
vtan -0.8819 0.4714 0.0
vtan -0.773 0.6344 0.0
vtan -0.6344 0.773 0.0
vtan -0.4714 0.8819 0.0
vtan -0.4714 0.8819 0.0
vtan -0.2903 0.9569 0.0
vtan -0.098 0.9952 0.0
vtan 0.098 0.9952 0.0
vtan 0.2903 0.9569 0.0
vtan 0.4714 0.8819 0.0
vtan 0.4714 0.8819 0.0
vtan 0.6344 0.773 0.0
vtan 0.773 0.6344 0.0
vtan 0.8819 0.4714 0.0
vtan 0.9569 0.2903 0.0
vtan 0.9952 0.098 0.0
vtan 0.9952 -0.098 0.0
vtan 0.9569 -0.2903 0.0
vtan 0.8819 -0.4714 0.0
vtan 0.773 -0.6344 0.0
vtan 0.6344 -0.773 0.0
vtan 0.4714 -0.8819 0.0
vtan 0.4714 -0.8819 0.0
vtan 0.2903 -0.9569 0.0
vtan 0.098 -0.9952 0.0
vtan -0.098 -0.9952 0.0
vtan -0.2903 -0.9569 0.0
vtan -0.4714 -0.8819 0.0
vtan -0.4714 -0.8819 0.0
vtan -0.6344 -0.773 0.0
vtan -0.773 -0.6344 0.0
vtan -0.8819 -0.4714 0.0
vtan 1.0 0.0 0.0
vtan 1.0 0.0 0.0
vtan 1.0 -0.0 0.0
vtan -0.9569 -0.2903 0.0
vtan -0.9952 -0.098 0.0
vtan 1.0 -0.0 0.0
vtan 1.0 -0.0 0.0
vtan -0.9569 0.2903 0.0
vtan -0.773 0.6344 0.0
vtan -0.4714 0.8819 0.0
vtan -0.4714 0.8819 0.0
vtan 0.4714 0.8819 0.0
vtan 0.4714 0.8819 0.0
vtan 0.773 0.6344 0.0
vtan 0.9569 0.2903 0.0
vtan 0.9569 -0.2903 0.0
vtan 0.773 -0.6344 0.0
vtan 0.4714 -0.8819 0.0
vtan 0.4714 -0.8819 0.0
vtan -0.4714 -0.8819 0.0
vtan -0.4714 -0.8819 0.0
vtan -0.773 -0.6344 0.0
vtan 1.0 0.0 0.0
vtan 1.0 -0.0 0.0
vtan 1.0 -0.0 0.0
vtan 1.0 0.0 0.0
vtan 1.0 0.0 0.0
vtan 1.0 0.0 0.0
vtan 1.0 -0.0 0.0
vtan 1.0 -0.0 0.0
vtan 1.0 0.0 0.0
vtan 1.0 0.0 0.0
vtan 1.0 0.0 0.0
vtan 1.0 0.0 0.0
vtan 1.0 -0.0 0.0
vtan 1.0 0.0 0.0
vtan 1.0 0.0 0.0
vtan 1.0 -0.0 0.0
vtan 1.0 0.0 0.0
vtan 1.0 0.0 0.0
vtan 1.0 -0.0 0.0
vtan 1.0 0.0 0.0
vtan 1.0 -0.0 0.0
vtan 1.0 0.0 0.0
vtan 1.0 0.0 0.0
vtan 1.0 -0.0 0.0
vtan 1.0 0.0 0.0
vtan 1.0 0.0 0.0
vtan 1.0 0.0 0.0
vtan 1.0 -0.0 -0.0
vtan 1.0 -0.0 -0.0
vtan 1.0 -0.0 0.0
vtan 1.0 0.0 0.0
vtan 1.0 0.0 0.0
vtan 1.0 -0.0 0.0
vtan 1.0 -0.0 0.0
vtan -0.9569 -0.2903 0.0
vtan 1.0 0.0 0.0
vtan 1.0 -0.0 0.0
vtan 1.0 -0.0 0.0
vtan 1.0 -0.0 0.0
vtan 1.0 0.0 0.0
vtan 1.0 -0.0 0.0
vtan 1.0 0.0 0.0
vtan 1.0 0.0 0.0
vtan 1.0 0.0 0.0
vtan 1.0 -0.0 0.0
vtan 1.0 -0.0 0.0
vtan 1.0 -0.0 0.0
vtan 1.0 0.0 -0.0
vtan 1.0 0.0 -0.0
vtan 1.0 0.0 -0.0
vtan 1.0 0.0 0.0
vtan 1.0 -0.0 0.0
vtan 1.0 0.0 -0.0
vtan 1.0 0.0 0.0
vtan 1.0 0.0 0.0
vtan 1.0 0.0 0.0
vtan 1.0 -0.0 -0.0
vtan 1.0 0.0 0.0
f 1/0/0/0 2/1/0/0 0/2/0/0 
f 3/3/1/1 4/4/1/1 2/1/1/1 
f 5/5/2/2 6/6/2/2 4/4/2/2 
f 7/7/3/3 8/8/3/3 6/6/3/3 
f 9/9/4/4 10/10/4/4 8/8/4/4 
f 11/11/5/5 12/12/5/6 10/10/5/5 
f 13/13/6/7 14/14/6/7 12/12/6/7 
f 15/15/7/8 16/16/7/8 14/14/7/8 
f 17/17/8/9 18/18/8/9 16/16/8/9 
f 19/19/9/10 20/20/9/10 18/18/9/10 
f 21/21/10/11 22/22/10/12 20/20/10/11 
f 23/23/11/13 24/24/11/13 22/22/11/13 
f 25/25/12/14 26/26/12/14 24/24/12/14 
f 27/27/13/15 28/28/13/15 26/26/13/15 
f 29/29/14/16 30/30/14/16 28/28/14/16 
f 31/31/15/17 32/32/15/17 30/30/15/17 
f 33/33/16/18 34/34/16/18 32/32/16/18 
f 35/35/17/19 36/36/17/19 34/34/17/19 
f 37/37/18/20 38/38/18/20 36/36/18/20 
f 39/39/19/21 40/40/19/21 38/38/19/21 
f 41/41/20/22 42/42/20/22 40/40/20/22 
f 43/43/21/23 44/44/21/24 42/42/21/23 
f 45/45/22/25 46/46/22/25 44/44/22/25 
f 47/47/23/26 48/48/23/26 46/46/23/26 
f 49/49/24/27 50/50/24/27 48/48/24/27 
f 51/51/25/28 52/52/25/28 50/50/25/28 
f 53/53/26/29 54/54/26/30 52/52/26/29 
f 55/55/27/31 56/56/27/31 54/54/27/31 
f 57/57/28/32 58/58/28/32 56/56/28/32 
f 59/59/29/33 60/60/29/33 58/58/29/33 
f 37/61/30/34 21/62/30/35 5/63/30/36 
f 61/64/31/37 62/65/31/37 60/60/31/37 
f 63/66/32/38 0/67/32/38 62/65/32/38 
f 30/68/33/39 46/69/33/40 62/70/33/39 
f 1/0/0/0 3/3/0/0 2/1/0/0 
f 3/3/34/41 5/5/34/41 4/4/34/41 
f 5/5/2/2 7/7/2/2 6/6/2/2 
f 7/7/35/42 9/9/35/42 8/8/35/42 
f 9/9/4/4 11/11/4/4 10/10/4/4 
f 11/11/36/43 13/13/36/44 12/12/36/44 
f 13/13/6/7 15/15/6/7 14/14/6/7 
f 15/15/7/8 17/17/7/8 16/16/7/8 
f 17/17/8/9 19/19/8/9 18/18/8/9 
f 19/19/9/10 21/21/9/10 20/20/9/10 
f 21/21/37/45 23/23/37/46 22/22/37/46 
f 23/23/11/13 25/25/11/13 24/24/11/13 
f 25/25/38/47 27/27/38/47 26/26/38/47 
f 27/27/13/15 29/29/13/15 28/28/13/15 
f 29/29/39/48 31/31/39/48 30/30/39/48 
f 31/31/15/17 33/33/15/17 32/32/15/17 
f 33/33/16/18 35/35/16/18 34/34/16/18 
f 35/35/40/49 37/37/40/49 36/36/40/49 
f 37/37/18/20 39/39/18/20 38/38/18/20 
f 39/39/41/50 41/41/41/50 40/40/41/50 
f 41/41/20/22 43/43/20/22 42/42/20/22 
f 43/43/42/51 45/45/42/52 44/44/42/52 
f 45/45/22/25 47/47/22/25 46/46/22/25 
f 47/47/23/26 49/49/23/26 48/48/23/26 
f 49/49/24/27 51/51/24/27 50/50/24/27 
f 51/51/25/28 53/53/25/28 52/52/25/28 
f 53/53/43/53 55/55/43/54 54/54/43/54 
f 55/55/27/31 57/57/27/31 56/56/27/31 
f 57/57/44/55 59/59/44/55 58/58/44/55 
f 59/59/29/33 61/64/29/33 60/60/29/33 
f 5/63/30/36 3/71/30/56 1/72/30/57 
f 1/72/30/57 63/73/30/58 5/63/30/36 
f 63/73/30/58 61/74/30/59 5/63/30/36 
f 61/74/30/59 59/75/30/60 57/76/30/61 
f 57/76/30/62 55/77/30/63 53/78/30/62 
f 53/78/30/64 51/79/30/65 49/80/30/66 
f 49/80/30/66 47/81/30/67 53/78/30/64 
f 47/81/30/68 45/82/30/69 53/78/30/70 
f 45/82/30/71 43/83/30/71 41/84/30/71 
f 41/84/30/72 39/85/30/73 37/61/30/34 
f 37/61/30/34 35/86/30/74 29/87/30/75 
f 35/86/30/74 33/88/30/76 29/87/30/75 
f 33/88/30/76 31/89/30/77 29/87/30/75 
f 29/87/30/75 27/90/30/78 25/91/30/79 
f 25/91/30/80 23/92/30/80 21/62/30/80 
f 21/62/30/35 19/93/30/81 13/94/30/82 
f 19/93/45/83 17/95/45/84 13/94/45/83 
f 17/95/30/85 15/96/30/85 13/94/30/85 
f 13/94/30/86 11/97/30/87 9/98/30/86 
f 9/98/30/88 7/99/30/89 5/63/30/36 
f 61/74/30/59 57/76/30/61 5/63/30/36 
f 57/76/30/61 53/78/30/70 5/63/30/36 
f 45/82/30/69 41/84/30/72 53/78/30/70 
f 41/84/30/72 37/61/30/34 53/78/30/70 
f 29/87/30/75 25/91/30/79 37/61/30/34 
f 25/91/30/79 21/62/30/35 37/61/30/34 
f 13/94/30/82 9/98/30/88 21/62/30/35 
f 9/98/30/88 5/63/30/36 21/62/30/35 
f 5/63/30/36 53/78/30/70 37/61/30/34 
f 61/64/46/90 63/66/46/90 62/65/46/90 
f 63/66/32/38 1/100/32/38 0/67/32/38 
f 62/70/33/39 0/101/33/73 2/102/33/73 
f 2/102/33/91 4/103/33/91 6/104/33/91 
f 6/104/33/92 8/105/33/92 10/106/33/92 
f 10/106/33/73 12/107/33/73 14/108/33/73 
f 14/108/33/73 16/109/33/73 18/110/33/73 
f 18/110/33/93 20/111/33/93 22/112/33/93 
f 22/112/33/94 24/113/33/94 26/114/33/94 
f 26/114/33/95 28/115/33/95 30/68/33/95 
f 30/68/33/39 32/116/33/73 34/117/33/73 
f 34/117/33/96 36/118/33/96 38/119/33/96 
f 38/119/33/97 40/120/33/97 42/121/33/97 
f 42/121/33/98 44/122/33/98 46/69/33/98 
f 46/69/33/73 48/123/33/73 50/124/33/73 
f 50/124/33/73 52/125/33/73 54/126/33/73 
f 54/126/33/99 56/127/33/99 58/128/33/99 
f 58/128/33/100 60/129/33/100 62/70/33/100 
f 62/70/33/39 2/102/33/73 14/108/33/40 
f 2/102/47/101 6/104/47/102 14/108/47/101 
f 6/104/48/103 10/106/48/103 14/108/48/103 
f 14/108/49/104 18/110/49/104 30/68/49/105 
f 18/110/50/106 22/112/50/106 30/68/50/106 
f 22/112/33/107 26/114/33/107 30/68/33/107 
f 30/68/33/39 34/117/33/73 46/69/33/40 
f 34/117/51/108 38/119/51/108 46/69/51/108 
f 38/119/52/109 42/121/52/109 46/69/52/109 
f 46/69/53/110 50/124/53/110 62/70/53/111 
f 50/124/54/112 54/126/54/112 62/70/54/112 
f 54/126/33/113 58/128/33/113 62/70/33/113 
f 62/70/33/39 14/108/33/40 30/68/33/39 
