v 0.0 0.0 -1.0
v 0.7236 -0.5257 -0.4472
v -0.2764 -0.8506 -0.4472
v -0.8944 0.0 -0.4472
v -0.2764 0.8506 -0.4472
v 0.7236 0.5257 -0.4472
v 0.2764 -0.8506 0.4472
v -0.7236 -0.5257 0.4472
v -0.7236 0.5257 0.4472
v 0.2764 0.8506 0.4472
v 0.8944 0.0 0.4472
v 0.0 0.0 1.0
v -0.1625 -0.5 -0.8507
v 0.4253 -0.309 -0.8507
v 0.2629 -0.809 -0.5257
v 0.8506 0.0 -0.5257
v 0.4253 0.309 -0.8507
v -0.5257 0.0 -0.8507
v -0.6882 -0.5 -0.5257
v -0.1625 0.5 -0.8507
v -0.6882 0.5 -0.5257
v 0.2629 0.809 -0.5257
v 0.9511 -0.309 0.0
v 0.9511 0.309 0.0
v 0.0 -1.0 0.0
v 0.5878 -0.809 0.0
v -0.9511 -0.309 0.0
v -0.5878 -0.809 0.0
v -0.5878 0.809 0.0
v -0.9511 0.309 0.0
v 0.5878 0.809 0.0
v 0.0 1.0 0.0
v 0.6882 -0.5 0.5257
v -0.2629 -0.809 0.5257
v -0.8506 0.0 0.5257
v -0.2629 0.809 0.5257
v 0.6882 0.5 0.5257
v 0.1625 -0.5 0.8507
v 0.5257 0.0 0.8507
v -0.4253 -0.309 0.8507
v -0.4253 0.309 0.8507
v 0.1625 0.5 0.8507
gi 0 0 0 0
gi 0 0 0 0
gi 0 0 0 0
gi 0 0 0 0
gi 0 0 0 0
gi 0 0 0 0
gi 0 0 0 0
gi 0 0 0 0
gi 0 0 0 0
gi 0 0 0 0
gi 0 0 0 0
gi 0 0 0 0
gi 0 0 0 0
gi 0 0 0 0
gi 0 0 0 0
gi 0 0 0 0
gi 0 0 0 0
gi 0 0 0 0
gi 0 0 0 0
gi 0 0 0 0
gi 0 0 0 0
gi 0 0 0 0
gi 0 0 0 0
gi 0 0 0 0
gi 0 0 0 0
gi 0 0 0 0
gi 0 0 0 0
gi 0 0 0 0
gi 0 0 0 0
gi 0 0 0 0
gi 0 0 0 0
gi 0 0 0 0
gi 0 0 0 0
gi 0 0 0 0
gi 0 0 0 0
gi 0 0 0 0
gi 0 0 0 0
gi 0 0 0 0
gi 0 0 0 0
gi 0 0 0 0
gi 0 0 0 0
gi 0 0 0 0
gw 0.0 0.0 0.0 0.0
gw 0.0 0.0 0.0 0.0
gw 0.0 0.0 0.0 0.0
gw 0.0 0.0 0.0 0.0
gw 0.0 0.0 0.0 0.0
gw 0.0 0.0 0.0 0.0
gw 0.0 0.0 0.0 0.0
gw 0.0 0.0 0.0 0.0
gw 0.0 0.0 0.0 0.0
gw 0.0 0.0 0.0 0.0
gw 0.0 0.0 0.0 0.0
gw 0.0 0.0 0.0 0.0
gw 0.0 0.0 0.0 0.0
gw 0.0 0.0 0.0 0.0
gw 0.0 0.0 0.0 0.0
gw 0.0 0.0 0.0 0.0
gw 0.0 0.0 0.0 0.0
gw 0.0 0.0 0.0 0.0
gw 0.0 0.0 0.0 0.0
gw 0.0 0.0 0.0 0.0
gw 0.0 0.0 0.0 0.0
gw 0.0 0.0 0.0 0.0
gw 0.0 0.0 0.0 0.0
gw 0.0 0.0 0.0 0.0
gw 0.0 0.0 0.0 0.0
gw 0.0 0.0 0.0 0.0
gw 0.0 0.0 0.0 0.0
gw 0.0 0.0 0.0 0.0
gw 0.0 0.0 0.0 0.0
gw 0.0 0.0 0.0 0.0
gw 0.0 0.0 0.0 0.0
gw 0.0 0.0 0.0 0.0
gw 0.0 0.0 0.0 0.0
gw 0.0 0.0 0.0 0.0
gw 0.0 0.0 0.0 0.0
gw 0.0 0.0 0.0 0.0
gw 0.0 0.0 0.0 0.0
gw 0.0 0.0 0.0 0.0
gw 0.0 0.0 0.0 0.0
gw 0.0 0.0 0.0 0.0
gw 0.0 0.0 0.0 0.0
gw 0.0 0.0 0.0 0.0
vt 0.1818 0.0
vt 0.2273 0.0787
vt 0.1364 0.0787
vt 0.2727 0.1575
vt 0.3182 0.0787
vt 0.3636 0.1575
vt 0.9091 0.0
vt 0.9545 0.0787
vt 0.8636 0.0787
vt 0.7273 0.0
vt 0.7727 0.0787
vt 0.6818 0.0787
vt 0.5455 0.0
vt 0.5909 0.0787
vt 0.5 0.0787
vt 0.3182 0.2362
vt 0.0909 0.1575
vt 0.1818 0.1575
vt 0.1364 0.2362
vt 0.8182 0.1575
vt 0.9091 0.1575
vt 0.8636 0.2362
vt 0.6364 0.1575
vt 0.7273 0.1575
vt 0.6818 0.2362
vt 0.4545 0.1575
vt 0.5455 0.1575
vt 0.5 0.2362
vt 0.2273 0.2362
vt 0.0455 0.2362
vt 0.7727 0.2362
vt 0.5909 0.2362
vt 0.4091 0.2362
vt 0.1818 0.3149
vt 0.2727 0.3149
vt 0.2273 0.3937
vt 0.0 0.3149
vt 0.0909 0.3149
vt 0.0455 0.3937
vt 0.7273 0.3149
vt 0.8182 0.3149
vt 0.7727 0.3937
vt 0.5455 0.3149
vt 0.6364 0.3149
vt 0.5909 0.3937
vt 0.3636 0.3149
vt 0.4545 0.3149
vt 0.4091 0.3937
vt 0.5 0.3937
vt 0.4545 0.4724
vt 0.6818 0.3937
vt 0.6364 0.4724
vt 0.8636 0.3937
vt 0.8182 0.4724
vt 0.9091 0.3149
vt 0.1364 0.3937
vt 0.0909 0.4724
vt 0.3182 0.3937
vt 0.2727 0.4724
vt 0.9545 0.2362
vt 1.0 0.1575
vt 0.4091 0.0787
vt 0.3636 0.0
vn 0.1024 -0.3151 -0.9435
vn 0.7002 -0.268 -0.6617
vn -0.268 -0.1947 -0.9435
vn -0.268 0.1947 -0.9435
vn 0.1024 0.3151 -0.9435
vn 0.905 -0.268 -0.3304
vn 0.0247 -0.9435 -0.3304
vn -0.8897 -0.3151 -0.3304
vn -0.5746 0.7488 -0.3304
vn 0.5346 0.7779 -0.3304
vn 0.8026 -0.5831 -0.1256
vn -0.3066 -0.9435 -0.1256
vn -0.9921 0.0 -0.1256
vn -0.3066 0.9435 -0.1256
vn 0.8026 0.5831 -0.1256
vn 0.4089 -0.6284 0.6617
vn -0.4713 -0.5831 0.6617
vn -0.7002 0.268 0.6617
vn 0.0385 0.7488 0.6617
vn 0.724 0.1947 0.6617
vn 0.268 0.1947 0.9435
vn 0.4911 0.3568 0.7947
vn 0.4089 0.6284 0.6617
vn -0.1024 0.3151 0.9435
vn -0.1876 0.5773 0.7947
vn -0.4713 0.5831 0.6617
vn -0.3313 0.0 0.9435
vn -0.6071 0.0 0.7947
vn -0.7002 -0.268 0.6617
vn -0.1024 -0.3151 0.9435
vn -0.1876 -0.5773 0.7947
vn 0.0385 -0.7488 0.6617
vn 0.268 -0.1947 0.9435
vn 0.4911 -0.3568 0.7947
vn 0.724 -0.1947 0.6617
vn 0.8897 0.3151 0.3304
vn 0.7947 0.5773 0.1876
vn 0.5746 0.7488 0.3304
vn -0.0247 0.9435 0.3304
vn -0.3035 0.9342 0.1876
vn -0.5346 0.7779 0.3304
vn -0.905 0.268 0.3304
vn -0.9822 0.0 0.1876
vn -0.905 -0.268 0.3304
vn -0.5346 -0.7779 0.3304
vn -0.3035 -0.9342 0.1876
vn -0.0247 -0.9435 0.3304
vn 0.5746 -0.7488 0.3304
vn 0.7947 -0.5773 0.1876
vn 0.8897 -0.3151 0.3304
vn 0.3066 0.9435 0.1256
vn 0.3035 0.9342 -0.1876
vn 0.0247 0.9435 -0.3304
vn -0.8026 0.5831 0.1256
vn -0.7947 0.5773 -0.1876
vn -0.8897 0.3151 -0.3304
vn -0.8026 -0.5831 0.1256
vn -0.7947 -0.5773 -0.1876
vn -0.5746 -0.7488 -0.3304
vn 0.3066 -0.9435 0.1256
vn 0.3035 -0.9342 -0.1876
vn 0.5346 -0.7779 -0.3304
vn 0.9921 0.0 0.1256
vn 0.9822 0.0 -0.1876
vn 0.905 0.268 -0.3304
vn 0.4713 0.5831 -0.6617
vn 0.1876 0.5773 -0.7947
vn -0.0385 0.7488 -0.6617
vn -0.4089 0.6284 -0.6617
vn -0.4911 0.3568 -0.7947
vn -0.724 0.1947 -0.6617
vn -0.724 -0.1947 -0.6617
vn -0.4911 -0.3568 -0.7947
vn -0.4089 -0.6284 -0.6617
vn 0.7002 0.268 -0.6617
vn 0.6071 0.0 -0.7947
vn 0.3313 0.0 -0.9435
vn -0.0385 -0.7488 -0.6617
vn 0.1876 -0.5773 -0.7947
vn 0.4713 -0.5831 -0.6617
vtan 0.9511 0.309 0.0
vtan 0.2325 0.9619 -0.1437
vtan 0.2325 0.9619 -0.1437
vtan 0.5878 -0.809 -0.0
vtan 0.5878 -0.809 -0.0
vtan -0.5878 -0.809 0.0
vtan -0.5878 -0.809 0.0
vtan -0.9511 0.309 -0.0
vtan 0.2325 0.9619 -0.1437
vtan 0.2325 0.9619 -0.1437
vtan 0.9867 0.0762 -0.1437
vtan 0.3774 -0.9149 -0.1437
vtan 0.3774 -0.9149 -0.1437
vtan -0.7535 -0.6416 -0.1437
vtan -0.843 0.5183 -0.1437
vtan 0.5878 0.809 -0.0
vtan 0.9511 -0.309 0.0
vtan 0.0 -1.0 0.0
vtan -0.9511 -0.309 -0.0
vtan -0.5878 0.809 0.0
vtan 0.7535 0.6416 0.1437
vtan 0.843 -0.5183 0.1437
vtan -0.2325 -0.9619 0.1437
vtan -0.2325 -0.9619 0.1437
vtan -0.9867 -0.0762 0.1437
vtan -0.3774 0.9149 0.1437
vtan -0.5878 0.809 0.0
vtan -0.5878 0.809 0.0
vtan -0.5878 0.809 0.0
vtan -0.5878 0.809 0.0
vtan -0.7535 0.6416 -0.1437
vtan -0.9511 -0.309 -0.0
vtan -0.9511 -0.309 -0.0
vtan -0.9511 -0.309 -0.0
vtan -0.843 -0.5183 -0.1437
vtan 0.2325 -0.9619 -0.1437
vtan 0.2325 -0.9619 -0.1437
vtan 0.9511 -0.309 0.0
vtan 0.9511 -0.309 0.0
vtan 0.9511 -0.309 0.0
vtan 0.9511 -0.309 0.0
vtan 0.9867 -0.0762 -0.1437
vtan 0.5878 0.809 -0.0
vtan 0.5878 0.809 -0.0
vtan 0.3774 0.9149 -0.1437
vtan -0.5878 0.809 0.0
vtan -0.5878 0.809 0.0
vtan -0.7535 0.6416 -0.1437
vtan -0.9867 -0.0762 0.1437
vtan -0.9511 -0.309 0.0
vtan -0.843 -0.5183 -0.1437
vtan -0.2325 -0.9619 0.1437
vtan 0.2325 -0.9619 -0.1437
vtan 0.843 -0.5183 0.1437
vtan 0.9511 -0.309 0.0
vtan 0.9867 -0.0762 -0.1437
vtan 0.7535 0.6416 0.1437
vtan 0.5878 0.809 -0.0
vtan 0.3774 0.9149 -0.1437
vtan -0.9511 0.309 -0.0
vtan -0.9511 0.309 0.0
vtan -0.9867 0.0762 0.1437
vtan -0.5878 -0.809 0.0
vtan -0.5878 -0.809 0.0
vtan -0.3774 -0.9149 0.1437
vtan -0.3774 -0.9149 0.1437
vtan 0.5878 -0.809 -0.0
vtan 0.5878 -0.809 -0.0
vtan 0.5878 -0.809 -0.0
vtan 0.7535 -0.6416 0.1437
vtan 0.9511 0.309 0.0
vtan 0.9511 0.309 0.0
vtan 0.843 0.5183 0.1437
vtan 0.0 1.0 0.0
vtan -0.2325 0.9619 0.1437
vtan -0.843 0.5183 -0.1437
vtan -0.9511 0.309 -0.0
vtan -0.9867 0.0762 0.1437
vtan -0.7535 -0.6416 -0.1437
vtan -0.5878 -0.809 0.0
vtan -0.3774 -0.9149 0.1437
vtan 0.3774 -0.9149 -0.1437
vtan 0.5878 -0.809 -0.0
vtan 0.7535 -0.6416 0.1437
vtan -0.2325 0.9619 0.1437
vtan -0.2325 0.9619 0.1437
vtan 0.9867 0.0762 -0.1437
vtan 0.9511 0.309 0.0
vtan 0.843 0.5183 0.1437
f 0/0/0/0 13/1/0/0 12/2/0/0 
f 1/3/1/1 13/4/1/2 15/5/1/1 
f 0/6/2/3 12/7/2/4 17/8/2/3 
f 0/9/3/5 17/10/3/5 19/11/3/6 
f 0/12/4/7 19/13/4/7 16/14/4/7 
f 1/3/5/8 15/5/5/9 22/15/5/9 
f 2/16/6/10 14/17/6/10 24/18/6/10 
f 3/19/7/11 18/20/7/12 26/21/7/11 
f 4/22/8/13 20/23/8/13 28/24/8/13 
f 5/25/9/14 21/26/9/14 30/27/9/14 
f 1/3/10/15 22/15/10/15 25/28/10/15 
f 2/16/11/16 24/18/11/16 27/29/11/16 
f 3/19/12/17 26/21/12/17 29/30/12/17 
f 4/22/13/18 28/24/13/18 31/31/13/18 
f 5/25/14/19 30/27/14/19 23/32/14/19 
f 6/33/15/20 32/34/15/20 37/35/15/20 
f 7/36/16/21 33/37/16/21 39/38/16/21 
f 8/39/17/22 34/40/17/22 40/41/17/23 
f 9/42/18/24 35/43/18/24 41/44/18/24 
f 10/45/19/25 36/46/19/25 38/47/19/25 
f 38/47/20/26 41/48/20/26 11/49/20/27 
f 38/47/21/28 36/46/21/29 41/48/21/28 
f 36/46/22/30 9/42/22/30 41/48/22/30 
f 41/44/23/31 40/50/23/32 11/51/23/31 
f 41/44/24/33 35/43/24/33 40/50/24/33 
f 35/43/25/34 8/39/25/34 40/50/25/34 
f 40/41/26/17 39/52/26/17 11/53/26/17 
f 40/41/27/17 34/40/27/17 39/52/27/17 
f 34/40/28/35 7/54/28/36 39/52/28/35 
f 39/38/29/37 37/55/29/38 11/56/29/37 
f 39/38/30/39 33/37/30/40 37/55/30/39 
f 33/37/31/41 6/33/31/41 37/55/31/41 
f 37/35/32/42 38/57/32/42 11/58/32/42 
f 37/35/33/43 32/34/33/43 38/57/33/43 
f 32/34/34/44 10/45/34/44 38/57/34/44 
f 23/32/35/25 36/46/35/25 10/45/35/25 
f 23/32/36/45 30/27/36/46 36/46/36/46 
f 30/27/37/47 9/42/37/47 36/46/37/47 
f 31/31/38/48 35/43/38/48 9/42/38/48 
f 31/31/39/49 28/24/39/49 35/43/39/49 
f 28/24/40/50 8/39/40/50 35/43/40/50 
f 29/30/41/51 34/40/41/51 8/39/41/51 
f 29/30/42/17 26/21/42/17 34/40/42/17 
f 26/21/43/52 7/54/43/52 34/40/43/52 
f 27/29/44/53 33/37/44/53 7/36/44/53 
f 27/29/45/54 24/18/45/54 33/37/45/54 
f 24/18/46/55 6/33/46/55 33/37/46/55 
f 25/28/47/56 32/34/47/56 6/33/47/56 
f 25/28/48/57 22/15/48/57 32/34/48/57 
f 22/15/49/44 10/45/49/44 32/34/49/58 
f 30/27/50/59 31/31/50/59 9/42/50/59 
f 30/27/51/60 21/26/51/60 31/31/51/60 
f 21/26/52/61 4/22/52/61 31/31/52/61 
f 28/24/53/62 29/30/53/62 8/39/53/62 
f 28/24/54/63 20/23/54/63 29/30/54/63 
f 20/23/55/64 3/19/55/65 29/30/55/64 
f 26/21/56/66 27/59/56/66 7/54/56/66 
f 26/21/57/67 18/20/57/68 27/59/57/68 
f 18/20/58/69 2/60/58/69 27/59/58/69 
f 24/18/59/70 25/28/59/70 6/33/59/70 
f 24/18/60/71 14/17/60/71 25/28/60/71 
f 14/17/61/72 1/3/61/72 25/28/61/72 
f 22/15/62/73 23/32/62/73 10/45/62/73 
f 22/15/63/73 15/5/63/73 23/32/63/73 
f 15/5/64/74 5/25/64/74 23/32/64/74 
f 16/14/65/75 21/26/65/75 5/25/65/75 
f 16/14/66/76 19/13/66/76 21/26/66/76 
f 19/13/67/77 4/22/67/77 21/26/67/77 
f 19/11/68/78 20/23/68/78 4/22/68/78 
f 19/11/69/79 17/10/69/79 20/23/69/79 
f 17/10/70/80 3/19/70/80 20/23/70/80 
f 17/8/71/81 18/20/71/81 3/19/71/81 
f 17/8/72/82 12/7/72/82 18/20/72/82 
f 12/7/73/83 2/60/73/83 18/20/73/83 
f 15/5/74/84 16/61/74/84 5/25/74/85 
f 15/5/75/73 13/4/75/73 16/61/75/73 
f 13/4/76/73 0/62/76/73 16/61/76/73 
f 12/2/77/86 14/17/77/86 2/16/77/86 
f 12/2/78/87 13/1/78/87 14/17/78/87 
f 13/1/79/88 1/3/79/88 14/17/79/88 
