v 0.0 0.0 -1.0
v 0.7236 -0.5257 -0.4472
v -0.2764 -0.8506 -0.4472
v -0.8944 0.0 -0.4472
v -0.2764 0.8506 -0.4472
v 0.7236 0.5257 -0.4472
v 0.2764 -0.8506 0.4472
v -0.7236 -0.5257 0.4472
v -0.7236 0.5257 0.4472
v 0.2764 0.8506 0.4472
v 0.8944 0.0 0.4472
v 0.0 0.0 1.0
v -0.1625 -0.5 -0.8507
v 0.4253 -0.309 -0.8507
v 0.2629 -0.809 -0.5257
v 0.8506 0.0 -0.5257
v 0.4253 0.309 -0.8507
v -0.5257 0.0 -0.8507
v -0.6882 -0.5 -0.5257
v -0.1625 0.5 -0.8507
v -0.6882 0.5 -0.5257
v 0.2629 0.809 -0.5257
v 0.9511 -0.309 0.0
v 0.9511 0.309 0.0
v 0.0 -1.0 0.0
v 0.5878 -0.809 0.0
v -0.9511 -0.309 0.0
v -0.5878 -0.809 0.0
v -0.5878 0.809 0.0
v -0.9511 0.309 0.0
v 0.5878 0.809 0.0
v 0.0 1.0 0.0
v 0.6882 -0.5 0.5257
v -0.2629 -0.809 0.5257
v -0.8506 0.0 0.5257
v -0.2629 0.809 0.5257
v 0.6882 0.5 0.5257
v 0.1625 -0.5 0.8507
v 0.5257 0.0 0.8507
v -0.4253 -0.309 0.8507
v -0.4253 0.309 0.8507
v 0.1625 0.5 0.8507
vt 0.1818 0.0
vt 0.2273 0.0787
vt 0.1364 0.0787
vt 0.2727 0.1575
vt 0.3182 0.0787
vt 0.3636 0.1575
vt 0.9091 0.0
vt 0.9545 0.0787
vt 0.8636 0.0787
vt 0.7273 0.0
vt 0.7727 0.0787
vt 0.6818 0.0787
vt 0.5455 0.0
vt 0.5909 0.0787
vt 0.5 0.0787
vt 0.3182 0.2362
vt 0.0909 0.1575
vt 0.1818 0.1575
vt 0.1364 0.2362
vt 0.8182 0.1575
vt 0.9091 0.1575
vt 0.8636 0.2362
vt 0.6364 0.1575
vt 0.7273 0.1575
vt 0.6818 0.2362
vt 0.4545 0.1575
vt 0.5455 0.1575
vt 0.5 0.2362
vt 0.2273 0.2362
vt 0.0455 0.2362
vt 0.7727 0.2362
vt 0.5909 0.2362
vt 0.4091 0.2362
vt 0.1818 0.3149
vt 0.2727 0.3149
vt 0.2273 0.3937
vt 0.0 0.3149
vt 0.0909 0.3149
vt 0.0455 0.3937
vt 0.7273 0.3149
vt 0.8182 0.3149
vt 0.7727 0.3937
vt 0.5455 0.3149
vt 0.6364 0.3149
vt 0.5909 0.3937
vt 0.3636 0.3149
vt 0.4545 0.3149
vt 0.4091 0.3937
vt 0.5 0.3937
vt 0.4545 0.4724
vt 0.6818 0.3937
vt 0.6364 0.4724
vt 0.8636 0.3937
vt 0.8182 0.4724
vt 0.9091 0.3149
vt 0.1364 0.3937
vt 0.0909 0.4724
vt 0.3182 0.3937
vt 0.2727 0.4724
vt 0.9545 0.2362
vt 1.0 0.1575
vt 0.4091 0.0787
vt 0.3636 0.0
vn 0.1024 -0.3151 -0.9435
vn 0.7002 -0.268 -0.6617
vn -0.268 -0.1947 -0.9435
vn -0.268 0.1947 -0.9435
vn 0.1024 0.3151 -0.9435
vn 0.905 -0.268 -0.3304
vn 0.0247 -0.9435 -0.3304
vn -0.8897 -0.3151 -0.3304
vn -0.5746 0.7488 -0.3304
vn 0.5346 0.7779 -0.3304
vn 0.8026 -0.5831 -0.1256
vn -0.3066 -0.9435 -0.1256
vn -0.9921 0.0 -0.1256
vn -0.3066 0.9435 -0.1256
vn 0.8026 0.5831 -0.1256
vn 0.4089 -0.6284 0.6617
vn -0.4713 -0.5831 0.6617
vn -0.7002 0.268 0.6617
vn 0.0385 0.7488 0.6617
vn 0.724 0.1947 0.6617
vn 0.268 0.1947 0.9435
vn 0.4911 0.3568 0.7947
vn 0.4089 0.6284 0.6617
vn -0.1024 0.3151 0.9435
vn -0.1876 0.5773 0.7947
vn -0.4713 0.5831 0.6617
vn -0.3313 0.0 0.9435
vn -0.6071 0.0 0.7947
vn -0.7002 -0.268 0.6617
vn -0.1024 -0.3151 0.9435
vn -0.1876 -0.5773 0.7947
vn 0.0385 -0.7488 0.6617
vn 0.268 -0.1947 0.9435
vn 0.4911 -0.3568 0.7947
vn 0.724 -0.1947 0.6617
vn 0.8897 0.3151 0.3304
vn 0.7947 0.5773 0.1876
vn 0.5746 0.7488 0.3304
vn -0.0247 0.9435 0.3304
vn -0.3035 0.9342 0.1876
vn -0.5346 0.7779 0.3304
vn -0.905 0.268 0.3304
vn -0.9822 0.0 0.1876
vn -0.905 -0.268 0.3304
vn -0.5346 -0.7779 0.3304
vn -0.3035 -0.9342 0.1876
vn -0.0247 -0.9435 0.3304
vn 0.5746 -0.7488 0.3304
vn 0.7947 -0.5773 0.1876
vn 0.8897 -0.3151 0.3304
vn 0.3066 0.9435 0.1256
vn 0.3035 0.9342 -0.1876
vn 0.0247 0.9435 -0.3304
vn -0.8026 0.5831 0.1256
vn -0.7947 0.5773 -0.1876
vn -0.8897 0.3151 -0.3304
vn -0.8026 -0.5831 0.1256
vn -0.7947 -0.5773 -0.1876
vn -0.5746 -0.7488 -0.3304
vn 0.3066 -0.9435 0.1256
vn 0.3035 -0.9342 -0.1876
vn 0.5346 -0.7779 -0.3304
vn 0.9921 0.0 0.1256
vn 0.9822 0.0 -0.1876
vn 0.905 0.268 -0.3304
vn 0.4713 0.5831 -0.6617
vn 0.1876 0.5773 -0.7947
vn -0.0385 0.7488 -0.6617
vn -0.4089 0.6284 -0.6617
vn -0.4911 0.3568 -0.7947
vn -0.724 0.1947 -0.6617
vn -0.724 -0.1947 -0.6617
vn -0.4911 -0.3568 -0.7947
vn -0.4089 -0.6284 -0.6617
vn 0.7002 0.268 -0.6617
vn 0.6071 0.0 -0.7947
vn 0.3313 0.0 -0.9435
vn -0.0385 -0.7488 -0.6617
vn 0.1876 -0.5773 -0.7947
vn 0.4713 -0.5831 -0.6617
vtan 0.9511 0.309 0.0 1.0
vtan 0.9511 0.309 0.0 1.0
vtan 0.9511 0.309 0.0 1.0
vtan 0.2325 0.9619 -0.1437 1.0
vtan 0.2325 0.9619 -0.1437 1.0
vtan 0.2325 0.9619 -0.1437 1.0
vtan 0.5878 -0.809 -0.0 1.0
vtan 0.5878 -0.809 -0.0 1.0
vtan 0.5878 -0.809 -0.0 1.0
vtan -0.5878 -0.809 0.0 1.0
vtan -0.5878 -0.809 0.0 1.0
vtan -0.5878 -0.809 0.0 1.0
vtan -0.9511 0.309 -0.0 1.0
vtan -0.9511 0.309 -0.0 1.0
vtan -0.9511 0.309 -0.0 1.0
vtan 0.2325 0.9619 -0.1437 1.0
vtan 0.2325 0.9619 -0.1437 1.0
vtan 0.2325 0.9619 -0.1437 1.0
vtan 0.9867 0.0762 -0.1437 1.0
vtan 0.9867 0.0762 -0.1437 1.0
vtan 0.3774 -0.9149 -0.1437 1.0
vtan 0.3774 -0.9149 -0.1437 1.0
vtan 0.3774 -0.9149 -0.1437 1.0
vtan -0.7535 -0.6416 -0.1437 1.0
vtan -0.7535 -0.6416 -0.1437 1.0
vtan -0.843 0.5183 -0.1437 1.0
vtan -0.843 0.5183 -0.1437 1.0
vtan -0.843 0.5183 -0.1437 1.0
vtan 0.5878 0.809 -0.0 1.0
vtan 0.5878 0.809 -0.0 1.0
vtan 0.5878 0.809 -0.0 1.0
vtan 0.9511 -0.309 0.0 1.0
vtan 0.9511 -0.309 0.0 1.0
vtan 0.9511 -0.309 0.0 1.0
vtan 0.0 -1.0 0.0 1.0
vtan -0.9511 -0.309 -0.0 1.0
vtan -0.9511 -0.309 -0.0 1.0
vtan -0.9511 -0.309 -0.0 1.0
vtan -0.5878 0.809 0.0 1.0
vtan -0.5878 0.809 0.0 1.0
vtan -0.5878 0.809 0.0 1.0
vtan 0.7535 0.6416 0.1437 1.0
vtan 0.7535 0.6416 0.1437 1.0
vtan 0.7535 0.6416 0.1437 1.0
vtan 0.843 -0.5183 0.1437 1.0
vtan 0.843 -0.5183 0.1437 1.0
vtan 0.843 -0.5183 0.1437 1.0
vtan -0.2325 -0.9619 0.1437 1.0
vtan -0.2325 -0.9619 0.1437 1.0
vtan -0.2325 -0.9619 0.1437 1.0
vtan -0.9867 -0.0762 0.1437 1.0
vtan -0.9867 -0.0762 0.1437 1.0
vtan -0.3774 0.9149 0.1437 1.0
vtan -0.3774 0.9149 0.1437 1.0
vtan -0.3774 0.9149 0.1437 1.0
vtan -0.5878 0.809 0.0 1.0
vtan -0.5878 0.809 0.0 1.0
vtan -0.5878 0.809 0.0 1.0
vtan -0.5878 0.809 0.0 1.0
vtan -0.5878 0.809 0.0 1.0
vtan -0.7535 0.6416 -0.1437 1.0
vtan -0.7535 0.6416 -0.1437 1.0
vtan -0.7535 0.6416 -0.1437 1.0
vtan -0.9511 -0.309 -0.0 1.0
vtan -0.9511 -0.309 -0.0 1.0
vtan -0.9511 -0.309 -0.0 1.0
vtan -0.9511 -0.309 -0.0 1.0
vtan -0.9511 -0.309 -0.0 1.0
vtan -0.843 -0.5183 -0.1437 1.0
vtan -0.843 -0.5183 -0.1437 1.0
vtan 0.2325 -0.9619 -0.1437 1.0
vtan 0.2325 -0.9619 -0.1437 1.0
vtan 0.2325 -0.9619 -0.1437 1.0
vtan 0.9511 -0.309 0.0 1.0
vtan 0.9511 -0.309 0.0 1.0
vtan 0.9511 -0.309 0.0 1.0
vtan 0.9511 -0.309 0.0 1.0
vtan 0.9511 -0.309 0.0 1.0
vtan 0.9511 -0.309 0.0 1.0
vtan 0.9867 -0.0762 -0.1437 1.0
vtan 0.9867 -0.0762 -0.1437 1.0
vtan 0.5878 0.809 -0.0 1.0
vtan 0.5878 0.809 -0.0 1.0
vtan 0.5878 0.809 -0.0 1.0
vtan 0.3774 0.9149 -0.1437 1.0
vtan 0.3774 0.9149 -0.1437 1.0
vtan 0.3774 0.9149 -0.1437 1.0
vtan -0.3774 0.9149 0.1437 1.0
vtan -0.3774 0.9149 0.1437 1.0
vtan -0.3774 0.9149 0.1437 1.0
vtan -0.5878 0.809 0.0 1.0
vtan -0.5878 0.809 0.0 1.0
vtan -0.5878 0.809 0.0 1.0
vtan -0.7535 0.6416 -0.1437 1.0
vtan -0.7535 0.6416 -0.1437 1.0
vtan -0.9867 -0.0762 0.1437 1.0
vtan -0.9867 -0.0762 0.1437 1.0
vtan -0.9867 -0.0762 0.1437 1.0
vtan -0.9511 -0.309 0.0 1.0
vtan -0.9511 -0.309 0.0 1.0
vtan -0.843 -0.5183 -0.1437 1.0
vtan -0.843 -0.5183 -0.1437 1.0
vtan -0.2325 -0.9619 0.1437 1.0
vtan -0.2325 -0.9619 0.1437 1.0
vtan -0.2325 -0.9619 0.1437 1.0
vtan 0.2325 -0.9619 -0.1437 1.0
vtan 0.2325 -0.9619 -0.1437 1.0
vtan 0.2325 -0.9619 -0.1437 1.0
vtan 0.843 -0.5183 0.1437 1.0
vtan 0.843 -0.5183 0.1437 1.0
vtan 0.9511 -0.309 0.0 1.0
vtan 0.9511 -0.309 0.0 1.0
vtan 0.9867 -0.0762 -0.1437 1.0
vtan 0.9867 -0.0762 -0.1437 1.0
vtan 0.9867 -0.0762 -0.1437 1.0
vtan 0.7535 0.6416 0.1437 1.0
vtan 0.7535 0.6416 0.1437 1.0
vtan 0.5878 0.809 -0.0 1.0
vtan 0.5878 0.809 -0.0 1.0
vtan 0.5878 0.809 -0.0 1.0
vtan 0.3774 0.9149 -0.1437 1.0
vtan 0.3774 0.9149 -0.1437 1.0
vtan 0.3774 0.9149 -0.1437 1.0
vtan -0.9511 0.309 -0.0 1.0
vtan -0.9511 0.309 -0.0 1.0
vtan -0.9511 0.309 -0.0 1.0
vtan -0.9511 0.309 0.0 1.0
vtan -0.9511 0.309 0.0 1.0
vtan -0.9867 0.0762 0.1437 1.0
vtan -0.9867 0.0762 0.1437 1.0
vtan -0.5878 -0.809 0.0 1.0
vtan -0.5878 -0.809 0.0 1.0
vtan -0.5878 -0.809 0.0 1.0
vtan -0.5878 -0.809 0.0 1.0
vtan -0.5878 -0.809 0.0 1.0
vtan -0.5878 -0.809 0.0 1.0
vtan -0.3774 -0.9149 0.1437 1.0
vtan -0.3774 -0.9149 0.1437 1.0
vtan -0.3774 -0.9149 0.1437 1.0
vtan 0.5878 -0.809 -0.0 1.0
vtan 0.5878 -0.809 -0.0 1.0
vtan 0.5878 -0.809 -0.0 1.0
vtan 0.5878 -0.809 -0.0 1.0
vtan 0.5878 -0.809 -0.0 1.0
vtan 0.5878 -0.809 -0.0 1.0
vtan 0.7535 -0.6416 0.1437 1.0
vtan 0.7535 -0.6416 0.1437 1.0
vtan 0.9511 0.309 0.0 1.0
vtan 0.9511 0.309 0.0 1.0
vtan 0.9511 0.309 0.0 1.0
vtan 0.9511 0.309 0.0 1.0
vtan 0.9511 0.309 0.0 1.0
vtan 0.843 0.5183 0.1437 1.0
vtan 0.843 0.5183 0.1437 1.0
vtan 0.843 0.5183 0.1437 1.0
vtan 0.0 1.0 0.0 1.0
vtan -0.2325 0.9619 0.1437 1.0
vtan -0.2325 0.9619 0.1437 1.0
vtan -0.843 0.5183 -0.1437 1.0
vtan -0.843 0.5183 -0.1437 1.0
vtan -0.843 0.5183 -0.1437 1.0
vtan -0.9511 0.309 -0.0 1.0
vtan -0.9511 0.309 -0.0 1.0
vtan -0.9867 0.0762 0.1437 1.0
vtan -0.9867 0.0762 0.1437 1.0
vtan -0.9867 0.0762 0.1437 1.0
vtan -0.7535 -0.6416 -0.1437 1.0
vtan -0.7535 -0.6416 -0.1437 1.0
vtan -0.5878 -0.809 0.0 1.0
vtan -0.5878 -0.809 0.0 1.0
vtan -0.3774 -0.9149 0.1437 1.0
vtan -0.3774 -0.9149 0.1437 1.0
vtan -0.3774 -0.9149 0.1437 1.0
vtan 0.3774 -0.9149 -0.1437 1.0
vtan 0.3774 -0.9149 -0.1437 1.0
vtan 0.3774 -0.9149 -0.1437 1.0
vtan 0.5878 -0.809 -0.0 1.0
vtan 0.5878 -0.809 -0.0 1.0
vtan 0.5878 -0.809 -0.0 1.0
vtan 0.7535 -0.6416 0.1437 1.0
vtan 0.7535 -0.6416 0.1437 1.0
vtan -0.2325 0.9619 0.1437 1.0
vtan -0.2325 0.9619 0.1437 1.0
vtan -0.2325 0.9619 0.1437 1.0
vtan 0.9867 0.0762 -0.1437 1.0
vtan 0.9867 0.0762 -0.1437 1.0
vtan 0.9867 0.0762 -0.1437 1.0
vtan 0.9511 0.309 0.0 1.0
vtan 0.9511 0.309 0.0 1.0
vtan 0.843 0.5183 0.1437 1.0
vtan 0.843 0.5183 0.1437 1.0
vtan 0.843 0.5183 0.1437 1.0
f 0/0/0/0 13/1/0/1 12/2/0/2 
f 1/3/1/3 13/4/1/4 15/5/1/5 
f 0/6/2/6 12/7/2/7 17/8/2/8 
f 0/9/3/9 17/10/3/10 19/11/3/11 
f 0/12/4/12 19/13/4/13 16/14/4/14 
f 1/3/5/15 15/5/5/16 22/15/5/17 
f 2/16/6/18 14/17/6/19 24/18/6/18 
f 3/19/7/20 18/20/7/21 26/21/7/22 
f 4/22/8/23 20/23/8/24 28/24/8/24 
f 5/25/9/25 21/26/9/26 30/27/9/27 
f 1/3/10/28 22/15/10/29 25/28/10/30 
f 2/16/11/31 24/18/11/32 27/29/11/33 
f 3/19/12/34 26/21/12/34 29/30/12/34 
f 4/22/13/35 28/24/13/36 31/31/13/37 
f 5/25/14/38 30/27/14/39 23/32/14/40 
f 6/33/15/41 32/34/15/42 37/35/15/43 
f 7/36/16/44 33/37/16/45 39/38/16/46 
f 8/39/17/47 34/40/17/48 40/41/17/49 
f 9/42/18/50 35/43/18/51 41/44/18/51 
f 10/45/19/52 36/46/19/53 38/47/19/54 
f 38/47/20/55 41/48/20/56 11/49/20/57 
f 38/47/21/58 36/46/21/59 41/48/21/58 
f 36/46/22/60 9/42/22/61 41/48/22/62 
f 41/44/23/63 40/50/23/64 11/51/23/65 
f 41/44/24/66 35/43/24/67 40/50/24/67 
f 35/43/25/68 8/39/25/69 40/50/25/69 
f 40/41/26/34 39/52/26/34 11/53/26/34 
f 40/41/27/34 34/40/27/34 39/52/27/34 
f 34/40/28/70 7/54/28/71 39/52/28/72 
f 39/38/29/73 37/55/29/74 11/56/29/75 
f 39/38/30/76 33/37/30/77 37/55/30/78 
f 33/37/31/79 6/33/31/80 37/55/31/79 
f 37/35/32/81 38/57/32/81 11/58/32/82 
f 37/35/33/83 32/34/33/83 38/57/33/83 
f 32/34/34/84 10/45/34/85 38/57/34/86 
f 23/32/35/87 36/46/35/88 10/45/35/89 
f 23/32/36/90 30/27/36/91 36/46/36/92 
f 30/27/37/93 9/42/37/94 36/46/37/93 
f 31/31/38/95 35/43/38/96 9/42/38/97 
f 31/31/39/98 28/24/39/99 35/43/39/98 
f 28/24/40/100 8/39/40/101 35/43/40/100 
f 29/30/41/102 34/40/41/103 8/39/41/104 
f 29/30/42/34 26/21/42/34 34/40/42/34 
f 26/21/43/105 7/54/43/106 34/40/43/107 
f 27/29/44/108 33/37/44/108 7/36/44/109 
f 27/29/45/110 24/18/45/111 33/37/45/111 
f 24/18/46/112 6/33/46/113 33/37/46/114 
f 25/28/47/115 32/34/47/115 6/33/47/116 
f 25/28/48/117 22/15/48/118 32/34/48/119 
f 22/15/49/120 10/45/49/121 32/34/49/122 
f 30/27/50/123 31/31/50/124 9/42/50/125 
f 30/27/51/126 21/26/51/127 31/31/51/127 
f 21/26/52/128 4/22/52/129 31/31/52/129 
f 28/24/53/130 29/30/53/131 8/39/53/132 
f 28/24/54/133 20/23/54/134 29/30/54/135 
f 20/23/55/136 3/19/55/137 29/30/55/138 
f 26/21/56/139 27/59/56/140 7/54/56/141 
f 26/21/57/142 18/20/57/143 27/59/57/144 
f 18/20/58/145 2/60/58/146 27/59/58/145 
f 24/18/59/147 25/28/59/148 6/33/59/149 
f 24/18/60/150 14/17/60/150 25/28/60/151 
f 14/17/61/152 1/3/61/153 25/28/61/154 
f 22/15/62/155 23/32/62/155 10/45/62/155 
f 22/15/63/155 15/5/63/155 23/32/63/155 
f 15/5/64/156 5/25/64/156 23/32/64/157 
f 16/14/65/158 21/26/65/159 5/25/65/160 
f 16/14/66/161 19/13/66/161 21/26/66/162 
f 19/13/67/163 4/22/67/164 21/26/67/165 
f 19/11/68/166 20/23/68/167 4/22/68/167 
f 19/11/69/168 17/10/69/169 20/23/69/168 
f 17/10/70/170 3/19/70/171 20/23/70/172 
f 17/8/71/173 18/20/71/174 3/19/71/175 
f 17/8/72/176 12/7/72/177 18/20/72/178 
f 12/7/73/179 2/60/73/180 18/20/73/180 
f 15/5/74/181 16/61/74/182 5/25/74/183 
f 15/5/75/155 13/4/75/155 16/61/75/155 
f 13/4/76/155 0/62/76/155 16/61/76/155 
f 12/2/77/184 14/17/77/185 2/16/77/186 
f 12/2/78/187 13/1/78/187 14/17/78/188 
f 13/1/79/189 1/3/79/190 14/17/79/191 
