v -1.0 0.0 0.0
v 1.0 0.0 0.0
v -1.0 4.0 0.0
v 1.0 4.0 0.0
v -1.0 3.0 0.0
v -1.0 2.0 0.0
v -1.0 1.0 0.0
v 1.0 1.0 0.0
v 1.0 2.0 0.0
v 1.0 3.0 0.0
gi 0 1 2 3
gi 0 1 2 3
gi 1 3 2 0
gi 1 3 2 0
gi 1 3 2 0
gi 0 1 2 3
gi 0 1 2 3
gi 0 1 2 3
gi 0 1 2 3
gi 1 3 2 0
gw 1.0 0.0 0.0 0.0
gw 1.0 0.0 0.0 0.0
gw 0.0 1.0 0.0 0.0
gw 0.0 1.0 0.0 0.0
gw 0.0 0.0 1.0 0.0
gw 0.0 1.0 0.0 0.0
gw 1.0 0.0 0.0 0.0
gw 1.0 0.0 0.0 0.0
gw 0.0 1.0 0.0 0.0
gw 0.0 0.0 1.0 0.0
vt 1.0 0.75
vt 0.0 1.0
vt 0.0 0.75
vt 1.0 0.0
vt 0.0 0.2499999850988388
vt 0.0 0.0
vt 1.0 0.25
vt 0.0 0.4999999701976776
vt 1.0 0.5
vt 1.0 1.0
vn 0.0 0.0 1.0
vtan 1.0 0.0 0.0
vtan 1.0 -2.100533436077967e-08 0.0
vtan 1.0 -2.100566653950864e-08 0.0
vtan 1.0 -1.9299656983662317e-08 0.0
vtan 1.0 -4.0304996673512505e-08 0.0
vtan 1.0 -4.910197404228711e-08 0.0
vtan 1.0 -3.8599310414610954e-08 0.0
f 9/0/0/0 2/1/0/0 4/2/0/1 
f 1/3/0/2 6/4/0/3 0/5/0/0 
f 7/6/0/4 5/7/0/5 6/4/0/3 
f 8/8/0/6 4/2/0/1 5/7/0/5 
f 9/0/0/0 3/9/0/0 2/1/0/0 
f 1/3/0/2 7/6/0/4 6/4/0/3 
f 7/6/0/4 8/8/0/6 5/7/0/5 
f 8/8/0/6 9/0/0/0 4/2/0/1 
