v -1.0 -1.0 -1.0
v -1.0 -1.0 1.0
v -1.0 1.0 -1.0
v -1.0 1.0 1.0
v 1.0 -1.0 -1.0
v 1.0 -1.0 1.0
v 1.0 1.0 -1.0
v 1.0 1.0 1.0
vt 0.625 0.0
vt 0.375 0.25
vt 0.375 0.0
vt 0.625 0.25
vt 0.9961 -0.002
vt 0.002 0.002
vt 0.998 0.9941
vt -0.002 1.0
vt 0.375 1.0
vt 1.9941 -0.002
vt 0.002 1.998
vt -0.002 0.002
vt 2.0 0.0
vt 0.0 2.0
vt 0.0 0.0
vt 0.625 1.0
vt 1.998 1.9902
vt 2.0 2.0
vn -1.0 0.0 0.0
vn 0.0 1.0 0.0
vn 1.0 0.0 0.0
vn 0.0 -1.0 0.0
vn 0.0 0.0 -1.0
vn 0.0 0.0 1.0
vtan 0.0 0.0 1.0 1.0
vtan 0.0 -0.0049 -1.0 -1.0
vtan 0.0 -0.0039 -1.0 -1.0
vtan -0.7071 0.0 -0.7071 -1.0
vtan 1.0 -0.0029 0.0 1.0
vtan 1.0 -0.002 0.0 1.0
vtan -1.0 0.0 0.0 1.0
vtan -0.0157 0.0 -0.9999 1.0
vtan -0.0157 0.0 -0.9999 1.0
vtan 0.0 -0.0059 -1.0 -1.0
vtan 1.0 0.0 0.0 -1.0
vtan 1.0 -0.0039 0.0 1.0
f 1/0/0/0 2/1/0/0 0/2/0/0 
f 3/3/1/0 6/4/1/0 2/1/1/0 
f 7/5/2/1 4/6/2/1 6/4/2/2 
f 5/7/3/3 0/8/3/3 4/6/3/3 
f 6/9/4/4 0/10/4/4 2/11/4/5 
f 3/12/5/6 5/13/5/6 7/14/5/6 
f 1/0/0/0 3/3/0/0 2/1/0/0 
f 3/3/1/7 7/5/1/8 6/4/1/7 
f 7/5/2/1 5/7/2/9 4/6/2/1 
f 5/7/3/3 1/15/3/10 0/8/3/3 
f 6/9/4/4 4/16/4/11 0/10/4/4 
f 3/12/5/6 1/17/5/6 5/13/5/6 
