v -1.0 -1.0 -1.0
v -1.0 -1.0 1.0
v -1.0 1.0 -1.0
v -1.0 1.0 1.0
v 1.0 -1.0 -1.0
v 1.0 -1.0 1.0
v 1.0 1.0 -1.0
v 1.0 1.0 1.0
vt 0.625 0.0
vt 0.375 0.25
vt 0.375 0.0
vt 1.0 0.0
vt 0.0 2.0
vt 0.0 0.0
vt 0.625 0.5
vt 0.375 0.75
vt 0.375 0.5
vt 0.125 0.75
vt 0.125 0.5
vt 0.875 0.5
vt 0.625 0.75
vt 0.625 0.25
vt 1.0 2.0
vt 0.875 0.75
vn -1.0 0.0 0.0
vn 0.0 1.0 0.0
vn 1.0 0.0 0.0
vn 0.0 -1.0 0.0
vn 0.0 0.0 -1.0
vn 0.0 0.0 1.0
vtan 0.0 0.0 1.0 1.0
vtan 1.0 0.0 0.0 1.0
vtan -1.0 0.0 0.0 1.0
f 1/0/0/0 2/1/0/0 0/2/0/0 
f 3/3/1/0 6/4/1/0 2/5/1/0 
f 7/6/2/0 4/7/2/0 6/8/2/0 
f 5/3/3/0 0/4/3/0 4/5/3/0 
f 6/8/4/1 0/9/4/1 2/10/4/1 
f 3/11/5/2 5/12/5/2 7/6/5/2 
f 1/0/0/0 3/13/0/0 2/1/0/0 
f 3/3/1/0 7/14/1/0 6/4/1/0 
f 7/6/2/0 5/12/2/0 4/7/2/0 
f 5/3/3/0 1/14/3/0 0/4/3/0 
f 6/8/4/1 4/7/4/1 0/9/4/1 
f 3/11/5/2 1/15/5/2 5/12/5/2 
