v 0.0 1.0 -1.0
v 0.1951 0.9808 -1.0
v 0.3827 0.9239 -1.0
v 0.5556 0.8315 -1.0
v 0.7071 0.7071 -1.0
v 0.8315 0.5556 -1.0
v 0.9239 0.3827 -1.0
v 0.9808 0.1951 -1.0
v 1.0 0.0 -1.0
v 0.9808 -0.1951 -1.0
v 0.9239 -0.3827 -1.0
v 0.8315 -0.5556 -1.0
v 0.7071 -0.7071 -1.0
v 0.5556 -0.8315 -1.0
v 0.3827 -0.9239 -1.0
v 0.1951 -0.9808 -1.0
v 0.0 -1.0 -1.0
v -0.1951 -0.9808 -1.0
v -0.3827 -0.9239 -1.0
v -0.5556 -0.8315 -1.0
v -0.7071 -0.7071 -1.0
v -0.8315 -0.5556 -1.0
v -0.9239 -0.3827 -1.0
v -0.9808 -0.1951 -1.0
v -1.0 0.0 -1.0
v -0.9808 0.1951 -1.0
v -0.9239 0.3827 -1.0
v -0.8315 0.5556 -1.0
v -0.7071 0.7071 -1.0
v -0.5556 0.8315 -1.0
v -0.3827 0.9239 -1.0
v -0.1951 0.9808 -1.0
v 0.0 0.0 1.0
vt 0.25 0.49
vt 0.25 0.25
vt 0.2968 0.4854
vt 0.3418 0.4717
vt 0.3833 0.4496
vt 0.4197 0.4197
vt 0.4496 0.3833
vt 0.4717 0.3418
vt 0.4854 0.2968
vt 0.49 0.25
vt 0.4854 0.2032
vt 0.4717 0.1582
vt 0.4496 0.1167
vt 0.4197 0.0803
vt 0.3833 0.0504
vt 0.3418 0.0283
vt 0.2968 0.0146
vt 0.25 0.01
vt 0.2032 0.0146
vt 0.1582 0.0283
vt 0.1167 0.0504
vt 0.0803 0.0803
vt 0.0504 0.1167
vt 0.0283 0.1582
vt 0.0146 0.2032
vt 0.01 0.25
vt 0.0146 0.2968
vt 0.0283 0.3418
vt 0.0504 0.3833
vt 0.0803 0.4197
vt 0.1167 0.4496
vt 0.1582 0.4717
vt 0.7968 0.0146
vt 0.5146 0.2032
vt 0.7032 0.4854
vt 0.2032 0.4854
vt 0.75 0.49
vt 0.7968 0.4854
vt 0.8418 0.4717
vt 0.8833 0.4496
vt 0.9197 0.4197
vt 0.9496 0.3833
vt 0.9717 0.3418
vt 0.9854 0.2968
vt 0.99 0.25
vt 0.9854 0.2032
vt 0.9717 0.1582
vt 0.9496 0.1167
vt 0.9197 0.0803
vt 0.8833 0.0504
vt 0.8418 0.0283
vt 0.75 0.01
vt 0.7032 0.0146
vt 0.6582 0.0283
vt 0.6167 0.0504
vt 0.5803 0.0803
vt 0.5504 0.1167
vt 0.5283 0.1582
vt 0.51 0.25
vt 0.5146 0.2968
vt 0.5283 0.3418
vt 0.5504 0.3833
vt 0.5803 0.4197
vt 0.6167 0.4496
vt 0.6582 0.4717
vn 0.0 0.8641 -0.5033
vn -0.0 0.0 1.0
vn 0.1686 0.8475 -0.5032
vn 0.3307 0.7983 -0.5033
vn 0.4801 0.7185 -0.5032
vn 0.611 0.611 -0.5033
vn 0.7185 0.4801 -0.5033
vn 0.7983 0.3307 -0.5033
vn 0.8475 0.1686 -0.5032
vn 0.8641 0.0 -0.5033
vn 0.8475 -0.1686 -0.5032
vn 0.7983 -0.3307 -0.5033
vn 0.7185 -0.4801 -0.5032
vn 0.611 -0.611 -0.5033
vn 0.4801 -0.7185 -0.5033
vn 0.3307 -0.7983 -0.5033
vn 0.1686 -0.8475 -0.5033
vn 0.0 -0.8641 -0.5033
vn -0.1686 -0.8475 -0.5032
vn -0.3307 -0.7983 -0.5033
vn -0.4801 -0.7185 -0.5032
vn -0.611 -0.611 -0.5033
vn -0.7185 -0.4801 -0.5033
vn -0.7983 -0.3307 -0.5033
vn -0.8475 -0.1686 -0.5032
vn -0.8641 0.0 -0.5033
vn -0.8475 0.1686 -0.5032
vn -0.7983 0.3307 -0.5033
vn -0.7185 0.4801 -0.5032
vn -0.611 0.611 -0.5033
vn -0.4801 0.7185 -0.5033
vn -0.3307 0.7983 -0.5033
vn -0.1686 0.8475 -0.5033
vtan 1.0 0.0 0.0 1.0
vtan 1.0 0.0 0.0 1.0
vtan 0.9317 -0.3037 -0.1994 1.0
vtan 0.7421 -0.5494 -0.3839 1.0
vtan 0.4726 -0.6952 -0.5417 1.0
vtan 0.1759 -0.7247 -0.6663 1.0
vtan -0.0994 -0.6453 -0.7575 1.0
vtan -0.3174 -0.4791 -0.8183 1.0
vtan -0.4559 -0.2542 -0.853 1.0
vtan -0.5033 0.0 -0.8641 1.0
vtan -0.4559 0.2542 -0.853 1.0
vtan -0.3174 0.4791 -0.8183 1.0
vtan -0.0994 0.6453 -0.7575 1.0
vtan 0.1759 0.7247 -0.6663 1.0
vtan 0.4726 0.6952 -0.5416 1.0
vtan 0.7421 0.5494 -0.3839 1.0
vtan 0.9317 0.3037 -0.1994 1.0
vtan 0.9317 -0.3037 0.1994 1.0
vtan 0.7421 -0.5494 0.3839 1.0
vtan 0.4726 -0.6952 0.5417 1.0
vtan 0.1759 -0.7247 0.6663 1.0
vtan -0.0994 -0.6453 0.7575 1.0
vtan -0.3174 -0.4791 0.8183 1.0
vtan -0.4559 -0.2542 0.853 1.0
vtan -0.5033 0.0 0.8641 1.0
vtan -0.4559 0.2542 0.853 1.0
vtan -0.3174 0.4791 0.8183 1.0
vtan -0.0994 0.6453 0.7575 1.0
vtan 0.1759 0.7247 0.6663 1.0
vtan 0.4726 0.6952 0.5416 1.0
vtan 0.7421 0.5494 0.3839 1.0
vtan 0.9857 0.145 0.0861 -1.0
vtan 0.5307 -0.2692 -0.8036 -1.0
vtan 0.9857 0.145 -0.0861 -1.0
vtan 0.9317 0.3037 0.1994 1.0
vtan 0.9857 -0.145 0.0861 -1.0
vtan 0.9437 -0.2797 0.1763 -1.0
vtan 0.8772 -0.3932 0.2754 -1.0
vtan 0.7916 -0.4716 0.3885 -1.0
vtan 0.6955 -0.4959 0.5199 -1.0
vtan 0.6022 -0.4384 0.6672 -1.0
vtan 0.5307 -0.2692 0.8036 -1.0
vtan 0.5033 0.0 0.8641 -1.0
vtan 0.5307 0.2692 0.8036 -1.0
vtan 0.6022 0.4384 0.6672 -1.0
vtan 0.6955 0.496 0.5199 -1.0
vtan 0.7916 0.4716 0.3885 -1.0
vtan 0.8772 0.3932 0.2754 -1.0
vtan 0.9437 0.2797 0.1763 -1.0
vtan 0.9857 -0.145 -0.0861 -1.0
vtan 0.9437 -0.2797 -0.1763 -1.0
vtan 0.8772 -0.3932 -0.2754 -1.0
vtan 0.7916 -0.4716 -0.3885 -1.0
vtan 0.6955 -0.4959 -0.5199 -1.0
vtan 0.6022 -0.4384 -0.6672 -1.0
vtan 0.5033 0.0 -0.8641 -1.0
vtan 0.5307 0.2692 -0.8036 -1.0
vtan 0.6022 0.4384 -0.6672 -1.0
vtan 0.6955 0.496 -0.5199 -1.0
vtan 0.7916 0.4716 -0.3885 -1.0
vtan 0.8772 0.3932 -0.2754 -1.0
vtan 0.9437 0.2797 -0.1763 -1.0
f 0/0/0/0 32/1/1/1 1/2/2/2 
f 1/2/2/2 32/1/1/1 2/3/3/3 
f 2/3/3/3 32/1/1/1 3/4/4/4 
f 3/4/4/4 32/1/1/1 4/5/5/5 
f 4/5/5/5 32/1/1/1 5/6/6/6 
f 5/6/6/6 32/1/1/1 6/7/7/7 
f 6/7/7/7 32/1/1/1 7/8/8/8 
f 7/8/8/8 32/1/1/1 8/9/9/9 
f 8/9/9/9 32/1/1/1 9/10/10/10 
f 9/10/10/10 32/1/1/1 10/11/11/11 
f 10/11/11/11 32/1/1/1 11/12/12/12 
f 11/12/12/12 32/1/1/1 12/13/13/13 
f 12/13/13/13 32/1/1/1 13/14/14/14 
f 13/14/14/14 32/1/1/1 14/15/15/15 
f 14/15/15/15 32/1/1/1 15/16/16/16 
f 15/16/16/16 32/1/1/1 16/17/17/0 
f 16/17/17/0 32/1/1/1 17/18/18/17 
f 17/18/18/17 32/1/1/1 18/19/19/18 
f 18/19/19/18 32/1/1/1 19/20/20/19 
f 19/20/20/19 32/1/1/1 20/21/21/20 
f 20/21/21/20 32/1/1/1 21/22/22/21 
f 21/22/22/21 32/1/1/1 22/23/23/22 
f 22/23/23/22 32/1/1/1 23/24/24/23 
f 23/24/24/23 32/1/1/1 24/25/25/24 
f 24/25/25/24 32/1/1/1 25/26/26/25 
f 25/26/26/25 32/1/1/1 26/27/27/26 
f 26/27/27/26 32/1/1/1 27/28/28/27 
f 27/28/28/27 32/1/1/1 28/29/29/28 
f 28/29/29/28 32/1/1/1 29/30/30/29 
f 29/30/30/29 32/1/1/1 30/31/31/30 
f 15/32/16/31 23/33/24/32 31/34/32/33 
f 30/31/31/30 32/1/1/1 31/35/32/34 
f 31/35/32/34 32/1/1/1 0/0/0/0 
f 31/34/32/33 0/36/0/0 1/37/2/35 
f 1/37/2/35 2/38/3/36 3/39/4/37 
f 3/39/4/37 4/40/5/38 5/41/6/39 
f 5/41/6/39 6/42/7/40 7/43/8/41 
f 7/43/8/41 8/44/9/42 9/45/10/43 
f 9/45/10/43 10/46/11/44 11/47/12/45 
f 11/47/12/45 12/48/13/46 13/49/14/47 
f 13/49/14/47 14/50/15/48 15/32/16/31 
f 15/32/16/31 16/51/17/0 17/52/18/49 
f 17/52/18/49 18/53/19/50 19/54/20/51 
f 19/54/20/51 20/55/21/52 21/56/22/53 
f 21/56/22/53 22/57/23/54 23/33/24/32 
f 23/33/24/32 24/58/25/55 25/59/26/56 
f 25/59/26/56 26/60/27/57 27/61/28/58 
f 27/61/28/58 28/62/29/59 29/63/30/60 
f 29/63/30/60 30/64/31/61 31/34/32/33 
f 31/34/32/33 1/37/2/35 7/43/8/41 
f 1/37/2/35 3/39/4/37 7/43/8/41 
f 3/39/4/37 5/41/6/39 7/43/8/41 
f 7/43/8/41 9/45/10/43 15/32/16/31 
f 9/45/10/43 11/47/12/45 15/32/16/31 
f 11/47/12/45 13/49/14/47 15/32/16/31 
f 15/32/16/31 17/52/18/49 23/33/24/32 
f 17/52/18/49 19/54/20/51 23/33/24/32 
f 19/54/20/51 21/56/22/53 23/33/24/32 
f 23/33/24/32 25/59/26/56 31/34/32/33 
f 25/59/26/56 27/61/28/58 31/34/32/33 
f 27/61/28/58 29/63/30/60 31/34/32/33 
f 31/34/32/33 7/43/8/41 15/32/16/31 
