v 0.0 0.5556 0.8315
v 0.0 0.8315 0.5556
v 0.0 0.9808 0.1951
v 0.0 1.0 0.0
v 0.0 0.9808 -0.1951
v 0.0 0.8315 -0.5556
v 0.0381 0.1913 0.9808
v 0.0747 0.3753 0.9239
v 0.1084 0.5449 0.8315
v 0.1379 0.6935 0.7071
v 0.1622 0.8155 0.5556
v 0.1802 0.9061 0.3827
v 0.1913 0.9619 0.1951
v 0.1951 0.9808 0.0
v 0.1913 0.9619 -0.1951
v 0.1802 0.9061 -0.3827
v 0.1622 0.8155 -0.5556
v 0.1379 0.6935 -0.7071
v 0.1084 0.5449 -0.8315
v 0.0747 0.3753 -0.9239
v 0.0381 0.1913 -0.9808
v 0.0747 0.1802 0.9808
v 0.1464 0.3536 0.9239
v 0.2126 0.5133 0.8315
v 0.2706 0.6533 0.7071
v 0.3182 0.7682 0.5556
v 0.3536 0.8536 0.3827
v 0.3753 0.9061 0.1951
v 0.3827 0.9239 0.0
v 0.3753 0.9061 -0.1951
v 0.3536 0.8536 -0.3827
v 0.3182 0.7682 -0.5556
v 0.2706 0.6533 -0.7071
v 0.2126 0.5133 -0.8315
v 0.1464 0.3536 -0.9239
v 0.0747 0.1802 -0.9808
v 0.1084 0.1622 0.9808
v 0.2126 0.3182 0.9239
v 0.3087 0.4619 0.8315
v 0.3928 0.5879 0.7071
v 0.4619 0.6913 0.5556
v 0.5133 0.7682 0.3827
v 0.5449 0.8155 0.1951
v 0.5556 0.8315 0.0
v 0.5449 0.8155 -0.1951
v 0.5133 0.7682 -0.3827
v 0.4619 0.6913 -0.5556
v 0.3928 0.5879 -0.7071
v 0.3087 0.4619 -0.8315
v 0.2126 0.3182 -0.9239
v 0.1084 0.1622 -0.9808
v 0.1379 0.1379 0.9808
v 0.2706 0.2706 0.9239
v 0.3928 0.3928 0.8315
v 0.5 0.5 0.7071
v 0.5879 0.5879 0.5556
v 0.6533 0.6533 0.3827
v 0.6935 0.6935 0.1951
v 0.7071 0.7071 0.0
v 0.6935 0.6935 -0.1951
v 0.6533 0.6533 -0.3827
v 0.5879 0.5879 -0.5556
v 0.5 0.5 -0.7071
v 0.3928 0.3928 -0.8315
v 0.2706 0.2706 -0.9239
v 0.1379 0.1379 -0.9808
v 0.1622 0.1084 0.9808
v 0.3182 0.2126 0.9239
v 0.4619 0.3087 0.8315
v 0.5879 0.3928 0.7071
v 0.6913 0.4619 0.5556
v 0.7682 0.5133 0.3827
v 0.8155 0.5449 0.1951
v 0.8315 0.5556 0.0
v 0.8155 0.5449 -0.1951
v 0.7682 0.5133 -0.3827
v 0.6913 0.4619 -0.5556
v 0.5879 0.3928 -0.7071
v 0.4619 0.3087 -0.8315
v 0.3182 0.2126 -0.9239
v 0.1622 0.1084 -0.9808
v 0.0 0.0 1.0
v 0.1802 0.0747 0.9808
v 0.3536 0.1464 0.9239
v 0.5133 0.2126 0.8315
v 0.6533 0.2706 0.7071
v 0.7682 0.3182 0.5556
v 0.8536 0.3536 0.3827
v 0.9061 0.3753 0.1951
v 0.9239 0.3827 0.0
v 0.9061 0.3753 -0.1951
v 0.8536 0.3536 -0.3827
v 0.7682 0.3182 -0.5556
v 0.6533 0.2706 -0.7071
v 0.5133 0.2126 -0.8315
v 0.3536 0.1464 -0.9239
v 0.1802 0.0747 -0.9808
v 0.1913 0.0381 0.9808
v 0.3753 0.0747 0.9239
v 0.5449 0.1084 0.8315
v 0.6935 0.1379 0.7071
v 0.8155 0.1622 0.5556
v 0.9061 0.1802 0.3827
v 0.9619 0.1913 0.1951
v 0.9808 0.1951 0.0
v 0.9619 0.1913 -0.1951
v 0.9061 0.1802 -0.3827
v 0.8155 0.1622 -0.5556
v 0.6935 0.1379 -0.7071
v 0.5449 0.1084 -0.8315
v 0.3753 0.0747 -0.9239
v 0.1913 0.0381 -0.9808
v 0.1951 -0.0 0.9808
v 0.3827 -0.0 0.9239
v 0.5556 -0.0 0.8315
v 0.7071 0.0 0.7071
v 0.8315 -0.0 0.5556
v 0.9239 0.0 0.3827
v 0.9808 -0.0 0.1951
v 1.0 -0.0 0.0
v 0.9808 -0.0 -0.1951
v 0.9239 0.0 -0.3827
v 0.8315 -0.0 -0.5556
v 0.7071 0.0 -0.7071
v 0.5556 -0.0 -0.8315
v 0.3827 -0.0 -0.9239
v 0.1951 -0.0 -0.9808
v 0.1913 -0.0381 0.9808
v 0.3753 -0.0747 0.9239
v 0.5449 -0.1084 0.8315
v 0.6935 -0.1379 0.7071
v 0.8155 -0.1622 0.5556
v 0.9061 -0.1802 0.3827
v 0.9619 -0.1913 0.1951
v 0.9808 -0.1951 0.0
v 0.9619 -0.1913 -0.1951
v 0.9061 -0.1802 -0.3827
v 0.8155 -0.1622 -0.5556
v 0.6935 -0.1379 -0.7071
v 0.5449 -0.1084 -0.8315
v 0.3753 -0.0747 -0.9239
v 0.1913 -0.0381 -0.9808
v 0.1802 -0.0747 0.9808
v 0.3536 -0.1464 0.9239
v 0.5133 -0.2126 0.8315
v 0.6533 -0.2706 0.7071
v 0.7682 -0.3182 0.5556
v 0.8536 -0.3536 0.3827
v 0.9061 -0.3753 0.1951
v 0.9239 -0.3827 0.0
v 0.9061 -0.3753 -0.1951
v 0.8536 -0.3536 -0.3827
v 0.7682 -0.3182 -0.5556
v 0.6533 -0.2706 -0.7071
v 0.5133 -0.2126 -0.8315
v 0.3536 -0.1464 -0.9239
v 0.1802 -0.0747 -0.9808
v 0.1622 -0.1084 0.9808
v 0.3182 -0.2126 0.9239
v 0.4619 -0.3087 0.8315
v 0.5879 -0.3928 0.7071
v 0.6913 -0.4619 0.5556
v 0.7682 -0.5133 0.3827
v 0.8155 -0.5449 0.1951
v 0.8315 -0.5556 0.0
v 0.8155 -0.5449 -0.1951
v 0.7682 -0.5133 -0.3827
v 0.6913 -0.4619 -0.5556
v 0.5879 -0.3928 -0.7071
v 0.4619 -0.3087 -0.8315
v 0.3182 -0.2126 -0.9239
v 0.1622 -0.1084 -0.9808
v 0.1379 -0.1379 0.9808
v 0.2706 -0.2706 0.9239
v 0.3928 -0.3928 0.8315
v 0.5 -0.5 0.7071
v 0.5879 -0.5879 0.5556
v 0.6533 -0.6533 0.3827
v 0.6935 -0.6935 0.1951
v 0.7071 -0.7071 0.0
v 0.6935 -0.6935 -0.1951
v 0.6533 -0.6533 -0.3827
v 0.5879 -0.5879 -0.5556
v 0.5 -0.5 -0.7071
v 0.3928 -0.3928 -0.8315
v 0.2706 -0.2706 -0.9239
v 0.1379 -0.1379 -0.9808
v 0.1084 -0.1622 0.9808
v 0.2126 -0.3182 0.9239
v 0.3087 -0.4619 0.8315
v 0.3928 -0.5879 0.7071
v 0.4619 -0.6913 0.5556
v 0.5133 -0.7682 0.3827
v 0.5449 -0.8155 0.1951
v 0.5556 -0.8315 0.0
v 0.5449 -0.8155 -0.1951
v 0.5133 -0.7682 -0.3827
v 0.4619 -0.6913 -0.5556
v 0.3928 -0.5879 -0.7071
v 0.3087 -0.4619 -0.8315
v 0.2126 -0.3182 -0.9239
v 0.1084 -0.1622 -0.9808
v 0.0747 -0.1802 0.9808
v 0.1464 -0.3536 0.9239
v 0.2126 -0.5133 0.8315
v 0.2706 -0.6533 0.7071
v 0.3182 -0.7682 0.5556
v 0.3536 -0.8536 0.3827
v 0.3753 -0.9061 0.1951
v 0.3827 -0.9239 0.0
v 0.3753 -0.9061 -0.1951
v 0.3536 -0.8536 -0.3827
v 0.3182 -0.7682 -0.5556
v 0.2706 -0.6533 -0.7071
v 0.2126 -0.5133 -0.8315
v 0.1464 -0.3536 -0.9239
v 0.0747 -0.1802 -0.9808
v 0.0381 -0.1913 0.9808
v 0.0747 -0.3753 0.9239
v 0.1084 -0.5449 0.8315
v 0.1379 -0.6935 0.7071
v 0.1622 -0.8155 0.5556
v 0.1802 -0.9061 0.3827
v 0.1913 -0.9619 0.1951
v 0.1951 -0.9808 0.0
v 0.1913 -0.9619 -0.1951
v 0.1802 -0.9061 -0.3827
v 0.1622 -0.8155 -0.5556
v 0.1379 -0.6935 -0.7071
v 0.1084 -0.5449 -0.8315
v 0.0747 -0.3753 -0.9239
v 0.0381 -0.1913 -0.9808
v -0.0 -0.1951 0.9808
v -0.0 -0.3827 0.9239
v -0.0 -0.5556 0.8315
v -0.0 -0.7071 0.7071
v -0.0 -0.8315 0.5556
v 0.0 -0.9239 0.3827
v -0.0 -0.9808 0.1951
v -0.0 -1.0 0.0
v -0.0 -0.9808 -0.1951
v 0.0 -0.9239 -0.3827
v -0.0 -0.8315 -0.5556
v -0.0 -0.7071 -0.7071
v -0.0 -0.5556 -0.8315
v -0.0 -0.3827 -0.9239
v -0.0 -0.1951 -0.9808
v -0.0381 -0.1913 0.9808
v -0.0747 -0.3753 0.9239
v -0.1084 -0.5449 0.8315
v -0.1379 -0.6935 0.7071
v -0.1622 -0.8155 0.5556
v -0.1802 -0.9061 0.3827
v -0.1913 -0.9619 0.1951
v -0.1951 -0.9808 0.0
v -0.1913 -0.9619 -0.1951
v -0.1802 -0.9061 -0.3827
v -0.1622 -0.8155 -0.5556
v -0.1379 -0.6935 -0.7071
v -0.1084 -0.5449 -0.8315
v -0.0747 -0.3753 -0.9239
v -0.0381 -0.1913 -0.9808
v -0.0747 -0.1802 0.9808
v -0.1464 -0.3536 0.9239
v -0.2126 -0.5133 0.8315
v -0.2706 -0.6533 0.7071
v -0.3182 -0.7682 0.5556
v -0.3536 -0.8536 0.3827
v -0.3753 -0.9061 0.1951
v -0.3827 -0.9239 0.0
v -0.3753 -0.9061 -0.1951
v -0.3536 -0.8536 -0.3827
v -0.3182 -0.7682 -0.5556
v -0.2706 -0.6533 -0.7071
v -0.2126 -0.5133 -0.8315
v -0.1464 -0.3536 -0.9239
v -0.0747 -0.1802 -0.9808
v -0.1084 -0.1622 0.9808
v -0.2126 -0.3182 0.9239
v -0.3087 -0.4619 0.8315
v -0.3928 -0.5879 0.7071
v -0.4619 -0.6913 0.5556
v -0.5133 -0.7682 0.3827
v -0.5449 -0.8155 0.1951
v -0.5556 -0.8315 0.0
v -0.5449 -0.8155 -0.1951
v -0.5133 -0.7682 -0.3827
v -0.4619 -0.6913 -0.5556
v -0.3928 -0.5879 -0.7071
v -0.3087 -0.4619 -0.8315
v -0.2126 -0.3182 -0.9239
v -0.1084 -0.1622 -0.9808
v -0.1379 -0.1379 0.9808
v -0.2706 -0.2706 0.9239
v -0.3928 -0.3928 0.8315
v -0.5 -0.5 0.7071
v -0.5879 -0.5879 0.5556
v -0.6533 -0.6533 0.3827
v -0.6935 -0.6935 0.1951
v -0.7071 -0.7071 0.0
v -0.6935 -0.6935 -0.1951
v -0.6533 -0.6533 -0.3827
v -0.5879 -0.5879 -0.5556
v -0.5 -0.5 -0.7071
v -0.3928 -0.3928 -0.8315
v -0.2706 -0.2706 -0.9239
v -0.1379 -0.1379 -0.9808
v 0.0 0.0 -1.0
v -0.1622 -0.1084 0.9808
v -0.3182 -0.2126 0.9239
v -0.4619 -0.3087 0.8315
v -0.5879 -0.3928 0.7071
v -0.6913 -0.4619 0.5556
v -0.7682 -0.5133 0.3827
v -0.8155 -0.5449 0.1951
v -0.8315 -0.5556 0.0
v -0.8155 -0.5449 -0.1951
v -0.7682 -0.5133 -0.3827
v -0.6913 -0.4619 -0.5556
v -0.5879 -0.3928 -0.7071
v -0.4619 -0.3087 -0.8315
v -0.3182 -0.2126 -0.9239
v -0.1622 -0.1084 -0.9808
v -0.1802 -0.0747 0.9808
v -0.3536 -0.1464 0.9239
v -0.5133 -0.2126 0.8315
v -0.6533 -0.2706 0.7071
v -0.7682 -0.3182 0.5556
v -0.8536 -0.3536 0.3827
v -0.9061 -0.3753 0.1951
v -0.9239 -0.3827 0.0
v -0.9061 -0.3753 -0.1951
v -0.8536 -0.3536 -0.3827
v -0.7682 -0.3182 -0.5556
v -0.6533 -0.2706 -0.7071
v -0.5133 -0.2126 -0.8315
v -0.3536 -0.1464 -0.9239
v -0.1802 -0.0747 -0.9808
v -0.1913 -0.0381 0.9808
v -0.3753 -0.0747 0.9239
v -0.5449 -0.1084 0.8315
v -0.6935 -0.1379 0.7071
v -0.8155 -0.1622 0.5556
v -0.9061 -0.1802 0.3827
v -0.9619 -0.1913 0.1951
v -0.9808 -0.1951 0.0
v -0.9619 -0.1913 -0.1951
v -0.9061 -0.1802 -0.3827
v -0.8155 -0.1622 -0.5556
v -0.6935 -0.1379 -0.7071
v -0.5449 -0.1084 -0.8315
v -0.3753 -0.0747 -0.9239
v -0.1913 -0.0381 -0.9808
v -0.1951 0.0 0.9808
v -0.3827 0.0 0.9239
v -0.5556 0.0 0.8315
v -0.7071 0.0 0.7071
v -0.8315 0.0 0.5556
v -0.9239 0.0 0.3827
v -0.9808 0.0 0.1951
v -1.0 0.0 0.0
v -0.9808 0.0 -0.1951
v -0.9239 0.0 -0.3827
v -0.8315 0.0 -0.5556
v -0.7071 0.0 -0.7071
v -0.5556 0.0 -0.8315
v -0.3827 0.0 -0.9239
v -0.1951 0.0 -0.9808
v -0.1913 0.0381 0.9808
v -0.3753 0.0747 0.9239
v -0.5449 0.1084 0.8315
v -0.6935 0.1379 0.7071
v -0.8155 0.1622 0.5556
v -0.9061 0.1802 0.3827
v -0.9619 0.1913 0.1951
v -0.9808 0.1951 0.0
v -0.9619 0.1913 -0.1951
v -0.9061 0.1802 -0.3827
v -0.8155 0.1622 -0.5556
v -0.6935 0.1379 -0.7071
v -0.5449 0.1084 -0.8315
v -0.3753 0.0747 -0.9239
v -0.1913 0.0381 -0.9808
v -0.1802 0.0747 0.9808
v -0.3536 0.1464 0.9239
v -0.5133 0.2126 0.8315
v -0.6533 0.2706 0.7071
v -0.7682 0.3182 0.5556
v -0.8536 0.3536 0.3827
v -0.9061 0.3753 0.1951
v -0.9239 0.3827 0.0
v -0.9061 0.3753 -0.1951
v -0.8536 0.3536 -0.3827
v -0.7682 0.3182 -0.5556
v -0.6533 0.2706 -0.7071
v -0.5133 0.2126 -0.8315
v -0.3536 0.1464 -0.9239
v -0.1802 0.0747 -0.9808
v -0.1622 0.1084 0.9808
v -0.3182 0.2126 0.9239
v -0.4619 0.3087 0.8315
v -0.5879 0.3928 0.7071
v -0.6913 0.4619 0.5556
v -0.7682 0.5133 0.3827
v -0.8155 0.5449 0.1951
v -0.8315 0.5556 0.0
v -0.8155 0.5449 -0.1951
v -0.7682 0.5133 -0.3827
v -0.6913 0.4619 -0.5556
v -0.5879 0.3928 -0.7071
v -0.4619 0.3087 -0.8315
v -0.3182 0.2126 -0.9239
v -0.1622 0.1084 -0.9808
v -0.1379 0.1379 0.9808
v -0.2706 0.2706 0.9239
v -0.3928 0.3928 0.8315
v -0.5 0.5 0.7071
v -0.5879 0.5879 0.5556
v -0.6533 0.6533 0.3827
v -0.6935 0.6935 0.1951
v -0.7071 0.7071 0.0
v -0.6935 0.6935 -0.1951
v -0.6533 0.6533 -0.3827
v -0.5879 0.5879 -0.5556
v -0.5 0.5 -0.7071
v -0.3928 0.3928 -0.8315
v -0.2706 0.2706 -0.9239
v -0.1379 0.1379 -0.9808
v -0.1084 0.1622 0.9808
v -0.2126 0.3182 0.9239
v -0.3087 0.4619 0.8315
v -0.3928 0.5879 0.7071
v -0.4619 0.6913 0.5556
v -0.5133 0.7682 0.3827
v -0.5449 0.8155 0.1951
v -0.5556 0.8315 0.0
v -0.5449 0.8155 -0.1951
v -0.5133 0.7682 -0.3827
v -0.4619 0.6913 -0.5556
v -0.3928 0.5879 -0.7071
v -0.3087 0.4619 -0.8315
v -0.2126 0.3182 -0.9239
v -0.1084 0.1622 -0.9808
v -0.0747 0.1802 0.9808
v -0.1464 0.3536 0.9239
v -0.2126 0.5133 0.8315
v -0.2706 0.6533 0.7071
v -0.3182 0.7682 0.5556
v -0.3536 0.8536 0.3827
v -0.3753 0.9061 0.1951
v -0.3827 0.9239 0.0
v -0.3753 0.9061 -0.1951
v -0.3536 0.8536 -0.3827
v -0.3182 0.7682 -0.5556
v -0.2706 0.6533 -0.7071
v -0.2126 0.5133 -0.8315
v -0.1464 0.3536 -0.9239
v -0.0747 0.1802 -0.9808
v -0.0381 0.1913 0.9808
v -0.0747 0.3753 0.9239
v -0.1084 0.5449 0.8315
v -0.1379 0.6935 0.7071
v -0.1622 0.8155 0.5556
v -0.1802 0.9061 0.3827
v -0.1913 0.9619 0.1951
v -0.1951 0.9808 0.0
v -0.1913 0.9619 -0.1951
v -0.1802 0.9061 -0.3827
v -0.1622 0.8155 -0.5556
v -0.1379 0.6935 -0.7071
v -0.1084 0.5449 -0.8315
v -0.0747 0.3753 -0.9239
v -0.0381 0.1913 -0.9808
v 0.0 0.1951 0.9808
v 0.0 0.3827 0.9239
v 0.0 0.7071 0.7071
v 0.0 0.9239 0.3827
v 0.0 0.9239 -0.3827
v 0.0 0.7071 -0.7071
v 0.0 0.5556 -0.8315
v 0.0 0.3827 -0.9239
v 0.0 0.1951 -0.9808
vt 0.75 0.3125
vt 0.7188 0.25
vt 0.75 0.25
vt 0.75 0.6875
vt 0.7188 0.75
vt 0.7188 0.6875
vt 0.7188 0.1875
vt 0.75 0.1875
vt 0.75 0.625
vt 0.7188 0.625
vt 0.7188 0.125
vt 0.75 0.125
vt 0.75 0.5625
vt 0.7188 0.5625
vt 0.7188 0.0625
vt 0.75 0.0625
vt 0.7188 0.5
vt 0.75 0.5
vt 0.75 0.9375
vt 0.7344 1.0
vt 0.7188 0.9375
vt 0.7344 0.0
vt 0.7188 0.4375
vt 0.75 0.4375
vt 0.75 0.875
vt 0.7188 0.875
vt 0.7188 0.375
vt 0.75 0.375
vt 0.75 0.8125
vt 0.7188 0.8125
vt 0.7188 0.3125
vt 0.75 0.75
vt 0.6875 0.3125
vt 0.6875 0.75
vt 0.6875 0.25
vt 0.6875 0.6875
vt 0.6875 0.1875
vt 0.6875 0.625
vt 0.6875 0.125
vt 0.6875 0.5625
vt 0.6875 0.0625
vt 0.6875 0.5
vt 0.7031 1.0
vt 0.6875 0.9375
vt 0.7031 0.0
vt 0.6875 0.4375
vt 0.6875 0.875
vt 0.6875 0.375
vt 0.6875 0.8125
vt 0.6562 0.0625
vt 0.6562 0.5
vt 0.6719 1.0
vt 0.6562 0.9375
vt 0.6719 0.0
vt 0.6562 0.4375
vt 0.6562 0.875
vt 0.6562 0.375
vt 0.6562 0.8125
vt 0.6562 0.3125
vt 0.6562 0.75
vt 0.6562 0.25
vt 0.6562 0.6875
vt 0.6562 0.1875
vt 0.6562 0.625
vt 0.6562 0.125
vt 0.6562 0.5625
vt 0.625 0.75
vt 0.625 0.25
vt 0.625 0.6875
vt 0.625 0.1875
vt 0.625 0.625
vt 0.625 0.125
vt 0.625 0.5625
vt 0.625 0.0625
vt 0.625 0.5
vt 0.6406 1.0
vt 0.625 0.9375
vt 0.6406 0.0
vt 0.625 0.4375
vt 0.625 0.875
vt 0.625 0.375
vt 0.625 0.8125
vt 0.625 0.3125
vt 0.5938 0.5625
vt 0.5938 0.5
vt 0.6094 1.0
vt 0.5938 0.9375
vt 0.6094 0.0
vt 0.5938 0.0625
vt 0.5938 0.4375
vt 0.5938 0.875
vt 0.5938 0.375
vt 0.5938 0.8125
vt 0.5938 0.3125
vt 0.5938 0.75
vt 0.5938 0.25
vt 0.5938 0.6875
vt 0.5938 0.1875
vt 0.5938 0.625
vt 0.5938 0.125
vt 0.5625 0.25
vt 0.5625 0.75
vt 0.5625 0.6875
vt 0.5625 0.1875
vt 0.5625 0.625
vt 0.5625 0.125
vt 0.5625 0.5625
vt 0.5625 0.0625
vt 0.5625 0.5
vt 0.5781 1.0
vt 0.5625 0.9375
vt 0.5781 0.0
vt 0.5625 0.4375
vt 0.5625 0.875
vt 0.5625 0.375
vt 0.5625 0.8125
vt 0.5625 0.3125
vt 0.5469 1.0
vt 0.5312 0.9375
vt 0.5469 0.0
vt 0.5312 0.0625
vt 0.5312 0.4375
vt 0.5312 0.875
vt 0.5312 0.375
vt 0.5312 0.8125
vt 0.5312 0.3125
vt 0.5312 0.75
vt 0.5312 0.25
vt 0.5312 0.6875
vt 0.5312 0.1875
vt 0.5312 0.625
vt 0.5312 0.125
vt 0.5312 0.5625
vt 0.5312 0.5
vt 0.5 0.75
vt 0.5 0.6875
vt 0.5 0.25
vt 0.5 0.1875
vt 0.5 0.625
vt 0.5 0.125
vt 0.5 0.5625
vt 0.5 0.0625
vt 0.5 0.5
vt 0.5156 1.0
vt 0.5 0.9375
vt 0.5156 0.0
vt 0.5 0.4375
vt 0.5 0.875
vt 0.5 0.375
vt 0.5 0.8125
vt 0.5 0.3125
vt 0.4688 0.4375
vt 0.4688 0.875
vt 0.4688 0.375
vt 0.4688 0.8125
vt 0.4687 0.3125
vt 0.4688 0.75
vt 0.4688 0.25
vt 0.4687 0.6875
vt 0.4688 0.1875
vt 0.4688 0.625
vt 0.4688 0.125
vt 0.4688 0.5625
vt 0.4688 0.0625
vt 0.4687 0.5
vt 0.4844 1.0
vt 0.4688 0.9375
vt 0.4844 0.0
vt 0.4375 0.25
vt 0.4375 0.1875
vt 0.4375 0.625
vt 0.4375 0.125
vt 0.4375 0.5625
vt 0.4375 0.0625
vt 0.4375 0.5
vt 0.4531 1.0
vt 0.4375 0.9375
vt 0.4531 0.0
vt 0.4375 0.4375
vt 0.4375 0.875
vt 0.4375 0.375
vt 0.4375 0.8125
vt 0.4375 0.3125
vt 0.4375 0.75
vt 0.4375 0.6875
vt 0.4062 0.375
vt 0.4062 0.875
vt 0.4062 0.8125
vt 0.4062 0.3125
vt 0.4062 0.75
vt 0.4062 0.25
vt 0.4062 0.6875
vt 0.4062 0.1875
vt 0.4062 0.625
vt 0.4062 0.125
vt 0.4062 0.5625
vt 0.4062 0.0625
vt 0.4062 0.5
vt 0.4219 1.0
vt 0.4062 0.9375
vt 0.4219 0.0
vt 0.4062 0.4375
vt 0.375 0.1875
vt 0.375 0.125
vt 0.375 0.625
vt 0.375 0.5625
vt 0.375 0.0625
vt 0.375 0.5
vt 0.3906 1.0
vt 0.375 0.9375
vt 0.3906 0.0
vt 0.375 0.4375
vt 0.375 0.875
vt 0.375 0.375
vt 0.375 0.8125
vt 0.375 0.3125
vt 0.375 0.75
vt 0.375 0.25
vt 0.375 0.6875
vt 0.3438 0.875
vt 0.3438 0.8125
vt 0.3438 0.375
vt 0.3438 0.3125
vt 0.3438 0.75
vt 0.3438 0.25
vt 0.3438 0.6875
vt 0.3438 0.1875
vt 0.3438 0.625
vt 0.3438 0.125
vt 0.3438 0.5625
vt 0.3438 0.0625
vt 0.3437 0.5
vt 0.3594 1.0
vt 0.3438 0.9375
vt 0.3594 0.0
vt 0.3438 0.4375
vt 0.3125 0.625
vt 0.3125 0.5625
vt 0.3125 0.0625
vt 0.3125 0.5
vt 0.3281 1.0
vt 0.3125 0.9375
vt 0.3281 0.0
vt 0.3125 0.4375
vt 0.3125 0.875
vt 0.3125 0.375
vt 0.3125 0.8125
vt 0.3125 0.3125
vt 0.3125 0.75
vt 0.3125 0.25
vt 0.3125 0.6875
vt 0.3125 0.1875
vt 0.3125 0.125
vt 0.2812 0.375
vt 0.2812 0.3125
vt 0.2812 0.75
vt 0.2812 0.25
vt 0.2812 0.6875
vt 0.2812 0.1875
vt 0.2812 0.625
vt 0.2812 0.125
vt 0.2812 0.5625
vt 0.2812 0.0625
vt 0.2812 0.5
vt 0.2969 1.0
vt 0.2812 0.9375
vt 0.2969 0.0
vt 0.2812 0.4375
vt 0.2812 0.875
vt 0.2812 0.8125
vt 0.25 0.125
vt 0.25 0.0625
vt 0.25 0.5625
vt 0.25 0.5
vt 0.2656 1.0
vt 0.25 0.9375
vt 0.2656 0.0
vt 0.25 0.4375
vt 0.25 0.875
vt 0.25 0.375
vt 0.25 0.8125
vt 0.25 0.3125
vt 0.25 0.75
vt 0.25 0.25
vt 0.25 0.6875
vt 0.25 0.1875
vt 0.25 0.625
vt 0.2188 0.75
vt 0.2188 0.25
vt 0.2188 0.6875
vt 0.2188 0.1875
vt 0.2188 0.625
vt 0.2188 0.125
vt 0.2188 0.5625
vt 0.2188 0.0625
vt 0.2187 0.5
vt 0.2344 1.0
vt 0.2188 0.9375
vt 0.2344 0.0
vt 0.2188 0.4375
vt 0.2188 0.875
vt 0.2188 0.375
vt 0.2188 0.8125
vt 0.2188 0.3125
vt 0.1875 0.5625
vt 0.1875 0.5
vt 0.2031 1.0
vt 0.1875 0.9375
vt 0.2031 0.0
vt 0.1875 0.0625
vt 0.1875 0.4375
vt 0.1875 0.875
vt 0.1875 0.375
vt 0.1875 0.8125
vt 0.1875 0.3125
vt 0.1875 0.75
vt 0.1875 0.25
vt 0.1875 0.6875
vt 0.1875 0.1875
vt 0.1875 0.625
vt 0.1875 0.125
vt 0.1562 0.25
vt 0.1562 0.75
vt 0.1562 0.6875
vt 0.1562 0.1875
vt 0.1563 0.625
vt 0.1562 0.125
vt 0.1562 0.5625
vt 0.1563 0.0625
vt 0.1562 0.5
vt 0.1719 1.0
vt 0.1563 0.9375
vt 0.1719 0.0
vt 0.1562 0.4375
vt 0.1562 0.875
vt 0.1563 0.375
vt 0.1562 0.8125
vt 0.1562 0.3125
vt 0.1406 0.0
vt 0.125 0.0625
vt 0.125 0.4375
vt 0.125 0.875
vt 0.125 0.375
vt 0.125 0.8125
vt 0.125 0.3125
vt 0.125 0.75
vt 0.125 0.25
vt 0.125 0.6875
vt 0.125 0.1875
vt 0.125 0.625
vt 0.125 0.125
vt 0.125 0.5625
vt 0.125 0.5
vt 0.1406 1.0
vt 0.125 0.9375
vt 0.0938 0.25
vt 0.0937 0.1875
vt 0.0938 0.625
vt 0.0938 0.125
vt 0.0937 0.5625
vt 0.0938 0.0625
vt 0.0937 0.5
vt 0.1094 1.0
vt 0.0938 0.9375
vt 0.1094 0.0
vt 0.0937 0.4375
vt 0.0938 0.875
vt 0.0938 0.375
vt 0.0937 0.8125
vt 0.0938 0.3125
vt 0.0938 0.75
vt 0.0938 0.6875
vt 0.0625 0.875
vt 0.0625 0.375
vt 0.0625 0.8125
vt 0.0625 0.3125
vt 0.0625 0.75
vt 0.0625 0.25
vt 0.0625 0.6875
vt 0.0625 0.1875
vt 0.0625 0.625
vt 0.0625 0.125
vt 0.0625 0.5625
vt 0.0625 0.0625
vt 0.0625 0.5
vt 0.0781 1.0
vt 0.0625 0.9375
vt 0.0781 0.0
vt 0.0625 0.4375
vt 0.0312 0.625
vt 0.0312 0.125
vt 0.0312 0.5625
vt 0.0312 0.0625
vt 0.0312 0.5
vt 0.0469 1.0
vt 0.0312 0.9375
vt 0.0469 0.0
vt 0.0312 0.4375
vt 0.0312 0.875
vt 0.0312 0.375
vt 0.0312 0.8125
vt 0.0312 0.3125
vt 0.0312 0.75
vt 0.0312 0.25
vt 0.0312 0.6875
vt 0.0312 0.1875
vt 0.0 0.375
vt 0.0 0.875
vt 0.0 0.8125
vt 0.0 0.3125
vt 0.0 0.75
vt 0.0 0.25
vt 0.0 0.6875
vt 0.0 0.1875
vt 0.0 0.625
vt 0.0 0.125
vt 0.0 0.5625
vt 0.0 0.0625
vt 0.0 0.5
vt 0.0156 1.0
vt 0.0 0.9375
vt 0.0156 0.0
vt 0.0 0.4375
vt 1.0 0.1875
vt 0.9687 0.125
vt 1.0 0.125
vt 1.0 0.5625
vt 0.9688 0.625
vt 0.9687 0.5625
vt 0.9688 0.0625
vt 1.0 0.0625
vt 1.0 0.5
vt 0.9687 0.5
vt 1.0 0.9375
vt 0.9844 1.0
vt 0.9688 0.9375
vt 0.9844 0.0
vt 0.9687 0.4375
vt 1.0 0.4375
vt 0.9687 0.875
vt 1.0 0.875
vt 0.9688 0.375
vt 1.0 0.375
vt 1.0 0.8125
vt 0.9687 0.8125
vt 1.0 0.3125
vt 0.9687 0.3125
vt 0.9688 0.75
vt 1.0 0.75
vt 0.9688 0.25
vt 1.0 0.25
vt 1.0 0.6875
vt 0.9687 0.6875
vt 0.9687 0.1875
vt 1.0 0.625
vt 0.9375 0.875
vt 0.9375 0.8125
vt 0.9375 0.375
vt 0.9375 0.3125
vt 0.9375 0.75
vt 0.9375 0.25
vt 0.9375 0.6875
vt 0.9375 0.1875
vt 0.9375 0.625
vt 0.9375 0.125
vt 0.9375 0.5625
vt 0.9375 0.0625
vt 0.9375 0.5
vt 0.9531 1.0
vt 0.9375 0.9375
vt 0.9531 0.0
vt 0.9375 0.4375
vt 0.9062 0.625
vt 0.9062 0.5625
vt 0.9062 0.0625
vt 0.9062 0.5
vt 0.9219 1.0
vt 0.9062 0.9375
vt 0.9219 0.0
vt 0.9062 0.4375
vt 0.9062 0.875
vt 0.9062 0.375
vt 0.9062 0.8125
vt 0.9062 0.3125
vt 0.9062 0.75
vt 0.9062 0.25
vt 0.9062 0.6875
vt 0.9062 0.1875
vt 0.9062 0.125
vt 0.875 0.375
vt 0.875 0.3125
vt 0.875 0.75
vt 0.875 0.25
vt 0.875 0.6875
vt 0.875 0.1875
vt 0.875 0.625
vt 0.875 0.125
vt 0.875 0.5625
vt 0.875 0.0625
vt 0.875 0.5
vt 0.8906 1.0
vt 0.875 0.9375
vt 0.8906 0.0
vt 0.875 0.4375
vt 0.875 0.875
vt 0.875 0.8125
vt 0.8438 0.0625
vt 0.8437 0.5625
vt 0.8437 0.5
vt 0.8594 1.0
vt 0.8438 0.9375
vt 0.8594 0.0
vt 0.8437 0.4375
vt 0.8438 0.875
vt 0.8438 0.375
vt 0.8437 0.8125
vt 0.8437 0.3125
vt 0.8438 0.75
vt 0.8438 0.25
vt 0.8437 0.6875
vt 0.8437 0.1875
vt 0.8438 0.625
vt 0.8438 0.125
vt 0.8125 0.25
vt 0.8125 0.75
vt 0.8125 0.6875
vt 0.8125 0.1875
vt 0.8125 0.625
vt 0.8125 0.125
vt 0.8125 0.5625
vt 0.8125 0.0625
vt 0.8125 0.5
vt 0.8281 1.0
vt 0.8125 0.9375
vt 0.8281 0.0
vt 0.8125 0.4375
vt 0.8125 0.875
vt 0.8125 0.375
vt 0.8125 0.8125
vt 0.8125 0.3125
vt 0.7969 1.0
vt 0.7812 0.9375
vt 0.7969 0.0
vt 0.7812 0.0625
vt 0.7812 0.4375
vt 0.7812 0.875
vt 0.7812 0.375
vt 0.7812 0.8125
vt 0.7812 0.3125
vt 0.7812 0.75
vt 0.7812 0.25
vt 0.7812 0.6875
vt 0.7812 0.1875
vt 0.7812 0.625
vt 0.7812 0.125
vt 0.7812 0.5625
vt 0.7812 0.5
vt 0.7656 1.0
vt 0.7656 0.0
vn -0.0 0.8333 -0.5528
vn 0.1385 0.6965 -0.7041
vn -0.0 0.7101 -0.7041
vn -0.0 0.8333 0.5528
vn 0.1385 0.6965 0.7041
vn 0.1626 0.8173 0.5528
vn 0.1092 0.549 -0.8286
vn -0.0 0.5598 -0.8286
vn -0.0 0.9248 0.3805
vn 0.1804 0.907 0.3805
vn 0.0757 0.3804 -0.9217
vn -0.0 0.3879 -0.9217
vn -0.0 0.981 0.1939
vn 0.1914 0.9622 0.1939
vn 0.0392 0.1971 -0.9796
vn -0.0 0.201 -0.9796
vn 0.1951 0.9808 0.0
vn -0.0 1.0 -0.0
vn -0.0 0.201 0.9796
vn -0.0 0.0 1.0
vn 0.0392 0.1971 0.9796
vn 0.0 0.0 -1.0
vn 0.1914 0.9622 -0.1939
vn -0.0 0.981 -0.1939
vn -0.0 0.3879 0.9217
vn 0.0757 0.3804 0.9217
vn 0.1804 0.907 -0.3805
vn -0.0 0.9248 -0.3805
vn -0.0 0.5598 0.8286
vn 0.1092 0.549 0.8286
vn 0.1626 0.8173 -0.5528
vn -0.0 0.7101 0.7041
vn 0.3189 0.7699 -0.5528
vn 0.2718 0.6561 0.7041
vn 0.2718 0.6561 -0.7041
vn 0.3189 0.7699 0.5528
vn 0.2142 0.5172 -0.8286
vn 0.3539 0.8544 0.3805
vn 0.1484 0.3584 -0.9217
vn 0.3754 0.9063 0.1939
vn 0.0769 0.1857 -0.9796
vn 0.3827 0.9239 0.0
vn 0.0769 0.1857 0.9796
vn 0.3754 0.9063 -0.1939
vn 0.1484 0.3584 0.9217
vn 0.3539 0.8544 -0.3805
vn 0.2142 0.5172 0.8286
vn 0.1117 0.1671 -0.9796
vn 0.5556 0.8315 0.0
vn 0.1117 0.1671 0.9796
vn 0.545 0.8157 -0.1939
vn 0.2155 0.3225 0.9217
vn 0.5138 0.7689 -0.3805
vn 0.311 0.4654 0.8286
vn 0.463 0.6929 -0.5528
vn 0.3945 0.5905 0.7041
vn 0.3945 0.5905 -0.7041
vn 0.463 0.6929 0.5528
vn 0.311 0.4654 -0.8286
vn 0.5138 0.7689 0.3805
vn 0.2155 0.3225 -0.9217
vn 0.545 0.8157 0.1939
vn 0.5021 0.5021 0.7041
vn 0.5021 0.5021 -0.7041
vn 0.5893 0.5893 0.5528
vn 0.3958 0.3958 -0.8286
vn 0.6539 0.6539 0.3805
vn 0.2743 0.2743 -0.9217
vn 0.6937 0.6937 0.1939
vn 0.1421 0.1421 -0.9796
vn 0.7071 0.7071 0.0
vn 0.1421 0.1421 0.9796
vn 0.6937 0.6937 -0.1939
vn 0.2743 0.2743 0.9217
vn 0.6539 0.6539 -0.3805
vn 0.3958 0.3958 0.8286
vn 0.5893 0.5893 -0.5528
vn 0.8157 0.545 0.1939
vn 0.8315 0.5556 0.0
vn 0.1671 0.1117 0.9796
vn 0.1671 0.1117 -0.9796
vn 0.8157 0.545 -0.1939
vn 0.3225 0.2155 0.9217
vn 0.7689 0.5138 -0.3805
vn 0.4654 0.311 0.8286
vn 0.6929 0.463 -0.5528
vn 0.5905 0.3945 0.7041
vn 0.5905 0.3945 -0.7041
vn 0.6929 0.463 0.5528
vn 0.4654 0.311 -0.8286
vn 0.7689 0.5138 0.3805
vn 0.3225 0.2155 -0.9217
vn 0.6561 0.2718 -0.7041
vn 0.6561 0.2718 0.7041
vn 0.7699 0.3189 0.5528
vn 0.5172 0.2142 -0.8286
vn 0.8544 0.3539 0.3805
vn 0.3584 0.1484 -0.9217
vn 0.9063 0.3754 0.1939
vn 0.1857 0.0769 -0.9796
vn 0.9239 0.3827 -0.0
vn 0.1857 0.0769 0.9796
vn 0.9063 0.3754 -0.1939
vn 0.3584 0.1484 0.9217
vn 0.8544 0.3539 -0.3805
vn 0.5172 0.2142 0.8286
vn 0.7699 0.3189 -0.5528
vn 0.1971 0.0392 0.9796
vn 0.1971 0.0392 -0.9796
vn 0.9622 0.1914 -0.1939
vn 0.3804 0.0757 0.9217
vn 0.907 0.1804 -0.3805
vn 0.549 0.1092 0.8286
vn 0.8173 0.1626 -0.5528
vn 0.6965 0.1385 0.7041
vn 0.6965 0.1385 -0.7041
vn 0.8173 0.1626 0.5528
vn 0.549 0.1092 -0.8286
vn 0.907 0.1804 0.3805
vn 0.3804 0.0757 -0.9217
vn 0.9622 0.1914 0.1939
vn 0.9808 0.1951 -0.0
vn 0.7101 0.0 0.7041
vn 0.8333 -0.0 0.5528
vn 0.7101 0.0 -0.7041
vn 0.5598 -0.0 -0.8286
vn 0.9248 0.0 0.3805
vn 0.3879 0.0 -0.9217
vn 0.981 0.0 0.1939
vn 0.201 -0.0 -0.9796
vn 1.0 -0.0 -0.0
vn 0.201 -0.0 0.9796
vn 0.981 0.0 -0.1939
vn 0.3879 -0.0 0.9217
vn 0.9248 0.0 -0.3805
vn 0.5598 -0.0 0.8286
vn 0.8333 -0.0 -0.5528
vn 0.9622 -0.1914 -0.1939
vn 0.3804 -0.0757 0.9217
vn 0.907 -0.1804 -0.3805
vn 0.549 -0.1092 0.8286
vn 0.8173 -0.1626 -0.5528
vn 0.6965 -0.1385 0.7041
vn 0.6965 -0.1385 -0.7041
vn 0.8173 -0.1626 0.5528
vn 0.549 -0.1092 -0.8286
vn 0.907 -0.1804 0.3805
vn 0.3804 -0.0757 -0.9217
vn 0.9622 -0.1914 0.1939
vn 0.1971 -0.0392 -0.9796
vn 0.9808 -0.1951 0.0
vn 0.1971 -0.0392 0.9796
vn 0.6561 -0.2718 -0.7041
vn 0.5172 -0.2142 -0.8286
vn 0.8544 -0.3539 0.3805
vn 0.3584 -0.1484 -0.9217
vn 0.9063 -0.3754 0.1939
vn 0.1857 -0.0769 -0.9796
vn 0.9239 -0.3827 0.0
vn 0.1857 -0.0769 0.9796
vn 0.9063 -0.3754 -0.1939
vn 0.3584 -0.1484 0.9217
vn 0.8544 -0.3539 -0.3805
vn 0.5172 -0.2142 0.8286
vn 0.7699 -0.3189 -0.5528
vn 0.6561 -0.2718 0.7041
vn 0.7699 -0.3189 0.5528
vn 0.7689 -0.5138 -0.3805
vn 0.3225 -0.2155 0.9217
vn 0.4654 -0.311 0.8286
vn 0.6929 -0.463 -0.5528
vn 0.5905 -0.3945 0.7041
vn 0.5905 -0.3945 -0.7041
vn 0.6929 -0.463 0.5528
vn 0.4654 -0.311 -0.8286
vn 0.7689 -0.5138 0.3805
vn 0.3225 -0.2155 -0.9217
vn 0.8157 -0.545 0.1939
vn 0.1671 -0.1117 -0.9796
vn 0.8315 -0.5556 -0.0
vn 0.1671 -0.1117 0.9796
vn 0.8157 -0.545 -0.1939
vn 0.3958 -0.3958 -0.8286
vn 0.2743 -0.2743 -0.9217
vn 0.6539 -0.6539 0.3805
vn 0.6937 -0.6937 0.1939
vn 0.1421 -0.1421 -0.9796
vn 0.7071 -0.7071 0.0
vn 0.1421 -0.1421 0.9796
vn 0.6937 -0.6937 -0.1939
vn 0.2743 -0.2743 0.9217
vn 0.6539 -0.6539 -0.3805
vn 0.3958 -0.3958 0.8286
vn 0.5893 -0.5893 -0.5528
vn 0.5021 -0.5021 0.7041
vn 0.5021 -0.5021 -0.7041
vn 0.5893 -0.5893 0.5528
vn 0.2155 -0.3225 0.9217
vn 0.311 -0.4654 0.8286
vn 0.5138 -0.7689 -0.3805
vn 0.463 -0.6929 -0.5528
vn 0.3945 -0.5905 0.7041
vn 0.3945 -0.5905 -0.7041
vn 0.463 -0.6929 0.5528
vn 0.311 -0.4654 -0.8286
vn 0.5138 -0.7689 0.3805
vn 0.2155 -0.3225 -0.9217
vn 0.545 -0.8157 0.1939
vn 0.1117 -0.1671 -0.9796
vn 0.5556 -0.8315 -0.0
vn 0.1117 -0.1671 0.9796
vn 0.545 -0.8157 -0.1939
vn 0.3539 -0.8544 0.3805
vn 0.3754 -0.9063 0.1939
vn 0.0769 -0.1857 -0.9796
vn 0.3827 -0.9239 0.0
vn 0.0769 -0.1857 0.9796
vn 0.3754 -0.9063 -0.1939
vn 0.1484 -0.3584 0.9217
vn 0.3539 -0.8544 -0.3805
vn 0.2142 -0.5172 0.8286
vn 0.3189 -0.7699 -0.5528
vn 0.2718 -0.6561 0.7041
vn 0.2718 -0.6561 -0.7041
vn 0.3189 -0.7699 0.5528
vn 0.2142 -0.5172 -0.8286
vn 0.1484 -0.3584 -0.9217
vn 0.1804 -0.907 -0.3805
vn 0.1626 -0.8173 -0.5528
vn 0.1385 -0.6965 0.7041
vn 0.1385 -0.6965 -0.7041
vn 0.1626 -0.8173 0.5528
vn 0.1092 -0.549 -0.8286
vn 0.1804 -0.907 0.3805
vn 0.0757 -0.3804 -0.9217
vn 0.1914 -0.9622 0.1939
vn 0.0392 -0.1971 -0.9796
vn 0.1951 -0.9808 -0.0
vn 0.0392 -0.1971 0.9796
vn 0.1914 -0.9622 -0.1939
vn 0.0757 -0.3804 0.9217
vn 0.1092 -0.549 0.8286
vn -0.0 -0.3879 -0.9217
vn -0.0 -0.201 -0.9796
vn 0.0 -0.981 0.1939
vn -0.0 -1.0 0.0
vn 0.0 -0.201 0.9796
vn 0.0 -0.981 -0.1939
vn -0.0 -0.3879 0.9217
vn 0.0 -0.9248 -0.3805
vn -0.0 -0.5598 0.8286
vn -0.0 -0.8333 -0.5528
vn 0.0 -0.7101 0.7041
vn 0.0 -0.7101 -0.7041
vn -0.0 -0.8333 0.5528
vn 0.0 -0.5598 -0.8286
vn 0.0 -0.9248 0.3805
vn -0.1385 -0.6965 0.7041
vn -0.1385 -0.6965 -0.7041
vn -0.1626 -0.8173 0.5528
vn -0.1092 -0.549 -0.8286
vn -0.1804 -0.907 0.3805
vn -0.0757 -0.3804 -0.9217
vn -0.1914 -0.9622 0.1939
vn -0.0392 -0.1971 -0.9796
vn -0.1951 -0.9808 -0.0
vn -0.0392 -0.1971 0.9796
vn -0.1914 -0.9622 -0.1939
vn -0.0757 -0.3804 0.9217
vn -0.1804 -0.907 -0.3805
vn -0.1092 -0.549 0.8286
vn -0.1626 -0.8173 -0.5528
vn -0.3754 -0.9063 0.1939
vn -0.3827 -0.9239 0.0
vn -0.0769 -0.1857 0.9796
vn -0.0769 -0.1857 -0.9796
vn -0.3754 -0.9063 -0.1939
vn -0.1484 -0.3584 0.9217
vn -0.3539 -0.8544 -0.3805
vn -0.2142 -0.5172 0.8286
vn -0.3189 -0.7699 -0.5528
vn -0.2718 -0.6561 0.7041
vn -0.2718 -0.6561 -0.7041
vn -0.3189 -0.7699 0.5528
vn -0.2142 -0.5172 -0.8286
vn -0.3539 -0.8544 0.3805
vn -0.1484 -0.3584 -0.9217
vn -0.3945 -0.5905 -0.7041
vn -0.3945 -0.5905 0.7041
vn -0.463 -0.6929 0.5528
vn -0.311 -0.4654 -0.8286
vn -0.5138 -0.7689 0.3805
vn -0.2155 -0.3225 -0.9217
vn -0.545 -0.8157 0.1939
vn -0.1117 -0.1671 -0.9796
vn -0.5556 -0.8315 0.0
vn -0.1117 -0.1671 0.9796
vn -0.545 -0.8157 -0.1939
vn -0.2155 -0.3225 0.9217
vn -0.5138 -0.7689 -0.3805
vn -0.311 -0.4654 0.8286
vn -0.463 -0.6929 -0.5528
vn -0.1421 -0.1421 -0.9796
vn -0.6937 -0.6937 -0.1939
vn -0.2743 -0.2743 0.9217
vn -0.6539 -0.6539 -0.3805
vn -0.3958 -0.3958 0.8286
vn -0.5893 -0.5893 -0.5528
vn -0.5021 -0.5021 0.7041
vn -0.5021 -0.5021 -0.7041
vn -0.5893 -0.5893 0.5528
vn -0.3958 -0.3958 -0.8286
vn -0.6539 -0.6539 0.3805
vn -0.2743 -0.2743 -0.9217
vn -0.6937 -0.6937 0.1939
vn -0.7071 -0.7071 -0.0
vn -0.1421 -0.1421 0.9796
vn -0.5905 -0.3945 -0.7041
vn -0.4654 -0.311 -0.8286
vn -0.7689 -0.5138 0.3805
vn -0.3225 -0.2155 -0.9217
vn -0.8157 -0.545 0.1939
vn -0.1671 -0.1117 -0.9796
vn -0.8315 -0.5556 0.0
vn -0.1671 -0.1117 0.9796
vn -0.8157 -0.545 -0.1939
vn -0.3225 -0.2155 0.9217
vn -0.7689 -0.5138 -0.3805
vn -0.4654 -0.311 0.8286
vn -0.6929 -0.463 -0.5528
vn -0.5905 -0.3945 0.7041
vn -0.6929 -0.463 0.5528
vn -0.3584 -0.1484 0.9217
vn -0.8544 -0.3539 -0.3805
vn -0.5172 -0.2142 0.8286
vn -0.7699 -0.3189 -0.5528
vn -0.6561 -0.2718 0.7041
vn -0.6561 -0.2718 -0.7041
vn -0.7699 -0.3189 0.5528
vn -0.5172 -0.2142 -0.8286
vn -0.8544 -0.3539 0.3805
vn -0.3584 -0.1484 -0.9217
vn -0.9063 -0.3754 0.1939
vn -0.1857 -0.0769 -0.9796
vn -0.9239 -0.3827 -0.0
vn -0.1857 -0.0769 0.9796
vn -0.9063 -0.3754 -0.1939
vn -0.907 -0.1804 0.3805
vn -0.3804 -0.0757 -0.9217
vn -0.9622 -0.1914 0.1939
vn -0.1971 -0.0392 -0.9796
vn -0.9808 -0.1951 -0.0
vn -0.1971 -0.0392 0.9796
vn -0.9622 -0.1914 -0.1939
vn -0.3804 -0.0757 0.9217
vn -0.907 -0.1804 -0.3805
vn -0.549 -0.1092 0.8286
vn -0.8173 -0.1626 -0.5528
vn -0.6965 -0.1385 0.7041
vn -0.6965 -0.1385 -0.7041
vn -0.8173 -0.1626 0.5528
vn -0.549 -0.1092 -0.8286
vn -0.9248 -0.0 -0.3805
vn -0.3879 0.0 0.9217
vn -0.5598 0.0 0.8286
vn -0.8333 0.0 -0.5528
vn -0.7101 -0.0 0.7041
vn -0.7101 -0.0 -0.7041
vn -0.8333 0.0 0.5528
vn -0.5598 0.0 -0.8286
vn -0.9248 -0.0 0.3805
vn -0.3879 -0.0 -0.9217
vn -0.981 -0.0 0.1939
vn -0.201 0.0 -0.9796
vn -1.0 0.0 0.0
vn -0.201 -0.0 0.9796
vn -0.981 -0.0 -0.1939
vn -0.3804 0.0757 -0.9217
vn -0.907 0.1804 0.3805
vn -0.9622 0.1914 0.1939
vn -0.1971 0.0392 -0.9796
vn -0.9808 0.1951 0.0
vn -0.1971 0.0392 0.9796
vn -0.9622 0.1914 -0.1939
vn -0.3804 0.0757 0.9217
vn -0.907 0.1804 -0.3805
vn -0.549 0.1092 0.8286
vn -0.8173 0.1626 -0.5528
vn -0.6965 0.1385 0.7041
vn -0.6965 0.1385 -0.7041
vn -0.8173 0.1626 0.5528
vn -0.549 0.1092 -0.8286
vn -0.3584 0.1484 0.9217
vn -0.5172 0.2142 0.8286
vn -0.8544 0.3539 -0.3805
vn -0.7699 0.3189 -0.5528
vn -0.6561 0.2718 0.7041
vn -0.6561 0.2718 -0.7041
vn -0.7699 0.3189 0.5528
vn -0.5172 0.2142 -0.8286
vn -0.8544 0.3539 0.3805
vn -0.3584 0.1484 -0.9217
vn -0.9063 0.3754 0.1939
vn -0.1857 0.0769 -0.9796
vn -0.9239 0.3827 -0.0
vn -0.1857 0.0769 0.9796
vn -0.9063 0.3754 -0.1939
vn -0.7689 0.5138 0.3805
vn -0.8157 0.545 0.1939
vn -0.1671 0.1117 -0.9796
vn -0.8315 0.5556 -0.0
vn -0.1671 0.1117 0.9796
vn -0.8157 0.545 -0.1939
vn -0.3225 0.2155 0.9217
vn -0.7689 0.5138 -0.3805
vn -0.4654 0.311 0.8286
vn -0.6929 0.463 -0.5528
vn -0.5905 0.3945 0.7041
vn -0.5905 0.3945 -0.7041
vn -0.6929 0.463 0.5528
vn -0.4654 0.311 -0.8286
vn -0.3225 0.2155 -0.9217
vn -0.6539 0.6539 -0.3805
vn -0.5893 0.5893 -0.5528
vn -0.5021 0.5021 0.7041
vn -0.5021 0.5021 -0.7041
vn -0.5893 0.5893 0.5528
vn -0.3958 0.3958 -0.8286
vn -0.6539 0.6539 0.3805
vn -0.2743 0.2743 -0.9217
vn -0.6937 0.6937 0.1939
vn -0.1421 0.1421 -0.9796
vn -0.7071 0.7071 -0.0
vn -0.1421 0.1421 0.9796
vn -0.6937 0.6937 -0.1939
vn -0.2743 0.2743 0.9217
vn -0.3958 0.3958 0.8286
vn -0.1117 0.1671 -0.9796
vn -0.545 0.8157 0.1939
vn -0.5556 0.8315 0.0
vn -0.1117 0.1671 0.9796
vn -0.545 0.8157 -0.1939
vn -0.2155 0.3225 0.9217
vn -0.5138 0.7689 -0.3805
vn -0.311 0.4654 0.8286
vn -0.463 0.6929 -0.5528
vn -0.3945 0.5905 0.7041
vn -0.3945 0.5905 -0.7041
vn -0.463 0.6929 0.5528
vn -0.311 0.4654 -0.8286
vn -0.5138 0.7689 0.3805
vn -0.2155 0.3225 -0.9217
vn -0.2718 0.6561 -0.7041
vn -0.2718 0.6561 0.7041
vn -0.3189 0.7699 0.5528
vn -0.2142 0.5172 -0.8286
vn -0.3539 0.8544 0.3805
vn -0.1484 0.3584 -0.9217
vn -0.3754 0.9063 0.1939
vn -0.0769 0.1857 -0.9796
vn -0.3827 0.9239 0.0
vn -0.0769 0.1857 0.9796
vn -0.3754 0.9063 -0.1939
vn -0.1484 0.3584 0.9217
vn -0.3539 0.8544 -0.3805
vn -0.2142 0.5172 0.8286
vn -0.3189 0.7699 -0.5528
vn -0.0392 0.1971 0.9796
vn -0.0392 0.1971 -0.9796
vn -0.1914 0.9622 -0.1939
vn -0.0757 0.3804 0.9217
vn -0.1804 0.907 -0.3805
vn -0.1092 0.549 0.8286
vn -0.1626 0.8173 -0.5528
vn -0.1385 0.6965 0.7041
vn -0.1385 0.6965 -0.7041
vn -0.1626 0.8173 0.5528
vn -0.1092 0.549 -0.8286
vn -0.1804 0.907 0.3805
vn -0.0757 0.3804 -0.9217
vn -0.1914 0.9622 0.1939
vn -0.1951 0.9808 -0.0
vtan -1.0 -0.0 0.0 1.0
vtan -0.9808 0.1951 0.0 1.0
vtan -1.0 -0.0 0.0 1.0
vtan -1.0 -0.0 -0.0 1.0
vtan -0.9808 0.1951 0.0 1.0
vtan -0.9808 0.1951 -0.0 1.0
vtan -0.9808 0.1951 0.0 1.0
vtan -1.0 -0.0 0.0 1.0
vtan -1.0 -0.0 -0.0 1.0
vtan -0.9808 0.1951 -0.0 1.0
vtan -0.9808 0.1951 0.0 1.0
vtan -1.0 -0.0 0.0 1.0
vtan -1.0 -0.0 -0.0 1.0
vtan -0.9808 0.1951 -0.0 1.0
vtan -0.9808 0.1951 0.0 1.0
vtan -1.0 -0.0 0.0 1.0
vtan -0.9808 0.1951 -0.0 1.0
vtan -1.0 -0.0 0.0 1.0
vtan -1.0 -0.0 -0.0 1.0
vtan -0.9952 0.098 -0.0 1.0
vtan -0.9808 0.1951 -0.0 1.0
vtan -0.9952 0.098 -0.0 1.0
vtan -0.9808 0.1951 0.0 1.0
vtan -1.0 -0.0 0.0 1.0
vtan -1.0 -0.0 -0.0 1.0
vtan -0.9808 0.1951 -0.0 1.0
vtan -0.9808 0.1951 0.0 1.0
vtan -1.0 -0.0 0.0 1.0
vtan -1.0 -0.0 -0.0 1.0
vtan -0.9808 0.1951 0.0 1.0
vtan -0.9808 0.1951 -0.0 1.0
vtan -1.0 -0.0 -0.0 1.0
vtan -0.9239 0.3827 0.0 1.0
vtan -0.9239 0.3827 0.0 1.0
vtan -0.9239 0.3827 0.0 1.0
vtan -0.9239 0.3827 0.0 1.0
vtan -0.9239 0.3827 -0.0 1.0
vtan -0.9239 0.3827 0.0 1.0
vtan -0.9239 0.3827 -0.0 1.0
vtan -0.9239 0.3827 -0.0 1.0
vtan -0.9239 0.3827 0.0 1.0
vtan -0.9239 0.3827 0.0 1.0
vtan -0.9569 0.2903 -0.0 1.0
vtan -0.9239 0.3827 -0.0 1.0
vtan -0.9569 0.2903 -0.0 1.0
vtan -0.9239 0.3827 0.0 1.0
vtan -0.9239 0.3827 -0.0 1.0
vtan -0.9239 0.3827 0.0 1.0
vtan -0.9239 0.3827 0.0 1.0
vtan -0.8315 0.5556 -0.0 1.0
vtan -0.8315 0.5556 0.0 1.0
vtan -0.8819 0.4714 -0.0 1.0
vtan -0.8315 0.5556 0.0 1.0
vtan -0.8819 0.4714 -0.0 1.0
vtan -0.8315 0.5556 0.0 1.0
vtan -0.8315 0.5556 -0.0 1.0
vtan -0.8315 0.5556 -0.0 1.0
vtan -0.8315 0.5556 0.0 1.0
vtan -0.8315 0.5556 -0.0 1.0
vtan -0.8315 0.5556 -0.0 1.0
vtan -0.8315 0.5556 0.0 1.0
vtan -0.8315 0.5556 0.0 1.0
vtan -0.8315 0.5556 -0.0 1.0
vtan -0.8315 0.5556 0.0 1.0
vtan -0.8315 0.5556 -0.0 1.0
vtan -0.8315 0.5556 0.0 1.0
vtan -0.7071 0.7071 0.0 1.0
vtan -0.7071 0.7071 0.0 1.0
vtan -0.7071 0.7071 0.0 1.0
vtan -0.7071 0.7071 0.0 1.0
vtan -0.7071 0.7071 0.0 1.0
vtan -0.7071 0.7071 -0.0 1.0
vtan -0.7071 0.7071 -0.0 1.0
vtan -0.7071 0.7071 0.0 1.0
vtan -0.7071 0.7071 0.0 1.0
vtan -0.773 0.6344 -0.0 1.0
vtan -0.7071 0.7071 -0.0 1.0
vtan -0.773 0.6344 -0.0 1.0
vtan -0.7071 0.7071 0.0 1.0
vtan -0.7071 0.7071 -0.0 1.0
vtan -0.7071 0.7071 0.0 1.0
vtan -0.7071 0.7071 0.0 1.0
vtan -0.7071 0.7071 -0.0 1.0
vtan -0.5556 0.8315 0.0 1.0
vtan -0.5556 0.8315 0.0 1.0
vtan -0.6344 0.773 -0.0 1.0
vtan -0.5556 0.8315 -0.0 1.0
vtan -0.6344 0.773 -0.0 1.0
vtan -0.5556 0.8315 0.0 1.0
vtan -0.5556 0.8315 0.0 1.0
vtan -0.5556 0.8315 -0.0 1.0
vtan -0.5556 0.8315 0.0 1.0
vtan -0.5556 0.8315 -0.0 1.0
vtan -0.5556 0.8315 0.0 1.0
vtan -0.5556 0.8315 0.0 1.0
vtan -0.5556 0.8315 0.0 1.0
vtan -0.5556 0.8315 -0.0 1.0
vtan -0.5556 0.8315 0.0 1.0
vtan -0.5556 0.8315 -0.0 1.0
vtan -0.5556 0.8315 -0.0 1.0
vtan -0.3827 0.9239 -0.0 1.0
vtan -0.3827 0.9239 -0.0 1.0
vtan -0.3827 0.9239 0.0 1.0
vtan -0.3827 0.9239 -0.0 1.0
vtan -0.3827 0.9239 -0.0 1.0
vtan -0.3827 0.9239 -0.0 1.0
vtan -0.3827 0.9239 0.0 1.0
vtan -0.3827 0.9239 -0.0 1.0
vtan -0.3827 0.9239 0.0 1.0
vtan -0.4714 0.8819 -0.0 1.0
vtan -0.3827 0.9239 -0.0 1.0
vtan -0.4714 0.8819 -0.0 1.0
vtan -0.3827 0.9239 -0.0 1.0
vtan -0.3827 0.9239 0.0 1.0
vtan -0.3827 0.9239 0.0 1.0
vtan -0.3827 0.9239 -0.0 1.0
vtan -0.3827 0.9239 0.0 1.0
vtan -0.2903 0.9569 -0.0 1.0
vtan -0.1951 0.9808 -0.0 1.0
vtan -0.2903 0.9569 -0.0 1.0
vtan -0.1951 0.9808 0.0 1.0
vtan -0.1951 0.9808 -0.0 1.0
vtan -0.1951 0.9808 0.0 1.0
vtan -0.1951 0.9808 0.0 1.0
vtan -0.1951 0.9808 -0.0 1.0
vtan -0.1951 0.9808 -0.0 1.0
vtan -0.1951 0.9808 0.0 1.0
vtan -0.1951 0.9808 -0.0 1.0
vtan -0.1951 0.9808 0.0 1.0
vtan -0.1951 0.9808 0.0 1.0
vtan -0.1951 0.9808 0.0 1.0
vtan -0.1951 0.9808 -0.0 1.0
vtan -0.1951 0.9808 0.0 1.0
vtan -0.1951 0.9808 0.0 1.0
vtan -0.0 1.0 -0.0 1.0
vtan 0.0 1.0 0.0 1.0
vtan -0.0 1.0 0.0 1.0
vtan -0.0 1.0 -0.0 1.0
vtan -0.0 1.0 0.0 1.0
vtan -0.0 1.0 -0.0 1.0
vtan -0.0 1.0 0.0 1.0
vtan 0.0 1.0 -0.0 1.0
vtan 0.0 1.0 0.0 1.0
vtan -0.098 0.9952 -0.0 1.0
vtan 0.0 1.0 -0.0 1.0
vtan -0.098 0.9952 0.0 1.0
vtan -0.0 1.0 -0.0 1.0
vtan 0.0 1.0 0.0 1.0
vtan -0.0 1.0 -0.0 1.0
vtan 0.0 1.0 -0.0 1.0
vtan 0.0 1.0 -0.0 1.0
vtan 0.1951 0.9808 0.0 1.0
vtan 0.1951 0.9808 -0.0 1.0
vtan 0.1951 0.9808 -0.0 1.0
vtan 0.1951 0.9808 0.0 1.0
vtan 0.1951 0.9808 -0.0 1.0
vtan 0.1951 0.9808 -0.0 1.0
vtan 0.1951 0.9808 0.0 1.0
vtan 0.1951 0.9808 0.0 1.0
vtan 0.1951 0.9808 -0.0 1.0
vtan 0.1951 0.9808 0.0 1.0
vtan 0.1951 0.9808 0.0 1.0
vtan 0.1951 0.9808 -0.0 1.0
vtan 0.1951 0.9808 -0.0 1.0
vtan 0.1951 0.9808 0.0 1.0
vtan 0.098 0.9952 0.0 1.0
vtan 0.1951 0.9808 0.0 1.0
vtan 0.098 0.9952 0.0 1.0
vtan 0.3827 0.9239 0.0 1.0
vtan 0.3827 0.9239 -0.0 1.0
vtan 0.3827 0.9239 0.0 1.0
vtan 0.3827 0.9239 0.0 1.0
vtan 0.3827 0.9239 -0.0 1.0
vtan 0.3827 0.9239 0.0 1.0
vtan 0.3827 0.9239 -0.0 1.0
vtan 0.2903 0.9569 0.0 1.0
vtan 0.3827 0.9239 0.0 1.0
vtan 0.2903 0.9569 0.0 1.0
vtan 0.3827 0.9239 0.0 1.0
vtan 0.3827 0.9239 -0.0 1.0
vtan 0.3827 0.9239 -0.0 1.0
vtan 0.3827 0.9239 0.0 1.0
vtan 0.3827 0.9239 0.0 1.0
vtan 0.3827 0.9239 -0.0 1.0
vtan 0.3827 0.9239 -0.0 1.0
vtan 0.5556 0.8315 -0.0 1.0
vtan 0.5556 0.8315 -0.0 1.0
vtan 0.5556 0.8315 0.0 1.0
vtan 0.5556 0.8315 0.0 1.0
vtan 0.5556 0.8315 -0.0 1.0
vtan 0.5556 0.8315 0.0 1.0
vtan 0.5556 0.8315 -0.0 1.0
vtan 0.5556 0.8315 0.0 1.0
vtan 0.5556 0.8315 0.0 1.0
vtan 0.5556 0.8315 0.0 1.0
vtan 0.5556 0.8315 -0.0 1.0
vtan 0.5556 0.8315 -0.0 1.0
vtan 0.5556 0.8315 0.0 1.0
vtan 0.4714 0.8819 0.0 1.0
vtan 0.5556 0.8315 0.0 1.0
vtan 0.4714 0.8819 0.0 1.0
vtan 0.5556 0.8315 0.0 1.0
vtan 0.7071 0.7071 0.0 1.0
vtan 0.7071 0.7071 -0.0 1.0
vtan 0.7071 0.7071 0.0 1.0
vtan 0.7071 0.7071 0.0 1.0
vtan 0.7071 0.7071 0.0 1.0
vtan 0.7071 0.7071 0.0 1.0
vtan 0.6344 0.773 0.0 1.0
vtan 0.7071 0.7071 0.0 1.0
vtan 0.6344 0.773 0.0 1.0
vtan 0.7071 0.7071 0.0 1.0
vtan 0.7071 0.7071 0.0 1.0
vtan 0.7071 0.7071 -0.0 1.0
vtan 0.7071 0.7071 -0.0 1.0
vtan 0.7071 0.7071 -0.0 1.0
vtan 0.7071 0.7071 -0.0 1.0
vtan 0.7071 0.7071 0.0 1.0
vtan 0.7071 0.7071 0.0 1.0
vtan 0.8315 0.5556 0.0 1.0
vtan 0.8315 0.5556 -0.0 1.0
vtan 0.8315 0.5556 0.0 1.0
vtan 0.8315 0.5556 -0.0 1.0
vtan 0.8315 0.5556 -0.0 1.0
vtan 0.8315 0.5556 0.0 1.0
vtan 0.8315 0.5556 0.0 1.0
vtan 0.8315 0.5556 0.0 1.0
vtan 0.8315 0.5556 0.0 1.0
vtan 0.8315 0.5556 -0.0 1.0
vtan 0.8315 0.5556 -0.0 1.0
vtan 0.8315 0.5556 0.0 1.0
vtan 0.8315 0.5556 0.0 1.0
vtan 0.773 0.6344 0.0 1.0
vtan 0.8315 0.5556 -0.0 1.0
vtan 0.773 0.6344 0.0 1.0
vtan 0.8315 0.5556 0.0 1.0
vtan 0.9239 0.3827 0.0 1.0
vtan 0.9239 0.3827 -0.0 1.0
vtan 0.9239 0.3827 -0.0 1.0
vtan 0.9239 0.3827 -0.0 1.0
vtan 0.8819 0.4714 0.0 1.0
vtan 0.9239 0.3827 0.0 1.0
vtan 0.8819 0.4714 0.0 1.0
vtan 0.9239 0.3827 0.0 1.0
vtan 0.9239 0.3827 -0.0 1.0
vtan 0.9239 0.3827 -0.0 1.0
vtan 0.9239 0.3827 0.0 1.0
vtan 0.9239 0.3827 -0.0 1.0
vtan 0.9239 0.3827 -0.0 1.0
vtan 0.9239 0.3827 0.0 1.0
vtan 0.9239 0.3827 0.0 1.0
vtan 0.9239 0.3827 -0.0 1.0
vtan 0.9239 0.3827 -0.0 1.0
vtan 0.9808 0.1951 -0.0 1.0
vtan 0.9808 0.1951 0.0 1.0
vtan 0.9808 0.1951 -0.0 1.0
vtan 0.9808 0.1951 0.0 1.0
vtan 0.9808 0.1951 -0.0 1.0
vtan 0.9808 0.1951 -0.0 1.0
vtan 0.9808 0.1951 0.0 1.0
vtan 0.9808 0.1951 -0.0 1.0
vtan 0.9808 0.1951 -0.0 1.0
vtan 0.9808 0.1951 0.0 1.0
vtan 0.9808 0.1951 0.0 1.0
vtan 0.9569 0.2903 0.0 1.0
vtan 0.9808 0.1951 -0.0 1.0
vtan 0.9569 0.2903 0.0 1.0
vtan 0.9808 0.1951 0.0 1.0
vtan 0.9808 0.1951 -0.0 1.0
vtan 0.9808 0.1951 -0.0 1.0
vtan 1.0 -0.0 -0.0 1.0
vtan 1.0 -0.0 -0.0 1.0
vtan 1.0 0.0 -0.0 1.0
vtan 1.0 -0.0 0.0 1.0
vtan 0.9952 0.098 0.0 1.0
vtan 1.0 0.0 -0.0 1.0
vtan 0.9952 0.098 0.0 1.0
vtan 1.0 0.0 0.0 1.0
vtan 1.0 -0.0 -0.0 1.0
vtan 1.0 0.0 -0.0 1.0
vtan 1.0 -0.0 -0.0 1.0
vtan 1.0 -0.0 0.0 1.0
vtan 1.0 0.0 -0.0 1.0
vtan 1.0 0.0 0.0 1.0
vtan 1.0 -0.0 0.0 1.0
vtan 1.0 0.0 0.0 1.0
vtan 1.0 0.0 0.0 1.0
vtan 0.9808 -0.1951 -0.0 1.0
vtan 0.9808 -0.1951 0.0 1.0
vtan 0.9808 -0.1951 0.0 1.0
vtan 0.9808 -0.1951 -0.0 1.0
vtan 0.9808 -0.1951 0.0 1.0
vtan 0.9808 -0.1951 -0.0 1.0
vtan 0.9808 -0.1951 -0.0 1.0
vtan 0.9808 -0.1951 -0.0 1.0
vtan 0.9808 -0.1951 0.0 1.0
vtan 0.9952 -0.098 0.0 1.0
vtan 0.9808 -0.1951 0.0 1.0
vtan 0.9952 -0.098 0.0 1.0
vtan 0.9808 -0.1951 -0.0 1.0
vtan 0.9808 -0.1951 0.0 1.0
vtan 0.9808 -0.1951 -0.0 1.0
vtan 0.9808 -0.1951 -0.0 1.0
vtan 0.9808 -0.1951 -0.0 1.0
vtan 0.9239 -0.3827 -0.0 1.0
vtan 0.9239 -0.3827 0.0 1.0
vtan 0.9569 -0.2903 0.0 1.0
vtan 0.9239 -0.3827 -0.0 1.0
vtan 0.9569 -0.2903 0.0 1.0
vtan 0.9239 -0.3827 0.0 1.0
vtan 0.9239 -0.3827 0.0 1.0
vtan 0.9239 -0.3827 0.0 1.0
vtan 0.9239 -0.3827 -0.0 1.0
vtan 0.9239 -0.3827 0.0 1.0
vtan 0.9239 -0.3827 -0.0 1.0
vtan 0.9239 -0.3827 -0.0 1.0
vtan 0.9239 -0.3827 0.0 1.0
vtan 0.9239 -0.3827 0.0 1.0
vtan 0.9239 -0.3827 -0.0 1.0
vtan 0.9239 -0.3827 0.0 1.0
vtan 0.9239 -0.3827 0.0 1.0
vtan 0.8315 -0.5556 0.0 1.0
vtan 0.8315 -0.5556 -0.0 1.0
vtan 0.8315 -0.5556 -0.0 1.0
vtan 0.8315 -0.5556 -0.0 1.0
vtan 0.8315 -0.5556 0.0 1.0
vtan 0.8315 -0.5556 0.0 1.0
vtan 0.8315 -0.5556 -0.0 1.0
vtan 0.8315 -0.5556 -0.0 1.0
vtan 0.8315 -0.5556 -0.0 1.0
vtan 0.8819 -0.4714 0.0 1.0
vtan 0.8315 -0.5556 -0.0 1.0
vtan 0.8819 -0.4714 0.0 1.0
vtan 0.8315 -0.5556 0.0 1.0
vtan 0.8315 -0.5556 0.0 1.0
vtan 0.8315 -0.5556 -0.0 1.0
vtan 0.8315 -0.5556 0.0 1.0
vtan 0.8315 -0.5556 0.0 1.0
vtan 0.773 -0.6344 0.0 1.0
vtan 0.7071 -0.7071 0.0 1.0
vtan 0.7071 -0.7071 0.0 1.0
vtan 0.7071 -0.7071 -0.0 1.0
vtan 0.7071 -0.7071 0.0 1.0
vtan 0.7071 -0.7071 -0.0 1.0
vtan 0.7071 -0.7071 -0.0 1.0
vtan 0.7071 -0.7071 -0.0 1.0
vtan 0.7071 -0.7071 -0.0 1.0
vtan 0.7071 -0.7071 0.0 1.0
vtan 0.7071 -0.7071 -0.0 1.0
vtan 0.7071 -0.7071 0.0 1.0
vtan 0.7071 -0.7071 0.0 1.0
vtan 0.7071 -0.7071 0.0 1.0
vtan 0.7071 -0.7071 0.0 1.0
vtan 0.773 -0.6344 0.0 1.0
vtan 0.7071 -0.7071 -0.0 1.0
vtan 0.5556 -0.8315 0.0 1.0
vtan 0.5556 -0.8315 -0.0 1.0
vtan 0.5556 -0.8315 0.0 1.0
vtan 0.5556 -0.8315 -0.0 1.0
vtan 0.5556 -0.8315 -0.0 1.0
vtan 0.5556 -0.8315 0.0 1.0
vtan 0.5556 -0.8315 0.0 1.0
vtan 0.6344 -0.773 0.0 1.0
vtan 0.5556 -0.8315 -0.0 1.0
vtan 0.6344 -0.773 0.0 1.0
vtan 0.5556 -0.8315 0.0 1.0
vtan 0.5556 -0.8315 -0.0 1.0
vtan 0.5556 -0.8315 0.0 1.0
vtan 0.5556 -0.8315 -0.0 1.0
vtan 0.5556 -0.8315 -0.0 1.0
vtan 0.5556 -0.8315 -0.0 1.0
vtan 0.5556 -0.8315 -0.0 1.0
vtan 0.3827 -0.9239 0.0 1.0
vtan 0.3827 -0.9239 -0.0 1.0
vtan 0.3827 -0.9239 -0.0 1.0
vtan 0.3827 -0.9239 -0.0 1.0
vtan 0.3827 -0.9239 0.0 1.0
vtan 0.3827 -0.9239 0.0 1.0
vtan 0.3827 -0.9239 -0.0 1.0
vtan 0.3827 -0.9239 -0.0 1.0
vtan 0.3827 -0.9239 -0.0 1.0
vtan 0.3827 -0.9239 -0.0 1.0
vtan 0.3827 -0.9239 -0.0 1.0
vtan 0.3827 -0.9239 -0.0 1.0
vtan 0.3827 -0.9239 0.0 1.0
vtan 0.4714 -0.8819 0.0 1.0
vtan 0.3827 -0.9239 -0.0 1.0
vtan 0.4714 -0.8819 0.0 1.0
vtan 0.3827 -0.9239 0.0 1.0
vtan 0.1951 -0.9808 0.0 1.0
vtan 0.1951 -0.9808 -0.0 1.0
vtan 0.1951 -0.9808 0.0 1.0
vtan 0.1951 -0.9808 0.0 1.0
vtan 0.1951 -0.9808 0.0 1.0
vtan 0.2903 -0.9569 0.0 1.0
vtan 0.1951 -0.9808 0.0 1.0
vtan 0.2903 -0.9569 0.0 1.0
vtan 0.1951 -0.9808 0.0 1.0
vtan 0.1951 -0.9808 0.0 1.0
vtan 0.1951 -0.9808 0.0 1.0
vtan 0.1951 -0.9808 -0.0 1.0
vtan 0.1951 -0.9808 0.0 1.0
vtan 0.1951 -0.9808 -0.0 1.0
vtan 0.1951 -0.9808 -0.0 1.0
vtan 0.1951 -0.9808 0.0 1.0
vtan 0.1951 -0.9808 -0.0 1.0
vtan 0.0143 -0.9993 -0.0346 1.0
vtan 0.0833 -0.9959 0.0351 1.0
vtan 0.0674 -0.9967 0.0455 1.0
vtan 0.03 -0.9985 -0.0453 1.0
vtan 0.0487 -0.9976 0.0491 1.0
vtan 0.0487 -0.9976 -0.0491 1.0
vtan 0.03 -0.9985 0.0453 1.0
vtan 0.0674 -0.9967 -0.0455 1.0
vtan 0.0143 -0.9993 0.0346 1.0
vtan 0.0833 -0.9959 -0.0351 1.0
vtan 0.0037 -0.9998 0.0187 1.0
vtan 0.0941 -0.9954 -0.0193 1.0
vtan -0.0 -1.0 0.0 1.0
vtan 0.098 -0.9952 0.0 1.0
vtan 0.0941 -0.9954 0.0193 1.0
vtan 0.098 -0.9952 -0.0 1.0
vtan 0.0037 -0.9998 -0.0187 1.0
vtan -0.0674 -0.9967 0.0455 1.0
vtan -0.1951 -0.9808 -0.0 1.0
vtan -0.0833 -0.9959 0.0351 1.0
vtan -0.0037 -0.9998 -0.0187 1.0
vtan -0.1951 -0.9808 0.0 1.0
vtan -0.1951 -0.9808 0.0 1.0
vtan -0.1951 -0.9808 -0.0 1.0
vtan -0.0941 -0.9954 0.0193 1.0
vtan -0.0 -1.0 0.0 1.0
vtan -0.1951 -0.9808 0.0 1.0
vtan -0.0941 -0.9954 -0.0193 1.0
vtan -0.098 -0.9952 -0.0 1.0
vtan -0.1951 -0.9808 -0.0 1.0
vtan -0.098 -0.9952 -0.0 1.0
vtan -0.1951 -0.9808 -0.0 1.0
vtan -0.0037 -0.9998 0.0187 1.0
vtan -0.1951 -0.9808 -0.0 1.0
vtan -0.0833 -0.9959 -0.0351 1.0
vtan -0.1951 -0.9808 -0.0 1.0
vtan -0.0143 -0.9993 0.0346 1.0
vtan -0.0674 -0.9967 -0.0455 1.0
vtan -0.1951 -0.9808 0.0 1.0
vtan -0.0301 -0.9985 0.0453 1.0
vtan -0.1951 -0.9808 -0.0 1.0
vtan -0.1951 -0.9808 -0.0 1.0
vtan -0.0487 -0.9976 -0.0491 1.0
vtan -0.1951 -0.9808 -0.0 1.0
vtan -0.0487 -0.9976 0.0491 1.0
vtan -0.0301 -0.9985 -0.0453 1.0
vtan -0.1951 -0.9808 0.0 1.0
vtan -0.1951 -0.9808 -0.0 1.0
vtan -0.0143 -0.9993 -0.0346 1.0
vtan -0.3827 -0.9239 -0.0 1.0
vtan -0.3827 -0.9239 0.0 1.0
vtan -0.3827 -0.9239 0.0 1.0
vtan -0.3827 -0.9239 -0.0 1.0
vtan -0.3827 -0.9239 -0.0 1.0
vtan -0.3827 -0.9239 0.0 1.0
vtan -0.3827 -0.9239 0.0 1.0
vtan -0.3827 -0.9239 -0.0 1.0
vtan -0.3827 -0.9239 0.0 1.0
vtan -0.3827 -0.9239 -0.0 1.0
vtan -0.3827 -0.9239 0.0 1.0
vtan -0.3827 -0.9239 -0.0 1.0
vtan -0.3827 -0.9239 0.0 1.0
vtan -0.2903 -0.9569 -0.0 1.0
vtan -0.3827 -0.9239 -0.0 1.0
vtan -0.2903 -0.9569 -0.0 1.0
vtan -0.3827 -0.9239 0.0 1.0
vtan -0.5556 -0.8315 -0.0 1.0
vtan -0.5556 -0.8315 0.0 1.0
vtan -0.5556 -0.8315 -0.0 1.0
vtan -0.5556 -0.8315 0.0 1.0
vtan -0.4714 -0.8819 -0.0 1.0
vtan -0.5556 -0.8315 0.0 1.0
vtan -0.4714 -0.8819 -0.0 1.0
vtan -0.5556 -0.8315 -0.0 1.0
vtan -0.5556 -0.8315 0.0 1.0
vtan -0.5556 -0.8315 0.0 1.0
vtan -0.5556 -0.8315 0.0 1.0
vtan -0.5556 -0.8315 -0.0 1.0
vtan -0.5556 -0.8315 -0.0 1.0
vtan -0.5556 -0.8315 0.0 1.0
vtan -0.5556 -0.8315 0.0 1.0
vtan -0.5556 -0.8315 -0.0 1.0
vtan -0.5556 -0.8315 -0.0 1.0
vtan -0.7071 -0.7071 -0.0 1.0
vtan -0.7071 -0.7071 -0.0 1.0
vtan -0.7071 -0.7071 -0.0 1.0
vtan -0.7071 -0.7071 0.0 1.0
vtan -0.7071 -0.7071 0.0 1.0
vtan -0.7071 -0.7071 -0.0 1.0
vtan -0.7071 -0.7071 -0.0 1.0
vtan -0.7071 -0.7071 -0.0 1.0
vtan -0.7071 -0.7071 -0.0 1.0
vtan -0.7071 -0.7071 0.0 1.0
vtan -0.7071 -0.7071 0.0 1.0
vtan -0.6344 -0.773 -0.0 1.0
vtan -0.7071 -0.7071 0.0 1.0
vtan -0.6344 -0.773 -0.0 1.0
vtan -0.7071 -0.7071 0.0 1.0
vtan -0.7071 -0.7071 -0.0 1.0
vtan -0.7071 -0.7071 0.0 1.0
vtan -0.8315 -0.5556 0.0 1.0
vtan -0.8315 -0.5556 -0.0 1.0
vtan -0.8315 -0.5556 -0.0 1.0
vtan -0.773 -0.6344 -0.0 1.0
vtan -0.8315 -0.5556 0.0 1.0
vtan -0.773 -0.6344 -0.0 1.0
vtan -0.8315 -0.5556 0.0 1.0
vtan -0.8315 -0.5556 0.0 1.0
vtan -0.8315 -0.5556 -0.0 1.0
vtan -0.8315 -0.5556 0.0 1.0
vtan -0.8315 -0.5556 -0.0 1.0
vtan -0.8315 -0.5556 -0.0 1.0
vtan -0.8315 -0.5556 0.0 1.0
vtan -0.8315 -0.5556 0.0 1.0
vtan -0.8315 -0.5556 -0.0 1.0
vtan -0.8315 -0.5556 0.0 1.0
vtan -0.8315 -0.5556 -0.0 1.0
vtan -0.9239 -0.3827 0.0 1.0
vtan -0.9239 -0.3827 -0.0 1.0
vtan -0.9239 -0.3827 0.0 1.0
vtan -0.9239 -0.3827 -0.0 1.0
vtan -0.9239 -0.3827 0.0 1.0
vtan -0.9239 -0.3827 0.0 1.0
vtan -0.9239 -0.3827 -0.0 1.0
vtan -0.9239 -0.3827 -0.0 1.0
vtan -0.9239 -0.3827 0.0 1.0
vtan -0.8819 -0.4714 -0.0 1.0
vtan -0.9239 -0.3827 0.0 1.0
vtan -0.8819 -0.4714 -0.0 1.0
vtan -0.9239 -0.3827 0.0 1.0
vtan -0.9239 -0.3827 -0.0 1.0
vtan -0.9239 -0.3827 -0.0 1.0
vtan -0.9239 -0.3827 0.0 1.0
vtan -0.9239 -0.3827 -0.0 1.0
vtan -0.9569 -0.2903 -0.0 1.0
vtan -0.9808 -0.1951 -0.0 1.0
vtan -0.9569 -0.2903 -0.0 1.0
vtan -0.9808 -0.1951 0.0 1.0
vtan -0.9808 -0.1951 0.0 1.0
vtan -0.9808 -0.1951 -0.0 1.0
vtan -0.9808 -0.1951 0.0 1.0
vtan -0.9808 -0.1951 -0.0 1.0
vtan -0.9808 -0.1951 0.0 1.0
vtan -0.9808 -0.1951 -0.0 1.0
vtan -0.9808 -0.1951 -0.0 1.0
vtan -0.9808 -0.1951 -0.0 1.0
vtan -0.9808 -0.1951 -0.0 1.0
vtan -0.9808 -0.1951 -0.0 1.0
vtan -0.9808 -0.1951 0.0 1.0
vtan -0.9808 -0.1951 -0.0 1.0
vtan -0.9808 -0.1951 -0.0 1.0
vtan -0.9952 -0.098 -0.0 1.0
vtan -0.9952 -0.098 -0.0 1.0
f 5/0/0/0 17/1/1/1 478/2/2/2 
f 1/3/3/3 9/4/4/4 10/5/5/5 
f 478/2/2/2 18/6/6/6 479/7/7/7 
f 476/8/8/8 10/5/5/5 11/9/9/9 
f 479/7/7/7 19/10/10/10 480/11/11/11 
f 2/12/12/12 11/9/9/9 12/13/13/13 
f 480/11/11/11 20/14/14/14 481/15/15/15 
f 2/12/12/12 13/16/16/16 3/17/17/17 
f 473/18/18/18 81/19/19/19 6/20/20/20 
f 307/21/21/21 481/15/15/15 20/14/14/14 
f 3/17/17/17 14/22/22/22 4/23/23/23 
f 474/24/24/24 6/20/20/20 7/25/25/25 
f 4/23/23/23 15/26/26/26 477/27/27/27 
f 0/28/28/28 7/25/25/25 8/29/29/29 
f 477/27/27/27 16/30/30/30 5/0/0/0 
f 475/31/31/31 8/29/29/29 9/4/4/4 
f 15/26/26/26 31/32/32/32 16/30/30/30 
f 8/29/29/29 24/33/33/33 9/4/4/4 
f 16/30/30/30 32/34/34/34 17/1/1/1 
f 9/4/4/4 25/35/35/35 10/5/5/5 
f 18/6/6/6 32/34/34/34 33/36/36/36 
f 10/5/5/5 26/37/37/37 11/9/9/9 
f 19/10/10/10 33/36/36/36 34/38/38/38 
f 12/13/13/13 26/37/37/37 27/39/39/39 
f 19/10/10/10 35/40/40/40 20/14/14/14 
f 12/13/13/13 28/41/41/41 13/16/16/16 
f 6/20/20/20 81/42/19/42 21/43/42/43 
f 307/44/21/44 20/14/14/14 35/40/40/40 
f 13/16/16/16 29/45/43/45 14/22/22/22 
f 6/20/20/20 22/46/44/46 7/25/25/25 
f 14/22/22/22 30/47/45/47 15/26/26/26 
f 7/25/25/25 23/48/46/48 8/29/29/29 
f 34/38/38/38 50/49/47/49 35/40/40/40 
f 27/39/39/39 43/50/48/50 28/41/41/41 
f 21/43/42/43 81/51/19/51 36/52/49/52 
f 307/53/21/53 35/40/40/40 50/49/47/49 
f 29/45/43/45 43/50/48/50 44/54/50/54 
f 21/43/42/43 37/55/51/55 22/46/44/46 
f 29/45/43/45 45/56/52/56 30/47/45/47 
f 22/46/44/46 38/57/53/57 23/48/46/48 
f 31/32/32/32 45/56/52/56 46/58/54/58 
f 23/48/46/48 39/59/55/59 24/33/33/33 
f 32/34/34/34 46/58/54/58 47/60/56/60 
f 24/33/33/33 40/61/57/61 25/35/35/35 
f 33/36/36/36 47/60/56/60 48/62/58/62 
f 25/35/35/35 41/63/59/63 26/37/37/37 
f 33/36/36/36 49/64/60/64 34/38/38/38 
f 26/37/37/37 42/65/61/65 27/39/39/39 
f 38/57/53/57 54/66/62/66 39/59/55/59 
f 46/58/54/58 62/67/63/67 47/60/56/60 
f 39/59/55/59 55/68/64/68 40/61/57/61 
f 47/60/56/60 63/69/65/69 48/62/58/62 
f 40/61/57/61 56/70/66/70 41/63/59/63 
f 48/62/58/62 64/71/67/71 49/64/60/64 
f 42/65/61/65 56/70/66/70 57/72/68/72 
f 49/64/60/64 65/73/69/73 50/49/47/49 
f 43/50/48/50 57/72/68/72 58/74/70/74 
f 36/52/49/52 81/75/19/75 51/76/71/76 
f 307/77/21/77 50/49/47/49 65/73/69/73 
f 43/50/48/50 59/78/72/78 44/54/50/54 
f 36/52/49/52 52/79/73/79 37/55/51/55 
f 44/54/50/54 60/80/74/80 45/56/52/56 
f 37/55/51/55 53/81/75/81 38/57/53/57 
f 46/58/54/58 60/80/74/80 61/82/76/82 
f 58/74/70/74 72/83/77/83 73/84/78/84 
f 51/76/71/76 81/85/19/85 66/86/79/86 
f 307/87/21/87 65/73/69/73 80/88/80/88 
f 58/74/70/74 74/89/81/89 59/78/72/78 
f 51/76/71/76 67/90/82/90 52/79/73/79 
f 59/78/72/78 75/91/83/91 60/80/74/80 
f 52/79/73/79 68/92/84/92 53/81/75/81 
f 61/82/76/82 75/91/83/91 76/93/85/93 
f 53/81/75/81 69/94/86/94 54/66/62/66 
f 61/82/76/82 77/95/87/95 62/67/63/67 
f 55/68/64/68 69/94/86/94 70/96/88/96 
f 62/67/63/67 78/97/89/97 63/69/65/69 
f 55/68/64/68 71/98/90/98 56/70/66/70 
f 64/71/67/71 78/97/89/97 79/99/91/99 
f 57/72/68/72 71/98/90/98 72/83/77/83 
f 64/71/67/71 80/88/80/88 65/73/69/73 
f 76/93/85/93 93/100/92/100 77/95/87/95 
f 70/96/88/96 85/101/93/101 86/102/94/102 
f 77/95/87/95 94/103/95/103 78/97/89/97 
f 70/96/88/96 87/104/96/104 71/98/90/98 
f 78/97/89/97 95/105/97/105 79/99/91/99 
f 72/83/77/83 87/104/96/104 88/106/98/106 
f 80/88/80/88 95/105/97/105 96/107/99/107 
f 73/84/78/84 88/106/98/106 89/108/100/108 
f 66/86/79/86 81/109/19/109 82/110/101/110 
f 307/111/21/111 80/88/80/88 96/107/99/107 
f 73/84/78/84 90/112/102/112 74/89/81/89 
f 66/86/79/86 83/113/103/113 67/90/82/90 
f 74/89/81/89 91/114/104/114 75/91/83/91 
f 67/90/82/90 84/115/105/115 68/92/84/92 
f 76/93/85/93 91/114/104/114 92/116/106/116 
f 68/92/84/92 85/101/93/101 69/94/86/94 
f 82/110/101/110 81/117/19/117 97/118/107/118 
f 307/119/21/119 96/107/99/107 111/120/108/120 
f 89/108/100/108 105/121/109/121 90/112/102/112 
f 83/113/103/113 97/118/107/118 98/122/110/122 
f 90/112/102/112 106/123/111/123 91/114/104/114 
f 83/113/103/113 99/124/112/124 84/115/105/115 
f 92/116/106/116 106/123/111/123 107/125/113/125 
f 84/115/105/115 100/126/114/126 85/101/93/101 
f 92/116/106/116 108/127/115/127 93/100/92/100 
f 86/102/94/102 100/126/114/126 101/128/116/128 
f 94/103/95/103 108/127/115/127 109/129/117/129 
f 86/102/94/102 102/130/118/130 87/104/96/104 
f 95/105/97/105 109/129/117/129 110/131/119/131 
f 88/106/98/106 102/130/118/130 103/132/120/132 
f 95/105/97/105 111/120/108/120 96/107/99/107 
f 89/108/100/108 103/132/120/132 104/133/121/133 
f 101/128/116/128 115/134/122/134 116/135/123/135 
f 109/129/117/129 123/136/124/136 124/137/125/137 
f 101/128/116/128 117/138/126/138 102/130/118/130 
f 109/129/117/129 125/139/127/139 110/131/119/131 
f 103/132/120/132 117/138/126/138 118/140/128/140 
f 110/131/119/131 126/141/129/141 111/120/108/120 
f 104/133/121/133 118/140/128/140 119/142/130/142 
f 97/118/107/118 81/143/19/143 112/144/131/144 
f 307/145/21/145 111/120/108/120 126/141/129/141 
f 104/133/121/133 120/146/132/146 105/121/109/121 
f 98/122/110/122 112/144/131/144 113/147/133/147 
f 105/121/109/121 121/148/134/148 106/123/111/123 
f 98/122/110/122 114/149/135/149 99/124/112/124 
f 107/125/113/125 121/148/134/148 122/150/136/150 
f 99/124/112/124 115/134/122/134 100/126/114/126 
f 107/125/113/125 123/136/124/136 108/127/115/127 
f 119/142/130/142 135/151/137/151 120/146/132/146 
f 112/144/131/144 128/152/138/152 113/147/133/147 
f 120/146/132/146 136/153/139/153 121/148/134/148 
f 113/147/133/147 129/154/140/154 114/149/135/149 
f 122/150/136/150 136/153/139/153 137/155/141/155 
f 114/149/135/149 130/156/142/156 115/134/122/134 
f 122/150/136/150 138/157/143/157 123/136/124/136 
f 116/135/123/135 130/156/142/156 131/158/144/158 
f 124/137/125/137 138/157/143/157 139/159/145/159 
f 116/135/123/135 132/160/146/160 117/138/126/138 
f 124/137/125/137 140/161/147/161 125/139/127/139 
f 118/140/128/140 132/160/146/160 133/162/148/162 
f 125/139/127/139 141/163/149/163 126/141/129/141 
f 119/142/130/142 133/162/148/162 134/164/150/164 
f 112/144/131/144 81/165/19/165 127/166/151/166 
f 307/167/21/167 126/141/129/141 141/163/149/163 
f 139/159/145/159 153/168/152/168 154/169/153/169 
f 131/158/144/158 147/170/154/170 132/160/146/160 
f 139/159/145/159 155/171/155/171 140/161/147/161 
f 133/162/148/162 147/170/154/170 148/172/156/172 
f 141/163/149/163 155/171/155/171 156/173/157/173 
f 134/164/150/164 148/172/156/172 149/174/158/174 
f 127/166/151/166 81/175/19/175 142/176/159/176 
f 307/177/21/177 141/163/149/163 156/173/157/173 
f 134/164/150/164 150/178/160/178 135/151/137/151 
f 127/166/151/166 143/179/161/179 128/152/138/152 
f 135/151/137/151 151/180/162/180 136/153/139/153 
f 129/154/140/154 143/179/161/179 144/181/163/181 
f 137/155/141/155 151/180/162/180 152/182/164/182 
f 129/154/140/154 145/183/165/183 130/156/142/156 
f 137/155/141/155 153/168/152/168 138/157/143/157 
f 131/158/144/158 145/183/165/183 146/184/166/184 
f 150/178/160/178 166/185/167/185 151/180/162/180 
f 144/181/163/181 158/186/168/186 159/187/169/187 
f 152/182/164/182 166/185/167/185 167/188/170/188 
f 144/181/163/181 160/189/171/189 145/183/165/183 
f 152/182/164/182 168/190/172/190 153/168/152/168 
f 146/184/166/184 160/189/171/189 161/191/173/191 
f 154/169/153/169 168/190/172/190 169/192/174/192 
f 146/184/166/184 162/193/175/193 147/170/154/170 
f 154/169/153/169 170/194/176/194 155/171/155/171 
f 148/172/156/172 162/193/175/193 163/195/177/195 
f 155/171/155/171 171/196/178/196 156/173/157/173 
f 149/174/158/174 163/195/177/195 164/197/179/197 
f 142/176/159/176 81/198/19/198 157/199/180/199 
f 307/200/21/200 156/173/157/173 171/196/178/196 
f 149/174/158/174 165/201/181/201 150/178/160/178 
f 142/176/159/176 158/186/168/186 143/179/161/179 
f 170/194/176/194 184/202/182/202 185/203/183/203 
f 163/195/177/195 177/204/184/204 178/205/185/205 
f 171/196/178/196 185/203/183/203 186/206/186/206 
f 164/197/179/197 178/205/185/205 179/207/187/207 
f 157/199/180/199 81/208/19/208 172/209/188/209 
f 307/210/21/210 171/196/178/196 186/206/186/206 
f 164/197/179/197 180/211/189/211 165/201/181/201 
f 157/199/180/199 173/212/190/212 158/186/168/186 
f 165/201/181/201 181/213/191/213 166/185/167/185 
f 158/186/168/186 174/214/192/214 159/187/169/187 
f 167/188/170/188 181/213/191/213 182/215/193/215 
f 159/187/169/187 175/216/194/216 160/189/171/189 
f 167/188/170/188 183/217/195/217 168/190/172/190 
f 161/191/173/191 175/216/194/216 176/218/196/218 
f 168/190/172/190 184/202/182/202 169/192/174/192 
f 161/191/173/191 177/204/184/204 162/193/175/193 
f 174/214/192/214 188/219/197/219 189/220/198/220 
f 182/215/193/215 196/221/199/221 197/222/200/222 
f 174/214/192/214 190/223/201/223 175/216/194/216 
f 182/215/193/215 198/224/202/224 183/217/195/217 
f 176/218/196/218 190/223/201/223 191/225/203/225 
f 184/202/182/202 198/224/202/224 199/226/204/226 
f 176/218/196/218 192/227/205/227 177/204/184/204 
f 184/202/182/202 200/228/206/228 185/203/183/203 
f 178/205/185/205 192/227/205/227 193/229/207/229 
f 185/203/183/203 201/230/208/230 186/206/186/206 
f 179/207/187/207 193/229/207/229 194/231/209/231 
f 172/209/188/209 81/232/19/232 187/233/210/233 
f 307/234/21/234 186/206/186/206 201/230/208/230 
f 179/207/187/207 195/235/211/235 180/211/189/211 
f 173/212/190/212 187/233/210/233 188/219/197/219 
f 180/211/189/211 196/221/199/221 181/213/191/213 
f 193/229/207/229 207/236/212/236 208/237/213/237 
f 200/228/206/228 216/238/214/238 201/230/208/230 
f 194/231/209/231 208/237/213/237 209/239/215/239 
f 187/233/210/233 81/240/19/240 202/241/216/241 
f 307/242/21/242 201/230/208/230 216/238/214/238 
f 194/231/209/231 210/243/217/243 195/235/211/235 
f 187/233/210/233 203/244/218/244 188/219/197/219 
f 195/235/211/235 211/245/219/245 196/221/199/221 
f 188/219/197/219 204/246/220/246 189/220/198/220 
f 197/222/200/222 211/245/219/245 212/247/221/247 
f 189/220/198/220 205/248/222/248 190/223/201/223 
f 197/222/200/222 213/249/223/249 198/224/202/224 
f 191/225/203/225 205/248/222/248 206/250/224/250 
f 199/226/204/226 213/249/223/249 214/251/225/251 
f 191/225/203/225 207/236/212/236 192/227/205/227 
f 199/226/204/226 215/252/226/252 200/228/206/228 
f 212/247/221/247 226/253/227/253 227/254/228/254 
f 204/246/220/246 220/255/229/255 205/248/222/248 
f 212/247/221/247 228/256/230/256 213/249/223/249 
f 206/250/224/250 220/255/229/255 221/257/231/257 
f 214/251/225/251 228/256/230/256 229/258/232/258 
f 206/250/224/250 222/259/233/259 207/236/212/236 
f 214/251/225/251 230/260/234/260 215/252/226/252 
f 208/237/213/237 222/259/233/259 223/261/235/261 
f 215/252/226/252 231/262/236/262 216/238/214/238 
f 209/239/215/239 223/261/235/261 224/263/237/263 
f 202/241/216/241 81/264/19/264 217/265/238/265 
f 307/266/21/266 216/238/214/238 231/262/236/262 
f 209/239/215/239 225/267/239/267 210/243/217/243 
f 202/241/216/241 218/268/240/268 203/244/218/244 
f 210/243/217/243 226/253/227/253 211/245/219/245 
f 203/244/218/244 219/269/241/269 204/246/220/246 
f 231/262/236/262 245/270/242/270 246/271/243/271 
f 224/263/237/263 238/272/244/272 239/273/245/273 
f 217/265/238/265 81/274/19/274 232/275/246/275 
f 307/276/21/276 231/262/236/262 246/271/243/271 
f 224/263/237/263 240/277/247/277 225/267/239/267 
f 217/265/238/265 233/278/248/278 218/268/240/268 
f 225/267/239/267 241/279/249/279 226/253/227/253 
f 219/269/241/269 233/278/248/278 234/280/250/280 
f 227/254/228/254 241/279/249/279 242/281/251/281 
f 219/269/241/269 235/282/252/282 220/255/229/255 
f 227/254/228/254 243/283/253/283 228/256/230/256 
f 221/257/231/257 235/282/252/282 236/284/254/284 
f 229/258/232/258 243/283/253/283 244/285/255/285 
f 221/257/231/257 237/286/256/286 222/259/233/259 
f 229/258/232/258 245/270/242/270 230/260/234/260 
f 223/261/235/261 237/286/256/286 238/272/244/272 
f 234/280/250/280 250/287/257/287 235/282/252/282 
f 242/281/251/281 258/288/258/288 243/283/253/283 
f 236/284/254/284 250/287/257/287 251/289/259/289 
f 244/285/255/285 258/288/258/288 259/290/260/290 
f 236/284/254/284 252/291/261/291 237/286/256/286 
f 244/285/255/285 260/292/262/292 245/270/242/270 
f 238/272/244/272 252/291/261/291 253/293/263/293 
f 245/270/242/270 261/294/264/294 246/271/243/271 
f 239/273/245/273 253/293/263/293 254/295/265/295 
f 232/275/246/275 81/296/19/296 247/297/266/297 
f 307/298/21/298 246/271/243/271 261/294/264/294 
f 239/273/245/273 255/299/267/299 240/277/247/277 
f 232/275/246/275 248/300/268/300 233/278/248/278 
f 240/277/247/277 256/301/269/301 241/279/249/279 
f 233/278/248/278 249/302/270/302 234/280/250/280 
f 242/281/251/281 256/301/269/301 257/303/271/303 
f 254/295/265/295 268/304/272/304 269/305/273/305 
f 247/297/266/297 81/306/19/306 262/307/274/307 
f 307/308/21/308 261/294/264/294 276/309/275/309 
f 254/295/265/295 270/310/276/310 255/299/267/299 
f 248/300/268/300 262/307/274/307 263/311/277/311 
f 255/299/267/299 271/312/278/312 256/301/269/301 
f 248/300/268/300 264/313/279/313 249/302/270/302 
f 257/303/271/303 271/312/278/312 272/314/280/314 
f 249/302/270/302 265/315/281/315 250/287/257/287 
f 257/303/271/303 273/316/282/316 258/288/258/288 
f 251/289/259/289 265/315/281/315 266/317/283/317 
f 259/290/260/290 273/316/282/316 274/318/284/318 
f 251/289/259/289 267/319/285/319 252/291/261/291 
f 259/290/260/290 275/320/286/320 260/292/262/292 
f 253/293/263/293 267/319/285/319 268/304/272/304 
f 260/292/262/292 276/309/275/309 261/294/264/294 
f 272/314/280/314 288/321/287/321 273/316/282/316 
f 266/317/283/317 280/322/288/322 281/323/289/323 
f 274/318/284/318 288/321/287/321 289/324/290/324 
f 266/317/283/317 282/325/291/325 267/319/285/319 
f 274/318/284/318 290/326/292/326 275/320/286/320 
f 268/304/272/304 282/325/291/325 283/327/293/327 
f 276/309/275/309 290/326/292/326 291/328/294/328 
f 269/305/273/305 283/327/293/327 284/329/295/329 
f 262/307/274/307 81/330/19/330 277/331/296/331 
f 307/332/21/332 276/309/275/309 291/328/294/328 
f 269/305/273/305 285/333/297/333 270/310/276/310 
f 263/311/277/311 277/331/296/331 278/334/298/334 
f 270/310/276/310 286/335/299/335 271/312/278/312 
f 263/311/277/311 279/336/300/336 264/313/279/313 
f 272/314/280/314 286/335/299/335 287/337/301/337 
f 264/313/279/313 280/322/288/322 265/315/281/315 
f 307/338/21/338 291/328/294/328 306/339/302/339 
f 284/329/295/329 300/340/303/340 285/333/297/333 
f 277/331/296/331 293/341/304/341 278/334/298/334 
f 285/333/297/333 301/342/305/342 286/335/299/335 
f 278/334/298/334 294/343/306/343 279/336/300/336 
f 287/337/301/337 301/342/305/342 302/344/307/344 
f 279/336/300/336 295/345/308/345 280/322/288/322 
f 287/337/301/337 303/346/309/346 288/321/287/321 
f 281/323/289/323 295/345/308/345 296/347/310/347 
f 289/324/290/324 303/346/309/346 304/348/311/348 
f 281/323/289/323 297/349/312/349 282/325/291/325 
f 289/324/290/324 305/350/313/350 290/326/292/326 
f 283/327/293/327 297/349/312/349 298/351/314/351 
f 291/328/294/328 305/350/313/350 306/339/302/339 
f 284/329/295/329 298/351/314/351 299/352/315/352 
f 277/331/296/331 81/353/19/353 292/354/316/354 
f 304/348/311/348 319/355/317/355 320/356/318/356 
f 296/347/310/347 313/357/319/357 297/349/312/349 
f 304/348/311/348 321/358/320/358 305/350/313/350 
f 298/351/314/351 313/357/319/357 314/359/321/359 
f 305/350/313/350 322/360/322/360 306/339/302/339 
f 299/352/315/352 314/359/321/359 315/361/323/361 
f 292/354/316/354 81/362/19/362 308/363/324/363 
f 307/364/21/364 306/339/302/339 322/360/322/360 
f 299/352/315/352 316/365/325/365 300/340/303/340 
f 292/354/316/354 309/366/326/366 293/341/304/341 
f 300/340/303/340 317/367/327/367 301/342/305/342 
f 293/341/304/341 310/368/328/368 294/343/306/343 
f 302/344/307/344 317/367/327/367 318/369/329/369 
f 294/343/306/343 311/370/330/370 295/345/308/345 
f 302/344/307/344 319/355/317/355 303/346/309/346 
f 296/347/310/347 311/370/330/370 312/371/331/371 
f 308/363/324/363 324/372/332/372 309/366/326/366 
f 316/365/325/365 332/373/333/373 317/367/327/367 
f 309/366/326/366 325/374/334/374 310/368/328/368 
f 318/369/329/369 332/373/333/373 333/375/335/375 
f 310/368/328/368 326/376/336/376 311/370/330/370 
f 318/369/329/369 334/377/337/377 319/355/317/355 
f 311/370/330/370 327/378/338/378 312/371/331/371 
f 320/356/318/356 334/377/337/377 335/379/339/379 
f 312/371/331/371 328/380/340/380 313/357/319/357 
f 320/356/318/356 336/381/341/381 321/358/320/358 
f 314/359/321/359 328/380/340/380 329/382/342/382 
f 321/358/320/358 337/383/343/383 322/360/322/360 
f 315/361/323/361 329/382/342/382 330/384/344/384 
f 308/363/324/363 81/385/19/385 323/386/345/386 
f 307/387/21/387 322/360/322/360 337/383/343/383 
f 315/361/323/361 331/388/346/388 316/365/325/365 
f 327/378/338/378 343/389/347/389 328/380/340/380 
f 335/379/339/379 351/390/348/390 336/381/341/381 
f 329/382/342/382 343/389/347/389 344/391/349/391 
f 336/381/341/381 352/392/350/392 337/383/343/383 
f 330/384/344/384 344/391/349/391 345/393/351/393 
f 323/386/345/386 81/394/19/394 338/395/352/395 
f 307/396/21/396 337/383/343/383 352/392/350/392 
f 330/384/344/384 346/397/353/397 331/388/346/388 
f 323/386/345/386 339/398/354/398 324/372/332/372 
f 331/388/346/388 347/399/355/399 332/373/333/373 
f 324/372/332/372 340/400/356/400 325/374/334/374 
f 333/375/335/375 347/399/355/399 348/401/357/401 
f 325/374/334/374 341/402/358/402 326/376/336/376 
f 333/375/335/375 349/403/359/403 334/377/337/377 
f 327/378/338/378 341/402/358/402 342/404/360/404 
f 335/379/339/379 349/403/359/403 350/405/361/405 
f 346/397/353/397 362/406/362/406 347/399/355/399 
f 340/400/356/400 354/407/363/407 355/408/364/408 
f 348/401/357/401 362/406/362/406 363/409/365/409 
f 340/400/356/400 356/410/366/410 341/402/358/402 
f 348/401/357/401 364/411/367/411 349/403/359/403 
f 342/404/360/404 356/410/366/410 357/412/368/412 
f 350/405/361/405 364/411/367/411 365/413/369/413 
f 342/404/360/404 358/414/370/414 343/389/347/389 
f 350/405/361/405 366/415/371/415 351/390/348/390 
f 344/391/349/391 358/414/370/414 359/416/372/416 
f 351/390/348/390 367/417/373/417 352/392/350/392 
f 345/393/351/393 359/416/372/416 360/418/374/418 
f 338/395/352/395 81/419/19/419 353/420/375/420 
f 307/421/21/421 352/392/350/392 367/417/373/417 
f 345/393/351/393 361/422/376/422 346/397/353/397 
f 338/395/352/395 354/407/363/407 339/398/354/398 
f 365/423/369/423 381/424/377/424 366/425/371/425 
f 359/426/372/426 373/427/378/427 374/428/379/428 
f 366/425/371/425 382/429/380/429 367/430/373/430 
f 360/431/374/431 374/428/379/428 375/432/381/432 
f 353/433/375/433 81/434/19/434 368/435/382/435 
f 307/436/21/436 367/430/373/430 382/429/380/429 
f 360/431/374/431 376/437/383/437 361/438/376/438 
f 353/433/375/433 369/439/384/439 354/440/363/440 
f 361/438/376/438 377/441/385/441 362/442/362/442 
f 355/443/364/443 369/439/384/439 370/444/386/444 
f 363/445/365/445 377/441/385/441 378/446/387/446 
f 355/443/364/443 371/447/388/447 356/448/366/448 
f 363/445/365/445 379/449/389/449 364/450/367/450 
f 357/451/368/451 371/447/388/447 372/452/390/452 
f 365/423/369/423 379/449/389/449 380/453/391/453 
f 357/451/368/451 373/427/378/427 358/454/370/454 
f 370/444/386/444 384/455/392/455 385/456/393/456 
f 378/446/387/446 392/457/394/457 393/458/395/458 
f 370/444/386/444 386/459/396/459 371/447/388/447 
f 378/446/387/446 394/460/397/460 379/449/389/449 
f 372/452/390/452 386/459/396/459 387/461/398/461 
f 380/453/391/453 394/460/397/460 395/462/399/462 
f 372/452/390/452 388/463/400/463 373/427/378/427 
f 380/453/391/453 396/464/401/464 381/424/377/424 
f 374/428/379/428 388/463/400/463 389/465/402/465 
f 381/424/377/424 397/466/403/466 382/429/380/429 
f 375/432/381/432 389/465/402/465 390/467/404/467 
f 368/435/382/435 81/468/19/468 383/469/405/469 
f 307/470/21/470 382/429/380/429 397/466/403/466 
f 375/432/381/432 391/471/406/471 376/437/383/437 
f 368/435/382/435 384/455/392/455 369/439/384/439 
f 376/437/383/437 392/457/394/457 377/441/385/441 
f 389/465/402/465 403/472/407/472 404/473/408/473 
f 396/464/401/464 412/474/409/474 397/466/403/466 
f 390/467/404/467 404/473/408/473 405/475/410/475 
f 383/469/405/469 81/476/19/476 398/477/411/477 
f 307/478/21/478 397/466/403/466 412/474/409/474 
f 390/467/404/467 406/479/412/479 391/471/406/471 
f 384/455/392/455 398/477/411/477 399/480/413/480 
f 391/471/406/471 407/481/414/481 392/457/394/457 
f 384/455/392/455 400/482/415/482 385/456/393/456 
f 393/458/395/458 407/481/414/481 408/483/416/483 
f 385/456/393/456 401/484/417/484 386/459/396/459 
f 393/458/395/458 409/485/418/485 394/460/397/460 
f 387/461/398/461 401/484/417/484 402/486/419/486 
f 395/462/399/462 409/485/418/485 410/487/420/487 
f 387/461/398/461 403/472/407/472 388/463/400/463 
f 396/464/401/464 410/487/420/487 411/488/421/488 
f 408/483/416/483 422/489/422/489 423/490/423/490 
f 400/482/415/482 416/491/424/491 401/484/417/484 
f 408/483/416/483 424/492/425/492 409/485/418/485 
f 402/486/419/486 416/491/424/491 417/493/426/493 
f 410/487/420/487 424/492/425/492 425/494/427/494 
f 402/486/419/486 418/495/428/495 403/472/407/472 
f 410/487/420/487 426/496/429/496 411/488/421/488 
f 404/473/408/473 418/495/428/495 419/497/430/497 
f 411/488/421/488 427/498/431/498 412/474/409/474 
f 405/475/410/475 419/497/430/497 420/499/432/499 
f 398/477/411/477 81/500/19/500 413/501/433/501 
f 307/502/21/502 412/474/409/474 427/498/431/498 
f 405/475/410/475 421/503/434/503 406/479/412/479 
f 398/477/411/477 414/504/435/504 399/480/413/480 
f 406/479/412/479 422/489/422/489 407/481/414/481 
f 400/482/415/482 414/504/435/504 415/505/436/505 
f 426/496/429/496 442/506/437/506 427/498/431/498 
f 420/499/432/499 434/507/438/507 435/508/439/508 
f 413/501/433/501 81/509/19/509 428/510/440/510 
f 307/511/21/511 427/498/431/498 442/506/437/506 
f 420/499/432/499 436/512/441/512 421/503/434/503 
f 413/501/433/501 429/513/442/513 414/504/435/504 
f 421/503/434/503 437/514/443/514 422/489/422/489 
f 415/505/436/505 429/513/442/513 430/515/444/515 
f 423/490/423/490 437/514/443/514 438/516/445/516 
f 415/505/436/505 431/517/446/517 416/491/424/491 
f 423/490/423/490 439/518/447/518 424/492/425/492 
f 417/493/426/493 431/517/446/517 432/519/448/519 
f 425/494/427/494 439/518/447/518 440/520/449/520 
f 417/493/426/493 433/521/450/521 418/495/428/495 
f 425/494/427/494 441/522/451/522 426/496/429/496 
f 419/497/430/497 433/521/450/521 434/507/438/507 
f 438/516/445/516 454/523/452/523 439/518/447/518 
f 432/519/448/519 446/524/453/524 447/525/454/525 
f 440/520/449/520 454/523/452/523 455/526/455/526 
f 432/519/448/519 448/527/456/527 433/521/450/521 
f 440/520/449/520 456/528/457/528 441/522/451/522 
f 434/507/438/507 448/527/456/527 449/529/458/529 
f 441/522/451/522 457/530/459/530 442/506/437/506 
f 435/508/439/508 449/529/458/529 450/531/460/531 
f 428/510/440/510 81/532/19/532 443/533/461/533 
f 307/534/21/534 442/506/437/506 457/530/459/530 
f 435/508/439/508 451/535/462/535 436/512/441/512 
f 429/513/442/513 443/533/461/533 444/536/463/536 
f 436/512/441/512 452/537/464/537 437/514/443/514 
f 429/513/442/513 445/538/465/538 430/515/444/515 
f 438/516/445/516 452/537/464/537 453/539/466/539 
f 430/515/444/515 446/524/453/524 431/517/446/517 
f 443/533/461/533 81/540/19/540 458/541/467/541 
f 307/542/21/542 457/530/459/530 472/543/468/543 
f 450/531/460/531 466/544/469/544 451/535/462/535 
f 443/533/461/533 459/545/470/545 444/536/463/536 
f 451/535/462/535 467/546/471/546 452/537/464/537 
f 445/538/465/538 459/545/470/545 460/547/472/547 
f 453/539/466/539 467/546/471/546 468/548/473/548 
f 445/538/465/538 461/549/474/549 446/524/453/524 
f 453/539/466/539 469/550/475/550 454/523/452/523 
f 447/525/454/525 461/549/474/549 462/551/476/551 
f 455/526/455/526 469/550/475/550 470/552/477/552 
f 447/525/454/525 463/553/478/553 448/527/456/527 
f 455/526/455/526 471/554/479/554 456/528/457/528 
f 449/529/458/529 463/553/478/553 464/555/480/555 
f 457/530/459/530 471/554/479/554 472/543/468/543 
f 450/531/460/531 464/555/480/555 465/556/481/556 
f 462/551/476/551 475/31/31/31 1/3/3/3 
f 470/552/477/552 478/2/2/2 479/7/7/7 
f 463/553/478/553 1/3/3/3 476/8/8/8 
f 470/552/477/552 480/11/11/11 471/554/479/554 
f 464/555/480/555 476/8/8/8 2/12/12/12 
f 471/554/479/554 481/15/15/15 472/543/468/543 
f 465/556/481/556 2/12/12/12 3/17/17/17 
f 458/541/467/541 81/557/19/557 473/18/18/18 
f 307/558/21/558 472/543/468/543 481/15/15/15 
f 465/556/481/556 4/23/23/23 466/544/469/544 
f 459/545/470/545 473/18/18/18 474/24/24/24 
f 466/544/469/544 477/27/27/27 467/546/471/546 
f 460/547/472/547 474/24/24/24 0/28/28/28 
f 467/546/471/546 5/0/0/0 468/548/473/548 
f 461/549/474/549 0/28/28/28 475/31/31/31 
f 468/548/473/548 478/2/2/2 469/550/475/550 
f 5/0/0/0 16/30/30/30 17/1/1/1 
f 1/3/3/3 475/31/31/31 9/4/4/4 
f 478/2/2/2 17/1/1/1 18/6/6/6 
f 476/8/8/8 1/3/3/3 10/5/5/5 
f 479/7/7/7 18/6/6/6 19/10/10/10 
f 2/12/12/12 476/8/8/8 11/9/9/9 
f 480/11/11/11 19/10/10/10 20/14/14/14 
f 2/12/12/12 12/13/13/13 13/16/16/16 
f 3/17/17/17 13/16/16/16 14/22/22/22 
f 474/24/24/24 473/18/18/18 6/20/20/20 
f 4/23/23/23 14/22/22/22 15/26/26/26 
f 0/28/28/28 474/24/24/24 7/25/25/25 
f 477/27/27/27 15/26/26/26 16/30/30/30 
f 475/31/31/31 0/28/28/28 8/29/29/29 
f 15/26/26/26 30/47/45/47 31/32/32/32 
f 8/29/29/29 23/48/46/48 24/33/33/33 
f 16/30/30/30 31/32/32/32 32/34/34/34 
f 9/4/4/4 24/33/33/33 25/35/35/35 
f 18/6/6/6 17/1/1/1 32/34/34/34 
f 10/5/5/5 25/35/35/35 26/37/37/37 
f 19/10/10/10 18/6/6/6 33/36/36/36 
f 12/13/13/13 11/9/9/9 26/37/37/37 
f 19/10/10/10 34/38/38/38 35/40/40/40 
f 12/13/13/13 27/39/39/39 28/41/41/41 
f 13/16/16/16 28/41/41/41 29/45/43/45 
f 6/20/20/20 21/43/42/43 22/46/44/46 
f 14/22/22/22 29/45/43/45 30/47/45/47 
f 7/25/25/25 22/46/44/46 23/48/46/48 
f 34/38/38/38 49/64/60/64 50/49/47/49 
f 27/39/39/39 42/65/61/65 43/50/48/50 
f 29/45/43/45 28/41/41/41 43/50/48/50 
f 21/43/42/43 36/52/49/52 37/55/51/55 
f 29/45/43/45 44/54/50/54 45/56/52/56 
f 22/46/44/46 37/55/51/55 38/57/53/57 
f 31/32/32/32 30/47/45/47 45/56/52/56 
f 23/48/46/48 38/57/53/57 39/59/55/59 
f 32/34/34/34 31/32/32/32 46/58/54/58 
f 24/33/33/33 39/59/55/59 40/61/57/61 
f 33/36/36/36 32/34/34/34 47/60/56/60 
f 25/35/35/35 40/61/57/61 41/63/59/63 
f 33/36/36/36 48/62/58/62 49/64/60/64 
f 26/37/37/37 41/63/59/63 42/65/61/65 
f 38/57/53/57 53/81/75/81 54/66/62/66 
f 46/58/54/58 61/82/76/82 62/67/63/67 
f 39/59/55/59 54/66/62/66 55/68/64/68 
f 47/60/56/60 62/67/63/67 63/69/65/69 
f 40/61/57/61 55/68/64/68 56/70/66/70 
f 48/62/58/62 63/69/65/69 64/71/67/71 
f 42/65/61/65 41/63/59/63 56/70/66/70 
f 49/64/60/64 64/71/67/71 65/73/69/73 
f 43/50/48/50 42/65/61/65 57/72/68/72 
f 43/50/48/50 58/74/70/74 59/78/72/78 
f 36/52/49/52 51/76/71/76 52/79/73/79 
f 44/54/50/54 59/78/72/78 60/80/74/80 
f 37/55/51/55 52/79/73/79 53/81/75/81 
f 46/58/54/58 45/56/52/56 60/80/74/80 
f 58/74/70/74 57/72/68/72 72/83/77/83 
f 58/74/70/74 73/84/78/84 74/89/81/89 
f 51/76/71/76 66/86/79/86 67/90/82/90 
f 59/78/72/78 74/89/81/89 75/91/83/91 
f 52/79/73/79 67/90/82/90 68/92/84/92 
f 61/82/76/82 60/80/74/80 75/91/83/91 
f 53/81/75/81 68/92/84/92 69/94/86/94 
f 61/82/76/82 76/93/85/93 77/95/87/95 
f 55/68/64/68 54/66/62/66 69/94/86/94 
f 62/67/63/67 77/95/87/95 78/97/89/97 
f 55/68/64/68 70/96/88/96 71/98/90/98 
f 64/71/67/71 63/69/65/69 78/97/89/97 
f 57/72/68/72 56/70/66/70 71/98/90/98 
f 64/71/67/71 79/99/91/99 80/88/80/88 
f 76/93/85/93 92/116/106/116 93/100/92/100 
f 70/96/88/96 69/94/86/94 85/101/93/101 
f 77/95/87/95 93/100/92/100 94/103/95/103 
f 70/96/88/96 86/102/94/102 87/104/96/104 
f 78/97/89/97 94/103/95/103 95/105/97/105 
f 72/83/77/83 71/98/90/98 87/104/96/104 
f 80/88/80/88 79/99/91/99 95/105/97/105 
f 73/84/78/84 72/83/77/83 88/106/98/106 
f 73/84/78/84 89/108/100/108 90/112/102/112 
f 66/86/79/86 82/110/101/110 83/113/103/113 
f 74/89/81/89 90/112/102/112 91/114/104/114 
f 67/90/82/90 83/113/103/113 84/115/105/115 
f 76/93/85/93 75/91/83/91 91/114/104/114 
f 68/92/84/92 84/115/105/115 85/101/93/101 
f 89/108/100/108 104/133/121/133 105/121/109/121 
f 83/113/103/113 82/110/101/110 97/118/107/118 
f 90/112/102/112 105/121/109/121 106/123/111/123 
f 83/113/103/113 98/122/110/122 99/124/112/124 
f 92/116/106/116 91/114/104/114 106/123/111/123 
f 84/115/105/115 99/124/112/124 100/126/114/126 
f 92/116/106/116 107/125/113/125 108/127/115/127 
f 86/102/94/102 85/101/93/101 100/126/114/126 
f 94/103/95/103 93/100/92/100 108/127/115/127 
f 86/102/94/102 101/128/116/128 102/130/118/130 
f 95/105/97/105 94/103/95/103 109/129/117/129 
f 88/106/98/106 87/104/96/104 102/130/118/130 
f 95/105/97/105 110/131/119/131 111/120/108/120 
f 89/108/100/108 88/106/98/106 103/132/120/132 
f 101/128/116/128 100/126/114/126 115/134/122/134 
f 109/129/117/129 108/127/115/127 123/136/124/136 
f 101/128/116/128 116/135/123/135 117/138/126/138 
f 109/129/117/129 124/137/125/137 125/139/127/139 
f 103/132/120/132 102/130/118/130 117/138/126/138 
f 110/131/119/131 125/139/127/139 126/141/129/141 
f 104/133/121/133 103/132/120/132 118/140/128/140 
f 104/133/121/133 119/142/130/142 120/146/132/146 
f 98/122/110/122 97/118/107/118 112/144/131/144 
f 105/121/109/121 120/146/132/146 121/148/134/148 
f 98/122/110/122 113/147/133/147 114/149/135/149 
f 107/125/113/125 106/123/111/123 121/148/134/148 
f 99/124/112/124 114/149/135/149 115/134/122/134 
f 107/125/113/125 122/150/136/150 123/136/124/136 
f 119/142/130/142 134/164/150/164 135/151/137/151 
f 112/144/131/144 127/166/151/166 128/152/138/152 
f 120/146/132/146 135/151/137/151 136/153/139/153 
f 113/147/133/147 128/152/138/152 129/154/140/154 
f 122/150/136/150 121/148/134/148 136/153/139/153 
f 114/149/135/149 129/154/140/154 130/156/142/156 
f 122/150/136/150 137/155/141/155 138/157/143/157 
f 116/135/123/135 115/134/122/134 130/156/142/156 
f 124/137/125/137 123/136/124/136 138/157/143/157 
f 116/135/123/135 131/158/144/158 132/160/146/160 
f 124/137/125/137 139/159/145/159 140/161/147/161 
f 118/140/128/140 117/138/126/138 132/160/146/160 
f 125/139/127/139 140/161/147/161 141/163/149/163 
f 119/142/130/142 118/140/128/140 133/162/148/162 
f 139/159/145/159 138/157/143/157 153/168/152/168 
f 131/158/144/158 146/184/166/184 147/170/154/170 
f 139/159/145/159 154/169/153/169 155/171/155/171 
f 133/162/148/162 132/160/146/160 147/170/154/170 
f 141/163/149/163 140/161/147/161 155/171/155/171 
f 134/164/150/164 133/162/148/162 148/172/156/172 
f 134/164/150/164 149/174/158/174 150/178/160/178 
f 127/166/151/166 142/176/159/176 143/179/161/179 
f 135/151/137/151 150/178/160/178 151/180/162/180 
f 129/154/140/154 128/152/138/152 143/179/161/179 
f 137/155/141/155 136/153/139/153 151/180/162/180 
f 129/154/140/154 144/181/163/181 145/183/165/183 
f 137/155/141/155 152/182/164/182 153/168/152/168 
f 131/158/144/158 130/156/142/156 145/183/165/183 
f 150/178/160/178 165/201/181/201 166/185/167/185 
f 144/181/163/181 143/179/161/179 158/186/168/186 
f 152/182/164/182 151/180/162/180 166/185/167/185 
f 144/181/163/181 159/187/169/187 160/189/171/189 
f 152/182/164/182 167/188/170/188 168/190/172/190 
f 146/184/166/184 145/183/165/183 160/189/171/189 
f 154/169/153/169 153/168/152/168 168/190/172/190 
f 146/184/166/184 161/191/173/191 162/193/175/193 
f 154/169/153/169 169/192/174/192 170/194/176/194 
f 148/172/156/172 147/170/154/170 162/193/175/193 
f 155/171/155/171 170/194/176/194 171/196/178/196 
f 149/174/158/174 148/172/156/172 163/195/177/195 
f 149/174/158/174 164/197/179/197 165/201/181/201 
f 142/176/159/176 157/199/180/199 158/186/168/186 
f 170/194/176/194 169/192/174/192 184/202/182/202 
f 163/195/177/195 162/193/175/193 177/204/184/204 
f 171/196/178/196 170/194/176/194 185/203/183/203 
f 164/197/179/197 163/195/177/195 178/205/185/205 
f 164/197/179/197 179/207/187/207 180/211/189/211 
f 157/199/180/199 172/209/188/209 173/212/190/212 
f 165/201/181/201 180/211/189/211 181/213/191/213 
f 158/186/168/186 173/212/190/212 174/214/192/214 
f 167/188/170/188 166/185/167/185 181/213/191/213 
f 159/187/169/187 174/214/192/214 175/216/194/216 
f 167/188/170/188 182/215/193/215 183/217/195/217 
f 161/191/173/191 160/189/171/189 175/216/194/216 
f 168/190/172/190 183/217/195/217 184/202/182/202 
f 161/191/173/191 176/218/196/218 177/204/184/204 
f 174/214/192/214 173/212/190/212 188/219/197/219 
f 182/215/193/215 181/213/191/213 196/221/199/221 
f 174/214/192/214 189/220/198/220 190/223/201/223 
f 182/215/193/215 197/222/200/222 198/224/202/224 
f 176/218/196/218 175/216/194/216 190/223/201/223 
f 184/202/182/202 183/217/195/217 198/224/202/224 
f 176/218/196/218 191/225/203/225 192/227/205/227 
f 184/202/182/202 199/226/204/226 200/228/206/228 
f 178/205/185/205 177/204/184/204 192/227/205/227 
f 185/203/183/203 200/228/206/228 201/230/208/230 
f 179/207/187/207 178/205/185/205 193/229/207/229 
f 179/207/187/207 194/231/209/231 195/235/211/235 
f 173/212/190/212 172/209/188/209 187/233/210/233 
f 180/211/189/211 195/235/211/235 196/221/199/221 
f 193/229/207/229 192/227/205/227 207/236/212/236 
f 200/228/206/228 215/252/226/252 216/238/214/238 
f 194/231/209/231 193/229/207/229 208/237/213/237 
f 194/231/209/231 209/239/215/239 210/243/217/243 
f 187/233/210/233 202/241/216/241 203/244/218/244 
f 195/235/211/235 210/243/217/243 211/245/219/245 
f 188/219/197/219 203/244/218/244 204/246/220/246 
f 197/222/200/222 196/221/199/221 211/245/219/245 
f 189/220/198/220 204/246/220/246 205/248/222/248 
f 197/222/200/222 212/247/221/247 213/249/223/249 
f 191/225/203/225 190/223/201/223 205/248/222/248 
f 199/226/204/226 198/224/202/224 213/249/223/249 
f 191/225/203/225 206/250/224/250 207/236/212/236 
f 199/226/204/226 214/251/225/251 215/252/226/252 
f 212/247/221/247 211/245/219/245 226/253/227/253 
f 204/246/220/246 219/269/241/269 220/255/229/255 
f 212/247/221/247 227/254/228/254 228/256/230/256 
f 206/250/224/250 205/248/222/248 220/255/229/255 
f 214/251/225/251 213/249/223/249 228/256/230/256 
f 206/250/224/250 221/257/231/257 222/259/233/259 
f 214/251/225/251 229/258/232/258 230/260/234/260 
f 208/237/213/237 207/236/212/236 222/259/233/259 
f 215/252/226/252 230/260/234/260 231/262/236/262 
f 209/239/215/239 208/237/213/237 223/261/235/261 
f 209/239/215/239 224/263/237/263 225/267/239/267 
f 202/241/216/241 217/265/238/265 218/268/240/268 
f 210/243/217/243 225/267/239/267 226/253/227/253 
f 203/244/218/244 218/268/240/268 219/269/241/269 
f 231/262/236/262 230/260/234/260 245/270/242/270 
f 224/263/237/263 223/261/235/261 238/272/244/272 
f 224/263/237/263 239/273/245/273 240/277/247/277 
f 217/265/238/265 232/275/246/275 233/278/248/278 
f 225/267/239/267 240/277/247/277 241/279/249/279 
f 219/269/241/269 218/268/240/268 233/278/248/278 
f 227/254/228/254 226/253/227/253 241/279/249/279 
f 219/269/241/269 234/280/250/280 235/282/252/282 
f 227/254/228/254 242/281/251/281 243/283/253/283 
f 221/257/231/257 220/255/229/255 235/282/252/282 
f 229/258/232/258 228/256/230/256 243/283/253/283 
f 221/257/231/257 236/284/254/284 237/286/256/286 
f 229/258/232/258 244/285/255/285 245/270/242/270 
f 223/261/235/261 222/259/233/259 237/286/256/286 
f 234/280/250/280 249/302/270/302 250/287/257/287 
f 242/281/251/281 257/303/271/303 258/288/258/288 
f 236/284/254/284 235/282/252/282 250/287/257/287 
f 244/285/255/285 243/283/253/283 258/288/258/288 
f 236/284/254/284 251/289/259/289 252/291/261/291 
f 244/285/255/285 259/290/260/290 260/292/262/292 
f 238/272/244/272 237/286/256/286 252/291/261/291 
f 245/270/242/270 260/292/262/292 261/294/264/294 
f 239/273/245/273 238/272/244/272 253/293/263/293 
f 239/273/245/273 254/295/265/295 255/299/267/299 
f 232/275/246/275 247/297/266/297 248/300/268/300 
f 240/277/247/277 255/299/267/299 256/301/269/301 
f 233/278/248/278 248/300/268/300 249/302/270/302 
f 242/281/251/281 241/279/249/279 256/301/269/301 
f 254/295/265/295 253/293/263/293 268/304/272/304 
f 254/295/265/295 269/305/273/305 270/310/276/310 
f 248/300/268/300 247/297/266/297 262/307/274/307 
f 255/299/267/299 270/310/276/310 271/312/278/312 
f 248/300/268/300 263/311/277/311 264/313/279/313 
f 257/303/271/303 256/301/269/301 271/312/278/312 
f 249/302/270/302 264/313/279/313 265/315/281/315 
f 257/303/271/303 272/314/280/314 273/316/282/316 
f 251/289/259/289 250/287/257/287 265/315/281/315 
f 259/290/260/290 258/288/258/288 273/316/282/316 
f 251/289/259/289 266/317/283/317 267/319/285/319 
f 259/290/260/290 274/318/284/318 275/320/286/320 
f 253/293/263/293 252/291/261/291 267/319/285/319 
f 260/292/262/292 275/320/286/320 276/309/275/309 
f 272/314/280/314 287/337/301/337 288/321/287/321 
f 266/317/283/317 265/315/281/315 280/322/288/322 
f 274/318/284/318 273/316/282/316 288/321/287/321 
f 266/317/283/317 281/323/289/323 282/325/291/325 
f 274/318/284/318 289/324/290/324 290/326/292/326 
f 268/304/272/304 267/319/285/319 282/325/291/325 
f 276/309/275/309 275/320/286/320 290/326/292/326 
f 269/305/273/305 268/304/272/304 283/327/293/327 
f 269/305/273/305 284/329/295/329 285/333/297/333 
f 263/311/277/311 262/307/274/307 277/331/296/331 
f 270/310/276/310 285/333/297/333 286/335/299/335 
f 263/311/277/311 278/334/298/334 279/336/300/336 
f 272/314/280/314 271/312/278/312 286/335/299/335 
f 264/313/279/313 279/336/300/336 280/322/288/322 
f 284/329/295/329 299/352/315/352 300/340/303/340 
f 277/331/296/331 292/354/316/354 293/341/304/341 
f 285/333/297/333 300/340/303/340 301/342/305/342 
f 278/334/298/334 293/341/304/341 294/343/306/343 
f 287/337/301/337 286/335/299/335 301/342/305/342 
f 279/336/300/336 294/343/306/343 295/345/308/345 
f 287/337/301/337 302/344/307/344 303/346/309/346 
f 281/323/289/323 280/322/288/322 295/345/308/345 
f 289/324/290/324 288/321/287/321 303/346/309/346 
f 281/323/289/323 296/347/310/347 297/349/312/349 
f 289/324/290/324 304/348/311/348 305/350/313/350 
f 283/327/293/327 282/325/291/325 297/349/312/349 
f 291/328/294/328 290/326/292/326 305/350/313/350 
f 284/329/295/329 283/327/293/327 298/351/314/351 
f 304/348/311/348 303/346/309/346 319/355/317/355 
f 296/347/310/347 312/371/331/371 313/357/319/357 
f 304/348/311/348 320/356/318/356 321/358/320/358 
f 298/351/314/351 297/349/312/349 313/357/319/357 
f 305/350/313/350 321/358/320/358 322/360/322/360 
f 299/352/315/352 298/351/314/351 314/359/321/359 
f 299/352/315/352 315/361/323/361 316/365/325/365 
f 292/354/316/354 308/363/324/363 309/366/326/366 
f 300/340/303/340 316/365/325/365 317/367/327/367 
f 293/341/304/341 309/366/326/366 310/368/328/368 
f 302/344/307/344 301/342/305/342 317/367/327/367 
f 294/343/306/343 310/368/328/368 311/370/330/370 
f 302/344/307/344 318/369/329/369 319/355/317/355 
f 296/347/310/347 295/345/308/345 311/370/330/370 
f 308/363/324/363 323/386/345/386 324/372/332/372 
f 316/365/325/365 331/388/346/388 332/373/333/373 
f 309/366/326/366 324/372/332/372 325/374/334/374 
f 318/369/329/369 317/367/327/367 332/373/333/373 
f 310/368/328/368 325/374/334/374 326/376/336/376 
f 318/369/329/369 333/375/335/375 334/377/337/377 
f 311/370/330/370 326/376/336/376 327/378/338/378 
f 320/356/318/356 319/355/317/355 334/377/337/377 
f 312/371/331/371 327/378/338/378 328/380/340/380 
f 320/356/318/356 335/379/339/379 336/381/341/381 
f 314/359/321/359 313/357/319/357 328/380/340/380 
f 321/358/320/358 336/381/341/381 337/383/343/383 
f 315/361/323/361 314/359/321/359 329/382/342/382 
f 315/361/323/361 330/384/344/384 331/388/346/388 
f 327/378/338/378 342/404/360/404 343/389/347/389 
f 335/379/339/379 350/405/361/405 351/390/348/390 
f 329/382/342/382 328/380/340/380 343/389/347/389 
f 336/381/341/381 351/390/348/390 352/392/350/392 
f 330/384/344/384 329/382/342/382 344/391/349/391 
f 330/384/344/384 345/393/351/393 346/397/353/397 
f 323/386/345/386 338/395/352/395 339/398/354/398 
f 331/388/346/388 346/397/353/397 347/399/355/399 
f 324/372/332/372 339/398/354/398 340/400/356/400 
f 333/375/335/375 332/373/333/373 347/399/355/399 
f 325/374/334/374 340/400/356/400 341/402/358/402 
f 333/375/335/375 348/401/357/401 349/403/359/403 
f 327/378/338/378 326/376/336/376 341/402/358/402 
f 335/379/339/379 334/377/337/377 349/403/359/403 
f 346/397/353/397 361/422/376/422 362/406/362/406 
f 340/400/356/400 339/398/354/398 354/407/363/407 
f 348/401/357/401 347/399/355/399 362/406/362/406 
f 340/400/356/400 355/408/364/408 356/410/366/410 
f 348/401/357/401 363/409/365/409 364/411/367/411 
f 342/404/360/404 341/402/358/402 356/410/366/410 
f 350/405/361/405 349/403/359/403 364/411/367/411 
f 342/404/360/404 357/412/368/412 358/414/370/414 
f 350/405/361/405 365/413/369/413 366/415/371/415 
f 344/391/349/391 343/389/347/389 358/414/370/414 
f 351/390/348/390 366/415/371/415 367/417/373/417 
f 345/393/351/393 344/391/349/391 359/416/372/416 
f 345/393/351/393 360/418/374/418 361/422/376/422 
f 338/395/352/395 353/420/375/420 354/407/363/407 
f 365/423/369/423 380/453/391/453 381/424/377/424 
f 359/426/372/426 358/454/370/454 373/427/378/427 
f 366/425/371/425 381/424/377/424 382/429/380/429 
f 360/431/374/431 359/426/372/426 374/428/379/428 
f 360/431/374/431 375/432/381/432 376/437/383/437 
f 353/433/375/433 368/435/382/435 369/439/384/439 
f 361/438/376/438 376/437/383/437 377/441/385/441 
f 355/443/364/443 354/440/363/440 369/439/384/439 
f 363/445/365/445 362/442/362/442 377/441/385/441 
f 355/443/364/443 370/444/386/444 371/447/388/447 
f 363/445/365/445 378/446/387/446 379/449/389/449 
f 357/451/368/451 356/448/366/448 371/447/388/447 
f 365/423/369/423 364/450/367/450 379/449/389/449 
f 357/451/368/451 372/452/390/452 373/427/378/427 
f 370/444/386/444 369/439/384/439 384/455/392/455 
f 378/446/387/446 377/441/385/441 392/457/394/457 
f 370/444/386/444 385/456/393/456 386/459/396/459 
f 378/446/387/446 393/458/395/458 394/460/397/460 
f 372/452/390/452 371/447/388/447 386/459/396/459 
f 380/453/391/453 379/449/389/449 394/460/397/460 
f 372/452/390/452 387/461/398/461 388/463/400/463 
f 380/453/391/453 395/462/399/462 396/464/401/464 
f 374/428/379/428 373/427/378/427 388/463/400/463 
f 381/424/377/424 396/464/401/464 397/466/403/466 
f 375/432/381/432 374/428/379/428 389/465/402/465 
f 375/432/381/432 390/467/404/467 391/471/406/471 
f 368/435/382/435 383/469/405/469 384/455/392/455 
f 376/437/383/437 391/471/406/471 392/457/394/457 
f 389/465/402/465 388/463/400/463 403/472/407/472 
f 396/464/401/464 411/488/421/488 412/474/409/474 
f 390/467/404/467 389/465/402/465 404/473/408/473 
f 390/467/404/467 405/475/410/475 406/479/412/479 
f 384/455/392/455 383/469/405/469 398/477/411/477 
f 391/471/406/471 406/479/412/479 407/481/414/481 
f 384/455/392/455 399/480/413/480 400/482/415/482 
f 393/458/395/458 392/457/394/457 407/481/414/481 
f 385/456/393/456 400/482/415/482 401/484/417/484 
f 393/458/395/458 408/483/416/483 409/485/418/485 
f 387/461/398/461 386/459/396/459 401/484/417/484 
f 395/462/399/462 394/460/397/460 409/485/418/485 
f 387/461/398/461 402/486/419/486 403/472/407/472 
f 396/464/401/464 395/462/399/462 410/487/420/487 
f 408/483/416/483 407/481/414/481 422/489/422/489 
f 400/482/415/482 415/505/436/505 416/491/424/491 
f 408/483/416/483 423/490/423/490 424/492/425/492 
f 402/486/419/486 401/484/417/484 416/491/424/491 
f 410/487/420/487 409/485/418/485 424/492/425/492 
f 402/486/419/486 417/493/426/493 418/495/428/495 
f 410/487/420/487 425/494/427/494 426/496/429/496 
f 404/473/408/473 403/472/407/472 418/495/428/495 
f 411/488/421/488 426/496/429/496 427/498/431/498 
f 405/475/410/475 404/473/408/473 419/497/430/497 
f 405/475/410/475 420/499/432/499 421/503/434/503 
f 398/477/411/477 413/501/433/501 414/504/435/504 
f 406/479/412/479 421/503/434/503 422/489/422/489 
f 400/482/415/482 399/480/413/480 414/504/435/504 
f 426/496/429/496 441/522/451/522 442/506/437/506 
f 420/499/432/499 419/497/430/497 434/507/438/507 
f 420/499/432/499 435/508/439/508 436/512/441/512 
f 413/501/433/501 428/510/440/510 429/513/442/513 
f 421/503/434/503 436/512/441/512 437/514/443/514 
f 415/505/436/505 414/504/435/504 429/513/442/513 
f 423/490/423/490 422/489/422/489 437/514/443/514 
f 415/505/436/505 430/515/444/515 431/517/446/517 
f 423/490/423/490 438/516/445/516 439/518/447/518 
f 417/493/426/493 416/491/424/491 431/517/446/517 
f 425/494/427/494 424/492/425/492 439/518/447/518 
f 417/493/426/493 432/519/448/519 433/521/450/521 
f 425/494/427/494 440/520/449/520 441/522/451/522 
f 419/497/430/497 418/495/428/495 433/521/450/521 
f 438/516/445/516 453/539/466/539 454/523/452/523 
f 432/519/448/519 431/517/446/517 446/524/453/524 
f 440/520/449/520 439/518/447/518 454/523/452/523 
f 432/519/448/519 447/525/454/525 448/527/456/527 
f 440/520/449/520 455/526/455/526 456/528/457/528 
f 434/507/438/507 433/521/450/521 448/527/456/527 
f 441/522/451/522 456/528/457/528 457/530/459/530 
f 435/508/439/508 434/507/438/507 449/529/458/529 
f 435/508/439/508 450/531/460/531 451/535/462/535 
f 429/513/442/513 428/510/440/510 443/533/461/533 
f 436/512/441/512 451/535/462/535 452/537/464/537 
f 429/513/442/513 444/536/463/536 445/538/465/538 
f 438/516/445/516 437/514/443/514 452/537/464/537 
f 430/515/444/515 445/538/465/538 446/524/453/524 
f 450/531/460/531 465/556/481/556 466/544/469/544 
f 443/533/461/533 458/541/467/541 459/545/470/545 
f 451/535/462/535 466/544/469/544 467/546/471/546 
f 445/538/465/538 444/536/463/536 459/545/470/545 
f 453/539/466/539 452/537/464/537 467/546/471/546 
f 445/538/465/538 460/547/472/547 461/549/474/549 
f 453/539/466/539 468/548/473/548 469/550/475/550 
f 447/525/454/525 446/524/453/524 461/549/474/549 
f 455/526/455/526 454/523/452/523 469/550/475/550 
f 447/525/454/525 462/551/476/551 463/553/478/553 
f 455/526/455/526 470/552/477/552 471/554/479/554 
f 449/529/458/529 448/527/456/527 463/553/478/553 
f 457/530/459/530 456/528/457/528 471/554/479/554 
f 450/531/460/531 449/529/458/529 464/555/480/555 
f 462/551/476/551 461/549/474/549 475/31/31/31 
f 470/552/477/552 469/550/475/550 478/2/2/2 
f 463/553/478/553 462/551/476/551 1/3/3/3 
f 470/552/477/552 479/7/7/7 480/11/11/11 
f 464/555/480/555 463/553/478/553 476/8/8/8 
f 471/554/479/554 480/11/11/11 481/15/15/15 
f 465/556/481/556 464/555/480/555 2/12/12/12 
f 465/556/481/556 3/17/17/17 4/23/23/23 
f 459/545/470/545 458/541/467/541 473/18/18/18 
f 466/544/469/544 4/23/23/23 477/27/27/27 
f 460/547/472/547 459/545/470/545 474/24/24/24 
f 467/546/471/546 477/27/27/27 5/0/0/0 
f 461/549/474/549 460/547/472/547 0/28/28/28 
f 468/548/473/548 5/0/0/0 478/2/2/2 
