v -1.0 -1.0 -1.0
v -1.0 -1.0 1.0
v -1.0 1.0 -1.0
v -1.0 1.0 1.0
v 1.0 -1.0 -1.0
v 1.0 -1.0 1.0
v 1.0 1.0 -1.0
v 1.0 1.0 1.0
vt 0.625 0.0
vt 0.375 0.25
vt 0.375 0.0
vt 0.625 0.25
vt 0.375 0.5
vt 0.625 0.5
vt 0.375 0.75
vt 0.625 0.75
vt 0.375 1.0
vt 0.125 0.75
vt 0.125 0.5
vt 0.875 0.5
vt 0.625 1.0
vt 0.875 0.75
vn -1.0 0.0 0.0
vn 0.0 1.0 0.0
vn 1.0 0.0 0.0
vn 0.0 -1.0 0.0
vn 0.0 0.0 -1.0
vn 0.0 0.0 1.0
vtan 0.0 0.0 1.0 1.0
vtan 1.0 0.0 0.0 1.0
vtan -1.0 0.0 0.0 1.0
f 1/0/0/0 2/1/0/0 0/2/0/0 
f 3/3/1/0 6/4/1/0 2/1/1/0 
f 7/5/2/0 4/6/2/0 6/4/2/0 
f 5/7/3/0 0/8/3/0 4/6/3/0 
f 6/4/4/1 0/9/4/1 2/10/4/1 
f 3/11/5/2 5/7/5/2 7/5/5/2 
f 1/0/0/0 3/3/0/0 2/1/0/0 
f 3/3/1/0 7/5/1/0 6/4/1/0 
f 7/5/2/0 5/7/2/0 4/6/2/0 
f 5/7/3/0 1/12/3/0 0/8/3/0 
f 6/4/4/1 4/6/4/1 0/9/4/1 
f 3/11/5/2 1/13/5/2 5/7/5/2 
