v 913.3156 664.2318 569.3783
v 914.2369 670.6962 568.5564
v 914.2369 670.6962 575.4881
v 913.3156 664.2318 575.4881
v 845.5257 670.6962 567.8701
v 913.4224 670.6962 567.8701
v 912.4467 664.2318 568.6463
v 846.5013 664.2318 568.6463
v 838.4755 686.5964 561.9177
v 838.5174 690.9595 561.9177
v 920.4302 690.9595 561.9177
v 920.4721 686.5964 561.9177
v 837.6443 686.5964 575.4881
v 837.6443 690.9595 575.4881
v 837.6443 690.9595 562.6531
v 837.6443 686.5964 562.6179
v 912.6396 660.3631 569.9615
v 915.2466 662.2974 567.8378
v 915.2466 662.2974 575.4881
v 912.6396 660.3631 575.4881
v 844.6725 662.2974 567.0197
v 914.2755 662.2974 567.0197
v 911.7541 660.3631 569.2157
v 847.1937 660.3631 569.2157
v 921.303 690.9595 562.6531
v 923.7315 693.1411 560.6855
v 923.7315 693.141 575.4881
v 921.303 690.9595 575.4881
v 836.1815 693.1411 559.8723
v 922.7661 693.1411 559.8723
v 921.303 695.3226 562.7309
v 921.303 695.3226 575.4881
v 838.6098 695.3226 561.9177
v 920.3381 695.3226 561.9177
v 917.3571 679.6952 565.9556
v 921.303 686.5964 562.6179
v 921.303 686.5964 575.4881
v 917.3571 679.6952 575.4881
v 916.5101 679.6952 565.2417
v 842.4379 679.6952 565.2417
v 845.6324 664.2318 569.3783
v 844.7108 670.6962 568.5564
v 843.7014 662.2974 567.8378
v 846.3082 660.3631 569.9615
v 835.2162 693.1411 560.6855
v 837.6443 695.3226 562.7309
v 841.5905 679.6952 565.9556
v 837.6443 695.3226 575.4881
v 844.7108 670.6962 575.4881
v 845.6324 664.2318 575.4881
v 843.7011 662.2974 575.4881
v 846.308 660.3631 575.4881
v 835.2162 693.141 575.4881
v 841.5906 679.6952 575.4881
vt 0.2773 0.6742
vt 0.2773 0.6911
vt 0.4476 0.6911
vt 0.4476 0.6742
vt 0.4453 0.6933
vt 0.2795 0.6933
vt 0.5504 0.8881
vt 0.5526 0.9084
vt 0.5337 0.9084
vt 0.5337 0.8881
vt 0.7614 0.91
vt 0.6053 0.91
vt 0.6076 0.8897
vt 0.7592 0.8897
vt 0.7776 0.96
vt 0.7775 0.9737
vt 0.5892 0.9737
vt 0.5891 0.96
vt 0.8287 0.9596
vt 0.8287 0.9733
vt 0.7937 0.9733
vt 0.7936 0.9596
vt 0.9865 0.7672
vt 0.9959 0.7791
vt 0.9632 0.7791
vt 0.9619 0.7672
vt 0.2524 0.779
vt 0.0111 0.779
vt 0.0112 0.7672
vt 0.2525 0.7672
vt 0.5337 0.882
vt 0.5546 0.882
vt 0.6034 0.8836
vt 0.7634 0.8836
vt 0.5687 0.9721
vt 0.5741 0.979
vt 0.5337 0.979
vt 0.5337 0.9721
vt 0.7829 0.9806
vt 0.5839 0.9806
vt 0.5685 0.9859
vt 0.5337 0.9859
vt 0.7773 0.9875
vt 0.5894 0.9875
vt 0.5597 0.9367
vt 0.5688 0.9584
vt 0.5337 0.9584
vt 0.5337 0.9367
vt 0.5982 0.9383
vt 0.7685 0.9383
vt 0.605 0.8907
vt 0.6028 0.9094
vt 0.8121 0.8892
vt 0.8098 0.9096
vt 0.8073 0.909
vt 0.8095 0.8902
vt 0.5867 0.9726
vt 0.5865 0.9593
vt 0.7912 0.9721
vt 0.791 0.9589
vt 0.6007 0.8862
vt 0.8052 0.8857
vt 0.8079 0.8832
vt 0.0078 0.7789
vt 0.0079 0.7672
vt 0.2558 0.7672
vt 0.2559 0.779
vt 0.5815 0.9806
vt 0.7884 0.9801
vt 0.786 0.9801
vt 0.5871 0.99
vt 0.7939 0.987
vt 0.7916 0.9896
vt 0.5957 0.9372
vt 0.8027 0.9379
vt 0.8002 0.9367
vt 0.0091 0.8976
vt 0.0091 0.876
vt 0.0109 0.8746
vt 0.1674 0.876
vt 0.1655 0.8746
vt 0.1674 0.8976
vt 0.8287 0.9096
vt 0.8287 0.8892
vt 0.2874 0.779
vt 0.2803 0.7672
vt 0.8287 0.8832
vt 0.8287 0.9801
vt 0.8287 0.987
vt 0.8287 0.9379
vn 0.0 -1.0 0.0
vn 0.0 -1.0 0.0
vn 0.0 -1.0 -0.0
vn 0.8468 0.3982 -0.3527
vn 0.8696 -0.2994 -0.3926
vn 0.9719 -0.2354 0.0
vn 0.9488 0.316 0.0
vn -0.3159 -0.267 -0.9105
vn 0.316 -0.267 -0.9104
vn 0.2666 0.3533 -0.8967
vn -0.2666 0.3534 -0.8967
vn -0.3526 -0.273 -0.8951
vn -0.261 -0.4551 -0.8513
vn 0.261 -0.4551 -0.8513
vn 0.3527 -0.273 -0.895
vn -0.9665 -0.2568 0.0
vn -0.9133 -0.4072 0.0
vn -0.7937 -0.5075 -0.3354
vn -0.8625 -0.2861 -0.4175
vn 0.3166 -0.9416 -0.1149
vn 0.8873 -0.0594 -0.4573
vn 0.9973 -0.0739 0.0
vn 0.314 -0.9494 -0.0
vn -0.4075 -0.0637 -0.911
vn 0.4075 -0.0637 -0.911
vn 0.0808 -0.9308 -0.3564
vn -0.0809 -0.9308 -0.3564
vn 0.7937 -0.5075 -0.3353
vn 0.8879 0.0024 -0.46
vn 1.0 -0.0 -0.0
vn 0.9133 -0.4073 0.0
vn -0.41 0.0031 -0.9121
vn 0.41 0.0031 -0.9121
vn 0.3607 0.9234 -0.1314
vn 0.3578 0.9338 0.0
vn -0.0932 0.9113 -0.4011
vn 0.0932 0.9113 -0.4011
vn 0.789 -0.5056 -0.3491
vn 0.8625 -0.2861 -0.4174
vn 0.9665 -0.2568 0.0
vn 0.9104 -0.4138 0.0
vn 0.2851 -0.4587 -0.8416
vn -0.285 -0.4587 -0.8417
vn -0.8468 0.3982 -0.3527
vn -0.8695 -0.2994 -0.3928
vn -0.8873 -0.0594 -0.4574
vn -0.3166 -0.9416 -0.1149
vn -0.8879 0.0025 -0.46
vn -0.3607 0.9234 -0.1315
vn -0.7889 -0.5056 -0.3492
vn -0.3579 0.9338 0.0
vn -0.9719 -0.2354 0.0
vn -0.9488 0.316 0.0
vn -0.9973 -0.0739 -0.0
vn -0.3141 -0.9494 -0.0
vn -1.0 -0.0 -0.0
vn -0.9104 -0.4138 0.0
vtan 1.0 0.0 0.0 -1.0
vtan 1.0 0.0 0.0 -1.0
vtan -0.3192 -0.1501 -0.9357 1.0
vtan -0.3713 0.1278 -0.9197 1.0
vtan 0.0 0.0 -1.0 1.0
vtan -0.9488 0.0889 0.3031 1.0
vtan -0.9487 -0.0814 -0.3054 1.0
vtan -0.9636 0.1184 -0.2398 1.0
vtan -0.9638 -0.0977 0.248 1.0
vtan -0.9358 0.1029 0.3372 1.0
vtan -0.9653 0.123 0.2302 1.0
vtan -0.9653 -0.1314 -0.2257 1.0
vtan -0.9356 -0.1211 -0.3317 1.0
vtan 0.0 0.0 1.0 1.0
vtan 0.0 0.0 1.0 1.0
vtan -0.3115 -0.1345 0.9407 1.0
vtan -0.3991 -0.1228 0.9086 1.0
vtan -0.0366 0.1089 -0.9934 1.0
vtan -0.4563 0.0306 -0.8893 1.0
vtan -0.0 0.0 -1.0 1.0
vtan -0.9127 -0.0038 0.4086 1.0
vtan -0.9129 -0.0043 -0.4081 1.0
vtan -0.9654 0.0158 -0.2602 1.0
vtan -0.9654 -0.0157 0.2603 1.0
vtan -0.4563 0.0306 -0.8893 1.0
vtan -0.8696 0.2776 -0.4084 1.0
vtan -0.9132 0.0284 0.4065 1.0
vtan -0.2825 0.1806 -0.9421 1.0
vtan -0.46 -0.0013 -0.8879 1.0
vtan -0.0 0.0 -1.0 1.0
vtan -0.9121 -0.0014 0.41 1.0
vtan -0.912 0.0144 -0.4099 1.0
vtan -0.0478 -0.1224 -0.9913 1.0
vtan 0.0 0.0 -1.0 1.0
vtan -0.9957 -0.0853 0.0375 1.0
vtan -0.9943 0.1058 0.0093 1.0
vtan -0.294 0.1884 -0.9371 1.0
vtan -0.3962 0.1314 -0.9087 1.0
vtan -0.9585 -0.1461 -0.245 1.0
vtan -0.9585 0.1364 0.2502 1.0
vtan -0.5241 0.5117 -0.6808 1.0
vtan -0.4809 -0.333 -0.8111 1.0
vtan -0.3085 0.1726 0.9354 1.0
vtan -0.3813 -0.0985 0.9192 1.0
vtan -0.8847 -0.2637 0.3843 1.0
vtan -0.7449 0.5148 0.4243 1.0
vtan -0.5814 -0.4707 -0.6637 1.0
vtan -0.4982 -0.3354 -0.7996 1.0
vtan -0.7298 -0.4843 0.4826 1.0
vtan -0.8471 -0.3134 0.4293 1.0
vtan -0.2649 0.7461 -0.6109 1.0
vtan -0.7296 0.6226 0.2829 1.0
vtan -0.4544 0.2823 0.8449 1.0
vtan -0.4599 -0.0404 -0.887 1.0
vtan -0.7248 -0.162 -0.6697 1.0
vtan -0.3739 0.0126 0.9274 1.0
vtan -0.4583 0.0028 0.8888 1.0
vtan -0.46 0.001 -0.8879 1.0
vtan -0.46 -0.0001 0.8879 1.0
vtan -0.9116 0.0329 0.4099 1.0
vtan -0.9269 0.3393 -0.1603 1.0
vtan -0.121 0.0934 0.9882 1.0
vtan -0.1958 0.3782 0.9048 1.0
vtan -0.5958 -0.4907 -0.6358 1.0
vtan -0.3067 -0.1684 0.9368 1.0
vtan -0.7111 -0.4876 0.5065 1.0
vtan -0.9338 0.3578 0.0005 1.0
vtan -0.9326 0.3592 -0.0359 1.0
vtan -0.9956 0.087 -0.0338 1.0
vtan -0.9327 -0.3571 0.0508 1.0
vtan -0.9957 -0.0853 0.0375 1.0
vtan -0.9338 -0.3579 0.0 1.0
vtan -0.0 0.0 1.0 1.0
vtan -0.0001 -0.0 1.0 1.0
vtan -0.0 -0.0 1.0 1.0
vtan -0.0 -0.0 1.0 1.0
vtan 0.0 0.0 1.0 1.0
f 51/0/0/0 43/1/0/0 16/2/0/0 
f 51/0/1/0 16/2/1/0 19/3/1/0 
f 22/4/1/0 16/2/1/0 43/1/1/0 
f 22/4/2/0 43/1/2/1 23/5/2/0 
f 0/6/3/2 1/7/4/3 2/8/5/4 
f 0/6/3/2 2/8/5/4 3/9/6/4 
f 4/10/7/5 5/11/8/6 6/12/9/7 
f 4/10/7/5 6/12/9/7 7/13/10/8 
f 8/14/11/9 9/15/12/10 10/16/13/11 
f 8/14/11/9 10/16/13/11 11/17/14/12 
f 12/18/15/13 13/19/16/14 14/20/17/15 
f 12/18/15/13 14/20/17/15 15/21/18/16 
f 16/22/19/17 17/23/20/18 18/24/21/4 
f 16/22/19/17 18/24/21/4 19/25/22/19 
f 20/26/23/20 21/27/24/21 22/28/25/22 
f 20/26/23/20 22/28/25/22 23/29/26/23 
f 0/6/3/2 3/9/6/4 18/30/21/4 
f 0/6/3/2 18/30/21/4 17/31/20/24 
f 7/13/10/8 6/12/9/7 21/32/24/25 
f 7/13/10/8 21/32/24/25 20/33/23/26 
f 24/34/27/27 25/35/28/28 26/36/29/29 
f 24/34/27/27 26/36/29/29 27/37/30/4 
f 28/38/31/30 29/39/32/31 10/16/13/11 
f 28/38/31/30 10/16/13/11 9/15/12/10 
f 30/40/33/32 31/41/34/33 26/36/29/29 
f 30/40/33/32 26/36/29/29 25/35/28/28 
f 32/42/35/34 33/43/36/35 29/39/32/31 
f 32/42/35/34 29/39/32/31 28/38/31/30 
f 34/44/37/36 35/45/38/37 36/46/39/4 
f 34/44/37/36 36/46/39/4 37/47/40/4 
f 8/14/11/9 11/17/14/12 38/48/41/38 
f 8/14/11/9 38/48/41/38 39/49/42/39 
f 1/7/4/3 34/44/37/36 37/47/40/4 
f 1/7/4/3 37/47/40/4 2/8/5/4 
f 39/49/42/39 38/48/41/38 5/11/8/6 
f 39/49/42/39 5/11/8/6 4/10/7/5 
f 0/50/3/40 6/12/9/7 5/11/8/6 
f 0/50/3/40 5/11/8/6 1/51/4/41 
f 40/52/43/42 41/53/44/43 4/54/7/44 
f 40/52/43/42 4/54/7/44 7/55/10/45 
f 11/17/14/12 10/16/13/11 24/56/27/46 
f 11/17/14/12 24/56/27/46 35/57/38/47 
f 15/21/18/16 14/20/17/15 9/58/12/48 
f 15/21/18/16 9/58/12/48 8/59/11/49 
f 0/50/3/40 17/60/20/50 21/32/24/25 
f 0/50/3/40 21/32/24/25 6/12/9/7 
f 40/52/43/42 7/55/10/45 20/61/23/51 
f 40/52/43/42 20/61/23/51 42/62/45/52 
f 21/27/24/21 17/63/20/53 16/64/19/54 
f 21/27/24/21 16/64/19/54 22/28/25/22 
f 20/26/23/20 23/29/26/23 43/65/46/55 
f 20/26/23/20 43/65/46/55 42/66/45/56 
f 24/56/27/46 10/16/13/11 29/39/32/31 
f 24/56/27/46 29/39/32/31 25/67/28/57 
f 14/20/17/15 44/68/47/58 28/69/31/59 
f 14/20/17/15 28/69/31/59 9/58/12/48 
f 29/39/32/31 33/43/36/35 30/70/33/60 
f 29/39/32/31 30/70/33/60 25/67/28/57 
f 28/69/31/59 44/68/47/58 45/71/48/61 
f 28/69/31/59 45/71/48/61 32/72/35/62 
f 34/73/37/63 38/48/41/38 11/17/14/12 
f 34/73/37/63 11/17/14/12 35/57/38/47 
f 46/74/49/64 15/21/18/16 8/59/11/49 
f 46/74/49/64 8/59/11/49 39/75/42/65 
f 1/51/4/41 5/11/8/6 38/48/41/38 
f 1/51/4/41 38/48/41/38 34/73/37/63 
f 41/53/44/43 46/74/49/64 39/75/42/65 
f 41/53/44/43 39/75/42/65 4/54/7/44 
f 31/76/34/66 30/77/33/67 33/78/36/68 
f 31/76/34/66 33/78/36/68 45/79/48/69 
f 33/78/36/68 32/80/35/70 45/79/48/69 
f 47/81/50/71 31/76/34/66 45/79/48/69 
f 48/82/51/14 41/53/44/43 40/52/43/42 
f 48/82/51/14 40/52/43/42 49/83/52/14 
f 36/46/39/4 35/45/38/37 24/34/27/27 
f 36/46/39/4 24/34/27/27 27/37/30/4 
f 50/84/53/72 42/66/45/56 43/65/46/55 
f 50/84/53/72 43/65/46/55 51/85/54/73 
f 50/86/53/74 49/83/52/14 40/52/43/42 
f 50/86/53/74 40/52/43/42 42/62/45/52 
f 52/87/55/75 44/68/47/58 14/20/17/15 
f 52/87/55/75 14/20/17/15 13/19/16/14 
f 52/87/55/75 47/88/50/14 45/71/48/61 
f 52/87/55/75 45/71/48/61 44/68/47/58 
f 12/18/15/13 15/21/18/16 46/74/49/64 
f 12/18/15/13 46/74/49/64 53/89/56/76 
f 53/89/56/76 46/74/49/64 41/53/44/43 
f 53/89/56/76 41/53/44/43 48/82/51/14 
