v 790.1294 279.8812 199.0069
v 790.1294 280.1829 197.8808
v 830.2939 280.1829 197.8808
v 830.2939 279.8812 199.0069
v 790.1294 281.0073 197.0564
v 830.2939 281.0073 197.0564
v 790.1294 282.1334 196.7545
v 830.2939 282.1334 196.7545
v 790.1294 283.2596 197.0564
v 830.2939 283.2596 197.0564
v 790.1294 284.0839 197.8808
v 830.2939 284.0839 197.8808
v 790.1294 284.3857 199.0069
v 830.2939 284.3857 199.0069
v 790.1294 284.0839 200.1329
v 830.2939 284.0839 200.1329
v 790.1294 283.2596 200.9574
v 830.2939 283.2596 200.9574
v 790.1294 282.1334 201.259
v 830.2939 282.1334 201.259
v 790.1294 281.0073 200.9574
v 830.2939 281.0073 200.9574
v 790.1294 280.1829 200.1329
v 830.2939 280.1829 200.1329
v 749.9647 279.8812 199.0069
v 749.9647 280.1829 197.8808
v 749.9647 281.0073 197.0564
v 749.9647 282.1334 196.7545
v 749.9647 283.2596 197.0564
v 749.9647 284.0839 197.8808
v 749.9647 284.3857 199.0069
v 749.9647 284.0839 200.1329
v 749.9647 283.2596 200.9574
v 749.9647 282.1334 201.259
v 749.9647 281.0073 200.9574
v 749.9647 280.1829 200.1329
v 709.8002 279.8812 199.0069
v 709.8002 280.1829 197.8808
v 709.8002 281.0073 197.0564
v 709.8002 282.1334 196.7545
v 709.8002 283.2596 197.0564
v 709.8002 284.0839 197.8808
v 709.8002 284.3857 199.0069
v 709.8002 284.0839 200.1329
v 709.8002 283.2596 200.9574
v 709.8002 282.1334 201.259
v 709.8002 281.0073 200.9574
v 709.8002 280.1829 200.1329
v 675.3553 279.8812 199.0069
v 675.3553 280.1829 197.8808
v 675.3553 281.0073 197.0564
v 675.3553 282.1334 196.7545
v 675.3553 283.2596 197.0564
v 675.3553 284.0839 197.8808
v 675.3553 284.3857 199.0069
v 675.3553 284.0839 200.1329
v 675.3553 283.2596 200.9574
v 675.3553 282.1334 201.259
v 675.3553 281.0073 200.9574
v 675.3553 280.1829 200.1329
v 520.4168 280.1829 197.8808
v 560.5814 280.1829 197.8808
v 560.5814 279.8812 199.0069
v 520.4168 279.8812 199.0069
v 520.4168 281.0073 197.0564
v 560.5814 281.0073 197.0564
v 520.4168 282.1334 196.7545
v 560.5814 282.1334 196.7545
v 520.4168 283.2596 197.0564
v 560.5814 283.2596 197.0564
v 520.4168 284.0839 197.8808
v 560.5814 284.0839 197.8808
v 520.4168 284.3857 199.0069
v 560.5814 284.3857 199.0069
v 520.4168 284.0839 200.1329
v 560.5814 284.0839 200.1329
v 520.4168 283.2596 200.9574
v 560.5814 283.2596 200.9574
v 520.4168 282.1334 201.259
v 560.5814 282.1334 201.259
v 520.4168 281.0073 200.9574
v 560.5814 281.0073 200.9574
v 520.4168 280.1829 200.1329
v 560.5814 280.1829 200.1329
v 600.746 280.1829 197.8808
v 600.746 279.8812 199.0069
v 600.746 281.0073 197.0564
v 600.746 282.1334 196.7545
v 600.746 283.2596 197.0564
v 600.746 284.0839 197.8808
v 600.746 284.3857 199.0069
v 600.746 284.0839 200.1329
v 600.746 283.2596 200.9574
v 600.746 282.1334 201.259
v 600.746 281.0073 200.9574
v 600.746 280.1829 200.1329
v 640.9106 280.1829 197.8808
v 640.9106 279.8812 199.0069
v 640.9106 281.0073 197.0564
v 640.9106 282.1334 196.7545
v 640.9106 283.2596 197.0564
v 640.9106 284.0839 197.8808
v 640.9106 284.3857 199.0069
v 640.9106 284.0839 200.1329
v 640.9106 283.2596 200.9574
v 640.9106 282.1334 201.259
v 640.9106 281.0073 200.9574
v 640.9106 280.1829 200.1329
gi 0 0 0 0
gi 0 0 0 0
gi 0 0 0 0
gi 0 0 0 0
gi 0 0 0 0
gi 0 0 0 0
gi 0 0 0 0
gi 0 0 0 0
gi 0 0 0 0
gi 0 0 0 0
gi 0 0 0 0
gi 0 0 0 0
gi 0 0 0 0
gi 0 0 0 0
gi 0 0 0 0
gi 0 0 0 0
gi 0 0 0 0
gi 0 0 0 0
gi 0 0 0 0
gi 0 0 0 0
gi 0 0 0 0
gi 0 0 0 0
gi 0 0 0 0
gi 0 0 0 0
gi 0 0 0 0
gi 0 0 0 0
gi 0 0 0 0
gi 0 0 0 0
gi 0 0 0 0
gi 0 0 0 0
gi 0 0 0 0
gi 0 0 0 0
gi 0 0 0 0
gi 0 0 0 0
gi 0 0 0 0
gi 0 0 0 0
gi 0 0 0 0
gi 0 0 0 0
gi 0 0 0 0
gi 0 0 0 0
gi 0 0 0 0
gi 0 0 0 0
gi 0 0 0 0
gi 0 0 0 0
gi 0 0 0 0
gi 0 0 0 0
gi 0 0 0 0
gi 0 0 0 0
gi 0 0 0 0
gi 0 0 0 0
gi 0 0 0 0
gi 0 0 0 0
gi 0 0 0 0
gi 0 0 0 0
gi 0 0 0 0
gi 0 0 0 0
gi 0 0 0 0
gi 0 0 0 0
gi 0 0 0 0
gi 0 0 0 0
gi 0 0 0 0
gi 0 0 0 0
gi 0 0 0 0
gi 0 0 0 0
gi 0 0 0 0
gi 0 0 0 0
gi 0 0 0 0
gi 0 0 0 0
gi 0 0 0 0
gi 0 0 0 0
gi 0 0 0 0
gi 0 0 0 0
gi 0 0 0 0
gi 0 0 0 0
gi 0 0 0 0
gi 0 0 0 0
gi 0 0 0 0
gi 0 0 0 0
gi 0 0 0 0
gi 0 0 0 0
gi 0 0 0 0
gi 0 0 0 0
gi 0 0 0 0
gi 0 0 0 0
gi 0 0 0 0
gi 0 0 0 0
gi 0 0 0 0
gi 0 0 0 0
gi 0 0 0 0
gi 0 0 0 0
gi 0 0 0 0
gi 0 0 0 0
gi 0 0 0 0
gi 0 0 0 0
gi 0 0 0 0
gi 0 0 0 0
gi 0 0 0 0
gi 0 0 0 0
gi 0 0 0 0
gi 0 0 0 0
gi 0 0 0 0
gi 0 0 0 0
gi 0 0 0 0
gi 0 0 0 0
gi 0 0 0 0
gi 0 0 0 0
gi 0 0 0 0
gi 0 0 0 0
gw 0.0 0.0 0.0 0.0
gw 0.0 0.0 0.0 0.0
gw 0.0 0.0 0.0 0.0
gw 0.0 0.0 0.0 0.0
gw 0.0 0.0 0.0 0.0
gw 0.0 0.0 0.0 0.0
gw 0.0 0.0 0.0 0.0
gw 0.0 0.0 0.0 0.0
gw 0.0 0.0 0.0 0.0
gw 0.0 0.0 0.0 0.0
gw 0.0 0.0 0.0 0.0
gw 0.0 0.0 0.0 0.0
gw 0.0 0.0 0.0 0.0
gw 0.0 0.0 0.0 0.0
gw 0.0 0.0 0.0 0.0
gw 0.0 0.0 0.0 0.0
gw 0.0 0.0 0.0 0.0
gw 0.0 0.0 0.0 0.0
gw 0.0 0.0 0.0 0.0
gw 0.0 0.0 0.0 0.0
gw 0.0 0.0 0.0 0.0
gw 0.0 0.0 0.0 0.0
gw 0.0 0.0 0.0 0.0
gw 0.0 0.0 0.0 0.0
gw 0.0 0.0 0.0 0.0
gw 0.0 0.0 0.0 0.0
gw 0.0 0.0 0.0 0.0
gw 0.0 0.0 0.0 0.0
gw 0.0 0.0 0.0 0.0
gw 0.0 0.0 0.0 0.0
gw 0.0 0.0 0.0 0.0
gw 0.0 0.0 0.0 0.0
gw 0.0 0.0 0.0 0.0
gw 0.0 0.0 0.0 0.0
gw 0.0 0.0 0.0 0.0
gw 0.0 0.0 0.0 0.0
gw 0.0 0.0 0.0 0.0
gw 0.0 0.0 0.0 0.0
gw 0.0 0.0 0.0 0.0
gw 0.0 0.0 0.0 0.0
gw 0.0 0.0 0.0 0.0
gw 0.0 0.0 0.0 0.0
gw 0.0 0.0 0.0 0.0
gw 0.0 0.0 0.0 0.0
gw 0.0 0.0 0.0 0.0
gw 0.0 0.0 0.0 0.0
gw 0.0 0.0 0.0 0.0
gw 0.0 0.0 0.0 0.0
gw 0.0 0.0 0.0 0.0
gw 0.0 0.0 0.0 0.0
gw 0.0 0.0 0.0 0.0
gw 0.0 0.0 0.0 0.0
gw 0.0 0.0 0.0 0.0
gw 0.0 0.0 0.0 0.0
gw 0.0 0.0 0.0 0.0
gw 0.0 0.0 0.0 0.0
gw 0.0 0.0 0.0 0.0
gw 0.0 0.0 0.0 0.0
gw 0.0 0.0 0.0 0.0
gw 0.0 0.0 0.0 0.0
gw 0.0 0.0 0.0 0.0
gw 0.0 0.0 0.0 0.0
gw 0.0 0.0 0.0 0.0
gw 0.0 0.0 0.0 0.0
gw 0.0 0.0 0.0 0.0
gw 0.0 0.0 0.0 0.0
gw 0.0 0.0 0.0 0.0
gw 0.0 0.0 0.0 0.0
gw 0.0 0.0 0.0 0.0
gw 0.0 0.0 0.0 0.0
gw 0.0 0.0 0.0 0.0
gw 0.0 0.0 0.0 0.0
gw 0.0 0.0 0.0 0.0
gw 0.0 0.0 0.0 0.0
gw 0.0 0.0 0.0 0.0
gw 0.0 0.0 0.0 0.0
gw 0.0 0.0 0.0 0.0
gw 0.0 0.0 0.0 0.0
gw 0.0 0.0 0.0 0.0
gw 0.0 0.0 0.0 0.0
gw 0.0 0.0 0.0 0.0
gw 0.0 0.0 0.0 0.0
gw 0.0 0.0 0.0 0.0
gw 0.0 0.0 0.0 0.0
gw 0.0 0.0 0.0 0.0
gw 0.0 0.0 0.0 0.0
gw 0.0 0.0 0.0 0.0
gw 0.0 0.0 0.0 0.0
gw 0.0 0.0 0.0 0.0
gw 0.0 0.0 0.0 0.0
gw 0.0 0.0 0.0 0.0
gw 0.0 0.0 0.0 0.0
gw 0.0 0.0 0.0 0.0
gw 0.0 0.0 0.0 0.0
gw 0.0 0.0 0.0 0.0
gw 0.0 0.0 0.0 0.0
gw 0.0 0.0 0.0 0.0
gw 0.0 0.0 0.0 0.0
gw 0.0 0.0 0.0 0.0
gw 0.0 0.0 0.0 0.0
gw 0.0 0.0 0.0 0.0
gw 0.0 0.0 0.0 0.0
gw 0.0 0.0 0.0 0.0
gw 0.0 0.0 0.0 0.0
gw 0.0 0.0 0.0 0.0
gw 0.0 0.0 0.0 0.0
gw 0.0 0.0 0.0 0.0
gw 0.0 0.0 0.0 0.0
vt 0.9876 0.5241
vt 0.9633 0.5241
vt 0.9633 0.0053
vt 0.9876 0.0053
vt 0.9391 0.5241
vt 0.9391 0.0053
vt 0.9148 0.5241
vt 0.9148 0.0053
vt 0.8906 0.5241
vt 0.8906 0.0053
vt 0.8663 0.5241
vt 0.8663 0.0053
vt 0.8421 0.5241
vt 0.8421 0.0053
vt 0.8178 0.5241
vt 0.8178 0.0053
vt 0.7936 0.5241
vt 0.7936 0.0053
vt 0.7694 0.5241
vt 0.7694 0.0053
vt 0.7451 0.5241
vt 0.7451 0.0053
vt 0.7209 0.5241
vt 0.7209 0.0053
vt 0.6966 0.5241
vt 0.6966 0.0053
vt 0.9876 0.4502
vt 0.9633 0.4502
vt 0.9391 0.4502
vt 0.9148 0.4502
vt 0.8906 0.4502
vt 0.8663 0.4502
vt 0.8421 0.4502
vt 0.8178 0.4502
vt 0.7936 0.4502
vt 0.7694 0.4502
vt 0.7451 0.4502
vt 0.7209 0.4502
vt 0.6966 0.4502
vn 0.0 -1.0 -0.0
vn 0.0 -0.866 -0.5
vn 0.0 -0.866 -0.5
vn 0.0 -1.0 0.0
vn 0.0 -0.5 -0.866
vn 0.0 -0.5 -0.866
vn 0.0 -0.0 -1.0
vn 0.0 -0.0 -1.0
vn 0.0 0.5 -0.866
vn 0.0 0.5 -0.866
vn 0.0 0.866 -0.5
vn 0.0 0.866 -0.5
vn 0.0 1.0 0.0
vn 0.0 1.0 -0.0
vn 0.0 0.866 0.5
vn 0.0 0.866 0.5
vn 0.0 0.5 0.866
vn 0.0 0.5 0.866
vn 0.0 -0.0 1.0
vn 0.0 -0.0 1.0
vn 0.0 -0.5 0.866
vn 0.0 -0.5 0.866
vn 0.0 -0.866 0.5
vn 0.0 -0.866 0.5
vn 0.0 -1.0 -0.0
vn 0.0 -0.866 -0.5
vn 0.0 -0.5 -0.866
vn 0.0 -0.0 -1.0
vn 0.0 0.5 -0.866
vn 0.0 0.866 -0.5
vn 0.0 1.0 -0.0
vn 0.0 0.866 0.5
vn 0.0 0.5 0.866
vn 0.0 -0.0 1.0
vn 0.0 -0.5 0.866
vn 0.0 -0.866 0.5
vn 0.0 -1.0 -0.0
vn 0.0 -0.866 -0.5
vn 0.0 -0.5 -0.866
vn 0.0 -0.0 -1.0
vn 0.0 0.5 -0.866
vn 0.0 0.866 -0.5
vn 0.0 1.0 -0.0
vn 0.0 0.866 0.5
vn 0.0 0.5 0.866
vn 0.0 -0.0 1.0
vn 0.0 -0.5 0.866
vn 0.0 -0.866 0.5
vn 0.0 -1.0 -0.0
vn 0.0 -0.866 -0.5
vn 0.0 -0.5 -0.866
vn 0.0 -0.0 -1.0
vn 0.0 0.5 -0.866
vn 0.0 0.866 -0.5
vn 0.0 1.0 0.0
vn 0.0 0.866 0.5
vn 0.0 0.5 0.866
vn 0.0 -0.0 1.0
vn 0.0 -0.5 0.866
vn 0.0 -0.866 0.5
vn 0.0 -0.866 -0.5
vn 0.0 -0.866 -0.5
vn 0.0 -1.0 -0.0
vn 0.0 -1.0 0.0
vn 0.0 -0.5 -0.866
vn 0.0 -0.5 -0.866
vn 0.0 -0.0 -1.0
vn 0.0 -0.0 -1.0
vn 0.0 0.5 -0.866
vn 0.0 0.5 -0.866
vn 0.0 0.866 -0.5
vn 0.0 0.866 -0.5
vn 0.0 1.0 -0.0
vn 0.0 1.0 0.0
vn 0.0 0.866 0.5
vn 0.0 0.866 0.5
vn 0.0 0.5 0.866
vn 0.0 0.5 0.866
vn 0.0 -0.0 1.0
vn 0.0 -0.0 1.0
vn 0.0 -0.5 0.866
vn 0.0 -0.866 0.5
vn 0.0 -0.866 0.5
vn 0.0 -0.866 -0.5
vn 0.0 -1.0 0.0
vn 0.0 -0.5 -0.866
vn 0.0 -0.0 -1.0
vn 0.0 0.5 -0.866
vn 0.0 0.866 -0.5
vn 0.0 0.866 0.5
vn 0.0 0.5 0.866
vn 0.0 -0.0 1.0
vn 0.0 -0.5 0.866
vn 0.0 -0.866 0.5
vn 0.0 -0.866 -0.5
vn 0.0 -1.0 0.0
vn 0.0 -0.5 -0.866
vn 0.0 -0.0 -1.0
vn 0.0 0.5 -0.866
vn 0.0 0.866 -0.5
vn 0.0 1.0 0.0
vn 0.0 0.866 0.5
vn 0.0 0.5 0.866
vn 0.0 -0.0 1.0
vn 0.0 -0.5 0.866
vn 0.0 -0.866 0.5
vtan 0.0 -0.0 1.0
vtan 0.0 -0.5 0.866
vtan 0.0 -0.5 0.866
vtan 0.0 0.0 1.0
vtan 0.0 -0.866 0.5
vtan 0.0 -0.866 0.5
vtan 0.0 -1.0 0.0
vtan 0.0 -1.0 0.0
vtan 0.0 -0.866 -0.5
vtan 0.0 -0.866 -0.5
vtan 0.0 -0.5 -0.866
vtan 0.0 -0.5 -0.866
vtan 0.0 0.0 -1.0
vtan 0.0 -0.0 -1.0
vtan 0.0 0.5 -0.866
vtan 0.0 0.5 -0.866
vtan 0.0 0.866 -0.5
vtan 0.0 0.866 -0.5
vtan 0.0 1.0 0.0
vtan 0.0 1.0 0.0
vtan 0.0 0.866 0.5
vtan 0.0 0.866 0.5
vtan 0.0 0.5 0.866
vtan 0.0 0.5 0.866
vtan 0.0 -0.0 1.0
vtan 0.0 0.0 1.0
vtan 0.0 -0.5 0.866
vtan 0.0 0.0 1.0
vtan 0.0 -0.5 0.866
vtan 0.0 -0.866 0.5
vtan 0.0 -1.0 0.0
vtan 0.0 -0.866 -0.5
vtan 0.0 -0.866 -0.5
vtan 0.0 -0.5 -0.866
vtan 0.0 -0.0 -1.0
vtan 0.0 0.0 -1.0
vtan 0.0 0.5 -0.866
vtan 0.0 0.866 -0.5
vtan 0.0 0.866 -0.5
vtan 0.0 1.0 0.0
vtan 0.0 0.866 0.5
vtan 0.0 0.5 0.866
vtan 0.0 -0.0 1.0
vtan 0.0 -0.5 0.866
vtan 0.0 -0.5 0.866
vtan 0.0 -0.866 0.5
vtan 0.0 -1.0 0.0
vtan 0.0 -0.866 -0.5
vtan 0.0 -0.5 -0.866
vtan 0.0 -0.0 -1.0
vtan 0.0 0.5 -0.866
vtan 0.0 0.866 -0.5
vtan 0.0 0.866 -0.5
vtan 0.0 1.0 0.0
vtan 0.0 0.866 0.5
vtan 0.0 0.5 0.866
vtan 0.0 0.5 0.866
vtan 0.0 -0.0 1.0
vtan 0.0 -0.0 1.0
vtan 0.0 -0.5 0.866
vtan 0.0 -0.5 0.866
vtan 0.0 -0.0 1.0
vtan 0.0 -0.866 0.5
vtan 0.0 -1.0 0.0
vtan 0.0 -1.0 0.0
vtan 0.0 -0.866 -0.5
vtan 0.0 -0.5 -0.866
vtan 0.0 0.0 -1.0
vtan 0.0 0.5 -0.866
vtan 0.0 0.866 -0.5
vtan 0.0 1.0 0.0
vtan 0.0 0.866 0.5
vtan 0.0 0.5 0.866
vtan 0.0 -0.0 1.0
vtan 0.0 -0.5 0.866
vtan 0.0 -0.5 0.866
vtan 0.0 -0.0 1.0
vtan 0.0 0.0 1.0
vtan 0.0 -0.866 0.5
vtan 0.0 -0.866 0.5
vtan 0.0 -1.0 0.0
vtan 0.0 -1.0 0.0
vtan 0.0 -0.866 -0.5
vtan 0.0 -0.866 -0.5
vtan 0.0 -0.5 -0.866
vtan 0.0 -0.5 -0.866
vtan 0.0 -0.0 -1.0
vtan 0.0 0.0 -1.0
vtan 0.0 0.5 -0.866
vtan 0.0 0.5 -0.866
vtan 0.0 0.866 -0.5
vtan 0.0 0.866 -0.5
vtan 0.0 1.0 0.0
vtan 0.0 1.0 0.0
vtan 0.0 0.866 0.5
vtan 0.0 0.866 0.5
vtan 0.0 0.5 0.866
vtan 0.0 0.5 0.866
vtan 0.0 0.0 1.0
vtan 0.0 -0.0 1.0
vtan 0.0 -0.5 0.866
vtan 0.0 0.0 1.0
vtan 0.0 -0.866 0.5
vtan 0.0 -1.0 0.0
vtan 0.0 -0.866 -0.5
vtan 0.0 -0.866 -0.5
vtan 0.0 -0.5 -0.866
vtan 0.0 0.5 -0.866
vtan 0.0 0.866 -0.5
vtan 0.0 0.866 -0.5
vtan 0.0 1.0 0.0
vtan 0.0 0.866 0.5
vtan 0.0 0.866 0.5
vtan 0.0 0.5 0.866
vtan 0.0 0.5 0.866
vtan 0.0 0.0 1.0
vtan 0.0 -0.5 0.866
vtan 0.0 0.0 1.0
vtan 0.0 -0.866 0.5
vtan 0.0 -1.0 0.0
vtan 0.0 -0.866 -0.5
vtan 0.0 -0.5 -0.866
vtan 0.0 -0.5 -0.866
vtan 0.0 0.0 -1.0
vtan 0.0 0.5 -0.866
vtan 0.0 0.5 -0.866
vtan 0.0 0.866 -0.5
vtan 0.0 1.0 0.0
vtan 0.0 0.866 0.5
vtan 0.0 0.5 0.866
vtan 0.0 0.0 1.0
vtan 0.0 -0.5 0.866
vtan 0.0 -0.5 0.866
vtan 0.0 0.0 1.0
vtan 0.0 -0.866 0.5
vtan 0.0 -0.5 -0.866
f 0/0/0/0 1/1/1/1 2/2/2/2 
f 0/0/0/0 2/2/2/2 3/3/3/3 
f 1/1/1/1 4/4/4/4 5/5/5/5 
f 1/1/1/1 5/5/5/5 2/2/2/2 
f 4/4/4/4 6/6/6/6 7/7/7/7 
f 4/4/4/4 7/7/7/7 5/5/5/5 
f 6/6/6/6 8/8/8/8 9/9/9/9 
f 6/6/6/6 9/9/9/9 7/7/7/7 
f 8/8/8/8 10/10/10/10 11/11/11/11 
f 8/8/8/8 11/11/11/11 9/9/9/9 
f 10/10/10/10 12/12/12/12 13/13/13/13 
f 10/10/10/10 13/13/13/13 11/11/11/11 
f 12/12/12/12 14/14/14/14 15/15/15/15 
f 12/12/12/12 15/15/15/15 13/13/13/13 
f 14/14/14/14 16/16/16/16 17/17/17/17 
f 14/14/14/14 17/17/17/17 15/15/15/15 
f 16/16/16/16 18/18/18/18 19/19/19/19 
f 16/16/16/16 19/19/19/19 17/17/17/17 
f 18/18/18/18 20/20/20/20 21/21/21/21 
f 18/18/18/18 21/21/21/21 19/19/19/19 
f 20/20/20/20 22/22/22/22 23/23/23/23 
f 20/20/20/20 23/23/23/23 21/21/21/21 
f 22/22/22/22 0/24/0/24 3/25/3/25 
f 22/22/22/22 3/25/3/25 23/23/23/23 
f 1/2/1/26 0/3/0/0 24/0/24/27 
f 1/2/1/26 24/0/24/27 25/1/25/28 
f 25/1/25/28 26/4/26/29 4/5/4/4 
f 25/1/25/28 4/5/4/4 1/2/1/26 
f 26/4/26/29 27/6/27/30 6/7/6/6 
f 26/4/26/29 6/7/6/6 4/5/4/4 
f 27/6/27/30 28/8/28/31 8/9/8/32 
f 27/6/27/30 8/9/8/32 6/7/6/6 
f 28/8/28/31 29/10/29/33 10/11/10/10 
f 28/8/28/31 10/11/10/10 8/9/8/32 
f 29/10/29/33 30/12/30/34 12/13/12/35 
f 29/10/29/33 12/13/12/35 10/11/10/10 
f 30/12/30/34 31/14/31/36 14/15/14/14 
f 30/12/30/34 14/15/14/14 12/13/12/35 
f 31/14/31/36 32/16/32/37 16/17/16/38 
f 31/14/31/36 16/17/16/38 14/15/14/14 
f 32/16/32/37 33/18/33/39 18/19/18/18 
f 32/16/32/37 18/19/18/18 16/17/16/38 
f 33/18/33/39 34/20/34/40 20/21/20/20 
f 33/18/33/39 20/21/20/20 18/19/18/18 
f 34/20/34/40 35/22/35/41 22/23/22/22 
f 34/20/34/40 22/23/22/22 20/21/20/20 
f 0/25/0/24 22/23/22/22 35/22/35/41 
f 0/25/0/24 35/22/35/41 24/24/24/27 
f 36/0/36/42 37/1/37/43 25/2/25/44 
f 36/0/36/42 25/2/25/44 24/3/24/27 
f 37/1/37/43 38/4/38/45 26/5/26/29 
f 37/1/37/43 26/5/26/29 25/2/25/44 
f 38/4/38/45 39/6/39/46 27/7/27/30 
f 38/4/38/45 27/7/27/30 26/5/26/29 
f 39/6/39/46 40/8/40/47 28/9/28/31 
f 39/6/39/46 28/9/28/31 27/7/27/30 
f 40/8/40/47 41/10/41/48 29/11/29/33 
f 40/8/40/47 29/11/29/33 28/9/28/31 
f 41/10/41/48 42/12/42/49 30/13/30/34 
f 41/10/41/48 30/13/30/34 29/11/29/33 
f 42/12/42/49 43/14/43/50 31/15/31/36 
f 42/12/42/49 31/15/31/36 30/13/30/34 
f 43/14/43/50 44/16/44/51 32/17/32/52 
f 43/14/43/50 32/17/32/52 31/15/31/36 
f 44/16/44/51 45/18/45/53 33/19/33/39 
f 44/16/44/51 33/19/33/39 32/17/32/52 
f 45/18/45/53 46/20/46/54 34/21/34/40 
f 45/18/45/53 34/21/34/40 33/19/33/39 
f 46/20/46/54 47/22/47/55 35/23/35/56 
f 46/20/46/54 35/23/35/56 34/21/34/40 
f 47/22/47/55 36/24/36/57 24/25/24/27 
f 47/22/47/55 24/25/24/27 35/23/35/56 
f 48/26/48/58 49/27/49/59 37/2/37/60 
f 48/26/48/58 37/2/37/60 36/3/36/61 
f 49/27/49/59 50/28/50/62 38/5/38/45 
f 49/27/49/59 38/5/38/45 37/2/37/60 
f 50/28/50/62 51/29/51/63 39/7/39/64 
f 50/28/50/62 39/7/39/64 38/5/38/45 
f 51/29/51/63 52/30/52/65 40/9/40/47 
f 51/29/51/63 40/9/40/47 39/7/39/64 
f 52/30/52/65 53/31/53/66 41/11/41/48 
f 52/30/52/65 41/11/41/48 40/9/40/47 
f 53/31/53/66 54/32/54/67 42/13/42/49 
f 53/31/53/66 42/13/42/49 41/11/41/48 
f 54/32/54/67 55/33/55/68 43/15/43/50 
f 54/32/54/67 43/15/43/50 42/13/42/49 
f 55/33/55/68 56/34/56/69 44/17/44/51 
f 55/33/55/68 44/17/44/51 43/15/43/50 
f 56/34/56/69 57/35/57/70 45/19/45/53 
f 56/34/56/69 45/19/45/53 44/17/44/51 
f 57/35/57/70 58/36/58/71 46/21/46/54 
f 57/35/57/70 46/21/46/54 45/19/45/53 
f 58/36/58/71 59/37/59/72 47/23/47/55 
f 58/36/58/71 47/23/47/55 46/21/46/54 
f 59/37/59/72 48/38/48/73 36/25/36/57 
f 59/37/59/72 36/25/36/57 47/23/47/55 
f 60/2/60/74 61/1/61/75 62/0/62/76 
f 60/2/60/74 62/0/62/76 63/3/63/77 
f 64/5/64/78 65/4/65/79 61/1/61/75 
f 64/5/64/78 61/1/61/75 60/2/60/74 
f 66/7/66/80 67/6/67/81 65/4/65/79 
f 66/7/66/80 65/4/65/79 64/5/64/78 
f 68/9/68/82 69/8/69/83 67/6/67/81 
f 68/9/68/82 67/6/67/81 66/7/66/80 
f 70/11/70/84 71/10/71/85 69/8/69/83 
f 70/11/70/84 69/8/69/83 68/9/68/82 
f 72/13/72/86 73/12/73/87 71/10/71/85 
f 72/13/72/86 71/10/71/85 70/11/70/84 
f 74/15/74/88 75/14/75/89 73/12/73/87 
f 74/15/74/88 73/12/73/87 72/13/72/86 
f 76/17/76/90 77/16/77/91 75/14/75/89 
f 76/17/76/90 75/14/75/89 74/15/74/88 
f 78/19/78/92 79/18/79/93 77/16/77/91 
f 78/19/78/92 77/16/77/91 76/17/76/90 
f 80/21/80/94 81/20/46/95 79/18/79/93 
f 80/21/80/94 79/18/79/93 78/19/78/92 
f 82/23/81/96 83/22/82/97 81/20/46/95 
f 82/23/81/96 81/20/46/95 80/21/80/94 
f 63/25/63/98 62/24/62/99 83/22/82/97 
f 63/25/63/98 83/22/82/97 82/23/81/96 
f 61/2/61/75 84/1/83/100 85/0/84/101 
f 61/2/61/75 85/0/84/101 62/3/62/76 
f 65/5/65/79 86/4/85/102 84/1/83/100 
f 65/5/65/79 84/1/83/100 61/2/61/75 
f 67/7/67/81 87/6/86/103 86/4/85/102 
f 67/7/67/81 86/4/85/102 65/5/65/79 
f 69/9/69/104 88/8/87/105 87/6/86/103 
f 69/9/69/104 87/6/86/103 67/7/67/81 
f 71/11/71/85 89/10/88/106 88/8/87/105 
f 71/11/71/85 88/8/87/105 69/9/69/104 
f 73/13/73/87 90/12/73/87 89/10/88/106 
f 73/13/73/87 89/10/88/106 71/11/71/85 
f 75/15/75/89 91/14/89/107 90/12/73/87 
f 75/15/75/89 90/12/73/87 73/13/73/87 
f 77/17/77/108 92/16/90/109 91/14/89/107 
f 77/17/77/108 91/14/89/107 75/15/75/89 
f 79/19/79/93 93/18/91/110 92/16/90/109 
f 79/19/79/93 92/16/90/109 77/17/77/108 
f 81/21/46/111 94/20/92/112 93/18/91/110 
f 81/21/46/111 93/18/91/110 79/19/79/93 
f 83/23/82/113 95/22/93/114 94/20/92/112 
f 83/23/82/113 94/20/92/112 81/21/46/111 
f 62/25/62/99 85/24/84/115 95/22/93/114 
f 62/25/62/99 95/22/93/114 83/23/82/113 
f 84/2/83/100 96/1/94/116 97/0/95/117 
f 84/2/83/100 97/0/95/117 85/3/84/101 
f 86/5/85/102 98/4/96/118 96/1/94/116 
f 86/5/85/102 96/1/94/116 84/2/83/100 
f 87/7/86/103 99/6/97/119 98/4/96/118 
f 87/7/86/103 98/4/96/118 86/5/85/102 
f 88/9/87/105 100/8/98/120 99/6/97/119 
f 88/9/87/105 99/6/97/119 87/7/86/103 
f 89/11/88/121 101/10/99/122 100/8/98/120 
f 89/11/88/121 100/8/98/120 88/9/87/105 
f 90/13/73/87 102/12/100/123 101/10/99/122 
f 90/13/73/87 101/10/99/122 89/11/88/121 
f 91/15/89/124 103/14/101/125 102/12/100/123 
f 91/15/89/124 102/12/100/123 90/13/73/87 
f 92/17/90/109 104/16/102/126 103/14/101/125 
f 92/17/90/109 103/14/101/125 91/15/89/124 
f 93/19/91/110 105/18/103/127 104/16/102/126 
f 93/19/91/110 104/16/102/126 92/17/90/109 
f 94/21/92/112 106/20/104/128 105/18/103/127 
f 94/21/92/112 105/18/103/127 93/19/91/110 
f 95/23/93/114 107/22/105/129 106/20/104/128 
f 95/23/93/114 106/20/104/128 94/21/92/112 
f 85/25/84/115 97/24/95/130 107/22/105/129 
f 85/25/84/115 107/22/105/129 95/23/93/114 
f 96/2/94/131 49/27/49/132 48/26/48/58 
f 96/2/94/131 48/26/48/58 97/3/95/133 
f 98/5/96/118 50/28/50/134 49/27/49/132 
f 98/5/96/118 49/27/49/132 96/2/94/131 
f 99/7/97/119 51/29/51/63 50/28/50/134 
f 99/7/97/119 50/28/50/134 98/5/96/118 
f 100/9/98/120 52/30/52/65 51/29/51/63 
f 100/9/98/120 51/29/51/63 99/7/97/119 
f 101/11/99/135 53/31/53/66 52/30/52/65 
f 101/11/99/135 52/30/52/65 100/9/98/120 
f 102/13/100/123 54/32/54/67 53/31/53/66 
f 102/13/100/123 53/31/53/66 101/11/99/135 
f 103/15/101/125 55/33/55/68 54/32/54/67 
f 103/15/101/125 54/32/54/67 102/13/100/123 
f 104/17/102/126 56/34/56/69 55/33/55/68 
f 104/17/102/126 55/33/55/68 103/15/101/125 
f 105/19/103/127 57/35/57/70 56/34/56/69 
f 105/19/103/127 56/34/56/69 104/17/102/126 
f 106/21/104/128 58/36/58/71 57/35/57/70 
f 106/21/104/128 57/35/57/70 105/19/103/127 
f 107/23/105/129 59/37/59/72 58/36/58/71 
f 107/23/105/129 58/36/58/71 106/21/104/128 
f 97/25/95/130 48/38/48/73 59/37/59/72 
f 97/25/95/130 59/37/59/72 107/23/105/129 
