v -92.332 687.1912 234.2518
v -92.7945 687.1912 233.7893
v -92.9693 687.1912 233.3672
v -34.9295 687.1912 234.4267
v -92.7945 687.1913 176.0702
v -92.9693 687.1912 231.995
v -92.9693 687.1913 177.644
v -92.9693 687.1913 176.4923
v -91.9099 687.1913 175.4329
v -92.332 687.1913 175.6077
v -34.5074 687.1913 175.6077
v -90.937 687.1913 175.4329
v -36.2474 687.1913 175.4329
v -34.9295 687.1913 175.4329
v -33.8701 687.1913 176.4923
v -34.0449 687.1913 176.0702
v -34.0449 687.1912 233.7893
v -33.8701 687.1913 177.6639
v -33.8701 687.1912 232.6107
v -33.8701 687.1912 233.3672
v -34.5074 687.1912 234.2518
v -35.3794 687.1912 234.4267
v -90.6288 687.1912 234.4267
v -91.9099 687.1912 234.4267
v -92.7945 695.6661 233.7893
v -92.332 695.6661 234.2518
v -91.9099 695.6661 234.4267
v -92.9693 695.6662 176.4923
v -34.5074 695.6661 234.2518
v -90.6288 695.6661 234.4267
v -35.3794 695.6661 234.4267
v -34.9295 695.6661 234.4267
v -33.8701 695.6661 233.3672
v -34.0449 695.6661 233.7893
v -34.0449 695.6662 176.0702
v -33.8701 695.6661 232.6107
v -33.8701 695.6662 177.6639
v -33.8701 695.6662 176.4923
v -34.9295 695.6662 175.4329
v -34.5074 695.6662 175.6077
v -92.332 695.6662 175.6077
v -36.2474 695.6662 175.4329
v -90.937 695.6662 175.4329
v -91.9099 695.6662 175.4329
v -92.7945 695.6662 176.0702
v -92.9693 695.6662 177.644
v -92.9693 695.6661 231.995
v -92.9693 695.6661 233.3672
v -90.6946 691.431 234.7734
v -91.9789 693.395 234.7734
v -91.9789 687.538 234.7734
v -90.6946 689.4669 234.7734
v -33.5233 691.431 232.6779
v -33.5233 693.395 233.4362
v -33.5233 687.538 233.4362
v -33.5233 689.4669 232.6779
v -33.7509 695.3193 233.9858
v -34.311 695.3193 234.5458
v -34.311 687.538 234.5458
v -33.7509 687.538 233.9858
v -93.0885 695.3193 233.9858
v -93.0885 687.538 233.9858
v -92.5284 687.538 234.5458
v -92.5284 695.3193 234.5458
v -34.311 695.3194 175.3137
v -33.7509 695.3194 175.8738
v -33.7509 687.5381 175.8738
v -34.311 687.5381 175.3137
v -34.8605 695.3193 234.7734
v -34.8605 693.395 234.7734
v -34.8605 687.538 234.7734
v -91.9789 695.3193 234.7734
v -33.5233 693.395 176.4233
v -33.5233 687.5381 176.4233
v -33.5233 695.3193 233.4362
v -93.3161 693.395 233.4362
v -93.3161 687.538 233.4362
v -93.3161 695.3193 233.4362
v -34.8605 693.395 175.0861
v -34.8605 687.5381 175.0861
v -33.5233 687.5381 177.5978
v -35.3115 687.538 234.7734
v -90.6946 695.3193 234.7734
v -33.5233 695.3193 232.6779
v -34.8605 695.3194 175.0861
v -33.5233 695.3194 176.4233
v -36.1816 691.431 175.0861
v -36.1816 689.467 175.0861
v -93.3161 691.431 177.5778
v -93.3161 693.395 176.4233
v -93.3161 687.5381 176.4233
v -93.3161 689.467 177.5778
v -93.0885 695.3194 175.8738
v -92.5284 695.3194 175.3137
v -92.5284 687.5381 175.3137
v -93.0885 687.5381 175.8738
v -91.9788 695.3194 175.0861
v -91.9788 693.395 175.0861
v -91.9788 687.5381 175.0861
v -93.3161 695.3194 176.4233
v -93.3161 687.538 232.0606
v -91.0037 687.5381 175.0861
v -36.1816 695.3194 175.0861
v -93.3161 695.3194 177.5778
v -35.3115 693.395 234.7734
v -33.5233 695.3194 177.5978
v -33.5233 693.395 177.5978
v -91.0037 693.395 175.0861
v -93.3161 693.395 232.0606
v -90.6946 687.538 234.7734
v -90.2124 689.4669 234.7734
v -35.3115 695.3193 234.7734
v -90.6946 693.395 234.7734
v -35.985 693.395 234.7734
v -35.985 691.431 232.0613
v -35.3115 691.431 234.7734
v -35.3115 689.4669 234.7734
v -33.5233 689.467 177.5978
v -33.5233 687.538 232.6779
v -33.5233 693.395 178.1215
v -35.4722 691.431 178.1215
v -33.5233 691.431 177.5978
v -33.5233 689.4669 231.9524
v -33.5233 693.395 232.6779
v -91.0037 689.467 175.0861
v -36.1816 687.5381 175.0861
v -91.0037 695.3194 175.0861
v -90.4338 693.395 175.0861
v -90.4338 691.431 177.069
v -91.0037 691.431 175.0861
v -36.8105 689.467 175.0861
v -36.1816 693.395 175.0861
v -93.3161 689.4669 232.0606
v -93.3161 687.5381 177.5778
v -93.3161 695.3193 232.0606
v -93.3161 693.395 231.4059
v -90.8644 691.431 231.4059
v -93.3161 691.431 232.0606
v -93.3161 689.467 178.0819
v -93.3161 693.395 177.5778
v -90.2124 691.431 232.0613
v -35.4722 691.431 231.9524
v -36.8105 691.431 177.069
v -90.8644 691.431 178.0819
v -93.3161 693.395 178.0819
v -93.3161 689.4669 231.4059
v -36.8105 693.395 175.0861
v -90.4338 689.467 175.0861
v -33.5233 693.395 231.9524
v -33.5233 689.467 178.1215
v -90.2124 693.395 234.7734
v -35.985 689.4669 234.7734
gi 0 0 0 0
gi 0 0 0 0
gi 0 0 0 0
gi 0 0 0 0
gi 0 0 0 0
gi 0 0 0 0
gi 0 0 0 0
gi 0 0 0 0
gi 0 0 0 0
gi 0 0 0 0
gi 0 0 0 0
gi 0 0 0 0
gi 0 0 0 0
gi 0 0 0 0
gi 0 0 0 0
gi 0 0 0 0
gi 0 0 0 0
gi 0 0 0 0
gi 0 0 0 0
gi 0 0 0 0
gi 0 0 0 0
gi 0 0 0 0
gi 0 0 0 0
gi 0 0 0 0
gi 0 0 0 0
gi 0 0 0 0
gi 0 0 0 0
gi 0 0 0 0
gi 0 0 0 0
gi 0 0 0 0
gi 0 0 0 0
gi 0 0 0 0
gi 0 0 0 0
gi 0 0 0 0
gi 0 0 0 0
gi 0 0 0 0
gi 0 0 0 0
gi 0 0 0 0
gi 0 0 0 0
gi 0 0 0 0
gi 0 0 0 0
gi 0 0 0 0
gi 0 0 0 0
gi 0 0 0 0
gi 0 0 0 0
gi 0 0 0 0
gi 0 0 0 0
gi 0 0 0 0
gi 0 0 0 0
gi 0 0 0 0
gi 0 0 0 0
gi 0 0 0 0
gi 0 0 0 0
gi 0 0 0 0
gi 0 0 0 0
gi 0 0 0 0
gi 0 0 0 0
gi 0 0 0 0
gi 0 0 0 0
gi 0 0 0 0
gi 0 0 0 0
gi 0 0 0 0
gi 0 0 0 0
gi 0 0 0 0
gi 0 0 0 0
gi 0 0 0 0
gi 0 0 0 0
gi 0 0 0 0
gi 0 0 0 0
gi 0 0 0 0
gi 0 0 0 0
gi 0 0 0 0
gi 0 0 0 0
gi 0 0 0 0
gi 0 0 0 0
gi 0 0 0 0
gi 0 0 0 0
gi 0 0 0 0
gi 0 0 0 0
gi 0 0 0 0
gi 0 0 0 0
gi 0 0 0 0
gi 0 0 0 0
gi 0 0 0 0
gi 0 0 0 0
gi 0 0 0 0
gi 0 0 0 0
gi 0 0 0 0
gi 0 0 0 0
gi 0 0 0 0
gi 0 0 0 0
gi 0 0 0 0
gi 0 0 0 0
gi 0 0 0 0
gi 0 0 0 0
gi 0 0 0 0
gi 0 0 0 0
gi 0 0 0 0
gi 0 0 0 0
gi 0 0 0 0
gi 0 0 0 0
gi 0 0 0 0
gi 0 0 0 0
gi 0 0 0 0
gi 0 0 0 0
gi 0 0 0 0
gi 0 0 0 0
gi 0 0 0 0
gi 0 0 0 0
gi 0 0 0 0
gi 0 0 0 0
gi 0 0 0 0
gi 0 0 0 0
gi 0 0 0 0
gi 0 0 0 0
gi 0 0 0 0
gi 0 0 0 0
gi 0 0 0 0
gi 0 0 0 0
gi 0 0 0 0
gi 0 0 0 0
gi 0 0 0 0
gi 0 0 0 0
gi 0 0 0 0
gi 0 0 0 0
gi 0 0 0 0
gi 0 0 0 0
gi 0 0 0 0
gi 0 0 0 0
gi 0 0 0 0
gi 0 0 0 0
gi 0 0 0 0
gi 0 0 0 0
gi 0 0 0 0
gi 0 0 0 0
gi 0 0 0 0
gi 0 0 0 0
gi 0 0 0 0
gi 0 0 0 0
gi 0 0 0 0
gi 0 0 0 0
gi 0 0 0 0
gi 0 0 0 0
gi 0 0 0 0
gi 0 0 0 0
gi 0 0 0 0
gi 0 0 0 0
gi 0 0 0 0
gi 0 0 0 0
gi 0 0 0 0
gi 0 0 0 0
gi 0 0 0 0
gw 0.0 0.0 0.0 0.0
gw 0.0 0.0 0.0 0.0
gw 0.0 0.0 0.0 0.0
gw 0.0 0.0 0.0 0.0
gw 0.0 0.0 0.0 0.0
gw 0.0 0.0 0.0 0.0
gw 0.0 0.0 0.0 0.0
gw 0.0 0.0 0.0 0.0
gw 0.0 0.0 0.0 0.0
gw 0.0 0.0 0.0 0.0
gw 0.0 0.0 0.0 0.0
gw 0.0 0.0 0.0 0.0
gw 0.0 0.0 0.0 0.0
gw 0.0 0.0 0.0 0.0
gw 0.0 0.0 0.0 0.0
gw 0.0 0.0 0.0 0.0
gw 0.0 0.0 0.0 0.0
gw 0.0 0.0 0.0 0.0
gw 0.0 0.0 0.0 0.0
gw 0.0 0.0 0.0 0.0
gw 0.0 0.0 0.0 0.0
gw 0.0 0.0 0.0 0.0
gw 0.0 0.0 0.0 0.0
gw 0.0 0.0 0.0 0.0
gw 0.0 0.0 0.0 0.0
gw 0.0 0.0 0.0 0.0
gw 0.0 0.0 0.0 0.0
gw 0.0 0.0 0.0 0.0
gw 0.0 0.0 0.0 0.0
gw 0.0 0.0 0.0 0.0
gw 0.0 0.0 0.0 0.0
gw 0.0 0.0 0.0 0.0
gw 0.0 0.0 0.0 0.0
gw 0.0 0.0 0.0 0.0
gw 0.0 0.0 0.0 0.0
gw 0.0 0.0 0.0 0.0
gw 0.0 0.0 0.0 0.0
gw 0.0 0.0 0.0 0.0
gw 0.0 0.0 0.0 0.0
gw 0.0 0.0 0.0 0.0
gw 0.0 0.0 0.0 0.0
gw 0.0 0.0 0.0 0.0
gw 0.0 0.0 0.0 0.0
gw 0.0 0.0 0.0 0.0
gw 0.0 0.0 0.0 0.0
gw 0.0 0.0 0.0 0.0
gw 0.0 0.0 0.0 0.0
gw 0.0 0.0 0.0 0.0
gw 0.0 0.0 0.0 0.0
gw 0.0 0.0 0.0 0.0
gw 0.0 0.0 0.0 0.0
gw 0.0 0.0 0.0 0.0
gw 0.0 0.0 0.0 0.0
gw 0.0 0.0 0.0 0.0
gw 0.0 0.0 0.0 0.0
gw 0.0 0.0 0.0 0.0
gw 0.0 0.0 0.0 0.0
gw 0.0 0.0 0.0 0.0
gw 0.0 0.0 0.0 0.0
gw 0.0 0.0 0.0 0.0
gw 0.0 0.0 0.0 0.0
gw 0.0 0.0 0.0 0.0
gw 0.0 0.0 0.0 0.0
gw 0.0 0.0 0.0 0.0
gw 0.0 0.0 0.0 0.0
gw 0.0 0.0 0.0 0.0
gw 0.0 0.0 0.0 0.0
gw 0.0 0.0 0.0 0.0
gw 0.0 0.0 0.0 0.0
gw 0.0 0.0 0.0 0.0
gw 0.0 0.0 0.0 0.0
gw 0.0 0.0 0.0 0.0
gw 0.0 0.0 0.0 0.0
gw 0.0 0.0 0.0 0.0
gw 0.0 0.0 0.0 0.0
gw 0.0 0.0 0.0 0.0
gw 0.0 0.0 0.0 0.0
gw 0.0 0.0 0.0 0.0
gw 0.0 0.0 0.0 0.0
gw 0.0 0.0 0.0 0.0
gw 0.0 0.0 0.0 0.0
gw 0.0 0.0 0.0 0.0
gw 0.0 0.0 0.0 0.0
gw 0.0 0.0 0.0 0.0
gw 0.0 0.0 0.0 0.0
gw 0.0 0.0 0.0 0.0
gw 0.0 0.0 0.0 0.0
gw 0.0 0.0 0.0 0.0
gw 0.0 0.0 0.0 0.0
gw 0.0 0.0 0.0 0.0
gw 0.0 0.0 0.0 0.0
gw 0.0 0.0 0.0 0.0
gw 0.0 0.0 0.0 0.0
gw 0.0 0.0 0.0 0.0
gw 0.0 0.0 0.0 0.0
gw 0.0 0.0 0.0 0.0
gw 0.0 0.0 0.0 0.0
gw 0.0 0.0 0.0 0.0
gw 0.0 0.0 0.0 0.0
gw 0.0 0.0 0.0 0.0
gw 0.0 0.0 0.0 0.0
gw 0.0 0.0 0.0 0.0
gw 0.0 0.0 0.0 0.0
gw 0.0 0.0 0.0 0.0
gw 0.0 0.0 0.0 0.0
gw 0.0 0.0 0.0 0.0
gw 0.0 0.0 0.0 0.0
gw 0.0 0.0 0.0 0.0
gw 0.0 0.0 0.0 0.0
gw 0.0 0.0 0.0 0.0
gw 0.0 0.0 0.0 0.0
gw 0.0 0.0 0.0 0.0
gw 0.0 0.0 0.0 0.0
gw 0.0 0.0 0.0 0.0
gw 0.0 0.0 0.0 0.0
gw 0.0 0.0 0.0 0.0
gw 0.0 0.0 0.0 0.0
gw 0.0 0.0 0.0 0.0
gw 0.0 0.0 0.0 0.0
gw 0.0 0.0 0.0 0.0
gw 0.0 0.0 0.0 0.0
gw 0.0 0.0 0.0 0.0
gw 0.0 0.0 0.0 0.0
gw 0.0 0.0 0.0 0.0
gw 0.0 0.0 0.0 0.0
gw 0.0 0.0 0.0 0.0
gw 0.0 0.0 0.0 0.0
gw 0.0 0.0 0.0 0.0
gw 0.0 0.0 0.0 0.0
gw 0.0 0.0 0.0 0.0
gw 0.0 0.0 0.0 0.0
gw 0.0 0.0 0.0 0.0
gw 0.0 0.0 0.0 0.0
gw 0.0 0.0 0.0 0.0
gw 0.0 0.0 0.0 0.0
gw 0.0 0.0 0.0 0.0
gw 0.0 0.0 0.0 0.0
gw 0.0 0.0 0.0 0.0
gw 0.0 0.0 0.0 0.0
gw 0.0 0.0 0.0 0.0
gw 0.0 0.0 0.0 0.0
gw 0.0 0.0 0.0 0.0
gw 0.0 0.0 0.0 0.0
gw 0.0 0.0 0.0 0.0
gw 0.0 0.0 0.0 0.0
gw 0.0 0.0 0.0 0.0
gw 0.0 0.0 0.0 0.0
gw 0.0 0.0 0.0 0.0
gw 0.0 0.0 0.0 0.0
gw 0.0 0.0 0.0 0.0
gw 0.0 0.0 0.0 0.0
gw 0.0 0.0 0.0 0.0
vt 0.9853 0.6631
vt 0.9879 0.6656
vt 0.9888 0.6679
vt 0.6734 0.6622
vt 0.9879 0.9792
vt 0.9888 0.6754
vt 0.9888 0.9706
vt 0.9888 0.9769
vt 0.9831 0.9826
vt 0.9853 0.9817
vt 0.6713 0.9817
vt 0.9778 0.9826
vt 0.6807 0.9826
vt 0.6736 0.9826
vt 0.6678 0.9769
vt 0.6687 0.9792
vt 0.6687 0.6656
vt 0.6678 0.9705
vt 0.6678 0.672
vt 0.6678 0.6679
vt 0.6713 0.6631
vt 0.6758 0.6622
vt 0.9761 0.6621
vt 0.9831 0.6621
vt 0.5626 0.7873
vt 0.5616 0.7884
vt 0.5606 0.7888
vt 0.5631 0.6536
vt 0.4266 0.7884
vt 0.5577 0.7888
vt 0.4286 0.7888
vt 0.4276 0.7888
vt 0.4252 0.7863
vt 0.4256 0.7873
vt 0.4256 0.6526
vt 0.4252 0.7845
vt 0.4252 0.6563
vt 0.4252 0.6536
vt 0.4276 0.6511
vt 0.4266 0.6515
vt 0.5616 0.6515
vt 0.4307 0.6511
vt 0.5583 0.6511
vt 0.5606 0.6511
vt 0.5626 0.6526
vt 0.5631 0.6563
vt 0.5631 0.7831
vt 0.5631 0.7863
vt 0.0347 0.6166
vt 0.045 0.6233
vt 0.0143 0.6233
vt 0.0244 0.6166
vt 0.0347 0.3112
vt 0.045 0.3152
vt 0.0143 0.3152
vt 0.0244 0.3112
vt 0.0551 0.3181
vt 0.0551 0.321
vt 0.0143 0.321
vt 0.0143 0.3181
vt 0.0551 0.6291
vt 0.0143 0.6291
vt 0.0143 0.6262
vt 0.0551 0.6262
vt 0.0551 0.0105
vt 0.0551 0.0134
vt 0.0143 0.0134
vt 0.0143 0.0105
vt 0.0551 0.3239
vt 0.045 0.3239
vt 0.0143 0.3239
vt 0.0551 0.6233
vt 0.045 0.0163
vt 0.0143 0.0163
vt 0.0551 0.3152
vt 0.045 0.632
vt 0.0143 0.632
vt 0.0551 0.632
vt 0.045 0.0076
vt 0.0143 0.0076
vt 0.0124 0.0165
vt 0.0143 0.0224
vt 0.0124 0.0226
vt 0.0125 0.3241
vt 0.0143 0.3262
vt 0.0125 0.3264
vt 0.0569 0.6231
vt 0.0551 0.6166
vt 0.0569 0.6164
vt 0.057 0.3151
vt 0.0551 0.3112
vt 0.057 0.3112
vt 0.0125 0.6292
vt 0.0125 0.6262
vt 0.0126 0.321
vt 0.0126 0.318
vt 0.0122 0.0134
vt 0.0125 0.0104
vt 0.0569 0.6262
vt 0.0572 0.6292
vt 0.057 0.318
vt 0.0568 0.321
vt 0.0572 0.0104
vt 0.0572 0.0134
vt 0.0126 0.623
vt 0.0576 0.0079
vt 0.0551 0.0076
vt 0.0126 0.6317
vt 0.0125 0.3152
vt 0.0126 0.0079
vt 0.0571 0.6317
vt 0.0569 0.3241
vt 0.0572 0.0163
vt 0.0551 0.0163
vt 0.0347 0.6164
vt 0.0244 0.6164
vt 0.0347 0.3091
vt 0.0244 0.3091
vt 0.0143 0.0235
vt 0.0124 0.0237
vt 0.0143 0.329
vt 0.0125 0.3292
vt 0.0551 0.6164
vt 0.0569 0.6162
vt 0.0551 0.3091
vt 0.057 0.3091
vt 0.045 0.3262
vt 0.0551 0.0224
vt 0.045 0.0224
vt 0.045 0.329
vt 0.045 0.0235
vt 0.0143 0.6166
vt 0.0244 0.6141
vt 0.0126 0.6163
vt 0.0551 0.3262
vt 0.0569 0.3265
vt 0.045 0.6166
vt 0.045 0.3298
vt 0.0347 0.3298
vt 0.0347 0.3262
vt 0.0244 0.3262
vt 0.0244 0.0224
vt 0.0143 0.3112
vt 0.0125 0.3112
vt 0.0572 0.0225
vt 0.045 0.0252
vt 0.0347 0.0252
vt 0.0347 0.0224
vt 0.0244 0.3074
vt 0.045 0.3112
vt 0.0244 0.329
vt 0.0143 0.6164
vt 0.0126 0.6161
vt 0.0551 0.329
vt 0.0569 0.3292
vt 0.045 0.332
vt 0.0347 0.332
vt 0.0347 0.329
vt 0.0244 0.6131
vt 0.045 0.6164
vt 0.0244 0.0235
vt 0.0143 0.3091
vt 0.0125 0.3091
vt 0.0551 0.0235
vt 0.0572 0.0235
vt 0.045 0.0269
vt 0.0347 0.0269
vt 0.0347 0.0235
vt 0.0244 0.3065
vt 0.045 0.3091
vt 0.0347 0.6141
vt 0.0347 0.3074
vt 0.0347 0.6131
vt 0.0347 0.3065
vt 0.045 0.3065
vt 0.0244 0.0269
vt 0.045 0.6131
vt 0.0244 0.332
vt 0.045 0.3074
vt 0.0244 0.0252
vt 0.045 0.6141
vt 0.0244 0.3298
vn -0.2318 -0.9088 0.3469
vn -0.3469 -0.9088 0.2319
vn -0.4092 -0.9088 0.0814
vn 0.0814 -0.9088 0.4093
vn -0.3469 -0.9088 -0.2318
vn -0.3827 -0.9239 -0.0
vn -0.3827 -0.9239 -0.0
vn -0.4092 -0.9088 -0.0813
vn -0.0814 -0.9088 -0.4092
vn -0.2318 -0.9088 -0.3469
vn 0.2318 -0.9088 -0.3469
vn 0.0 -0.9239 -0.3827
vn 0.0 -0.9239 -0.3827
vn 0.0814 -0.9089 -0.409
vn 0.4092 -0.9088 -0.0814
vn 0.3469 -0.9087 -0.232
vn 0.3469 -0.9088 0.2318
vn 0.3827 -0.9239 -0.0
vn 0.3827 -0.9239 -0.0
vn 0.4092 -0.9088 0.0814
vn 0.2318 -0.9087 0.3471
vn 0.0 -0.9239 0.3827
vn 0.0 -0.9238 0.3828
vn -0.0814 -0.9088 0.4093
vn -0.3469 0.9088 0.2318
vn -0.2318 0.9088 0.3469
vn -0.0814 0.9088 0.4093
vn -0.4092 0.9088 -0.0814
vn 0.2318 0.9088 0.3469
vn -0.0 0.9239 0.3827
vn 0.0 0.9238 0.3828
vn 0.0814 0.9088 0.4091
vn 0.4092 0.9088 0.0814
vn 0.3469 0.9088 0.2319
vn 0.3469 0.9088 -0.2319
vn 0.3827 0.9239 0.0
vn 0.3827 0.9239 0.0
vn 0.4092 0.9088 -0.0814
vn 0.0814 0.9088 -0.4092
vn 0.2318 0.9087 -0.3471
vn -0.2318 0.9088 -0.3469
vn 0.0 0.9239 -0.3827
vn 0.0 0.9238 -0.383
vn -0.0814 0.9087 -0.4095
vn -0.3469 0.9088 -0.2318
vn -0.3825 0.9239 0.0
vn -0.3827 0.9239 0.0
vn -0.4092 0.9088 0.0814
vn 0.5691 -0.0 0.8223
vn -0.1951 0.0 0.9808
vn -0.1812 -0.3709 0.9108
vn 0.2652 0.0651 0.962
vn 0.8983 0.0 -0.4393
vn 0.9808 0.0 0.1951
vn 0.9108 -0.371 0.1811
vn 0.9747 0.0774 -0.2096
vn 0.7721 0.371 0.5159
vn 0.5159 0.371 0.7721
vn 0.5159 -0.371 0.7721
vn 0.7721 -0.371 0.5159
vn -0.7721 0.371 0.5159
vn -0.7721 -0.371 0.5159
vn -0.5159 -0.371 0.7722
vn -0.5159 0.3709 0.7722
vn 0.5159 0.371 -0.7721
vn 0.7721 0.371 -0.5159
vn 0.7722 -0.371 -0.5159
vn 0.5159 -0.3709 -0.7722
vn 0.1812 0.371 0.9108
vn 0.1951 0.0 0.9808
vn 0.1812 -0.3709 0.9108
vn -0.1812 0.3709 0.9108
vn 0.9808 0.0 -0.1951
vn 0.9108 -0.371 -0.1812
vn 0.9108 0.371 0.1811
vn -0.9808 0.0 0.195
vn -0.9108 -0.371 0.1812
vn -0.9108 0.371 0.1811
vn 0.1951 0.0 -0.9808
vn 0.1812 -0.371 -0.9108
vn 0.9239 -0.3827 -0.0
vn 0.0 -0.3826 0.9239
vn 0.0 0.3826 0.9239
vn 0.9239 0.3827 0.0
vn 0.1811 0.3709 -0.9108
vn 0.9108 0.371 -0.1812
vn -0.4733 0.0 -0.8809
vn -0.225 0.072 -0.9717
vn -0.8358 -0.0 0.549
vn -0.9808 0.0 -0.1951
vn -0.9108 -0.371 -0.1811
vn -0.9641 0.066 0.2572
vn -0.7722 0.371 -0.5159
vn -0.5159 0.371 -0.7722
vn -0.5159 -0.371 -0.7722
vn -0.7721 -0.371 -0.5159
vn -0.1811 0.371 -0.9108
vn -0.195 0.0 -0.9808
vn -0.1811 -0.371 -0.9108
vn -0.9108 0.371 -0.1812
vn -0.9239 -0.3827 0.0
vn 0.0 -0.3827 -0.9239
vn 0.0 0.3827 -0.9239
vn -0.9239 0.3827 0.0
vn -0.2414 -0.0828 0.9669
vn 0.9239 0.3827 0.0
vn 0.9687 -0.0639 0.2398
vn 0.2339 -0.0678 -0.9699
vn -0.9683 -0.079 -0.2371
vn 0.0 -0.3826 0.9239
vn 0.2844 0.3209 0.9034
vn 0.0 0.3826 0.9239
vn 0.2652 -0.0651 0.962
vn -0.2577 -0.3323 0.9073
vn -0.4281 0.0 0.9037
vn -0.5149 0.0 0.8572
vn -0.2414 0.0828 0.9669
vn 0.9687 0.0639 0.2398
vn 0.9239 -0.3827 -0.0
vn 0.9287 -0.2731 0.2509
vn 0.9042 -0.0 0.4271
vn 0.8624 -0.0 0.5062
vn 0.9344 0.2812 -0.2187
vn 0.9747 -0.0774 -0.2096
vn 0.2339 0.0678 -0.9699
vn 0.0 -0.3827 -0.9239
vn 0.0 0.3827 -0.9239
vn 0.2448 -0.2781 -0.9289
vn 0.4171 -0.0 -0.9089
vn 0.4931 0.0 -0.87
vn -0.2353 0.2806 -0.9305
vn -0.225 -0.072 -0.9717
vn -0.9683 0.0791 -0.2371
vn -0.9239 -0.3827 -0.0
vn -0.9239 0.3827 0.0
vn -0.9149 -0.3158 -0.2514
vn -0.9069 0.0 -0.4213
vn -0.864 -0.0 -0.5035
vn -0.9113 0.3076 0.2736
vn -0.9641 -0.066 0.2572
vn 0.4649 -0.0 0.8854
vn 0.9258 -0.0 -0.378
vn -0.4026 -0.0 -0.9154
vn -0.8916 -0.0 0.4529
vn -0.9113 -0.3076 0.2736
vn -0.9149 0.3158 -0.2514
vn -0.2353 -0.2806 -0.9305
vn 0.2448 0.278 -0.9288
vn 0.9344 -0.2813 -0.2187
vn 0.9287 0.2732 0.2509
vn 0.2845 -0.3209 0.9034
vn -0.2577 0.3323 0.9073
vtan -0.9728 0.2163 -0.0835
vtan -0.9378 0.3326 -0.0993
vtan -0.9124 0.4076 -0.0357
vtan -0.9967 -0.0717 0.0392
vtan -0.9378 0.3333 0.0969
vtan -0.8685 0.3597 0.341
vtan -0.9224 0.3821 -0.057
vtan -0.9124 0.4066 0.0466
vtan -0.9967 0.0717 0.0391
vtan -0.9723 0.2054 0.1117
vtan -0.9728 -0.2163 -0.0834
vtan -1.0 0.0 -0.0
vtan -1.0 0.0 0.0
vtan -0.9967 -0.0742 -0.0334
vtan -0.9124 -0.4076 -0.0359
vtan -0.9378 -0.3327 -0.0993
vtan -0.9378 -0.3332 0.0972
vtan -0.8774 -0.3635 0.3131
vtan -0.9239 -0.3827 0.0025
vtan -0.9123 -0.4088 0.0223
vtan -0.9723 -0.2052 0.1121
vtan -1.0 -0.0 0.0
vtan -1.0 -0.0001 -0.0003
vtan -0.9967 0.0743 -0.0334
vtan -0.9379 -0.3383 -0.0772
vtan -0.9724 -0.2075 -0.1064
vtan -0.9967 -0.0742 -0.0335
vtan -0.9124 -0.4077 0.035
vtan -0.9728 0.2167 0.0824
vtan -1.0 -0.0 0.0
vtan -0.9967 0.0742 0.0334
vtan -0.9124 0.408 0.0312
vtan -0.9379 0.3379 0.079
vtan -0.9378 0.3384 -0.0771
vtan -0.613 0.2539 -0.7482
vtan -0.923 0.3823 -0.0448
vtan -0.91 0.413 0.0371
vtan -0.9967 0.0742 -0.0334
vtan -0.9725 0.2075 -0.106
vtan -0.9728 -0.2167 0.0824
vtan -1.0 0.0 0.0
vtan -0.9967 -0.0742 0.0334
vtan -0.9379 -0.3379 0.079
vtan -0.4787 -0.1982 -0.8553
vtan -0.9232 -0.3824 0.0371
vtan -0.9116 -0.4109 0.0052
vtan -0.0 1.0 0.0
vtan 0.0 1.0 0.0
vtan -0.0669 0.9286 0.3649
vtan -0.0173 0.9979 -0.0628
vtan 0.0 1.0 0.0
vtan 0.3578 0.9282 0.1019
vtan -0.0757 0.997 0.0163
vtan -0.3402 0.9271 -0.1575
vtan -0.233 0.9281 -0.2903
vtan 0.1687 0.9277 0.333
vtan 0.3029 0.9286 0.2145
vtan 0.3029 0.9286 -0.2145
vtan -0.3296 0.928 0.174
vtan -0.233 0.9282 0.2903
vtan 0.1687 0.9277 -0.333
vtan -0.1739 0.9279 0.3297
vtan -0.2902 0.9282 0.233
vtan 0.333 0.9277 -0.1687
vtan 0.2144 0.9286 -0.3029
vtan -0.0795 0.9286 -0.3624
vtan 0.0319 0.9279 0.3715
vtan 0.0323 0.9279 -0.3714
vtan 0.3715 0.9279 -0.0322
vtan -0.3677 0.9285 -0.0524
vtan -0.3507 0.9268 0.1347
vtan 0.3451 0.925 -0.1591
vtan 0.1591 0.925 -0.3451
vtan 0.8923 0.4172 -0.1724
vtan 0.3825 0.9234 -0.0322
vtan 0.9222 0.382 -0.0608
vtan 0.1718 0.4173 0.8924
vtan 0.0339 0.9234 0.3824
vtan 0.0643 0.382 0.9219
vtan 0.1726 0.4173 -0.8922
vtan 0.0302 0.9235 -0.3824
vtan 0.0606 0.382 -0.9222
vtan -0.8854 0.417 -0.2052
vtan -0.3817 0.9216 -0.07
vtan -0.914 0.3786 -0.1461
vtan -0.75 0.4172 0.5132
vtan -0.4366 0.4159 0.7978
vtan 0.5505 0.4167 0.7234
vtan 0.806 0.4153 0.4218
vtan 0.7234 0.4167 -0.5506
vtan 0.4431 0.4161 -0.7941
vtan 0.5505 0.4166 -0.7234
vtan 0.794 0.4161 -0.4432
vtan -0.7485 0.4172 -0.5154
vtan -0.4415 0.4161 -0.795
vtan -0.513 0.4174 0.7501
vtan -0.7885 0.4165 0.4525
vtan -0.0721 0.415 0.907
vtan -0.3543 0.4102 0.8404
vtan -0.1347 0.9268 0.3506
vtan -0.8403 0.4101 0.3544
vtan 0.8915 0.4172 0.1767
vtan 0.2909 0.4141 -0.8625
vtan 0.8624 0.4143 -0.2909
vtan -0.096 0.4157 -0.9044
vtan -0.8924 0.4172 0.1722
vtan -0.3568 0.9281 0.1068
vtan 0.0 1.0 -0.0
vtan 0.014 0.927 -0.3748
vtan 0.0162 0.9974 0.0702
vtan -0.0 1.0 -0.0
vtan -0.3578 0.9282 -0.1019
vtan 0.0638 0.9978 -0.017
vtan 0.3402 0.9271 0.1574
vtan 0.233 0.9282 0.2903
vtan -0.1687 0.9277 -0.333
vtan -0.3029 0.9286 -0.2144
vtan 0.0799 0.9286 0.3623
vtan -0.0323 0.9279 -0.3715
vtan 0.3677 0.9285 0.0525
vtan -0.9044 0.4158 0.0956
vtan -0.3713 0.9279 0.0335
vtan -0.3825 0.9235 0.03
vtan -0.9222 0.382 0.06
vtan -0.1726 0.4172 -0.8923
vtan -0.0321 0.9234 -0.3825
vtan -0.0627 0.3819 -0.9221
vtan -0.0954 0.4158 0.9044
vtan -0.0334 0.9279 0.3712
vtan -0.0309 0.9234 0.3825
vtan -0.0605 0.382 0.9222
vtan 0.8859 0.4171 0.2029
vtan 0.3818 0.9217 0.0693
vtan 0.9143 0.3785 0.1438
vtan -0.5505 0.4166 -0.7234
vtan -0.8061 0.4153 -0.4216
vtan 0.7486 0.4172 0.5153
vtan 0.4414 0.4161 0.795
vtan -0.8915 0.4172 -0.1766
vtan 0.1061 0.4164 0.903
vtan -0.0201 0.9966 0.0803
vtan -0.3821 0.9225 0.0556
vtan 0.062 0.998 0.0154
vtan 0.0159 0.9977 -0.066
vtan 0.3638 0.9286 -0.0724
vtan -0.0768 0.9969 -0.0188
vtan -0.009 0.9239 0.3826
vtan -0.0106 0.9433 -0.3318
vtan -0.0189 0.3827 0.9237
vtan -0.0192 0.9237 -0.3826
vtan -0.0246 0.3827 -0.9236
vtan 0.0173 0.9979 0.0628
vtan -0.0117 0.94 0.341
vtan 0.0 1.0 -0.0
vtan 0.0 1.0 0.0
vtan 0.0201 0.9966 -0.0803
vtan -0.062 0.998 -0.0154
vtan 0.3816 0.9214 0.0735
vtan 0.9139 0.3785 0.1467
vtan -0.9189 0.3806 0.1035
vtan 0.2792 0.9602 0.0119
vtan 0.0 1.0 -0.0
vtan 0.0 1.0 -0.0
vtan -0.2865 0.9581 0.0081
vtan 0.0757 0.997 -0.0163
vtan -0.0159 0.9977 0.0659
vtan 0.0098 0.9238 -0.3827
vtan 0.0189 0.3826 -0.9237
vtan 0.0319 0.9234 0.3826
vtan 0.0629 0.3822 0.9219
vtan 0.0103 0.9587 -0.2843
vtan 0.0 1.0 -0.0
vtan -0.0 1.0 0.0
vtan 0.0094 0.958 0.2865
vtan 0.0544 0.4138 -0.9087
vtan -0.0163 0.9974 -0.0702
vtan 0.0768 0.9969 0.0188
vtan -0.3817 0.9215 -0.0717
vtan -0.9142 0.3787 -0.1446
vtan 0.3817 0.9215 -0.0712
vtan 0.8916 0.4172 -0.176
vtan 0.9143 0.3787 -0.1433
vtan -0.3241 0.946 -0.0088
vtan -0.0 1.0 0.0
vtan -0.0 1.0 0.0
vtan 0.3171 0.9483 -0.01
vtan -0.0638 0.9978 0.017
vtan 0.0 1.0 0.0
vtan 0.0 1.0 -0.0
vtan -0.0 1.0 -0.0
vtan -0.0 1.0 0.0
vtan -0.3171 0.9483 0.0101
vtan 0.324 0.946 0.0089
vtan -0.0094 0.958 -0.2865
vtan -0.0103 0.9587 0.2843
vtan 0.2865 0.958 -0.008
vtan -0.2792 0.9602 -0.0118
vtan 0.0105 0.9433 0.3318
vtan 0.0116 0.94 -0.3409
f 0/0/0/0 1/1/1/1 2/2/2/2 
f 0/0/0/0 2/2/2/2 3/3/3/3 
f 4/4/4/4 5/5/5/5 6/6/6/6 
f 4/4/4/4 6/6/6/6 7/7/7/7 
f 5/5/5/5 4/4/4/4 8/8/8/8 
f 5/5/5/5 8/8/8/8 2/2/2/2 
f 4/4/4/4 9/9/9/9 8/8/8/8 
f 10/10/10/10 11/11/11/11 12/12/12/12 
f 10/10/10/10 12/12/12/12 13/13/13/13 
f 11/11/11/11 10/10/10/10 14/14/14/14 
f 11/11/11/11 14/14/14/14 8/8/8/8 
f 10/10/10/10 15/15/15/15 14/14/14/14 
f 8/8/8/8 14/14/14/14 3/3/3/3 
f 8/8/8/8 3/3/3/3 2/2/2/2 
f 16/16/16/16 17/17/17/17 18/18/18/18 
f 16/16/16/16 18/18/18/18 19/19/19/19 
f 17/17/17/17 16/16/16/16 3/3/3/3 
f 17/17/17/17 3/3/3/3 14/14/14/14 
f 16/16/16/16 20/20/20/20 3/3/3/3 
f 0/0/0/0 3/3/3/3 21/21/21/21 
f 0/0/0/0 21/21/21/21 22/22/22/22 
f 23/23/23/23 0/0/0/0 22/22/22/22 
f 24/24/24/24 25/25/25/25 26/26/26/26 
f 24/24/24/24 26/26/26/26 27/27/27/27 
f 28/28/28/28 29/29/29/29 30/30/30/12 
f 28/28/28/28 30/30/30/12 31/31/31/30 
f 29/29/29/29 28/28/28/28 32/32/32/31 
f 29/29/29/29 32/32/32/31 26/26/26/26 
f 28/28/28/28 33/33/33/32 32/32/32/31 
f 34/34/34/33 35/35/35/34 36/36/36/35 
f 34/34/34/33 36/36/36/35 37/37/37/36 
f 35/35/35/34 34/34/34/33 38/38/38/37 
f 35/35/35/34 38/38/38/37 32/32/32/31 
f 34/34/34/33 39/39/39/38 38/38/38/37 
f 32/32/32/31 38/38/38/37 27/27/27/27 
f 32/32/32/31 27/27/27/27 26/26/26/26 
f 40/40/40/39 41/41/41/40 42/42/42/12 
f 40/40/40/39 42/42/42/12 43/43/43/41 
f 41/41/41/40 40/40/40/39 27/27/27/27 
f 41/41/41/40 27/27/27/27 38/38/38/37 
f 40/40/40/39 44/44/44/42 27/27/27/27 
f 45/45/45/43 46/46/46/44 24/24/24/24 
f 45/45/45/43 24/24/24/24 27/27/27/27 
f 47/47/47/45 24/24/24/24 46/46/46/44 
f 48/48/48/46 49/49/49/47 50/50/50/48 
f 48/48/48/46 50/50/50/48 51/51/51/49 
f 52/52/52/50 53/53/53/47 54/54/54/51 
f 52/52/52/50 54/54/54/51 55/55/55/52 
f 56/56/56/53 57/57/57/54 58/58/58/55 
f 56/56/56/53 58/58/58/55 59/59/59/56 
f 60/60/60/57 61/61/61/58 62/62/62/59 
f 60/60/60/57 62/62/62/59 63/63/63/60 
f 64/64/64/61 65/65/65/62 66/66/66/63 
f 64/64/64/61 66/66/66/63 67/67/67/64 
f 57/57/57/54 68/68/68/65 69/69/69/47 
f 57/57/57/54 69/69/69/47 58/58/58/55 
f 70/70/70/66 58/58/58/55 69/69/69/47 
f 62/62/62/59 50/50/50/48 49/49/49/47 
f 62/62/62/59 49/49/49/47 63/63/63/60 
f 71/71/71/67 63/63/63/60 49/49/49/47 
f 66/66/66/63 65/65/65/62 72/72/72/47 
f 66/66/66/63 72/72/72/47 73/73/73/68 
f 56/56/56/53 54/54/54/51 53/53/53/47 
f 56/56/56/53 53/53/53/47 74/74/74/69 
f 59/59/59/56 54/54/54/51 56/56/56/53 
f 75/75/75/47 76/76/76/70 60/60/60/57 
f 75/75/75/47 60/60/60/57 77/77/77/71 
f 60/60/60/57 76/76/76/70 61/61/61/58 
f 78/78/78/47 64/64/64/61 67/67/67/64 
f 78/78/78/47 67/67/67/64 79/79/79/72 
f 14/80/14/73 73/73/73/68 80/81/80/74 
f 14/80/14/73 80/81/80/74 17/82/17/75 
f 3/83/3/76 70/70/70/66 81/84/81/77 
f 3/83/3/76 81/84/81/77 21/85/21/78 
f 26/86/26/79 71/71/71/67 82/87/82/80 
f 26/86/26/79 82/87/82/80 29/88/29/81 
f 32/89/32/82 74/74/74/69 83/90/83/83 
f 32/89/32/82 83/90/83/83 35/91/35/84 
f 1/92/1/85 0/93/0/86 62/62/62/59 
f 1/92/1/85 62/62/62/59 61/61/61/58 
f 20/94/20/87 16/95/16/88 59/59/59/56 
f 20/94/20/87 59/59/59/56 58/58/58/55 
f 15/96/15/89 10/97/10/90 67/67/67/64 
f 15/96/15/89 67/67/67/64 66/66/66/63 
f 25/98/25/91 24/99/24/92 60/60/60/57 
f 25/98/25/91 60/60/60/57 63/63/63/60 
f 33/100/33/93 28/101/28/94 57/57/57/54 
f 33/100/33/93 57/57/57/54 56/56/56/53 
f 39/102/39/95 34/103/34/96 65/65/65/62 
f 39/102/39/95 65/65/65/62 64/64/64/61 
f 0/93/0/86 23/104/23/97 50/50/50/48 
f 0/93/0/86 50/50/50/48 62/62/62/59 
f 3/83/3/76 20/94/20/87 58/58/58/55 
f 3/83/3/76 58/58/58/55 70/70/70/66 
f 14/80/14/73 15/96/15/89 66/66/66/63 
f 14/80/14/73 66/66/66/63 73/73/73/68 
f 26/86/26/79 25/98/25/91 63/63/63/60 
f 26/86/26/79 63/63/63/60 71/71/71/67 
f 32/89/32/82 33/100/33/93 56/56/56/53 
f 32/89/32/82 56/56/56/53 74/74/74/69 
f 38/105/38/98 39/102/39/95 64/64/64/61 
f 38/105/38/98 64/64/64/61 84/106/84/99 
f 2/107/2/100 1/92/1/85 61/61/61/58 
f 2/107/2/100 61/61/61/58 76/76/76/70 
f 16/95/16/88 19/108/19/101 54/54/54/51 
f 16/95/16/88 54/54/54/51 59/59/59/56 
f 10/97/10/90 13/109/13/102 79/79/79/72 
f 10/97/10/90 79/79/79/72 67/67/67/64 
f 24/99/24/92 47/110/47/103 77/77/77/71 
f 24/99/24/92 77/77/77/71 60/60/60/57 
f 28/101/28/94 31/111/31/104 68/68/68/65 
f 28/101/28/94 68/68/68/65 57/57/57/54 
f 34/103/34/96 37/112/37/105 85/113/85/106 
f 34/103/34/96 85/113/85/106 65/65/65/62 
f 86/114/86/107 78/49/78/47 79/50/79/108 
f 86/114/86/107 79/50/79/108 87/115/87/109 
f 88/116/88/110 89/53/89/47 90/54/90/111 
f 88/116/88/110 90/54/90/111 91/117/91/112 
f 92/56/92/113 93/57/93/114 94/58/94/115 
f 92/56/92/113 94/58/94/115 95/59/95/116 
f 93/57/93/114 96/68/96/117 97/69/97/47 
f 93/57/93/114 97/69/97/47 94/58/94/115 
f 98/70/98/118 94/58/94/115 97/69/97/47 
f 92/56/92/113 90/54/90/111 89/53/89/47 
f 92/56/92/113 89/53/89/47 99/74/99/119 
f 95/59/95/116 90/54/90/111 92/56/92/113 
f 2/80/2/120 76/73/76/121 100/118/100/122 
f 2/80/2/120 100/118/100/122 5/119/5/123 
f 8/83/8/124 98/70/98/118 101/120/101/125 
f 8/83/8/124 101/120/101/125 11/121/11/126 
f 38/86/38/127 84/71/84/128 102/122/102/129 
f 38/86/38/127 102/122/102/129 41/123/41/130 
f 27/89/27/131 99/74/99/119 103/124/103/132 
f 27/89/27/131 103/124/103/132 45/125/45/133 
f 9/94/9/134 4/95/4/135 95/59/95/116 
f 9/94/9/134 95/59/95/116 94/58/94/115 
f 44/100/44/136 40/101/40/137 93/57/93/114 
f 44/100/44/136 93/57/93/114 92/56/92/113 
f 8/83/8/124 9/94/9/134 94/58/94/115 
f 8/83/8/124 94/58/94/115 98/70/98/118 
f 27/89/27/131 44/100/44/136 92/56/92/113 
f 27/89/27/131 92/56/92/113 99/74/99/119 
f 4/95/4/135 7/108/7/138 90/54/90/111 
f 4/95/4/135 90/54/90/111 95/59/95/116 
f 40/101/40/137 43/111/43/139 96/68/96/117 
f 40/101/40/137 96/68/96/117 93/57/93/114 
f 69/69/69/47 68/68/68/65 104/126/104/140 
f 105/127/105/141 106/128/106/142 72/72/72/47 
f 105/127/105/141 72/72/72/47 85/113/85/106 
f 97/69/97/47 96/68/96/117 107/129/107/143 
f 75/72/75/47 77/113/77/144 108/130/108/145 
f 109/131/109/146 110/132/110/147 51/51/51/49 
f 109/131/109/146 50/50/50/48 23/104/23/97 
f 109/131/109/146 23/104/23/97 22/133/22/148 
f 111/134/111/149 30/135/30/150 29/88/29/81 
f 111/134/111/149 29/88/29/81 82/87/82/80 
f 82/87/82/80 71/71/71/67 112/136/112/151 
f 112/136/112/151 49/49/49/47 48/48/48/46 
f 109/131/109/146 22/133/22/148 21/85/21/78 
f 109/131/109/146 21/85/21/78 81/84/81/77 
f 111/134/111/149 113/137/113/152 104/126/104/140 
f 113/137/113/152 114/138/114/153 115/139/115/154 
f 113/137/113/152 115/139/115/154 104/126/104/140 
f 81/84/81/77 70/70/70/66 116/140/116/155 
f 111/134/111/149 68/68/68/65 31/111/31/104 
f 111/134/111/149 31/111/31/104 30/135/30/150 
f 80/81/80/74 73/73/73/68 117/141/117/156 
f 118/142/118/157 18/143/18/158 17/82/17/75 
f 118/142/118/157 17/82/17/75 80/81/80/74 
f 105/127/105/141 85/113/85/106 37/112/37/105 
f 105/127/105/141 37/112/37/105 36/144/36/159 
f 105/127/105/141 119/145/119/160 106/128/106/142 
f 119/145/119/160 120/146/120/161 121/147/121/162 
f 119/145/119/160 121/147/121/162 106/128/106/142 
f 118/142/118/157 122/148/122/163 55/55/55/52 
f 105/127/105/141 36/144/36/159 35/91/35/84 
f 105/127/105/141 35/91/35/84 83/90/83/83 
f 118/142/118/157 54/54/54/51 19/108/19/101 
f 118/142/118/157 19/108/19/101 18/143/18/158 
f 83/90/83/83 74/74/74/69 123/149/123/164 
f 123/149/123/164 53/53/53/47 52/52/52/50 
f 101/120/101/125 98/70/98/118 124/150/124/165 
f 125/151/125/166 12/152/12/167 11/121/11/126 
f 125/151/125/166 11/121/11/126 101/120/101/125 
f 126/153/126/168 96/68/96/117 43/111/43/139 
f 126/153/126/168 43/111/43/139 42/154/42/169 
f 126/153/126/168 127/155/127/170 107/129/107/143 
f 127/155/127/170 128/156/128/171 129/157/129/172 
f 127/155/127/170 129/157/129/172 107/129/107/143 
f 125/151/125/166 130/158/130/173 87/115/87/109 
f 126/153/126/168 42/154/42/169 41/123/41/130 
f 126/153/126/168 41/123/41/130 102/122/102/129 
f 125/151/125/166 79/50/79/108 13/104/13/174 
f 125/151/125/166 13/104/13/174 12/152/12/167 
f 78/49/78/47 131/159/131/175 102/122/102/129 
f 78/49/78/47 102/122/102/129 84/71/84/128 
f 131/159/131/175 78/49/78/47 86/114/86/107 
f 100/118/100/122 76/73/76/121 132/160/132/176 
f 133/161/133/177 6/162/6/178 5/119/5/123 
f 133/161/133/177 5/119/5/123 100/118/100/122 
f 134/163/134/179 77/113/77/144 47/112/47/180 
f 134/163/134/179 47/112/47/180 46/164/46/181 
f 134/163/134/179 135/165/135/182 108/130/108/145 
f 135/165/135/182 136/166/136/183 137/167/137/184 
f 135/165/135/182 137/167/137/184 108/130/108/145 
f 133/161/133/177 138/168/138/185 91/117/91/112 
f 134/163/134/179 46/164/46/181 45/125/45/133 
f 134/163/134/179 45/125/45/133 103/124/103/132 
f 133/161/133/177 90/54/90/111 7/108/7/138 
f 133/161/133/177 7/108/7/138 6/162/6/178 
f 103/124/103/132 99/74/99/119 139/169/139/186 
f 139/169/139/186 89/53/89/47 88/116/88/110 
f 110/132/110/147 140/170/140/187 48/48/48/46 
f 110/132/110/147 48/48/48/46 51/51/51/49 
f 122/148/122/163 141/171/141/188 52/52/52/50 
f 122/148/122/163 52/52/52/50 55/55/55/52 
f 130/158/130/173 142/172/142/189 86/114/86/107 
f 130/158/130/173 86/114/86/107 87/115/87/109 
f 138/168/138/185 143/173/143/190 88/116/88/110 
f 138/168/138/185 88/116/88/110 91/117/91/112 
f 143/173/143/190 136/166/136/183 135/165/135/182 
f 143/173/143/190 135/165/135/182 144/174/144/191 
f 137/167/137/184 136/166/136/183 145/175/145/192 
f 137/167/137/184 145/175/145/192 132/160/132/176 
f 136/166/136/183 143/173/143/190 138/168/138/185 
f 136/166/136/183 138/168/138/185 145/175/145/192 
f 88/116/88/110 143/173/143/190 144/174/144/191 
f 88/116/88/110 144/174/144/191 139/169/139/186 
f 142/172/142/189 128/156/128/171 127/155/127/170 
f 142/172/142/189 127/155/127/170 146/176/146/193 
f 129/157/129/172 128/156/128/171 147/177/147/194 
f 129/157/129/172 147/177/147/194 124/150/124/165 
f 128/156/128/171 142/172/142/189 130/158/130/173 
f 128/156/128/171 130/158/130/173 147/177/147/194 
f 86/114/86/107 142/172/142/189 146/176/146/193 
f 86/114/86/107 146/176/146/193 131/159/131/175 
f 141/171/141/188 120/146/120/161 119/145/119/160 
f 141/171/141/188 119/145/119/160 148/178/148/195 
f 121/147/121/162 120/146/120/161 149/179/149/196 
f 121/147/121/162 149/179/149/196 117/141/117/156 
f 120/146/120/161 141/171/141/188 122/148/122/163 
f 120/146/120/161 122/148/122/163 149/179/149/196 
f 52/52/52/50 141/171/141/188 148/178/148/195 
f 52/52/52/50 148/178/148/195 123/149/123/164 
f 140/170/140/187 114/138/114/153 113/137/113/152 
f 140/170/140/187 113/137/113/152 150/180/150/197 
f 115/139/115/154 114/138/114/153 151/181/151/198 
f 115/139/115/154 151/181/151/198 116/140/116/155 
f 114/138/114/153 140/170/140/187 110/132/110/147 
f 114/138/114/153 110/132/110/147 151/181/151/198 
f 48/48/48/46 140/170/140/187 150/180/150/197 
f 48/48/48/46 150/180/150/197 112/136/112/151 
f 69/69/69/47 104/126/104/140 115/139/115/154 
f 83/90/83/83 123/149/123/164 148/178/148/195 
f 149/179/149/196 122/148/122/163 118/142/118/157 
f 149/179/149/196 118/142/118/157 80/81/80/74 
f 150/180/150/197 113/137/113/152 111/134/111/149 
f 150/180/150/197 111/134/111/149 82/87/82/80 
f 81/84/81/77 116/140/116/155 151/181/151/198 
f 148/178/148/195 119/145/119/160 105/127/105/141 
f 148/178/148/195 105/127/105/141 83/90/83/83 
f 80/81/80/74 117/141/117/156 149/179/149/196 
f 72/72/72/47 106/128/106/142 121/147/121/162 
f 147/177/147/194 130/158/130/173 125/151/125/166 
f 147/177/147/194 125/151/125/166 101/120/101/125 
f 102/122/102/129 131/159/131/175 146/176/146/193 
f 146/176/146/193 127/155/127/170 126/153/126/168 
f 146/176/146/193 126/153/126/168 102/122/102/129 
f 97/69/97/47 107/129/107/143 129/157/129/172 
f 145/175/145/192 138/168/138/185 133/161/133/177 
f 145/175/145/192 133/161/133/177 100/118/100/122 
f 103/124/103/132 139/169/139/186 144/174/144/191 
f 101/120/101/125 124/150/124/165 147/177/147/194 
f 75/72/75/47 108/130/108/145 137/167/137/184 
f 82/87/82/80 112/136/112/151 150/180/150/197 
f 151/181/151/198 110/132/110/147 109/131/109/146 
f 151/181/151/198 109/131/109/146 81/84/81/77 
f 100/118/100/122 132/160/132/176 145/175/145/192 
f 144/174/144/191 135/165/135/182 134/163/134/179 
f 144/174/144/191 134/163/134/179 103/124/103/132 
f 54/54/54/51 118/142/118/157 55/55/55/52 
f 74/74/74/69 53/53/53/47 123/149/123/164 
f 68/68/68/65 111/134/111/149 104/126/104/140 
f 115/139/115/154 116/140/116/155 70/70/70/66 
f 115/139/115/154 70/70/70/66 69/69/69/47 
f 65/65/65/62 85/113/85/106 72/72/72/47 
f 78/78/78/47 84/106/84/99 64/64/64/61 
f 79/50/79/108 125/151/125/166 87/115/87/109 
f 121/147/121/162 117/141/117/156 73/73/73/68 
f 121/147/121/162 73/73/73/68 72/72/72/47 
f 99/74/99/119 89/53/89/47 139/169/139/186 
f 129/157/129/172 124/150/124/165 98/70/98/118 
f 129/157/129/172 98/70/98/118 97/69/97/47 
f 90/54/90/111 133/161/133/177 91/117/91/112 
f 96/68/96/117 126/153/126/168 107/129/107/143 
f 77/113/77/144 134/163/134/179 108/130/108/145 
f 71/71/71/67 49/49/49/47 112/136/112/151 
f 50/50/50/48 109/131/109/146 51/51/51/49 
f 137/167/137/184 132/160/132/176 76/73/76/121 
f 137/167/137/184 76/73/76/121 75/72/75/47 
