v 160.4138 220.9971 167.7138
v 83.5356 220.9971 167.7138
v 83.5356 220.9971 244.4677
v 160.4138 220.9971 244.4677
v 160.4138 207.888 167.7138
v 160.4138 212.9782 167.7138
v 160.4138 212.9781 244.4677
v 160.4138 207.888 244.4677
v 83.5356 207.888 167.7138
v 83.5356 212.9782 167.7138
v 83.5356 207.888 244.4677
v 83.5356 212.9781 244.4677
v 85.726 204.0865 242.2809
v 158.2234 204.0865 242.2809
v 85.726 204.0866 169.9005
v 158.2234 204.0866 169.9005
v 91.2615 201.1721 236.7543
v 152.6879 201.1721 236.7543
v 91.2615 201.1721 175.4272
v 152.6879 201.1721 175.4272
v 95.9152 -2.4607 195.2001
v 95.9152 186.6513 195.2001
v 111.0221 186.6513 180.0932
v 111.0221 -2.4607 180.0932
v 95.9152 -2.4607 216.5646
v 95.9152 186.6513 216.5646
v 111.0221 -2.4607 231.6715
v 111.0221 186.6513 231.6715
v 132.3866 -2.4607 231.6715
v 132.3866 186.6513 231.6715
v 147.4935 -2.4607 216.5646
v 147.4935 186.6513 216.5646
v 147.4935 -2.4607 195.2001
v 147.4935 186.6513 195.2001
v 132.3866 -2.4607 180.0932
v 132.3866 186.6513 180.0932
v 95.9152 191.226 195.2001
v 94.3406 192.5001 194.5479
v 110.3699 192.5001 178.5187
v 111.0221 191.226 180.0932
v 95.9152 191.226 216.5646
v 94.3406 192.5001 217.2167
v 111.0221 191.226 231.6715
v 110.3699 192.5001 233.246
v 132.3866 191.226 231.6715
v 133.0388 192.5001 233.246
v 147.4935 191.226 216.5646
v 149.0681 192.5001 217.2167
v 147.4935 191.226 195.2001
v 149.0681 192.5001 194.5479
v 132.3866 191.226 180.0932
v 133.0388 192.5001 178.5187
v 95.4302 196.3225 194.9992
v 93.6696 199.2604 194.2699
v 110.0919 199.2604 177.8476
v 110.8212 196.3225 179.6082
v 95.4302 196.3225 216.7654
v 93.6696 199.2604 217.4948
v 110.8212 196.3225 232.1564
v 110.0919 199.2604 233.9171
v 132.5874 196.3225 232.1564
v 133.3167 199.2604 233.9171
v 147.9785 196.3225 216.7654
v 149.7391 199.2604 217.4948
v 147.9785 196.3225 194.9992
v 149.7391 199.2604 194.2699
v 132.5874 196.3225 179.6082
v 133.3167 199.2604 177.8476
v 93.42 188.9387 194.1667
v 109.9886 188.9387 177.5981
v 93.42 188.9387 217.5981
v 109.9886 188.9387 234.1667
v 133.42 188.9387 234.1667
v 149.9886 188.9387 217.5981
v 149.9886 188.9387 194.1667
v 133.42 188.9387 177.5981
v 110.7637 193.7742 179.4694
v 95.2914 193.7742 194.9418
v 95.2914 193.7742 216.8229
v 110.7637 193.7742 232.2953
v 132.645 193.7742 232.2953
v 148.1173 193.7742 216.8229
v 148.1173 193.7742 194.9418
v 132.645 193.7742 179.4694
v 159.4852 212.9782 168.6422
v 159.4852 215.2093 168.6422
v 159.4852 215.2093 243.5392
v 159.4852 212.9781 243.5392
v 84.4642 212.9782 168.6422
v 84.4642 215.2093 168.6422
v 84.4642 212.9781 243.5392
v 84.4642 215.2093 243.5392
v 160.4138 215.2093 244.4677
v 160.4138 215.2093 167.7138
v 83.5356 215.2093 167.7138
v 83.5356 215.2093 244.4677
vt 0.1052 0.7136
vt 0.2969 0.7136
vt 0.2969 0.905
vt 0.1052 0.905
vt 0.0579 0.2559
vt 0.0419 0.2559
vt 0.0419 0.0149
vt 0.0579 0.0149
vt 0.0577 0.4944
vt 0.0419 0.4944
vt 0.0577 0.7325
vt 0.0419 0.7325
vt 0.0579 0.974
vt 0.0419 0.974
vt 0.0698 0.7394
vt 0.0698 0.9671
vt 0.0694 0.5012
vt 0.0694 0.7257
vt 0.0694 0.2627
vt 0.0694 0.4876
vt 0.0698 0.0217
vt 0.0698 0.2491
vt 0.0871 0.7568
vt 0.0871 0.9497
vt 0.0866 0.5183
vt 0.0866 0.7086
vt 0.0866 0.2799
vt 0.0866 0.4704
vt 0.0872 0.0391
vt 0.0872 0.2317
vt 0.8927 0.0086
vt 0.8927 0.9003
vt 0.8215 0.9003
vt 0.8215 0.0086
vt 0.9935 0.0086
vt 0.9935 0.9003
vt 0.3768 0.0086
vt 0.3768 0.9003
vt 0.3056 0.9003
vt 0.3056 0.0086
vt 0.4775 0.0086
vt 0.4775 0.9003
vt 0.5488 0.0086
vt 0.5488 0.9003
vt 0.6495 0.0086
vt 0.6495 0.9003
vt 0.7207 0.0086
vt 0.7207 0.9003
vt 0.2428 0.9414
vt 0.2428 0.9493
vt 0.1356 0.9493
vt 0.1356 0.9414
vt 0.35 0.9414
vt 0.35 0.9493
vt 0.4571 0.9414
vt 0.4571 0.9493
vt 0.5643 0.9414
vt 0.5643 0.9493
vt 0.6715 0.9414
vt 0.6715 0.9493
vt 0.7787 0.9414
vt 0.7787 0.9493
vt 0.8859 0.9414
vt 0.8859 0.9493
vt 0.9931 0.9414
vt 0.9931 0.9493
vt 0.2428 0.9727
vt 0.2428 0.9908
vt 0.1356 0.9908
vt 0.1356 0.9727
vt 0.35 0.9727
vt 0.35 0.9908
vt 0.4571 0.9727
vt 0.4571 0.9908
vt 0.5643 0.9727
vt 0.5643 0.9908
vt 0.6715 0.9727
vt 0.6715 0.9908
vt 0.7787 0.9727
vt 0.7787 0.9908
vt 0.8859 0.9727
vt 0.8859 0.9908
vt 0.9931 0.9727
vt 0.9931 0.9908
vt 0.0941 0.5768
vt 0.0941 0.6488
vt 0.145 0.5258
vt 0.0941 0.34
vt 0.0941 0.412
vt 0.0964 0.1725
vt 0.148 0.2241
vt 0.0964 0.0996
vt 0.148 0.048
vt 0.0961 0.8159
vt 0.0961 0.8889
vt 0.145 0.6998
vt 0.2428 0.9274
vt 0.1356 0.9274
vt 0.1356 0.9133
vt 0.2428 0.9133
vt 0.35 0.9274
vt 0.35 0.9133
vt 0.4571 0.9274
vt 0.4571 0.9133
vt 0.5643 0.9274
vt 0.5643 0.9133
vt 0.6715 0.9274
vt 0.6715 0.9133
vt 0.7787 0.9274
vt 0.7787 0.9133
vt 0.8859 0.9274
vt 0.8859 0.9133
vt 0.9931 0.9274
vt 0.9931 0.9133
vt 0.1356 0.9571
vt 0.2428 0.9571
vt 0.35 0.9571
vt 0.4571 0.9571
vt 0.5643 0.9571
vt 0.6715 0.9571
vt 0.7787 0.9571
vt 0.8859 0.9571
vt 0.9931 0.9571
vt 0.0389 0.2559
vt 0.0318 0.2559
vt 0.0318 0.0178
vt 0.0389 0.0178
vt 0.0389 0.4944
vt 0.0318 0.4944
vt 0.0389 0.7325
vt 0.0318 0.7325
vt 0.0389 0.971
vt 0.0318 0.971
vt 0.0059 0.7385
vt 0.0059 0.4945
vt 0.0243 0.4945
vt 0.0243 0.7385
vt 0.0059 0.9829
vt 0.0243 0.9829
vt 0.0059 0.2501
vt 0.0059 0.0061
vt 0.0243 0.0061
vt 0.0243 0.2501
vt 0.0272 0.4974
vt 0.0272 0.7355
vt 0.0272 0.253
vt 0.0272 0.4915
vt 0.0272 0.009
vt 0.0272 0.2471
vt 0.0272 0.7414
vt 0.0272 0.9799
vn 0.5773 0.5774 -0.5773
vn -0.5773 0.5773 -0.5774
vn -0.5773 0.5774 0.5773
vn 0.5773 0.5773 0.5774
vn 0.6757 -0.2951 -0.6756
vn 0.5773 0.5774 -0.5773
vn 0.5773 0.5774 0.5773
vn 0.6756 -0.2951 0.6756
vn -0.6757 -0.2951 -0.6756
vn -0.5773 0.5774 -0.5773
vn -0.6757 -0.2951 0.6756
vn -0.5773 0.5774 0.5773
vn -0.4624 -0.7564 0.4627
vn 0.4624 -0.7564 0.4627
vn -0.4624 -0.7564 -0.4627
vn 0.4624 -0.7564 -0.4627
vn -0.217 -0.9516 0.2177
vn 0.2162 -0.952 0.2165
vn -0.218 -0.9512 -0.2183
vn 0.2172 -0.9517 -0.2171
vn -0.9239 0.0 -0.3827
vn -0.8177 -0.4655 -0.3387
vn -0.3387 -0.4655 -0.8177
vn -0.3827 0.0 -0.9239
vn -0.9239 -0.0 0.3827
vn -0.8177 -0.4655 0.3387
vn -0.3827 -0.0 0.9239
vn -0.3387 -0.4655 0.8177
vn 0.3827 -0.0 0.9239
vn 0.3387 -0.4655 0.8177
vn 0.9239 -0.0 0.3827
vn 0.8177 -0.4655 0.3387
vn 0.9239 0.0 -0.3827
vn 0.8177 -0.4655 -0.3387
vn 0.3827 0.0 -0.9239
vn 0.3387 -0.4655 -0.8177
vn -0.9232 -0.0384 -0.3824
vn -0.9186 -0.1071 -0.3805
vn -0.3805 -0.1071 -0.9186
vn -0.3824 -0.0384 -0.9232
vn -0.9232 -0.0384 0.3824
vn -0.9186 -0.1071 0.3805
vn -0.3824 -0.0384 0.9232
vn -0.3805 -0.1071 0.9186
vn 0.3824 -0.0384 0.9232
vn 0.3805 -0.1071 0.9186
vn 0.9232 -0.0384 0.3824
vn 0.9186 -0.1071 0.3805
vn 0.9232 -0.0385 -0.3824
vn 0.9186 -0.1071 -0.3805
vn 0.3824 -0.0384 -0.9232
vn 0.3805 -0.1071 -0.9186
vn -0.8879 -0.2764 -0.3678
vn -0.6388 -0.7551 -0.1476
vn -0.1476 -0.7559 -0.6379
vn -0.3678 -0.2764 -0.8879
vn -0.8879 -0.2764 0.3678
vn -0.6389 -0.7551 0.1473
vn -0.3678 -0.2764 0.8879
vn -0.1479 -0.7801 0.6079
vn 0.3678 -0.2764 0.8879
vn 0.1475 -0.7801 0.6079
vn 0.8879 -0.2764 0.3678
vn 0.6008 -0.7857 0.1477
vn 0.8879 -0.2764 -0.3678
vn 0.6007 -0.7856 -0.148
vn 0.3678 -0.2764 -0.8879
vn 0.1472 -0.7559 -0.6379
vn -0.9239 0.0 -0.3827
vn -0.3827 0.0 -0.9239
vn -0.9239 0.0 0.3827
vn -0.3827 0.0 0.9239
vn 0.3827 0.0 0.9239
vn 0.9239 0.0 0.3827
vn 0.9239 0.0 -0.3827
vn 0.3827 0.0 -0.9239
vn -0.3526 0.3886 -0.8513
vn -0.8513 0.3886 -0.3526
vn -0.8513 0.3886 0.3526
vn -0.3526 0.3886 0.8513
vn 0.3526 0.3886 0.8513
vn 0.8513 0.3886 0.3526
vn 0.8513 0.3886 -0.3526
vn 0.3526 0.3886 -0.8513
vn 0.3015 0.9045 -0.3015
vn 0.3015 -0.9045 -0.3015
vn 0.3015 -0.9045 0.3015
vn 0.3015 0.9045 0.3015
vn -0.3015 0.9045 -0.3015
vn -0.3015 -0.9045 -0.3015
vn -0.3015 0.9045 0.3015
vn -0.3015 -0.9045 0.3015
vn 0.5773 -0.5774 0.5773
vn 0.5773 -0.5774 -0.5774
vn -0.5773 -0.5774 -0.5773
vn -0.5773 -0.5774 0.5774
vtan -0.8165 0.4083 -0.4082 1.0
vtan -0.8165 -0.4082 0.4082 1.0
vtan -0.8165 -0.4083 -0.4082 1.0
vtan -0.8165 0.4082 0.4082 1.0
vtan -0.2083 -0.9555 0.2091 1.0
vtan 0.4094 -0.8165 -0.4072 1.0
vtan 0.6165 -0.7719 0.1554 1.0
vtan -0.3095 -0.9453 -0.1034 1.0
vtan 0.2089 -0.9555 0.2085 1.0
vtan -0.4071 -0.8165 -0.4094 1.0
vtan 0.2088 -0.9555 -0.2086 1.0
vtan -0.4095 -0.8165 0.407 1.0
vtan -0.1023 -0.945 -0.3105 1.0
vtan 0.1503 -0.7702 0.6199 1.0
vtan 0.1458 -0.5796 -0.8018 1.0
vtan -0.1459 -0.5796 -0.8017 1.0
vtan 0.8017 -0.5796 0.1463 1.0
vtan 0.8016 -0.5796 -0.1463 1.0
vtan -0.1463 -0.5798 0.8016 1.0
vtan 0.1463 -0.5798 0.8015 1.0
vtan -0.8004 -0.5806 -0.1491 1.0
vtan -0.8006 -0.5805 0.1488 1.0
vtan 0.0577 -0.2351 -0.9703 1.0
vtan -0.0575 -0.2338 -0.9706 1.0
vtan 0.9728 -0.2297 0.0296 1.0
vtan 0.973 -0.2288 -0.0301 1.0
vtan -0.0577 -0.2345 0.9704 1.0
vtan 0.0575 -0.2358 0.9701 1.0
vtan -0.9734 -0.2273 -0.0273 1.0
vtan -0.9733 -0.2282 0.0267 1.0
vtan -0.3827 -0.0 0.9239 1.0
vtan -0.3827 -0.0 0.9239 1.0
vtan -0.9239 0.0 0.3827 1.0
vtan -0.9239 -0.0 0.3827 1.0
vtan 0.3827 -0.0 0.9239 1.0
vtan 0.2943 0.1676 0.9409 1.0
vtan 0.9239 -0.0 0.3827 1.0
vtan 0.9239 0.0 0.3827 1.0
vtan 0.4572 -0.1676 0.8734 1.0
vtan 0.3827 -0.0 0.9239 1.0
vtan 0.9239 0.0 -0.3827 1.0
vtan 0.9239 0.0 -0.3827 1.0
vtan 0.3827 0.0 -0.9239 1.0
vtan 0.3827 0.0 -0.9239 1.0
vtan -0.3827 0.0 -0.9239 1.0
vtan -0.3827 0.0 -0.9239 1.0
vtan -0.9239 0.0 -0.3827 1.0
vtan -0.9239 0.0 -0.3827 1.0
vtan -0.3827 0.0 0.9239 1.0
vtan -0.3827 -0.0 0.9239 1.0
vtan -0.9212 -0.0441 0.3867 1.0
vtan -0.9235 -0.0159 0.3832 1.0
vtan 0.3827 0.0 0.9239 1.0
vtan 0.3827 -0.0 0.9239 1.0
vtan 0.9239 0.0 0.3827 1.0
vtan 0.9239 -0.0 0.3827 1.0
vtan 0.9239 0.0 -0.3827 1.0
vtan 0.9239 -0.0 -0.3827 1.0
vtan 0.3827 0.0 -0.9239 1.0
vtan 0.3827 -0.0 -0.9239 1.0
vtan -0.3827 0.0 -0.9239 1.0
vtan -0.3827 -0.0 -0.9239 1.0
vtan -0.9239 0.0 -0.3827 1.0
vtan -0.9239 -0.0 -0.3827 1.0
vtan -0.924 0.0159 0.3821 1.0
vtan -0.9248 0.0441 0.3779 1.0
vtan -0.3827 -0.0 0.9239 1.0
vtan -0.3143 0.081 0.9459 1.0
vtan -0.8084 -0.2794 0.5181 1.0
vtan -0.9058 -0.1093 0.4092 1.0
vtan 0.3827 -0.0 0.9239 1.0
vtan 0.3141 -0.0813 0.9459 1.0
vtan 0.9239 -0.0 0.3827 1.0
vtan 0.9433 0.0734 0.3237 1.0
vtan 0.9239 -0.0 -0.3827 1.0
vtan 0.9434 -0.0736 -0.3234 1.0
vtan 0.3827 -0.0 -0.9239 1.0
vtan 0.3256 0.0717 -0.9428 1.0
vtan -0.3827 -0.0 -0.9239 1.0
vtan -0.3258 -0.0715 -0.9427 1.0
vtan -0.9239 0.0 -0.3827 1.0
vtan -0.9458 0.0811 -0.3144 1.0
vtan -0.9299 0.1093 0.3511 1.0
vtan -0.989 0.1128 0.0952 1.0
vtan 0.7661 -0.642 -0.0316 1.0
vtan 0.7658 -0.6425 0.0274 1.0
vtan 0.9874 -0.1501 -0.0506 1.0
vtan 0.0071 -0.6441 0.7649 1.0
vtan -0.0071 -0.6441 0.7649 1.0
vtan -0.7969 -0.6032 -0.0328 1.0
vtan -0.9875 -0.1488 -0.0515 1.0
vtan -0.7967 -0.6036 0.0298 1.0
vtan -0.9877 -0.1488 0.0487 1.0
vtan -0.0021 -0.6144 -0.789 1.0
vtan 0.0075 -0.6138 -0.7894 1.0
vtan 0.9875 -0.1499 0.0479 1.0
vtan -0.3827 0.0 0.9239 1.0
vtan -0.9239 0.0 0.3827 1.0
vtan -0.8734 -0.1676 0.4572 1.0
vtan -0.3827 0.0 0.9239 1.0
vtan 0.3827 -0.0 0.9239 1.0
vtan 0.3827 0.0 0.9239 1.0
vtan 0.9239 -0.0 0.3827 1.0
vtan 0.9239 0.0 0.3827 1.0
vtan 0.9239 0.0 -0.3827 1.0
vtan 0.9239 0.0 -0.3827 1.0
vtan 0.3827 0.0 -0.9239 1.0
vtan 0.3827 0.0 -0.9239 1.0
vtan -0.3827 -0.0 -0.9239 1.0
vtan -0.3827 -0.0 -0.9239 1.0
vtan -0.9239 -0.0 -0.3827 1.0
vtan -0.9239 0.0 -0.3827 1.0
vtan -0.9239 -0.0 0.3827 1.0
vtan -0.9409 0.1676 0.2943 1.0
vtan -0.8885 0.1464 0.4349 1.0
vtan -0.3827 -0.0 0.9239 1.0
vtan 0.3827 -0.0 0.9239 1.0
vtan 0.9239 -0.0 0.3827 1.0
vtan 0.9239 -0.0 -0.3827 1.0
vtan 0.3827 -0.0 -0.9239 1.0
vtan -0.3827 -0.0 -0.9239 1.0
vtan -0.9239 -0.0 -0.3827 1.0
vtan -0.9358 -0.1464 0.3208 1.0
vtan 0.6383 -0.4264 -0.6409 1.0
vtan -0.6396 -0.4264 0.6396 1.0
vtan -0.6396 -0.4264 -0.6396 1.0
vtan 0.9316 -0.3468 0.1087 1.0
vtan -0.641 -0.4264 -0.6382 1.0
vtan 0.6396 -0.4264 0.6396 1.0
vtan -0.6386 -0.4264 0.6406 1.0
vtan 0.6396 -0.4264 -0.6396 1.0
vtan 0.0955 -0.3433 0.9344 1.0
vtan -0.6396 -0.4264 -0.6396 1.0
vtan 0.4083 -0.8165 -0.4083 1.0
vtan 0.4082 -0.8165 0.4082 1.0
vtan -0.4062 -0.8165 -0.4103 1.0
vtan -0.4104 -0.8165 0.4061 1.0
vtan -0.4082 -0.8165 -0.4082 1.0
vtan 0.1512 -0.7705 0.6193 1.0
vtan -0.4083 -0.8165 0.4083 1.0
vtan -0.4082 -0.8165 -0.4082 1.0
vtan 0.6149 -0.7727 0.1578 1.0
vtan 0.4104 -0.8165 -0.4062 1.0
vtan -0.9533 -0.2915 0.0788 1.0
vtan -0.9533 -0.2808 -0.1109 1.0
vtan -0.0786 -0.2916 -0.9533 1.0
vtan 0.1106 -0.2809 -0.9533 1.0
vtan 0.9533 -0.2915 -0.0789 1.0
vtan 0.9533 -0.2809 0.1108 1.0
vtan 0.0786 -0.2916 0.9533 1.0
vtan -0.1106 -0.2809 0.9533 1.0
f 0/0/0/0 1/1/1/1 2/2/2/2 
f 0/0/0/0 2/2/2/2 3/3/3/3 
f 4/4/4/4 5/5/5/5 6/6/6/6 
f 4/4/4/4 6/6/6/6 7/7/7/7 
f 8/8/8/8 9/9/9/9 5/5/5/5 
f 8/8/8/8 5/5/5/5 4/4/4/4 
f 10/10/10/10 11/11/11/11 9/9/9/9 
f 10/10/10/10 9/9/9/9 8/8/8/8 
f 7/12/7/12 6/13/6/13 11/11/11/11 
f 7/12/7/12 11/11/11/11 10/10/10/10 
f 10/10/10/10 12/14/12/14 13/15/13/15 
f 10/10/10/10 13/15/13/15 7/12/7/12 
f 8/8/8/8 14/16/14/16 12/17/12/17 
f 8/8/8/8 12/17/12/17 10/10/10/10 
f 4/4/4/4 15/18/15/18 14/19/14/19 
f 4/4/4/4 14/19/14/19 8/8/8/8 
f 7/7/7/7 13/20/13/20 15/21/15/21 
f 7/7/7/7 15/21/15/21 4/4/4/4 
f 16/22/16/22 17/23/17/23 13/15/13/15 
f 16/22/16/22 13/15/13/15 12/14/12/14 
f 18/24/18/24 16/25/16/25 12/17/12/17 
f 18/24/18/24 12/17/12/17 14/16/14/16 
f 19/26/19/26 18/27/18/27 14/19/14/19 
f 19/26/19/26 14/19/14/19 15/18/15/18 
f 17/28/17/28 19/29/19/29 15/21/15/21 
f 17/28/17/28 15/21/15/21 13/20/13/20 
f 20/30/20/30 21/31/21/31 22/32/22/32 
f 20/30/20/30 22/32/22/32 23/33/23/33 
f 24/34/24/34 25/35/25/35 21/31/21/31 
f 24/34/24/34 21/31/21/31 20/30/20/30 
f 26/36/26/36 27/37/27/37 25/38/25/38 
f 26/36/26/36 25/38/25/38 24/39/24/39 
f 28/40/28/40 29/41/29/41 27/37/27/37 
f 28/40/28/40 27/37/27/37 26/36/26/36 
f 30/42/30/42 31/43/31/43 29/41/29/41 
f 30/42/30/42 29/41/29/41 28/40/28/40 
f 32/44/32/44 33/45/33/45 31/43/31/43 
f 32/44/32/44 31/43/31/43 30/42/30/42 
f 34/46/34/46 35/47/35/47 33/45/33/45 
f 34/46/34/46 33/45/33/45 32/44/32/44 
f 23/33/23/33 22/32/22/32 35/47/35/47 
f 23/33/23/33 35/47/35/47 34/46/34/46 
f 36/48/36/48 37/49/37/49 38/50/38/50 
f 36/48/36/48 38/50/38/50 39/51/39/51 
f 40/52/40/52 41/53/41/53 37/49/37/49 
f 40/52/40/52 37/49/37/49 36/48/36/48 
f 42/54/42/54 43/55/43/55 41/53/41/53 
f 42/54/42/54 41/53/41/53 40/52/40/52 
f 44/56/44/56 45/57/45/57 43/55/43/55 
f 44/56/44/56 43/55/43/55 42/54/42/54 
f 46/58/46/58 47/59/47/59 45/57/45/57 
f 46/58/46/58 45/57/45/57 44/56/44/56 
f 48/60/48/60 49/61/49/61 47/59/47/59 
f 48/60/48/60 47/59/47/59 46/58/46/58 
f 50/62/50/62 51/63/51/63 49/61/49/61 
f 50/62/50/62 49/61/49/61 48/60/48/60 
f 39/64/39/64 38/65/38/65 51/63/51/63 
f 39/64/39/64 51/63/51/63 50/62/50/62 
f 52/66/52/66 53/67/53/67 54/68/54/68 
f 52/66/52/66 54/68/54/68 55/69/55/69 
f 56/70/56/70 57/71/57/71 53/67/53/67 
f 56/70/56/70 53/67/53/67 52/66/52/66 
f 58/72/58/72 59/73/59/73 57/71/57/71 
f 58/72/58/72 57/71/57/71 56/70/56/70 
f 60/74/60/74 61/75/61/75 59/73/59/73 
f 60/74/60/74 59/73/59/73 58/72/58/72 
f 62/76/62/76 63/77/63/77 61/75/61/75 
f 62/76/62/76 61/75/61/75 60/74/60/74 
f 64/78/64/78 65/79/65/79 63/77/63/77 
f 64/78/64/78 63/77/63/77 62/76/62/76 
f 66/80/66/80 67/81/67/81 65/79/65/79 
f 66/80/66/80 65/79/65/79 64/78/64/78 
f 55/82/55/82 54/83/54/83 67/81/67/81 
f 55/82/55/82 67/81/67/81 66/80/66/80 
f 18/24/18/24 53/84/53/84 57/85/57/85 
f 18/24/18/24 57/85/57/85 16/25/16/25 
f 18/24/18/24 54/86/54/86 53/84/53/84 
f 18/27/18/27 19/26/19/26 67/87/67/87 
f 18/27/18/27 67/87/67/87 54/88/54/88 
f 19/29/19/29 65/89/65/89 67/90/67/90 
f 19/29/19/29 17/28/17/28 63/91/63/91 
f 19/29/19/29 63/91/63/91 65/89/65/89 
f 17/28/17/28 61/92/61/92 63/91/63/91 
f 16/22/16/22 59/93/59/93 61/94/61/94 
f 16/22/16/22 61/94/61/94 17/23/17/23 
f 16/25/16/25 57/85/57/85 59/95/59/95 
f 68/96/68/96 69/97/69/97 22/98/22/98 
f 68/96/68/96 22/98/22/98 21/99/21/99 
f 70/100/70/100 68/96/68/96 21/99/21/99 
f 70/100/70/100 21/99/21/99 25/101/25/101 
f 71/102/71/102 70/100/70/100 25/101/25/101 
f 71/102/71/102 25/101/25/101 27/103/27/103 
f 72/104/72/104 71/102/71/102 27/103/27/103 
f 72/104/72/104 27/103/27/103 29/105/29/105 
f 73/106/73/106 72/104/72/104 29/105/29/105 
f 73/106/73/106 29/105/29/105 31/107/31/107 
f 74/108/74/108 73/106/73/106 31/107/31/107 
f 74/108/74/108 31/107/31/107 33/109/33/109 
f 75/110/75/110 74/108/74/108 33/109/33/109 
f 75/110/75/110 33/109/33/109 35/111/35/111 
f 69/112/69/112 75/110/75/110 35/111/35/111 
f 69/112/69/112 35/111/35/111 22/113/22/113 
f 36/48/36/48 39/51/39/51 69/97/69/97 
f 36/48/36/48 69/97/69/97 68/96/68/96 
f 40/52/40/52 36/48/36/48 68/96/68/96 
f 40/52/40/52 68/96/68/96 70/100/70/100 
f 42/54/42/54 40/52/40/52 70/100/70/100 
f 42/54/42/54 70/100/70/100 71/102/71/102 
f 44/56/44/56 42/54/42/54 71/102/71/102 
f 44/56/44/56 71/102/71/102 72/104/72/104 
f 46/58/46/58 44/56/44/56 72/104/72/104 
f 46/58/46/58 72/104/72/104 73/106/73/106 
f 48/60/48/60 46/58/46/58 73/106/73/106 
f 48/60/48/60 73/106/73/106 74/108/74/108 
f 50/62/50/62 48/60/48/60 74/108/74/108 
f 50/62/50/62 74/108/74/108 75/110/75/110 
f 39/64/39/64 50/62/50/62 75/110/75/110 
f 39/64/39/64 75/110/75/110 69/112/69/112 
f 52/66/52/66 55/69/55/69 76/114/76/114 
f 52/66/52/66 76/114/76/114 77/115/77/115 
f 56/70/56/70 52/66/52/66 77/115/77/115 
f 56/70/56/70 77/115/77/115 78/116/78/116 
f 58/72/58/72 56/70/56/70 78/116/78/116 
f 58/72/58/72 78/116/78/116 79/117/79/117 
f 60/74/60/74 58/72/58/72 79/117/79/117 
f 60/74/60/74 79/117/79/117 80/118/80/118 
f 62/76/62/76 60/74/60/74 80/118/80/118 
f 62/76/62/76 80/118/80/118 81/119/81/119 
f 64/78/64/78 62/76/62/76 81/119/81/119 
f 64/78/64/78 81/119/81/119 82/120/82/120 
f 66/80/66/80 64/78/64/78 82/120/82/120 
f 66/80/66/80 82/120/82/120 83/121/83/121 
f 55/82/55/82 66/80/66/80 83/121/83/121 
f 55/82/55/82 83/121/83/121 76/122/76/122 
f 77/115/77/115 76/114/76/114 38/50/38/50 
f 77/115/77/115 38/50/38/50 37/49/37/49 
f 78/116/78/116 77/115/77/115 37/49/37/49 
f 78/116/78/116 37/49/37/49 41/53/41/53 
f 79/117/79/117 78/116/78/116 41/53/41/53 
f 79/117/79/117 41/53/41/53 43/55/43/55 
f 80/118/80/118 79/117/79/117 43/55/43/55 
f 80/118/80/118 43/55/43/55 45/57/45/57 
f 81/119/81/119 80/118/80/118 45/57/45/57 
f 81/119/81/119 45/57/45/57 47/59/47/59 
f 82/120/82/120 81/119/81/119 47/59/47/59 
f 82/120/82/120 47/59/47/59 49/61/49/61 
f 83/121/83/121 82/120/82/120 49/61/49/61 
f 83/121/83/121 49/61/49/61 51/63/51/63 
f 76/122/76/122 83/121/83/121 51/63/51/63 
f 76/122/76/122 51/63/51/63 38/65/38/65 
f 84/123/84/123 85/124/85/124 86/125/86/125 
f 84/123/84/123 86/125/86/125 87/126/87/126 
f 88/127/88/127 89/128/89/128 85/124/85/124 
f 88/127/88/127 85/124/85/124 84/123/84/123 
f 90/129/90/129 91/130/91/130 89/128/89/128 
f 90/129/90/129 89/128/89/128 88/127/88/127 
f 87/131/87/131 86/132/86/132 91/130/91/130 
f 87/131/87/131 91/130/91/130 90/129/90/129 
f 0/133/0/133 3/134/3/134 92/135/92/135 
f 0/133/0/133 92/135/92/135 93/136/93/136 
f 1/137/1/137 0/133/0/133 93/136/93/136 
f 1/137/1/137 93/136/93/136 94/138/94/138 
f 2/139/2/139 1/140/1/140 94/141/94/141 
f 2/139/2/139 94/141/94/141 95/142/95/142 
f 3/134/3/134 2/139/2/139 95/142/95/142 
f 3/134/3/134 95/142/95/142 92/135/92/135 
f 5/5/5/5 84/123/84/123 87/126/87/126 
f 5/5/5/5 87/126/87/126 6/6/6/6 
f 9/9/9/9 88/127/88/127 84/123/84/123 
f 9/9/9/9 84/123/84/123 5/5/5/5 
f 11/11/11/11 90/129/90/129 88/127/88/127 
f 11/11/11/11 88/127/88/127 9/9/9/9 
f 6/13/6/13 87/131/87/131 90/129/90/129 
f 6/13/6/13 90/129/90/129 11/11/11/11 
f 92/135/92/135 86/143/86/143 85/144/85/144 
f 92/135/92/135 85/144/85/144 93/136/93/136 
f 95/142/95/142 91/145/91/145 86/146/86/146 
f 95/142/95/142 86/146/86/146 92/135/92/135 
f 94/141/94/141 89/147/89/147 91/148/91/148 
f 94/141/94/141 91/148/91/148 95/142/95/142 
f 93/136/93/136 85/149/85/149 89/150/89/150 
f 93/136/93/136 89/150/89/150 94/138/94/138 
