v -225.0867 186.5209 569.3782
v -224.4549 192.9853 568.5563
v -224.4549 192.9853 575.488
v -225.0867 186.5209 575.488
v -271.5764 192.9853 567.8701
v -225.0135 192.9853 567.8701
v -225.6827 186.5209 568.6462
v -270.9075 186.5209 568.6462
v -276.4114 208.8855 561.9177
v -276.3826 213.2486 561.9177
v -220.2073 213.2486 561.9177
v -220.1788 208.8855 561.9177
v -276.9814 208.8855 575.488
v -276.9814 213.2486 575.488
v -276.9814 213.2486 562.6531
v -276.9814 208.8855 562.6179
v -225.5504 182.6522 569.9614
v -223.7623 184.5865 567.8377
v -223.7623 184.5865 575.488
v -225.5504 182.6522 575.488
v -272.1616 184.5865 567.0196
v -224.4283 184.5865 567.0196
v -226.1575 182.6522 569.2156
v -270.4326 182.6522 569.2156
v -219.6089 213.2486 562.6531
v -217.9434 215.4301 560.6855
v -217.9434 215.4301 575.488
v -219.6089 213.2486 575.488
v -277.9844 215.4301 559.8723
v -218.6055 215.4301 559.8723
v -219.6089 217.6116 562.7308
v -219.6089 217.6116 575.488
v -276.3193 217.6116 561.9177
v -220.2706 217.6116 561.9177
v -222.3148 201.9842 565.9556
v -219.6089 208.8855 562.6179
v -219.6089 208.8855 575.488
v -222.3148 201.9842 575.488
v -222.8961 201.9842 565.2416
v -273.6941 201.9842 565.2416
v -271.5032 186.5209 569.3782
v -272.1355 192.9853 568.5563
v -272.8276 184.5865 567.8377
v -271.0398 182.6522 569.9614
v -278.6465 215.4301 560.6855
v -276.9814 217.6116 562.7308
v -274.2751 201.9842 565.9556
v -276.9814 217.6116 575.488
v -272.1355 192.9853 575.488
v -271.5032 186.5209 575.488
v -272.8276 184.5865 575.488
v -271.04 182.6522 575.488
v -278.6465 215.4301 575.488
v -274.2751 201.9842 575.488
gi 0 0 0 0
gw 0.0 0.0 0.0 0.0
gi 0 0 0 0
gw 0.0 0.0 0.0 0.0
gi 0 0 0 0
gw 0.0 0.0 0.0 0.0
gi 0 0 0 0
gw 0.0 0.0 0.0 0.0
gi 0 0 0 0
gw 0.0 0.0 0.0 0.0
gi 0 0 0 0
gw 0.0 0.0 0.0 0.0
gi 0 0 0 0
gw 0.0 0.0 0.0 0.0
gi 0 0 0 0
gw 0.0 0.0 0.0 0.0
gi 0 0 0 0
gw 0.0 0.0 0.0 0.0
gi 0 0 0 0
gw 0.0 0.0 0.0 0.0
gi 0 0 0 0
gw 0.0 0.0 0.0 0.0
gi 0 0 0 0
gw 0.0 0.0 0.0 0.0
gi 0 0 0 0
gw 0.0 0.0 0.0 0.0
gi 0 0 0 0
gw 0.0 0.0 0.0 0.0
gi 0 0 0 0
gw 0.0 0.0 0.0 0.0
gi 0 0 0 0
gw 0.0 0.0 0.0 0.0
gi 0 0 0 0
gw 0.0 0.0 0.0 0.0
gi 0 0 0 0
gw 0.0 0.0 0.0 0.0
gi 0 0 0 0
gw 0.0 0.0 0.0 0.0
gi 0 0 0 0
gw 0.0 0.0 0.0 0.0
gi 0 0 0 0
gw 0.0 0.0 0.0 0.0
gi 0 0 0 0
gw 0.0 0.0 0.0 0.0
gi 0 0 0 0
gw 0.0 0.0 0.0 0.0
gi 0 0 0 0
gw 0.0 0.0 0.0 0.0
gi 0 0 0 0
gw 0.0 0.0 0.0 0.0
gi 0 0 0 0
gw 0.0 0.0 0.0 0.0
gi 0 0 0 0
gw 0.0 0.0 0.0 0.0
gi 0 0 0 0
gw 0.0 0.0 0.0 0.0
gi 0 0 0 0
gw 0.0 0.0 0.0 0.0
gi 0 0 0 0
gw 0.0 0.0 0.0 0.0
gi 0 0 0 0
gw 0.0 0.0 0.0 0.0
gi 0 0 0 0
gw 0.0 0.0 0.0 0.0
gi 0 0 0 0
gw 0.0 0.0 0.0 0.0
gi 0 0 0 0
gw 0.0 0.0 0.0 0.0
gi 0 0 0 0
gw 0.0 0.0 0.0 0.0
gi 0 0 0 0
gw 0.0 0.0 0.0 0.0
gi 0 0 0 0
gw 0.0 0.0 0.0 0.0
gi 0 0 0 0
gw 0.0 0.0 0.0 0.0
gi 0 0 0 0
gw 0.0 0.0 0.0 0.0
gi 0 0 0 0
gw 0.0 0.0 0.0 0.0
gi 0 0 0 0
gw 0.0 0.0 0.0 0.0
gi 0 0 0 0
gw 0.0 0.0 0.0 0.0
gi 0 0 0 0
gw 0.0 0.0 0.0 0.0
gi 0 0 0 0
gw 0.0 0.0 0.0 0.0
gi 0 0 0 0
gw 0.0 0.0 0.0 0.0
gi 0 0 0 0
gw 0.0 0.0 0.0 0.0
gi 0 0 0 0
gw 0.0 0.0 0.0 0.0
gi 0 0 0 0
gw 0.0 0.0 0.0 0.0
gi 0 0 0 0
gw 0.0 0.0 0.0 0.0
gi 0 0 0 0
gw 0.0 0.0 0.0 0.0
gi 0 0 0 0
gw 0.0 0.0 0.0 0.0
gi 0 0 0 0
gw 0.0 0.0 0.0 0.0
gi 0 0 0 0
gw 0.0 0.0 0.0 0.0
gi 0 0 0 0
gw 0.0 0.0 0.0 0.0
vt 0.2773 0.6742
vt 0.2773 0.6911
vt 0.4476 0.6911
vt 0.4476 0.6742
vt 0.4453 0.6933
vt 0.2795 0.6933
vt 0.5504 0.8881
vt 0.5526 0.9084
vt 0.5337 0.9084
vt 0.5337 0.8881
vt 0.7614 0.91
vt 0.6053 0.91
vt 0.6076 0.8897
vt 0.7592 0.8897
vt 0.7776 0.96
vt 0.7775 0.9737
vt 0.5892 0.9737
vt 0.5891 0.96
vt 0.8287 0.9596
vt 0.8287 0.9733
vt 0.7937 0.9733
vt 0.7936 0.9596
vt 0.9865 0.7672
vt 0.9959 0.7791
vt 0.9632 0.7791
vt 0.9619 0.7672
vt 0.2524 0.779
vt 0.0111 0.779
vt 0.0112 0.7672
vt 0.2525 0.7672
vt 0.5337 0.882
vt 0.5546 0.882
vt 0.6034 0.8836
vt 0.7634 0.8836
vt 0.5687 0.9721
vt 0.5741 0.979
vt 0.5337 0.979
vt 0.5337 0.9721
vt 0.7829 0.9806
vt 0.5839 0.9806
vt 0.5685 0.9859
vt 0.5337 0.9859
vt 0.7773 0.9875
vt 0.5894 0.9875
vt 0.5597 0.9367
vt 0.5688 0.9584
vt 0.5337 0.9584
vt 0.5337 0.9367
vt 0.5982 0.9383
vt 0.7685 0.9383
vt 0.6028 0.9094
vt 0.605 0.8907
vt 0.8095 0.8902
vt 0.8121 0.8892
vt 0.8098 0.9096
vt 0.8073 0.909
vt 0.5867 0.9726
vt 0.5865 0.9593
vt 0.7912 0.9721
vt 0.791 0.9589
vt 0.6007 0.8862
vt 0.8052 0.8857
vt 0.8079 0.8832
vt 0.0078 0.7789
vt 0.0079 0.7672
vt 0.2559 0.779
vt 0.2558 0.7672
vt 0.5815 0.9806
vt 0.7884 0.9801
vt 0.786 0.9801
vt 0.5871 0.99
vt 0.7939 0.987
vt 0.7916 0.9896
vt 0.5957 0.9372
vt 0.8002 0.9367
vt 0.8027 0.9379
vt 0.0091 0.8976
vt 0.0091 0.876
vt 0.0109 0.8746
vt 0.1674 0.876
vt 0.1655 0.8746
vt 0.1674 0.8976
vt 0.8287 0.9096
vt 0.8287 0.8892
vt 0.2874 0.779
vt 0.2803 0.7672
vt 0.8287 0.8832
vt 0.8287 0.9801
vt 0.8287 0.987
vt 0.8287 0.9379
vn 0.0 -1.0 0.0
vn 0.0 -1.0 0.0
vn 0.0 -1.0 -0.0
vn 0.9118 0.3115 -0.2677
vn 0.9232 -0.2213 -0.3143
vn 0.9863 -0.1647 0.0
vn 0.9685 0.2488 0.0
vn -0.4077 -0.254 -0.8771
vn 0.4079 -0.254 -0.877
vn 0.3713 0.3626 -0.8548
vn -0.3714 0.3626 -0.8547
vn -0.4271 -0.251 -0.8686
vn -0.3556 -0.4619 -0.8125
vn 0.3557 -0.4619 -0.8124
vn 0.4272 -0.251 -0.8686
vn -0.9826 -0.1858 0.0
vn -0.9473 -0.3202 0.0
vn -0.8773 -0.4014 -0.2631
vn -0.9078 -0.2349 -0.3475
vn 0.405 -0.9097 -0.0917
vn 0.9149 -0.0672 -0.3981
vn 0.9973 -0.0728 0.0
vn 0.401 -0.9161 -0.0
vn -0.4598 -0.0629 -0.8858
vn 0.4599 -0.0629 -0.8858
vn 0.1381 -0.9239 -0.3568
vn -0.1382 -0.9239 -0.3568
vn 0.8773 -0.4014 -0.2629
vn 0.9163 0.0033 -0.4004
vn 1.0 0.0 0.0
vn 0.9473 -0.3203 0.0
vn -0.4624 0.0025 -0.8867
vn 0.4624 0.0025 -0.8867
vn 0.4484 0.8877 -0.1047
vn 0.4434 0.8963 0.0
vn -0.1562 0.9026 -0.4012
vn 0.1562 0.9026 -0.4011
vn 0.8737 -0.3895 -0.2913
vn 0.9078 -0.2348 -0.3474
vn 0.9826 -0.1858 0.0
vn 0.9543 -0.2989 0.0
vn 0.3736 -0.4407 -0.8162
vn -0.3737 -0.4407 -0.8162
vn -0.9118 0.3115 -0.2676
vn -0.9231 -0.2213 -0.3145
vn -0.9149 -0.0672 -0.3981
vn -0.4051 -0.9097 -0.0917
vn -0.9163 0.0033 -0.4005
vn -0.4484 0.8877 -0.1048
vn -0.8738 -0.3895 -0.2912
vn -0.4434 0.8963 0.0
vn -0.9863 -0.1647 0.0
vn -0.9686 0.2488 0.0
vn -0.9973 -0.0728 -0.0
vn -0.401 -0.9161 -0.0
vn -1.0 0.0 0.0
vn -0.9543 -0.2989 0.0
vtan 1.0 0.0 0.0 -1.0
vtan 1.0 0.0 0.0 -1.0
vtan -0.2533 -0.0865 -0.9635 1.0
vtan -0.3057 0.0733 -0.9493 1.0
vtan 0.0 0.0 -1.0 1.0
vtan -0.9131 0.1134 0.3916 1.0
vtan -0.913 -0.1188 -0.3903 1.0
vtan -0.9265 0.205 -0.3155 1.0
vtan -0.9285 -0.145 0.3419 1.0
vtan -0.9042 0.1186 0.4104 1.0
vtan -0.9346 0.1758 0.3092 1.0
vtan -0.9342 -0.1514 -0.323 1.0
vtan -0.9038 -0.144 -0.4029 1.0
vtan 0.0 0.0 1.0 1.0
vtan -0.2125 -0.1666 0.9629 1.0
vtan -0.3211 -0.1437 0.9361 1.0
vtan -0.0373 0.0838 -0.9958 1.0
vtan -0.397 0.0292 -0.9174 1.0
vtan -0.0 0.0 -1.0 1.0
vtan -0.8875 -0.0021 0.4609 1.0
vtan -0.8877 -0.0086 -0.4603 1.0
vtan -0.9225 0.0111 -0.3857 1.0
vtan -0.9218 -0.0118 0.3875 1.0
vtan -0.397 0.0292 -0.9174 1.0
vtan -0.8293 0.3261 -0.4537 1.0
vtan -0.888 0.0326 0.4587 1.0
vtan -0.2391 0.1094 -0.9648 1.0
vtan -0.4004 -0.0014 -0.9163 1.0
vtan -0.8867 -0.0013 0.4624 1.0
vtan -0.8867 -0.0001 -0.4624 1.0
vtan -0.0472 -0.0935 -0.9945 1.0
vtan -0.9877 -0.1427 0.0634 1.0
vtan -0.9858 0.1172 -0.1202 1.0
vtan -0.2661 0.1186 -0.9566 1.0
vtan -0.3364 0.087 -0.9377 1.0
vtan 0.0 0.0 -1.0 1.0
vtan -0.9275 -0.19 -0.3219 1.0
vtan -0.9276 0.1775 0.3288 1.0
vtan -0.3692 -0.2826 -0.8853 1.0
vtan -0.4026 0.5486 -0.7328 1.0
vtan -0.6672 0.536 0.5173 1.0
vtan -0.234 0.1414 0.9619 1.0
vtan -0.2993 -0.0999 0.9489 1.0
vtan -0.8045 -0.3543 0.4766 1.0
vtan -0.4488 -0.4924 -0.7458 1.0
vtan -0.4114 -0.3385 -0.8462 1.0
vtan -0.6288 -0.5249 0.5736 1.0
vtan -0.7894 -0.3649 0.4936 1.0
vtan -0.2304 0.7228 -0.6515 1.0
vtan -0.5709 0.7849 0.2407 1.0
vtan -0.3981 0.3135 0.8621 1.0
vtan -0.4008 -0.0333 -0.9156 1.0
vtan -0.5663 -0.1708 -0.8063 1.0
vtan -0.3992 0.0031 0.9169 1.0
vtan -0.2536 0.0155 0.9672 1.0
vtan -0.4003 0.0329 -0.9158 1.0
vtan -0.4004 0.0128 0.9163 1.0
vtan -0.8867 0.0011 0.4624 1.0
vtan -0.8829 0.4215 -0.2071 1.0
vtan 0.0233 0.1288 0.9914 1.0
vtan -0.132 0.3834 0.9141 1.0
vtan -0.4662 -0.4998 -0.73 1.0
vtan -0.6068 -0.5494 0.5745 1.0
vtan -0.2341 -0.1881 0.9538 1.0
vtan -0.8963 0.4434 0.0004 1.0
vtan -0.8936 0.4479 -0.0297 1.0
vtan -0.9877 0.1448 -0.0588 1.0
vtan -0.8938 -0.4453 0.0525 1.0
vtan -0.8963 -0.4434 0.0 1.0
vtan -0.0 0.0 1.0 1.0
vtan -0.0 -0.0 1.0 1.0
vtan -0.0 -0.0 1.0 1.0
f 51/0/0/0 43/1/0/0 16/2/0/0 
f 51/0/0/0 16/2/0/0 19/3/0/0 
f 22/4/1/0 16/2/1/1 43/1/1/0 
f 22/4/2/1 43/1/2/0 23/5/2/0 
f 0/6/3/2 1/7/4/3 2/8/5/4 
f 0/6/3/2 2/8/5/4 3/9/6/4 
f 4/10/7/5 5/11/8/6 6/12/9/7 
f 4/10/7/5 6/12/9/7 7/13/10/8 
f 8/14/11/9 9/15/12/10 10/16/13/11 
f 8/14/11/9 10/16/13/11 11/17/14/12 
f 12/18/15/13 13/19/16/13 14/20/17/14 
f 12/18/15/13 14/20/17/14 15/21/18/15 
f 16/22/19/16 17/23/20/17 18/24/21/4 
f 16/22/19/16 18/24/21/4 19/25/22/18 
f 20/26/23/19 21/27/24/20 22/28/25/21 
f 20/26/23/19 22/28/25/21 23/29/26/22 
f 0/6/3/2 3/9/6/4 18/30/21/4 
f 0/6/3/2 18/30/21/4 17/31/20/23 
f 7/13/10/8 6/12/9/7 21/32/24/24 
f 7/13/10/8 21/32/24/24 20/33/23/25 
f 24/34/27/26 25/35/28/27 26/36/29/4 
f 24/34/27/26 26/36/29/4 27/37/30/4 
f 28/38/31/28 29/39/32/29 10/16/13/11 
f 28/38/31/28 10/16/13/11 9/15/12/10 
f 30/40/33/30 31/41/34/4 26/36/29/4 
f 30/40/33/30 26/36/29/4 25/35/28/27 
f 32/42/35/31 33/43/36/32 29/39/32/29 
f 32/42/35/31 29/39/32/29 28/38/31/28 
f 34/44/37/33 35/45/38/34 36/46/39/35 
f 34/44/37/33 36/46/39/35 37/47/40/35 
f 8/14/11/9 11/17/14/12 38/48/41/36 
f 8/14/11/9 38/48/41/36 39/49/42/37 
f 1/7/4/3 34/44/37/33 37/47/40/35 
f 1/7/4/3 37/47/40/35 2/8/5/4 
f 39/49/42/37 38/48/41/36 5/11/8/6 
f 39/49/42/37 5/11/8/6 4/10/7/5 
f 1/50/4/38 0/51/3/39 6/12/9/7 
f 1/50/4/38 6/12/9/7 5/11/8/6 
f 7/52/10/40 40/53/43/41 41/54/44/42 
f 7/52/10/40 41/54/44/42 4/55/7/43 
f 11/17/14/12 10/16/13/11 24/56/27/44 
f 11/17/14/12 24/56/27/44 35/57/38/45 
f 15/21/18/15 14/20/17/14 9/58/12/46 
f 15/21/18/15 9/58/12/46 8/59/11/47 
f 6/12/9/7 0/51/3/39 17/60/20/48 
f 6/12/9/7 17/60/20/48 21/32/24/24 
f 7/52/10/40 20/61/23/49 42/62/45/50 
f 7/52/10/40 42/62/45/50 40/53/43/41 
f 17/63/20/51 16/64/19/52 22/28/25/21 
f 17/63/20/51 22/28/25/21 21/27/24/20 
f 42/65/45/53 20/26/23/19 23/29/26/22 
f 42/65/45/53 23/29/26/22 43/66/46/54 
f 10/16/13/11 29/39/32/29 25/67/28/55 
f 10/16/13/11 25/67/28/55 24/56/27/44 
f 9/58/12/46 14/20/17/14 44/68/47/56 
f 9/58/12/46 44/68/47/56 28/69/31/57 
f 25/67/28/55 29/39/32/29 33/43/36/32 
f 25/67/28/55 33/43/36/32 30/70/33/58 
f 44/68/47/56 45/71/48/59 32/72/35/60 
f 44/68/47/56 32/72/35/60 28/69/31/57 
f 38/48/41/36 11/17/14/12 35/57/38/45 
f 38/48/41/36 35/57/38/45 34/73/37/61 
f 39/74/42/62 46/75/49/63 15/21/18/15 
f 39/74/42/62 15/21/18/15 8/59/11/47 
f 5/11/8/6 38/48/41/36 34/73/37/61 
f 5/11/8/6 34/73/37/61 1/50/4/38 
f 4/55/7/43 41/54/44/42 46/75/49/63 
f 4/55/7/43 46/75/49/63 39/74/42/62 
f 31/76/34/64 30/77/33/65 33/78/36/66 
f 31/76/34/64 33/78/36/66 45/79/48/67 
f 33/78/36/66 32/80/35/31 45/79/48/67 
f 47/81/50/68 31/76/34/64 45/79/48/67 
f 48/82/51/13 41/54/44/42 40/53/43/41 
f 48/82/51/13 40/53/43/41 49/83/52/13 
f 36/46/39/35 35/45/38/34 24/34/27/26 
f 36/46/39/35 24/34/27/26 27/37/30/4 
f 50/84/53/69 42/65/45/53 43/66/46/54 
f 50/84/53/69 43/66/46/54 51/85/54/70 
f 50/86/53/71 49/83/52/13 40/53/43/41 
f 50/86/53/71 40/53/43/41 42/62/45/50 
f 52/87/55/13 44/68/47/56 14/20/17/14 
f 52/87/55/13 14/20/17/14 13/19/16/13 
f 52/87/55/13 47/88/50/13 45/71/48/59 
f 52/87/55/13 45/71/48/59 44/68/47/56 
f 12/18/15/13 15/21/18/15 46/75/49/63 
f 12/18/15/13 46/75/49/63 53/89/56/13 
f 53/89/56/13 46/75/49/63 41/54/44/42 
f 53/89/56/13 41/54/44/42 48/82/51/13 
