v -416.7577 990.7952 202.7871
v -416.7577 990.7952 175.1096
v -416.7576 927.3633 175.1096
v -416.7576 927.3632 202.787
v -391.8121 1011.3603 169.3195
v -388.7013 1014.4711 169.3195
v -388.7014 927.3633 169.3195
v -391.8121 927.3633 169.3195
v -388.7013 1014.4711 202.7871
v -388.7014 927.3632 202.787
v -396.5619 1006.6105 175.1096
v -396.5619 927.3633 175.1096
v -435.2793 990.7952 175.1096
v -435.2793 1006.6105 175.1096
v -435.2793 1011.3602 169.3195
v -435.2793 990.7952 202.7871
v -435.2793 1014.4711 169.3195
v -435.2793 1014.4711 202.7871
v -453.801 927.3632 175.1096
v -453.8008 990.7952 175.1096
v -453.8008 990.7952 202.7872
v -453.801 927.3632 202.7872
v -479.0308 927.3632 169.3195
v -479.0308 1014.4711 169.3195
v -475.9199 1011.3603 169.3195
v -475.9199 927.3632 169.3195
v -479.0308 1014.4711 202.7872
v -479.0308 927.3632 202.7872
v -471.1702 927.3632 175.1096
v -471.1702 1006.6105 175.1096
gi 0 0 0 0
gi 0 0 0 0
gi 0 0 0 0
gi 0 0 0 0
gi 0 0 0 0
gi 0 0 0 0
gi 0 0 0 0
gi 0 0 0 0
gi 0 0 0 0
gi 0 0 0 0
gi 0 0 0 0
gi 0 0 0 0
gi 0 0 0 0
gi 0 0 0 0
gi 0 0 0 0
gi 0 0 0 0
gi 0 0 0 0
gi 0 0 0 0
gi 0 0 0 0
gi 0 0 0 0
gi 0 0 0 0
gi 0 0 0 0
gi 0 0 0 0
gi 0 0 0 0
gi 0 0 0 0
gi 0 0 0 0
gi 0 0 0 0
gi 0 0 0 0
gi 0 0 0 0
gi 0 0 0 0
gw 0.0 0.0 0.0 0.0
gw 0.0 0.0 0.0 0.0
gw 0.0 0.0 0.0 0.0
gw 0.0 0.0 0.0 0.0
gw 0.0 0.0 0.0 0.0
gw 0.0 0.0 0.0 0.0
gw 0.0 0.0 0.0 0.0
gw 0.0 0.0 0.0 0.0
gw 0.0 0.0 0.0 0.0
gw 0.0 0.0 0.0 0.0
gw 0.0 0.0 0.0 0.0
gw 0.0 0.0 0.0 0.0
gw 0.0 0.0 0.0 0.0
gw 0.0 0.0 0.0 0.0
gw 0.0 0.0 0.0 0.0
gw 0.0 0.0 0.0 0.0
gw 0.0 0.0 0.0 0.0
gw 0.0 0.0 0.0 0.0
gw 0.0 0.0 0.0 0.0
gw 0.0 0.0 0.0 0.0
gw 0.0 0.0 0.0 0.0
gw 0.0 0.0 0.0 0.0
gw 0.0 0.0 0.0 0.0
gw 0.0 0.0 0.0 0.0
gw 0.0 0.0 0.0 0.0
gw 0.0 0.0 0.0 0.0
gw 0.0 0.0 0.0 0.0
gw 0.0 0.0 0.0 0.0
gw 0.0 0.0 0.0 0.0
gw 0.0 0.0 0.0 0.0
vt 0.7878 0.0638
vt 0.7878 0.1543
vt 0.9965 0.1543
vt 0.9965 0.0638
vt 0.7384 0.2067
vt 0.7282 0.2169
vt 0.9965 0.2169
vt 0.9965 0.2067
vt 0.7282 0.3263
vt 0.9965 0.3263
vt 0.7541 0.1878
vt 0.9965 0.1878
vt 0.8487 0.1543
vt 0.8487 0.1878
vt 0.8487 0.2067
vt 0.8487 0.0638
vt 0.8487 0.2169
vt 0.8487 0.3263
vn -0.7071 -0.7071 -0.0
vn -0.3015 -0.3015 -0.9045
vn -0.7071 -0.0 -0.7071
vn -1.0 0.0 0.0
vn -0.1277 -0.1277 -0.9836
vn 0.5773 0.5773 -0.5774
vn 0.7071 -0.0 -0.7071
vn -0.4277 0.0 -0.9039
vn 0.7071 0.7071 -0.0
vn 1.0 -0.0 0.0
vn -0.3387 -0.3387 -0.8778
vn -0.4277 0.0 -0.9039
vn -0.0 -0.7071 -0.7071
vn 0.0 -0.4276 -0.9039
vn 0.0 -0.4276 -0.9039
vn -0.0 -1.0 0.0
vn 0.0 0.7071 -0.7071
vn 0.0 1.0 0.0
vn 0.7071 -0.0 -0.7071
vn 0.3015 -0.3015 -0.9045
vn 0.7071 -0.7071 -0.0
vn 1.0 -0.0 -0.0
vn -0.7071 0.0 -0.7071
vn -0.5773 0.5774 -0.5774
vn 0.1277 -0.1277 -0.9836
vn 0.4277 0.0 -0.9039
vn -0.7071 0.7071 0.0
vn 0.4277 0.0 -0.9039
vn 0.3387 -0.3387 -0.8778
vtan 0.7071 -0.7071 0.0
vtan 0.0953 -0.9535 0.286
vtan 0.0 -1.0 -0.0
vtan 0.0 -1.0 -0.0
vtan 0.0164 -0.9918 0.1266
vtan 0.4082 -0.8165 -0.4083
vtan -0.0 -1.0 -0.0
vtan -0.0 -1.0 -0.0
vtan 0.7071 -0.7071 -0.0
vtan -0.0 -1.0 -0.0
vtan 0.1219 -0.9409 0.316
vtan 0.0 -1.0 -0.0
vtan -0.9535 0.0953 0.286
vtan -1.0 0.0 0.0
vtan -1.0 0.0 0.0
vtan -0.9409 0.1219 0.316
vtan -1.0 -0.0 0.0
vtan -0.9918 0.0164 0.1266
vtan -0.7071 0.7071 0.0
vtan -1.0 0.0 0.0
vtan -1.0 -0.0 -0.0
vtan -0.8165 0.4082 -0.4082
vtan -1.0 0.0 0.0
vtan -0.7071 0.7071 -0.0
vtan -0.0 -1.0 -0.0
vtan -0.0953 -0.9535 0.286
vtan -0.7071 -0.7071 0.0
vtan -0.0 -1.0 -0.0
vtan 0.0 -1.0 -0.0
vtan -0.4082 -0.8165 -0.4083
vtan -0.0164 -0.9918 0.1266
vtan -0.0 -1.0 -0.0
vtan -0.7071 -0.7071 -0.0
vtan 0.0 -1.0 -0.0
vtan -0.0 -1.0 -0.0
vtan -0.1219 -0.9409 0.316
vtan 0.9535 0.0953 0.286
vtan 0.9409 0.1219 0.316
vtan 1.0 0.0 0.0
vtan 1.0 0.0 -0.0
vtan 0.9918 0.0164 0.1266
vtan 1.0 -0.0 0.0
vtan 0.7071 0.7071 -0.0
vtan 1.0 -0.0 -0.0
vtan 0.8165 0.4082 -0.4082
vtan 1.0 -0.0 -0.0
vtan 0.7071 0.7071 -0.0
vtan 1.0 0.0 -0.0
f 0/0/0/0 1/1/1/1 2/2/2/2 
f 0/0/0/0 2/2/2/2 3/3/3/3 
f 4/4/4/4 5/5/5/5 6/6/6/6 
f 4/4/4/4 6/6/6/6 7/7/7/7 
f 6/6/6/6 5/5/5/5 8/8/8/8 
f 6/6/6/6 8/8/8/8 9/9/9/9 
f 1/1/1/1 10/10/10/10 11/11/11/11 
f 1/1/1/1 11/11/11/11 2/2/2/2 
f 10/10/10/10 4/4/4/4 7/7/7/7 
f 10/10/10/10 7/7/7/7 11/11/11/11 
f 1/1/1/12 12/12/12/13 13/13/13/14 
f 1/1/1/12 13/13/13/14 10/10/10/15 
f 10/10/10/15 13/13/13/14 14/14/14/16 
f 10/10/10/15 14/14/14/16 4/4/4/17 
f 0/0/0/18 15/15/15/19 12/12/12/13 
f 0/0/0/18 12/12/12/13 1/1/1/12 
f 16/16/16/20 5/5/5/21 4/4/4/17 
f 16/16/16/20 4/4/4/17 14/14/14/16 
f 17/17/17/22 8/8/8/23 5/5/5/21 
f 17/17/17/22 5/5/5/21 16/16/16/20 
f 18/2/18/24 19/1/19/25 20/0/20/26 
f 18/2/18/24 20/0/20/26 21/3/21/27 
f 22/6/22/28 23/5/23/29 24/4/24/30 
f 22/6/22/28 24/4/24/30 25/7/25/31 
f 26/8/26/32 23/5/23/29 22/6/22/28 
f 26/8/26/32 22/6/22/28 27/9/3/33 
f 19/1/19/25 18/2/18/24 28/11/27/34 
f 19/1/19/25 28/11/27/34 29/10/28/35 
f 29/10/28/35 28/11/27/34 25/7/25/31 
f 29/10/28/35 25/7/25/31 24/4/24/30 
f 19/1/19/36 29/10/28/37 13/13/13/38 
f 19/1/19/36 13/13/13/38 12/12/12/39 
f 29/10/28/37 24/4/24/40 14/14/14/41 
f 29/10/28/37 14/14/14/41 13/13/13/38 
f 20/0/20/42 19/1/19/36 12/12/12/39 
f 20/0/20/42 12/12/12/39 15/15/15/43 
f 24/4/24/40 23/5/23/44 16/16/16/45 
f 24/4/24/40 16/16/16/45 14/14/14/41 
f 23/5/23/44 26/8/26/46 17/17/17/47 
f 23/5/23/44 17/17/17/47 16/16/16/45 
