v 322.8867 990.7952 202.7869
v 322.8867 990.7952 175.1094
v 322.8868 927.3633 175.1094
v 322.8868 927.3632 202.7868
v 347.8323 1011.3603 169.3193
v 350.9431 1014.4711 169.3193
v 350.9431 927.3633 169.3193
v 347.8322 927.3633 169.3193
v 350.9431 1014.4711 202.7869
v 350.9431 927.3632 202.7868
v 343.0825 1006.6105 175.1094
v 343.0824 927.3633 175.1094
v 304.3651 990.7952 175.1094
v 304.3651 1006.6105 175.1094
v 304.3651 1011.3602 169.3193
v 304.3651 990.7952 202.7869
v 304.3651 1014.4711 169.3193
v 304.3651 1014.4711 202.7869
v 285.8434 927.3633 175.1094
v 285.8435 990.7952 175.1094
v 285.8435 990.7952 202.7869
v 285.8434 927.3632 202.7868
v 260.6136 927.3633 169.3193
v 260.6135 1014.4711 169.3193
v 263.7245 1011.3603 169.3193
v 263.7245 927.3633 169.3193
v 260.6135 1014.4711 202.7869
v 260.6136 927.3632 202.7868
v 268.4742 927.3633 175.1094
v 268.4742 1006.6105 175.1094
gi 0 0 0 0
gi 0 0 0 0
gi 0 0 0 0
gi 0 0 0 0
gi 0 0 0 0
gi 0 0 0 0
gi 0 0 0 0
gi 0 0 0 0
gi 0 0 0 0
gi 0 0 0 0
gi 0 0 0 0
gi 0 0 0 0
gi 0 0 0 0
gi 0 0 0 0
gi 0 0 0 0
gi 0 0 0 0
gi 0 0 0 0
gi 0 0 0 0
gi 0 0 0 0
gi 0 0 0 0
gi 0 0 0 0
gi 0 0 0 0
gi 0 0 0 0
gi 0 0 0 0
gi 0 0 0 0
gi 0 0 0 0
gi 0 0 0 0
gi 0 0 0 0
gi 0 0 0 0
gi 0 0 0 0
gw 0.0 0.0 0.0 0.0
gw 0.0 0.0 0.0 0.0
gw 0.0 0.0 0.0 0.0
gw 0.0 0.0 0.0 0.0
gw 0.0 0.0 0.0 0.0
gw 0.0 0.0 0.0 0.0
gw 0.0 0.0 0.0 0.0
gw 0.0 0.0 0.0 0.0
gw 0.0 0.0 0.0 0.0
gw 0.0 0.0 0.0 0.0
gw 0.0 0.0 0.0 0.0
gw 0.0 0.0 0.0 0.0
gw 0.0 0.0 0.0 0.0
gw 0.0 0.0 0.0 0.0
gw 0.0 0.0 0.0 0.0
gw 0.0 0.0 0.0 0.0
gw 0.0 0.0 0.0 0.0
gw 0.0 0.0 0.0 0.0
gw 0.0 0.0 0.0 0.0
gw 0.0 0.0 0.0 0.0
gw 0.0 0.0 0.0 0.0
gw 0.0 0.0 0.0 0.0
gw 0.0 0.0 0.0 0.0
gw 0.0 0.0 0.0 0.0
gw 0.0 0.0 0.0 0.0
gw 0.0 0.0 0.0 0.0
gw 0.0 0.0 0.0 0.0
gw 0.0 0.0 0.0 0.0
gw 0.0 0.0 0.0 0.0
gw 0.0 0.0 0.0 0.0
vt 0.7878 0.0638
vt 0.7878 0.1543
vt 0.9965 0.1543
vt 0.9965 0.0638
vt 0.7384 0.2067
vt 0.7282 0.2169
vt 0.9965 0.2169
vt 0.9965 0.2067
vt 0.7282 0.3263
vt 0.9965 0.3263
vt 0.7541 0.1878
vt 0.9965 0.1878
vt 0.8487 0.1543
vt 0.8487 0.1878
vt 0.8487 0.2067
vt 0.8487 0.0638
vt 0.8487 0.2169
vt 0.8487 0.3263
vn -0.7071 -0.7071 -0.0
vn -0.3015 -0.3015 -0.9045
vn -0.7071 -0.0 -0.7071
vn -1.0 -0.0 0.0
vn -0.1277 -0.1277 -0.9836
vn 0.5773 0.5774 -0.5774
vn 0.7071 0.0 -0.7071
vn -0.4277 0.0 -0.9039
vn 0.7071 0.7071 0.0
vn 1.0 0.0 0.0
vn -0.3387 -0.3387 -0.8778
vn -0.4277 0.0 -0.9039
vn 0.0 -0.7071 -0.7071
vn 0.0 -0.4276 -0.9039
vn 0.0 -0.4276 -0.9039
vn 0.0 -1.0 0.0
vn 0.0 0.7071 -0.7071
vn 0.0 1.0 0.0
vn 0.7071 -0.0 -0.7071
vn 0.3015 -0.3015 -0.9045
vn 0.7071 -0.7071 -0.0
vn 1.0 -0.0 0.0
vn -0.7071 -0.0 -0.7071
vn -0.5773 0.5774 -0.5774
vn 0.1277 -0.1277 -0.9836
vn 0.4277 0.0 -0.9039
vn -0.7071 0.7071 -0.0
vn -1.0 -0.0 0.0
vn 0.4277 0.0 -0.9039
vn 0.3387 -0.3387 -0.8778
vtan 0.7071 -0.7071 0.0
vtan 0.0953 -0.9535 0.286
vtan 0.0 -1.0 -0.0
vtan 0.0 -1.0 -0.0
vtan 0.0164 -0.9918 0.1266
vtan 0.4082 -0.8165 -0.4083
vtan -0.0 -1.0 -0.0
vtan -0.0 -1.0 0.0
vtan 0.7071 -0.7071 -0.0
vtan 0.0 -1.0 -0.0
vtan 0.1219 -0.9409 0.316
vtan 0.0 -1.0 -0.0
vtan -0.9535 0.0953 0.286
vtan -1.0 0.0 0.0
vtan -0.9409 0.1219 0.316
vtan -1.0 -0.0 0.0
vtan -0.9918 0.0164 0.1266
vtan -0.7071 0.7071 0.0
vtan -1.0 -0.0 -0.0
vtan -0.8165 0.4082 -0.4082
vtan -0.7071 0.7071 0.0
vtan -0.0 -1.0 -0.0
vtan -0.0953 -0.9535 0.286
vtan -0.7071 -0.7071 0.0
vtan -0.0 -1.0 -0.0
vtan 0.0 -1.0 0.0
vtan -0.4082 -0.8165 -0.4083
vtan -0.0164 -0.9918 0.1266
vtan 0.0 -1.0 -0.0
vtan -0.7071 -0.7071 -0.0
vtan 0.0 -1.0 -0.0
vtan -0.0 -1.0 -0.0
vtan -0.1219 -0.9409 0.316
vtan 0.9535 0.0953 0.286
vtan 0.9409 0.1219 0.316
vtan 1.0 0.0 0.0
vtan 0.9918 0.0164 0.1266
vtan 1.0 -0.0 0.0
vtan 0.7071 0.7071 0.0
vtan 0.8165 0.4082 -0.4082
vtan 1.0 -0.0 -0.0
vtan 0.7071 0.7071 -0.0
f 0/0/0/0 1/1/1/1 2/2/2/2 
f 0/0/0/0 2/2/2/2 3/3/3/3 
f 4/4/4/4 5/5/5/5 6/6/6/6 
f 4/4/4/4 6/6/6/6 7/7/7/7 
f 6/6/6/6 5/5/5/5 8/8/8/8 
f 6/6/6/6 8/8/8/8 9/9/9/9 
f 1/1/1/1 10/10/10/10 11/11/11/11 
f 1/1/1/1 11/11/11/11 2/2/2/2 
f 10/10/10/10 4/4/4/4 7/7/7/7 
f 10/10/10/10 7/7/7/7 11/11/11/11 
f 1/1/1/12 12/12/12/13 13/13/13/13 
f 1/1/1/12 13/13/13/13 10/10/10/14 
f 10/10/10/14 13/13/13/13 14/14/14/15 
f 10/10/10/14 14/14/14/15 4/4/4/16 
f 0/0/0/17 15/15/15/13 12/12/12/13 
f 0/0/0/17 12/12/12/13 1/1/1/12 
f 16/16/16/18 5/5/5/19 4/4/4/16 
f 16/16/16/18 4/4/4/16 14/14/14/15 
f 17/17/17/13 8/8/8/20 5/5/5/19 
f 17/17/17/13 5/5/5/19 16/16/16/18 
f 18/2/18/21 19/1/19/22 20/0/20/23 
f 18/2/18/21 20/0/20/23 21/3/21/24 
f 22/6/22/25 23/5/23/26 24/4/24/27 
f 22/6/22/25 24/4/24/27 25/7/25/28 
f 26/8/26/29 23/5/23/26 22/6/22/25 
f 26/8/26/29 22/6/22/25 27/9/27/30 
f 19/1/19/22 18/2/18/21 28/11/28/31 
f 19/1/19/22 28/11/28/31 29/10/29/32 
f 29/10/29/32 28/11/28/31 25/7/25/28 
f 29/10/29/32 25/7/25/28 24/4/24/27 
f 19/1/19/33 29/10/29/34 13/13/13/35 
f 19/1/19/33 13/13/13/35 12/12/12/35 
f 29/10/29/34 24/4/24/36 14/14/14/37 
f 29/10/29/34 14/14/14/37 13/13/13/35 
f 20/0/20/38 19/1/19/33 12/12/12/35 
f 20/0/20/38 12/12/12/35 15/15/15/35 
f 24/4/24/36 23/5/23/39 16/16/16/40 
f 24/4/24/36 16/16/16/40 14/14/14/37 
f 23/5/23/39 26/8/26/41 17/17/17/35 
f 23/5/23/39 17/17/17/35 16/16/16/40 
