v 137.1016 1225.527 174.6411
v 137.1016 1220.7145 172.9823
v 127.5701 1222.6902 172.9823
v 129.4829 1227.1062 174.6411
v 119.4282 1245.8318 176.6567
v 119.4283 1245.8318 189.9287
v 120.4323 1238.7134 189.9287
v 120.4323 1238.7134 176.6567
v 117.9756 1245.9253 174.6418
v 113.171 1246.2345 172.9823
v 115.4147 1254.928 172.9823
v 119.7708 1252.8726 174.6425
v 114.5305 1236.5957 172.9823
v 110.0004 1234.9703 169.4372
v 108.3681 1246.5436 169.4372
v 110.0004 1234.9703 189.9287
v 108.3681 1246.5436 189.9287
v 137.1016 1262.4044 176.6567
v 137.1016 1262.4044 189.9287
v 130.588 1261.1631 189.9287
v 130.588 1261.1631 176.6567
v 137.1016 1268.6747 172.9823
v 128.2819 1266.9939 172.9823
v 126.5118 1271.4694 169.4372
v 137.1016 1273.4875 169.4372
v 126.5118 1271.4694 189.9287
v 137.1016 1273.4875 189.9287
v 144.7202 1227.1062 174.6411
v 146.6331 1222.6902 172.9823
v 153.7709 1238.7134 176.6567
v 153.7709 1238.7134 189.9287
v 154.7749 1245.8318 189.9287
v 154.7749 1245.8318 176.6567
v 154.4324 1252.8726 174.6425
v 158.7885 1254.928 172.9823
v 161.0322 1246.2345 172.9823
v 156.2275 1245.9253 174.6418
v 164.2028 1234.9703 169.4372
v 159.6727 1236.5957 172.9823
v 165.8351 1246.5436 169.4372
v 164.2028 1234.9703 189.9287
v 165.8351 1246.5436 189.9287
v 143.6151 1261.1631 176.6567
v 143.6151 1261.1631 189.9287
v 147.6914 1271.4694 169.4372
v 145.9213 1266.9939 172.9823
v 147.6914 1271.4694 189.9287
v 123.1196 1231.5835 174.6411
v 119.6091 1228.2915 172.9823
v 119.0602 1238.2211 174.6411
v 124.183 1232.5806 176.6567
v 124.183 1232.5806 189.9287
v 130.0624 1228.4437 189.9287
v 130.0623 1228.4437 176.6567
v 123.9933 1258.6735 174.6425
v 120.6986 1262.187 172.9823
v 130.0534 1262.5148 174.6425
v 125.6571 1218.2738 169.4372
v 116.0984 1224.9995 169.4372
v 125.6571 1218.2738 189.9287
v 116.0984 1224.9995 189.9287
v 124.9875 1257.6132 176.6567
v 124.9875 1257.6132 189.9287
v 121.0853 1252.2522 189.9287
v 121.0853 1252.2522 176.6567
v 111.0621 1256.9819 169.4372
v 117.4065 1265.6978 169.4372
v 111.0621 1256.9819 189.9287
v 117.4065 1265.6978 189.9287
v 151.0835 1231.5835 174.6411
v 155.1429 1238.2212 174.6411
v 154.5941 1228.2915 172.9823
v 150.0201 1232.5806 176.6567
v 144.1408 1228.4438 176.6567
v 144.1408 1228.4438 189.9287
v 150.0201 1232.5806 189.9287
v 150.2098 1258.6735 174.6425
v 144.1498 1262.5148 174.6425
v 153.5046 1262.187 172.9823
v 158.1048 1224.9995 169.4372
v 148.5461 1218.2738 169.4372
v 158.1048 1224.9995 189.9287
v 148.5461 1218.2738 189.9287
v 149.2156 1257.6132 176.6567
v 153.1179 1252.2522 176.6567
v 153.1179 1252.2522 189.9287
v 149.2156 1257.6132 189.9287
v 156.7967 1265.6978 169.4372
v 163.1411 1256.9819 169.4372
v 156.7967 1265.6978 189.9287
v 163.1411 1256.9819 189.9287
v 137.1016 1226.9846 189.9287
v 137.1016 1226.9846 176.6567
v 137.1016 1263.8579 174.6425
v 137.1016 1215.9016 169.4372
v 137.1016 1215.9016 189.9287
gi 0 0 0 0
gw 0.0 0.0 0.0 0.0
gi 0 0 0 0
gw 0.0 0.0 0.0 0.0
gi 0 0 0 0
gw 0.0 0.0 0.0 0.0
gi 0 0 0 0
gw 0.0 0.0 0.0 0.0
gi 0 0 0 0
gw 0.0 0.0 0.0 0.0
gi 0 0 0 0
gw 0.0 0.0 0.0 0.0
gi 0 0 0 0
gw 0.0 0.0 0.0 0.0
gi 0 0 0 0
gw 0.0 0.0 0.0 0.0
gi 0 0 0 0
gw 0.0 0.0 0.0 0.0
gi 0 0 0 0
gw 0.0 0.0 0.0 0.0
gi 0 0 0 0
gw 0.0 0.0 0.0 0.0
gi 0 0 0 0
gw 0.0 0.0 0.0 0.0
gi 0 0 0 0
gw 0.0 0.0 0.0 0.0
gi 0 0 0 0
gw 0.0 0.0 0.0 0.0
gi 0 0 0 0
gw 0.0 0.0 0.0 0.0
gi 0 0 0 0
gw 0.0 0.0 0.0 0.0
gi 0 0 0 0
gw 0.0 0.0 0.0 0.0
gi 0 0 0 0
gw 0.0 0.0 0.0 0.0
gi 0 0 0 0
gw 0.0 0.0 0.0 0.0
gi 0 0 0 0
gw 0.0 0.0 0.0 0.0
gi 0 0 0 0
gw 0.0 0.0 0.0 0.0
gi 0 0 0 0
gw 0.0 0.0 0.0 0.0
gi 0 0 0 0
gw 0.0 0.0 0.0 0.0
gi 0 0 0 0
gw 0.0 0.0 0.0 0.0
gi 0 0 0 0
gw 0.0 0.0 0.0 0.0
gi 0 0 0 0
gw 0.0 0.0 0.0 0.0
gi 0 0 0 0
gw 0.0 0.0 0.0 0.0
gi 0 0 0 0
gw 0.0 0.0 0.0 0.0
gi 0 0 0 0
gw 0.0 0.0 0.0 0.0
gi 0 0 0 0
gw 0.0 0.0 0.0 0.0
gi 0 0 0 0
gw 0.0 0.0 0.0 0.0
gi 0 0 0 0
gw 0.0 0.0 0.0 0.0
gi 0 0 0 0
gw 0.0 0.0 0.0 0.0
gi 0 0 0 0
gw 0.0 0.0 0.0 0.0
gi 0 0 0 0
gw 0.0 0.0 0.0 0.0
gi 0 0 0 0
gw 0.0 0.0 0.0 0.0
gi 0 0 0 0
gw 0.0 0.0 0.0 0.0
gi 0 0 0 0
gw 0.0 0.0 0.0 0.0
gi 0 0 0 0
gw 0.0 0.0 0.0 0.0
gi 0 0 0 0
gw 0.0 0.0 0.0 0.0
gi 0 0 0 0
gw 0.0 0.0 0.0 0.0
gi 0 0 0 0
gw 0.0 0.0 0.0 0.0
gi 0 0 0 0
gw 0.0 0.0 0.0 0.0
gi 0 0 0 0
gw 0.0 0.0 0.0 0.0
gi 0 0 0 0
gw 0.0 0.0 0.0 0.0
gi 0 0 0 0
gw 0.0 0.0 0.0 0.0
gi 0 0 0 0
gw 0.0 0.0 0.0 0.0
gi 0 0 0 0
gw 0.0 0.0 0.0 0.0
gi 0 0 0 0
gw 0.0 0.0 0.0 0.0
gi 0 0 0 0
gw 0.0 0.0 0.0 0.0
gi 0 0 0 0
gw 0.0 0.0 0.0 0.0
gi 0 0 0 0
gw 0.0 0.0 0.0 0.0
gi 0 0 0 0
gw 0.0 0.0 0.0 0.0
gi 0 0 0 0
gw 0.0 0.0 0.0 0.0
gi 0 0 0 0
gw 0.0 0.0 0.0 0.0
gi 0 0 0 0
gw 0.0 0.0 0.0 0.0
gi 0 0 0 0
gw 0.0 0.0 0.0 0.0
gi 0 0 0 0
gw 0.0 0.0 0.0 0.0
gi 0 0 0 0
gw 0.0 0.0 0.0 0.0
gi 0 0 0 0
gw 0.0 0.0 0.0 0.0
gi 0 0 0 0
gw 0.0 0.0 0.0 0.0
gi 0 0 0 0
gw 0.0 0.0 0.0 0.0
gi 0 0 0 0
gw 0.0 0.0 0.0 0.0
gi 0 0 0 0
gw 0.0 0.0 0.0 0.0
gi 0 0 0 0
gw 0.0 0.0 0.0 0.0
gi 0 0 0 0
gw 0.0 0.0 0.0 0.0
gi 0 0 0 0
gw 0.0 0.0 0.0 0.0
gi 0 0 0 0
gw 0.0 0.0 0.0 0.0
gi 0 0 0 0
gw 0.0 0.0 0.0 0.0
gi 0 0 0 0
gw 0.0 0.0 0.0 0.0
gi 0 0 0 0
gw 0.0 0.0 0.0 0.0
gi 0 0 0 0
gw 0.0 0.0 0.0 0.0
gi 0 0 0 0
gw 0.0 0.0 0.0 0.0
gi 0 0 0 0
gw 0.0 0.0 0.0 0.0
gi 0 0 0 0
gw 0.0 0.0 0.0 0.0
gi 0 0 0 0
gw 0.0 0.0 0.0 0.0
gi 0 0 0 0
gw 0.0 0.0 0.0 0.0
gi 0 0 0 0
gw 0.0 0.0 0.0 0.0
gi 0 0 0 0
gw 0.0 0.0 0.0 0.0
gi 0 0 0 0
gw 0.0 0.0 0.0 0.0
gi 0 0 0 0
gw 0.0 0.0 0.0 0.0
gi 0 0 0 0
gw 0.0 0.0 0.0 0.0
gi 0 0 0 0
gw 0.0 0.0 0.0 0.0
gi 0 0 0 0
gw 0.0 0.0 0.0 0.0
gi 0 0 0 0
gw 0.0 0.0 0.0 0.0
gi 0 0 0 0
gw 0.0 0.0 0.0 0.0
gi 0 0 0 0
gw 0.0 0.0 0.0 0.0
gi 0 0 0 0
gw 0.0 0.0 0.0 0.0
gi 0 0 0 0
gw 0.0 0.0 0.0 0.0
gi 0 0 0 0
gw 0.0 0.0 0.0 0.0
gi 0 0 0 0
gw 0.0 0.0 0.0 0.0
gi 0 0 0 0
gw 0.0 0.0 0.0 0.0
gi 0 0 0 0
gw 0.0 0.0 0.0 0.0
gi 0 0 0 0
gw 0.0 0.0 0.0 0.0
gi 0 0 0 0
gw 0.0 0.0 0.0 0.0
gi 0 0 0 0
gw 0.0 0.0 0.0 0.0
vt 0.0033 0.1621
vt 0.0033 0.1878
vt 0.1275 0.1878
vt 0.1275 0.1621
vt 0.4999 0.1451
vt 0.4999 0.0638
vt 0.3758 0.0638
vt 0.3758 0.1451
vt 0.4999 0.1621
vt 0.4999 0.1878
vt 0.6143 0.1878
vt 0.6143 0.1621
vt 0.3758 0.1878
vt 0.3758 0.2169
vt 0.4999 0.2169
vt 0.3758 0.3263
vt 0.4999 0.3263
vt 0.9575 0.1451
vt 0.9575 0.0638
vt 0.8431 0.0638
vt 0.8431 0.1451
vt 0.9575 0.1878
vt 0.8431 0.1878
vt 0.8431 0.2169
vt 0.9575 0.2169
vt 0.8431 0.3263
vt 0.9575 0.3263
vt 0.2516 0.1621
vt 0.2516 0.1878
vt 0.3758 0.1621
vt 0.2516 0.1451
vt 0.2516 0.0638
vt 0.1275 0.0638
vt 0.1275 0.1451
vt 0.7287 0.1621
vt 0.7287 0.1878
vt 0.8431 0.1621
vt 0.1275 0.2169
vt 0.2516 0.2169
vt 0.1275 0.3263
vt 0.2516 0.3263
vt 0.7287 0.1451
vt 0.7287 0.0638
vt 0.6143 0.0638
vt 0.6143 0.1451
vt 0.6143 0.2169
vt 0.7287 0.2169
vt 0.6143 0.3263
vt 0.7287 0.3263
vt 0.0033 0.0638
vt 0.0033 0.1451
vt 0.9575 0.1621
vt 0.0033 0.2169
vt 0.0033 0.3263
vn 0.0 0.5694 -0.8221
vn 0.0 0.4799 -0.8773
vn 0.1907 0.4403 -0.8773
vn 0.2263 0.5225 -0.8221
vn 0.9461 -0.053 -0.3195
vn 0.9984 -0.0562 -0.0
vn 0.9412 0.3377 -0.0
vn 0.8917 0.3199 -0.3203
vn 0.5698 -0.0321 -0.8212
vn 0.4786 -0.0267 -0.8776
vn 0.4329 -0.2043 -0.878
vn 0.5172 -0.2441 -0.8203
vn 0.4517 0.1621 -0.8773
vn -0.5027 -0.1804 -0.8455
vn -0.5303 0.0294 -0.8473
vn -0.9412 -0.3377 0.0
vn -0.9984 0.0562 0.0
vn -0.0 -0.9478 -0.3187
vn 0.0 -1.0 0.0
vn 0.3678 -0.9299 0.0
vn 0.3486 -0.8814 -0.3188
vn 0.0 -0.4787 -0.878
vn 0.1761 -0.4452 -0.878
vn -0.1943 0.4912 -0.8491
vn 0.0 0.5282 -0.8491
vn -0.3678 0.9299 0.0
vn -0.0 1.0 0.0
vn -0.2263 0.5225 -0.8221
vn -0.1907 0.4403 -0.8773
vn -0.8917 0.3199 -0.3203
vn -0.9412 0.3377 0.0
vn -0.9984 -0.0562 0.0
vn -0.9461 -0.053 -0.3195
vn -0.5172 -0.2441 -0.8203
vn -0.4329 -0.2043 -0.878
vn -0.4786 -0.0267 -0.8776
vn -0.5698 -0.0321 -0.8212
vn 0.5027 -0.1804 -0.8454
vn -0.4517 0.1621 -0.8773
vn 0.5303 0.0294 -0.8473
vn 0.9412 -0.3377 0.0
vn 0.9984 0.0562 0.0
vn -0.3486 -0.8814 -0.3188
vn -0.3678 -0.9299 0.0
vn 0.1943 0.4912 -0.8491
vn -0.1761 -0.4452 -0.878
vn 0.3678 0.9299 0.0
vn 0.4153 0.3895 -0.8221
vn 0.3501 0.3283 -0.8773
vn 0.5359 0.1923 -0.8221
vn 0.691 0.648 -0.3203
vn 0.7295 0.684 0.0
vn 0.3975 0.9176 0.0
vn 0.3765 0.8693 -0.3203
vn 0.3912 -0.4172 -0.8203
vn 0.3275 -0.3492 -0.878
vn 0.2103 -0.5318 -0.8203
vn -0.2123 -0.4901 -0.8455
vn -0.3896 -0.3653 -0.8455
vn -0.3975 -0.9176 0.0
vn -0.7295 -0.684 0.0
vn 0.6483 -0.6914 -0.3188
vn 0.684 -0.7295 0.0
vn 0.9044 -0.4267 0.0
vn 0.8572 -0.4045 -0.3188
vn -0.4777 0.2254 -0.8491
vn -0.3613 0.3853 -0.8491
vn -0.9044 0.4267 0.0
vn -0.684 0.7295 0.0
vn -0.4153 0.3895 -0.8221
vn -0.5359 0.1923 -0.8221
vn -0.3501 0.3283 -0.8773
vn -0.691 0.648 -0.3203
vn -0.3765 0.8693 -0.3203
vn -0.3975 0.9176 0.0
vn -0.7294 0.684 0.0
vn -0.3912 -0.4172 -0.8203
vn -0.2103 -0.5318 -0.8203
vn -0.3275 -0.3492 -0.878
vn 0.3896 -0.3653 -0.8455
vn 0.2123 -0.4901 -0.8454
vn 0.7295 -0.684 0.0
vn 0.3975 -0.9176 0.0
vn -0.6483 -0.6914 -0.3187
vn -0.8572 -0.4045 -0.3188
vn -0.9044 -0.4267 0.0
vn -0.684 -0.7295 0.0
vn 0.3613 0.3853 -0.8491
vn 0.4777 0.2254 -0.8491
vn 0.684 0.7295 0.0
vn 0.9044 0.4268 0.0
vn -0.0 1.0 0.0
vn -0.0 0.9473 -0.3203
vn -0.0 -0.572 -0.8203
vn 0.0 -0.5341 -0.8454
vn 0.0 -1.0 0.0
vtan -0.9858 0.1381 0.0956 -1.0
vtan -0.9839 0.157 0.0859 -1.0
vtan -0.9176 0.3975 -0.0 -1.0
vtan -0.9176 0.3975 0.0 -1.0
vtan 0.0559 0.9984 0.0 -1.0
vtan 0.0562 0.9984 0.0 -1.0
vtan -0.3377 0.9412 -0.0 -1.0
vtan -0.3377 0.9413 0.0 -1.0
vtan 0.0562 0.9984 -0.0 -1.0
vtan 0.0562 0.9984 0.0002 -1.0
vtan 0.4268 0.9044 0.0 -1.0
vtan 0.4268 0.9043 0.0 -1.0
vtan -0.3377 0.9412 0.0 -1.0
vtan -0.3377 0.9412 0.0 -1.0
vtan 0.0569 0.9984 -0.0009 -1.0
vtan -0.3377 0.9412 0.0 -1.0
vtan 0.0562 0.9984 0.0 -1.0
vtan 0.9982 0.0193 -0.0575 -1.0
vtan 1.0 0.0 0.0 -1.0
vtan 0.9299 0.3678 0.0 -1.0
vtan 0.9299 0.3678 0.0 -1.0
vtan 0.9863 0.1449 -0.079 -1.0
vtan 0.9299 0.3678 0.0 -1.0
vtan 0.9299 0.3678 0.0 -1.0
vtan 0.9872 0.1356 0.0844 -1.0
vtan 0.9299 0.3678 0.0 -1.0
vtan 1.0 0.0 0.0 -1.0
vtan 0.9839 0.157 0.0859 1.0
vtan 0.9858 0.1381 0.0957 1.0
vtan 0.9176 0.3975 0.0 1.0
vtan 0.9176 0.3975 -0.0 1.0
vtan 0.3377 0.9412 0.0 1.0
vtan 0.3377 0.9412 0.0 1.0
vtan -0.0562 0.9984 0.0 1.0
vtan -0.0559 0.9984 0.0 1.0
vtan -0.4268 0.9043 0.0 1.0
vtan -0.4267 0.9044 0.0 1.0
vtan -0.0562 0.9984 0.0002 1.0
vtan -0.0563 0.9984 0.0 1.0
vtan 0.3377 0.9412 -0.0 1.0
vtan 0.3377 0.9412 0.0 1.0
vtan -0.0569 0.9984 -0.0009 1.0
vtan 0.3377 0.9412 0.0 1.0
vtan -0.0562 0.9984 0.0 1.0
vtan -0.9299 0.3678 0.0 1.0
vtan -0.9299 0.3678 0.0 1.0
vtan -1.0 -0.0 0.0 1.0
vtan -0.9982 0.0193 -0.0575 1.0
vtan -0.9299 0.3678 0.0 1.0
vtan -0.9299 0.3678 0.0 1.0
vtan -0.9863 0.1449 -0.079 1.0
vtan -0.9872 0.1356 0.0844 1.0
vtan -0.9299 0.3678 0.0 1.0
vtan -1.0 -0.0 0.0 1.0
vtan -0.684 0.7295 -0.0 -1.0
vtan -0.684 0.7295 -0.0 -1.0
vtan -0.3376 0.9413 0.0 -1.0
vtan -0.684 0.7295 0.0 -1.0
vtan -0.684 0.7295 0.0 -1.0
vtan -0.9176 0.3975 0.0 -1.0
vtan -0.9176 0.3975 0.0 -1.0
vtan 0.7295 0.684 -0.0 -1.0
vtan 0.7295 0.684 0.0 -1.0
vtan 0.9299 0.3678 -0.0 -1.0
vtan -0.9176 0.3975 0.0 -1.0
vtan -0.684 0.7295 0.0 -1.0
vtan -0.9176 0.3975 0.0 -1.0
vtan -0.684 0.7295 0.0 -1.0
vtan 0.7295 0.684 0.0 -1.0
vtan 0.7295 0.684 0.0 -1.0
vtan 0.4267 0.9044 0.0 -1.0
vtan 0.4267 0.9044 0.0 -1.0
vtan 0.4267 0.9044 0.0 -1.0
vtan 0.7295 0.684 0.0 -1.0
vtan 0.4267 0.9044 0.0 -1.0
vtan 0.7295 0.684 0.0 -1.0
vtan 0.684 0.7295 0.0 1.0
vtan 0.3377 0.9413 0.0 1.0
vtan 0.684 0.7295 0.0 1.0
vtan 0.684 0.7295 0.0 1.0
vtan 0.9176 0.3975 0.0 1.0
vtan 0.9176 0.3975 0.0 1.0
vtan 0.684 0.7294 0.0 1.0
vtan -0.7295 0.684 -0.0 1.0
vtan -0.9299 0.3678 0.0 1.0
vtan -0.7295 0.684 0.0 1.0
vtan 0.684 0.7295 -0.0 1.0
vtan 0.9176 0.3975 -0.0 1.0
vtan 0.684 0.7295 0.0 1.0
vtan 0.9176 0.3975 0.0 1.0
vtan -0.7295 0.684 -0.0 1.0
vtan -0.4268 0.9043 0.0 1.0
vtan -0.4267 0.9044 0.0 1.0
vtan -0.7295 0.684 0.0 1.0
vtan -0.7295 0.684 -0.0 1.0
vtan -0.4268 0.9044 -0.0 1.0
vtan -0.7295 0.684 0.0 1.0
vtan -0.4268 0.9044 0.0 1.0
vtan -1.0 -0.0 0.0 -1.0
vtan -0.9978 0.0212 0.0628 -1.0
vtan 0.988 0.1267 -0.0883 -1.0
vtan -0.985 0.1459 -0.0922 -1.0
vtan -1.0 -0.0 0.0 -1.0
vtan 0.9978 0.0212 0.0628 1.0
vtan 1.0 0.0 0.0 1.0
vtan -0.988 0.1267 -0.0883 1.0
vtan 0.985 0.1459 -0.0922 1.0
vtan 1.0 0.0 0.0 1.0
f 0/0/0/0 1/1/1/1 2/2/2/2 
f 0/0/0/0 2/2/2/2 3/3/3/3 
f 4/4/4/4 5/5/5/5 6/6/6/6 
f 4/4/4/4 6/6/6/6 7/7/7/7 
f 8/8/8/8 9/9/9/9 10/10/10/10 
f 8/8/8/8 10/10/10/10 11/11/11/11 
f 9/9/9/9 12/12/12/12 13/13/13/13 
f 9/9/9/9 13/13/13/13 14/14/14/14 
f 14/14/14/14 13/13/13/13 15/15/15/15 
f 14/14/14/14 15/15/15/15 16/16/16/16 
f 17/17/17/17 18/18/18/18 19/19/19/19 
f 17/17/17/17 19/19/19/19 20/20/20/20 
f 21/21/21/21 22/22/22/22 23/23/23/23 
f 21/21/21/21 23/23/23/23 24/24/24/24 
f 24/24/24/24 23/23/23/23 25/25/25/25 
f 24/24/24/24 25/25/25/25 26/26/26/26 
f 1/1/1/27 0/0/0/28 27/3/27/29 
f 1/1/1/27 27/3/27/29 28/2/28/30 
f 29/7/29/31 30/6/30/32 31/5/31/33 
f 29/7/29/31 31/5/31/33 32/4/32/34 
f 33/11/33/35 34/10/34/36 35/9/35/37 
f 33/11/33/35 35/9/35/37 36/8/36/38 
f 37/13/37/39 38/12/38/40 35/9/35/37 
f 37/13/37/39 35/9/35/37 39/14/39/41 
f 40/15/40/42 37/13/37/39 39/14/39/41 
f 40/15/40/42 39/14/39/41 41/16/41/43 
f 42/20/42/44 43/19/43/45 18/18/18/46 
f 42/20/42/44 18/18/18/46 17/17/17/47 
f 44/23/44/48 45/22/45/49 21/21/21/50 
f 44/23/44/48 21/21/21/50 24/24/24/51 
f 46/25/46/52 44/23/44/48 24/24/24/51 
f 46/25/46/52 24/24/24/51 26/26/26/53 
f 47/27/47/54 48/28/48/55 12/12/12/12 
f 47/27/47/54 12/12/12/12 49/29/49/56 
f 50/30/50/57 51/31/51/58 52/32/52/59 
f 50/30/50/57 52/32/52/59 53/33/53/60 
f 54/34/54/61 55/35/55/62 22/22/22/22 
f 54/34/54/61 22/22/22/22 56/36/56/63 
f 48/28/48/55 2/2/2/2 57/37/57/64 
f 48/28/48/55 57/37/57/64 58/38/58/65 
f 58/38/58/65 57/37/57/64 59/39/59/66 
f 58/38/58/65 59/39/59/66 60/40/60/67 
f 61/41/61/68 62/42/62/69 63/43/63/70 
f 61/41/61/68 63/43/63/70 64/44/64/71 
f 55/35/55/62 10/10/10/10 65/45/65/72 
f 55/35/55/62 65/45/65/72 66/46/66/73 
f 66/46/66/73 65/45/65/72 67/47/67/74 
f 66/46/66/73 67/47/67/74 68/48/68/75 
f 69/27/69/76 70/29/70/77 38/12/38/40 
f 69/27/69/76 38/12/38/40 71/28/71/78 
f 72/30/72/79 73/33/73/80 74/32/74/81 
f 72/30/72/79 74/32/74/81 75/31/75/82 
f 76/34/76/83 77/36/77/84 45/22/45/49 
f 76/34/76/83 45/22/45/49 78/35/78/85 
f 79/38/79/86 80/37/80/87 28/2/28/30 
f 79/38/79/86 28/2/28/30 71/28/71/78 
f 81/40/81/88 82/39/82/89 80/37/80/87 
f 81/40/81/88 80/37/80/87 79/38/79/86 
f 83/41/83/90 84/44/84/91 85/43/85/92 
f 83/41/83/90 85/43/85/92 86/42/86/93 
f 87/46/87/94 88/45/88/95 34/10/34/36 
f 87/46/87/94 34/10/34/36 78/35/78/85 
f 89/48/89/96 90/47/90/97 88/45/88/95 
f 89/48/89/96 88/45/88/95 87/46/87/94 
f 3/3/3/3 2/2/2/2 48/28/48/55 
f 3/3/3/3 48/28/48/55 47/27/47/54 
f 7/7/7/7 6/6/6/6 51/31/51/58 
f 7/7/7/7 51/31/51/58 50/30/50/57 
f 11/11/11/11 10/10/10/10 55/35/55/62 
f 11/11/11/11 55/35/55/62 54/34/54/61 
f 12/12/12/12 48/28/48/55 58/38/58/65 
f 12/12/12/12 58/38/58/65 13/13/13/13 
f 13/13/13/13 58/38/58/65 60/40/60/67 
f 13/13/13/13 60/40/60/67 15/15/15/15 
f 20/20/20/20 19/19/19/19 62/42/62/69 
f 20/20/20/20 62/42/62/69 61/41/61/68 
f 22/22/22/22 55/35/55/62 66/46/66/73 
f 22/22/22/22 66/46/66/73 23/23/23/23 
f 23/23/23/23 66/46/66/73 68/48/68/75 
f 23/23/23/23 68/48/68/75 25/25/25/25 
f 27/3/27/29 69/27/69/76 71/28/71/78 
f 27/3/27/29 71/28/71/78 28/2/28/30 
f 29/7/29/31 72/30/72/79 75/31/75/82 
f 29/7/29/31 75/31/75/82 30/6/30/32 
f 33/11/33/35 76/34/76/83 78/35/78/85 
f 33/11/33/35 78/35/78/85 34/10/34/36 
f 37/13/37/39 79/38/79/86 71/28/71/78 
f 37/13/37/39 71/28/71/78 38/12/38/40 
f 40/15/40/42 81/40/81/88 79/38/79/86 
f 40/15/40/42 79/38/79/86 37/13/37/39 
f 42/20/42/44 83/41/83/90 86/42/86/93 
f 42/20/42/44 86/42/86/93 43/19/43/45 
f 44/23/44/48 87/46/87/94 78/35/78/85 
f 44/23/44/48 78/35/78/85 45/22/45/49 
f 46/25/46/52 89/48/89/96 87/46/87/94 
f 46/25/46/52 87/46/87/94 44/23/44/48 
f 49/29/49/56 12/12/12/12 9/9/9/9 
f 49/29/49/56 9/9/9/9 8/8/8/8 
f 53/33/53/60 52/32/52/59 91/49/91/98 
f 53/33/53/60 91/49/91/98 92/50/92/99 
f 56/36/56/63 22/22/22/22 21/21/21/21 
f 56/36/56/63 21/21/21/21 93/51/93/100 
f 2/2/2/2 1/1/1/1 94/52/94/101 
f 2/2/2/2 94/52/94/101 57/37/57/64 
f 57/37/57/64 94/52/94/101 95/53/95/102 
f 57/37/57/64 95/53/95/102 59/39/59/66 
f 64/44/64/71 63/43/63/70 5/5/5/5 
f 64/44/64/71 5/5/5/5 4/4/4/4 
f 10/10/10/10 9/9/9/9 14/14/14/14 
f 10/10/10/10 14/14/14/14 65/45/65/72 
f 65/45/65/72 14/14/14/14 16/16/16/16 
f 65/45/65/72 16/16/16/16 67/47/67/74 
f 70/29/70/77 36/8/36/38 35/9/35/37 
f 70/29/70/77 35/9/35/37 38/12/38/40 
f 73/33/73/80 92/50/92/103 91/49/91/104 
f 73/33/73/80 91/49/91/104 74/32/74/81 
f 77/36/77/84 93/51/93/105 21/21/21/50 
f 77/36/77/84 21/21/21/50 45/22/45/49 
f 80/37/80/87 94/52/94/106 1/1/1/27 
f 80/37/80/87 1/1/1/27 28/2/28/30 
f 82/39/82/89 95/53/95/107 94/52/94/106 
f 82/39/82/89 94/52/94/106 80/37/80/87 
f 84/44/84/91 32/4/32/34 31/5/31/33 
f 84/44/84/91 31/5/31/33 85/43/85/92 
f 88/45/88/95 39/14/39/41 35/9/35/37 
f 88/45/88/95 35/9/35/37 34/10/34/36 
f 90/47/90/97 41/16/41/43 39/14/39/41 
f 90/47/90/97 39/14/39/41 88/45/88/95 
f 7/7/7/7 49/29/49/56 8/8/8/8 
f 7/7/7/7 8/8/8/8 4/4/4/4 
f 20/20/20/20 56/36/56/63 93/51/93/100 
f 20/20/20/20 93/51/93/100 17/17/17/17 
f 32/4/32/34 36/8/36/38 70/29/70/77 
f 32/4/32/34 70/29/70/77 29/7/29/31 
f 17/17/17/47 93/51/93/105 77/36/77/84 
f 17/17/17/47 77/36/77/84 42/20/42/44 
f 53/33/53/60 3/3/3/3 47/27/47/54 
f 53/33/53/60 47/27/47/54 50/30/50/57 
f 64/44/64/71 11/11/11/11 54/34/54/61 
f 64/44/64/71 54/34/54/61 61/41/61/68 
f 72/30/72/79 69/27/69/76 27/3/27/29 
f 72/30/72/79 27/3/27/29 73/33/73/80 
f 83/41/83/90 76/34/76/83 33/11/33/35 
f 83/41/83/90 33/11/33/35 84/44/84/91 
f 50/30/50/57 47/27/47/54 49/29/49/56 
f 50/30/50/57 49/29/49/56 7/7/7/7 
f 61/41/61/68 54/34/54/61 56/36/56/63 
f 61/41/61/68 56/36/56/63 20/20/20/20 
f 29/7/29/31 70/29/70/77 69/27/69/76 
f 29/7/29/31 69/27/69/76 72/30/72/79 
f 42/20/42/44 77/36/77/84 76/34/76/83 
f 42/20/42/44 76/34/76/83 83/41/83/90 
f 92/50/92/99 0/0/0/0 3/3/3/3 
f 92/50/92/99 3/3/3/3 53/33/53/60 
f 4/4/4/4 8/8/8/8 11/11/11/11 
f 4/4/4/4 11/11/11/11 64/44/64/71 
f 0/0/0/28 92/50/92/103 73/33/73/80 
f 0/0/0/28 73/33/73/80 27/3/27/29 
f 84/44/84/91 33/11/33/35 36/8/36/38 
f 84/44/84/91 36/8/36/38 32/4/32/34 
