v -319.1733 279.8812 -279.1519
v -319.1733 280.1829 -280.278
v -279.0087 280.1829 -280.278
v -279.0087 279.8812 -279.1519
v -319.1733 281.0074 -281.1023
v -279.0087 281.0074 -281.1023
v -319.1733 282.1335 -281.4041
v -279.0087 282.1335 -281.4041
v -319.1733 283.2597 -281.1023
v -279.0087 283.2597 -281.1023
v -319.1733 284.0839 -280.278
v -279.0087 284.0839 -280.278
v -319.1733 284.3857 -279.1518
v -279.0087 284.3857 -279.1518
v -319.1733 284.0839 -278.0257
v -279.0087 284.0839 -278.0257
v -319.1733 283.2596 -277.2013
v -279.0087 283.2596 -277.2013
v -319.1733 282.1334 -276.8996
v -279.0087 282.1334 -276.8996
v -319.1733 281.0073 -277.2013
v -279.0087 281.0073 -277.2013
v -319.1733 280.1829 -278.0258
v -279.0087 280.1829 -278.0258
v -359.3379 279.8812 -279.1519
v -359.3379 280.1829 -280.278
v -359.3379 281.0074 -281.1023
v -359.3379 282.1335 -281.4041
v -359.3379 283.2597 -281.1023
v -359.3379 284.0839 -280.278
v -359.3379 284.3857 -279.1518
v -359.3379 284.0839 -278.0257
v -359.3379 283.2596 -277.2013
v -359.3379 282.1334 -276.8996
v -359.3379 281.0073 -277.2013
v -359.3379 280.1829 -278.0258
v -399.5025 279.8812 -279.1519
v -399.5024 280.1829 -280.278
v -399.5024 281.0074 -281.1023
v -399.5024 282.1335 -281.4041
v -399.5024 283.2597 -281.1023
v -399.5024 284.0839 -280.278
v -399.5024 284.3857 -279.1518
v -399.5024 284.0839 -278.0257
v -399.5024 283.2596 -277.2013
v -399.5024 282.1334 -276.8996
v -399.5024 281.0073 -277.2013
v -399.5024 280.1829 -278.0258
v -433.9472 279.8812 -279.1519
v -433.9472 280.1829 -280.278
v -433.9472 281.0074 -281.1023
v -433.9472 282.1335 -281.4041
v -433.9472 283.2597 -281.1023
v -433.9472 284.0839 -280.278
v -433.9472 284.3857 -279.1518
v -433.9472 284.0839 -278.0257
v -433.9472 283.2596 -277.2013
v -433.9472 282.1334 -276.8996
v -433.9472 281.0073 -277.2013
v -433.9472 280.1829 -278.0258
v -588.8858 280.1829 -280.278
v -548.7212 280.1829 -280.278
v -548.7212 279.8812 -279.1519
v -588.8858 279.8812 -279.1519
v -588.8858 281.0074 -281.1023
v -548.7212 281.0074 -281.1023
v -588.8858 282.1335 -281.4041
v -548.7212 282.1335 -281.4041
v -588.8858 283.2597 -281.1023
v -548.7212 283.2597 -281.1023
v -588.8858 284.0839 -280.278
v -548.7212 284.0839 -280.278
v -588.8858 284.3857 -279.1518
v -548.7212 284.3857 -279.1518
v -588.8858 284.0839 -278.0257
v -548.7212 284.0839 -278.0257
v -588.8858 283.2596 -277.2013
v -548.7212 283.2596 -277.2013
v -588.8858 282.1334 -276.8996
v -548.7212 282.1334 -276.8996
v -588.8858 281.0073 -277.2013
v -548.7212 281.0073 -277.2013
v -588.8858 280.1829 -278.0258
v -548.7212 280.1829 -278.0258
v -508.5566 280.1829 -280.278
v -508.5566 279.8812 -279.1519
v -508.5566 281.0074 -281.1023
v -508.5566 282.1335 -281.4041
v -508.5566 283.2597 -281.1023
v -508.5566 284.0839 -280.278
v -508.5566 284.3857 -279.1518
v -508.5566 284.0839 -278.0257
v -508.5566 283.2596 -277.2013
v -508.5566 282.1334 -276.8996
v -508.5566 281.0073 -277.2013
v -508.5566 280.1829 -278.0258
v -468.392 280.1829 -280.278
v -468.392 279.8812 -279.1519
v -468.392 281.0074 -281.1023
v -468.392 282.1335 -281.4041
v -468.392 283.2597 -281.1023
v -468.392 284.0839 -280.278
v -468.392 284.3857 -279.1518
v -468.392 284.0839 -278.0257
v -468.392 283.2596 -277.2013
v -468.392 282.1334 -276.8996
v -468.392 281.0073 -277.2013
v -468.392 280.1829 -278.0258
vt 0.9876 0.5241
vt 0.9633 0.5241
vt 0.9633 0.0053
vt 0.9876 0.0053
vt 0.9391 0.5241
vt 0.9391 0.0053
vt 0.9148 0.5241
vt 0.9148 0.0053
vt 0.8906 0.5241
vt 0.8906 0.0053
vt 0.8663 0.5241
vt 0.8663 0.0053
vt 0.8421 0.5241
vt 0.8421 0.0053
vt 0.8178 0.5241
vt 0.8178 0.0053
vt 0.7936 0.5241
vt 0.7936 0.0053
vt 0.7694 0.5241
vt 0.7694 0.0053
vt 0.7451 0.5241
vt 0.7451 0.0053
vt 0.7209 0.5241
vt 0.7209 0.0053
vt 0.6966 0.5241
vt 0.6966 0.0053
vt 0.9876 0.4502
vt 0.9633 0.4502
vt 0.9391 0.4502
vt 0.9148 0.4502
vt 0.8906 0.4502
vt 0.8663 0.4502
vt 0.8421 0.4502
vt 0.8178 0.4502
vt 0.7936 0.4502
vt 0.7694 0.4502
vt 0.7451 0.4502
vt 0.7209 0.4502
vt 0.6966 0.4502
vn 0.0 -1.0 0.0
vn 0.0 -0.866 -0.5
vn 0.0 -0.866 -0.5
vn 0.0 -1.0 -0.0
vn 0.0 -0.5 -0.866
vn 0.0 -0.5 -0.866
vn 0.0 -0.0 -1.0
vn 0.0 -0.0 -1.0
vn 0.0 0.5001 -0.866
vn 0.0 0.5 -0.866
vn 0.0 0.866 -0.5
vn 0.0 0.866 -0.5
vn 0.0 1.0 0.0
vn 0.0 1.0 0.0
vn 0.0 0.866 0.5
vn 0.0 0.866 0.5
vn 0.0 0.5 0.866
vn 0.0 0.5 0.866
vn 0.0 -0.0 1.0
vn 0.0 -0.0 1.0
vn 0.0 -0.5 0.866
vn 0.0 -0.5 0.866
vn 0.0 -0.866 0.5
vn 0.0 -0.866 0.5
vn 0.0 -1.0 0.0
vn 0.0 -0.866 -0.5
vn 0.0 -0.5 -0.866
vn 0.0 -0.0 -1.0
vn 0.0 0.5 -0.866
vn 0.0 0.866 -0.5
vn 0.0 1.0 0.0
vn 0.0 0.866 0.5
vn 0.0 0.5 0.866
vn 0.0 -0.0 1.0
vn 0.0 -0.5 0.866
vn 0.0 -0.866 0.5
vn 0.0 -1.0 0.0
vn 0.0 -0.866 -0.5
vn 0.0 -0.5 -0.866
vn 0.0 -0.0 -1.0
vn 0.0 0.5 -0.866
vn 0.0 0.866 -0.5
vn 0.0 1.0 -0.0
vn 0.0 0.866 0.5
vn 0.0 0.5 0.866
vn 0.0 -0.0 1.0
vn 0.0 -0.5 0.866
vn 0.0 -0.866 0.5
vn 0.0 -1.0 0.0
vn 0.0 -0.866 -0.5
vn 0.0 -0.5 -0.866
vn 0.0 -0.0 -1.0
vn 0.0 0.5001 -0.866
vn 0.0 0.866 -0.5
vn 0.0 1.0 0.0
vn 0.0 0.866 0.5
vn 0.0 0.5 0.866
vn 0.0 -0.0 1.0
vn 0.0 -0.5 0.866
vn 0.0 -0.866 0.5
vn 0.0 -0.866 -0.5
vn 0.0 -0.866 -0.5
vn 0.0 -1.0 0.0
vn 0.0 -1.0 -0.0
vn 0.0 -0.5 -0.866
vn 0.0 -0.5 -0.866
vn 0.0 -0.0 -1.0
vn 0.0 0.5 -0.866
vn 0.0 0.5001 -0.866
vn 0.0 0.866 -0.5
vn 0.0 0.866 -0.5
vn 0.0 1.0 0.0
vn 0.0 1.0 0.0
vn 0.0 0.866 0.5
vn 0.0 0.866 0.5
vn 0.0 0.5 0.866
vn 0.0 0.5 0.866
vn 0.0 -0.0 1.0
vn 0.0 -0.0 1.0
vn 0.0 -0.5 0.866
vn 0.0 -0.5 0.866
vn 0.0 -0.866 0.5
vn 0.0 -0.866 0.5
vn 0.0 -0.866 -0.5
vn 0.0 -1.0 -0.0
vn 0.0 -0.5 -0.866
vn 0.0 -0.0 -1.0
vn 0.0 0.5 -0.866
vn 0.0 1.0 -0.0
vn 0.0 0.866 0.5
vn 0.0 0.5 0.866
vn 0.0 -0.0 1.0
vn 0.0 -0.5 0.866
vn 0.0 -0.866 0.5
vn 0.0 -0.866 -0.5
vn 0.0 -1.0 0.0
vn 0.0 -0.5 -0.866
vn 0.0 -0.0 -1.0
vn 0.0 0.5 -0.866
vn 0.0 0.866 -0.5
vn 0.0 1.0 0.0
vn 0.0 0.866 0.5
vn 0.0 0.5 0.866
vn 0.0 -0.0 1.0
vn 0.0 -0.5 0.866
vn 0.0 -0.866 0.5
vtan 0.0 0.0 1.0 1.0
vtan 0.0 -0.5 0.866 1.0
vtan 0.0 -0.5 0.866 1.0
vtan 0.0 -0.0 1.0 1.0
vtan 0.0 -0.866 0.5 1.0
vtan 0.0 -0.866 0.5 1.0
vtan 0.0 -1.0 0.0 1.0
vtan 0.0 -1.0 0.0 1.0
vtan 0.0 -0.866 -0.5001 1.0
vtan 0.0 -0.866 -0.5 1.0
vtan 0.0 -0.5 -0.866 1.0
vtan 0.0 -0.5 -0.866 1.0
vtan 0.0 0.0 -1.0 1.0
vtan 0.0 0.0 -1.0 1.0
vtan 0.0 0.5 -0.866 1.0
vtan 0.0 0.5 -0.866 1.0
vtan 0.0 0.866 -0.5 1.0
vtan 0.0 0.866 -0.5 1.0
vtan 0.0 1.0 0.0 1.0
vtan 0.0 1.0 0.0 1.0
vtan 0.0 0.866 0.5 1.0
vtan 0.0 0.866 0.5 1.0
vtan 0.0 0.5 0.866 1.0
vtan 0.0 0.5 0.866 1.0
vtan 0.0 0.0 1.0 1.0
vtan 0.0 -0.0 1.0 1.0
vtan 0.0 -0.5 0.866 1.0
vtan 0.0 0.0 1.0 1.0
vtan 0.0 -0.5 0.866 1.0
vtan 0.0 -0.866 0.5 1.0
vtan 0.0 -0.866 0.5 1.0
vtan 0.0 -1.0 0.0 1.0
vtan 0.0 -1.0 0.0 1.0
vtan 0.0 -0.866 -0.5 1.0
vtan 0.0 -0.866 -0.5001 1.0
vtan 0.0 -0.5 -0.866 1.0
vtan 0.0 -0.5 -0.866 1.0
vtan 0.0 0.0 -1.0 1.0
vtan 0.0 0.0 -1.0 1.0
vtan 0.0 0.5 -0.866 1.0
vtan 0.0 0.866 -0.5 1.0
vtan 0.0 0.866 -0.5 1.0
vtan 0.0 1.0 0.0 1.0
vtan 0.0 0.866 0.5 1.0
vtan 0.0 0.866 0.5 1.0
vtan 0.0 0.5 0.866 1.0
vtan 0.0 0.5 0.866 1.0
vtan 0.0 0.0 1.0 1.0
vtan 0.0 0.0 1.0 1.0
vtan -0.0001 0.0 1.0 1.0
vtan -0.0 -0.5 0.866 1.0
vtan -0.0 -0.5 0.866 1.0
vtan 0.0 0.0 1.0 1.0
vtan 0.0 -0.866 0.5 1.0
vtan 0.0 -0.866 0.5 1.0
vtan 0.0 -1.0 0.0 1.0
vtan 0.0 -0.866 -0.5 1.0
vtan 0.0 -0.866 -0.5 1.0
vtan 0.0 -0.5 -0.866 1.0
vtan 0.0 -0.5 -0.866 1.0
vtan 0.0 -0.0 -1.0 1.0
vtan 0.0 0.0 -1.0 1.0
vtan 0.0 0.5 -0.866 1.0
vtan 0.0 0.5 -0.866 1.0
vtan 0.0 0.866 -0.5 1.0
vtan 0.0 0.866 -0.5 1.0
vtan 0.0 1.0 0.0 1.0
vtan 0.0 1.0 0.0 1.0
vtan 0.0 0.866 0.5 1.0
vtan 0.0 0.866 0.5 1.0
vtan 0.0 0.5 0.866 1.0
vtan 0.0 0.5 0.866 1.0
vtan 0.0001 0.0 1.0 1.0
vtan 0.0 0.0 1.0 1.0
vtan -0.0 0.0 1.0 1.0
vtan 0.0 -0.5 0.866 1.0
vtan -0.0 -0.5 0.866 1.0
vtan -0.0001 0.0 1.0 1.0
vtan 0.0 -0.866 0.5 1.0
vtan 0.0 -1.0 0.0 1.0
vtan 0.0 -1.0 0.0 1.0
vtan 0.0 -0.866 -0.5001 1.0
vtan 0.0 -0.866 -0.5 1.0
vtan 0.0 -0.5 -0.866 1.0
vtan 0.0 0.0 -1.0 1.0
vtan 0.0 -0.0 -1.0 1.0
vtan 0.0 0.5 -0.866 1.0
vtan 0.0 0.5 -0.866 1.0
vtan 0.0 0.866 -0.5 1.0
vtan 0.0 0.866 -0.5 1.0
vtan 0.0 1.0 0.0 1.0
vtan 0.0 1.0 0.0 1.0
vtan 0.0 0.866 0.5 1.0
vtan 0.0 0.866 0.5 1.0
vtan 0.0 0.5 0.866 1.0
vtan 0.0 0.5 0.866 1.0
vtan 0.0 0.0 1.0 1.0
vtan 0.0001 0.0 1.0 1.0
vtan 0.0 -0.5 0.866 -1.0
vtan 0.0 -0.5 0.866 -1.0
vtan 0.0 -0.0 1.0 -1.0
vtan 0.0 -0.866 0.5 -1.0
vtan 0.0 -0.866 0.5 -1.0
vtan 0.0 -0.866 -0.5 -1.0
vtan 0.0 -0.866 -0.5001 -1.0
vtan 0.0 -0.5 -0.866 -1.0
vtan 0.0 -0.5 -0.866 -1.0
vtan 0.0 0.0 -1.0 -1.0
vtan 0.0 0.5 -0.866 -1.0
vtan 0.0 0.5 -0.866 -1.0
vtan 0.0 0.866 -0.5 -1.0
vtan 0.0 0.866 -0.5 -1.0
vtan 0.0 1.0 0.0 -1.0
vtan 0.0 0.866 0.5 -1.0
vtan 0.0 0.866 0.5 -1.0
vtan 0.0 0.5 0.866 -1.0
vtan 0.0 0.5 0.866 -1.0
vtan 0.0 -0.0 1.0 -1.0
vtan 0.0 -0.5 0.866 -1.0
vtan 0.0 -0.5 0.866 -1.0
vtan 0.0 -0.0 1.0 -1.0
vtan 0.0 -0.866 0.5 -1.0
vtan 0.0 -0.866 0.5 -1.0
vtan 0.0 -1.0 0.0 -1.0
vtan 0.0 -0.866 -0.5001 -1.0
vtan 0.0 -0.866 -0.5 -1.0
vtan 0.0 -0.5 -0.866 -1.0
vtan 0.0 -0.5 -0.866 -1.0
vtan 0.0 -0.0 -1.0 -1.0
vtan 0.0 0.5 -0.866 -1.0
vtan 0.0 0.5 -0.866 -1.0
vtan 0.0 0.866 -0.5 -1.0
vtan 0.0 1.0 0.0 -1.0
vtan 0.0 0.866 0.5 -1.0
vtan 0.0 0.866 0.5 -1.0
vtan 0.0 0.5 0.866 -1.0
vtan 0.0 0.5 0.866 -1.0
vtan 0.0 -0.0 1.0 -1.0
vtan 0.0 -0.5 0.866 -1.0
vtan 0.0 0.0 1.0 -1.0
vtan 0.0 -0.0 1.0 -1.0
vtan 0.0 -0.866 0.5 -1.0
vtan 0.0 -0.866 0.5 -1.0
vtan 0.0 -1.0 0.0 -1.0
vtan 0.0 -1.0 0.0 -1.0
vtan 0.0 -0.866 -0.5 -1.0
vtan 0.0 -0.866 -0.5 -1.0
vtan 0.0 -0.5 -0.866 -1.0
vtan 0.0 -0.5 -0.866 -1.0
vtan 0.0 0.0 -1.0 -1.0
vtan 0.0 0.5 -0.866 -1.0
vtan 0.0 0.5 -0.866 -1.0
vtan 0.0 0.866 -0.5 -1.0
vtan 0.0 0.866 -0.5 -1.0
vtan 0.0 1.0 0.0 -1.0
vtan 0.0 1.0 0.0 -1.0
vtan 0.0 0.866 0.5 -1.0
vtan 0.0 0.5 0.866 -1.0
vtan 0.0 0.5 0.866 -1.0
vtan 0.0 -0.0 1.0 -1.0
vtan 0.0 0.0 1.0 -1.0
vtan 0.0 -0.5 0.866 -1.0
vtan 0.0 0.0 1.0 -1.0
vtan 0.0 0.0 1.0 -1.0
vtan 0.0 -0.866 -0.5 -1.0
vtan 0.0 0.0 -1.0 -1.0
vtan 0.0 0.5 -0.866 -1.0
vtan 0.0 0.866 -0.5 -1.0
vtan 0.0 1.0 0.0 -1.0
vtan 0.0 0.866 0.5 -1.0
vtan 0.0 0.5 0.866 -1.0
vtan 0.0 0.5 0.866 -1.0
vtan 0.0 0.0 1.0 -1.0
f 0/0/0/0 1/1/1/1 2/2/2/2 
f 0/0/0/0 2/2/2/2 3/3/3/3 
f 1/1/1/1 4/4/4/4 5/5/5/5 
f 1/1/1/1 5/5/5/5 2/2/2/2 
f 4/4/4/4 6/6/6/6 7/7/7/7 
f 4/4/4/4 7/7/7/7 5/5/5/5 
f 6/6/6/6 8/8/8/8 9/9/9/9 
f 6/6/6/6 9/9/9/9 7/7/7/7 
f 8/8/8/8 10/10/10/10 11/11/11/11 
f 8/8/8/8 11/11/11/11 9/9/9/9 
f 10/10/10/10 12/12/12/12 13/13/13/13 
f 10/10/10/10 13/13/13/13 11/11/11/11 
f 12/12/12/12 14/14/14/14 15/15/15/15 
f 12/12/12/12 15/15/15/15 13/13/13/13 
f 14/14/14/14 16/16/16/16 17/17/17/17 
f 14/14/14/14 17/17/17/17 15/15/15/15 
f 16/16/16/16 18/18/18/18 19/19/19/19 
f 16/16/16/16 19/19/19/19 17/17/17/17 
f 18/18/18/18 20/20/20/20 21/21/21/21 
f 18/18/18/18 21/21/21/21 19/19/19/19 
f 20/20/20/20 22/22/22/22 23/23/23/23 
f 20/20/20/20 23/23/23/23 21/21/21/21 
f 22/22/22/22 0/24/0/24 3/25/3/25 
f 22/22/22/22 3/25/3/25 23/23/23/23 
f 1/2/1/26 0/3/0/0 24/0/24/27 
f 1/2/1/26 24/0/24/27 25/1/25/28 
f 25/1/25/28 26/4/26/29 4/5/4/30 
f 25/1/25/28 4/5/4/30 1/2/1/26 
f 26/4/26/29 27/6/27/31 6/7/6/32 
f 26/4/26/29 6/7/6/32 4/5/4/30 
f 27/6/27/31 28/8/28/33 8/9/8/34 
f 27/6/27/31 8/9/8/34 6/7/6/32 
f 28/8/28/33 29/10/29/35 10/11/10/36 
f 28/8/28/33 10/11/10/36 8/9/8/34 
f 29/10/29/35 30/12/30/37 12/13/12/38 
f 29/10/29/35 12/13/12/38 10/11/10/36 
f 30/12/30/37 31/14/31/39 14/15/14/14 
f 30/12/30/37 14/15/14/14 12/13/12/38 
f 31/14/31/39 32/16/32/40 16/17/16/41 
f 31/14/31/39 16/17/16/41 14/15/14/14 
f 32/16/32/40 33/18/33/42 18/19/18/18 
f 32/16/32/40 18/19/18/18 16/17/16/41 
f 33/18/33/42 34/20/34/43 20/21/20/44 
f 33/18/33/42 20/21/20/44 18/19/18/18 
f 34/20/34/43 35/22/35/45 22/23/22/46 
f 34/20/34/43 22/23/22/46 20/21/20/44 
f 0/25/0/47 22/23/22/46 35/22/35/45 
f 0/25/0/47 35/22/35/45 24/24/24/48 
f 36/0/36/49 37/1/37/50 25/2/25/51 
f 36/0/36/49 25/2/25/51 24/3/24/52 
f 37/1/37/50 38/4/38/53 26/5/26/54 
f 37/1/37/50 26/5/26/54 25/2/25/51 
f 38/4/38/53 39/6/39/55 27/7/27/31 
f 38/4/38/53 27/7/27/31 26/5/26/54 
f 39/6/39/55 40/8/40/56 28/9/28/57 
f 39/6/39/55 28/9/28/57 27/7/27/31 
f 40/8/40/56 41/10/41/58 29/11/29/59 
f 40/8/40/56 29/11/29/59 28/9/28/57 
f 41/10/41/58 42/12/42/60 30/13/30/61 
f 41/10/41/58 30/13/30/61 29/11/29/59 
f 42/12/42/60 43/14/43/62 31/15/31/63 
f 42/12/42/60 31/15/31/63 30/13/30/61 
f 43/14/43/62 44/16/44/64 32/17/32/65 
f 43/14/43/62 32/17/32/65 31/15/31/63 
f 44/16/44/64 45/18/45/66 33/19/33/67 
f 44/16/44/64 33/19/33/67 32/17/32/65 
f 45/18/45/66 46/20/46/68 34/21/34/69 
f 45/18/45/66 34/21/34/69 33/19/33/67 
f 46/20/46/68 47/22/47/70 35/23/35/71 
f 46/20/46/68 35/23/35/71 34/21/34/69 
f 47/22/47/70 36/24/36/72 24/25/24/73 
f 47/22/47/70 24/25/24/73 35/23/35/71 
f 48/26/48/74 49/27/49/75 37/2/37/76 
f 48/26/48/74 37/2/37/76 36/3/36/77 
f 49/27/49/75 50/28/50/78 38/5/38/53 
f 49/27/49/75 38/5/38/53 37/2/37/76 
f 50/28/50/78 51/29/51/79 39/7/39/80 
f 50/28/50/78 39/7/39/80 38/5/38/53 
f 51/29/51/79 52/30/52/81 40/9/40/82 
f 51/29/51/79 40/9/40/82 39/7/39/80 
f 52/30/52/81 53/31/53/83 41/11/41/58 
f 52/30/52/81 41/11/41/58 40/9/40/82 
f 53/31/53/83 54/32/54/84 42/13/42/85 
f 53/31/53/83 42/13/42/85 41/11/41/58 
f 54/32/54/84 55/33/55/86 43/15/43/87 
f 54/32/54/84 43/15/43/87 42/13/42/85 
f 55/33/55/86 56/34/56/88 44/17/44/89 
f 55/33/55/86 44/17/44/89 43/15/43/87 
f 56/34/56/88 57/35/57/90 45/19/45/91 
f 56/34/56/88 45/19/45/91 44/17/44/89 
f 57/35/57/90 58/36/58/92 46/21/46/93 
f 57/35/57/90 46/21/46/93 45/19/45/91 
f 58/36/58/92 59/37/59/94 47/23/47/95 
f 58/36/58/92 47/23/47/95 46/21/46/93 
f 59/37/59/94 48/38/48/96 36/25/36/97 
f 59/37/59/94 36/25/36/97 47/23/47/95 
f 60/2/60/98 61/1/61/99 62/0/62/0 
f 60/2/60/98 62/0/62/0 63/3/63/100 
f 64/5/64/101 65/4/65/102 61/1/61/99 
f 64/5/64/101 61/1/61/99 60/2/60/98 
f 66/7/7/7 67/6/66/6 65/4/65/102 
f 66/7/7/7 65/4/65/102 64/5/64/101 
f 68/9/67/103 69/8/68/104 67/6/66/6 
f 68/9/67/103 67/6/66/6 66/7/7/7 
f 70/11/69/105 71/10/70/106 69/8/68/104 
f 70/11/69/105 69/8/68/104 68/9/67/103 
f 72/13/71/107 73/12/72/12 71/10/70/106 
f 72/13/71/107 71/10/70/106 70/11/69/105 
f 74/15/73/108 75/14/74/109 73/12/72/12 
f 74/15/73/108 73/12/72/12 72/13/71/107 
f 76/17/75/110 77/16/76/111 75/14/74/109 
f 76/17/75/110 75/14/74/109 74/15/73/108 
f 78/19/77/112 79/18/78/18 77/16/76/111 
f 78/19/77/112 77/16/76/111 76/17/75/110 
f 80/21/79/113 81/20/80/114 79/18/78/18 
f 80/21/79/113 79/18/78/18 78/19/77/112 
f 82/23/81/115 83/22/82/116 81/20/80/114 
f 82/23/81/115 81/20/80/114 80/21/79/113 
f 63/25/63/117 62/24/62/24 83/22/82/116 
f 63/25/63/117 83/22/82/116 82/23/81/115 
f 61/2/61/118 84/1/83/119 85/0/84/120 
f 61/2/61/118 85/0/84/120 62/3/62/0 
f 65/5/65/121 86/4/85/122 84/1/83/119 
f 65/5/65/121 84/1/83/119 61/2/61/118 
f 67/7/66/32 87/6/86/123 86/4/85/122 
f 67/7/66/32 86/4/85/122 65/5/65/121 
f 69/9/68/124 88/8/87/125 87/6/86/123 
f 69/9/68/124 87/6/86/123 67/7/66/32 
f 71/11/70/126 89/10/41/127 88/8/87/125 
f 71/11/70/126 88/8/87/125 69/9/68/124 
f 73/13/72/38 90/12/88/128 89/10/41/127 
f 73/13/72/38 89/10/41/127 71/11/70/126 
f 75/15/74/129 91/14/89/130 90/12/88/128 
f 75/15/74/129 90/12/88/128 73/13/72/38 
f 77/17/76/89 92/16/90/131 91/14/89/130 
f 77/17/76/89 91/14/89/130 75/15/74/129 
f 79/19/78/18 93/18/91/132 92/16/90/131 
f 79/19/78/18 92/16/90/131 77/17/76/89 
f 81/21/80/133 94/20/92/134 93/18/91/132 
f 81/21/80/133 93/18/91/132 79/19/78/18 
f 83/23/82/135 95/22/93/136 94/20/92/134 
f 83/23/82/135 94/20/92/134 81/21/80/133 
f 62/25/62/47 85/24/84/137 95/22/93/136 
f 62/25/62/47 95/22/93/136 83/23/82/135 
f 84/2/83/119 96/1/94/138 97/0/95/139 
f 84/2/83/119 97/0/95/139 85/3/84/140 
f 86/5/85/141 98/4/96/142 96/1/94/138 
f 86/5/85/141 96/1/94/138 84/2/83/119 
f 87/7/86/143 99/6/97/144 98/4/96/142 
f 87/7/86/143 98/4/96/142 86/5/85/141 
f 88/9/87/145 100/8/98/146 99/6/97/144 
f 88/9/87/145 99/6/97/144 87/7/86/143 
f 89/11/41/147 101/10/99/148 100/8/98/146 
f 89/11/41/147 100/8/98/146 88/9/87/145 
f 90/13/88/128 102/12/100/149 101/10/99/148 
f 90/13/88/128 101/10/99/148 89/11/41/147 
f 91/15/89/150 103/14/101/151 102/12/100/149 
f 91/15/89/150 102/12/100/149 90/13/88/128 
f 92/17/90/152 104/16/102/153 103/14/101/151 
f 92/17/90/152 103/14/101/151 91/15/89/150 
f 93/19/91/154 105/18/103/155 104/16/102/153 
f 93/19/91/154 104/16/102/153 92/17/90/152 
f 94/21/92/134 106/20/104/156 105/18/103/155 
f 94/21/92/134 105/18/103/155 93/19/91/154 
f 95/23/93/157 107/22/105/158 106/20/104/156 
f 95/23/93/157 106/20/104/156 94/21/92/134 
f 85/25/84/159 97/24/95/160 107/22/105/158 
f 85/25/84/159 107/22/105/158 95/23/93/157 
f 96/2/94/161 49/27/49/75 48/26/48/162 
f 96/2/94/161 48/26/48/162 97/3/95/163 
f 98/5/96/142 50/28/50/78 49/27/49/75 
f 98/5/96/142 49/27/49/75 96/2/94/161 
f 99/7/97/80 51/29/51/79 50/28/50/78 
f 99/7/97/80 50/28/50/78 98/5/96/142 
f 100/9/98/164 52/30/52/81 51/29/51/79 
f 100/9/98/164 51/29/51/79 99/7/97/80 
f 101/11/99/148 53/31/53/83 52/30/52/81 
f 101/11/99/148 52/30/52/81 100/9/98/164 
f 102/13/100/165 54/32/54/84 53/31/53/83 
f 102/13/100/165 53/31/53/83 101/11/99/148 
f 103/15/101/166 55/33/55/86 54/32/54/84 
f 103/15/101/166 54/32/54/84 102/13/100/165 
f 104/17/102/167 56/34/56/88 55/33/55/86 
f 104/17/102/167 55/33/55/86 103/15/101/166 
f 105/19/103/168 57/35/57/90 56/34/56/88 
f 105/19/103/168 56/34/56/88 104/17/102/167 
f 106/21/104/169 58/36/58/92 57/35/57/90 
f 106/21/104/169 57/35/57/90 105/19/103/168 
f 107/23/105/170 59/37/59/171 58/36/58/92 
f 107/23/105/170 58/36/58/92 106/21/104/169 
f 97/25/95/172 48/38/48/96 59/37/59/171 
f 97/25/95/172 59/37/59/171 107/23/105/170 
