v 1297.1455 664.2318 569.6151
v 1297.1455 664.2318 575.7249
v 1296.5137 670.6962 575.7249
v 1296.5137 670.6962 568.7932
v 1297.6091 660.3631 570.1983
v 1297.6091 660.3631 575.7249
v 1295.8213 662.2974 575.7249
v 1295.8213 662.2974 568.0746
v 1291.6677 690.9595 562.8899
v 1291.6677 690.9595 575.7249
v 1290.0022 693.141 575.7249
v 1290.0022 693.1411 560.9222
v 1291.6677 695.3226 575.7249
v 1291.6677 695.3226 562.9677
v 1294.3738 679.6952 566.1924
v 1294.3738 679.6952 575.7249
v 1291.6677 686.5964 575.7249
v 1291.6677 686.5964 562.8546
v 1296.9871 670.6962 568.2116
v 1297.6375 664.2318 569.0107
v 1292.1614 690.9595 562.2835
v 1292.147 686.5964 562.2657
v 1290.5278 693.1411 560.2768
v 1292.1929 695.3226 562.3222
v 1294.8584 679.6952 565.5968
v 1298.605 660.3631 570.1991
v 1303.1035 660.3631 575.7254
v 1296.3484 662.2974 567.427
v 1298.1067 660.3631 569.5871
v 1303.1035 695.3226 575.7255
v 1298.1294 664.2318 568.4064
v 1297.4604 670.6962 567.6302
v 1303.1028 670.6962 567.6302
v 1303.1028 664.2318 568.4064
v 1298.604 660.3631 568.976
v 1296.8755 662.2974 566.7795
v 1303.1028 662.2974 566.7795
v 1303.1028 660.3631 568.976
v 1292.655 690.9595 561.6769
v 1291.0532 693.1411 559.6311
v 1303.1028 693.1411 559.631
v 1303.1028 690.9595 561.6769
v 1292.7183 695.3226 561.677
v 1303.1028 695.3226 561.6769
v 1295.3433 679.6952 565.0014
v 1292.6262 686.5964 561.6769
v 1303.1028 686.5964 561.6769
v 1303.1028 679.6952 565.0014
gi 0 0 0 0
gw 0.0 0.0 0.0 0.0
gi 0 0 0 0
gw 0.0 0.0 0.0 0.0
gi 0 0 0 0
gw 0.0 0.0 0.0 0.0
gi 0 0 0 0
gw 0.0 0.0 0.0 0.0
gi 0 0 0 0
gw 0.0 0.0 0.0 0.0
gi 0 0 0 0
gw 0.0 0.0 0.0 0.0
gi 0 0 0 0
gw 0.0 0.0 0.0 0.0
gi 0 0 0 0
gw 0.0 0.0 0.0 0.0
gi 0 0 0 0
gw 0.0 0.0 0.0 0.0
gi 0 0 0 0
gw 0.0 0.0 0.0 0.0
gi 0 0 0 0
gw 0.0 0.0 0.0 0.0
gi 0 0 0 0
gw 0.0 0.0 0.0 0.0
gi 0 0 0 0
gw 0.0 0.0 0.0 0.0
gi 0 0 0 0
gw 0.0 0.0 0.0 0.0
gi 0 0 0 0
gw 0.0 0.0 0.0 0.0
gi 0 0 0 0
gw 0.0 0.0 0.0 0.0
gi 0 0 0 0
gw 0.0 0.0 0.0 0.0
gi 0 0 0 0
gw 0.0 0.0 0.0 0.0
gi 0 0 0 0
gw 0.0 0.0 0.0 0.0
gi 0 0 0 0
gw 0.0 0.0 0.0 0.0
gi 0 0 0 0
gw 0.0 0.0 0.0 0.0
gi 0 0 0 0
gw 0.0 0.0 0.0 0.0
gi 0 0 0 0
gw 0.0 0.0 0.0 0.0
gi 0 0 0 0
gw 0.0 0.0 0.0 0.0
gi 0 0 0 0
gw 0.0 0.0 0.0 0.0
gi 0 0 0 0
gw 0.0 0.0 0.0 0.0
gi 0 0 0 0
gw 0.0 0.0 0.0 0.0
gi 0 0 0 0
gw 0.0 0.0 0.0 0.0
gi 0 0 0 0
gw 0.0 0.0 0.0 0.0
gi 0 0 0 0
gw 0.0 0.0 0.0 0.0
gi 0 0 0 0
gw 0.0 0.0 0.0 0.0
gi 0 0 0 0
gw 0.0 0.0 0.0 0.0
gi 0 0 0 0
gw 0.0 0.0 0.0 0.0
gi 0 0 0 0
gw 0.0 0.0 0.0 0.0
gi 0 0 0 0
gw 0.0 0.0 0.0 0.0
gi 0 0 0 0
gw 0.0 0.0 0.0 0.0
gi 0 0 0 0
gw 0.0 0.0 0.0 0.0
gi 0 0 0 0
gw 0.0 0.0 0.0 0.0
gi 0 0 0 0
gw 0.0 0.0 0.0 0.0
gi 0 0 0 0
gw 0.0 0.0 0.0 0.0
gi 0 0 0 0
gw 0.0 0.0 0.0 0.0
gi 0 0 0 0
gw 0.0 0.0 0.0 0.0
gi 0 0 0 0
gw 0.0 0.0 0.0 0.0
gi 0 0 0 0
gw 0.0 0.0 0.0 0.0
gi 0 0 0 0
gw 0.0 0.0 0.0 0.0
gi 0 0 0 0
gw 0.0 0.0 0.0 0.0
gi 0 0 0 0
gw 0.0 0.0 0.0 0.0
gi 0 0 0 0
gw 0.0 0.0 0.0 0.0
vt 0.4476 0.6742
vt 0.4476 0.6911
vt 0.4439 0.6911
vt 0.427 0.6742
vt 0.4457 0.6929
vt 0.5504 0.8881
vt 0.5337 0.8881
vt 0.5337 0.9084
vt 0.5526 0.9084
vt 0.9865 0.7672
vt 0.9619 0.7672
vt 0.9632 0.7791
vt 0.9959 0.7791
vt 0.5546 0.882
vt 0.5337 0.882
vt 0.5687 0.9721
vt 0.5337 0.9721
vt 0.5337 0.979
vt 0.5741 0.979
vt 0.5337 0.9859
vt 0.5685 0.9859
vt 0.5597 0.9367
vt 0.5337 0.9367
vt 0.5337 0.9584
vt 0.5688 0.9584
vt 0.6071 0.8899
vt 0.605 0.8907
vt 0.6028 0.9094
vt 0.605 0.9099
vt 0.5867 0.9726
vt 0.5888 0.9735
vt 0.5887 0.9599
vt 0.5865 0.9593
vt 0.5815 0.9806
vt 0.5834 0.9806
vt 0.5871 0.99
vt 0.589 0.988
vt 0.5978 0.9381
vt 0.5957 0.9372
vt 0.6007 0.8862
vt 0.6028 0.8842
vt 0.0107 0.7672
vt 0.0079 0.7672
vt 0.0078 0.7789
vt 0.0104 0.779
vt 0.0105 0.8749
vt 0.0091 0.876
vt 0.0091 0.8976
vt 0.0406 0.8976
vn 0.0 -1.0 0.0
vn 0.0 -1.0 0.0
vn 0.0 -1.0 0.0
vn 0.0 -1.0 -0.0
vn 0.0 -1.0 0.0
vn -0.9118 0.3115 -0.2676
vn -0.9686 0.2488 0.0
vn -0.9863 -0.1647 0.0
vn -0.9232 -0.2213 -0.3143
vn -0.4051 -0.9097 -0.0916
vn -0.401 -0.9161 -0.0
vn -0.9973 -0.0728 0.0
vn -0.9149 -0.0673 -0.398
vn -0.8773 -0.4015 -0.2631
vn -0.9473 -0.3203 0.0
vn -1.0 -0.0 -0.0
vn -0.9163 0.0033 -0.4005
vn -0.4434 0.8963 0.0
vn -0.4484 0.8877 -0.1047
vn -0.8738 -0.3895 -0.2912
vn -0.9543 -0.2989 0.0
vn -0.9826 -0.1858 0.0
vn -0.9078 -0.2348 -0.3474
vn -0.7353 0.318 -0.5986
vn -0.7508 -0.2505 -0.6112
vn -0.7058 -0.4145 -0.5745
vn -0.7472 -0.2678 -0.6082
vn -0.7755 0.0047 -0.6313
vn -0.2665 0.9391 -0.2169
vn -0.6985 -0.4345 -0.5686
vn -0.7733 -0.0759 -0.6295
vn -0.2356 -0.9527 -0.1918
vn -0.0 1.0 0.0
vn -0.3714 0.3626 -0.8548
vn -0.4078 -0.254 -0.877
vn 0.0 -0.2005 -0.9797
vn 0.0 0.2858 -0.9583
vn -0.1382 -0.9239 -0.3568
vn -0.4598 -0.0629 -0.8858
vn 0.0 -0.0747 -0.9972
vn -0.0 -0.9355 -0.3535
vn -0.3557 -0.462 -0.8124
vn -0.4625 0.0025 -0.8866
vn -0.0 -0.0 -1.0
vn 0.0 -0.3678 -0.9299
vn -0.1562 0.9026 -0.4011
vn -0.0 0.9176 -0.3975
vn -0.3736 -0.4407 -0.8162
vn -0.4271 -0.251 -0.8686
vn 0.0 -0.2226 -0.9749
vn 0.0 -0.3584 -0.9336
vtan -1.0 0.0 -0.0008 1.0
vtan -1.0 0.0 -0.0008 1.0
vtan -1.0 0.0 -0.0008 1.0
vtan -1.0 -0.0 -0.0001 1.0
vtan -1.0 -0.0 -0.0001 1.0
vtan -1.0 -0.0 -0.0001 1.0
vtan -1.0 0.0 -0.0008 1.0
vtan -1.0 0.0 -0.0008 1.0
vtan -1.0 0.0 -0.0008 1.0
vtan -0.0001 0.0 -1.0 -1.0
vtan -0.0001 0.0 -1.0 -1.0
vtan -0.0001 0.0 -1.0 -1.0
vtan -0.0008 0.0 -1.0 -1.0
vtan -0.0008 0.0 -1.0 -1.0
vtan -0.0008 -0.0 -1.0 -1.0
vtan -0.0008 -0.0 -1.0 -1.0
vtan 0.2532 -0.0865 -0.9635 -1.0
vtan 0.0 0.0 -1.0 -1.0
vtan 0.0 0.0 -1.0 -1.0
vtan 0.3057 0.0733 -0.9493 -1.0
vtan 0.0373 0.0837 -0.9958 -1.0
vtan 0.0 0.0 -1.0 -1.0
vtan 0.397 0.0292 -0.9174 -1.0
vtan 0.397 0.0292 -0.9174 -1.0
vtan 0.2392 0.1095 -0.9648 -1.0
vtan 0.0 0.0 -1.0 -1.0
vtan 0.4005 -0.0014 -0.9163 -1.0
vtan 0.0472 -0.0935 -0.9945 -1.0
vtan 0.266 0.1185 -0.9567 -1.0
vtan 0.3363 0.087 -0.9377 -1.0
vtan 0.6758 0.411 -0.6118 -1.0
vtan 0.4014 0.538 -0.7413 -1.0
vtan 0.3695 -0.2851 -0.8844 -1.0
vtan 0.6588 -0.2169 -0.7203 -1.0
vtan 0.4488 -0.4917 -0.7462 -1.0
vtan 0.7031 -0.3107 -0.6396 -1.0
vtan 0.6638 -0.2559 -0.7028 -1.0
vtan 0.4117 -0.3415 -0.8449 -1.0
vtan 0.4004 0.0249 -0.916 -1.0
vtan 0.6313 0.0 -0.7755 -1.0
vtan 0.8835 0.4223 -0.2029 -1.0
vtan 0.943 0.2074 -0.2604 -1.0
vtan 0.7127 -0.3517 -0.6069 -1.0
vtan 0.4652 -0.4949 -0.734 -1.0
vtan 0.2217 0.7404 -0.6346 -1.0
vtan 0.4288 0.6687 -0.6074 -1.0
vtan 0.6349 -0.0015 -0.7726 -1.0
vtan 0.5662 -0.1709 -0.8063 -1.0
vtan 0.401 -0.038 -0.9153 -1.0
vtan 0.6324 -0.0217 -0.7743 -1.0
vtan 0.9638 0.2605 -0.0563 -1.0
vtan 0.8938 0.4463 -0.0436 -1.0
vtan 0.8963 0.4434 0.0003 -1.0
vtan 1.0 0.0 0.0001 -1.0
vtan -0.9285 -0.145 0.3419 1.0
vtan -0.9131 0.1135 0.3917 1.0
vtan -1.0 0.0 0.0 1.0
vtan -0.9904 0.1289 0.0498 1.0
vtan -0.888 0.0325 0.4586 1.0
vtan -1.0 0.0 0.0 1.0
vtan -0.888 0.0325 0.4586 1.0
vtan -0.9346 0.1758 0.3092 1.0
vtan -0.8866 -0.0013 0.4625 1.0
vtan -1.0 0.0 0.0 1.0
vtan -0.9877 -0.1427 0.0634 1.0
vtan -1.0 -0.0 0.0 1.0
vtan -0.9276 0.1775 0.3287 1.0
vtan -0.9042 0.1186 0.4103 1.0
vtan -0.6722 0.53 0.5169 1.0
vtan -0.5128 0.3165 0.798 1.0
vtan -0.5794 -0.1946 0.7915 1.0
vtan -0.8064 -0.3502 0.4765 1.0
vtan -0.5555 -0.2507 0.7928 1.0
vtan -0.4714 -0.3306 0.8176 1.0
vtan -0.6472 -0.5053 0.5707 1.0
vtan -0.7873 -0.3692 0.4938 1.0
vtan -0.631 0.0238 0.7754 1.0
vtan -0.8866 0.0011 0.4625 1.0
vtan 0.0064 0.2267 0.9739 1.0
vtan -0.1404 0.3817 0.9136 1.0
vtan -0.6328 -0.5223 0.5716 1.0
vtan -0.4626 -0.332 0.8221 1.0
vtan -0.5663 0.7891 0.238 1.0
vtan -0.5654 0.5318 0.6305 1.0
vtan -0.6302 -0.0174 0.7762 1.0
vtan -0.8849 -0.0508 0.4629 1.0
vtan -0.6662 -0.1799 0.7238 1.0
vtan -0.6312 -0.0 0.7756 1.0
vtan 0.0003 0.3975 0.9176 1.0
vtan -0.0627 0.3962 0.916 1.0
vtan -0.0569 0.2093 0.9762 1.0
vtan 0.0001 -0.0 1.0 1.0
f 5/0/0/0 4/1/0/1 25/2/0/2 
f 5/0/1/3 25/2/1/4 26/3/1/5 
f 28/4/2/6 25/2/2/7 4/1/2/8 
f 37/0/2/9 26/3/2/10 25/2/2/11 
f 37/0/3/12 25/2/3/13 34/1/3/13 
f 28/4/4/14 34/1/4/15 25/2/4/15 
f 0/5/5/16 1/6/6/17 2/7/7/18 
f 0/5/5/16 2/7/7/18 3/8/8/19 
f 4/9/9/20 5/10/10/21 6/11/11/17 
f 4/9/9/20 6/11/11/17 7/12/12/22 
f 0/5/5/16 7/13/12/23 6/14/11/17 
f 0/5/5/16 6/14/11/17 1/6/6/17 
f 8/15/13/24 9/16/14/17 10/17/15/25 
f 8/15/13/24 10/17/15/25 11/18/16/26 
f 10/17/15/25 12/19/17/17 13/20/18/27 
f 10/17/15/25 13/20/18/27 11/18/16/26 
f 14/21/19/28 15/22/20/17 16/23/21/18 
f 14/21/19/28 16/23/21/18 17/24/22/29 
f 3/8/8/19 2/7/7/18 15/22/20/17 
f 3/8/8/19 15/22/20/17 14/21/19/28 
f 19/25/23/30 0/26/5/31 3/27/8/32 
f 19/25/23/30 3/27/8/32 18/28/24/33 
f 8/29/13/34 20/30/25/35 21/31/26/36 
f 8/29/13/34 21/31/26/36 17/32/22/37 
f 11/33/16/38 22/34/27/39 20/30/25/35 
f 11/33/16/38 20/30/25/35 8/29/13/34 
f 11/33/16/38 13/35/18/40 23/36/28/41 
f 11/33/16/38 23/36/28/41 22/34/27/39 
f 17/32/22/37 21/31/26/36 24/37/29/42 
f 17/32/22/37 24/37/29/42 14/38/19/43 
f 14/38/19/43 24/37/29/42 18/28/24/33 
f 14/38/19/43 18/28/24/33 3/27/8/32 
f 8/15/13/24 17/24/22/29 16/23/21/18 
f 8/15/13/24 16/23/21/18 9/16/14/17 
f 7/39/12/44 0/26/5/31 19/25/23/30 
f 7/39/12/44 19/25/23/30 27/40/30/45 
f 28/41/31/46 4/42/9/47 7/43/12/48 
f 28/41/31/46 7/43/12/48 27/44/30/49 
f 23/45/28/50 13/46/18/51 12/47/17/52 
f 23/45/28/50 12/47/17/52 29/48/32/53 
f 30/5/33/54 31/8/34/55 32/7/35/56 
f 30/5/33/54 32/7/35/56 33/6/36/56 
f 34/9/37/57 35/12/38/58 36/11/39/56 
f 34/9/37/57 36/11/39/56 37/10/40/59 
f 30/5/33/54 33/6/36/56 36/14/39/56 
f 30/5/33/54 36/14/39/56 35/13/38/60 
f 38/15/41/61 39/18/42/62 40/17/43/63 
f 38/15/41/61 40/17/43/63 41/16/44/56 
f 42/20/45/64 43/19/46/65 40/17/43/63 
f 42/20/45/64 40/17/43/63 39/18/42/62 
f 44/21/47/66 45/24/48/67 46/23/49/56 
f 44/21/47/66 46/23/49/56 47/22/50/56 
f 31/8/34/55 44/21/47/66 47/22/50/56 
f 31/8/34/55 47/22/50/56 32/7/35/56 
f 30/26/33/68 19/25/23/69 18/28/24/70 
f 30/26/33/68 18/28/24/70 31/27/34/71 
f 21/31/26/72 20/30/25/73 38/29/41/74 
f 21/31/26/72 38/29/41/74 45/32/48/75 
f 38/29/41/74 20/30/25/73 22/34/27/76 
f 38/29/41/74 22/34/27/76 39/33/42/77 
f 22/34/27/76 23/36/28/78 42/35/45/79 
f 22/34/27/76 42/35/45/79 39/33/42/77 
f 44/38/47/80 24/37/29/81 21/31/26/72 
f 44/38/47/80 21/31/26/72 45/32/48/75 
f 31/27/34/71 18/28/24/70 24/37/29/81 
f 31/27/34/71 24/37/29/81 44/38/47/80 
f 46/23/49/56 45/24/48/67 38/15/41/61 
f 46/23/49/56 38/15/41/61 41/16/44/56 
f 30/26/33/68 35/39/38/82 27/40/30/83 
f 30/26/33/68 27/40/30/83 19/25/23/69 
f 27/44/30/84 35/43/38/85 34/42/37/86 
f 27/44/30/84 34/42/37/86 28/41/31/87 
f 43/47/46/88 42/46/45/89 23/45/28/90 
f 43/47/46/88 23/45/28/90 29/48/32/91 
