v -274.1302 1222.6902 -246.6782
v -264.5989 1220.7145 -246.6782
v -264.5989 1225.527 -248.3369
v -272.2174 1227.1062 -248.3369
v -281.2681 1238.7134 -263.6246
v -282.2721 1245.8318 -263.6246
v -282.2721 1245.8318 -250.3526
v -281.2681 1238.7134 -250.3526
v -286.2856 1254.928 -246.6782
v -288.5294 1246.2345 -246.6782
v -283.7247 1245.9253 -248.3376
v -281.9297 1252.8726 -248.3384
v -291.7 1234.9703 -243.133
v -287.1699 1236.5957 -246.6782
v -293.3323 1246.5436 -243.133
v -291.7 1234.9703 -263.6246
v -293.3323 1246.5436 -263.6246
v -271.1123 1261.1631 -263.6246
v -264.5989 1262.4044 -263.6246
v -264.5989 1262.4044 -250.3526
v -271.1123 1261.1631 -250.3526
v -275.1886 1271.4694 -243.133
v -273.4185 1266.9939 -246.6782
v -264.5989 1268.6747 -246.6782
v -264.5989 1273.4875 -243.133
v -275.1886 1271.4694 -263.6246
v -264.5989 1273.4875 -263.6246
v -255.0673 1222.6902 -246.6782
v -256.9802 1227.1062 -248.3369
v -246.9255 1245.8318 -263.6246
v -247.9295 1238.7134 -263.6246
v -247.9295 1238.7134 -250.3526
v -246.9255 1245.8318 -250.3526
v -240.6682 1246.2345 -246.6782
v -242.9119 1254.928 -246.6782
v -247.2679 1252.8726 -248.3384
v -245.4729 1245.9253 -248.3376
v -242.0277 1236.5957 -246.6782
v -237.4976 1234.9703 -243.133
v -235.8653 1246.5436 -243.133
v -237.4976 1234.9703 -263.6246
v -235.8653 1246.5436 -263.6246
v -258.0853 1261.1631 -263.6246
v -258.0853 1261.1631 -250.3526
v -255.7791 1266.9939 -246.6782
v -254.009 1271.4694 -243.133
v -254.009 1271.4694 -263.6246
v -282.0913 1228.2915 -246.6782
v -278.5807 1231.5835 -248.3369
v -282.6401 1238.2211 -248.3369
v -271.6379 1228.4437 -263.6246
v -277.5173 1232.5806 -263.6246
v -277.5173 1232.5806 -250.3526
v -271.6381 1228.4437 -250.3526
v -281.0017 1262.187 -246.6782
v -277.707 1258.6735 -248.3384
v -271.647 1262.5148 -248.3384
v -276.0433 1218.2738 -243.133
v -285.6021 1224.9995 -243.133
v -276.0433 1218.2738 -263.6246
v -285.6021 1224.9995 -263.6246
v -280.6151 1252.2522 -263.6246
v -276.7129 1257.6132 -263.6246
v -276.7129 1257.6132 -250.3526
v -280.6151 1252.2522 -250.3526
v -290.6382 1256.9819 -243.133
v -284.2939 1265.6978 -243.133
v -290.6382 1256.9819 -263.6246
v -284.2939 1265.6978 -263.6246
v -246.5575 1238.2212 -248.3369
v -250.6169 1231.5835 -248.3369
v -247.1063 1228.2915 -246.6782
v -257.5596 1228.4438 -263.6246
v -257.5596 1228.4438 -250.3526
v -251.6802 1232.5806 -250.3526
v -251.6802 1232.5806 -263.6246
v -257.5507 1262.5148 -248.3384
v -251.4905 1258.6735 -248.3384
v -248.1958 1262.187 -246.6782
v -253.1543 1218.2738 -243.133
v -243.5956 1224.9995 -243.133
v -253.1543 1218.2738 -263.6246
v -243.5956 1224.9995 -263.6246
v -248.5825 1252.2522 -263.6246
v -248.5825 1252.2522 -250.3526
v -252.4848 1257.6132 -250.3526
v -252.4848 1257.6132 -263.6246
v -238.5593 1256.9819 -243.133
v -244.9037 1265.6978 -243.133
v -238.5593 1256.9819 -263.6246
v -244.9037 1265.6978 -263.6246
v -264.5989 1226.9846 -263.6246
v -264.5989 1226.9846 -250.3526
v -264.5989 1263.8579 -248.3384
v -264.5989 1215.9016 -243.133
v -264.5989 1215.9016 -263.6246
gi 0 0 0 0
gi 0 0 0 0
gi 0 0 0 0
gi 0 0 0 0
gi 0 0 0 0
gi 0 0 0 0
gi 0 0 0 0
gi 0 0 0 0
gi 0 0 0 0
gi 0 0 0 0
gi 0 0 0 0
gi 0 0 0 0
gi 0 0 0 0
gi 0 0 0 0
gi 0 0 0 0
gi 0 0 0 0
gi 0 0 0 0
gi 0 0 0 0
gi 0 0 0 0
gi 0 0 0 0
gi 0 0 0 0
gi 0 0 0 0
gi 0 0 0 0
gi 0 0 0 0
gi 0 0 0 0
gi 0 0 0 0
gi 0 0 0 0
gi 0 0 0 0
gi 0 0 0 0
gi 0 0 0 0
gi 0 0 0 0
gi 0 0 0 0
gi 0 0 0 0
gi 0 0 0 0
gi 0 0 0 0
gi 0 0 0 0
gi 0 0 0 0
gi 0 0 0 0
gi 0 0 0 0
gi 0 0 0 0
gi 0 0 0 0
gi 0 0 0 0
gi 0 0 0 0
gi 0 0 0 0
gi 0 0 0 0
gi 0 0 0 0
gi 0 0 0 0
gi 0 0 0 0
gi 0 0 0 0
gi 0 0 0 0
gi 0 0 0 0
gi 0 0 0 0
gi 0 0 0 0
gi 0 0 0 0
gi 0 0 0 0
gi 0 0 0 0
gi 0 0 0 0
gi 0 0 0 0
gi 0 0 0 0
gi 0 0 0 0
gi 0 0 0 0
gi 0 0 0 0
gi 0 0 0 0
gi 0 0 0 0
gi 0 0 0 0
gi 0 0 0 0
gi 0 0 0 0
gi 0 0 0 0
gi 0 0 0 0
gi 0 0 0 0
gi 0 0 0 0
gi 0 0 0 0
gi 0 0 0 0
gi 0 0 0 0
gi 0 0 0 0
gi 0 0 0 0
gi 0 0 0 0
gi 0 0 0 0
gi 0 0 0 0
gi 0 0 0 0
gi 0 0 0 0
gi 0 0 0 0
gi 0 0 0 0
gi 0 0 0 0
gi 0 0 0 0
gi 0 0 0 0
gi 0 0 0 0
gi 0 0 0 0
gi 0 0 0 0
gi 0 0 0 0
gi 0 0 0 0
gi 0 0 0 0
gi 0 0 0 0
gi 0 0 0 0
gi 0 0 0 0
gi 0 0 0 0
gw 0.0 0.0 0.0 0.0
gw 0.0 0.0 0.0 0.0
gw 0.0 0.0 0.0 0.0
gw 0.0 0.0 0.0 0.0
gw 0.0 0.0 0.0 0.0
gw 0.0 0.0 0.0 0.0
gw 0.0 0.0 0.0 0.0
gw 0.0 0.0 0.0 0.0
gw 0.0 0.0 0.0 0.0
gw 0.0 0.0 0.0 0.0
gw 0.0 0.0 0.0 0.0
gw 0.0 0.0 0.0 0.0
gw 0.0 0.0 0.0 0.0
gw 0.0 0.0 0.0 0.0
gw 0.0 0.0 0.0 0.0
gw 0.0 0.0 0.0 0.0
gw 0.0 0.0 0.0 0.0
gw 0.0 0.0 0.0 0.0
gw 0.0 0.0 0.0 0.0
gw 0.0 0.0 0.0 0.0
gw 0.0 0.0 0.0 0.0
gw 0.0 0.0 0.0 0.0
gw 0.0 0.0 0.0 0.0
gw 0.0 0.0 0.0 0.0
gw 0.0 0.0 0.0 0.0
gw 0.0 0.0 0.0 0.0
gw 0.0 0.0 0.0 0.0
gw 0.0 0.0 0.0 0.0
gw 0.0 0.0 0.0 0.0
gw 0.0 0.0 0.0 0.0
gw 0.0 0.0 0.0 0.0
gw 0.0 0.0 0.0 0.0
gw 0.0 0.0 0.0 0.0
gw 0.0 0.0 0.0 0.0
gw 0.0 0.0 0.0 0.0
gw 0.0 0.0 0.0 0.0
gw 0.0 0.0 0.0 0.0
gw 0.0 0.0 0.0 0.0
gw 0.0 0.0 0.0 0.0
gw 0.0 0.0 0.0 0.0
gw 0.0 0.0 0.0 0.0
gw 0.0 0.0 0.0 0.0
gw 0.0 0.0 0.0 0.0
gw 0.0 0.0 0.0 0.0
gw 0.0 0.0 0.0 0.0
gw 0.0 0.0 0.0 0.0
gw 0.0 0.0 0.0 0.0
gw 0.0 0.0 0.0 0.0
gw 0.0 0.0 0.0 0.0
gw 0.0 0.0 0.0 0.0
gw 0.0 0.0 0.0 0.0
gw 0.0 0.0 0.0 0.0
gw 0.0 0.0 0.0 0.0
gw 0.0 0.0 0.0 0.0
gw 0.0 0.0 0.0 0.0
gw 0.0 0.0 0.0 0.0
gw 0.0 0.0 0.0 0.0
gw 0.0 0.0 0.0 0.0
gw 0.0 0.0 0.0 0.0
gw 0.0 0.0 0.0 0.0
gw 0.0 0.0 0.0 0.0
gw 0.0 0.0 0.0 0.0
gw 0.0 0.0 0.0 0.0
gw 0.0 0.0 0.0 0.0
gw 0.0 0.0 0.0 0.0
gw 0.0 0.0 0.0 0.0
gw 0.0 0.0 0.0 0.0
gw 0.0 0.0 0.0 0.0
gw 0.0 0.0 0.0 0.0
gw 0.0 0.0 0.0 0.0
gw 0.0 0.0 0.0 0.0
gw 0.0 0.0 0.0 0.0
gw 0.0 0.0 0.0 0.0
gw 0.0 0.0 0.0 0.0
gw 0.0 0.0 0.0 0.0
gw 0.0 0.0 0.0 0.0
gw 0.0 0.0 0.0 0.0
gw 0.0 0.0 0.0 0.0
gw 0.0 0.0 0.0 0.0
gw 0.0 0.0 0.0 0.0
gw 0.0 0.0 0.0 0.0
gw 0.0 0.0 0.0 0.0
gw 0.0 0.0 0.0 0.0
gw 0.0 0.0 0.0 0.0
gw 0.0 0.0 0.0 0.0
gw 0.0 0.0 0.0 0.0
gw 0.0 0.0 0.0 0.0
gw 0.0 0.0 0.0 0.0
gw 0.0 0.0 0.0 0.0
gw 0.0 0.0 0.0 0.0
gw 0.0 0.0 0.0 0.0
gw 0.0 0.0 0.0 0.0
gw 0.0 0.0 0.0 0.0
gw 0.0 0.0 0.0 0.0
gw 0.0 0.0 0.0 0.0
gw 0.0 0.0 0.0 0.0
vt 0.1275 0.1878
vt 0.0033 0.1878
vt 0.0033 0.1621
vt 0.1275 0.1621
vt 0.3758 0.0638
vt 0.4999 0.0638
vt 0.4999 0.1451
vt 0.3758 0.1451
vt 0.6143 0.1878
vt 0.4999 0.1878
vt 0.4999 0.1621
vt 0.6143 0.1621
vt 0.3758 0.2169
vt 0.3758 0.1878
vt 0.4999 0.2169
vt 0.3758 0.3263
vt 0.4999 0.3263
vt 0.8431 0.0638
vt 0.9575 0.0638
vt 0.9575 0.1451
vt 0.8431 0.1451
vt 0.8431 0.2169
vt 0.8431 0.1878
vt 0.9575 0.1878
vt 0.9575 0.2169
vt 0.8431 0.3263
vt 0.9575 0.3263
vt 0.2516 0.1878
vt 0.2516 0.1621
vt 0.3758 0.1621
vt 0.1275 0.0638
vt 0.2516 0.0638
vt 0.2516 0.1451
vt 0.1275 0.1451
vt 0.7287 0.1878
vt 0.7287 0.1621
vt 0.8431 0.1621
vt 0.1275 0.2169
vt 0.2516 0.2169
vt 0.1275 0.3263
vt 0.2516 0.3263
vt 0.6143 0.0638
vt 0.7287 0.0638
vt 0.7287 0.1451
vt 0.6143 0.1451
vt 0.6143 0.2169
vt 0.7287 0.2169
vt 0.6143 0.3263
vt 0.7287 0.3263
vt 0.0033 0.0638
vt 0.0033 0.1451
vt 0.9575 0.1621
vt 0.0033 0.2169
vt 0.0033 0.3263
vn 0.1907 0.4403 0.8773
vn 0.0 0.4799 0.8773
vn 0.0 0.5694 0.8221
vn 0.2263 0.5225 0.8221
vn 0.9412 0.3377 0.0
vn 0.9984 -0.0562 0.0
vn 0.9461 -0.053 0.3195
vn 0.8917 0.3199 0.3203
vn 0.4329 -0.2043 0.878
vn 0.4786 -0.0267 0.8776
vn 0.5698 -0.0321 0.8212
vn 0.5172 -0.2441 0.8203
vn -0.5027 -0.1804 0.8455
vn 0.4517 0.1621 0.8773
vn -0.5303 0.0294 0.8473
vn -0.9412 -0.3377 0.0
vn -0.9984 0.0562 0.0
vn 0.3678 -0.9299 0.0
vn 0.0 -1.0 0.0
vn 0.0 -0.9478 0.3188
vn 0.3486 -0.8814 0.3188
vn -0.1943 0.4912 0.8491
vn 0.1761 -0.4452 0.878
vn 0.0 -0.4787 0.878
vn 0.0 0.5282 0.8491
vn -0.3678 0.9299 0.0
vn -0.0 1.0 0.0
vn -0.1907 0.4403 0.8773
vn -0.2263 0.5225 0.8221
vn -0.9984 -0.0562 0.0
vn -0.9412 0.3377 0.0
vn -0.8917 0.3199 0.3203
vn -0.9461 -0.053 0.3195
vn -0.4786 -0.0267 0.8776
vn -0.4329 -0.2043 0.878
vn -0.5172 -0.2441 0.8203
vn -0.5698 -0.0321 0.8212
vn -0.4517 0.1621 0.8773
vn 0.5027 -0.1804 0.8455
vn 0.5303 0.0294 0.8473
vn 0.9412 -0.3377 0.0
vn 0.9984 0.0562 0.0
vn -0.3678 -0.9299 0.0
vn -0.3486 -0.8814 0.3188
vn -0.1761 -0.4452 0.878
vn 0.1943 0.4912 0.8491
vn 0.3678 0.9299 0.0
vn 0.35 0.3282 0.8773
vn 0.4153 0.3895 0.8221
vn 0.5359 0.1923 0.8221
vn 0.3975 0.9176 0.0
vn 0.7295 0.684 0.0
vn 0.691 0.648 0.3203
vn 0.3765 0.8693 0.3203
vn 0.3275 -0.3492 0.878
vn 0.3912 -0.4172 0.8203
vn 0.2103 -0.5319 0.8203
vn -0.2123 -0.49 0.8455
vn -0.3896 -0.3653 0.8455
vn -0.3975 -0.9176 0.0
vn -0.7295 -0.684 0.0
vn 0.9044 -0.4267 0.0
vn 0.684 -0.7295 0.0
vn 0.6483 -0.6914 0.3188
vn 0.8572 -0.4045 0.3188
vn -0.4777 0.2254 0.8491
vn -0.3613 0.3853 0.8491
vn -0.9044 0.4267 0.0
vn -0.684 0.7295 0.0
vn -0.5359 0.1923 0.8221
vn -0.4153 0.3895 0.8221
vn -0.3501 0.3283 0.8773
vn -0.3975 0.9176 0.0
vn -0.3765 0.8693 0.3203
vn -0.691 0.648 0.3203
vn -0.7295 0.684 0.0
vn -0.2103 -0.5318 0.8203
vn -0.3912 -0.4172 0.8203
vn -0.3275 -0.3492 0.878
vn 0.2123 -0.49 0.8455
vn 0.3896 -0.3653 0.8455
vn 0.3975 -0.9176 0.0
vn 0.7295 -0.684 0.0
vn -0.9044 -0.4267 0.0
vn -0.8572 -0.4045 0.3188
vn -0.6483 -0.6914 0.3188
vn -0.684 -0.7295 0.0
vn 0.4777 0.2254 0.8491
vn 0.3613 0.3853 0.8491
vn 0.9044 0.4268 0.0
vn 0.684 0.7295 0.0
vn -0.0 1.0 0.0
vn -0.0 0.9473 0.3203
vn -0.0 -0.5719 0.8203
vn -0.0 -0.5341 0.8455
vn -0.0 -1.0 0.0
vtan -0.9176 0.3975 -0.0
vtan -0.9839 0.157 -0.0859
vtan -0.9858 0.1381 -0.0956
vtan -0.9176 0.3975 0.0
vtan -0.3377 0.9412 0.0
vtan 0.0562 0.9984 0.0
vtan 0.0559 0.9984 -0.0
vtan -0.3377 0.9413 -0.0
vtan 0.4268 0.9044 -0.0
vtan 0.0562 0.9984 -0.0002
vtan 0.0562 0.9984 0.0
vtan 0.4268 0.9043 -0.0
vtan -0.3377 0.9412 -0.0
vtan -0.3377 0.9412 0.0
vtan 0.0569 0.9984 0.0009
vtan -0.3377 0.9412 0.0
vtan 0.0562 0.9984 0.0
vtan 0.9299 0.3678 0.0
vtan 1.0 0.0 0.0
vtan 0.9982 0.0193 0.0575
vtan 0.9299 0.3678 -0.0
vtan 0.9299 0.3678 -0.0
vtan 0.9299 0.3678 -0.0
vtan 0.9863 0.1449 0.079
vtan 0.9872 0.1356 -0.0844
vtan 0.9299 0.3678 0.0
vtan 1.0 0.0 0.0
vtan 0.9839 0.157 -0.0859
vtan 0.9176 0.3975 -0.0
vtan 0.9176 0.3975 -0.0
vtan 0.9858 0.1381 -0.0957
vtan -0.0562 0.9984 0.0
vtan 0.3377 0.9412 0.0
vtan 0.3377 0.9412 0.0
vtan -0.0559 0.9984 -0.0
vtan -0.0562 0.9984 -0.0002
vtan -0.4267 0.9044 0.0
vtan -0.4268 0.9043 -0.0
vtan -0.0563 0.9984 -0.0
vtan 0.3377 0.9412 0.0
vtan 0.3377 0.9412 0.0
vtan -0.0569 0.9984 0.0009
vtan -0.0562 0.9984 0.0
vtan -1.0 -0.0 0.0
vtan -0.9299 0.3678 0.0
vtan -0.9299 0.3678 -0.0
vtan -0.9982 0.0193 0.0575
vtan -0.9863 0.1449 0.079
vtan -0.9299 0.3678 0.0
vtan -0.9299 0.3678 0.0
vtan -0.9872 0.1356 -0.0844
vtan -0.9299 0.3678 0.0
vtan -1.0 -0.0 0.0
vtan -0.684 0.7295 -0.0
vtan -0.684 0.7295 0.0
vtan -0.3376 0.9413 -0.0
vtan -0.9176 0.3975 0.0
vtan -0.684 0.7295 0.0
vtan -0.684 0.7295 0.0
vtan -0.9176 0.3975 -0.0
vtan 0.7295 0.684 0.0
vtan 0.7295 0.684 0.0
vtan 0.9299 0.3678 0.0
vtan -0.9176 0.3975 -0.0
vtan -0.684 0.7295 0.0
vtan -0.9176 0.3975 0.0
vtan -0.684 0.7295 0.0
vtan 0.4267 0.9044 0.0
vtan 0.7295 0.684 0.0
vtan 0.7295 0.684 0.0
vtan 0.4267 0.9044 -0.0
vtan 0.4267 0.9044 -0.0
vtan 0.7295 0.684 -0.0
vtan 0.4267 0.9044 0.0
vtan 0.7295 0.684 0.0
vtan 0.3377 0.9413 -0.0
vtan 0.684 0.7295 -0.0
vtan 0.684 0.7295 -0.0
vtan 0.9176 0.3975 0.0
vtan 0.9176 0.3975 -0.0
vtan 0.684 0.7295 -0.0
vtan 0.684 0.7295 0.0
vtan -0.9299 0.3678 0.0
vtan -0.7295 0.684 0.0
vtan -0.7295 0.684 -0.0
vtan 0.9176 0.3975 0.0
vtan 0.684 0.7295 -0.0
vtan 0.9176 0.3975 0.0
vtan 0.684 0.7295 0.0
vtan -0.4267 0.9044 0.0
vtan -0.4268 0.9044 -0.0
vtan -0.7295 0.684 0.0
vtan -0.7295 0.684 0.0
vtan -0.4268 0.9044 0.0
vtan -0.7295 0.684 0.0
vtan -0.4268 0.9044 0.0
vtan -0.7295 0.684 0.0
vtan -1.0 -0.0 -0.0
vtan -0.9978 0.0212 -0.0628
vtan 0.988 0.1267 0.0883
vtan -0.985 0.1459 0.0922
vtan -1.0 0.0 0.0
vtan 1.0 0.0 -0.0
vtan 0.9978 0.0212 -0.0628
vtan -0.988 0.1267 0.0883
vtan 0.985 0.1459 0.0922
vtan 1.0 -0.0 0.0
f 0/0/0/0 1/1/1/1 2/2/2/2 
f 0/0/0/0 2/2/2/2 3/3/3/3 
f 4/4/4/4 5/5/5/5 6/6/6/6 
f 4/4/4/4 6/6/6/6 7/7/7/7 
f 8/8/8/8 9/9/9/9 10/10/10/10 
f 8/8/8/8 10/10/10/10 11/11/11/11 
f 12/12/12/12 13/13/13/13 9/9/9/9 
f 12/12/12/12 9/9/9/9 14/14/14/14 
f 15/15/15/15 12/12/12/12 14/14/14/14 
f 15/15/15/15 14/14/14/14 16/16/16/16 
f 17/17/17/17 18/18/18/18 19/19/19/19 
f 17/17/17/17 19/19/19/19 20/20/20/20 
f 21/21/21/21 22/22/22/22 23/23/23/23 
f 21/21/21/21 23/23/23/23 24/24/24/24 
f 25/25/25/25 21/21/21/21 24/24/24/24 
f 25/25/25/25 24/24/24/24 26/26/26/26 
f 1/1/1/27 27/0/27/28 28/3/28/29 
f 1/1/1/27 28/3/28/29 2/2/2/30 
f 29/5/29/31 30/4/30/32 31/7/31/33 
f 29/5/29/31 31/7/31/33 32/6/32/34 
f 33/9/33/35 34/8/34/36 35/11/35/37 
f 33/9/33/35 35/11/35/37 36/10/36/38 
f 33/9/33/35 37/13/37/39 38/12/38/40 
f 33/9/33/35 38/12/38/40 39/14/39/41 
f 39/14/39/41 38/12/38/40 40/15/40/32 
f 39/14/39/41 40/15/40/32 41/16/41/42 
f 18/18/18/43 42/17/42/44 43/20/43/45 
f 18/18/18/43 43/20/43/45 19/19/19/46 
f 23/23/23/47 44/22/44/48 45/21/45/49 
f 23/23/23/47 45/21/45/49 24/24/24/50 
f 24/24/24/50 45/21/45/49 46/25/46/51 
f 24/24/24/50 46/25/46/51 26/26/26/52 
f 13/13/13/13 47/27/47/53 48/28/48/54 
f 13/13/13/13 48/28/48/54 49/29/49/55 
f 50/30/50/56 51/31/51/57 52/32/52/58 
f 50/30/50/56 52/32/52/58 53/33/53/59 
f 22/22/22/22 54/34/54/60 55/35/55/61 
f 22/22/22/22 55/35/55/61 56/36/56/62 
f 57/37/57/63 0/0/0/0 47/27/47/53 
f 57/37/57/63 47/27/47/53 58/38/58/64 
f 59/39/59/65 57/37/57/63 58/38/58/64 
f 59/39/59/65 58/38/58/64 60/40/60/66 
f 61/41/61/67 62/42/62/68 63/43/63/69 
f 61/41/61/67 63/43/63/69 64/44/64/70 
f 65/45/65/71 8/8/8/8 54/34/54/60 
f 65/45/65/71 54/34/54/60 66/46/66/72 
f 67/47/67/73 65/45/65/71 66/46/66/72 
f 67/47/67/73 66/46/66/72 68/48/68/74 
f 37/13/37/39 69/29/69/75 70/28/70/76 
f 37/13/37/39 70/28/70/76 71/27/71/77 
f 72/30/72/78 73/33/73/79 74/32/74/80 
f 72/30/72/78 74/32/74/80 75/31/75/81 
f 44/22/44/48 76/36/76/82 77/35/77/83 
f 44/22/44/48 77/35/77/83 78/34/78/84 
f 27/0/27/28 79/37/79/85 80/38/80/86 
f 27/0/27/28 80/38/80/86 71/27/71/77 
f 79/37/79/85 81/39/81/87 82/40/82/88 
f 79/37/79/85 82/40/82/88 80/38/80/86 
f 83/41/83/89 84/44/84/90 85/43/85/91 
f 83/41/83/89 85/43/85/91 86/42/86/92 
f 34/8/34/36 87/45/87/93 88/46/88/94 
f 34/8/34/36 88/46/88/94 78/34/78/84 
f 87/45/87/93 89/47/89/95 90/48/90/96 
f 87/45/87/93 90/48/90/96 88/46/88/94 
f 47/27/47/53 0/0/0/0 3/3/3/3 
f 47/27/47/53 3/3/3/3 48/28/48/54 
f 51/31/51/57 4/4/4/4 7/7/7/7 
f 51/31/51/57 7/7/7/7 52/32/52/58 
f 54/34/54/60 8/8/8/8 11/11/11/11 
f 54/34/54/60 11/11/11/11 55/35/55/61 
f 58/38/58/64 47/27/47/53 13/13/13/13 
f 58/38/58/64 13/13/13/13 12/12/12/12 
f 60/40/60/66 58/38/58/64 12/12/12/12 
f 60/40/60/66 12/12/12/12 15/15/15/15 
f 62/42/62/68 17/17/17/17 20/20/20/20 
f 62/42/62/68 20/20/20/20 63/43/63/69 
f 66/46/66/72 54/34/54/60 22/22/22/22 
f 66/46/66/72 22/22/22/22 21/21/21/21 
f 68/48/68/74 66/46/66/72 21/21/21/21 
f 68/48/68/74 21/21/21/21 25/25/25/25 
f 71/27/71/77 70/28/70/76 28/3/28/29 
f 71/27/71/77 28/3/28/29 27/0/27/28 
f 75/31/75/81 74/32/74/80 31/7/31/33 
f 75/31/75/81 31/7/31/33 30/4/30/32 
f 78/34/78/84 77/35/77/83 35/11/35/37 
f 78/34/78/84 35/11/35/37 34/8/34/36 
f 71/27/71/77 80/38/80/86 38/12/38/40 
f 71/27/71/77 38/12/38/40 37/13/37/39 
f 80/38/80/86 82/40/82/88 40/15/40/32 
f 80/38/80/86 40/15/40/32 38/12/38/40 
f 86/42/86/92 85/43/85/91 43/20/43/45 
f 86/42/86/92 43/20/43/45 42/17/42/44 
f 78/34/78/84 88/46/88/94 45/21/45/49 
f 78/34/78/84 45/21/45/49 44/22/44/48 
f 88/46/88/94 90/48/90/96 46/25/46/51 
f 88/46/88/94 46/25/46/51 45/21/45/49 
f 9/9/9/9 13/13/13/13 49/29/49/55 
f 9/9/9/9 49/29/49/55 10/10/10/10 
f 91/49/91/97 50/30/50/56 53/33/53/59 
f 91/49/91/97 53/33/53/59 92/50/92/98 
f 23/23/23/23 22/22/22/22 56/36/56/62 
f 23/23/23/23 56/36/56/62 93/51/93/99 
f 0/0/0/0 57/37/57/63 94/52/94/100 
f 0/0/0/0 94/52/94/100 1/1/1/1 
f 95/53/95/101 94/52/94/100 57/37/57/63 
f 95/53/95/101 57/37/57/63 59/39/59/65 
f 5/5/5/5 61/41/61/67 64/44/64/70 
f 5/5/5/5 64/44/64/70 6/6/6/6 
f 14/14/14/14 9/9/9/9 8/8/8/8 
f 14/14/14/14 8/8/8/8 65/45/65/71 
f 16/16/16/16 14/14/14/14 65/45/65/71 
f 16/16/16/16 65/45/65/71 67/47/67/73 
f 33/9/33/35 36/10/36/38 69/29/69/75 
f 33/9/33/35 69/29/69/75 37/13/37/39 
f 91/49/91/102 92/50/92/103 73/33/73/79 
f 91/49/91/102 73/33/73/79 72/30/72/78 
f 23/23/23/47 93/51/93/104 76/36/76/82 
f 23/23/23/47 76/36/76/82 44/22/44/48 
f 1/1/1/27 94/52/94/105 79/37/79/85 
f 1/1/1/27 79/37/79/85 27/0/27/28 
f 94/52/94/105 95/53/95/106 81/39/81/87 
f 94/52/94/105 81/39/81/87 79/37/79/85 
f 29/5/29/31 32/6/32/34 84/44/84/90 
f 29/5/29/31 84/44/84/90 83/41/83/89 
f 33/9/33/35 39/14/39/41 87/45/87/93 
f 33/9/33/35 87/45/87/93 34/8/34/36 
f 39/14/39/41 41/16/41/42 89/47/89/95 
f 39/14/39/41 89/47/89/95 87/45/87/93 
f 10/10/10/10 49/29/49/55 7/7/7/7 
f 10/10/10/10 7/7/7/7 6/6/6/6 
f 93/51/93/99 56/36/56/62 20/20/20/20 
f 93/51/93/99 20/20/20/20 19/19/19/19 
f 69/29/69/75 36/10/36/38 32/6/32/34 
f 69/29/69/75 32/6/32/34 31/7/31/33 
f 76/36/76/82 93/51/93/104 19/19/19/46 
f 76/36/76/82 19/19/19/46 43/20/43/45 
f 48/28/48/54 3/3/3/3 53/33/53/59 
f 48/28/48/54 53/33/53/59 52/32/52/58 
f 55/35/55/61 11/11/11/11 64/44/64/70 
f 55/35/55/61 64/44/64/70 63/43/63/69 
f 28/3/28/29 70/28/70/76 74/32/74/80 
f 28/3/28/29 74/32/74/80 73/33/73/79 
f 35/11/35/37 77/35/77/83 85/43/85/91 
f 35/11/35/37 85/43/85/91 84/44/84/90 
f 49/29/49/55 48/28/48/54 52/32/52/58 
f 49/29/49/55 52/32/52/58 7/7/7/7 
f 56/36/56/62 55/35/55/61 63/43/63/69 
f 56/36/56/62 63/43/63/69 20/20/20/20 
f 70/28/70/76 69/29/69/75 31/7/31/33 
f 70/28/70/76 31/7/31/33 74/32/74/80 
f 77/35/77/83 76/36/76/82 43/20/43/45 
f 77/35/77/83 43/20/43/45 85/43/85/91 
f 3/3/3/3 2/2/2/2 92/50/92/98 
f 3/3/3/3 92/50/92/98 53/33/53/59 
f 11/11/11/11 10/10/10/10 6/6/6/6 
f 11/11/11/11 6/6/6/6 64/44/64/70 
f 2/2/2/30 28/3/28/29 73/33/73/79 
f 2/2/2/30 73/33/73/79 92/50/92/103 
f 36/10/36/38 35/11/35/37 84/44/84/90 
f 36/10/36/38 84/44/84/90 32/6/32/34 
