v 52.3152 279.8812 -279.1519
v 52.3152 280.1829 -280.278
v 92.4797 280.1829 -280.278
v 92.4797 279.8812 -279.1519
v 52.3152 281.0074 -281.1023
v 92.4797 281.0074 -281.1023
v 52.3152 282.1335 -281.4041
v 92.4797 282.1335 -281.4041
v 52.3152 283.2597 -281.1023
v 92.4797 283.2597 -281.1023
v 52.3152 284.0839 -280.278
v 92.4797 284.0839 -280.278
v 52.3152 284.3857 -279.1518
v 92.4797 284.3857 -279.1518
v 52.3152 284.0839 -278.0257
v 92.4797 284.0839 -278.0257
v 52.3152 283.2596 -277.2013
v 92.4797 283.2596 -277.2013
v 52.3152 282.1334 -276.8996
v 92.4797 282.1334 -276.8996
v 52.3152 281.0073 -277.2013
v 92.4797 281.0073 -277.2013
v 52.3152 280.1829 -278.0258
v 92.4797 280.1829 -278.0258
v 12.1506 279.8812 -279.1519
v 12.1506 280.1829 -280.278
v 12.1506 281.0074 -281.1023
v 12.1506 282.1335 -281.4041
v 12.1506 283.2597 -281.1023
v 12.1506 284.0839 -280.278
v 12.1506 284.3857 -279.1518
v 12.1506 284.0839 -278.0257
v 12.1506 283.2596 -277.2013
v 12.1506 282.1334 -276.8996
v 12.1506 281.0073 -277.2013
v 12.1506 280.1829 -278.0258
v -28.014 279.8812 -279.1519
v -28.014 280.1829 -280.278
v -28.014 281.0074 -281.1023
v -28.014 282.1335 -281.4041
v -28.014 283.2597 -281.1023
v -28.014 284.0839 -280.278
v -28.014 284.3857 -279.1518
v -28.014 284.0839 -278.0257
v -28.014 283.2596 -277.2013
v -28.014 282.1334 -276.8996
v -28.014 281.0073 -277.2013
v -28.014 280.1829 -278.0258
v -62.4588 279.8812 -279.1519
v -62.4588 280.1829 -280.278
v -62.4588 281.0074 -281.1023
v -62.4588 282.1335 -281.4041
v -62.4588 283.2597 -281.1023
v -62.4588 284.0839 -280.278
v -62.4588 284.3857 -279.1518
v -62.4588 284.0839 -278.0257
v -62.4588 283.2596 -277.2013
v -62.4588 282.1334 -276.8996
v -62.4588 281.0073 -277.2013
v -62.4588 280.1829 -278.0258
v -217.3974 280.1829 -280.278
v -177.2328 280.1829 -280.278
v -177.2328 279.8812 -279.1519
v -217.3974 279.8812 -279.1519
v -217.3974 281.0074 -281.1023
v -177.2328 281.0074 -281.1023
v -217.3974 282.1335 -281.4041
v -177.2328 282.1335 -281.4041
v -217.3974 283.2597 -281.1023
v -177.2328 283.2597 -281.1023
v -217.3974 284.0839 -280.278
v -177.2328 284.0839 -280.278
v -217.3974 284.3857 -279.1518
v -177.2328 284.3857 -279.1518
v -217.3974 284.0839 -278.0257
v -177.2328 284.0839 -278.0257
v -217.3974 283.2596 -277.2013
v -177.2328 283.2596 -277.2013
v -217.3974 282.1334 -276.8996
v -177.2328 282.1334 -276.8996
v -217.3974 281.0073 -277.2013
v -177.2328 281.0073 -277.2013
v -217.3974 280.1829 -278.0258
v -177.2328 280.1829 -278.0258
v -137.0682 280.1829 -280.278
v -137.0682 279.8812 -279.1519
v -137.0682 281.0074 -281.1023
v -137.0682 282.1335 -281.4041
v -137.0682 283.2597 -281.1023
v -137.0682 284.0839 -280.278
v -137.0682 284.3857 -279.1518
v -137.0682 284.0839 -278.0257
v -137.0682 283.2596 -277.2013
v -137.0682 282.1334 -276.8996
v -137.0682 281.0073 -277.2013
v -137.0682 280.1829 -278.0258
v -96.9036 280.1829 -280.278
v -96.9036 279.8812 -279.1519
v -96.9036 281.0074 -281.1023
v -96.9036 282.1335 -281.4041
v -96.9036 283.2597 -281.1023
v -96.9036 284.0839 -280.278
v -96.9036 284.3857 -279.1518
v -96.9036 284.0839 -278.0257
v -96.9036 283.2596 -277.2013
v -96.9036 282.1334 -276.8996
v -96.9036 281.0073 -277.2013
v -96.9036 280.1829 -278.0258
gi 0 0 0 0
gi 0 0 0 0
gi 0 0 0 0
gi 0 0 0 0
gi 0 0 0 0
gi 0 0 0 0
gi 0 0 0 0
gi 0 0 0 0
gi 0 0 0 0
gi 0 0 0 0
gi 0 0 0 0
gi 0 0 0 0
gi 0 0 0 0
gi 0 0 0 0
gi 0 0 0 0
gi 0 0 0 0
gi 0 0 0 0
gi 0 0 0 0
gi 0 0 0 0
gi 0 0 0 0
gi 0 0 0 0
gi 0 0 0 0
gi 0 0 0 0
gi 0 0 0 0
gi 0 0 0 0
gi 0 0 0 0
gi 0 0 0 0
gi 0 0 0 0
gi 0 0 0 0
gi 0 0 0 0
gi 0 0 0 0
gi 0 0 0 0
gi 0 0 0 0
gi 0 0 0 0
gi 0 0 0 0
gi 0 0 0 0
gi 0 0 0 0
gi 0 0 0 0
gi 0 0 0 0
gi 0 0 0 0
gi 0 0 0 0
gi 0 0 0 0
gi 0 0 0 0
gi 0 0 0 0
gi 0 0 0 0
gi 0 0 0 0
gi 0 0 0 0
gi 0 0 0 0
gi 0 0 0 0
gi 0 0 0 0
gi 0 0 0 0
gi 0 0 0 0
gi 0 0 0 0
gi 0 0 0 0
gi 0 0 0 0
gi 0 0 0 0
gi 0 0 0 0
gi 0 0 0 0
gi 0 0 0 0
gi 0 0 0 0
gi 0 0 0 0
gi 0 0 0 0
gi 0 0 0 0
gi 0 0 0 0
gi 0 0 0 0
gi 0 0 0 0
gi 0 0 0 0
gi 0 0 0 0
gi 0 0 0 0
gi 0 0 0 0
gi 0 0 0 0
gi 0 0 0 0
gi 0 0 0 0
gi 0 0 0 0
gi 0 0 0 0
gi 0 0 0 0
gi 0 0 0 0
gi 0 0 0 0
gi 0 0 0 0
gi 0 0 0 0
gi 0 0 0 0
gi 0 0 0 0
gi 0 0 0 0
gi 0 0 0 0
gi 0 0 0 0
gi 0 0 0 0
gi 0 0 0 0
gi 0 0 0 0
gi 0 0 0 0
gi 0 0 0 0
gi 0 0 0 0
gi 0 0 0 0
gi 0 0 0 0
gi 0 0 0 0
gi 0 0 0 0
gi 0 0 0 0
gi 0 0 0 0
gi 0 0 0 0
gi 0 0 0 0
gi 0 0 0 0
gi 0 0 0 0
gi 0 0 0 0
gi 0 0 0 0
gi 0 0 0 0
gi 0 0 0 0
gi 0 0 0 0
gi 0 0 0 0
gi 0 0 0 0
gw 0.0 0.0 0.0 0.0
gw 0.0 0.0 0.0 0.0
gw 0.0 0.0 0.0 0.0
gw 0.0 0.0 0.0 0.0
gw 0.0 0.0 0.0 0.0
gw 0.0 0.0 0.0 0.0
gw 0.0 0.0 0.0 0.0
gw 0.0 0.0 0.0 0.0
gw 0.0 0.0 0.0 0.0
gw 0.0 0.0 0.0 0.0
gw 0.0 0.0 0.0 0.0
gw 0.0 0.0 0.0 0.0
gw 0.0 0.0 0.0 0.0
gw 0.0 0.0 0.0 0.0
gw 0.0 0.0 0.0 0.0
gw 0.0 0.0 0.0 0.0
gw 0.0 0.0 0.0 0.0
gw 0.0 0.0 0.0 0.0
gw 0.0 0.0 0.0 0.0
gw 0.0 0.0 0.0 0.0
gw 0.0 0.0 0.0 0.0
gw 0.0 0.0 0.0 0.0
gw 0.0 0.0 0.0 0.0
gw 0.0 0.0 0.0 0.0
gw 0.0 0.0 0.0 0.0
gw 0.0 0.0 0.0 0.0
gw 0.0 0.0 0.0 0.0
gw 0.0 0.0 0.0 0.0
gw 0.0 0.0 0.0 0.0
gw 0.0 0.0 0.0 0.0
gw 0.0 0.0 0.0 0.0
gw 0.0 0.0 0.0 0.0
gw 0.0 0.0 0.0 0.0
gw 0.0 0.0 0.0 0.0
gw 0.0 0.0 0.0 0.0
gw 0.0 0.0 0.0 0.0
gw 0.0 0.0 0.0 0.0
gw 0.0 0.0 0.0 0.0
gw 0.0 0.0 0.0 0.0
gw 0.0 0.0 0.0 0.0
gw 0.0 0.0 0.0 0.0
gw 0.0 0.0 0.0 0.0
gw 0.0 0.0 0.0 0.0
gw 0.0 0.0 0.0 0.0
gw 0.0 0.0 0.0 0.0
gw 0.0 0.0 0.0 0.0
gw 0.0 0.0 0.0 0.0
gw 0.0 0.0 0.0 0.0
gw 0.0 0.0 0.0 0.0
gw 0.0 0.0 0.0 0.0
gw 0.0 0.0 0.0 0.0
gw 0.0 0.0 0.0 0.0
gw 0.0 0.0 0.0 0.0
gw 0.0 0.0 0.0 0.0
gw 0.0 0.0 0.0 0.0
gw 0.0 0.0 0.0 0.0
gw 0.0 0.0 0.0 0.0
gw 0.0 0.0 0.0 0.0
gw 0.0 0.0 0.0 0.0
gw 0.0 0.0 0.0 0.0
gw 0.0 0.0 0.0 0.0
gw 0.0 0.0 0.0 0.0
gw 0.0 0.0 0.0 0.0
gw 0.0 0.0 0.0 0.0
gw 0.0 0.0 0.0 0.0
gw 0.0 0.0 0.0 0.0
gw 0.0 0.0 0.0 0.0
gw 0.0 0.0 0.0 0.0
gw 0.0 0.0 0.0 0.0
gw 0.0 0.0 0.0 0.0
gw 0.0 0.0 0.0 0.0
gw 0.0 0.0 0.0 0.0
gw 0.0 0.0 0.0 0.0
gw 0.0 0.0 0.0 0.0
gw 0.0 0.0 0.0 0.0
gw 0.0 0.0 0.0 0.0
gw 0.0 0.0 0.0 0.0
gw 0.0 0.0 0.0 0.0
gw 0.0 0.0 0.0 0.0
gw 0.0 0.0 0.0 0.0
gw 0.0 0.0 0.0 0.0
gw 0.0 0.0 0.0 0.0
gw 0.0 0.0 0.0 0.0
gw 0.0 0.0 0.0 0.0
gw 0.0 0.0 0.0 0.0
gw 0.0 0.0 0.0 0.0
gw 0.0 0.0 0.0 0.0
gw 0.0 0.0 0.0 0.0
gw 0.0 0.0 0.0 0.0
gw 0.0 0.0 0.0 0.0
gw 0.0 0.0 0.0 0.0
gw 0.0 0.0 0.0 0.0
gw 0.0 0.0 0.0 0.0
gw 0.0 0.0 0.0 0.0
gw 0.0 0.0 0.0 0.0
gw 0.0 0.0 0.0 0.0
gw 0.0 0.0 0.0 0.0
gw 0.0 0.0 0.0 0.0
gw 0.0 0.0 0.0 0.0
gw 0.0 0.0 0.0 0.0
gw 0.0 0.0 0.0 0.0
gw 0.0 0.0 0.0 0.0
gw 0.0 0.0 0.0 0.0
gw 0.0 0.0 0.0 0.0
gw 0.0 0.0 0.0 0.0
gw 0.0 0.0 0.0 0.0
gw 0.0 0.0 0.0 0.0
gw 0.0 0.0 0.0 0.0
vt 0.9876 0.5241
vt 0.9633 0.5241
vt 0.9633 0.0053
vt 0.9876 0.0053
vt 0.9391 0.5241
vt 0.9391 0.0053
vt 0.9148 0.5241
vt 0.9148 0.0053
vt 0.8906 0.5241
vt 0.8906 0.0053
vt 0.8663 0.5241
vt 0.8663 0.0053
vt 0.8421 0.5241
vt 0.8421 0.0053
vt 0.8178 0.5241
vt 0.8178 0.0053
vt 0.7936 0.5241
vt 0.7936 0.0053
vt 0.7694 0.5241
vt 0.7694 0.0053
vt 0.7451 0.5241
vt 0.7451 0.0053
vt 0.7209 0.5241
vt 0.7209 0.0053
vt 0.6966 0.5241
vt 0.6966 0.0053
vt 0.9876 0.4502
vt 0.9633 0.4502
vt 0.9391 0.4502
vt 0.9148 0.4502
vt 0.8906 0.4502
vt 0.8663 0.4502
vt 0.8421 0.4502
vt 0.8178 0.4502
vt 0.7936 0.4502
vt 0.7694 0.4502
vt 0.7451 0.4502
vt 0.7209 0.4502
vt 0.6966 0.4502
vn 0.0 -1.0 0.0
vn 0.0 -0.866 -0.5
vn 0.0 -0.866 -0.5
vn 0.0 -1.0 0.0
vn 0.0 -0.5 -0.866
vn 0.0 -0.5 -0.866
vn 0.0 -0.0 -1.0
vn 0.0 -0.0 -1.0
vn 0.0 0.5 -0.866
vn 0.0 0.5 -0.866
vn 0.0 0.866 -0.5
vn 0.0 0.866 -0.5
vn 0.0 1.0 0.0
vn 0.0 1.0 -0.0
vn 0.0 0.866 0.5
vn 0.0 0.866 0.5
vn 0.0 0.5 0.866
vn 0.0 0.5 0.866
vn 0.0 -0.0 1.0
vn 0.0 -0.0 1.0
vn 0.0 -0.5 0.866
vn 0.0 -0.5 0.866
vn 0.0 -0.866 0.5
vn 0.0 -0.866 0.5
vn 0.0 -1.0 0.0
vn 0.0 -0.866 -0.5
vn 0.0 -0.5 -0.866
vn 0.0 -0.0 -1.0
vn 0.0 0.5001 -0.866
vn 0.0 0.866 -0.5
vn 0.0 1.0 0.0
vn 0.0 0.866 0.5
vn 0.0 0.5 0.866
vn 0.0 -0.0 1.0
vn 0.0 -0.5 0.866
vn 0.0 -0.866 0.5
vn 0.0 -1.0 -0.0
vn 0.0 -0.866 -0.5
vn 0.0 -0.5 -0.866
vn 0.0 -0.0 -1.0
vn 0.0 0.866 -0.5
vn 0.0 1.0 0.0
vn 0.0 0.866 0.5
vn 0.0 0.5 0.866
vn 0.0 -0.0 1.0
vn 0.0 -0.5 0.866
vn 0.0 -0.866 0.5
vn 0.0 -1.0 0.0
vn 0.0 -0.866 -0.5
vn 0.0 -0.5 -0.866
vn 0.0 -0.0 -1.0
vn 0.0 0.5001 -0.866
vn 0.0 0.866 -0.5
vn 0.0 1.0 0.0
vn 0.0 0.866 0.5
vn 0.0 0.5 0.866
vn 0.0 -0.0 1.0
vn 0.0 -0.5 0.866
vn 0.0 -0.866 0.5
vn 0.0 -0.866 -0.5
vn 0.0 -0.866 -0.5
vn 0.0 -1.0 0.0
vn 0.0 -1.0 0.0
vn 0.0 -0.5 -0.866
vn 0.0 -0.5 -0.866
vn 0.0 -0.0 -1.0
vn 0.0 -0.0 -1.0
vn 0.0 0.5 -0.866
vn 0.0 0.5 -0.866
vn 0.0 0.866 -0.5
vn 0.0 0.866 -0.5
vn 0.0 1.0 -0.0
vn 0.0 1.0 0.0
vn 0.0 0.866 0.5
vn 0.0 0.5 0.866
vn 0.0 0.5 0.866
vn 0.0 -0.0 1.0
vn 0.0 -0.0 1.0
vn 0.0 -0.5 0.866
vn 0.0 -0.5 0.866
vn 0.0 -0.866 0.5
vn 0.0 -0.866 0.5
vn 0.0 -0.866 -0.5
vn 0.0 -1.0 0.0
vn 0.0 -0.0 -1.0
vn 0.0 0.5 -0.866
vn 0.0 0.866 -0.5
vn 0.0 1.0 0.0
vn 0.0 0.866 0.5
vn 0.0 -0.0 1.0
vn 0.0 -0.5 0.866
vn 0.0 -0.866 0.5
vn 0.0 -1.0 -0.0
vn 0.0 -0.0 -1.0
vn 0.0 0.866 -0.5
vn 0.0 1.0 0.0
vn 0.0 0.866 0.5
vn 0.0 0.5 0.866
vn 0.0 -0.0 1.0
vn 0.0 -0.5 0.866
vn 0.0 -0.866 0.5
vtan 0.0 0.0 1.0
vtan 0.0 -0.5 0.866
vtan 0.0 -0.5 0.866
vtan 0.0 0.0 1.0
vtan 0.0 -0.866 0.5
vtan 0.0 -0.866 0.5
vtan 0.0 -1.0 0.0
vtan 0.0 -1.0 0.0
vtan 0.0 -0.866 -0.5
vtan 0.0 -0.866 -0.5
vtan 0.0 -0.5 -0.866
vtan 0.0 -0.5 -0.866
vtan 0.0 0.0 -1.0
vtan 0.0 -0.0 -1.0
vtan 0.0 0.5 -0.866
vtan 0.0 0.5 -0.866
vtan 0.0 0.866 -0.5
vtan 0.0 0.866 -0.5
vtan 0.0 1.0 0.0
vtan 0.0 1.0 0.0
vtan 0.0 0.866 0.5
vtan 0.0 0.866 0.5
vtan 0.0 0.5 0.866
vtan 0.0 0.5 0.866
vtan 0.0 0.0 1.0
vtan 0.0 0.0 1.0
vtan 0.0 0.0 1.0
vtan 0.0 -0.5 0.866
vtan 0.0 -0.866 0.5
vtan 0.0 -1.0 0.0
vtan 0.0 -0.866 -0.5001
vtan 0.0 -0.5 -0.866
vtan 0.0 -0.5 -0.866
vtan 0.0 0.0 -1.0
vtan 0.0 0.5 -0.866
vtan 0.0 0.5 -0.866
vtan 0.0 0.866 -0.5
vtan 0.0 1.0 0.0
vtan 0.0 0.866 0.5
vtan 0.0 0.5 0.866
vtan 0.0 0.0 1.0
vtan 0.0 -0.0 1.0
vtan 0.0 -0.5 0.866
vtan 0.0 -0.866 0.5
vtan 0.0 -1.0 0.0
vtan 0.0 -0.5 -0.866
vtan 0.0 -0.5 -0.866
vtan 0.0 0.0 -1.0
vtan 0.0 0.5 -0.866
vtan 0.0 0.5 -0.866
vtan 0.0 0.866 -0.5
vtan 0.0 1.0 0.0
vtan 0.0 0.866 0.5
vtan 0.0 0.866 0.5
vtan 0.0 0.5 0.866
vtan 0.0 0.5 0.866
vtan 0.0 -0.0 1.0
vtan 0.0 0.0 1.0
vtan 0.0 -0.5 0.866
vtan 0.0 -0.866 0.5
vtan 0.0 -1.0 0.0
vtan 0.0 -1.0 0.0
vtan 0.0 -0.866 -0.5001
vtan 0.0 -0.866 -0.5
vtan 0.0 -0.5 -0.866
vtan 0.0 -0.5 -0.866
vtan 0.0 0.0 -1.0
vtan 0.0 0.5 -0.866
vtan 0.0 0.866 -0.5
vtan 0.0 1.0 0.0
vtan 0.0 1.0 0.0
vtan 0.0 0.866 0.5
vtan 0.0 0.5 0.866
vtan 0.0 0.5 0.866
vtan 0.0 0.0 1.0
vtan 0.0 -0.0 1.0
vtan 0.0 -0.5 0.866
vtan 0.0 -0.5 0.866
vtan 0.0 0.0 1.0
vtan 0.0 -0.866 0.5
vtan 0.0 -0.866 0.5
vtan 0.0 -1.0 0.0
vtan 0.0 -0.866 -0.5
vtan 0.0 -0.866 -0.5001
vtan 0.0 -0.5 -0.866
vtan 0.0 0.0 -1.0
vtan 0.0 0.5 -0.866
vtan 0.0 0.866 -0.5
vtan 0.0 0.866 -0.5
vtan 0.0 1.0 0.0
vtan 0.0 1.0 0.0
vtan 0.0 0.866 0.5
vtan 0.0 0.866 0.5
vtan 0.0 0.5 0.866
vtan 0.0 0.5 0.866
vtan 0.0 0.0 1.0
vtan 0.0 -0.5 0.866
vtan 0.0 0.0 1.0
vtan 0.0 -1.0 0.0
vtan 0.0 -0.866 -0.5
vtan 0.0 -0.5 -0.866
vtan 0.0 -0.5 -0.866
vtan 0.0 0.0 -1.0
vtan 0.0 0.5 -0.866
vtan 0.0 0.866 -0.5
vtan 0.0 1.0 0.0
vtan 0.0 0.866 0.5
vtan 0.0 0.866 0.5
vtan 0.0 0.5 0.866
vtan 0.0 0.0 1.0
vtan 0.0 0.0 1.0
vtan 0.0 -1.0 0.0
vtan 0.0 -0.5 -0.866
vtan 0.0 0.0 -1.0
vtan 0.0 0.5 -0.866
vtan 0.0 1.0 0.0
vtan 0.0 0.866 0.5
vtan 0.0 0.866 0.5
vtan 0.0 0.5 0.866
vtan 0.0 0.0 1.0
vtan 0.0 -1.0 0.0
vtan 0.0 0.5 -0.866
vtan 0.0 1.0 0.0
f 0/0/0/0 1/1/1/1 2/2/2/2 
f 0/0/0/0 2/2/2/2 3/3/3/3 
f 1/1/1/1 4/4/4/4 5/5/5/5 
f 1/1/1/1 5/5/5/5 2/2/2/2 
f 4/4/4/4 6/6/6/6 7/7/7/7 
f 4/4/4/4 7/7/7/7 5/5/5/5 
f 6/6/6/6 8/8/8/8 9/9/9/9 
f 6/6/6/6 9/9/9/9 7/7/7/7 
f 8/8/8/8 10/10/10/10 11/11/11/11 
f 8/8/8/8 11/11/11/11 9/9/9/9 
f 10/10/10/10 12/12/12/12 13/13/13/13 
f 10/10/10/10 13/13/13/13 11/11/11/11 
f 12/12/12/12 14/14/14/14 15/15/15/15 
f 12/12/12/12 15/15/15/15 13/13/13/13 
f 14/14/14/14 16/16/16/16 17/17/17/17 
f 14/14/14/14 17/17/17/17 15/15/15/15 
f 16/16/16/16 18/18/18/18 19/19/19/19 
f 16/16/16/16 19/19/19/19 17/17/17/17 
f 18/18/18/18 20/20/20/20 21/21/21/21 
f 18/18/18/18 21/21/21/21 19/19/19/19 
f 20/20/20/20 22/22/22/22 23/23/23/23 
f 20/20/20/20 23/23/23/23 21/21/21/21 
f 22/22/22/22 0/24/0/24 3/25/3/25 
f 22/22/22/22 3/25/3/25 23/23/23/23 
f 1/2/1/1 0/3/0/0 24/0/24/26 
f 1/2/1/1 24/0/24/26 25/1/25/27 
f 25/1/25/27 26/4/26/28 4/5/4/4 
f 25/1/25/27 4/5/4/4 1/2/1/1 
f 26/4/26/28 27/6/27/29 6/7/6/6 
f 26/4/26/28 6/7/6/6 4/5/4/4 
f 27/6/27/29 28/8/28/30 8/9/8/8 
f 27/6/27/29 8/9/8/8 6/7/6/6 
f 28/8/28/30 29/10/29/31 10/11/10/32 
f 28/8/28/30 10/11/10/32 8/9/8/8 
f 29/10/29/31 30/12/30/33 12/13/12/12 
f 29/10/29/31 12/13/12/12 10/11/10/32 
f 30/12/30/33 31/14/31/34 14/15/14/35 
f 30/12/30/33 14/15/14/35 12/13/12/12 
f 31/14/31/34 32/16/32/36 16/17/16/16 
f 31/14/31/34 16/17/16/16 14/15/14/35 
f 32/16/32/36 33/18/33/37 18/19/18/18 
f 32/16/32/36 18/19/18/18 16/17/16/16 
f 33/18/33/37 34/20/34/38 20/21/20/20 
f 33/18/33/37 20/21/20/20 18/19/18/18 
f 34/20/34/38 35/22/35/39 22/23/22/22 
f 34/20/34/38 22/23/22/22 20/21/20/20 
f 0/25/0/24 22/23/22/22 35/22/35/39 
f 0/25/0/24 35/22/35/39 24/24/24/40 
f 36/0/36/41 37/1/37/42 25/2/25/27 
f 36/0/36/41 25/2/25/27 24/3/24/26 
f 37/1/37/42 38/4/38/43 26/5/26/28 
f 37/1/37/42 26/5/26/28 25/2/25/27 
f 38/4/38/43 39/6/39/44 27/7/27/29 
f 38/4/38/43 27/7/27/29 26/5/26/28 
f 39/6/39/44 40/8/8/8 28/9/28/30 
f 39/6/39/44 28/9/28/30 27/7/27/29 
f 40/8/8/8 41/10/40/45 29/11/29/46 
f 40/8/8/8 29/11/29/46 28/9/28/30 
f 41/10/40/45 42/12/41/47 30/13/30/33 
f 41/10/40/45 30/13/30/33 29/11/29/46 
f 42/12/41/47 43/14/42/48 31/15/31/49 
f 42/12/41/47 31/15/31/49 30/13/30/33 
f 43/14/42/48 44/16/43/50 32/17/32/36 
f 43/14/42/48 32/17/32/36 31/15/31/49 
f 44/16/43/50 45/18/44/51 33/19/33/37 
f 44/16/43/50 33/19/33/37 32/17/32/36 
f 45/18/44/51 46/20/45/52 34/21/34/53 
f 45/18/44/51 34/21/34/53 33/19/33/37 
f 46/20/45/52 47/22/46/54 35/23/35/55 
f 46/20/45/52 35/23/35/55 34/21/34/53 
f 47/22/46/54 36/24/36/56 24/25/24/40 
f 47/22/46/54 24/25/24/40 35/23/35/55 
f 48/26/47/57 49/27/48/58 37/2/37/42 
f 48/26/47/57 37/2/37/42 36/3/36/41 
f 49/27/48/58 50/28/49/59 38/5/38/43 
f 49/27/48/58 38/5/38/43 37/2/37/42 
f 50/28/49/59 51/29/50/60 39/7/39/61 
f 50/28/49/59 39/7/39/61 38/5/38/43 
f 51/29/50/60 52/30/51/62 40/9/8/63 
f 51/29/50/60 40/9/8/63 39/7/39/61 
f 52/30/51/62 53/31/52/64 41/11/40/65 
f 52/30/51/62 41/11/40/65 40/9/8/63 
f 53/31/52/64 54/32/53/66 42/13/41/47 
f 53/31/52/64 42/13/41/47 41/11/40/65 
f 54/32/53/66 55/33/54/67 43/15/42/48 
f 54/32/53/66 43/15/42/48 42/13/41/47 
f 55/33/54/67 56/34/55/68 44/17/43/50 
f 55/33/54/67 44/17/43/50 43/15/42/48 
f 56/34/55/68 57/35/56/69 45/19/44/70 
f 56/34/55/68 45/19/44/70 44/17/43/50 
f 57/35/56/69 58/36/57/71 46/21/45/52 
f 57/35/56/69 46/21/45/52 45/19/44/70 
f 58/36/57/71 59/37/58/72 47/23/46/73 
f 58/36/57/71 47/23/46/73 46/21/45/52 
f 59/37/58/72 48/38/47/74 36/25/36/75 
f 59/37/58/72 36/25/36/75 47/23/46/73 
f 60/2/59/76 61/1/60/77 62/0/61/26 
f 60/2/59/76 62/0/61/26 63/3/62/78 
f 64/5/63/79 65/4/64/80 61/1/60/77 
f 64/5/63/79 61/1/60/77 60/2/59/76 
f 66/7/65/81 67/6/66/6 65/4/64/80 
f 66/7/65/81 65/4/64/80 64/5/63/79 
f 68/9/67/82 69/8/68/83 67/6/66/6 
f 68/9/67/82 67/6/66/6 66/7/65/81 
f 70/11/69/84 71/10/70/10 69/8/68/83 
f 70/11/69/84 69/8/68/83 68/9/67/82 
f 72/13/71/13 73/12/72/85 71/10/70/10 
f 72/13/71/13 71/10/70/10 70/11/69/84 
f 74/15/73/86 75/14/42/48 73/12/72/85 
f 74/15/73/86 73/12/72/85 72/13/71/13 
f 76/17/74/87 77/16/75/88 75/14/42/48 
f 76/17/74/87 75/14/42/48 74/15/73/86 
f 78/19/76/89 79/18/77/90 77/16/75/88 
f 78/19/76/89 77/16/75/88 76/17/74/87 
f 80/21/78/91 81/20/79/92 79/18/77/90 
f 80/21/78/91 79/18/77/90 78/19/76/89 
f 82/23/80/93 83/22/81/94 81/20/79/92 
f 82/23/80/93 81/20/79/92 80/21/78/91 
f 63/25/62/95 62/24/61/40 83/22/81/94 
f 63/25/62/95 83/22/81/94 82/23/80/93 
f 61/2/60/77 84/1/82/96 85/0/83/97 
f 61/2/60/77 85/0/83/97 62/3/61/26 
f 65/5/64/80 86/4/26/28 84/1/82/96 
f 65/5/64/80 84/1/82/96 61/2/60/77 
f 67/7/66/6 87/6/84/98 86/4/26/28 
f 67/7/66/6 86/4/26/28 65/5/64/80 
f 69/9/68/83 88/8/85/99 87/6/84/98 
f 69/9/68/83 87/6/84/98 67/7/66/6 
f 71/11/70/100 89/10/86/101 88/8/85/99 
f 71/11/70/100 88/8/85/99 69/9/68/83 
f 73/13/72/85 90/12/87/102 89/10/86/101 
f 73/13/72/85 89/10/86/101 71/11/70/100 
f 75/15/42/48 91/14/88/103 90/12/87/102 
f 75/15/42/48 90/12/87/102 73/13/72/85 
f 77/17/75/88 92/16/32/104 91/14/88/103 
f 77/17/75/88 91/14/88/103 75/15/42/48 
f 79/19/77/90 93/18/89/105 92/16/32/104 
f 79/19/77/90 92/16/32/104 77/17/75/88 
f 81/21/79/106 94/20/90/107 93/18/89/105 
f 81/21/79/106 93/18/89/105 79/19/77/90 
f 83/23/81/94 95/22/91/108 94/20/90/107 
f 83/23/81/94 94/20/90/107 81/21/79/106 
f 62/25/61/109 85/24/83/110 95/22/91/108 
f 62/25/61/109 95/22/91/108 83/23/81/94 
f 84/2/82/96 96/1/37/42 97/0/92/41 
f 84/2/82/96 97/0/92/41 85/3/83/97 
f 86/5/26/28 98/4/38/43 96/1/37/42 
f 86/5/26/28 96/1/37/42 84/2/82/96 
f 87/7/84/98 99/6/93/111 98/4/38/43 
f 87/7/84/98 98/4/38/43 86/5/26/28 
f 88/9/85/99 100/8/8/8 99/6/93/111 
f 88/9/85/99 99/6/93/111 87/7/84/98 
f 89/11/86/101 101/10/94/112 100/8/8/8 
f 89/11/86/101 100/8/8/8 88/9/85/99 
f 90/13/87/102 102/12/95/113 101/10/94/112 
f 90/13/87/102 101/10/94/112 89/11/86/101 
f 91/15/88/103 103/14/96/114 102/12/95/113 
f 91/15/88/103 102/12/95/113 90/13/87/102 
f 92/17/32/36 104/16/97/50 103/14/96/114 
f 92/17/32/36 103/14/96/114 91/15/88/103 
f 93/19/89/105 105/18/98/115 104/16/97/50 
f 93/19/89/105 104/16/97/50 92/17/32/36 
f 94/21/90/116 106/20/99/117 105/18/98/115 
f 94/21/90/116 105/18/98/115 93/19/89/105 
f 95/23/91/108 107/22/100/118 106/20/99/117 
f 95/23/91/108 106/20/99/117 94/21/90/116 
f 85/25/83/119 97/24/92/56 107/22/100/118 
f 85/25/83/119 107/22/100/118 95/23/91/108 
f 96/2/37/42 49/27/48/58 48/26/47/57 
f 96/2/37/42 48/26/47/57 97/3/92/41 
f 98/5/38/43 50/28/49/59 49/27/48/58 
f 98/5/38/43 49/27/48/58 96/2/37/42 
f 99/7/93/120 51/29/50/60 50/28/49/59 
f 99/7/93/120 50/28/49/59 98/5/38/43 
f 100/9/8/63 52/30/51/62 51/29/50/60 
f 100/9/8/63 51/29/50/60 99/7/93/120 
f 101/11/94/112 53/31/52/64 52/30/51/62 
f 101/11/94/112 52/30/51/62 100/9/8/63 
f 102/13/95/113 54/32/53/66 53/31/52/64 
f 102/13/95/113 53/31/52/64 101/11/94/112 
f 103/15/96/121 55/33/54/67 54/32/53/66 
f 103/15/96/121 54/32/53/66 102/13/95/113 
f 104/17/97/50 56/34/55/68 55/33/54/67 
f 104/17/97/50 55/33/54/67 103/15/96/121 
f 105/19/98/122 57/35/56/69 56/34/55/68 
f 105/19/98/122 56/34/55/68 104/17/97/50 
f 106/21/99/117 58/36/57/71 57/35/56/69 
f 106/21/99/117 57/35/56/69 105/19/98/122 
f 107/23/100/118 59/37/58/72 58/36/57/71 
f 107/23/100/118 58/36/57/71 106/21/99/117 
f 97/25/92/75 48/38/47/74 59/37/58/72 
f 97/25/92/75 59/37/58/72 107/23/100/118 
