v -643.4435 134.3402 141.555
v -619.3361 213.6973 141.555
v -618.7332 213.5141 145.1284
v -642.8406 134.157 145.1284
gi 0 0 0 0
gi 0 0 0 0
gi 0 0 0 0
gi 0 0 0 0
gw 0.0 0.0 0.0 0.0
gw 0.0 0.0 0.0 0.0
gw 0.0 0.0 0.0 0.0
gw 0.0 0.0 0.0 0.0
vt 0.677 0.0
vt 0.677 3.0982
vt 0.1467 3.0982
vt 0.1467 0.0
vn 0.9423 -0.2863 -0.1737
vn 0.9423 -0.2863 -0.1737
vn 0.9423 -0.2863 -0.1737
vn 0.9423 -0.2863 -0.1737
vtan -0.1662 0.0505 -0.9848
vtan -0.1662 0.0505 -0.9848
vtan -0.1662 0.0505 -0.9848
vtan -0.1662 0.0505 -0.9848
f 0/0/0/0 1/1/1/1 2/2/2/2 
f 0/0/0/0 2/2/2/2 3/3/3/3 
