v 131.4528 839.1407 183.9077
v 131.1177 841.6416 183.9077
v 131.7563 841.8127 186.3443
v 132.1143 839.1407 186.3443
v 130.1575 843.975 183.9077
v 130.7303 844.3058 186.3443
v 128.6168 845.9733 183.9077
v 129.0843 846.4408 186.3443
v 126.6185 847.5139 183.9077
v 126.9493 848.0869 186.3443
v 124.2853 848.4742 183.9077
v 124.4564 849.1128 186.3443
v 121.7845 848.8092 183.9077
v 121.7845 849.4707 186.3443
v 119.2836 848.4741 183.9077
v 119.1125 849.1127 186.3443
v 116.9503 847.5139 183.9077
v 116.6195 848.0867 186.3443
v 114.9519 845.9732 183.9077
v 114.4844 846.4407 186.3443
v 113.4113 843.9749 183.9077
v 112.8384 844.3057 186.3443
v 112.4511 841.6416 183.9077
v 111.8125 841.8127 186.3443
v 112.1161 839.1408 183.9077
v 111.4545 839.1408 186.3443
v 112.4511 836.64 183.9077
v 111.8125 836.4689 186.3443
v 113.4114 834.3066 183.9077
v 112.8385 833.9759 186.3443
v 114.952 832.3083 183.9077
v 114.4845 831.8409 186.3443
v 116.9502 830.7678 183.9077
v 116.6194 830.1949 186.3443
v 119.2835 829.8075 183.9077
v 119.1124 829.1689 186.3443
v 121.7843 829.4725 183.9077
v 121.7843 828.8109 186.3443
v 124.2853 829.8076 183.9077
v 124.4564 829.1689 186.3443
v 126.6187 830.7678 183.9077
v 126.9494 830.1949 186.3443
v 128.6169 832.3084 183.9077
v 129.0844 831.8409 186.3443
v 130.1575 834.3066 183.9077
v 130.7304 833.9758 186.3443
v 131.1177 836.6399 183.9077
v 131.7563 836.4688 186.3443
v 126.5185 841.874 180.3424
v 127.0614 840.5548 180.3424
v 126.6053 840.4326 179.4046
v 126.1093 841.6378 179.4046
v 125.6771 840.1838 178.9472
v 125.2766 841.157 178.9472
v 125.8168 839.1408 178.9472
v 126.7784 839.1408 179.4046
v 124.5176 843.8749 180.3424
v 125.6475 843.0038 180.3424
v 125.3136 842.67 179.4046
v 124.2814 843.4657 179.4046
v 124.6341 841.9905 178.9472
v 123.8006 842.633 178.9472
v 121.7844 844.6073 180.3424
v 123.1984 844.4178 180.3424
v 123.0762 843.9617 179.4046
v 121.7844 844.1348 179.4046
v 122.8275 843.0335 178.9472
v 121.7844 843.1732 178.9472
v 119.0512 843.8749 180.3424
v 120.3705 844.4178 180.3424
v 120.4927 843.9617 179.4046
v 119.2874 843.4657 179.4046
v 120.7414 843.0335 178.9472
v 119.7682 842.633 178.9472
v 117.0503 841.874 180.3424
v 117.9214 843.0038 180.3424
v 118.2553 842.67 179.4046
v 117.4595 841.6378 179.4046
v 118.9348 841.9905 178.9472
v 118.2922 841.157 178.9472
v 116.318 839.1408 180.3424
v 116.5074 840.5548 180.3424
v 116.9635 840.4326 179.4046
v 116.7905 839.1408 179.4046
v 117.8918 840.1838 178.9472
v 117.752 839.1408 178.9472
v 117.0503 836.4076 180.3424
v 116.5074 837.7269 180.3424
v 116.9635 837.8491 179.4046
v 117.4595 836.6439 179.4046
v 117.8918 838.0978 178.9472
v 118.2922 837.1246 178.9472
v 119.0512 834.4067 180.3424
v 117.9214 835.2778 180.3424
v 118.2553 835.6117 179.4046
v 119.2874 834.8159 179.4046
v 118.9348 836.2912 178.9472
v 119.7682 835.6486 178.9472
v 121.7844 833.6744 180.3424
v 120.3705 833.8638 180.3424
v 120.4927 834.3199 179.4046
v 121.7844 834.1469 179.4046
v 120.7414 835.2482 178.9472
v 121.7844 835.1084 178.9472
v 124.5176 834.4067 180.3424
v 123.1984 833.8638 180.3424
v 123.0762 834.3199 179.4046
v 124.2814 834.8159 179.4046
v 122.8275 835.2482 178.9472
v 123.8006 835.6486 178.9472
v 126.5185 836.4076 180.3424
v 125.6475 835.2778 180.3424
v 125.3136 835.6117 179.4046
v 126.1093 836.6439 179.4046
v 124.6341 836.2912 178.9472
v 125.2766 837.1246 178.9472
v 127.2509 839.1408 180.3424
v 127.0614 837.7269 180.3424
v 126.6053 837.8491 179.4046
v 125.6771 838.0978 178.9472
v 127.4899 840.6696 182.2892
v 126.9029 842.0959 182.2892
v 127.6947 839.1408 182.2892
v 125.9611 843.3175 182.2892
v 124.7396 844.2593 182.2892
v 123.3132 844.8463 182.2892
v 121.7844 845.0511 182.2892
v 120.2556 844.8463 182.2892
v 118.8293 844.2593 182.2892
v 117.6077 843.3175 182.2892
v 116.666 842.0959 182.2892
v 116.079 840.6696 182.2892
v 115.8741 839.1408 182.2892
v 116.079 837.6121 182.2892
v 116.666 836.1857 182.2892
v 117.6077 834.9641 182.2892
v 118.8293 834.0224 182.2892
v 120.2556 833.4354 182.2892
v 121.7844 833.2305 182.2892
v 123.3132 833.4354 182.2892
v 124.7396 834.0224 182.2892
v 125.9611 834.9641 182.2892
v 126.9029 836.1857 182.2892
v 127.4899 837.6121 182.2892
v 128.8375 843.2129 183.1874
v 129.6464 841.2474 183.1874
v 128.0707 840.8252 182.8691
v 127.4239 842.3968 182.8691
v 129.9286 839.1407 183.1874
v 128.2964 839.1408 182.8691
v 129.6464 837.0342 183.1874
v 128.0707 837.4564 182.8691
v 128.8375 835.0687 183.1874
v 127.4239 835.8848 182.8691
v 127.5398 833.3855 183.1874
v 126.3863 834.5389 182.8691
v 125.8566 832.0878 183.1874
v 125.0404 833.5013 182.8691
v 123.891 831.2789 183.1874
v 123.4688 832.8546 182.8691
v 121.7844 830.9966 183.1874
v 121.7844 832.6289 182.8691
v 119.6778 831.2789 183.1874
v 120.1 832.8546 182.8691
v 117.7123 832.0877 183.1874
v 118.5284 833.5013 182.8691
v 116.0291 833.3854 183.1874
v 117.1826 834.5389 182.8691
v 114.7313 835.0687 183.1874
v 116.1449 835.8848 182.8691
v 113.9225 837.0342 183.1874
v 115.4982 837.4564 182.8691
v 113.6402 839.1408 183.1874
v 115.2725 839.1408 182.8691
v 113.9224 841.2474 183.1874
v 115.4982 840.8252 182.8691
v 114.7313 843.2129 183.1874
v 116.1449 842.3968 182.8691
v 116.0291 844.8961 183.1874
v 117.1826 843.7427 182.8691
v 117.7123 846.1939 183.1874
v 118.5285 844.7803 182.8691
v 119.6779 847.0028 183.1874
v 120.1 845.4271 182.8691
v 121.7845 847.285 183.1874
v 121.7845 845.6528 182.8691
v 123.891 847.0028 183.1874
v 123.4688 845.4271 182.8691
v 125.8565 846.1939 183.1874
v 125.0404 844.7803 182.8691
v 127.5398 844.8962 183.1874
v 126.3863 843.7427 182.8691
v 125.2911 839.1408 181.1159
v 125.1696 840.0479 181.1159
v 124.8213 840.8942 181.1159
v 124.2625 841.6189 181.1159
v 123.5378 842.1777 181.1159
v 122.6915 842.5259 181.1159
v 121.7844 842.6475 181.1159
v 120.8774 842.5259 181.1159
v 120.0311 842.1777 181.1159
v 119.3063 841.6189 181.1159
v 118.7476 840.8942 181.1159
v 118.3993 840.0479 181.1159
v 118.2778 839.1408 181.1159
v 118.3993 838.2338 181.1159
v 118.7476 837.3875 181.1159
v 119.3063 836.6627 181.1159
v 120.0311 836.1039 181.1159
v 120.8774 835.7557 181.1159
v 121.7844 835.6342 181.1159
v 122.6915 835.7557 181.1159
v 123.5378 836.1039 181.1159
v 124.2625 836.6627 181.1159
v 124.8213 837.3875 181.1159
v 125.1696 838.2338 181.1159
v 121.7844 839.1408 181.3662
v 130.8228 841.5626 183.7435
v 129.8929 843.8222 183.7435
v 130.8228 836.7189 183.7435
v 131.1472 839.1407 183.7435
v 128.401 832.5243 183.7435
v 129.8929 834.4594 183.7435
v 124.2062 830.1025 183.7435
v 126.4659 831.0324 183.7435
v 119.3625 830.1025 183.7435
v 121.7843 829.778 183.7435
v 115.1679 832.5243 183.7435
v 117.103 831.0323 183.7435
v 112.7461 836.719 183.7435
v 113.676 834.4594 183.7435
v 112.746 841.5626 183.7435
v 112.4216 839.1408 183.7435
v 115.1678 845.7573 183.7435
v 113.6759 843.8221 183.7435
v 119.3627 848.1792 183.7435
v 117.103 847.2493 183.7435
v 124.2062 848.1792 183.7435
v 121.7845 848.5037 183.7435
v 128.4009 845.7574 183.7435
v 126.4658 847.2493 183.7435
gi 0 0 0 0
gw 0.0 0.0 0.0 0.0
gi 0 0 0 0
gw 0.0 0.0 0.0 0.0
gi 0 0 0 0
gw 0.0 0.0 0.0 0.0
gi 0 0 0 0
gw 0.0 0.0 0.0 0.0
gi 0 0 0 0
gw 0.0 0.0 0.0 0.0
gi 0 0 0 0
gw 0.0 0.0 0.0 0.0
gi 0 0 0 0
gw 0.0 0.0 0.0 0.0
gi 0 0 0 0
gw 0.0 0.0 0.0 0.0
gi 0 0 0 0
gw 0.0 0.0 0.0 0.0
gi 0 0 0 0
gw 0.0 0.0 0.0 0.0
gi 0 0 0 0
gw 0.0 0.0 0.0 0.0
gi 0 0 0 0
gw 0.0 0.0 0.0 0.0
gi 0 0 0 0
gw 0.0 0.0 0.0 0.0
gi 0 0 0 0
gw 0.0 0.0 0.0 0.0
gi 0 0 0 0
gw 0.0 0.0 0.0 0.0
gi 0 0 0 0
gw 0.0 0.0 0.0 0.0
gi 0 0 0 0
gw 0.0 0.0 0.0 0.0
gi 0 0 0 0
gw 0.0 0.0 0.0 0.0
gi 0 0 0 0
gw 0.0 0.0 0.0 0.0
gi 0 0 0 0
gw 0.0 0.0 0.0 0.0
gi 0 0 0 0
gw 0.0 0.0 0.0 0.0
gi 0 0 0 0
gw 0.0 0.0 0.0 0.0
gi 0 0 0 0
gw 0.0 0.0 0.0 0.0
gi 0 0 0 0
gw 0.0 0.0 0.0 0.0
gi 0 0 0 0
gw 0.0 0.0 0.0 0.0
gi 0 0 0 0
gw 0.0 0.0 0.0 0.0
gi 0 0 0 0
gw 0.0 0.0 0.0 0.0
gi 0 0 0 0
gw 0.0 0.0 0.0 0.0
gi 0 0 0 0
gw 0.0 0.0 0.0 0.0
gi 0 0 0 0
gw 0.0 0.0 0.0 0.0
gi 0 0 0 0
gw 0.0 0.0 0.0 0.0
gi 0 0 0 0
gw 0.0 0.0 0.0 0.0
gi 0 0 0 0
gw 0.0 0.0 0.0 0.0
gi 0 0 0 0
gw 0.0 0.0 0.0 0.0
gi 0 0 0 0
gw 0.0 0.0 0.0 0.0
gi 0 0 0 0
gw 0.0 0.0 0.0 0.0
gi 0 0 0 0
gw 0.0 0.0 0.0 0.0
gi 0 0 0 0
gw 0.0 0.0 0.0 0.0
gi 0 0 0 0
gw 0.0 0.0 0.0 0.0
gi 0 0 0 0
gw 0.0 0.0 0.0 0.0
gi 0 0 0 0
gw 0.0 0.0 0.0 0.0
gi 0 0 0 0
gw 0.0 0.0 0.0 0.0
gi 0 0 0 0
gw 0.0 0.0 0.0 0.0
gi 0 0 0 0
gw 0.0 0.0 0.0 0.0
gi 0 0 0 0
gw 0.0 0.0 0.0 0.0
gi 0 0 0 0
gw 0.0 0.0 0.0 0.0
gi 0 0 0 0
gw 0.0 0.0 0.0 0.0
gi 0 0 0 0
gw 0.0 0.0 0.0 0.0
gi 0 0 0 0
gw 0.0 0.0 0.0 0.0
gi 0 0 0 0
gw 0.0 0.0 0.0 0.0
gi 0 0 0 0
gw 0.0 0.0 0.0 0.0
gi 0 0 0 0
gw 0.0 0.0 0.0 0.0
gi 0 0 0 0
gw 0.0 0.0 0.0 0.0
gi 0 0 0 0
gw 0.0 0.0 0.0 0.0
gi 0 0 0 0
gw 0.0 0.0 0.0 0.0
gi 0 0 0 0
gw 0.0 0.0 0.0 0.0
gi 0 0 0 0
gw 0.0 0.0 0.0 0.0
gi 0 0 0 0
gw 0.0 0.0 0.0 0.0
gi 0 0 0 0
gw 0.0 0.0 0.0 0.0
gi 0 0 0 0
gw 0.0 0.0 0.0 0.0
gi 0 0 0 0
gw 0.0 0.0 0.0 0.0
gi 0 0 0 0
gw 0.0 0.0 0.0 0.0
gi 0 0 0 0
gw 0.0 0.0 0.0 0.0
gi 0 0 0 0
gw 0.0 0.0 0.0 0.0
gi 0 0 0 0
gw 0.0 0.0 0.0 0.0
gi 0 0 0 0
gw 0.0 0.0 0.0 0.0
gi 0 0 0 0
gw 0.0 0.0 0.0 0.0
gi 0 0 0 0
gw 0.0 0.0 0.0 0.0
gi 0 0 0 0
gw 0.0 0.0 0.0 0.0
gi 0 0 0 0
gw 0.0 0.0 0.0 0.0
gi 0 0 0 0
gw 0.0 0.0 0.0 0.0
gi 0 0 0 0
gw 0.0 0.0 0.0 0.0
gi 0 0 0 0
gw 0.0 0.0 0.0 0.0
gi 0 0 0 0
gw 0.0 0.0 0.0 0.0
gi 0 0 0 0
gw 0.0 0.0 0.0 0.0
gi 0 0 0 0
gw 0.0 0.0 0.0 0.0
gi 0 0 0 0
gw 0.0 0.0 0.0 0.0
gi 0 0 0 0
gw 0.0 0.0 0.0 0.0
gi 0 0 0 0
gw 0.0 0.0 0.0 0.0
gi 0 0 0 0
gw 0.0 0.0 0.0 0.0
gi 0 0 0 0
gw 0.0 0.0 0.0 0.0
gi 0 0 0 0
gw 0.0 0.0 0.0 0.0
gi 0 0 0 0
gw 0.0 0.0 0.0 0.0
gi 0 0 0 0
gw 0.0 0.0 0.0 0.0
gi 0 0 0 0
gw 0.0 0.0 0.0 0.0
gi 0 0 0 0
gw 0.0 0.0 0.0 0.0
gi 0 0 0 0
gw 0.0 0.0 0.0 0.0
gi 0 0 0 0
gw 0.0 0.0 0.0 0.0
gi 0 0 0 0
gw 0.0 0.0 0.0 0.0
gi 0 0 0 0
gw 0.0 0.0 0.0 0.0
gi 0 0 0 0
gw 0.0 0.0 0.0 0.0
gi 0 0 0 0
gw 0.0 0.0 0.0 0.0
gi 0 0 0 0
gw 0.0 0.0 0.0 0.0
gi 0 0 0 0
gw 0.0 0.0 0.0 0.0
gi 0 0 0 0
gw 0.0 0.0 0.0 0.0
gi 0 0 0 0
gw 0.0 0.0 0.0 0.0
gi 0 0 0 0
gw 0.0 0.0 0.0 0.0
gi 0 0 0 0
gw 0.0 0.0 0.0 0.0
gi 0 0 0 0
gw 0.0 0.0 0.0 0.0
gi 0 0 0 0
gw 0.0 0.0 0.0 0.0
gi 0 0 0 0
gw 0.0 0.0 0.0 0.0
gi 0 0 0 0
gw 0.0 0.0 0.0 0.0
gi 0 0 0 0
gw 0.0 0.0 0.0 0.0
gi 0 0 0 0
gw 0.0 0.0 0.0 0.0
gi 0 0 0 0
gw 0.0 0.0 0.0 0.0
gi 0 0 0 0
gw 0.0 0.0 0.0 0.0
gi 0 0 0 0
gw 0.0 0.0 0.0 0.0
gi 0 0 0 0
gw 0.0 0.0 0.0 0.0
gi 0 0 0 0
gw 0.0 0.0 0.0 0.0
gi 0 0 0 0
gw 0.0 0.0 0.0 0.0
gi 0 0 0 0
gw 0.0 0.0 0.0 0.0
gi 0 0 0 0
gw 0.0 0.0 0.0 0.0
gi 0 0 0 0
gw 0.0 0.0 0.0 0.0
gi 0 0 0 0
gw 0.0 0.0 0.0 0.0
gi 0 0 0 0
gw 0.0 0.0 0.0 0.0
gi 0 0 0 0
gw 0.0 0.0 0.0 0.0
gi 0 0 0 0
gw 0.0 0.0 0.0 0.0
gi 0 0 0 0
gw 0.0 0.0 0.0 0.0
gi 0 0 0 0
gw 0.0 0.0 0.0 0.0
gi 0 0 0 0
gw 0.0 0.0 0.0 0.0
gi 0 0 0 0
gw 0.0 0.0 0.0 0.0
gi 0 0 0 0
gw 0.0 0.0 0.0 0.0
gi 0 0 0 0
gw 0.0 0.0 0.0 0.0
gi 0 0 0 0
gw 0.0 0.0 0.0 0.0
gi 0 0 0 0
gw 0.0 0.0 0.0 0.0
gi 0 0 0 0
gw 0.0 0.0 0.0 0.0
gi 0 0 0 0
gw 0.0 0.0 0.0 0.0
gi 0 0 0 0
gw 0.0 0.0 0.0 0.0
gi 0 0 0 0
gw 0.0 0.0 0.0 0.0
gi 0 0 0 0
gw 0.0 0.0 0.0 0.0
gi 0 0 0 0
gw 0.0 0.0 0.0 0.0
gi 0 0 0 0
gw 0.0 0.0 0.0 0.0
gi 0 0 0 0
gw 0.0 0.0 0.0 0.0
gi 0 0 0 0
gw 0.0 0.0 0.0 0.0
gi 0 0 0 0
gw 0.0 0.0 0.0 0.0
gi 0 0 0 0
gw 0.0 0.0 0.0 0.0
gi 0 0 0 0
gw 0.0 0.0 0.0 0.0
gi 0 0 0 0
gw 0.0 0.0 0.0 0.0
gi 0 0 0 0
gw 0.0 0.0 0.0 0.0
gi 0 0 0 0
gw 0.0 0.0 0.0 0.0
gi 0 0 0 0
gw 0.0 0.0 0.0 0.0
gi 0 0 0 0
gw 0.0 0.0 0.0 0.0
gi 0 0 0 0
gw 0.0 0.0 0.0 0.0
gi 0 0 0 0
gw 0.0 0.0 0.0 0.0
gi 0 0 0 0
gw 0.0 0.0 0.0 0.0
gi 0 0 0 0
gw 0.0 0.0 0.0 0.0
gi 0 0 0 0
gw 0.0 0.0 0.0 0.0
gi 0 0 0 0
gw 0.0 0.0 0.0 0.0
gi 0 0 0 0
gw 0.0 0.0 0.0 0.0
gi 0 0 0 0
gw 0.0 0.0 0.0 0.0
gi 0 0 0 0
gw 0.0 0.0 0.0 0.0
gi 0 0 0 0
gw 0.0 0.0 0.0 0.0
gi 0 0 0 0
gw 0.0 0.0 0.0 0.0
gi 0 0 0 0
gw 0.0 0.0 0.0 0.0
gi 0 0 0 0
gw 0.0 0.0 0.0 0.0
gi 0 0 0 0
gw 0.0 0.0 0.0 0.0
gi 0 0 0 0
gw 0.0 0.0 0.0 0.0
gi 0 0 0 0
gw 0.0 0.0 0.0 0.0
gi 0 0 0 0
gw 0.0 0.0 0.0 0.0
gi 0 0 0 0
gw 0.0 0.0 0.0 0.0
gi 0 0 0 0
gw 0.0 0.0 0.0 0.0
gi 0 0 0 0
gw 0.0 0.0 0.0 0.0
gi 0 0 0 0
gw 0.0 0.0 0.0 0.0
gi 0 0 0 0
gw 0.0 0.0 0.0 0.0
gi 0 0 0 0
gw 0.0 0.0 0.0 0.0
gi 0 0 0 0
gw 0.0 0.0 0.0 0.0
gi 0 0 0 0
gw 0.0 0.0 0.0 0.0
gi 0 0 0 0
gw 0.0 0.0 0.0 0.0
gi 0 0 0 0
gw 0.0 0.0 0.0 0.0
gi 0 0 0 0
gw 0.0 0.0 0.0 0.0
gi 0 0 0 0
gw 0.0 0.0 0.0 0.0
gi 0 0 0 0
gw 0.0 0.0 0.0 0.0
gi 0 0 0 0
gw 0.0 0.0 0.0 0.0
gi 0 0 0 0
gw 0.0 0.0 0.0 0.0
gi 0 0 0 0
gw 0.0 0.0 0.0 0.0
gi 0 0 0 0
gw 0.0 0.0 0.0 0.0
gi 0 0 0 0
gw 0.0 0.0 0.0 0.0
gi 0 0 0 0
gw 0.0 0.0 0.0 0.0
gi 0 0 0 0
gw 0.0 0.0 0.0 0.0
gi 0 0 0 0
gw 0.0 0.0 0.0 0.0
gi 0 0 0 0
gw 0.0 0.0 0.0 0.0
gi 0 0 0 0
gw 0.0 0.0 0.0 0.0
gi 0 0 0 0
gw 0.0 0.0 0.0 0.0
gi 0 0 0 0
gw 0.0 0.0 0.0 0.0
gi 0 0 0 0
gw 0.0 0.0 0.0 0.0
gi 0 0 0 0
gw 0.0 0.0 0.0 0.0
gi 0 0 0 0
gw 0.0 0.0 0.0 0.0
gi 0 0 0 0
gw 0.0 0.0 0.0 0.0
gi 0 0 0 0
gw 0.0 0.0 0.0 0.0
gi 0 0 0 0
gw 0.0 0.0 0.0 0.0
gi 0 0 0 0
gw 0.0 0.0 0.0 0.0
gi 0 0 0 0
gw 0.0 0.0 0.0 0.0
gi 0 0 0 0
gw 0.0 0.0 0.0 0.0
gi 0 0 0 0
gw 0.0 0.0 0.0 0.0
gi 0 0 0 0
gw 0.0 0.0 0.0 0.0
gi 0 0 0 0
gw 0.0 0.0 0.0 0.0
gi 0 0 0 0
gw 0.0 0.0 0.0 0.0
gi 0 0 0 0
gw 0.0 0.0 0.0 0.0
gi 0 0 0 0
gw 0.0 0.0 0.0 0.0
gi 0 0 0 0
gw 0.0 0.0 0.0 0.0
gi 0 0 0 0
gw 0.0 0.0 0.0 0.0
gi 0 0 0 0
gw 0.0 0.0 0.0 0.0
gi 0 0 0 0
gw 0.0 0.0 0.0 0.0
gi 0 0 0 0
gw 0.0 0.0 0.0 0.0
gi 0 0 0 0
gw 0.0 0.0 0.0 0.0
gi 0 0 0 0
gw 0.0 0.0 0.0 0.0
gi 0 0 0 0
gw 0.0 0.0 0.0 0.0
gi 0 0 0 0
gw 0.0 0.0 0.0 0.0
gi 0 0 0 0
gw 0.0 0.0 0.0 0.0
gi 0 0 0 0
gw 0.0 0.0 0.0 0.0
gi 0 0 0 0
gw 0.0 0.0 0.0 0.0
gi 0 0 0 0
gw 0.0 0.0 0.0 0.0
gi 0 0 0 0
gw 0.0 0.0 0.0 0.0
gi 0 0 0 0
gw 0.0 0.0 0.0 0.0
gi 0 0 0 0
gw 0.0 0.0 0.0 0.0
gi 0 0 0 0
gw 0.0 0.0 0.0 0.0
gi 0 0 0 0
gw 0.0 0.0 0.0 0.0
gi 0 0 0 0
gw 0.0 0.0 0.0 0.0
gi 0 0 0 0
gw 0.0 0.0 0.0 0.0
gi 0 0 0 0
gw 0.0 0.0 0.0 0.0
gi 0 0 0 0
gw 0.0 0.0 0.0 0.0
gi 0 0 0 0
gw 0.0 0.0 0.0 0.0
gi 0 0 0 0
gw 0.0 0.0 0.0 0.0
gi 0 0 0 0
gw 0.0 0.0 0.0 0.0
gi 0 0 0 0
gw 0.0 0.0 0.0 0.0
gi 0 0 0 0
gw 0.0 0.0 0.0 0.0
gi 0 0 0 0
gw 0.0 0.0 0.0 0.0
gi 0 0 0 0
gw 0.0 0.0 0.0 0.0
gi 0 0 0 0
gw 0.0 0.0 0.0 0.0
gi 0 0 0 0
gw 0.0 0.0 0.0 0.0
gi 0 0 0 0
gw 0.0 0.0 0.0 0.0
gi 0 0 0 0
gw 0.0 0.0 0.0 0.0
gi 0 0 0 0
gw 0.0 0.0 0.0 0.0
gi 0 0 0 0
gw 0.0 0.0 0.0 0.0
gi 0 0 0 0
gw 0.0 0.0 0.0 0.0
gi 0 0 0 0
gw 0.0 0.0 0.0 0.0
gi 0 0 0 0
gw 0.0 0.0 0.0 0.0
gi 0 0 0 0
gw 0.0 0.0 0.0 0.0
gi 0 0 0 0
gw 0.0 0.0 0.0 0.0
gi 0 0 0 0
gw 0.0 0.0 0.0 0.0
gi 0 0 0 0
gw 0.0 0.0 0.0 0.0
vt 0.6539 0.6437
vt 0.6431 0.7239
vt 0.6636 0.7293
vt 0.6751 0.6437
vt 0.6123 0.7987
vt 0.6307 0.8093
vt 0.5629 0.8628
vt 0.5779 0.8778
vt 0.4988 0.9122
vt 0.5095 0.9306
vt 0.424 0.943
vt 0.4295 0.9635
vt 0.3438 0.9537
vt 0.3438 0.9749
vt 0.2636 0.943
vt 0.2581 0.9635
vt 0.1888 0.9122
vt 0.1782 0.9306
vt 0.1247 0.8628
vt 0.1097 0.8778
vt 0.0753 0.7987
vt 0.0569 0.8093
vt 0.0445 0.7239
vt 0.024 0.7293
vt 0.0337 0.6437
vt 0.0125 0.6437
vt 0.0445 0.5635
vt 0.024 0.558
vt 0.0753 0.4886
vt 0.0569 0.478
vt 0.1247 0.4245
vt 0.1097 0.4095
vt 0.1888 0.3751
vt 0.1782 0.3568
vt 0.2636 0.3443
vt 0.2581 0.3239
vt 0.3438 0.3336
vt 0.3438 0.3124
vt 0.424 0.3443
vt 0.4295 0.3239
vt 0.4989 0.3751
vt 0.5095 0.3568
vt 0.5629 0.4245
vt 0.5779 0.4095
vt 0.6123 0.4886
vt 0.6307 0.478
vt 0.6431 0.5635
vt 0.6636 0.558
vt 0.4956 0.7313
vt 0.5131 0.689
vt 0.4984 0.6851
vt 0.4825 0.7237
vt 0.4687 0.6771
vt 0.4558 0.7083
vt 0.4731 0.6437
vt 0.504 0.6437
vt 0.4315 0.7955
vt 0.4677 0.7675
vt 0.457 0.7568
vt 0.4239 0.7824
vt 0.4352 0.735
vt 0.4085 0.7557
vt 0.3438 0.819
vt 0.3892 0.8129
vt 0.3852 0.7983
vt 0.3438 0.8038
vt 0.3773 0.7685
vt 0.3438 0.773
vt 0.2562 0.7955
vt 0.2985 0.8129
vt 0.3024 0.7983
vt 0.2637 0.7824
vt 0.3104 0.7685
vt 0.2792 0.7557
vt 0.192 0.7313
vt 0.2199 0.7675
vt 0.2306 0.7568
vt 0.2051 0.7237
vt 0.2524 0.735
vt 0.2318 0.7083
vt 0.1685 0.6437
vt 0.1746 0.689
vt 0.1892 0.6851
vt 0.1837 0.6437
vt 0.219 0.6771
vt 0.2145 0.6437
vt 0.192 0.556
vt 0.1746 0.5983
vt 0.1892 0.6022
vt 0.2051 0.5636
vt 0.219 0.6102
vt 0.2318 0.579
vt 0.2562 0.4918
vt 0.2199 0.5198
vt 0.2306 0.5305
vt 0.2637 0.505
vt 0.2524 0.5523
vt 0.2792 0.5317
vt 0.3438 0.4683
vt 0.2985 0.4744
vt 0.3024 0.489
vt 0.3438 0.4835
vt 0.3104 0.5188
vt 0.3438 0.5143
vt 0.4315 0.4918
vt 0.3892 0.4744
vt 0.3852 0.489
vt 0.4239 0.505
vt 0.3773 0.5188
vt 0.4085 0.5317
vt 0.4956 0.556
vt 0.4677 0.5198
vt 0.457 0.5305
vt 0.4825 0.5636
vt 0.4352 0.5523
vt 0.4558 0.579
vt 0.5191 0.6437
vt 0.5131 0.5983
vt 0.4984 0.6022
vt 0.4687 0.6102
vt 0.5268 0.6927
vt 0.508 0.7384
vt 0.5334 0.6437
vt 0.4778 0.7776
vt 0.4386 0.8078
vt 0.3928 0.8266
vt 0.3438 0.8332
vt 0.2948 0.8266
vt 0.249 0.8078
vt 0.2099 0.7776
vt 0.1797 0.7384
vt 0.1608 0.6927
vt 0.1543 0.6437
vt 0.1608 0.5946
vt 0.1797 0.5489
vt 0.2099 0.5097
vt 0.249 0.4795
vt 0.2948 0.4607
vt 0.3438 0.4541
vt 0.3928 0.4607
vt 0.4386 0.4795
vt 0.4778 0.5097
vt 0.508 0.5489
vt 0.5268 0.5946
vt 0.57 0.7743
vt 0.596 0.7112
vt 0.5454 0.6977
vt 0.5247 0.7481
vt 0.605 0.6437
vt 0.5527 0.6437
vt 0.596 0.5761
vt 0.5454 0.5896
vt 0.57 0.5131
vt 0.5247 0.5392
vt 0.5284 0.4591
vt 0.4914 0.4961
vt 0.4744 0.4175
vt 0.4482 0.4628
vt 0.4114 0.3915
vt 0.3978 0.4421
vt 0.3438 0.3825
vt 0.3438 0.4348
vt 0.2763 0.3915
vt 0.2898 0.4421
vt 0.2132 0.4175
vt 0.2394 0.4628
vt 0.1592 0.4591
vt 0.1962 0.4961
vt 0.1176 0.5131
vt 0.163 0.5392
vt 0.0917 0.5761
vt 0.1422 0.5896
vt 0.0826 0.6437
vt 0.135 0.6437
vt 0.0917 0.7112
vt 0.1422 0.6977
vt 0.1176 0.7743
vt 0.163 0.7481
vt 0.1592 0.8282
vt 0.1962 0.7912
vt 0.2132 0.8699
vt 0.2394 0.8245
vt 0.2763 0.8958
vt 0.2898 0.8453
vt 0.3438 0.9048
vt 0.3438 0.8525
vt 0.4114 0.8958
vt 0.3978 0.8453
vt 0.4744 0.8699
vt 0.4482 0.8245
vt 0.5284 0.8282
vt 0.4914 0.7912
vt 0.4563 0.6437
vt 0.4524 0.6727
vt 0.4412 0.6999
vt 0.4233 0.7231
vt 0.4 0.7411
vt 0.3729 0.7522
vt 0.3438 0.7561
vt 0.3147 0.7522
vt 0.2876 0.7411
vt 0.2643 0.7231
vt 0.2464 0.6999
vt 0.2353 0.6727
vt 0.2314 0.6437
vt 0.2353 0.6146
vt 0.2464 0.5874
vt 0.2643 0.5642
vt 0.2876 0.5463
vt 0.3147 0.5351
vt 0.3438 0.5312
vt 0.3729 0.5351
vt 0.4 0.5463
vt 0.4233 0.5642
vt 0.4412 0.5874
vt 0.4524 0.6146
vt 0.3438 0.6437
vt 0.6337 0.7213
vt 0.6039 0.7938
vt 0.6441 0.6437
vt 0.6337 0.566
vt 0.556 0.4315
vt 0.6039 0.4935
vt 0.4215 0.3538
vt 0.494 0.3836
vt 0.2661 0.3538
vt 0.3438 0.3434
vt 0.1316 0.4315
vt 0.1937 0.3836
vt 0.0539 0.566
vt 0.0838 0.4935
vt 0.0539 0.7213
vt 0.0435 0.6437
vt 0.1316 0.8559
vt 0.0838 0.7938
vt 0.2661 0.9335
vt 0.1937 0.9037
vt 0.4215 0.9335
vt 0.3438 0.9439
vt 0.556 0.8559
vt 0.4939 0.9037
vn 0.7952 -0.0 -0.6063
vn 0.7679 0.2058 -0.6066
vn 0.9322 0.2498 -0.2618
vn 0.9651 -0.0 -0.262
vn 0.6887 0.3976 -0.6063
vn 0.8358 0.4825 -0.262
vn 0.5621 0.5621 -0.6066
vn 0.6824 0.6824 -0.2619
vn 0.3976 0.6887 -0.6063
vn 0.4825 0.8358 -0.262
vn 0.2058 0.7679 -0.6067
vn 0.2498 0.9322 -0.2619
vn -0.0 0.7953 -0.6062
vn -0.0 0.9651 -0.262
vn -0.2058 0.7679 -0.6066
vn -0.2498 0.9322 -0.2619
vn -0.3976 0.6887 -0.6062
vn -0.4825 0.8358 -0.262
vn -0.5622 0.5621 -0.6066
vn -0.6824 0.6824 -0.2619
vn -0.6887 0.3976 -0.6063
vn -0.8358 0.4825 -0.262
vn -0.7679 0.2058 -0.6066
vn -0.9322 0.2498 -0.2619
vn -0.7953 -0.0 -0.6062
vn -0.9651 -0.0 -0.262
vn -0.7679 -0.2057 -0.6067
vn -0.9322 -0.2498 -0.2619
vn -0.6887 -0.3976 -0.6062
vn -0.8358 -0.4825 -0.262
vn -0.5621 -0.5621 -0.6067
vn -0.6824 -0.6824 -0.2618
vn -0.3977 -0.6888 -0.6062
vn -0.4825 -0.8358 -0.2621
vn -0.2058 -0.7679 -0.6067
vn -0.2498 -0.9322 -0.2619
vn -0.0 -0.7953 -0.6062
vn -0.0 -0.9651 -0.2621
vn 0.2058 -0.7679 -0.6066
vn 0.2498 -0.9322 -0.2619
vn 0.3976 -0.6887 -0.6063
vn 0.4825 -0.8358 -0.262
vn 0.5621 -0.5622 -0.6066
vn 0.6824 -0.6824 -0.2619
vn 0.6887 -0.3976 -0.6063
vn 0.8358 -0.4825 -0.262
vn 0.7679 -0.2058 -0.6066
vn 0.9322 -0.2498 -0.2619
vn 0.8159 0.471 -0.3354
vn 0.91 0.2438 -0.3353
vn 0.688 0.1844 -0.7019
vn 0.6171 0.3563 -0.7016
vn -0.3626 -0.0972 -0.9269
vn -0.3234 -0.1867 -0.9277
vn -0.3734 -0.0 -0.9277
vn 0.7125 -0.0 -0.7016
vn 0.471 0.8159 -0.3354
vn 0.6662 0.6662 -0.3353
vn 0.5037 0.5037 -0.7019
vn 0.3563 0.6171 -0.7016
vn -0.2654 -0.2654 -0.9269
vn -0.1867 -0.3234 -0.9277
vn -0.0 0.9421 -0.3354
vn 0.2439 0.91 -0.3353
vn 0.1844 0.688 -0.7019
vn 0.0 0.7125 -0.7016
vn -0.0971 -0.3626 -0.9269
vn -0.0 -0.3734 -0.9277
vn -0.471 0.8159 -0.3354
vn -0.2438 0.91 -0.3353
vn -0.1844 0.688 -0.7019
vn -0.3563 0.6171 -0.7016
vn 0.0972 -0.3626 -0.9269
vn 0.1867 -0.3234 -0.9277
vn -0.8159 0.4711 -0.3354
vn -0.6662 0.6662 -0.3353
vn -0.5037 0.5037 -0.7019
vn -0.6171 0.3563 -0.7016
vn 0.2654 -0.2654 -0.9269
vn 0.3234 -0.1867 -0.9277
vn -0.9421 0.0 -0.3354
vn -0.91 0.2438 -0.3353
vn -0.688 0.1843 -0.7019
vn -0.7125 -0.0 -0.7016
vn 0.3627 -0.0972 -0.9268
vn 0.3734 -0.0 -0.9277
vn -0.8159 -0.471 -0.3354
vn -0.91 -0.2438 -0.3353
vn -0.688 -0.1843 -0.7019
vn -0.6171 -0.3563 -0.7016
vn 0.3627 0.0972 -0.9268
vn 0.3233 0.1867 -0.9277
vn -0.471 -0.8159 -0.3354
vn -0.6662 -0.6662 -0.3353
vn -0.5037 -0.5036 -0.7019
vn -0.3563 -0.617 -0.7017
vn 0.2655 0.2655 -0.9269
vn 0.1867 0.3234 -0.9277
vn -0.0 -0.9421 -0.3354
vn -0.2438 -0.91 -0.3353
vn -0.1843 -0.688 -0.7019
vn -0.0 -0.7125 -0.7016
vn 0.0972 0.3627 -0.9268
vn -0.0 0.3734 -0.9277
vn 0.471 -0.8159 -0.3354
vn 0.2438 -0.91 -0.3353
vn 0.1843 -0.688 -0.7019
vn 0.3563 -0.617 -0.7017
vn -0.0972 0.3627 -0.9268
vn -0.1867 0.3234 -0.9277
vn 0.8159 -0.471 -0.3354
vn 0.6662 -0.6662 -0.3353
vn 0.5037 -0.5036 -0.7019
vn 0.6171 -0.3562 -0.7016
vn -0.2655 0.2654 -0.9269
vn -0.3233 0.1867 -0.9277
vn 0.9421 -0.0 -0.3354
vn 0.91 -0.2438 -0.3353
vn 0.688 -0.1844 -0.7019
vn -0.3626 0.0972 -0.9269
vn 0.8356 0.2239 -0.5017
vn 0.7489 0.4323 -0.5023
vn 0.8647 -0.0 -0.5023
vn 0.6117 0.6117 -0.5017
vn 0.4324 0.7488 -0.5023
vn 0.2239 0.8355 -0.5017
vn -0.0 0.8647 -0.5023
vn -0.2239 0.8356 -0.5017
vn -0.4324 0.7488 -0.5023
vn -0.6117 0.6117 -0.5017
vn -0.7489 0.4323 -0.5023
vn -0.8356 0.2239 -0.5017
vn -0.8647 -0.0 -0.5023
vn -0.8356 -0.2239 -0.5017
vn -0.7489 -0.4323 -0.5023
vn -0.6117 -0.6117 -0.5017
vn -0.4323 -0.7489 -0.5023
vn -0.2239 -0.8355 -0.5017
vn -0.0 -0.8647 -0.5023
vn 0.2239 -0.8356 -0.5017
vn 0.4323 -0.7489 -0.5023
vn 0.6117 -0.6117 -0.5017
vn 0.7489 -0.4323 -0.5023
vn 0.8356 -0.2239 -0.5017
vn 0.2722 0.1572 -0.9493
vn 0.3035 0.0813 -0.9494
vn 0.4281 0.1147 -0.8964
vn 0.383 0.2212 -0.8969
vn 0.3144 -0.0 -0.9493
vn 0.4423 -0.0 -0.8969
vn 0.3035 -0.0813 -0.9494
vn 0.428 -0.1147 -0.8964
vn 0.2722 -0.1572 -0.9493
vn 0.383 -0.2211 -0.8969
vn 0.2222 -0.2222 -0.9494
vn 0.3133 -0.3133 -0.8965
vn 0.1572 -0.2722 -0.9493
vn 0.2211 -0.3831 -0.8969
vn 0.0813 -0.3035 -0.9493
vn 0.1147 -0.4281 -0.8964
vn -0.0 -0.3144 -0.9493
vn 0.0 -0.4423 -0.8969
vn -0.0813 -0.3035 -0.9494
vn -0.1147 -0.428 -0.8965
vn -0.1572 -0.2722 -0.9493
vn -0.2211 -0.383 -0.8969
vn -0.2222 -0.2222 -0.9493
vn -0.3134 -0.3134 -0.8964
vn -0.2722 -0.1572 -0.9493
vn -0.383 -0.2211 -0.8969
vn -0.3035 -0.0813 -0.9494
vn -0.428 -0.1147 -0.8965
vn -0.3144 -0.0 -0.9493
vn -0.4423 -0.0 -0.8969
vn -0.3035 0.0813 -0.9493
vn -0.4281 0.1147 -0.8964
vn -0.2722 0.1572 -0.9493
vn -0.383 0.2211 -0.8969
vn -0.2222 0.2222 -0.9494
vn -0.3134 0.3134 -0.8964
vn -0.1572 0.2722 -0.9493
vn -0.2212 0.383 -0.8969
vn -0.0813 0.3035 -0.9493
vn -0.1147 0.428 -0.8964
vn -0.0 0.3143 -0.9493
vn 0.0 0.4423 -0.8969
vn 0.0813 0.3035 -0.9493
vn 0.1147 0.4281 -0.8964
vn 0.1572 0.2722 -0.9493
vn 0.2212 0.3831 -0.8969
vn 0.2222 0.2222 -0.9493
vn 0.3134 0.3134 -0.8964
vn -0.6732 0.0 -0.7395
vn -0.6494 -0.174 -0.7402
vn -0.583 -0.3366 -0.7395
vn -0.4754 -0.4754 -0.7403
vn -0.3366 -0.583 -0.7395
vn -0.174 -0.6494 -0.7403
vn -0.0 -0.6732 -0.7395
vn 0.174 -0.6494 -0.7403
vn 0.3366 -0.583 -0.7395
vn 0.4754 -0.4754 -0.7402
vn 0.583 -0.3366 -0.7395
vn 0.6494 -0.174 -0.7402
vn 0.6731 0.0 -0.7395
vn 0.6494 0.174 -0.7402
vn 0.583 0.3366 -0.7395
vn 0.4755 0.4754 -0.7402
vn 0.3366 0.583 -0.7395
vn 0.174 0.6494 -0.7403
vn -0.0 0.6731 -0.7395
vn -0.174 0.6495 -0.7402
vn -0.3366 0.583 -0.7395
vn -0.4754 0.4754 -0.7403
vn -0.583 0.3366 -0.7395
vn -0.6494 0.174 -0.7402
vn 0.0 0.0 -1.0
vn 0.4316 0.1157 -0.8946
vn 0.3868 0.2233 -0.8947
vn 0.4467 -0.0 -0.8947
vn 0.4317 -0.1157 -0.8946
vn 0.316 -0.316 -0.8946
vn 0.3868 -0.2233 -0.8947
vn 0.1157 -0.4317 -0.8946
vn 0.2233 -0.3868 -0.8947
vn -0.1156 -0.4316 -0.8946
vn -0.0 -0.4468 -0.8947
vn -0.316 -0.3159 -0.8946
vn -0.2234 -0.387 -0.8946
vn -0.4316 -0.1156 -0.8946
vn -0.3869 -0.2234 -0.8947
vn -0.4317 0.1157 -0.8946
vn -0.4467 -0.0 -0.8947
vn -0.316 0.316 -0.8946
vn -0.3868 0.2233 -0.8947
vn -0.1156 0.4316 -0.8946
vn -0.2234 0.3868 -0.8947
vn 0.1157 0.4316 -0.8946
vn -0.0 0.4467 -0.8947
vn 0.316 0.316 -0.8946
vn 0.2233 0.3868 -0.8947
vtan 0.6063 0.0 0.7952 -1.0
vtan 0.6201 -0.0014 0.7845 -1.0
vtan 0.2702 0.0008 0.9628 -1.0
vtan 0.262 0.0 0.9651 -1.0
vtan 0.6578 0.0089 0.7531 -1.0
vtan 0.2993 -0.0003 0.9542 -1.0
vtan 0.7199 0.0285 0.6935 -1.0
vtan 0.3604 -0.0025 0.9328 -1.0
vtan 0.8064 0.053 0.589 -1.0
vtan 0.4885 -0.0085 0.8725 -1.0
vtan 0.9219 0.0559 0.3834 -1.0
vtan 0.757 -0.0193 0.6532 -1.0
vtan 1.0 0.0001 0.0001 -1.0
vtan 1.0 0.0001 0.0002 -1.0
vtan 0.9219 -0.0558 -0.3833 -1.0
vtan 0.7567 0.0192 -0.6535 -1.0
vtan 0.8063 -0.053 -0.5891 -1.0
vtan 0.4885 0.0085 -0.8725 -1.0
vtan 0.7198 -0.0286 -0.6936 -1.0
vtan 0.3605 0.0026 -0.9328 -1.0
vtan 0.6578 -0.009 -0.7532 -1.0
vtan 0.2994 0.0005 -0.9541 -1.0
vtan 0.6201 0.0015 -0.7845 -1.0
vtan 0.2703 -0.0007 -0.9628 -1.0
vtan 0.6062 0.0 -0.7953 -1.0
vtan 0.262 -0.0003 -0.9651 -1.0
vtan 0.6195 0.0023 -0.785 -1.0
vtan 0.2705 -0.0002 -0.9627 -1.0
vtan 0.6578 0.0088 -0.7531 -1.0
vtan 0.2994 -0.0006 -0.9541 -1.0
vtan 0.721 0.0262 -0.6924 -1.0
vtan 0.3606 -0.0027 -0.9327 -1.0
vtan 0.8059 0.0537 -0.5897 -1.0
vtan 0.4874 -0.0076 -0.8731 -1.0
vtan 0.9214 0.0567 -0.3843 -1.0
vtan 0.7546 -0.0179 -0.6559 -1.0
vtan 1.0 -0.0004 0.0005 -1.0
vtan 1.0 -0.0001 0.0003 -1.0
vtan 0.9216 -0.0564 0.3841 -1.0
vtan 0.7552 0.0183 0.6553 -1.0
vtan 0.8059 -0.0537 0.5896 -1.0
vtan 0.4872 0.0075 0.8733 -1.0
vtan 0.7212 -0.0259 0.6923 -1.0
vtan 0.3603 0.0023 0.9328 -1.0
vtan 0.6578 -0.0091 0.7532 -1.0
vtan 0.2994 0.0005 0.9541 -1.0
vtan 0.6195 -0.0023 0.785 -1.0
vtan 0.2705 0.0001 0.9627 -1.0
vtan 0.3803 -0.0002 0.9249 -1.0
vtan 0.3457 0.0001 0.9383 -1.0
vtan 0.7141 0.0004 0.7 -1.0
vtan 0.7497 0.0044 0.6617 -1.0
vtan 0.931 0.0076 -0.365 -1.0
vtan 0.9419 0.0309 -0.3346 -1.0
vtan 0.9277 0.0 -0.3734 -1.0
vtan 0.7016 0.0 0.7125 -1.0
vtan 0.5795 0.0004 0.815 -1.0
vtan 0.4494 0.0002 0.8933 -1.0
vtan 0.8073 0.0149 0.59 -1.0
vtan 0.8823 0.0249 0.4699 -1.0
vtan 0.9539 0.0673 -0.2924 -1.0
vtan 0.9688 0.0962 -0.2285 -1.0
vtan 1.0 0.0 0.0 -1.0
vtan 0.8106 -0.0014 0.5856 -1.0
vtan 0.9616 0.0215 0.2737 -1.0
vtan 1.0 -0.0 -0.0 -1.0
vtan 0.9874 0.0819 -0.1355 -1.0
vtan 1.0 -0.0001 0.0 -1.0
vtan 0.5793 -0.0007 -0.8151 -1.0
vtan 0.8106 0.0014 -0.5856 -1.0
vtan 0.9616 -0.0215 -0.2737 -1.0
vtan 0.8823 -0.0249 -0.4699 -1.0
vtan 0.9874 -0.0818 0.1355 -1.0
vtan 0.9688 -0.096 0.2284 -1.0
vtan 0.3803 0.0002 -0.9249 -1.0
vtan 0.4494 -0.0002 -0.8933 -1.0
vtan 0.8073 -0.0149 -0.59 -1.0
vtan 0.7498 -0.0045 -0.6617 -1.0
vtan 0.9539 -0.0673 0.2925 -1.0
vtan 0.9419 -0.0311 0.3346 -1.0
vtan 0.3354 0.0001 -0.9421 -1.0
vtan 0.3457 -0.0002 -0.9383 -1.0
vtan 0.7141 -0.0004 -0.7 -1.0
vtan 0.7016 -0.0 -0.7125 -1.0
vtan 0.9309 -0.0077 0.3651 -1.0
vtan 0.9277 0.0002 0.3734 -1.0
vtan 0.3803 -0.0002 -0.9249 -1.0
vtan 0.3457 0.0002 -0.9383 -1.0
vtan 0.7141 0.0005 -0.7001 -1.0
vtan 0.7498 0.0044 -0.6617 -1.0
vtan 0.9309 0.0078 0.3651 -1.0
vtan 0.9419 0.0309 0.3345 -1.0
vtan 0.5801 -0.0001 -0.8146 -1.0
vtan 0.4494 0.0003 -0.8933 -1.0
vtan 0.8076 0.014 -0.5895 -1.0
vtan 0.8829 0.0236 -0.4691 -1.0
vtan 0.954 0.0664 0.2923 -1.0
vtan 0.9687 0.0966 0.2286 -1.0
vtan 1.0 0.0 -0.0001 -1.0
vtan 0.8106 -0.0014 -0.5856 -1.0
vtan 0.9615 0.022 -0.274 -1.0
vtan 1.0 0.0 -0.0 -1.0
vtan 0.9872 0.0834 0.1362 -1.0
vtan 1.0 -0.0 -0.0 -1.0
vtan 0.5798 -0.0001 0.8147 -1.0
vtan 0.8106 0.0014 0.5856 -1.0
vtan 0.9615 -0.022 0.274 -1.0
vtan 0.8829 -0.0236 0.469 -1.0
vtan 0.9872 -0.0833 -0.1361 -1.0
vtan 0.9687 -0.0964 -0.2286 -1.0
vtan 0.3803 0.0002 0.9249 -1.0
vtan 0.4494 -0.0003 0.8933 -1.0
vtan 0.8076 -0.014 0.5895 -1.0
vtan 0.7498 -0.0044 0.6617 -1.0
vtan 0.954 -0.0663 -0.2922 -1.0
vtan 0.9419 -0.031 -0.3345 -1.0
vtan 0.3354 0.0 0.9421 -1.0
vtan 0.3457 -0.0002 0.9383 -1.0
vtan 0.7141 -0.0005 0.7001 -1.0
vtan 0.931 -0.0079 -0.3651 -1.0
vtan 0.5147 0.0003 0.8574 -1.0
vtan 0.5556 0.0036 0.8315 -1.0
vtan 0.5023 -0.0 0.8647 -1.0
vtan 0.6252 0.0147 0.7803 -1.0
vtan 0.7335 0.0318 0.6789 -1.0
vtan 0.887 0.0387 0.4602 -1.0
vtan 1.0 -0.0002 -0.0003 -1.0
vtan 0.8873 -0.0383 -0.4597 -1.0
vtan 0.7336 -0.0317 -0.6788 -1.0
vtan 0.6251 -0.015 -0.7804 -1.0
vtan 0.5556 -0.0036 -0.8315 -1.0
vtan 0.5147 -0.0002 -0.8573 -1.0
vtan 0.5023 0.0 -0.8647 -1.0
vtan 0.5147 0.0005 -0.8574 -1.0
vtan 0.5556 0.0036 -0.8314 -1.0
vtan 0.6253 0.0148 -0.7803 -1.0
vtan 0.7335 0.0319 -0.6789 -1.0
vtan 0.8868 0.0388 -0.4604 -1.0
vtan 1.0 0.0001 -0.0001 -1.0
vtan 0.8868 -0.0389 0.4606 -1.0
vtan 0.7337 -0.0316 0.6787 -1.0
vtan 0.6251 -0.015 0.7804 -1.0
vtan 0.5556 -0.0036 0.8315 -1.0
vtan 0.5147 -0.0003 0.8574 -1.0
vtan 0.9612 0.0003 0.2757 -1.0
vtan 0.9525 0.0005 0.3046 -1.0
vtan 0.9024 0.0003 0.4309 -1.0
vtan 0.9196 0.0008 0.3929 -1.0
vtan 0.9493 -0.0001 0.3144 -1.0
vtan 0.8969 0.0 0.4423 -1.0
vtan 0.9525 -0.0005 0.3046 -1.0
vtan 0.9024 -0.0007 0.431 -1.0
vtan 0.9613 0.0 0.2757 -1.0
vtan 0.9195 -0.0013 0.393 -1.0
vtan 0.9737 -0.0003 0.2279 -1.0
vtan 0.9434 -0.005 0.3315 -1.0
vtan 0.9865 -0.0004 0.1635 -1.0
vtan 0.9703 -0.0062 0.2419 -1.0
vtan 0.9963 -0.0002 0.0854 -1.0
vtan 0.9916 -0.0053 0.1294 -1.0
vtan 1.0 0.0 -0.0 -1.0
vtan 1.0 0.0004 -0.0002 -1.0
vtan 0.9963 0.0003 -0.0854 -1.0
vtan 0.9916 0.0047 -0.1291 -1.0
vtan 0.9866 0.0004 -0.1634 -1.0
vtan 0.9703 0.0065 -0.242 -1.0
vtan 0.9737 0.0004 -0.228 -1.0
vtan 0.9435 0.0046 -0.3314 -1.0
vtan 0.9613 -0.0001 -0.2757 -1.0
vtan 0.9195 0.0016 -0.3931 -1.0
vtan 0.9525 0.0003 -0.3045 -1.0
vtan 0.9024 0.0007 -0.431 -1.0
vtan 0.9493 -0.0 -0.3144 -1.0
vtan 0.8969 0.0001 -0.4423 -1.0
vtan 0.9525 -0.0003 -0.3046 -1.0
vtan 0.9024 -0.0005 -0.431 -1.0
vtan 0.9612 -0.0002 -0.2757 -1.0
vtan 0.9196 -0.0008 -0.3929 -1.0
vtan 0.9737 0.0002 -0.2278 -1.0
vtan 0.9435 -0.0047 -0.3314 -1.0
vtan 0.9865 -0.0004 -0.1635 -1.0
vtan 0.9702 -0.0067 -0.2421 -1.0
vtan 0.9964 0.0001 -0.0853 -1.0
vtan 0.9917 -0.004 -0.1288 -1.0
vtan 1.0 -0.0001 -0.0 -1.0
vtan 1.0 -0.0002 -0.0001 -1.0
vtan 0.9963 0.0 0.0854 -1.0
vtan 0.9916 0.0047 0.1291 -1.0
vtan 0.9865 0.0007 0.1635 -1.0
vtan 0.9703 0.0061 0.2419 -1.0
vtan 0.9737 -0.0006 0.2278 -1.0
vtan 0.9435 0.0046 0.3314 -1.0
vtan 0.7395 -0.0002 -0.6732 -1.0
vtan 0.7515 0.0017 -0.6597 -1.0
vtan 0.7808 0.0198 -0.6245 -1.0
vtan 0.8226 0.0581 -0.5656 -1.0
vtan 0.8737 0.0996 -0.4762 -1.0
vtan 0.9461 0.0983 -0.3086 -1.0
vtan 1.0 -0.0002 0.0001 -1.0
vtan 0.946 -0.0985 0.3088 -1.0
vtan 0.8737 -0.0997 0.4762 -1.0
vtan 0.8226 -0.0582 0.5657 -1.0
vtan 0.7808 -0.0196 0.6244 -1.0
vtan 0.7515 -0.0017 0.6597 -1.0
vtan 0.7395 -0.0001 0.6731 -1.0
vtan 0.7515 0.0016 0.6597 -1.0
vtan 0.7809 0.0194 0.6244 -1.0
vtan 0.823 0.0569 0.5652 -1.0
vtan 0.8735 0.1 0.4764 -1.0
vtan 0.9456 0.0997 0.3097 -1.0
vtan 1.0 -0.0001 -0.0001 -1.0
vtan 0.9456 -0.0998 -0.3098 -1.0
vtan 0.8734 -0.1001 -0.4765 -1.0
vtan 0.823 -0.057 -0.5652 -1.0
vtan 0.7809 -0.0192 -0.6244 -1.0
vtan 0.7515 -0.0015 -0.6597 -1.0
vtan 1.0 -0.0 0.0 -1.0
vtan 0.9008 -0.0029 0.4343 -1.0
vtan 0.9179 0.0003 0.3969 -1.0
vtan 0.8947 -0.0001 0.4467 -1.0
vtan 0.9006 -0.0016 0.4347 -1.0
vtan 0.9432 0.003 0.3321 -1.0
vtan 0.9179 0.0005 0.3968 -1.0
vtan 0.9918 0.0011 0.1277 -1.0
vtan 0.9703 0.0005 0.242 -1.0
vtan 0.9918 -0.0006 -0.1279 -1.0
vtan 1.0 -0.0002 0.0001 -1.0
vtan 0.9432 -0.0024 -0.3323 -1.0
vtan 0.9703 -0.0011 -0.2418 -1.0
vtan 0.9006 0.0016 -0.4347 -1.0
vtan 0.9179 -0.0005 -0.3968 -1.0
vtan 0.9008 0.0029 -0.4343 -1.0
vtan 0.8947 0.0001 -0.4467 -1.0
vtan 0.9429 -0.0004 -0.3332 -1.0
vtan 0.9179 -0.0003 -0.3969 -1.0
vtan 0.9918 0.001 -0.1277 -1.0
vtan 0.9703 0.0007 -0.2419 -1.0
vtan 0.9918 -0.0007 0.1279 -1.0
vtan 1.0 -0.0002 -0.0001 -1.0
vtan 0.9429 0.0 0.3331 -1.0
vtan 0.9703 -0.0004 0.242 -1.0
f 0/0/0/0 1/1/1/1 2/2/2/2 
f 0/0/0/0 2/2/2/2 3/3/3/3 
f 1/1/1/1 4/4/4/4 5/5/5/5 
f 1/1/1/1 5/5/5/5 2/2/2/2 
f 4/4/4/4 6/6/6/6 7/7/7/7 
f 4/4/4/4 7/7/7/7 5/5/5/5 
f 6/6/6/6 8/8/8/8 9/9/9/9 
f 6/6/6/6 9/9/9/9 7/7/7/7 
f 8/8/8/8 10/10/10/10 11/11/11/11 
f 8/8/8/8 11/11/11/11 9/9/9/9 
f 10/10/10/10 12/12/12/12 13/13/13/13 
f 10/10/10/10 13/13/13/13 11/11/11/11 
f 12/12/12/12 14/14/14/14 15/15/15/15 
f 12/12/12/12 15/15/15/15 13/13/13/13 
f 14/14/14/14 16/16/16/16 17/17/17/17 
f 14/14/14/14 17/17/17/17 15/15/15/15 
f 16/16/16/16 18/18/18/18 19/19/19/19 
f 16/16/16/16 19/19/19/19 17/17/17/17 
f 18/18/18/18 20/20/20/20 21/21/21/21 
f 18/18/18/18 21/21/21/21 19/19/19/19 
f 20/20/20/20 22/22/22/22 23/23/23/23 
f 20/20/20/20 23/23/23/23 21/21/21/21 
f 22/22/22/22 24/24/24/24 25/25/25/25 
f 22/22/22/22 25/25/25/25 23/23/23/23 
f 24/24/24/24 26/26/26/26 27/27/27/27 
f 24/24/24/24 27/27/27/27 25/25/25/25 
f 26/26/26/26 28/28/28/28 29/29/29/29 
f 26/26/26/26 29/29/29/29 27/27/27/27 
f 28/28/28/28 30/30/30/30 31/31/31/31 
f 28/28/28/28 31/31/31/31 29/29/29/29 
f 30/30/30/30 32/32/32/32 33/33/33/33 
f 30/30/30/30 33/33/33/33 31/31/31/31 
f 32/32/32/32 34/34/34/34 35/35/35/35 
f 32/32/32/32 35/35/35/35 33/33/33/33 
f 34/34/34/34 36/36/36/36 37/37/37/37 
f 34/34/34/34 37/37/37/37 35/35/35/35 
f 36/36/36/36 38/38/38/38 39/39/39/39 
f 36/36/36/36 39/39/39/39 37/37/37/37 
f 38/38/38/38 40/40/40/40 41/41/41/41 
f 38/38/38/38 41/41/41/41 39/39/39/39 
f 40/40/40/40 42/42/42/42 43/43/43/43 
f 40/40/40/40 43/43/43/43 41/41/41/41 
f 42/42/42/42 44/44/44/44 45/45/45/45 
f 42/42/42/42 45/45/45/45 43/43/43/43 
f 44/44/44/44 46/46/46/46 47/47/47/47 
f 44/44/44/44 47/47/47/47 45/45/45/45 
f 46/46/46/46 0/0/0/0 3/3/3/3 
f 46/46/46/46 3/3/3/3 47/47/47/47 
f 48/48/48/48 49/49/49/49 50/50/50/50 
f 48/48/48/48 50/50/50/50 51/51/51/51 
f 50/50/50/50 52/52/52/52 53/53/53/53 
f 50/50/50/50 53/53/53/53 51/51/51/51 
f 54/54/54/54 52/52/52/52 50/50/50/50 
f 54/54/54/54 50/50/50/50 55/55/55/55 
f 56/56/56/56 57/57/57/57 58/58/58/58 
f 56/56/56/56 58/58/58/58 59/59/59/59 
f 58/58/58/58 60/60/60/60 61/61/61/61 
f 58/58/58/58 61/61/61/61 59/59/59/59 
f 53/53/53/53 60/60/60/60 58/58/58/58 
f 53/53/53/53 58/58/58/58 51/51/51/51 
f 62/62/62/62 63/63/63/63 64/64/64/64 
f 62/62/62/62 64/64/64/64 65/65/65/65 
f 64/64/64/64 66/66/66/66 67/67/67/67 
f 64/64/64/64 67/67/67/67 65/65/65/65 
f 61/61/61/61 66/66/66/66 64/64/64/64 
f 61/61/61/61 64/64/64/64 59/59/59/59 
f 68/68/68/68 69/69/69/69 70/70/70/70 
f 68/68/68/68 70/70/70/70 71/71/71/71 
f 70/70/70/70 72/72/72/72 73/73/73/73 
f 70/70/70/70 73/73/73/73 71/71/71/71 
f 67/67/67/67 72/72/72/72 70/70/70/70 
f 67/67/67/67 70/70/70/70 65/65/65/65 
f 74/74/74/74 75/75/75/75 76/76/76/76 
f 74/74/74/74 76/76/76/76 77/77/77/77 
f 76/76/76/76 78/78/78/78 79/79/79/79 
f 76/76/76/76 79/79/79/79 77/77/77/77 
f 73/73/73/73 78/78/78/78 76/76/76/76 
f 73/73/73/73 76/76/76/76 71/71/71/71 
f 80/80/80/80 81/81/81/81 82/82/82/82 
f 80/80/80/80 82/82/82/82 83/83/83/83 
f 82/82/82/82 84/84/84/84 85/85/85/85 
f 82/82/82/82 85/85/85/85 83/83/83/83 
f 79/79/79/79 84/84/84/84 82/82/82/82 
f 79/79/79/79 82/82/82/82 77/77/77/77 
f 86/86/86/86 87/87/87/87 88/88/88/88 
f 86/86/86/86 88/88/88/88 89/89/89/89 
f 88/88/88/88 90/90/90/90 91/91/91/91 
f 88/88/88/88 91/91/91/91 89/89/89/89 
f 85/85/85/85 90/90/90/90 88/88/88/88 
f 85/85/85/85 88/88/88/88 83/83/83/83 
f 92/92/92/92 93/93/93/93 94/94/94/94 
f 92/92/92/92 94/94/94/94 95/95/95/95 
f 94/94/94/94 96/96/96/96 97/97/97/97 
f 94/94/94/94 97/97/97/97 95/95/95/95 
f 91/91/91/91 96/96/96/96 94/94/94/94 
f 91/91/91/91 94/94/94/94 89/89/89/89 
f 98/98/98/98 99/99/99/99 100/100/100/100 
f 98/98/98/98 100/100/100/100 101/101/101/101 
f 100/100/100/100 102/102/102/102 103/103/103/103 
f 100/100/100/100 103/103/103/103 101/101/101/101 
f 97/97/97/97 102/102/102/102 100/100/100/100 
f 97/97/97/97 100/100/100/100 95/95/95/95 
f 104/104/104/104 105/105/105/105 106/106/106/106 
f 104/104/104/104 106/106/106/106 107/107/107/107 
f 106/106/106/106 108/108/108/108 109/109/109/109 
f 106/106/106/106 109/109/109/109 107/107/107/107 
f 103/103/103/103 108/108/108/108 106/106/106/106 
f 103/103/103/103 106/106/106/106 101/101/101/101 
f 110/110/110/110 111/111/111/111 112/112/112/112 
f 110/110/110/110 112/112/112/112 113/113/113/113 
f 112/112/112/112 114/114/114/114 115/115/115/115 
f 112/112/112/112 115/115/115/115 113/113/113/113 
f 109/109/109/109 114/114/114/114 112/112/112/112 
f 109/109/109/109 112/112/112/112 107/107/107/107 
f 116/116/116/116 117/117/117/117 118/118/118/118 
f 116/116/116/116 118/118/118/118 55/55/55/55 
f 118/118/118/118 119/119/119/119 54/54/54/54 
f 118/118/118/118 54/54/54/54 55/55/55/55 
f 115/115/115/115 119/119/119/119 118/118/118/118 
f 115/115/115/115 118/118/118/118 113/113/113/113 
f 120/120/120/120 49/49/49/49 48/48/48/48 
f 120/120/120/120 48/48/48/48 121/121/121/121 
f 49/49/49/49 120/120/120/120 122/122/122/122 
f 49/49/49/49 122/122/122/122 116/116/116/116 
f 123/123/123/123 57/57/57/57 56/56/56/56 
f 123/123/123/123 56/56/56/56 124/124/124/124 
f 57/57/57/57 123/123/123/123 121/121/121/121 
f 57/57/57/57 121/121/121/121 48/48/48/48 
f 125/125/125/125 63/63/63/63 62/62/62/62 
f 125/125/125/125 62/62/62/62 126/126/126/126 
f 63/63/63/63 125/125/125/125 124/124/124/124 
f 63/63/63/63 124/124/124/124 56/56/56/56 
f 127/127/127/127 69/69/69/69 68/68/68/68 
f 127/127/127/127 68/68/68/68 128/128/128/128 
f 69/69/69/69 127/127/127/127 126/126/126/126 
f 69/69/69/69 126/126/126/126 62/62/62/62 
f 129/129/129/129 75/75/75/75 74/74/74/74 
f 129/129/129/129 74/74/74/74 130/130/130/130 
f 75/75/75/75 129/129/129/129 128/128/128/128 
f 75/75/75/75 128/128/128/128 68/68/68/68 
f 131/131/131/131 81/81/81/81 80/80/80/80 
f 131/131/131/131 80/80/80/80 132/132/132/132 
f 81/81/81/81 131/131/131/131 130/130/130/130 
f 81/81/81/81 130/130/130/130 74/74/74/74 
f 133/133/133/133 87/87/87/87 86/86/86/86 
f 133/133/133/133 86/86/86/86 134/134/134/134 
f 87/87/87/87 133/133/133/133 132/132/132/132 
f 87/87/87/87 132/132/132/132 80/80/80/80 
f 135/135/135/135 93/93/93/93 92/92/92/92 
f 135/135/135/135 92/92/92/92 136/136/136/136 
f 93/93/93/93 135/135/135/135 134/134/134/134 
f 93/93/93/93 134/134/134/134 86/86/86/86 
f 137/137/137/137 99/99/99/99 98/98/98/98 
f 137/137/137/137 98/98/98/98 138/138/138/138 
f 99/99/99/99 137/137/137/137 136/136/136/136 
f 99/99/99/99 136/136/136/136 92/92/92/92 
f 139/139/139/139 105/105/105/105 104/104/104/104 
f 139/139/139/139 104/104/104/104 140/140/140/140 
f 105/105/105/105 139/139/139/139 138/138/138/138 
f 105/105/105/105 138/138/138/138 98/98/98/98 
f 141/141/141/141 111/111/111/111 110/110/110/110 
f 141/141/141/141 110/110/110/110 142/142/142/142 
f 111/111/111/111 141/141/141/141 140/140/140/140 
f 111/111/111/111 140/140/140/140 104/104/104/104 
f 143/143/143/143 117/117/117/117 116/116/116/116 
f 143/143/143/143 116/116/116/116 122/122/122/122 
f 117/117/117/117 143/143/143/143 142/142/142/142 
f 117/117/117/117 142/142/142/142 110/110/110/110 
f 144/144/144/144 145/145/145/145 146/146/146/146 
f 144/144/144/144 146/146/146/146 147/147/147/147 
f 145/145/145/145 148/148/148/148 149/149/149/149 
f 145/145/145/145 149/149/149/149 146/146/146/146 
f 148/148/148/148 150/150/150/150 151/151/151/151 
f 148/148/148/148 151/151/151/151 149/149/149/149 
f 150/150/150/150 152/152/152/152 153/153/153/153 
f 150/150/150/150 153/153/153/153 151/151/151/151 
f 152/152/152/152 154/154/154/154 155/155/155/155 
f 152/152/152/152 155/155/155/155 153/153/153/153 
f 154/154/154/154 156/156/156/156 157/157/157/157 
f 154/154/154/154 157/157/157/157 155/155/155/155 
f 156/156/156/156 158/158/158/158 159/159/159/159 
f 156/156/156/156 159/159/159/159 157/157/157/157 
f 158/158/158/158 160/160/160/160 161/161/161/161 
f 158/158/158/158 161/161/161/161 159/159/159/159 
f 160/160/160/160 162/162/162/162 163/163/163/163 
f 160/160/160/160 163/163/163/163 161/161/161/161 
f 162/162/162/162 164/164/164/164 165/165/165/165 
f 162/162/162/162 165/165/165/165 163/163/163/163 
f 164/164/164/164 166/166/166/166 167/167/167/167 
f 164/164/164/164 167/167/167/167 165/165/165/165 
f 166/166/166/166 168/168/168/168 169/169/169/169 
f 166/166/166/166 169/169/169/169 167/167/167/167 
f 168/168/168/168 170/170/170/170 171/171/171/171 
f 168/168/168/168 171/171/171/171 169/169/169/169 
f 170/170/170/170 172/172/172/172 173/173/173/173 
f 170/170/170/170 173/173/173/173 171/171/171/171 
f 172/172/172/172 174/174/174/174 175/175/175/175 
f 172/172/172/172 175/175/175/175 173/173/173/173 
f 174/174/174/174 176/176/176/176 177/177/177/177 
f 174/174/174/174 177/177/177/177 175/175/175/175 
f 176/176/176/176 178/178/178/178 179/179/179/179 
f 176/176/176/176 179/179/179/179 177/177/177/177 
f 178/178/178/178 180/180/180/180 181/181/181/181 
f 178/178/178/178 181/181/181/181 179/179/179/179 
f 180/180/180/180 182/182/182/182 183/183/183/183 
f 180/180/180/180 183/183/183/183 181/181/181/181 
f 182/182/182/182 184/184/184/184 185/185/185/185 
f 182/182/182/182 185/185/185/185 183/183/183/183 
f 184/184/184/184 186/186/186/186 187/187/187/187 
f 184/184/184/184 187/187/187/187 185/185/185/185 
f 186/186/186/186 188/188/188/188 189/189/189/189 
f 186/186/186/186 189/189/189/189 187/187/187/187 
f 188/188/188/188 190/190/190/190 191/191/191/191 
f 188/188/188/188 191/191/191/191 189/189/189/189 
f 190/190/190/190 144/144/144/144 147/147/147/147 
f 190/190/190/190 147/147/147/147 191/191/191/191 
f 192/192/192/192 193/193/193/193 52/52/52/52 
f 192/192/192/192 52/52/52/52 54/54/54/54 
f 193/193/193/193 194/194/194/194 53/53/53/53 
f 193/193/193/193 53/53/53/53 52/52/52/52 
f 194/194/194/194 195/195/195/195 60/60/60/60 
f 194/194/194/194 60/60/60/60 53/53/53/53 
f 195/195/195/195 196/196/196/196 61/61/61/61 
f 195/195/195/195 61/61/61/61 60/60/60/60 
f 196/196/196/196 197/197/197/197 66/66/66/66 
f 196/196/196/196 66/66/66/66 61/61/61/61 
f 197/197/197/197 198/198/198/198 67/67/67/67 
f 197/197/197/197 67/67/67/67 66/66/66/66 
f 198/198/198/198 199/199/199/199 72/72/72/72 
f 198/198/198/198 72/72/72/72 67/67/67/67 
f 199/199/199/199 200/200/200/200 73/73/73/73 
f 199/199/199/199 73/73/73/73 72/72/72/72 
f 200/200/200/200 201/201/201/201 78/78/78/78 
f 200/200/200/200 78/78/78/78 73/73/73/73 
f 201/201/201/201 202/202/202/202 79/79/79/79 
f 201/201/201/201 79/79/79/79 78/78/78/78 
f 202/202/202/202 203/203/203/203 84/84/84/84 
f 202/202/202/202 84/84/84/84 79/79/79/79 
f 203/203/203/203 204/204/204/204 85/85/85/85 
f 203/203/203/203 85/85/85/85 84/84/84/84 
f 204/204/204/204 205/205/205/205 90/90/90/90 
f 204/204/204/204 90/90/90/90 85/85/85/85 
f 205/205/205/205 206/206/206/206 91/91/91/91 
f 205/205/205/205 91/91/91/91 90/90/90/90 
f 206/206/206/206 207/207/207/207 96/96/96/96 
f 206/206/206/206 96/96/96/96 91/91/91/91 
f 207/207/207/207 208/208/208/208 97/97/97/97 
f 207/207/207/207 97/97/97/97 96/96/96/96 
f 208/208/208/208 209/209/209/209 102/102/102/102 
f 208/208/208/208 102/102/102/102 97/97/97/97 
f 209/209/209/209 210/210/210/210 103/103/103/103 
f 209/209/209/209 103/103/103/103 102/102/102/102 
f 210/210/210/210 211/211/211/211 108/108/108/108 
f 210/210/210/210 108/108/108/108 103/103/103/103 
f 211/211/211/211 212/212/212/212 109/109/109/109 
f 211/211/211/211 109/109/109/109 108/108/108/108 
f 212/212/212/212 213/213/213/213 114/114/114/114 
f 212/212/212/212 114/114/114/114 109/109/109/109 
f 213/213/213/213 214/214/214/214 115/115/115/115 
f 213/213/213/213 115/115/115/115 114/114/114/114 
f 214/214/214/214 215/215/215/215 119/119/119/119 
f 214/214/214/214 119/119/119/119 115/115/115/115 
f 215/215/215/215 192/192/192/192 54/54/54/54 
f 215/215/215/215 54/54/54/54 119/119/119/119 
f 192/192/192/192 216/216/216/216 193/193/193/193 
f 193/193/193/193 216/216/216/216 194/194/194/194 
f 194/194/194/194 216/216/216/216 195/195/195/195 
f 195/195/195/195 216/216/216/216 196/196/196/196 
f 196/196/196/196 216/216/216/216 197/197/197/197 
f 197/197/197/197 216/216/216/216 198/198/198/198 
f 198/198/198/198 216/216/216/216 199/199/199/199 
f 199/199/199/199 216/216/216/216 200/200/200/200 
f 200/200/200/200 216/216/216/216 201/201/201/201 
f 201/201/201/201 216/216/216/216 202/202/202/202 
f 202/202/202/202 216/216/216/216 203/203/203/203 
f 203/203/203/203 216/216/216/216 204/204/204/204 
f 204/204/204/204 216/216/216/216 205/205/205/205 
f 205/205/205/205 216/216/216/216 206/206/206/206 
f 206/206/206/206 216/216/216/216 207/207/207/207 
f 207/207/207/207 216/216/216/216 208/208/208/208 
f 208/208/208/208 216/216/216/216 209/209/209/209 
f 209/209/209/209 216/216/216/216 210/210/210/210 
f 210/210/210/210 216/216/216/216 211/211/211/211 
f 211/211/211/211 216/216/216/216 212/212/212/212 
f 212/212/212/212 216/216/216/216 213/213/213/213 
f 213/213/213/213 216/216/216/216 214/214/214/214 
f 214/214/214/214 216/216/216/216 215/215/215/215 
f 215/215/215/215 216/216/216/216 192/192/192/192 
f 1/1/1/1 217/217/217/217 218/218/218/218 
f 1/1/1/1 218/218/218/218 4/4/4/4 
f 220/219/219/219 0/0/0/0 46/46/46/46 
f 220/219/219/219 46/46/46/46 219/220/220/220 
f 42/42/42/42 221/221/221/221 222/222/222/222 
f 42/42/42/42 222/222/222/222 44/44/44/44 
f 38/38/38/38 223/223/223/223 224/224/224/224 
f 38/38/38/38 224/224/224/224 40/40/40/40 
f 34/34/34/34 225/225/225/225 226/226/226/226 
f 34/34/34/34 226/226/226/226 36/36/36/36 
f 30/30/30/30 227/227/227/227 228/228/228/228 
f 30/30/30/30 228/228/228/228 32/32/32/32 
f 26/26/26/26 229/229/229/229 230/230/230/230 
f 26/26/26/26 230/230/230/230 28/28/28/28 
f 22/22/22/22 231/231/231/231 232/232/232/232 
f 22/22/22/22 232/232/232/232 24/24/24/24 
f 18/18/18/18 233/233/233/233 234/234/234/234 
f 18/18/18/18 234/234/234/234 20/20/20/20 
f 14/14/14/14 235/235/235/235 236/236/236/236 
f 14/14/14/14 236/236/236/236 16/16/16/16 
f 10/10/10/10 237/237/237/237 238/238/238/238 
f 10/10/10/10 238/238/238/238 12/12/12/12 
f 6/6/6/6 239/239/239/239 240/240/240/240 
f 6/6/6/6 240/240/240/240 8/8/8/8 
f 144/144/144/144 190/190/190/190 239/239/239/239 
f 144/144/144/144 239/239/239/239 218/218/218/218 
f 190/190/190/190 188/188/188/188 240/240/240/240 
f 190/190/190/190 240/240/240/240 239/239/239/239 
f 188/188/188/188 186/186/186/186 237/237/237/237 
f 188/188/188/188 237/237/237/237 240/240/240/240 
f 184/184/184/184 182/182/182/182 235/235/235/235 
f 184/184/184/184 235/235/235/235 238/238/238/238 
f 180/180/180/180 178/178/178/178 233/233/233/233 
f 180/180/180/180 233/233/233/233 236/236/236/236 
f 176/176/176/176 174/174/174/174 231/231/231/231 
f 176/176/176/176 231/231/231/231 234/234/234/234 
f 172/172/172/172 170/170/170/170 229/229/229/229 
f 172/172/172/172 229/229/229/229 232/232/232/232 
f 168/168/168/168 166/166/166/166 227/227/227/227 
f 168/168/168/168 227/227/227/227 230/230/230/230 
f 164/164/164/164 162/162/162/162 225/225/225/225 
f 164/164/164/164 225/225/225/225 228/228/228/228 
f 160/160/160/160 158/158/158/158 223/223/223/223 
f 160/160/160/160 223/223/223/223 226/226/226/226 
f 156/156/156/156 154/154/154/154 221/221/221/221 
f 156/156/156/156 221/221/221/221 224/224/224/224 
f 152/152/152/152 150/150/150/150 219/220/220/220 
f 152/152/152/152 219/220/220/220 222/222/222/222 
f 148/148/148/148 145/145/145/145 217/217/217/217 
f 148/148/148/148 217/217/217/217 220/219/219/219 
f 220/219/219/219 219/220/220/220 150/150/150/150 
f 220/219/219/219 150/150/150/150 148/148/148/148 
f 222/222/222/222 221/221/221/221 154/154/154/154 
f 222/222/222/222 154/154/154/154 152/152/152/152 
f 224/224/224/224 223/223/223/223 158/158/158/158 
f 224/224/224/224 158/158/158/158 156/156/156/156 
f 226/226/226/226 225/225/225/225 162/162/162/162 
f 226/226/226/226 162/162/162/162 160/160/160/160 
f 228/228/228/228 227/227/227/227 166/166/166/166 
f 228/228/228/228 166/166/166/166 164/164/164/164 
f 230/230/230/230 229/229/229/229 170/170/170/170 
f 230/230/230/230 170/170/170/170 168/168/168/168 
f 232/232/232/232 231/231/231/231 174/174/174/174 
f 232/232/232/232 174/174/174/174 172/172/172/172 
f 234/234/234/234 233/233/233/233 178/178/178/178 
f 234/234/234/234 178/178/178/178 176/176/176/176 
f 236/236/236/236 235/235/235/235 182/182/182/182 
f 236/236/236/236 182/182/182/182 180/180/180/180 
f 238/238/238/238 237/237/237/237 186/186/186/186 
f 238/238/238/238 186/186/186/186 184/184/184/184 
f 218/218/218/218 217/217/217/217 145/145/145/145 
f 218/218/218/218 145/145/145/145 144/144/144/144 
f 0/0/0/0 220/219/219/219 217/217/217/217 
f 0/0/0/0 217/217/217/217 1/1/1/1 
f 219/220/220/220 46/46/46/46 44/44/44/44 
f 219/220/220/220 44/44/44/44 222/222/222/222 
f 221/221/221/221 42/42/42/42 40/40/40/40 
f 221/221/221/221 40/40/40/40 224/224/224/224 
f 223/223/223/223 38/38/38/38 36/36/36/36 
f 223/223/223/223 36/36/36/36 226/226/226/226 
f 225/225/225/225 34/34/34/34 32/32/32/32 
f 225/225/225/225 32/32/32/32 228/228/228/228 
f 227/227/227/227 30/30/30/30 28/28/28/28 
f 227/227/227/227 28/28/28/28 230/230/230/230 
f 229/229/229/229 26/26/26/26 24/24/24/24 
f 229/229/229/229 24/24/24/24 232/232/232/232 
f 231/231/231/231 22/22/22/22 20/20/20/20 
f 231/231/231/231 20/20/20/20 234/234/234/234 
f 233/233/233/233 18/18/18/18 16/16/16/16 
f 233/233/233/233 16/16/16/16 236/236/236/236 
f 235/235/235/235 14/14/14/14 12/12/12/12 
f 235/235/235/235 12/12/12/12 238/238/238/238 
f 237/237/237/237 10/10/10/10 8/8/8/8 
f 237/237/237/237 8/8/8/8 240/240/240/240 
f 239/239/239/239 6/6/6/6 4/4/4/4 
f 239/239/239/239 4/4/4/4 218/218/218/218 
f 50/50/50/50 49/49/49/49 116/116/116/116 
f 50/50/50/50 116/116/116/116 55/55/55/55 
f 58/58/58/58 57/57/57/57 48/48/48/48 
f 58/58/58/58 48/48/48/48 51/51/51/51 
f 64/64/64/64 63/63/63/63 56/56/56/56 
f 64/64/64/64 56/56/56/56 59/59/59/59 
f 70/70/70/70 69/69/69/69 62/62/62/62 
f 70/70/70/70 62/62/62/62 65/65/65/65 
f 76/76/76/76 75/75/75/75 68/68/68/68 
f 76/76/76/76 68/68/68/68 71/71/71/71 
f 82/82/82/82 81/81/81/81 74/74/74/74 
f 82/82/82/82 74/74/74/74 77/77/77/77 
f 88/88/88/88 87/87/87/87 80/80/80/80 
f 88/88/88/88 80/80/80/80 83/83/83/83 
f 94/94/94/94 93/93/93/93 86/86/86/86 
f 94/94/94/94 86/86/86/86 89/89/89/89 
f 100/100/100/100 99/99/99/99 92/92/92/92 
f 100/100/100/100 92/92/92/92 95/95/95/95 
f 106/106/106/106 105/105/105/105 98/98/98/98 
f 106/106/106/106 98/98/98/98 101/101/101/101 
f 112/112/112/112 111/111/111/111 104/104/104/104 
f 112/112/112/112 104/104/104/104 107/107/107/107 
f 118/118/118/118 117/117/117/117 110/110/110/110 
f 118/118/118/118 110/110/110/110 113/113/113/113 
f 121/121/121/121 147/147/147/147 146/146/146/146 
f 121/121/121/121 146/146/146/146 120/120/120/120 
f 120/120/120/120 146/146/146/146 149/149/149/149 
f 120/120/120/120 149/149/149/149 122/122/122/122 
f 124/124/124/124 189/189/189/189 191/191/191/191 
f 124/124/124/124 191/191/191/191 123/123/123/123 
f 123/123/123/123 191/191/191/191 147/147/147/147 
f 123/123/123/123 147/147/147/147 121/121/121/121 
f 126/126/126/126 185/185/185/185 187/187/187/187 
f 126/126/126/126 187/187/187/187 125/125/125/125 
f 125/125/125/125 187/187/187/187 189/189/189/189 
f 125/125/125/125 189/189/189/189 124/124/124/124 
f 128/128/128/128 181/181/181/181 183/183/183/183 
f 128/128/128/128 183/183/183/183 127/127/127/127 
f 127/127/127/127 183/183/183/183 185/185/185/185 
f 127/127/127/127 185/185/185/185 126/126/126/126 
f 130/130/130/130 177/177/177/177 179/179/179/179 
f 130/130/130/130 179/179/179/179 129/129/129/129 
f 129/129/129/129 179/179/179/179 181/181/181/181 
f 129/129/129/129 181/181/181/181 128/128/128/128 
f 132/132/132/132 173/173/173/173 175/175/175/175 
f 132/132/132/132 175/175/175/175 131/131/131/131 
f 131/131/131/131 175/175/175/175 177/177/177/177 
f 131/131/131/131 177/177/177/177 130/130/130/130 
f 134/134/134/134 169/169/169/169 171/171/171/171 
f 134/134/134/134 171/171/171/171 133/133/133/133 
f 133/133/133/133 171/171/171/171 173/173/173/173 
f 133/133/133/133 173/173/173/173 132/132/132/132 
f 136/136/136/136 165/165/165/165 167/167/167/167 
f 136/136/136/136 167/167/167/167 135/135/135/135 
f 135/135/135/135 167/167/167/167 169/169/169/169 
f 135/135/135/135 169/169/169/169 134/134/134/134 
f 138/138/138/138 161/161/161/161 163/163/163/163 
f 138/138/138/138 163/163/163/163 137/137/137/137 
f 137/137/137/137 163/163/163/163 165/165/165/165 
f 137/137/137/137 165/165/165/165 136/136/136/136 
f 140/140/140/140 157/157/157/157 159/159/159/159 
f 140/140/140/140 159/159/159/159 139/139/139/139 
f 139/139/139/139 159/159/159/159 161/161/161/161 
f 139/139/139/139 161/161/161/161 138/138/138/138 
f 142/142/142/142 153/153/153/153 155/155/155/155 
f 142/142/142/142 155/155/155/155 141/141/141/141 
f 141/141/141/141 155/155/155/155 157/157/157/157 
f 141/141/141/141 157/157/157/157 140/140/140/140 
f 122/122/122/122 149/149/149/149 151/151/151/151 
f 122/122/122/122 151/151/151/151 143/143/143/143 
f 143/143/143/143 151/151/151/151 153/153/153/153 
f 143/143/143/143 153/153/153/153 142/142/142/142 
