v 822.1699 695.3228 241.3048
v 871.1917 695.3228 241.3048
v 871.1917 695.3228 197.0392
v 821.3568 695.3228 171.6469
v 844.9862 695.3228 170.8338
v 822.1699 695.3228 170.8338
v 821.3568 695.3228 240.4916
v 871.1917 520.3422 234.0068
v 871.1917 660.3632 234.0068
v 829.4016 660.3632 234.0068
v 829.3273 520.3422 234.0068
v 828.6557 520.3422 233.3351
v 828.6557 660.3632 233.261
v 828.6557 660.3633 178.8776
v 828.6557 520.3423 178.8035
v 828.8183 664.2319 177.5624
v 827.9963 670.6963 176.7862
v 850.9385 670.6963 176.7862
v 851.7148 664.2319 177.5624
v 827.3099 670.6964 234.666
v 827.3099 670.6963 177.4725
v 828.0862 664.2319 178.2944
v 828.0862 664.2318 233.8442
v 871.1917 686.5966 241.3048
v 871.1917 690.9595 241.3048
v 822.0922 690.9595 241.3048
v 822.0568 686.5966 241.3048
v 821.3568 686.5966 240.6047
v 821.3568 690.9595 240.5694
v 821.3568 690.9596 171.5692
v 821.3568 686.5966 171.5339
v 829.4016 660.3633 178.1318
v 827.2776 662.2976 175.9358
v 850.0881 662.2976 175.9358
v 852.2841 660.3633 178.1318
v 826.4594 662.2975 235.3847
v 826.4594 662.2976 176.7539
v 822.0922 690.9596 170.8338
v 820.1243 693.1412 168.7884
v 842.9407 693.1412 168.7884
v 844.9862 690.9596 170.8338
v 819.311 693.1411 242.5371
v 819.311 693.1412 169.6015
v 825.395 679.6953 174.1578
v 822.0568 686.5966 170.8338
v 844.9862 686.5966 170.8338
v 848.3102 679.6953 174.1578
v 824.6812 679.6953 174.8717
v 824.6812 679.6953 237.2669
v 825.395 679.6953 237.9808
v 829.3273 520.3423 178.1318
v 827.2776 662.2975 236.2028
v 828.8183 664.2318 234.5761
v 820.1243 693.1411 243.3502
v 827.9963 670.6964 235.3524
v 828.0399 518.7642 178.202
v 821.1014 511.8407 171.4311
v 821.1014 511.8407 240.7075
v 828.0399 518.7642 233.9365
v 828.7259 518.7642 177.5161
v 821.954 511.8407 170.5785
v 851.6685 518.7642 177.5161
v 844.7308 511.8407 170.5785
v 821.954 511.8407 241.5601
v 828.7259 518.7642 234.6225
v 819.6448 511.8407 170.8278
v 819.6448 509.4903 170.8278
v 819.6448 509.4903 241.3108
v 819.6448 511.8407 241.3108
v 821.3506 511.8407 169.1218
v 821.3506 509.4903 169.1218
v 843.2743 511.8407 169.1218
v 843.2743 509.4903 169.1218
v 821.3506 509.4903 243.0167
v 821.3506 511.8407 243.0167
v 827.528 519.5532 234.4359
v 827.528 519.5532 177.7026
v 828.2264 519.5532 177.0041
v 851.1564 519.5532 177.0041
v 828.2264 519.5532 235.1345
v 821.1014 507.1399 171.4311
v 821.1014 507.1399 240.7075
v 821.1014 509.4903 240.7075
v 821.1014 509.4903 171.4311
v 821.954 507.1399 170.5785
v 821.954 509.4903 170.5785
v 821.954 507.1399 241.5601
v 871.1917 507.1399 241.5601
v 871.1917 509.4903 241.5601
v 821.954 509.4903 241.5601
v 852.2841 520.3423 178.1318
v 871.1917 509.4903 243.0167
v 871.1917 670.6962 235.3524
v 871.1917 664.2318 234.5761
v 871.1917 662.2975 236.2028
v 871.1917 693.1411 243.3502
v 871.1917 679.6953 237.9808
v 871.1917 511.8407 241.5601
v 871.1917 518.7642 234.6225
v 871.1917 511.8407 243.0167
v 871.1917 519.5532 235.1345
v 908.7285 664.2318 234.5761
v 909.5047 670.6962 235.3524
v 908.1592 660.3632 234.0068
v 910.3552 662.2975 236.2028
v 915.4571 690.9595 241.3048
v 917.5026 693.1411 243.3502
v 915.4571 695.3228 241.3048
v 912.1331 679.6953 237.9808
v 915.4571 686.5966 241.3048
v 915.7125 511.8407 241.5601
v 908.7748 518.7642 234.6225
v 917.169 509.4903 243.0167
v 917.169 511.8407 243.0167
v 909.2869 519.5532 235.1345
v 908.1592 520.3422 234.0068
v 844.7308 509.4903 170.5785
v 844.7308 507.1399 170.5785
v 915.7125 507.1398 241.5601
v 915.7125 509.4903 241.5601
v 845.7992 695.3228 147.2044
v 844.9862 695.3228 148.0176
v 915.4571 695.3228 148.0176
v 915.4571 695.3228 197.0392
v 914.644 695.3228 147.2044
v 908.1592 660.3633 155.2492
v 908.1592 660.3632 197.0392
v 908.1592 520.3422 197.0392
v 908.1592 520.3423 155.1751
v 853.03 660.3633 154.5034
v 907.4133 660.3633 154.5034
v 907.4875 520.3423 154.5034
v 852.9558 520.3423 154.5034
v 851.7148 664.2319 154.6659
v 850.9385 670.6963 153.8439
v 852.4468 664.2319 153.9339
v 851.6249 670.6963 153.1576
v 908.8184 670.6964 153.1576
v 907.9965 664.2319 153.9339
v 915.4571 690.9596 147.9398
v 915.4571 690.9595 197.0392
v 915.4571 686.5966 197.0392
v 915.4571 686.5966 147.9045
v 845.7216 690.9596 147.2044
v 914.7217 690.9596 147.2044
v 914.757 686.5966 147.2044
v 845.6863 686.5966 147.2044
v 852.2841 660.3633 155.2492
v 850.0881 662.2976 153.1252
v 850.9062 662.2976 152.307
v 909.5371 662.2976 152.307
v 844.9862 690.9596 147.9398
v 842.9407 693.1412 145.9718
v 843.7539 693.1412 145.1586
v 916.6894 693.1412 145.1586
v 848.3102 679.6953 151.2427
v 844.9862 686.5966 147.9045
v 849.024 679.6953 150.5288
v 911.4193 679.6953 150.5288
v 912.1331 679.6953 151.2427
v 852.2841 520.3423 155.1751
v 910.3552 662.2976 153.1252
v 908.7285 664.2319 154.6659
v 917.5026 693.1412 145.9718
v 909.5047 670.6964 153.8439
v 914.8598 511.8407 146.949
v 845.5835 511.8407 146.949
v 852.3544 518.7642 153.8876
v 908.0889 518.7642 153.8876
v 844.7307 511.8407 147.8016
v 851.6685 518.7642 154.5735
v 915.7123 511.8407 147.8016
v 908.7748 518.7642 154.5735
v 915.4631 509.4903 145.4924
v 844.9802 509.4903 145.4924
v 844.9802 511.8407 145.4924
v 915.4631 511.8407 145.4924
v 843.2742 509.4903 147.1984
v 843.2742 511.8407 147.1984
v 917.169 509.4903 147.1983
v 917.169 511.8407 147.1983
v 851.8549 519.5532 153.3755
v 908.5884 519.5532 153.3755
v 851.1564 519.5532 154.074
v 909.2869 519.5532 154.074
v 914.8598 509.4903 146.949
v 914.8598 507.1398 146.949
v 845.5835 507.1398 146.949
v 845.5835 509.4903 146.949
v 844.7307 507.1398 147.8016
v 844.7307 509.4903 147.8016
v 915.7125 509.4903 197.0392
v 915.7125 507.1398 197.0392
v 915.7123 507.1398 147.8016
v 915.7123 509.4903 147.8016
v 917.169 509.4903 197.0392
v 909.5047 670.6962 197.0392
v 908.7285 664.2318 197.0392
v 910.3552 662.2975 197.0392
v 917.5026 693.1411 197.0392
v 912.1331 679.6953 197.0392
v 915.7125 511.8407 197.0392
v 908.7748 518.7642 197.0392
v 917.169 511.8407 197.0392
v 909.2869 519.5532 197.0392
gi 0 0 0 0
gi 0 0 0 0
gi 0 0 0 0
gi 0 0 0 0
gi 0 0 0 0
gi 0 0 0 0
gi 0 0 0 0
gi 0 0 0 0
gi 0 0 0 0
gi 0 0 0 0
gi 0 0 0 0
gi 0 0 0 0
gi 0 0 0 0
gi 0 0 0 0
gi 0 0 0 0
gi 0 0 0 0
gi 0 0 0 0
gi 0 0 0 0
gi 0 0 0 0
gi 0 0 0 0
gi 0 0 0 0
gi 0 0 0 0
gi 0 0 0 0
gi 0 0 0 0
gi 0 0 0 0
gi 0 0 0 0
gi 0 0 0 0
gi 0 0 0 0
gi 0 0 0 0
gi 0 0 0 0
gi 0 0 0 0
gi 0 0 0 0
gi 0 0 0 0
gi 0 0 0 0
gi 0 0 0 0
gi 0 0 0 0
gi 0 0 0 0
gi 0 0 0 0
gi 0 0 0 0
gi 0 0 0 0
gi 0 0 0 0
gi 0 0 0 0
gi 0 0 0 0
gi 0 0 0 0
gi 0 0 0 0
gi 0 0 0 0
gi 0 0 0 0
gi 0 0 0 0
gi 0 0 0 0
gi 0 0 0 0
gi 0 0 0 0
gi 0 0 0 0
gi 0 0 0 0
gi 0 0 0 0
gi 0 0 0 0
gi 0 0 0 0
gi 0 0 0 0
gi 0 0 0 0
gi 0 0 0 0
gi 0 0 0 0
gi 0 0 0 0
gi 0 0 0 0
gi 0 0 0 0
gi 0 0 0 0
gi 0 0 0 0
gi 0 0 0 0
gi 0 0 0 0
gi 0 0 0 0
gi 0 0 0 0
gi 0 0 0 0
gi 0 0 0 0
gi 0 0 0 0
gi 0 0 0 0
gi 0 0 0 0
gi 0 0 0 0
gi 0 0 0 0
gi 0 0 0 0
gi 0 0 0 0
gi 0 0 0 0
gi 0 0 0 0
gi 0 0 0 0
gi 0 0 0 0
gi 0 0 0 0
gi 0 0 0 0
gi 0 0 0 0
gi 0 0 0 0
gi 0 0 0 0
gi 0 0 0 0
gi 0 0 0 0
gi 0 0 0 0
gi 0 0 0 0
gi 0 0 0 0
gi 0 0 0 0
gi 0 0 0 0
gi 0 0 0 0
gi 0 0 0 0
gi 0 0 0 0
gi 0 0 0 0
gi 0 0 0 0
gi 0 0 0 0
gi 0 0 0 0
gi 0 0 0 0
gi 0 0 0 0
gi 0 0 0 0
gi 0 0 0 0
gi 0 0 0 0
gi 0 0 0 0
gi 0 0 0 0
gi 0 0 0 0
gi 0 0 0 0
gi 0 0 0 0
gi 0 0 0 0
gi 0 0 0 0
gi 0 0 0 0
gi 0 0 0 0
gi 0 0 0 0
gi 0 0 0 0
gi 0 0 0 0
gi 0 0 0 0
gi 0 0 0 0
gi 0 0 0 0
gi 0 0 0 0
gi 0 0 0 0
gi 0 0 0 0
gi 0 0 0 0
gi 0 0 0 0
gi 0 0 0 0
gi 0 0 0 0
gi 0 0 0 0
gi 0 0 0 0
gi 0 0 0 0
gi 0 0 0 0
gi 0 0 0 0
gi 0 0 0 0
gi 0 0 0 0
gi 0 0 0 0
gi 0 0 0 0
gi 0 0 0 0
gi 0 0 0 0
gi 0 0 0 0
gi 0 0 0 0
gi 0 0 0 0
gi 0 0 0 0
gi 0 0 0 0
gi 0 0 0 0
gi 0 0 0 0
gi 0 0 0 0
gi 0 0 0 0
gi 0 0 0 0
gi 0 0 0 0
gi 0 0 0 0
gi 0 0 0 0
gi 0 0 0 0
gi 0 0 0 0
gi 0 0 0 0
gi 0 0 0 0
gi 0 0 0 0
gi 0 0 0 0
gi 0 0 0 0
gi 0 0 0 0
gi 0 0 0 0
gi 0 0 0 0
gi 0 0 0 0
gi 0 0 0 0
gi 0 0 0 0
gi 0 0 0 0
gi 0 0 0 0
gi 0 0 0 0
gi 0 0 0 0
gi 0 0 0 0
gi 0 0 0 0
gi 0 0 0 0
gi 0 0 0 0
gi 0 0 0 0
gi 0 0 0 0
gi 0 0 0 0
gi 0 0 0 0
gi 0 0 0 0
gi 0 0 0 0
gi 0 0 0 0
gi 0 0 0 0
gi 0 0 0 0
gi 0 0 0 0
gi 0 0 0 0
gi 0 0 0 0
gi 0 0 0 0
gi 0 0 0 0
gi 0 0 0 0
gi 0 0 0 0
gi 0 0 0 0
gi 0 0 0 0
gi 0 0 0 0
gi 0 0 0 0
gi 0 0 0 0
gi 0 0 0 0
gi 0 0 0 0
gi 0 0 0 0
gi 0 0 0 0
gi 0 0 0 0
gi 0 0 0 0
gi 0 0 0 0
gi 0 0 0 0
gi 0 0 0 0
gi 0 0 0 0
gi 0 0 0 0
gw 0.0 0.0 0.0 0.0
gw 0.0 0.0 0.0 0.0
gw 0.0 0.0 0.0 0.0
gw 0.0 0.0 0.0 0.0
gw 0.0 0.0 0.0 0.0
gw 0.0 0.0 0.0 0.0
gw 0.0 0.0 0.0 0.0
gw 0.0 0.0 0.0 0.0
gw 0.0 0.0 0.0 0.0
gw 0.0 0.0 0.0 0.0
gw 0.0 0.0 0.0 0.0
gw 0.0 0.0 0.0 0.0
gw 0.0 0.0 0.0 0.0
gw 0.0 0.0 0.0 0.0
gw 0.0 0.0 0.0 0.0
gw 0.0 0.0 0.0 0.0
gw 0.0 0.0 0.0 0.0
gw 0.0 0.0 0.0 0.0
gw 0.0 0.0 0.0 0.0
gw 0.0 0.0 0.0 0.0
gw 0.0 0.0 0.0 0.0
gw 0.0 0.0 0.0 0.0
gw 0.0 0.0 0.0 0.0
gw 0.0 0.0 0.0 0.0
gw 0.0 0.0 0.0 0.0
gw 0.0 0.0 0.0 0.0
gw 0.0 0.0 0.0 0.0
gw 0.0 0.0 0.0 0.0
gw 0.0 0.0 0.0 0.0
gw 0.0 0.0 0.0 0.0
gw 0.0 0.0 0.0 0.0
gw 0.0 0.0 0.0 0.0
gw 0.0 0.0 0.0 0.0
gw 0.0 0.0 0.0 0.0
gw 0.0 0.0 0.0 0.0
gw 0.0 0.0 0.0 0.0
gw 0.0 0.0 0.0 0.0
gw 0.0 0.0 0.0 0.0
gw 0.0 0.0 0.0 0.0
gw 0.0 0.0 0.0 0.0
gw 0.0 0.0 0.0 0.0
gw 0.0 0.0 0.0 0.0
gw 0.0 0.0 0.0 0.0
gw 0.0 0.0 0.0 0.0
gw 0.0 0.0 0.0 0.0
gw 0.0 0.0 0.0 0.0
gw 0.0 0.0 0.0 0.0
gw 0.0 0.0 0.0 0.0
gw 0.0 0.0 0.0 0.0
gw 0.0 0.0 0.0 0.0
gw 0.0 0.0 0.0 0.0
gw 0.0 0.0 0.0 0.0
gw 0.0 0.0 0.0 0.0
gw 0.0 0.0 0.0 0.0
gw 0.0 0.0 0.0 0.0
gw 0.0 0.0 0.0 0.0
gw 0.0 0.0 0.0 0.0
gw 0.0 0.0 0.0 0.0
gw 0.0 0.0 0.0 0.0
gw 0.0 0.0 0.0 0.0
gw 0.0 0.0 0.0 0.0
gw 0.0 0.0 0.0 0.0
gw 0.0 0.0 0.0 0.0
gw 0.0 0.0 0.0 0.0
gw 0.0 0.0 0.0 0.0
gw 0.0 0.0 0.0 0.0
gw 0.0 0.0 0.0 0.0
gw 0.0 0.0 0.0 0.0
gw 0.0 0.0 0.0 0.0
gw 0.0 0.0 0.0 0.0
gw 0.0 0.0 0.0 0.0
gw 0.0 0.0 0.0 0.0
gw 0.0 0.0 0.0 0.0
gw 0.0 0.0 0.0 0.0
gw 0.0 0.0 0.0 0.0
gw 0.0 0.0 0.0 0.0
gw 0.0 0.0 0.0 0.0
gw 0.0 0.0 0.0 0.0
gw 0.0 0.0 0.0 0.0
gw 0.0 0.0 0.0 0.0
gw 0.0 0.0 0.0 0.0
gw 0.0 0.0 0.0 0.0
gw 0.0 0.0 0.0 0.0
gw 0.0 0.0 0.0 0.0
gw 0.0 0.0 0.0 0.0
gw 0.0 0.0 0.0 0.0
gw 0.0 0.0 0.0 0.0
gw 0.0 0.0 0.0 0.0
gw 0.0 0.0 0.0 0.0
gw 0.0 0.0 0.0 0.0
gw 0.0 0.0 0.0 0.0
gw 0.0 0.0 0.0 0.0
gw 0.0 0.0 0.0 0.0
gw 0.0 0.0 0.0 0.0
gw 0.0 0.0 0.0 0.0
gw 0.0 0.0 0.0 0.0
gw 0.0 0.0 0.0 0.0
gw 0.0 0.0 0.0 0.0
gw 0.0 0.0 0.0 0.0
gw 0.0 0.0 0.0 0.0
gw 0.0 0.0 0.0 0.0
gw 0.0 0.0 0.0 0.0
gw 0.0 0.0 0.0 0.0
gw 0.0 0.0 0.0 0.0
gw 0.0 0.0 0.0 0.0
gw 0.0 0.0 0.0 0.0
gw 0.0 0.0 0.0 0.0
gw 0.0 0.0 0.0 0.0
gw 0.0 0.0 0.0 0.0
gw 0.0 0.0 0.0 0.0
gw 0.0 0.0 0.0 0.0
gw 0.0 0.0 0.0 0.0
gw 0.0 0.0 0.0 0.0
gw 0.0 0.0 0.0 0.0
gw 0.0 0.0 0.0 0.0
gw 0.0 0.0 0.0 0.0
gw 0.0 0.0 0.0 0.0
gw 0.0 0.0 0.0 0.0
gw 0.0 0.0 0.0 0.0
gw 0.0 0.0 0.0 0.0
gw 0.0 0.0 0.0 0.0
gw 0.0 0.0 0.0 0.0
gw 0.0 0.0 0.0 0.0
gw 0.0 0.0 0.0 0.0
gw 0.0 0.0 0.0 0.0
gw 0.0 0.0 0.0 0.0
gw 0.0 0.0 0.0 0.0
gw 0.0 0.0 0.0 0.0
gw 0.0 0.0 0.0 0.0
gw 0.0 0.0 0.0 0.0
gw 0.0 0.0 0.0 0.0
gw 0.0 0.0 0.0 0.0
gw 0.0 0.0 0.0 0.0
gw 0.0 0.0 0.0 0.0
gw 0.0 0.0 0.0 0.0
gw 0.0 0.0 0.0 0.0
gw 0.0 0.0 0.0 0.0
gw 0.0 0.0 0.0 0.0
gw 0.0 0.0 0.0 0.0
gw 0.0 0.0 0.0 0.0
gw 0.0 0.0 0.0 0.0
gw 0.0 0.0 0.0 0.0
gw 0.0 0.0 0.0 0.0
gw 0.0 0.0 0.0 0.0
gw 0.0 0.0 0.0 0.0
gw 0.0 0.0 0.0 0.0
gw 0.0 0.0 0.0 0.0
gw 0.0 0.0 0.0 0.0
gw 0.0 0.0 0.0 0.0
gw 0.0 0.0 0.0 0.0
gw 0.0 0.0 0.0 0.0
gw 0.0 0.0 0.0 0.0
gw 0.0 0.0 0.0 0.0
gw 0.0 0.0 0.0 0.0
gw 0.0 0.0 0.0 0.0
gw 0.0 0.0 0.0 0.0
gw 0.0 0.0 0.0 0.0
gw 0.0 0.0 0.0 0.0
gw 0.0 0.0 0.0 0.0
gw 0.0 0.0 0.0 0.0
gw 0.0 0.0 0.0 0.0
gw 0.0 0.0 0.0 0.0
gw 0.0 0.0 0.0 0.0
gw 0.0 0.0 0.0 0.0
gw 0.0 0.0 0.0 0.0
gw 0.0 0.0 0.0 0.0
gw 0.0 0.0 0.0 0.0
gw 0.0 0.0 0.0 0.0
gw 0.0 0.0 0.0 0.0
gw 0.0 0.0 0.0 0.0
gw 0.0 0.0 0.0 0.0
gw 0.0 0.0 0.0 0.0
gw 0.0 0.0 0.0 0.0
gw 0.0 0.0 0.0 0.0
gw 0.0 0.0 0.0 0.0
gw 0.0 0.0 0.0 0.0
gw 0.0 0.0 0.0 0.0
gw 0.0 0.0 0.0 0.0
gw 0.0 0.0 0.0 0.0
gw 0.0 0.0 0.0 0.0
gw 0.0 0.0 0.0 0.0
gw 0.0 0.0 0.0 0.0
gw 0.0 0.0 0.0 0.0
gw 0.0 0.0 0.0 0.0
gw 0.0 0.0 0.0 0.0
gw 0.0 0.0 0.0 0.0
gw 0.0 0.0 0.0 0.0
gw 0.0 0.0 0.0 0.0
gw 0.0 0.0 0.0 0.0
gw 0.0 0.0 0.0 0.0
gw 0.0 0.0 0.0 0.0
gw 0.0 0.0 0.0 0.0
gw 0.0 0.0 0.0 0.0
gw 0.0 0.0 0.0 0.0
gw 0.0 0.0 0.0 0.0
gw 0.0 0.0 0.0 0.0
gw 0.0 0.0 0.0 0.0
gw 0.0 0.0 0.0 0.0
gw 0.0 0.0 0.0 0.0
gw 0.0 0.0 0.0 0.0
gw 0.0 0.0 0.0 0.0
gw 0.0 0.0 0.0 0.0
gw 0.0 0.0 0.0 0.0
gw 0.0 0.0 0.0 0.0
gw 0.0 0.0 0.0 0.0
vt 0.1655 0.9938
vt 0.0555 0.9938
vt 0.0555 0.919
vt 0.1674 0.876
vt 0.1143 0.8746
vt 0.1655 0.8746
vt 0.1674 0.9924
vt 0.6859 0.0122
vt 0.6859 0.7672
vt 0.5006 0.7672
vt 0.5003 0.0122
vt 0.4975 0.0122
vt 0.4971 0.7672
vt 0.2558 0.7672
vt 0.2558 0.0122
vt 0.7592 0.8897
vt 0.7614 0.91
vt 0.6988 0.91
vt 0.6967 0.8897
vt 0.9659 0.9096
vt 0.8098 0.9096
vt 0.8121 0.8892
vt 0.9637 0.8892
vt 0.3095 0.9589
vt 0.3095 0.9726
vt 0.1755 0.9726
vt 0.1754 0.9589
vt 0.9821 0.9596
vt 0.982 0.9733
vt 0.7937 0.9733
vt 0.7936 0.9596
vt 0.2525 0.7672
vt 0.2524 0.779
vt 0.1585 0.779
vt 0.151 0.7672
vt 0.4969 0.7793
vt 0.2559 0.779
vt 0.7011 0.8836
vt 0.7634 0.8836
vt 0.8079 0.8832
vt 0.9679 0.8832
vt 0.7775 0.9737
vt 0.7829 0.9806
vt 0.7206 0.9806
vt 0.7151 0.9737
vt 0.9874 0.9801
vt 0.7884 0.9801
vt 0.7773 0.9875
vt 0.7151 0.9875
vt 0.9818 0.987
vt 0.7939 0.987
vt 0.7685 0.9383
vt 0.7776 0.96
vt 0.7151 0.96
vt 0.706 0.9383
vt 0.8027 0.9379
vt 0.973 0.9379
vt 0.9754 0.9368
vt 0.9849 0.9589
vt 0.2528 0.0122
vt 0.8073 0.909
vt 0.8095 0.8902
vt 0.9848 0.9721
vt 0.7912 0.9721
vt 0.791 0.9589
vt 0.9705 0.8857
vt 0.9664 0.8902
vt 0.8052 0.8857
vt 0.5005 0.7793
vt 0.9907 0.9801
vt 0.786 0.9801
vt 0.9842 0.9896
vt 0.7916 0.9896
vt 0.9686 0.909
vt 0.8002 0.9367
vt 0.7521 0.8673
vt 0.7407 0.844
vt 0.9787 0.844
vt 0.9674 0.8673
vt 0.7231 0.8673
vt 0.7344 0.844
vt 0.6344 0.8678
vt 0.6561 0.844
vt 0.9833 0.8433
vt 0.983 0.8665
vt 0.7404 0.8398
vt 0.7404 0.8318
vt 0.979 0.8318
vt 0.979 0.8398
vt 0.7347 0.8398
vt 0.7347 0.8318
vt 0.6605 0.8398
vt 0.6605 0.8318
vt 0.9847 0.8318
vt 0.9847 0.8398
vt 0.9682 0.8705
vt 0.7512 0.8699
vt 0.7239 0.8699
vt 0.6362 0.8704
vt 0.983 0.8702
vt 0.745 0.8179
vt 0.5036 0.8179
vt 0.5036 0.8097
vt 0.745 0.8097
vt 0.7479 0.8179
vt 0.7479 0.8097
vt 0.5007 0.8179
vt 0.3292 0.8179
vt 0.3292 0.8097
vt 0.5007 0.8097
vt 0.2557 0.0062
vt 0.4974 0.0062
vt 0.151 0.0122
vt 0.155 0.0062
vt 0.2527 0.0062
vt 0.5002 0.0062
vt 0.9787 0.8276
vt 0.7407 0.8276
vt 0.9833 0.8276
vt 0.0095 0.8276
vt 0.1774 0.8276
vt 0.1761 0.8318
vt 0.0075 0.8318
vt 0.7344 0.8276
vt 0.3095 0.9089
vt 0.1916 0.9089
vt 0.1939 0.8885
vt 0.3095 0.8885
vt 0.6812 0.779
vt 0.1897 0.8825
vt 0.3095 0.8825
vt 0.3095 0.9794
vt 0.1701 0.9794
vt 0.1757 0.9863
vt 0.3095 0.9863
vt 0.1845 0.9372
vt 0.3095 0.9372
vt 0.0185 0.8682
vt 0.0095 0.8447
vt 0.1774 0.8442
vt 0.183 0.8683
vt 0.0075 0.8398
vt 0.1761 0.8398
vt 0.1822 0.8709
vt 0.0168 0.8708
vt 0.6833 0.0062
vt 0.2071 0.8885
vt 0.2049 0.9089
vt 0.522 0.7672
vt 0.5201 0.7792
vt 0.2026 0.8825
vt 0.1887 0.9726
vt 0.1831 0.9794
vt 0.1887 0.9863
vt 0.1978 0.9372
vt 0.1887 0.9589
vt 0.0256 0.8447
vt 0.0374 0.8682
vt 0.0205 0.8318
vt 0.0205 0.8398
vt 0.0356 0.8709
vt 0.521 0.0062
vt 0.522 0.0122
vt 0.8273 0.8097
vt 0.8273 0.8179
vt 0.6561 0.8276
vt 0.1549 0.9938
vt 0.4842 0.8179
vt 0.4842 0.8097
vt 0.0256 0.8276
vn -0.1192 0.9081 0.4014
vn 0.0 0.9176 0.3975
vn 0.0 1.0 0.0
vn -0.4014 0.9081 -0.1192
vn -0.1157 0.9865 -0.1157
vn -0.1192 0.9081 -0.4014
vn -0.4014 0.9081 0.1192
vn 0.0 0.4619 0.8869
vn 0.0 -0.4117 0.9113
vn -0.2921 -0.5104 0.8088
vn -0.2799 0.5651 0.7761
vn -0.7761 0.5651 0.2799
vn -0.8087 -0.5105 0.2921
vn -0.8087 -0.5105 -0.2922
vn -0.7761 0.5651 -0.2798
vn -0.3129 0.3591 -0.8793
vn -0.3576 -0.262 -0.8964
vn -0.6821 -0.2638 -0.6821
vn -0.6771 0.2884 -0.6771
vn -0.8963 -0.262 0.3577
vn -0.8963 -0.2621 -0.3577
vn -0.8793 0.3591 -0.313
vn -0.8793 0.3591 0.313
vn 0.0 -0.2225 0.9749
vn 0.0 -0.3678 0.9299
vn -0.3026 -0.4599 0.8348
vn -0.3871 -0.2629 0.8837
vn -0.8837 -0.2629 0.3871
vn -0.8348 -0.4599 0.3026
vn -0.8348 -0.4599 -0.3026
vn -0.8838 -0.2629 -0.3871
vn -0.2921 -0.5104 -0.8088
vn -0.4328 -0.0633 -0.8993
vn -0.7013 -0.1278 -0.7013
vn -0.6447 -0.4108 -0.6447
vn -0.8992 -0.0633 0.4329
vn -0.8992 -0.0633 -0.4329
vn -0.3026 -0.4599 -0.8348
vn -0.4354 0.0028 -0.9002
vn -0.7071 0.0 -0.7071
vn -0.6538 -0.381 -0.6538
vn -0.9002 0.0029 0.4354
vn -0.9002 0.0028 -0.4354
vn -0.3245 -0.4518 -0.831
vn -0.3872 -0.2629 -0.8837
vn -0.6648 -0.3406 -0.6648
vn -0.6292 -0.4562 -0.6292
vn -0.831 -0.4519 -0.3244
vn -0.831 -0.4519 0.3244
vn -0.3245 -0.4519 0.831
vn -0.2799 0.5652 -0.776
vn -0.4328 -0.0633 0.8993
vn -0.3129 0.3591 0.8793
vn -0.4353 0.0028 0.9003
vn -0.3577 -0.262 0.8963
vn -0.9468 0.1289 -0.295
vn -0.2184 0.9701 -0.1058
vn -0.2184 0.9701 0.1058
vn -0.9468 0.1288 0.2949
vn -0.295 0.1287 -0.9468
vn -0.1058 0.9701 -0.2184
vn -0.7047 0.0825 -0.7047
vn -0.2998 0.9057 -0.2998
vn -0.1058 0.9701 0.2184
vn -0.295 0.1287 0.9468
vn -0.7173 0.6303 -0.2971
vn -0.7173 -0.6302 -0.2971
vn -0.7173 -0.6303 0.2971
vn -0.7173 0.6302 0.2971
vn -0.2971 0.6302 -0.7173
vn -0.2971 -0.6302 -0.7173
vn -0.3015 0.9045 -0.3015
vn -0.3015 -0.9045 -0.3015
vn -0.2971 -0.6302 0.7173
vn -0.2971 0.6303 0.7173
vn -0.89 0.1596 0.4271
vn -0.89 0.1597 -0.4271
vn -0.4272 0.1596 -0.8899
vn -0.67 0.3197 -0.67
vn -0.4272 0.1596 0.8899
vn -0.9239 0.0 -0.3827
vn -0.9239 0.0 0.3827
vn -0.5491 -0.8042 0.2274
vn -0.5491 -0.8042 -0.2275
vn -0.3827 0.0 -0.9239
vn -0.2275 -0.8042 -0.5491
vn -0.3827 0.0 0.9239
vn 0.0 0.0 1.0
vn 0.0 -0.7071 0.7071
vn -0.2274 -0.8042 0.5491
vn -0.6342 0.4423 -0.6342
vn 0.0 -0.7071 0.7071
vn -0.0 -0.2005 0.9797
vn 0.0 0.2858 0.9583
vn 0.0 -0.0747 0.9972
vn 0.0 -0.0 1.0
vn -0.0 -0.3584 0.9336
vn 0.0 0.9241 0.3822
vn 0.0 0.1052 0.9944
vn 0.0 0.7071 0.7071
vn 0.0 0.1912 0.9816
vn 0.6319 0.4487 0.6319
vn 0.6766 -0.2907 0.6766
vn 0.5591 -0.6123 0.5591
vn 0.7061 -0.0541 0.7061
vn 0.5886 -0.5541 0.5886
vn 0.7071 0.0 0.7071
vn 0.3128 0.8968 0.3128
vn 0.6141 -0.4958 0.6141
vn 0.6823 -0.2627 0.6823
vn 0.1099 0.9879 0.1099
vn 0.6957 0.1787 0.6958
vn 0.5773 -0.5774 0.5773
vn 0.5773 0.5774 0.5773
vn 0.7001 0.1403 0.7001
vn 0.5222 0.6742 0.5222
vn -0.5773 -0.5774 -0.5773
vn -0.7071 0.0 -0.7071
vn 0.7071 0.0 0.7071
vn 0.3015 -0.9045 0.3015
vn -0.1192 0.9081 -0.4014
vn -0.4015 0.9081 -0.1192
vn 0.4014 0.9081 -0.1192
vn 0.3975 0.9176 0.0
vn 0.1192 0.9081 -0.4014
vn 0.8088 -0.5105 -0.2921
vn 0.9113 -0.4117 -0.0
vn 0.8869 0.4619 0.0
vn 0.7761 0.5652 -0.2799
vn -0.2921 -0.5105 -0.8088
vn 0.2921 -0.5105 -0.8087
vn 0.2799 0.5652 -0.776
vn -0.2799 0.5652 -0.776
vn -0.8793 0.3591 -0.3129
vn -0.8963 -0.262 -0.3577
vn -0.3129 0.3592 -0.8793
vn -0.3576 -0.262 -0.8963
vn 0.3577 -0.262 -0.8963
vn 0.3129 0.3591 -0.8793
vn 0.8348 -0.4599 -0.3026
vn 0.9299 -0.3678 -0.0
vn 0.9749 -0.2225 -0.0
vn 0.8838 -0.2629 -0.3871
vn -0.3026 -0.4599 -0.8348
vn 0.3026 -0.4599 -0.8348
vn 0.3871 -0.2629 -0.8837
vn -0.3871 -0.2629 -0.8837
vn -0.8088 -0.5105 -0.2921
vn -0.8992 -0.0633 -0.4328
vn -0.4329 -0.0633 -0.8992
vn 0.4329 -0.0633 -0.8992
vn -0.8348 -0.4599 -0.3026
vn -0.9002 0.0028 -0.4354
vn -0.4354 0.0028 -0.9002
vn 0.4354 0.0029 -0.9002
vn -0.831 -0.4518 -0.3244
vn -0.8837 -0.2629 -0.3871
vn -0.3245 -0.4519 -0.831
vn 0.3245 -0.4519 -0.831
vn 0.831 -0.4518 -0.3244
vn -0.7761 0.5651 -0.2799
vn 0.8992 -0.0633 -0.4328
vn 0.8793 0.3591 -0.3129
vn 0.9002 0.0028 -0.4354
vn 0.8963 -0.262 -0.3576
vn 0.1058 0.9701 -0.2183
vn -0.1058 0.9701 -0.2184
vn -0.295 0.1287 -0.9468
vn 0.295 0.1287 -0.9468
vn -0.2184 0.9701 -0.1058
vn -0.9468 0.1286 -0.295
vn 0.2184 0.9701 -0.1058
vn 0.9468 0.1287 -0.2949
vn 0.2971 -0.6303 -0.7173
vn -0.2971 -0.6302 -0.7173
vn -0.2971 0.6303 -0.7173
vn 0.2971 0.6302 -0.7173
vn -0.7173 -0.6303 -0.2971
vn -0.7173 0.6302 -0.2971
vn 0.7173 -0.6302 -0.2971
vn 0.7173 0.6303 -0.2971
vn -0.4271 0.1596 -0.89
vn 0.4272 0.1596 -0.89
vn -0.89 0.1596 -0.4272
vn 0.89 0.1596 -0.4272
vn 0.2275 -0.8042 -0.5491
vn 0.3827 0.0 -0.9239
vn -0.3826 0.0 -0.9239
vn -0.2274 -0.8042 -0.5492
vn -0.9239 0.0 -0.3827
vn -0.5491 -0.8042 -0.2275
vn 0.7071 -0.7071 -0.0
vn 1.0 0.0 -0.0
vn 0.9239 0.0 -0.3826
vn 0.5491 -0.8042 -0.2274
vn 0.7071 -0.7071 0.0
vn 0.9797 -0.2005 -0.0
vn 0.9583 0.2858 0.0
vn 0.9972 -0.0747 0.0
vn 1.0 -0.0 -0.0
vn 0.9336 -0.3584 -0.0
vn 0.3822 0.9241 -0.0
vn 0.9945 0.1051 0.0
vn 0.7071 0.7071 -0.0
vn 0.9816 0.191 0.0
vtan -0.9929 -0.1113 -0.043
vtan -1.0 0.0 0.0
vtan -1.0 0.0 0.0003
vtan -0.9159 -0.3984 0.0494
vtan -0.9933 -0.1149 0.0135
vtan -0.9929 -0.1107 0.0444
vtan -0.9157 -0.4005 -0.0326
vtan 1.0 0.0 0.0
vtan 0.9404 0.0008 0.3401
vtan 0.9411 0.0017 0.3382
vtan 0.3381 -0.0017 0.9411
vtan 0.3399 -0.0003 0.9404
vtan -0.3397 -0.0 0.9405
vtan -0.3381 0.0017 0.9411
vtan -0.9498 -0.1183 0.2896
vtan -0.9339 0.1003 0.3432
vtan -0.7313 0.246 0.6361
vtan -0.7359 -0.2653 0.6229
vtan 0.3453 0.0936 0.9338
vtan -0.3421 -0.1046 0.9338
vtan -0.2823 0.1363 0.9496
vtan 0.2673 -0.1717 0.9482
vtan 0.9531 -0.146 0.265
vtan 0.922 -0.1104 0.3711
vtan 0.366 0.127 0.9219
vtan 0.254 0.1658 0.9529
vtan -0.27 -0.137 0.9531
vtan -0.3643 -0.1325 0.9218
vtan -0.9405 -0.0003 0.3398
vtan -0.901 -0.0032 0.4339
vtan -0.7129 0.1257 0.6899
vtan -0.7644 0.3464 0.5437
vtan 0.4339 -0.0032 0.901
vtan -0.4339 0.0028 0.901
vtan -0.9015 0.0304 0.4318
vtan -0.4313 0.2938 0.853
vtan 0.431 -0.2976 0.8519
vtan -0.9531 0.146 0.265
vtan -0.9003 -0.0014 0.4354
vtan -0.7071 -0.0 0.7071
vtan -0.7567 0.3292 0.5649
vtan 0.4354 0.0221 0.9
vtan -0.435 0.0375 0.8996
vtan -0.9929 -0.109 0.0482
vtan 0.0963 -0.0876 0.9915
vtan 0.019 0.1384 0.9902
vtan -0.9459 0.155 0.285
vtan -0.922 0.1104 0.3711
vtan -0.747 0.3031 0.5917
vtan -0.7772 0.3693 0.5094
vtan -0.2727 -0.1773 0.9456
vtan 0.2785 0.1669 0.9458
vtan 0.6805 0.4987 0.5369
vtan 0.8204 0.3392 0.4603
vtan -0.9411 -0.0017 0.3382
vtan -0.8561 -0.2915 0.4268
vtan -0.6953 0.5441 0.4696
vtan 0.6808 0.5087 0.527
vtan -0.6777 -0.5121 0.5277
vtan -0.8193 -0.3415 0.4605
vtan 0.7219 -0.6218 0.3037
vtan 0.7183 -0.5163 0.4664
vtan -0.5545 0.8052 0.2102
vtan 0.901 0.0037 0.4339
vtan 0.8978 -0.0727 0.4344
vtan -0.8996 -0.0385 0.435
vtan 0.1651 -0.3806 0.9099
vtan -0.1666 0.3803 0.9097
vtan 0.8418 0.3251 0.4309
vtan -0.664 -0.5169 0.5403
vtan -0.2973 0.0014 0.9548
vtan -0.4242 0.0033 0.9056
vtan 0.5028 0.0189 0.8642
vtan 0.3064 0.0801 0.9485
vtan -0.9547 0.0001 0.2974
vtan -0.9056 -0.0033 0.4242
vtan -0.7095 -0.0728 0.701
vtan -0.954 -0.2831 0.0987
vtan 0.8728 -0.0146 0.4879
vtan 0.9479 0.1639 0.273
vtan -0.3827 -0.0 0.9239
vtan -0.3827 -0.0 0.9239
vtan 0.3827 -0.0 0.9239
vtan 0.3827 -0.0 0.9239
vtan -0.9239 -0.0 0.3827
vtan -0.9239 -0.0 0.3827
vtan -0.9535 -0.286 0.0954
vtan -0.9535 0.286 0.0953
vtan 0.833 0.1961 0.5174
vtan 0.8507 -0.1665 0.4987
vtan 0.4382 0.0405 0.898
vtan -0.4333 -0.0039 0.9013
vtan -0.9011 0.0052 0.4335
vtan -0.7424 -0.2835 0.607
vtan 0.9041 0.0681 0.4218
vtan 0.3827 0.0 -0.9239
vtan -0.3827 0.0 -0.9239
vtan -0.3827 0.0 -0.9239
vtan 0.3827 -0.0 -0.9239
vtan 0.9239 0.0 -0.3827
vtan 0.9239 0.0 -0.3827
vtan -0.9239 0.0 -0.3827
vtan -1.0 0.0 0.0
vtan -1.0 -0.0 0.0
vtan -0.9239 -0.0 -0.3827
vtan -0.4342 -0.0104 0.9008
vtan 0.4341 0.0104 0.9008
vtan -0.7732 -0.3628 0.5201
vtan -0.7424 -0.2885 0.6047
vtan -0.9007 0.0104 0.4342
vtan 0.9007 -0.0104 0.4343
vtan 0.3827 -0.0 0.9239
vtan -0.3827 -0.0 0.9239
vtan 0.7793 0.1879 0.5979
vtan 0.9738 -0.1878 0.1283
vtan 1.0 0.0 -0.0
vtan 0.9548 -0.1961 0.2232
vtan -0.9239 -0.0 0.3827
vtan 1.0 -0.0 0.0
vtan 0.9339 -0.1004 0.3433
vtan 0.9498 0.1183 0.2896
vtan 1.0 0.0 0.0
vtan 0.9015 -0.0304 0.4318
vtan 0.9003 0.0014 0.4353
vtan 0.9929 0.109 0.0482
vtan 0.9459 -0.155 0.285
vtan 1.0 -0.0 -0.0
vtan 0.9555 0.041 0.2921
vtan 0.9944 0.1035 0.0221
vtan 1.0 0.0005 -0.0013
vtan 1.0 -0.0007 0.0001
vtan 0.9548 0.1961 0.2232
vtan 1.0 0.0008 -0.0008
vtan 1.0 -0.0006 0.0001
vtan 0.9041 0.0748 0.4207
vtan -1.0 0.0 -0.0
vtan -0.775 0.3659 0.5153
vtan -0.7364 -0.2671 0.6216
vtan -1.0 0.0 0.0
vtan -0.8291 -0.4122 0.3777
vtan -0.7081 -0.0526 0.7041
vtan -0.7081 -0.0539 0.704
vtan -0.8084 -0.4035 0.4286
vtan -0.7071 0.0 0.7071
vtan -0.9498 0.2953 0.103
vtan -1.0 0.0 -0.0
vtan -0.7892 -0.3858 0.4778
vtan -0.7311 -0.2452 0.6367
vtan -1.0 0.0006 -0.0015
vtan -0.9939 0.1093 0.0112
vtan -0.7183 0.1755 0.6732
vtan -1.0 -0.0008 0.0001
vtan -0.8165 -0.4082 0.4082
vtan -0.8165 0.4082 0.4082
vtan -1.0 0.0009 -0.0009
vtan -1.0 -0.0007 0.0001
vtan -0.714 0.1376 0.6865
vtan -0.8528 0.4129 0.3198
vtan 0.8165 -0.4083 -0.4082
vtan 0.7071 0.0 -0.7071
vtan -0.8165 0.4083 0.4082
vtan 1.0 -0.0 -0.0
vtan 0.9498 -0.2953 -0.103
vtan 1.0 -0.0 -0.0
vtan 1.0 -0.0 -0.0
vtan 0.7071 -0.0 -0.7071
vtan 0.9535 0.286 -0.0954
vtan -1.0 -0.0 0.0
vtan -0.9535 -0.286 0.0954
vtan 0.0519 -0.398 -0.9159
vtan 0.0482 -0.109 -0.9929
vtan 0.0136 -0.1149 -0.9933
vtan -0.0432 -0.1112 -0.9929
vtan 0.0027 0.0 -1.0
vtan 0.0005 -0.0002 -1.0
vtan -0.0325 -0.4005 -0.9157
vtan 0.3402 0.0008 0.9404
vtan -0.0 -0.0 1.0
vtan 0.0 -0.0 1.0
vtan 0.3381 0.0017 0.9411
vtan 0.9405 -0.0 -0.3397
vtan 0.9405 -0.0003 0.3399
vtan 0.9411 -0.0017 0.3382
vtan 0.9411 0.0017 -0.3382
vtan 0.2897 -0.1183 -0.9498
vtan 0.6229 -0.2653 -0.7359
vtan 0.6362 0.246 -0.7313
vtan 0.3433 0.1004 -0.9338
vtan 0.9496 0.1363 -0.2823
vtan 0.9339 -0.1046 -0.342
vtan 0.9338 0.0936 0.3452
vtan 0.9482 -0.1717 0.2673
vtan 0.265 -0.146 0.9531
vtan -0.0 -0.0 1.0
vtan 0.0 -0.0 1.0
vtan 0.3711 -0.1104 0.922
vtan 0.9531 -0.137 -0.2699
vtan 0.9529 0.1658 0.254
vtan 0.9219 0.127 0.3661
vtan 0.9218 -0.1325 -0.3644
vtan 0.3399 -0.0003 -0.9405
vtan 0.5437 0.3464 -0.7644
vtan 0.69 0.1257 -0.7128
vtan 0.4339 -0.0032 -0.901
vtan 0.901 0.0028 -0.4339
vtan 0.901 -0.0032 0.4339
vtan 0.4318 0.0304 -0.9015
vtan 0.853 0.2938 -0.4313
vtan 0.8519 -0.2976 0.431
vtan 0.265 0.146 -0.9531
vtan 0.5649 0.3292 -0.7567
vtan 0.7071 -0.0 -0.7071
vtan 0.4354 -0.0014 -0.9002
vtan 0.8997 0.0375 -0.435
vtan 0.9 0.0221 0.4353
vtan 0.0135 -0.1149 -0.9933
vtan 0.0482 -0.109 -0.9929
vtan 0.9902 0.1384 0.019
vtan 0.9915 -0.0876 0.0963
vtan 0.285 0.155 -0.9459
vtan 0.5094 0.3693 -0.7772
vtan 0.5917 0.3031 -0.747
vtan 0.3711 0.1104 -0.922
vtan 0.9456 -0.1773 -0.2728
vtan 0.9458 0.1669 0.2785
vtan 0.5368 0.4987 0.6806
vtan 0.4603 0.3392 0.8204
vtan 0.3381 -0.0017 -0.9411
vtan 0.4268 -0.2915 -0.8561
vtan 0.4696 0.5442 -0.6952
vtan 0.527 0.5088 0.6808
vtan 0.5277 -0.5121 -0.6777
vtan 0.4605 -0.3415 -0.8193
vtan 0.3037 -0.6218 0.7219
vtan 0.4665 -0.5163 0.7182
vtan 0.2103 0.8051 -0.5546
vtan 0.4339 0.0037 0.9009
vtan 0.4345 -0.0727 0.8977
vtan 0.435 -0.0385 -0.8996
vtan 0.9099 -0.3805 0.1652
vtan 0.9097 0.3803 -0.1667
vtan 0.4309 0.3252 0.8418
vtan 0.5403 -0.5169 -0.664
vtan 0.8642 0.0189 0.5028
vtan 0.9056 0.0033 -0.4241
vtan 0.9548 0.0014 -0.2973
vtan 0.9485 0.0801 0.3064
vtan 0.4243 -0.0033 -0.9055
vtan 0.2975 0.0001 -0.9547
vtan 0.0987 -0.2831 -0.954
vtan 0.7009 -0.0728 -0.7095
vtan 0.4878 -0.0146 0.8728
vtan 0.273 0.164 0.9479
vtan 0.9239 -0.0 0.3827
vtan 0.9239 -0.0 -0.3827
vtan 0.9239 -0.0 -0.3827
vtan 0.9239 -0.0 0.3827
vtan 0.3827 -0.0 -0.9239
vtan 0.3827 -0.0 -0.9239
vtan 0.0953 0.286 -0.9535
vtan 0.0954 -0.2861 -0.9535
vtan 0.5174 0.1961 0.833
vtan 0.4986 -0.1665 0.8507
vtan 0.9013 -0.0039 -0.4333
vtan 0.8979 0.0405 0.4382
vtan 0.6071 -0.2835 -0.7423
vtan 0.4335 0.0052 -0.9011
vtan 0.4218 0.0681 0.9041
vtan -0.9239 0.0 -0.3827
vtan -0.9239 0.0 -0.3827
vtan -0.9239 0.0 0.3826
vtan -0.9239 -0.0 0.3826
vtan -0.3827 0.0 0.9239
vtan -0.3827 -0.0 0.9239
vtan -0.0 -0.0 -1.0
vtan -0.0 0.0 -1.0
vtan -0.3826 0.0 -0.9239
vtan -0.3827 -0.0 -0.9239
vtan 0.9008 -0.0104 -0.4342
vtan 0.9008 0.0104 0.4342
vtan 0.6047 -0.2886 -0.7423
vtan 0.5201 -0.3628 -0.7732
vtan 0.4343 0.0104 -0.9007
vtan 0.4342 -0.0104 0.9007
vtan 0.9239 -0.0 0.3827
vtan 0.9239 0.0 -0.3826
vtan 0.5979 0.1879 0.7793
vtan 0.1283 -0.1878 0.9738
vtan 0.2232 -0.1961 0.9548
vtan 0.0 0.0 1.0
vtan 0.0 0.0 1.0
vtan 0.3828 -0.0 -0.9238
vtan -0.0 -0.0 1.0
vtan -0.0 -0.0 1.0
vtan 0.2897 0.1183 0.9498
vtan 0.3433 -0.1004 0.9339
vtan 0.0 0.0 1.0
vtan -0.0 -0.0 1.0
vtan 0.4318 -0.0304 0.9015
vtan 0.0 -0.0 1.0
vtan 0.4354 0.0014 0.9002
vtan 0.0482 0.109 0.9929
vtan 0.0 -0.0 1.0
vtan -0.0 -0.0 1.0
vtan 0.285 -0.155 0.9459
vtan -0.0013 0.0005 1.0
vtan 0.0221 0.1035 0.9944
vtan 0.2921 0.041 0.9555
vtan 0.0001 -0.0007 1.0
vtan 0.2232 0.1961 0.9548
vtan -0.0008 0.0008 1.0
vtan 0.0001 -0.0006 1.0
vtan 0.4206 0.0747 0.9042
vtan -0.0 -0.0 1.0
vtan -0.0 0.0 -1.0
vtan 0.6216 -0.2671 -0.7364
vtan 0.5153 0.3659 -0.775
vtan 0.0 0.0 -1.0
vtan 0.0 0.0 -1.0
vtan 0.7041 -0.0526 -0.7081
vtan 0.3777 -0.4122 -0.8291
vtan -0.0 0.0 -1.0
vtan 0.704 -0.0539 -0.7081
vtan 0.0 -0.0 -1.0
vtan -0.0 0.0 -1.0
vtan 0.7071 0.0 -0.7071
vtan 0.4286 -0.4035 -0.8084
vtan -0.0 0.0 -1.0
vtan 0.103 0.2954 -0.9498
vtan 0.0 0.0 -1.0
vtan -0.0 0.0 -1.0
vtan 0.6367 -0.2452 -0.7311
vtan 0.4778 -0.3858 -0.7893
vtan -0.0 0.0 -1.0
vtan 0.6732 0.1755 -0.7183
vtan 0.0112 0.1093 -0.9939
vtan -0.0015 0.0006 -1.0
vtan 0.0001 -0.0008 -1.0
vtan 0.4082 0.4083 -0.8165
vtan 0.4082 -0.4083 -0.8165
vtan 0.0 0.0 -1.0
vtan -0.0009 0.0009 -1.0
vtan 0.0001 -0.0007 -1.0
vtan 0.6864 0.1376 -0.7141
vtan 0.3198 0.4129 -0.8528
vtan 0.0 0.0 -1.0
vtan 0.0 0.0 -1.0
vtan -0.4082 -0.4082 0.8165
vtan -0.7071 0.0 0.7071
vtan 0.4082 0.4083 -0.8165
vtan -0.0 -0.0 1.0
vtan -0.103 -0.2954 0.9498
vtan -0.0 -0.0 1.0
vtan -0.7071 0.0 0.7071
vtan 0.0 0.0 1.0
vtan 0.0 -0.0 1.0
vtan -0.0954 0.2861 0.9535
vtan 0.0954 -0.2861 -0.9535
vtan -0.0 0.0 -1.0
f 0/0/0/0 1/1/1/1 2/2/2/2 
f 0/0/0/0 2/2/2/2 3/3/3/3 
f 2/2/2/2 4/4/4/4 5/5/5/5 
f 2/2/2/2 5/5/5/5 3/3/3/3 
f 6/6/6/6 0/0/0/0 3/3/3/3 
f 7/7/7/7 8/8/8/7 9/9/9/8 
f 7/7/7/7 9/9/9/8 10/10/10/9 
f 11/11/11/10 12/12/12/11 13/13/13/12 
f 11/11/11/10 13/13/13/12 14/14/14/13 
f 15/15/15/14 16/16/16/15 17/17/17/16 
f 15/15/15/14 17/17/17/16 18/18/18/17 
f 19/19/19/18 20/20/20/19 21/21/21/20 
f 19/19/19/18 21/21/21/20 22/22/22/21 
f 23/23/23/7 24/24/24/7 25/25/25/22 
f 23/23/23/7 25/25/25/22 26/26/26/23 
f 27/27/27/24 28/28/28/25 29/29/29/26 
f 27/27/27/24 29/29/29/26 30/30/30/27 
f 31/31/31/28 32/32/32/29 33/33/33/30 
f 31/31/31/28 33/33/33/30 34/34/34/31 
f 35/35/35/32 36/36/36/33 13/13/13/12 
f 35/35/35/32 13/13/13/12 12/12/12/11 
f 15/15/15/14 18/18/18/17 33/37/33/30 
f 15/15/15/14 33/37/33/30 32/38/32/34 
f 22/22/22/21 21/21/21/20 36/39/36/35 
f 22/22/22/21 36/39/36/35 35/40/35/36 
f 37/41/37/37 38/42/38/38 39/43/39/39 
f 37/41/37/37 39/43/39/39 40/44/40/40 
f 41/45/41/41 42/46/42/42 29/29/29/26 
f 41/45/41/41 29/29/29/26 28/28/28/25 
f 5/47/5/43 4/48/4/4 39/43/39/39 
f 5/47/5/43 39/43/39/39 38/42/38/38 
f 6/49/6/44 3/50/3/45 42/46/42/42 
f 6/49/6/44 42/46/42/42 41/45/41/41 
f 43/51/43/46 44/52/44/47 45/53/45/48 
f 43/51/43/46 45/53/45/48 46/54/46/49 
f 27/27/27/24 30/30/30/27 47/55/47/50 
f 27/27/27/24 47/55/47/50 48/56/48/51 
f 16/16/16/15 43/51/43/46 46/54/46/49 
f 16/16/16/15 46/54/46/49 17/17/17/16 
f 48/56/48/51 47/55/47/50 20/20/20/19 
f 48/56/48/51 20/20/20/19 19/19/19/18 
f 27/27/27/24 48/56/48/51 49/57/49/52 
f 27/27/27/24 49/57/49/52 26/58/26/53 
f 14/14/14/13 13/13/13/12 31/31/31/28 
f 14/14/14/13 31/31/31/28 50/59/50/54 
f 12/12/12/11 11/11/11/10 10/10/10/9 
f 12/12/12/11 10/10/10/9 9/9/9/8 
f 21/21/21/20 20/20/20/19 16/60/16/55 
f 21/21/21/20 16/60/16/55 15/61/15/56 
f 26/58/26/53 25/62/25/57 28/28/28/25 
f 26/58/26/53 28/28/28/25 27/27/27/24 
f 30/30/30/27 29/29/29/26 37/63/37/58 
f 30/30/30/27 37/63/37/58 44/64/44/59 
f 22/22/22/21 35/40/35/36 51/65/51/60 
f 22/22/22/21 51/65/51/60 52/66/52/61 
f 15/61/15/56 32/67/32/62 36/39/36/35 
f 15/61/15/56 36/39/36/35 21/21/21/20 
f 35/35/35/32 12/12/12/11 9/9/9/8 
f 35/35/35/32 9/9/9/8 51/68/51/63 
f 32/32/32/29 31/31/31/28 13/13/13/12 
f 32/32/32/29 13/13/13/12 36/36/36/33 
f 25/62/25/57 53/69/53/64 41/45/41/41 
f 25/62/25/57 41/45/41/41 28/28/28/25 
f 29/29/29/26 42/46/42/42 38/70/38/65 
f 29/29/29/26 38/70/38/65 37/63/37/58 
f 53/69/53/64 0/71/0/66 6/49/6/44 
f 53/69/53/64 6/49/6/44 41/45/41/41 
f 42/46/42/42 3/50/3/45 5/72/5/67 
f 42/46/42/42 5/72/5/67 38/70/38/65 
f 19/19/19/18 22/22/22/21 52/66/52/61 
f 19/19/19/18 52/66/52/61 54/73/54/68 
f 47/55/47/50 30/30/30/27 44/64/44/59 
f 47/55/47/50 44/64/44/59 43/74/43/69 
f 54/73/54/68 49/57/49/52 48/56/48/51 
f 54/73/54/68 48/56/48/51 19/19/19/18 
f 20/20/20/19 47/55/47/50 43/74/43/69 
f 20/20/20/19 43/74/43/69 16/60/16/55 
f 55/75/55/70 56/76/56/71 57/77/57/72 
f 55/75/55/70 57/77/57/72 58/78/58/73 
f 59/79/59/74 60/80/60/75 56/76/56/71 
f 59/79/59/74 56/76/56/71 55/75/55/70 
f 59/79/59/74 61/81/61/76 62/82/62/77 
f 59/79/59/74 62/82/62/77 60/80/60/75 
f 58/78/58/73 57/77/57/72 63/83/63/78 
f 58/78/58/73 63/83/63/78 64/84/64/79 
f 65/85/65/80 66/86/66/81 67/87/67/82 
f 65/85/65/80 67/87/67/82 68/88/68/83 
f 69/89/69/84 70/90/70/85 66/86/66/81 
f 69/89/69/84 66/86/66/81 65/85/65/80 
f 71/91/71/86 72/92/72/87 70/90/70/85 
f 71/91/71/86 70/90/70/85 69/89/69/84 
f 68/88/68/83 67/87/67/82 73/93/73/88 
f 68/88/68/83 73/93/73/88 74/94/74/89 
f 75/95/75/90 76/96/76/91 55/75/55/70 
f 75/95/75/90 55/75/55/70 58/78/58/73 
f 59/79/59/74 77/97/77/92 78/98/78/93 
f 59/79/59/74 78/98/78/93 61/81/61/76 
f 79/99/79/94 75/95/75/90 58/78/58/73 
f 79/99/79/94 58/78/58/73 64/84/64/79 
f 76/96/76/91 77/97/77/92 59/79/59/74 
f 76/96/76/91 59/79/59/74 55/75/55/70 
f 80/100/80/95 81/101/81/96 82/102/82/97 
f 80/100/80/95 82/102/82/97 83/103/83/98 
f 84/104/84/99 80/100/80/95 83/103/83/98 
f 84/104/84/99 83/103/83/98 85/105/85/100 
f 86/106/86/101 87/107/87/102 88/108/88/103 
f 86/106/86/101 88/108/88/103 89/109/89/104 
f 81/101/81/96 86/106/86/101 89/109/89/104 
f 81/101/81/96 89/109/89/104 82/102/82/97 
f 11/11/11/10 14/14/14/13 76/110/76/105 
f 11/11/11/10 76/110/76/105 75/111/75/106 
f 50/59/50/54 90/112/90/107 78/113/78/108 
f 50/59/50/54 78/113/78/108 77/114/77/109 
f 10/10/10/9 11/11/11/10 75/111/75/106 
f 10/10/10/9 75/111/75/106 79/115/79/110 
f 14/14/14/13 50/59/50/54 77/114/77/109 
f 14/14/14/13 77/114/77/109 76/110/76/105 
f 56/76/56/71 65/85/65/80 68/88/68/83 
f 56/76/56/71 68/88/68/83 57/77/57/72 
f 60/80/60/75 69/89/69/84 65/85/65/80 
f 60/80/60/75 65/85/65/80 56/76/56/71 
f 60/80/60/75 62/82/62/77 71/91/71/86 
f 60/80/60/75 71/91/71/86 69/89/69/84 
f 57/77/57/72 68/88/68/83 74/94/74/89 
f 57/77/57/72 74/94/74/89 63/83/63/78 
f 82/116/82/111 67/87/67/82 66/86/66/81 
f 82/116/82/111 66/86/66/81 83/117/83/112 
f 89/118/89/113 73/93/73/88 67/87/67/82 
f 89/118/89/113 67/87/67/82 82/116/82/111 
f 89/119/89/114 88/120/88/115 91/121/91/7 
f 89/119/89/114 91/121/91/7 73/122/73/116 
f 83/117/83/112 66/86/66/81 70/90/70/85 
f 83/117/83/112 70/90/70/85 85/123/85/117 
f 92/124/92/118 54/125/54/119 52/126/52/120 
f 92/124/92/118 52/126/52/120 93/127/93/7 
f 94/128/94/121 51/68/51/63 9/9/9/8 
f 94/128/94/121 9/9/9/8 8/8/8/7 
f 52/126/52/120 51/129/51/122 94/130/94/7 
f 52/126/52/120 94/130/94/7 93/127/93/7 
f 95/131/95/7 53/132/53/123 25/25/25/22 
f 95/131/95/7 25/25/25/22 24/24/24/7 
f 0/133/0/124 53/132/53/123 95/131/95/7 
f 0/133/0/124 95/131/95/7 1/134/1/7 
f 23/23/23/7 26/26/26/23 49/135/49/125 
f 23/23/23/7 49/135/49/125 96/136/96/126 
f 96/136/96/126 49/135/49/125 54/125/54/119 
f 96/136/96/126 54/125/54/119 92/124/92/118 
f 64/137/64/127 63/138/63/128 97/139/97/129 
f 64/137/64/127 97/139/97/129 98/140/98/130 
f 74/141/74/131 73/122/73/116 91/121/91/7 
f 74/141/74/131 91/121/91/7 99/142/99/132 
f 100/143/100/133 79/144/79/134 64/137/64/127 
f 100/143/100/133 64/137/64/127 98/140/98/130 
f 10/10/10/9 79/115/79/110 100/145/100/7 
f 10/10/10/9 100/145/100/7 7/7/7/7 
f 63/138/63/128 74/141/74/131 99/142/99/132 
f 63/138/63/128 99/142/99/132 97/139/97/129 
f 92/124/92/135 93/127/93/1 101/146/101/136 
f 92/124/92/135 101/146/101/136 102/147/102/137 
f 94/128/94/138 8/8/8/1 103/148/103/139 
f 94/128/94/138 103/148/103/139 104/149/104/140 
f 94/130/94/1 104/150/104/141 101/146/101/136 
f 94/130/94/1 101/146/101/136 93/127/93/1 
f 95/131/95/1 24/24/24/1 105/151/105/142 
f 95/131/95/1 105/151/105/142 106/152/106/143 
f 95/131/95/1 106/152/106/143 107/153/107/144 
f 95/131/95/1 107/153/107/144 1/134/1/1 
f 23/23/23/1 96/136/96/145 108/154/108/146 
f 23/23/23/1 108/154/108/146 109/155/109/147 
f 96/136/96/145 92/124/92/135 102/147/102/137 
f 96/136/96/145 102/147/102/137 108/154/108/146 
f 97/139/97/148 110/156/110/149 111/157/111/150 
f 97/139/97/148 111/157/111/150 98/140/98/151 
f 91/121/91/1 112/158/112/152 113/159/113/153 
f 91/121/91/1 113/159/113/153 99/142/99/154 
f 100/143/100/155 98/140/98/151 111/157/111/150 
f 100/143/100/155 111/157/111/150 114/160/114/156 
f 100/145/100/1 114/161/114/156 115/162/115/157 
f 100/145/100/1 115/162/115/157 7/7/7/1 
f 99/142/99/154 113/159/113/153 110/156/110/149 
f 99/142/99/154 110/156/110/149 97/139/97/148 
f 50/59/50/54 31/31/31/28 34/34/34/31 
f 50/59/50/54 34/34/34/31 90/112/90/107 
f 44/52/44/47 37/41/37/37 40/44/40/40 
f 44/52/44/47 40/44/40/40 45/53/45/48 
f 84/104/84/99 85/105/85/100 116/163/116/158 
f 84/104/84/99 116/163/116/158 117/164/117/159 
f 85/123/85/117 70/90/70/85 72/92/72/87 
f 85/123/85/117 72/92/72/87 116/165/116/160 
f 2/2/2/161 1/1/1/7 107/166/107/162 
f 8/8/8/1 7/7/7/1 115/162/115/157 
f 8/8/8/1 115/162/115/157 103/148/103/139 
f 24/24/24/1 23/23/23/1 109/155/109/147 
f 24/24/24/1 109/155/109/147 105/151/105/142 
f 88/108/88/163 87/107/87/164 118/167/118/165 
f 88/108/88/163 118/167/118/165 119/168/119/166 
f 91/121/91/1 88/120/88/167 119/169/119/168 
f 91/121/91/1 119/169/119/168 112/158/112/152 
f 120/3/120/169 121/5/121/170 4/4/4/171 
f 120/3/120/169 4/4/4/171 122/0/122/172 
f 4/4/4/171 2/2/2/173 123/1/123/174 
f 4/4/4/171 123/1/123/174 122/0/122/172 
f 124/6/124/175 120/3/120/169 122/0/122/172 
f 125/9/125/176 126/8/126/177 127/7/127/178 
f 125/9/125/176 127/7/127/178 128/10/128/179 
f 129/13/129/180 130/12/130/181 131/11/131/182 
f 129/13/129/180 131/11/131/182 132/14/132/183 
f 133/15/133/184 18/18/18/185 17/17/17/186 
f 133/15/133/184 17/17/17/186 134/16/134/187 
f 135/21/135/188 136/20/136/189 137/19/137/190 
f 135/21/135/188 137/19/137/190 138/22/138/191 
f 139/25/139/192 140/24/140/193 141/23/141/194 
f 139/25/139/192 141/23/141/194 142/26/142/195 
f 143/29/143/196 144/28/144/197 145/27/145/198 
f 143/29/143/196 145/27/145/198 146/30/146/199 
f 147/31/147/200 34/34/34/201 33/33/33/202 
f 147/31/147/200 33/33/33/202 148/32/148/203 
f 129/13/129/180 149/36/149/204 150/35/150/205 
f 129/13/129/180 150/35/150/205 130/12/130/181 
f 33/37/33/202 18/18/18/185 133/15/133/184 
f 33/37/33/202 133/15/133/184 148/38/148/206 
f 149/39/149/207 135/21/135/188 138/22/138/191 
f 149/39/149/207 138/22/138/191 150/40/150/208 
f 151/41/151/209 40/44/40/210 39/43/39/211 
f 151/41/151/209 39/43/39/211 152/42/152/212 
f 143/29/143/196 153/46/153/213 154/45/154/214 
f 143/29/143/196 154/45/154/214 144/28/144/197 
f 39/43/39/211 4/48/4/215 121/47/121/216 
f 39/43/39/211 121/47/121/216 152/42/152/212 
f 153/46/153/213 120/50/120/217 124/49/124/218 
f 153/46/153/213 124/49/124/218 154/45/154/214 
f 155/51/155/219 46/54/46/220 45/53/45/221 
f 155/51/155/219 45/53/45/221 156/52/156/222 
f 157/55/157/223 146/30/146/199 145/27/145/198 
f 157/55/157/223 145/27/145/198 158/56/158/224 
f 134/16/134/187 17/17/17/186 46/54/46/220 
f 134/16/134/187 46/54/46/220 155/51/155/219 
f 136/20/136/189 157/55/157/223 158/56/158/224 
f 136/20/136/189 158/56/158/224 137/19/137/190 
f 159/57/159/225 158/56/158/224 145/27/145/198 
f 159/57/159/225 145/27/145/198 142/58/142/226 
f 147/31/147/200 129/13/129/180 132/14/132/183 
f 147/31/147/200 132/14/132/183 160/59/160/227 
f 128/10/128/179 131/11/131/182 130/12/130/181 
f 128/10/128/179 130/12/130/181 125/9/125/176 
f 134/60/134/228 136/20/136/189 135/21/135/188 
f 134/60/134/228 135/21/135/188 133/61/133/229 
f 144/28/144/197 139/62/139/230 142/58/142/226 
f 144/28/144/197 142/58/142/226 145/27/145/198 
f 151/63/151/231 143/29/143/196 146/30/146/199 
f 151/63/151/231 146/30/146/199 156/64/156/232 
f 161/65/161/233 150/40/150/208 138/22/138/191 
f 161/65/161/233 138/22/138/191 162/66/162/234 
f 149/39/149/207 148/67/148/235 133/61/133/229 
f 149/39/149/207 133/61/133/229 135/21/135/188 
f 125/9/125/176 130/12/130/181 150/35/150/205 
f 125/9/125/176 150/35/150/205 161/68/161/236 
f 129/13/129/180 147/31/147/200 148/32/148/203 
f 129/13/129/180 148/32/148/203 149/36/149/204 
f 154/45/154/214 163/69/163/237 139/62/139/230 
f 154/45/154/214 139/62/139/230 144/28/144/197 
f 152/70/152/238 153/46/153/213 143/29/143/196 
f 152/70/152/238 143/29/143/196 151/63/151/231 
f 124/49/124/218 122/71/122/239 163/69/163/237 
f 124/49/124/218 163/69/163/237 154/45/154/214 
f 121/72/121/240 120/50/120/217 153/46/153/213 
f 121/72/121/240 153/46/153/213 152/70/152/238 
f 162/66/162/234 138/22/138/191 137/19/137/190 
f 162/66/162/234 137/19/137/190 164/73/164/241 
f 156/64/156/232 146/30/146/199 157/55/157/223 
f 156/64/156/232 157/55/157/223 155/74/155/242 
f 158/56/158/224 159/57/159/225 164/73/164/241 
f 158/56/158/224 164/73/164/241 137/19/137/190 
f 155/74/155/242 157/55/157/223 136/20/136/189 
f 155/74/155/242 136/20/136/189 134/60/134/228 
f 165/77/165/243 166/76/166/244 167/75/167/245 
f 165/77/165/243 167/75/167/245 168/78/168/246 
f 166/76/166/244 169/80/169/247 170/79/170/248 
f 166/76/166/244 170/79/170/248 167/75/167/245 
f 170/79/170/248 169/80/169/247 62/82/62/249 
f 170/79/170/248 62/82/62/249 61/81/61/250 
f 171/83/171/251 165/77/165/243 168/78/168/246 
f 171/83/171/251 168/78/168/246 172/84/172/252 
f 173/87/173/253 174/86/174/254 175/85/175/255 
f 173/87/173/253 175/85/175/255 176/88/176/256 
f 174/86/174/254 177/90/177/257 178/89/178/258 
f 174/86/174/254 178/89/178/258 175/85/175/255 
f 177/90/177/257 72/92/72/259 71/91/71/260 
f 177/90/177/257 71/91/71/260 178/89/178/258 
f 179/93/179/261 173/87/173/253 176/88/176/256 
f 179/93/179/261 176/88/176/256 180/94/180/262 
f 167/75/167/245 181/96/181/263 182/95/182/264 
f 167/75/167/245 182/95/182/264 168/78/168/246 
f 170/79/170/248 61/81/61/250 78/98/78/265 
f 170/79/170/248 78/98/78/265 183/97/183/266 
f 168/78/168/246 182/95/182/264 184/99/184/267 
f 168/78/168/246 184/99/184/267 172/84/172/252 
f 170/79/170/248 183/97/183/266 181/96/181/263 
f 170/79/170/248 181/96/181/263 167/75/167/245 
f 185/102/185/268 186/101/186/269 187/100/187/270 
f 185/102/185/268 187/100/187/270 188/103/188/271 
f 188/103/188/271 187/100/187/270 189/104/189/272 
f 188/103/188/271 189/104/189/272 190/105/190/273 
f 191/108/191/274 192/107/192/275 193/106/193/276 
f 191/108/191/274 193/106/193/276 194/109/194/277 
f 194/109/194/277 193/106/193/276 186/101/186/269 
f 194/109/194/277 186/101/186/269 185/102/185/268 
f 181/110/181/278 132/14/132/183 131/11/131/182 
f 181/110/181/278 131/11/131/182 182/111/182/279 
f 78/113/78/280 90/112/90/281 160/59/160/227 
f 78/113/78/280 160/59/160/227 183/114/183/282 
f 182/111/182/279 131/11/131/182 128/10/128/179 
f 182/111/182/279 128/10/128/179 184/115/184/283 
f 183/114/183/282 160/59/160/227 132/14/132/183 
f 183/114/183/282 132/14/132/183 181/110/181/278 
f 176/88/176/256 175/85/175/255 166/76/166/244 
f 176/88/176/256 166/76/166/244 165/77/165/243 
f 175/85/175/255 178/89/178/258 169/80/169/247 
f 175/85/175/255 169/80/169/247 166/76/166/244 
f 169/80/169/247 178/89/178/258 71/91/71/260 
f 169/80/169/247 71/91/71/260 62/82/62/249 
f 180/94/180/262 176/88/176/256 165/77/165/243 
f 180/94/180/262 165/77/165/243 171/83/171/251 
f 174/86/174/254 173/87/173/253 185/116/185/284 
f 174/86/174/254 185/116/185/284 188/117/188/285 
f 173/87/173/253 179/93/179/261 194/118/194/286 
f 173/87/173/253 194/118/194/286 185/116/185/284 
f 194/119/194/287 179/122/179/288 195/121/195/289 
f 194/119/194/287 195/121/195/289 191/120/191/290 
f 177/90/177/257 174/86/174/254 188/117/188/285 
f 177/90/177/257 188/117/188/285 190/123/190/291 
f 196/124/196/292 197/127/197/293 162/126/162/294 
f 196/124/196/292 162/126/162/294 164/125/164/295 
f 198/128/198/296 126/8/126/177 125/9/125/176 
f 198/128/198/296 125/9/125/176 161/68/161/236 
f 198/130/198/297 161/129/161/298 162/126/162/294 
f 198/130/198/297 162/126/162/294 197/127/197/293 
f 199/131/199/299 140/24/140/193 139/25/139/192 
f 199/131/199/299 139/25/139/192 163/132/163/300 
f 199/131/199/299 163/132/163/300 122/133/122/301 
f 199/131/199/299 122/133/122/301 123/134/123/302 
f 141/23/141/194 200/136/200/303 159/135/159/304 
f 141/23/141/194 159/135/159/304 142/26/142/195 
f 200/136/200/303 196/124/196/292 164/125/164/295 
f 200/136/200/303 164/125/164/295 159/135/159/304 
f 201/139/201/305 171/138/171/306 172/137/172/307 
f 201/139/201/305 172/137/172/307 202/140/202/308 
f 195/121/195/289 179/122/179/288 180/141/180/309 
f 195/121/195/289 180/141/180/309 203/142/203/310 
f 204/143/204/311 202/140/202/308 172/137/172/307 
f 204/143/204/311 172/137/172/307 184/144/184/312 
f 204/145/204/313 184/115/184/283 128/10/128/179 
f 204/145/204/313 128/10/128/179 127/7/127/178 
f 203/142/203/310 180/141/180/309 171/138/171/306 
f 203/142/203/310 171/138/171/306 201/139/201/305 
f 196/124/196/314 102/147/102/315 101/146/101/316 
f 196/124/196/314 101/146/101/316 197/127/197/317 
f 198/128/198/318 104/149/104/319 103/148/103/320 
f 198/128/198/318 103/148/103/320 126/8/126/321 
f 101/146/101/316 104/150/104/322 198/130/198/323 
f 101/146/101/316 198/130/198/323 197/127/197/317 
f 199/131/199/324 106/152/106/325 105/151/105/326 
f 199/131/199/324 105/151/105/326 140/24/140/327 
f 107/153/107/328 106/152/106/325 199/131/199/324 
f 107/153/107/328 199/131/199/324 123/134/123/329 
f 141/23/141/330 109/155/109/331 108/154/108/332 
f 141/23/141/330 108/154/108/332 200/136/200/333 
f 200/136/200/333 108/154/108/332 102/147/102/315 
f 200/136/200/333 102/147/102/315 196/124/196/314 
f 111/157/111/334 110/156/110/335 201/139/201/336 
f 111/157/111/334 201/139/201/336 202/140/202/337 
f 113/159/113/338 112/158/112/339 195/121/195/340 
f 113/159/113/338 195/121/195/340 203/142/203/341 
f 204/143/204/342 114/160/114/343 111/157/111/334 
f 204/143/204/342 111/157/111/334 202/140/202/337 
f 115/162/115/344 114/161/114/343 204/145/204/345 
f 115/162/115/344 204/145/204/345 127/7/127/346 
f 110/156/110/335 113/159/113/338 203/142/203/341 
f 110/156/110/335 203/142/203/341 201/139/201/336 
f 34/34/34/201 147/31/147/200 160/59/160/227 
f 34/34/34/201 160/59/160/227 90/112/90/281 
f 40/44/40/210 151/41/151/209 156/52/156/222 
f 40/44/40/210 156/52/156/222 45/53/45/221 
f 116/163/116/347 190/105/190/273 189/104/189/272 
f 116/163/116/347 189/104/189/272 117/164/117/348 
f 72/92/72/259 177/90/177/257 190/123/190/291 
f 72/92/72/259 190/123/190/291 116/165/116/349 
f 2/2/2/350 107/166/107/351 123/1/123/352 
f 115/162/115/344 127/7/127/346 126/8/126/321 
f 115/162/115/344 126/8/126/321 103/148/103/320 
f 109/155/109/331 141/23/141/330 140/24/140/327 
f 109/155/109/331 140/24/140/327 105/151/105/326 
f 118/167/118/353 192/107/192/354 191/108/191/355 
f 118/167/118/353 191/108/191/355 119/168/119/356 
f 119/169/119/357 191/120/191/358 195/121/195/340 
f 119/169/119/357 195/121/195/340 112/158/112/339 
