v -638.6038 1260.4785 -271.464
v -634.8384 1261.4871 -271.464
v -634.8381 1261.4871 -255.9669
v -638.6038 1260.4785 -255.9669
v -641.3594 1257.7228 -271.464
v -641.3594 1257.7228 -255.9669
v -642.368 1253.9584 -271.464
v -642.368 1253.9584 -255.9669
v -641.7063 1251.4889 -271.464
v -641.7063 1251.4889 -255.9669
v -650.6959 1248.3862 -271.464
v -647.9402 1251.1418 -271.464
v -647.9402 1251.1418 -255.9669
v -650.6959 1248.3862 -255.9669
v -644.1758 1252.1506 -271.464
v -644.1758 1252.1506 -255.9669
v -631.073 1260.4785 -271.464
v -631.073 1260.4785 -255.9669
v -628.3174 1257.7228 -271.464
v -628.3174 1257.7228 -255.9669
v -627.3086 1253.9584 -271.464
v -627.3086 1253.9584 -255.9669
v -627.9703 1251.4889 -271.464
v -627.9703 1251.4889 -255.9669
v -618.9808 1248.3862 -271.464
v -618.0103 1244.7637 -271.464
v -618.0103 1244.7637 -255.9669
v -618.9808 1248.3862 -255.9669
v -621.7366 1251.1418 -271.464
v -621.7366 1251.1418 -255.9669
v -625.501 1252.1506 -271.464
v -625.501 1252.1506 -255.9669
v -651.6665 1244.7637 -271.464
v -651.6665 1244.7637 -255.9669
v -634.8384 1228.0404 -271.464
v -638.6038 1229.049 -271.464
v -638.6038 1229.049 -255.9669
v -634.8384 1228.0404 -255.9669
v -641.3594 1231.8047 -271.464
v -641.3594 1231.8047 -255.9669
v -642.368 1235.5691 -271.464
v -642.368 1235.5691 -255.9669
v -641.7063 1238.0386 -271.464
v -641.7063 1238.0386 -255.9669
v -647.9402 1238.3855 -271.464
v -650.6959 1241.1412 -271.464
v -650.6959 1241.1412 -255.9669
v -647.9402 1238.3855 -255.9669
v -644.1758 1237.3768 -271.464
v -644.1758 1237.3768 -255.9669
v -631.073 1229.049 -271.464
v -631.073 1229.049 -255.9669
v -628.3174 1231.8047 -271.464
v -628.3174 1231.8047 -255.9669
v -627.3086 1235.5691 -271.464
v -627.3086 1235.5691 -255.9669
v -627.9703 1238.0386 -271.464
v -627.9703 1238.0386 -255.9669
v -618.9808 1241.1412 -271.464
v -621.7366 1238.3855 -271.464
v -621.7366 1238.3855 -255.9669
v -618.9808 1241.1412 -255.9669
v -625.501 1237.3768 -271.464
v -625.501 1237.3768 -255.9669
v -618.1554 1238.7134 -255.9669
v -621.906 1232.5804 -255.9669
v -627.7854 1228.4437 -255.9669
v -617.1514 1245.8318 -255.9669
v -618.8083 1252.2522 -255.9669
v -622.7107 1257.613 -255.9669
v -628.311 1261.1631 -255.9669
v -634.8247 1262.4043 -255.9669
v -641.3383 1261.1631 -255.9669
v -646.9387 1257.613 -255.9669
v -650.8408 1252.2522 -255.9669
v -652.4979 1245.8318 -255.9669
v -651.4939 1238.7134 -255.9669
v -647.7432 1232.5804 -255.9669
v -641.8639 1228.4436 -255.9669
v -634.8247 1226.9846 -255.9669
gi 0 0 0 0
gw 0.0 0.0 0.0 0.0
gi 0 0 0 0
gw 0.0 0.0 0.0 0.0
gi 0 0 0 0
gw 0.0 0.0 0.0 0.0
gi 0 0 0 0
gw 0.0 0.0 0.0 0.0
gi 0 0 0 0
gw 0.0 0.0 0.0 0.0
gi 0 0 0 0
gw 0.0 0.0 0.0 0.0
gi 0 0 0 0
gw 0.0 0.0 0.0 0.0
gi 0 0 0 0
gw 0.0 0.0 0.0 0.0
gi 0 0 0 0
gw 0.0 0.0 0.0 0.0
gi 0 0 0 0
gw 0.0 0.0 0.0 0.0
gi 0 0 0 0
gw 0.0 0.0 0.0 0.0
gi 0 0 0 0
gw 0.0 0.0 0.0 0.0
gi 0 0 0 0
gw 0.0 0.0 0.0 0.0
gi 0 0 0 0
gw 0.0 0.0 0.0 0.0
gi 0 0 0 0
gw 0.0 0.0 0.0 0.0
gi 0 0 0 0
gw 0.0 0.0 0.0 0.0
gi 0 0 0 0
gw 0.0 0.0 0.0 0.0
gi 0 0 0 0
gw 0.0 0.0 0.0 0.0
gi 0 0 0 0
gw 0.0 0.0 0.0 0.0
gi 0 0 0 0
gw 0.0 0.0 0.0 0.0
gi 0 0 0 0
gw 0.0 0.0 0.0 0.0
gi 0 0 0 0
gw 0.0 0.0 0.0 0.0
gi 0 0 0 0
gw 0.0 0.0 0.0 0.0
gi 0 0 0 0
gw 0.0 0.0 0.0 0.0
gi 0 0 0 0
gw 0.0 0.0 0.0 0.0
gi 0 0 0 0
gw 0.0 0.0 0.0 0.0
gi 0 0 0 0
gw 0.0 0.0 0.0 0.0
gi 0 0 0 0
gw 0.0 0.0 0.0 0.0
gi 0 0 0 0
gw 0.0 0.0 0.0 0.0
gi 0 0 0 0
gw 0.0 0.0 0.0 0.0
gi 0 0 0 0
gw 0.0 0.0 0.0 0.0
gi 0 0 0 0
gw 0.0 0.0 0.0 0.0
gi 0 0 0 0
gw 0.0 0.0 0.0 0.0
gi 0 0 0 0
gw 0.0 0.0 0.0 0.0
gi 0 0 0 0
gw 0.0 0.0 0.0 0.0
gi 0 0 0 0
gw 0.0 0.0 0.0 0.0
gi 0 0 0 0
gw 0.0 0.0 0.0 0.0
gi 0 0 0 0
gw 0.0 0.0 0.0 0.0
gi 0 0 0 0
gw 0.0 0.0 0.0 0.0
gi 0 0 0 0
gw 0.0 0.0 0.0 0.0
gi 0 0 0 0
gw 0.0 0.0 0.0 0.0
gi 0 0 0 0
gw 0.0 0.0 0.0 0.0
gi 0 0 0 0
gw 0.0 0.0 0.0 0.0
gi 0 0 0 0
gw 0.0 0.0 0.0 0.0
gi 0 0 0 0
gw 0.0 0.0 0.0 0.0
gi 0 0 0 0
gw 0.0 0.0 0.0 0.0
gi 0 0 0 0
gw 0.0 0.0 0.0 0.0
gi 0 0 0 0
gw 0.0 0.0 0.0 0.0
gi 0 0 0 0
gw 0.0 0.0 0.0 0.0
gi 0 0 0 0
gw 0.0 0.0 0.0 0.0
gi 0 0 0 0
gw 0.0 0.0 0.0 0.0
gi 0 0 0 0
gw 0.0 0.0 0.0 0.0
gi 0 0 0 0
gw 0.0 0.0 0.0 0.0
gi 0 0 0 0
gw 0.0 0.0 0.0 0.0
gi 0 0 0 0
gw 0.0 0.0 0.0 0.0
gi 0 0 0 0
gw 0.0 0.0 0.0 0.0
gi 0 0 0 0
gw 0.0 0.0 0.0 0.0
gi 0 0 0 0
gw 0.0 0.0 0.0 0.0
gi 0 0 0 0
gw 0.0 0.0 0.0 0.0
gi 0 0 0 0
gw 0.0 0.0 0.0 0.0
gi 0 0 0 0
gw 0.0 0.0 0.0 0.0
gi 0 0 0 0
gw 0.0 0.0 0.0 0.0
gi 0 0 0 0
gw 0.0 0.0 0.0 0.0
gi 0 0 0 0
gw 0.0 0.0 0.0 0.0
gi 0 0 0 0
gw 0.0 0.0 0.0 0.0
gi 0 0 0 0
gw 0.0 0.0 0.0 0.0
gi 0 0 0 0
gw 0.0 0.0 0.0 0.0
gi 0 0 0 0
gw 0.0 0.0 0.0 0.0
gi 0 0 0 0
gw 0.0 0.0 0.0 0.0
gi 0 0 0 0
gw 0.0 0.0 0.0 0.0
gi 0 0 0 0
gw 0.0 0.0 0.0 0.0
gi 0 0 0 0
gw 0.0 0.0 0.0 0.0
gi 0 0 0 0
gw 0.0 0.0 0.0 0.0
gi 0 0 0 0
gw 0.0 0.0 0.0 0.0
gi 0 0 0 0
gw 0.0 0.0 0.0 0.0
gi 0 0 0 0
gw 0.0 0.0 0.0 0.0
gi 0 0 0 0
gw 0.0 0.0 0.0 0.0
gi 0 0 0 0
gw 0.0 0.0 0.0 0.0
gi 0 0 0 0
gw 0.0 0.0 0.0 0.0
gi 0 0 0 0
gw 0.0 0.0 0.0 0.0
vt 0.8159 0.6286
vt 0.8159 0.5948
vt 0.9551 0.5948
vt 0.9551 0.6286
vt 0.8159 0.6533
vt 0.9551 0.6533
vt 0.8159 0.6871
vt 0.9551 0.6871
vt 0.8159 0.7093
vt 0.9551 0.7093
vt 0.8159 0.7976
vt 0.8159 0.7626
vt 0.9551 0.7626
vt 0.9551 0.7976
vt 0.8159 0.7323
vt 0.9551 0.7323
vt 0.8159 0.5609
vt 0.9551 0.5609
vt 0.8159 0.5362
vt 0.9551 0.5362
vt 0.8159 0.5024
vt 0.9551 0.5024
vt 0.8159 0.4802
vt 0.9551 0.4802
vt 0.8159 0.395
vt 0.8159 0.3613
vt 0.9551 0.3613
vt 0.9551 0.395
vt 0.8159 0.4253
vt 0.9551 0.4253
vt 0.8159 0.4603
vt 0.9551 0.4603
vt 0.8159 0.8268
vt 0.9551 0.8268
vt 0.8159 0.1217
vt 0.8159 0.0879
vt 0.9551 0.0879
vt 0.9551 0.1217
vt 0.8159 0.0529
vt 0.9551 0.0529
vt 0.8159 0.0226
vt 0.9551 0.0226
vt 0.8159 0.9672
vt 0.8159 0.9442
vt 0.9551 0.9442
vt 0.9551 0.9672
vt 0.8159 0.891
vt 0.8159 0.856
vt 0.9551 0.856
vt 0.9551 0.891
vt 0.8159 0.9213
vt 0.9551 0.9213
vt 0.8159 0.1556
vt 0.9551 0.1556
vt 0.8159 0.1906
vt 0.9551 0.1906
vt 0.8159 0.2209
vt 0.9551 0.2209
vt 0.8159 0.2438
vt 0.9551 0.2438
vt 0.8159 0.3321
vt 0.8159 0.2971
vt 0.9551 0.2971
vt 0.9551 0.3321
vt 0.8159 0.2668
vt 0.9551 0.2668
vt 0.5524 0.6197
vt 0.546 0.5976
vt 0.5804 0.6036
vt 0.6117 0.6454
vt 0.6133 0.5916
vt 0.6762 0.6454
vt 0.5083 0.5726
vt 0.5201 0.576
vt 0.4873 0.5168
vt 0.5085 0.5443
vt 0.4883 0.4573
vt 0.5146 0.5098
vt 0.5111 0.4022
vt 0.537 0.483
vt 0.5289 0.4275
vt 0.541 0.4604
vt 0.5526 0.3595
vt 0.5349 0.393
vt 0.5903 0.3541
vt 0.5574 0.3662
vt 0.6068 0.335
vt 0.6663 0.3321
vt 0.6248 0.3601
vt 0.7227 0.3514
vt 0.6516 0.3826
vt 0.7071 0.3745
vt 0.6742 0.3865
vt 0.768 0.39
vt 0.7674 0.4021
vt 0.7416 0.3805
vt 0.7974 0.4475
vt 0.779 0.4338
vt 0.8015 0.5119
vt 0.773 0.4682
vt 0.7797 0.5727
vt 0.7506 0.4951
vt 0.7586 0.5506
vt 0.7466 0.5177
vt 0.7526 0.5851
vt 0.7355 0.6198
vt 0.6973 0.624
vt 0.7302 0.6119
vt 0.6359 0.5955
vt 0.6628 0.618
vt 0.6595 0.4042
vt 0.5586 0.4751
vt 0.729 0.503
vt 0.628 0.5739
vn 0.5 -0.866 0.0
vn 0.0 -1.0 0.0
vn -0.0 -0.6377 0.7702
vn 0.3188 -0.5523 0.7703
vn 0.8661 -0.5 0.0
vn 0.5523 -0.3189 0.7703
vn 1.0 0.0 0.0
vn 0.6377 -0.0 0.7703
vn 0.7071 -0.7071 0.0
vn 0.5884 -0.5884 0.5547
vn 0.866 -0.5 0.0
vn 0.5 -0.866 0.0
vn 0.3189 -0.5523 0.7703
vn 0.5523 -0.3189 0.7703
vn 0.0 -1.0 0.0
vn 0.0 -0.6377 0.7703
vn -0.5 -0.866 0.0
vn -0.3531 -0.6115 0.7081
vn -0.866 -0.5 0.0
vn -0.5523 -0.3189 0.7703
vn -1.0 -0.0 0.0
vn -0.6377 -0.0 0.7703
vn -0.7071 -0.7071 0.0
vn -0.5883 -0.5884 0.5547
vn -0.866 -0.5 0.0
vn -1.0 0.0 0.0
vn -0.6378 -0.0 0.7702
vn -0.5523 -0.3189 0.7703
vn -0.5 -0.866 0.0
vn -0.3189 -0.5523 0.7703
vn 0.0 -1.0 0.0
vn -0.0 -0.6377 0.7703
vn 1.0 0.0 0.0
vn 0.6377 -0.0 0.7703
vn -0.0 1.0 0.0
vn 0.5 0.866 0.0
vn 0.3501 0.6064 0.714
vn 0.0 0.6377 0.7702
vn 0.866 0.5 0.0
vn 0.5523 0.3188 0.7703
vn 1.0 0.0 0.0
vn 0.6377 -0.0 0.7703
vn 0.7071 0.7071 0.0
vn 0.5883 0.5883 0.5547
vn 0.5 0.866 0.0
vn 0.866 0.5 0.0
vn 0.5523 0.3189 0.7703
vn 0.3189 0.5523 0.7703
vn -0.0 1.0 0.0
vn -0.0 0.6377 0.7703
vn -0.5 0.866 0.0
vn -0.3188 0.5523 0.7703
vn -0.866 0.5 0.0
vn -0.5523 0.3189 0.7703
vn -1.0 0.0 0.0
vn -0.6377 0.0 0.7703
vn -0.7071 0.7071 0.0
vn -0.5883 0.5884 0.5547
vn -0.866 0.5 0.0
vn -0.5 0.866 0.0
vn -0.3189 0.5523 0.7703
vn -0.5523 0.3189 0.7703
vn 0.0 1.0 0.0
vn 0.0 0.6377 0.7703
vn -0.0 0.0 1.0
vn -0.0 0.0 1.0
vn -0.0 0.0 1.0
vn -0.0 0.0 1.0
vn 0.0 0.0 1.0
vn 0.0 0.0 1.0
vn -0.0 0.0 1.0
vn 0.0 0.0 1.0
vn 0.0 0.0 1.0
vn -0.0 0.0 1.0
vn 0.0 0.0 1.0
vn 0.0 0.0 1.0
vn 0.0 0.0 1.0
vn 0.0 0.0 1.0
vn 0.0 0.0 1.0
vn -0.0 0.0 1.0
vtan 0.0 0.0 1.0 1.0
vtan 0.0 0.0 1.0 1.0
vtan 0.0 0.7702 0.6377 1.0
vtan -0.3851 0.6671 0.6377 1.0
vtan 0.0 0.0 1.0 1.0
vtan -0.6671 0.3851 0.6377 1.0
vtan -0.7703 0.0 0.6377 1.0
vtan -0.3922 0.3922 0.8321 1.0
vtan -0.3851 0.6671 0.6377 1.0
vtan -0.6671 0.3851 0.6377 1.0
vtan -0.0 0.7703 0.6377 1.0
vtan 0.354 0.6132 0.7061 1.0
vtan 0.6671 0.3851 0.6377 1.0
vtan 0.7703 0.0 0.6377 1.0
vtan 0.3922 0.3922 0.8321 1.0
vtan 0.7702 0.0 0.6378 1.0
vtan 0.6671 0.3851 0.6377 1.0
vtan 0.3851 0.6671 0.6377 1.0
vtan 0.0 0.7703 0.6377 1.0
vtan -0.7703 0.0 0.6377 1.0
vtan -0.357 -0.6184 0.7001 1.0
vtan -0.0 -0.7702 0.6377 1.0
vtan -0.6671 -0.3851 0.6377 1.0
vtan -0.7703 0.0 0.6377 1.0
vtan -0.3922 -0.3922 0.832 1.0
vtan -0.6671 -0.3851 0.6377 1.0
vtan -0.3851 -0.6671 0.6377 1.0
vtan 0.0 -0.7703 0.6377 1.0
vtan 0.3851 -0.6671 0.6377 1.0
vtan 0.6671 -0.3851 0.6377 1.0
vtan 0.7703 -0.0 0.6377 1.0
vtan 0.3922 -0.3922 0.8321 1.0
vtan 0.3851 -0.6671 0.6377 1.0
vtan 0.6671 -0.3851 0.6377 1.0
vtan 0.0 0.0 1.0 1.0
vtan -0.0 -0.7703 0.6377 1.0
vtan -0.8179 -0.5753 -0.0 1.0
vtan -0.6952 -0.6861 -0.2144 1.0
vtan -0.8376 -0.5445 0.0437 1.0
vtan -0.8181 -0.5751 -0.0 1.0
vtan -0.8791 -0.3672 0.304 1.0
vtan -0.8181 -0.5751 -0.0 1.0
vtan -0.8169 -0.5767 -0.0 1.0
vtan -0.5681 -0.6753 -0.4704 1.0
vtan -0.8172 -0.5764 0.0 1.0
vtan -0.6023 -0.4861 -0.6331 1.0
vtan -0.8176 -0.5758 0.0 1.0
vtan -0.7763 -0.3141 -0.5466 1.0
vtan -0.8188 -0.5741 -0.0 1.0
vtan -0.8794 -0.3667 -0.3036 1.0
vtan -0.6074 -0.479 -0.6338 1.0
vtan -0.5702 -0.6723 -0.4721 1.0
vtan -0.819 -0.5737 0.0 1.0
vtan -0.7719 -0.2373 -0.5898 1.0
vtan -0.8372 -0.5451 -0.0443 1.0
vtan -0.8802 -0.3655 -0.3027 1.0
vtan -0.8178 -0.5756 0.0 1.0
vtan -0.8184 -0.5747 -0.0 1.0
vtan -0.6953 -0.686 0.2145 1.0
vtan -0.8183 -0.5748 0.0 1.0
vtan -0.5688 -0.6743 0.4709 1.0
vtan -0.8374 -0.5448 -0.044 1.0
vtan -0.8788 -0.3676 -0.3043 1.0
vtan -0.8201 -0.5722 0.0 1.0
vtan -0.5752 -0.665 0.4763 1.0
vtan -0.6962 -0.6846 0.2158 1.0
vtan -0.8185 -0.5745 0.0 1.0
vtan -0.6045 -0.4831 0.6334 1.0
vtan -0.8181 -0.5751 0.0 1.0
vtan -0.7774 -0.3125 0.5459 1.0
vtan -0.818 -0.5752 0.0 1.0
vtan -0.8793 -0.3668 0.3037 1.0
vtan -0.6053 -0.482 0.6335 1.0
vtan -0.5703 -0.6722 0.4721 1.0
vtan -0.7714 -0.2458 0.587 1.0
vtan -0.82 -0.5723 -0.0 1.0
vtan -0.8376 -0.5445 0.0438 1.0
vtan -0.8812 -0.3641 0.3015 1.0
vtan -0.5673 -0.6764 -0.4697 1.0
vtan -0.6956 -0.6854 -0.215 1.0
vtan -0.7411 -0.6667 0.079 1.0
vtan -0.5856 -0.163 -0.794 1.0
vtan -0.5856 -0.163 0.794 1.0
vtan -0.7411 -0.6667 -0.079 1.0
f 0/0/0/0 1/1/1/1 2/2/2/2 
f 0/0/0/0 2/2/2/2 3/3/3/3 
f 4/4/4/4 0/0/0/0 3/3/3/3 
f 4/4/4/4 3/3/3/3 5/5/5/5 
f 6/6/6/4 4/4/4/4 5/5/5/5 
f 6/6/6/4 5/5/5/5 7/7/7/6 
f 8/8/8/4 6/6/6/4 7/7/7/6 
f 8/8/8/4 7/7/7/6 9/9/9/7 
f 10/10/10/4 11/11/11/4 12/12/12/8 
f 10/10/10/4 12/12/12/8 13/13/13/9 
f 11/11/11/4 14/14/14/4 15/15/15/10 
f 11/11/11/4 15/15/15/10 12/12/12/8 
f 14/14/14/4 8/8/8/4 9/9/9/7 
f 14/14/14/4 9/9/9/7 15/15/15/10 
f 1/1/1/1 16/16/16/4 17/17/17/11 
f 1/1/1/1 17/17/17/11 2/2/2/2 
f 16/16/16/4 18/18/18/4 19/19/19/12 
f 16/16/16/4 19/19/19/12 17/17/17/11 
f 18/18/18/4 20/20/20/4 21/21/21/13 
f 18/18/18/4 21/21/21/13 19/19/19/12 
f 20/20/20/4 22/22/22/4 23/23/23/14 
f 20/20/20/4 23/23/23/14 21/21/21/13 
f 24/24/24/4 25/25/25/4 26/26/26/15 
f 24/24/24/4 26/26/26/15 27/27/27/16 
f 28/28/28/4 24/24/24/4 27/27/27/16 
f 28/28/28/4 27/27/27/16 29/29/29/17 
f 30/30/30/4 28/28/28/4 29/29/29/17 
f 30/30/30/4 29/29/29/17 31/31/31/18 
f 22/22/22/4 30/30/30/4 31/31/31/18 
f 22/22/22/4 31/31/31/18 23/23/23/14 
f 32/32/32/4 10/10/10/4 13/13/13/9 
f 32/32/32/4 13/13/13/9 33/33/33/19 
f 34/34/34/4 35/35/35/4 36/36/36/20 
f 34/34/34/4 36/36/36/20 37/37/37/21 
f 35/35/35/4 38/38/38/4 39/39/39/22 
f 35/35/35/4 39/39/39/22 36/36/36/20 
f 38/38/38/4 40/40/40/4 41/41/41/23 
f 38/38/38/4 41/41/41/23 39/39/39/22 
f 40/42/40/4 42/43/42/4 43/44/43/24 
f 40/42/40/4 43/44/43/24 41/45/41/23 
f 44/46/44/4 45/47/45/4 46/48/46/25 
f 44/46/44/4 46/48/46/25 47/49/47/26 
f 48/50/48/4 44/46/44/4 47/49/47/26 
f 48/50/48/4 47/49/47/26 49/51/49/27 
f 42/43/42/4 48/50/48/4 49/51/49/27 
f 42/43/42/4 49/51/49/27 43/44/43/24 
f 50/52/50/4 34/34/34/4 37/37/37/21 
f 50/52/50/4 37/37/37/21 51/53/51/28 
f 52/54/52/4 50/52/50/4 51/53/51/28 
f 52/54/52/4 51/53/51/28 53/55/53/29 
f 54/56/54/4 52/54/52/4 53/55/53/29 
f 54/56/54/4 53/55/53/29 55/57/55/30 
f 56/58/56/4 54/56/54/4 55/57/55/30 
f 56/58/56/4 55/57/55/30 57/59/57/31 
f 58/60/58/4 59/61/59/4 60/62/60/32 
f 58/60/58/4 60/62/60/32 61/63/61/33 
f 59/61/59/4 62/64/62/34 63/65/63/35 
f 59/61/59/4 63/65/63/35 60/62/60/32 
f 62/64/62/34 56/58/56/4 57/59/57/31 
f 62/64/62/34 57/59/57/31 63/65/63/35 
f 45/47/45/4 32/32/32/4 33/33/33/19 
f 45/47/45/4 33/33/33/19 46/48/46/25 
f 25/25/25/4 58/60/58/4 61/63/61/33 
f 25/25/25/4 61/63/61/33 26/26/26/15 
f 64/66/64/36 61/67/61/37 60/68/60/38 
f 64/66/64/36 60/68/60/38 65/69/65/39 
f 65/69/65/39 60/68/60/38 63/70/63/40 
f 65/69/65/39 63/70/63/40 66/71/66/41 
f 67/72/67/42 26/73/26/43 61/67/61/37 
f 67/72/67/42 61/67/61/37 64/66/64/36 
f 67/72/67/42 68/74/68/44 27/75/27/45 
f 67/72/67/42 27/75/27/45 26/73/26/43 
f 68/74/68/44 69/76/69/46 29/77/29/47 
f 68/74/68/44 29/77/29/47 27/75/27/45 
f 69/76/69/46 70/78/70/48 31/79/31/49 
f 69/76/69/46 31/79/31/49 29/77/29/47 
f 31/79/31/49 70/78/70/48 19/80/19/50 
f 31/79/31/49 19/80/19/50 21/81/21/51 
f 70/78/70/48 71/82/71/52 17/83/17/53 
f 70/78/70/48 17/83/17/53 19/80/19/50 
f 3/84/3/54 2/85/2/55 71/82/71/52 
f 3/84/3/54 71/82/71/52 72/86/72/56 
f 72/86/72/56 73/87/73/57 5/88/5/58 
f 72/86/72/56 5/88/5/58 3/84/3/54 
f 73/87/73/57 74/89/74/59 7/90/7/60 
f 73/87/73/57 7/90/7/60 5/88/5/58 
f 7/90/7/60 74/89/74/59 12/91/12/61 
f 7/90/7/60 12/91/12/61 15/92/15/62 
f 75/93/75/63 33/94/33/64 13/95/13/65 
f 75/93/75/63 13/95/13/65 74/89/74/59 
f 75/93/75/63 76/96/76/66 46/97/46/67 
f 75/93/75/63 46/97/46/67 33/94/33/64 
f 76/96/76/66 77/98/77/68 47/99/47/69 
f 76/96/76/66 47/99/47/69 46/97/46/67 
f 77/98/77/68 78/100/78/70 49/101/49/71 
f 77/98/77/68 49/101/49/71 47/99/47/69 
f 49/101/49/71 78/100/78/70 39/102/39/72 
f 49/101/49/71 39/102/39/72 41/103/41/73 
f 36/104/36/74 39/102/39/72 78/100/78/70 
f 36/104/36/74 78/100/78/70 79/105/79/75 
f 79/105/79/75 66/71/66/41 51/106/51/76 
f 79/105/79/75 51/106/51/76 37/107/37/77 
f 63/70/63/40 55/108/55/78 53/109/53/79 
f 63/70/63/40 53/109/53/79 66/71/66/41 
f 7/90/7/60 15/92/15/62 9/110/9/80 
f 12/91/12/61 74/89/74/59 13/95/13/65 
f 17/83/17/53 71/82/71/52 2/85/2/55 
f 23/111/23/81 31/79/31/49 21/81/21/51 
f 36/104/36/74 79/105/79/75 37/107/37/77 
f 43/112/43/82 49/101/49/71 41/103/41/73 
f 51/106/51/76 66/71/66/41 53/109/53/79 
f 55/108/55/78 63/70/63/40 57/113/57/83 
