v 868.6472 693.9515 185.9674
v 862.3293 693.7668 185.9674
v 868.6472 921.7285 185.9675
v 843.4243 763.7077 185.9674
v 806.4075 796.7444 185.9674
v 764.219 818.8291 185.9674
v 764.219 921.7285 185.9675
v 685.0137 763.7077 185.9674
v 677.2706 921.7285 185.9675
v 722.0305 796.7444 185.9674
v 677.2706 735.0615 185.9674
v 511.1169 764.7926 185.9674
v 493.6741 921.7285 185.9675
v 548.1337 800.4415 185.9674
v 491.6859 717.5188 185.9674
v 590.3223 921.7285 185.9675
v 590.3223 818.8291 185.9674
v 669.5276 763.7077 185.9674
v 632.5108 796.7444 185.9674
v 479.9337 744.6606 185.9674
v 452.7573 784.949 185.9674
v 415.6739 810.1027 185.9674
v 392.2671 820.7097 185.9674
v 392.2671 921.7285 185.9675
v 373.3855 814.6662 185.9674
v 306.2191 921.7285 185.9675
v 332.9428 786.5311 185.9674
v 306.2191 752.4522 185.9674
v 281.4463 776.5657 185.9674
v 250.4299 802.8395 185.9674
v 219.4135 815.7933 185.9674
v 219.4135 921.7285 185.9675
v 183.6829 799.5223 185.9674
v 121.1176 921.7285 185.9675
v 147.9523 766.3126 185.9674
v 121.1176 711.5569 185.9674
v 91.2819 776.2733 185.9674
v 52.3929 803.3854 185.9674
v 22.5573 818.2861 185.9674
v 22.5573 921.7285 185.9675
v -3.6602 805.0369 185.9673
v -66.8607 921.7285 185.9675
v -36.8143 781.2203 185.9673
v -66.8582 751.7427 185.9673
v 868.6472 694.0199 171.3185
v 868.6472 921.7285 -36.0751
v 868.6472 785.9972 2.7538
v 868.6472 813.922 61.0877
v 868.6472 921.7285 61.0877
v 868.6472 785.9972 119.4215
v 868.6472 748.168 -26.4131
v 868.6472 748.168 148.5884
v 868.6472 733.5838 -36.0751
v 868.6472 693.9515 -259.3257
v 868.6472 921.7286 -259.3257
v 862.3293 693.7668 -259.3257
v 843.4243 763.7078 -259.3257
v 806.4075 796.7444 -259.3257
v 764.219 921.7286 -259.3257
v 764.219 818.8292 -259.3257
v 685.0137 763.7078 -259.3257
v 722.0305 796.7444 -259.3257
v 677.2706 921.7286 -259.3257
v 677.2706 735.0616 -259.3257
v 511.1169 764.7927 -259.3257
v 548.1337 800.4416 -259.3257
v 493.6741 921.7286 -259.3257
v 491.6859 717.5189 -259.3257
v 590.3223 818.8292 -259.3257
v 590.3223 921.7286 -259.3257
v 669.5276 763.7078 -259.3257
v 632.5108 796.7444 -259.3257
v 479.9337 744.6606 -259.3257
v 452.7573 784.949 -259.3257
v 415.6739 810.1028 -259.3257
v 392.2671 921.7286 -259.3257
v 392.2671 820.7098 -259.3257
v 306.2191 921.7286 -259.3257
v 373.3855 814.6663 -259.3257
v 332.9428 786.5312 -259.3257
v 306.2191 752.4523 -259.3257
v 281.4463 776.5657 -259.3257
v 250.4299 802.8395 -259.3257
v 219.4135 921.7286 -259.3257
v 219.4135 815.7933 -259.3257
v 121.1176 921.7286 -259.3257
v 183.6829 799.5223 -259.3257
v 147.9523 766.3127 -259.3257
v 121.1176 711.5569 -259.3257
v 91.2819 776.2734 -259.3257
v 52.3929 803.3854 -259.3257
v 22.5573 921.7286 -259.3257
v 22.5573 818.2861 -259.3257
v -66.8582 921.7286 -259.3257
v -3.6602 805.037 -259.3256
v -36.8143 781.2203 -259.3256
v -63.0859 751.7427 -259.3256
v 868.6472 694.02 -240.7828
v 868.6472 813.922 -133.2379
v 868.6472 785.9972 -74.9041
v 868.6472 921.7285 -133.2379
v 868.6472 785.9973 -191.5718
v 868.6472 748.168 -45.7372
v 868.6472 748.1681 -220.7387
v -1002.3635 693.9515 185.9674
v -1002.3635 921.7285 185.9675
v -996.0457 693.7668 185.9674
v -971.4838 763.7077 185.9674
v -940.124 796.7444 185.9674
v -897.9355 921.7285 185.9675
v -897.9355 818.8291 185.9674
v -818.7301 763.7077 185.9674
v -855.7468 796.7444 185.9674
v -810.9871 921.7285 185.9675
v -810.9871 735.0615 185.9674
v -644.8334 764.7926 185.9674
v -681.8501 800.4415 185.9674
v -627.3905 921.7285 185.9675
v -618.2366 717.5188 185.9674
v -724.0387 818.8291 185.9674
v -724.0387 921.7285 185.9675
v -797.0166 763.7077 185.9674
v -766.2273 796.7444 185.9674
v -610.197 744.6606 185.9674
v -584.158 784.949 185.9674
v -549.3904 810.1027 185.9674
v -525.9836 921.7285 185.9675
v -525.9836 820.7097 185.9674
v -439.9355 921.7285 185.9675
v -507.1019 814.6662 185.9674
v -466.6592 786.5311 185.9674
v -432.92 752.4522 185.9674
v -415.1627 776.5657 185.9674
v -384.1462 802.8395 185.9674
v -353.1299 921.7285 185.9675
v -353.1299 815.7933 185.9674
v -254.834 921.7285 185.9675
v -317.3993 799.5223 185.9674
v -281.6687 766.3126 185.9674
v -249.2257 711.5569 185.9674
v -220.1727 776.2733 185.9674
v -186.1094 803.3854 185.9674
v -156.2737 921.7285 185.9675
v -156.2737 818.2861 185.9674
v -130.0563 805.0369 185.9673
v -96.9022 781.2203 185.9673
v -1002.3635 694.0199 171.3185
v -1002.3635 813.922 61.0877
v -1002.3635 785.9972 2.7538
v -1002.3635 921.7285 -36.0751
v -1002.3635 921.7285 61.0877
v -1002.3635 785.9972 119.4215
v -1002.3635 748.168 -26.4131
v -1002.3635 748.168 148.5884
v -1002.3635 733.5838 -36.0751
v -1002.3635 693.9515 -259.3257
v -996.0457 693.7668 -259.3257
v -1002.3635 921.7286 -259.3257
v -972.4934 763.7078 -259.3257
v -940.124 796.7444 -259.3257
v -897.9355 818.8292 -259.3257
v -897.9355 921.7286 -259.3257
v -818.7301 763.7078 -259.3257
v -810.9871 921.7286 -259.3257
v -855.7468 796.7444 -259.3257
v -810.9871 735.0616 -259.3257
v -644.8334 764.7927 -259.3257
v -627.3905 921.7286 -259.3257
v -681.8501 800.4416 -259.3257
v -619.1138 717.5189 -259.3257
v -724.0387 921.7286 -259.3257
v -724.0387 818.8292 -259.3257
v -795.8535 763.7078 -259.3257
v -766.2273 796.7444 -259.3257
v -610.5808 744.6606 -259.3257
v -584.3816 784.949 -259.3257
v -549.3904 810.1028 -259.3257
v -525.9836 820.7098 -259.3257
v -525.9836 921.7286 -259.3257
v -507.1019 814.6663 -259.3257
v -439.9355 921.7286 -259.3257
v -466.6592 786.5312 -259.3257
v -432.7544 752.4523 -259.3257
v -415.1627 776.5657 -259.3257
v -384.1462 802.8395 -259.3257
v -353.1299 815.7933 -259.3257
v -353.1299 921.7286 -259.3257
v -317.3993 799.5223 -259.3257
v -254.834 921.7286 -259.3257
v -281.6687 766.3127 -259.3257
v -250.5988 711.5569 -259.3257
v -220.3834 776.2734 -259.3257
v -186.1094 803.3854 -259.3257
v -156.2737 818.2861 -259.3257
v -156.2737 921.7286 -259.3257
v -130.0563 805.037 -259.3256
v -96.9022 781.2203 -259.3256
v -1002.3635 694.02 -240.7828
v -1002.3635 785.9972 -74.9041
v -1002.3635 813.922 -133.2379
v -1002.3635 921.7285 -133.2379
v -1002.3635 785.9973 -191.5718
v -1002.3635 748.168 -45.7372
v -1002.3635 748.1681 -220.7387
gi 0 0 0 0
gi 0 0 0 0
gi 0 0 0 0
gi 0 0 0 0
gi 0 0 0 0
gi 0 0 0 0
gi 0 0 0 0
gi 0 0 0 0
gi 0 0 0 0
gi 0 0 0 0
gi 0 0 0 0
gi 0 0 0 0
gi 0 0 0 0
gi 0 0 0 0
gi 0 0 0 0
gi 0 0 0 0
gi 0 0 0 0
gi 0 0 0 0
gi 0 0 0 0
gi 0 0 0 0
gi 0 0 0 0
gi 0 0 0 0
gi 0 0 0 0
gi 0 0 0 0
gi 0 0 0 0
gi 0 0 0 0
gi 0 0 0 0
gi 0 0 0 0
gi 0 0 0 0
gi 0 0 0 0
gi 0 0 0 0
gi 0 0 0 0
gi 0 0 0 0
gi 0 0 0 0
gi 0 0 0 0
gi 0 0 0 0
gi 0 0 0 0
gi 0 0 0 0
gi 0 0 0 0
gi 0 0 0 0
gi 0 0 0 0
gi 0 0 0 0
gi 0 0 0 0
gi 0 0 0 0
gi 0 0 0 0
gi 0 0 0 0
gi 0 0 0 0
gi 0 0 0 0
gi 0 0 0 0
gi 0 0 0 0
gi 0 0 0 0
gi 0 0 0 0
gi 0 0 0 0
gi 0 0 0 0
gi 0 0 0 0
gi 0 0 0 0
gi 0 0 0 0
gi 0 0 0 0
gi 0 0 0 0
gi 0 0 0 0
gi 0 0 0 0
gi 0 0 0 0
gi 0 0 0 0
gi 0 0 0 0
gi 0 0 0 0
gi 0 0 0 0
gi 0 0 0 0
gi 0 0 0 0
gi 0 0 0 0
gi 0 0 0 0
gi 0 0 0 0
gi 0 0 0 0
gi 0 0 0 0
gi 0 0 0 0
gi 0 0 0 0
gi 0 0 0 0
gi 0 0 0 0
gi 0 0 0 0
gi 0 0 0 0
gi 0 0 0 0
gi 0 0 0 0
gi 0 0 0 0
gi 0 0 0 0
gi 0 0 0 0
gi 0 0 0 0
gi 0 0 0 0
gi 0 0 0 0
gi 0 0 0 0
gi 0 0 0 0
gi 0 0 0 0
gi 0 0 0 0
gi 0 0 0 0
gi 0 0 0 0
gi 0 0 0 0
gi 0 0 0 0
gi 0 0 0 0
gi 0 0 0 0
gi 0 0 0 0
gi 0 0 0 0
gi 0 0 0 0
gi 0 0 0 0
gi 0 0 0 0
gi 0 0 0 0
gi 0 0 0 0
gi 0 0 0 0
gi 0 0 0 0
gi 0 0 0 0
gi 0 0 0 0
gi 0 0 0 0
gi 0 0 0 0
gi 0 0 0 0
gi 0 0 0 0
gi 0 0 0 0
gi 0 0 0 0
gi 0 0 0 0
gi 0 0 0 0
gi 0 0 0 0
gi 0 0 0 0
gi 0 0 0 0
gi 0 0 0 0
gi 0 0 0 0
gi 0 0 0 0
gi 0 0 0 0
gi 0 0 0 0
gi 0 0 0 0
gi 0 0 0 0
gi 0 0 0 0
gi 0 0 0 0
gi 0 0 0 0
gi 0 0 0 0
gi 0 0 0 0
gi 0 0 0 0
gi 0 0 0 0
gi 0 0 0 0
gi 0 0 0 0
gi 0 0 0 0
gi 0 0 0 0
gi 0 0 0 0
gi 0 0 0 0
gi 0 0 0 0
gi 0 0 0 0
gi 0 0 0 0
gi 0 0 0 0
gi 0 0 0 0
gi 0 0 0 0
gi 0 0 0 0
gi 0 0 0 0
gi 0 0 0 0
gi 0 0 0 0
gi 0 0 0 0
gi 0 0 0 0
gi 0 0 0 0
gi 0 0 0 0
gi 0 0 0 0
gi 0 0 0 0
gi 0 0 0 0
gi 0 0 0 0
gi 0 0 0 0
gi 0 0 0 0
gi 0 0 0 0
gi 0 0 0 0
gi 0 0 0 0
gi 0 0 0 0
gi 0 0 0 0
gi 0 0 0 0
gi 0 0 0 0
gi 0 0 0 0
gi 0 0 0 0
gi 0 0 0 0
gi 0 0 0 0
gi 0 0 0 0
gi 0 0 0 0
gi 0 0 0 0
gi 0 0 0 0
gi 0 0 0 0
gi 0 0 0 0
gi 0 0 0 0
gi 0 0 0 0
gi 0 0 0 0
gi 0 0 0 0
gi 0 0 0 0
gi 0 0 0 0
gi 0 0 0 0
gi 0 0 0 0
gi 0 0 0 0
gi 0 0 0 0
gi 0 0 0 0
gi 0 0 0 0
gi 0 0 0 0
gi 0 0 0 0
gi 0 0 0 0
gi 0 0 0 0
gi 0 0 0 0
gi 0 0 0 0
gi 0 0 0 0
gi 0 0 0 0
gi 0 0 0 0
gi 0 0 0 0
gi 0 0 0 0
gi 0 0 0 0
gi 0 0 0 0
gi 0 0 0 0
gi 0 0 0 0
gi 0 0 0 0
gw 0.0 0.0 0.0 0.0
gw 0.0 0.0 0.0 0.0
gw 0.0 0.0 0.0 0.0
gw 0.0 0.0 0.0 0.0
gw 0.0 0.0 0.0 0.0
gw 0.0 0.0 0.0 0.0
gw 0.0 0.0 0.0 0.0
gw 0.0 0.0 0.0 0.0
gw 0.0 0.0 0.0 0.0
gw 0.0 0.0 0.0 0.0
gw 0.0 0.0 0.0 0.0
gw 0.0 0.0 0.0 0.0
gw 0.0 0.0 0.0 0.0
gw 0.0 0.0 0.0 0.0
gw 0.0 0.0 0.0 0.0
gw 0.0 0.0 0.0 0.0
gw 0.0 0.0 0.0 0.0
gw 0.0 0.0 0.0 0.0
gw 0.0 0.0 0.0 0.0
gw 0.0 0.0 0.0 0.0
gw 0.0 0.0 0.0 0.0
gw 0.0 0.0 0.0 0.0
gw 0.0 0.0 0.0 0.0
gw 0.0 0.0 0.0 0.0
gw 0.0 0.0 0.0 0.0
gw 0.0 0.0 0.0 0.0
gw 0.0 0.0 0.0 0.0
gw 0.0 0.0 0.0 0.0
gw 0.0 0.0 0.0 0.0
gw 0.0 0.0 0.0 0.0
gw 0.0 0.0 0.0 0.0
gw 0.0 0.0 0.0 0.0
gw 0.0 0.0 0.0 0.0
gw 0.0 0.0 0.0 0.0
gw 0.0 0.0 0.0 0.0
gw 0.0 0.0 0.0 0.0
gw 0.0 0.0 0.0 0.0
gw 0.0 0.0 0.0 0.0
gw 0.0 0.0 0.0 0.0
gw 0.0 0.0 0.0 0.0
gw 0.0 0.0 0.0 0.0
gw 0.0 0.0 0.0 0.0
gw 0.0 0.0 0.0 0.0
gw 0.0 0.0 0.0 0.0
gw 0.0 0.0 0.0 0.0
gw 0.0 0.0 0.0 0.0
gw 0.0 0.0 0.0 0.0
gw 0.0 0.0 0.0 0.0
gw 0.0 0.0 0.0 0.0
gw 0.0 0.0 0.0 0.0
gw 0.0 0.0 0.0 0.0
gw 0.0 0.0 0.0 0.0
gw 0.0 0.0 0.0 0.0
gw 0.0 0.0 0.0 0.0
gw 0.0 0.0 0.0 0.0
gw 0.0 0.0 0.0 0.0
gw 0.0 0.0 0.0 0.0
gw 0.0 0.0 0.0 0.0
gw 0.0 0.0 0.0 0.0
gw 0.0 0.0 0.0 0.0
gw 0.0 0.0 0.0 0.0
gw 0.0 0.0 0.0 0.0
gw 0.0 0.0 0.0 0.0
gw 0.0 0.0 0.0 0.0
gw 0.0 0.0 0.0 0.0
gw 0.0 0.0 0.0 0.0
gw 0.0 0.0 0.0 0.0
gw 0.0 0.0 0.0 0.0
gw 0.0 0.0 0.0 0.0
gw 0.0 0.0 0.0 0.0
gw 0.0 0.0 0.0 0.0
gw 0.0 0.0 0.0 0.0
gw 0.0 0.0 0.0 0.0
gw 0.0 0.0 0.0 0.0
gw 0.0 0.0 0.0 0.0
gw 0.0 0.0 0.0 0.0
gw 0.0 0.0 0.0 0.0
gw 0.0 0.0 0.0 0.0
gw 0.0 0.0 0.0 0.0
gw 0.0 0.0 0.0 0.0
gw 0.0 0.0 0.0 0.0
gw 0.0 0.0 0.0 0.0
gw 0.0 0.0 0.0 0.0
gw 0.0 0.0 0.0 0.0
gw 0.0 0.0 0.0 0.0
gw 0.0 0.0 0.0 0.0
gw 0.0 0.0 0.0 0.0
gw 0.0 0.0 0.0 0.0
gw 0.0 0.0 0.0 0.0
gw 0.0 0.0 0.0 0.0
gw 0.0 0.0 0.0 0.0
gw 0.0 0.0 0.0 0.0
gw 0.0 0.0 0.0 0.0
gw 0.0 0.0 0.0 0.0
gw 0.0 0.0 0.0 0.0
gw 0.0 0.0 0.0 0.0
gw 0.0 0.0 0.0 0.0
gw 0.0 0.0 0.0 0.0
gw 0.0 0.0 0.0 0.0
gw 0.0 0.0 0.0 0.0
gw 0.0 0.0 0.0 0.0
gw 0.0 0.0 0.0 0.0
gw 0.0 0.0 0.0 0.0
gw 0.0 0.0 0.0 0.0
gw 0.0 0.0 0.0 0.0
gw 0.0 0.0 0.0 0.0
gw 0.0 0.0 0.0 0.0
gw 0.0 0.0 0.0 0.0
gw 0.0 0.0 0.0 0.0
gw 0.0 0.0 0.0 0.0
gw 0.0 0.0 0.0 0.0
gw 0.0 0.0 0.0 0.0
gw 0.0 0.0 0.0 0.0
gw 0.0 0.0 0.0 0.0
gw 0.0 0.0 0.0 0.0
gw 0.0 0.0 0.0 0.0
gw 0.0 0.0 0.0 0.0
gw 0.0 0.0 0.0 0.0
gw 0.0 0.0 0.0 0.0
gw 0.0 0.0 0.0 0.0
gw 0.0 0.0 0.0 0.0
gw 0.0 0.0 0.0 0.0
gw 0.0 0.0 0.0 0.0
gw 0.0 0.0 0.0 0.0
gw 0.0 0.0 0.0 0.0
gw 0.0 0.0 0.0 0.0
gw 0.0 0.0 0.0 0.0
gw 0.0 0.0 0.0 0.0
gw 0.0 0.0 0.0 0.0
gw 0.0 0.0 0.0 0.0
gw 0.0 0.0 0.0 0.0
gw 0.0 0.0 0.0 0.0
gw 0.0 0.0 0.0 0.0
gw 0.0 0.0 0.0 0.0
gw 0.0 0.0 0.0 0.0
gw 0.0 0.0 0.0 0.0
gw 0.0 0.0 0.0 0.0
gw 0.0 0.0 0.0 0.0
gw 0.0 0.0 0.0 0.0
gw 0.0 0.0 0.0 0.0
gw 0.0 0.0 0.0 0.0
gw 0.0 0.0 0.0 0.0
gw 0.0 0.0 0.0 0.0
gw 0.0 0.0 0.0 0.0
gw 0.0 0.0 0.0 0.0
gw 0.0 0.0 0.0 0.0
gw 0.0 0.0 0.0 0.0
gw 0.0 0.0 0.0 0.0
gw 0.0 0.0 0.0 0.0
gw 0.0 0.0 0.0 0.0
gw 0.0 0.0 0.0 0.0
gw 0.0 0.0 0.0 0.0
gw 0.0 0.0 0.0 0.0
gw 0.0 0.0 0.0 0.0
gw 0.0 0.0 0.0 0.0
gw 0.0 0.0 0.0 0.0
gw 0.0 0.0 0.0 0.0
gw 0.0 0.0 0.0 0.0
gw 0.0 0.0 0.0 0.0
gw 0.0 0.0 0.0 0.0
gw 0.0 0.0 0.0 0.0
gw 0.0 0.0 0.0 0.0
gw 0.0 0.0 0.0 0.0
gw 0.0 0.0 0.0 0.0
gw 0.0 0.0 0.0 0.0
gw 0.0 0.0 0.0 0.0
gw 0.0 0.0 0.0 0.0
gw 0.0 0.0 0.0 0.0
gw 0.0 0.0 0.0 0.0
gw 0.0 0.0 0.0 0.0
gw 0.0 0.0 0.0 0.0
gw 0.0 0.0 0.0 0.0
gw 0.0 0.0 0.0 0.0
gw 0.0 0.0 0.0 0.0
gw 0.0 0.0 0.0 0.0
gw 0.0 0.0 0.0 0.0
gw 0.0 0.0 0.0 0.0
gw 0.0 0.0 0.0 0.0
gw 0.0 0.0 0.0 0.0
gw 0.0 0.0 0.0 0.0
gw 0.0 0.0 0.0 0.0
gw 0.0 0.0 0.0 0.0
gw 0.0 0.0 0.0 0.0
gw 0.0 0.0 0.0 0.0
gw 0.0 0.0 0.0 0.0
gw 0.0 0.0 0.0 0.0
gw 0.0 0.0 0.0 0.0
gw 0.0 0.0 0.0 0.0
gw 0.0 0.0 0.0 0.0
gw 0.0 0.0 0.0 0.0
gw 0.0 0.0 0.0 0.0
gw 0.0 0.0 0.0 0.0
gw 0.0 0.0 0.0 0.0
gw 0.0 0.0 0.0 0.0
gw 0.0 0.0 0.0 0.0
gw 0.0 0.0 0.0 0.0
gw 0.0 0.0 0.0 0.0
gw 0.0 0.0 0.0 0.0
gw 0.0 0.0 0.0 0.0
gw 0.0 0.0 0.0 0.0
gw 0.0 0.0 0.0 0.0
gw 0.0 0.0 0.0 0.0
gw 0.0 0.0 0.0 0.0
gw 0.0 0.0 0.0 0.0
vt -0.0883 -0.4452
vt -0.057 -0.4461
vt -0.0883 0.6814
vt 0.0365 -0.1002
vt 0.2196 0.0632
vt 0.4282 0.1725
vt 0.4282 0.6814
vt 0.82 -0.1002
vt 0.8583 0.6814
vt 0.6369 0.0632
vt 0.8583 -0.2419
vt 1.6801 -0.0948
vt 1.7664 0.6814
vt 1.497 0.0815
vt 1.7762 -0.3286
vt 1.2883 0.6814
vt 1.2883 0.1725
vt 0.8966 -0.1002
vt 1.0797 0.0632
vt 1.8343 -0.1944
vt 1.9688 0.0049
vt 2.1522 0.1293
vt 2.268 0.1818
vt 2.268 0.6814
vt 2.3613 0.1519
vt 2.6936 0.6814
vt 2.5614 0.0127
vt 2.6936 -0.1558
vt 2.8161 -0.0366
vt 2.9695 0.0934
vt 3.1229 0.1575
vt 3.1229 0.6814
vt 3.2996 0.077
vt 3.6091 0.6814
vt 3.4764 -0.0873
vt 3.6091 -0.3581
vt 3.7567 -0.038
vt 3.949 0.0961
vt 4.0966 0.1698
vt 4.0966 0.6814
vt 4.2263 0.1042
vt 4.5293 0.6814
vt 4.3903 -0.0136
vt 4.5293 -0.1556
vt 22.7233 -0.4452
vt 22.7233 0.6814
vt 22.6734 -0.4449
vt 21.6476 0.6814
vt 21.8396 0.0101
vt 22.1282 0.1482
vt 22.1282 0.6814
vt 22.4167 0.0101
vt 21.6954 -0.177
vt 22.5609 -0.177
vt 21.6476 -0.2492
vt 20.5718 -0.4452
vt 20.5718 0.6814
vt 20.5406 -0.4461
vt 20.4471 -0.1002
vt 20.264 0.0632
vt 20.0553 0.6814
vt 20.0553 0.1725
vt 19.6635 -0.1002
vt 19.8466 0.0632
vt 19.6252 0.6814
vt 19.6252 -0.2419
vt 18.8034 -0.0948
vt 18.9865 0.0815
vt 18.7172 0.6814
vt 18.7073 -0.3286
vt 19.1952 0.1725
vt 19.1952 0.6814
vt 19.587 -0.1002
vt 19.4039 0.0632
vt 18.6492 -0.1944
vt 18.5148 0.0049
vt 18.3314 0.1293
vt 18.2156 0.6814
vt 18.2156 0.1818
vt 17.79 0.6814
vt 18.1222 0.1519
vt 17.9221 0.0127
vt 17.79 -0.1558
vt 17.6674 -0.0366
vt 17.514 0.0934
vt 17.3606 0.6814
vt 17.3606 0.1575
vt 16.8744 0.6814
vt 17.1839 0.077
vt 17.0072 -0.0873
vt 16.8744 -0.3581
vt 16.7269 -0.038
vt 16.5345 0.0961
vt 16.3869 0.6814
vt 16.3869 0.1698
vt 15.9542 0.6814
vt 16.2573 0.1042
vt 16.0933 -0.0136
vt 15.9722 -0.1554
vt 20.6351 -0.4449
vt 21.167 0.1482
vt 21.4555 0.0101
vt 21.167 0.6814
vt 20.8785 0.0101
vt 21.5998 -0.177
vt 20.7342 -0.177
vt 0.0644 -0.1002
vt 1.8117 -0.3286
vt 0.9274 -0.1002
vt 1.8514 -0.1944
vt 1.9802 0.0049
vt 2.7283 -0.1558
vt 3.6368 -0.3581
vt 3.7805 -0.038
vt 20.4241 -0.1002
vt 18.6762 -0.3286
vt 19.5504 -0.1002
vt 18.634 -0.1944
vt 18.5044 0.0049
vt 17.7545 -0.1558
vt 16.8535 -0.3581
vt 16.704 -0.038
vt 15.9367 -0.1556
vn -0.6995 0.0 -0.7146
vn 0.0 0.0 -1.0
vn -0.7071 0.0 -0.7071
vn 0.0 0.0 -1.0
vn 0.0 0.0 -1.0
vn 0.0 0.0 -1.0
vn 0.0 0.0 -1.0
vn 0.0 0.0 -1.0
vn 0.0 0.0 -1.0
vn -0.0 0.0 -1.0
vn 0.0 0.0 -1.0
vn -0.0 0.0 -1.0
vn -0.0 0.0 -1.0
vn -0.0 0.0 -1.0
vn -0.0 0.0 -1.0
vn 0.0 0.0 -1.0
vn 0.0 0.0 -1.0
vn -0.0 0.0 -1.0
vn 0.0 0.0 -1.0
vn 0.0 0.0 -1.0
vn 0.0 0.0 -1.0
vn 0.0 0.0 -1.0
vn -0.0 0.0 -1.0
vn -0.0 0.0 -1.0
vn -0.0 0.0 -1.0
vn 0.0 0.0 -1.0
vn 0.0 0.0 -1.0
vn 0.0 0.0 -1.0
vn 0.0 0.0 -1.0
vn 0.0 0.0 -1.0
vn 0.0 0.0 -1.0
vn 0.0 0.0 -1.0
vn 0.0 0.0 -1.0
vn -0.0 0.0 -1.0
vn 0.0 0.0 -1.0
vn -0.0 0.0 -1.0
vn -0.0 0.0 -1.0
vn 0.0 0.0 -1.0
vn 0.0 0.0 -1.0
vn 0.0 0.0 -1.0
vn 0.0 0.0 -1.0
vn 0.0 0.0 -1.0
vn 0.0 0.0 -1.0
vn 0.0 0.0 -1.0
vn -1.0 0.0 0.0
vn -1.0 0.0 0.0
vn -1.0 0.0 0.0
vn -1.0 -0.0 0.0
vn -1.0 0.0 0.0
vn -1.0 -0.0 0.0
vn -1.0 -0.0 0.0
vn -1.0 -0.0 0.0
vn -0.6997 -0.0 0.7144
vn -0.7071 -0.0 0.7071
vn 0.0 -0.0 1.0
vn 0.0 -0.0 1.0
vn 0.0 -0.0 1.0
vn 0.0 -0.0 1.0
vn 0.0 -0.0 1.0
vn -0.0 -0.0 1.0
vn 0.0 -0.0 1.0
vn -0.0 -0.0 1.0
vn -0.0 -0.0 1.0
vn 0.0 -0.0 1.0
vn 0.0 -0.0 1.0
vn -0.0 -0.0 1.0
vn 0.0 -0.0 1.0
vn 0.0 -0.0 1.0
vn 0.0 -0.0 1.0
vn 0.0 -0.0 1.0
vn 0.0 -0.0 1.0
vn -0.0 -0.0 1.0
vn -0.0 -0.0 1.0
vn 0.0 -0.0 1.0
vn 0.0 -0.0 1.0
vn 0.0 -0.0 1.0
vn 0.0 -0.0 1.0
vn 0.0 -0.0 1.0
vn 0.0 -0.0 1.0
vn 0.0 -0.0 1.0
vn 0.0 -0.0 1.0
vn 0.0 -0.0 1.0
vn -0.0 -0.0 1.0
vn -0.0 -0.0 1.0
vn 0.0 -0.0 1.0
vn -0.0 -0.0 1.0
vn 0.0 -0.0 1.0
vn 0.0 -0.0 1.0
vn 0.0 -0.0 1.0
vn 0.0 -0.0 1.0
vn 0.0 0.0 1.0
vn 0.0 -0.0 1.0
vn 0.0 0.0 1.0
vn 0.0 0.0 1.0
vn 0.0 0.0 1.0
vn 0.0 0.0 1.0
vn -1.0 0.0 0.0
vn -1.0 0.0 0.0
vn -1.0 0.0 0.0
vn -1.0 0.0 0.0
vn -1.0 0.0 0.0
vn 0.6995 0.0 -0.7146
vn 0.7071 0.0 -0.7071
vn -0.0 0.0 -1.0
vn -0.0 0.0 -1.0
vn -0.0 0.0 -1.0
vn 0.0 0.0 -1.0
vn 0.0 0.0 -1.0
vn -0.0 0.0 -1.0
vn 0.0 0.0 -1.0
vn -0.0 0.0 -1.0
vn -0.0 0.0 -1.0
vn 0.0 0.0 -1.0
vn 0.0 0.0 -1.0
vn 0.0 0.0 -1.0
vn 0.0 0.0 -1.0
vn -0.0 0.0 -1.0
vn -0.0 0.0 -1.0
vn 0.0 0.0 -1.0
vn -0.0 0.0 -1.0
vn -0.0 0.0 -1.0
vn -0.0 0.0 -1.0
vn 0.0 0.0 -1.0
vn 0.0 0.0 -1.0
vn 0.0 0.0 -1.0
vn 0.0 0.0 -1.0
vn 0.0 0.0 -1.0
vn 0.0 0.0 -1.0
vn 0.0 0.0 -1.0
vn 0.0 0.0 -1.0
vn 0.0 0.0 -1.0
vn -0.0 0.0 -1.0
vn -0.0 0.0 -1.0
vn 0.0 0.0 -1.0
vn -0.0 0.0 -1.0
vn 0.0 0.0 -1.0
vn 0.0 0.0 -1.0
vn 0.0 0.0 -1.0
vn 0.0 0.0 -1.0
vn -0.0 0.0 -1.0
vn -0.0 0.0 -1.0
vn -0.0 0.0 -1.0
vn 0.0 0.0 -1.0
vn 1.0 0.0 0.0
vn 1.0 -0.0 0.0
vn 1.0 -0.0 0.0
vn 1.0 -0.0 0.0
vn 1.0 -0.0 0.0
vn 1.0 -0.0 0.0
vn 1.0 -0.0 0.0
vn 1.0 -0.0 0.0
vn 0.6997 -0.0 0.7144
vn 0.0 -0.0 1.0
vn 0.7071 -0.0 0.7071
vn 0.0 -0.0 1.0
vn 0.0 -0.0 1.0
vn 0.0 -0.0 1.0
vn 0.0 -0.0 1.0
vn 0.0 -0.0 1.0
vn 0.0 -0.0 1.0
vn 0.0 -0.0 1.0
vn 0.0 -0.0 1.0
vn 0.0 -0.0 1.0
vn 0.0 -0.0 1.0
vn -0.0 -0.0 1.0
vn 0.0 -0.0 1.0
vn -0.0 -0.0 1.0
vn -0.0 -0.0 1.0
vn 0.0 -0.0 1.0
vn 0.0 -0.0 1.0
vn 0.0 -0.0 1.0
vn 0.0 -0.0 1.0
vn -0.0 -0.0 1.0
vn -0.0 -0.0 1.0
vn -0.0 -0.0 1.0
vn -0.0 -0.0 1.0
vn 0.0 -0.0 1.0
vn 0.0 -0.0 1.0
vn 0.0 -0.0 1.0
vn 0.0 -0.0 1.0
vn 0.0 -0.0 1.0
vn 0.0 -0.0 1.0
vn 0.0 -0.0 1.0
vn 0.0 -0.0 1.0
vn 0.0 -0.0 1.0
vn 0.0 -0.0 1.0
vn 0.0 -0.0 1.0
vn 0.0 -0.0 1.0
vn -0.0 -0.0 1.0
vn -0.0 0.0 1.0
vn -0.0 0.0 1.0
vn 0.0 0.0 1.0
vn 1.0 -0.0 0.0
vn 1.0 0.0 0.0
vn 1.0 -0.0 0.0
vn 1.0 0.0 0.0
vn 1.0 -0.0 0.0
vn 1.0 0.0 0.0
vtan -0.7146 -0.0006 0.6995
vtan -1.0 -0.0003 -0.0
vtan -0.7071 0.0 0.7071
vtan -1.0 0.0002 -0.0
vtan -1.0 -0.0001 -0.0
vtan -1.0 0.0 -0.0
vtan -1.0 0.0 -0.0
vtan -1.0 0.0002 -0.0
vtan -1.0 0.0 -0.0
vtan -1.0 0.0001 0.0
vtan -1.0 0.0 -0.0
vtan -1.0 -0.0001 0.0
vtan -1.0 -0.0 0.0
vtan -1.0 0.0 0.0
vtan -1.0 0.0003 0.0
vtan -1.0 -0.0 -0.0
vtan -1.0 -0.0 -0.0
vtan -1.0 -0.0002 0.0
vtan -1.0 -0.0001 -0.0
vtan -1.0 0.0005 -0.0
vtan -1.0 -0.0001 -0.0
vtan -1.0 -0.0001 -0.0
vtan -1.0 -0.0001 0.0
vtan -1.0 -0.0 0.0
vtan -1.0 0.0001 0.0
vtan -1.0 0.0 0.0
vtan -1.0 -0.0002 -0.0
vtan -1.0 0.0001 0.0
vtan -1.0 0.0002 0.0
vtan -1.0 -0.0002 -0.0
vtan -1.0 -0.0 -0.0
vtan -1.0 -0.0 -0.0
vtan -1.0 0.0002 -0.0
vtan -1.0 0.0 0.0
vtan -1.0 -0.0 -0.0
vtan -1.0 -0.0001 0.0
vtan -1.0 -0.0001 0.0
vtan -1.0 -0.0 -0.0
vtan -1.0 0.0003 -0.0
vtan -1.0 0.0 -0.0
vtan -1.0 0.0001 -0.0
vtan -1.0 -0.0029 -0.0
vtan -0.9999 -0.0138 -0.0
vtan -0.9998 -0.0213 -0.0
vtan -0.7146 -0.0008 0.6995
vtan -0.7071 0.0 0.7071
vtan 0.0 -0.0003 1.0
vtan 0.0 0.0 1.0
vtan -0.0 -0.0 1.0
vtan 0.0 -0.0 1.0
vtan -0.0 -0.0 1.0
vtan -0.0 0.0 1.0
vtan 0.0 -0.001 1.0
vtan 0.0 0.0004 1.0
vtan -0.0 0.0 1.0
vtan 0.7144 0.0006 0.6997
vtan 0.7071 -0.0 0.7071
vtan 1.0 0.0003 0.0
vtan 1.0 -0.0002 -0.0
vtan 1.0 0.0001 -0.0
vtan 1.0 0.0 -0.0
vtan 1.0 0.0 -0.0
vtan 1.0 -0.0002 0.0
vtan 1.0 -0.0001 -0.0
vtan 1.0 -0.0 0.0
vtan 1.0 0.0 0.0
vtan 1.0 0.0001 0.0
vtan 1.0 -0.0 -0.0
vtan 1.0 0.0 0.0
vtan 1.0 -0.0003 -0.0
vtan 1.0 0.0 -0.0
vtan 1.0 0.0 -0.0
vtan 1.0 0.0002 0.0
vtan 1.0 0.0001 -0.0
vtan 1.0 -0.0005 0.0
vtan 1.0 0.0001 0.0
vtan 1.0 0.0001 -0.0
vtan 1.0 0.0 -0.0
vtan 1.0 0.0001 -0.0
vtan 1.0 -0.0 -0.0
vtan 1.0 -0.0001 -0.0
vtan 1.0 0.0002 0.0
vtan 1.0 -0.0001 -0.0
vtan 1.0 -0.0002 -0.0
vtan 1.0 0.0002 0.0
vtan 1.0 0.0 0.0
vtan 1.0 0.0 0.0
vtan 1.0 -0.0 -0.0
vtan 1.0 -0.0002 0.0
vtan 1.0 0.0 0.0
vtan 1.0 0.0001 0.0
vtan 1.0 0.0001 0.0
vtan 1.0 0.0 0.0
vtan 1.0 -0.0 -0.0
vtan 1.0 -0.0003 -0.0
vtan 1.0 0.003 -0.0
vtan 1.0 -0.0001 -0.0
vtan 0.9999 0.0164 -0.0
vtan 0.9997 0.025 -0.0
vtan 0.0 0.0002 1.0
vtan 0.0 0.0 1.0
vtan 0.0 0.0 1.0
vtan 0.0 0.0 1.0
vtan -0.0 -0.0 1.0
vtan 0.0 0.001 1.0
vtan 0.0 -0.0004 1.0
vtan 0.7146 -0.0006 0.6995
vtan 0.7071 0.0 0.7071
vtan 1.0 -0.0003 -0.0
vtan 1.0 0.0002 -0.0
vtan 1.0 -0.0001 -0.0
vtan 1.0 -0.0 0.0
vtan 1.0 -0.0 0.0
vtan 1.0 0.0002 -0.0
vtan 1.0 0.0001 0.0
vtan 1.0 -0.0 -0.0
vtan 1.0 0.0 -0.0
vtan 1.0 -0.0001 0.0
vtan 1.0 0.0 0.0
vtan 1.0 -0.0 0.0
vtan 1.0 0.0003 0.0
vtan 1.0 -0.0 -0.0
vtan 1.0 -0.0 -0.0
vtan 1.0 -0.0001 0.0
vtan 1.0 -0.0001 -0.0
vtan 1.0 0.0007 -0.0
vtan 1.0 -0.0001 -0.0
vtan 1.0 -0.0001 -0.0
vtan 1.0 -0.0 0.0
vtan 1.0 -0.0001 0.0
vtan 1.0 0.0 0.0
vtan 1.0 0.0001 0.0
vtan 1.0 -0.0001 -0.0
vtan 1.0 0.0002 0.0
vtan 1.0 0.0004 0.0
vtan 1.0 -0.0002 -0.0
vtan 1.0 -0.0 -0.0
vtan 1.0 -0.0 -0.0
vtan 1.0 0.0 0.0
vtan 1.0 0.0002 -0.0
vtan 1.0 -0.0 -0.0
vtan 1.0 -0.0001 0.0
vtan 1.0 -0.0001 0.0
vtan 1.0 -0.0 -0.0
vtan 1.0 0.0 -0.0
vtan 1.0 0.0003 -0.0
vtan 1.0 -0.0029 -0.0
vtan 1.0 0.0001 -0.0
vtan 0.9999 -0.0138 -0.0
vtan 0.9998 -0.0213 -0.0
vtan 0.7146 -0.0008 0.6995
vtan 0.7071 0.0 0.7071
vtan -0.0 -0.0 1.0
vtan -0.0 -0.0 1.0
vtan -0.0 -0.0 1.0
vtan -0.0 -0.0 1.0
vtan 0.0 0.0 1.0
vtan 0.0 -0.001 1.0
vtan 0.0 0.0004 1.0
vtan 0.0 0.0 1.0
vtan -0.7144 0.0006 0.6997
vtan -1.0 0.0003 0.0
vtan -0.7071 -0.0 0.7071
vtan -1.0 -0.0002 -0.0
vtan -1.0 0.0001 0.0
vtan -1.0 -0.0 0.0
vtan -1.0 -0.0 0.0
vtan -1.0 -0.0002 0.0
vtan -1.0 0.0 0.0
vtan -1.0 -0.0001 0.0
vtan -1.0 -0.0 0.0
vtan -1.0 0.0001 0.0
vtan -1.0 0.0 0.0
vtan -1.0 -0.0 -0.0
vtan -1.0 -0.0003 -0.0
vtan -1.0 0.0 -0.0
vtan -1.0 0.0 -0.0
vtan -1.0 0.0001 0.0
vtan -1.0 0.0001 0.0
vtan -1.0 -0.0006 0.0
vtan -1.0 0.0001 0.0
vtan -1.0 0.0001 -0.0
vtan -1.0 0.0001 -0.0
vtan -1.0 0.0 -0.0
vtan -1.0 -0.0001 -0.0
vtan -1.0 -0.0 -0.0
vtan -1.0 0.0001 0.0
vtan -1.0 -0.0002 -0.0
vtan -1.0 -0.0004 -0.0
vtan -1.0 0.0002 0.0
vtan -1.0 0.0 0.0
vtan -1.0 0.0 0.0
vtan -1.0 -0.0002 0.0
vtan -1.0 -0.0 -0.0
vtan -1.0 0.0 0.0
vtan -1.0 0.0001 0.0
vtan -1.0 0.0001 0.0
vtan -1.0 0.0 0.0
vtan -1.0 -0.0003 -0.0
vtan -1.0 -0.0 -0.0
vtan -1.0 -0.0001 -0.0
vtan -1.0 0.0028 -0.0
vtan -0.9999 0.0124 -0.0
vtan -0.9998 0.0193 -0.0
vtan 0.0 0.0 1.0
vtan -0.0 0.0 1.0
vtan 0.0 0.0 1.0
vtan 0.0 -0.0 1.0
vtan 0.0 0.001 1.0
vtan 0.0 -0.0004 1.0
f 0/0/0/0 1/1/1/1 2/2/2/2 
f 3/3/3/3 4/4/4/4 2/2/2/2 
f 1/1/1/1 3/3/3/3 2/2/2/2 
f 4/4/4/4 5/5/5/5 6/6/6/6 
f 4/4/4/4 6/6/6/6 2/2/2/2 
f 7/7/7/7 8/8/8/8 9/9/9/9 
f 6/6/6/6 5/5/5/5 9/9/9/9 
f 6/6/6/6 9/9/9/9 8/8/8/8 
f 8/8/8/8 7/7/7/7 10/10/10/10 
f 11/11/11/11 12/12/12/12 13/13/13/13 
f 14/14/14/14 12/12/12/12 11/11/11/11 
f 15/15/15/15 16/16/16/16 13/13/13/13 
f 15/15/15/15 13/13/13/13 12/12/12/12 
f 17/17/17/17 18/18/18/18 8/8/8/8 
f 18/18/18/18 16/16/16/16 15/15/15/15 
f 18/18/18/18 15/15/15/15 8/8/8/8 
f 10/10/10/10 17/17/17/17 8/8/8/8 
f 14/14/14/14 19/19/19/19 12/12/12/12 
f 20/20/20/20 21/21/21/21 12/12/12/12 
f 19/19/19/19 20/20/20/20 12/12/12/12 
f 21/21/21/21 22/22/22/22 23/23/23/23 
f 21/21/21/21 23/23/23/23 12/12/12/12 
f 23/23/23/23 22/22/22/22 24/24/24/24 
f 23/23/23/23 24/24/24/24 25/25/25/25 
f 24/24/24/24 26/26/26/26 25/25/25/25 
f 26/26/26/26 27/27/27/27 25/25/25/25 
f 27/27/27/27 28/28/28/28 25/25/25/25 
f 28/28/28/28 29/29/29/29 25/25/25/25 
f 29/29/29/29 30/30/30/30 31/31/31/31 
f 29/29/29/29 31/31/31/31 25/25/25/25 
f 31/31/31/31 30/30/30/30 32/32/32/32 
f 31/31/31/31 32/32/32/32 33/33/33/33 
f 34/34/34/34 35/35/35/35 33/33/33/33 
f 32/32/32/32 34/34/34/34 33/33/33/33 
f 35/35/35/35 36/36/36/36 33/33/33/33 
f 37/37/37/37 38/38/38/38 39/39/39/39 
f 37/37/37/37 39/39/39/39 33/33/33/33 
f 36/36/36/36 37/37/37/37 33/33/33/33 
f 39/39/39/39 38/38/38/38 40/40/40/40 
f 39/39/39/39 40/40/40/40 41/41/41/41 
f 42/42/42/42 43/43/43/43 41/41/41/41 
f 40/40/40/40 42/42/42/42 41/41/41/41 
f 0/44/0/44 2/45/2/45 44/46/44/46 
f 45/47/45/47 46/48/46/48 47/49/47/49 
f 45/47/45/47 47/49/47/49 48/50/48/50 
f 48/50/48/50 47/49/47/49 49/51/49/51 
f 48/50/48/50 49/51/49/51 2/45/2/45 
f 45/47/45/47 50/52/50/52 46/48/46/48 
f 2/45/2/45 49/51/49/51 51/53/44/53 
f 45/47/45/47 52/54/51/54 50/52/50/52 
f 2/45/2/45 51/53/44/53 44/46/44/46 
f 53/55/52/55 54/56/53/56 55/57/54/57 
f 56/58/55/58 54/56/53/56 57/59/56/59 
f 55/57/54/57 54/56/53/56 56/58/55/58 
f 58/60/57/60 59/61/58/61 57/59/56/59 
f 58/60/57/60 57/59/56/59 54/56/53/56 
f 60/62/59/62 61/63/60/63 62/64/61/64 
f 61/63/60/63 59/61/58/61 58/60/57/60 
f 61/63/60/63 58/60/57/60 62/64/61/64 
f 62/64/61/64 63/65/62/65 60/62/59/62 
f 64/66/63/66 65/67/64/67 66/68/65/68 
f 67/69/66/69 64/66/63/66 66/68/65/68 
f 65/67/64/67 68/70/67/70 69/71/68/71 
f 65/67/64/67 69/71/68/71 66/68/65/68 
f 70/72/69/72 62/64/61/64 71/73/70/73 
f 69/71/68/71 68/70/67/70 71/73/70/73 
f 69/71/68/71 71/73/70/73 62/64/61/64 
f 63/65/62/65 62/64/61/64 70/72/69/72 
f 67/69/66/69 66/68/65/68 72/74/71/74 
f 73/75/72/75 66/68/65/68 74/76/73/76 
f 72/74/71/74 66/68/65/68 73/75/72/75 
f 74/76/73/76 66/68/65/68 75/77/74/77 
f 74/76/73/76 75/77/74/77 76/78/75/78 
f 75/77/74/77 77/79/76/79 78/80/77/80 
f 75/77/74/77 78/80/77/80 76/78/75/78 
f 78/80/77/80 77/79/76/79 79/81/78/81 
f 79/81/78/81 77/79/76/79 80/82/79/82 
f 80/82/79/82 77/79/76/79 81/83/80/83 
f 81/83/80/83 77/79/76/79 82/84/81/84 
f 82/84/81/84 77/79/76/79 83/85/82/85 
f 82/84/81/84 83/85/82/85 84/86/83/86 
f 83/85/82/85 85/87/84/87 86/88/85/88 
f 83/85/82/85 86/88/85/88 84/86/83/86 
f 87/89/86/89 85/87/84/87 88/90/87/90 
f 86/88/85/88 85/87/84/87 87/89/86/89 
f 88/90/87/90 85/87/84/87 89/91/88/91 
f 90/92/89/92 85/87/84/87 91/93/90/93 
f 90/92/89/92 91/93/90/93 92/94/91/94 
f 89/91/88/91 85/87/84/87 90/92/89/92 
f 91/93/90/93 93/95/92/95 94/96/93/96 
f 91/93/90/93 94/96/93/96 92/94/91/94 
f 95/97/94/97 93/95/92/95 96/98/95/98 
f 94/96/93/96 93/95/92/95 95/97/94/97 
f 53/55/52/55 97/99/44/99 54/56/53/56 
f 98/100/96/100 99/101/97/101 45/47/45/47 
f 98/100/96/100 45/47/45/47 100/102/98/102 
f 101/103/99/103 98/100/96/100 100/102/98/102 
f 101/103/99/103 100/102/98/102 54/56/53/56 
f 99/101/97/101 102/104/100/104 45/47/45/47 
f 54/56/53/56 103/105/44/105 101/103/99/103 
f 102/104/100/104 52/54/51/54 45/47/45/47 
f 54/56/53/56 97/99/44/99 103/105/44/105 
f 104/0/101/106 105/2/102/107 106/1/103/108 
f 107/106/104/109 105/2/102/107 108/4/105/110 
f 106/1/103/108 105/2/102/107 107/106/104/109 
f 109/6/106/111 110/5/107/112 108/4/105/110 
f 109/6/106/111 108/4/105/110 105/2/102/107 
f 111/7/108/113 112/9/109/114 113/8/110/115 
f 112/9/109/114 110/5/107/112 109/6/106/111 
f 112/9/109/114 109/6/106/111 113/8/110/115 
f 113/8/110/115 114/10/111/116 111/7/108/113 
f 115/11/112/117 116/13/113/118 117/12/114/119 
f 118/107/115/120 115/11/112/117 117/12/114/119 
f 116/13/113/118 119/16/116/121 120/15/117/122 
f 116/13/113/118 120/15/117/122 117/12/114/119 
f 121/108/118/123 113/8/110/115 122/18/119/124 
f 120/15/117/122 119/16/116/121 122/18/119/124 
f 120/15/117/122 122/18/119/124 113/8/110/115 
f 114/10/111/116 113/8/110/115 121/108/118/123 
f 118/107/115/120 117/12/114/119 123/109/120/125 
f 124/110/121/126 117/12/114/119 125/21/122/127 
f 123/109/120/125 117/12/114/119 124/110/121/126 
f 125/21/122/127 117/12/114/119 126/23/123/128 
f 125/21/122/127 126/23/123/128 127/22/124/129 
f 126/23/123/128 128/25/125/130 129/24/126/131 
f 126/23/123/128 129/24/126/131 127/22/124/129 
f 129/24/126/131 128/25/125/130 130/26/127/132 
f 130/26/127/132 128/25/125/130 131/111/128/133 
f 131/111/128/133 128/25/125/130 132/28/129/134 
f 132/28/129/134 128/25/125/130 133/29/130/135 
f 133/29/130/135 128/25/125/130 134/31/131/136 
f 133/29/130/135 134/31/131/136 135/30/132/137 
f 134/31/131/136 136/33/133/138 137/32/134/139 
f 134/31/131/136 137/32/134/139 135/30/132/137 
f 138/34/135/140 136/33/133/138 139/112/136/141 
f 137/32/134/139 136/33/133/138 138/34/135/140 
f 139/112/136/141 136/33/133/138 140/113/137/142 
f 141/37/138/143 136/33/133/138 142/39/139/144 
f 141/37/138/143 142/39/139/144 143/38/140/145 
f 140/113/137/142 136/33/133/138 141/37/138/143 
f 142/39/139/144 41/41/41/146 144/40/141/147 
f 142/39/139/144 144/40/141/147 143/38/140/145 
f 145/42/142/148 41/41/41/146 43/43/43/149 
f 144/40/141/147 41/41/41/146 145/42/142/148 
f 104/44/101/150 146/46/143/46 105/45/102/151 
f 147/49/144/152 148/48/145/153 149/47/146/154 
f 147/49/144/152 149/47/146/154 150/50/147/155 
f 151/51/148/156 147/49/144/152 150/50/147/155 
f 151/51/148/156 150/50/147/155 105/45/102/151 
f 149/47/146/154 148/48/145/153 152/52/143/157 
f 105/45/102/151 153/53/149/158 151/51/148/156 
f 149/47/146/154 152/52/143/157 154/54/150/159 
f 105/45/102/151 146/46/143/46 153/53/149/158 
f 155/55/151/160 156/57/152/161 157/56/153/162 
f 158/114/154/163 159/59/155/164 157/56/153/162 
f 156/57/152/161 158/114/154/163 157/56/153/162 
f 159/59/155/164 160/61/156/165 161/60/157/166 
f 159/59/155/164 161/60/157/166 157/56/153/162 
f 162/62/158/167 163/64/159/168 164/63/160/169 
f 161/60/157/166 160/61/156/165 164/63/160/169 
f 161/60/157/166 164/63/160/169 163/64/159/168 
f 163/64/159/168 162/62/158/167 165/65/161/170 
f 166/66/162/171 167/68/163/172 168/67/164/173 
f 169/115/165/174 167/68/163/172 166/66/162/171 
f 170/71/166/175 171/70/167/176 168/67/164/173 
f 170/71/166/175 168/67/164/173 167/68/163/172 
f 172/116/168/177 173/73/169/178 163/64/159/168 
f 173/73/169/178 171/70/167/176 170/71/166/175 
f 173/73/169/178 170/71/166/175 163/64/159/168 
f 165/65/161/170 172/116/168/177 163/64/159/168 
f 169/115/165/174 174/117/170/179 167/68/163/172 
f 175/118/171/180 176/76/172/181 167/68/163/172 
f 174/117/170/179 175/118/171/180 167/68/163/172 
f 176/76/172/181 177/78/173/182 178/77/174/183 
f 176/76/172/181 178/77/174/183 167/68/163/172 
f 178/77/174/183 177/78/173/182 179/80/175/184 
f 178/77/174/183 179/80/175/184 180/79/176/185 
f 179/80/175/184 181/81/177/186 180/79/176/185 
f 181/81/177/186 182/119/178/187 180/79/176/185 
f 182/119/178/187 183/83/179/188 180/79/176/185 
f 183/83/179/188 184/84/81/189 180/79/176/185 
f 184/84/81/189 185/86/180/190 186/85/181/191 
f 184/84/81/189 186/85/181/191 180/79/176/185 
f 186/85/181/191 185/86/180/190 187/88/182/192 
f 186/85/181/191 187/88/182/192 188/87/183/193 
f 189/89/184/194 190/120/185/195 188/87/183/193 
f 187/88/182/192 189/89/184/194 188/87/183/193 
f 190/120/185/195 191/121/186/196 188/87/183/193 
f 192/92/187/197 193/94/188/198 194/93/189/199 
f 192/92/187/197 194/93/189/199 188/87/183/193 
f 191/121/186/196 192/92/187/197 188/87/183/193 
f 194/93/189/199 193/94/188/198 195/96/190/200 
f 194/93/189/199 195/96/190/200 93/95/92/201 
f 196/97/191/202 96/122/95/203 93/95/92/201 
f 195/96/190/200 196/97/191/202 93/95/92/201 
f 155/55/151/160 157/56/153/162 197/99/143/99 
f 149/47/146/154 198/101/192/204 199/100/193/205 
f 149/47/146/154 199/100/193/205 200/102/194/206 
f 200/102/194/206 199/100/193/205 201/103/195/207 
f 200/102/194/206 201/103/195/207 157/56/153/162 
f 198/101/192/204 149/47/146/154 202/104/196/208 
f 157/56/153/162 201/103/195/207 203/105/197/209 
f 202/104/196/208 149/47/146/154 154/54/150/159 
f 157/56/153/162 203/105/197/209 197/99/143/99 
