v -688.9853 279.8812 199.0069
v -688.9853 280.1829 197.8808
v -648.8207 280.1829 197.8808
v -648.8207 279.8812 199.0069
v -688.9853 281.0073 197.0564
v -648.8207 281.0073 197.0564
v -688.9853 282.1334 196.7545
v -648.8207 282.1334 196.7545
v -688.9853 283.2596 197.0564
v -648.8207 283.2596 197.0564
v -688.9853 284.0839 197.8808
v -648.8207 284.0839 197.8808
v -688.9853 284.3857 199.0069
v -648.8207 284.3857 199.0069
v -688.9853 284.0839 200.1329
v -648.8207 284.0839 200.1329
v -688.9853 283.2596 200.9574
v -648.8207 283.2596 200.9574
v -688.9853 282.1334 201.259
v -648.8207 282.1334 201.259
v -688.9853 281.0073 200.9574
v -648.8207 281.0073 200.9574
v -688.9853 280.1829 200.1329
v -648.8207 280.1829 200.1329
v -729.1499 279.8812 199.0069
v -729.1499 280.1829 197.8808
v -729.1499 281.0073 197.0564
v -729.1499 282.1334 196.7545
v -729.1499 283.2596 197.0564
v -729.1499 284.0839 197.8808
v -729.1499 284.3857 199.0069
v -729.1499 284.0839 200.1329
v -729.1499 283.2596 200.9574
v -729.1499 282.1334 201.259
v -729.1499 281.0073 200.9574
v -729.1499 280.1829 200.1329
v -769.3145 279.8812 199.0069
v -769.3145 280.1829 197.8808
v -769.3145 281.0073 197.0564
v -769.3145 282.1334 196.7545
v -769.3145 283.2596 197.0564
v -769.3145 284.0839 197.8808
v -769.3145 284.3857 199.0069
v -769.3145 284.0839 200.1329
v -769.3145 283.2596 200.9574
v -769.3145 282.1334 201.259
v -769.3145 281.0073 200.9574
v -769.3145 280.1829 200.1329
v -803.7593 279.8812 199.0069
v -803.7593 280.1829 197.8808
v -803.7593 281.0073 197.0564
v -803.7593 282.1334 196.7545
v -803.7593 283.2596 197.0564
v -803.7593 284.0839 197.8808
v -803.7593 284.3857 199.0069
v -803.7593 284.0839 200.1329
v -803.7593 283.2596 200.9574
v -803.7593 282.1334 201.259
v -803.7593 281.0073 200.9574
v -803.7593 280.1829 200.1329
v -958.6978 280.1829 197.8808
v -918.5332 280.1829 197.8808
v -918.5332 279.8812 199.0069
v -958.6978 279.8812 199.0069
v -958.6978 281.0073 197.0564
v -918.5332 281.0073 197.0564
v -958.6978 282.1334 196.7545
v -918.5332 282.1334 196.7545
v -958.6978 283.2596 197.0564
v -918.5332 283.2596 197.0564
v -958.6978 284.0839 197.8808
v -918.5332 284.0839 197.8808
v -958.6978 284.3857 199.0069
v -918.5332 284.3857 199.0069
v -958.6978 284.0839 200.1329
v -918.5332 284.0839 200.1329
v -958.6978 283.2596 200.9574
v -918.5332 283.2596 200.9574
v -958.6978 282.1334 201.259
v -918.5332 282.1334 201.259
v -958.6978 281.0073 200.9574
v -918.5332 281.0073 200.9574
v -958.6978 280.1829 200.1329
v -918.5332 280.1829 200.1329
v -878.3687 280.1829 197.8808
v -878.3687 279.8812 199.0069
v -878.3687 281.0073 197.0564
v -878.3687 282.1334 196.7545
v -878.3687 283.2596 197.0564
v -878.3687 284.0839 197.8808
v -878.3687 284.3857 199.0069
v -878.3687 284.0839 200.1329
v -878.3687 283.2596 200.9574
v -878.3687 282.1334 201.259
v -878.3687 281.0073 200.9574
v -878.3687 280.1829 200.1329
v -838.204 280.1829 197.8808
v -838.204 279.8812 199.0069
v -838.204 281.0073 197.0564
v -838.204 282.1334 196.7545
v -838.204 283.2596 197.0564
v -838.204 284.0839 197.8808
v -838.204 284.3857 199.0069
v -838.204 284.0839 200.1329
v -838.204 283.2596 200.9574
v -838.204 282.1334 201.259
v -838.204 281.0073 200.9574
v -838.204 280.1829 200.1329
gi 0 0 0 0
gi 0 0 0 0
gi 0 0 0 0
gi 0 0 0 0
gi 0 0 0 0
gi 0 0 0 0
gi 0 0 0 0
gi 0 0 0 0
gi 0 0 0 0
gi 0 0 0 0
gi 0 0 0 0
gi 0 0 0 0
gi 0 0 0 0
gi 0 0 0 0
gi 0 0 0 0
gi 0 0 0 0
gi 0 0 0 0
gi 0 0 0 0
gi 0 0 0 0
gi 0 0 0 0
gi 0 0 0 0
gi 0 0 0 0
gi 0 0 0 0
gi 0 0 0 0
gi 0 0 0 0
gi 0 0 0 0
gi 0 0 0 0
gi 0 0 0 0
gi 0 0 0 0
gi 0 0 0 0
gi 0 0 0 0
gi 0 0 0 0
gi 0 0 0 0
gi 0 0 0 0
gi 0 0 0 0
gi 0 0 0 0
gi 0 0 0 0
gi 0 0 0 0
gi 0 0 0 0
gi 0 0 0 0
gi 0 0 0 0
gi 0 0 0 0
gi 0 0 0 0
gi 0 0 0 0
gi 0 0 0 0
gi 0 0 0 0
gi 0 0 0 0
gi 0 0 0 0
gi 0 0 0 0
gi 0 0 0 0
gi 0 0 0 0
gi 0 0 0 0
gi 0 0 0 0
gi 0 0 0 0
gi 0 0 0 0
gi 0 0 0 0
gi 0 0 0 0
gi 0 0 0 0
gi 0 0 0 0
gi 0 0 0 0
gi 0 0 0 0
gi 0 0 0 0
gi 0 0 0 0
gi 0 0 0 0
gi 0 0 0 0
gi 0 0 0 0
gi 0 0 0 0
gi 0 0 0 0
gi 0 0 0 0
gi 0 0 0 0
gi 0 0 0 0
gi 0 0 0 0
gi 0 0 0 0
gi 0 0 0 0
gi 0 0 0 0
gi 0 0 0 0
gi 0 0 0 0
gi 0 0 0 0
gi 0 0 0 0
gi 0 0 0 0
gi 0 0 0 0
gi 0 0 0 0
gi 0 0 0 0
gi 0 0 0 0
gi 0 0 0 0
gi 0 0 0 0
gi 0 0 0 0
gi 0 0 0 0
gi 0 0 0 0
gi 0 0 0 0
gi 0 0 0 0
gi 0 0 0 0
gi 0 0 0 0
gi 0 0 0 0
gi 0 0 0 0
gi 0 0 0 0
gi 0 0 0 0
gi 0 0 0 0
gi 0 0 0 0
gi 0 0 0 0
gi 0 0 0 0
gi 0 0 0 0
gi 0 0 0 0
gi 0 0 0 0
gi 0 0 0 0
gi 0 0 0 0
gi 0 0 0 0
gi 0 0 0 0
gw 0.0 0.0 0.0 0.0
gw 0.0 0.0 0.0 0.0
gw 0.0 0.0 0.0 0.0
gw 0.0 0.0 0.0 0.0
gw 0.0 0.0 0.0 0.0
gw 0.0 0.0 0.0 0.0
gw 0.0 0.0 0.0 0.0
gw 0.0 0.0 0.0 0.0
gw 0.0 0.0 0.0 0.0
gw 0.0 0.0 0.0 0.0
gw 0.0 0.0 0.0 0.0
gw 0.0 0.0 0.0 0.0
gw 0.0 0.0 0.0 0.0
gw 0.0 0.0 0.0 0.0
gw 0.0 0.0 0.0 0.0
gw 0.0 0.0 0.0 0.0
gw 0.0 0.0 0.0 0.0
gw 0.0 0.0 0.0 0.0
gw 0.0 0.0 0.0 0.0
gw 0.0 0.0 0.0 0.0
gw 0.0 0.0 0.0 0.0
gw 0.0 0.0 0.0 0.0
gw 0.0 0.0 0.0 0.0
gw 0.0 0.0 0.0 0.0
gw 0.0 0.0 0.0 0.0
gw 0.0 0.0 0.0 0.0
gw 0.0 0.0 0.0 0.0
gw 0.0 0.0 0.0 0.0
gw 0.0 0.0 0.0 0.0
gw 0.0 0.0 0.0 0.0
gw 0.0 0.0 0.0 0.0
gw 0.0 0.0 0.0 0.0
gw 0.0 0.0 0.0 0.0
gw 0.0 0.0 0.0 0.0
gw 0.0 0.0 0.0 0.0
gw 0.0 0.0 0.0 0.0
gw 0.0 0.0 0.0 0.0
gw 0.0 0.0 0.0 0.0
gw 0.0 0.0 0.0 0.0
gw 0.0 0.0 0.0 0.0
gw 0.0 0.0 0.0 0.0
gw 0.0 0.0 0.0 0.0
gw 0.0 0.0 0.0 0.0
gw 0.0 0.0 0.0 0.0
gw 0.0 0.0 0.0 0.0
gw 0.0 0.0 0.0 0.0
gw 0.0 0.0 0.0 0.0
gw 0.0 0.0 0.0 0.0
gw 0.0 0.0 0.0 0.0
gw 0.0 0.0 0.0 0.0
gw 0.0 0.0 0.0 0.0
gw 0.0 0.0 0.0 0.0
gw 0.0 0.0 0.0 0.0
gw 0.0 0.0 0.0 0.0
gw 0.0 0.0 0.0 0.0
gw 0.0 0.0 0.0 0.0
gw 0.0 0.0 0.0 0.0
gw 0.0 0.0 0.0 0.0
gw 0.0 0.0 0.0 0.0
gw 0.0 0.0 0.0 0.0
gw 0.0 0.0 0.0 0.0
gw 0.0 0.0 0.0 0.0
gw 0.0 0.0 0.0 0.0
gw 0.0 0.0 0.0 0.0
gw 0.0 0.0 0.0 0.0
gw 0.0 0.0 0.0 0.0
gw 0.0 0.0 0.0 0.0
gw 0.0 0.0 0.0 0.0
gw 0.0 0.0 0.0 0.0
gw 0.0 0.0 0.0 0.0
gw 0.0 0.0 0.0 0.0
gw 0.0 0.0 0.0 0.0
gw 0.0 0.0 0.0 0.0
gw 0.0 0.0 0.0 0.0
gw 0.0 0.0 0.0 0.0
gw 0.0 0.0 0.0 0.0
gw 0.0 0.0 0.0 0.0
gw 0.0 0.0 0.0 0.0
gw 0.0 0.0 0.0 0.0
gw 0.0 0.0 0.0 0.0
gw 0.0 0.0 0.0 0.0
gw 0.0 0.0 0.0 0.0
gw 0.0 0.0 0.0 0.0
gw 0.0 0.0 0.0 0.0
gw 0.0 0.0 0.0 0.0
gw 0.0 0.0 0.0 0.0
gw 0.0 0.0 0.0 0.0
gw 0.0 0.0 0.0 0.0
gw 0.0 0.0 0.0 0.0
gw 0.0 0.0 0.0 0.0
gw 0.0 0.0 0.0 0.0
gw 0.0 0.0 0.0 0.0
gw 0.0 0.0 0.0 0.0
gw 0.0 0.0 0.0 0.0
gw 0.0 0.0 0.0 0.0
gw 0.0 0.0 0.0 0.0
gw 0.0 0.0 0.0 0.0
gw 0.0 0.0 0.0 0.0
gw 0.0 0.0 0.0 0.0
gw 0.0 0.0 0.0 0.0
gw 0.0 0.0 0.0 0.0
gw 0.0 0.0 0.0 0.0
gw 0.0 0.0 0.0 0.0
gw 0.0 0.0 0.0 0.0
gw 0.0 0.0 0.0 0.0
gw 0.0 0.0 0.0 0.0
gw 0.0 0.0 0.0 0.0
gw 0.0 0.0 0.0 0.0
vt 0.9876 0.5241
vt 0.9633 0.5241
vt 0.9633 0.0053
vt 0.9876 0.0053
vt 0.9391 0.5241
vt 0.9391 0.0053
vt 0.9148 0.5241
vt 0.9148 0.0053
vt 0.8906 0.5241
vt 0.8906 0.0053
vt 0.8663 0.5241
vt 0.8663 0.0053
vt 0.8421 0.5241
vt 0.8421 0.0053
vt 0.8178 0.5241
vt 0.8178 0.0053
vt 0.7936 0.5241
vt 0.7936 0.0053
vt 0.7694 0.5241
vt 0.7694 0.0053
vt 0.7451 0.5241
vt 0.7451 0.0053
vt 0.7209 0.5241
vt 0.7209 0.0053
vt 0.6966 0.5241
vt 0.6966 0.0053
vt 0.9876 0.4502
vt 0.9633 0.4502
vt 0.9391 0.4502
vt 0.9148 0.4502
vt 0.8906 0.4502
vt 0.8663 0.4502
vt 0.8421 0.4502
vt 0.8178 0.4502
vt 0.7936 0.4502
vt 0.7694 0.4502
vt 0.7451 0.4502
vt 0.7209 0.4502
vt 0.6966 0.4502
vn 0.0 -1.0 0.0
vn 0.0 -0.866 -0.5
vn 0.0 -0.866 -0.5
vn 0.0 -1.0 0.0
vn 0.0 -0.5 -0.866
vn 0.0 -0.5 -0.866
vn 0.0 -0.0 -1.0
vn 0.0 -0.0 -1.0
vn 0.0 0.5 -0.866
vn 0.0 0.5 -0.866
vn 0.0 0.866 -0.5
vn 0.0 0.866 -0.5
vn 0.0 1.0 0.0
vn 0.0 1.0 -0.0
vn 0.0 0.866 0.5
vn 0.0 0.866 0.5
vn 0.0 0.5 0.866
vn 0.0 0.5 0.866
vn 0.0 -0.0 1.0
vn 0.0 -0.0 1.0
vn 0.0 -0.5 0.866
vn 0.0 -0.5 0.866
vn 0.0 -0.866 0.5
vn 0.0 -0.866 0.5
vn 0.0 -1.0 -0.0
vn 0.0 -0.866 -0.5
vn 0.0 -0.5 -0.866
vn 0.0 -0.0 -1.0
vn 0.0 0.5 -0.866
vn 0.0 0.866 -0.5
vn 0.0 1.0 0.0
vn 0.0 0.866 0.5
vn 0.0 0.5 0.866
vn 0.0 -0.0 1.0
vn 0.0 -0.5 0.866
vn 0.0 -0.866 0.5
vn 0.0 -1.0 -0.0
vn 0.0 -0.866 -0.5
vn 0.0 -0.5 -0.866
vn 0.0 -0.0 -1.0
vn 0.0 0.5 -0.866
vn 0.0 0.866 -0.5
vn 0.0 1.0 0.0
vn 0.0 0.866 0.5
vn 0.0 0.5 0.866
vn 0.0 -0.0 1.0
vn 0.0 -0.5 0.866
vn 0.0 -0.866 0.5
vn 0.0 -1.0 -0.0
vn 0.0 -0.866 -0.5
vn 0.0 -0.5 -0.866
vn 0.0 -0.0 -1.0
vn 0.0 0.5 -0.866
vn 0.0 0.866 -0.5
vn 0.0 1.0 0.0
vn 0.0 0.866 0.5
vn 0.0 0.5 0.866
vn 0.0 -0.0 1.0
vn 0.0 -0.5 0.866
vn 0.0 -0.866 0.5
vn 0.0 -0.866 -0.5
vn 0.0 -0.866 -0.5
vn 0.0 -1.0 0.0
vn 0.0 -0.5 -0.866
vn 0.0 -0.5 -0.866
vn 0.0 -0.0 -1.0
vn 0.0 0.5 -0.866
vn 0.0 0.5 -0.866
vn 0.0 0.866 -0.5
vn 0.0 0.866 -0.5
vn 0.0 1.0 -0.0
vn 0.0 1.0 0.0
vn 0.0 0.866 0.5
vn 0.0 0.866 0.5
vn 0.0 0.5 0.866
vn 0.0 0.5 0.866
vn 0.0 -0.0 1.0
vn 0.0 -0.0 1.0
vn 0.0 -0.5 0.866
vn 0.0 -0.5 0.866
vn 0.0 -0.866 0.5
vn 0.0 -0.866 0.5
vn 0.0 -0.866 -0.5
vn 0.0 -1.0 -0.0
vn 0.0 -0.5 -0.866
vn 0.0 -0.0 -1.0
vn 0.0 0.5 -0.866
vn 0.0 0.866 -0.5
vn 0.0 1.0 0.0
vn 0.0 0.866 0.5
vn 0.0 0.5 0.866
vn 0.0 -0.0 1.0
vn 0.0 -0.5 0.866
vn 0.0 -0.866 0.5
vn 0.0 -0.866 -0.5
vn 0.0 -1.0 0.0
vn 0.0 -0.5 -0.866
vn 0.0 -0.0 -1.0
vn 0.0 0.5 -0.866
vn 0.0 0.866 -0.5
vn 0.0 1.0 -0.0
vn 0.0 0.866 0.5
vn 0.0 0.5 0.866
vn 0.0 -0.0 1.0
vn 0.0 -0.5 0.866
vtan 0.0 0.0 1.0
vtan 0.0 -0.5 0.866
vtan 0.0 -0.5 0.866
vtan 0.0 0.0 1.0
vtan 0.0 -0.866 0.5
vtan 0.0 -0.866 0.5
vtan 0.0 -1.0 0.0
vtan 0.0 -1.0 0.0
vtan 0.0 -0.866 -0.5
vtan 0.0 -0.866 -0.5
vtan 0.0 -0.5 -0.866
vtan 0.0 -0.5 -0.866
vtan 0.0 0.0 -1.0
vtan 0.0 -0.0 -1.0
vtan 0.0 0.5 -0.866
vtan 0.0 0.5 -0.866
vtan 0.0 0.866 -0.5
vtan 0.0 0.866 -0.5
vtan 0.0 1.0 0.0
vtan 0.0 1.0 0.0
vtan 0.0 0.866 0.5
vtan 0.0 0.866 0.5
vtan 0.0 0.5 0.866
vtan 0.0 0.5 0.866
vtan 0.0 0.0 1.0
vtan 0.0 -0.5 0.866
vtan 0.0 -0.866 0.5
vtan 0.0 -0.866 -0.5
vtan 0.0 -0.5 -0.866
vtan 0.0 0.5 -0.866
vtan 0.0 0.866 -0.5
vtan 0.0 0.866 -0.5
vtan 0.0 0.866 0.5
vtan 0.0 0.5 0.866
vtan 0.0 -0.0 1.0
vtan 0.0 -0.5 0.866
vtan 0.0 -0.5 0.866
vtan 0.0 -0.866 0.5
vtan 0.0 -0.866 0.5
vtan 0.0 -1.0 0.0
vtan 0.0 -0.866 -0.5
vtan 0.0 -0.5 -0.866
vtan 0.0 -0.5 -0.866
vtan 0.0 0.0 -1.0
vtan 0.0 0.5 -0.866
vtan 0.0 0.5 -0.866
vtan 0.0 0.866 -0.5
vtan 0.0 1.0 0.0
vtan 0.0 0.866 0.5
vtan 0.0 0.5 0.866
vtan 0.0 0.5 0.866
vtan 0.0 -0.0 1.0
vtan 0.0 -0.0 1.0
vtan 0.0 -0.5 0.866
vtan 0.0 -0.0 1.0
vtan 0.0 -0.866 0.5
vtan 0.0 -1.0 0.0
vtan 0.0 -0.866 -0.5
vtan 0.0 -0.5 -0.866
vtan 0.0 -0.5 -0.866
vtan 0.0 0.0 -1.0
vtan 0.0 0.5 -0.866
vtan 0.0 0.5 -0.866
vtan 0.0 0.866 -0.5
vtan 0.0 1.0 0.0
vtan 0.0 0.866 0.5
vtan 0.0 0.5 0.866
vtan 0.0 -0.0 1.0
vtan 0.0 -0.5 0.866
vtan 0.0 -0.5 0.866
vtan 0.0 0.0 1.0
vtan 0.0 -0.866 0.5
vtan 0.0 -0.866 0.5
vtan 0.0 -1.0 0.0
vtan 0.0 -0.866 -0.5
vtan 0.0 -0.866 -0.5
vtan 0.0 -0.5 -0.866
vtan 0.0 -0.5 -0.866
vtan 0.0 0.0 -1.0
vtan 0.0 0.5 -0.866
vtan 0.0 0.5 -0.866
vtan 0.0 0.866 -0.5
vtan 0.0 0.866 -0.5
vtan 0.0 1.0 0.0
vtan 0.0 0.866 0.5
vtan 0.0 0.866 0.5
vtan 0.0 0.5 0.866
vtan 0.0 0.5 0.866
vtan 0.0 0.0 1.0
vtan 0.0 -0.5 0.866
vtan 0.0 -0.0 1.0
vtan 0.0 -0.866 0.5
vtan 0.0 -1.0 0.0
vtan 0.0 -0.866 -0.5
vtan 0.0 -0.866 -0.5
vtan 0.0 -0.5 -0.866
vtan 0.0 0.0 -1.0
vtan 0.0 0.5 -0.866
vtan 0.0 0.5 -0.866
vtan 0.0 0.866 -0.5
vtan 0.0 1.0 0.0
vtan 0.0 0.866 0.5
vtan 0.0 0.866 0.5
vtan 0.0 0.5 0.866
vtan 0.0 0.5 0.866
vtan 0.0 -0.0 1.0
vtan 0.0 -0.5 0.866
vtan 0.0 -0.5 0.866
vtan 0.0 0.0 1.0
vtan 0.0 -0.866 0.5
vtan 0.0 -1.0 0.0
vtan 0.0 -0.866 -0.5
vtan 0.0 -0.5 -0.866
vtan 0.0 -0.0 -1.0
vtan 0.0 0.5 -0.866
vtan 0.0 0.5 -0.866
vtan 0.0 0.866 -0.5
vtan 0.0 1.0 0.0
vtan 0.0 0.866 0.5
vtan 0.0 0.5 0.866
vtan 0.0 0.0 1.0
vtan 0.0 -0.5 0.866
vtan 0.0 0.0 1.0
vtan 0.0 -0.866 0.5
vtan 0.0 -1.0 0.0
vtan 0.0 -0.5 -0.866
vtan 0.0 -0.5 -0.866
vtan 0.0 -0.0 -1.0
vtan 0.0 0.5 0.866
f 0/0/0/0 1/1/1/1 2/2/2/2 
f 0/0/0/0 2/2/2/2 3/3/3/3 
f 1/1/1/1 4/4/4/4 5/5/5/5 
f 1/1/1/1 5/5/5/5 2/2/2/2 
f 4/4/4/4 6/6/6/6 7/7/7/7 
f 4/4/4/4 7/7/7/7 5/5/5/5 
f 6/6/6/6 8/8/8/8 9/9/9/9 
f 6/6/6/6 9/9/9/9 7/7/7/7 
f 8/8/8/8 10/10/10/10 11/11/11/11 
f 8/8/8/8 11/11/11/11 9/9/9/9 
f 10/10/10/10 12/12/12/12 13/13/13/13 
f 10/10/10/10 13/13/13/13 11/11/11/11 
f 12/12/12/12 14/14/14/14 15/15/15/15 
f 12/12/12/12 15/15/15/15 13/13/13/13 
f 14/14/14/14 16/16/16/16 17/17/17/17 
f 14/14/14/14 17/17/17/17 15/15/15/15 
f 16/16/16/16 18/18/18/18 19/19/19/19 
f 16/16/16/16 19/19/19/19 17/17/17/17 
f 18/18/18/18 20/20/20/20 21/21/21/21 
f 18/18/18/18 21/21/21/21 19/19/19/19 
f 20/20/20/20 22/22/22/22 23/23/23/23 
f 20/20/20/20 23/23/23/23 21/21/21/21 
f 22/22/22/22 0/24/0/0 3/25/3/24 
f 22/22/22/22 3/25/3/24 23/23/23/23 
f 1/2/1/1 0/3/0/0 24/0/24/0 
f 1/2/1/1 24/0/24/0 25/1/25/25 
f 25/1/25/25 26/4/26/26 4/5/4/4 
f 25/1/25/25 4/5/4/4 1/2/1/1 
f 26/4/26/26 27/6/27/6 6/7/6/6 
f 26/4/26/26 6/7/6/6 4/5/4/4 
f 27/6/27/6 28/8/28/27 8/9/8/8 
f 27/6/27/6 8/9/8/8 6/7/6/6 
f 28/8/28/27 29/10/29/28 10/11/10/10 
f 28/8/28/27 10/11/10/10 8/9/8/8 
f 29/10/29/28 30/12/30/12 12/13/12/12 
f 29/10/29/28 12/13/12/12 10/11/10/10 
f 30/12/30/12 31/14/31/29 14/15/14/14 
f 30/12/30/12 14/15/14/14 12/13/12/12 
f 31/14/31/29 32/16/32/30 16/17/16/31 
f 31/14/31/29 16/17/16/31 14/15/14/14 
f 32/16/32/30 33/18/33/18 18/19/18/18 
f 32/16/32/30 18/19/18/18 16/17/16/31 
f 33/18/33/18 34/20/34/32 20/21/20/20 
f 33/18/33/18 20/21/20/20 18/19/18/18 
f 34/20/34/32 35/22/35/33 22/23/22/22 
f 34/20/34/32 22/23/22/22 20/21/20/20 
f 0/25/0/0 22/23/22/22 35/22/35/33 
f 0/25/0/0 35/22/35/33 24/24/24/0 
f 36/0/36/34 37/1/37/35 25/2/25/36 
f 36/0/36/34 25/2/25/36 24/3/24/0 
f 37/1/37/35 38/4/38/37 26/5/26/38 
f 37/1/37/35 26/5/26/38 25/2/25/36 
f 38/4/38/37 39/6/39/39 27/7/27/6 
f 38/4/38/37 27/7/27/6 26/5/26/38 
f 39/6/39/39 40/8/40/40 28/9/28/27 
f 39/6/39/39 28/9/28/27 27/7/27/6 
f 40/8/40/40 41/10/41/41 29/11/29/42 
f 40/8/40/40 29/11/29/42 28/9/28/27 
f 41/10/41/41 42/12/42/43 30/13/30/12 
f 41/10/41/41 30/13/30/12 29/11/29/42 
f 42/12/42/43 43/14/43/44 31/15/31/45 
f 42/12/42/43 31/15/31/45 30/13/30/12 
f 43/14/43/44 44/16/44/46 32/17/32/30 
f 43/14/43/44 32/17/32/30 31/15/31/45 
f 44/16/44/46 45/18/45/47 33/19/33/18 
f 44/16/44/46 33/19/33/18 32/17/32/30 
f 45/18/45/47 46/20/46/48 34/21/34/32 
f 45/18/45/47 34/21/34/32 33/19/33/18 
f 46/20/46/48 47/22/47/49 35/23/35/50 
f 46/20/46/48 35/23/35/50 34/21/34/32 
f 47/22/47/49 36/24/36/51 24/25/24/0 
f 47/22/47/49 24/25/24/0 35/23/35/50 
f 48/26/48/52 49/27/49/53 37/2/37/35 
f 48/26/48/52 37/2/37/35 36/3/36/54 
f 49/27/49/53 50/28/50/55 38/5/38/37 
f 49/27/49/53 38/5/38/37 37/2/37/35 
f 50/28/50/55 51/29/51/56 39/7/39/39 
f 50/28/50/55 39/7/39/39 38/5/38/37 
f 51/29/51/56 52/30/52/57 40/9/40/40 
f 51/29/51/56 40/9/40/40 39/7/39/39 
f 52/30/52/57 53/31/53/58 41/11/41/59 
f 52/30/52/57 41/11/41/59 40/9/40/40 
f 53/31/53/58 54/32/54/60 42/13/42/43 
f 53/31/53/58 42/13/42/43 41/11/41/59 
f 54/32/54/60 55/33/55/61 43/15/43/62 
f 54/32/54/60 43/15/43/62 42/13/42/43 
f 55/33/55/61 56/34/56/63 44/17/44/46 
f 55/33/55/61 44/17/44/46 43/15/43/62 
f 56/34/56/63 57/35/57/64 45/19/45/47 
f 56/34/56/63 45/19/45/47 44/17/44/46 
f 57/35/57/64 58/36/58/65 46/21/46/48 
f 57/35/57/64 46/21/46/48 45/19/45/47 
f 58/36/58/65 59/37/59/66 47/23/47/49 
f 58/36/58/65 47/23/47/49 46/21/46/48 
f 59/37/59/66 48/38/48/67 36/25/36/51 
f 59/37/59/66 36/25/36/51 47/23/47/49 
f 60/2/60/68 61/1/61/69 62/0/62/70 
f 60/2/60/68 62/0/62/70 63/3/3/3 
f 64/5/63/71 65/4/64/72 61/1/61/69 
f 64/5/63/71 61/1/61/69 60/2/60/68 
f 66/7/7/7 67/6/65/73 65/4/64/72 
f 66/7/7/7 65/4/64/72 64/5/63/71 
f 68/9/66/74 69/8/67/75 67/6/65/73 
f 68/9/66/74 67/6/65/73 66/7/7/7 
f 70/11/68/76 71/10/69/77 69/8/67/75 
f 70/11/68/76 69/8/67/75 68/9/66/74 
f 72/13/70/13 73/12/71/78 71/10/69/77 
f 72/13/70/13 71/10/69/77 70/11/68/76 
f 74/15/72/79 75/14/73/80 73/12/71/78 
f 74/15/72/79 73/12/71/78 72/13/70/13 
f 76/17/74/81 77/16/75/82 75/14/73/80 
f 76/17/74/81 75/14/73/80 74/15/72/79 
f 78/19/76/19 79/18/77/83 77/16/75/82 
f 78/19/76/19 77/16/75/82 76/17/74/81 
f 80/21/78/84 81/20/79/85 79/18/77/83 
f 80/21/78/84 79/18/77/83 78/19/76/19 
f 82/23/80/86 83/22/81/87 81/20/79/85 
f 82/23/80/86 81/20/79/85 80/21/78/84 
f 63/25/3/24 62/24/62/88 83/22/81/87 
f 63/25/3/24 83/22/81/87 82/23/80/86 
f 61/2/61/69 84/1/82/89 85/0/83/90 
f 61/2/61/69 85/0/83/90 62/3/62/70 
f 65/5/64/72 86/4/84/91 84/1/82/89 
f 65/5/64/72 84/1/82/89 61/2/61/69 
f 67/7/65/73 87/6/85/92 86/4/84/91 
f 67/7/65/73 86/4/84/91 65/5/64/72 
f 69/9/67/93 88/8/86/94 87/6/85/92 
f 69/9/67/93 87/6/85/92 67/7/65/73 
f 71/11/69/77 89/10/87/95 88/8/86/94 
f 71/11/69/77 88/8/86/94 69/9/67/93 
f 73/13/71/78 90/12/88/96 89/10/87/95 
f 73/13/71/78 89/10/87/95 71/11/69/77 
f 75/15/73/97 91/14/89/98 90/12/88/96 
f 75/15/73/97 90/12/88/96 73/13/71/78 
f 77/17/75/82 92/16/90/99 91/14/89/98 
f 77/17/75/82 91/14/89/98 75/15/73/97 
f 79/19/77/83 93/18/91/100 92/16/90/99 
f 79/19/77/83 92/16/90/99 77/17/75/82 
f 81/21/79/101 94/20/92/102 93/18/91/100 
f 81/21/79/101 93/18/91/100 79/19/77/83 
f 83/23/81/103 95/22/93/104 94/20/92/102 
f 83/23/81/103 94/20/92/102 81/21/79/101 
f 62/25/62/88 85/24/83/105 95/22/93/104 
f 62/25/62/88 95/22/93/104 83/23/81/103 
f 84/2/82/106 96/1/94/107 97/0/95/108 
f 84/2/82/106 97/0/95/108 85/3/83/90 
f 86/5/84/91 98/4/96/109 96/1/94/107 
f 86/5/84/91 96/1/94/107 84/2/82/106 
f 87/7/85/92 99/6/97/110 98/4/96/109 
f 87/7/85/92 98/4/96/109 86/5/84/91 
f 88/9/86/94 100/8/98/111 99/6/97/110 
f 88/9/86/94 99/6/97/110 87/7/85/92 
f 89/11/87/95 101/10/99/112 100/8/98/111 
f 89/11/87/95 100/8/98/111 88/9/86/94 
f 90/13/88/96 102/12/100/113 101/10/99/112 
f 90/13/88/96 101/10/99/112 89/11/87/95 
f 91/15/89/114 103/14/101/115 102/12/100/113 
f 91/15/89/114 102/12/100/113 90/13/88/96 
f 92/17/90/99 104/16/102/116 103/14/101/115 
f 92/17/90/99 103/14/101/115 91/15/89/114 
f 93/19/91/100 105/18/103/117 104/16/102/116 
f 93/19/91/100 104/16/102/116 92/17/90/99 
f 94/21/92/102 106/20/104/118 105/18/103/117 
f 94/21/92/102 105/18/103/117 93/19/91/100 
f 95/23/93/104 107/22/81/119 106/20/104/118 
f 95/23/93/104 106/20/104/118 94/21/92/102 
f 85/25/83/105 97/24/95/120 107/22/81/119 
f 85/25/83/105 107/22/81/119 95/23/93/104 
f 96/2/94/121 49/27/49/53 48/26/48/52 
f 96/2/94/121 48/26/48/52 97/3/95/122 
f 98/5/96/123 50/28/50/55 49/27/49/53 
f 98/5/96/123 49/27/49/53 96/2/94/121 
f 99/7/97/124 51/29/51/56 50/28/50/55 
f 99/7/97/124 50/28/50/55 98/5/96/123 
f 100/9/98/111 52/30/52/57 51/29/51/56 
f 100/9/98/111 51/29/51/56 99/7/97/124 
f 101/11/99/125 53/31/53/126 52/30/52/57 
f 101/11/99/125 52/30/52/57 100/9/98/111 
f 102/13/100/127 54/32/54/60 53/31/53/126 
f 102/13/100/127 53/31/53/126 101/11/99/125 
f 103/15/101/115 55/33/55/61 54/32/54/60 
f 103/15/101/115 54/32/54/60 102/13/100/127 
f 104/17/102/116 56/34/56/63 55/33/55/61 
f 104/17/102/116 55/33/55/61 103/15/101/115 
f 105/19/103/117 57/35/57/64 56/34/56/63 
f 105/19/103/117 56/34/56/63 104/17/102/116 
f 106/21/104/118 58/36/58/65 57/35/57/64 
f 106/21/104/118 57/35/57/64 105/19/103/117 
f 107/23/81/128 59/37/59/23 58/36/58/65 
f 107/23/81/128 58/36/58/65 106/21/104/118 
f 97/25/95/120 48/38/48/67 59/37/59/23 
f 97/25/95/120 59/37/59/23 107/23/81/128 
