v 693.7635 927.3633 -247.1001
v 693.7634 990.7953 -247.1
v 693.7634 990.7953 -274.7776
v 693.7635 927.3633 -274.7776
v 721.8198 927.3633 -241.3098
v 721.8198 1014.4712 -241.3098
v 718.709 1011.3605 -241.3098
v 718.7089 927.3633 -241.3098
v 721.8198 1014.4712 -274.7776
v 721.8198 927.3633 -274.7776
v 713.9591 927.3633 -247.1001
v 713.9592 1006.6105 -247.1
v 675.2419 1006.6105 -247.1
v 675.2419 990.7953 -247.1
v 675.2419 1011.3604 -241.3098
v 675.2419 990.7953 -274.7774
v 675.2419 1014.4712 -241.3098
v 675.2419 1014.4712 -274.7774
v 656.7202 990.7953 -274.7774
v 656.7202 990.7953 -247.1
v 656.7202 927.3633 -247.1001
v 656.7202 927.3633 -274.7774
v 634.6012 1011.3605 -241.3098
v 631.4902 1014.4712 -241.3098
v 631.4904 927.3633 -241.3098
v 634.6012 927.3633 -241.3098
v 631.4902 1014.4712 -274.7774
v 631.4904 927.3633 -274.7774
v 639.351 1006.6105 -247.1
v 639.351 927.3633 -247.1001
gi 0 0 0 0
gw 0.0 0.0 0.0 0.0
gi 0 0 0 0
gw 0.0 0.0 0.0 0.0
gi 0 0 0 0
gw 0.0 0.0 0.0 0.0
gi 0 0 0 0
gw 0.0 0.0 0.0 0.0
gi 0 0 0 0
gw 0.0 0.0 0.0 0.0
gi 0 0 0 0
gw 0.0 0.0 0.0 0.0
gi 0 0 0 0
gw 0.0 0.0 0.0 0.0
gi 0 0 0 0
gw 0.0 0.0 0.0 0.0
gi 0 0 0 0
gw 0.0 0.0 0.0 0.0
gi 0 0 0 0
gw 0.0 0.0 0.0 0.0
gi 0 0 0 0
gw 0.0 0.0 0.0 0.0
gi 0 0 0 0
gw 0.0 0.0 0.0 0.0
gi 0 0 0 0
gw 0.0 0.0 0.0 0.0
gi 0 0 0 0
gw 0.0 0.0 0.0 0.0
gi 0 0 0 0
gw 0.0 0.0 0.0 0.0
gi 0 0 0 0
gw 0.0 0.0 0.0 0.0
gi 0 0 0 0
gw 0.0 0.0 0.0 0.0
gi 0 0 0 0
gw 0.0 0.0 0.0 0.0
gi 0 0 0 0
gw 0.0 0.0 0.0 0.0
gi 0 0 0 0
gw 0.0 0.0 0.0 0.0
gi 0 0 0 0
gw 0.0 0.0 0.0 0.0
gi 0 0 0 0
gw 0.0 0.0 0.0 0.0
gi 0 0 0 0
gw 0.0 0.0 0.0 0.0
gi 0 0 0 0
gw 0.0 0.0 0.0 0.0
gi 0 0 0 0
gw 0.0 0.0 0.0 0.0
gi 0 0 0 0
gw 0.0 0.0 0.0 0.0
gi 0 0 0 0
gw 0.0 0.0 0.0 0.0
gi 0 0 0 0
gw 0.0 0.0 0.0 0.0
gi 0 0 0 0
gw 0.0 0.0 0.0 0.0
gi 0 0 0 0
gw 0.0 0.0 0.0 0.0
vt 0.9965 0.1543
vt 0.7878 0.1543
vt 0.7878 0.0638
vt 0.9965 0.0638
vt 0.9965 0.2169
vt 0.7282 0.2169
vt 0.7384 0.2067
vt 0.9965 0.2067
vt 0.7282 0.3263
vt 0.9965 0.3263
vt 0.9965 0.1878
vt 0.7541 0.1878
vt 0.8487 0.1878
vt 0.8487 0.1543
vt 0.8487 0.2067
vt 0.8487 0.0638
vt 0.8487 0.2169
vt 0.8487 0.3263
vn -0.7071 -0.0 0.7071
vn -0.3015 -0.3015 0.9045
vn -0.7071 -0.7071 0.0
vn -1.0 -0.0 0.0
vn 0.7071 -0.0 0.7071
vn 0.5773 0.5773 0.5774
vn -0.1277 -0.1277 0.9836
vn -0.4277 0.0 0.9039
vn 0.7071 0.7071 0.0
vn 1.0 0.0 0.0
vn -0.4277 0.0 0.9039
vn -0.3387 -0.3387 0.8778
vn 0.0 -0.4276 0.9039
vn 0.0 -0.7071 0.7071
vn 0.0 -0.4276 0.9039
vn 0.0 -1.0 0.0
vn 0.0 0.7071 0.7071
vn 0.0 1.0 0.0
vn 0.7071 -0.7071 0.0
vn 0.3015 -0.3015 0.9045
vn 0.7071 -0.0 0.7071
vn 0.1277 -0.1277 0.9836
vn -0.5773 0.5774 0.5774
vn -0.7071 -0.0 0.7071
vn 0.4277 -0.0 0.9039
vn -0.7071 0.7071 0.0
vn -1.0 -0.0 0.0
vn 0.3387 -0.3387 0.8778
vn 0.4277 -0.0 0.9039
vtan 0.0 -1.0 -0.0 1.0
vtan 0.0953 -0.9535 -0.286 1.0
vtan 0.7071 -0.7071 -0.0 1.0
vtan 0.0 -1.0 0.0 1.0
vtan -0.0 -1.0 -0.0 1.0
vtan 0.4082 -0.8165 0.4083 1.0
vtan 0.0164 -0.9918 -0.1266 1.0
vtan -0.0 -1.0 0.0 1.0
vtan 0.7071 -0.7071 -0.0 1.0
vtan 0.0 -1.0 0.0 1.0
vtan -0.0 -1.0 0.0 1.0
vtan 0.1219 -0.9409 -0.316 1.0
vtan -0.9535 0.0953 -0.286 -1.0
vtan -0.9409 0.1219 -0.316 -1.0
vtan -1.0 0.0 0.0 -1.0
vtan -1.0 0.0 0.0 -1.0
vtan -0.9918 0.0164 -0.1266 -1.0
vtan -1.0 -0.0 -0.0 -1.0
vtan -0.7071 0.7071 0.0 -1.0
vtan -1.0 0.0 0.0 -1.0
vtan -0.8165 0.4082 0.4082 -1.0
vtan -1.0 -0.0 0.0 -1.0
vtan -0.7071 0.7071 0.0 -1.0
vtan -1.0 0.0 0.0 -1.0
vtan -0.7071 -0.7071 -0.0 -1.0
vtan -0.0953 -0.9535 -0.286 -1.0
vtan -0.0 -1.0 -0.0 -1.0
vtan -0.0164 -0.9918 -0.1266 -1.0
vtan -0.4082 -0.8165 0.4083 -1.0
vtan 0.0 -1.0 -0.0 -1.0
vtan -0.0 -1.0 -0.0 -1.0
vtan -0.7071 -0.7071 -0.0 -1.0
vtan 0.0 -1.0 0.0 -1.0
vtan -0.1219 -0.9409 -0.316 -1.0
vtan -0.0 -1.0 -0.0 -1.0
vtan 0.9535 0.0953 -0.286 1.0
vtan 1.0 0.0 0.0 1.0
vtan 0.9409 0.1219 -0.316 1.0
vtan 1.0 -0.0 -0.0 1.0
vtan 0.9918 0.0164 -0.1266 1.0
vtan 0.7071 0.7071 0.0 1.0
vtan 1.0 -0.0 0.0 1.0
vtan 0.8165 0.4082 0.4082 1.0
vtan 1.0 0.0 0.0 1.0
vtan 0.7071 0.7071 0.0 1.0
f 0/0/0/0 1/1/1/1 2/2/2/2 
f 0/0/0/0 2/2/2/2 3/3/3/3 
f 4/4/4/4 5/5/5/5 6/6/6/6 
f 4/4/4/4 6/6/6/6 7/7/7/7 
f 8/8/8/8 5/5/5/5 4/4/4/4 
f 8/8/8/8 4/4/4/4 9/9/9/9 
f 1/1/1/1 0/0/0/0 10/10/10/10 
f 1/1/1/1 10/10/10/10 11/11/11/11 
f 11/11/11/11 10/10/10/10 7/7/7/7 
f 11/11/11/11 7/7/7/7 6/6/6/6 
f 1/1/1/12 11/11/11/13 12/12/12/14 
f 1/1/1/12 12/12/12/14 13/13/13/15 
f 11/11/11/13 6/6/6/16 14/14/14/17 
f 11/11/11/13 14/14/14/17 12/12/12/14 
f 2/2/2/18 1/1/1/12 13/13/13/15 
f 2/2/2/18 13/13/13/15 15/15/15/19 
f 6/6/6/16 5/5/5/20 16/16/16/21 
f 6/6/6/16 16/16/16/21 14/14/14/17 
f 5/5/5/20 8/8/8/22 17/17/17/23 
f 5/5/5/20 17/17/17/23 16/16/16/21 
f 18/2/18/24 19/1/19/25 20/0/20/26 
f 18/2/18/24 20/0/20/26 21/3/9/9 
f 22/6/21/27 23/5/22/28 24/4/23/29 
f 22/6/21/27 24/4/23/29 25/7/24/30 
f 24/4/23/29 23/5/22/28 26/8/25/31 
f 24/4/23/29 26/8/25/31 27/9/26/32 
f 19/1/19/25 28/11/27/33 29/10/28/34 
f 19/1/19/25 29/10/28/34 20/0/20/26 
f 28/11/27/33 22/6/21/27 25/7/24/30 
f 28/11/27/33 25/7/24/30 29/10/28/34 
f 19/1/19/35 13/13/13/36 12/12/12/36 
f 19/1/19/35 12/12/12/36 28/11/27/37 
f 28/11/27/37 12/12/12/36 14/14/14/38 
f 28/11/27/37 14/14/14/38 22/6/21/39 
f 13/13/13/36 19/1/19/35 18/2/18/40 
f 13/13/13/36 18/2/18/40 15/15/15/36 
f 16/16/16/41 23/5/22/42 22/6/21/39 
f 16/16/16/41 22/6/21/39 14/14/14/38 
f 17/17/17/43 26/8/25/44 23/5/22/42 
f 17/17/17/43 23/5/22/42 16/16/16/41 
