v -947.0284 55.4369 156.0381
v -952.493 51.1737 153.1076
v -957.0278 55.2177 159.4956
v -950.7144 59.0459 161.6891
v -943.4097 52.2576 150.1294
v -949.7332 48.4935 147.8974
v -957.317 55.5391 149.3031
v -960.9646 58.9023 155.1015
v -953.7416 52.6379 143.2276
v -959.3447 57.4724 172.3826
v -953.2611 61.0543 172.2786
v -951.7202 57.7307 162.1581
v -959.1401 55.1084 162.2221
v -959.7054 56.8485 152.6723
v -953.4591 60.4104 152.2296
v -965.5748 61.5592 171.2236
v -967.3307 60.7967 162.9668
v -967.2808 60.7076 154.3271
v -967.7537 57.5334 164.1147
v -967.4523 56.1508 156.2781
v -974.2062 55.9764 157.2903
v -974.8538 58.1027 164.4757
v -979.4142 62.9599 163.5221
v -978.5906 62.594 154.9456
v -973.1665 61.4275 171.537
v -966.2004 63.0965 169.8482
v -977.4539 69.3612 169.1799
v -965.1497 54.6096 176.4997
v -957.9995 58.1516 175.0879
v -960.1033 56.8071 168.6994
v -967.1414 54.2516 169.6639
v -969.5797 58.521 165.1927
v -962.2001 63.409 164.1731
v -974.1779 52.9866 172.9276
v -972.1855 56.0155 179.4369
v -976.8698 60.7153 168.543
v -961.2346 51.8611 169.8818
v -958.8414 51.7663 178.1603
v -952.6792 52.514 176.1259
v -955.009 55.9675 169.0293
v -958.3723 54.6084 164.1847
v -963.7158 52.2525 164.038
v -966.686 56.8695 172.8844
v -964.2493 55.8386 179.9457
v -969.3236 55.2046 165.8894
v -970.2163 57.4673 168.4476
v -975.8007 52.5944 170.142
v -970.807 50.2562 176.8515
v -965.673 55.5997 174.1396
v -974.9166 59.7509 162.991
v -980.0741 54.4694 165.7381
v -979.9645 55.1325 175.6516
v -975.3314 53.0269 181.2089
v -984.7665 57.6853 170.3473
v -966.5798 58.6079 155.7328
v -970.3115 60.2309 147.3833
v -977.7781 62.8091 153.8156
v -974.3429 58.7027 160.0125
v -980.3074 59.0941 163.757
v -985.8728 68.1425 157.491
v -969.9012 62.9221 165.5768
v -963.6525 62.6802 161.4839
v -976.7103 63.6746 169.4129
v -973.3108 58.0538 147.594
v -972.2881 60.8524 140.1247
v -979.026 59.5855 140.137
v -980.4258 57.7492 147.2782
v -985.4059 62.1468 147.7882
v -983.9249 66.2718 140.1247
v -979.6387 57.2462 155.0632
v -972.8068 60.2043 155.0632
v -984.5862 65.116 155.5692
v -972.0532 56.5346 167.0637
v -973.0844 57.4459 162.1647
v -974.1718 53.4687 161.3598
v -974.6163 51.937 166.3749
v -974.9547 58.2805 155.4508
v -975.6051 53.8501 156.9
v -980.3208 50.255 163.8481
v -979.8281 51.0881 167.1179
v -981.6311 50.764 158.186
v -980.2249 54.4447 167.8952
v -972.8096 57.5728 167.6145
v -973.1475 54.5392 158.7545
v -980.3954 52.5017 158.9939
v -981.1687 54.6142 150.2066
v -973.5732 57.7189 149.5806
v -988.1339 57.8425 158.9482
v -987.7844 59.0831 167.6989
v -989.024 58.728 150.1958
v -962.1332 58.2369 129.892
v -964.637 64.2334 124.5857
v -973.0632 60.6976 126.8243
v -970.5825 55.7783 132.3584
v -978.4618 56.8281 136.6457
v -981.3516 62.8559 131.2902
v -967.7281 57.4643 140.8433
v -959.5255 59.338 138.0403
v -975.6161 57.3314 144.816
v -949.1388 59.3388 148.7862
v -948.115 62.1368 141.317
v -954.8534 60.8737 141.3293
v -956.254 59.0381 148.4704
v -961.2321 63.4386 148.9804
v -959.7493 67.5627 141.317
v -955.467 58.5347 156.2554
v -948.6339 61.4889 156.2554
v -960.4111 66.4073 156.7614
v -954.5414 53.8805 163.0536
v -948.6964 59.8964 162.7729
v -948.0056 56.9397 153.9129
v -954.0563 52.0061 154.1523
v -955.4734 53.6416 145.365
v -949.4534 59.7113 144.739
v -963.0051 53.7127 154.1067
v -963.0916 55.0106 162.8573
v -964.1243 54.1607 145.3542
v -962.3934 57.6979 165.7677
v -954.7186 59.321 170.7412
v -951.9556 61.8992 161.2813
v -958.21 57.7927 157.9523
v -955.2443 58.1841 151.5647
v -947.1652 67.2325 153.7924
v -964.9646 62.0121 155.7017
v -967.9794 61.7702 162.5362
v -961.3401 62.7646 148.7776
v -939.1494 51.4197 150.7726
v -945.9457 53.0944 150.0697
v -945.5485 56.1912 157.1635
v -937.8147 56.1955 157.5093
v -937.4824 57.5923 145.0244
v -945.8694 55.6879 144.54
v -953.5364 55.1189 151.2356
v -951.9009 61.9921 157.157
v -952.3232 60.5897 145.1187
v -945.3588 52.9849 159.1964
v -943.588 53.2461 155.985
v -946.5706 54.6999 155.0552
v -948.6476 53.3778 158.0051
v -950.8357 56.8926 157.5757
v -949.5811 57.5438 153.7032
v -949.0269 54.0555 161.8125
v -945.7035 53.4968 162.8554
v -952.0026 56.6537 161.1339
v -959.8553 56.1862 168.1173
v -960.3557 53.0555 171.4563
v -955.9851 54.5348 172.0197
v -955.6349 56.4578 168.3379
v -964.0845 57.8659 168.6497
v -964.1406 55.116 172.2804
v -959.885 52.7442 175.9127
v -956.1373 54.5329 176.3764
v -964.0812 53.7871 176.2921
v -966.8439 55.9227 168.933
v -959.3746 58.8151 168.3051
v -959.3868 53.3878 160.3903
v -966.6698 51.5385 160.7444
v -967.0381 51.1178 151.7412
v -959.3746 53.8889 150.7926
v -974.3131 56.7568 159.1673
v -974.3131 60.4173 167.3737
v -974.819 55.1588 150.4641
v -972.6467 57.6491 158.3258
v -970.2505 57.5113 166.5992
v -965.1393 53.4345 164.0755
v -966.9762 53.4229 156.8369
v -969.2555 57.3413 172.8665
v -963.5482 53.1581 171.3694
v -978.5791 55.9861 159.764
v -976.8828 55.8329 167.0342
v -975.4509 55.37 174.364
v -969.571 53.8805 156.6739
v -963.7261 59.8964 156.3932
v -963.0352 56.9397 147.5331
v -969.0858 52.0061 147.7726
v -970.5029 53.6416 138.9853
v -964.483 59.7113 138.3593
v -978.0348 53.7127 147.7269
v -978.1211 55.0106 156.4776
v -979.1539 54.1607 138.9745
v -976.8173 57.8582 136.0314
v -981.3314 59.2877 142.4183
v -973.8042 56.2477 147.1006
v -969.462 55.85 141.0274
v -962.2255 57.9532 146.075
v -966.571 59.3145 152.8084
v -965.3076 62.791 135.8186
v -972.583 64.0687 130.9514
v -957.9111 63.7172 140.576
v -966.5111 51.9429 164.9787
v -960.6661 57.9587 164.698
v -959.9752 55.002 155.838
v -966.026 50.0684 156.0773
v -967.443 51.7039 147.2901
v -961.4231 57.7737 146.6641
v -974.9749 51.775 156.0317
v -975.0613 53.0729 164.7823
v -976.094 52.223 147.2793
v -956.8846 55.1665 152.3297
v -963.0635 51.06 151.1876
v -963.3864 50.9652 159.799
v -956.897 55.1962 159.799
v -957.069 55.6116 144.8605
v -963.5876 51.4514 144.8605
v -969.1815 55.2794 152.3297
v -969.0813 55.0375 159.799
v -969.493 56.0319 144.8605
v -956.2191 52.7873 144.0007
v -958.8044 54.6715 136.6844
v -964.0553 57.2579 140.4016
v -961.5884 56.421 147.4
v -963.2965 62.9922 149.2283
v -965.198 65.7838 141.1922
v -956.7181 55.5502 153.4916
v -950.7957 54.3895 149.3159
v -957.1788 65.1367 154.4355
v -979.3185 63.5334 136.2874
v -979.8823 63.5334 143.6783
v -975.0139 59.33 144.2447
v -972.3585 60.2999 137.1608
v -979.7946 63.5334 153.8961
v -974.5959 59.33 151.0692
v -965.3986 63.5334 142.6134
v -966.2419 65.5981 138.1243
v -965.3986 62.9761 151.0692
v -976.1119 58.3918 160.519
v -975.447 54.1885 152.9175
v -982.6294 59.2215 153.5591
v -983.5028 58.3918 160.519
v -968.7209 58.3918 160.519
v -968.7209 54.1885 153.5591
v -977.1768 58.3918 146.5991
v -981.1008 62.4096 146.5991
v -968.7209 54.6998 146.5991
v -984.2108 52.9902 164.0645
v -984.2889 52.6128 160.3803
v -989.3905 52.1398 159.9919
v -989.1565 52.0928 164.8519
v -977.498 54.3068 162.4472
v -979.8571 53.5235 159.0812
v -986.9929 54.1209 155.4012
v -989.9486 53.9023 156.912
v -981.3944 55.0879 154.0236
v -978.6483 57.8016 138.9291
v -977.3933 57.0506 130.4292
v -981.3634 62.8202 129.694
v -980.1213 65.5953 137.2822
v -980.558 63.5751 143.0118
v -978.8439 57.9609 145.2828
v -971.1215 56.2719 138.8016
v -970.8976 55.2695 131.332
v -972.9175 55.2319 146.1497
v -980.5741 63.3929 135.9382
v -980.2603 61.3235 139.9261
v -976.9384 64.9289 140.0958
v -976.8878 65.7324 136.0816
v -985.1016 63.0377 136.0278
v -984.5668 61.613 140.2002
v -980.2758 62.6025 144.2792
v -977.6218 66.1583 144.2758
v -984.5131 61.6419 144.3818
v -975.1715 55.0923 139.0025
v -982.6893 59.5443 135.2979
v -984.0406 62.3284 142.7035
v -977.0374 57.0326 146.0319
v -972.6077 48.8446 149.0053
v -970.9403 45.8101 141.5458
v -989.4568 59.0119 148.7154
v -983.0165 53.3169 152.0105
v -977.972 46.0668 155.3449
v -985.0515 55.1187 146.8286
v -982.7836 62.0293 151.2983
v -975.2458 61.9365 145.9087
v -977.9088 56.0281 141.2996
v -973.0057 59.8817 134.548
v -970.3962 66.9776 138.9262
v -984.0092 55.9688 134.5791
v -990.6355 54.6307 140.2878
v -978.6195 58.7393 128.0282
v -960.3466 56.8102 147.2736
v -954.2629 60.3728 147.6195
v -952.722 58.6905 137.1839
v -960.1418 56.0843 136.9186
v -960.7073 59.3244 127.6824
v -954.4609 62.921 127.6904
v -966.5767 61.0402 146.6384
v -968.3325 61.5974 138.3686
v -968.2825 62.882 129.8041
v -964.7095 58.9627 133.7197
v -964.9736 59.6474 128.9225
v -969.2949 59.3117 129.0365
v -969.6418 57.3403 133.5474
v -973.848 59.6129 133.8257
v -974.1067 60.2929 128.8606
v -969.3251 58.4751 137.9911
v -965.2379 59.9232 137.9911
v -973.7876 59.3435 138.2672
v -950.1775 55.7377 141.4214
v -948.9435 61.1027 148.4957
v -943.037 58.036 148.9954
v -942.9175 55.834 141.1623
v -945.9525 52.3799 136.9649
v -951.6045 52.4353 135.9632
v -953.1331 63.2298 139.0728
v -952.1348 67.0253 145.7272
v -955.4492 57.7085 133.7186
v -967.8306 56.8131 136.1881
v -967.6876 52.1722 130.5416
v -976.2062 53.629 130.6941
v -975.1826 58.2317 136.565
v -960.4562 55.5903 135.609
v -961.4764 51.0168 129.7079
v -969.051 52.6119 124.7352
v -976.4159 53.9185 125.2278
v -961.6622 51.5158 124.0252
v -951.3755 52.2449 167.8674
v -958.5815 51.6334 167.1202
v -958.4707 52.2767 175.7183
v -950.9958 52.7674 175.3127
v -951.7424 52.2452 160.3945
v -959.2155 51.8325 160.7961
v -962.3153 58.5641 168.0962
v -961.943 58.7875 175.5573
v -962.6741 58.9028 160.6053
v -966.4796 54.7598 132.8529
v -970.2772 56.981 126.1845
v -977.5601 52.4544 130.2679
v -974.0463 51.2793 136.7815
v -981.9276 51.8697 141.1337
v -986.1039 53.9867 134.4472
v -971.7933 57.3567 143.7227
v -964.3198 60.1007 139.7079
v -979.3951 56.7602 148.189
v -970.2915 54.0521 135.0662
v -970.2965 61.4799 139.4563
v -961.4661 58.9458 141.1389
v -961.4144 52.5131 136.3193
v -952.5781 53.8626 134.9713
v -952.2462 61.3959 139.5343
v -960.9711 51.7433 127.2795
v -969.7135 52.8334 126.5429
v -952.1787 52.0205 126.4733
v -953.4537 51.2694 130.4392
v -957.4044 58.4637 127.9178
v -960.9526 58.4754 136.4782
v -956.5455 52.2582 138.9193
v -956.9525 56.0338 147.2815
v -961.1356 63.4244 145.0202
v -947.8301 51.6362 141.3925
v -945.2913 50.2503 133.029
v -948.8073 54.3608 149.831
v -982.526 56.5499 164.8877
v -979.6772 57.2317 167.1284
v -977.9911 56.4214 164.2883
v -980.8234 54.63 162.3282
v -979.1908 56.096 159.1103
v -975.5415 56.6553 160.9379
v -984.193 55.6863 160.6646
v -985.8033 57.4625 163.366
v -982.4489 55.8688 157.263
v -968.9216 49.3039 149.0366
v -967.899 52.1025 141.5673
v -974.6368 50.8356 141.5796
v -976.0367 48.9993 148.7208
v -981.0167 53.3969 149.2308
v -979.5358 57.5219 141.5674
v -975.2495 48.4963 156.5058
v -968.4176 51.4544 156.5058
v -980.1971 56.3661 157.0117
v -952.6846 55.4727 144.3603
v -960.0385 58.2707 142.6993
v -960.6042 57.0076 149.4139
v -953.6096 55.172 151.4221
v -953.5286 59.5725 156.4256
v -961.0366 63.6967 154.2907
v -945.7858 54.6686 151.306
v -945.1996 57.6228 144.498
v -945.7059 62.5412 156.2753
v -942.6328 54.3069 139.134
v -945.974 54.3503 133.5317
v -952.6714 56.1624 137.1784
v -950.1915 54.033 143.2536
v -956.5647 55.2438 141.5683
v -955.387 54.0735 146.9187
v -946.5303 57.4784 147.6869
v -940.0884 57.1201 143.8315
v -952.6443 56.2244 151.8486
v -955.6636 58.6487 158.8439
v -956.6798 55.9469 165.3981
v -949.4768 54.1528 164.9469
v -949.665 52.3826 156.6012
v -942.2738 52.3587 164.4957
v -943.11 50.553 156.8078
v -950.5145 58.6828 151.6187
v -953.5396 63.4028 152.8058
v -943.0083 53.1682 150.2318
v -968.5675 66.0315 155.722
v -972.7545 64.7465 161.282
v -967.0471 60.1336 163.5781
v -964.6953 57.5312 155.7496
v -961.3398 55.5208 165.8742
v -959.7953 53.2272 158.4016
v -961.4933 63.0989 151.0434
v -962.9525 68.8399 151.1345
v -956.4073 54.7965 152.4664
v -968.3236 55.1234 160.7491
v -972.5106 53.8384 166.3091
v -966.8032 49.2255 168.6053
v -964.4514 46.6231 160.7767
v -961.0959 44.6127 170.9014
v -959.5514 42.3191 163.4288
v -961.2494 52.1908 156.0706
v -962.7086 57.9317 156.1616
v -956.1635 43.8884 157.4936
v -958.3585 58.6487 146.7639
v -959.3748 55.9469 153.3181
v -952.1718 54.1528 152.8669
v -952.3601 52.3826 144.5211
v -944.9688 52.3587 152.4156
v -945.8051 50.553 144.7278
v -953.2095 58.6828 139.5387
v -956.2345 63.4028 140.7258
v -945.7032 53.1682 138.1518
v -965.4733 54.4226 151.1249
v -968.8981 51.6478 156.777
v -962.0591 50.9571 159.5115
v -958.4792 49.1029 151.9861
v -955.2201 50.2665 162.246
v -952.4983 48.2846 155.0441
v -957.7765 55.1742 146.7626
v -961.4916 59.4033 146.2901
v -949.875 50.835 148.9913
v -978.5085 55.088 163.8304
v -980.5974 51.9884 164.8686
v -977.5243 51.9616 169.9711
v -975.7198 55.4227 169.2205
v -983.3527 56.4562 160.2631
v -985.0946 52.9147 161.2354
v -985.2416 50.7704 168.1992
v -981.9459 50.6229 172.9645
v -989.3956 51.3156 164.2211
v -983.2687 59.9341 142.2418
v -977.7681 65.9702 140.2359
v -977.1133 60.9845 135.0751
v -982.701 55.5898 136.276
v -984.8142 55.6775 130.2893
v -979.686 63.068 128.0599
v -989.4501 52.2154 138.9021
v -990.7999 58.5188 143.4211
v -992.9604 54.9255 131.455
v -938.8936 50.3493 145.3004
v -943.2725 51.407 139.0557
v -947.9398 51.5908 144.029
v -943.9233 50.9737 150.1801
v -950.3315 54.8932 146.5504
v -946.2952 53.3314 153.4421
v -937.797 50.681 155.0301
v -932.8317 51.1918 149.7583
v -939.6858 54.4816 157.7734
v -955.9971 51.9889 173.7888
v -956.0447 54.7875 166.25
v -962.7125 53.5206 167.2182
v -963.085 51.6842 174.4858
v -967.9423 56.0819 175.6973
v -967.5637 60.2069 167.9012
v -961.2012 51.1813 182.0803
v -954.4384 54.1393 181.1109
v -966.0269 59.051 183.2832
v -949.4885 55.42 136.5641
v -948.0531 55.4153 140.6953
v -944.0914 55.4161 138.3607
v -945.774 54.3354 134.7771
v -952.9169 58.4745 137.6968
v -950.9694 58.7975 141.6049
v -945.3464 57.9416 143.4878
v -941.9843 58.3224 141.1718
v -948.7948 60.4038 144.88
v -975.8903 55.7053 152.3152
v -971.3585 55.4639 149.5901
v -986.7052 56.28 148.7526
v -986.3613 57.1278 150.5226
v -966.5669 57.6907 159.201
v -964.5596 57.5277 156.9458
v -955.7666 55.5424 169.8629
v -960.8601 53.1428 148.5485
v -956.1586 52.4582 150.5182
v -963.7667 51.7434 137.3698
v -965.8516 51.6746 137.9016
v -967.7279 54.33 125.4897
v -970.0022 54.1842 125.8439
v -968.019 54.0186 119.2613
v -969.4243 53.3196 119.6348
v -971.2197 51.9505 115.0579
v -971.609 52.3858 115.9865
v -971.6259 53.9037 164.9639
v -970.249 53.7284 167.1701
v -962.0985 56.3176 166.0428
v -952.1689 56.5354 156.7917
v -987.3 53.6926 164.2343
v -988.6309 53.2926 165.4078
v -978.425 53.1426 169.1469
v -977.7135 53.2302 166.498
v -990.0266 53.2466 158.261
v -990.9329 53.6399 158.3431
v -949.4951 46.4305 175.8744
v -954.6053 55.5457 173.1153
v -956.5651 54.9655 174.4667
v -951.0089 45.2352 176.5065
v -962.1085 56.1641 172.77
v -961.4194 58.1989 168.8332
v -966.7928 54.1746 166.8186
v -968.1576 52.7676 169.442
v -980.1375 65.1378 148.337
v -974.0568 59.6222 163.6207
v -971.3453 60.0535 162.9615
v -971.1732 54.3196 132.7249
v -971.1761 53.677 131.3581
v -978.0308 55.2275 130.791
v -978.1401 55.1695 132.6339
v -986.8551 57.6267 137.5244
v -984.4305 57.7409 137.6701
v -983.3518 57.5932 134.5602
v -984.0225 57.4413 130.5817
v -982.285 56.836 143.5322
v -957.1737 57.4259 141.8699
v -945.035 53.4847 144.8395
v -953.4008 54.5422 134.4687
v -974.1941 59.264 146.5057
v -935.3984 50.7504 137.8944
v -943.1177 52.142 137.2685
v -929.0048 44.0349 142.8883
v -937.0427 55.9106 132.3776
v -931.1045 46.7198 148.3642
gi 0 0 0 0
gw 0.0 0.0 0.0 0.0
gi 0 0 0 0
gw 0.0 0.0 0.0 0.0
gi 0 0 0 0
gw 0.0 0.0 0.0 0.0
gi 0 0 0 0
gw 0.0 0.0 0.0 0.0
gi 0 0 0 0
gw 0.0 0.0 0.0 0.0
gi 0 0 0 0
gw 0.0 0.0 0.0 0.0
gi 0 0 0 0
gw 0.0 0.0 0.0 0.0
gi 0 0 0 0
gw 0.0 0.0 0.0 0.0
gi 0 0 0 0
gw 0.0 0.0 0.0 0.0
gi 0 0 0 0
gw 0.0 0.0 0.0 0.0
gi 0 0 0 0
gw 0.0 0.0 0.0 0.0
gi 0 0 0 0
gw 0.0 0.0 0.0 0.0
gi 0 0 0 0
gw 0.0 0.0 0.0 0.0
gi 0 0 0 0
gw 0.0 0.0 0.0 0.0
gi 0 0 0 0
gw 0.0 0.0 0.0 0.0
gi 0 0 0 0
gw 0.0 0.0 0.0 0.0
gi 0 0 0 0
gw 0.0 0.0 0.0 0.0
gi 0 0 0 0
gw 0.0 0.0 0.0 0.0
gi 0 0 0 0
gw 0.0 0.0 0.0 0.0
gi 0 0 0 0
gw 0.0 0.0 0.0 0.0
gi 0 0 0 0
gw 0.0 0.0 0.0 0.0
gi 0 0 0 0
gw 0.0 0.0 0.0 0.0
gi 0 0 0 0
gw 0.0 0.0 0.0 0.0
gi 0 0 0 0
gw 0.0 0.0 0.0 0.0
gi 0 0 0 0
gw 0.0 0.0 0.0 0.0
gi 0 0 0 0
gw 0.0 0.0 0.0 0.0
gi 0 0 0 0
gw 0.0 0.0 0.0 0.0
gi 0 0 0 0
gw 0.0 0.0 0.0 0.0
gi 0 0 0 0
gw 0.0 0.0 0.0 0.0
gi 0 0 0 0
gw 0.0 0.0 0.0 0.0
gi 0 0 0 0
gw 0.0 0.0 0.0 0.0
gi 0 0 0 0
gw 0.0 0.0 0.0 0.0
gi 0 0 0 0
gw 0.0 0.0 0.0 0.0
gi 0 0 0 0
gw 0.0 0.0 0.0 0.0
gi 0 0 0 0
gw 0.0 0.0 0.0 0.0
gi 0 0 0 0
gw 0.0 0.0 0.0 0.0
gi 0 0 0 0
gw 0.0 0.0 0.0 0.0
gi 0 0 0 0
gw 0.0 0.0 0.0 0.0
gi 0 0 0 0
gw 0.0 0.0 0.0 0.0
gi 0 0 0 0
gw 0.0 0.0 0.0 0.0
gi 0 0 0 0
gw 0.0 0.0 0.0 0.0
gi 0 0 0 0
gw 0.0 0.0 0.0 0.0
gi 0 0 0 0
gw 0.0 0.0 0.0 0.0
gi 0 0 0 0
gw 0.0 0.0 0.0 0.0
gi 0 0 0 0
gw 0.0 0.0 0.0 0.0
gi 0 0 0 0
gw 0.0 0.0 0.0 0.0
gi 0 0 0 0
gw 0.0 0.0 0.0 0.0
gi 0 0 0 0
gw 0.0 0.0 0.0 0.0
gi 0 0 0 0
gw 0.0 0.0 0.0 0.0
gi 0 0 0 0
gw 0.0 0.0 0.0 0.0
gi 0 0 0 0
gw 0.0 0.0 0.0 0.0
gi 0 0 0 0
gw 0.0 0.0 0.0 0.0
gi 0 0 0 0
gw 0.0 0.0 0.0 0.0
gi 0 0 0 0
gw 0.0 0.0 0.0 0.0
gi 0 0 0 0
gw 0.0 0.0 0.0 0.0
gi 0 0 0 0
gw 0.0 0.0 0.0 0.0
gi 0 0 0 0
gw 0.0 0.0 0.0 0.0
gi 0 0 0 0
gw 0.0 0.0 0.0 0.0
gi 0 0 0 0
gw 0.0 0.0 0.0 0.0
gi 0 0 0 0
gw 0.0 0.0 0.0 0.0
gi 0 0 0 0
gw 0.0 0.0 0.0 0.0
gi 0 0 0 0
gw 0.0 0.0 0.0 0.0
gi 0 0 0 0
gw 0.0 0.0 0.0 0.0
gi 0 0 0 0
gw 0.0 0.0 0.0 0.0
gi 0 0 0 0
gw 0.0 0.0 0.0 0.0
gi 0 0 0 0
gw 0.0 0.0 0.0 0.0
gi 0 0 0 0
gw 0.0 0.0 0.0 0.0
gi 0 0 0 0
gw 0.0 0.0 0.0 0.0
gi 0 0 0 0
gw 0.0 0.0 0.0 0.0
gi 0 0 0 0
gw 0.0 0.0 0.0 0.0
gi 0 0 0 0
gw 0.0 0.0 0.0 0.0
gi 0 0 0 0
gw 0.0 0.0 0.0 0.0
gi 0 0 0 0
gw 0.0 0.0 0.0 0.0
gi 0 0 0 0
gw 0.0 0.0 0.0 0.0
gi 0 0 0 0
gw 0.0 0.0 0.0 0.0
gi 0 0 0 0
gw 0.0 0.0 0.0 0.0
gi 0 0 0 0
gw 0.0 0.0 0.0 0.0
gi 0 0 0 0
gw 0.0 0.0 0.0 0.0
gi 0 0 0 0
gw 0.0 0.0 0.0 0.0
gi 0 0 0 0
gw 0.0 0.0 0.0 0.0
gi 0 0 0 0
gw 0.0 0.0 0.0 0.0
gi 0 0 0 0
gw 0.0 0.0 0.0 0.0
gi 0 0 0 0
gw 0.0 0.0 0.0 0.0
gi 0 0 0 0
gw 0.0 0.0 0.0 0.0
gi 0 0 0 0
gw 0.0 0.0 0.0 0.0
gi 0 0 0 0
gw 0.0 0.0 0.0 0.0
gi 0 0 0 0
gw 0.0 0.0 0.0 0.0
gi 0 0 0 0
gw 0.0 0.0 0.0 0.0
gi 0 0 0 0
gw 0.0 0.0 0.0 0.0
gi 0 0 0 0
gw 0.0 0.0 0.0 0.0
gi 0 0 0 0
gw 0.0 0.0 0.0 0.0
gi 0 0 0 0
gw 0.0 0.0 0.0 0.0
gi 0 0 0 0
gw 0.0 0.0 0.0 0.0
gi 0 0 0 0
gw 0.0 0.0 0.0 0.0
gi 0 0 0 0
gw 0.0 0.0 0.0 0.0
gi 0 0 0 0
gw 0.0 0.0 0.0 0.0
gi 0 0 0 0
gw 0.0 0.0 0.0 0.0
gi 0 0 0 0
gw 0.0 0.0 0.0 0.0
gi 0 0 0 0
gw 0.0 0.0 0.0 0.0
gi 0 0 0 0
gw 0.0 0.0 0.0 0.0
gi 0 0 0 0
gw 0.0 0.0 0.0 0.0
gi 0 0 0 0
gw 0.0 0.0 0.0 0.0
gi 0 0 0 0
gw 0.0 0.0 0.0 0.0
gi 0 0 0 0
gw 0.0 0.0 0.0 0.0
gi 0 0 0 0
gw 0.0 0.0 0.0 0.0
gi 0 0 0 0
gw 0.0 0.0 0.0 0.0
gi 0 0 0 0
gw 0.0 0.0 0.0 0.0
gi 0 0 0 0
gw 0.0 0.0 0.0 0.0
gi 0 0 0 0
gw 0.0 0.0 0.0 0.0
gi 0 0 0 0
gw 0.0 0.0 0.0 0.0
gi 0 0 0 0
gw 0.0 0.0 0.0 0.0
gi 0 0 0 0
gw 0.0 0.0 0.0 0.0
gi 0 0 0 0
gw 0.0 0.0 0.0 0.0
gi 0 0 0 0
gw 0.0 0.0 0.0 0.0
gi 0 0 0 0
gw 0.0 0.0 0.0 0.0
gi 0 0 0 0
gw 0.0 0.0 0.0 0.0
gi 0 0 0 0
gw 0.0 0.0 0.0 0.0
gi 0 0 0 0
gw 0.0 0.0 0.0 0.0
gi 0 0 0 0
gw 0.0 0.0 0.0 0.0
gi 0 0 0 0
gw 0.0 0.0 0.0 0.0
gi 0 0 0 0
gw 0.0 0.0 0.0 0.0
gi 0 0 0 0
gw 0.0 0.0 0.0 0.0
gi 0 0 0 0
gw 0.0 0.0 0.0 0.0
gi 0 0 0 0
gw 0.0 0.0 0.0 0.0
gi 0 0 0 0
gw 0.0 0.0 0.0 0.0
gi 0 0 0 0
gw 0.0 0.0 0.0 0.0
gi 0 0 0 0
gw 0.0 0.0 0.0 0.0
gi 0 0 0 0
gw 0.0 0.0 0.0 0.0
gi 0 0 0 0
gw 0.0 0.0 0.0 0.0
gi 0 0 0 0
gw 0.0 0.0 0.0 0.0
gi 0 0 0 0
gw 0.0 0.0 0.0 0.0
gi 0 0 0 0
gw 0.0 0.0 0.0 0.0
gi 0 0 0 0
gw 0.0 0.0 0.0 0.0
gi 0 0 0 0
gw 0.0 0.0 0.0 0.0
gi 0 0 0 0
gw 0.0 0.0 0.0 0.0
gi 0 0 0 0
gw 0.0 0.0 0.0 0.0
gi 0 0 0 0
gw 0.0 0.0 0.0 0.0
gi 0 0 0 0
gw 0.0 0.0 0.0 0.0
gi 0 0 0 0
gw 0.0 0.0 0.0 0.0
gi 0 0 0 0
gw 0.0 0.0 0.0 0.0
gi 0 0 0 0
gw 0.0 0.0 0.0 0.0
gi 0 0 0 0
gw 0.0 0.0 0.0 0.0
gi 0 0 0 0
gw 0.0 0.0 0.0 0.0
gi 0 0 0 0
gw 0.0 0.0 0.0 0.0
gi 0 0 0 0
gw 0.0 0.0 0.0 0.0
gi 0 0 0 0
gw 0.0 0.0 0.0 0.0
gi 0 0 0 0
gw 0.0 0.0 0.0 0.0
gi 0 0 0 0
gw 0.0 0.0 0.0 0.0
gi 0 0 0 0
gw 0.0 0.0 0.0 0.0
gi 0 0 0 0
gw 0.0 0.0 0.0 0.0
gi 0 0 0 0
gw 0.0 0.0 0.0 0.0
gi 0 0 0 0
gw 0.0 0.0 0.0 0.0
gi 0 0 0 0
gw 0.0 0.0 0.0 0.0
gi 0 0 0 0
gw 0.0 0.0 0.0 0.0
gi 0 0 0 0
gw 0.0 0.0 0.0 0.0
gi 0 0 0 0
gw 0.0 0.0 0.0 0.0
gi 0 0 0 0
gw 0.0 0.0 0.0 0.0
gi 0 0 0 0
gw 0.0 0.0 0.0 0.0
gi 0 0 0 0
gw 0.0 0.0 0.0 0.0
gi 0 0 0 0
gw 0.0 0.0 0.0 0.0
gi 0 0 0 0
gw 0.0 0.0 0.0 0.0
gi 0 0 0 0
gw 0.0 0.0 0.0 0.0
gi 0 0 0 0
gw 0.0 0.0 0.0 0.0
gi 0 0 0 0
gw 0.0 0.0 0.0 0.0
gi 0 0 0 0
gw 0.0 0.0 0.0 0.0
gi 0 0 0 0
gw 0.0 0.0 0.0 0.0
gi 0 0 0 0
gw 0.0 0.0 0.0 0.0
gi 0 0 0 0
gw 0.0 0.0 0.0 0.0
gi 0 0 0 0
gw 0.0 0.0 0.0 0.0
gi 0 0 0 0
gw 0.0 0.0 0.0 0.0
gi 0 0 0 0
gw 0.0 0.0 0.0 0.0
gi 0 0 0 0
gw 0.0 0.0 0.0 0.0
gi 0 0 0 0
gw 0.0 0.0 0.0 0.0
gi 0 0 0 0
gw 0.0 0.0 0.0 0.0
gi 0 0 0 0
gw 0.0 0.0 0.0 0.0
gi 0 0 0 0
gw 0.0 0.0 0.0 0.0
gi 0 0 0 0
gw 0.0 0.0 0.0 0.0
gi 0 0 0 0
gw 0.0 0.0 0.0 0.0
gi 0 0 0 0
gw 0.0 0.0 0.0 0.0
gi 0 0 0 0
gw 0.0 0.0 0.0 0.0
gi 0 0 0 0
gw 0.0 0.0 0.0 0.0
gi 0 0 0 0
gw 0.0 0.0 0.0 0.0
gi 0 0 0 0
gw 0.0 0.0 0.0 0.0
gi 0 0 0 0
gw 0.0 0.0 0.0 0.0
gi 0 0 0 0
gw 0.0 0.0 0.0 0.0
gi 0 0 0 0
gw 0.0 0.0 0.0 0.0
gi 0 0 0 0
gw 0.0 0.0 0.0 0.0
gi 0 0 0 0
gw 0.0 0.0 0.0 0.0
gi 0 0 0 0
gw 0.0 0.0 0.0 0.0
gi 0 0 0 0
gw 0.0 0.0 0.0 0.0
gi 0 0 0 0
gw 0.0 0.0 0.0 0.0
gi 0 0 0 0
gw 0.0 0.0 0.0 0.0
gi 0 0 0 0
gw 0.0 0.0 0.0 0.0
gi 0 0 0 0
gw 0.0 0.0 0.0 0.0
gi 0 0 0 0
gw 0.0 0.0 0.0 0.0
gi 0 0 0 0
gw 0.0 0.0 0.0 0.0
gi 0 0 0 0
gw 0.0 0.0 0.0 0.0
gi 0 0 0 0
gw 0.0 0.0 0.0 0.0
gi 0 0 0 0
gw 0.0 0.0 0.0 0.0
gi 0 0 0 0
gw 0.0 0.0 0.0 0.0
gi 0 0 0 0
gw 0.0 0.0 0.0 0.0
gi 0 0 0 0
gw 0.0 0.0 0.0 0.0
gi 0 0 0 0
gw 0.0 0.0 0.0 0.0
gi 0 0 0 0
gw 0.0 0.0 0.0 0.0
gi 0 0 0 0
gw 0.0 0.0 0.0 0.0
gi 0 0 0 0
gw 0.0 0.0 0.0 0.0
gi 0 0 0 0
gw 0.0 0.0 0.0 0.0
gi 0 0 0 0
gw 0.0 0.0 0.0 0.0
gi 0 0 0 0
gw 0.0 0.0 0.0 0.0
gi 0 0 0 0
gw 0.0 0.0 0.0 0.0
gi 0 0 0 0
gw 0.0 0.0 0.0 0.0
gi 0 0 0 0
gw 0.0 0.0 0.0 0.0
gi 0 0 0 0
gw 0.0 0.0 0.0 0.0
gi 0 0 0 0
gw 0.0 0.0 0.0 0.0
gi 0 0 0 0
gw 0.0 0.0 0.0 0.0
gi 0 0 0 0
gw 0.0 0.0 0.0 0.0
gi 0 0 0 0
gw 0.0 0.0 0.0 0.0
gi 0 0 0 0
gw 0.0 0.0 0.0 0.0
gi 0 0 0 0
gw 0.0 0.0 0.0 0.0
gi 0 0 0 0
gw 0.0 0.0 0.0 0.0
gi 0 0 0 0
gw 0.0 0.0 0.0 0.0
gi 0 0 0 0
gw 0.0 0.0 0.0 0.0
gi 0 0 0 0
gw 0.0 0.0 0.0 0.0
gi 0 0 0 0
gw 0.0 0.0 0.0 0.0
gi 0 0 0 0
gw 0.0 0.0 0.0 0.0
gi 0 0 0 0
gw 0.0 0.0 0.0 0.0
gi 0 0 0 0
gw 0.0 0.0 0.0 0.0
gi 0 0 0 0
gw 0.0 0.0 0.0 0.0
gi 0 0 0 0
gw 0.0 0.0 0.0 0.0
gi 0 0 0 0
gw 0.0 0.0 0.0 0.0
gi 0 0 0 0
gw 0.0 0.0 0.0 0.0
gi 0 0 0 0
gw 0.0 0.0 0.0 0.0
gi 0 0 0 0
gw 0.0 0.0 0.0 0.0
gi 0 0 0 0
gw 0.0 0.0 0.0 0.0
gi 0 0 0 0
gw 0.0 0.0 0.0 0.0
gi 0 0 0 0
gw 0.0 0.0 0.0 0.0
gi 0 0 0 0
gw 0.0 0.0 0.0 0.0
gi 0 0 0 0
gw 0.0 0.0 0.0 0.0
gi 0 0 0 0
gw 0.0 0.0 0.0 0.0
gi 0 0 0 0
gw 0.0 0.0 0.0 0.0
gi 0 0 0 0
gw 0.0 0.0 0.0 0.0
gi 0 0 0 0
gw 0.0 0.0 0.0 0.0
gi 0 0 0 0
gw 0.0 0.0 0.0 0.0
gi 0 0 0 0
gw 0.0 0.0 0.0 0.0
gi 0 0 0 0
gw 0.0 0.0 0.0 0.0
gi 0 0 0 0
gw 0.0 0.0 0.0 0.0
gi 0 0 0 0
gw 0.0 0.0 0.0 0.0
gi 0 0 0 0
gw 0.0 0.0 0.0 0.0
gi 0 0 0 0
gw 0.0 0.0 0.0 0.0
gi 0 0 0 0
gw 0.0 0.0 0.0 0.0
gi 0 0 0 0
gw 0.0 0.0 0.0 0.0
gi 0 0 0 0
gw 0.0 0.0 0.0 0.0
gi 0 0 0 0
gw 0.0 0.0 0.0 0.0
gi 0 0 0 0
gw 0.0 0.0 0.0 0.0
gi 0 0 0 0
gw 0.0 0.0 0.0 0.0
gi 0 0 0 0
gw 0.0 0.0 0.0 0.0
gi 0 0 0 0
gw 0.0 0.0 0.0 0.0
gi 0 0 0 0
gw 0.0 0.0 0.0 0.0
gi 0 0 0 0
gw 0.0 0.0 0.0 0.0
gi 0 0 0 0
gw 0.0 0.0 0.0 0.0
gi 0 0 0 0
gw 0.0 0.0 0.0 0.0
gi 0 0 0 0
gw 0.0 0.0 0.0 0.0
gi 0 0 0 0
gw 0.0 0.0 0.0 0.0
gi 0 0 0 0
gw 0.0 0.0 0.0 0.0
gi 0 0 0 0
gw 0.0 0.0 0.0 0.0
gi 0 0 0 0
gw 0.0 0.0 0.0 0.0
gi 0 0 0 0
gw 0.0 0.0 0.0 0.0
gi 0 0 0 0
gw 0.0 0.0 0.0 0.0
gi 0 0 0 0
gw 0.0 0.0 0.0 0.0
gi 0 0 0 0
gw 0.0 0.0 0.0 0.0
gi 0 0 0 0
gw 0.0 0.0 0.0 0.0
gi 0 0 0 0
gw 0.0 0.0 0.0 0.0
gi 0 0 0 0
gw 0.0 0.0 0.0 0.0
gi 0 0 0 0
gw 0.0 0.0 0.0 0.0
gi 0 0 0 0
gw 0.0 0.0 0.0 0.0
gi 0 0 0 0
gw 0.0 0.0 0.0 0.0
gi 0 0 0 0
gw 0.0 0.0 0.0 0.0
gi 0 0 0 0
gw 0.0 0.0 0.0 0.0
gi 0 0 0 0
gw 0.0 0.0 0.0 0.0
gi 0 0 0 0
gw 0.0 0.0 0.0 0.0
gi 0 0 0 0
gw 0.0 0.0 0.0 0.0
gi 0 0 0 0
gw 0.0 0.0 0.0 0.0
gi 0 0 0 0
gw 0.0 0.0 0.0 0.0
gi 0 0 0 0
gw 0.0 0.0 0.0 0.0
gi 0 0 0 0
gw 0.0 0.0 0.0 0.0
gi 0 0 0 0
gw 0.0 0.0 0.0 0.0
gi 0 0 0 0
gw 0.0 0.0 0.0 0.0
gi 0 0 0 0
gw 0.0 0.0 0.0 0.0
gi 0 0 0 0
gw 0.0 0.0 0.0 0.0
gi 0 0 0 0
gw 0.0 0.0 0.0 0.0
gi 0 0 0 0
gw 0.0 0.0 0.0 0.0
gi 0 0 0 0
gw 0.0 0.0 0.0 0.0
gi 0 0 0 0
gw 0.0 0.0 0.0 0.0
gi 0 0 0 0
gw 0.0 0.0 0.0 0.0
gi 0 0 0 0
gw 0.0 0.0 0.0 0.0
gi 0 0 0 0
gw 0.0 0.0 0.0 0.0
gi 0 0 0 0
gw 0.0 0.0 0.0 0.0
gi 0 0 0 0
gw 0.0 0.0 0.0 0.0
gi 0 0 0 0
gw 0.0 0.0 0.0 0.0
gi 0 0 0 0
gw 0.0 0.0 0.0 0.0
gi 0 0 0 0
gw 0.0 0.0 0.0 0.0
gi 0 0 0 0
gw 0.0 0.0 0.0 0.0
gi 0 0 0 0
gw 0.0 0.0 0.0 0.0
gi 0 0 0 0
gw 0.0 0.0 0.0 0.0
gi 0 0 0 0
gw 0.0 0.0 0.0 0.0
gi 0 0 0 0
gw 0.0 0.0 0.0 0.0
gi 0 0 0 0
gw 0.0 0.0 0.0 0.0
gi 0 0 0 0
gw 0.0 0.0 0.0 0.0
gi 0 0 0 0
gw 0.0 0.0 0.0 0.0
gi 0 0 0 0
gw 0.0 0.0 0.0 0.0
gi 0 0 0 0
gw 0.0 0.0 0.0 0.0
gi 0 0 0 0
gw 0.0 0.0 0.0 0.0
gi 0 0 0 0
gw 0.0 0.0 0.0 0.0
gi 0 0 0 0
gw 0.0 0.0 0.0 0.0
gi 0 0 0 0
gw 0.0 0.0 0.0 0.0
gi 0 0 0 0
gw 0.0 0.0 0.0 0.0
gi 0 0 0 0
gw 0.0 0.0 0.0 0.0
gi 0 0 0 0
gw 0.0 0.0 0.0 0.0
gi 0 0 0 0
gw 0.0 0.0 0.0 0.0
gi 0 0 0 0
gw 0.0 0.0 0.0 0.0
gi 0 0 0 0
gw 0.0 0.0 0.0 0.0
gi 0 0 0 0
gw 0.0 0.0 0.0 0.0
gi 0 0 0 0
gw 0.0 0.0 0.0 0.0
gi 0 0 0 0
gw 0.0 0.0 0.0 0.0
gi 0 0 0 0
gw 0.0 0.0 0.0 0.0
gi 0 0 0 0
gw 0.0 0.0 0.0 0.0
gi 0 0 0 0
gw 0.0 0.0 0.0 0.0
gi 0 0 0 0
gw 0.0 0.0 0.0 0.0
gi 0 0 0 0
gw 0.0 0.0 0.0 0.0
gi 0 0 0 0
gw 0.0 0.0 0.0 0.0
gi 0 0 0 0
gw 0.0 0.0 0.0 0.0
gi 0 0 0 0
gw 0.0 0.0 0.0 0.0
gi 0 0 0 0
gw 0.0 0.0 0.0 0.0
gi 0 0 0 0
gw 0.0 0.0 0.0 0.0
gi 0 0 0 0
gw 0.0 0.0 0.0 0.0
gi 0 0 0 0
gw 0.0 0.0 0.0 0.0
gi 0 0 0 0
gw 0.0 0.0 0.0 0.0
gi 0 0 0 0
gw 0.0 0.0 0.0 0.0
gi 0 0 0 0
gw 0.0 0.0 0.0 0.0
gi 0 0 0 0
gw 0.0 0.0 0.0 0.0
gi 0 0 0 0
gw 0.0 0.0 0.0 0.0
gi 0 0 0 0
gw 0.0 0.0 0.0 0.0
gi 0 0 0 0
gw 0.0 0.0 0.0 0.0
gi 0 0 0 0
gw 0.0 0.0 0.0 0.0
gi 0 0 0 0
gw 0.0 0.0 0.0 0.0
gi 0 0 0 0
gw 0.0 0.0 0.0 0.0
gi 0 0 0 0
gw 0.0 0.0 0.0 0.0
gi 0 0 0 0
gw 0.0 0.0 0.0 0.0
gi 0 0 0 0
gw 0.0 0.0 0.0 0.0
gi 0 0 0 0
gw 0.0 0.0 0.0 0.0
gi 0 0 0 0
gw 0.0 0.0 0.0 0.0
gi 0 0 0 0
gw 0.0 0.0 0.0 0.0
gi 0 0 0 0
gw 0.0 0.0 0.0 0.0
gi 0 0 0 0
gw 0.0 0.0 0.0 0.0
gi 0 0 0 0
gw 0.0 0.0 0.0 0.0
gi 0 0 0 0
gw 0.0 0.0 0.0 0.0
gi 0 0 0 0
gw 0.0 0.0 0.0 0.0
gi 0 0 0 0
gw 0.0 0.0 0.0 0.0
gi 0 0 0 0
gw 0.0 0.0 0.0 0.0
gi 0 0 0 0
gw 0.0 0.0 0.0 0.0
gi 0 0 0 0
gw 0.0 0.0 0.0 0.0
gi 0 0 0 0
gw 0.0 0.0 0.0 0.0
gi 0 0 0 0
gw 0.0 0.0 0.0 0.0
gi 0 0 0 0
gw 0.0 0.0 0.0 0.0
gi 0 0 0 0
gw 0.0 0.0 0.0 0.0
gi 0 0 0 0
gw 0.0 0.0 0.0 0.0
gi 0 0 0 0
gw 0.0 0.0 0.0 0.0
gi 0 0 0 0
gw 0.0 0.0 0.0 0.0
gi 0 0 0 0
gw 0.0 0.0 0.0 0.0
gi 0 0 0 0
gw 0.0 0.0 0.0 0.0
gi 0 0 0 0
gw 0.0 0.0 0.0 0.0
gi 0 0 0 0
gw 0.0 0.0 0.0 0.0
gi 0 0 0 0
gw 0.0 0.0 0.0 0.0
gi 0 0 0 0
gw 0.0 0.0 0.0 0.0
gi 0 0 0 0
gw 0.0 0.0 0.0 0.0
gi 0 0 0 0
gw 0.0 0.0 0.0 0.0
gi 0 0 0 0
gw 0.0 0.0 0.0 0.0
gi 0 0 0 0
gw 0.0 0.0 0.0 0.0
gi 0 0 0 0
gw 0.0 0.0 0.0 0.0
gi 0 0 0 0
gw 0.0 0.0 0.0 0.0
gi 0 0 0 0
gw 0.0 0.0 0.0 0.0
gi 0 0 0 0
gw 0.0 0.0 0.0 0.0
gi 0 0 0 0
gw 0.0 0.0 0.0 0.0
gi 0 0 0 0
gw 0.0 0.0 0.0 0.0
gi 0 0 0 0
gw 0.0 0.0 0.0 0.0
gi 0 0 0 0
gw 0.0 0.0 0.0 0.0
gi 0 0 0 0
gw 0.0 0.0 0.0 0.0
gi 0 0 0 0
gw 0.0 0.0 0.0 0.0
gi 0 0 0 0
gw 0.0 0.0 0.0 0.0
gi 0 0 0 0
gw 0.0 0.0 0.0 0.0
gi 0 0 0 0
gw 0.0 0.0 0.0 0.0
gi 0 0 0 0
gw 0.0 0.0 0.0 0.0
gi 0 0 0 0
gw 0.0 0.0 0.0 0.0
gi 0 0 0 0
gw 0.0 0.0 0.0 0.0
gi 0 0 0 0
gw 0.0 0.0 0.0 0.0
gi 0 0 0 0
gw 0.0 0.0 0.0 0.0
gi 0 0 0 0
gw 0.0 0.0 0.0 0.0
gi 0 0 0 0
gw 0.0 0.0 0.0 0.0
gi 0 0 0 0
gw 0.0 0.0 0.0 0.0
gi 0 0 0 0
gw 0.0 0.0 0.0 0.0
gi 0 0 0 0
gw 0.0 0.0 0.0 0.0
gi 0 0 0 0
gw 0.0 0.0 0.0 0.0
gi 0 0 0 0
gw 0.0 0.0 0.0 0.0
gi 0 0 0 0
gw 0.0 0.0 0.0 0.0
gi 0 0 0 0
gw 0.0 0.0 0.0 0.0
gi 0 0 0 0
gw 0.0 0.0 0.0 0.0
gi 0 0 0 0
gw 0.0 0.0 0.0 0.0
gi 0 0 0 0
gw 0.0 0.0 0.0 0.0
gi 0 0 0 0
gw 0.0 0.0 0.0 0.0
gi 0 0 0 0
gw 0.0 0.0 0.0 0.0
gi 0 0 0 0
gw 0.0 0.0 0.0 0.0
gi 0 0 0 0
gw 0.0 0.0 0.0 0.0
gi 0 0 0 0
gw 0.0 0.0 0.0 0.0
gi 0 0 0 0
gw 0.0 0.0 0.0 0.0
gi 0 0 0 0
gw 0.0 0.0 0.0 0.0
gi 0 0 0 0
gw 0.0 0.0 0.0 0.0
gi 0 0 0 0
gw 0.0 0.0 0.0 0.0
gi 0 0 0 0
gw 0.0 0.0 0.0 0.0
gi 0 0 0 0
gw 0.0 0.0 0.0 0.0
gi 0 0 0 0
gw 0.0 0.0 0.0 0.0
gi 0 0 0 0
gw 0.0 0.0 0.0 0.0
gi 0 0 0 0
gw 0.0 0.0 0.0 0.0
gi 0 0 0 0
gw 0.0 0.0 0.0 0.0
gi 0 0 0 0
gw 0.0 0.0 0.0 0.0
gi 0 0 0 0
gw 0.0 0.0 0.0 0.0
gi 0 0 0 0
gw 0.0 0.0 0.0 0.0
gi 0 0 0 0
gw 0.0 0.0 0.0 0.0
gi 0 0 0 0
gw 0.0 0.0 0.0 0.0
gi 0 0 0 0
gw 0.0 0.0 0.0 0.0
gi 0 0 0 0
gw 0.0 0.0 0.0 0.0
gi 0 0 0 0
gw 0.0 0.0 0.0 0.0
gi 0 0 0 0
gw 0.0 0.0 0.0 0.0
gi 0 0 0 0
gw 0.0 0.0 0.0 0.0
gi 0 0 0 0
gw 0.0 0.0 0.0 0.0
gi 0 0 0 0
gw 0.0 0.0 0.0 0.0
gi 0 0 0 0
gw 0.0 0.0 0.0 0.0
gi 0 0 0 0
gw 0.0 0.0 0.0 0.0
gi 0 0 0 0
gw 0.0 0.0 0.0 0.0
gi 0 0 0 0
gw 0.0 0.0 0.0 0.0
gi 0 0 0 0
gw 0.0 0.0 0.0 0.0
gi 0 0 0 0
gw 0.0 0.0 0.0 0.0
gi 0 0 0 0
gw 0.0 0.0 0.0 0.0
gi 0 0 0 0
gw 0.0 0.0 0.0 0.0
gi 0 0 0 0
gw 0.0 0.0 0.0 0.0
gi 0 0 0 0
gw 0.0 0.0 0.0 0.0
gi 0 0 0 0
gw 0.0 0.0 0.0 0.0
gi 0 0 0 0
gw 0.0 0.0 0.0 0.0
gi 0 0 0 0
gw 0.0 0.0 0.0 0.0
gi 0 0 0 0
gw 0.0 0.0 0.0 0.0
gi 0 0 0 0
gw 0.0 0.0 0.0 0.0
gi 0 0 0 0
gw 0.0 0.0 0.0 0.0
gi 0 0 0 0
gw 0.0 0.0 0.0 0.0
gi 0 0 0 0
gw 0.0 0.0 0.0 0.0
gi 0 0 0 0
gw 0.0 0.0 0.0 0.0
gi 0 0 0 0
gw 0.0 0.0 0.0 0.0
gi 0 0 0 0
gw 0.0 0.0 0.0 0.0
gi 0 0 0 0
gw 0.0 0.0 0.0 0.0
gi 0 0 0 0
gw 0.0 0.0 0.0 0.0
gi 0 0 0 0
gw 0.0 0.0 0.0 0.0
gi 0 0 0 0
gw 0.0 0.0 0.0 0.0
gi 0 0 0 0
gw 0.0 0.0 0.0 0.0
gi 0 0 0 0
gw 0.0 0.0 0.0 0.0
gi 0 0 0 0
gw 0.0 0.0 0.0 0.0
gi 0 0 0 0
gw 0.0 0.0 0.0 0.0
gi 0 0 0 0
gw 0.0 0.0 0.0 0.0
gi 0 0 0 0
gw 0.0 0.0 0.0 0.0
gi 0 0 0 0
gw 0.0 0.0 0.0 0.0
gi 0 0 0 0
gw 0.0 0.0 0.0 0.0
gi 0 0 0 0
gw 0.0 0.0 0.0 0.0
gi 0 0 0 0
gw 0.0 0.0 0.0 0.0
gi 0 0 0 0
gw 0.0 0.0 0.0 0.0
gi 0 0 0 0
gw 0.0 0.0 0.0 0.0
gi 0 0 0 0
gw 0.0 0.0 0.0 0.0
gi 0 0 0 0
gw 0.0 0.0 0.0 0.0
gi 0 0 0 0
gw 0.0 0.0 0.0 0.0
gi 0 0 0 0
gw 0.0 0.0 0.0 0.0
gi 0 0 0 0
gw 0.0 0.0 0.0 0.0
gi 0 0 0 0
gw 0.0 0.0 0.0 0.0
gi 0 0 0 0
gw 0.0 0.0 0.0 0.0
gi 0 0 0 0
gw 0.0 0.0 0.0 0.0
gi 0 0 0 0
gw 0.0 0.0 0.0 0.0
gi 0 0 0 0
gw 0.0 0.0 0.0 0.0
gi 0 0 0 0
gw 0.0 0.0 0.0 0.0
gi 0 0 0 0
gw 0.0 0.0 0.0 0.0
gi 0 0 0 0
gw 0.0 0.0 0.0 0.0
gi 0 0 0 0
gw 0.0 0.0 0.0 0.0
gi 0 0 0 0
gw 0.0 0.0 0.0 0.0
gi 0 0 0 0
gw 0.0 0.0 0.0 0.0
gi 0 0 0 0
gw 0.0 0.0 0.0 0.0
gi 0 0 0 0
gw 0.0 0.0 0.0 0.0
gi 0 0 0 0
gw 0.0 0.0 0.0 0.0
gi 0 0 0 0
gw 0.0 0.0 0.0 0.0
gi 0 0 0 0
gw 0.0 0.0 0.0 0.0
gi 0 0 0 0
gw 0.0 0.0 0.0 0.0
gi 0 0 0 0
gw 0.0 0.0 0.0 0.0
gi 0 0 0 0
gw 0.0 0.0 0.0 0.0
gi 0 0 0 0
gw 0.0 0.0 0.0 0.0
gi 0 0 0 0
gw 0.0 0.0 0.0 0.0
gi 0 0 0 0
gw 0.0 0.0 0.0 0.0
gi 0 0 0 0
gw 0.0 0.0 0.0 0.0
gi 0 0 0 0
gw 0.0 0.0 0.0 0.0
gi 0 0 0 0
gw 0.0 0.0 0.0 0.0
gi 0 0 0 0
gw 0.0 0.0 0.0 0.0
gi 0 0 0 0
gw 0.0 0.0 0.0 0.0
gi 0 0 0 0
gw 0.0 0.0 0.0 0.0
gi 0 0 0 0
gw 0.0 0.0 0.0 0.0
gi 0 0 0 0
gw 0.0 0.0 0.0 0.0
gi 0 0 0 0
gw 0.0 0.0 0.0 0.0
gi 0 0 0 0
gw 0.0 0.0 0.0 0.0
gi 0 0 0 0
gw 0.0 0.0 0.0 0.0
gi 0 0 0 0
gw 0.0 0.0 0.0 0.0
gi 0 0 0 0
gw 0.0 0.0 0.0 0.0
gi 0 0 0 0
gw 0.0 0.0 0.0 0.0
gi 0 0 0 0
gw 0.0 0.0 0.0 0.0
gi 0 0 0 0
gw 0.0 0.0 0.0 0.0
gi 0 0 0 0
gw 0.0 0.0 0.0 0.0
gi 0 0 0 0
gw 0.0 0.0 0.0 0.0
gi 0 0 0 0
gw 0.0 0.0 0.0 0.0
gi 0 0 0 0
gw 0.0 0.0 0.0 0.0
gi 0 0 0 0
gw 0.0 0.0 0.0 0.0
gi 0 0 0 0
gw 0.0 0.0 0.0 0.0
gi 0 0 0 0
gw 0.0 0.0 0.0 0.0
gi 0 0 0 0
gw 0.0 0.0 0.0 0.0
gi 0 0 0 0
gw 0.0 0.0 0.0 0.0
gi 0 0 0 0
gw 0.0 0.0 0.0 0.0
gi 0 0 0 0
gw 0.0 0.0 0.0 0.0
gi 0 0 0 0
gw 0.0 0.0 0.0 0.0
gi 0 0 0 0
gw 0.0 0.0 0.0 0.0
gi 0 0 0 0
gw 0.0 0.0 0.0 0.0
gi 0 0 0 0
gw 0.0 0.0 0.0 0.0
gi 0 0 0 0
gw 0.0 0.0 0.0 0.0
gi 0 0 0 0
gw 0.0 0.0 0.0 0.0
gi 0 0 0 0
gw 0.0 0.0 0.0 0.0
vt 0.1166 0.7956
vt 0.1298 0.8902
vt 0.0 0.8978
vt 0.0 0.7956
vt 0.2332 0.7956
vt 0.2332 0.8978
vt 0.1166 1.0
vt 0.0 1.0
vt 0.2332 1.0
vt 0.5468 0.3673
vt 0.5615 0.2734
vt 0.7285 0.288
vt 0.7285 0.3988
vt 0.911 0.3888
vt 0.9084 0.288
vt 0.5546 0.4534
vt 0.7164 0.5033
vt 0.8843 0.4732
vt 0.0179 0.6408
vt 0.0179 0.5031
vt 0.175 0.5031
vt 0.1928 0.6305
vt 0.332 0.6408
vt 0.3191 0.5108
vt 0.175 0.7786
vt 0.0179 0.7786
vt 0.332 0.7786
vt 0.4805 0.5373
vt 0.32 0.5466
vt 0.3268 0.4296
vt 0.4642 0.416
vt 0.5837 0.4495
vt 0.6084 0.5466
vt 0.4642 0.6713
vt 0.32 0.6713
vt 0.6084 0.6713
vt 0.6606 0.8469
vt 0.6839 0.6153
vt 0.8199 0.7011
vt 0.838 0.836
vt 0.9792 0.8469
vt 0.9792 0.7011
vt 0.8199 0.9927
vt 0.6606 0.9927
vt 0.9792 0.9927
vt 0.7379 0.5099
vt 0.8725 0.4801
vt 0.8795 0.5802
vt 0.7418 0.5871
vt 0.9847 0.4865
vt 0.9967 0.5854
vt 0.8652 0.7075
vt 0.7692 0.6737
vt 0.9967 0.7126
vt 0.0528 0.3841
vt 0.0528 0.2864
vt 0.1931 0.2864
vt 0.1958 0.3861
vt 0.3335 0.3841
vt 0.3335 0.2864
vt 0.1931 0.4819
vt 0.0528 0.4819
vt 0.3335 0.4819
vt 0.0092 0.1325
vt 0.0092 0.0028
vt 0.1437 0.0028
vt 0.1415 0.1345
vt 0.2782 0.1325
vt 0.2782 0.0028
vt 0.1437 0.2623
vt 0.0092 0.2623
vt 0.2782 0.2623
vt 0.8283 0.0056
vt 0.8258 0.1565
vt 0.6713 0.1543
vt 0.6713 0.0056
vt 0.9854 0.0056
vt 0.9854 0.1543
vt 0.8283 0.303
vt 0.6713 0.303
vt 0.9854 0.303
vt 0.4643 0.6874
vt 0.4911 0.8784
vt 0.3013 0.8437
vt 0.3013 0.6874
vt 0.6272 0.6874
vt 0.6272 0.8437
vt 0.4643 1.0001
vt 0.3013 1.0001
vt 0.6272 1.0001
vt 0.3291 0.1485
vt 0.3291 0.01
vt 0.4753 0.0129
vt 0.4658 0.1505
vt 0.6098 0.1485
vt 0.6098 0.01
vt 0.4753 0.2914
vt 0.3291 0.2885
vt 0.6098 0.2885
vt 0.2874 0.7256
vt 0.266 0.762
vt 0.2282 0.6266
vt 0.2426 0.6224
vt 0.357 0.8235
vt 0.3384 0.8477
vt 0.4436 0.9349
vt 0.2578 0.7582
vt 0.2619 0.6934
vt 0.3752 0.8447
vt 0.3635 0.8798
vt 0.4566 0.9342
vt 0.4529 0.9693
vt 0.499 0.9637
vt 0.4911 0.9814
vt 0.5414 0.9932
vt 0.528 1.0028
vt 0.3388 0.8023
vt 0.3133 0.8156
vt 0.2354 0.6245
vt 0.4671 0.9391
vt 0.4615 0.9632
vt 0.2724 0.6912
vt 0.2514 0.6956
vt 0.3023 0.76
vt 0.5347 0.998
vt 0.3873 0.9002
vt 0.3944 0.8697
vt 0.3887 0.8898
vt 0.9539 0.7448
vt 0.8973 0.5916
vt 1.0016 0.6895
vt 0.9656 0.8968
vt 0.9053 0.4659
vt 0.9546 0.5209
vt 0.821 0.4139
vt 0.9707 0.4208
vt 0.7868 0.4714
vn -0.2538 0.7558 -0.6037
vn 0.2353 0.9018 -0.3624
vn 0.2751 0.8879 -0.3686
vn -0.2342 0.7401 -0.6304
vn -0.2787 0.7741 -0.5683
vn 0.2691 0.91 -0.3155
vn 0.6782 0.7347 0.0122
vn 0.6745 0.7383 0.0041
vn 0.6825 0.7305 0.022
vn 0.0703 0.9614 -0.2662
vn -0.404 0.8711 -0.2792
vn -0.4124 0.9108 -0.0186
vn 0.0606 0.9974 -0.0384
vn 0.0493 0.9824 0.1802
vn -0.392 0.886 0.2476
vn 0.5556 0.8109 -0.1839
vn 0.544 0.8367 -0.0632
vn 0.5242 0.8493 0.0618
vn -0.0703 0.918 -0.3903
vn 0.0052 0.9739 -0.2271
vn 0.4154 0.8977 -0.1468
vn 0.4471 0.8129 -0.3732
vn 0.8049 0.5128 -0.2986
vn 0.7917 0.6105 -0.0224
vn 0.3474 0.7107 -0.6117
vn -0.1437 0.8293 -0.54
vn 0.7605 0.3917 -0.5179
vn -0.2446 0.9633 -0.111
vn -0.3943 0.919 0.0038
vn -0.3296 0.8416 0.4279
vn -0.0806 0.9119 0.4025
vn 0.0932 0.6399 0.7628
vn -0.1892 0.578 0.7938
vn 0.1454 0.9586 0.2447
vn -0.0873 0.9714 -0.2207
vn 0.3535 0.6485 0.6742
vn 0.07 0.9973 0.0234
vn 0.1913 0.9773 0.091
vn -0.2872 0.9103 0.2983
vn -0.3664 0.8961 0.2505
vn -0.4716 0.8634 0.1794
vn 0.0947 0.9907 -0.0978
vn 0.549 0.8124 -0.1965
vn 0.6012 0.7883 -0.1314
vn 0.4797 0.8336 -0.2739
vn -0.4079 0.6895 0.5985
vn 0.0314 0.9396 0.3408
vn 0.0393 0.9529 0.3008
vn -0.4323 0.6991 0.5695
vn -0.3792 0.6771 0.6307
vn 0.0882 0.9407 0.3276
vn 0.4829 0.8737 -0.0586
vn 0.4749 0.8784 -0.0545
vn 0.4917 0.8685 -0.0635
vn 0.0435 0.9913 -0.1243
vn 0.3115 0.9265 0.2112
vn 0.4312 0.8419 0.3244
vn 0.1122 0.9895 -0.0915
vn 0.2035 0.9785 -0.0323
vn 0.5219 0.747 0.4119
vn -0.2382 0.8454 -0.478
vn -0.2537 0.8516 -0.4588
vn -0.2207 0.8381 -0.4989
vn -0.1732 0.9798 0.0995
vn -0.1142 0.9523 0.2831
vn 0.3074 0.8776 0.3679
vn 0.3653 0.9233 0.1187
vn 0.7598 0.6431 0.0956
vn 0.6989 0.6059 0.38
vn 0.2902 0.9447 -0.1524
vn -0.2253 0.9705 -0.0859
vn 0.7578 0.6277 -0.1779
vn -0.9192 0.3662 0.1446
vn -0.9297 0.2972 0.2177
vn -0.7532 0.6233 0.2101
vn -0.634 0.764 0.1197
vn -0.9299 0.2151 0.2983
vn -0.7628 0.5854 0.2747
vn -0.3567 0.9251 0.1305
vn -0.3148 0.9457 0.0813
vn -0.4046 0.8949 0.1884
vn 0.1185 0.9663 -0.2285
vn -0.3298 0.9115 -0.2459
vn -0.3261 0.9451 0.0205
vn 0.1015 0.9948 -0.007
vn 0.1331 0.9689 0.2086
vn -0.2984 0.9099 0.288
vn 0.5325 0.8459 -0.0303
vn 0.5407 0.8249 -0.1647
vn 0.5158 0.8513 0.0965
vn -0.1752 0.9152 0.363
vn -0.0458 0.6933 0.7192
vn 0.1963 0.7383 0.6452
vn 0.0353 0.9504 0.3091
vn 0.225 0.9516 0.2093
vn 0.4302 0.7339 0.5256
vn -0.1378 0.9853 -0.1007
vn -0.2722 0.9596 -0.0714
vn -0.009 0.9918 -0.1272
vn -0.1727 0.9799 0.0996
vn -0.1137 0.9523 0.2832
vn 0.3077 0.8774 0.368
vn 0.3658 0.9231 0.1187
vn 0.7601 0.6427 0.0956
vn 0.6993 0.6055 0.38
vn 0.2907 0.9446 -0.1524
vn -0.2247 0.9706 -0.0859
vn 0.7581 0.6274 -0.1779
vn -0.2822 0.9324 -0.2258
vn -0.6635 0.7096 -0.237
vn -0.6727 0.7397 0.0197
vn -0.3016 0.9534 -0.0082
vn -0.2712 0.9405 0.2049
vn -0.6361 0.7197 0.2781
vn 0.1426 0.9893 -0.0312
vn 0.16 0.9724 -0.1696
vn 0.1245 0.9872 0.0992
vn 0.0312 0.9913 0.1279
vn -0.3763 0.9265 -0.0077
vn -0.5383 0.8419 -0.0375
vn -0.0444 0.9895 0.1378
vn -0.1531 0.9785 0.1378
vn -0.662 0.747 -0.0615
vn 0.46 0.8454 0.2714
vn 0.4625 0.8516 0.2468
vn 0.4568 0.8381 0.2983
vn 0.0509 0.9982 0.0315
vn 0.2529 0.9651 0.068
vn 0.2497 0.7897 -0.5604
vn 0.1342 0.8538 -0.5031
vn -0.0596 0.7925 0.607
vn 0.1975 0.7799 0.594
vn 0.4713 0.8786 -0.0776
vn 0.3517 0.7157 -0.6034
vn 0.4241 0.7218 0.547
vn 0.1781 0.9792 0.0973
vn 0.1592 0.9277 0.3376
vn 0.3976 0.8131 0.4251
vn 0.4716 0.8535 0.2216
vn 0.6901 0.6548 0.3081
vn 0.6085 0.6321 0.4797
vn 0.4846 0.8746 -0.0162
vn 0.1863 0.9729 -0.1369
vn 0.7477 0.6534 0.1182
vn 0.1028 0.7844 0.6117
vn 0.075 0.9231 0.3772
vn -0.3072 0.8983 0.3142
vn -0.2143 0.805 0.5532
vn 0.4185 0.6774 0.6049
vn 0.4126 0.8185 0.3998
vn -0.0257 0.9942 0.1044
vn -0.3781 0.9246 0.0465
vn 0.3779 0.9131 0.1533
vn 0.147 0.8666 -0.4769
vn -0.2951 0.8146 -0.4993
vn -0.3057 0.9168 -0.257
vn 0.1197 0.9543 -0.2738
vn 0.1413 0.9879 -0.0638
vn -0.2946 0.9556 0.0098
vn 0.546 0.8019 -0.2423
vn 0.556 0.7485 -0.3613
vn 0.5274 0.8409 -0.1219
vn 0.1695 0.9849 -0.0337
vn 0.196 0.9804 -0.0182
vn 0.5757 0.8088 -0.1203
vn 0.5681 0.8095 -0.1484
vn 0.1584 0.9873 0.0081
vn 0.5845 0.8069 -0.0848
vn -0.2446 0.9661 0.0825
vn -0.2516 0.964 0.0864
vn -0.2596 0.9614 0.0912
vn -0.2822 0.9324 -0.2258
vn -0.6636 0.7096 -0.237
vn -0.6727 0.7397 0.0197
vn -0.3017 0.9534 -0.0082
vn -0.2711 0.9405 0.2049
vn -0.6361 0.7197 0.2781
vn 0.1431 0.9892 -0.031
vn 0.16 0.9724 -0.1696
vn 0.1245 0.9872 0.0992
vn -0.0035 0.916 0.4011
vn 0.2844 0.9567 0.0618
vn 0.0645 0.9936 -0.0925
vn -0.1695 0.9517 0.2561
vn -0.3577 0.9219 0.1492
vn -0.1623 0.9567 -0.2415
vn -0.3885 0.7201 0.575
vn -0.2866 0.697 0.6573
vn -0.4782 0.7301 0.4881
vn -0.2822 0.9324 -0.2258
vn -0.6635 0.7096 -0.237
vn -0.6727 0.7397 0.0197
vn -0.3017 0.9534 -0.0082
vn -0.2711 0.9405 0.2049
vn -0.6361 0.7197 0.2781
vn 0.1426 0.9893 -0.0312
vn 0.16 0.9725 -0.1696
vn 0.1245 0.9872 0.0992
vn -0.5496 0.8348 0.0313
vn -0.0003 0.9992 0.0412
vn 0.0296 0.9995 0.0107
vn -0.5492 0.8356 -0.0081
vn -0.5489 0.8322 0.0785
vn 0.0566 0.9963 0.0654
vn 0.5838 0.8114 0.0281
vn 0.576 0.8171 0.0251
vn 0.5922 0.8052 0.0309
vn 0.3671 0.9196 -0.14
vn 0.4995 0.8662 -0.0116
vn 0.7836 0.6088 -0.1238
vn 0.6999 0.6195 -0.3554
vn 0.8462 0.2229 -0.484
vn 0.95 0.2181 -0.2234
vn 0.5086 0.6752 -0.5342
vn 0.2229 0.9391 -0.2617
vn 0.6886 0.2112 -0.6937
vn 0.5096 0.8435 0.1699
vn 0.5757 0.8138 0.0797
vn 0.1486 0.9847 0.0907
vn -0.0703 0.9812 0.1796
vn 0.6383 0.7695 -0.0189
vn 0.1993 0.9799 0.0116
vn -0.4527 0.8861 0.0994
vn -0.5073 0.8497 0.1436
vn -0.3814 0.9233 0.0441
vn 0.1796 0.9226 -0.3413
vn 0.2837 0.9589 0.0009
vn 0.4788 0.8725 0.0975
vn 0.3136 0.9318 -0.1828
vn 0.0226 0.8663 -0.499
vn 0.1234 0.9834 -0.133
vn 0.4749 0.8013 0.3638
vn 0.5968 0.7048 0.3835
vn 0.2132 0.9291 0.3021
vn -0.1727 0.9833 -0.0567
vn -0.1311 0.9836 0.1236
vn -0.0777 0.9767 0.2
vn -0.1364 0.9901 -0.0333
vn -0.2167 0.9725 -0.0852
vn -0.1623 0.9811 0.1049
vn -0.0552 0.9322 0.3578
vn -0.0253 0.9226 0.3849
vn -0.0893 0.9412 0.3258
vn 0.7062 0.7078 0.0167
vn 0.6456 0.7581 -0.0918
vn 0.9299 0.3595 -0.078
vn 0.9484 0.3171 -0.008
vn 0.9628 0.2551 0.0896
vn 0.6591 0.7438 0.1111
vn 0.2625 0.9649 0.0003
vn 0.2334 0.9687 -0.0847
vn 0.295 0.9498 0.1039
vn -0.3433 0.8694 0.3554
vn -0.3802 0.9212 0.0829
vn -0.7123 0.7017 0.018
vn -0.6279 0.7258 0.281
vn 0.0091 0.9197 0.3926
vn -0.0387 0.9908 0.1293
vn -0.4736 0.8536 -0.2172
vn -0.7417 0.6246 -0.2444
vn -0.0842 0.985 -0.1504
vn 0.7657 0.6423 -0.0336
vn 0.5946 0.7939 -0.1273
vn 0.4706 0.832 0.2936
vn 0.6138 0.71 0.3451
vn 0.7172 0.5543 0.4223
vn 0.8869 0.4583 0.0589
vn 0.255 0.7092 0.6573
vn 0.3577 0.6331 0.6865
vn 0.4425 0.5583 0.7018
vn -0.3318 0.8934 -0.3027
vn -0.4895 0.6215 -0.6117
vn -0.6807 0.5828 -0.4438
vn -0.4959 0.8492 -0.1816
vn -0.6245 0.7806 -0.0249
vn -0.8223 0.5091 -0.2542
vn -0.2257 0.9646 0.1361
vn -0.1136 0.9918 0.0591
vn -0.3273 0.9222 0.2059
vn 0.0695 0.9913 -0.1116
vn -0.4065 0.903 -0.1389
vn -0.4117 0.9026 0.126
vn 0.0611 0.9913 0.1168
vn 0.05 0.9421 0.3315
vn -0.3884 0.8384 0.3824
vn 0.5572 0.8287 -0.0536
vn 0.5438 0.8362 0.0715
vn 0.5221 0.8301 0.1958
vn -0.2646 0.9642 0.0172
vn -0.2009 0.9425 0.267
vn 0.0604 0.9604 0.2721
vn 0.0493 0.9973 0.0537
vn 0.3373 0.9381 0.0793
vn 0.3304 0.9082 0.2569
vn 0.001 0.9838 -0.1793
vn -0.3097 0.9227 -0.2294
vn 0.3326 0.9372 -0.1052
vn 0.5375 0.6427 -0.5459
vn 0.6466 0.6234 -0.4396
vn 0.2038 0.8667 -0.4552
vn 0.1326 0.8493 -0.511
vn 0.0311 0.8123 -0.5825
vn 0.5496 0.5704 -0.6105
vn 0.8717 0.2752 -0.4054
vn 0.8983 0.2837 -0.3354
vn 0.8265 0.2607 -0.4989
vn 0.0975 0.7733 -0.6265
vn 0.1393 0.9369 -0.3206
vn 0.1562 0.9384 -0.3083
vn 0.1185 0.77 -0.627
vn 0.0711 0.7769 -0.6256
vn 0.1315 0.9494 -0.2853
vn 0.1713 0.9841 0.0476
vn 0.1728 0.9842 0.0395
vn 0.1694 0.9839 0.0575
vn -0.0718 0.997 -0.0298
vn 0.4656 0.8841 -0.041
vn 0.4932 0.8669 -0.0725
vn -0.0731 0.9949 -0.07
vn -0.0703 0.9973 0.0192
vn 0.5146 0.8573 -0.0175
vn 0.883 0.4668 -0.0491
vn 0.8788 0.4743 -0.052
vn 0.8875 0.4585 -0.0459
vn -0.4465 0.8941 -0.0338
vn -0.2724 0.8844 0.379
vn -0.0429 0.9633 0.2651
vn -0.2471 0.9629 -0.1086
vn -0.0659 0.9716 -0.2272
vn 0.1932 0.9725 0.13
vn -0.416 0.7704 -0.4831
vn -0.5304 0.7286 -0.4333
vn -0.2984 0.7981 -0.5234
vn 0.2288 0.8336 -0.5027
vn 0.2566 0.5356 -0.8045
vn 0.007 0.5577 -0.83
vn 0.0175 0.8463 -0.5325
vn -0.1918 0.837 -0.5124
vn -0.2456 0.544 -0.8024
vn 0.0202 0.9914 -0.1292
vn 0.1581 0.9821 -0.102
vn -0.1091 0.9824 -0.1515
vn 0.4912 0.8662 0.0915
vn 0.7707 0.5788 0.2663
vn 0.8416 0.5395 0.0233
vn 0.5636 0.8203 -0.0972
vn 0.5869 0.7529 -0.2977
vn 0.8578 0.4683 -0.2118
vn 0.1781 0.9586 -0.2222
vn 0.1252 0.9873 -0.0973
vn 0.2245 0.9149 -0.3354
vn 0.1988 0.8891 -0.4124
vn -0.037 0.8824 -0.4691
vn -0.1978 0.9497 -0.2428
vn -0.0086 0.9915 -0.1297
vn -0.1848 0.9738 0.1326
vn -0.3524 0.9356 0.0229
vn 0.2314 0.9703 -0.0704
vn 0.4118 0.8471 -0.3358
vn -0.0052 0.971 0.2389
vn -0.1732 0.9798 0.0995
vn -0.1142 0.9523 0.2831
vn 0.3075 0.8776 0.3678
vn 0.3653 0.9233 0.1187
vn 0.7598 0.6431 0.0956
vn 0.6989 0.6059 0.38
vn 0.2902 0.9448 -0.1524
vn -0.2253 0.9705 -0.0859
vn 0.7578 0.6277 -0.1779
vn 0.0844 0.9799 0.1806
vn 0.2724 0.9523 0.1376
vn 0.3929 0.8774 -0.2752
vn 0.1496 0.9231 -0.3543
vn 0.1604 0.6427 -0.7491
vn 0.4386 0.6055 -0.6641
vn -0.1269 0.9446 -0.3027
vn -0.1049 0.9706 0.2165
vn -0.1122 0.6274 -0.7706
vn -0.0456 0.9826 -0.18
vn 0.1616 0.9816 0.1018
vn 0.1449 0.9767 0.1583
vn -0.0687 0.9933 -0.0928
vn 0.1196 0.9634 0.2399
vn -0.1447 0.9851 -0.0927
vn -0.2758 0.8825 -0.3809
vn -0.2408 0.8691 -0.432
vn -0.316 0.8938 -0.3181
vn 0.6651 0.6755 0.3183
vn 0.5314 0.8431 0.0822
vn 0.4056 0.9118 -0.0647
vn 0.4996 0.8283 0.2535
vn 0.2441 0.9431 -0.2257
vn 0.3605 0.9215 0.1442
vn 0.6415 0.5467 0.5381
vn 0.7314 0.4373 0.5233
vn 0.4259 0.7295 0.5351
vn 0.7066 0.4324 0.5601
vn 0.7426 0.5967 0.3041
vn 0.7202 0.6809 0.133
vn 0.6512 0.6129 0.4474
vn 0.661 0.747 -0.0707
vn 0.6146 0.7271 0.306
vn 0.5629 0.3468 0.7502
vn 0.6001 0.2212 0.7687
vn 0.4582 0.5805 0.6731
vn 0.7066 0.4325 0.5601
vn 0.7426 0.5967 0.3041
vn 0.7202 0.6809 0.133
vn 0.6512 0.6129 0.4474
vn 0.661 0.747 -0.0707
vn 0.6146 0.7271 0.306
vn 0.5629 0.3468 0.7502
vn 0.6001 0.2212 0.7687
vn 0.4582 0.5805 0.6731
vn 0.6651 0.6755 0.3183
vn 0.5314 0.8431 0.0822
vn 0.4056 0.9118 -0.0647
vn 0.4995 0.8283 0.2536
vn 0.2442 0.9431 -0.2258
vn 0.3605 0.9215 0.1442
vn 0.6416 0.5467 0.5381
vn 0.7315 0.4371 0.5234
vn 0.4259 0.7295 0.5351
vn 0.3757 0.7633 0.5256
vn 0.3333 0.9115 0.2408
vn 0.2724 0.961 0.0472
vn 0.2335 0.8923 0.3864
vn 0.1904 0.9668 -0.1701
vn 0.1397 0.9655 0.2197
vn 0.2746 0.6305 0.726
vn 0.3784 0.53 0.7589
vn 0.0567 0.785 0.6169
vn -0.619 0.5321 0.5776
vn -0.4145 0.7942 0.4443
vn -0.4973 0.8188 0.2868
vn -0.7381 0.5461 0.3963
vn -0.4546 0.4878 0.7452
vn -0.28 0.7948 0.5384
vn -0.1363 0.9667 0.2167
vn -0.1812 0.9743 0.1341
vn -0.0942 0.952 0.2911
vn -0.5491 0.5731 -0.6083
vn -0.6841 0.5201 -0.5113
vn -0.7523 0.648 -0.1189
vn -0.5642 0.8146 -0.1342
vn -0.4377 0.8384 0.3249
vn -0.6693 0.6549 0.3508
vn -0.3418 0.9045 -0.2553
vn -0.3884 0.6099 -0.6907
vn -0.1904 0.9421 0.2762
vn 0.0543 0.9985 0.0071
vn 0.1294 0.9905 0.0462
vn 0.3578 0.9296 -0.0884
vn 0.3068 0.9261 -0.2195
vn 0.6032 0.7588 -0.2457
vn 0.4689 0.7784 -0.4173
vn 0.1657 0.9394 -0.3
vn -0.0211 0.9993 -0.0317
vn 0.3408 0.7664 -0.5446
vn -0.1573 0.9798 0.1231
vn -0.0729 0.9522 0.2965
vn 0.3565 0.8776 0.3205
vn 0.3785 0.9233 0.0656
vn 0.7657 0.6431 -0.0132
vn 0.7458 0.6059 0.277
vn 0.2656 0.9448 -0.192
vn -0.2352 0.9705 -0.0531
vn 0.7249 0.6277 -0.2836
vn 0.3538 0.9046 -0.2376
vn 0.2031 0.8685 -0.4521
vn -0.1524 0.9306 -0.3327
vn 0.0538 0.9857 -0.1594
vn 0.6322 0.7166 -0.2945
vn 0.4951 0.6984 -0.5168
vn -0.0257 0.7774 -0.6285
vn -0.3477 0.8046 -0.4814
vn 0.3304 0.6352 -0.6982
vn 0.0405 0.9864 -0.1593
vn -0.0356 0.9837 -0.1765
vn 0.1002 0.9843 -0.1455
vn 0.1002 0.9843 -0.1455
vn 0.0295 0.9973 -0.0679
vn 0.0179 0.9966 -0.0804
vn 0.1422 0.9883 0.0551
vn 0.1217 0.9805 -0.1544
vn 0.1217 0.9805 -0.1544
vn 0.0658 0.9978 0.0095
vn 0.0535 0.9976 0.0446
vn -0.1239 0.9905 0.0597
vn -0.1222 0.9906 0.0619
vn -0.2533 0.9583 -0.132
vn -0.2554 0.9569 -0.1384
vn -0.268 0.9468 -0.1781
vn -0.2682 0.9468 -0.1779
vn -0.1408 0.9898 -0.023
vn -0.1686 0.9839 -0.0588
vn -0.2286 0.9638 -0.1376
vn -0.2286 0.9637 -0.1376
vn -0.0066 0.9979 0.0642
vn -0.0065 0.9983 0.0571
vn -0.0341 0.9946 0.0983
vn -0.0443 0.995 0.0891
vn -0.0059 1.0 -0.0053
vn -0.0057 1.0 -0.0054
vn 0.2977 0.3903 0.8713
vn 0.201 0.6479 0.7347
vn 0.1617 0.7253 0.6692
vn 0.2977 0.3903 0.8713
vn -0.2659 0.8888 0.3732
vn -0.3419 0.8745 0.344
vn -0.1977 0.8346 0.5142
vn -0.2735 0.8389 0.4706
vn -0.0605 0.931 0.3601
vn 0.0664 0.8565 0.5119
vn 0.1117 0.8198 0.5616
vn 0.1765 0.9693 -0.171
vn 0.1765 0.9693 -0.171
vn 0.2783 0.954 -0.1111
vn 0.2894 0.9515 -0.1044
vn -0.0397 0.9982 0.0456
vn -0.0428 0.9967 0.0684
vn 0.1132 0.9925 -0.0472
vn 0.2653 0.9629 -0.0499
vn -0.0567 0.9834 0.1726
vn 0.1252 0.9444 -0.3041
vn 0.3346 0.9407 -0.0558
vn 0.2424 0.9475 -0.2084
vn 0.002 0.9321 -0.3621
vn 0.3337 0.8495 0.4087
vn 0.1986 0.9779 0.065
vn 0.5097 0.8601 0.0215
vn 0.0792 0.7397 0.6683
vn 0.4721 0.8495 -0.2355
vtan 0.4702 -0.449 -0.7598 1.0
vtan 0.4749 -0.432 -0.7667 1.0
vtan 0.4756 -0.4589 -0.7505 1.0
vtan 0.4826 -0.4744 -0.7363 1.0
vtan 0.4866 -0.3964 -0.7785 1.0
vtan 0.4887 -0.4113 -0.7694 1.0
vtan 0.4676 -0.4187 -0.7784 1.0
vtan 0.4821 -0.4362 -0.7598 1.0
vtan 0.4716 -0.4172 -0.7769 1.0
vtan 0.23 -0.2753 -0.9334 1.0
vtan 0.2087 -0.2094 -0.9553 1.0
vtan 0.0435 -0.0007 -0.9991 1.0
vtan 0.0221 -0.0398 -0.999 1.0
vtan -0.153 0.1857 -0.9706 1.0
vtan -0.1445 0.2065 -0.9677 1.0
vtan 0.2285 -0.3616 -0.9039 1.0
vtan 0.0042 -0.078 -0.9969 1.0
vtan -0.2081 0.1982 -0.9578 1.0
vtan -0.9872 -0.008 0.1591 1.0
vtan -0.9903 0.0365 0.134 1.0
vtan -0.9096 0.4087 -0.0752 1.0
vtan -0.8868 0.4574 -0.0662 1.0
vtan -0.5857 0.7672 -0.2613 1.0
vtan -0.5804 0.7403 -0.3392 1.0
vtan -0.9092 0.4149 -0.0343 1.0
vtan -0.9872 -0.0822 0.1366 1.0
vtan -0.5507 0.8116 -0.1948 1.0
vtan -0.3229 -0.1889 -0.9274 1.0
vtan -0.3321 -0.1387 -0.933 1.0
vtan -0.3153 0.3291 -0.8901 1.0
vtan -0.3452 0.3532 -0.8695 1.0
vtan -0.2672 0.7541 -0.5999 1.0
vtan -0.1824 0.7736 -0.6068 1.0
vtan -0.3578 0.2815 -0.8903 1.0
vtan -0.2876 -0.2367 -0.928 1.0
vtan -0.3344 0.7607 -0.5564 1.0
vtan -0.3351 0.0456 -0.9411 1.0
vtan -0.3123 0.1485 -0.9383 1.0
vtan -0.3614 0.1854 -0.9138 1.0
vtan -0.323 0.13 -0.9374 1.0
vtan -0.3147 0.0252 -0.9488 1.0
vtan -0.3366 -0.0606 -0.9397 1.0
vtan -0.3147 -0.0168 -0.949 1.0
vtan -0.3454 0.1079 -0.9322 1.0
vtan -0.3388 -0.112 -0.9342 1.0
vtan -0.6209 0.2711 -0.7355 1.0
vtan -0.6167 0.2865 -0.7332 1.0
vtan -0.6133 0.2606 -0.7456 1.0
vtan -0.6027 0.2458 -0.7592 1.0
vtan -0.6145 0.3254 -0.7187 1.0
vtan -0.6175 0.3097 -0.7231 1.0
vtan -0.6198 0.2938 -0.7277 1.0
vtan -0.6118 0.285 -0.7379 1.0
vtan -0.6448 0.3141 -0.6968 1.0
vtan -0.8708 0.0986 0.4816 1.0
vtan -0.9185 0.2365 0.317 1.0
vtan -0.8609 0.2762 0.4272 1.0
vtan -0.8562 0.143 0.4965 1.0
vtan -0.8739 0.1964 0.4446 1.0
vtan -0.8514 0.4259 0.3062 1.0
vtan -0.8516 0.0548 0.5213 1.0
vtan -0.8391 0.0423 0.5424 1.0
vtan -0.875 0.0558 0.4808 1.0
vtan -0.9843 -0.1758 0.0179 1.0
vtan -0.992 -0.1248 0.0197 1.0
vtan -0.9413 0.3372 -0.0177 1.0
vtan -0.9304 0.3663 0.0148 1.0
vtan -0.6459 0.7634 -0.0021 1.0
vtan -0.6258 0.7753 -0.0851 1.0
vtan -0.9544 0.2973 0.0254 1.0
vtan -0.9737 -0.2274 -0.0156 1.0
vtan -0.6254 0.7766 0.0759 1.0
vtan -0.111 0.1115 -0.9876 1.0
vtan -0.2207 0.0239 -0.9751 1.0
vtan -0.1667 0.1281 -0.9777 1.0
vtan 0.0717 0.2122 -0.9746 1.0
vtan -0.2678 0.1598 -0.9501 1.0
vtan -0.2519 0.1222 -0.96 1.0
vtan 0.0247 0.1489 -0.9885 1.0
vtan 0.3098 0.1833 -0.933 1.0
vtan -0.2081 0.1105 -0.9719 1.0
vtan -0.0216 -0.2275 -0.9735 1.0
vtan -0.0528 -0.2779 -0.9591 1.0
vtan -0.0479 0.0051 -0.9988 1.0
vtan -0.0539 -0.0016 -0.9985 1.0
vtan -0.0859 0.221 -0.9715 1.0
vtan -0.0322 0.292 -0.9559 1.0
vtan -0.0616 0.0031 -0.9981 1.0
vtan -0.0535 -0.1616 -0.9854 1.0
vtan -0.0687 0.1534 -0.9858 1.0
vtan -0.9214 -0.2824 0.2671 1.0
vtan -0.8989 -0.3426 0.2731 1.0
vtan -0.9236 -0.0816 0.3745 1.0
vtan -0.9215 -0.0887 0.3781 1.0
vtan -0.8758 0.1033 0.4715 1.0
vtan -0.875 0.1958 0.4428 1.0
vtan -0.9181 -0.0889 0.3863 1.0
vtan -0.918 -0.2368 0.3181 1.0
vtan -0.8954 0.0486 0.4425 1.0
vtan -0.9844 -0.1753 0.0179 1.0
vtan -0.992 -0.1243 0.0197 1.0
vtan -0.9411 0.3375 -0.0178 1.0
vtan -0.9302 0.3668 0.0148 1.0
vtan -0.6455 0.7638 -0.0021 1.0
vtan -0.6254 0.7756 -0.0851 1.0
vtan -0.9543 0.2978 0.0254 1.0
vtan -0.9738 -0.2269 -0.0156 1.0
vtan -0.6251 0.7769 0.0759 1.0
vtan 0.0549 -0.2193 -0.9741 1.0
vtan 0.0414 -0.2814 -0.9587 1.0
vtan -0.046 -0.0152 -0.9988 1.0
vtan -0.0489 -0.024 -0.9985 1.0
vtan -0.1525 0.1682 -0.9739 1.0
vtan -0.1255 0.259 -0.9577 1.0
vtan -0.0587 -0.023 -0.998 1.0
vtan 0.0055 -0.1727 -0.985 1.0
vtan -0.1189 0.1141 -0.9863 1.0
vtan 0.4684 0.0985 -0.878 1.0
vtan 0.598 0.2365 -0.7658 1.0
vtan 0.4897 0.2762 -0.827 1.0
vtan 0.448 0.143 -0.8825 1.0
vtan 0.4912 0.1964 -0.8486 1.0
vtan 0.5475 0.4259 -0.7203 1.0
vtan 0.4307 0.0548 -0.9008 1.0
vtan 0.4088 0.0422 -0.9117 1.0
vtan 0.4723 0.0557 -0.8797 1.0
vtan 0.0112 0.031 -0.9995 1.0
vtan 0.0046 0.0691 -0.9976 1.0
vtan -0.1483 -0.5407 -0.828 1.0
vtan -0.1464 -0.485 -0.8622 1.0
vtan 0.2053 0.6048 -0.7694 1.0
vtan 0.143 0.5765 -0.8045 1.0
vtan -0.0324 -0.0707 -0.997 1.0
vtan -0.1065 -0.6098 -0.7853 1.0
vtan 0.0899 0.5674 -0.8185 1.0
vtan -0.9252 0.2003 -0.3222 1.0
vtan -0.9034 0.2748 -0.3291 1.0
vtan -0.8003 0.534 -0.2727 1.0
vtan -0.8192 0.5171 -0.2481 1.0
vtan -0.6359 0.7519 -0.1739 1.0
vtan -0.6031 0.7613 -0.2381 1.0
vtan -0.8498 0.4662 -0.246 1.0
vtan -0.9458 0.1398 -0.2931 1.0
vtan -0.6364 0.756 -0.1532 1.0
vtan -0.9937 0.1081 0.0285 1.0
vtan -0.9972 0.0681 0.0315 1.0
vtan -0.9516 -0.2867 -0.1108 1.0
vtan -0.9767 -0.1728 -0.1269 1.0
vtan -0.8968 0.4134 0.1575 1.0
vtan -0.9104 0.385 0.1513 1.0
vtan -0.9996 -0.0263 0.0046 1.0
vtan -0.9221 -0.3716 -0.1083 1.0
vtan -0.9248 0.3645 0.1087 1.0
vtan 0.0154 -0.4841 -0.8749 1.0
vtan -0.0156 -0.5266 -0.85 1.0
vtan -0.0052 -0.2715 -0.9624 1.0
vtan -0.0131 -0.2742 -0.9616 1.0
vtan -0.0415 -0.0584 -0.9974 1.0
vtan 0.013 0.0142 -0.9998 1.0
vtan -0.0191 -0.2772 -0.9606 1.0
vtan -0.014 -0.4263 -0.9045 1.0
vtan -0.0244 -0.1284 -0.9914 1.0
vtan 0.2326 -0.0067 0.9725 -1.0
vtan 0.22 -0.0259 0.9752 -1.0
vtan 0.2228 -0.0136 0.9748 -1.0
vtan 0.2476 0.0039 0.9689 -1.0
vtan 0.2264 -0.0442 0.973 -1.0
vtan 0.2181 -0.0556 0.9743 -1.0
vtan 0.2284 -0.0253 0.9732 -1.0
vtan 0.2084 -0.0333 0.9775 -1.0
vtan 0.2104 -0.0358 0.977 -1.0
vtan 0.0548 -0.2193 -0.9741 1.0
vtan 0.0414 -0.2814 -0.9587 1.0
vtan -0.046 -0.0152 -0.9988 1.0
vtan -0.0489 -0.024 -0.9985 1.0
vtan -0.1525 0.1682 -0.9739 1.0
vtan -0.1255 0.2591 -0.9577 1.0
vtan -0.0586 -0.0228 -0.998 1.0
vtan 0.0055 -0.1727 -0.985 1.0
vtan -0.1189 0.1141 -0.9863 1.0
vtan 0.8072 -0.2342 0.5418 1.0
vtan 0.8188 -0.2759 0.5034 1.0
vtan 0.8211 -0.0001 0.5707 1.0
vtan 0.8253 -0.005 0.5647 1.0
vtan 0.8015 0.221 0.5557 1.0
vtan 0.7518 0.2784 0.5977 1.0
vtan 0.8289 0.0006 0.5593 1.0
vtan 0.8299 -0.1621 0.5338 1.0
vtan 0.8088 0.1495 0.5688 1.0
vtan 0.0548 -0.2193 -0.9741 1.0
vtan 0.0414 -0.2814 -0.9587 1.0
vtan -0.046 -0.0152 -0.9988 1.0
vtan -0.0489 -0.024 -0.9985 1.0
vtan -0.1525 0.1682 -0.9739 1.0
vtan -0.1255 0.2591 -0.9577 1.0
vtan -0.0587 -0.023 -0.998 1.0
vtan 0.0055 -0.1727 -0.985 1.0
vtan -0.1189 0.1141 -0.9863 1.0
vtan -0.0204 0.024 -0.9995 1.0
vtan -0.016 0.0412 -0.999 1.0
vtan -0.0103 0.011 -0.9999 1.0
vtan 0.0038 -0.0072 -1.0 1.0
vtan -0.0168 0.083 -0.9964 1.0
vtan -0.0197 0.0666 -0.9976 1.0
vtan -0.021 0.0498 -0.9985 1.0
vtan -0.0098 0.0375 -0.9992 1.0
vtan -0.0565 0.0797 -0.9952 1.0
vtan -0.7454 0.3809 0.5471 1.0
vtan -0.728 0.427 0.5364 1.0
vtan -0.5358 0.7631 0.3613 1.0
vtan -0.5026 0.7808 0.3711 1.0
vtan -0.1841 0.9747 0.127 1.0
vtan -0.2118 0.9759 0.052 1.0
vtan -0.5424 0.7331 0.4102 1.0
vtan -0.7796 0.3329 0.5305 1.0
vtan -0.1237 0.9768 0.1747 1.0
vtan -0.0859 -0.1466 0.9855 1.0
vtan 0.0279 -0.117 0.9927 1.0
vtan -0.0687 -0.0812 0.9943 1.0
vtan -0.2884 -0.1923 0.938 1.0
vtan -0.0149 0.0369 0.9992 1.0
vtan -0.0052 -0.0108 0.9999 1.0
vtan -0.2293 -0.2235 0.9474 1.0
vtan -0.466 -0.4107 0.7837 1.0
vtan -0.0274 -0.059 0.9979 1.0
vtan 0.9833 -0.1789 0.0336 1.0
vtan 0.9589 -0.2837 0.0051 1.0
vtan 0.8727 -0.4851 0.0554 1.0
vtan 0.9495 -0.3078 0.0604 1.0
vtan 0.9968 -0.0579 -0.0554 1.0
vtan 0.9825 -0.1399 -0.1229 1.0
vtan 0.8451 -0.5306 0.0655 1.0
vtan 0.7536 -0.6564 0.0336 1.0
vtan 0.977 -0.2031 -0.0647 1.0
vtan 0.9627 0.1563 -0.2208 1.0
vtan 0.9822 0.1458 -0.1184 1.0
vtan 0.9855 0.1055 -0.1325 1.0
vtan 0.8746 0.1046 -0.4734 1.0
vtan 0.9606 0.1968 -0.1965 1.0
vtan 0.9584 0.182 -0.2198 1.0
vtan 0.9904 0.0966 -0.0988 1.0
vtan 0.9991 0.0361 -0.0207 1.0
vtan 0.9627 0.1654 -0.214 1.0
vtan -0.0832 0.0595 0.9948 1.0
vtan -0.0237 0.14 0.9899 1.0
vtan 0.0315 0.1335 0.9905 1.0
vtan -0.0341 0.127 0.9913 1.0
vtan -0.1093 0.0641 0.9919 1.0
vtan -0.1601 -0.0055 0.9871 1.0
vtan -0.1308 0.0352 0.9908 1.0
vtan -0.0386 0.0963 0.9946 1.0
vtan -0.1772 -0.0525 0.9828 1.0
vtan -0.93 -0.3675 0.0006 1.0
vtan -0.9236 -0.3828 0.0182 1.0
vtan -0.7018 -0.7116 -0.0317 1.0
vtan -0.7677 -0.6369 -0.0705 1.0
vtan -0.9988 -0.0108 0.0486 1.0
vtan -0.9978 -0.0454 0.0491 1.0
vtan -0.8755 -0.483 0.0108 1.0
vtan -0.6415 -0.767 -0.0132 1.0
vtan -0.9964 -0.0848 0.0027 1.0
vtan 0.6144 -0.7151 0.3335 -1.0
vtan 0.764 -0.5085 0.3971 -1.0
vtan 0.7572 -0.5517 0.3497 -1.0
vtan 0.6206 -0.7042 0.345 -1.0
vtan 0.4618 -0.8319 0.3076 -1.0
vtan 0.4323 -0.8681 0.244 -1.0
vtan 0.7297 -0.5872 0.3504 -1.0
vtan 0.5943 -0.7213 0.3556 -1.0
vtan 0.5105 -0.8002 0.3147 -1.0
vtan 0.7898 0.0876 -0.6071 1.0
vtan 0.7906 0.0202 -0.6121 1.0
vtan 0.677 0.2691 -0.685 1.0
vtan 0.6841 0.2533 -0.684 1.0
vtan 0.5415 0.4098 -0.734 1.0
vtan 0.5204 0.4921 -0.6978 1.0
vtan 0.6743 0.2555 -0.6928 1.0
vtan 0.7522 0.1247 -0.647 1.0
vtan 0.5846 0.3688 -0.7226 1.0
vtan 0.2316 -0.1248 -0.9648 1.0
vtan 0.2097 -0.0557 -0.9762 1.0
vtan 0.0433 0.1575 -0.9866 1.0
vtan 0.0254 0.1155 -0.993 1.0
vtan -0.1517 0.3353 -0.9298 1.0
vtan -0.1434 0.3549 -0.9238 1.0
vtan 0.2305 -0.2164 -0.9487 1.0
vtan 0.0035 0.0829 -0.9966 1.0
vtan -0.206 0.3455 -0.9155 1.0
vtan -0.9641 -0.264 -0.0278 1.0
vtan -0.9794 -0.1996 -0.0322 1.0
vtan -0.9981 0.0623 0.0014 1.0
vtan -0.9987 0.0486 0.0142 1.0
vtan -0.9411 0.334 0.0522 1.0
vtan -0.9416 0.3359 0.0238 1.0
vtan -0.9998 0.0047 0.0199 1.0
vtan -0.9459 -0.3235 -0.0242 1.0
vtan -0.9381 0.3402 0.0651 1.0
vtan -0.1755 -0.548 -0.8179 1.0
vtan -0.1113 -0.493 -0.8629 1.0
vtan -0.1437 -0.4334 -0.8897 1.0
vtan -0.1403 -0.4942 -0.8579 1.0
vtan -0.1634 -0.5708 -0.8047 1.0
vtan -0.2174 -0.6079 -0.7637 1.0
vtan -0.1802 -0.5894 -0.7875 1.0
vtan -0.1593 -0.5011 -0.8506 1.0
vtan -0.2406 -0.6377 -0.7318 1.0
vtan 0.981 -0.1808 -0.0704 1.0
vtan 0.9827 -0.1706 -0.0718 1.0
vtan 0.981 -0.1838 -0.0626 1.0
vtan 0.9804 -0.1908 -0.049 1.0
vtan 0.9866 -0.147 -0.0704 1.0
vtan 0.9856 -0.156 -0.0647 1.0
vtan 0.9828 -0.1672 -0.0788 1.0
vtan 0.9833 -0.17 -0.0655 1.0
vtan 0.9832 -0.1647 -0.0789 1.0
vtan -0.0591 -0.034 -0.9977 1.0
vtan -0.0481 -0.0209 -0.9986 1.0
vtan -0.0562 -0.0514 -0.9971 1.0
vtan -0.0505 -0.0738 -0.996 1.0
vtan -0.0321 0.017 -0.9993 1.0
vtan -0.0421 0.0049 -0.9991 1.0
vtan -0.0501 -0.0102 -0.9987 1.0
vtan -0.0445 -0.027 -0.9986 1.0
vtan -0.0692 0.0341 -0.997 1.0
vtan -0.815 -0.3908 0.4279 1.0
vtan -0.7813 -0.4332 0.4493 1.0
vtan -0.8716 -0.1658 0.4613 1.0
vtan -0.8674 -0.1699 0.4677 1.0
vtan -0.8733 0.054 0.4841 1.0
vtan -0.8952 0.1205 0.429 1.0
vtan -0.8643 -0.1698 0.4734 1.0
vtan -0.825 -0.3262 0.4614 1.0
vtan -0.8803 -0.0183 0.474 1.0
vtan 0.9731 -0.1815 0.142 1.0
vtan 0.9588 -0.2461 0.142 1.0
vtan 0.9999 -0.0105 0.0014 1.0
vtan 0.9998 -0.0201 0.0009 1.0
vtan 0.9802 0.1377 -0.142 1.0
vtan 0.9627 0.2334 -0.1365 1.0
vtan 0.9997 -0.0216 -0.0095 1.0
vtan 0.985 -0.1496 0.0861 1.0
vtan 0.9904 0.0944 -0.1012 1.0
vtan -0.3446 0.0968 0.9338 1.0
vtan -0.346 0.0293 0.9378 1.0
vtan -0.199 0.2698 0.9421 1.0
vtan -0.2066 0.254 0.9449 1.0
vtan -0.0519 0.402 0.9142 1.0
vtan -0.0491 0.4849 0.8732 1.0
vtan -0.1937 0.2556 0.9472 1.0
vtan -0.2903 0.1303 0.948 1.0
vtan -0.0957 0.3632 0.9268 1.0
vtan 0.481 -0.4551 -0.7493 1.0
vtan 0.5086 -0.3874 -0.7689 1.0
vtan 0.5282 -0.1054 -0.8426 1.0
vtan 0.498 -0.1082 -0.8604 1.0
vtan 0.477 0.2069 -0.8542 1.0
vtan 0.5363 0.2219 -0.8143 1.0
vtan 0.4856 -0.178 -0.8559 1.0
vtan 0.4384 -0.5073 -0.7419 1.0
vtan 0.4614 0.2143 -0.8609 1.0
vtan -0.9843 -0.1758 0.0179 1.0
vtan -0.992 -0.1248 0.0197 1.0
vtan -0.9413 0.3372 -0.0177 1.0
vtan -0.9304 0.3663 0.0148 1.0
vtan -0.6459 0.7634 -0.0021 1.0
vtan -0.6258 0.7753 -0.0851 1.0
vtan -0.9544 0.2973 0.0254 1.0
vtan -0.9737 -0.2274 -0.0156 1.0
vtan -0.6254 0.7766 0.0759 1.0
vtan -0.0666 -0.1753 0.9823 1.0
vtan -0.0654 -0.1243 0.9901 1.0
vtan -0.0984 0.3377 0.9361 1.0
vtan -0.065 0.3667 0.928 1.0
vtan -0.0575 0.7637 0.643 1.0
vtan -0.1384 0.7756 0.6158 1.0
vtan -0.0565 0.2978 0.9529 1.0
vtan -0.0991 -0.2269 0.9689 1.0
vtan 0.022 0.7769 0.6293 1.0
vtan -0.8445 0.0583 0.5324 1.0
vtan -0.8385 0.0822 0.5387 1.0
vtan -0.8449 0.0389 0.5335 1.0
vtan -0.853 -0.0103 0.5218 1.0
vtan -0.8599 -0.0202 0.51 1.0
vtan -0.8476 -0.075 0.5253 1.0
vtan -0.8506 -0.0395 0.5243 1.0
vtan -0.8511 0.0249 0.5245 1.0
vtan -0.834 -0.1019 0.5423 1.0
vtan 0.7341 -0.6696 -0.113 1.0
vtan 0.8465 -0.5247 -0.0902 1.0
vtan 0.9096 -0.4096 -0.0698 1.0
vtan 0.8658 -0.4866 -0.1163 1.0
vtan 0.9522 -0.2772 -0.1283 1.0
vtan 0.9207 -0.3268 -0.2132 1.0
vtan 0.6971 -0.7082 -0.1117 1.0
vtan 0.5902 -0.7903 -0.1646 1.0
vtan 0.8999 -0.4026 -0.1674 1.0
vtan 0.4283 -0.8914 0.1479 1.0
vtan 0.5542 -0.8024 0.2213 1.0
vtan 0.6375 -0.7251 0.2602 1.0
vtan 0.5953 -0.7783 0.1997 1.0
vtan 0.7396 -0.6328 0.2291 1.0
vtan 0.7256 -0.6732 0.1421 1.0
vtan 0.3846 -0.9133 0.1337 1.0
vtan 0.2942 -0.9547 0.045 1.0
vtan 0.6706 -0.7228 0.167 1.0
vtan 0.4283 -0.8914 0.1479 1.0
vtan 0.5541 -0.8024 0.2214 1.0
vtan 0.6375 -0.7251 0.2602 1.0
vtan 0.5953 -0.7783 0.1996 1.0
vtan 0.7396 -0.6328 0.2291 1.0
vtan 0.7256 -0.6732 0.1421 1.0
vtan 0.3846 -0.9133 0.1337 1.0
vtan 0.2943 -0.9547 0.045 1.0
vtan 0.6706 -0.7228 0.167 1.0
vtan 0.7341 -0.6696 -0.113 1.0
vtan 0.8465 -0.5248 -0.0902 1.0
vtan 0.9096 -0.4096 -0.0699 1.0
vtan 0.8659 -0.4866 -0.1162 1.0
vtan 0.9522 -0.2772 -0.1282 1.0
vtan 0.9207 -0.3268 -0.2132 1.0
vtan 0.6971 -0.7082 -0.1117 1.0
vtan 0.5901 -0.7904 -0.1646 1.0
vtan 0.8999 -0.4026 -0.1674 1.0
vtan 0.7891 -0.5609 0.2505 1.0
vtan 0.8636 -0.3977 0.31 1.0
vtan 0.8974 -0.2714 0.3478 1.0
vtan 0.8868 -0.3584 0.2919 1.0
vtan 0.9435 -0.1323 0.3039 1.0
vtan 0.9581 -0.1878 0.2163 1.0
vtan 0.7594 -0.6054 0.2385 1.0
vtan 0.6921 -0.7064 0.1483 1.0
vtan 0.9291 -0.2676 0.2552 1.0
vtan -0.6365 0.091 -0.7659 1.0
vtan -0.6507 0.0827 -0.7548 1.0
vtan -0.507 -0.006 -0.8619 1.0
vtan -0.4909 -0.0317 -0.8706 1.0
vtan -0.7834 0.1792 -0.5952 1.0
vtan -0.7675 0.1515 -0.6228 1.0
vtan -0.6555 0.076 -0.7513 1.0
vtan -0.5655 0.0084 -0.8247 1.0
vtan -0.7237 0.1353 -0.6767 1.0
vtan 0.0733 -0.692 -0.7181 1.0
vtan 0.0528 -0.6639 -0.7459 1.0
vtan -0.0965 -0.2868 -0.9531 1.0
vtan -0.1542 -0.2636 -0.9522 1.0
vtan -0.3108 0.1979 -0.9296 1.0
vtan -0.2316 0.2648 -0.9361 1.0
vtan -0.1427 -0.3184 -0.9372 1.0
vtan 0.1113 -0.713 -0.6922 1.0
vtan -0.3829 0.1878 -0.9045 1.0
vtan -0.6717 0.0313 0.7401 1.0
vtan -0.6807 0.0549 0.7305 1.0
vtan -0.6817 0.3247 0.6556 1.0
vtan -0.6349 0.3709 0.6777 1.0
vtan -0.5848 0.6303 0.5107 1.0
vtan -0.5266 0.6257 0.5755 1.0
vtan -0.6104 0.3366 0.717 1.0
vtan -0.6877 0.0085 0.7259 1.0
vtan -0.4311 0.6421 0.6339 1.0
vtan -0.9718 -0.1758 0.1574 1.0
vtan -0.9791 -0.1249 0.1603 1.0
vtan -0.9343 0.3372 0.116 1.0
vtan -0.9189 0.3663 0.1467 1.0
vtan -0.6396 0.7634 0.0896 1.0
vtan -0.6315 0.7753 0.0046 1.0
vtan -0.9412 0.2973 0.1606 1.0
vtan -0.966 -0.2274 0.1227 1.0
vtan -0.6084 0.7766 0.1639 1.0
vtan -0.8284 0.421 0.3694 1.0
vtan -0.8265 0.3997 0.3964 1.0
vtan -0.8655 0.0368 0.4996 1.0
vtan -0.8872 0.1204 0.4453 1.0
vtan -0.6847 0.6947 0.2206 1.0
vtan -0.6963 0.6747 0.2447 1.0
vtan -0.8443 0.3198 0.43 1.0
vtan -0.843 -0.0434 0.5362 1.0
vtan -0.7382 0.6348 0.2282 1.0
vtan -0.1317 0.1633 0.9777 1.0
vtan -0.1612 0.1686 0.9724 1.0
vtan 0.2603 0.1152 0.9586 1.0
vtan 0.3442 0.1029 0.9332 1.0
vtan 0.0017 0.0679 0.9977 1.0
vtan 0.0221 0.08 0.9966 1.0
vtan 0.0738 -0.0661 0.9951 1.0
vtan 0.3487 -0.1878 -0.9182 1.0
vtan 0.3631 -0.1887 -0.9125 1.0
vtan 0.1571 -0.001 -0.9876 1.0
vtan 0.1354 0.037 -0.9901 1.0
vtan 0.1706 0.0806 -0.982 1.0
vtan 0.1638 0.0816 -0.9831 1.0
vtan 0.1172 -0.1051 -0.9875 1.0
vtan 0.0607 -0.127 -0.99 1.0
vtan -0.2118 -0.2382 -0.9478 1.0
vtan -0.2328 -0.2429 -0.9417 1.0
vtan -0.8621 -0.134 -0.4888 1.0
vtan -0.859 -0.176 -0.4809 1.0
vtan -0.8066 -0.2666 -0.5275 1.0
vtan -0.8044 -0.2666 -0.5309 1.0
vtan -0.3264 0.0586 -0.9434 1.0
vtan -0.3001 0.0525 -0.9525 1.0
vtan -0.7755 0.0357 -0.6304 1.0
vtan -0.8198 0.0147 -0.5725 1.0
vtan 0.3443 -0.0029 -0.9389 1.0
vtan 0.2842 -0.0036 -0.9587 1.0
vtan 0.5042 0.7107 -0.4906 1.0
vtan 0.6086 0.5052 -0.6119 1.0
vtan 0.6828 0.4074 -0.6065 1.0
vtan 0.4741 0.7317 -0.4897 1.0
vtan 0.2159 0.4323 -0.8755 1.0
vtan 0.2169 0.4296 -0.8766 1.0
vtan 0.0692 0.5351 -0.8419 1.0
vtan -0.0098 0.4868 -0.8735 1.0
vtan 0.1383 0.3651 -0.9206 1.0
vtan 0.1442 0.4994 -0.8543 1.0
vtan 0.1475 0.5452 -0.8252 1.0
vtan -0.3103 0.2196 0.9249 -1.0
vtan -0.3201 0.2208 0.9213 -1.0
vtan -0.2495 0.1835 0.9508 -1.0
vtan -0.1611 0.1559 0.9746 -1.0
vtan 0.8112 0.0056 0.5847 -1.0
vtan 0.9116 0.011 0.411 -1.0
vtan 0.2998 0.0112 0.9539 -1.0
vtan 0.1275 0.0162 0.9917 -1.0
vtan 0.9357 -0.0079 0.3527 -1.0
vtan -0.2642 -0.2637 -0.9277 1.0
vtan -0.3597 0.0727 -0.9303 1.0
vtan -0.1914 -0.1639 -0.9677 1.0
vtan -0.3672 -0.3362 -0.8673 1.0
vtan -0.4628 0.5253 -0.714 1.0
vtan -0.5574 0.1672 -0.8132 1.0
vtan -0.4344 0.2788 -0.8565 1.0
vtan -0.6748 0.5332 -0.5103 1.0
vtan -0.5363 0.0648 -0.8415 1.0
f 0/0/0/0 1/1/1/1 2/2/2/2 
f 0/0/0/0 2/2/2/2 3/3/3/3 
f 1/1/1/1 0/0/0/0 4/4/4/4 
f 1/1/1/1 4/4/4/4 5/5/5/5 
f 2/2/2/2 1/1/1/1 6/6/6/6 
f 2/2/2/2 6/6/6/6 7/7/7/7 
f 1/1/1/1 5/5/5/5 8/8/8/8 
f 1/1/1/1 8/8/8/8 6/6/6/6 
f 9/9/9/9 10/10/10/10 11/11/11/11 
f 9/9/9/9 11/11/11/11 12/12/12/12 
f 13/13/13/13 12/12/12/12 11/11/11/11 
f 13/13/13/13 11/11/11/11 14/14/14/14 
f 15/15/15/15 9/9/9/9 12/12/12/12 
f 15/15/15/15 12/12/12/12 16/16/16/16 
f 17/17/17/17 16/16/16/16 12/12/12/12 
f 17/17/17/17 12/12/12/12 13/13/13/13 
f 18/18/18/18 19/19/19/19 20/20/20/20 
f 18/18/18/18 20/20/20/20 21/21/21/21 
f 22/22/22/22 21/21/21/21 20/20/20/20 
f 22/22/22/22 20/20/20/20 23/23/23/23 
f 24/24/24/24 25/25/25/25 18/18/18/18 
f 24/24/24/24 18/18/18/18 21/21/21/21 
f 24/24/24/24 21/21/21/21 22/22/22/22 
f 24/24/24/24 22/22/22/22 26/26/26/26 
f 27/18/27/27 28/19/28/28 29/20/29/29 
f 27/18/27/27 29/20/29/29 30/21/30/30 
f 31/22/31/31 30/21/30/30 29/20/29/29 
f 31/22/31/31 29/20/29/29 32/23/32/32 
f 33/24/33/33 34/25/34/34 27/18/27/27 
f 33/24/33/33 27/18/27/27 30/21/30/30 
f 33/24/33/33 30/21/30/30 31/22/31/31 
f 33/24/33/33 31/22/31/31 35/26/35/35 
f 36/27/36/36 37/28/37/37 38/29/38/38 
f 36/27/36/36 38/29/38/38 39/30/39/39 
f 36/27/36/36 39/30/39/39 40/31/40/40 
f 36/27/36/36 40/31/40/40 41/32/41/41 
f 42/33/42/42 43/34/43/43 37/28/37/37 
f 42/33/42/42 37/28/37/37 36/27/36/36 
f 44/35/44/44 42/33/42/42 36/27/36/36 
f 44/35/44/44 36/27/36/36 41/32/41/41 
f 45/0/45/45 46/1/46/46 47/2/47/47 
f 45/0/45/45 47/2/47/47 48/3/48/48 
f 49/4/49/49 50/5/50/50 46/1/46/46 
f 49/4/49/49 46/1/46/46 45/0/45/45 
f 47/2/47/47 46/1/46/46 51/6/51/51 
f 47/2/47/47 51/6/51/51 52/7/52/52 
f 50/5/50/50 53/8/53/53 51/6/51/51 
f 50/5/50/50 51/6/51/51 46/1/46/46 
f 54/36/54/54 55/37/55/55 56/38/56/56 
f 54/36/54/54 56/38/56/56 57/39/57/57 
f 58/40/58/58 57/39/57/57 56/38/56/56 
f 58/40/58/58 56/38/56/56 59/41/59/59 
f 60/42/60/60 61/43/61/61 54/36/54/54 
f 60/42/60/60 54/36/54/54 57/39/57/57 
f 62/44/62/62 60/42/60/60 57/39/57/57 
f 62/44/62/62 57/39/57/57 58/40/58/58 
f 63/18/63/63 64/19/64/64 65/20/65/65 
f 63/18/63/63 65/20/65/65 66/21/66/66 
f 67/22/67/67 66/21/66/66 65/20/65/65 
f 67/22/67/67 65/20/65/65 68/23/68/68 
f 69/24/69/69 70/25/70/70 63/18/63/63 
f 69/24/69/69 63/18/63/63 66/21/66/66 
f 69/24/69/69 66/21/66/66 67/22/67/67 
f 69/24/69/69 67/22/67/67 71/26/71/71 
f 72/45/72/72 73/46/73/73 74/47/74/74 
f 72/45/72/72 74/47/74/74 75/48/75/75 
f 73/46/73/73 76/49/76/76 77/50/77/77 
f 73/46/73/73 77/50/77/77 74/47/74/74 
f 75/48/75/75 74/47/74/74 78/51/78/78 
f 75/48/75/75 78/51/78/78 79/52/79/79 
f 74/47/74/74 77/50/77/77 80/53/80/80 
f 74/47/74/74 80/53/80/80 78/51/78/78 
f 81/54/81/81 82/55/82/82 83/56/83/83 
f 81/54/81/81 83/56/83/83 84/57/84/84 
f 85/58/85/85 84/57/84/84 83/56/83/83 
f 85/58/85/85 83/56/83/83 86/59/86/86 
f 87/60/87/87 88/61/88/88 81/54/81/81 
f 87/60/87/87 81/54/81/81 84/57/84/84 
f 87/60/87/87 84/57/84/84 85/58/85/85 
f 87/60/87/87 85/58/85/85 89/62/89/89 
f 90/54/90/90 91/55/91/91 92/56/92/92 
f 90/54/90/90 92/56/92/92 93/57/93/93 
f 94/58/94/94 93/57/93/93 92/56/92/92 
f 94/58/94/94 92/56/92/92 95/59/95/95 
f 96/60/96/96 97/61/97/97 90/54/90/90 
f 96/60/96/96 90/54/90/90 93/57/93/93 
f 96/60/96/96 93/57/93/93 94/58/94/94 
f 96/60/96/96 94/58/94/94 98/62/98/98 
f 99/18/99/99 100/19/100/100 101/20/101/101 
f 99/18/99/99 101/20/101/101 102/21/102/102 
f 103/22/103/103 102/21/102/102 101/20/101/101 
f 103/22/103/103 101/20/101/101 104/23/104/104 
f 105/24/105/105 106/25/106/106 99/18/99/99 
f 105/24/105/105 99/18/99/99 102/21/102/102 
f 105/24/105/105 102/21/102/102 103/22/103/103 
f 105/24/105/105 103/22/103/103 107/26/107/107 
f 108/54/108/108 109/55/109/109 110/56/110/110 
f 108/54/108/108 110/56/110/110 111/57/111/111 
f 112/58/112/112 111/57/111/111 110/56/110/110 
f 112/58/112/112 110/56/110/110 113/59/113/113 
f 114/60/114/114 115/61/115/115 108/54/108/108 
f 114/60/114/114 108/54/108/108 111/57/111/111 
f 114/60/114/114 111/57/111/111 112/58/112/112 
f 114/60/114/114 112/58/112/112 116/62/116/116 
f 117/36/117/117 118/37/118/118 119/38/119/119 
f 117/36/117/117 119/38/119/119 120/39/120/120 
f 121/40/121/121 120/39/120/120 119/38/119/119 
f 121/40/121/121 119/38/119/119 122/41/122/122 
f 123/42/123/123 124/43/124/124 117/36/117/117 
f 123/42/123/123 117/36/117/117 120/39/120/120 
f 125/44/125/125 123/42/123/123 120/39/120/120 
f 125/44/125/125 120/39/120/120 121/40/121/121 
f 126/0/126/126 127/1/127/127 128/2/128/128 
f 126/0/126/126 128/2/128/128 129/3/129/129 
f 126/0/126/126 130/4/130/130 131/5/131/131 
f 126/0/126/126 131/5/131/131 127/1/127/127 
f 128/2/128/128 127/1/127/127 132/6/132/132 
f 128/2/128/128 132/6/132/132 133/7/133/133 
f 131/5/131/131 134/8/134/134 132/6/132/132 
f 131/5/131/131 132/6/132/132 127/1/127/127 
f 135/63/135/135 136/64/136/136 137/65/137/137 
f 135/63/135/135 137/65/137/137 138/66/138/138 
f 139/67/139/139 138/66/138/138 137/65/137/137 
f 139/67/139/139 137/65/137/137 140/68/140/140 
f 141/69/141/141 142/70/142/142 135/63/135/135 
f 141/69/141/141 135/63/135/135 138/66/138/138 
f 141/69/141/141 138/66/138/138 139/67/139/139 
f 141/69/141/141 139/67/139/139 143/71/143/143 
f 144/72/144/144 145/73/145/145 146/74/146/146 
f 144/72/144/144 146/74/146/146 147/75/147/147 
f 144/72/144/144 148/76/148/148 149/77/149/149 
f 144/72/144/144 149/77/149/149 145/73/145/145 
f 146/74/146/146 145/73/145/145 150/78/150/150 
f 146/74/146/146 150/78/150/150 151/79/151/151 
f 149/77/149/149 152/80/152/152 150/78/150/150 
f 149/77/149/149 150/78/150/150 145/73/145/145 
f 153/54/153/153 154/55/154/154 155/56/155/155 
f 153/54/153/153 155/56/155/155 156/57/156/156 
f 157/58/157/157 156/57/156/156 155/56/155/155 
f 157/58/157/157 155/56/155/155 158/59/158/158 
f 159/60/159/159 160/61/160/160 153/54/153/153 
f 159/60/159/159 153/54/153/153 156/57/156/156 
f 159/60/159/159 156/57/156/156 157/58/157/157 
f 159/60/159/159 157/58/157/157 161/62/161/161 
f 162/2/162/162 163/1/163/163 164/0/164/164 
f 162/2/162/162 164/0/164/164 165/3/165/165 
f 163/1/163/163 166/5/166/166 167/4/167/167 
f 163/1/163/163 167/4/167/167 164/0/164/164 
f 162/2/162/162 168/7/168/168 169/6/169/169 
f 162/2/162/162 169/6/169/169 163/1/163/163 
f 163/1/163/163 169/6/169/169 170/8/170/170 
f 163/1/163/163 170/8/170/170 166/5/166/166 
f 171/54/171/171 172/55/172/172 173/56/173/173 
f 171/54/171/171 173/56/173/173 174/57/174/174 
f 175/58/175/175 174/57/174/174 173/56/173/173 
f 175/58/175/175 173/56/173/173 176/59/176/176 
f 177/60/177/177 178/61/178/178 171/54/171/171 
f 177/60/177/177 171/54/171/171 174/57/174/174 
f 177/60/177/177 174/57/174/174 175/58/175/175 
f 177/60/177/177 175/58/175/175 179/62/179/179 
f 180/54/180/180 181/55/181/181 182/56/182/182 
f 180/54/180/180 182/56/182/182 183/57/183/183 
f 184/58/184/184 183/57/183/183 182/56/182/182 
f 184/58/184/184 182/56/182/182 185/59/185/185 
f 186/60/186/186 187/61/187/187 180/54/180/180 
f 186/60/186/186 180/54/180/180 183/57/183/183 
f 186/60/186/186 183/57/183/183 184/58/184/184 
f 186/60/186/186 184/58/184/184 188/62/188/188 
f 189/54/189/189 190/55/190/190 191/56/191/191 
f 189/54/189/189 191/56/191/191 192/57/192/192 
f 193/58/193/193 192/57/192/192 191/56/191/191 
f 193/58/193/193 191/56/191/191 194/59/194/194 
f 195/60/195/195 196/61/196/196 189/54/189/189 
f 195/60/195/195 189/54/189/189 192/57/192/192 
f 195/60/195/195 192/57/192/192 193/58/193/193 
f 195/60/195/195 193/58/193/193 197/62/197/197 
f 198/0/198/198 199/1/199/199 200/2/200/200 
f 198/0/198/198 200/2/200/200 201/3/201/201 
f 202/4/202/202 203/5/203/203 199/1/199/199 
f 202/4/202/202 199/1/199/199 198/0/198/198 
f 200/2/200/200 199/1/199/199 204/6/204/204 
f 200/2/200/200 204/6/204/204 205/7/205/205 
f 203/5/203/203 206/8/206/206 204/6/204/204 
f 203/5/203/203 204/6/204/204 199/1/199/199 
f 207/18/207/207 208/19/208/208 209/20/209/209 
f 207/18/207/207 209/20/209/209 210/21/210/210 
f 211/22/211/211 210/21/210/210 209/20/209/209 
f 211/22/211/211 209/20/209/209 212/23/212/212 
f 213/24/213/213 214/25/214/214 207/18/207/207 
f 213/24/213/213 207/18/207/207 210/21/210/210 
f 213/24/213/213 210/21/210/210 211/22/211/211 
f 213/24/213/213 211/22/211/211 215/26/215/215 
f 216/45/216/216 217/46/217/217 218/47/218/218 
f 216/45/216/216 218/47/218/218 219/48/219/219 
f 217/46/217/217 220/49/220/220 221/50/221/221 
f 217/46/217/217 221/50/221/221 218/47/218/218 
f 219/48/219/219 218/47/218/218 222/51/222/222 
f 219/48/219/219 222/51/222/222 223/52/223/223 
f 218/47/218/218 221/50/221/221 224/53/224/224 
f 218/47/218/218 224/53/224/224 222/51/222/222 
f 225/81/225/225 226/82/226/226 227/83/227/227 
f 225/81/225/225 227/83/227/227 228/84/228/228 
f 229/85/229/229 230/86/230/230 226/82/226/226 
f 229/85/229/229 226/82/226/226 225/81/225/225 
f 227/83/227/227 226/82/226/226 231/87/231/231 
f 227/83/227/227 231/87/231/231 232/88/232/232 
f 226/82/226/226 230/86/230/230 233/89/233/233 
f 226/82/226/226 233/89/233/233 231/87/231/231 
f 234/46/234/234 235/47/235/235 236/48/236/236 
f 234/46/234/234 236/48/236/236 237/45/237/237 
f 234/46/234/234 238/49/238/238 239/50/239/239 
f 234/46/234/234 239/50/239/239 235/47/235/235 
f 236/48/236/236 235/47/235/235 240/51/240/240 
f 236/48/236/236 240/51/240/240 241/52/241/241 
f 235/47/235/235 239/50/239/239 242/53/242/242 
f 235/47/235/235 242/53/242/242 240/51/240/240 
f 243/27/243/243 244/28/244/244 245/29/245/245 
f 243/27/243/243 245/29/245/245 246/30/246/246 
f 243/27/243/243 246/30/246/246 247/31/247/247 
f 243/27/243/243 247/31/247/247 248/32/248/248 
f 249/33/249/249 250/34/250/250 244/28/244/244 
f 249/33/249/249 244/28/244/244 243/27/243/243 
f 251/35/251/251 249/33/249/249 243/27/243/243 
f 251/35/251/251 243/27/243/243 248/32/248/248 
f 252/72/252/252 253/73/253/253 254/74/254/254 
f 252/72/252/252 254/74/254/254 255/75/255/255 
f 252/72/252/252 256/76/256/256 257/77/257/257 
f 252/72/252/252 257/77/257/257 253/73/253/253 
f 254/74/254/254 253/73/253/253 258/78/258/258 
f 254/74/254/254 258/78/258/258 259/79/259/259 
f 257/77/257/257 260/80/260/260 258/78/258/258 
f 257/77/257/257 258/78/258/258 253/73/253/253 
f 261/56/261/261 262/55/262/262 263/54/263/263 
f 261/56/261/261 263/54/263/263 264/57/264/264 
f 265/58/265/265 266/59/266/266 261/56/261/261 
f 265/58/265/265 261/56/261/261 264/57/264/264 
f 264/57/264/264 263/54/263/263 267/61/267/267 
f 264/57/264/264 267/61/267/267 268/60/268/268 
f 265/58/265/265 264/57/264/264 268/60/268/268 
f 265/58/265/265 268/60/268/268 269/62/269/269 
f 270/54/270/270 271/55/271/271 272/56/272/272 
f 270/54/270/270 272/56/272/272 273/57/273/273 
f 274/58/274/274 273/57/273/273 272/56/272/272 
f 274/58/274/274 272/56/272/272 275/59/275/275 
f 276/60/276/276 277/61/277/277 270/54/270/270 
f 276/60/276/276 270/54/270/270 273/57/273/273 
f 276/60/276/276 273/57/273/273 274/58/274/274 
f 276/60/276/276 274/58/274/274 278/62/278/278 
f 279/9/279/279 280/10/280/280 281/11/281/281 
f 279/9/279/279 281/11/281/281 282/12/282/282 
f 283/13/283/283 282/12/282/282 281/11/281/281 
f 283/13/283/283 281/11/281/281 284/14/284/284 
f 285/15/285/285 279/9/279/279 282/12/282/282 
f 285/15/285/285 282/12/282/282 286/16/286/286 
f 287/17/287/287 286/16/286/286 282/12/282/282 
f 287/17/287/287 282/12/282/282 283/13/283/283 
f 288/90/288/288 289/91/289/289 290/92/290/290 
f 288/90/288/288 290/92/290/290 291/93/291/291 
f 292/94/292/292 291/93/291/291 290/92/290/290 
f 292/94/292/292 290/92/290/290 293/95/293/293 
f 294/96/294/294 295/97/295/295 288/90/288/288 
f 294/96/294/294 288/90/288/288 291/93/291/291 
f 294/96/294/294 291/93/291/291 292/94/292/292 
f 294/96/294/294 292/94/292/292 296/98/296/296 
f 297/27/297/297 298/28/298/298 299/29/299/299 
f 297/27/297/297 299/29/299/299 300/30/300/300 
f 297/27/297/297 300/30/300/300 301/31/301/301 
f 297/27/297/297 301/31/301/301 302/32/302/302 
f 303/33/303/303 304/34/304/304 298/28/298/298 
f 303/33/303/303 298/28/298/298 297/27/297/297 
f 305/35/305/305 303/33/303/303 297/27/297/297 
f 305/35/305/305 297/27/297/297 302/32/302/302 
f 306/0/306/306 307/1/307/307 308/2/308/308 
f 306/0/306/306 308/2/308/308 309/3/309/309 
f 310/4/310/310 311/5/311/311 307/1/307/307 
f 310/4/310/310 307/1/307/307 306/0/306/306 
f 308/2/308/308 307/1/307/307 312/6/312/312 
f 308/2/308/308 312/6/312/312 313/7/313/313 
f 307/1/307/307 311/5/311/311 314/8/314/314 
f 307/1/307/307 314/8/314/314 312/6/312/312 
f 315/0/315/315 316/1/316/316 317/2/317/317 
f 315/0/315/315 317/2/317/317 318/3/318/318 
f 319/4/319/319 320/5/320/320 316/1/316/316 
f 319/4/319/319 316/1/316/316 315/0/315/315 
f 317/2/317/317 316/1/316/316 321/6/321/321 
f 317/2/317/317 321/6/321/321 322/7/322/322 
f 320/5/320/320 323/8/323/323 321/6/321/321 
f 320/5/320/320 321/6/321/321 316/1/316/316 
f 324/54/324/324 325/55/325/325 326/56/326/326 
f 324/54/324/324 326/56/326/326 327/57/327/327 
f 328/58/328/328 327/57/327/327 326/56/326/326 
f 328/58/328/328 326/56/326/326 329/59/329/329 
f 330/60/330/330 331/61/331/331 324/54/324/324 
f 330/60/330/330 324/54/324/324 327/57/327/327 
f 330/60/330/330 327/57/327/327 328/58/328/328 
f 330/60/330/330 328/58/328/328 332/62/332/332 
f 333/54/333/333 334/55/334/334 335/56/335/335 
f 333/54/333/333 335/56/335/335 336/57/336/336 
f 337/58/337/337 336/57/336/336 335/56/335/335 
f 337/58/337/337 335/56/335/335 338/59/338/338 
f 339/60/339/339 340/61/340/340 333/54/333/333 
f 339/60/339/339 333/54/333/333 336/57/336/336 
f 339/60/339/339 336/57/336/336 337/58/337/337 
f 339/60/339/339 337/58/337/337 341/62/341/341 
f 342/54/342/342 343/55/343/343 344/56/344/344 
f 342/54/342/342 344/56/344/344 345/57/345/345 
f 346/58/346/346 345/57/345/345 344/56/344/344 
f 346/58/346/346 344/56/344/344 347/59/347/347 
f 348/60/348/348 349/61/349/349 342/54/342/342 
f 348/60/348/348 342/54/342/342 345/57/345/345 
f 348/60/348/348 345/57/345/345 346/58/346/346 
f 348/60/348/348 346/58/346/346 350/62/350/350 
f 351/63/351/351 352/64/352/352 353/65/353/353 
f 351/63/351/351 353/65/353/353 354/66/354/354 
f 355/67/355/355 354/66/354/354 353/65/353/353 
f 355/67/355/355 353/65/353/353 356/68/356/356 
f 357/69/357/357 358/70/358/358 351/63/351/351 
f 357/69/357/357 351/63/351/351 354/66/354/354 
f 357/69/357/357 354/66/354/354 355/67/355/355 
f 357/69/357/357 355/67/355/355 359/71/359/359 
f 360/18/360/360 361/19/361/361 362/20/362/362 
f 360/18/360/360 362/20/362/362 363/21/363/363 
f 364/22/364/364 363/21/363/363 362/20/362/362 
f 364/22/364/364 362/20/362/362 365/23/365/365 
f 366/24/366/366 367/25/367/367 360/18/360/360 
f 366/24/366/366 360/18/360/360 363/21/363/363 
f 366/24/366/366 363/21/363/363 364/22/364/364 
f 366/24/366/366 364/22/364/364 368/26/368/368 
f 369/18/369/369 370/19/370/370 371/20/371/371 
f 369/18/369/369 371/20/371/371 372/21/372/372 
f 373/22/373/373 372/21/372/372 371/20/371/371 
f 373/22/373/373 371/20/371/371 374/23/374/374 
f 375/24/375/375 376/25/376/376 369/18/369/369 
f 375/24/375/375 369/18/369/369 372/21/372/372 
f 375/24/375/375 372/21/372/372 373/22/373/373 
f 375/24/375/375 373/22/373/373 377/26/377/377 
f 378/28/378/378 379/29/379/379 380/30/380/380 
f 378/28/378/378 380/30/380/380 381/27/381/381 
f 381/27/381/381 380/30/380/380 382/31/382/382 
f 381/27/381/381 382/31/382/382 383/32/383/383 
f 384/33/384/384 385/34/385/385 378/28/378/378 
f 384/33/384/384 378/28/378/378 381/27/381/381 
f 386/35/386/386 384/33/384/384 381/27/381/381 
f 386/35/386/386 381/27/381/381 383/32/383/383 
f 387/83/387/387 388/84/388/388 389/81/389/389 
f 387/83/387/387 389/81/389/389 390/82/390/390 
f 390/82/390/390 389/81/389/389 391/85/391/391 
f 390/82/390/390 391/85/391/391 392/86/392/392 
f 387/83/387/387 390/82/390/390 393/87/393/393 
f 387/83/387/387 393/87/393/393 394/88/394/394 
f 390/82/390/390 392/86/392/392 395/89/395/395 
f 390/82/390/390 395/89/395/395 393/87/393/393 
f 396/83/396/396 397/84/397/397 398/81/398/398 
f 396/83/396/396 398/81/398/398 399/82/399/399 
f 399/82/399/399 398/81/398/398 400/85/400/400 
f 399/82/399/399 400/85/400/400 401/86/401/401 
f 396/83/396/396 399/82/399/399 402/87/402/402 
f 396/83/396/396 402/87/402/402 403/88/403/403 
f 399/82/399/399 401/86/401/401 404/89/404/404 
f 399/82/399/399 404/89/404/404 402/87/402/402 
f 405/83/405/405 406/84/406/406 407/81/407/407 
f 405/83/405/405 407/81/407/407 408/82/408/408 
f 408/82/408/408 407/81/407/407 409/85/409/409 
f 408/82/408/408 409/85/409/409 410/86/410/410 
f 405/83/405/405 408/82/408/408 411/87/411/411 
f 405/83/405/405 411/87/411/411 412/88/412/412 
f 408/82/408/408 410/86/410/410 413/89/413/413 
f 408/82/408/408 413/89/413/413 411/87/411/411 
f 414/83/414/414 415/84/415/415 416/81/416/416 
f 414/83/414/414 416/81/416/416 417/82/417/417 
f 417/82/417/417 416/81/416/416 418/85/418/418 
f 417/82/417/417 418/85/418/418 419/86/419/419 
f 414/83/414/414 417/82/417/417 420/87/420/420 
f 414/83/414/414 420/87/420/420 421/88/421/421 
f 417/82/417/417 419/86/419/419 422/89/422/422 
f 417/82/417/417 422/89/422/422 420/87/420/420 
f 423/83/423/423 424/84/424/424 425/81/425/425 
f 423/83/423/423 425/81/425/425 426/82/426/426 
f 426/82/426/426 425/81/425/425 427/85/427/427 
f 426/82/426/426 427/85/427/427 428/86/428/428 
f 423/83/423/423 426/82/426/426 429/87/429/429 
f 423/83/423/423 429/87/429/429 430/88/430/430 
f 426/82/426/426 428/86/428/428 431/89/431/431 
f 426/82/426/426 431/89/431/431 429/87/429/429 
f 432/56/432/432 433/57/433/433 434/54/434/434 
f 432/56/432/432 434/54/434/434 435/55/435/435 
f 436/59/436/436 437/58/437/437 433/57/433/433 
f 436/59/436/436 433/57/433/433 432/56/432/432 
f 434/54/434/434 433/57/433/433 438/60/438/438 
f 434/54/434/434 438/60/438/438 439/61/439/439 
f 437/58/437/437 440/62/440/440 438/60/438/438 
f 437/58/437/437 438/60/438/438 433/57/433/433 
f 441/18/441/441 442/19/442/442 443/20/443/443 
f 441/18/441/441 443/20/443/443 444/21/444/444 
f 445/22/445/445 444/21/444/444 443/20/443/443 
f 445/22/445/445 443/20/443/443 446/23/446/446 
f 447/24/447/447 448/25/448/448 441/18/441/441 
f 447/24/447/447 441/18/441/441 444/21/444/444 
f 447/24/447/447 444/21/444/444 445/22/445/445 
f 447/24/447/447 445/22/445/445 449/26/449/449 
f 450/18/450/450 451/19/451/451 452/20/452/452 
f 450/18/450/450 452/20/452/452 453/21/453/453 
f 453/21/453/453 452/20/452/452 454/23/454/454 
f 453/21/453/453 454/23/454/454 455/22/455/455 
f 456/24/456/456 457/25/457/457 450/18/450/450 
f 456/24/456/456 450/18/450/450 453/21/453/453 
f 456/24/456/456 453/21/453/453 455/22/455/455 
f 456/24/456/456 455/22/455/455 458/26/458/458 
f 459/18/459/459 460/19/460/460 461/20/461/461 
f 459/18/459/459 461/20/461/461 462/21/462/462 
f 463/22/463/463 462/21/462/462 461/20/461/461 
f 463/22/463/463 461/20/461/461 464/23/464/464 
f 465/24/465/465 466/25/466/466 459/18/459/459 
f 465/24/465/465 459/18/459/459 462/21/462/462 
f 465/24/465/465 462/21/462/462 463/22/463/463 
f 465/24/465/465 463/22/463/463 467/26/467/467 
f 468/72/468/468 469/73/469/469 470/74/470/470 
f 468/72/468/468 470/74/470/470 471/75/471/471 
f 468/72/468/468 472/76/472/472 473/77/473/473 
f 468/72/468/468 473/77/473/473 469/73/469/469 
f 470/74/470/470 469/73/469/469 474/78/474/474 
f 470/74/470/470 474/78/474/474 475/79/475/475 
f 473/77/473/473 476/80/476/476 474/78/474/474 
f 473/77/473/473 474/78/474/474 469/73/469/469 
f 477/99/477/477 478/100/478/478 479/101/479/479 
f 477/99/477/477 479/101/479/479 480/102/480/480 
f 478/100/478/478 477/99/477/477 481/103/481/481 
f 478/100/478/478 481/103/481/481 482/104/482/482 
f 481/103/481/481 483/105/483/483 482/104/482/482 
f 484/106/484/484 485/107/485/485 486/108/486/486 
f 484/106/484/484 486/108/486/486 487/109/487/487 
f 488/110/488/488 489/111/489/489 487/109/487/487 
f 488/110/488/488 487/109/487/487 486/108/486/486 
f 488/110/488/488 490/112/490/490 491/113/491/491 
f 488/110/488/488 491/113/491/491 489/111/489/489 
f 492/114/492/492 493/115/493/493 491/113/491/491 
f 492/114/492/492 491/113/491/491 490/112/490/490 
f 494/116/494/494 495/117/495/495 496/106/496/496 
f 494/116/494/494 496/106/496/496 497/118/497/497 
f 498/119/498/498 499/120/499/499 500/109/500/500 
f 498/119/498/498 500/109/500/500 501/108/501/501 
f 501/108/501/501 500/109/500/500 495/117/495/495 
f 501/108/501/501 495/117/495/495 494/116/494/494 
f 498/119/498/498 502/114/502/502 503/115/503/503 
f 498/119/498/498 503/115/503/503 499/120/499/499 
f 504/102/504/504 505/121/505/505 506/122/506/506 
f 504/102/504/504 506/122/506/506 507/101/507/507 
f 508/106/508/508 509/123/509/509 510/116/510/510 
f 508/106/508/508 510/116/510/510 511/117/511/511 
f 512/124/512/512 513/125/513/513 514/126/514/514 
f 510/116/510/510 514/126/514/514 513/125/513/513 
f 510/116/510/510 513/125/513/513 511/117/511/511 
f 505/121/505/505 509/123/509/509 508/106/508/508 
f 505/121/505/505 508/106/508/508 506/122/506/506 
f 515/102/515/515 516/101/516/516 517/122/517/517 
f 515/102/515/515 517/122/517/517 518/121/518/518 
f 519/117/519/519 520/116/520/520 521/123/521/521 
f 519/117/519/519 521/123/521/521 522/106/522/522 
f 520/116/520/520 519/117/519/519 523/127/523/523 
f 518/121/518/518 517/122/517/517 522/106/522/522 
f 518/121/518/518 522/106/522/522 521/123/521/521 
f 524/128/524/524 525/129/525/525 526/130/526/526 
f 526/130/526/526 527/131/527/527 524/128/524/524 
f 525/129/525/525 528/132/528/528 529/133/529/529 
f 525/129/525/525 530/134/530/530 528/132/528/528 
f 528/132/528/528 531/135/531/531 529/133/529/529 
f 525/129/525/525 529/133/529/529 526/130/526/526 
f 525/129/525/525 532/136/532/532 530/134/530/530 
