v -416.7576 927.3633 -247.1001
v -416.7577 990.7953 -247.1
v -416.7577 990.7953 -274.7776
v -416.7576 927.3633 -274.7776
v -388.7014 927.3633 -241.3098
v -388.7013 1014.4712 -241.3098
v -391.8121 1011.3604 -241.3098
v -391.8121 927.3633 -241.3098
v -388.7013 1014.4712 -274.7776
v -388.7014 927.3633 -274.7776
v -396.5619 927.3633 -247.1001
v -396.5619 1006.6105 -247.1
v -435.2793 1006.6105 -247.1
v -435.2793 990.7953 -247.1
v -435.2793 1011.3603 -241.3098
v -435.2793 990.7953 -274.7776
v -435.2793 1014.4712 -241.3098
v -435.2793 1014.4712 -274.7776
v -453.8008 990.7953 -274.7776
v -453.8008 990.7953 -247.1
v -453.801 927.3633 -247.1001
v -453.801 927.3633 -274.7776
v -475.9199 1011.3604 -241.3098
v -479.0308 1014.4712 -241.3098
v -479.0308 927.3633 -241.3098
v -475.9199 927.3633 -241.3098
v -479.0308 1014.4712 -274.7776
v -479.0308 927.3633 -274.7776
v -471.1702 1006.6105 -247.1
v -471.1702 927.3633 -247.1001
gi 0 0 0 0
gi 0 0 0 0
gi 0 0 0 0
gi 0 0 0 0
gi 0 0 0 0
gi 0 0 0 0
gi 0 0 0 0
gi 0 0 0 0
gi 0 0 0 0
gi 0 0 0 0
gi 0 0 0 0
gi 0 0 0 0
gi 0 0 0 0
gi 0 0 0 0
gi 0 0 0 0
gi 0 0 0 0
gi 0 0 0 0
gi 0 0 0 0
gi 0 0 0 0
gi 0 0 0 0
gi 0 0 0 0
gi 0 0 0 0
gi 0 0 0 0
gi 0 0 0 0
gi 0 0 0 0
gi 0 0 0 0
gi 0 0 0 0
gi 0 0 0 0
gi 0 0 0 0
gi 0 0 0 0
gw 0.0 0.0 0.0 0.0
gw 0.0 0.0 0.0 0.0
gw 0.0 0.0 0.0 0.0
gw 0.0 0.0 0.0 0.0
gw 0.0 0.0 0.0 0.0
gw 0.0 0.0 0.0 0.0
gw 0.0 0.0 0.0 0.0
gw 0.0 0.0 0.0 0.0
gw 0.0 0.0 0.0 0.0
gw 0.0 0.0 0.0 0.0
gw 0.0 0.0 0.0 0.0
gw 0.0 0.0 0.0 0.0
gw 0.0 0.0 0.0 0.0
gw 0.0 0.0 0.0 0.0
gw 0.0 0.0 0.0 0.0
gw 0.0 0.0 0.0 0.0
gw 0.0 0.0 0.0 0.0
gw 0.0 0.0 0.0 0.0
gw 0.0 0.0 0.0 0.0
gw 0.0 0.0 0.0 0.0
gw 0.0 0.0 0.0 0.0
gw 0.0 0.0 0.0 0.0
gw 0.0 0.0 0.0 0.0
gw 0.0 0.0 0.0 0.0
gw 0.0 0.0 0.0 0.0
gw 0.0 0.0 0.0 0.0
gw 0.0 0.0 0.0 0.0
gw 0.0 0.0 0.0 0.0
gw 0.0 0.0 0.0 0.0
gw 0.0 0.0 0.0 0.0
vt 0.9965 0.1543
vt 0.7878 0.1543
vt 0.7878 0.0638
vt 0.9965 0.0638
vt 0.9965 0.2169
vt 0.7282 0.2169
vt 0.7384 0.2067
vt 0.9965 0.2067
vt 0.7282 0.3263
vt 0.9965 0.3263
vt 0.9965 0.1878
vt 0.7541 0.1878
vt 0.8487 0.1878
vt 0.8487 0.1543
vt 0.8487 0.2067
vt 0.8487 0.0638
vt 0.8487 0.2169
vt 0.8487 0.3263
vn -0.7071 -0.0 0.7071
vn -0.3015 -0.3015 0.9045
vn -0.7071 -0.7071 0.0
vn -1.0 -0.0 0.0
vn 0.7071 -0.0 0.7071
vn 0.5773 0.5773 0.5774
vn -0.1277 -0.1277 0.9836
vn -0.4277 -0.0 0.9039
vn 0.7071 0.7071 0.0
vn 1.0 -0.0 0.0
vn -0.4277 -0.0 0.9039
vn -0.3387 -0.3387 0.8778
vn 0.0 -0.4276 0.9039
vn 0.0 -0.7071 0.7071
vn -0.0 -0.4276 0.9039
vn 0.0 -1.0 0.0
vn -0.0 0.7071 0.7071
vn 0.0 1.0 0.0
vn 0.7071 -0.7071 0.0
vn 0.3015 -0.3015 0.9045
vn 0.7071 -0.0 0.7071
vn 1.0 -0.0 0.0
vn 0.1277 -0.1277 0.9836
vn -0.5773 0.5774 0.5774
vn -0.7071 -0.0 0.7071
vn 0.4277 -0.0 0.9039
vn -0.7071 0.7071 0.0
vn -1.0 0.0 0.0
vn 0.3387 -0.3387 0.8778
vn 0.4277 -0.0 0.9039
vtan 0.0 -1.0 -0.0
vtan 0.0953 -0.9535 -0.286
vtan 0.7071 -0.7071 -0.0
vtan 0.0 -1.0 0.0
vtan -0.0 -1.0 -0.0
vtan 0.4082 -0.8165 0.4083
vtan 0.0164 -0.9918 -0.1266
vtan 0.0 -1.0 -0.0
vtan 0.7071 -0.7071 -0.0
vtan -0.0 -1.0 0.0
vtan 0.0 -1.0 -0.0
vtan 0.1219 -0.9409 -0.316
vtan -0.9535 0.0953 -0.286
vtan -0.9409 0.1219 -0.316
vtan -1.0 0.0 0.0
vtan -0.9918 0.0164 -0.1266
vtan -1.0 -0.0 -0.0
vtan -0.7071 0.7071 0.0
vtan -0.8165 0.4082 0.4082
vtan -1.0 -0.0 0.0
vtan -0.7071 0.7071 0.0
vtan -0.7071 -0.7071 -0.0
vtan -0.0953 -0.9535 -0.286
vtan -0.0 -1.0 -0.0
vtan -0.0 -1.0 0.0
vtan -0.0164 -0.9918 -0.1266
vtan -0.4082 -0.8165 0.4083
vtan 0.0 -1.0 -0.0
vtan -0.0 -1.0 -0.0
vtan -0.7071 -0.7071 -0.0
vtan 0.0 -1.0 0.0
vtan -0.1219 -0.9409 -0.316
vtan -0.0 -1.0 -0.0
vtan 0.9535 0.0953 -0.286
vtan 1.0 0.0 0.0
vtan 0.9409 0.1219 -0.316
vtan 1.0 -0.0 -0.0
vtan 0.9918 0.0164 -0.1266
vtan 0.7071 0.7071 0.0
vtan 1.0 -0.0 0.0
vtan 0.8165 0.4082 0.4082
vtan 0.7071 0.7071 0.0
f 0/0/0/0 1/1/1/1 2/2/2/2 
f 0/0/0/0 2/2/2/2 3/3/3/3 
f 4/4/4/4 5/5/5/5 6/6/6/6 
f 4/4/4/4 6/6/6/6 7/7/7/7 
f 8/8/8/8 5/5/5/5 4/4/4/4 
f 8/8/8/8 4/4/4/4 9/9/9/9 
f 1/1/1/1 0/0/0/0 10/10/10/10 
f 1/1/1/1 10/10/10/10 11/11/11/11 
f 11/11/11/11 10/10/10/10 7/7/7/7 
f 11/11/11/11 7/7/7/7 6/6/6/6 
f 1/1/1/12 11/11/11/13 12/12/12/14 
f 1/1/1/12 12/12/12/14 13/13/13/14 
f 11/11/11/13 6/6/6/15 14/14/14/16 
f 11/11/11/13 14/14/14/16 12/12/12/14 
f 2/2/2/17 1/1/1/12 13/13/13/14 
f 2/2/2/17 13/13/13/14 15/15/15/14 
f 6/6/6/15 5/5/5/18 16/16/16/19 
f 6/6/6/15 16/16/16/19 14/14/14/16 
f 5/5/5/18 8/8/8/20 17/17/17/14 
f 5/5/5/18 17/17/17/14 16/16/16/19 
f 18/2/18/21 19/1/19/22 20/0/20/23 
f 18/2/18/21 20/0/20/23 21/3/21/24 
f 22/6/22/25 23/5/23/26 24/4/24/27 
f 22/6/22/25 24/4/24/27 25/7/25/28 
f 24/4/24/27 23/5/23/26 26/8/26/29 
f 24/4/24/27 26/8/26/29 27/9/27/30 
f 19/1/19/22 28/11/28/31 29/10/29/32 
f 19/1/19/22 29/10/29/32 20/0/20/23 
f 28/11/28/31 22/6/22/25 25/7/25/28 
f 28/11/28/31 25/7/25/28 29/10/29/32 
f 19/1/19/33 13/13/13/34 12/12/12/34 
f 19/1/19/33 12/12/12/34 28/11/28/35 
f 28/11/28/35 12/12/12/34 14/14/14/36 
f 28/11/28/35 14/14/14/36 22/6/22/37 
f 13/13/13/34 19/1/19/33 18/2/18/38 
f 13/13/13/34 18/2/18/38 15/15/15/34 
f 16/16/16/39 23/5/23/40 22/6/22/37 
f 16/16/16/39 22/6/22/37 14/14/14/36 
f 17/17/17/34 26/8/26/41 23/5/23/40 
f 17/17/17/34 23/5/23/40 16/16/16/39 
