v 516.2248 664.232 -640.8578
v 516.2248 664.232 -646.9678
v 516.8566 670.6964 -646.9678
v 516.8566 670.6964 -640.0362
v 515.6288 664.232 -640.126
v 516.298 670.6964 -639.3498
v 469.735 670.6964 -639.3498
v 470.404 664.232 -640.126
v 521.1039 690.9597 -633.3974
v 464.9289 690.9597 -633.3974
v 464.8998 686.5966 -633.3974
v 521.1328 686.5966 -633.3974
v 464.33 690.9597 -634.1328
v 464.33 690.9597 -646.9678
v 464.33 686.5966 -646.9678
v 464.33 686.5966 -634.0976
v 515.7612 660.3633 -641.4412
v 515.7612 660.3633 -646.9678
v 517.549 662.2976 -646.9678
v 517.549 662.2976 -639.3174
v 515.154 660.3633 -640.6953
v 516.883 662.2976 -638.4994
v 469.1498 662.2976 -638.4994
v 470.8788 660.3633 -640.6953
v 521.7026 690.9597 -634.1328
v 521.7026 690.9597 -646.9678
v 523.3679 693.1412 -646.9678
v 523.3679 693.1412 -632.1652
v 522.706 693.1412 -631.352
v 463.3268 693.1412 -631.352
v 521.7026 695.3228 -646.9678
v 521.7026 695.3228 -634.2106
v 521.0407 695.3228 -633.3974
v 464.9919 695.3228 -633.3974
v 518.9965 679.6954 -637.4353
v 518.9965 679.6954 -646.9678
v 521.7026 686.5966 -646.9678
v 521.7026 686.5966 -634.0976
v 518.4155 679.6954 -636.7213
v 467.6174 679.6954 -636.7213
v 469.176 670.6964 -640.0362
v 469.808 664.232 -640.8578
v 468.4838 662.2976 -639.3174
v 470.2714 660.3633 -641.4412
v 462.6647 693.1412 -632.1652
v 464.33 695.3228 -634.2106
v 467.0363 679.6954 -637.4353
v 464.33 695.3228 -646.9678
v 469.176 670.6964 -646.9678
v 469.808 664.232 -646.9678
v 468.4838 662.2976 -646.9678
v 470.2714 660.3633 -646.9678
v 462.6647 693.1412 -646.9678
v 467.0363 679.6954 -646.9678
gi 0 0 0 0
gw 0.0 0.0 0.0 0.0
gi 0 0 0 0
gw 0.0 0.0 0.0 0.0
gi 0 0 0 0
gw 0.0 0.0 0.0 0.0
gi 0 0 0 0
gw 0.0 0.0 0.0 0.0
gi 0 0 0 0
gw 0.0 0.0 0.0 0.0
gi 0 0 0 0
gw 0.0 0.0 0.0 0.0
gi 0 0 0 0
gw 0.0 0.0 0.0 0.0
gi 0 0 0 0
gw 0.0 0.0 0.0 0.0
gi 0 0 0 0
gw 0.0 0.0 0.0 0.0
gi 0 0 0 0
gw 0.0 0.0 0.0 0.0
gi 0 0 0 0
gw 0.0 0.0 0.0 0.0
gi 0 0 0 0
gw 0.0 0.0 0.0 0.0
gi 0 0 0 0
gw 0.0 0.0 0.0 0.0
gi 0 0 0 0
gw 0.0 0.0 0.0 0.0
gi 0 0 0 0
gw 0.0 0.0 0.0 0.0
gi 0 0 0 0
gw 0.0 0.0 0.0 0.0
gi 0 0 0 0
gw 0.0 0.0 0.0 0.0
gi 0 0 0 0
gw 0.0 0.0 0.0 0.0
gi 0 0 0 0
gw 0.0 0.0 0.0 0.0
gi 0 0 0 0
gw 0.0 0.0 0.0 0.0
gi 0 0 0 0
gw 0.0 0.0 0.0 0.0
gi 0 0 0 0
gw 0.0 0.0 0.0 0.0
gi 0 0 0 0
gw 0.0 0.0 0.0 0.0
gi 0 0 0 0
gw 0.0 0.0 0.0 0.0
gi 0 0 0 0
gw 0.0 0.0 0.0 0.0
gi 0 0 0 0
gw 0.0 0.0 0.0 0.0
gi 0 0 0 0
gw 0.0 0.0 0.0 0.0
gi 0 0 0 0
gw 0.0 0.0 0.0 0.0
gi 0 0 0 0
gw 0.0 0.0 0.0 0.0
gi 0 0 0 0
gw 0.0 0.0 0.0 0.0
gi 0 0 0 0
gw 0.0 0.0 0.0 0.0
gi 0 0 0 0
gw 0.0 0.0 0.0 0.0
gi 0 0 0 0
gw 0.0 0.0 0.0 0.0
gi 0 0 0 0
gw 0.0 0.0 0.0 0.0
gi 0 0 0 0
gw 0.0 0.0 0.0 0.0
gi 0 0 0 0
gw 0.0 0.0 0.0 0.0
gi 0 0 0 0
gw 0.0 0.0 0.0 0.0
gi 0 0 0 0
gw 0.0 0.0 0.0 0.0
gi 0 0 0 0
gw 0.0 0.0 0.0 0.0
gi 0 0 0 0
gw 0.0 0.0 0.0 0.0
gi 0 0 0 0
gw 0.0 0.0 0.0 0.0
gi 0 0 0 0
gw 0.0 0.0 0.0 0.0
gi 0 0 0 0
gw 0.0 0.0 0.0 0.0
gi 0 0 0 0
gw 0.0 0.0 0.0 0.0
gi 0 0 0 0
gw 0.0 0.0 0.0 0.0
gi 0 0 0 0
gw 0.0 0.0 0.0 0.0
gi 0 0 0 0
gw 0.0 0.0 0.0 0.0
gi 0 0 0 0
gw 0.0 0.0 0.0 0.0
gi 0 0 0 0
gw 0.0 0.0 0.0 0.0
gi 0 0 0 0
gw 0.0 0.0 0.0 0.0
gi 0 0 0 0
gw 0.0 0.0 0.0 0.0
gi 0 0 0 0
gw 0.0 0.0 0.0 0.0
gi 0 0 0 0
gw 0.0 0.0 0.0 0.0
gi 0 0 0 0
gw 0.0 0.0 0.0 0.0
vt 0.4476 0.6911
vt 0.2773 0.6911
vt 0.2773 0.6742
vt 0.4476 0.6742
vt 0.4453 0.6933
vt 0.2795 0.6933
vt 0.5504 0.8881
vt 0.5337 0.8881
vt 0.5337 0.9084
vt 0.5526 0.9084
vt 0.6076 0.8897
vt 0.6053 0.91
vt 0.7614 0.91
vt 0.7592 0.8897
vt 0.5892 0.9737
vt 0.7775 0.9737
vt 0.7776 0.96
vt 0.5891 0.96
vt 0.7937 0.9733
vt 0.8287 0.9733
vt 0.8287 0.9596
vt 0.7936 0.9596
vt 0.9865 0.7672
vt 0.9619 0.7672
vt 0.9632 0.7791
vt 0.9959 0.7791
vt 0.0112 0.7672
vt 0.0111 0.779
vt 0.2524 0.779
vt 0.2525 0.7672
vt 0.5546 0.882
vt 0.5337 0.882
vt 0.6034 0.8836
vt 0.7634 0.8836
vt 0.5687 0.9721
vt 0.5337 0.9721
vt 0.5337 0.979
vt 0.5741 0.979
vt 0.5839 0.9806
vt 0.7829 0.9806
vt 0.5337 0.9859
vt 0.5685 0.9859
vt 0.5894 0.9875
vt 0.7773 0.9875
vt 0.5597 0.9367
vt 0.5337 0.9367
vt 0.5337 0.9584
vt 0.5688 0.9584
vt 0.5982 0.9383
vt 0.7685 0.9383
vt 0.605 0.8907
vt 0.6028 0.9094
vt 0.8095 0.8902
vt 0.8073 0.909
vt 0.8098 0.9096
vt 0.8121 0.8892
vt 0.5867 0.9726
vt 0.5865 0.9593
vt 0.7912 0.9721
vt 0.791 0.9589
vt 0.6007 0.8862
vt 0.8079 0.8832
vt 0.8052 0.8857
vt 0.0079 0.7672
vt 0.0078 0.7789
vt 0.2559 0.779
vt 0.2558 0.7672
vt 0.5815 0.9806
vt 0.786 0.9801
vt 0.7884 0.9801
vt 0.5871 0.99
vt 0.7916 0.9896
vt 0.7939 0.987
vt 0.5957 0.9372
vt 0.8002 0.9367
vt 0.8027 0.9379
vt 0.1674 0.876
vt 0.1655 0.8746
vt 0.0109 0.8746
vt 0.0091 0.8976
vt 0.0091 0.876
vt 0.1674 0.8976
vt 0.8287 0.9096
vt 0.8287 0.8892
vt 0.2874 0.779
vt 0.2803 0.7672
vt 0.8287 0.8832
vt 0.8287 0.9801
vt 0.8287 0.987
vt 0.8287 0.9379
vn 0.0 -1.0 0.0
vn 0.0 -1.0 0.0
vn 0.9118 0.3115 0.2677
vn 0.9686 0.2488 0.0
vn 0.9863 -0.1647 0.0
vn 0.9232 -0.2213 0.3143
vn 0.3713 0.3626 0.8548
vn 0.4079 -0.2541 0.877
vn -0.4078 -0.254 0.877
vn -0.3713 0.3626 0.8548
vn 0.3556 -0.4619 0.8125
vn -0.3556 -0.4619 0.8125
vn -0.4273 -0.251 0.8686
vn 0.4272 -0.251 0.8686
vn -0.8773 -0.4015 0.2631
vn -0.9473 -0.3203 0.0
vn -0.9826 -0.1858 0.0
vn -0.9078 -0.2348 0.3474
vn 0.4051 -0.9097 0.0917
vn 0.401 -0.9161 0.0
vn 0.9973 -0.0728 0.0
vn 0.9149 -0.0672 0.3981
vn 0.1382 -0.9239 0.3568
vn 0.4599 -0.0629 0.8857
vn -0.4599 -0.0629 0.8858
vn -0.1381 -0.9239 0.3569
vn 0.8773 -0.4014 0.263
vn 0.9473 -0.3203 0.0
vn 1.0 -0.0 0.0
vn 0.9164 0.0032 0.4004
vn 0.4625 0.0025 0.8866
vn -0.4624 0.0025 0.8867
vn 0.4434 0.8963 -0.0
vn 0.4484 0.8877 0.1048
vn 0.1562 0.9026 0.4012
vn -0.1562 0.9026 0.4012
vn 0.8738 -0.3895 0.2912
vn 0.9543 -0.2989 0.0
vn 0.9826 -0.1858 0.0
vn 0.9079 -0.2348 0.3474
vn 0.3737 -0.4407 0.8162
vn -0.3737 -0.4407 0.8162
vn -0.9231 -0.2213 0.3144
vn -0.9118 0.3115 0.2677
vn -0.9149 -0.0672 0.3981
vn -0.4051 -0.9097 0.0918
vn -0.9163 0.0032 0.4005
vn -0.4484 0.8877 0.1048
vn -0.8738 -0.3895 0.2913
vn -0.4434 0.8963 0.0
vn -0.9863 -0.1647 0.0
vn -0.9686 0.2488 0.0
vn -0.9973 -0.0728 0.0
vn -0.401 -0.9161 0.0
vn -1.0 -0.0 0.0
vn -0.9543 -0.2989 0.0
vtan 1.0 0.0 0.0 1.0
vtan 1.0 0.0 0.0 1.0
vtan -0.2533 -0.0865 0.9635 -1.0
vtan 0.0 0.0 1.0 -1.0
vtan 0.0 0.0 1.0 -1.0
vtan -0.3057 0.0733 0.9493 -1.0
vtan -0.9265 0.205 0.3155 -1.0
vtan -0.913 -0.1188 0.3902 -1.0
vtan -0.9131 0.1134 -0.3917 -1.0
vtan -0.9285 -0.145 -0.3418 -1.0
vtan -0.9343 -0.1514 0.3229 -1.0
vtan -0.9347 0.1757 -0.3091 -1.0
vtan -0.9041 0.1186 -0.4105 -1.0
vtan -0.9038 -0.144 0.4029 -1.0
vtan -0.2126 -0.1666 -0.9628 -1.0
vtan 0.0 0.0 -1.0 -1.0
vtan -0.321 -0.1437 -0.9361 -1.0
vtan -0.0373 0.0837 0.9958 -1.0
vtan -0.0 0.0 1.0 -1.0
vtan -0.397 0.0292 0.9174 -1.0
vtan -0.9225 0.011 0.3857 -1.0
vtan -0.8877 -0.0086 0.4603 -1.0
vtan -0.8875 -0.0021 -0.4609 -1.0
vtan -0.9218 -0.0119 -0.3874 -1.0
vtan -0.397 0.0292 0.9174 -1.0
vtan -0.8293 0.3261 0.4537 -1.0
vtan -0.888 0.0326 -0.4587 -1.0
vtan -0.2392 0.1094 0.9648 -1.0
vtan -0.4004 -0.0014 0.9164 -1.0
vtan -0.8866 -0.0001 0.4625 -1.0
vtan -0.8867 -0.0013 -0.4624 -1.0
vtan 0.0 0.0 1.0 -1.0
vtan -0.0472 -0.0935 0.9945 -1.0
vtan -0.9858 0.1172 0.1202 -1.0
vtan -0.9877 -0.1428 -0.0634 -1.0
vtan -0.266 0.1186 0.9567 -1.0
vtan -0.3363 0.087 0.9377 -1.0
vtan -0.9275 -0.19 0.322 -1.0
vtan -0.9276 0.1775 -0.3288 -1.0
vtan -0.4026 0.5486 0.7328 -1.0
vtan -0.3692 -0.2826 0.8853 -1.0
vtan -0.6673 0.5359 -0.5172 -1.0
vtan -0.8045 -0.3544 -0.4767 -1.0
vtan -0.2993 -0.0999 -0.9489 -1.0
vtan -0.2341 0.1414 -0.9619 -1.0
vtan -0.4489 -0.4924 0.7457 -1.0
vtan -0.4114 -0.3385 0.8463 -1.0
vtan -0.6289 -0.5249 -0.5736 -1.0
vtan -0.7893 -0.365 -0.4937 -1.0
vtan -0.2304 0.7229 0.6514 -1.0
vtan -0.3982 0.3136 -0.8621 -1.0
vtan -0.5709 0.785 -0.2407 -1.0
vtan -0.5663 -0.1709 0.8063 -1.0
vtan -0.4008 -0.0333 0.9156 -1.0
vtan -0.3992 0.0031 -0.9169 -1.0
vtan -0.2537 0.0154 -0.9672 -1.0
vtan -0.4002 0.0329 0.9158 -1.0
vtan -0.8867 0.0011 -0.4624 -1.0
vtan -0.4004 0.0128 -0.9163 -1.0
vtan -0.8828 0.4216 0.2071 -1.0
vtan -0.1319 0.3835 -0.9141 -1.0
vtan 0.0234 0.1288 -0.9914 -1.0
vtan -0.4661 -0.4998 0.7301 -1.0
vtan -0.6068 -0.5494 -0.5744 -1.0
vtan -0.2341 -0.1881 -0.9538 -1.0
vtan -0.8938 -0.4453 -0.0525 -1.0
vtan -0.9877 -0.1428 -0.0634 -1.0
vtan -0.9877 0.1448 0.0588 -1.0
vtan -0.8963 0.4434 -0.0004 -1.0
vtan -0.8936 0.4479 0.0297 -1.0
vtan -0.8963 -0.4434 0.0 -1.0
vtan -0.0 -0.0 -1.0 -1.0
vtan 0.0 0.0 -1.0 -1.0
f 16/0/0/0 43/1/0/0 51/2/0/0 
f 16/0/0/0 51/2/0/0 17/3/0/0 
f 43/1/1/0 16/0/1/1 20/4/1/0 
f 43/1/0/1 20/4/0/0 23/5/0/0 
f 0/6/2/2 1/7/3/3 2/8/4/4 
f 0/6/2/2 2/8/4/4 3/9/5/5 
f 4/10/6/6 5/11/7/7 6/12/8/8 
f 4/10/6/6 6/12/8/8 7/13/9/9 
f 8/14/10/10 9/15/11/11 10/16/12/12 
f 8/14/10/10 10/16/12/12 11/17/13/13 
f 12/18/14/14 13/19/15/15 14/20/16/15 
f 12/18/14/14 14/20/16/15 15/21/17/16 
f 16/22/18/17 17/23/19/18 18/24/20/3 
f 16/22/18/17 18/24/20/3 19/25/21/19 
f 20/26/22/20 21/27/23/21 22/28/24/22 
f 20/26/22/20 22/28/24/22 23/29/25/23 
f 0/6/2/2 19/30/21/24 18/31/20/3 
f 0/6/2/2 18/31/20/3 1/7/3/3 
f 21/32/23/25 4/10/6/6 7/13/9/9 
f 21/32/23/25 7/13/9/9 22/33/24/26 
f 24/34/26/27 25/35/27/3 26/36/28/3 
f 24/34/26/27 26/36/28/3 27/37/29/28 
f 8/14/10/10 28/38/30/29 29/39/31/30 
f 8/14/10/10 29/39/31/30 9/15/11/11 
f 26/36/28/3 30/40/32/31 31/41/33/32 
f 26/36/28/3 31/41/33/32 27/37/29/28 
f 28/38/30/29 32/42/34/33 33/43/35/34 
f 28/38/30/29 33/43/35/34 29/39/31/30 
f 34/44/36/35 35/45/37/3 36/46/38/3 
f 34/44/36/35 36/46/38/3 37/47/39/36 
f 38/48/40/37 11/17/13/13 10/16/12/12 
f 38/48/40/37 10/16/12/12 39/49/41/38 
f 3/9/5/5 2/8/4/4 35/45/37/3 
f 3/9/5/5 35/45/37/3 34/44/36/35 
f 5/11/7/7 38/48/40/37 39/49/41/38 
f 5/11/7/7 39/49/41/38 6/12/8/8 
f 4/10/6/6 0/50/2/39 3/51/5/40 
f 4/10/6/6 3/51/5/40 5/11/7/7 
f 7/52/9/41 6/53/8/42 40/54/42/43 
f 7/52/9/41 40/54/42/43 41/55/43/44 
f 24/56/26/45 8/14/10/10 11/17/13/13 
f 24/56/26/45 11/17/13/13 37/57/39/46 
f 9/58/11/47 12/18/14/14 15/21/17/16 
f 9/58/11/47 15/21/17/16 10/59/12/48 
f 19/60/21/49 0/50/2/39 4/10/6/6 
f 19/60/21/49 4/10/6/6 21/32/23/25 
f 42/61/44/50 22/62/24/51 7/52/9/41 
f 42/61/44/50 7/52/9/41 41/55/43/44 
f 20/26/22/20 16/63/18/52 19/64/21/53 
f 20/26/22/20 19/64/21/53 21/27/23/21 
f 42/65/44/54 43/66/45/55 23/29/25/23 
f 42/65/44/54 23/29/25/23 22/28/24/22 
f 27/67/29/56 28/38/30/29 8/14/10/10 
f 27/67/29/56 8/14/10/10 24/56/26/45 
f 9/58/11/47 29/68/31/57 44/69/46/58 
f 9/58/11/47 44/69/46/58 12/18/14/14 
f 27/67/29/56 31/70/33/59 32/42/34/33 
f 27/67/29/56 32/42/34/33 28/38/30/29 
f 33/71/35/60 45/72/47/61 44/69/46/58 
f 33/71/35/60 44/69/46/58 29/68/31/57 
f 37/57/39/46 11/17/13/13 38/48/40/37 
f 37/57/39/46 38/48/40/37 34/73/36/62 
f 39/74/41/63 10/59/12/48 15/21/17/16 
f 39/74/41/63 15/21/17/16 46/75/48/64 
f 34/73/36/62 38/48/40/37 5/11/7/7 
f 34/73/36/62 5/11/7/7 3/51/5/40 
f 6/53/8/42 39/74/41/63 46/75/48/64 
f 6/53/8/42 46/75/48/64 40/54/42/43 
f 45/76/47/65 33/77/35/66 32/78/34/67 
f 45/76/47/65 32/78/34/67 30/79/32/68 
f 32/78/34/67 31/80/33/69 30/79/32/68 
f 47/81/49/70 45/76/47/65 30/79/32/68 
f 41/55/43/44 40/54/42/43 48/82/50/15 
f 41/55/43/44 48/82/50/15 49/83/51/15 
f 24/34/26/27 37/47/39/36 36/46/38/3 
f 24/34/26/27 36/46/38/3 25/35/27/3 
f 43/66/45/55 42/65/44/54 50/84/52/15 
f 43/66/45/55 50/84/52/15 51/85/53/71 
f 50/86/52/15 42/61/44/50 41/55/43/44 
f 50/86/52/15 41/55/43/44 49/83/51/15 
f 12/18/14/14 44/69/46/58 52/87/54/15 
f 12/18/14/14 52/87/54/15 13/19/15/15 
f 52/87/54/15 44/69/46/58 45/72/47/61 
f 52/87/54/15 45/72/47/61 47/88/49/15 
f 46/75/48/64 15/21/17/16 14/20/16/15 
f 46/75/48/64 14/20/16/15 53/89/55/72 
f 40/54/42/43 46/75/48/64 53/89/55/72 
f 40/54/42/43 53/89/55/72 48/82/50/15 
