v 1297.1455 664.232 -639.178
v 1296.5137 670.6964 -638.3561
v 1296.5137 670.6964 -645.2877
v 1297.1455 664.232 -645.2877
v 1297.6091 660.3634 -639.7611
v 1295.8213 662.2977 -637.6375
v 1295.8213 662.2977 -645.2877
v 1297.6091 660.3634 -645.2877
v 1291.6677 690.9597 -632.4528
v 1290.0022 693.1412 -630.4851
v 1290.0022 693.1412 -645.2877
v 1291.6677 690.9597 -645.2877
v 1291.6677 695.3228 -632.5305
v 1291.6677 695.3228 -645.2877
v 1294.3738 679.6954 -635.7552
v 1291.6677 686.5967 -632.4175
v 1291.6677 686.5967 -645.2877
v 1294.3738 679.6954 -645.2877
v 1297.6375 664.232 -638.5736
v 1296.9871 670.6964 -637.7746
v 1292.147 686.5967 -631.8286
v 1292.1614 690.9597 -631.8463
v 1290.5278 693.1412 -629.8397
v 1292.1929 695.3228 -631.8852
v 1294.8584 679.6954 -635.1597
v 1303.1035 660.3634 -645.2884
v 1298.605 660.3634 -639.7621
v 1296.3484 662.2977 -636.9899
v 1298.1067 660.3634 -639.15
v 1303.1035 695.3228 -645.2885
v 1298.1294 664.232 -637.9693
v 1303.1028 664.232 -637.9694
v 1303.1028 670.6964 -637.1931
v 1297.4604 670.6964 -637.1931
v 1298.604 660.3634 -638.539
v 1303.1028 660.3634 -638.539
v 1303.1028 662.2977 -636.3424
v 1296.8755 662.2977 -636.3424
v 1292.655 690.9597 -631.2398
v 1303.1028 690.9597 -631.2399
v 1303.1028 693.1412 -629.194
v 1291.0532 693.1412 -629.194
v 1303.1028 695.3228 -631.2399
v 1292.7183 695.3228 -631.2399
v 1295.3433 679.6954 -634.5644
v 1303.1028 679.6954 -634.5641
v 1303.1028 686.5967 -631.2399
v 1292.6262 686.5967 -631.2398
gi 0 0 0 0
gw 0.0 0.0 0.0 0.0
gi 0 0 0 0
gw 0.0 0.0 0.0 0.0
gi 0 0 0 0
gw 0.0 0.0 0.0 0.0
gi 0 0 0 0
gw 0.0 0.0 0.0 0.0
gi 0 0 0 0
gw 0.0 0.0 0.0 0.0
gi 0 0 0 0
gw 0.0 0.0 0.0 0.0
gi 0 0 0 0
gw 0.0 0.0 0.0 0.0
gi 0 0 0 0
gw 0.0 0.0 0.0 0.0
gi 0 0 0 0
gw 0.0 0.0 0.0 0.0
gi 0 0 0 0
gw 0.0 0.0 0.0 0.0
gi 0 0 0 0
gw 0.0 0.0 0.0 0.0
gi 0 0 0 0
gw 0.0 0.0 0.0 0.0
gi 0 0 0 0
gw 0.0 0.0 0.0 0.0
gi 0 0 0 0
gw 0.0 0.0 0.0 0.0
gi 0 0 0 0
gw 0.0 0.0 0.0 0.0
gi 0 0 0 0
gw 0.0 0.0 0.0 0.0
gi 0 0 0 0
gw 0.0 0.0 0.0 0.0
gi 0 0 0 0
gw 0.0 0.0 0.0 0.0
gi 0 0 0 0
gw 0.0 0.0 0.0 0.0
gi 0 0 0 0
gw 0.0 0.0 0.0 0.0
gi 0 0 0 0
gw 0.0 0.0 0.0 0.0
gi 0 0 0 0
gw 0.0 0.0 0.0 0.0
gi 0 0 0 0
gw 0.0 0.0 0.0 0.0
gi 0 0 0 0
gw 0.0 0.0 0.0 0.0
gi 0 0 0 0
gw 0.0 0.0 0.0 0.0
gi 0 0 0 0
gw 0.0 0.0 0.0 0.0
gi 0 0 0 0
gw 0.0 0.0 0.0 0.0
gi 0 0 0 0
gw 0.0 0.0 0.0 0.0
gi 0 0 0 0
gw 0.0 0.0 0.0 0.0
gi 0 0 0 0
gw 0.0 0.0 0.0 0.0
gi 0 0 0 0
gw 0.0 0.0 0.0 0.0
gi 0 0 0 0
gw 0.0 0.0 0.0 0.0
gi 0 0 0 0
gw 0.0 0.0 0.0 0.0
gi 0 0 0 0
gw 0.0 0.0 0.0 0.0
gi 0 0 0 0
gw 0.0 0.0 0.0 0.0
gi 0 0 0 0
gw 0.0 0.0 0.0 0.0
gi 0 0 0 0
gw 0.0 0.0 0.0 0.0
gi 0 0 0 0
gw 0.0 0.0 0.0 0.0
gi 0 0 0 0
gw 0.0 0.0 0.0 0.0
gi 0 0 0 0
gw 0.0 0.0 0.0 0.0
gi 0 0 0 0
gw 0.0 0.0 0.0 0.0
gi 0 0 0 0
gw 0.0 0.0 0.0 0.0
gi 0 0 0 0
gw 0.0 0.0 0.0 0.0
gi 0 0 0 0
gw 0.0 0.0 0.0 0.0
gi 0 0 0 0
gw 0.0 0.0 0.0 0.0
gi 0 0 0 0
gw 0.0 0.0 0.0 0.0
gi 0 0 0 0
gw 0.0 0.0 0.0 0.0
gi 0 0 0 0
gw 0.0 0.0 0.0 0.0
vt 0.4476 0.6742
vt 0.427 0.6742
vt 0.4439 0.6911
vt 0.4476 0.6911
vt 0.4457 0.6929
vt 0.5504 0.8881
vt 0.5526 0.9084
vt 0.5337 0.9084
vt 0.5337 0.8881
vt 0.9865 0.7672
vt 0.9959 0.7791
vt 0.9632 0.7791
vt 0.9619 0.7672
vt 0.5337 0.882
vt 0.5546 0.882
vt 0.5687 0.9721
vt 0.5741 0.979
vt 0.5337 0.979
vt 0.5337 0.9721
vt 0.5685 0.9859
vt 0.5337 0.9859
vt 0.5597 0.9367
vt 0.5688 0.9584
vt 0.5337 0.9584
vt 0.5337 0.9367
vt 0.6028 0.9094
vt 0.605 0.8907
vt 0.6071 0.8899
vt 0.605 0.9099
vt 0.5887 0.9599
vt 0.5888 0.9735
vt 0.5867 0.9726
vt 0.5865 0.9593
vt 0.5834 0.9806
vt 0.5815 0.9806
vt 0.589 0.988
vt 0.5871 0.99
vt 0.5978 0.9381
vt 0.5957 0.9372
vt 0.6007 0.8862
vt 0.6028 0.8842
vt 0.0078 0.7789
vt 0.0079 0.7672
vt 0.0107 0.7672
vt 0.0104 0.779
vt 0.0091 0.8976
vt 0.0091 0.876
vt 0.0105 0.8749
vt 0.0406 0.8976
vn 0.0 -1.0 0.0
vn 0.0 -1.0 -0.0001
vn -0.0 -1.0 -0.0001
vn -0.0 -1.0 -0.0001
vn 0.0 -1.0 -0.0
vn 0.0 -1.0 -0.0
vn -0.9118 0.3115 0.2676
vn -0.9232 -0.2213 0.3143
vn -0.9863 -0.1647 0.0
vn -0.9686 0.2488 0.0
vn -0.4051 -0.9097 0.0918
vn -0.9149 -0.0672 0.398
vn -0.9973 -0.0728 0.0
vn -0.401 -0.9161 0.0
vn -0.8773 -0.4014 0.263
vn -0.9163 0.0032 0.4005
vn -1.0 -0.0 0.0
vn -0.9473 -0.3203 0.0
vn -0.4484 0.8877 0.1048
vn -0.4434 0.8963 0.0
vn -0.8738 -0.3895 0.2913
vn -0.9078 -0.2349 0.3474
vn -0.9826 -0.1858 0.0
vn -0.9543 -0.2989 0.0
vn -0.7353 0.318 0.5985
vn -0.7508 -0.2505 0.6112
vn -0.7472 -0.2678 0.6082
vn -0.7058 -0.4145 0.5745
vn -0.7755 0.0047 0.6313
vn -0.2665 0.9391 0.2169
vn -0.6985 -0.4345 0.5686
vn -0.7733 -0.0759 0.6295
vn -0.2356 -0.9527 0.1918
vn 0.0 1.0 0.0
vn -0.3714 0.3626 0.8548
vn 0.0 0.2859 0.9583
vn 0.0 -0.2005 0.9797
vn -0.4079 -0.2541 0.877
vn -0.1381 -0.9239 0.3568
vn -0.0 -0.9355 0.3534
vn 0.0 -0.0747 0.9972
vn -0.4598 -0.0628 0.8858
vn -0.3556 -0.462 0.8125
vn 0.0 -0.3678 0.9299
vn 0.0 -0.0 1.0
vn -0.4625 0.0025 0.8866
vn 0.0 0.9176 0.3974
vn -0.1562 0.9026 0.4011
vn -0.3735 -0.4407 0.8163
vn -0.0 -0.3584 0.9336
vn -0.0 -0.2226 0.9749
vn -0.4272 -0.2511 0.8686
vtan -1.0 0.0 0.0002 -1.0
vtan -1.0 0.0 0.0001 -1.0
vtan -1.0 0.0 0.0007 -1.0
vtan -1.0 0.0 0.001 -1.0
vtan -1.0 -0.0 0.001 -1.0
vtan -1.0 -0.0 0.001 -1.0
vtan -1.0 -0.0 0.001 -1.0
vtan -0.0008 -0.0 1.0 1.0
vtan -0.0008 -0.0 1.0 1.0
vtan -0.0008 -0.0 1.0 1.0
vtan -0.0001 0.0 1.0 1.0
vtan -0.0001 0.0 1.0 1.0
vtan -0.0001 0.0 1.0 1.0
vtan -0.0008 -0.0 1.0 1.0
vtan -0.0008 -0.0 1.0 1.0
vtan -0.0008 -0.0 1.0 1.0
vtan 0.2532 -0.0865 0.9635 1.0
vtan 0.3057 0.0733 0.9493 1.0
vtan 0.0 0.0 1.0 1.0
vtan 0.0 0.0 1.0 1.0
vtan 0.0373 0.0838 0.9958 1.0
vtan 0.397 0.0292 0.9174 1.0
vtan 0.0 0.0 1.0 1.0
vtan 0.397 0.0292 0.9174 1.0
vtan 0.2392 0.1094 0.9648 1.0
vtan 0.4005 -0.0014 0.9163 1.0
vtan 0.0472 -0.0935 0.9945 1.0
vtan 0.266 0.1186 0.9566 1.0
vtan 0.3363 0.087 0.9377 1.0
vtan 0.3695 -0.2851 0.8844 1.0
vtan 0.4014 0.538 0.7413 1.0
vtan 0.6758 0.411 0.6118 1.0
vtan 0.6588 -0.217 0.7204 1.0
vtan 0.6637 -0.2559 0.7028 1.0
vtan 0.7031 -0.3106 0.6397 1.0
vtan 0.4487 -0.4917 0.7463 1.0
vtan 0.4117 -0.3415 0.8449 1.0
vtan 0.6313 0.0 0.7755 1.0
vtan 0.4004 0.0249 0.916 1.0
vtan 0.943 0.2075 0.2602 1.0
vtan 0.8835 0.4223 0.2027 1.0
vtan 0.7128 -0.3517 0.6068 1.0
vtan 0.4652 -0.4949 0.7339 1.0
vtan 0.2217 0.7404 0.6346 1.0
vtan 0.4288 0.6687 0.6074 1.0
vtan 0.401 -0.038 0.9153 1.0
vtan 0.5663 -0.1708 0.8063 1.0
vtan 0.6349 -0.0015 0.7726 1.0
vtan 0.6325 -0.0217 0.7743 1.0
vtan 0.8963 0.4434 -0.0003 1.0
vtan 0.8938 0.4464 0.0433 1.0
vtan 0.9638 0.2605 0.0562 1.0
vtan 1.0 0.0 -0.0001 1.0
vtan -0.9285 -0.145 -0.3419 -1.0
vtan -1.0 -0.0 0.0 -1.0
vtan -1.0 0.0 0.0 -1.0
vtan -0.913 0.1135 -0.3918 -1.0
vtan -0.9904 0.1288 -0.0498 -1.0
vtan -1.0 0.0 -0.0 -1.0
vtan -1.0 0.0 0.0 -1.0
vtan -0.888 0.0325 -0.4586 -1.0
vtan -1.0 0.0 0.0 -1.0
vtan -0.888 0.0325 -0.4586 -1.0
vtan -0.9346 0.1758 -0.3092 -1.0
vtan -1.0 0.0 0.0 -1.0
vtan -1.0 0.0 0.0 -1.0
vtan -0.8866 -0.0013 -0.4625 -1.0
vtan -0.9877 -0.1428 -0.0634 -1.0
vtan -0.9276 0.1774 -0.3287 -1.0
vtan -1.0 0.0 -0.0 -1.0
vtan -1.0 0.0 -0.0 -1.0
vtan -0.9042 0.1186 -0.4104 -1.0
vtan -0.6722 0.53 -0.5169 -1.0
vtan -0.8064 -0.3502 -0.4765 -1.0
vtan -0.5794 -0.1946 -0.7915 -1.0
vtan -0.5128 0.3165 -0.7981 -1.0
vtan -0.6473 -0.5053 -0.5707 -1.0
vtan -0.4714 -0.3306 -0.8176 -1.0
vtan -0.5555 -0.2506 -0.7929 -1.0
vtan -0.7873 -0.3691 -0.4938 -1.0
vtan -0.8866 0.0011 -0.4625 -1.0
vtan -0.631 0.0238 -0.7754 -1.0
vtan -0.1404 0.3817 -0.9136 -1.0
vtan 0.0064 0.2268 -0.9739 -1.0
vtan -0.6329 -0.5223 -0.5716 -1.0
vtan -0.4626 -0.3321 -0.822 -1.0
vtan -0.5654 0.5318 -0.6304 -1.0
vtan -0.5663 0.7891 -0.238 -1.0
vtan -0.6302 -0.0174 -0.7762 -1.0
vtan -0.6313 -0.0 -0.7755 -1.0
vtan -0.6662 -0.1799 -0.7237 -1.0
vtan -0.8849 -0.0508 -0.4629 -1.0
vtan -0.0569 0.2093 -0.9762 -1.0
vtan -0.0627 0.3962 -0.916 -1.0
vtan 0.0003 0.3974 -0.9176 -1.0
vtan 0.0001 0.0 -1.0 -1.0
f 7/0/0/0 25/1/0/1 26/2/0/2 
f 7/0/0/0 26/2/0/2 4/3/0/3 
f 28/4/1/4 4/3/2/5 26/2/3/6 
f 35/0/4/7 34/3/4/8 26/2/4/9 
f 35/0/0/10 26/2/0/11 25/1/0/12 
f 28/4/5/13 26/2/5/14 34/3/5/15 
f 0/5/6/16 1/6/7/17 2/7/8/18 
f 0/5/6/16 2/7/8/18 3/8/9/19 
f 4/9/10/20 5/10/11/21 6/11/12/19 
f 4/9/10/20 6/11/12/19 7/12/13/22 
f 0/5/6/16 3/8/9/19 6/13/12/19 
f 0/5/6/16 6/13/12/19 5/14/11/23 
f 8/15/14/24 9/16/15/25 10/17/16/19 
f 8/15/14/24 10/17/16/19 11/18/17/19 
f 12/19/18/26 13/20/19/19 10/17/16/19 
f 12/19/18/26 10/17/16/19 9/16/15/25 
f 14/21/20/27 15/22/21/28 16/23/22/19 
f 14/21/20/27 16/23/22/19 17/24/23/18 
f 1/6/7/17 14/21/20/27 17/24/23/18 
f 1/6/7/17 17/24/23/18 2/7/8/18 
f 1/25/7/29 0/26/6/30 18/27/24/31 
f 1/25/7/29 18/27/24/31 19/28/25/32 
f 20/29/26/33 21/30/27/34 8/31/14/35 
f 20/29/26/33 8/31/14/35 15/32/21/36 
f 21/30/27/34 22/33/28/37 9/34/15/38 
f 21/30/27/34 9/34/15/38 8/31/14/35 
f 9/34/15/38 22/33/28/37 23/35/29/39 
f 9/34/15/38 23/35/29/39 12/36/18/40 
f 24/37/30/41 20/29/26/33 15/32/21/36 
f 24/37/30/41 15/32/21/36 14/38/20/42 
f 19/28/25/32 24/37/30/41 14/38/20/42 
f 19/28/25/32 14/38/20/42 1/25/7/29 
f 16/23/22/19 15/22/21/28 8/15/14/24 
f 16/23/22/19 8/15/14/24 11/18/17/19 
f 18/27/24/31 0/26/6/30 5/39/11/43 
f 18/27/24/31 5/39/11/43 27/40/31/44 
f 5/41/11/45 4/42/10/46 28/43/32/47 
f 5/41/11/45 28/43/32/47 27/44/31/48 
f 13/45/19/49 12/46/18/50 23/47/29/51 
f 13/45/19/49 23/47/29/51 29/48/33/52 
f 30/5/34/53 31/8/35/54 32/7/36/55 
f 30/5/34/53 32/7/36/55 33/6/37/56 
f 34/9/38/57 35/12/39/58 36/11/40/59 
f 34/9/38/57 36/11/40/59 37/10/41/60 
f 36/13/40/61 31/8/35/54 30/5/34/53 
f 36/13/40/61 30/5/34/53 37/14/41/62 
f 38/15/42/63 39/18/43/64 40/17/44/65 
f 38/15/42/63 40/17/44/65 41/16/45/66 
f 40/17/44/65 42/20/46/59 43/19/47/67 
f 40/17/44/65 43/19/47/67 41/16/45/66 
f 44/21/48/68 45/24/49/69 46/23/50/70 
f 44/21/48/68 46/23/50/70 47/22/51/71 
f 33/6/37/56 32/7/36/55 45/24/49/69 
f 33/6/37/56 45/24/49/69 44/21/48/68 
f 30/26/34/72 33/25/37/73 19/28/25/74 
f 30/26/34/72 19/28/25/74 18/27/24/75 
f 38/31/42/76 21/30/27/77 20/29/26/78 
f 38/31/42/76 20/29/26/78 47/32/51/79 
f 38/31/42/76 41/34/45/80 22/33/28/81 
f 38/31/42/76 22/33/28/81 21/30/27/77 
f 43/36/47/82 23/35/29/83 22/33/28/81 
f 43/36/47/82 22/33/28/81 41/34/45/80 
f 44/38/48/84 47/32/51/79 20/29/26/78 
f 44/38/48/84 20/29/26/78 24/37/30/85 
f 33/25/37/73 44/38/48/84 24/37/30/85 
f 33/25/37/73 24/37/30/85 19/28/25/74 
f 38/15/42/63 47/22/51/71 46/23/50/70 
f 38/15/42/63 46/23/50/70 39/18/43/64 
f 27/40/31/86 37/39/41/87 30/26/34/72 
f 27/40/31/86 30/26/34/72 18/27/24/75 
f 27/44/31/88 28/43/32/89 34/42/38/90 
f 27/44/31/88 34/42/38/90 37/41/41/91 
f 23/47/29/92 43/46/47/93 42/45/46/94 
f 23/47/29/92 42/45/46/94 29/48/33/95 
