v 790.1294 279.8812 -279.1519
v 790.1294 280.1829 -280.278
v 830.2939 280.1829 -280.278
v 830.2939 279.8812 -279.1519
v 790.1294 281.0074 -281.1023
v 830.2939 281.0074 -281.1023
v 790.1294 282.1335 -281.4041
v 830.2939 282.1335 -281.4041
v 790.1294 283.2597 -281.1023
v 830.2939 283.2597 -281.1023
v 790.1294 284.0839 -280.278
v 830.2939 284.0839 -280.278
v 790.1294 284.3857 -279.1518
v 830.2939 284.3857 -279.1518
v 790.1294 284.0839 -278.0257
v 830.2939 284.0839 -278.0257
v 790.1294 283.2596 -277.2013
v 830.2939 283.2596 -277.2013
v 790.1294 282.1334 -276.8996
v 830.2939 282.1334 -276.8996
v 790.1294 281.0073 -277.2013
v 830.2939 281.0073 -277.2013
v 790.1294 280.1829 -278.0258
v 830.2939 280.1829 -278.0258
v 749.9647 279.8812 -279.1519
v 749.9647 280.1829 -280.278
v 749.9647 281.0074 -281.1023
v 749.9647 282.1335 -281.4041
v 749.9647 283.2597 -281.1023
v 749.9647 284.0839 -280.278
v 749.9647 284.3857 -279.1518
v 749.9647 284.0839 -278.0257
v 749.9647 283.2596 -277.2013
v 749.9647 282.1334 -276.8996
v 749.9647 281.0073 -277.2013
v 749.9647 280.1829 -278.0258
v 709.8002 279.8812 -279.1519
v 709.8002 280.1829 -280.278
v 709.8002 281.0074 -281.1023
v 709.8002 282.1335 -281.4041
v 709.8002 283.2597 -281.1023
v 709.8002 284.0839 -280.278
v 709.8002 284.3857 -279.1518
v 709.8002 284.0839 -278.0257
v 709.8002 283.2596 -277.2013
v 709.8002 282.1334 -276.8996
v 709.8002 281.0073 -277.2013
v 709.8002 280.1829 -278.0258
v 675.3553 279.8812 -279.1519
v 675.3553 280.1829 -280.278
v 675.3553 281.0074 -281.1023
v 675.3553 282.1335 -281.4041
v 675.3553 283.2597 -281.1023
v 675.3553 284.0839 -280.278
v 675.3553 284.3857 -279.1518
v 675.3553 284.0839 -278.0257
v 675.3553 283.2596 -277.2013
v 675.3553 282.1334 -276.8996
v 675.3553 281.0073 -277.2013
v 675.3553 280.1829 -278.0258
v 520.4168 280.1829 -280.278
v 560.5814 280.1829 -280.278
v 560.5814 279.8812 -279.1519
v 520.4168 279.8812 -279.1519
v 520.4168 281.0074 -281.1023
v 560.5814 281.0074 -281.1023
v 520.4168 282.1335 -281.4041
v 560.5814 282.1335 -281.4041
v 520.4168 283.2597 -281.1023
v 560.5814 283.2597 -281.1023
v 520.4168 284.0839 -280.278
v 560.5814 284.0839 -280.278
v 520.4168 284.3857 -279.1518
v 560.5814 284.3857 -279.1518
v 520.4168 284.0839 -278.0257
v 560.5814 284.0839 -278.0257
v 520.4168 283.2596 -277.2013
v 560.5814 283.2596 -277.2013
v 520.4168 282.1334 -276.8996
v 560.5814 282.1334 -276.8996
v 520.4168 281.0073 -277.2013
v 560.5814 281.0073 -277.2013
v 520.4168 280.1829 -278.0258
v 560.5814 280.1829 -278.0258
v 600.746 280.1829 -280.278
v 600.746 279.8812 -279.1519
v 600.746 281.0074 -281.1023
v 600.746 282.1335 -281.4041
v 600.746 283.2597 -281.1023
v 600.746 284.0839 -280.278
v 600.746 284.3857 -279.1518
v 600.746 284.0839 -278.0257
v 600.746 283.2596 -277.2013
v 600.746 282.1334 -276.8996
v 600.746 281.0073 -277.2013
v 600.746 280.1829 -278.0258
v 640.9106 280.1829 -280.278
v 640.9106 279.8812 -279.1519
v 640.9106 281.0074 -281.1023
v 640.9106 282.1335 -281.4041
v 640.9106 283.2597 -281.1023
v 640.9106 284.0839 -280.278
v 640.9106 284.3857 -279.1518
v 640.9106 284.0839 -278.0257
v 640.9106 283.2596 -277.2013
v 640.9106 282.1334 -276.8996
v 640.9106 281.0073 -277.2013
v 640.9106 280.1829 -278.0258
gi 0 0 0 0
gi 0 0 0 0
gi 0 0 0 0
gi 0 0 0 0
gi 0 0 0 0
gi 0 0 0 0
gi 0 0 0 0
gi 0 0 0 0
gi 0 0 0 0
gi 0 0 0 0
gi 0 0 0 0
gi 0 0 0 0
gi 0 0 0 0
gi 0 0 0 0
gi 0 0 0 0
gi 0 0 0 0
gi 0 0 0 0
gi 0 0 0 0
gi 0 0 0 0
gi 0 0 0 0
gi 0 0 0 0
gi 0 0 0 0
gi 0 0 0 0
gi 0 0 0 0
gi 0 0 0 0
gi 0 0 0 0
gi 0 0 0 0
gi 0 0 0 0
gi 0 0 0 0
gi 0 0 0 0
gi 0 0 0 0
gi 0 0 0 0
gi 0 0 0 0
gi 0 0 0 0
gi 0 0 0 0
gi 0 0 0 0
gi 0 0 0 0
gi 0 0 0 0
gi 0 0 0 0
gi 0 0 0 0
gi 0 0 0 0
gi 0 0 0 0
gi 0 0 0 0
gi 0 0 0 0
gi 0 0 0 0
gi 0 0 0 0
gi 0 0 0 0
gi 0 0 0 0
gi 0 0 0 0
gi 0 0 0 0
gi 0 0 0 0
gi 0 0 0 0
gi 0 0 0 0
gi 0 0 0 0
gi 0 0 0 0
gi 0 0 0 0
gi 0 0 0 0
gi 0 0 0 0
gi 0 0 0 0
gi 0 0 0 0
gi 0 0 0 0
gi 0 0 0 0
gi 0 0 0 0
gi 0 0 0 0
gi 0 0 0 0
gi 0 0 0 0
gi 0 0 0 0
gi 0 0 0 0
gi 0 0 0 0
gi 0 0 0 0
gi 0 0 0 0
gi 0 0 0 0
gi 0 0 0 0
gi 0 0 0 0
gi 0 0 0 0
gi 0 0 0 0
gi 0 0 0 0
gi 0 0 0 0
gi 0 0 0 0
gi 0 0 0 0
gi 0 0 0 0
gi 0 0 0 0
gi 0 0 0 0
gi 0 0 0 0
gi 0 0 0 0
gi 0 0 0 0
gi 0 0 0 0
gi 0 0 0 0
gi 0 0 0 0
gi 0 0 0 0
gi 0 0 0 0
gi 0 0 0 0
gi 0 0 0 0
gi 0 0 0 0
gi 0 0 0 0
gi 0 0 0 0
gi 0 0 0 0
gi 0 0 0 0
gi 0 0 0 0
gi 0 0 0 0
gi 0 0 0 0
gi 0 0 0 0
gi 0 0 0 0
gi 0 0 0 0
gi 0 0 0 0
gi 0 0 0 0
gi 0 0 0 0
gi 0 0 0 0
gw 0.0 0.0 0.0 0.0
gw 0.0 0.0 0.0 0.0
gw 0.0 0.0 0.0 0.0
gw 0.0 0.0 0.0 0.0
gw 0.0 0.0 0.0 0.0
gw 0.0 0.0 0.0 0.0
gw 0.0 0.0 0.0 0.0
gw 0.0 0.0 0.0 0.0
gw 0.0 0.0 0.0 0.0
gw 0.0 0.0 0.0 0.0
gw 0.0 0.0 0.0 0.0
gw 0.0 0.0 0.0 0.0
gw 0.0 0.0 0.0 0.0
gw 0.0 0.0 0.0 0.0
gw 0.0 0.0 0.0 0.0
gw 0.0 0.0 0.0 0.0
gw 0.0 0.0 0.0 0.0
gw 0.0 0.0 0.0 0.0
gw 0.0 0.0 0.0 0.0
gw 0.0 0.0 0.0 0.0
gw 0.0 0.0 0.0 0.0
gw 0.0 0.0 0.0 0.0
gw 0.0 0.0 0.0 0.0
gw 0.0 0.0 0.0 0.0
gw 0.0 0.0 0.0 0.0
gw 0.0 0.0 0.0 0.0
gw 0.0 0.0 0.0 0.0
gw 0.0 0.0 0.0 0.0
gw 0.0 0.0 0.0 0.0
gw 0.0 0.0 0.0 0.0
gw 0.0 0.0 0.0 0.0
gw 0.0 0.0 0.0 0.0
gw 0.0 0.0 0.0 0.0
gw 0.0 0.0 0.0 0.0
gw 0.0 0.0 0.0 0.0
gw 0.0 0.0 0.0 0.0
gw 0.0 0.0 0.0 0.0
gw 0.0 0.0 0.0 0.0
gw 0.0 0.0 0.0 0.0
gw 0.0 0.0 0.0 0.0
gw 0.0 0.0 0.0 0.0
gw 0.0 0.0 0.0 0.0
gw 0.0 0.0 0.0 0.0
gw 0.0 0.0 0.0 0.0
gw 0.0 0.0 0.0 0.0
gw 0.0 0.0 0.0 0.0
gw 0.0 0.0 0.0 0.0
gw 0.0 0.0 0.0 0.0
gw 0.0 0.0 0.0 0.0
gw 0.0 0.0 0.0 0.0
gw 0.0 0.0 0.0 0.0
gw 0.0 0.0 0.0 0.0
gw 0.0 0.0 0.0 0.0
gw 0.0 0.0 0.0 0.0
gw 0.0 0.0 0.0 0.0
gw 0.0 0.0 0.0 0.0
gw 0.0 0.0 0.0 0.0
gw 0.0 0.0 0.0 0.0
gw 0.0 0.0 0.0 0.0
gw 0.0 0.0 0.0 0.0
gw 0.0 0.0 0.0 0.0
gw 0.0 0.0 0.0 0.0
gw 0.0 0.0 0.0 0.0
gw 0.0 0.0 0.0 0.0
gw 0.0 0.0 0.0 0.0
gw 0.0 0.0 0.0 0.0
gw 0.0 0.0 0.0 0.0
gw 0.0 0.0 0.0 0.0
gw 0.0 0.0 0.0 0.0
gw 0.0 0.0 0.0 0.0
gw 0.0 0.0 0.0 0.0
gw 0.0 0.0 0.0 0.0
gw 0.0 0.0 0.0 0.0
gw 0.0 0.0 0.0 0.0
gw 0.0 0.0 0.0 0.0
gw 0.0 0.0 0.0 0.0
gw 0.0 0.0 0.0 0.0
gw 0.0 0.0 0.0 0.0
gw 0.0 0.0 0.0 0.0
gw 0.0 0.0 0.0 0.0
gw 0.0 0.0 0.0 0.0
gw 0.0 0.0 0.0 0.0
gw 0.0 0.0 0.0 0.0
gw 0.0 0.0 0.0 0.0
gw 0.0 0.0 0.0 0.0
gw 0.0 0.0 0.0 0.0
gw 0.0 0.0 0.0 0.0
gw 0.0 0.0 0.0 0.0
gw 0.0 0.0 0.0 0.0
gw 0.0 0.0 0.0 0.0
gw 0.0 0.0 0.0 0.0
gw 0.0 0.0 0.0 0.0
gw 0.0 0.0 0.0 0.0
gw 0.0 0.0 0.0 0.0
gw 0.0 0.0 0.0 0.0
gw 0.0 0.0 0.0 0.0
gw 0.0 0.0 0.0 0.0
gw 0.0 0.0 0.0 0.0
gw 0.0 0.0 0.0 0.0
gw 0.0 0.0 0.0 0.0
gw 0.0 0.0 0.0 0.0
gw 0.0 0.0 0.0 0.0
gw 0.0 0.0 0.0 0.0
gw 0.0 0.0 0.0 0.0
gw 0.0 0.0 0.0 0.0
gw 0.0 0.0 0.0 0.0
gw 0.0 0.0 0.0 0.0
gw 0.0 0.0 0.0 0.0
vt 0.9876 0.5241
vt 0.9633 0.5241
vt 0.9633 0.0053
vt 0.9876 0.0053
vt 0.9391 0.5241
vt 0.9391 0.0053
vt 0.9148 0.5241
vt 0.9148 0.0053
vt 0.8906 0.5241
vt 0.8906 0.0053
vt 0.8663 0.5241
vt 0.8663 0.0053
vt 0.8421 0.5241
vt 0.8421 0.0053
vt 0.8178 0.5241
vt 0.8178 0.0053
vt 0.7936 0.5241
vt 0.7936 0.0053
vt 0.7694 0.5241
vt 0.7694 0.0053
vt 0.7451 0.5241
vt 0.7451 0.0053
vt 0.7209 0.5241
vt 0.7209 0.0053
vt 0.6966 0.5241
vt 0.6966 0.0053
vt 0.9876 0.4502
vt 0.9633 0.4502
vt 0.9391 0.4502
vt 0.9148 0.4502
vt 0.8906 0.4502
vt 0.8663 0.4502
vt 0.8421 0.4502
vt 0.8178 0.4502
vt 0.7936 0.4502
vt 0.7694 0.4502
vt 0.7451 0.4502
vt 0.7209 0.4502
vt 0.6966 0.4502
vn 0.0 -1.0 0.0
vn 0.0 -0.866 -0.5
vn 0.0 -0.866 -0.5
vn 0.0 -1.0 -0.0
vn 0.0 -0.5 -0.866
vn 0.0 -0.5 -0.866
vn 0.0 -0.0 -1.0
vn 0.0 -0.0 -1.0
vn 0.0 0.5 -0.866
vn 0.0 0.5 -0.866
vn 0.0 0.866 -0.5
vn 0.0 0.866 -0.5
vn 0.0 1.0 0.0
vn 0.0 1.0 -0.0
vn 0.0 0.866 0.5
vn 0.0 0.866 0.5
vn 0.0 0.5 0.866
vn 0.0 0.5 0.866
vn 0.0 -0.0 1.0
vn 0.0 -0.0 1.0
vn 0.0 -0.5 0.866
vn 0.0 -0.5 0.866
vn 0.0 -0.866 0.5
vn 0.0 -0.866 0.5
vn 0.0 -1.0 0.0
vn 0.0 -0.866 -0.5
vn 0.0 -0.5 -0.866
vn 0.0 -0.0 -1.0
vn 0.0 0.5001 -0.866
vn 0.0 0.866 -0.5
vn 0.0 1.0 0.0
vn 0.0 0.866 0.5
vn 0.0 -0.0 1.0
vn 0.0 -0.5 0.866
vn 0.0 -0.866 0.5
vn 0.0 -1.0 -0.0
vn 0.0 -0.866 -0.5
vn 0.0 -0.5 -0.866
vn 0.0 -0.0 -1.0
vn 0.0 0.5 -0.866
vn 0.0 0.866 -0.5
vn 0.0 1.0 -0.0
vn 0.0 0.866 0.5
vn 0.0 0.5 0.866
vn 0.0 -0.0 1.0
vn 0.0 -0.5 0.866
vn 0.0 -0.866 0.5
vn 0.0 -1.0 0.0
vn 0.0 -0.866 -0.5
vn 0.0 -0.5 -0.866
vn 0.0 -0.0 -1.0
vn 0.0 0.5001 -0.866
vn 0.0 0.866 -0.5
vn 0.0 1.0 0.0
vn 0.0 0.866 0.5
vn 0.0 0.5 0.866
vn 0.0 -0.0 1.0
vn 0.0 -0.5 0.866
vn 0.0 -0.866 0.5
vn 0.0 -0.866 -0.5
vn 0.0 -0.866 -0.5
vn 0.0 -1.0 0.0
vn 0.0 -1.0 -0.0
vn 0.0 -0.5 -0.866
vn 0.0 -0.5 -0.866
vn 0.0 -0.0 -1.0
vn 0.0 -0.0 -1.0
vn 0.0 0.5 -0.866
vn 0.0 0.5001 -0.866
vn 0.0 0.866 -0.5
vn 0.0 0.866 -0.5
vn 0.0 1.0 0.0
vn 0.0 1.0 0.0
vn 0.0 0.866 0.5
vn 0.0 0.866 0.5
vn 0.0 0.5 0.866
vn 0.0 -0.0 1.0
vn 0.0 -0.0 1.0
vn 0.0 -0.5 0.866
vn 0.0 -0.5 0.866
vn 0.0 -0.866 0.5
vn 0.0 -0.866 0.5
vn 0.0 -0.866 -0.5
vn 0.0 -1.0 -0.0
vn 0.0 -0.5 -0.866
vn 0.0 -0.0 -1.0
vn 0.0 0.5 -0.866
vn 0.0 0.866 -0.5
vn 0.0 1.0 -0.0
vn 0.0 0.866 0.5
vn 0.0 0.5 0.866
vn 0.0 -0.0 1.0
vn 0.0 -0.5 0.866
vn 0.0 -0.866 0.5
vn 0.0 -0.866 -0.5
vn 0.0 -1.0 0.0
vn 0.0 -0.5 -0.866
vn 0.0 -0.0 -1.0
vn 0.0 0.5 -0.866
vn 0.0 0.866 -0.5
vn 0.0 1.0 0.0
vn 0.0 0.866 0.5
vn 0.0 0.5 0.866
vn 0.0 -0.0 1.0
vn 0.0 -0.5 0.866
vn 0.0 -0.866 0.5
vtan 0.0 0.0 1.0
vtan 0.0 -0.5 0.866
vtan 0.0 -0.5 0.866
vtan 0.0 -0.0 1.0
vtan 0.0 -0.866 0.5
vtan 0.0 -0.866 0.5
vtan 0.0 -1.0 0.0
vtan 0.0 -1.0 0.0
vtan 0.0 -0.866 -0.5
vtan 0.0 -0.866 -0.5
vtan 0.0 -0.5 -0.866
vtan 0.0 -0.5 -0.866
vtan 0.0 0.0 -1.0
vtan 0.0 -0.0 -1.0
vtan 0.0 0.5 -0.866
vtan 0.0 0.5 -0.866
vtan 0.0 0.866 -0.5
vtan 0.0 0.866 -0.5
vtan 0.0 1.0 0.0
vtan 0.0 1.0 0.0
vtan 0.0 0.866 0.5
vtan 0.0 0.866 0.5
vtan 0.0 0.5 0.866
vtan 0.0 0.5 0.866
vtan 0.0 0.0 1.0
vtan 0.0 -0.0 1.0
vtan 0.0 0.0 1.0
vtan 0.0 -0.5 0.866
vtan 0.0 -0.866 0.5
vtan 0.0 -1.0 0.0
vtan 0.0 -0.866 -0.5001
vtan 0.0 -0.5 -0.866
vtan 0.0 0.0 -1.0
vtan 0.0 0.0 -1.0
vtan 0.0 0.5 -0.866
vtan 0.0 0.866 -0.5
vtan 0.0 1.0 0.0
vtan 0.0 0.866 0.5
vtan 0.0 0.866 0.5
vtan 0.0 0.5 0.866
vtan 0.0 0.0 1.0
vtan 0.0 0.0 1.0
vtan 0.0 -0.0 1.0
vtan 0.0 -0.5 0.866
vtan 0.0 -0.866 0.5
vtan 0.0 -1.0 0.0
vtan 0.0 -0.866 -0.5
vtan 0.0 -0.5 -0.866
vtan 0.0 -0.0 -1.0
vtan 0.0 0.5 -0.866
vtan 0.0 0.5 -0.866
vtan 0.0 0.866 -0.5
vtan 0.0 1.0 0.0
vtan 0.0 0.866 0.5
vtan 0.0 0.5 0.866
vtan 0.0 -0.0 1.0
vtan 0.0 0.0 1.0
vtan 0.0 -0.5 0.866
vtan 0.0 -0.5 0.866
vtan 0.0 -0.866 0.5
vtan 0.0 -1.0 0.0
vtan 0.0 -0.866 -0.5001
vtan 0.0 -0.866 -0.5
vtan 0.0 -0.5 -0.866
vtan 0.0 0.0 -1.0
vtan 0.0 0.5 -0.866
vtan 0.0 0.866 -0.5
vtan 0.0 1.0 0.0
vtan 0.0 1.0 0.0
vtan 0.0 0.866 0.5
vtan 0.0 0.5 0.866
vtan 0.0 0.0 1.0
vtan 0.0 -0.5 0.866
vtan 0.0 -0.5 0.866
vtan 0.0 0.0 1.0
vtan 0.0 -0.0 1.0
vtan 0.0 -0.866 0.5
vtan 0.0 -0.866 0.5
vtan 0.0 -1.0 0.0
vtan 0.0 -1.0 0.0
vtan 0.0 -0.866 -0.5
vtan 0.0 -0.866 -0.5001
vtan 0.0 -0.5 -0.866
vtan 0.0 -0.5 -0.866
vtan 0.0 0.0 -1.0
vtan 0.0 0.5 -0.866
vtan 0.0 0.5 -0.866
vtan 0.0 0.866 -0.5
vtan 0.0 1.0 0.0
vtan 0.0 0.866 0.5
vtan 0.0 0.866 0.5
vtan 0.0 0.5 0.866
vtan 0.0 0.5 0.866
vtan 0.0 -0.0 1.0
vtan 0.0 0.0 1.0
vtan 0.0 -0.5 0.866
vtan 0.0 -0.0 1.0
vtan 0.0 -0.866 0.5
vtan 0.0 -0.866 0.5
vtan 0.0 -1.0 0.0
vtan 0.0 -0.5 -0.866
vtan 0.0 -0.0 -1.0
vtan 0.0 0.5 -0.866
vtan 0.0 0.866 -0.5
vtan 0.0 0.866 -0.5
vtan 0.0 1.0 0.0
vtan 0.0 0.866 0.5
vtan 0.0 0.866 0.5
vtan 0.0 0.5 0.866
vtan 0.0 0.5 0.866
vtan 0.0 -0.0 1.0
vtan 0.0 -0.5 0.866
vtan 0.0 0.0 1.0
vtan 0.0 -0.866 0.5
vtan 0.0 -1.0 0.0
vtan 0.0 -0.866 -0.5
vtan 0.0 -0.5 -0.866
vtan 0.0 0.0 -1.0
vtan 0.0 0.5 -0.866
vtan 0.0 0.866 -0.5
vtan 0.0 0.866 -0.5
vtan 0.0 1.0 0.0
vtan 0.0 0.866 0.5
vtan 0.0 0.866 0.5
vtan 0.0 0.5 0.866
vtan 0.0 -0.0 1.0
vtan 0.0 0.0 1.0
vtan 0.0 0.0 1.0
vtan 0.0 0.0 1.0
vtan 0.0 -1.0 0.0
vtan 0.0 -0.5 -0.866
vtan 0.0 0.866 0.5
vtan 0.0 0.5 0.866
f 0/0/0/0 1/1/1/1 2/2/2/2 
f 0/0/0/0 2/2/2/2 3/3/3/3 
f 1/1/1/1 4/4/4/4 5/5/5/5 
f 1/1/1/1 5/5/5/5 2/2/2/2 
f 4/4/4/4 6/6/6/6 7/7/7/7 
f 4/4/4/4 7/7/7/7 5/5/5/5 
f 6/6/6/6 8/8/8/8 9/9/9/9 
f 6/6/6/6 9/9/9/9 7/7/7/7 
f 8/8/8/8 10/10/10/10 11/11/11/11 
f 8/8/8/8 11/11/11/11 9/9/9/9 
f 10/10/10/10 12/12/12/12 13/13/13/13 
f 10/10/10/10 13/13/13/13 11/11/11/11 
f 12/12/12/12 14/14/14/14 15/15/15/15 
f 12/12/12/12 15/15/15/15 13/13/13/13 
f 14/14/14/14 16/16/16/16 17/17/17/17 
f 14/14/14/14 17/17/17/17 15/15/15/15 
f 16/16/16/16 18/18/18/18 19/19/19/19 
f 16/16/16/16 19/19/19/19 17/17/17/17 
f 18/18/18/18 20/20/20/20 21/21/21/21 
f 18/18/18/18 21/21/21/21 19/19/19/19 
f 20/20/20/20 22/22/22/22 23/23/23/23 
f 20/20/20/20 23/23/23/23 21/21/21/21 
f 22/22/22/22 0/24/0/24 3/25/3/25 
f 22/22/22/22 3/25/3/25 23/23/23/23 
f 1/2/1/1 0/3/0/0 24/0/24/26 
f 1/2/1/1 24/0/24/26 25/1/25/27 
f 25/1/25/27 26/4/26/28 4/5/4/4 
f 25/1/25/27 4/5/4/4 1/2/1/1 
f 26/4/26/28 27/6/27/29 6/7/6/6 
f 26/4/26/28 6/7/6/6 4/5/4/4 
f 27/6/27/29 28/8/28/30 8/9/8/8 
f 27/6/27/29 8/9/8/8 6/7/6/6 
f 28/8/28/30 29/10/29/31 10/11/10/10 
f 28/8/28/30 10/11/10/10 8/9/8/8 
f 29/10/29/31 30/12/30/32 12/13/12/33 
f 29/10/29/31 12/13/12/33 10/11/10/10 
f 30/12/30/32 31/14/31/34 14/15/14/14 
f 30/12/30/32 14/15/14/14 12/13/12/33 
f 31/14/31/34 32/16/16/35 16/17/16/16 
f 31/14/31/34 16/17/16/16 14/15/14/14 
f 32/16/16/35 33/18/32/36 18/19/18/18 
f 32/16/16/35 18/19/18/18 16/17/16/16 
f 33/18/32/36 34/20/33/37 20/21/20/38 
f 33/18/32/36 20/21/20/38 18/19/18/18 
f 34/20/33/37 35/22/34/39 22/23/22/22 
f 34/20/33/37 22/23/22/22 20/21/20/38 
f 0/25/0/40 22/23/22/22 35/22/34/39 
f 0/25/0/40 35/22/34/39 24/24/24/41 
f 36/0/35/42 37/1/36/43 25/2/25/27 
f 36/0/35/42 25/2/25/27 24/3/24/26 
f 37/1/36/43 38/4/37/44 26/5/26/28 
f 37/1/36/43 26/5/26/28 25/2/25/27 
f 38/4/37/44 39/6/38/45 27/7/27/29 
f 38/4/37/44 27/7/27/29 26/5/26/28 
f 39/6/38/45 40/8/39/46 28/9/28/30 
f 39/6/38/45 28/9/28/30 27/7/27/29 
f 40/8/39/46 41/10/40/47 29/11/29/31 
f 40/8/39/46 29/11/29/31 28/9/28/30 
f 41/10/40/47 42/12/41/48 30/13/30/32 
f 41/10/40/47 30/13/30/32 29/11/29/31 
f 42/12/41/48 43/14/42/49 31/15/31/50 
f 42/12/41/48 31/15/31/50 30/13/30/32 
f 43/14/42/49 44/16/43/51 32/17/16/16 
f 43/14/42/49 32/17/16/16 31/15/31/50 
f 44/16/43/51 45/18/44/52 33/19/32/36 
f 44/16/43/51 33/19/32/36 32/17/16/16 
f 45/18/44/52 46/20/45/53 34/21/33/37 
f 45/18/44/52 34/21/33/37 33/19/32/36 
f 46/20/45/53 47/22/46/54 35/23/34/39 
f 46/20/45/53 35/23/34/39 34/21/33/37 
f 47/22/46/54 36/24/35/55 24/25/24/41 
f 47/22/46/54 24/25/24/41 35/23/34/39 
f 48/26/47/56 49/27/48/57 37/2/36/58 
f 48/26/47/56 37/2/36/58 36/3/35/42 
f 49/27/48/57 50/28/49/59 38/5/37/44 
f 49/27/48/57 38/5/37/44 37/2/36/58 
f 50/28/49/59 51/29/50/60 39/7/38/45 
f 50/28/49/59 39/7/38/45 38/5/37/44 
f 51/29/50/60 52/30/51/61 40/9/39/62 
f 51/29/50/60 40/9/39/62 39/7/38/45 
f 52/30/51/61 53/31/52/63 41/11/40/47 
f 52/30/51/61 41/11/40/47 40/9/39/62 
f 53/31/52/63 54/32/53/64 42/13/41/48 
f 53/31/52/63 42/13/41/48 41/11/40/47 
f 54/32/53/64 55/33/54/65 43/15/42/49 
f 54/32/53/64 43/15/42/49 42/13/41/48 
f 55/33/54/65 56/34/55/66 44/17/43/51 
f 55/33/54/65 44/17/43/51 43/15/42/49 
f 56/34/55/66 57/35/56/67 45/19/44/68 
f 56/34/55/66 45/19/44/68 44/17/43/51 
f 57/35/56/67 58/36/57/69 46/21/45/53 
f 57/35/56/67 46/21/45/53 45/19/44/68 
f 58/36/57/69 59/37/58/70 47/23/46/54 
f 58/36/57/69 47/23/46/54 46/21/45/53 
f 59/37/58/70 48/38/47/71 36/25/35/55 
f 59/37/58/70 36/25/35/55 47/23/46/54 
f 60/2/59/72 61/1/60/73 62/0/61/74 
f 60/2/59/72 62/0/61/74 63/3/62/75 
f 64/5/63/76 65/4/64/77 61/1/60/73 
f 64/5/63/76 61/1/60/73 60/2/59/72 
f 66/7/65/78 67/6/66/79 65/4/64/77 
f 66/7/65/78 65/4/64/77 64/5/63/76 
f 68/9/67/80 69/8/68/81 67/6/66/79 
f 68/9/67/80 67/6/66/79 66/7/65/78 
f 70/11/69/82 71/10/70/83 69/8/68/81 
f 70/11/69/82 69/8/68/81 68/9/67/80 
f 72/13/71/84 73/12/72/33 71/10/70/83 
f 72/13/71/84 71/10/70/83 70/11/69/82 
f 74/15/73/85 75/14/74/86 73/12/72/33 
f 74/15/73/85 73/12/72/33 72/13/71/84 
f 76/17/75/87 77/16/43/51 75/14/74/86 
f 76/17/75/87 75/14/74/86 74/15/73/85 
f 78/19/76/19 79/18/77/88 77/16/43/51 
f 78/19/76/19 77/16/43/51 76/17/75/87 
f 80/21/78/89 81/20/79/90 79/18/77/88 
f 80/21/78/89 79/18/77/88 78/19/76/19 
f 82/23/80/91 83/22/81/92 81/20/79/90 
f 82/23/80/91 81/20/79/90 80/21/78/89 
f 63/25/62/93 62/24/61/94 83/22/81/92 
f 63/25/62/93 83/22/81/92 82/23/80/91 
f 61/2/60/73 84/1/82/95 85/0/83/96 
f 61/2/60/73 85/0/83/96 62/3/61/74 
f 65/5/64/97 86/4/84/98 84/1/82/95 
f 65/5/64/97 84/1/82/95 61/2/60/73 
f 67/7/66/79 87/6/85/99 86/4/84/98 
f 67/7/66/79 86/4/84/98 65/5/64/97 
f 69/9/68/81 88/8/86/46 87/6/85/99 
f 69/9/68/81 87/6/85/99 67/7/66/79 
f 71/11/70/83 89/10/87/100 88/8/86/46 
f 71/11/70/83 88/8/86/46 69/9/68/81 
f 73/13/72/33 90/12/88/101 89/10/87/100 
f 73/13/72/33 89/10/87/100 71/11/70/83 
f 75/15/74/86 91/14/89/102 90/12/88/101 
f 75/15/74/86 90/12/88/101 73/13/72/33 
f 77/17/43/103 92/16/90/104 91/14/89/102 
f 77/17/43/103 91/14/89/102 75/15/74/86 
f 79/19/77/88 93/18/91/105 92/16/90/104 
f 79/19/77/88 92/16/90/104 77/17/43/103 
f 81/21/79/106 94/20/92/107 93/18/91/105 
f 81/21/79/106 93/18/91/105 79/19/77/88 
f 83/23/81/108 95/22/93/109 94/20/92/107 
f 83/23/81/108 94/20/92/107 81/21/79/106 
f 62/25/61/94 85/24/83/110 95/22/93/109 
f 62/25/61/94 95/22/93/109 83/23/81/108 
f 84/2/82/95 96/1/94/111 97/0/95/112 
f 84/2/82/95 97/0/95/112 85/3/83/96 
f 86/5/84/98 98/4/96/113 96/1/94/111 
f 86/5/84/98 96/1/94/111 84/2/82/95 
f 87/7/85/99 99/6/97/114 98/4/96/113 
f 87/7/85/99 98/4/96/113 86/5/84/98 
f 88/9/86/46 100/8/98/115 99/6/97/114 
f 88/9/86/46 99/6/97/114 87/7/85/99 
f 89/11/87/100 101/10/99/116 100/8/98/115 
f 89/11/87/100 100/8/98/115 88/9/86/46 
f 90/13/88/101 102/12/100/117 101/10/99/116 
f 90/13/88/101 101/10/99/116 89/11/87/100 
f 91/15/89/85 103/14/101/118 102/12/100/117 
f 91/15/89/85 102/12/100/117 90/13/88/101 
f 92/17/90/119 104/16/102/120 103/14/101/118 
f 92/17/90/119 103/14/101/118 91/15/89/85 
f 93/19/91/105 105/18/103/121 104/16/102/120 
f 93/19/91/105 104/16/102/120 92/17/90/119 
f 94/21/92/122 106/20/104/123 105/18/103/121 
f 94/21/92/122 105/18/103/121 93/19/91/105 
f 95/23/93/109 107/22/105/124 106/20/104/123 
f 95/23/93/109 106/20/104/123 94/21/92/122 
f 85/25/83/125 97/24/95/126 107/22/105/124 
f 85/25/83/125 107/22/105/124 95/23/93/109 
f 96/2/94/111 49/27/48/57 48/26/47/127 
f 96/2/94/111 48/26/47/127 97/3/95/128 
f 98/5/96/113 50/28/49/59 49/27/48/57 
f 98/5/96/113 49/27/48/57 96/2/94/111 
f 99/7/97/129 51/29/50/60 50/28/49/59 
f 99/7/97/129 50/28/49/59 98/5/96/113 
f 100/9/98/115 52/30/51/61 51/29/50/60 
f 100/9/98/115 51/29/50/60 99/7/97/129 
f 101/11/99/116 53/31/52/130 52/30/51/61 
f 101/11/99/116 52/30/51/61 100/9/98/115 
f 102/13/100/117 54/32/53/64 53/31/52/130 
f 102/13/100/117 53/31/52/130 101/11/99/116 
f 103/15/101/118 55/33/54/65 54/32/53/64 
f 103/15/101/118 54/32/53/64 102/13/100/117 
f 104/17/102/120 56/34/55/66 55/33/54/65 
f 104/17/102/120 55/33/54/65 103/15/101/118 
f 105/19/103/121 57/35/56/67 56/34/55/66 
f 105/19/103/121 56/34/55/66 104/17/102/120 
f 106/21/104/123 58/36/57/131 57/35/56/67 
f 106/21/104/123 57/35/56/67 105/19/103/121 
f 107/23/105/124 59/37/58/132 58/36/57/131 
f 107/23/105/124 58/36/57/131 106/21/104/123 
f 97/25/95/126 48/38/47/71 59/37/58/132 
f 97/25/95/126 59/37/58/132 107/23/105/124 
