v 137.7883 55.4848 158.1667
v 132.3237 51.9385 155.2362
v 127.7889 55.3025 161.6241
v 134.1024 58.4869 163.8177
v 141.4072 52.8401 152.258
v 135.0836 49.709 150.026
v 127.4997 55.5698 151.4317
v 123.8522 58.3674 157.2301
v 131.0751 53.1565 145.3562
v 125.6766 55.2115 164.3506
v 125.472 57.178 174.5111
v 131.5556 60.1576 174.4072
v 133.0966 57.3929 164.2867
v 131.3577 59.622 154.3582
v 125.1113 56.659 154.8009
v 119.2419 60.5776 173.3522
v 117.486 59.9434 165.0953
v 117.536 59.8692 156.4556
v 117.063 57.2288 166.2433
v 117.3645 56.0787 158.4067
v 110.6106 55.9336 159.4189
v 109.963 57.7023 166.6043
v 105.4026 61.7428 165.6506
v 106.2263 61.4384 157.0742
v 111.6503 60.468 173.6656
v 118.6164 61.8564 171.9768
v 107.3629 67.0677 171.3085
v 119.6672 54.7966 178.6283
v 126.8173 57.743 177.2165
v 124.7136 56.6246 170.828
v 117.6754 54.4988 171.7925
v 115.2371 58.0503 167.3213
v 122.6168 62.1164 166.3017
v 110.6389 53.4466 175.0561
v 112.6312 55.9661 181.5655
v 107.947 59.8756 170.6716
v 125.9754 52.4314 180.2888
v 132.1376 53.0534 178.2544
v 129.8077 55.9262 171.1579
v 123.5822 52.5103 172.0104
v 126.4445 54.7956 166.3133
v 121.101 52.8359 166.1666
v 118.1307 56.6765 175.0129
v 120.5674 55.8189 182.0742
v 115.4932 55.2915 168.0179
v 114.6005 57.1738 170.5762
v 109.0161 53.1203 172.2705
v 114.0098 51.1753 178.9801
v 119.1438 55.6203 176.2681
v 109.9001 59.0734 165.1196
v 104.7427 54.68 167.8666
v 104.8523 55.2316 177.7802
v 109.4854 53.4801 183.3375
v 100.0503 57.3551 172.4759
v 118.237 58.1226 157.8613
v 114.5052 59.4727 149.5119
v 107.0386 61.6174 155.9442
v 110.4738 58.2014 162.141
v 104.5094 58.527 165.8856
v 98.944 66.0539 159.6196
v 114.9155 61.7113 167.7053
v 121.1644 61.5101 163.6125
v 108.1064 62.3373 171.5414
v 110.4484 57.6617 149.9105
v 111.4711 59.9897 142.4413
v 104.7332 58.9358 142.4536
v 103.3334 57.4082 149.5947
v 98.3533 61.0664 150.1047
v 99.8343 64.4978 142.4413
v 104.1205 56.9899 157.3797
v 110.9525 59.4505 157.3797
v 99.173 63.5363 157.8857
v 101.167 57.156 152.4232
v 100.0796 53.8476 151.6183
v 99.6351 52.5734 156.6333
v 102.1982 56.3979 157.3221
v 99.2966 57.8503 145.7093
v 98.6462 54.1649 147.1585
v 93.9305 51.1743 154.1066
v 94.4232 51.8673 157.3763
v 92.6202 51.5977 148.4444
v 104.5919 54.6594 170.0238
v 112.0071 57.2615 169.7431
v 111.6693 54.7381 160.883
v 104.4214 53.0432 161.1224
v 103.648 54.8005 152.3352
v 111.2435 57.383 151.7091
v 96.6828 57.4859 161.0768
v 97.0323 58.5179 169.8275
v 95.7927 58.2225 152.3243
v 124.1405 59.3966 134.8914
v 121.6367 66.1145 132.6374
v 113.2105 62.5377 133.1765
v 115.6912 56.5166 136.0736
v 107.8119 55.4401 140.3079
v 104.9222 62.2024 138.0231
v 118.5455 54.0971 144.2933
v 126.7482 56.6907 142.573
v 110.6575 52.2834 147.7643
v 135.6779 58.7305 150.9148
v 136.7018 61.0581 143.4455
v 129.9634 60.0074 143.4578
v 128.5627 58.4805 150.599
v 123.5847 62.141 151.109
v 125.0674 65.5716 143.4455
v 129.3497 58.0617 158.384
v 136.1829 60.5191 158.384
v 124.4056 64.6105 158.89
v 130.2754 54.1901 165.1822
v 136.1203 59.1944 164.9015
v 136.8112 56.7349 156.0414
v 130.7605 52.6309 156.2809
v 129.3434 53.9914 147.4936
v 135.3634 59.0405 146.8676
v 121.8116 54.0505 156.2352
v 121.7252 55.1302 164.9859
v 120.6925 54.4232 147.4828
v 126.3099 57.3656 169.7635
v 135.3578 58.7157 171.0953
v 133.9371 60.8604 161.3431
v 126.8647 57.4445 160.9162
v 126.9059 57.7701 153.8739
v 135.1798 65.2969 152.5404
v 119.7859 60.9543 161.678
v 119.886 60.7531 169.1473
v 120.2031 61.5803 153.8739
v 145.6674 52.1431 152.9011
v 138.8711 53.5362 152.1983
v 139.2683 56.1122 159.292
v 147.0021 56.1159 159.6379
v 147.3344 57.2777 147.1529
v 138.9474 55.6936 146.6685
v 131.2804 55.2203 153.3642
v 132.9159 60.9377 159.2856
v 132.4935 59.7711 147.2472
v 139.458 53.4452 161.325
v 141.2287 53.6624 158.1135
v 138.2462 54.8717 157.1838
v 136.1692 53.7719 160.1337
v 133.9811 56.6958 159.7043
v 135.2357 57.2375 155.8318
v 135.79 54.3357 163.9411
v 139.1133 53.8709 164.984
v 132.8142 56.497 163.2624
v 124.9615 56.1081 170.2459
v 124.4611 53.5039 173.5849
v 128.8317 54.7344 174.1483
v 129.1819 56.3341 170.4664
v 120.7323 57.5054 170.7783
v 120.6761 55.2179 174.409
v 124.9318 53.2449 178.0412
v 128.6794 54.7328 178.5049
v 120.7356 54.1124 178.4207
v 117.973 55.8889 171.0616
v 125.4422 58.2949 170.4337
v 125.4299 53.7803 162.5189
v 118.147 52.2419 162.873
v 117.7787 51.8919 153.8698
v 125.4422 54.1971 152.9212
v 110.5037 56.5828 161.2959
v 110.5037 59.6277 169.5022
v 109.9977 55.2535 152.5927
v 112.17 57.3251 160.4543
v 114.5663 57.2104 168.7278
v 119.6775 53.8192 166.2041
v 117.8406 53.8095 158.9655
v 115.5613 57.069 174.9951
v 121.2685 53.5892 173.498
v 106.2377 55.9417 161.8926
v 107.934 55.8142 169.1628
v 109.3659 55.4292 176.4925
v 115.2458 54.1902 158.8025
v 121.0907 59.1944 158.5218
v 121.7816 56.7349 149.6617
v 115.7309 52.6309 149.9011
v 114.3138 53.9914 141.1139
v 120.3338 59.0405 140.4879
v 106.782 54.0505 149.8555
v 106.6956 55.1302 158.6061
v 105.6629 54.4232 141.103
v 107.9995 57.499 138.16
v 103.4854 58.6881 144.5469
v 111.0126 56.1592 149.2292
v 115.3548 55.8285 143.156
v 122.5913 57.5779 148.2036
v 118.2457 58.7104 154.937
v 119.5092 61.6023 137.9472
v 112.2337 62.6651 133.08
v 126.9056 62.3728 142.7046
v 118.3057 52.5783 167.1073
v 124.1506 57.5825 166.8266
v 124.8415 55.1231 157.9665
v 118.7908 51.019 158.2059
v 117.3737 52.3795 149.4186
v 123.3937 57.4286 148.7926
v 109.8419 52.4387 158.1603
v 109.7556 53.5184 166.9109
v 108.7228 52.8113 149.4078
v 127.9322 55.2598 154.4583
v 121.7532 51.8439 153.3162
v 121.4305 51.765 161.9276
v 127.9199 55.2846 161.9276
v 127.7479 55.6301 146.9891
v 121.2291 52.1695 146.9891
v 115.6353 55.3538 154.4583
v 115.7355 55.1525 161.9276
v 115.3237 55.9797 146.9891
v 128.5976 53.2807 146.1292
v 126.0123 54.8481 138.813
v 120.7615 56.9996 142.5302
v 123.2283 56.3034 149.5285
v 121.5203 61.7696 151.3569
v 119.6188 64.0919 143.3207
v 128.0986 55.5791 155.6201
v 134.0211 54.6136 151.4444
v 127.6379 63.5535 156.564
v 123.1666 59.4142 151.2835
v 123.9194 60.1549 146.3108
v 119.2568 59.7917 146.319
v 118.637 57.6592 151.0733
v 113.9482 60.1175 151.4128
v 113.6324 60.8532 145.7814
v 119.2201 58.8868 156.2563
v 123.8278 60.4532 156.2563
v 114.0219 59.8262 156.5931
v 105.4984 62.2198 138.4159
v 104.9344 62.2198 145.8068
v 109.8029 58.7233 146.3733
v 112.4583 59.5301 139.2893
v 105.0223 62.2198 156.0247
v 110.2208 58.7233 153.1977
v 119.4183 62.2198 144.742
v 118.5748 63.9373 140.2528
v 119.4183 61.7562 153.1977
v 108.7049 57.9428 162.6476
v 109.3698 54.4463 155.0461
v 102.1874 58.633 155.6877
v 101.314 57.9428 162.6476
v 116.0958 57.9428 162.6476
v 116.0958 54.4463 155.6877
v 107.6401 57.9428 148.7277
v 103.7159 61.285 148.7277
v 116.0958 54.8717 148.7277
v 100.1495 53.4496 164.8688
v 100.0715 53.1356 161.1847
v 94.9698 52.7421 160.7962
v 95.2038 52.703 165.6563
v 106.8622 54.5447 163.2515
v 104.5032 53.8932 159.8856
v 97.3674 54.3901 156.2056
v 94.4117 54.2082 157.7164
v 102.9659 55.1945 154.8279
v 107.4235 56.8271 132.5578
v 103.4534 61.6266 131.8226
v 104.6954 63.935 139.4107
v 106.1685 57.4519 141.0576
v 104.2588 62.2546 145.1404
v 105.9728 57.5844 147.4113
v 113.6953 56.1794 140.9302
v 113.9192 55.3455 133.4606
v 111.8993 55.3143 148.2783
v 104.2427 60.7685 138.0667
v 104.5565 59.0471 142.0546
v 107.8784 62.0462 142.2243
v 107.929 62.7147 138.2102
v 99.7152 60.4731 138.1564
v 100.25 59.288 142.3287
v 104.541 60.111 146.4078
v 107.195 63.0689 146.4043
v 100.3036 59.312 146.5104
v 108.5258 55.1981 141.4242
v 101.0079 58.9015 137.7196
v 99.6567 61.2175 145.1252
v 106.66 56.8122 148.4536
v 111.0897 50.001 151.427
v 112.757 47.4768 143.9675
v 100.6808 53.7213 154.4322
v 94.2406 58.4586 151.1371
v 105.7253 47.6903 157.7666
v 97.391 52.2405 149.9911
v 99.6589 57.989 154.4608
v 107.1966 57.9118 149.0712
v 104.5337 52.997 144.4621
v 109.4367 56.2026 137.7105
v 112.0463 62.1053 142.0887
v 98.4333 52.9476 137.7416
v 91.807 51.8345 143.4503
v 103.823 55.2523 131.1907
v 124.4703 56.6272 149.4022
v 130.5538 59.5907 149.7481
v 132.0948 58.1913 139.3124
v 124.6749 56.0233 139.0471
v 130.3559 61.7104 129.819
v 124.1095 58.7186 129.8109
v 118.2402 60.1459 148.7669
v 116.4843 60.6094 140.4972
v 116.5342 61.678 131.9327
v 132.6165 59.7954 140.1011
v 132.3411 60.3891 135.1013
v 127.8372 60.098 135.2201
v 127.4756 58.3888 139.9216
v 123.0919 60.3591 140.2116
v 122.8221 60.9487 135.0367
v 127.8058 59.3727 144.553
v 132.0657 60.6282 144.553
v 123.1547 60.1256 144.8407
v 135.8734 60.1979 150.6243
v 141.7798 57.6469 151.124
v 141.8992 55.8151 143.2909
v 134.6393 55.735 143.55
v 138.8643 52.9418 139.0935
v 133.2122 52.988 138.0918
v 132.6819 65.1246 147.8558
v 131.6838 61.9673 141.2014
v 129.3676 57.3744 135.8471
v 116.9862 56.6296 138.3167
v 117.1292 52.7691 132.6702
v 108.6106 53.9809 132.8226
v 109.6342 57.8097 138.6936
v 124.3606 55.6124 137.7376
v 123.3403 51.808 131.8365
v 115.7657 53.1348 126.8638
v 108.4009 54.2217 127.3564
v 123.1545 52.2231 126.1538
v 135.4206 52.8295 172.1295
v 130.1555 52.3209 167.153
v 125.0133 52.856 174.0449
v 131.1931 53.2642 178.2698
v 139.6751 52.8298 165.9749
v 133.4994 52.4865 161.7479
v 126.5983 58.0862 165.6564
v 122.3553 58.272 171.8049
v 130.8702 58.3679 159.4926
v 118.3372 54.9215 134.9815
v 114.5395 56.7693 128.3131
v 107.2567 53.0039 132.3965
v 110.7706 52.0263 138.9101
v 102.8892 52.5174 143.2623
v 98.713 54.2785 136.5758
v 113.0234 57.0818 145.8513
v 120.4969 59.3644 141.8365
v 105.4216 56.5856 150.3176
v 114.5253 54.3329 137.1948
v 114.5203 60.5117 141.5849
v 123.3507 58.4037 143.2675
v 123.4024 53.0526 138.4478
v 132.2387 54.1752 137.0999
v 132.5706 60.4418 141.6629
v 123.8457 52.4123 129.4081
v 115.1033 53.3191 128.6715
v 132.6381 52.6429 128.6018
v 131.3631 52.0181 132.5678
v 127.4124 58.0026 130.0463
v 123.8642 58.0124 138.6068
v 128.2712 52.8406 141.0478
v 127.8643 55.9813 149.41
v 123.6812 62.1292 147.1488
v 136.9868 52.3232 143.5211
v 139.5255 51.1703 135.1575
v 136.0095 54.5897 151.9596
v 102.2908 56.4106 167.0163
v 105.1396 56.9778 169.257
v 106.8257 56.3038 166.4169
v 103.9935 54.8136 164.4567
v 105.6259 56.0331 161.2388
v 109.2752 56.4983 163.0665
v 100.6237 55.6923 162.7932
v 99.0134 57.1698 165.4945
v 102.368 55.8441 159.3916
v 115.8951 50.3831 151.1651
v 116.9177 52.7111 143.6959
v 110.1799 51.6572 143.7082
v 108.7801 50.1297 150.8494
v 103.8 53.7879 151.3594
v 105.2809 57.2192 143.6959
v 109.5672 49.7113 158.6344
v 116.3991 52.1719 158.6344
v 104.6196 56.2577 159.1403
v 132.1322 55.5146 146.4888
v 124.7784 57.8421 144.8279
v 124.2125 56.7914 151.5425
v 131.2072 55.2645 153.5507
v 131.2881 58.925 158.5541
v 123.7802 62.3557 156.4193
v 139.0309 54.8457 153.4346
v 139.6172 57.3032 146.6266
v 139.1108 61.3945 158.4038
v 142.184 54.5449 141.2626
v 138.8428 54.5809 135.6603
v 132.1453 56.0883 139.307
v 134.6252 54.3169 145.3822
v 128.2521 55.3242 143.6968
v 129.4299 54.3506 149.0473
v 138.2865 57.183 149.8155
v 144.7284 56.885 145.96
v 132.1725 56.1398 153.9772
v 129.1533 58.1565 160.9724
v 128.137 55.9091 167.5267
v 135.34 54.4167 167.0754
v 135.1517 52.9441 158.7297
v 142.543 52.9242 166.6242
v 141.7067 51.4221 158.9364
v 134.3022 58.1849 153.7473
v 131.2772 62.1112 154.9344
v 141.8085 53.5976 152.3604
v 116.2493 64.2979 157.8505
v 112.0623 63.2289 163.4106
v 117.7696 59.3918 165.7067
v 120.1214 57.2269 157.8782
v 123.4769 55.5546 168.0028
v 125.0215 53.6467 160.5302
v 123.3235 61.8584 153.172
v 121.8643 66.634 153.2631
v 128.4095 54.9521 154.595
v 116.4932 55.224 162.8777
v 112.3062 54.1551 168.4377
v 118.0135 50.3179 170.7338
v 120.3653 48.153 162.9053
v 123.7208 46.4807 173.03
v 125.2653 44.5728 165.5573
v 123.5674 52.7845 158.1991
v 122.1081 57.5601 158.2902
v 128.6534 45.8783 159.6221
v 126.4583 58.1565 148.8924
v 125.442 55.9091 155.4467
v 132.645 54.4167 154.9954
v 132.4567 52.9441 146.6497
v 139.848 52.9242 154.5442
v 139.0118 51.4221 146.8564
v 131.6073 58.1849 141.6673
v 128.5823 62.1112 142.8544
v 139.1135 53.5976 140.2804
v 119.9238 54.5235 152.4271
v 115.7368 53.4546 157.9872
v 121.4442 49.6174 160.2833
v 123.7959 47.4525 152.4547
v 127.1514 45.7802 162.5794
v 128.696 43.8723 155.1068
v 126.998 52.084 147.7486
v 125.5388 56.8596 147.8396
v 132.084 45.1777 149.1716
v 106.3083 55.1946 165.959
v 104.2194 52.6162 166.9971
v 107.2924 52.5939 172.0997
v 109.0969 55.473 171.3491
v 101.4641 56.3327 162.3917
v 99.7222 53.3867 163.364
v 99.5752 51.603 170.3277
v 102.8708 51.4803 175.0931
v 95.4211 52.0565 166.3497
gi 0 0 0 0
gi 0 0 0 0
gi 0 0 0 0
gi 0 0 0 0
gi 0 0 0 0
gi 0 0 0 0
gi 0 0 0 0
gi 0 0 0 0
gi 0 0 0 0
gi 0 0 0 0
gi 0 0 0 0
gi 0 0 0 0
gi 0 0 0 0
gi 0 0 0 0
gi 0 0 0 0
gi 0 0 0 0
gi 0 0 0 0
gi 0 0 0 0
gi 0 0 0 0
gi 0 0 0 0
gi 0 0 0 0
gi 0 0 0 0
gi 0 0 0 0
gi 0 0 0 0
gi 0 0 0 0
gi 0 0 0 0
gi 0 0 0 0
gi 0 0 0 0
gi 0 0 0 0
gi 0 0 0 0
gi 0 0 0 0
gi 0 0 0 0
gi 0 0 0 0
gi 0 0 0 0
gi 0 0 0 0
gi 0 0 0 0
gi 0 0 0 0
gi 0 0 0 0
gi 0 0 0 0
gi 0 0 0 0
gi 0 0 0 0
gi 0 0 0 0
gi 0 0 0 0
gi 0 0 0 0
gi 0 0 0 0
gi 0 0 0 0
gi 0 0 0 0
gi 0 0 0 0
gi 0 0 0 0
gi 0 0 0 0
gi 0 0 0 0
gi 0 0 0 0
gi 0 0 0 0
gi 0 0 0 0
gi 0 0 0 0
gi 0 0 0 0
gi 0 0 0 0
gi 0 0 0 0
gi 0 0 0 0
gi 0 0 0 0
gi 0 0 0 0
gi 0 0 0 0
gi 0 0 0 0
gi 0 0 0 0
gi 0 0 0 0
gi 0 0 0 0
gi 0 0 0 0
gi 0 0 0 0
gi 0 0 0 0
gi 0 0 0 0
gi 0 0 0 0
gi 0 0 0 0
gi 0 0 0 0
gi 0 0 0 0
gi 0 0 0 0
gi 0 0 0 0
gi 0 0 0 0
gi 0 0 0 0
gi 0 0 0 0
gi 0 0 0 0
gi 0 0 0 0
gi 0 0 0 0
gi 0 0 0 0
gi 0 0 0 0
gi 0 0 0 0
gi 0 0 0 0
gi 0 0 0 0
gi 0 0 0 0
gi 0 0 0 0
gi 0 0 0 0
gi 0 0 0 0
gi 0 0 0 0
gi 0 0 0 0
gi 0 0 0 0
gi 0 0 0 0
gi 0 0 0 0
gi 0 0 0 0
gi 0 0 0 0
gi 0 0 0 0
gi 0 0 0 0
gi 0 0 0 0
gi 0 0 0 0
gi 0 0 0 0
gi 0 0 0 0
gi 0 0 0 0
gi 0 0 0 0
gi 0 0 0 0
gi 0 0 0 0
gi 0 0 0 0
gi 0 0 0 0
gi 0 0 0 0
gi 0 0 0 0
gi 0 0 0 0
gi 0 0 0 0
gi 0 0 0 0
gi 0 0 0 0
gi 0 0 0 0
gi 0 0 0 0
gi 0 0 0 0
gi 0 0 0 0
gi 0 0 0 0
gi 0 0 0 0
gi 0 0 0 0
gi 0 0 0 0
gi 0 0 0 0
gi 0 0 0 0
gi 0 0 0 0
gi 0 0 0 0
gi 0 0 0 0
gi 0 0 0 0
gi 0 0 0 0
gi 0 0 0 0
gi 0 0 0 0
gi 0 0 0 0
gi 0 0 0 0
gi 0 0 0 0
gi 0 0 0 0
gi 0 0 0 0
gi 0 0 0 0
gi 0 0 0 0
gi 0 0 0 0
gi 0 0 0 0
gi 0 0 0 0
gi 0 0 0 0
gi 0 0 0 0
gi 0 0 0 0
gi 0 0 0 0
gi 0 0 0 0
gi 0 0 0 0
gi 0 0 0 0
gi 0 0 0 0
gi 0 0 0 0
gi 0 0 0 0
gi 0 0 0 0
gi 0 0 0 0
gi 0 0 0 0
gi 0 0 0 0
gi 0 0 0 0
gi 0 0 0 0
gi 0 0 0 0
gi 0 0 0 0
gi 0 0 0 0
gi 0 0 0 0
gi 0 0 0 0
gi 0 0 0 0
gi 0 0 0 0
gi 0 0 0 0
gi 0 0 0 0
gi 0 0 0 0
gi 0 0 0 0
gi 0 0 0 0
gi 0 0 0 0
gi 0 0 0 0
gi 0 0 0 0
gi 0 0 0 0
gi 0 0 0 0
gi 0 0 0 0
gi 0 0 0 0
gi 0 0 0 0
gi 0 0 0 0
gi 0 0 0 0
gi 0 0 0 0
gi 0 0 0 0
gi 0 0 0 0
gi 0 0 0 0
gi 0 0 0 0
gi 0 0 0 0
gi 0 0 0 0
gi 0 0 0 0
gi 0 0 0 0
gi 0 0 0 0
gi 0 0 0 0
gi 0 0 0 0
gi 0 0 0 0
gi 0 0 0 0
gi 0 0 0 0
gi 0 0 0 0
gi 0 0 0 0
gi 0 0 0 0
gi 0 0 0 0
gi 0 0 0 0
gi 0 0 0 0
gi 0 0 0 0
gi 0 0 0 0
gi 0 0 0 0
gi 0 0 0 0
gi 0 0 0 0
gi 0 0 0 0
gi 0 0 0 0
gi 0 0 0 0
gi 0 0 0 0
gi 0 0 0 0
gi 0 0 0 0
gi 0 0 0 0
gi 0 0 0 0
gi 0 0 0 0
gi 0 0 0 0
gi 0 0 0 0
gi 0 0 0 0
gi 0 0 0 0
gi 0 0 0 0
gi 0 0 0 0
gi 0 0 0 0
gi 0 0 0 0
gi 0 0 0 0
gi 0 0 0 0
gi 0 0 0 0
gi 0 0 0 0
gi 0 0 0 0
gi 0 0 0 0
gi 0 0 0 0
gi 0 0 0 0
gi 0 0 0 0
gi 0 0 0 0
gi 0 0 0 0
gi 0 0 0 0
gi 0 0 0 0
gi 0 0 0 0
gi 0 0 0 0
gi 0 0 0 0
gi 0 0 0 0
gi 0 0 0 0
gi 0 0 0 0
gi 0 0 0 0
gi 0 0 0 0
gi 0 0 0 0
gi 0 0 0 0
gi 0 0 0 0
gi 0 0 0 0
gi 0 0 0 0
gi 0 0 0 0
gi 0 0 0 0
gi 0 0 0 0
gi 0 0 0 0
gi 0 0 0 0
gi 0 0 0 0
gi 0 0 0 0
gi 0 0 0 0
gi 0 0 0 0
gi 0 0 0 0
gi 0 0 0 0
gi 0 0 0 0
gi 0 0 0 0
gi 0 0 0 0
gi 0 0 0 0
gi 0 0 0 0
gi 0 0 0 0
gi 0 0 0 0
gi 0 0 0 0
gi 0 0 0 0
gi 0 0 0 0
gi 0 0 0 0
gi 0 0 0 0
gi 0 0 0 0
gi 0 0 0 0
gi 0 0 0 0
gi 0 0 0 0
gi 0 0 0 0
gi 0 0 0 0
gi 0 0 0 0
gi 0 0 0 0
gi 0 0 0 0
gi 0 0 0 0
gi 0 0 0 0
gi 0 0 0 0
gi 0 0 0 0
gi 0 0 0 0
gi 0 0 0 0
gi 0 0 0 0
gi 0 0 0 0
gi 0 0 0 0
gi 0 0 0 0
gi 0 0 0 0
gi 0 0 0 0
gi 0 0 0 0
gi 0 0 0 0
gi 0 0 0 0
gi 0 0 0 0
gi 0 0 0 0
gi 0 0 0 0
gi 0 0 0 0
gi 0 0 0 0
gi 0 0 0 0
gi 0 0 0 0
gi 0 0 0 0
gi 0 0 0 0
gi 0 0 0 0
gi 0 0 0 0
gi 0 0 0 0
gi 0 0 0 0
gi 0 0 0 0
gi 0 0 0 0
gi 0 0 0 0
gi 0 0 0 0
gi 0 0 0 0
gi 0 0 0 0
gi 0 0 0 0
gi 0 0 0 0
gi 0 0 0 0
gi 0 0 0 0
gi 0 0 0 0
gi 0 0 0 0
gi 0 0 0 0
gi 0 0 0 0
gi 0 0 0 0
gi 0 0 0 0
gi 0 0 0 0
gi 0 0 0 0
gi 0 0 0 0
gi 0 0 0 0
gi 0 0 0 0
gi 0 0 0 0
gi 0 0 0 0
gi 0 0 0 0
gi 0 0 0 0
gi 0 0 0 0
gi 0 0 0 0
gi 0 0 0 0
gi 0 0 0 0
gi 0 0 0 0
gi 0 0 0 0
gi 0 0 0 0
gi 0 0 0 0
gi 0 0 0 0
gi 0 0 0 0
gi 0 0 0 0
gi 0 0 0 0
gi 0 0 0 0
gi 0 0 0 0
gi 0 0 0 0
gi 0 0 0 0
gi 0 0 0 0
gi 0 0 0 0
gi 0 0 0 0
gi 0 0 0 0
gi 0 0 0 0
gi 0 0 0 0
gi 0 0 0 0
gi 0 0 0 0
gi 0 0 0 0
gi 0 0 0 0
gi 0 0 0 0
gi 0 0 0 0
gi 0 0 0 0
gi 0 0 0 0
gi 0 0 0 0
gi 0 0 0 0
gi 0 0 0 0
gi 0 0 0 0
gi 0 0 0 0
gi 0 0 0 0
gi 0 0 0 0
gi 0 0 0 0
gi 0 0 0 0
gi 0 0 0 0
gi 0 0 0 0
gi 0 0 0 0
gi 0 0 0 0
gi 0 0 0 0
gi 0 0 0 0
gi 0 0 0 0
gi 0 0 0 0
gi 0 0 0 0
gi 0 0 0 0
gi 0 0 0 0
gi 0 0 0 0
gi 0 0 0 0
gi 0 0 0 0
gi 0 0 0 0
gi 0 0 0 0
gi 0 0 0 0
gi 0 0 0 0
gi 0 0 0 0
gi 0 0 0 0
gi 0 0 0 0
gi 0 0 0 0
gi 0 0 0 0
gi 0 0 0 0
gi 0 0 0 0
gi 0 0 0 0
gi 0 0 0 0
gi 0 0 0 0
gi 0 0 0 0
gi 0 0 0 0
gi 0 0 0 0
gi 0 0 0 0
gi 0 0 0 0
gi 0 0 0 0
gi 0 0 0 0
gi 0 0 0 0
gi 0 0 0 0
gi 0 0 0 0
gi 0 0 0 0
gi 0 0 0 0
gi 0 0 0 0
gi 0 0 0 0
gi 0 0 0 0
gi 0 0 0 0
gi 0 0 0 0
gi 0 0 0 0
gi 0 0 0 0
gi 0 0 0 0
gi 0 0 0 0
gi 0 0 0 0
gi 0 0 0 0
gi 0 0 0 0
gi 0 0 0 0
gi 0 0 0 0
gi 0 0 0 0
gi 0 0 0 0
gi 0 0 0 0
gi 0 0 0 0
gi 0 0 0 0
gi 0 0 0 0
gi 0 0 0 0
gi 0 0 0 0
gi 0 0 0 0
gi 0 0 0 0
gi 0 0 0 0
gi 0 0 0 0
gi 0 0 0 0
gi 0 0 0 0
gi 0 0 0 0
gi 0 0 0 0
gi 0 0 0 0
gi 0 0 0 0
gi 0 0 0 0
gi 0 0 0 0
gi 0 0 0 0
gi 0 0 0 0
gw 0.0 0.0 0.0 0.0
gw 0.0 0.0 0.0 0.0
gw 0.0 0.0 0.0 0.0
gw 0.0 0.0 0.0 0.0
gw 0.0 0.0 0.0 0.0
gw 0.0 0.0 0.0 0.0
gw 0.0 0.0 0.0 0.0
gw 0.0 0.0 0.0 0.0
gw 0.0 0.0 0.0 0.0
gw 0.0 0.0 0.0 0.0
gw 0.0 0.0 0.0 0.0
gw 0.0 0.0 0.0 0.0
gw 0.0 0.0 0.0 0.0
gw 0.0 0.0 0.0 0.0
gw 0.0 0.0 0.0 0.0
gw 0.0 0.0 0.0 0.0
gw 0.0 0.0 0.0 0.0
gw 0.0 0.0 0.0 0.0
gw 0.0 0.0 0.0 0.0
gw 0.0 0.0 0.0 0.0
gw 0.0 0.0 0.0 0.0
gw 0.0 0.0 0.0 0.0
gw 0.0 0.0 0.0 0.0
gw 0.0 0.0 0.0 0.0
gw 0.0 0.0 0.0 0.0
gw 0.0 0.0 0.0 0.0
gw 0.0 0.0 0.0 0.0
gw 0.0 0.0 0.0 0.0
gw 0.0 0.0 0.0 0.0
gw 0.0 0.0 0.0 0.0
gw 0.0 0.0 0.0 0.0
gw 0.0 0.0 0.0 0.0
gw 0.0 0.0 0.0 0.0
gw 0.0 0.0 0.0 0.0
gw 0.0 0.0 0.0 0.0
gw 0.0 0.0 0.0 0.0
gw 0.0 0.0 0.0 0.0
gw 0.0 0.0 0.0 0.0
gw 0.0 0.0 0.0 0.0
gw 0.0 0.0 0.0 0.0
gw 0.0 0.0 0.0 0.0
gw 0.0 0.0 0.0 0.0
gw 0.0 0.0 0.0 0.0
gw 0.0 0.0 0.0 0.0
gw 0.0 0.0 0.0 0.0
gw 0.0 0.0 0.0 0.0
gw 0.0 0.0 0.0 0.0
gw 0.0 0.0 0.0 0.0
gw 0.0 0.0 0.0 0.0
gw 0.0 0.0 0.0 0.0
gw 0.0 0.0 0.0 0.0
gw 0.0 0.0 0.0 0.0
gw 0.0 0.0 0.0 0.0
gw 0.0 0.0 0.0 0.0
gw 0.0 0.0 0.0 0.0
gw 0.0 0.0 0.0 0.0
gw 0.0 0.0 0.0 0.0
gw 0.0 0.0 0.0 0.0
gw 0.0 0.0 0.0 0.0
gw 0.0 0.0 0.0 0.0
gw 0.0 0.0 0.0 0.0
gw 0.0 0.0 0.0 0.0
gw 0.0 0.0 0.0 0.0
gw 0.0 0.0 0.0 0.0
gw 0.0 0.0 0.0 0.0
gw 0.0 0.0 0.0 0.0
gw 0.0 0.0 0.0 0.0
gw 0.0 0.0 0.0 0.0
gw 0.0 0.0 0.0 0.0
gw 0.0 0.0 0.0 0.0
gw 0.0 0.0 0.0 0.0
gw 0.0 0.0 0.0 0.0
gw 0.0 0.0 0.0 0.0
gw 0.0 0.0 0.0 0.0
gw 0.0 0.0 0.0 0.0
gw 0.0 0.0 0.0 0.0
gw 0.0 0.0 0.0 0.0
gw 0.0 0.0 0.0 0.0
gw 0.0 0.0 0.0 0.0
gw 0.0 0.0 0.0 0.0
gw 0.0 0.0 0.0 0.0
gw 0.0 0.0 0.0 0.0
gw 0.0 0.0 0.0 0.0
gw 0.0 0.0 0.0 0.0
gw 0.0 0.0 0.0 0.0
gw 0.0 0.0 0.0 0.0
gw 0.0 0.0 0.0 0.0
gw 0.0 0.0 0.0 0.0
gw 0.0 0.0 0.0 0.0
gw 0.0 0.0 0.0 0.0
gw 0.0 0.0 0.0 0.0
gw 0.0 0.0 0.0 0.0
gw 0.0 0.0 0.0 0.0
gw 0.0 0.0 0.0 0.0
gw 0.0 0.0 0.0 0.0
gw 0.0 0.0 0.0 0.0
gw 0.0 0.0 0.0 0.0
gw 0.0 0.0 0.0 0.0
gw 0.0 0.0 0.0 0.0
gw 0.0 0.0 0.0 0.0
gw 0.0 0.0 0.0 0.0
gw 0.0 0.0 0.0 0.0
gw 0.0 0.0 0.0 0.0
gw 0.0 0.0 0.0 0.0
gw 0.0 0.0 0.0 0.0
gw 0.0 0.0 0.0 0.0
gw 0.0 0.0 0.0 0.0
gw 0.0 0.0 0.0 0.0
gw 0.0 0.0 0.0 0.0
gw 0.0 0.0 0.0 0.0
gw 0.0 0.0 0.0 0.0
gw 0.0 0.0 0.0 0.0
gw 0.0 0.0 0.0 0.0
gw 0.0 0.0 0.0 0.0
gw 0.0 0.0 0.0 0.0
gw 0.0 0.0 0.0 0.0
gw 0.0 0.0 0.0 0.0
gw 0.0 0.0 0.0 0.0
gw 0.0 0.0 0.0 0.0
gw 0.0 0.0 0.0 0.0
gw 0.0 0.0 0.0 0.0
gw 0.0 0.0 0.0 0.0
gw 0.0 0.0 0.0 0.0
gw 0.0 0.0 0.0 0.0
gw 0.0 0.0 0.0 0.0
gw 0.0 0.0 0.0 0.0
gw 0.0 0.0 0.0 0.0
gw 0.0 0.0 0.0 0.0
gw 0.0 0.0 0.0 0.0
gw 0.0 0.0 0.0 0.0
gw 0.0 0.0 0.0 0.0
gw 0.0 0.0 0.0 0.0
gw 0.0 0.0 0.0 0.0
gw 0.0 0.0 0.0 0.0
gw 0.0 0.0 0.0 0.0
gw 0.0 0.0 0.0 0.0
gw 0.0 0.0 0.0 0.0
gw 0.0 0.0 0.0 0.0
gw 0.0 0.0 0.0 0.0
gw 0.0 0.0 0.0 0.0
gw 0.0 0.0 0.0 0.0
gw 0.0 0.0 0.0 0.0
gw 0.0 0.0 0.0 0.0
gw 0.0 0.0 0.0 0.0
gw 0.0 0.0 0.0 0.0
gw 0.0 0.0 0.0 0.0
gw 0.0 0.0 0.0 0.0
gw 0.0 0.0 0.0 0.0
gw 0.0 0.0 0.0 0.0
gw 0.0 0.0 0.0 0.0
gw 0.0 0.0 0.0 0.0
gw 0.0 0.0 0.0 0.0
gw 0.0 0.0 0.0 0.0
gw 0.0 0.0 0.0 0.0
gw 0.0 0.0 0.0 0.0
gw 0.0 0.0 0.0 0.0
gw 0.0 0.0 0.0 0.0
gw 0.0 0.0 0.0 0.0
gw 0.0 0.0 0.0 0.0
gw 0.0 0.0 0.0 0.0
gw 0.0 0.0 0.0 0.0
gw 0.0 0.0 0.0 0.0
gw 0.0 0.0 0.0 0.0
gw 0.0 0.0 0.0 0.0
gw 0.0 0.0 0.0 0.0
gw 0.0 0.0 0.0 0.0
gw 0.0 0.0 0.0 0.0
gw 0.0 0.0 0.0 0.0
gw 0.0 0.0 0.0 0.0
gw 0.0 0.0 0.0 0.0
gw 0.0 0.0 0.0 0.0
gw 0.0 0.0 0.0 0.0
gw 0.0 0.0 0.0 0.0
gw 0.0 0.0 0.0 0.0
gw 0.0 0.0 0.0 0.0
gw 0.0 0.0 0.0 0.0
gw 0.0 0.0 0.0 0.0
gw 0.0 0.0 0.0 0.0
gw 0.0 0.0 0.0 0.0
gw 0.0 0.0 0.0 0.0
gw 0.0 0.0 0.0 0.0
gw 0.0 0.0 0.0 0.0
gw 0.0 0.0 0.0 0.0
gw 0.0 0.0 0.0 0.0
gw 0.0 0.0 0.0 0.0
gw 0.0 0.0 0.0 0.0
gw 0.0 0.0 0.0 0.0
gw 0.0 0.0 0.0 0.0
gw 0.0 0.0 0.0 0.0
gw 0.0 0.0 0.0 0.0
gw 0.0 0.0 0.0 0.0
gw 0.0 0.0 0.0 0.0
gw 0.0 0.0 0.0 0.0
gw 0.0 0.0 0.0 0.0
gw 0.0 0.0 0.0 0.0
gw 0.0 0.0 0.0 0.0
gw 0.0 0.0 0.0 0.0
gw 0.0 0.0 0.0 0.0
gw 0.0 0.0 0.0 0.0
gw 0.0 0.0 0.0 0.0
gw 0.0 0.0 0.0 0.0
gw 0.0 0.0 0.0 0.0
gw 0.0 0.0 0.0 0.0
gw 0.0 0.0 0.0 0.0
gw 0.0 0.0 0.0 0.0
gw 0.0 0.0 0.0 0.0
gw 0.0 0.0 0.0 0.0
gw 0.0 0.0 0.0 0.0
gw 0.0 0.0 0.0 0.0
gw 0.0 0.0 0.0 0.0
gw 0.0 0.0 0.0 0.0
gw 0.0 0.0 0.0 0.0
gw 0.0 0.0 0.0 0.0
gw 0.0 0.0 0.0 0.0
gw 0.0 0.0 0.0 0.0
gw 0.0 0.0 0.0 0.0
gw 0.0 0.0 0.0 0.0
gw 0.0 0.0 0.0 0.0
gw 0.0 0.0 0.0 0.0
gw 0.0 0.0 0.0 0.0
gw 0.0 0.0 0.0 0.0
gw 0.0 0.0 0.0 0.0
gw 0.0 0.0 0.0 0.0
gw 0.0 0.0 0.0 0.0
gw 0.0 0.0 0.0 0.0
gw 0.0 0.0 0.0 0.0
gw 0.0 0.0 0.0 0.0
gw 0.0 0.0 0.0 0.0
gw 0.0 0.0 0.0 0.0
gw 0.0 0.0 0.0 0.0
gw 0.0 0.0 0.0 0.0
gw 0.0 0.0 0.0 0.0
gw 0.0 0.0 0.0 0.0
gw 0.0 0.0 0.0 0.0
gw 0.0 0.0 0.0 0.0
gw 0.0 0.0 0.0 0.0
gw 0.0 0.0 0.0 0.0
gw 0.0 0.0 0.0 0.0
gw 0.0 0.0 0.0 0.0
gw 0.0 0.0 0.0 0.0
gw 0.0 0.0 0.0 0.0
gw 0.0 0.0 0.0 0.0
gw 0.0 0.0 0.0 0.0
gw 0.0 0.0 0.0 0.0
gw 0.0 0.0 0.0 0.0
gw 0.0 0.0 0.0 0.0
gw 0.0 0.0 0.0 0.0
gw 0.0 0.0 0.0 0.0
gw 0.0 0.0 0.0 0.0
gw 0.0 0.0 0.0 0.0
gw 0.0 0.0 0.0 0.0
gw 0.0 0.0 0.0 0.0
gw 0.0 0.0 0.0 0.0
gw 0.0 0.0 0.0 0.0
gw 0.0 0.0 0.0 0.0
gw 0.0 0.0 0.0 0.0
gw 0.0 0.0 0.0 0.0
gw 0.0 0.0 0.0 0.0
gw 0.0 0.0 0.0 0.0
gw 0.0 0.0 0.0 0.0
gw 0.0 0.0 0.0 0.0
gw 0.0 0.0 0.0 0.0
gw 0.0 0.0 0.0 0.0
gw 0.0 0.0 0.0 0.0
gw 0.0 0.0 0.0 0.0
gw 0.0 0.0 0.0 0.0
gw 0.0 0.0 0.0 0.0
gw 0.0 0.0 0.0 0.0
gw 0.0 0.0 0.0 0.0
gw 0.0 0.0 0.0 0.0
gw 0.0 0.0 0.0 0.0
gw 0.0 0.0 0.0 0.0
gw 0.0 0.0 0.0 0.0
gw 0.0 0.0 0.0 0.0
gw 0.0 0.0 0.0 0.0
gw 0.0 0.0 0.0 0.0
gw 0.0 0.0 0.0 0.0
gw 0.0 0.0 0.0 0.0
gw 0.0 0.0 0.0 0.0
gw 0.0 0.0 0.0 0.0
gw 0.0 0.0 0.0 0.0
gw 0.0 0.0 0.0 0.0
gw 0.0 0.0 0.0 0.0
gw 0.0 0.0 0.0 0.0
gw 0.0 0.0 0.0 0.0
gw 0.0 0.0 0.0 0.0
gw 0.0 0.0 0.0 0.0
gw 0.0 0.0 0.0 0.0
gw 0.0 0.0 0.0 0.0
gw 0.0 0.0 0.0 0.0
gw 0.0 0.0 0.0 0.0
gw 0.0 0.0 0.0 0.0
gw 0.0 0.0 0.0 0.0
gw 0.0 0.0 0.0 0.0
gw 0.0 0.0 0.0 0.0
gw 0.0 0.0 0.0 0.0
gw 0.0 0.0 0.0 0.0
gw 0.0 0.0 0.0 0.0
gw 0.0 0.0 0.0 0.0
gw 0.0 0.0 0.0 0.0
gw 0.0 0.0 0.0 0.0
gw 0.0 0.0 0.0 0.0
gw 0.0 0.0 0.0 0.0
gw 0.0 0.0 0.0 0.0
gw 0.0 0.0 0.0 0.0
gw 0.0 0.0 0.0 0.0
gw 0.0 0.0 0.0 0.0
gw 0.0 0.0 0.0 0.0
gw 0.0 0.0 0.0 0.0
gw 0.0 0.0 0.0 0.0
gw 0.0 0.0 0.0 0.0
gw 0.0 0.0 0.0 0.0
gw 0.0 0.0 0.0 0.0
gw 0.0 0.0 0.0 0.0
gw 0.0 0.0 0.0 0.0
gw 0.0 0.0 0.0 0.0
gw 0.0 0.0 0.0 0.0
gw 0.0 0.0 0.0 0.0
gw 0.0 0.0 0.0 0.0
gw 0.0 0.0 0.0 0.0
gw 0.0 0.0 0.0 0.0
gw 0.0 0.0 0.0 0.0
gw 0.0 0.0 0.0 0.0
gw 0.0 0.0 0.0 0.0
gw 0.0 0.0 0.0 0.0
gw 0.0 0.0 0.0 0.0
gw 0.0 0.0 0.0 0.0
gw 0.0 0.0 0.0 0.0
gw 0.0 0.0 0.0 0.0
gw 0.0 0.0 0.0 0.0
gw 0.0 0.0 0.0 0.0
gw 0.0 0.0 0.0 0.0
gw 0.0 0.0 0.0 0.0
gw 0.0 0.0 0.0 0.0
gw 0.0 0.0 0.0 0.0
gw 0.0 0.0 0.0 0.0
gw 0.0 0.0 0.0 0.0
gw 0.0 0.0 0.0 0.0
gw 0.0 0.0 0.0 0.0
gw 0.0 0.0 0.0 0.0
gw 0.0 0.0 0.0 0.0
gw 0.0 0.0 0.0 0.0
gw 0.0 0.0 0.0 0.0
gw 0.0 0.0 0.0 0.0
gw 0.0 0.0 0.0 0.0
gw 0.0 0.0 0.0 0.0
gw 0.0 0.0 0.0 0.0
gw 0.0 0.0 0.0 0.0
gw 0.0 0.0 0.0 0.0
gw 0.0 0.0 0.0 0.0
gw 0.0 0.0 0.0 0.0
gw 0.0 0.0 0.0 0.0
gw 0.0 0.0 0.0 0.0
gw 0.0 0.0 0.0 0.0
gw 0.0 0.0 0.0 0.0
gw 0.0 0.0 0.0 0.0
gw 0.0 0.0 0.0 0.0
gw 0.0 0.0 0.0 0.0
gw 0.0 0.0 0.0 0.0
gw 0.0 0.0 0.0 0.0
gw 0.0 0.0 0.0 0.0
gw 0.0 0.0 0.0 0.0
gw 0.0 0.0 0.0 0.0
gw 0.0 0.0 0.0 0.0
gw 0.0 0.0 0.0 0.0
gw 0.0 0.0 0.0 0.0
gw 0.0 0.0 0.0 0.0
gw 0.0 0.0 0.0 0.0
gw 0.0 0.0 0.0 0.0
gw 0.0 0.0 0.0 0.0
gw 0.0 0.0 0.0 0.0
gw 0.0 0.0 0.0 0.0
gw 0.0 0.0 0.0 0.0
gw 0.0 0.0 0.0 0.0
gw 0.0 0.0 0.0 0.0
gw 0.0 0.0 0.0 0.0
gw 0.0 0.0 0.0 0.0
gw 0.0 0.0 0.0 0.0
gw 0.0 0.0 0.0 0.0
gw 0.0 0.0 0.0 0.0
gw 0.0 0.0 0.0 0.0
gw 0.0 0.0 0.0 0.0
gw 0.0 0.0 0.0 0.0
gw 0.0 0.0 0.0 0.0
gw 0.0 0.0 0.0 0.0
gw 0.0 0.0 0.0 0.0
gw 0.0 0.0 0.0 0.0
gw 0.0 0.0 0.0 0.0
gw 0.0 0.0 0.0 0.0
gw 0.0 0.0 0.0 0.0
gw 0.0 0.0 0.0 0.0
gw 0.0 0.0 0.0 0.0
gw 0.0 0.0 0.0 0.0
gw 0.0 0.0 0.0 0.0
gw 0.0 0.0 0.0 0.0
gw 0.0 0.0 0.0 0.0
gw 0.0 0.0 0.0 0.0
gw 0.0 0.0 0.0 0.0
gw 0.0 0.0 0.0 0.0
gw 0.0 0.0 0.0 0.0
gw 0.0 0.0 0.0 0.0
gw 0.0 0.0 0.0 0.0
gw 0.0 0.0 0.0 0.0
gw 0.0 0.0 0.0 0.0
gw 0.0 0.0 0.0 0.0
gw 0.0 0.0 0.0 0.0
gw 0.0 0.0 0.0 0.0
gw 0.0 0.0 0.0 0.0
gw 0.0 0.0 0.0 0.0
gw 0.0 0.0 0.0 0.0
gw 0.0 0.0 0.0 0.0
gw 0.0 0.0 0.0 0.0
gw 0.0 0.0 0.0 0.0
gw 0.0 0.0 0.0 0.0
gw 0.0 0.0 0.0 0.0
gw 0.0 0.0 0.0 0.0
gw 0.0 0.0 0.0 0.0
gw 0.0 0.0 0.0 0.0
gw 0.0 0.0 0.0 0.0
gw 0.0 0.0 0.0 0.0
gw 0.0 0.0 0.0 0.0
gw 0.0 0.0 0.0 0.0
gw 0.0 0.0 0.0 0.0
gw 0.0 0.0 0.0 0.0
gw 0.0 0.0 0.0 0.0
gw 0.0 0.0 0.0 0.0
gw 0.0 0.0 0.0 0.0
gw 0.0 0.0 0.0 0.0
gw 0.0 0.0 0.0 0.0
gw 0.0 0.0 0.0 0.0
gw 0.0 0.0 0.0 0.0
gw 0.0 0.0 0.0 0.0
gw 0.0 0.0 0.0 0.0
gw 0.0 0.0 0.0 0.0
gw 0.0 0.0 0.0 0.0
gw 0.0 0.0 0.0 0.0
gw 0.0 0.0 0.0 0.0
gw 0.0 0.0 0.0 0.0
gw 0.0 0.0 0.0 0.0
gw 0.0 0.0 0.0 0.0
gw 0.0 0.0 0.0 0.0
gw 0.0 0.0 0.0 0.0
gw 0.0 0.0 0.0 0.0
gw 0.0 0.0 0.0 0.0
gw 0.0 0.0 0.0 0.0
gw 0.0 0.0 0.0 0.0
gw 0.0 0.0 0.0 0.0
gw 0.0 0.0 0.0 0.0
gw 0.0 0.0 0.0 0.0
gw 0.0 0.0 0.0 0.0
vt 0.1166 0.7956
vt 0.1298 0.8902
vt 0.0 0.8978
vt 0.0 0.7956
vt 0.2332 0.7956
vt 0.2332 0.8978
vt 0.1166 1.0
vt 0.0 1.0
vt 0.2332 1.0
vt 0.7285 0.3988
vt 0.5468 0.3673
vt 0.5615 0.2734
vt 0.7285 0.288
vt 0.9084 0.288
vt 0.911 0.3888
vt 0.5546 0.4534
vt 0.7164 0.5033
vt 0.8843 0.4732
vt 0.0179 0.6408
vt 0.0179 0.5031
vt 0.175 0.5031
vt 0.1928 0.6305
vt 0.332 0.6408
vt 0.3191 0.5108
vt 0.175 0.7786
vt 0.0179 0.7786
vt 0.332 0.7786
vt 0.32 0.5466
vt 0.3268 0.4296
vt 0.4642 0.416
vt 0.4805 0.5373
vt 0.5837 0.4495
vt 0.6084 0.5466
vt 0.4642 0.6713
vt 0.32 0.6713
vt 0.6084 0.6713
vt 0.6606 0.8469
vt 0.6839 0.6153
vt 0.8199 0.7011
vt 0.838 0.836
vt 0.9792 0.8469
vt 0.9792 0.7011
vt 0.8199 0.9927
vt 0.6606 0.9927
vt 0.9792 0.9927
vt 0.8725 0.4801
vt 0.8795 0.5802
vt 0.7418 0.5871
vt 0.7379 0.5099
vt 0.9847 0.4865
vt 0.9967 0.5854
vt 0.8652 0.7075
vt 0.7692 0.6737
vt 0.9967 0.7126
vt 0.0528 0.3841
vt 0.0528 0.2864
vt 0.1931 0.2864
vt 0.1958 0.3861
vt 0.3335 0.3841
vt 0.3335 0.2864
vt 0.1931 0.4819
vt 0.0528 0.4819
vt 0.3335 0.4819
vt 0.0092 0.1325
vt 0.0092 0.0028
vt 0.1437 0.0028
vt 0.1415 0.1345
vt 0.2782 0.1325
vt 0.2782 0.0028
vt 0.1437 0.2623
vt 0.0092 0.2623
vt 0.2782 0.2623
vt 0.8283 0.0056
vt 0.8258 0.1565
vt 0.6713 0.1543
vt 0.6713 0.0056
vt 0.9854 0.0056
vt 0.9854 0.1543
vt 0.8283 0.303
vt 0.6713 0.303
vt 0.9854 0.303
vt 0.4643 0.6874
vt 0.4911 0.8784
vt 0.3013 0.8437
vt 0.3013 0.6874
vt 0.6272 0.6874
vt 0.6272 0.8437
vt 0.4643 1.0001
vt 0.3013 1.0001
vt 0.6272 1.0001
vt 0.3291 0.1485
vt 0.3291 0.01
vt 0.4753 0.0129
vt 0.4658 0.1505
vt 0.6098 0.1485
vt 0.6098 0.01
vt 0.4753 0.2914
vt 0.3291 0.2885
vt 0.6098 0.2885
vn -0.2273 0.8118 -0.5379
vn 0.2028 0.9285 -0.3111
vn 0.2374 0.9183 -0.3167
vn -0.21 0.7978 -0.5652
vn -0.2476 0.827 -0.5048
vn 0.2351 0.9347 -0.2665
vn 0.609 0.7931 0.0112
vn 0.6051 0.7962 0.0037
vn 0.6137 0.7893 0.0198
vn 0.0552 0.9979 -0.0331
vn 0.0617 0.9727 -0.2238
vn -0.3491 0.9055 -0.2413
vn -0.3524 0.9357 -0.016
vn -0.3373 0.917 0.213
vn 0.0427 0.9877 0.1504
vn 0.4882 0.8575 -0.1622
vn 0.475 0.8782 -0.0552
vn 0.4558 0.8884 0.0542
vn -0.062 0.9394 -0.3372
vn 0.0044 0.9817 -0.1904
vn 0.3857 0.9148 -0.1195
vn 0.4192 0.843 -0.337
vn 0.7616 0.5859 -0.277
vn 0.7332 0.6797 -0.0209
vn 0.3232 0.7678 -0.5532
vn -0.1258 0.8724 -0.4724
vn 0.7358 0.4557 -0.501
vn -0.2067 0.974 -0.0926
vn -0.3361 0.9418 0.0032
vn -0.2853 0.8785 0.3832
vn -0.0675 0.9271 0.3687
vn 0.0891 0.7079 0.7007
vn -0.1766 0.6482 0.7407
vn 0.1339 0.9642 0.229
vn -0.0732 0.98 -0.1852
vn 0.3244 0.7155 0.6187
vn 0.1681 0.9831 0.0726
vn -0.2453 0.9353 0.2551
vn -0.3135 0.9249 0.2153
vn 0.0613 0.998 0.0169
vn -0.4084 0.8995 0.1556
vn 0.0836 0.993 -0.0838
vn 0.483 0.8585 -0.1724
vn 0.5321 0.8387 -0.1163
vn 0.4193 0.8757 -0.2394
vn -0.3716 0.7534 0.5425
vn 0.0149 0.9541 0.299
vn 0.0186 0.9643 0.2642
vn -0.3917 0.7617 0.5162
vn -0.3457 0.7417 0.5747
vn 0.068 0.9567 0.2831
vn 0.4169 0.9075 -0.0505
vn 0.4097 0.911 -0.047
vn 0.4254 0.9033 -0.055
vn 0.0334 0.9937 -0.1072
vn 0.2649 0.9474 0.1797
vn 0.3754 0.8828 0.2824
vn 0.0959 0.9926 -0.0745
vn 0.1763 0.9841 -0.0197
vn 0.467 0.8037 0.3686
vn -0.2076 0.8853 -0.4162
vn -0.2206 0.8901 -0.3989
vn -0.1927 0.8794 -0.4354
vn -0.1448 0.9859 0.0837
vn -0.0964 0.9662 0.239
vn 0.2786 0.9057 0.3196
vn 0.336 0.9359 0.1055
vn 0.6985 0.7105 0.0853
vn 0.6481 0.6751 0.3524
vn 0.2698 0.9539 -0.1315
vn -0.1891 0.9793 -0.0722
vn 0.699 0.6961 -0.164
vn -0.9113 0.3538 0.2105
vn -0.7168 0.6681 0.1996
vn -0.5981 0.7937 0.1106
vn -0.8929 0.4277 0.1407
vn -0.9205 0.2559 0.2953
vn -0.7339 0.6271 0.2612
vn -0.3035 0.9464 0.111
vn -0.2663 0.9614 0.0688
vn -0.3474 0.9237 0.1616
vn 0.1037 0.976 -0.1917
vn -0.2818 0.9362 -0.2101
vn -0.2758 0.9611 0.0173
vn 0.0909 0.9958 -0.0065
vn 0.115 0.9779 0.1745
vn -0.2551 0.935 0.2462
vn 0.4638 0.8855 -0.0263
vn 0.4737 0.8688 -0.1443
vn 0.4485 0.8898 0.084
vn -0.1514 0.6926 0.7052
vn -0.0427 0.3601 0.9319
vn 0.1844 0.4349 0.8814
vn 0.0365 0.73 0.6824
vn 0.2048 0.7747 0.5982
vn 0.3964 0.483 0.7808
vn -0.117 0.9272 0.3557
vn -0.2314 0.8999 0.3696
vn -0.0076 0.9413 0.3376
vn -0.1444 0.986 0.0837
vn -0.096 0.9663 0.239
vn 0.279 0.9055 0.3197
vn 0.3365 0.9358 0.1054
vn 0.6988 0.7102 0.0853
vn 0.6483 0.675 0.3523
vn 0.2702 0.9538 -0.1315
vn -0.1886 0.9794 -0.0721
vn 0.6993 0.6957 -0.164
vn -0.2502 0.9488 -0.1927
vn -0.5997 0.771 -0.2142
vn -0.6032 0.7974 0.0177
vn -0.2726 0.9621 -0.006
vn -0.24 0.9547 0.1761
vn -0.5735 0.78 0.2506
vn 0.1191 0.9925 -0.0261
vn 0.1342 0.9807 -0.1423
vn 0.104 0.9911 0.0829
vn 0.0724 0.9937 0.0855
vn -0.2938 0.9474 0.1271
vn -0.4398 0.8828 0.1652
vn 0.0114 0.9926 0.1209
vn -0.0779 0.9841 0.1594
vn -0.5617 0.8037 0.1962
vn 0.4626 0.8853 0.0482
vn 0.4549 0.8901 0.028
vn 0.4708 0.8794 0.0711
vn 0.0413 0.9986 0.0322
vn 0.2185 0.974 0.0596
vn 0.2208 0.8399 -0.4957
vn 0.1166 0.8918 -0.4371
vn -0.0527 0.8422 0.5366
vn 0.1747 0.8318 0.5269
vn 0.4062 0.911 -0.0709
vn 0.3174 0.7764 -0.5445
vn 0.3821 0.7818 0.4928
vn 0.149 0.9854 0.0827
vn 0.1354 0.9483 0.2871
vn 0.3504 0.8587 0.3739
vn 0.4262 0.8819 0.2015
vn 0.6334 0.7215 0.2798
vn 0.5607 0.7001 0.4421
vn 0.4268 0.9043 -0.0104
vn 0.1562 0.981 -0.1148
vn 0.6855 0.72 0.1083
vn 0.0893 0.8357 0.5419
vn 0.0716 0.9396 0.3348
vn -0.2632 0.9261 0.2705
vn -0.1888 0.8525 0.4874
vn 0.3814 0.7421 0.5513
vn 0.3617 0.8646 0.3487
vn -0.0218 0.996 0.0869
vn -0.3218 0.946 0.0395
vn 0.3227 0.9374 0.1309
vn 0.1283 0.9018 -0.4127
vn -0.2593 0.8604 -0.4387
vn -0.2608 0.9396 -0.2215
vn 0.1088 0.9652 -0.2378
vn 0.125 0.9907 -0.0545
vn -0.2484 0.9686 0.0082
vn 0.4811 0.8508 -0.2113
vn 0.4974 0.805 -0.3233
vn 0.4599 0.8816 -0.1063
vn 0.1502 0.9882 -0.0306
vn 0.1737 0.9846 -0.0174
vn 0.5066 0.8556 -0.1061
vn 0.4998 0.8562 -0.1305
vn 0.1402 0.9901 0.0051
vn 0.5144 0.8543 -0.0743
vn -0.2056 0.9762 0.0693
vn -0.2116 0.9747 0.0727
vn -0.219 0.9727 0.0764
vn -0.2503 0.9488 -0.1928
vn -0.5997 0.771 -0.2142
vn -0.6032 0.7974 0.0177
vn -0.2726 0.9621 -0.006
vn -0.2399 0.9547 0.1761
vn -0.5735 0.7799 0.2507
vn 0.1191 0.9925 -0.0261
vn 0.1342 0.9807 -0.1423
vn 0.104 0.9911 0.0829
vn -0.0102 0.9366 0.3502
vn 0.2397 0.9695 0.0521
vn 0.0538 0.9956 -0.0771
vn -0.1529 0.9607 0.2318
vn -0.3087 0.9414 0.1359
vn -0.1368 0.9694 -0.2036
vn -0.3506 0.78 0.5183
vn -0.2598 0.7598 0.596
vn -0.4299 0.7891 0.4388
vn -0.2503 0.9488 -0.1928
vn -0.5997 0.771 -0.2142
vn -0.6032 0.7974 0.0177
vn -0.2726 0.9621 -0.006
vn -0.2399 0.9547 0.1761
vn -0.5735 0.78 0.2507
vn 0.1191 0.9925 -0.0261
vn 0.1342 0.9807 -0.1423
vn 0.104 0.9911 0.0829
vn -0.4801 0.8768 0.0271
vn 0.0007 0.9994 0.0345
vn 0.0272 0.9996 0.0087
vn -0.4797 0.8774 -0.007
vn -0.4799 0.8746 0.0686
vn 0.0507 0.9972 0.0543
vn 0.5129 0.8581 0.0245
vn 0.5057 0.8624 0.022
vn 0.5217 0.8527 0.0272
vn 0.3144 0.9419 -0.118
vn 0.4325 0.9016 -0.0101
vn 0.7415 0.66 -0.121
vn 0.6713 0.6584 -0.3404
vn 0.8351 0.2649 -0.482
vn 0.9402 0.2593 -0.2209
vn 0.4896 0.7061 -0.5116
vn 0.1889 0.9566 -0.2217
vn 0.6818 0.2515 -0.6869
vn -0.2862 0.9575 0.0361
vn -0.2225 0.9431 0.247
vn 0.035 0.964 0.2636
vn 0.0374 0.9971 0.0666
vn 0.3174 0.9449 0.0808
vn 0.3071 0.915 0.2615
vn -0.0275 0.989 -0.1452
vn -0.3335 0.928 -0.1662
vn 0.3165 0.9427 -0.1051
vn 0.444 0.8837 0.1481
vn 0.5064 0.8595 0.0694
vn 0.1329 0.9882 0.0758
vn -0.0608 0.9868 0.1502
vn 0.5679 0.8229 -0.0169
vn 0.1801 0.9836 0.0089
vn -0.3895 0.9171 0.0854
vn -0.4413 0.8886 0.125
vn -0.3247 0.9451 0.0375
vn 0.1519 0.9443 -0.2918
vn 0.2462 0.9692 0.0061
vn 0.4135 0.9066 0.0839
vn 0.2662 0.9514 -0.1551
vn 0.0196 0.9016 -0.432
vn 0.1023 0.9881 -0.115
vn 0.4182 0.8499 0.3207
vn 0.54 0.7668 0.347
vn 0.1811 0.9493 0.2568
vn -0.1443 0.9884 -0.0474
vn -0.1095 0.9885 0.1043
vn -0.0643 0.9832 0.1705
vn -0.1138 0.9931 -0.0278
vn -0.1817 0.9807 -0.0715
vn -0.1357 0.9868 0.0881
vn -0.0466 0.9515 0.304
vn -0.0216 0.9445 0.3278
vn -0.0756 0.9582 0.2759
vn 0.6091 0.7888 -0.0823
vn 0.9042 0.4203 -0.0761
vn 0.9273 0.3742 -0.0091
vn 0.6692 0.7428 0.0168
vn 0.9491 0.3024 0.0882
vn 0.6111 0.7853 0.0998
vn 0.2207 0.9753 0.0004
vn 0.1961 0.978 -0.0712
vn 0.2491 0.9645 0.0878
vn -0.2977 0.9038 0.3073
vn -0.3434 0.9366 0.0694
vn -0.6455 0.7636 0.0146
vn -0.5652 0.7852 0.253
vn 0.008 0.9423 0.3347
vn -0.0318 0.9935 0.1094
vn -0.4211 0.8868 -0.1902
vn -0.6846 0.6931 -0.2255
vn -0.0703 0.9896 -0.1257
vn 0.705 0.7086 -0.0303
vn 0.5254 0.8434 -0.1125
vn 0.4093 0.874 0.2618
vn 0.5658 0.7615 0.3161
vn 0.6731 0.6248 0.3957
vn 0.8481 0.5268 0.0563
vn 0.3266 0.7034 0.6313
vn 0.2306 0.7701 0.5948
vn 0.4147 0.629 0.6576
vn -0.297 0.9128 -0.2804
vn -0.4522 0.6901 -0.565
vn -0.6304 0.6544 -0.4176
vn -0.4525 0.8751 -0.1713
vn -0.5581 0.8293 -0.0255
vn -0.7786 0.5795 -0.2407
vn -0.1912 0.9748 0.1151
vn -0.0947 0.9943 0.0493
vn -0.2788 0.9442 0.1753
vn 0.062 0.9938 -0.0927
vn -0.3481 0.9299 -0.1189
vn -0.3527 0.9295 0.108
vn 0.055 0.9934 0.1006
vn -0.3388 0.8797 0.3336
vn 0.0424 0.9589 0.2807
vn 0.4877 0.8717 -0.0468
vn 0.4751 0.8778 0.061
vn 0.4566 0.873 0.1714
vn -0.2223 0.9749 0.0139
vn -0.1701 0.9592 0.226
vn 0.0507 0.9721 0.2291
vn 0.0429 0.998 0.0461
vn 0.2859 0.956 0.0663
vn 0.2826 0.9337 0.2197
vn 0.0009 0.9887 -0.1499
vn -0.2637 0.9446 -0.1953
vn 0.282 0.9553 -0.0892
vn 0.5921 0.696 -0.4062
vn 0.1766 0.902 -0.3939
vn 0.1159 0.8883 -0.4445
vn 0.5219 0.6928 -0.4976
vn 0.0271 0.8584 -0.5123
vn 0.5582 0.6057 -0.5671
vn 0.8827 0.3351 -0.3295
vn 0.854 0.3241 -0.4069
vn 0.8143 0.3088 -0.4915
vn 0.0864 0.8262 -0.5567
vn 0.1173 0.9523 -0.2817
vn 0.1318 0.9544 -0.2679
vn 0.1055 0.8233 -0.5577
vn 0.0629 0.8294 -0.5551
vn 0.1096 0.9612 -0.2533
vn 0.1431 0.9889 0.0398
vn 0.1445 0.989 0.033
vn 0.1416 0.9888 0.0481
vn -0.0324 0.9979 -0.056
vn 0.3701 0.8981 0.2376
vn 0.4031 0.8858 0.2298
vn -0.0128 0.9964 -0.0833
vn -0.0562 0.9982 -0.0229
vn 0.3949 0.8749 0.2804
vn 0.6974 0.5365 0.4752
vn 0.6952 0.5436 0.4703
vn 0.7003 0.5271 0.4814
vn -0.3849 0.9224 -0.0331
vn -0.2346 0.9157 0.3264
vn -0.038 0.9738 0.224
vn -0.2179 0.9707 -0.1011
vn -0.0613 0.9782 -0.1986
vn 0.1621 0.9807 0.109
vn -0.3681 0.8241 -0.4305
vn -0.4771 0.7877 -0.3898
vn -0.2634 0.8469 -0.462
vn 0.2027 0.8668 -0.4556
vn 0.2416 0.6063 -0.7576
vn 0.0067 0.6283 -0.7779
vn 0.0146 0.8715 -0.4903
vn -0.171 0.8698 -0.4628
vn -0.2309 0.6147 -0.7542
vn 0.0168 0.9941 -0.1074
vn 0.1322 0.9875 -0.0853
vn -0.0913 0.9877 -0.1267
vn 0.448 0.8894 0.0913
vn 0.719 0.6491 0.2485
vn 0.7906 0.6117 0.0281
vn 0.5203 0.8497 -0.0847
vn 0.5299 0.8055 -0.2653
vn 0.8188 0.5373 -0.2021
vn 0.1509 0.9704 -0.1884
vn 0.1046 0.9912 -0.0813
vn 0.1916 0.9388 -0.2863
vn 0.1717 0.9192 -0.3544
vn -0.0319 0.9141 -0.4042
vn -0.1669 0.9643 -0.2054
vn -0.0059 0.9936 -0.1131
vn -0.1549 0.9816 0.1114
vn -0.299 0.9541 0.0194
vn 0.1959 0.9787 -0.0616
vn 0.3585 0.8866 -0.2923
vn -0.0044 0.9797 0.2005
vn -0.1448 0.9859 0.0837
vn -0.0964 0.9662 0.239
vn 0.2786 0.9056 0.3197
vn 0.336 0.9359 0.1055
vn 0.6985 0.7105 0.0853
vn 0.6481 0.6751 0.3524
vn 0.2697 0.9539 -0.1315
vn -0.1891 0.9793 -0.0721
vn 0.699 0.6961 -0.164
vn 0.071 0.986 0.151
vn 0.2299 0.9663 0.1161
vn 0.3423 0.9056 -0.2506
vn 0.1339 0.9358 -0.3262
vn 0.145 0.7102 -0.6889
vn 0.4067 0.6748 -0.6158
vn -0.1078 0.9538 -0.2805
vn -0.0881 0.9794 0.1818
vn -0.1034 0.6957 -0.7108
vn -0.041 0.9872 -0.1542
vn 0.1352 0.9871 0.0852
vn 0.1214 0.9837 0.1326
vn -0.0597 0.995 -0.0804
vn 0.1007 0.9743 0.2014
vn -0.1232 0.9891 -0.0804
vn -0.2377 0.9142 -0.3283
vn -0.2083 0.9038 -0.3737
vn -0.2714 0.9229 -0.2732
vn 0.603 0.7453 0.2843
vn 0.4631 0.8834 0.0718
vn 0.3472 0.9362 -0.0545
vn 0.4524 0.859 0.2399
vn 0.2068 0.9595 -0.1912
vn 0.3103 0.941 0.1349
vn 0.5974 0.6226 0.5055
vn 0.7022 0.5045 0.5024
vn 0.383 0.7885 0.4812
vn 0.6802 0.5051 0.5313
vn 0.69 0.6664 0.2825
vn 0.655 0.7463 0.1186
vn 0.6075 0.6652 0.4342
vn 0.5916 0.8038 -0.0633
vn 0.5518 0.7853 0.2807
vn 0.5445 0.4164 0.7281
vn 0.5937 0.2629 0.7606
vn 0.4272 0.6508 0.6277
vn 0.6802 0.5051 0.5313
vn 0.69 0.6664 0.2825
vn 0.655 0.7463 0.1186
vn 0.6075 0.6652 0.4342
vn 0.5916 0.8038 -0.0633
vn 0.5518 0.7853 0.2807
vn 0.5445 0.4164 0.7281
vn 0.5937 0.2629 0.7605
vn 0.4272 0.6508 0.6277
vn 0.603 0.7453 0.2843
vn 0.4631 0.8834 0.0718
vn 0.3472 0.9362 -0.0545
vn 0.4524 0.859 0.2398
vn 0.2068 0.9595 -0.1912
vn 0.3104 0.941 0.1349
vn 0.5974 0.6226 0.5055
vn 0.7022 0.5045 0.5024
vn 0.383 0.7885 0.4812
vn 0.6801 0.5051 0.5313
vn 0.69 0.6664 0.2825
vn 0.655 0.7463 0.1185
vn 0.6075 0.6652 0.4342
vn 0.5916 0.8038 -0.0633
vn 0.5518 0.7853 0.2807
vn 0.5445 0.4164 0.7281
vn 0.5937 0.2629 0.7606
vn 0.4272 0.6508 0.6277
vn -0.5855 0.6033 0.5414
vn -0.3809 0.8292 0.4091
vn -0.4539 0.8522 0.2601
vn -0.6935 0.6168 0.3723
vn -0.4323 0.5576 0.7086
vn -0.2542 0.8369 0.4847
vn -0.1142 0.9765 0.1825
vn -0.1519 0.982 0.1125
vn -0.0795 0.9661 0.2458
vtan 0.4861 -0.384 -0.785
vtan 0.4922 -0.3713 -0.7873
vtan 0.4917 -0.3948 -0.7761
vtan 0.4998 -0.4092 -0.7633
vtan 0.499 -0.3378 -0.7981
vtan 0.4935 -0.351 -0.7958
vtan 0.4896 -0.3647 -0.792
vtan 0.4964 -0.3736 -0.7836
vtan 0.466 -0.3419 -0.816
vtan 0.0186 -0.0341 -0.9992
vtan 0.2236 -0.232 -0.9467
vtan 0.23 -0.1668 -0.9588
vtan 0.0343 -0.0042 -0.9994
vtan -0.1467 0.1723 -0.9741
vtan -0.1365 0.1549 -0.9785
vtan 0.2331 -0.3073 -0.9226
vtan 0.0004 -0.063 -0.998
vtan -0.2078 0.1654 -0.9641
vtan -0.9872 -0.0081 0.159
vtan -0.9899 0.0312 0.1382
vtan -0.9216 0.3758 -0.0974
vtan -0.9049 0.4178 -0.0806
vtan -0.6475 0.705 -0.2892
vtan -0.6354 0.6737 -0.3773
vtan -0.9299 0.3662 -0.035
vtan -0.9856 -0.0555 0.1599
vtan -0.6194 0.752 -0.2257
vtan -0.325 -0.1577 -0.9325
vtan -0.3271 -0.1135 -0.9381
vtan -0.3196 0.2897 -0.9022
vtan -0.3509 0.3239 -0.8786
vtan -0.2948 0.6907 -0.6603
vtan -0.2068 0.7113 -0.6718
vtan -0.365 0.2628 -0.8931
vtan -0.2892 -0.1986 -0.9365
vtan -0.3697 0.698 -0.6133
vtan -0.3485 0.1281 -0.9285
vtan -0.3377 0.1642 -0.9268
vtan -0.3498 0.0984 -0.9317
vtan -0.3243 0.036 -0.9453
vtan -0.314 0.0217 -0.9492
vtan -0.3332 -0.0514 -0.9415
vtan -0.3194 -0.0106 -0.9476
vtan -0.3415 0.0869 -0.9358
vtan -0.3406 -0.0927 -0.9356
vtan -0.6271 0.2272 -0.745
vtan -0.6243 0.2424 -0.7426
vtan -0.6198 0.2185 -0.7537
vtan -0.6088 0.2061 -0.7661
vtan -0.6241 0.2756 -0.7311
vtan -0.6272 0.2616 -0.7336
vtan -0.628 0.2475 -0.7378
vtan -0.6201 0.2404 -0.7468
vtan -0.6531 0.2644 -0.7096
vtan -0.8721 0.0813 0.4825
vtan -0.9244 0.1965 0.3271
vtan -0.871 0.2319 0.4331
vtan -0.8586 0.1204 0.4982
vtan -0.8791 0.1665 0.4466
vtan -0.8741 0.3566 0.3298
vtan -0.8529 0.0446 0.5202
vtan -0.8385 0.0359 0.5437
vtan -0.8758 0.0461 0.4806
vtan -0.989 -0.1468 0.0181
vtan -0.9946 -0.1029 0.0146
vtan -0.9537 0.3002 -0.0195
vtan -0.9416 0.3363 0.0149
vtan -0.713 0.7012 -0.0019
vtan -0.6943 0.7139 -0.0908
vtan -0.9608 0.2757 0.0291
vtan -0.9816 -0.1904 -0.0112
vtan -0.6935 0.7158 0.0824
vtan -0.1948 0.08 -0.9776
vtan -0.1313 0.1518 -0.9797
vtan -0.0423 0.1065 -0.9934
vtan -0.2406 -0.1892 -0.952
vtan -0.2686 0.1344 -0.9538
vtan -0.2542 0.103 -0.9616
vtan 0.0324 0.1267 -0.9914
vtan 0.3355 0.1593 -0.9285
vtan -0.2087 0.0919 -0.9737
vtan -0.0218 -0.1904 -0.9815
vtan -0.0491 -0.2328 -0.9713
vtan -0.0479 0.0043 -0.9988
vtan -0.0537 -0.0016 -0.9986
vtan -0.0864 0.1848 -0.979
vtan -0.036 0.2453 -0.9688
vtan -0.0623 0.003 -0.9981
vtan -0.0504 -0.1368 -0.9893
vtan -0.0766 0.1319 -0.9883
vtan -0.9362 -0.3295 0.1226
vtan -0.9219 -0.3738 0.1021
vtan -0.9268 -0.2216 0.3032
vtan -0.9259 -0.2322 0.2979
vtan -0.8771 -0.1259 0.4634
vtan -0.8772 -0.0519 0.4774
vtan -0.9225 -0.2341 0.3068
vtan -0.9299 -0.3162 0.1877
vtan -0.8974 -0.1553 0.413
vtan -0.9891 -0.1464 0.0181
vtan -0.9946 -0.1024 0.0146
vtan -0.9535 0.3007 -0.0195
vtan -0.9414 0.3368 0.0149
vtan -0.7127 0.7015 -0.0019
vtan -0.6941 0.7141 -0.0909
vtan -0.9607 0.2762 0.0291
vtan -0.9817 -0.1899 -0.0112
vtan -0.6931 0.7161 0.0824
vtan 0.0558 -0.1846 -0.9812
vtan 0.0481 -0.2324 -0.9714
vtan -0.0462 -0.0128 -0.9989
vtan -0.0494 -0.0202 -0.9986
vtan -0.154 0.1417 -0.9779
vtan -0.1317 0.2142 -0.9679
vtan -0.0588 -0.0191 -0.9981
vtan 0.0068 -0.1445 -0.9895
vtan -0.1213 0.0953 -0.988
vtan 0.0609 0.0811 -0.9948
vtan 0.2201 0.1965 -0.9555
vtan 0.102 0.2319 -0.9674
vtan 0.0404 0.1204 -0.9919
vtan 0.095 0.1665 -0.9815
vtan 0.1908 0.3566 -0.9146
vtan 0.0188 0.0446 -0.9988
vtan -0.0088 0.0359 -0.9993
vtan 0.0645 0.0461 -0.9969
vtan 0.0133 0.0316 -0.9994
vtan 0.0029 0.0605 -0.9982
vtan -0.156 -0.4713 -0.8681
vtan -0.1579 -0.4178 -0.8947
vtan 0.2215 0.5338 -0.8161
vtan 0.1498 0.5065 -0.8491
vtan -0.0306 -0.064 -0.9975
vtan -0.1322 -0.5324 -0.8361
vtan 0.1082 0.4917 -0.864
vtan -0.9309 0.1679 -0.3243
vtan -0.9189 0.2285 -0.3216
vtan -0.837 0.4663 -0.2863
vtan -0.8481 0.4671 -0.2501
vtan -0.7007 0.6882 -0.1884
vtan -0.6625 0.6996 -0.2677
vtan -0.8762 0.4106 -0.2524
vtan -0.9484 0.1165 -0.295
vtan -0.7014 0.6929 -0.1672
vtan -0.9957 0.0877 0.0287
vtan -0.9973 0.0621 0.0389
vtan -0.964 -0.2414 -0.1114
vtan -0.9818 -0.1545 -0.1101
vtan -0.9206 0.359 0.1537
vtan -0.9321 0.3275 0.1549
vtan -0.9997 -0.0222 0.004
vtan -0.9422 -0.3158 -0.1123
vtan -0.9448 0.3108 0.1039
vtan 0.0162 -0.418 -0.9083
vtan -0.013 -0.4573 -0.8892
vtan -0.0058 -0.2309 -0.973
vtan -0.0109 -0.2381 -0.9712
vtan -0.0414 -0.0496 -0.9979
vtan 0.0096 0.0109 -0.9999
vtan -0.0203 -0.2302 -0.9729
vtan -0.0115 -0.3665 -0.9303
vtan -0.0324 -0.103 -0.9942
vtan 0.2327 -0.0052 0.9725
vtan 0.2199 -0.0216 0.9753
vtan 0.2234 -0.0114 0.9747
vtan 0.2472 0.0034 0.969
vtan 0.2267 -0.0371 0.9733
vtan 0.2185 -0.0468 0.9747
vtan 0.228 -0.0211 0.9734
vtan 0.2092 -0.0275 0.9775
vtan 0.2104 -0.0294 0.9772
vtan 0.0558 -0.1847 -0.9812
vtan 0.0481 -0.2324 -0.9714
vtan -0.0462 -0.0128 -0.9989
vtan -0.0494 -0.0202 -0.9986
vtan -0.154 0.1417 -0.9779
vtan -0.1317 0.2142 -0.9679
vtan -0.0588 -0.0191 -0.9981
vtan 0.0068 -0.1445 -0.9895
vtan -0.1213 0.0953 -0.988
vtan 0.8144 -0.1954 0.5464
vtan 0.8278 -0.2321 0.5107
vtan 0.8211 -0.0002 0.5707
vtan 0.825 -0.005 0.5651
vtan 0.8076 0.1839 0.5603
vtan 0.7616 0.2344 0.6042
vtan 0.8293 0.0015 0.5588
vtan 0.8313 -0.1381 0.5384
vtan 0.8155 0.1307 0.5638
vtan 0.0558 -0.1847 -0.9812
vtan 0.0481 -0.2324 -0.9714
vtan -0.0462 -0.0128 -0.9989
vtan -0.0494 -0.0202 -0.9986
vtan -0.154 0.1417 -0.9779
vtan -0.1317 0.2142 -0.9679
vtan -0.0588 -0.0191 -0.9981
vtan 0.0068 -0.1445 -0.9895
vtan -0.1213 0.0953 -0.988
vtan -0.0197 0.0201 -0.9996
vtan -0.016 0.0345 -0.9993
vtan -0.0104 0.009 -0.9999
vtan 0.0032 -0.0062 -1.0
vtan -0.0162 0.0694 -0.9975
vtan -0.0195 0.0554 -0.9983
vtan -0.0206 0.0408 -0.999
vtan -0.0106 0.0317 -0.9994
vtan -0.0532 0.0644 -0.9965
vtan -0.7623 0.3246 0.5599
vtan -0.7517 0.3667 0.5482
vtan -0.5792 0.7206 0.3811
vtan -0.5333 0.748 0.3951
vtan -0.2182 0.964 0.1517
vtan -0.2518 0.9658 0.0618
vtan -0.5619 0.7041 0.4342
vtan -0.7905 0.2821 0.5436
vtan -0.1469 0.967 0.2082
vtan -0.958 -0.2852 -0.0306
vtan -0.9747 -0.2207 -0.0355
vtan -0.9989 0.0422 -0.0219
vtan -0.9992 0.0366 0.0129
vtan -0.9483 0.3161 0.028
vtan -0.942 0.3314 -0.0534
vtan -0.9995 -0.0247 0.0208
vtan -0.9412 -0.3377 0.0028
vtan -0.9452 0.3228 0.0484
vtan -0.0955 -0.1176 0.9885
vtan 0.0363 -0.1017 0.9942
vtan -0.0682 -0.0672 0.9954
vtan -0.2901 -0.1614 0.9433
vtan -0.0168 0.032 0.9993
vtan -0.0045 -0.0082 1.0
vtan -0.2197 -0.1826 0.9583
vtan -0.4496 -0.3394 0.8263
vtan -0.0266 -0.0488 0.9985
vtan 0.9883 -0.1491 0.0322
vtan 0.9691 -0.2463 0.0098
vtan 0.9061 -0.4188 0.0596
vtan 0.9639 -0.2628 0.0428
vtan 0.9971 -0.0491 -0.0573
vtan 0.9852 -0.1166 -0.1258
vtan 0.8861 -0.4594 0.0621
vtan 0.8108 -0.5846 0.03
vtan 0.9833 -0.1697 -0.0663
vtan 0.9663 0.1304 -0.222
vtan 0.9853 0.1218 -0.1198
vtan 0.9872 0.0877 -0.1333
vtan 0.8753 0.087 -0.4757
vtan 0.9664 0.1647 -0.1975
vtan 0.9634 0.1522 -0.2208
vtan 0.9916 0.0808 -0.1007
vtan 0.9984 0.0373 -0.0418
vtan 0.9668 0.1382 -0.215
vtan 0.0022 0.1021 0.9948
vtan 0.022 0.132 0.991
vtan -0.0232 0.0817 0.9964
vtan -0.0928 0.0612 0.9938
vtan -0.1102 0.0563 0.9923
vtan -0.1457 -0.0124 0.9893
vtan -0.134 0.0299 0.9905
vtan -0.0361 0.0797 0.9962
vtan -0.177 -0.0438 0.9832
vtan -0.9497 -0.3131 0.0009
vtan -0.9384 -0.3452 0.0155
vtan -0.7635 -0.6448 -0.0353
vtan -0.8199 -0.5687 -0.0664
vtan -0.9991 -0.0061 0.0408
vtan -0.9981 -0.0373 0.0491
vtan -0.9041 -0.4271 0.0105
vtan -0.7094 -0.7047 -0.0124
vtan -0.9975 -0.0697 0.0091
vtan 0.6687 -0.6498 0.3613
vtan 0.7978 -0.4424 0.4097
vtan 0.7899 -0.4831 0.3778
vtan 0.6662 -0.6481 0.3689
vtan 0.5198 -0.7803 0.3477
vtan 0.4931 -0.8238 0.2798
vtan 0.6646 -0.6458 0.3758
vtan 0.7504 -0.5299 0.3951
vtan 0.5677 -0.7436 0.3532
vtan 0.7915 0.0711 -0.607
vtan 0.7939 0.0227 -0.6076
vtan 0.6885 0.2228 -0.6902
vtan 0.6854 0.2184 -0.6947
vtan 0.5551 0.3503 -0.7544
vtan 0.5394 0.4222 -0.7285
vtan 0.6802 0.2161 -0.7004
vtan 0.7539 0.104 -0.6487
vtan 0.5989 0.3137 -0.7368
vtan 0.232 -0.1047 -0.9671
vtan 0.2159 -0.0439 -0.9754
vtan 0.0407 0.1305 -0.9906
vtan 0.0135 0.1 -0.9949
vtan -0.1473 0.3005 -0.9423
vtan -0.137 0.2838 -0.949
vtan 0.2322 -0.1813 -0.9556
vtan 0.0008 0.0689 -0.9976
vtan -0.2087 0.2924 -0.9332
vtan -0.9747 -0.2219 -0.0282
vtan -0.9853 -0.1695 -0.0222
vtan -0.9987 0.0517 0.0016
vtan -0.999 0.0423 0.0157
vtan -0.9577 0.2827 0.0534
vtan -0.9579 0.2867 0.0134
vtan -0.9998 0.004 0.0204
vtan -0.9616 -0.2734 -0.0236
vtan -0.9549 0.2884 0.0699
vtan -0.1472 -0.4022 -0.9036
vtan -0.1082 -0.3799 -0.9187
vtan -0.1686 -0.4234 -0.8901
vtan -0.176 -0.4834 -0.8576
vtan -0.1733 -0.5007 -0.8481
vtan -0.2287 -0.5446 -0.8069
vtan -0.154 -0.4563 -0.8764
vtan -0.2014 -0.5153 -0.833
vtan -0.2577 -0.5665 -0.7828
vtan 0.986 -0.1507 -0.0706
vtan 0.9871 -0.1429 -0.0722
vtan 0.9861 -0.1538 -0.0627
vtan 0.9859 -0.1598 -0.0495
vtan 0.99 -0.1222 -0.0703
vtan 0.9894 -0.1298 -0.0647
vtan 0.987 -0.1397 -0.079
vtan 0.9877 -0.1421 -0.0659
vtan 0.9873 -0.1375 -0.0793
vtan 0.5602 -0.0283 -0.8279
vtan 0.5688 -0.0169 -0.8223
vtan 0.5628 -0.0419 -0.8256
vtan 0.5662 -0.0615 -0.822
vtan 0.5824 0.0141 -0.8128
vtan 0.5749 0.0027 -0.8182
vtan 0.5681 -0.0097 -0.8229
vtan 0.5718 -0.0217 -0.8201
vtan 0.5532 0.0254 -0.8326
vtan -0.8349 -0.3327 0.4384
vtan -0.8063 -0.3708 0.4608
vtan -0.8749 -0.1408 0.4634
vtan -0.8713 -0.1468 0.4683
vtan -0.8738 0.0436 0.4843
vtan -0.8963 0.1001 0.4321
vtan -0.8682 -0.139 0.4763
vtan -0.8399 -0.278 0.4661
vtan -0.8765 -0.0101 0.4813
vtan 0.9777 -0.1531 0.1436
vtan 0.9684 -0.201 0.148
vtan 1.0 -0.009 0.0013
vtan 0.9999 -0.0168 -0.0002
vtan 0.9827 0.1166 -0.144
vtan 0.9713 0.1915 -0.1413
vtan 0.9998 -0.0179 -0.0092
vtan 0.9885 -0.125 0.0854
vtan 0.992 0.0791 -0.0982
vtan -0.3464 0.0785 0.9348
vtan -0.3508 0.0304 0.9359
vtan -0.2065 0.2231 0.9527
vtan -0.2016 0.2186 0.9547
vtan -0.0521 0.3432 0.9378
vtan -0.0483 0.4153 0.9084
vtan -0.1943 0.216 0.9569
vtan -0.2904 0.1086 0.9507
vtan -0.1009 0.309 0.9457
vtan 0.4976 -0.3914 -0.774
vtan 0.5099 -0.3329 -0.7932
vtan 0.5286 -0.0884 -0.8443
vtan 0.4986 -0.0951 -0.8616
vtan 0.4799 0.1733 -0.86
vtan 0.5515 0.1894 -0.8124
vtan 0.4882 -0.1518 -0.8594
vtan 0.4576 -0.4398 -0.7727
vtan 0.4599 0.18 -0.8695
vtan -0.989 -0.1468 0.0181
vtan -0.9946 -0.1029 0.0146
vtan -0.9537 0.3002 -0.0195
vtan -0.9416 0.3363 0.0149
vtan -0.713 0.7011 -0.0019
vtan -0.6943 0.7139 -0.0908
vtan -0.9608 0.2757 0.0291
vtan -0.9816 -0.1904 -0.0112
vtan -0.6935 0.7157 0.0824
vtan -0.0668 -0.1463 0.987
vtan -0.0708 -0.1024 0.9922
vtan -0.1012 0.3007 0.9483
vtan -0.0659 0.3368 0.9393
vtan -0.063 0.7015 0.7099
vtan -0.15 0.7143 0.6836
vtan -0.0534 0.2762 0.9596
vtan -0.0954 -0.1899 0.9772
vtan 0.0227 0.7161 0.6976
vtan -0.8453 0.048 0.5321
vtan -0.8351 0.0672 0.546
vtan -0.846 0.0327 0.5322
vtan -0.8524 -0.0089 0.5229
vtan -0.86 -0.0165 0.5101
vtan -0.85 -0.0633 0.523
vtan -0.8488 -0.0312 0.5277
vtan -0.8529 0.0192 0.5218
vtan -0.8357 -0.0852 0.5425
vtan 0.7935 -0.5972 -0.1174
vtan 0.8854 -0.4573 -0.0837
vtan 0.931 -0.3511 -0.0999
vtan 0.8918 -0.4326 -0.1326
vtan 0.9735 -0.2213 -0.0575
vtan 0.9429 -0.2866 -0.1698
vtan 0.765 -0.6316 -0.1261
vtan 0.6586 -0.7284 -0.189
vtan 0.9233 -0.3428 -0.1732
vtan 0.4935 -0.8514 0.1777
vtan 0.6188 -0.7456 0.2475
vtan 0.7055 -0.6602 0.2578
vtan 0.6503 -0.7304 0.2091
vtan 0.7753 -0.5456 0.318
vtan 0.7675 -0.6099 0.1976
vtan 0.4586 -0.8746 0.1573
vtan 0.3481 -0.936 0.0518
vtan 0.7282 -0.6591 0.1877
vtan 0.4935 -0.8514 0.1777
vtan 0.6188 -0.7456 0.2475
vtan 0.7055 -0.6602 0.2578
vtan 0.6503 -0.7303 0.2091
vtan 0.7753 -0.5456 0.318
vtan 0.7675 -0.6099 0.1976
vtan 0.4586 -0.8746 0.1573
vtan 0.3482 -0.936 0.0518
vtan 0.7282 -0.6592 0.1877
vtan 0.7935 -0.5972 -0.1174
vtan 0.8854 -0.4573 -0.0837
vtan 0.931 -0.3511 -0.0999
vtan 0.8918 -0.4326 -0.1327
vtan 0.9735 -0.2213 -0.0575
vtan 0.9429 -0.2866 -0.1698
vtan 0.765 -0.6316 -0.1261
vtan 0.6586 -0.7284 -0.189
vtan 0.9233 -0.3428 -0.1732
vtan 0.4935 -0.8514 0.1777
vtan 0.6188 -0.7456 0.2475
vtan 0.7055 -0.6602 0.2578
vtan 0.6503 -0.7303 0.2091
vtan 0.7753 -0.5456 0.318
vtan 0.7675 -0.6099 0.1976
vtan 0.4586 -0.8746 0.1573
vtan 0.3481 -0.936 0.0518
vtan 0.7282 -0.6591 0.1877
vtan -0.6364 0.0716 -0.768
vtan -0.6552 0.0702 -0.7522
vtan -0.5059 -0.0062 -0.8626
vtan -0.4873 -0.021 -0.873
vtan -0.7871 0.1501 -0.5983
vtan -0.7686 0.1294 -0.6265
vtan -0.6565 0.0637 -0.7517
vtan -0.5665 0.0067 -0.824
vtan -0.7234 0.1137 -0.681
f 0/0/0/0 1/1/1/1 2/2/2/2 
f 0/0/0/0 2/2/2/2 3/3/3/3 
f 1/1/1/1 0/0/0/0 4/4/4/4 
f 1/1/1/1 4/4/4/4 5/5/5/5 
f 2/2/2/2 1/1/1/1 6/6/6/6 
f 2/2/2/2 6/6/6/6 7/7/7/7 
f 5/5/5/5 8/8/8/8 6/6/6/6 
f 5/5/5/5 6/6/6/6 1/1/1/1 
f 9/9/9/9 10/10/10/10 11/11/11/11 
f 9/9/9/9 11/11/11/11 12/12/12/12 
f 9/9/9/9 12/12/12/12 13/13/13/13 
f 9/9/9/9 13/13/13/13 14/14/14/14 
f 15/15/15/15 10/10/10/10 9/9/9/9 
f 15/15/15/15 9/9/9/9 16/16/16/16 
f 17/17/17/17 16/16/16/16 9/9/9/9 
f 17/17/17/17 9/9/9/9 14/14/14/14 
f 18/18/18/18 19/19/19/19 20/20/20/20 
f 18/18/18/18 20/20/20/20 21/21/21/21 
f 22/22/22/22 21/21/21/21 20/20/20/20 
f 22/22/22/22 20/20/20/20 23/23/23/23 
f 24/24/24/24 25/25/25/25 18/18/18/18 
f 24/24/24/24 18/18/18/18 21/21/21/21 
f 24/24/24/24 21/21/21/21 22/22/22/22 
f 24/24/24/24 22/22/22/22 26/26/26/26 
f 27/18/27/27 28/19/28/28 29/20/29/29 
f 27/18/27/27 29/20/29/29 30/21/30/30 
f 31/22/31/31 30/21/30/30 29/20/29/29 
f 31/22/31/31 29/20/29/29 32/23/32/32 
f 33/24/33/33 34/25/34/34 27/18/27/27 
f 33/24/33/33 27/18/27/27 30/21/30/30 
f 33/24/33/33 30/21/30/30 31/22/31/31 
f 33/24/33/33 31/22/31/31 35/26/35/35 
f 36/27/36/36 37/28/37/37 38/29/38/38 
f 36/27/36/36 38/29/38/38 39/30/39/39 
f 39/30/39/39 38/29/38/38 40/31/40/40 
f 39/30/39/39 40/31/40/40 41/32/41/41 
f 42/33/42/42 43/34/43/43 36/27/36/36 
f 42/33/42/42 36/27/36/36 39/30/39/39 
f 44/35/44/44 42/33/42/42 39/30/39/39 
f 44/35/44/44 39/30/39/39 41/32/41/41 
f 45/0/45/45 46/1/46/46 47/2/47/47 
f 45/0/45/45 47/2/47/47 48/3/48/48 
f 49/4/49/49 50/5/50/50 46/1/46/46 
f 49/4/49/49 46/1/46/46 45/0/45/45 
f 47/2/47/47 46/1/46/46 51/6/51/51 
f 47/2/47/47 51/6/51/51 52/7/52/52 
f 50/5/50/50 53/8/53/53 51/6/51/51 
f 50/5/50/50 51/6/51/51 46/1/46/46 
f 54/36/54/54 55/37/55/55 56/38/56/56 
f 54/36/54/54 56/38/56/56 57/39/57/57 
f 58/40/58/58 57/39/57/57 56/38/56/56 
f 58/40/58/58 56/38/56/56 59/41/59/59 
f 60/42/60/60 61/43/61/61 54/36/54/54 
f 60/42/60/60 54/36/54/54 57/39/57/57 
f 62/44/62/62 60/42/60/60 57/39/57/57 
f 62/44/62/62 57/39/57/57 58/40/58/58 
f 63/18/63/63 64/19/64/64 65/20/65/65 
f 63/18/63/63 65/20/65/65 66/21/66/66 
f 67/22/67/67 66/21/66/66 65/20/65/65 
f 67/22/67/67 65/20/65/65 68/23/68/68 
f 69/24/69/69 70/25/70/70 63/18/63/63 
f 69/24/69/69 63/18/63/63 66/21/66/66 
f 69/24/69/69 66/21/66/66 67/22/67/67 
f 69/24/69/69 67/22/67/67 71/26/71/71 
f 72/45/72/72 73/46/73/73 74/47/74/74 
f 72/45/72/72 74/47/74/74 75/48/75/75 
f 72/45/72/72 76/49/76/76 77/50/77/77 
f 72/45/72/72 77/50/77/77 73/46/73/73 
f 74/47/74/74 73/46/73/73 78/51/78/78 
f 74/47/74/74 78/51/78/78 79/52/79/79 
f 73/46/73/73 77/50/77/77 80/53/80/80 
f 73/46/73/73 80/53/80/80 78/51/78/78 
f 81/54/81/81 82/55/82/82 83/56/83/83 
f 81/54/81/81 83/56/83/83 84/57/84/84 
f 85/58/85/85 84/57/84/84 83/56/83/83 
f 85/58/85/85 83/56/83/83 86/59/86/86 
f 87/60/87/87 88/61/88/88 81/54/81/81 
f 87/60/87/87 81/54/81/81 84/57/84/84 
f 87/60/87/87 84/57/84/84 85/58/85/85 
f 87/60/87/87 85/58/85/85 89/62/89/89 
f 90/54/90/90 91/55/91/91 92/56/92/92 
f 90/54/90/90 92/56/92/92 93/57/93/93 
f 94/58/94/94 93/57/93/93 92/56/92/92 
f 94/58/94/94 92/56/92/92 95/59/95/95 
f 96/60/96/96 97/61/97/97 90/54/90/90 
f 96/60/96/96 90/54/90/90 93/57/93/93 
f 96/60/96/96 93/57/93/93 94/58/94/94 
f 96/60/96/96 94/58/94/94 98/62/98/98 
f 99/18/99/99 100/19/100/100 101/20/101/101 
f 99/18/99/99 101/20/101/101 102/21/102/102 
f 103/22/103/103 102/21/102/102 101/20/101/101 
f 103/22/103/103 101/20/101/101 104/23/104/104 
f 105/24/105/105 106/25/106/106 99/18/99/99 
f 105/24/105/105 99/18/99/99 102/21/102/102 
f 105/24/105/105 102/21/102/102 103/22/103/103 
f 105/24/105/105 103/22/103/103 107/26/107/107 
f 108/54/108/108 109/55/109/109 110/56/110/110 
f 108/54/108/108 110/56/110/110 111/57/111/111 
f 112/58/112/112 111/57/111/111 110/56/110/110 
f 112/58/112/112 110/56/110/110 113/59/113/113 
f 114/60/114/114 115/61/115/115 108/54/108/108 
f 114/60/114/114 108/54/108/108 111/57/111/111 
f 114/60/114/114 111/57/111/111 112/58/112/112 
f 114/60/114/114 112/58/112/112 116/62/116/116 
f 117/36/117/117 118/37/118/118 119/38/119/119 
f 117/36/117/117 119/38/119/119 120/39/120/120 
f 121/40/121/121 120/39/120/120 119/38/119/119 
f 121/40/121/121 119/38/119/119 122/41/122/122 
f 123/42/123/123 124/43/124/124 117/36/117/117 
f 123/42/123/123 117/36/117/117 120/39/120/120 
f 125/44/125/125 123/42/123/123 120/39/120/120 
f 125/44/125/125 120/39/120/120 121/40/121/121 
f 126/0/126/126 127/1/127/127 128/2/128/128 
f 126/0/126/126 128/2/128/128 129/3/129/129 
f 126/0/126/126 130/4/130/130 131/5/131/131 
f 126/0/126/126 131/5/131/131 127/1/127/127 
f 128/2/128/128 127/1/127/127 132/6/132/132 
f 128/2/128/128 132/6/132/132 133/7/133/133 
f 131/5/131/131 134/8/134/134 132/6/132/132 
f 131/5/131/131 132/6/132/132 127/1/127/127 
f 135/63/135/135 136/64/136/136 137/65/137/137 
f 135/63/135/135 137/65/137/137 138/66/138/138 
f 139/67/139/139 138/66/138/138 137/65/137/137 
f 139/67/139/139 137/65/137/137 140/68/140/140 
f 141/69/141/141 142/70/142/142 135/63/135/135 
f 141/69/141/141 135/63/135/135 138/66/138/138 
f 141/69/141/141 138/66/138/138 139/67/139/139 
f 141/69/141/141 139/67/139/139 143/71/143/143 
f 144/72/144/144 145/73/145/145 146/74/146/146 
f 144/72/144/144 146/74/146/146 147/75/147/147 
f 144/72/144/144 148/76/148/148 149/77/149/149 
f 144/72/144/144 149/77/149/149 145/73/145/145 
f 146/74/146/146 145/73/145/145 150/78/150/150 
f 146/74/146/146 150/78/150/150 151/79/151/151 
f 149/77/149/149 152/80/152/152 150/78/150/150 
f 149/77/149/149 150/78/150/150 145/73/145/145 
f 153/54/153/153 154/55/154/154 155/56/155/155 
f 153/54/153/153 155/56/155/155 156/57/156/156 
f 157/58/157/157 156/57/156/156 155/56/155/155 
f 157/58/157/157 155/56/155/155 158/59/158/158 
f 159/60/159/159 160/61/160/160 153/54/153/153 
f 159/60/159/159 153/54/153/153 156/57/156/156 
f 159/60/159/159 156/57/156/156 157/58/157/157 
f 159/60/159/159 157/58/157/157 161/62/161/161 
f 162/2/162/162 163/1/163/163 164/0/164/164 
f 162/2/162/162 164/0/164/164 165/3/165/165 
f 163/1/163/163 166/5/166/166 167/4/167/167 
f 163/1/163/163 167/4/167/167 164/0/164/164 
f 162/2/162/162 168/7/168/168 169/6/169/169 
f 162/2/162/162 169/6/169/169 163/1/163/163 
f 163/1/163/163 169/6/169/169 170/8/170/170 
f 163/1/163/163 170/8/170/170 166/5/166/166 
f 171/54/171/171 172/55/172/172 173/56/173/173 
f 171/54/171/171 173/56/173/173 174/57/174/174 
f 175/58/175/175 174/57/174/174 173/56/173/173 
f 175/58/175/175 173/56/173/173 176/59/176/176 
f 177/60/177/177 178/61/178/178 171/54/171/171 
f 177/60/177/177 171/54/171/171 174/57/174/174 
f 177/60/177/177 174/57/174/174 175/58/175/175 
f 177/60/177/177 175/58/175/175 179/62/179/179 
f 180/54/180/180 181/55/181/181 182/56/182/182 
f 180/54/180/180 182/56/182/182 183/57/183/183 
f 184/58/184/184 183/57/183/183 182/56/182/182 
f 184/58/184/184 182/56/182/182 185/59/185/185 
f 186/60/186/186 187/61/187/187 180/54/180/180 
f 186/60/186/186 180/54/180/180 183/57/183/183 
f 186/60/186/186 183/57/183/183 184/58/184/184 
f 186/60/186/186 184/58/184/184 188/62/188/188 
f 189/54/189/189 190/55/190/190 191/56/191/191 
f 189/54/189/189 191/56/191/191 192/57/192/192 
f 193/58/193/193 192/57/192/192 191/56/191/191 
f 193/58/193/193 191/56/191/191 194/59/194/194 
f 195/60/195/195 196/61/196/196 189/54/189/189 
f 195/60/195/195 189/54/189/189 192/57/192/192 
f 195/60/195/195 192/57/192/192 193/58/193/193 
f 195/60/195/195 193/58/193/193 197/62/197/197 
f 198/0/198/198 199/1/199/199 200/2/200/200 
f 198/0/198/198 200/2/200/200 201/3/201/201 
f 202/4/202/202 203/5/203/203 199/1/199/199 
f 202/4/202/202 199/1/199/199 198/0/198/198 
f 200/2/200/200 199/1/199/199 204/6/204/204 
f 200/2/200/200 204/6/204/204 205/7/205/205 
f 203/5/203/203 206/8/206/206 204/6/204/204 
f 203/5/203/203 204/6/204/204 199/1/199/199 
f 207/18/207/207 208/19/208/208 209/20/209/209 
f 207/18/207/207 209/20/209/209 210/21/210/210 
f 211/22/211/211 210/21/210/210 209/20/209/209 
f 211/22/211/211 209/20/209/209 212/23/212/212 
f 213/24/213/213 214/25/214/214 207/18/207/207 
f 213/24/213/213 207/18/207/207 210/21/210/210 
f 213/24/213/213 210/21/210/210 211/22/211/211 
f 213/24/213/213 211/22/211/211 215/26/215/215 
f 216/63/216/216 217/64/217/217 218/65/218/218 
f 216/63/216/216 218/65/218/218 219/66/219/219 
f 220/67/220/220 219/66/219/219 218/65/218/218 
f 220/67/220/220 218/65/218/218 221/68/221/221 
f 222/69/222/222 223/70/223/223 216/63/216/216 
f 222/69/222/222 216/63/216/216 219/66/219/219 
f 222/69/222/222 219/66/219/219 220/67/220/220 
f 222/69/222/222 220/67/220/220 224/71/224/224 
f 225/48/225/225 226/45/226/226 227/46/227/227 
f 225/48/225/225 227/46/227/227 228/47/228/228 
f 226/45/226/226 229/49/229/229 230/50/230/230 
f 226/45/226/226 230/50/230/230 227/46/227/227 
f 228/47/228/228 227/46/227/227 231/51/231/231 
f 228/47/228/228 231/51/231/231 232/52/232/232 
f 227/46/227/227 230/50/230/230 233/53/233/233 
f 227/46/227/227 233/53/233/233 231/51/231/231 
f 234/81/234/234 235/82/235/235 236/83/236/236 
f 234/81/234/234 236/83/236/236 237/84/237/237 
f 238/85/238/238 239/86/239/239 235/82/235/235 
f 238/85/238/238 235/82/235/235 234/81/234/234 
f 236/83/236/236 235/82/235/235 240/87/240/240 
f 236/83/236/236 240/87/240/240 241/88/241/241 
f 235/82/235/235 239/86/239/239 242/89/242/242 
f 235/82/235/235 242/89/242/242 240/87/240/240 
f 243/45/243/243 244/46/244/244 245/47/245/245 
f 243/45/243/243 245/47/245/245 246/48/246/246 
f 243/45/243/243 247/49/247/247 248/50/248/248 
f 243/45/243/243 248/50/248/248 244/46/244/244 
f 245/47/245/245 244/46/244/244 249/51/249/249 
f 245/47/245/245 249/51/249/249 250/52/250/250 
f 244/46/244/244 248/50/248/248 251/53/251/251 
f 244/46/244/244 251/53/251/251 249/51/249/249 
f 252/27/252/252 253/28/253/253 254/29/254/254 
f 252/27/252/252 254/29/254/254 255/30/255/255 
f 255/30/255/255 254/29/254/254 256/31/256/256 
f 255/30/255/255 256/31/256/256 257/32/257/257 
f 258/33/258/258 259/34/259/259 252/27/252/252 
f 258/33/258/258 252/27/252/252 255/30/255/255 
f 260/35/260/260 258/33/258/258 255/30/255/255 
f 260/35/260/260 255/30/255/255 257/32/257/257 
f 261/72/261/261 262/73/262/262 263/74/263/263 
f 261/72/261/261 263/74/263/263 264/75/264/264 
f 261/72/261/261 265/76/265/265 266/77/266/266 
f 261/72/261/261 266/77/266/266 262/73/262/262 
f 263/74/263/263 262/73/262/262 267/78/267/267 
f 263/74/263/263 267/78/267/267 268/79/268/268 
f 266/77/266/266 269/80/269/269 267/78/267/267 
f 266/77/266/266 267/78/267/267 262/73/262/262 
f 270/56/270/270 271/55/271/271 272/54/272/272 
f 270/56/270/270 272/54/272/272 273/57/273/273 
f 274/58/274/274 275/59/275/275 270/56/270/270 
f 274/58/274/274 270/56/270/270 273/57/273/273 
f 276/60/276/276 273/57/273/273 272/54/272/272 
f 276/60/276/276 272/54/272/272 277/61/277/277 
f 274/58/274/274 273/57/273/273 276/60/276/276 
f 274/58/274/274 276/60/276/276 278/62/278/278 
f 279/54/279/279 280/55/280/280 281/56/281/281 
f 279/54/279/279 281/56/281/281 282/57/282/282 
f 283/58/283/283 282/57/282/282 281/56/281/281 
f 283/58/283/283 281/56/281/281 284/59/284/284 
f 285/60/285/285 286/61/286/286 279/54/279/279 
f 285/60/285/285 279/54/279/279 282/57/282/282 
f 285/60/285/285 282/57/282/282 283/58/283/283 
f 285/60/285/285 283/58/283/283 287/62/287/287 
f 288/10/288/288 289/11/289/289 290/12/290/290 
f 288/10/288/288 290/12/290/290 291/9/291/291 
f 291/9/291/291 290/12/290/290 292/13/292/292 
f 291/9/291/291 292/13/292/292 293/14/293/293 
f 294/15/294/294 288/10/288/288 291/9/291/291 
f 294/15/294/294 291/9/291/291 295/16/295/295 
f 296/17/296/296 295/16/295/295 291/9/291/291 
f 296/17/296/296 291/9/291/291 293/14/293/293 
f 297/90/297/297 298/91/298/298 299/92/299/299 
f 297/90/297/297 299/92/299/299 300/93/300/300 
f 301/94/301/301 300/93/300/300 299/92/299/299 
f 301/94/301/301 299/92/299/299 302/95/302/302 
f 303/96/303/303 304/97/304/304 297/90/297/297 
f 303/96/303/303 297/90/297/297 300/93/300/300 
f 303/96/303/303 300/93/300/300 301/94/301/301 
f 303/96/303/303 301/94/301/301 305/98/305/305 
f 306/27/306/306 307/28/307/307 308/29/308/308 
f 306/27/306/306 308/29/308/308 309/30/309/309 
f 309/30/309/309 308/29/308/308 310/31/310/310 
f 309/30/309/309 310/31/310/310 311/32/311/311 
f 312/34/312/312 306/27/306/306 309/30/309/309 
f 312/34/312/312 309/30/309/309 313/33/313/313 
f 314/35/314/314 313/33/313/313 309/30/309/309 
f 314/35/314/314 309/30/309/309 311/32/311/311 
f 315/0/315/315 316/1/316/316 317/2/317/317 
f 315/0/315/315 317/2/317/317 318/3/318/318 
f 319/4/319/319 320/5/320/320 316/1/316/316 
f 319/4/319/319 316/1/316/316 315/0/315/315 
f 317/2/317/317 316/1/316/316 321/6/321/321 
f 317/2/317/317 321/6/321/321 322/7/322/322 
f 316/1/316/316 320/5/320/320 323/8/323/323 
f 316/1/316/316 323/8/323/323 321/6/321/321 
f 324/0/324/324 325/1/325/325 326/2/326/326 
f 324/0/324/324 326/2/326/326 327/3/327/327 
f 328/4/328/328 329/5/329/329 325/1/325/325 
f 328/4/328/328 325/1/325/325 324/0/324/324 
f 326/2/326/326 325/1/325/325 330/6/330/330 
f 326/2/326/326 330/6/330/330 331/7/331/331 
f 329/5/329/329 332/8/332/332 330/6/330/330 
f 329/5/329/329 330/6/330/330 325/1/325/325 
f 333/54/333/333 334/55/334/334 335/56/335/335 
f 333/54/333/333 335/56/335/335 336/57/336/336 
f 337/58/337/337 336/57/336/336 335/56/335/335 
f 337/58/337/337 335/56/335/335 338/59/338/338 
f 339/60/339/339 340/61/340/340 333/54/333/333 
f 339/60/339/339 333/54/333/333 336/57/336/336 
f 339/60/339/339 336/57/336/336 337/58/337/337 
f 339/60/339/339 337/58/337/337 341/62/341/341 
f 342/54/342/342 343/55/343/343 344/56/344/344 
f 342/54/342/342 344/56/344/344 345/57/345/345 
f 346/58/346/346 345/57/345/345 344/56/344/344 
f 346/58/346/346 344/56/344/344 347/59/347/347 
f 348/60/348/348 349/61/349/349 342/54/342/342 
f 348/60/348/348 342/54/342/342 345/57/345/345 
f 348/60/348/348 345/57/345/345 346/58/346/346 
f 348/60/348/348 346/58/346/346 350/62/350/350 
f 351/54/351/351 352/55/352/352 353/56/353/353 
f 351/54/351/351 353/56/353/353 354/57/354/354 
f 355/58/355/355 354/57/354/354 353/56/353/353 
f 355/58/355/355 353/56/353/353 356/59/356/356 
f 357/60/357/357 358/61/358/358 351/54/351/351 
f 357/60/357/357 351/54/351/351 354/57/354/354 
f 357/60/357/357 354/57/354/354 355/58/355/355 
f 357/60/357/357 355/58/355/355 359/62/359/359 
f 360/63/360/360 361/64/361/361 362/65/362/362 
f 360/63/360/360 362/65/362/362 363/66/363/363 
f 364/67/364/364 363/66/363/363 362/65/362/362 
f 364/67/364/364 362/65/362/362 365/68/365/365 
f 366/69/366/366 367/70/367/367 360/63/360/360 
f 366/69/366/366 360/63/360/360 363/66/363/363 
f 366/69/366/366 363/66/363/363 364/67/364/364 
f 366/69/366/366 364/67/364/364 368/71/368/368 
f 369/18/369/369 370/19/370/370 371/20/371/371 
f 369/18/369/369 371/20/371/371 372/21/372/372 
f 373/22/373/373 372/21/372/372 371/20/371/371 
f 373/22/373/373 371/20/371/371 374/23/374/374 
f 375/24/375/375 376/25/376/376 369/18/369/369 
f 375/24/375/375 369/18/369/369 372/21/372/372 
f 375/24/375/375 372/21/372/372 373/22/373/373 
f 375/24/375/375 373/22/373/373 377/26/377/377 
f 378/18/378/378 379/19/379/379 380/20/380/380 
f 378/18/378/378 380/20/380/380 381/21/381/381 
f 382/22/382/382 381/21/381/381 380/20/380/380 
f 382/22/382/382 380/20/380/380 383/23/383/383 
f 384/24/384/384 385/25/385/385 378/18/378/378 
f 384/24/384/384 378/18/378/378 381/21/381/381 
f 384/24/384/384 381/21/381/381 382/22/382/382 
f 384/24/384/384 382/22/382/382 386/26/386/386 
f 387/27/387/387 388/28/388/388 389/29/389/389 
f 387/27/387/387 389/29/389/389 390/30/390/390 
f 390/30/390/390 389/29/389/389 391/31/391/391 
f 390/30/390/390 391/31/391/391 392/32/392/392 
f 393/33/393/393 394/34/394/394 387/27/387/387 
f 393/33/393/393 387/27/387/387 390/30/390/390 
f 395/35/395/395 393/33/393/393 390/30/390/390 
f 395/35/395/395 390/30/390/390 392/32/392/392 
f 396/83/396/396 397/84/397/397 398/81/398/398 
f 396/83/396/396 398/81/398/398 399/82/399/399 
f 398/81/398/398 400/85/400/400 401/86/401/401 
f 398/81/398/398 401/86/401/401 399/82/399/399 
f 396/83/396/396 399/82/399/399 402/87/402/402 
f 396/83/396/396 402/87/402/402 403/88/403/403 
f 399/82/399/399 401/86/401/401 404/89/404/404 
f 399/82/399/399 404/89/404/404 402/87/402/402 
f 405/83/405/405 406/84/406/406 407/81/407/407 
f 405/83/405/405 407/81/407/407 408/82/408/408 
f 407/81/407/407 409/85/409/409 410/86/410/410 
f 407/81/407/407 410/86/410/410 408/82/408/408 
f 405/83/405/405 408/82/408/408 411/87/411/411 
f 405/83/405/405 411/87/411/411 412/88/412/412 
f 408/82/408/408 410/86/410/410 413/89/413/413 
f 408/82/408/408 413/89/413/413 411/87/411/411 
f 414/83/414/414 415/84/415/415 416/81/416/416 
f 414/83/414/414 416/81/416/416 417/82/417/417 
f 416/81/416/416 418/85/418/418 419/86/419/419 
f 416/81/416/416 419/86/419/419 417/82/417/417 
f 414/83/414/414 417/82/417/417 420/87/420/420 
f 414/83/414/414 420/87/420/420 421/88/421/421 
f 417/82/417/417 419/86/419/419 422/89/422/422 
f 417/82/417/417 422/89/422/422 420/87/420/420 
f 423/83/423/423 424/84/424/424 425/81/425/425 
f 423/83/423/423 425/81/425/425 426/82/426/426 
f 425/81/425/425 427/85/427/427 428/86/428/428 
f 425/81/425/425 428/86/428/428 426/82/426/426 
f 423/83/423/423 426/82/426/426 429/87/429/429 
f 423/83/423/423 429/87/429/429 430/88/430/430 
f 426/82/426/426 428/86/428/428 431/89/431/431 
f 426/82/426/426 431/89/431/431 429/87/429/429 
f 432/83/432/432 433/84/433/433 434/81/434/434 
f 432/83/432/432 434/81/434/434 435/82/435/435 
f 434/81/434/434 436/85/436/436 437/86/437/437 
f 434/81/434/434 437/86/437/437 435/82/435/435 
f 432/83/432/432 435/82/435/435 438/87/438/438 
f 432/83/432/432 438/87/438/438 439/88/439/439 
f 435/82/435/435 437/86/437/437 440/89/440/440 
f 435/82/435/435 440/89/440/440 438/87/438/438 
f 441/56/441/441 442/57/442/442 443/54/443/443 
f 441/56/441/441 443/54/443/443 444/55/444/444 
f 445/59/445/445 446/58/446/446 442/57/442/442 
f 445/59/445/445 442/57/442/442 441/56/441/441 
f 443/54/443/443 442/57/442/442 447/60/447/447 
f 443/54/443/443 447/60/447/447 448/61/448/448 
f 446/58/446/446 449/62/449/449 447/60/447/447 
f 446/58/446/446 447/60/447/447 442/57/442/442 
