v 422.2353 279.8812 -279.1519
v 422.2353 280.1829 -280.278
v 462.3999 280.1829 -280.278
v 462.3999 279.8812 -279.1519
v 422.2353 281.0074 -281.1023
v 462.3999 281.0074 -281.1023
v 422.2353 282.1335 -281.4041
v 462.3999 282.1335 -281.4041
v 422.2353 283.2597 -281.1023
v 462.3999 283.2597 -281.1023
v 422.2353 284.0839 -280.278
v 462.3999 284.0839 -280.278
v 422.2353 284.3857 -279.1518
v 462.3999 284.3857 -279.1518
v 422.2353 284.0839 -278.0257
v 462.3999 284.0839 -278.0257
v 422.2353 283.2596 -277.2013
v 462.3999 283.2596 -277.2013
v 422.2353 282.1334 -276.8996
v 462.3999 282.1334 -276.8996
v 422.2353 281.0073 -277.2013
v 462.3999 281.0073 -277.2013
v 422.2353 280.1829 -278.0258
v 462.3999 280.1829 -278.0258
v 382.0707 279.8812 -279.1519
v 382.0707 280.1829 -280.278
v 382.0707 281.0074 -281.1023
v 382.0707 282.1335 -281.4041
v 382.0707 283.2597 -281.1023
v 382.0707 284.0839 -280.278
v 382.0707 284.3857 -279.1518
v 382.0707 284.0839 -278.0257
v 382.0707 283.2596 -277.2013
v 382.0707 282.1334 -276.8996
v 382.0707 281.0073 -277.2013
v 382.0707 280.1829 -278.0258
v 341.9061 279.8812 -279.1519
v 341.9061 280.1829 -280.278
v 341.9061 281.0074 -281.1023
v 341.9061 282.1335 -281.4041
v 341.9061 283.2597 -281.1023
v 341.9061 284.0839 -280.278
v 341.9061 284.3857 -279.1518
v 341.9061 284.0839 -278.0257
v 341.9061 283.2596 -277.2013
v 341.9061 282.1334 -276.8996
v 341.9061 281.0073 -277.2013
v 341.9061 280.1829 -278.0258
v 307.4613 279.8812 -279.1519
v 307.4613 280.1829 -280.278
v 307.4613 281.0074 -281.1023
v 307.4613 282.1335 -281.4041
v 307.4613 283.2597 -281.1023
v 307.4613 284.0839 -280.278
v 307.4613 284.3857 -279.1518
v 307.4613 284.0839 -278.0257
v 307.4613 283.2596 -277.2013
v 307.4613 282.1334 -276.8996
v 307.4613 281.0073 -277.2013
v 307.4613 280.1829 -278.0258
v 152.5228 280.1829 -280.278
v 192.6874 280.1829 -280.278
v 192.6874 279.8812 -279.1519
v 152.5228 279.8812 -279.1519
v 152.5228 281.0074 -281.1023
v 192.6874 281.0074 -281.1023
v 152.5228 282.1335 -281.4041
v 192.6874 282.1335 -281.4041
v 152.5228 283.2597 -281.1023
v 192.6874 283.2597 -281.1023
v 152.5228 284.0839 -280.278
v 192.6874 284.0839 -280.278
v 152.5228 284.3857 -279.1518
v 192.6874 284.3857 -279.1518
v 152.5228 284.0839 -278.0257
v 192.6874 284.0839 -278.0257
v 152.5228 283.2596 -277.2013
v 192.6874 283.2596 -277.2013
v 152.5228 282.1334 -276.8996
v 192.6874 282.1334 -276.8996
v 152.5228 281.0073 -277.2013
v 192.6874 281.0073 -277.2013
v 152.5228 280.1829 -278.0258
v 192.6874 280.1829 -278.0258
v 232.8519 280.1829 -280.278
v 232.8519 279.8812 -279.1519
v 232.8519 281.0074 -281.1023
v 232.8519 282.1335 -281.4041
v 232.8519 283.2597 -281.1023
v 232.8519 284.0839 -280.278
v 232.8519 284.3857 -279.1518
v 232.8519 284.0839 -278.0257
v 232.8519 283.2596 -277.2013
v 232.8519 282.1334 -276.8996
v 232.8519 281.0073 -277.2013
v 232.8519 280.1829 -278.0258
v 273.0165 280.1829 -280.278
v 273.0166 279.8812 -279.1519
v 273.0165 281.0074 -281.1023
v 273.0165 282.1335 -281.4041
v 273.0165 283.2597 -281.1023
v 273.0165 284.0839 -280.278
v 273.0165 284.3857 -279.1518
v 273.0165 284.0839 -278.0257
v 273.0165 283.2596 -277.2013
v 273.0165 282.1334 -276.8996
v 273.0165 281.0073 -277.2013
v 273.0165 280.1829 -278.0258
gi 0 0 0 0
gi 0 0 0 0
gi 0 0 0 0
gi 0 0 0 0
gi 0 0 0 0
gi 0 0 0 0
gi 0 0 0 0
gi 0 0 0 0
gi 0 0 0 0
gi 0 0 0 0
gi 0 0 0 0
gi 0 0 0 0
gi 0 0 0 0
gi 0 0 0 0
gi 0 0 0 0
gi 0 0 0 0
gi 0 0 0 0
gi 0 0 0 0
gi 0 0 0 0
gi 0 0 0 0
gi 0 0 0 0
gi 0 0 0 0
gi 0 0 0 0
gi 0 0 0 0
gi 0 0 0 0
gi 0 0 0 0
gi 0 0 0 0
gi 0 0 0 0
gi 0 0 0 0
gi 0 0 0 0
gi 0 0 0 0
gi 0 0 0 0
gi 0 0 0 0
gi 0 0 0 0
gi 0 0 0 0
gi 0 0 0 0
gi 0 0 0 0
gi 0 0 0 0
gi 0 0 0 0
gi 0 0 0 0
gi 0 0 0 0
gi 0 0 0 0
gi 0 0 0 0
gi 0 0 0 0
gi 0 0 0 0
gi 0 0 0 0
gi 0 0 0 0
gi 0 0 0 0
gi 0 0 0 0
gi 0 0 0 0
gi 0 0 0 0
gi 0 0 0 0
gi 0 0 0 0
gi 0 0 0 0
gi 0 0 0 0
gi 0 0 0 0
gi 0 0 0 0
gi 0 0 0 0
gi 0 0 0 0
gi 0 0 0 0
gi 0 0 0 0
gi 0 0 0 0
gi 0 0 0 0
gi 0 0 0 0
gi 0 0 0 0
gi 0 0 0 0
gi 0 0 0 0
gi 0 0 0 0
gi 0 0 0 0
gi 0 0 0 0
gi 0 0 0 0
gi 0 0 0 0
gi 0 0 0 0
gi 0 0 0 0
gi 0 0 0 0
gi 0 0 0 0
gi 0 0 0 0
gi 0 0 0 0
gi 0 0 0 0
gi 0 0 0 0
gi 0 0 0 0
gi 0 0 0 0
gi 0 0 0 0
gi 0 0 0 0
gi 0 0 0 0
gi 0 0 0 0
gi 0 0 0 0
gi 0 0 0 0
gi 0 0 0 0
gi 0 0 0 0
gi 0 0 0 0
gi 0 0 0 0
gi 0 0 0 0
gi 0 0 0 0
gi 0 0 0 0
gi 0 0 0 0
gi 0 0 0 0
gi 0 0 0 0
gi 0 0 0 0
gi 0 0 0 0
gi 0 0 0 0
gi 0 0 0 0
gi 0 0 0 0
gi 0 0 0 0
gi 0 0 0 0
gi 0 0 0 0
gi 0 0 0 0
gi 0 0 0 0
gw 0.0 0.0 0.0 0.0
gw 0.0 0.0 0.0 0.0
gw 0.0 0.0 0.0 0.0
gw 0.0 0.0 0.0 0.0
gw 0.0 0.0 0.0 0.0
gw 0.0 0.0 0.0 0.0
gw 0.0 0.0 0.0 0.0
gw 0.0 0.0 0.0 0.0
gw 0.0 0.0 0.0 0.0
gw 0.0 0.0 0.0 0.0
gw 0.0 0.0 0.0 0.0
gw 0.0 0.0 0.0 0.0
gw 0.0 0.0 0.0 0.0
gw 0.0 0.0 0.0 0.0
gw 0.0 0.0 0.0 0.0
gw 0.0 0.0 0.0 0.0
gw 0.0 0.0 0.0 0.0
gw 0.0 0.0 0.0 0.0
gw 0.0 0.0 0.0 0.0
gw 0.0 0.0 0.0 0.0
gw 0.0 0.0 0.0 0.0
gw 0.0 0.0 0.0 0.0
gw 0.0 0.0 0.0 0.0
gw 0.0 0.0 0.0 0.0
gw 0.0 0.0 0.0 0.0
gw 0.0 0.0 0.0 0.0
gw 0.0 0.0 0.0 0.0
gw 0.0 0.0 0.0 0.0
gw 0.0 0.0 0.0 0.0
gw 0.0 0.0 0.0 0.0
gw 0.0 0.0 0.0 0.0
gw 0.0 0.0 0.0 0.0
gw 0.0 0.0 0.0 0.0
gw 0.0 0.0 0.0 0.0
gw 0.0 0.0 0.0 0.0
gw 0.0 0.0 0.0 0.0
gw 0.0 0.0 0.0 0.0
gw 0.0 0.0 0.0 0.0
gw 0.0 0.0 0.0 0.0
gw 0.0 0.0 0.0 0.0
gw 0.0 0.0 0.0 0.0
gw 0.0 0.0 0.0 0.0
gw 0.0 0.0 0.0 0.0
gw 0.0 0.0 0.0 0.0
gw 0.0 0.0 0.0 0.0
gw 0.0 0.0 0.0 0.0
gw 0.0 0.0 0.0 0.0
gw 0.0 0.0 0.0 0.0
gw 0.0 0.0 0.0 0.0
gw 0.0 0.0 0.0 0.0
gw 0.0 0.0 0.0 0.0
gw 0.0 0.0 0.0 0.0
gw 0.0 0.0 0.0 0.0
gw 0.0 0.0 0.0 0.0
gw 0.0 0.0 0.0 0.0
gw 0.0 0.0 0.0 0.0
gw 0.0 0.0 0.0 0.0
gw 0.0 0.0 0.0 0.0
gw 0.0 0.0 0.0 0.0
gw 0.0 0.0 0.0 0.0
gw 0.0 0.0 0.0 0.0
gw 0.0 0.0 0.0 0.0
gw 0.0 0.0 0.0 0.0
gw 0.0 0.0 0.0 0.0
gw 0.0 0.0 0.0 0.0
gw 0.0 0.0 0.0 0.0
gw 0.0 0.0 0.0 0.0
gw 0.0 0.0 0.0 0.0
gw 0.0 0.0 0.0 0.0
gw 0.0 0.0 0.0 0.0
gw 0.0 0.0 0.0 0.0
gw 0.0 0.0 0.0 0.0
gw 0.0 0.0 0.0 0.0
gw 0.0 0.0 0.0 0.0
gw 0.0 0.0 0.0 0.0
gw 0.0 0.0 0.0 0.0
gw 0.0 0.0 0.0 0.0
gw 0.0 0.0 0.0 0.0
gw 0.0 0.0 0.0 0.0
gw 0.0 0.0 0.0 0.0
gw 0.0 0.0 0.0 0.0
gw 0.0 0.0 0.0 0.0
gw 0.0 0.0 0.0 0.0
gw 0.0 0.0 0.0 0.0
gw 0.0 0.0 0.0 0.0
gw 0.0 0.0 0.0 0.0
gw 0.0 0.0 0.0 0.0
gw 0.0 0.0 0.0 0.0
gw 0.0 0.0 0.0 0.0
gw 0.0 0.0 0.0 0.0
gw 0.0 0.0 0.0 0.0
gw 0.0 0.0 0.0 0.0
gw 0.0 0.0 0.0 0.0
gw 0.0 0.0 0.0 0.0
gw 0.0 0.0 0.0 0.0
gw 0.0 0.0 0.0 0.0
gw 0.0 0.0 0.0 0.0
gw 0.0 0.0 0.0 0.0
gw 0.0 0.0 0.0 0.0
gw 0.0 0.0 0.0 0.0
gw 0.0 0.0 0.0 0.0
gw 0.0 0.0 0.0 0.0
gw 0.0 0.0 0.0 0.0
gw 0.0 0.0 0.0 0.0
gw 0.0 0.0 0.0 0.0
gw 0.0 0.0 0.0 0.0
gw 0.0 0.0 0.0 0.0
gw 0.0 0.0 0.0 0.0
vt 0.9876 0.5241
vt 0.9633 0.5241
vt 0.9633 0.0053
vt 0.9876 0.0053
vt 0.9391 0.5241
vt 0.9391 0.0053
vt 0.9148 0.5241
vt 0.9148 0.0053
vt 0.8906 0.5241
vt 0.8906 0.0053
vt 0.8663 0.5241
vt 0.8663 0.0053
vt 0.8421 0.5241
vt 0.8421 0.0053
vt 0.8178 0.5241
vt 0.8178 0.0053
vt 0.7936 0.5241
vt 0.7936 0.0053
vt 0.7694 0.5241
vt 0.7694 0.0053
vt 0.7451 0.5241
vt 0.7451 0.0053
vt 0.7209 0.5241
vt 0.7209 0.0053
vt 0.6966 0.5241
vt 0.6966 0.0053
vt 0.9876 0.4502
vt 0.9633 0.4502
vt 0.9391 0.4502
vt 0.9148 0.4502
vt 0.8906 0.4502
vt 0.8663 0.4502
vt 0.8421 0.4502
vt 0.8178 0.4502
vt 0.7936 0.4502
vt 0.7694 0.4502
vt 0.7451 0.4502
vt 0.7209 0.4502
vt 0.6966 0.4502
vn 0.0 -1.0 0.0
vn 0.0 -0.866 -0.5
vn 0.0 -0.866 -0.5
vn 0.0 -1.0 -0.0
vn 0.0 -0.5 -0.866
vn 0.0 -0.5 -0.866
vn 0.0 -0.0 -1.0
vn 0.0 -0.0 -1.0
vn 0.0 0.5001 -0.866
vn 0.0 0.5 -0.866
vn 0.0 0.866 -0.5
vn 0.0 0.866 -0.5
vn 0.0 1.0 0.0
vn 0.0 1.0 0.0
vn 0.0 0.866 0.5
vn 0.0 0.866 0.5
vn 0.0 0.5 0.866
vn 0.0 0.5 0.866
vn 0.0 -0.0 1.0
vn 0.0 -0.0 1.0
vn 0.0 -0.5 0.866
vn 0.0 -0.5 0.866
vn 0.0 -0.866 0.5
vn 0.0 -0.866 0.5
vn 0.0 -1.0 -0.0
vn 0.0 -0.866 -0.5
vn 0.0 -0.5 -0.866
vn 0.0 -0.0 -1.0
vn 0.0 0.5 -0.866
vn 0.0 0.866 -0.5
vn 0.0 1.0 -0.0
vn 0.0 0.866 0.5
vn 0.0 0.5 0.866
vn 0.0 -0.0 1.0
vn 0.0 -0.5 0.866
vn 0.0 -0.866 0.5
vn 0.0 -1.0 0.0
vn 0.0 -0.866 -0.5
vn 0.0 -0.5 -0.866
vn 0.0 -0.0 -1.0
vn 0.0 0.5 -0.866
vn 0.0 0.866 -0.5
vn 0.0 1.0 0.0
vn 0.0 0.866 0.5
vn 0.0 0.5 0.866
vn 0.0 -0.0 1.0
vn 0.0 -0.5 0.866
vn 0.0 -0.866 0.5
vn 0.0 -1.0 0.0
vn 0.0 -0.866 -0.5
vn 0.0 -0.5 -0.866
vn 0.0 -0.0 -1.0
vn 0.0 0.5001 -0.866
vn 0.0 0.866 -0.5
vn 0.0 1.0 0.0
vn 0.0 0.866 0.5
vn 0.0 0.5 0.866
vn 0.0 -0.0 1.0
vn 0.0 -0.5 0.866
vn 0.0 -0.866 0.5
vn 0.0 -0.866 -0.5
vn 0.0 -0.866 -0.5
vn 0.0 -1.0 0.0
vn 0.0 -1.0 0.0
vn 0.0 -0.5 -0.866
vn 0.0 -0.5 -0.866
vn 0.0 -0.0 -1.0
vn 0.0 -0.0 -1.0
vn 0.0 0.5 -0.866
vn 0.0 0.5 -0.866
vn 0.0 0.866 -0.5
vn 0.0 0.866 -0.5
vn 0.0 1.0 -0.0
vn 0.0 1.0 0.0
vn 0.0 0.866 0.5
vn 0.0 0.866 0.5
vn 0.0 0.5 0.866
vn 0.0 0.5 0.866
vn 0.0 -0.0 1.0
vn 0.0 -0.0 1.0
vn 0.0 -0.5 0.866
vn 0.0 -0.5 0.866
vn 0.0 -0.866 0.5
vn 0.0 -0.866 0.5
vn 0.0 -0.866 -0.5
vn 0.0 -1.0 0.0
vn 0.0 -0.5 -0.866
vn 0.0 -0.0 -1.0
vn 0.0 0.866 -0.5
vn 0.0 1.0 0.0
vn 0.0 0.866 0.5
vn 0.0 0.5 0.866
vn 0.0 -0.0 1.0
vn 0.0 -0.5 0.866
vn 0.0 -0.866 0.5
vn 0.0 -0.866 -0.5
vn 0.0 -1.0 0.0
vn 0.0 -0.5 -0.866
vn 0.0 -0.0 -1.0
vn 0.0 0.866 -0.5
vn 0.0 1.0 0.0
vn 0.0 -0.0 1.0
vn 0.0 -0.866 0.5
vtan 0.0 0.0 1.0
vtan 0.0 -0.5 0.866
vtan 0.0 -0.5 0.866
vtan 0.0 -0.0 1.0
vtan 0.0 -0.866 0.5
vtan 0.0 -0.866 0.5
vtan 0.0 -1.0 0.0
vtan 0.0 -1.0 0.0
vtan 0.0 -0.866 -0.5001
vtan 0.0 -0.866 -0.5
vtan 0.0 -0.5 -0.866
vtan 0.0 -0.5 -0.866
vtan 0.0 0.0 -1.0
vtan 0.0 0.0 -1.0
vtan 0.0 0.5 -0.866
vtan 0.0 0.5 -0.866
vtan 0.0 0.866 -0.5
vtan 0.0 0.866 -0.5
vtan 0.0 1.0 0.0
vtan 0.0 1.0 0.0
vtan 0.0 0.866 0.5
vtan 0.0 0.866 0.5
vtan 0.0 0.5 0.866
vtan 0.0 0.5 0.866
vtan 0.0 0.0 1.0
vtan 0.0 -0.0 1.0
vtan 0.0 -0.0 1.0
vtan 0.0 -0.5 0.866
vtan 0.0 -0.866 0.5
vtan 0.0 -0.866 0.5
vtan 0.0 -1.0 0.0
vtan 0.0 -1.0 0.0
vtan 0.0 -0.866 -0.5
vtan 0.0 -0.5 -0.866
vtan 0.0 -0.0 -1.0
vtan 0.0 0.5 -0.866
vtan 0.0 0.5 -0.866
vtan 0.0 0.866 -0.5
vtan 0.0 0.866 -0.5
vtan 0.0 1.0 0.0
vtan 0.0 0.866 0.5
vtan 0.0 0.866 0.5
vtan 0.0 0.5 0.866
vtan 0.0 0.0 1.0
vtan 0.0 -0.0 1.0
vtan 0.0 0.0 1.0
vtan 0.0 -0.5 0.866
vtan 0.0 -0.5 0.866
vtan 0.0 -0.0 1.0
vtan 0.0 -0.866 0.5
vtan 0.0 -1.0 0.0
vtan 0.0 -0.866 -0.5
vtan 0.0 -0.5 -0.866
vtan 0.0 -0.5 -0.866
vtan 0.0 0.0 -1.0
vtan 0.0 0.5 -0.866
vtan 0.0 0.5 -0.866
vtan 0.0 0.866 -0.5
vtan 0.0 1.0 0.0
vtan 0.0 0.866 0.5
vtan 0.0 0.5 0.866
vtan 0.0 0.0 1.0
vtan 0.0 -0.0 1.0
vtan 0.0 0.0 1.0
vtan 0.0 -0.5 0.866
vtan 0.0 -0.5 0.866
vtan 0.0 -0.866 0.5
vtan 0.0 -1.0 0.0
vtan 0.0 -0.866 -0.5001
vtan 0.0 -0.5 -0.866
vtan 0.0 0.0 -1.0
vtan 0.0 0.5 -0.866
vtan 0.0 0.866 -0.5
vtan 0.0 0.866 -0.5
vtan 0.0 1.0 0.0
vtan 0.0 1.0 0.0
vtan 0.0 0.866 0.5
vtan 0.0 0.5 0.866
vtan 0.0 0.0 1.0
vtan 0.0 -0.5 0.866
vtan 0.0 -0.5 0.866
vtan 0.0 0.0 1.0
vtan 0.0 0.0 1.0
vtan 0.0 -0.866 0.5
vtan 0.0 -0.866 0.5
vtan 0.0 -1.0 0.0
vtan 0.0 -1.0 0.0
vtan 0.0 -0.866 -0.5
vtan 0.0 -0.866 -0.5
vtan 0.0 -0.5 -0.866
vtan 0.0 -0.5 -0.866
vtan 0.0 -0.0 -1.0
vtan 0.0 0.0 -1.0
vtan 0.0 0.5 -0.866
vtan 0.0 0.5 -0.866
vtan 0.0 0.866 -0.5
vtan 0.0 0.866 -0.5
vtan 0.0 1.0 0.0
vtan 0.0 1.0 0.0
vtan 0.0 0.866 0.5
vtan 0.0 0.866 0.5
vtan 0.0 0.5 0.866
vtan 0.0 0.5 0.866
vtan 0.0 0.0 1.0
vtan 0.0 0.0 1.0
vtan 0.0 -0.5 0.866
vtan 0.0 -0.5 0.866
vtan 0.0 -0.866 0.5
vtan 0.0 -0.5 -0.866
vtan 0.0 0.0 -1.0
vtan 0.0 0.5 -0.866
vtan 0.0 0.5 -0.866
vtan 0.0 0.866 -0.5
vtan 0.0 1.0 0.0
vtan 0.0 0.866 0.5
vtan 0.0 0.5 0.866
vtan 0.0 0.5 0.866
vtan 0.0 0.0 1.0
vtan 0.0 -0.5 0.866
vtan 0.0 -0.5 0.866
vtan 0.0001 0.0 1.0
vtan 0.0 -0.866 0.5
vtan 0.0 -0.5 -0.866
vtan 0.0 0.5 -0.866
vtan 0.0 0.5 -0.866
vtan 0.0 0.866 0.5
vtan 0.0 0.866 0.5
vtan 0.0 0.5 0.866
vtan -0.0 0.5 0.866
vtan -0.0 0.0 1.0
vtan -0.0001 0.0 1.0
vtan 0.0 -0.5 0.866
vtan 0.0 0.0 1.0
vtan 0.0001 0.0 1.0
vtan 0.0 -0.866 0.5
vtan -0.0 0.5 0.866
vtan -0.0 0.5 0.866
vtan -0.0001 0.0 1.0
f 0/0/0/0 1/1/1/1 2/2/2/2 
f 0/0/0/0 2/2/2/2 3/3/3/3 
f 1/1/1/1 4/4/4/4 5/5/5/5 
f 1/1/1/1 5/5/5/5 2/2/2/2 
f 4/4/4/4 6/6/6/6 7/7/7/7 
f 4/4/4/4 7/7/7/7 5/5/5/5 
f 6/6/6/6 8/8/8/8 9/9/9/9 
f 6/6/6/6 9/9/9/9 7/7/7/7 
f 8/8/8/8 10/10/10/10 11/11/11/11 
f 8/8/8/8 11/11/11/11 9/9/9/9 
f 10/10/10/10 12/12/12/12 13/13/13/13 
f 10/10/10/10 13/13/13/13 11/11/11/11 
f 12/12/12/12 14/14/14/14 15/15/15/15 
f 12/12/12/12 15/15/15/15 13/13/13/13 
f 14/14/14/14 16/16/16/16 17/17/17/17 
f 14/14/14/14 17/17/17/17 15/15/15/15 
f 16/16/16/16 18/18/18/18 19/19/19/19 
f 16/16/16/16 19/19/19/19 17/17/17/17 
f 18/18/18/18 20/20/20/20 21/21/21/21 
f 18/18/18/18 21/21/21/21 19/19/19/19 
f 20/20/20/20 22/22/22/22 23/23/23/23 
f 20/20/20/20 23/23/23/23 21/21/21/21 
f 22/22/22/22 0/24/0/24 3/25/3/25 
f 22/22/22/22 3/25/3/25 23/23/23/23 
f 1/2/1/1 0/3/0/0 24/0/24/26 
f 1/2/1/1 24/0/24/26 25/1/25/27 
f 25/1/25/27 26/4/26/28 4/5/4/29 
f 25/1/25/27 4/5/4/29 1/2/1/1 
f 26/4/26/28 27/6/27/30 6/7/6/31 
f 26/4/26/28 6/7/6/31 4/5/4/29 
f 27/6/27/30 28/8/28/32 8/9/8/8 
f 27/6/27/30 8/9/8/8 6/7/6/31 
f 28/8/28/32 29/10/29/33 10/11/10/10 
f 28/8/28/32 10/11/10/10 8/9/8/8 
f 29/10/29/33 30/12/30/34 12/13/12/12 
f 29/10/29/33 12/13/12/12 10/11/10/10 
f 30/12/30/34 31/14/31/35 14/15/14/36 
f 30/12/30/34 14/15/14/36 12/13/12/12 
f 31/14/31/35 32/16/32/37 16/17/16/38 
f 31/14/31/35 16/17/16/38 14/15/14/36 
f 32/16/32/37 33/18/33/39 18/19/18/18 
f 32/16/32/37 18/19/18/18 16/17/16/38 
f 33/18/33/39 34/20/34/40 20/21/20/41 
f 33/18/33/39 20/21/20/41 18/19/18/18 
f 34/20/34/40 35/22/35/42 22/23/22/22 
f 34/20/34/40 22/23/22/22 20/21/20/41 
f 0/25/0/43 22/23/22/22 35/22/35/42 
f 0/25/0/43 35/22/35/42 24/24/24/44 
f 36/0/36/45 37/1/37/46 25/2/25/47 
f 36/0/36/45 25/2/25/47 24/3/24/48 
f 37/1/37/46 38/4/38/49 26/5/26/28 
f 37/1/37/46 26/5/26/28 25/2/25/47 
f 38/4/38/49 39/6/39/50 27/7/27/30 
f 38/4/38/49 27/7/27/30 26/5/26/28 
f 39/6/39/50 40/8/40/51 28/9/28/32 
f 39/6/39/50 28/9/28/32 27/7/27/30 
f 40/8/40/51 41/10/41/52 29/11/29/53 
f 40/8/40/51 29/11/29/53 28/9/28/32 
f 41/10/41/52 42/12/42/54 30/13/30/34 
f 41/10/41/52 30/13/30/34 29/11/29/53 
f 42/12/42/54 43/14/43/55 31/15/31/56 
f 42/12/42/54 31/15/31/56 30/13/30/34 
f 43/14/43/55 44/16/44/57 32/17/32/37 
f 43/14/43/55 32/17/32/37 31/15/31/56 
f 44/16/44/57 45/18/45/58 33/19/33/39 
f 44/16/44/57 33/19/33/39 32/17/32/37 
f 45/18/45/58 46/20/46/59 34/21/34/40 
f 45/18/45/58 34/21/34/40 33/19/33/39 
f 46/20/46/59 47/22/47/60 35/23/35/42 
f 46/20/46/59 35/23/35/42 34/21/34/40 
f 47/22/47/60 36/24/36/61 24/25/24/62 
f 47/22/47/60 24/25/24/62 35/23/35/42 
f 48/26/48/63 49/27/49/64 37/2/37/65 
f 48/26/48/63 37/2/37/65 36/3/36/45 
f 49/27/49/64 50/28/50/66 38/5/38/49 
f 49/27/49/64 38/5/38/49 37/2/37/65 
f 50/28/50/66 51/29/51/67 39/7/39/50 
f 50/28/50/66 39/7/39/50 38/5/38/49 
f 51/29/51/67 52/30/52/68 40/9/40/51 
f 51/29/51/67 40/9/40/51 39/7/39/50 
f 52/30/52/68 53/31/53/69 41/11/41/52 
f 52/30/52/68 41/11/41/52 40/9/40/51 
f 53/31/53/69 54/32/54/70 42/13/42/54 
f 53/31/53/69 42/13/42/54 41/11/41/52 
f 54/32/54/70 55/33/55/71 43/15/43/55 
f 54/32/54/70 43/15/43/55 42/13/42/54 
f 55/33/55/71 56/34/56/72 44/17/44/73 
f 55/33/55/71 44/17/44/73 43/15/43/55 
f 56/34/56/72 57/35/57/74 45/19/45/75 
f 56/34/56/72 45/19/45/75 44/17/44/73 
f 57/35/57/74 58/36/58/76 46/21/46/59 
f 57/35/57/74 46/21/46/59 45/19/45/75 
f 58/36/58/76 59/37/59/77 47/23/47/60 
f 58/36/58/76 47/23/47/60 46/21/46/59 
f 59/37/59/77 48/38/48/78 36/25/36/61 
f 59/37/59/77 36/25/36/61 47/23/47/60 
f 60/2/60/79 61/1/61/80 62/0/62/81 
f 60/2/60/79 62/0/62/81 63/3/63/82 
f 64/5/64/83 65/4/65/84 61/1/61/80 
f 64/5/64/83 61/1/61/80 60/2/60/79 
f 66/7/66/85 67/6/67/86 65/4/65/84 
f 66/7/66/85 65/4/65/84 64/5/64/83 
f 68/9/68/87 69/8/69/88 67/6/67/86 
f 68/9/68/87 67/6/67/86 66/7/66/85 
f 70/11/70/89 71/10/71/90 69/8/69/88 
f 70/11/70/89 69/8/69/88 68/9/68/87 
f 72/13/72/91 73/12/73/92 71/10/71/90 
f 72/13/72/91 71/10/71/90 70/11/70/89 
f 74/15/74/93 75/14/75/94 73/12/73/92 
f 74/15/74/93 73/12/73/92 72/13/72/91 
f 76/17/76/95 77/16/77/96 75/14/75/94 
f 76/17/76/95 75/14/75/94 74/15/74/93 
f 78/19/78/97 79/18/79/98 77/16/77/96 
f 78/19/78/97 77/16/77/96 76/17/76/95 
f 80/21/80/99 81/20/81/100 79/18/79/98 
f 80/21/80/99 79/18/79/98 78/19/78/97 
f 82/23/82/101 83/22/83/102 81/20/81/100 
f 82/23/82/101 81/20/81/100 80/21/80/99 
f 63/25/63/103 62/24/62/104 83/22/83/102 
f 63/25/63/103 83/22/83/102 82/23/82/101 
f 61/2/61/105 84/1/84/106 85/0/85/81 
f 61/2/61/105 85/0/85/81 62/3/62/81 
f 65/5/65/84 86/4/86/107 84/1/84/106 
f 65/5/65/84 84/1/84/106 61/2/61/105 
f 67/7/67/86 87/6/87/30 86/4/86/107 
f 67/7/67/86 86/4/86/107 65/5/65/84 
f 69/9/69/88 88/8/40/51 87/6/87/30 
f 69/9/69/88 87/6/87/30 67/7/67/86 
f 71/11/71/90 89/10/88/108 88/8/40/51 
f 71/11/71/90 88/8/40/51 69/9/69/88 
f 73/13/73/92 90/12/89/109 89/10/88/108 
f 73/13/73/92 89/10/88/108 71/11/71/90 
f 75/15/75/110 91/14/90/111 90/12/89/109 
f 75/15/75/110 90/12/89/109 73/13/73/92 
f 77/17/77/96 92/16/91/112 91/14/90/111 
f 77/17/77/96 91/14/90/111 75/15/75/110 
f 79/19/79/98 93/18/92/113 92/16/91/112 
f 79/19/79/98 92/16/91/112 77/17/77/96 
f 81/21/81/100 94/20/93/114 93/18/92/113 
f 81/21/81/100 93/18/92/113 79/19/79/98 
f 83/23/83/115 95/22/94/116 94/20/93/114 
f 83/23/83/115 94/20/93/114 81/21/81/100 
f 62/25/62/117 85/24/85/104 95/22/94/116 
f 62/25/62/117 95/22/94/116 83/23/83/115 
f 84/2/84/118 96/1/95/119 97/0/96/120 
f 84/2/84/118 97/0/96/120 85/3/85/81 
f 86/5/86/121 98/4/97/49 96/1/95/119 
f 86/5/86/121 96/1/95/119 84/2/84/118 
f 87/7/87/30 99/6/98/50 98/4/97/49 
f 87/7/87/30 98/4/97/49 86/5/86/121 
f 88/9/40/51 100/8/40/51 99/6/98/50 
f 88/9/40/51 99/6/98/50 87/7/87/30 
f 89/11/88/108 101/10/99/122 100/8/40/51 
f 89/11/88/108 100/8/40/51 88/9/40/51 
f 90/13/89/109 102/12/100/54 101/10/99/122 
f 90/13/89/109 101/10/99/122 89/11/88/108 
f 91/15/90/123 103/14/43/124 102/12/100/54 
f 91/15/90/123 102/12/100/54 90/13/89/109 
f 92/17/91/112 104/16/44/57 103/14/43/124 
f 92/17/91/112 103/14/43/124 91/15/90/123 
f 93/19/92/113 105/18/101/58 104/16/44/57 
f 93/19/92/113 104/16/44/57 92/17/91/112 
f 94/21/93/125 106/20/46/126 105/18/101/58 
f 94/21/93/125 105/18/101/58 93/19/92/113 
f 95/23/94/127 107/22/102/128 106/20/46/126 
f 95/23/94/127 106/20/46/126 94/21/93/125 
f 85/25/85/129 97/24/96/130 107/22/102/128 
f 85/25/85/129 107/22/102/128 95/23/94/127 
f 96/2/95/131 49/27/49/64 48/26/48/132 
f 96/2/95/131 48/26/48/132 97/3/96/133 
f 98/5/97/134 50/28/50/66 49/27/49/64 
f 98/5/97/134 49/27/49/64 96/2/95/131 
f 99/7/98/50 51/29/51/67 50/28/50/66 
f 99/7/98/50 50/28/50/66 98/5/97/134 
f 100/9/40/51 52/30/52/68 51/29/51/67 
f 100/9/40/51 51/29/51/67 99/7/98/50 
f 101/11/99/122 53/31/53/69 52/30/52/68 
f 101/11/99/122 52/30/52/68 100/9/40/51 
f 102/13/100/54 54/32/54/70 53/31/53/69 
f 102/13/100/54 53/31/53/69 101/11/99/122 
f 103/15/43/55 55/33/55/71 54/32/54/70 
f 103/15/43/55 54/32/54/70 102/13/100/54 
f 104/17/44/73 56/34/56/72 55/33/55/71 
f 104/17/44/73 55/33/55/71 103/15/43/55 
f 105/19/101/75 57/35/57/74 56/34/56/72 
f 105/19/101/75 56/34/56/72 104/17/44/73 
f 106/21/46/126 58/36/58/76 57/35/57/74 
f 106/21/46/126 57/35/57/74 105/19/101/75 
f 107/23/102/135 59/37/59/136 58/36/58/76 
f 107/23/102/135 58/36/58/76 106/21/46/126 
f 97/25/96/137 48/38/48/78 59/37/59/136 
f 97/25/96/137 59/37/59/136 107/23/102/135 
