v 528.9411 220.9971 -316.5168
v 452.1872 220.9971 -316.5168
v 452.1872 220.9971 -239.6386
v 528.9411 220.9971 -239.6386
v 528.9411 212.9782 -239.6386
v 452.1872 212.9782 -239.6386
v 452.1872 207.888 -239.6386
v 528.9411 207.888 -239.6386
v 452.1872 212.9782 -316.5168
v 452.1872 207.888 -316.5168
v 528.9411 212.9782 -316.5168
v 528.9411 207.888 -316.5168
v 526.7543 204.0866 -241.8289
v 526.7543 204.0866 -314.3264
v 454.374 204.0866 -314.3264
v 454.374 204.0866 -241.8289
v 521.2277 201.1721 -247.3645
v 521.2277 201.1721 -308.7909
v 459.9006 201.1721 -308.7909
v 459.9006 201.1721 -247.3645
v 464.5666 186.6514 -289.0303
v 479.6735 186.6514 -304.1372
v 479.6735 -2.4606 -304.1372
v 464.5666 -2.4607 -289.0303
v 501.038 186.6514 -304.1372
v 501.038 -2.4606 -304.1372
v 516.1447 186.6514 -289.0303
v 516.1447 -2.4607 -289.0303
v 516.1447 186.6514 -267.6658
v 516.1447 -2.4607 -267.6658
v 501.038 186.6514 -252.5589
v 501.038 -2.4607 -252.5589
v 479.6735 186.6514 -252.5589
v 479.6735 -2.4607 -252.5589
v 464.5666 186.6514 -267.6658
v 464.5666 -2.4607 -267.6658
v 462.9919 192.5002 -289.6825
v 479.0214 192.5002 -305.7118
v 479.6735 191.226 -304.1372
v 464.5666 191.226 -289.0303
v 501.6901 192.5002 -305.7118
v 501.038 191.226 -304.1372
v 517.7194 192.5002 -289.6825
v 516.1447 191.226 -289.0303
v 517.7194 192.5002 -267.0136
v 516.1447 191.226 -267.6658
v 501.6901 192.5002 -250.9843
v 501.038 191.226 -252.5589
v 479.0214 192.5002 -250.9843
v 479.6735 191.226 -252.5589
v 462.9919 192.5002 -267.0136
v 464.5666 191.226 -267.6658
v 462.321 199.2605 -289.9604
v 478.7433 199.2605 -306.3828
v 479.4726 196.3225 -304.6222
v 464.0815 196.3225 -289.2312
v 501.968 199.2605 -306.3828
v 501.2387 196.3225 -304.6222
v 518.3906 199.2605 -289.9604
v 516.6298 196.3225 -289.2312
v 518.3906 199.2605 -266.7357
v 516.6298 196.3225 -267.4649
v 501.968 199.2605 -250.3133
v 501.2387 196.3225 -252.0739
v 478.7433 199.2605 -250.3133
v 479.4726 196.3225 -252.0739
v 462.321 199.2605 -266.7357
v 464.0815 196.3225 -267.4649
v 462.0715 188.9388 -290.0638
v 478.6398 188.9388 -306.6324
v 502.0715 188.9388 -306.6324
v 518.6401 188.9388 -290.0638
v 518.6401 188.9388 -266.6323
v 502.0715 188.9388 -250.0638
v 478.6398 188.9388 -250.0638
v 462.0715 188.9388 -266.6323
v 463.9428 193.7742 -289.2887
v 479.415 193.7742 -304.761
v 501.2963 193.7742 -304.761
v 516.7687 193.7742 -289.2887
v 516.7687 193.7742 -267.4074
v 501.2963 193.7742 -251.9351
v 479.415 193.7742 -251.9351
v 463.9428 193.7742 -267.4074
v 528.0126 215.2094 -240.5672
v 453.1157 215.2094 -240.5672
v 453.1157 212.9782 -240.5672
v 528.0126 212.9782 -240.5672
v 453.1157 215.2094 -315.5882
v 453.1157 212.9782 -315.5882
v 528.0126 215.2094 -315.5882
v 528.0126 212.9782 -315.5882
v 528.9411 215.2094 -239.6386
v 452.1872 215.2094 -239.6386
v 452.1872 215.2094 -316.5168
v 528.9411 215.2094 -316.5168
vt 0.2969 0.905
vt 0.2969 0.7136
vt 0.1052 0.7136
vt 0.1052 0.905
vt 0.0419 0.0149
vt 0.0419 0.2559
vt 0.0579 0.2559
vt 0.0579 0.0149
vt 0.0419 0.4944
vt 0.0577 0.4944
vt 0.0419 0.7325
vt 0.0577 0.7325
vt 0.0419 0.974
vt 0.0579 0.974
vt 0.0698 0.9671
vt 0.0698 0.7394
vt 0.0694 0.7257
vt 0.0694 0.5012
vt 0.0694 0.4876
vt 0.0694 0.2627
vt 0.0698 0.2491
vt 0.0698 0.0217
vt 0.0871 0.9497
vt 0.0871 0.7568
vt 0.0866 0.7086
vt 0.0866 0.5183
vt 0.0866 0.4704
vt 0.0866 0.2799
vt 0.0872 0.2317
vt 0.0872 0.0391
vt 0.8215 0.9003
vt 0.8927 0.9003
vt 0.8927 0.0086
vt 0.8215 0.0086
vt 0.9935 0.9003
vt 0.9935 0.0086
vt 0.3056 0.9003
vt 0.3768 0.9003
vt 0.3768 0.0086
vt 0.3056 0.0086
vt 0.4775 0.9003
vt 0.4775 0.0086
vt 0.5488 0.9003
vt 0.5488 0.0086
vt 0.6495 0.9003
vt 0.6495 0.0086
vt 0.7207 0.9003
vt 0.7207 0.0086
vt 0.1356 0.9493
vt 0.2428 0.9493
vt 0.2428 0.9414
vt 0.1356 0.9414
vt 0.35 0.9493
vt 0.35 0.9414
vt 0.4571 0.9493
vt 0.4571 0.9414
vt 0.5643 0.9493
vt 0.5643 0.9414
vt 0.6715 0.9493
vt 0.6715 0.9414
vt 0.7787 0.9493
vt 0.7787 0.9414
vt 0.8859 0.9493
vt 0.8859 0.9414
vt 0.9931 0.9493
vt 0.9931 0.9414
vt 0.1356 0.9908
vt 0.2428 0.9908
vt 0.2428 0.9727
vt 0.1356 0.9727
vt 0.35 0.9908
vt 0.35 0.9727
vt 0.4571 0.9908
vt 0.4571 0.9727
vt 0.5643 0.9908
vt 0.5643 0.9727
vt 0.6715 0.9908
vt 0.6715 0.9727
vt 0.7787 0.9908
vt 0.7787 0.9727
vt 0.8859 0.9908
vt 0.8859 0.9727
vt 0.9931 0.9908
vt 0.9931 0.9727
vt 0.0941 0.6488
vt 0.0941 0.5768
vt 0.145 0.5258
vt 0.0941 0.412
vt 0.0941 0.34
vt 0.148 0.2241
vt 0.0964 0.1725
vt 0.0964 0.0996
vt 0.148 0.048
vt 0.0961 0.8889
vt 0.0961 0.8159
vt 0.145 0.6998
vt 0.1356 0.9133
vt 0.1356 0.9274
vt 0.2428 0.9274
vt 0.2428 0.9133
vt 0.35 0.9274
vt 0.35 0.9133
vt 0.4571 0.9274
vt 0.4571 0.9133
vt 0.5643 0.9274
vt 0.5643 0.9133
vt 0.6715 0.9274
vt 0.6715 0.9133
vt 0.7787 0.9274
vt 0.7787 0.9133
vt 0.8859 0.9274
vt 0.8859 0.9133
vt 0.9931 0.9274
vt 0.9931 0.9133
vt 0.1356 0.9571
vt 0.2428 0.9571
vt 0.35 0.9571
vt 0.4571 0.9571
vt 0.5643 0.9571
vt 0.6715 0.9571
vt 0.7787 0.9571
vt 0.8859 0.9571
vt 0.9931 0.9571
vt 0.0318 0.0178
vt 0.0318 0.2559
vt 0.0389 0.2559
vt 0.0389 0.0178
vt 0.0318 0.4944
vt 0.0389 0.4944
vt 0.0318 0.7325
vt 0.0389 0.7325
vt 0.0318 0.971
vt 0.0389 0.971
vt 0.0243 0.4945
vt 0.0059 0.4945
vt 0.0059 0.7385
vt 0.0243 0.7385
vt 0.0059 0.9829
vt 0.0243 0.9829
vt 0.0059 0.2501
vt 0.0243 0.2501
vt 0.0243 0.0061
vt 0.0059 0.0061
vt 0.0272 0.7355
vt 0.0272 0.4974
vt 0.0272 0.4915
vt 0.0272 0.253
vt 0.0272 0.2471
vt 0.0272 0.009
vt 0.0272 0.9799
vt 0.0272 0.7414
vn 0.5773 0.5774 -0.5773
vn -0.5774 0.5773 -0.5773
vn -0.5773 0.5774 0.5773
vn 0.5774 0.5773 0.5773
vn 0.5773 0.5774 0.5773
vn -0.5773 0.5774 0.5773
vn -0.6756 -0.2951 0.6757
vn 0.6756 -0.2951 0.6756
vn -0.5773 0.5774 -0.5773
vn -0.6756 -0.2951 -0.6756
vn 0.5773 0.5774 -0.5773
vn 0.6756 -0.2951 -0.6757
vn 0.4627 -0.7564 0.4624
vn 0.4627 -0.7564 -0.4624
vn -0.4627 -0.7564 -0.4624
vn -0.4627 -0.7564 0.4624
vn 0.2165 -0.952 0.2162
vn 0.2177 -0.9516 -0.217
vn -0.2183 -0.9512 -0.218
vn -0.2171 -0.9517 0.2172
vn -0.8177 -0.4655 -0.3387
vn -0.3387 -0.4655 -0.8177
vn -0.3827 0.0 -0.9239
vn -0.9239 -0.0 -0.3827
vn 0.3387 -0.4655 -0.8177
vn 0.3827 0.0 -0.9239
vn 0.8177 -0.4655 -0.3387
vn 0.9239 0.0 -0.3827
vn 0.8177 -0.4655 0.3387
vn 0.9239 0.0 0.3827
vn 0.3387 -0.4655 0.8177
vn 0.3827 -0.0 0.9239
vn -0.3387 -0.4655 0.8177
vn -0.3827 -0.0 0.9239
vn -0.8177 -0.4655 0.3387
vn -0.9239 -0.0 0.3827
vn -0.9186 -0.1071 -0.3805
vn -0.3805 -0.1071 -0.9186
vn -0.3824 -0.0384 -0.9232
vn -0.9232 -0.0385 -0.3824
vn 0.3805 -0.1071 -0.9186
vn 0.3824 -0.0384 -0.9232
vn 0.9186 -0.1071 -0.3805
vn 0.9232 -0.0384 -0.3824
vn 0.9186 -0.1071 0.3805
vn 0.9232 -0.0385 0.3824
vn 0.3805 -0.1071 0.9186
vn 0.3824 -0.0384 0.9232
vn -0.3805 -0.1071 0.9186
vn -0.3824 -0.0384 0.9232
vn -0.9186 -0.1071 0.3805
vn -0.9232 -0.0385 0.3824
vn -0.6379 -0.7559 -0.1476
vn -0.1476 -0.7551 -0.6388
vn -0.3678 -0.2764 -0.8879
vn -0.8879 -0.2764 -0.3678
vn 0.1473 -0.7551 -0.6389
vn 0.3678 -0.2764 -0.8879
vn 0.6079 -0.7801 -0.1479
vn 0.8879 -0.2764 -0.3678
vn 0.608 -0.7801 0.1475
vn 0.8879 -0.2764 0.3678
vn 0.1477 -0.7857 0.6008
vn 0.3678 -0.2764 0.8879
vn -0.148 -0.7856 0.6007
vn -0.3678 -0.2764 0.8879
vn -0.6379 -0.7559 0.1472
vn -0.8879 -0.2764 0.3678
vn -0.9239 0.0 -0.3827
vn -0.3827 0.0 -0.9239
vn 0.3827 0.0 -0.9239
vn 0.9239 0.0 -0.3827
vn 0.9239 0.0 0.3827
vn 0.3827 0.0 0.9239
vn -0.3827 0.0 0.9239
vn -0.9239 0.0 0.3827
vn -0.8513 0.3886 -0.3526
vn -0.3526 0.3886 -0.8513
vn 0.3526 0.3887 -0.8512
vn 0.8513 0.3886 -0.3526
vn 0.8512 0.3887 0.3526
vn 0.3526 0.3886 0.8512
vn -0.3526 0.3886 0.8512
vn -0.8512 0.3887 0.3526
vn 0.3015 -0.9045 0.3015
vn -0.3015 -0.9045 0.3015
vn -0.3015 0.9045 0.3015
vn 0.3015 0.9045 0.3015
vn -0.3015 -0.9045 -0.3015
vn -0.3015 0.9045 -0.3015
vn 0.3015 -0.9045 -0.3015
vn 0.3015 0.9045 -0.3015
vn 0.5773 -0.5774 0.5773
vn -0.5773 -0.5774 0.5773
vn -0.5773 -0.5774 -0.5773
vn 0.5773 -0.5774 -0.5773
vtan -0.4082 -0.4083 -0.8165 -1.0
vtan 0.4082 -0.4082 -0.8165 -1.0
vtan -0.4082 0.4083 -0.8165 -1.0
vtan 0.4082 0.4082 -0.8165 -1.0
vtan 0.1554 -0.7719 0.6165 -1.0
vtan -0.4072 -0.8165 0.4093 -1.0
vtan 0.2091 -0.9555 -0.2083 -1.0
vtan -0.1034 -0.9453 -0.3095 -1.0
vtan -0.4094 -0.8165 -0.4071 -1.0
vtan 0.2085 -0.9555 0.2089 -1.0
vtan 0.407 -0.8165 -0.4095 -1.0
vtan -0.2086 -0.9555 0.2088 -1.0
vtan 0.6199 -0.7702 0.1503 -1.0
vtan -0.3105 -0.945 -0.1023 -1.0
vtan -0.8017 -0.5796 -0.1459 -1.0
vtan -0.8018 -0.5796 0.1458 -1.0
vtan -0.1463 -0.5796 0.8016 -1.0
vtan 0.1463 -0.5796 0.8017 -1.0
vtan 0.8015 -0.5798 0.1463 -1.0
vtan 0.8016 -0.5797 -0.1463 -1.0
vtan 0.1488 -0.5805 -0.8006 -1.0
vtan -0.1491 -0.5806 -0.8004 -1.0
vtan -0.9706 -0.2338 -0.0575 -1.0
vtan -0.9703 -0.2351 0.0577 -1.0
vtan -0.0301 -0.2288 0.973 -1.0
vtan 0.0296 -0.2297 0.9728 -1.0
vtan 0.9701 -0.2358 0.0575 -1.0
vtan 0.9704 -0.2345 -0.0577 -1.0
vtan 0.0267 -0.2282 -0.9733 -1.0
vtan -0.0273 -0.2273 -0.9734 -1.0
vtan 0.3827 0.0 -0.9239 -1.0
vtan 0.9239 0.0 -0.3827 -1.0
vtan 0.9239 0.0 -0.3827 -1.0
vtan 0.3827 0.0 -0.9239 -1.0
vtan 0.9409 0.1676 0.2943 -1.0
vtan 0.9239 -0.0 0.3827 -1.0
vtan 0.8734 -0.1676 0.4572 -1.0
vtan 0.3827 0.0 0.9239 -1.0
vtan 0.3827 -0.0 0.9239 -1.0
vtan 0.9239 0.0 0.3827 -1.0
vtan -0.3827 0.0 0.9239 -1.0
vtan -0.3827 -0.0 0.9239 -1.0
vtan -0.9239 0.0 0.3827 -1.0
vtan -0.9239 0.0 0.3827 -1.0
vtan -0.9239 0.0 -0.3827 -1.0
vtan -0.9239 0.0 -0.3827 -1.0
vtan -0.3827 0.0 -0.9239 -1.0
vtan -0.3827 0.0 -0.9239 -1.0
vtan 0.3867 -0.0441 -0.9212 -1.0
vtan 0.9239 -0.0 -0.3827 -1.0
vtan 0.9239 0.0 -0.3827 -1.0
vtan 0.3832 -0.0159 -0.9235 -1.0
vtan 0.9239 -0.0 0.3827 -1.0
vtan 0.9239 0.0 0.3827 -1.0
vtan 0.3827 -0.0 0.9239 -1.0
vtan 0.3827 0.0 0.9239 -1.0
vtan -0.3827 0.0 0.9239 -1.0
vtan -0.3827 0.0 0.9239 -1.0
vtan -0.9239 -0.0 0.3827 -1.0
vtan -0.9239 0.0 0.3827 -1.0
vtan -0.9239 -0.0 -0.3827 -1.0
vtan -0.9239 0.0 -0.3827 -1.0
vtan -0.3827 -0.0 -0.9239 -1.0
vtan -0.3827 0.0 -0.9239 -1.0
vtan 0.3779 0.044 -0.9248 -1.0
vtan 0.3821 0.0159 -0.924 -1.0
vtan 0.5181 -0.2794 -0.8084 -1.0
vtan 0.9459 0.081 -0.3143 -1.0
vtan 0.9239 0.0 -0.3827 -1.0
vtan 0.4093 -0.1093 -0.9058 -1.0
vtan 0.9459 -0.0813 0.3141 -1.0
vtan 0.9239 -0.0 0.3827 -1.0
vtan 0.3237 0.0734 0.9433 -1.0
vtan 0.3827 -0.0 0.9239 -1.0
vtan -0.3234 -0.0736 0.9434 -1.0
vtan -0.3827 -0.0 0.9239 -1.0
vtan -0.9428 0.0717 0.3256 -1.0
vtan -0.9239 -0.0 0.3827 -1.0
vtan -0.9427 -0.0715 -0.3258 -1.0
vtan -0.9239 -0.0 -0.3827 -1.0
vtan -0.3143 0.0811 -0.9458 -1.0
vtan -0.3827 -0.0 -0.9239 -1.0
vtan 0.0952 0.1128 -0.989 -1.0
vtan 0.3512 0.1093 -0.9299 -1.0
vtan 0.0274 -0.6426 0.7657 -1.0
vtan -0.0316 -0.642 0.7661 -1.0
vtan -0.0506 -0.1501 0.9874 -1.0
vtan 0.7649 -0.6441 -0.0071 -1.0
vtan 0.7649 -0.6441 0.0071 -1.0
vtan -0.0515 -0.1488 -0.9875 -1.0
vtan -0.0328 -0.6032 -0.7969 -1.0
vtan 0.0298 -0.6036 -0.7967 -1.0
vtan 0.0487 -0.1488 -0.9877 -1.0
vtan -0.7894 -0.6138 0.0075 -1.0
vtan -0.789 -0.6144 -0.0021 -1.0
vtan 0.0479 -0.1499 0.9875 -1.0
vtan 0.4572 -0.1676 -0.8735 -1.0
vtan 0.3827 0.0 -0.9239 -1.0
vtan 0.9239 -0.0 -0.3827 -1.0
vtan 0.9239 -0.0 -0.3827 -1.0
vtan 0.9239 -0.0 0.3827 -1.0
vtan 0.9239 0.0 0.3827 -1.0
vtan 0.3827 0.0 0.9239 -1.0
vtan 0.3827 0.0 0.9239 -1.0
vtan -0.3827 -0.0 0.9239 -1.0
vtan -0.3827 0.0 0.9239 -1.0
vtan -0.9239 0.0 0.3827 -1.0
vtan -0.9239 0.0 0.3827 -1.0
vtan -0.9239 0.0 -0.3827 -1.0
vtan -0.9239 0.0 -0.3827 -1.0
vtan -0.3827 -0.0 -0.9239 -1.0
vtan -0.3827 0.0 -0.9239 -1.0
vtan 0.3827 -0.0 -0.9239 -1.0
vtan 0.2943 0.1676 -0.9409 -1.0
vtan 0.4349 0.1464 -0.8885 -1.0
vtan 0.9239 -0.0 -0.3827 -1.0
vtan 0.9239 -0.0 0.3827 -1.0
vtan 0.3827 -0.0 0.9239 -1.0
vtan -0.3827 -0.0 0.9239 -1.0
vtan -0.9239 -0.0 0.3827 -1.0
vtan -0.9239 -0.0 -0.3827 -1.0
vtan -0.3827 0.0 -0.9239 -1.0
vtan 0.3208 -0.1464 -0.9358 -1.0
vtan -0.6396 -0.4264 -0.6396 -1.0
vtan 0.6396 -0.4264 -0.6396 -1.0
vtan -0.6409 -0.4264 0.6383 -1.0
vtan 0.1087 -0.3468 0.9316 -1.0
vtan 0.6396 -0.4264 0.6396 -1.0
vtan -0.6382 -0.4264 -0.641 -1.0
vtan -0.6396 -0.4264 0.6396 -1.0
vtan 0.6406 -0.4264 -0.6386 -1.0
vtan -0.6396 -0.4264 -0.6396 -1.0
vtan 0.9344 -0.3433 0.0955 -1.0
vtan -0.4103 -0.8165 -0.4062 -1.0
vtan 0.4082 -0.8165 0.4082 -1.0
vtan -0.4083 -0.8165 0.4083 -1.0
vtan 0.4062 -0.8165 -0.4104 -1.0
vtan -0.4082 -0.8165 -0.4082 -1.0
vtan 0.6193 -0.7704 0.1512 -1.0
vtan 0.4083 -0.8165 -0.4083 -1.0
vtan -0.4062 -0.8165 0.4104 -1.0
vtan 0.1578 -0.7727 0.6149 -1.0
vtan -0.4082 -0.8165 -0.4082 -1.0
vtan -0.1108 -0.2809 -0.9533 -1.0
vtan 0.0787 -0.2915 -0.9533 -1.0
vtan -0.9533 -0.2809 0.1106 -1.0
vtan -0.9533 -0.2916 -0.0786 -1.0
vtan 0.1107 -0.2809 0.9533 -1.0
vtan -0.0788 -0.2915 0.9533 -1.0
vtan 0.9533 -0.2809 -0.1106 -1.0
vtan 0.9533 -0.2916 0.0786 -1.0
f 0/0/0/0 1/1/1/1 2/2/2/2 
f 0/0/0/0 2/2/2/2 3/3/3/3 
f 4/4/4/4 5/5/5/5 6/6/6/6 
f 4/4/4/4 6/6/6/6 7/7/7/7 
f 5/5/5/5 8/8/8/8 9/9/9/9 
f 5/5/5/5 9/9/9/9 6/6/6/6 
f 8/8/8/8 10/10/10/10 11/11/11/11 
f 8/8/8/8 11/11/11/11 9/9/9/9 
f 10/10/10/10 4/12/4/12 7/13/7/13 
f 10/10/10/10 7/13/7/13 11/11/11/11 
f 12/14/12/14 13/15/13/15 11/11/11/11 
f 12/14/12/14 11/11/11/11 7/13/7/13 
f 13/16/13/16 14/17/14/17 9/9/9/9 
f 13/16/13/16 9/9/9/9 11/11/11/11 
f 14/18/14/18 15/19/15/19 6/6/6/6 
f 14/18/14/18 6/6/6/6 9/9/9/9 
f 15/20/15/20 12/21/12/21 7/7/7/7 
f 15/20/15/20 7/7/7/7 6/6/6/6 
f 12/14/12/14 16/22/16/22 17/23/17/23 
f 12/14/12/14 17/23/17/23 13/15/13/15 
f 13/16/13/16 17/24/17/24 18/25/18/25 
f 13/16/13/16 18/25/18/25 14/17/14/17 
f 14/18/14/18 18/26/18/26 19/27/19/27 
f 14/18/14/18 19/27/19/27 15/19/15/19 
f 15/20/15/20 19/28/19/28 16/29/16/29 
f 15/20/15/20 16/29/16/29 12/21/12/21 
f 20/30/20/30 21/31/21/31 22/32/22/32 
f 20/30/20/30 22/32/22/32 23/33/23/33 
f 21/31/21/31 24/34/24/34 25/35/25/35 
f 21/31/21/31 25/35/25/35 22/32/22/32 
f 24/36/24/36 26/37/26/37 27/38/27/38 
f 24/36/24/36 27/38/27/38 25/39/25/39 
f 26/37/26/37 28/40/28/40 29/41/29/41 
f 26/37/26/37 29/41/29/41 27/38/27/38 
f 28/40/28/40 30/42/30/42 31/43/31/43 
f 28/40/28/40 31/43/31/43 29/41/29/41 
f 30/42/30/42 32/44/32/44 33/45/33/45 
f 30/42/30/42 33/45/33/45 31/43/31/43 
f 32/44/32/44 34/46/34/46 35/47/35/47 
f 32/44/32/44 35/47/35/47 33/45/33/45 
f 34/46/34/46 20/30/20/30 23/33/23/33 
f 34/46/34/46 23/33/23/33 35/47/35/47 
f 36/48/36/48 37/49/37/49 38/50/38/50 
f 36/48/36/48 38/50/38/50 39/51/39/51 
f 37/49/37/49 40/52/40/52 41/53/41/53 
f 37/49/37/49 41/53/41/53 38/50/38/50 
f 40/52/40/52 42/54/42/54 43/55/43/55 
f 40/52/40/52 43/55/43/55 41/53/41/53 
f 42/54/42/54 44/56/44/56 45/57/45/57 
f 42/54/42/54 45/57/45/57 43/55/43/55 
f 44/56/44/56 46/58/46/58 47/59/47/59 
f 44/56/44/56 47/59/47/59 45/57/45/57 
f 46/58/46/58 48/60/48/60 49/61/49/61 
f 46/58/46/58 49/61/49/61 47/59/47/59 
f 48/60/48/60 50/62/50/62 51/63/51/63 
f 48/60/48/60 51/63/51/63 49/61/49/61 
f 50/62/50/62 36/64/36/64 39/65/39/65 
f 50/62/50/62 39/65/39/65 51/63/51/63 
f 52/66/52/66 53/67/53/67 54/68/54/68 
f 52/66/52/66 54/68/54/68 55/69/55/69 
f 53/67/53/67 56/70/56/70 57/71/57/71 
f 53/67/53/67 57/71/57/71 54/68/54/68 
f 56/70/56/70 58/72/58/72 59/73/59/73 
f 56/70/56/70 59/73/59/73 57/71/57/71 
f 58/72/58/72 60/74/60/74 61/75/61/75 
f 58/72/58/72 61/75/61/75 59/73/59/73 
f 60/74/60/74 62/76/62/76 63/77/63/77 
f 60/74/60/74 63/77/63/77 61/75/61/75 
f 62/76/62/76 64/78/64/78 65/79/65/79 
f 62/76/62/76 65/79/65/79 63/77/63/77 
f 64/78/64/78 66/80/66/80 67/81/67/81 
f 64/78/64/78 67/81/67/81 65/79/65/79 
f 66/80/66/80 52/82/52/82 55/83/55/83 
f 66/80/66/80 55/83/55/83 67/81/67/81 
f 56/84/56/84 53/85/53/85 18/25/18/25 
f 56/84/56/84 18/25/18/25 17/24/17/24 
f 18/25/18/25 53/85/53/85 52/86/52/86 
f 18/26/18/26 52/87/52/87 66/88/66/88 
f 18/26/18/26 66/88/66/88 19/27/19/27 
f 19/28/19/28 66/89/66/89 64/90/64/90 
f 19/28/19/28 64/90/64/90 62/91/62/91 
f 19/28/19/28 62/91/62/91 16/29/16/29 
f 16/29/16/29 62/91/62/91 60/92/60/92 
f 60/93/60/93 58/94/58/94 17/23/17/23 
f 60/93/60/93 17/23/17/23 16/22/16/22 
f 17/24/17/24 58/95/58/95 56/84/56/84 
f 20/96/20/96 68/97/68/97 69/98/69/98 
f 20/96/20/96 69/98/69/98 21/99/21/99 
f 21/99/21/99 69/98/69/98 70/100/70/100 
f 21/99/21/99 70/100/70/100 24/101/24/101 
f 24/101/24/101 70/100/70/100 71/102/71/102 
f 24/101/24/101 71/102/71/102 26/103/26/103 
f 26/103/26/103 71/102/71/102 72/104/72/104 
f 26/103/26/103 72/104/72/104 28/105/28/105 
f 28/105/28/105 72/104/72/104 73/106/73/106 
f 28/105/28/105 73/106/73/106 30/107/30/107 
f 30/107/30/107 73/106/73/106 74/108/74/108 
f 30/107/30/107 74/108/74/108 32/109/32/109 
f 32/109/32/109 74/108/74/108 75/110/75/110 
f 32/109/32/109 75/110/75/110 34/111/34/111 
f 34/111/34/111 75/110/75/110 68/112/68/112 
f 34/111/34/111 68/112/68/112 20/113/20/113 
f 68/97/68/97 39/51/39/51 38/50/38/50 
f 68/97/68/97 38/50/38/50 69/98/69/98 
f 69/98/69/98 38/50/38/50 41/53/41/53 
f 69/98/69/98 41/53/41/53 70/100/70/100 
f 70/100/70/100 41/53/41/53 43/55/43/55 
f 70/100/70/100 43/55/43/55 71/102/71/102 
f 71/102/71/102 43/55/43/55 45/57/45/57 
f 71/102/71/102 45/57/45/57 72/104/72/104 
f 72/104/72/104 45/57/45/57 47/59/47/59 
f 72/104/72/104 47/59/47/59 73/106/73/106 
f 73/106/73/106 47/59/47/59 49/61/49/61 
f 73/106/73/106 49/61/49/61 74/108/74/108 
f 74/108/74/108 49/61/49/61 51/63/51/63 
f 74/108/74/108 51/63/51/63 75/110/75/110 
f 75/110/75/110 51/63/51/63 39/65/39/65 
f 75/110/75/110 39/65/39/65 68/112/68/112 
f 76/114/76/114 55/69/55/69 54/68/54/68 
f 76/114/76/114 54/68/54/68 77/115/77/115 
f 77/115/77/115 54/68/54/68 57/71/57/71 
f 77/115/77/115 57/71/57/71 78/116/78/116 
f 78/116/78/116 57/71/57/71 59/73/59/73 
f 78/116/78/116 59/73/59/73 79/117/79/117 
f 79/117/79/117 59/73/59/73 61/75/61/75 
f 79/117/79/117 61/75/61/75 80/118/80/118 
f 80/118/80/118 61/75/61/75 63/77/63/77 
f 80/118/80/118 63/77/63/77 81/119/81/119 
f 81/119/81/119 63/77/63/77 65/79/65/79 
f 81/119/81/119 65/79/65/79 82/120/82/120 
f 82/120/82/120 65/79/65/79 67/81/67/81 
f 82/120/82/120 67/81/67/81 83/121/83/121 
f 83/121/83/121 67/81/67/81 55/83/55/83 
f 83/121/83/121 55/83/55/83 76/122/76/122 
f 36/48/36/48 76/114/76/114 77/115/77/115 
f 36/48/36/48 77/115/77/115 37/49/37/49 
f 37/49/37/49 77/115/77/115 78/116/78/116 
f 37/49/37/49 78/116/78/116 40/52/40/52 
f 40/52/40/52 78/116/78/116 79/117/79/117 
f 40/52/40/52 79/117/79/117 42/54/42/54 
f 42/54/42/54 79/117/79/117 80/118/80/118 
f 42/54/42/54 80/118/80/118 44/56/44/56 
f 44/56/44/56 80/118/80/118 81/119/81/119 
f 44/56/44/56 81/119/81/119 46/58/46/58 
f 46/58/46/58 81/119/81/119 82/120/82/120 
f 46/58/46/58 82/120/82/120 48/60/48/60 
f 48/60/48/60 82/120/82/120 83/121/83/121 
f 48/60/48/60 83/121/83/121 50/62/50/62 
f 50/62/50/62 83/121/83/121 76/122/76/122 
f 50/62/50/62 76/122/76/122 36/64/36/64 
f 84/123/84/123 85/124/85/124 86/125/86/125 
f 84/123/84/123 86/125/86/125 87/126/87/126 
f 85/124/85/124 88/127/88/127 89/128/89/128 
f 85/124/85/124 89/128/89/128 86/125/86/125 
f 88/127/88/127 90/129/90/129 91/130/91/130 
f 88/127/88/127 91/130/91/130 89/128/89/128 
f 90/129/90/129 84/131/84/131 87/132/87/132 
f 90/129/90/129 87/132/87/132 91/130/91/130 
f 92/133/92/133 3/134/3/134 2/135/2/135 
f 92/133/92/133 2/135/2/135 93/136/93/136 
f 93/136/93/136 2/135/2/135 1/137/1/137 
f 93/136/93/136 1/137/1/137 94/138/94/138 
f 0/139/0/139 95/140/95/140 94/141/94/141 
f 0/139/0/139 94/141/94/141 1/142/1/142 
f 95/140/95/140 0/139/0/139 3/134/3/134 
f 95/140/95/140 3/134/3/134 92/133/92/133 
f 87/126/87/126 86/125/86/125 5/5/5/5 
f 87/126/87/126 5/5/5/5 4/4/4/4 
f 86/125/86/125 89/128/89/128 8/8/8/8 
f 86/125/86/125 8/8/8/8 5/5/5/5 
f 89/128/89/128 91/130/91/130 10/10/10/10 
f 89/128/89/128 10/10/10/10 8/8/8/8 
f 91/130/91/130 87/132/87/132 4/12/4/12 
f 91/130/91/130 4/12/4/12 10/10/10/10 
f 85/143/85/143 84/144/84/144 92/133/92/133 
f 85/143/85/143 92/133/92/133 93/136/93/136 
f 84/145/84/145 90/146/90/146 95/140/95/140 
f 84/145/84/145 95/140/95/140 92/133/92/133 
f 90/147/90/147 88/148/88/148 94/141/94/141 
f 90/147/90/147 94/141/94/141 95/140/95/140 
f 88/149/88/149 85/150/85/150 93/136/93/136 
f 88/149/88/149 93/136/93/136 94/138/94/138 
