v -972.9014 664.2318 569.3783
v -972.0032 670.6962 568.5564
v -972.0032 670.6962 575.4881
v -972.9014 664.2318 575.4881
v -1039.0024 670.6962 567.8701
v -972.7974 670.6962 567.8701
v -973.7485 664.2318 568.6463
v -1038.0508 664.2318 568.6463
v -1045.877 686.5964 561.9177
v -1045.8357 690.9595 561.9177
v -965.9641 690.9595 561.9177
v -965.9231 686.5964 561.9177
v -1046.6873 686.5964 575.4881
v -1046.6873 690.9595 575.4881
v -1046.6873 690.9595 562.6531
v -1046.6873 686.5964 562.6179
v -973.5605 660.3631 569.9615
v -971.0186 662.2974 567.8378
v -971.0186 662.2974 575.4881
v -973.5605 660.3631 575.4881
v -1039.8342 662.2974 567.0197
v -971.9656 662.2974 567.0197
v -974.4238 660.3631 569.2157
v -1037.3757 660.3631 569.2157
v -965.1128 690.9595 562.6531
v -962.7449 693.1411 560.6855
v -962.7449 693.141 575.4881
v -965.1128 690.9595 575.4881
v -1048.1138 693.1411 559.8723
v -963.6863 693.1411 559.8723
v -965.1128 695.3226 562.7309
v -965.1128 695.3226 575.4881
v -1045.7458 695.3226 561.9177
v -966.0537 695.3226 561.9177
v -968.9602 679.6952 565.9556
v -965.1128 686.5964 562.6179
v -965.1128 686.5964 575.4881
v -968.9602 679.6952 575.4881
v -969.7866 679.6952 565.2417
v -1042.0129 679.6952 565.2417
v -1038.8984 664.2318 569.3783
v -1039.7969 670.6962 568.5564
v -1040.7812 662.2974 567.8378
v -1038.239 660.3631 569.9615
v -1049.0547 693.1411 560.6855
v -1046.6873 695.3226 562.7309
v -1042.8394 679.6952 565.9556
v -1046.6873 695.3226 575.4881
v -1039.7969 670.6962 575.4881
v -1038.8984 664.2318 575.4881
v -1040.7815 662.2974 575.4881
v -1038.2395 660.3631 575.4881
v -1049.0547 693.141 575.4881
v -1042.8394 679.6952 575.4881
gi 0 0 0 0
gw 0.0 0.0 0.0 0.0
gi 0 0 0 0
gw 0.0 0.0 0.0 0.0
gi 0 0 0 0
gw 0.0 0.0 0.0 0.0
gi 0 0 0 0
gw 0.0 0.0 0.0 0.0
gi 0 0 0 0
gw 0.0 0.0 0.0 0.0
gi 0 0 0 0
gw 0.0 0.0 0.0 0.0
gi 0 0 0 0
gw 0.0 0.0 0.0 0.0
gi 0 0 0 0
gw 0.0 0.0 0.0 0.0
gi 0 0 0 0
gw 0.0 0.0 0.0 0.0
gi 0 0 0 0
gw 0.0 0.0 0.0 0.0
gi 0 0 0 0
gw 0.0 0.0 0.0 0.0
gi 0 0 0 0
gw 0.0 0.0 0.0 0.0
gi 0 0 0 0
gw 0.0 0.0 0.0 0.0
gi 0 0 0 0
gw 0.0 0.0 0.0 0.0
gi 0 0 0 0
gw 0.0 0.0 0.0 0.0
gi 0 0 0 0
gw 0.0 0.0 0.0 0.0
gi 0 0 0 0
gw 0.0 0.0 0.0 0.0
gi 0 0 0 0
gw 0.0 0.0 0.0 0.0
gi 0 0 0 0
gw 0.0 0.0 0.0 0.0
gi 0 0 0 0
gw 0.0 0.0 0.0 0.0
gi 0 0 0 0
gw 0.0 0.0 0.0 0.0
gi 0 0 0 0
gw 0.0 0.0 0.0 0.0
gi 0 0 0 0
gw 0.0 0.0 0.0 0.0
gi 0 0 0 0
gw 0.0 0.0 0.0 0.0
gi 0 0 0 0
gw 0.0 0.0 0.0 0.0
gi 0 0 0 0
gw 0.0 0.0 0.0 0.0
gi 0 0 0 0
gw 0.0 0.0 0.0 0.0
gi 0 0 0 0
gw 0.0 0.0 0.0 0.0
gi 0 0 0 0
gw 0.0 0.0 0.0 0.0
gi 0 0 0 0
gw 0.0 0.0 0.0 0.0
gi 0 0 0 0
gw 0.0 0.0 0.0 0.0
gi 0 0 0 0
gw 0.0 0.0 0.0 0.0
gi 0 0 0 0
gw 0.0 0.0 0.0 0.0
gi 0 0 0 0
gw 0.0 0.0 0.0 0.0
gi 0 0 0 0
gw 0.0 0.0 0.0 0.0
gi 0 0 0 0
gw 0.0 0.0 0.0 0.0
gi 0 0 0 0
gw 0.0 0.0 0.0 0.0
gi 0 0 0 0
gw 0.0 0.0 0.0 0.0
gi 0 0 0 0
gw 0.0 0.0 0.0 0.0
gi 0 0 0 0
gw 0.0 0.0 0.0 0.0
gi 0 0 0 0
gw 0.0 0.0 0.0 0.0
gi 0 0 0 0
gw 0.0 0.0 0.0 0.0
gi 0 0 0 0
gw 0.0 0.0 0.0 0.0
gi 0 0 0 0
gw 0.0 0.0 0.0 0.0
gi 0 0 0 0
gw 0.0 0.0 0.0 0.0
gi 0 0 0 0
gw 0.0 0.0 0.0 0.0
gi 0 0 0 0
gw 0.0 0.0 0.0 0.0
gi 0 0 0 0
gw 0.0 0.0 0.0 0.0
gi 0 0 0 0
gw 0.0 0.0 0.0 0.0
gi 0 0 0 0
gw 0.0 0.0 0.0 0.0
gi 0 0 0 0
gw 0.0 0.0 0.0 0.0
gi 0 0 0 0
gw 0.0 0.0 0.0 0.0
gi 0 0 0 0
gw 0.0 0.0 0.0 0.0
gi 0 0 0 0
gw 0.0 0.0 0.0 0.0
vt 0.2773 0.6742
vt 0.2773 0.6911
vt 0.4476 0.6911
vt 0.4476 0.6742
vt 0.4453 0.6933
vt 0.2795 0.6933
vt 0.5504 0.8881
vt 0.5526 0.9084
vt 0.5337 0.9084
vt 0.5337 0.8881
vt 0.7614 0.91
vt 0.6053 0.91
vt 0.6076 0.8897
vt 0.7592 0.8897
vt 0.7776 0.96
vt 0.7775 0.9737
vt 0.5892 0.9737
vt 0.5891 0.96
vt 0.8287 0.9596
vt 0.8287 0.9733
vt 0.7937 0.9733
vt 0.7936 0.9596
vt 0.9865 0.7672
vt 0.9959 0.7791
vt 0.9632 0.7791
vt 0.9619 0.7672
vt 0.2524 0.779
vt 0.0111 0.779
vt 0.0112 0.7672
vt 0.2525 0.7672
vt 0.5337 0.882
vt 0.5546 0.882
vt 0.6034 0.8836
vt 0.7634 0.8836
vt 0.5687 0.9721
vt 0.5741 0.979
vt 0.5337 0.979
vt 0.5337 0.9721
vt 0.7829 0.9806
vt 0.5839 0.9806
vt 0.5685 0.9859
vt 0.5337 0.9859
vt 0.7773 0.9875
vt 0.5894 0.9875
vt 0.5597 0.9367
vt 0.5688 0.9584
vt 0.5337 0.9584
vt 0.5337 0.9367
vt 0.5982 0.9383
vt 0.7685 0.9383
vt 0.605 0.8907
vt 0.6028 0.9094
vt 0.8121 0.8892
vt 0.8098 0.9096
vt 0.8073 0.909
vt 0.8095 0.8902
vt 0.5867 0.9726
vt 0.5865 0.9593
vt 0.7912 0.9721
vt 0.791 0.9589
vt 0.6007 0.8862
vt 0.8052 0.8857
vt 0.8079 0.8832
vt 0.0078 0.7789
vt 0.0079 0.7672
vt 0.2558 0.7672
vt 0.2559 0.779
vt 0.5815 0.9806
vt 0.7884 0.9801
vt 0.786 0.9801
vt 0.5871 0.99
vt 0.7939 0.987
vt 0.7916 0.9896
vt 0.5957 0.9372
vt 0.8027 0.9379
vt 0.8002 0.9367
vt 0.0091 0.8976
vt 0.0091 0.876
vt 0.0109 0.8746
vt 0.1674 0.876
vt 0.1655 0.8746
vt 0.1674 0.8976
vt 0.8287 0.9096
vt 0.8287 0.8892
vt 0.2874 0.779
vt 0.2803 0.7672
vt 0.8287 0.8832
vt 0.8287 0.9801
vt 0.8287 0.987
vt 0.8287 0.9379
vn 0.0 -1.0 0.0
vn 0.0 -1.0 -0.0002
vn 0.0 -1.0 0.0001
vn 0.8519 0.3925 -0.3467
vn 0.8738 -0.2937 -0.3876
vn 0.9732 -0.23 0.0
vn 0.9502 0.3116 0.0
vn -0.322 -0.2664 -0.9085
vn 0.322 -0.2664 -0.9085
vn 0.2733 0.3543 -0.8943
vn -0.2731 0.3543 -0.8944
vn -0.3578 -0.2715 -0.8935
vn -0.2668 -0.4559 -0.8491
vn 0.2669 -0.4559 -0.8491
vn 0.3578 -0.2715 -0.8935
vn -0.9678 -0.2516 0.0
vn -0.9159 -0.4015 0.0
vn -0.8 -0.5006 -0.3307
vn -0.8656 -0.2827 -0.4132
vn 0.3225 -0.9398 -0.1133
vn 0.889 -0.06 -0.454
vn 0.9972 -0.0742 0.0
vn 0.3198 -0.9475 -0.0
vn -0.4114 -0.0636 -0.9092
vn 0.4114 -0.0636 -0.9092
vn 0.084 -0.9305 -0.3565
vn -0.0841 -0.9305 -0.3565
vn 0.8 -0.5007 -0.3306
vn 0.8896 0.0025 -0.4567
vn 1.0 -0.0 -0.0
vn 0.9159 -0.4015 0.0
vn -0.414 0.0031 -0.9103
vn 0.4139 0.003 -0.9103
vn 0.3667 0.9213 -0.1296
vn 0.3637 0.9315 0.0
vn -0.0967 0.9109 -0.4012
vn 0.0968 0.9109 -0.4011
vn 0.7955 -0.4977 -0.3458
vn 0.8657 -0.2827 -0.4132
vn 0.9678 -0.2516 0.0
vn 0.9142 -0.4053 0.0
vn 0.2906 -0.4578 -0.8402
vn -0.2906 -0.4578 -0.8402
vn -0.8518 0.3925 -0.3469
vn -0.8738 -0.2937 -0.3877
vn -0.889 -0.06 -0.454
vn -0.3224 -0.9398 -0.1133
vn -0.8897 0.0025 -0.4566
vn -0.3668 0.9212 -0.1296
vn -0.7954 -0.4977 -0.3458
vn -0.3637 0.9315 0.0
vn -0.9732 -0.23 0.0
vn -0.9502 0.3117 0.0
vn -0.9972 -0.0742 -0.0
vn -0.3198 -0.9475 -0.0
vn -1.0 -0.0 -0.0
vn -0.9142 -0.4053 0.0
vtan 1.0 0.0 0.0 -1.0
vtan 1.0 0.0 0.0 -1.0
vtan -0.3149 -0.1451 -0.938 1.0
vtan -0.3674 0.1235 -0.9218 1.0
vtan 0.0 0.0 -1.0 1.0
vtan -0.9467 0.0906 0.309 1.0
vtan -0.9467 -0.0832 -0.3112 1.0
vtan -0.9617 0.1216 -0.2457 1.0
vtan -0.962 -0.1006 0.2539 1.0
vtan -0.9338 0.104 0.3423 1.0
vtan -0.9637 0.1262 0.2351 1.0
vtan -0.9637 -0.1347 -0.2306 1.0
vtan -0.9336 -0.1227 -0.3365 1.0
vtan 0.0 0.0 1.0 1.0
vtan -0.3052 -0.1348 0.9427 1.0
vtan -0.3941 -0.1243 0.9106 1.0
vtan -0.0368 0.1072 -0.9936 1.0
vtan -0.453 0.0306 -0.891 1.0
vtan 0.0 0.0 -1.0 1.0
vtan -0.0 0.0 -1.0 1.0
vtan -0.911 -0.0037 0.4124 1.0
vtan -0.9112 -0.0044 -0.412 1.0
vtan -0.9632 0.0159 -0.2683 1.0
vtan -0.9632 -0.0158 0.2683 1.0
vtan -0.453 0.0306 -0.891 1.0
vtan -0.8669 0.2807 -0.4119 1.0
vtan -0.9115 0.0287 0.4104 1.0
vtan -0.2803 0.1754 -0.9438 1.0
vtan -0.4567 -0.0013 -0.8896 1.0
vtan -0.0 0.0 -1.0 1.0
vtan -0.9103 -0.0014 0.414 1.0
vtan -0.9103 0.0147 -0.4138 1.0
vtan -0.0479 -0.1204 -0.9916 1.0
vtan 0.0 0.0 -1.0 1.0
vtan -0.9953 -0.0885 0.039 1.0
vtan -0.9939 0.1098 0.0096 1.0
vtan -0.2931 0.1834 -0.9383 1.0
vtan -0.3928 0.1283 -0.9106 1.0
vtan -0.9568 -0.149 -0.2498 1.0
vtan -0.9568 0.1391 0.2552 1.0
vtan -0.5157 0.5131 -0.6862 1.0
vtan -0.4735 -0.3319 -0.8159 1.0
vtan -0.3027 0.1717 0.9375 1.0
vtan -0.3754 -0.0995 0.9215 1.0
vtan -0.8807 -0.268 0.3907 1.0
vtan -0.7382 0.519 0.431 1.0
vtan -0.5724 -0.4719 -0.6706 1.0
vtan -0.4927 -0.335 -0.8031 1.0
vtan -0.7221 -0.4889 0.4894 1.0
vtan -0.843 -0.3177 0.4341 1.0
vtan -0.2554 0.7578 -0.6003 1.0
vtan -0.7286 0.6223 0.2861 1.0
vtan -0.4512 0.2848 0.8458 1.0
vtan -0.4566 -0.0402 -0.8888 1.0
vtan -0.7153 -0.1635 -0.6795 1.0
vtan -0.3652 0.0131 0.9308 1.0
vtan -0.455 0.0029 0.8905 1.0
vtan -0.4567 0.001 -0.8896 1.0
vtan -0.4566 -0.0001 0.8897 1.0
vtan -0.9098 0.033 0.4138 1.0
vtan -0.9243 0.3449 -0.1635 1.0
vtan -0.1171 0.0925 0.9888 1.0
vtan -0.1909 0.3786 0.9057 1.0
vtan -0.5872 -0.492 -0.6427 1.0
vtan -0.3016 -0.1699 0.9382 1.0
vtan -0.7041 -0.4923 0.5118 1.0
vtan -0.9315 0.3637 0.0005 1.0
vtan -0.9302 0.3653 -0.0357 1.0
vtan -0.9953 0.0903 -0.0352 1.0
vtan -0.9303 -0.3632 0.0511 1.0
vtan -0.9953 -0.0885 0.039 1.0
vtan -0.9315 -0.3637 0.0 1.0
vtan -0.0 0.0 1.0 1.0
vtan -0.0001 -0.0 1.0 1.0
vtan -0.0 -0.0 1.0 1.0
vtan -0.0 -0.0 1.0 1.0
f 51/0/0/0 43/1/0/0 16/2/0/1 
f 51/0/0/0 16/2/0/1 19/3/0/1 
f 22/4/1/1 16/2/1/1 43/1/1/1 
f 22/4/2/1 43/1/2/1 23/5/2/0 
f 0/6/3/2 1/7/4/3 2/8/5/4 
f 0/6/3/2 2/8/5/4 3/9/6/4 
f 4/10/7/5 5/11/8/6 6/12/9/7 
f 4/10/7/5 6/12/9/7 7/13/10/8 
f 8/14/11/9 9/15/12/10 10/16/13/11 
f 8/14/11/9 10/16/13/11 11/17/14/12 
f 12/18/15/13 13/19/16/13 14/20/17/14 
f 12/18/15/13 14/20/17/14 15/21/18/15 
f 16/22/19/16 17/23/20/17 18/24/21/18 
f 16/22/19/16 18/24/21/18 19/25/22/19 
f 20/26/23/20 21/27/24/21 22/28/25/22 
f 20/26/23/20 22/28/25/22 23/29/26/23 
f 0/6/3/2 3/9/6/4 18/30/21/4 
f 0/6/3/2 18/30/21/4 17/31/20/24 
f 7/13/10/8 6/12/9/7 21/32/24/25 
f 7/13/10/8 21/32/24/25 20/33/23/26 
f 24/34/27/27 25/35/28/28 26/36/29/29 
f 24/34/27/27 26/36/29/29 27/37/30/4 
f 28/38/31/30 29/39/32/31 10/16/13/11 
f 28/38/31/30 10/16/13/11 9/15/12/10 
f 30/40/33/32 31/41/34/33 26/36/29/29 
f 30/40/33/32 26/36/29/29 25/35/28/28 
f 32/42/35/34 33/43/36/35 29/39/32/31 
f 32/42/35/34 29/39/32/31 28/38/31/30 
f 34/44/37/36 35/45/38/37 36/46/39/4 
f 34/44/37/36 36/46/39/4 37/47/40/4 
f 8/14/11/9 11/17/14/12 38/48/41/38 
f 8/14/11/9 38/48/41/38 39/49/42/39 
f 1/7/4/3 34/44/37/36 37/47/40/4 
f 1/7/4/3 37/47/40/4 2/8/5/4 
f 39/49/42/39 38/48/41/38 5/11/8/6 
f 39/49/42/39 5/11/8/6 4/10/7/5 
f 0/50/3/40 6/12/9/7 5/11/8/6 
f 0/50/3/40 5/11/8/6 1/51/4/41 
f 40/52/43/42 41/53/44/43 4/54/7/44 
f 40/52/43/42 4/54/7/44 7/55/10/45 
f 11/17/14/12 10/16/13/11 24/56/27/46 
f 11/17/14/12 24/56/27/46 35/57/38/47 
f 15/21/18/15 14/20/17/14 9/58/12/48 
f 15/21/18/15 9/58/12/48 8/59/11/49 
f 0/50/3/40 17/60/20/50 21/32/24/25 
f 0/50/3/40 21/32/24/25 6/12/9/7 
f 40/52/43/42 7/55/10/45 20/61/23/51 
f 40/52/43/42 20/61/23/51 42/62/45/52 
f 21/27/24/21 17/63/20/53 16/64/19/54 
f 21/27/24/21 16/64/19/54 22/28/25/22 
f 20/26/23/20 23/29/26/23 43/65/46/55 
f 20/26/23/20 43/65/46/55 42/66/45/56 
f 24/56/27/46 10/16/13/11 29/39/32/31 
f 24/56/27/46 29/39/32/31 25/67/28/57 
f 14/20/17/14 44/68/47/58 28/69/31/59 
f 14/20/17/14 28/69/31/59 9/58/12/48 
f 29/39/32/31 33/43/36/35 30/70/33/60 
f 29/39/32/31 30/70/33/60 25/67/28/57 
f 28/69/31/59 44/68/47/58 45/71/48/61 
f 28/69/31/59 45/71/48/61 32/72/35/62 
f 34/73/37/63 38/48/41/38 11/17/14/12 
f 34/73/37/63 11/17/14/12 35/57/38/47 
f 46/74/49/64 15/21/18/15 8/59/11/49 
f 46/74/49/64 8/59/11/49 39/75/42/65 
f 1/51/4/41 5/11/8/6 38/48/41/38 
f 1/51/4/41 38/48/41/38 34/73/37/63 
f 41/53/44/43 46/74/49/64 39/75/42/65 
f 41/53/44/43 39/75/42/65 4/54/7/44 
f 31/76/34/66 30/77/33/67 33/78/36/68 
f 31/76/34/66 33/78/36/68 45/79/48/69 
f 33/78/36/68 32/80/35/70 45/79/48/69 
f 47/81/50/71 31/76/34/66 45/79/48/69 
f 48/82/51/13 41/53/44/43 40/52/43/42 
f 48/82/51/13 40/52/43/42 49/83/52/13 
f 36/46/39/4 35/45/38/37 24/34/27/27 
f 36/46/39/4 24/34/27/27 27/37/30/4 
f 50/84/53/72 42/66/45/56 43/65/46/55 
f 50/84/53/72 43/65/46/55 51/85/54/73 
f 50/86/53/74 49/83/52/13 40/52/43/42 
f 50/86/53/74 40/52/43/42 42/62/45/52 
f 52/87/55/75 44/68/47/58 14/20/17/14 
f 52/87/55/75 14/20/17/14 13/19/16/13 
f 52/87/55/75 47/88/50/13 45/71/48/61 
f 52/87/55/75 45/71/48/61 44/68/47/58 
f 12/18/15/13 15/21/18/15 46/74/49/64 
f 12/18/15/13 46/74/49/64 53/89/56/13 
f 53/89/56/13 46/74/49/64 41/53/44/43 
f 53/89/56/13 41/53/44/43 48/82/51/13 
