v 145.7639 186.5211 -640.858
v 145.7639 186.5211 -646.9679
v 146.3957 192.9855 -646.9678
v 146.3957 192.9855 -640.0363
v 145.1679 186.5211 -640.1261
v 145.8371 192.9855 -639.3499
v 99.2739 192.9855 -639.3499
v 99.9431 186.5211 -640.1261
v 150.643 213.2488 -633.3975
v 94.4677 213.2488 -633.3975
v 94.4391 208.8857 -633.3975
v 150.6718 208.8857 -633.3975
v 93.8691 213.2488 -634.1328
v 93.8691 213.2488 -646.9678
v 93.8691 208.8857 -646.9678
v 93.8691 208.8857 -634.0977
v 145.3002 182.6524 -641.4413
v 145.3002 182.6524 -646.9679
v 147.0881 184.5867 -646.9679
v 147.0881 184.5867 -639.3175
v 144.6931 182.6524 -640.6954
v 146.4221 184.5867 -638.4995
v 98.6889 184.5867 -638.4995
v 100.4177 182.6524 -640.6954
v 151.2416 213.2488 -634.1328
v 151.2416 213.2488 -646.9678
v 152.9072 215.4303 -646.9678
v 152.9072 215.4303 -632.1652
v 152.2448 215.4303 -631.3521
v 92.8659 215.4303 -631.3521
v 151.2416 217.6118 -646.9678
v 151.2416 217.6118 -634.2106
v 150.5798 217.6118 -633.3975
v 94.5312 217.6118 -633.3975
v 148.5356 201.9844 -637.4354
v 148.5356 201.9844 -646.9678
v 151.2416 208.8857 -646.9678
v 151.2416 208.8857 -634.0977
v 147.9543 201.9844 -636.7213
v 97.1564 201.9844 -636.7213
v 98.715 192.9855 -640.0363
v 99.3471 186.5211 -640.858
v 98.0229 184.5867 -639.3175
v 99.8107 182.6524 -641.4413
v 92.204 215.4303 -632.1652
v 93.8691 217.6118 -634.2106
v 96.5751 201.9844 -637.4354
v 93.8691 217.6118 -646.9678
v 98.715 192.9855 -646.9678
v 99.3471 186.5211 -646.9679
v 98.0226 184.5867 -646.9679
v 99.8105 182.6524 -646.9679
v 92.204 215.4303 -646.9678
v 96.5754 201.9844 -646.9678
gi 0 0 0 0
gi 0 0 0 0
gi 0 0 0 0
gi 0 0 0 0
gi 0 0 0 0
gi 0 0 0 0
gi 0 0 0 0
gi 0 0 0 0
gi 0 0 0 0
gi 0 0 0 0
gi 0 0 0 0
gi 0 0 0 0
gi 0 0 0 0
gi 0 0 0 0
gi 0 0 0 0
gi 0 0 0 0
gi 0 0 0 0
gi 0 0 0 0
gi 0 0 0 0
gi 0 0 0 0
gi 0 0 0 0
gi 0 0 0 0
gi 0 0 0 0
gi 0 0 0 0
gi 0 0 0 0
gi 0 0 0 0
gi 0 0 0 0
gi 0 0 0 0
gi 0 0 0 0
gi 0 0 0 0
gi 0 0 0 0
gi 0 0 0 0
gi 0 0 0 0
gi 0 0 0 0
gi 0 0 0 0
gi 0 0 0 0
gi 0 0 0 0
gi 0 0 0 0
gi 0 0 0 0
gi 0 0 0 0
gi 0 0 0 0
gi 0 0 0 0
gi 0 0 0 0
gi 0 0 0 0
gi 0 0 0 0
gi 0 0 0 0
gi 0 0 0 0
gi 0 0 0 0
gi 0 0 0 0
gi 0 0 0 0
gi 0 0 0 0
gi 0 0 0 0
gi 0 0 0 0
gi 0 0 0 0
gw 0.0 0.0 0.0 0.0
gw 0.0 0.0 0.0 0.0
gw 0.0 0.0 0.0 0.0
gw 0.0 0.0 0.0 0.0
gw 0.0 0.0 0.0 0.0
gw 0.0 0.0 0.0 0.0
gw 0.0 0.0 0.0 0.0
gw 0.0 0.0 0.0 0.0
gw 0.0 0.0 0.0 0.0
gw 0.0 0.0 0.0 0.0
gw 0.0 0.0 0.0 0.0
gw 0.0 0.0 0.0 0.0
gw 0.0 0.0 0.0 0.0
gw 0.0 0.0 0.0 0.0
gw 0.0 0.0 0.0 0.0
gw 0.0 0.0 0.0 0.0
gw 0.0 0.0 0.0 0.0
gw 0.0 0.0 0.0 0.0
gw 0.0 0.0 0.0 0.0
gw 0.0 0.0 0.0 0.0
gw 0.0 0.0 0.0 0.0
gw 0.0 0.0 0.0 0.0
gw 0.0 0.0 0.0 0.0
gw 0.0 0.0 0.0 0.0
gw 0.0 0.0 0.0 0.0
gw 0.0 0.0 0.0 0.0
gw 0.0 0.0 0.0 0.0
gw 0.0 0.0 0.0 0.0
gw 0.0 0.0 0.0 0.0
gw 0.0 0.0 0.0 0.0
gw 0.0 0.0 0.0 0.0
gw 0.0 0.0 0.0 0.0
gw 0.0 0.0 0.0 0.0
gw 0.0 0.0 0.0 0.0
gw 0.0 0.0 0.0 0.0
gw 0.0 0.0 0.0 0.0
gw 0.0 0.0 0.0 0.0
gw 0.0 0.0 0.0 0.0
gw 0.0 0.0 0.0 0.0
gw 0.0 0.0 0.0 0.0
gw 0.0 0.0 0.0 0.0
gw 0.0 0.0 0.0 0.0
gw 0.0 0.0 0.0 0.0
gw 0.0 0.0 0.0 0.0
gw 0.0 0.0 0.0 0.0
gw 0.0 0.0 0.0 0.0
gw 0.0 0.0 0.0 0.0
gw 0.0 0.0 0.0 0.0
gw 0.0 0.0 0.0 0.0
gw 0.0 0.0 0.0 0.0
gw 0.0 0.0 0.0 0.0
gw 0.0 0.0 0.0 0.0
gw 0.0 0.0 0.0 0.0
gw 0.0 0.0 0.0 0.0
vt 0.4476 0.6911
vt 0.2773 0.6911
vt 0.2773 0.6742
vt 0.4476 0.6742
vt 0.4453 0.6933
vt 0.2795 0.6933
vt 0.5504 0.8881
vt 0.5337 0.8881
vt 0.5337 0.9084
vt 0.5526 0.9084
vt 0.6076 0.8897
vt 0.6053 0.91
vt 0.7614 0.91
vt 0.7592 0.8897
vt 0.5892 0.9737
vt 0.7775 0.9737
vt 0.7776 0.96
vt 0.5891 0.96
vt 0.7937 0.9733
vt 0.8287 0.9733
vt 0.8287 0.9596
vt 0.7936 0.9596
vt 0.9865 0.7672
vt 0.9619 0.7672
vt 0.9632 0.7791
vt 0.9959 0.7791
vt 0.0112 0.7672
vt 0.0111 0.779
vt 0.2524 0.779
vt 0.2525 0.7672
vt 0.5546 0.882
vt 0.5337 0.882
vt 0.6034 0.8836
vt 0.7634 0.8836
vt 0.5687 0.9721
vt 0.5337 0.9721
vt 0.5337 0.979
vt 0.5741 0.979
vt 0.5839 0.9806
vt 0.7829 0.9806
vt 0.5337 0.9859
vt 0.5685 0.9859
vt 0.5894 0.9875
vt 0.7773 0.9875
vt 0.5597 0.9367
vt 0.5337 0.9367
vt 0.5337 0.9584
vt 0.5688 0.9584
vt 0.5982 0.9383
vt 0.7685 0.9383
vt 0.605 0.8907
vt 0.6028 0.9094
vt 0.8095 0.8902
vt 0.8073 0.909
vt 0.8098 0.9096
vt 0.8121 0.8892
vt 0.5867 0.9726
vt 0.5865 0.9593
vt 0.7912 0.9721
vt 0.791 0.9589
vt 0.6007 0.8862
vt 0.8079 0.8832
vt 0.8052 0.8857
vt 0.0079 0.7672
vt 0.0078 0.7789
vt 0.2559 0.779
vt 0.2558 0.7672
vt 0.5815 0.9806
vt 0.786 0.9801
vt 0.7884 0.9801
vt 0.5871 0.99
vt 0.7916 0.9896
vt 0.7939 0.987
vt 0.5957 0.9372
vt 0.8002 0.9367
vt 0.8027 0.9379
vt 0.1674 0.876
vt 0.1655 0.8746
vt 0.0109 0.8746
vt 0.0091 0.8976
vt 0.0091 0.876
vt 0.1674 0.8976
vt 0.8287 0.9096
vt 0.8287 0.8892
vt 0.2874 0.779
vt 0.2803 0.7672
vt 0.8287 0.8832
vt 0.8287 0.9801
vt 0.8287 0.987
vt 0.8287 0.9379
vn 0.0 -1.0 0.0
vn 0.0 -1.0 0.0
vn 0.0 -1.0 -0.0
vn 0.0 -1.0 0.0
vn 0.9118 0.3115 0.2677
vn 0.9686 0.2488 0.0
vn 0.9863 -0.1647 0.0
vn 0.9232 -0.2213 0.3143
vn 0.3713 0.3625 0.8548
vn 0.408 -0.254 0.8769
vn -0.4079 -0.254 0.877
vn -0.3713 0.3625 0.8548
vn 0.3556 -0.4619 0.8125
vn -0.3557 -0.4619 0.8125
vn -0.4271 -0.251 0.8686
vn 0.4272 -0.251 0.8686
vn -0.8773 -0.4014 0.263
vn -0.9473 -0.3202 0.0
vn -0.9826 -0.1858 -0.0
vn -0.9078 -0.2349 0.3475
vn 0.4051 -0.9097 0.0916
vn 0.4009 -0.9161 0.0
vn 0.9973 -0.0728 0.0
vn 0.9149 -0.0672 0.3981
vn 0.1382 -0.9239 0.3568
vn 0.4599 -0.0629 0.8858
vn -0.4598 -0.0628 0.8858
vn -0.1381 -0.9239 0.3568
vn 0.8773 -0.4015 0.263
vn 0.9473 -0.3203 0.0
vn 1.0 0.0 0.0
vn 0.9163 0.0033 0.4005
vn 0.4624 0.0025 0.8867
vn -0.4625 0.0025 0.8866
vn 0.4434 0.8963 -0.0
vn 0.4484 0.8877 0.1047
vn 0.1562 0.9026 0.4011
vn -0.1562 0.9026 0.4012
vn 0.8738 -0.3895 0.2913
vn 0.9543 -0.2989 0.0
vn 0.9826 -0.1858 0.0
vn 0.9078 -0.2349 0.3474
vn 0.3736 -0.4407 0.8162
vn -0.3736 -0.4407 0.8162
vn -0.9231 -0.2213 0.3144
vn -0.9118 0.3115 0.2677
vn -0.9149 -0.0672 0.3981
vn -0.405 -0.9097 0.0917
vn -0.9163 0.0033 0.4004
vn -0.4484 0.8877 0.1048
vn -0.8737 -0.3895 0.2913
vn -0.4434 0.8963 0.0
vn -0.9863 -0.1647 0.0
vn -0.9685 0.2488 0.0
vn -0.9973 -0.0728 0.0
vn -0.401 -0.9161 -0.0
vn -1.0 0.0 0.0
vn -0.9543 -0.2989 -0.0
vtan 1.0 0.0 0.0
vtan -0.2533 -0.0865 0.9635
vtan 0.0 0.0 1.0
vtan -0.3056 0.0733 0.9493
vtan -0.9265 0.205 0.3155
vtan -0.913 -0.1188 0.3903
vtan -0.913 0.1135 -0.3918
vtan -0.9285 -0.145 -0.3418
vtan -0.9343 -0.1514 0.3229
vtan -0.9346 0.1758 -0.3092
vtan -0.9042 0.1186 -0.4104
vtan -0.9038 -0.144 0.4029
vtan -0.2125 -0.1666 -0.9629
vtan 0.0 0.0 -1.0
vtan 0.0 -0.0 -1.0
vtan -0.3211 -0.1437 -0.9361
vtan -0.0373 0.0837 0.9958
vtan -0.0 0.0 1.0
vtan -0.397 0.0292 0.9173
vtan -0.9225 0.011 0.3858
vtan -0.8877 -0.0086 0.4603
vtan -0.8875 -0.0021 -0.4609
vtan -0.9218 -0.0119 -0.3876
vtan -0.8293 0.3262 0.4537
vtan -0.888 0.0325 -0.4587
vtan -0.2392 0.1095 0.9648
vtan -0.4005 -0.0014 0.9163
vtan -0.8867 -0.0001 0.4624
vtan -0.8866 -0.0013 -0.4625
vtan 0.0 0.0 1.0
vtan -0.0472 -0.0935 0.9945
vtan -0.9858 0.1172 0.1202
vtan -0.9877 -0.1427 -0.0634
vtan -0.2661 0.1186 0.9566
vtan -0.3363 0.087 0.9377
vtan -0.9275 -0.19 0.322
vtan -0.9276 0.1775 -0.3287
vtan -0.4026 0.5486 0.7328
vtan -0.3691 -0.2826 0.8854
vtan -0.6673 0.5359 -0.5172
vtan -0.8044 -0.3544 -0.4768
vtan -0.2992 -0.0999 -0.9489
vtan -0.2341 0.1414 -0.9619
vtan -0.4489 -0.4924 0.7457
vtan -0.4114 -0.3385 0.8463
vtan -0.6287 -0.525 -0.5737
vtan -0.7894 -0.3649 -0.4936
vtan -0.2304 0.7229 0.6515
vtan -0.3982 0.3136 -0.862
vtan -0.5708 0.785 -0.2407
vtan -0.5662 -0.1709 0.8064
vtan -0.4008 -0.0333 0.9155
vtan -0.3992 0.0031 -0.9169
vtan -0.2536 0.0154 -0.9672
vtan -0.4004 0.0329 0.9158
vtan -0.8866 0.0011 -0.4625
vtan -0.4003 0.0128 -0.9163
vtan -0.8829 0.4215 0.2071
vtan -0.1319 0.3835 -0.9141
vtan 0.0233 0.1288 -0.9914
vtan -0.4662 -0.4998 0.73
vtan -0.6069 -0.5493 -0.5744
vtan -0.2342 -0.1881 -0.9538
vtan -0.8938 -0.4453 -0.0525
vtan -0.9877 0.1448 0.0588
vtan -0.8963 0.4434 -0.0004
vtan -0.8936 0.4478 0.0297
vtan -0.8963 -0.4434 0.0
vtan -0.0 0.0 -1.0
vtan -0.0 0.0 -1.0
vtan -0.0 -0.0 -1.0
vtan 0.0 -0.0 -1.0
f 16/0/0/0 43/1/0/0 51/2/0/0 
f 16/0/1/0 51/2/1/0 17/3/1/0 
f 43/1/2/0 16/0/2/0 20/4/2/0 
f 43/1/3/0 20/4/3/0 23/5/3/0 
f 0/6/4/1 1/7/5/2 2/8/6/2 
f 0/6/4/1 2/8/6/2 3/9/7/3 
f 4/10/8/4 5/11/9/5 6/12/10/6 
f 4/10/8/4 6/12/10/6 7/13/11/7 
f 8/14/12/8 9/15/13/9 10/16/14/10 
f 8/14/12/8 10/16/14/10 11/17/15/11 
f 12/18/16/12 13/19/17/13 14/20/18/14 
f 12/18/16/12 14/20/18/14 15/21/19/15 
f 16/22/20/16 17/23/21/17 18/24/22/2 
f 16/22/20/16 18/24/22/2 19/25/23/18 
f 20/26/24/19 21/27/25/20 22/28/26/21 
f 20/26/24/19 22/28/26/21 23/29/27/22 
f 0/6/4/1 19/30/23/18 18/31/22/2 
f 0/6/4/1 18/31/22/2 1/7/5/2 
f 21/32/25/23 4/10/8/4 7/13/11/7 
f 21/32/25/23 7/13/11/7 22/33/26/24 
f 24/34/28/25 25/35/29/2 26/36/30/2 
f 24/34/28/25 26/36/30/2 27/37/31/26 
f 8/14/12/8 28/38/32/27 29/39/33/28 
f 8/14/12/8 29/39/33/28 9/15/13/9 
f 26/36/30/2 30/40/34/29 31/41/35/30 
f 26/36/30/2 31/41/35/30 27/37/31/26 
f 28/38/32/27 32/42/36/31 33/43/37/32 
f 28/38/32/27 33/43/37/32 29/39/33/28 
f 34/44/38/33 35/45/39/2 36/46/40/2 
f 34/44/38/33 36/46/40/2 37/47/41/34 
f 38/48/42/35 11/17/15/11 10/16/14/10 
f 38/48/42/35 10/16/14/10 39/49/43/36 
f 3/9/7/3 2/8/6/2 35/45/39/2 
f 3/9/7/3 35/45/39/2 34/44/38/33 
f 5/11/9/5 38/48/42/35 39/49/43/36 
f 5/11/9/5 39/49/43/36 6/12/10/6 
f 4/10/8/4 0/50/4/37 3/51/7/38 
f 4/10/8/4 3/51/7/38 5/11/9/5 
f 7/52/11/39 6/53/10/40 40/54/44/41 
f 7/52/11/39 40/54/44/41 41/55/45/42 
f 24/56/28/43 8/14/12/8 11/17/15/11 
f 24/56/28/43 11/17/15/11 37/57/41/44 
f 9/58/13/45 12/18/16/12 15/21/19/15 
f 9/58/13/45 15/21/19/15 10/59/14/46 
f 19/60/23/47 0/50/4/37 4/10/8/4 
f 19/60/23/47 4/10/8/4 21/32/25/23 
f 42/61/46/48 22/62/26/49 7/52/11/39 
f 42/61/46/48 7/52/11/39 41/55/45/42 
f 20/26/24/19 16/63/20/50 19/64/23/51 
f 20/26/24/19 19/64/23/51 21/27/25/20 
f 42/65/46/52 43/66/47/53 23/29/27/22 
f 42/65/46/52 23/29/27/22 22/28/26/21 
f 27/67/31/54 28/38/32/27 8/14/12/8 
f 27/67/31/54 8/14/12/8 24/56/28/43 
f 9/58/13/45 29/68/33/55 44/69/48/56 
f 9/58/13/45 44/69/48/56 12/18/16/12 
f 27/67/31/54 31/70/35/57 32/42/36/31 
f 27/67/31/54 32/42/36/31 28/38/32/27 
f 33/71/37/58 45/72/49/59 44/69/48/56 
f 33/71/37/58 44/69/48/56 29/68/33/55 
f 37/57/41/44 11/17/15/11 38/48/42/35 
f 37/57/41/44 38/48/42/35 34/73/38/60 
f 39/74/43/61 10/59/14/46 15/21/19/15 
f 39/74/43/61 15/21/19/15 46/75/50/62 
f 34/73/38/60 38/48/42/35 5/11/9/5 
f 34/73/38/60 5/11/9/5 3/51/7/38 
f 6/53/10/40 39/74/43/61 46/75/50/62 
f 6/53/10/40 46/75/50/62 40/54/44/41 
f 45/76/49/63 33/77/37/32 32/78/36/64 
f 45/76/49/63 32/78/36/64 30/79/34/65 
f 32/78/36/64 31/80/35/66 30/79/34/65 
f 47/81/51/67 45/76/49/63 30/79/34/65 
f 41/55/45/42 40/54/44/41 48/82/52/13 
f 41/55/45/42 48/82/52/13 49/83/53/13 
f 24/34/28/25 37/47/41/34 36/46/40/2 
f 24/34/28/25 36/46/40/2 25/35/29/2 
f 43/66/47/53 42/65/46/52 50/84/54/68 
f 43/66/47/53 50/84/54/68 51/85/55/69 
f 50/86/54/70 42/61/46/48 41/55/45/42 
f 50/86/54/70 41/55/45/42 49/83/53/13 
f 12/18/16/12 44/69/48/56 52/87/56/13 
f 12/18/16/12 52/87/56/13 13/19/17/13 
f 52/87/56/13 44/69/48/56 45/72/49/59 
f 52/87/56/13 45/72/49/59 47/88/51/13 
f 46/75/50/62 15/21/19/15 14/20/18/14 
f 46/75/50/62 14/20/18/14 53/89/57/71 
f 40/54/44/41 46/75/50/62 53/89/57/71 
f 40/54/44/41 53/89/57/71 48/82/52/13 
