v -68.0518 674.1235 191.329
v -68.0518 674.1236 179.7408
v -58.8268 674.1236 179.7408
v -58.8268 674.1235 191.329
v -58.8268 687.2192 176.3284
v -68.0518 687.2192 176.3284
v -68.0518 687.2191 191.329
v -58.8268 687.2191 191.329
v -58.8268 676.0284 178.574
v -68.0518 676.0284 178.574
v -58.8268 677.063 176.3284
v -68.0518 677.063 176.3284
gi 0 0 0 0
gw 0.0 0.0 0.0 0.0
gi 0 0 0 0
gw 0.0 0.0 0.0 0.0
gi 0 0 0 0
gw 0.0 0.0 0.0 0.0
gi 0 0 0 0
gw 0.0 0.0 0.0 0.0
gi 0 0 0 0
gw 0.0 0.0 0.0 0.0
gi 0 0 0 0
gw 0.0 0.0 0.0 0.0
gi 0 0 0 0
gw 0.0 0.0 0.0 0.0
gi 0 0 0 0
gw 0.0 0.0 0.0 0.0
gi 0 0 0 0
gw 0.0 0.0 0.0 0.0
gi 0 0 0 0
gw 0.0 0.0 0.0 0.0
gi 0 0 0 0
gw 0.0 0.0 0.0 0.0
gi 0 0 0 0
gw 0.0 0.0 0.0 0.0
vt 0.4143 0.7381
vt 0.4143 0.8072
vt 0.3593 0.8072
vt 0.3593 0.7381
vt 0.3593 0.8945
vt 0.4143 0.8945
vt 0.4143 0.9839
vt 0.3593 0.9839
vt 0.4915 0.9031
vt 0.4984 0.9145
vt 0.4224 0.9031
vt 0.4143 0.8205
vt 0.3593 0.8205
vt 0.4346 0.8164
vt 0.5037 0.8164
vt 0.4277 0.8278
vt 0.4224 0.9812
vt 0.5118 0.9812
vt 0.3593 0.8339
vt 0.4143 0.8339
vt 0.5037 0.8945
vt 0.5118 0.9206
vn -0.7071 -0.7071 -0.0
vn -0.6119 -0.6901 -0.3865
vn 0.6119 -0.6901 -0.3865
vn 0.7071 -0.7071 0.0
vn 0.5773 0.5773 -0.5774
vn -0.5773 0.5774 -0.5774
vn -0.7071 0.7071 0.0
vn 0.7071 0.7071 0.0
vn 0.7787 -0.469 -0.4167
vn -0.7787 -0.469 -0.4167
vn 0.6035 -0.4299 -0.6715
vn -0.6035 -0.4299 -0.6715
vtan -0.7071 0.7071 0.0 1.0
vtan -0.7909 0.5338 0.299 1.0
vtan -0.7909 -0.5339 -0.299 1.0
vtan -0.7071 -0.7071 0.0 1.0
vtan -0.8165 0.4082 -0.4082 1.0
vtan -0.7716 -0.1544 0.6171 1.0
vtan -0.7071 -0.7071 -0.0 1.0
vtan -0.7071 0.7071 0.0 1.0
vtan -0.2564 0.2892 -0.9223 1.0
vtan -0.3565 0.2158 -0.909 1.0
vtan -0.0002 -0.0002 -1.0 1.0
vtan -0.6274 0.5821 0.5173 1.0
vtan -0.6274 -0.5821 -0.5172 1.0
vtan -0.2564 -0.2892 0.9223 1.0
vtan -0.0002 0.0002 1.0 1.0
vtan -0.3565 -0.2158 0.909 1.0
vtan 0.0002 -0.0002 -1.0 1.0
vtan -0.4086 -0.408 -0.8165 1.0
vtan -0.7973 -0.3254 -0.5083 1.0
vtan -0.7597 0.0542 0.648 1.0
vtan 0.0002 0.0002 1.0 1.0
vtan -0.5434 0.3945 -0.741 1.0
f 0/0/0/0 1/1/1/1 2/2/2/2 
f 0/0/0/0 2/2/2/2 3/3/3/3 
f 4/4/4/4 5/5/5/5 6/6/6/6 
f 4/4/4/4 6/6/6/6 7/7/7/7 
f 2/8/2/8 8/9/8/9 3/10/3/10 
f 9/11/9/11 8/12/8/12 2/2/2/2 
f 9/11/9/11 2/2/2/2 1/1/1/1 
f 1/13/1/13 0/14/0/14 9/15/9/15 
f 7/16/7/16 3/10/3/10 8/9/8/9 
f 7/16/7/16 8/9/8/9 4/17/4/17 
f 4/4/4/4 10/18/10/18 11/19/11/19 
f 4/4/4/4 11/19/11/19 5/5/5/5 
f 9/15/9/15 0/14/0/14 6/20/6/20 
f 9/15/9/15 6/20/6/20 5/5/5/5 
f 4/17/4/17 8/9/8/9 10/21/10/21 
f 9/11/9/11 11/19/11/19 10/18/10/18 
f 9/11/9/11 10/18/10/18 8/12/8/12 
f 9/15/9/15 5/5/5/5 11/19/11/19 
