v -950.9592 695.3229 -313.4021
v -999.981 695.3229 -313.4021
v -999.981 695.3229 -269.1365
v -950.146 695.3229 -243.7442
v -973.7756 695.3229 -242.9311
v -950.9592 695.3229 -242.9311
v -950.146 695.3229 -312.5889
v -999.981 520.3423 -306.1041
v -999.981 660.3633 -306.1041
v -958.1909 660.3633 -306.1041
v -958.1167 520.3423 -306.1041
v -957.4451 520.3423 -305.4324
v -957.4451 660.3633 -305.3582
v -957.4451 660.3633 -250.9749
v -957.4451 520.3423 -250.9007
v -957.6077 664.2319 -249.6597
v -956.7856 670.6964 -248.8835
v -979.7278 670.6964 -248.8835
v -980.5042 664.2319 -249.6597
v -956.0994 670.6965 -306.7633
v -956.0994 670.6964 -249.5698
v -956.8757 664.2319 -250.3917
v -956.8757 664.2319 -305.9414
v -999.981 686.5967 -313.4021
v -999.981 690.9597 -313.402
v -950.8813 690.9597 -313.4021
v -950.8462 686.5967 -313.4021
v -950.146 686.5967 -312.7019
v -950.146 690.9597 -312.6666
v -950.146 690.9597 -243.6665
v -950.146 686.5967 -243.6312
v -958.1909 660.3633 -250.229
v -956.0669 662.2977 -248.0331
v -978.8774 662.2977 -248.0331
v -981.0735 660.3633 -250.229
v -955.2488 662.2977 -307.482
v -955.2488 662.2977 -248.8512
v -950.8813 690.9597 -242.9311
v -948.9136 693.1412 -240.8857
v -971.7302 693.1412 -240.8857
v -973.7756 690.9597 -242.9311
v -948.1003 693.1412 -314.6343
v -948.1003 693.1412 -241.6988
v -954.1843 679.6954 -246.255
v -950.8462 686.5967 -242.9311
v -973.7756 686.5967 -242.9311
v -977.0994 679.6954 -246.255
v -953.4705 679.6954 -246.969
v -953.4705 679.6954 -309.3642
v -954.1843 679.6954 -310.0781
v -958.1167 520.3423 -250.229
v -956.0669 662.2977 -308.3001
v -957.6077 664.2319 -306.6734
v -948.9136 693.1412 -315.4475
v -956.7856 670.6965 -307.4496
v -956.8293 518.7643 -250.2993
v -949.8906 511.8407 -243.5284
v -949.8906 511.8408 -312.8047
v -956.8293 518.7643 -306.0338
v -957.5151 518.7643 -249.6133
v -950.7434 511.8407 -242.6758
v -980.4578 518.7643 -249.6133
v -973.5203 511.8407 -242.6758
v -950.7434 511.8408 -313.6574
v -957.5151 518.7643 -306.7198
v -948.4341 511.8407 -242.9251
v -948.4341 509.4903 -242.9251
v -948.4341 509.4904 -313.408
v -948.4341 511.8408 -313.408
v -950.1401 511.8407 -241.2192
v -950.1401 509.4903 -241.2192
v -972.0635 511.8407 -241.2192
v -972.0635 509.4903 -241.2192
v -950.1401 509.4904 -315.114
v -950.1401 511.8408 -315.114
v -956.3171 519.5533 -306.5332
v -956.3171 519.5533 -249.7999
v -957.0156 519.5533 -249.1014
v -979.9458 519.5533 -249.1014
v -957.0156 519.5533 -307.2318
v -949.8906 507.1398 -243.5284
v -949.8906 507.1399 -312.8047
v -949.8906 509.4904 -312.8047
v -949.8906 509.4903 -243.5284
v -950.7434 507.1398 -242.6758
v -950.7434 509.4903 -242.6758
v -950.7434 507.1399 -313.6574
v -999.981 507.1399 -313.6574
v -999.981 509.4904 -313.6574
v -950.7434 509.4904 -313.6574
v -981.0735 520.3423 -250.229
v -999.981 509.4904 -315.114
v -999.981 670.6964 -307.4496
v -999.981 664.2319 -306.6734
v -999.981 662.2977 -308.3001
v -999.981 693.1412 -315.4475
v -999.981 679.6954 -310.0781
v -999.981 511.8408 -313.6574
v -999.981 518.7643 -306.7198
v -999.981 511.8408 -315.114
v -999.981 519.5533 -307.2318
v -1037.5178 664.2319 -306.6734
v -1038.2939 670.6964 -307.4496
v -1036.9485 660.3633 -306.1041
v -1039.1445 662.2977 -308.3001
v -1044.2466 690.9597 -313.4021
v -1046.2917 693.1412 -315.4475
v -1044.2466 695.3229 -313.4021
v -1040.9226 679.6954 -310.0781
v -1044.2466 686.5967 -313.4021
v -1044.5017 511.8408 -313.6574
v -1037.5642 518.7643 -306.7198
v -1045.9585 509.4904 -315.114
v -1045.9585 511.8408 -315.114
v -1038.0762 519.5533 -307.2318
v -1036.9485 520.3423 -306.1041
v -973.5203 509.4903 -242.6758
v -973.5203 507.1398 -242.6758
v -1044.5017 507.1399 -313.6574
v -1044.5017 509.4904 -313.6574
v -974.5886 695.3229 -219.3017
v -973.7756 695.3229 -220.1148
v -1044.2466 695.3229 -220.1148
v -1044.2466 695.3229 -269.1365
v -1043.4333 695.3229 -219.3017
v -1036.9485 660.3633 -227.3465
v -1036.9485 660.3633 -269.1365
v -1036.9485 520.3423 -269.1365
v -1036.9485 520.3423 -227.2723
v -981.8193 660.3633 -226.6006
v -1036.2026 660.3633 -226.6006
v -1036.2769 520.3423 -226.6006
v -981.7451 520.3423 -226.6006
v -980.5042 664.2319 -226.7632
v -979.7278 670.6964 -225.9412
v -981.2361 664.2319 -226.0312
v -980.4143 670.6964 -225.2549
v -1037.6077 670.6965 -225.2549
v -1036.7859 664.2319 -226.0312
v -1044.2466 690.9597 -220.037
v -1044.2466 690.9597 -269.1365
v -1044.2466 686.5967 -269.1365
v -1044.2466 686.5967 -220.0017
v -974.5107 690.9597 -219.3017
v -1043.511 690.9597 -219.3017
v -1043.5464 686.5967 -219.3017
v -974.4756 686.5967 -219.3017
v -981.0735 660.3633 -227.3465
v -978.8774 662.2977 -225.2225
v -979.6956 662.2977 -224.4043
v -1038.3264 662.2977 -224.4043
v -973.7756 690.9597 -220.037
v -971.7302 693.1412 -218.0691
v -972.5432 693.1412 -217.256
v -1045.4788 693.1412 -217.256
v -977.0994 679.6954 -223.34
v -973.7756 686.5967 -220.0017
v -977.8135 679.6954 -222.6261
v -1040.2087 679.6954 -222.6261
v -1040.9226 679.6954 -223.34
v -981.0735 520.3423 -227.2723
v -1039.1445 662.2977 -225.2224
v -1037.5178 664.2319 -226.7632
v -1046.2917 693.1412 -218.0691
v -1038.2939 670.6965 -225.9412
v -1043.6492 511.8407 -219.0463
v -974.3728 511.8407 -219.0463
v -981.1438 518.7643 -225.9848
v -1036.8782 518.7643 -225.9848
v -973.5203 511.8407 -219.899
v -980.4578 518.7643 -226.6708
v -1044.5017 511.8407 -219.899
v -1037.5642 518.7643 -226.6708
v -1044.2524 509.4903 -217.5896
v -973.7695 509.4903 -217.5896
v -973.7695 511.8407 -217.5896
v -1044.2524 511.8407 -217.5896
v -972.0635 509.4903 -219.2956
v -972.0635 511.8407 -219.2956
v -1045.9585 509.4903 -219.2956
v -1045.9585 511.8407 -219.2956
v -980.6443 519.5533 -225.4728
v -1037.3777 519.5533 -225.4728
v -979.9458 519.5533 -226.1714
v -1038.0762 519.5533 -226.1713
v -1043.6492 509.4903 -219.0463
v -1043.6492 507.1398 -219.0463
v -974.3728 507.1398 -219.0463
v -974.3728 509.4903 -219.0463
v -973.5203 507.1398 -219.899
v -973.5203 509.4903 -219.899
v -1044.5017 509.4903 -269.1365
v -1044.5017 507.1398 -269.1365
v -1044.5017 507.1398 -219.899
v -1044.5017 509.4903 -219.899
v -1045.9585 509.4903 -269.1365
v -1038.2939 670.6964 -269.1365
v -1037.5178 664.2319 -269.1365
v -1039.1445 662.2977 -269.1365
v -1046.2917 693.1412 -269.1365
v -1040.9226 679.6954 -269.1365
v -1044.5017 511.8407 -269.1365
v -1037.5642 518.7643 -269.1365
v -1045.9585 511.8407 -269.1365
v -1038.0762 519.5533 -269.1365
gi 0 0 0 0
gi 0 0 0 0
gi 0 0 0 0
gi 0 0 0 0
gi 0 0 0 0
gi 0 0 0 0
gi 0 0 0 0
gi 0 0 0 0
gi 0 0 0 0
gi 0 0 0 0
gi 0 0 0 0
gi 0 0 0 0
gi 0 0 0 0
gi 0 0 0 0
gi 0 0 0 0
gi 0 0 0 0
gi 0 0 0 0
gi 0 0 0 0
gi 0 0 0 0
gi 0 0 0 0
gi 0 0 0 0
gi 0 0 0 0
gi 0 0 0 0
gi 0 0 0 0
gi 0 0 0 0
gi 0 0 0 0
gi 0 0 0 0
gi 0 0 0 0
gi 0 0 0 0
gi 0 0 0 0
gi 0 0 0 0
gi 0 0 0 0
gi 0 0 0 0
gi 0 0 0 0
gi 0 0 0 0
gi 0 0 0 0
gi 0 0 0 0
gi 0 0 0 0
gi 0 0 0 0
gi 0 0 0 0
gi 0 0 0 0
gi 0 0 0 0
gi 0 0 0 0
gi 0 0 0 0
gi 0 0 0 0
gi 0 0 0 0
gi 0 0 0 0
gi 0 0 0 0
gi 0 0 0 0
gi 0 0 0 0
gi 0 0 0 0
gi 0 0 0 0
gi 0 0 0 0
gi 0 0 0 0
gi 0 0 0 0
gi 0 0 0 0
gi 0 0 0 0
gi 0 0 0 0
gi 0 0 0 0
gi 0 0 0 0
gi 0 0 0 0
gi 0 0 0 0
gi 0 0 0 0
gi 0 0 0 0
gi 0 0 0 0
gi 0 0 0 0
gi 0 0 0 0
gi 0 0 0 0
gi 0 0 0 0
gi 0 0 0 0
gi 0 0 0 0
gi 0 0 0 0
gi 0 0 0 0
gi 0 0 0 0
gi 0 0 0 0
gi 0 0 0 0
gi 0 0 0 0
gi 0 0 0 0
gi 0 0 0 0
gi 0 0 0 0
gi 0 0 0 0
gi 0 0 0 0
gi 0 0 0 0
gi 0 0 0 0
gi 0 0 0 0
gi 0 0 0 0
gi 0 0 0 0
gi 0 0 0 0
gi 0 0 0 0
gi 0 0 0 0
gi 0 0 0 0
gi 0 0 0 0
gi 0 0 0 0
gi 0 0 0 0
gi 0 0 0 0
gi 0 0 0 0
gi 0 0 0 0
gi 0 0 0 0
gi 0 0 0 0
gi 0 0 0 0
gi 0 0 0 0
gi 0 0 0 0
gi 0 0 0 0
gi 0 0 0 0
gi 0 0 0 0
gi 0 0 0 0
gi 0 0 0 0
gi 0 0 0 0
gi 0 0 0 0
gi 0 0 0 0
gi 0 0 0 0
gi 0 0 0 0
gi 0 0 0 0
gi 0 0 0 0
gi 0 0 0 0
gi 0 0 0 0
gi 0 0 0 0
gi 0 0 0 0
gi 0 0 0 0
gi 0 0 0 0
gi 0 0 0 0
gi 0 0 0 0
gi 0 0 0 0
gi 0 0 0 0
gi 0 0 0 0
gi 0 0 0 0
gi 0 0 0 0
gi 0 0 0 0
gi 0 0 0 0
gi 0 0 0 0
gi 0 0 0 0
gi 0 0 0 0
gi 0 0 0 0
gi 0 0 0 0
gi 0 0 0 0
gi 0 0 0 0
gi 0 0 0 0
gi 0 0 0 0
gi 0 0 0 0
gi 0 0 0 0
gi 0 0 0 0
gi 0 0 0 0
gi 0 0 0 0
gi 0 0 0 0
gi 0 0 0 0
gi 0 0 0 0
gi 0 0 0 0
gi 0 0 0 0
gi 0 0 0 0
gi 0 0 0 0
gi 0 0 0 0
gi 0 0 0 0
gi 0 0 0 0
gi 0 0 0 0
gi 0 0 0 0
gi 0 0 0 0
gi 0 0 0 0
gi 0 0 0 0
gi 0 0 0 0
gi 0 0 0 0
gi 0 0 0 0
gi 0 0 0 0
gi 0 0 0 0
gi 0 0 0 0
gi 0 0 0 0
gi 0 0 0 0
gi 0 0 0 0
gi 0 0 0 0
gi 0 0 0 0
gi 0 0 0 0
gi 0 0 0 0
gi 0 0 0 0
gi 0 0 0 0
gi 0 0 0 0
gi 0 0 0 0
gi 0 0 0 0
gi 0 0 0 0
gi 0 0 0 0
gi 0 0 0 0
gi 0 0 0 0
gi 0 0 0 0
gi 0 0 0 0
gi 0 0 0 0
gi 0 0 0 0
gi 0 0 0 0
gi 0 0 0 0
gi 0 0 0 0
gi 0 0 0 0
gi 0 0 0 0
gi 0 0 0 0
gi 0 0 0 0
gi 0 0 0 0
gi 0 0 0 0
gi 0 0 0 0
gi 0 0 0 0
gi 0 0 0 0
gi 0 0 0 0
gi 0 0 0 0
gi 0 0 0 0
gi 0 0 0 0
gi 0 0 0 0
gi 0 0 0 0
gi 0 0 0 0
gi 0 0 0 0
gi 0 0 0 0
gw 0.0 0.0 0.0 0.0
gw 0.0 0.0 0.0 0.0
gw 0.0 0.0 0.0 0.0
gw 0.0 0.0 0.0 0.0
gw 0.0 0.0 0.0 0.0
gw 0.0 0.0 0.0 0.0
gw 0.0 0.0 0.0 0.0
gw 0.0 0.0 0.0 0.0
gw 0.0 0.0 0.0 0.0
gw 0.0 0.0 0.0 0.0
gw 0.0 0.0 0.0 0.0
gw 0.0 0.0 0.0 0.0
gw 0.0 0.0 0.0 0.0
gw 0.0 0.0 0.0 0.0
gw 0.0 0.0 0.0 0.0
gw 0.0 0.0 0.0 0.0
gw 0.0 0.0 0.0 0.0
gw 0.0 0.0 0.0 0.0
gw 0.0 0.0 0.0 0.0
gw 0.0 0.0 0.0 0.0
gw 0.0 0.0 0.0 0.0
gw 0.0 0.0 0.0 0.0
gw 0.0 0.0 0.0 0.0
gw 0.0 0.0 0.0 0.0
gw 0.0 0.0 0.0 0.0
gw 0.0 0.0 0.0 0.0
gw 0.0 0.0 0.0 0.0
gw 0.0 0.0 0.0 0.0
gw 0.0 0.0 0.0 0.0
gw 0.0 0.0 0.0 0.0
gw 0.0 0.0 0.0 0.0
gw 0.0 0.0 0.0 0.0
gw 0.0 0.0 0.0 0.0
gw 0.0 0.0 0.0 0.0
gw 0.0 0.0 0.0 0.0
gw 0.0 0.0 0.0 0.0
gw 0.0 0.0 0.0 0.0
gw 0.0 0.0 0.0 0.0
gw 0.0 0.0 0.0 0.0
gw 0.0 0.0 0.0 0.0
gw 0.0 0.0 0.0 0.0
gw 0.0 0.0 0.0 0.0
gw 0.0 0.0 0.0 0.0
gw 0.0 0.0 0.0 0.0
gw 0.0 0.0 0.0 0.0
gw 0.0 0.0 0.0 0.0
gw 0.0 0.0 0.0 0.0
gw 0.0 0.0 0.0 0.0
gw 0.0 0.0 0.0 0.0
gw 0.0 0.0 0.0 0.0
gw 0.0 0.0 0.0 0.0
gw 0.0 0.0 0.0 0.0
gw 0.0 0.0 0.0 0.0
gw 0.0 0.0 0.0 0.0
gw 0.0 0.0 0.0 0.0
gw 0.0 0.0 0.0 0.0
gw 0.0 0.0 0.0 0.0
gw 0.0 0.0 0.0 0.0
gw 0.0 0.0 0.0 0.0
gw 0.0 0.0 0.0 0.0
gw 0.0 0.0 0.0 0.0
gw 0.0 0.0 0.0 0.0
gw 0.0 0.0 0.0 0.0
gw 0.0 0.0 0.0 0.0
gw 0.0 0.0 0.0 0.0
gw 0.0 0.0 0.0 0.0
gw 0.0 0.0 0.0 0.0
gw 0.0 0.0 0.0 0.0
gw 0.0 0.0 0.0 0.0
gw 0.0 0.0 0.0 0.0
gw 0.0 0.0 0.0 0.0
gw 0.0 0.0 0.0 0.0
gw 0.0 0.0 0.0 0.0
gw 0.0 0.0 0.0 0.0
gw 0.0 0.0 0.0 0.0
gw 0.0 0.0 0.0 0.0
gw 0.0 0.0 0.0 0.0
gw 0.0 0.0 0.0 0.0
gw 0.0 0.0 0.0 0.0
gw 0.0 0.0 0.0 0.0
gw 0.0 0.0 0.0 0.0
gw 0.0 0.0 0.0 0.0
gw 0.0 0.0 0.0 0.0
gw 0.0 0.0 0.0 0.0
gw 0.0 0.0 0.0 0.0
gw 0.0 0.0 0.0 0.0
gw 0.0 0.0 0.0 0.0
gw 0.0 0.0 0.0 0.0
gw 0.0 0.0 0.0 0.0
gw 0.0 0.0 0.0 0.0
gw 0.0 0.0 0.0 0.0
gw 0.0 0.0 0.0 0.0
gw 0.0 0.0 0.0 0.0
gw 0.0 0.0 0.0 0.0
gw 0.0 0.0 0.0 0.0
gw 0.0 0.0 0.0 0.0
gw 0.0 0.0 0.0 0.0
gw 0.0 0.0 0.0 0.0
gw 0.0 0.0 0.0 0.0
gw 0.0 0.0 0.0 0.0
gw 0.0 0.0 0.0 0.0
gw 0.0 0.0 0.0 0.0
gw 0.0 0.0 0.0 0.0
gw 0.0 0.0 0.0 0.0
gw 0.0 0.0 0.0 0.0
gw 0.0 0.0 0.0 0.0
gw 0.0 0.0 0.0 0.0
gw 0.0 0.0 0.0 0.0
gw 0.0 0.0 0.0 0.0
gw 0.0 0.0 0.0 0.0
gw 0.0 0.0 0.0 0.0
gw 0.0 0.0 0.0 0.0
gw 0.0 0.0 0.0 0.0
gw 0.0 0.0 0.0 0.0
gw 0.0 0.0 0.0 0.0
gw 0.0 0.0 0.0 0.0
gw 0.0 0.0 0.0 0.0
gw 0.0 0.0 0.0 0.0
gw 0.0 0.0 0.0 0.0
gw 0.0 0.0 0.0 0.0
gw 0.0 0.0 0.0 0.0
gw 0.0 0.0 0.0 0.0
gw 0.0 0.0 0.0 0.0
gw 0.0 0.0 0.0 0.0
gw 0.0 0.0 0.0 0.0
gw 0.0 0.0 0.0 0.0
gw 0.0 0.0 0.0 0.0
gw 0.0 0.0 0.0 0.0
gw 0.0 0.0 0.0 0.0
gw 0.0 0.0 0.0 0.0
gw 0.0 0.0 0.0 0.0
gw 0.0 0.0 0.0 0.0
gw 0.0 0.0 0.0 0.0
gw 0.0 0.0 0.0 0.0
gw 0.0 0.0 0.0 0.0
gw 0.0 0.0 0.0 0.0
gw 0.0 0.0 0.0 0.0
gw 0.0 0.0 0.0 0.0
gw 0.0 0.0 0.0 0.0
gw 0.0 0.0 0.0 0.0
gw 0.0 0.0 0.0 0.0
gw 0.0 0.0 0.0 0.0
gw 0.0 0.0 0.0 0.0
gw 0.0 0.0 0.0 0.0
gw 0.0 0.0 0.0 0.0
gw 0.0 0.0 0.0 0.0
gw 0.0 0.0 0.0 0.0
gw 0.0 0.0 0.0 0.0
gw 0.0 0.0 0.0 0.0
gw 0.0 0.0 0.0 0.0
gw 0.0 0.0 0.0 0.0
gw 0.0 0.0 0.0 0.0
gw 0.0 0.0 0.0 0.0
gw 0.0 0.0 0.0 0.0
gw 0.0 0.0 0.0 0.0
gw 0.0 0.0 0.0 0.0
gw 0.0 0.0 0.0 0.0
gw 0.0 0.0 0.0 0.0
gw 0.0 0.0 0.0 0.0
gw 0.0 0.0 0.0 0.0
gw 0.0 0.0 0.0 0.0
gw 0.0 0.0 0.0 0.0
gw 0.0 0.0 0.0 0.0
gw 0.0 0.0 0.0 0.0
gw 0.0 0.0 0.0 0.0
gw 0.0 0.0 0.0 0.0
gw 0.0 0.0 0.0 0.0
gw 0.0 0.0 0.0 0.0
gw 0.0 0.0 0.0 0.0
gw 0.0 0.0 0.0 0.0
gw 0.0 0.0 0.0 0.0
gw 0.0 0.0 0.0 0.0
gw 0.0 0.0 0.0 0.0
gw 0.0 0.0 0.0 0.0
gw 0.0 0.0 0.0 0.0
gw 0.0 0.0 0.0 0.0
gw 0.0 0.0 0.0 0.0
gw 0.0 0.0 0.0 0.0
gw 0.0 0.0 0.0 0.0
gw 0.0 0.0 0.0 0.0
gw 0.0 0.0 0.0 0.0
gw 0.0 0.0 0.0 0.0
gw 0.0 0.0 0.0 0.0
gw 0.0 0.0 0.0 0.0
gw 0.0 0.0 0.0 0.0
gw 0.0 0.0 0.0 0.0
gw 0.0 0.0 0.0 0.0
gw 0.0 0.0 0.0 0.0
gw 0.0 0.0 0.0 0.0
gw 0.0 0.0 0.0 0.0
gw 0.0 0.0 0.0 0.0
gw 0.0 0.0 0.0 0.0
gw 0.0 0.0 0.0 0.0
gw 0.0 0.0 0.0 0.0
gw 0.0 0.0 0.0 0.0
gw 0.0 0.0 0.0 0.0
gw 0.0 0.0 0.0 0.0
gw 0.0 0.0 0.0 0.0
gw 0.0 0.0 0.0 0.0
gw 0.0 0.0 0.0 0.0
gw 0.0 0.0 0.0 0.0
gw 0.0 0.0 0.0 0.0
gw 0.0 0.0 0.0 0.0
gw 0.0 0.0 0.0 0.0
gw 0.0 0.0 0.0 0.0
vt 0.1655 0.9938
vt 0.0555 0.9938
vt 0.0555 0.919
vt 0.1674 0.876
vt 0.1143 0.8746
vt 0.1655 0.8746
vt 0.1674 0.9924
vt 0.6859 0.0122
vt 0.6859 0.7672
vt 0.5006 0.7672
vt 0.5003 0.0122
vt 0.4975 0.0122
vt 0.4971 0.7672
vt 0.2558 0.7672
vt 0.2558 0.0122
vt 0.7592 0.8897
vt 0.7614 0.91
vt 0.6988 0.91
vt 0.6967 0.8897
vt 0.9659 0.9096
vt 0.8098 0.9096
vt 0.8121 0.8892
vt 0.9637 0.8892
vt 0.3095 0.9589
vt 0.3095 0.9726
vt 0.1755 0.9726
vt 0.1754 0.9589
vt 0.9821 0.9596
vt 0.982 0.9733
vt 0.7937 0.9733
vt 0.7936 0.9596
vt 0.2525 0.7672
vt 0.2524 0.779
vt 0.1585 0.779
vt 0.151 0.7672
vt 0.4969 0.7793
vt 0.2559 0.779
vt 0.7011 0.8836
vt 0.7634 0.8836
vt 0.8079 0.8832
vt 0.9679 0.8832
vt 0.7775 0.9737
vt 0.7829 0.9806
vt 0.7206 0.9806
vt 0.7151 0.9737
vt 0.9874 0.9801
vt 0.7884 0.9801
vt 0.7773 0.9875
vt 0.7151 0.9875
vt 0.9818 0.987
vt 0.7939 0.987
vt 0.7685 0.9383
vt 0.7776 0.96
vt 0.7151 0.96
vt 0.706 0.9383
vt 0.8027 0.9379
vt 0.973 0.9379
vt 0.9754 0.9368
vt 0.9849 0.9589
vt 0.2528 0.0122
vt 0.8073 0.909
vt 0.8095 0.8902
vt 0.9848 0.9721
vt 0.7912 0.9721
vt 0.791 0.9589
vt 0.9705 0.8857
vt 0.9664 0.8902
vt 0.8052 0.8857
vt 0.5005 0.7793
vt 0.9907 0.9801
vt 0.786 0.9801
vt 0.9842 0.9896
vt 0.7916 0.9896
vt 0.9686 0.909
vt 0.8002 0.9367
vt 0.7521 0.8673
vt 0.7407 0.844
vt 0.9787 0.844
vt 0.9674 0.8673
vt 0.7231 0.8673
vt 0.7344 0.844
vt 0.6344 0.8678
vt 0.6561 0.844
vt 0.9833 0.8433
vt 0.983 0.8665
vt 0.7404 0.8398
vt 0.7404 0.8318
vt 0.979 0.8318
vt 0.979 0.8398
vt 0.7347 0.8398
vt 0.7347 0.8318
vt 0.6605 0.8398
vt 0.6605 0.8318
vt 0.9847 0.8318
vt 0.9847 0.8398
vt 0.9682 0.8705
vt 0.7512 0.8699
vt 0.7239 0.8699
vt 0.6362 0.8704
vt 0.983 0.8702
vt 0.745 0.8179
vt 0.5036 0.8179
vt 0.5036 0.8097
vt 0.745 0.8097
vt 0.7479 0.8179
vt 0.7479 0.8097
vt 0.5007 0.8179
vt 0.3292 0.8179
vt 0.3292 0.8097
vt 0.5007 0.8097
vt 0.2557 0.0062
vt 0.4974 0.0062
vt 0.151 0.0122
vt 0.155 0.0062
vt 0.2527 0.0062
vt 0.5002 0.0062
vt 0.9787 0.8276
vt 0.7407 0.8276
vt 0.9833 0.8276
vt 0.0095 0.8276
vt 0.1774 0.8276
vt 0.1761 0.8318
vt 0.0075 0.8318
vt 0.7344 0.8276
vt 0.3095 0.9089
vt 0.1916 0.9089
vt 0.1939 0.8885
vt 0.3095 0.8885
vt 0.6812 0.779
vt 0.1897 0.8825
vt 0.3095 0.8825
vt 0.3095 0.9794
vt 0.1701 0.9794
vt 0.1757 0.9863
vt 0.3095 0.9863
vt 0.1845 0.9372
vt 0.3095 0.9372
vt 0.0185 0.8682
vt 0.0095 0.8447
vt 0.1774 0.8442
vt 0.183 0.8683
vt 0.0075 0.8398
vt 0.1761 0.8398
vt 0.1822 0.8709
vt 0.0168 0.8708
vt 0.6833 0.0062
vt 0.2071 0.8885
vt 0.2049 0.9089
vt 0.522 0.7672
vt 0.5201 0.7792
vt 0.2026 0.8825
vt 0.1887 0.9726
vt 0.1831 0.9794
vt 0.1887 0.9863
vt 0.1978 0.9372
vt 0.1887 0.9589
vt 0.0256 0.8447
vt 0.0374 0.8682
vt 0.0205 0.8318
vt 0.0205 0.8398
vt 0.0356 0.8709
vt 0.521 0.0062
vt 0.522 0.0122
vt 0.8273 0.8097
vt 0.8273 0.8179
vt 0.6561 0.8276
vt 0.1549 0.9938
vt 0.4842 0.8179
vt 0.4842 0.8097
vt 0.0256 0.8276
vn 0.1192 0.9081 -0.4014
vn 0.0 0.9176 -0.3975
vn 0.0 1.0 -0.0
vn 0.4014 0.9081 0.1192
vn 0.1157 0.9865 0.1157
vn 0.1192 0.9081 0.4014
vn 0.4014 0.9081 -0.1192
vn 0.0 0.4619 -0.8869
vn 0.0 -0.4117 -0.9113
vn 0.2921 -0.5105 -0.8088
vn 0.2799 0.5651 -0.7761
vn 0.776 0.5652 -0.2799
vn 0.8088 -0.5105 -0.2921
vn 0.8088 -0.5105 0.2921
vn 0.7761 0.5652 0.2798
vn 0.3129 0.3591 0.8793
vn 0.3577 -0.262 0.8963
vn 0.6821 -0.2638 0.6821
vn 0.6771 0.2883 0.6771
vn 0.8963 -0.262 -0.3576
vn 0.8963 -0.262 0.3576
vn 0.8793 0.3591 0.3129
vn 0.8793 0.3591 -0.3129
vn -0.0 -0.2225 -0.9749
vn -0.0 -0.3678 -0.9299
vn 0.3026 -0.4599 -0.8348
vn 0.3871 -0.2629 -0.8837
vn 0.8837 -0.2629 -0.3871
vn 0.8349 -0.4599 -0.3025
vn 0.8348 -0.4599 0.3026
vn 0.8837 -0.2629 0.3872
vn 0.2921 -0.5105 0.8088
vn 0.4329 -0.0633 0.8992
vn 0.7013 -0.1277 0.7014
vn 0.6447 -0.4108 0.6447
vn 0.8992 -0.0633 -0.4328
vn 0.8992 -0.0633 0.4328
vn 0.3026 -0.4599 0.8348
vn 0.4354 0.0029 0.9002
vn 0.7071 -0.0 0.7071
vn 0.6538 -0.381 0.6538
vn 0.9002 0.0028 -0.4354
vn 0.9002 0.0028 0.4354
vn 0.3245 -0.4519 0.831
vn 0.3871 -0.2629 0.8838
vn 0.6648 -0.3406 0.6648
vn 0.6292 -0.4562 0.6292
vn 0.831 -0.4519 0.3244
vn 0.831 -0.4519 -0.3244
vn 0.3244 -0.4519 -0.831
vn 0.2799 0.5651 0.7761
vn 0.4329 -0.0633 -0.8992
vn 0.3129 0.3591 -0.8793
vn 0.4354 0.0028 -0.9002
vn 0.3577 -0.262 -0.8963
vn 0.9468 0.1287 0.2949
vn 0.2184 0.9701 0.1058
vn 0.2184 0.9701 -0.1058
vn 0.9468 0.1287 -0.295
vn 0.295 0.1288 0.9468
vn 0.1058 0.9701 0.2184
vn 0.7047 0.0826 0.7047
vn 0.2998 0.9057 0.2998
vn 0.1058 0.9701 -0.2184
vn 0.295 0.1288 -0.9468
vn 0.7173 0.6303 0.2971
vn 0.7173 -0.6302 0.2971
vn 0.7173 -0.6303 -0.2971
vn 0.7173 0.6302 -0.2971
vn 0.2971 0.6302 0.7173
vn 0.2971 -0.6303 0.7173
vn 0.3015 0.9045 0.3015
vn 0.3015 -0.9045 0.3015
vn 0.2971 -0.6302 -0.7173
vn 0.2971 0.6303 -0.7173
vn 0.89 0.1596 -0.4271
vn 0.89 0.1596 0.4272
vn 0.4272 0.1597 0.89
vn 0.67 0.3197 0.67
vn 0.4272 0.1596 -0.8899
vn 0.9239 0.0 0.3827
vn 0.9239 0.0 -0.3827
vn 0.5491 -0.8042 -0.2275
vn 0.5491 -0.8042 0.2275
vn 0.3826 0.0 0.9239
vn 0.2274 -0.8042 0.5492
vn 0.3827 0.0 -0.9239
vn 0.0 0.0 -1.0
vn 0.0 -0.7071 -0.7071
vn 0.2274 -0.8042 -0.5491
vn 0.6342 0.4423 0.6342
vn 0.0 -0.7071 -0.7071
vn 0.0 -0.2005 -0.9797
vn 0.0 0.2858 -0.9583
vn 0.0 -0.0747 -0.9972
vn 0.0 -0.0 -1.0
vn 0.0 -0.3584 -0.9336
vn 0.0 0.9241 -0.3822
vn 0.0 0.1052 -0.9944
vn 0.0 0.7071 -0.7071
vn 0.0 0.1912 -0.9816
vn -0.6319 0.4487 -0.6319
vn -0.6766 -0.2907 -0.6766
vn -0.5591 -0.6123 -0.5591
vn -0.7061 -0.0541 -0.7061
vn -0.5887 -0.5541 -0.5886
vn -0.7071 0.0 -0.7071
vn -0.3128 0.8968 -0.3128
vn -0.6141 -0.4958 -0.6141
vn -0.6823 -0.2627 -0.6823
vn -0.1099 0.9879 -0.1099
vn -0.6957 0.1788 -0.6957
vn -0.5773 -0.5774 -0.5773
vn -0.5773 0.5774 -0.5773
vn -0.7001 0.1404 -0.7001
vn -0.5222 0.6742 -0.5222
vn 0.5773 -0.5774 0.5773
vn 0.7071 0.0 0.7071
vn -0.7071 0.0 -0.7071
vn -0.3015 -0.9045 -0.3015
vn 0.1192 0.9081 0.4014
vn 0.4014 0.9081 0.1192
vn -0.4015 0.9081 0.1192
vn -0.3976 0.9176 -0.0
vn -0.1192 0.9081 0.4014
vn -0.8088 -0.5104 0.2921
vn -0.9113 -0.4117 0.0
vn -0.8869 0.4619 0.0
vn -0.7761 0.5651 0.2798
vn 0.2921 -0.5105 0.8087
vn -0.2921 -0.5105 0.8088
vn -0.2799 0.5652 0.776
vn 0.2799 0.5652 0.776
vn 0.8793 0.3591 0.3129
vn 0.8963 -0.262 0.3577
vn 0.313 0.3591 0.8793
vn 0.3576 -0.262 0.8964
vn -0.3577 -0.262 0.8963
vn -0.3129 0.3592 0.8792
vn -0.8348 -0.4599 0.3026
vn -0.9299 -0.3677 0.0
vn -0.9749 -0.2225 0.0
vn -0.8837 -0.2629 0.3872
vn 0.3026 -0.4599 0.8348
vn -0.3025 -0.4599 0.8349
vn -0.3871 -0.2629 0.8838
vn 0.3871 -0.2629 0.8837
vn 0.8088 -0.5105 0.2921
vn 0.8992 -0.0632 0.4328
vn 0.4328 -0.0633 0.8993
vn -0.4329 -0.0633 0.8992
vn 0.8349 -0.4599 0.3025
vn 0.9002 0.0029 0.4354
vn 0.4354 0.0028 0.9002
vn -0.4354 0.0029 0.9002
vn 0.831 -0.4518 0.3245
vn 0.8837 -0.2629 0.3872
vn 0.3244 -0.4519 0.831
vn -0.3244 -0.4519 0.831
vn -0.831 -0.4518 0.3244
vn 0.7761 0.5651 0.2798
vn -0.8992 -0.0633 0.4328
vn -0.8793 0.3591 0.3129
vn -0.9002 0.0028 0.4354
vn -0.8963 -0.262 0.3576
vn -0.1058 0.9701 0.2184
vn 0.1058 0.9701 0.2184
vn 0.295 0.1288 0.9468
vn -0.295 0.1288 0.9468
vn 0.2184 0.9701 0.1058
vn 0.9468 0.1287 0.295
vn -0.2184 0.9701 0.1058
vn -0.9468 0.1288 0.295
vn -0.2971 -0.6303 0.7173
vn 0.2971 -0.6302 0.7173
vn 0.2971 0.6303 0.7173
vn -0.2971 0.6302 0.7173
vn 0.7173 -0.6303 0.2971
vn 0.7173 0.6302 0.2971
vn -0.7173 -0.6302 0.2971
vn -0.7173 0.6303 0.2971
vn 0.4272 0.1596 0.8899
vn -0.4272 0.1597 0.8899
vn 0.89 0.1596 0.4271
vn -0.89 0.1596 0.4272
vn -0.2275 -0.8042 0.5491
vn -0.3827 0.0 0.9239
vn 0.3827 0.0 0.9239
vn 0.2275 -0.8042 0.5491
vn 0.9239 0.0 0.3826
vn 0.5492 -0.8042 0.2274
vn -0.7071 -0.7071 -0.0
vn -1.0 0.0 0.0
vn -0.9239 0.0 0.3826
vn -0.5491 -0.8042 0.2274
vn -0.7071 -0.7071 -0.0
vn -0.9797 -0.2005 0.0
vn -0.9583 0.2858 0.0
vn -0.9972 -0.0746 0.0
vn -1.0 -0.0 0.0
vn -0.9336 -0.3584 0.0
vn -0.3822 0.9241 0.0
vn -0.9945 0.1052 0.0
vn -0.7071 0.7071 0.0
vn -0.9816 0.1911 0.0
vtan 0.9929 -0.1113 0.043
vtan 1.0 0.0 0.0
vtan 1.0 -0.0 -0.0003
vtan 0.9159 -0.3984 -0.0494
vtan 0.9933 -0.1149 -0.0135
vtan 0.9929 -0.1107 -0.0444
vtan 0.9157 -0.4005 0.0327
vtan -1.0 0.0 0.0
vtan -0.9404 0.0008 -0.3402
vtan -0.9411 0.0017 -0.3382
vtan -0.3382 -0.0017 -0.9411
vtan -0.3399 -0.0003 -0.9405
vtan 0.3397 -0.0 -0.9405
vtan 0.3381 0.0017 -0.9411
vtan 0.9498 -0.1183 -0.2897
vtan 0.9338 0.1004 -0.3433
vtan 0.7313 0.246 -0.6361
vtan 0.7359 -0.2653 -0.6229
vtan -0.3452 0.0936 -0.9338
vtan 0.342 -0.1047 -0.9339
vtan 0.2823 0.1363 -0.9496
vtan -0.2673 -0.1717 -0.9482
vtan -1.0 -0.0 0.0
vtan -1.0 -0.0 0.0
vtan -0.9531 -0.146 -0.2651
vtan -0.922 -0.1104 -0.3711
vtan -0.3661 0.127 -0.9219
vtan -0.254 0.1657 -0.9529
vtan 0.2699 -0.137 -0.9531
vtan 0.3644 -0.1325 -0.9218
vtan 0.9405 -0.0003 -0.3399
vtan 0.9009 -0.0032 -0.4339
vtan 0.7129 0.1256 -0.6899
vtan 0.7644 0.3464 -0.5437
vtan -0.4339 -0.0032 -0.901
vtan 0.4339 0.0028 -0.901
vtan 0.9015 0.0304 -0.4318
vtan 0.4313 0.2938 -0.853
vtan -0.431 -0.2976 -0.8519
vtan 0.9531 0.146 -0.265
vtan 0.9002 -0.0014 -0.4354
vtan 0.7071 0.0 -0.7071
vtan 0.7567 0.3292 -0.5649
vtan -0.4354 0.0221 -0.9
vtan 0.435 0.0375 -0.8996
vtan 0.9929 -0.109 -0.0482
vtan 0.9933 -0.1149 -0.0135
vtan -0.0963 -0.0876 -0.9915
vtan -0.019 0.1384 -0.9902
vtan 0.9459 0.155 -0.2851
vtan 0.922 0.1104 -0.371
vtan 0.747 0.3031 -0.5917
vtan 0.7772 0.3693 -0.5094
vtan 0.2727 -0.1773 -0.9456
vtan -0.2785 0.1669 -0.9458
vtan -0.6805 0.4987 -0.5369
vtan -0.8204 0.3391 -0.4603
vtan 0.9411 -0.0017 -0.3382
vtan 0.856 -0.2915 -0.4268
vtan 0.6953 0.5441 -0.4696
vtan -0.6807 0.5088 -0.527
vtan 0.6776 -0.5121 -0.5277
vtan 0.8194 -0.3415 -0.4605
vtan -0.7219 -0.6218 -0.3037
vtan -0.7182 -0.5163 -0.4664
vtan 0.5545 0.8052 -0.2103
vtan -0.9009 0.0037 -0.4339
vtan -0.8978 -0.0727 -0.4344
vtan 0.8996 -0.0385 -0.435
vtan -0.1652 -0.3806 -0.9099
vtan 0.1667 0.3803 -0.9097
vtan -0.8417 0.3252 -0.431
vtan 0.6639 -0.5169 -0.5403
vtan 0.2972 0.0014 -0.9548
vtan 0.4242 0.0033 -0.9055
vtan -0.5028 0.0189 -0.8642
vtan -0.3064 0.0801 -0.9485
vtan 0.9547 0.0001 -0.2975
vtan 0.9056 -0.0033 -0.4242
vtan 0.7095 -0.0728 -0.701
vtan 0.954 -0.2831 -0.0987
vtan -0.8728 -0.0146 -0.4879
vtan -0.9479 0.1639 -0.2731
vtan 0.3827 -0.0 -0.9239
vtan 0.3827 -0.0 -0.9239
vtan -0.3827 -0.0 -0.9239
vtan -0.3827 -0.0 -0.9239
vtan 0.9239 -0.0 -0.3827
vtan 0.9239 -0.0 -0.3827
vtan 0.9535 -0.286 -0.0953
vtan 0.9535 0.286 -0.0954
vtan -0.833 0.1961 -0.5174
vtan -0.8507 -0.1665 -0.4986
vtan -0.4382 0.0405 -0.898
vtan 0.4333 -0.0039 -0.9013
vtan 0.9012 0.0052 -0.4335
vtan 0.7424 -0.2835 -0.607
vtan -0.9041 0.0681 -0.4218
vtan -0.3827 -0.0 0.9239
vtan 0.3827 -0.0 0.9239
vtan 0.3827 0.0 0.9239
vtan -0.3827 -0.0 0.9239
vtan -0.9239 0.0 0.3826
vtan -0.9239 0.0 0.3826
vtan 0.9239 0.0 0.3827
vtan 0.9239 -0.0 0.3827
vtan 0.4342 -0.0104 -0.9008
vtan -0.4341 0.0104 -0.9008
vtan 0.7732 -0.3628 -0.5202
vtan 0.7424 -0.2885 -0.6046
vtan 0.9007 0.0104 -0.4342
vtan -0.9007 -0.0104 -0.4343
vtan -0.3827 -0.0 -0.9239
vtan 0.3827 -0.0 -0.9239
vtan -0.7793 0.1878 -0.5979
vtan -0.9738 -0.1878 -0.1283
vtan -0.9548 -0.1961 -0.2232
vtan 0.9239 -0.0 -0.3826
vtan -1.0 -0.0 -0.0
vtan -0.9338 -0.1004 -0.3433
vtan -0.9498 0.1183 -0.2897
vtan -1.0 0.0 -0.0
vtan -0.9015 -0.0304 -0.4318
vtan -1.0 -0.0 -0.0
vtan -0.9003 0.0014 -0.4354
vtan -0.9929 0.109 -0.0482
vtan -0.9459 -0.155 -0.285
vtan -1.0 -0.0 0.0
vtan -0.9555 0.0411 -0.2922
vtan -0.9944 0.1035 -0.0221
vtan -1.0 0.0005 0.0013
vtan -1.0 -0.0007 -0.0001
vtan -0.9548 0.1961 -0.2232
vtan -1.0 0.0008 0.0008
vtan -1.0 -0.0006 -0.0001
vtan -0.9041 0.0748 -0.4206
vtan 1.0 0.0 0.0
vtan 0.775 0.3659 -0.5153
vtan 0.7364 -0.2671 -0.6216
vtan 1.0 0.0 -0.0
vtan 0.8291 -0.4122 -0.3777
vtan 0.7081 -0.0527 -0.7041
vtan 0.7081 -0.0539 -0.704
vtan 1.0 -0.0 0.0
vtan 1.0 -0.0 -0.0
vtan 0.8084 -0.4035 -0.4286
vtan 0.7071 0.0 -0.7071
vtan 0.9498 0.2954 -0.103
vtan 1.0 -0.0 -0.0
vtan 1.0 0.0 0.0
vtan 0.7893 -0.3858 -0.4778
vtan 0.7311 -0.2452 -0.6367
vtan 1.0 0.0006 0.0015
vtan 0.9939 0.1093 -0.0112
vtan 0.7183 0.1756 -0.6732
vtan 1.0 -0.0008 -0.0001
vtan 0.8165 -0.4083 -0.4082
vtan 0.8165 0.4082 -0.4082
vtan 1.0 0.0009 0.0009
vtan 1.0 -0.0007 -0.0001
vtan 0.714 0.1376 -0.6865
vtan 0.8528 0.4129 -0.3198
vtan -0.8165 -0.4083 0.4082
vtan -0.7071 0.0 0.7071
vtan 0.8165 0.4083 -0.4082
vtan -0.9498 -0.2954 0.103
vtan -0.7071 0.0 0.7071
vtan -0.9535 0.286 0.0953
vtan 0.9535 -0.286 -0.0953
vtan -0.0519 -0.398 0.9159
vtan -0.0482 -0.109 0.9929
vtan -0.0136 -0.1149 0.9933
vtan 0.0433 -0.1112 0.9929
vtan -0.0027 0.0 1.0
vtan -0.0006 -0.0002 1.0
vtan 0.0327 -0.4005 0.9157
vtan -0.3401 0.0008 -0.9404
vtan 0.0 0.0 -1.0
vtan -0.3381 0.0017 -0.9411
vtan -0.9405 -0.0 0.3397
vtan -0.9405 -0.0003 -0.3399
vtan -0.9411 -0.0017 -0.3382
vtan -0.9411 0.0017 0.3382
vtan -0.2897 -0.1183 0.9498
vtan -0.6229 -0.2653 0.7359
vtan -0.6361 0.246 0.7313
vtan -0.3433 0.1004 0.9338
vtan -0.9496 0.1364 0.2823
vtan -0.9339 -0.1046 0.342
vtan -0.9338 0.0936 -0.3453
vtan -0.9482 -0.1717 -0.2673
vtan -0.2651 -0.146 -0.9531
vtan -0.3711 -0.1104 -0.922
vtan -0.9531 -0.1371 0.27
vtan -0.9529 0.1657 -0.254
vtan -0.9219 0.127 -0.366
vtan -0.9218 -0.1325 0.3644
vtan -0.3399 -0.0003 0.9405
vtan -0.5437 0.3464 0.7644
vtan -0.69 0.1257 0.7128
vtan -0.4339 -0.0032 0.901
vtan -0.901 0.0028 0.4338
vtan -0.901 -0.0032 -0.4339
vtan -0.4318 0.0304 0.9015
vtan -0.853 0.2938 0.4312
vtan -0.8519 -0.2976 -0.431
vtan -0.265 0.146 0.9531
vtan -0.5649 0.3292 0.7567
vtan -0.7071 0.0 0.7071
vtan -0.4354 -0.0014 0.9002
vtan -0.8996 0.0375 0.435
vtan -0.9 0.0221 -0.4354
vtan -0.0135 -0.1149 0.9933
vtan -0.9902 0.1384 -0.019
vtan -0.9915 -0.0876 -0.0963
vtan -0.2851 0.155 0.9459
vtan -0.5094 0.3693 0.7772
vtan -0.5917 0.3031 0.747
vtan -0.3711 0.1104 0.922
vtan -0.9456 -0.1773 0.2727
vtan -0.9458 0.1669 -0.2785
vtan -0.5368 0.4987 -0.6805
vtan -0.4604 0.3392 -0.8204
vtan -0.3381 -0.0017 0.9411
vtan -0.4269 -0.2915 0.8561
vtan -0.4696 0.5441 0.6953
vtan -0.527 0.5088 -0.6807
vtan -0.5277 -0.5122 0.6777
vtan -0.4605 -0.3415 0.8193
vtan -0.3037 -0.6218 -0.7219
vtan -0.4664 -0.5163 -0.7182
vtan -0.2103 0.8051 0.5546
vtan -0.4339 0.0037 -0.9009
vtan -0.4344 -0.0727 -0.8978
vtan -0.435 -0.0385 0.8996
vtan -0.9099 -0.3806 -0.1651
vtan -0.9097 0.3803 0.1666
vtan -0.4309 0.3252 -0.8418
vtan -0.5403 -0.5169 0.664
vtan -0.8642 0.0189 -0.5028
vtan -0.9055 0.0033 0.4243
vtan -0.9548 0.0014 0.2973
vtan -0.9485 0.0801 -0.3064
vtan -0.4242 -0.0033 0.9056
vtan -0.2974 0.0001 0.9547
vtan -0.0987 -0.2831 0.954
vtan -0.7009 -0.0728 0.7095
vtan -0.4878 -0.0146 -0.8728
vtan -0.273 0.1639 -0.9479
vtan -0.9239 -0.0 -0.3827
vtan -0.9239 -0.0 0.3827
vtan -0.9239 -0.0 0.3827
vtan -0.9239 -0.0 -0.3827
vtan -0.3827 0.0 0.9239
vtan -0.3827 -0.0 0.9239
vtan -0.0954 0.286 0.9535
vtan -0.0953 -0.286 0.9535
vtan -0.5174 0.1961 -0.833
vtan -0.4987 -0.1665 -0.8507
vtan -0.9012 -0.0039 0.4333
vtan -0.8979 0.0405 -0.4383
vtan -0.6071 -0.2836 0.7423
vtan -0.4334 0.0052 0.9012
vtan -0.4218 0.0681 -0.9041
vtan 0.9239 0.0 0.3827
vtan 0.9239 0.0 0.3827
vtan 0.9239 0.0 -0.3827
vtan 0.9239 -0.0 -0.3827
vtan 0.3826 0.0 -0.9239
vtan 0.3826 0.0 -0.9239
vtan -0.0 -0.0 1.0
vtan 0.0 0.0 1.0
vtan 0.3826 0.0 0.9239
vtan 0.3827 -0.0 0.9239
vtan -0.9007 -0.0104 0.4343
vtan -0.9007 0.0104 -0.4342
vtan -0.6047 -0.2886 0.7423
vtan -0.5201 -0.3628 0.7732
vtan -0.4342 0.0104 0.9008
vtan -0.4342 -0.0104 -0.9007
vtan -0.9239 -0.0 -0.3827
vtan -0.9239 -0.0 0.3827
vtan -0.5979 0.1879 -0.7793
vtan -0.1283 -0.1878 -0.9738
vtan -0.2232 -0.1961 -0.9548
vtan 0.0 0.0 -1.0
vtan 0.0 0.0 -1.0
vtan -0.3826 -0.0 0.9239
vtan 0.0 -0.0 -1.0
vtan -0.2896 0.1183 -0.9498
vtan -0.3433 -0.1004 -0.9339
vtan -0.0 0.0 -1.0
vtan -0.4318 -0.0304 -0.9015
vtan -0.4354 0.0014 -0.9002
vtan -0.0482 0.109 -0.9929
vtan 0.0 -0.0 -1.0
vtan 0.0 -0.0 -1.0
vtan -0.285 -0.155 -0.9459
vtan 0.0013 0.0005 -1.0
vtan -0.0221 0.1035 -0.9944
vtan -0.2921 0.041 -0.9555
vtan -0.0001 -0.0007 -1.0
vtan -0.2232 0.1961 -0.9548
vtan 0.0008 0.0008 -1.0
vtan -0.0001 -0.0006 -1.0
vtan -0.4206 0.0748 -0.9042
vtan 0.0 0.0 1.0
vtan -0.6216 -0.2671 0.7364
vtan -0.5152 0.3658 0.775
vtan -0.0 0.0 1.0
vtan -0.7041 -0.0527 0.7082
vtan -0.3777 -0.4122 0.8291
vtan -0.704 -0.0539 0.7082
vtan -0.7071 0.0 0.7071
vtan -0.4286 -0.4034 0.8084
vtan -0.103 0.2953 0.9498
vtan -0.0 0.0 1.0
vtan -0.6367 -0.2452 0.7311
vtan -0.4778 -0.3858 0.7893
vtan 0.0 0.0 1.0
vtan -0.6732 0.1756 0.7183
vtan -0.0112 0.1093 0.9939
vtan 0.0015 0.0006 1.0
vtan -0.0001 -0.0008 1.0
vtan -0.4082 0.4083 0.8165
vtan -0.4082 -0.4083 0.8165
vtan -0.0 -0.0 1.0
vtan 0.0009 0.0009 1.0
vtan -0.0001 -0.0007 1.0
vtan -0.6864 0.1376 0.7141
vtan -0.3198 0.4128 0.8528
vtan 0.4082 -0.4083 -0.8165
vtan 0.7071 0.0 -0.7071
vtan -0.4082 0.4083 0.8165
vtan 0.0 -0.0 -1.0
vtan 0.103 -0.2953 -0.9498
vtan 0.7071 0.0 -0.7071
vtan 0.0 0.0 -1.0
vtan 0.0 0.0 -1.0
vtan 0.0953 0.286 -0.9535
vtan -0.0953 -0.286 0.9535
vtan -0.0 -0.0 1.0
f 0/0/0/0 1/1/1/1 2/2/2/2 
f 0/0/0/0 2/2/2/2 3/3/3/3 
f 2/2/2/2 4/4/4/4 5/5/5/5 
f 2/2/2/2 5/5/5/5 3/3/3/3 
f 6/6/6/6 0/0/0/0 3/3/3/3 
f 7/7/7/7 8/8/8/7 9/9/9/8 
f 7/7/7/7 9/9/9/8 10/10/10/9 
f 11/11/11/10 12/12/12/11 13/13/13/12 
f 11/11/11/10 13/13/13/12 14/14/14/13 
f 15/15/15/14 16/16/16/15 17/17/17/16 
f 15/15/15/14 17/17/17/16 18/18/18/17 
f 19/19/19/18 20/20/20/19 21/21/21/20 
f 19/19/19/18 21/21/21/20 22/22/22/21 
f 23/23/23/22 24/24/24/23 25/25/25/24 
f 23/23/23/22 25/25/25/24 26/26/26/25 
f 27/27/27/26 28/28/28/27 29/29/29/28 
f 27/27/27/26 29/29/29/28 30/30/30/29 
f 31/31/31/30 32/32/32/31 33/33/33/32 
f 31/31/31/30 33/33/33/32 34/34/34/33 
f 35/35/35/34 36/36/36/35 13/13/13/12 
f 35/35/35/34 13/13/13/12 12/12/12/11 
f 15/15/15/14 18/18/18/17 33/37/33/32 
f 15/15/15/14 33/37/33/32 32/38/32/36 
f 22/22/22/21 21/21/21/20 36/39/36/37 
f 22/22/22/21 36/39/36/37 35/40/35/38 
f 37/41/37/39 38/42/38/40 39/43/39/41 
f 37/41/37/39 39/43/39/41 40/44/40/42 
f 41/45/41/43 42/46/42/44 29/29/29/28 
f 41/45/41/43 29/29/29/28 28/28/28/27 
f 5/47/5/45 4/48/4/46 39/43/39/41 
f 5/47/5/45 39/43/39/41 38/42/38/40 
f 6/49/6/47 3/50/3/48 42/46/42/44 
f 6/49/6/47 42/46/42/44 41/45/41/43 
f 43/51/43/49 44/52/44/50 45/53/45/51 
f 43/51/43/49 45/53/45/51 46/54/46/52 
f 27/27/27/26 30/30/30/29 47/55/47/53 
f 27/27/27/26 47/55/47/53 48/56/48/54 
f 16/16/16/15 43/51/43/49 46/54/46/52 
f 16/16/16/15 46/54/46/52 17/17/17/16 
f 48/56/48/54 47/55/47/53 20/20/20/19 
f 48/56/48/54 20/20/20/19 19/19/19/18 
f 27/27/27/26 48/56/48/54 49/57/49/55 
f 27/27/27/26 49/57/49/55 26/58/26/56 
f 14/14/14/13 13/13/13/12 31/31/31/30 
f 14/14/14/13 31/31/31/30 50/59/50/57 
f 12/12/12/11 11/11/11/10 10/10/10/9 
f 12/12/12/11 10/10/10/9 9/9/9/8 
f 21/21/21/20 20/20/20/19 16/60/16/58 
f 21/21/21/20 16/60/16/58 15/61/15/59 
f 26/58/26/56 25/62/25/60 28/28/28/27 
f 26/58/26/56 28/28/28/27 27/27/27/26 
f 30/30/30/29 29/29/29/28 37/63/37/61 
f 30/30/30/29 37/63/37/61 44/64/44/62 
f 22/22/22/21 35/40/35/38 51/65/51/63 
f 22/22/22/21 51/65/51/63 52/66/52/64 
f 15/61/15/59 32/67/32/65 36/39/36/37 
f 15/61/15/59 36/39/36/37 21/21/21/20 
f 35/35/35/34 12/12/12/11 9/9/9/8 
f 35/35/35/34 9/9/9/8 51/68/51/66 
f 32/32/32/31 31/31/31/30 13/13/13/12 
f 32/32/32/31 13/13/13/12 36/36/36/35 
f 25/62/25/60 53/69/53/67 41/45/41/43 
f 25/62/25/60 41/45/41/43 28/28/28/27 
f 29/29/29/28 42/46/42/44 38/70/38/68 
f 29/29/29/28 38/70/38/68 37/63/37/61 
f 53/69/53/67 0/71/0/69 6/49/6/47 
f 53/69/53/67 6/49/6/47 41/45/41/43 
f 42/46/42/44 3/50/3/48 5/72/5/70 
f 42/46/42/44 5/72/5/70 38/70/38/68 
f 19/19/19/18 22/22/22/21 52/66/52/64 
f 19/19/19/18 52/66/52/64 54/73/54/71 
f 47/55/47/53 30/30/30/29 44/64/44/62 
f 47/55/47/53 44/64/44/62 43/74/43/72 
f 54/73/54/71 49/57/49/55 48/56/48/54 
f 54/73/54/71 48/56/48/54 19/19/19/18 
f 20/20/20/19 47/55/47/53 43/74/43/72 
f 20/20/20/19 43/74/43/72 16/60/16/58 
f 55/75/55/73 56/76/56/74 57/77/57/75 
f 55/75/55/73 57/77/57/75 58/78/58/76 
f 59/79/59/77 60/80/60/78 56/76/56/74 
f 59/79/59/77 56/76/56/74 55/75/55/73 
f 59/79/59/77 61/81/61/79 62/82/62/80 
f 59/79/59/77 62/82/62/80 60/80/60/78 
f 58/78/58/76 57/77/57/75 63/83/63/81 
f 58/78/58/76 63/83/63/81 64/84/64/82 
f 65/85/65/83 66/86/66/84 67/87/67/85 
f 65/85/65/83 67/87/67/85 68/88/68/86 
f 69/89/69/87 70/90/70/88 66/86/66/84 
f 69/89/69/87 66/86/66/84 65/85/65/83 
f 71/91/71/89 72/92/72/90 70/90/70/88 
f 71/91/71/89 70/90/70/88 69/89/69/87 
f 68/88/68/86 67/87/67/85 73/93/73/91 
f 68/88/68/86 73/93/73/91 74/94/74/92 
f 75/95/75/93 76/96/76/94 55/75/55/73 
f 75/95/75/93 55/75/55/73 58/78/58/76 
f 59/79/59/77 77/97/77/95 78/98/78/96 
f 59/79/59/77 78/98/78/96 61/81/61/79 
f 79/99/79/97 75/95/75/93 58/78/58/76 
f 79/99/79/97 58/78/58/76 64/84/64/82 
f 76/96/76/94 77/97/77/95 59/79/59/77 
f 76/96/76/94 59/79/59/77 55/75/55/73 
f 80/100/80/98 81/101/81/99 82/102/82/100 
f 80/100/80/98 82/102/82/100 83/103/83/101 
f 84/104/84/102 80/100/80/98 83/103/83/101 
f 84/104/84/102 83/103/83/101 85/105/85/103 
f 86/106/86/104 87/107/87/1 88/108/88/1 
f 86/106/86/104 88/108/88/1 89/109/89/105 
f 81/101/81/99 86/106/86/104 89/109/89/105 
f 81/101/81/99 89/109/89/105 82/102/82/100 
f 11/11/11/10 14/14/14/13 76/110/76/106 
f 11/11/11/10 76/110/76/106 75/111/75/107 
f 50/59/50/57 90/112/90/108 78/113/78/109 
f 50/59/50/57 78/113/78/109 77/114/77/110 
f 10/10/10/9 11/11/11/10 75/111/75/107 
f 10/10/10/9 75/111/75/107 79/115/79/111 
f 14/14/14/13 50/59/50/57 77/114/77/110 
f 14/14/14/13 77/114/77/110 76/110/76/106 
f 56/76/56/74 65/85/65/83 68/88/68/86 
f 56/76/56/74 68/88/68/86 57/77/57/75 
f 60/80/60/78 69/89/69/87 65/85/65/83 
f 60/80/60/78 65/85/65/83 56/76/56/74 
f 60/80/60/78 62/82/62/80 71/91/71/89 
f 60/80/60/78 71/91/71/89 69/89/69/87 
f 57/77/57/75 68/88/68/86 74/94/74/92 
f 57/77/57/75 74/94/74/92 63/83/63/81 
f 82/116/82/112 67/87/67/85 66/86/66/84 
f 82/116/82/112 66/86/66/84 83/117/83/113 
f 89/118/89/114 73/93/73/91 67/87/67/85 
f 89/118/89/114 67/87/67/85 82/116/82/112 
f 89/119/89/115 88/120/88/7 91/121/91/7 
f 89/119/89/115 91/121/91/7 73/122/73/116 
f 83/117/83/113 66/86/66/84 70/90/70/88 
f 83/117/83/113 70/90/70/88 85/123/85/117 
f 92/124/92/118 54/125/54/119 52/126/52/120 
f 92/124/92/118 52/126/52/120 93/127/93/7 
f 94/128/94/121 51/68/51/66 9/9/9/8 
f 94/128/94/121 9/9/9/8 8/8/8/7 
f 52/126/52/120 51/129/51/122 94/130/94/7 
f 52/126/52/120 94/130/94/7 93/127/93/7 
f 95/131/95/123 53/132/53/124 25/25/25/24 
f 95/131/95/123 25/25/25/24 24/24/24/23 
f 0/133/0/125 53/132/53/124 95/131/95/123 
f 0/133/0/125 95/131/95/123 1/134/1/7 
f 23/23/23/22 26/26/26/25 49/135/49/126 
f 23/23/23/22 49/135/49/126 96/136/96/127 
f 96/136/96/127 49/135/49/126 54/125/54/119 
f 96/136/96/127 54/125/54/119 92/124/92/118 
f 64/137/64/128 63/138/63/129 97/139/97/130 
f 64/137/64/128 97/139/97/130 98/140/98/131 
f 74/141/74/132 73/122/73/116 91/121/91/7 
f 74/141/74/132 91/121/91/7 99/142/99/133 
f 100/143/100/134 79/144/79/135 64/137/64/128 
f 100/143/100/134 64/137/64/128 98/140/98/131 
f 10/10/10/9 79/115/79/111 100/145/100/7 
f 10/10/10/9 100/145/100/7 7/7/7/7 
f 63/138/63/129 74/141/74/132 99/142/99/133 
f 63/138/63/129 99/142/99/133 97/139/97/130 
f 92/124/92/136 93/127/93/1 101/146/101/137 
f 92/124/92/136 101/146/101/137 102/147/102/138 
f 94/128/94/139 8/8/8/1 103/148/103/140 
f 94/128/94/139 103/148/103/140 104/149/104/141 
f 94/130/94/1 104/150/104/142 101/146/101/137 
f 94/130/94/1 101/146/101/137 93/127/93/1 
f 95/131/95/143 24/24/24/144 105/151/105/145 
f 95/131/95/143 105/151/105/145 106/152/106/146 
f 95/131/95/143 106/152/106/146 107/153/107/147 
f 95/131/95/143 107/153/107/147 1/134/1/1 
f 23/23/23/148 96/136/96/149 108/154/108/150 
f 23/23/23/148 108/154/108/150 109/155/109/151 
f 96/136/96/149 92/124/92/136 102/147/102/138 
f 96/136/96/149 102/147/102/138 108/154/108/150 
f 97/139/97/152 110/156/110/153 111/157/111/154 
f 97/139/97/152 111/157/111/154 98/140/98/155 
f 91/121/91/1 112/158/112/156 113/159/113/157 
f 91/121/91/1 113/159/113/157 99/142/99/158 
f 100/143/100/159 98/140/98/155 111/157/111/154 
f 100/143/100/159 111/157/111/154 114/160/114/160 
f 100/145/100/1 114/161/114/160 115/162/115/161 
f 100/145/100/1 115/162/115/161 7/7/7/1 
f 99/142/99/158 113/159/113/157 110/156/110/153 
f 99/142/99/158 110/156/110/153 97/139/97/152 
f 50/59/50/57 31/31/31/30 34/34/34/33 
f 50/59/50/57 34/34/34/33 90/112/90/108 
f 44/52/44/50 37/41/37/39 40/44/40/42 
f 44/52/44/50 40/44/40/42 45/53/45/51 
f 84/104/84/102 85/105/85/103 116/163/116/162 
f 84/104/84/102 116/163/116/162 117/164/117/163 
f 85/123/85/117 70/90/70/88 72/92/72/90 
f 85/123/85/117 72/92/72/90 116/165/116/164 
f 2/2/2/7 1/1/1/7 107/166/107/165 
f 8/8/8/1 7/7/7/1 115/162/115/161 
f 8/8/8/1 115/162/115/161 103/148/103/140 
f 24/24/24/144 23/23/23/148 109/155/109/151 
f 24/24/24/144 109/155/109/151 105/151/105/145 
f 88/108/88/7 87/107/87/7 118/167/118/166 
f 88/108/88/7 118/167/118/166 119/168/119/167 
f 91/121/91/1 88/120/88/1 119/169/119/168 
f 91/121/91/1 119/169/119/168 112/158/112/156 
f 120/3/120/169 121/5/121/170 4/4/4/171 
f 120/3/120/169 4/4/4/171 122/0/122/172 
f 4/4/4/171 2/2/2/173 123/1/123/174 
f 4/4/4/171 123/1/123/174 122/0/122/172 
f 124/6/124/175 120/3/120/169 122/0/122/172 
f 125/9/125/176 126/8/126/177 127/7/127/177 
f 125/9/125/176 127/7/127/177 128/10/128/178 
f 129/13/129/179 130/12/130/180 131/11/131/181 
f 129/13/129/179 131/11/131/181 132/14/132/182 
f 133/15/133/183 18/18/18/184 17/17/17/185 
f 133/15/133/183 17/17/17/185 134/16/134/186 
f 135/21/135/187 136/20/136/188 137/19/137/189 
f 135/21/135/187 137/19/137/189 138/22/138/190 
f 139/25/139/191 140/24/140/177 141/23/141/177 
f 139/25/139/191 141/23/141/177 142/26/142/192 
f 143/29/143/193 144/28/144/194 145/27/145/195 
f 143/29/143/193 145/27/145/195 146/30/146/196 
f 147/31/147/197 34/34/34/198 33/33/33/199 
f 147/31/147/197 33/33/33/199 148/32/148/200 
f 129/13/129/179 149/36/149/201 150/35/150/202 
f 129/13/129/179 150/35/150/202 130/12/130/180 
f 33/37/33/199 18/18/18/184 133/15/133/183 
f 33/37/33/199 133/15/133/183 148/38/148/203 
f 149/39/149/204 135/21/135/187 138/22/138/190 
f 149/39/149/204 138/22/138/190 150/40/150/205 
f 151/41/151/206 40/44/40/207 39/43/39/208 
f 151/41/151/206 39/43/39/208 152/42/152/209 
f 143/29/143/193 153/46/153/210 154/45/154/211 
f 143/29/143/193 154/45/154/211 144/28/144/194 
f 39/43/39/208 4/48/4/212 121/47/121/170 
f 39/43/39/208 121/47/121/170 152/42/152/209 
f 153/46/153/210 120/50/120/213 124/49/124/214 
f 153/46/153/210 124/49/124/214 154/45/154/211 
f 155/51/155/215 46/54/46/216 45/53/45/217 
f 155/51/155/215 45/53/45/217 156/52/156/218 
f 157/55/157/219 146/30/146/196 145/27/145/195 
f 157/55/157/219 145/27/145/195 158/56/158/220 
f 134/16/134/186 17/17/17/185 46/54/46/216 
f 134/16/134/186 46/54/46/216 155/51/155/215 
f 136/20/136/188 157/55/157/219 158/56/158/220 
f 136/20/136/188 158/56/158/220 137/19/137/189 
f 159/57/159/221 158/56/158/220 145/27/145/195 
f 159/57/159/221 145/27/145/195 142/58/142/222 
f 147/31/147/197 129/13/129/179 132/14/132/182 
f 147/31/147/197 132/14/132/182 160/59/160/223 
f 128/10/128/178 131/11/131/181 130/12/130/180 
f 128/10/128/178 130/12/130/180 125/9/125/176 
f 134/60/134/224 136/20/136/188 135/21/135/187 
f 134/60/134/224 135/21/135/187 133/61/133/225 
f 144/28/144/194 139/62/139/226 142/58/142/222 
f 144/28/144/194 142/58/142/222 145/27/145/195 
f 151/63/151/227 143/29/143/193 146/30/146/196 
f 151/63/151/227 146/30/146/196 156/64/156/228 
f 161/65/161/229 150/40/150/205 138/22/138/190 
f 161/65/161/229 138/22/138/190 162/66/162/230 
f 149/39/149/204 148/67/148/231 133/61/133/225 
f 149/39/149/204 133/61/133/225 135/21/135/187 
f 125/9/125/176 130/12/130/180 150/35/150/202 
f 125/9/125/176 150/35/150/202 161/68/161/232 
f 129/13/129/179 147/31/147/197 148/32/148/200 
f 129/13/129/179 148/32/148/200 149/36/149/201 
f 154/45/154/211 163/69/163/233 139/62/139/226 
f 154/45/154/211 139/62/139/226 144/28/144/194 
f 152/70/152/234 153/46/153/210 143/29/143/193 
f 152/70/152/234 143/29/143/193 151/63/151/227 
f 124/49/124/214 122/71/122/235 163/69/163/233 
f 124/49/124/214 163/69/163/233 154/45/154/211 
f 121/72/121/236 120/50/120/213 153/46/153/210 
f 121/72/121/236 153/46/153/210 152/70/152/234 
f 162/66/162/230 138/22/138/190 137/19/137/189 
f 162/66/162/230 137/19/137/189 164/73/164/237 
f 156/64/156/228 146/30/146/196 157/55/157/219 
f 156/64/156/228 157/55/157/219 155/74/155/238 
f 158/56/158/220 159/57/159/221 164/73/164/237 
f 158/56/158/220 164/73/164/237 137/19/137/189 
f 155/74/155/238 157/55/157/219 136/20/136/188 
f 155/74/155/238 136/20/136/188 134/60/134/224 
f 165/77/165/239 166/76/166/240 167/75/167/241 
f 165/77/165/239 167/75/167/241 168/78/168/242 
f 166/76/166/240 169/80/169/243 170/79/170/244 
f 166/76/166/240 170/79/170/244 167/75/167/241 
f 170/79/170/244 169/80/169/243 62/82/62/245 
f 170/79/170/244 62/82/62/245 61/81/61/246 
f 171/83/171/247 165/77/165/239 168/78/168/242 
f 171/83/171/247 168/78/168/242 172/84/172/248 
f 173/87/173/249 174/86/174/250 175/85/175/251 
f 173/87/173/249 175/85/175/251 176/88/176/252 
f 174/86/174/250 177/90/177/253 178/89/178/254 
f 174/86/174/250 178/89/178/254 175/85/175/251 
f 177/90/177/253 72/92/72/255 71/91/71/256 
f 177/90/177/253 71/91/71/256 178/89/178/254 
f 179/93/179/257 173/87/173/249 176/88/176/252 
f 179/93/179/257 176/88/176/252 180/94/180/258 
f 167/75/167/241 181/96/181/259 182/95/182/260 
f 167/75/167/241 182/95/182/260 168/78/168/242 
f 170/79/170/244 61/81/61/246 78/98/78/261 
f 170/79/170/244 78/98/78/261 183/97/183/262 
f 168/78/168/242 182/95/182/260 184/99/184/263 
f 168/78/168/242 184/99/184/263 172/84/172/248 
f 170/79/170/244 183/97/183/262 181/96/181/259 
f 170/79/170/244 181/96/181/259 167/75/167/241 
f 185/102/185/264 186/101/186/265 187/100/187/266 
f 185/102/185/264 187/100/187/266 188/103/188/267 
f 188/103/188/267 187/100/187/266 189/104/189/268 
f 188/103/188/267 189/104/189/268 190/105/190/269 
f 191/108/191/270 192/107/192/271 193/106/193/272 
f 191/108/191/270 193/106/193/272 194/109/194/273 
f 194/109/194/273 193/106/193/272 186/101/186/265 
f 194/109/194/273 186/101/186/265 185/102/185/264 
f 181/110/181/274 132/14/132/182 131/11/131/181 
f 181/110/181/274 131/11/131/181 182/111/182/275 
f 78/113/78/276 90/112/90/277 160/59/160/223 
f 78/113/78/276 160/59/160/223 183/114/183/278 
f 182/111/182/275 131/11/131/181 128/10/128/178 
f 182/111/182/275 128/10/128/178 184/115/184/279 
f 183/114/183/278 160/59/160/223 132/14/132/182 
f 183/114/183/278 132/14/132/182 181/110/181/274 
f 176/88/176/252 175/85/175/251 166/76/166/240 
f 176/88/176/252 166/76/166/240 165/77/165/239 
f 175/85/175/251 178/89/178/254 169/80/169/243 
f 175/85/175/251 169/80/169/243 166/76/166/240 
f 169/80/169/243 178/89/178/254 71/91/71/256 
f 169/80/169/243 71/91/71/256 62/82/62/245 
f 180/94/180/258 176/88/176/252 165/77/165/239 
f 180/94/180/258 165/77/165/239 171/83/171/247 
f 174/86/174/250 173/87/173/249 185/116/185/280 
f 174/86/174/250 185/116/185/280 188/117/188/281 
f 173/87/173/249 179/93/179/257 194/118/194/282 
f 173/87/173/249 194/118/194/282 185/116/185/280 
f 194/119/194/283 179/122/179/284 195/121/195/285 
f 194/119/194/283 195/121/195/285 191/120/191/286 
f 177/90/177/253 174/86/174/250 188/117/188/281 
f 177/90/177/253 188/117/188/281 190/123/190/287 
f 196/124/196/288 197/127/197/177 162/126/162/289 
f 196/124/196/288 162/126/162/289 164/125/164/290 
f 198/128/198/291 126/8/126/177 125/9/125/176 
f 198/128/198/291 125/9/125/176 161/68/161/232 
f 198/130/198/177 161/129/161/292 162/126/162/289 
f 198/130/198/177 162/126/162/289 197/127/197/177 
f 199/131/199/177 140/24/140/177 139/25/139/191 
f 199/131/199/177 139/25/139/191 163/132/163/293 
f 199/131/199/177 163/132/163/293 122/133/122/294 
f 199/131/199/177 122/133/122/294 123/134/123/295 
f 141/23/141/177 200/136/200/296 159/135/159/297 
f 141/23/141/177 159/135/159/297 142/26/142/192 
f 200/136/200/296 196/124/196/288 164/125/164/290 
f 200/136/200/296 164/125/164/290 159/135/159/297 
f 201/139/201/298 171/138/171/299 172/137/172/300 
f 201/139/201/298 172/137/172/300 202/140/202/301 
f 195/121/195/285 179/122/179/284 180/141/180/302 
f 195/121/195/285 180/141/180/302 203/142/203/303 
f 204/143/204/304 202/140/202/301 172/137/172/300 
f 204/143/204/304 172/137/172/300 184/144/184/305 
f 204/145/204/177 184/115/184/279 128/10/128/178 
f 204/145/204/177 128/10/128/178 127/7/127/177 
f 203/142/203/303 180/141/180/302 171/138/171/299 
f 203/142/203/303 171/138/171/299 201/139/201/298 
f 196/124/196/306 102/147/102/307 101/146/101/308 
f 196/124/196/306 101/146/101/308 197/127/197/271 
f 198/128/198/309 104/149/104/310 103/148/103/311 
f 198/128/198/309 103/148/103/311 126/8/126/271 
f 101/146/101/308 104/150/104/312 198/130/198/271 
f 101/146/101/308 198/130/198/271 197/127/197/271 
f 199/131/199/271 106/152/106/313 105/151/105/314 
f 199/131/199/271 105/151/105/314 140/24/140/271 
f 107/153/107/315 106/152/106/313 199/131/199/271 
f 107/153/107/315 199/131/199/271 123/134/123/316 
f 141/23/141/271 109/155/109/317 108/154/108/318 
f 141/23/141/271 108/154/108/318 200/136/200/319 
f 200/136/200/319 108/154/108/318 102/147/102/307 
f 200/136/200/319 102/147/102/307 196/124/196/306 
f 111/157/111/320 110/156/110/321 201/139/201/322 
f 111/157/111/320 201/139/201/322 202/140/202/323 
f 113/159/113/324 112/158/112/325 195/121/195/326 
f 113/159/113/324 195/121/195/326 203/142/203/327 
f 204/143/204/328 114/160/114/329 111/157/111/320 
f 204/143/204/328 111/157/111/320 202/140/202/323 
f 115/162/115/330 114/161/114/329 204/145/204/271 
f 115/162/115/330 204/145/204/271 127/7/127/271 
f 110/156/110/321 113/159/113/324 203/142/203/327 
f 110/156/110/321 203/142/203/327 201/139/201/322 
f 34/34/34/198 147/31/147/197 160/59/160/223 
f 34/34/34/198 160/59/160/223 90/112/90/277 
f 40/44/40/207 151/41/151/206 156/52/156/218 
f 40/44/40/207 156/52/156/218 45/53/45/217 
f 116/163/116/331 190/105/190/269 189/104/189/268 
f 116/163/116/331 189/104/189/268 117/164/117/332 
f 72/92/72/255 177/90/177/253 190/123/190/287 
f 72/92/72/255 190/123/190/287 116/165/116/333 
f 2/2/2/334 107/166/107/335 123/1/123/295 
f 115/162/115/330 127/7/127/271 126/8/126/271 
f 115/162/115/330 126/8/126/271 103/148/103/311 
f 109/155/109/317 141/23/141/271 140/24/140/271 
f 109/155/109/317 140/24/140/271 105/151/105/314 
f 118/167/118/336 192/107/192/337 191/108/191/338 
f 118/167/118/336 191/108/191/338 119/168/119/339 
f 119/169/119/340 191/120/191/341 195/121/195/326 
f 119/169/119/340 195/121/195/326 112/158/112/325 
