v 913.3156 186.5209 569.3782
v 914.2369 192.9853 568.5563
v 914.2369 192.9853 575.488
v 913.3156 186.5209 575.488
v 845.5257 192.9853 567.8701
v 913.4224 192.9853 567.8701
v 912.4467 186.5209 568.6462
v 846.5013 186.5209 568.6462
v 838.4755 208.8855 561.9177
v 838.5174 213.2486 561.9177
v 920.4302 213.2486 561.9177
v 920.4721 208.8855 561.9177
v 837.6443 208.8855 575.488
v 837.6443 213.2486 575.488
v 837.6443 213.2486 562.6531
v 837.6443 208.8855 562.6179
v 912.6396 182.6522 569.9614
v 915.2466 184.5865 567.8377
v 915.2466 184.5865 575.488
v 912.6396 182.6522 575.488
v 844.6725 184.5865 567.0196
v 914.2755 184.5865 567.0196
v 911.7541 182.6522 569.2156
v 847.1937 182.6522 569.2156
v 921.303 213.2486 562.6531
v 923.7315 215.4301 560.6855
v 923.7315 215.4301 575.488
v 921.303 213.2486 575.488
v 836.1815 215.4301 559.8723
v 922.7661 215.4301 559.8723
v 921.303 217.6116 562.7308
v 921.303 217.6116 575.488
v 838.6098 217.6116 561.9177
v 920.3381 217.6116 561.9177
v 917.3571 201.9842 565.9556
v 921.303 208.8855 562.6179
v 921.303 208.8855 575.488
v 917.3571 201.9842 575.488
v 916.5101 201.9842 565.2416
v 842.4379 201.9842 565.2416
v 845.6324 186.5209 569.3782
v 844.7108 192.9853 568.5563
v 843.7014 184.5865 567.8377
v 846.3082 182.6522 569.9614
v 835.2162 215.4301 560.6855
v 837.6443 217.6116 562.7308
v 841.5905 201.9842 565.9556
v 837.6443 217.6116 575.488
v 844.7108 192.9853 575.488
v 845.6324 186.5209 575.488
v 843.7011 184.5865 575.488
v 846.308 182.6522 575.488
v 835.2162 215.4301 575.488
v 841.5906 201.9842 575.488
gi 0 0 0 0
gi 0 0 0 0
gi 0 0 0 0
gi 0 0 0 0
gi 0 0 0 0
gi 0 0 0 0
gi 0 0 0 0
gi 0 0 0 0
gi 0 0 0 0
gi 0 0 0 0
gi 0 0 0 0
gi 0 0 0 0
gi 0 0 0 0
gi 0 0 0 0
gi 0 0 0 0
gi 0 0 0 0
gi 0 0 0 0
gi 0 0 0 0
gi 0 0 0 0
gi 0 0 0 0
gi 0 0 0 0
gi 0 0 0 0
gi 0 0 0 0
gi 0 0 0 0
gi 0 0 0 0
gi 0 0 0 0
gi 0 0 0 0
gi 0 0 0 0
gi 0 0 0 0
gi 0 0 0 0
gi 0 0 0 0
gi 0 0 0 0
gi 0 0 0 0
gi 0 0 0 0
gi 0 0 0 0
gi 0 0 0 0
gi 0 0 0 0
gi 0 0 0 0
gi 0 0 0 0
gi 0 0 0 0
gi 0 0 0 0
gi 0 0 0 0
gi 0 0 0 0
gi 0 0 0 0
gi 0 0 0 0
gi 0 0 0 0
gi 0 0 0 0
gi 0 0 0 0
gi 0 0 0 0
gi 0 0 0 0
gi 0 0 0 0
gi 0 0 0 0
gi 0 0 0 0
gi 0 0 0 0
gw 0.0 0.0 0.0 0.0
gw 0.0 0.0 0.0 0.0
gw 0.0 0.0 0.0 0.0
gw 0.0 0.0 0.0 0.0
gw 0.0 0.0 0.0 0.0
gw 0.0 0.0 0.0 0.0
gw 0.0 0.0 0.0 0.0
gw 0.0 0.0 0.0 0.0
gw 0.0 0.0 0.0 0.0
gw 0.0 0.0 0.0 0.0
gw 0.0 0.0 0.0 0.0
gw 0.0 0.0 0.0 0.0
gw 0.0 0.0 0.0 0.0
gw 0.0 0.0 0.0 0.0
gw 0.0 0.0 0.0 0.0
gw 0.0 0.0 0.0 0.0
gw 0.0 0.0 0.0 0.0
gw 0.0 0.0 0.0 0.0
gw 0.0 0.0 0.0 0.0
gw 0.0 0.0 0.0 0.0
gw 0.0 0.0 0.0 0.0
gw 0.0 0.0 0.0 0.0
gw 0.0 0.0 0.0 0.0
gw 0.0 0.0 0.0 0.0
gw 0.0 0.0 0.0 0.0
gw 0.0 0.0 0.0 0.0
gw 0.0 0.0 0.0 0.0
gw 0.0 0.0 0.0 0.0
gw 0.0 0.0 0.0 0.0
gw 0.0 0.0 0.0 0.0
gw 0.0 0.0 0.0 0.0
gw 0.0 0.0 0.0 0.0
gw 0.0 0.0 0.0 0.0
gw 0.0 0.0 0.0 0.0
gw 0.0 0.0 0.0 0.0
gw 0.0 0.0 0.0 0.0
gw 0.0 0.0 0.0 0.0
gw 0.0 0.0 0.0 0.0
gw 0.0 0.0 0.0 0.0
gw 0.0 0.0 0.0 0.0
gw 0.0 0.0 0.0 0.0
gw 0.0 0.0 0.0 0.0
gw 0.0 0.0 0.0 0.0
gw 0.0 0.0 0.0 0.0
gw 0.0 0.0 0.0 0.0
gw 0.0 0.0 0.0 0.0
gw 0.0 0.0 0.0 0.0
gw 0.0 0.0 0.0 0.0
gw 0.0 0.0 0.0 0.0
gw 0.0 0.0 0.0 0.0
gw 0.0 0.0 0.0 0.0
gw 0.0 0.0 0.0 0.0
gw 0.0 0.0 0.0 0.0
gw 0.0 0.0 0.0 0.0
vt 0.2773 0.6742
vt 0.2773 0.6911
vt 0.4476 0.6911
vt 0.4476 0.6742
vt 0.4453 0.6933
vt 0.2795 0.6933
vt 0.5504 0.8881
vt 0.5526 0.9084
vt 0.5337 0.9084
vt 0.5337 0.8881
vt 0.7614 0.91
vt 0.6053 0.91
vt 0.6076 0.8897
vt 0.7592 0.8897
vt 0.7776 0.96
vt 0.7775 0.9737
vt 0.5892 0.9737
vt 0.5891 0.96
vt 0.8287 0.9596
vt 0.8287 0.9733
vt 0.7937 0.9733
vt 0.7936 0.9596
vt 0.9865 0.7672
vt 0.9959 0.7791
vt 0.9632 0.7791
vt 0.9619 0.7672
vt 0.2524 0.779
vt 0.0111 0.779
vt 0.0112 0.7672
vt 0.2525 0.7672
vt 0.5337 0.882
vt 0.5546 0.882
vt 0.6034 0.8836
vt 0.7634 0.8836
vt 0.5687 0.9721
vt 0.5741 0.979
vt 0.5337 0.979
vt 0.5337 0.9721
vt 0.7829 0.9806
vt 0.5839 0.9806
vt 0.5685 0.9859
vt 0.5337 0.9859
vt 0.7773 0.9875
vt 0.5894 0.9875
vt 0.5597 0.9367
vt 0.5688 0.9584
vt 0.5337 0.9584
vt 0.5337 0.9367
vt 0.5982 0.9383
vt 0.7685 0.9383
vt 0.605 0.8907
vt 0.6028 0.9094
vt 0.8121 0.8892
vt 0.8098 0.9096
vt 0.8073 0.909
vt 0.8095 0.8902
vt 0.5867 0.9726
vt 0.5865 0.9593
vt 0.7912 0.9721
vt 0.791 0.9589
vt 0.6007 0.8862
vt 0.8052 0.8857
vt 0.8079 0.8832
vt 0.0078 0.7789
vt 0.0079 0.7672
vt 0.2558 0.7672
vt 0.2559 0.779
vt 0.5815 0.9806
vt 0.7884 0.9801
vt 0.786 0.9801
vt 0.5871 0.99
vt 0.7939 0.987
vt 0.7916 0.9896
vt 0.5957 0.9372
vt 0.8027 0.9379
vt 0.8002 0.9367
vt 0.0091 0.8976
vt 0.0091 0.876
vt 0.0109 0.8746
vt 0.1674 0.876
vt 0.1655 0.8746
vt 0.1674 0.8976
vt 0.8287 0.9096
vt 0.8287 0.8892
vt 0.2874 0.779
vt 0.2803 0.7672
vt 0.8287 0.8832
vt 0.8287 0.9801
vt 0.8287 0.987
vt 0.8287 0.9379
vn 0.0 -1.0 0.0
vn 0.0 -1.0 0.0
vn 0.8468 0.3982 -0.3527
vn 0.8696 -0.2994 -0.3927
vn 0.9719 -0.2354 0.0
vn 0.9488 0.316 0.0
vn -0.3159 -0.267 -0.9105
vn 0.316 -0.267 -0.9104
vn 0.2666 0.3533 -0.8967
vn -0.2666 0.3533 -0.8967
vn -0.3526 -0.273 -0.8951
vn -0.261 -0.4551 -0.8513
vn 0.2611 -0.4551 -0.8513
vn 0.3527 -0.273 -0.895
vn -0.9665 -0.2568 0.0
vn -0.9133 -0.4072 0.0
vn -0.7937 -0.5075 -0.3354
vn -0.8625 -0.2861 -0.4175
vn 0.3165 -0.9416 -0.1148
vn 0.8873 -0.0594 -0.4573
vn 0.9973 -0.0739 0.0
vn 0.3139 -0.9495 -0.0
vn -0.4075 -0.0637 -0.911
vn 0.4075 -0.0637 -0.911
vn 0.0808 -0.9309 -0.3563
vn -0.0808 -0.9309 -0.3563
vn 0.7937 -0.5075 -0.3353
vn 0.8879 0.0024 -0.46
vn 1.0 -0.0 0.0
vn 0.9133 -0.4073 0.0
vn -0.41 0.0031 -0.9121
vn 0.41 0.0031 -0.9121
vn 0.3607 0.9234 -0.1314
vn 0.3578 0.9338 0.0
vn -0.0931 0.9113 -0.4011
vn 0.0932 0.9113 -0.4011
vn 0.789 -0.5056 -0.3491
vn 0.8625 -0.2861 -0.4174
vn 0.9665 -0.2568 0.0
vn 0.9104 -0.4138 0.0
vn 0.2851 -0.4587 -0.8416
vn -0.285 -0.4587 -0.8417
vn -0.8468 0.3982 -0.3527
vn -0.8695 -0.2994 -0.3928
vn -0.8873 -0.0594 -0.4574
vn -0.3165 -0.9416 -0.1148
vn -0.8879 0.0024 -0.46
vn -0.3607 0.9234 -0.1314
vn -0.7889 -0.5056 -0.3492
vn -0.3579 0.9338 0.0
vn -0.9719 -0.2354 0.0
vn -0.9488 0.316 0.0
vn -0.9973 -0.0739 -0.0
vn -0.3139 -0.9494 -0.0
vn -1.0 -0.0 0.0
vn -0.9104 -0.4138 0.0
vtan 1.0 0.0 0.0
vtan -0.3192 -0.1501 -0.9357
vtan -0.3713 0.1278 -0.9197
vtan 0.0 0.0 -1.0
vtan -0.9488 0.0889 0.3031
vtan -0.9487 -0.0814 -0.3054
vtan -0.9636 0.1184 -0.2398
vtan -0.9638 -0.0977 0.248
vtan -0.9358 0.1029 0.3373
vtan -0.9653 0.123 0.2302
vtan -0.9653 -0.1314 -0.2258
vtan -0.9356 -0.1211 -0.3317
vtan 0.0 -0.0 1.0
vtan 0.0 0.0 1.0
vtan -0.3115 -0.1345 0.9407
vtan -0.3991 -0.1228 0.9086
vtan -0.0366 0.1089 -0.9934
vtan -0.4563 0.0306 -0.8893
vtan -0.0 0.0 -1.0
vtan -0.9127 -0.0038 0.4086
vtan -0.9129 -0.0043 -0.4081
vtan -0.9654 0.0158 -0.2602
vtan -0.9654 -0.0158 0.2602
vtan -0.4563 0.0306 -0.8893
vtan -0.8696 0.2776 -0.4084
vtan -0.9132 0.0284 0.4065
vtan -0.2825 0.1806 -0.9421
vtan -0.46 -0.0013 -0.8879
vtan -0.9121 -0.0014 0.41
vtan -0.912 0.0144 -0.4099
vtan -0.0478 -0.1224 -0.9913
vtan -0.9957 -0.0852 0.0375
vtan -0.9943 0.1058 0.0093
vtan -0.294 0.1884 -0.9371
vtan -0.3962 0.1314 -0.9087
vtan -0.9584 -0.1461 -0.245
vtan -0.9585 0.1364 0.2502
vtan -0.5241 0.5117 -0.6808
vtan -0.4809 -0.333 -0.8111
vtan -0.3085 0.1727 0.9354
vtan -0.3813 -0.0985 0.9192
vtan -0.8847 -0.2637 0.3843
vtan -0.7449 0.5148 0.4243
vtan -0.5813 -0.4707 -0.6637
vtan -0.4982 -0.3355 -0.7995
vtan -0.7298 -0.4843 0.4826
vtan -0.8471 -0.3134 0.4293
vtan -0.2649 0.7461 -0.6109
vtan -0.7296 0.6226 0.2829
vtan -0.4544 0.2823 0.8449
vtan -0.4599 -0.0404 -0.8871
vtan -0.7248 -0.1619 -0.6696
vtan -0.3739 0.0126 0.9274
vtan -0.4583 0.0028 0.8888
vtan -0.46 0.001 -0.8879
vtan -0.46 -0.0001 0.8879
vtan -0.9115 0.0329 0.4099
vtan -0.9269 0.3392 -0.1603
vtan -0.121 0.0934 0.9882
vtan -0.1958 0.3782 0.9048
vtan -0.5958 -0.4907 -0.6358
vtan -0.3067 -0.1684 0.9368
vtan -0.7111 -0.4876 0.5065
vtan -0.9338 0.3578 0.0005
vtan -0.9326 0.3591 -0.0359
vtan -0.9956 0.087 -0.0338
vtan -0.9327 -0.3571 0.0508
vtan -0.9338 -0.3579 0.0
vtan -0.0 0.0 1.0
vtan -0.0001 -0.0 1.0
vtan -0.0 -0.0 1.0
vtan 0.0 -0.0 1.0
f 51/0/0/0 43/1/0/0 16/2/0/0 
f 51/0/0/0 16/2/0/0 19/3/0/0 
f 22/4/0/0 16/2/0/0 43/1/0/0 
f 22/4/1/0 43/1/1/0 23/5/1/0 
f 0/6/2/1 1/7/3/2 2/8/4/3 
f 0/6/2/1 2/8/4/3 3/9/5/3 
f 4/10/6/4 5/11/7/5 6/12/8/6 
f 4/10/6/4 6/12/8/6 7/13/9/7 
f 8/14/10/8 9/15/11/9 10/16/12/10 
f 8/14/10/8 10/16/12/10 11/17/13/11 
f 12/18/14/12 13/19/15/13 14/20/16/14 
f 12/18/14/12 14/20/16/14 15/21/17/15 
f 16/22/18/16 17/23/19/17 18/24/20/3 
f 16/22/18/16 18/24/20/3 19/25/21/18 
f 20/26/22/19 21/27/23/20 22/28/24/21 
f 20/26/22/19 22/28/24/21 23/29/25/22 
f 0/6/2/1 3/9/5/3 18/30/20/3 
f 0/6/2/1 18/30/20/3 17/31/19/23 
f 7/13/9/7 6/12/8/6 21/32/23/24 
f 7/13/9/7 21/32/23/24 20/33/22/25 
f 24/34/26/26 25/35/27/27 26/36/28/3 
f 24/34/26/26 26/36/28/3 27/37/29/3 
f 28/38/30/28 29/39/31/29 10/16/12/10 
f 28/38/30/28 10/16/12/10 9/15/11/9 
f 30/40/32/30 31/41/33/3 26/36/28/3 
f 30/40/32/30 26/36/28/3 25/35/27/27 
f 32/42/34/31 33/43/35/32 29/39/31/29 
f 32/42/34/31 29/39/31/29 28/38/30/28 
f 34/44/36/33 35/45/37/34 36/46/38/3 
f 34/44/36/33 36/46/38/3 37/47/39/3 
f 8/14/10/8 11/17/13/11 38/48/40/35 
f 8/14/10/8 38/48/40/35 39/49/41/36 
f 1/7/3/2 34/44/36/33 37/47/39/3 
f 1/7/3/2 37/47/39/3 2/8/4/3 
f 39/49/41/36 38/48/40/35 5/11/7/5 
f 39/49/41/36 5/11/7/5 4/10/6/4 
f 0/50/2/37 6/12/8/6 5/11/7/5 
f 0/50/2/37 5/11/7/5 1/51/3/38 
f 40/52/42/39 41/53/43/40 4/54/6/41 
f 40/52/42/39 4/54/6/41 7/55/9/42 
f 11/17/13/11 10/16/12/10 24/56/26/43 
f 11/17/13/11 24/56/26/43 35/57/37/44 
f 15/21/17/15 14/20/16/14 9/58/11/45 
f 15/21/17/15 9/58/11/45 8/59/10/46 
f 0/50/2/37 17/60/19/47 21/32/23/24 
f 0/50/2/37 21/32/23/24 6/12/8/6 
f 40/52/42/39 7/55/9/42 20/61/22/48 
f 40/52/42/39 20/61/22/48 42/62/44/49 
f 21/27/23/20 17/63/19/50 16/64/18/51 
f 21/27/23/20 16/64/18/51 22/28/24/21 
f 20/26/22/19 23/29/25/22 43/65/45/52 
f 20/26/22/19 43/65/45/52 42/66/44/53 
f 24/56/26/43 10/16/12/10 29/39/31/29 
f 24/56/26/43 29/39/31/29 25/67/27/54 
f 14/20/16/14 44/68/46/55 28/69/30/56 
f 14/20/16/14 28/69/30/56 9/58/11/45 
f 29/39/31/29 33/43/35/32 30/70/32/57 
f 29/39/31/29 30/70/32/57 25/67/27/54 
f 28/69/30/56 44/68/46/55 45/71/47/58 
f 28/69/30/56 45/71/47/58 32/72/34/59 
f 34/73/36/60 38/48/40/35 11/17/13/11 
f 34/73/36/60 11/17/13/11 35/57/37/44 
f 46/74/48/61 15/21/17/15 8/59/10/46 
f 46/74/48/61 8/59/10/46 39/75/41/62 
f 1/51/3/38 5/11/7/5 38/48/40/35 
f 1/51/3/38 38/48/40/35 34/73/36/60 
f 41/53/43/40 46/74/48/61 39/75/41/62 
f 41/53/43/40 39/75/41/62 4/54/6/41 
f 31/76/33/63 30/77/32/64 33/78/35/65 
f 31/76/33/63 33/78/35/65 45/79/47/66 
f 33/78/35/65 32/80/34/31 45/79/47/66 
f 47/81/49/67 31/76/33/63 45/79/47/66 
f 48/82/50/13 41/53/43/40 40/52/42/39 
f 48/82/50/13 40/52/42/39 49/83/51/13 
f 36/46/38/3 35/45/37/34 24/34/26/26 
f 36/46/38/3 24/34/26/26 27/37/29/3 
f 50/84/52/68 42/66/44/53 43/65/45/52 
f 50/84/52/68 43/65/45/52 51/85/53/69 
f 50/86/52/70 49/83/51/13 40/52/42/39 
f 50/86/52/70 40/52/42/39 42/62/44/49 
f 52/87/54/13 44/68/46/55 14/20/16/14 
f 52/87/54/13 14/20/16/14 13/19/15/13 
f 52/87/54/13 47/88/49/13 45/71/47/58 
f 52/87/54/13 45/71/47/58 44/68/46/55 
f 12/18/14/12 15/21/17/15 46/74/48/61 
f 12/18/14/12 46/74/48/61 53/89/55/71 
f 53/89/55/71 46/74/48/61 41/53/43/40 
f 53/89/55/71 41/53/43/40 48/82/50/13 
