v -947.9556 220.9971 169.7368
v -980.342 220.9971 169.7368
v -1003.6387 220.997 193.0334
v -1003.6387 220.9971 246.6149
v -947.9556 220.9971 246.6149
v -947.9556 212.9781 246.6149
v -1003.6387 212.9781 246.6149
v -1003.6387 207.888 246.6149
v -947.9556 207.888 246.6149
v -947.9556 212.9782 169.7368
v -947.9556 207.888 169.7368
v -950.4404 204.0865 244.4246
v -950.4404 204.0866 171.9271
v -982.5325 204.0866 171.9272
v -980.342 207.888 169.7368
v -956.7197 201.1721 238.889
v -956.7197 201.1721 177.4627
v -1003.6387 204.0865 244.4246
v -1003.6387 201.1721 238.889
v -979.6602 186.6513 182.1163
v -962.4951 186.6513 197.2232
v -962.4951 -2.4607 197.2232
v -979.6602 -2.4607 182.1163
v -962.4951 186.6513 218.5877
v -962.4951 -2.4607 218.5877
v -979.6602 186.6513 233.6947
v -979.6602 -2.4607 233.6947
v -1003.6387 186.6513 233.6947
v -1003.6387 -2.4607 233.6947
v -978.9189 192.5001 180.5418
v -960.7061 192.5001 196.5711
v -962.4951 191.226 197.2232
v -979.6602 191.226 182.1163
v -960.7061 192.5001 219.2399
v -962.4951 191.226 218.5877
v -978.9189 192.5001 235.2692
v -979.6602 191.226 233.6947
v -1003.6387 192.5001 235.2692
v -1003.6387 191.226 233.6947
v -978.6033 199.2604 179.8707
v -959.9436 199.2604 196.2931
v -961.9438 196.3225 197.0224
v -979.4316 196.3225 181.6313
v -959.9436 199.2604 219.5179
v -961.9438 196.3225 218.7886
v -978.6033 199.2604 235.9403
v -979.4316 196.3224 234.1796
v -1003.6387 199.2604 235.9403
v -1003.6387 196.3224 234.1796
v -990.4761 199.2604 179.8707
v -988.0679 201.1721 177.4627
v -992.7217 186.6513 182.1163
v -990.2266 188.9386 179.6212
v -978.4858 188.9387 179.6212
v -959.6599 188.9387 196.1897
v -959.6599 188.9387 219.6212
v -978.4858 188.9387 236.1898
v -992.7217 191.226 182.1163
v -992.0979 193.7742 181.4925
v -992.2366 196.3225 181.6314
v -979.3662 193.7742 181.4925
v -961.7864 193.7742 196.9649
v -961.7864 193.7742 218.8461
v -979.3662 193.7742 234.3185
v -991.147 192.5001 180.5418
v -949.0105 215.2093 245.6863
v -1003.6387 215.2093 245.6863
v -1003.6387 212.9781 245.6863
v -949.0105 212.9781 245.6863
v -949.0105 215.2093 170.6654
v -949.0105 212.9782 170.6654
v -980.342 215.2093 169.7368
v -947.9556 215.2093 169.7368
v -947.9556 215.2093 246.6149
v -981.2708 215.2093 170.6654
v -1003.6387 188.9386 236.1898
v -1003.6387 193.7742 234.3185
v -1003.6387 215.2093 246.6149
v -1027.6174 186.6513 233.6947
v -1027.6174 -2.4607 233.6947
v -1027.6174 191.226 233.6947
v -1028.3586 192.5001 235.2692
v -1027.8457 196.3224 234.1796
v -1028.6743 199.2604 235.9403
v -1028.7915 188.9387 236.1898
v -1038.3674 188.9387 227.7621
v -1036.4907 186.6513 225.8853
v -1036.4907 191.226 225.8853
v -1036.8555 196.3225 226.2502
v -1036.96 193.7742 226.3546
v -1027.9111 193.7742 234.3185
v -1037.675 192.5001 227.0697
v -1057.2202 207.888 246.6149
v -1055.0298 204.0865 244.4245
v -1049.4944 201.1721 238.889
v -1049.3286 201.0647 238.7234
v -1057.2202 220.9971 246.6149
v -1057.2202 215.2093 246.6149
v -1056.2915 215.2093 245.6863
v -980.342 212.9782 169.7368
v -992.7217 -2.4607 182.1163
v -981.2708 212.9782 170.6654
v -1057.2202 212.9781 246.6149
v -1036.4907 -2.4607 225.8853
v -1038.1797 199.2604 227.5744
v -1056.2915 212.9781 245.6863
v -980.342 220.9971 137.3503
v -1057.2202 220.9971 193.0335
v -1057.2202 220.9971 137.3504
v -1057.2202 207.888 193.0335
v -1057.2202 212.9782 193.0335
v -1057.2202 212.9782 137.3504
v -1057.2202 207.888 137.3504
v -980.342 212.9782 137.3503
v -980.342 207.888 137.3503
v -982.5325 204.0866 139.8351
v -1055.0298 204.0866 139.8351
v -988.0679 201.1721 146.1145
v -1049.4944 201.1721 146.1145
v -1049.4944 201.1721 193.0335
v -1055.0298 204.0866 193.0335
v -1007.8286 -2.4607 151.8897
v -1007.8286 186.6513 151.8897
v -992.7217 186.6513 169.0548
v -992.7217 -2.4607 169.0548
v -1029.1931 -2.4607 151.8897
v -1029.1931 186.6513 151.8897
v -1044.3 -2.4607 169.0548
v -1044.3 186.6513 169.0548
v -1044.3 -2.4607 193.0335
v -1044.3 186.6513 193.0335
v -1007.8286 191.226 151.8897
v -1007.1763 192.5001 150.1009
v -991.147 192.5001 168.3136
v -992.7217 191.226 169.0548
v -1029.1931 191.226 151.8897
v -1029.8452 192.5001 150.1009
v -1044.3 191.226 169.0548
v -1045.8745 192.5001 168.3136
v -1044.3 191.226 193.0335
v -1045.8745 192.5001 193.0335
v -1007.6277 196.3225 151.3387
v -1006.8984 199.2604 149.3382
v -990.4761 199.2604 167.998
v -992.2366 196.3225 168.8264
v -1029.3938 196.3225 151.3386
v -1030.123 199.2604 149.3383
v -1044.7849 196.3225 168.8264
v -1046.5457 199.2604 167.998
v -1044.7849 196.3225 193.0335
v -1046.5457 199.2604 193.0335
v -990.2266 188.9387 167.8805
v -1006.7949 188.9387 149.0547
v -1030.2266 188.9387 149.0547
v -1046.7952 188.9387 167.8805
v -992.0979 193.7742 168.761
v -1007.5701 193.7742 151.1811
v -1029.4514 193.7742 151.1811
v -1044.9238 193.7742 168.761
v -1056.2915 212.9782 193.0335
v -1056.2915 215.2093 193.0335
v -1056.2915 215.2093 138.4053
v -1056.2915 212.9782 138.4053
v -981.2708 215.2093 138.4052
v -981.2708 212.9782 138.4052
v -980.342 215.2093 137.3503
v -1057.2202 215.2093 137.3504
v -1046.7952 188.9386 193.0335
v -1044.9238 193.7742 193.0335
v -1057.2202 215.2093 193.0335
v -1044.3 186.6513 217.0121
v -1044.3 -2.4607 217.0121
v -1044.3 191.226 217.0121
v -1045.8745 192.5001 217.7533
v -1044.7849 196.3225 217.2404
v -1046.5457 199.2604 218.069
v -1046.7952 188.9387 218.1863
v -1044.9238 193.7742 217.3059
gi 0 0 0 0
gi 0 0 0 0
gi 0 0 0 0
gi 0 0 0 0
gi 0 0 0 0
gi 0 0 0 0
gi 0 0 0 0
gi 0 0 0 0
gi 0 0 0 0
gi 0 0 0 0
gi 0 0 0 0
gi 0 0 0 0
gi 0 0 0 0
gi 0 0 0 0
gi 0 0 0 0
gi 0 0 0 0
gi 0 0 0 0
gi 0 0 0 0
gi 0 0 0 0
gi 0 0 0 0
gi 0 0 0 0
gi 0 0 0 0
gi 0 0 0 0
gi 0 0 0 0
gi 0 0 0 0
gi 0 0 0 0
gi 0 0 0 0
gi 0 0 0 0
gi 0 0 0 0
gi 0 0 0 0
gi 0 0 0 0
gi 0 0 0 0
gi 0 0 0 0
gi 0 0 0 0
gi 0 0 0 0
gi 0 0 0 0
gi 0 0 0 0
gi 0 0 0 0
gi 0 0 0 0
gi 0 0 0 0
gi 0 0 0 0
gi 0 0 0 0
gi 0 0 0 0
gi 0 0 0 0
gi 0 0 0 0
gi 0 0 0 0
gi 0 0 0 0
gi 0 0 0 0
gi 0 0 0 0
gi 0 0 0 0
gi 0 0 0 0
gi 0 0 0 0
gi 0 0 0 0
gi 0 0 0 0
gi 0 0 0 0
gi 0 0 0 0
gi 0 0 0 0
gi 0 0 0 0
gi 0 0 0 0
gi 0 0 0 0
gi 0 0 0 0
gi 0 0 0 0
gi 0 0 0 0
gi 0 0 0 0
gi 0 0 0 0
gi 0 0 0 0
gi 0 0 0 0
gi 0 0 0 0
gi 0 0 0 0
gi 0 0 0 0
gi 0 0 0 0
gi 0 0 0 0
gi 0 0 0 0
gi 0 0 0 0
gi 0 0 0 0
gi 0 0 0 0
gi 0 0 0 0
gi 0 0 0 0
gi 0 0 0 0
gi 0 0 0 0
gi 0 0 0 0
gi 0 0 0 0
gi 0 0 0 0
gi 0 0 0 0
gi 0 0 0 0
gi 0 0 0 0
gi 0 0 0 0
gi 0 0 0 0
gi 0 0 0 0
gi 0 0 0 0
gi 0 0 0 0
gi 0 0 0 0
gi 0 0 0 0
gi 0 0 0 0
gi 0 0 0 0
gi 0 0 0 0
gi 0 0 0 0
gi 0 0 0 0
gi 0 0 0 0
gi 0 0 0 0
gi 0 0 0 0
gi 0 0 0 0
gi 0 0 0 0
gi 0 0 0 0
gi 0 0 0 0
gi 0 0 0 0
gi 0 0 0 0
gi 0 0 0 0
gi 0 0 0 0
gi 0 0 0 0
gi 0 0 0 0
gi 0 0 0 0
gi 0 0 0 0
gi 0 0 0 0
gi 0 0 0 0
gi 0 0 0 0
gi 0 0 0 0
gi 0 0 0 0
gi 0 0 0 0
gi 0 0 0 0
gi 0 0 0 0
gi 0 0 0 0
gi 0 0 0 0
gi 0 0 0 0
gi 0 0 0 0
gi 0 0 0 0
gi 0 0 0 0
gi 0 0 0 0
gi 0 0 0 0
gi 0 0 0 0
gi 0 0 0 0
gi 0 0 0 0
gi 0 0 0 0
gi 0 0 0 0
gi 0 0 0 0
gi 0 0 0 0
gi 0 0 0 0
gi 0 0 0 0
gi 0 0 0 0
gi 0 0 0 0
gi 0 0 0 0
gi 0 0 0 0
gi 0 0 0 0
gi 0 0 0 0
gi 0 0 0 0
gi 0 0 0 0
gi 0 0 0 0
gi 0 0 0 0
gi 0 0 0 0
gi 0 0 0 0
gi 0 0 0 0
gi 0 0 0 0
gi 0 0 0 0
gi 0 0 0 0
gi 0 0 0 0
gi 0 0 0 0
gi 0 0 0 0
gi 0 0 0 0
gi 0 0 0 0
gi 0 0 0 0
gi 0 0 0 0
gi 0 0 0 0
gi 0 0 0 0
gi 0 0 0 0
gi 0 0 0 0
gi 0 0 0 0
gi 0 0 0 0
gi 0 0 0 0
gi 0 0 0 0
gi 0 0 0 0
gi 0 0 0 0
gi 0 0 0 0
gi 0 0 0 0
gi 0 0 0 0
gi 0 0 0 0
gi 0 0 0 0
gi 0 0 0 0
gi 0 0 0 0
gw 0.0 0.0 0.0 0.0
gw 0.0 0.0 0.0 0.0
gw 0.0 0.0 0.0 0.0
gw 0.0 0.0 0.0 0.0
gw 0.0 0.0 0.0 0.0
gw 0.0 0.0 0.0 0.0
gw 0.0 0.0 0.0 0.0
gw 0.0 0.0 0.0 0.0
gw 0.0 0.0 0.0 0.0
gw 0.0 0.0 0.0 0.0
gw 0.0 0.0 0.0 0.0
gw 0.0 0.0 0.0 0.0
gw 0.0 0.0 0.0 0.0
gw 0.0 0.0 0.0 0.0
gw 0.0 0.0 0.0 0.0
gw 0.0 0.0 0.0 0.0
gw 0.0 0.0 0.0 0.0
gw 0.0 0.0 0.0 0.0
gw 0.0 0.0 0.0 0.0
gw 0.0 0.0 0.0 0.0
gw 0.0 0.0 0.0 0.0
gw 0.0 0.0 0.0 0.0
gw 0.0 0.0 0.0 0.0
gw 0.0 0.0 0.0 0.0
gw 0.0 0.0 0.0 0.0
gw 0.0 0.0 0.0 0.0
gw 0.0 0.0 0.0 0.0
gw 0.0 0.0 0.0 0.0
gw 0.0 0.0 0.0 0.0
gw 0.0 0.0 0.0 0.0
gw 0.0 0.0 0.0 0.0
gw 0.0 0.0 0.0 0.0
gw 0.0 0.0 0.0 0.0
gw 0.0 0.0 0.0 0.0
gw 0.0 0.0 0.0 0.0
gw 0.0 0.0 0.0 0.0
gw 0.0 0.0 0.0 0.0
gw 0.0 0.0 0.0 0.0
gw 0.0 0.0 0.0 0.0
gw 0.0 0.0 0.0 0.0
gw 0.0 0.0 0.0 0.0
gw 0.0 0.0 0.0 0.0
gw 0.0 0.0 0.0 0.0
gw 0.0 0.0 0.0 0.0
gw 0.0 0.0 0.0 0.0
gw 0.0 0.0 0.0 0.0
gw 0.0 0.0 0.0 0.0
gw 0.0 0.0 0.0 0.0
gw 0.0 0.0 0.0 0.0
gw 0.0 0.0 0.0 0.0
gw 0.0 0.0 0.0 0.0
gw 0.0 0.0 0.0 0.0
gw 0.0 0.0 0.0 0.0
gw 0.0 0.0 0.0 0.0
gw 0.0 0.0 0.0 0.0
gw 0.0 0.0 0.0 0.0
gw 0.0 0.0 0.0 0.0
gw 0.0 0.0 0.0 0.0
gw 0.0 0.0 0.0 0.0
gw 0.0 0.0 0.0 0.0
gw 0.0 0.0 0.0 0.0
gw 0.0 0.0 0.0 0.0
gw 0.0 0.0 0.0 0.0
gw 0.0 0.0 0.0 0.0
gw 0.0 0.0 0.0 0.0
gw 0.0 0.0 0.0 0.0
gw 0.0 0.0 0.0 0.0
gw 0.0 0.0 0.0 0.0
gw 0.0 0.0 0.0 0.0
gw 0.0 0.0 0.0 0.0
gw 0.0 0.0 0.0 0.0
gw 0.0 0.0 0.0 0.0
gw 0.0 0.0 0.0 0.0
gw 0.0 0.0 0.0 0.0
gw 0.0 0.0 0.0 0.0
gw 0.0 0.0 0.0 0.0
gw 0.0 0.0 0.0 0.0
gw 0.0 0.0 0.0 0.0
gw 0.0 0.0 0.0 0.0
gw 0.0 0.0 0.0 0.0
gw 0.0 0.0 0.0 0.0
gw 0.0 0.0 0.0 0.0
gw 0.0 0.0 0.0 0.0
gw 0.0 0.0 0.0 0.0
gw 0.0 0.0 0.0 0.0
gw 0.0 0.0 0.0 0.0
gw 0.0 0.0 0.0 0.0
gw 0.0 0.0 0.0 0.0
gw 0.0 0.0 0.0 0.0
gw 0.0 0.0 0.0 0.0
gw 0.0 0.0 0.0 0.0
gw 0.0 0.0 0.0 0.0
gw 0.0 0.0 0.0 0.0
gw 0.0 0.0 0.0 0.0
gw 0.0 0.0 0.0 0.0
gw 0.0 0.0 0.0 0.0
gw 0.0 0.0 0.0 0.0
gw 0.0 0.0 0.0 0.0
gw 0.0 0.0 0.0 0.0
gw 0.0 0.0 0.0 0.0
gw 0.0 0.0 0.0 0.0
gw 0.0 0.0 0.0 0.0
gw 0.0 0.0 0.0 0.0
gw 0.0 0.0 0.0 0.0
gw 0.0 0.0 0.0 0.0
gw 0.0 0.0 0.0 0.0
gw 0.0 0.0 0.0 0.0
gw 0.0 0.0 0.0 0.0
gw 0.0 0.0 0.0 0.0
gw 0.0 0.0 0.0 0.0
gw 0.0 0.0 0.0 0.0
gw 0.0 0.0 0.0 0.0
gw 0.0 0.0 0.0 0.0
gw 0.0 0.0 0.0 0.0
gw 0.0 0.0 0.0 0.0
gw 0.0 0.0 0.0 0.0
gw 0.0 0.0 0.0 0.0
gw 0.0 0.0 0.0 0.0
gw 0.0 0.0 0.0 0.0
gw 0.0 0.0 0.0 0.0
gw 0.0 0.0 0.0 0.0
gw 0.0 0.0 0.0 0.0
gw 0.0 0.0 0.0 0.0
gw 0.0 0.0 0.0 0.0
gw 0.0 0.0 0.0 0.0
gw 0.0 0.0 0.0 0.0
gw 0.0 0.0 0.0 0.0
gw 0.0 0.0 0.0 0.0
gw 0.0 0.0 0.0 0.0
gw 0.0 0.0 0.0 0.0
gw 0.0 0.0 0.0 0.0
gw 0.0 0.0 0.0 0.0
gw 0.0 0.0 0.0 0.0
gw 0.0 0.0 0.0 0.0
gw 0.0 0.0 0.0 0.0
gw 0.0 0.0 0.0 0.0
gw 0.0 0.0 0.0 0.0
gw 0.0 0.0 0.0 0.0
gw 0.0 0.0 0.0 0.0
gw 0.0 0.0 0.0 0.0
gw 0.0 0.0 0.0 0.0
gw 0.0 0.0 0.0 0.0
gw 0.0 0.0 0.0 0.0
gw 0.0 0.0 0.0 0.0
gw 0.0 0.0 0.0 0.0
gw 0.0 0.0 0.0 0.0
gw 0.0 0.0 0.0 0.0
gw 0.0 0.0 0.0 0.0
gw 0.0 0.0 0.0 0.0
gw 0.0 0.0 0.0 0.0
gw 0.0 0.0 0.0 0.0
gw 0.0 0.0 0.0 0.0
gw 0.0 0.0 0.0 0.0
gw 0.0 0.0 0.0 0.0
gw 0.0 0.0 0.0 0.0
gw 0.0 0.0 0.0 0.0
gw 0.0 0.0 0.0 0.0
gw 0.0 0.0 0.0 0.0
gw 0.0 0.0 0.0 0.0
gw 0.0 0.0 0.0 0.0
gw 0.0 0.0 0.0 0.0
gw 0.0 0.0 0.0 0.0
gw 0.0 0.0 0.0 0.0
gw 0.0 0.0 0.0 0.0
gw 0.0 0.0 0.0 0.0
gw 0.0 0.0 0.0 0.0
gw 0.0 0.0 0.0 0.0
gw 0.0 0.0 0.0 0.0
gw 0.0 0.0 0.0 0.0
gw 0.0 0.0 0.0 0.0
gw 0.0 0.0 0.0 0.0
gw 0.0 0.0 0.0 0.0
gw 0.0 0.0 0.0 0.0
gw 0.0 0.0 0.0 0.0
gw 0.0 0.0 0.0 0.0
gw 0.0 0.0 0.0 0.0
gw 0.0 0.0 0.0 0.0
gw 0.0 0.0 0.0 0.0
vt 0.2969 0.905
vt 0.2969 0.8339
vt 0.2388 0.7828
vt 0.1052 0.7828
vt 0.1052 0.905
vt 0.0419 0.0149
vt 0.0419 0.1688
vt 0.0579 0.1688
vt 0.0579 0.0149
vt 0.0419 0.7325
vt 0.0419 0.974
vt 0.0579 0.974
vt 0.0577 0.7325
vt 0.0698 0.9671
vt 0.0698 0.7394
vt 0.0694 0.7257
vt 0.0694 0.6381
vt 0.0577 0.6441
vt 0.0871 0.9497
vt 0.0871 0.7568
vt 0.0698 0.1688
vt 0.0872 0.1688
vt 0.0872 0.0391
vt 0.0698 0.0217
vt 0.9967 0.9005
vt 0.8929 0.9005
vt 0.8929 0.0091
vt 0.9967 0.0091
vt 0.8048 0.9005
vt 0.8048 0.0091
vt 0.7184 0.9005
vt 0.649 0.9005
vt 0.649 0.0091
vt 0.7184 0.0091
vt 0.475 0.9005
vt 0.475 0.0091
vt 0.35 0.9493
vt 0.4571 0.9493
vt 0.4571 0.9414
vt 0.35 0.9414
vt 0.5643 0.9493
vt 0.5643 0.9414
vt 0.6715 0.9493
vt 0.6715 0.9414
vt 0.7744 0.9493
vt 0.7774 0.9414
vt 0.35 0.9908
vt 0.4571 0.9908
vt 0.4571 0.9727
vt 0.35 0.9727
vt 0.5643 0.9908
vt 0.5643 0.9727
vt 0.6715 0.9908
vt 0.6715 0.9727
vt 0.7732 0.9908
vt 0.7764 0.9727
vt 0.0941 0.6488
vt 0.0941 0.6164
vt 0.0866 0.623
vt 0.0866 0.7086
vt 0.0964 0.0996
vt 0.148 0.048
vt 0.0961 0.8889
vt 0.0961 0.8159
vt 0.145 0.6998
vt 0.35 0.9133
vt 0.2923 0.9133
vt 0.3027 0.9274
vt 0.35 0.9274
vt 0.4571 0.9133
vt 0.4571 0.9274
vt 0.5643 0.9274
vt 0.5643 0.9133
vt 0.6715 0.9274
vt 0.6715 0.9133
vt 0.2923 0.9414
vt 0.2951 0.9571
vt 0.2945 0.9727
vt 0.35 0.9571
vt 0.4571 0.9571
vt 0.5643 0.9571
vt 0.6715 0.9571
vt 0.2991 0.9493
vt 0.0318 0.0178
vt 0.0318 0.1707
vt 0.0389 0.1707
vt 0.0389 0.0178
vt 0.0318 0.7325
vt 0.0318 0.971
vt 0.0389 0.971
vt 0.0389 0.7325
vt 0.0059 0.2501
vt 0.0243 0.2501
vt 0.0243 0.1595
vt 0.0059 0.1595
vt 0.0059 0.4945
vt 0.0243 0.4945
vt 0.0272 0.4915
vt 0.0272 0.253
vt 0.0272 0.2471
vt 0.0272 0.1569
vt 0.0964 0.1688
vt 0.7728 0.9274
vt 0.7774 0.9133
vt 0.7761 0.9571
vt 0.0243 0.6503
vt 0.0059 0.6503
vt 0.0272 0.6503
vt 0.0272 0.4974
vt 0.3698 0.9005
vt 0.3698 0.0091
vt 0.617 0.9274
vt 0.6161 0.9133
vt 0.6161 0.9414
vt 0.6163 0.9727
vt 0.6163 0.9571
vt 0.6167 0.9493
vt 0.0579 0.0207
vt 0.0698 0.0267
vt 0.0872 0.042
vt 0.0877 0.0425
vt 0.0059 0.5004
vt 0.0243 0.5004
vt 0.0272 0.503
vt 0.0419 0.6441
vt 0.3563 0.9005
vt 0.3177 0.9005
vt 0.3177 0.0091
vt 0.3563 0.0091
vt 0.3017 0.9908
vt 0.0318 0.6422
vt 0.0389 0.6422
vt 0.1052 0.9004
vt 0.0419 0.0207
vt 0.3161 0.0091
vt 0.3161 0.9005
vt 0.6169 0.9908
vt 0.1227 0.0733
vt 0.0389 0.0233
vt 0.0318 0.0233
vt 0.48 0.0091
vt 0.48 0.9005
vt 0.38 0.9005
vt 0.38 0.0091
vt 0.5472 0.0091
vt 0.5472 0.9005
vt 0.6467 0.0091
vt 0.6467 0.9005
vt 0.7432 0.0091
vt 0.7432 0.9005
vt 0.8931 0.9005
vt 0.8931 0.0091
vt 0.3314 0.9005
vt 0.3314 0.0091
vt 0.9972 0.0091
vt 0.9972 0.9005
vn 0.5774 0.5774 -0.5773
vn 0.3015 0.9045 -0.3015
vn -0.0 1.0 0.0
vn -0.0 0.7071 0.7071
vn 0.5774 0.5773 0.5774
vn 0.5773 0.5774 0.5773
vn 0.0 0.7071 0.7071
vn -0.0 -0.2584 0.966
vn 0.6761 -0.3073 0.6696
vn 0.5773 0.5774 -0.5773
vn 0.6761 -0.3073 -0.6696
vn 0.4376 -0.7728 0.4596
vn 0.4376 -0.7728 -0.4596
vn 0.3433 -0.8743 -0.3433
vn 0.6494 -0.3957 -0.6494
vn 0.1918 -0.9569 0.218
vn 0.1928 -0.9566 -0.2187
vn -0.0 -0.7204 0.6935
vn 0.0 -0.8629 0.5055
vn 0.3058 -0.4658 -0.8304
vn 0.7866 -0.4981 -0.365
vn 0.9112 0.0 -0.4119
vn 0.3531 0.0 -0.9356
vn 0.7866 -0.4981 0.365
vn 0.9112 -0.0 0.4119
vn 0.3058 -0.4658 0.8304
vn 0.3531 -0.0 0.9356
vn 0.0 -0.4027 0.9154
vn 0.0 -0.0 1.0
vn 0.3605 -0.108 -0.9265
vn 0.9108 -0.1043 -0.3994
vn 0.9007 -0.0386 -0.4328
vn 0.335 -0.0375 -0.9415
vn 0.9108 -0.1043 0.3994
vn 0.9007 -0.0387 0.4328
vn 0.3605 -0.108 0.9265
vn 0.335 -0.0375 0.9415
vn 0.0 -0.1244 0.9922
vn 0.0 -0.0308 0.9995
vn 0.1386 -0.7507 -0.646
vn 0.5588 -0.8161 -0.1473
vn 0.8652 -0.3031 -0.3994
vn 0.3334 -0.2783 -0.9008
vn 0.5588 -0.8162 0.1469
vn 0.8652 -0.3031 0.3994
vn 0.139 -0.7815 0.6082
vn 0.3334 -0.2783 0.9008
vn 0.0 -0.6945 0.7195
vn 0.0 -0.2404 0.9707
vn 0.4817 -0.732 -0.4817
vn 0.3186 -0.8927 -0.3186
vn 0.6466 -0.4048 -0.6466
vn 0.7071 -0.0 -0.7071
vn 0.3633 0.0 -0.9317
vn 0.9161 -0.0 -0.4009
vn 0.9161 0.0 0.4009
vn 0.3633 0.0 0.9317
vn 0.7069 -0.0209 -0.707
vn 0.6549 0.3772 -0.6549
vn 0.6814 -0.267 -0.6814
vn 0.3195 0.3911 -0.8631
vn 0.8227 0.4229 -0.3798
vn 0.8227 0.4229 0.3798
vn 0.3195 0.3911 0.8631
vn 0.6911 -0.2113 -0.6912
vn 0.3015 -0.9045 0.3015
vn 0.0 -0.7071 0.7071
vn 0.0 0.7071 0.7071
vn 0.3015 0.9045 0.3015
vn 0.3015 -0.9045 -0.3015
vn 0.3015 0.9045 -0.3015
vn 0.5773 -0.5774 -0.5773
vn 0.3015 -0.9045 -0.3015
vn 0.5773 -0.5774 0.5773
vn 0.5773 -0.5774 -0.5773
vn 0.0 -0.0 1.0
vn 0.0 0.3408 0.9401
vn 0.0 -0.7071 0.7071
vn -0.3058 -0.4658 0.8304
vn -0.3531 -0.0 0.9356
vn -0.335 -0.0375 0.9415
vn -0.3605 -0.108 0.9265
vn -0.3334 -0.2783 0.9008
vn -0.139 -0.7815 0.6082
vn -0.3633 0.0 0.9317
vn -0.7071 0.0 0.7071
vn -0.6407 -0.4232 0.6407
vn -0.7068 -0.0315 0.7068
vn -0.6837 -0.2551 0.6837
vn -0.6596 0.3605 0.6596
vn -0.3195 0.3911 0.8631
vn -0.7019 -0.121 0.7019
vn -0.6756 -0.2953 0.6756
vn -0.4624 -0.7566 0.4624
vn -0.2598 -0.9301 0.2598
vn -0.2484 -0.9362 0.2488
vn -0.5773 0.5774 0.5773
vn -0.5773 -0.5774 0.5773
vn -0.3015 -0.9045 0.3015
vn 0.3015 0.9045 -0.3015
vn 0.7071 0.0 -0.7071
vn 0.5773 0.5774 -0.5773
vn -0.5773 0.5774 0.5773
vn -0.7071 -0.0 0.7071
vn -0.3658 -0.8558 0.3658
vn -0.3015 0.9045 0.3015
vn 0.5773 0.5774 -0.5774
vn -0.7071 0.7071 0.0
vn -0.5774 0.5773 -0.5774
vn -0.966 -0.2584 -0.0
vn -0.7071 0.7071 0.0
vn -0.5773 0.5774 -0.5773
vn -0.6696 -0.3073 -0.6761
vn 0.5773 0.5774 -0.5773
vn 0.6696 -0.3073 -0.6761
vn 0.4596 -0.7729 -0.4376
vn -0.4596 -0.7728 -0.4376
vn 0.2187 -0.9566 -0.1928
vn -0.218 -0.9569 -0.1918
vn -0.5055 -0.8629 -0.0
vn -0.6935 -0.7205 -0.0
vn 0.4119 0.0 -0.9112
vn 0.365 -0.4981 -0.7866
vn 0.8304 -0.4658 -0.3058
vn 0.9356 0.0 -0.3531
vn -0.4119 0.0 -0.9112
vn -0.365 -0.4981 -0.7866
vn -0.9356 0.0 -0.3531
vn -0.8304 -0.4658 -0.3058
vn -1.0 0.0 0.0
vn -0.9154 -0.4026 0.0
vn 0.4328 -0.0386 -0.9007
vn 0.3994 -0.1044 -0.9108
vn 0.9265 -0.108 -0.3605
vn 0.9415 -0.0375 -0.335
vn -0.4328 -0.0386 -0.9007
vn -0.3994 -0.1043 -0.9108
vn -0.9415 -0.0375 -0.335
vn -0.9265 -0.108 -0.3605
vn -0.9995 -0.0308 0.0
vn -0.9922 -0.1244 0.0
vn 0.3994 -0.3031 -0.8652
vn 0.1473 -0.8161 -0.5588
vn 0.646 -0.7507 -0.1386
vn 0.9008 -0.2783 -0.3334
vn -0.3994 -0.3031 -0.8652
vn -0.1469 -0.8162 -0.5588
vn -0.9008 -0.2783 -0.3334
vn -0.6082 -0.7815 -0.139
vn -0.9707 -0.2403 0.0
vn -0.7195 -0.6945 0.0
vn 0.9317 0.0 -0.3633
vn 0.4009 -0.0 -0.9161
vn -0.4009 0.0 -0.9161
vn -0.9317 0.0 -0.3633
vn 0.8631 0.3911 -0.3195
vn 0.3798 0.4229 -0.8227
vn -0.3798 0.4229 -0.8227
vn -0.8631 0.3911 -0.3195
vn -0.7071 0.7071 0.0
vn -0.7071 -0.7071 -0.0
vn -0.3015 -0.9045 -0.3015
vn -0.3015 0.9045 -0.3015
vn 0.3015 -0.9045 -0.3015
vn 0.3015 0.9045 -0.3015
vn 0.5773 -0.5774 -0.5773
vn -0.5773 -0.5774 -0.5773
vn -1.0 -0.0 -0.0
vn -0.9401 0.3408 0.0
vn -0.7071 -0.7071 -0.0
vn -0.8304 -0.4658 0.3058
vn -0.9356 -0.0 0.3531
vn -0.9415 -0.0375 0.335
vn -0.9265 -0.108 0.3605
vn -0.9008 -0.2783 0.3334
vn -0.6082 -0.7815 0.139
vn -0.9317 0.0 0.3633
vn -0.8631 0.3911 0.3195
vtan -0.4081 -0.4084 -0.8165
vtan -0.0945 -0.2863 -0.9535
vtan 0.0001 0.0 -1.0
vtan -0.0 0.7071 -0.7071
vtan 0.4083 0.4082 -0.8165
vtan 0.1768 -0.7787 0.602
vtan -0.3873 -0.6519 0.6519
vtan -0.0001 -0.966 -0.2584
vtan -0.1165 -0.942 -0.3146
vtan 0.4339 -0.8159 -0.3821
vtan 0.6331 -0.7631 0.13
vtan -0.3307 -0.9388 -0.0969
vtan -0.2268 -0.9515 0.2077
vtan -0.8269 -0.5466 -0.1319
vtan -0.827 -0.5466 0.1318
vtan -0.1511 -0.5671 0.8097
vtan -0.0941 -0.3956 0.9136
vtan -0.115 -0.8952 0.4305
vtan -0.9768 -0.2077 -0.0525
vtan -0.9765 -0.2089 0.0526
vtan 0.0001 -0.6935 -0.7204
vtan 0.0 -0.5055 -0.8629
vtan -0.0241 -0.2266 -0.9737
vtan -0.1544 -0.5681 -0.8083
vtan -0.895 0.1568 -0.4175
vtan -0.4188 0.0041 -0.9081
vtan -0.4119 0.0 -0.9112
vtan -0.9356 0.0 -0.3531
vtan 0.3084 -0.1953 -0.931
vtan 0.4119 -0.0 -0.9112
vtan 0.5079 0.1857 -0.8412
vtan 0.9378 -0.0032 -0.3471
vtan 0.9356 -0.0 -0.3531
vtan 0.4119 0.0 -0.9112
vtan 1.0 0.0 0.0
vtan 0.9319 -0.0006 0.3627
vtan 0.4015 -0.0008 0.9159
vtan 0.4331 0.0004 0.9013
vtan 0.9421 0.0003 0.3352
vtan -0.4015 0.0008 0.9159
vtan -0.4331 -0.0004 0.9013
vtan -0.9319 0.0006 0.3627
vtan -0.9421 -0.0003 0.3352
vtan -1.0 0.0 0.0
vtan 0.9514 -0.0801 0.2972
vtan 0.3459 0.0679 0.9358
vtan 0.419 -0.0003 0.908
vtan 0.9378 -0.0002 0.3471
vtan -0.3456 -0.0682 0.9359
vtan -0.419 0.0003 0.908
vtan -0.9485 0.0715 0.3087
vtan -0.9378 0.0002 0.3472
vtan 0.0269 -0.6492 0.7602
vtan -0.0351 -0.5654 0.8241
vtan -0.0841 -0.3614 0.9286
vtan -0.0269 -0.2279 0.9733
vtan 0.0276 -0.6109 -0.7912
vtan 0.0426 -0.1486 -0.988
vtan -0.8257 -0.5641 0.0071
vtan -0.8253 -0.5647 -0.0022
vtan 0.0419 -0.1496 0.9879
vtan 0.9388 0.0024 0.3443
vtan 0.7629 0.3431 0.548
vtan 0.7071 0.0 0.7071
vtan 0.9317 0.0 0.3633
vtan 0.4222 0.0025 0.9065
vtan 0.4009 -0.0 0.9161
vtan -0.4009 -0.0 0.9161
vtan -0.4222 -0.0025 0.9065
vtan -0.9317 -0.0 0.3633
vtan -0.9388 -0.0024 0.3443
vtan 0.7073 0.0209 0.7066
vtan 0.7557 -0.3269 0.5675
vtan 0.7319 0.2486 0.6344
vtan 0.9378 0.0003 0.3473
vtan 0.4188 0.0006 0.9081
vtan -0.4188 -0.0006 0.9081
vtan -0.9378 -0.0003 0.3473
vtan 0.7228 0.202 0.6609
vtan -0.6396 -0.4264 -0.6396
vtan 0.0 -0.7071 -0.7071
vtan -0.3904 -0.651 0.651
vtan 0.1042 -0.3456 0.9326
vtan -0.6396 -0.4264 0.6396
vtan 0.9331 -0.345 0.1019
vtan 0.6743 -0.4259 -0.6033
vtan 0.4083 -0.8165 -0.4082
vtan -0.4316 -0.816 0.3845
vtan -0.1062 -0.3461 0.9321
vtan 0.6396 -0.4264 -0.6396
vtan 0.4082 -0.8165 0.4082
vtan -0.4357 -0.8159 -0.3802
vtan -0.9534 -0.2815 0.1088
vtan -0.9533 -0.2909 -0.0806
vtan 0.1129 -0.2801 0.9533
vtan 0.4089 -0.4076 0.8165
vtan 0.0 -0.7195 -0.6945
vtan -1.0 -0.0 0.0
vtan -0.0001 -0.7071 -0.7071
vtan -0.0 -0.7071 0.7071
vtan 0.0 -0.7071 -0.7071
vtan 0.0767 -0.2922 -0.9533
vtan 0.9378 0.0032 0.3471
vtan 0.9356 -0.0 0.3531
vtan 0.9421 -0.0003 0.3353
vtan 0.9319 0.0006 0.3627
vtan 0.9378 0.0002 0.3471
vtan 0.9484 0.0716 0.3088
vtan 0.9388 -0.0024 0.3443
vtan 0.9317 -0.0 0.3633
vtan 0.7071 0.0 0.7071
vtan 0.7149 -0.0244 0.6988
vtan 0.7071 -0.002 0.7071
vtan 0.7099 -0.0157 0.7041
vtan 0.7128 0.0214 0.7011
vtan 0.9378 -0.0003 0.3473
vtan 0.7078 -0.0077 0.7064
vtan 0.0001 -0.966 -0.2584
vtan 0.1035 -0.9452 -0.3096
vtan 0.1492 -0.5804 -0.8005
vtan 0.0 -0.6935 -0.7204
vtan 0.0421 -0.2797 -0.9592
vtan -0.0166 -0.2527 -0.9674
vtan -0.0314 -0.6104 -0.7915
vtan -0.0003 -0.7195 -0.6945
vtan 0.0 -0.5055 -0.8629
vtan 1.0 -0.0 -0.0
vtan -0.4083 -0.8165 0.4083
vtan 0.1542 -0.7715 -0.6173
vtan -0.0 -0.7071 -0.7071
vtan -0.096 -0.2858 -0.9535
vtan 0.3021 -0.3906 -0.8696
vtan -0.7629 -0.3431 -0.548
vtan -0.9521 -0.1496 -0.2667
vtan -0.9356 0.0 -0.3531
vtan -0.7071 0.0 -0.7071
vtan 0.8763 0.4024 0.2648
vtan -0.4083 -0.8165 0.4083
vtan 0.2167 -0.7901 -0.5734
vtan -0.0 0.0 -1.0
vtan -0.4082 0.4083 -0.8165
vtan -0.0 0.7071 -0.7071
vtan 0.3873 -0.6519 0.6519
vtan -0.1518 -0.7707 0.6189
vtan 0.7071 -0.0 0.7071
vtan 0.739 -0.0282 0.6731
vtan -0.1105 -0.3503 -0.9301
vtan -0.0951 -0.3432 0.9345
vtan 0.3903 -0.651 0.651
vtan 0.6396 -0.4264 -0.6396
vtan 1.0 0.0 -0.0001
vtan 0.9535 -0.2863 0.0945
vtan 0.8165 -0.4084 0.4081
vtan 0.7071 0.7071 -0.0
vtan 0.8165 0.4082 -0.4083
vtan 0.2584 -0.966 0.0001
vtan -0.6519 -0.6519 0.3873
vtan -0.602 -0.7787 -0.1768
vtan 0.3146 -0.942 0.1165
vtan 0.0969 -0.9388 0.3307
vtan -0.1301 -0.7631 -0.6331
vtan 0.3822 -0.8159 -0.4338
vtan -0.2077 -0.9515 0.2268
vtan -0.1318 -0.5466 0.827
vtan 0.1319 -0.5466 0.8269
vtan -0.4305 -0.8952 0.115
vtan -0.9136 -0.3956 0.0941
vtan -0.8097 -0.567 0.1511
vtan -0.0526 -0.2089 0.9765
vtan 0.0525 -0.2077 0.9768
vtan 0.9737 -0.2266 0.0241
vtan 0.8629 -0.5055 -0.0
vtan 0.7205 -0.6935 -0.0001
vtan 0.8083 -0.5681 0.1544
vtan -0.9112 0.0 -0.4119
vtan -0.9081 -0.0041 -0.4188
vtan -0.3471 -0.0032 -0.9378
vtan -0.3531 0.0 -0.9356
vtan -0.9112 -0.0 0.4119
vtan -0.9081 0.0041 0.4188
vtan -0.3531 -0.0 0.9356
vtan -0.3471 0.0032 0.9378
vtan -0.0 -0.0 1.0
vtan 0.0 0.0 1.0
vtan -0.9013 0.0004 -0.4331
vtan -0.9158 -0.0008 -0.4015
vtan -0.3627 -0.0006 -0.9319
vtan -0.3353 0.0003 -0.9421
vtan -0.9013 -0.0004 0.4331
vtan -0.9159 0.0008 0.4015
vtan -0.3353 -0.0003 0.9421
vtan -0.3627 0.0006 0.9319
vtan -0.908 -0.0003 -0.419
vtan -0.9358 0.0679 -0.3459
vtan -0.2972 -0.0801 -0.9514
vtan -0.3471 -0.0002 -0.9378
vtan -0.908 0.0003 0.419
vtan -0.9359 -0.0682 0.3456
vtan -0.3471 0.0002 0.9378
vtan -0.3088 0.0715 0.9484
vtan -0.9286 -0.3614 0.0841
vtan -0.8241 -0.5653 0.035
vtan -0.7602 -0.6491 -0.027
vtan -0.9733 -0.2279 0.0269
vtan 0.988 -0.1486 -0.0426
vtan 0.7913 -0.6109 -0.0277
vtan 0.0022 -0.5647 0.8253
vtan -0.0071 -0.5641 0.8257
vtan -0.9879 -0.1496 -0.0419
vtan -0.3443 0.0024 -0.9388
vtan -0.3633 0.0 -0.9317
vtan -0.7071 0.0 -0.7071
vtan -0.548 0.3431 -0.7628
vtan -0.9065 0.0025 -0.4222
vtan -0.9161 -0.0 -0.4009
vtan -0.9161 -0.0 0.4009
vtan -0.9065 -0.0025 0.4222
vtan -0.3633 -0.0 0.9317
vtan -0.3443 -0.0024 0.9388
vtan -0.7066 0.0209 -0.7073
vtan -0.6345 0.2486 -0.7319
vtan -0.5675 -0.3268 -0.7557
vtan -0.3473 0.0003 -0.9378
vtan -0.9081 0.0006 -0.4188
vtan -0.9081 -0.0006 0.4188
vtan -0.3473 -0.0003 0.9378
vtan -0.661 0.2021 -0.7227
vtan -0.651 -0.651 0.3903
vtan 0.7071 -0.7071 0.0
vtan 0.6396 -0.4264 0.6396
vtan -0.9326 -0.3456 -0.1042
vtan -0.102 -0.345 -0.933
vtan 0.6396 -0.4264 0.6396
vtan -0.6396 -0.4264 0.6396
vtan 0.6033 -0.4259 -0.6743
vtan 0.4082 -0.8165 -0.4083
vtan -0.9322 -0.3461 0.1061
vtan -0.3845 -0.816 0.4316
vtan -0.4082 -0.8165 -0.4082
vtan 0.3803 -0.8159 0.4356
vtan 0.0804 -0.291 0.9533
vtan -0.1087 -0.2816 0.9534
vtan -0.8165 -0.4074 -0.4091
vtan -0.9533 -0.2801 -0.1129
vtan 0.6945 -0.7195 0.0
vtan 0.0 -0.0 1.0
vtan 0.7071 -0.7071 0.0001
vtan -0.7071 -0.7071 0.0
vtan 0.9533 -0.2922 -0.0767
vtan 0.7071 -0.7071 -0.0
vtan 0.3471 -0.0032 0.9378
vtan 0.3531 -0.0 0.9356
vtan -0.3353 -0.0003 -0.9421
vtan -0.3627 0.0006 -0.9319
vtan 0.0 0.0 -1.0
vtan -0.3471 0.0002 -0.9378
vtan -0.3088 0.0716 -0.9484
vtan -0.3443 -0.0024 -0.9388
vtan -0.6988 -0.0244 -0.7149
vtan -0.7071 0.0 -0.7071
vtan -0.3633 -0.0 -0.9317
vtan -0.7071 -0.002 -0.7072
vtan -0.7011 0.0214 -0.7128
vtan -0.7041 -0.0157 -0.7099
vtan -0.3473 -0.0003 -0.9378
vtan -0.7064 -0.0077 -0.7077
vtan 0.2584 -0.966 -0.0001
vtan 0.7205 -0.6935 -0.0
vtan 0.8005 -0.5804 -0.1492
vtan 0.3096 -0.9452 -0.1035
vtan 0.7915 -0.6104 0.0314
vtan 0.9675 -0.2521 0.0172
vtan 0.9592 -0.2796 -0.0419
vtan 0.6945 -0.7195 0.0003
vtan 0.8629 -0.5055 0.0
vtan 0.0 -0.0 -1.0
vtan 0.7071 -0.7071 0.0
vtan 0.6173 -0.7714 -0.1541
vtan -0.4083 -0.8165 0.4083
vtan 0.9535 -0.2858 0.0961
vtan 0.8697 -0.3905 -0.3019
vtan -0.7071 0.0 -0.7071
vtan -0.2648 0.4024 -0.8763
vtan -0.4083 -0.8165 0.4083
vtan 0.5735 -0.79 -0.2166
vtan 1.0 0.0 -0.0
vtan 0.7071 0.7071 -0.0
vtan 0.8165 0.4083 0.4082
vtan -0.6519 -0.6519 -0.3872
vtan -0.6189 -0.7706 0.1518
vtan 0.7071 0.0 0.7071
vtan 0.6988 0.0244 0.7149
vtan -0.6731 -0.0282 -0.739
vtan 0.9301 -0.3503 0.1105
vtan 0.7071 -0.7071 0.0
vtan -0.651 -0.651 -0.3903
vtan -0.9345 -0.3432 0.095
f 0/0/0/0 1/1/1/1 2/2/2/2 
f 0/0/0/0 2/2/2/2 3/3/3/3 
f 4/4/4/4 0/0/0/0 3/3/3/3 
f 5/5/5/5 6/6/6/6 7/7/7/7 
f 5/5/5/5 7/7/7/7 8/8/8/8 
f 9/9/9/9 5/10/5/10 8/11/8/11 
f 9/9/9/9 8/11/8/11 10/12/10/12 
f 11/13/11/13 12/14/12/14 10/12/10/12 
f 11/13/11/13 10/12/10/12 8/11/8/11 
f 12/15/12/15 13/16/13/16 14/17/14/17 
f 12/15/12/15 14/17/14/17 10/12/10/12 
f 11/13/11/13 15/18/15/18 16/19/16/19 
f 11/13/11/13 16/19/16/19 12/14/12/14 
f 17/20/17/20 18/21/18/21 15/22/15/22 
f 17/20/17/20 15/22/15/22 11/23/11/23 
f 19/24/19/24 20/25/20/25 21/26/21/26 
f 19/24/19/24 21/26/21/26 22/27/22/27 
f 20/25/20/25 23/28/23/28 24/29/24/29 
f 20/25/20/25 24/29/24/29 21/26/21/26 
f 23/30/23/30 25/31/25/31 26/32/26/32 
f 23/30/23/30 26/32/26/32 24/33/24/33 
f 25/31/25/31 27/34/27/34 28/35/28/34 
f 25/31/25/31 28/35/28/34 26/32/26/32 
f 29/36/29/35 30/37/30/36 31/38/31/37 
f 29/36/29/35 31/38/31/37 32/39/32/38 
f 30/37/30/36 33/40/33/39 34/41/34/40 
f 30/37/30/36 34/41/34/40 31/38/31/37 
f 34/41/34/40 33/40/33/39 35/42/35/41 
f 34/41/34/40 35/42/35/41 36/43/36/42 
f 36/43/36/42 35/42/35/41 37/44/37/43 
f 36/43/36/42 37/44/37/43 38/45/38/43 
f 39/46/39/44 40/47/40/45 41/48/41/46 
f 39/46/39/44 41/48/41/46 42/49/42/47 
f 40/47/40/45 43/50/43/48 44/51/44/49 
f 40/47/40/45 44/51/44/49 41/48/41/46 
f 44/51/44/49 43/50/43/48 45/52/45/50 
f 44/51/44/49 45/52/45/50 46/53/46/51 
f 46/53/46/51 45/52/45/50 47/54/47/43 
f 46/53/46/51 47/54/47/43 48/55/48/43 
f 39/56/39/52 49/57/49/53 50/58/50/54 
f 39/56/39/52 50/58/50/54 16/59/16/55 
f 15/22/15/22 45/60/45/56 43/61/43/57 
f 43/62/43/58 40/63/40/59 16/19/16/19 
f 43/62/43/58 16/19/16/19 15/18/15/18 
f 16/59/16/55 40/64/40/60 39/56/39/52 
f 19/65/19/61 51/66/51/62 52/67/52/63 
f 19/65/19/61 52/67/52/63 53/68/53/64 
f 20/69/20/65 19/65/19/61 53/68/53/64 
f 20/69/20/65 53/68/53/64 54/70/54/66 
f 20/69/20/65 54/70/54/66 55/71/55/67 
f 20/69/20/65 55/71/55/67 23/72/23/68 
f 23/72/23/68 55/71/55/67 56/73/56/69 
f 23/72/23/68 56/73/56/69 25/74/25/70 
f 52/67/52/63 57/75/57/71 32/39/32/38 
f 52/67/52/63 32/39/32/38 53/68/53/64 
f 53/68/53/64 32/39/32/38 31/38/31/37 
f 53/68/53/64 31/38/31/37 54/70/54/66 
f 54/70/54/66 31/38/31/37 34/41/34/40 
f 54/70/54/66 34/41/34/40 55/71/55/67 
f 56/73/56/69 55/71/55/67 34/41/34/40 
f 56/73/56/69 34/41/34/40 36/43/36/42 
f 58/76/58/72 59/77/59/73 42/49/42/47 
f 58/76/58/72 42/49/42/47 60/78/60/74 
f 60/78/60/74 42/49/42/47 41/48/41/46 
f 60/78/60/74 41/48/41/46 61/79/61/75 
f 61/79/61/75 41/48/41/46 44/51/44/49 
f 61/79/61/75 44/51/44/49 62/80/62/76 
f 62/80/62/76 44/51/44/49 46/53/46/51 
f 62/80/62/76 46/53/46/51 63/81/63/77 
f 64/82/64/78 58/76/58/72 60/78/60/74 
f 64/82/64/78 60/78/60/74 29/36/29/35 
f 29/36/29/35 60/78/60/74 61/79/61/75 
f 29/36/29/35 61/79/61/75 30/37/30/36 
f 30/37/30/36 61/79/61/75 62/80/62/76 
f 30/37/30/36 62/80/62/76 33/40/33/39 
f 35/42/35/41 33/40/33/39 62/80/62/76 
f 35/42/35/41 62/80/62/76 63/81/63/77 
f 65/83/65/79 66/84/66/80 67/85/67/81 
f 65/83/65/79 67/85/67/81 68/86/68/82 
f 69/87/69/83 65/88/65/79 68/89/68/84 
f 69/87/69/83 68/89/68/84 70/90/70/85 
f 0/91/0/86 72/92/71/87 71/93/72/88 
f 0/91/0/86 71/93/72/88 1/94/1/89 
f 72/92/71/87 0/91/0/86 4/95/4/90 
f 72/92/71/87 4/95/4/90 73/96/73/91 
f 68/86/68/82 67/85/67/81 6/6/6/6 
f 68/86/68/82 6/6/6/6 5/5/5/5 
f 70/90/70/85 68/89/68/84 5/10/5/10 
f 70/90/70/85 5/10/5/10 9/9/9/9 
f 65/97/65/92 69/98/69/93 72/92/71/87 
f 65/97/65/92 72/92/71/87 73/96/73/91 
f 69/99/69/94 74/100/74/95 71/93/72/88 
f 69/99/69/94 71/93/72/88 72/92/71/87 
f 7/7/7/7 17/20/17/20 11/23/11/23 
f 7/7/7/7 11/23/11/23 8/8/8/8 
f 18/21/18/21 47/101/47/96 45/60/45/56 
f 18/21/18/21 45/60/45/56 15/22/15/22 
f 75/102/75/97 27/103/27/43 25/74/25/70 
f 75/102/75/97 25/74/25/70 56/73/56/69 
f 75/102/75/97 56/73/56/69 36/43/36/42 
f 75/102/75/97 36/43/36/42 38/45/38/43 
f 76/104/76/43 63/81/63/77 46/53/46/51 
f 76/104/76/43 46/53/46/51 48/55/48/43 
f 37/44/37/43 35/42/35/41 63/81/63/77 
f 37/44/37/43 63/81/63/77 76/104/76/43 
f 77/105/77/98 73/96/73/91 4/95/4/90 
f 77/105/77/98 4/95/4/90 3/106/3/99 
f 77/105/77/98 66/107/66/100 65/108/65/101 
f 77/105/77/98 65/108/65/101 73/96/73/91 
f 28/35/28/34 27/34/27/34 78/109/78/102 
f 28/35/28/34 78/109/78/102 79/110/79/103 
f 80/43/80/104 38/45/38/34 37/44/37/34 
f 80/43/80/104 37/44/37/34 81/42/81/105 
f 82/53/82/106 48/55/48/34 47/54/47/34 
f 82/53/82/106 47/54/47/34 83/52/83/107 
f 78/74/78/108 84/73/84/109 85/111/85/110 
f 78/74/78/108 85/111/85/110 86/112/86/111 
f 80/43/80/104 87/113/87/112 85/111/85/110 
f 80/43/80/104 85/111/85/110 84/73/84/109 
f 82/53/82/106 88/114/88/113 89/115/89/114 
f 82/53/82/106 89/115/89/114 90/81/90/115 
f 90/81/90/115 89/115/89/114 91/116/91/116 
f 90/81/90/115 91/116/91/116 81/42/81/105 
f 7/7/7/117 92/117/92/118 93/118/93/119 
f 7/7/7/117 93/118/93/119 17/20/17/120 
f 94/119/94/121 95/120/95/122 83/60/83/123 
f 94/119/94/121 83/60/83/123 47/101/47/124 
f 18/21/18/125 94/119/94/121 47/101/47/124 
f 75/102/75/126 84/73/84/109 78/74/78/108 
f 75/102/75/126 78/74/78/108 27/103/27/34 
f 80/43/80/104 84/73/84/109 75/102/75/126 
f 80/43/80/104 75/102/75/126 38/45/38/34 
f 82/53/82/106 90/81/90/115 76/104/76/34 
f 82/53/82/106 76/104/76/34 48/55/48/34 
f 90/81/90/115 81/42/81/105 37/44/37/34 
f 90/81/90/115 37/44/37/34 76/104/76/34 
f 96/121/96/127 97/122/97/128 77/105/77/129 
f 96/121/96/127 77/105/77/129 3/106/3/99 
f 77/105/77/129 97/122/97/128 98/123/98/130 
f 77/105/77/129 98/123/98/130 66/107/66/100 
f 99/124/99/131 9/9/9/9 10/12/10/12 
f 99/124/99/131 10/12/10/12 14/17/14/17 
f 13/16/13/16 12/15/12/15 16/59/16/55 
f 13/16/13/16 16/59/16/55 50/58/50/54 
f 51/125/51/132 19/126/19/133 22/127/22/134 
f 51/125/51/132 22/127/22/134 100/128/100/135 
f 64/82/64/78 29/36/29/35 32/39/32/38 
f 64/82/64/78 32/39/32/38 57/75/57/71 
f 49/129/49/136 39/46/39/44 42/49/42/47 
f 49/129/49/136 42/49/42/47 59/77/59/73 
f 74/130/74/137 69/87/69/83 70/90/70/85 
f 74/130/74/137 70/90/70/85 101/131/101/138 
f 99/124/99/131 101/131/101/138 70/90/70/85 
f 99/124/99/131 70/90/70/85 9/9/9/9 
f 2/2/2/139 96/132/96/140 3/3/3/141 
f 92/117/92/118 7/7/7/117 6/6/6/142 
f 92/117/92/118 6/6/6/142 102/133/102/143 
f 94/119/94/121 18/21/18/125 17/20/17/120 
f 94/119/94/121 17/20/17/120 93/118/93/119 
f 103/134/103/144 79/110/79/103 78/109/78/102 
f 103/134/103/144 78/109/78/102 86/135/86/111 
f 91/116/91/116 87/113/87/112 80/43/80/104 
f 91/116/91/116 80/43/80/104 81/42/81/105 
f 104/136/104/145 88/114/88/113 82/53/82/106 
f 104/136/104/145 82/53/82/106 83/52/83/107 
f 95/120/95/122 104/137/104/146 83/60/83/123 
f 105/138/105/147 67/85/67/148 66/84/66/80 
f 105/138/105/147 66/84/66/80 98/139/98/149 
f 105/138/105/147 102/133/102/143 6/6/6/142 
f 105/138/105/147 6/6/6/142 67/85/67/148 
f 2/2/2/150 1/1/1/151 106/0/106/152 
f 2/2/2/150 106/0/106/152 107/3/107/153 
f 108/4/108/154 107/3/107/153 106/0/106/152 
f 109/7/109/155 110/6/110/156 111/5/111/157 
f 109/7/109/155 111/5/111/157 112/8/112/158 
f 112/11/112/159 111/10/111/160 113/9/113/161 
f 112/11/112/159 113/9/113/161 114/12/114/162 
f 114/12/114/162 115/14/115/163 116/13/116/164 
f 114/12/114/162 116/13/116/164 112/11/112/159 
f 14/17/14/165 13/16/13/166 115/15/115/167 
f 14/17/14/165 115/15/115/167 114/12/114/162 
f 117/19/117/168 118/18/118/169 116/13/116/164 
f 117/19/117/168 116/13/116/164 115/14/115/163 
f 118/22/118/170 119/21/119/171 120/20/120/172 
f 118/22/118/170 120/20/120/172 116/23/116/173 
f 121/140/121/174 122/141/122/175 123/142/123/176 
f 121/140/121/174 123/142/123/176 124/143/124/177 
f 125/144/125/178 126/145/126/179 122/141/122/175 
f 125/144/125/178 122/141/122/175 121/140/121/174 
f 127/146/127/180 128/147/128/181 126/145/126/179 
f 127/146/127/180 126/145/126/179 125/144/125/178 
f 129/148/129/182 130/149/130/183 128/147/128/181 
f 129/148/129/182 128/147/128/181 127/146/127/180 
f 131/38/131/184 132/37/132/185 133/36/133/186 
f 131/38/131/184 133/36/133/186 134/39/134/187 
f 135/41/135/188 136/40/136/189 132/37/132/185 
f 135/41/135/188 132/37/132/185 131/38/131/184 
f 135/41/135/188 137/43/137/190 138/42/138/191 
f 135/41/135/188 138/42/138/191 136/40/136/189 
f 137/43/137/190 139/45/139/183 140/44/140/183 
f 137/43/137/190 140/44/140/183 138/42/138/191 
f 141/48/141/192 142/47/142/193 143/46/143/194 
f 141/48/141/192 143/46/143/194 144/49/144/195 
f 145/51/145/196 146/50/146/197 142/47/142/193 
f 145/51/145/196 142/47/142/193 141/48/141/192 
f 145/51/145/196 147/53/147/198 148/52/148/199 
f 145/51/145/196 148/52/148/199 146/50/146/197 
f 147/53/147/198 149/55/149/183 150/54/150/183 
f 147/53/147/198 150/54/150/183 148/52/148/199 
f 50/58/50/200 49/57/49/201 143/56/143/202 
f 50/58/50/200 143/56/143/202 117/59/117/203 
f 118/22/118/170 146/61/146/204 148/60/148/205 
f 117/19/117/168 142/63/142/206 146/62/146/207 
f 117/19/117/168 146/62/146/207 118/18/118/169 
f 117/59/117/203 143/56/143/202 142/64/142/208 
f 123/65/123/209 151/68/151/210 52/67/52/211 
f 123/65/123/209 52/67/52/211 51/66/51/212 
f 122/69/122/213 152/70/152/214 151/68/151/210 
f 122/69/122/213 151/68/151/210 123/65/123/209 
f 153/71/153/215 152/70/152/214 122/69/122/213 
f 153/71/153/215 122/69/122/213 126/72/126/216 
f 154/73/154/217 153/71/153/215 126/72/126/216 
f 154/73/154/217 126/72/126/216 128/74/128/218 
f 134/39/134/187 57/75/57/219 52/67/52/211 
f 134/39/134/187 52/67/52/211 151/68/151/210 
f 131/38/131/184 134/39/134/187 151/68/151/210 
f 131/38/131/184 151/68/151/210 152/70/152/214 
f 135/41/135/188 131/38/131/184 152/70/152/214 
f 135/41/135/188 152/70/152/214 153/71/153/215 
f 154/73/154/217 137/43/137/190 135/41/135/188 
f 154/73/154/217 135/41/135/188 153/71/153/215 
f 144/49/144/195 59/77/59/220 58/76/58/221 
f 144/49/144/195 58/76/58/221 155/78/155/222 
f 141/48/141/192 144/49/144/195 155/78/155/222 
f 141/48/141/192 155/78/155/222 156/79/156/223 
f 145/51/145/196 141/48/141/192 156/79/156/223 
f 145/51/145/196 156/79/156/223 157/80/157/224 
f 147/53/147/198 145/51/145/196 157/80/157/224 
f 147/53/147/198 157/80/157/224 158/81/158/225 
f 155/78/155/222 58/76/58/221 64/82/64/226 
f 155/78/155/222 64/82/64/226 133/36/133/186 
f 156/79/156/223 155/78/155/222 133/36/133/186 
f 156/79/156/223 133/36/133/186 132/37/132/185 
f 157/80/157/224 156/79/156/223 132/37/132/185 
f 157/80/157/224 132/37/132/185 136/40/136/189 
f 138/42/138/191 158/81/158/225 157/80/157/224 
f 138/42/138/191 157/80/157/224 136/40/136/189 
f 159/85/159/227 160/84/160/228 161/83/161/229 
f 159/85/159/227 161/83/161/229 162/86/162/230 
f 162/89/162/231 161/88/161/232 163/87/163/233 
f 162/89/162/231 163/87/163/233 164/90/164/234 
f 106/91/106/235 1/94/1/89 71/93/72/236 
f 106/91/106/235 71/93/72/236 165/92/165/237 
f 108/95/108/238 106/91/106/235 165/92/165/237 
f 108/95/108/238 165/92/165/237 166/96/166/239 
f 110/6/110/156 159/85/159/227 162/86/162/230 
f 110/6/110/156 162/86/162/230 111/5/111/157 
f 111/10/111/160 162/89/162/231 164/90/164/234 
f 111/10/111/160 164/90/164/234 113/9/113/161 
f 165/92/165/237 163/98/163/240 161/97/161/241 
f 165/92/165/237 161/97/161/241 166/96/166/239 
f 71/93/72/236 74/100/74/242 163/99/163/243 
f 71/93/72/236 163/99/163/243 165/92/165/237 
f 109/7/109/155 112/8/112/158 116/23/116/173 
f 109/7/109/155 116/23/116/173 120/20/120/172 
f 119/21/119/171 118/22/118/170 148/60/148/205 
f 119/21/119/171 148/60/148/205 150/101/150/244 
f 167/102/167/245 154/73/154/217 128/74/128/218 
f 167/102/167/245 128/74/128/218 130/103/130/183 
f 137/43/137/190 154/73/154/217 167/102/167/245 
f 137/43/137/190 167/102/167/245 139/45/139/183 
f 147/53/147/198 158/81/158/225 168/104/168/183 
f 147/53/147/198 168/104/168/183 149/55/149/183 
f 158/81/158/225 138/42/138/191 140/44/140/183 
f 158/81/158/225 140/44/140/183 168/104/168/183 
f 108/95/108/238 166/96/166/239 169/105/169/246 
f 108/95/108/238 169/105/169/246 107/106/107/247 
f 169/105/169/246 166/96/166/239 161/108/161/248 
f 169/105/169/246 161/108/161/248 160/107/160/249 
f 170/150/170/250 130/149/130/183 129/148/129/182 
f 170/150/170/250 129/148/129/182 171/151/171/251 
f 172/43/172/252 173/42/173/253 140/44/140/254 
f 172/43/172/252 140/44/140/254 139/45/139/254 
f 174/53/174/255 175/52/175/256 150/54/150/254 
f 174/53/174/255 150/54/150/254 149/55/149/254 
f 170/74/170/257 86/112/86/258 85/111/85/259 
f 170/74/170/257 85/111/85/259 176/73/176/260 
f 85/111/85/259 87/113/87/261 172/43/172/252 
f 85/111/85/259 172/43/172/252 176/73/176/260 
f 89/115/89/262 88/114/88/263 174/53/174/255 
f 89/115/89/262 174/53/174/255 177/81/177/264 
f 91/116/91/265 89/115/89/262 177/81/177/264 
f 91/116/91/265 177/81/177/264 173/42/173/253 
f 109/7/109/266 120/20/120/267 93/118/93/268 
f 109/7/109/266 93/118/93/268 92/117/92/269 
f 175/60/175/270 95/120/95/271 94/119/94/272 
f 175/60/175/270 94/119/94/272 150/101/150/273 
f 119/21/119/274 150/101/150/273 94/119/94/272 
f 167/102/167/275 130/103/130/254 170/74/170/257 
f 167/102/167/275 170/74/170/257 176/73/176/260 
f 167/102/167/275 176/73/176/260 172/43/172/252 
f 167/102/167/275 172/43/172/252 139/45/139/254 
f 168/104/168/254 177/81/177/264 174/53/174/255 
f 168/104/168/254 174/53/174/255 149/55/149/254 
f 140/44/140/254 173/42/173/253 177/81/177/264 
f 140/44/140/254 177/81/177/264 168/104/168/254 
f 169/105/169/276 97/122/97/277 96/121/96/278 
f 169/105/169/276 96/121/96/278 107/106/107/247 
f 169/105/169/276 160/107/160/249 98/123/98/279 
f 169/105/169/276 98/123/98/279 97/122/97/277 
f 114/12/114/162 113/9/113/161 99/124/99/280 
f 114/12/114/162 99/124/99/280 14/17/14/165 
f 117/59/117/203 115/15/115/167 13/16/13/166 
f 117/59/117/203 13/16/13/166 50/58/50/200 
f 124/143/124/177 123/142/123/176 51/152/51/212 
f 124/143/124/177 51/152/51/212 100/153/100/281 
f 134/39/134/187 133/36/133/186 64/82/64/226 
f 134/39/134/187 64/82/64/226 57/75/57/219 
f 144/49/144/195 143/46/143/194 49/129/49/282 
f 144/49/144/195 49/129/49/282 59/77/59/220 
f 164/90/164/234 163/87/163/233 74/130/74/283 
f 164/90/164/234 74/130/74/283 101/131/101/284 
f 99/124/99/280 113/9/113/161 164/90/164/234 
f 99/124/99/280 164/90/164/234 101/131/101/284 
f 2/2/2/285 107/3/107/286 96/132/96/287 
f 110/6/110/288 109/7/109/266 92/117/92/269 
f 110/6/110/288 92/117/92/269 102/133/102/289 
f 120/20/120/267 119/21/119/274 94/119/94/272 
f 120/20/120/267 94/119/94/272 93/118/93/268 
f 170/150/170/250 171/151/171/251 103/154/103/290 
f 170/150/170/250 103/154/103/290 86/155/86/291 
f 91/116/91/265 173/42/173/253 172/43/172/252 
f 91/116/91/265 172/43/172/252 87/113/87/261 
f 104/136/104/292 175/52/175/256 174/53/174/255 
f 104/136/104/292 174/53/174/255 88/114/88/263 
f 95/120/95/271 175/60/175/270 104/137/104/293 
f 160/84/160/294 159/85/159/295 105/138/105/296 
f 160/84/160/294 105/138/105/296 98/139/98/149 
f 105/138/105/296 159/85/159/295 110/6/110/288 
f 105/138/105/296 110/6/110/288 102/133/102/289 
