v 463.4352 134.4115 -221.4872
v 488.6729 213.5032 -221.4872
v 488.0726 213.6947 -217.9138
v 462.835 134.603 -217.9138
gi 0 0 0 0
gw 0.0 0.0 0.0 0.0
gi 0 0 0 0
gw 0.0 0.0 0.0 0.0
gi 0 0 0 0
gw 0.0 0.0 0.0 0.0
gi 0 0 0 0
gw 0.0 0.0 0.0 0.0
vt 0.677 0.0
vt 0.6774 3.1012
vt 0.1471 3.1012
vt 0.1467 0.0
vn 0.9382 -0.2994 0.1736
vn 0.9382 -0.2994 0.1737
vn 0.9382 -0.2994 0.1737
vn 0.9382 -0.2994 0.1736
vtan 0.1654 -0.0528 -0.9848 1.0
vtan 0.1654 -0.0528 -0.9848 1.0
vtan 0.1654 -0.0528 -0.9848 1.0
vtan 0.1654 -0.0528 -0.9848 1.0
f 0/0/0/0 1/1/1/1 2/2/2/2 
f 0/0/0/0 2/2/2/2 3/3/3/3 
