v -248.8898 831.9462 198.3031
v -248.8898 842.3415 159.5071
v -247.7637 842.05 159.429
v -247.7637 831.6547 198.225
v -249.7142 832.7423 198.5164
v -249.7142 843.1378 159.7204
v -250.0159 833.8301 198.8079
v -250.0159 844.2255 160.0119
v -249.7142 834.918 199.0994
v -249.7142 845.3133 160.3033
v -248.8898 835.7141 199.3127
v -248.8898 846.1096 160.5167
v -247.7637 836.0056 199.3908
v -247.7637 846.4011 160.5948
v -246.6376 835.7141 199.3127
v -246.6376 846.1096 160.5167
v -245.8132 834.918 199.0994
v -245.8132 845.3133 160.3033
v -245.5114 833.8301 198.8079
v -245.5114 844.2255 160.0119
v -245.8132 832.7423 198.5164
v -245.8132 843.1378 159.7204
v -246.6376 831.9462 198.3031
v -246.6376 842.3415 159.5071
v -248.8898 852.7369 120.711
v -247.7637 852.4454 120.6329
v -249.7142 853.5331 120.9244
v -250.0159 854.6209 121.2159
v -249.7142 855.7087 121.5073
v -248.8898 856.5049 121.7207
v -247.7637 856.7964 121.7988
v -246.6376 856.5049 121.7207
v -245.8132 855.7087 121.5073
v -245.5114 854.6209 121.2159
v -245.8132 853.5331 120.9244
v -246.6376 852.7369 120.711
v -248.8898 863.1322 81.915
v -247.7637 862.8408 81.8369
v -249.7142 863.9285 82.1284
v -250.0159 865.0162 82.4198
v -249.7142 866.104 82.7113
v -248.8898 866.9003 82.9247
v -247.7637 867.1918 83.0028
v -246.6376 866.9003 82.9247
v -245.8132 866.104 82.7113
v -245.5114 865.0162 82.4198
v -245.8132 863.9285 82.1284
v -246.6376 863.1322 81.915
v -248.2914 884.3558 7.8765
v -247.7637 884.0615 7.7977
v -248.0684 884.1403 7.8188
v -248.2914 884.9443 8.0342
v -248.0684 885.1597 8.092
v -247.7637 885.2386 8.1131
v -247.459 885.1597 8.092
v -247.236 884.9443 8.0342
v -247.236 884.3558 7.8765
v -247.1544 884.65 7.9554
v -248.373 884.65 7.9554
v -247.459 884.1403 7.8188
v -248.8898 875.8819 34.3325
v -249.3098 876.0522 30.8866
v -247.7637 875.6521 30.7794
v -247.7637 875.5905 34.2544
v -249.7142 876.6782 34.5459
v -250.4415 877.1454 31.1795
v -250.0159 877.7659 34.8373
v -250.8558 878.6389 31.5797
v -249.7142 878.8537 35.1288
v -250.4415 880.1322 31.9798
v -248.8898 879.65 35.3422
v -249.3098 881.2255 32.2728
v -247.7637 879.9415 35.4203
v -247.7637 881.6256 32.38
v -246.6376 879.65 35.3422
v -246.2177 881.2255 32.2728
v -245.8132 878.8537 35.1288
v -245.0858 880.1322 31.9798
v -245.5114 877.7659 34.8373
v -244.6716 878.6389 31.5797
v -245.8132 876.6782 34.5459
v -245.0858 877.1454 31.1795
v -246.6376 875.8819 34.3325
v -246.2177 876.0522 30.8866
v -249.696 878.0246 20.9404
v -249.4125 880.1953 14.1419
v -247.7637 879.7686 14.0276
v -247.7637 877.5245 20.8064
v -251.1107 879.391 21.3065
v -250.6194 881.3611 14.4543
v -251.6284 881.2575 21.8067
v -251.0612 882.9537 14.8811
v -251.1107 883.1241 22.3068
v -250.6194 884.5464 15.3078
v -249.696 884.4905 22.6729
v -249.4125 885.7122 15.6202
v -247.7637 884.9906 22.807
v -247.7637 886.139 15.7345
v -245.8313 884.4905 22.6729
v -246.1149 885.7122 15.6202
v -244.4167 883.1241 22.3068
v -244.9079 884.5464 15.3078
v -243.8989 881.2575 21.8067
v -244.4661 882.9537 14.8811
v -244.4167 879.391 21.3065
v -244.9079 881.3611 14.4543
v -245.8313 878.0246 20.9404
v -246.1149 880.1953 14.1419
v -249.2929 876.9532 27.6365
v -247.7637 876.5574 27.5304
v -250.4124 878.0346 27.9262
v -250.8222 879.5117 28.322
v -250.4124 880.9889 28.7178
v -249.2929 882.0702 29.0076
v -247.7637 882.466 29.1136
v -246.2344 882.0702 29.0076
v -245.1149 880.9889 28.7178
v -244.7052 879.5117 28.322
v -245.1149 878.0346 27.9262
v -246.2344 876.9532 27.6365
vt 0.9633 0.0053
vt 0.9633 0.5241
vt 0.9876 0.5241
vt 0.9876 0.0053
vt 0.9391 0.0053
vt 0.9391 0.5241
vt 0.9148 0.0053
vt 0.9148 0.5241
vt 0.8906 0.0053
vt 0.8906 0.5241
vt 0.8663 0.0053
vt 0.8663 0.5241
vt 0.8421 0.0053
vt 0.8421 0.5241
vt 0.8178 0.0053
vt 0.8178 0.5241
vt 0.7936 0.0053
vt 0.7936 0.5241
vt 0.7694 0.0053
vt 0.7694 0.5241
vt 0.7451 0.0053
vt 0.7451 0.5241
vt 0.7209 0.0053
vt 0.7209 0.5241
vt 0.6966 0.0053
vt 0.6966 0.5241
vt 0.9918 0.0129
vt 0.9633 0.6416
vt 0.9633 0.6851
vt 0.9876 0.6851
vt 0.9876 0.6416
vt 0.9391 0.6416
vt 0.9391 0.6851
vt 0.9148 0.6416
vt 0.9148 0.6851
vt 0.8906 0.6416
vt 0.8906 0.6851
vt 0.8663 0.6416
vt 0.8663 0.6851
vt 0.8421 0.6416
vt 0.8421 0.6851
vt 0.8178 0.6416
vt 0.8178 0.6851
vt 0.7936 0.6416
vt 0.7936 0.6851
vt 0.7694 0.6416
vt 0.7694 0.6851
vt 0.7451 0.6416
vt 0.7451 0.6851
vt 0.7209 0.6416
vt 0.7209 0.6851
vt 0.6966 0.6416
vt 0.6966 0.6851
vt 0.9633 0.8158
vt 0.9633 0.9029
vt 0.9876 0.9029
vt 0.9876 0.8158
vt 0.9391 0.8158
vt 0.9391 0.9029
vt 0.9148 0.8158
vt 0.9148 0.9029
vt 0.8906 0.8158
vt 0.8906 0.9029
vt 0.8663 0.8158
vt 0.8663 0.9029
vt 0.8421 0.8158
vt 0.8421 0.9029
vt 0.8178 0.8158
vt 0.8178 0.9029
vt 0.7936 0.8158
vt 0.7936 0.9029
vt 0.7694 0.8158
vt 0.7694 0.9029
vt 0.7451 0.8158
vt 0.7451 0.9029
vt 0.7209 0.8158
vt 0.7209 0.9029
vt 0.6966 0.8158
vt 0.6966 0.9029
vt 0.9633 0.99
vt 0.9876 0.99
vt 0.9391 0.99
vt 0.9148 0.99
vt 0.8906 0.99
vt 0.8663 0.99
vt 0.8421 0.99
vt 0.8178 0.99
vt 0.7936 0.99
vt 0.7694 0.99
vt 0.7451 0.99
vt 0.7209 0.99
vt 0.6966 0.99
vt 0.9633 0.7287
vt 0.9876 0.7287
vt 0.9391 0.7287
vt 0.9148 0.7287
vt 0.8906 0.7287
vt 0.8663 0.7287
vt 0.8421 0.7287
vt 0.8178 0.7287
vt 0.7936 0.7287
vt 0.7694 0.7287
vt 0.7451 0.7287
vt 0.7209 0.7287
vt 0.6966 0.7287
vn -0.5 -0.8365 -0.2241
vn -0.5 -0.8365 -0.2241
vn 0.0 -0.9659 -0.2588
vn -0.0 -0.9659 -0.2588
vn -0.866 -0.483 -0.1294
vn -0.866 -0.483 -0.1294
vn -1.0 0.0 -0.0
vn -1.0 -0.0 -0.0
vn -0.866 0.483 0.1294
vn -0.866 0.4829 0.1294
vn -0.5 0.8365 0.2241
vn -0.5 0.8365 0.2241
vn -0.0 0.9659 0.2588
vn 0.0 0.9659 0.2588
vn 0.5 0.8365 0.2241
vn 0.5 0.8365 0.2241
vn 0.866 0.483 0.1294
vn 0.866 0.483 0.1294
vn 1.0 0.0 0.0
vn 1.0 0.0 -0.0
vn 0.866 -0.483 -0.1294
vn 0.866 -0.483 -0.1294
vn 0.5 -0.8365 -0.2241
vn 0.5 -0.8365 -0.2241
vn -0.5 -0.8365 -0.2241
vn -0.0 -0.9659 -0.2588
vn -0.866 -0.483 -0.1294
vn -1.0 0.0 0.0
vn -0.866 0.483 0.1294
vn -0.5 0.8365 0.2241
vn -0.0 0.9659 0.2588
vn 0.5 0.8365 0.2241
vn 0.866 0.483 0.1294
vn 1.0 0.0 0.0
vn 0.866 -0.483 -0.1294
vn 0.5 -0.8365 -0.2241
vn -0.5 -0.8365 -0.2241
vn -0.0 -0.9659 -0.2588
vn -0.866 -0.483 -0.1294
vn -1.0 -0.0 -0.0
vn -0.866 0.4829 0.1294
vn -0.5 0.8365 0.2241
vn -0.0 0.9659 0.2588
vn 0.5 0.8365 0.2241
vn 0.866 0.483 0.1294
vn 1.0 0.0 -0.0
vn 0.866 -0.483 -0.1294
vn 0.5 -0.8365 -0.2241
vn -0.5448 -0.1049 -0.832
vn -0.0 -0.4122 -0.9111
vn -0.3155 -0.3296 -0.8899
vn -0.5401 0.5015 -0.6759
vn -0.3109 0.7211 -0.6192
vn -0.0 0.8009 -0.5987
vn 0.3109 0.7211 -0.6191
vn 0.5401 0.5015 -0.6758
vn 0.5448 -0.1049 -0.832
vn 0.6265 0.1996 -0.7534
vn -0.6265 0.1996 -0.7534
vn 0.3155 -0.3297 -0.8898
vn -0.4961 -0.8622 -0.1024
vn -0.4967 -0.8606 -0.1121
vn 0.0 -0.9892 -0.1466
vn -0.0 -0.9906 -0.1368
vn -0.8593 -0.5114 -0.0084
vn -0.8603 -0.5094 -0.018
vn -0.9923 -0.0322 0.12
vn -0.9934 -0.0296 0.1105
vn -0.8593 0.4471 0.2484
vn -0.8603 0.4502 0.2391
vn -0.4962 0.7979 0.3424
vn -0.4967 0.8014 0.3332
vn 0.0 0.9263 0.3768
vn 0.0 0.93 0.3676
vn 0.4962 0.7979 0.3424
vn 0.4967 0.8014 0.3332
vn 0.8593 0.4471 0.2484
vn 0.8603 0.4502 0.2391
vn 0.9923 -0.0322 0.12
vn 0.9934 -0.0296 0.1105
vn 0.8593 -0.5114 -0.0084
vn 0.8603 -0.5094 -0.018
vn 0.4961 -0.8622 -0.1024
vn 0.4967 -0.8607 -0.1121
vn -0.5005 -0.8432 -0.1963
vn -0.49 -0.7694 -0.4097
vn -0.0 -0.8974 -0.4413
vn -0.0 -0.9733 -0.2296
vn -0.8665 -0.488 -0.1051
vn -0.8477 -0.4204 -0.3236
vn -0.9998 -0.0033 0.0192
vn -0.977 0.0548 -0.2063
vn -0.8652 0.4805 0.1434
vn -0.8444 0.5282 -0.0895
vn -0.4992 0.8342 0.2342
vn -0.4868 0.8735 -0.0042
vn -0.0 0.9636 0.2674
vn -0.0 0.9996 0.0269
vn 0.4992 0.8342 0.2342
vn 0.4868 0.8735 -0.0042
vn 0.8652 0.4805 0.1434
vn 0.8444 0.5282 -0.0895
vn 0.9998 -0.0033 0.0192
vn 0.977 0.0548 -0.2063
vn 0.8665 -0.488 -0.1051
vn 0.8476 -0.4204 -0.3236
vn 0.5005 -0.8432 -0.1963
vn 0.49 -0.7694 -0.4097
vn -0.4993 -0.8495 -0.1706
vn -0.0 -0.9787 -0.2052
vn -0.8647 -0.4965 -0.076
vn -0.9985 -0.0143 0.0532
vn -0.8647 0.468 0.1824
vn -0.4992 0.821 0.277
vn -0.0 0.9502 0.3116
vn 0.4992 0.821 0.277
vn 0.8647 0.468 0.1824
vn 0.9985 -0.0142 0.0532
vn 0.8647 -0.4965 -0.076
vn 0.4993 -0.8495 -0.1706
vtan 0.866 -0.4829 -0.1294 -1.0
vtan 0.866 -0.483 -0.1294 -1.0
vtan 1.0 0.0 0.0 -1.0
vtan 1.0 -0.0 0.0 -1.0
vtan 0.5 -0.8365 -0.2241 -1.0
vtan 0.5 -0.8365 -0.2241 -1.0
vtan -0.0 -0.9659 -0.2588 -1.0
vtan 0.0 -0.9659 -0.2588 -1.0
vtan -0.5 -0.8365 -0.2241 -1.0
vtan -0.5 -0.8365 -0.2241 -1.0
vtan -0.866 -0.4829 -0.1294 -1.0
vtan -0.866 -0.483 -0.1294 -1.0
vtan -1.0 -0.0 -0.0 -1.0
vtan -1.0 0.0 0.0 -1.0
vtan -0.866 0.4829 0.1294 -1.0
vtan -0.866 0.483 0.1294 -1.0
vtan -0.5001 0.8365 0.2241 -1.0
vtan -0.5 0.8365 0.2241 -1.0
vtan -0.0 0.9659 0.2588 -1.0
vtan -0.0 0.9659 0.2588 -1.0
vtan 0.5001 0.8365 0.2241 -1.0
vtan 0.5 0.8365 0.2241 -1.0
vtan 0.866 0.4829 0.1294 -1.0
vtan 0.866 0.483 0.1294 -1.0
vtan 1.0 -0.0 -0.0 -1.0
vtan 1.0 0.0 0.0 -1.0
vtan 0.866 -0.483 -0.1294 -1.0
vtan 0.866 -0.483 -0.1294 -1.0
vtan 1.0 -0.0 0.0 -1.0
vtan 1.0 0.0 -0.0 -1.0
vtan 0.5 -0.8365 -0.2241 -1.0
vtan 0.5 -0.8365 -0.2242 -1.0
vtan 0.0 -0.9659 -0.2588 -1.0
vtan -0.0 -0.9659 -0.2588 -1.0
vtan -0.5 -0.8365 -0.2241 -1.0
vtan -0.5 -0.8365 -0.2241 -1.0
vtan -0.866 -0.483 -0.1294 -1.0
vtan -0.866 -0.483 -0.1294 -1.0
vtan -1.0 0.0 0.0 -1.0
vtan -1.0 -0.0 0.0 -1.0
vtan -0.866 0.483 0.1294 -1.0
vtan -0.866 0.483 0.1294 -1.0
vtan -0.5 0.8365 0.2241 -1.0
vtan -0.5 0.8365 0.2241 -1.0
vtan -0.0 0.9659 0.2588 -1.0
vtan -0.0 0.9659 0.2588 -1.0
vtan 0.5 0.8365 0.2241 -1.0
vtan 0.5001 0.8365 0.2242 -1.0
vtan 0.866 0.483 0.1294 -1.0
vtan 0.866 0.4829 0.1294 -1.0
vtan 1.0 0.0 0.0 -1.0
vtan 1.0 0.0 -0.0 -1.0
vtan 0.866 -0.4829 -0.1294 -1.0
vtan 0.866 -0.4829 -0.1294 -1.0
vtan 1.0 0.0 -0.0 -1.0
vtan 1.0 -0.0 0.0 -1.0
vtan 0.5 -0.8365 -0.2242 -1.0
vtan 0.5 -0.8365 -0.2241 -1.0
vtan -0.0 -0.9659 -0.2588 -1.0
vtan 0.0 -0.9659 -0.2588 -1.0
vtan -0.5 -0.8365 -0.2241 -1.0
vtan -0.5 -0.8365 -0.2242 -1.0
vtan -0.866 -0.483 -0.1294 -1.0
vtan -0.866 -0.483 -0.1294 -1.0
vtan -1.0 -0.0 -0.0 -1.0
vtan -1.0 -0.0 0.0 -1.0
vtan -0.866 0.483 0.1294 -1.0
vtan -0.866 0.483 0.1294 -1.0
vtan -0.5 0.8365 0.2241 -1.0
vtan -0.5 0.8365 0.2242 -1.0
vtan -0.0 0.9659 0.2588 -1.0
vtan 0.0 0.9659 0.2588 -1.0
vtan 0.5001 0.8365 0.2242 -1.0
vtan 0.5 0.8365 0.2241 -1.0
vtan 0.866 0.4829 0.1294 -1.0
vtan 0.866 0.4829 0.1294 -1.0
vtan 1.0 0.0 -0.0 -1.0
vtan 1.0 -0.0 0.0 -1.0
vtan 1.0 0.0 0.0 -1.0
vtan 0.866 -0.4829 -0.1294 -1.0
vtan 0.866 -0.483 -0.1294 -1.0
vtan 0.9995 0.0045 -0.0303 -1.0
vtan 0.9994 0.0046 -0.033 -1.0
vtan 0.5 -0.8365 -0.2241 -1.0
vtan 0.5 -0.8365 -0.2241 -1.0
vtan 0.0 -0.9659 -0.2588 -1.0
vtan -0.0 -0.9659 -0.2588 -1.0
vtan -0.5 -0.8365 -0.2242 -1.0
vtan -0.5 -0.8365 -0.2242 -1.0
vtan -0.866 -0.483 -0.1294 -1.0
vtan -0.866 -0.483 -0.1294 -1.0
vtan -1.0 0.0 0.0 -1.0
vtan -1.0 0.0 0.0 -1.0
vtan -0.866 0.483 0.1294 -1.0
vtan -0.866 0.4829 0.1294 -1.0
vtan -0.5 0.8365 0.2242 -1.0
vtan -0.5 0.8365 0.2242 -1.0
vtan 0.0 0.9659 0.2588 -1.0
vtan -0.0 0.9659 0.2588 -1.0
vtan 0.5 0.8365 0.2241 -1.0
vtan 0.5 0.8365 0.2241 -1.0
vtan 0.866 0.4829 0.1294 -1.0
vtan 0.866 0.4829 0.1294 -1.0
vtan 0.9994 -0.0046 0.033 -1.0
vtan 0.9995 -0.0045 0.0303 -1.0
vtan 0.8656 -0.4837 -0.1296 -1.0
vtan 0.8661 -0.4828 -0.1293 -1.0
vtan 0.9987 -0.0229 0.0466 -1.0
vtan 1.0 0.0018 -0.0078 -1.0
vtan 0.4987 -0.8372 -0.2243 -1.0
vtan 0.5003 -0.8363 -0.2241 -1.0
vtan -0.0017 -0.9659 -0.2588 -1.0
vtan 0.0005 -0.9659 -0.2587 -1.0
vtan -0.5013 -0.8358 -0.2239 -1.0
vtan -0.4996 -0.8368 -0.2241 -1.0
vtan -0.8665 -0.4822 -0.1292 -1.0
vtan -0.8659 -0.4832 -0.1294 -1.0
vtan -1.0 -0.0 -0.0 -1.0
vtan -1.0 -0.0 0.0 -1.0
vtan -0.8665 0.4822 0.1292 -1.0
vtan -0.8659 0.4832 0.1294 -1.0
vtan -0.5013 0.8358 0.2239 -1.0
vtan -0.4996 0.8367 0.2241 -1.0
vtan -0.0017 0.9659 0.2588 -1.0
vtan 0.0005 0.9659 0.2587 -1.0
vtan 0.4987 0.8372 0.2243 -1.0
vtan 0.5004 0.8363 0.224 -1.0
vtan 0.8656 0.4837 0.1296 -1.0
vtan 0.8662 0.4828 0.1293 -1.0
vtan 1.0 -0.0019 0.0078 -1.0
vtan 0.9987 0.0229 -0.0466 -1.0
vtan 0.8669 -0.4816 -0.129 -1.0
vtan 0.9792 -0.1848 0.0836 -1.0
vtan 0.5025 -0.8352 -0.2237 -1.0
vtan 0.0034 -0.966 -0.2587 -1.0
vtan -0.4974 -0.838 -0.2244 -1.0
vtan -0.8651 -0.4845 -0.1297 -1.0
vtan -1.0 0.0 0.0 -1.0
vtan -0.8651 0.4845 0.1297 -1.0
vtan -0.4973 0.838 0.2244 -1.0
vtan 0.0033 0.9659 0.2587 -1.0
vtan 0.5025 0.8352 0.2237 -1.0
vtan 0.8669 0.4816 0.1289 -1.0
vtan 0.9792 0.1847 -0.0836 -1.0
vtan 0.866 -0.483 -0.1294 -1.0
vtan 0.9999 0.003 -0.0145 -1.0
vtan 0.5 -0.8365 -0.2241 -1.0
vtan 0.0 -0.9659 -0.2588 -1.0
vtan -0.5 -0.8365 -0.2242 -1.0
vtan -0.866 -0.483 -0.1294 -1.0
vtan -1.0 -0.0 -0.0 -1.0
vtan -0.866 0.483 0.1294 -1.0
vtan -0.5 0.8365 0.2242 -1.0
vtan -0.0 0.9659 0.2588 -1.0
vtan 0.5 0.8365 0.2241 -1.0
vtan 0.866 0.483 0.1294 -1.0
vtan 0.9999 -0.003 0.0145 -1.0
vtan 0.866 -0.4829 -0.1294 -1.0
vtan 1.0 0.0 -0.0 -1.0
vtan 0.5 -0.8365 -0.2241 -1.0
vtan 0.0 -0.9659 -0.2588 -1.0
vtan -0.5 -0.8365 -0.2242 -1.0
vtan -0.866 -0.483 -0.1294 -1.0
vtan -1.0 -0.0 -0.0 -1.0
vtan -0.866 0.483 0.1294 -1.0
vtan -0.5 0.8365 0.2242 -1.0
vtan 0.0 0.9659 0.2588 -1.0
vtan 0.5 0.8365 0.2241 -1.0
vtan 0.866 0.4829 0.1294 -1.0
vtan 1.0 -0.0 0.0 -1.0
f 0/0/0/0 1/1/1/1 2/2/2/2 
f 0/0/0/0 2/2/2/2 3/3/3/3 
f 1/1/1/1 0/0/0/0 4/4/4/4 
f 1/1/1/1 4/4/4/4 5/5/5/5 
f 6/6/6/6 7/7/7/7 5/5/5/5 
f 6/6/6/6 5/5/5/5 4/4/4/4 
f 8/8/8/8 9/9/9/9 7/7/7/7 
f 8/8/8/8 7/7/7/7 6/6/6/6 
f 10/10/10/10 11/11/11/11 9/9/9/9 
f 10/10/10/10 9/9/9/9 8/8/8/8 
f 12/12/12/12 13/13/13/13 11/11/11/11 
f 12/12/12/12 11/11/11/11 10/10/10/10 
f 14/14/14/14 15/15/15/15 13/13/13/13 
f 14/14/14/14 13/13/13/13 12/12/12/12 
f 16/16/16/16 17/17/17/17 15/15/15/15 
f 16/16/16/16 15/15/15/15 14/14/14/14 
f 18/18/18/18 19/19/19/19 17/17/17/17 
f 18/18/18/18 17/17/17/17 16/16/16/16 
f 20/20/20/20 21/21/21/21 19/19/19/19 
f 20/20/20/20 19/19/19/19 18/18/18/18 
f 22/22/22/22 23/23/23/23 21/21/21/21 
f 22/22/22/22 21/21/21/21 20/20/20/20 
f 3/24/3/24 2/25/2/25 23/23/23/23 
f 3/24/3/24 23/23/23/23 22/22/22/22 
f 1/0/1/26 24/1/24/27 25/2/25/28 
f 1/0/1/26 25/2/25/28 2/3/2/29 
f 5/4/5/30 26/5/26/31 24/1/24/27 
f 5/4/5/30 24/1/24/27 1/0/1/26 
f 7/6/7/32 27/7/27/33 26/5/26/31 
f 7/6/7/32 26/5/26/31 5/4/5/30 
f 9/8/9/34 28/9/28/35 27/7/27/33 
f 9/8/9/34 27/7/27/33 7/6/7/32 
f 11/10/11/36 29/11/29/37 28/9/28/35 
f 11/10/11/36 28/9/28/35 9/8/9/34 
f 13/12/13/38 30/13/30/39 29/11/29/37 
f 13/12/13/38 29/11/29/37 11/10/11/36 
f 15/14/15/40 31/15/31/41 30/13/30/39 
f 15/14/15/40 30/13/30/39 13/12/13/38 
f 17/16/17/42 32/17/32/43 31/15/31/41 
f 17/16/17/42 31/15/31/41 15/14/15/40 
f 19/18/19/44 33/19/33/45 32/17/32/43 
f 19/18/19/44 32/17/32/43 17/16/17/42 
f 21/20/21/46 34/21/34/47 33/19/33/45 
f 21/20/21/46 33/19/33/45 19/18/19/44 
f 23/22/23/48 35/23/35/49 34/21/34/47 
f 23/22/23/48 34/21/34/47 21/20/21/46 
f 2/24/2/50 25/25/25/51 35/23/35/49 
f 2/24/2/50 35/23/35/49 23/22/23/48 
f 24/0/24/52 36/1/36/53 37/2/37/54 
f 24/0/24/52 37/2/37/54 25/3/25/55 
f 26/4/26/56 38/5/38/57 36/1/36/53 
f 26/4/26/56 36/1/36/53 24/0/24/52 
f 27/6/27/58 39/7/39/59 38/5/38/57 
f 27/6/27/58 38/5/38/57 26/4/26/56 
f 28/8/28/60 40/9/40/61 39/7/39/59 
f 28/8/28/60 39/7/39/59 27/6/27/58 
f 29/10/29/62 41/11/41/63 40/9/40/61 
f 29/10/29/62 40/9/40/61 28/8/28/60 
f 30/12/30/64 42/13/42/65 41/11/41/63 
f 30/12/30/64 41/11/41/63 29/10/29/62 
f 31/14/31/66 43/15/43/67 42/13/42/65 
f 31/14/31/66 42/13/42/65 30/12/30/64 
f 32/16/32/68 44/17/44/69 43/15/43/67 
f 32/16/32/68 43/15/43/67 31/14/31/66 
f 33/18/33/70 45/19/45/71 44/17/44/69 
f 33/18/33/70 44/17/44/69 32/16/32/68 
f 34/20/34/72 46/21/46/73 45/19/45/71 
f 34/20/34/72 45/19/45/71 33/18/33/70 
f 35/22/35/74 47/23/47/75 46/21/46/73 
f 35/22/35/74 46/21/46/73 34/20/34/72 
f 25/24/25/76 37/25/37/77 47/23/47/75 
f 25/24/25/76 47/23/47/75 35/22/35/74 
f 48/26/48/78 49/26/49/78 50/26/50/78 
f 51/26/51/78 52/26/52/78 53/26/53/78 
f 51/26/51/78 53/26/53/78 48/26/48/78 
f 53/26/53/78 54/26/54/78 55/26/55/78 
f 53/26/53/78 55/26/55/78 56/26/56/78 
f 55/26/55/78 57/26/57/78 56/26/56/78 
f 56/26/56/78 49/26/49/78 48/26/48/78 
f 56/26/56/78 48/26/48/78 53/26/53/78 
f 58/26/58/78 51/26/51/78 48/26/48/78 
f 59/26/59/78 49/26/49/78 56/26/56/78 
f 60/27/60/79 61/28/61/80 62/29/62/81 
f 60/27/60/79 62/29/62/81 63/30/63/82 
f 64/31/64/83 65/32/65/84 61/28/61/80 
f 64/31/64/83 61/28/61/80 60/27/60/79 
f 66/33/66/85 67/34/67/86 65/32/65/84 
f 66/33/66/85 65/32/65/84 64/31/64/83 
f 68/35/68/87 69/36/69/88 67/34/67/86 
f 68/35/68/87 67/34/67/86 66/33/66/85 
f 70/37/70/89 71/38/71/90 69/36/69/88 
f 70/37/70/89 69/36/69/88 68/35/68/87 
f 72/39/72/91 73/40/73/92 71/38/71/90 
f 72/39/72/91 71/38/71/90 70/37/70/89 
f 74/41/74/93 75/42/75/94 73/40/73/92 
f 74/41/74/93 73/40/73/92 72/39/72/91 
f 76/43/76/95 77/44/77/96 75/42/75/94 
f 76/43/76/95 75/42/75/94 74/41/74/93 
f 78/45/78/97 79/46/79/98 77/44/77/96 
f 78/45/78/97 77/44/77/96 76/43/76/95 
f 80/47/80/99 81/48/81/100 79/46/79/98 
f 80/47/80/99 79/46/79/98 78/45/78/97 
f 82/49/82/101 83/50/83/102 81/48/81/100 
f 82/49/82/101 81/48/81/100 80/47/80/99 
f 63/51/63/103 62/52/62/104 83/50/83/102 
f 63/51/63/103 83/50/83/102 82/49/82/101 
f 84/53/84/105 85/54/85/106 86/55/86/107 
f 84/53/84/105 86/55/86/107 87/56/87/108 
f 84/53/84/105 88/57/88/109 89/58/89/110 
f 84/53/84/105 89/58/89/110 85/54/85/106 
f 88/57/88/109 90/59/90/111 91/60/91/112 
f 88/57/88/109 91/60/91/112 89/58/89/110 
f 90/59/90/111 92/61/92/113 93/62/93/114 
f 90/59/90/111 93/62/93/114 91/60/91/112 
f 92/61/92/113 94/63/94/115 95/64/95/116 
f 92/61/92/113 95/64/95/116 93/62/93/114 
f 96/65/96/117 97/66/97/118 95/64/95/116 
f 96/65/96/117 95/64/95/116 94/63/94/115 
f 98/67/98/119 99/68/99/120 97/66/97/118 
f 98/67/98/119 97/66/97/118 96/65/96/117 
f 100/69/100/121 101/70/101/122 99/68/99/120 
f 100/69/100/121 99/68/99/120 98/67/98/119 
f 102/71/102/123 103/72/103/124 101/70/101/122 
f 102/71/102/123 101/70/101/122 100/69/100/121 
f 104/73/104/125 105/74/105/126 103/72/103/124 
f 104/73/104/125 103/72/103/124 102/71/102/123 
f 106/75/106/127 107/76/107/128 105/74/105/126 
f 106/75/106/127 105/74/105/126 104/73/104/125 
f 87/77/87/129 86/78/86/130 107/76/107/128 
f 87/77/87/129 107/76/107/128 106/75/106/127 
f 85/54/85/106 50/79/50/131 49/80/49/132 
f 85/54/85/106 49/80/49/132 86/55/86/107 
f 89/58/89/110 48/81/48/133 50/79/50/131 
f 89/58/89/110 50/79/50/131 85/54/85/106 
f 89/58/89/110 91/60/91/112 58/82/58/134 
f 89/58/89/110 58/82/58/134 48/81/48/133 
f 91/60/91/112 93/62/93/114 51/83/51/135 
f 91/60/91/112 51/83/51/135 58/82/58/134 
f 95/64/95/116 52/84/52/136 51/83/51/135 
f 95/64/95/116 51/83/51/135 93/62/93/114 
f 97/66/97/118 53/85/53/137 52/84/52/136 
f 97/66/97/118 52/84/52/136 95/64/95/116 
f 99/68/99/120 54/86/54/138 53/85/53/137 
f 99/68/99/120 53/85/53/137 97/66/97/118 
f 101/70/101/122 55/87/55/139 54/86/54/138 
f 101/70/101/122 54/86/54/138 99/68/99/120 
f 103/72/103/124 57/88/57/140 55/87/55/139 
f 103/72/103/124 55/87/55/139 101/70/101/122 
f 105/74/105/126 56/89/56/141 57/88/57/140 
f 105/74/105/126 57/88/57/140 103/72/103/124 
f 107/76/107/128 59/90/59/142 56/89/56/141 
f 107/76/107/128 56/89/56/141 105/74/105/126 
f 86/78/86/130 49/91/49/143 59/90/59/142 
f 86/78/86/130 59/90/59/142 107/76/107/128 
f 108/92/108/144 84/53/84/105 87/56/87/108 
f 108/92/108/144 87/56/87/108 109/93/109/145 
f 110/94/110/146 88/57/88/109 84/53/84/105 
f 110/94/110/146 84/53/84/105 108/92/108/144 
f 111/95/111/147 90/59/90/111 88/57/88/109 
f 111/95/111/147 88/57/88/109 110/94/110/146 
f 112/96/112/148 92/61/92/113 90/59/90/111 
f 112/96/112/148 90/59/90/111 111/95/111/147 
f 113/97/113/149 94/63/94/115 92/61/92/113 
f 113/97/113/149 92/61/92/113 112/96/112/148 
f 114/98/114/150 96/65/96/117 94/63/94/115 
f 114/98/114/150 94/63/94/115 113/97/113/149 
f 115/99/115/151 98/67/98/119 96/65/96/117 
f 115/99/115/151 96/65/96/117 114/98/114/150 
f 116/100/116/152 100/69/100/121 98/67/98/119 
f 116/100/116/152 98/67/98/119 115/99/115/151 
f 117/101/117/153 102/71/102/123 100/69/100/121 
f 117/101/117/153 100/69/100/121 116/100/116/152 
f 118/102/118/154 104/73/104/125 102/71/102/123 
f 118/102/118/154 102/71/102/123 117/101/117/153 
f 119/103/119/155 106/75/106/127 104/73/104/125 
f 119/103/119/155 104/73/104/125 118/102/118/154 
f 109/104/109/156 87/77/87/129 106/75/106/127 
f 109/104/109/156 106/75/106/127 119/103/119/155 
f 61/28/61/80 108/92/108/144 109/93/109/145 
f 61/28/61/80 109/93/109/145 62/29/62/81 
f 65/32/65/84 110/94/110/146 108/92/108/144 
f 65/32/65/84 108/92/108/144 61/28/61/80 
f 67/34/67/86 111/95/111/147 110/94/110/146 
f 67/34/67/86 110/94/110/146 65/32/65/84 
f 69/36/69/88 112/96/112/148 111/95/111/147 
f 69/36/69/88 111/95/111/147 67/34/67/86 
f 71/38/71/90 113/97/113/149 112/96/112/148 
f 71/38/71/90 112/96/112/148 69/36/69/88 
f 73/40/73/92 114/98/114/150 113/97/113/149 
f 73/40/73/92 113/97/113/149 71/38/71/90 
f 75/42/75/94 115/99/115/151 114/98/114/150 
f 75/42/75/94 114/98/114/150 73/40/73/92 
f 77/44/77/96 116/100/116/152 115/99/115/151 
f 77/44/77/96 115/99/115/151 75/42/75/94 
f 79/46/79/98 117/101/117/153 116/100/116/152 
f 79/46/79/98 116/100/116/152 77/44/77/96 
f 81/48/81/100 118/102/118/154 117/101/117/153 
f 81/48/81/100 117/101/117/153 79/46/79/98 
f 83/50/83/102 119/103/119/155 118/102/118/154 
f 83/50/83/102 118/102/118/154 81/48/81/100 
f 62/52/62/104 109/104/109/156 119/103/119/155 
f 62/52/62/104 119/103/119/155 83/50/83/102 
f 36/0/36/157 60/27/60/79 63/30/63/82 
f 36/0/36/157 63/30/63/82 37/3/37/158 
f 38/4/38/159 64/31/64/83 60/27/60/79 
f 38/4/38/159 60/27/60/79 36/0/36/157 
f 39/6/39/160 66/33/66/85 64/31/64/83 
f 39/6/39/160 64/31/64/83 38/4/38/159 
f 40/8/40/161 68/35/68/87 66/33/66/85 
f 40/8/40/161 66/33/66/85 39/6/39/160 
f 41/10/41/162 70/37/70/89 68/35/68/87 
f 41/10/41/162 68/35/68/87 40/8/40/161 
f 42/12/42/163 72/39/72/91 70/37/70/89 
f 42/12/42/163 70/37/70/89 41/10/41/162 
f 43/14/43/164 74/41/74/93 72/39/72/91 
f 43/14/43/164 72/39/72/91 42/12/42/163 
f 44/16/44/165 76/43/76/95 74/41/74/93 
f 44/16/44/165 74/41/74/93 43/14/43/164 
f 45/18/45/166 78/45/78/97 76/43/76/95 
f 45/18/45/166 76/43/76/95 44/16/44/165 
f 46/20/46/167 80/47/80/99 78/45/78/97 
f 46/20/46/167 78/45/78/97 45/18/45/166 
f 47/22/47/168 82/49/82/101 80/47/80/99 
f 47/22/47/168 80/47/80/99 46/20/46/167 
f 37/24/37/169 63/51/63/103 82/49/82/101 
f 37/24/37/169 82/49/82/101 47/22/47/168 
