v -1030.054 985.1605 -17.0795
v -1002.3765 985.1605 -17.0795
v -1002.3765 921.7285 -17.0794
v -1030.054 921.7285 -17.0794
v -996.5863 1005.7256 7.8661
v -996.5863 1008.8364 10.977
v -996.5863 921.7285 10.9768
v -996.5863 921.7285 7.866
v -1030.054 1008.8364 10.977
v -1030.054 921.7285 10.9768
v -1002.3765 1000.9758 3.1164
v -1002.3765 921.7285 3.1163
v -1002.3765 985.1605 -35.601
v -1002.3765 1000.9758 -35.601
v -996.5863 1005.7256 -35.601
v -1030.054 985.1605 -35.601
v -996.5863 1008.8364 -35.601
v -1030.054 1008.8364 -35.601
v -1002.3765 921.7285 -54.1227
v -1002.3765 985.1605 -54.1226
v -1030.054 985.1605 -54.1226
v -1030.054 921.7285 -54.1227
v -996.5863 921.7285 -79.3525
v -996.5863 1008.8364 -79.3526
v -996.5863 1005.7256 -76.2417
v -996.5863 921.7285 -76.2417
v -1030.054 1008.8364 -79.3526
v -1030.054 921.7285 -79.3525
v -1002.3765 921.7285 -71.4921
v -1002.3765 1000.9758 -71.492
vt 0.7878 0.0638
vt 0.7878 0.1543
vt 0.9965 0.1543
vt 0.9965 0.0638
vt 0.7384 0.2067
vt 0.7282 0.2169
vt 0.9965 0.2169
vt 0.9965 0.2067
vt 0.7282 0.3263
vt 0.9965 0.3263
vt 0.7541 0.1878
vt 0.9965 0.1878
vt 0.8487 0.1543
vt 0.8487 0.1878
vt 0.8487 0.2067
vt 0.8487 0.0638
vt 0.8487 0.2169
vt 0.8487 0.3263
vn 0.0 -0.7071 -0.7071
vn 0.9045 -0.3015 -0.3015
vn 0.7071 -0.0 -0.7071
vn 0.0 -0.0 -1.0
vn 0.9836 -0.1277 -0.1277
vn 0.5774 0.5773 0.5773
vn 0.7071 -0.0 0.7071
vn 0.9039 0.0 -0.4277
vn 0.0 0.7071 0.7071
vn 0.0 -0.0 1.0
vn 0.8778 -0.3387 -0.3387
vn 0.9039 0.0 -0.4277
vn 0.7071 -0.7071 0.0
vn 0.9039 -0.4276 0.0
vn 0.9039 -0.4276 0.0
vn 0.0 -1.0 0.0
vn 0.7071 0.7071 0.0
vn 0.0 1.0 0.0
vn 0.7071 -0.0 0.7071
vn 0.9045 -0.3015 0.3015
vn 0.0 -0.7071 0.7071
vn 0.0 -0.0 1.0
vn 0.7071 -0.0 -0.7071
vn 0.5774 0.5774 -0.5773
vn 0.9836 -0.1277 0.1277
vn 0.9039 -0.0 0.4277
vn 0.0 0.7071 -0.7071
vn 0.0 -0.0 -1.0
vn 0.9039 -0.0 0.4277
vn 0.8778 -0.3387 0.3387
vtan 0.0 -0.7071 0.7071 -1.0
vtan -0.286 -0.9535 0.0953 -1.0
vtan -0.0 -1.0 0.0 -1.0
vtan 0.0 -1.0 0.0 -1.0
vtan -0.1267 -0.9918 0.0164 -1.0
vtan 0.4083 -0.8165 0.4082 -1.0
vtan -0.0 -1.0 -0.0 -1.0
vtan -0.0 -1.0 -0.0 -1.0
vtan 0.0 -0.7071 0.7071 -1.0
vtan 0.0 -1.0 -0.0 -1.0
vtan -0.316 -0.9409 0.1219 -1.0
vtan 0.0 -1.0 0.0 -1.0
vtan -0.286 0.0953 -0.9535 1.0
vtan 0.0 0.0 -1.0 1.0
vtan -0.316 0.1219 -0.9409 1.0
vtan -0.1266 0.0164 -0.9918 1.0
vtan 0.0 0.7071 -0.7071 1.0
vtan 0.4083 0.4082 -0.8165 1.0
vtan 0.0 0.7071 -0.7071 1.0
vtan -0.0 -1.0 -0.0 1.0
vtan -0.286 -0.9535 -0.0953 1.0
vtan 0.0 -0.7071 -0.7071 1.0
vtan 0.0 -1.0 -0.0 1.0
vtan -0.0 -1.0 0.0 1.0
vtan 0.4083 -0.8165 -0.4082 1.0
vtan -0.1266 -0.9918 -0.0164 1.0
vtan -0.0 -1.0 -0.0 1.0
vtan 0.0 -0.7071 -0.7071 1.0
vtan 0.0 -1.0 0.0 1.0
vtan -0.0 -1.0 -0.0 1.0
vtan -0.316 -0.9409 -0.1219 1.0
vtan -0.286 0.0953 0.9535 -1.0
vtan -0.316 0.1219 0.9409 -1.0
vtan 0.0 0.0 1.0 -1.0
vtan -0.1266 0.0164 0.9918 -1.0
vtan 0.0 0.7071 0.7071 -1.0
vtan 0.4082 0.4082 0.8165 -1.0
vtan 0.0 0.7071 0.7071 -1.0
vtan 0.0 0.0 1.0 -1.0
f 0/0/0/0 1/1/1/1 2/2/2/2 
f 0/0/0/0 2/2/2/2 3/3/3/3 
f 4/4/4/4 5/5/5/5 6/6/6/6 
f 4/4/4/4 6/6/6/6 7/7/7/7 
f 6/6/6/6 5/5/5/5 8/8/8/8 
f 6/6/6/6 8/8/8/8 9/9/9/9 
f 1/1/1/1 10/10/10/10 11/11/11/11 
f 1/1/1/1 11/11/11/11 2/2/2/2 
f 10/10/10/10 4/4/4/4 7/7/7/7 
f 10/10/10/10 7/7/7/7 11/11/11/11 
f 1/1/1/12 12/12/12/13 13/13/13/13 
f 1/1/1/12 13/13/13/13 10/10/10/14 
f 10/10/10/14 13/13/13/13 14/14/14/13 
f 10/10/10/14 14/14/14/13 4/4/4/15 
f 0/0/0/16 15/15/15/13 12/12/12/13 
f 0/0/0/16 12/12/12/13 1/1/1/12 
f 16/16/16/13 5/5/5/17 4/4/4/15 
f 16/16/16/13 4/4/4/15 14/14/14/13 
f 17/17/17/13 8/8/8/18 5/5/5/17 
f 17/17/17/13 5/5/5/17 16/16/16/13 
f 18/2/18/19 19/1/19/20 20/0/20/21 
f 18/2/18/19 20/0/20/21 21/3/21/22 
f 22/6/22/23 23/5/23/24 24/4/24/25 
f 22/6/22/23 24/4/24/25 25/7/25/26 
f 26/8/26/27 23/5/23/24 22/6/22/23 
f 26/8/26/27 22/6/22/23 27/9/27/28 
f 19/1/19/20 18/2/18/19 28/11/28/29 
f 19/1/19/20 28/11/28/29 29/10/29/30 
f 29/10/29/30 28/11/28/29 25/7/25/26 
f 29/10/29/30 25/7/25/26 24/4/24/25 
f 19/1/19/31 29/10/29/32 13/13/13/33 
f 19/1/19/31 13/13/13/33 12/12/12/33 
f 29/10/29/32 24/4/24/34 14/14/14/33 
f 29/10/29/32 14/14/14/33 13/13/13/33 
f 20/0/20/35 19/1/19/31 12/12/12/33 
f 20/0/20/35 12/12/12/33 15/15/15/33 
f 24/4/24/34 23/5/23/36 16/16/16/33 
f 24/4/24/34 16/16/16/33 14/14/14/33 
f 23/5/23/36 26/8/26/37 17/17/17/38 
f 23/5/23/36 17/17/17/38 16/16/16/33 
