v 706.4912 687.1913 175.6077
v 706.9537 687.1913 176.0702
v 707.1285 687.1913 176.4923
v 649.0887 687.1913 175.4329
v 706.9537 687.1912 233.7893
v 707.1285 687.1913 177.8646
v 707.1285 687.1912 232.2155
v 707.1285 687.1912 233.3672
v 706.0691 687.1912 234.4267
v 706.4912 687.1912 234.2518
v 648.6667 687.1912 234.2518
v 705.0963 687.1912 234.4267
v 650.4067 687.1912 234.4267
v 649.0887 687.1912 234.4267
v 648.0293 687.1912 233.3672
v 648.2042 687.1912 233.7893
v 648.2042 687.1913 176.0702
v 648.0293 687.1912 232.1956
v 648.0293 687.1913 177.2488
v 648.0293 687.1913 176.4923
v 648.6667 687.1913 175.6077
v 649.5386 687.1913 175.4329
v 704.788 687.1913 175.4329
v 706.0691 687.1913 175.4329
v 706.9537 695.6662 176.0702
v 706.4912 695.6662 175.6077
v 706.0691 695.6662 175.4329
v 707.1285 695.6661 233.3672
v 648.6667 695.6662 175.6077
v 704.788 695.6662 175.4329
v 649.5386 695.6662 175.4329
v 649.0887 695.6662 175.4329
v 648.0293 695.6662 176.4923
v 648.2042 695.6662 176.0702
v 648.2042 695.6661 233.7893
v 648.0293 695.6662 177.2488
v 648.0293 695.6661 232.1956
v 648.0293 695.6661 233.3672
v 649.0887 695.6661 234.4267
v 648.6667 695.6661 234.2518
v 706.4912 695.6661 234.2518
v 650.4067 695.6661 234.4267
v 705.0963 695.6661 234.4267
v 706.0691 695.6661 234.4267
v 706.9537 695.6661 233.7893
v 707.1285 695.6661 232.2155
v 707.1285 695.6662 177.8646
v 707.1285 695.6662 176.4923
v 704.8539 691.431 175.0861
v 706.1381 693.395 175.0861
v 706.1381 687.5381 175.0861
v 704.8539 689.467 175.0861
v 647.6825 691.431 177.1817
v 647.6825 693.395 176.4233
v 647.6825 687.5381 176.4233
v 647.6825 689.467 177.1817
v 647.9102 695.3194 175.8738
v 648.4702 695.3194 175.3137
v 648.4702 687.5381 175.3137
v 647.9102 687.5381 175.8738
v 707.2477 695.3194 175.8738
v 707.2477 687.5381 175.8738
v 706.6876 687.5381 175.3137
v 706.6876 695.3194 175.3137
v 648.4702 695.3193 234.5458
v 647.9102 695.3193 233.9858
v 647.9102 687.538 233.9858
v 648.4702 687.538 234.5458
v 649.0198 695.3194 175.0861
v 649.0198 693.395 175.0861
v 649.0198 687.5381 175.0861
v 706.1381 695.3194 175.0861
v 647.6825 693.395 233.4362
v 647.6825 687.538 233.4362
v 647.6825 695.3194 176.4233
v 707.4753 693.395 176.4233
v 707.4753 687.5381 176.4233
v 707.4753 695.3194 176.4233
v 649.0198 693.395 234.7734
v 649.0198 687.538 234.7734
v 647.6825 687.538 232.2617
v 649.4707 687.5381 175.0861
v 704.8539 695.3194 175.0861
v 647.6825 695.3194 177.1817
v 649.0198 695.3193 234.7734
v 647.6825 695.3193 233.4362
v 650.3409 691.431 234.7734
v 650.3409 689.4669 234.7734
v 707.4753 691.431 232.2817
v 707.4753 693.395 233.4362
v 707.4753 687.538 233.4362
v 707.4753 689.4669 232.2817
v 707.2477 695.3193 233.9858
v 706.6876 695.3193 234.5458
v 706.6876 687.538 234.5458
v 707.2477 687.538 233.9858
v 706.1381 695.3193 234.7734
v 706.1381 693.395 234.7734
v 706.1381 687.538 234.7734
v 707.4753 695.3193 233.4362
v 707.4753 687.5381 177.7989
v 705.1629 687.538 234.7734
v 650.3409 695.3193 234.7734
v 707.4753 695.3193 232.2817
v 649.4707 693.395 175.0861
v 647.6825 695.3193 232.2617
v 647.6825 693.395 232.2617
v 705.1629 693.395 234.7734
v 707.4753 693.395 177.7989
v 704.8539 687.5381 175.0861
v 704.3716 689.467 175.0861
v 649.4707 695.3194 175.0861
v 704.8539 693.395 175.0861
v 650.1443 693.395 175.0861
v 650.1443 691.431 177.7983
v 649.4707 691.431 175.0861
v 649.4707 689.467 175.0861
v 647.6825 689.4669 232.2617
v 647.6825 687.5381 177.1817
v 647.6825 693.395 231.738
v 649.6315 691.431 231.738
v 647.6825 691.431 232.2617
v 647.6825 689.467 177.9071
v 647.6825 693.395 177.1817
v 705.1629 689.4669 234.7734
v 650.3409 687.538 234.7734
v 705.1629 695.3193 234.7734
v 704.593 693.395 234.7734
v 704.593 691.431 232.7905
v 705.1629 691.431 234.7734
v 650.9698 689.4669 234.7734
v 650.3409 693.395 234.7734
v 707.4753 689.467 177.7989
v 707.4753 687.538 232.2817
v 707.4753 695.3194 177.7989
v 707.4753 693.395 178.4536
v 705.0237 691.431 178.4536
v 707.4753 691.431 177.7989
v 707.4753 689.4669 231.7776
v 707.4753 693.395 232.2817
v 704.3716 691.431 177.7982
v 649.6315 691.431 177.9071
v 650.9698 691.431 232.7905
v 705.0237 691.431 231.7776
v 707.4753 693.395 231.7776
v 707.4753 689.467 178.4536
v 650.9698 693.395 234.7734
v 704.593 689.4669 234.7734
v 647.6825 693.395 177.9071
v 647.6825 689.4669 231.738
v 704.3716 693.395 175.0861
v 650.1443 689.467 175.0861
vt 0.9853 0.6631
vt 0.9879 0.6656
vt 0.9888 0.6679
vt 0.6734 0.6622
vt 0.9879 0.9792
vt 0.9888 0.6754
vt 0.9888 0.9706
vt 0.9888 0.9769
vt 0.9831 0.9826
vt 0.9853 0.9817
vt 0.6713 0.9817
vt 0.9778 0.9826
vt 0.6807 0.9826
vt 0.6736 0.9826
vt 0.6678 0.9769
vt 0.6687 0.9792
vt 0.6687 0.6656
vt 0.6678 0.9705
vt 0.6678 0.672
vt 0.6678 0.6679
vt 0.6713 0.6631
vt 0.6758 0.6622
vt 0.9761 0.6621
vt 0.9831 0.6621
vt 0.5626 0.7873
vt 0.5616 0.7884
vt 0.5606 0.7888
vt 0.5631 0.6536
vt 0.4266 0.7884
vt 0.5577 0.7888
vt 0.4286 0.7888
vt 0.4276 0.7888
vt 0.4252 0.7863
vt 0.4256 0.7873
vt 0.4256 0.6526
vt 0.4252 0.7845
vt 0.4252 0.6563
vt 0.4252 0.6536
vt 0.4276 0.6511
vt 0.4266 0.6515
vt 0.5616 0.6515
vt 0.4307 0.6511
vt 0.5583 0.6511
vt 0.5606 0.6511
vt 0.5626 0.6526
vt 0.5631 0.6563
vt 0.5631 0.7831
vt 0.5631 0.7863
vt 0.0347 0.6166
vt 0.045 0.6233
vt 0.0143 0.6233
vt 0.0244 0.6166
vt 0.0347 0.3112
vt 0.045 0.3152
vt 0.0143 0.3152
vt 0.0244 0.3112
vt 0.0551 0.3181
vt 0.0551 0.321
vt 0.0143 0.321
vt 0.0143 0.3181
vt 0.0551 0.6291
vt 0.0143 0.6291
vt 0.0143 0.6262
vt 0.0551 0.6262
vt 0.0551 0.0105
vt 0.0551 0.0134
vt 0.0143 0.0134
vt 0.0143 0.0105
vt 0.0551 0.3239
vt 0.045 0.3239
vt 0.0143 0.3239
vt 0.0551 0.6233
vt 0.045 0.0163
vt 0.0143 0.0163
vt 0.0551 0.3152
vt 0.045 0.632
vt 0.0143 0.632
vt 0.0551 0.632
vt 0.045 0.0076
vt 0.0143 0.0076
vt 0.0124 0.0165
vt 0.0143 0.0224
vt 0.0124 0.0226
vt 0.0125 0.3241
vt 0.0143 0.3262
vt 0.0125 0.3264
vt 0.0569 0.6231
vt 0.0551 0.6166
vt 0.0569 0.6164
vt 0.057 0.3151
vt 0.0551 0.3112
vt 0.057 0.3112
vt 0.0125 0.6292
vt 0.0125 0.6262
vt 0.0126 0.321
vt 0.0126 0.318
vt 0.0122 0.0134
vt 0.0125 0.0104
vt 0.0569 0.6262
vt 0.0572 0.6292
vt 0.057 0.318
vt 0.0568 0.321
vt 0.0572 0.0104
vt 0.0572 0.0134
vt 0.0126 0.623
vt 0.0576 0.0079
vt 0.0551 0.0076
vt 0.0126 0.6317
vt 0.0125 0.3152
vt 0.0126 0.0079
vt 0.0571 0.6317
vt 0.0569 0.3241
vt 0.0572 0.0163
vt 0.0551 0.0163
vt 0.0347 0.6164
vt 0.0244 0.6164
vt 0.0347 0.3091
vt 0.0244 0.3091
vt 0.0143 0.0235
vt 0.0124 0.0237
vt 0.0143 0.329
vt 0.0125 0.3292
vt 0.0551 0.6164
vt 0.0569 0.6162
vt 0.0551 0.3091
vt 0.057 0.3091
vt 0.045 0.3262
vt 0.0551 0.0224
vt 0.045 0.0224
vt 0.045 0.329
vt 0.045 0.0235
vt 0.0143 0.6166
vt 0.0244 0.6141
vt 0.0126 0.6163
vt 0.0551 0.3262
vt 0.0569 0.3265
vt 0.045 0.6166
vt 0.045 0.3298
vt 0.0347 0.3298
vt 0.0347 0.3262
vt 0.0244 0.3262
vt 0.0244 0.0224
vt 0.0143 0.3112
vt 0.0125 0.3112
vt 0.0572 0.0225
vt 0.045 0.0252
vt 0.0347 0.0252
vt 0.0347 0.0224
vt 0.0244 0.3074
vt 0.045 0.3112
vt 0.0244 0.329
vt 0.0143 0.6164
vt 0.0126 0.6161
vt 0.0551 0.329
vt 0.0569 0.3292
vt 0.045 0.332
vt 0.0347 0.332
vt 0.0347 0.329
vt 0.0244 0.6131
vt 0.045 0.6164
vt 0.0244 0.0235
vt 0.0143 0.3091
vt 0.0125 0.3091
vt 0.0551 0.0235
vt 0.0572 0.0235
vt 0.045 0.0269
vt 0.0347 0.0269
vt 0.0347 0.0235
vt 0.0244 0.3065
vt 0.045 0.3091
vt 0.0347 0.6141
vt 0.0347 0.3074
vt 0.0347 0.6131
vt 0.0347 0.3065
vt 0.045 0.3065
vt 0.0244 0.0269
vt 0.045 0.6131
vt 0.0244 0.332
vt 0.045 0.3074
vt 0.0244 0.0252
vt 0.045 0.6141
vt 0.0244 0.3298
vn 0.2318 -0.9088 -0.3469
vn 0.3469 -0.9087 -0.232
vn 0.4092 -0.9088 -0.0814
vn -0.0814 -0.9088 -0.4092
vn 0.3469 -0.9088 0.2318
vn 0.3827 -0.9239 -0.0
vn 0.3827 -0.9239 -0.0
vn 0.4092 -0.9088 0.0814
vn 0.0814 -0.9087 0.4093
vn 0.2318 -0.9087 0.3471
vn -0.2318 -0.9088 0.3469
vn 0.0 -0.9238 0.3828
vn 0.0 -0.9239 0.3827
vn -0.0815 -0.9088 0.4091
vn -0.4092 -0.9088 0.0814
vn -0.3468 -0.9089 0.2318
vn -0.3469 -0.9088 -0.2318
vn -0.3827 -0.9239 -0.0
vn -0.3827 -0.9239 -0.0
vn -0.4092 -0.9088 -0.0814
vn -0.2318 -0.9088 -0.3469
vn -0.0 -0.9239 -0.3827
vn 0.0 -0.9239 -0.3827
vn 0.0814 -0.9088 -0.4092
vn 0.347 0.9088 -0.2318
vn 0.2318 0.9089 -0.3467
vn 0.0814 0.9088 -0.4092
vn 0.4092 0.9088 0.0814
vn -0.2318 0.9088 -0.3469
vn 0.0 0.9239 -0.3827
vn 0.0 0.9239 -0.3827
vn -0.0814 0.9088 -0.4091
vn -0.4092 0.9088 -0.0814
vn -0.3468 0.9089 -0.2316
vn -0.3469 0.9088 0.2318
vn -0.3827 0.9239 0.0
vn -0.3827 0.9239 0.0
vn -0.4092 0.9088 0.0814
vn -0.0815 0.9088 0.4093
vn -0.2318 0.9088 0.3468
vn 0.2318 0.9088 0.3469
vn 0.0 0.9238 0.3828
vn 0.0 0.9239 0.3827
vn 0.0814 0.9088 0.4093
vn 0.3469 0.9089 0.2316
vn 0.3828 0.9238 0.0
vn 0.3827 0.9239 0.0
vn 0.4092 0.9088 -0.0814
vn -0.569 0.0 -0.8223
vn 0.1951 0.0 -0.9808
vn 0.1812 -0.371 -0.9108
vn -0.2652 0.0651 -0.962
vn -0.8983 0.0 0.4394
vn -0.9808 0.0 -0.1952
vn -0.9108 -0.371 -0.1812
vn -0.9747 0.0774 0.2096
vn -0.7721 0.371 -0.5159
vn -0.5159 0.371 -0.7721
vn -0.5159 -0.371 -0.7721
vn -0.7721 -0.371 -0.5159
vn 0.7722 0.3709 -0.5159
vn 0.7722 -0.3709 -0.5159
vn 0.5159 -0.3709 -0.7722
vn 0.5159 0.371 -0.7721
vn -0.5159 0.371 0.7721
vn -0.7721 0.371 0.516
vn -0.7721 -0.371 0.516
vn -0.5159 -0.371 0.7722
vn -0.1811 0.3709 -0.9108
vn -0.1951 0.0 -0.9808
vn -0.1811 -0.3709 -0.9108
vn 0.1812 0.371 -0.9108
vn -0.9808 0.0 0.1951
vn -0.9108 -0.3709 0.1812
vn -0.9108 0.3709 -0.1812
vn 0.9808 0.0 -0.1951
vn 0.9108 -0.3709 -0.1812
vn 0.9108 0.371 -0.1812
vn -0.1951 0.0 0.9808
vn -0.1812 -0.3709 0.9108
vn -0.9239 -0.3827 0.0
vn 0.0 -0.3827 -0.9239
vn 0.0 0.3827 -0.9239
vn -0.9239 0.3827 0.0
vn -0.1812 0.3709 0.9108
vn -0.9108 0.371 0.1812
vn 0.4733 0.0 0.8809
vn 0.2249 0.072 0.9717
vn 0.8358 -0.0 -0.549
vn 0.9808 0.0 0.195
vn 0.9108 -0.371 0.1812
vn 0.9641 0.066 -0.2571
vn 0.7721 0.371 0.5159
vn 0.5159 0.371 0.7722
vn 0.5159 -0.3709 0.7722
vn 0.7721 -0.371 0.5159
vn 0.1812 0.3709 0.9108
vn 0.1951 0.0 0.9808
vn 0.1812 -0.3709 0.9108
vn 0.9108 0.3709 0.1812
vn 0.9239 -0.3827 -0.0
vn 0.0 -0.3826 0.9239
vn 0.0 0.3826 0.9239
vn 0.9239 0.3827 0.0
vn 0.2414 -0.0828 -0.9669
vn -0.9239 0.3827 0.0
vn -0.9687 -0.0639 -0.2397
vn -0.2338 -0.0678 0.9699
vn 0.9683 -0.079 0.2371
vn 0.0 -0.3827 -0.9239
vn -0.2844 0.3209 -0.9034
vn 0.0 0.3827 -0.9239
vn -0.2652 -0.0651 -0.962
vn 0.2576 -0.3323 -0.9073
vn 0.4281 0.0 -0.9037
vn 0.5149 0.0 -0.8572
vn 0.2414 0.0828 -0.9669
vn -0.9687 0.0639 -0.2397
vn -0.9239 -0.3827 -0.0
vn -0.9287 -0.2731 -0.2509
vn -0.9042 -0.0 -0.4271
vn -0.8624 0.0 -0.5062
vn -0.9344 0.2812 0.2187
vn -0.9747 -0.0774 0.2096
vn -0.2338 0.0678 0.9699
vn 0.0 -0.3826 0.9239
vn 0.0 0.3826 0.9239
vn -0.2448 -0.278 0.9289
vn -0.4171 -0.0 0.9089
vn -0.4931 0.0 0.87
vn 0.2352 0.2806 0.9306
vn 0.2249 -0.072 0.9717
vn 0.9683 0.079 0.2371
vn 0.9239 -0.3827 -0.0
vn 0.9239 0.3827 0.0
vn 0.9149 -0.3157 0.2513
vn 0.9069 -0.0 0.4213
vn 0.864 -0.0 0.5035
vn 0.9114 0.3076 -0.2735
vn 0.9641 -0.066 -0.2571
vn -0.4649 -0.0 -0.8854
vn -0.9258 -0.0 0.378
vn 0.4026 0.0 0.9154
vn 0.8915 -0.0 -0.4529
vn 0.9114 -0.3076 -0.2735
vn 0.915 0.3158 0.2513
vn 0.2353 -0.2805 0.9306
vn -0.2448 0.278 0.9289
vn -0.9344 -0.2812 0.2187
vn -0.9287 0.2731 -0.2509
vn -0.2844 -0.3209 -0.9034
vn 0.2576 0.3322 -0.9073
vtan 0.9728 0.2162 0.0834 1.0
vtan 0.9378 0.3327 0.0993 1.0
vtan 0.9124 0.4077 0.0357 1.0
vtan 0.9967 -0.0717 -0.0391 1.0
vtan 0.9378 0.3333 -0.097 1.0
vtan 0.8697 0.3603 -0.3372 1.0
vtan 0.9224 0.382 0.057 1.0
vtan 0.9124 0.4067 -0.0467 1.0
vtan 0.9967 0.0716 -0.0392 1.0
vtan 0.9723 0.2052 -0.1121 1.0
vtan 0.9728 -0.2163 0.0834 1.0
vtan 1.0 0.0 0.0 1.0
vtan 1.0 0.0 0.0 1.0
vtan 0.9967 -0.0743 0.0335 1.0
vtan 0.9124 -0.4076 0.0359 1.0
vtan 0.9379 -0.3325 0.0992 1.0
vtan 0.9378 -0.3332 -0.0971 1.0
vtan 0.8774 -0.3634 -0.313 1.0
vtan 0.9239 -0.3826 -0.0025 1.0
vtan 0.9124 -0.4088 -0.0223 1.0
vtan 0.9723 -0.2054 -0.1117 1.0
vtan 1.0 -0.0 0.0 1.0
vtan 1.0 -0.0001 0.0003 1.0
vtan 0.9967 0.0742 0.0334 1.0
vtan 0.9378 -0.3384 0.0773 1.0
vtan 0.9725 -0.2076 0.1059 1.0
vtan 0.9967 -0.0742 0.0334 1.0
vtan 0.9124 -0.4077 -0.035 1.0
vtan 0.9728 0.2166 -0.0824 1.0
vtan 1.0 -0.0 -0.0 1.0
vtan 0.9967 0.0742 -0.0334 1.0
vtan 0.9124 0.4081 -0.0313 1.0
vtan 0.9379 0.3378 -0.0789 1.0
vtan 0.9379 0.3383 0.0772 1.0
vtan 0.613 0.2539 0.7482 1.0
vtan 0.923 0.3823 0.0447 1.0
vtan 0.91 0.413 -0.037 1.0
vtan 0.9967 0.0742 0.0335 1.0
vtan 0.9724 0.2075 0.1064 1.0
vtan 0.9728 -0.2167 -0.0824 1.0
vtan 1.0 0.0 -0.0 1.0
vtan 0.9967 -0.0743 -0.0334 1.0
vtan 0.9379 -0.3379 -0.0789 1.0
vtan 0.4787 -0.1984 0.8552 1.0
vtan 0.9233 -0.3824 -0.0364 1.0
vtan 0.9116 -0.411 -0.0055 1.0
vtan 0.0 1.0 -0.0 1.0
vtan 0.0 1.0 0.0 1.0
vtan 0.0669 0.9286 -0.3649 1.0
vtan 0.0173 0.9979 0.0628 1.0
vtan 0.0 1.0 -0.0 1.0
vtan -0.3578 0.9282 -0.1019 1.0
vtan 0.0757 0.997 -0.0163 1.0
vtan 0.3402 0.9271 0.1574 1.0
vtan 0.233 0.9281 0.2902 1.0
vtan -0.1687 0.9277 -0.333 1.0
vtan -0.3029 0.9286 -0.2144 1.0
vtan -0.3029 0.9286 0.2144 1.0
vtan 0.3296 0.928 -0.1739 1.0
vtan 0.233 0.9282 -0.2902 1.0
vtan -0.1687 0.9277 0.333 1.0
vtan 0.1739 0.9279 -0.3296 1.0
vtan 0.2902 0.9281 -0.233 1.0
vtan -0.333 0.9277 0.1688 1.0
vtan -0.2144 0.9286 0.3029 1.0
vtan 0.0794 0.9286 0.3624 1.0
vtan -0.0318 0.9279 -0.3716 1.0
vtan -0.0323 0.9279 0.3715 1.0
vtan -0.3715 0.9279 0.0322 1.0
vtan 0.3677 0.9285 0.0524 1.0
vtan 0.0 1.0 0.0 1.0
vtan 0.3506 0.9268 -0.1347 1.0
vtan -0.3451 0.925 0.1591 1.0
vtan -0.1591 0.925 0.3451 1.0
vtan -0.8923 0.4172 0.1724 1.0
vtan -0.3825 0.9234 0.0322 1.0
vtan -0.9222 0.382 0.0608 1.0
vtan -0.1717 0.4172 -0.8924 1.0
vtan -0.0339 0.9233 -0.3825 1.0
vtan -0.0643 0.3819 -0.922 1.0
vtan -0.1726 0.4172 0.8923 1.0
vtan -0.0302 0.9235 0.3825 1.0
vtan -0.0607 0.382 0.9222 1.0
vtan 0.8854 0.4171 0.2051 1.0
vtan 0.3817 0.9216 0.07 1.0
vtan 0.914 0.3786 0.1459 1.0
vtan 0.7501 0.4173 -0.5131 1.0
vtan 0.4366 0.4159 -0.7978 1.0
vtan -0.5506 0.4166 -0.7234 1.0
vtan -0.8061 0.4153 -0.4216 1.0
vtan -0.7234 0.4165 0.5507 1.0
vtan -0.4432 0.4161 0.794 1.0
vtan -0.5506 0.4164 0.7235 1.0
vtan -0.794 0.4162 0.4431 1.0
vtan 0.7487 0.417 0.5153 1.0
vtan 0.4415 0.4161 0.7949 1.0
vtan 0.5132 0.4172 -0.7501 1.0
vtan 0.7885 0.4164 -0.4527 1.0
vtan 0.0722 0.4148 -0.907 1.0
vtan 0.3543 0.4102 -0.8403 1.0
vtan 0.1346 0.9268 -0.3507 1.0
vtan 0.8404 0.4102 -0.3544 1.0
vtan -0.8915 0.4172 -0.1767 1.0
vtan -0.2908 0.4143 0.8624 1.0
vtan -0.8624 0.4144 0.2909 1.0
vtan 0.0958 0.4157 0.9044 1.0
vtan 0.8924 0.4172 -0.1722 1.0
vtan 0.3568 0.9281 -0.1068 1.0
vtan -0.0 1.0 -0.0 1.0
vtan -0.0139 0.927 0.3748 1.0
vtan -0.0162 0.9974 -0.0702 1.0
vtan 0.0 1.0 0.0 1.0
vtan 0.3578 0.9282 0.1019 1.0
vtan -0.0637 0.9978 0.017 1.0
vtan -0.3402 0.9271 -0.1574 1.0
vtan -0.233 0.9282 -0.2903 1.0
vtan 0.1687 0.9277 0.333 1.0
vtan 0.3029 0.9286 0.2145 1.0
vtan -0.08 0.9286 -0.3623 1.0
vtan 0.0324 0.9279 0.3714 1.0
vtan -0.3677 0.9285 -0.0524 1.0
vtan 0.9044 0.4158 -0.0956 1.0
vtan 0.3712 0.9279 -0.0335 1.0
vtan 0.3825 0.9235 -0.0301 1.0
vtan 0.9222 0.382 -0.0602 1.0
vtan 0.1727 0.4173 0.8922 1.0
vtan 0.032 0.9234 0.3824 1.0
vtan 0.0624 0.382 0.922 1.0
vtan 0.0953 0.4158 -0.9044 1.0
vtan 0.0334 0.9279 -0.3713 1.0
vtan 0.0309 0.9235 -0.3824 1.0
vtan 0.0605 0.3821 -0.9221 1.0
vtan -0.8859 0.4171 -0.203 1.0
vtan -0.3818 0.9217 -0.0693 1.0
vtan -0.9142 0.3789 -0.1438 1.0
vtan 0.5505 0.4167 0.7234 1.0
vtan 0.806 0.4152 0.4218 1.0
vtan -0.7486 0.4171 -0.5154 1.0
vtan -0.4415 0.4161 -0.7949 1.0
vtan 0.8915 0.4172 0.1767 1.0
vtan -0.1064 0.4162 -0.903 1.0
vtan 0.02 0.9966 -0.0803 1.0
vtan 0.3821 0.9224 -0.0556 1.0
vtan -0.062 0.998 -0.0154 1.0
vtan -0.0159 0.9977 0.0659 1.0
vtan -0.3638 0.9287 0.0724 1.0
vtan 0.0767 0.9969 0.0188 1.0
vtan 0.0091 0.9238 -0.3827 1.0
vtan 0.0105 0.9433 0.3318 1.0
vtan 0.019 0.3826 -0.9237 1.0
vtan 0.0192 0.9237 0.3826 1.0
vtan 0.0245 0.3825 0.9236 1.0
vtan -0.0173 0.9979 -0.0627 1.0
vtan 0.0116 0.94 -0.3409 1.0
vtan -0.0 1.0 0.0 1.0
vtan -0.0 1.0 -0.0 1.0
vtan -0.0201 0.9966 0.0803 1.0
vtan 0.0621 0.998 0.0154 1.0
vtan -0.3817 0.9214 -0.0735 1.0
vtan -0.9139 0.3785 -0.1465 1.0
vtan 0.9189 0.3806 -0.1035 1.0
vtan -0.2792 0.9602 -0.0119 1.0
vtan -0.0 1.0 -0.0 1.0
vtan -0.0 1.0 0.0 1.0
vtan 0.2865 0.9581 -0.0081 1.0
vtan -0.0757 0.997 0.0163 1.0
vtan 0.0159 0.9977 -0.0659 1.0
vtan -0.0097 0.9239 0.3826 1.0
vtan -0.0189 0.3827 0.9237 1.0
vtan -0.0318 0.9234 -0.3825 1.0
vtan -0.0627 0.382 -0.922 1.0
vtan -0.0103 0.9587 0.2842 1.0
vtan -0.0 1.0 0.0 1.0
vtan 0.0 1.0 -0.0 1.0
vtan -0.0094 0.958 -0.2865 1.0
vtan -0.0543 0.4139 0.9087 1.0
vtan 0.0162 0.9974 0.0702 1.0
vtan -0.0768 0.9969 -0.0188 1.0
vtan 0.3817 0.9215 0.0717 1.0
vtan 0.9142 0.3786 0.1446 1.0
vtan -0.3817 0.9215 0.0713 1.0
vtan -0.8916 0.4172 0.176 1.0
vtan -0.9143 0.3787 0.1435 1.0
vtan 0.324 0.946 0.0088 1.0
vtan 0.0 1.0 0.0 1.0
vtan 0.0 1.0 -0.0 1.0
vtan -0.3171 0.9484 0.01 1.0
vtan 0.0638 0.9978 -0.017 1.0
vtan -0.0 1.0 -0.0 1.0
vtan -0.0 1.0 0.0 1.0
vtan -0.0 1.0 -0.0 1.0
vtan 0.0 1.0 0.0 1.0
vtan 0.317 0.9484 -0.01 1.0
vtan -0.324 0.946 -0.0089 1.0
vtan 0.0094 0.958 0.2865 1.0
vtan 0.0103 0.9587 -0.2842 1.0
vtan -0.2865 0.9581 0.008 1.0
vtan 0.2792 0.9602 0.0118 1.0
vtan -0.0105 0.9433 -0.3318 1.0
vtan -0.0116 0.94 0.3409 1.0
f 0/0/0/0 1/1/1/1 2/2/2/2 
f 0/0/0/0 2/2/2/2 3/3/3/3 
f 4/4/4/4 5/5/5/5 6/6/6/6 
f 4/4/4/4 6/6/6/6 7/7/7/7 
f 5/5/5/5 4/4/4/4 8/8/8/8 
f 5/5/5/5 8/8/8/8 2/2/2/2 
f 4/4/4/4 9/9/9/9 8/8/8/8 
f 10/10/10/10 11/11/11/11 12/12/12/12 
f 10/10/10/10 12/12/12/12 13/13/13/13 
f 11/11/11/11 10/10/10/10 14/14/14/14 
f 11/11/11/11 14/14/14/14 8/8/8/8 
f 10/10/10/10 15/15/15/15 14/14/14/14 
f 8/8/8/8 14/14/14/14 3/3/3/3 
f 8/8/8/8 3/3/3/3 2/2/2/2 
f 16/16/16/16 17/17/17/17 18/18/18/18 
f 16/16/16/16 18/18/18/18 19/19/19/19 
f 17/17/17/17 16/16/16/16 3/3/3/3 
f 17/17/17/17 3/3/3/3 14/14/14/14 
f 16/16/16/16 20/20/20/20 3/3/3/3 
f 0/0/0/0 3/3/3/3 21/21/21/21 
f 0/0/0/0 21/21/21/21 22/22/22/22 
f 23/23/23/23 0/0/0/0 22/22/22/22 
f 24/24/24/24 25/25/25/25 26/26/26/26 
f 24/24/24/24 26/26/26/26 27/27/27/27 
f 28/28/28/28 29/29/29/29 30/30/30/12 
f 28/28/28/28 30/30/30/12 31/31/31/30 
f 29/29/29/29 28/28/28/28 32/32/32/31 
f 29/29/29/29 32/32/32/31 26/26/26/26 
f 28/28/28/28 33/33/33/32 32/32/32/31 
f 34/34/34/33 35/35/35/34 36/36/36/35 
f 34/34/34/33 36/36/36/35 37/37/37/36 
f 35/35/35/34 34/34/34/33 38/38/38/37 
f 35/35/35/34 38/38/38/37 32/32/32/31 
f 34/34/34/33 39/39/39/38 38/38/38/37 
f 32/32/32/31 38/38/38/37 27/27/27/27 
f 32/32/32/31 27/27/27/27 26/26/26/26 
f 40/40/40/39 41/41/41/40 42/42/42/12 
f 40/40/40/39 42/42/42/12 43/43/43/41 
f 41/41/41/40 40/40/40/39 27/27/27/27 
f 41/41/41/40 27/27/27/27 38/38/38/37 
f 40/40/40/39 44/44/44/42 27/27/27/27 
f 45/45/45/43 46/46/46/44 24/24/24/24 
f 45/45/45/43 24/24/24/24 27/27/27/27 
f 47/47/47/45 24/24/24/24 46/46/46/44 
f 48/48/48/46 49/49/49/47 50/50/50/48 
f 48/48/48/46 50/50/50/48 51/51/51/49 
f 52/52/52/50 53/53/53/47 54/54/54/51 
f 52/52/52/50 54/54/54/51 55/55/55/52 
f 56/56/56/53 57/57/57/54 58/58/58/55 
f 56/56/56/53 58/58/58/55 59/59/59/56 
f 60/60/60/57 61/61/61/58 62/62/62/59 
f 60/60/60/57 62/62/62/59 63/63/63/60 
f 64/64/64/61 65/65/65/62 66/66/66/63 
f 64/64/64/61 66/66/66/63 67/67/67/64 
f 57/57/57/54 68/68/68/65 69/69/69/47 
f 57/57/57/54 69/69/69/47 58/58/58/55 
f 70/70/70/66 58/58/58/55 69/69/69/47 
f 62/62/62/59 50/50/50/48 49/49/49/47 
f 62/62/62/59 49/49/49/47 63/63/63/60 
f 71/71/71/67 63/63/63/60 49/49/49/47 
f 66/66/66/63 65/65/65/62 72/72/72/47 
f 66/66/66/63 72/72/72/47 73/73/73/68 
f 56/56/56/53 54/54/54/51 53/53/53/47 
f 56/56/56/53 53/53/53/47 74/74/74/69 
f 59/59/59/56 54/54/54/51 56/56/56/53 
f 75/75/75/70 76/76/76/71 60/60/60/57 
f 75/75/75/70 60/60/60/57 77/77/77/72 
f 60/60/60/57 76/76/76/71 61/61/61/58 
f 78/78/78/47 64/64/64/61 67/67/67/64 
f 78/78/78/47 67/67/67/64 79/79/79/73 
f 14/80/14/74 73/73/73/68 80/81/80/75 
f 14/80/14/74 80/81/80/75 17/82/17/76 
f 3/83/3/77 70/70/70/66 81/84/81/78 
f 3/83/3/77 81/84/81/78 21/85/21/79 
f 26/86/26/80 71/71/71/67 82/87/82/81 
f 26/86/26/80 82/87/82/81 29/88/29/82 
f 32/89/32/83 74/74/74/69 83/90/83/84 
f 32/89/32/83 83/90/83/84 35/91/35/85 
f 1/92/1/86 0/93/0/87 62/62/62/59 
f 1/92/1/86 62/62/62/59 61/61/61/58 
f 20/94/20/88 16/95/16/89 59/59/59/56 
f 20/94/20/88 59/59/59/56 58/58/58/55 
f 15/96/15/90 10/97/10/91 67/67/67/64 
f 15/96/15/90 67/67/67/64 66/66/66/63 
f 25/98/25/92 24/99/24/93 60/60/60/57 
f 25/98/25/92 60/60/60/57 63/63/63/60 
f 33/100/33/94 28/101/28/95 57/57/57/54 
f 33/100/33/94 57/57/57/54 56/56/56/53 
f 39/102/39/96 34/103/34/97 65/65/65/62 
f 39/102/39/96 65/65/65/62 64/64/64/61 
f 0/93/0/87 23/104/23/98 50/50/50/48 
f 0/93/0/87 50/50/50/48 62/62/62/59 
f 3/83/3/77 20/94/20/88 58/58/58/55 
f 3/83/3/77 58/58/58/55 70/70/70/66 
f 14/80/14/74 15/96/15/90 66/66/66/63 
f 14/80/14/74 66/66/66/63 73/73/73/68 
f 26/86/26/80 25/98/25/92 63/63/63/60 
f 26/86/26/80 63/63/63/60 71/71/71/67 
f 32/89/32/83 33/100/33/94 56/56/56/53 
f 32/89/32/83 56/56/56/53 74/74/74/69 
f 38/105/38/99 39/102/39/96 64/64/64/61 
f 38/105/38/99 64/64/64/61 84/106/84/100 
f 2/107/2/101 1/92/1/86 61/61/61/58 
f 2/107/2/101 61/61/61/58 76/76/76/71 
f 16/95/16/89 19/108/19/102 54/54/54/51 
f 16/95/16/89 54/54/54/51 59/59/59/56 
f 10/97/10/91 13/109/13/103 79/79/79/73 
f 10/97/10/91 79/79/79/73 67/67/67/64 
f 24/99/24/93 47/110/47/104 77/77/77/72 
f 24/99/24/93 77/77/77/72 60/60/60/57 
f 28/101/28/95 31/111/31/105 68/68/68/65 
f 28/101/28/95 68/68/68/65 57/57/57/54 
f 34/103/34/97 37/112/37/106 85/113/85/107 
f 34/103/34/97 85/113/85/107 65/65/65/62 
f 86/114/86/108 78/49/78/70 79/50/79/109 
f 86/114/86/108 79/50/79/109 87/115/87/110 
f 88/116/88/111 89/53/89/47 90/54/90/112 
f 88/116/88/111 90/54/90/112 91/117/91/113 
f 92/56/92/114 93/57/93/115 94/58/94/116 
f 92/56/92/114 94/58/94/116 95/59/95/117 
f 93/57/93/115 96/68/96/118 97/69/97/47 
f 93/57/93/115 97/69/97/47 94/58/94/116 
f 98/70/98/119 94/58/94/116 97/69/97/47 
f 92/56/92/114 90/54/90/112 89/53/89/47 
f 92/56/92/114 89/53/89/47 99/74/99/120 
f 95/59/95/117 90/54/90/112 92/56/92/114 
f 2/80/2/121 76/73/76/122 100/118/100/123 
f 2/80/2/121 100/118/100/123 5/119/5/124 
f 8/83/8/125 98/70/98/119 101/120/101/126 
f 8/83/8/125 101/120/101/126 11/121/11/127 
f 38/86/38/128 84/71/84/129 102/122/102/130 
f 38/86/38/128 102/122/102/130 41/123/41/131 
f 27/89/27/132 99/74/99/120 103/124/103/133 
f 27/89/27/132 103/124/103/133 45/125/45/134 
f 9/94/9/135 4/95/4/136 95/59/95/117 
f 9/94/9/135 95/59/95/117 94/58/94/116 
f 44/100/44/137 40/101/40/138 93/57/93/115 
f 44/100/44/137 93/57/93/115 92/56/92/114 
f 8/83/8/125 9/94/9/135 94/58/94/116 
f 8/83/8/125 94/58/94/116 98/70/98/119 
f 27/89/27/132 44/100/44/137 92/56/92/114 
f 27/89/27/132 92/56/92/114 99/74/99/120 
f 4/95/4/136 7/108/7/139 90/54/90/112 
f 4/95/4/136 90/54/90/112 95/59/95/117 
f 40/101/40/138 43/111/43/140 96/68/96/118 
f 40/101/40/138 96/68/96/118 93/57/93/115 
f 69/69/69/47 68/68/68/65 104/126/104/141 
f 105/127/105/142 106/128/106/143 72/72/72/47 
f 105/127/105/142 72/72/72/47 85/113/85/107 
f 97/69/97/47 96/68/96/118 107/129/107/144 
f 75/72/75/47 77/113/77/145 108/130/108/146 
f 109/131/109/147 110/132/110/148 51/51/51/49 
f 109/131/109/147 50/50/50/48 23/104/23/98 
f 109/131/109/147 23/104/23/98 22/133/22/149 
f 111/134/111/150 30/135/30/151 29/88/29/82 
f 111/134/111/150 29/88/29/82 82/87/82/81 
f 82/87/82/81 71/71/71/67 112/136/112/152 
f 112/136/112/152 49/49/49/47 48/48/48/46 
f 109/131/109/147 22/133/22/149 21/85/21/79 
f 109/131/109/147 21/85/21/79 81/84/81/78 
f 111/134/111/150 113/137/113/153 104/126/104/141 
f 113/137/113/153 114/138/114/154 115/139/115/155 
f 113/137/113/153 115/139/115/155 104/126/104/141 
f 81/84/81/78 70/70/70/66 116/140/116/156 
f 111/134/111/150 68/68/68/65 31/111/31/105 
f 111/134/111/150 31/111/31/105 30/135/30/151 
f 80/81/80/75 73/73/73/68 117/141/117/157 
f 118/142/118/158 18/143/18/159 17/82/17/76 
f 118/142/118/158 17/82/17/76 80/81/80/75 
f 105/127/105/142 85/113/85/107 37/112/37/106 
f 105/127/105/142 37/112/37/106 36/144/36/160 
f 105/127/105/142 119/145/119/161 106/128/106/143 
f 119/145/119/161 120/146/120/162 121/147/121/163 
f 119/145/119/161 121/147/121/163 106/128/106/143 
f 118/142/118/158 122/148/122/164 55/55/55/52 
f 105/127/105/142 36/144/36/160 35/91/35/85 
f 105/127/105/142 35/91/35/85 83/90/83/84 
f 118/142/118/158 54/54/54/51 19/108/19/102 
f 118/142/118/158 19/108/19/102 18/143/18/159 
f 83/90/83/84 74/74/74/69 123/149/123/165 
f 123/149/123/165 53/53/53/47 52/52/52/50 
f 101/120/101/126 98/70/98/119 124/150/124/166 
f 125/151/125/167 12/152/12/168 11/121/11/127 
f 125/151/125/167 11/121/11/127 101/120/101/126 
f 126/153/126/169 96/68/96/118 43/111/43/140 
f 126/153/126/169 43/111/43/140 42/154/42/170 
f 126/153/126/169 127/155/127/171 107/129/107/144 
f 127/155/127/171 128/156/128/172 129/157/129/173 
f 127/155/127/171 129/157/129/173 107/129/107/144 
f 125/151/125/167 130/158/130/174 87/115/87/110 
f 126/153/126/169 42/154/42/170 41/123/41/131 
f 126/153/126/169 41/123/41/131 102/122/102/130 
f 125/151/125/167 79/50/79/109 13/104/13/175 
f 125/151/125/167 13/104/13/175 12/152/12/168 
f 78/49/78/70 131/159/131/176 102/122/102/130 
f 78/49/78/70 102/122/102/130 84/71/84/129 
f 131/159/131/176 78/49/78/70 86/114/86/108 
f 100/118/100/123 76/73/76/122 132/160/132/177 
f 133/161/133/178 6/162/6/179 5/119/5/124 
f 133/161/133/178 5/119/5/124 100/118/100/123 
f 134/163/134/180 77/113/77/145 47/112/47/181 
f 134/163/134/180 47/112/47/181 46/164/46/182 
f 134/163/134/180 135/165/135/183 108/130/108/146 
f 135/165/135/183 136/166/136/184 137/167/137/185 
f 135/165/135/183 137/167/137/185 108/130/108/146 
f 133/161/133/178 138/168/138/186 91/117/91/113 
f 134/163/134/180 46/164/46/182 45/125/45/134 
f 134/163/134/180 45/125/45/134 103/124/103/133 
f 133/161/133/178 90/54/90/112 7/108/7/139 
f 133/161/133/178 7/108/7/139 6/162/6/179 
f 103/124/103/133 99/74/99/120 139/169/139/187 
f 139/169/139/187 89/53/89/47 88/116/88/111 
f 110/132/110/148 140/170/140/188 48/48/48/46 
f 110/132/110/148 48/48/48/46 51/51/51/49 
f 122/148/122/164 141/171/141/189 52/52/52/50 
f 122/148/122/164 52/52/52/50 55/55/55/52 
f 130/158/130/174 142/172/142/190 86/114/86/108 
f 130/158/130/174 86/114/86/108 87/115/87/110 
f 138/168/138/186 143/173/143/191 88/116/88/111 
f 138/168/138/186 88/116/88/111 91/117/91/113 
f 143/173/143/191 136/166/136/184 135/165/135/183 
f 143/173/143/191 135/165/135/183 144/174/144/192 
f 137/167/137/185 136/166/136/184 145/175/145/193 
f 137/167/137/185 145/175/145/193 132/160/132/177 
f 136/166/136/184 143/173/143/191 138/168/138/186 
f 136/166/136/184 138/168/138/186 145/175/145/193 
f 88/116/88/111 143/173/143/191 144/174/144/192 
f 88/116/88/111 144/174/144/192 139/169/139/187 
f 142/172/142/190 128/156/128/172 127/155/127/171 
f 142/172/142/190 127/155/127/171 146/176/146/194 
f 129/157/129/173 128/156/128/172 147/177/147/195 
f 129/157/129/173 147/177/147/195 124/150/124/166 
f 128/156/128/172 142/172/142/190 130/158/130/174 
f 128/156/128/172 130/158/130/174 147/177/147/195 
f 86/114/86/108 142/172/142/190 146/176/146/194 
f 86/114/86/108 146/176/146/194 131/159/131/176 
f 141/171/141/189 120/146/120/162 119/145/119/161 
f 141/171/141/189 119/145/119/161 148/178/148/196 
f 121/147/121/163 120/146/120/162 149/179/149/197 
f 121/147/121/163 149/179/149/197 117/141/117/157 
f 120/146/120/162 141/171/141/189 122/148/122/164 
f 120/146/120/162 122/148/122/164 149/179/149/197 
f 52/52/52/50 141/171/141/189 148/178/148/196 
f 52/52/52/50 148/178/148/196 123/149/123/165 
f 140/170/140/188 114/138/114/154 113/137/113/153 
f 140/170/140/188 113/137/113/153 150/180/150/198 
f 115/139/115/155 114/138/114/154 151/181/151/199 
f 115/139/115/155 151/181/151/199 116/140/116/156 
f 114/138/114/154 140/170/140/188 110/132/110/148 
f 114/138/114/154 110/132/110/148 151/181/151/199 
f 48/48/48/46 140/170/140/188 150/180/150/198 
f 48/48/48/46 150/180/150/198 112/136/112/152 
f 69/69/69/47 104/126/104/141 115/139/115/155 
f 83/90/83/84 123/149/123/165 148/178/148/196 
f 149/179/149/197 122/148/122/164 118/142/118/158 
f 149/179/149/197 118/142/118/158 80/81/80/75 
f 150/180/150/198 113/137/113/153 111/134/111/150 
f 150/180/150/198 111/134/111/150 82/87/82/81 
f 81/84/81/78 116/140/116/156 151/181/151/199 
f 148/178/148/196 119/145/119/161 105/127/105/142 
f 148/178/148/196 105/127/105/142 83/90/83/84 
f 80/81/80/75 117/141/117/157 149/179/149/197 
f 72/72/72/47 106/128/106/143 121/147/121/163 
f 147/177/147/195 130/158/130/174 125/151/125/167 
f 147/177/147/195 125/151/125/167 101/120/101/126 
f 102/122/102/130 131/159/131/176 146/176/146/194 
f 146/176/146/194 127/155/127/171 126/153/126/169 
f 146/176/146/194 126/153/126/169 102/122/102/130 
f 97/69/97/47 107/129/107/144 129/157/129/173 
f 145/175/145/193 138/168/138/186 133/161/133/178 
f 145/175/145/193 133/161/133/178 100/118/100/123 
f 103/124/103/133 139/169/139/187 144/174/144/192 
f 101/120/101/126 124/150/124/166 147/177/147/195 
f 75/72/75/47 108/130/108/146 137/167/137/185 
f 82/87/82/81 112/136/112/152 150/180/150/198 
f 151/181/151/199 110/132/110/148 109/131/109/147 
f 151/181/151/199 109/131/109/147 81/84/81/78 
f 100/118/100/123 132/160/132/177 145/175/145/193 
f 144/174/144/192 135/165/135/183 134/163/134/180 
f 144/174/144/192 134/163/134/180 103/124/103/133 
f 54/54/54/51 118/142/118/158 55/55/55/52 
f 74/74/74/69 53/53/53/47 123/149/123/165 
f 68/68/68/65 111/134/111/150 104/126/104/141 
f 115/139/115/155 116/140/116/156 70/70/70/66 
f 115/139/115/155 70/70/70/66 69/69/69/47 
f 65/65/65/62 85/113/85/107 72/72/72/47 
f 78/78/78/47 84/106/84/100 64/64/64/61 
f 79/50/79/109 125/151/125/167 87/115/87/110 
f 121/147/121/163 117/141/117/157 73/73/73/68 
f 121/147/121/163 73/73/73/68 72/72/72/47 
f 99/74/99/120 89/53/89/47 139/169/139/187 
f 129/157/129/173 124/150/124/166 98/70/98/119 
f 129/157/129/173 98/70/98/119 97/69/97/47 
f 90/54/90/112 133/161/133/178 91/117/91/113 
f 96/68/96/118 126/153/126/169 107/129/107/144 
f 77/113/77/145 134/163/134/180 108/130/108/146 
f 71/71/71/67 49/49/49/47 112/136/112/152 
f 50/50/50/48 109/131/109/147 51/51/51/49 
f 137/167/137/185 132/160/132/177 76/73/76/122 
f 137/167/137/185 76/73/76/122 75/72/75/47 
