v 129.6147 -2.5063 574.0295
v 1302.1906 -2.5063 574.0297
v 1302.1906 -2.5061 -643.3617
v -254.3567 -2.5063 574.0294
v -1428.5198 -2.5063 574.0293
v -63.342 -2.5061 -643.8364
v -1428.5198 -2.5061 -644.3114
gi 0 0 0 0
gi 0 0 0 0
gi 0 0 0 0
gi 0 0 0 0
gi 0 0 0 0
gi 0 0 0 0
gi 0 0 0 0
gw 0.0 0.0 0.0 0.0
gw 0.0 0.0 0.0 0.0
gw 0.0 0.0 0.0 0.0
gw 0.0 0.0 0.0 0.0
gw 0.0 0.0 0.0 0.0
gw 0.0 0.0 0.0 0.0
gw 0.0 0.0 0.0 0.0
vt 2.6217 5.9525
vt -1.8905 5.9525
vt -1.8905 1.2679
vt 4.0992 5.9525
vt 8.6175 5.9525
vt 3.3642 1.2661
vt 8.6175 1.2642
vn -0.0 1.0 0.0
vn -0.0 1.0 0.0
vn -0.0 1.0 0.0
vn -0.0 1.0 0.0
vn -0.0 1.0 0.0
vtan -1.0 0.0 -0.0
vtan -1.0 0.0 -0.0
vtan -1.0 -0.0 -0.0
vtan -1.0 -0.0 -0.0
vtan -1.0 -0.0 0.0
vtan -1.0 -0.0 0.0
f 0/0/0/0 1/1/0/0 2/2/0/0 
f 0/0/1/1 2/2/1/1 3/3/1/1 
f 4/4/2/2 3/3/2/2 2/2/2/2 
f 4/4/3/3 2/2/3/3 5/5/3/3 
f 6/6/4/4 4/4/4/5 5/5/4/5 
