v 1302.2209 415.5304 -645.431
v 900.1713 415.5304 -645.431
v 900.1713 415.5304 -301.7632
v 1302.2209 415.5304 -301.7632
v -1030.1748 415.5304 -301.7632
v -1030.1748 415.5304 -645.431
v -1432.2244 415.5304 -645.431
v -1432.2244 415.5304 -301.7632
v -1030.1748 415.5303 230.5175
v -1432.2244 415.5303 230.5175
v 900.1713 415.5303 230.5175
v 900.1713 415.5302 574.1852
v 1302.2209 415.5302 574.1852
v 1302.2209 415.5303 230.5175
v -1432.2244 415.5302 574.1852
v -1030.1748 415.5302 574.1852
gi 0 0 0 0
gi 0 0 0 0
gi 0 0 0 0
gi 0 0 0 0
gi 0 0 0 0
gi 0 0 0 0
gi 0 0 0 0
gi 0 0 0 0
gi 0 0 0 0
gi 0 0 0 0
gi 0 0 0 0
gi 0 0 0 0
gi 0 0 0 0
gi 0 0 0 0
gi 0 0 0 0
gi 0 0 0 0
gw 0.0 0.0 0.0 0.0
gw 0.0 0.0 0.0 0.0
gw 0.0 0.0 0.0 0.0
gw 0.0 0.0 0.0 0.0
gw 0.0 0.0 0.0 0.0
gw 0.0 0.0 0.0 0.0
gw 0.0 0.0 0.0 0.0
gw 0.0 0.0 0.0 0.0
gw 0.0 0.0 0.0 0.0
gw 0.0 0.0 0.0 0.0
gw 0.0 0.0 0.0 0.0
gw 0.0 0.0 0.0 0.0
gw 0.0 0.0 0.0 0.0
gw 0.0 0.0 0.0 0.0
gw 0.0 0.0 0.0 0.0
gw 0.0 0.0 0.0 0.0
vt 6.7189 3.1852
vt 5.731 3.1852
vt 5.731 2.3274
vt 6.7189 2.3274
vt 0.9879 2.3274
vt 0.9879 3.1852
vt 0.0 3.1852
vt 0.0 2.3274
vt 0.9879 1.0173
vt 0.0 1.0173
vt 5.731 1.0173
vt 5.731 0.1409
vt 6.7189 0.1409
vt 6.7189 1.0173
vt 0.0 0.1409
vt 0.9879 0.1409
vn 0.0 1.0 0.0
vn 0.0 1.0 0.0
vn 0.0 1.0 0.0
vn 0.0 1.0 0.0
vn 0.0 1.0 0.0
vn 0.0 1.0 0.0
vn 0.0 1.0 0.0
vn 0.0 1.0 0.0
vn 0.0 1.0 0.0
vn 0.0 1.0 0.0
vn 0.0 1.0 0.0
vn 0.0 1.0 0.0
vn 0.0 1.0 0.0
vn 0.0 1.0 0.0
vtan 1.0 0.0 0.0
f 0/0/0/0 1/1/1/0 2/2/2/0 
f 0/0/0/0 2/2/2/0 3/3/3/0 
f 4/4/4/0 5/5/5/0 6/6/6/0 
f 4/4/4/0 6/6/6/0 7/7/7/0 
f 8/8/8/0 4/4/4/0 7/7/7/0 
f 8/8/8/0 7/7/7/0 9/9/3/0 
f 1/1/1/0 5/5/5/0 4/4/4/0 
f 1/1/1/0 4/4/4/0 2/2/2/0 
f 10/10/9/0 11/11/10/0 12/12/11/0 
f 10/10/9/0 12/12/11/0 13/13/7/0 
f 2/2/2/0 10/10/9/0 13/13/7/0 
f 2/2/2/0 13/13/7/0 3/3/3/0 
f 14/14/12/0 15/15/13/0 8/8/8/0 
f 14/14/12/0 8/8/8/0 9/9/3/0 
f 15/15/13/0 11/11/10/0 10/10/9/0 
f 15/15/13/0 10/10/9/0 8/8/8/0 
