v -1685.0363 1378.4841 869.5167
v -1846.0774 1350.0873 1030.5579
v -1470.775 1350.0873 1030.5634
v -1470.775 1378.5909 868.9108
v -1470.775 1330.4882 1101.6298
v -1919.681 1330.0403 1104.1615
v -1844.8688 1343.2322 1029.3491
v -1470.775 1343.2322 1029.3546
v -1920.8966 1336.8942 1105.377
v -1470.775 1337.3431 1102.8385
v -1013.3579 1350.0873 1030.5634
v -1013.3579 1378.3628 870.2045
v -1013.3579 1343.2322 1029.3546
v -1013.3579 1330.0319 1104.2175
v -1013.3579 1336.8868 1105.4263
v -1470.775 1371.736 867.702
v -1470.7682 1409.1984 655.2487
v -1435.8353 1415.3583 620.3159
v -1013.3579 1415.3583 620.3077
v -1013.3579 1371.5078 868.9958
v -1437.0441 1422.2133 621.5244
v -1013.3579 1422.2133 621.5164
v -555.9408 1378.5909 868.9108
v -130.9657 1378.379 870.1127
v -130.9657 1422.2133 621.5164
v -555.9408 1422.2133 621.5164
v -555.9408 1350.0873 1030.5634
v -130.9657 1350.0873 1030.5634
v -555.9408 1343.2322 1029.3546
v -130.9657 1343.2322 1029.3546
v -130.9657 1330.0642 1104.0341
v -555.9408 1330.4882 1101.6298
v -130.9657 1336.9193 1105.2427
v -555.9408 1337.3431 1102.8385
v -555.9408 1415.3583 620.3077
v -555.9408 1371.736 867.702
v -130.9657 1415.3583 620.3077
v -130.9657 1371.5239 868.9041
v -60.5189 1336.9895 1104.8442
v -60.5189 1350.0873 1030.5634
v -60.5189 1415.3583 620.3077
v -60.5189 1371.5591 868.7048
v -60.5189 1343.2322 1029.3546
v -60.5189 1422.2133 621.5164
v -1683.8241 1371.6296 868.3044
v -1470.7682 1416.2666 655.2485
v -1846.083 1350.0873 655.2554
v -1684.4303 1378.5909 655.2554
v -1917.1494 1330.4882 655.2554
v -1844.8743 1343.2322 655.2554
v -1918.358 1337.3431 655.2554
v -1685.7242 1378.3629 197.8383
v -1846.083 1350.0874 197.8383
v -1919.7372 1330.032 197.8383
v -1844.8743 1343.2323 197.8383
v -1920.9459 1336.887 197.8383
v -1683.2216 1371.736 655.2554
v -1435.8274 1415.3584 197.8383
v -1684.5155 1371.5079 197.8383
v -1437.0361 1422.2134 197.8383
v -1846.0831 1350.0874 -38.6904
v -1919.6078 1337.1229 -38.6904
v -1683.8464 1371.6259 -38.6904
v -1435.8274 1415.3584 -38.6904
v -1844.8744 1343.2323 -38.6904
v -1437.0363 1422.2134 -38.6904
v -60.5189 1378.4142 869.9136
v -60.5189 1330.1345 1103.6355
v 1349.7372 1350.0873 1030.5634
v 1725.0396 1350.0873 1030.5579
v 1563.9984 1378.4841 869.5167
v 1349.7372 1378.5909 868.9108
v 1349.7372 1330.4882 1101.6298
v 1349.7372 1343.2322 1029.3546
v 1723.8309 1343.2322 1029.3491
v 1798.6432 1330.0403 1104.1615
v 1799.8588 1336.8942 1105.377
v 1349.7372 1337.3431 1102.8385
v 892.3202 1378.3628 870.2045
v 892.3202 1350.0873 1030.5634
v 892.3202 1330.0319 1104.2175
v 892.3202 1343.2322 1029.3546
v 892.3202 1336.8868 1105.4263
v 1314.7975 1415.3583 620.3159
v 1349.7303 1409.1984 655.2487
v 1349.7372 1371.736 867.702
v 892.3202 1415.3583 620.3077
v 892.3202 1371.5078 868.9958
v 892.3202 1422.2133 621.5164
v 1316.0062 1422.2133 621.5244
v 9.9279 1422.2133 621.5164
v 9.9279 1378.379 870.1127
v 434.9031 1378.5909 868.9108
v 434.9031 1422.2133 621.5164
v 9.9279 1350.0873 1030.5634
v 434.9031 1350.0873 1030.5634
v 9.9279 1330.0642 1104.0341
v 9.9279 1343.2322 1029.3546
v 434.9031 1343.2322 1029.3546
v 434.9031 1330.4882 1101.6298
v 9.9279 1336.9193 1105.2427
v 434.9031 1337.3431 1102.8385
v 434.9031 1371.736 867.702
v 434.9031 1415.3583 620.3077
v 9.9279 1415.3583 620.3077
v 9.9279 1371.5239 868.9041
v 1562.7863 1371.6296 868.3044
v 1349.7303 1416.2666 655.2485
v 1725.0452 1350.0873 655.2554
v 1563.3925 1378.5909 655.2554
v 1796.1116 1330.4882 655.2554
v 1723.8364 1343.2322 655.2554
v 1797.3202 1337.3431 655.2554
v 1725.0452 1350.0874 197.8383
v 1564.6864 1378.3629 197.8383
v 1723.8364 1343.2323 197.8383
v 1798.6993 1330.032 197.8383
v 1799.9081 1336.887 197.8383
v 1562.1837 1371.736 655.2554
v 1314.7896 1415.3584 197.8383
v 1563.4777 1371.5079 197.8383
v 1315.9983 1422.2134 197.8383
v 1798.5701 1337.1229 -38.6904
v 1725.0453 1350.0874 -38.6904
v 1314.7896 1415.3584 -38.6904
v 1562.8087 1371.6259 -38.6904
v 1723.8365 1343.2323 -38.6904
v 1315.9984 1422.2134 -38.6904
v -1685.0553 1378.481 -38.6904
v -1918.399 1330.2679 -38.6904
v 1564.0175 1378.481 -38.6904
v 1797.3612 1330.2679 -38.6904
v -1470.775 1350.0875 -1107.9441
v -1846.0774 1350.0875 -1107.9385
v -1685.0363 1378.4844 -946.8972
v -1470.775 1378.5912 -946.2914
v -1470.775 1330.4885 -1179.0105
v -1470.775 1343.2324 -1106.7354
v -1844.8688 1343.2324 -1106.73
v -1919.681 1330.0406 -1181.5422
v -1920.8966 1336.8945 -1182.7576
v -1470.775 1337.3435 -1180.2192
v -1013.3579 1378.363 -947.5851
v -1013.3579 1350.0875 -1107.9441
v -1013.3579 1330.0322 -1181.5981
v -1013.3579 1343.2324 -1106.7354
v -1013.3579 1336.8872 -1182.8069
v -1435.8353 1415.3585 -697.6965
v -1470.7682 1409.1986 -732.6293
v -1470.775 1371.7362 -945.0826
v -1013.3579 1415.3585 -697.6885
v -1013.3579 1371.5081 -946.3763
v -1013.3579 1422.2135 -698.8972
v -1437.0441 1422.2135 -698.905
v -130.9657 1422.2135 -698.8972
v -130.9657 1378.3793 -947.4933
v -555.9408 1378.5912 -946.2914
v -555.9408 1422.2135 -698.8972
v -130.9657 1350.0875 -1107.9441
v -555.9408 1350.0875 -1107.9441
v -130.9657 1330.0646 -1181.4148
v -130.9657 1343.2324 -1106.7354
v -555.9408 1343.2324 -1106.7354
v -555.9408 1330.4885 -1179.0105
v -130.9657 1336.9197 -1182.6235
v -555.9408 1337.3435 -1180.2192
v -555.9408 1371.7362 -945.0826
v -555.9408 1415.3585 -697.6885
v -130.9657 1415.3585 -697.6885
v -130.9657 1371.5242 -946.2847
v -60.5189 1350.0875 -1107.9441
v -60.5189 1336.9899 -1182.2249
v -60.5189 1371.5593 -946.0853
v -60.5189 1415.3585 -697.6885
v -60.5189 1343.2324 -1106.7354
v -60.5189 1422.2135 -698.8972
v -1683.8241 1371.6299 -945.6849
v -1470.7682 1416.2668 -732.629
v -1846.083 1350.0875 -732.6362
v -1684.4303 1378.5912 -732.6362
v -1917.1494 1330.4884 -732.6362
v -1844.8743 1343.2324 -732.636
v -1918.358 1337.3434 -732.636
v -1846.083 1350.0874 -275.219
v -1685.7242 1378.3629 -275.219
v -1844.8743 1343.2323 -275.219
v -1919.7372 1330.032 -275.219
v -1920.9459 1336.887 -275.219
v -1683.2216 1371.7362 -732.6362
v -1435.8274 1415.3584 -275.219
v -1684.5155 1371.5079 -275.219
v -1437.0361 1422.2134 -275.219
v -60.5189 1378.4144 -947.2941
v -60.5189 1330.1349 -1181.0161
v 1563.9984 1378.4844 -946.8972
v 1725.0396 1350.0875 -1107.9385
v 1349.7372 1350.0875 -1107.9441
v 1349.7372 1378.5912 -946.2914
v 1349.7372 1330.4885 -1179.0105
v 1798.6432 1330.0406 -1181.5422
v 1723.8309 1343.2324 -1106.73
v 1349.7372 1343.2324 -1106.7354
v 1799.8588 1336.8945 -1182.7576
v 1349.7372 1337.3435 -1180.2192
v 892.3202 1350.0875 -1107.9441
v 892.3202 1378.363 -947.5851
v 892.3202 1343.2324 -1106.7354
v 892.3202 1330.0322 -1181.5981
v 892.3202 1336.8872 -1182.8069
v 1349.7372 1371.7362 -945.0826
v 1349.7303 1409.1986 -732.6293
v 1314.7975 1415.3585 -697.6965
v 892.3202 1415.3585 -697.6885
v 892.3202 1371.5081 -946.3763
v 1316.0062 1422.2135 -698.905
v 892.3202 1422.2135 -698.8972
v 434.9031 1378.5912 -946.2914
v 9.9279 1378.3793 -947.4933
v 9.9279 1422.2135 -698.8972
v 434.9031 1422.2135 -698.8972
v 434.9031 1350.0875 -1107.9441
v 9.9279 1350.0875 -1107.9441
v 434.9031 1343.2324 -1106.7354
v 9.9279 1343.2324 -1106.7354
v 9.9279 1330.0646 -1181.4148
v 434.9031 1330.4885 -1179.0105
v 9.9279 1336.9197 -1182.6235
v 434.9031 1337.3435 -1180.2192
v 434.9031 1415.3585 -697.6885
v 434.9031 1371.7362 -945.0826
v 9.9279 1415.3585 -697.6885
v 9.9279 1371.5242 -946.2847
v 1562.7863 1371.6299 -945.6849
v 1349.7303 1416.2668 -732.629
v 1725.0452 1350.0875 -732.6362
v 1563.3925 1378.5912 -732.6362
v 1796.1116 1330.4884 -732.6362
v 1723.8364 1343.2324 -732.636
v 1797.3202 1337.3434 -732.636
v 1564.6864 1378.3629 -275.219
v 1725.0452 1350.0874 -275.219
v 1798.6993 1330.032 -275.219
v 1723.8364 1343.2323 -275.219
v 1799.9081 1336.887 -275.219
v 1562.1837 1371.7362 -732.6362
v 1314.7896 1415.3584 -275.219
v 1563.4777 1371.5079 -275.219
v 1315.9983 1422.2134 -275.219
vt 0.4828 0.5099
vt 0.8244 0.1916
vt 0.0284 0.1916
vt 0.0284 0.5111
vt 0.0284 0.0487
vt 0.9805 0.0437
vt 0.8218 0.1916
vt 0.9831 0.0437
vt 0.9986 0.1916
vt 0.9986 0.5085
vt 0.9986 0.0436
vt 0.0284 0.931
vt 0.1025 1.0
vt 0.9986 1.0
vt 0.0999 1.0
vt 0.9298 0.5087
vt 0.9298 1.0
vt 0.0284 1.0
vt 0.9297 0.1916
vt 0.9298 0.044
vt 0.7803 0.0448
vt 0.7803 0.1916
vt 0.7803 1.0
vt 0.7803 0.5091
vt 0.4803 0.5099
vt 0.0284 0.9333
vt 0.4969 0.1916
vt 0.4969 0.0463
vt 0.4969 0.5098
vt 0.4969 1.0
vn -0.0875 0.9923 0.0875
vn -0.0875 0.9923 0.0875
vn -0.0 0.9848 0.1736
vn 0.0 0.9848 0.1737
vn -0.0 -0.8202 0.5721
vn -0.5073 -0.6966 0.5073
vn 0.0875 -0.9923 -0.0875
vn 0.0 -0.9848 -0.1736
vn -0.6323 0.4475 0.6323
vn -0.0 0.5751 0.8181
vn 0.0 0.9848 0.1736
vn 0.0 0.9848 0.1736
vn 0.0 -0.9848 -0.1736
vn -0.0 -0.8181 0.5751
vn -0.0 0.5721 0.8202
vn -0.0 -0.9848 -0.1737
vn 0.0875 -0.9923 -0.0875
vn 0.4232 -0.8011 -0.4232
vn -0.0 -0.5736 -0.8192
vn 0.0 -0.9848 -0.1736
vn 0.1832 0.9658 -0.1832
vn -0.0 0.8191 -0.5736
vn -0.0 0.9848 0.1736
vn -0.0 0.9848 0.1736
vn -0.0 0.8191 -0.5736
vn 0.0 0.8192 -0.5736
vn -0.0 0.9848 0.1736
vn 0.0 0.9848 0.1736
vn -0.0 -0.9848 -0.1736
vn 0.0 -0.9848 -0.1736
vn 0.0 -0.8181 0.5751
vn 0.0 -0.8202 0.5721
vn 0.0 0.5721 0.8202
vn 0.0 0.5751 0.8181
vn 0.0 -0.5736 -0.8192
vn -0.0 -0.9848 -0.1736
vn -0.0 -0.5736 -0.8192
vn 0.0 -0.9848 -0.1736
vn -0.0 0.5751 0.8181
vn -0.0 0.9848 0.1736
vn 0.0 -0.5736 -0.8192
vn 0.0 -0.9848 -0.1736
vn 0.0 -0.9848 -0.1736
vn 0.0 0.8192 -0.5736
vn 0.0875 -0.9923 -0.0875
vn -0.0875 0.9923 0.0875
vn -0.1737 0.9848 0.0
vn -0.1736 0.9848 0.0
vn -0.5721 -0.8202 0.0
vn 0.1736 -0.9848 -0.0
vn -0.8181 0.5751 0.0
vn -0.1736 0.9848 -0.0
vn -0.1736 0.9848 0.0
vn -0.5751 -0.8181 -0.0
vn 0.1736 -0.9848 -0.0
vn -0.8202 0.5721 0.0
vn 0.1737 -0.9848 0.0
vn 0.8192 -0.5736 0.0
vn 0.1736 -0.9848 -0.0
vn 0.5736 0.8192 0.0
vn -0.1736 0.9848 -0.0
vn -0.8181 0.5751 -0.0
vn 0.1736 -0.9848 0.0
vn 0.8192 -0.5736 -0.0
vn 0.1736 -0.9848 -0.0
vn 0.5736 0.8192 -0.0
vn -0.0 0.9848 0.1736
vn -0.0 -0.8202 0.5721
vn 0.0 0.9848 0.1736
vn 0.0875 0.9923 0.0875
vn 0.0875 0.9923 0.0875
vn -0.0 0.9848 0.1737
vn 0.0 -0.8202 0.5721
vn -0.0 -0.9848 -0.1736
vn -0.0875 -0.9923 -0.0875
vn 0.5073 -0.6966 0.5073
vn 0.6323 0.4475 0.6323
vn 0.0 0.5751 0.8181
vn -0.0 0.9848 0.1736
vn 0.0 0.9848 0.1736
vn 0.0 -0.8181 0.5751
vn 0.0 0.5721 0.8202
vn -0.4232 -0.8011 -0.4232
vn -0.0875 -0.9923 -0.0875
vn 0.0 -0.9848 -0.1737
vn 0.0 -0.5736 -0.8192
vn 0.0 -0.9848 -0.1736
vn 0.0 0.8191 -0.5736
vn -0.1832 0.9658 -0.1832
vn 0.0 0.8191 -0.5736
vn 0.0 0.9848 0.1736
vn 0.0 0.9848 0.1736
vn 0.0 0.8192 -0.5736
vn 0.0 0.9848 0.1736
vn 0.0 0.9848 0.1736
vn -0.0 -0.8181 0.5751
vn 0.0 -0.9848 -0.1736
vn 0.0 -0.9848 -0.1736
vn -0.0 -0.8202 0.5721
vn -0.0 0.5721 0.8202
vn -0.0 0.5751 0.8181
vn 0.0 -0.9848 -0.1736
vn 0.0 -0.5736 -0.8192
vn 0.0 -0.5736 -0.8192
vn 0.0 -0.9848 -0.1736
vn -0.0875 -0.9923 -0.0875
vn 0.0875 0.9923 0.0875
vn 0.1736 0.9848 0.0
vn 0.1737 0.9848 0.0
vn 0.5721 -0.8202 0.0
vn -0.1736 -0.9848 -0.0
vn 0.8181 0.5751 0.0
vn 0.1736 0.9848 0.0
vn 0.1736 0.9848 -0.0
vn -0.1736 -0.9848 -0.0
vn 0.5751 -0.8181 -0.0
vn 0.8202 0.5721 0.0
vn -0.1737 -0.9848 0.0
vn -0.8192 -0.5736 0.0
vn -0.1736 -0.9848 -0.0
vn -0.5736 0.8192 0.0
vn 0.8181 0.5751 0.0
vn 0.1736 0.9848 0.0
vn -0.8192 -0.5736 0.0
vn -0.1736 -0.9848 -0.0
vn -0.1736 -0.9848 -0.0
vn -0.5736 0.8192 0.0
vn -0.1736 0.9848 0.0
vn -0.5721 -0.8202 0.0
vn 0.1736 0.9848 -0.0
vn 0.5721 -0.8202 -0.0
vn -0.0 0.9848 -0.1736
vn -0.0875 0.9923 -0.0875
vn -0.0875 0.9923 -0.0875
vn 0.0 0.9848 -0.1737
vn -0.0 -0.8202 -0.5721
vn 0.0 -0.9848 0.1736
vn 0.0875 -0.9923 0.0875
vn -0.5073 -0.6966 -0.5073
vn -0.6324 0.4475 -0.6323
vn -0.0 0.5751 -0.8181
vn 0.0 0.9848 -0.1736
vn 0.0 0.9848 -0.1736
vn 0.0 -0.8181 -0.5751
vn 0.0 -0.9848 0.1736
vn 0.0 0.5721 -0.8202
vn 0.4232 -0.8011 0.4232
vn 0.0875 -0.9923 0.0875
vn -0.0 -0.9848 0.1737
vn -0.0 -0.5736 0.8192
vn -0.0 -0.9848 0.1736
vn -0.0 0.8191 0.5736
vn 0.1833 0.9658 0.1832
vn -0.0 0.8191 0.5736
vn -0.0 0.9848 -0.1736
vn -0.0 0.9848 -0.1736
vn 0.0 0.8192 0.5736
vn 0.0 0.9848 -0.1736
vn -0.0 0.9848 -0.1736
vn 0.0 -0.8181 -0.5751
vn 0.0 -0.9848 0.1736
vn -0.0 -0.9848 0.1736
vn -0.0 -0.8202 -0.5721
vn 0.0 0.5721 -0.8202
vn -0.0 0.5751 -0.8181
vn -0.0 -0.9848 0.1736
vn 0.0 -0.5736 0.8192
vn -0.0 -0.5736 0.8192
vn 0.0 -0.9848 0.1736
vn 0.0 0.9848 -0.1736
vn 0.0 0.5751 -0.8181
vn 0.0 -0.9848 0.1736
vn 0.0 -0.5736 0.8192
vn -0.0 -0.9848 0.1736
vn 0.0 0.8192 0.5736
vn 0.0875 -0.9923 0.0875
vn -0.0875 0.9923 -0.0875
vn -0.1736 0.9848 -0.0
vn -0.1737 0.9848 -0.0
vn -0.5721 -0.8202 -0.0
vn 0.1736 -0.9848 0.0
vn -0.8181 0.5751 -0.0
vn -0.1736 0.9848 0.0
vn -0.1736 0.9848 0.0
vn 0.1736 -0.9848 0.0
vn -0.5751 -0.8181 0.0
vn -0.8202 0.5721 -0.0
vn 0.1737 -0.9848 -0.0
vn 0.8192 -0.5736 -0.0
vn 0.1736 -0.9848 -0.0
vn 0.5736 0.8191 -0.0
vn -0.0 0.9848 -0.1736
vn 0.0 -0.8202 -0.5721
vn 0.0875 0.9923 -0.0875
vn 0.0875 0.9923 -0.0875
vn 0.0 0.9848 -0.1736
vn -0.0 0.9848 -0.1737
vn 0.0 -0.8202 -0.5721
vn 0.5073 -0.6966 -0.5073
vn -0.0875 -0.9923 0.0875
vn -0.0 -0.9848 0.1736
vn 0.6324 0.4475 -0.6323
vn 0.0 0.5751 -0.8181
vn -0.0 0.9848 -0.1736
vn 0.0 -0.9848 0.1736
vn 0.0 -0.8181 -0.5751
vn 0.0 0.5721 -0.8202
vn 0.0 -0.9848 0.1737
vn -0.0875 -0.9923 0.0875
vn -0.4232 -0.8011 0.4232
vn 0.0 -0.5736 0.8192
vn 0.0 -0.9848 0.1736
vn -0.1833 0.9658 0.1832
vn 0.0 0.8191 0.5736
vn 0.0 0.9848 -0.1736
vn 0.0 0.9848 -0.1736
vn 0.0 0.8191 0.5736
vn 0.0 0.8191 0.5736
vn 0.0 0.9848 -0.1736
vn 0.0 0.9848 -0.1736
vn 0.0 -0.9848 0.1736
vn 0.0 -0.9848 0.1736
vn -0.0 -0.8181 -0.5751
vn 0.0 -0.8202 -0.5721
vn -0.0 0.5721 -0.8202
vn 0.0 0.5751 -0.8181
vn 0.0 -0.5736 0.8192
vn 0.0 -0.9848 0.1736
vn 0.0 -0.5736 0.8192
vn -0.0 -0.9848 0.1736
vn -0.0875 -0.9923 0.0875
vn 0.0875 0.9923 -0.0875
vn 0.1736 0.9848 -0.0
vn 0.1737 0.9848 0.0
vn 0.5721 -0.8202 -0.0
vn -0.1736 -0.9848 0.0
vn 0.8181 0.5751 -0.0
vn 0.1736 0.9848 0.0
vn 0.1736 0.9848 0.0
vn 0.5751 -0.8181 -0.0
vn -0.1736 -0.9848 0.0
vn 0.8202 0.5721 -0.0
vn -0.1737 -0.9848 -0.0
vn -0.8192 -0.5736 -0.0
vn -0.1736 -0.9848 0.0
vn -0.5736 0.8192 -0.0
vtan -0.9962 -0.0871 -0.0077 -1.0
vtan -0.9962 -0.0872 -0.0077 -1.0
vtan -1.0 0.0 -0.0 -1.0
vtan -1.0 0.0 -0.0 -1.0
vtan -1.0 -0.0 -0.0 1.0
vtan -0.8618 0.4101 -0.2987 1.0
vtan -0.9962 -0.0872 -0.0077 1.0
vtan -1.0 0.0 -0.0 1.0
vtan -0.1409 0.7362 -0.6619 -1.0
vtan -0.4926 0.7175 0.4925 -1.0
vtan 1.0 0.0039 0.0055 -1.0
vtan -1.0 0.0 -0.0 -1.0
vtan 1.0 0.0 -0.0 1.0
vtan 1.0 0.0 0.0 1.0
vtan 1.0 0.0 -0.0 1.0
vtan 1.0 0.0 -0.0 1.0
vtan 1.0 0.0 -0.0 -1.0
vtan 1.0 0.0 0.0 -1.0
vtan -1.0 -0.0 0.0 -1.0
vtan 1.0 -0.0 0.0 1.0
vtan 1.0 -0.0 0.0 1.0
vtan 1.0 0.0 -0.0001 -1.0
vtan 0.9962 0.0872 0.0071 -1.0
vtan 0.906 0.3743 0.1975 -1.0
vtan 1.0 0.0 -0.0 -1.0
vtan 1.0 0.0 -0.0 -1.0
vtan -0.0344 -0.18 -0.9831 -1.0
vtan 1.0 0.0 -0.0 1.0
vtan 1.0 0.0 -0.0 1.0
vtan 1.0 -0.0 -0.0 1.0
vtan 1.0 -0.0 0.0 1.0
vtan 1.0 -0.0 0.0 -1.0
vtan 1.0 0.0 0.0 -1.0
vtan 1.0 0.0 0.0 -1.0
vtan -1.0 0.0 -0.0 -1.0
vtan -1.0 -0.0 0.0 -1.0
vtan -1.0 -0.0 -0.0 -1.0
vtan -1.0 0.0 -0.0 -1.0
vtan -1.0 0.0 -0.0 -1.0
vtan -1.0 0.0 0.0 -1.0
vtan -1.0 0.0 -0.0 -1.0
vtan -1.0 0.0 0.0 1.0
vtan -1.0 0.0 -0.0 1.0
vtan -1.0 0.0 0.0 1.0
vtan -1.0 0.0 -0.0 1.0
vtan -1.0 0.0 -0.0 1.0
vtan -1.0 0.0 -0.0 1.0
vtan 1.0 -0.0 0.0 1.0
vtan 1.0 -0.0 0.0 1.0
vtan 1.0 0.0 -0.0 -1.0
vtan 1.0 0.0 -0.0 -1.0
vtan 1.0 0.0 -0.0 -1.0
vtan -1.0 0.0 -0.0 1.0
vtan -1.0 0.0001 -0.0 -1.0
vtan -1.0 0.0 -0.0 -1.0
vtan -1.0 0.0 -0.0 1.0
vtan -1.0 0.0 -0.0 1.0
vtan -1.0 0.0 -0.0 1.0
vtan -0.9962 -0.0872 -0.0077 1.0
vtan -1.0 0.0 -0.0 1.0
vtan -0.9962 -0.0871 -0.0077 1.0
vtan -0.9962 -0.0872 -0.0077 -1.0
vtan 1.0 -0.0 -0.0 1.0
vtan 0.9831 -0.18 0.0344 1.0
vtan 0.9962 0.0871 0.0086 1.0
vtan 0.0077 -0.0871 0.9962 1.0
vtan 0.0 0.0 1.0 1.0
vtan 0.0 0.0 1.0 1.0
vtan 0.0077 -0.0872 0.9962 1.0
vtan 0.0 -0.0 1.0 -1.0
vtan 0.0 0.0 1.0 -1.0
vtan 0.0077 -0.0872 0.9962 -1.0
vtan 0.2987 0.4101 0.8617 -1.0
vtan -0.0055 0.0039 -1.0 1.0
vtan -0.4926 0.7175 0.4925 1.0
vtan 0.6619 0.7362 0.1409 1.0
vtan 0.0 0.0 1.0 1.0
vtan 0.0 0.0 -1.0 -1.0
vtan 0.0 0.0 -1.0 -1.0
vtan 0.0 0.0 -1.0 -1.0
vtan 0.0 0.0 -1.0 -1.0
vtan -0.0 0.0 -1.0 1.0
vtan -0.0 0.0 -1.0 1.0
vtan 0.0 0.0 -1.0 1.0
vtan 0.0 0.0 1.0 1.0
vtan -0.0 -0.0 -1.0 -1.0
vtan -0.0 -0.0 -1.0 -1.0
vtan -0.1975 0.3743 -0.906 1.0
vtan -0.0071 0.0872 -0.9962 1.0
vtan 0.0001 0.0 -1.0 1.0
vtan 0.0 0.0 -1.0 1.0
vtan 0.0 0.0 -1.0 1.0
vtan 0.0 -0.0 -1.0 -1.0
vtan -0.0 -0.0 1.0 -1.0
vtan 0.0 0.0 1.0 1.0
vtan 0.0 0.0001 1.0 1.0
vtan -0.0 -0.0 1.0 1.0
vtan -0.0 -0.0 1.0 -1.0
vtan 0.0 -0.0 1.0 -1.0
vtan -0.0 -0.0 1.0 -1.0
vtan -0.0 -0.0 1.0 -1.0
vtan 0.0 0.0 1.0 -1.0
vtan -0.0 0.0 -1.0 -1.0
vtan 0.0077 -0.0871 0.9962 -1.0
vtan 0.0077 -0.0871 0.9962 -1.0
vtan 0.0 0.0 1.0 -1.0
vtan 0.0077 -0.0872 0.9962 1.0
vtan -0.0086 0.0871 -0.9962 -1.0
vtan -1.0 -0.0 -0.0 -1.0
vtan -1.0 0.0 -0.0 -1.0
vtan -1.0 0.0 -0.0 -1.0
vtan -1.0 -0.0 -0.0 1.0
vtan -1.0 -0.0 -0.0001 1.0
vtan 1.0 0.0 -0.0 1.0
vtan 0.9962 -0.0872 -0.0077 1.0
vtan 0.9962 -0.0871 -0.0077 1.0
vtan 1.0 0.0 -0.0 1.0
vtan 1.0 -0.0 -0.0 -1.0
vtan 1.0 0.0 -0.0 -1.0
vtan 0.9962 -0.0872 -0.0077 -1.0
vtan 0.8618 0.4101 -0.2987 -1.0
vtan -1.0 0.0039 0.0055 1.0
vtan 0.4926 0.7175 0.4925 1.0
vtan 0.1409 0.7362 -0.6619 1.0
vtan 1.0 0.0 -0.0 1.0
vtan -1.0 0.0 -0.0 -1.0
vtan -1.0 0.0 -0.0 -1.0
vtan -1.0 0.0 -0.0 -1.0
vtan -1.0 0.0 0.0 1.0
vtan -1.0 0.0 -0.0 1.0
vtan 1.0 -0.0 0.0 1.0
vtan -1.0 -0.0 0.0 -1.0
vtan -1.0 -0.0 0.0 -1.0
vtan -0.906 0.3743 0.1975 1.0
vtan -0.9962 0.0872 0.0071 1.0
vtan -1.0 0.0 -0.0001 1.0
vtan -1.0 0.0 -0.0 1.0
vtan -1.0 0.0 -0.0 1.0
vtan 0.0344 -0.18 -0.9831 1.0
vtan -1.0 -0.0 -0.0 -1.0
vtan -1.0 0.0 -0.0 -1.0
vtan -1.0 0.0 -0.0 -1.0
vtan -1.0 -0.0 0.0 -1.0
vtan -1.0 0.0 0.0 1.0
vtan -1.0 -0.0 0.0 1.0
vtan -1.0 0.0 0.0 1.0
vtan 1.0 -0.0 0.0 1.0
vtan 1.0 0.0 -0.0 1.0
vtan 1.0 0.0 -0.0 1.0
vtan 1.0 -0.0 -0.0 1.0
vtan 1.0 0.0 -0.0 1.0
vtan 1.0 0.0 -0.0 -1.0
vtan 1.0 0.0 0.0 -1.0
vtan 1.0 0.0 0.0 -1.0
vtan 1.0 0.0 -0.0 -1.0
vtan 1.0 0.0 -0.0 -1.0
vtan 1.0 0.0 -0.0 -1.0
vtan -1.0 -0.0 0.0 -1.0
vtan -1.0 -0.0 0.0 -1.0
vtan -1.0 0.0 -0.0 1.0
vtan -1.0 0.0 -0.0 1.0
vtan -1.0 0.0 -0.0 1.0
vtan 1.0 0.0 -0.0 1.0
vtan 1.0 0.0001 -0.0 1.0
vtan 1.0 0.0 -0.0 1.0
vtan 1.0 0.0 -0.0 -1.0
vtan 1.0 0.0 -0.0 -1.0
vtan 1.0 0.0 -0.0 -1.0
vtan 1.0 0.0 -0.0 -1.0
vtan 1.0 -0.0 -0.0 1.0
vtan 0.9962 -0.0872 -0.0077 -1.0
vtan 0.9962 -0.0871 -0.0077 -1.0
vtan 1.0 0.0 -0.0 -1.0
vtan 0.9962 -0.0872 -0.0077 1.0
vtan -0.9831 -0.18 0.0344 -1.0
vtan -1.0 -0.0 -0.0 -1.0
vtan -0.9962 0.0871 0.0086 -1.0
vtan -0.0077 -0.0871 0.9962 -1.0
vtan -0.0077 -0.0872 0.9962 -1.0
vtan -0.0 0.0 1.0 -1.0
vtan -0.0 0.0 1.0 -1.0
vtan -0.0 -0.0 1.0 1.0
vtan -0.2987 0.4101 0.8618 1.0
vtan -0.0077 -0.0872 0.9962 1.0
vtan -0.0 0.0 1.0 1.0
vtan -0.6619 0.7362 0.1409 -1.0
vtan 0.4926 0.7175 0.4926 -1.0
vtan 0.0055 0.0039 -1.0 -1.0
vtan -0.0 0.0 1.0 -1.0
vtan -0.0 0.0 -1.0 1.0
vtan -0.0 0.0 -1.0 1.0
vtan -0.0 0.0 -1.0 1.0
vtan -0.0 0.0 -1.0 1.0
vtan -0.0 0.0 -1.0 -1.0
vtan -0.0 0.0 -1.0 -1.0
vtan 0.0 0.0 -1.0 -1.0
vtan -0.0 0.0 1.0 -1.0
vtan 0.0 -0.0 -1.0 1.0
vtan 0.0 -0.0 -1.0 1.0
vtan -0.0001 0.0 -1.0 -1.0
vtan 0.0071 0.0872 -0.9962 -1.0
vtan 0.1975 0.3743 -0.906 -1.0
vtan -0.0 0.0 -1.0 -1.0
vtan -0.0 0.0 -1.0 -1.0
vtan -0.0 -0.0 -1.0 1.0
vtan 0.0 -0.0 1.0 1.0
vtan -0.0 0.0001 1.0 -1.0
vtan -0.0 0.0 1.0 -1.0
vtan -0.0 -0.0 1.0 -1.0
vtan 0.0 0.0 1.0 1.0
vtan 0.0 -0.0 1.0 1.0
vtan 0.0 -0.0 1.0 1.0
vtan -0.0 0.0 1.0 1.0
vtan -0.0 -0.0 1.0 1.0
vtan -0.0 -0.0 -1.0 1.0
vtan -0.0077 -0.0872 0.9962 1.0
vtan -0.0 0.0 1.0 1.0
vtan -0.0077 -0.0871 0.9962 1.0
vtan -0.0077 -0.0872 0.9962 -1.0
vtan 0.0086 0.0871 -0.9962 1.0
vtan 1.0 0.0 -0.0 1.0
vtan 1.0 0.0 -0.0 1.0
vtan 1.0 -0.0 -0.0 -1.0
vtan 1.0 -0.0 -0.0001 -1.0
vtan -0.0 -0.0 1.0 1.0
vtan -0.0 -0.0 1.0 1.0
vtan -0.0 0.0 1.0 1.0
vtan -0.0 -0.0 1.0 1.0
vtan 0.0001 -0.0 1.0 -1.0
vtan 0.0 -0.0 1.0 -1.0
vtan 0.0 -0.0 -1.0 1.0
vtan 0.0 0.0 1.0 -1.0
vtan 0.0 -0.0 1.0 -1.0
vtan 0.0 -0.0 1.0 -1.0
vtan -0.0 -0.0 1.0 -1.0
vtan -0.0 -0.0 1.0 1.0
vtan -0.0001 -0.0 1.0 1.0
vtan -1.0 0.0 0.0 1.0
vtan -0.9962 -0.0872 0.0077 1.0
vtan -0.9962 -0.0871 0.0077 1.0
vtan -1.0 0.0 0.0 1.0
vtan -1.0 -0.0 0.0 -1.0
vtan -1.0 0.0 0.0 -1.0
vtan -0.9962 -0.0872 0.0077 -1.0
vtan -0.8618 0.4101 0.2987 -1.0
vtan 1.0 0.0039 -0.0055 1.0
vtan -0.4926 0.7175 -0.4925 1.0
vtan -0.1409 0.7362 0.662 1.0
vtan -1.0 0.0 0.0 1.0
vtan 1.0 0.0 0.0 -1.0
vtan 1.0 0.0 0.0 -1.0
vtan 1.0 0.0 0.0 -1.0
vtan 1.0 0.0 -0.0 1.0
vtan 1.0 0.0 0.0 1.0
vtan -1.0 -0.0 -0.0 1.0
vtan 1.0 -0.0 -0.0 -1.0
vtan 1.0 -0.0 -0.0 -1.0
vtan 0.906 0.3743 -0.1975 1.0
vtan 0.9962 0.0872 -0.0071 1.0
vtan 1.0 0.0 0.0001 1.0
vtan 1.0 0.0 0.0 1.0
vtan 1.0 0.0 0.0 1.0
vtan -0.0344 -0.18 0.9831 1.0
vtan 1.0 -0.0 0.0 -1.0
vtan 1.0 0.0 0.0 -1.0
vtan 1.0 0.0 0.0 -1.0
vtan 1.0 -0.0 -0.0 -1.0
vtan 1.0 0.0 -0.0 1.0
vtan 1.0 -0.0 -0.0 1.0
vtan 1.0 0.0 -0.0 1.0
vtan -1.0 0.0 0.0 1.0
vtan -1.0 -0.0 -0.0 1.0
vtan -1.0 0.0 0.0 1.0
vtan -1.0 0.0 0.0 1.0
vtan -1.0 -0.0 0.0 1.0
vtan -1.0 0.0 0.0 1.0
vtan -1.0 0.0 0.0 -1.0
vtan -1.0 0.0 -0.0 -1.0
vtan -1.0 0.0 -0.0 -1.0
vtan -1.0 0.0 0.0 -1.0
vtan -1.0 0.0 0.0 -1.0
vtan -1.0 0.0 0.0 -1.0
vtan 1.0 -0.0 -0.0 -1.0
vtan 1.0 -0.0 -0.0 -1.0
vtan 1.0 0.0 0.0 1.0
vtan 1.0 0.0 0.0 1.0
vtan 1.0 0.0 0.0 1.0
vtan -1.0 0.0 0.0 -1.0
vtan -1.0 0.0 0.0 1.0
vtan -1.0 0.0001 0.0 1.0
vtan -1.0 0.0 0.0 -1.0
vtan -1.0 0.0 0.0 -1.0
vtan -1.0 0.0 0.0 -1.0
vtan -0.9962 -0.0872 0.0077 -1.0
vtan -0.9962 -0.0871 0.0077 -1.0
vtan -1.0 0.0 0.0 -1.0
vtan -0.9962 -0.0872 0.0077 1.0
vtan 0.9831 -0.18 -0.0344 -1.0
vtan 1.0 -0.0 0.0 -1.0
vtan 0.9962 0.0871 -0.0086 -1.0
vtan 0.0077 -0.0871 -0.9962 -1.0
vtan 0.0077 -0.0872 -0.9962 -1.0
vtan 0.0 0.0 -1.0 -1.0
vtan 0.0 0.0 -1.0 -1.0
vtan 0.0 -0.0 -1.0 1.0
vtan 0.2987 0.4101 -0.8617 1.0
vtan 0.0077 -0.0871 -0.9962 1.0
vtan 0.0 0.0 -1.0 1.0
vtan 0.6619 0.7362 -0.1409 -1.0
vtan -0.4926 0.7175 -0.4925 -1.0
vtan -0.0055 0.0039 1.0 -1.0
vtan 0.0 0.0 -1.0 -1.0
vtan 0.0 0.0 1.0 1.0
vtan -0.0 -0.0 1.0 1.0
vtan 0.0 0.0 1.0 1.0
vtan 0.0 0.0 1.0 1.0
vtan 0.0 0.0 1.0 -1.0
vtan -0.0 0.0 1.0 -1.0
vtan -0.0 0.0 1.0 -1.0
vtan -0.0 -0.0 1.0 1.0
vtan -0.0 -0.0 1.0 1.0
vtan 0.0001 0.0 1.0 -1.0
vtan -0.0071 0.0872 0.9962 -1.0
vtan -0.1975 0.3743 0.906 -1.0
vtan 0.0 0.0 1.0 -1.0
vtan 0.0 0.0 1.0 -1.0
vtan 0.0 -0.0 1.0 1.0
vtan 0.0 0.0 -1.0 -1.0
vtan 0.0 0.0001 -1.0 -1.0
vtan 0.0 0.0 -1.0 -1.0
vtan -0.0 -0.0 -1.0 -1.0
vtan -0.0 -0.0 -1.0 1.0
vtan -0.0 0.0 -1.0 1.0
vtan -0.0 -0.0 -1.0 1.0
vtan -0.0 -0.0 -1.0 1.0
vtan -0.0 -0.0 -1.0 1.0
vtan 0.0 0.0 -1.0 1.0
vtan -0.0 -0.0 -1.0 -1.0
vtan 0.0077 -0.0871 -0.9962 1.0
vtan 0.0 0.0 -1.0 1.0
vtan 0.0077 -0.0871 -0.9962 1.0
vtan 0.0077 -0.0872 -0.9962 -1.0
vtan -0.0086 0.0871 0.9962 1.0
vtan -1.0 0.0 0.0 1.0
vtan -1.0 0.0 0.0 1.0
vtan -1.0 -0.0 0.0 1.0
vtan -1.0 -0.0 0.0 -1.0
vtan -1.0 -0.0 0.0001 -1.0
vtan 0.9962 -0.0871 0.0077 -1.0
vtan 0.9962 -0.0872 0.0077 -1.0
vtan 1.0 0.0 0.0 -1.0
vtan 1.0 0.0 0.0 -1.0
vtan 1.0 -0.0 0.0 1.0
vtan 0.8618 0.4101 0.2987 1.0
vtan 0.9962 -0.0872 0.0077 1.0
vtan 1.0 0.0 0.0 1.0
vtan 0.1409 0.7362 0.662 -1.0
vtan 0.4926 0.7175 -0.4925 -1.0
vtan -1.0 0.0039 -0.0055 -1.0
vtan 1.0 0.0 0.0 -1.0
vtan -1.0 0.0 0.0 1.0
vtan -1.0 0.0 0.0 1.0
vtan -1.0 0.0 0.0 1.0
vtan -1.0 0.0 0.0 -1.0
vtan -1.0 0.0 -0.0 -1.0
vtan 1.0 -0.0 -0.0 -1.0
vtan -1.0 -0.0 -0.0 1.0
vtan -1.0 -0.0 -0.0 1.0
vtan -1.0 0.0 0.0001 -1.0
vtan -0.9962 0.0872 -0.0071 -1.0
vtan -0.906 0.3743 -0.1975 -1.0
vtan -1.0 0.0 0.0 -1.0
vtan -1.0 0.0 0.0 -1.0
vtan 0.0344 -0.18 0.9831 -1.0
vtan -1.0 0.0 0.0 1.0
vtan -1.0 0.0 0.0 1.0
vtan -1.0 -0.0 0.0 1.0
vtan -1.0 -0.0 -0.0 1.0
vtan -1.0 -0.0 -0.0 -1.0
vtan -1.0 0.0 -0.0 -1.0
vtan -1.0 0.0 -0.0 -1.0
vtan 1.0 -0.0 -0.0 -1.0
vtan 1.0 -0.0 0.0 -1.0
vtan 1.0 0.0 0.0 -1.0
vtan 1.0 0.0 0.0 -1.0
vtan 1.0 0.0 0.0 -1.0
vtan 1.0 0.0 -0.0 1.0
vtan 1.0 0.0 0.0 1.0
vtan 1.0 0.0 -0.0 1.0
vtan 1.0 0.0 0.0 1.0
vtan 1.0 0.0 0.0 1.0
vtan 1.0 0.0 0.0 1.0
vtan -1.0 -0.0 -0.0 1.0
vtan -1.0 -0.0 -0.0 1.0
vtan -1.0 0.0 0.0 -1.0
vtan -1.0 0.0 0.0 -1.0
vtan -1.0 0.0 0.0 -1.0
vtan 1.0 0.0 0.0 -1.0
vtan 1.0 0.0001 0.0 -1.0
vtan 1.0 0.0 0.0 -1.0
vtan 1.0 0.0 0.0 1.0
vtan 1.0 0.0 0.0 1.0
vtan 1.0 0.0 0.0 1.0
vtan 1.0 0.0 0.0 1.0
vtan 1.0 -0.0 0.0 -1.0
vtan 0.9962 -0.0872 0.0077 1.0
vtan 1.0 0.0 0.0 1.0
vtan 0.9962 -0.0871 0.0077 1.0
vtan 0.9962 -0.0872 0.0077 -1.0
vtan -1.0 -0.0 0.0 1.0
vtan -0.9831 -0.18 -0.0344 1.0
vtan -0.9962 0.0871 -0.0086 1.0
vtan -0.0 0.0 -1.0 1.0
vtan -0.0077 -0.0872 -0.9962 1.0
vtan -0.0077 -0.0871 -0.9962 1.0
vtan -0.0 0.0 -1.0 1.0
vtan -0.0 -0.0 -1.0 -1.0
vtan -0.0 0.0 -1.0 -1.0
vtan -0.0077 -0.0871 -0.9962 -1.0
vtan -0.2987 0.4101 -0.8617 -1.0
vtan 0.0055 0.0039 1.0 1.0
vtan 0.4926 0.7175 -0.4925 1.0
vtan -0.6619 0.7362 -0.1409 1.0
vtan -0.0 0.0 -1.0 1.0
vtan -0.0 0.0 1.0 -1.0
vtan 0.0 -0.0 1.0 -1.0
vtan -0.0 0.0 1.0 -1.0
vtan -0.0 0.0 1.0 -1.0
vtan 0.0 0.0 1.0 1.0
vtan 0.0 0.0 1.0 1.0
vtan -0.0 0.0 1.0 1.0
vtan 0.0 -0.0 1.0 -1.0
vtan 0.0 -0.0 1.0 -1.0
vtan 0.1975 0.3743 0.906 1.0
vtan 0.0071 0.0872 0.9962 1.0
vtan -0.0001 0.0 1.0 1.0
vtan -0.0 0.0 1.0 1.0
vtan -0.0 0.0 1.0 1.0
vtan -0.0 -0.0 1.0 -1.0
vtan -0.0 0.0 -1.0 1.0
vtan -0.0 0.0001 -1.0 1.0
vtan -0.0 0.0 -1.0 1.0
vtan -0.0 0.0 -1.0 1.0
vtan 0.0 -0.0 -1.0 -1.0
vtan -0.0 -0.0 -1.0 -1.0
vtan 0.0 -0.0 -1.0 -1.0
vtan 0.0 -0.0 -1.0 -1.0
vtan -0.0 0.0 -1.0 -1.0
vtan -0.0 -0.0 -1.0 -1.0
vtan 0.0 0.0 -1.0 1.0
vtan -0.0077 -0.0871 -0.9962 -1.0
vtan -0.0077 -0.0871 -0.9962 -1.0
vtan -0.0 0.0 -1.0 -1.0
vtan -0.0077 -0.0872 -0.9962 1.0
vtan 0.0086 0.0871 0.9962 -1.0
vtan 1.0 0.0 0.0 -1.0
vtan 1.0 0.0 0.0 -1.0
vtan 1.0 -0.0 0.0 1.0
vtan 1.0 -0.0 0.0001 1.0
vtan -0.0 -0.0 -1.0 -1.0
vtan -0.0 -0.0 -1.0 -1.0
vtan 0.0001 -0.0 -1.0 1.0
vtan 0.0 -0.0 -1.0 1.0
vtan 0.0 -0.0 -1.0 1.0
vtan -0.0 -0.0 -1.0 -1.0
vtan -0.0001 -0.0 -1.0 -1.0
f 0/0/0/0 1/1/1/1 2/2/2/2 
f 0/0/0/0 2/2/2/2 3/3/3/3 
f 4/4/4/4 5/5/5/5 6/6/6/6 
f 4/4/4/4 6/6/6/6 7/2/7/7 
f 8/7/8/8 5/5/5/9 4/4/4/10 
f 8/7/8/8 4/4/4/10 9/4/9/11 
f 2/2/2/12 10/8/10/13 11/9/11/14 
f 2/2/2/12 11/9/11/14 3/3/3/15 
f 7/2/7/16 12/8/12/13 13/10/13/17 
f 7/2/7/16 13/10/13/17 4/4/4/10 
f 4/4/4/10 13/10/13/17 14/10/14/18 
f 4/4/4/10 14/10/14/18 9/4/9/11 
f 2/2/2/12 9/4/9/19 14/10/14/20 
f 2/2/2/12 14/10/14/20 10/8/10/13 
f 15/3/15/21 16/11/16/22 17/12/17/23 
f 15/3/15/21 17/12/17/23 18/13/18/24 
f 19/9/19/25 15/3/15/21 18/13/18/24 
f 7/2/7/16 15/3/15/21 19/9/19/25 
f 7/2/7/16 19/9/19/25 12/8/12/13 
f 17/12/17/23 20/14/20/26 21/13/21/13 
f 17/12/17/23 21/13/21/13 18/13/18/24 
f 22/3/22/27 23/15/23/28 24/16/24/29 
f 22/3/22/27 24/16/24/29 25/17/25/13 
f 26/2/26/30 27/18/27/13 23/15/23/28 
f 26/2/26/30 23/15/23/28 22/3/22/27 
f 28/2/28/31 29/18/29/13 30/19/30/32 
f 28/2/28/31 30/19/30/32 31/4/31/33 
f 31/4/31/33 30/19/30/32 32/19/32/34 
f 31/4/31/33 32/19/32/34 33/4/33/35 
f 21/13/21/36 11/9/11/37 22/3/22/38 
f 21/13/21/36 22/3/22/38 25/17/25/39 
f 11/9/11/37 10/8/10/39 26/2/26/40 
f 11/9/11/37 26/2/26/40 22/3/22/38 
f 13/10/13/41 12/8/12/39 28/2/28/42 
f 13/10/13/41 28/2/28/42 31/4/31/43 
f 14/10/14/18 13/10/13/17 31/4/31/33 
f 14/10/14/18 31/4/31/33 33/4/33/35 
f 14/10/14/18 33/4/33/35 26/2/26/40 
f 14/10/14/18 26/2/26/40 10/8/10/39 
f 18/13/18/44 34/17/34/39 35/3/35/45 
f 18/13/18/44 35/3/35/45 19/9/19/46 
f 19/9/19/46 35/3/35/45 28/2/28/42 
f 19/9/19/46 28/2/28/42 12/8/12/39 
f 21/13/21/13 25/17/25/13 34/17/34/13 
f 21/13/21/13 34/17/34/13 18/13/18/24 
f 26/2/26/30 33/4/33/47 32/19/32/48 
f 26/2/26/30 32/19/32/48 27/18/27/13 
f 35/3/35/49 34/17/34/13 36/16/36/50 
f 35/3/35/49 36/16/36/50 37/15/37/51 
f 28/2/28/31 35/3/35/49 37/15/37/51 
f 28/2/28/31 37/15/37/51 29/18/29/13 
f 34/17/34/13 25/17/25/13 24/16/24/29 
f 34/17/34/13 24/16/24/29 36/16/36/52 
f 32/19/32/34 38/20/38/53 39/21/39/54 
f 32/19/32/34 39/21/39/54 27/18/27/39 
f 36/16/36/52 40/22/40/39 41/23/41/55 
f 36/16/36/52 41/23/41/55 37/15/37/56 
f 37/15/37/56 41/23/41/55 42/21/42/57 
f 37/15/37/56 42/21/42/57 29/18/29/39 
f 24/16/24/29 43/22/43/13 40/22/40/39 
f 24/16/24/29 40/22/40/39 36/16/36/52 
f 9/4/9/11 2/2/2/2 1/1/1/1 
f 9/4/9/11 1/1/1/1 8/7/8/8 
f 16/11/16/58 15/3/15/59 44/24/44/60 
f 44/24/44/60 15/3/15/59 7/2/7/7 
f 44/24/44/60 7/2/7/7 6/6/6/6 
f 0/0/0/0 3/3/3/3 45/25/45/61 
f 11/9/11/14 21/13/21/62 20/14/20/63 
f 11/9/11/14 20/14/20/63 3/3/3/15 
f 45/25/45/64 3/3/3/15 20/14/20/63 
f 0/0/0/65 47/3/46/66 46/2/47/67 
f 0/0/0/65 46/2/47/67 1/1/1/68 
f 48/4/48/69 49/2/49/70 6/6/6/71 
f 48/4/48/69 6/6/6/71 5/5/5/72 
f 48/4/48/73 5/5/5/74 8/7/8/75 
f 48/4/48/73 8/7/8/75 50/4/50/76 
f 51/9/51/77 52/8/52/78 46/2/47/79 
f 51/9/51/77 46/2/47/79 47/3/46/80 
f 53/10/53/81 54/8/54/82 49/2/49/83 
f 53/10/53/81 49/2/49/83 48/4/48/73 
f 55/10/55/84 53/10/53/81 48/4/48/73 
f 55/10/55/84 48/4/48/73 50/4/50/76 
f 55/10/55/85 50/4/50/86 46/2/47/79 
f 55/10/55/85 46/2/47/79 52/8/52/78 
f 17/12/17/87 16/11/16/88 56/3/56/89 
f 17/12/17/87 56/3/56/89 57/13/57/90 
f 58/9/58/91 57/13/57/90 56/3/56/89 
f 58/9/58/91 56/3/56/89 49/2/49/83 
f 58/9/58/91 49/2/49/83 54/8/54/82 
f 59/13/59/92 20/14/20/26 17/12/17/23 
f 59/13/59/92 17/12/17/23 57/13/57/93 
f 60/26/60/94 61/27/61/95 55/10/55/84 
f 60/26/60/94 55/10/55/84 52/8/52/96 
f 62/28/62/97 63/29/63/98 57/13/57/93 
f 62/28/62/97 57/13/57/93 58/9/58/99 
f 64/26/64/100 62/28/62/97 58/9/58/99 
f 64/26/64/100 58/9/58/99 54/8/54/101 
f 63/29/63/98 65/29/65/102 59/13/59/92 
f 63/29/63/98 59/13/59/92 57/13/57/93 
f 1/1/1/68 46/2/47/67 50/4/50/76 
f 1/1/1/68 50/4/50/76 8/7/8/75 
f 16/11/16/103 44/24/44/104 56/3/56/105 
f 44/24/44/104 6/6/6/71 49/2/49/70 
f 44/24/44/104 49/2/49/70 56/3/56/105 
f 0/0/0/65 45/25/45/106 47/3/46/66 
f 20/14/20/26 59/13/59/92 51/9/51/77 
f 20/14/20/26 51/9/51/77 47/3/46/80 
f 45/25/45/107 20/14/20/26 47/3/46/80 
f 24/16/24/108 23/15/23/109 66/23/66/110 
f 24/16/24/108 66/23/66/110 43/22/43/39 
f 23/15/23/109 27/18/27/39 39/21/39/54 
f 23/15/23/109 39/21/39/54 66/23/66/110 
f 30/19/30/111 29/18/29/39 42/21/42/57 
f 30/19/30/111 42/21/42/57 67/20/67/112 
f 32/19/32/34 30/19/30/32 67/20/67/13 
f 32/19/32/34 67/20/67/13 38/20/38/53 
f 68/2/68/113 69/1/69/114 70/0/70/115 
f 68/2/68/113 70/0/70/115 71/3/71/116 
f 72/4/72/117 73/2/73/118 74/6/74/119 
f 72/4/72/117 74/6/74/119 75/5/75/120 
f 72/4/72/121 75/5/75/122 76/7/76/123 
f 72/4/72/121 76/7/76/123 77/4/77/124 
f 78/9/78/125 79/8/79/39 68/2/68/126 
f 78/9/78/125 68/2/68/126 71/3/71/127 
f 80/10/80/128 81/8/12/39 73/2/73/129 
f 80/10/80/128 73/2/73/129 72/4/72/121 
f 82/10/81/130 80/10/80/128 72/4/72/121 
f 82/10/81/130 72/4/72/121 77/4/77/124 
f 82/10/81/131 77/4/77/132 68/2/68/126 
f 82/10/81/131 68/2/68/126 79/8/79/39 
f 83/12/82/133 84/11/83/134 85/3/84/135 
f 83/12/82/133 85/3/84/135 86/13/85/136 
f 87/9/86/137 86/13/85/136 85/3/84/135 
f 87/9/86/137 85/3/84/135 73/2/73/129 
f 87/9/86/137 73/2/73/129 81/8/12/39 
f 88/13/87/13 89/14/88/138 83/12/82/133 
f 88/13/87/13 83/12/82/133 86/13/85/136 
f 90/16/89/139 91/15/90/140 92/3/91/141 
f 90/16/89/139 92/3/91/141 93/17/92/39 
f 91/15/90/140 94/18/93/39 95/2/94/142 
f 91/15/90/140 95/2/94/142 92/3/91/141 
f 96/19/95/143 97/18/96/39 98/2/97/144 
f 96/19/95/143 98/2/97/144 99/4/98/145 
f 100/19/99/13 96/19/95/143 99/4/98/145 
f 100/19/99/13 99/4/98/145 101/4/100/146 
f 92/3/91/147 78/9/78/148 88/13/87/149 
f 92/3/91/147 88/13/87/149 93/17/92/13 
f 95/2/94/150 79/8/79/13 78/9/78/148 
f 95/2/94/150 78/9/78/148 92/3/91/147 
f 98/2/97/151 81/8/12/13 80/10/80/152 
f 98/2/97/151 80/10/80/152 99/4/98/153 
f 99/4/98/145 80/10/80/128 82/10/81/130 
f 99/4/98/145 82/10/81/130 101/4/100/146 
f 95/2/94/150 101/4/100/146 82/10/81/130 
f 95/2/94/150 82/10/81/130 79/8/79/13 
f 102/3/101/154 103/17/102/13 86/13/85/155 
f 102/3/101/154 86/13/85/155 87/9/86/156 
f 98/2/97/151 102/3/101/154 87/9/86/156 
f 98/2/97/151 87/9/86/156 81/8/12/13 
f 103/17/102/13 93/17/92/39 88/13/87/13 
f 103/17/102/13 88/13/87/13 86/13/85/136 
f 100/19/99/157 101/4/100/158 95/2/94/142 
f 100/19/99/157 95/2/94/142 94/18/93/39 
f 104/16/103/159 103/17/102/39 102/3/101/160 
f 104/16/103/159 102/3/101/160 105/15/104/161 
f 105/15/104/161 102/3/101/160 98/2/97/144 
f 105/15/104/161 98/2/97/144 97/18/96/39 
f 90/16/89/139 93/17/92/39 103/17/102/13 
f 90/16/89/139 103/17/102/13 104/16/103/13 
f 39/21/39/162 38/20/38/163 100/19/99/164 
f 39/21/39/162 100/19/99/164 94/18/93/13 
f 41/23/41/165 40/22/40/13 104/16/103/166 
f 41/23/41/165 104/16/103/166 105/15/104/167 
f 42/21/42/168 41/23/41/165 105/15/104/167 
f 42/21/42/168 105/15/104/167 97/18/96/13 
f 40/22/40/39 43/22/43/13 90/16/89/169 
f 40/22/40/39 90/16/89/169 104/16/103/13 
f 69/1/69/114 68/2/68/113 77/4/77/124 
f 69/1/69/114 77/4/77/124 76/7/76/123 
f 84/11/83/170 106/24/105/171 85/3/84/172 
f 106/24/105/171 74/6/74/119 73/2/73/118 
f 106/24/105/171 73/2/73/118 85/3/84/172 
f 70/0/70/115 107/25/106/173 71/3/71/116 
f 89/14/88/174 88/13/87/175 78/9/78/125 
f 89/14/88/174 78/9/78/125 71/3/71/127 
f 107/25/106/176 89/14/88/174 71/3/71/127 
f 70/0/70/177 69/1/69/178 108/2/107/179 
f 70/0/70/177 108/2/107/179 109/3/108/180 
f 110/4/109/181 75/5/75/182 74/6/74/183 
f 110/4/109/181 74/6/74/183 111/2/110/184 
f 76/7/76/185 75/5/75/186 110/4/109/187 
f 76/7/76/185 110/4/109/187 112/4/111/188 
f 108/2/107/189 113/8/112/190 114/9/113/191 
f 108/2/107/189 114/9/113/191 109/3/108/192 
f 111/2/110/193 115/8/114/194 116/10/115/195 
f 111/2/110/193 116/10/115/195 110/4/109/187 
f 110/4/109/187 116/10/115/195 117/10/116/196 
f 110/4/109/187 117/10/116/196 112/4/111/188 
f 108/2/107/189 112/4/111/197 117/10/116/198 
f 108/2/107/189 117/10/116/198 113/8/112/190 
f 118/3/117/199 84/11/83/200 83/12/82/201 
f 118/3/117/199 83/12/82/201 119/13/118/202 
f 120/9/119/203 118/3/117/199 119/13/118/202 
f 111/2/110/193 118/3/117/199 120/9/119/203 
f 111/2/110/193 120/9/119/203 115/8/114/194 
f 83/12/82/133 89/14/88/138 121/13/120/204 
f 83/12/82/133 121/13/120/204 119/13/118/205 
f 117/10/116/196 122/27/121/206 123/26/122/207 
f 117/10/116/196 123/26/122/207 113/8/112/208 
f 119/13/118/205 124/29/123/209 125/28/124/210 
f 119/13/118/205 125/28/124/210 120/9/119/211 
f 120/9/119/211 125/28/124/210 126/26/125/212 
f 120/9/119/211 126/26/125/212 115/8/114/213 
f 121/13/120/204 127/29/126/214 124/29/123/209 
f 121/13/120/204 124/29/123/209 119/13/118/205 
f 112/4/111/188 108/2/107/179 69/1/69/178 
f 112/4/111/188 69/1/69/178 76/7/76/185 
f 84/11/83/215 118/3/117/216 106/24/105/217 
f 106/24/105/217 118/3/117/216 111/2/110/184 
f 106/24/105/217 111/2/110/184 74/6/74/183 
f 70/0/70/177 109/3/108/180 107/25/106/218 
f 114/9/113/191 121/13/120/204 89/14/88/138 
f 114/9/113/191 89/14/88/138 109/3/108/192 
f 107/25/106/219 109/3/108/192 89/14/88/138 
f 66/23/66/220 91/15/90/221 90/16/89/169 
f 66/23/66/220 90/16/89/169 43/22/43/13 
f 39/21/39/162 94/18/93/13 91/15/90/221 
f 39/21/39/162 91/15/90/221 66/23/66/220 
f 42/21/42/168 97/18/96/13 96/19/95/222 
f 42/21/42/168 96/19/95/222 67/20/67/223 
f 67/20/67/13 96/19/95/143 100/19/99/13 
f 67/20/67/13 100/19/99/13 38/20/38/53 
f 51/9/51/224 59/13/59/225 65/29/65/226 
f 51/9/51/224 65/29/65/226 128/28/127/227 
f 52/8/52/96 51/9/51/224 128/28/127/227 
f 52/8/52/96 128/28/127/227 60/26/60/94 
f 54/8/54/101 53/10/53/228 129/27/128/229 
f 54/8/54/101 129/27/128/229 64/26/64/100 
f 53/10/53/81 55/10/55/84 61/27/61/95 
f 53/10/53/81 61/27/61/95 129/27/128/230 
f 121/13/120/231 114/9/113/232 130/28/129/233 
f 121/13/120/231 130/28/129/233 127/29/126/234 
f 114/9/113/232 113/8/112/208 123/26/122/207 
f 114/9/113/232 123/26/122/207 130/28/129/233 
f 116/10/115/235 115/8/114/213 126/26/125/212 
f 116/10/115/235 126/26/125/212 131/27/130/236 
f 117/10/116/196 116/10/115/195 131/27/130/13 
f 117/10/116/196 131/27/130/13 122/27/121/206 
f 132/2/131/237 133/1/132/238 134/0/133/239 
f 132/2/131/237 134/0/133/239 135/3/134/240 
f 136/4/135/241 137/2/136/242 138/6/137/243 
f 136/4/135/241 138/6/137/243 139/5/138/244 
f 136/4/135/245 139/5/138/246 140/7/139/247 
f 136/4/135/245 140/7/139/247 141/4/140/248 
f 142/9/141/249 143/8/142/13 132/2/131/250 
f 142/9/141/249 132/2/131/250 135/3/134/251 
f 144/10/143/252 145/8/144/13 137/2/136/253 
f 144/10/143/252 137/2/136/253 136/4/135/245 
f 146/10/145/254 144/10/143/252 136/4/135/245 
f 146/10/145/254 136/4/135/245 141/4/140/248 
f 146/10/145/255 141/4/140/256 132/2/131/250 
f 146/10/145/255 132/2/131/250 143/8/142/13 
f 147/12/146/257 148/11/147/258 149/3/148/259 
f 147/12/146/257 149/3/148/259 150/13/149/260 
f 151/9/150/261 150/13/149/260 149/3/148/259 
f 151/9/150/261 149/3/148/259 137/2/136/253 
f 151/9/150/261 137/2/136/253 145/8/144/13 
f 152/13/151/13 153/14/152/262 147/12/146/257 
f 152/13/151/13 147/12/146/257 150/13/149/260 
f 154/16/153/263 155/15/154/264 156/3/155/265 
f 154/16/153/263 156/3/155/265 157/17/156/13 
f 155/15/154/264 158/18/157/13 159/2/158/266 
f 155/15/154/264 159/2/158/266 156/3/155/265 
f 160/19/159/267 161/18/160/13 162/2/161/268 
f 160/19/159/267 162/2/161/268 163/4/162/269 
f 164/19/163/270 160/19/159/267 163/4/162/269 
f 164/19/163/270 163/4/162/269 165/4/164/271 
f 156/3/155/272 142/9/141/273 152/13/151/274 
f 156/3/155/272 152/13/151/274 157/17/156/39 
f 159/2/158/275 143/8/142/39 142/9/141/273 
f 159/2/158/275 142/9/141/273 156/3/155/272 
f 162/2/161/276 145/8/144/39 144/10/143/277 
f 162/2/161/276 144/10/143/277 163/4/162/278 
f 163/4/162/269 144/10/143/252 146/10/145/254 
f 163/4/162/269 146/10/145/254 165/4/164/271 
f 159/2/158/275 165/4/164/271 146/10/145/254 
f 159/2/158/275 146/10/145/254 143/8/142/39 
f 166/3/165/279 167/17/166/39 150/13/149/280 
f 166/3/165/279 150/13/149/280 151/9/150/281 
f 162/2/161/276 166/3/165/279 151/9/150/281 
f 162/2/161/276 151/9/150/281 145/8/144/39 
f 167/17/166/13 157/17/156/13 152/13/151/13 
f 167/17/166/13 152/13/151/13 150/13/149/260 
f 164/19/163/282 165/4/164/283 159/2/158/266 
f 164/19/163/282 159/2/158/266 158/18/157/13 
f 168/16/167/284 167/17/166/13 166/3/165/285 
f 168/16/167/284 166/3/165/285 169/15/168/286 
f 169/15/168/286 166/3/165/285 162/2/161/268 
f 169/15/168/286 162/2/161/268 161/18/160/13 
f 154/16/153/263 157/17/156/13 167/17/166/13 
f 154/16/153/263 167/17/166/13 168/16/167/287 
f 170/21/169/288 171/20/170/289 164/19/163/270 
f 170/21/169/288 164/19/163/270 158/18/157/39 
f 172/23/171/290 173/22/172/39 168/16/167/287 
f 172/23/171/290 168/16/167/287 169/15/168/291 
f 174/21/173/292 172/23/171/290 169/15/168/291 
f 174/21/173/292 169/15/168/291 161/18/160/39 
f 173/22/172/39 175/22/174/13 154/16/153/263 
f 173/22/172/39 154/16/153/263 168/16/167/287 
f 133/1/132/238 132/2/131/237 141/4/140/248 
f 133/1/132/238 141/4/140/248 140/7/139/247 
f 148/11/147/293 176/24/175/294 149/3/148/295 
f 176/24/175/294 138/6/137/243 137/2/136/242 
f 176/24/175/294 137/2/136/242 149/3/148/295 
f 134/0/133/239 177/25/176/296 135/3/134/240 
f 153/14/152/297 152/13/151/298 142/9/141/249 
f 153/14/152/297 142/9/141/249 135/3/134/251 
f 177/25/176/299 153/14/152/297 135/3/134/251 
f 134/0/133/300 133/1/132/301 178/2/177/302 
f 134/0/133/300 178/2/177/302 179/3/178/303 
f 180/4/179/304 139/5/138/305 138/6/137/306 
f 180/4/179/304 138/6/137/306 181/2/180/307 
f 140/7/139/308 139/5/138/309 180/4/179/310 
f 140/7/139/308 180/4/179/310 182/4/181/311 
f 178/2/177/312 183/8/182/313 184/9/183/314 
f 178/2/177/312 184/9/183/314 179/3/178/315 
f 181/2/180/316 185/8/184/317 186/10/185/318 
f 181/2/180/316 186/10/185/318 180/4/179/310 
f 180/4/179/310 186/10/185/318 187/10/186/13 
f 180/4/179/310 187/10/186/13 182/4/181/311 
f 178/2/177/312 182/4/181/319 187/10/186/320 
f 178/2/177/312 187/10/186/320 183/8/182/313 
f 188/3/187/321 148/11/147/322 147/12/146/323 
f 188/3/187/321 147/12/146/323 189/13/188/324 
f 190/9/189/325 188/3/187/321 189/13/188/324 
f 181/2/180/316 188/3/187/321 190/9/189/325 
f 181/2/180/316 190/9/189/325 185/8/184/317 
f 147/12/146/257 153/14/152/262 191/13/190/326 
f 147/12/146/257 191/13/190/326 189/13/188/13 
f 187/10/186/327 61/27/61/328 60/26/60/329 
f 187/10/186/327 60/26/60/329 183/8/182/330 
f 189/13/188/331 63/29/63/332 62/28/62/333 
f 189/13/188/331 62/28/62/333 190/9/189/334 
f 190/9/189/334 62/28/62/333 64/26/64/335 
f 190/9/189/334 64/26/64/335 185/8/184/336 
f 191/13/190/337 65/29/65/102 63/29/63/98 
f 191/13/190/337 63/29/63/98 189/13/188/13 
f 182/4/181/311 178/2/177/302 133/1/132/301 
f 182/4/181/311 133/1/132/301 140/7/139/308 
f 148/11/147/338 188/3/187/339 176/24/175/340 
f 176/24/175/340 188/3/187/339 181/2/180/307 
f 176/24/175/340 181/2/180/307 138/6/137/306 
f 134/0/133/300 179/3/178/303 177/25/176/341 
f 184/9/183/314 191/13/190/326 153/14/152/262 
f 184/9/183/314 153/14/152/262 179/3/178/315 
f 177/25/176/342 179/3/178/315 153/14/152/262 
f 192/23/191/343 155/15/154/344 154/16/153/345 
f 192/23/191/343 154/16/153/345 175/22/174/39 
f 170/21/169/288 158/18/157/39 155/15/154/344 
f 170/21/169/288 155/15/154/344 192/23/191/343 
f 174/21/173/292 161/18/160/39 160/19/159/346 
f 174/21/173/292 160/19/159/346 193/20/192/347 
f 193/20/192/13 160/19/159/267 164/19/163/270 
f 193/20/192/13 164/19/163/270 171/20/170/289 
f 194/0/193/348 195/1/194/349 196/2/195/350 
f 194/0/193/348 196/2/195/350 197/3/196/351 
f 198/4/197/352 199/5/198/353 200/6/199/354 
f 198/4/197/352 200/6/199/354 201/2/200/355 
f 202/7/201/356 199/5/198/357 198/4/197/358 
f 202/7/201/356 198/4/197/358 203/4/202/359 
f 196/2/195/360 204/8/142/39 205/9/203/361 
f 196/2/195/360 205/9/203/361 197/3/196/362 
f 201/2/200/363 206/8/204/39 207/10/205/364 
f 201/2/200/363 207/10/205/364 198/4/197/358 
f 198/4/197/358 207/10/205/364 208/10/206/365 
f 198/4/197/358 208/10/206/365 203/4/202/359 
f 196/2/195/360 203/4/202/366 208/10/206/367 
f 196/2/195/360 208/10/206/367 204/8/142/39 
f 209/3/207/368 210/11/208/369 211/12/209/370 
f 209/3/207/368 211/12/209/370 212/13/210/371 
f 213/9/211/372 209/3/207/368 212/13/210/371 
f 201/2/200/363 209/3/207/368 213/9/211/372 
f 201/2/200/363 213/9/211/372 206/8/204/39 
f 211/12/209/370 214/14/212/373 215/13/213/13 
f 211/12/209/370 215/13/213/13 212/13/210/371 
f 216/3/214/374 217/15/215/375 218/16/216/376 
f 216/3/214/374 218/16/216/376 219/17/217/39 
f 220/2/218/377 221/18/219/39 217/15/215/375 
f 220/2/218/377 217/15/215/375 216/3/214/374 
f 222/2/220/378 223/18/221/39 224/19/222/379 
f 222/2/220/378 224/19/222/379 225/4/223/380 
f 225/4/223/380 224/19/222/379 226/19/224/13 
f 225/4/223/380 226/19/224/13 227/4/225/381 
f 215/13/213/382 205/9/203/383 216/3/214/384 
f 215/13/213/382 216/3/214/384 219/17/217/13 
f 205/9/203/383 204/8/142/13 220/2/218/385 
f 205/9/203/383 220/2/218/385 216/3/214/384 
f 207/10/205/386 206/8/204/13 222/2/220/387 
f 207/10/205/386 222/2/220/387 225/4/223/388 
f 208/10/206/365 207/10/205/364 225/4/223/380 
f 208/10/206/365 225/4/223/380 227/4/225/381 
f 208/10/206/365 227/4/225/381 220/2/218/385 
f 208/10/206/365 220/2/218/385 204/8/142/13 
f 212/13/210/389 228/17/226/13 229/3/227/390 
f 212/13/210/389 229/3/227/390 213/9/211/391 
f 213/9/211/391 229/3/227/390 222/2/220/387 
f 213/9/211/391 222/2/220/387 206/8/204/13 
f 215/13/213/13 219/17/217/39 228/17/226/13 
f 215/13/213/13 228/17/226/13 212/13/210/371 
f 220/2/218/377 227/4/225/392 226/19/224/393 
f 220/2/218/377 226/19/224/393 221/18/219/39 
f 229/3/227/394 228/17/226/39 230/16/228/395 
f 229/3/227/394 230/16/228/395 231/15/229/396 
f 222/2/220/378 229/3/227/394 231/15/229/396 
f 222/2/220/378 231/15/229/396 223/18/221/39 
f 228/17/226/13 219/17/217/39 218/16/216/376 
f 228/17/226/13 218/16/216/376 230/16/228/13 
f 226/19/224/397 171/20/170/398 170/21/169/399 
f 226/19/224/397 170/21/169/399 221/18/219/13 
f 230/16/228/400 173/22/172/13 172/23/171/401 
f 230/16/228/400 172/23/171/401 231/15/229/402 
f 231/15/229/402 172/23/171/401 174/21/173/403 
f 231/15/229/402 174/21/173/403 223/18/221/13 
f 218/16/216/404 175/22/174/13 173/22/172/39 
f 218/16/216/404 173/22/172/39 230/16/228/13 
f 203/4/202/359 196/2/195/350 195/1/194/349 
f 203/4/202/359 195/1/194/349 202/7/201/356 
f 210/11/208/405 209/3/207/406 232/24/230/407 
f 232/24/230/407 209/3/207/406 201/2/200/355 
f 232/24/230/407 201/2/200/355 200/6/199/354 
f 194/0/193/348 197/3/196/351 233/25/231/408 
f 205/9/203/361 215/13/213/409 214/14/212/410 
f 205/9/203/361 214/14/212/410 197/3/196/362 
f 233/25/231/411 197/3/196/362 214/14/212/410 
f 234/2/232/412 195/1/194/413 194/0/193/414 
f 234/2/232/412 194/0/193/414 235/3/233/415 
f 236/4/234/416 237/2/235/417 200/6/199/418 
f 236/4/234/416 200/6/199/418 199/5/198/419 
f 236/4/234/420 199/5/198/421 202/7/201/422 
f 236/4/234/420 202/7/201/422 238/4/236/423 
f 239/9/237/424 240/8/238/425 234/2/232/426 
f 239/9/237/424 234/2/232/426 235/3/233/427 
f 241/10/239/428 242/8/240/429 237/2/235/430 
f 241/10/239/428 237/2/235/430 236/4/234/420 
f 243/10/241/13 241/10/239/428 236/4/234/420 
f 243/10/241/13 236/4/234/420 238/4/236/423 
f 243/10/241/431 238/4/236/432 234/2/232/426 
f 243/10/241/431 234/2/232/426 240/8/238/425 
f 211/12/209/433 210/11/208/434 244/3/242/435 
f 211/12/209/433 244/3/242/435 245/13/243/436 
f 246/9/244/437 245/13/243/436 244/3/242/435 
f 246/9/244/437 244/3/242/435 237/2/235/430 
f 246/9/244/437 237/2/235/430 242/8/240/429 
f 247/13/245/438 214/14/212/373 211/12/209/370 
f 247/13/245/438 211/12/209/370 245/13/243/13 
f 123/26/122/439 122/27/121/440 243/10/241/441 
f 123/26/122/439 243/10/241/441 240/8/238/442 
f 125/28/124/443 124/29/123/444 245/13/243/445 
f 125/28/124/443 245/13/243/445 246/9/244/446 
f 126/26/125/447 125/28/124/443 246/9/244/446 
f 126/26/125/447 246/9/244/446 242/8/240/448 
f 124/29/123/209 127/29/126/214 247/13/245/449 
f 124/29/123/209 247/13/245/449 245/13/243/13 
f 195/1/194/413 234/2/232/412 238/4/236/423 
f 195/1/194/413 238/4/236/423 202/7/201/422 
f 210/11/208/450 232/24/230/451 244/3/242/452 
f 232/24/230/451 200/6/199/418 237/2/235/417 
f 232/24/230/451 237/2/235/417 244/3/242/452 
f 194/0/193/414 233/25/231/453 235/3/233/415 
f 214/14/212/373 247/13/245/438 239/9/237/424 
f 214/14/212/373 239/9/237/424 235/3/233/427 
f 233/25/231/454 214/14/212/373 235/3/233/427 
f 218/16/216/404 217/15/215/455 192/23/191/456 
f 218/16/216/404 192/23/191/456 175/22/174/13 
f 217/15/215/455 221/18/219/13 170/21/169/399 
f 217/15/215/455 170/21/169/399 192/23/191/456 
f 224/19/222/457 223/18/221/13 174/21/173/403 
f 224/19/222/457 174/21/173/403 193/20/192/458 
f 226/19/224/13 224/19/222/379 193/20/192/13 
f 226/19/224/13 193/20/192/13 171/20/170/289 
f 65/29/65/102 191/13/190/337 184/9/183/459 
f 65/29/65/102 184/9/183/459 128/28/127/460 
f 128/28/127/460 184/9/183/459 183/8/182/330 
f 128/28/127/460 183/8/182/330 60/26/60/329 
f 129/27/128/230 186/10/185/461 185/8/184/336 
f 129/27/128/230 185/8/184/336 64/26/64/335 
f 61/27/61/95 187/10/186/13 186/10/185/461 
f 61/27/61/95 186/10/185/461 129/27/128/230 
f 130/28/129/462 239/9/237/463 247/13/245/449 
f 130/28/129/462 247/13/245/449 127/29/126/214 
f 123/26/122/439 240/8/238/442 239/9/237/463 
f 123/26/122/439 239/9/237/463 130/28/129/462 
f 126/26/125/447 242/8/240/448 241/10/239/464 
f 126/26/125/447 241/10/239/464 131/27/130/465 
f 131/27/130/13 241/10/239/428 243/10/241/13 
f 131/27/130/13 243/10/241/13 122/27/121/206 
