v 507.2144 1261.4871 182.2711
v 507.2142 1261.4871 197.7682
v 503.4489 1260.4785 197.7682
v 503.4489 1260.4785 182.2711
v 500.6931 1257.7228 197.7682
v 500.6931 1257.7228 182.2711
v 499.6844 1253.9584 197.7682
v 499.6844 1253.9584 182.2711
v 500.3461 1251.4889 197.7682
v 500.3461 1251.4889 182.2711
v 494.1123 1251.1418 182.2711
v 494.1123 1251.1418 197.7682
v 491.3566 1248.3862 197.7682
v 491.3566 1248.3862 182.2711
v 497.8767 1252.1506 182.2711
v 497.8767 1252.1506 197.7682
v 510.9794 1260.4785 182.2711
v 510.9794 1260.4785 197.7682
v 513.7352 1257.7228 182.2711
v 513.7352 1257.7228 197.7682
v 514.7438 1253.9584 182.2711
v 514.7438 1253.9584 197.7682
v 514.0821 1251.4889 182.2711
v 514.0821 1251.4889 197.7682
v 524.0423 1244.7637 182.2711
v 524.0423 1244.7637 197.7682
v 523.0717 1248.3862 197.7682
v 523.0717 1248.3862 182.2711
v 520.316 1251.1418 197.7682
v 520.316 1251.1418 182.2711
v 516.5516 1252.1506 197.7682
v 516.5516 1252.1506 182.2711
v 490.3859 1244.7637 197.7682
v 490.3859 1244.7637 182.2711
v 503.4489 1229.049 182.2711
v 503.4489 1229.049 197.7682
v 507.2142 1228.0404 197.7682
v 507.2142 1228.0404 182.2711
v 500.6931 1231.8047 182.2711
v 500.6931 1231.8047 197.7682
v 499.6844 1235.5691 182.2711
v 499.6844 1235.5691 197.7682
v 500.3461 1238.0386 182.2711
v 500.3461 1238.0386 197.7682
v 491.3566 1241.1412 182.2711
v 491.3566 1241.1412 197.7682
v 494.1123 1238.3855 197.7682
v 494.1123 1238.3855 182.2711
v 497.8767 1237.3768 197.7682
v 497.8767 1237.3768 182.2711
v 510.9794 1229.049 197.7681
v 510.9794 1229.049 182.2711
v 513.7352 1231.8047 197.7682
v 513.7352 1231.8047 182.2711
v 514.7438 1235.5691 197.7682
v 514.7438 1235.5691 182.2711
v 514.0821 1238.0386 197.7682
v 514.0821 1238.0386 182.2711
v 520.316 1238.3855 182.2711
v 520.316 1238.3855 197.7682
v 523.0717 1241.1412 197.7682
v 523.0717 1241.1412 182.2711
v 516.5516 1237.3768 182.2711
v 516.5516 1237.3768 197.7682
v 523.8972 1238.7134 182.2711
v 520.1464 1232.5804 182.2711
v 514.2671 1228.4437 182.2711
v 524.9012 1245.8318 182.2711
v 523.2441 1252.2522 182.2711
v 519.3419 1257.613 182.2711
v 513.7414 1261.1631 182.2711
v 507.2278 1262.4043 182.2711
v 500.7143 1261.1631 182.2711
v 495.1138 1257.613 182.2711
v 491.2116 1252.2522 182.2711
v 489.5545 1245.8318 182.2711
v 490.5585 1238.7134 182.2711
v 494.3093 1232.5804 182.2711
v 500.1886 1228.4436 182.2711
v 507.2278 1226.9846 182.2711
vt 0.9551 0.5948
vt 0.8159 0.5948
vt 0.8159 0.6286
vt 0.9551 0.6286
vt 0.8159 0.6533
vt 0.9551 0.6533
vt 0.8159 0.6871
vt 0.9551 0.6871
vt 0.8159 0.7093
vt 0.9551 0.7093
vt 0.9551 0.7626
vt 0.8159 0.7626
vt 0.8159 0.7976
vt 0.9551 0.7976
vt 0.9551 0.7323
vt 0.8159 0.7323
vt 0.9551 0.5609
vt 0.8159 0.5609
vt 0.9551 0.5362
vt 0.8159 0.5362
vt 0.9551 0.5024
vt 0.8159 0.5024
vt 0.9551 0.4802
vt 0.8159 0.4802
vt 0.9551 0.3613
vt 0.8159 0.3613
vt 0.8159 0.395
vt 0.9551 0.395
vt 0.8159 0.4253
vt 0.9551 0.4253
vt 0.8159 0.4603
vt 0.9551 0.4603
vt 0.8159 0.8268
vt 0.9551 0.8268
vt 0.9551 0.0879
vt 0.8159 0.0879
vt 0.8159 0.1217
vt 0.9551 0.1217
vt 0.9551 0.0529
vt 0.8159 0.0529
vt 0.9551 0.0226
vt 0.8159 0.0226
vt 0.9551 0.9442
vt 0.8159 0.9442
vt 0.8159 0.9672
vt 0.9551 0.9672
vt 0.9551 0.856
vt 0.8159 0.856
vt 0.8159 0.891
vt 0.9551 0.891
vt 0.8159 0.9213
vt 0.9551 0.9213
vt 0.8159 0.1556
vt 0.9551 0.1556
vt 0.8159 0.1906
vt 0.9551 0.1906
vt 0.8159 0.2209
vt 0.9551 0.2209
vt 0.8159 0.2438
vt 0.9551 0.2438
vt 0.9551 0.2971
vt 0.8159 0.2971
vt 0.8159 0.3321
vt 0.9551 0.3321
vt 0.9551 0.2668
vt 0.8159 0.2668
vt 0.5804 0.6036
vt 0.546 0.5976
vt 0.5524 0.6197
vt 0.6117 0.6454
vt 0.6133 0.5916
vt 0.6762 0.6454
vt 0.5201 0.576
vt 0.5083 0.5726
vt 0.5085 0.5443
vt 0.4873 0.5168
vt 0.5146 0.5098
vt 0.4883 0.4573
vt 0.537 0.483
vt 0.5111 0.4022
vt 0.541 0.4604
vt 0.5289 0.4275
vt 0.5349 0.393
vt 0.5526 0.3595
vt 0.5574 0.3662
vt 0.5903 0.3541
vt 0.6068 0.335
vt 0.6248 0.3601
vt 0.6663 0.3321
vt 0.6516 0.3826
vt 0.7227 0.3514
vt 0.6742 0.3865
vt 0.7071 0.3745
vt 0.7416 0.3805
vt 0.7674 0.4021
vt 0.768 0.39
vt 0.779 0.4338
vt 0.7974 0.4475
vt 0.773 0.4682
vt 0.8015 0.5119
vt 0.7506 0.4951
vt 0.7797 0.5727
vt 0.7466 0.5177
vt 0.7586 0.5506
vt 0.7526 0.5851
vt 0.7355 0.6198
vt 0.7302 0.6119
vt 0.6973 0.624
vt 0.6628 0.618
vt 0.6359 0.5955
vt 0.6595 0.4042
vt 0.5586 0.4751
vt 0.729 0.503
vt 0.628 0.5739
vn -0.0 -0.6377 -0.7702
vn 0.0 -1.0 0.0
vn 0.5 -0.866 0.0
vn 0.3188 -0.5523 -0.7703
vn 0.866 -0.5 0.0
vn 0.5523 -0.3189 -0.7703
vn 1.0 0.0 0.0
vn 0.6377 -0.0 -0.7703
vn 0.7071 -0.7071 0.0
vn 0.5883 -0.5884 -0.5547
vn 0.3189 -0.5523 -0.7703
vn 0.5 -0.866 0.0
vn 0.866 -0.5 0.0
vn 0.5523 -0.3189 -0.7703
vn -0.0 -0.6377 -0.7703
vn 0.0 -1.0 0.0
vn -0.353 -0.6115 -0.7081
vn -0.4999 -0.8661 0.0
vn -0.5523 -0.3188 -0.7703
vn -0.866 -0.5 0.0
vn -0.6377 0.0 -0.7703
vn -1.0 0.0 0.0
vn -0.5883 -0.5884 -0.5547
vn -0.7071 -0.7071 0.0
vn -0.6377 0.0 -0.7703
vn -1.0 -0.0 0.0
vn -0.866 -0.5 0.0
vn -0.5523 -0.3189 -0.7703
vn -0.5 -0.866 0.0
vn -0.3189 -0.5523 -0.7703
vn -0.0 -1.0 0.0
vn -0.0 -0.6377 -0.7703
vn 1.0 0.0 0.0
vn 0.6377 -0.0 -0.7703
vn 0.35 0.6063 -0.714
vn 0.5 0.8661 0.0
vn -0.0 1.0 0.0
vn 0.0 0.6377 -0.7702
vn 0.5523 0.3189 -0.7703
vn 0.866 0.5 0.0
vn 0.6377 -0.0 -0.7703
vn 1.0 0.0 0.0
vn 0.5884 0.5883 -0.5547
vn 0.7071 0.7071 0.0
vn 0.5523 0.3189 -0.7703
vn 0.866 0.5 0.0
vn 0.5 0.866 0.0
vn 0.3189 0.5523 -0.7703
vn -0.0 1.0 0.0
vn -0.0 0.6377 -0.7703
vn -0.5 0.866 0.0
vn -0.3188 0.5523 -0.7703
vn -0.866 0.5 0.0
vn -0.5523 0.3189 -0.7703
vn -1.0 -0.0 0.0
vn -0.6377 -0.0 -0.7703
vn -0.7071 0.7071 0.0
vn -0.5884 0.5883 -0.5547
vn -0.3189 0.5523 -0.7703
vn -0.5 0.866 0.0
vn -0.866 0.5 0.0
vn -0.5523 0.3189 -0.7703
vn 0.0 0.6377 -0.7703
vn 0.0 1.0 0.0
vn 0.0 0.0 -1.0
vn -0.0 0.0 -1.0
vn -0.0 0.0 -1.0
vn 0.0 0.0 -1.0
vn -0.0 0.0 -1.0
vn 0.0 0.0 -1.0
vn 0.0 0.0 -1.0
vn -0.0 0.0 -1.0
vn -0.0 0.0 -1.0
vn 0.0 0.0 -1.0
vn -0.0 0.0 -1.0
vn -0.0 0.0 -1.0
vtan 0.0 0.7702 -0.6377 -1.0
vtan 0.0 0.0 -1.0 -1.0
vtan 0.0 0.0 -1.0 -1.0
vtan -0.3851 0.6671 -0.6377 -1.0
vtan 0.0 0.0 -1.0 -1.0
vtan -0.6671 0.3851 -0.6377 -1.0
vtan -0.7703 0.0 -0.6377 -1.0
vtan -0.3922 0.3922 -0.8321 -1.0
vtan -0.3851 0.6671 -0.6377 -1.0
vtan -0.6671 0.3851 -0.6377 -1.0
vtan 0.0 0.7703 -0.6377 -1.0
vtan 0.354 0.6133 -0.7061 -1.0
vtan 0.6671 0.3851 -0.6377 -1.0
vtan 0.7703 -0.0 -0.6377 -1.0
vtan 0.3922 0.3922 -0.8321 -1.0
vtan 0.7703 -0.0 -0.6377 -1.0
vtan 0.6671 0.3851 -0.6377 -1.0
vtan 0.3851 0.6671 -0.6377 -1.0
vtan 0.0 0.7703 -0.6377 -1.0
vtan -0.7703 0.0 -0.6377 -1.0
vtan -0.357 -0.6184 -0.7001 -1.0
vtan 0.0 0.0 -1.0 -1.0
vtan -0.0 -0.7702 -0.6377 -1.0
vtan -0.6671 -0.3851 -0.6377 -1.0
vtan -0.7703 0.0 -0.6377 -1.0
vtan -0.3922 -0.3922 -0.8321 -1.0
vtan -0.7703 0.0 -0.6377 -1.0
vtan -0.6671 -0.3851 -0.6377 -1.0
vtan -0.3851 -0.6671 -0.6377 -1.0
vtan 0.0 -0.7703 -0.6377 -1.0
vtan 0.3851 -0.6671 -0.6377 -1.0
vtan 0.6671 -0.3851 -0.6377 -1.0
vtan 0.7703 0.0 -0.6377 -1.0
vtan 0.3922 -0.3922 -0.832 -1.0
vtan 0.3851 -0.6671 -0.6377 -1.0
vtan 0.6671 -0.3851 -0.6377 -1.0
vtan -0.0 -0.7703 -0.6377 -1.0
vtan -0.8376 -0.5445 -0.0437 -1.0
vtan -0.6952 -0.6861 0.2144 -1.0
vtan -0.8179 -0.5753 0.0 -1.0
vtan -0.8181 -0.5751 0.0 -1.0
vtan -0.8791 -0.3671 -0.304 -1.0
vtan -0.8181 -0.5751 0.0 -1.0
vtan -0.5681 -0.6753 0.4703 -1.0
vtan -0.8169 -0.5767 0.0 -1.0
vtan -0.6023 -0.4861 0.6331 -1.0
vtan -0.8171 -0.5764 0.0 -1.0
vtan -0.7763 -0.3141 0.5466 -1.0
vtan -0.8176 -0.5758 -0.0 -1.0
vtan -0.8794 -0.3666 0.3036 -1.0
vtan -0.8188 -0.5741 0.0 -1.0
vtan -0.5703 -0.6722 0.4721 -1.0
vtan -0.6074 -0.479 0.6338 -1.0
vtan -0.7719 -0.2373 0.5898 -1.0
vtan -0.819 -0.5737 0.0 -1.0
vtan -0.8802 -0.3655 0.3027 -1.0
vtan -0.8372 -0.5451 0.0443 -1.0
vtan -0.8178 -0.5756 -0.0 -1.0
vtan -0.6953 -0.686 -0.2145 -1.0
vtan -0.8184 -0.5747 -0.0 -1.0
vtan -0.5688 -0.6743 -0.4709 -1.0
vtan -0.8183 -0.5748 0.0 -1.0
vtan -0.8788 -0.3676 0.3044 -1.0
vtan -0.8374 -0.5448 0.044 -1.0
vtan -0.6962 -0.6846 -0.2158 -1.0
vtan -0.5752 -0.6651 -0.4762 -1.0
vtan -0.8201 -0.5722 0.0 -1.0
vtan -0.6045 -0.4831 -0.6334 -1.0
vtan -0.8185 -0.5744 0.0 -1.0
vtan -0.7774 -0.3124 -0.5459 -1.0
vtan -0.8181 -0.5751 -0.0 -1.0
vtan -0.8793 -0.3669 -0.3037 -1.0
vtan -0.818 -0.5752 0.0 -1.0
vtan -0.5702 -0.6723 -0.4721 -1.0
vtan -0.6053 -0.482 -0.6335 -1.0
vtan -0.7715 -0.2458 -0.5869 -1.0
vtan -0.82 -0.5723 0.0 -1.0
vtan -0.8812 -0.3641 -0.3015 -1.0
vtan -0.8376 -0.5445 -0.0438 -1.0
vtan -0.6956 -0.6855 0.215 -1.0
vtan -0.5674 -0.6763 0.4698 -1.0
vtan -0.7411 -0.6667 -0.079 -1.0
vtan -0.5856 -0.163 0.794 -1.0
vtan -0.5856 -0.163 -0.794 -1.0
vtan -0.7411 -0.6667 0.079 -1.0
f 0/0/0/0 1/1/1/1 2/2/2/2 
f 0/0/0/0 2/2/2/2 3/3/3/3 
f 3/3/3/3 2/2/2/2 4/4/4/4 
f 3/3/3/3 4/4/4/4 5/5/5/5 
f 5/5/5/5 4/4/4/4 6/6/6/4 
f 5/5/5/5 6/6/6/4 7/7/7/6 
f 7/7/7/6 6/6/6/4 8/8/8/4 
f 7/7/7/6 8/8/8/4 9/9/9/7 
f 10/10/10/8 11/11/11/4 12/12/12/4 
f 10/10/10/8 12/12/12/4 13/13/13/9 
f 14/14/14/10 15/15/15/4 11/11/11/4 
f 14/14/14/10 11/11/11/4 10/10/10/8 
f 9/9/9/7 8/8/8/4 15/15/15/4 
f 9/9/9/7 15/15/15/4 14/14/14/10 
f 1/1/1/1 0/0/0/0 16/16/16/11 
f 1/1/1/1 16/16/16/11 17/17/17/4 
f 18/18/18/12 19/19/19/4 17/17/17/4 
f 18/18/18/12 17/17/17/4 16/16/16/11 
f 20/20/20/13 21/21/21/4 19/19/19/4 
f 20/20/20/13 19/19/19/4 18/18/18/12 
f 22/22/22/14 23/23/23/4 21/21/21/4 
f 22/22/22/14 21/21/21/4 20/20/20/13 
f 24/24/24/15 25/25/25/4 26/26/26/4 
f 24/24/24/15 26/26/26/4 27/27/27/16 
f 27/27/27/16 26/26/26/4 28/28/28/4 
f 27/27/27/16 28/28/28/4 29/29/29/17 
f 29/29/29/17 28/28/28/4 30/30/30/4 
f 29/29/29/17 30/30/30/4 31/31/31/18 
f 31/31/31/18 30/30/30/4 23/23/23/4 
f 31/31/31/18 23/23/23/4 22/22/22/14 
f 13/13/13/9 12/12/12/4 32/32/32/4 
f 13/13/13/9 32/32/32/4 33/33/33/19 
f 34/34/34/20 35/35/35/4 36/36/36/21 
f 34/34/34/20 36/36/36/21 37/37/37/22 
f 38/38/38/23 39/39/39/4 35/35/35/4 
f 38/38/38/23 35/35/35/4 34/34/34/20 
f 40/40/40/24 41/41/41/4 39/39/39/4 
f 40/40/40/24 39/39/39/4 38/38/38/23 
f 42/42/42/25 43/43/43/4 41/44/41/4 
f 42/42/42/25 41/44/41/4 40/45/40/26 
f 44/46/44/27 45/47/45/4 46/48/46/21 
f 44/46/44/27 46/48/46/21 47/49/47/28 
f 47/49/47/28 46/48/46/21 48/50/48/4 
f 47/49/47/28 48/50/48/4 49/51/49/29 
f 49/51/49/29 48/50/48/4 43/43/43/4 
f 49/51/49/29 43/43/43/4 42/42/42/25 
f 37/37/37/22 36/36/36/21 50/52/50/4 
f 37/37/37/22 50/52/50/4 51/53/51/30 
f 51/53/51/30 50/52/50/4 52/54/52/21 
f 51/53/51/30 52/54/52/21 53/55/53/31 
f 53/55/53/31 52/54/52/21 54/56/54/4 
f 53/55/53/31 54/56/54/4 55/57/55/32 
f 55/57/55/32 54/56/54/4 56/58/56/4 
f 55/57/55/32 56/58/56/4 57/59/57/33 
f 58/60/58/34 59/61/59/4 60/62/60/4 
f 58/60/58/34 60/62/60/4 61/63/61/35 
f 62/64/62/36 63/65/63/4 59/61/59/4 
f 62/64/62/36 59/61/59/4 58/60/58/34 
f 57/59/57/33 56/58/56/4 63/65/63/4 
f 57/59/57/33 63/65/63/4 62/64/62/36 
f 33/33/33/19 32/32/32/4 45/47/45/4 
f 33/33/33/19 45/47/45/4 44/46/44/27 
f 61/63/61/35 60/62/60/4 25/25/25/4 
f 61/63/61/35 25/25/25/4 24/24/24/15 
f 58/66/58/37 61/67/61/38 64/68/64/39 
f 58/66/58/37 64/68/64/39 65/69/64/40 
f 62/70/62/41 58/66/58/37 65/69/64/40 
f 62/70/62/41 65/69/64/40 66/71/65/42 
f 61/67/61/38 24/72/24/43 67/73/66/44 
f 61/67/61/38 67/73/66/44 64/68/64/39 
f 67/73/66/44 24/72/24/43 27/74/27/45 
f 67/73/66/44 27/74/27/45 68/75/64/46 
f 68/75/64/46 27/74/27/45 29/76/29/47 
f 68/75/64/46 29/76/29/47 69/77/67/48 
f 69/77/67/48 29/76/29/47 31/78/31/49 
f 69/77/67/48 31/78/31/49 70/79/68/50 
f 31/78/31/49 20/80/20/51 18/81/18/52 
f 31/78/31/49 18/81/18/52 70/79/68/50 
f 70/79/68/50 18/81/18/52 16/82/16/53 
f 70/79/68/50 16/82/16/53 71/83/64/54 
f 71/83/64/54 0/84/0/55 3/85/3/56 
f 71/83/64/54 3/85/3/56 72/86/69/57 
f 72/86/69/57 3/85/3/56 5/87/5/58 
f 72/86/69/57 5/87/5/58 73/88/70/59 
f 73/88/70/59 5/87/5/58 7/89/7/60 
f 73/88/70/59 7/89/7/60 74/90/71/61 
f 7/89/7/60 14/91/14/62 10/92/10/63 
f 7/89/7/60 10/92/10/63 74/90/71/61 
f 13/93/13/64 33/94/33/65 75/95/72/66 
f 13/93/13/64 75/95/72/66 74/90/71/61 
f 75/95/72/66 33/94/33/65 44/96/44/67 
f 75/95/72/66 44/96/44/67 76/97/64/68 
f 76/97/64/68 44/96/44/67 47/98/47/69 
f 76/97/64/68 47/98/47/69 77/99/73/70 
f 77/99/73/70 47/98/47/69 49/100/49/71 
f 77/99/73/70 49/100/49/71 78/101/74/72 
f 49/100/49/71 40/102/40/73 38/103/38/74 
f 49/100/49/71 38/103/38/74 78/101/74/72 
f 34/104/34/75 79/105/75/76 78/101/74/72 
f 34/104/34/75 78/101/74/72 38/103/38/74 
f 79/105/75/76 37/106/37/77 51/107/51/78 
f 79/105/75/76 51/107/51/78 66/71/65/42 
f 53/108/53/79 55/109/55/80 62/70/62/41 
f 53/108/53/79 62/70/62/41 66/71/65/42 
f 7/89/7/60 9/110/9/81 14/91/14/62 
f 10/92/10/63 13/93/13/64 74/90/71/61 
f 16/82/16/53 0/84/0/55 71/83/64/54 
f 22/111/22/82 20/80/20/51 31/78/31/49 
f 34/104/34/75 37/106/37/77 79/105/75/76 
f 42/112/42/83 40/102/40/73 49/100/49/71 
f 51/107/51/78 53/108/53/79 66/71/65/42 
f 55/109/55/80 57/113/57/84 62/70/62/41 
