v -808.2908 665.9817 182.8329
v -808.2908 665.9817 184.1562
v -808.2908 666.7593 185.884
v -808.2908 666.7593 180.8986
v -808.2908 670.5942 179.3368
v -808.2908 670.5941 189.2993
v -808.2908 672.3748 188.2599
v -808.2908 672.3749 179.7635
v -808.2908 674.1555 186.3182
v -808.2908 674.1555 181.2941
v -808.2908 668.2845 186.8546
v -808.2908 668.5826 179.6212
v -808.2908 661.1245 190.6178
v -808.2908 662.7213 193.4809
v -801.4143 672.3749 179.7635
v -801.4143 670.5942 179.3368
v -801.4143 674.1555 181.2941
v -801.4143 666.7593 185.884
v -801.4143 668.2845 186.8546
v -801.4143 668.5826 179.6212
v -801.4143 666.7593 180.8986
v -801.4143 661.1245 190.6178
v -801.4143 662.7213 193.4809
v -801.4143 665.9817 182.8329
v -801.4143 665.9817 184.1562
v -801.4143 672.3748 188.2599
v -801.4143 670.5941 189.2993
v -801.4143 674.1555 186.3182
gi 0 0 0 0
gw 0.0 0.0 0.0 0.0
gi 0 0 0 0
gw 0.0 0.0 0.0 0.0
gi 0 0 0 0
gw 0.0 0.0 0.0 0.0
gi 0 0 0 0
gw 0.0 0.0 0.0 0.0
gi 0 0 0 0
gw 0.0 0.0 0.0 0.0
gi 0 0 0 0
gw 0.0 0.0 0.0 0.0
gi 0 0 0 0
gw 0.0 0.0 0.0 0.0
gi 0 0 0 0
gw 0.0 0.0 0.0 0.0
gi 0 0 0 0
gw 0.0 0.0 0.0 0.0
gi 0 0 0 0
gw 0.0 0.0 0.0 0.0
gi 0 0 0 0
gw 0.0 0.0 0.0 0.0
gi 0 0 0 0
gw 0.0 0.0 0.0 0.0
gi 0 0 0 0
gw 0.0 0.0 0.0 0.0
gi 0 0 0 0
gw 0.0 0.0 0.0 0.0
gi 0 0 0 0
gw 0.0 0.0 0.0 0.0
gi 0 0 0 0
gw 0.0 0.0 0.0 0.0
gi 0 0 0 0
gw 0.0 0.0 0.0 0.0
gi 0 0 0 0
gw 0.0 0.0 0.0 0.0
gi 0 0 0 0
gw 0.0 0.0 0.0 0.0
gi 0 0 0 0
gw 0.0 0.0 0.0 0.0
gi 0 0 0 0
gw 0.0 0.0 0.0 0.0
gi 0 0 0 0
gw 0.0 0.0 0.0 0.0
gi 0 0 0 0
gw 0.0 0.0 0.0 0.0
gi 0 0 0 0
gw 0.0 0.0 0.0 0.0
gi 0 0 0 0
gw 0.0 0.0 0.0 0.0
gi 0 0 0 0
gw 0.0 0.0 0.0 0.0
gi 0 0 0 0
gw 0.0 0.0 0.0 0.0
gi 0 0 0 0
gw 0.0 0.0 0.0 0.0
vt 0.1992 0.5029
vt 0.1937 0.4935
vt 0.1809 0.4846
vt 0.2019 0.5199
vt 0.1813 0.5471
vt 0.1394 0.4765
vt 0.1311 0.4913
vt 0.1669 0.5515
vt 0.1267 0.5126
vt 0.1478 0.5482
vt 0.166 0.4841
vt 0.1943 0.5366
vt 0.2009 0.4273
vt 0.1776 0.4138
vt 0.1179 0.2654
vt 0.0646 0.2653
vt 0.0645 0.2791
vt 0.1179 0.2792
vt 0.0646 0.2515
vt 0.118 0.2515
vt 0.0645 0.3476
vt 0.0645 0.3594
vt 0.1178 0.3595
vt 0.1178 0.3476
vt 0.1179 0.2948
vt 0.0645 0.2947
vt 0.0645 0.3089
vt 0.1179 0.3089
vt 0.0644 0.415
vt 0.1178 0.415
vt 0.0644 0.4372
vt 0.1177 0.4373
vt 0.1564 0.5656
vt 0.1415 0.5741
vt 0.1821 0.5684
vt 0.1671 0.564
vt 0.2079 0.6115
vt 0.2144 0.5958
vt 0.1331 0.6072
vt 0.1386 0.6212
vt 0.1941 0.6282
vt 0.1531 0.634
vt 0.1918 0.5797
vt 0.1331 0.5904
vt 0.2395 0.5268
vt 0.2143 0.517
vt 0.1179 0.3342
vt 0.1179 0.324
vt 0.0645 0.3239
vt 0.0645 0.3342
vn -0.6667 -0.7317 -0.1416
vn -0.6629 -0.7321 0.1572
vn -0.6479 -0.5759 0.4985
vn -0.6483 -0.5964 -0.4734
vn -0.6674 0.0353 -0.7439
vn -1.0 -0.0 0.0
vn -1.0 -0.0 0.0
vn -0.6578 0.3429 -0.6706
vn -1.0 0.0 0.0
vn -0.8236 0.3698 -0.4301
vn -0.9575 -0.2881 -0.012
vn -0.6582 -0.2763 -0.7003
vn -0.5761 -0.7835 -0.233
vn -0.7117 -0.6135 0.3422
vn 0.6578 0.3429 -0.6706
vn 0.6674 0.0352 -0.7439
vn 0.8236 0.3697 -0.4301
vn 0.648 -0.5759 0.4985
vn 0.9575 -0.2881 -0.0119
vn 0.6582 -0.2763 -0.7003
vn 0.6483 -0.5963 -0.4734
vn 0.576 -0.7835 -0.233
vn 0.7117 -0.6135 0.3422
vn 0.6667 -0.7317 -0.1416
vn 0.6628 -0.7321 0.1571
vn 1.0 0.0 0.0
vn 1.0 0.0 0.0
vn 1.0 0.0 0.0
vtan 0.6538 -0.483 -0.5824 -1.0
vtan 0.4284 -0.543 -0.7222 -1.0
vtan 0.1615 -0.7434 -0.649 -1.0
vtan 0.745 -0.6251 -0.2328 -1.0
vtan 0.2482 -0.9312 -0.2668 -1.0
vtan 0.0 -0.8604 -0.5096 -1.0
vtan 0.0 -0.8608 -0.509 -1.0
vtan 0.0303 -0.8776 -0.4784 -1.0
vtan -0.0 -0.8583 -0.5131 -1.0
vtan -0.0799 -0.8264 -0.5574 -1.0
vtan 0.2513 -0.8134 -0.5246 -1.0
vtan 0.4877 -0.8651 -0.1171 -1.0
vtan 0.7478 -0.39 -0.5373 -1.0
vtan 0.2676 -0.6871 -0.6755 -1.0
vtan -0.7532 -0.298 0.5865 -1.0
vtan -0.7532 0.302 -0.5844 -1.0
vtan -0.7447 0.0341 -0.6665 -1.0
vtan -0.7447 -0.0291 0.6667 -1.0
vtan -0.5672 0.539 -0.6227 -1.0
vtan -0.5672 -0.5369 0.6245 -1.0
vtan -0.7617 -0.4906 0.4232 -1.0
vtan -0.2883 -0.9566 -0.0434 -1.0
vtan -0.2883 0.9568 0.0374 -1.0
vtan -0.7617 0.4899 -0.4241 -1.0
vtan -0.7528 0.243 0.6117 -1.0
vtan -0.7528 -0.2391 -0.6132 -1.0
vtan -0.7614 -0.5065 -0.4047 -1.0
vtan -0.7614 0.5078 0.403 -1.0
vtan -0.8174 -0.552 -0.1646 -1.0
vtan -0.8174 0.5524 0.1636 -1.0
vtan -0.7025 -0.6221 0.3456 -1.0
vtan -0.7025 0.62 -0.3493 -1.0
vtan 0.1669 -0.0386 0.9852 -1.0
vtan 0.429 -0.2276 0.8742 -1.0
vtan -0.2941 0.4145 0.8612 -1.0
vtan -0.0335 0.1806 0.983 -1.0
vtan -0.0 0.139 0.9903 -1.0
vtan -0.0 0.138 0.9904 -1.0
vtan 0.7167 0.2412 0.6544 -1.0
vtan 0.515 0.445 0.7326 -1.0
vtan 0.0 0.1391 0.9903 -1.0
vtan 0.3324 0.2999 0.8942 -1.0
vtan 0.0495 0.1234 0.9911 -1.0
vtan 0.7068 -0.0936 0.7012 -1.0
vtan -0.1876 0.3034 0.9342 -1.0
vtan 0.2071 -0.1359 0.9688 -1.0
vtan -0.7487 0.6479 -0.1402 -1.0
vtan -0.7453 0.6549 0.1251 -1.0
vtan -0.7453 -0.6543 -0.1282 -1.0
vtan -0.7488 -0.648 0.1391 -1.0
f 0/0/0/0 1/1/1/1 2/2/2/2 
f 0/0/0/0 2/2/2/2 3/3/3/3 
f 4/4/4/4 5/5/5/5 6/6/6/6 
f 4/4/4/4 6/6/6/6 7/7/7/7 
f 7/7/7/7 6/6/6/6 8/8/8/8 
f 7/7/7/7 8/8/8/8 9/9/9/9 
f 10/10/10/10 5/5/5/5 4/4/4/4 
f 10/10/10/10 4/4/4/4 11/11/11/11 
f 3/3/3/3 2/2/2/2 10/10/10/10 
f 3/3/3/3 10/10/10/10 11/11/11/11 
f 10/10/10/10 12/12/12/12 13/13/13/13 
f 10/10/10/10 13/13/13/13 5/5/5/5 
f 7/14/7/14 14/15/14/15 15/16/15/16 
f 7/14/7/14 15/16/15/16 4/17/4/17 
f 16/18/16/18 14/15/14/15 7/14/7/14 
f 16/18/16/18 7/14/7/14 9/19/9/19 
f 17/20/17/20 18/21/18/21 10/22/10/22 
f 17/20/17/20 10/22/10/22 2/23/2/23 
f 11/24/11/24 19/25/19/25 20/26/20/26 
f 11/24/11/24 20/26/20/26 3/27/3/27 
f 10/22/10/22 18/21/18/21 21/28/21/28 
f 10/22/10/22 21/28/21/28 12/29/12/29 
f 12/29/12/29 21/28/21/28 22/30/22/30 
f 12/29/12/29 22/30/22/30 13/31/13/31 
f 23/32/23/32 20/33/20/33 17/34/17/34 
f 23/32/23/32 17/34/17/34 24/35/24/35 
f 25/36/25/36 26/37/26/37 15/38/15/38 
f 25/36/25/36 15/38/15/38 14/39/14/39 
f 27/40/27/40 25/36/25/36 14/39/14/39 
f 27/40/27/40 14/39/14/39 16/41/16/41 
f 15/38/15/38 26/37/26/37 18/42/18/42 
f 15/38/15/38 18/42/18/42 19/43/19/43 
f 20/33/20/33 19/43/19/43 18/42/18/42 
f 20/33/20/33 18/42/18/42 17/34/17/34 
f 18/42/18/42 26/37/26/37 22/44/22/44 
f 18/42/18/42 22/44/22/44 21/45/21/45 
f 1/46/1/46 0/47/0/47 23/48/23/48 
f 1/46/1/46 23/48/23/48 24/49/24/49 
f 0/47/0/47 3/27/3/27 20/26/20/26 
f 0/47/0/47 20/26/20/26 23/48/23/48 
f 15/16/15/16 19/25/19/25 11/24/11/24 
f 15/16/15/16 11/24/11/24 4/17/4/17 
f 24/49/24/49 17/20/17/20 2/23/2/23 
f 24/49/24/49 2/23/2/23 1/46/1/46 
