v 497.6964 1222.6902 -246.6782
v 507.2279 1220.7145 -246.6782
v 507.2279 1225.527 -248.3369
v 499.6093 1227.1062 -248.3369
v 490.5586 1238.7134 -263.6246
v 489.5546 1245.8318 -263.6246
v 489.5546 1245.8318 -250.3526
v 490.5586 1238.7134 -250.3526
v 485.541 1254.928 -246.6782
v 483.2973 1246.2345 -246.6782
v 488.1019 1245.9253 -248.3376
v 489.897 1252.8726 -248.3383
v 480.1267 1234.9703 -243.133
v 484.6568 1236.5957 -246.6782
v 478.4944 1246.5436 -243.133
v 480.1267 1234.9703 -263.6246
v 478.4944 1246.5436 -263.6246
v 500.7143 1261.1631 -263.6246
v 507.2279 1262.4044 -263.6246
v 507.2279 1262.4044 -250.3526
v 500.7143 1261.1631 -250.3526
v 496.6381 1271.4694 -243.133
v 498.4082 1266.9939 -246.6782
v 507.2279 1268.6747 -246.6782
v 507.2279 1273.4875 -243.133
v 496.6381 1271.4694 -263.6246
v 507.2279 1273.4875 -263.6246
v 516.7594 1222.6902 -246.6782
v 514.8465 1227.1062 -248.3369
v 524.9012 1245.8318 -263.6246
v 523.8972 1238.7134 -263.6246
v 523.8972 1238.7134 -250.3526
v 524.9012 1245.8318 -250.3526
v 531.1585 1246.2345 -246.6782
v 528.9147 1254.928 -246.6782
v 524.5587 1252.8726 -248.3383
v 526.3538 1245.9253 -248.3376
v 529.799 1236.5957 -246.6782
v 534.329 1234.9703 -243.133
v 535.9614 1246.5436 -243.133
v 534.329 1234.9703 -263.6246
v 535.9614 1246.5436 -263.6246
v 513.7415 1261.1631 -263.6246
v 513.7415 1261.1631 -250.3526
v 516.0475 1266.9939 -246.6782
v 517.8177 1271.4694 -243.133
v 517.8177 1271.4694 -263.6246
v 489.7354 1228.2915 -246.6782
v 493.246 1231.5835 -248.3369
v 489.1865 1238.2211 -248.3369
v 500.1887 1228.4437 -263.6246
v 494.3093 1232.5806 -263.6246
v 494.3093 1232.5806 -250.3526
v 500.1887 1228.4437 -250.3526
v 490.8249 1262.187 -246.6782
v 494.1196 1258.6735 -248.3383
v 500.1797 1262.5148 -248.3383
v 495.7834 1218.2738 -243.133
v 486.2247 1224.9995 -243.133
v 495.7834 1218.2738 -263.6246
v 486.2247 1224.9995 -263.6246
v 491.2116 1252.2522 -263.6246
v 495.1139 1257.6132 -263.6246
v 495.1139 1257.6132 -250.3526
v 491.2116 1252.2522 -250.3526
v 481.1884 1256.9819 -243.133
v 487.5328 1265.6978 -243.133
v 481.1884 1256.9819 -263.6246
v 487.5328 1265.6978 -263.6246
v 525.2692 1238.2212 -248.3369
v 521.2098 1231.5835 -248.3369
v 524.7203 1228.2915 -246.6782
v 514.2672 1228.4438 -263.6246
v 514.2672 1228.4438 -250.3526
v 520.1465 1232.5806 -250.3526
v 520.1465 1232.5806 -263.6246
v 514.2761 1262.5148 -248.3383
v 520.3362 1258.6735 -248.3383
v 523.6309 1262.187 -246.6782
v 518.6724 1218.2738 -243.133
v 528.2311 1224.9995 -243.133
v 518.6724 1218.2738 -263.6246
v 528.2311 1224.9995 -263.6246
v 523.2441 1252.2522 -263.6246
v 523.2441 1252.2522 -250.3526
v 519.3419 1257.6132 -250.3526
v 519.3419 1257.6132 -263.6246
v 533.2673 1256.9819 -243.133
v 526.923 1265.6978 -243.133
v 533.2673 1256.9819 -263.6246
v 526.923 1265.6978 -263.6246
v 507.2279 1226.9846 -263.6246
v 507.2279 1226.9846 -250.3526
v 507.2279 1263.8579 -248.3383
v 507.2279 1215.9016 -243.133
v 507.2279 1215.9016 -263.6246
gi 0 0 0 0
gw 0.0 0.0 0.0 0.0
gi 0 0 0 0
gw 0.0 0.0 0.0 0.0
gi 0 0 0 0
gw 0.0 0.0 0.0 0.0
gi 0 0 0 0
gw 0.0 0.0 0.0 0.0
gi 0 0 0 0
gw 0.0 0.0 0.0 0.0
gi 0 0 0 0
gw 0.0 0.0 0.0 0.0
gi 0 0 0 0
gw 0.0 0.0 0.0 0.0
gi 0 0 0 0
gw 0.0 0.0 0.0 0.0
gi 0 0 0 0
gw 0.0 0.0 0.0 0.0
gi 0 0 0 0
gw 0.0 0.0 0.0 0.0
gi 0 0 0 0
gw 0.0 0.0 0.0 0.0
gi 0 0 0 0
gw 0.0 0.0 0.0 0.0
gi 0 0 0 0
gw 0.0 0.0 0.0 0.0
gi 0 0 0 0
gw 0.0 0.0 0.0 0.0
gi 0 0 0 0
gw 0.0 0.0 0.0 0.0
gi 0 0 0 0
gw 0.0 0.0 0.0 0.0
gi 0 0 0 0
gw 0.0 0.0 0.0 0.0
gi 0 0 0 0
gw 0.0 0.0 0.0 0.0
gi 0 0 0 0
gw 0.0 0.0 0.0 0.0
gi 0 0 0 0
gw 0.0 0.0 0.0 0.0
gi 0 0 0 0
gw 0.0 0.0 0.0 0.0
gi 0 0 0 0
gw 0.0 0.0 0.0 0.0
gi 0 0 0 0
gw 0.0 0.0 0.0 0.0
gi 0 0 0 0
gw 0.0 0.0 0.0 0.0
gi 0 0 0 0
gw 0.0 0.0 0.0 0.0
gi 0 0 0 0
gw 0.0 0.0 0.0 0.0
gi 0 0 0 0
gw 0.0 0.0 0.0 0.0
gi 0 0 0 0
gw 0.0 0.0 0.0 0.0
gi 0 0 0 0
gw 0.0 0.0 0.0 0.0
gi 0 0 0 0
gw 0.0 0.0 0.0 0.0
gi 0 0 0 0
gw 0.0 0.0 0.0 0.0
gi 0 0 0 0
gw 0.0 0.0 0.0 0.0
gi 0 0 0 0
gw 0.0 0.0 0.0 0.0
gi 0 0 0 0
gw 0.0 0.0 0.0 0.0
gi 0 0 0 0
gw 0.0 0.0 0.0 0.0
gi 0 0 0 0
gw 0.0 0.0 0.0 0.0
gi 0 0 0 0
gw 0.0 0.0 0.0 0.0
gi 0 0 0 0
gw 0.0 0.0 0.0 0.0
gi 0 0 0 0
gw 0.0 0.0 0.0 0.0
gi 0 0 0 0
gw 0.0 0.0 0.0 0.0
gi 0 0 0 0
gw 0.0 0.0 0.0 0.0
gi 0 0 0 0
gw 0.0 0.0 0.0 0.0
gi 0 0 0 0
gw 0.0 0.0 0.0 0.0
gi 0 0 0 0
gw 0.0 0.0 0.0 0.0
gi 0 0 0 0
gw 0.0 0.0 0.0 0.0
gi 0 0 0 0
gw 0.0 0.0 0.0 0.0
gi 0 0 0 0
gw 0.0 0.0 0.0 0.0
gi 0 0 0 0
gw 0.0 0.0 0.0 0.0
gi 0 0 0 0
gw 0.0 0.0 0.0 0.0
gi 0 0 0 0
gw 0.0 0.0 0.0 0.0
gi 0 0 0 0
gw 0.0 0.0 0.0 0.0
gi 0 0 0 0
gw 0.0 0.0 0.0 0.0
gi 0 0 0 0
gw 0.0 0.0 0.0 0.0
gi 0 0 0 0
gw 0.0 0.0 0.0 0.0
gi 0 0 0 0
gw 0.0 0.0 0.0 0.0
gi 0 0 0 0
gw 0.0 0.0 0.0 0.0
gi 0 0 0 0
gw 0.0 0.0 0.0 0.0
gi 0 0 0 0
gw 0.0 0.0 0.0 0.0
gi 0 0 0 0
gw 0.0 0.0 0.0 0.0
gi 0 0 0 0
gw 0.0 0.0 0.0 0.0
gi 0 0 0 0
gw 0.0 0.0 0.0 0.0
gi 0 0 0 0
gw 0.0 0.0 0.0 0.0
gi 0 0 0 0
gw 0.0 0.0 0.0 0.0
gi 0 0 0 0
gw 0.0 0.0 0.0 0.0
gi 0 0 0 0
gw 0.0 0.0 0.0 0.0
gi 0 0 0 0
gw 0.0 0.0 0.0 0.0
gi 0 0 0 0
gw 0.0 0.0 0.0 0.0
gi 0 0 0 0
gw 0.0 0.0 0.0 0.0
gi 0 0 0 0
gw 0.0 0.0 0.0 0.0
gi 0 0 0 0
gw 0.0 0.0 0.0 0.0
gi 0 0 0 0
gw 0.0 0.0 0.0 0.0
gi 0 0 0 0
gw 0.0 0.0 0.0 0.0
gi 0 0 0 0
gw 0.0 0.0 0.0 0.0
gi 0 0 0 0
gw 0.0 0.0 0.0 0.0
gi 0 0 0 0
gw 0.0 0.0 0.0 0.0
gi 0 0 0 0
gw 0.0 0.0 0.0 0.0
gi 0 0 0 0
gw 0.0 0.0 0.0 0.0
gi 0 0 0 0
gw 0.0 0.0 0.0 0.0
gi 0 0 0 0
gw 0.0 0.0 0.0 0.0
gi 0 0 0 0
gw 0.0 0.0 0.0 0.0
gi 0 0 0 0
gw 0.0 0.0 0.0 0.0
gi 0 0 0 0
gw 0.0 0.0 0.0 0.0
gi 0 0 0 0
gw 0.0 0.0 0.0 0.0
gi 0 0 0 0
gw 0.0 0.0 0.0 0.0
gi 0 0 0 0
gw 0.0 0.0 0.0 0.0
gi 0 0 0 0
gw 0.0 0.0 0.0 0.0
gi 0 0 0 0
gw 0.0 0.0 0.0 0.0
gi 0 0 0 0
gw 0.0 0.0 0.0 0.0
gi 0 0 0 0
gw 0.0 0.0 0.0 0.0
gi 0 0 0 0
gw 0.0 0.0 0.0 0.0
gi 0 0 0 0
gw 0.0 0.0 0.0 0.0
gi 0 0 0 0
gw 0.0 0.0 0.0 0.0
gi 0 0 0 0
gw 0.0 0.0 0.0 0.0
gi 0 0 0 0
gw 0.0 0.0 0.0 0.0
gi 0 0 0 0
gw 0.0 0.0 0.0 0.0
gi 0 0 0 0
gw 0.0 0.0 0.0 0.0
vt 0.1275 0.1878
vt 0.0033 0.1878
vt 0.0033 0.1621
vt 0.1275 0.1621
vt 0.3758 0.0638
vt 0.4999 0.0638
vt 0.4999 0.1451
vt 0.3758 0.1451
vt 0.6143 0.1878
vt 0.4999 0.1878
vt 0.4999 0.1621
vt 0.6143 0.1621
vt 0.3758 0.2169
vt 0.3758 0.1878
vt 0.4999 0.2169
vt 0.3758 0.3263
vt 0.4999 0.3263
vt 0.8431 0.0638
vt 0.9575 0.0638
vt 0.9575 0.1451
vt 0.8431 0.1451
vt 0.8431 0.2169
vt 0.8431 0.1878
vt 0.9575 0.1878
vt 0.9575 0.2169
vt 0.8431 0.3263
vt 0.9575 0.3263
vt 0.2516 0.1878
vt 0.2516 0.1621
vt 0.3758 0.1621
vt 0.1275 0.0638
vt 0.2516 0.0638
vt 0.2516 0.1451
vt 0.1275 0.1451
vt 0.7287 0.1878
vt 0.7287 0.1621
vt 0.8431 0.1621
vt 0.1275 0.2169
vt 0.2516 0.2169
vt 0.1275 0.3263
vt 0.2516 0.3263
vt 0.6143 0.0638
vt 0.7287 0.0638
vt 0.7287 0.1451
vt 0.6143 0.1451
vt 0.6143 0.2169
vt 0.7287 0.2169
vt 0.6143 0.3263
vt 0.7287 0.3263
vt 0.0033 0.0638
vt 0.0033 0.1451
vt 0.9575 0.1621
vt 0.0033 0.2169
vt 0.0033 0.3263
vn 0.1907 0.4403 0.8773
vn 0.0 0.4799 0.8773
vn 0.0 0.5694 0.8221
vn 0.2263 0.5225 0.8221
vn 0.9412 0.3377 0.0
vn 0.9984 -0.0562 0.0
vn 0.9461 -0.053 0.3195
vn 0.8917 0.3199 0.3203
vn 0.4329 -0.2043 0.878
vn 0.4786 -0.0267 0.8776
vn 0.5697 -0.0321 0.8212
vn 0.5172 -0.2441 0.8203
vn -0.5027 -0.1804 0.8455
vn 0.4517 0.1621 0.8773
vn -0.5303 0.0294 0.8473
vn -0.9412 -0.3377 0.0
vn -0.9984 0.0562 0.0
vn 0.3678 -0.9299 0.0
vn 0.0 -1.0 0.0
vn -0.0 -0.9478 0.3188
vn 0.3486 -0.8814 0.3188
vn -0.1943 0.4912 0.8491
vn 0.1761 -0.4452 0.878
vn -0.0 -0.4787 0.878
vn -0.0 0.5282 0.8491
vn -0.3678 0.9299 0.0
vn -0.0 1.0 0.0
vn -0.1907 0.4403 0.8773
vn -0.2263 0.5225 0.8221
vn -0.9984 -0.0562 0.0
vn -0.9412 0.3377 0.0
vn -0.8917 0.3199 0.3203
vn -0.9461 -0.053 0.3195
vn -0.4786 -0.0267 0.8776
vn -0.4329 -0.2043 0.878
vn -0.5172 -0.2441 0.8203
vn -0.5698 -0.0321 0.8212
vn -0.4517 0.1621 0.8773
vn 0.5027 -0.1804 0.8455
vn 0.5303 0.0294 0.8473
vn 0.9412 -0.3377 0.0
vn 0.9984 0.0562 0.0
vn -0.3678 -0.9299 0.0
vn -0.3486 -0.8814 0.3188
vn -0.1761 -0.4452 0.878
vn 0.1943 0.4912 0.8491
vn 0.3678 0.9299 0.0
vn 0.3501 0.3283 0.8773
vn 0.4154 0.3895 0.8221
vn 0.5359 0.1923 0.8221
vn 0.3975 0.9176 0.0
vn 0.7295 0.684 0.0
vn 0.691 0.648 0.3203
vn 0.3765 0.8693 0.3203
vn 0.3275 -0.3492 0.878
vn 0.3912 -0.4172 0.8203
vn 0.2103 -0.5319 0.8203
vn -0.2123 -0.49 0.8455
vn -0.3896 -0.3653 0.8455
vn -0.3975 -0.9176 0.0
vn -0.7295 -0.684 0.0
vn 0.9044 -0.4267 0.0
vn 0.684 -0.7295 0.0
vn 0.6483 -0.6914 0.3188
vn 0.8572 -0.4045 0.3188
vn -0.4777 0.2254 0.8491
vn -0.3613 0.3853 0.8491
vn -0.9044 0.4268 0.0
vn -0.684 0.7295 0.0
vn -0.5359 0.1923 0.8221
vn -0.4153 0.3895 0.8221
vn -0.35 0.3283 0.8773
vn -0.3975 0.9176 0.0
vn -0.3765 0.8693 0.3203
vn -0.691 0.648 0.3203
vn -0.7295 0.684 0.0
vn -0.2103 -0.5318 0.8203
vn -0.3912 -0.4172 0.8203
vn -0.3275 -0.3492 0.878
vn 0.2123 -0.49 0.8455
vn 0.3896 -0.3653 0.8455
vn 0.3975 -0.9176 0.0
vn 0.7295 -0.684 0.0
vn -0.9044 -0.4267 0.0
vn -0.8572 -0.4045 0.3188
vn -0.6483 -0.6914 0.3187
vn -0.684 -0.7294 0.0
vn 0.4777 0.2254 0.8491
vn 0.3613 0.3853 0.8491
vn 0.9044 0.4268 0.0
vn 0.684 0.7295 0.0
vn -0.0 1.0 0.0
vn -0.0 0.9473 0.3203
vn -0.0 -0.5719 0.8203
vn -0.0 -0.534 0.8455
vn 0.0 -1.0 0.0
vtan -0.9176 0.3975 0.0 1.0
vtan -0.9839 0.157 -0.0859 1.0
vtan -0.9858 0.1381 -0.0956 1.0
vtan -0.9176 0.3975 0.0 1.0
vtan -0.3377 0.9412 0.0 1.0
vtan 0.0562 0.9984 0.0 1.0
vtan 0.0559 0.9984 -0.0 1.0
vtan -0.3377 0.9413 -0.0 1.0
vtan 0.4268 0.9044 -0.0 1.0
vtan 0.0562 0.9984 -0.0002 1.0
vtan 0.0562 0.9984 0.0 1.0
vtan 0.4268 0.9043 -0.0 1.0
vtan -0.3377 0.9412 -0.0 1.0
vtan -0.3377 0.9412 0.0 1.0
vtan 0.0568 0.9984 0.0009 1.0
vtan -0.3377 0.9412 0.0 1.0
vtan 0.0562 0.9984 0.0 1.0
vtan 0.9299 0.3678 0.0 1.0
vtan 1.0 0.0 0.0 1.0
vtan 0.9982 0.0193 0.0575 1.0
vtan 0.9299 0.3678 0.0 1.0
vtan 0.9299 0.3678 -0.0 1.0
vtan 0.9299 0.3678 -0.0 1.0
vtan 0.9863 0.1449 0.079 1.0
vtan 0.9872 0.1356 -0.0844 1.0
vtan 0.9299 0.3678 0.0 1.0
vtan 1.0 0.0 0.0 1.0
vtan 0.9839 0.157 -0.0859 -1.0
vtan 0.9176 0.3975 0.0 -1.0
vtan 0.9176 0.3975 -0.0 -1.0
vtan 0.9858 0.1381 -0.0957 -1.0
vtan -0.0562 0.9984 0.0 -1.0
vtan 0.3377 0.9412 0.0 -1.0
vtan 0.3377 0.9412 0.0 -1.0
vtan -0.0559 0.9984 -0.0 -1.0
vtan -0.0562 0.9984 -0.0002 -1.0
vtan -0.4268 0.9044 0.0 -1.0
vtan -0.4268 0.9043 -0.0 -1.0
vtan -0.0563 0.9984 -0.0 -1.0
vtan 0.3377 0.9412 0.0 -1.0
vtan 0.3377 0.9412 0.0 -1.0
vtan -0.0569 0.9984 0.0009 -1.0
vtan 0.3377 0.9412 0.0 -1.0
vtan -0.0562 0.9984 0.0 -1.0
vtan -1.0 -0.0 0.0 -1.0
vtan -0.9299 0.3678 0.0 -1.0
vtan -0.9299 0.3678 -0.0 -1.0
vtan -0.9982 0.0193 0.0575 -1.0
vtan -0.9863 0.1449 0.079 -1.0
vtan -0.9299 0.3678 0.0 -1.0
vtan -0.9299 0.3678 0.0 -1.0
vtan -0.9872 0.1356 -0.0844 -1.0
vtan -0.9299 0.3678 0.0 -1.0
vtan -1.0 -0.0 0.0 -1.0
vtan -0.684 0.7295 -0.0 1.0
vtan -0.684 0.7295 0.0 1.0
vtan -0.3376 0.9413 -0.0 1.0
vtan -0.9176 0.3975 0.0 1.0
vtan -0.684 0.7295 0.0 1.0
vtan -0.684 0.7295 -0.0 1.0
vtan -0.9176 0.3975 -0.0 1.0
vtan 0.7295 0.684 0.0 1.0
vtan 0.7295 0.684 -0.0 1.0
vtan 0.9299 0.3678 0.0 1.0
vtan -0.9176 0.3975 -0.0 1.0
vtan -0.684 0.7295 -0.0 1.0
vtan -0.9176 0.3975 0.0 1.0
vtan -0.684 0.7295 0.0 1.0
vtan 0.4267 0.9044 0.0 1.0
vtan 0.7295 0.684 0.0 1.0
vtan 0.7295 0.684 -0.0 1.0
vtan 0.4268 0.9044 0.0 1.0
vtan 0.4267 0.9044 -0.0 1.0
vtan 0.7295 0.684 -0.0 1.0
vtan 0.4268 0.9044 0.0 1.0
vtan 0.7295 0.684 0.0 1.0
vtan 0.3377 0.9413 -0.0 -1.0
vtan 0.684 0.7295 -0.0 -1.0
vtan 0.684 0.7295 0.0 -1.0
vtan 0.9176 0.3975 0.0 -1.0
vtan 0.9176 0.3975 -0.0 -1.0
vtan 0.684 0.7295 0.0 -1.0
vtan 0.684 0.7295 0.0 -1.0
vtan -0.9299 0.3678 0.0 -1.0
vtan -0.7295 0.684 -0.0 -1.0
vtan -0.7295 0.684 -0.0 -1.0
vtan 0.9176 0.3975 0.0 -1.0
vtan 0.684 0.7295 0.0 -1.0
vtan 0.9176 0.3975 0.0 -1.0
vtan 0.684 0.7295 0.0 -1.0
vtan -0.4267 0.9044 0.0 -1.0
vtan -0.4268 0.9043 -0.0 -1.0
vtan -0.7295 0.684 -0.0 -1.0
vtan -0.7294 0.684 0.0 -1.0
vtan -0.4268 0.9044 0.0 -1.0
vtan -0.7295 0.684 0.0 -1.0
vtan -0.4268 0.9044 0.0 -1.0
vtan -0.7295 0.684 0.0 -1.0
vtan -1.0 -0.0 0.0 1.0
vtan -0.9978 0.0212 -0.0628 1.0
vtan 0.988 0.1267 0.0883 1.0
vtan -0.985 0.1459 0.0922 1.0
vtan -1.0 -0.0 0.0 1.0
vtan 1.0 0.0 0.0 -1.0
vtan 0.9978 0.0212 -0.0628 -1.0
vtan -0.988 0.1267 0.0883 -1.0
vtan 0.985 0.1459 0.0922 -1.0
vtan 1.0 0.0 0.0 -1.0
f 0/0/0/0 1/1/1/1 2/2/2/2 
f 0/0/0/0 2/2/2/2 3/3/3/3 
f 4/4/4/4 5/5/5/5 6/6/6/6 
f 4/4/4/4 6/6/6/6 7/7/7/7 
f 8/8/8/8 9/9/9/9 10/10/10/10 
f 8/8/8/8 10/10/10/10 11/11/11/11 
f 12/12/12/12 13/13/13/13 9/9/9/9 
f 12/12/12/12 9/9/9/9 14/14/14/14 
f 15/15/15/15 12/12/12/12 14/14/14/14 
f 15/15/15/15 14/14/14/14 16/16/16/16 
f 17/17/17/17 18/18/18/18 19/19/19/19 
f 17/17/17/17 19/19/19/19 20/20/20/20 
f 21/21/21/21 22/22/22/22 23/23/23/23 
f 21/21/21/21 23/23/23/23 24/24/24/24 
f 25/25/25/25 21/21/21/21 24/24/24/24 
f 25/25/25/25 24/24/24/24 26/26/26/26 
f 1/1/1/27 27/0/27/28 28/3/28/29 
f 1/1/1/27 28/3/28/29 2/2/2/30 
f 29/5/29/31 30/4/30/32 31/7/31/33 
f 29/5/29/31 31/7/31/33 32/6/32/34 
f 33/9/33/35 34/8/34/36 35/11/35/37 
f 33/9/33/35 35/11/35/37 36/10/36/38 
f 33/9/33/35 37/13/37/39 38/12/38/40 
f 33/9/33/35 38/12/38/40 39/14/39/41 
f 39/14/39/41 38/12/38/40 40/15/40/42 
f 39/14/39/41 40/15/40/42 41/16/41/43 
f 18/18/18/44 42/17/42/45 43/20/43/46 
f 18/18/18/44 43/20/43/46 19/19/19/47 
f 23/23/23/48 44/22/44/49 45/21/45/50 
f 23/23/23/48 45/21/45/50 24/24/24/51 
f 24/24/24/51 45/21/45/50 46/25/46/52 
f 24/24/24/51 46/25/46/52 26/26/26/53 
f 13/13/13/13 47/27/47/54 48/28/48/55 
f 13/13/13/13 48/28/48/55 49/29/49/56 
f 50/30/50/57 51/31/51/58 52/32/52/59 
f 50/30/50/57 52/32/52/59 53/33/53/60 
f 22/22/22/22 54/34/54/61 55/35/55/62 
f 22/22/22/22 55/35/55/62 56/36/56/63 
f 57/37/57/64 0/0/0/0 47/27/47/54 
f 57/37/57/64 47/27/47/54 58/38/58/65 
f 59/39/59/66 57/37/57/64 58/38/58/65 
f 59/39/59/66 58/38/58/65 60/40/60/67 
f 61/41/61/68 62/42/62/69 63/43/63/70 
f 61/41/61/68 63/43/63/70 64/44/64/71 
f 65/45/65/72 8/8/8/8 54/34/54/61 
f 65/45/65/72 54/34/54/61 66/46/66/73 
f 67/47/67/74 65/45/65/72 66/46/66/73 
f 67/47/67/74 66/46/66/73 68/48/68/75 
f 37/13/37/39 69/29/69/76 70/28/70/77 
f 37/13/37/39 70/28/70/77 71/27/71/78 
f 72/30/72/79 73/33/73/80 74/32/74/81 
f 72/30/72/79 74/32/74/81 75/31/75/82 
f 44/22/44/49 76/36/76/83 77/35/77/84 
f 44/22/44/49 77/35/77/84 78/34/78/85 
f 27/0/27/28 79/37/79/86 80/38/80/87 
f 27/0/27/28 80/38/80/87 71/27/71/78 
f 79/37/79/86 81/39/81/88 82/40/82/89 
f 79/37/79/86 82/40/82/89 80/38/80/87 
f 83/41/83/90 84/44/84/91 85/43/85/92 
f 83/41/83/90 85/43/85/92 86/42/86/93 
f 34/8/34/36 87/45/87/94 88/46/88/95 
f 34/8/34/36 88/46/88/95 78/34/78/85 
f 87/45/87/94 89/47/89/96 90/48/90/97 
f 87/45/87/94 90/48/90/97 88/46/88/95 
f 47/27/47/54 0/0/0/0 3/3/3/3 
f 47/27/47/54 3/3/3/3 48/28/48/55 
f 51/31/51/58 4/4/4/4 7/7/7/7 
f 51/31/51/58 7/7/7/7 52/32/52/59 
f 54/34/54/61 8/8/8/8 11/11/11/11 
f 54/34/54/61 11/11/11/11 55/35/55/62 
f 58/38/58/65 47/27/47/54 13/13/13/13 
f 58/38/58/65 13/13/13/13 12/12/12/12 
f 60/40/60/67 58/38/58/65 12/12/12/12 
f 60/40/60/67 12/12/12/12 15/15/15/15 
f 62/42/62/69 17/17/17/17 20/20/20/20 
f 62/42/62/69 20/20/20/20 63/43/63/70 
f 66/46/66/73 54/34/54/61 22/22/22/22 
f 66/46/66/73 22/22/22/22 21/21/21/21 
f 68/48/68/75 66/46/66/73 21/21/21/21 
f 68/48/68/75 21/21/21/21 25/25/25/25 
f 71/27/71/78 70/28/70/77 28/3/28/29 
f 71/27/71/78 28/3/28/29 27/0/27/28 
f 75/31/75/82 74/32/74/81 31/7/31/33 
f 75/31/75/82 31/7/31/33 30/4/30/32 
f 78/34/78/85 77/35/77/84 35/11/35/37 
f 78/34/78/85 35/11/35/37 34/8/34/36 
f 71/27/71/78 80/38/80/87 38/12/38/40 
f 71/27/71/78 38/12/38/40 37/13/37/39 
f 80/38/80/87 82/40/82/89 40/15/40/42 
f 80/38/80/87 40/15/40/42 38/12/38/40 
f 86/42/86/93 85/43/85/92 43/20/43/46 
f 86/42/86/93 43/20/43/46 42/17/42/45 
f 78/34/78/85 88/46/88/95 45/21/45/50 
f 78/34/78/85 45/21/45/50 44/22/44/49 
f 88/46/88/95 90/48/90/97 46/25/46/52 
f 88/46/88/95 46/25/46/52 45/21/45/50 
f 9/9/9/9 13/13/13/13 49/29/49/56 
f 9/9/9/9 49/29/49/56 10/10/10/10 
f 91/49/91/98 50/30/50/57 53/33/53/60 
f 91/49/91/98 53/33/53/60 92/50/92/99 
f 23/23/23/23 22/22/22/22 56/36/56/63 
f 23/23/23/23 56/36/56/63 93/51/93/100 
f 0/0/0/0 57/37/57/64 94/52/94/101 
f 0/0/0/0 94/52/94/101 1/1/1/1 
f 95/53/95/102 94/52/94/101 57/37/57/64 
f 95/53/95/102 57/37/57/64 59/39/59/66 
f 5/5/5/5 61/41/61/68 64/44/64/71 
f 5/5/5/5 64/44/64/71 6/6/6/6 
f 14/14/14/14 9/9/9/9 8/8/8/8 
f 14/14/14/14 8/8/8/8 65/45/65/72 
f 16/16/16/16 14/14/14/14 65/45/65/72 
f 16/16/16/16 65/45/65/72 67/47/67/74 
f 33/9/33/35 36/10/36/38 69/29/69/76 
f 33/9/33/35 69/29/69/76 37/13/37/39 
f 91/49/91/103 92/50/92/104 73/33/73/80 
f 91/49/91/103 73/33/73/80 72/30/72/79 
f 23/23/23/48 93/51/93/105 76/36/76/83 
f 23/23/23/48 76/36/76/83 44/22/44/49 
f 1/1/1/27 94/52/94/106 79/37/79/86 
f 1/1/1/27 79/37/79/86 27/0/27/28 
f 94/52/94/106 95/53/95/107 81/39/81/88 
f 94/52/94/106 81/39/81/88 79/37/79/86 
f 29/5/29/31 32/6/32/34 84/44/84/91 
f 29/5/29/31 84/44/84/91 83/41/83/90 
f 33/9/33/35 39/14/39/41 87/45/87/94 
f 33/9/33/35 87/45/87/94 34/8/34/36 
f 39/14/39/41 41/16/41/43 89/47/89/96 
f 39/14/39/41 89/47/89/96 87/45/87/94 
f 10/10/10/10 49/29/49/56 7/7/7/7 
f 10/10/10/10 7/7/7/7 6/6/6/6 
f 93/51/93/100 56/36/56/63 20/20/20/20 
f 93/51/93/100 20/20/20/20 19/19/19/19 
f 69/29/69/76 36/10/36/38 32/6/32/34 
f 69/29/69/76 32/6/32/34 31/7/31/33 
f 76/36/76/83 93/51/93/105 19/19/19/47 
f 76/36/76/83 19/19/19/47 43/20/43/46 
f 48/28/48/55 3/3/3/3 53/33/53/60 
f 48/28/48/55 53/33/53/60 52/32/52/59 
f 55/35/55/62 11/11/11/11 64/44/64/71 
f 55/35/55/62 64/44/64/71 63/43/63/70 
f 28/3/28/29 70/28/70/77 74/32/74/81 
f 28/3/28/29 74/32/74/81 73/33/73/80 
f 35/11/35/37 77/35/77/84 85/43/85/92 
f 35/11/35/37 85/43/85/92 84/44/84/91 
f 49/29/49/56 48/28/48/55 52/32/52/59 
f 49/29/49/56 52/32/52/59 7/7/7/7 
f 56/36/56/63 55/35/55/62 63/43/63/70 
f 56/36/56/63 63/43/63/70 20/20/20/20 
f 70/28/70/77 69/29/69/76 31/7/31/33 
f 70/28/70/77 31/7/31/33 74/32/74/81 
f 77/35/77/84 76/36/76/83 43/20/43/46 
f 77/35/77/84 43/20/43/46 85/43/85/92 
f 3/3/3/3 2/2/2/2 92/50/92/99 
f 3/3/3/3 92/50/92/99 53/33/53/60 
f 11/11/11/11 10/10/10/10 6/6/6/6 
f 11/11/11/11 6/6/6/6 64/44/64/71 
f 2/2/2/30 28/3/28/29 73/33/73/80 
f 2/2/2/30 73/33/73/80 92/50/92/104 
f 36/10/36/38 35/11/35/37 84/44/84/91 
f 36/10/36/38 84/44/84/91 32/6/32/34 
