v 511.8286 134.4115 145.1283
v 486.5908 213.5032 145.1283
v 487.1912 213.6947 141.5549
v 512.4288 134.603 141.5548
gi 0 0 0 0
gi 0 0 0 0
gi 0 0 0 0
gi 0 0 0 0
gw 0.0 0.0 0.0 0.0
gw 0.0 0.0 0.0 0.0
gw 0.0 0.0 0.0 0.0
gw 0.0 0.0 0.0 0.0
vt 0.677 0.0
vt 0.6774 3.1012
vt 0.1471 3.1012
vt 0.1467 0.0
vn -0.9382 -0.2994 -0.1736
vn -0.9382 -0.2994 -0.1737
vn -0.9382 -0.2994 -0.1737
vn -0.9382 -0.2994 -0.1736
vtan -0.1654 -0.0528 0.9848
vtan -0.1655 -0.0528 0.9848
vtan -0.1655 -0.0528 0.9848
vtan -0.1654 -0.0528 0.9848
f 0/0/0/0 1/1/1/1 2/2/2/2 
f 0/0/0/0 2/2/2/2 3/3/3/3 
