v 693.7634 990.7952 202.7868
v 693.7634 990.7952 175.1093
v 693.7635 927.3633 175.1093
v 693.7635 927.3632 202.7868
v 718.709 1011.3604 169.3191
v 721.8198 1014.4711 169.3191
v 721.8198 927.3633 169.319
v 718.7089 927.3633 169.319
v 721.8198 1014.4711 202.7868
v 721.8198 927.3632 202.7868
v 713.9592 1006.6105 175.1093
v 713.9591 927.3633 175.1093
v 675.2419 990.7952 175.1093
v 675.2419 1006.6105 175.1093
v 675.2419 1011.3603 169.3191
v 675.2419 990.7952 202.7868
v 675.2419 1014.4711 169.3191
v 675.2419 1014.4711 202.7868
v 656.7202 927.3633 175.1093
v 656.7202 990.7952 175.1093
v 656.7202 990.7952 202.7868
v 656.7202 927.3632 202.7868
v 631.4904 927.3633 169.319
v 631.4902 1014.4711 169.3191
v 634.6012 1011.3604 169.3191
v 634.6012 927.3633 169.319
v 631.4902 1014.4711 202.7868
v 631.4904 927.3632 202.7868
v 639.351 927.3633 175.1093
v 639.351 1006.6105 175.1093
gi 0 0 0 0
gw 0.0 0.0 0.0 0.0
gi 0 0 0 0
gw 0.0 0.0 0.0 0.0
gi 0 0 0 0
gw 0.0 0.0 0.0 0.0
gi 0 0 0 0
gw 0.0 0.0 0.0 0.0
gi 0 0 0 0
gw 0.0 0.0 0.0 0.0
gi 0 0 0 0
gw 0.0 0.0 0.0 0.0
gi 0 0 0 0
gw 0.0 0.0 0.0 0.0
gi 0 0 0 0
gw 0.0 0.0 0.0 0.0
gi 0 0 0 0
gw 0.0 0.0 0.0 0.0
gi 0 0 0 0
gw 0.0 0.0 0.0 0.0
gi 0 0 0 0
gw 0.0 0.0 0.0 0.0
gi 0 0 0 0
gw 0.0 0.0 0.0 0.0
gi 0 0 0 0
gw 0.0 0.0 0.0 0.0
gi 0 0 0 0
gw 0.0 0.0 0.0 0.0
gi 0 0 0 0
gw 0.0 0.0 0.0 0.0
gi 0 0 0 0
gw 0.0 0.0 0.0 0.0
gi 0 0 0 0
gw 0.0 0.0 0.0 0.0
gi 0 0 0 0
gw 0.0 0.0 0.0 0.0
gi 0 0 0 0
gw 0.0 0.0 0.0 0.0
gi 0 0 0 0
gw 0.0 0.0 0.0 0.0
gi 0 0 0 0
gw 0.0 0.0 0.0 0.0
gi 0 0 0 0
gw 0.0 0.0 0.0 0.0
gi 0 0 0 0
gw 0.0 0.0 0.0 0.0
gi 0 0 0 0
gw 0.0 0.0 0.0 0.0
gi 0 0 0 0
gw 0.0 0.0 0.0 0.0
gi 0 0 0 0
gw 0.0 0.0 0.0 0.0
gi 0 0 0 0
gw 0.0 0.0 0.0 0.0
gi 0 0 0 0
gw 0.0 0.0 0.0 0.0
gi 0 0 0 0
gw 0.0 0.0 0.0 0.0
gi 0 0 0 0
gw 0.0 0.0 0.0 0.0
vt 0.7878 0.0638
vt 0.7878 0.1543
vt 0.9965 0.1543
vt 0.9965 0.0638
vt 0.7384 0.2067
vt 0.7282 0.2169
vt 0.9965 0.2169
vt 0.9965 0.2067
vt 0.7282 0.3263
vt 0.9965 0.3263
vt 0.7541 0.1878
vt 0.9965 0.1878
vt 0.8487 0.1543
vt 0.8487 0.1878
vt 0.8487 0.2067
vt 0.8487 0.0638
vt 0.8487 0.2169
vt 0.8487 0.3263
vn -0.7071 -0.7071 0.0
vn -0.3015 -0.3015 -0.9045
vn -0.7071 -0.0 -0.7071
vn -1.0 0.0 0.0
vn -0.1277 -0.1277 -0.9836
vn 0.5773 0.5774 -0.5774
vn 0.7071 -0.0 -0.7071
vn -0.4277 0.0 -0.9039
vn 0.7071 0.7071 0.0
vn 1.0 -0.0 0.0
vn -0.3387 -0.3387 -0.8778
vn -0.4277 0.0 -0.9039
vn 0.0 -0.7071 -0.7071
vn 0.0 -0.4276 -0.9039
vn -0.0 -0.4277 -0.9039
vn 0.0 -1.0 0.0
vn -0.0 0.7071 -0.7071
vn 0.0 1.0 0.0
vn 0.7071 0.0 -0.7071
vn 0.3015 -0.3015 -0.9045
vn 0.7071 -0.7071 -0.0
vn 1.0 0.0 0.0
vn -0.7071 -0.0 -0.7071
vn -0.5773 0.5774 -0.5774
vn 0.1277 -0.1277 -0.9836
vn 0.4277 0.0 -0.9039
vn -0.7071 0.7071 -0.0
vn -1.0 -0.0 -0.0
vn 0.4277 0.0 -0.9039
vn 0.3387 -0.3387 -0.8778
vtan 0.7071 -0.7071 -0.0 -1.0
vtan 0.0953 -0.9535 0.286 -1.0
vtan 0.0 -1.0 -0.0 -1.0
vtan 0.0 -1.0 -0.0 -1.0
vtan 0.0164 -0.9918 0.1266 -1.0
vtan 0.4082 -0.8165 -0.4083 -1.0
vtan -0.0 -1.0 -0.0 -1.0
vtan -0.0 -1.0 -0.0 -1.0
vtan 0.7071 -0.7071 -0.0 -1.0
vtan -0.0 -1.0 -0.0 -1.0
vtan 0.1219 -0.9409 0.316 -1.0
vtan -0.0 -1.0 -0.0 -1.0
vtan -0.9535 0.0953 0.286 1.0
vtan -1.0 0.0 0.0 1.0
vtan -0.9409 0.1219 0.316 1.0
vtan -1.0 -0.0 0.0 1.0
vtan -0.9918 0.0164 0.1266 1.0
vtan -0.7071 0.7071 0.0 1.0
vtan -1.0 -0.0 -0.0 1.0
vtan -0.8165 0.4082 -0.4082 1.0
vtan -1.0 0.0 0.0 1.0
vtan -0.7071 0.7071 0.0 1.0
vtan 0.0 -1.0 -0.0 1.0
vtan -0.0953 -0.9535 0.286 1.0
vtan -0.7071 -0.7071 0.0 1.0
vtan 0.0 -1.0 -0.0 1.0
vtan 0.0 -1.0 0.0 1.0
vtan -0.4082 -0.8165 -0.4083 1.0
vtan -0.0164 -0.9918 0.1266 1.0
vtan -0.0 -1.0 -0.0 1.0
vtan -0.7071 -0.7071 -0.0 1.0
vtan 0.0 -1.0 -0.0 1.0
vtan -0.0 -1.0 -0.0 1.0
vtan -0.1219 -0.9409 0.316 1.0
vtan 0.9535 0.0953 0.286 -1.0
vtan 0.9409 0.1219 0.316 -1.0
vtan 1.0 0.0 0.0 -1.0
vtan 0.9918 0.0164 0.1266 -1.0
vtan 1.0 -0.0 0.0 -1.0
vtan 0.7071 0.7071 0.0 -1.0
vtan 0.8165 0.4082 -0.4082 -1.0
vtan 1.0 -0.0 -0.0 -1.0
vtan 0.7071 0.7071 -0.0 -1.0
f 0/0/0/0 1/1/1/1 2/2/2/2 
f 0/0/0/0 2/2/2/2 3/3/3/3 
f 4/4/4/4 5/5/5/5 6/6/6/6 
f 4/4/4/4 6/6/6/6 7/7/7/7 
f 6/6/6/6 5/5/5/5 8/8/8/8 
f 6/6/6/6 8/8/8/8 9/9/9/9 
f 1/1/1/1 10/10/10/10 11/11/11/11 
f 1/1/1/1 11/11/11/11 2/2/2/2 
f 10/10/10/10 4/4/4/4 7/7/7/7 
f 10/10/10/10 7/7/7/7 11/11/11/11 
f 1/1/1/12 12/12/12/13 13/13/13/13 
f 1/1/1/12 13/13/13/13 10/10/10/14 
f 10/10/10/14 13/13/13/13 14/14/14/15 
f 10/10/10/14 14/14/14/15 4/4/4/16 
f 0/0/0/17 15/15/15/13 12/12/12/13 
f 0/0/0/17 12/12/12/13 1/1/1/12 
f 16/16/16/18 5/5/5/19 4/4/4/16 
f 16/16/16/18 4/4/4/16 14/14/14/15 
f 17/17/17/20 8/8/8/21 5/5/5/19 
f 17/17/17/20 5/5/5/19 16/16/16/18 
f 18/2/18/22 19/1/19/23 20/0/20/24 
f 18/2/18/22 20/0/20/24 21/3/21/25 
f 22/6/22/26 23/5/23/27 24/4/24/28 
f 22/6/22/26 24/4/24/28 25/7/25/29 
f 26/8/26/30 23/5/23/27 22/6/22/26 
f 26/8/26/30 22/6/22/26 27/9/27/31 
f 19/1/19/23 18/2/18/22 28/11/28/32 
f 19/1/19/23 28/11/28/32 29/10/29/33 
f 29/10/29/33 28/11/28/32 25/7/25/29 
f 29/10/29/33 25/7/25/29 24/4/24/28 
f 19/1/19/34 29/10/29/35 13/13/13/36 
f 19/1/19/34 13/13/13/36 12/12/12/36 
f 29/10/29/35 24/4/24/37 14/14/14/38 
f 29/10/29/35 14/14/14/38 13/13/13/36 
f 20/0/20/39 19/1/19/34 12/12/12/36 
f 20/0/20/39 12/12/12/36 15/15/15/36 
f 24/4/24/37 23/5/23/40 16/16/16/41 
f 24/4/24/37 16/16/16/41 14/14/14/38 
f 23/5/23/40 26/8/26/42 17/17/17/36 
f 23/5/23/40 17/17/17/36 16/16/16/41 
