v -596.1614 664.2318 569.3783
v -595.5298 670.6962 568.5564
v -595.5298 670.6962 575.4881
v -596.1614 664.2318 575.4881
v -642.6514 670.6962 567.87
v -596.0881 670.6962 567.87
v -596.7576 664.2318 568.6463
v -641.9824 664.2318 568.6463
v -647.4861 686.5966 561.9176
v -647.4575 690.9595 561.9176
v -591.2822 690.9595 561.9176
v -591.2534 686.5966 561.9176
v -648.0564 686.5965 575.4881
v -648.0564 690.9595 575.4881
v -648.0564 690.9595 562.6531
v -648.0564 686.5965 562.6178
v -596.6252 660.3632 569.9615
v -594.8372 662.2975 567.8377
v -594.8372 662.2975 575.4881
v -596.6252 660.3632 575.4881
v -643.2363 662.2975 567.0196
v -595.5032 662.2975 567.0196
v -597.2324 660.3632 569.2156
v -641.5076 660.3632 569.2156
v -590.6838 690.9595 562.6531
v -589.0181 693.1411 560.6854
v -589.0181 693.141 575.4881
v -590.6838 690.9595 575.4881
v -649.0593 693.1411 559.8722
v -589.6804 693.1411 559.8722
v -590.6838 695.3226 562.7308
v -590.6838 695.3226 575.4881
v -647.394 695.3226 561.9176
v -591.3455 695.3226 561.9176
v -593.3896 679.6952 565.9555
v -590.6838 686.5965 562.6178
v -590.6838 686.5965 575.4881
v -593.3896 679.6952 575.4881
v -593.9709 679.6952 565.2416
v -644.7686 679.6952 565.2416
v -642.5781 664.2318 569.3783
v -643.2104 670.6962 568.5564
v -643.9023 662.2975 567.8377
v -642.1145 660.3632 569.9615
v -649.7214 693.1411 560.6854
v -648.0564 695.3226 562.7308
v -645.3501 679.6952 565.9555
v -648.0564 695.3226 575.4881
v -643.2104 670.6962 575.4881
v -642.5781 664.2318 575.4881
v -643.9023 662.2975 575.4881
v -642.115 660.3632 575.4881
v -649.7214 693.141 575.4881
v -645.3501 679.6952 575.4881
gi 0 0 0 0
gi 0 0 0 0
gi 0 0 0 0
gi 0 0 0 0
gi 0 0 0 0
gi 0 0 0 0
gi 0 0 0 0
gi 0 0 0 0
gi 0 0 0 0
gi 0 0 0 0
gi 0 0 0 0
gi 0 0 0 0
gi 0 0 0 0
gi 0 0 0 0
gi 0 0 0 0
gi 0 0 0 0
gi 0 0 0 0
gi 0 0 0 0
gi 0 0 0 0
gi 0 0 0 0
gi 0 0 0 0
gi 0 0 0 0
gi 0 0 0 0
gi 0 0 0 0
gi 0 0 0 0
gi 0 0 0 0
gi 0 0 0 0
gi 0 0 0 0
gi 0 0 0 0
gi 0 0 0 0
gi 0 0 0 0
gi 0 0 0 0
gi 0 0 0 0
gi 0 0 0 0
gi 0 0 0 0
gi 0 0 0 0
gi 0 0 0 0
gi 0 0 0 0
gi 0 0 0 0
gi 0 0 0 0
gi 0 0 0 0
gi 0 0 0 0
gi 0 0 0 0
gi 0 0 0 0
gi 0 0 0 0
gi 0 0 0 0
gi 0 0 0 0
gi 0 0 0 0
gi 0 0 0 0
gi 0 0 0 0
gi 0 0 0 0
gi 0 0 0 0
gi 0 0 0 0
gi 0 0 0 0
gw 0.0 0.0 0.0 0.0
gw 0.0 0.0 0.0 0.0
gw 0.0 0.0 0.0 0.0
gw 0.0 0.0 0.0 0.0
gw 0.0 0.0 0.0 0.0
gw 0.0 0.0 0.0 0.0
gw 0.0 0.0 0.0 0.0
gw 0.0 0.0 0.0 0.0
gw 0.0 0.0 0.0 0.0
gw 0.0 0.0 0.0 0.0
gw 0.0 0.0 0.0 0.0
gw 0.0 0.0 0.0 0.0
gw 0.0 0.0 0.0 0.0
gw 0.0 0.0 0.0 0.0
gw 0.0 0.0 0.0 0.0
gw 0.0 0.0 0.0 0.0
gw 0.0 0.0 0.0 0.0
gw 0.0 0.0 0.0 0.0
gw 0.0 0.0 0.0 0.0
gw 0.0 0.0 0.0 0.0
gw 0.0 0.0 0.0 0.0
gw 0.0 0.0 0.0 0.0
gw 0.0 0.0 0.0 0.0
gw 0.0 0.0 0.0 0.0
gw 0.0 0.0 0.0 0.0
gw 0.0 0.0 0.0 0.0
gw 0.0 0.0 0.0 0.0
gw 0.0 0.0 0.0 0.0
gw 0.0 0.0 0.0 0.0
gw 0.0 0.0 0.0 0.0
gw 0.0 0.0 0.0 0.0
gw 0.0 0.0 0.0 0.0
gw 0.0 0.0 0.0 0.0
gw 0.0 0.0 0.0 0.0
gw 0.0 0.0 0.0 0.0
gw 0.0 0.0 0.0 0.0
gw 0.0 0.0 0.0 0.0
gw 0.0 0.0 0.0 0.0
gw 0.0 0.0 0.0 0.0
gw 0.0 0.0 0.0 0.0
gw 0.0 0.0 0.0 0.0
gw 0.0 0.0 0.0 0.0
gw 0.0 0.0 0.0 0.0
gw 0.0 0.0 0.0 0.0
gw 0.0 0.0 0.0 0.0
gw 0.0 0.0 0.0 0.0
gw 0.0 0.0 0.0 0.0
gw 0.0 0.0 0.0 0.0
gw 0.0 0.0 0.0 0.0
gw 0.0 0.0 0.0 0.0
gw 0.0 0.0 0.0 0.0
gw 0.0 0.0 0.0 0.0
gw 0.0 0.0 0.0 0.0
gw 0.0 0.0 0.0 0.0
vt 0.2773 0.6742
vt 0.2773 0.6911
vt 0.4476 0.6911
vt 0.4476 0.6742
vt 0.4453 0.6933
vt 0.2795 0.6933
vt 0.5504 0.8881
vt 0.5526 0.9084
vt 0.5337 0.9084
vt 0.5337 0.8881
vt 0.7614 0.91
vt 0.6053 0.91
vt 0.6076 0.8897
vt 0.7592 0.8897
vt 0.7776 0.96
vt 0.7775 0.9737
vt 0.5892 0.9737
vt 0.5891 0.96
vt 0.8287 0.9596
vt 0.8287 0.9733
vt 0.7937 0.9733
vt 0.7936 0.9596
vt 0.9865 0.7672
vt 0.9959 0.7791
vt 0.9632 0.7791
vt 0.9619 0.7672
vt 0.2524 0.779
vt 0.0111 0.779
vt 0.0112 0.7672
vt 0.2525 0.7672
vt 0.5337 0.882
vt 0.5546 0.882
vt 0.6034 0.8836
vt 0.7634 0.8836
vt 0.5687 0.9721
vt 0.5741 0.979
vt 0.5337 0.979
vt 0.5337 0.9721
vt 0.7829 0.9806
vt 0.5839 0.9806
vt 0.5685 0.9859
vt 0.5337 0.9859
vt 0.7773 0.9875
vt 0.5894 0.9875
vt 0.5597 0.9367
vt 0.5688 0.9584
vt 0.5337 0.9584
vt 0.5337 0.9367
vt 0.5982 0.9383
vt 0.7685 0.9383
vt 0.6028 0.9094
vt 0.605 0.8907
vt 0.8095 0.8902
vt 0.8121 0.8892
vt 0.8098 0.9096
vt 0.8073 0.909
vt 0.5867 0.9726
vt 0.5865 0.9593
vt 0.7912 0.9721
vt 0.791 0.9589
vt 0.6007 0.8862
vt 0.8052 0.8857
vt 0.8079 0.8832
vt 0.0078 0.7789
vt 0.0079 0.7672
vt 0.2559 0.779
vt 0.2558 0.7672
vt 0.5815 0.9806
vt 0.7884 0.9801
vt 0.786 0.9801
vt 0.5871 0.99
vt 0.7939 0.987
vt 0.7916 0.9896
vt 0.5957 0.9372
vt 0.8002 0.9367
vt 0.8027 0.9379
vt 0.0091 0.8976
vt 0.0091 0.876
vt 0.0109 0.8746
vt 0.1674 0.876
vt 0.1655 0.8746
vt 0.1674 0.8976
vt 0.8287 0.9096
vt 0.8287 0.8892
vt 0.2874 0.779
vt 0.2803 0.7672
vt 0.8287 0.8832
vt 0.8287 0.9801
vt 0.8287 0.987
vt 0.8287 0.9379
vn 0.0 -1.0 0.0
vn 0.0 -1.0 -0.0
vn 0.9117 0.3115 -0.2677
vn 0.9232 -0.2213 -0.3142
vn 0.9863 -0.1647 0.0
vn 0.9685 0.2488 0.0
vn -0.4078 -0.254 -0.877
vn 0.4081 -0.2541 -0.8769
vn 0.3713 0.3626 -0.8548
vn -0.3714 0.3626 -0.8547
vn -0.427 -0.251 -0.8687
vn -0.3556 -0.4619 -0.8125
vn 0.3557 -0.462 -0.8124
vn 0.4273 -0.251 -0.8686
vn -0.9826 -0.1858 0.0
vn -0.9473 -0.3202 0.0
vn -0.8773 -0.4014 -0.2631
vn -0.9077 -0.2349 -0.3476
vn 0.405 -0.9097 -0.0917
vn 0.9149 -0.0672 -0.3981
vn 0.9973 -0.0728 0.0
vn 0.401 -0.9161 -0.0
vn -0.4599 -0.0629 -0.8858
vn 0.4599 -0.0629 -0.8857
vn 0.1381 -0.9239 -0.3568
vn -0.1382 -0.9239 -0.3568
vn 0.8773 -0.4014 -0.2629
vn 0.9163 0.0032 -0.4005
vn 1.0 -0.0 -0.0
vn 0.9473 -0.3203 0.0
vn -0.4624 0.0025 -0.8867
vn 0.4624 0.0025 -0.8867
vn 0.4484 0.8877 -0.1047
vn 0.4434 0.8963 0.0
vn -0.1561 0.9026 -0.4011
vn 0.1563 0.9026 -0.4012
vn 0.8737 -0.3895 -0.2914
vn 0.9078 -0.2349 -0.3474
vn 0.9826 -0.1858 0.0
vn 0.9543 -0.2989 0.0
vn 0.3736 -0.4407 -0.8163
vn -0.3735 -0.4407 -0.8163
vn -0.9118 0.3114 -0.2675
vn -0.9231 -0.2213 -0.3144
vn -0.9149 -0.0672 -0.3981
vn -0.405 -0.9097 -0.0916
vn -0.9163 0.0032 -0.4005
vn -0.4484 0.8876 -0.1048
vn -0.8737 -0.3895 -0.2914
vn -0.4434 0.8963 0.0
vn -0.9863 -0.1647 0.0
vn -0.9686 0.2488 0.0
vn -0.9973 -0.0728 -0.0
vn -0.401 -0.9161 -0.0001
vn -1.0 -0.0 -0.0
vn -0.9543 -0.2989 0.0
vtan 1.0 0.0 0.0
vtan -0.2534 -0.0866 -0.9635
vtan -0.3055 0.0732 -0.9494
vtan 0.0 0.0 -1.0
vtan -0.9131 0.1135 0.3917
vtan -0.9129 -0.1189 -0.3904
vtan -0.9265 0.205 -0.3155
vtan -0.9285 -0.1451 0.3419
vtan -0.9042 0.1186 0.4102
vtan -0.9346 0.1757 0.3092
vtan -0.9342 -0.1514 -0.323
vtan -0.9038 -0.144 -0.403
vtan 0.0 0.0 1.0
vtan -0.2125 -0.1666 0.9629
vtan -0.3212 -0.1437 0.936
vtan -0.0373 0.0838 -0.9958
vtan -0.397 0.0292 -0.9174
vtan -0.0 0.0 -1.0
vtan -0.8875 -0.0021 0.4609
vtan -0.8877 -0.0086 -0.4603
vtan -0.9226 0.0111 -0.3857
vtan -0.9217 -0.0118 0.3877
vtan -0.397 0.0292 -0.9174
vtan -0.8293 0.3261 -0.4537
vtan -0.888 0.0326 0.4587
vtan -0.2391 0.1094 -0.9648
vtan -0.4005 -0.0014 -0.9163
vtan -0.0 0.0 -1.0
vtan -0.8867 -0.0013 0.4624
vtan -0.8867 -0.0001 -0.4624
vtan -0.0472 -0.0935 -0.9945
vtan 0.0 0.0 -1.0
vtan -0.9877 -0.1427 0.0634
vtan -0.9858 0.1172 -0.1202
vtan -0.2661 0.1186 -0.9566
vtan -0.3363 0.087 -0.9377
vtan -0.9275 -0.19 -0.3219
vtan -0.9276 0.1774 0.3286
vtan -0.369 -0.2826 -0.8854
vtan -0.4026 0.5486 -0.7328
vtan -0.6672 0.536 0.5173
vtan -0.2339 0.1414 0.9619
vtan -0.2992 -0.0999 0.9489
vtan -0.8045 -0.3544 0.4767
vtan -0.4488 -0.4923 -0.7458
vtan -0.4114 -0.3385 -0.8463
vtan -0.6288 -0.5249 0.5736
vtan -0.7895 -0.3649 0.4935
vtan -0.2304 0.7228 -0.6515
vtan -0.571 0.7849 0.2407
vtan -0.3981 0.3135 0.8621
vtan -0.4008 -0.0333 -0.9156
vtan -0.5663 -0.1708 -0.8063
vtan -0.3991 0.0031 0.9169
vtan -0.2535 0.0155 0.9672
vtan -0.4003 0.0329 -0.9158
vtan -0.4004 0.0128 0.9163
vtan -0.8867 0.0011 0.4624
vtan -0.8828 0.4215 -0.2071
vtan 0.0233 0.1288 0.9914
vtan -0.1322 0.3834 0.9141
vtan -0.4662 -0.4998 -0.7299
vtan -0.607 -0.5493 0.5743
vtan -0.2343 -0.1881 0.9538
vtan -0.8963 0.4434 0.0004
vtan -0.8936 0.4479 -0.0298
vtan -0.9877 0.1448 -0.0588
vtan -0.8938 -0.4454 0.0526
vtan -0.8963 -0.4434 0.0
vtan -0.0 0.0 1.0
vtan -0.0001 -0.0 1.0
vtan -0.0 -0.0 1.0
vtan -0.0 -0.0 1.0
f 51/0/0/0 43/1/0/0 16/2/0/0 
f 51/0/0/0 16/2/0/0 19/3/0/0 
f 22/4/0/0 16/2/0/0 43/1/0/0 
f 22/4/1/0 43/1/1/0 23/5/1/0 
f 0/6/2/1 1/7/3/2 2/8/4/3 
f 0/6/2/1 2/8/4/3 3/9/5/3 
f 4/10/6/4 5/11/7/5 6/12/8/6 
f 4/10/6/4 6/12/8/6 7/13/9/7 
f 8/14/10/8 9/15/11/9 10/16/12/10 
f 8/14/10/8 10/16/12/10 11/17/13/11 
f 12/18/14/12 13/19/15/12 14/20/16/13 
f 12/18/14/12 14/20/16/13 15/21/17/14 
f 16/22/18/15 17/23/19/16 18/24/20/3 
f 16/22/18/15 18/24/20/3 19/25/21/17 
f 20/26/22/18 21/27/23/19 22/28/24/20 
f 20/26/22/18 22/28/24/20 23/29/25/21 
f 0/6/2/1 3/9/5/3 18/30/20/3 
f 0/6/2/1 18/30/20/3 17/31/19/22 
f 7/13/9/7 6/12/8/6 21/32/23/23 
f 7/13/9/7 21/32/23/23 20/33/22/24 
f 24/34/26/25 25/35/27/26 26/36/28/27 
f 24/34/26/25 26/36/28/27 27/37/29/3 
f 28/38/30/28 29/39/31/29 10/16/12/10 
f 28/38/30/28 10/16/12/10 9/15/11/9 
f 30/40/32/30 31/41/33/31 26/36/28/27 
f 30/40/32/30 26/36/28/27 25/35/27/26 
f 32/42/34/32 33/43/35/33 29/39/31/29 
f 32/42/34/32 29/39/31/29 28/38/30/28 
f 34/44/36/34 35/45/37/35 36/46/38/3 
f 34/44/36/34 36/46/38/3 37/47/39/3 
f 8/14/10/8 11/17/13/11 38/48/40/36 
f 8/14/10/8 38/48/40/36 39/49/41/37 
f 1/7/3/2 34/44/36/34 37/47/39/3 
f 1/7/3/2 37/47/39/3 2/8/4/3 
f 39/49/41/37 38/48/40/36 5/11/7/5 
f 39/49/41/37 5/11/7/5 4/10/6/4 
f 1/50/3/38 0/51/2/39 6/12/8/6 
f 1/50/3/38 6/12/8/6 5/11/7/5 
f 7/52/9/40 40/53/42/41 41/54/43/42 
f 7/52/9/40 41/54/43/42 4/55/6/43 
f 11/17/13/11 10/16/12/10 24/56/26/44 
f 11/17/13/11 24/56/26/44 35/57/37/45 
f 15/21/17/14 14/20/16/13 9/58/11/46 
f 15/21/17/14 9/58/11/46 8/59/10/47 
f 6/12/8/6 0/51/2/39 17/60/19/48 
f 6/12/8/6 17/60/19/48 21/32/23/23 
f 7/52/9/40 20/61/22/49 42/62/44/50 
f 7/52/9/40 42/62/44/50 40/53/42/41 
f 17/63/19/51 16/64/18/52 22/28/24/20 
f 17/63/19/51 22/28/24/20 21/27/23/19 
f 42/65/44/53 20/26/22/18 23/29/25/21 
f 42/65/44/53 23/29/25/21 43/66/45/54 
f 10/16/12/10 29/39/31/29 25/67/27/55 
f 10/16/12/10 25/67/27/55 24/56/26/44 
f 9/58/11/46 14/20/16/13 44/68/46/56 
f 9/58/11/46 44/68/46/56 28/69/30/57 
f 25/67/27/55 29/39/31/29 33/43/35/33 
f 25/67/27/55 33/43/35/33 30/70/32/58 
f 44/68/46/56 45/71/47/59 32/72/34/60 
f 44/68/46/56 32/72/34/60 28/69/30/57 
f 38/48/40/36 11/17/13/11 35/57/37/45 
f 38/48/40/36 35/57/37/45 34/73/36/61 
f 39/74/41/62 46/75/48/63 15/21/17/14 
f 39/74/41/62 15/21/17/14 8/59/10/47 
f 5/11/7/5 38/48/40/36 34/73/36/61 
f 5/11/7/5 34/73/36/61 1/50/3/38 
f 4/55/6/43 41/54/43/42 46/75/48/63 
f 4/55/6/43 46/75/48/63 39/74/41/62 
f 31/76/33/64 30/77/32/65 33/78/35/66 
f 31/76/33/64 33/78/35/66 45/79/47/67 
f 33/78/35/66 32/80/34/32 45/79/47/67 
f 47/81/49/68 31/76/33/64 45/79/47/67 
f 48/82/50/12 41/54/43/42 40/53/42/41 
f 48/82/50/12 40/53/42/41 49/83/51/12 
f 36/46/38/3 35/45/37/35 24/34/26/25 
f 36/46/38/3 24/34/26/25 27/37/29/3 
f 50/84/52/69 42/65/44/53 43/66/45/54 
f 50/84/52/69 43/66/45/54 51/85/53/70 
f 50/86/52/71 49/83/51/12 40/53/42/41 
f 50/86/52/71 40/53/42/41 42/62/44/50 
f 52/87/54/72 44/68/46/56 14/20/16/13 
f 52/87/54/72 14/20/16/13 13/19/15/12 
f 52/87/54/72 47/88/49/12 45/71/47/59 
f 52/87/54/72 45/71/47/59 44/68/46/56 
f 12/18/14/12 15/21/17/14 46/75/48/63 
f 12/18/14/12 46/75/48/63 53/89/55/12 
f 53/89/55/12 46/75/48/63 41/54/43/42 
f 53/89/55/12 41/54/43/42 48/82/50/12 
