v 52.3152 279.8812 199.0069
v 52.3152 280.1829 197.8808
v 92.4797 280.1829 197.8808
v 92.4797 279.8812 199.0069
v 52.3152 281.0073 197.0564
v 92.4797 281.0073 197.0564
v 52.3152 282.1334 196.7545
v 92.4797 282.1334 196.7545
v 52.3152 283.2596 197.0564
v 92.4797 283.2596 197.0564
v 52.3152 284.0839 197.8808
v 92.4797 284.0839 197.8808
v 52.3152 284.3857 199.0069
v 92.4797 284.3857 199.0069
v 52.3152 284.0839 200.1329
v 92.4797 284.0839 200.1329
v 52.3152 283.2596 200.9574
v 92.4797 283.2596 200.9574
v 52.3152 282.1334 201.259
v 92.4797 282.1334 201.259
v 52.3152 281.0073 200.9574
v 92.4797 281.0073 200.9574
v 52.3152 280.1829 200.1329
v 92.4797 280.1829 200.1329
v 12.1506 279.8812 199.0069
v 12.1506 280.1829 197.8808
v 12.1506 281.0073 197.0564
v 12.1506 282.1334 196.7545
v 12.1506 283.2596 197.0564
v 12.1506 284.0839 197.8808
v 12.1506 284.3857 199.0069
v 12.1506 284.0839 200.1329
v 12.1506 283.2596 200.9574
v 12.1506 282.1334 201.259
v 12.1506 281.0073 200.9574
v 12.1506 280.1829 200.1329
v -28.014 279.8812 199.0069
v -28.014 280.1829 197.8808
v -28.014 281.0073 197.0564
v -28.014 282.1334 196.7545
v -28.014 283.2596 197.0564
v -28.014 284.0839 197.8808
v -28.014 284.3857 199.0069
v -28.014 284.0839 200.1329
v -28.014 283.2596 200.9574
v -28.014 282.1334 201.259
v -28.014 281.0073 200.9574
v -28.014 280.1829 200.1329
v -62.4588 279.8812 199.0069
v -62.4588 280.1829 197.8808
v -62.4588 281.0073 197.0564
v -62.4588 282.1334 196.7545
v -62.4588 283.2596 197.0564
v -62.4588 284.0839 197.8808
v -62.4588 284.3857 199.0069
v -62.4588 284.0839 200.1329
v -62.4588 283.2596 200.9574
v -62.4588 282.1334 201.259
v -62.4588 281.0073 200.9574
v -62.4588 280.1829 200.1329
v -217.3974 280.1829 197.8808
v -177.2328 280.1829 197.8808
v -177.2328 279.8812 199.0069
v -217.3974 279.8812 199.0069
v -217.3974 281.0073 197.0564
v -177.2328 281.0073 197.0564
v -217.3974 282.1334 196.7545
v -177.2328 282.1334 196.7545
v -217.3974 283.2596 197.0564
v -177.2328 283.2596 197.0564
v -217.3974 284.0839 197.8808
v -177.2328 284.0839 197.8808
v -217.3974 284.3857 199.0069
v -177.2328 284.3857 199.0069
v -217.3974 284.0839 200.1329
v -177.2328 284.0839 200.1329
v -217.3974 283.2596 200.9574
v -177.2328 283.2596 200.9574
v -217.3974 282.1334 201.259
v -177.2328 282.1334 201.259
v -217.3974 281.0073 200.9574
v -177.2328 281.0073 200.9574
v -217.3974 280.1829 200.1329
v -177.2328 280.1829 200.1329
v -137.0682 280.1829 197.8808
v -137.0682 279.8812 199.0069
v -137.0682 281.0073 197.0564
v -137.0682 282.1334 196.7545
v -137.0682 283.2596 197.0564
v -137.0682 284.0839 197.8808
v -137.0682 284.3857 199.0069
v -137.0682 284.0839 200.1329
v -137.0682 283.2596 200.9574
v -137.0682 282.1334 201.259
v -137.0682 281.0073 200.9574
v -137.0682 280.1829 200.1329
v -96.9036 280.1829 197.8808
v -96.9036 279.8812 199.0069
v -96.9036 281.0073 197.0564
v -96.9036 282.1334 196.7545
v -96.9036 283.2596 197.0564
v -96.9036 284.0839 197.8808
v -96.9036 284.3857 199.0069
v -96.9036 284.0839 200.1329
v -96.9036 283.2596 200.9574
v -96.9036 282.1334 201.259
v -96.9036 281.0073 200.9574
v -96.9036 280.1829 200.1329
gi 0 0 0 0
gi 0 0 0 0
gi 0 0 0 0
gi 0 0 0 0
gi 0 0 0 0
gi 0 0 0 0
gi 0 0 0 0
gi 0 0 0 0
gi 0 0 0 0
gi 0 0 0 0
gi 0 0 0 0
gi 0 0 0 0
gi 0 0 0 0
gi 0 0 0 0
gi 0 0 0 0
gi 0 0 0 0
gi 0 0 0 0
gi 0 0 0 0
gi 0 0 0 0
gi 0 0 0 0
gi 0 0 0 0
gi 0 0 0 0
gi 0 0 0 0
gi 0 0 0 0
gi 0 0 0 0
gi 0 0 0 0
gi 0 0 0 0
gi 0 0 0 0
gi 0 0 0 0
gi 0 0 0 0
gi 0 0 0 0
gi 0 0 0 0
gi 0 0 0 0
gi 0 0 0 0
gi 0 0 0 0
gi 0 0 0 0
gi 0 0 0 0
gi 0 0 0 0
gi 0 0 0 0
gi 0 0 0 0
gi 0 0 0 0
gi 0 0 0 0
gi 0 0 0 0
gi 0 0 0 0
gi 0 0 0 0
gi 0 0 0 0
gi 0 0 0 0
gi 0 0 0 0
gi 0 0 0 0
gi 0 0 0 0
gi 0 0 0 0
gi 0 0 0 0
gi 0 0 0 0
gi 0 0 0 0
gi 0 0 0 0
gi 0 0 0 0
gi 0 0 0 0
gi 0 0 0 0
gi 0 0 0 0
gi 0 0 0 0
gi 0 0 0 0
gi 0 0 0 0
gi 0 0 0 0
gi 0 0 0 0
gi 0 0 0 0
gi 0 0 0 0
gi 0 0 0 0
gi 0 0 0 0
gi 0 0 0 0
gi 0 0 0 0
gi 0 0 0 0
gi 0 0 0 0
gi 0 0 0 0
gi 0 0 0 0
gi 0 0 0 0
gi 0 0 0 0
gi 0 0 0 0
gi 0 0 0 0
gi 0 0 0 0
gi 0 0 0 0
gi 0 0 0 0
gi 0 0 0 0
gi 0 0 0 0
gi 0 0 0 0
gi 0 0 0 0
gi 0 0 0 0
gi 0 0 0 0
gi 0 0 0 0
gi 0 0 0 0
gi 0 0 0 0
gi 0 0 0 0
gi 0 0 0 0
gi 0 0 0 0
gi 0 0 0 0
gi 0 0 0 0
gi 0 0 0 0
gi 0 0 0 0
gi 0 0 0 0
gi 0 0 0 0
gi 0 0 0 0
gi 0 0 0 0
gi 0 0 0 0
gi 0 0 0 0
gi 0 0 0 0
gi 0 0 0 0
gi 0 0 0 0
gi 0 0 0 0
gi 0 0 0 0
gw 0.0 0.0 0.0 0.0
gw 0.0 0.0 0.0 0.0
gw 0.0 0.0 0.0 0.0
gw 0.0 0.0 0.0 0.0
gw 0.0 0.0 0.0 0.0
gw 0.0 0.0 0.0 0.0
gw 0.0 0.0 0.0 0.0
gw 0.0 0.0 0.0 0.0
gw 0.0 0.0 0.0 0.0
gw 0.0 0.0 0.0 0.0
gw 0.0 0.0 0.0 0.0
gw 0.0 0.0 0.0 0.0
gw 0.0 0.0 0.0 0.0
gw 0.0 0.0 0.0 0.0
gw 0.0 0.0 0.0 0.0
gw 0.0 0.0 0.0 0.0
gw 0.0 0.0 0.0 0.0
gw 0.0 0.0 0.0 0.0
gw 0.0 0.0 0.0 0.0
gw 0.0 0.0 0.0 0.0
gw 0.0 0.0 0.0 0.0
gw 0.0 0.0 0.0 0.0
gw 0.0 0.0 0.0 0.0
gw 0.0 0.0 0.0 0.0
gw 0.0 0.0 0.0 0.0
gw 0.0 0.0 0.0 0.0
gw 0.0 0.0 0.0 0.0
gw 0.0 0.0 0.0 0.0
gw 0.0 0.0 0.0 0.0
gw 0.0 0.0 0.0 0.0
gw 0.0 0.0 0.0 0.0
gw 0.0 0.0 0.0 0.0
gw 0.0 0.0 0.0 0.0
gw 0.0 0.0 0.0 0.0
gw 0.0 0.0 0.0 0.0
gw 0.0 0.0 0.0 0.0
gw 0.0 0.0 0.0 0.0
gw 0.0 0.0 0.0 0.0
gw 0.0 0.0 0.0 0.0
gw 0.0 0.0 0.0 0.0
gw 0.0 0.0 0.0 0.0
gw 0.0 0.0 0.0 0.0
gw 0.0 0.0 0.0 0.0
gw 0.0 0.0 0.0 0.0
gw 0.0 0.0 0.0 0.0
gw 0.0 0.0 0.0 0.0
gw 0.0 0.0 0.0 0.0
gw 0.0 0.0 0.0 0.0
gw 0.0 0.0 0.0 0.0
gw 0.0 0.0 0.0 0.0
gw 0.0 0.0 0.0 0.0
gw 0.0 0.0 0.0 0.0
gw 0.0 0.0 0.0 0.0
gw 0.0 0.0 0.0 0.0
gw 0.0 0.0 0.0 0.0
gw 0.0 0.0 0.0 0.0
gw 0.0 0.0 0.0 0.0
gw 0.0 0.0 0.0 0.0
gw 0.0 0.0 0.0 0.0
gw 0.0 0.0 0.0 0.0
gw 0.0 0.0 0.0 0.0
gw 0.0 0.0 0.0 0.0
gw 0.0 0.0 0.0 0.0
gw 0.0 0.0 0.0 0.0
gw 0.0 0.0 0.0 0.0
gw 0.0 0.0 0.0 0.0
gw 0.0 0.0 0.0 0.0
gw 0.0 0.0 0.0 0.0
gw 0.0 0.0 0.0 0.0
gw 0.0 0.0 0.0 0.0
gw 0.0 0.0 0.0 0.0
gw 0.0 0.0 0.0 0.0
gw 0.0 0.0 0.0 0.0
gw 0.0 0.0 0.0 0.0
gw 0.0 0.0 0.0 0.0
gw 0.0 0.0 0.0 0.0
gw 0.0 0.0 0.0 0.0
gw 0.0 0.0 0.0 0.0
gw 0.0 0.0 0.0 0.0
gw 0.0 0.0 0.0 0.0
gw 0.0 0.0 0.0 0.0
gw 0.0 0.0 0.0 0.0
gw 0.0 0.0 0.0 0.0
gw 0.0 0.0 0.0 0.0
gw 0.0 0.0 0.0 0.0
gw 0.0 0.0 0.0 0.0
gw 0.0 0.0 0.0 0.0
gw 0.0 0.0 0.0 0.0
gw 0.0 0.0 0.0 0.0
gw 0.0 0.0 0.0 0.0
gw 0.0 0.0 0.0 0.0
gw 0.0 0.0 0.0 0.0
gw 0.0 0.0 0.0 0.0
gw 0.0 0.0 0.0 0.0
gw 0.0 0.0 0.0 0.0
gw 0.0 0.0 0.0 0.0
gw 0.0 0.0 0.0 0.0
gw 0.0 0.0 0.0 0.0
gw 0.0 0.0 0.0 0.0
gw 0.0 0.0 0.0 0.0
gw 0.0 0.0 0.0 0.0
gw 0.0 0.0 0.0 0.0
gw 0.0 0.0 0.0 0.0
gw 0.0 0.0 0.0 0.0
gw 0.0 0.0 0.0 0.0
gw 0.0 0.0 0.0 0.0
gw 0.0 0.0 0.0 0.0
gw 0.0 0.0 0.0 0.0
vt 0.9876 0.5241
vt 0.9633 0.5241
vt 0.9633 0.0053
vt 0.9876 0.0053
vt 0.9391 0.5241
vt 0.9391 0.0053
vt 0.9148 0.5241
vt 0.9148 0.0053
vt 0.8906 0.5241
vt 0.8906 0.0053
vt 0.8663 0.5241
vt 0.8663 0.0053
vt 0.8421 0.5241
vt 0.8421 0.0053
vt 0.8178 0.5241
vt 0.8178 0.0053
vt 0.7936 0.5241
vt 0.7936 0.0053
vt 0.7694 0.5241
vt 0.7694 0.0053
vt 0.7451 0.5241
vt 0.7451 0.0053
vt 0.7209 0.5241
vt 0.7209 0.0053
vt 0.6966 0.5241
vt 0.6966 0.0053
vt 0.9876 0.4502
vt 0.9633 0.4502
vt 0.9391 0.4502
vt 0.9148 0.4502
vt 0.8906 0.4502
vt 0.8663 0.4502
vt 0.8421 0.4502
vt 0.8178 0.4502
vt 0.7936 0.4502
vt 0.7694 0.4502
vt 0.7451 0.4502
vt 0.7209 0.4502
vt 0.6966 0.4502
vn 0.0 -1.0 -0.0
vn 0.0 -0.866 -0.5
vn 0.0 -0.866 -0.5
vn 0.0 -1.0 0.0
vn 0.0 -0.5 -0.866
vn 0.0 -0.5 -0.866
vn 0.0 -0.0 -1.0
vn 0.0 -0.0 -1.0
vn 0.0 0.5 -0.866
vn 0.0 0.5 -0.866
vn 0.0 0.866 -0.5
vn 0.0 0.866 -0.5
vn 0.0 1.0 0.0
vn 0.0 1.0 0.0
vn 0.0 0.866 0.5
vn 0.0 0.866 0.5
vn 0.0 0.5 0.866
vn 0.0 0.5 0.866
vn 0.0 -0.0 1.0
vn 0.0 -0.0 1.0
vn 0.0 -0.5 0.866
vn 0.0 -0.5 0.866
vn 0.0 -0.866 0.5
vn 0.0 -0.866 0.5
vn 0.0 -1.0 -0.0
vn 0.0 -0.866 -0.5
vn 0.0 -0.5 -0.866
vn 0.0 -0.0 -1.0
vn 0.0 0.5 -0.866
vn 0.0 0.866 -0.5
vn 0.0 1.0 -0.0
vn 0.0 0.866 0.5
vn 0.0 0.5 0.866
vn 0.0 -0.0 1.0
vn 0.0 -0.5 0.866
vn 0.0 -0.866 0.5
vn 0.0 -1.0 -0.0
vn 0.0 -0.866 -0.5
vn 0.0 -0.5 -0.866
vn 0.0 -0.0 -1.0
vn 0.0 0.5 -0.866
vn 0.0 0.866 -0.5
vn 0.0 1.0 -0.0
vn 0.0 0.866 0.5
vn 0.0 0.5 0.866
vn 0.0 -0.0 1.0
vn 0.0 -0.5 0.866
vn 0.0 -0.866 0.5
vn 0.0 -1.0 0.0
vn 0.0 -0.866 -0.5
vn 0.0 -0.5 -0.866
vn 0.0 -0.0 -1.0
vn 0.0 0.5001 -0.866
vn 0.0 0.866 -0.5
vn 0.0 1.0 0.0
vn 0.0 0.866 0.5
vn 0.0 0.5 0.866
vn 0.0 -0.0 1.0
vn 0.0 -0.5 0.866
vn 0.0 -0.866 0.5
vn 0.0 -0.866 -0.5
vn 0.0 -0.866 -0.5
vn 0.0 -1.0 0.0
vn 0.0 -1.0 0.0
vn 0.0 -0.5 -0.866
vn 0.0 -0.5 -0.866
vn 0.0 -0.0 -1.0
vn 0.0 -0.0 -1.0
vn 0.0 0.5 -0.866
vn 0.0 0.5 -0.866
vn 0.0 0.866 -0.5
vn 0.0 0.866 -0.5
vn 0.0 1.0 -0.0
vn 0.0 1.0 0.0
vn 0.0 0.866 0.5
vn 0.0 0.866 0.5
vn 0.0 0.5 0.866
vn 0.0 0.5 0.866
vn 0.0 -0.0 1.0
vn 0.0 -0.0 1.0
vn 0.0 -0.5 0.866
vn 0.0 -0.5 0.866
vn 0.0 -0.866 0.5
vn 0.0 -0.866 0.5
vn 0.0 -1.0 0.0
vn 0.0 -0.5 -0.866
vn 0.0 -0.0 -1.0
vn 0.0 0.5 -0.866
vn 0.0 0.866 -0.5
vn 0.0 1.0 0.0
vn 0.0 -0.0 1.0
vn 0.0 -0.5 0.866
vn 0.0 -0.866 0.5
vn 0.0 -0.866 -0.5
vn 0.0 -1.0 -0.0
vn 0.0 -0.5 -0.866
vn 0.0 -0.0 -1.0
vn 0.0 0.5 -0.866
vn 0.0 1.0 -0.0
vn 0.0 0.5 0.866
vn 0.0 -0.0 1.0
vn 0.0 -0.5 0.866
vtan 0.0 -0.0 1.0
vtan 0.0 -0.5 0.866
vtan 0.0 -0.5 0.866
vtan 0.0 0.0 1.0
vtan 0.0 -0.866 0.5
vtan 0.0 -0.866 0.5
vtan 0.0 -1.0 0.0
vtan 0.0 -1.0 0.0
vtan 0.0 -0.866 -0.5
vtan 0.0 -0.866 -0.5
vtan 0.0 -0.5 -0.866
vtan 0.0 -0.5 -0.866
vtan 0.0 0.0 -1.0
vtan 0.0 0.0 -1.0
vtan 0.0 0.5 -0.866
vtan 0.0 0.5 -0.866
vtan 0.0 0.866 -0.5
vtan 0.0 0.866 -0.5
vtan 0.0 1.0 0.0
vtan 0.0 1.0 0.0
vtan 0.0 0.866 0.5
vtan 0.0 0.866 0.5
vtan 0.0 0.5 0.866
vtan 0.0 0.5 0.866
vtan 0.0 0.0 1.0
vtan 0.0 0.0 1.0
vtan 0.0 -0.5 0.866
vtan 0.0 -0.866 0.5
vtan 0.0 -1.0 0.0
vtan 0.0 -0.866 -0.5
vtan 0.0 -0.5 -0.866
vtan 0.0 0.0 -1.0
vtan 0.0 0.5 -0.866
vtan 0.0 0.866 -0.5
vtan 0.0 1.0 0.0
vtan 0.0 0.866 0.5
vtan 0.0 0.5 0.866
vtan 0.0 -0.0 1.0
vtan 0.0 -0.5 0.866
vtan 0.0 -0.5 0.866
vtan 0.0 -0.866 0.5
vtan 0.0 -1.0 0.0
vtan 0.0 -0.866 -0.5
vtan 0.0 -0.866 -0.5
vtan 0.0 -0.5 -0.866
vtan 0.0 -0.5 -0.866
vtan 0.0 -0.0 -1.0
vtan 0.0 0.5 -0.866
vtan 0.0 0.866 -0.5
vtan 0.0 1.0 0.0
vtan 0.0 0.866 0.5
vtan 0.0 0.5 0.866
vtan 0.0 -0.0 1.0
vtan 0.0 0.0 1.0
vtan 0.0 -0.5 0.866
vtan 0.0 -0.5 0.866
vtan 0.0 -0.866 0.5
vtan 0.0 -1.0 0.0
vtan 0.0 -1.0 0.0
vtan 0.0 -0.866 -0.5001
vtan 0.0 -0.5 -0.866
vtan 0.0 0.0 -1.0
vtan 0.0 -0.0 -1.0
vtan 0.0 0.5 -0.866
vtan 0.0 0.866 -0.5
vtan 0.0 0.866 -0.5
vtan 0.0 1.0 0.0
vtan 0.0 1.0 0.0
vtan 0.0 0.866 0.5
vtan 0.0 0.5 0.866
vtan 0.0 0.5 0.866
vtan 0.0 0.0 1.0
vtan 0.0 -0.5 0.866
vtan 0.0 -0.5 0.866
vtan 0.0 0.0 1.0
vtan 0.0 -0.866 0.5
vtan 0.0 -1.0 0.0
vtan 0.0 -1.0 0.0
vtan 0.0 -0.866 -0.5
vtan 0.0 -0.866 -0.5
vtan 0.0 -0.5 -0.866
vtan 0.0 -0.5 -0.866
vtan 0.0 -0.0 -1.0
vtan 0.0 0.5 -0.866
vtan 0.0 0.5 -0.866
vtan 0.0 0.866 -0.5
vtan 0.0 0.866 -0.5
vtan 0.0 1.0 0.0
vtan 0.0 1.0 0.0
vtan 0.0 0.866 0.5
vtan 0.0 0.866 0.5
vtan 0.0 0.5 0.866
vtan 0.0 0.5 0.866
vtan 0.0 0.0 1.0
vtan 0.0 -0.866 0.5
vtan 0.0 -0.866 0.5
vtan 0.0 -1.0 0.0
vtan 0.0 -0.866 -0.5
vtan 0.0 -0.5 -0.866
vtan 0.0 0.0 -1.0
vtan 0.0 0.866 0.5
vtan 0.0 0.5 0.866
vtan 0.0 -0.5 0.866
vtan 0.0 -0.866 0.5
vtan 0.0 -0.866 0.5
vtan 0.0 -1.0 0.0
vtan 0.0 -0.866 -0.5
vtan 0.0 -0.866 -0.5
vtan 0.0 -0.5 -0.866
vtan 0.0 0.0 -1.0
vtan 0.0 0.866 -0.5
vtan 0.0 0.866 -0.5
vtan 0.0 1.0 0.0
vtan 0.0 0.866 0.5
vtan 0.0 0.5 0.866
vtan 0.0 -0.5 0.866
vtan 0.0 -0.866 -0.5
f 0/0/0/0 1/1/1/1 2/2/2/2 
f 0/0/0/0 2/2/2/2 3/3/3/3 
f 1/1/1/1 4/4/4/4 5/5/5/5 
f 1/1/1/1 5/5/5/5 2/2/2/2 
f 4/4/4/4 6/6/6/6 7/7/7/7 
f 4/4/4/4 7/7/7/7 5/5/5/5 
f 6/6/6/6 8/8/8/8 9/9/9/9 
f 6/6/6/6 9/9/9/9 7/7/7/7 
f 8/8/8/8 10/10/10/10 11/11/11/11 
f 8/8/8/8 11/11/11/11 9/9/9/9 
f 10/10/10/10 12/12/12/12 13/13/13/13 
f 10/10/10/10 13/13/13/13 11/11/11/11 
f 12/12/12/12 14/14/14/14 15/15/15/15 
f 12/12/12/12 15/15/15/15 13/13/13/13 
f 14/14/14/14 16/16/16/16 17/17/17/17 
f 14/14/14/14 17/17/17/17 15/15/15/15 
f 16/16/16/16 18/18/18/18 19/19/19/19 
f 16/16/16/16 19/19/19/19 17/17/17/17 
f 18/18/18/18 20/20/20/20 21/21/21/21 
f 18/18/18/18 21/21/21/21 19/19/19/19 
f 20/20/20/20 22/22/22/22 23/23/23/23 
f 20/20/20/20 23/23/23/23 21/21/21/21 
f 22/22/22/22 0/24/0/0 3/25/3/24 
f 22/22/22/22 3/25/3/24 23/23/23/23 
f 1/2/1/1 0/3/0/0 24/0/24/25 
f 1/2/1/1 24/0/24/25 25/1/25/26 
f 25/1/25/26 26/4/26/27 4/5/4/4 
f 25/1/25/26 4/5/4/4 1/2/1/1 
f 26/4/26/27 27/6/27/28 6/7/6/6 
f 26/4/26/27 6/7/6/6 4/5/4/4 
f 27/6/27/28 28/8/28/29 8/9/8/8 
f 27/6/27/28 8/9/8/8 6/7/6/6 
f 28/8/28/29 29/10/29/30 10/11/10/10 
f 28/8/28/29 10/11/10/10 8/9/8/8 
f 29/10/29/30 30/12/30/31 12/13/12/12 
f 29/10/29/30 12/13/12/12 10/11/10/10 
f 30/12/30/31 31/14/31/32 14/15/14/14 
f 30/12/30/31 14/15/14/14 12/13/12/12 
f 31/14/31/32 32/16/32/33 16/17/16/16 
f 31/14/31/32 16/17/16/16 14/15/14/14 
f 32/16/32/33 33/18/33/34 18/19/18/18 
f 32/16/32/33 18/19/18/18 16/17/16/16 
f 33/18/33/34 34/20/34/35 20/21/20/20 
f 33/18/33/34 20/21/20/20 18/19/18/18 
f 34/20/34/35 35/22/35/36 22/23/22/22 
f 34/20/34/35 22/23/22/22 20/21/20/20 
f 0/25/0/0 22/23/22/22 35/22/35/36 
f 0/25/0/0 35/22/35/36 24/24/24/25 
f 36/0/36/37 37/1/37/38 25/2/25/39 
f 36/0/36/37 25/2/25/39 24/3/24/25 
f 37/1/37/38 38/4/38/40 26/5/26/27 
f 37/1/37/38 26/5/26/27 25/2/25/39 
f 38/4/38/40 39/6/39/41 27/7/27/28 
f 38/4/38/40 27/7/27/28 26/5/26/27 
f 39/6/39/41 40/8/40/42 28/9/28/43 
f 39/6/39/41 28/9/28/43 27/7/27/28 
f 40/8/40/42 41/10/41/44 29/11/29/45 
f 40/8/40/42 29/11/29/45 28/9/28/43 
f 41/10/41/44 42/12/42/46 30/13/30/31 
f 41/10/41/44 30/13/30/31 29/11/29/45 
f 42/12/42/46 43/14/43/47 31/15/31/32 
f 42/12/42/46 31/15/31/32 30/13/30/31 
f 43/14/43/47 44/16/44/48 32/17/32/33 
f 43/14/43/47 32/17/32/33 31/15/31/32 
f 44/16/44/48 45/18/45/49 33/19/33/34 
f 44/16/44/48 33/19/33/34 32/17/32/33 
f 45/18/45/49 46/20/46/50 34/21/34/35 
f 45/18/45/49 34/21/34/35 33/19/33/34 
f 46/20/46/50 47/22/47/51 35/23/35/36 
f 46/20/46/50 35/23/35/36 34/21/34/35 
f 47/22/47/51 36/24/36/52 24/25/24/25 
f 47/22/47/51 24/25/24/25 35/23/35/36 
f 48/26/48/53 49/27/49/54 37/2/37/55 
f 48/26/48/53 37/2/37/55 36/3/36/37 
f 49/27/49/54 50/28/50/56 38/5/38/40 
f 49/27/49/54 38/5/38/40 37/2/37/55 
f 50/28/50/56 51/29/51/57 39/7/39/58 
f 50/28/50/56 39/7/39/58 38/5/38/40 
f 51/29/51/57 52/30/52/59 40/9/40/42 
f 51/29/51/57 40/9/40/42 39/7/39/58 
f 52/30/52/59 53/31/53/60 41/11/41/44 
f 52/30/52/59 41/11/41/44 40/9/40/42 
f 53/31/53/60 54/32/54/61 42/13/42/62 
f 53/31/53/60 42/13/42/62 41/11/41/44 
f 54/32/54/61 55/33/55/63 43/15/43/47 
f 54/32/54/61 43/15/43/47 42/13/42/62 
f 55/33/55/63 56/34/56/64 44/17/44/65 
f 55/33/55/63 44/17/44/65 43/15/43/47 
f 56/34/56/64 57/35/57/66 45/19/45/67 
f 56/34/56/64 45/19/45/67 44/17/44/65 
f 57/35/57/66 58/36/58/68 46/21/46/50 
f 57/35/57/66 46/21/46/50 45/19/45/67 
f 58/36/58/68 59/37/59/69 47/23/47/70 
f 58/36/58/68 47/23/47/70 46/21/46/50 
f 59/37/59/69 48/38/48/71 36/25/36/52 
f 59/37/59/69 36/25/36/52 47/23/47/70 
f 60/2/60/72 61/1/61/73 62/0/62/25 
f 60/2/60/72 62/0/62/25 63/3/63/74 
f 64/5/64/75 65/4/65/27 61/1/61/73 
f 64/5/64/75 61/1/61/73 60/2/60/72 
f 66/7/66/76 67/6/67/77 65/4/65/27 
f 66/7/66/76 65/4/65/27 64/5/64/75 
f 68/9/68/78 69/8/69/79 67/6/67/77 
f 68/9/68/78 67/6/67/77 66/7/66/76 
f 70/11/70/80 71/10/71/81 69/8/69/79 
f 70/11/70/80 69/8/69/79 68/9/68/78 
f 72/13/72/82 73/12/73/31 71/10/71/81 
f 72/13/72/82 71/10/71/81 70/11/70/80 
f 74/15/74/83 75/14/75/84 73/12/73/31 
f 74/15/74/83 73/12/73/31 72/13/72/82 
f 76/17/76/85 77/16/77/86 75/14/75/84 
f 76/17/76/85 75/14/75/84 74/15/74/83 
f 78/19/78/87 79/18/79/88 77/16/77/86 
f 78/19/78/87 77/16/77/86 76/17/76/85 
f 80/21/80/89 81/20/81/90 79/18/79/88 
f 80/21/80/89 79/18/79/88 78/19/78/87 
f 82/23/82/91 83/22/83/92 81/20/81/90 
f 82/23/82/91 81/20/81/90 80/21/80/89 
f 63/25/63/93 62/24/62/25 83/22/83/92 
f 63/25/63/93 83/22/83/92 82/23/82/91 
f 61/2/61/73 84/1/25/39 85/0/84/25 
f 61/2/61/73 85/0/84/25 62/3/62/25 
f 65/5/65/94 86/4/85/95 84/1/25/39 
f 65/5/65/94 84/1/25/39 61/2/61/73 
f 67/7/67/77 87/6/86/96 86/4/85/95 
f 67/7/67/77 86/4/85/95 65/5/65/94 
f 69/9/69/79 88/8/87/97 87/6/86/96 
f 69/9/69/79 87/6/86/96 67/7/67/77 
f 71/11/71/81 89/10/88/98 88/8/87/97 
f 71/11/71/81 88/8/87/97 69/9/69/79 
f 73/13/73/31 90/12/89/99 89/10/88/98 
f 73/13/73/31 89/10/88/98 71/11/71/81 
f 75/15/75/84 91/14/55/63 90/12/89/99 
f 75/15/75/84 90/12/89/99 73/13/73/31 
f 77/17/77/86 92/16/32/33 91/14/55/63 
f 77/17/77/86 91/14/55/63 75/15/75/84 
f 79/19/79/88 93/18/90/88 92/16/32/33 
f 79/19/79/88 92/16/32/33 77/17/77/86 
f 81/21/81/90 94/20/91/100 93/18/90/88 
f 81/21/81/90 93/18/90/88 79/19/79/88 
f 83/23/83/92 95/22/92/101 94/20/91/100 
f 83/23/83/92 94/20/91/100 81/21/81/90 
f 62/25/62/25 85/24/84/25 95/22/92/101 
f 62/25/62/25 95/22/92/101 83/23/83/92 
f 84/2/25/39 96/1/93/102 97/0/94/37 
f 84/2/25/39 97/0/94/37 85/3/84/25 
f 86/5/85/103 98/4/95/104 96/1/93/102 
f 86/5/85/103 96/1/93/102 84/2/25/39 
f 87/7/86/96 99/6/96/105 98/4/95/104 
f 87/7/86/96 98/4/95/104 86/5/85/103 
f 88/9/87/106 100/8/97/107 99/6/96/105 
f 88/9/87/106 99/6/96/105 87/7/86/96 
f 89/11/88/108 101/10/41/44 100/8/97/107 
f 89/11/88/108 100/8/97/107 88/9/87/106 
f 90/13/89/109 102/12/98/46 101/10/41/44 
f 90/13/89/109 101/10/41/44 89/11/88/108 
f 91/15/55/63 103/14/43/47 102/12/98/46 
f 91/15/55/63 102/12/98/46 90/13/89/109 
f 92/17/32/110 104/16/99/111 103/14/43/47 
f 92/17/32/110 103/14/43/47 91/15/55/63 
f 93/19/90/88 105/18/100/112 104/16/99/111 
f 93/19/90/88 104/16/99/111 92/17/32/110 
f 94/21/91/100 106/20/101/113 105/18/100/112 
f 94/21/91/100 105/18/100/112 93/19/90/88 
f 95/23/92/114 107/22/47/51 106/20/101/113 
f 95/23/92/114 106/20/101/113 94/21/91/100 
f 85/25/84/25 97/24/94/52 107/22/47/51 
f 85/25/84/25 107/22/47/51 95/23/92/114 
f 96/2/93/115 49/27/49/54 48/26/48/53 
f 96/2/93/115 48/26/48/53 97/3/94/37 
f 98/5/95/104 50/28/50/56 49/27/49/54 
f 98/5/95/104 49/27/49/54 96/2/93/115 
f 99/7/96/105 51/29/51/57 50/28/50/56 
f 99/7/96/105 50/28/50/56 98/5/95/104 
f 100/9/97/116 52/30/52/59 51/29/51/57 
f 100/9/97/116 51/29/51/57 99/7/96/105 
f 101/11/41/44 53/31/53/60 52/30/52/59 
f 101/11/41/44 52/30/52/59 100/9/97/116 
f 102/13/98/62 54/32/54/61 53/31/53/60 
f 102/13/98/62 53/31/53/60 101/11/41/44 
f 103/15/43/47 55/33/55/63 54/32/54/61 
f 103/15/43/47 54/32/54/61 102/13/98/62 
f 104/17/99/111 56/34/56/64 55/33/55/63 
f 104/17/99/111 55/33/55/63 103/15/43/47 
f 105/19/100/112 57/35/57/66 56/34/56/64 
f 105/19/100/112 56/34/56/64 104/17/99/111 
f 106/21/101/113 58/36/58/68 57/35/57/66 
f 106/21/101/113 57/35/57/66 105/19/100/112 
f 107/23/47/70 59/37/59/69 58/36/58/68 
f 107/23/47/70 58/36/58/68 106/21/101/113 
f 97/25/94/52 48/38/48/71 59/37/59/69 
f 97/25/94/52 59/37/59/69 107/23/47/70 
