v 327.8868 665.9816 201.2621
v 326.5635 665.9816 201.2621
v 324.8356 666.7592 201.2621
v 329.8211 666.7592 201.2621
v 331.3829 670.5941 201.2621
v 321.4204 670.5941 201.2621
v 322.4598 672.3748 201.2621
v 330.9562 672.3748 201.2621
v 324.4015 674.1555 201.2621
v 329.4255 674.1555 201.2621
v 323.8651 668.2844 201.2621
v 331.0985 668.5825 201.2621
v 320.1019 661.1245 201.2621
v 317.2388 662.7213 201.2621
v 330.9562 672.3748 208.1385
v 331.3829 670.5941 208.1385
v 329.4255 674.1555 208.1385
v 324.8356 666.7592 208.1385
v 323.8651 668.2844 208.1385
v 331.0985 668.5825 208.1385
v 329.8211 666.7592 208.1385
v 320.1019 661.1245 208.1385
v 317.2388 662.7213 208.1385
v 327.8868 665.9816 208.1385
v 326.5635 665.9816 208.1385
v 322.4598 672.3748 208.1385
v 321.4204 670.5941 208.1385
v 324.4015 674.1555 208.1385
vt 0.2029 0.2838
vt 0.1992 0.2736
vt 0.1884 0.2623
vt 0.2022 0.301
vt 0.1768 0.3237
vt 0.1492 0.2465
vt 0.1382 0.2595
vt 0.1618 0.3254
vt 0.1298 0.2795
vt 0.1437 0.3184
vt 0.1739 0.259
vt 0.1916 0.316
vt 0.219 0.21
vt 0.1986 0.1922
vt 0.0673 0.6159
vt 0.1206 0.615
vt 0.1204 0.6012
vt 0.067 0.602
vt 0.1208 0.6289
vt 0.0675 0.6297
vt 0.1194 0.5328
vt 0.1192 0.5209
vt 0.0658 0.5218
vt 0.066 0.5336
vt 0.0668 0.5864
vt 0.1202 0.5856
vt 0.12 0.5715
vt 0.0666 0.5723
vt 0.1183 0.4654
vt 0.0649 0.4662
vt 0.118 0.4431
vt 0.0646 0.444
vt 0.1533 0.3311
vt 0.1385 0.3399
vt 0.1791 0.3335
vt 0.164 0.3294
vt 0.2056 0.3762
vt 0.2118 0.3603
vt 0.1307 0.3731
vt 0.1365 0.387
vt 0.1921 0.3931
vt 0.1512 0.3996
vt 0.1889 0.3447
vt 0.1305 0.3564
vt 0.2357 0.2909
vt 0.2104 0.2816
vt 0.0662 0.547
vt 0.0664 0.5573
vt 0.1197 0.5564
vt 0.1196 0.5462
vn 0.1416 -0.7317 -0.6667
vn -0.1571 -0.7321 -0.6628
vn -0.4985 -0.5759 -0.6479
vn 0.4734 -0.5964 -0.6483
vn 0.7439 0.0353 -0.6674
vn 0.0 0.0 -1.0
vn 0.6706 0.3429 -0.6578
vn 0.4301 0.3697 -0.8236
vn 0.0119 -0.288 -0.9575
vn 0.7003 -0.2763 -0.6582
vn 0.233 -0.7835 -0.5761
vn -0.3422 -0.6135 -0.7117
vn 0.6706 0.3429 0.6578
vn 0.7439 0.0353 0.6674
vn 0.4301 0.3697 0.8236
vn -0.4985 -0.5759 0.6479
vn 0.0119 -0.288 0.9575
vn 0.7003 -0.2763 0.6582
vn 0.4734 -0.5963 0.6483
vn 0.233 -0.7835 0.5761
vn -0.3422 -0.6135 0.7117
vn 0.1416 -0.7317 0.6667
vn -0.1571 -0.7321 0.6628
vn 0.0 0.0 1.0
vtan 0.3471 -0.5941 0.7257 -1.0
vtan 0.5492 -0.6226 0.5575 -1.0
vtan 0.5641 -0.783 0.2619 -1.0
vtan -0.005 -0.7378 0.675 -1.0
vtan 0.1794 -0.9725 0.1486 -1.0
vtan 0.3381 -0.9411 0.0 -1.0
vtan 0.3375 -0.9413 0.0 -1.0
vtan 0.4047 -0.9123 -0.0629 -1.0
vtan 0.3362 -0.9418 0.0 -1.0
vtan 0.4298 -0.8861 -0.1734 -1.0
vtan 0.3479 -0.8966 0.2741 -1.0
vtan -0.0144 -0.9274 0.3739 -1.0
vtan 0.2519 -0.5235 0.8139 -1.0
vtan 0.5582 -0.742 0.3713 -1.0
vtan 0.5749 0.3201 0.753 -1.0
vtan -0.5971 -0.2767 0.753 -1.0
vtan -0.6675 -0.0105 0.7445 -1.0
vtan 0.6655 0.0517 0.7446 -1.0
vtan -0.6486 -0.508 0.5668 -1.0
vtan 0.6014 0.563 0.5669 -1.0
vtan 0.441 0.475 0.7615 -1.0
vtan -0.0056 0.9576 0.2881 -1.0
vtan 0.0723 -0.9549 0.2881 -1.0
vtan -0.4077 -0.5039 0.7615 -1.0
vtan 0.6201 -0.2214 0.7527 -1.0
vtan -0.6042 0.2617 0.7527 -1.0
vtan -0.3852 0.5217 0.7612 -1.0
vtan 0.42 -0.4941 0.7612 -1.0
vtan -0.1499 0.5563 0.8173 -1.0
vtan 0.1788 -0.5478 0.8173 -1.0
vtan 0.3688 0.6089 0.7023 -1.0
vtan -0.3225 -0.6347 0.7023 -1.0
vtan -0.9841 -0.0308 0.1751 -1.0
vtan -0.8724 -0.2158 0.4385 -1.0
vtan -0.8599 0.4234 -0.2852 -1.0
vtan -0.9821 0.1862 -0.0271 -1.0
vtan -0.9879 0.1551 0.0 -1.0
vtan -0.9877 0.1565 0.0 -1.0
vtan -0.6509 0.265 0.7115 -1.0
vtan -0.7306 0.4591 0.5055 -1.0
vtan -0.9879 0.1551 0.0 -1.0
vtan -0.8921 0.3137 0.3251 -1.0
vtan -0.9886 0.1404 0.0545 -1.0
vtan -0.6976 -0.0696 0.7131 -1.0
vtan -0.9326 0.3145 -0.1773 -1.0
vtan -0.9677 -0.1281 0.2172 -1.0
vtan -0.118 -0.6524 0.7486 -1.0
vtan 0.1482 -0.6503 0.7451 -1.0
vtan -0.105 0.6586 0.7451 -1.0
vtan 0.1592 0.6436 0.7486 -1.0
f 0/0/0/0 1/1/1/1 2/2/2/2 
f 0/0/0/0 2/2/2/2 3/3/3/3 
f 4/4/4/4 5/5/5/5 6/6/5/6 
f 4/4/4/4 6/6/5/6 7/7/6/7 
f 7/7/6/7 6/6/5/6 8/8/5/8 
f 7/7/6/7 8/8/5/8 9/9/7/9 
f 10/10/8/10 5/5/5/5 4/4/4/4 
f 10/10/8/10 4/4/4/4 11/11/9/11 
f 3/3/3/3 2/2/2/2 10/10/8/10 
f 3/3/3/3 10/10/8/10 11/11/9/11 
f 10/10/8/10 12/12/10/12 13/13/11/13 
f 10/10/8/10 13/13/11/13 5/5/5/5 
f 7/14/6/14 14/15/12/15 15/16/13/16 
f 7/14/6/14 15/16/13/16 4/17/4/17 
f 16/18/14/18 14/15/12/15 7/14/6/14 
f 16/18/14/18 7/14/6/14 9/19/7/19 
f 17/20/15/20 18/21/16/21 10/22/8/22 
f 17/20/15/20 10/22/8/22 2/23/2/23 
f 11/24/9/24 19/25/17/25 20/26/18/26 
f 11/24/9/24 20/26/18/26 3/27/3/27 
f 10/22/8/22 18/21/16/21 21/28/19/28 
f 10/22/8/22 21/28/19/28 12/29/10/29 
f 12/29/10/29 21/28/19/28 22/30/20/30 
f 12/29/10/29 22/30/20/30 13/31/11/31 
f 23/32/21/32 20/33/18/33 17/34/15/34 
f 23/32/21/32 17/34/15/34 24/35/22/35 
f 25/36/23/36 26/37/23/37 15/38/13/38 
f 25/36/23/36 15/38/13/38 14/39/12/39 
f 27/40/23/40 25/36/23/36 14/39/12/39 
f 27/40/23/40 14/39/12/39 16/41/14/41 
f 15/38/13/38 26/37/23/37 18/42/16/42 
f 15/38/13/38 18/42/16/42 19/43/17/43 
f 20/33/18/33 19/43/17/43 18/42/16/42 
f 20/33/18/33 18/42/16/42 17/34/15/34 
f 18/42/16/42 26/37/23/37 22/44/20/44 
f 18/42/16/42 22/44/20/44 21/45/19/45 
f 1/46/1/46 0/47/0/47 23/48/21/48 
f 1/46/1/46 23/48/21/48 24/49/22/49 
f 0/47/0/47 3/27/3/27 20/26/18/26 
f 0/47/0/47 20/26/18/26 23/48/21/48 
f 15/16/13/16 19/25/17/25 11/24/9/24 
f 15/16/13/16 11/24/9/24 4/17/4/17 
f 24/49/22/49 17/20/15/20 2/23/2/23 
f 24/49/22/49 2/23/2/23 1/46/1/46 
