v 145.7639 664.2318 569.3783
v 146.3957 670.6962 568.5564
v 146.3957 670.6962 575.4881
v 145.7639 664.2318 575.4881
v 99.2739 670.6962 567.8701
v 145.8371 670.6962 567.8701
v 145.1679 664.2318 568.6463
v 99.9431 664.2318 568.6463
v 94.4391 686.5964 561.9177
v 94.4677 690.9595 561.9177
v 150.643 690.9595 561.9177
v 150.6718 686.5964 561.9177
v 93.8691 686.5964 575.4881
v 93.8691 690.9595 575.4881
v 93.8691 690.9595 562.6531
v 93.8691 686.5964 562.6179
v 145.3002 660.3631 569.9615
v 147.0881 662.2974 567.8378
v 147.0881 662.2974 575.4881
v 145.3002 660.3631 575.4881
v 98.6889 662.2974 567.0197
v 146.4221 662.2974 567.0197
v 144.6931 660.3631 569.2157
v 100.4177 660.3631 569.2157
v 151.2416 690.9595 562.6531
v 152.9072 693.1411 560.6855
v 152.9072 693.141 575.4881
v 151.2416 690.9595 575.4881
v 92.8659 693.1411 559.8723
v 152.2448 693.1411 559.8723
v 151.2416 695.3226 562.7309
v 151.2416 695.3226 575.4881
v 94.5312 695.3226 561.9177
v 150.5798 695.3226 561.9177
v 148.5356 679.6952 565.9556
v 151.2416 686.5964 562.6179
v 151.2416 686.5964 575.4881
v 148.5356 679.6952 575.4881
v 147.9543 679.6952 565.2417
v 97.1564 679.6952 565.2417
v 99.3471 664.2318 569.3783
v 98.715 670.6962 568.5564
v 98.0229 662.2974 567.8378
v 99.8107 660.3631 569.9615
v 92.204 693.1411 560.6855
v 93.8691 695.3226 562.7309
v 96.5751 679.6952 565.9556
v 93.8691 695.3226 575.4881
v 98.715 670.6962 575.4881
v 99.3471 664.2318 575.4881
v 98.0226 662.2974 575.4881
v 99.8105 660.3631 575.4881
v 92.204 693.141 575.4881
v 96.5754 679.6952 575.4881
gi 0 0 0 0
gi 0 0 0 0
gi 0 0 0 0
gi 0 0 0 0
gi 0 0 0 0
gi 0 0 0 0
gi 0 0 0 0
gi 0 0 0 0
gi 0 0 0 0
gi 0 0 0 0
gi 0 0 0 0
gi 0 0 0 0
gi 0 0 0 0
gi 0 0 0 0
gi 0 0 0 0
gi 0 0 0 0
gi 0 0 0 0
gi 0 0 0 0
gi 0 0 0 0
gi 0 0 0 0
gi 0 0 0 0
gi 0 0 0 0
gi 0 0 0 0
gi 0 0 0 0
gi 0 0 0 0
gi 0 0 0 0
gi 0 0 0 0
gi 0 0 0 0
gi 0 0 0 0
gi 0 0 0 0
gi 0 0 0 0
gi 0 0 0 0
gi 0 0 0 0
gi 0 0 0 0
gi 0 0 0 0
gi 0 0 0 0
gi 0 0 0 0
gi 0 0 0 0
gi 0 0 0 0
gi 0 0 0 0
gi 0 0 0 0
gi 0 0 0 0
gi 0 0 0 0
gi 0 0 0 0
gi 0 0 0 0
gi 0 0 0 0
gi 0 0 0 0
gi 0 0 0 0
gi 0 0 0 0
gi 0 0 0 0
gi 0 0 0 0
gi 0 0 0 0
gi 0 0 0 0
gi 0 0 0 0
gw 0.0 0.0 0.0 0.0
gw 0.0 0.0 0.0 0.0
gw 0.0 0.0 0.0 0.0
gw 0.0 0.0 0.0 0.0
gw 0.0 0.0 0.0 0.0
gw 0.0 0.0 0.0 0.0
gw 0.0 0.0 0.0 0.0
gw 0.0 0.0 0.0 0.0
gw 0.0 0.0 0.0 0.0
gw 0.0 0.0 0.0 0.0
gw 0.0 0.0 0.0 0.0
gw 0.0 0.0 0.0 0.0
gw 0.0 0.0 0.0 0.0
gw 0.0 0.0 0.0 0.0
gw 0.0 0.0 0.0 0.0
gw 0.0 0.0 0.0 0.0
gw 0.0 0.0 0.0 0.0
gw 0.0 0.0 0.0 0.0
gw 0.0 0.0 0.0 0.0
gw 0.0 0.0 0.0 0.0
gw 0.0 0.0 0.0 0.0
gw 0.0 0.0 0.0 0.0
gw 0.0 0.0 0.0 0.0
gw 0.0 0.0 0.0 0.0
gw 0.0 0.0 0.0 0.0
gw 0.0 0.0 0.0 0.0
gw 0.0 0.0 0.0 0.0
gw 0.0 0.0 0.0 0.0
gw 0.0 0.0 0.0 0.0
gw 0.0 0.0 0.0 0.0
gw 0.0 0.0 0.0 0.0
gw 0.0 0.0 0.0 0.0
gw 0.0 0.0 0.0 0.0
gw 0.0 0.0 0.0 0.0
gw 0.0 0.0 0.0 0.0
gw 0.0 0.0 0.0 0.0
gw 0.0 0.0 0.0 0.0
gw 0.0 0.0 0.0 0.0
gw 0.0 0.0 0.0 0.0
gw 0.0 0.0 0.0 0.0
gw 0.0 0.0 0.0 0.0
gw 0.0 0.0 0.0 0.0
gw 0.0 0.0 0.0 0.0
gw 0.0 0.0 0.0 0.0
gw 0.0 0.0 0.0 0.0
gw 0.0 0.0 0.0 0.0
gw 0.0 0.0 0.0 0.0
gw 0.0 0.0 0.0 0.0
gw 0.0 0.0 0.0 0.0
gw 0.0 0.0 0.0 0.0
gw 0.0 0.0 0.0 0.0
gw 0.0 0.0 0.0 0.0
gw 0.0 0.0 0.0 0.0
gw 0.0 0.0 0.0 0.0
vt 0.2773 0.6742
vt 0.2773 0.6911
vt 0.4476 0.6911
vt 0.4476 0.6742
vt 0.4453 0.6933
vt 0.2795 0.6933
vt 0.5504 0.8881
vt 0.5526 0.9084
vt 0.5337 0.9084
vt 0.5337 0.8881
vt 0.7614 0.91
vt 0.6053 0.91
vt 0.6076 0.8897
vt 0.7592 0.8897
vt 0.7776 0.96
vt 0.7775 0.9737
vt 0.5892 0.9737
vt 0.5891 0.96
vt 0.8287 0.9596
vt 0.8287 0.9733
vt 0.7937 0.9733
vt 0.7936 0.9596
vt 0.9865 0.7672
vt 0.9959 0.7791
vt 0.9632 0.7791
vt 0.9619 0.7672
vt 0.2524 0.779
vt 0.0111 0.779
vt 0.0112 0.7672
vt 0.2525 0.7672
vt 0.5337 0.882
vt 0.5546 0.882
vt 0.6034 0.8836
vt 0.7634 0.8836
vt 0.5687 0.9721
vt 0.5741 0.979
vt 0.5337 0.979
vt 0.5337 0.9721
vt 0.7829 0.9806
vt 0.5839 0.9806
vt 0.5685 0.9859
vt 0.5337 0.9859
vt 0.7773 0.9875
vt 0.5894 0.9875
vt 0.5597 0.9367
vt 0.5688 0.9584
vt 0.5337 0.9584
vt 0.5337 0.9367
vt 0.5982 0.9383
vt 0.7685 0.9383
vt 0.6028 0.9094
vt 0.605 0.8907
vt 0.8095 0.8902
vt 0.8121 0.8892
vt 0.8098 0.9096
vt 0.8073 0.909
vt 0.5867 0.9726
vt 0.5865 0.9593
vt 0.7912 0.9721
vt 0.791 0.9589
vt 0.6007 0.8862
vt 0.8052 0.8857
vt 0.8079 0.8832
vt 0.0078 0.7789
vt 0.0079 0.7672
vt 0.2559 0.779
vt 0.2558 0.7672
vt 0.5815 0.9806
vt 0.7884 0.9801
vt 0.786 0.9801
vt 0.5871 0.99
vt 0.7939 0.987
vt 0.7916 0.9896
vt 0.5957 0.9372
vt 0.8002 0.9367
vt 0.8027 0.9379
vt 0.0091 0.8976
vt 0.0091 0.876
vt 0.0109 0.8746
vt 0.1674 0.876
vt 0.1655 0.8746
vt 0.1674 0.8976
vt 0.8287 0.9096
vt 0.8287 0.8892
vt 0.2874 0.779
vt 0.2803 0.7672
vt 0.8287 0.8832
vt 0.8287 0.9801
vt 0.8287 0.987
vt 0.8287 0.9379
vn 0.0 -1.0 0.0
vn 0.0 -1.0 -0.0001
vn 0.0 -1.0 -0.0
vn 0.9118 0.3115 -0.2677
vn 0.9232 -0.2213 -0.3143
vn 0.9863 -0.1647 0.0
vn 0.9686 0.2488 0.0
vn -0.4078 -0.254 -0.877
vn 0.4079 -0.254 -0.877
vn 0.3713 0.3626 -0.8548
vn -0.3713 0.3626 -0.8548
vn -0.4271 -0.251 -0.8687
vn -0.3557 -0.4619 -0.8125
vn 0.3556 -0.4619 -0.8125
vn 0.4272 -0.251 -0.8686
vn -0.9826 -0.1858 0.0
vn -0.9473 -0.3202 0.0
vn -0.8773 -0.4014 -0.263
vn -0.9078 -0.2349 -0.3475
vn 0.4049 -0.9097 -0.0916
vn 0.9149 -0.0672 -0.3981
vn 0.9973 -0.0728 0.0
vn 0.4009 -0.9161 -0.0
vn -0.4598 -0.0629 -0.8858
vn 0.4598 -0.0629 -0.8858
vn 0.138 -0.924 -0.3567
vn -0.1381 -0.924 -0.3567
vn 0.8773 -0.4014 -0.263
vn 0.9163 0.0033 -0.4005
vn 1.0 -0.0 -0.0
vn 0.9473 -0.3203 0.0
vn -0.4625 0.0025 -0.8866
vn 0.4624 0.0025 -0.8867
vn 0.4484 0.8877 -0.1047
vn 0.4434 0.8963 0.0
vn -0.1562 0.9026 -0.4012
vn 0.1562 0.9026 -0.4011
vn 0.8737 -0.3895 -0.2914
vn 0.9078 -0.2349 -0.3474
vn 0.9826 -0.1858 0.0
vn 0.9543 -0.2989 0.0
vn 0.3736 -0.4407 -0.8162
vn -0.3736 -0.4407 -0.8162
vn -0.9118 0.3115 -0.2677
vn -0.9231 -0.2213 -0.3144
vn -0.9149 -0.0672 -0.3981
vn -0.405 -0.9097 -0.0916
vn -0.9163 0.0033 -0.4004
vn -0.4484 0.8876 -0.1048
vn -0.8737 -0.3895 -0.2913
vn -0.4434 0.8963 0.0
vn -0.9863 -0.1647 0.0
vn -0.9685 0.2488 0.0
vn -0.9973 -0.0728 -0.0
vn -0.4009 -0.9161 -0.0
vn -1.0 -0.0 -0.0
vn -0.9543 -0.2989 0.0
vtan 1.0 0.0 0.0
vtan -0.2533 -0.0865 -0.9635
vtan -0.3057 0.0733 -0.9493
vtan 0.0 0.0 -1.0
vtan -0.9131 0.1135 0.3917
vtan -0.913 -0.1188 -0.3903
vtan -0.9265 0.205 -0.3155
vtan -0.9285 -0.145 0.3418
vtan -0.9042 0.1186 0.4103
vtan -0.9346 0.1758 0.3092
vtan -0.9343 -0.1513 -0.3229
vtan -0.9038 -0.144 -0.4029
vtan 0.0 -0.0 1.0
vtan 0.0 0.0 1.0
vtan -0.2124 -0.1666 0.9629
vtan -0.3211 -0.1438 0.9361
vtan -0.0373 0.0837 -0.9958
vtan -0.397 0.0292 -0.9173
vtan -0.0 0.0 -1.0
vtan -0.8875 -0.0021 0.4609
vtan -0.8877 -0.0086 -0.4602
vtan -0.9225 0.0111 -0.3858
vtan -0.9218 -0.0119 0.3876
vtan -0.397 0.0292 -0.9173
vtan -0.8293 0.3261 -0.4537
vtan -0.888 0.0326 0.4587
vtan -0.2392 0.1095 -0.9648
vtan -0.4005 -0.0014 -0.9163
vtan -0.0 0.0 -1.0
vtan -0.8866 -0.0013 0.4625
vtan -0.8867 -0.0001 -0.4624
vtan -0.0472 -0.0935 -0.9945
vtan 0.0 0.0 -1.0
vtan -0.9877 -0.1427 0.0634
vtan -0.9858 0.1172 -0.1202
vtan -0.2661 0.1186 -0.9566
vtan -0.3363 0.087 -0.9377
vtan -0.9275 -0.19 -0.3219
vtan -0.9276 0.1775 0.3287
vtan -0.3692 -0.2826 -0.8853
vtan -0.4025 0.5486 -0.7328
vtan -0.6673 0.5359 0.5172
vtan -0.2341 0.1414 0.9619
vtan -0.2993 -0.0999 0.9489
vtan -0.8045 -0.3544 0.4767
vtan -0.4489 -0.4923 -0.7458
vtan -0.4114 -0.3385 -0.8463
vtan -0.6287 -0.525 0.5737
vtan -0.7894 -0.365 0.4936
vtan -0.2304 0.7228 -0.6515
vtan -0.5709 0.785 0.2406
vtan -0.3982 0.3135 0.8621
vtan -0.4008 -0.0333 -0.9155
vtan -0.5663 -0.1708 -0.8063
vtan -0.3992 0.0031 0.9169
vtan -0.2536 0.0155 0.9672
vtan -0.4004 0.0329 -0.9158
vtan -0.4003 0.0128 0.9163
vtan -0.8866 0.0011 0.4625
vtan -0.8828 0.4215 -0.2071
vtan 0.0233 0.1288 0.9914
vtan -0.1319 0.3835 0.9141
vtan -0.4662 -0.4998 -0.7299
vtan -0.6069 -0.5493 0.5743
vtan -0.2342 -0.1881 0.9538
vtan -0.8963 0.4434 0.0004
vtan -0.8936 0.4479 -0.0297
vtan -0.9877 0.1448 -0.0588
vtan -0.8938 -0.4453 0.0526
vtan -0.8963 -0.4434 0.0
vtan -0.0 0.0 1.0
vtan -0.0 -0.0 1.0
vtan -0.0 -0.0 1.0
vtan -0.0 -0.0 1.0
vtan 0.0 -0.0 1.0
f 51/0/0/0 43/1/0/0 16/2/0/0 
f 51/0/0/0 16/2/0/0 19/3/0/0 
f 22/4/1/0 16/2/1/0 43/1/1/0 
f 22/4/2/0 43/1/2/0 23/5/2/0 
f 0/6/3/1 1/7/4/2 2/8/5/3 
f 0/6/3/1 2/8/5/3 3/9/6/3 
f 4/10/7/4 5/11/8/5 6/12/9/6 
f 4/10/7/4 6/12/9/6 7/13/10/7 
f 8/14/11/8 9/15/12/9 10/16/13/10 
f 8/14/11/8 10/16/13/10 11/17/14/11 
f 12/18/15/12 13/19/16/13 14/20/17/14 
f 12/18/15/12 14/20/17/14 15/21/18/15 
f 16/22/19/16 17/23/20/17 18/24/21/3 
f 16/22/19/16 18/24/21/3 19/25/22/18 
f 20/26/23/19 21/27/24/20 22/28/25/21 
f 20/26/23/19 22/28/25/21 23/29/26/22 
f 0/6/3/1 3/9/6/3 18/30/21/3 
f 0/6/3/1 18/30/21/3 17/31/20/23 
f 7/13/10/7 6/12/9/6 21/32/24/24 
f 7/13/10/7 21/32/24/24 20/33/23/25 
f 24/34/27/26 25/35/28/27 26/36/29/28 
f 24/34/27/26 26/36/29/28 27/37/30/3 
f 28/38/31/29 29/39/32/30 10/16/13/10 
f 28/38/31/29 10/16/13/10 9/15/12/9 
f 30/40/33/31 31/41/34/32 26/36/29/28 
f 30/40/33/31 26/36/29/28 25/35/28/27 
f 32/42/35/33 33/43/36/34 29/39/32/30 
f 32/42/35/33 29/39/32/30 28/38/31/29 
f 34/44/37/35 35/45/38/36 36/46/39/3 
f 34/44/37/35 36/46/39/3 37/47/40/3 
f 8/14/11/8 11/17/14/11 38/48/41/37 
f 8/14/11/8 38/48/41/37 39/49/42/38 
f 1/7/4/2 34/44/37/35 37/47/40/3 
f 1/7/4/2 37/47/40/3 2/8/5/3 
f 39/49/42/38 38/48/41/37 5/11/8/5 
f 39/49/42/38 5/11/8/5 4/10/7/4 
f 1/50/4/39 0/51/3/40 6/12/9/6 
f 1/50/4/39 6/12/9/6 5/11/8/5 
f 7/52/10/41 40/53/43/42 41/54/44/43 
f 7/52/10/41 41/54/44/43 4/55/7/44 
f 11/17/14/11 10/16/13/10 24/56/27/45 
f 11/17/14/11 24/56/27/45 35/57/38/46 
f 15/21/18/15 14/20/17/14 9/58/12/47 
f 15/21/18/15 9/58/12/47 8/59/11/48 
f 6/12/9/6 0/51/3/40 17/60/20/49 
f 6/12/9/6 17/60/20/49 21/32/24/24 
f 7/52/10/41 20/61/23/50 42/62/45/51 
f 7/52/10/41 42/62/45/51 40/53/43/42 
f 17/63/20/52 16/64/19/53 22/28/25/21 
f 17/63/20/52 22/28/25/21 21/27/24/20 
f 42/65/45/54 20/26/23/19 23/29/26/22 
f 42/65/45/54 23/29/26/22 43/66/46/55 
f 10/16/13/10 29/39/32/30 25/67/28/56 
f 10/16/13/10 25/67/28/56 24/56/27/45 
f 9/58/12/47 14/20/17/14 44/68/47/57 
f 9/58/12/47 44/68/47/57 28/69/31/58 
f 25/67/28/56 29/39/32/30 33/43/36/34 
f 25/67/28/56 33/43/36/34 30/70/33/59 
f 44/68/47/57 45/71/48/60 32/72/35/61 
f 44/68/47/57 32/72/35/61 28/69/31/58 
f 38/48/41/37 11/17/14/11 35/57/38/46 
f 38/48/41/37 35/57/38/46 34/73/37/62 
f 39/74/42/63 46/75/49/64 15/21/18/15 
f 39/74/42/63 15/21/18/15 8/59/11/48 
f 5/11/8/5 38/48/41/37 34/73/37/62 
f 5/11/8/5 34/73/37/62 1/50/4/39 
f 4/55/7/44 41/54/44/43 46/75/49/64 
f 4/55/7/44 46/75/49/64 39/74/42/63 
f 31/76/34/65 30/77/33/66 33/78/36/67 
f 31/76/34/65 33/78/36/67 45/79/48/68 
f 33/78/36/67 32/80/35/33 45/79/48/68 
f 47/81/50/69 31/76/34/65 45/79/48/68 
f 48/82/51/13 41/54/44/43 40/53/43/42 
f 48/82/51/13 40/53/43/42 49/83/52/13 
f 36/46/39/3 35/45/38/36 24/34/27/26 
f 36/46/39/3 24/34/27/26 27/37/30/3 
f 50/84/53/70 42/65/45/54 43/66/46/55 
f 50/84/53/70 43/66/46/55 51/85/54/71 
f 50/86/53/72 49/83/52/13 40/53/43/42 
f 50/86/53/72 40/53/43/42 42/62/45/51 
f 52/87/55/73 44/68/47/57 14/20/17/14 
f 52/87/55/73 14/20/17/14 13/19/16/13 
f 52/87/55/73 47/88/50/13 45/71/48/60 
f 52/87/55/73 45/71/48/60 44/68/47/57 
f 12/18/15/12 15/21/18/15 46/75/49/64 
f 12/18/15/12 46/75/49/64 53/89/56/74 
f 53/89/56/74 46/75/49/64 41/54/44/43 
f 53/89/56/74 41/54/44/43 48/82/51/13 
