v 1380.6033 -115.979 -782.5203
v 1380.6033 -115.9792 674.7568
v -1504.4683 -115.9792 674.7568
v -1504.4683 -115.979 -782.5203
v 1380.6034 1271.037 674.757
v -1504.4683 1271.037 674.757
v 1380.6034 1271.0372 -782.5201
v -1504.4683 1271.0372 -782.5201
gi 0 0 0 0
gi 0 0 0 0
gi 0 0 0 0
gi 0 0 0 0
gi 0 0 0 0
gi 0 0 0 0
gi 0 0 0 0
gi 0 0 0 0
gw 0.0 0.0 0.0 0.0
gw 0.0 0.0 0.0 0.0
gw 0.0 0.0 0.0 0.0
gw 0.0 0.0 0.0 0.0
gw 0.0 0.0 0.0 0.0
gw 0.0 0.0 0.0 0.0
gw 0.0 0.0 0.0 0.0
gw 0.0 0.0 0.0 0.0
vt -3.6432 0.0
vt -3.6432 -3.6432
vt -10.8559 -3.6432
vt -10.8559 0.0
vt -0.0 3.5588
vt 7.2127 3.5588
vt 7.2127 -0.0
vt -0.0 0.0
vt -3.6432 3.5588
vt -10.8559 3.5588
vt -14.4991 3.5588
vt -14.4991 0.0
vn 0.5774 -0.5773 -0.5773
vn 0.5774 -0.5773 0.5773
vn -0.5774 -0.5773 0.5773
vn -0.5774 -0.5773 -0.5773
vn 0.7071 -0.0 0.7071
vn -0.7071 -0.0 0.7071
vn 0.7071 0.0 -0.7071
vn -0.7071 0.0 -0.7071
vtan 0.7715 0.1543 0.6172
vtan 0.8165 0.4083 -0.4083
vtan 0.8165 -0.4083 0.4083
vtan 0.7715 -0.1543 -0.6172
vtan -0.7071 -0.0 0.7071
vtan -0.7071 0.0 -0.7071
vtan -0.8165 0.4083 -0.4083
vtan -0.7071 -0.0 0.7071
vtan 0.7071 -0.0 0.7071
vtan 0.7071 0.0 -0.7071
vtan -0.7071 0.0 -0.7071
vtan -0.4082 -0.4082 -0.8165
f 0/0/0/0 1/1/1/1 2/2/2/2 
f 0/0/0/0 2/2/2/2 3/3/3/3 
f 4/4/4/4 5/5/5/5 2/6/2/6 
f 4/4/4/4 2/6/2/6 1/7/1/7 
f 1/7/1/7 0/0/0/0 6/8/6/8 
f 1/7/1/7 6/8/6/8 4/4/4/4 
f 0/0/0/0 3/3/3/3 7/9/7/9 
f 0/0/0/0 7/9/7/9 6/8/6/8 
f 5/10/5/10 7/9/7/9 3/3/3/3 
f 5/10/5/10 3/3/3/3 2/11/2/11 
