v -997.3196 1227.0507 -34.9714
v -995.6609 1222.2382 -34.9714
v -995.6609 1224.2139 -44.5029
v -997.3196 1228.6299 -42.5901
v -999.3352 1247.3555 -52.6448
v -1012.6072 1247.3555 -52.6448
v -1012.6072 1240.2371 -51.6406
v -999.3352 1240.2371 -51.6406
v -997.3203 1247.449 -54.0974
v -995.6609 1247.7582 -58.9021
v -995.6609 1256.4517 -56.6582
v -997.3208 1254.3962 -52.3023
v -995.6609 1238.1194 -57.5425
v -992.1155 1236.494 -62.0725
v -992.1155 1248.0673 -63.7048
v -1012.6072 1236.494 -62.0725
v -1012.6072 1248.0673 -63.7048
v -999.3351 1263.9281 -34.9714
v -1012.6072 1263.9281 -34.9714
v -1012.6072 1262.6868 -41.4849
v -999.3351 1262.6868 -41.4849
v -995.6609 1270.1984 -34.9714
v -995.6609 1268.5176 -43.7912
v -992.1155 1272.993 -45.5613
v -992.1156 1275.0112 -34.9714
v -1012.6072 1272.993 -45.5613
v -1012.6072 1275.0112 -34.9714
v -997.3196 1228.6299 -27.3528
v -995.6609 1224.2139 -25.44
v -999.3351 1240.2371 -18.3023
v -1012.6072 1240.2371 -18.3023
v -1012.6072 1247.3555 -17.2981
v -999.3351 1247.3555 -17.2981
v -997.3209 1254.3962 -17.6406
v -995.6609 1256.4517 -13.2846
v -995.6609 1247.7582 -11.0408
v -997.3203 1247.449 -15.8455
v -992.1156 1236.494 -7.8703
v -995.6609 1238.1194 -12.4004
v -992.1156 1248.0673 -6.2379
v -1012.6072 1236.494 -7.8703
v -1012.6072 1248.0673 -6.2379
v -999.3351 1262.6868 -28.4579
v -1012.6072 1262.6868 -28.4579
v -992.1156 1272.993 -24.3816
v -995.6609 1268.5176 -26.1516
v -1012.6072 1272.993 -24.3816
v -997.3196 1233.1072 -48.9534
v -995.6609 1229.8152 -52.4639
v -997.3196 1239.7448 -53.0127
v -999.3352 1234.1042 -47.89
v -1012.6072 1234.1042 -47.89
v -1012.6072 1229.9674 -42.0108
v -999.3351 1229.9674 -42.0108
v -997.3208 1260.1971 -48.0796
v -995.6609 1263.7107 -51.3744
v -997.3208 1264.0385 -42.0195
v -992.1155 1219.7975 -46.4159
v -992.1155 1226.5232 -55.9746
v -1012.6072 1219.7975 -46.4159
v -1012.6072 1226.5232 -55.9746
v -999.3352 1259.1368 -47.0855
v -1012.6072 1259.1368 -47.0855
v -1012.6072 1253.7759 -50.9877
v -999.3352 1253.7759 -50.9877
v -992.1155 1258.5056 -61.0109
v -992.1155 1267.2214 -54.6665
v -1012.6072 1258.5056 -61.0109
v -1012.6072 1267.2214 -54.6665
v -997.3196 1233.1072 -20.9895
v -997.3196 1239.7449 -16.9302
v -995.6609 1229.8152 -17.479
v -999.3351 1234.1042 -22.0527
v -999.3351 1229.9675 -27.9321
v -1012.6072 1229.9675 -27.9321
v -1012.6072 1234.1042 -22.0527
v -997.3209 1260.1971 -21.8632
v -997.3209 1264.0385 -27.9234
v -995.6609 1263.7107 -18.5684
v -992.1156 1226.5232 -13.9682
v -992.1156 1219.7975 -23.5269
v -1012.6072 1226.5232 -13.9682
v -1012.6072 1219.7975 -23.5269
v -999.3351 1259.1368 -22.8574
v -999.3351 1253.7759 -18.9551
v -1012.6072 1253.7759 -18.9551
v -1012.6072 1259.1368 -22.8574
v -992.1156 1267.2214 -15.2764
v -992.1156 1258.5056 -8.9319
v -1012.6072 1267.2214 -15.2764
v -1012.6072 1258.5056 -8.9319
v -1012.6072 1228.5083 -34.9714
v -999.3351 1228.5083 -34.9714
v -997.3209 1265.3816 -34.9714
v -992.1156 1217.4253 -34.9714
v -1012.6072 1217.4253 -34.9714
gi 0 0 0 0
gw 0.0 0.0 0.0 0.0
gi 0 0 0 0
gw 0.0 0.0 0.0 0.0
gi 0 0 0 0
gw 0.0 0.0 0.0 0.0
gi 0 0 0 0
gw 0.0 0.0 0.0 0.0
gi 0 0 0 0
gw 0.0 0.0 0.0 0.0
gi 0 0 0 0
gw 0.0 0.0 0.0 0.0
gi 0 0 0 0
gw 0.0 0.0 0.0 0.0
gi 0 0 0 0
gw 0.0 0.0 0.0 0.0
gi 0 0 0 0
gw 0.0 0.0 0.0 0.0
gi 0 0 0 0
gw 0.0 0.0 0.0 0.0
gi 0 0 0 0
gw 0.0 0.0 0.0 0.0
gi 0 0 0 0
gw 0.0 0.0 0.0 0.0
gi 0 0 0 0
gw 0.0 0.0 0.0 0.0
gi 0 0 0 0
gw 0.0 0.0 0.0 0.0
gi 0 0 0 0
gw 0.0 0.0 0.0 0.0
gi 0 0 0 0
gw 0.0 0.0 0.0 0.0
gi 0 0 0 0
gw 0.0 0.0 0.0 0.0
gi 0 0 0 0
gw 0.0 0.0 0.0 0.0
gi 0 0 0 0
gw 0.0 0.0 0.0 0.0
gi 0 0 0 0
gw 0.0 0.0 0.0 0.0
gi 0 0 0 0
gw 0.0 0.0 0.0 0.0
gi 0 0 0 0
gw 0.0 0.0 0.0 0.0
gi 0 0 0 0
gw 0.0 0.0 0.0 0.0
gi 0 0 0 0
gw 0.0 0.0 0.0 0.0
gi 0 0 0 0
gw 0.0 0.0 0.0 0.0
gi 0 0 0 0
gw 0.0 0.0 0.0 0.0
gi 0 0 0 0
gw 0.0 0.0 0.0 0.0
gi 0 0 0 0
gw 0.0 0.0 0.0 0.0
gi 0 0 0 0
gw 0.0 0.0 0.0 0.0
gi 0 0 0 0
gw 0.0 0.0 0.0 0.0
gi 0 0 0 0
gw 0.0 0.0 0.0 0.0
gi 0 0 0 0
gw 0.0 0.0 0.0 0.0
gi 0 0 0 0
gw 0.0 0.0 0.0 0.0
gi 0 0 0 0
gw 0.0 0.0 0.0 0.0
gi 0 0 0 0
gw 0.0 0.0 0.0 0.0
gi 0 0 0 0
gw 0.0 0.0 0.0 0.0
gi 0 0 0 0
gw 0.0 0.0 0.0 0.0
gi 0 0 0 0
gw 0.0 0.0 0.0 0.0
gi 0 0 0 0
gw 0.0 0.0 0.0 0.0
gi 0 0 0 0
gw 0.0 0.0 0.0 0.0
gi 0 0 0 0
gw 0.0 0.0 0.0 0.0
gi 0 0 0 0
gw 0.0 0.0 0.0 0.0
gi 0 0 0 0
gw 0.0 0.0 0.0 0.0
gi 0 0 0 0
gw 0.0 0.0 0.0 0.0
gi 0 0 0 0
gw 0.0 0.0 0.0 0.0
gi 0 0 0 0
gw 0.0 0.0 0.0 0.0
gi 0 0 0 0
gw 0.0 0.0 0.0 0.0
gi 0 0 0 0
gw 0.0 0.0 0.0 0.0
gi 0 0 0 0
gw 0.0 0.0 0.0 0.0
gi 0 0 0 0
gw 0.0 0.0 0.0 0.0
gi 0 0 0 0
gw 0.0 0.0 0.0 0.0
gi 0 0 0 0
gw 0.0 0.0 0.0 0.0
gi 0 0 0 0
gw 0.0 0.0 0.0 0.0
gi 0 0 0 0
gw 0.0 0.0 0.0 0.0
gi 0 0 0 0
gw 0.0 0.0 0.0 0.0
gi 0 0 0 0
gw 0.0 0.0 0.0 0.0
gi 0 0 0 0
gw 0.0 0.0 0.0 0.0
gi 0 0 0 0
gw 0.0 0.0 0.0 0.0
gi 0 0 0 0
gw 0.0 0.0 0.0 0.0
gi 0 0 0 0
gw 0.0 0.0 0.0 0.0
gi 0 0 0 0
gw 0.0 0.0 0.0 0.0
gi 0 0 0 0
gw 0.0 0.0 0.0 0.0
gi 0 0 0 0
gw 0.0 0.0 0.0 0.0
gi 0 0 0 0
gw 0.0 0.0 0.0 0.0
gi 0 0 0 0
gw 0.0 0.0 0.0 0.0
gi 0 0 0 0
gw 0.0 0.0 0.0 0.0
gi 0 0 0 0
gw 0.0 0.0 0.0 0.0
gi 0 0 0 0
gw 0.0 0.0 0.0 0.0
gi 0 0 0 0
gw 0.0 0.0 0.0 0.0
gi 0 0 0 0
gw 0.0 0.0 0.0 0.0
gi 0 0 0 0
gw 0.0 0.0 0.0 0.0
gi 0 0 0 0
gw 0.0 0.0 0.0 0.0
gi 0 0 0 0
gw 0.0 0.0 0.0 0.0
gi 0 0 0 0
gw 0.0 0.0 0.0 0.0
gi 0 0 0 0
gw 0.0 0.0 0.0 0.0
gi 0 0 0 0
gw 0.0 0.0 0.0 0.0
gi 0 0 0 0
gw 0.0 0.0 0.0 0.0
gi 0 0 0 0
gw 0.0 0.0 0.0 0.0
gi 0 0 0 0
gw 0.0 0.0 0.0 0.0
gi 0 0 0 0
gw 0.0 0.0 0.0 0.0
gi 0 0 0 0
gw 0.0 0.0 0.0 0.0
gi 0 0 0 0
gw 0.0 0.0 0.0 0.0
gi 0 0 0 0
gw 0.0 0.0 0.0 0.0
gi 0 0 0 0
gw 0.0 0.0 0.0 0.0
gi 0 0 0 0
gw 0.0 0.0 0.0 0.0
gi 0 0 0 0
gw 0.0 0.0 0.0 0.0
gi 0 0 0 0
gw 0.0 0.0 0.0 0.0
gi 0 0 0 0
gw 0.0 0.0 0.0 0.0
gi 0 0 0 0
gw 0.0 0.0 0.0 0.0
gi 0 0 0 0
gw 0.0 0.0 0.0 0.0
gi 0 0 0 0
gw 0.0 0.0 0.0 0.0
gi 0 0 0 0
gw 0.0 0.0 0.0 0.0
gi 0 0 0 0
gw 0.0 0.0 0.0 0.0
gi 0 0 0 0
gw 0.0 0.0 0.0 0.0
gi 0 0 0 0
gw 0.0 0.0 0.0 0.0
gi 0 0 0 0
gw 0.0 0.0 0.0 0.0
vt 0.0033 0.1621
vt 0.0033 0.1878
vt 0.1275 0.1878
vt 0.1275 0.1621
vt 0.4999 0.1451
vt 0.4999 0.0638
vt 0.3758 0.0638
vt 0.3758 0.1451
vt 0.4999 0.1621
vt 0.4999 0.1878
vt 0.6143 0.1878
vt 0.6143 0.1621
vt 0.3758 0.1878
vt 0.3758 0.2169
vt 0.4999 0.2169
vt 0.3758 0.3263
vt 0.4999 0.3263
vt 0.9575 0.1451
vt 0.9575 0.0638
vt 0.8431 0.0638
vt 0.8431 0.1451
vt 0.9575 0.1878
vt 0.8431 0.1878
vt 0.8431 0.2169
vt 0.9575 0.2169
vt 0.8431 0.3263
vt 0.9575 0.3263
vt 0.2516 0.1621
vt 0.2516 0.1878
vt 0.3758 0.1621
vt 0.2516 0.1451
vt 0.2516 0.0638
vt 0.1275 0.0638
vt 0.1275 0.1451
vt 0.7287 0.1621
vt 0.7287 0.1878
vt 0.8431 0.1621
vt 0.1275 0.2169
vt 0.2516 0.2169
vt 0.1275 0.3263
vt 0.2516 0.3263
vt 0.7287 0.1451
vt 0.7287 0.0638
vt 0.6143 0.0638
vt 0.6143 0.1451
vt 0.6143 0.2169
vt 0.7287 0.2169
vt 0.6143 0.3263
vt 0.7287 0.3263
vt 0.0033 0.0638
vt 0.0033 0.1451
vt 0.9575 0.1621
vt 0.0033 0.2169
vt 0.0033 0.3263
vn 0.8221 0.5694 0.0
vn 0.8773 0.4799 0.0
vn 0.8773 0.4404 0.1907
vn 0.8221 0.5225 0.2263
vn 0.3195 -0.053 0.9461
vn 0.0 -0.0562 0.9984
vn 0.0 0.3377 0.9412
vn 0.3203 0.3199 0.8917
vn 0.8212 -0.0321 0.5697
vn 0.8776 -0.0267 0.4786
vn 0.878 -0.2043 0.4329
vn 0.8203 -0.2441 0.5172
vn 0.8773 0.1621 0.4517
vn 0.8455 -0.1804 -0.5027
vn 0.8473 0.0294 -0.5303
vn 0.0 -0.3377 -0.9412
vn 0.0 0.0562 -0.9984
vn 0.3188 -0.9478 -0.0
vn 0.0 -1.0 0.0
vn 0.0 -0.9299 0.3678
vn 0.3188 -0.8814 0.3486
vn 0.878 -0.4787 0.0
vn 0.878 -0.4452 0.1761
vn 0.8491 0.4912 -0.1943
vn 0.8491 0.5282 0.0
vn 0.0 0.9299 -0.3678
vn 0.0 1.0 0.0
vn 0.8221 0.5225 -0.2263
vn 0.8773 0.4403 -0.1907
vn 0.3203 0.3199 -0.8916
vn 0.0 0.3377 -0.9412
vn 0.0 -0.0562 -0.9984
vn 0.3196 -0.053 -0.9461
vn 0.8203 -0.2441 -0.5172
vn 0.878 -0.2043 -0.4329
vn 0.8776 -0.0267 -0.4786
vn 0.8212 -0.0321 -0.5698
vn 0.8455 -0.1804 0.5027
vn 0.8773 0.1621 -0.4517
vn 0.8473 0.0294 0.5303
vn 0.0 -0.3377 0.9412
vn 0.0 0.0562 0.9984
vn 0.3188 -0.8814 -0.3486
vn 0.0 -0.9299 -0.3678
vn 0.8491 0.4912 0.1943
vn 0.878 -0.4452 -0.1761
vn 0.0 0.9299 0.3678
vn 0.8221 0.3895 0.4153
vn 0.8773 0.3283 0.3501
vn 0.8221 0.1923 0.5359
vn 0.3203 0.648 0.691
vn 0.0 0.684 0.7295
vn 0.0 0.9176 0.3975
vn 0.3203 0.8693 0.3765
vn 0.8203 -0.4172 0.3912
vn 0.878 -0.3492 0.3275
vn 0.8203 -0.5318 0.2103
vn 0.8455 -0.49 -0.2123
vn 0.8455 -0.3653 -0.3896
vn 0.0 -0.9176 -0.3975
vn 0.0 -0.684 -0.7295
vn 0.3187 -0.6914 0.6483
vn 0.0 -0.7295 0.684
vn 0.0 -0.4267 0.9044
vn 0.3188 -0.4045 0.8572
vn 0.8491 0.2254 -0.4777
vn 0.8491 0.3853 -0.3613
vn 0.0 0.4267 -0.9044
vn 0.0 0.7295 -0.684
vn 0.8221 0.3895 -0.4153
vn 0.8221 0.1923 -0.5359
vn 0.8773 0.3283 -0.3501
vn 0.3203 0.648 -0.691
vn 0.3203 0.8693 -0.3765
vn 0.0 0.9176 -0.3975
vn 0.0 0.684 -0.7295
vn 0.8203 -0.4172 -0.3912
vn 0.8203 -0.5318 -0.2103
vn 0.878 -0.3492 -0.3275
vn 0.8455 -0.3653 0.3896
vn 0.8455 -0.49 0.2123
vn 0.0 -0.684 0.7295
vn 0.0 -0.9176 0.3975
vn 0.3188 -0.6914 -0.6483
vn 0.3188 -0.4045 -0.8572
vn 0.0 -0.4267 -0.9044
vn 0.0 -0.7295 -0.684
vn 0.8491 0.3853 0.3613
vn 0.8491 0.2254 0.4777
vn 0.0 0.7295 0.684
vn 0.0 0.4268 0.9044
vn 0.0 1.0 -0.0
vn 0.3203 0.9473 -0.0
vn 0.8203 -0.5719 0.0
vn 0.8455 -0.534 0.0
vn 0.0 -1.0 -0.0
vtan -0.0956 0.1381 -0.9858 -1.0
vtan -0.0859 0.157 -0.9839 -1.0
vtan 0.0 0.3975 -0.9176 -1.0
vtan 0.0 0.3975 -0.9176 -1.0
vtan -0.0 0.9984 0.0559 -1.0
vtan 0.0 0.9984 0.0562 -1.0
vtan 0.0 0.9412 -0.3377 -1.0
vtan -0.0 0.9413 -0.3377 -1.0
vtan 0.0 0.9984 0.0562 -1.0
vtan -0.0002 0.9984 0.0562 -1.0
vtan -0.0 0.9044 0.4268 -1.0
vtan -0.0 0.9043 0.4268 -1.0
vtan 0.0 0.9412 -0.3377 -1.0
vtan -0.0 0.9412 -0.3377 -1.0
vtan 0.0009 0.9984 0.0569 -1.0
vtan 0.0 0.9412 -0.3377 -1.0
vtan 0.0 0.9984 0.0562 -1.0
vtan 0.0575 0.0193 0.9982 -1.0
vtan 0.0 0.0 1.0 -1.0
vtan 0.0 0.3678 0.9299 -1.0
vtan 0.0 0.3678 0.9299 -1.0
vtan 0.079 0.1449 0.9863 -1.0
vtan 0.0 0.3678 0.9299 -1.0
vtan 0.0 0.3678 0.9299 -1.0
vtan -0.0844 0.1356 0.9872 -1.0
vtan -0.0 0.3678 0.9299 -1.0
vtan 0.0 -0.0 1.0 -1.0
vtan -0.0859 0.157 0.9839 1.0
vtan -0.0957 0.1381 0.9858 1.0
vtan 0.0 0.3975 0.9176 1.0
vtan -0.0 0.3975 0.9176 1.0
vtan -0.0 0.9412 0.3377 1.0
vtan 0.0 0.9412 0.3377 1.0
vtan 0.0 0.9984 -0.0562 1.0
vtan -0.0 0.9984 -0.0559 1.0
vtan -0.0 0.9043 -0.4268 1.0
vtan -0.0 0.9044 -0.4268 1.0
vtan -0.0002 0.9984 -0.0562 1.0
vtan -0.0 0.9984 -0.0563 1.0
vtan -0.0 0.9412 0.3377 1.0
vtan -0.0 0.9412 0.3377 1.0
vtan 0.0009 0.9984 -0.0569 1.0
vtan 0.0 0.9412 0.3377 1.0
vtan 0.0 0.9984 -0.0562 1.0
vtan -0.0 0.3678 -0.9299 1.0
vtan 0.0 0.3678 -0.9299 1.0
vtan 0.0 -0.0 -1.0 1.0
vtan 0.0575 0.0193 -0.9982 1.0
vtan 0.0 0.3678 -0.9299 1.0
vtan -0.0 0.3678 -0.9299 1.0
vtan 0.079 0.1449 -0.9863 1.0
vtan -0.0844 0.1357 -0.9872 1.0
vtan 0.0 0.3678 -0.9299 1.0
vtan 0.0 0.0 -1.0 1.0
vtan 0.0 0.7295 -0.684 -1.0
vtan 0.0 0.7295 -0.684 -1.0
vtan -0.0 0.9413 -0.3376 -1.0
vtan -0.0 0.7295 -0.684 -1.0
vtan 0.0 0.7295 -0.684 -1.0
vtan -0.0 0.3975 -0.9176 -1.0
vtan -0.0 0.3975 -0.9176 -1.0
vtan 0.0 0.684 0.7295 -1.0
vtan -0.0 0.684 0.7295 -1.0
vtan -0.0 0.3678 0.9299 -1.0
vtan -0.0 0.3975 -0.9176 -1.0
vtan -0.0 0.7295 -0.684 -1.0
vtan 0.0 0.3975 -0.9176 -1.0
vtan 0.0 0.7295 -0.684 -1.0
vtan 0.0 0.684 0.7295 -1.0
vtan 0.0 0.684 0.7295 -1.0
vtan 0.0 0.9044 0.4267 -1.0
vtan -0.0 0.9044 0.4268 -1.0
vtan -0.0 0.9044 0.4267 -1.0
vtan -0.0 0.684 0.7295 -1.0
vtan 0.0 0.9044 0.4267 -1.0
vtan 0.0 0.684 0.7295 -1.0
vtan 0.0 0.7295 0.684 1.0
vtan -0.0 0.9413 0.3377 1.0
vtan -0.0 0.7294 0.684 1.0
vtan 0.0 0.7295 0.684 1.0
vtan 0.0 0.3975 0.9176 1.0
vtan 0.0 0.3975 0.9176 1.0
vtan 0.0 0.7295 0.684 1.0
vtan -0.0 0.684 -0.7295 1.0
vtan -0.0 0.3678 -0.9299 1.0
vtan -0.0 0.684 -0.7294 1.0
vtan 0.0 0.7295 0.684 1.0
vtan 0.0 0.3975 0.9176 1.0
vtan 0.0 0.7295 0.684 1.0
vtan 0.0 0.3975 0.9176 1.0
vtan -0.0 0.684 -0.7295 1.0
vtan -0.0 0.9043 -0.4268 1.0
vtan 0.0 0.9044 -0.4267 1.0
vtan 0.0 0.684 -0.7295 1.0
vtan 0.0 0.684 -0.7295 1.0
vtan 0.0 0.9044 -0.4268 1.0
vtan 0.0 0.684 -0.7295 1.0
vtan 0.0 0.9044 -0.4268 1.0
vtan 0.0 -0.0 -1.0 -1.0
vtan -0.0628 0.0212 -0.9978 -1.0
vtan 0.0883 0.1267 0.988 -1.0
vtan 0.0922 0.1459 -0.985 -1.0
vtan 0.0 0.0 -1.0 -1.0
vtan -0.0628 0.0212 0.9978 1.0
vtan 0.0 0.0 1.0 1.0
vtan 0.0883 0.1267 -0.988 1.0
vtan 0.0922 0.1459 0.985 1.0
vtan 0.0 -0.0 1.0 1.0
f 0/0/0/0 1/1/1/1 2/2/2/2 
f 0/0/0/0 2/2/2/2 3/3/3/3 
f 4/4/4/4 5/5/5/5 6/6/6/6 
f 4/4/4/4 6/6/6/6 7/7/7/7 
f 8/8/8/8 9/9/9/9 10/10/10/10 
f 8/8/8/8 10/10/10/10 11/11/11/11 
f 9/9/9/9 12/12/12/12 13/13/13/13 
f 9/9/9/9 13/13/13/13 14/14/14/14 
f 14/14/14/14 13/13/13/13 15/15/15/15 
f 14/14/14/14 15/15/15/15 16/16/16/16 
f 17/17/17/17 18/18/18/18 19/19/19/19 
f 17/17/17/17 19/19/19/19 20/20/20/20 
f 21/21/21/21 22/22/22/22 23/23/23/23 
f 21/21/21/21 23/23/23/23 24/24/24/24 
f 24/24/24/24 23/23/23/23 25/25/25/25 
f 24/24/24/24 25/25/25/25 26/26/26/26 
f 1/1/1/27 0/0/0/28 27/3/27/29 
f 1/1/1/27 27/3/27/29 28/2/28/30 
f 29/7/29/31 30/6/30/32 31/5/31/33 
f 29/7/29/31 31/5/31/33 32/4/32/34 
f 33/11/33/35 34/10/34/36 35/9/35/37 
f 33/11/33/35 35/9/35/37 36/8/36/38 
f 37/13/37/39 38/12/38/40 35/9/35/37 
f 37/13/37/39 35/9/35/37 39/14/39/41 
f 40/15/40/42 37/13/37/39 39/14/39/41 
f 40/15/40/42 39/14/39/41 41/16/41/43 
f 42/20/42/44 43/19/43/45 18/18/18/46 
f 42/20/42/44 18/18/18/46 17/17/17/47 
f 44/23/44/48 45/22/45/49 21/21/21/50 
f 44/23/44/48 21/21/21/50 24/24/24/51 
f 46/25/46/52 44/23/44/48 24/24/24/51 
f 46/25/46/52 24/24/24/51 26/26/26/53 
f 47/27/47/54 48/28/48/55 12/12/12/12 
f 47/27/47/54 12/12/12/12 49/29/49/56 
f 50/30/50/57 51/31/51/58 52/32/52/59 
f 50/30/50/57 52/32/52/59 53/33/53/60 
f 54/34/54/61 55/35/55/62 22/22/22/22 
f 54/34/54/61 22/22/22/22 56/36/56/63 
f 48/28/48/55 2/2/2/2 57/37/57/64 
f 48/28/48/55 57/37/57/64 58/38/58/65 
f 58/38/58/65 57/37/57/64 59/39/59/66 
f 58/38/58/65 59/39/59/66 60/40/60/67 
f 61/41/61/68 62/42/62/69 63/43/63/70 
f 61/41/61/68 63/43/63/70 64/44/64/71 
f 55/35/55/62 10/10/10/10 65/45/65/72 
f 55/35/55/62 65/45/65/72 66/46/66/73 
f 66/46/66/73 65/45/65/72 67/47/67/74 
f 66/46/66/73 67/47/67/74 68/48/68/75 
f 69/27/69/76 70/29/70/77 38/12/38/40 
f 69/27/69/76 38/12/38/40 71/28/71/78 
f 72/30/72/79 73/33/73/80 74/32/74/81 
f 72/30/72/79 74/32/74/81 75/31/75/82 
f 76/34/76/83 77/36/77/84 45/22/45/49 
f 76/34/76/83 45/22/45/49 78/35/78/85 
f 79/38/79/86 80/37/80/87 28/2/28/30 
f 79/38/79/86 28/2/28/30 71/28/71/78 
f 81/40/81/88 82/39/82/89 80/37/80/87 
f 81/40/81/88 80/37/80/87 79/38/79/86 
f 83/41/83/90 84/44/84/91 85/43/85/92 
f 83/41/83/90 85/43/85/92 86/42/86/93 
f 87/46/87/94 88/45/88/95 34/10/34/36 
f 87/46/87/94 34/10/34/36 78/35/78/85 
f 89/48/89/96 90/47/90/97 88/45/88/95 
f 89/48/89/96 88/45/88/95 87/46/87/94 
f 3/3/3/3 2/2/2/2 48/28/48/55 
f 3/3/3/3 48/28/48/55 47/27/47/54 
f 7/7/7/7 6/6/6/6 51/31/51/58 
f 7/7/7/7 51/31/51/58 50/30/50/57 
f 11/11/11/11 10/10/10/10 55/35/55/62 
f 11/11/11/11 55/35/55/62 54/34/54/61 
f 12/12/12/12 48/28/48/55 58/38/58/65 
f 12/12/12/12 58/38/58/65 13/13/13/13 
f 13/13/13/13 58/38/58/65 60/40/60/67 
f 13/13/13/13 60/40/60/67 15/15/15/15 
f 20/20/20/20 19/19/19/19 62/42/62/69 
f 20/20/20/20 62/42/62/69 61/41/61/68 
f 22/22/22/22 55/35/55/62 66/46/66/73 
f 22/22/22/22 66/46/66/73 23/23/23/23 
f 23/23/23/23 66/46/66/73 68/48/68/75 
f 23/23/23/23 68/48/68/75 25/25/25/25 
f 27/3/27/29 69/27/69/76 71/28/71/78 
f 27/3/27/29 71/28/71/78 28/2/28/30 
f 29/7/29/31 72/30/72/79 75/31/75/82 
f 29/7/29/31 75/31/75/82 30/6/30/32 
f 33/11/33/35 76/34/76/83 78/35/78/85 
f 33/11/33/35 78/35/78/85 34/10/34/36 
f 37/13/37/39 79/38/79/86 71/28/71/78 
f 37/13/37/39 71/28/71/78 38/12/38/40 
f 40/15/40/42 81/40/81/88 79/38/79/86 
f 40/15/40/42 79/38/79/86 37/13/37/39 
f 42/20/42/44 83/41/83/90 86/42/86/93 
f 42/20/42/44 86/42/86/93 43/19/43/45 
f 44/23/44/48 87/46/87/94 78/35/78/85 
f 44/23/44/48 78/35/78/85 45/22/45/49 
f 46/25/46/52 89/48/89/96 87/46/87/94 
f 46/25/46/52 87/46/87/94 44/23/44/48 
f 49/29/49/56 12/12/12/12 9/9/9/9 
f 49/29/49/56 9/9/9/9 8/8/8/8 
f 53/33/53/60 52/32/52/59 91/49/91/98 
f 53/33/53/60 91/49/91/98 92/50/92/99 
f 56/36/56/63 22/22/22/22 21/21/21/21 
f 56/36/56/63 21/21/21/21 93/51/93/100 
f 2/2/2/2 1/1/1/1 94/52/94/101 
f 2/2/2/2 94/52/94/101 57/37/57/64 
f 57/37/57/64 94/52/94/101 95/53/95/102 
f 57/37/57/64 95/53/95/102 59/39/59/66 
f 64/44/64/71 63/43/63/70 5/5/5/5 
f 64/44/64/71 5/5/5/5 4/4/4/4 
f 10/10/10/10 9/9/9/9 14/14/14/14 
f 10/10/10/10 14/14/14/14 65/45/65/72 
f 65/45/65/72 14/14/14/14 16/16/16/16 
f 65/45/65/72 16/16/16/16 67/47/67/74 
f 70/29/70/77 36/8/36/38 35/9/35/37 
f 70/29/70/77 35/9/35/37 38/12/38/40 
f 73/33/73/80 92/50/92/103 91/49/91/104 
f 73/33/73/80 91/49/91/104 74/32/74/81 
f 77/36/77/84 93/51/93/105 21/21/21/50 
f 77/36/77/84 21/21/21/50 45/22/45/49 
f 80/37/80/87 94/52/94/106 1/1/1/27 
f 80/37/80/87 1/1/1/27 28/2/28/30 
f 82/39/82/89 95/53/95/107 94/52/94/106 
f 82/39/82/89 94/52/94/106 80/37/80/87 
f 84/44/84/91 32/4/32/34 31/5/31/33 
f 84/44/84/91 31/5/31/33 85/43/85/92 
f 88/45/88/95 39/14/39/41 35/9/35/37 
f 88/45/88/95 35/9/35/37 34/10/34/36 
f 90/47/90/97 41/16/41/43 39/14/39/41 
f 90/47/90/97 39/14/39/41 88/45/88/95 
f 7/7/7/7 49/29/49/56 8/8/8/8 
f 7/7/7/7 8/8/8/8 4/4/4/4 
f 20/20/20/20 56/36/56/63 93/51/93/100 
f 20/20/20/20 93/51/93/100 17/17/17/17 
f 32/4/32/34 36/8/36/38 70/29/70/77 
f 32/4/32/34 70/29/70/77 29/7/29/31 
f 17/17/17/47 93/51/93/105 77/36/77/84 
f 17/17/17/47 77/36/77/84 42/20/42/44 
f 53/33/53/60 3/3/3/3 47/27/47/54 
f 53/33/53/60 47/27/47/54 50/30/50/57 
f 64/44/64/71 11/11/11/11 54/34/54/61 
f 64/44/64/71 54/34/54/61 61/41/61/68 
f 72/30/72/79 69/27/69/76 27/3/27/29 
f 72/30/72/79 27/3/27/29 73/33/73/80 
f 83/41/83/90 76/34/76/83 33/11/33/35 
f 83/41/83/90 33/11/33/35 84/44/84/91 
f 50/30/50/57 47/27/47/54 49/29/49/56 
f 50/30/50/57 49/29/49/56 7/7/7/7 
f 61/41/61/68 54/34/54/61 56/36/56/63 
f 61/41/61/68 56/36/56/63 20/20/20/20 
f 29/7/29/31 70/29/70/77 69/27/69/76 
f 29/7/29/31 69/27/69/76 72/30/72/79 
f 42/20/42/44 77/36/77/84 76/34/76/83 
f 42/20/42/44 76/34/76/83 83/41/83/90 
f 92/50/92/99 0/0/0/0 3/3/3/3 
f 92/50/92/99 3/3/3/3 53/33/53/60 
f 4/4/4/4 8/8/8/8 11/11/11/11 
f 4/4/4/4 11/11/11/11 64/44/64/71 
f 0/0/0/28 92/50/92/103 73/33/73/80 
f 0/0/0/28 73/33/73/80 27/3/27/29 
f 84/44/84/91 33/11/33/35 36/8/36/38 
f 84/44/84/91 36/8/36/38 32/4/32/34 
