v 914.8004 413.9112 -310.1346
v 914.8004 494.0526 -310.1345
v 914.8008 494.0525 238.6792
v 914.8008 413.9111 238.6792
v -1045.741 413.9112 -310.1346
v -1045.741 494.0526 -310.1344
v -1045.741 413.9111 238.6796
v -1045.741 494.0525 238.6796
gi 0 0 0 0
gi 0 0 0 0
gi 0 0 0 0
gi 0 0 0 0
gi 0 0 0 0
gi 0 0 0 0
gi 0 0 0 0
gi 0 0 0 0
gw 0.0 0.0 0.0 0.0
gw 0.0 0.0 0.0 0.0
gw 0.0 0.0 0.0 0.0
gw 0.0 0.0 0.0 0.0
gw 0.0 0.0 0.0 0.0
gw 0.0 0.0 0.0 0.0
gw 0.0 0.0 0.0 0.0
gw 0.0 0.0 0.0 0.0
vt 8.6439 0.3609
vt 6.4963 0.3609
vt 6.4963 0.6819
vt 8.6439 0.6819
vt -1.3153 0.3609
vt -1.3153 0.6819
vt 16.4555 0.3608
vt 16.4555 0.6819
vt 18.6031 0.6819
vt 18.6031 0.3608
vn -1.0 -0.0 0.0
vn -1.0 0.0 0.0
vn 0.0 -0.0 1.0
vn 0.0 -0.0 1.0
vn 0.7071 -0.0 -0.7071
vn 0.7071 -0.0 -0.7071
vn 0.707 -0.0 0.7072
vn 0.707 0.0 0.7072
vn -0.7072 0.0 -0.707
vn -0.7072 -0.0 -0.707
vtan -0.0 0.0 -1.0
vtan 0.0 0.0 -1.0
vtan -1.0 0.0 0.0
vtan -1.0 0.0 0.0
vtan 0.7071 0.0 0.7071
vtan 0.7071 0.0 0.7071
vtan -0.7072 0.0 0.707
vtan -0.7072 -0.0 0.707
vtan 0.707 0.0 -0.7072
vtan 0.707 -0.0 -0.7072
f 4/0/0/0 6/1/0/0 7/2/0/0 
f 4/0/1/1 7/2/1/1 5/3/1/1 
f 6/1/2/2 3/4/2/2 2/5/2/2 
f 6/1/3/3 2/5/3/3 7/2/3/3 
f 0/6/4/4 1/7/5/5 2/8/6/6 
f 0/6/4/4 2/8/6/6 3/9/7/7 
f 1/7/5/5 0/6/4/4 4/0/8/8 
f 1/7/5/5 4/0/8/8 5/3/9/9 
