v -1029.1833 729.4119 -47.318
v -998.3569 729.4119 -47.318
v -998.3569 712.3098 -45.6336
v -1029.1833 712.3098 -45.6336
v -1029.1833 718.4464 -34.8321
v -1029.1833 731.637 -36.1313
v -1029.1833 712.3098 -34.8321
v -998.3569 712.3099 -232.3642
v -998.3569 731.6371 -230.4605
v -998.3569 729.412 -219.2739
v -998.3569 712.3099 -220.9583
v -1029.1833 731.6371 -230.4605
v -1029.1833 733.3452 -239.0472
v -1029.1833 712.3099 -241.1189
v -1029.1833 712.3099 -232.3642
v -997.45 712.3099 -232.3642
v -997.45 731.6371 -230.4605
v -991.9082 732.6692 -235.649
v -991.9082 712.3099 -237.6543
v -1029.1833 799.9722 -133.2959
v -1029.1833 798.2877 -150.398
v -998.3569 798.2877 -150.398
v -998.3569 799.9722 -133.2959
v -1029.1833 811.3781 -133.2959
v -1029.1833 809.4745 -152.6231
v -998.3569 811.3781 -133.2959
v -998.3569 809.4744 -113.9686
v -998.3569 798.2877 -116.1938
v -1029.1833 809.4744 -113.9686
v -1029.1833 818.061 -112.2607
v -1029.1833 820.1328 -133.2959
v -991.9082 816.6681 -133.2959
v -991.9082 814.6629 -153.6552
v -991.9082 818.061 -154.3312
v -991.9082 820.1328 -133.2959
v -1029.1833 818.061 -154.3312
v -997.45 811.3781 -133.2959
v -997.45 809.4744 -113.9686
v -991.9082 814.6628 -112.9366
v -998.3569 782.3616 -203.3477
v -998.3569 794.6821 -188.3352
v -998.3569 785.1984 -181.9985
v -998.3569 774.2964 -195.2826
v -1029.1833 782.3616 -203.3477
v -1029.1833 794.6821 -188.3352
v -1029.1833 801.9615 -193.1991
v -1029.1833 788.5522 -209.5383
v -997.45 782.3616 -203.3477
v -997.45 794.6821 -188.3352
v -991.9082 786.1024 -207.0884
v -991.9082 799.0807 -191.2743
v -1029.1833 774.2964 -195.2826
v -1029.1833 761.0126 -206.1845
v -998.3569 761.0126 -206.1845
v -1029.1833 767.3492 -215.6681
v -991.9082 770.2883 -220.0667
v -991.9082 772.2131 -222.9475
v -991.9082 788.5522 -209.5383
v -1029.1833 772.2131 -222.9475
v -1029.1833 774.2964 -71.3093
v -1029.1833 785.1984 -84.5933
v -998.3569 785.1984 -84.5933
v -998.3569 774.2964 -71.3093
v -1029.1833 782.3616 -63.2441
v -1029.1833 794.682 -78.2565
v -991.9082 786.1022 -59.5034
v -991.9082 799.0806 -75.3175
v -991.9082 801.9613 -73.3926
v -991.9082 788.5521 -57.0535
v -1029.1833 801.9613 -73.3926
v -1029.1833 788.5521 -57.0535
v -998.3569 782.3616 -63.2441
v -998.3569 767.3491 -50.9237
v -998.3569 761.0123 -60.4074
v -1029.1833 767.3491 -50.9237
v -1029.1833 772.213 -43.6443
v -997.45 782.3616 -63.2441
v -997.45 767.3491 -50.9237
v -991.9082 770.2881 -46.5251
v -1029.1833 745.8567 -52.3065
v -1029.1833 761.0123 -60.4074
v -998.3569 745.8567 -52.3065
v -1029.1833 750.2216 -41.7688
v -998.3569 750.2217 -224.823
v -998.3569 767.3492 -215.6681
v -998.3569 745.8569 -214.2854
v -1029.1833 750.2217 -224.823
v -1029.1833 753.572 -232.9114
v -997.45 750.2217 -224.823
v -997.45 767.3492 -215.6681
v -991.9082 752.246 -229.7104
v -1029.1833 793.2992 -166.8428
v -1029.1833 785.1984 -181.9985
v -998.3569 793.2992 -166.8428
v -1029.1833 803.8369 -171.2076
v -998.3569 803.8369 -95.3841
v -998.3569 794.682 -78.2565
v -998.3569 793.2992 -99.749
v -1029.1833 803.8369 -95.3841
v -1029.1833 811.9253 -92.0338
v -991.9082 808.7244 -173.2321
v -991.9082 801.9615 -193.1991
v -991.9082 811.9253 -174.558
v -1029.1833 811.9253 -174.558
v -997.45 803.8369 -95.3841
v -997.45 794.682 -78.2565
v -991.9082 808.7242 -93.3597
v -998.3569 803.8369 -171.2076
v -998.3569 809.4745 -152.6231
v -997.45 803.8369 -171.2076
v -997.45 809.4745 -152.6231
v -1029.1833 745.8569 -214.2854
v -1029.1833 729.412 -219.2739
v -991.9082 733.3452 -239.0472
v -991.9082 753.572 -232.9114
v -1029.1833 793.2992 -99.749
v -1029.1833 798.2877 -116.1938
v -991.9082 818.061 -112.2607
v -991.9082 811.9253 -92.0338
v -998.3569 750.2216 -41.7688
v -998.3569 731.637 -36.1313
v -997.45 750.2216 -41.7688
v -997.45 731.637 -36.1313
v -991.9082 745.4904 -34.8321
v -996.0623 731.8954 -34.8321
v -991.9082 752.246 -36.8814
v -1029.1833 753.0948 -34.8321
v -1029.1833 755.7266 -34.8321
v -991.9082 772.213 -43.6443
v -1029.1833 712.3099 -220.9583
v -991.9082 712.3099 -241.1189
v -998.3569 718.4464 -34.8321
v -998.3569 712.3098 -34.8321
v -997.45 718.4464 -34.8321
v -998.3569 695.7373 -45.0482
v -1029.1833 695.7373 -45.0482
v -1029.1833 695.7373 -34.8321
v -998.3569 695.7374 -220.7959
v -998.3569 695.7374 -232.0325
v -1029.1833 695.7374 -240.6817
v -1029.1833 695.7374 -232.0325
v -997.45 695.7374 -232.0325
v -991.9082 695.7374 -237.2567
v -1029.1833 695.7374 -220.7959
v -991.9082 695.7374 -240.6817
v -991.9082 753.0948 -34.8321
v -991.9082 755.7265 -34.8321
v -1029.1833 731.8954 -34.8321
v -998.3569 695.7373 -34.8321
v -998.3569 712.3098 -24.0306
v -998.3569 729.4119 -22.3462
v -1029.1833 729.4119 -22.3462
v -1029.1833 712.3098 -24.0306
v -1029.1833 731.637 -33.533
v -998.3569 729.4119 149.6096
v -998.3569 731.6371 160.7963
v -998.3569 712.3098 162.6999
v -998.3569 712.3098 151.294
v -1029.1833 712.3098 171.4548
v -1029.1833 733.3451 169.383
v -1029.1833 731.6371 160.7963
v -1029.1833 712.3098 162.6999
v -997.45 731.6371 160.7963
v -997.45 712.3098 162.6999
v -991.9082 732.6691 165.9848
v -991.9082 712.3098 167.99
v -998.3569 798.2877 80.7338
v -1029.1833 798.2877 80.7338
v -1029.1833 799.9722 63.6317
v -998.3569 799.9722 63.6317
v -1029.1833 809.4745 82.9589
v -1029.1833 811.3781 63.6317
v -998.3569 798.2877 46.5296
v -998.3569 809.4744 44.3044
v -998.3569 811.3781 63.6317
v -1029.1833 818.061 42.5964
v -1029.1833 809.4744 44.3044
v -1029.1833 820.1328 63.6317
v -991.9082 818.061 84.6669
v -991.9082 814.6629 83.991
v -991.9082 816.6681 63.6317
v -991.9082 820.1328 63.6317
v -1029.1833 818.061 84.6669
v -997.45 809.4744 44.3044
v -997.45 811.3781 63.6317
v -991.9082 814.6628 43.2724
v -998.3569 785.1984 112.3343
v -998.3569 794.682 118.671
v -998.3569 782.3616 133.6835
v -998.3569 774.2964 125.6183
v -1029.1833 801.9614 123.535
v -1029.1833 794.682 118.671
v -1029.1833 782.3616 133.6835
v -1029.1833 788.5522 139.8741
v -997.45 794.682 118.671
v -997.45 782.3616 133.6835
v -991.9082 799.0806 121.6101
v -991.9082 786.1023 137.4241
v -998.3569 761.0125 136.5203
v -1029.1833 761.0125 136.5203
v -1029.1833 774.2964 125.6183
v -1029.1833 767.3492 146.0039
v -991.9082 772.2131 153.2832
v -991.9082 770.2882 150.4025
v -991.9082 788.5522 139.8741
v -1029.1833 772.2131 153.2832
v -998.3569 785.1984 14.9291
v -1029.1833 785.1984 14.9291
v -1029.1833 774.2964 1.645
v -998.3569 774.2964 1.645
v -1029.1833 794.682 8.5923
v -1029.1833 782.3616 -6.4201
v -991.9082 801.9613 3.7284
v -991.9082 799.0806 5.6533
v -991.9082 786.1022 -10.1608
v -991.9082 788.5521 -12.6107
v -1029.1833 801.9613 3.7284
v -1029.1833 788.5521 -12.6107
v -998.3569 761.0123 -9.2569
v -998.3569 767.3491 -18.7405
v -998.3569 782.3616 -6.4201
v -1029.1833 772.213 -26.0199
v -1029.1833 767.3491 -18.7405
v -997.45 767.3491 -18.7405
v -997.45 782.3616 -6.4201
v -991.9082 770.2881 -23.1391
v -1029.1833 761.0123 -9.2569
v -1029.1833 745.8567 -17.3577
v -998.3569 745.8567 -17.3577
v -1029.1833 750.2216 -27.8954
v -998.3569 767.3492 146.0039
v -998.3569 750.2216 155.1588
v -998.3569 745.8568 144.6211
v -1029.1833 750.2216 155.1588
v -1029.1833 753.5719 163.2472
v -997.45 767.3492 146.0039
v -997.45 750.2216 155.1588
v -991.9082 752.246 160.0463
v -1029.1833 785.1984 112.3343
v -1029.1833 793.2992 97.1786
v -998.3569 793.2992 97.1786
v -1029.1833 803.8369 101.5434
v -998.3569 794.682 8.5923
v -998.3569 803.8369 25.7199
v -998.3569 793.2992 30.0848
v -1029.1833 803.8369 25.7199
v -1029.1833 811.9253 22.3695
v -991.9082 801.9614 123.535
v -991.9082 808.7244 103.5678
v -991.9082 811.9253 104.8937
v -1029.1833 811.9253 104.8937
v -997.45 794.682 8.5923
v -997.45 803.8369 25.7199
v -991.9082 808.7242 23.6955
v -998.3569 809.4745 82.9589
v -998.3569 803.8369 101.5434
v -997.45 809.4745 82.9589
v -997.45 803.8369 101.5434
v -1029.1833 729.4119 149.6096
v -1029.1833 745.8568 144.6211
v -991.9082 733.3451 169.383
v -991.9082 753.5719 163.2472
v -1029.1833 798.2877 46.5296
v -1029.1833 793.2992 30.0848
v -991.9082 818.061 42.5964
v -991.9082 811.9253 22.3696
v -998.3569 731.637 -33.533
v -998.3569 750.2216 -27.8954
v -997.45 731.637 -33.533
v -997.45 750.2216 -27.8954
v -991.9082 752.246 -32.7828
v -991.9082 772.213 -26.0199
v -1029.1833 712.3098 151.294
v -991.9082 712.3098 171.4547
v -1029.1833 695.7373 -24.6159
v -998.3569 695.7373 -24.6159
v -998.3569 695.7373 162.3683
v -998.3569 695.7373 151.1317
v -1029.1833 695.7373 162.3683
v -1029.1833 695.7373 171.0175
v -997.45 695.7373 162.3683
v -991.9082 695.7373 167.5925
v -1029.1833 695.7373 151.1317
v -991.9082 695.7373 171.0175
gi 0 0 0 0
gi 0 0 0 0
gi 0 0 0 0
gi 0 0 0 0
gi 0 0 0 0
gi 0 0 0 0
gi 0 0 0 0
gi 0 0 0 0
gi 0 0 0 0
gi 0 0 0 0
gi 0 0 0 0
gi 0 0 0 0
gi 0 0 0 0
gi 0 0 0 0
gi 0 0 0 0
gi 0 0 0 0
gi 0 0 0 0
gi 0 0 0 0
gi 0 0 0 0
gi 0 0 0 0
gi 0 0 0 0
gi 0 0 0 0
gi 0 0 0 0
gi 0 0 0 0
gi 0 0 0 0
gi 0 0 0 0
gi 0 0 0 0
gi 0 0 0 0
gi 0 0 0 0
gi 0 0 0 0
gi 0 0 0 0
gi 0 0 0 0
gi 0 0 0 0
gi 0 0 0 0
gi 0 0 0 0
gi 0 0 0 0
gi 0 0 0 0
gi 0 0 0 0
gi 0 0 0 0
gi 0 0 0 0
gi 0 0 0 0
gi 0 0 0 0
gi 0 0 0 0
gi 0 0 0 0
gi 0 0 0 0
gi 0 0 0 0
gi 0 0 0 0
gi 0 0 0 0
gi 0 0 0 0
gi 0 0 0 0
gi 0 0 0 0
gi 0 0 0 0
gi 0 0 0 0
gi 0 0 0 0
gi 0 0 0 0
gi 0 0 0 0
gi 0 0 0 0
gi 0 0 0 0
gi 0 0 0 0
gi 0 0 0 0
gi 0 0 0 0
gi 0 0 0 0
gi 0 0 0 0
gi 0 0 0 0
gi 0 0 0 0
gi 0 0 0 0
gi 0 0 0 0
gi 0 0 0 0
gi 0 0 0 0
gi 0 0 0 0
gi 0 0 0 0
gi 0 0 0 0
gi 0 0 0 0
gi 0 0 0 0
gi 0 0 0 0
gi 0 0 0 0
gi 0 0 0 0
gi 0 0 0 0
gi 0 0 0 0
gi 0 0 0 0
gi 0 0 0 0
gi 0 0 0 0
gi 0 0 0 0
gi 0 0 0 0
gi 0 0 0 0
gi 0 0 0 0
gi 0 0 0 0
gi 0 0 0 0
gi 0 0 0 0
gi 0 0 0 0
gi 0 0 0 0
gi 0 0 0 0
gi 0 0 0 0
gi 0 0 0 0
gi 0 0 0 0
gi 0 0 0 0
gi 0 0 0 0
gi 0 0 0 0
gi 0 0 0 0
gi 0 0 0 0
gi 0 0 0 0
gi 0 0 0 0
gi 0 0 0 0
gi 0 0 0 0
gi 0 0 0 0
gi 0 0 0 0
gi 0 0 0 0
gi 0 0 0 0
gi 0 0 0 0
gi 0 0 0 0
gi 0 0 0 0
gi 0 0 0 0
gi 0 0 0 0
gi 0 0 0 0
gi 0 0 0 0
gi 0 0 0 0
gi 0 0 0 0
gi 0 0 0 0
gi 0 0 0 0
gi 0 0 0 0
gi 0 0 0 0
gi 0 0 0 0
gi 0 0 0 0
gi 0 0 0 0
gi 0 0 0 0
gi 0 0 0 0
gi 0 0 0 0
gi 0 0 0 0
gi 0 0 0 0
gi 0 0 0 0
gi 0 0 0 0
gi 0 0 0 0
gi 0 0 0 0
gi 0 0 0 0
gi 0 0 0 0
gi 0 0 0 0
gi 0 0 0 0
gi 0 0 0 0
gi 0 0 0 0
gi 0 0 0 0
gi 0 0 0 0
gi 0 0 0 0
gi 0 0 0 0
gi 0 0 0 0
gi 0 0 0 0
gi 0 0 0 0
gi 0 0 0 0
gi 0 0 0 0
gi 0 0 0 0
gi 0 0 0 0
gi 0 0 0 0
gi 0 0 0 0
gi 0 0 0 0
gi 0 0 0 0
gi 0 0 0 0
gi 0 0 0 0
gi 0 0 0 0
gi 0 0 0 0
gi 0 0 0 0
gi 0 0 0 0
gi 0 0 0 0
gi 0 0 0 0
gi 0 0 0 0
gi 0 0 0 0
gi 0 0 0 0
gi 0 0 0 0
gi 0 0 0 0
gi 0 0 0 0
gi 0 0 0 0
gi 0 0 0 0
gi 0 0 0 0
gi 0 0 0 0
gi 0 0 0 0
gi 0 0 0 0
gi 0 0 0 0
gi 0 0 0 0
gi 0 0 0 0
gi 0 0 0 0
gi 0 0 0 0
gi 0 0 0 0
gi 0 0 0 0
gi 0 0 0 0
gi 0 0 0 0
gi 0 0 0 0
gi 0 0 0 0
gi 0 0 0 0
gi 0 0 0 0
gi 0 0 0 0
gi 0 0 0 0
gi 0 0 0 0
gi 0 0 0 0
gi 0 0 0 0
gi 0 0 0 0
gi 0 0 0 0
gi 0 0 0 0
gi 0 0 0 0
gi 0 0 0 0
gi 0 0 0 0
gi 0 0 0 0
gi 0 0 0 0
gi 0 0 0 0
gi 0 0 0 0
gi 0 0 0 0
gi 0 0 0 0
gi 0 0 0 0
gi 0 0 0 0
gi 0 0 0 0
gi 0 0 0 0
gi 0 0 0 0
gi 0 0 0 0
gi 0 0 0 0
gi 0 0 0 0
gi 0 0 0 0
gi 0 0 0 0
gi 0 0 0 0
gi 0 0 0 0
gi 0 0 0 0
gi 0 0 0 0
gi 0 0 0 0
gi 0 0 0 0
gi 0 0 0 0
gi 0 0 0 0
gi 0 0 0 0
gi 0 0 0 0
gi 0 0 0 0
gi 0 0 0 0
gi 0 0 0 0
gi 0 0 0 0
gi 0 0 0 0
gi 0 0 0 0
gi 0 0 0 0
gi 0 0 0 0
gi 0 0 0 0
gi 0 0 0 0
gi 0 0 0 0
gi 0 0 0 0
gi 0 0 0 0
gi 0 0 0 0
gi 0 0 0 0
gi 0 0 0 0
gi 0 0 0 0
gi 0 0 0 0
gi 0 0 0 0
gi 0 0 0 0
gi 0 0 0 0
gi 0 0 0 0
gi 0 0 0 0
gi 0 0 0 0
gi 0 0 0 0
gi 0 0 0 0
gi 0 0 0 0
gi 0 0 0 0
gi 0 0 0 0
gi 0 0 0 0
gi 0 0 0 0
gi 0 0 0 0
gi 0 0 0 0
gi 0 0 0 0
gi 0 0 0 0
gi 0 0 0 0
gi 0 0 0 0
gi 0 0 0 0
gi 0 0 0 0
gi 0 0 0 0
gi 0 0 0 0
gi 0 0 0 0
gi 0 0 0 0
gi 0 0 0 0
gi 0 0 0 0
gi 0 0 0 0
gi 0 0 0 0
gi 0 0 0 0
gi 0 0 0 0
gi 0 0 0 0
gi 0 0 0 0
gi 0 0 0 0
gi 0 0 0 0
gi 0 0 0 0
gi 0 0 0 0
gi 0 0 0 0
gi 0 0 0 0
gi 0 0 0 0
gi 0 0 0 0
gi 0 0 0 0
gw 0.0 0.0 0.0 0.0
gw 0.0 0.0 0.0 0.0
gw 0.0 0.0 0.0 0.0
gw 0.0 0.0 0.0 0.0
gw 0.0 0.0 0.0 0.0
gw 0.0 0.0 0.0 0.0
gw 0.0 0.0 0.0 0.0
gw 0.0 0.0 0.0 0.0
gw 0.0 0.0 0.0 0.0
gw 0.0 0.0 0.0 0.0
gw 0.0 0.0 0.0 0.0
gw 0.0 0.0 0.0 0.0
gw 0.0 0.0 0.0 0.0
gw 0.0 0.0 0.0 0.0
gw 0.0 0.0 0.0 0.0
gw 0.0 0.0 0.0 0.0
gw 0.0 0.0 0.0 0.0
gw 0.0 0.0 0.0 0.0
gw 0.0 0.0 0.0 0.0
gw 0.0 0.0 0.0 0.0
gw 0.0 0.0 0.0 0.0
gw 0.0 0.0 0.0 0.0
gw 0.0 0.0 0.0 0.0
gw 0.0 0.0 0.0 0.0
gw 0.0 0.0 0.0 0.0
gw 0.0 0.0 0.0 0.0
gw 0.0 0.0 0.0 0.0
gw 0.0 0.0 0.0 0.0
gw 0.0 0.0 0.0 0.0
gw 0.0 0.0 0.0 0.0
gw 0.0 0.0 0.0 0.0
gw 0.0 0.0 0.0 0.0
gw 0.0 0.0 0.0 0.0
gw 0.0 0.0 0.0 0.0
gw 0.0 0.0 0.0 0.0
gw 0.0 0.0 0.0 0.0
gw 0.0 0.0 0.0 0.0
gw 0.0 0.0 0.0 0.0
gw 0.0 0.0 0.0 0.0
gw 0.0 0.0 0.0 0.0
gw 0.0 0.0 0.0 0.0
gw 0.0 0.0 0.0 0.0
gw 0.0 0.0 0.0 0.0
gw 0.0 0.0 0.0 0.0
gw 0.0 0.0 0.0 0.0
gw 0.0 0.0 0.0 0.0
gw 0.0 0.0 0.0 0.0
gw 0.0 0.0 0.0 0.0
gw 0.0 0.0 0.0 0.0
gw 0.0 0.0 0.0 0.0
gw 0.0 0.0 0.0 0.0
gw 0.0 0.0 0.0 0.0
gw 0.0 0.0 0.0 0.0
gw 0.0 0.0 0.0 0.0
gw 0.0 0.0 0.0 0.0
gw 0.0 0.0 0.0 0.0
gw 0.0 0.0 0.0 0.0
gw 0.0 0.0 0.0 0.0
gw 0.0 0.0 0.0 0.0
gw 0.0 0.0 0.0 0.0
gw 0.0 0.0 0.0 0.0
gw 0.0 0.0 0.0 0.0
gw 0.0 0.0 0.0 0.0
gw 0.0 0.0 0.0 0.0
gw 0.0 0.0 0.0 0.0
gw 0.0 0.0 0.0 0.0
gw 0.0 0.0 0.0 0.0
gw 0.0 0.0 0.0 0.0
gw 0.0 0.0 0.0 0.0
gw 0.0 0.0 0.0 0.0
gw 0.0 0.0 0.0 0.0
gw 0.0 0.0 0.0 0.0
gw 0.0 0.0 0.0 0.0
gw 0.0 0.0 0.0 0.0
gw 0.0 0.0 0.0 0.0
gw 0.0 0.0 0.0 0.0
gw 0.0 0.0 0.0 0.0
gw 0.0 0.0 0.0 0.0
gw 0.0 0.0 0.0 0.0
gw 0.0 0.0 0.0 0.0
gw 0.0 0.0 0.0 0.0
gw 0.0 0.0 0.0 0.0
gw 0.0 0.0 0.0 0.0
gw 0.0 0.0 0.0 0.0
gw 0.0 0.0 0.0 0.0
gw 0.0 0.0 0.0 0.0
gw 0.0 0.0 0.0 0.0
gw 0.0 0.0 0.0 0.0
gw 0.0 0.0 0.0 0.0
gw 0.0 0.0 0.0 0.0
gw 0.0 0.0 0.0 0.0
gw 0.0 0.0 0.0 0.0
gw 0.0 0.0 0.0 0.0
gw 0.0 0.0 0.0 0.0
gw 0.0 0.0 0.0 0.0
gw 0.0 0.0 0.0 0.0
gw 0.0 0.0 0.0 0.0
gw 0.0 0.0 0.0 0.0
gw 0.0 0.0 0.0 0.0
gw 0.0 0.0 0.0 0.0
gw 0.0 0.0 0.0 0.0
gw 0.0 0.0 0.0 0.0
gw 0.0 0.0 0.0 0.0
gw 0.0 0.0 0.0 0.0
gw 0.0 0.0 0.0 0.0
gw 0.0 0.0 0.0 0.0
gw 0.0 0.0 0.0 0.0
gw 0.0 0.0 0.0 0.0
gw 0.0 0.0 0.0 0.0
gw 0.0 0.0 0.0 0.0
gw 0.0 0.0 0.0 0.0
gw 0.0 0.0 0.0 0.0
gw 0.0 0.0 0.0 0.0
gw 0.0 0.0 0.0 0.0
gw 0.0 0.0 0.0 0.0
gw 0.0 0.0 0.0 0.0
gw 0.0 0.0 0.0 0.0
gw 0.0 0.0 0.0 0.0
gw 0.0 0.0 0.0 0.0
gw 0.0 0.0 0.0 0.0
gw 0.0 0.0 0.0 0.0
gw 0.0 0.0 0.0 0.0
gw 0.0 0.0 0.0 0.0
gw 0.0 0.0 0.0 0.0
gw 0.0 0.0 0.0 0.0
gw 0.0 0.0 0.0 0.0
gw 0.0 0.0 0.0 0.0
gw 0.0 0.0 0.0 0.0
gw 0.0 0.0 0.0 0.0
gw 0.0 0.0 0.0 0.0
gw 0.0 0.0 0.0 0.0
gw 0.0 0.0 0.0 0.0
gw 0.0 0.0 0.0 0.0
gw 0.0 0.0 0.0 0.0
gw 0.0 0.0 0.0 0.0
gw 0.0 0.0 0.0 0.0
gw 0.0 0.0 0.0 0.0
gw 0.0 0.0 0.0 0.0
gw 0.0 0.0 0.0 0.0
gw 0.0 0.0 0.0 0.0
gw 0.0 0.0 0.0 0.0
gw 0.0 0.0 0.0 0.0
gw 0.0 0.0 0.0 0.0
gw 0.0 0.0 0.0 0.0
gw 0.0 0.0 0.0 0.0
gw 0.0 0.0 0.0 0.0
gw 0.0 0.0 0.0 0.0
gw 0.0 0.0 0.0 0.0
gw 0.0 0.0 0.0 0.0
gw 0.0 0.0 0.0 0.0
gw 0.0 0.0 0.0 0.0
gw 0.0 0.0 0.0 0.0
gw 0.0 0.0 0.0 0.0
gw 0.0 0.0 0.0 0.0
gw 0.0 0.0 0.0 0.0
gw 0.0 0.0 0.0 0.0
gw 0.0 0.0 0.0 0.0
gw 0.0 0.0 0.0 0.0
gw 0.0 0.0 0.0 0.0
gw 0.0 0.0 0.0 0.0
gw 0.0 0.0 0.0 0.0
gw 0.0 0.0 0.0 0.0
gw 0.0 0.0 0.0 0.0
gw 0.0 0.0 0.0 0.0
gw 0.0 0.0 0.0 0.0
gw 0.0 0.0 0.0 0.0
gw 0.0 0.0 0.0 0.0
gw 0.0 0.0 0.0 0.0
gw 0.0 0.0 0.0 0.0
gw 0.0 0.0 0.0 0.0
gw 0.0 0.0 0.0 0.0
gw 0.0 0.0 0.0 0.0
gw 0.0 0.0 0.0 0.0
gw 0.0 0.0 0.0 0.0
gw 0.0 0.0 0.0 0.0
gw 0.0 0.0 0.0 0.0
gw 0.0 0.0 0.0 0.0
gw 0.0 0.0 0.0 0.0
gw 0.0 0.0 0.0 0.0
gw 0.0 0.0 0.0 0.0
gw 0.0 0.0 0.0 0.0
gw 0.0 0.0 0.0 0.0
gw 0.0 0.0 0.0 0.0
gw 0.0 0.0 0.0 0.0
gw 0.0 0.0 0.0 0.0
gw 0.0 0.0 0.0 0.0
gw 0.0 0.0 0.0 0.0
gw 0.0 0.0 0.0 0.0
gw 0.0 0.0 0.0 0.0
gw 0.0 0.0 0.0 0.0
gw 0.0 0.0 0.0 0.0
gw 0.0 0.0 0.0 0.0
gw 0.0 0.0 0.0 0.0
gw 0.0 0.0 0.0 0.0
gw 0.0 0.0 0.0 0.0
gw 0.0 0.0 0.0 0.0
gw 0.0 0.0 0.0 0.0
gw 0.0 0.0 0.0 0.0
gw 0.0 0.0 0.0 0.0
gw 0.0 0.0 0.0 0.0
gw 0.0 0.0 0.0 0.0
gw 0.0 0.0 0.0 0.0
gw 0.0 0.0 0.0 0.0
gw 0.0 0.0 0.0 0.0
gw 0.0 0.0 0.0 0.0
gw 0.0 0.0 0.0 0.0
gw 0.0 0.0 0.0 0.0
gw 0.0 0.0 0.0 0.0
gw 0.0 0.0 0.0 0.0
gw 0.0 0.0 0.0 0.0
gw 0.0 0.0 0.0 0.0
gw 0.0 0.0 0.0 0.0
gw 0.0 0.0 0.0 0.0
gw 0.0 0.0 0.0 0.0
gw 0.0 0.0 0.0 0.0
gw 0.0 0.0 0.0 0.0
gw 0.0 0.0 0.0 0.0
gw 0.0 0.0 0.0 0.0
gw 0.0 0.0 0.0 0.0
gw 0.0 0.0 0.0 0.0
gw 0.0 0.0 0.0 0.0
gw 0.0 0.0 0.0 0.0
gw 0.0 0.0 0.0 0.0
gw 0.0 0.0 0.0 0.0
gw 0.0 0.0 0.0 0.0
gw 0.0 0.0 0.0 0.0
gw 0.0 0.0 0.0 0.0
gw 0.0 0.0 0.0 0.0
gw 0.0 0.0 0.0 0.0
gw 0.0 0.0 0.0 0.0
gw 0.0 0.0 0.0 0.0
gw 0.0 0.0 0.0 0.0
gw 0.0 0.0 0.0 0.0
gw 0.0 0.0 0.0 0.0
gw 0.0 0.0 0.0 0.0
gw 0.0 0.0 0.0 0.0
gw 0.0 0.0 0.0 0.0
gw 0.0 0.0 0.0 0.0
gw 0.0 0.0 0.0 0.0
gw 0.0 0.0 0.0 0.0
gw 0.0 0.0 0.0 0.0
gw 0.0 0.0 0.0 0.0
gw 0.0 0.0 0.0 0.0
gw 0.0 0.0 0.0 0.0
gw 0.0 0.0 0.0 0.0
gw 0.0 0.0 0.0 0.0
gw 0.0 0.0 0.0 0.0
gw 0.0 0.0 0.0 0.0
gw 0.0 0.0 0.0 0.0
gw 0.0 0.0 0.0 0.0
gw 0.0 0.0 0.0 0.0
gw 0.0 0.0 0.0 0.0
gw 0.0 0.0 0.0 0.0
gw 0.0 0.0 0.0 0.0
gw 0.0 0.0 0.0 0.0
gw 0.0 0.0 0.0 0.0
gw 0.0 0.0 0.0 0.0
gw 0.0 0.0 0.0 0.0
gw 0.0 0.0 0.0 0.0
gw 0.0 0.0 0.0 0.0
gw 0.0 0.0 0.0 0.0
gw 0.0 0.0 0.0 0.0
gw 0.0 0.0 0.0 0.0
gw 0.0 0.0 0.0 0.0
gw 0.0 0.0 0.0 0.0
gw 0.0 0.0 0.0 0.0
gw 0.0 0.0 0.0 0.0
gw 0.0 0.0 0.0 0.0
gw 0.0 0.0 0.0 0.0
gw 0.0 0.0 0.0 0.0
gw 0.0 0.0 0.0 0.0
gw 0.0 0.0 0.0 0.0
gw 0.0 0.0 0.0 0.0
gw 0.0 0.0 0.0 0.0
gw 0.0 0.0 0.0 0.0
gw 0.0 0.0 0.0 0.0
gw 0.0 0.0 0.0 0.0
gw 0.0 0.0 0.0 0.0
gw 0.0 0.0 0.0 0.0
gw 0.0 0.0 0.0 0.0
gw 0.0 0.0 0.0 0.0
gw 0.0 0.0 0.0 0.0
gw 0.0 0.0 0.0 0.0
gw 0.0 0.0 0.0 0.0
vt 0.9345 0.0638
vt 0.9345 0.1543
vt 0.9965 0.1543
vt 0.9965 0.0638
vt 0.9965 0.0321
vt 0.9768 0.0304
vt 0.9345 0.0304
vt 0.0033 0.1878
vt 0.0654 0.1878
vt 0.0654 0.1543
vt 0.0033 0.1543
vt 0.0654 0.0304
vt 0.0654 0.0047
vt 0.0033 0.0047
vt 0.0033 0.0304
vt 0.0033 0.1905
vt 0.0654 0.1905
vt 0.0654 0.2067
vt 0.0033 0.2067
vt 0.4999 0.0638
vt 0.4379 0.0638
vt 0.4379 0.1543
vt 0.4999 0.1543
vt 0.4999 0.0304
vt 0.4379 0.0304
vt 0.4999 0.1878
vt 0.562 0.1878
vt 0.562 0.1543
vt 0.562 0.0304
vt 0.562 0.0047
vt 0.4999 0.0047
vt 0.4999 0.2067
vt 0.4379 0.2067
vt 0.4379 0.2169
vt 0.4999 0.2169
vt 0.4379 0.3263
vt 0.4999 0.3263
vt 0.4999 0.1905
vt 0.562 0.1905
vt 0.562 0.2067
vt 0.2516 0.1878
vt 0.3137 0.1878
vt 0.3137 0.1543
vt 0.2516 0.1543
vt 0.2516 0.0304
vt 0.3137 0.0304
vt 0.3137 0.0047
vt 0.2516 0.0047
vt 0.2516 0.1905
vt 0.3137 0.1905
vt 0.2516 0.2067
vt 0.3137 0.2067
vt 0.2516 0.0638
vt 0.1896 0.0638
vt 0.1896 0.1543
vt 0.1896 0.0304
vt 0.1896 0.2067
vt 0.1896 0.2169
vt 0.2516 0.2169
vt 0.1896 0.3263
vt 0.2516 0.3263
vt 0.7482 0.0638
vt 0.6862 0.0638
vt 0.6862 0.1543
vt 0.7482 0.1543
vt 0.7482 0.0304
vt 0.6862 0.0304
vt 0.7482 0.2067
vt 0.6862 0.2067
vt 0.6862 0.2169
vt 0.7482 0.2169
vt 0.6862 0.3263
vt 0.7482 0.3263
vt 0.7482 0.1878
vt 0.8103 0.1878
vt 0.8103 0.1543
vt 0.8103 0.0304
vt 0.8103 0.0047
vt 0.7482 0.0047
vt 0.7482 0.1905
vt 0.8103 0.1905
vt 0.8103 0.2067
vt 0.8724 0.0638
vt 0.8103 0.0638
vt 0.8724 0.1543
vt 0.8724 0.0304
vt 0.1275 0.1878
vt 0.1896 0.1878
vt 0.1275 0.1543
vt 0.1275 0.0304
vt 0.1896 0.0047
vt 0.1275 0.0047
vt 0.1275 0.1905
vt 0.1896 0.1905
vt 0.1275 0.2067
vt 0.3758 0.0638
vt 0.3137 0.0638
vt 0.3758 0.1543
vt 0.3758 0.0304
vt 0.6241 0.1878
vt 0.6862 0.1878
vt 0.6241 0.1543
vt 0.6241 0.0304
vt 0.6862 0.0047
vt 0.6241 0.0047
vt 0.3758 0.2067
vt 0.3137 0.2169
vt 0.3758 0.2169
vt 0.3137 0.3263
vt 0.3758 0.3263
vt 0.6241 0.1905
vt 0.6862 0.1905
vt 0.6241 0.2067
vt 0.3758 0.1878
vt 0.4379 0.1878
vt 0.4379 0.0047
vt 0.3758 0.0047
vt 0.3758 0.1905
vt 0.4379 0.1905
vt 0.1275 0.0638
vt 0.0654 0.0638
vt 0.0654 0.2169
vt 0.1275 0.2169
vt 0.0654 0.3263
vt 0.1275 0.3263
vt 0.6241 0.0638
vt 0.562 0.0638
vt 0.562 0.2169
vt 0.6241 0.2169
vt 0.562 0.3263
vt 0.6241 0.3263
vt 0.8724 0.1878
vt 0.9345 0.1878
vt 0.8724 0.1905
vt 0.9345 0.1905
vt 0.8938 0.2067
vt 0.9345 0.1945
vt 0.8724 0.2067
vt 0.8724 0.0083
vt 0.8652 0.0047
vt 0.8103 0.2169
vt 0.8103 0.3263
vt 0.0033 0.0638
vt 0.0033 0.2169
vt 0.0033 0.3263
vt 0.9768 0.1878
vt 0.9965 0.186
vt 0.9768 0.1905
vt 0.9364 0.1543
vt 0.9364 0.0638
vt 0.9427 0.0332
vt 0.0635 0.1543
vt 0.0566 0.1878
vt 0.0522 0.0047
vt 0.0566 0.0304
vt 0.0566 0.1905
vt 0.0539 0.2067
vt 0.0635 0.0638
vt 0.0522 0.2169
vt 0.0522 0.3263
vt 0.8724 0.2132
vt 0.8652 0.2169
vt 0.8652 0.3263
vt 0.9345 0.0265
vt 0.9427 0.185
vn -0.7298 -0.1334 -0.6705
vn 0.7298 -0.1334 -0.6705
vn 0.7143 -0.0467 -0.6983
vn -0.7142 -0.0467 -0.6983
vn -1.0 -0.0 0.0
vn -1.0 -0.0 0.0
vn -1.0 0.0 0.0
vn 0.6941 -0.0281 0.7194
vn 0.6857 -0.142 0.7139
vn 0.7298 -0.1334 0.6705
vn 0.7195 -0.0307 0.6939
vn -1.0 -0.0 0.0
vn -0.6857 0.142 -0.7139
vn -0.6934 0.0259 -0.7201
vn -1.0 0.0 0.0
vn 0.3763 -0.036 0.9258
vn 0.3802 -0.1804 0.9071
vn 0.9281 -0.0726 0.3651
vn 0.9246 -0.0139 0.3806
vn -0.7298 -0.6836 0.0
vn -0.7298 -0.6705 0.1334
vn 0.7298 -0.6705 0.1334
vn 0.7298 -0.6836 -0.0
vn -1.0 -0.0 0.0
vn -1.0 -0.0 0.0
vn 0.6857 -0.7279 0.0
vn 0.6857 -0.7139 -0.142
vn 0.7298 -0.6705 -0.1334
vn -1.0 -0.0 0.0
vn -0.6857 0.7139 0.142
vn -0.6857 0.7279 0.0
vn 0.9281 -0.3722 0.0
vn 0.9281 -0.3651 0.0726
vn 0.6857 0.7139 -0.142
vn 0.6857 0.7279 -0.0
vn -0.6857 0.7139 -0.142
vn 0.3802 -0.9249 -0.0
vn 0.3802 -0.9071 -0.1804
vn 0.9281 -0.3651 -0.0726
vn 0.6857 -0.5147 0.5147
vn 0.6857 -0.6052 0.4044
vn 0.7298 -0.5684 0.3798
vn 0.7298 -0.4834 0.4834
vn -1.0 0.0 0.0
vn -1.0 0.0 0.0
vn -0.6857 0.6052 -0.4044
vn -0.6857 0.5147 -0.5147
vn 0.3802 -0.654 0.654
vn 0.3802 -0.769 0.5138
vn 0.9281 -0.2632 0.2632
vn 0.9281 -0.3095 0.2068
vn -0.7298 -0.4834 0.4834
vn -0.7298 -0.3798 0.5684
vn 0.7298 -0.3798 0.5684
vn -1.0 -0.0 0.0
vn 0.9281 -0.2068 0.3095
vn 0.6857 0.4044 -0.6052
vn 0.6857 0.5147 -0.5147
vn -0.6857 0.4044 -0.6052
vn -0.7298 -0.4834 -0.4834
vn -0.7298 -0.5684 -0.3798
vn 0.7298 -0.5684 -0.3798
vn 0.7298 -0.4834 -0.4834
vn -1.0 -0.0 0.0
vn -1.0 0.0 0.0
vn 0.9281 -0.2632 -0.2632
vn 0.9281 -0.3095 -0.2068
vn 0.6857 0.6052 0.4044
vn 0.6857 0.5147 0.5147
vn -0.6857 0.6052 0.4044
vn -0.6857 0.5147 0.5147
vn 0.6857 -0.5147 -0.5147
vn 0.6857 -0.4044 -0.6052
vn 0.7298 -0.3798 -0.5684
vn -1.0 0.0 0.0
vn -0.6857 0.4044 0.6052
vn 0.3802 -0.654 -0.654
vn 0.3802 -0.5139 -0.769
vn 0.9281 -0.2068 -0.3095
vn -0.7298 -0.2616 -0.6316
vn -0.7298 -0.3798 -0.5684
vn 0.7298 -0.2616 -0.6316
vn -1.0 0.0 0.0
vn 0.6857 -0.2785 0.6725
vn 0.6857 -0.4044 0.6052
vn 0.7298 -0.2616 0.6316
vn -1.0 -0.0 0.0
vn -0.6857 0.2786 -0.6725
vn 0.3802 -0.3539 0.8545
vn 0.3802 -0.5139 0.769
vn 0.9281 -0.1424 0.3439
vn -0.7298 -0.6316 0.2616
vn -0.7298 -0.5684 0.3798
vn 0.7298 -0.6316 0.2616
vn -1.0 0.0 0.0
vn 0.6857 -0.6725 -0.2786
vn 0.6857 -0.6052 -0.4044
vn 0.7298 -0.6316 -0.2616
vn -1.0 0.0 0.0
vn -0.6857 0.6725 0.2785
vn 0.9281 -0.3439 0.1424
vn 0.6857 0.6052 -0.4044
vn 0.6857 0.6725 -0.2785
vn -0.6857 0.6725 -0.2785
vn 0.3802 -0.8545 -0.354
vn 0.3802 -0.769 -0.5138
vn 0.9281 -0.3439 -0.1424
vn 0.6857 -0.6725 0.2785
vn 0.6857 -0.7139 0.142
vn 0.3802 -0.8545 0.3539
vn 0.3802 -0.9071 0.1804
vn -0.7298 -0.2616 0.6316
vn -0.7298 -0.1334 0.6705
vn 0.6857 0.142 -0.7139
vn 0.6857 0.2786 -0.6725
vn -0.7298 -0.6316 -0.2616
vn -0.7298 -0.6705 -0.1334
vn 0.6857 0.7139 0.142
vn 0.6857 0.6725 0.2786
vn 0.6857 -0.2786 -0.6725
vn 0.6857 -0.142 -0.7139
vn 0.3802 -0.354 -0.8545
vn 0.3802 -0.1804 -0.9071
vn 0.9668 -0.2554 0.0
vn 0.9763 -0.2163 0.0
vn 0.9281 -0.1424 -0.3439
vn -1.0 0.0 0.0
vn -0.9631 0.2691 0.0
vn 0.6857 0.4044 0.6052
vn -0.7195 -0.0307 0.6939
vn 0.6934 0.0259 -0.7201
vn 0.9987 -0.0505 0.0
vn 1.0 -0.0 0.0
vn 0.512 -0.859 -0.0
vn 0.7149 -0.0247 -0.6988
vn -0.7149 -0.0247 -0.6988
vn 0.7049 0.0069 0.7093
vn 0.7116 0.0141 0.7025
vn -0.713 -0.0185 -0.7009
vn -1.0 0.0 0.0
vn 0.3687 0.0193 0.9293
vn 0.9162 0.0085 0.4005
vn -0.7049 0.007 0.7093
vn 0.713 -0.0185 -0.701
vn 1.0 -0.0 0.0
vn 0.9631 0.269 0.0
vn 1.0 0.0 0.0
vn 0.7143 -0.0467 0.6983
vn 0.7298 -0.1334 0.6705
vn -0.7298 -0.1334 0.6705
vn -0.7142 -0.0467 0.6983
vn -1.0 0.0 0.0
vn 0.7298 -0.1334 -0.6705
vn 0.6857 -0.142 -0.7139
vn 0.6941 -0.0281 -0.7194
vn 0.7195 -0.0307 -0.6939
vn -0.6934 0.0259 0.7201
vn -0.6857 0.142 0.7139
vn -1.0 -0.0 0.0
vn -1.0 0.0 0.0
vn 0.3802 -0.1804 -0.9071
vn 0.3762 -0.036 -0.9258
vn 0.9281 -0.0726 -0.3651
vn 0.9245 -0.0141 -0.3809
vn 0.7298 -0.6705 -0.1334
vn -0.7298 -0.6705 -0.1334
vn -0.7298 -0.6836 -0.0
vn 0.7298 -0.6836 0.0
vn -1.0 -0.0 0.0
vn -1.0 -0.0 0.0
vn 0.7298 -0.6705 0.1334
vn 0.6857 -0.7139 0.142
vn 0.6857 -0.7279 -0.0
vn -0.6857 0.7139 -0.142
vn -1.0 -0.0 0.0
vn -0.6857 0.7279 -0.0
vn 0.6857 0.7139 0.142
vn 0.9281 -0.3651 -0.0726
vn 0.9281 -0.3722 -0.0
vn 0.6857 0.7279 0.0
vn -0.6857 0.7139 0.142
vn 0.3802 -0.9071 0.1804
vn 0.3802 -0.9249 0.0
vn 0.9281 -0.3651 0.0726
vn 0.7298 -0.5684 -0.3798
vn 0.6857 -0.6052 -0.4044
vn 0.6857 -0.5147 -0.5147
vn 0.7298 -0.4834 -0.4834
vn -0.6857 0.6052 0.4044
vn -1.0 -0.0 0.0
vn -1.0 -0.0 0.0
vn -0.6857 0.5147 0.5147
vn 0.3802 -0.769 -0.5139
vn 0.3802 -0.654 -0.654
vn 0.9281 -0.3095 -0.2068
vn 0.9281 -0.2632 -0.2632
vn 0.7298 -0.3798 -0.5684
vn -0.7298 -0.3798 -0.5684
vn -0.7298 -0.4834 -0.4834
vn -1.0 -0.0 0.0
vn 0.6857 0.4044 0.6052
vn 0.9281 -0.2068 -0.3095
vn 0.6857 0.5147 0.5147
vn -0.6857 0.4044 0.6052
vn 0.7298 -0.5684 0.3798
vn -0.7298 -0.5684 0.3798
vn -0.7298 -0.4834 0.4834
vn 0.7298 -0.4834 0.4834
vn -1.0 -0.0 0.0
vn -1.0 -0.0 0.0
vn 0.6857 0.6052 -0.4044
vn 0.9281 -0.3095 0.2068
vn 0.9281 -0.2632 0.2632
vn 0.6857 0.5147 -0.5147
vn -0.6857 0.6052 -0.4044
vn -0.6857 0.5147 -0.5147
vn 0.7298 -0.3798 0.5684
vn 0.6857 -0.4044 0.6052
vn 0.6857 -0.5147 0.5147
vn -0.6857 0.4044 -0.6052
vn -1.0 0.0 0.0
vn 0.3802 -0.5138 0.7691
vn 0.3802 -0.654 0.654
vn 0.9281 -0.2068 0.3095
vn -0.7298 -0.3798 0.5684
vn -0.7298 -0.2616 0.6316
vn 0.7298 -0.2616 0.6316
vn -1.0 -0.0 0.0
vn 0.6857 -0.4044 -0.6052
vn 0.6857 -0.2785 -0.6725
vn 0.7298 -0.2616 -0.6316
vn -1.0 0.0 0.0
vn -0.6857 0.2786 0.6725
vn 0.3802 -0.5139 -0.769
vn 0.3802 -0.3539 -0.8545
vn 0.9281 -0.1424 -0.3439
vn -0.7298 -0.5684 -0.3798
vn -0.7298 -0.6316 -0.2616
vn 0.7298 -0.6316 -0.2616
vn -1.0 0.0 0.0
vn 0.6857 -0.6052 0.4044
vn 0.6857 -0.6725 0.2786
vn 0.7298 -0.6316 0.2616
vn -1.0 0.0 0.0
vn -0.6857 0.6725 -0.2785
vn 0.6857 0.6052 0.4044
vn 0.9281 -0.3439 -0.1424
vn 0.6857 0.6725 0.2785
vn -0.6857 0.6725 0.2785
vn 0.3802 -0.7691 0.5138
vn 0.3802 -0.8545 0.354
vn 0.9281 -0.3439 0.1424
vn 0.6857 -0.7139 -0.142
vn 0.6857 -0.6725 -0.2785
vn 0.3802 -0.9071 -0.1805
vn 0.3802 -0.8545 -0.3539
vn -0.7298 -0.1334 -0.6705
vn -0.7298 -0.2616 -0.6316
vn 0.6857 0.142 0.7139
vn 0.6857 0.2786 0.6725
vn -0.7298 -0.6705 0.1334
vn -0.7298 -0.6316 0.2616
vn 0.6857 0.7139 -0.142
vn 0.6857 0.6725 -0.2786
vn 0.6857 -0.142 0.7139
vn 0.6857 -0.2786 0.6725
vn 0.3802 -0.1804 0.9072
vn 0.3802 -0.354 0.8545
vn 0.9281 -0.1424 0.3439
vn 0.6857 0.4044 -0.6052
vn -0.7195 -0.0307 -0.6939
vn 0.6934 0.0259 0.7201
vn -0.7149 -0.0247 0.6988
vn 0.7149 -0.0247 0.6988
vn 0.7116 0.0141 -0.7025
vn 0.7049 0.0069 -0.7093
vn -1.0 -0.0 0.0
vn -0.713 -0.0185 0.7009
vn 0.3687 0.0193 -0.9293
vn 0.9165 0.0087 -0.4
vn -0.7049 0.0069 -0.7093
vn 0.713 -0.0185 0.701
vtan 0.0 -0.9808 0.195
vtan 0.0 -0.9808 0.1951
vtan 0.0159 -0.9964 0.0828
vtan -0.0157 -0.9965 0.0827
vtan 0.0 -0.9953 0.0966
vtan 0.0 -0.9954 0.0955
vtan -0.0 -0.9808 0.1951
vtan -0.0295 0.9973 0.0675
vtan -0.0 0.9808 0.1951
vtan -0.0 0.9808 0.1951
vtan -0.027 0.997 0.0721
vtan -0.0 0.9808 0.1951
vtan -0.0 0.9808 0.1951
vtan -0.0311 0.9973 0.0658
vtan 0.0 0.9952 0.098
vtan -0.0207 0.9987 0.0473
vtan -0.0 0.9808 0.1951
vtan 0.0 0.9808 0.1951
vtan -0.0217 0.9958 0.0891
vtan 0.0 0.0 1.0
vtan -0.0 0.1951 0.9808
vtan -0.0 0.1951 0.9808
vtan 0.0 -0.0 1.0
vtan 0.0 -0.0 1.0
vtan -0.0 0.1951 0.9808
vtan -0.0 0.0 1.0
vtan -0.0 -0.1951 0.9808
vtan -0.0 -0.1951 0.9808
vtan 0.0 -0.1951 0.9808
vtan -0.0 -0.1951 0.9808
vtan -0.0 -0.0 1.0
vtan -0.0 0.0 1.0
vtan -0.0 0.1951 0.9808
vtan -0.0 0.1951 0.9808
vtan -0.0 0.0 1.0
vtan 0.0 0.1951 0.9808
vtan -0.0 -0.0 1.0
vtan -0.0 -0.0 1.0
vtan -0.0 -0.1951 0.9808
vtan 0.0 -0.1951 0.9808
vtan -0.0 0.7071 0.7071
vtan 0.0 0.5556 0.8315
vtan 0.0 0.5556 0.8315
vtan 0.0 0.7071 0.7071
vtan 0.0 0.7071 0.7071
vtan 0.0 0.5556 0.8315
vtan -0.0 0.5556 0.8315
vtan -0.0 0.7071 0.7071
vtan -0.0 0.7071 0.7071
vtan 0.0 0.5556 0.8315
vtan -0.0 0.7071 0.7071
vtan 0.0 0.5556 0.8315
vtan 0.0 0.7071 0.7071
vtan -0.0 0.8315 0.5556
vtan -0.0 0.8315 0.5556
vtan -0.0 0.8315 0.5556
vtan 0.0 0.8315 0.5556
vtan 0.0 0.8315 0.5556
vtan -0.0 0.7071 0.7071
vtan -0.0 0.8315 0.5556
vtan -0.0 0.7071 0.7071
vtan -0.0 -0.7071 0.7071
vtan -0.0 -0.5556 0.8315
vtan 0.0 -0.5556 0.8315
vtan 0.0 -0.7071 0.7071
vtan 0.0 -0.7071 0.7071
vtan -0.0 -0.5556 0.8315
vtan 0.0 -0.7071 0.7071
vtan -0.0 -0.5556 0.8315
vtan -0.0 -0.5556 0.8315
vtan -0.0 -0.7071 0.7071
vtan -0.0 -0.5556 0.8315
vtan -0.0 -0.7071 0.7071
vtan -0.0 -0.7071 0.7071
vtan 0.0 -0.8315 0.5556
vtan 0.0 -0.8315 0.5556
vtan -0.0 -0.8315 0.5556
vtan -0.0 -0.8315 0.5556
vtan -0.0 -0.7071 0.7071
vtan -0.0 -0.7071 0.7071
vtan 0.0 -0.8315 0.5556
vtan 0.0 -0.8314 0.5557
vtan 0.0 -0.9239 0.3827
vtan -0.0 -0.8315 0.5556
vtan -0.0 -0.9239 0.3827
vtan -0.0 -0.924 0.3823
vtan -0.0 0.9239 0.3827
vtan 0.0 0.8315 0.5556
vtan -0.0 0.9239 0.3827
vtan -0.0 0.9239 0.3827
vtan -0.0 0.8315 0.5556
vtan -0.0 0.9239 0.3827
vtan -0.0 0.9239 0.3827
vtan 0.0 0.8315 0.5556
vtan 0.0 0.9239 0.3827
vtan -0.0 0.3827 0.9239
vtan -0.0 0.5556 0.8315
vtan -0.0 0.3827 0.9239
vtan 0.0 0.3827 0.9239
vtan 0.0 -0.3827 0.9239
vtan -0.0 -0.5556 0.8315
vtan -0.0 -0.3827 0.9239
vtan -0.0 -0.3827 0.9239
vtan -0.0 -0.5556 0.8315
vtan -0.0 -0.3827 0.9239
vtan -0.0 0.3827 0.9239
vtan 0.0 0.5556 0.8315
vtan -0.0 0.3827 0.9239
vtan -0.0 0.5556 0.8315
vtan 0.0 0.3827 0.9239
vtan 0.0 -0.3827 0.9239
vtan -0.0 -0.5556 0.8315
vtan -0.0 -0.3827 0.9239
vtan 0.0 0.3827 0.9239
vtan -0.0 0.1951 0.9808
vtan 0.0 0.1951 0.9808
vtan 0.0 0.3827 0.9239
vtan 0.0 0.3827 0.9239
vtan -0.0 0.1951 0.9808
vtan -0.0 0.9239 0.3827
vtan -0.0 0.9808 0.1951
vtan 0.0 0.9808 0.1951
vtan -0.0 0.9239 0.3827
vtan -0.0 0.9808 0.1951
vtan -0.0 0.9239 0.3827
vtan -0.0 -0.3827 0.9239
vtan -0.0 -0.1951 0.9808
vtan 0.0 -0.1951 0.9808
vtan -0.0 -0.3827 0.9239
vtan 0.0 -0.1951 0.9808
vtan -0.0 -0.3827 0.9239
vtan -0.0 -0.9239 0.3827
vtan 0.0 -0.9808 0.1951
vtan -0.0 -0.9239 0.3827
vtan 0.0012 -0.9807 0.1956
vtan -0.2437 -0.9224 0.2995
vtan -0.2106 -0.9505 0.2284
vtan 0.0 -0.9239 0.3827
vtan 0.0 -0.9166 0.3998
vtan -0.2357 -0.8437 0.4823
vtan -0.0001 -0.8314 0.5556
vtan -0.0 -0.8315 0.5556
vtan 0.027 0.997 0.0721
vtan 0.0311 0.9973 0.0658
vtan -0.0311 0.9973 0.0658
vtan -0.0503 -0.9939 0.0986
vtan -0.0 -0.995 0.0995
vtan -0.8435 -0.5028 0.1889
vtan 0.0157 0.9986 -0.0507
vtan 0.0028 0.9995 -0.0324
vtan -0.0024 0.9995 -0.0328
vtan -0.0157 0.9986 -0.0507
vtan 0.0 0.9998 -0.0222
vtan -0.0 0.9995 -0.0307
vtan -0.0288 -0.9995 -0.0143
vtan 0.0 -1.0 0.0098
vtan 0.0018 -0.9998 0.0182
vtan -0.0295 -0.9995 -0.0106
vtan -0.0 -0.9998 0.0222
vtan -0.0311 -0.9995 -0.0059
vtan 0.0025 -0.9997 0.0239
vtan -0.0 -0.9999 0.0168
vtan 0.0003 -0.9998 0.0207
vtan -0.0211 -0.9993 -0.0303
vtan -0.0005 -0.9998 0.0223
vtan -0.0217 -0.9996 0.0161
vtan 0.0288 -0.9995 -0.0143
vtan -0.0 -1.0 0.0098
vtan -0.0005 -0.9997 0.0258
vtan 0.0311 -0.9995 -0.0059
vtan 0.0 -0.9997 0.0264
vtan -0.0311 -0.9995 -0.0059
vtan -0.0 -0.9142 0.4053
vtan 0.2352 -0.8421 0.4853
vtan -0.2352 -0.8421 0.4853
vtan 0.0 -0.9783 0.2071
vtan 0.0 0.9996 -0.0299
vtan 0.0 0.9998 -0.0201
vtan 0.0159 -0.9964 -0.0828
vtan -0.0 -0.9808 -0.1951
vtan 0.0 -0.9808 -0.195
vtan -0.0157 -0.9965 -0.0827
vtan -0.0 -0.9808 -0.1951
vtan 0.0 -0.9954 -0.0955
vtan 0.0 -0.9953 -0.0966
vtan 0.0 0.9808 -0.1951
vtan -0.0 0.9808 -0.1951
vtan -0.0295 0.9973 -0.0675
vtan -0.027 0.997 -0.0721
vtan -0.0311 0.9973 -0.0658
vtan -0.0 0.9808 -0.1951
vtan -0.0 0.9808 -0.1951
vtan 0.0 0.9952 -0.098
vtan 0.0 0.9808 -0.1951
vtan -0.0207 0.9987 -0.0473
vtan 0.0 0.9808 -0.1951
vtan -0.0215 0.9958 -0.0892
vtan -0.0 0.1951 -0.9808
vtan -0.0 0.1951 -0.9808
vtan 0.0 0.0 -1.0
vtan 0.0 -0.0 -1.0
vtan -0.0 0.1951 -0.9808
vtan -0.0 0.0 -1.0
vtan -0.0 -0.1951 -0.9808
vtan -0.0 -0.1951 -0.9808
vtan -0.0 0.0 -1.0
vtan -0.0 -0.1951 -0.9808
vtan 0.0 -0.1951 -0.9808
vtan -0.0 -0.0 -1.0
vtan -0.0 0.1951 -0.9808
vtan -0.0 0.1951 -0.9808
vtan 0.0 0.0 -1.0
vtan -0.0 0.0 -1.0
vtan -0.0 0.1951 -0.9808
vtan -0.0 -0.0 -1.0
vtan -0.0 -0.1951 -0.9808
vtan -0.0 -0.0 -1.0
vtan -0.0 -0.1951 -0.9808
vtan 0.0 0.5556 -0.8315
vtan -0.0 0.5556 -0.8315
vtan -0.0 0.7071 -0.7071
vtan 0.0 0.7071 -0.7071
vtan -0.0 0.5556 -0.8315
vtan -0.0 0.5556 -0.8315
vtan -0.0 0.7071 -0.7071
vtan -0.0 0.7071 -0.7071
vtan -0.0 0.5556 -0.8315
vtan -0.0 0.7071 -0.7071
vtan -0.0 0.5556 -0.8315
vtan 0.0 0.7071 -0.7071
vtan -0.0 0.8315 -0.5556
vtan -0.0 0.8315 -0.5556
vtan 0.0 0.7071 -0.7071
vtan -0.0 0.8315 -0.5556
vtan 0.0 0.8315 -0.5556
vtan 0.0 0.8315 -0.5556
vtan 0.0 0.7071 -0.7071
vtan -0.0 0.8315 -0.5556
vtan -0.0 0.7071 -0.7071
vtan -0.0 -0.5556 -0.8315
vtan 0.0 -0.5556 -0.8315
vtan 0.0 -0.7071 -0.7071
vtan -0.0 -0.7071 -0.7071
vtan 0.0 -0.5556 -0.8315
vtan 0.0 -0.7071 -0.7071
vtan -0.0 -0.5556 -0.8315
vtan -0.0 -0.5556 -0.8315
vtan 0.0 -0.7071 -0.7071
vtan 0.0 -0.7071 -0.7071
vtan -0.0 -0.5556 -0.8315
vtan -0.0 -0.7071 -0.7071
vtan 0.0 -0.8315 -0.5556
vtan 0.0 -0.8315 -0.5555
vtan -0.0 -0.7071 -0.7071
vtan -0.0 -0.8315 -0.5556
vtan -0.0 -0.8315 -0.5556
vtan -0.0 -0.7071 -0.7071
vtan 0.0 -0.8315 -0.5555
vtan -0.0 -0.7071 -0.7071
vtan 0.0 -0.8314 -0.5557
vtan -0.0 -0.8315 -0.5556
vtan -0.0 -0.9239 -0.3827
vtan -0.0 -0.9239 -0.3827
vtan 0.0 -0.924 -0.3823
vtan 0.0 0.8315 -0.5556
vtan -0.0 0.9239 -0.3827
vtan -0.0 0.9239 -0.3827
vtan -0.0 0.8315 -0.5556
vtan 0.0 0.9239 -0.3827
vtan -0.0 0.9239 -0.3827
vtan 0.0 0.8315 -0.5556
vtan -0.0 0.9239 -0.3827
vtan -0.0 0.9239 -0.3827
vtan -0.0 0.5556 -0.8315
vtan -0.0 0.3827 -0.9239
vtan -0.0 0.3827 -0.9239
vtan 0.0 0.3827 -0.9239
vtan -0.0 -0.5555 -0.8315
vtan 0.0 -0.3827 -0.9239
vtan -0.0 -0.3827 -0.9239
vtan -0.0 -0.5556 -0.8315
vtan -0.0 -0.3827 -0.9239
vtan -0.0 -0.3827 -0.9239
vtan -0.0 0.5556 -0.8315
vtan -0.0 0.3827 -0.9239
vtan -0.0 0.3827 -0.9239
vtan -0.0 0.5556 -0.8315
vtan 0.0 0.3827 -0.9239
vtan -0.0 -0.5555 -0.8315
vtan 0.0 -0.3827 -0.9239
vtan -0.0 -0.3827 -0.9239
vtan -0.0 0.1951 -0.9808
vtan 0.0 0.3827 -0.9239
vtan 0.0 0.1951 -0.9808
vtan 0.0 0.3827 -0.9239
vtan -0.0 0.1951 -0.9808
vtan 0.0 0.3827 -0.9239
vtan -0.0 0.9808 -0.1951
vtan -0.0 0.9239 -0.3827
vtan 0.0 0.9808 -0.1951
vtan -0.0 0.9239 -0.3827
vtan -0.0 0.9808 -0.1951
vtan -0.0 0.9239 -0.3827
vtan -0.0 -0.1951 -0.9808
vtan -0.0 -0.3827 -0.9239
vtan 0.0 -0.1951 -0.9808
vtan -0.0 -0.3827 -0.9239
vtan -0.0 -0.1951 -0.9808
vtan -0.0 -0.3827 -0.9239
vtan 0.0 -0.9808 -0.1951
vtan -0.0 -0.9239 -0.3827
vtan 0.0012 -0.9807 -0.1956
vtan -0.0 -0.9239 -0.3827
vtan -0.2106 -0.9505 -0.2284
vtan -0.2437 -0.9224 -0.2995
vtan -0.0 -0.9239 -0.3827
vtan -0.2357 -0.8437 -0.4823
vtan 0.0 -0.9166 -0.3998
vtan -0.0001 -0.8314 -0.5556
vtan -0.0 -0.8315 -0.5556
vtan 0.027 0.997 -0.0721
vtan 0.0311 0.9973 -0.0658
vtan -0.0311 0.9973 -0.0658
vtan -0.0 -0.995 -0.0995
vtan -0.0503 -0.9939 -0.0986
vtan -0.8435 -0.5028 -0.1889
vtan -0.0024 0.9995 0.0328
vtan 0.0028 0.9995 0.0324
vtan 0.0157 0.9986 0.0507
vtan -0.0157 0.9986 0.0507
vtan -0.0 0.9995 0.0307
vtan 0.0 0.9998 0.0222
vtan -0.0288 -0.9995 0.0143
vtan -0.0295 -0.9995 0.0106
vtan 0.0018 -0.9998 -0.0181
vtan 0.0 -1.0 -0.0098
vtan -0.0 -0.9998 -0.0222
vtan 0.0 -0.9999 -0.0168
vtan 0.0025 -0.9997 -0.0239
vtan -0.0311 -0.9995 0.0059
vtan -0.0211 -0.9993 0.0303
vtan 0.0003 -0.9998 -0.0207
vtan -0.0002 -0.9997 -0.0224
vtan -0.0219 -0.9996 -0.016
vtan 0.0288 -0.9995 0.0143
vtan 0.0 -1.0 -0.0098
vtan 0.0311 -0.9995 0.0059
vtan -0.0005 -0.9997 -0.0258
vtan -0.0311 -0.9995 0.0059
vtan -0.0 -0.9997 -0.0264
vtan -0.0 -0.9142 -0.4053
vtan 0.2352 -0.8421 -0.4853
vtan -0.2352 -0.8421 -0.4853
vtan 0.0 -0.9783 -0.2071
vtan 0.0 0.9996 0.0299
vtan 0.0 0.9998 0.0201
f 0/0/0/0 1/1/1/1 2/2/2/2 
f 0/0/0/0 2/2/2/2 3/3/3/3 
f 0/0/0/0 6/4/4/4 4/5/5/5 
f 0/0/0/0 4/5/5/5 5/6/6/6 
f 6/4/4/4 0/0/0/0 3/3/3/3 
f 7/7/7/7 8/8/8/8 9/9/9/9 
f 7/7/7/7 9/9/9/9 10/10/10/10 
f 11/11/11/11 12/12/12/12 13/13/13/13 
f 11/11/11/11 13/13/13/13 14/14/14/14 
f 15/15/15/15 16/16/16/16 8/8/8/8 
f 15/15/15/15 8/8/8/8 7/7/7/7 
f 17/17/17/17 16/16/16/16 15/15/15/15 
f 17/17/17/17 15/15/15/15 18/18/18/18 
f 19/19/19/19 20/20/20/20 21/21/21/21 
f 19/19/19/19 21/21/21/21 22/22/22/22 
f 23/23/23/23 24/24/24/24 20/20/20/20 
f 23/23/23/23 20/20/20/20 19/19/19/19 
f 25/25/25/25 26/26/26/26 27/27/27/27 
f 25/25/25/25 27/27/27/27 22/22/22/22 
f 23/23/23/23 28/28/28/28 29/29/29/29 
f 23/23/23/23 29/29/29/29 30/30/30/30 
f 31/31/31/31 32/32/32/32 33/33/33/33 
f 31/31/31/31 33/33/33/33 34/34/34/34 
f 34/34/34/34 33/33/33/33 35/35/35/35 
f 34/34/34/34 35/35/35/35 30/36/30/36 
f 36/37/36/37 37/38/37/38 26/26/26/26 
f 36/37/36/37 26/26/26/26 25/25/25/25 
f 31/31/31/31 38/39/38/39 37/38/37/38 
f 31/31/31/31 37/38/37/38 36/37/36/37 
f 39/40/39/40 40/41/40/41 41/42/41/42 
f 39/40/39/40 41/42/41/42 42/43/42/43 
f 43/44/43/44 44/45/44/45 45/46/45/46 
f 43/44/43/44 45/46/45/46 46/47/46/47 
f 47/48/47/48 48/49/48/49 40/41/40/41 
f 47/48/47/48 40/41/40/41 39/40/39/40 
f 49/50/49/50 50/51/50/51 48/49/48/49 
f 49/50/49/50 48/49/48/49 47/48/47/48 
f 51/52/51/52 52/53/52/53 53/54/53/54 
f 51/52/51/52 53/54/53/54 42/43/42/43 
f 43/44/43/44 54/55/54/55 52/53/52/53 
f 43/44/43/44 52/53/52/53 51/52/51/52 
f 49/50/49/50 55/56/55/56 56/57/56/57 
f 49/50/49/50 56/57/56/57 57/58/57/58 
f 57/58/57/58 56/57/56/57 58/59/58/59 
f 57/58/57/58 58/59/58/59 46/60/46/60 
f 59/61/59/61 60/62/60/62 61/63/61/63 
f 59/61/59/61 61/63/61/63 62/64/62/64 
f 63/65/63/65 64/66/64/66 60/62/60/62 
f 63/65/63/65 60/62/60/62 59/61/59/61 
f 65/67/65/67 66/68/66/68 67/69/67/69 
f 65/67/65/67 67/69/67/69 68/70/68/70 
f 68/70/68/70 67/69/67/69 69/71/69/71 
f 68/70/68/70 69/71/69/71 70/72/70/72 
f 71/73/71/73 72/74/72/74 73/75/73/75 
f 71/73/71/73 73/75/73/75 62/64/62/64 
f 63/65/63/65 74/76/74/76 75/77/75/77 
f 63/65/63/65 75/77/75/77 70/78/70/78 
f 76/79/76/79 77/80/77/80 72/74/72/74 
f 76/79/76/79 72/74/72/74 71/73/71/73 
f 65/67/65/67 78/81/78/81 77/80/77/80 
f 65/67/65/67 77/80/77/80 76/79/76/79 
f 79/82/79/82 80/83/80/83 73/75/73/75 
f 79/82/79/82 73/75/73/75 81/84/81/84 
f 82/85/82/85 74/76/74/76 80/83/80/83 
f 82/85/82/85 80/83/80/83 79/82/79/82 
f 83/86/83/86 84/87/84/87 53/54/53/54 
f 83/86/83/86 53/54/53/54 85/88/85/88 
f 86/89/86/89 54/55/54/55 58/90/58/90 
f 86/89/86/89 58/90/58/90 87/91/87/91 
f 88/92/88/92 89/93/89/93 84/87/84/87 
f 88/92/88/92 84/87/84/87 83/86/83/86 
f 90/94/90/94 55/56/55/56 89/93/89/93 
f 90/94/90/94 89/93/89/93 88/92/88/92 
f 91/95/91/95 92/96/92/96 41/42/41/42 
f 91/95/91/95 41/42/41/42 93/97/93/97 
f 94/98/94/98 44/45/44/45 92/96/92/96 
f 94/98/94/98 92/96/92/96 91/95/91/95 
f 95/99/95/99 96/100/96/100 61/63/61/63 
f 95/99/95/99 61/63/61/63 97/101/97/101 
f 98/102/98/102 64/66/64/66 69/103/69/103 
f 98/102/98/102 69/103/69/103 99/104/99/104 
f 100/105/100/105 50/51/50/51 101/106/101/106 
f 100/105/100/105 101/106/101/106 102/107/102/107 
f 102/107/102/107 101/106/101/106 45/108/45/108 
f 102/107/102/107 45/108/45/108 103/109/103/109 
f 104/110/104/110 105/111/105/111 96/100/96/100 
f 104/110/104/110 96/100/96/100 95/99/95/99 
f 106/112/106/112 66/68/66/68 105/111/105/111 
f 106/112/106/112 105/111/105/111 104/110/104/110 
f 107/113/107/113 108/114/108/114 21/21/21/21 
f 107/113/107/113 21/21/21/21 93/97/93/97 
f 94/98/94/98 24/24/24/24 35/115/35/115 
f 94/98/94/98 35/115/35/115 103/116/103/116 
f 109/117/109/117 110/118/110/118 108/114/108/114 
f 109/117/109/117 108/114/108/114 107/113/107/113 
f 100/105/100/105 32/32/32/32 110/118/110/118 
f 100/105/100/105 110/118/110/118 109/117/109/117 
f 111/119/111/119 112/120/112/120 9/9/9/9 
f 111/119/111/119 9/9/9/9 85/88/85/88 
f 86/89/86/89 11/11/11/11 112/120/112/120 
f 86/89/86/89 112/120/112/120 111/119/111/119 
f 90/94/90/94 17/17/17/17 113/121/113/121 
f 90/94/90/94 113/121/113/121 114/122/114/122 
f 114/122/114/122 113/121/113/121 12/123/12/123 
f 114/122/114/122 12/123/12/123 87/124/87/124 
f 115/125/115/125 116/126/116/126 27/27/27/27 
f 115/125/115/125 27/27/27/27 97/101/97/101 
f 98/102/98/102 28/28/28/28 116/126/116/126 
f 98/102/98/102 116/126/116/126 115/125/115/125 
f 106/112/106/112 38/39/38/39 117/127/117/127 
f 106/112/106/112 117/127/117/127 118/128/118/128 
f 118/128/118/128 117/127/117/127 29/129/29/129 
f 118/128/118/128 29/129/29/129 99/130/99/130 
f 119/131/119/131 120/132/120/132 1/1/1/1 
f 119/131/119/131 1/1/1/1 81/84/81/84 
f 121/133/121/133 122/134/122/134 120/132/120/132 
f 121/133/121/133 120/132/120/132 119/131/119/131 
f 123/135/123/135 124/136/124/136 122/134/122/134 
f 123/135/123/135 122/134/122/134 125/137/125/137 
f 121/133/121/133 125/137/125/137 122/134/122/134 
f 0/0/0/0 79/82/79/82 81/84/81/84 
f 0/0/0/0 81/84/81/84 1/1/1/1 
f 79/82/79/82 0/0/0/0 5/6/6/6 
f 79/82/79/82 5/6/6/6 82/85/82/85 
f 8/8/8/8 83/86/83/86 85/88/85/88 
f 8/8/8/8 85/88/85/88 9/9/9/9 
f 11/11/11/11 86/89/86/89 87/91/87/91 
f 11/11/11/11 87/91/87/91 12/12/12/12 
f 16/16/16/16 88/92/88/92 83/86/83/86 
f 16/16/16/16 83/86/83/86 8/8/8/8 
f 17/17/17/17 90/94/90/94 88/92/88/92 
f 17/17/17/17 88/92/88/92 16/16/16/16 
f 20/20/20/20 91/95/91/95 93/97/93/97 
f 20/20/20/20 93/97/93/97 21/21/21/21 
f 24/24/24/24 94/98/94/98 91/95/91/95 
f 24/24/24/24 91/95/91/95 20/20/20/20 
f 26/26/26/26 95/99/95/99 97/101/97/101 
f 26/26/26/26 97/101/97/101 27/27/27/27 
f 28/28/28/28 98/102/98/102 99/104/99/104 
f 28/28/28/28 99/104/99/104 29/29/29/29 
f 32/32/32/32 100/105/100/105 102/107/102/107 
f 32/32/32/32 102/107/102/107 33/33/33/33 
f 33/33/33/33 102/107/102/107 103/109/103/109 
f 33/33/33/33 103/109/103/109 35/35/35/35 
f 37/38/37/38 104/110/104/110 95/99/95/99 
f 37/38/37/38 95/99/95/99 26/26/26/26 
f 38/39/38/39 106/112/106/112 104/110/104/110 
f 38/39/38/39 104/110/104/110 37/38/37/38 
f 40/41/40/41 107/113/107/113 93/97/93/97 
f 40/41/40/41 93/97/93/97 41/42/41/42 
f 44/45/44/45 94/98/94/98 103/116/103/116 
f 44/45/44/45 103/116/103/116 45/46/45/46 
f 48/49/48/49 109/117/109/117 107/113/107/113 
f 48/49/48/49 107/113/107/113 40/41/40/41 
f 50/51/50/51 100/105/100/105 109/117/109/117 
f 50/51/50/51 109/117/109/117 48/49/48/49 
f 52/53/52/53 111/119/111/119 85/88/85/88 
f 52/53/52/53 85/88/85/88 53/54/53/54 
f 54/55/54/55 86/89/86/89 111/119/111/119 
f 54/55/54/55 111/119/111/119 52/53/52/53 
f 55/56/55/56 90/94/90/94 114/122/114/122 
f 55/56/55/56 114/122/114/122 56/57/56/57 
f 56/57/56/57 114/122/114/122 87/124/87/124 
f 56/57/56/57 87/124/87/124 58/59/58/59 
f 60/62/60/62 115/125/115/125 97/101/97/101 
f 60/62/60/62 97/101/97/101 61/63/61/63 
f 64/66/64/66 98/102/98/102 115/125/115/125 
f 64/66/64/66 115/125/115/125 60/62/60/62 
f 66/68/66/68 106/112/106/112 118/128/118/128 
f 66/68/66/68 118/128/118/128 67/69/67/69 
f 67/69/67/69 118/128/118/128 99/130/99/130 
f 67/69/67/69 99/130/99/130 69/71/69/71 
f 72/74/72/74 119/131/119/131 81/84/81/84 
f 72/74/72/74 81/84/81/84 73/75/73/75 
f 82/85/82/85 126/138/126/138 127/139/127/139 
f 82/85/82/85 127/139/127/139 74/76/74/76 
f 75/77/75/77 74/76/74/76 127/139/127/139 
f 77/80/77/80 121/133/121/133 119/131/119/131 
f 77/80/77/80 119/131/119/131 72/74/72/74 
f 78/81/78/81 125/137/125/137 121/133/121/133 
f 78/81/78/81 121/133/121/133 77/80/77/80 
f 80/83/80/83 59/61/59/61 62/64/62/64 
f 80/83/80/83 62/64/62/64 73/75/73/75 
f 74/76/74/76 63/65/63/65 59/61/59/61 
f 74/76/74/76 59/61/59/61 80/83/80/83 
f 84/87/84/87 39/40/39/40 42/43/42/43 
f 84/87/84/87 42/43/42/43 53/54/53/54 
f 54/55/54/55 43/44/43/44 46/47/46/47 
f 54/55/54/55 46/47/46/47 58/90/58/90 
f 78/81/78/81 65/67/65/67 68/70/68/70 
f 78/81/78/81 68/70/68/70 128/140/128/140 
f 128/140/128/140 68/70/68/70 70/72/70/72 
f 128/140/128/140 70/72/70/72 75/141/75/141 
f 89/93/89/93 47/48/47/48 39/40/39/40 
f 89/93/89/93 39/40/39/40 84/87/84/87 
f 55/56/55/56 49/50/49/50 47/48/47/48 
f 55/56/55/56 47/48/47/48 89/93/89/93 
f 92/96/92/96 51/52/51/52 42/43/42/43 
f 92/96/92/96 42/43/42/43 41/42/41/42 
f 44/45/44/45 43/44/43/44 51/52/51/52 
f 44/45/44/45 51/52/51/52 92/96/92/96 
f 96/100/96/100 71/73/71/73 62/64/62/64 
f 96/100/96/100 62/64/62/64 61/63/61/63 
f 64/66/64/66 63/65/63/65 70/78/70/78 
f 64/66/64/66 70/78/70/78 69/103/69/103 
f 50/51/50/51 49/50/49/50 57/58/57/58 
f 50/51/50/51 57/58/57/58 101/106/101/106 
f 101/106/101/106 57/58/57/58 46/60/46/60 
f 101/106/101/106 46/60/46/60 45/108/45/108 
f 105/111/105/111 76/79/76/79 71/73/71/73 
f 105/111/105/111 71/73/71/73 96/100/96/100 
f 66/68/66/68 65/67/65/67 76/79/76/79 
f 66/68/66/68 76/79/76/79 105/111/105/111 
f 108/114/108/114 25/25/25/25 22/22/22/22 
f 108/114/108/114 22/22/22/22 21/21/21/21 
f 24/24/24/24 23/23/23/23 30/30/30/30 
f 24/24/24/24 30/30/30/30 35/115/35/115 
f 110/118/110/118 36/37/36/37 25/25/25/25 
f 110/118/110/118 25/25/25/25 108/114/108/114 
f 32/32/32/32 31/31/31/31 36/37/36/37 
f 32/32/32/32 36/37/36/37 110/118/110/118 
f 112/120/112/120 129/142/129/142 10/10/10/10 
f 112/120/112/120 10/10/10/10 9/9/9/9 
f 11/11/11/11 14/14/14/14 129/142/129/142 
f 11/11/11/11 129/142/129/142 112/120/112/120 
f 17/17/17/17 18/18/18/18 130/143/130/143 
f 17/17/17/17 130/143/130/143 113/121/113/121 
f 113/121/113/121 130/143/130/143 13/144/13/144 
f 113/121/113/121 13/144/13/144 12/123/12/123 
f 116/126/116/126 19/19/19/19 22/22/22/22 
f 116/126/116/126 22/22/22/22 27/27/27/27 
f 28/28/28/28 23/23/23/23 19/19/19/19 
f 28/28/28/28 19/19/19/19 116/126/116/126 
f 38/39/38/39 31/31/31/31 34/34/34/34 
f 38/39/38/39 34/34/34/34 117/127/117/127 
f 117/127/117/127 34/34/34/34 30/36/30/36 
f 117/127/117/127 30/36/30/36 29/129/29/129 
f 131/145/131/145 132/146/132/146 2/2/2/2 
f 131/145/131/145 2/2/2/2 120/132/120/132 
f 1/1/1/1 120/132/120/132 2/2/2/2 
f 122/134/122/134 133/147/133/147 131/145/131/145 
f 122/134/122/134 131/145/131/145 120/132/120/132 
f 122/134/122/134 124/136/124/136 133/147/133/147 
f 2/2/2/148 134/148/134/149 135/149/135/150 
f 2/2/2/148 135/149/135/150 3/3/3/151 
f 135/149/135/150 136/150/126/152 6/4/4/153 
f 135/149/135/150 6/4/4/153 3/3/3/151 
f 10/10/10/154 137/151/136/155 138/152/137/156 
f 10/10/10/154 138/152/137/156 7/7/7/157 
f 14/14/14/158 13/13/13/159 139/153/138/160 
f 14/14/14/158 139/153/138/160 140/154/139/161 
f 138/152/137/156 141/155/140/162 15/15/15/163 
f 138/152/137/156 15/15/15/163 7/7/7/157 
f 15/15/15/163 141/155/140/162 142/156/141/164 
f 15/15/15/163 142/156/141/164 18/18/18/165 
f 137/151/136/155 10/10/10/154 129/142/129/166 
f 137/151/136/155 129/142/129/166 143/157/142/167 
f 140/154/139/161 143/157/142/167 129/142/129/166 
f 140/154/139/161 129/142/129/166 14/14/14/158 
f 144/158/143/168 130/143/130/169 18/18/18/165 
f 144/158/143/168 18/18/18/165 142/156/141/164 
f 139/159/138/170 13/144/13/171 130/143/130/169 
f 139/159/138/170 130/143/130/169 144/158/143/168 
f 145/160/144/172 125/137/125/137 78/81/78/81 
f 145/160/144/172 78/81/78/81 128/140/128/140 
f 146/161/145/173 145/160/144/172 128/140/128/140 
f 146/161/145/173 128/140/128/140 75/141/75/141 
f 146/161/145/173 75/141/75/141 127/162/127/174 
f 147/163/126/175 126/138/126/138 82/85/82/85 
f 147/163/126/175 82/85/82/85 5/6/6/6 
f 145/160/144/172 123/135/123/135 125/137/125/137 
f 4/5/5/5 147/163/126/175 5/6/6/6 
f 132/146/132/176 148/164/146/177 134/148/134/149 
f 132/146/132/176 134/148/134/149 2/2/2/148 
f 149/2/147/178 150/1/148/179 151/0/149/180 
f 149/2/147/178 151/0/149/180 152/3/150/181 
f 151/0/149/180 153/6/151/182 4/5/5/183 
f 151/0/149/180 4/5/5/183 6/4/4/184 
f 152/3/150/181 151/0/149/180 6/4/4/184 
f 154/9/152/185 155/8/153/186 156/7/154/187 
f 154/9/152/185 156/7/154/187 157/10/155/188 
f 158/13/156/189 159/12/157/190 160/11/158/191 
f 158/13/156/189 160/11/158/191 161/14/159/192 
f 155/8/153/186 162/16/160/193 163/15/161/194 
f 155/8/153/186 163/15/161/194 156/7/154/187 
f 163/15/161/194 162/16/160/193 164/17/162/195 
f 163/15/161/194 164/17/162/195 165/18/163/196 
f 166/21/164/197 167/20/165/198 168/19/166/199 
f 166/21/164/197 168/19/166/199 169/22/167/200 
f 167/20/165/198 170/24/168/201 171/23/169/202 
f 167/20/165/198 171/23/169/202 168/19/166/199 
f 172/27/170/203 173/26/171/204 174/25/172/205 
f 172/27/170/203 174/25/172/205 169/22/167/200 
f 175/29/173/206 176/28/174/207 171/23/169/202 
f 175/29/173/206 171/23/169/202 177/30/175/208 
f 178/33/176/209 179/32/177/210 180/31/178/211 
f 178/33/176/209 180/31/178/211 181/34/179/212 
f 182/35/180/213 178/33/176/209 181/34/179/212 
f 182/35/180/213 181/34/179/212 177/36/175/214 
f 173/26/171/204 183/38/181/215 184/37/182/216 
f 173/26/171/204 184/37/182/216 174/25/172/205 
f 183/38/181/215 185/39/183/217 180/31/178/211 
f 183/38/181/215 180/31/178/211 184/37/182/216 
f 186/42/184/218 187/41/185/219 188/40/186/220 
f 186/42/184/218 188/40/186/220 189/43/187/221 
f 190/46/188/222 191/45/189/223 192/44/190/224 
f 190/46/188/222 192/44/190/224 193/47/191/225 
f 187/41/185/219 194/49/192/226 195/48/193/227 
f 187/41/185/219 195/48/193/227 188/40/186/220 
f 194/49/192/226 196/51/194/228 197/50/195/229 
f 194/49/192/226 197/50/195/229 195/48/193/227 
f 198/54/196/230 199/53/197/231 200/52/198/232 
f 198/54/196/230 200/52/198/232 189/43/187/221 
f 199/53/197/231 201/55/199/233 192/44/190/224 
f 199/53/197/231 192/44/190/224 200/52/198/232 
f 202/57/200/234 203/56/201/235 197/50/195/229 
f 202/57/200/234 197/50/195/229 204/58/202/236 
f 205/59/203/237 202/57/200/234 204/58/202/236 
f 205/59/203/237 204/58/202/236 193/60/191/238 
f 206/63/204/239 207/62/205/240 208/61/206/241 
f 206/63/204/239 208/61/206/241 209/64/207/242 
f 207/62/205/240 210/66/208/243 211/65/209/244 
f 207/62/205/240 211/65/209/244 208/61/206/241 
f 212/69/210/245 213/68/211/246 214/67/212/247 
f 212/69/210/245 214/67/212/247 215/70/213/248 
f 216/71/214/249 212/69/210/245 215/70/213/248 
f 216/71/214/249 215/70/213/248 217/72/215/250 
f 218/75/216/251 219/74/217/252 220/73/218/253 
f 218/75/216/251 220/73/218/253 209/64/207/242 
f 221/77/219/254 222/76/220/255 211/65/209/244 
f 221/77/219/254 211/65/209/244 217/78/215/256 
f 219/74/217/252 223/80/221/257 224/79/222/258 
f 219/74/217/252 224/79/222/258 220/73/218/253 
f 223/80/221/257 225/81/223/259 214/67/212/247 
f 223/80/221/257 214/67/212/247 224/79/222/258 
f 218/75/216/251 226/83/224/260 227/82/225/261 
f 218/75/216/251 227/82/225/261 228/84/226/262 
f 226/83/224/260 222/76/220/255 229/85/227/263 
f 226/83/224/260 229/85/227/263 227/82/225/261 
f 198/54/196/230 230/87/228/264 231/86/229/265 
f 198/54/196/230 231/86/229/265 232/88/230/266 
f 205/90/203/267 201/55/199/233 233/89/231/268 
f 205/90/203/267 233/89/231/268 234/91/232/269 
f 230/87/228/264 235/93/233/270 236/92/234/271 
f 230/87/228/264 236/92/234/271 231/86/229/265 
f 235/93/233/270 203/56/201/235 237/94/235/272 
f 235/93/233/270 237/94/235/272 236/92/234/271 
f 186/42/184/218 238/96/236/273 239/95/237/274 
f 186/42/184/218 239/95/237/274 240/97/238/275 
f 238/96/236/273 191/45/189/223 241/98/239/276 
f 238/96/236/273 241/98/239/276 239/95/237/274 
f 206/63/204/239 242/100/240/277 243/99/241/278 
f 206/63/204/239 243/99/241/278 244/101/242/279 
f 216/103/214/280 210/66/208/243 245/102/243/281 
f 216/103/214/280 245/102/243/281 246/104/244/282 
f 247/106/245/283 196/51/194/228 248/105/246/284 
f 247/106/245/283 248/105/246/284 249/107/247/285 
f 190/108/188/286 247/106/245/283 249/107/247/285 
f 190/108/188/286 249/107/247/285 250/109/248/287 
f 242/100/240/277 251/111/249/288 252/110/250/289 
f 242/100/240/277 252/110/250/289 243/99/241/278 
f 251/111/249/288 213/68/211/246 253/112/251/290 
f 251/111/249/288 253/112/251/290 252/110/250/289 
f 166/21/164/197 254/114/252/291 255/113/253/292 
f 166/21/164/197 255/113/253/292 240/97/238/275 
f 182/115/180/293 170/24/168/201 241/98/239/276 
f 182/115/180/293 241/98/239/276 250/116/248/294 
f 254/114/252/291 256/118/254/295 257/117/255/296 
f 254/114/252/291 257/117/255/296 255/113/253/292 
f 256/118/254/295 179/32/177/210 248/105/246/284 
f 256/118/254/295 248/105/246/284 257/117/255/296 
f 154/9/152/185 258/120/256/297 259/119/257/298 
f 154/9/152/185 259/119/257/298 232/88/230/266 
f 258/120/256/297 160/11/158/191 233/89/231/268 
f 258/120/256/297 233/89/231/268 259/119/257/298 
f 260/121/258/299 164/17/162/195 237/94/235/272 
f 260/121/258/299 237/94/235/272 261/122/259/300 
f 159/123/157/301 260/121/258/299 261/122/259/300 
f 159/123/157/301 261/122/259/300 234/124/232/302 
f 172/27/170/203 262/126/260/303 263/125/261/304 
f 172/27/170/203 263/125/261/304 244/101/242/279 
f 262/126/260/303 176/28/174/207 245/102/243/281 
f 262/126/260/303 245/102/243/281 263/125/261/304 
f 264/127/262/305 185/39/183/217 253/112/251/290 
f 264/127/262/305 253/112/251/290 265/128/263/306 
f 175/129/173/307 264/127/262/305 265/128/263/306 
f 175/129/173/307 265/128/263/306 246/130/244/308 
f 150/1/148/179 266/132/264/309 267/131/265/310 
f 150/1/148/179 267/131/265/310 228/84/226/262 
f 266/132/264/309 268/134/266/311 269/133/267/312 
f 266/132/264/309 269/133/267/312 267/131/265/310 
f 268/134/266/311 124/136/124/313 123/135/123/314 
f 268/134/266/311 123/135/123/314 270/137/268/315 
f 269/133/267/312 268/134/266/311 270/137/268/315 
f 228/84/226/262 227/82/225/261 151/0/149/180 
f 228/84/226/262 151/0/149/180 150/1/148/179 
f 227/82/225/261 229/85/227/263 153/6/151/182 
f 227/82/225/261 153/6/151/182 151/0/149/180 
f 232/88/230/266 231/86/229/265 155/8/153/186 
f 232/88/230/266 155/8/153/186 154/9/152/185 
f 234/91/232/269 233/89/231/268 160/11/158/191 
f 234/91/232/269 160/11/158/191 159/12/157/190 
f 231/86/229/265 236/92/234/271 162/16/160/193 
f 231/86/229/265 162/16/160/193 155/8/153/186 
f 236/92/234/271 237/94/235/272 164/17/162/195 
f 236/92/234/271 164/17/162/195 162/16/160/193 
f 240/97/238/275 239/95/237/274 167/20/165/198 
f 240/97/238/275 167/20/165/198 166/21/164/197 
f 239/95/237/274 241/98/239/276 170/24/168/201 
f 239/95/237/274 170/24/168/201 167/20/165/198 
f 244/101/242/279 243/99/241/278 173/26/171/204 
f 244/101/242/279 173/26/171/204 172/27/170/203 
f 246/104/244/282 245/102/243/281 176/28/174/207 
f 246/104/244/282 176/28/174/207 175/29/173/206 
f 249/107/247/285 248/105/246/284 179/32/177/210 
f 249/107/247/285 179/32/177/210 178/33/176/209 
f 250/109/248/287 249/107/247/285 178/33/176/209 
f 250/109/248/287 178/33/176/209 182/35/180/213 
f 243/99/241/278 252/110/250/289 183/38/181/215 
f 243/99/241/278 183/38/181/215 173/26/171/204 
f 252/110/250/289 253/112/251/290 185/39/183/217 
f 252/110/250/289 185/39/183/217 183/38/181/215 
f 240/97/238/275 255/113/253/292 187/41/185/219 
f 240/97/238/275 187/41/185/219 186/42/184/218 
f 250/116/248/294 241/98/239/276 191/45/189/223 
f 250/116/248/294 191/45/189/223 190/46/188/222 
f 255/113/253/292 257/117/255/296 194/49/192/226 
f 255/113/253/292 194/49/192/226 187/41/185/219 
f 257/117/255/296 248/105/246/284 196/51/194/228 
f 257/117/255/296 196/51/194/228 194/49/192/226 
f 232/88/230/266 259/119/257/298 199/53/197/231 
f 232/88/230/266 199/53/197/231 198/54/196/230 
f 259/119/257/298 233/89/231/268 201/55/199/233 
f 259/119/257/298 201/55/199/233 199/53/197/231 
f 261/122/259/300 237/94/235/272 203/56/201/235 
f 261/122/259/300 203/56/201/235 202/57/200/234 
f 234/124/232/302 261/122/259/300 202/57/200/234 
f 234/124/232/302 202/57/200/234 205/59/203/237 
f 244/101/242/279 263/125/261/304 207/62/205/240 
f 244/101/242/279 207/62/205/240 206/63/204/239 
f 263/125/261/304 245/102/243/281 210/66/208/243 
f 263/125/261/304 210/66/208/243 207/62/205/240 
f 265/128/263/306 253/112/251/290 213/68/211/246 
f 265/128/263/306 213/68/211/246 212/69/210/245 
f 246/130/244/308 265/128/263/306 212/69/210/245 
f 246/130/244/308 212/69/210/245 216/71/214/249 
f 228/84/226/262 267/131/265/310 219/74/217/252 
f 228/84/226/262 219/74/217/252 218/75/216/251 
f 127/139/127/316 126/138/126/317 229/85/227/263 
f 127/139/127/316 229/85/227/263 222/76/220/255 
f 221/77/219/254 127/139/127/316 222/76/220/255 
f 267/131/265/310 269/133/267/312 223/80/221/257 
f 267/131/265/310 223/80/221/257 219/74/217/252 
f 269/133/267/312 270/137/268/315 225/81/223/259 
f 269/133/267/312 225/81/223/259 223/80/221/257 
f 209/64/207/242 208/61/206/241 226/83/224/260 
f 209/64/207/242 226/83/224/260 218/75/216/251 
f 208/61/206/241 211/65/209/244 222/76/220/255 
f 208/61/206/241 222/76/220/255 226/83/224/260 
f 189/43/187/221 188/40/186/220 230/87/228/264 
f 189/43/187/221 230/87/228/264 198/54/196/230 
f 193/47/191/225 192/44/190/224 201/55/199/233 
f 193/47/191/225 201/55/199/233 205/90/203/267 
f 215/70/213/248 214/67/212/247 225/81/223/259 
f 215/70/213/248 225/81/223/259 271/140/269/318 
f 217/72/215/250 215/70/213/248 271/140/269/318 
f 217/72/215/250 271/140/269/318 221/141/219/319 
f 188/40/186/220 195/48/193/227 235/93/233/270 
f 188/40/186/220 235/93/233/270 230/87/228/264 
f 195/48/193/227 197/50/195/229 203/56/201/235 
f 195/48/193/227 203/56/201/235 235/93/233/270 
f 189/43/187/221 200/52/198/232 238/96/236/273 
f 189/43/187/221 238/96/236/273 186/42/184/218 
f 200/52/198/232 192/44/190/224 191/45/189/223 
f 200/52/198/232 191/45/189/223 238/96/236/273 
f 209/64/207/242 220/73/218/253 242/100/240/277 
f 209/64/207/242 242/100/240/277 206/63/204/239 
f 217/78/215/256 211/65/209/244 210/66/208/243 
f 217/78/215/256 210/66/208/243 216/103/214/280 
f 204/58/202/236 197/50/195/229 196/51/194/228 
f 204/58/202/236 196/51/194/228 247/106/245/283 
f 193/60/191/238 204/58/202/236 247/106/245/283 
f 193/60/191/238 247/106/245/283 190/108/188/286 
f 220/73/218/253 224/79/222/258 251/111/249/288 
f 220/73/218/253 251/111/249/288 242/100/240/277 
f 224/79/222/258 214/67/212/247 213/68/211/246 
f 224/79/222/258 213/68/211/246 251/111/249/288 
f 169/22/167/200 174/25/172/205 254/114/252/291 
f 169/22/167/200 254/114/252/291 166/21/164/197 
f 177/30/175/208 171/23/169/202 170/24/168/201 
f 177/30/175/208 170/24/168/201 182/115/180/293 
f 174/25/172/205 184/37/182/216 256/118/254/295 
f 174/25/172/205 256/118/254/295 254/114/252/291 
f 184/37/182/216 180/31/178/211 179/32/177/210 
f 184/37/182/216 179/32/177/210 256/118/254/295 
f 157/10/155/188 272/142/270/320 258/120/256/297 
f 157/10/155/188 258/120/256/297 154/9/152/185 
f 272/142/270/320 161/14/159/192 160/11/158/191 
f 272/142/270/320 160/11/158/191 258/120/256/297 
f 273/143/271/321 165/18/163/196 164/17/162/195 
f 273/143/271/321 164/17/162/195 260/121/258/299 
f 158/144/156/322 273/143/271/321 260/121/258/299 
f 158/144/156/322 260/121/258/299 159/123/157/301 
f 169/22/167/200 168/19/166/199 262/126/260/303 
f 169/22/167/200 262/126/260/303 172/27/170/203 
f 168/19/166/199 171/23/169/202 176/28/174/207 
f 168/19/166/199 176/28/174/207 262/126/260/303 
f 181/34/179/212 180/31/178/211 185/39/183/217 
f 181/34/179/212 185/39/183/217 264/127/262/305 
f 177/36/175/214 181/34/179/212 264/127/262/305 
f 177/36/175/214 264/127/262/305 175/129/173/307 
f 149/2/147/178 132/146/132/323 131/145/131/324 
f 149/2/147/178 131/145/131/324 266/132/264/309 
f 150/1/148/179 149/2/147/178 266/132/264/309 
f 131/145/131/324 133/147/133/325 268/134/266/311 
f 131/145/131/324 268/134/266/311 266/132/264/309 
f 268/134/266/311 133/147/133/325 124/136/124/313 
f 274/149/272/326 275/148/273/327 149/2/147/328 
f 274/149/272/326 149/2/147/328 152/3/150/329 
f 6/4/4/330 136/150/126/331 274/149/272/326 
f 6/4/4/330 274/149/272/326 152/3/150/329 
f 157/10/155/332 156/7/154/333 276/152/274/334 
f 157/10/155/332 276/152/274/334 277/151/275/335 
f 161/14/159/336 278/154/276/337 279/153/277/338 
f 161/14/159/336 279/153/277/338 158/13/156/339 
f 163/15/161/340 280/155/278/341 276/152/274/334 
f 163/15/161/340 276/152/274/334 156/7/154/333 
f 281/156/279/342 280/155/278/341 163/15/161/340 
f 281/156/279/342 163/15/161/340 165/18/163/343 
f 272/142/270/344 157/10/155/332 277/151/275/335 
f 272/142/270/344 277/151/275/335 282/157/280/345 
f 278/154/276/337 161/14/159/336 272/142/270/344 
f 278/154/276/337 272/142/270/344 282/157/280/345 
f 165/18/163/343 273/143/271/346 283/158/281/347 
f 165/18/163/343 283/158/281/347 281/156/279/342 
f 273/143/271/346 158/144/156/348 279/159/277/349 
f 273/143/271/346 279/159/277/349 283/158/281/347 
f 225/81/223/259 270/137/268/315 145/160/144/350 
f 225/81/223/259 145/160/144/350 271/140/269/318 
f 146/161/145/351 271/140/269/318 145/160/144/350 
f 221/141/219/319 271/140/269/318 146/161/145/351 
f 221/141/219/319 146/161/145/351 127/162/127/352 
f 147/163/126/353 153/6/151/182 229/85/227/263 
f 147/163/126/353 229/85/227/263 126/138/126/317 
f 145/160/144/350 270/137/268/315 123/135/123/314 
f 4/5/5/183 153/6/151/182 147/163/126/353 
f 132/146/132/354 149/2/147/328 275/148/273/327 
f 132/146/132/354 275/148/273/327 148/164/146/355 
