v 422.2353 279.8812 199.0069
v 422.2353 280.1829 197.8808
v 462.3999 280.1829 197.8808
v 462.3999 279.8812 199.0069
v 422.2353 281.0073 197.0564
v 462.3999 281.0073 197.0564
v 422.2353 282.1334 196.7545
v 462.3999 282.1334 196.7545
v 422.2353 283.2596 197.0564
v 462.3999 283.2596 197.0564
v 422.2353 284.0839 197.8808
v 462.3999 284.0839 197.8808
v 422.2353 284.3857 199.0069
v 462.3999 284.3857 199.0069
v 422.2353 284.0839 200.1329
v 462.3999 284.0839 200.1329
v 422.2353 283.2596 200.9574
v 462.3999 283.2596 200.9574
v 422.2353 282.1334 201.259
v 462.3999 282.1334 201.259
v 422.2353 281.0073 200.9574
v 462.3999 281.0073 200.9574
v 422.2353 280.1829 200.1329
v 462.3999 280.1829 200.1329
v 382.0707 279.8812 199.0069
v 382.0707 280.1829 197.8808
v 382.0707 281.0073 197.0564
v 382.0707 282.1334 196.7545
v 382.0707 283.2596 197.0564
v 382.0707 284.0839 197.8808
v 382.0707 284.3857 199.0069
v 382.0707 284.0839 200.1329
v 382.0707 283.2596 200.9574
v 382.0707 282.1334 201.259
v 382.0707 281.0073 200.9574
v 382.0707 280.1829 200.1329
v 341.9061 279.8812 199.0069
v 341.9061 280.1829 197.8808
v 341.9061 281.0073 197.0564
v 341.9061 282.1334 196.7545
v 341.9061 283.2596 197.0564
v 341.9061 284.0839 197.8808
v 341.9061 284.3857 199.0069
v 341.9061 284.0839 200.1329
v 341.9061 283.2596 200.9574
v 341.9061 282.1334 201.259
v 341.9061 281.0073 200.9574
v 341.9061 280.1829 200.1329
v 307.4613 279.8812 199.0069
v 307.4613 280.1829 197.8808
v 307.4613 281.0073 197.0564
v 307.4613 282.1334 196.7545
v 307.4613 283.2596 197.0564
v 307.4613 284.0839 197.8808
v 307.4613 284.3857 199.0069
v 307.4613 284.0839 200.1329
v 307.4613 283.2596 200.9574
v 307.4613 282.1334 201.259
v 307.4613 281.0073 200.9574
v 307.4613 280.1829 200.1329
v 152.5228 280.1829 197.8808
v 192.6874 280.1829 197.8808
v 192.6874 279.8812 199.0069
v 152.5228 279.8812 199.0069
v 152.5228 281.0073 197.0564
v 192.6874 281.0073 197.0564
v 152.5228 282.1334 196.7545
v 192.6874 282.1334 196.7545
v 152.5228 283.2596 197.0564
v 192.6874 283.2596 197.0564
v 152.5228 284.0839 197.8808
v 192.6874 284.0839 197.8808
v 152.5228 284.3857 199.0069
v 192.6874 284.3857 199.0069
v 152.5228 284.0839 200.1329
v 192.6874 284.0839 200.1329
v 152.5228 283.2596 200.9574
v 192.6874 283.2596 200.9574
v 152.5228 282.1334 201.259
v 192.6874 282.1334 201.259
v 152.5228 281.0073 200.9574
v 192.6874 281.0073 200.9574
v 152.5228 280.1829 200.1329
v 192.6874 280.1829 200.1329
v 232.8519 280.1829 197.8808
v 232.8519 279.8812 199.0069
v 232.8519 281.0073 197.0564
v 232.8519 282.1334 196.7545
v 232.8519 283.2596 197.0564
v 232.8519 284.0839 197.8808
v 232.8519 284.3857 199.0069
v 232.8519 284.0839 200.1329
v 232.8519 283.2596 200.9574
v 232.8519 282.1334 201.259
v 232.8519 281.0073 200.9574
v 232.8519 280.1829 200.1329
v 273.0165 280.1829 197.8808
v 273.0166 279.8812 199.0069
v 273.0165 281.0073 197.0564
v 273.0165 282.1334 196.7545
v 273.0165 283.2596 197.0564
v 273.0165 284.0839 197.8808
v 273.0165 284.3857 199.0069
v 273.0165 284.0839 200.1329
v 273.0165 283.2596 200.9574
v 273.0165 282.1334 201.259
v 273.0165 281.0073 200.9574
v 273.0165 280.1829 200.1329
gi 0 0 0 0
gi 0 0 0 0
gi 0 0 0 0
gi 0 0 0 0
gi 0 0 0 0
gi 0 0 0 0
gi 0 0 0 0
gi 0 0 0 0
gi 0 0 0 0
gi 0 0 0 0
gi 0 0 0 0
gi 0 0 0 0
gi 0 0 0 0
gi 0 0 0 0
gi 0 0 0 0
gi 0 0 0 0
gi 0 0 0 0
gi 0 0 0 0
gi 0 0 0 0
gi 0 0 0 0
gi 0 0 0 0
gi 0 0 0 0
gi 0 0 0 0
gi 0 0 0 0
gi 0 0 0 0
gi 0 0 0 0
gi 0 0 0 0
gi 0 0 0 0
gi 0 0 0 0
gi 0 0 0 0
gi 0 0 0 0
gi 0 0 0 0
gi 0 0 0 0
gi 0 0 0 0
gi 0 0 0 0
gi 0 0 0 0
gi 0 0 0 0
gi 0 0 0 0
gi 0 0 0 0
gi 0 0 0 0
gi 0 0 0 0
gi 0 0 0 0
gi 0 0 0 0
gi 0 0 0 0
gi 0 0 0 0
gi 0 0 0 0
gi 0 0 0 0
gi 0 0 0 0
gi 0 0 0 0
gi 0 0 0 0
gi 0 0 0 0
gi 0 0 0 0
gi 0 0 0 0
gi 0 0 0 0
gi 0 0 0 0
gi 0 0 0 0
gi 0 0 0 0
gi 0 0 0 0
gi 0 0 0 0
gi 0 0 0 0
gi 0 0 0 0
gi 0 0 0 0
gi 0 0 0 0
gi 0 0 0 0
gi 0 0 0 0
gi 0 0 0 0
gi 0 0 0 0
gi 0 0 0 0
gi 0 0 0 0
gi 0 0 0 0
gi 0 0 0 0
gi 0 0 0 0
gi 0 0 0 0
gi 0 0 0 0
gi 0 0 0 0
gi 0 0 0 0
gi 0 0 0 0
gi 0 0 0 0
gi 0 0 0 0
gi 0 0 0 0
gi 0 0 0 0
gi 0 0 0 0
gi 0 0 0 0
gi 0 0 0 0
gi 0 0 0 0
gi 0 0 0 0
gi 0 0 0 0
gi 0 0 0 0
gi 0 0 0 0
gi 0 0 0 0
gi 0 0 0 0
gi 0 0 0 0
gi 0 0 0 0
gi 0 0 0 0
gi 0 0 0 0
gi 0 0 0 0
gi 0 0 0 0
gi 0 0 0 0
gi 0 0 0 0
gi 0 0 0 0
gi 0 0 0 0
gi 0 0 0 0
gi 0 0 0 0
gi 0 0 0 0
gi 0 0 0 0
gi 0 0 0 0
gi 0 0 0 0
gi 0 0 0 0
gw 0.0 0.0 0.0 0.0
gw 0.0 0.0 0.0 0.0
gw 0.0 0.0 0.0 0.0
gw 0.0 0.0 0.0 0.0
gw 0.0 0.0 0.0 0.0
gw 0.0 0.0 0.0 0.0
gw 0.0 0.0 0.0 0.0
gw 0.0 0.0 0.0 0.0
gw 0.0 0.0 0.0 0.0
gw 0.0 0.0 0.0 0.0
gw 0.0 0.0 0.0 0.0
gw 0.0 0.0 0.0 0.0
gw 0.0 0.0 0.0 0.0
gw 0.0 0.0 0.0 0.0
gw 0.0 0.0 0.0 0.0
gw 0.0 0.0 0.0 0.0
gw 0.0 0.0 0.0 0.0
gw 0.0 0.0 0.0 0.0
gw 0.0 0.0 0.0 0.0
gw 0.0 0.0 0.0 0.0
gw 0.0 0.0 0.0 0.0
gw 0.0 0.0 0.0 0.0
gw 0.0 0.0 0.0 0.0
gw 0.0 0.0 0.0 0.0
gw 0.0 0.0 0.0 0.0
gw 0.0 0.0 0.0 0.0
gw 0.0 0.0 0.0 0.0
gw 0.0 0.0 0.0 0.0
gw 0.0 0.0 0.0 0.0
gw 0.0 0.0 0.0 0.0
gw 0.0 0.0 0.0 0.0
gw 0.0 0.0 0.0 0.0
gw 0.0 0.0 0.0 0.0
gw 0.0 0.0 0.0 0.0
gw 0.0 0.0 0.0 0.0
gw 0.0 0.0 0.0 0.0
gw 0.0 0.0 0.0 0.0
gw 0.0 0.0 0.0 0.0
gw 0.0 0.0 0.0 0.0
gw 0.0 0.0 0.0 0.0
gw 0.0 0.0 0.0 0.0
gw 0.0 0.0 0.0 0.0
gw 0.0 0.0 0.0 0.0
gw 0.0 0.0 0.0 0.0
gw 0.0 0.0 0.0 0.0
gw 0.0 0.0 0.0 0.0
gw 0.0 0.0 0.0 0.0
gw 0.0 0.0 0.0 0.0
gw 0.0 0.0 0.0 0.0
gw 0.0 0.0 0.0 0.0
gw 0.0 0.0 0.0 0.0
gw 0.0 0.0 0.0 0.0
gw 0.0 0.0 0.0 0.0
gw 0.0 0.0 0.0 0.0
gw 0.0 0.0 0.0 0.0
gw 0.0 0.0 0.0 0.0
gw 0.0 0.0 0.0 0.0
gw 0.0 0.0 0.0 0.0
gw 0.0 0.0 0.0 0.0
gw 0.0 0.0 0.0 0.0
gw 0.0 0.0 0.0 0.0
gw 0.0 0.0 0.0 0.0
gw 0.0 0.0 0.0 0.0
gw 0.0 0.0 0.0 0.0
gw 0.0 0.0 0.0 0.0
gw 0.0 0.0 0.0 0.0
gw 0.0 0.0 0.0 0.0
gw 0.0 0.0 0.0 0.0
gw 0.0 0.0 0.0 0.0
gw 0.0 0.0 0.0 0.0
gw 0.0 0.0 0.0 0.0
gw 0.0 0.0 0.0 0.0
gw 0.0 0.0 0.0 0.0
gw 0.0 0.0 0.0 0.0
gw 0.0 0.0 0.0 0.0
gw 0.0 0.0 0.0 0.0
gw 0.0 0.0 0.0 0.0
gw 0.0 0.0 0.0 0.0
gw 0.0 0.0 0.0 0.0
gw 0.0 0.0 0.0 0.0
gw 0.0 0.0 0.0 0.0
gw 0.0 0.0 0.0 0.0
gw 0.0 0.0 0.0 0.0
gw 0.0 0.0 0.0 0.0
gw 0.0 0.0 0.0 0.0
gw 0.0 0.0 0.0 0.0
gw 0.0 0.0 0.0 0.0
gw 0.0 0.0 0.0 0.0
gw 0.0 0.0 0.0 0.0
gw 0.0 0.0 0.0 0.0
gw 0.0 0.0 0.0 0.0
gw 0.0 0.0 0.0 0.0
gw 0.0 0.0 0.0 0.0
gw 0.0 0.0 0.0 0.0
gw 0.0 0.0 0.0 0.0
gw 0.0 0.0 0.0 0.0
gw 0.0 0.0 0.0 0.0
gw 0.0 0.0 0.0 0.0
gw 0.0 0.0 0.0 0.0
gw 0.0 0.0 0.0 0.0
gw 0.0 0.0 0.0 0.0
gw 0.0 0.0 0.0 0.0
gw 0.0 0.0 0.0 0.0
gw 0.0 0.0 0.0 0.0
gw 0.0 0.0 0.0 0.0
gw 0.0 0.0 0.0 0.0
gw 0.0 0.0 0.0 0.0
gw 0.0 0.0 0.0 0.0
vt 0.9876 0.5241
vt 0.9633 0.5241
vt 0.9633 0.0053
vt 0.9876 0.0053
vt 0.9391 0.5241
vt 0.9391 0.0053
vt 0.9148 0.5241
vt 0.9148 0.0053
vt 0.8906 0.5241
vt 0.8906 0.0053
vt 0.8663 0.5241
vt 0.8663 0.0053
vt 0.8421 0.5241
vt 0.8421 0.0053
vt 0.8178 0.5241
vt 0.8178 0.0053
vt 0.7936 0.5241
vt 0.7936 0.0053
vt 0.7694 0.5241
vt 0.7694 0.0053
vt 0.7451 0.5241
vt 0.7451 0.0053
vt 0.7209 0.5241
vt 0.7209 0.0053
vt 0.6966 0.5241
vt 0.6966 0.0053
vt 0.9876 0.4502
vt 0.9633 0.4502
vt 0.9391 0.4502
vt 0.9148 0.4502
vt 0.8906 0.4502
vt 0.8663 0.4502
vt 0.8421 0.4502
vt 0.8178 0.4502
vt 0.7936 0.4502
vt 0.7694 0.4502
vt 0.7451 0.4502
vt 0.7209 0.4502
vt 0.6966 0.4502
vn 0.0 -1.0 0.0
vn 0.0 -0.866 -0.5
vn 0.0 -0.866 -0.5
vn 0.0 -1.0 0.0
vn 0.0 -0.5 -0.866
vn 0.0 -0.5 -0.866
vn 0.0 -0.0 -1.0
vn 0.0 -0.0 -1.0
vn 0.0 0.5 -0.866
vn 0.0 0.5 -0.866
vn 0.0 0.866 -0.5
vn 0.0 0.866 -0.5
vn 0.0 1.0 0.0
vn 0.0 1.0 -0.0
vn 0.0 0.866 0.5
vn 0.0 0.866 0.5
vn 0.0 0.5 0.866
vn 0.0 0.5 0.866
vn 0.0 -0.0 1.0
vn 0.0 -0.0 1.0
vn 0.0 -0.5 0.866
vn 0.0 -0.5 0.866
vn 0.0 -0.866 0.5
vn 0.0 -0.866 0.5
vn 0.0 -1.0 -0.0
vn 0.0 -0.866 -0.5
vn 0.0 -0.5 -0.866
vn 0.0 -0.0 -1.0
vn 0.0 0.5 -0.866
vn 0.0 0.866 -0.5
vn 0.0 1.0 0.0
vn 0.0 0.866 0.5
vn 0.0 0.5 0.866
vn 0.0 -0.0 1.0
vn 0.0 -0.5 0.866
vn 0.0 -0.866 0.5
vn 0.0 -1.0 0.0
vn 0.0 -0.866 -0.5
vn 0.0 -0.5 -0.866
vn 0.0 -0.0 -1.0
vn 0.0 0.5 -0.866
vn 0.0 0.866 -0.5
vn 0.0 1.0 0.0
vn 0.0 0.866 0.5
vn 0.0 0.5 0.866
vn 0.0 -0.0 1.0
vn 0.0 -0.5 0.866
vn 0.0 -0.866 0.5
vn 0.0 -1.0 -0.0
vn 0.0 -0.866 -0.5
vn 0.0 -0.5 -0.866
vn 0.0 -0.0 -1.0
vn 0.0 0.5 -0.866
vn 0.0 0.866 -0.5
vn 0.0 1.0 0.0
vn 0.0 0.866 0.5
vn 0.0 0.5 0.866
vn 0.0 -0.0 1.0
vn 0.0 -0.5 0.866
vn 0.0 -0.866 0.5
vn 0.0 -0.866 -0.5
vn 0.0 -0.866 -0.5
vn 0.0 -1.0 -0.0
vn 0.0 -0.5 -0.866
vn 0.0 -0.5 -0.866
vn 0.0 -0.0 -1.0
vn 0.0 -0.0 -1.0
vn 0.0 0.5 -0.866
vn 0.0 0.5 -0.866
vn 0.0 0.866 -0.5
vn 0.0 0.866 -0.5
vn 0.0 1.0 -0.0
vn 0.0 1.0 0.0
vn 0.0 0.866 0.5
vn 0.0 0.866 0.5
vn 0.0 0.5 0.866
vn 0.0 0.5 0.866
vn 0.0 -0.0 1.0
vn 0.0 -0.0 1.0
vn 0.0 -0.5 0.866
vn 0.0 -0.5 0.866
vn 0.0 -0.866 0.5
vn 0.0 -0.866 0.5
vn 0.0 -0.866 -0.5
vn 0.0 -1.0 0.0
vn 0.0 -0.5 -0.866
vn 0.0 -0.0 -1.0
vn 0.0 0.5 -0.866
vn 0.0 0.866 -0.5
vn 0.0 1.0 -0.0
vn 0.0 0.866 0.5
vn 0.0 0.5 0.866
vn 0.0 -0.0 1.0
vn 0.0 -0.5 0.866
vn 0.0 -0.866 0.5
vn 0.0 -0.866 -0.5
vn 0.0 -1.0 0.0
vn 0.0 -0.0 -1.0
vn 0.0 0.5 -0.866
vn 0.0 1.0 0.0
vn 0.0 -0.0 1.0
vn 0.0 -0.5 0.866
vn 0.0 -0.866 0.5
vtan 0.0 0.0 1.0
vtan 0.0 -0.5 0.866
vtan 0.0 -0.5 0.866
vtan 0.0 0.0 1.0
vtan 0.0 -0.866 0.5
vtan 0.0 -0.866 0.5
vtan 0.0 -1.0 0.0
vtan 0.0 -1.0 0.0
vtan 0.0 -0.866 -0.5
vtan 0.0 -0.866 -0.5
vtan 0.0 -0.5 -0.866
vtan 0.0 -0.5 -0.866
vtan 0.0 0.0 -1.0
vtan 0.0 -0.0 -1.0
vtan 0.0 0.5 -0.866
vtan 0.0 0.5 -0.866
vtan 0.0 0.866 -0.5
vtan 0.0 0.866 -0.5
vtan 0.0 1.0 0.0
vtan 0.0 1.0 0.0
vtan 0.0 0.866 0.5
vtan 0.0 0.866 0.5
vtan 0.0 0.5 0.866
vtan 0.0 0.5 0.866
vtan 0.0 0.0 1.0
vtan 0.0 0.0 1.0
vtan 0.0 -0.0 1.0
vtan 0.0 -0.5 0.866
vtan 0.0 -0.866 0.5
vtan 0.0 -1.0 0.0
vtan 0.0 -0.866 -0.5
vtan 0.0 -0.5 -0.866
vtan 0.0 0.5 -0.866
vtan 0.0 0.5 -0.866
vtan 0.0 0.866 -0.5
vtan 0.0 1.0 0.0
vtan 0.0 0.866 0.5
vtan 0.0 0.5 0.866
vtan 0.0 -0.0 1.0
vtan 0.0 0.0 1.0
vtan 0.0 -0.5 0.866
vtan 0.0 -0.866 0.5
vtan 0.0 -1.0 0.0
vtan 0.0 -0.866 -0.5
vtan 0.0 -0.5 -0.866
vtan 0.0 0.0 -1.0
vtan 0.0 0.5 -0.866
vtan 0.0 0.866 -0.5
vtan 0.0 0.866 -0.5
vtan 0.0 1.0 0.0
vtan 0.0 0.866 0.5
vtan 0.0 0.866 0.5
vtan 0.0 0.5 0.866
vtan 0.0 0.0 1.0
vtan 0.0 -0.0 1.0
vtan 0.0 -0.5 0.866
vtan 0.0 0.0 1.0
vtan 0.0 -0.866 0.5
vtan 0.0 -1.0 0.0
vtan 0.0 -0.866 -0.5
vtan 0.0 -0.5 -0.866
vtan 0.0 -0.5 -0.866
vtan 0.0 0.0 -1.0
vtan 0.0 0.5 -0.866
vtan 0.0 0.866 -0.5
vtan 0.0 0.866 -0.5
vtan 0.0 1.0 0.0
vtan 0.0 0.866 0.5
vtan 0.0 0.5 0.866
vtan 0.0 -0.0 1.0
vtan 0.0 0.0 1.0
vtan 0.0 -0.5 0.866
vtan 0.0 -0.5 0.866
vtan 0.0 -0.0 1.0
vtan 0.0 -0.866 0.5
vtan 0.0 -0.866 0.5
vtan 0.0 -1.0 0.0
vtan 0.0 -1.0 0.0
vtan 0.0 -0.866 -0.5
vtan 0.0 -0.866 -0.5
vtan 0.0 -0.5 -0.866
vtan 0.0 -0.5 -0.866
vtan 0.0 -0.0 -1.0
vtan 0.0 0.0 -1.0
vtan 0.0 0.5 -0.866
vtan 0.0 0.5 -0.866
vtan 0.0 0.866 -0.5
vtan 0.0 0.866 -0.5
vtan 0.0 1.0 0.0
vtan 0.0 1.0 0.0
vtan 0.0 0.866 0.5
vtan 0.0 0.866 0.5
vtan 0.0 0.5 0.866
vtan 0.0 0.5 0.866
vtan 0.0 -0.0 1.0
vtan 0.0 -0.5 0.866
vtan 0.0 -0.5 0.866
vtan 0.0 0.0 1.0
vtan 0.0 -0.866 0.5
vtan 0.0 -0.866 -0.5
vtan 0.0 -0.5 -0.866
vtan 0.0 -0.5 -0.866
vtan 0.0 0.0 -1.0
vtan 0.0 -0.0 -1.0
vtan 0.0 0.5 -0.866
vtan 0.0 0.866 -0.5
vtan 0.0 1.0 0.0
vtan 0.0 0.866 0.5
vtan 0.0 0.866 0.5
vtan 0.0 0.5 0.866
vtan 0.0 0.0 1.0
vtan 0.0 -0.5 0.866
vtan 0.0 -0.5 0.866
vtan 0.0001 0.0 1.0
vtan 0.0 -0.866 0.5
vtan 0.0 -0.866 -0.5
vtan 0.0 0.5 -0.866
vtan 0.0 0.866 -0.5
vtan 0.0 0.866 0.5
vtan 0.0 0.5 0.866
vtan -0.0 0.5 0.866
vtan -0.0 0.0 1.0
vtan -0.0001 0.0 1.0
vtan 0.0 -0.5 0.866
vtan 0.0 -0.0 1.0
vtan 0.0001 0.0 1.0
vtan 0.0 -0.866 -0.5
vtan 0.0 0.5 -0.866
vtan 0.0 0.866 0.5
vtan -0.0 0.5 0.866
vtan -0.0 0.5 0.866
vtan -0.0001 0.0 1.0
f 0/0/0/0 1/1/1/1 2/2/2/2 
f 0/0/0/0 2/2/2/2 3/3/3/3 
f 1/1/1/1 4/4/4/4 5/5/5/5 
f 1/1/1/1 5/5/5/5 2/2/2/2 
f 4/4/4/4 6/6/6/6 7/7/7/7 
f 4/4/4/4 7/7/7/7 5/5/5/5 
f 6/6/6/6 8/8/8/8 9/9/9/9 
f 6/6/6/6 9/9/9/9 7/7/7/7 
f 8/8/8/8 10/10/10/10 11/11/11/11 
f 8/8/8/8 11/11/11/11 9/9/9/9 
f 10/10/10/10 12/12/12/12 13/13/13/13 
f 10/10/10/10 13/13/13/13 11/11/11/11 
f 12/12/12/12 14/14/14/14 15/15/15/15 
f 12/12/12/12 15/15/15/15 13/13/13/13 
f 14/14/14/14 16/16/16/16 17/17/17/17 
f 14/14/14/14 17/17/17/17 15/15/15/15 
f 16/16/16/16 18/18/18/18 19/19/19/19 
f 16/16/16/16 19/19/19/19 17/17/17/17 
f 18/18/18/18 20/20/20/20 21/21/21/21 
f 18/18/18/18 21/21/21/21 19/19/19/19 
f 20/20/20/20 22/22/22/22 23/23/23/23 
f 20/20/20/20 23/23/23/23 21/21/21/21 
f 22/22/22/22 0/24/0/24 3/25/3/25 
f 22/22/22/22 3/25/3/25 23/23/23/23 
f 1/2/1/1 0/3/0/0 24/0/24/26 
f 1/2/1/1 24/0/24/26 25/1/25/27 
f 25/1/25/27 26/4/26/28 4/5/4/4 
f 25/1/25/27 4/5/4/4 1/2/1/1 
f 26/4/26/28 27/6/27/29 6/7/6/6 
f 26/4/26/28 6/7/6/6 4/5/4/4 
f 27/6/27/29 28/8/28/30 8/9/8/8 
f 27/6/27/29 8/9/8/8 6/7/6/6 
f 28/8/28/30 29/10/29/31 10/11/10/10 
f 28/8/28/30 10/11/10/10 8/9/8/8 
f 29/10/29/31 30/12/30/12 12/13/12/12 
f 29/10/29/31 12/13/12/12 10/11/10/10 
f 30/12/30/12 31/14/31/32 14/15/14/33 
f 30/12/30/12 14/15/14/33 12/13/12/12 
f 31/14/31/32 32/16/32/34 16/17/16/16 
f 31/14/31/32 16/17/16/16 14/15/14/33 
f 32/16/32/34 33/18/33/35 18/19/18/18 
f 32/16/32/34 18/19/18/18 16/17/16/16 
f 33/18/33/35 34/20/34/36 20/21/20/20 
f 33/18/33/35 20/21/20/20 18/19/18/18 
f 34/20/34/36 35/22/35/37 22/23/22/22 
f 34/20/34/36 22/23/22/22 20/21/20/20 
f 0/25/0/24 22/23/22/22 35/22/35/37 
f 0/25/0/24 35/22/35/37 24/24/24/38 
f 36/0/36/39 37/1/37/40 25/2/25/27 
f 36/0/36/39 25/2/25/27 24/3/24/26 
f 37/1/37/40 38/4/38/41 26/5/26/28 
f 37/1/37/40 26/5/26/28 25/2/25/27 
f 38/4/38/41 39/6/39/42 27/7/27/29 
f 38/4/38/41 27/7/27/29 26/5/26/28 
f 39/6/39/42 40/8/40/43 28/9/28/30 
f 39/6/39/42 28/9/28/30 27/7/27/29 
f 40/8/40/43 41/10/41/44 29/11/29/31 
f 40/8/40/43 29/11/29/31 28/9/28/30 
f 41/10/41/44 42/12/42/45 30/13/30/12 
f 41/10/41/44 30/13/30/12 29/11/29/31 
f 42/12/42/45 43/14/43/46 31/15/31/32 
f 42/12/42/45 31/15/31/32 30/13/30/12 
f 43/14/43/46 44/16/44/47 32/17/32/48 
f 43/14/43/46 32/17/32/48 31/15/31/32 
f 44/16/44/47 45/18/45/49 33/19/33/35 
f 44/16/44/47 33/19/33/35 32/17/32/48 
f 45/18/45/49 46/20/46/50 34/21/34/51 
f 45/18/45/49 34/21/34/51 33/19/33/35 
f 46/20/46/50 47/22/47/52 35/23/35/37 
f 46/20/46/50 35/23/35/37 34/21/34/51 
f 47/22/47/52 36/24/36/53 24/25/24/38 
f 47/22/47/52 24/25/24/38 35/23/35/37 
f 48/26/48/54 49/27/49/55 37/2/37/40 
f 48/26/48/54 37/2/37/40 36/3/36/56 
f 49/27/49/55 50/28/50/57 38/5/38/41 
f 49/27/49/55 38/5/38/41 37/2/37/40 
f 50/28/50/57 51/29/51/58 39/7/39/42 
f 50/28/50/57 39/7/39/42 38/5/38/41 
f 51/29/51/58 52/30/52/59 40/9/40/43 
f 51/29/51/58 40/9/40/43 39/7/39/42 
f 52/30/52/59 53/31/53/60 41/11/41/61 
f 52/30/52/59 41/11/41/61 40/9/40/43 
f 53/31/53/60 54/32/54/62 42/13/42/45 
f 53/31/53/60 42/13/42/45 41/11/41/61 
f 54/32/54/62 55/33/55/63 43/15/43/46 
f 54/32/54/62 43/15/43/46 42/13/42/45 
f 55/33/55/63 56/34/56/64 44/17/44/65 
f 55/33/55/63 44/17/44/65 43/15/43/46 
f 56/34/56/64 57/35/57/66 45/19/45/49 
f 56/34/56/64 45/19/45/49 44/17/44/65 
f 57/35/57/66 58/36/58/67 46/21/46/50 
f 57/35/57/66 46/21/46/50 45/19/45/49 
f 58/36/58/67 59/37/59/68 47/23/47/52 
f 58/36/58/67 47/23/47/52 46/21/46/50 
f 59/37/59/68 48/38/48/69 36/25/36/70 
f 59/37/59/68 36/25/36/70 47/23/47/52 
f 60/2/60/71 61/1/61/72 62/0/62/73 
f 60/2/60/71 62/0/62/73 63/3/3/3 
f 64/5/63/74 65/4/64/75 61/1/61/72 
f 64/5/63/74 61/1/61/72 60/2/60/71 
f 66/7/65/76 67/6/66/77 65/4/64/75 
f 66/7/65/76 65/4/64/75 64/5/63/74 
f 68/9/67/78 69/8/68/79 67/6/66/77 
f 68/9/67/78 67/6/66/77 66/7/65/76 
f 70/11/69/80 71/10/70/81 69/8/68/79 
f 70/11/69/80 69/8/68/79 68/9/67/78 
f 72/13/71/82 73/12/72/83 71/10/70/81 
f 72/13/71/82 71/10/70/81 70/11/69/80 
f 74/15/73/84 75/14/74/85 73/12/72/83 
f 74/15/73/84 73/12/72/83 72/13/71/82 
f 76/17/75/86 77/16/76/87 75/14/74/85 
f 76/17/75/86 75/14/74/85 74/15/73/84 
f 78/19/77/88 79/18/78/89 77/16/76/87 
f 78/19/77/88 77/16/76/87 76/17/75/86 
f 80/21/79/90 81/20/80/91 79/18/78/89 
f 80/21/79/90 79/18/78/89 78/19/77/88 
f 82/23/81/92 83/22/82/93 81/20/80/91 
f 82/23/81/92 81/20/80/91 80/21/79/90 
f 63/25/3/25 62/24/62/94 83/22/82/93 
f 63/25/3/25 83/22/82/93 82/23/81/92 
f 61/2/61/95 84/1/83/96 85/0/84/97 
f 61/2/61/95 85/0/84/97 62/3/62/73 
f 65/5/64/75 86/4/85/98 84/1/83/96 
f 65/5/64/75 84/1/83/96 61/2/61/95 
f 67/7/66/77 87/6/86/6 86/4/85/98 
f 67/7/66/77 86/4/85/98 65/5/64/75 
f 69/9/68/79 88/8/87/99 87/6/86/6 
f 69/9/68/79 87/6/86/6 67/7/66/77 
f 71/11/70/100 89/10/88/101 88/8/87/99 
f 71/11/70/100 88/8/87/99 69/9/68/79 
f 73/13/72/102 90/12/89/103 89/10/88/101 
f 73/13/72/102 89/10/88/101 71/11/70/100 
f 75/15/74/85 91/14/90/104 90/12/89/103 
f 75/15/74/85 90/12/89/103 73/13/72/102 
f 77/17/76/87 92/16/91/105 91/14/90/104 
f 77/17/76/87 91/14/90/104 75/15/74/85 
f 79/19/78/89 93/18/92/106 92/16/91/105 
f 79/19/78/89 92/16/91/105 77/17/76/87 
f 81/21/80/107 94/20/93/108 93/18/92/106 
f 81/21/80/107 93/18/92/106 79/19/78/89 
f 83/23/82/93 95/22/94/109 94/20/93/108 
f 83/23/82/93 94/20/93/108 81/21/80/107 
f 62/25/62/94 85/24/84/110 95/22/94/109 
f 62/25/62/94 95/22/94/109 83/23/82/93 
f 84/2/83/111 96/1/95/112 97/0/96/113 
f 84/2/83/111 97/0/96/113 85/3/84/97 
f 86/5/85/114 98/4/38/41 96/1/95/112 
f 86/5/85/114 96/1/95/112 84/2/83/111 
f 87/7/86/6 99/6/97/42 98/4/38/41 
f 87/7/86/6 98/4/38/41 86/5/85/114 
f 88/9/87/99 100/8/98/115 99/6/97/42 
f 88/9/87/99 99/6/97/42 87/7/86/6 
f 89/11/88/101 101/10/41/44 100/8/98/115 
f 89/11/88/101 100/8/98/115 88/9/87/99 
f 90/13/89/103 102/12/99/45 101/10/41/44 
f 90/13/89/103 101/10/41/44 89/11/88/101 
f 91/15/90/116 103/14/43/46 102/12/99/45 
f 91/15/90/116 102/12/99/45 90/13/89/103 
f 92/17/91/105 104/16/16/117 103/14/43/46 
f 92/17/91/105 103/14/43/46 91/15/90/116 
f 93/19/92/106 105/18/100/49 104/16/16/117 
f 93/19/92/106 104/16/16/117 92/17/91/105 
f 94/21/93/108 106/20/101/118 105/18/100/49 
f 94/21/93/108 105/18/100/49 93/19/92/106 
f 95/23/94/119 107/22/102/120 106/20/101/118 
f 95/23/94/119 106/20/101/118 94/21/93/108 
f 85/25/84/121 97/24/96/122 107/22/102/120 
f 85/25/84/121 107/22/102/120 95/23/94/119 
f 96/2/95/123 49/27/49/55 48/26/48/124 
f 96/2/95/123 48/26/48/124 97/3/96/125 
f 98/5/38/41 50/28/50/57 49/27/49/55 
f 98/5/38/41 49/27/49/55 96/2/95/123 
f 99/7/97/42 51/29/51/58 50/28/50/57 
f 99/7/97/42 50/28/50/57 98/5/38/41 
f 100/9/98/126 52/30/52/59 51/29/51/58 
f 100/9/98/126 51/29/51/58 99/7/97/42 
f 101/11/41/61 53/31/53/60 52/30/52/59 
f 101/11/41/61 52/30/52/59 100/9/98/126 
f 102/13/99/45 54/32/54/62 53/31/53/60 
f 102/13/99/45 53/31/53/60 101/11/41/61 
f 103/15/43/127 55/33/55/63 54/32/54/62 
f 103/15/43/127 54/32/54/62 102/13/99/45 
f 104/17/16/65 56/34/56/64 55/33/55/63 
f 104/17/16/65 55/33/55/63 103/15/43/127 
f 105/19/100/49 57/35/57/66 56/34/56/64 
f 105/19/100/49 56/34/56/64 104/17/16/65 
f 106/21/101/128 58/36/58/67 57/35/57/66 
f 106/21/101/128 57/35/57/66 105/19/100/49 
f 107/23/102/129 59/37/59/130 58/36/58/67 
f 107/23/102/129 58/36/58/67 106/21/101/128 
f 97/25/96/131 48/38/48/69 59/37/59/130 
f 97/25/96/131 59/37/59/130 107/23/102/129 
