v 322.8868 927.3633 -247.1001
v 322.8867 990.7953 -247.1
v 322.8867 990.7953 -274.7776
v 322.8868 927.3633 -274.7776
v 350.9431 927.3633 -241.3098
v 350.9431 1014.4712 -241.3098
v 347.8323 1011.3604 -241.3098
v 347.8322 927.3633 -241.3098
v 350.9431 1014.4712 -274.7776
v 350.9431 927.3633 -274.7776
v 343.0824 927.3633 -247.1001
v 343.0825 1006.6105 -247.1
v 304.3651 1006.6105 -247.1
v 304.3651 990.7953 -247.1
v 304.3651 1011.3603 -241.3098
v 304.3651 990.7953 -274.7776
v 304.3651 1014.4712 -241.3098
v 304.3651 1014.4712 -274.7776
v 285.8435 990.7953 -274.7774
v 285.8435 990.7953 -247.1
v 285.8434 927.3633 -247.1001
v 285.8434 927.3633 -274.7774
v 263.7245 1011.3604 -241.3098
v 260.6135 1014.4712 -241.3098
v 260.6136 927.3633 -241.3098
v 263.7245 927.3633 -241.3098
v 260.6135 1014.4712 -274.7774
v 260.6136 927.3633 -274.7774
v 268.4742 1006.6105 -247.1
v 268.4742 927.3633 -247.1001
gi 0 0 0 0
gw 0.0 0.0 0.0 0.0
gi 0 0 0 0
gw 0.0 0.0 0.0 0.0
gi 0 0 0 0
gw 0.0 0.0 0.0 0.0
gi 0 0 0 0
gw 0.0 0.0 0.0 0.0
gi 0 0 0 0
gw 0.0 0.0 0.0 0.0
gi 0 0 0 0
gw 0.0 0.0 0.0 0.0
gi 0 0 0 0
gw 0.0 0.0 0.0 0.0
gi 0 0 0 0
gw 0.0 0.0 0.0 0.0
gi 0 0 0 0
gw 0.0 0.0 0.0 0.0
gi 0 0 0 0
gw 0.0 0.0 0.0 0.0
gi 0 0 0 0
gw 0.0 0.0 0.0 0.0
gi 0 0 0 0
gw 0.0 0.0 0.0 0.0
gi 0 0 0 0
gw 0.0 0.0 0.0 0.0
gi 0 0 0 0
gw 0.0 0.0 0.0 0.0
gi 0 0 0 0
gw 0.0 0.0 0.0 0.0
gi 0 0 0 0
gw 0.0 0.0 0.0 0.0
gi 0 0 0 0
gw 0.0 0.0 0.0 0.0
gi 0 0 0 0
gw 0.0 0.0 0.0 0.0
gi 0 0 0 0
gw 0.0 0.0 0.0 0.0
gi 0 0 0 0
gw 0.0 0.0 0.0 0.0
gi 0 0 0 0
gw 0.0 0.0 0.0 0.0
gi 0 0 0 0
gw 0.0 0.0 0.0 0.0
gi 0 0 0 0
gw 0.0 0.0 0.0 0.0
gi 0 0 0 0
gw 0.0 0.0 0.0 0.0
gi 0 0 0 0
gw 0.0 0.0 0.0 0.0
gi 0 0 0 0
gw 0.0 0.0 0.0 0.0
gi 0 0 0 0
gw 0.0 0.0 0.0 0.0
gi 0 0 0 0
gw 0.0 0.0 0.0 0.0
gi 0 0 0 0
gw 0.0 0.0 0.0 0.0
gi 0 0 0 0
gw 0.0 0.0 0.0 0.0
vt 0.9965 0.1543
vt 0.7878 0.1543
vt 0.7878 0.0638
vt 0.9965 0.0638
vt 0.9965 0.2169
vt 0.7282 0.2169
vt 0.7384 0.2067
vt 0.9965 0.2067
vt 0.7282 0.3263
vt 0.9965 0.3263
vt 0.9965 0.1878
vt 0.7541 0.1878
vt 0.8487 0.1878
vt 0.8487 0.1543
vt 0.8487 0.2067
vt 0.8487 0.0638
vt 0.8487 0.2169
vt 0.8487 0.3263
vn -0.7071 -0.0 0.7071
vn -0.3015 -0.3015 0.9045
vn -0.7071 -0.7071 0.0
vn -1.0 -0.0 0.0
vn 0.7071 -0.0 0.7071
vn 0.5773 0.5773 0.5774
vn -0.1277 -0.1277 0.9836
vn -0.4277 0.0 0.9039
vn 0.7071 0.7071 0.0
vn 1.0 0.0 0.0
vn -0.4277 0.0 0.9039
vn -0.3387 -0.3387 0.8778
vn 0.0 -0.4276 0.9039
vn 0.0 -0.7071 0.7071
vn -0.0 -0.4276 0.9039
vn 0.0 -1.0 0.0
vn -0.0 0.7071 0.7071
vn 0.0 1.0 0.0
vn 0.7071 -0.7071 0.0
vn 0.3015 -0.3015 0.9045
vn 0.7071 -0.0 0.7071
vn 1.0 -0.0 0.0
vn 0.1277 -0.1277 0.9836
vn -0.5773 0.5774 0.5774
vn -0.7071 -0.0 0.7071
vn 0.4277 -0.0 0.9039
vn -0.7071 0.7071 0.0
vn -1.0 -0.0 0.0
vn 0.3387 -0.3387 0.8778
vn 0.4277 -0.0 0.9039
vtan 0.0 -1.0 0.0 1.0
vtan 0.0953 -0.9535 -0.286 1.0
vtan 0.7071 -0.7071 -0.0 1.0
vtan 0.0 -1.0 0.0 1.0
vtan -0.0 -1.0 0.0 1.0
vtan 0.4082 -0.8165 0.4083 1.0
vtan 0.0164 -0.9918 -0.1266 1.0
vtan -0.0 -1.0 -0.0 1.0
vtan 0.7071 -0.7071 -0.0 1.0
vtan 0.0 -1.0 0.0 1.0
vtan -0.0 -1.0 0.0 1.0
vtan 0.1219 -0.9409 -0.316 1.0
vtan -0.9535 0.0953 -0.286 -1.0
vtan -0.9409 0.1219 -0.316 -1.0
vtan -1.0 0.0 0.0 -1.0
vtan -1.0 0.0 0.0 -1.0
vtan -0.9918 0.0164 -0.1266 -1.0
vtan -1.0 -0.0 -0.0 -1.0
vtan -0.7071 0.7071 0.0 -1.0
vtan -0.8165 0.4082 0.4082 -1.0
vtan -1.0 -0.0 0.0 -1.0
vtan -0.7071 0.7071 0.0 -1.0
vtan -0.7071 -0.7071 -0.0 -1.0
vtan -0.0953 -0.9535 -0.286 -1.0
vtan -0.0 -1.0 0.0 -1.0
vtan -0.0 -1.0 0.0 -1.0
vtan -0.0164 -0.9918 -0.1266 -1.0
vtan -0.4082 -0.8165 0.4083 -1.0
vtan 0.0 -1.0 -0.0 -1.0
vtan -0.0 -1.0 -0.0 -1.0
vtan -0.7071 -0.7071 -0.0 -1.0
vtan 0.0 -1.0 0.0 -1.0
vtan -0.1219 -0.9409 -0.316 -1.0
vtan -0.0 -1.0 -0.0 -1.0
vtan 0.9535 0.0953 -0.286 1.0
vtan 1.0 -0.0 -0.0 1.0
vtan 1.0 0.0 0.0 1.0
vtan 0.9409 0.1219 -0.316 1.0
vtan 1.0 -0.0 -0.0 1.0
vtan 0.9918 0.0164 -0.1266 1.0
vtan 0.7071 0.7071 -0.0 1.0
vtan 1.0 0.0 -0.0 1.0
vtan 1.0 -0.0 0.0 1.0
vtan 0.8165 0.4082 0.4082 1.0
vtan 1.0 0.0 -0.0 1.0
vtan 0.7071 0.7071 -0.0 1.0
f 0/0/0/0 1/1/1/1 2/2/2/2 
f 0/0/0/0 2/2/2/2 3/3/3/3 
f 4/4/4/4 5/5/5/5 6/6/6/6 
f 4/4/4/4 6/6/6/6 7/7/7/7 
f 8/8/8/8 5/5/5/5 4/4/4/4 
f 8/8/8/8 4/4/4/4 9/9/9/9 
f 1/1/1/1 0/0/0/0 10/10/10/10 
f 1/1/1/1 10/10/10/10 11/11/11/11 
f 11/11/11/11 10/10/10/10 7/7/7/7 
f 11/11/11/11 7/7/7/7 6/6/6/6 
f 1/1/1/12 11/11/11/13 12/12/12/14 
f 1/1/1/12 12/12/12/14 13/13/13/15 
f 11/11/11/13 6/6/6/16 14/14/14/17 
f 11/11/11/13 14/14/14/17 12/12/12/14 
f 2/2/2/18 1/1/1/12 13/13/13/15 
f 2/2/2/18 13/13/13/15 15/15/15/15 
f 6/6/6/16 5/5/5/19 16/16/16/20 
f 6/6/6/16 16/16/16/20 14/14/14/17 
f 5/5/5/19 8/8/8/21 17/17/17/15 
f 5/5/5/19 17/17/17/15 16/16/16/20 
f 18/2/18/22 19/1/19/23 20/0/20/24 
f 18/2/18/22 20/0/20/24 21/3/21/25 
f 22/6/22/26 23/5/23/27 24/4/24/28 
f 22/6/22/26 24/4/24/28 25/7/25/29 
f 24/4/24/28 23/5/23/27 26/8/26/30 
f 24/4/24/28 26/8/26/30 27/9/27/31 
f 19/1/19/23 28/11/28/32 29/10/29/33 
f 19/1/19/23 29/10/29/33 20/0/20/24 
f 28/11/28/32 22/6/22/26 25/7/25/29 
f 28/11/28/32 25/7/25/29 29/10/29/33 
f 19/1/19/34 13/13/13/35 12/12/12/36 
f 19/1/19/34 12/12/12/36 28/11/28/37 
f 28/11/28/37 12/12/12/36 14/14/14/38 
f 28/11/28/37 14/14/14/38 22/6/22/39 
f 13/13/13/35 19/1/19/34 18/2/18/40 
f 13/13/13/35 18/2/18/40 15/15/15/41 
f 16/16/16/42 23/5/23/43 22/6/22/39 
f 16/16/16/42 22/6/22/39 14/14/14/38 
f 17/17/17/44 26/8/26/45 23/5/23/43 
f 17/17/17/44 23/5/23/43 16/16/16/42 
