v -618.1018 842.05 -230.8684
v -619.2279 842.3416 -230.9465
v -619.2279 831.9463 -269.7425
v -618.1018 831.6548 -269.6644
v -620.0524 843.1379 -231.1598
v -620.0524 832.7424 -269.9559
v -620.3541 844.2256 -231.4513
v -620.3541 833.8303 -270.2473
v -620.0524 845.3134 -231.7428
v -620.0524 834.9181 -270.5388
v -619.2279 846.1097 -231.9561
v -619.2279 835.7142 -270.7522
v -618.1018 846.4012 -232.0342
v -618.1018 836.0057 -270.8303
v -616.9757 846.1097 -231.9561
v -616.9757 835.7142 -270.7522
v -616.1514 845.3134 -231.7428
v -616.1514 834.9181 -270.5388
v -615.8496 844.2256 -231.4513
v -615.8496 833.8303 -270.2473
v -616.1514 843.1379 -231.1598
v -616.1514 832.7424 -269.9559
v -616.9757 842.3416 -230.9465
v -616.9757 831.9463 -269.7425
v -618.1018 852.4454 -192.0724
v -619.2279 852.7369 -192.1505
v -620.0524 853.5331 -192.3638
v -620.3541 854.621 -192.6553
v -620.0524 855.7087 -192.9468
v -619.2279 856.5049 -193.1601
v -618.1018 856.7964 -193.2382
v -616.9757 856.5049 -193.1601
v -616.1514 855.7087 -192.9468
v -615.8496 854.621 -192.6553
v -616.1514 853.5331 -192.3638
v -616.9757 852.7369 -192.1505
v -618.1018 862.8408 -153.2763
v -619.2279 863.1322 -153.3545
v -620.0524 863.9285 -153.5678
v -620.3541 865.0162 -153.8593
v -620.0524 866.104 -154.1507
v -619.2279 866.9003 -154.3641
v -618.1018 867.1918 -154.4422
v -616.9757 866.9003 -154.3641
v -616.1514 866.104 -154.1507
v -615.8496 865.0162 -153.8593
v -616.1514 863.9285 -153.5678
v -616.9757 863.1322 -153.3545
v -618.6295 884.3558 -79.316
v -618.4065 884.1403 -79.2582
v -618.1018 884.0615 -79.2371
v -617.5741 884.3558 -79.316
v -618.6295 884.9443 -79.4737
v -617.4926 884.65 -79.3948
v -617.5741 884.9443 -79.4737
v -617.7971 885.1597 -79.5314
v -618.1018 885.2386 -79.5525
v -618.4065 885.1597 -79.5314
v -618.7112 884.65 -79.3948
v -617.7971 884.1403 -79.2582
v -618.1018 875.6521 -102.2188
v -619.6478 876.0522 -102.326
v -619.2279 875.8819 -105.7719
v -618.1018 875.5905 -105.6938
v -620.7797 877.1454 -102.619
v -620.0524 876.6782 -105.9853
v -621.194 878.6389 -103.0191
v -620.3541 877.7659 -106.2768
v -620.7797 880.1322 -103.4192
v -620.0524 878.8537 -106.5682
v -619.6478 881.2255 -103.7122
v -619.2279 879.65 -106.7816
v -618.1018 881.6256 -103.8194
v -618.1018 879.9415 -106.8597
v -616.5558 881.2255 -103.7122
v -616.9757 879.65 -106.7816
v -615.424 880.1322 -103.4193
v -616.1514 878.8537 -106.5682
v -615.0096 878.6389 -103.0191
v -615.8496 877.7659 -106.2768
v -615.424 877.1454 -102.6189
v -616.1514 876.6782 -105.9853
v -616.5558 876.0522 -102.326
v -616.9757 875.8819 -105.7719
v -618.1018 879.7686 -85.467
v -619.7506 880.1953 -85.5814
v -620.0342 878.0246 -92.3798
v -618.1018 877.5245 -92.2458
v -620.9576 881.3611 -85.8938
v -621.4487 879.391 -92.746
v -621.3994 882.9537 -86.3205
v -621.9666 881.2575 -93.2461
v -620.9576 884.5464 -86.7472
v -621.4487 883.1241 -93.7462
v -619.7506 885.7122 -87.0596
v -620.0342 884.4905 -94.1124
v -618.1018 886.139 -87.174
v -618.1018 884.9906 -94.2464
v -616.453 885.7122 -87.0596
v -616.1694 884.4905 -94.1123
v -615.2461 884.5464 -86.7472
v -614.7549 883.1241 -93.7462
v -614.8043 882.9537 -86.3205
v -614.2371 881.2575 -93.2461
v -615.2461 881.3611 -85.8938
v -614.7549 879.391 -92.746
v -616.453 880.1953 -85.5814
v -616.1694 878.0246 -92.3798
v -619.6311 876.9532 -99.0759
v -618.1018 876.5574 -98.9698
v -620.7506 878.0346 -99.3657
v -621.1603 879.5117 -99.7614
v -620.7506 880.9889 -100.1572
v -619.6311 882.0702 -100.447
v -618.1018 882.466 -100.553
v -616.5725 882.0702 -100.447
v -615.4531 880.9889 -100.1572
v -615.0433 879.5117 -99.7614
v -615.4531 878.0346 -99.3656
v -616.5725 876.9532 -99.0759
gi 0 0 0 0
gi 0 0 0 0
gi 0 0 0 0
gi 0 0 0 0
gi 0 0 0 0
gi 0 0 0 0
gi 0 0 0 0
gi 0 0 0 0
gi 0 0 0 0
gi 0 0 0 0
gi 0 0 0 0
gi 0 0 0 0
gi 0 0 0 0
gi 0 0 0 0
gi 0 0 0 0
gi 0 0 0 0
gi 0 0 0 0
gi 0 0 0 0
gi 0 0 0 0
gi 0 0 0 0
gi 0 0 0 0
gi 0 0 0 0
gi 0 0 0 0
gi 0 0 0 0
gi 0 0 0 0
gi 0 0 0 0
gi 0 0 0 0
gi 0 0 0 0
gi 0 0 0 0
gi 0 0 0 0
gi 0 0 0 0
gi 0 0 0 0
gi 0 0 0 0
gi 0 0 0 0
gi 0 0 0 0
gi 0 0 0 0
gi 0 0 0 0
gi 0 0 0 0
gi 0 0 0 0
gi 0 0 0 0
gi 0 0 0 0
gi 0 0 0 0
gi 0 0 0 0
gi 0 0 0 0
gi 0 0 0 0
gi 0 0 0 0
gi 0 0 0 0
gi 0 0 0 0
gi 0 0 0 0
gi 0 0 0 0
gi 0 0 0 0
gi 0 0 0 0
gi 0 0 0 0
gi 0 0 0 0
gi 0 0 0 0
gi 0 0 0 0
gi 0 0 0 0
gi 0 0 0 0
gi 0 0 0 0
gi 0 0 0 0
gi 0 0 0 0
gi 0 0 0 0
gi 0 0 0 0
gi 0 0 0 0
gi 0 0 0 0
gi 0 0 0 0
gi 0 0 0 0
gi 0 0 0 0
gi 0 0 0 0
gi 0 0 0 0
gi 0 0 0 0
gi 0 0 0 0
gi 0 0 0 0
gi 0 0 0 0
gi 0 0 0 0
gi 0 0 0 0
gi 0 0 0 0
gi 0 0 0 0
gi 0 0 0 0
gi 0 0 0 0
gi 0 0 0 0
gi 0 0 0 0
gi 0 0 0 0
gi 0 0 0 0
gi 0 0 0 0
gi 0 0 0 0
gi 0 0 0 0
gi 0 0 0 0
gi 0 0 0 0
gi 0 0 0 0
gi 0 0 0 0
gi 0 0 0 0
gi 0 0 0 0
gi 0 0 0 0
gi 0 0 0 0
gi 0 0 0 0
gi 0 0 0 0
gi 0 0 0 0
gi 0 0 0 0
gi 0 0 0 0
gi 0 0 0 0
gi 0 0 0 0
gi 0 0 0 0
gi 0 0 0 0
gi 0 0 0 0
gi 0 0 0 0
gi 0 0 0 0
gi 0 0 0 0
gi 0 0 0 0
gi 0 0 0 0
gi 0 0 0 0
gi 0 0 0 0
gi 0 0 0 0
gi 0 0 0 0
gi 0 0 0 0
gi 0 0 0 0
gi 0 0 0 0
gi 0 0 0 0
gi 0 0 0 0
gi 0 0 0 0
gw 0.0 0.0 0.0 0.0
gw 0.0 0.0 0.0 0.0
gw 0.0 0.0 0.0 0.0
gw 0.0 0.0 0.0 0.0
gw 0.0 0.0 0.0 0.0
gw 0.0 0.0 0.0 0.0
gw 0.0 0.0 0.0 0.0
gw 0.0 0.0 0.0 0.0
gw 0.0 0.0 0.0 0.0
gw 0.0 0.0 0.0 0.0
gw 0.0 0.0 0.0 0.0
gw 0.0 0.0 0.0 0.0
gw 0.0 0.0 0.0 0.0
gw 0.0 0.0 0.0 0.0
gw 0.0 0.0 0.0 0.0
gw 0.0 0.0 0.0 0.0
gw 0.0 0.0 0.0 0.0
gw 0.0 0.0 0.0 0.0
gw 0.0 0.0 0.0 0.0
gw 0.0 0.0 0.0 0.0
gw 0.0 0.0 0.0 0.0
gw 0.0 0.0 0.0 0.0
gw 0.0 0.0 0.0 0.0
gw 0.0 0.0 0.0 0.0
gw 0.0 0.0 0.0 0.0
gw 0.0 0.0 0.0 0.0
gw 0.0 0.0 0.0 0.0
gw 0.0 0.0 0.0 0.0
gw 0.0 0.0 0.0 0.0
gw 0.0 0.0 0.0 0.0
gw 0.0 0.0 0.0 0.0
gw 0.0 0.0 0.0 0.0
gw 0.0 0.0 0.0 0.0
gw 0.0 0.0 0.0 0.0
gw 0.0 0.0 0.0 0.0
gw 0.0 0.0 0.0 0.0
gw 0.0 0.0 0.0 0.0
gw 0.0 0.0 0.0 0.0
gw 0.0 0.0 0.0 0.0
gw 0.0 0.0 0.0 0.0
gw 0.0 0.0 0.0 0.0
gw 0.0 0.0 0.0 0.0
gw 0.0 0.0 0.0 0.0
gw 0.0 0.0 0.0 0.0
gw 0.0 0.0 0.0 0.0
gw 0.0 0.0 0.0 0.0
gw 0.0 0.0 0.0 0.0
gw 0.0 0.0 0.0 0.0
gw 0.0 0.0 0.0 0.0
gw 0.0 0.0 0.0 0.0
gw 0.0 0.0 0.0 0.0
gw 0.0 0.0 0.0 0.0
gw 0.0 0.0 0.0 0.0
gw 0.0 0.0 0.0 0.0
gw 0.0 0.0 0.0 0.0
gw 0.0 0.0 0.0 0.0
gw 0.0 0.0 0.0 0.0
gw 0.0 0.0 0.0 0.0
gw 0.0 0.0 0.0 0.0
gw 0.0 0.0 0.0 0.0
gw 0.0 0.0 0.0 0.0
gw 0.0 0.0 0.0 0.0
gw 0.0 0.0 0.0 0.0
gw 0.0 0.0 0.0 0.0
gw 0.0 0.0 0.0 0.0
gw 0.0 0.0 0.0 0.0
gw 0.0 0.0 0.0 0.0
gw 0.0 0.0 0.0 0.0
gw 0.0 0.0 0.0 0.0
gw 0.0 0.0 0.0 0.0
gw 0.0 0.0 0.0 0.0
gw 0.0 0.0 0.0 0.0
gw 0.0 0.0 0.0 0.0
gw 0.0 0.0 0.0 0.0
gw 0.0 0.0 0.0 0.0
gw 0.0 0.0 0.0 0.0
gw 0.0 0.0 0.0 0.0
gw 0.0 0.0 0.0 0.0
gw 0.0 0.0 0.0 0.0
gw 0.0 0.0 0.0 0.0
gw 0.0 0.0 0.0 0.0
gw 0.0 0.0 0.0 0.0
gw 0.0 0.0 0.0 0.0
gw 0.0 0.0 0.0 0.0
gw 0.0 0.0 0.0 0.0
gw 0.0 0.0 0.0 0.0
gw 0.0 0.0 0.0 0.0
gw 0.0 0.0 0.0 0.0
gw 0.0 0.0 0.0 0.0
gw 0.0 0.0 0.0 0.0
gw 0.0 0.0 0.0 0.0
gw 0.0 0.0 0.0 0.0
gw 0.0 0.0 0.0 0.0
gw 0.0 0.0 0.0 0.0
gw 0.0 0.0 0.0 0.0
gw 0.0 0.0 0.0 0.0
gw 0.0 0.0 0.0 0.0
gw 0.0 0.0 0.0 0.0
gw 0.0 0.0 0.0 0.0
gw 0.0 0.0 0.0 0.0
gw 0.0 0.0 0.0 0.0
gw 0.0 0.0 0.0 0.0
gw 0.0 0.0 0.0 0.0
gw 0.0 0.0 0.0 0.0
gw 0.0 0.0 0.0 0.0
gw 0.0 0.0 0.0 0.0
gw 0.0 0.0 0.0 0.0
gw 0.0 0.0 0.0 0.0
gw 0.0 0.0 0.0 0.0
gw 0.0 0.0 0.0 0.0
gw 0.0 0.0 0.0 0.0
gw 0.0 0.0 0.0 0.0
gw 0.0 0.0 0.0 0.0
gw 0.0 0.0 0.0 0.0
gw 0.0 0.0 0.0 0.0
gw 0.0 0.0 0.0 0.0
gw 0.0 0.0 0.0 0.0
gw 0.0 0.0 0.0 0.0
gw 0.0 0.0 0.0 0.0
gw 0.0 0.0 0.0 0.0
vt 0.9876 0.5241
vt 0.9633 0.5241
vt 0.9633 0.0053
vt 0.9876 0.0053
vt 0.9391 0.5241
vt 0.9391 0.0053
vt 0.9148 0.5241
vt 0.9148 0.0053
vt 0.8906 0.5241
vt 0.8906 0.0053
vt 0.8663 0.5241
vt 0.8663 0.0053
vt 0.8421 0.5241
vt 0.8421 0.0053
vt 0.8178 0.5241
vt 0.8178 0.0053
vt 0.7936 0.5241
vt 0.7936 0.0053
vt 0.7694 0.5241
vt 0.7694 0.0053
vt 0.7451 0.5241
vt 0.7451 0.0053
vt 0.7209 0.5241
vt 0.7209 0.0053
vt 0.6966 0.5241
vt 0.6966 0.0053
vt 0.9918 0.0129
vt 0.9876 0.6851
vt 0.9633 0.6851
vt 0.9633 0.6416
vt 0.9876 0.6416
vt 0.9391 0.6851
vt 0.9391 0.6416
vt 0.9148 0.6851
vt 0.9148 0.6416
vt 0.8906 0.6851
vt 0.8906 0.6416
vt 0.8663 0.6851
vt 0.8663 0.6416
vt 0.8421 0.6851
vt 0.8421 0.6416
vt 0.8178 0.6851
vt 0.8178 0.6416
vt 0.7936 0.6851
vt 0.7936 0.6416
vt 0.7694 0.6851
vt 0.7694 0.6416
vt 0.7451 0.6851
vt 0.7451 0.6416
vt 0.7209 0.6851
vt 0.7209 0.6416
vt 0.6966 0.6851
vt 0.6966 0.6416
vt 0.9876 0.9029
vt 0.9633 0.9029
vt 0.9633 0.8158
vt 0.9876 0.8158
vt 0.9391 0.9029
vt 0.9391 0.8158
vt 0.9148 0.9029
vt 0.9148 0.8158
vt 0.8906 0.9029
vt 0.8906 0.8158
vt 0.8663 0.9029
vt 0.8663 0.8158
vt 0.8421 0.9029
vt 0.8421 0.8158
vt 0.8178 0.9029
vt 0.8178 0.8158
vt 0.7936 0.9029
vt 0.7936 0.8158
vt 0.7694 0.9029
vt 0.7694 0.8158
vt 0.7451 0.9029
vt 0.7451 0.8158
vt 0.7209 0.9029
vt 0.7209 0.8158
vt 0.6966 0.9029
vt 0.6966 0.8158
vt 0.9876 0.99
vt 0.9633 0.99
vt 0.9391 0.99
vt 0.9148 0.99
vt 0.8906 0.99
vt 0.8663 0.99
vt 0.8421 0.99
vt 0.8178 0.99
vt 0.7936 0.99
vt 0.7694 0.99
vt 0.7451 0.99
vt 0.7209 0.99
vt 0.6966 0.99
vt 0.9633 0.7287
vt 0.9876 0.7287
vt 0.9391 0.7287
vt 0.9148 0.7287
vt 0.8906 0.7287
vt 0.8663 0.7287
vt 0.8421 0.7287
vt 0.8178 0.7287
vt 0.7936 0.7287
vt 0.7694 0.7287
vt 0.7451 0.7287
vt 0.7209 0.7287
vt 0.6966 0.7287
vn 0.0 -0.9659 0.2588
vn -0.5 -0.8365 0.2242
vn -0.5 -0.8365 0.2242
vn 0.0 -0.9659 0.2588
vn -0.866 -0.483 0.1294
vn -0.866 -0.483 0.1294
vn -1.0 -0.0 0.0
vn -1.0 0.0001 0.0
vn -0.866 0.483 -0.1294
vn -0.866 0.4831 -0.1294
vn -0.5 0.8365 -0.2241
vn -0.4999 0.8366 -0.2242
vn 0.0 0.9659 -0.2588
vn -0.0 0.9659 -0.2588
vn 0.5 0.8365 -0.2241
vn 0.5 0.8365 -0.2241
vn 0.866 0.483 -0.1294
vn 0.866 0.483 -0.1294
vn 1.0 0.0 0.0
vn 1.0 0.0 0.0
vn 0.866 -0.483 0.1294
vn 0.866 -0.483 0.1294
vn 0.5001 -0.8365 0.2241
vn 0.5 -0.8365 0.2241
vn 0.0 -0.9659 0.2588
vn -0.5 -0.8365 0.2241
vn -0.866 -0.483 0.1294
vn -1.0 0.0 -0.0
vn -0.866 0.483 -0.1294
vn -0.5 0.8365 -0.2242
vn -0.0 0.9659 -0.2588
vn 0.5 0.8365 -0.2241
vn 0.866 0.483 -0.1294
vn 1.0 -0.0 -0.0
vn 0.866 -0.483 0.1294
vn 0.5 -0.8365 0.2241
vn 0.0 -0.9659 0.2588
vn -0.5 -0.8365 0.2242
vn -0.866 -0.4829 0.1294
vn -1.0 0.0 0.0
vn -0.866 0.483 -0.1294
vn -0.5 0.8365 -0.2242
vn -0.0 0.9659 -0.2588
vn 0.5 0.8365 -0.2241
vn 0.866 0.4829 -0.1294
vn 1.0 -0.0 0.0
vn 0.866 -0.483 0.1294
vn 0.5 -0.8365 0.2241
vn -0.5447 -0.1049 0.832
vn -0.3155 -0.3292 0.89
vn -0.0 -0.4121 0.9112
vn 0.5449 -0.1048 0.832
vn -0.5401 0.5015 0.6759
vn 0.6261 0.1997 0.7537
vn 0.5402 0.5015 0.6758
vn 0.311 0.7209 0.6193
vn -0.0 0.8008 0.5989
vn -0.3109 0.7209 0.6194
vn -0.6261 0.1996 0.7537
vn 0.3154 -0.3294 0.89
vn 0.0 -0.9892 0.1466
vn -0.4967 -0.8607 0.1121
vn -0.4961 -0.8622 0.1024
vn -0.0 -0.9906 0.1368
vn -0.8603 -0.5094 0.018
vn -0.8593 -0.5114 0.0084
vn -0.9934 -0.0296 -0.1105
vn -0.9923 -0.0322 -0.12
vn -0.8603 0.4502 -0.2391
vn -0.8593 0.4471 -0.2484
vn -0.4967 0.8014 -0.3332
vn -0.4961 0.7979 -0.3424
vn 0.0 0.93 -0.3676
vn 0.0 0.9263 -0.3768
vn 0.4967 0.8014 -0.3332
vn 0.4962 0.7979 -0.3424
vn 0.8603 0.4502 -0.2391
vn 0.8593 0.447 -0.2484
vn 0.9934 -0.0296 -0.1106
vn 0.9923 -0.0322 -0.12
vn 0.8603 -0.5094 0.018
vn 0.8593 -0.5114 0.0084
vn 0.4967 -0.8606 0.1121
vn 0.4961 -0.8622 0.1024
vn 0.0 -0.8974 0.4413
vn -0.49 -0.7694 0.4097
vn -0.5006 -0.8432 0.1963
vn 0.0 -0.9733 0.2296
vn -0.8476 -0.4205 0.3236
vn -0.8665 -0.488 0.1051
vn -0.977 0.0547 0.2063
vn -0.9998 -0.0033 -0.0192
vn -0.8444 0.5282 0.0895
vn -0.8652 0.4805 -0.1434
vn -0.4868 0.8735 0.0042
vn -0.4992 0.8342 -0.2342
vn -0.0 0.9996 -0.027
vn 0.0 0.9636 -0.2674
vn 0.4868 0.8735 0.0042
vn 0.4992 0.8342 -0.2342
vn 0.8444 0.5282 0.0895
vn 0.8652 0.4805 -0.1434
vn 0.977 0.0547 0.2063
vn 0.9998 -0.0034 -0.0192
vn 0.8477 -0.4204 0.3236
vn 0.8665 -0.4879 0.1051
vn 0.4901 -0.7694 0.4097
vn 0.5006 -0.8432 0.1962
vn -0.4993 -0.8495 0.1706
vn 0.0 -0.9787 0.2052
vn -0.8647 -0.4964 0.076
vn -0.9985 -0.0142 -0.0532
vn -0.8647 0.468 -0.1824
vn -0.4992 0.821 -0.277
vn -0.0 0.9502 -0.3116
vn 0.4993 0.821 -0.277
vn 0.8647 0.468 -0.1824
vn 0.9985 -0.0143 -0.0532
vn 0.8647 -0.4965 0.076
vn 0.4993 -0.8495 0.1706
vtan 1.0 0.0 -0.0
vtan 0.866 -0.483 0.1294
vtan 0.866 -0.4829 0.1294
vtan 1.0 0.0 0.0
vtan 0.5 -0.8365 0.2241
vtan 0.5 -0.8365 0.2241
vtan 0.0 -0.9659 0.2589
vtan -0.0001 -0.9659 0.2588
vtan -0.5 -0.8365 0.2241
vtan -0.5001 -0.8365 0.2242
vtan -0.866 -0.4829 0.1294
vtan -0.8661 -0.4829 0.1294
vtan -1.0 0.0 -0.0
vtan -1.0 -0.0 0.0
vtan -0.866 0.483 -0.1294
vtan -0.866 0.483 -0.1294
vtan -0.5 0.8365 -0.2241
vtan -0.5 0.8365 -0.2242
vtan -0.0 0.9659 -0.2589
vtan -0.0 0.9659 -0.2588
vtan 0.5 0.8365 -0.2241
vtan 0.5 0.8365 -0.2241
vtan 0.866 0.483 -0.1294
vtan 0.866 0.4829 -0.1294
vtan 1.0 0.0 0.0
vtan 1.0 -0.0 -0.0
vtan 0.866 -0.483 0.1294
vtan 1.0 0.0 -0.0
vtan 1.0 0.0 -0.0
vtan 0.8661 -0.4829 0.1294
vtan 0.5 -0.8365 0.2241
vtan -0.0 -0.9659 0.2588
vtan 0.0 -0.9659 0.2589
vtan -0.5 -0.8365 0.2241
vtan -0.5 -0.8365 0.2241
vtan -0.8661 -0.4829 0.1294
vtan -0.866 -0.4829 0.1294
vtan -1.0 -0.0 0.0
vtan -1.0 0.0 -0.0
vtan -0.866 0.483 -0.1294
vtan -0.866 0.483 -0.1294
vtan -0.5 0.8365 -0.2241
vtan -0.5 0.8365 -0.2241
vtan 0.0 0.9659 -0.2588
vtan -0.0 0.9659 -0.2589
vtan 0.5 0.8365 -0.2241
vtan 0.5 0.8365 -0.2241
vtan 0.866 0.483 -0.1294
vtan 0.866 0.483 -0.1294
vtan 1.0 0.0 0.0
vtan 1.0 0.0 -0.0
vtan 1.0 0.0 0.0001
vtan 0.866 -0.4829 0.1294
vtan 0.8661 -0.4829 0.1294
vtan 1.0 0.0 -0.0
vtan 0.5 -0.8365 0.2241
vtan 0.5 -0.8365 0.2241
vtan -0.0 -0.9659 0.2588
vtan -0.0 -0.9659 0.2588
vtan -0.5 -0.8365 0.2241
vtan -0.5 -0.8365 0.2241
vtan -0.866 -0.4829 0.1294
vtan -0.8661 -0.4829 0.1294
vtan -1.0 -0.0 0.0
vtan -1.0 -0.0 -0.0
vtan -0.866 0.483 -0.1294
vtan -0.866 0.483 -0.1294
vtan -0.5 0.8365 -0.2241
vtan -0.5 0.8365 -0.2241
vtan 0.0 0.9659 -0.2588
vtan 0.0 0.9659 -0.2588
vtan 0.5 0.8365 -0.2241
vtan 0.5 0.8365 -0.2241
vtan 0.866 0.483 -0.1294
vtan 0.866 0.483 -0.1294
vtan 1.0 -0.0 -0.0001
vtan 1.0 -0.0 -0.0
vtan 1.0 0.0 0.0
vtan 0.9995 0.0045 0.0303
vtan 0.866 -0.4829 0.1294
vtan 0.8661 -0.4829 0.1294
vtan 0.9994 0.0045 0.033
vtan 0.5 -0.8365 0.2241
vtan 0.5 -0.8365 0.2242
vtan -0.0 -0.9659 0.2588
vtan 0.0 -0.9659 0.2588
vtan -0.5 -0.8365 0.2242
vtan -0.5 -0.8365 0.2241
vtan -0.866 -0.483 0.1294
vtan -0.866 -0.483 0.1294
vtan -1.0 0.0 -0.0
vtan -1.0 0.0 -0.0
vtan -0.866 0.483 -0.1294
vtan -0.866 0.483 -0.1294
vtan -0.5001 0.8365 -0.2241
vtan -0.5 0.8365 -0.2241
vtan -0.0 0.9659 -0.2588
vtan 0.0001 0.9659 -0.2588
vtan 0.5 0.8365 -0.2241
vtan 0.5 0.8365 -0.2242
vtan 0.866 0.483 -0.1294
vtan 0.866 0.483 -0.1294
vtan 0.9995 -0.0045 -0.0303
vtan 0.9994 -0.0046 -0.033
vtan 0.9987 -0.0229 -0.0466
vtan 0.8661 -0.4828 0.1293
vtan 0.8656 -0.4837 0.1296
vtan 1.0 0.0019 0.0078
vtan 0.5004 -0.8363 0.224
vtan 0.4987 -0.8372 0.2243
vtan 0.0005 -0.966 0.2587
vtan -0.0017 -0.9659 0.2588
vtan -0.4996 -0.8368 0.2241
vtan -0.5013 -0.8358 0.224
vtan -0.8659 -0.4832 0.1294
vtan -0.8665 -0.4822 0.1292
vtan -1.0 -0.0 -0.0
vtan -1.0 -0.0 -0.0
vtan -0.8659 0.4832 -0.1294
vtan -0.8664 0.4823 -0.1292
vtan -0.4996 0.8368 -0.2241
vtan -0.5013 0.8358 -0.2239
vtan 0.0005 0.966 -0.2587
vtan -0.0017 0.9659 -0.2588
vtan 0.5003 0.8363 -0.224
vtan 0.4987 0.8373 -0.2243
vtan 0.8661 0.4828 -0.1294
vtan 0.8656 0.4837 -0.1296
vtan 0.9987 0.0229 0.0466
vtan 1.0 -0.0018 -0.0078
vtan 0.9792 -0.1848 -0.0835
vtan 0.8669 -0.4815 0.1292
vtan 0.5025 -0.8351 0.2237
vtan 0.0034 -0.966 0.2587
vtan -0.4974 -0.838 0.2243
vtan -0.8652 -0.4844 0.1296
vtan -1.0 0.0 -0.0
vtan -0.8652 0.4844 -0.1296
vtan -0.4973 0.8381 -0.2244
vtan 0.0034 0.9659 -0.2587
vtan 0.5023 0.8353 -0.2237
vtan 0.8669 0.4815 -0.1291
vtan 0.9792 0.1848 0.0836
vtan 0.866 -0.483 0.1294
vtan 0.9999 0.003 0.0145
vtan 0.5 -0.8365 0.2241
vtan -0.0 -0.9659 0.2588
vtan -0.5 -0.8365 0.2242
vtan -0.866 -0.483 0.1294
vtan -1.0 -0.0 -0.0
vtan -0.866 0.483 -0.1294
vtan -0.5 0.8365 -0.2242
vtan 0.0 0.9659 -0.2588
vtan 0.5 0.8365 -0.2241
vtan 0.866 0.483 -0.1294
vtan 0.9999 -0.003 -0.0145
vtan 0.866 -0.4829 0.1294
vtan 1.0 0.0 0.0001
vtan 0.5 -0.8365 0.2241
vtan -0.0 -0.9659 0.2588
vtan -0.5 -0.8365 0.2241
vtan -0.866 -0.4829 0.1294
vtan -1.0 -0.0 0.0
vtan -0.866 0.483 -0.1294
vtan -0.5 0.8365 -0.2241
vtan 0.0 0.9659 -0.2588
vtan 0.5 0.8365 -0.2241
vtan 0.866 0.483 -0.1294
vtan 1.0 -0.0 -0.0001
f 0/0/0/0 1/1/1/1 2/2/2/2 
f 0/0/0/0 2/2/2/2 3/3/3/3 
f 1/1/1/1 4/4/4/4 5/5/5/5 
f 1/1/1/1 5/5/5/5 2/2/2/2 
f 4/4/4/4 6/6/6/6 7/7/7/7 
f 4/4/4/4 7/7/7/7 5/5/5/5 
f 6/6/6/6 8/8/8/8 9/9/9/9 
f 6/6/6/6 9/9/9/9 7/7/7/7 
f 8/8/8/8 10/10/10/10 11/11/11/11 
f 8/8/8/8 11/11/11/11 9/9/9/9 
f 10/10/10/10 12/12/12/12 13/13/13/13 
f 10/10/10/10 13/13/13/13 11/11/11/11 
f 12/12/12/12 14/14/14/14 15/15/15/15 
f 12/12/12/12 15/15/15/15 13/13/13/13 
f 14/14/14/14 16/16/16/16 17/17/17/17 
f 14/14/14/14 17/17/17/17 15/15/15/15 
f 16/16/16/16 18/18/18/18 19/19/19/19 
f 16/16/16/16 19/19/19/19 17/17/17/17 
f 18/18/18/18 20/20/20/20 21/21/21/21 
f 18/18/18/18 21/21/21/21 19/19/19/19 
f 20/20/20/20 22/22/22/22 23/23/23/23 
f 20/20/20/20 23/23/23/23 21/21/21/21 
f 22/22/22/22 0/24/0/24 3/25/3/25 
f 22/22/22/22 3/25/3/25 23/23/23/23 
f 1/2/1/26 0/3/0/27 24/0/24/28 
f 1/2/1/26 24/0/24/28 25/1/25/29 
f 25/1/25/29 26/4/26/30 4/5/4/4 
f 25/1/25/29 4/5/4/4 1/2/1/26 
f 26/4/26/30 27/6/27/31 6/7/6/32 
f 26/4/26/30 6/7/6/32 4/5/4/4 
f 27/6/27/31 28/8/28/33 8/9/8/34 
f 27/6/27/31 8/9/8/34 6/7/6/32 
f 28/8/28/33 29/10/29/35 10/11/10/36 
f 28/8/28/33 10/11/10/36 8/9/8/34 
f 29/10/29/35 30/12/30/37 12/13/12/38 
f 29/10/29/35 12/13/12/38 10/11/10/36 
f 30/12/30/37 31/14/31/39 14/15/14/40 
f 30/12/30/37 14/15/14/40 12/13/12/38 
f 31/14/31/39 32/16/32/41 16/17/16/42 
f 31/14/31/39 16/17/16/42 14/15/14/40 
f 32/16/32/41 33/18/33/43 18/19/18/44 
f 32/16/32/41 18/19/18/44 16/17/16/42 
f 33/18/33/43 34/20/34/45 20/21/20/46 
f 33/18/33/43 20/21/20/46 18/19/18/44 
f 34/20/34/45 35/22/35/47 22/23/22/48 
f 34/20/34/45 22/23/22/48 20/21/20/46 
f 0/25/0/49 22/23/22/48 35/22/35/47 
f 0/25/0/49 35/22/35/47 24/24/24/50 
f 36/0/36/51 37/1/37/52 25/2/25/53 
f 36/0/36/51 25/2/25/53 24/3/24/54 
f 37/1/37/52 38/4/38/55 26/5/26/56 
f 37/1/37/52 26/5/26/56 25/2/25/53 
f 38/4/38/55 39/6/39/57 27/7/27/58 
f 38/4/38/55 27/7/27/58 26/5/26/56 
f 39/6/39/57 40/8/40/59 28/9/28/60 
f 39/6/39/57 28/9/28/60 27/7/27/58 
f 40/8/40/59 41/10/41/61 29/11/29/62 
f 40/8/40/59 29/11/29/62 28/9/28/60 
f 41/10/41/61 42/12/42/63 30/13/30/64 
f 41/10/41/61 30/13/30/64 29/11/29/62 
f 42/12/42/63 43/14/43/65 31/15/31/66 
f 42/12/42/63 31/15/31/66 30/13/30/64 
f 43/14/43/65 44/16/44/67 32/17/32/68 
f 43/14/43/65 32/17/32/68 31/15/31/66 
f 44/16/44/67 45/18/45/69 33/19/33/70 
f 44/16/44/67 33/19/33/70 32/17/32/68 
f 45/18/45/69 46/20/46/71 34/21/34/72 
f 45/18/45/69 34/21/34/72 33/19/33/70 
f 46/20/46/71 47/22/47/73 35/23/35/74 
f 46/20/46/71 35/23/35/74 34/21/34/72 
f 47/22/47/73 36/24/36/75 24/25/24/76 
f 47/22/47/73 24/25/24/76 35/23/35/74 
f 48/26/48/77 49/26/49/77 50/26/50/77 
f 48/26/48/77 50/26/50/77 51/26/51/77 
f 48/26/48/77 51/26/51/77 52/26/52/77 
f 51/26/51/77 53/26/53/77 54/26/54/77 
f 51/26/51/77 54/26/54/77 52/26/52/77 
f 54/26/54/77 55/26/55/77 56/26/56/77 
f 54/26/54/77 56/26/56/77 52/26/52/77 
f 56/26/56/77 57/26/57/77 52/26/52/77 
f 58/26/58/77 48/26/48/77 52/26/52/77 
f 59/26/59/77 51/26/51/77 50/26/50/77 
f 60/27/60/78 61/28/61/79 62/29/62/80 
f 60/27/60/78 62/29/62/80 63/30/63/81 
f 61/28/61/79 64/31/64/82 65/32/65/83 
f 61/28/61/79 65/32/65/83 62/29/62/80 
f 64/31/64/82 66/33/66/84 67/34/67/85 
f 64/31/64/82 67/34/67/85 65/32/65/83 
f 66/33/66/84 68/35/68/86 69/36/69/87 
f 66/33/66/84 69/36/69/87 67/34/67/85 
f 68/35/68/86 70/37/70/88 71/38/71/89 
f 68/35/68/86 71/38/71/89 69/36/69/87 
f 70/37/70/88 72/39/72/90 73/40/73/91 
f 70/37/70/88 73/40/73/91 71/38/71/89 
f 72/39/72/90 74/41/74/92 75/42/75/93 
f 72/39/72/90 75/42/75/93 73/40/73/91 
f 74/41/74/92 76/43/76/94 77/44/77/95 
f 74/41/74/92 77/44/77/95 75/42/75/93 
f 76/43/76/94 78/45/78/96 79/46/79/97 
f 76/43/76/94 79/46/79/97 77/44/77/95 
f 78/45/78/96 80/47/80/98 81/48/81/99 
f 78/45/78/96 81/48/81/99 79/46/79/97 
f 80/47/80/98 82/49/82/100 83/50/83/101 
f 80/47/80/98 83/50/83/101 81/48/81/99 
f 82/49/82/100 60/51/60/102 63/52/63/103 
f 82/49/82/100 63/52/63/103 83/50/83/101 
f 84/53/84/104 85/54/85/105 86/55/86/106 
f 84/53/84/104 86/55/86/106 87/56/87/107 
f 86/55/86/106 85/54/85/105 88/57/88/108 
f 86/55/86/106 88/57/88/108 89/58/89/109 
f 89/58/89/109 88/57/88/108 90/59/90/110 
f 89/58/89/109 90/59/90/110 91/60/91/111 
f 91/60/91/111 90/59/90/110 92/61/92/112 
f 91/60/91/111 92/61/92/112 93/62/93/113 
f 93/62/93/113 92/61/92/112 94/63/94/114 
f 93/62/93/113 94/63/94/114 95/64/95/115 
f 94/63/94/114 96/65/96/116 97/66/97/117 
f 94/63/94/114 97/66/97/117 95/64/95/115 
f 96/65/96/116 98/67/98/118 99/68/99/119 
f 96/65/96/116 99/68/99/119 97/66/97/117 
f 98/67/98/118 100/69/100/120 101/70/101/121 
f 98/67/98/118 101/70/101/121 99/68/99/119 
f 100/69/100/120 102/71/102/122 103/72/103/123 
f 100/69/100/120 103/72/103/123 101/70/101/121 
f 102/71/102/122 104/73/104/124 105/74/105/125 
f 102/71/102/122 105/74/105/125 103/72/103/123 
f 104/73/104/124 106/75/106/126 107/76/107/127 
f 104/73/104/124 107/76/107/127 105/74/105/125 
f 106/75/106/126 84/77/84/128 87/78/87/129 
f 106/75/106/126 87/78/87/129 107/76/107/127 
f 50/79/50/130 49/80/49/131 85/54/85/105 
f 50/79/50/130 85/54/85/105 84/53/84/104 
f 49/80/49/131 48/81/48/132 88/57/88/108 
f 49/80/49/131 88/57/88/108 85/54/85/105 
f 88/57/88/108 48/81/48/132 58/82/58/133 
f 88/57/88/108 58/82/58/133 90/59/90/110 
f 90/59/90/110 58/82/58/133 52/83/52/134 
f 90/59/90/110 52/83/52/134 92/61/92/112 
f 52/83/52/134 57/84/57/135 94/63/94/114 
f 52/83/52/134 94/63/94/114 92/61/92/112 
f 57/84/57/135 56/85/56/136 96/65/96/116 
f 57/84/57/135 96/65/96/116 94/63/94/114 
f 56/85/56/136 55/86/55/137 98/67/98/118 
f 56/85/56/136 98/67/98/118 96/65/96/116 
f 55/86/55/137 54/87/54/138 100/69/100/120 
f 55/86/55/137 100/69/100/120 98/67/98/118 
f 54/87/54/138 53/88/53/139 102/71/102/122 
f 54/87/54/138 102/71/102/122 100/69/100/120 
f 53/88/53/139 51/89/51/140 104/73/104/124 
f 53/88/53/139 104/73/104/124 102/71/102/122 
f 51/89/51/140 59/90/59/141 106/75/106/126 
f 51/89/51/140 106/75/106/126 104/73/104/124 
f 59/90/59/141 50/91/50/142 84/77/84/128 
f 59/90/59/141 84/77/84/128 106/75/106/126 
f 87/56/87/107 86/55/86/106 108/92/108/143 
f 87/56/87/107 108/92/108/143 109/93/109/144 
f 86/55/86/106 89/58/89/109 110/94/110/145 
f 86/55/86/106 110/94/110/145 108/92/108/143 
f 89/58/89/109 91/60/91/111 111/95/111/146 
f 89/58/89/109 111/95/111/146 110/94/110/145 
f 91/60/91/111 93/62/93/113 112/96/112/147 
f 91/60/91/111 112/96/112/147 111/95/111/146 
f 93/62/93/113 95/64/95/115 113/97/113/148 
f 93/62/93/113 113/97/113/148 112/96/112/147 
f 95/64/95/115 97/66/97/117 114/98/114/149 
f 95/64/95/115 114/98/114/149 113/97/113/148 
f 97/66/97/117 99/68/99/119 115/99/115/150 
f 97/66/97/117 115/99/115/150 114/98/114/149 
f 99/68/99/119 101/70/101/121 116/100/116/151 
f 99/68/99/119 116/100/116/151 115/99/115/150 
f 101/70/101/121 103/72/103/123 117/101/117/152 
f 101/70/101/121 117/101/117/152 116/100/116/151 
f 103/72/103/123 105/74/105/125 118/102/118/153 
f 103/72/103/123 118/102/118/153 117/101/117/152 
f 105/74/105/125 107/76/107/127 119/103/119/154 
f 105/74/105/125 119/103/119/154 118/102/118/153 
f 107/76/107/127 87/78/87/129 109/104/109/155 
f 107/76/107/127 109/104/109/155 119/103/119/154 
f 109/93/109/144 108/92/108/143 61/28/61/79 
f 109/93/109/144 61/28/61/79 60/27/60/78 
f 108/92/108/143 110/94/110/145 64/31/64/82 
f 108/92/108/143 64/31/64/82 61/28/61/79 
f 110/94/110/145 111/95/111/146 66/33/66/84 
f 110/94/110/145 66/33/66/84 64/31/64/82 
f 111/95/111/146 112/96/112/147 68/35/68/86 
f 111/95/111/146 68/35/68/86 66/33/66/84 
f 112/96/112/147 113/97/113/148 70/37/70/88 
f 112/96/112/147 70/37/70/88 68/35/68/86 
f 113/97/113/148 114/98/114/149 72/39/72/90 
f 113/97/113/148 72/39/72/90 70/37/70/88 
f 114/98/114/149 115/99/115/150 74/41/74/92 
f 114/98/114/149 74/41/74/92 72/39/72/90 
f 115/99/115/150 116/100/116/151 76/43/76/94 
f 115/99/115/150 76/43/76/94 74/41/74/92 
f 116/100/116/151 117/101/117/152 78/45/78/96 
f 116/100/116/151 78/45/78/96 76/43/76/94 
f 117/101/117/152 118/102/118/153 80/47/80/98 
f 117/101/117/152 80/47/80/98 78/45/78/96 
f 118/102/118/153 119/103/119/154 82/49/82/100 
f 118/102/118/153 82/49/82/100 80/47/80/98 
f 119/103/119/154 109/104/109/155 60/51/60/102 
f 119/103/119/154 60/51/60/102 82/49/82/100 
f 63/30/63/81 62/29/62/80 37/2/37/156 
f 63/30/63/81 37/2/37/156 36/3/36/157 
f 62/29/62/80 65/32/65/83 38/5/38/158 
f 62/29/62/80 38/5/38/158 37/2/37/156 
f 65/32/65/83 67/34/67/85 39/7/39/159 
f 65/32/65/83 39/7/39/159 38/5/38/158 
f 67/34/67/85 69/36/69/87 40/9/40/160 
f 67/34/67/85 40/9/40/160 39/7/39/159 
f 69/36/69/87 71/38/71/89 41/11/41/161 
f 69/36/69/87 41/11/41/161 40/9/40/160 
f 71/38/71/89 73/40/73/91 42/13/42/162 
f 71/38/71/89 42/13/42/162 41/11/41/161 
f 73/40/73/91 75/42/75/93 43/15/43/163 
f 73/40/73/91 43/15/43/163 42/13/42/162 
f 75/42/75/93 77/44/77/95 44/17/44/164 
f 75/42/75/93 44/17/44/164 43/15/43/163 
f 77/44/77/95 79/46/79/97 45/19/45/165 
f 77/44/77/95 45/19/45/165 44/17/44/164 
f 79/46/79/97 81/48/81/99 46/21/46/166 
f 79/46/79/97 46/21/46/166 45/19/45/165 
f 81/48/81/99 83/50/83/101 47/23/47/167 
f 81/48/81/99 47/23/47/167 46/21/46/166 
f 83/50/83/101 63/52/63/103 36/25/36/168 
f 83/50/83/101 36/25/36/168 47/23/47/167 
