v -652.7542 695.3229 -242.9311
v -583.8997 695.3229 -242.9311
v -583.0864 695.3229 -243.7442
v -653.5671 695.3229 -312.5889
v -583.0864 695.3229 -312.5889
v -583.8997 695.3229 -313.4021
v -652.7542 695.3229 -313.4021
v -653.5671 695.3229 -243.7442
v -591.0571 520.3423 -250.229
v -591.1313 660.3633 -250.229
v -645.5225 660.3633 -250.229
v -645.5964 520.3423 -250.229
v -590.3855 520.3423 -305.4324
v -590.3855 660.3633 -305.3582
v -590.3855 660.3633 -250.9749
v -590.3855 520.3423 -250.9007
v -645.5964 520.3423 -306.1041
v -645.5225 660.3633 -306.1041
v -591.1313 660.3633 -306.1041
v -591.0571 520.3423 -306.1041
v -646.2683 520.3423 -250.9007
v -646.2683 660.3633 -250.9749
v -646.2683 660.3633 -305.3582
v -646.2683 520.3423 -305.4324
v -589.7261 670.6964 -248.8835
v -646.9277 670.6965 -248.8835
v -646.1057 664.2319 -249.6597
v -590.5481 664.2319 -249.6597
v -589.0398 670.6964 -306.7633
v -589.0398 670.6964 -249.5698
v -589.8159 664.2319 -250.3917
v -589.8159 664.2319 -305.9414
v -646.9277 670.6964 -307.4496
v -589.7261 670.6964 -307.4496
v -590.5481 664.2319 -306.6734
v -646.1057 664.2319 -306.6734
v -647.614 670.6965 -249.5698
v -647.614 670.6964 -306.7633
v -646.8376 664.2319 -305.9414
v -646.8376 664.2319 -250.3917
v -583.7866 686.5967 -242.9311
v -583.8218 690.9597 -242.9311
v -652.8318 690.9597 -242.9311
v -652.8672 686.5967 -242.9311
v -583.0864 686.5967 -312.7019
v -583.0864 690.9597 -312.6666
v -583.0864 690.9597 -243.6665
v -583.0864 686.5967 -243.6312
v -652.8672 686.5967 -313.4021
v -652.8318 690.9597 -313.4021
v -583.8218 690.9597 -313.4021
v -583.7866 686.5967 -313.4021
v -653.5671 686.5967 -243.6312
v -653.5671 690.9597 -243.6665
v -653.5671 690.9597 -312.6666
v -653.5671 686.5967 -312.7019
v -589.0073 662.2977 -248.0331
v -647.6465 662.2977 -248.0331
v -588.1892 662.2977 -307.482
v -588.1892 662.2977 -248.8512
v -647.6465 662.2977 -308.3001
v -589.0073 662.2977 -308.3001
v -648.4646 662.2977 -248.8512
v -648.4646 662.2977 -307.482
v -581.854 693.1412 -240.8857
v -654.7998 693.1412 -240.8857
v -581.0408 693.1412 -314.6343
v -581.0408 693.1412 -241.6988
v -654.7998 693.1412 -315.4475
v -581.854 693.1412 -315.4475
v -655.613 693.1412 -241.6988
v -655.613 693.1412 -314.6343
v -649.5288 679.6954 -246.255
v -587.1248 679.6954 -246.255
v -586.4109 679.6954 -246.969
v -586.4109 679.6954 -309.3642
v -587.1248 679.6954 -310.0781
v -649.5288 679.6954 -310.0781
v -650.2429 679.6954 -309.3642
v -650.2429 679.6954 -246.969
v -646.884 518.7643 -306.0338
v -653.8225 511.8408 -312.8047
v -653.8225 511.8407 -243.5284
v -646.884 518.7643 -250.2993
v -646.1982 518.7643 -306.7198
v -652.97 511.8408 -313.6573
v -590.4556 518.7643 -306.7198
v -583.6838 511.8408 -313.6573
v -589.7695 518.7643 -306.0338
v -582.8311 511.8408 -312.8047
v -589.7695 518.7643 -250.2993
v -582.8311 511.8407 -243.5284
v -590.4556 518.7643 -249.6133
v -583.6838 511.8407 -242.6758
v -646.1982 518.7643 -249.6133
v -652.97 511.8407 -242.6758
v -655.2793 511.8408 -313.4079
v -655.2793 509.4904 -313.4079
v -655.2793 509.4903 -242.925
v -655.2793 511.8407 -242.925
v -653.5732 511.8408 -315.114
v -653.5732 509.4904 -315.114
v -583.0803 511.8408 -315.114
v -583.0803 509.4904 -315.114
v -581.3745 511.8408 -313.4081
v -581.3745 509.4904 -313.4081
v -581.3745 511.8407 -242.9251
v -581.3745 509.4903 -242.9251
v -583.0803 511.8407 -241.2192
v -583.0803 509.4903 -241.2192
v -653.5735 511.8407 -241.2192
v -653.5735 509.4903 -241.2192
v -647.396 519.5533 -249.7999
v -647.396 519.5533 -306.5332
v -646.6978 519.5533 -307.2318
v -589.9561 519.5533 -307.2318
v -589.2576 519.5533 -306.5332
v -589.2576 519.5533 -249.7999
v -589.9561 519.5533 -249.1014
v -646.6978 519.5533 -249.1014
v -653.8225 507.1399 -312.8047
v -653.8225 507.1398 -243.5284
v -653.8225 509.4903 -243.5284
v -653.8225 509.4904 -312.8047
v -652.97 507.1399 -313.6573
v -652.97 509.4904 -313.6573
v -583.6838 507.1399 -313.6573
v -583.6838 509.4904 -313.6573
v -582.8311 507.1399 -312.8047
v -582.8311 509.4904 -312.8047
v -582.8311 507.1398 -243.5284
v -582.8311 509.4903 -243.5284
v -583.6838 507.1398 -242.6758
v -583.6838 509.4903 -242.6758
v -652.97 507.1398 -242.6758
v -652.97 509.4903 -242.6758
gi 0 0 0 0
gi 0 0 0 0
gi 0 0 0 0
gi 0 0 0 0
gi 0 0 0 0
gi 0 0 0 0
gi 0 0 0 0
gi 0 0 0 0
gi 0 0 0 0
gi 0 0 0 0
gi 0 0 0 0
gi 0 0 0 0
gi 0 0 0 0
gi 0 0 0 0
gi 0 0 0 0
gi 0 0 0 0
gi 0 0 0 0
gi 0 0 0 0
gi 0 0 0 0
gi 0 0 0 0
gi 0 0 0 0
gi 0 0 0 0
gi 0 0 0 0
gi 0 0 0 0
gi 0 0 0 0
gi 0 0 0 0
gi 0 0 0 0
gi 0 0 0 0
gi 0 0 0 0
gi 0 0 0 0
gi 0 0 0 0
gi 0 0 0 0
gi 0 0 0 0
gi 0 0 0 0
gi 0 0 0 0
gi 0 0 0 0
gi 0 0 0 0
gi 0 0 0 0
gi 0 0 0 0
gi 0 0 0 0
gi 0 0 0 0
gi 0 0 0 0
gi 0 0 0 0
gi 0 0 0 0
gi 0 0 0 0
gi 0 0 0 0
gi 0 0 0 0
gi 0 0 0 0
gi 0 0 0 0
gi 0 0 0 0
gi 0 0 0 0
gi 0 0 0 0
gi 0 0 0 0
gi 0 0 0 0
gi 0 0 0 0
gi 0 0 0 0
gi 0 0 0 0
gi 0 0 0 0
gi 0 0 0 0
gi 0 0 0 0
gi 0 0 0 0
gi 0 0 0 0
gi 0 0 0 0
gi 0 0 0 0
gi 0 0 0 0
gi 0 0 0 0
gi 0 0 0 0
gi 0 0 0 0
gi 0 0 0 0
gi 0 0 0 0
gi 0 0 0 0
gi 0 0 0 0
gi 0 0 0 0
gi 0 0 0 0
gi 0 0 0 0
gi 0 0 0 0
gi 0 0 0 0
gi 0 0 0 0
gi 0 0 0 0
gi 0 0 0 0
gi 0 0 0 0
gi 0 0 0 0
gi 0 0 0 0
gi 0 0 0 0
gi 0 0 0 0
gi 0 0 0 0
gi 0 0 0 0
gi 0 0 0 0
gi 0 0 0 0
gi 0 0 0 0
gi 0 0 0 0
gi 0 0 0 0
gi 0 0 0 0
gi 0 0 0 0
gi 0 0 0 0
gi 0 0 0 0
gi 0 0 0 0
gi 0 0 0 0
gi 0 0 0 0
gi 0 0 0 0
gi 0 0 0 0
gi 0 0 0 0
gi 0 0 0 0
gi 0 0 0 0
gi 0 0 0 0
gi 0 0 0 0
gi 0 0 0 0
gi 0 0 0 0
gi 0 0 0 0
gi 0 0 0 0
gi 0 0 0 0
gi 0 0 0 0
gi 0 0 0 0
gi 0 0 0 0
gi 0 0 0 0
gi 0 0 0 0
gi 0 0 0 0
gi 0 0 0 0
gi 0 0 0 0
gi 0 0 0 0
gi 0 0 0 0
gi 0 0 0 0
gi 0 0 0 0
gi 0 0 0 0
gi 0 0 0 0
gi 0 0 0 0
gi 0 0 0 0
gi 0 0 0 0
gi 0 0 0 0
gi 0 0 0 0
gi 0 0 0 0
gi 0 0 0 0
gi 0 0 0 0
gi 0 0 0 0
gi 0 0 0 0
gi 0 0 0 0
gw 0.0 0.0 0.0 0.0
gw 0.0 0.0 0.0 0.0
gw 0.0 0.0 0.0 0.0
gw 0.0 0.0 0.0 0.0
gw 0.0 0.0 0.0 0.0
gw 0.0 0.0 0.0 0.0
gw 0.0 0.0 0.0 0.0
gw 0.0 0.0 0.0 0.0
gw 0.0 0.0 0.0 0.0
gw 0.0 0.0 0.0 0.0
gw 0.0 0.0 0.0 0.0
gw 0.0 0.0 0.0 0.0
gw 0.0 0.0 0.0 0.0
gw 0.0 0.0 0.0 0.0
gw 0.0 0.0 0.0 0.0
gw 0.0 0.0 0.0 0.0
gw 0.0 0.0 0.0 0.0
gw 0.0 0.0 0.0 0.0
gw 0.0 0.0 0.0 0.0
gw 0.0 0.0 0.0 0.0
gw 0.0 0.0 0.0 0.0
gw 0.0 0.0 0.0 0.0
gw 0.0 0.0 0.0 0.0
gw 0.0 0.0 0.0 0.0
gw 0.0 0.0 0.0 0.0
gw 0.0 0.0 0.0 0.0
gw 0.0 0.0 0.0 0.0
gw 0.0 0.0 0.0 0.0
gw 0.0 0.0 0.0 0.0
gw 0.0 0.0 0.0 0.0
gw 0.0 0.0 0.0 0.0
gw 0.0 0.0 0.0 0.0
gw 0.0 0.0 0.0 0.0
gw 0.0 0.0 0.0 0.0
gw 0.0 0.0 0.0 0.0
gw 0.0 0.0 0.0 0.0
gw 0.0 0.0 0.0 0.0
gw 0.0 0.0 0.0 0.0
gw 0.0 0.0 0.0 0.0
gw 0.0 0.0 0.0 0.0
gw 0.0 0.0 0.0 0.0
gw 0.0 0.0 0.0 0.0
gw 0.0 0.0 0.0 0.0
gw 0.0 0.0 0.0 0.0
gw 0.0 0.0 0.0 0.0
gw 0.0 0.0 0.0 0.0
gw 0.0 0.0 0.0 0.0
gw 0.0 0.0 0.0 0.0
gw 0.0 0.0 0.0 0.0
gw 0.0 0.0 0.0 0.0
gw 0.0 0.0 0.0 0.0
gw 0.0 0.0 0.0 0.0
gw 0.0 0.0 0.0 0.0
gw 0.0 0.0 0.0 0.0
gw 0.0 0.0 0.0 0.0
gw 0.0 0.0 0.0 0.0
gw 0.0 0.0 0.0 0.0
gw 0.0 0.0 0.0 0.0
gw 0.0 0.0 0.0 0.0
gw 0.0 0.0 0.0 0.0
gw 0.0 0.0 0.0 0.0
gw 0.0 0.0 0.0 0.0
gw 0.0 0.0 0.0 0.0
gw 0.0 0.0 0.0 0.0
gw 0.0 0.0 0.0 0.0
gw 0.0 0.0 0.0 0.0
gw 0.0 0.0 0.0 0.0
gw 0.0 0.0 0.0 0.0
gw 0.0 0.0 0.0 0.0
gw 0.0 0.0 0.0 0.0
gw 0.0 0.0 0.0 0.0
gw 0.0 0.0 0.0 0.0
gw 0.0 0.0 0.0 0.0
gw 0.0 0.0 0.0 0.0
gw 0.0 0.0 0.0 0.0
gw 0.0 0.0 0.0 0.0
gw 0.0 0.0 0.0 0.0
gw 0.0 0.0 0.0 0.0
gw 0.0 0.0 0.0 0.0
gw 0.0 0.0 0.0 0.0
gw 0.0 0.0 0.0 0.0
gw 0.0 0.0 0.0 0.0
gw 0.0 0.0 0.0 0.0
gw 0.0 0.0 0.0 0.0
gw 0.0 0.0 0.0 0.0
gw 0.0 0.0 0.0 0.0
gw 0.0 0.0 0.0 0.0
gw 0.0 0.0 0.0 0.0
gw 0.0 0.0 0.0 0.0
gw 0.0 0.0 0.0 0.0
gw 0.0 0.0 0.0 0.0
gw 0.0 0.0 0.0 0.0
gw 0.0 0.0 0.0 0.0
gw 0.0 0.0 0.0 0.0
gw 0.0 0.0 0.0 0.0
gw 0.0 0.0 0.0 0.0
gw 0.0 0.0 0.0 0.0
gw 0.0 0.0 0.0 0.0
gw 0.0 0.0 0.0 0.0
gw 0.0 0.0 0.0 0.0
gw 0.0 0.0 0.0 0.0
gw 0.0 0.0 0.0 0.0
gw 0.0 0.0 0.0 0.0
gw 0.0 0.0 0.0 0.0
gw 0.0 0.0 0.0 0.0
gw 0.0 0.0 0.0 0.0
gw 0.0 0.0 0.0 0.0
gw 0.0 0.0 0.0 0.0
gw 0.0 0.0 0.0 0.0
gw 0.0 0.0 0.0 0.0
gw 0.0 0.0 0.0 0.0
gw 0.0 0.0 0.0 0.0
gw 0.0 0.0 0.0 0.0
gw 0.0 0.0 0.0 0.0
gw 0.0 0.0 0.0 0.0
gw 0.0 0.0 0.0 0.0
gw 0.0 0.0 0.0 0.0
gw 0.0 0.0 0.0 0.0
gw 0.0 0.0 0.0 0.0
gw 0.0 0.0 0.0 0.0
gw 0.0 0.0 0.0 0.0
gw 0.0 0.0 0.0 0.0
gw 0.0 0.0 0.0 0.0
gw 0.0 0.0 0.0 0.0
gw 0.0 0.0 0.0 0.0
gw 0.0 0.0 0.0 0.0
gw 0.0 0.0 0.0 0.0
gw 0.0 0.0 0.0 0.0
gw 0.0 0.0 0.0 0.0
gw 0.0 0.0 0.0 0.0
gw 0.0 0.0 0.0 0.0
gw 0.0 0.0 0.0 0.0
gw 0.0 0.0 0.0 0.0
gw 0.0 0.0 0.0 0.0
gw 0.0 0.0 0.0 0.0
gw 0.0 0.0 0.0 0.0
vt 0.1655 0.9938
vt 0.0109 0.9938
vt 0.0091 0.9924
vt 0.1674 0.876
vt 0.0091 0.876
vt 0.0109 0.8746
vt 0.1655 0.8746
vt 0.1674 0.9924
vt 0.7421 0.0122
vt 0.7418 0.7672
vt 0.5006 0.7672
vt 0.5003 0.0122
vt 0.9868 0.0122
vt 0.9865 0.7672
vt 0.7451 0.7672
vt 0.7451 0.0122
vt 0.2528 0.0122
vt 0.2525 0.7672
vt 0.0112 0.7672
vt 0.0109 0.0122
vt 0.4975 0.0122
vt 0.4971 0.7672
vt 0.2558 0.7672
vt 0.2558 0.0122
vt 0.3477 0.9089
vt 0.1916 0.9089
vt 0.1939 0.8885
vt 0.3455 0.8885
vt 0.5526 0.9084
vt 0.3965 0.9084
vt 0.3988 0.8881
vt 0.5504 0.8881
vt 0.7614 0.91
vt 0.6053 0.91
vt 0.6076 0.8897
vt 0.7592 0.8897
vt 0.9659 0.9096
vt 0.8098 0.9096
vt 0.8121 0.8892
vt 0.9637 0.8892
vt 0.3639 0.9589
vt 0.3638 0.9726
vt 0.1755 0.9726
vt 0.1754 0.9589
vt 0.5688 0.9584
vt 0.5687 0.9721
vt 0.3804 0.9721
vt 0.3803 0.9584
vt 0.7776 0.96
vt 0.7775 0.9737
vt 0.5892 0.9737
vt 0.5891 0.96
vt 0.9821 0.9596
vt 0.982 0.9733
vt 0.7937 0.9733
vt 0.7936 0.9596
vt 0.7418 0.779
vt 0.5005 0.7793
vt 0.9959 0.7791
vt 0.7453 0.7792
vt 0.2524 0.779
vt 0.0111 0.779
vt 0.4969 0.7793
vt 0.2559 0.779
vt 0.1897 0.8825
vt 0.3497 0.8825
vt 0.3946 0.882
vt 0.5546 0.882
vt 0.6034 0.8836
vt 0.7634 0.8836
vt 0.8079 0.8832
vt 0.9679 0.8832
vt 0.3692 0.9794
vt 0.1701 0.9794
vt 0.5741 0.979
vt 0.3751 0.979
vt 0.7829 0.9806
vt 0.5839 0.9806
vt 0.9874 0.9801
vt 0.7884 0.9801
vt 0.3636 0.9863
vt 0.1757 0.9863
vt 0.5685 0.9859
vt 0.3806 0.9859
vt 0.7773 0.9875
vt 0.5894 0.9875
vt 0.9818 0.987
vt 0.7939 0.987
vt 0.1845 0.9372
vt 0.3548 0.9372
vt 0.3894 0.9367
vt 0.5597 0.9367
vt 0.5982 0.9383
vt 0.7685 0.9383
vt 0.8027 0.9379
vt 0.973 0.9379
vt 0.9754 0.9368
vt 0.9849 0.9589
vt 0.0079 0.7672
vt 0.0079 0.0122
vt 0.348 0.8895
vt 0.3503 0.9083
vt 0.6028 0.9094
vt 0.605 0.8907
vt 0.8073 0.909
vt 0.8095 0.8902
vt 0.9848 0.9721
vt 0.3665 0.9582
vt 0.3663 0.9714
vt 0.5867 0.9726
vt 0.5865 0.9593
vt 0.7912 0.9721
vt 0.791 0.9589
vt 0.3523 0.885
vt 0.9705 0.8857
vt 0.9664 0.8902
vt 0.6007 0.8862
vt 0.8052 0.8857
vt 0.0078 0.7789
vt 0.9907 0.9801
vt 0.3716 0.9794
vt 0.5815 0.9806
vt 0.786 0.9801
vt 0.9842 0.9896
vt 0.366 0.9889
vt 0.5871 0.99
vt 0.7916 0.9896
vt 0.9686 0.909
vt 0.3574 0.936
vt 0.5957 0.9372
vt 0.8002 0.9367
vt 0.7521 0.8673
vt 0.7407 0.844
vt 0.9787 0.844
vt 0.9674 0.8673
vt 0.7231 0.8673
vt 0.7344 0.844
vt 0.5077 0.8685
vt 0.4964 0.844
vt 0.4787 0.8685
vt 0.49 0.844
vt 0.2634 0.8683
vt 0.2521 0.844
vt 0.2344 0.8683
vt 0.2457 0.844
vt 0.0185 0.8682
vt 0.0095 0.8447
vt 0.9833 0.8433
vt 0.983 0.8665
vt 0.7404 0.8398
vt 0.7404 0.8318
vt 0.979 0.8318
vt 0.979 0.8398
vt 0.7347 0.8398
vt 0.7347 0.8318
vt 0.4961 0.8398
vt 0.4961 0.8318
vt 0.4903 0.8398
vt 0.4903 0.8318
vt 0.2518 0.8398
vt 0.2518 0.8318
vt 0.246 0.8398
vt 0.246 0.8318
vt 0.0075 0.8398
vt 0.0075 0.8318
vt 0.9847 0.8318
vt 0.9847 0.8398
vt 0.9682 0.8705
vt 0.7512 0.8699
vt 0.7239 0.8699
vt 0.5069 0.8711
vt 0.4796 0.8711
vt 0.2626 0.8709
vt 0.2352 0.8709
vt 0.0168 0.8708
vt 0.983 0.8702
vt 0.745 0.8179
vt 0.5036 0.8179
vt 0.5036 0.8097
vt 0.745 0.8097
vt 0.7479 0.8179
vt 0.7479 0.8097
vt 0.9893 0.8179
vt 0.9893 0.8097
vt 0.9922 0.8179
vt 0.9922 0.8097
vt 0.2564 0.8179
vt 0.015 0.8179
vt 0.015 0.8097
vt 0.2564 0.8097
vt 0.2593 0.8179
vt 0.2593 0.8097
vt 0.5007 0.8179
vt 0.5007 0.8097
vt 0.2557 0.0062
vt 0.4974 0.0062
vt 0.011 0.0062
vt 0.2527 0.0062
vt 0.745 0.0062
vt 0.9917 0.0062
vt 0.5002 0.0062
vt 0.742 0.0062
vt 0.0079 0.0062
vt 0.9787 0.8276
vt 0.7407 0.8276
vt 0.9833 0.8276
vt 0.2457 0.8276
vt 0.0095 0.8276
vt 0.2521 0.8276
vt 0.49 0.8276
vt 0.4964 0.8276
vt 0.7344 0.8276
vn -0.1192 0.9081 0.4014
vn 0.1192 0.9081 0.4014
vn 0.4014 0.9081 0.1192
vn -0.4014 0.9081 -0.1191
vn 0.4014 0.9081 -0.1192
vn 0.1192 0.9081 -0.4015
vn -0.1192 0.9081 -0.4014
vn -0.4014 0.9081 0.1192
vn 0.2799 0.5652 0.7761
vn 0.2921 -0.5105 0.8088
vn -0.2921 -0.5105 0.8088
vn -0.2798 0.5651 0.7761
vn 0.7761 0.5652 -0.2799
vn 0.8088 -0.5105 -0.2921
vn 0.8088 -0.5105 0.2921
vn 0.7761 0.5652 0.2798
vn -0.2798 0.5651 -0.7761
vn -0.2921 -0.5105 -0.8087
vn 0.2921 -0.5105 -0.8088
vn 0.2799 0.5652 -0.7761
vn -0.776 0.5652 0.2799
vn -0.8088 -0.5105 0.2921
vn -0.8088 -0.5105 -0.2921
vn -0.776 0.5652 -0.2799
vn 0.3576 -0.262 0.8963
vn -0.3576 -0.262 0.8963
vn -0.3129 0.3591 0.8793
vn 0.3129 0.3591 0.8793
vn 0.8963 -0.262 -0.3577
vn 0.8963 -0.262 0.3577
vn 0.8792 0.3591 0.313
vn 0.8793 0.3591 -0.3129
vn -0.3577 -0.262 -0.8963
vn 0.3576 -0.262 -0.8963
vn 0.3129 0.3591 -0.8793
vn -0.3129 0.3591 -0.8793
vn -0.8963 -0.262 0.3577
vn -0.8963 -0.262 -0.3577
vn -0.8793 0.3592 -0.3129
vn -0.8793 0.3591 0.3129
vn 0.3871 -0.2629 0.8838
vn 0.3026 -0.4599 0.8348
vn -0.3026 -0.4599 0.8348
vn -0.3872 -0.2629 0.8837
vn 0.8837 -0.2629 -0.3871
vn 0.8349 -0.4599 -0.3025
vn 0.8348 -0.4599 0.3026
vn 0.8837 -0.2629 0.3872
vn -0.3872 -0.2629 -0.8837
vn -0.3026 -0.4599 -0.8348
vn 0.3026 -0.4599 -0.8348
vn 0.3871 -0.2629 -0.8837
vn -0.8838 -0.2629 0.3871
vn -0.8348 -0.4599 0.3026
vn -0.8349 -0.4599 -0.3025
vn -0.8838 -0.2629 -0.387
vn 0.4329 -0.0633 0.8992
vn -0.4329 -0.0633 0.8992
vn 0.8993 -0.0633 -0.4328
vn 0.8992 -0.0633 0.4328
vn -0.4329 -0.0633 -0.8992
vn 0.4329 -0.0633 -0.8992
vn -0.8993 -0.0633 0.4328
vn -0.8993 -0.0633 -0.4328
vn 0.4354 0.0028 0.9002
vn -0.4354 0.0028 0.9002
vn 0.9002 0.0028 -0.4354
vn 0.9002 0.0028 0.4354
vn -0.4354 0.0029 -0.9002
vn 0.4354 0.0028 -0.9002
vn -0.9002 0.0029 0.4354
vn -0.9002 0.0028 -0.4354
vn -0.3244 -0.4518 0.831
vn 0.3245 -0.4518 0.831
vn 0.831 -0.4518 0.3244
vn 0.831 -0.4519 -0.3244
vn 0.3244 -0.4518 -0.831
vn -0.3244 -0.4518 -0.831
vn -0.831 -0.4519 -0.3245
vn -0.831 -0.4519 0.3245
vn -0.9468 0.1288 -0.2949
vn -0.2184 0.9701 -0.1058
vn -0.2184 0.9701 0.1058
vn -0.9468 0.1287 0.2949
vn -0.295 0.1287 -0.9468
vn -0.1058 0.9701 -0.2184
vn 0.2949 0.1287 -0.9468
vn 0.1058 0.9701 -0.2184
vn 0.9468 0.1288 -0.295
vn 0.2184 0.9701 -0.1058
vn 0.9468 0.1288 0.295
vn 0.2184 0.9701 0.1058
vn 0.2949 0.1288 0.9468
vn 0.1058 0.9701 0.2184
vn -0.295 0.1288 0.9468
vn -0.1058 0.9701 0.2184
vn -0.7173 0.6303 -0.2971
vn -0.7173 -0.6302 -0.2971
vn -0.7173 -0.6303 0.2971
vn -0.7173 0.6302 0.2971
vn -0.2971 0.6302 -0.7173
vn -0.2971 -0.6303 -0.7173
vn 0.2971 0.6303 -0.7173
vn 0.2971 -0.6302 -0.7173
vn 0.7173 0.6302 -0.2971
vn 0.7173 -0.6303 -0.2971
vn 0.7173 0.6303 0.2971
vn 0.7173 -0.6302 0.2971
vn 0.2971 0.6302 0.7173
vn 0.2971 -0.6302 0.7173
vn -0.2971 0.6303 0.7173
vn -0.2971 -0.6302 0.7173
vn -0.89 0.1597 0.4271
vn -0.89 0.1596 -0.427
vn -0.4273 0.1596 -0.8899
vn 0.4272 0.1597 -0.8899
vn 0.89 0.1597 -0.4271
vn 0.89 0.1597 0.4272
vn 0.4272 0.1597 0.8899
vn -0.4273 0.1596 0.8899
vn -0.9239 0.0 -0.3827
vn -0.9239 0.0 0.3827
vn -0.5491 -0.8042 0.2274
vn -0.5491 -0.8042 -0.2274
vn -0.3827 0.0 -0.9239
vn -0.2275 -0.8042 -0.5491
vn 0.3827 0.0 -0.9239
vn 0.2274 -0.8042 -0.5491
vn 0.9239 0.0 -0.3827
vn 0.5491 -0.8042 -0.2275
vn 0.9239 0.0 0.3827
vn 0.5491 -0.8042 0.2275
vn 0.3827 0.0 0.9239
vn 0.2274 -0.8042 0.5492
vn -0.3827 0.0 0.9239
vn -0.2275 -0.8042 0.5491
vtan -0.9929 -0.1112 -0.0433
vtan -0.9929 0.109 0.0482
vtan -0.9159 0.398 0.0522
vtan -0.9159 -0.398 0.0522
vtan -0.9157 0.4005 -0.0327
vtan -0.9929 0.1112 -0.0433
vtan -0.9929 -0.1091 0.0482
vtan -0.9157 -0.4005 -0.0325
vtan 0.9411 -0.0017 -0.3382
vtan 0.9405 -0.0003 -0.3399
vtan 0.9404 0.0007 0.3401
vtan 0.9411 0.0017 0.3381
vtan -0.2262 -0.1648 -0.96
vtan -0.247 0.1559 -0.9564
vtan 0.3388 -0.0016 -0.9409
vtan 0.3381 0.0017 -0.9411
vtan -0.9411 -0.0017 0.338
vtan -0.9405 -0.0003 0.3399
vtan -0.9407 -0.0007 -0.3393
vtan -0.9411 0.0017 -0.3382
vtan 0.3382 -0.0017 0.9411
vtan 0.3399 -0.0003 0.9405
vtan -0.3397 -0.0 0.9405
vtan -0.3382 0.0017 0.9411
vtan 0.9338 0.0936 -0.3452
vtan 0.9339 -0.1003 0.3433
vtan 0.9498 0.1183 0.2897
vtan 0.9482 -0.1717 -0.2673
vtan -0.3433 0.1004 -0.9338
vtan 0.3433 -0.1004 -0.9339
vtan 0.2897 0.1183 -0.9498
vtan -0.2897 -0.1183 -0.9498
vtan -0.9339 0.1004 0.3433
vtan -0.9339 -0.1043 -0.3421
vtan -0.9496 0.1354 -0.2826
vtan -0.9498 -0.1183 0.2897
vtan 0.3453 0.0936 0.9338
vtan -0.342 -0.1046 0.9338
vtan -0.2822 0.1363 0.9496
vtan 0.2673 -0.1717 0.9482
vtan 0.9219 0.1272 -0.3659
vtan 0.9529 0.1658 -0.2541
vtan 0.9531 -0.146 0.265
vtan 0.922 -0.1104 0.3711
vtan -0.3711 0.1104 -0.922
vtan -0.265 0.146 -0.9531
vtan 0.265 -0.146 -0.9531
vtan 0.3711 -0.1104 -0.922
vtan -0.922 0.1104 0.3711
vtan -0.9531 0.146 0.2651
vtan -0.9529 -0.1266 -0.2757
vtan -0.9218 -0.1311 -0.3648
vtan 0.366 0.127 0.9219
vtan 0.254 0.1658 0.9529
vtan -0.2699 -0.137 0.9531
vtan -0.3643 -0.1325 0.9218
vtan 0.9003 -0.0195 -0.4348
vtan 0.9009 0.0035 0.4339
vtan -0.4318 0.0304 -0.9015
vtan 0.4327 -0.0172 -0.9014
vtan -0.9009 -0.0032 0.4339
vtan -0.9012 -0.0073 -0.4333
vtan 0.4339 -0.0032 0.901
vtan -0.4338 0.0028 0.901
vtan 0.9015 -0.0304 0.4318
vtan 0.8519 -0.2976 -0.431
vtan 0.4318 -0.0304 -0.9015
vtan -0.4318 0.0304 -0.9015
vtan -0.8516 0.2985 -0.4309
vtan -0.9015 0.0304 0.4318
vtan -0.4313 0.2938 0.853
vtan 0.431 -0.2976 0.8519
vtan 0.9 0.0221 -0.4353
vtan 0.9002 0.0014 0.4354
vtan -0.4354 -0.0014 -0.9002
vtan 0.4354 0.0014 -0.9002
vtan -0.9002 -0.0014 0.4354
vtan -0.8997 0.0366 -0.435
vtan 0.4353 0.0221 0.9
vtan -0.435 0.0375 0.8997
vtan 0.9915 -0.0876 -0.0963
vtan 0.9929 0.109 0.0482
vtan -0.0482 -0.109 -0.9929
vtan 0.0482 0.109 -0.9929
vtan -0.9908 0.1349 0.0111
vtan 0.0962 -0.0876 0.9915
vtan 0.0191 0.1384 0.9902
vtan 0.9459 -0.155 0.285
vtan 0.9455 0.1805 -0.271
vtan 0.285 -0.155 -0.9459
vtan -0.285 0.155 -0.9459
vtan -0.9459 -0.1645 -0.2798
vtan -0.9459 0.1549 0.285
vtan -0.2728 -0.1773 0.9456
vtan 0.2786 0.1669 0.9458
vtan 0.6806 0.4986 0.5368
vtan 0.8204 0.3392 0.4604
vtan -0.4422 -0.2003 -0.8743
vtan -0.4643 0.2117 -0.86
vtan 0.4665 -0.5163 -0.7182
vtan 0.431 0.3261 -0.8413
vtan -0.4268 -0.2915 -0.8561
vtan -0.4697 0.5441 -0.6952
vtan -0.8561 -0.2915 0.4268
vtan -0.6952 0.5442 0.4697
vtan 0.6807 0.5088 0.527
vtan 0.4603 0.3386 -0.8207
vtan 0.527 0.5087 -0.6808
vtan -0.5229 -0.4906 -0.6971
vtan -0.4603 -0.3397 -0.8202
vtan -0.6776 -0.5122 0.5278
vtan -0.8193 -0.3415 0.4606
vtan 0.3037 -0.6218 -0.7219
vtan 0.7218 -0.6219 0.3037
vtan 0.7182 -0.5163 0.4665
vtan -0.199 0.822 -0.5336
vtan -0.5545 0.8052 0.2103
vtan -0.4354 -0.035 -0.8995
vtan 0.8978 -0.0727 0.4344
vtan 0.4345 -0.0727 -0.8978
vtan -0.435 -0.0352 -0.8997
vtan -0.8996 -0.0385 0.435
vtan 0.165 -0.3806 0.9099
vtan 0.9099 -0.3805 -0.1651
vtan -0.908 0.3775 -0.1818
vtan -0.1665 0.3803 0.9098
vtan 0.8418 0.3252 0.4309
vtan 0.5412 0.5218 -0.6595
vtan -0.5361 -0.4947 -0.684
vtan -0.6641 -0.5169 0.5402
vtan -0.2972 0.0014 0.9548
vtan -0.4242 0.0033 0.9056
vtan 0.5028 0.0189 0.8642
vtan 0.3064 0.0801 0.9485
vtan -0.9546 0.0021 0.2978
vtan -0.9052 -0.0031 0.425
vtan -0.9549 0.0044 -0.2968
vtan -0.9056 0.0033 -0.4242
vtan -0.2971 -0.0031 -0.9548
vtan -0.4241 -0.0033 -0.9056
vtan 0.2972 0.002 -0.9548
vtan 0.4242 0.0033 -0.9056
vtan 0.9549 -0.0027 -0.2971
vtan 0.9051 -0.003 -0.4251
vtan 0.9555 0.0412 0.2921
vtan 0.9944 0.1035 0.0222
vtan 0.8728 -0.0146 0.4879
vtan 0.9479 0.1639 0.2731
vtan -0.3827 0.0 0.9239
vtan -0.3827 -0.0 0.9239
vtan 0.3827 -0.0 0.9239
vtan 0.3827 -0.0 0.9239
vtan -0.9239 -0.0 0.3827
vtan -0.9239 0.0 0.3827
vtan -0.9239 -0.0 -0.3827
vtan -0.9239 -0.0 -0.3827
vtan -0.3827 -0.0 -0.9239
vtan -0.3827 -0.0 -0.9239
vtan 0.3827 -0.0 -0.9239
vtan 0.3827 -0.0 -0.9239
vtan 0.9237 0.0004 -0.383
vtan 0.9239 -0.0 -0.3827
vtan 0.9548 0.1961 0.2232
vtan 0.9548 -0.1961 0.2232
vtan 0.833 0.1961 0.5174
vtan 0.8507 -0.1665 0.4987
vtan 0.4382 0.0405 0.898
vtan -0.4332 -0.0039 0.9013
vtan -0.9011 0.0051 0.4336
vtan -0.9015 -0.0002 -0.4328
vtan -0.433 0.0022 -0.9014
vtan 0.4332 -0.0031 -0.9013
vtan 0.9013 0.0024 -0.4331
vtan 0.9041 0.075 0.4207
vtan 0.9041 0.0681 0.4219
vtan 0.3827 0.0 -0.9239
vtan -0.3827 0.0 -0.9239
vtan -0.3827 0.0 -0.9239
vtan 0.3827 -0.0 -0.9239
vtan 0.9239 0.0 -0.3827
vtan 0.9239 0.0 -0.3827
vtan 0.9239 0.0 0.3827
vtan 0.9239 -0.0 0.3827
vtan 0.3827 0.0 0.9239
vtan 0.5979 0.1878 0.7792
vtan -0.3827 -0.0 0.9239
vtan 0.3827 -0.0 0.9239
vtan 0.1283 -0.1879 0.9738
vtan -0.3827 -0.0 0.9239
vtan -0.9239 0.0 0.3827
vtan -0.9239 0.0 0.3827
vtan -0.9239 0.0 -0.3827
vtan -0.9239 -0.0 -0.3827
vtan -0.4341 -0.0104 0.9008
vtan 0.4341 0.0104 0.9008
vtan -0.9007 -0.0104 -0.4343
vtan -0.9007 0.0104 0.4344
vtan 0.4342 -0.0104 -0.9007
vtan -0.4204 -0.0754 -0.9042
vtan 0.9007 -0.0104 0.4344
vtan 0.9007 0.0104 -0.4342
vtan -0.4401 0.0553 -0.8963
vtan 0.3827 0.0 0.9239
vtan -0.3827 0.0 0.9239
vtan 0.7793 0.1878 0.5979
vtan 0.9239 -0.0 -0.3826
vtan 0.9738 -0.1878 0.1283
vtan 0.3827 -0.0 -0.9239
vtan -0.3827 0.0 -0.9239
vtan -0.9239 0.0 -0.3827
vtan -0.9239 -0.0 0.3827
f 0/0/0/0 1/1/1/1 2/2/2/2 
f 0/0/0/0 2/2/2/2 3/3/3/3 
f 2/2/2/2 4/4/4/4 5/5/5/5 
f 2/2/2/2 5/5/5/5 3/3/3/3 
f 5/5/5/5 6/6/6/6 3/3/3/3 
f 7/7/7/7 0/0/0/0 3/3/3/3 
f 8/8/8/8 9/9/9/9 10/10/10/10 
f 8/8/8/8 10/10/10/10 11/11/11/11 
f 12/12/12/12 13/13/13/13 14/14/14/14 
f 12/12/12/12 14/14/14/14 15/15/15/15 
f 16/16/16/16 17/17/17/17 18/18/18/18 
f 16/16/16/16 18/18/18/18 19/19/19/19 
f 20/20/20/20 21/21/21/21 22/22/22/22 
f 20/20/20/20 22/22/22/22 23/23/23/23 
f 24/24/24/24 25/25/25/25 26/26/26/26 
f 24/24/24/24 26/26/26/26 27/27/27/27 
f 28/28/28/28 29/29/29/29 30/30/30/30 
f 28/28/28/28 30/30/30/30 31/31/31/31 
f 32/32/32/32 33/33/33/33 34/34/34/34 
f 32/32/32/32 34/34/34/34 35/35/35/35 
f 36/36/36/36 37/37/37/37 38/38/38/38 
f 36/36/36/36 38/38/38/38 39/39/39/39 
f 40/40/40/40 41/41/41/41 42/42/42/42 
f 40/40/40/40 42/42/42/42 43/43/43/43 
f 44/44/44/44 45/45/45/45 46/46/46/46 
f 44/44/44/44 46/46/46/46 47/47/47/47 
f 48/48/48/48 49/49/49/49 50/50/50/50 
f 48/48/48/48 50/50/50/50 51/51/51/51 
f 52/52/52/52 53/53/53/53 54/54/54/54 
f 52/52/52/52 54/54/54/54 55/55/55/55 
f 56/56/56/56 57/57/57/57 10/10/10/10 
f 56/56/56/56 10/10/10/10 9/9/9/9 
f 58/58/58/58 59/59/59/59 14/14/14/14 
f 58/58/58/58 14/14/14/14 13/13/13/13 
f 60/60/60/60 61/61/61/61 18/18/18/18 
f 60/60/60/60 18/18/18/18 17/17/17/17 
f 62/62/62/62 63/63/63/63 22/22/22/22 
f 62/62/62/62 22/22/22/22 21/21/21/21 
f 27/27/27/27 26/26/26/26 57/64/57/64 
f 27/27/27/27 57/64/57/64 56/65/56/65 
f 31/31/31/31 30/30/30/30 59/66/59/66 
f 31/31/31/31 59/66/59/66 58/67/58/67 
f 35/35/35/35 34/34/34/34 61/68/61/68 
f 35/35/35/35 61/68/61/68 60/69/60/69 
f 39/39/39/39 38/38/38/38 63/70/63/70 
f 39/39/39/39 63/70/63/70 62/71/62/71 
f 64/72/64/72 65/73/65/73 42/42/42/42 
f 64/72/64/72 42/42/42/42 41/41/41/41 
f 66/74/66/74 67/75/67/75 46/46/46/46 
f 66/74/66/74 46/46/46/46 45/45/45/45 
f 68/76/68/76 69/77/69/77 50/50/50/50 
f 68/76/68/76 50/50/50/50 49/49/49/49 
f 70/78/70/78 71/79/71/79 54/54/54/54 
f 70/78/70/78 54/54/54/54 53/53/53/53 
f 1/80/1/80 0/81/0/81 65/73/65/73 
f 1/80/1/80 65/73/65/73 64/72/64/72 
f 4/82/4/82 2/83/2/83 67/75/67/75 
f 4/82/4/82 67/75/67/75 66/74/66/74 
f 6/84/6/6 5/85/5/84 69/77/69/77 
f 6/84/6/6 69/77/69/77 68/76/68/76 
f 7/86/7/85 3/87/3/86 71/79/71/79 
f 7/86/7/85 71/79/71/79 70/78/70/78 
f 40/40/40/40 43/43/43/43 72/88/72/87 
f 40/40/40/40 72/88/72/87 73/89/73/88 
f 44/44/44/44 47/47/47/47 74/90/74/89 
f 44/44/44/44 74/90/74/89 75/91/75/90 
f 48/48/48/48 51/51/51/51 76/92/76/91 
f 48/48/48/48 76/92/76/91 77/93/77/92 
f 52/52/52/52 55/55/55/55 78/94/78/93 
f 52/52/52/52 78/94/78/93 79/95/79/94 
f 73/89/73/88 72/88/72/87 25/25/25/25 
f 73/89/73/88 25/25/25/25 24/24/24/24 
f 75/91/75/90 74/90/74/89 29/29/29/29 
f 75/91/75/90 29/29/29/29 28/28/28/28 
f 77/93/77/92 76/92/76/91 33/33/33/33 
f 77/93/77/92 33/33/33/33 32/32/32/32 
f 79/95/79/94 78/94/78/93 37/37/37/37 
f 79/95/79/94 37/37/37/37 36/36/36/36 
f 15/15/15/15 14/14/14/14 9/9/9/9 
f 15/15/15/15 9/9/9/9 8/8/8/8 
f 52/52/52/52 79/95/79/94 72/96/72/95 
f 52/52/52/52 72/96/72/95 43/97/43/96 
f 19/19/19/19 18/18/18/18 13/98/13/97 
f 19/19/19/19 13/98/13/97 12/99/12/98 
f 23/23/23/23 22/22/22/22 17/17/17/17 
f 23/23/23/23 17/17/17/17 16/16/16/16 
f 30/100/30/99 29/101/29/100 24/24/24/24 
f 30/100/30/99 24/24/24/24 27/27/27/27 
f 21/21/21/21 20/20/20/20 11/11/11/11 
f 21/21/21/21 11/11/11/11 10/10/10/10 
f 34/34/34/34 33/33/33/33 28/102/28/101 
f 34/34/34/34 28/102/28/101 31/103/31/102 
f 38/38/38/38 37/37/37/37 32/104/32/103 
f 38/38/38/38 32/104/32/103 35/105/35/104 
f 43/97/43/96 42/106/42/105 53/53/53/53 
f 43/97/43/96 53/53/53/53 52/52/52/52 
f 47/107/47/106 46/108/46/107 41/41/41/41 
f 47/107/47/106 41/41/41/41 40/40/40/40 
f 51/51/51/51 50/50/50/50 45/109/45/108 
f 51/51/51/51 45/109/45/108 44/110/44/109 
f 55/55/55/55 54/54/54/54 49/111/49/110 
f 55/55/55/55 49/111/49/110 48/112/48/111 
f 27/27/27/27 56/65/56/65 59/113/59/112 
f 27/27/27/27 59/113/59/112 30/100/30/99 
f 39/39/39/39 62/71/62/71 57/114/57/113 
f 39/39/39/39 57/114/57/113 26/115/26/114 
f 31/103/31/102 58/116/58/115 61/68/61/68 
f 31/103/31/102 61/68/61/68 34/34/34/34 
f 35/105/35/104 60/117/60/116 63/70/63/70 
f 35/105/35/104 63/70/63/70 38/38/38/38 
f 56/56/56/56 9/9/9/9 14/14/14/14 
f 56/56/56/56 14/14/14/14 59/59/59/59 
f 62/62/62/62 21/21/21/21 10/10/10/10 
f 62/62/62/62 10/10/10/10 57/57/57/57 
f 58/118/58/117 13/98/13/97 18/18/18/18 
f 58/118/58/117 18/18/18/18 61/61/61/61 
f 60/60/60/60 17/17/17/17 22/22/22/22 
f 60/60/60/60 22/22/22/22 63/63/63/63 
f 42/106/42/105 65/119/65/118 70/78/70/78 
f 42/106/42/105 70/78/70/78 53/53/53/53 
f 46/108/46/107 67/120/67/119 64/72/64/72 
f 46/108/46/107 64/72/64/72 41/41/41/41 
f 50/50/50/50 69/77/69/77 66/121/66/120 
f 50/50/50/50 66/121/66/120 45/109/45/108 
f 54/54/54/54 71/79/71/79 68/122/68/121 
f 54/54/54/54 68/122/68/121 49/111/49/110 
f 65/119/65/118 0/123/0/122 7/86/7/85 
f 65/119/65/118 7/86/7/85 70/78/70/78 
f 67/120/67/119 2/124/2/123 1/80/1/80 
f 67/120/67/119 1/80/1/80 64/72/64/72 
f 69/77/69/77 5/85/5/84 4/125/4/124 
f 69/77/69/77 4/125/4/124 66/121/66/120 
f 71/79/71/79 3/87/3/86 6/126/6/125 
f 71/79/71/79 6/126/6/125 68/122/68/121 
f 36/36/36/36 39/39/39/39 26/115/26/114 
f 36/36/36/36 26/115/26/114 25/127/25/126 
f 74/128/74/127 47/107/47/106 40/40/40/40 
f 74/128/74/127 40/40/40/40 73/89/73/88 
f 76/92/76/91 51/51/51/51 44/110/44/109 
f 76/92/76/91 44/110/44/109 75/129/75/128 
f 78/94/78/93 55/55/55/55 48/112/48/111 
f 78/94/78/93 48/112/48/111 77/130/77/129 
f 25/127/25/126 72/96/72/95 79/95/79/94 
f 25/127/25/126 79/95/79/94 36/36/36/36 
f 29/101/29/100 74/128/74/127 73/89/73/88 
f 29/101/29/100 73/89/73/88 24/24/24/24 
f 33/33/33/33 76/92/76/91 75/129/75/128 
f 33/33/33/33 75/129/75/128 28/102/28/101 
f 37/37/37/37 78/94/78/93 77/130/77/129 
f 37/37/37/37 77/130/77/129 32/104/32/103 
f 80/131/80/130 81/132/81/131 82/133/82/132 
f 80/131/80/130 82/133/82/132 83/134/83/133 
f 84/135/84/134 85/136/85/135 81/132/81/131 
f 84/135/84/134 81/132/81/131 80/131/80/130 
f 86/137/86/136 87/138/87/137 85/136/85/135 
f 86/137/86/136 85/136/85/135 84/135/84/134 
f 88/139/88/138 89/140/89/139 87/138/87/137 
f 88/139/88/138 87/138/87/137 86/137/86/136 
f 90/141/90/140 91/142/91/141 89/140/89/139 
f 90/141/90/140 89/140/89/139 88/139/88/138 
f 92/143/92/142 93/144/93/143 91/142/91/141 
f 92/143/92/142 91/142/91/141 90/141/90/140 
f 94/145/94/144 95/146/95/145 93/144/93/143 
f 94/145/94/144 93/144/93/143 92/143/92/142 
f 83/134/83/133 82/133/82/132 95/147/95/146 
f 83/134/83/133 95/147/95/146 94/148/94/147 
f 96/149/96/148 97/150/97/149 98/151/98/150 
f 96/149/96/148 98/151/98/150 99/152/99/151 
f 100/153/100/152 101/154/101/153 97/150/97/149 
f 100/153/100/152 97/150/97/149 96/149/96/148 
f 102/155/102/154 103/156/103/155 101/154/101/153 
f 102/155/102/154 101/154/101/153 100/153/100/152 
f 104/157/104/156 105/158/105/157 103/156/103/155 
f 104/157/104/156 103/156/103/155 102/155/102/154 
f 106/159/106/158 107/160/107/159 105/158/105/157 
f 106/159/106/158 105/158/105/157 104/157/104/156 
f 108/161/108/160 109/162/109/161 107/160/107/159 
f 108/161/108/160 107/160/107/159 106/159/106/158 
f 110/163/110/162 111/164/111/163 109/162/109/161 
f 110/163/110/162 109/162/109/161 108/161/108/160 
f 99/152/99/151 98/151/98/150 111/165/111/164 
f 99/152/99/151 111/165/111/164 110/166/110/165 
f 112/167/112/166 113/168/113/167 80/131/80/130 
f 112/167/112/166 80/131/80/130 83/134/83/133 
f 114/169/114/168 115/170/115/169 86/137/86/136 
f 114/169/114/168 86/137/86/136 84/135/84/134 
f 116/171/116/170 117/172/117/171 90/141/90/140 
f 116/171/116/170 90/141/90/140 88/139/88/138 
f 118/173/118/172 119/174/119/173 94/145/94/144 
f 118/173/118/172 94/145/94/144 92/143/92/142 
f 119/175/119/174 112/167/112/166 83/134/83/133 
f 119/175/119/174 83/134/83/133 94/148/94/147 
f 117/172/117/171 118/173/118/172 92/143/92/142 
f 117/172/117/171 92/143/92/142 90/141/90/140 
f 113/168/113/167 114/169/114/168 84/135/84/134 
f 113/168/113/167 84/135/84/134 80/131/80/130 
f 115/170/115/169 116/171/116/170 88/139/88/138 
f 115/170/115/169 88/139/88/138 86/137/86/136 
f 120/176/120/175 121/177/121/176 122/178/122/177 
f 120/176/120/175 122/178/122/177 123/179/123/178 
f 124/180/124/179 120/176/120/175 123/179/123/178 
f 124/180/124/179 123/179/123/178 125/181/125/180 
f 126/182/126/181 124/180/124/179 125/181/125/180 
f 126/182/126/181 125/181/125/180 127/183/127/182 
f 128/184/128/183 126/182/126/181 127/183/127/182 
f 128/184/128/183 127/183/127/182 129/185/129/184 
f 130/186/130/185 128/187/128/186 129/188/129/187 
f 130/186/130/185 129/188/129/187 131/189/131/188 
f 132/190/132/189 130/186/130/185 131/189/131/188 
f 132/190/132/189 131/189/131/188 133/191/133/190 
f 134/192/134/191 132/190/132/189 133/191/133/190 
f 134/192/134/191 133/191/133/190 135/193/135/192 
f 121/177/121/176 134/192/134/191 135/193/135/192 
f 121/177/121/176 135/193/135/192 122/178/122/177 
f 20/20/20/20 23/23/23/23 113/194/113/193 
f 20/20/20/20 113/194/113/193 112/195/112/194 
f 16/16/16/16 19/19/19/19 115/196/115/195 
f 16/16/16/16 115/196/115/195 114/197/114/196 
f 12/12/12/12 15/15/15/15 117/198/117/197 
f 12/12/12/12 117/198/117/197 116/199/116/198 
f 8/8/8/8 11/11/11/11 119/200/119/199 
f 8/8/8/8 119/200/119/199 118/201/118/200 
f 11/11/11/11 20/20/20/20 112/195/112/194 
f 11/11/11/11 112/195/112/194 119/200/119/199 
f 15/15/15/15 8/8/8/8 118/201/118/200 
f 15/15/15/15 118/201/118/200 117/198/117/197 
f 23/23/23/23 16/16/16/16 114/197/114/196 
f 23/23/23/23 114/197/114/196 113/194/113/193 
f 19/19/19/19 12/99/12/98 116/202/116/201 
f 19/19/19/19 116/202/116/201 115/196/115/195 
f 81/132/81/131 96/149/96/148 99/152/99/151 
f 81/132/81/131 99/152/99/151 82/133/82/132 
f 85/136/85/135 100/153/100/152 96/149/96/148 
f 85/136/85/135 96/149/96/148 81/132/81/131 
f 87/138/87/137 102/155/102/154 100/153/100/152 
f 87/138/87/137 100/153/100/152 85/136/85/135 
f 89/140/89/139 104/157/104/156 102/155/102/154 
f 89/140/89/139 102/155/102/154 87/138/87/137 
f 91/142/91/141 106/159/106/158 104/157/104/156 
f 91/142/91/141 104/157/104/156 89/140/89/139 
f 93/144/93/143 108/161/108/160 106/159/106/158 
f 93/144/93/143 106/159/106/158 91/142/91/141 
f 95/146/95/145 110/163/110/162 108/161/108/160 
f 95/146/95/145 108/161/108/160 93/144/93/143 
f 82/133/82/132 99/152/99/151 110/166/110/165 
f 82/133/82/132 110/166/110/165 95/147/95/146 
f 122/203/122/202 98/151/98/150 97/150/97/149 
f 122/203/122/202 97/150/97/149 123/204/123/203 
f 135/205/135/204 111/165/111/164 98/151/98/150 
f 135/205/135/204 98/151/98/150 122/203/122/202 
f 133/206/133/205 109/162/109/161 111/164/111/163 
f 133/206/133/205 111/164/111/163 135/207/135/206 
f 131/208/131/207 107/160/107/159 109/162/109/161 
f 131/208/131/207 109/162/109/161 133/206/133/205 
f 129/209/129/208 105/158/105/157 107/160/107/159 
f 129/209/129/208 107/160/107/159 131/208/131/207 
f 127/210/127/209 103/156/103/155 105/158/105/157 
f 127/210/127/209 105/158/105/157 129/209/129/208 
f 125/211/125/210 101/154/101/153 103/156/103/155 
f 125/211/125/210 103/156/103/155 127/210/127/209 
f 123/204/123/203 97/150/97/149 101/154/101/153 
f 123/204/123/203 101/154/101/153 125/211/125/210 
