v 657.3668 517.4015 185.1207
v 657.1114 516.4329 184.8652
v 657.1114 516.4329 224.6946
v 657.3668 517.4014 224.4391
v 657.5059 516.4329 225.0892
v 657.7614 517.4014 224.8337
v 653.6127 511.8852 228.194
v 651.9354 510.635 229.8717
v 652.3299 510.635 230.2662
v 654.0072 511.8852 228.5886
v 656.6592 514.8397 225.936
v 657.1994 515.7083 225.3957
v 656.8049 515.7083 225.0012
v 656.2646 514.8397 225.5415
v 655.399 513.6798 226.4074
v 654.6126 512.8038 227.1939
v 655.0071 512.8038 227.5884
v 655.7935 513.6798 226.8019
v 655.399 513.6799 183.1524
v 654.6126 512.8039 182.3659
v 656.8049 515.7084 184.5586
v 657.5059 516.4329 184.4706
v 657.7614 517.4015 184.7261
v 652.3299 510.635 179.2936
v 651.9354 510.635 179.6881
v 653.6127 511.8852 181.3658
v 654.0072 511.8852 180.9712
v 657.1994 515.7084 184.1641
v 656.6592 514.8397 183.6238
v 656.2646 514.8397 184.0183
v 655.0071 512.8039 181.9714
v 655.7935 513.6799 182.7579
v 702.503 510.635 179.2936
v 700.8256 511.8852 180.9712
v 698.1736 514.8397 183.6238
v 697.6335 515.7084 184.1641
v 699.0393 513.6799 182.7579
v 699.8257 512.8039 181.9714
v 697.327 516.4329 184.4706
v 697.4661 517.4015 185.1207
v 697.7215 516.4329 184.8652
v 697.0715 517.4015 184.7261
v 701.2202 511.8852 181.3658
v 702.8975 510.635 179.6881
v 698.028 515.7084 184.5586
v 698.5682 514.8397 184.0183
v 699.4339 513.6799 183.1524
v 700.2203 512.8039 182.3659
v 651.9354 509.8055 229.8717
v 652.3299 509.8055 230.2662
v 651.9354 509.8055 179.6881
v 702.503 509.8055 179.2936
v 652.3299 509.8055 179.2936
v 702.8975 509.8055 179.6881
v 649.9464 509.8055 231.8302
v 650.3718 509.8055 232.2556
v 649.9464 509.8055 177.7296
v 704.4611 509.8055 177.3042
v 650.3718 509.8055 177.3042
v 704.8864 509.8055 177.7296
v 649.9464 506.6332 231.8302
v 650.3718 506.6332 232.2556
v 649.9464 506.6332 177.7296
v 704.4611 506.6332 177.3042
v 650.3718 506.6332 177.3042
v 704.8864 506.6332 177.7296
v 697.4661 517.4014 224.4391
v 697.7215 516.4329 224.6946
v 699.4339 513.6798 226.4074
v 700.2203 512.8038 227.1939
v 698.028 515.7083 225.0012
v 697.327 516.4329 225.0892
v 697.0715 517.4014 224.8337
v 702.503 510.635 230.2662
v 702.8975 510.635 229.8717
v 701.2202 511.8852 228.194
v 700.8257 511.8852 228.5886
v 697.6335 515.7083 225.3957
v 698.1736 514.8397 225.936
v 698.5682 514.8397 225.5415
v 699.8257 512.8038 227.5884
v 699.0394 513.6798 226.8019
v 702.8975 509.8055 229.8717
v 702.503 509.8055 230.2662
v 704.8865 509.8055 231.8302
v 704.4611 509.8055 232.2556
v 704.8865 506.6332 231.8302
v 704.4611 506.6332 232.2556
gi 0 0 0 0
gi 0 0 0 0
gi 0 0 0 0
gi 0 0 0 0
gi 0 0 0 0
gi 0 0 0 0
gi 0 0 0 0
gi 0 0 0 0
gi 0 0 0 0
gi 0 0 0 0
gi 0 0 0 0
gi 0 0 0 0
gi 0 0 0 0
gi 0 0 0 0
gi 0 0 0 0
gi 0 0 0 0
gi 0 0 0 0
gi 0 0 0 0
gi 0 0 0 0
gi 0 0 0 0
gi 0 0 0 0
gi 0 0 0 0
gi 0 0 0 0
gi 0 0 0 0
gi 0 0 0 0
gi 0 0 0 0
gi 0 0 0 0
gi 0 0 0 0
gi 0 0 0 0
gi 0 0 0 0
gi 0 0 0 0
gi 0 0 0 0
gi 0 0 0 0
gi 0 0 0 0
gi 0 0 0 0
gi 0 0 0 0
gi 0 0 0 0
gi 0 0 0 0
gi 0 0 0 0
gi 0 0 0 0
gi 0 0 0 0
gi 0 0 0 0
gi 0 0 0 0
gi 0 0 0 0
gi 0 0 0 0
gi 0 0 0 0
gi 0 0 0 0
gi 0 0 0 0
gi 0 0 0 0
gi 0 0 0 0
gi 0 0 0 0
gi 0 0 0 0
gi 0 0 0 0
gi 0 0 0 0
gi 0 0 0 0
gi 0 0 0 0
gi 0 0 0 0
gi 0 0 0 0
gi 0 0 0 0
gi 0 0 0 0
gi 0 0 0 0
gi 0 0 0 0
gi 0 0 0 0
gi 0 0 0 0
gi 0 0 0 0
gi 0 0 0 0
gi 0 0 0 0
gi 0 0 0 0
gi 0 0 0 0
gi 0 0 0 0
gi 0 0 0 0
gi 0 0 0 0
gi 0 0 0 0
gi 0 0 0 0
gi 0 0 0 0
gi 0 0 0 0
gi 0 0 0 0
gi 0 0 0 0
gi 0 0 0 0
gi 0 0 0 0
gi 0 0 0 0
gi 0 0 0 0
gi 0 0 0 0
gi 0 0 0 0
gi 0 0 0 0
gi 0 0 0 0
gi 0 0 0 0
gi 0 0 0 0
gw 0.0 0.0 0.0 0.0
gw 0.0 0.0 0.0 0.0
gw 0.0 0.0 0.0 0.0
gw 0.0 0.0 0.0 0.0
gw 0.0 0.0 0.0 0.0
gw 0.0 0.0 0.0 0.0
gw 0.0 0.0 0.0 0.0
gw 0.0 0.0 0.0 0.0
gw 0.0 0.0 0.0 0.0
gw 0.0 0.0 0.0 0.0
gw 0.0 0.0 0.0 0.0
gw 0.0 0.0 0.0 0.0
gw 0.0 0.0 0.0 0.0
gw 0.0 0.0 0.0 0.0
gw 0.0 0.0 0.0 0.0
gw 0.0 0.0 0.0 0.0
gw 0.0 0.0 0.0 0.0
gw 0.0 0.0 0.0 0.0
gw 0.0 0.0 0.0 0.0
gw 0.0 0.0 0.0 0.0
gw 0.0 0.0 0.0 0.0
gw 0.0 0.0 0.0 0.0
gw 0.0 0.0 0.0 0.0
gw 0.0 0.0 0.0 0.0
gw 0.0 0.0 0.0 0.0
gw 0.0 0.0 0.0 0.0
gw 0.0 0.0 0.0 0.0
gw 0.0 0.0 0.0 0.0
gw 0.0 0.0 0.0 0.0
gw 0.0 0.0 0.0 0.0
gw 0.0 0.0 0.0 0.0
gw 0.0 0.0 0.0 0.0
gw 0.0 0.0 0.0 0.0
gw 0.0 0.0 0.0 0.0
gw 0.0 0.0 0.0 0.0
gw 0.0 0.0 0.0 0.0
gw 0.0 0.0 0.0 0.0
gw 0.0 0.0 0.0 0.0
gw 0.0 0.0 0.0 0.0
gw 0.0 0.0 0.0 0.0
gw 0.0 0.0 0.0 0.0
gw 0.0 0.0 0.0 0.0
gw 0.0 0.0 0.0 0.0
gw 0.0 0.0 0.0 0.0
gw 0.0 0.0 0.0 0.0
gw 0.0 0.0 0.0 0.0
gw 0.0 0.0 0.0 0.0
gw 0.0 0.0 0.0 0.0
gw 0.0 0.0 0.0 0.0
gw 0.0 0.0 0.0 0.0
gw 0.0 0.0 0.0 0.0
gw 0.0 0.0 0.0 0.0
gw 0.0 0.0 0.0 0.0
gw 0.0 0.0 0.0 0.0
gw 0.0 0.0 0.0 0.0
gw 0.0 0.0 0.0 0.0
gw 0.0 0.0 0.0 0.0
gw 0.0 0.0 0.0 0.0
gw 0.0 0.0 0.0 0.0
gw 0.0 0.0 0.0 0.0
gw 0.0 0.0 0.0 0.0
gw 0.0 0.0 0.0 0.0
gw 0.0 0.0 0.0 0.0
gw 0.0 0.0 0.0 0.0
gw 0.0 0.0 0.0 0.0
gw 0.0 0.0 0.0 0.0
gw 0.0 0.0 0.0 0.0
gw 0.0 0.0 0.0 0.0
gw 0.0 0.0 0.0 0.0
gw 0.0 0.0 0.0 0.0
gw 0.0 0.0 0.0 0.0
gw 0.0 0.0 0.0 0.0
gw 0.0 0.0 0.0 0.0
gw 0.0 0.0 0.0 0.0
gw 0.0 0.0 0.0 0.0
gw 0.0 0.0 0.0 0.0
gw 0.0 0.0 0.0 0.0
gw 0.0 0.0 0.0 0.0
gw 0.0 0.0 0.0 0.0
gw 0.0 0.0 0.0 0.0
gw 0.0 0.0 0.0 0.0
gw 0.0 0.0 0.0 0.0
gw 0.0 0.0 0.0 0.0
gw 0.0 0.0 0.0 0.0
gw 0.0 0.0 0.0 0.0
gw 0.0 0.0 0.0 0.0
gw 0.0 0.0 0.0 0.0
gw 0.0 0.0 0.0 0.0
vt 0.2734 0.7237
vt 0.2788 0.7224
vt 0.2788 0.949
vt 0.2733 0.9476
vt 0.2778 0.9519
vt 0.2712 0.9499
vt 0.3052 0.9689
vt 0.3147 0.9785
vt 0.3144 0.9807
vt 0.3029 0.9712
vt 0.286 0.9566
vt 0.2816 0.9534
vt 0.2829 0.9508
vt 0.2879 0.9539
vt 0.2945 0.9588
vt 0.2995 0.9633
vt 0.2972 0.9656
vt 0.2922 0.9615
vt 0.2945 0.7126
vt 0.2995 0.7081
vt 0.2829 0.7206
vt 0.2711 0.7216
vt 0.2725 0.7161
vt 0.2755 0.7168
vt 0.302 0.6802
vt 0.3045 0.6818
vt 0.2947 0.692
vt 0.2924 0.6897
vt 0.2768 0.7135
vt 0.2743 0.7119
vt 0.2773 0.707
vt 0.2801 0.7089
vt 0.2867 0.6954
vt 0.2891 0.6976
vt 0.285 0.7026
vt 0.2823 0.7004
vt 0.0164 0.6802
vt 0.026 0.6897
vt 0.0411 0.707
vt 0.0441 0.7119
vt 0.0361 0.7004
vt 0.0317 0.6953
vt 0.0459 0.7161
vt 0.0451 0.7238
vt 0.044 0.7173
vt 0.0473 0.7216
vt 0.0237 0.692
vt 0.014 0.6812
vt 0.0416 0.7135
vt 0.0383 0.7089
vt 0.0334 0.7026
vt 0.0293 0.6976
vt 0.3052 0.7024
vt 0.3147 0.6929
vt 0.2879 0.7175
vt 0.3194 0.9785
vt 0.3184 0.9812
vt 0.3194 0.6929
vt 0.0164 0.6754
vt 0.302 0.6754
vt 0.3048 0.6767
vt 0.0138 0.6766
vt 0.3307 0.9896
vt 0.3283 0.9921
vt 0.3307 0.6817
vt 0.0053 0.6641
vt 0.3131 0.6641
vt 0.316 0.6653
vt 0.0029 0.6653
vt 0.3488 0.9896
vt 0.3488 0.9921
vt 0.3307 0.9921
vt 0.3488 0.6817
vt 0.0053 0.6461
vt 0.3131 0.6461
vt 0.3155 0.6461
vt 0.0029 0.6461
vt 0.0473 0.9498
vt 0.0451 0.9476
vn -0.622 0.7482 -0.2311
vn -0.8484 0.4106 -0.3342
vn -0.8483 0.4106 0.3342
vn -0.622 0.7482 0.2311
vn -0.3343 0.4106 0.8483
vn -0.2311 0.7482 0.622
vn -0.5035 0.8445 0.1824
vn -0.8141 0.4595 0.3551
vn -0.3551 0.4595 0.8141
vn -0.1825 0.8445 0.5035
vn -0.2649 0.6653 0.698
vn -0.2968 0.5643 0.7704
vn -0.7703 0.5643 0.2969
vn -0.698 0.6653 0.2649
vn -0.6399 0.7304 0.239
vn -0.575 0.7903 0.2114
vn -0.2114 0.7904 0.575
vn -0.239 0.7304 0.6399
vn -0.6399 0.7303 -0.239
vn -0.5751 0.7903 -0.2114
vn -0.7703 0.5643 -0.2969
vn -0.2311 0.7482 -0.622
vn -0.3343 0.4106 -0.8483
vn -0.3551 0.4594 -0.8141
vn -0.8142 0.4594 -0.355
vn -0.5035 0.8445 -0.1825
vn -0.1825 0.8445 -0.5035
vn -0.2968 0.5643 -0.7704
vn -0.2649 0.6653 -0.698
vn -0.698 0.6653 -0.2649
vn -0.2114 0.7904 -0.575
vn -0.239 0.7304 -0.6399
vn 0.355 0.4594 -0.8142
vn 0.1825 0.8445 -0.5035
vn 0.2649 0.6653 -0.698
vn 0.2968 0.5643 -0.7704
vn 0.239 0.7304 -0.6399
vn 0.2114 0.7904 -0.575
vn 0.3344 0.4106 -0.8483
vn 0.622 0.7482 -0.231
vn 0.8484 0.4106 -0.3342
vn 0.2311 0.7482 -0.6219
vn 0.5035 0.8445 -0.1825
vn 0.8141 0.4594 -0.3551
vn 0.7704 0.5643 -0.2969
vn 0.698 0.6653 -0.265
vn 0.6399 0.7304 -0.239
vn 0.575 0.7903 -0.2114
vn -0.5492 0.8042 0.2275
vn -0.2275 0.8042 0.5491
vn -0.5491 0.8042 -0.2275
vn 0.2275 0.8042 -0.5492
vn -0.2275 0.8042 -0.5491
vn 0.5491 0.8042 -0.2275
vn -0.7173 0.6303 0.2971
vn -0.2971 0.6303 0.7173
vn -0.7173 0.6303 -0.2971
vn 0.2972 0.6303 -0.7173
vn -0.2971 0.6303 -0.7173
vn 0.7173 0.6303 -0.297
vn -0.9239 0.0 0.3827
vn -0.3826 0.0 0.9239
vn -0.9239 0.0 -0.3827
vn 0.3828 0.0 -0.9238
vn -0.3827 0.0 -0.9239
vn 0.9239 0.0 -0.3826
vn 0.6219 0.7482 0.2311
vn 0.8484 0.4106 0.3342
vn 0.6399 0.7303 0.239
vn 0.575 0.7904 0.2114
vn 0.7704 0.5642 0.2969
vn 0.3343 0.4106 0.8483
vn 0.231 0.7482 0.6219
vn 0.3551 0.4594 0.8142
vn 0.8141 0.4594 0.3551
vn 0.5035 0.8445 0.1824
vn 0.1825 0.8445 0.5035
vn 0.2969 0.5643 0.7704
vn 0.2649 0.6653 0.698
vn 0.698 0.6653 0.265
vn 0.2114 0.7904 0.575
vn 0.239 0.7304 0.6399
vn 0.5491 0.8042 0.2275
vn 0.2275 0.8042 0.5491
vn 0.7173 0.6303 0.2971
vn 0.2971 0.6303 0.7173
vn 0.9239 0.0 0.3826
vn 0.3827 0.0 0.9239
vtan -0.783 -0.5905 0.1957
vtan -0.4235 -0.9052 -0.0371
vtan -0.4241 -0.9049 0.0351
vtan -0.7697 -0.6384 -0.005
vtan -0.5586 -0.8113 0.1725
vtan -0.9425 -0.3307 0.0476
vtan -0.8583 -0.5132 0.0066
vtan -0.4997 -0.8658 -0.0254
vtan -0.6816 -0.7233 0.1109
vtan -0.9601 -0.2634 0.0939
vtan -0.833 -0.5225 0.1819
vtan -0.7466 -0.6401 0.1812
vtan -0.587 -0.8095 0.0156
vtan -0.6824 -0.7301 0.0359
vtan -0.7448 -0.666 0.0413
vtan -0.8074 -0.5899 0.0091
vtan -0.9333 -0.3379 0.1213
vtan -0.869 -0.4549 0.1947
vtan -0.7462 -0.6648 -0.0336
vtan -0.8047 -0.593 -0.028
vtan -0.5828 -0.812 -0.0313
vtan -0.9729 -0.1761 0.1497
vtan -0.9423 -0.1287 0.3091
vtan -0.5014 -0.4205 0.7562
vtan -0.9331 -0.2267 0.2791
vtan -0.5771 -0.5725 0.5825
vtan -0.8609 -0.5083 0.023
vtan -0.9777 -0.2102 0.0017
vtan -0.636 -0.6467 0.4211
vtan -0.9535 -0.2187 0.2072
vtan -0.9603 -0.2475 0.1285
vtan -0.716 -0.6421 0.2738
vtan -0.9707 -0.2385 0.0291
vtan -0.8152 -0.5754 0.0664
vtan -0.7666 -0.6283 0.1327
vtan -0.9636 -0.26 0.0632
vtan -0.9347 0.1587 -0.3181
vtan -0.9775 0.2109 -0.0005
vtan -0.9603 0.2475 -0.1285
vtan -0.9533 0.2219 -0.2048
vtan -0.9639 0.2583 -0.0651
vtan -0.9694 0.2445 -0.0202
vtan -0.9413 0.1908 -0.2786
vtan -0.7747 0.5452 -0.3202
vtan -0.5181 0.514 -0.6837
vtan -0.9729 0.1831 -0.1411
vtan -0.8618 0.5059 -0.0369
vtan -0.5572 0.4462 -0.7003
vtan -0.6342 0.6298 -0.4486
vtan -0.716 0.6421 -0.2738
vtan -0.7667 0.6279 -0.1339
vtan -0.8134 0.5801 -0.0439
vtan -0.8561 -0.5162 -0.0264
vtan -0.4676 -0.8813 -0.0683
vtan -0.6816 -0.7306 -0.039
vtan -0.8163 -0.5745 0.0601
vtan -0.8215 -0.4612 0.3352
vtan -0.8251 -0.565 -0.0055
vtan -0.9642 0.1071 -0.2425
vtan -0.9655 -0.113 0.2344
vtan -0.7662 -0.3757 0.5213
vtan -0.7565 0.3626 -0.5443
vtan -0.6553 -0.7551 0.0199
vtan -0.9546 -0.2128 -0.2084
vtan -0.6378 -0.7656 -0.0842
vtan -0.945 0.0869 -0.3152
vtan -0.947 -0.0983 0.3059
vtan -0.6322 -0.4094 0.6578
vtan -0.6331 0.4114 -0.6557
vtan 0.0 -1.0 0.0
vtan -0.2412 -0.7764 0.5823
vtan -0.9238 0.0 -0.3828
vtan -0.9237 -0.0197 0.3826
vtan -0.3827 0.0 0.9239
vtan -0.3823 0.0373 -0.9233
vtan 0.7261 -0.6615 0.1876
vtan 0.4234 -0.9052 0.0371
vtan 0.4257 -0.9044 -0.0304
vtan 0.7317 -0.6604 -0.1689
vtan 0.7462 -0.6649 0.0336
vtan 0.8048 -0.5929 0.028
vtan 0.8033 -0.5944 -0.0369
vtan 0.7463 -0.6648 -0.0335
vtan 0.5827 -0.8121 0.0313
vtan 0.5828 -0.812 -0.0313
vtan 0.9423 -0.1287 -0.3091
vtan 0.5014 -0.4205 -0.7562
vtan 0.7279 -0.4436 -0.5228
vtan 0.9729 -0.1817 -0.1429
vtan 0.9331 -0.2267 -0.279
vtan 0.5771 -0.5724 -0.5825
vtan 0.8609 -0.5083 -0.023
vtan 0.9777 -0.2102 -0.0017
vtan 0.6359 -0.6467 -0.4212
vtan 0.9535 -0.2187 -0.2073
vtan 0.9603 -0.2475 -0.1285
vtan 0.716 -0.6421 -0.2738
vtan 0.9707 -0.2384 -0.0291
vtan 0.8152 -0.5753 -0.0664
vtan 0.7666 -0.6283 -0.1327
vtan 0.9635 -0.26 -0.0632
vtan 0.9348 0.1745 0.3092
vtan 0.9832 0.1567 0.0936
vtan 0.9643 0.1828 0.1917
vtan 0.9549 0.1754 0.2395
vtan 0.971 0.1795 0.1577
vtan 0.9774 0.1706 0.1248
vtan 0.9425 0.1456 0.3009
vtan 0.9729 0.1777 0.1477
vtan 0.8561 -0.5161 0.0264
vtan 0.4675 -0.8813 0.0683
vtan 0.4686 -0.881 -0.0656
vtan 0.8563 -0.5159 -0.0242
vtan 0.6816 -0.7307 0.039
vtan 0.6816 -0.7307 -0.0392
vtan 0.8251 -0.565 0.0055
vtan 0.8242 -0.5662 -0.0121
vtan 0.9738 0.1879 0.1283
vtan 0.9655 -0.113 -0.2344
vtan 0.7662 -0.3757 -0.5213
vtan 0.6378 -0.7656 0.0842
vtan 0.637 -0.766 -0.0872
vtan 0.9548 0.1961 0.2232
vtan 0.947 -0.0983 -0.3058
vtan 0.6322 -0.4094 -0.6578
vtan 0.9239 0.0 0.3826
vtan 0.9237 -0.0197 -0.3826
vtan 0.3826 0.0 -0.9239
vtan -0.9729 0.1747 0.1513
vtan -0.7828 0.5867 0.2073
f 0/0/0/0 1/1/1/1 2/2/2/2 
f 0/0/0/0 2/2/2/2 3/3/3/3 
f 3/3/3/3 2/2/2/2 4/4/4/4 
f 3/3/3/3 4/4/4/4 5/5/5/5 
f 6/6/6/6 7/7/7/7 8/8/8/8 
f 6/6/6/6 8/8/8/8 9/9/9/9 
f 10/10/10/10 11/11/11/11 12/12/12/12 
f 10/10/10/10 12/12/12/12 13/13/13/13 
f 14/14/14/14 15/15/15/15 16/16/16/16 
f 14/14/14/14 16/16/16/16 17/17/17/17 
f 15/15/15/15 6/6/6/6 9/9/9/9 
f 15/15/15/15 9/9/9/9 16/16/16/16 
f 17/17/17/17 10/10/10/10 13/13/13/13 
f 17/17/17/17 13/13/13/13 14/14/14/14 
f 11/11/11/11 4/4/4/4 2/2/2/2 
f 11/11/11/11 2/2/2/2 12/12/12/12 
f 18/18/18/18 19/19/19/19 15/15/15/15 
f 18/18/18/18 15/15/15/15 14/14/14/14 
f 1/1/1/1 20/20/20/20 12/12/12/12 
f 1/1/1/1 12/12/12/12 2/2/2/2 
f 0/0/0/0 22/21/21/21 21/22/22/22 
f 0/0/0/0 21/22/22/22 1/23/1/23 
f 23/24/23/24 24/25/24/25 25/26/25/26 
f 23/24/23/24 25/26/25/26 26/27/26/27 
f 20/28/20/28 27/29/27/29 28/30/28/30 
f 20/28/20/28 28/30/28/30 29/31/29/31 
f 30/32/30/32 19/33/19/33 18/34/18/34 
f 30/32/30/32 18/34/18/34 31/35/31/35 
f 26/27/26/27 25/26/25/26 19/33/19/33 
f 26/27/26/27 19/33/19/33 30/32/30/32 
f 29/31/29/31 28/30/28/30 31/35/31/35 
f 29/31/29/31 31/35/31/35 18/34/18/34 
f 1/23/1/23 21/22/22/22 27/29/27/29 
f 1/23/1/23 27/29/27/29 20/28/20/28 
f 32/36/32/36 23/24/23/24 26/27/26/27 
f 32/36/32/36 26/27/26/27 33/37/33/37 
f 34/38/34/38 28/30/28/30 27/29/27/29 
f 34/38/34/38 27/29/27/29 35/39/35/39 
f 30/32/30/32 31/35/31/35 36/40/36/40 
f 30/32/30/32 36/40/36/40 37/41/37/41 
f 36/40/36/40 31/35/31/35 28/30/28/30 
f 36/40/36/40 28/30/28/30 34/38/34/38 
f 33/37/33/37 26/27/26/27 30/32/30/32 
f 33/37/33/37 30/32/30/32 37/41/37/41 
f 35/39/35/39 27/29/27/29 21/22/22/22 
f 35/39/35/39 21/22/22/22 38/42/38/42 
f 39/43/39/43 40/44/40/44 38/42/38/42 
f 39/43/39/43 38/42/38/42 41/45/41/45 
f 42/46/42/46 43/47/43/47 32/36/32/36 
f 42/46/42/46 32/36/32/36 33/37/33/37 
f 34/38/34/38 35/39/35/39 44/48/44/48 
f 34/38/34/38 44/48/44/48 45/49/45/49 
f 46/50/46/50 47/51/47/51 37/41/37/41 
f 46/50/46/50 37/41/37/41 36/40/36/40 
f 47/51/47/51 42/46/42/46 33/37/33/37 
f 47/51/47/51 33/37/33/37 37/41/37/41 
f 36/40/36/40 34/38/34/38 45/49/45/49 
f 36/40/36/40 45/49/45/49 46/50/46/50 
f 35/39/35/39 38/42/38/42 40/44/40/44 
f 35/39/35/39 40/44/40/44 44/48/44/48 
f 21/22/22/22 22/21/21/21 41/45/41/45 
f 21/22/22/22 41/45/41/45 38/42/38/42 
f 25/52/25/52 24/53/24/53 7/7/7/7 
f 25/52/25/52 7/7/7/7 6/6/6/6 
f 20/20/20/20 29/54/29/54 13/13/13/13 
f 20/20/20/20 13/13/13/13 12/12/12/12 
f 29/54/29/54 18/18/18/18 14/14/14/14 
f 29/54/29/54 14/14/14/14 13/13/13/13 
f 19/19/19/19 25/52/25/52 6/6/6/6 
f 19/19/19/19 6/6/6/6 15/15/15/15 
f 7/7/7/7 48/55/48/55 49/56/49/56 
f 7/7/7/7 49/56/49/56 8/8/8/8 
f 50/57/50/57 48/55/48/55 7/7/7/7 
f 50/57/50/57 7/7/7/7 24/53/24/53 
f 32/36/32/36 51/58/51/58 52/59/52/59 
f 32/36/32/36 52/59/52/59 23/24/23/24 
f 23/24/23/24 52/59/52/59 50/60/50/60 
f 23/24/23/24 50/60/50/60 24/25/24/25 
f 43/47/43/47 53/61/53/61 51/58/51/58 
f 43/47/43/47 51/58/51/58 32/36/32/36 
f 48/55/48/55 54/62/54/62 55/63/55/63 
f 48/55/48/55 55/63/55/63 49/56/49/56 
f 50/57/50/57 56/64/56/64 54/62/54/62 
f 50/57/50/57 54/62/54/62 48/55/48/55 
f 51/58/51/58 57/65/57/65 58/66/58/66 
f 51/58/51/58 58/66/58/66 52/59/52/59 
f 52/59/52/59 58/66/58/66 56/67/56/67 
f 52/59/52/59 56/67/56/67 50/60/50/60 
f 53/61/53/61 59/68/59/68 57/65/57/65 
f 53/61/53/61 57/65/57/65 51/58/51/58 
f 60/69/60/69 61/70/61/69 55/71/55/70 
f 60/69/60/69 55/71/55/70 54/62/54/62 
f 62/72/62/69 60/69/60/69 54/62/54/62 
f 62/72/62/69 54/62/54/62 56/64/56/64 
f 63/73/63/71 64/74/64/72 58/66/58/66 
f 63/73/63/71 58/66/58/66 57/65/57/65 
f 64/74/64/72 62/75/62/73 56/67/56/67 
f 64/74/64/72 56/67/56/67 58/66/58/66 
f 65/76/65/74 63/73/63/71 57/65/57/65 
f 65/76/65/74 57/65/57/65 59/68/59/68 
f 66/0/66/75 67/1/67/76 40/2/40/77 
f 66/0/66/75 40/2/40/77 39/3/39/78 
f 68/18/68/79 69/19/69/80 47/15/47/81 
f 68/18/68/79 47/15/47/81 46/14/46/82 
f 67/1/67/76 70/20/70/83 44/12/44/84 
f 67/1/67/76 44/12/44/84 40/2/40/77 
f 71/22/71/85 67/23/67/86 66/0/66/87 
f 71/22/71/85 66/0/66/87 72/21/72/88 
f 73/24/73/89 74/25/74/90 75/26/75/91 
f 73/24/73/89 75/26/75/91 76/27/76/92 
f 70/28/70/93 77/29/77/94 78/30/78/95 
f 70/28/70/93 78/30/78/95 79/31/79/96 
f 80/32/80/97 69/33/69/98 68/34/68/99 
f 80/32/80/97 68/34/68/99 81/35/81/100 
f 76/27/76/92 75/26/75/91 69/33/69/98 
f 76/27/76/92 69/33/69/98 80/32/80/97 
f 79/31/79/96 78/30/78/95 81/35/81/100 
f 79/31/79/96 81/35/81/100 68/34/68/99 
f 67/23/67/86 71/22/71/85 77/29/77/94 
f 67/23/67/86 77/29/77/94 70/28/70/93 
f 8/36/8/101 73/24/73/89 76/27/76/92 
f 8/36/8/101 76/27/76/92 9/37/9/102 
f 10/38/10/103 78/30/78/95 77/29/77/94 
f 10/38/10/103 77/29/77/94 11/39/11/104 
f 80/32/80/97 81/35/81/100 17/40/17/105 
f 80/32/80/97 17/40/17/105 16/41/16/106 
f 17/40/17/105 81/35/81/100 78/30/78/95 
f 17/40/17/105 78/30/78/95 10/38/10/103 
f 9/37/9/102 76/27/76/92 80/32/80/97 
f 9/37/9/102 80/32/80/97 16/41/16/106 
f 11/39/11/104 77/29/77/94 71/22/71/85 
f 11/39/11/104 71/22/71/85 4/42/4/107 
f 71/22/71/85 72/21/72/88 5/45/5/108 
f 71/22/71/85 5/45/5/108 4/42/4/107 
f 75/52/75/109 74/53/74/110 43/7/43/111 
f 75/52/75/109 43/7/43/111 42/6/42/112 
f 70/20/70/83 79/54/79/113 45/13/45/114 
f 70/20/70/83 45/13/45/114 44/12/44/84 
f 79/54/79/113 68/18/68/79 46/14/46/82 
f 79/54/79/113 46/14/46/82 45/13/45/114 
f 69/19/69/80 75/52/75/109 42/6/42/112 
f 69/19/69/80 42/6/42/112 47/15/47/81 
f 82/57/82/115 53/55/53/116 43/7/43/111 
f 82/57/82/115 43/7/43/111 74/53/74/110 
f 8/36/8/101 49/58/49/117 83/59/83/118 
f 8/36/8/101 83/59/83/118 73/24/73/89 
f 73/24/73/89 83/59/83/118 82/60/82/119 
f 73/24/73/89 82/60/82/119 74/25/74/90 
f 82/57/82/115 84/64/84/120 59/62/59/121 
f 82/57/82/115 59/62/59/121 53/55/53/116 
f 49/58/49/117 55/65/55/122 85/66/85/123 
f 49/58/49/117 85/66/85/123 83/59/83/118 
f 83/59/83/118 85/66/85/123 84/67/84/124 
f 83/59/83/118 84/67/84/124 82/60/82/119 
f 86/72/86/69 65/69/65/69 59/62/59/121 
f 86/72/86/69 59/62/59/121 84/64/84/120 
f 61/73/61/125 87/74/87/126 85/66/85/123 
f 61/73/61/125 85/66/85/123 55/65/55/122 
f 87/74/87/126 86/75/86/127 84/67/84/124 
f 87/74/87/126 84/67/84/124 85/66/85/123 
f 39/43/39/43 41/45/41/45 72/77/72/128 
f 39/43/39/43 72/77/72/128 66/78/66/129 
f 72/77/72/128 41/45/41/45 3/3/3/3 
f 72/77/72/128 3/3/3/3 5/5/5/5 
f 22/21/21/21 0/0/0/0 3/3/3/3 
f 22/21/21/21 3/3/3/3 41/45/41/45 
