v 866.4236 712.3098 -45.6336
v 866.4236 729.4119 -47.3179
v 897.25 729.4119 -47.3179
v 897.25 712.3098 -45.6336
v 897.25 731.637 -36.1312
v 897.25 718.4464 -34.8321
v 897.25 712.3098 -34.8321
v 866.4237 729.412 -219.2738
v 866.4237 731.6371 -230.4605
v 866.4237 712.3099 -232.3641
v 866.4237 712.3099 -220.9582
v 897.2501 712.3099 -241.1189
v 897.2501 733.3452 -239.0471
v 897.2501 731.6371 -230.4605
v 897.2501 712.3099 -232.3641
v 865.5165 731.6371 -230.4605
v 865.5165 712.3099 -232.3641
v 859.9748 732.6693 -235.649
v 859.9748 712.3099 -237.6542
v 866.4236 798.2877 -150.3979
v 897.2501 798.2877 -150.3979
v 897.2501 799.9722 -133.2958
v 866.4236 799.9722 -133.2959
v 897.2501 809.4745 -152.6231
v 897.2501 811.3781 -133.2958
v 866.4236 798.2877 -116.1938
v 866.4236 809.4744 -113.9686
v 866.4236 811.378 -133.2958
v 897.2501 818.061 -112.2606
v 897.2501 809.4744 -113.9686
v 897.2501 820.1328 -133.2958
v 859.9748 818.061 -154.3311
v 859.9748 814.6629 -153.6551
v 859.9748 816.6681 -133.2958
v 859.9748 820.1328 -133.2958
v 897.2501 818.061 -154.3311
v 865.5165 809.4744 -113.9686
v 865.5165 811.378 -133.2958
v 859.9748 814.6628 -112.9365
v 866.4236 785.1984 -181.9985
v 866.4236 794.6821 -188.3352
v 866.4236 782.3616 -203.3477
v 866.4236 774.2964 -195.2825
v 897.2501 801.9615 -193.1991
v 897.2501 794.6821 -188.3352
v 897.2501 782.3616 -203.3477
v 897.2501 788.5522 -209.5382
v 865.5165 794.6821 -188.3352
v 865.5165 782.3616 -203.3477
v 859.9748 799.0807 -191.2743
v 859.9748 786.1024 -207.0883
v 866.4236 761.0126 -206.1844
v 897.2501 761.0126 -206.1845
v 897.2501 774.2964 -195.2825
v 897.2501 767.3492 -215.6681
v 859.9748 772.2131 -222.9475
v 859.9748 770.2883 -220.0666
v 859.9748 788.5522 -209.5382
v 897.2501 772.2131 -222.9475
v 866.4236 785.1984 -84.5933
v 897.25 785.1984 -84.5933
v 897.25 774.2964 -71.3092
v 866.4236 774.2964 -71.3092
v 897.25 794.682 -78.2565
v 897.25 782.3616 -63.2441
v 859.9748 801.9613 -73.3926
v 859.9748 799.0806 -75.3175
v 859.9748 786.1022 -59.5034
v 859.9748 788.5521 -57.0535
v 897.25 801.9613 -73.3926
v 897.25 788.5521 -57.0535
v 866.4236 761.0123 -60.4073
v 866.4236 767.3491 -50.9237
v 866.4236 782.3616 -63.2441
v 897.25 772.213 -43.6443
v 897.25 767.3491 -50.9237
v 865.5165 767.3491 -50.9237
v 865.5165 782.3616 -63.2441
v 859.9748 770.2881 -46.5251
v 897.25 761.0123 -60.4073
v 897.25 745.8567 -52.3064
v 866.4236 745.8567 -52.3065
v 897.25 750.2216 -41.7688
v 866.4236 767.3492 -215.6681
v 866.4236 750.2217 -224.823
v 866.4237 745.8569 -214.2853
v 897.2501 750.2217 -224.823
v 897.2501 753.572 -232.9114
v 865.5165 767.3492 -215.6681
v 865.5165 750.2217 -224.823
v 859.9748 752.246 -229.7104
v 897.2501 785.1984 -181.9985
v 897.2501 793.2992 -166.8428
v 866.4236 793.2992 -166.8428
v 897.2501 803.8369 -171.2076
v 866.4236 794.682 -78.2565
v 866.4236 803.8369 -95.3841
v 866.4236 793.2992 -99.7489
v 897.2501 803.8369 -95.3841
v 897.25 811.9253 -92.0338
v 859.9748 801.9615 -193.1991
v 859.9748 808.7244 -173.2321
v 859.9748 811.9253 -174.5579
v 897.2501 811.9253 -174.5579
v 865.5165 794.682 -78.2565
v 865.5165 803.8369 -95.3841
v 859.9748 808.7242 -93.3597
v 866.4236 809.4745 -152.6231
v 866.4236 803.8369 -171.2076
v 865.5165 809.4745 -152.6231
v 865.5165 803.8369 -171.2076
v 897.2501 729.412 -219.2738
v 897.2501 745.8569 -214.2853
v 859.9748 733.3452 -239.0471
v 859.9748 753.572 -232.9114
v 897.2501 798.2877 -116.1938
v 897.2501 793.2992 -99.7489
v 859.9748 818.061 -112.2606
v 859.9748 811.9253 -92.0338
v 866.4236 731.637 -36.1313
v 866.4236 750.2216 -41.7688
v 865.5165 731.637 -36.1313
v 865.5165 750.2216 -41.7688
v 864.1289 731.8954 -34.8321
v 859.9748 745.4904 -34.8321
v 859.9748 752.246 -36.8814
v 897.25 755.7266 -34.8321
v 897.25 753.0948 -34.8321
v 859.9748 772.213 -43.6443
v 897.2501 712.3099 -220.9582
v 859.9748 712.3099 -241.1189
v 866.4236 712.3098 -34.8321
v 866.4236 718.4464 -34.8321
v 865.5165 718.4464 -34.8321
v 897.25 695.7373 -45.0482
v 866.4236 695.7373 -45.0482
v 897.25 695.7373 -34.8321
v 866.4237 695.7374 -232.0324
v 866.4237 695.7374 -220.7958
v 897.2501 695.7374 -232.0325
v 897.2501 695.7374 -240.6817
v 865.5165 695.7374 -232.0324
v 859.9748 695.7374 -237.2566
v 897.2501 695.7374 -220.7958
v 859.9748 695.7374 -240.6817
v 859.9748 753.0948 -34.8321
v 859.9748 755.7265 -34.8321
v 897.25 731.8954 -34.8321
v 866.4236 695.7373 -34.8321
v 897.25 729.4119 -22.3462
v 866.4236 729.4119 -22.3462
v 866.4236 712.3098 -24.0306
v 897.25 712.3098 -24.0306
v 897.25 731.637 -33.533
v 866.4236 712.3098 162.6999
v 866.4236 731.6371 160.7963
v 866.4236 729.4119 149.6096
v 866.4236 712.3098 151.294
v 897.25 731.6371 160.7963
v 897.25 733.3451 169.3829
v 897.25 712.3098 171.4548
v 897.25 712.3098 162.6999
v 865.5165 712.3098 162.6999
v 865.5165 731.6371 160.7963
v 859.9748 732.6692 165.9848
v 859.9748 712.3098 167.99
v 897.25 799.9722 63.6317
v 897.25 798.2877 80.7338
v 866.4236 798.2877 80.7338
v 866.4236 799.9722 63.6317
v 897.25 811.3781 63.6317
v 897.25 809.4745 82.9589
v 866.4236 811.378 63.6317
v 866.4236 809.4744 44.3044
v 866.4236 798.2877 46.5296
v 897.25 809.4744 44.3044
v 897.25 818.061 42.5964
v 897.25 820.1328 63.6317
v 859.9748 816.6681 63.6317
v 859.9748 814.6629 83.991
v 859.9748 818.061 84.6669
v 859.9748 820.1328 63.6317
v 897.25 818.061 84.6669
v 865.5165 811.378 63.6317
v 865.5165 809.4744 44.3044
v 859.9748 814.6628 43.2724
v 866.4236 782.3616 133.6835
v 866.4236 794.682 118.671
v 866.4236 785.1984 112.3343
v 866.4236 774.2964 125.6183
v 897.25 782.3616 133.6835
v 897.25 794.682 118.671
v 897.25 801.9614 123.535
v 897.25 788.5522 139.8741
v 865.5165 782.3616 133.6835
v 865.5165 794.682 118.671
v 859.9748 786.1023 137.4241
v 859.9748 799.0806 121.6101
v 897.25 774.2964 125.6183
v 897.25 761.0125 136.5203
v 866.4236 761.0125 136.5203
v 897.25 767.3492 146.0039
v 859.9748 770.2882 150.4025
v 859.9748 772.2131 153.2832
v 859.9748 788.5522 139.8741
v 897.25 772.2131 153.2832
v 897.25 774.2964 1.645
v 897.25 785.1984 14.9291
v 866.4236 785.1984 14.9291
v 866.4236 774.2964 1.645
v 897.25 782.3616 -6.4201
v 897.25 794.682 8.5923
v 859.9748 786.1022 -10.1608
v 859.9748 799.0806 5.6533
v 859.9748 801.9613 3.7284
v 859.9748 788.5521 -12.6107
v 897.25 801.9613 3.7284
v 897.25 788.5521 -12.6107
v 866.4236 782.3616 -6.4201
v 866.4236 767.3491 -18.7405
v 866.4236 761.0123 -9.2569
v 897.25 767.3491 -18.7405
v 897.25 772.213 -26.0199
v 865.5165 782.3616 -6.4201
v 865.5165 767.3491 -18.7405
v 859.9748 770.2881 -23.1391
v 897.25 745.8567 -17.3577
v 897.25 761.0123 -9.2569
v 866.4236 745.8567 -17.3577
v 897.25 750.2216 -27.8954
v 866.4236 750.2216 155.1588
v 866.4236 767.3492 146.0039
v 866.4236 745.8568 144.6211
v 897.25 750.2216 155.1588
v 897.25 753.5719 163.2472
v 865.5165 750.2216 155.1588
v 865.5165 767.3492 146.0039
v 859.9748 752.246 160.0462
v 897.25 793.2992 97.1786
v 897.25 785.1984 112.3343
v 866.4236 793.2992 97.1786
v 897.25 803.8369 101.5434
v 866.4236 803.8369 25.7199
v 866.4236 794.682 8.5923
v 866.4236 793.2992 30.0848
v 897.25 803.8369 25.7199
v 897.25 811.9253 22.3696
v 859.9748 808.7244 103.5679
v 859.9748 801.9614 123.535
v 859.9748 811.9253 104.8937
v 897.25 811.9253 104.8937
v 865.5165 803.8369 25.7199
v 865.5165 794.682 8.5923
v 859.9748 808.7242 23.6955
v 866.4236 803.8369 101.5434
v 866.4236 809.4745 82.9589
v 865.5165 803.8369 101.5434
v 865.5165 809.4745 82.9589
v 897.2501 745.8568 144.6211
v 897.2501 729.4119 149.6096
v 859.9748 733.3451 169.3829
v 859.9748 753.5719 163.2472
v 897.25 793.2992 30.0848
v 897.25 798.2877 46.5296
v 859.9748 818.061 42.5964
v 859.9748 811.9253 22.3696
v 866.4236 750.2216 -27.8954
v 866.4236 731.637 -33.5329
v 865.5165 750.2216 -27.8954
v 865.5165 731.637 -33.5329
v 859.9748 752.246 -32.7828
v 859.9748 772.213 -26.0199
v 897.25 712.3098 151.294
v 859.9748 712.3098 171.4547
v 866.4236 695.7373 -24.6159
v 897.25 695.7373 -24.6159
v 866.4236 695.7373 151.1317
v 866.4236 695.7373 162.3683
v 897.25 695.7373 171.0175
v 897.25 695.7373 162.3683
v 865.5165 695.7373 162.3683
v 859.9748 695.7373 167.5925
v 897.25 695.7373 151.1317
v 859.9748 695.7373 171.0175
gi 0 0 0 0
gi 0 0 0 0
gi 0 0 0 0
gi 0 0 0 0
gi 0 0 0 0
gi 0 0 0 0
gi 0 0 0 0
gi 0 0 0 0
gi 0 0 0 0
gi 0 0 0 0
gi 0 0 0 0
gi 0 0 0 0
gi 0 0 0 0
gi 0 0 0 0
gi 0 0 0 0
gi 0 0 0 0
gi 0 0 0 0
gi 0 0 0 0
gi 0 0 0 0
gi 0 0 0 0
gi 0 0 0 0
gi 0 0 0 0
gi 0 0 0 0
gi 0 0 0 0
gi 0 0 0 0
gi 0 0 0 0
gi 0 0 0 0
gi 0 0 0 0
gi 0 0 0 0
gi 0 0 0 0
gi 0 0 0 0
gi 0 0 0 0
gi 0 0 0 0
gi 0 0 0 0
gi 0 0 0 0
gi 0 0 0 0
gi 0 0 0 0
gi 0 0 0 0
gi 0 0 0 0
gi 0 0 0 0
gi 0 0 0 0
gi 0 0 0 0
gi 0 0 0 0
gi 0 0 0 0
gi 0 0 0 0
gi 0 0 0 0
gi 0 0 0 0
gi 0 0 0 0
gi 0 0 0 0
gi 0 0 0 0
gi 0 0 0 0
gi 0 0 0 0
gi 0 0 0 0
gi 0 0 0 0
gi 0 0 0 0
gi 0 0 0 0
gi 0 0 0 0
gi 0 0 0 0
gi 0 0 0 0
gi 0 0 0 0
gi 0 0 0 0
gi 0 0 0 0
gi 0 0 0 0
gi 0 0 0 0
gi 0 0 0 0
gi 0 0 0 0
gi 0 0 0 0
gi 0 0 0 0
gi 0 0 0 0
gi 0 0 0 0
gi 0 0 0 0
gi 0 0 0 0
gi 0 0 0 0
gi 0 0 0 0
gi 0 0 0 0
gi 0 0 0 0
gi 0 0 0 0
gi 0 0 0 0
gi 0 0 0 0
gi 0 0 0 0
gi 0 0 0 0
gi 0 0 0 0
gi 0 0 0 0
gi 0 0 0 0
gi 0 0 0 0
gi 0 0 0 0
gi 0 0 0 0
gi 0 0 0 0
gi 0 0 0 0
gi 0 0 0 0
gi 0 0 0 0
gi 0 0 0 0
gi 0 0 0 0
gi 0 0 0 0
gi 0 0 0 0
gi 0 0 0 0
gi 0 0 0 0
gi 0 0 0 0
gi 0 0 0 0
gi 0 0 0 0
gi 0 0 0 0
gi 0 0 0 0
gi 0 0 0 0
gi 0 0 0 0
gi 0 0 0 0
gi 0 0 0 0
gi 0 0 0 0
gi 0 0 0 0
gi 0 0 0 0
gi 0 0 0 0
gi 0 0 0 0
gi 0 0 0 0
gi 0 0 0 0
gi 0 0 0 0
gi 0 0 0 0
gi 0 0 0 0
gi 0 0 0 0
gi 0 0 0 0
gi 0 0 0 0
gi 0 0 0 0
gi 0 0 0 0
gi 0 0 0 0
gi 0 0 0 0
gi 0 0 0 0
gi 0 0 0 0
gi 0 0 0 0
gi 0 0 0 0
gi 0 0 0 0
gi 0 0 0 0
gi 0 0 0 0
gi 0 0 0 0
gi 0 0 0 0
gi 0 0 0 0
gi 0 0 0 0
gi 0 0 0 0
gi 0 0 0 0
gi 0 0 0 0
gi 0 0 0 0
gi 0 0 0 0
gi 0 0 0 0
gi 0 0 0 0
gi 0 0 0 0
gi 0 0 0 0
gi 0 0 0 0
gi 0 0 0 0
gi 0 0 0 0
gi 0 0 0 0
gi 0 0 0 0
gi 0 0 0 0
gi 0 0 0 0
gi 0 0 0 0
gi 0 0 0 0
gi 0 0 0 0
gi 0 0 0 0
gi 0 0 0 0
gi 0 0 0 0
gi 0 0 0 0
gi 0 0 0 0
gi 0 0 0 0
gi 0 0 0 0
gi 0 0 0 0
gi 0 0 0 0
gi 0 0 0 0
gi 0 0 0 0
gi 0 0 0 0
gi 0 0 0 0
gi 0 0 0 0
gi 0 0 0 0
gi 0 0 0 0
gi 0 0 0 0
gi 0 0 0 0
gi 0 0 0 0
gi 0 0 0 0
gi 0 0 0 0
gi 0 0 0 0
gi 0 0 0 0
gi 0 0 0 0
gi 0 0 0 0
gi 0 0 0 0
gi 0 0 0 0
gi 0 0 0 0
gi 0 0 0 0
gi 0 0 0 0
gi 0 0 0 0
gi 0 0 0 0
gi 0 0 0 0
gi 0 0 0 0
gi 0 0 0 0
gi 0 0 0 0
gi 0 0 0 0
gi 0 0 0 0
gi 0 0 0 0
gi 0 0 0 0
gi 0 0 0 0
gi 0 0 0 0
gi 0 0 0 0
gi 0 0 0 0
gi 0 0 0 0
gi 0 0 0 0
gi 0 0 0 0
gi 0 0 0 0
gi 0 0 0 0
gi 0 0 0 0
gi 0 0 0 0
gi 0 0 0 0
gi 0 0 0 0
gi 0 0 0 0
gi 0 0 0 0
gi 0 0 0 0
gi 0 0 0 0
gi 0 0 0 0
gi 0 0 0 0
gi 0 0 0 0
gi 0 0 0 0
gi 0 0 0 0
gi 0 0 0 0
gi 0 0 0 0
gi 0 0 0 0
gi 0 0 0 0
gi 0 0 0 0
gi 0 0 0 0
gi 0 0 0 0
gi 0 0 0 0
gi 0 0 0 0
gi 0 0 0 0
gi 0 0 0 0
gi 0 0 0 0
gi 0 0 0 0
gi 0 0 0 0
gi 0 0 0 0
gi 0 0 0 0
gi 0 0 0 0
gi 0 0 0 0
gi 0 0 0 0
gi 0 0 0 0
gi 0 0 0 0
gi 0 0 0 0
gi 0 0 0 0
gi 0 0 0 0
gi 0 0 0 0
gi 0 0 0 0
gi 0 0 0 0
gi 0 0 0 0
gi 0 0 0 0
gi 0 0 0 0
gi 0 0 0 0
gi 0 0 0 0
gi 0 0 0 0
gi 0 0 0 0
gi 0 0 0 0
gi 0 0 0 0
gi 0 0 0 0
gi 0 0 0 0
gi 0 0 0 0
gi 0 0 0 0
gi 0 0 0 0
gi 0 0 0 0
gi 0 0 0 0
gi 0 0 0 0
gi 0 0 0 0
gi 0 0 0 0
gi 0 0 0 0
gi 0 0 0 0
gi 0 0 0 0
gi 0 0 0 0
gi 0 0 0 0
gi 0 0 0 0
gi 0 0 0 0
gi 0 0 0 0
gi 0 0 0 0
gi 0 0 0 0
gi 0 0 0 0
gi 0 0 0 0
gi 0 0 0 0
gi 0 0 0 0
gi 0 0 0 0
gi 0 0 0 0
gi 0 0 0 0
gi 0 0 0 0
gi 0 0 0 0
gi 0 0 0 0
gi 0 0 0 0
gi 0 0 0 0
gi 0 0 0 0
gw 0.0 0.0 0.0 0.0
gw 0.0 0.0 0.0 0.0
gw 0.0 0.0 0.0 0.0
gw 0.0 0.0 0.0 0.0
gw 0.0 0.0 0.0 0.0
gw 0.0 0.0 0.0 0.0
gw 0.0 0.0 0.0 0.0
gw 0.0 0.0 0.0 0.0
gw 0.0 0.0 0.0 0.0
gw 0.0 0.0 0.0 0.0
gw 0.0 0.0 0.0 0.0
gw 0.0 0.0 0.0 0.0
gw 0.0 0.0 0.0 0.0
gw 0.0 0.0 0.0 0.0
gw 0.0 0.0 0.0 0.0
gw 0.0 0.0 0.0 0.0
gw 0.0 0.0 0.0 0.0
gw 0.0 0.0 0.0 0.0
gw 0.0 0.0 0.0 0.0
gw 0.0 0.0 0.0 0.0
gw 0.0 0.0 0.0 0.0
gw 0.0 0.0 0.0 0.0
gw 0.0 0.0 0.0 0.0
gw 0.0 0.0 0.0 0.0
gw 0.0 0.0 0.0 0.0
gw 0.0 0.0 0.0 0.0
gw 0.0 0.0 0.0 0.0
gw 0.0 0.0 0.0 0.0
gw 0.0 0.0 0.0 0.0
gw 0.0 0.0 0.0 0.0
gw 0.0 0.0 0.0 0.0
gw 0.0 0.0 0.0 0.0
gw 0.0 0.0 0.0 0.0
gw 0.0 0.0 0.0 0.0
gw 0.0 0.0 0.0 0.0
gw 0.0 0.0 0.0 0.0
gw 0.0 0.0 0.0 0.0
gw 0.0 0.0 0.0 0.0
gw 0.0 0.0 0.0 0.0
gw 0.0 0.0 0.0 0.0
gw 0.0 0.0 0.0 0.0
gw 0.0 0.0 0.0 0.0
gw 0.0 0.0 0.0 0.0
gw 0.0 0.0 0.0 0.0
gw 0.0 0.0 0.0 0.0
gw 0.0 0.0 0.0 0.0
gw 0.0 0.0 0.0 0.0
gw 0.0 0.0 0.0 0.0
gw 0.0 0.0 0.0 0.0
gw 0.0 0.0 0.0 0.0
gw 0.0 0.0 0.0 0.0
gw 0.0 0.0 0.0 0.0
gw 0.0 0.0 0.0 0.0
gw 0.0 0.0 0.0 0.0
gw 0.0 0.0 0.0 0.0
gw 0.0 0.0 0.0 0.0
gw 0.0 0.0 0.0 0.0
gw 0.0 0.0 0.0 0.0
gw 0.0 0.0 0.0 0.0
gw 0.0 0.0 0.0 0.0
gw 0.0 0.0 0.0 0.0
gw 0.0 0.0 0.0 0.0
gw 0.0 0.0 0.0 0.0
gw 0.0 0.0 0.0 0.0
gw 0.0 0.0 0.0 0.0
gw 0.0 0.0 0.0 0.0
gw 0.0 0.0 0.0 0.0
gw 0.0 0.0 0.0 0.0
gw 0.0 0.0 0.0 0.0
gw 0.0 0.0 0.0 0.0
gw 0.0 0.0 0.0 0.0
gw 0.0 0.0 0.0 0.0
gw 0.0 0.0 0.0 0.0
gw 0.0 0.0 0.0 0.0
gw 0.0 0.0 0.0 0.0
gw 0.0 0.0 0.0 0.0
gw 0.0 0.0 0.0 0.0
gw 0.0 0.0 0.0 0.0
gw 0.0 0.0 0.0 0.0
gw 0.0 0.0 0.0 0.0
gw 0.0 0.0 0.0 0.0
gw 0.0 0.0 0.0 0.0
gw 0.0 0.0 0.0 0.0
gw 0.0 0.0 0.0 0.0
gw 0.0 0.0 0.0 0.0
gw 0.0 0.0 0.0 0.0
gw 0.0 0.0 0.0 0.0
gw 0.0 0.0 0.0 0.0
gw 0.0 0.0 0.0 0.0
gw 0.0 0.0 0.0 0.0
gw 0.0 0.0 0.0 0.0
gw 0.0 0.0 0.0 0.0
gw 0.0 0.0 0.0 0.0
gw 0.0 0.0 0.0 0.0
gw 0.0 0.0 0.0 0.0
gw 0.0 0.0 0.0 0.0
gw 0.0 0.0 0.0 0.0
gw 0.0 0.0 0.0 0.0
gw 0.0 0.0 0.0 0.0
gw 0.0 0.0 0.0 0.0
gw 0.0 0.0 0.0 0.0
gw 0.0 0.0 0.0 0.0
gw 0.0 0.0 0.0 0.0
gw 0.0 0.0 0.0 0.0
gw 0.0 0.0 0.0 0.0
gw 0.0 0.0 0.0 0.0
gw 0.0 0.0 0.0 0.0
gw 0.0 0.0 0.0 0.0
gw 0.0 0.0 0.0 0.0
gw 0.0 0.0 0.0 0.0
gw 0.0 0.0 0.0 0.0
gw 0.0 0.0 0.0 0.0
gw 0.0 0.0 0.0 0.0
gw 0.0 0.0 0.0 0.0
gw 0.0 0.0 0.0 0.0
gw 0.0 0.0 0.0 0.0
gw 0.0 0.0 0.0 0.0
gw 0.0 0.0 0.0 0.0
gw 0.0 0.0 0.0 0.0
gw 0.0 0.0 0.0 0.0
gw 0.0 0.0 0.0 0.0
gw 0.0 0.0 0.0 0.0
gw 0.0 0.0 0.0 0.0
gw 0.0 0.0 0.0 0.0
gw 0.0 0.0 0.0 0.0
gw 0.0 0.0 0.0 0.0
gw 0.0 0.0 0.0 0.0
gw 0.0 0.0 0.0 0.0
gw 0.0 0.0 0.0 0.0
gw 0.0 0.0 0.0 0.0
gw 0.0 0.0 0.0 0.0
gw 0.0 0.0 0.0 0.0
gw 0.0 0.0 0.0 0.0
gw 0.0 0.0 0.0 0.0
gw 0.0 0.0 0.0 0.0
gw 0.0 0.0 0.0 0.0
gw 0.0 0.0 0.0 0.0
gw 0.0 0.0 0.0 0.0
gw 0.0 0.0 0.0 0.0
gw 0.0 0.0 0.0 0.0
gw 0.0 0.0 0.0 0.0
gw 0.0 0.0 0.0 0.0
gw 0.0 0.0 0.0 0.0
gw 0.0 0.0 0.0 0.0
gw 0.0 0.0 0.0 0.0
gw 0.0 0.0 0.0 0.0
gw 0.0 0.0 0.0 0.0
gw 0.0 0.0 0.0 0.0
gw 0.0 0.0 0.0 0.0
gw 0.0 0.0 0.0 0.0
gw 0.0 0.0 0.0 0.0
gw 0.0 0.0 0.0 0.0
gw 0.0 0.0 0.0 0.0
gw 0.0 0.0 0.0 0.0
gw 0.0 0.0 0.0 0.0
gw 0.0 0.0 0.0 0.0
gw 0.0 0.0 0.0 0.0
gw 0.0 0.0 0.0 0.0
gw 0.0 0.0 0.0 0.0
gw 0.0 0.0 0.0 0.0
gw 0.0 0.0 0.0 0.0
gw 0.0 0.0 0.0 0.0
gw 0.0 0.0 0.0 0.0
gw 0.0 0.0 0.0 0.0
gw 0.0 0.0 0.0 0.0
gw 0.0 0.0 0.0 0.0
gw 0.0 0.0 0.0 0.0
gw 0.0 0.0 0.0 0.0
gw 0.0 0.0 0.0 0.0
gw 0.0 0.0 0.0 0.0
gw 0.0 0.0 0.0 0.0
gw 0.0 0.0 0.0 0.0
gw 0.0 0.0 0.0 0.0
gw 0.0 0.0 0.0 0.0
gw 0.0 0.0 0.0 0.0
gw 0.0 0.0 0.0 0.0
gw 0.0 0.0 0.0 0.0
gw 0.0 0.0 0.0 0.0
gw 0.0 0.0 0.0 0.0
gw 0.0 0.0 0.0 0.0
gw 0.0 0.0 0.0 0.0
gw 0.0 0.0 0.0 0.0
gw 0.0 0.0 0.0 0.0
gw 0.0 0.0 0.0 0.0
gw 0.0 0.0 0.0 0.0
gw 0.0 0.0 0.0 0.0
gw 0.0 0.0 0.0 0.0
gw 0.0 0.0 0.0 0.0
gw 0.0 0.0 0.0 0.0
gw 0.0 0.0 0.0 0.0
gw 0.0 0.0 0.0 0.0
gw 0.0 0.0 0.0 0.0
gw 0.0 0.0 0.0 0.0
gw 0.0 0.0 0.0 0.0
gw 0.0 0.0 0.0 0.0
gw 0.0 0.0 0.0 0.0
gw 0.0 0.0 0.0 0.0
gw 0.0 0.0 0.0 0.0
gw 0.0 0.0 0.0 0.0
gw 0.0 0.0 0.0 0.0
gw 0.0 0.0 0.0 0.0
gw 0.0 0.0 0.0 0.0
gw 0.0 0.0 0.0 0.0
gw 0.0 0.0 0.0 0.0
gw 0.0 0.0 0.0 0.0
gw 0.0 0.0 0.0 0.0
gw 0.0 0.0 0.0 0.0
gw 0.0 0.0 0.0 0.0
gw 0.0 0.0 0.0 0.0
gw 0.0 0.0 0.0 0.0
gw 0.0 0.0 0.0 0.0
gw 0.0 0.0 0.0 0.0
gw 0.0 0.0 0.0 0.0
gw 0.0 0.0 0.0 0.0
gw 0.0 0.0 0.0 0.0
gw 0.0 0.0 0.0 0.0
gw 0.0 0.0 0.0 0.0
gw 0.0 0.0 0.0 0.0
gw 0.0 0.0 0.0 0.0
gw 0.0 0.0 0.0 0.0
gw 0.0 0.0 0.0 0.0
gw 0.0 0.0 0.0 0.0
gw 0.0 0.0 0.0 0.0
gw 0.0 0.0 0.0 0.0
gw 0.0 0.0 0.0 0.0
gw 0.0 0.0 0.0 0.0
gw 0.0 0.0 0.0 0.0
gw 0.0 0.0 0.0 0.0
gw 0.0 0.0 0.0 0.0
gw 0.0 0.0 0.0 0.0
gw 0.0 0.0 0.0 0.0
gw 0.0 0.0 0.0 0.0
gw 0.0 0.0 0.0 0.0
gw 0.0 0.0 0.0 0.0
gw 0.0 0.0 0.0 0.0
gw 0.0 0.0 0.0 0.0
gw 0.0 0.0 0.0 0.0
gw 0.0 0.0 0.0 0.0
gw 0.0 0.0 0.0 0.0
gw 0.0 0.0 0.0 0.0
gw 0.0 0.0 0.0 0.0
gw 0.0 0.0 0.0 0.0
gw 0.0 0.0 0.0 0.0
gw 0.0 0.0 0.0 0.0
gw 0.0 0.0 0.0 0.0
gw 0.0 0.0 0.0 0.0
gw 0.0 0.0 0.0 0.0
gw 0.0 0.0 0.0 0.0
gw 0.0 0.0 0.0 0.0
gw 0.0 0.0 0.0 0.0
gw 0.0 0.0 0.0 0.0
gw 0.0 0.0 0.0 0.0
gw 0.0 0.0 0.0 0.0
gw 0.0 0.0 0.0 0.0
gw 0.0 0.0 0.0 0.0
gw 0.0 0.0 0.0 0.0
gw 0.0 0.0 0.0 0.0
gw 0.0 0.0 0.0 0.0
gw 0.0 0.0 0.0 0.0
gw 0.0 0.0 0.0 0.0
gw 0.0 0.0 0.0 0.0
gw 0.0 0.0 0.0 0.0
gw 0.0 0.0 0.0 0.0
gw 0.0 0.0 0.0 0.0
gw 0.0 0.0 0.0 0.0
gw 0.0 0.0 0.0 0.0
gw 0.0 0.0 0.0 0.0
gw 0.0 0.0 0.0 0.0
gw 0.0 0.0 0.0 0.0
gw 0.0 0.0 0.0 0.0
gw 0.0 0.0 0.0 0.0
gw 0.0 0.0 0.0 0.0
gw 0.0 0.0 0.0 0.0
gw 0.0 0.0 0.0 0.0
gw 0.0 0.0 0.0 0.0
gw 0.0 0.0 0.0 0.0
gw 0.0 0.0 0.0 0.0
gw 0.0 0.0 0.0 0.0
gw 0.0 0.0 0.0 0.0
gw 0.0 0.0 0.0 0.0
gw 0.0 0.0 0.0 0.0
gw 0.0 0.0 0.0 0.0
gw 0.0 0.0 0.0 0.0
gw 0.0 0.0 0.0 0.0
vt 0.9965 0.1543
vt 0.9345 0.1543
vt 0.9345 0.0638
vt 0.9965 0.0638
vt 0.9345 0.0304
vt 0.9768 0.0304
vt 0.9965 0.0321
vt 0.0654 0.1543
vt 0.0654 0.1878
vt 0.0033 0.1878
vt 0.0033 0.1543
vt 0.0033 0.0047
vt 0.0654 0.0047
vt 0.0654 0.0304
vt 0.0033 0.0304
vt 0.0654 0.1905
vt 0.0033 0.1905
vt 0.0654 0.2067
vt 0.0033 0.2067
vt 0.4379 0.1543
vt 0.4379 0.0638
vt 0.4999 0.0638
vt 0.4999 0.1543
vt 0.4379 0.0304
vt 0.4999 0.0304
vt 0.562 0.1543
vt 0.562 0.1878
vt 0.4999 0.1878
vt 0.562 0.0047
vt 0.562 0.0304
vt 0.4999 0.0047
vt 0.4379 0.2169
vt 0.4379 0.2067
vt 0.4999 0.2067
vt 0.4999 0.2169
vt 0.4379 0.3263
vt 0.4999 0.3263
vt 0.562 0.1905
vt 0.4999 0.1905
vt 0.562 0.2067
vt 0.3137 0.1543
vt 0.3137 0.1878
vt 0.2516 0.1878
vt 0.2516 0.1543
vt 0.3137 0.0047
vt 0.3137 0.0304
vt 0.2516 0.0304
vt 0.2516 0.0047
vt 0.3137 0.1905
vt 0.2516 0.1905
vt 0.3137 0.2067
vt 0.2516 0.2067
vt 0.1896 0.1543
vt 0.1896 0.0638
vt 0.2516 0.0638
vt 0.1896 0.0304
vt 0.1896 0.2169
vt 0.1896 0.2067
vt 0.2516 0.2169
vt 0.1896 0.3263
vt 0.2516 0.3263
vt 0.6862 0.1543
vt 0.6862 0.0638
vt 0.7482 0.0638
vt 0.7482 0.1543
vt 0.6862 0.0304
vt 0.7482 0.0304
vt 0.6862 0.2169
vt 0.6862 0.2067
vt 0.7482 0.2067
vt 0.7482 0.2169
vt 0.6862 0.3263
vt 0.7482 0.3263
vt 0.8103 0.1543
vt 0.8103 0.1878
vt 0.7482 0.1878
vt 0.8103 0.0047
vt 0.8103 0.0304
vt 0.7482 0.0047
vt 0.8103 0.1905
vt 0.7482 0.1905
vt 0.8103 0.2067
vt 0.8103 0.0638
vt 0.8724 0.0638
vt 0.8724 0.1543
vt 0.8724 0.0304
vt 0.1896 0.1878
vt 0.1275 0.1878
vt 0.1275 0.1543
vt 0.1896 0.0047
vt 0.1275 0.0304
vt 0.1275 0.0047
vt 0.1896 0.1905
vt 0.1275 0.1905
vt 0.1275 0.2067
vt 0.3137 0.0638
vt 0.3758 0.0638
vt 0.3758 0.1543
vt 0.3758 0.0304
vt 0.6862 0.1878
vt 0.6241 0.1878
vt 0.6241 0.1543
vt 0.6862 0.0047
vt 0.6241 0.0304
vt 0.6241 0.0047
vt 0.3137 0.2169
vt 0.3758 0.2067
vt 0.3758 0.2169
vt 0.3137 0.3263
vt 0.3758 0.3263
vt 0.6862 0.1905
vt 0.6241 0.1905
vt 0.6241 0.2067
vt 0.4379 0.1878
vt 0.3758 0.1878
vt 0.4379 0.0047
vt 0.3758 0.0047
vt 0.4379 0.1905
vt 0.3758 0.1905
vt 0.0654 0.0638
vt 0.1275 0.0638
vt 0.0654 0.2169
vt 0.1275 0.2169
vt 0.0654 0.3263
vt 0.1275 0.3263
vt 0.562 0.0638
vt 0.6241 0.0638
vt 0.562 0.2169
vt 0.6241 0.2169
vt 0.562 0.3263
vt 0.6241 0.3263
vt 0.9345 0.1878
vt 0.8724 0.1878
vt 0.9345 0.1905
vt 0.8724 0.1905
vt 0.9345 0.1945
vt 0.8938 0.2067
vt 0.8724 0.2067
vt 0.8652 0.0047
vt 0.8724 0.0083
vt 0.8103 0.2169
vt 0.8103 0.3263
vt 0.0033 0.0638
vt 0.0033 0.2169
vt 0.0033 0.3263
vt 0.9965 0.186
vt 0.9768 0.1878
vt 0.9768 0.1905
vt 0.9364 0.0638
vt 0.9364 0.1543
vt 0.9427 0.0332
vt 0.0566 0.1878
vt 0.0635 0.1543
vt 0.0566 0.0304
vt 0.0522 0.0047
vt 0.0566 0.1905
vt 0.0539 0.2067
vt 0.0635 0.0638
vt 0.0522 0.2169
vt 0.0522 0.3263
vt 0.8724 0.2132
vt 0.8652 0.2169
vt 0.8652 0.3263
vt 0.9345 0.0265
vt 0.9427 0.185
vn -0.7143 -0.0467 -0.6983
vn -0.7298 -0.1334 -0.6705
vn 0.7298 -0.1334 -0.6705
vn 0.7142 -0.0467 -0.6983
vn 1.0 0.0 0.0
vn 1.0 -0.0 0.0
vn 1.0 -0.0 0.0
vn -0.7298 -0.1334 0.6705
vn -0.6857 -0.142 0.7139
vn -0.6941 -0.0281 0.7194
vn -0.7195 -0.0307 0.6939
vn 0.6934 0.0259 -0.7201
vn 0.6857 0.142 -0.7139
vn 1.0 0.0 0.0
vn 1.0 0.0 0.0
vn -0.3802 -0.1804 0.9071
vn -0.3758 -0.0362 0.926
vn -0.9282 -0.0726 0.3651
vn -0.9246 -0.014 0.3807
vn -0.7298 -0.6705 0.1334
vn 0.7298 -0.6705 0.1334
vn 0.7298 -0.6836 0.0
vn -0.7298 -0.6836 -0.0
vn 1.0 0.0 0.0
vn 1.0 0.0 0.0
vn -0.7298 -0.6705 -0.1334
vn -0.6857 -0.7139 -0.142
vn -0.6857 -0.7279 -0.0
vn 0.6857 0.7139 0.142
vn 1.0 0.0 0.0
vn 0.6857 0.7279 0.0
vn -0.6857 0.7139 -0.142
vn -0.9281 -0.3651 0.0726
vn -0.9281 -0.3722 0.0
vn -0.6857 0.7279 -0.0
vn 0.6857 0.7139 -0.142
vn -0.3802 -0.9071 -0.1804
vn -0.3802 -0.9249 -0.0
vn -0.9281 -0.3651 -0.0726
vn -0.7298 -0.5684 0.3798
vn -0.6857 -0.6052 0.4044
vn -0.6857 -0.5147 0.5147
vn -0.7298 -0.4834 0.4834
vn 0.6857 0.6052 -0.4044
vn 1.0 -0.0 0.0
vn 1.0 -0.0 0.0
vn 0.6857 0.5147 -0.5147
vn -0.3802 -0.769 0.5139
vn -0.3802 -0.654 0.654
vn -0.9281 -0.3095 0.2068
vn -0.9281 -0.2632 0.2632
vn -0.7298 -0.3798 0.5684
vn 0.7298 -0.3798 0.5684
vn 0.7298 -0.4834 0.4834
vn 1.0 -0.0 0.0
vn -0.6857 0.4044 -0.6052
vn -0.9281 -0.2068 0.3095
vn -0.6857 0.5147 -0.5147
vn 0.6857 0.4044 -0.6052
vn -0.7298 -0.5684 -0.3798
vn 0.7298 -0.5684 -0.3798
vn 0.7298 -0.4834 -0.4834
vn -0.7298 -0.4834 -0.4834
vn 1.0 -0.0 0.0
vn 1.0 -0.0 0.0
vn -0.6857 0.6052 0.4044
vn -0.9281 -0.3095 -0.2068
vn -0.9281 -0.2632 -0.2632
vn -0.6857 0.5147 0.5147
vn 0.6857 0.6052 0.4044
vn 0.6857 0.5147 0.5147
vn -0.7298 -0.3798 -0.5684
vn -0.6857 -0.4044 -0.6052
vn -0.6857 -0.5147 -0.5147
vn 0.6857 0.4044 0.6052
vn 1.0 -0.0 0.0
vn -0.3802 -0.5139 -0.769
vn -0.3802 -0.654 -0.654
vn -0.9281 -0.2068 -0.3095
vn 0.7298 -0.3798 -0.5684
vn 0.7298 -0.2616 -0.6316
vn -0.7298 -0.2616 -0.6316
vn 1.0 -0.0 0.0
vn -0.6857 -0.4044 0.6052
vn -0.6857 -0.2785 0.6725
vn -0.7298 -0.2616 0.6316
vn 1.0 0.0 0.0
vn 0.6857 0.2785 -0.6725
vn -0.3802 -0.5139 0.769
vn -0.3802 -0.3539 0.8545
vn -0.9281 -0.1424 0.3439
vn 0.7298 -0.5684 0.3798
vn 0.7298 -0.6316 0.2616
vn -0.7298 -0.6316 0.2616
vn 1.0 -0.0 0.0
vn -0.6857 -0.6052 -0.4044
vn -0.6857 -0.6725 -0.2785
vn -0.7298 -0.6316 -0.2616
vn 1.0 0.0 0.0
vn 0.6857 0.6725 0.2786
vn -0.6857 0.6052 -0.4044
vn -0.9281 -0.3439 0.1424
vn -0.6857 0.6725 -0.2785
vn 0.6857 0.6725 -0.2785
vn -0.3802 -0.769 -0.5139
vn -0.3802 -0.8545 -0.3539
vn -0.9281 -0.3439 -0.1424
vn -0.6857 -0.7139 0.142
vn -0.6857 -0.6725 0.2786
vn -0.3802 -0.9071 0.1804
vn -0.3802 -0.8545 0.354
vn 0.7298 -0.1334 0.6705
vn 0.7298 -0.2616 0.6316
vn -0.6857 0.142 -0.7139
vn -0.6857 0.2785 -0.6725
vn 0.7298 -0.6705 -0.1334
vn 0.7298 -0.6316 -0.2616
vn -0.6857 0.7139 0.142
vn -0.6857 0.6725 0.2786
vn -0.6857 -0.142 -0.7139
vn -0.6857 -0.2785 -0.6725
vn -0.3802 -0.1804 -0.9071
vn -0.3802 -0.3539 -0.8545
vn -0.9763 -0.2163 -0.0
vn -0.9668 -0.2554 0.0
vn -0.9281 -0.1424 -0.3439
vn 0.9631 0.2691 0.0
vn 1.0 0.0 0.0
vn -0.6857 0.4044 0.6052
vn 0.7195 -0.0307 0.6939
vn -0.6934 0.0259 -0.7201
vn -1.0 -0.0 0.0
vn -0.9987 -0.0505 0.0
vn -0.5121 -0.8589 -0.0
vn 0.7149 -0.0247 -0.6988
vn -0.7149 -0.0247 -0.6988
vn -0.7116 0.0141 0.7025
vn -0.7049 0.0069 0.7093
vn 1.0 -0.0 0.0
vn 0.713 -0.0185 -0.7009
vn -0.3685 0.0192 0.9294
vn -0.9164 0.0087 0.4001
vn 0.7049 0.0069 0.7093
vn -0.713 -0.0185 -0.701
vn -1.0 0.0 0.0
vn -0.9631 0.269 0.0
vn -1.0 0.0 0.0
vn 0.7298 -0.1334 0.6705
vn -0.7298 -0.1334 0.6705
vn -0.7143 -0.0467 0.6983
vn 0.7142 -0.0467 0.6983
vn -0.6941 -0.0281 -0.7194
vn -0.6857 -0.142 -0.7139
vn -0.7298 -0.1334 -0.6705
vn -0.7195 -0.0307 -0.6939
vn 1.0 -0.0 0.0
vn 0.6857 0.142 0.7139
vn 0.6934 0.0259 0.7201
vn 1.0 -0.0 0.0
vn -0.3763 -0.036 -0.9258
vn -0.3802 -0.1804 -0.9071
vn -0.9282 -0.0726 -0.3651
vn -0.9248 -0.0137 -0.3802
vn 0.7298 -0.6836 -0.0
vn 0.7298 -0.6705 -0.1334
vn -0.7298 -0.6705 -0.1334
vn -0.7298 -0.6836 0.0
vn 1.0 0.0 0.0
vn 1.0 0.0 0.0
vn -0.6857 -0.7279 0.0
vn -0.6857 -0.7139 0.142
vn -0.7298 -0.6705 0.1334
vn 1.0 -0.0 0.0
vn 0.6857 0.7139 -0.142
vn 0.6857 0.7279 -0.0
vn -0.9281 -0.3722 -0.0
vn -0.9281 -0.3651 -0.0726
vn -0.6857 0.7139 0.142
vn -0.6857 0.7279 0.0
vn 0.6857 0.7139 0.142
vn -0.3802 -0.9249 0.0
vn -0.3802 -0.9071 0.1804
vn -0.9281 -0.3651 0.0726
vn -0.6857 -0.5147 -0.5147
vn -0.6857 -0.6052 -0.4044
vn -0.7298 -0.5684 -0.3798
vn -0.7298 -0.4834 -0.4834
vn 1.0 0.0 0.0
vn 1.0 0.0 0.0
vn 0.6857 0.6052 0.4044
vn 0.6857 0.5147 0.5147
vn -0.3802 -0.654 -0.654
vn -0.3802 -0.769 -0.5138
vn -0.9281 -0.2632 -0.2632
vn -0.9281 -0.3095 -0.2068
vn 0.7298 -0.4834 -0.4834
vn 0.7298 -0.3798 -0.5684
vn -0.7298 -0.3798 -0.5684
vn 1.0 -0.0 0.0
vn -0.9281 -0.2068 -0.3095
vn -0.6857 0.4044 0.6052
vn -0.6857 0.5147 0.5147
vn 0.6857 0.4044 0.6052
vn 0.7298 -0.4834 0.4834
vn 0.7298 -0.5684 0.3798
vn -0.7298 -0.5684 0.3798
vn -0.7298 -0.4834 0.4834
vn 1.0 0.0 0.0
vn 1.0 -0.0 0.0
vn -0.9281 -0.2632 0.2632
vn -0.9281 -0.3095 0.2068
vn -0.6857 0.6052 -0.4044
vn -0.6857 0.5147 -0.5147
vn 0.6857 0.6052 -0.4044
vn 0.6857 0.5147 -0.5147
vn -0.6857 -0.5147 0.5147
vn -0.6857 -0.4044 0.6052
vn -0.7298 -0.3798 0.5684
vn 1.0 0.0 0.0
vn 0.6857 0.4044 -0.6052
vn -0.3802 -0.654 0.654
vn -0.3802 -0.5139 0.769
vn -0.9281 -0.2068 0.3095
vn 0.7298 -0.2616 0.6316
vn 0.7298 -0.3798 0.5684
vn -0.7298 -0.2616 0.6316
vn -0.6857 -0.2785 -0.6725
vn -0.6857 -0.4044 -0.6052
vn -0.7298 -0.2616 -0.6316
vn 1.0 0.0 0.0
vn 0.6857 0.2786 0.6725
vn -0.3802 -0.3539 -0.8545
vn -0.3802 -0.5139 -0.769
vn -0.9281 -0.1424 -0.3439
vn 0.7298 -0.6316 -0.2616
vn 0.7298 -0.5684 -0.3798
vn -0.7298 -0.6316 -0.2616
vn 1.0 -0.0 0.0
vn -0.6857 -0.6725 0.2785
vn -0.6857 -0.6052 0.4044
vn -0.7298 -0.6316 0.2616
vn 1.0 0.0 0.0
vn 0.6857 0.6725 -0.2786
vn -0.9281 -0.3439 -0.1424
vn -0.6857 0.6052 0.4044
vn -0.6857 0.6725 0.2785
vn 0.6857 0.6725 0.2785
vn -0.3802 -0.8545 0.3539
vn -0.3802 -0.769 0.5139
vn -0.9281 -0.3439 0.1424
vn -0.6857 -0.6725 -0.2786
vn -0.6857 -0.7139 -0.142
vn -0.3802 -0.8545 -0.354
vn -0.3802 -0.9071 -0.1804
vn 0.7298 -0.2616 -0.6316
vn 0.7298 -0.1334 -0.6705
vn -0.6857 0.142 0.7139
vn -0.6857 0.2786 0.6725
vn 0.7298 -0.6316 0.2616
vn 0.7298 -0.6705 0.1334
vn -0.6857 0.7139 -0.142
vn -0.6857 0.6725 -0.2786
vn -0.6857 -0.2785 0.6725
vn -0.6857 -0.142 0.7139
vn -0.3802 -0.3539 0.8545
vn -0.3802 -0.1804 0.9071
vn -0.9281 -0.1424 0.3439
vn -0.6857 0.4044 -0.6052
vn 0.7195 -0.0307 -0.6939
vn -0.6934 0.0259 0.7201
vn -0.7149 -0.0247 0.6988
vn 0.7149 -0.0247 0.6988
vn -0.7049 0.0069 -0.7093
vn -0.7116 0.0141 -0.7025
vn 0.713 -0.0185 0.7009
vn 1.0 -0.0 0.0
vn -0.3688 0.0194 -0.9293
vn -0.9164 0.0087 -0.4001
vn 0.7049 0.0069 -0.7093
vn -0.713 -0.0185 0.701
vtan -0.0159 -0.9964 0.0828
vtan 0.0 -0.9808 0.1951
vtan -0.0001 -0.9808 0.195
vtan 0.0157 -0.9965 0.0827
vtan 0.0 -0.9808 0.1951
vtan -0.0 -0.9954 0.0955
vtan -0.0 -0.9953 0.0966
vtan 0.0 0.9808 0.1951
vtan 0.0 0.9808 0.1951
vtan 0.0295 0.9973 0.0675
vtan 0.027 0.997 0.0721
vtan 0.0311 0.9973 0.0658
vtan 0.0 0.9808 0.1951
vtan -0.0 0.9808 0.1951
vtan -0.0 0.9952 0.098
vtan -0.0 0.9808 0.1951
vtan 0.0206 0.9987 0.0474
vtan 0.0 0.9808 0.1951
vtan 0.0216 0.9958 0.0891
vtan 0.0 0.1951 0.9808
vtan -0.0 0.1951 0.9808
vtan -0.0 0.0 1.0
vtan 0.0 -0.0 1.0
vtan -0.0 0.1951 0.9808
vtan 0.0 -0.0 1.0
vtan -0.0 -0.1951 0.9808
vtan -0.0 -0.1951 0.9808
vtan -0.0 -0.0 1.0
vtan 0.0 -0.1951 0.9808
vtan 0.0 -0.1951 0.9808
vtan 0.0 -0.0 1.0
vtan 0.0 0.1951 0.9808
vtan 0.0 0.1951 0.9808
vtan 0.0 0.0 1.0
vtan 0.0 0.0 1.0
vtan 0.0 0.1951 0.9808
vtan 0.0 -0.0 1.0
vtan -0.0 -0.1951 0.9808
vtan 0.0 -0.0 1.0
vtan 0.0 -0.1951 0.9808
vtan 0.0 0.5556 0.8315
vtan 0.0 0.5556 0.8315
vtan -0.0 0.7071 0.7071
vtan -0.0 0.7071 0.7071
vtan 0.0 0.5556 0.8315
vtan 0.0 0.5556 0.8315
vtan 0.0 0.7071 0.7071
vtan 0.0 0.7071 0.7071
vtan -0.0 0.5556 0.8315
vtan -0.0 0.7071 0.7071
vtan -0.0 0.5556 0.8315
vtan -0.0 0.7071 0.7071
vtan -0.0 0.8315 0.5556
vtan 0.0 0.8315 0.5556
vtan 0.0 0.7071 0.7071
vtan 0.0 0.8315 0.5556
vtan 0.0 0.8315 0.5556
vtan -0.0 0.8315 0.5556
vtan -0.0 0.7071 0.7071
vtan 0.0 0.8315 0.5556
vtan 0.0 0.7071 0.7071
vtan 0.0 -0.5556 0.8315
vtan -0.0 -0.5556 0.8315
vtan 0.0 -0.7071 0.7071
vtan 0.0 -0.7071 0.7071
vtan -0.0 -0.5556 0.8315
vtan -0.0 -0.7071 0.7071
vtan -0.0 -0.5556 0.8315
vtan 0.0 -0.5556 0.8315
vtan 0.0 -0.7071 0.7071
vtan 0.0 -0.7071 0.7071
vtan -0.0 -0.5556 0.8315
vtan -0.0 -0.7071 0.7071
vtan 0.0 -0.8315 0.5556
vtan 0.0 -0.8315 0.5556
vtan -0.0 -0.7071 0.7071
vtan 0.0 -0.8315 0.5556
vtan -0.0 -0.8315 0.5556
vtan 0.0 -0.7071 0.7071
vtan 0.0 -0.8315 0.5556
vtan -0.0 -0.7071 0.7071
vtan -0.0 -0.8314 0.5557
vtan -0.0 -0.8315 0.5556
vtan 0.0 -0.9239 0.3827
vtan 0.0 -0.9239 0.3827
vtan -0.0 -0.924 0.3823
vtan -0.0 0.8315 0.5556
vtan 0.0 0.9239 0.3827
vtan -0.0 0.9239 0.3827
vtan 0.0 0.8315 0.5556
vtan -0.0 0.9239 0.3827
vtan 0.0 0.9239 0.3827
vtan -0.0 0.8315 0.5556
vtan 0.0 0.9239 0.3827
vtan -0.0 0.9239 0.3827
vtan 0.0 0.5556 0.8315
vtan 0.0 0.3827 0.9239
vtan 0.0 0.3827 0.9239
vtan 0.0 0.3827 0.9239
vtan -0.0 -0.5556 0.8315
vtan 0.0 -0.3827 0.9239
vtan 0.0 -0.3827 0.9239
vtan -0.0 -0.5556 0.8315
vtan 0.0 -0.3827 0.9239
vtan 0.0 -0.3827 0.9239
vtan 0.0 0.5556 0.8315
vtan 0.0 0.3827 0.9239
vtan 0.0 0.3827 0.9239
vtan 0.0 0.5556 0.8315
vtan 0.0 0.3827 0.9239
vtan -0.0 -0.5556 0.8315
vtan 0.0 -0.3827 0.9239
vtan -0.0 -0.3827 0.9239
vtan -0.0 0.1951 0.9808
vtan 0.0 0.3827 0.9239
vtan 0.0 0.1951 0.9808
vtan 0.0 0.3827 0.9239
vtan -0.0 0.1951 0.9808
vtan 0.0 0.3827 0.9239
vtan 0.0 0.9808 0.1951
vtan -0.0 0.9239 0.3827
vtan 0.0 0.9808 0.1951
vtan 0.0 0.9239 0.3827
vtan 0.0 0.9808 0.1951
vtan 0.0 0.9239 0.3827
vtan 0.0 -0.1951 0.9808
vtan -0.0 -0.3827 0.9239
vtan 0.0 -0.1951 0.9808
vtan 0.0 -0.3827 0.9239
vtan -0.0 -0.1951 0.9808
vtan -0.0 -0.3827 0.9239
vtan -0.0 -0.9808 0.1951
vtan -0.0 -0.9239 0.3827
vtan -0.0012 -0.9807 0.1956
vtan -0.0 -0.9239 0.3827
vtan 0.2106 -0.9505 0.2284
vtan 0.2437 -0.9225 0.2995
vtan -0.0 -0.9239 0.3827
vtan 0.2357 -0.8437 0.4823
vtan 0.0 -0.9166 0.3998
vtan 0.0001 -0.8314 0.5556
vtan 0.0 -0.8315 0.5556
vtan -0.027 0.997 0.0721
vtan -0.0311 0.9973 0.0658
vtan 0.0311 0.9973 0.0658
vtan 0.0 -0.995 0.0995
vtan 0.0503 -0.9939 0.0986
vtan 0.8435 -0.5029 0.1889
vtan -0.0157 0.9986 -0.0507
vtan 0.0157 0.9986 -0.0507
vtan 0.0024 0.9995 -0.0328
vtan -0.0028 0.9995 -0.0324
vtan 0.0 0.9995 -0.0307
vtan 0.0 0.9998 -0.0222
vtan 0.0288 -0.9995 -0.0143
vtan 0.0295 -0.9995 -0.0106
vtan -0.0018 -0.9998 0.0182
vtan 0.0 -1.0 0.0098
vtan 0.0 -0.9998 0.0222
vtan -0.0 -0.9999 0.0168
vtan -0.0025 -0.9997 0.0239
vtan 0.0311 -0.9995 -0.0059
vtan 0.0211 -0.9993 -0.0305
vtan -0.0002 -0.9998 0.0206
vtan 0.0003 -0.9998 0.0224
vtan 0.0218 -0.9996 0.0161
vtan -0.0288 -0.9995 -0.0143
vtan -0.0 -1.0 0.0098
vtan -0.0311 -0.9995 -0.0059
vtan 0.0005 -0.9997 0.0258
vtan 0.0311 -0.9995 -0.0059
vtan 0.0 -0.9997 0.0264
vtan -0.0 -0.9142 0.4053
vtan -0.2352 -0.8421 0.4853
vtan 0.2353 -0.8421 0.4853
vtan 0.0 -0.9783 0.2071
vtan -0.0 0.9996 -0.0299
vtan 0.0 0.9998 -0.0201
vtan -0.0001 -0.9808 -0.195
vtan 0.0 -0.9808 -0.1951
vtan -0.0159 -0.9964 -0.0828
vtan 0.0157 -0.9965 -0.0827
vtan -0.0 -0.9954 -0.0955
vtan 0.0 -0.9808 -0.1951
vtan -0.0 -0.9953 -0.0966
vtan 0.0295 0.9973 -0.0675
vtan -0.0 0.9808 -0.1951
vtan 0.0 0.9808 -0.1951
vtan 0.027 0.997 -0.0721
vtan 0.0 0.9808 -0.1951
vtan -0.0 0.9808 -0.1951
vtan 0.0311 0.9973 -0.0658
vtan 0.0 0.9952 -0.098
vtan 0.0207 0.9987 -0.0473
vtan -0.0 0.9808 -0.1951
vtan 0.0 0.9808 -0.1951
vtan 0.0218 0.9958 -0.0891
vtan -0.0 0.0 -1.0
vtan -0.0 0.1951 -0.9808
vtan -0.0 0.1951 -0.9808
vtan 0.0 -0.0 -1.0
vtan -0.0 0.0 -1.0
vtan -0.0 0.1951 -0.9808
vtan -0.0 -0.0 -1.0
vtan 0.0 -0.1951 -0.9808
vtan -0.0 -0.1951 -0.9808
vtan -0.0 -0.1951 -0.9808
vtan 0.0 -0.1951 -0.9808
vtan 0.0 -0.0 -1.0
vtan 0.0 0.0 -1.0
vtan 0.0 0.1951 -0.9808
vtan 0.0 0.1951 -0.9808
vtan 0.0 0.0 -1.0
vtan 0.0 0.1951 -0.9808
vtan 0.0 -0.0 -1.0
vtan -0.0 -0.0 -1.0
vtan 0.0 -0.1951 -0.9808
vtan 0.0 -0.1951 -0.9808
vtan 0.0 0.7071 -0.7071
vtan -0.0 0.5556 -0.8315
vtan 0.0 0.5556 -0.8315
vtan 0.0 0.7071 -0.7071
vtan -0.0 0.7071 -0.7071
vtan -0.0 0.5556 -0.8315
vtan 0.0 0.5556 -0.8315
vtan 0.0 0.7071 -0.7071
vtan 0.0 0.7071 -0.7071
vtan -0.0 0.5556 -0.8315
vtan 0.0 0.7071 -0.7071
vtan -0.0 0.5556 -0.8315
vtan -0.0 0.7071 -0.7071
vtan -0.0 0.8315 -0.5556
vtan -0.0 0.8315 -0.5556
vtan 0.0 0.8315 -0.5556
vtan 0.0 0.8315 -0.5556
vtan 0.0 0.8315 -0.5556
vtan 0.0 0.7071 -0.7071
vtan 0.0 0.8315 -0.5556
vtan 0.0 0.7071 -0.7071
vtan 0.0 -0.7071 -0.7071
vtan -0.0 -0.5556 -0.8315
vtan 0.0 -0.5556 -0.8315
vtan 0.0 -0.7071 -0.7071
vtan 0.0 -0.7071 -0.7071
vtan -0.0 -0.5556 -0.8315
vtan -0.0 -0.7071 -0.7071
vtan 0.0 -0.5556 -0.8315
vtan 0.0 -0.5556 -0.8315
vtan -0.0 -0.7071 -0.7071
vtan -0.0 -0.5556 -0.8315
vtan 0.0 -0.7071 -0.7071
vtan 0.0 -0.7071 -0.7071
vtan 0.0 -0.8315 -0.5556
vtan 0.0 -0.8315 -0.5556
vtan 0.0 -0.8315 -0.5556
vtan 0.0 -0.8315 -0.5556
vtan 0.0 -0.7071 -0.7071
vtan 0.0 -0.7071 -0.7071
vtan 0.0 -0.8315 -0.5556
vtan -0.0 -0.8314 -0.5557
vtan 0.0 -0.9239 -0.3827
vtan 0.0 -0.8315 -0.5556
vtan 0.0 -0.9239 -0.3827
vtan 0.0 -0.924 -0.3823
vtan 0.0 0.9239 -0.3827
vtan -0.0 0.8315 -0.5556
vtan 0.0 0.9239 -0.3827
vtan -0.0 0.9239 -0.3827
vtan 0.0 0.8315 -0.5556
vtan 0.0 0.9239 -0.3827
vtan 0.0 0.9239 -0.3827
vtan -0.0 0.8315 -0.5556
vtan 0.0 0.9239 -0.3827
vtan 0.0 0.3827 -0.9239
vtan 0.0 0.5556 -0.8315
vtan -0.0 0.3827 -0.9239
vtan 0.0 0.3827 -0.9239
vtan 0.0 -0.3827 -0.9239
vtan -0.0 -0.5556 -0.8315
vtan -0.0 -0.3827 -0.9239
vtan 0.0 -0.3827 -0.9239
vtan 0.0 -0.5556 -0.8315
vtan 0.0 -0.3827 -0.9239
vtan -0.0 0.3827 -0.9239
vtan 0.0 0.5556 -0.8315
vtan -0.0 0.3827 -0.9239
vtan 0.0 0.5556 -0.8315
vtan 0.0 0.3827 -0.9239
vtan 0.0 -0.3827 -0.9239
vtan -0.0 -0.5556 -0.8315
vtan -0.0 -0.3827 -0.9239
vtan 0.0 0.3827 -0.9239
vtan -0.0 0.1951 -0.9808
vtan 0.0 0.1951 -0.9808
vtan 0.0 0.3827 -0.9239
vtan 0.0 0.3827 -0.9239
vtan 0.0 0.1951 -0.9808
vtan -0.0 0.9239 -0.3827
vtan 0.0 0.9808 -0.1951
vtan 0.0 0.9808 -0.1951
vtan 0.0 0.9239 -0.3827
vtan 0.0 0.9808 -0.1951
vtan 0.0 0.9239 -0.3827
vtan 0.0 -0.3827 -0.9239
vtan 0.0 -0.1951 -0.9808
vtan 0.0 -0.1951 -0.9808
vtan 0.0 -0.3827 -0.9239
vtan -0.0 -0.1951 -0.9808
vtan 0.0 -0.3827 -0.9239
vtan -0.0 -0.9239 -0.3827
vtan 0.0 -0.9808 -0.1951
vtan -0.0 -0.9239 -0.3827
vtan -0.0012 -0.9807 -0.1956
vtan 0.2437 -0.9225 -0.2995
vtan 0.2106 -0.9505 -0.2284
vtan -0.0 -0.9239 -0.3827
vtan 0.0 -0.9166 -0.3998
vtan 0.2357 -0.8437 -0.4823
vtan 0.0001 -0.8314 -0.5556
vtan 0.0 -0.8315 -0.5556
vtan -0.027 0.997 -0.0721
vtan -0.0311 0.9973 -0.0658
vtan 0.0311 0.9973 -0.0658
vtan 0.0503 -0.9939 -0.0986
vtan 0.0 -0.995 -0.0995
vtan 0.8435 -0.5029 -0.1889
vtan -0.0157 0.9986 0.0507
vtan -0.0028 0.9995 0.0324
vtan 0.0024 0.9995 0.0328
vtan 0.0157 0.9986 0.0507
vtan 0.0 0.9998 0.0222
vtan 0.0 0.9995 0.0307
vtan 0.0288 -0.9995 0.0143
vtan 0.0 -1.0 -0.0098
vtan -0.0018 -0.9998 -0.0181
vtan 0.0295 -0.9995 0.0106
vtan -0.0 -0.9998 -0.0222
vtan 0.0311 -0.9995 0.0059
vtan -0.0025 -0.9997 -0.0239
vtan -0.0 -0.9999 -0.0168
vtan -0.0003 -0.9998 -0.0207
vtan 0.0211 -0.9993 0.0303
vtan 0.0003 -0.9998 -0.0223
vtan 0.0215 -0.9996 -0.0162
vtan -0.0288 -0.9995 0.0143
vtan 0.0 -1.0 -0.0098
vtan 0.0005 -0.9997 -0.0258
vtan -0.0311 -0.9995 0.0059
vtan -0.0 -0.9997 -0.0264
vtan 0.0311 -0.9995 0.0059
vtan -0.0 -0.9142 -0.4053
vtan -0.2352 -0.8421 -0.4853
vtan 0.2353 -0.8421 -0.4853
vtan 0.0 -0.9783 -0.2071
vtan -0.0 0.9996 0.0299
vtan 0.0 0.9998 0.0201
f 0/0/0/0 1/1/1/1 2/2/2/2 
f 0/0/0/0 2/2/2/2 3/3/3/3 
f 2/2/2/2 4/4/4/4 5/5/5/5 
f 2/2/2/2 5/5/5/5 6/6/6/6 
f 3/3/3/3 2/2/2/2 6/6/6/6 
f 7/7/7/7 8/8/8/8 9/9/9/9 
f 7/7/7/7 9/9/9/9 10/10/10/10 
f 11/11/11/11 12/12/12/12 13/13/13/13 
f 11/11/11/11 13/13/13/13 14/14/14/14 
f 8/8/8/8 15/15/15/15 16/16/16/16 
f 8/8/8/8 16/16/16/16 9/9/9/9 
f 16/16/16/16 15/15/15/15 17/17/17/17 
f 16/16/16/16 17/17/17/17 18/18/18/18 
f 19/19/19/19 20/20/20/20 21/21/21/21 
f 19/19/19/19 21/21/21/21 22/22/22/22 
f 20/20/20/20 23/23/23/23 24/24/24/24 
f 20/20/20/20 24/24/24/24 21/21/21/21 
f 25/25/25/25 26/26/26/26 27/27/27/27 
f 25/25/25/25 27/27/27/27 22/22/22/22 
f 28/28/28/28 29/29/29/29 24/24/24/24 
f 28/28/28/28 24/24/24/24 30/30/30/30 
f 31/31/31/31 32/32/32/32 33/33/33/33 
f 31/31/31/31 33/33/33/33 34/34/34/34 
f 35/35/35/35 31/31/31/31 34/34/34/34 
f 35/35/35/35 34/34/34/34 30/36/30/36 
f 26/26/26/26 36/37/36/37 37/38/37/38 
f 26/26/26/26 37/38/37/38 27/27/27/27 
f 36/37/36/37 38/39/38/39 33/33/33/33 
f 36/37/36/37 33/33/33/33 37/38/37/38 
f 39/40/39/40 40/41/40/41 41/42/41/42 
f 39/40/39/40 41/42/41/42 42/43/42/43 
f 43/44/43/44 44/45/44/45 45/46/45/46 
f 43/44/43/44 45/46/45/46 46/47/46/47 
f 40/41/40/41 47/48/47/48 48/49/48/49 
f 40/41/40/41 48/49/48/49 41/42/41/42 
f 47/48/47/48 49/50/49/50 50/51/50/51 
f 47/48/47/48 50/51/50/51 48/49/48/49 
f 51/52/51/52 52/53/52/53 53/54/53/54 
f 51/52/51/52 53/54/53/54 42/43/42/43 
f 52/53/52/53 54/55/54/55 45/46/45/46 
f 52/53/52/53 45/46/45/46 53/54/53/54 
f 55/56/55/56 56/57/56/57 50/51/50/51 
f 55/56/55/56 50/51/50/51 57/58/57/58 
f 58/59/58/59 55/56/55/56 57/58/57/58 
f 58/59/58/59 57/58/57/58 46/60/46/60 
f 59/61/59/61 60/62/60/62 61/63/61/63 
f 59/61/59/61 61/63/61/63 62/64/62/64 
f 60/62/60/62 63/65/63/65 64/66/64/66 
f 60/62/60/62 64/66/64/66 61/63/61/63 
f 65/67/65/67 66/68/66/68 67/69/67/69 
f 65/67/65/67 67/69/67/69 68/70/68/70 
f 69/71/69/71 65/67/65/67 68/70/68/70 
f 69/71/69/71 68/70/68/70 70/72/70/72 
f 71/73/71/73 72/74/72/74 73/75/73/75 
f 71/73/71/73 73/75/73/75 62/64/62/64 
f 74/76/74/76 75/77/75/77 64/66/64/66 
f 74/76/74/76 64/66/64/66 70/78/70/78 
f 72/74/72/74 76/79/76/79 77/80/77/80 
f 72/74/72/74 77/80/77/80 73/75/73/75 
f 76/79/76/79 78/81/78/81 67/69/67/69 
f 76/79/76/79 67/69/67/69 77/80/77/80 
f 71/73/71/73 79/82/79/82 80/83/80/83 
f 71/73/71/73 80/83/80/83 81/84/81/84 
f 79/82/79/82 75/77/75/77 82/85/82/85 
f 79/82/79/82 82/85/82/85 80/83/80/83 
f 51/52/51/52 83/86/83/86 84/87/84/87 
f 51/52/51/52 84/87/84/87 85/88/85/88 
f 58/89/58/89 54/55/54/55 86/90/86/90 
f 58/89/58/89 86/90/86/90 87/91/87/91 
f 83/86/83/86 88/92/88/92 89/93/89/93 
f 83/86/83/86 89/93/89/93 84/87/84/87 
f 88/92/88/92 56/57/56/57 90/94/90/94 
f 88/92/88/92 90/94/90/94 89/93/89/93 
f 39/40/39/40 91/95/91/95 92/96/92/96 
f 39/40/39/40 92/96/92/96 93/97/93/97 
f 91/95/91/95 44/45/44/45 94/98/94/98 
f 91/95/91/95 94/98/94/98 92/96/92/96 
f 59/61/59/61 95/99/95/99 96/100/96/100 
f 59/61/59/61 96/100/96/100 97/101/97/101 
f 69/102/69/102 63/65/63/65 98/103/98/103 
f 69/102/69/102 98/103/98/103 99/104/99/104 
f 100/105/100/105 49/50/49/50 101/106/101/106 
f 100/105/100/105 101/106/101/106 102/107/102/107 
f 43/108/43/108 100/105/100/105 102/107/102/107 
f 43/108/43/108 102/107/102/107 103/109/103/109 
f 95/99/95/99 104/110/104/110 105/111/105/111 
f 95/99/95/99 105/111/105/111 96/100/96/100 
f 104/110/104/110 66/68/66/68 106/112/106/112 
f 104/110/104/110 106/112/106/112 105/111/105/111 
f 19/19/19/19 107/113/107/113 108/114/108/114 
f 19/19/19/19 108/114/108/114 93/97/93/97 
f 35/115/35/115 23/23/23/23 94/98/94/98 
f 35/115/35/115 94/98/94/98 103/116/103/116 
f 107/113/107/113 109/117/109/117 110/118/110/118 
f 107/113/107/113 110/118/110/118 108/114/108/114 
f 109/117/109/117 32/32/32/32 101/106/101/106 
f 109/117/109/117 101/106/101/106 110/118/110/118 
f 7/7/7/7 111/119/111/119 112/120/112/120 
f 7/7/7/7 112/120/112/120 85/88/85/88 
f 111/119/111/119 13/13/13/13 86/90/86/90 
f 111/119/111/119 86/90/86/90 112/120/112/120 
f 113/121/113/121 17/17/17/17 90/94/90/94 
f 113/121/113/121 90/94/90/94 114/122/114/122 
f 12/123/12/123 113/121/113/121 114/122/114/122 
f 12/123/12/123 114/122/114/122 87/124/87/124 
f 25/25/25/25 115/125/115/125 116/126/116/126 
f 25/25/25/25 116/126/116/126 97/101/97/101 
f 115/125/115/125 29/29/29/29 98/103/98/103 
f 115/125/115/125 98/103/98/103 116/126/116/126 
f 117/127/117/127 38/39/38/39 106/112/106/112 
f 117/127/117/127 106/112/106/112 118/128/118/128 
f 28/129/28/129 117/127/117/127 118/128/118/128 
f 28/129/28/129 118/128/118/128 99/130/99/130 
f 1/1/1/1 119/131/119/131 120/132/120/132 
f 1/1/1/1 120/132/120/132 81/84/81/84 
f 119/131/119/131 121/133/121/133 122/134/122/134 
f 119/131/119/131 122/134/122/134 120/132/120/132 
f 121/133/121/133 123/135/123/135 124/136/124/136 
f 121/133/121/133 124/136/124/136 125/137/125/137 
f 122/134/122/134 121/133/121/133 125/137/125/137 
f 81/84/81/84 80/83/80/83 2/2/2/2 
f 81/84/81/84 2/2/2/2 1/1/1/1 
f 80/83/80/83 82/85/82/85 4/4/4/4 
f 80/83/80/83 4/4/4/4 2/2/2/2 
f 85/88/85/88 84/87/84/87 8/8/8/8 
f 85/88/85/88 8/8/8/8 7/7/7/7 
f 87/91/87/91 86/90/86/90 13/13/13/13 
f 87/91/87/91 13/13/13/13 12/12/12/12 
f 84/87/84/87 89/93/89/93 15/15/15/15 
f 84/87/84/87 15/15/15/15 8/8/8/8 
f 89/93/89/93 90/94/90/94 17/17/17/17 
f 89/93/89/93 17/17/17/17 15/15/15/15 
f 93/97/93/97 92/96/92/96 20/20/20/20 
f 93/97/93/97 20/20/20/20 19/19/19/19 
f 92/96/92/96 94/98/94/98 23/23/23/23 
f 92/96/92/96 23/23/23/23 20/20/20/20 
f 97/101/97/101 96/100/96/100 26/26/26/26 
f 97/101/97/101 26/26/26/26 25/25/25/25 
f 99/104/99/104 98/103/98/103 29/29/29/29 
f 99/104/99/104 29/29/29/29 28/28/28/28 
f 102/107/102/107 101/106/101/106 32/32/32/32 
f 102/107/102/107 32/32/32/32 31/31/31/31 
f 103/109/103/109 102/107/102/107 31/31/31/31 
f 103/109/103/109 31/31/31/31 35/35/35/35 
f 96/100/96/100 105/111/105/111 36/37/36/37 
f 96/100/96/100 36/37/36/37 26/26/26/26 
f 105/111/105/111 106/112/106/112 38/39/38/39 
f 105/111/105/111 38/39/38/39 36/37/36/37 
f 93/97/93/97 108/114/108/114 40/41/40/41 
f 93/97/93/97 40/41/40/41 39/40/39/40 
f 103/116/103/116 94/98/94/98 44/45/44/45 
f 103/116/103/116 44/45/44/45 43/44/43/44 
f 108/114/108/114 110/118/110/118 47/48/47/48 
f 108/114/108/114 47/48/47/48 40/41/40/41 
f 110/118/110/118 101/106/101/106 49/50/49/50 
f 110/118/110/118 49/50/49/50 47/48/47/48 
f 85/88/85/88 112/120/112/120 52/53/52/53 
f 85/88/85/88 52/53/52/53 51/52/51/52 
f 112/120/112/120 86/90/86/90 54/55/54/55 
f 112/120/112/120 54/55/54/55 52/53/52/53 
f 114/122/114/122 90/94/90/94 56/57/56/57 
f 114/122/114/122 56/57/56/57 55/56/55/56 
f 87/124/87/124 114/122/114/122 55/56/55/56 
f 87/124/87/124 55/56/55/56 58/59/58/59 
f 97/101/97/101 116/126/116/126 60/62/60/62 
f 97/101/97/101 60/62/60/62 59/61/59/61 
f 116/126/116/126 98/103/98/103 63/65/63/65 
f 116/126/116/126 63/65/63/65 60/62/60/62 
f 118/128/118/128 106/112/106/112 66/68/66/68 
f 118/128/118/128 66/68/66/68 65/67/65/67 
f 99/130/99/130 118/128/118/128 65/67/65/67 
f 99/130/99/130 65/67/65/67 69/71/69/71 
f 81/84/81/84 120/132/120/132 72/74/72/74 
f 81/84/81/84 72/74/72/74 71/73/71/73 
f 126/138/126/138 127/139/127/139 82/85/82/85 
f 126/138/126/138 82/85/82/85 75/77/75/77 
f 74/76/74/76 126/138/126/138 75/77/75/77 
f 120/132/120/132 122/134/122/134 76/79/76/79 
f 120/132/120/132 76/79/76/79 72/74/72/74 
f 122/134/122/134 125/137/125/137 78/81/78/81 
f 122/134/122/134 78/81/78/81 76/79/76/79 
f 62/64/62/64 61/63/61/63 79/82/79/82 
f 62/64/62/64 79/82/79/82 71/73/71/73 
f 61/63/61/63 64/66/64/66 75/77/75/77 
f 61/63/61/63 75/77/75/77 79/82/79/82 
f 42/43/42/43 41/42/41/42 83/86/83/86 
f 42/43/42/43 83/86/83/86 51/52/51/52 
f 46/47/46/47 45/46/45/46 54/55/54/55 
f 46/47/46/47 54/55/54/55 58/89/58/89 
f 68/70/68/70 67/69/67/69 78/81/78/81 
f 68/70/68/70 78/81/78/81 128/140/128/140 
f 70/72/70/72 68/70/68/70 128/140/128/140 
f 70/72/70/72 128/140/128/140 74/141/74/141 
f 41/42/41/42 48/49/48/49 88/92/88/92 
f 41/42/41/42 88/92/88/92 83/86/83/86 
f 48/49/48/49 50/51/50/51 56/57/56/57 
f 48/49/48/49 56/57/56/57 88/92/88/92 
f 42/43/42/43 53/54/53/54 91/95/91/95 
f 42/43/42/43 91/95/91/95 39/40/39/40 
f 53/54/53/54 45/46/45/46 44/45/44/45 
f 53/54/53/54 44/45/44/45 91/95/91/95 
f 62/64/62/64 73/75/73/75 95/99/95/99 
f 62/64/62/64 95/99/95/99 59/61/59/61 
f 70/78/70/78 64/66/64/66 63/65/63/65 
f 70/78/70/78 63/65/63/65 69/102/69/102 
f 57/58/57/58 50/51/50/51 49/50/49/50 
f 57/58/57/58 49/50/49/50 100/105/100/105 
f 46/60/46/60 57/58/57/58 100/105/100/105 
f 46/60/46/60 100/105/100/105 43/108/43/108 
f 73/75/73/75 77/80/77/80 104/110/104/110 
f 73/75/73/75 104/110/104/110 95/99/95/99 
f 77/80/77/80 67/69/67/69 66/68/66/68 
f 77/80/77/80 66/68/66/68 104/110/104/110 
f 22/22/22/22 27/27/27/27 107/113/107/113 
f 22/22/22/22 107/113/107/113 19/19/19/19 
f 30/30/30/30 24/24/24/24 23/23/23/23 
f 30/30/30/30 23/23/23/23 35/115/35/115 
f 27/27/27/27 37/38/37/38 109/117/109/117 
f 27/27/27/27 109/117/109/117 107/113/107/113 
f 37/38/37/38 33/33/33/33 32/32/32/32 
f 37/38/37/38 32/32/32/32 109/117/109/117 
f 10/10/10/10 129/142/129/142 111/119/111/119 
f 10/10/10/10 111/119/111/119 7/7/7/7 
f 129/142/129/142 14/14/14/14 13/13/13/13 
f 129/142/129/142 13/13/13/13 111/119/111/119 
f 130/143/130/143 18/18/18/18 17/17/17/17 
f 130/143/130/143 17/17/17/17 113/121/113/121 
f 11/144/11/144 130/143/130/143 113/121/113/121 
f 11/144/11/144 113/121/113/121 12/123/12/123 
f 22/22/22/22 21/21/21/21 115/125/115/125 
f 22/22/22/22 115/125/115/125 25/25/25/25 
f 21/21/21/21 24/24/24/24 29/29/29/29 
f 21/21/21/21 29/29/29/29 115/125/115/125 
f 34/34/34/34 33/33/33/33 38/39/38/39 
f 34/34/34/34 38/39/38/39 117/127/117/127 
f 30/36/30/36 34/34/34/34 117/127/117/127 
f 30/36/30/36 117/127/117/127 28/129/28/129 
f 0/0/0/0 131/145/131/145 132/146/132/146 
f 0/0/0/0 132/146/132/146 119/131/119/131 
f 1/1/1/1 0/0/0/0 119/131/119/131 
f 132/146/132/146 133/147/133/147 121/133/121/133 
f 132/146/132/146 121/133/121/133 119/131/119/131 
f 121/133/121/133 133/147/133/147 123/135/123/135 
f 0/0/0/148 3/3/3/149 134/148/134/150 
f 0/0/0/148 134/148/134/150 135/149/135/151 
f 6/6/6/152 136/150/127/153 134/148/134/150 
f 6/6/6/152 134/148/134/150 3/3/3/149 
f 10/10/10/154 9/9/9/155 137/151/136/156 
f 10/10/10/154 137/151/136/156 138/152/137/157 
f 14/14/14/158 139/153/138/159 140/154/139/160 
f 14/14/14/158 140/154/139/160 11/11/11/161 
f 16/16/16/162 141/155/140/163 137/151/136/156 
f 16/16/16/162 137/151/136/156 9/9/9/155 
f 142/156/141/164 141/155/140/163 16/16/16/162 
f 142/156/141/164 16/16/16/162 18/18/18/165 
f 129/142/129/166 10/10/10/154 138/152/137/157 
f 129/142/129/166 138/152/137/157 143/157/142/167 
f 139/153/138/159 14/14/14/158 129/142/129/166 
f 139/153/138/159 129/142/129/166 143/157/142/167 
f 18/18/18/165 130/143/130/168 144/158/143/169 
f 18/18/18/165 144/158/143/169 142/156/141/164 
f 130/143/130/168 11/144/11/170 140/159/139/171 
f 130/143/130/168 140/159/139/171 144/158/143/169 
f 78/81/78/81 125/137/125/137 145/160/144/172 
f 78/81/78/81 145/160/144/172 128/140/128/140 
f 146/161/145/173 128/140/128/140 145/160/144/172 
f 74/141/74/141 128/140/128/140 146/161/145/173 
f 74/141/74/141 146/161/145/173 126/162/126/174 
f 147/163/127/175 4/4/4/4 82/85/82/85 
f 147/163/127/175 82/85/82/85 127/139/127/139 
f 145/160/144/172 125/137/125/137 124/136/124/136 
f 5/5/5/5 4/4/4/4 147/163/127/175 
f 131/145/131/176 0/0/0/148 135/149/135/151 
f 131/145/131/176 135/149/135/151 148/164/146/177 
f 149/2/147/178 150/1/148/179 151/0/149/180 
f 149/2/147/178 151/0/149/180 152/3/150/181 
f 5/5/5/182 153/4/127/183 149/2/147/178 
f 5/5/5/182 149/2/147/178 6/6/6/184 
f 152/3/150/181 6/6/6/184 149/2/147/178 
f 154/9/151/185 155/8/152/186 156/7/153/187 
f 154/9/151/185 156/7/153/187 157/10/154/188 
f 158/13/155/189 159/12/156/190 160/11/157/191 
f 158/13/155/189 160/11/157/191 161/14/158/192 
f 162/16/159/193 163/15/160/194 155/8/152/186 
f 162/16/159/193 155/8/152/186 154/9/151/185 
f 164/17/161/195 163/15/160/194 162/16/159/193 
f 164/17/161/195 162/16/159/193 165/18/162/196 
f 166/21/163/197 167/20/164/198 168/19/165/199 
f 166/21/163/197 168/19/165/199 169/22/166/200 
f 170/24/167/201 171/23/168/202 167/20/164/198 
f 170/24/167/201 167/20/164/198 166/21/163/197 
f 172/27/169/203 173/26/170/204 174/25/171/205 
f 172/27/169/203 174/25/171/205 169/22/166/200 
f 170/24/167/201 175/29/172/206 176/28/173/207 
f 170/24/167/201 176/28/173/207 177/30/174/208 
f 178/33/175/209 179/32/176/210 180/31/177/211 
f 178/33/175/209 180/31/177/211 181/34/178/212 
f 181/34/178/212 180/31/177/211 182/35/179/213 
f 181/34/178/212 182/35/179/213 177/36/174/214 
f 183/38/180/215 184/37/181/216 173/26/170/204 
f 183/38/180/215 173/26/170/204 172/27/169/203 
f 178/33/175/209 185/39/182/217 184/37/181/216 
f 178/33/175/209 184/37/181/216 183/38/180/215 
f 186/42/183/218 187/41/184/219 188/40/185/220 
f 186/42/183/218 188/40/185/220 189/43/186/221 
f 190/46/187/222 191/45/188/223 192/44/189/224 
f 190/46/187/222 192/44/189/224 193/47/190/225 
f 194/49/191/226 195/48/192/227 187/41/184/219 
f 194/49/191/226 187/41/184/219 186/42/183/218 
f 196/51/193/228 197/50/194/229 195/48/192/227 
f 196/51/193/228 195/48/192/227 194/49/191/226 
f 198/54/195/230 199/53/196/231 200/52/197/232 
f 198/54/195/230 200/52/197/232 189/43/186/221 
f 190/46/187/222 201/55/198/233 199/53/196/231 
f 190/46/187/222 199/53/196/231 198/54/195/230 
f 196/51/193/228 202/57/199/234 203/56/200/235 
f 196/51/193/228 203/56/200/235 204/58/201/236 
f 204/58/201/236 203/56/200/235 205/59/202/237 
f 204/58/201/236 205/59/202/237 193/60/190/238 
f 206/63/203/239 207/62/204/240 208/61/205/241 
f 206/63/203/239 208/61/205/241 209/64/206/242 
f 210/66/207/243 211/65/208/244 207/62/204/240 
f 210/66/207/243 207/62/204/240 206/63/203/239 
f 212/69/209/245 213/68/210/246 214/67/211/247 
f 212/69/209/245 214/67/211/247 215/70/212/248 
f 215/70/212/248 214/67/211/247 216/71/213/249 
f 215/70/212/248 216/71/213/249 217/72/214/250 
f 218/75/215/251 219/74/216/252 220/73/217/253 
f 218/75/215/251 220/73/217/253 209/64/206/242 
f 210/66/207/243 221/77/218/254 222/76/219/255 
f 210/66/207/243 222/76/219/255 217/78/214/256 
f 223/80/220/257 224/79/221/258 219/74/216/252 
f 223/80/220/257 219/74/216/252 218/75/215/251 
f 212/69/209/245 225/81/222/259 224/79/221/258 
f 212/69/209/245 224/79/221/258 223/80/220/257 
f 226/83/223/260 227/82/224/261 220/73/217/253 
f 226/83/223/260 220/73/217/253 228/84/225/262 
f 229/85/127/263 221/77/218/254 227/82/224/261 
f 229/85/127/263 227/82/224/261 226/83/223/260 
f 230/87/226/264 231/86/227/265 200/52/197/232 
f 230/87/226/264 200/52/197/232 232/88/228/266 
f 233/90/229/267 201/55/198/233 205/89/202/268 
f 233/90/229/267 205/89/202/268 234/91/230/269 
f 235/93/231/270 236/92/232/271 231/86/227/265 
f 235/93/231/270 231/86/227/265 230/87/226/264 
f 237/94/233/272 202/57/199/234 236/92/232/271 
f 237/94/233/272 236/92/232/271 235/93/231/270 
f 238/96/234/273 239/95/235/274 188/40/185/220 
f 238/96/234/273 188/40/185/220 240/97/236/275 
f 241/98/237/276 191/45/188/223 239/95/235/274 
f 241/98/237/276 239/95/235/274 238/96/234/273 
f 242/100/238/277 243/99/239/278 208/61/205/241 
f 242/100/238/277 208/61/205/241 244/101/240/279 
f 245/103/241/280 211/65/208/244 216/102/213/281 
f 245/103/241/280 216/102/213/281 246/104/242/282 
f 247/106/243/283 197/50/194/229 248/105/244/284 
f 247/106/243/283 248/105/244/284 249/107/245/285 
f 249/107/245/285 248/105/244/284 192/108/189/286 
f 249/107/245/285 192/108/189/286 250/109/246/287 
f 251/111/247/288 252/110/248/289 243/99/239/278 
f 251/111/247/288 243/99/239/278 242/100/238/277 
f 253/112/249/290 213/68/210/246 252/110/248/289 
f 253/112/249/290 252/110/248/289 251/111/247/288 
f 254/114/250/291 255/113/251/292 168/19/165/199 
f 254/114/250/291 168/19/165/199 240/97/236/275 
f 241/98/237/276 171/23/168/202 182/115/179/293 
f 241/98/237/276 182/115/179/293 250/116/246/294 
f 256/118/252/295 257/117/253/296 255/113/251/292 
f 256/118/252/295 255/113/251/292 254/114/250/291 
f 247/106/243/283 179/32/176/210 257/117/253/296 
f 247/106/243/283 257/117/253/296 256/118/252/295 
f 258/120/254/297 259/119/255/298 156/7/153/187 
f 258/120/254/297 156/7/153/187 232/88/228/266 
f 233/90/229/267 158/13/155/189 259/119/255/298 
f 233/90/229/267 259/119/255/298 258/120/254/297 
f 237/94/233/272 164/17/161/195 260/121/256/299 
f 237/94/233/272 260/121/256/299 261/122/257/300 
f 261/122/257/300 260/121/256/299 159/123/156/301 
f 261/122/257/300 159/123/156/301 234/124/230/302 
f 262/126/258/303 263/125/259/304 174/25/171/205 
f 262/126/258/303 174/25/171/205 244/101/240/279 
f 245/103/241/280 175/29/172/206 263/125/259/304 
f 245/103/241/280 263/125/259/304 262/126/258/303 
f 253/112/249/290 185/39/182/217 264/127/260/305 
f 253/112/249/290 264/127/260/305 265/128/261/306 
f 265/128/261/306 264/127/260/305 176/129/173/307 
f 265/128/261/306 176/129/173/307 246/130/242/308 
f 266/132/262/309 267/131/263/310 150/1/148/179 
f 266/132/262/309 150/1/148/179 228/84/225/262 
f 268/134/264/311 269/133/265/312 267/131/263/310 
f 268/134/264/311 267/131/263/310 266/132/262/309 
f 124/136/124/313 123/135/123/314 269/133/265/312 
f 124/136/124/313 269/133/265/312 270/137/266/315 
f 268/134/264/311 270/137/266/315 269/133/265/312 
f 149/2/147/178 226/83/223/260 228/84/225/262 
f 149/2/147/178 228/84/225/262 150/1/148/179 
f 153/4/127/183 229/85/127/263 226/83/223/260 
f 153/4/127/183 226/83/223/260 149/2/147/178 
f 155/8/152/186 230/87/226/264 232/88/228/266 
f 155/8/152/186 232/88/228/266 156/7/153/187 
f 158/13/155/189 233/90/229/267 234/91/230/269 
f 158/13/155/189 234/91/230/269 159/12/156/190 
f 163/15/160/194 235/93/231/270 230/87/226/264 
f 163/15/160/194 230/87/226/264 155/8/152/186 
f 164/17/161/195 237/94/233/272 235/93/231/270 
f 164/17/161/195 235/93/231/270 163/15/160/194 
f 167/20/164/198 238/96/234/273 240/97/236/275 
f 167/20/164/198 240/97/236/275 168/19/165/199 
f 171/23/168/202 241/98/237/276 238/96/234/273 
f 171/23/168/202 238/96/234/273 167/20/164/198 
f 173/26/170/204 242/100/238/277 244/101/240/279 
f 173/26/170/204 244/101/240/279 174/25/171/205 
f 175/29/172/206 245/103/241/280 246/104/242/282 
f 175/29/172/206 246/104/242/282 176/28/173/207 
f 179/32/176/210 247/106/243/283 249/107/245/285 
f 179/32/176/210 249/107/245/285 180/31/177/211 
f 180/31/177/211 249/107/245/285 250/109/246/287 
f 180/31/177/211 250/109/246/287 182/35/179/213 
f 184/37/181/216 251/111/247/288 242/100/238/277 
f 184/37/181/216 242/100/238/277 173/26/170/204 
f 185/39/182/217 253/112/249/290 251/111/247/288 
f 185/39/182/217 251/111/247/288 184/37/181/216 
f 187/41/184/219 254/114/250/291 240/97/236/275 
f 187/41/184/219 240/97/236/275 188/40/185/220 
f 191/45/188/223 241/98/237/276 250/116/246/294 
f 191/45/188/223 250/116/246/294 192/44/189/224 
f 195/48/192/227 256/118/252/295 254/114/250/291 
f 195/48/192/227 254/114/250/291 187/41/184/219 
f 197/50/194/229 247/106/243/283 256/118/252/295 
f 197/50/194/229 256/118/252/295 195/48/192/227 
f 199/53/196/231 258/120/254/297 232/88/228/266 
f 199/53/196/231 232/88/228/266 200/52/197/232 
f 201/55/198/233 233/90/229/267 258/120/254/297 
f 201/55/198/233 258/120/254/297 199/53/196/231 
f 202/57/199/234 237/94/233/272 261/122/257/300 
f 202/57/199/234 261/122/257/300 203/56/200/235 
f 203/56/200/235 261/122/257/300 234/124/230/302 
f 203/56/200/235 234/124/230/302 205/59/202/237 
f 207/62/204/240 262/126/258/303 244/101/240/279 
f 207/62/204/240 244/101/240/279 208/61/205/241 
f 211/65/208/244 245/103/241/280 262/126/258/303 
f 211/65/208/244 262/126/258/303 207/62/204/240 
f 213/68/210/246 253/112/249/290 265/128/261/306 
f 213/68/210/246 265/128/261/306 214/67/211/247 
f 214/67/211/247 265/128/261/306 246/130/242/308 
f 214/67/211/247 246/130/242/308 216/71/213/249 
f 219/74/216/252 266/132/262/309 228/84/225/262 
f 219/74/216/252 228/84/225/262 220/73/217/253 
f 229/85/127/263 127/139/127/316 126/138/126/317 
f 229/85/127/263 126/138/126/317 221/77/218/254 
f 222/76/219/255 221/77/218/254 126/138/126/317 
f 224/79/221/258 268/134/264/311 266/132/262/309 
f 224/79/221/258 266/132/262/309 219/74/216/252 
f 225/81/222/259 270/137/266/315 268/134/264/311 
f 225/81/222/259 268/134/264/311 224/79/221/258 
f 227/82/224/261 206/63/203/239 209/64/206/242 
f 227/82/224/261 209/64/206/242 220/73/217/253 
f 221/77/218/254 210/66/207/243 206/63/203/239 
f 221/77/218/254 206/63/203/239 227/82/224/261 
f 231/86/227/265 186/42/183/218 189/43/186/221 
f 231/86/227/265 189/43/186/221 200/52/197/232 
f 201/55/198/233 190/46/187/222 193/47/190/225 
f 201/55/198/233 193/47/190/225 205/89/202/268 
f 225/81/222/259 212/69/209/245 215/70/212/248 
f 225/81/222/259 215/70/212/248 271/140/267/318 
f 271/140/267/318 215/70/212/248 217/72/214/250 
f 271/140/267/318 217/72/214/250 222/141/219/319 
f 236/92/232/271 194/49/191/226 186/42/183/218 
f 236/92/232/271 186/42/183/218 231/86/227/265 
f 202/57/199/234 196/51/193/228 194/49/191/226 
f 202/57/199/234 194/49/191/226 236/92/232/271 
f 239/95/235/274 198/54/195/230 189/43/186/221 
f 239/95/235/274 189/43/186/221 188/40/185/220 
f 191/45/188/223 190/46/187/222 198/54/195/230 
f 191/45/188/223 198/54/195/230 239/95/235/274 
f 243/99/239/278 218/75/215/251 209/64/206/242 
f 243/99/239/278 209/64/206/242 208/61/205/241 
f 211/65/208/244 210/66/207/243 217/78/214/256 
f 211/65/208/244 217/78/214/256 216/102/213/281 
f 197/50/194/229 196/51/193/228 204/58/201/236 
f 197/50/194/229 204/58/201/236 248/105/244/284 
f 248/105/244/284 204/58/201/236 193/60/190/238 
f 248/105/244/284 193/60/190/238 192/108/189/286 
f 252/110/248/289 223/80/220/257 218/75/215/251 
f 252/110/248/289 218/75/215/251 243/99/239/278 
f 213/68/210/246 212/69/209/245 223/80/220/257 
f 213/68/210/246 223/80/220/257 252/110/248/289 
f 255/113/251/292 172/27/169/203 169/22/166/200 
f 255/113/251/292 169/22/166/200 168/19/165/199 
f 171/23/168/202 170/24/167/201 177/30/174/208 
f 171/23/168/202 177/30/174/208 182/115/179/293 
f 257/117/253/296 183/38/180/215 172/27/169/203 
f 257/117/253/296 172/27/169/203 255/113/251/292 
f 179/32/176/210 178/33/175/209 183/38/180/215 
f 179/32/176/210 183/38/180/215 257/117/253/296 
f 259/119/255/298 272/142/268/320 157/10/154/188 
f 259/119/255/298 157/10/154/188 156/7/153/187 
f 158/13/155/189 161/14/158/192 272/142/268/320 
f 158/13/155/189 272/142/268/320 259/119/255/298 
f 164/17/161/195 165/18/162/196 273/143/269/321 
f 164/17/161/195 273/143/269/321 260/121/256/299 
f 260/121/256/299 273/143/269/321 160/144/157/322 
f 260/121/256/299 160/144/157/322 159/123/156/301 
f 263/125/259/304 166/21/163/197 169/22/166/200 
f 263/125/259/304 169/22/166/200 174/25/171/205 
f 175/29/172/206 170/24/167/201 166/21/163/197 
f 175/29/172/206 166/21/163/197 263/125/259/304 
f 185/39/182/217 178/33/175/209 181/34/178/212 
f 185/39/182/217 181/34/178/212 264/127/260/305 
f 264/127/260/305 181/34/178/212 177/36/174/214 
f 264/127/260/305 177/36/174/214 176/129/173/307 
f 132/146/132/323 131/145/131/324 151/0/149/180 
f 132/146/132/323 151/0/149/180 267/131/263/310 
f 150/1/148/179 267/131/263/310 151/0/149/180 
f 269/133/265/312 133/147/133/325 132/146/132/323 
f 269/133/265/312 132/146/132/323 267/131/263/310 
f 269/133/265/312 123/135/123/314 133/147/133/325 
f 151/0/149/326 274/149/270/327 275/148/271/328 
f 151/0/149/326 275/148/271/328 152/3/150/329 
f 275/148/271/328 136/150/127/330 6/6/6/331 
f 275/148/271/328 6/6/6/331 152/3/150/329 
f 157/10/154/332 276/152/272/333 277/151/273/334 
f 157/10/154/332 277/151/273/334 154/9/151/335 
f 161/14/158/336 160/11/157/337 278/154/274/338 
f 161/14/158/336 278/154/274/338 279/153/275/339 
f 277/151/273/334 280/155/276/340 162/16/159/341 
f 277/151/273/334 162/16/159/341 154/9/151/335 
f 162/16/159/341 280/155/276/340 281/156/277/342 
f 162/16/159/341 281/156/277/342 165/18/162/343 
f 276/152/272/333 157/10/154/332 272/142/268/344 
f 276/152/272/333 272/142/268/344 282/157/278/345 
f 279/153/275/339 282/157/278/345 272/142/268/344 
f 279/153/275/339 272/142/268/344 161/14/158/336 
f 283/158/279/346 273/143/269/347 165/18/162/343 
f 283/158/279/346 165/18/162/343 281/156/277/342 
f 278/159/274/348 160/144/157/349 273/143/269/347 
f 278/159/274/348 273/143/269/347 283/158/279/346 
f 145/160/144/350 270/137/266/315 225/81/222/259 
f 145/160/144/350 225/81/222/259 271/140/267/318 
f 146/161/145/351 145/160/144/350 271/140/267/318 
f 146/161/145/351 271/140/267/318 222/141/219/319 
f 146/161/145/351 222/141/219/319 126/162/126/352 
f 147/163/127/353 127/139/127/316 229/85/127/263 
f 147/163/127/353 229/85/127/263 153/4/127/183 
f 145/160/144/350 124/136/124/313 270/137/266/315 
f 5/5/5/182 147/163/127/353 153/4/127/183 
f 131/145/131/354 148/164/146/355 274/149/270/327 
f 131/145/131/354 274/149/270/327 151/0/149/326 
