v -1031.2288 673.9065 -31.9181
v -1030.0828 673.9065 -31.9181
v -1028.5864 674.5798 -31.9181
v -1032.9038 674.5798 -31.9181
v -1034.2561 677.9007 -31.9181
v -1025.6292 677.9007 -31.9181
v -1026.5291 679.4426 -31.9181
v -1033.8865 679.4426 -31.9181
v -1028.2104 680.9846 -31.9181
v -1032.561 680.9846 -31.9181
v -1027.7461 675.9006 -31.9181
v -1034.0098 676.1588 -31.9181
v -1024.4873 669.7004 -31.9181
v -1022.0081 671.0833 -31.9181
v -1033.8865 679.4426 -37.8728
v -1034.2561 677.9007 -37.8728
v -1032.561 680.9846 -37.8728
v -1028.5864 674.5798 -37.8728
v -1027.7461 675.9006 -37.8728
v -1034.0098 676.1588 -37.8728
v -1032.9038 674.5798 -37.8728
v -1024.4873 669.7004 -37.8728
v -1022.0081 671.0833 -37.8728
v -1031.2288 673.9065 -37.8728
v -1030.0828 673.9065 -37.8728
v -1026.5291 679.4426 -37.8728
v -1025.6292 677.9007 -37.8728
v -1028.2104 680.9846 -37.8728
gi 0 0 0 0
gi 0 0 0 0
gi 0 0 0 0
gi 0 0 0 0
gi 0 0 0 0
gi 0 0 0 0
gi 0 0 0 0
gi 0 0 0 0
gi 0 0 0 0
gi 0 0 0 0
gi 0 0 0 0
gi 0 0 0 0
gi 0 0 0 0
gi 0 0 0 0
gi 0 0 0 0
gi 0 0 0 0
gi 0 0 0 0
gi 0 0 0 0
gi 0 0 0 0
gi 0 0 0 0
gi 0 0 0 0
gi 0 0 0 0
gi 0 0 0 0
gi 0 0 0 0
gi 0 0 0 0
gi 0 0 0 0
gi 0 0 0 0
gi 0 0 0 0
gw 0.0 0.0 0.0 0.0
gw 0.0 0.0 0.0 0.0
gw 0.0 0.0 0.0 0.0
gw 0.0 0.0 0.0 0.0
gw 0.0 0.0 0.0 0.0
gw 0.0 0.0 0.0 0.0
gw 0.0 0.0 0.0 0.0
gw 0.0 0.0 0.0 0.0
gw 0.0 0.0 0.0 0.0
gw 0.0 0.0 0.0 0.0
gw 0.0 0.0 0.0 0.0
gw 0.0 0.0 0.0 0.0
gw 0.0 0.0 0.0 0.0
gw 0.0 0.0 0.0 0.0
gw 0.0 0.0 0.0 0.0
gw 0.0 0.0 0.0 0.0
gw 0.0 0.0 0.0 0.0
gw 0.0 0.0 0.0 0.0
gw 0.0 0.0 0.0 0.0
gw 0.0 0.0 0.0 0.0
gw 0.0 0.0 0.0 0.0
gw 0.0 0.0 0.0 0.0
gw 0.0 0.0 0.0 0.0
gw 0.0 0.0 0.0 0.0
gw 0.0 0.0 0.0 0.0
gw 0.0 0.0 0.0 0.0
gw 0.0 0.0 0.0 0.0
gw 0.0 0.0 0.0 0.0
vt 0.2029 0.2838
vt 0.1992 0.2736
vt 0.1884 0.2623
vt 0.2022 0.301
vt 0.1768 0.3237
vt 0.1492 0.2465
vt 0.1382 0.2595
vt 0.1618 0.3254
vt 0.1298 0.2795
vt 0.1437 0.3184
vt 0.1739 0.259
vt 0.1916 0.316
vt 0.219 0.21
vt 0.1986 0.1922
vt 0.0673 0.6159
vt 0.1206 0.615
vt 0.1204 0.6012
vt 0.067 0.602
vt 0.1208 0.6289
vt 0.0675 0.6297
vt 0.1194 0.5328
vt 0.1192 0.5209
vt 0.0658 0.5218
vt 0.066 0.5336
vt 0.0668 0.5864
vt 0.1202 0.5856
vt 0.12 0.5715
vt 0.0666 0.5723
vt 0.1183 0.4654
vt 0.0649 0.4662
vt 0.118 0.4431
vt 0.0646 0.444
vt 0.1533 0.3311
vt 0.1385 0.3399
vt 0.1791 0.3335
vt 0.164 0.3294
vt 0.2056 0.3762
vt 0.2118 0.3603
vt 0.1307 0.3731
vt 0.1365 0.387
vt 0.1921 0.3931
vt 0.1512 0.3996
vt 0.1889 0.3447
vt 0.1305 0.3564
vt 0.2357 0.2909
vt 0.2104 0.2816
vt 0.0662 0.547
vt 0.0664 0.5573
vt 0.1197 0.5564
vt 0.1196 0.5462
vn -0.1415 -0.7317 0.6668
vn 0.1571 -0.7321 0.6628
vn 0.4985 -0.5759 0.6479
vn -0.4734 -0.5964 0.6483
vn -0.7439 0.0353 0.6674
vn 0.0 -0.0 1.0
vn 0.0 0.0 1.0
vn -0.6706 0.3429 0.6578
vn -0.4301 0.3697 0.8236
vn -0.0119 -0.288 0.9575
vn -0.7003 -0.2763 0.6582
vn -0.233 -0.7835 0.5761
vn 0.3422 -0.6135 0.7117
vn -0.6706 0.3429 -0.6578
vn -0.7439 0.0353 -0.6674
vn -0.4301 0.3697 -0.8236
vn 0.4985 -0.5759 -0.6479
vn -0.0119 -0.288 -0.9575
vn -0.7003 -0.2762 -0.6582
vn -0.4734 -0.5963 -0.6483
vn -0.233 -0.7835 -0.576
vn 0.3422 -0.6135 -0.7117
vn -0.1416 -0.7317 -0.6667
vn 0.1571 -0.7321 -0.6628
vn 0.0 0.0 -1.0
vtan -0.3472 -0.594 -0.7256
vtan -0.5492 -0.6226 -0.5575
vtan -0.5641 -0.783 -0.262
vtan 0.005 -0.7378 -0.675
vtan -0.1794 -0.9725 -0.1486
vtan -0.3381 -0.9411 -0.0
vtan -0.3375 -0.9413 0.0
vtan -0.4047 -0.9123 0.0629
vtan -0.3362 -0.9418 0.0
vtan -0.4297 -0.8862 0.1734
vtan -0.3478 -0.8966 -0.274
vtan 0.0144 -0.9274 -0.3739
vtan -0.2518 -0.5235 -0.8139
vtan -0.5581 -0.7421 -0.3713
vtan -0.5749 0.3201 -0.753
vtan 0.5971 -0.2767 -0.7529
vtan 0.6675 -0.0105 -0.7446
vtan -0.6655 0.0517 -0.7446
vtan 0.6486 -0.508 -0.5668
vtan -0.6014 0.563 -0.5669
vtan -0.441 0.475 -0.7615
vtan 0.0056 0.9576 -0.2881
vtan -0.0722 -0.9549 -0.2881
vtan 0.4077 -0.5039 -0.7615
vtan -0.6201 -0.2214 -0.7526
vtan 0.6042 0.2616 -0.7527
vtan 0.3852 0.5217 -0.7612
vtan -0.42 -0.4941 -0.7612
vtan 0.1499 0.5563 -0.8173
vtan -0.1788 -0.5478 -0.8173
vtan -0.3689 0.6089 -0.7023
vtan 0.3226 -0.6347 -0.7022
vtan 0.9841 -0.0308 -0.1751
vtan 0.8724 -0.2158 -0.4386
vtan 0.8599 0.4234 0.2852
vtan 0.9821 0.1862 0.0271
vtan 0.9879 0.1551 0.0
vtan 0.9877 0.1565 0.0
vtan 0.6509 0.265 -0.7115
vtan 0.7306 0.459 -0.5055
vtan 0.9879 0.1551 0.0
vtan 0.8921 0.3137 -0.3251
vtan 0.9886 0.1404 -0.0545
vtan 0.6976 -0.0695 -0.7131
vtan 0.9325 0.3145 0.1773
vtan 0.9677 -0.1281 -0.2172
vtan 0.118 -0.6524 -0.7486
vtan -0.1482 -0.6503 -0.7451
vtan 0.105 0.6586 -0.7451
vtan -0.1592 0.6436 -0.7486
f 0/0/0/0 1/1/1/1 2/2/2/2 
f 0/0/0/0 2/2/2/2 3/3/3/3 
f 4/4/4/4 5/5/5/5 6/6/6/6 
f 4/4/4/4 6/6/6/6 7/7/7/7 
f 7/7/7/7 6/6/6/6 8/8/6/8 
f 7/7/7/7 8/8/6/8 9/9/8/9 
f 10/10/9/10 5/5/5/5 4/4/4/4 
f 10/10/9/10 4/4/4/4 11/11/10/11 
f 3/3/3/3 2/2/2/2 10/10/9/10 
f 3/3/3/3 10/10/9/10 11/11/10/11 
f 10/10/9/10 12/12/11/12 13/13/12/13 
f 10/10/9/10 13/13/12/13 5/5/5/5 
f 7/14/7/14 14/15/13/15 15/16/14/16 
f 7/14/7/14 15/16/14/16 4/17/4/17 
f 16/18/15/18 14/15/13/15 7/14/7/14 
f 16/18/15/18 7/14/7/14 9/19/8/19 
f 17/20/16/20 18/21/17/21 10/22/9/22 
f 17/20/16/20 10/22/9/22 2/23/2/23 
f 11/24/10/24 19/25/18/25 20/26/19/26 
f 11/24/10/24 20/26/19/26 3/27/3/27 
f 10/22/9/22 18/21/17/21 21/28/20/28 
f 10/22/9/22 21/28/20/28 12/29/11/29 
f 12/29/11/29 21/28/20/28 22/30/21/30 
f 12/29/11/29 22/30/21/30 13/31/12/31 
f 23/32/22/32 20/33/19/33 17/34/16/34 
f 23/32/22/32 17/34/16/34 24/35/23/35 
f 25/36/24/36 26/37/24/37 15/38/14/38 
f 25/36/24/36 15/38/14/38 14/39/13/39 
f 27/40/24/40 25/36/24/36 14/39/13/39 
f 27/40/24/40 14/39/13/39 16/41/15/41 
f 15/38/14/38 26/37/24/37 18/42/17/42 
f 15/38/14/38 18/42/17/42 19/43/18/43 
f 20/33/19/33 19/43/18/43 18/42/17/42 
f 20/33/19/33 18/42/17/42 17/34/16/34 
f 18/42/17/42 26/37/24/37 22/44/21/44 
f 18/42/17/42 22/44/21/44 21/45/20/45 
f 1/46/1/46 0/47/0/47 23/48/22/48 
f 1/46/1/46 23/48/22/48 24/49/23/49 
f 0/47/0/47 3/27/3/27 20/26/19/26 
f 0/47/0/47 20/26/19/26 23/48/22/48 
f 15/16/14/16 19/25/18/25 11/24/10/24 
f 15/16/14/16 11/24/10/24 4/17/4/17 
f 24/49/23/49 17/20/16/20 2/23/2/23 
f 24/49/23/49 2/23/2/23 1/46/1/46 
