v -430.4663 289.3174 573.1041
v -405.8167 286.8248 573.1041
v -419.8115 268.2938 573.1039
v -433.8064 269.282 573.1039
v -475.7911 264.0119 589.7527
v -454.3217 268.0171 589.7527
v -433.8064 269.282 589.7527
v -380.8485 259.7022 589.7527
v -419.8115 268.2937 589.7527
v -399.4553 264.9847 589.7527
v -488.8318 259.0481 589.7527
v -488.8318 259.0481 573.1039
v -509.6833 277.3043 573.1039
v -496.4653 277.235 573.1039
v -475.7911 264.0119 573.1039
v -481.0391 282.339 573.1039
v -462.1143 286.8147 573.1039
v -454.3218 268.0171 573.1039
v -441.4409 289.3174 573.1041
v -387.8459 282.6133 573.1041
v -399.4553 264.9848 573.1039
v -375.6005 278.1267 573.1041
v -380.8485 259.7023 573.1039
v -357.1276 278.4874 573.1041
v -498.9252 131.4046 577.4578
v -498.5454 246.9972 577.4579
v -488.98 238.0317 582.1379
v -489.7395 139.7445 582.1379
v -489.7395 139.7445 589.7527
v -488.98 238.0316 589.7527
v -378.5031 237.8169 589.7527
v -377.554 140.6129 589.7528
v -378.5031 237.8169 582.1379
v -377.554 140.6129 582.1379
v -360.4684 123.2082 573.1039
v -360.3276 123.0648 573.1039
v -360.4684 123.0648 573.1039
v -364.7397 127.5593 573.1039
v -364.9771 251.4264 573.1039
v -360.4684 255.9629 573.1041
v -357.1276 119.805 573.1039
v -509.6833 119.805 573.1039
v -508.1108 123.0648 573.1039
v -508.1108 255.9629 573.1039
v -369.0112 131.9105 577.4579
v -503.3281 251.4801 573.1039
v -503.5181 127.2347 573.1039
v -369.4857 246.8899 577.4579
v -357.1276 119.805 583.6721
v -509.6833 119.805 583.6721
v -509.6835 277.3043 583.6722
v -357.1276 278.4874 583.6722
v -375.6005 278.1267 583.6722
v -387.8459 282.6133 583.6722
v -405.8167 286.8248 583.6722
v -430.4663 289.3174 583.6722
v -441.4409 289.3174 583.6722
v -462.1143 286.8147 583.6722
v -481.0391 282.339 583.6722
v -496.4653 277.235 583.6722
gi 0 0 0 0
gi 0 0 0 0
gi 0 0 0 0
gi 0 0 0 0
gi 0 0 0 0
gi 0 0 0 0
gi 0 0 0 0
gi 0 0 0 0
gi 0 0 0 0
gi 0 0 0 0
gi 0 0 0 0
gi 0 0 0 0
gi 0 0 0 0
gi 0 0 0 0
gi 0 0 0 0
gi 0 0 0 0
gi 0 0 0 0
gi 0 0 0 0
gi 0 0 0 0
gi 0 0 0 0
gi 0 0 0 0
gi 0 0 0 0
gi 0 0 0 0
gi 0 0 0 0
gi 0 0 0 0
gi 0 0 0 0
gi 0 0 0 0
gi 0 0 0 0
gi 0 0 0 0
gi 0 0 0 0
gi 0 0 0 0
gi 0 0 0 0
gi 0 0 0 0
gi 0 0 0 0
gi 0 0 0 0
gi 0 0 0 0
gi 0 0 0 0
gi 0 0 0 0
gi 0 0 0 0
gi 0 0 0 0
gi 0 0 0 0
gi 0 0 0 0
gi 0 0 0 0
gi 0 0 0 0
gi 0 0 0 0
gi 0 0 0 0
gi 0 0 0 0
gi 0 0 0 0
gi 0 0 0 0
gi 0 0 0 0
gi 0 0 0 0
gi 0 0 0 0
gi 0 0 0 0
gi 0 0 0 0
gi 0 0 0 0
gi 0 0 0 0
gi 0 0 0 0
gi 0 0 0 0
gi 0 0 0 0
gi 0 0 0 0
gw 0.0 0.0 0.0 0.0
gw 0.0 0.0 0.0 0.0
gw 0.0 0.0 0.0 0.0
gw 0.0 0.0 0.0 0.0
gw 0.0 0.0 0.0 0.0
gw 0.0 0.0 0.0 0.0
gw 0.0 0.0 0.0 0.0
gw 0.0 0.0 0.0 0.0
gw 0.0 0.0 0.0 0.0
gw 0.0 0.0 0.0 0.0
gw 0.0 0.0 0.0 0.0
gw 0.0 0.0 0.0 0.0
gw 0.0 0.0 0.0 0.0
gw 0.0 0.0 0.0 0.0
gw 0.0 0.0 0.0 0.0
gw 0.0 0.0 0.0 0.0
gw 0.0 0.0 0.0 0.0
gw 0.0 0.0 0.0 0.0
gw 0.0 0.0 0.0 0.0
gw 0.0 0.0 0.0 0.0
gw 0.0 0.0 0.0 0.0
gw 0.0 0.0 0.0 0.0
gw 0.0 0.0 0.0 0.0
gw 0.0 0.0 0.0 0.0
gw 0.0 0.0 0.0 0.0
gw 0.0 0.0 0.0 0.0
gw 0.0 0.0 0.0 0.0
gw 0.0 0.0 0.0 0.0
gw 0.0 0.0 0.0 0.0
gw 0.0 0.0 0.0 0.0
gw 0.0 0.0 0.0 0.0
gw 0.0 0.0 0.0 0.0
gw 0.0 0.0 0.0 0.0
gw 0.0 0.0 0.0 0.0
gw 0.0 0.0 0.0 0.0
gw 0.0 0.0 0.0 0.0
gw 0.0 0.0 0.0 0.0
gw 0.0 0.0 0.0 0.0
gw 0.0 0.0 0.0 0.0
gw 0.0 0.0 0.0 0.0
gw 0.0 0.0 0.0 0.0
gw 0.0 0.0 0.0 0.0
gw 0.0 0.0 0.0 0.0
gw 0.0 0.0 0.0 0.0
gw 0.0 0.0 0.0 0.0
gw 0.0 0.0 0.0 0.0
gw 0.0 0.0 0.0 0.0
gw 0.0 0.0 0.0 0.0
gw 0.0 0.0 0.0 0.0
gw 0.0 0.0 0.0 0.0
gw 0.0 0.0 0.0 0.0
gw 0.0 0.0 0.0 0.0
gw 0.0 0.0 0.0 0.0
gw 0.0 0.0 0.0 0.0
gw 0.0 0.0 0.0 0.0
gw 0.0 0.0 0.0 0.0
gw 0.0 0.0 0.0 0.0
gw 0.0 0.0 0.0 0.0
gw 0.0 0.0 0.0 0.0
gw 0.0 0.0 0.0 0.0
vt 0.6641 0.4155
vt 0.6068 0.4094
vt 0.6394 0.364
vt 0.6719 0.3664
vt 0.7694 0.3535
vt 0.7195 0.3633
vt 0.5488 0.3429
vt 0.5921 0.3559
vt 0.7997 0.3413
vt 0.8481 0.3861
vt 0.8174 0.3859
vt 0.7816 0.3984
vt 0.7376 0.4094
vt 0.6896 0.4155
vt 0.5651 0.3991
vt 0.5366 0.3881
vt 0.4937 0.389
vt 0.8231 0.0284
vt 0.8223 0.3118
vt 0.8 0.2898
vt 0.8018 0.0489
vt 0.5434 0.2893
vt 0.5412 0.051
vt 0.4408 0.1672
vt 0.4726 0.1672
vt 0.4726 0.2037
vt 0.4408 0.2037
vt 0.4408 0.3751
vt 0.4726 0.3751
vt 0.4726 0.5781
vt 0.4408 0.5781
vt 0.4408 0.3487
vt 0.4726 0.3487
vt 0.4408 0.3076
vt 0.4726 0.3076
vt 0.4408 0.2689
vt 0.4726 0.2689
vt 0.4408 0.2426
vt 0.4726 0.2426
vt 0.4408 0.0817
vt 0.4726 0.0817
vt 0.4726 0.2893
vt 0.4408 0.2893
vt 0.4408 0.0891
vt 0.4726 0.0891
vt 0.4726 0.2819
vt 0.4408 0.2819
vt 0.4408 0.0801
vt 0.4726 0.0801
vt 0.4726 0.2909
vt 0.4408 0.2909
vt 0.4408 0.088
vt 0.4726 0.088
vt 0.4726 0.283
vt 0.4408 0.283
vt 0.5015 0.0083
vt 0.5012 0.008
vt 0.5015 0.008
vt 0.5114 0.019
vt 0.512 0.3227
vt 0.5015 0.3338
vt 0.4937 0.0
vt 0.8481 0.0
vt 0.8445 0.008
vt 0.8445 0.3338
vt 0.5213 0.0297
vt 0.8334 0.3228
vt 0.8338 0.0182
vt 0.5224 0.3115
vn 0.0362 0.7173 -0.6958
vn 0.1189 0.7113 -0.6927
vn -0.0805 -0.692 -0.7174
vn -0.0031 -0.6916 -0.7223
vn 0.1965 -0.6991 -0.6875
vn 0.0884 -0.715 -0.6935
vn -0.0032 -0.7214 -0.6925
vn -0.8351 0.1137 -0.5382
vn -0.0829 -0.7122 -0.697
vn -0.1563 -0.7025 -0.6943
vn 0.828 0.1547 -0.539
vn 0.0923 0.0173 -0.9956
vn -0.5759 0.579 -0.5771
vn -0.1043 0.6585 -0.7453
vn 0.1856 -0.6602 -0.7278
vn -0.1952 0.6897 -0.6973
vn -0.1262 0.7082 -0.6946
vn 0.085 -0.6875 -0.7212
vn -0.0433 0.719 -0.6937
vn 0.2065 0.6901 -0.6936
vn -0.1506 -0.6771 -0.7203
vn 0.109 0.6513 -0.751
vn -0.0729 0.0099 -0.9973
vn 0.5722 0.5834 -0.5763
vn 0.346 0.3673 -0.8634
vn 0.3454 -0.3559 -0.8683
vn 0.4668 -0.4821 -0.7415
vn 0.4649 0.4868 -0.7395
vn 0.5777 0.5777 -0.5766
vn 0.5744 -0.58 -0.5777
vn -0.5748 -0.5793 -0.578
vn -0.5824 0.5723 -0.5772
vn -0.4802 -0.4796 -0.7344
vn -0.4851 0.4795 -0.7313
vn -0.0 0.0 -1.0
vn 0.0 0.0 -1.0
vn 0.0 0.0 -1.0
vn -0.1093 0.1121 -0.9877
vn -0.1085 -0.1077 -0.9882
vn 0.0 0.0 -1.0
vn 0.5773 -0.5774 -0.5773
vn -0.5774 -0.5773 -0.5774
vn 0.0 0.0 -1.0
vn -0.0 0.0 -1.0
vn -0.3642 0.3672 -0.8559
vn 0.1068 -0.1039 -0.9888
vn 0.109 0.1065 -0.9883
vn -0.3613 -0.357 -0.8614
vn 0.0 -1.0 0.0
vn -1.0 -0.0 0.0
vn -1.0 0.0 -0.0
vn 1.0 -0.0 0.0
vn 1.0 0.0 0.0
vn -0.0195 0.9998 0.0
vn -0.0195 0.9998 0.0
vn 0.344 0.939 0.0
vn 0.344 0.939 0.0
vn 0.2282 0.9736 0.0
vn 0.2282 0.9736 0.0
vn 0.1006 0.9949 0.0
vn 0.0 1.0 0.0
vn -0.1202 0.9928 0.0
vn -0.1202 0.9928 0.0
vn -0.2301 0.9732 0.0
vn -0.2302 0.9732 0.0
vn -0.3141 0.9494 0.0
vn -0.3141 0.9494 0.0
vn 0.0052 1.0 0.0
vn 0.0052 1.0 0.0
vtan -0.9993 0.0261 -0.0251
vtan -0.9929 0.0852 -0.0828
vtan -0.9968 0.056 0.0578
vtan -1.0 0.0023 0.0021
vtan -0.9805 -0.1402 -0.1378
vtan -0.9961 -0.0634 -0.0616
vtan -1.0 0.0023 0.0023
vtan -0.5501 -0.1717 0.8173
vtan -0.9966 0.0597 0.0575
vtan -0.9877 0.1119 0.1091
vtan -0.5608 0.2284 -0.7958
vtan -0.9957 0.0016 -0.0923
vtan -0.8175 -0.4085 0.406
vtan -0.9945 -0.0693 0.078
vtan -0.9826 -0.1245 -0.1376
vtan -0.9808 -0.1371 0.1389
vtan -0.992 -0.0902 0.0882
vtan -0.9964 -0.0589 -0.0613
vtan -0.9991 -0.0313 0.03
vtan -0.9784 0.1455 -0.1465
vtan -0.9886 0.1031 0.1098
vtan -0.994 0.0716 -0.0822
vtan -0.9973 -0.0007 0.0729
vtan -0.8201 0.4075 -0.4018
vtan -0.9304 0.0152 -0.3663
vtan -0.9315 -0.0179 -0.3632
vtan -0.8782 -0.1533 -0.4532
vtan -0.8787 0.1516 -0.4526
vtan -0.8162 0.409 -0.4081
vtan -0.8186 -0.4069 -0.4054
vtan -0.8183 0.4069 0.406
vtan -0.8129 -0.4101 0.4135
vtan -0.9882 0.1341 0.0736
vtan -0.5333 0.0726 0.8428
vtan -0.1508 -0.6778 0.7196
vtan -0.1564 -0.7031 0.6936
vtan 0.9786 0.183 0.0939
vtan 0.5298 0.099 0.8423
vtan -0.5333 0.0726 0.8428
vtan 0.197 -0.7007 0.6858
vtan 0.1861 -0.6618 0.7262
vtan 0.0885 -0.7157 0.6927
vtan 0.0851 -0.6883 0.7204
vtan -0.0032 -0.7223 0.6916
vtan -0.0031 -0.6925 0.7214
vtan -0.0829 -0.7126 0.6966
vtan -0.0805 -0.6924 0.717
vtan -0.5196 -0.519 0.6787
vtan -0.4071 -0.4103 0.816
vtan 0.4065 -0.4104 0.8163
vtan 0.5157 -0.5327 0.671
vtan -0.5201 0.5141 0.6821
vtan -0.4117 0.4046 0.8166
vtan -0.5196 -0.519 0.6787
vtan 0.5107 0.5348 0.6731
vtan 0.4077 0.4077 0.8171
vtan -0.4117 0.4046 0.8166
vtan 0.5157 -0.5327 0.671
vtan 0.4065 -0.4104 0.8163
vtan 0.4077 0.4077 0.8171
vtan -0.9986 0.0526 0.0
vtan -0.9998 0.018 -0.0
vtan -1.0 -0.0012 0.0
vtan -0.9939 -0.0009 0.1099
vtan -0.994 -0.0001 0.1092
vtan -1.0 -0.0015 -0.0
vtan -0.8165 -0.4086 -0.4079
vtan -0.8165 0.4086 0.408
vtan -1.0 0.0007 -0.0
vtan -1.0 0.0018 0.0
vtan -0.8663 -0.1497 0.4765
vtan -0.9225 -0.016 0.3857
vtan -0.9942 -0.0003 -0.1074
vtan -0.994 -0.0015 -0.1098
vtan -0.87 0.1537 0.4685
vtan -0.925 0.0209 0.3794
vtan 1.0 0.0 0.0
f 0/0/0/0 1/1/1/1 2/2/2/2 
f 0/0/0/0 2/2/2/2 3/3/3/3 
f 4/4/4/4 5/5/5/5 6/3/6/6 
f 4/4/4/4 6/3/6/6 7/6/7/7 
f 6/3/6/6 8/2/8/8 9/7/9/9 
f 6/3/6/6 9/7/9/9 7/6/7/7 
f 10/8/10/10 4/4/4/4 7/6/7/7 
f 11/8/11/11 12/9/12/12 13/10/13/13 
f 11/8/11/11 13/10/13/13 14/4/14/14 
f 14/4/14/14 13/10/13/13 15/11/15/15 
f 14/4/14/14 15/11/15/15 16/12/16/16 
f 17/5/17/17 14/4/14/14 16/12/16/16 
f 17/5/17/17 16/12/16/16 18/13/18/18 
f 17/5/17/17 18/13/18/18 3/3/3/3 
f 18/13/18/18 0/0/0/0 3/3/3/3 
f 1/1/1/1 19/14/19/19 20/7/20/20 
f 1/1/1/1 20/7/20/20 2/2/2/2 
f 19/14/19/19 21/15/21/21 22/6/22/22 
f 19/14/19/19 22/6/22/22 20/7/20/20 
f 21/15/21/21 23/16/23/23 22/6/22/22 
f 24/17/24/24 25/18/25/25 26/19/26/26 
f 24/17/24/24 26/19/26/26 27/20/27/27 
f 28/20/28/28 29/19/29/29 30/21/30/30 
f 28/20/28/28 30/21/30/30 31/22/31/31 
f 22/23/22/32 7/24/7/33 9/25/9/34 
f 22/23/22/32 9/25/9/34 20/26/20/35 
f 11/27/11/36 10/28/10/37 7/29/7/38 
f 11/27/11/36 7/29/7/38 22/30/22/32 
f 14/31/14/39 4/32/4/40 10/28/10/37 
f 14/31/14/39 10/28/10/37 11/27/11/36 
f 17/33/17/41 5/34/5/42 4/32/4/40 
f 17/33/17/41 4/32/4/40 14/31/14/39 
f 3/35/3/43 6/36/6/44 5/34/5/42 
f 3/35/3/43 5/34/5/42 17/33/17/41 
f 2/37/2/45 8/38/8/46 6/36/6/44 
f 2/37/2/45 6/36/6/44 3/35/3/43 
f 20/26/20/35 9/25/9/34 8/38/8/46 
f 20/26/20/35 8/38/8/46 2/37/2/45 
f 32/39/32/47 30/40/30/48 29/41/29/49 
f 32/39/32/47 29/41/29/49 26/42/26/50 
f 33/43/33/51 31/44/31/52 30/45/30/48 
f 33/43/33/51 30/45/30/48 32/46/32/53 
f 27/47/27/54 28/48/28/55 31/49/31/56 
f 27/47/27/54 31/49/31/56 33/50/33/51 
f 26/51/26/57 29/52/29/58 28/53/28/59 
f 26/51/26/57 28/53/28/59 27/54/27/54 
f 34/55/34/60 35/56/35/61 36/57/36/62 
f 37/58/37/63 38/59/38/64 39/60/39/65 
f 37/58/37/63 39/60/39/65 34/55/34/60 
f 36/57/36/62 35/56/35/61 40/61/40/66 
f 36/57/36/62 40/61/40/66 41/62/41/67 
f 36/57/36/62 41/62/41/67 42/63/42/68 
f 23/16/23/23 40/61/40/66 35/56/35/61 
f 23/16/23/23 35/56/35/61 34/55/34/60 
f 23/16/23/23 34/55/34/60 39/60/39/65 
f 12/9/12/12 11/8/11/11 43/64/43/69 
f 27/20/27/27 33/22/33/70 44/65/44/71 
f 27/20/27/27 44/65/44/71 24/17/24/24 
f 41/62/41/67 12/9/12/12 43/64/43/69 
f 41/62/41/67 43/64/43/69 42/63/42/68 
f 39/60/39/65 38/59/38/64 45/66/45/72 
f 39/60/39/65 45/66/45/72 43/64/43/69 
f 22/6/22/22 39/60/39/65 43/64/43/69 
f 22/6/22/22 43/64/43/69 11/8/11/11 
f 22/6/22/22 23/16/23/23 39/60/39/65 
f 46/67/46/73 45/66/45/72 25/18/25/25 
f 46/67/46/73 25/18/25/25 24/17/24/24 
f 33/22/33/70 32/21/32/74 47/68/47/75 
f 33/22/33/70 47/68/47/75 44/65/44/71 
f 37/58/37/63 46/67/46/73 24/17/24/24 
f 37/58/37/63 24/17/24/24 44/65/44/71 
f 32/21/32/74 26/19/26/26 25/18/25/25 
f 32/21/32/74 25/18/25/25 47/68/47/75 
f 44/65/44/71 47/68/47/75 38/59/38/64 
f 44/65/44/71 38/59/38/64 37/58/37/63 
f 47/68/47/75 25/18/25/25 45/66/45/72 
f 47/68/47/75 45/66/45/72 38/59/38/64 
f 42/63/42/68 43/64/43/69 45/66/45/72 
f 42/63/42/68 45/66/45/72 46/67/46/73 
f 36/57/36/62 42/63/42/68 46/67/46/73 
f 36/57/36/62 46/67/46/73 34/55/34/60 
f 37/58/37/63 34/55/34/60 46/67/46/73 
f 40/61/48/76 48/61/48/76 49/62/48/76 
f 40/61/48/76 49/62/48/76 41/62/48/76 
f 41/62/49/76 49/62/49/76 50/9/49/76 
f 41/62/50/76 50/9/50/76 12/9/50/76 
f 23/16/51/76 51/16/51/76 48/61/51/76 
f 23/16/52/76 48/61/52/76 40/61/52/76 
f 21/15/53/76 52/15/53/76 51/16/53/76 
f 21/15/54/76 51/16/54/76 23/16/54/76 
f 19/14/55/76 53/14/55/76 52/15/55/76 
f 19/14/56/76 52/15/56/76 21/15/56/76 
f 1/1/57/76 54/1/57/76 53/14/57/76 
f 1/1/58/76 53/14/58/76 19/14/58/76 
f 0/0/59/76 55/0/59/76 54/1/59/76 
f 0/0/59/76 54/1/59/76 1/1/59/76 
f 55/0/60/76 0/0/60/76 18/13/60/76 
f 55/0/60/76 18/13/60/76 56/13/60/76 
f 16/12/61/76 57/12/61/76 56/13/61/76 
f 16/12/62/76 56/13/62/76 18/13/62/76 
f 15/11/63/76 58/11/63/76 57/12/63/76 
f 15/11/64/76 57/12/64/76 16/12/64/76 
f 13/10/65/76 59/10/65/76 58/11/65/76 
f 13/10/66/76 58/11/66/76 15/11/66/76 
f 12/9/67/76 50/9/67/76 59/10/67/76 
f 12/9/68/76 59/10/68/76 13/10/68/76 
