v -972.9014 664.232 -640.8578
v -972.9014 664.232 -646.9678
v -972.0032 670.6964 -646.9678
v -972.0032 670.6964 -640.0362
v -973.7485 664.232 -640.126
v -972.7974 670.6964 -639.3498
v -1039.0024 670.6964 -639.3498
v -1038.0508 664.232 -640.126
v -965.9641 690.9597 -633.3974
v -1045.8357 690.9597 -633.3974
v -1045.877 686.5966 -633.3974
v -965.9231 686.5966 -633.3974
v -1046.6873 690.9597 -634.1328
v -1046.6873 690.9597 -646.9678
v -1046.6873 686.5966 -646.9678
v -1046.6873 686.5966 -634.0976
v -973.5605 660.3633 -641.4412
v -973.5605 660.3633 -646.9678
v -971.0186 662.2976 -646.9678
v -971.0186 662.2976 -639.3174
v -974.4238 660.3633 -640.6953
v -971.9656 662.2976 -638.4994
v -1039.8342 662.2976 -638.4994
v -1037.3757 660.3633 -640.6953
v -965.1128 690.9597 -634.1328
v -965.1128 690.9597 -646.9678
v -962.7449 693.1412 -646.9678
v -962.7449 693.1412 -632.1652
v -963.6863 693.1412 -631.352
v -1048.1138 693.1412 -631.352
v -965.1128 695.3228 -646.9678
v -965.1128 695.3228 -634.2106
v -966.0537 695.3228 -633.3974
v -1045.7458 695.3228 -633.3974
v -968.9602 679.6954 -637.4353
v -968.9602 679.6954 -646.9678
v -965.1128 686.5966 -646.9678
v -965.1128 686.5966 -634.0976
v -969.7866 679.6954 -636.7213
v -1042.0129 679.6954 -636.7213
v -1039.7969 670.6964 -640.0362
v -1038.8984 664.232 -640.8578
v -1040.7812 662.2976 -639.3174
v -1038.239 660.3633 -641.4412
v -1049.0547 693.1412 -632.1652
v -1046.6873 695.3228 -634.2106
v -1042.8394 679.6954 -637.4353
v -1046.6873 695.3228 -646.9678
v -1039.7969 670.6964 -646.9678
v -1038.8984 664.232 -646.9678
v -1040.7815 662.2976 -646.9678
v -1038.2395 660.3633 -646.9678
v -1049.0547 693.1412 -646.9678
v -1042.8394 679.6954 -646.9678
gi 0 0 0 0
gw 0.0 0.0 0.0 0.0
gi 0 0 0 0
gw 0.0 0.0 0.0 0.0
gi 0 0 0 0
gw 0.0 0.0 0.0 0.0
gi 0 0 0 0
gw 0.0 0.0 0.0 0.0
gi 0 0 0 0
gw 0.0 0.0 0.0 0.0
gi 0 0 0 0
gw 0.0 0.0 0.0 0.0
gi 0 0 0 0
gw 0.0 0.0 0.0 0.0
gi 0 0 0 0
gw 0.0 0.0 0.0 0.0
gi 0 0 0 0
gw 0.0 0.0 0.0 0.0
gi 0 0 0 0
gw 0.0 0.0 0.0 0.0
gi 0 0 0 0
gw 0.0 0.0 0.0 0.0
gi 0 0 0 0
gw 0.0 0.0 0.0 0.0
gi 0 0 0 0
gw 0.0 0.0 0.0 0.0
gi 0 0 0 0
gw 0.0 0.0 0.0 0.0
gi 0 0 0 0
gw 0.0 0.0 0.0 0.0
gi 0 0 0 0
gw 0.0 0.0 0.0 0.0
gi 0 0 0 0
gw 0.0 0.0 0.0 0.0
gi 0 0 0 0
gw 0.0 0.0 0.0 0.0
gi 0 0 0 0
gw 0.0 0.0 0.0 0.0
gi 0 0 0 0
gw 0.0 0.0 0.0 0.0
gi 0 0 0 0
gw 0.0 0.0 0.0 0.0
gi 0 0 0 0
gw 0.0 0.0 0.0 0.0
gi 0 0 0 0
gw 0.0 0.0 0.0 0.0
gi 0 0 0 0
gw 0.0 0.0 0.0 0.0
gi 0 0 0 0
gw 0.0 0.0 0.0 0.0
gi 0 0 0 0
gw 0.0 0.0 0.0 0.0
gi 0 0 0 0
gw 0.0 0.0 0.0 0.0
gi 0 0 0 0
gw 0.0 0.0 0.0 0.0
gi 0 0 0 0
gw 0.0 0.0 0.0 0.0
gi 0 0 0 0
gw 0.0 0.0 0.0 0.0
gi 0 0 0 0
gw 0.0 0.0 0.0 0.0
gi 0 0 0 0
gw 0.0 0.0 0.0 0.0
gi 0 0 0 0
gw 0.0 0.0 0.0 0.0
gi 0 0 0 0
gw 0.0 0.0 0.0 0.0
gi 0 0 0 0
gw 0.0 0.0 0.0 0.0
gi 0 0 0 0
gw 0.0 0.0 0.0 0.0
gi 0 0 0 0
gw 0.0 0.0 0.0 0.0
gi 0 0 0 0
gw 0.0 0.0 0.0 0.0
gi 0 0 0 0
gw 0.0 0.0 0.0 0.0
gi 0 0 0 0
gw 0.0 0.0 0.0 0.0
gi 0 0 0 0
gw 0.0 0.0 0.0 0.0
gi 0 0 0 0
gw 0.0 0.0 0.0 0.0
gi 0 0 0 0
gw 0.0 0.0 0.0 0.0
gi 0 0 0 0
gw 0.0 0.0 0.0 0.0
gi 0 0 0 0
gw 0.0 0.0 0.0 0.0
gi 0 0 0 0
gw 0.0 0.0 0.0 0.0
gi 0 0 0 0
gw 0.0 0.0 0.0 0.0
gi 0 0 0 0
gw 0.0 0.0 0.0 0.0
gi 0 0 0 0
gw 0.0 0.0 0.0 0.0
gi 0 0 0 0
gw 0.0 0.0 0.0 0.0
gi 0 0 0 0
gw 0.0 0.0 0.0 0.0
gi 0 0 0 0
gw 0.0 0.0 0.0 0.0
gi 0 0 0 0
gw 0.0 0.0 0.0 0.0
gi 0 0 0 0
gw 0.0 0.0 0.0 0.0
vt 0.4476 0.6911
vt 0.2773 0.6911
vt 0.2773 0.6742
vt 0.4476 0.6742
vt 0.4453 0.6933
vt 0.2795 0.6933
vt 0.5504 0.8881
vt 0.5337 0.8881
vt 0.5337 0.9084
vt 0.5526 0.9084
vt 0.6076 0.8897
vt 0.6053 0.91
vt 0.7614 0.91
vt 0.7592 0.8897
vt 0.5892 0.9737
vt 0.7775 0.9737
vt 0.7776 0.96
vt 0.5891 0.96
vt 0.7937 0.9733
vt 0.8287 0.9733
vt 0.8287 0.9596
vt 0.7936 0.9596
vt 0.9865 0.7672
vt 0.9619 0.7672
vt 0.9632 0.7791
vt 0.9959 0.7791
vt 0.0112 0.7672
vt 0.0111 0.779
vt 0.2524 0.779
vt 0.2525 0.7672
vt 0.5546 0.882
vt 0.5337 0.882
vt 0.6034 0.8836
vt 0.7634 0.8836
vt 0.5687 0.9721
vt 0.5337 0.9721
vt 0.5337 0.979
vt 0.5741 0.979
vt 0.5839 0.9806
vt 0.7829 0.9806
vt 0.5337 0.9859
vt 0.5685 0.9859
vt 0.5894 0.9875
vt 0.7773 0.9875
vt 0.5597 0.9367
vt 0.5337 0.9367
vt 0.5337 0.9584
vt 0.5688 0.9584
vt 0.5982 0.9383
vt 0.7685 0.9383
vt 0.605 0.8907
vt 0.6028 0.9094
vt 0.8073 0.909
vt 0.8098 0.9096
vt 0.8121 0.8892
vt 0.8095 0.8902
vt 0.5867 0.9726
vt 0.5865 0.9593
vt 0.7912 0.9721
vt 0.791 0.9589
vt 0.6007 0.8862
vt 0.8079 0.8832
vt 0.8052 0.8857
vt 0.0079 0.7672
vt 0.0078 0.7789
vt 0.2558 0.7672
vt 0.2559 0.779
vt 0.5815 0.9806
vt 0.786 0.9801
vt 0.7884 0.9801
vt 0.5871 0.99
vt 0.7916 0.9896
vt 0.7939 0.987
vt 0.5957 0.9372
vt 0.8027 0.9379
vt 0.8002 0.9367
vt 0.1674 0.876
vt 0.1655 0.8746
vt 0.0109 0.8746
vt 0.0091 0.8976
vt 0.0091 0.876
vt 0.1674 0.8976
vt 0.8287 0.9096
vt 0.8287 0.8892
vt 0.2874 0.779
vt 0.2803 0.7672
vt 0.8287 0.8832
vt 0.8287 0.9801
vt 0.8287 0.987
vt 0.8287 0.9379
vn 0.0 -1.0 -0.0
vn 0.0 -1.0 0.0
vn 0.0 -1.0 0.0001
vn 0.0 -1.0 -0.0002
vn 0.8519 0.3925 0.3468
vn 0.9502 0.3116 0.0
vn 0.9732 -0.23 0.0
vn 0.8738 -0.2937 0.3876
vn 0.2732 0.3543 0.8943
vn 0.3221 -0.2664 0.9085
vn -0.322 -0.2664 0.9085
vn -0.2731 0.3543 0.8944
vn 0.2669 -0.4559 0.8491
vn -0.2668 -0.4559 0.8491
vn -0.3578 -0.2715 0.8935
vn 0.3578 -0.2715 0.8935
vn -0.8 -0.5006 0.3306
vn -0.9159 -0.4015 0.0
vn -0.9678 -0.2516 0.0
vn -0.8657 -0.2827 0.4132
vn 0.3225 -0.9398 0.1133
vn 0.3198 -0.9475 0.0
vn 0.9972 -0.0742 0.0
vn 0.889 -0.0601 0.454
vn 0.0841 -0.9305 0.3565
vn 0.4114 -0.0637 0.9092
vn -0.4114 -0.0637 0.9092
vn -0.084 -0.9305 0.3565
vn 0.8 -0.5007 0.3306
vn 0.9158 -0.4015 0.0
vn 1.0 -0.0 0.0
vn 0.8896 0.0025 0.4567
vn 0.4138 0.003 0.9103
vn -0.4139 0.003 0.9103
vn 0.3637 0.9315 0.0
vn 0.3667 0.9213 0.1296
vn 0.0967 0.9109 0.4011
vn -0.0967 0.9109 0.4012
vn 0.7955 -0.4977 0.3457
vn 0.9142 -0.4053 0.0
vn 0.9678 -0.2516 0.0
vn 0.8657 -0.2827 0.4132
vn 0.2907 -0.4578 0.8402
vn -0.2907 -0.4578 0.8402
vn -0.8738 -0.2937 0.3876
vn -0.8518 0.3926 0.3469
vn -0.8889 -0.0601 0.4541
vn -0.3224 -0.9398 0.1133
vn -0.8897 0.0025 0.4566
vn -0.3667 0.9213 0.1296
vn -0.7955 -0.4977 0.3458
vn -0.3637 0.9315 0.0
vn -0.9732 -0.23 0.0
vn -0.9502 0.3116 0.0
vn -0.9972 -0.0742 0.0
vn -0.3198 -0.9475 0.0
vn -1.0 -0.0 0.0
vn -0.9142 -0.4053 0.0
vtan 1.0 0.0 0.0 1.0
vtan 1.0 0.0 0.0 1.0
vtan -0.315 -0.1451 0.9379 -1.0
vtan 0.0 0.0 1.0 -1.0
vtan -0.3674 0.1235 0.9218 -1.0
vtan -0.9617 0.1216 0.2456 -1.0
vtan -0.9467 -0.0832 0.3112 -1.0
vtan -0.9467 0.0906 -0.309 -1.0
vtan -0.962 -0.1006 -0.2539 -1.0
vtan -0.9637 -0.1347 0.2306 -1.0
vtan -0.9637 0.1262 -0.2351 -1.0
vtan -0.9338 0.104 -0.3423 -1.0
vtan -0.9336 -0.1228 0.3366 -1.0
vtan -0.3052 -0.1348 -0.9427 -1.0
vtan 0.0 0.0 -1.0 -1.0
vtan -0.3941 -0.1243 -0.9106 -1.0
vtan -0.0368 0.1071 0.9936 -1.0
vtan -0.0 0.0 1.0 -1.0
vtan -0.453 0.0306 0.891 -1.0
vtan -0.9632 0.0158 0.2683 -1.0
vtan -0.9112 -0.0044 0.412 -1.0
vtan -0.911 -0.0037 -0.4124 -1.0
vtan -0.9632 -0.0159 -0.2683 -1.0
vtan -0.453 0.0306 0.891 -1.0
vtan 0.0 0.0 1.0 -1.0
vtan -0.8669 0.2807 0.4119 -1.0
vtan -0.9115 0.0287 -0.4104 -1.0
vtan -0.2803 0.1754 0.9438 -1.0
vtan -0.4567 -0.0013 0.8896 -1.0
vtan -0.9103 0.0147 0.4138 -1.0
vtan -0.9103 -0.0014 -0.4139 -1.0
vtan -0.0 -0.0 1.0 -1.0
vtan -0.0479 -0.1204 0.9916 -1.0
vtan -0.9939 0.1098 -0.0096 -1.0
vtan -0.9953 -0.0885 -0.039 -1.0
vtan -0.2931 0.1834 0.9383 -1.0
vtan -0.3928 0.1283 0.9107 -1.0
vtan -0.9568 -0.149 0.2498 -1.0
vtan -0.9568 0.1391 -0.2552 -1.0
vtan -0.5157 0.5131 0.6861 -1.0
vtan -0.4735 -0.3319 0.8159 -1.0
vtan -0.8806 -0.268 -0.3907 -1.0
vtan -0.3754 -0.0994 -0.9215 -1.0
vtan -0.3027 0.1717 -0.9375 -1.0
vtan -0.7382 0.519 -0.431 -1.0
vtan -0.5724 -0.4719 0.6705 -1.0
vtan -0.4927 -0.3351 0.8031 -1.0
vtan -0.7222 -0.4888 -0.4894 -1.0
vtan -0.843 -0.3176 -0.4341 -1.0
vtan -0.2554 0.7579 0.6004 -1.0
vtan -0.4512 0.2848 -0.8457 -1.0
vtan -0.7286 0.6223 -0.2861 -1.0
vtan -0.7153 -0.1635 0.6795 -1.0
vtan -0.4566 -0.0402 0.8887 -1.0
vtan -0.3652 0.013 -0.9308 -1.0
vtan -0.455 0.0029 -0.8905 -1.0
vtan -0.4567 0.001 0.8896 -1.0
vtan -0.9098 0.033 -0.4138 -1.0
vtan -0.4566 -0.0001 -0.8897 -1.0
vtan -0.9243 0.3449 0.1635 -1.0
vtan -0.1909 0.3786 -0.9057 -1.0
vtan -0.1171 0.0925 -0.9888 -1.0
vtan -0.5872 -0.492 0.6427 -1.0
vtan -0.3015 -0.1698 -0.9382 -1.0
vtan -0.7041 -0.4922 -0.5118 -1.0
vtan -0.9303 -0.3632 -0.0511 -1.0
vtan -0.9953 -0.0885 -0.039 -1.0
vtan -0.9953 0.0902 0.0352 -1.0
vtan -0.9315 0.3637 -0.0005 -1.0
vtan -0.9302 0.3652 0.0357 -1.0
vtan -0.9315 -0.3637 0.0 -1.0
vtan -0.0 0.0 -1.0 -1.0
vtan -0.0001 0.0 -1.0 -1.0
vtan -0.0 -0.0 -1.0 -1.0
f 16/0/0/0 43/1/0/1 51/2/0/1 
f 16/0/1/0 51/2/1/0 17/3/1/0 
f 43/1/2/0 16/0/2/0 20/4/2/0 
f 43/1/3/0 20/4/3/0 23/5/3/0 
f 0/6/4/2 1/7/5/3 2/8/6/3 
f 0/6/4/2 2/8/6/3 3/9/7/4 
f 4/10/8/5 5/11/9/6 6/12/10/7 
f 4/10/8/5 6/12/10/7 7/13/11/8 
f 8/14/12/9 9/15/13/10 10/16/14/11 
f 8/14/12/9 10/16/14/11 11/17/15/12 
f 12/18/16/13 13/19/17/14 14/20/18/14 
f 12/18/16/13 14/20/18/14 15/21/19/15 
f 16/22/20/16 17/23/21/17 18/24/22/3 
f 16/22/20/16 18/24/22/3 19/25/23/18 
f 20/26/24/19 21/27/25/20 22/28/26/21 
f 20/26/24/19 22/28/26/21 23/29/27/22 
f 0/6/4/2 19/30/23/23 18/31/22/24 
f 0/6/4/2 18/31/22/24 1/7/5/3 
f 21/32/25/25 4/10/8/5 7/13/11/8 
f 21/32/25/25 7/13/11/8 22/33/26/26 
f 24/34/28/27 25/35/29/3 26/36/30/3 
f 24/34/28/27 26/36/30/3 27/37/31/28 
f 8/14/12/9 28/38/32/29 29/39/33/30 
f 8/14/12/9 29/39/33/30 9/15/13/10 
f 26/36/30/3 30/40/34/31 31/41/35/32 
f 26/36/30/3 31/41/35/32 27/37/31/28 
f 28/38/32/29 32/42/36/33 33/43/37/34 
f 28/38/32/29 33/43/37/34 29/39/33/30 
f 34/44/38/35 35/45/39/3 36/46/40/24 
f 34/44/38/35 36/46/40/24 37/47/41/36 
f 38/48/42/37 11/17/15/12 10/16/14/11 
f 38/48/42/37 10/16/14/11 39/49/43/38 
f 3/9/7/4 2/8/6/3 35/45/39/3 
f 3/9/7/4 35/45/39/3 34/44/38/35 
f 5/11/9/6 38/48/42/37 39/49/43/38 
f 5/11/9/6 39/49/43/38 6/12/10/7 
f 0/50/4/39 3/51/7/40 5/11/9/6 
f 0/50/4/39 5/11/9/6 4/10/8/5 
f 6/52/10/41 40/53/44/42 41/54/45/43 
f 6/52/10/41 41/54/45/43 7/55/11/44 
f 24/56/28/45 8/14/12/9 11/17/15/12 
f 24/56/28/45 11/17/15/12 37/57/41/46 
f 9/58/13/47 12/18/16/13 15/21/19/15 
f 9/58/13/47 15/21/19/15 10/59/14/48 
f 0/50/4/39 4/10/8/5 21/32/25/25 
f 0/50/4/39 21/32/25/25 19/60/23/49 
f 41/54/45/43 42/61/46/50 22/62/26/51 
f 41/54/45/43 22/62/26/51 7/55/11/44 
f 21/27/25/20 20/26/24/19 16/63/20/52 
f 21/27/25/20 16/63/20/52 19/64/23/53 
f 43/65/47/54 23/29/27/22 22/28/26/21 
f 43/65/47/54 22/28/26/21 42/66/46/55 
f 24/56/28/45 27/67/31/56 28/38/32/29 
f 24/56/28/45 28/38/32/29 8/14/12/9 
f 29/68/33/57 44/69/48/58 12/18/16/13 
f 29/68/33/57 12/18/16/13 9/58/13/47 
f 31/70/35/59 32/42/36/33 28/38/32/29 
f 31/70/35/59 28/38/32/29 27/67/31/56 
f 29/68/33/57 33/71/37/60 45/72/49/61 
f 29/68/33/57 45/72/49/61 44/69/48/58 
f 34/73/38/62 37/57/41/46 11/17/15/12 
f 34/73/38/62 11/17/15/12 38/48/42/37 
f 10/59/14/48 15/21/19/15 46/74/50/63 
f 10/59/14/48 46/74/50/63 39/75/43/64 
f 3/51/7/40 34/73/38/62 38/48/42/37 
f 3/51/7/40 38/48/42/37 5/11/9/6 
f 39/75/43/64 46/74/50/63 40/53/44/42 
f 39/75/43/64 40/53/44/42 6/52/10/41 
f 45/76/49/65 33/77/37/66 32/78/36/67 
f 45/76/49/65 32/78/36/67 30/79/34/68 
f 32/78/36/67 31/80/35/69 30/79/34/68 
f 47/81/51/70 45/76/49/65 30/79/34/68 
f 41/54/45/43 40/53/44/42 48/82/52/14 
f 41/54/45/43 48/82/52/14 49/83/53/14 
f 24/34/28/27 37/47/41/36 36/46/40/24 
f 24/34/28/27 36/46/40/24 25/35/29/3 
f 43/65/47/54 42/66/46/55 50/84/54/71 
f 43/65/47/54 50/84/54/71 51/85/55/72 
f 50/86/54/73 42/61/46/50 41/54/45/43 
f 50/86/54/73 41/54/45/43 49/83/53/14 
f 12/18/16/13 44/69/48/58 52/87/56/14 
f 12/18/16/13 52/87/56/14 13/19/17/14 
f 52/87/56/14 44/69/48/58 45/72/49/61 
f 52/87/56/14 45/72/49/61 47/88/51/14 
f 46/74/50/63 15/21/19/15 14/20/18/14 
f 46/74/50/63 14/20/18/14 53/89/57/14 
f 40/53/44/42 46/74/50/63 53/89/57/14 
f 40/53/44/42 53/89/57/14 48/82/52/14 
