v 1302.2208 415.5302 574.7062
v 1302.2208 867.387 574.7063
v 1302.2208 630.334 40.6199
v 1302.2208 415.5303 40.6199
v -1431.2 415.5302 574.7062
v -1431.2 867.387 574.7063
v -1431.2 415.5304 -640.6331
v -1431.2 867.3872 -640.6331
v 1301.2717 415.5304 -640.6331
v 1301.2717 867.3872 -640.6331
v 1301.2717 415.5303 -108.8413
v 1301.2717 630.334 -108.8413
v 1301.3904 668.5286 -97.0878
v 1301.9835 700.2623 3.2546
v 1301.7462 867.3871 -34.1107
v 1301.7463 715.8831 -34.1107
v 1301.509 700.2623 -71.476
v 1302.1022 667.4775 28.8101
gi 0 0 0 0
gi 0 0 0 0
gi 0 0 0 0
gi 0 0 0 0
gi 0 0 0 0
gi 0 0 0 0
gi 0 0 0 0
gi 0 0 0 0
gi 0 0 0 0
gi 0 0 0 0
gi 0 0 0 0
gi 0 0 0 0
gi 0 0 0 0
gi 0 0 0 0
gi 0 0 0 0
gi 0 0 0 0
gi 0 0 0 0
gi 0 0 0 0
gw 0.0 0.0 0.0 0.0
gw 0.0 0.0 0.0 0.0
gw 0.0 0.0 0.0 0.0
gw 0.0 0.0 0.0 0.0
gw 0.0 0.0 0.0 0.0
gw 0.0 0.0 0.0 0.0
gw 0.0 0.0 0.0 0.0
gw 0.0 0.0 0.0 0.0
gw 0.0 0.0 0.0 0.0
gw 0.0 0.0 0.0 0.0
gw 0.0 0.0 0.0 0.0
gw 0.0 0.0 0.0 0.0
gw 0.0 0.0 0.0 0.0
gw 0.0 0.0 0.0 0.0
gw 0.0 0.0 0.0 0.0
gw 0.0 0.0 0.0 0.0
gw 0.0 0.0 0.0 0.0
gw 0.0 0.0 0.0 0.0
vt 11.3032 0.0
vt 11.3032 1.2937
vt 9.774 0.615
vt 9.774 0.0
vt 19.1294 0.0
vt 19.1294 1.2937
vt 22.6091 0.0
vt 22.6091 1.2937
vt 7.8235 0.0
vt 7.8235 1.2937
vt 0.0 1.2937
vt 0.0 0.0
vt 9.3461 0.0
vt 9.3461 0.615
vt 9.3797 0.7244
vt 9.667 0.8152
vt 9.5601 1.2937
vt 9.5601 0.86
vt 9.4531 0.8152
vt 9.7402 0.7214
vn -0.7071 0.0 -0.7071
vn -0.7072 -0.0003 -0.707
vn -1.0 -0.0012 0.0005
vn -1.0 -0.0 0.0
vn 0.7071 -0.0 -0.7071
vn 0.7071 -0.0 -0.7071
vn 0.7071 0.0 0.7071
vn 0.7071 0.0 0.7071
vn -0.7071 -0.0 0.7071
vn -0.707 0.0003 0.7072
vn -1.0 -0.0 0.0
vn -1.0 0.0012 0.0005
vn -1.0 0.0027 0.0012
vn -1.0 -0.0016 0.0013
vn -1.0 -0.0 0.0016
vn -1.0 0.0 0.0011
vn -1.0 0.0016 0.0014
vn -1.0 -0.0027 0.0012
vtan -0.7071 0.0 0.7071
vtan -0.707 0.0 0.7072
vtan 0.0005 0.0001 1.0
vtan 0.0 -0.0 1.0
vtan -0.7071 0.0 -0.7071
vtan -0.7071 0.0 -0.7071
vtan 0.7071 0.0 -0.7071
vtan 0.7071 0.0 -0.7071
vtan 0.7071 -0.0 0.7071
vtan 0.7072 -0.0 0.707
vtan 0.7071 -0.0 -0.7071
vtan 0.7071 -0.0 -0.7071
vtan 0.0 -0.0 1.0
vtan 0.0005 -0.0001 1.0
vtan 0.0012 0.0 1.0
vtan 0.0013 0.0001 1.0
vtan 0.0016 -0.0 1.0
vtan 0.0011 -0.0 1.0
vtan 0.0014 -0.0002 1.0
vtan 0.0012 0.0 1.0
f 0/0/0/0 1/1/1/1 2/2/2/2 
f 0/0/0/0 2/2/2/2 3/3/3/3 
f 1/1/1/1 0/0/0/0 4/4/4/4 
f 1/1/1/1 4/4/4/4 5/5/5/5 
f 6/6/6/6 7/7/7/7 5/5/5/5 
f 6/6/6/6 5/5/5/5 4/4/4/4 
f 8/8/8/8 9/9/9/9 7/10/7/10 
f 8/8/8/8 7/10/7/10 6/11/6/11 
f 8/8/8/8 10/12/10/12 11/13/11/13 
f 8/8/8/8 11/13/11/13 9/9/9/9 
f 11/13/11/13 12/14/12/14 9/9/9/9 
f 13/15/13/15 1/1/1/1 14/16/14/16 
f 13/15/13/15 14/16/14/16 15/17/15/17 
f 14/16/14/16 9/9/9/9 16/18/16/18 
f 14/16/14/16 16/18/16/18 15/17/15/17 
f 13/15/13/15 17/19/17/19 1/1/1/1 
f 12/14/12/14 16/18/16/18 9/9/9/9 
f 17/19/17/19 2/2/2/2 1/1/1/1 
