v -596.9531 133.7513 143.3417
v -620.6443 213.3199 143.3417
v -617.1665 214.3549 143.3417
v -593.4753 134.7863 143.3417
gi 0 0 0 0
gw 0.0 0.0 0.0 0.0
gi 0 0 0 0
gw 0.0 0.0 0.0 0.0
gi 0 0 0 0
gw 0.0 0.0 0.0 0.0
gi 0 0 0 0
gw 0.0 0.0 0.0 0.0
vt 0.677 0.0
vt 0.6789 3.1013
vt 0.1485 3.1033
vt 0.1467 0.0
vn 0.0 0.0 -1.0
vn 0.0 0.0 -1.0
vn 0.0 0.0 -1.0
vn 0.0 0.0 -1.0
vtan -0.9586 -0.2848 -0.0 1.0
vtan -0.9626 -0.2711 -0.0 1.0
vtan -0.9624 -0.2715 -0.0 1.0
vtan -0.9585 -0.2852 -0.0 1.0
f 0/0/0/0 1/1/1/1 2/2/2/2 
f 0/0/0/0 2/2/2/2 3/3/3/3 
