v -1428.5195 -2.62 -644.3114
v -138.0726 -2.62 -644.311
v -138.0726 213.1809 -644.3109
v -1428.5195 403.448 -644.3113
v -1428.5195 403.4478 574.0294
v -1428.5195 -2.6202 574.0293
v -505.7598 274.4986 574.0295
v -505.7598 122.0266 574.0294
v 1302.1907 403.4478 574.0298
v 1302.1907 403.448 -643.3616
v 1302.1907 -2.62 -643.3617
v 1302.1907 -2.6202 574.0297
v 11.3885 213.1809 -643.3618
v 11.3885 -2.62 -643.3619
v -0.3649 251.3754 -643.4805
v -63.342 403.448 -643.8364
v -100.7073 283.1091 -644.0737
v -63.342 298.7299 -643.8364
v -25.9767 283.1091 -643.5991
v -126.2628 250.3243 -644.1923
v 234.1777 121.5846 574.0295
v 20.3049 -2.6202 574.0295
v 20.3049 236.9391 574.0295
v 234.1777 274.6842 574.0295
v 129.6147 403.4478 574.0295
v -143.0181 236.9391 574.0295
v -254.3566 403.4478 574.0295
v 381.4524 121.5846 574.0295
v 381.4524 274.6842 574.0295
v -359.3141 274.4986 574.0295
v -359.3141 122.0266 574.0294
v -143.0181 -2.6202 574.0294
gi 0 0 0 0
gw 0.0 0.0 0.0 0.0
gi 0 0 0 0
gw 0.0 0.0 0.0 0.0
gi 0 0 0 0
gw 0.0 0.0 0.0 0.0
gi 0 0 0 0
gw 0.0 0.0 0.0 0.0
gi 0 0 0 0
gw 0.0 0.0 0.0 0.0
gi 0 0 0 0
gw 0.0 0.0 0.0 0.0
gi 0 0 0 0
gw 0.0 0.0 0.0 0.0
gi 0 0 0 0
gw 0.0 0.0 0.0 0.0
gi 0 0 0 0
gw 0.0 0.0 0.0 0.0
gi 0 0 0 0
gw 0.0 0.0 0.0 0.0
gi 0 0 0 0
gw 0.0 0.0 0.0 0.0
gi 0 0 0 0
gw 0.0 0.0 0.0 0.0
gi 0 0 0 0
gw 0.0 0.0 0.0 0.0
gi 0 0 0 0
gw 0.0 0.0 0.0 0.0
gi 0 0 0 0
gw 0.0 0.0 0.0 0.0
gi 0 0 0 0
gw 0.0 0.0 0.0 0.0
gi 0 0 0 0
gw 0.0 0.0 0.0 0.0
gi 0 0 0 0
gw 0.0 0.0 0.0 0.0
gi 0 0 0 0
gw 0.0 0.0 0.0 0.0
gi 0 0 0 0
gw 0.0 0.0 0.0 0.0
gi 0 0 0 0
gw 0.0 0.0 0.0 0.0
gi 0 0 0 0
gw 0.0 0.0 0.0 0.0
gi 0 0 0 0
gw 0.0 0.0 0.0 0.0
gi 0 0 0 0
gw 0.0 0.0 0.0 0.0
gi 0 0 0 0
gw 0.0 0.0 0.0 0.0
gi 0 0 0 0
gw 0.0 0.0 0.0 0.0
gi 0 0 0 0
gw 0.0 0.0 0.0 0.0
gi 0 0 0 0
gw 0.0 0.0 0.0 0.0
gi 0 0 0 0
gw 0.0 0.0 0.0 0.0
gi 0 0 0 0
gw 0.0 0.0 0.0 0.0
gi 0 0 0 0
gw 0.0 0.0 0.0 0.0
gi 0 0 0 0
gw 0.0 0.0 0.0 0.0
vt 0.0 0.9877
vt 4.8538 0.9877
vt 4.8538 1.7994
vt 0.0 2.5151
vt 25.1211 0.9877
vt 29.7036 0.9877
vt 29.7036 2.5151
vt 25.1211 2.5151
vt 21.6503 2.03
vt 21.6503 1.4565
vt 14.85 2.5151
vt 10.271 2.5151
vt 10.271 0.9877
vt 14.85 0.9877
vt 5.4159 1.7994
vt 5.4159 0.9877
vt 5.3717 1.9431
vt 5.1349 2.5151
vt 4.9943 2.0624
vt 5.1349 2.1212
vt 5.2754 2.0624
vt 4.8982 1.9391
vt 18.8672 1.4549
vt 19.6716 0.9877
vt 19.6716 1.8888
vt 18.8672 2.0307
vt 19.2604 2.5151
vt 20.2859 1.8888
vt 20.7047 2.5151
vt 18.3132 1.4549
vt 18.3132 2.0307
vt 21.0995 2.03
vt 21.0995 1.4565
vt 20.2859 0.9877
vn 0.7071 -0.0 0.7071
vn -0.0 -0.0 1.0
vn -0.0002 -0.0015 1.0
vn 0.7071 -0.0002 0.7071
vn 0.7071 0.0 -0.7071
vn 0.7071 0.0 -0.7071
vn 0.0 0.0 -1.0
vn 0.0 0.0 -1.0
vn -0.7071 0.0 -0.7071
vn -0.7071 0.0002 0.7071
vn -0.7071 -0.0 0.7071
vn -0.7071 0.0 -0.7071
vn -0.0002 0.0015 1.0
vn -0.0 -0.0 1.0
vn -0.0005 0.0032 1.0
vn -0.0004 0.0 1.0
vn -0.0005 -0.0022 1.0
vn -0.0005 -0.0 1.0
vn -0.0012 0.002 1.0
vn -0.0005 -0.0032 1.0
vn -0.0 0.0 -1.0
vn -0.0 0.0 -1.0
vn -0.0 0.0 -1.0
vn 0.0 0.0 -1.0
vn 0.0 0.0 -1.0
vn 0.0 0.0 -1.0
vn -0.0 0.0 -1.0
vn 0.0 -0.0 -1.0
vn 0.0 0.0 -1.0
vn -0.0 0.0 -1.0
vn 0.0 0.0 -1.0
vn 0.0 0.0 -1.0
vtan 0.7071 0.0 -0.7071 1.0
vtan 1.0 -0.0 0.0 1.0
vtan 1.0 0.0 0.0002 1.0
vtan 0.7071 0.0002 -0.7071 1.0
vtan -0.7071 -0.0 -0.7071 1.0
vtan 0.7071 -0.0 -0.7071 1.0
vtan 0.7071 -0.0002 -0.7071 1.0
vtan -0.7071 -0.0 -0.7071 1.0
vtan -1.0 -0.0 -0.0 1.0
vtan -1.0 -0.0 -0.0 1.0
vtan -0.7071 0.0 0.7071 1.0
vtan 0.7071 -0.0 0.7071 1.0
vtan 0.7071 -0.0 0.7071 1.0
vtan -0.7071 -0.0 0.7071 1.0
vtan 1.0 0.0 0.0002 1.0
vtan 1.0 0.0 0.0 1.0
vtan 1.0 -0.0 0.0005 1.0
vtan 1.0 0.0 0.0004 1.0
vtan 1.0 -0.0001 0.0005 1.0
vtan 1.0 0.0 0.0005 1.0
vtan 1.0 0.0001 0.0012 1.0
vtan 1.0 0.0 0.0005 1.0
vtan -1.0 -0.0 0.0 1.0
vtan -1.0 0.0 0.0 1.0
vtan -1.0 -0.0 0.0 1.0
vtan -1.0 -0.0 -0.0 1.0
vtan -1.0 -0.0 -0.0 1.0
vtan -1.0 0.0 -0.0 1.0
vtan -1.0 0.0 0.0 1.0
vtan -1.0 0.0 -0.0 1.0
vtan -1.0 0.0 -0.0 1.0
vtan -1.0 0.0001 0.0 1.0
vtan -1.0 0.0 0.0 1.0
vtan -1.0 0.0 -0.0 1.0
f 0/0/0/0 1/1/1/1 2/2/2/2 
f 0/0/0/0 2/2/2/2 3/3/3/3 
f 5/4/4/4 0/5/0/5 3/6/3/6 
f 5/4/4/4 3/6/3/6 4/7/5/7 
f 6/8/6/8 7/9/7/9 5/4/4/4 
f 6/8/6/8 5/4/4/4 4/7/5/7 
f 8/10/8/10 9/11/9/11 10/12/10/12 
f 8/10/8/10 10/12/10/12 11/13/11/13 
f 10/12/10/12 9/11/9/11 12/14/12/14 
f 10/12/10/12 12/14/12/14 13/15/13/15 
f 12/14/12/14 9/11/9/11 14/16/14/16 
f 15/17/15/17 3/3/3/3 16/18/16/18 
f 15/17/15/17 16/18/16/18 17/19/17/19 
f 18/20/18/20 9/11/9/11 15/17/15/17 
f 18/20/18/20 15/17/15/17 17/19/17/19 
f 16/18/16/18 3/3/3/3 19/21/19/21 
f 14/16/14/16 9/11/9/11 18/20/18/20 
f 19/21/19/21 3/3/3/3 2/2/2/2 
f 20/22/20/22 21/23/21/23 22/24/22/24 
f 20/22/20/22 22/24/22/24 23/25/23/25 
f 24/26/24/26 23/25/23/25 22/24/22/24 
f 24/26/24/26 22/24/22/24 25/27/25/27 
f 24/26/24/26 25/27/25/27 26/28/26/28 
f 27/29/27/29 28/30/28/30 8/10/8/10 
f 27/29/27/29 8/10/8/10 11/13/11/13 
f 28/30/28/30 23/25/23/25 24/26/24/26 
f 28/30/28/30 24/26/24/26 8/10/8/10 
f 21/23/21/23 20/22/20/22 27/29/27/29 
f 21/23/21/23 27/29/27/29 11/13/11/13 
f 29/31/29/31 26/28/26/28 25/27/25/27 
f 29/31/29/31 25/27/25/27 30/32/30/32 
f 31/33/31/33 30/32/30/32 25/27/25/27 
f 26/28/26/28 29/31/29/31 6/8/6/8 
f 26/28/26/28 6/8/6/8 4/7/5/7 
f 31/33/31/33 5/4/4/4 7/9/7/9 
f 31/33/31/33 7/9/7/9 30/32/30/32 
