v 13.0236 106.091 -632.6351
v 7.5583 106.091 -638.4227
v 7.6073 -2.2154 -638.4227
v 13.0236 -2.2154 -632.6351
v -133.8666 106.091 -638.4227
v -140.4469 106.091 -632.6351
v -140.4469 -2.2154 -632.6351
v -133.6947 -2.2154 -638.4227
v -64.6553 274.4285 -650.9271
v -64.6553 214.3973 -650.9271
v -13.8584 214.3973 -650.9271
v -33.5597 256.1385 -650.9271
v -15.4563 224.4109 -650.9271
v -21.8018 240.0881 -650.9271
v -47.7438 266.9632 -650.9271
v -107.2797 240.2747 -650.9271
v -113.252 225.5307 -650.9271
v -114.6992 214.3973 -650.9271
v -77.7916 268.6429 -650.9271
v -95.1486 256.3251 -650.9271
v -133.9867 181.8054 -638.4227
v -140.4469 181.8054 -632.6351
v -64.6553 206.8674 -650.9271
v -12.6567 206.8674 -650.9269
v -115.6781 206.8674 -650.9271
v -12.3615 4.5265 -649.822
v -11.9106 106.091 -649.822
v -64.6553 106.091 -649.822
v -64.6553 4.5265 -649.822
v -115.4349 4.5265 -649.822
v -116.3365 106.091 -649.822
v 13.0236 181.8054 -632.6351
v 7.3284 181.8054 -638.4227
v -106.5963 173.3191 -643.2865
v -105.1941 175.1138 -643.2865
v -105.9232 176.9086 -643.2865
v -105.0819 181.8054 -643.2865
v -105.1941 177.806 -643.2865
v -117.0085 181.8054 -643.2865
v -116.8197 160.5315 -643.2865
v -111.532 165.5229 -643.2865
v -113.8876 161.7651 -643.2865
v -109.9054 169.1125 -643.2865
v -105.3063 170.7952 -643.2865
v -106.8767 169.0565 -643.2865
v -113.8876 161.7651 -649.822
v -116.8197 160.5315 -649.822
v -64.6553 181.8054 -649.822
v -105.0819 181.8054 -649.822
v -105.1941 177.806 -649.822
v -105.1941 175.1138 -649.822
v -105.9232 176.9086 -649.822
v -106.5963 173.3191 -649.822
v -105.3063 170.7952 -649.822
v -106.8767 169.0565 -649.822
v -111.532 165.5229 -649.822
v -109.9054 169.1125 -649.822
v -23.1501 178.3564 -649.822
v -23.2648 181.8054 -649.822
v -23.0354 175.1464 -649.822
v -13.004 160.5292 -649.822
v -11.6698 160.3564 -649.822
v -15.5835 162.8794 -649.822
v -21.545 170.5033 -649.822
v -17.0166 167.2933 -649.822
v -19.3094 170.6179 -649.822
v -22.4623 171.7071 -649.822
v -21.6024 174.1719 -649.822
v -22.3475 177.4966 -649.822
v -13.004 160.5292 -643.2864
v -11.6698 160.3564 -643.2864
v -11.5746 181.8054 -643.2864
v -17.0166 167.2933 -643.2864
v -23.2648 181.8054 -643.2864
v -23.1501 178.3564 -643.2864
v -22.3475 177.4966 -643.2864
v -23.0354 175.1464 -643.2864
v -21.6024 174.1719 -643.2864
v -22.4623 171.7071 -643.2864
v -21.545 170.5033 -643.2864
v -19.3094 170.6179 -643.2864
v -15.5835 162.8794 -643.2864
v -11.5746 181.8054 -638.4227
v -11.9106 106.091 -638.4227
v -117.0085 181.8054 -638.4227
v -64.6553 181.8054 -638.4227
v -12.3615 4.5265 -638.4227
v -64.6553 4.5265 -638.4227
v -115.4349 4.5265 -638.4227
v -116.3365 106.091 -638.4227
v -134.0385 214.3973 -638.4227
v -140.4469 214.3973 -632.635
v 13.0236 214.3973 -632.635
v 7.2294 214.3973 -638.4227
v -64.6553 206.8674 -638.4227
v -12.6567 206.8674 -638.4225
v -115.6781 206.8674 -638.4227
v -114.6992 214.3973 -638.4227
v -113.252 225.5307 -638.4227
v -107.2797 240.2747 -638.4227
v -95.1486 256.3251 -638.4227
v -77.7916 268.6429 -638.4227
v -64.6553 274.4285 -638.4227
v -47.7438 266.9632 -638.4227
v -33.5597 256.1385 -638.4227
v -21.8018 240.0881 -638.4227
v -15.4563 224.4109 -638.4227
v -13.8584 214.3973 -638.4227
v 13.0236 -2.2154 -651.5385
v -64.6553 -2.2154 -651.5385
v -64.6553 -2.2154 -638.4227
v -140.4469 106.091 -651.5385
v -140.4469 -2.2154 -651.5385
v 13.0236 181.8054 -651.5385
v 13.0236 214.3973 -651.5385
v -47.5054 295.7638 -651.5385
v -64.6553 300.3858 -651.5385
v -64.6553 300.3858 -632.635
v -47.5054 295.7638 -632.635
v -27.1805 285.5953 -651.5385
v -27.1805 285.5953 -632.635
v -11.9369 271.3594 -651.5385
v -11.9369 271.3594 -632.635
v 3.3066 248.6189 -651.5385
v 3.3066 248.6189 -632.635
v 10.9285 226.0633 -651.5385
v 10.9285 226.0633 -632.635
v -79.0089 296.5033 -651.5385
v -79.0089 296.5033 -632.635
v -94.2526 289.8476 -651.5385
v -94.2526 289.8476 -632.635
v -110.8512 277.6454 -651.5385
v -110.8512 277.6454 -632.635
v -125.7561 259.342 -651.5385
v -125.7561 259.342 -632.635
v -135.9185 238.2655 -651.5385
v -140.4469 214.3973 -651.5385
v -135.9185 238.2655 -632.635
v -140.4469 181.8054 -651.5385
v 13.0236 106.091 -651.5385
v -48.4528 290.4057 -638.4227
v -31.267 280.7817 -638.4227
v -64.6553 293.8429 -638.4227
v -128.8827 236.7858 -638.4227
v -119.2585 255.3466 -638.4227
v -105.1661 273.5636 -638.4227
v -89.3551 285.25 -638.4227
v -16.4871 267.0329 -638.4227
v -0.3324 245.7225 -638.4227
v 4.926 223.9394 -638.4227
vt -0.0 0.3361
vt 0.0175 0.3361
vt 0.0174 -0.0
vt 0.0 0.0
vt 0.4715 0.3361
vt 0.4926 0.3361
vt 0.4926 0.0
vt 0.4709 0.0
vt 0.2493 0.8585
vt 0.2493 0.6722
vt 0.0863 0.6722
vt 0.1495 0.8017
vt 0.0914 0.7033
vt 0.1118 0.7519
vt 0.195 0.8353
vt 0.3861 0.7525
vt 0.4053 0.7068
vt 0.4099 0.6722
vt 0.2915 0.8406
vt 0.3472 0.8023
vt 0.4718 0.5711
vt 0.4926 0.5711
vt 0.2493 0.6488
vt 0.0824 0.6488
vt 0.4131 0.6488
vt 0.0815 0.0209
vt 0.08 0.3361
vt 0.2493 0.3361
vt 0.2493 0.0209
vt 0.4123 0.0209
vt 0.4152 0.3361
vt -0.0 0.5711
vt 0.0183 0.5711
vt 0.3839 0.5447
vt 0.3794 0.5503
vt 0.3818 0.5559
vt 0.3791 0.5711
vt 0.3794 0.5587
vt 0.4173 0.5711
vt 0.4167 0.5051
vt 0.3998 0.5205
vt 0.4073 0.5089
vt 0.3945 0.5317
vt 0.3798 0.5369
vt 0.3848 0.5315
vt 0.2493 0.5711
vt 0.1161 0.5604
vt 0.1165 0.5711
vt 0.1157 0.5504
vt 0.0835 0.505
vt 0.0793 0.5045
vt 0.0918 0.5123
vt 0.111 0.536
vt 0.0964 0.526
vt 0.1038 0.5364
vt 0.1139 0.5397
vt 0.1111 0.5474
vt 0.1135 0.5577
vt 0.0789 0.5711
vt 0.0261 0.5672
vt 0.041 0.5672
vt 0.041 0.5015
vt 0.0261 0.3353
vt 0.4345 0.5207
vt 0.4544 0.5207
vt 0.4544 0.4719
vt 0.4345 0.3062
vt 0.0224 0.3478
vt 0.0224 0.3716
vt 0.0611 0.3716
vt 0.0611 0.3478
vt 0.4812 0.4719
vt 0.4812 0.3062
vt 0.4812 0.1366
vt 0.4544 0.1366
vt 0.0611 0.37
vt 0.0611 0.3494
vt 0.0224 0.3494
vt 0.0224 0.37
vt 0.0611 0.3632
vt 0.0611 0.3562
vt 0.0224 0.3562
vt 0.0224 0.3632
vt 0.0611 0.367
vt 0.0611 0.3524
vt 0.0224 0.3524
vt 0.0224 0.367
vt 0.0611 0.3648
vt 0.0611 0.3546
vt 0.0224 0.3546
vt 0.0224 0.3648
vt 0.0611 0.3674
vt 0.0611 0.352
vt 0.0224 0.352
vt 0.0224 0.3674
vt 0.0611 0.3642
vt 0.0611 0.3552
vt 0.0224 0.3552
vt 0.0224 0.3642
vt 0.0224 0.3531
vt 0.0224 0.3663
vt 0.0611 0.3663
vt 0.0611 0.3531
vt 0.0611 0.3734
vt 0.0611 0.3459
vt 0.0224 0.3459
vt 0.0224 0.3734
vt 0.0611 0.3637
vt 0.0611 0.3557
vt 0.0224 0.3557
vt 0.0224 0.3637
vt 0.061 0.5015
vt 0.061 0.3353
vt 0.061 0.0241
vt 0.0261 0.0241
vt 0.1511 0.019
vt 0.2554 0.019
vt 0.2554 0.0037
vt 0.1511 0.0037
vt 0.3566 0.019
vt 0.3566 0.0037
vt 0.435 0.0212
vt 0.435 0.3371
vt 0.4704 0.3371
vt 0.4704 0.0212
vt 0.435 0.5064
vt 0.4553 0.5064
vt 0.0224 0.1989
vt 0.0224 0.2177
vt 0.0611 0.2177
vt 0.0611 0.1989
vt 0.0224 0.244
vt 0.0611 0.244
vt 0.0224 0.2674
vt 0.0611 0.2674
vt 0.0224 0.2853
vt 0.0611 0.2853
vt 0.0224 0.2992
vt 0.0611 0.2992
vt 0.0224 0.316
vt 0.0611 0.316
vt 0.0224 0.3295
vt 0.0611 0.3295
vt 0.0224 0.341
vt 0.0611 0.341
vt 0.4553 0.5726
vt 0.4704 0.5726
vt 0.4544 0.0887
vt 0.4345 0.0887
vt 0.472 0.6722
vt 0.4926 0.6722
vt -0.0 0.6722
vt 0.0186 0.6722
vt 0.0686 0.4293
vt 0.0686 0.2905
vt 0.0282 0.2905
vt 0.0282 0.4293
vt 0.0686 0.1542
vt 0.0282 0.1542
vt 0.0686 0.1341
vt 0.0282 0.1341
vt 0.0686 0.1044
vt 0.0282 0.1044
vt 0.0686 0.065
vt 0.0282 0.065
vt 0.0686 0.0222
vt 0.0282 0.0222
vt 0.0686 0.7252
vt 0.0686 0.6789
vt 0.0282 0.6789
vt 0.0282 0.7252
vt 0.0686 0.6438
vt 0.0282 0.6438
vt 0.0686 0.5987
vt 0.0282 0.5987
vt 0.0686 0.5608
vt 0.0282 0.5608
vt 0.0686 0.518
vt 0.0282 0.518
vt 0.0686 0.4761
vt 0.0282 0.4761
vt 0.0686 0.4494
vt 0.0282 0.4494
vt 0.0177 0.5497
vt 0.0636 0.5497
vt 0.0636 0.5308
vt 0.0177 0.2777
vt 0.0636 0.2777
vt 0.0177 0.4157
vt 0.0177 0.7082
vt 0.0636 0.7082
vt 0.0636 0.4157
vt 0.0177 0.0007
vt 0.0177 0.1149
vt 0.0636 0.1149
vt 0.0636 0.0007
vt 0.0177 0.0123
vt 0.0636 0.036
vt 0.0636 0.0123
vt 0.0177 0.4389
vt 0.0177 0.4989
vt 0.0636 0.4989
vt 0.0636 0.4389
vt 0.0177 0.3677
vt 0.0636 0.3677
vt 0.0177 0.3143
vt 0.0636 0.3143
vt 0.0177 0.2347
vt 0.0636 0.2347
vt 0.0177 0.1557
vt 0.0636 0.1557
vt 0.0177 0.5492
vt 0.0636 0.5492
vt 0.0177 0.6026
vt 0.0636 0.6026
vt 0.0177 0.6607
vt 0.0636 0.6607
vt 0.0177 0.7248
vt 0.0636 0.7248
vt 0.0177 0.0588
vt 0.0177 0.1233
vt 0.0636 0.1233
vt 0.0636 0.0588
vt 0.0177 0.0019
vt 0.0636 0.0019
vt 0.0177 0.2113
vt 0.0636 0.2113
vt 0.0636 0.3876
vt 0.0636 0.0083
vt 0.0177 0.0083
vt 0.0177 0.3876
vt 0.0636 0.6527
vt 0.0177 0.6527
vt 0.1973 0.9081
vt 0.1422 0.8782
vt 0.129 0.8932
vt 0.1943 0.9247
vt 0.2493 0.9188
vt 0.4555 0.7417
vt 0.478 0.7463
vt 0.2493 -0.0
vt 0.4246 0.7993
vt 0.4454 0.8117
vt 0.3793 0.8558
vt 0.3976 0.8685
vt 0.3286 0.8921
vt 0.3443 0.9064
vt 0.2954 0.927
vt 0.2493 0.9391
vt 0.0947 0.8356
vt 0.0801 0.849
vt 0.0429 0.7694
vt 0.0312 0.7784
vt 0.026 0.7018
vt 0.0067 0.7084
vn 0.3712 -0.0008 0.9285
vn -0.3948 -0.0003 0.9188
vn -0.2906 -0.6814 0.6718
vn 0.3088 -0.5451 0.7794
vn 0.3525 0.0003 0.9358
vn -0.4124 0.0005 0.911
vn -0.3462 -0.5513 0.7591
vn 0.2124 -0.7944 0.5691
vn -0.0003 -0.7794 0.6266
vn -0.0 0.0 1.0
vn -0.6983 -0.1114 0.7071
vn -0.526 -0.5157 0.6763
vn -0.7041 -0.1959 0.6826
vn -0.6402 -0.3568 0.6803
vn -0.3723 -0.63 0.6815
vn 0.6387 -0.3623 0.6788
vn 0.7096 -0.1865 0.6795
vn 0.7012 -0.0912 0.7071
vn 0.3595 -0.6336 0.6851
vn 0.5143 -0.5299 0.6743
vn 0.3572 0.0006 0.934
vn -0.4085 0.0006 0.9128
vn -0.0 0.7071 0.7071
vn -0.6254 0.5335 0.5695
vn 0.6169 0.5419 0.5709
vn -0.576 0.5785 0.5776
vn -0.7071 0.0031 0.7071
vn 0.0 0.0 1.0
vn 0.0 0.7071 0.7071
vn 0.5746 0.5797 0.5778
vn 0.7071 0.0063 0.7071
vn 0.3786 -0.0013 0.9256
vn -0.3872 -0.0006 0.922
vn 0.524 -0.0501 0.8502
vn 0.7849 -0.1095 0.6099
vn 0.6502 -0.0971 0.7535
vn 0.2996 -0.9075 0.2943
vn 0.7193 -0.2668 0.6414
vn 0.5801 -0.575 0.5769
vn 0.9453 -0.2498 0.2099
vn 0.6358 -0.3413 0.6923
vn 0.4949 -0.5822 0.6451
vn 0.3022 -0.4785 0.8245
vn 0.7939 -0.1046 0.5989
vn 0.3105 -0.7165 0.6246
vn 0.404 -0.4752 0.7817
vn 0.668 -0.4394 0.6007
vn -0.0 -0.7071 0.7071
vn 0.5685 -0.5846 0.5788
vn 0.5784 -0.2145 0.7871
vn 0.5391 -0.0753 0.8389
vn 0.7849 -0.1172 0.6085
vn 0.7935 -0.0759 0.6038
vn 0.5068 -0.0668 0.8595
vn 0.2337 -0.5394 0.8089
vn 0.6358 -0.3413 0.6923
vn 0.4265 -0.6752 0.6018
vn -0.5607 -0.2319 0.7949
vn -0.5668 -0.586 0.5791
vn -0.4706 -0.1688 0.8661
vn -0.2624 -0.5663 0.7814
vn -0.6108 -0.5344 0.5842
vn -0.5669 -0.3657 0.7382
vn -0.2355 -0.5079 0.8286
vn -0.6607 -0.3264 0.676
vn -0.3496 -0.7093 0.6121
vn -0.6508 -0.1035 0.7521
vn -0.765 -0.2527 0.5924
vn -0.7703 -0.1829 0.6108
vn -0.3211 -0.6931 0.6453
vn -0.9188 -0.2874 0.2705
vn -0.5788 -0.5762 0.5771
vn -0.602 -0.2974 0.7411
vn -0.2992 -0.9081 0.293
vn -0.7132 -0.2949 0.6359
vn -0.5322 -0.1264 0.8371
vn -0.7561 -0.2712 0.5956
vn -0.4639 -0.1532 0.8725
vn -0.7792 -0.1239 0.6145
vn -0.3315 -0.7149 0.6156
vn -0.2434 -0.4938 0.8348
vn -0.6359 -0.4102 0.6538
vn -0.3014 -0.3001 0.9051
vn -0.7071 0.0031 0.7071
vn 0.3013 -0.2986 0.9056
vn -0.0 -0.7071 0.7071
vn -0.3016 0.303 0.904
vn 0.0 0.7071 0.7071
vn 0.3017 0.3044 0.9035
vn 0.7071 0.0063 0.7071
vn 0.3712 -0.0397 0.9277
vn -0.454 0.0404 0.8901
vn 0.4286 0.0303 0.903
vn -0.3995 -0.0429 0.9157
vn -0.0 0.7071 0.7071
vn -0.2938 0.2506 0.9224
vn 0.2958 0.2598 0.9193
vn 0.7012 -0.0912 0.7071
vn 0.6537 -0.1719 0.7369
vn 0.5872 -0.3331 0.7378
vn 0.466 -0.4802 0.7431
vn 0.3369 -0.5939 0.7306
vn -0.0002 -0.5863 0.8101
vn -0.3452 -0.5841 0.7346
vn -0.4797 -0.4704 0.7407
vn -0.5914 -0.3296 0.736
vn -0.6549 -0.1822 0.7334
vn -0.6983 -0.1114 0.7071
vn 0.7071 -0.7071 -0.0
vn 0.0 -1.0 -0.0
vn 0.0 -0.7071 0.7071
vn -1.0 0.0 0.0
vn -0.7071 -0.7071 -0.0
vn 1.0 0.0 0.0
vn 0.9961 0.0887 0.0
vn 0.3556 0.9346 0.0
vn -0.0005 1.0 0.0
vn 0.0064 0.5159 0.8566
vn 0.1634 0.3998 0.9019
vn 0.5709 0.821 0.0
vn 0.2533 0.384 0.8879
vn 0.7616 0.6481 0.0
vn 0.3449 0.2774 0.8967
vn 0.8968 0.4423 0.0
vn 0.388 0.1836 0.9032
vn 0.9685 0.2491 0.0
vn 0.4002 0.1081 0.91
vn -0.3315 0.9434 0.0
vn -0.1446 0.4277 0.8923
vn -0.4993 0.8664 0.0
vn -0.235 0.4054 0.8834
vn -0.6894 0.7244 0.0
vn -0.3246 0.3579 0.8755
vn -0.8439 0.5366 0.0
vn -0.4111 0.2616 0.8732
vn -0.9497 0.313 0.0
vn -0.9956 0.0936 0.0
vn -0.4621 0.148 0.8744
vn 1.0 0.0 0.0
vn -0.1496 -0.3835 0.9113
vn -0.2278 -0.326 0.9175
vn 0.0125 -0.4101 0.9119
vn 0.3388 -0.1201 0.9332
vn 0.2908 -0.1855 0.9386
vn 0.2498 -0.2663 0.931
vn 0.1728 -0.3312 0.9276
vn -0.2998 -0.2603 0.9178
vn -0.3966 -0.1848 0.8992
vn -0.3758 -0.0931 0.922
vtan -0.9285 -0.002 0.3712 -1.0
vtan -0.9188 0.0 -0.3948 -1.0
vtan -0.9177 -0.0004 -0.3973 -1.0
vtan -0.7071 -0.6797 -0.1952 -1.0
vtan -0.9358 -0.0 0.3525 -1.0
vtan -0.911 -0.0012 -0.4124 -1.0
vtan -0.7606 0.6386 0.1168 -1.0
vtan -0.9376 -0.0015 0.3478 -1.0
vtan -1.0 0.0001 -0.0004 -1.0
vtan -1.0 0.0 -0.0 -1.0
vtan -0.7158 0.1089 -0.6897 -1.0
vtan -0.8505 0.3183 -0.4187 -1.0
vtan -0.7101 0.204 -0.6739 -1.0
vtan -0.7682 0.2971 -0.5671 -1.0
vtan -0.9281 0.252 -0.2741 -1.0
vtan -0.7695 -0.3008 0.5634 -1.0
vtan -0.7046 -0.2004 0.6807 -1.0
vtan -0.7129 -0.0901 0.6954 -1.0
vtan -0.9332 -0.2457 0.2624 -1.0
vtan -0.8576 -0.3154 0.4062 -1.0
vtan -0.934 -0.0001 0.3572 -1.0
vtan -0.9128 -0.0014 -0.4085 -1.0
vtan -1.0 -0.0 -0.0 -1.0
vtan -0.7803 -0.4275 -0.4564 -1.0
vtan -0.7871 0.4247 0.4474 -1.0
vtan -0.8175 -0.4076 -0.4069 -1.0
vtan -0.7071 -0.0032 -0.7071 -1.0
vtan -1.0 0.0 0.0 -1.0
vtan -1.0 0.0 0.0 -1.0
vtan -0.8185 0.4069 0.4056 -1.0
vtan -0.7071 0.0062 0.7071 -1.0
vtan -0.9256 -0.0033 0.3786 -1.0
vtan -0.922 0.0001 -0.3872 -1.0
vtan -0.8517 -0.0384 0.5227 -1.0
vtan -0.6196 -0.1387 0.7725 -1.0
vtan -0.7132 0.2639 0.6494 -1.0
vtan -0.9541 -0.2847 0.0933 -1.0
vtan -0.6947 -0.2662 0.6683 -1.0
vtan -0.8145 -0.4096 0.4109 -1.0
vtan -0.3262 -0.7276 0.6035 -1.0
vtan -0.7718 -0.2908 0.5655 -1.0
vtan -0.869 -0.3323 0.3667 -1.0
vtan -0.9521 -0.1093 0.2856 -1.0
vtan -0.608 -0.1375 0.7819 -1.0
vtan -0.9506 -0.2353 0.2026 -1.0
vtan -0.9148 -0.21 0.3451 -1.0
vtan -0.7442 -0.3972 0.5371 -1.0
vtan -1.0 -0.0 -0.0 -1.0
vtan -0.8227 -0.404 0.4 -1.0
vtan -0.8158 -0.1524 0.5579 -1.0
vtan -0.8423 -0.0471 0.537 -1.0
vtan -0.6196 -0.1484 0.7707 -1.0
vtan -0.6085 -0.0869 0.7888 -1.0
vtan -0.8621 -0.0382 0.5054 -1.0
vtan -0.9723 -0.1292 0.1948 -1.0
vtan -0.7718 -0.2699 0.5757 -1.0
vtan -0.9045 -0.3197 0.2824 -1.0
vtan -0.828 0.1556 -0.5386 -1.0
vtan -0.8239 0.4031 -0.3984 -1.0
vtan -0.8824 0.091 -0.4617 -1.0
vtan -0.965 0.1558 -0.2111 -1.0
vtan -0.7917 0.4183 -0.4452 -1.0
vtan -0.8238 0.2512 -0.5082 -1.0
vtan -0.9719 0.1238 -0.2004 -1.0
vtan -0.7504 0.2636 -0.6062 -1.0
vtan -0.9369 0.2668 -0.2259 -1.0
vtan -0.7592 0.087 -0.645 -1.0
vtan -0.644 0.3106 -0.6991 -1.0
vtan -0.6376 0.208 -0.7418 -1.0
vtan -0.947 0.2381 -0.2155 -1.0
vtan -0.3946 0.6794 -0.6187 -1.0
vtan -0.8155 0.4089 -0.4096 -1.0
vtan -0.7985 0.2234 -0.559 -1.0
vtan -0.9542 0.2848 -0.0919 -1.0
vtan -0.701 0.2986 -0.6477 -1.0
vtan -0.8466 0.0793 -0.5263 -1.0
vtan -0.6545 0.3197 -0.6852 -1.0
vtan -0.8859 0.0842 -0.4562 -1.0
vtan -0.6267 0.1763 -0.7591 -1.0
vtan -0.9434 0.2549 -0.212 -1.0
vtan -0.9699 0.1232 -0.2099 -1.0
vtan -0.7718 0.3371 -0.5392 -1.0
vtan -0.6414 -0.6385 -0.4253 -1.0
vtan -0.4089 -0.4071 -0.8167 -1.0
vtan -0.2582 -0.0805 -0.9627 -1.0
vtan -0.7071 0.0031 -0.7071 -1.0
vtan 0.6437 -0.6369 -0.4242 -1.0
vtan 0.4097 -0.4061 -0.8168 -1.0
vtan 0.094 -0.2789 -0.9557 -1.0
vtan 0.0001 -0.7071 -0.7071 -1.0
vtan -0.7379 0.2737 0.6169 -1.0
vtan -0.4035 0.415 0.8154 -1.0
vtan -0.0923 0.2795 0.9557 -1.0
vtan -0.6014 0.2231 0.7672 -1.0
vtan 0.4035 -0.415 -0.8154 -1.0
vtan -0.0 -0.7071 -0.7071 -1.0
vtan -0.4026 -0.4163 -0.8152 -1.0
vtan -0.0917 -0.2783 -0.9561 -1.0
vtan -0.4026 -0.4163 -0.8152 -1.0
vtan -0.7346 -0.3038 -0.6067 -1.0
vtan -0.5877 -0.243 -0.7717 -1.0
vtan -0.0917 -0.2783 -0.9561 -1.0
vtan -0.5943 -0.1411 -0.7918 -1.0
vtan -0.8145 -0.1934 -0.547 -1.0
vtan -0.5877 -0.243 -0.7717 -1.0
vtan -0.5943 -0.1411 -0.7918 -1.0
vtan -0.8152 -0.2924 -0.4999 -1.0
vtan -0.5606 -0.2011 -0.8033 -1.0
vtan -0.8145 -0.1934 -0.547 -1.0
vtan -0.8152 -0.2924 -0.4999 -1.0
vtan -0.5625 -0.1858 -0.8056 -1.0
vtan -0.8285 -0.2736 -0.4886 -1.0
vtan -0.5606 -0.2011 -0.8033 -1.0
vtan -0.5625 -0.1858 -0.8056 -1.0
vtan -0.7428 -0.1181 -0.659 -1.0
vtan -0.6068 -0.0965 -0.789 -1.0
vtan -0.8285 -0.2736 -0.4886 -1.0
vtan -0.7428 -0.1181 -0.659 -1.0
vtan -0.3486 -0.7517 -0.5598 -1.0
vtan -0.259 -0.5585 -0.788 -1.0
vtan -0.6068 -0.0965 -0.789 -1.0
vtan 0.3486 0.7517 0.5598 -1.0
vtan 0.2706 0.549 0.7908 -1.0
vtan 0.3691 0.7488 0.5505 -1.0
vtan 0.259 0.5585 0.788 -1.0
vtan -0.2706 -0.549 -0.7908 -1.0
vtan -0.6061 -0.2994 -0.7369 -1.0
vtan -0.6644 -0.3282 -0.6714 -1.0
vtan -0.3691 -0.7488 -0.5505 -1.0
vtan -0.6061 -0.2994 -0.7369 -1.0
vtan -0.6203 -0.4001 -0.6746 -1.0
vtan -0.5494 -0.3544 -0.7567 -1.0
vtan -0.6644 -0.3282 -0.6714 -1.0
vtan -0.6203 -0.4001 -0.6746 -1.0
vtan -0.3285 -0.709 -0.6241 -1.0
vtan -0.2713 -0.5855 -0.7639 -1.0
vtan -0.5494 -0.3544 -0.7567 -1.0
vtan -0.3285 -0.709 -0.6241 -1.0
vtan -0.4396 -0.3847 -0.8116 -1.0
vtan -0.2581 -0.0807 -0.9627 -1.0
vtan -0.2713 -0.5855 -0.7639 -1.0
vtan -0.4396 -0.3847 -0.8116 -1.0
vtan -0.7071 0.0031 -0.7071 -1.0
vtan -0.4075 0.4093 -0.8163 -1.0
vtan -0.6378 0.6406 -0.4275 -1.0
vtan -0.8175 -0.4076 -0.4069 -1.0
vtan -0.9534 -0.0958 -0.286 -1.0
vtan -0.8185 0.4069 0.4056 -1.0
vtan -0.9534 0.0963 0.2859 -1.0
vtan -0.4068 -0.4104 0.8162 -1.0
vtan -0.7071 -0.0063 0.7071 -1.0
vtan -0.7071 -0.0063 0.7071 -1.0
vtan -0.636 -0.6417 0.4286 -1.0
vtan -0.5018 0.3301 0.7995 -1.0
vtan -0.2032 0.0525 0.9777 -1.0
vtan -0.5018 0.3301 0.7995 -1.0
vtan -0.5063 0.5956 0.6237 -1.0
vtan -0.4178 0.4915 0.7641 -1.0
vtan -0.2029 0.0536 0.9777 -1.0
vtan -0.61 0.3275 0.7216 -1.0
vtan -0.6099 0.3275 0.7216 -1.0
vtan -0.3214 0.5088 0.7986 -1.0
vtan -0.4403 0.697 0.5659 -1.0
vtan -0.3216 0.7423 0.5879 -1.0
vtan -0.2483 0.5732 0.7809 -1.0
vtan -0.8521 0.1123 0.5112 -1.0
vtan -0.5938 0.0782 0.8008 -1.0
vtan -0.601 0.0575 0.7972 -1.0
vtan -0.8463 0.081 0.5264 -1.0
vtan -0.8308 0.116 0.5443 -1.0
vtan -0.604 0.0843 0.7925 -1.0
vtan -0.6018 0.0898 0.7936 -1.0
vtan -0.7453 0.1113 0.6574 -1.0
vtan -0.4097 0.4061 0.8168 -1.0
vtan -0.6434 0.6373 0.4242 -1.0
vtan -0.6414 -0.6385 -0.4253 -1.0
vtan -0.9284 0.0002 0.3715 -1.0
vtan -0.8878 -0.1053 -0.4481 -1.0
vtan -0.9013 0.0845 0.425 -1.0
vtan -0.9166 0.0002 -0.3998 -1.0
vtan -0.4333 0.3696 -0.822 -1.0
vtan -0.0 0.7071 -0.7071 -1.0
vtan -0.0 0.7071 -0.7071 -1.0
vtan -0.7018 0.5987 -0.3861 -1.0
vtan 0.4289 0.3767 -0.821 -1.0
vtan 0.6907 0.6067 -0.3936 -1.0
vtan 0.7012 -0.0912 -0.7071 -1.0
vtan 0.7012 -0.0912 -0.7071 -1.0
vtan 0.6572 -0.1728 -0.7337 -1.0
vtan 0.7127 -0.1874 -0.676 -1.0
vtan 0.5904 -0.3349 -0.7343 -1.0
vtan 0.6417 -0.364 -0.6751 -1.0
vtan 0.4696 -0.4839 -0.7384 -1.0
vtan 0.5175 -0.5333 -0.6692 -1.0
vtan 0.4696 -0.4839 -0.7384 -1.0
vtan 0.338 -0.5959 -0.7285 -1.0
vtan 0.3605 -0.6354 -0.6828 -1.0
vtan 0.5175 -0.5333 -0.6692 -1.0
vtan -0.0003 -0.6266 -0.7794 -1.0
vtan -0.0003 -0.8101 -0.5863 -1.0
vtan -0.3468 -0.5867 -0.7318 -1.0
vtan -0.3738 -0.6324 -0.6785 -1.0
vtan -0.4829 -0.4735 -0.7366 -1.0
vtan -0.5289 -0.5186 -0.6718 -1.0
vtan -0.5943 -0.3312 -0.7329 -1.0
vtan -0.6429 -0.3583 -0.677 -1.0
vtan -0.6576 -0.183 -0.7308 -1.0
vtan -0.7066 -0.1966 -0.6798 -1.0
vtan -0.6983 -0.1114 -0.7071 -1.0
vtan -0.6983 -0.1114 -0.7071 -1.0
vtan -0.0006 -0.0006 1.0 -1.0
vtan -0.3842 0.6781 0.6265 -1.0
vtan 0.2628 0.6183 0.7408 -1.0
vtan -0.0001 -0.0 1.0 -1.0
vtan -0.0001 0.7071 0.7071 -1.0
vtan 0.0 0.0 1.0 -1.0
vtan -0.0 -0.0 1.0 -1.0
vtan 0.4037 0.6429 0.651 -1.0
vtan 0.911 -0.0012 0.4124 -1.0
vtan 0.0 0.0 1.0 -1.0
vtan -0.9007 -0.0636 0.4297 -1.0
vtan -0.9255 0.0033 0.3786 -1.0
vtan -0.0004 0.0004 1.0 -1.0
vtan -0.1478 0.5495 0.8223 -1.0
vtan 0.4037 0.6429 0.651 -1.0
vtan -0.0106 -0.8566 0.5159 -1.0
vtan -0.3411 -0.8349 0.4319 -1.0
vtan -0.4889 -0.7412 0.46 -1.0
vtan -0.6987 -0.562 0.4426 -1.0
vtan -0.8164 -0.3864 0.4292 -1.0
vtan -0.8785 -0.2374 0.4146 -1.0
vtan 0.2859 -0.8452 0.4515 -1.0
vtan 0.443 -0.7643 0.4686 -1.0
vtan 0.5882 -0.6485 0.4832 -1.0
vtan 0.7368 -0.4687 0.4873 -1.0
vtan 0.8866 -0.0789 0.4558 -1.0
vtan 0.8327 -0.2666 0.4852 -1.0
vtan 0.7368 -0.4687 0.4873 -1.0
vtan 0.9128 -0.0014 0.4085 -1.0
vtan -0.9285 0.002 0.3712 -1.0
vtan -0.3842 0.6781 0.6265 -1.0
vtan 0.0 -0.0 1.0 -1.0
vtan -0.7071 -0.0031 -0.7071 -1.0
vtan -0.9534 -0.0957 -0.286 -1.0
vtan -0.9535 0.0948 -0.2861 -1.0
vtan -0.9559 -0.0768 -0.2835 -1.0
vtan -0.9861 -0.0097 -0.1659 -1.0
vtan -0.97 -0.0055 -0.2428 -1.0
vtan -0.9351 0.3325 0.123 -1.0
vtan -0.9773 0.1905 0.0926 -1.0
vtan -0.9999 -0.0024 0.0127 -1.0
vtan -1.0 -0.0001 -0.0003 -1.0
vtan -0.9385 0.2148 -0.2703 -1.0
vtan -0.94 -0.0004 0.3412 -1.0
vtan -0.8619 -0.3072 -0.4035 -1.0
vtan -0.713 -0.0897 0.6955 -1.0
vtan -0.7567 -0.1482 0.6367 -1.0
vtan -0.9535 -0.0943 0.2861 -1.0
vtan -0.9553 0.0802 0.2847 -1.0
vtan -0.7071 0.0063 0.7071 -1.0
vtan -0.9534 0.0962 0.286 -1.0
vtan -0.9552 -0.0005 0.2958 -1.0
vtan -0.8781 -0.3707 -0.3024 -1.0
vtan -0.9654 0.0053 0.2606 -1.0
vtan -0.9063 -0.3825 -0.1797 -1.0
vtan -0.9824 0.0094 0.1864 -1.0
vtan -0.9475 -0.2984 -0.1151 -1.0
vtan -0.9823 -0.1707 -0.0774 -1.0
vtan -1.0 0.0017 0.0064 -1.0
vtan -0.9504 -0.0026 -0.3112 -1.0
vtan -0.9015 0.364 0.2341 -1.0
vtan -0.9142 -0.009 -0.4051 -1.0
vtan -0.8512 0.4472 0.2747 -1.0
vtan -0.9261 0.0026 -0.3773 -1.0
vtan -0.8996 0.2357 0.3677 -1.0
vtan -1.0 0.0 -0.0 -1.0
vtan -1.0 -0.0 -0.0 -1.0
vtan -0.7158 0.1084 -0.6898 -1.0
vtan -0.9415 -0.2126 0.2614 -1.0
vtan -0.8848 -0.2529 0.3914 -1.0
vtan -0.8095 -0.242 0.535 -1.0
vtan -0.8774 0.258 -0.4044 -1.0
vtan -0.8064 0.2421 -0.5395 -1.0
vtan -0.7557 0.1575 -0.6357 -1.0
f 0/0/0/0 1/1/1/1 2/2/2/2 
f 0/0/0/0 2/2/2/2 3/3/3/3 
f 4/4/4/4 5/5/5/5 6/6/6/6 
f 4/4/4/4 6/6/6/6 7/7/7/7 
f 8/8/8/8 9/9/9/9 10/10/10/10 
f 8/8/8/8 10/10/10/10 11/11/11/11 
f 10/10/10/10 12/12/12/12 13/13/13/13 
f 10/10/10/10 13/13/13/13 11/11/11/11 
f 14/14/14/14 8/8/8/8 11/11/11/11 
f 15/15/15/15 16/16/16/16 17/17/17/17 
f 15/15/15/15 17/17/17/17 8/8/8/8 
f 17/17/17/17 9/9/9/9 8/8/8/8 
f 15/15/15/15 8/8/8/8 18/18/18/18 
f 15/15/15/15 18/18/18/18 19/19/19/19 
f 4/4/4/4 20/20/20/20 21/21/21/21 
f 4/4/4/4 21/21/21/21 5/5/5/5 
f 22/22/22/22 23/23/23/23 10/10/10/10 
f 22/22/22/22 10/10/10/10 9/9/9/9 
f 22/22/22/22 9/9/9/9 17/17/17/17 
f 22/22/22/22 17/17/17/17 24/24/24/24 
f 25/25/25/25 26/26/26/26 27/27/27/27 
f 25/25/25/25 27/27/27/27 28/28/28/28 
f 29/29/29/29 28/28/28/28 27/27/27/27 
f 29/29/29/29 27/27/27/27 30/30/30/30 
f 1/1/1/1 0/0/0/0 31/31/31/31 
f 1/1/1/1 31/31/31/31 32/32/32/32 
f 33/33/33/33 34/34/34/34 35/35/35/35 
f 33/33/33/33 35/35/35/35 36/36/36/36 
f 35/35/35/35 37/37/37/37 36/36/36/36 
f 36/36/36/36 38/38/38/38 39/39/39/39 
f 36/36/36/36 39/39/39/39 40/40/40/40 
f 39/39/39/39 41/41/41/41 40/40/40/40 
f 36/36/36/36 40/40/40/40 42/42/42/42 
f 36/36/36/36 42/42/42/42 33/33/33/33 
f 43/43/43/43 33/33/33/33 42/42/42/42 
f 43/43/43/43 42/42/42/42 44/44/44/44 
f 45/41/45/45 46/39/46/46 30/30/30/30 
f 45/41/45/45 30/30/30/30 47/45/47/47 
f 30/30/30/30 27/27/27/27 47/45/47/47 
f 47/45/47/47 48/36/48/48 49/37/49/49 
f 47/45/47/47 49/37/49/49 50/34/50/50 
f 49/37/49/49 51/35/51/51 50/34/50/50 
f 50/34/50/50 52/33/52/52 53/43/53/53 
f 50/34/50/50 53/43/53/53 47/45/47/47 
f 47/45/47/47 53/43/53/53 54/44/54/54 
f 47/45/47/47 54/44/54/54 45/41/45/45 
f 55/40/55/55 45/41/45/45 54/44/54/54 
f 55/40/55/55 54/44/54/54 56/42/56/56 
f 57/46/57/57 58/47/58/58 47/45/47/47 
f 57/46/57/57 47/45/47/47 59/48/59/59 
f 47/45/47/47 27/27/27/27 26/26/26/26 
f 47/45/47/47 26/26/26/26 60/49/60/60 
f 26/26/26/26 61/50/61/61 60/49/60/60 
f 47/45/47/47 60/49/60/60 62/51/62/62 
f 47/45/47/47 62/51/62/62 63/52/63/63 
f 62/51/62/62 64/53/64/64 65/54/65/65 
f 62/51/62/62 65/54/65/65 63/52/63/63 
f 47/45/47/47 63/52/63/63 66/55/66/66 
f 47/45/47/47 66/55/66/66 59/48/59/59 
f 66/55/66/66 67/56/67/67 59/48/59/59 
f 68/57/68/68 57/46/57/57 59/48/59/59 
f 69/49/69/69 70/50/70/70 71/58/71/71 
f 69/49/69/69 71/58/71/71 72/53/72/72 
f 71/58/71/71 73/47/73/73 74/46/74/74 
f 71/58/71/71 74/46/74/74 75/57/75/75 
f 75/57/75/75 76/48/76/76 77/56/77/77 
f 75/57/75/75 77/56/77/77 71/58/71/71 
f 77/56/77/77 78/55/78/78 79/52/79/79 
f 77/56/77/77 79/52/79/79 80/54/80/80 
f 71/58/71/71 77/56/77/77 80/54/80/80 
f 71/58/71/71 80/54/80/80 72/53/72/72 
f 69/49/69/69 72/53/72/72 81/51/81/81 
f 82/59/82/82 71/60/71/83 70/61/70/84 
f 82/59/82/82 70/61/70/84 83/62/83/85 
f 84/63/84/86 38/64/38/87 36/65/36/88 
f 84/63/84/86 36/65/36/88 85/66/85/89 
f 49/67/49/90 48/68/48/91 36/69/36/92 
f 49/67/49/90 36/69/36/92 37/70/37/93 
f 36/65/36/88 48/71/48/94 47/72/47/95 
f 36/65/36/88 47/72/47/95 85/66/85/89 
f 47/72/47/95 58/73/58/96 73/74/73/97 
f 47/72/47/95 73/74/73/97 85/66/85/89 
f 58/75/58/98 57/76/57/99 74/77/74/100 
f 58/75/58/98 74/77/74/100 73/78/73/101 
f 57/79/57/99 68/80/68/102 75/81/75/103 
f 57/79/57/99 75/81/75/103 74/82/74/104 
f 68/83/68/105 59/84/59/106 76/85/76/107 
f 68/83/68/105 76/85/76/107 75/86/75/108 
f 59/87/59/109 67/88/67/110 77/89/77/111 
f 59/87/59/109 77/89/77/111 76/90/76/112 
f 67/91/67/113 66/92/66/114 78/93/78/115 
f 67/91/67/113 78/93/78/115 77/94/77/116 
f 66/95/66/117 63/96/63/118 79/97/79/119 
f 66/95/66/117 79/97/79/119 78/98/78/120 
f 63/99/63/121 65/100/65/122 80/101/80/123 
f 63/99/63/121 80/101/80/123 79/102/79/124 
f 65/69/65/125 64/70/64/126 72/67/72/127 
f 65/69/65/125 72/67/72/127 80/68/80/128 
f 64/103/64/129 62/104/62/130 81/105/81/131 
f 64/103/64/129 81/105/81/131 72/106/72/132 
f 62/75/62/133 60/76/60/134 69/77/69/135 
f 62/75/62/133 69/77/69/135 81/78/81/136 
f 60/107/60/137 61/108/61/138 70/109/70/139 
f 60/107/60/137 70/109/70/139 69/110/69/140 
f 70/61/70/84 61/111/61/141 26/112/26/142 
f 70/61/70/84 26/112/26/142 83/62/83/85 
f 26/112/26/142 25/113/25/143 86/114/86/144 
f 26/112/26/142 86/114/86/144 83/62/83/85 
f 25/115/25/145 28/116/28/28 87/117/87/27 
f 25/115/25/145 87/117/87/27 86/118/86/146 
f 28/116/28/28 29/119/29/147 88/120/88/148 
f 28/116/28/28 88/120/88/148 87/117/87/27 
f 29/121/29/149 30/122/30/150 89/123/89/151 
f 29/121/29/149 89/123/89/151 88/124/88/152 
f 30/122/30/150 46/125/46/153 39/126/39/154 
f 30/122/30/150 39/126/39/154 89/123/89/151 
f 46/127/46/155 45/128/45/156 41/129/41/157 
f 46/127/46/155 41/129/41/157 39/130/39/158 
f 45/128/45/156 55/131/55/159 40/132/40/160 
f 45/128/45/156 40/132/40/160 41/129/41/157 
f 55/131/55/159 56/133/56/161 42/134/42/162 
f 55/131/55/159 42/134/42/162 40/132/40/160 
f 56/133/56/161 54/135/54/163 44/136/44/164 
f 56/133/56/161 44/136/44/164 42/134/42/162 
f 54/135/54/163 53/137/53/165 43/138/43/166 
f 54/135/54/163 43/138/43/166 44/136/44/164 
f 53/137/53/165 52/139/52/167 33/140/33/168 
f 53/137/53/165 33/140/33/168 43/138/43/166 
f 52/139/52/167 50/141/50/169 34/142/34/170 
f 52/139/52/167 34/142/34/170 33/140/33/168 
f 50/141/50/169 51/143/51/171 35/144/35/172 
f 50/141/50/169 35/144/35/172 34/142/34/170 
f 51/143/51/171 49/67/49/90 37/70/37/93 
f 51/143/51/171 37/70/37/93 35/144/35/172 
f 39/126/39/154 38/145/38/173 84/146/84/174 
f 39/126/39/154 84/146/84/174 89/123/89/151 
f 73/74/73/97 71/147/71/83 82/148/82/175 
f 73/74/73/97 82/148/82/175 85/66/85/89 
f 90/149/90/176 91/150/91/177 21/21/21/21 
f 90/149/90/176 21/21/21/21 20/20/20/20 
f 32/32/32/32 31/31/31/31 92/151/92/178 
f 32/32/32/32 92/151/92/178 93/152/93/179 
f 23/153/23/180 22/154/22/181 94/155/94/182 
f 23/153/23/180 94/155/94/182 95/156/95/183 
f 22/154/22/181 24/157/24/184 96/158/96/185 
f 22/154/22/181 96/158/96/185 94/155/94/182 
f 24/157/24/184 17/159/17/186 97/160/97/187 
f 24/157/24/184 97/160/97/187 96/158/96/185 
f 17/159/17/186 16/161/16/188 98/162/98/189 
f 17/159/17/186 98/162/98/189 97/160/97/187 
f 16/161/16/188 15/163/15/190 99/164/99/191 
f 16/161/16/188 99/164/99/191 98/162/98/189 
f 15/163/15/190 19/165/19/192 100/166/100/193 
f 15/163/15/190 100/166/100/193 99/164/99/191 
f 19/167/19/194 18/168/18/195 101/169/101/196 
f 19/167/19/194 101/169/101/196 100/170/100/197 
f 18/168/18/195 8/171/8/198 102/172/102/199 
f 18/168/18/195 102/172/102/199 101/169/101/196 
f 8/171/8/198 14/173/14/200 103/174/103/201 
f 8/171/8/198 103/174/103/201 102/172/102/199 
f 14/173/14/200 11/175/11/202 104/176/104/203 
f 14/173/14/200 104/176/104/203 103/174/103/201 
f 11/175/11/202 13/177/13/204 105/178/105/205 
f 11/175/11/202 105/178/105/205 104/176/104/203 
f 13/177/13/204 12/179/12/206 106/180/106/207 
f 13/177/13/204 106/180/106/207 105/178/105/205 
f 12/179/12/206 10/181/10/208 107/182/107/209 
f 12/179/12/206 107/182/107/209 106/180/106/207 
f 10/181/10/208 23/153/23/180 95/156/95/183 
f 10/181/10/208 95/156/95/183 107/182/107/209 
f 108/183/108/210 3/184/3/211 2/185/2/212 
f 108/183/108/210 2/185/2/212 109/186/109/213 
f 110/187/110/214 109/186/109/213 2/185/2/212 
f 111/188/111/215 112/189/112/216 6/190/6/217 
f 111/188/111/215 6/190/6/217 5/191/5/218 
f 113/192/113/219 114/193/114/215 92/194/92/220 
f 113/192/113/219 92/194/92/220 31/195/31/221 
f 112/196/112/222 109/186/109/213 110/187/110/214 
f 112/196/112/222 110/187/110/214 7/197/7/223 
f 6/198/6/224 112/196/112/222 7/197/7/223 
f 115/199/115/215 116/200/116/215 117/201/117/225 
f 115/199/115/215 117/201/117/225 118/202/118/226 
f 119/203/119/219 115/199/115/215 118/202/118/226 
f 119/203/119/219 118/202/118/226 120/204/120/227 
f 121/205/121/219 119/203/119/219 120/204/120/227 
f 121/205/121/219 120/204/120/227 122/206/122/228 
f 123/207/123/219 121/205/121/219 122/206/122/228 
f 123/207/123/219 122/206/122/228 124/208/124/229 
f 114/193/114/215 125/209/125/215 126/210/126/230 
f 114/193/114/215 126/210/126/230 92/194/92/220 
f 125/209/125/215 123/207/123/219 124/208/124/229 
f 125/209/125/215 124/208/124/229 126/210/126/230 
f 116/200/116/215 127/211/127/219 128/212/128/231 
f 116/200/116/215 128/212/128/231 117/201/117/225 
f 127/211/127/219 129/213/129/219 130/214/130/232 
f 127/211/127/219 130/214/130/232 128/212/128/231 
f 129/213/129/219 131/215/131/215 132/216/132/233 
f 129/213/129/219 132/216/132/233 130/214/130/232 
f 131/215/131/215 133/217/133/215 134/218/134/234 
f 131/215/131/215 134/218/134/234 132/216/132/233 
f 135/219/135/215 136/220/136/215 91/221/91/235 
f 135/219/135/215 91/221/91/235 137/222/137/236 
f 133/223/133/215 135/219/135/215 137/222/137/236 
f 133/223/133/215 137/222/137/236 134/224/134/237 
f 138/225/111/215 111/188/111/215 5/191/5/218 
f 138/225/111/215 5/191/5/218 21/226/21/238 
f 0/227/0/239 3/228/3/240 108/229/108/241 
f 0/227/0/239 108/229/108/241 139/230/138/215 
f 31/231/31/221 0/227/0/239 139/230/138/215 
f 31/231/31/221 139/230/138/215 113/232/113/215 
f 136/220/136/215 138/225/111/215 21/226/21/238 
f 136/220/136/215 21/226/21/238 91/221/91/235 
f 1/1/1/1 83/26/83/242 86/25/86/243 
f 1/1/1/1 86/25/86/243 2/2/2/2 
f 32/32/32/32 82/58/82/244 83/26/83/242 
f 32/32/32/32 83/26/83/242 1/1/1/1 
f 32/32/32/32 93/152/93/179 95/23/95/245 
f 32/32/32/32 95/23/95/245 82/58/82/244 
f 140/233/139/246 141/234/140/247 120/235/120/248 
f 140/233/139/246 120/235/120/248 118/236/118/249 
f 140/233/139/246 142/237/141/250 102/8/102/251 
f 140/233/139/246 102/8/102/251 103/14/103/252 
f 90/149/90/176 143/238/142/253 137/239/137/254 
f 90/149/90/176 137/239/137/254 91/150/91/177 
f 90/149/90/176 97/17/97/255 98/16/98/256 
f 90/149/90/176 98/16/98/256 143/238/142/253 
f 20/20/20/20 84/38/84/257 96/24/96/258 
f 20/20/20/20 96/24/96/258 90/149/90/176 
f 4/4/4/4 89/30/89/259 84/38/84/257 
f 4/4/4/4 84/38/84/257 20/20/20/20 
f 4/4/4/4 7/7/7/7 88/29/88/260 
f 4/4/4/4 88/29/88/260 89/30/89/259 
f 86/25/86/243 87/28/87/28 110/240/110/28 
f 86/25/86/243 110/240/110/28 2/2/2/2 
f 88/29/88/260 7/7/7/7 110/240/110/28 
f 88/29/88/260 110/240/110/28 87/28/87/28 
f 143/238/142/253 144/241/143/261 134/242/134/262 
f 143/238/142/253 134/242/134/262 137/239/137/254 
f 144/241/143/261 145/243/144/263 132/244/132/264 
f 144/241/143/261 132/244/132/264 134/242/134/262 
f 145/243/144/263 146/245/145/265 130/246/130/266 
f 145/243/144/263 130/246/130/266 132/244/132/264 
f 146/245/145/265 142/237/141/250 128/247/128/267 
f 146/245/145/265 128/247/128/267 130/246/130/266 
f 128/247/128/267 142/237/141/250 117/248/117/268 
f 118/236/118/249 117/248/117/268 142/237/141/250 
f 118/236/118/249 142/237/141/250 140/233/139/246 
f 141/234/140/247 147/249/146/269 122/250/122/270 
f 141/234/140/247 122/250/122/270 120/235/120/248 
f 147/249/146/269 148/251/147/271 124/252/124/272 
f 147/249/146/269 124/252/124/272 122/250/122/270 
f 148/251/147/271 149/253/148/273 126/254/126/274 
f 148/251/147/271 126/254/126/274 124/252/124/272 
f 126/254/126/274 149/253/148/273 93/152/93/179 
f 126/254/126/274 93/152/93/179 92/151/92/178 
f 96/24/96/258 84/38/84/257 85/45/85/275 
f 96/24/96/258 85/45/85/275 94/22/94/276 
f 95/23/95/245 94/22/94/276 85/45/85/275 
f 95/23/95/245 85/45/85/275 82/58/82/244 
f 90/149/90/176 96/24/96/258 97/17/97/255 
f 95/23/95/245 93/152/93/179 107/10/107/277 
f 146/245/145/265 101/18/101/278 102/8/102/251 
f 146/245/145/265 102/8/102/251 142/237/141/250 
f 145/243/144/263 100/19/100/279 101/18/101/278 
f 145/243/144/263 101/18/101/278 146/245/145/265 
f 144/241/143/261 99/15/99/280 100/19/100/279 
f 144/241/143/261 100/19/100/279 145/243/144/263 
f 143/238/142/253 98/16/98/256 99/15/99/280 
f 143/238/142/253 99/15/99/280 144/241/143/261 
f 103/14/103/252 104/11/104/281 141/234/140/247 
f 103/14/103/252 141/234/140/247 140/233/139/246 
f 104/11/104/281 105/13/105/282 147/249/146/269 
f 104/11/104/281 147/249/146/269 141/234/140/247 
f 105/13/105/282 106/12/106/283 148/251/147/271 
f 105/13/105/282 148/251/147/271 147/249/146/269 
f 106/12/106/283 107/10/107/277 149/253/148/273 
f 106/12/106/283 149/253/148/273 148/251/147/271 
f 149/253/148/273 107/10/107/277 93/152/93/179 
