v 155.1883 695.3228 171.6469
v 154.3751 695.3228 170.8338
v 85.5206 695.3228 170.8338
v 154.3751 695.3228 241.3048
v 84.7075 695.3228 171.6469
v 84.7075 695.3228 240.4916
v 85.5206 695.3228 241.3048
v 155.1883 695.3228 240.4916
v 147.1434 660.3632 234.0068
v 92.7523 660.3632 234.0068
v 92.6781 520.3422 234.0068
v 147.2177 520.3422 234.0068
v 92.0065 660.3632 233.261
v 92.0065 660.3633 178.8776
v 92.0065 520.3423 178.8035
v 92.0065 520.3422 233.3351
v 92.7523 660.3633 178.1318
v 147.1434 660.3633 178.1318
v 147.2177 520.3423 178.1318
v 92.6781 520.3423 178.1318
v 147.8893 660.3633 178.8776
v 147.8893 660.3632 233.261
v 147.8893 520.3422 233.3351
v 147.8893 520.3423 178.8035
v 147.7266 664.2318 234.5761
v 148.5487 670.6964 235.3524
v 91.347 670.6962 235.3524
v 92.1691 664.2318 234.5761
v 91.437 664.2318 233.8442
v 90.6606 670.6962 234.666
v 90.6606 670.6963 177.4725
v 91.437 664.2319 178.2944
v 92.1691 664.2319 177.5624
v 91.347 670.6963 176.7862
v 148.5487 670.6963 176.7862
v 147.7266 664.2319 177.5624
v 148.4587 664.2319 178.2944
v 149.2352 670.6963 177.4725
v 149.2352 670.6964 234.666
v 148.4587 664.2318 233.8442
v 154.4529 690.9595 241.3048
v 85.4428 690.9595 241.3048
v 85.4077 686.5966 241.3048
v 154.4882 686.5966 241.3048
v 84.7075 690.9595 240.5694
v 84.7075 690.9596 171.5692
v 84.7075 686.5966 171.5339
v 84.7075 686.5966 240.6047
v 85.4428 690.9596 170.8338
v 154.4529 690.9596 170.8338
v 154.4882 686.5966 170.8338
v 85.4077 686.5966 170.8338
v 155.1883 690.9596 171.5692
v 155.1883 690.9595 240.5694
v 155.1883 686.5966 240.6047
v 155.1883 686.5966 171.5339
v 149.2675 662.2975 236.2028
v 90.6282 662.2975 236.2028
v 89.8101 662.2975 235.3847
v 89.8101 662.2976 176.7539
v 90.6282 662.2976 175.9358
v 149.2675 662.2976 175.9358
v 150.0856 662.2976 176.7539
v 150.0856 662.2975 235.3847
v 156.4208 693.1411 243.3502
v 83.475 693.1411 243.3502
v 82.6617 693.1411 242.5371
v 82.6617 693.1412 169.6015
v 83.475 693.1412 168.7884
v 156.4208 693.1412 168.7884
v 157.2339 693.1412 169.6015
v 157.2339 693.1411 242.5371
v 151.1499 679.6953 237.9808
v 88.7458 679.6953 237.9808
v 88.0319 679.6953 237.2669
v 88.0319 679.6953 174.8717
v 88.7458 679.6953 174.1578
v 151.1499 679.6953 174.1578
v 151.864 679.6953 174.8717
v 151.864 679.6953 237.2669
v 155.4436 511.8407 240.7075
v 155.4436 511.8407 171.4311
v 148.5051 518.7642 178.202
v 148.5051 518.7642 233.9365
v 154.591 511.8407 170.5785
v 147.8191 518.7642 177.5161
v 85.3048 511.8407 170.5785
v 92.0767 518.7642 177.5161
v 84.4521 511.8407 171.4311
v 91.3906 518.7642 178.202
v 84.4521 511.8407 240.7075
v 91.3906 518.7642 233.9365
v 85.3048 511.8407 241.5601
v 92.0767 518.7642 234.6225
v 154.591 511.8407 241.5601
v 147.8191 518.7642 234.6225
v 156.9003 509.4903 241.3108
v 156.9003 509.4903 170.8278
v 156.9003 511.8407 170.8278
v 156.9003 511.8407 241.3108
v 155.1944 509.4903 169.1218
v 155.1944 511.8407 169.1218
v 84.7014 509.4903 169.1219
v 84.7014 511.8407 169.1219
v 82.9955 509.4903 170.8278
v 82.9955 511.8407 170.8278
v 82.9955 509.4903 241.3107
v 82.9955 511.8407 241.3107
v 84.7014 509.4903 243.0167
v 84.7014 511.8407 243.0167
v 155.1944 509.4903 243.0167
v 155.1944 511.8407 243.0167
v 149.0171 519.5532 177.7026
v 149.0171 519.5532 234.4359
v 91.5772 519.5532 177.0041
v 148.3186 519.5532 177.0041
v 90.8786 519.5532 234.4359
v 90.8786 519.5532 177.7026
v 148.3186 519.5532 235.1345
v 91.5772 519.5532 235.1345
v 155.4436 509.4903 240.7075
v 155.4436 507.1398 240.7075
v 155.4436 507.1398 171.4311
v 155.4436 509.4903 171.4311
v 154.591 507.1398 170.5785
v 154.591 509.4903 170.5785
v 85.3048 507.1398 170.5785
v 85.3048 509.4903 170.5785
v 84.4521 507.1398 171.4311
v 84.4521 509.4903 171.4311
v 84.4521 507.1398 240.7075
v 84.4521 509.4903 240.7075
v 85.3048 507.1398 241.5601
v 85.3048 509.4903 241.5601
v 154.591 507.1398 241.5601
v 154.591 509.4903 241.5601
vt 0.1674 0.876
vt 0.1655 0.8746
vt 0.0109 0.8746
vt 0.1655 0.9938
vt 0.0091 0.876
vt 0.0091 0.9924
vt 0.0109 0.9938
vt 0.1674 0.9924
vt 0.5006 0.7672
vt 0.7418 0.7672
vt 0.7421 0.0122
vt 0.5003 0.0122
vt 0.7451 0.7672
vt 0.9865 0.7672
vt 0.9868 0.0122
vt 0.7451 0.0122
vt 0.0112 0.7672
vt 0.2525 0.7672
vt 0.2528 0.0122
vt 0.0109 0.0122
vt 0.2558 0.7672
vt 0.4971 0.7672
vt 0.4975 0.0122
vt 0.2558 0.0122
vt 0.1939 0.8885
vt 0.1916 0.9089
vt 0.3477 0.9089
vt 0.3455 0.8885
vt 0.3988 0.8881
vt 0.3965 0.9084
vt 0.5526 0.9084
vt 0.5504 0.8881
vt 0.6076 0.8897
vt 0.6053 0.91
vt 0.7614 0.91
vt 0.7592 0.8897
vt 0.8121 0.8892
vt 0.8098 0.9096
vt 0.9659 0.9096
vt 0.9637 0.8892
vt 0.1755 0.9726
vt 0.3638 0.9726
vt 0.3639 0.9589
vt 0.1754 0.9589
vt 0.3804 0.9721
vt 0.5687 0.9721
vt 0.5688 0.9584
vt 0.3803 0.9584
vt 0.5892 0.9737
vt 0.7775 0.9737
vt 0.7776 0.96
vt 0.5891 0.96
vt 0.7937 0.9733
vt 0.982 0.9733
vt 0.9821 0.9596
vt 0.7936 0.9596
vt 0.5005 0.7793
vt 0.7418 0.779
vt 0.7453 0.7792
vt 0.9959 0.7791
vt 0.0111 0.779
vt 0.2524 0.779
vt 0.2559 0.779
vt 0.4969 0.7793
vt 0.1897 0.8825
vt 0.3497 0.8825
vt 0.3946 0.882
vt 0.5546 0.882
vt 0.6034 0.8836
vt 0.7634 0.8836
vt 0.8079 0.8832
vt 0.9679 0.8832
vt 0.1701 0.9794
vt 0.3692 0.9794
vt 0.3751 0.979
vt 0.5741 0.979
vt 0.5839 0.9806
vt 0.7829 0.9806
vt 0.7884 0.9801
vt 0.9874 0.9801
vt 0.1757 0.9863
vt 0.3636 0.9863
vt 0.3806 0.9859
vt 0.5685 0.9859
vt 0.5894 0.9875
vt 0.7773 0.9875
vt 0.7939 0.987
vt 0.9818 0.987
vt 0.1845 0.9372
vt 0.3548 0.9372
vt 0.3894 0.9367
vt 0.5597 0.9367
vt 0.5982 0.9383
vt 0.7685 0.9383
vt 0.8027 0.9379
vt 0.973 0.9379
vt 0.9754 0.9368
vt 0.9849 0.9589
vt 0.0079 0.7672
vt 0.0079 0.0122
vt 0.3503 0.9083
vt 0.348 0.8895
vt 0.6028 0.9094
vt 0.605 0.8907
vt 0.8073 0.909
vt 0.8095 0.8902
vt 0.9848 0.9721
vt 0.3663 0.9714
vt 0.3665 0.9582
vt 0.5867 0.9726
vt 0.5865 0.9593
vt 0.7912 0.9721
vt 0.791 0.9589
vt 0.3523 0.885
vt 0.9705 0.8857
vt 0.9664 0.8902
vt 0.6007 0.8862
vt 0.8052 0.8857
vt 0.0078 0.7789
vt 0.9907 0.9801
vt 0.3716 0.9794
vt 0.5815 0.9806
vt 0.786 0.9801
vt 0.9842 0.9896
vt 0.366 0.9889
vt 0.5871 0.99
vt 0.7916 0.9896
vt 0.9686 0.909
vt 0.3574 0.936
vt 0.5957 0.9372
vt 0.8002 0.9367
vt 0.9787 0.844
vt 0.7407 0.844
vt 0.7521 0.8673
vt 0.9674 0.8673
vt 0.7344 0.844
vt 0.7231 0.8673
vt 0.4964 0.844
vt 0.5077 0.8685
vt 0.49 0.844
vt 0.4787 0.8685
vt 0.2521 0.844
vt 0.2634 0.8683
vt 0.2457 0.844
vt 0.2344 0.8683
vt 0.0095 0.8447
vt 0.0185 0.8682
vt 0.9833 0.8433
vt 0.983 0.8665
vt 0.979 0.8318
vt 0.7404 0.8318
vt 0.7404 0.8398
vt 0.979 0.8398
vt 0.7347 0.8318
vt 0.7347 0.8398
vt 0.4961 0.8318
vt 0.4961 0.8398
vt 0.4903 0.8318
vt 0.4903 0.8398
vt 0.2518 0.8318
vt 0.2518 0.8398
vt 0.246 0.8318
vt 0.246 0.8398
vt 0.0075 0.8318
vt 0.0075 0.8398
vt 0.9847 0.8318
vt 0.9847 0.8398
vt 0.7512 0.8699
vt 0.9682 0.8705
vt 0.5069 0.8711
vt 0.7239 0.8699
vt 0.2626 0.8709
vt 0.4796 0.8711
vt 0.0168 0.8708
vt 0.2352 0.8709
vt 0.983 0.8702
vt 0.5036 0.8097
vt 0.5036 0.8179
vt 0.745 0.8179
vt 0.745 0.8097
vt 0.7479 0.8179
vt 0.7479 0.8097
vt 0.9893 0.8179
vt 0.9893 0.8097
vt 0.9922 0.8179
vt 0.9922 0.8097
vt 0.015 0.8097
vt 0.015 0.8179
vt 0.2564 0.8179
vt 0.2564 0.8097
vt 0.2593 0.8179
vt 0.2593 0.8097
vt 0.5007 0.8179
vt 0.5007 0.8097
vt 0.2557 0.0062
vt 0.4974 0.0062
vt 0.011 0.0062
vt 0.2527 0.0062
vt 0.745 0.0062
vt 0.9917 0.0062
vt 0.5002 0.0062
vt 0.742 0.0062
vt 0.0079 0.0062
vt 0.9787 0.8276
vt 0.7407 0.8276
vt 0.9833 0.8276
vt 0.2457 0.8276
vt 0.0095 0.8276
vt 0.2521 0.8276
vt 0.49 0.8276
vt 0.4964 0.8276
vt 0.7344 0.8276
vn 0.4014 0.9081 -0.1192
vn 0.1192 0.9081 -0.4015
vn -0.1192 0.9081 -0.4014
vn 0.1192 0.9081 0.4014
vn -0.4014 0.9081 -0.1192
vn -0.4014 0.9081 0.1192
vn -0.1192 0.9081 0.4014
vn 0.4014 0.9081 0.1192
vn 0.2921 -0.5104 0.8088
vn -0.2921 -0.5105 0.8088
vn -0.2799 0.5652 0.776
vn 0.2799 0.5651 0.7761
vn -0.8087 -0.5105 0.2921
vn -0.8087 -0.5105 -0.2921
vn -0.7761 0.5652 -0.2798
vn -0.7761 0.5652 0.2798
vn -0.2921 -0.5105 -0.8088
vn 0.2921 -0.5105 -0.8088
vn 0.2799 0.5652 -0.7761
vn -0.2799 0.5651 -0.7761
vn 0.8087 -0.5105 -0.2921
vn 0.8087 -0.5105 0.2921
vn 0.7761 0.5652 0.2798
vn 0.7761 0.5651 -0.2798
vn 0.3129 0.3591 0.8793
vn 0.3576 -0.262 0.8964
vn -0.3577 -0.262 0.8963
vn -0.3129 0.3591 0.8793
vn -0.8792 0.3591 0.313
vn -0.8963 -0.262 0.3576
vn -0.8963 -0.262 -0.3577
vn -0.8793 0.3591 -0.3129
vn -0.3129 0.3591 -0.8793
vn -0.3576 -0.262 -0.8964
vn 0.3576 -0.262 -0.8964
vn 0.3129 0.3591 -0.8793
vn 0.8793 0.3591 -0.3129
vn 0.8963 -0.2621 -0.3577
vn 0.8963 -0.2621 0.3577
vn 0.8792 0.3591 0.313
vn 0.3026 -0.4599 0.8349
vn -0.3026 -0.4599 0.8348
vn -0.3871 -0.2629 0.8838
vn 0.3871 -0.2629 0.8837
vn -0.8348 -0.4599 0.3026
vn -0.8348 -0.4599 -0.3025
vn -0.8837 -0.2629 -0.3872
vn -0.8837 -0.2629 0.3871
vn -0.3026 -0.4599 -0.8348
vn 0.3026 -0.4599 -0.8348
vn 0.3871 -0.2629 -0.8837
vn -0.3871 -0.2629 -0.8838
vn 0.8348 -0.4599 -0.3026
vn 0.8348 -0.4599 0.3026
vn 0.8837 -0.2629 0.3871
vn 0.8837 -0.2629 -0.3871
vn 0.4328 -0.0633 0.8992
vn -0.4329 -0.0633 0.8992
vn -0.8992 -0.0633 0.4328
vn -0.8992 -0.0633 -0.4329
vn -0.4328 -0.0633 -0.8992
vn 0.4328 -0.0633 -0.8992
vn 0.8992 -0.0633 -0.4328
vn 0.8992 -0.0633 0.4328
vn 0.4354 0.0028 0.9002
vn -0.4354 0.0028 0.9003
vn -0.9002 0.0028 0.4354
vn -0.9002 0.0029 -0.4354
vn -0.4354 0.0028 -0.9003
vn 0.4354 0.0028 -0.9002
vn 0.9002 0.0028 -0.4354
vn 0.9002 0.0029 0.4354
vn 0.3244 -0.4518 0.831
vn -0.3244 -0.4518 0.831
vn -0.831 -0.4519 0.3244
vn -0.831 -0.4519 -0.3245
vn -0.3244 -0.4518 -0.831
vn 0.3244 -0.4518 -0.831
vn 0.831 -0.4519 -0.3245
vn 0.831 -0.4519 0.3245
vn 0.2184 0.9701 0.1058
vn 0.2184 0.9701 -0.1058
vn 0.9468 0.1288 -0.295
vn 0.9468 0.1288 0.295
vn 0.1058 0.9701 -0.2184
vn 0.2949 0.1287 -0.9468
vn -0.1058 0.9701 -0.2184
vn -0.2949 0.1287 -0.9468
vn -0.2184 0.9701 -0.1058
vn -0.9468 0.1288 -0.295
vn -0.2184 0.9701 0.1058
vn -0.9468 0.1288 0.295
vn -0.1058 0.9701 0.2184
vn -0.2949 0.1288 0.9468
vn 0.1058 0.9701 0.2184
vn 0.2949 0.1287 0.9468
vn 0.7173 -0.6303 0.2971
vn 0.7173 -0.6302 -0.2971
vn 0.7173 0.6303 -0.2971
vn 0.7173 0.6302 0.2971
vn 0.2971 -0.6302 -0.7173
vn 0.2971 0.6302 -0.7173
vn -0.2971 -0.6302 -0.7173
vn -0.2971 0.6303 -0.7173
vn -0.7173 -0.6303 -0.2971
vn -0.7173 0.6302 -0.2971
vn -0.7173 -0.6302 0.2971
vn -0.7173 0.6303 0.2971
vn -0.2971 -0.6302 0.7173
vn -0.2971 0.6302 0.7173
vn 0.2971 -0.6302 0.7173
vn 0.2971 0.6303 0.7173
vn 0.89 0.1596 -0.4272
vn 0.89 0.1596 0.4271
vn -0.4271 0.1596 -0.89
vn 0.4272 0.1596 -0.89
vn -0.89 0.1597 0.4272
vn -0.89 0.1597 -0.4272
vn 0.4272 0.1596 0.89
vn -0.4272 0.1597 0.89
vn 0.5491 -0.8042 0.2274
vn 0.9239 0.0 0.3827
vn 0.9239 0.0 -0.3827
vn 0.5491 -0.8042 -0.2275
vn 0.3827 0.0 -0.9239
vn 0.2275 -0.8042 -0.5492
vn -0.3827 0.0 -0.9239
vn -0.2274 -0.8042 -0.5491
vn -0.9239 0.0 -0.3827
vn -0.5491 -0.8042 -0.2275
vn -0.9239 0.0 0.3827
vn -0.5491 -0.8042 0.2275
vn -0.3826 0.0 0.9239
vn -0.2274 -0.8042 0.5492
vn 0.3827 0.0 0.9239
vn 0.2275 -0.8042 0.5491
vtan 0.9159 -0.398 0.0522 -1.0
vtan 0.9929 -0.109 0.0482 -1.0
vtan 0.9929 0.1112 -0.0433 -1.0
vtan 0.9929 -0.1112 -0.0433 -1.0
vtan 0.9157 0.4005 -0.0325 -1.0
vtan 0.9159 0.398 0.0522 -1.0
vtan 0.9929 0.109 0.0482 -1.0
vtan 0.9157 -0.4005 -0.0326 -1.0
vtan -0.9404 0.0007 0.3401 -1.0
vtan -0.9405 -0.0003 -0.3399 -1.0
vtan -0.9411 -0.0017 -0.3382 -1.0
vtan -0.9411 0.0017 0.3382 -1.0
vtan -0.3388 -0.0016 -0.9408 -1.0
vtan 0.247 0.1559 -0.9564 -1.0
vtan 0.2262 -0.1647 -0.96 -1.0
vtan -0.3381 0.0017 -0.9411 -1.0
vtan 0.9407 -0.0007 -0.3393 -1.0
vtan 0.9405 -0.0003 0.3399 -1.0
vtan 0.9411 -0.0017 0.3382 -1.0
vtan 0.9411 0.0017 -0.3382 -1.0
vtan 0.3397 -0.0 0.9405 -1.0
vtan -0.3399 -0.0003 0.9405 -1.0
vtan -0.3381 -0.0017 0.9411 -1.0
vtan 0.3381 0.0017 0.9411 -1.0
vtan -0.9498 0.1183 0.2896 -1.0
vtan -0.9339 -0.1003 0.3433 -1.0
vtan -0.9338 0.0936 -0.3453 -1.0
vtan -0.9482 -0.1717 -0.2672 -1.0
vtan -0.2897 0.1183 -0.9498 -1.0
vtan -0.3433 -0.1004 -0.9339 -1.0
vtan 0.3433 0.1004 -0.9338 -1.0
vtan 0.2897 -0.1183 -0.9498 -1.0
vtan 0.9496 0.1354 -0.2826 -1.0
vtan 0.9339 -0.1043 -0.3421 -1.0
vtan 0.9339 0.1003 0.3432 -1.0
vtan 0.9498 -0.1183 0.2896 -1.0
vtan 0.2823 0.1363 0.9496 -1.0
vtan 0.3421 -0.1046 0.9338 -1.0
vtan -0.3453 0.0936 0.9338 -1.0
vtan -0.2673 -0.1717 0.9482 -1.0
vtan -0.9531 -0.146 0.265 -1.0
vtan -0.9529 0.1658 -0.2541 -1.0
vtan -0.9219 0.1272 -0.366 -1.0
vtan -0.922 -0.1104 0.3711 -1.0
vtan -0.265 -0.146 -0.9531 -1.0
vtan 0.265 0.146 -0.9531 -1.0
vtan 0.3711 0.1104 -0.922 -1.0
vtan -0.3711 -0.1104 -0.922 -1.0
vtan 0.9529 -0.1266 -0.2756 -1.0
vtan 0.9531 0.146 0.265 -1.0
vtan 0.922 0.1104 0.3711 -1.0
vtan 0.9218 -0.1311 -0.3648 -1.0
vtan 0.2699 -0.137 0.9531 -1.0
vtan -0.254 0.1658 0.9529 -1.0
vtan -0.3661 0.127 0.9219 -1.0
vtan 0.3644 -0.1325 0.9218 -1.0
vtan -0.9009 0.0035 0.4339 -1.0
vtan -0.9003 -0.0196 -0.4348 -1.0
vtan -0.4327 -0.0172 -0.9014 -1.0
vtan 0.4318 0.0304 -0.9015 -1.0
vtan 0.9012 -0.0073 -0.4333 -1.0
vtan 0.901 -0.0032 0.4339 -1.0
vtan 0.4339 0.0028 0.901 -1.0
vtan -0.4339 -0.0032 0.901 -1.0
vtan -0.9015 -0.0304 0.4318 -1.0
vtan -0.8519 -0.2976 -0.431 -1.0
vtan -0.4318 -0.0304 -0.9015 -1.0
vtan 0.4318 0.0304 -0.9015 -1.0
vtan 0.8516 0.2985 -0.4309 -1.0
vtan 0.9015 0.0304 0.4318 -1.0
vtan 0.4313 0.2938 0.853 -1.0
vtan -0.431 -0.2976 0.8519 -1.0
vtan -0.9002 0.0014 0.4354 -1.0
vtan -0.9 0.0221 -0.4353 -1.0
vtan -0.4354 0.0013 -0.9002 -1.0
vtan 0.4354 -0.0014 -0.9002 -1.0
vtan 0.8997 0.0366 -0.435 -1.0
vtan 0.9002 -0.0014 0.4354 -1.0
vtan 0.435 0.0375 0.8997 -1.0
vtan -0.4353 0.0221 0.9 -1.0
vtan -0.9929 0.109 0.0482 -1.0
vtan -0.9915 -0.0876 -0.0963 -1.0
vtan -0.0482 0.109 -0.9929 -1.0
vtan 0.0482 -0.109 -0.9929 -1.0
vtan 0.9908 0.135 0.0111 -1.0
vtan 0.9929 -0.109 0.0482 -1.0
vtan -0.019 0.1384 0.9902 -1.0
vtan -0.0963 -0.0876 0.9915 -1.0
vtan -0.9459 -0.1549 0.285 -1.0
vtan -0.9455 0.1805 -0.271 -1.0
vtan -0.285 -0.155 -0.9459 -1.0
vtan 0.285 0.155 -0.9459 -1.0
vtan 0.9459 -0.1645 -0.2798 -1.0
vtan 0.9459 0.1549 0.285 -1.0
vtan 0.2728 -0.1773 0.9456 -1.0
vtan -0.2786 0.1669 0.9458 -1.0
vtan -0.6806 0.4986 0.5368 -1.0
vtan -0.8204 0.3392 0.4603 -1.0
vtan 0.4422 -0.2003 -0.8742 -1.0
vtan 0.4643 0.2117 -0.86 -1.0
vtan -0.431 0.3261 -0.8414 -1.0
vtan -0.4665 -0.5163 -0.7182 -1.0
vtan 0.4268 -0.2915 -0.8561 -1.0
vtan 0.4697 0.5441 -0.6952 -1.0
vtan 0.8561 -0.2914 0.4267 -1.0
vtan 0.6953 0.5441 0.4696 -1.0
vtan -0.6808 0.5088 0.527 -1.0
vtan -0.527 0.5087 -0.6808 -1.0
vtan -0.4603 0.3386 -0.8207 -1.0
vtan 0.5229 -0.4906 -0.697 -1.0
vtan 0.4604 -0.3397 -0.8201 -1.0
vtan 0.6777 -0.5121 0.5277 -1.0
vtan 0.8193 -0.3415 0.4605 -1.0
vtan -0.3037 -0.6218 -0.7219 -1.0
vtan -0.7219 -0.6218 0.3037 -1.0
vtan -0.7183 -0.5163 0.4664 -1.0
vtan 0.199 0.822 -0.5336 -1.0
vtan 0.5544 0.8052 0.2102 -1.0
vtan 0.4355 -0.035 -0.8995 -1.0
vtan -0.8977 -0.0727 0.4345 -1.0
vtan -0.4345 -0.0727 -0.8977 -1.0
vtan 0.4351 -0.0352 -0.8997 -1.0
vtan 0.8996 -0.0385 0.435 -1.0
vtan -0.1652 -0.3806 0.9099 -1.0
vtan -0.9099 -0.3805 -0.1652 -1.0
vtan 0.908 0.3775 -0.1818 -1.0
vtan 0.1667 0.3803 0.9097 -1.0
vtan -0.8418 0.3251 0.4309 -1.0
vtan -0.5412 0.5218 -0.6594 -1.0
vtan 0.5361 -0.4947 -0.684 -1.0
vtan 0.6641 -0.5169 0.5402 -1.0
vtan -0.5028 0.0189 0.8642 -1.0
vtan 0.4242 0.0033 0.9056 -1.0
vtan 0.2973 0.0014 0.9548 -1.0
vtan -0.3064 0.0801 0.9485 -1.0
vtan 0.9052 -0.0031 0.425 -1.0
vtan 0.9547 0.0021 0.2977 -1.0
vtan 0.9056 0.0033 -0.4242 -1.0
vtan 0.9549 0.0044 -0.2968 -1.0
vtan 0.4241 -0.0033 -0.9056 -1.0
vtan 0.2971 -0.0031 -0.9548 -1.0
vtan -0.4242 0.0033 -0.9055 -1.0
vtan -0.2972 0.002 -0.9548 -1.0
vtan -0.9051 -0.003 -0.4251 -1.0
vtan -0.9549 -0.0027 -0.2971 -1.0
vtan -0.9944 0.1035 0.0222 -1.0
vtan -0.9555 0.0412 0.2921 -1.0
vtan -0.8728 -0.0146 0.4879 -1.0
vtan -0.9479 0.1639 0.273 -1.0
vtan -0.3827 0.0 0.9239 -1.0
vtan 0.3827 -0.0 0.9239 -1.0
vtan 0.3827 -0.0 0.9239 -1.0
vtan -0.3827 -0.0 0.9239 -1.0
vtan 0.9239 -0.0 0.3827 -1.0
vtan 0.9239 -0.0 0.3827 -1.0
vtan 0.9239 -0.0 -0.3827 -1.0
vtan 0.9239 -0.0 -0.3827 -1.0
vtan 0.3827 -0.0 -0.9239 -1.0
vtan 0.3827 -0.0 -0.9239 -1.0
vtan -0.3827 -0.0 -0.9239 -1.0
vtan -0.3827 0.0 -0.9239 -1.0
vtan -0.9239 -0.0 -0.3827 -1.0
vtan -0.9238 0.0004 -0.383 -1.0
vtan -0.9548 -0.1961 0.2232 -1.0
vtan -0.9548 0.1961 0.2232 -1.0
vtan -0.833 0.1961 0.5173 -1.0
vtan -0.8507 -0.1665 0.4987 -1.0
vtan 0.4333 -0.0039 0.9013 -1.0
vtan -0.4382 0.0405 0.898 -1.0
vtan 0.9015 -0.0002 -0.4327 -1.0
vtan 0.9012 0.0051 0.4335 -1.0
vtan -0.4331 -0.0031 -0.9013 -1.0
vtan 0.4331 0.0022 -0.9014 -1.0
vtan -0.9042 0.0749 0.4206 -1.0
vtan -0.9014 0.0024 -0.4331 -1.0
vtan -0.9041 0.0681 0.4218 -1.0
vtan 0.3827 0.0 -0.9239 -1.0
vtan 0.3827 0.0 -0.9239 -1.0
vtan -0.3827 0.0 -0.9239 -1.0
vtan -0.3827 -0.0 -0.9239 -1.0
vtan -0.9239 0.0 -0.3827 -1.0
vtan -0.9239 0.0 -0.3827 -1.0
vtan -0.9239 0.0 0.3827 -1.0
vtan -0.9239 -0.0 0.3827 -1.0
vtan -0.3827 0.0 0.9239 -1.0
vtan -0.5979 0.1879 0.7792 -1.0
vtan -0.1283 -0.1878 0.9738 -1.0
vtan -0.3827 0.0 0.9239 -1.0
vtan 0.3827 0.0 0.9239 -1.0
vtan 0.3827 -0.0 0.9239 -1.0
vtan 0.9239 0.0 0.3826 -1.0
vtan 0.9239 0.0 0.3826 -1.0
vtan 0.9239 0.0 -0.3827 -1.0
vtan 0.9239 -0.0 -0.3827 -1.0
vtan 0.4342 -0.0104 0.9008 -1.0
vtan -0.4342 0.0104 0.9008 -1.0
vtan 0.9008 -0.0104 -0.4342 -1.0
vtan 0.9007 0.0104 0.4342 -1.0
vtan -0.4342 -0.0104 -0.9008 -1.0
vtan 0.4205 -0.0754 -0.9042 -1.0
vtan -0.9007 -0.0104 0.4342 -1.0
vtan -0.9007 0.0104 -0.4342 -1.0
vtan 0.4401 0.0553 -0.8962 -1.0
vtan -0.3827 -0.0 0.9239 -1.0
vtan 0.3827 -0.0 0.9239 -1.0
vtan -0.7793 0.1878 0.5979 -1.0
vtan -0.9239 -0.0 -0.3826 -1.0
vtan -0.9738 -0.1878 0.1283 -1.0
vtan -0.3827 -0.0 -0.9239 -1.0
vtan 0.3827 -0.0 -0.9239 -1.0
vtan 0.9239 0.0 -0.3827 -1.0
vtan 0.9239 -0.0 0.3827 -1.0
f 0/0/0/0 1/1/1/1 2/2/2/2 
f 0/0/0/0 2/2/2/2 3/3/3/3 
f 2/2/2/2 4/4/4/4 5/5/5/5 
f 2/2/2/2 5/5/5/5 3/3/3/3 
f 5/5/5/5 6/6/6/6 3/3/3/3 
f 7/7/7/7 0/0/0/0 3/3/3/3 
f 8/8/8/8 9/9/9/9 10/10/10/10 
f 8/8/8/8 10/10/10/10 11/11/11/11 
f 12/12/12/12 13/13/13/13 14/14/14/14 
f 12/12/12/12 14/14/14/14 15/15/15/15 
f 16/16/16/16 17/17/17/17 18/18/18/18 
f 16/16/16/16 18/18/18/18 19/19/19/19 
f 20/20/20/20 21/21/21/21 22/22/22/22 
f 20/20/20/20 22/22/22/22 23/23/23/23 
f 24/24/24/24 25/25/25/25 26/26/26/26 
f 24/24/24/24 26/26/26/26 27/27/27/27 
f 28/28/28/28 29/29/29/29 30/30/30/30 
f 28/28/28/28 30/30/30/30 31/31/31/31 
f 32/32/32/32 33/33/33/33 34/34/34/34 
f 32/32/32/32 34/34/34/34 35/35/35/35 
f 36/36/36/36 37/37/37/37 38/38/38/38 
f 36/36/36/36 38/38/38/38 39/39/39/39 
f 40/40/40/40 41/41/41/41 42/42/42/42 
f 40/40/40/40 42/42/42/42 43/43/43/43 
f 44/44/44/44 45/45/45/45 46/46/46/46 
f 44/44/44/44 46/46/46/46 47/47/47/47 
f 48/48/48/48 49/49/49/49 50/50/50/50 
f 48/48/48/48 50/50/50/50 51/51/51/51 
f 52/52/52/52 53/53/53/53 54/54/54/54 
f 52/52/52/52 54/54/54/54 55/55/55/55 
f 8/8/8/8 56/56/56/56 57/57/57/57 
f 8/8/8/8 57/57/57/57 9/9/9/9 
f 12/12/12/12 58/58/58/58 59/59/59/59 
f 12/12/12/12 59/59/59/59 13/13/13/13 
f 16/16/16/16 60/60/60/60 61/61/61/61 
f 16/16/16/16 61/61/61/61 17/17/17/17 
f 20/20/20/20 62/62/62/62 63/63/63/63 
f 20/20/20/20 63/63/63/63 21/21/21/21 
f 56/64/56/64 24/24/24/24 27/27/27/27 
f 56/64/56/64 27/27/27/27 57/65/57/65 
f 58/66/58/66 28/28/28/28 31/31/31/31 
f 58/66/58/66 31/31/31/31 59/67/59/67 
f 60/68/60/68 32/32/32/32 35/35/35/35 
f 60/68/60/68 35/35/35/35 61/69/61/69 
f 62/70/62/70 36/36/36/36 39/39/39/39 
f 62/70/62/70 39/39/39/39 63/71/63/71 
f 40/40/40/40 64/72/64/72 65/73/65/73 
f 40/40/40/40 65/73/65/73 41/41/41/41 
f 44/44/44/44 66/74/66/74 67/75/67/75 
f 44/44/44/44 67/75/67/75 45/45/45/45 
f 48/48/48/48 68/76/68/76 69/77/69/77 
f 48/48/48/48 69/77/69/77 49/49/49/49 
f 52/52/52/52 70/78/70/78 71/79/71/79 
f 52/52/52/52 71/79/71/79 53/53/53/53 
f 64/72/64/72 3/80/3/80 6/81/6/81 
f 64/72/64/72 6/81/6/81 65/73/65/73 
f 66/74/66/74 5/82/5/82 4/83/4/83 
f 66/74/66/74 4/83/4/83 67/75/67/75 
f 68/76/68/76 2/84/2/84 1/85/1/85 
f 68/76/68/76 1/85/1/85 69/77/69/77 
f 70/78/70/78 0/86/0/86 7/87/7/87 
f 70/78/70/78 7/87/7/87 71/79/71/79 
f 72/88/72/88 43/43/43/43 42/42/42/42 
f 72/88/72/88 42/42/42/42 73/89/73/89 
f 74/90/74/90 47/47/47/47 46/46/46/46 
f 74/90/74/90 46/46/46/46 75/91/75/91 
f 76/92/76/92 51/51/51/51 50/50/50/50 
f 76/92/76/92 50/50/50/50 77/93/77/93 
f 78/94/78/94 55/55/55/55 54/54/54/54 
f 78/94/78/94 54/54/54/54 79/95/79/95 
f 25/25/25/25 72/88/72/88 73/89/73/89 
f 25/25/25/25 73/89/73/89 26/26/26/26 
f 29/29/29/29 74/90/74/90 75/91/75/91 
f 29/29/29/29 75/91/75/91 30/30/30/30 
f 33/33/33/33 76/92/76/92 77/93/77/93 
f 33/33/33/33 77/93/77/93 34/34/34/34 
f 37/37/37/37 78/94/78/94 79/95/79/95 
f 37/37/37/37 79/95/79/95 38/38/38/38 
f 9/9/9/9 12/12/12/12 15/15/15/15 
f 9/9/9/9 15/15/15/15 10/10/10/10 
f 72/96/72/96 79/95/79/95 54/54/54/54 
f 72/96/72/96 54/54/54/54 43/97/43/97 
f 13/98/13/98 16/16/16/16 19/19/19/19 
f 13/98/13/98 19/19/19/19 14/99/14/99 
f 17/17/17/17 20/20/20/20 23/23/23/23 
f 17/17/17/17 23/23/23/23 18/18/18/18 
f 26/26/26/26 29/100/29/100 28/101/28/101 
f 26/26/26/26 28/101/28/101 27/27/27/27 
f 11/11/11/11 22/22/22/22 21/21/21/21 
f 11/11/11/11 21/21/21/21 8/8/8/8 
f 30/102/30/102 33/33/33/33 32/32/32/32 
f 30/102/30/102 32/32/32/32 31/103/31/103 
f 34/104/34/104 37/37/37/37 36/36/36/36 
f 34/104/34/104 36/36/36/36 35/105/35/105 
f 53/53/53/53 40/106/40/106 43/97/43/97 
f 53/53/53/53 43/97/43/97 54/54/54/54 
f 41/41/41/41 44/107/44/107 47/108/47/108 
f 41/41/41/41 47/108/47/108 42/42/42/42 
f 45/109/45/109 48/48/48/48 51/51/51/51 
f 45/109/45/109 51/51/51/51 46/110/46/110 
f 49/111/49/111 52/52/52/52 55/55/55/55 
f 49/111/49/111 55/55/55/55 50/112/50/112 
f 58/113/58/113 57/65/57/65 27/27/27/27 
f 58/113/58/113 27/27/27/27 28/101/28/101 
f 56/114/56/114 63/71/63/71 39/39/39/39 
f 56/114/56/114 39/39/39/39 24/115/24/115 
f 60/68/60/68 59/116/59/116 31/103/31/103 
f 60/68/60/68 31/103/31/103 32/32/32/32 
f 62/70/62/70 61/117/61/117 35/105/35/105 
f 62/70/62/70 35/105/35/105 36/36/36/36 
f 12/12/12/12 9/9/9/9 57/57/57/57 
f 12/12/12/12 57/57/57/57 58/58/58/58 
f 8/8/8/8 21/21/21/21 63/63/63/63 
f 8/8/8/8 63/63/63/63 56/56/56/56 
f 16/16/16/16 13/98/13/98 59/118/59/118 
f 16/16/16/16 59/118/59/118 60/60/60/60 
f 20/20/20/20 17/17/17/17 61/61/61/61 
f 20/20/20/20 61/61/61/61 62/62/62/62 
f 71/79/71/79 64/119/64/119 40/106/40/106 
f 71/79/71/79 40/106/40/106 53/53/53/53 
f 65/73/65/73 66/120/66/120 44/107/44/107 
f 65/73/65/73 44/107/44/107 41/41/41/41 
f 67/121/67/121 68/76/68/76 48/48/48/48 
f 67/121/67/121 48/48/48/48 45/109/45/109 
f 69/122/69/122 70/78/70/78 52/52/52/52 
f 69/122/69/122 52/52/52/52 49/111/49/111 
f 7/87/7/87 3/123/3/123 64/119/64/119 
f 7/87/7/87 64/119/64/119 71/79/71/79 
f 6/81/6/81 5/124/5/124 66/120/66/120 
f 6/81/6/81 66/120/66/120 65/73/65/73 
f 4/125/4/125 2/84/2/84 68/76/68/76 
f 4/125/4/125 68/76/68/76 67/121/67/121 
f 1/126/1/126 0/86/0/86 70/78/70/78 
f 1/126/1/126 70/78/70/78 69/122/69/122 
f 24/115/24/115 39/39/39/39 38/38/38/38 
f 24/115/24/115 38/38/38/38 25/127/25/127 
f 42/42/42/42 47/108/47/108 74/128/74/128 
f 42/42/42/42 74/128/74/128 73/89/73/89 
f 46/110/46/110 51/51/51/51 76/92/76/92 
f 46/110/46/110 76/92/76/92 75/129/75/129 
f 50/112/50/112 55/55/55/55 78/94/78/94 
f 50/112/50/112 78/94/78/94 77/130/77/130 
f 79/95/79/95 72/96/72/96 25/127/25/127 
f 79/95/79/95 25/127/25/127 38/38/38/38 
f 73/89/73/89 74/128/74/128 29/100/29/100 
f 73/89/73/89 29/100/29/100 26/26/26/26 
f 75/129/75/129 76/92/76/92 33/33/33/33 
f 75/129/75/129 33/33/33/33 30/102/30/102 
f 77/130/77/130 78/94/78/94 37/37/37/37 
f 77/130/77/130 37/37/37/37 34/104/34/104 
f 80/131/80/131 81/132/81/132 82/133/82/133 
f 80/131/80/131 82/133/82/133 83/134/83/134 
f 81/132/81/132 84/135/84/135 85/136/85/136 
f 81/132/81/132 85/136/85/136 82/133/82/133 
f 84/135/84/135 86/137/86/137 87/138/87/138 
f 84/135/84/135 87/138/87/138 85/136/85/136 
f 86/137/86/137 88/139/88/139 89/140/89/140 
f 86/137/86/137 89/140/89/140 87/138/87/138 
f 88/139/88/139 90/141/90/141 91/142/91/142 
f 88/139/88/139 91/142/91/142 89/140/89/140 
f 90/141/90/141 92/143/92/143 93/144/93/144 
f 90/141/90/141 93/144/93/144 91/142/91/142 
f 92/143/92/143 94/145/94/145 95/146/95/146 
f 92/143/92/143 95/146/95/146 93/144/93/144 
f 94/147/94/147 80/131/80/131 83/134/83/134 
f 94/147/94/147 83/134/83/134 95/148/95/148 
f 96/149/96/149 97/150/97/150 98/151/98/151 
f 96/149/96/149 98/151/98/151 99/152/99/152 
f 97/150/97/150 100/153/100/153 101/154/101/154 
f 97/150/97/150 101/154/101/154 98/151/98/151 
f 100/153/100/153 102/155/102/155 103/156/103/156 
f 100/153/100/153 103/156/103/156 101/154/101/154 
f 102/155/102/155 104/157/104/157 105/158/105/158 
f 102/155/102/155 105/158/105/158 103/156/103/156 
f 104/157/104/157 106/159/106/159 107/160/107/160 
f 104/157/104/157 107/160/107/160 105/158/105/158 
f 106/159/106/159 108/161/108/161 109/162/109/162 
f 106/159/106/159 109/162/109/162 107/160/107/160 
f 108/161/108/161 110/163/110/163 111/164/111/164 
f 108/161/108/161 111/164/111/164 109/162/109/162 
f 110/165/110/165 96/149/96/149 99/152/99/152 
f 110/165/110/165 99/152/99/152 111/166/111/166 
f 82/133/82/133 112/167/112/167 113/168/113/168 
f 82/133/82/133 113/168/113/168 83/134/83/134 
f 87/138/87/138 114/169/114/169 115/170/115/170 
f 87/138/87/138 115/170/115/170 85/136/85/136 
f 91/142/91/142 116/171/116/171 117/172/117/172 
f 91/142/91/142 117/172/117/172 89/140/89/140 
f 95/146/95/146 118/173/118/173 119/174/119/174 
f 95/146/95/146 119/174/119/174 93/144/93/144 
f 83/134/83/134 113/168/113/168 118/175/118/175 
f 83/134/83/134 118/175/118/175 95/148/95/148 
f 93/144/93/144 119/174/119/174 116/171/116/171 
f 93/144/93/144 116/171/116/171 91/142/91/142 
f 85/136/85/136 115/170/115/170 112/167/112/167 
f 85/136/85/136 112/167/112/167 82/133/82/133 
f 89/140/89/140 117/172/117/172 114/169/114/169 
f 89/140/89/140 114/169/114/169 87/138/87/138 
f 120/176/120/176 121/177/121/177 122/178/122/178 
f 120/176/120/176 122/178/122/178 123/179/123/179 
f 123/179/123/179 122/178/122/178 124/180/124/180 
f 123/179/123/179 124/180/124/180 125/181/125/181 
f 125/181/125/181 124/180/124/180 126/182/126/182 
f 125/181/125/181 126/182/126/182 127/183/127/183 
f 127/183/127/183 126/182/126/182 128/184/128/184 
f 127/183/127/183 128/184/128/184 129/185/129/185 
f 129/186/129/186 128/187/128/187 130/188/130/188 
f 129/186/129/186 130/188/130/188 131/189/131/189 
f 131/189/131/189 130/188/130/188 132/190/132/190 
f 131/189/131/189 132/190/132/190 133/191/133/191 
f 133/191/133/191 132/190/132/190 134/192/134/192 
f 133/191/133/191 134/192/134/192 135/193/135/193 
f 135/193/135/193 134/192/134/192 121/177/121/177 
f 135/193/135/193 121/177/121/177 120/176/120/176 
f 112/194/112/194 23/23/23/23 22/22/22/22 
f 112/194/112/194 22/22/22/22 113/195/113/195 
f 114/196/114/196 19/19/19/19 18/18/18/18 
f 114/196/114/196 18/18/18/18 115/197/115/197 
f 116/198/116/198 15/15/15/15 14/14/14/14 
f 116/198/116/198 14/14/14/14 117/199/117/199 
f 118/200/118/200 11/11/11/11 10/10/10/10 
f 118/200/118/200 10/10/10/10 119/201/119/201 
f 113/195/113/195 22/22/22/22 11/11/11/11 
f 113/195/113/195 11/11/11/11 118/200/118/200 
f 119/201/119/201 10/10/10/10 15/15/15/15 
f 119/201/119/201 15/15/15/15 116/198/116/198 
f 115/197/115/197 18/18/18/18 23/23/23/23 
f 115/197/115/197 23/23/23/23 112/194/112/194 
f 117/202/117/202 14/99/14/99 19/19/19/19 
f 117/202/117/202 19/19/19/19 114/196/114/196 
f 99/152/99/152 98/151/98/151 81/132/81/132 
f 99/152/99/152 81/132/81/132 80/131/80/131 
f 98/151/98/151 101/154/101/154 84/135/84/135 
f 98/151/98/151 84/135/84/135 81/132/81/132 
f 101/154/101/154 103/156/103/156 86/137/86/137 
f 101/154/101/154 86/137/86/137 84/135/84/135 
f 103/156/103/156 105/158/105/158 88/139/88/139 
f 103/156/103/156 88/139/88/139 86/137/86/137 
f 105/158/105/158 107/160/107/160 90/141/90/141 
f 105/158/105/158 90/141/90/141 88/139/88/139 
f 107/160/107/160 109/162/109/162 92/143/92/143 
f 107/160/107/160 92/143/92/143 90/141/90/141 
f 109/162/109/162 111/164/111/164 94/145/94/145 
f 109/162/109/162 94/145/94/145 92/143/92/143 
f 111/166/111/166 99/152/99/152 80/131/80/131 
f 111/166/111/166 80/131/80/131 94/147/94/147 
f 97/150/97/150 96/149/96/149 120/203/120/203 
f 97/150/97/150 120/203/120/203 123/204/123/204 
f 96/149/96/149 110/165/110/165 135/205/135/205 
f 96/149/96/149 135/205/135/205 120/203/120/203 
f 110/163/110/163 108/161/108/161 133/206/133/206 
f 110/163/110/163 133/206/133/206 135/207/135/207 
f 108/161/108/161 106/159/106/159 131/208/131/208 
f 108/161/108/161 131/208/131/208 133/206/133/206 
f 106/159/106/159 104/157/104/157 129/209/129/209 
f 106/159/106/159 129/209/129/209 131/208/131/208 
f 104/157/104/157 102/155/102/155 127/210/127/210 
f 104/157/104/157 127/210/127/210 129/209/129/209 
f 102/155/102/155 100/153/100/153 125/211/125/211 
f 102/155/102/155 125/211/125/211 127/210/127/210 
f 100/153/100/153 97/150/97/150 123/204/123/204 
f 100/153/100/153 123/204/123/204 125/211/125/211 
