v -950.146 695.3228 171.6469
v -950.9592 695.3228 170.8338
v -973.7756 695.3228 170.8338
v -950.9592 695.3228 241.3048
v -999.981 695.3228 197.0392
v -999.981 695.3228 241.3048
v -950.146 695.3228 240.4916
v -958.1909 660.3632 234.0068
v -999.981 660.3632 234.0068
v -999.981 520.3422 234.0068
v -958.1167 520.3422 234.0068
v -957.4451 660.3633 178.8776
v -957.4451 660.3632 233.261
v -957.4451 520.3422 233.3351
v -957.4451 520.3423 178.8035
v -957.6077 664.2319 177.5624
v -980.5042 664.2319 177.5624
v -979.7278 670.6963 176.7862
v -956.7856 670.6963 176.7862
v -956.8757 664.2319 178.2944
v -956.0994 670.6963 177.4725
v -956.0994 670.6964 234.666
v -956.8757 664.2318 233.8442
v -950.8813 690.9595 241.3048
v -999.981 690.9595 241.3048
v -999.981 686.5966 241.3048
v -950.8462 686.5966 241.3048
v -950.146 690.9596 171.5692
v -950.146 690.9595 240.5694
v -950.146 686.5966 240.6047
v -950.146 686.5966 171.5339
v -958.1909 660.3633 178.1318
v -981.0735 660.3633 178.1318
v -978.8774 662.2976 175.9358
v -956.0669 662.2976 175.9358
v -955.2488 662.2976 176.7539
v -955.2488 662.2975 235.3847
v -950.8813 690.9596 170.8338
v -973.7756 690.9596 170.8338
v -971.7302 693.1412 168.7884
v -948.9136 693.1412 168.7884
v -948.1003 693.1412 169.6015
v -948.1003 693.1411 242.5371
v -954.1843 679.6953 174.1578
v -977.0994 679.6953 174.1578
v -973.7756 686.5966 170.8338
v -950.8462 686.5966 170.8338
v -953.4705 679.6953 174.8717
v -953.4705 679.6953 237.2669
v -954.1843 679.6953 237.9808
v -958.1167 520.3423 178.1318
v -956.0669 662.2975 236.2028
v -957.6077 664.2318 234.5761
v -948.9136 693.1411 243.3502
v -956.7856 670.6964 235.3524
v -949.8906 511.8407 240.7075
v -949.8906 511.8407 171.4311
v -956.8293 518.7642 178.202
v -956.8293 518.7642 233.9365
v -950.7434 511.8407 170.5785
v -957.5151 518.7642 177.5161
v -973.5203 511.8407 170.5785
v -980.4578 518.7642 177.5161
v -950.7434 511.8407 241.5601
v -957.5151 518.7642 234.6225
v -948.4341 509.4903 241.3108
v -948.4341 509.4903 170.8278
v -948.4341 511.8407 170.8278
v -948.4341 511.8407 241.3108
v -950.1401 509.4903 169.1218
v -950.1401 511.8407 169.1218
v -972.0635 509.4903 169.1218
v -972.0635 511.8407 169.1218
v -950.1401 509.4903 243.0167
v -950.1401 511.8407 243.0167
v -956.3171 519.5532 177.7026
v -956.3171 519.5532 234.4359
v -979.9458 519.5532 177.0041
v -957.0156 519.5532 177.0041
v -957.0156 519.5532 235.1345
v -949.8906 509.4903 240.7075
v -949.8906 507.1398 240.7075
v -949.8906 507.1398 171.4311
v -949.8906 509.4903 171.4311
v -950.7434 507.1398 170.5785
v -950.7434 509.4903 170.5785
v -999.981 509.4903 241.5601
v -999.981 507.1398 241.5601
v -950.7434 507.1398 241.5601
v -950.7434 509.4903 241.5601
v -981.0735 520.3423 178.1318
v -999.981 509.4903 243.0167
v -999.981 670.6962 235.3524
v -999.981 664.2318 234.5761
v -999.981 662.2975 236.2028
v -999.981 693.1411 243.3502
v -999.981 679.6953 237.9808
v -999.981 511.8407 241.5601
v -999.981 518.7642 234.6225
v -999.981 511.8407 243.0167
v -999.981 519.5532 235.1345
v -1038.2939 670.6962 235.3524
v -1037.5178 664.2318 234.5761
v -1039.1445 662.2975 236.2028
v -1036.9485 660.3632 234.0068
v -1046.292 693.1411 243.3502
v -1044.2466 690.9595 241.3048
v -1044.2466 695.3228 241.3048
v -1044.2466 686.5966 241.3048
v -1040.9224 679.6953 237.9808
v -1037.5642 518.7642 234.6225
v -1044.5017 511.8407 241.5601
v -1045.9585 511.8407 243.0167
v -1045.9585 509.4903 243.0167
v -1038.0762 519.5532 235.1345
v -1036.9485 520.3422 234.0068
v -973.5203 509.4903 170.5785
v -973.5203 507.1398 170.5785
v -1044.5017 507.1398 241.5601
v -1044.5017 509.4903 241.5601
v -1044.2466 695.3228 148.0176
v -1044.2466 695.3228 197.0392
v -974.5886 695.3228 147.2044
v -973.7754 695.3228 148.0176
v -1043.4333 695.3228 147.2044
v -1036.9485 520.3422 197.0392
v -1036.9485 660.3632 197.0392
v -1036.9485 660.3633 155.2492
v -1036.9485 520.3423 155.1751
v -1036.2769 520.3423 154.5034
v -1036.2026 660.3633 154.5034
v -981.8193 660.3633 154.5034
v -981.7451 520.3423 154.5034
v -980.5042 664.2319 154.6659
v -979.7278 670.6963 153.8439
v -1037.6077 670.6964 153.1576
v -980.4143 670.6963 153.1576
v -981.2361 664.2319 153.9339
v -1036.7859 664.2319 153.9339
v -1044.2466 686.5966 197.0392
v -1044.2466 690.9595 197.0392
v -1044.2466 690.9596 147.9398
v -1044.2466 686.5966 147.9045
v -1043.5464 686.5966 147.2044
v -1043.511 690.9596 147.2044
v -974.5107 690.9596 147.2044
v -974.4756 686.5966 147.2044
v -981.0735 660.3633 155.2492
v -978.8774 662.2976 153.1252
v -1038.3264 662.2976 152.307
v -979.6956 662.2976 152.307
v -973.7754 690.9596 147.9398
v -971.7302 693.1412 145.9718
v -1045.4788 693.1412 145.1586
v -972.5432 693.1412 145.1586
v -977.0994 679.6953 151.2427
v -973.7754 686.5966 147.9045
v -977.8135 679.6953 150.5288
v -1040.2085 679.6953 150.5288
v -1040.9224 679.6953 151.2427
v -981.0735 520.3423 155.1751
v -1039.1445 662.2976 153.1252
v -1037.5178 664.2319 154.6659
v -1046.292 693.1412 145.9718
v -1038.2939 670.6964 153.8439
v -981.1438 518.7642 153.8876
v -974.3728 511.8407 146.949
v -1043.6492 511.8407 146.949
v -1036.8782 518.7642 153.8876
v -980.4578 518.7642 154.5735
v -973.5203 511.8407 147.8016
v -1044.5017 511.8407 147.8016
v -1037.5642 518.7642 154.5735
v -973.7695 511.8407 145.4924
v -973.7695 509.4903 145.4924
v -1044.2524 509.4903 145.4924
v -1044.2524 511.8407 145.4924
v -972.0635 511.8407 147.1984
v -972.0635 509.4903 147.1984
v -1045.9585 509.4903 147.1983
v -1045.9585 511.8407 147.1983
v -1037.3777 519.5532 153.3755
v -980.6443 519.5532 153.3755
v -979.9458 519.5532 154.074
v -1038.0762 519.5532 154.074
v -974.3728 507.1398 146.949
v -1043.6492 507.1398 146.949
v -1043.6492 509.4903 146.949
v -974.3728 509.4903 146.949
v -973.5203 507.1398 147.8016
v -973.5203 509.4903 147.8016
v -1044.5017 507.1398 147.8016
v -1044.5017 507.1398 197.0392
v -1044.5017 509.4903 197.0392
v -1044.5017 509.4903 147.8016
v -1045.9585 509.4903 197.0392
v -1038.2939 670.6962 197.0392
v -1037.5178 664.2318 197.0392
v -1039.1445 662.2975 197.0392
v -1046.292 693.1411 197.0392
v -1040.9224 679.6953 197.0392
v -1044.5017 511.8407 197.0392
v -1037.5642 518.7642 197.0392
v -1045.9585 511.8407 197.0392
v -1038.0762 519.5532 197.0392
gi 0 0 0 0
gw 0.0 0.0 0.0 0.0
gi 0 0 0 0
gw 0.0 0.0 0.0 0.0
gi 0 0 0 0
gw 0.0 0.0 0.0 0.0
gi 0 0 0 0
gw 0.0 0.0 0.0 0.0
gi 0 0 0 0
gw 0.0 0.0 0.0 0.0
gi 0 0 0 0
gw 0.0 0.0 0.0 0.0
gi 0 0 0 0
gw 0.0 0.0 0.0 0.0
gi 0 0 0 0
gw 0.0 0.0 0.0 0.0
gi 0 0 0 0
gw 0.0 0.0 0.0 0.0
gi 0 0 0 0
gw 0.0 0.0 0.0 0.0
gi 0 0 0 0
gw 0.0 0.0 0.0 0.0
gi 0 0 0 0
gw 0.0 0.0 0.0 0.0
gi 0 0 0 0
gw 0.0 0.0 0.0 0.0
gi 0 0 0 0
gw 0.0 0.0 0.0 0.0
gi 0 0 0 0
gw 0.0 0.0 0.0 0.0
gi 0 0 0 0
gw 0.0 0.0 0.0 0.0
gi 0 0 0 0
gw 0.0 0.0 0.0 0.0
gi 0 0 0 0
gw 0.0 0.0 0.0 0.0
gi 0 0 0 0
gw 0.0 0.0 0.0 0.0
gi 0 0 0 0
gw 0.0 0.0 0.0 0.0
gi 0 0 0 0
gw 0.0 0.0 0.0 0.0
gi 0 0 0 0
gw 0.0 0.0 0.0 0.0
gi 0 0 0 0
gw 0.0 0.0 0.0 0.0
gi 0 0 0 0
gw 0.0 0.0 0.0 0.0
gi 0 0 0 0
gw 0.0 0.0 0.0 0.0
gi 0 0 0 0
gw 0.0 0.0 0.0 0.0
gi 0 0 0 0
gw 0.0 0.0 0.0 0.0
gi 0 0 0 0
gw 0.0 0.0 0.0 0.0
gi 0 0 0 0
gw 0.0 0.0 0.0 0.0
gi 0 0 0 0
gw 0.0 0.0 0.0 0.0
gi 0 0 0 0
gw 0.0 0.0 0.0 0.0
gi 0 0 0 0
gw 0.0 0.0 0.0 0.0
gi 0 0 0 0
gw 0.0 0.0 0.0 0.0
gi 0 0 0 0
gw 0.0 0.0 0.0 0.0
gi 0 0 0 0
gw 0.0 0.0 0.0 0.0
gi 0 0 0 0
gw 0.0 0.0 0.0 0.0
gi 0 0 0 0
gw 0.0 0.0 0.0 0.0
gi 0 0 0 0
gw 0.0 0.0 0.0 0.0
gi 0 0 0 0
gw 0.0 0.0 0.0 0.0
gi 0 0 0 0
gw 0.0 0.0 0.0 0.0
gi 0 0 0 0
gw 0.0 0.0 0.0 0.0
gi 0 0 0 0
gw 0.0 0.0 0.0 0.0
gi 0 0 0 0
gw 0.0 0.0 0.0 0.0
gi 0 0 0 0
gw 0.0 0.0 0.0 0.0
gi 0 0 0 0
gw 0.0 0.0 0.0 0.0
gi 0 0 0 0
gw 0.0 0.0 0.0 0.0
gi 0 0 0 0
gw 0.0 0.0 0.0 0.0
gi 0 0 0 0
gw 0.0 0.0 0.0 0.0
gi 0 0 0 0
gw 0.0 0.0 0.0 0.0
gi 0 0 0 0
gw 0.0 0.0 0.0 0.0
gi 0 0 0 0
gw 0.0 0.0 0.0 0.0
gi 0 0 0 0
gw 0.0 0.0 0.0 0.0
gi 0 0 0 0
gw 0.0 0.0 0.0 0.0
gi 0 0 0 0
gw 0.0 0.0 0.0 0.0
gi 0 0 0 0
gw 0.0 0.0 0.0 0.0
gi 0 0 0 0
gw 0.0 0.0 0.0 0.0
gi 0 0 0 0
gw 0.0 0.0 0.0 0.0
gi 0 0 0 0
gw 0.0 0.0 0.0 0.0
gi 0 0 0 0
gw 0.0 0.0 0.0 0.0
gi 0 0 0 0
gw 0.0 0.0 0.0 0.0
gi 0 0 0 0
gw 0.0 0.0 0.0 0.0
gi 0 0 0 0
gw 0.0 0.0 0.0 0.0
gi 0 0 0 0
gw 0.0 0.0 0.0 0.0
gi 0 0 0 0
gw 0.0 0.0 0.0 0.0
gi 0 0 0 0
gw 0.0 0.0 0.0 0.0
gi 0 0 0 0
gw 0.0 0.0 0.0 0.0
gi 0 0 0 0
gw 0.0 0.0 0.0 0.0
gi 0 0 0 0
gw 0.0 0.0 0.0 0.0
gi 0 0 0 0
gw 0.0 0.0 0.0 0.0
gi 0 0 0 0
gw 0.0 0.0 0.0 0.0
gi 0 0 0 0
gw 0.0 0.0 0.0 0.0
gi 0 0 0 0
gw 0.0 0.0 0.0 0.0
gi 0 0 0 0
gw 0.0 0.0 0.0 0.0
gi 0 0 0 0
gw 0.0 0.0 0.0 0.0
gi 0 0 0 0
gw 0.0 0.0 0.0 0.0
gi 0 0 0 0
gw 0.0 0.0 0.0 0.0
gi 0 0 0 0
gw 0.0 0.0 0.0 0.0
gi 0 0 0 0
gw 0.0 0.0 0.0 0.0
gi 0 0 0 0
gw 0.0 0.0 0.0 0.0
gi 0 0 0 0
gw 0.0 0.0 0.0 0.0
gi 0 0 0 0
gw 0.0 0.0 0.0 0.0
gi 0 0 0 0
gw 0.0 0.0 0.0 0.0
gi 0 0 0 0
gw 0.0 0.0 0.0 0.0
gi 0 0 0 0
gw 0.0 0.0 0.0 0.0
gi 0 0 0 0
gw 0.0 0.0 0.0 0.0
gi 0 0 0 0
gw 0.0 0.0 0.0 0.0
gi 0 0 0 0
gw 0.0 0.0 0.0 0.0
gi 0 0 0 0
gw 0.0 0.0 0.0 0.0
gi 0 0 0 0
gw 0.0 0.0 0.0 0.0
gi 0 0 0 0
gw 0.0 0.0 0.0 0.0
gi 0 0 0 0
gw 0.0 0.0 0.0 0.0
gi 0 0 0 0
gw 0.0 0.0 0.0 0.0
gi 0 0 0 0
gw 0.0 0.0 0.0 0.0
gi 0 0 0 0
gw 0.0 0.0 0.0 0.0
gi 0 0 0 0
gw 0.0 0.0 0.0 0.0
gi 0 0 0 0
gw 0.0 0.0 0.0 0.0
gi 0 0 0 0
gw 0.0 0.0 0.0 0.0
gi 0 0 0 0
gw 0.0 0.0 0.0 0.0
gi 0 0 0 0
gw 0.0 0.0 0.0 0.0
gi 0 0 0 0
gw 0.0 0.0 0.0 0.0
gi 0 0 0 0
gw 0.0 0.0 0.0 0.0
gi 0 0 0 0
gw 0.0 0.0 0.0 0.0
gi 0 0 0 0
gw 0.0 0.0 0.0 0.0
gi 0 0 0 0
gw 0.0 0.0 0.0 0.0
gi 0 0 0 0
gw 0.0 0.0 0.0 0.0
gi 0 0 0 0
gw 0.0 0.0 0.0 0.0
gi 0 0 0 0
gw 0.0 0.0 0.0 0.0
gi 0 0 0 0
gw 0.0 0.0 0.0 0.0
gi 0 0 0 0
gw 0.0 0.0 0.0 0.0
gi 0 0 0 0
gw 0.0 0.0 0.0 0.0
gi 0 0 0 0
gw 0.0 0.0 0.0 0.0
gi 0 0 0 0
gw 0.0 0.0 0.0 0.0
gi 0 0 0 0
gw 0.0 0.0 0.0 0.0
gi 0 0 0 0
gw 0.0 0.0 0.0 0.0
gi 0 0 0 0
gw 0.0 0.0 0.0 0.0
gi 0 0 0 0
gw 0.0 0.0 0.0 0.0
gi 0 0 0 0
gw 0.0 0.0 0.0 0.0
gi 0 0 0 0
gw 0.0 0.0 0.0 0.0
gi 0 0 0 0
gw 0.0 0.0 0.0 0.0
gi 0 0 0 0
gw 0.0 0.0 0.0 0.0
gi 0 0 0 0
gw 0.0 0.0 0.0 0.0
gi 0 0 0 0
gw 0.0 0.0 0.0 0.0
gi 0 0 0 0
gw 0.0 0.0 0.0 0.0
gi 0 0 0 0
gw 0.0 0.0 0.0 0.0
gi 0 0 0 0
gw 0.0 0.0 0.0 0.0
gi 0 0 0 0
gw 0.0 0.0 0.0 0.0
gi 0 0 0 0
gw 0.0 0.0 0.0 0.0
gi 0 0 0 0
gw 0.0 0.0 0.0 0.0
gi 0 0 0 0
gw 0.0 0.0 0.0 0.0
gi 0 0 0 0
gw 0.0 0.0 0.0 0.0
gi 0 0 0 0
gw 0.0 0.0 0.0 0.0
gi 0 0 0 0
gw 0.0 0.0 0.0 0.0
gi 0 0 0 0
gw 0.0 0.0 0.0 0.0
gi 0 0 0 0
gw 0.0 0.0 0.0 0.0
gi 0 0 0 0
gw 0.0 0.0 0.0 0.0
gi 0 0 0 0
gw 0.0 0.0 0.0 0.0
gi 0 0 0 0
gw 0.0 0.0 0.0 0.0
gi 0 0 0 0
gw 0.0 0.0 0.0 0.0
gi 0 0 0 0
gw 0.0 0.0 0.0 0.0
gi 0 0 0 0
gw 0.0 0.0 0.0 0.0
gi 0 0 0 0
gw 0.0 0.0 0.0 0.0
gi 0 0 0 0
gw 0.0 0.0 0.0 0.0
gi 0 0 0 0
gw 0.0 0.0 0.0 0.0
gi 0 0 0 0
gw 0.0 0.0 0.0 0.0
gi 0 0 0 0
gw 0.0 0.0 0.0 0.0
gi 0 0 0 0
gw 0.0 0.0 0.0 0.0
gi 0 0 0 0
gw 0.0 0.0 0.0 0.0
gi 0 0 0 0
gw 0.0 0.0 0.0 0.0
gi 0 0 0 0
gw 0.0 0.0 0.0 0.0
gi 0 0 0 0
gw 0.0 0.0 0.0 0.0
gi 0 0 0 0
gw 0.0 0.0 0.0 0.0
gi 0 0 0 0
gw 0.0 0.0 0.0 0.0
gi 0 0 0 0
gw 0.0 0.0 0.0 0.0
gi 0 0 0 0
gw 0.0 0.0 0.0 0.0
gi 0 0 0 0
gw 0.0 0.0 0.0 0.0
gi 0 0 0 0
gw 0.0 0.0 0.0 0.0
gi 0 0 0 0
gw 0.0 0.0 0.0 0.0
gi 0 0 0 0
gw 0.0 0.0 0.0 0.0
gi 0 0 0 0
gw 0.0 0.0 0.0 0.0
gi 0 0 0 0
gw 0.0 0.0 0.0 0.0
gi 0 0 0 0
gw 0.0 0.0 0.0 0.0
gi 0 0 0 0
gw 0.0 0.0 0.0 0.0
gi 0 0 0 0
gw 0.0 0.0 0.0 0.0
gi 0 0 0 0
gw 0.0 0.0 0.0 0.0
gi 0 0 0 0
gw 0.0 0.0 0.0 0.0
gi 0 0 0 0
gw 0.0 0.0 0.0 0.0
gi 0 0 0 0
gw 0.0 0.0 0.0 0.0
gi 0 0 0 0
gw 0.0 0.0 0.0 0.0
gi 0 0 0 0
gw 0.0 0.0 0.0 0.0
gi 0 0 0 0
gw 0.0 0.0 0.0 0.0
gi 0 0 0 0
gw 0.0 0.0 0.0 0.0
gi 0 0 0 0
gw 0.0 0.0 0.0 0.0
gi 0 0 0 0
gw 0.0 0.0 0.0 0.0
gi 0 0 0 0
gw 0.0 0.0 0.0 0.0
gi 0 0 0 0
gw 0.0 0.0 0.0 0.0
gi 0 0 0 0
gw 0.0 0.0 0.0 0.0
gi 0 0 0 0
gw 0.0 0.0 0.0 0.0
gi 0 0 0 0
gw 0.0 0.0 0.0 0.0
gi 0 0 0 0
gw 0.0 0.0 0.0 0.0
gi 0 0 0 0
gw 0.0 0.0 0.0 0.0
gi 0 0 0 0
gw 0.0 0.0 0.0 0.0
gi 0 0 0 0
gw 0.0 0.0 0.0 0.0
gi 0 0 0 0
gw 0.0 0.0 0.0 0.0
gi 0 0 0 0
gw 0.0 0.0 0.0 0.0
gi 0 0 0 0
gw 0.0 0.0 0.0 0.0
gi 0 0 0 0
gw 0.0 0.0 0.0 0.0
gi 0 0 0 0
gw 0.0 0.0 0.0 0.0
gi 0 0 0 0
gw 0.0 0.0 0.0 0.0
gi 0 0 0 0
gw 0.0 0.0 0.0 0.0
gi 0 0 0 0
gw 0.0 0.0 0.0 0.0
gi 0 0 0 0
gw 0.0 0.0 0.0 0.0
gi 0 0 0 0
gw 0.0 0.0 0.0 0.0
gi 0 0 0 0
gw 0.0 0.0 0.0 0.0
gi 0 0 0 0
gw 0.0 0.0 0.0 0.0
gi 0 0 0 0
gw 0.0 0.0 0.0 0.0
gi 0 0 0 0
gw 0.0 0.0 0.0 0.0
gi 0 0 0 0
gw 0.0 0.0 0.0 0.0
gi 0 0 0 0
gw 0.0 0.0 0.0 0.0
gi 0 0 0 0
gw 0.0 0.0 0.0 0.0
gi 0 0 0 0
gw 0.0 0.0 0.0 0.0
gi 0 0 0 0
gw 0.0 0.0 0.0 0.0
gi 0 0 0 0
gw 0.0 0.0 0.0 0.0
gi 0 0 0 0
gw 0.0 0.0 0.0 0.0
gi 0 0 0 0
gw 0.0 0.0 0.0 0.0
gi 0 0 0 0
gw 0.0 0.0 0.0 0.0
vt 0.1674 0.876
vt 0.1655 0.8746
vt 0.1143 0.8746
vt 0.1655 0.9938
vt 0.0555 0.919
vt 0.0555 0.9938
vt 0.1674 0.9924
vt 0.5006 0.7672
vt 0.6859 0.7672
vt 0.6859 0.0122
vt 0.5003 0.0122
vt 0.2558 0.7672
vt 0.4971 0.7672
vt 0.4975 0.0122
vt 0.2558 0.0122
vt 0.7592 0.8897
vt 0.6967 0.8897
vt 0.6988 0.91
vt 0.7614 0.91
vt 0.8121 0.8892
vt 0.8098 0.9096
vt 0.9659 0.9096
vt 0.9637 0.8892
vt 0.1755 0.9726
vt 0.3095 0.9726
vt 0.3095 0.9589
vt 0.1754 0.9589
vt 0.7937 0.9733
vt 0.982 0.9733
vt 0.9821 0.9596
vt 0.7936 0.9596
vt 0.2525 0.7672
vt 0.151 0.7672
vt 0.1585 0.779
vt 0.2524 0.779
vt 0.2559 0.779
vt 0.4969 0.7793
vt 0.7011 0.8836
vt 0.7634 0.8836
vt 0.8079 0.8832
vt 0.9679 0.8832
vt 0.7775 0.9737
vt 0.7151 0.9737
vt 0.7206 0.9806
vt 0.7829 0.9806
vt 0.7884 0.9801
vt 0.9874 0.9801
vt 0.7151 0.9875
vt 0.7773 0.9875
vt 0.7939 0.987
vt 0.9818 0.987
vt 0.7685 0.9383
vt 0.706 0.9383
vt 0.7151 0.96
vt 0.7776 0.96
vt 0.8027 0.9379
vt 0.973 0.9379
vt 0.9754 0.9368
vt 0.9849 0.9589
vt 0.2528 0.0122
vt 0.8073 0.909
vt 0.8095 0.8902
vt 0.9848 0.9721
vt 0.7912 0.9721
vt 0.791 0.9589
vt 0.9705 0.8857
vt 0.9664 0.8902
vt 0.8052 0.8857
vt 0.5005 0.7793
vt 0.9907 0.9801
vt 0.786 0.9801
vt 0.9842 0.9896
vt 0.7916 0.9896
vt 0.9686 0.909
vt 0.8002 0.9367
vt 0.9787 0.844
vt 0.7407 0.844
vt 0.7521 0.8673
vt 0.9674 0.8673
vt 0.7344 0.844
vt 0.7231 0.8673
vt 0.6561 0.844
vt 0.6344 0.8678
vt 0.9833 0.8433
vt 0.983 0.8665
vt 0.979 0.8318
vt 0.7404 0.8318
vt 0.7404 0.8398
vt 0.979 0.8398
vt 0.7347 0.8318
vt 0.7347 0.8398
vt 0.6605 0.8318
vt 0.6605 0.8398
vt 0.9847 0.8318
vt 0.9847 0.8398
vt 0.7512 0.8699
vt 0.9682 0.8705
vt 0.6362 0.8704
vt 0.7239 0.8699
vt 0.983 0.8702
vt 0.5036 0.8097
vt 0.5036 0.8179
vt 0.745 0.8179
vt 0.745 0.8097
vt 0.7479 0.8179
vt 0.7479 0.8097
vt 0.3292 0.8097
vt 0.3292 0.8179
vt 0.5007 0.8179
vt 0.5007 0.8097
vt 0.2557 0.0062
vt 0.4974 0.0062
vt 0.155 0.0062
vt 0.151 0.0122
vt 0.2527 0.0062
vt 0.5002 0.0062
vt 0.9787 0.8276
vt 0.7407 0.8276
vt 0.9833 0.8276
vt 0.0095 0.8276
vt 0.0075 0.8318
vt 0.1761 0.8318
vt 0.1774 0.8276
vt 0.7344 0.8276
vt 0.3095 0.9089
vt 0.3095 0.8885
vt 0.1939 0.8885
vt 0.1916 0.9089
vt 0.6812 0.779
vt 0.3095 0.8825
vt 0.1897 0.8825
vt 0.3095 0.9794
vt 0.1701 0.9794
vt 0.1757 0.9863
vt 0.3095 0.9863
vt 0.3095 0.9372
vt 0.1845 0.9372
vt 0.1774 0.8442
vt 0.0095 0.8447
vt 0.0185 0.8682
vt 0.183 0.8683
vt 0.0075 0.8398
vt 0.1761 0.8398
vt 0.1822 0.8709
vt 0.0168 0.8708
vt 0.6833 0.0062
vt 0.2049 0.9089
vt 0.2071 0.8885
vt 0.5201 0.7792
vt 0.522 0.7672
vt 0.2026 0.8825
vt 0.1831 0.9794
vt 0.1887 0.9726
vt 0.1887 0.9863
vt 0.1887 0.9589
vt 0.1978 0.9372
vt 0.0374 0.8682
vt 0.0256 0.8447
vt 0.0205 0.8398
vt 0.0205 0.8318
vt 0.0356 0.8709
vt 0.522 0.0122
vt 0.521 0.0062
vt 0.8273 0.8097
vt 0.8273 0.8179
vt 0.6561 0.8276
vt 0.1549 0.9938
vt 0.4842 0.8179
vt 0.4842 0.8097
vt 0.0256 0.8276
vn 0.4014 0.9081 -0.1192
vn 0.1192 0.9081 -0.4014
vn 0.1157 0.9865 -0.1157
vn 0.1192 0.9081 0.4014
vn -0.0 1.0 0.0
vn -0.0 0.9176 0.3975
vn 0.4014 0.9081 0.1192
vn 0.2921 -0.5105 0.8088
vn 0.0 -0.4117 0.9113
vn 0.0 0.4619 0.8869
vn 0.2799 0.5652 0.776
vn 0.8088 -0.5105 -0.2921
vn 0.8088 -0.5105 0.2921
vn 0.776 0.5652 0.2798
vn 0.7761 0.5652 -0.2798
vn 0.3129 0.3591 -0.8793
vn 0.6771 0.2884 -0.6771
vn 0.6821 -0.2638 -0.6821
vn 0.3577 -0.262 -0.8963
vn 0.8793 0.3591 -0.3129
vn 0.8963 -0.262 -0.3576
vn 0.8964 -0.262 0.3576
vn 0.8793 0.3591 0.313
vn 0.3026 -0.4599 0.8348
vn 0.0 -0.3678 0.9299
vn 0.0 -0.2226 0.9749
vn 0.3871 -0.2629 0.8838
vn 0.8348 -0.4599 -0.3025
vn 0.8348 -0.4599 0.3025
vn 0.8837 -0.2629 0.3872
vn 0.8837 -0.2629 -0.3871
vn 0.2921 -0.5105 -0.8088
vn 0.6447 -0.4108 -0.6447
vn 0.7013 -0.1277 -0.7013
vn 0.4328 -0.0633 -0.8992
vn 0.8992 -0.0633 -0.4328
vn 0.8992 -0.0633 0.4329
vn 0.3026 -0.4599 -0.8348
vn 0.6538 -0.381 -0.6538
vn 0.7071 -0.0 -0.7071
vn 0.4354 0.0029 -0.9002
vn 0.9002 0.0028 -0.4354
vn 0.9002 0.0028 0.4354
vn 0.3245 -0.4518 -0.831
vn 0.6292 -0.4562 -0.6292
vn 0.6648 -0.3406 -0.6648
vn 0.3871 -0.2629 -0.8838
vn 0.831 -0.4519 -0.3244
vn 0.831 -0.4519 0.3244
vn 0.3244 -0.4519 0.831
vn 0.2799 0.5652 -0.7761
vn 0.4328 -0.0633 0.8992
vn 0.3129 0.3591 0.8793
vn 0.4354 0.0028 0.9003
vn 0.3577 -0.262 0.8963
vn 0.2184 0.9701 0.1058
vn 0.2184 0.9701 -0.1058
vn 0.9468 0.1287 -0.295
vn 0.9468 0.1287 0.2949
vn 0.1058 0.9701 -0.2184
vn 0.295 0.1287 -0.9468
vn 0.2998 0.9057 -0.2998
vn 0.7047 0.0825 -0.7047
vn 0.1058 0.9701 0.2184
vn 0.295 0.1288 0.9468
vn 0.7173 -0.6303 0.2971
vn 0.7173 -0.6302 -0.2971
vn 0.7173 0.6303 -0.2971
vn 0.7173 0.6302 0.2971
vn 0.2971 -0.6303 -0.7173
vn 0.2971 0.6302 -0.7173
vn 0.3015 -0.9045 -0.3015
vn 0.3015 0.9045 -0.3015
vn 0.2971 -0.6302 0.7173
vn 0.2971 0.6303 0.7173
vn 0.89 0.1596 -0.4272
vn 0.89 0.1596 0.4271
vn 0.67 0.3197 -0.67
vn 0.4272 0.1596 -0.89
vn 0.4272 0.1596 0.89
vn 0.5491 -0.8042 0.2275
vn 0.9239 0.0 0.3827
vn 0.9239 0.0 -0.3827
vn 0.5491 -0.8042 -0.2275
vn 0.3826 0.0 -0.9239
vn 0.2274 -0.8042 -0.5492
vn 0.0 -0.7071 0.7071
vn 0.0 0.0 1.0
vn 0.3826 0.0 0.9239
vn 0.2274 -0.8042 0.5492
vn 0.6342 0.4423 -0.6342
vn 0.0 -0.7071 0.7071
vn 0.0 -0.2005 0.9797
vn 0.0 0.2858 0.9583
vn 0.0 -0.0747 0.9972
vn 0.0 -0.0 1.0
vn 0.0 -0.3584 0.9336
vn 0.0 0.9241 0.3822
vn 0.0 0.1052 0.9944
vn 0.0 0.7071 0.7071
vn 0.0 0.1912 0.9816
vn -0.6766 -0.2907 0.6766
vn -0.6319 0.4487 0.6319
vn -0.7061 -0.0541 0.7061
vn -0.5591 -0.6123 0.5591
vn -0.7071 0.0 0.7071
vn -0.5886 -0.5541 0.5886
vn -0.3128 0.8968 0.3128
vn -0.6823 -0.2628 0.6823
vn -0.6141 -0.4958 0.6141
vn -0.6957 0.1788 0.6957
vn -0.1099 0.9879 0.1099
vn -0.5773 0.5774 0.5773
vn -0.5773 -0.5774 0.5773
vn -0.7001 0.1403 0.7001
vn -0.5222 0.6742 0.5222
vn 0.5773 -0.5774 -0.5773
vn 0.7071 0.0 -0.7071
vn -0.7071 0.0 0.7071
vn -0.3015 -0.9045 0.3015
vn -0.4014 0.9081 -0.1192
vn -0.3975 0.9176 0.0
vn 0.1192 0.9081 -0.4014
vn 0.4015 0.9081 -0.1192
vn -0.1192 0.9081 -0.4014
vn -0.8869 0.4619 0.0
vn -0.9113 -0.4117 -0.0
vn -0.8088 -0.5105 -0.2921
vn -0.7761 0.5651 -0.2798
vn -0.2799 0.5652 -0.776
vn -0.2921 -0.5105 -0.8088
vn 0.2921 -0.5105 -0.8087
vn 0.2799 0.5652 -0.776
vn 0.8793 0.3591 -0.3129
vn 0.8963 -0.262 -0.3577
vn -0.3577 -0.262 -0.8963
vn 0.3576 -0.262 -0.8964
vn 0.313 0.3591 -0.8792
vn -0.3129 0.3591 -0.8792
vn -0.9749 -0.2226 -0.0
vn -0.9299 -0.3678 -0.0
vn -0.8348 -0.4599 -0.3026
vn -0.8837 -0.2629 -0.3872
vn -0.3871 -0.2629 -0.8838
vn -0.3025 -0.4599 -0.8349
vn 0.3026 -0.4599 -0.8348
vn 0.3871 -0.2629 -0.8838
vn 0.8088 -0.5105 -0.2921
vn 0.8992 -0.0633 -0.4329
vn -0.4329 -0.0633 -0.8992
vn 0.4328 -0.0633 -0.8993
vn 0.8349 -0.4599 -0.3025
vn 0.9002 0.0029 -0.4354
vn -0.4354 0.0029 -0.9002
vn 0.4354 0.0028 -0.9002
vn 0.831 -0.4518 -0.3245
vn 0.8837 -0.2629 -0.3872
vn 0.3244 -0.4519 -0.831
vn -0.3244 -0.4519 -0.831
vn -0.831 -0.4518 -0.3244
vn 0.7761 0.5651 -0.2798
vn -0.8993 -0.0633 -0.4328
vn -0.8793 0.3591 -0.3129
vn -0.9002 0.0028 -0.4354
vn -0.8963 -0.262 -0.3576
vn 0.295 0.1287 -0.9468
vn 0.1058 0.9701 -0.2184
vn -0.1058 0.9701 -0.2184
vn -0.295 0.1287 -0.9468
vn 0.9468 0.1287 -0.295
vn 0.2184 0.9701 -0.1058
vn -0.2184 0.9701 -0.1058
vn -0.9468 0.1287 -0.295
vn 0.2971 0.6303 -0.7173
vn 0.2971 -0.6302 -0.7173
vn -0.2971 -0.6303 -0.7173
vn -0.2971 0.6302 -0.7173
vn 0.7173 0.6302 -0.2971
vn 0.7173 -0.6303 -0.2971
vn -0.7173 -0.6302 -0.2971
vn -0.7173 0.6303 -0.2971
vn -0.4272 0.1596 -0.89
vn 0.4272 0.1596 -0.89
vn 0.89 0.1596 -0.4272
vn -0.89 0.1596 -0.4272
vn 0.3827 0.0 -0.9239
vn -0.3827 0.0 -0.9239
vn -0.2275 -0.8042 -0.5491
vn 0.2275 -0.8042 -0.5491
vn 0.9239 0.0 -0.3826
vn 0.5491 -0.8042 -0.2275
vn -0.9239 0.0 -0.3827
vn -1.0 0.0 0.0
vn -0.7071 -0.7071 0.0
vn -0.5491 -0.8042 -0.2274
vn -0.7071 -0.7071 0.0
vn -0.9797 -0.2005 -0.0
vn -0.9583 0.2858 0.0
vn -0.9972 -0.0746 0.0
vn -1.0 -0.0 -0.0
vn -0.9336 -0.3584 -0.0
vn -0.3822 0.9241 0.0
vn -0.9945 0.1052 0.0
vn -0.7071 0.7071 0.0
vn -0.9816 0.1911 0.0
vtan 0.9159 -0.3981 0.0519 -1.0
vtan 0.9929 -0.109 0.0482 -1.0
vtan 0.9933 -0.1149 0.0136 -1.0
vtan 0.9929 -0.1112 -0.0433 -1.0
vtan 1.0 0.0 0.0027 -1.0
vtan 1.0 -0.0002 0.0006 -1.0
vtan 0.9157 -0.4005 -0.0327 -1.0
vtan -0.9404 0.0008 0.3402 -1.0
vtan -1.0 0.0 0.0 -1.0
vtan -0.9411 0.0017 0.3382 -1.0
vtan 0.3397 -0.0 0.9405 -1.0
vtan -0.3399 -0.0003 0.9405 -1.0
vtan -0.3381 -0.0017 0.9411 -1.0
vtan 0.3381 0.0017 0.9411 -1.0
vtan 0.9498 -0.1183 0.2897 -1.0
vtan 0.7359 -0.2653 0.6229 -1.0
vtan 0.7313 0.246 0.6361 -1.0
vtan 0.9338 0.1004 0.3433 -1.0
vtan 0.2823 0.1363 0.9496 -1.0
vtan 0.342 -0.1047 0.9339 -1.0
vtan -0.3452 0.0936 0.9339 -1.0
vtan -0.2673 -0.1717 0.9482 -1.0
vtan -0.9531 -0.146 0.265 -1.0
vtan -0.922 -0.1104 0.371 -1.0
vtan 0.2699 -0.137 0.9531 -1.0
vtan -0.254 0.1658 0.9529 -1.0
vtan -0.3661 0.127 0.9219 -1.0
vtan 0.3644 -0.1325 0.9218 -1.0
vtan 0.9405 -0.0003 0.3399 -1.0
vtan 0.7644 0.3464 0.5437 -1.0
vtan 0.7129 0.1257 0.6899 -1.0
vtan 0.901 -0.0032 0.4339 -1.0
vtan 0.4339 0.0028 0.901 -1.0
vtan -0.4339 -0.0032 0.901 -1.0
vtan 0.9015 0.0304 0.4318 -1.0
vtan 0.4313 0.2938 0.853 -1.0
vtan -0.431 -0.2976 0.8519 -1.0
vtan 0.9531 0.146 0.265 -1.0
vtan 0.7567 0.3292 0.5649 -1.0
vtan 0.7071 0.0 0.7071 -1.0
vtan 0.9002 -0.0014 0.4354 -1.0
vtan 0.435 0.0375 0.8996 -1.0
vtan -0.4354 0.0221 0.9 -1.0
vtan 0.9933 -0.1149 0.0135 -1.0
vtan 0.9929 -0.109 0.0482 -1.0
vtan -0.019 0.1384 0.9902 -1.0
vtan -0.0963 -0.0876 0.9915 -1.0
vtan 0.9459 0.155 0.2851 -1.0
vtan 0.7772 0.3693 0.5094 -1.0
vtan 0.747 0.3031 0.5917 -1.0
vtan 0.922 0.1104 0.371 -1.0
vtan 0.2727 -0.1773 0.9456 -1.0
vtan -0.2785 0.1669 0.9458 -1.0
vtan -0.6805 0.4987 0.5369 -1.0
vtan -0.8205 0.3392 0.4602 -1.0
vtan 0.9411 -0.0017 0.3382 -1.0
vtan 0.856 -0.2915 0.4268 -1.0
vtan 0.6953 0.5441 0.4696 -1.0
vtan -0.6807 0.5088 0.527 -1.0
vtan 0.6776 -0.5121 0.5277 -1.0
vtan 0.8194 -0.3415 0.4605 -1.0
vtan -0.7219 -0.6218 0.3037 -1.0
vtan -0.7183 -0.5163 0.4664 -1.0
vtan 0.5545 0.8052 0.2102 -1.0
vtan -0.9009 0.0037 0.4339 -1.0
vtan -0.8978 -0.0727 0.4344 -1.0
vtan 0.8996 -0.0385 0.435 -1.0
vtan -0.1652 -0.3805 0.9099 -1.0
vtan 0.1667 0.3802 0.9097 -1.0
vtan -0.8417 0.3252 0.431 -1.0
vtan 0.6639 -0.5169 0.5403 -1.0
vtan -0.5028 0.0189 0.8642 -1.0
vtan 0.4242 0.0033 0.9055 -1.0
vtan 0.2973 0.0014 0.9548 -1.0
vtan -0.3064 0.0801 0.9485 -1.0
vtan 0.9056 -0.0033 0.4242 -1.0
vtan 0.9547 0.0001 0.2975 -1.0
vtan 0.954 -0.2831 0.0987 -1.0
vtan 0.7095 -0.0728 0.701 -1.0
vtan -0.8728 -0.0146 0.4878 -1.0
vtan -0.9479 0.1639 0.2731 -1.0
vtan -0.3827 -0.0 0.9239 -1.0
vtan 0.3827 -0.0 0.9239 -1.0
vtan 0.3827 -0.0 0.9239 -1.0
vtan -0.3827 -0.0 0.9239 -1.0
vtan 0.9239 0.0 0.3827 -1.0
vtan 0.9239 -0.0 0.3827 -1.0
vtan 0.9535 0.286 0.0954 -1.0
vtan 0.9535 -0.286 0.0954 -1.0
vtan -0.833 0.1961 0.5173 -1.0
vtan -0.8507 -0.1665 0.4986 -1.0
vtan 0.4333 -0.0039 0.9013 -1.0
vtan -0.4382 0.0405 0.898 -1.0
vtan 0.7424 -0.2835 0.6071 -1.0
vtan 0.9012 0.0052 0.4335 -1.0
vtan -0.9041 0.0681 0.4218 -1.0
vtan 0.3827 -0.0 -0.9239 -1.0
vtan 0.3827 0.0 -0.9239 -1.0
vtan -0.3827 0.0 -0.9239 -1.0
vtan -0.3827 -0.0 -0.9239 -1.0
vtan -0.9239 0.0 -0.3826 -1.0
vtan -0.9239 0.0 -0.3826 -1.0
vtan 1.0 0.0 0.0 -1.0
vtan 0.9239 0.0 -0.3826 -1.0
vtan 0.9239 -0.0 -0.3826 -1.0
vtan 0.4342 -0.0104 0.9008 -1.0
vtan -0.4342 0.0104 0.9008 -1.0
vtan 0.7424 -0.2885 0.6047 -1.0
vtan 0.7732 -0.3628 0.5201 -1.0
vtan 0.9007 0.0104 0.4342 -1.0
vtan -0.9007 -0.0104 0.4342 -1.0
vtan -0.3827 -0.0 0.9239 -1.0
vtan 0.3827 -0.0 0.9239 -1.0
vtan -0.7793 0.1878 0.5978 -1.0
vtan -0.9738 -0.1878 0.1283 -1.0
vtan -0.9548 -0.1961 0.2232 -1.0
vtan 0.9239 -0.0 0.3826 -1.0
vtan -1.0 -0.0 0.0 -1.0
vtan -0.9498 0.1183 0.2897 -1.0
vtan -0.9338 -0.1004 0.3434 -1.0
vtan -1.0 0.0 0.0 -1.0
vtan -0.9015 -0.0304 0.4318 -1.0
vtan -1.0 0.0 0.0 -1.0
vtan -0.9003 0.0014 0.4354 -1.0
vtan -0.9929 0.109 0.0482 -1.0
vtan -1.0 -0.0 -0.0 -1.0
vtan -1.0 -0.0 -0.0 -1.0
vtan -0.9459 -0.155 0.285 -1.0
vtan -1.0 0.0005 -0.0013 -1.0
vtan -0.9944 0.1035 0.0221 -1.0
vtan -0.9555 0.0411 0.2921 -1.0
vtan -1.0 -0.0007 0.0001 -1.0
vtan -0.9548 0.1961 0.2232 -1.0
vtan -1.0 0.0008 -0.0008 -1.0
vtan -1.0 -0.0006 0.0001 -1.0
vtan -0.9042 0.0748 0.4206 -1.0
vtan 1.0 0.0 -0.0 1.0
vtan 0.7364 -0.2671 0.6216 1.0
vtan 0.775 0.3659 0.5153 1.0
vtan 1.0 0.0 0.0 1.0
vtan 0.7081 -0.0527 0.7041 1.0
vtan 0.8291 -0.4122 0.3777 1.0
vtan 0.7081 -0.0539 0.704 1.0
vtan 1.0 0.0 0.0 1.0
vtan 0.7071 0.0 0.7071 1.0
vtan 0.8084 -0.4035 0.4286 1.0
vtan 0.9498 0.2953 0.103 1.0
vtan 1.0 0.0 0.0 1.0
vtan 0.7311 -0.2452 0.6367 1.0
vtan 0.7893 -0.3858 0.4778 1.0
vtan 1.0 0.0 -0.0 1.0
vtan 0.7183 0.1756 0.6732 1.0
vtan 0.9939 0.1093 0.0112 1.0
vtan 1.0 0.0006 -0.0015 1.0
vtan 1.0 -0.0008 0.0001 1.0
vtan 0.8165 0.4083 0.4082 1.0
vtan 0.8165 -0.4083 0.4082 1.0
vtan 1.0 0.0009 -0.0009 1.0
vtan 1.0 -0.0007 0.0001 1.0
vtan 0.714 0.1376 0.6865 1.0
vtan 0.8528 0.4129 0.3198 1.0
vtan 0.714 0.1376 0.6865 1.0
vtan -0.8165 -0.4083 -0.4082 -1.0
vtan -0.7071 0.0 -0.7071 -1.0
vtan 0.8165 0.4083 0.4082 -1.0
vtan -1.0 -0.0 -0.0 1.0
vtan -0.9498 -0.2953 -0.103 1.0
vtan -1.0 -0.0 -0.0 1.0
vtan -0.7071 0.0 -0.7071 1.0
vtan -0.9535 0.286 -0.0953 1.0
vtan 0.9535 -0.286 0.0953 1.0
vtan 0.043 -0.1113 -0.9929 1.0
vtan 0.0 0.0 -1.0 1.0
vtan -0.0003 0.0 -1.0 1.0
vtan -0.0494 -0.3984 -0.9159 1.0
vtan -0.0135 -0.1149 -0.9933 1.0
vtan -0.0444 -0.1107 -0.9929 1.0
vtan 0.0327 -0.4005 -0.9157 1.0
vtan -0.0 -0.0 1.0 1.0
vtan 0.0 -0.0 1.0 1.0
vtan -0.3402 0.0008 0.9404 1.0
vtan -0.3381 0.0017 0.9411 1.0
vtan -0.9411 -0.0017 0.3382 1.0
vtan -0.9405 -0.0003 0.3399 1.0
vtan -0.9405 -0.0 -0.3397 1.0
vtan -0.9411 0.0017 -0.3382 1.0
vtan -0.2897 -0.1183 -0.9498 1.0
vtan -0.3433 0.1004 -0.9338 1.0
vtan -0.6361 0.246 -0.7313 1.0
vtan -0.6229 -0.2653 -0.7359 1.0
vtan -0.9338 0.0936 0.3453 1.0
vtan -0.9339 -0.1046 -0.342 1.0
vtan -0.9496 0.1364 -0.2823 1.0
vtan -0.9482 -0.1717 0.2673 1.0
vtan -0.0 -0.0 1.0 1.0
vtan 0.0 -0.0 1.0 1.0
vtan -0.265 -0.146 0.9531 1.0
vtan -0.3711 -0.1104 0.922 1.0
vtan -0.9219 0.127 0.366 1.0
vtan -0.9529 0.1657 0.254 1.0
vtan -0.9531 -0.137 -0.27 1.0
vtan -0.9218 -0.1325 -0.3643 1.0
vtan -0.3399 -0.0003 -0.9405 1.0
vtan -0.4339 -0.0032 -0.901 1.0
vtan -0.69 0.1257 -0.7128 1.0
vtan -0.5437 0.3464 -0.7644 1.0
vtan -0.901 -0.0032 0.4339 1.0
vtan -0.901 0.0028 -0.4339 1.0
vtan -0.69 0.1257 -0.7128 1.0
vtan -0.4318 0.0304 -0.9015 1.0
vtan -0.853 0.2938 -0.4313 1.0
vtan -0.8519 -0.2976 0.431 1.0
vtan -0.265 0.146 -0.9531 1.0
vtan -0.4354 -0.0014 -0.9003 1.0
vtan -0.7071 0.0 -0.7071 1.0
vtan -0.5649 0.3292 -0.7567 1.0
vtan -0.9 0.0221 0.4353 1.0
vtan -0.8996 0.0375 -0.435 1.0
vtan -0.0482 -0.109 -0.9929 1.0
vtan -0.0135 -0.1149 -0.9933 1.0
vtan -0.9915 -0.0876 0.0963 1.0
vtan -0.9902 0.1384 0.019 1.0
vtan -0.2851 0.155 -0.9459 1.0
vtan -0.3711 0.1104 -0.922 1.0
vtan -0.5917 0.3031 -0.747 1.0
vtan -0.5094 0.3693 -0.7772 1.0
vtan -0.9456 -0.1773 -0.2727 1.0
vtan -0.9458 0.1669 0.2785 1.0
vtan -0.5368 0.4987 0.6805 1.0
vtan -0.4603 0.3392 0.8204 1.0
vtan -0.3381 -0.0017 -0.9411 1.0
vtan -0.4269 -0.2915 -0.856 1.0
vtan -0.4696 0.5442 -0.6952 1.0
vtan -0.527 0.5088 0.6807 1.0
vtan -0.5277 -0.5121 -0.6777 1.0
vtan -0.4605 -0.3415 -0.8193 1.0
vtan -0.3037 -0.6218 0.7219 1.0
vtan -0.4665 -0.5163 0.7182 1.0
vtan -0.2103 0.8051 -0.5546 1.0
vtan -0.4339 0.0037 0.901 1.0
vtan -0.4344 -0.0727 0.8978 1.0
vtan -0.435 -0.0385 -0.8996 1.0
vtan -0.9099 -0.3805 0.1652 1.0
vtan -0.9097 0.3803 -0.1667 1.0
vtan -0.4309 0.3252 0.8418 1.0
vtan -0.5403 -0.5169 -0.664 1.0
vtan -0.9548 0.0014 -0.2973 1.0
vtan -0.9055 0.0033 -0.4242 1.0
vtan -0.8642 0.0189 0.5028 1.0
vtan -0.9485 0.0801 0.3064 1.0
vtan -0.2975 0.0001 -0.9547 1.0
vtan -0.4242 -0.0033 -0.9056 1.0
vtan -0.701 -0.0728 -0.7095 1.0
vtan -0.0987 -0.2831 -0.954 1.0
vtan -0.4878 -0.0146 0.8728 1.0
vtan -0.2731 0.1639 0.9479 1.0
vtan -0.9239 -0.0 -0.3827 1.0
vtan -0.9239 -0.0 -0.3827 1.0
vtan -0.9239 -0.0 0.3827 1.0
vtan -0.9239 -0.0 0.3827 1.0
vtan -0.3827 -0.0 -0.9239 1.0
vtan -0.3827 0.0 -0.9239 1.0
vtan -0.0954 -0.2861 -0.9535 1.0
vtan -0.0954 0.286 -0.9535 1.0
vtan -0.5174 0.1961 0.833 1.0
vtan -0.4987 -0.1665 0.8507 1.0
vtan -0.8979 0.0405 0.4383 1.0
vtan -0.9012 -0.0039 -0.4333 1.0
vtan -0.4335 0.0052 -0.9012 1.0
vtan -0.6071 -0.2835 -0.7424 1.0
vtan -0.4218 0.0681 0.9041 1.0
vtan 0.9239 0.0 0.3827 1.0
vtan 0.9239 0.0 -0.3827 1.0
vtan 0.9239 0.0 -0.3827 1.0
vtan 0.9239 -0.0 0.3827 1.0
vtan 0.3826 0.0 0.9239 1.0
vtan 0.3827 -0.0 0.9239 1.0
vtan 0.3827 0.0 -0.9239 1.0
vtan 0.0 0.0 -1.0 1.0
vtan 0.3827 -0.0 -0.9239 1.0
vtan -0.9007 -0.0104 -0.4342 1.0
vtan -0.9007 0.0104 0.4342 1.0
vtan -0.5201 -0.3628 -0.7732 1.0
vtan -0.6047 -0.2885 -0.7424 1.0
vtan -0.4342 0.0104 -0.9007 1.0
vtan -0.4342 -0.0104 0.9007 1.0
vtan -0.9239 -0.0 0.3827 1.0
vtan -0.9239 0.0 -0.3827 1.0
vtan -0.5979 0.1879 0.7793 1.0
vtan -0.1283 -0.1878 0.9738 1.0
vtan 0.0 0.0 1.0 1.0
vtan -0.2232 -0.1961 0.9548 1.0
vtan -0.3827 0.0 -0.9239 1.0
vtan 0.0 -0.0 1.0 1.0
vtan -0.3433 -0.1003 0.9339 1.0
vtan -0.2896 0.1183 0.9498 1.0
vtan 0.0 -0.0 1.0 1.0
vtan -0.0 0.0 1.0 1.0
vtan -0.4317 -0.0304 0.9015 1.0
vtan 0.0 -0.0 1.0 1.0
vtan -0.0 -0.0 1.0 1.0
vtan -0.4354 0.0014 0.9002 1.0
vtan -0.0482 0.109 0.9929 1.0
vtan -0.0 -0.0 1.0 1.0
vtan -0.285 -0.155 0.9459 1.0
vtan 0.0 -0.0 1.0 1.0
vtan -0.2921 0.041 0.9555 1.0
vtan -0.0221 0.1035 0.9944 1.0
vtan 0.0013 0.0005 1.0 1.0
vtan -0.0001 -0.0007 1.0 1.0
vtan -0.2232 0.1961 0.9548 1.0
vtan 0.0008 0.0008 1.0 1.0
vtan -0.0001 -0.0006 1.0 1.0
vtan -0.4206 0.0748 0.9042 1.0
vtan 0.0 -0.0 1.0 1.0
vtan 0.0 0.0 -1.0 -1.0
vtan -0.0 0.0 -1.0 -1.0
vtan -0.5153 0.3658 -0.775 -1.0
vtan -0.6216 -0.2671 -0.7364 -1.0
vtan -0.0 0.0 -1.0 -1.0
vtan 0.0 0.0 -1.0 -1.0
vtan -0.3777 -0.4122 -0.8291 -1.0
vtan -0.7041 -0.0527 -0.7081 -1.0
vtan -0.0 -0.0 -1.0 -1.0
vtan -0.704 -0.0539 -0.7081 -1.0
vtan 0.0 0.0 -1.0 -1.0
vtan 0.0 0.0 -1.0 -1.0
vtan -0.4286 -0.4035 -0.8084 -1.0
vtan -0.7071 0.0 -0.7071 -1.0
vtan -0.103 0.2953 -0.9498 -1.0
vtan 0.0 0.0 -1.0 -1.0
vtan 0.0 0.0 -1.0 -1.0
vtan -0.4778 -0.3858 -0.7892 -1.0
vtan -0.6367 -0.2452 -0.7311 -1.0
vtan 0.0015 0.0006 -1.0 -1.0
vtan -0.0112 0.1093 -0.9939 -1.0
vtan -0.6732 0.1756 -0.7183 -1.0
vtan -0.0001 -0.0008 -1.0 -1.0
vtan -0.4082 -0.4083 -0.8165 -1.0
vtan -0.4082 0.4083 -0.8165 -1.0
vtan 0.0009 0.0009 -1.0 -1.0
vtan -0.0001 -0.0007 -1.0 -1.0
vtan -0.6864 0.1376 -0.7141 -1.0
vtan -0.0 0.0 -1.0 -1.0
vtan -0.6864 0.1376 -0.7141 -1.0
vtan -0.3198 0.4129 -0.8528 -1.0
vtan -0.0 0.0 -1.0 -1.0
vtan 0.4082 -0.4083 0.8165 1.0
vtan 0.7071 0.0 0.7071 1.0
vtan -0.4082 0.4083 -0.8165 1.0
vtan 0.0 -0.0 1.0 -1.0
vtan 0.103 -0.2953 0.9498 -1.0
vtan 0.7071 0.0 0.7071 -1.0
vtan 0.0953 0.286 0.9535 -1.0
vtan -0.0953 -0.286 -0.9535 -1.0
f 0/0/0/0 1/1/1/1 2/2/2/2 
f 0/0/0/0 2/2/2/2 3/3/3/3 
f 2/2/2/2 4/4/4/4 5/5/5/5 
f 2/2/2/2 5/5/5/5 3/3/3/3 
f 6/6/6/6 0/0/0/0 3/3/3/3 
f 7/7/7/7 8/8/8/8 9/9/9/8 
f 7/7/7/7 9/9/9/8 10/10/10/9 
f 11/11/11/10 12/12/12/11 13/13/13/12 
f 11/11/11/10 13/13/13/12 14/14/14/13 
f 15/15/15/14 16/16/16/15 17/17/17/16 
f 15/15/15/14 17/17/17/16 18/18/18/17 
f 19/19/19/18 20/20/20/19 21/21/21/20 
f 19/19/19/18 21/21/21/20 22/22/22/21 
f 23/23/23/22 24/24/24/8 25/25/25/8 
f 23/23/23/22 25/25/25/8 26/26/26/23 
f 27/27/27/24 28/28/28/25 29/29/29/26 
f 27/27/27/24 29/29/29/26 30/30/30/27 
f 31/31/31/28 32/32/32/29 33/33/33/30 
f 31/31/31/28 33/33/33/30 34/34/34/31 
f 11/11/11/10 35/35/35/32 36/36/36/33 
f 11/11/11/10 36/36/36/33 12/12/12/11 
f 33/37/33/30 16/16/16/15 15/15/15/14 
f 33/37/33/30 15/15/15/14 34/38/34/34 
f 35/39/35/35 19/19/19/18 22/22/22/21 
f 35/39/35/35 22/22/22/21 36/40/36/36 
f 37/41/37/37 38/42/38/38 39/43/39/39 
f 37/41/37/37 39/43/39/39 40/44/40/40 
f 27/27/27/24 41/45/41/41 42/46/42/42 
f 27/27/27/24 42/46/42/42 28/28/28/25 
f 39/43/39/39 2/47/2/43 1/48/1/44 
f 39/43/39/39 1/48/1/44 40/44/40/40 
f 41/45/41/41 0/49/0/45 6/50/6/46 
f 41/45/41/41 6/50/6/46 42/46/42/42 
f 43/51/43/47 44/52/44/48 45/53/45/49 
f 43/51/43/47 45/53/45/49 46/54/46/50 
f 47/55/47/51 30/30/30/27 29/29/29/26 
f 47/55/47/51 29/29/29/26 48/56/48/52 
f 18/18/18/17 17/17/17/16 44/52/44/48 
f 18/18/18/17 44/52/44/48 43/51/43/47 
f 20/20/20/19 47/55/47/51 48/56/48/52 
f 20/20/20/19 48/56/48/52 21/21/21/20 
f 49/57/49/53 48/56/48/52 29/29/29/26 
f 49/57/49/53 29/29/29/26 26/58/26/54 
f 31/31/31/28 11/11/11/10 14/14/14/13 
f 31/31/31/28 14/14/14/13 50/59/50/55 
f 10/10/10/9 13/13/13/12 12/12/12/11 
f 10/10/10/9 12/12/12/11 7/7/7/7 
f 18/60/18/56 20/20/20/19 19/19/19/18 
f 18/60/18/56 19/19/19/18 15/61/15/57 
f 28/28/28/25 23/62/23/58 26/58/26/54 
f 28/28/28/25 26/58/26/54 29/29/29/26 
f 37/63/37/59 27/27/27/24 30/30/30/27 
f 37/63/37/59 30/30/30/27 46/64/46/60 
f 51/65/51/61 36/40/36/36 22/22/22/21 
f 51/65/51/61 22/22/22/21 52/66/52/62 
f 35/39/35/35 34/67/34/63 15/61/15/57 
f 35/39/35/35 15/61/15/57 19/19/19/18 
f 7/7/7/7 12/12/12/11 36/36/36/33 
f 7/7/7/7 36/36/36/33 51/68/51/64 
f 11/11/11/10 31/31/31/28 34/34/34/31 
f 11/11/11/10 34/34/34/31 35/35/35/32 
f 42/46/42/42 53/69/53/65 23/62/23/58 
f 42/46/42/42 23/62/23/58 28/28/28/25 
f 40/70/40/66 41/45/41/41 27/27/27/24 
f 40/70/40/66 27/27/27/24 37/63/37/59 
f 6/50/6/46 3/71/3/67 53/69/53/65 
f 6/50/6/46 53/69/53/65 42/46/42/42 
f 1/72/1/68 0/49/0/45 41/45/41/41 
f 1/72/1/68 41/45/41/41 40/70/40/66 
f 52/66/52/62 22/22/22/21 21/21/21/20 
f 52/66/52/62 21/21/21/20 54/73/54/69 
f 46/64/46/60 30/30/30/27 47/55/47/51 
f 46/64/46/60 47/55/47/51 43/74/43/70 
f 48/56/48/52 49/57/49/53 54/73/54/69 
f 48/56/48/52 54/73/54/69 21/21/21/20 
f 43/74/43/70 47/55/47/51 20/20/20/19 
f 43/74/43/70 20/20/20/19 18/60/18/56 
f 55/75/55/71 56/76/56/72 57/77/57/73 
f 55/75/55/71 57/77/57/73 58/78/58/74 
f 56/76/56/72 59/79/59/75 60/80/60/76 
f 56/76/56/72 60/80/60/76 57/77/57/73 
f 60/80/60/76 59/79/59/75 61/81/61/77 
f 60/80/60/76 61/81/61/77 62/82/62/78 
f 63/83/63/79 55/75/55/71 58/78/58/74 
f 63/83/63/79 58/78/58/74 64/84/64/80 
f 65/85/65/81 66/86/66/82 67/87/67/83 
f 65/85/65/81 67/87/67/83 68/88/68/84 
f 66/86/66/82 69/89/69/85 70/90/70/86 
f 66/86/66/82 70/90/70/86 67/87/67/83 
f 69/89/69/85 71/91/71/87 72/92/72/88 
f 69/89/69/85 72/92/72/88 70/90/70/86 
f 73/93/73/89 65/85/65/81 68/88/68/84 
f 73/93/73/89 68/88/68/84 74/94/74/90 
f 57/77/57/73 75/95/75/91 76/96/76/92 
f 57/77/57/73 76/96/76/92 58/78/58/74 
f 60/80/60/76 62/82/62/78 77/97/77/93 
f 60/80/60/76 77/97/77/93 78/98/78/94 
f 58/78/58/74 76/96/76/92 79/99/79/95 
f 58/78/58/74 79/99/79/95 64/84/64/80 
f 60/80/60/76 78/98/78/94 75/95/75/91 
f 60/80/60/76 75/95/75/91 57/77/57/73 
f 80/100/80/96 81/101/81/97 82/102/82/98 
f 80/100/80/96 82/102/82/98 83/103/83/99 
f 83/103/83/99 82/102/82/98 84/104/84/100 
f 83/103/83/99 84/104/84/100 85/105/85/101 
f 86/106/86/102 87/107/87/102 88/108/88/103 
f 86/106/86/102 88/108/88/103 89/109/89/104 
f 89/109/89/104 88/108/88/103 81/101/81/97 
f 89/109/89/104 81/101/81/97 80/100/80/96 
f 75/110/75/105 14/14/14/13 13/13/13/12 
f 75/110/75/105 13/13/13/12 76/111/76/106 
f 77/112/77/107 90/113/90/108 50/59/50/55 
f 77/112/77/107 50/59/50/55 78/114/78/109 
f 76/111/76/106 13/13/13/12 10/10/10/9 
f 76/111/76/106 10/10/10/9 79/115/79/110 
f 78/114/78/109 50/59/50/55 14/14/14/13 
f 78/114/78/109 14/14/14/13 75/110/75/105 
f 68/88/68/84 67/87/67/83 56/76/56/72 
f 68/88/68/84 56/76/56/72 55/75/55/71 
f 67/87/67/83 70/90/70/86 59/79/59/75 
f 67/87/67/83 59/79/59/75 56/76/56/72 
f 59/79/59/75 70/90/70/86 72/92/72/88 
f 59/79/59/75 72/92/72/88 61/81/61/77 
f 74/94/74/90 68/88/68/84 55/75/55/71 
f 74/94/74/90 55/75/55/71 63/83/63/79 
f 66/86/66/82 65/85/65/81 80/116/80/111 
f 66/86/66/82 80/116/80/111 83/117/83/112 
f 65/85/65/81 73/93/73/89 89/118/89/113 
f 65/85/65/81 89/118/89/113 80/116/80/111 
f 89/119/89/114 73/120/73/115 91/121/91/8 
f 89/119/89/114 91/121/91/8 86/122/86/8 
f 69/89/69/85 66/86/66/82 83/117/83/112 
f 69/89/69/85 83/117/83/112 85/123/85/116 
f 92/124/92/117 93/125/93/8 52/126/52/118 
f 92/124/92/117 52/126/52/118 54/127/54/119 
f 94/128/94/120 8/8/8/8 7/7/7/7 
f 94/128/94/120 7/7/7/7 51/68/51/64 
f 94/129/94/8 51/130/51/121 52/126/52/118 
f 94/129/94/8 52/126/52/118 93/125/93/8 
f 95/131/95/122 24/24/24/8 23/23/23/22 
f 95/131/95/122 23/23/23/22 53/132/53/123 
f 95/131/95/122 53/132/53/123 3/133/3/124 
f 95/131/95/122 3/133/3/124 5/134/5/125 
f 25/25/25/8 96/135/96/126 49/136/49/127 
f 25/25/25/8 49/136/49/127 26/26/26/23 
f 96/135/96/126 92/124/92/117 54/127/54/119 
f 96/135/96/126 54/127/54/119 49/136/49/127 
f 97/137/97/128 63/138/63/129 64/139/64/130 
f 97/137/97/128 64/139/64/130 98/140/98/131 
f 91/121/91/8 73/120/73/115 74/141/74/132 
f 91/121/91/8 74/141/74/132 99/142/99/133 
f 100/143/100/134 98/140/98/131 64/139/64/130 
f 100/143/100/134 64/139/64/130 79/144/79/135 
f 100/145/100/8 79/115/79/110 10/10/10/9 
f 100/145/100/8 10/10/10/9 9/9/9/8 
f 99/142/99/133 74/141/74/132 63/138/63/129 
f 99/142/99/133 63/138/63/129 97/137/97/128 
f 92/124/92/136 101/146/101/137 102/147/102/138 
f 92/124/92/136 102/147/102/138 93/125/93/102 
f 94/128/94/139 103/148/103/140 104/149/104/141 
f 94/128/94/139 104/149/104/141 8/8/8/102 
f 102/147/102/138 103/150/103/142 94/129/94/143 
f 102/147/102/138 94/129/94/143 93/125/93/102 
f 95/131/95/102 105/151/105/144 106/152/106/145 
f 95/131/95/102 106/152/106/145 24/24/24/102 
f 107/153/107/146 105/151/105/144 95/131/95/102 
f 107/153/107/146 95/131/95/102 5/134/5/147 
f 25/25/25/102 108/154/108/148 109/155/109/149 
f 25/25/25/102 109/155/109/149 96/135/96/150 
f 96/135/96/150 109/155/109/149 101/146/101/137 
f 96/135/96/150 101/146/101/137 92/124/92/136 
f 110/156/110/151 111/157/111/152 97/137/97/153 
f 110/156/110/151 97/137/97/153 98/140/98/154 
f 112/158/112/155 113/159/113/156 91/121/91/102 
f 112/158/112/155 91/121/91/102 99/142/99/157 
f 100/143/100/158 114/160/114/159 110/156/110/151 
f 100/143/100/158 110/156/110/151 98/140/98/154 
f 115/161/115/160 114/162/114/161 100/145/100/102 
f 115/161/115/160 100/145/100/102 9/9/9/102 
f 111/157/111/152 112/158/112/155 99/142/99/157 
f 111/157/111/152 99/142/99/157 97/137/97/153 
f 32/32/32/29 31/31/31/28 50/59/50/55 
f 32/32/32/29 50/59/50/55 90/113/90/108 
f 38/42/38/38 37/41/37/37 46/54/46/50 
f 38/42/38/38 46/54/46/50 45/53/45/49 
f 116/163/116/162 85/105/85/101 84/104/84/100 
f 116/163/116/162 84/104/84/100 117/164/117/163 
f 71/91/71/87 69/89/69/85 85/123/85/116 
f 71/91/71/87 85/123/85/116 116/165/116/164 
f 4/4/4/165 107/166/107/166 5/5/5/167 
f 115/161/115/160 9/9/9/102 8/8/8/102 
f 115/161/115/160 8/8/8/102 104/149/104/141 
f 108/154/108/148 25/25/25/102 24/24/24/102 
f 108/154/108/148 24/24/24/102 106/152/106/145 
f 118/167/118/168 87/107/87/8 86/106/86/8 
f 118/167/118/168 86/106/86/8 119/168/119/169 
f 119/169/119/170 86/122/86/102 91/121/91/102 
f 119/169/119/170 91/121/91/102 113/159/113/156 
f 120/3/120/171 121/5/121/172 4/4/4/173 
f 120/3/120/171 4/4/4/173 122/0/122/174 
f 4/4/4/173 2/2/2/175 123/1/123/176 
f 4/4/4/173 123/1/123/176 122/0/122/174 
f 124/6/124/177 120/3/120/171 122/0/122/174 
f 125/9/125/178 126/8/126/179 127/7/127/180 
f 125/9/125/178 127/7/127/180 128/10/128/181 
f 129/13/129/182 130/12/130/183 131/11/131/184 
f 129/13/129/182 131/11/131/184 132/14/132/185 
f 133/15/133/186 134/18/134/187 17/17/17/188 
f 133/15/133/186 17/17/17/188 16/16/16/189 
f 135/21/135/190 136/20/136/191 137/19/137/192 
f 135/21/135/190 137/19/137/192 138/22/138/193 
f 139/25/139/194 140/24/140/195 141/23/141/196 
f 139/25/139/194 141/23/141/196 142/26/142/197 
f 143/29/143/198 144/28/144/199 145/27/145/200 
f 143/29/143/198 145/27/145/200 146/30/146/201 
f 147/31/147/202 148/34/148/203 33/33/33/204 
f 147/31/147/202 33/33/33/204 32/32/32/205 
f 149/36/149/206 150/35/150/207 131/11/131/184 
f 149/36/149/206 131/11/131/184 130/12/130/183 
f 133/15/133/186 16/16/16/189 33/37/33/208 
f 133/15/133/186 33/37/33/208 148/38/148/209 
f 138/22/138/193 137/19/137/192 150/39/150/210 
f 138/22/138/193 150/39/150/210 149/40/149/211 
f 151/41/151/212 152/44/152/213 39/43/39/214 
f 151/41/151/212 39/43/39/214 38/42/38/215 
f 153/46/153/216 154/45/154/217 145/27/145/200 
f 153/46/153/216 145/27/145/200 144/28/144/199 
f 123/48/123/218 2/47/2/219 39/43/39/214 
f 123/48/123/218 39/43/39/214 152/44/152/213 
f 124/50/124/220 122/49/122/221 154/45/154/217 
f 124/50/124/220 154/45/154/217 153/46/153/216 
f 155/51/155/222 156/54/156/223 45/53/45/224 
f 155/51/155/222 45/53/45/224 44/52/44/225 
f 143/29/143/198 146/30/146/201 157/55/157/226 
f 143/29/143/198 157/55/157/226 158/56/158/227 
f 134/18/134/187 155/51/155/222 44/52/44/225 
f 134/18/134/187 44/52/44/225 17/17/17/188 
f 158/56/158/227 157/55/157/226 136/20/136/191 
f 158/56/158/227 136/20/136/191 135/21/135/190 
f 143/29/143/198 158/56/158/227 159/57/159/228 
f 143/29/143/198 159/57/159/228 142/58/142/229 
f 132/14/132/185 131/11/131/184 147/31/147/202 
f 132/14/132/185 147/31/147/202 160/59/160/230 
f 130/12/130/183 129/13/129/182 128/10/128/181 
f 130/12/130/183 128/10/128/181 127/7/127/180 
f 137/19/137/192 136/20/136/191 134/60/134/231 
f 137/19/137/192 134/60/134/231 133/61/133/232 
f 142/58/142/229 141/62/141/233 144/28/144/199 
f 142/58/142/229 144/28/144/199 143/29/143/198 
f 146/30/146/201 145/27/145/200 151/63/151/234 
f 146/30/146/201 151/63/151/234 156/64/156/235 
f 138/22/138/193 149/40/149/211 161/65/161/236 
f 138/22/138/193 161/65/161/236 162/66/162/237 
f 133/61/133/232 148/67/148/238 150/39/150/210 
f 133/61/133/232 150/39/150/210 137/19/137/192 
f 149/36/149/206 130/12/130/183 127/7/127/180 
f 149/36/149/206 127/7/127/180 161/68/161/239 
f 148/34/148/203 147/31/147/202 131/11/131/184 
f 148/34/148/203 131/11/131/184 150/35/150/207 
f 141/62/141/233 163/69/163/240 153/46/153/216 
f 141/62/141/233 153/46/153/216 144/28/144/199 
f 145/27/145/200 154/45/154/217 152/70/152/241 
f 145/27/145/200 152/70/152/241 151/63/151/234 
f 163/69/163/240 120/71/120/242 124/50/124/220 
f 163/69/163/240 124/50/124/220 153/46/153/216 
f 154/45/154/217 122/49/122/221 123/72/123/243 
f 154/45/154/217 123/72/123/243 152/70/152/241 
f 135/21/135/190 138/22/138/193 162/66/162/237 
f 135/21/135/190 162/66/162/237 164/73/164/244 
f 157/55/157/226 146/30/146/201 156/64/156/235 
f 157/55/157/226 156/64/156/235 155/74/155/245 
f 164/73/164/244 159/57/159/228 158/56/158/227 
f 164/73/164/244 158/56/158/227 135/21/135/190 
f 136/20/136/191 157/55/157/226 155/74/155/245 
f 136/20/136/191 155/74/155/245 134/60/134/231 
f 165/77/165/246 166/76/166/247 167/75/167/248 
f 165/77/165/246 167/75/167/248 168/78/168/249 
f 169/80/169/250 170/79/170/251 166/76/166/247 
f 169/80/169/250 166/76/166/247 165/77/165/246 
f 169/80/169/250 62/82/62/252 61/81/61/253 
f 169/80/169/250 61/81/61/253 170/79/170/251 
f 168/78/168/249 167/75/167/248 171/83/171/254 
f 168/78/168/249 171/83/171/254 172/84/172/255 
f 173/87/173/256 174/86/174/257 175/85/175/258 
f 173/87/173/256 175/85/175/258 176/88/176/259 
f 177/90/177/260 178/89/178/261 174/86/174/257 
f 177/90/177/260 174/86/174/257 173/87/173/256 
f 72/92/72/262 71/91/71/263 178/89/178/261 
f 72/92/72/262 178/89/178/261 177/90/177/260 
f 176/88/176/259 175/85/175/258 179/93/179/264 
f 176/88/176/259 179/93/179/264 180/94/180/265 
f 181/96/181/266 182/95/182/267 165/77/165/246 
f 181/96/181/266 165/77/165/246 168/78/168/249 
f 169/80/169/250 183/98/183/268 77/97/77/269 
f 169/80/169/250 77/97/77/269 62/82/62/252 
f 184/99/184/270 181/96/181/266 168/78/168/249 
f 184/99/184/270 168/78/168/249 172/84/172/255 
f 182/95/182/267 183/98/183/268 169/80/169/250 
f 182/95/182/267 169/80/169/250 165/77/165/246 
f 185/102/185/271 186/101/186/272 187/100/187/273 
f 185/102/185/271 187/100/187/273 188/103/188/274 
f 189/104/189/275 185/102/185/271 188/103/188/274 
f 189/104/189/275 188/103/188/274 190/105/190/276 
f 191/108/191/277 192/107/192/278 193/106/193/278 
f 191/108/191/277 193/106/193/278 194/109/194/279 
f 186/101/186/272 191/108/191/277 194/109/194/279 
f 186/101/186/272 194/109/194/279 187/100/187/273 
f 129/13/129/182 132/14/132/185 182/110/182/280 
f 129/13/129/182 182/110/182/280 181/111/181/281 
f 160/59/160/230 90/113/90/282 77/112/77/283 
f 160/59/160/230 77/112/77/283 183/114/183/284 
f 128/10/128/181 129/13/129/182 181/111/181/281 
f 128/10/128/181 181/111/181/281 184/115/184/285 
f 132/14/132/185 160/59/160/230 183/114/183/284 
f 132/14/132/185 183/114/183/284 182/110/182/280 
f 166/76/166/247 173/87/173/256 176/88/176/259 
f 166/76/166/247 176/88/176/259 167/75/167/248 
f 170/79/170/251 177/90/177/260 173/87/173/256 
f 170/79/170/251 173/87/173/256 166/76/166/247 
f 170/79/170/251 61/81/61/253 72/92/72/262 
f 170/79/170/251 72/92/72/262 177/90/177/260 
f 167/75/167/248 176/88/176/259 180/94/180/265 
f 167/75/167/248 180/94/180/265 171/83/171/254 
f 187/116/187/286 175/85/175/258 174/86/174/257 
f 187/116/187/286 174/86/174/257 188/117/188/287 
f 194/118/194/288 179/93/179/264 175/85/175/258 
f 194/118/194/288 175/85/175/258 187/116/187/286 
f 194/119/194/289 193/122/193/290 195/121/195/290 
f 194/119/194/289 195/121/195/290 179/120/179/291 
f 188/117/188/287 174/86/174/257 178/89/178/261 
f 188/117/188/287 178/89/178/261 190/123/190/292 
f 196/124/196/293 164/127/164/294 162/126/162/295 
f 196/124/196/293 162/126/162/295 197/125/197/296 
f 198/128/198/297 161/68/161/239 127/7/127/180 
f 198/128/198/297 127/7/127/180 126/8/126/179 
f 162/126/162/295 161/130/161/298 198/129/198/299 
f 162/126/162/295 198/129/198/299 197/125/197/296 
f 199/131/199/300 163/132/163/301 141/23/141/196 
f 199/131/199/300 141/23/141/196 140/24/140/195 
f 120/133/120/302 163/132/163/301 199/131/199/300 
f 120/133/120/302 199/131/199/300 121/134/121/303 
f 139/25/139/194 142/26/142/197 159/136/159/304 
f 139/25/139/194 159/136/159/304 200/135/200/305 
f 200/135/200/305 159/136/159/304 164/127/164/294 
f 200/135/200/305 164/127/164/294 196/124/196/293 
f 172/139/172/306 171/138/171/307 201/137/201/308 
f 172/139/172/306 201/137/201/308 202/140/202/309 
f 180/141/180/310 179/120/179/291 195/121/195/290 
f 180/141/180/310 195/121/195/290 203/142/203/311 
f 204/143/204/312 184/144/184/313 172/139/172/306 
f 204/143/204/312 172/139/172/306 202/140/202/309 
f 128/10/128/181 184/115/184/285 204/145/204/314 
f 128/10/128/181 204/145/204/314 125/9/125/178 
f 171/138/171/307 180/141/180/310 203/142/203/311 
f 171/138/171/307 203/142/203/311 201/137/201/308 
f 196/124/196/315 197/125/197/316 102/147/102/317 
f 196/124/196/315 102/147/102/317 101/146/101/318 
f 198/128/198/319 126/8/126/320 104/149/104/321 
f 198/128/198/319 104/149/104/321 103/148/103/322 
f 198/129/198/323 103/150/103/324 102/147/102/317 
f 198/129/198/323 102/147/102/317 197/125/197/316 
f 199/131/199/325 140/24/140/326 106/152/106/327 
f 199/131/199/325 106/152/106/327 105/151/105/328 
f 199/131/199/325 105/151/105/328 107/153/107/329 
f 199/131/199/325 107/153/107/329 121/134/121/278 
f 139/25/139/330 200/135/200/331 109/155/109/332 
f 139/25/139/330 109/155/109/332 108/154/108/333 
f 200/135/200/331 196/124/196/315 101/146/101/318 
f 200/135/200/331 101/146/101/318 109/155/109/332 
f 201/137/201/334 111/157/111/335 110/156/110/336 
f 201/137/201/334 110/156/110/336 202/140/202/337 
f 195/121/195/278 113/159/113/338 112/158/112/339 
f 195/121/195/278 112/158/112/339 203/142/203/340 
f 204/143/204/341 202/140/202/337 110/156/110/336 
f 204/143/204/341 110/156/110/336 114/160/114/342 
f 204/145/204/343 114/162/114/344 115/161/115/345 
f 204/145/204/343 115/161/115/345 125/9/125/346 
f 203/142/203/340 112/158/112/339 111/157/111/335 
f 203/142/203/340 111/157/111/335 201/137/201/334 
f 160/59/160/230 147/31/147/202 32/32/32/205 
f 160/59/160/230 32/32/32/205 90/113/90/282 
f 156/54/156/223 151/41/151/212 38/42/38/215 
f 156/54/156/223 38/42/38/215 45/53/45/224 
f 189/104/189/275 190/105/190/276 116/163/116/347 
f 189/104/189/275 116/163/116/347 117/164/117/348 
f 190/123/190/292 178/89/178/261 71/91/71/263 
f 190/123/190/292 71/91/71/263 116/165/116/349 
f 4/4/4/350 121/5/121/290 107/166/107/351 
f 126/8/126/320 125/9/125/346 115/161/115/345 
f 126/8/126/320 115/161/115/345 104/149/104/321 
f 140/24/140/326 139/25/139/330 108/154/108/333 
f 140/24/140/326 108/154/108/333 106/152/106/327 
f 193/106/193/290 192/107/192/290 118/167/118/352 
f 193/106/193/290 118/167/118/352 119/168/119/353 
f 195/121/195/278 193/122/193/278 119/169/119/354 
f 195/121/195/278 119/169/119/354 113/159/113/338 
