v 1297.1455 186.5211 -639.1781
v 1296.5137 192.9855 -638.3561
v 1296.5137 192.9855 -645.2877
v 1297.1455 186.5211 -645.2878
v 1297.6091 182.6524 -639.7612
v 1295.8213 184.5867 -637.6376
v 1295.8213 184.5867 -645.2878
v 1297.6091 182.6524 -645.2878
v 1291.6677 213.2488 -632.4528
v 1290.0022 215.4303 -630.4852
v 1290.0022 215.4303 -645.2877
v 1291.6677 213.2488 -645.2877
v 1291.6677 217.6119 -632.5305
v 1291.6677 217.6119 -645.2877
v 1294.3738 201.9844 -635.7553
v 1291.6677 208.8857 -632.4175
v 1291.6677 208.8857 -645.2877
v 1294.3738 201.9844 -645.2877
v 1297.6375 186.5211 -638.5737
v 1296.9871 192.9855 -637.7747
v 1292.147 208.8857 -631.8286
v 1292.1614 213.2488 -631.8463
v 1290.5278 215.4303 -629.8397
v 1292.1929 217.6119 -631.8853
v 1294.8584 201.9844 -635.1597
v 1303.1035 182.6524 -645.2885
v 1298.605 182.6524 -639.7622
v 1296.3484 184.5867 -636.99
v 1298.1067 182.6524 -639.1501
v 1303.1035 217.6119 -645.2885
v 1298.1294 186.5211 -637.9694
v 1303.1028 186.5211 -637.9695
v 1303.1028 192.9855 -637.1931
v 1297.4604 192.9855 -637.1931
v 1298.604 182.6524 -638.5391
v 1303.1028 182.6524 -638.5391
v 1303.1028 184.5867 -636.3425
v 1296.8755 184.5867 -636.3425
v 1292.655 213.2488 -631.2399
v 1303.1028 213.2488 -631.2399
v 1303.1028 215.4303 -629.194
v 1291.0532 215.4303 -629.194
v 1303.1028 217.6119 -631.2399
v 1292.7183 217.6119 -631.2399
v 1295.3433 201.9844 -634.5645
v 1303.1028 201.9844 -634.5642
v 1303.1028 208.8857 -631.2399
v 1292.6262 208.8857 -631.2399
gi 0 0 0 0
gw 0.0 0.0 0.0 0.0
gi 0 0 0 0
gw 0.0 0.0 0.0 0.0
gi 0 0 0 0
gw 0.0 0.0 0.0 0.0
gi 0 0 0 0
gw 0.0 0.0 0.0 0.0
gi 0 0 0 0
gw 0.0 0.0 0.0 0.0
gi 0 0 0 0
gw 0.0 0.0 0.0 0.0
gi 0 0 0 0
gw 0.0 0.0 0.0 0.0
gi 0 0 0 0
gw 0.0 0.0 0.0 0.0
gi 0 0 0 0
gw 0.0 0.0 0.0 0.0
gi 0 0 0 0
gw 0.0 0.0 0.0 0.0
gi 0 0 0 0
gw 0.0 0.0 0.0 0.0
gi 0 0 0 0
gw 0.0 0.0 0.0 0.0
gi 0 0 0 0
gw 0.0 0.0 0.0 0.0
gi 0 0 0 0
gw 0.0 0.0 0.0 0.0
gi 0 0 0 0
gw 0.0 0.0 0.0 0.0
gi 0 0 0 0
gw 0.0 0.0 0.0 0.0
gi 0 0 0 0
gw 0.0 0.0 0.0 0.0
gi 0 0 0 0
gw 0.0 0.0 0.0 0.0
gi 0 0 0 0
gw 0.0 0.0 0.0 0.0
gi 0 0 0 0
gw 0.0 0.0 0.0 0.0
gi 0 0 0 0
gw 0.0 0.0 0.0 0.0
gi 0 0 0 0
gw 0.0 0.0 0.0 0.0
gi 0 0 0 0
gw 0.0 0.0 0.0 0.0
gi 0 0 0 0
gw 0.0 0.0 0.0 0.0
gi 0 0 0 0
gw 0.0 0.0 0.0 0.0
gi 0 0 0 0
gw 0.0 0.0 0.0 0.0
gi 0 0 0 0
gw 0.0 0.0 0.0 0.0
gi 0 0 0 0
gw 0.0 0.0 0.0 0.0
gi 0 0 0 0
gw 0.0 0.0 0.0 0.0
gi 0 0 0 0
gw 0.0 0.0 0.0 0.0
gi 0 0 0 0
gw 0.0 0.0 0.0 0.0
gi 0 0 0 0
gw 0.0 0.0 0.0 0.0
gi 0 0 0 0
gw 0.0 0.0 0.0 0.0
gi 0 0 0 0
gw 0.0 0.0 0.0 0.0
gi 0 0 0 0
gw 0.0 0.0 0.0 0.0
gi 0 0 0 0
gw 0.0 0.0 0.0 0.0
gi 0 0 0 0
gw 0.0 0.0 0.0 0.0
gi 0 0 0 0
gw 0.0 0.0 0.0 0.0
gi 0 0 0 0
gw 0.0 0.0 0.0 0.0
gi 0 0 0 0
gw 0.0 0.0 0.0 0.0
gi 0 0 0 0
gw 0.0 0.0 0.0 0.0
gi 0 0 0 0
gw 0.0 0.0 0.0 0.0
gi 0 0 0 0
gw 0.0 0.0 0.0 0.0
gi 0 0 0 0
gw 0.0 0.0 0.0 0.0
gi 0 0 0 0
gw 0.0 0.0 0.0 0.0
gi 0 0 0 0
gw 0.0 0.0 0.0 0.0
gi 0 0 0 0
gw 0.0 0.0 0.0 0.0
gi 0 0 0 0
gw 0.0 0.0 0.0 0.0
vt 0.4476 0.6742
vt 0.427 0.6742
vt 0.4439 0.6911
vt 0.4476 0.6911
vt 0.4457 0.6929
vt 0.5504 0.8881
vt 0.5526 0.9084
vt 0.5337 0.9084
vt 0.5337 0.8881
vt 0.9865 0.7672
vt 0.9959 0.7791
vt 0.9632 0.7791
vt 0.9619 0.7672
vt 0.5337 0.882
vt 0.5546 0.882
vt 0.5687 0.9721
vt 0.5741 0.979
vt 0.5337 0.979
vt 0.5337 0.9721
vt 0.5685 0.9859
vt 0.5337 0.9859
vt 0.5597 0.9367
vt 0.5688 0.9584
vt 0.5337 0.9584
vt 0.5337 0.9367
vt 0.6028 0.9094
vt 0.605 0.8907
vt 0.6071 0.8899
vt 0.605 0.9099
vt 0.5887 0.9599
vt 0.5888 0.9735
vt 0.5867 0.9726
vt 0.5865 0.9593
vt 0.5834 0.9806
vt 0.5815 0.9806
vt 0.589 0.988
vt 0.5871 0.99
vt 0.5978 0.9381
vt 0.5957 0.9372
vt 0.6007 0.8862
vt 0.6028 0.8842
vt 0.0078 0.7789
vt 0.0079 0.7672
vt 0.0107 0.7672
vt 0.0104 0.779
vt 0.0091 0.8976
vt 0.0091 0.876
vt 0.0105 0.8749
vt 0.0406 0.8976
vn 0.0 -1.0 0.0
vn 0.0 -1.0 0.0
vn 0.0 -1.0 -0.0001
vn 0.0 -1.0 -0.0
vn 0.0 -1.0 -0.0
vn -0.9118 0.3115 0.2676
vn -0.9232 -0.2213 0.3143
vn -0.9863 -0.1647 0.0
vn -0.9686 0.2488 0.0
vn -0.4051 -0.9097 0.0918
vn -0.9149 -0.0673 0.3981
vn -0.9973 -0.0729 0.0
vn -0.401 -0.9161 0.0
vn -0.8773 -0.4015 0.263
vn -0.9163 0.0033 0.4005
vn -1.0 -0.0 0.0
vn -0.9473 -0.3203 0.0
vn -0.4484 0.8877 0.1048
vn -0.4434 0.8963 0.0
vn -0.8738 -0.3895 0.2912
vn -0.9078 -0.2348 0.3474
vn -0.9826 -0.1858 0.0
vn -0.9543 -0.2989 0.0
vn -0.7353 0.3179 0.5986
vn -0.7508 -0.2505 0.6112
vn -0.7473 -0.2678 0.6082
vn -0.7058 -0.4145 0.5745
vn -0.7755 0.0048 0.6313
vn -0.2665 0.9391 0.2169
vn -0.6985 -0.4345 0.5686
vn -0.7733 -0.0759 0.6295
vn -0.2356 -0.9527 0.1918
vn 0.0 1.0 0.0
vn -0.3714 0.3626 0.8548
vn 0.0 0.2858 0.9583
vn 0.0 -0.2005 0.9797
vn -0.4079 -0.2541 0.877
vn -0.1381 -0.9239 0.3568
vn -0.0 -0.9355 0.3534
vn 0.0 -0.0747 0.9972
vn -0.4598 -0.0629 0.8858
vn -0.3557 -0.462 0.8125
vn 0.0 -0.3678 0.9299
vn 0.0 -0.0 1.0
vn -0.4625 0.0025 0.8866
vn 0.0 0.9176 0.3974
vn -0.1562 0.9026 0.4011
vn -0.3735 -0.4407 0.8163
vn -0.0 -0.3584 0.9336
vn 0.0 -0.2226 0.9749
vn -0.4272 -0.251 0.8686
vtan -1.0 0.0 0.0001 -1.0
vtan -1.0 0.0 0.001 -1.0
vtan -1.0 0.0 0.001 -1.0
vtan -1.0 0.0 0.001 -1.0
vtan -1.0 -0.0 0.001 -1.0
vtan -1.0 -0.0 0.001 -1.0
vtan -1.0 -0.0 0.001 -1.0
vtan -0.0008 -0.0 1.0 1.0
vtan -0.0008 -0.0 1.0 1.0
vtan -0.0008 -0.0 1.0 1.0
vtan -0.0001 0.0 1.0 1.0
vtan -0.0001 0.0 1.0 1.0
vtan -0.0001 0.0 1.0 1.0
vtan -0.0008 -0.0 1.0 1.0
vtan -0.0008 -0.0 1.0 1.0
vtan -0.0008 -0.0 1.0 1.0
vtan 0.2533 -0.0865 0.9635 1.0
vtan 0.3057 0.0733 0.9493 1.0
vtan 0.0 0.0 1.0 1.0
vtan 0.0373 0.0838 0.9958 1.0
vtan 0.397 0.0292 0.9174 1.0
vtan 0.0 0.0 1.0 1.0
vtan 0.397 0.0292 0.9174 1.0
vtan 0.2392 0.1094 0.9648 1.0
vtan 0.4005 -0.0014 0.9163 1.0
vtan 0.0 0.0 1.0 1.0
vtan 0.0472 -0.0935 0.9945 1.0
vtan 0.266 0.1186 0.9567 1.0
vtan 0.3363 0.087 0.9377 1.0
vtan 0.3695 -0.2851 0.8844 1.0
vtan 0.4014 0.538 0.7413 1.0
vtan 0.6758 0.411 0.6118 1.0
vtan 0.6588 -0.217 0.7203 1.0
vtan 0.6637 -0.2559 0.7028 1.0
vtan 0.7031 -0.3106 0.6397 1.0
vtan 0.4487 -0.4917 0.7463 1.0
vtan 0.4117 -0.3415 0.8449 1.0
vtan 0.6313 0.0 0.7755 1.0
vtan 0.4004 0.0249 0.916 1.0
vtan 0.943 0.2075 0.2602 1.0
vtan 0.8835 0.4223 0.2027 1.0
vtan 0.7128 -0.3517 0.6068 1.0
vtan 0.4652 -0.4949 0.7339 1.0
vtan 0.2217 0.7404 0.6346 1.0
vtan 0.4288 0.6688 0.6074 1.0
vtan 0.401 -0.038 0.9153 1.0
vtan 0.5663 -0.1708 0.8063 1.0
vtan 0.6349 -0.0015 0.7726 1.0
vtan 0.6324 -0.0217 0.7743 1.0
vtan 0.8963 0.4434 -0.0003 1.0
vtan 0.8938 0.4464 0.0433 1.0
vtan 0.9638 0.2605 0.0562 1.0
vtan 1.0 0.0 -0.0001 1.0
vtan -0.9285 -0.145 -0.3419 -1.0
vtan -1.0 -0.0 0.0 -1.0
vtan -1.0 0.0 0.0 -1.0
vtan -0.913 0.1135 -0.3918 -1.0
vtan -0.9904 0.1288 -0.0498 -1.0
vtan -1.0 0.0 -0.0 -1.0
vtan -1.0 0.0 0.0 -1.0
vtan -0.888 0.0326 -0.4587 -1.0
vtan -1.0 0.0 0.0 -1.0
vtan -0.888 0.0326 -0.4587 -1.0
vtan -0.9346 0.1758 -0.3092 -1.0
vtan -1.0 -0.0 0.0 -1.0
vtan -1.0 -0.0 0.0 -1.0
vtan -0.8866 -0.0013 -0.4625 -1.0
vtan -0.9877 -0.1428 -0.0634 -1.0
vtan -0.9276 0.1774 -0.3286 -1.0
vtan -1.0 0.0 -0.0 -1.0
vtan -1.0 -0.0 0.0 -1.0
vtan -0.9042 0.1186 -0.4104 -1.0
vtan -0.6722 0.53 -0.5169 -1.0
vtan -0.8064 -0.3502 -0.4765 -1.0
vtan -0.5794 -0.1946 -0.7915 -1.0
vtan -0.5128 0.3165 -0.798 -1.0
vtan -0.6473 -0.5053 -0.5707 -1.0
vtan -0.4714 -0.3306 -0.8176 -1.0
vtan -0.5555 -0.2506 -0.7929 -1.0
vtan -0.7873 -0.3691 -0.4939 -1.0
vtan -0.8866 0.0011 -0.4625 -1.0
vtan -0.631 0.0238 -0.7754 -1.0
vtan -0.1403 0.3817 -0.9136 -1.0
vtan 0.0064 0.2267 -0.9739 -1.0
vtan -0.6329 -0.5223 -0.5716 -1.0
vtan -0.4626 -0.3321 -0.822 -1.0
vtan -0.5654 0.5318 -0.6305 -1.0
vtan -0.5664 0.789 -0.238 -1.0
vtan -0.6302 -0.0174 -0.7763 -1.0
vtan -0.6313 -0.0 -0.7755 -1.0
vtan -0.6662 -0.1799 -0.7237 -1.0
vtan -0.8849 -0.0508 -0.463 -1.0
vtan -0.0569 0.2093 -0.9762 -1.0
vtan -0.0627 0.3962 -0.916 -1.0
vtan 0.0003 0.3974 -0.9176 -1.0
vtan 0.0001 0.0 -1.0 -1.0
f 7/0/0/0 25/1/0/0 26/2/0/0 
f 7/0/1/1 26/2/1/2 4/3/1/3 
f 28/4/2/4 4/3/2/5 26/2/2/6 
f 35/0/3/7 34/3/3/8 26/2/3/9 
f 35/0/1/10 26/2/1/11 25/1/1/12 
f 28/4/4/13 26/2/4/14 34/3/4/15 
f 0/5/5/16 1/6/6/17 2/7/7/18 
f 0/5/5/16 2/7/7/18 3/8/8/18 
f 4/9/9/19 5/10/10/20 6/11/11/18 
f 4/9/9/19 6/11/11/18 7/12/12/21 
f 0/5/5/16 3/8/8/18 6/13/11/18 
f 0/5/5/16 6/13/11/18 5/14/10/22 
f 8/15/13/23 9/16/14/24 10/17/15/25 
f 8/15/13/23 10/17/15/25 11/18/16/18 
f 12/19/17/26 13/20/18/18 10/17/15/25 
f 12/19/17/26 10/17/15/25 9/16/14/24 
f 14/21/19/27 15/22/20/28 16/23/21/18 
f 14/21/19/27 16/23/21/18 17/24/22/25 
f 1/6/6/17 14/21/19/27 17/24/22/25 
f 1/6/6/17 17/24/22/25 2/7/7/18 
f 1/25/6/29 0/26/5/30 18/27/23/31 
f 1/25/6/29 18/27/23/31 19/28/24/32 
f 20/29/25/33 21/30/26/34 8/31/13/35 
f 20/29/25/33 8/31/13/35 15/32/20/36 
f 21/30/26/34 22/33/27/37 9/34/14/38 
f 21/30/26/34 9/34/14/38 8/31/13/35 
f 9/34/14/38 22/33/27/37 23/35/28/39 
f 9/34/14/38 23/35/28/39 12/36/17/40 
f 24/37/29/41 20/29/25/33 15/32/20/36 
f 24/37/29/41 15/32/20/36 14/38/19/42 
f 19/28/24/32 24/37/29/41 14/38/19/42 
f 19/28/24/32 14/38/19/42 1/25/6/29 
f 16/23/21/18 15/22/20/28 8/15/13/23 
f 16/23/21/18 8/15/13/23 11/18/16/18 
f 18/27/23/31 0/26/5/30 5/39/10/43 
f 18/27/23/31 5/39/10/43 27/40/30/44 
f 5/41/10/45 4/42/9/46 28/43/31/47 
f 5/41/10/45 28/43/31/47 27/44/30/48 
f 13/45/18/49 12/46/17/50 23/47/28/51 
f 13/45/18/49 23/47/28/51 29/48/32/52 
f 30/5/33/53 31/8/34/54 32/7/35/55 
f 30/5/33/53 32/7/35/55 33/6/36/56 
f 34/9/37/57 35/12/38/58 36/11/39/59 
f 34/9/37/57 36/11/39/59 37/10/40/60 
f 36/13/39/61 31/8/34/54 30/5/33/53 
f 36/13/39/61 30/5/33/53 37/14/40/62 
f 38/15/41/63 39/18/42/64 40/17/43/65 
f 38/15/41/63 40/17/43/65 41/16/44/66 
f 40/17/43/65 42/20/45/59 43/19/46/67 
f 40/17/43/65 43/19/46/67 41/16/44/66 
f 44/21/47/68 45/24/48/69 46/23/49/70 
f 44/21/47/68 46/23/49/70 47/22/50/71 
f 33/6/36/56 32/7/35/55 45/24/48/69 
f 33/6/36/56 45/24/48/69 44/21/47/68 
f 30/26/33/72 33/25/36/73 19/28/24/74 
f 30/26/33/72 19/28/24/74 18/27/23/75 
f 38/31/41/76 21/30/26/77 20/29/25/78 
f 38/31/41/76 20/29/25/78 47/32/50/79 
f 38/31/41/76 41/34/44/80 22/33/27/81 
f 38/31/41/76 22/33/27/81 21/30/26/77 
f 43/36/46/82 23/35/28/83 22/33/27/81 
f 43/36/46/82 22/33/27/81 41/34/44/80 
f 44/38/47/84 47/32/50/79 20/29/25/78 
f 44/38/47/84 20/29/25/78 24/37/29/85 
f 33/25/36/73 44/38/47/84 24/37/29/85 
f 33/25/36/73 24/37/29/85 19/28/24/74 
f 38/15/41/63 47/22/50/71 46/23/49/70 
f 38/15/41/63 46/23/49/70 39/18/42/64 
f 27/40/30/86 37/39/40/87 30/26/33/72 
f 27/40/30/86 30/26/33/72 18/27/23/75 
f 27/44/30/88 28/43/31/89 34/42/37/90 
f 27/44/30/88 34/42/37/90 37/41/40/91 
f 23/47/28/92 43/46/46/93 42/45/45/94 
f 23/47/28/92 42/45/45/94 29/48/32/95 
