v -8.2629 256.7309 568.6584
v -15.3207 260.5759 571.4969
v -15.3208 339.7451 571.4969
v -8.263 348.1973 568.6584
v -119.4073 256.7309 575.5052
v -119.4073 256.7309 568.6584
v -8.2629 256.7309 575.5052
v -119.4073 348.1973 575.5052
v -119.4073 348.1973 568.6584
v -8.263 348.1973 575.5052
v -111.8976 260.5758 571.4969
v -111.8976 339.7451 571.4969
gi 0 0 0 0
gw 0.0 0.0 0.0 0.0
gi 0 0 0 0
gw 0.0 0.0 0.0 0.0
gi 0 0 0 0
gw 0.0 0.0 0.0 0.0
gi 0 0 0 0
gw 0.0 0.0 0.0 0.0
gi 0 0 0 0
gw 0.0 0.0 0.0 0.0
gi 0 0 0 0
gw 0.0 0.0 0.0 0.0
gi 0 0 0 0
gw 0.0 0.0 0.0 0.0
gi 0 0 0 0
gw 0.0 0.0 0.0 0.0
gi 0 0 0 0
gw 0.0 0.0 0.0 0.0
gi 0 0 0 0
gw 0.0 0.0 0.0 0.0
gi 0 0 0 0
gw 0.0 0.0 0.0 0.0
gi 0 0 0 0
gw 0.0 0.0 0.0 0.0
vt 0.0684 0.1763
vt 0.0929 0.2085
vt 0.0929 0.8714
vt 0.0684 0.9037
vt 0.0684 0.119
vt 0.937 0.119
vt 0.937 0.1763
vt 0.9943 0.9037
vt 0.937 0.9037
vt 0.9943 0.1763
vt 0.0684 0.961
vt 0.937 0.961
vt 0.0111 0.1763
vt 0.0111 0.9037
vt 0.9015 0.2085
vt 0.9015 0.8714
vn 0.5143 -0.54 -0.6663
vn -0.132 0.2623 -0.9559
vn -0.1488 -0.1181 -0.9818
vn 0.5441 0.5384 -0.6435
vn 0.7071 -0.7071 0.0
vn -0.7071 -0.7071 0.0
vn -0.5159 -0.5427 -0.6628
vn -0.7071 0.7071 0.0
vn -0.544 0.5405 -0.6418
vn 0.7071 0.7071 0.0
vn 0.1234 0.2645 -0.9565
vn 0.1391 -0.1194 -0.9831
vtan -0.8331 -0.1301 -0.5376 1.0
vtan -0.9907 -0.0023 0.1361 1.0
vtan -0.9669 -0.1909 0.1695 1.0
vtan -0.7767 0.0333 -0.629 1.0
vtan -0.7071 -0.7071 0.0 1.0
vtan -0.7071 0.7071 0.0 1.0
vtan -0.8314 0.1306 0.5402 1.0
vtan 0.0 0.0 1.0 1.0
vtan -0.7769 -0.0355 0.6286 1.0
vtan -0.7071 0.7071 0.0 1.0
vtan -0.7071 -0.7071 0.0 1.0
vtan 0.0 0.0 -1.0 1.0
vtan -0.9919 0.0023 -0.1273 1.0
vtan -0.9707 0.1799 -0.1592 1.0
f 0/0/0/0 1/1/1/1 2/2/2/2 
f 0/0/0/0 2/2/2/2 3/3/3/3 
f 0/0/0/0 6/4/4/4 4/5/5/5 
f 0/0/0/0 4/5/5/5 5/6/6/6 
f 7/7/7/7 8/8/8/8 5/6/6/6 
f 7/7/7/7 5/6/6/6 4/9/5/7 
f 9/10/9/9 3/3/3/3 8/8/8/8 
f 9/10/9/9 8/8/8/8 7/11/7/10 
f 6/12/4/11 0/0/0/0 3/3/3/3 
f 6/12/4/11 3/3/3/3 9/13/9/11 
f 2/2/2/2 1/1/1/1 10/14/10/12 
f 2/2/2/2 10/14/10/12 11/15/11/13 
f 3/3/3/3 2/2/2/2 11/15/11/13 
f 3/3/3/3 11/15/11/13 8/8/8/8 
f 1/1/1/1 0/0/0/0 5/6/6/6 
f 1/1/1/1 5/6/6/6 10/14/10/12 
f 5/6/6/6 8/8/8/8 11/15/11/13 
f 5/6/6/6 11/15/11/13 10/14/10/12 
