v -1424.1924 186.5211 -639.1781
v -1424.1924 186.5211 -645.288
v -1423.5601 192.9855 -645.288
v -1423.5601 192.9855 -638.3563
v -1424.6558 182.6524 -639.7614
v -1424.6558 182.6524 -645.288
v -1422.8682 184.5867 -645.288
v -1422.8682 184.5867 -637.6376
v -1418.7144 213.2488 -632.4528
v -1418.7144 213.2488 -645.288
v -1417.0488 215.4303 -645.288
v -1417.0488 215.4303 -630.4854
v -1418.7144 217.6118 -645.288
v -1418.7144 217.6118 -632.5305
v -1421.4199 201.9844 -635.7553
v -1421.4199 201.9844 -645.288
v -1418.7144 208.8857 -645.288
v -1418.7144 208.8857 -632.4177
v -1424.0337 192.9855 -637.7747
v -1424.6841 186.5211 -638.5739
v -1419.208 213.2488 -631.8466
v -1419.1938 208.8857 -631.8289
v -1417.5747 215.4303 -629.8397
v -1419.2393 217.6118 -631.8853
v -1421.9053 201.9844 -635.1599
v -1425.6514 182.6524 -639.7622
v -1430.1499 182.6524 -645.2886
v -1423.3945 184.5867 -636.9901
v -1425.1533 182.6524 -639.1501
v -1430.1499 217.6118 -645.2885
v -1425.1758 186.5211 -637.9695
v -1424.5068 192.9855 -637.1931
v -1430.1494 192.9855 -637.1934
v -1430.1494 186.5211 -637.9695
v -1425.6509 182.6524 -638.5391
v -1423.9219 184.5867 -636.3425
v -1430.1494 184.5867 -636.3425
v -1430.1494 182.6524 -638.5391
v -1419.7017 213.2488 -631.2399
v -1418.1001 215.4303 -629.1942
v -1430.1494 215.4303 -629.194
v -1430.1494 213.2488 -631.2399
v -1419.7651 217.6118 -631.2401
v -1430.1494 217.6118 -631.2399
v -1422.3896 201.9844 -634.5645
v -1419.6729 208.8857 -631.2399
v -1430.1494 208.8857 -631.2399
v -1430.1494 201.9844 -634.5645
gi 0 0 0 0
gi 0 0 0 0
gi 0 0 0 0
gi 0 0 0 0
gi 0 0 0 0
gi 0 0 0 0
gi 0 0 0 0
gi 0 0 0 0
gi 0 0 0 0
gi 0 0 0 0
gi 0 0 0 0
gi 0 0 0 0
gi 0 0 0 0
gi 0 0 0 0
gi 0 0 0 0
gi 0 0 0 0
gi 0 0 0 0
gi 0 0 0 0
gi 0 0 0 0
gi 0 0 0 0
gi 0 0 0 0
gi 0 0 0 0
gi 0 0 0 0
gi 0 0 0 0
gi 0 0 0 0
gi 0 0 0 0
gi 0 0 0 0
gi 0 0 0 0
gi 0 0 0 0
gi 0 0 0 0
gi 0 0 0 0
gi 0 0 0 0
gi 0 0 0 0
gi 0 0 0 0
gi 0 0 0 0
gi 0 0 0 0
gi 0 0 0 0
gi 0 0 0 0
gi 0 0 0 0
gi 0 0 0 0
gi 0 0 0 0
gi 0 0 0 0
gi 0 0 0 0
gi 0 0 0 0
gi 0 0 0 0
gi 0 0 0 0
gi 0 0 0 0
gi 0 0 0 0
gw 0.0 0.0 0.0 0.0
gw 0.0 0.0 0.0 0.0
gw 0.0 0.0 0.0 0.0
gw 0.0 0.0 0.0 0.0
gw 0.0 0.0 0.0 0.0
gw 0.0 0.0 0.0 0.0
gw 0.0 0.0 0.0 0.0
gw 0.0 0.0 0.0 0.0
gw 0.0 0.0 0.0 0.0
gw 0.0 0.0 0.0 0.0
gw 0.0 0.0 0.0 0.0
gw 0.0 0.0 0.0 0.0
gw 0.0 0.0 0.0 0.0
gw 0.0 0.0 0.0 0.0
gw 0.0 0.0 0.0 0.0
gw 0.0 0.0 0.0 0.0
gw 0.0 0.0 0.0 0.0
gw 0.0 0.0 0.0 0.0
gw 0.0 0.0 0.0 0.0
gw 0.0 0.0 0.0 0.0
gw 0.0 0.0 0.0 0.0
gw 0.0 0.0 0.0 0.0
gw 0.0 0.0 0.0 0.0
gw 0.0 0.0 0.0 0.0
gw 0.0 0.0 0.0 0.0
gw 0.0 0.0 0.0 0.0
gw 0.0 0.0 0.0 0.0
gw 0.0 0.0 0.0 0.0
gw 0.0 0.0 0.0 0.0
gw 0.0 0.0 0.0 0.0
gw 0.0 0.0 0.0 0.0
gw 0.0 0.0 0.0 0.0
gw 0.0 0.0 0.0 0.0
gw 0.0 0.0 0.0 0.0
gw 0.0 0.0 0.0 0.0
gw 0.0 0.0 0.0 0.0
gw 0.0 0.0 0.0 0.0
gw 0.0 0.0 0.0 0.0
gw 0.0 0.0 0.0 0.0
gw 0.0 0.0 0.0 0.0
gw 0.0 0.0 0.0 0.0
gw 0.0 0.0 0.0 0.0
gw 0.0 0.0 0.0 0.0
gw 0.0 0.0 0.0 0.0
gw 0.0 0.0 0.0 0.0
gw 0.0 0.0 0.0 0.0
gw 0.0 0.0 0.0 0.0
gw 0.0 0.0 0.0 0.0
vt 0.4476 0.6742
vt 0.4476 0.6911
vt 0.4439 0.6911
vt 0.427 0.6742
vt 0.4457 0.6929
vt 0.5504 0.8881
vt 0.5337 0.8881
vt 0.5337 0.9084
vt 0.5526 0.9084
vt 0.9865 0.7672
vt 0.9619 0.7672
vt 0.9632 0.7791
vt 0.9959 0.7791
vt 0.5546 0.882
vt 0.5337 0.882
vt 0.5687 0.9721
vt 0.5337 0.9721
vt 0.5337 0.979
vt 0.5741 0.979
vt 0.5337 0.9859
vt 0.5685 0.9859
vt 0.5597 0.9367
vt 0.5337 0.9367
vt 0.5337 0.9584
vt 0.5688 0.9584
vt 0.6071 0.8899
vt 0.605 0.8907
vt 0.6028 0.9094
vt 0.605 0.9099
vt 0.5867 0.9726
vt 0.5888 0.9735
vt 0.5887 0.9599
vt 0.5865 0.9593
vt 0.5815 0.9806
vt 0.5834 0.9806
vt 0.5871 0.99
vt 0.589 0.988
vt 0.5978 0.9381
vt 0.5957 0.9372
vt 0.6007 0.8862
vt 0.6028 0.8842
vt 0.0107 0.7672
vt 0.0079 0.7672
vt 0.0078 0.7789
vt 0.0104 0.779
vt 0.0105 0.8749
vt 0.0091 0.876
vt 0.0091 0.8976
vt 0.0406 0.8976
vn 0.0 -1.0 0.0
vn 0.0 -1.0 -0.0
vn 0.0 -1.0 -0.0
vn 0.9118 0.3114 0.2676
vn 0.9686 0.2488 0.0
vn 0.9863 -0.1647 0.0
vn 0.9231 -0.2214 0.3144
vn 0.405 -0.9097 0.0916
vn 0.4009 -0.9161 0.0
vn 0.9973 -0.0728 0.0
vn 0.915 -0.0672 0.3978
vn 0.8773 -0.4015 0.2631
vn 0.9473 -0.3203 0.0
vn 1.0 0.0 0.0
vn 0.9163 0.0032 0.4005
vn 0.4434 0.8963 0.0
vn 0.4484 0.8877 0.1047
vn 0.8736 -0.3895 0.2916
vn 0.9543 -0.2989 0.0
vn 0.9826 -0.1857 0.0
vn 0.9078 -0.2349 0.3476
vn 0.7355 0.3179 0.5983
vn 0.7508 -0.2505 0.6112
vn 0.7058 -0.4145 0.5745
vn 0.7472 -0.2678 0.6082
vn 0.7755 0.0047 0.6314
vn 0.2665 0.9391 0.217
vn 0.6984 -0.4345 0.5687
vn 0.7735 -0.0759 0.6293
vn 0.2356 -0.9528 0.1917
vn 0.0 1.0 0.0
vn 0.3715 0.3627 0.8547
vn 0.408 -0.2541 0.8769
vn -0.0 -0.2005 0.9797
vn 0.0 0.2858 0.9583
vn 0.138 -0.924 0.3566
vn 0.4598 -0.0629 0.8858
vn 0.0 -0.0747 0.9972
vn 0.0 -0.9355 0.3533
vn 0.3557 -0.462 0.8124
vn 0.4625 0.0025 0.8866
vn 0.0 0.0 1.0
vn 0.0 -0.3678 0.9299
vn 0.1561 0.9026 0.4011
vn 0.0 0.9176 0.3974
vn 0.3738 -0.4407 0.8161
vn 0.4273 -0.2511 0.8685
vn 0.0 -0.2226 0.9749
vn -0.0 -0.3584 0.9336
vtan 1.0 0.0 0.0002
vtan 1.0 0.0 0.0008
vtan 1.0 0.0 0.0006
vtan 1.0 0.0 0.0001
vtan 1.0 0.0 0.0008
vtan 0.0001 0.0 1.0
vtan 0.0004 -0.0 1.0
vtan 0.0004 -0.0 1.0
vtan 0.0004 -0.0 1.0
vtan -0.2532 -0.0865 0.9635
vtan 0.0 0.0 1.0
vtan -0.3058 0.0733 0.9493
vtan -0.0372 0.0837 0.9958
vtan -0.0 0.0 1.0
vtan -0.3967 0.0291 0.9175
vtan -0.3967 0.0291 0.9175
vtan -0.2392 0.1095 0.9648
vtan -0.4005 -0.0014 0.9163
vtan -0.0 -0.0 1.0
vtan -0.0472 -0.0935 0.9945
vtan -0.2663 0.1187 0.9566
vtan -0.3365 0.0871 0.9377
vtan -0.6756 0.4112 0.6119
vtan -0.4013 0.5381 0.7412
vtan -0.3696 -0.2851 0.8844
vtan -0.6588 -0.217 0.7203
vtan -0.4488 -0.4918 0.7461
vtan -0.7031 -0.3107 0.6396
vtan -0.6638 -0.256 0.7028
vtan -0.4119 -0.3415 0.8448
vtan -0.4004 0.0249 0.916
vtan -0.6314 0.0 0.7755
vtan -0.8835 0.4223 0.2028
vtan -0.943 0.2074 0.2603
vtan -0.7129 -0.3518 0.6067
vtan -0.4655 -0.4949 0.7337
vtan -0.2213 0.7408 0.6342
vtan -0.4284 0.6691 0.6072
vtan -0.6348 -0.0014 0.7727
vtan -0.5662 -0.1709 0.8064
vtan -0.4008 -0.038 0.9154
vtan -0.6323 -0.0217 0.7745
vtan -0.9638 0.2605 0.0562
vtan -0.8938 0.4464 0.0432
vtan -0.8963 0.4434 -0.0003
vtan -1.0 0.0 -0.0
vtan 0.9284 -0.1451 -0.342
vtan 0.913 0.1135 -0.3919
vtan 1.0 0.0 0.0
vtan 1.0 0.0 0.0
vtan 0.9904 0.1288 -0.0497
vtan 0.888 0.0326 -0.4587
vtan 1.0 0.0 -0.0
vtan 0.888 0.0326 -0.4587
vtan 0.9346 0.1758 -0.3093
vtan 0.8866 -0.0013 -0.4625
vtan 1.0 0.0 -0.0
vtan 0.9877 -0.1427 -0.0634
vtan 1.0 0.0 -0.0
vtan 0.9275 0.1776 -0.3289
vtan 0.9041 0.1187 -0.4105
vtan 1.0 0.0 0.0
vtan 0.672 0.5301 -0.5171
vtan 0.5125 0.3165 -0.7982
vtan 0.5794 -0.1947 -0.7915
vtan 0.8063 -0.3503 -0.4766
vtan 0.5554 -0.2507 -0.7929
vtan 0.4714 -0.3306 -0.8176
vtan 0.6473 -0.5053 -0.5707
vtan 0.7872 -0.3692 -0.494
vtan 0.6311 0.0238 -0.7753
vtan 0.8866 0.0011 -0.4625
vtan -0.0059 0.2267 -0.9739
vtan 0.1408 0.3816 -0.9135
vtan 0.6325 -0.5225 -0.5718
vtan 0.4625 -0.3324 -0.8219
vtan 0.5665 0.7889 -0.2381
vtan 0.5653 0.5317 -0.6307
vtan 0.63 -0.0173 -0.7764
vtan 0.8849 -0.0508 -0.463
vtan 0.6664 -0.1798 -0.7236
vtan 0.6315 0.0001 -0.7754
vtan -0.0002 0.3974 -0.9176
vtan 0.0635 0.3961 -0.916
vtan 0.0573 0.2093 -0.9762
vtan -0.0 0.0 -1.0
f 5/0/0/0 4/1/0/1 25/2/0/2 
f 5/0/0/0 25/2/0/2 26/3/0/3 
f 28/4/0/4 25/2/0/2 4/1/0/1 
f 37/0/0/5 26/3/0/5 25/2/0/5 
f 37/0/1/6 25/2/1/6 34/1/1/6 
f 28/4/2/7 34/1/2/7 25/2/2/8 
f 0/5/3/9 1/6/4/10 2/7/5/10 
f 0/5/3/9 2/7/5/10 3/8/6/11 
f 4/9/7/12 5/10/8/13 6/11/9/10 
f 4/9/7/12 6/11/9/10 7/12/10/14 
f 0/5/3/9 7/13/10/15 6/14/9/10 
f 0/5/3/9 6/14/9/10 1/6/4/10 
f 8/15/11/16 9/16/12/10 10/17/13/10 
f 8/15/11/16 10/17/13/10 11/18/14/17 
f 10/17/13/10 12/19/15/18 13/20/16/19 
f 10/17/13/10 13/20/16/19 11/18/14/17 
f 14/21/17/20 15/22/18/10 16/23/19/10 
f 14/21/17/20 16/23/19/10 17/24/20/21 
f 3/8/6/11 2/7/5/10 15/22/18/10 
f 3/8/6/11 15/22/18/10 14/21/17/20 
f 19/25/21/22 0/26/3/23 3/27/6/24 
f 19/25/21/22 3/27/6/24 18/28/22/25 
f 8/29/11/26 20/30/23/27 21/31/24/28 
f 8/29/11/26 21/31/24/28 17/32/20/29 
f 11/33/14/30 22/34/25/31 20/30/23/27 
f 11/33/14/30 20/30/23/27 8/29/11/26 
f 11/33/14/30 13/35/16/32 23/36/26/33 
f 11/33/14/30 23/36/26/33 22/34/25/31 
f 17/32/20/29 21/31/24/28 24/37/27/34 
f 17/32/20/29 24/37/27/34 14/38/17/35 
f 14/38/17/35 24/37/27/34 18/28/22/25 
f 14/38/17/35 18/28/22/25 3/27/6/24 
f 8/15/11/16 17/24/20/21 16/23/19/10 
f 8/15/11/16 16/23/19/10 9/16/12/10 
f 7/39/10/36 0/26/3/23 19/25/21/22 
f 7/39/10/36 19/25/21/22 27/40/28/37 
f 28/41/29/38 4/42/7/39 7/43/10/40 
f 28/41/29/38 7/43/10/40 27/44/28/41 
f 23/45/26/42 13/46/16/43 12/47/15/44 
f 23/45/26/42 12/47/15/44 29/48/30/45 
f 30/5/31/46 31/8/32/47 32/7/33/48 
f 30/5/31/46 32/7/33/48 33/6/34/49 
f 34/9/35/50 35/12/36/51 36/11/37/49 
f 34/9/35/50 36/11/37/49 37/10/38/52 
f 30/5/31/46 33/6/34/49 36/14/37/49 
f 30/5/31/46 36/14/37/49 35/13/36/53 
f 38/15/39/54 39/18/40/55 40/17/41/56 
f 38/15/39/54 40/17/41/56 41/16/42/49 
f 42/20/43/57 43/19/44/58 40/17/41/56 
f 42/20/43/57 40/17/41/56 39/18/40/55 
f 44/21/45/59 45/24/46/60 46/23/47/49 
f 44/21/45/59 46/23/47/49 47/22/48/61 
f 31/8/32/47 44/21/45/59 47/22/48/61 
f 31/8/32/47 47/22/48/61 32/7/33/48 
f 30/26/31/62 19/25/21/63 18/28/22/64 
f 30/26/31/62 18/28/22/64 31/27/32/65 
f 21/31/24/66 20/30/23/67 38/29/39/68 
f 21/31/24/66 38/29/39/68 45/32/46/69 
f 38/29/39/68 20/30/23/67 22/34/25/70 
f 38/29/39/68 22/34/25/70 39/33/40/71 
f 22/34/25/70 23/36/26/72 42/35/43/73 
f 22/34/25/70 42/35/43/73 39/33/40/71 
f 44/38/45/74 24/37/27/75 21/31/24/66 
f 44/38/45/74 21/31/24/66 45/32/46/69 
f 31/27/32/65 18/28/22/64 24/37/27/75 
f 31/27/32/65 24/37/27/75 44/38/45/74 
f 46/23/47/49 45/24/46/60 38/15/39/54 
f 46/23/47/49 38/15/39/54 41/16/42/49 
f 30/26/31/62 35/39/36/76 27/40/28/77 
f 30/26/31/62 27/40/28/77 19/25/21/63 
f 27/44/28/78 35/43/36/79 34/42/35/80 
f 27/44/28/78 34/42/35/80 28/41/29/81 
f 43/47/44/82 42/46/43/83 23/45/26/84 
f 43/47/44/82 23/45/26/84 29/48/30/85 
