v -1424.1924 664.232 -639.178
v -1424.1924 664.232 -645.2879
v -1423.5601 670.6964 -645.2879
v -1423.5601 670.6964 -638.3562
v -1424.6558 660.3633 -639.7613
v -1424.6558 660.3633 -645.2879
v -1422.8682 662.2976 -645.2879
v -1422.8682 662.2976 -637.6375
v -1418.7144 690.9597 -632.4528
v -1418.7144 690.9597 -645.2879
v -1417.0488 693.1412 -645.2879
v -1417.0488 693.1412 -630.4853
v -1418.7144 695.3228 -645.2879
v -1418.7144 695.3228 -632.5305
v -1421.4199 679.6954 -635.7552
v -1421.4199 679.6954 -645.2879
v -1418.7144 686.5966 -645.2879
v -1418.7144 686.5966 -632.4176
v -1424.0337 670.6964 -637.7747
v -1424.6841 664.232 -638.5738
v -1419.208 690.9597 -631.8465
v -1419.1938 686.5966 -631.8288
v -1417.5747 693.1412 -629.8397
v -1419.2393 695.3228 -631.8852
v -1421.9053 679.6954 -635.1598
v -1425.6514 660.3633 -639.7621
v -1430.1499 660.3633 -645.2885
v -1423.3945 662.2976 -636.99
v -1425.1533 660.3633 -639.15
v -1430.1499 695.3228 -645.2885
v -1425.1758 664.232 -637.9694
v -1424.5068 670.6964 -637.1931
v -1430.1494 670.6964 -637.1933
v -1430.1494 664.232 -637.9694
v -1425.6509 660.3633 -638.539
v -1423.9219 662.2976 -636.3424
v -1430.1494 662.2976 -636.3424
v -1430.1494 660.3633 -638.539
v -1419.7017 690.9597 -631.2399
v -1418.1001 693.1412 -629.1941
v -1430.1494 693.1412 -629.194
v -1430.1494 690.9597 -631.2399
v -1419.7651 695.3228 -631.24
v -1430.1494 695.3228 -631.2399
v -1422.3896 679.6954 -634.5644
v -1419.6729 686.5966 -631.2399
v -1430.1494 686.5966 -631.2399
v -1430.1494 679.6954 -634.5644
gi 0 0 0 0
gi 0 0 0 0
gi 0 0 0 0
gi 0 0 0 0
gi 0 0 0 0
gi 0 0 0 0
gi 0 0 0 0
gi 0 0 0 0
gi 0 0 0 0
gi 0 0 0 0
gi 0 0 0 0
gi 0 0 0 0
gi 0 0 0 0
gi 0 0 0 0
gi 0 0 0 0
gi 0 0 0 0
gi 0 0 0 0
gi 0 0 0 0
gi 0 0 0 0
gi 0 0 0 0
gi 0 0 0 0
gi 0 0 0 0
gi 0 0 0 0
gi 0 0 0 0
gi 0 0 0 0
gi 0 0 0 0
gi 0 0 0 0
gi 0 0 0 0
gi 0 0 0 0
gi 0 0 0 0
gi 0 0 0 0
gi 0 0 0 0
gi 0 0 0 0
gi 0 0 0 0
gi 0 0 0 0
gi 0 0 0 0
gi 0 0 0 0
gi 0 0 0 0
gi 0 0 0 0
gi 0 0 0 0
gi 0 0 0 0
gi 0 0 0 0
gi 0 0 0 0
gi 0 0 0 0
gi 0 0 0 0
gi 0 0 0 0
gi 0 0 0 0
gi 0 0 0 0
gw 0.0 0.0 0.0 0.0
gw 0.0 0.0 0.0 0.0
gw 0.0 0.0 0.0 0.0
gw 0.0 0.0 0.0 0.0
gw 0.0 0.0 0.0 0.0
gw 0.0 0.0 0.0 0.0
gw 0.0 0.0 0.0 0.0
gw 0.0 0.0 0.0 0.0
gw 0.0 0.0 0.0 0.0
gw 0.0 0.0 0.0 0.0
gw 0.0 0.0 0.0 0.0
gw 0.0 0.0 0.0 0.0
gw 0.0 0.0 0.0 0.0
gw 0.0 0.0 0.0 0.0
gw 0.0 0.0 0.0 0.0
gw 0.0 0.0 0.0 0.0
gw 0.0 0.0 0.0 0.0
gw 0.0 0.0 0.0 0.0
gw 0.0 0.0 0.0 0.0
gw 0.0 0.0 0.0 0.0
gw 0.0 0.0 0.0 0.0
gw 0.0 0.0 0.0 0.0
gw 0.0 0.0 0.0 0.0
gw 0.0 0.0 0.0 0.0
gw 0.0 0.0 0.0 0.0
gw 0.0 0.0 0.0 0.0
gw 0.0 0.0 0.0 0.0
gw 0.0 0.0 0.0 0.0
gw 0.0 0.0 0.0 0.0
gw 0.0 0.0 0.0 0.0
gw 0.0 0.0 0.0 0.0
gw 0.0 0.0 0.0 0.0
gw 0.0 0.0 0.0 0.0
gw 0.0 0.0 0.0 0.0
gw 0.0 0.0 0.0 0.0
gw 0.0 0.0 0.0 0.0
gw 0.0 0.0 0.0 0.0
gw 0.0 0.0 0.0 0.0
gw 0.0 0.0 0.0 0.0
gw 0.0 0.0 0.0 0.0
gw 0.0 0.0 0.0 0.0
gw 0.0 0.0 0.0 0.0
gw 0.0 0.0 0.0 0.0
gw 0.0 0.0 0.0 0.0
gw 0.0 0.0 0.0 0.0
gw 0.0 0.0 0.0 0.0
gw 0.0 0.0 0.0 0.0
gw 0.0 0.0 0.0 0.0
vt 0.4476 0.6742
vt 0.4476 0.6911
vt 0.4439 0.6911
vt 0.427 0.6742
vt 0.4457 0.6929
vt 0.5504 0.8881
vt 0.5337 0.8881
vt 0.5337 0.9084
vt 0.5526 0.9084
vt 0.9865 0.7672
vt 0.9619 0.7672
vt 0.9632 0.7791
vt 0.9959 0.7791
vt 0.5546 0.882
vt 0.5337 0.882
vt 0.5687 0.9721
vt 0.5337 0.9721
vt 0.5337 0.979
vt 0.5741 0.979
vt 0.5337 0.9859
vt 0.5685 0.9859
vt 0.5597 0.9367
vt 0.5337 0.9367
vt 0.5337 0.9584
vt 0.5688 0.9584
vt 0.6071 0.8899
vt 0.605 0.8907
vt 0.6028 0.9094
vt 0.605 0.9099
vt 0.5867 0.9726
vt 0.5888 0.9735
vt 0.5887 0.9599
vt 0.5865 0.9593
vt 0.5815 0.9806
vt 0.5834 0.9806
vt 0.5871 0.99
vt 0.589 0.988
vt 0.5978 0.9381
vt 0.5957 0.9372
vt 0.6007 0.8862
vt 0.6028 0.8842
vt 0.0107 0.7672
vt 0.0079 0.7672
vt 0.0078 0.7789
vt 0.0104 0.779
vt 0.0105 0.8749
vt 0.0091 0.876
vt 0.0091 0.8976
vt 0.0406 0.8976
vn 0.0 -1.0 0.0
vn 0.0 -1.0 0.0
vn 0.0 -1.0 -0.0
vn 0.9118 0.3114 0.2675
vn 0.9686 0.2488 0.0
vn 0.9863 -0.1647 0.0
vn 0.9231 -0.2214 0.3144
vn 0.405 -0.9097 0.0916
vn 0.4009 -0.9161 0.0
vn 0.9973 -0.0728 0.0
vn 0.915 -0.0672 0.3978
vn 0.8773 -0.4015 0.2631
vn 0.9473 -0.3203 0.0
vn 1.0 -0.0 0.0
vn 0.9163 0.0032 0.4005
vn 0.4434 0.8963 0.0
vn 0.4484 0.8877 0.1047
vn 0.8736 -0.3895 0.2915
vn 0.9543 -0.2989 0.0
vn 0.9826 -0.1857 0.0
vn 0.9078 -0.2349 0.3475
vn 0.7354 0.318 0.5984
vn 0.7508 -0.2505 0.6112
vn 0.7057 -0.4145 0.5745
vn 0.7473 -0.2678 0.6081
vn 0.7754 0.0047 0.6314
vn 0.2665 0.9391 0.217
vn 0.6984 -0.4345 0.5687
vn 0.7734 -0.0759 0.6293
vn 0.2356 -0.9528 0.1917
vn 0.0 1.0 0.0
vn 0.3715 0.3627 0.8547
vn 0.408 -0.2541 0.8769
vn -0.0 -0.2005 0.9797
vn 0.0 0.2859 0.9583
vn 0.138 -0.924 0.3566
vn 0.4598 -0.0629 0.8858
vn 0.0 -0.0747 0.9972
vn 0.0 -0.9355 0.3533
vn 0.3558 -0.462 0.8124
vn 0.4625 0.0025 0.8866
vn 0.0 0.0 1.0
vn 0.0 -0.3678 0.9299
vn 0.1561 0.9026 0.4012
vn 0.0 0.9176 0.3974
vn 0.3737 -0.4407 0.8161
vn 0.4273 -0.251 0.8686
vn 0.0 -0.2226 0.9749
vn -0.0 -0.3584 0.9336
vtan 1.0 0.0 0.0002
vtan 1.0 0.0 0.0008
vtan 1.0 0.0 0.0006
vtan 1.0 0.0 0.0001
vtan 1.0 0.0 0.0008
vtan 0.0001 0.0 1.0
vtan 0.0004 0.0 1.0
vtan 0.0004 0.0 1.0
vtan 0.0004 -0.0 1.0
vtan -0.2532 -0.0865 0.9635
vtan 0.0 0.0 1.0
vtan -0.3058 0.0733 0.9493
vtan -0.0372 0.0837 0.9958
vtan -0.0 0.0 1.0
vtan -0.3968 0.0291 0.9175
vtan -0.3968 0.0291 0.9175
vtan -0.2393 0.1095 0.9648
vtan -0.4005 -0.0014 0.9163
vtan -0.0472 -0.0935 0.9945
vtan -0.2663 0.1187 0.9566
vtan -0.3364 0.087 0.9377
vtan -0.6756 0.4112 0.6119
vtan -0.4013 0.5381 0.7412
vtan -0.3696 -0.2851 0.8844
vtan -0.6588 -0.217 0.7204
vtan -0.4488 -0.4918 0.7461
vtan -0.7031 -0.3107 0.6396
vtan -0.6637 -0.256 0.7028
vtan -0.4118 -0.3416 0.8448
vtan -0.4005 0.0249 0.916
vtan -0.6314 0.0 0.7754
vtan -0.8835 0.4223 0.2028
vtan -0.943 0.2075 0.2603
vtan -0.7129 -0.3518 0.6067
vtan -0.4655 -0.4949 0.7337
vtan -0.2213 0.7408 0.6342
vtan -0.4284 0.6691 0.6072
vtan -0.6348 -0.0015 0.7727
vtan -0.5662 -0.1709 0.8064
vtan -0.4008 -0.038 0.9154
vtan -0.6323 -0.0217 0.7744
vtan -0.9638 0.2605 0.0562
vtan -0.8938 0.4464 0.0432
vtan -0.8963 0.4434 -0.0003
vtan -1.0 0.0 -0.0
vtan 0.9284 -0.1451 -0.342
vtan 0.913 0.1135 -0.3919
vtan 1.0 -0.0 0.0
vtan 1.0 0.0 0.0
vtan 0.9904 0.1288 -0.0497
vtan 0.888 0.0326 -0.4587
vtan 1.0 0.0 -0.0
vtan 0.9346 0.1759 -0.3093
vtan 0.8866 -0.0013 -0.4625
vtan 1.0 0.0 -0.0
vtan 0.9877 -0.1427 -0.0634
vtan 1.0 0.0 -0.0
vtan 0.9275 0.1776 -0.3288
vtan 0.9041 0.1186 -0.4105
vtan 1.0 0.0 0.0
vtan 0.672 0.5301 -0.517
vtan 0.5125 0.3165 -0.7982
vtan 0.5793 -0.1947 -0.7915
vtan 0.8063 -0.3503 -0.4766
vtan 0.5554 -0.2507 -0.7929
vtan 0.4714 -0.3306 -0.8176
vtan 0.6473 -0.5053 -0.5708
vtan 0.7872 -0.3692 -0.494
vtan 0.6311 0.0238 -0.7753
vtan 0.8866 0.0011 -0.4625
vtan -0.0059 0.2267 -0.9739
vtan 0.1408 0.3817 -0.9135
vtan 0.6325 -0.5225 -0.5718
vtan 0.4626 -0.3324 -0.8219
vtan 0.5665 0.7889 -0.2381
vtan 0.5653 0.5317 -0.6306
vtan 0.63 -0.0173 -0.7764
vtan 0.8849 -0.0508 -0.463
vtan 0.6664 -0.1798 -0.7236
vtan 0.6314 0.0001 -0.7754
vtan -0.0002 0.3974 -0.9176
vtan 0.0635 0.3961 -0.916
vtan 0.0573 0.2093 -0.9762
vtan -0.0 0.0 -1.0
f 5/0/0/0 4/1/0/1 25/2/0/2 
f 5/0/0/0 25/2/0/2 26/3/0/3 
f 28/4/0/4 25/2/0/2 4/1/0/1 
f 37/0/0/5 26/3/0/5 25/2/0/5 
f 37/0/1/6 25/2/1/6 34/1/1/7 
f 28/4/2/8 34/1/2/8 25/2/2/8 
f 0/5/3/9 1/6/4/10 2/7/5/10 
f 0/5/3/9 2/7/5/10 3/8/6/11 
f 4/9/7/12 5/10/8/13 6/11/9/10 
f 4/9/7/12 6/11/9/10 7/12/10/14 
f 0/5/3/9 7/13/10/15 6/14/9/10 
f 0/5/3/9 6/14/9/10 1/6/4/10 
f 8/15/11/16 9/16/12/10 10/17/13/10 
f 8/15/11/16 10/17/13/10 11/18/14/17 
f 10/17/13/10 12/19/15/10 13/20/16/18 
f 10/17/13/10 13/20/16/18 11/18/14/17 
f 14/21/17/19 15/22/18/10 16/23/19/10 
f 14/21/17/19 16/23/19/10 17/24/20/20 
f 3/8/6/11 2/7/5/10 15/22/18/10 
f 3/8/6/11 15/22/18/10 14/21/17/19 
f 19/25/21/21 0/26/3/22 3/27/6/23 
f 19/25/21/21 3/27/6/23 18/28/22/24 
f 8/29/11/25 20/30/23/26 21/31/24/27 
f 8/29/11/25 21/31/24/27 17/32/20/28 
f 11/33/14/29 22/34/25/30 20/30/23/26 
f 11/33/14/29 20/30/23/26 8/29/11/25 
f 11/33/14/29 13/35/16/31 23/36/26/32 
f 11/33/14/29 23/36/26/32 22/34/25/30 
f 17/32/20/28 21/31/24/27 24/37/27/33 
f 17/32/20/28 24/37/27/33 14/38/17/34 
f 14/38/17/34 24/37/27/33 18/28/22/24 
f 14/38/17/34 18/28/22/24 3/27/6/23 
f 8/15/11/16 17/24/20/20 16/23/19/10 
f 8/15/11/16 16/23/19/10 9/16/12/10 
f 7/39/10/35 0/26/3/22 19/25/21/21 
f 7/39/10/35 19/25/21/21 27/40/28/36 
f 28/41/29/37 4/42/7/38 7/43/10/39 
f 28/41/29/37 7/43/10/39 27/44/28/40 
f 23/45/26/41 13/46/16/42 12/47/15/43 
f 23/45/26/41 12/47/15/43 29/48/30/44 
f 30/5/31/45 31/8/32/46 32/7/33/47 
f 30/5/31/45 32/7/33/47 33/6/34/48 
f 34/9/35/49 35/12/36/50 36/11/37/48 
f 34/9/35/49 36/11/37/48 37/10/38/51 
f 30/5/31/45 33/6/34/48 36/14/37/48 
f 30/5/31/45 36/14/37/48 35/13/36/50 
f 38/15/39/52 39/18/40/53 40/17/41/54 
f 38/15/39/52 40/17/41/54 41/16/42/48 
f 42/20/43/55 43/19/44/56 40/17/41/54 
f 42/20/43/55 40/17/41/54 39/18/40/53 
f 44/21/45/57 45/24/46/58 46/23/47/48 
f 44/21/45/57 46/23/47/48 47/22/48/59 
f 31/8/32/46 44/21/45/57 47/22/48/59 
f 31/8/32/46 47/22/48/59 32/7/33/47 
f 30/26/31/60 19/25/21/61 18/28/22/62 
f 30/26/31/60 18/28/22/62 31/27/32/63 
f 21/31/24/64 20/30/23/65 38/29/39/66 
f 21/31/24/64 38/29/39/66 45/32/46/67 
f 38/29/39/66 20/30/23/65 22/34/25/68 
f 38/29/39/66 22/34/25/68 39/33/40/69 
f 22/34/25/68 23/36/26/70 42/35/43/71 
f 22/34/25/68 42/35/43/71 39/33/40/69 
f 44/38/45/72 24/37/27/73 21/31/24/64 
f 44/38/45/72 21/31/24/64 45/32/46/67 
f 31/27/32/63 18/28/22/62 24/37/27/73 
f 31/27/32/63 24/37/27/73 44/38/45/72 
f 46/23/47/48 45/24/46/58 38/15/39/52 
f 46/23/47/48 38/15/39/52 41/16/42/48 
f 30/26/31/60 35/39/36/74 27/40/28/75 
f 30/26/31/60 27/40/28/75 19/25/21/61 
f 27/44/28/76 35/43/36/77 34/42/35/78 
f 27/44/28/76 34/42/35/78 28/41/29/79 
f 43/47/44/80 42/46/43/81 23/45/26/82 
f 43/47/44/80 23/45/26/82 29/48/30/83 
