v -66.0623 492.9888 171.3334
v -66.0623 492.9888 243.5573
v -457.6763 492.9888 243.558
v -457.6763 492.9888 171.3345
v -66.0623 505.3177 243.5573
v -457.6763 505.3177 243.558
v -66.0623 507.8032 241.0718
v -66.0623 507.8032 165.5665
v -457.6763 507.8032 165.5673
v -457.6763 507.8032 241.0723
v -66.0623 501.241 163.081
v -457.6763 501.241 163.0816
v -848.2461 492.9888 243.5573
v -848.2461 492.9888 171.3334
v -848.2461 505.3177 243.5573
v -848.2461 507.8032 165.5666
v -848.2461 507.8032 241.0718
v -848.2461 501.241 163.081
v -457.6763 505.3177 163.0816
v -66.0623 505.3177 163.0811
v -848.2461 505.3177 163.081
v -967.8306 501.241 163.0808
v -967.8306 505.3177 163.0808
v -970.3163 507.8032 165.5664
v -976.0833 492.9888 171.3334
v -1048.3079 492.9888 243.5581
v -1048.308 505.3177 243.5581
v -1045.8223 507.8032 241.0725
v -967.8308 501.241 43.4962
v -967.8309 501.241 -37.2738
v -967.8309 505.3177 -37.2738
v -967.8308 505.3177 43.4962
v -970.3165 507.8032 -37.2738
v -970.3164 507.8032 43.4962
v -1048.3071 492.9888 43.4963
v -976.0833 492.9888 43.4963
v -1048.3071 505.3177 43.4963
v -1045.8217 507.8032 43.4963
v -1048.3073 492.9888 -37.2738
v -976.0835 492.9888 -37.2738
v -1048.3073 505.3177 -37.2738
v -1045.8218 507.8032 -37.2738
v -457.6763 492.9889 -318.1056
v -66.0623 492.9889 -318.1049
v -66.0623 492.9888 -245.8811
v -457.6763 492.9888 -245.8822
v -457.6763 505.3177 -318.1056
v -66.0623 505.3177 -318.1049
v -457.6763 507.8032 -240.115
v -66.0623 507.8032 -240.1142
v -66.0623 507.8033 -315.6195
v -457.6763 507.8033 -315.62
v -66.0623 501.241 -237.6287
v -457.6763 501.241 -237.6292
v -848.246 492.9888 -245.8811
v -848.246 492.9889 -318.1049
v -848.246 505.3177 -318.1049
v -848.246 507.8033 -315.6195
v -848.246 507.8032 -240.1142
v -848.246 501.241 -237.6287
v -66.0623 505.3177 -237.6287
v -457.6763 505.3177 -237.6292
v -848.246 505.3177 -237.6287
v -967.8307 505.3177 -237.6284
v -967.8307 501.241 -237.6284
v -970.3163 507.8032 -240.114
v -976.0834 492.9888 -245.8811
v -1048.308 492.9889 -318.1057
v -1048.308 505.3177 -318.1058
v -1045.8221 507.8033 -315.6201
v -967.8309 501.241 -118.0439
v -967.8309 505.3177 -118.0439
v -970.3163 507.8032 -118.0439
v -976.0834 492.9888 -118.0439
v -1048.307 492.9888 -118.0439
v -1048.307 505.3177 -118.0439
v -1045.8217 507.8032 -118.0439
v 325.5518 492.9888 243.558
v 325.5518 492.9888 171.3346
v 325.5518 505.3177 243.558
v 325.5518 507.8032 165.5672
v 325.5518 507.8032 241.0724
v 325.5518 501.241 163.0816
v 716.1216 492.9888 171.3334
v 716.1216 492.9888 243.5572
v 716.1216 505.3177 243.5572
v 716.1216 507.8032 241.0719
v 716.1216 507.8032 165.5665
v 716.1216 501.241 163.0809
v 325.5518 505.3177 163.0816
v 716.1216 505.3177 163.0812
v 837.2064 505.3177 163.0807
v 837.2064 501.241 163.0807
v 839.692 507.8032 165.5665
v 845.459 492.9888 171.3334
v 917.6836 492.9888 243.558
v 917.6837 505.3177 243.5582
v 915.198 507.8032 241.0724
v 837.2067 505.3177 -37.2738
v 837.2067 501.241 -37.2738
v 837.2067 501.241 43.4962
v 837.2067 505.3177 43.4962
v 839.6923 507.8032 -37.2738
v 839.6921 507.8032 43.4962
v 845.459 492.9888 43.4962
v 917.6829 492.9888 43.4962
v 917.6829 505.3177 43.4962
v 915.1974 507.8032 43.4962
v 917.683 492.9888 -37.2738
v 845.4591 492.9888 -37.2738
v 917.683 505.3177 -37.2738
v 915.1974 507.8032 -37.2738
v 325.5518 492.9889 -318.1056
v 325.5518 492.9888 -245.8822
v 325.5518 505.3177 -318.1056
v 325.5518 507.8032 -240.1149
v 325.5518 507.8033 -315.62
v 325.5518 501.241 -237.6292
v 716.1215 492.9889 -318.1049
v 716.1215 492.9888 -245.881
v 716.1215 505.3177 -318.1049
v 716.1215 507.8032 -240.1142
v 716.1215 507.8033 -315.6195
v 716.1215 501.241 -237.6287
v 325.5518 505.3177 -237.6292
v 716.1215 505.3177 -237.6287
v 837.2064 501.241 -237.6284
v 837.2064 505.3177 -237.6284
v 839.692 507.8032 -240.114
v 845.4591 492.9888 -245.8811
v 917.6837 492.9889 -318.1057
v 917.6837 505.3177 -318.1059
v 915.1979 507.8033 -315.6201
v 837.2067 501.241 -118.0438
v 837.2067 505.3177 -118.0438
v 839.692 507.8032 -118.0438
v 917.6827 492.9888 -118.0438
v 845.4591 492.9888 -118.0438
v 917.6827 505.3177 -118.0438
v 915.1974 507.8032 -118.0438
gi 0 0 0 0
gi 0 0 0 0
gi 0 0 0 0
gi 0 0 0 0
gi 0 0 0 0
gi 0 0 0 0
gi 0 0 0 0
gi 0 0 0 0
gi 0 0 0 0
gi 0 0 0 0
gi 0 0 0 0
gi 0 0 0 0
gi 0 0 0 0
gi 0 0 0 0
gi 0 0 0 0
gi 0 0 0 0
gi 0 0 0 0
gi 0 0 0 0
gi 0 0 0 0
gi 0 0 0 0
gi 0 0 0 0
gi 0 0 0 0
gi 0 0 0 0
gi 0 0 0 0
gi 0 0 0 0
gi 0 0 0 0
gi 0 0 0 0
gi 0 0 0 0
gi 0 0 0 0
gi 0 0 0 0
gi 0 0 0 0
gi 0 0 0 0
gi 0 0 0 0
gi 0 0 0 0
gi 0 0 0 0
gi 0 0 0 0
gi 0 0 0 0
gi 0 0 0 0
gi 0 0 0 0
gi 0 0 0 0
gi 0 0 0 0
gi 0 0 0 0
gi 0 0 0 0
gi 0 0 0 0
gi 0 0 0 0
gi 0 0 0 0
gi 0 0 0 0
gi 0 0 0 0
gi 0 0 0 0
gi 0 0 0 0
gi 0 0 0 0
gi 0 0 0 0
gi 0 0 0 0
gi 0 0 0 0
gi 0 0 0 0
gi 0 0 0 0
gi 0 0 0 0
gi 0 0 0 0
gi 0 0 0 0
gi 0 0 0 0
gi 0 0 0 0
gi 0 0 0 0
gi 0 0 0 0
gi 0 0 0 0
gi 0 0 0 0
gi 0 0 0 0
gi 0 0 0 0
gi 0 0 0 0
gi 0 0 0 0
gi 0 0 0 0
gi 0 0 0 0
gi 0 0 0 0
gi 0 0 0 0
gi 0 0 0 0
gi 0 0 0 0
gi 0 0 0 0
gi 0 0 0 0
gi 0 0 0 0
gi 0 0 0 0
gi 0 0 0 0
gi 0 0 0 0
gi 0 0 0 0
gi 0 0 0 0
gi 0 0 0 0
gi 0 0 0 0
gi 0 0 0 0
gi 0 0 0 0
gi 0 0 0 0
gi 0 0 0 0
gi 0 0 0 0
gi 0 0 0 0
gi 0 0 0 0
gi 0 0 0 0
gi 0 0 0 0
gi 0 0 0 0
gi 0 0 0 0
gi 0 0 0 0
gi 0 0 0 0
gi 0 0 0 0
gi 0 0 0 0
gi 0 0 0 0
gi 0 0 0 0
gi 0 0 0 0
gi 0 0 0 0
gi 0 0 0 0
gi 0 0 0 0
gi 0 0 0 0
gi 0 0 0 0
gi 0 0 0 0
gi 0 0 0 0
gi 0 0 0 0
gi 0 0 0 0
gi 0 0 0 0
gi 0 0 0 0
gi 0 0 0 0
gi 0 0 0 0
gi 0 0 0 0
gi 0 0 0 0
gi 0 0 0 0
gi 0 0 0 0
gi 0 0 0 0
gi 0 0 0 0
gi 0 0 0 0
gi 0 0 0 0
gi 0 0 0 0
gi 0 0 0 0
gi 0 0 0 0
gi 0 0 0 0
gi 0 0 0 0
gi 0 0 0 0
gi 0 0 0 0
gi 0 0 0 0
gi 0 0 0 0
gi 0 0 0 0
gi 0 0 0 0
gi 0 0 0 0
gi 0 0 0 0
gi 0 0 0 0
gi 0 0 0 0
gi 0 0 0 0
gw 0.0 0.0 0.0 0.0
gw 0.0 0.0 0.0 0.0
gw 0.0 0.0 0.0 0.0
gw 0.0 0.0 0.0 0.0
gw 0.0 0.0 0.0 0.0
gw 0.0 0.0 0.0 0.0
gw 0.0 0.0 0.0 0.0
gw 0.0 0.0 0.0 0.0
gw 0.0 0.0 0.0 0.0
gw 0.0 0.0 0.0 0.0
gw 0.0 0.0 0.0 0.0
gw 0.0 0.0 0.0 0.0
gw 0.0 0.0 0.0 0.0
gw 0.0 0.0 0.0 0.0
gw 0.0 0.0 0.0 0.0
gw 0.0 0.0 0.0 0.0
gw 0.0 0.0 0.0 0.0
gw 0.0 0.0 0.0 0.0
gw 0.0 0.0 0.0 0.0
gw 0.0 0.0 0.0 0.0
gw 0.0 0.0 0.0 0.0
gw 0.0 0.0 0.0 0.0
gw 0.0 0.0 0.0 0.0
gw 0.0 0.0 0.0 0.0
gw 0.0 0.0 0.0 0.0
gw 0.0 0.0 0.0 0.0
gw 0.0 0.0 0.0 0.0
gw 0.0 0.0 0.0 0.0
gw 0.0 0.0 0.0 0.0
gw 0.0 0.0 0.0 0.0
gw 0.0 0.0 0.0 0.0
gw 0.0 0.0 0.0 0.0
gw 0.0 0.0 0.0 0.0
gw 0.0 0.0 0.0 0.0
gw 0.0 0.0 0.0 0.0
gw 0.0 0.0 0.0 0.0
gw 0.0 0.0 0.0 0.0
gw 0.0 0.0 0.0 0.0
gw 0.0 0.0 0.0 0.0
gw 0.0 0.0 0.0 0.0
gw 0.0 0.0 0.0 0.0
gw 0.0 0.0 0.0 0.0
gw 0.0 0.0 0.0 0.0
gw 0.0 0.0 0.0 0.0
gw 0.0 0.0 0.0 0.0
gw 0.0 0.0 0.0 0.0
gw 0.0 0.0 0.0 0.0
gw 0.0 0.0 0.0 0.0
gw 0.0 0.0 0.0 0.0
gw 0.0 0.0 0.0 0.0
gw 0.0 0.0 0.0 0.0
gw 0.0 0.0 0.0 0.0
gw 0.0 0.0 0.0 0.0
gw 0.0 0.0 0.0 0.0
gw 0.0 0.0 0.0 0.0
gw 0.0 0.0 0.0 0.0
gw 0.0 0.0 0.0 0.0
gw 0.0 0.0 0.0 0.0
gw 0.0 0.0 0.0 0.0
gw 0.0 0.0 0.0 0.0
gw 0.0 0.0 0.0 0.0
gw 0.0 0.0 0.0 0.0
gw 0.0 0.0 0.0 0.0
gw 0.0 0.0 0.0 0.0
gw 0.0 0.0 0.0 0.0
gw 0.0 0.0 0.0 0.0
gw 0.0 0.0 0.0 0.0
gw 0.0 0.0 0.0 0.0
gw 0.0 0.0 0.0 0.0
gw 0.0 0.0 0.0 0.0
gw 0.0 0.0 0.0 0.0
gw 0.0 0.0 0.0 0.0
gw 0.0 0.0 0.0 0.0
gw 0.0 0.0 0.0 0.0
gw 0.0 0.0 0.0 0.0
gw 0.0 0.0 0.0 0.0
gw 0.0 0.0 0.0 0.0
gw 0.0 0.0 0.0 0.0
gw 0.0 0.0 0.0 0.0
gw 0.0 0.0 0.0 0.0
gw 0.0 0.0 0.0 0.0
gw 0.0 0.0 0.0 0.0
gw 0.0 0.0 0.0 0.0
gw 0.0 0.0 0.0 0.0
gw 0.0 0.0 0.0 0.0
gw 0.0 0.0 0.0 0.0
gw 0.0 0.0 0.0 0.0
gw 0.0 0.0 0.0 0.0
gw 0.0 0.0 0.0 0.0
gw 0.0 0.0 0.0 0.0
gw 0.0 0.0 0.0 0.0
gw 0.0 0.0 0.0 0.0
gw 0.0 0.0 0.0 0.0
gw 0.0 0.0 0.0 0.0
gw 0.0 0.0 0.0 0.0
gw 0.0 0.0 0.0 0.0
gw 0.0 0.0 0.0 0.0
gw 0.0 0.0 0.0 0.0
gw 0.0 0.0 0.0 0.0
gw 0.0 0.0 0.0 0.0
gw 0.0 0.0 0.0 0.0
gw 0.0 0.0 0.0 0.0
gw 0.0 0.0 0.0 0.0
gw 0.0 0.0 0.0 0.0
gw 0.0 0.0 0.0 0.0
gw 0.0 0.0 0.0 0.0
gw 0.0 0.0 0.0 0.0
gw 0.0 0.0 0.0 0.0
gw 0.0 0.0 0.0 0.0
gw 0.0 0.0 0.0 0.0
gw 0.0 0.0 0.0 0.0
gw 0.0 0.0 0.0 0.0
gw 0.0 0.0 0.0 0.0
gw 0.0 0.0 0.0 0.0
gw 0.0 0.0 0.0 0.0
gw 0.0 0.0 0.0 0.0
gw 0.0 0.0 0.0 0.0
gw 0.0 0.0 0.0 0.0
gw 0.0 0.0 0.0 0.0
gw 0.0 0.0 0.0 0.0
gw 0.0 0.0 0.0 0.0
gw 0.0 0.0 0.0 0.0
gw 0.0 0.0 0.0 0.0
gw 0.0 0.0 0.0 0.0
gw 0.0 0.0 0.0 0.0
gw 0.0 0.0 0.0 0.0
gw 0.0 0.0 0.0 0.0
gw 0.0 0.0 0.0 0.0
gw 0.0 0.0 0.0 0.0
gw 0.0 0.0 0.0 0.0
gw 0.0 0.0 0.0 0.0
gw 0.0 0.0 0.0 0.0
gw 0.0 0.0 0.0 0.0
gw 0.0 0.0 0.0 0.0
gw 0.0 0.0 0.0 0.0
gw 0.0 0.0 0.0 0.0
gw 0.0 0.0 0.0 0.0
gw 0.0 0.0 0.0 0.0
gw 0.0 0.0 0.0 0.0
gw 0.0 0.0 0.0 0.0
vt 0.9897 0.5705
vt 0.9897 0.7513
vt 0.0111 0.7513
vt 0.0111 0.5705
vt 0.9897 0.7821
vt 0.0111 0.7821
vt 0.9897 0.3444
vt 0.9897 0.5334
vt 0.0111 0.5334
vt 0.0111 0.3444
vt 0.9897 0.5498
vt 0.0111 0.5498
vt 0.9897 0.3382
vt 0.0111 0.3382
vt 0.9887 0.7513
vt 0.9887 0.5705
vt 0.9887 0.7821
vt 0.9887 0.5334
vt 0.9887 0.3444
vt 0.9887 0.5498
vt 0.9887 0.3382
vt 0.0111 0.5396
vt 0.9897 0.5396
vt 0.9887 0.5396
vt 0.6893 0.5498
vt 0.6893 0.5396
vt 0.6831 0.5334
vt 0.6687 0.5705
vt 0.4879 0.7513
vt 0.4879 0.7821
vt 0.4941 0.3444
vt 0.4879 0.3382
vt 0.7865 0.5498
vt 0.7865 0.5396
vt 0.7865 0.5334
vt 0.7865 0.7513
vt 0.7865 0.5705
vt 0.7865 0.7821
vt 0.7865 0.3444
vt 0.7865 0.3382
vn 0.0 -0.9239 -0.3827
vn -0.0 -0.7071 0.7071
vn -0.0 -0.7071 0.7071
vn 0.0 -0.9239 -0.3827
vn -0.0 0.3827 0.9239
vn -0.0 0.3827 0.9239
vn -0.0 0.9239 0.3827
vn -0.0 0.9239 -0.3827
vn -0.0 0.9239 -0.3827
vn -0.0 0.9239 0.3827
vn 0.0 -0.3827 -0.9239
vn 0.0 -0.3827 -0.9239
vn 0.0 -0.7071 0.7071
vn 0.0 -0.9239 -0.3827
vn 0.0 0.3827 0.9239
vn 0.0 0.9239 -0.3827
vn 0.0 0.9239 0.3827
vn 0.0 -0.3827 -0.9239
vn -0.0 0.3827 -0.9239
vn -0.0 0.3827 -0.9239
vn 0.0 0.3827 -0.9239
vn 0.5789 -0.5743 -0.5789
vn 0.5789 0.5743 -0.5789
vn 0.11 0.9878 -0.11
vn 0.11 -0.9878 -0.11
vn -0.5773 -0.5774 0.5773
vn -0.6507 0.3914 0.6507
vn -0.3002 0.9054 0.3002
vn 0.9239 -0.3827 -0.0
vn 0.9239 -0.3827 -0.0
vn 0.9239 0.3827 -0.0
vn 0.9239 0.3827 -0.0
vn 0.3826 0.9239 0.0
vn 0.3827 0.9239 -0.0
vn -0.7071 -0.7071 -0.0
vn 0.3827 -0.9239 -0.0
vn -0.9239 0.3827 -0.0
vn -0.3827 0.9239 -0.0
vn -0.7071 -0.7071 -0.0
vn 0.3827 -0.9239 -0.0
vn -0.9239 0.3827 -0.0
vn -0.3827 0.9239 -0.0
vn -0.0 -0.7071 -0.7071
vn -0.0 -0.7071 -0.7071
vn -0.0 -0.9239 0.3827
vn 0.0 -0.9239 0.3827
vn -0.0 0.3827 -0.9239
vn 0.0 0.3827 -0.9239
vn -0.0 0.9239 0.3827
vn -0.0 0.9239 0.3827
vn 0.0 0.9239 -0.3827
vn -0.0 0.9239 -0.3827
vn -0.0 -0.3827 0.9239
vn 0.0 -0.3827 0.9239
vn 0.0 -0.9239 0.3827
vn 0.0 -0.7071 -0.7071
vn 0.0 0.3827 -0.9239
vn 0.0 0.9239 -0.3827
vn 0.0 0.9239 0.3827
vn 0.0 -0.3827 0.9239
vn -0.0 0.3827 0.9239
vn -0.0 0.3827 0.9239
vn 0.0 0.3827 0.9239
vn 0.5789 0.5743 0.5789
vn 0.5789 -0.5743 0.5789
vn 0.11 0.9878 0.11
vn 0.11 -0.9878 0.11
vn -0.5773 -0.5774 -0.5773
vn -0.6507 0.3914 -0.6507
vn -0.3002 0.9054 -0.3002
vn 0.9239 -0.3827 0.0
vn 0.9239 0.3827 0.0
vn 0.3827 0.9239 0.0
vn 0.3827 -0.9239 0.0
vn -0.7071 -0.7071 0.0
vn -0.9239 0.3827 0.0
vn -0.3827 0.9239 0.0
vn -0.0 -0.9239 -0.3827
vn 0.0 -0.7071 0.7071
vn 0.0 0.3827 0.9239
vn 0.0 0.9239 -0.3827
vn 0.0 0.9239 0.3827
vn -0.0 -0.3827 -0.9239
vn -0.0 -0.9239 -0.3827
vn -0.0 -0.7071 0.7071
vn -0.0 0.3827 0.9239
vn -0.0 0.9239 0.3827
vn -0.0 0.9239 -0.3827
vn -0.0 -0.3827 -0.9239
vn -0.0 0.3827 -0.9239
vn -0.0 0.3827 -0.9239
vn -0.5789 0.5743 -0.5789
vn -0.5789 -0.5743 -0.5789
vn -0.11 0.9878 -0.11
vn -0.11 -0.9878 -0.11
vn 0.5773 -0.5774 0.5773
vn 0.6507 0.3914 0.6507
vn 0.3002 0.9054 0.3002
vn -0.9239 0.3827 0.0
vn -0.9239 -0.3827 0.0
vn -0.9239 -0.3827 -0.0
vn -0.9239 0.3827 -0.0
vn -0.3827 0.9239 0.0
vn -0.3827 0.9239 -0.0
vn -0.3827 -0.9239 -0.0
vn 0.7071 -0.7071 -0.0
vn 0.9239 0.3827 -0.0
vn 0.3827 0.9239 -0.0
vn 0.7071 -0.7071 -0.0
vn -0.3827 -0.9239 -0.0
vn 0.9239 0.3827 -0.0
vn 0.3827 0.9239 -0.0
vn 0.0 -0.7071 -0.7071
vn -0.0 -0.9239 0.3827
vn 0.0 0.3827 -0.9239
vn 0.0 0.9239 0.3827
vn 0.0 0.9239 -0.3827
vn -0.0 -0.3827 0.9239
vn -0.0 -0.7071 -0.7071
vn -0.0 -0.9239 0.3827
vn -0.0 0.3827 -0.9239
vn -0.0 0.9239 0.3827
vn -0.0 0.9239 -0.3827
vn -0.0 -0.3827 0.9239
vn 0.0 0.3827 0.9239
vn -0.0 0.3827 0.9239
vn -0.5789 -0.5743 0.5789
vn -0.5789 0.5743 0.5789
vn -0.11 0.9878 0.11
vn -0.11 -0.9878 0.11
vn 0.5773 -0.5774 -0.5773
vn 0.6507 0.3914 -0.6507
vn 0.3002 0.9054 -0.3002
vn -0.9239 -0.3827 0.0
vn -0.9239 0.3827 0.0
vn -0.3827 0.9239 0.0
vn 0.7071 -0.7071 0.0
vn -0.3827 -0.9239 0.0
vn 0.9239 0.3827 0.0
vn 0.3827 0.9239 0.0
vtan 1.0 0.0 -0.0
vtan 1.0 -0.0 -0.0
vtan 1.0 -0.0 -0.0
vtan 1.0 0.0 -0.0
vtan 1.0 0.0 -0.0
vtan 1.0 0.0 -0.0
vtan 1.0 0.0 -0.0
vtan 1.0 -0.0 -0.0
vtan 1.0 -0.0 -0.0
vtan 1.0 0.0 -0.0
vtan 1.0 0.0 -0.0
vtan 1.0 0.0 -0.0
vtan 1.0 0.0 -0.0
vtan -1.0 -0.0 -0.0
vtan -1.0 -0.0 -0.0
vtan -1.0 0.0 -0.0
vtan -1.0 0.0 -0.0
vtan -1.0 0.0 -0.0
vtan -1.0 0.0 0.0
vtan -1.0 -0.0 -0.0
vtan -1.0 0.0 -0.0
vtan -1.0 0.0 -0.0
vtan -1.0 0.0 -0.0
vtan -1.0 0.0 -0.0
vtan -1.0 0.0 -0.0
vtan -1.0 0.0 0.0
vtan -1.0 0.0 -0.0
vtan 1.0 -0.0 -0.0
vtan 1.0 -0.0 -0.0
vtan -1.0 -0.0 -0.0
vtan -1.0 0.0 -0.0
vtan 1.0 0.0 0.0
vtan 0.8154 0.4077 0.411
vtan 0.8154 -0.4077 0.411
vtan 1.0 -0.0 0.0
vtan 1.0 -0.0 0.0
vtan 0.9939 -0.1094 0.0122
vtan 0.9939 0.1094 0.0122
vtan 1.0 0.0 0.0
vtan 1.0 -0.0 -0.0
vtan 0.8165 -0.4083 0.4082
vtan 1.0 0.0 -0.0
vtan 0.7593 0.3354 0.5576
vtan 1.0 0.0 -0.0
vtan 0.9539 0.2849 0.0945
vtan 1.0 0.0 -0.0
vtan 0.0 0.0 1.0
vtan 0.0 -0.0 1.0
vtan 0.0 -0.0 1.0
vtan 0.0 0.0 1.0
vtan 0.0 -0.0 1.0
vtan 0.0 -0.0 1.0
vtan -0.411 -0.4077 -0.8154
vtan -0.411 0.4077 -0.8154
vtan -0.0 0.0 -1.0
vtan -0.0 0.0 -1.0
vtan -0.0 0.0 -1.0
vtan -0.0122 -0.1094 -0.9939
vtan -0.0122 0.1094 -0.9939
vtan -0.4082 -0.4083 -0.8165
vtan 0.0 -0.0 -1.0
vtan -0.0 0.0 -1.0
vtan -0.5576 0.3354 -0.7593
vtan 0.0 0.0 -1.0
vtan 0.0 0.0 -1.0
vtan -0.0945 0.2849 -0.9539
vtan 0.0 0.0 -1.0
vtan -0.5576 0.3354 -0.7593
vtan 0.0 -0.0 1.0
vtan -0.0 -0.0 1.0
vtan 0.0 -0.0 1.0
vtan 0.0 -0.0 1.0
vtan -0.0 0.0 1.0
vtan -0.0 0.0 1.0
vtan 0.0 0.0 1.0
vtan 0.0 0.0 1.0
vtan -0.0 0.0 1.0
vtan 1.0 -0.0 0.0
vtan 1.0 -0.0 0.0
vtan 1.0 0.0 0.0
vtan 1.0 0.0 0.0
vtan 1.0 0.0 0.0
vtan 1.0 0.0 0.0
vtan 1.0 -0.0 0.0
vtan 1.0 -0.0 0.0
vtan 1.0 0.0 0.0
vtan 1.0 0.0 0.0
vtan 1.0 0.0 0.0
vtan 1.0 0.0 0.0
vtan 1.0 0.0 0.0
vtan 1.0 0.0 0.0
vtan -1.0 -0.0 0.0
vtan -1.0 -0.0 0.0
vtan -1.0 -0.0 0.0
vtan -1.0 0.0 0.0
vtan -1.0 0.0 -0.0
vtan -1.0 0.0 0.0
vtan -1.0 0.0 0.0
vtan -1.0 0.0 0.0
vtan -1.0 -0.0 0.0
vtan -1.0 0.0 0.0
vtan -1.0 -0.0 0.0
vtan -1.0 0.0 0.0
vtan -1.0 0.0 -0.0
vtan -1.0 0.0 0.0
vtan 1.0 -0.0 0.0
vtan 1.0 -0.0 0.0
vtan -1.0 -0.0 0.0
vtan -1.0 0.0 0.0
vtan 0.8154 -0.4077 -0.411
vtan 0.8154 0.4077 -0.411
vtan 1.0 -0.0 -0.0
vtan 1.0 0.0 -0.0
vtan 1.0 -0.0 -0.0
vtan 0.9939 -0.1094 -0.0122
vtan 0.9939 0.1094 -0.0122
vtan 0.8165 -0.4083 -0.4082
vtan 1.0 -0.0 0.0
vtan 1.0 0.0 -0.0
vtan 0.7593 0.3354 -0.5576
vtan 1.0 0.0 0.0
vtan 1.0 0.0 0.0
vtan 0.9539 0.2849 -0.0945
vtan 1.0 0.0 0.0
vtan 0.7593 0.3354 -0.5576
vtan -0.0 0.0 -1.0
vtan -0.0 0.0 -1.0
vtan 0.0 0.0 -1.0
vtan 0.0 0.0 -1.0
vtan 0.0 -0.0 -1.0
vtan 0.0 0.0 -1.0
vtan -0.0 -0.0 1.0
vtan -0.411 0.4077 0.8154
vtan -0.411 -0.4077 0.8154
vtan -0.0 -0.0 1.0
vtan -0.0 -0.0 1.0
vtan -0.0122 -0.1094 0.9939
vtan -0.0122 0.1094 0.9939
vtan -0.0 0.0 1.0
vtan 0.0 -0.0 1.0
vtan -0.4082 -0.4083 0.8165
vtan 0.0 0.0 1.0
vtan -0.5576 0.3354 0.7593
vtan 0.0 0.0 1.0
vtan -0.0945 0.2849 0.9539
vtan 0.0 0.0 1.0
vtan 0.0 -0.0 -1.0
vtan 0.0 -0.0 -1.0
vtan 0.0 0.0 -1.0
vtan 0.0 0.0 -1.0
vtan 0.0 0.0 -1.0
vtan -0.0 0.0 -1.0
vtan 0.0 0.0 -1.0
vtan 0.0 0.0 -1.0
vtan -0.0 0.0 -1.0
vtan 0.0 0.0 -1.0
vtan -1.0 0.0 -0.0
vtan -1.0 0.0 -0.0
vtan -1.0 -0.0 -0.0
vtan -1.0 -0.0 -0.0
vtan -1.0 0.0 -0.0
vtan -1.0 0.0 -0.0
vtan -1.0 -0.0 -0.0
vtan -1.0 -0.0 -0.0
vtan -1.0 0.0 -0.0
vtan -1.0 0.0 -0.0
vtan -1.0 0.0 -0.0
vtan -1.0 0.0 -0.0
vtan -1.0 0.0 -0.0
vtan -1.0 0.0 -0.0
vtan 1.0 0.0 -0.0
vtan 1.0 -0.0 -0.0
vtan 1.0 -0.0 -0.0
vtan 1.0 0.0 -0.0
vtan 1.0 0.0 0.0
vtan 1.0 0.0 -0.0
vtan 1.0 0.0 -0.0
vtan 1.0 0.0 -0.0
vtan 1.0 -0.0 -0.0
vtan 1.0 0.0 -0.0
vtan 1.0 -0.0 -0.0
vtan 1.0 0.0 -0.0
vtan 1.0 0.0 0.0
vtan 1.0 0.0 -0.0
vtan -1.0 -0.0 -0.0
vtan -1.0 -0.0 -0.0
vtan 1.0 -0.0 -0.0
vtan 1.0 0.0 -0.0
vtan -0.8154 -0.4077 0.411
vtan -0.8154 0.4077 0.411
vtan -1.0 -0.0 0.0
vtan -1.0 0.0 0.0
vtan -1.0 -0.0 0.0
vtan -0.9939 -0.1094 0.0122
vtan -0.9939 0.1094 0.0122
vtan -0.8165 -0.4083 0.4082
vtan -1.0 -0.0 -0.0
vtan -1.0 0.0 0.0
vtan -0.7593 0.3354 0.5576
vtan -1.0 0.0 -0.0
vtan -1.0 0.0 -0.0
vtan -0.9539 0.2849 0.0945
vtan -1.0 0.0 -0.0
vtan -0.7593 0.3354 0.5576
vtan 0.0 -0.0 1.0
vtan 0.0 0.0 1.0
vtan -0.0 -0.0 1.0
vtan -0.0 0.0 1.0
vtan -0.0 -0.0 1.0
vtan -0.0 -0.0 1.0
vtan 0.0 -0.0 -1.0
vtan 0.411 0.4077 -0.8154
vtan 0.4109 -0.4077 -0.8154
vtan 0.0 0.0 -1.0
vtan 0.0 -0.0 -1.0
vtan 0.0122 -0.1094 -0.9939
vtan 0.0122 0.1094 -0.9939
vtan 0.0 0.0 -1.0
vtan -0.0 -0.0 -1.0
vtan 0.4082 -0.4083 -0.8165
vtan -0.0 0.0 -1.0
vtan 0.5576 0.3354 -0.7593
vtan -0.0 0.0 -1.0
vtan 0.0945 0.2849 -0.9539
vtan -0.0 0.0 -1.0
vtan 0.5576 0.3354 -0.7593
vtan 0.0 -0.0 1.0
vtan 0.0 -0.0 1.0
vtan -0.0 -0.0 1.0
vtan -0.0 -0.0 1.0
vtan 0.0 0.0 1.0
vtan 0.0 0.0 1.0
vtan -0.0 0.0 1.0
vtan -0.0 0.0 1.0
vtan 0.0 0.0 1.0
vtan 0.0 0.0 1.0
vtan -1.0 0.0 0.0
vtan -1.0 -0.0 0.0
vtan -1.0 -0.0 0.0
vtan -1.0 0.0 0.0
vtan -1.0 0.0 0.0
vtan -1.0 0.0 0.0
vtan -1.0 0.0 0.0
vtan -1.0 -0.0 0.0
vtan -1.0 -0.0 0.0
vtan -1.0 0.0 0.0
vtan -1.0 0.0 0.0
vtan -1.0 0.0 0.0
vtan -1.0 0.0 0.0
vtan -1.0 0.0 0.0
vtan 1.0 -0.0 0.0
vtan 1.0 -0.0 0.0
vtan 1.0 -0.0 0.0
vtan 1.0 0.0 0.0
vtan 1.0 0.0 0.0
vtan 1.0 0.0 -0.0
vtan 1.0 -0.0 0.0
vtan 1.0 0.0 0.0
vtan 1.0 0.0 0.0
vtan 1.0 0.0 0.0
vtan 1.0 -0.0 0.0
vtan 1.0 0.0 0.0
vtan 1.0 0.0 -0.0
vtan 1.0 0.0 0.0
vtan -1.0 -0.0 0.0
vtan -1.0 -0.0 0.0
vtan 1.0 -0.0 0.0
vtan 1.0 0.0 0.0
vtan -1.0 -0.0 -0.0
vtan -0.8154 0.4077 -0.411
vtan -0.8154 -0.4077 -0.411
vtan -1.0 0.0 -0.0
vtan -1.0 -0.0 -0.0
vtan -0.9939 -0.1094 -0.0122
vtan -0.9939 0.1094 -0.0122
vtan -1.0 0.0 -0.0
vtan -1.0 -0.0 0.0
vtan -0.8165 -0.4083 -0.4082
vtan -1.0 0.0 0.0
vtan -0.7593 0.3354 -0.5576
vtan -1.0 0.0 0.0
vtan -0.9539 0.2849 -0.0944
vtan -1.0 0.0 0.0
vtan -0.7593 0.3354 -0.5576
vtan -0.0 -0.0 -1.0
vtan -0.0 0.0 -1.0
vtan -0.0 0.0 -1.0
vtan -0.0 0.0 -1.0
vtan -0.0 0.0 -1.0
vtan -0.0 0.0 -1.0
vtan 0.411 -0.4077 0.8154
vtan 0.411 0.4077 0.8154
vtan 0.0 -0.0 1.0
vtan 0.0 0.0 1.0
vtan 0.0 -0.0 1.0
vtan 0.0122 -0.1094 0.9939
vtan 0.0122 0.1094 0.9939
vtan 0.4082 -0.4083 0.8165
vtan -0.0 -0.0 1.0
vtan 0.0 -0.0 1.0
vtan 0.5576 0.3354 0.7593
vtan -0.0 0.0 1.0
vtan -0.0 0.0 1.0
vtan 0.0944 0.2849 0.9539
vtan -0.0 0.0 1.0
vtan -0.0 0.0 -1.0
vtan -0.0 -0.0 -1.0
vtan -0.0 -0.0 -1.0
vtan 0.0 0.0 -1.0
vtan 0.0 0.0 -1.0
vtan -0.0 0.0 -1.0
vtan -0.0 0.0 -1.0
vtan -0.0 0.0 -1.0
vtan 0.0 0.0 -1.0
vtan -0.0 0.0 -1.0
f 0/0/0/0 1/1/1/1 2/2/2/2 
f 0/0/0/0 2/2/2/2 3/3/3/3 
f 1/1/1/1 4/4/4/4 5/5/5/5 
f 1/1/1/1 5/5/5/5 2/2/2/2 
f 6/6/6/6 7/7/7/7 8/8/8/8 
f 6/6/6/6 8/8/8/8 9/9/9/9 
f 10/10/10/10 0/0/0/0 3/3/3/3 
f 10/10/10/10 3/3/3/3 11/11/11/11 
f 4/12/4/12 6/6/6/6 9/9/9/9 
f 4/12/4/12 9/9/9/9 5/13/5/5 
f 2/2/2/13 12/14/12/14 13/15/13/15 
f 2/2/2/13 13/15/13/15 3/3/3/16 
f 5/5/5/17 14/16/14/18 12/14/12/14 
f 5/5/5/17 12/14/12/14 2/2/2/13 
f 8/8/8/19 15/17/15/20 16/18/16/21 
f 8/8/8/19 16/18/16/21 9/9/9/22 
f 3/3/3/16 13/15/13/15 17/19/17/23 
f 3/3/3/16 17/19/17/23 11/11/11/24 
f 9/9/9/22 16/18/16/21 14/20/14/25 
f 9/9/9/22 14/20/14/25 5/13/5/26 
f 11/11/11/11 18/21/18/27 19/22/19/28 
f 11/11/11/11 19/22/19/28 10/10/10/10 
f 18/21/18/27 8/8/8/8 7/7/7/7 
f 18/21/18/27 7/7/7/7 19/22/19/28 
f 18/21/18/29 11/11/11/24 17/19/17/23 
f 18/21/18/29 17/19/17/23 20/23/20/30 
f 8/8/8/19 18/21/18/29 20/23/20/30 
f 8/8/8/19 20/23/20/30 15/17/15/20 
f 17/19/17/31 21/24/21/32 22/25/22/33 
f 17/19/17/31 22/25/22/33 20/23/20/34 
f 15/17/15/35 20/23/20/34 22/25/22/33 
f 15/17/15/35 22/25/22/33 23/26/23/36 
f 24/27/24/37 13/15/13/38 12/14/12/39 
f 24/27/24/37 12/14/12/39 25/28/25/40 
f 12/14/12/39 14/16/14/41 26/29/26/42 
f 12/14/12/39 26/29/26/42 25/28/25/40 
f 16/18/16/43 15/17/15/35 23/26/23/36 
f 16/18/16/43 23/26/23/36 27/30/27/44 
f 21/24/21/32 17/19/17/31 13/15/13/38 
f 21/24/21/32 13/15/13/38 24/27/24/37 
f 14/20/14/45 16/18/16/43 27/30/27/44 
f 14/20/14/45 27/30/27/44 26/31/26/42 
f 28/19/28/46 29/32/29/47 30/33/30/48 
f 28/19/28/46 30/33/30/48 31/23/31/49 
f 31/23/31/49 30/33/30/48 32/34/32/50 
f 31/23/31/49 32/34/32/50 33/17/33/51 
f 22/25/22/52 21/24/21/53 28/19/28/54 
f 22/25/22/52 28/19/28/54 31/23/31/55 
f 33/17/33/56 23/26/23/57 22/25/22/52 
f 33/17/33/56 22/25/22/52 31/23/31/55 
f 24/27/24/58 25/28/25/59 34/14/34/60 
f 24/27/24/58 34/14/34/60 35/15/35/61 
f 26/29/26/62 36/16/36/63 34/14/34/60 
f 26/29/26/62 34/14/34/60 25/28/25/59 
f 23/26/23/57 33/17/33/56 37/18/37/64 
f 23/26/23/57 37/18/37/64 27/30/27/65 
f 21/24/21/53 24/27/24/58 35/15/35/61 
f 21/24/21/53 35/15/35/61 28/19/28/54 
f 27/30/27/65 37/18/37/64 36/20/36/66 
f 27/30/27/65 36/20/36/66 26/31/26/67 
f 35/15/35/68 34/14/34/69 38/35/38/70 
f 35/15/35/68 38/35/38/70 39/36/39/71 
f 34/14/34/69 36/16/36/72 40/37/40/73 
f 34/14/34/69 40/37/40/73 38/35/38/70 
f 37/18/37/74 33/17/33/51 32/34/32/50 
f 37/18/37/74 32/34/32/50 41/38/41/75 
f 28/19/28/46 35/15/35/68 39/36/39/71 
f 28/19/28/46 39/36/39/71 29/32/29/47 
f 36/20/36/76 37/18/37/74 41/38/41/75 
f 36/20/36/76 41/38/41/75 40/39/40/73 
f 42/2/42/77 43/1/43/78 44/0/44/79 
f 42/2/42/77 44/0/44/79 45/3/45/80 
f 46/5/46/81 47/4/47/82 43/1/43/78 
f 46/5/46/81 43/1/43/78 42/2/42/77 
f 48/8/48/83 49/7/49/84 50/6/50/85 
f 48/8/48/83 50/6/50/85 51/9/51/86 
f 45/3/45/80 44/0/44/79 52/10/52/87 
f 45/3/45/80 52/10/52/87 53/11/53/88 
f 51/9/51/86 50/6/50/85 47/12/47/89 
f 51/9/51/86 47/12/47/89 46/13/46/90 
f 54/15/54/91 55/14/55/92 42/2/42/93 
f 54/15/54/91 42/2/42/93 45/3/45/94 
f 55/14/55/92 56/16/56/95 46/5/46/96 
f 55/14/55/92 46/5/46/96 42/2/42/93 
f 57/18/57/97 58/17/58/98 48/8/48/99 
f 57/18/57/97 48/8/48/99 51/9/51/100 
f 59/19/59/101 54/15/54/91 45/3/45/94 
f 59/19/59/101 45/3/45/94 53/11/53/102 
f 56/20/56/103 57/18/57/97 51/9/51/100 
f 56/20/56/103 51/9/51/100 46/13/46/104 
f 60/22/60/105 61/21/61/106 53/11/53/88 
f 60/22/60/105 53/11/53/88 52/10/52/87 
f 49/7/49/84 48/8/48/83 61/21/61/106 
f 49/7/49/84 61/21/61/106 60/22/60/105 
f 59/19/59/101 53/11/53/102 61/21/61/107 
f 59/19/59/101 61/21/61/107 62/23/62/108 
f 62/23/62/108 61/21/61/107 48/8/48/99 
f 62/23/62/108 48/8/48/99 58/17/58/98 
f 63/25/63/109 64/24/64/110 59/19/59/111 
f 63/25/63/109 59/19/59/111 62/23/62/112 
f 58/17/58/113 65/26/65/114 63/25/63/109 
f 58/17/58/113 63/25/63/109 62/23/62/112 
f 66/27/66/115 67/28/67/116 55/14/55/117 
f 66/27/66/115 55/14/55/117 54/15/54/118 
f 68/29/68/119 56/16/56/120 55/14/55/117 
f 68/29/68/119 55/14/55/117 67/28/67/116 
f 65/26/65/114 58/17/58/113 57/18/57/121 
f 65/26/65/114 57/18/57/121 69/30/69/122 
f 64/24/64/110 66/27/66/115 54/15/54/118 
f 64/24/64/110 54/15/54/118 59/19/59/111 
f 69/30/69/122 57/18/57/121 56/20/56/123 
f 69/30/69/122 56/20/56/123 68/31/68/124 
f 30/33/30/125 29/32/29/126 70/19/70/127 
f 30/33/30/125 70/19/70/127 71/23/71/128 
f 32/34/32/129 30/33/30/125 71/23/71/128 
f 32/34/32/129 71/23/71/128 72/17/72/130 
f 70/19/70/131 64/24/64/132 63/25/63/133 
f 70/19/70/131 63/25/63/133 71/23/71/134 
f 72/17/72/135 71/23/71/134 63/25/63/133 
f 72/17/72/135 63/25/63/133 65/26/65/136 
f 66/27/66/137 73/15/73/138 74/14/74/139 
f 66/27/66/137 74/14/74/139 67/28/67/140 
f 74/14/74/139 75/16/75/141 68/29/68/142 
f 74/14/74/139 68/29/68/142 67/28/67/140 
f 76/18/76/143 72/17/72/135 65/26/65/136 
f 76/18/76/143 65/26/65/136 69/30/69/144 
f 64/24/64/132 70/19/70/131 73/15/73/138 
f 64/24/64/132 73/15/73/138 66/27/66/137 
f 75/20/75/145 76/18/76/143 69/30/69/144 
f 75/20/75/145 69/30/69/144 68/31/68/142 
f 38/35/38/146 74/14/74/147 73/15/73/148 
f 38/35/38/146 73/15/73/148 39/36/39/149 
f 40/37/40/150 75/16/75/151 74/14/74/147 
f 40/37/40/150 74/14/74/147 38/35/38/146 
f 32/34/32/129 72/17/72/130 76/18/76/152 
f 32/34/32/129 76/18/76/152 41/38/41/153 
f 39/36/39/149 73/15/73/148 70/19/70/127 
f 39/36/39/149 70/19/70/127 29/32/29/126 
f 41/38/41/153 76/18/76/152 75/20/75/154 
f 41/38/41/153 75/20/75/154 40/39/40/155 
f 0/0/0/156 78/3/77/157 77/2/78/158 
f 0/0/0/156 77/2/78/158 1/1/1/159 
f 79/5/79/160 4/4/4/161 1/1/1/159 
f 79/5/79/160 1/1/1/159 77/2/78/158 
f 80/8/80/162 7/7/7/163 6/6/6/164 
f 80/8/80/162 6/6/6/164 81/9/81/165 
f 78/3/77/157 0/0/0/156 10/10/10/166 
f 78/3/77/157 10/10/10/166 82/11/82/167 
f 81/9/81/165 6/6/6/164 4/12/4/168 
f 81/9/81/165 4/12/4/168 79/13/79/169 
f 83/15/83/170 84/14/84/171 77/2/78/172 
f 83/15/83/170 77/2/78/172 78/3/77/173 
f 84/14/84/171 85/16/85/174 79/5/79/175 
f 84/14/84/171 79/5/79/175 77/2/78/172 
f 86/18/86/176 87/17/87/177 80/8/80/178 
f 86/18/86/176 80/8/80/178 81/9/81/179 
f 88/19/88/180 83/15/83/170 78/3/77/173 
f 88/19/88/180 78/3/77/173 82/11/82/181 
f 85/20/85/182 86/18/86/176 81/9/81/179 
f 85/20/85/182 81/9/81/179 79/13/79/183 
f 19/22/19/184 89/21/89/185 82/11/82/167 
f 19/22/19/184 82/11/82/167 10/10/10/166 
f 7/7/7/163 80/8/80/162 89/21/89/185 
f 7/7/7/163 89/21/89/185 19/22/19/184 
f 88/19/88/180 82/11/82/181 89/21/89/186 
f 88/19/88/180 89/21/89/186 90/23/90/187 
f 90/23/90/187 89/21/89/186 80/8/80/178 
f 90/23/90/187 80/8/80/178 87/17/87/177 
f 91/25/91/188 92/24/92/189 88/19/88/190 
f 91/25/91/188 88/19/88/190 90/23/90/191 
f 87/17/87/192 93/26/93/193 91/25/91/188 
f 87/17/87/192 91/25/91/188 90/23/90/191 
f 94/27/94/194 95/28/95/195 84/14/84/196 
f 94/27/94/194 84/14/84/196 83/15/83/197 
f 96/29/96/198 85/16/85/199 84/14/84/196 
f 96/29/96/198 84/14/84/196 95/28/95/195 
f 93/26/93/193 87/17/87/192 86/18/86/200 
f 93/26/93/193 86/18/86/200 97/30/97/201 
f 92/24/92/189 94/27/94/194 83/15/83/197 
f 92/24/92/189 83/15/83/197 88/19/88/190 
f 97/30/97/201 86/18/86/200 85/20/85/202 
f 97/30/97/201 85/20/85/202 96/31/96/203 
f 98/33/98/204 99/32/99/205 100/19/100/206 
f 98/33/98/204 100/19/100/206 101/23/101/207 
f 102/34/102/208 98/33/98/204 101/23/101/207 
f 102/34/102/208 101/23/101/207 103/17/103/209 
f 100/19/100/210 92/24/92/211 91/25/91/212 
f 100/19/100/210 91/25/91/212 101/23/101/213 
f 103/17/103/214 101/23/101/213 91/25/91/212 
f 103/17/103/214 91/25/91/212 93/26/93/215 
f 94/27/94/216 104/15/104/217 105/14/105/218 
f 94/27/94/216 105/14/105/218 95/28/95/219 
f 105/14/105/218 106/16/106/220 96/29/96/221 
f 105/14/105/218 96/29/96/221 95/28/95/219 
f 107/18/107/222 103/17/103/214 93/26/93/215 
f 107/18/107/222 93/26/93/215 97/30/97/223 
f 92/24/92/211 100/19/100/210 104/15/104/217 
f 92/24/92/211 104/15/104/217 94/27/94/216 
f 106/20/106/224 107/18/107/222 97/30/97/223 
f 106/20/106/224 97/30/97/223 96/31/96/225 
f 108/35/108/226 105/14/105/227 104/15/104/228 
f 108/35/108/226 104/15/104/228 109/36/109/229 
f 110/37/110/230 106/16/106/231 105/14/105/227 
f 110/37/110/230 105/14/105/227 108/35/108/226 
f 102/34/102/208 103/17/103/209 107/18/107/232 
f 102/34/102/208 107/18/107/232 111/38/111/233 
f 109/36/109/229 104/15/104/228 100/19/100/206 
f 109/36/109/229 100/19/100/206 99/32/99/205 
f 111/38/111/233 107/18/107/232 106/20/106/234 
f 111/38/111/233 106/20/106/234 110/39/110/235 
f 44/0/44/236 43/1/43/237 112/2/112/238 
f 44/0/44/236 112/2/112/238 113/3/113/239 
f 43/1/43/237 47/4/47/240 114/5/114/241 
f 43/1/43/237 114/5/114/241 112/2/112/238 
f 50/6/50/242 49/7/49/243 115/8/115/244 
f 50/6/50/242 115/8/115/244 116/9/116/245 
f 52/10/52/246 44/0/44/236 113/3/113/239 
f 52/10/52/246 113/3/113/239 117/11/117/247 
f 47/12/47/248 50/6/50/242 116/9/116/245 
f 47/12/47/248 116/9/116/245 114/13/114/249 
f 112/2/112/250 118/14/118/251 119/15/119/252 
f 112/2/112/250 119/15/119/252 113/3/113/253 
f 114/5/114/254 120/16/120/255 118/14/118/251 
f 114/5/114/254 118/14/118/251 112/2/112/250 
f 115/8/115/256 121/17/121/257 122/18/122/258 
f 115/8/115/256 122/18/122/258 116/9/116/259 
f 113/3/113/253 119/15/119/252 123/19/123/260 
f 113/3/113/253 123/19/123/260 117/11/117/261 
f 116/9/116/259 122/18/122/258 120/20/120/262 
f 116/9/116/259 120/20/120/262 114/13/114/263 
f 117/11/117/247 124/21/124/264 60/22/60/265 
f 117/11/117/247 60/22/60/265 52/10/52/246 
f 124/21/124/264 115/8/115/244 49/7/49/243 
f 124/21/124/264 49/7/49/243 60/22/60/265 
f 124/21/124/266 117/11/117/261 123/19/123/260 
f 124/21/124/266 123/19/123/260 125/23/125/267 
f 115/8/115/256 124/21/124/266 125/23/125/267 
f 115/8/115/256 125/23/125/267 121/17/121/257 
f 123/19/123/268 126/24/126/269 127/25/127/270 
f 123/19/123/268 127/25/127/270 125/23/125/271 
f 121/17/121/272 125/23/125/271 127/25/127/270 
f 121/17/121/272 127/25/127/270 128/26/128/273 
f 129/27/129/274 119/15/119/275 118/14/118/276 
f 129/27/129/274 118/14/118/276 130/28/130/277 
f 118/14/118/276 120/16/120/278 131/29/131/279 
f 118/14/118/276 131/29/131/279 130/28/130/277 
f 122/18/122/280 121/17/121/272 128/26/128/273 
f 122/18/122/280 128/26/128/273 132/30/132/281 
f 126/24/126/269 123/19/123/268 119/15/119/275 
f 126/24/126/269 119/15/119/275 129/27/129/274 
f 120/20/120/282 122/18/122/280 132/30/132/281 
f 120/20/120/282 132/30/132/281 131/31/131/283 
f 133/19/133/284 99/32/99/285 98/33/98/286 
f 133/19/133/284 98/33/98/286 134/23/134/287 
f 134/23/134/287 98/33/98/286 102/34/102/288 
f 134/23/134/287 102/34/102/288 135/17/135/289 
f 127/25/127/290 126/24/126/291 133/19/133/292 
f 127/25/127/290 133/19/133/292 134/23/134/293 
f 135/17/135/294 128/26/128/295 127/25/127/290 
f 135/17/135/294 127/25/127/290 134/23/134/293 
f 129/27/129/296 130/28/130/297 136/14/136/298 
f 129/27/129/296 136/14/136/298 137/15/137/299 
f 131/29/131/300 138/16/138/301 136/14/136/298 
f 131/29/131/300 136/14/136/298 130/28/130/297 
f 128/26/128/295 135/17/135/294 139/18/139/302 
f 128/26/128/295 139/18/139/302 132/30/132/303 
f 126/24/126/291 129/27/129/296 137/15/137/299 
f 126/24/126/291 137/15/137/299 133/19/133/292 
f 132/30/132/303 139/18/139/302 138/20/138/304 
f 132/30/132/303 138/20/138/304 131/31/131/300 
f 137/15/137/305 136/14/136/306 108/35/108/307 
f 137/15/137/305 108/35/108/307 109/36/109/308 
f 136/14/136/306 138/16/138/309 110/37/110/310 
f 136/14/136/306 110/37/110/310 108/35/108/307 
f 139/18/139/311 135/17/135/289 102/34/102/288 
f 139/18/139/311 102/34/102/288 111/38/111/312 
f 133/19/133/284 137/15/137/305 109/36/109/308 
f 133/19/133/284 109/36/109/308 99/32/99/285 
f 138/20/138/313 139/18/139/311 111/38/111/312 
f 138/20/138/313 111/38/111/312 110/39/110/314 
