v -800.2842 674.1235 230.5978
v -809.5092 674.1235 230.5978
v -809.5093 674.1235 219.0096
v -800.2842 674.1235 219.0096
v -809.5093 687.2191 219.0096
v -809.5092 687.2191 234.0101
v -800.2842 687.2191 234.0101
v -800.2842 687.2191 219.0096
v -800.2842 676.0283 231.7647
v -809.5092 676.0283 231.7647
v -809.5092 677.0629 234.0101
v -800.2842 677.0629 234.0101
gi 0 0 0 0
gi 0 0 0 0
gi 0 0 0 0
gi 0 0 0 0
gi 0 0 0 0
gi 0 0 0 0
gi 0 0 0 0
gi 0 0 0 0
gi 0 0 0 0
gi 0 0 0 0
gi 0 0 0 0
gi 0 0 0 0
gw 0.0 0.0 0.0 0.0
gw 0.0 0.0 0.0 0.0
gw 0.0 0.0 0.0 0.0
gw 0.0 0.0 0.0 0.0
gw 0.0 0.0 0.0 0.0
gw 0.0 0.0 0.0 0.0
gw 0.0 0.0 0.0 0.0
gw 0.0 0.0 0.0 0.0
gw 0.0 0.0 0.0 0.0
gw 0.0 0.0 0.0 0.0
gw 0.0 0.0 0.0 0.0
gw 0.0 0.0 0.0 0.0
vt 0.3593 0.8072
vt 0.4143 0.8072
vt 0.4143 0.7381
vt 0.3593 0.7381
vt 0.4143 0.9839
vt 0.4143 0.8945
vt 0.3593 0.8945
vt 0.3593 0.9839
vt 0.4915 0.9031
vt 0.4224 0.9031
vt 0.4984 0.9145
vt 0.3593 0.8205
vt 0.4143 0.8205
vt 0.4346 0.8164
vt 0.4277 0.8278
vt 0.5037 0.8164
vt 0.4224 0.9812
vt 0.5118 0.9812
vt 0.4143 0.8339
vt 0.3593 0.8339
vt 0.5037 0.8945
vt 0.5118 0.9206
vn 0.6119 -0.6901 0.3865
vn -0.6119 -0.6901 0.3865
vn -0.7071 -0.7071 0.0
vn 0.7071 -0.7071 0.0
vn -0.7071 0.7071 0.0
vn -0.5773 0.5774 0.5774
vn 0.5773 0.5773 0.5774
vn 0.7071 0.7071 0.0
vn 0.7787 -0.469 0.4167
vn -0.7787 -0.469 0.4167
vn -0.6035 -0.4299 0.6715
vn 0.6035 -0.4299 0.6715
vtan -0.7909 -0.5339 0.299
vtan -0.7909 0.5339 -0.299
vtan -0.7071 0.7071 -0.0
vtan -0.7071 -0.7071 0.0
vtan -0.7071 -0.7071 -0.0
vtan -0.7716 -0.1544 -0.6171
vtan -0.8165 0.4082 0.4082
vtan -0.7071 0.7071 0.0
vtan -0.2564 0.2892 0.9223
vtan -0.0002 -0.0002 1.0
vtan -0.3565 0.2158 0.909
vtan -0.6274 -0.5821 0.5172
vtan -0.6274 0.5821 -0.5172
vtan -0.2564 -0.2892 -0.9223
vtan -0.3565 -0.2158 -0.909
vtan -0.0003 0.0002 -1.0
vtan 0.0002 -0.0002 1.0
vtan -0.4086 -0.408 0.8165
vtan -0.7597 0.0542 -0.648
vtan -0.7973 -0.3254 0.5083
vtan 0.0002 0.0002 -1.0
vtan -0.5434 0.3945 0.741
f 0/0/0/0 1/1/1/1 2/2/2/2 
f 0/0/0/0 2/2/2/2 3/3/3/3 
f 4/4/4/4 5/5/5/5 6/6/6/6 
f 4/4/4/4 6/6/6/6 7/7/7/7 
f 0/8/0/8 3/9/3/9 8/10/8/10 
f 0/0/0/0 8/11/8/11 9/12/9/12 
f 0/0/0/0 9/12/9/12 1/1/1/1 
f 1/13/1/13 9/14/9/14 2/15/2/15 
f 8/10/8/10 3/9/3/9 7/16/7/16 
f 8/10/8/10 7/16/7/16 6/17/6/17 
f 10/18/10/18 11/19/11/19 6/6/6/6 
f 10/18/10/18 6/6/6/6 5/5/5/5 
f 4/20/4/20 2/15/2/15 9/14/9/14 
f 4/20/4/20 9/14/9/14 5/5/5/5 
f 6/17/6/17 11/21/11/21 8/10/8/10 
f 11/19/11/19 10/18/10/18 9/12/9/12 
f 11/19/11/19 9/12/9/12 8/11/8/11 
f 9/14/9/14 10/18/10/18 5/5/5/5 
