v -319.1733 279.8812 199.0069
v -319.1733 280.1829 197.8808
v -279.0087 280.1829 197.8808
v -279.0087 279.8812 199.0069
v -319.1733 281.0073 197.0564
v -279.0087 281.0073 197.0564
v -319.1733 282.1334 196.7545
v -279.0087 282.1334 196.7545
v -319.1733 283.2596 197.0564
v -279.0087 283.2596 197.0564
v -319.1733 284.0839 197.8808
v -279.0087 284.0839 197.8808
v -319.1733 284.3857 199.0069
v -279.0087 284.3857 199.0069
v -319.1733 284.0839 200.1329
v -279.0087 284.0839 200.1329
v -319.1733 283.2596 200.9574
v -279.0087 283.2596 200.9574
v -319.1733 282.1334 201.259
v -279.0087 282.1334 201.259
v -319.1733 281.0073 200.9574
v -279.0087 281.0073 200.9574
v -319.1733 280.1829 200.1329
v -279.0087 280.1829 200.1329
v -359.3379 279.8812 199.0069
v -359.3379 280.1829 197.8808
v -359.3379 281.0073 197.0564
v -359.3379 282.1334 196.7545
v -359.3379 283.2596 197.0564
v -359.3379 284.0839 197.8808
v -359.3379 284.3857 199.0069
v -359.3379 284.0839 200.1329
v -359.3379 283.2596 200.9574
v -359.3379 282.1334 201.259
v -359.3379 281.0073 200.9574
v -359.3379 280.1829 200.1329
v -399.5025 279.8812 199.0069
v -399.5024 280.1829 197.8808
v -399.5024 281.0073 197.0564
v -399.5024 282.1334 196.7545
v -399.5024 283.2596 197.0564
v -399.5024 284.0839 197.8808
v -399.5024 284.3857 199.0069
v -399.5024 284.0839 200.1329
v -399.5024 283.2596 200.9574
v -399.5024 282.1334 201.259
v -399.5024 281.0073 200.9574
v -399.5024 280.1829 200.1329
v -433.9472 279.8812 199.0069
v -433.9472 280.1829 197.8808
v -433.9472 281.0073 197.0564
v -433.9472 282.1334 196.7545
v -433.9472 283.2596 197.0564
v -433.9472 284.0839 197.8808
v -433.9472 284.3857 199.0069
v -433.9472 284.0839 200.1329
v -433.9472 283.2596 200.9574
v -433.9472 282.1334 201.259
v -433.9472 281.0073 200.9574
v -433.9472 280.1829 200.1329
v -588.8858 280.1829 197.8808
v -548.7212 280.1829 197.8808
v -548.7212 279.8812 199.0069
v -588.8858 279.8812 199.0069
v -588.8858 281.0073 197.0564
v -548.7212 281.0073 197.0564
v -588.8858 282.1334 196.7545
v -548.7212 282.1334 196.7545
v -588.8858 283.2596 197.0564
v -548.7212 283.2596 197.0564
v -588.8858 284.0839 197.8808
v -548.7212 284.0839 197.8808
v -588.8858 284.3857 199.0069
v -548.7212 284.3857 199.0069
v -588.8858 284.0839 200.1329
v -548.7212 284.0839 200.1329
v -588.8858 283.2596 200.9574
v -548.7212 283.2596 200.9574
v -588.8858 282.1334 201.259
v -548.7212 282.1334 201.259
v -588.8858 281.0073 200.9574
v -548.7212 281.0073 200.9574
v -588.8858 280.1829 200.1329
v -548.7212 280.1829 200.1329
v -508.5566 280.1829 197.8808
v -508.5566 279.8812 199.0069
v -508.5566 281.0073 197.0564
v -508.5566 282.1334 196.7545
v -508.5566 283.2596 197.0564
v -508.5566 284.0839 197.8808
v -508.5566 284.3857 199.0069
v -508.5566 284.0839 200.1329
v -508.5566 283.2596 200.9574
v -508.5566 282.1334 201.259
v -508.5566 281.0073 200.9574
v -508.5566 280.1829 200.1329
v -468.392 280.1829 197.8808
v -468.392 279.8812 199.0069
v -468.392 281.0073 197.0564
v -468.392 282.1334 196.7545
v -468.392 283.2596 197.0564
v -468.392 284.0839 197.8808
v -468.392 284.3857 199.0069
v -468.392 284.0839 200.1329
v -468.392 283.2596 200.9574
v -468.392 282.1334 201.259
v -468.392 281.0073 200.9574
v -468.392 280.1829 200.1329
gi 0 0 0 0
gi 0 0 0 0
gi 0 0 0 0
gi 0 0 0 0
gi 0 0 0 0
gi 0 0 0 0
gi 0 0 0 0
gi 0 0 0 0
gi 0 0 0 0
gi 0 0 0 0
gi 0 0 0 0
gi 0 0 0 0
gi 0 0 0 0
gi 0 0 0 0
gi 0 0 0 0
gi 0 0 0 0
gi 0 0 0 0
gi 0 0 0 0
gi 0 0 0 0
gi 0 0 0 0
gi 0 0 0 0
gi 0 0 0 0
gi 0 0 0 0
gi 0 0 0 0
gi 0 0 0 0
gi 0 0 0 0
gi 0 0 0 0
gi 0 0 0 0
gi 0 0 0 0
gi 0 0 0 0
gi 0 0 0 0
gi 0 0 0 0
gi 0 0 0 0
gi 0 0 0 0
gi 0 0 0 0
gi 0 0 0 0
gi 0 0 0 0
gi 0 0 0 0
gi 0 0 0 0
gi 0 0 0 0
gi 0 0 0 0
gi 0 0 0 0
gi 0 0 0 0
gi 0 0 0 0
gi 0 0 0 0
gi 0 0 0 0
gi 0 0 0 0
gi 0 0 0 0
gi 0 0 0 0
gi 0 0 0 0
gi 0 0 0 0
gi 0 0 0 0
gi 0 0 0 0
gi 0 0 0 0
gi 0 0 0 0
gi 0 0 0 0
gi 0 0 0 0
gi 0 0 0 0
gi 0 0 0 0
gi 0 0 0 0
gi 0 0 0 0
gi 0 0 0 0
gi 0 0 0 0
gi 0 0 0 0
gi 0 0 0 0
gi 0 0 0 0
gi 0 0 0 0
gi 0 0 0 0
gi 0 0 0 0
gi 0 0 0 0
gi 0 0 0 0
gi 0 0 0 0
gi 0 0 0 0
gi 0 0 0 0
gi 0 0 0 0
gi 0 0 0 0
gi 0 0 0 0
gi 0 0 0 0
gi 0 0 0 0
gi 0 0 0 0
gi 0 0 0 0
gi 0 0 0 0
gi 0 0 0 0
gi 0 0 0 0
gi 0 0 0 0
gi 0 0 0 0
gi 0 0 0 0
gi 0 0 0 0
gi 0 0 0 0
gi 0 0 0 0
gi 0 0 0 0
gi 0 0 0 0
gi 0 0 0 0
gi 0 0 0 0
gi 0 0 0 0
gi 0 0 0 0
gi 0 0 0 0
gi 0 0 0 0
gi 0 0 0 0
gi 0 0 0 0
gi 0 0 0 0
gi 0 0 0 0
gi 0 0 0 0
gi 0 0 0 0
gi 0 0 0 0
gi 0 0 0 0
gi 0 0 0 0
gi 0 0 0 0
gw 0.0 0.0 0.0 0.0
gw 0.0 0.0 0.0 0.0
gw 0.0 0.0 0.0 0.0
gw 0.0 0.0 0.0 0.0
gw 0.0 0.0 0.0 0.0
gw 0.0 0.0 0.0 0.0
gw 0.0 0.0 0.0 0.0
gw 0.0 0.0 0.0 0.0
gw 0.0 0.0 0.0 0.0
gw 0.0 0.0 0.0 0.0
gw 0.0 0.0 0.0 0.0
gw 0.0 0.0 0.0 0.0
gw 0.0 0.0 0.0 0.0
gw 0.0 0.0 0.0 0.0
gw 0.0 0.0 0.0 0.0
gw 0.0 0.0 0.0 0.0
gw 0.0 0.0 0.0 0.0
gw 0.0 0.0 0.0 0.0
gw 0.0 0.0 0.0 0.0
gw 0.0 0.0 0.0 0.0
gw 0.0 0.0 0.0 0.0
gw 0.0 0.0 0.0 0.0
gw 0.0 0.0 0.0 0.0
gw 0.0 0.0 0.0 0.0
gw 0.0 0.0 0.0 0.0
gw 0.0 0.0 0.0 0.0
gw 0.0 0.0 0.0 0.0
gw 0.0 0.0 0.0 0.0
gw 0.0 0.0 0.0 0.0
gw 0.0 0.0 0.0 0.0
gw 0.0 0.0 0.0 0.0
gw 0.0 0.0 0.0 0.0
gw 0.0 0.0 0.0 0.0
gw 0.0 0.0 0.0 0.0
gw 0.0 0.0 0.0 0.0
gw 0.0 0.0 0.0 0.0
gw 0.0 0.0 0.0 0.0
gw 0.0 0.0 0.0 0.0
gw 0.0 0.0 0.0 0.0
gw 0.0 0.0 0.0 0.0
gw 0.0 0.0 0.0 0.0
gw 0.0 0.0 0.0 0.0
gw 0.0 0.0 0.0 0.0
gw 0.0 0.0 0.0 0.0
gw 0.0 0.0 0.0 0.0
gw 0.0 0.0 0.0 0.0
gw 0.0 0.0 0.0 0.0
gw 0.0 0.0 0.0 0.0
gw 0.0 0.0 0.0 0.0
gw 0.0 0.0 0.0 0.0
gw 0.0 0.0 0.0 0.0
gw 0.0 0.0 0.0 0.0
gw 0.0 0.0 0.0 0.0
gw 0.0 0.0 0.0 0.0
gw 0.0 0.0 0.0 0.0
gw 0.0 0.0 0.0 0.0
gw 0.0 0.0 0.0 0.0
gw 0.0 0.0 0.0 0.0
gw 0.0 0.0 0.0 0.0
gw 0.0 0.0 0.0 0.0
gw 0.0 0.0 0.0 0.0
gw 0.0 0.0 0.0 0.0
gw 0.0 0.0 0.0 0.0
gw 0.0 0.0 0.0 0.0
gw 0.0 0.0 0.0 0.0
gw 0.0 0.0 0.0 0.0
gw 0.0 0.0 0.0 0.0
gw 0.0 0.0 0.0 0.0
gw 0.0 0.0 0.0 0.0
gw 0.0 0.0 0.0 0.0
gw 0.0 0.0 0.0 0.0
gw 0.0 0.0 0.0 0.0
gw 0.0 0.0 0.0 0.0
gw 0.0 0.0 0.0 0.0
gw 0.0 0.0 0.0 0.0
gw 0.0 0.0 0.0 0.0
gw 0.0 0.0 0.0 0.0
gw 0.0 0.0 0.0 0.0
gw 0.0 0.0 0.0 0.0
gw 0.0 0.0 0.0 0.0
gw 0.0 0.0 0.0 0.0
gw 0.0 0.0 0.0 0.0
gw 0.0 0.0 0.0 0.0
gw 0.0 0.0 0.0 0.0
gw 0.0 0.0 0.0 0.0
gw 0.0 0.0 0.0 0.0
gw 0.0 0.0 0.0 0.0
gw 0.0 0.0 0.0 0.0
gw 0.0 0.0 0.0 0.0
gw 0.0 0.0 0.0 0.0
gw 0.0 0.0 0.0 0.0
gw 0.0 0.0 0.0 0.0
gw 0.0 0.0 0.0 0.0
gw 0.0 0.0 0.0 0.0
gw 0.0 0.0 0.0 0.0
gw 0.0 0.0 0.0 0.0
gw 0.0 0.0 0.0 0.0
gw 0.0 0.0 0.0 0.0
gw 0.0 0.0 0.0 0.0
gw 0.0 0.0 0.0 0.0
gw 0.0 0.0 0.0 0.0
gw 0.0 0.0 0.0 0.0
gw 0.0 0.0 0.0 0.0
gw 0.0 0.0 0.0 0.0
gw 0.0 0.0 0.0 0.0
gw 0.0 0.0 0.0 0.0
gw 0.0 0.0 0.0 0.0
gw 0.0 0.0 0.0 0.0
vt 0.9876 0.5241
vt 0.9633 0.5241
vt 0.9633 0.0053
vt 0.9876 0.0053
vt 0.9391 0.5241
vt 0.9391 0.0053
vt 0.9148 0.5241
vt 0.9148 0.0053
vt 0.8906 0.5241
vt 0.8906 0.0053
vt 0.8663 0.5241
vt 0.8663 0.0053
vt 0.8421 0.5241
vt 0.8421 0.0053
vt 0.8178 0.5241
vt 0.8178 0.0053
vt 0.7936 0.5241
vt 0.7936 0.0053
vt 0.7694 0.5241
vt 0.7694 0.0053
vt 0.7451 0.5241
vt 0.7451 0.0053
vt 0.7209 0.5241
vt 0.7209 0.0053
vt 0.6966 0.5241
vt 0.6966 0.0053
vt 0.9876 0.4502
vt 0.9633 0.4502
vt 0.9391 0.4502
vt 0.9148 0.4502
vt 0.8906 0.4502
vt 0.8663 0.4502
vt 0.8421 0.4502
vt 0.8178 0.4502
vt 0.7936 0.4502
vt 0.7694 0.4502
vt 0.7451 0.4502
vt 0.7209 0.4502
vt 0.6966 0.4502
vn 0.0 -1.0 0.0
vn 0.0 -0.866 -0.5
vn 0.0 -0.866 -0.5
vn 0.0 -1.0 0.0
vn 0.0 -0.5 -0.866
vn 0.0 -0.5 -0.866
vn 0.0 -0.0 -1.0
vn 0.0 -0.0 -1.0
vn 0.0 0.5 -0.866
vn 0.0 0.5 -0.866
vn 0.0 0.866 -0.5
vn 0.0 0.866 -0.5
vn 0.0 1.0 0.0
vn 0.0 1.0 -0.0
vn 0.0 0.866 0.5
vn 0.0 0.866 0.5
vn 0.0 0.5 0.866
vn 0.0 0.5 0.866
vn 0.0 -0.0 1.0
vn 0.0 -0.0 1.0
vn 0.0 -0.5 0.866
vn 0.0 -0.5 0.866
vn 0.0 -0.866 0.5
vn 0.0 -0.866 0.5
vn 0.0 -1.0 -0.0
vn 0.0 -0.866 -0.5
vn 0.0 -0.5 -0.866
vn 0.0 -0.0 -1.0
vn 0.0 0.5 -0.866
vn 0.0 0.866 -0.5
vn 0.0 1.0 0.0
vn 0.0 0.866 0.5
vn 0.0 0.5 0.866
vn 0.0 -0.0 1.0
vn 0.0 -0.5 0.866
vn 0.0 -0.866 0.5
vn 0.0 -1.0 0.0
vn 0.0 -0.866 -0.5
vn 0.0 -0.5 -0.866
vn 0.0 -0.0 -1.0
vn 0.0 0.5001 -0.866
vn 0.0 0.866 -0.5
vn 0.0 1.0 -0.0
vn 0.0 0.866 0.5
vn 0.0 0.5 0.866
vn 0.0 -0.0 1.0
vn 0.0 -0.5 0.866
vn 0.0 -0.866 0.5
vn 0.0 -1.0 -0.0
vn 0.0 -0.866 -0.5
vn 0.0 -0.5 -0.866
vn 0.0 -0.0 -1.0
vn 0.0 0.5 -0.866
vn 0.0 0.866 -0.5
vn 0.0 1.0 0.0
vn 0.0 0.866 0.5
vn 0.0 0.5 0.866
vn 0.0 -0.0 1.0
vn 0.0 -0.5 0.866
vn 0.0 -0.866 0.5
vn 0.0 -0.866 -0.5
vn 0.0 -0.866 -0.5
vn 0.0 -1.0 0.0
vn 0.0 -1.0 0.0
vn 0.0 -0.5 -0.866
vn 0.0 -0.5 -0.866
vn 0.0 -0.0 -1.0
vn 0.0 0.5 -0.866
vn 0.0 0.5 -0.866
vn 0.0 0.866 -0.5
vn 0.0 0.866 -0.5
vn 0.0 1.0 -0.0
vn 0.0 1.0 0.0
vn 0.0 0.866 0.5
vn 0.0 0.866 0.5
vn 0.0 0.5 0.866
vn 0.0 -0.0 1.0
vn 0.0 -0.0 1.0
vn 0.0 -0.5 0.866
vn 0.0 -0.5 0.866
vn 0.0 -0.866 0.5
vn 0.0 -0.866 0.5
vn 0.0 -0.866 -0.5
vn 0.0 -1.0 -0.0
vn 0.0 -0.5 -0.866
vn 0.0 -0.0 -1.0
vn 0.0 0.5 -0.866
vn 0.0 0.866 -0.5
vn 0.0 1.0 0.0
vn 0.0 0.866 0.5
vn 0.0 0.5 0.866
vn 0.0 -0.0 1.0
vn 0.0 -0.5 0.866
vn 0.0 -0.866 0.5
vn 0.0 -0.866 -0.5
vn 0.0 -1.0 0.0
vn 0.0 -0.5 -0.866
vn 0.0 -0.0 -1.0
vn 0.0 0.5 -0.866
vn 0.0 0.866 -0.5
vn 0.0 1.0 0.0
vn 0.0 0.866 0.5
vn 0.0 0.5 0.866
vn 0.0 -0.0 1.0
vn 0.0 -0.5 0.866
vn 0.0 -0.866 0.5
vtan 0.0 0.0 1.0
vtan 0.0 -0.5 0.866
vtan 0.0 -0.5 0.866
vtan 0.0 0.0 1.0
vtan 0.0 -0.866 0.5
vtan 0.0 -0.866 0.5
vtan 0.0 -1.0 0.0
vtan 0.0 -1.0 0.0
vtan 0.0 -0.866 -0.5
vtan 0.0 -0.866 -0.5
vtan 0.0 -0.5 -0.866
vtan 0.0 -0.5 -0.866
vtan 0.0 0.0 -1.0
vtan 0.0 -0.0 -1.0
vtan 0.0 0.5 -0.866
vtan 0.0 0.5 -0.866
vtan 0.0 0.866 -0.5
vtan 0.0 0.866 -0.5
vtan 0.0 1.0 0.0
vtan 0.0 1.0 0.0
vtan 0.0 0.866 0.5
vtan 0.0 0.866 0.5
vtan 0.0 0.5 0.866
vtan 0.0 0.5 0.866
vtan 0.0 0.0 1.0
vtan 0.0 0.0 1.0
vtan 0.0 -0.0 1.0
vtan 0.0 -0.5 0.866
vtan 0.0 -0.866 0.5
vtan 0.0 -1.0 0.0
vtan 0.0 -0.866 -0.5
vtan 0.0 -0.5 -0.866
vtan 0.0 0.0 -1.0
vtan 0.0 0.5 -0.866
vtan 0.0 0.5 -0.866
vtan 0.0 0.866 -0.5
vtan 0.0 1.0 0.0
vtan 0.0 0.866 0.5
vtan 0.0 0.866 0.5
vtan 0.0 0.5 0.866
vtan 0.0 0.5 0.866
vtan 0.0 -0.0 1.0
vtan -0.0001 0.0 1.0
vtan -0.0 -0.5 0.866
vtan -0.0 -0.5 0.866
vtan 0.0 -0.866 0.5
vtan 0.0 -1.0 0.0
vtan 0.0 -1.0 0.0
vtan 0.0 -0.866 -0.5001
vtan 0.0 -0.5 -0.866
vtan 0.0 -0.0 -1.0
vtan 0.0 0.0 -1.0
vtan 0.0 0.5 -0.866
vtan 0.0 0.5 -0.866
vtan 0.0 0.866 -0.5
vtan 0.0 1.0 0.0
vtan 0.0 0.866 0.5
vtan 0.0 0.5 0.866
vtan 0.0001 0.0 1.0
vtan 0.0 -0.0 1.0
vtan -0.0 -0.0 1.0
vtan 0.0 -0.5 0.866
vtan -0.0 -0.5 0.866
vtan -0.0001 0.0 1.0
vtan 0.0 -0.866 0.5
vtan 0.0 -1.0 0.0
vtan 0.0 -0.866 -0.5
vtan 0.0 -0.5 -0.866
vtan 0.0 -0.5 -0.866
vtan 0.0 0.0 -1.0
vtan 0.0 0.5 -0.866
vtan 0.0 0.866 -0.5
vtan 0.0 1.0 0.0
vtan 0.0 1.0 0.0
vtan 0.0 0.866 0.5
vtan 0.0 0.866 0.5
vtan 0.0 0.5 0.866
vtan 0.0 0.5 0.866
vtan 0.0 -0.0 1.0
vtan 0.0001 0.0 1.0
vtan 0.0 -0.5 0.866
vtan 0.0 -0.5 0.866
vtan 0.0 0.0 1.0
vtan 0.0 -0.866 0.5
vtan 0.0 -0.866 0.5
vtan 0.0 -0.866 -0.5
vtan 0.0 -0.866 -0.5
vtan 0.0 -0.5 -0.866
vtan 0.0 -0.5 -0.866
vtan 0.0 0.5 -0.866
vtan 0.0 0.5 -0.866
vtan 0.0 0.866 -0.5
vtan 0.0 1.0 0.0
vtan 0.0 0.866 0.5
vtan 0.0 0.866 0.5
vtan 0.0 0.5 0.866
vtan 0.0 0.5 0.866
vtan 0.0 0.0 1.0
vtan 0.0 -0.5 0.866
vtan 0.0 -0.0 1.0
vtan 0.0 -0.866 0.5
vtan 0.0 -1.0 0.0
vtan 0.0 -0.866 -0.5
vtan 0.0 -0.5 -0.866
vtan 0.0 0.5 -0.866
vtan 0.0 0.866 -0.5
vtan 0.0 1.0 0.0
vtan 0.0 0.866 0.5
vtan 0.0 0.5 0.866
vtan 0.0 0.5 0.866
vtan 0.0 -0.0 1.0
vtan 0.0 -0.5 0.866
vtan 0.0 0.0 1.0
vtan 0.0 -0.866 0.5
vtan 0.0 -1.0 0.0
vtan 0.0 -0.866 -0.5
vtan 0.0 -0.5 -0.866
vtan 0.0 0.0 -1.0
vtan 0.0 0.5 -0.866
vtan 0.0 0.866 -0.5
vtan 0.0 0.866 -0.5
vtan 0.0 1.0 0.0
vtan 0.0 0.866 0.5
vtan 0.0 0.5 0.866
vtan 0.0 0.0 1.0
vtan 0.0 -0.0 1.0
vtan 0.0 0.0 1.0
vtan 0.0 -0.5 -0.866
vtan 0.0 0.866 -0.5
vtan 0.0 0.5 0.866
vtan 0.0 0.0 1.0
f 0/0/0/0 1/1/1/1 2/2/2/2 
f 0/0/0/0 2/2/2/2 3/3/3/3 
f 1/1/1/1 4/4/4/4 5/5/5/5 
f 1/1/1/1 5/5/5/5 2/2/2/2 
f 4/4/4/4 6/6/6/6 7/7/7/7 
f 4/4/4/4 7/7/7/7 5/5/5/5 
f 6/6/6/6 8/8/8/8 9/9/9/9 
f 6/6/6/6 9/9/9/9 7/7/7/7 
f 8/8/8/8 10/10/10/10 11/11/11/11 
f 8/8/8/8 11/11/11/11 9/9/9/9 
f 10/10/10/10 12/12/12/12 13/13/13/13 
f 10/10/10/10 13/13/13/13 11/11/11/11 
f 12/12/12/12 14/14/14/14 15/15/15/15 
f 12/12/12/12 15/15/15/15 13/13/13/13 
f 14/14/14/14 16/16/16/16 17/17/17/17 
f 14/14/14/14 17/17/17/17 15/15/15/15 
f 16/16/16/16 18/18/18/18 19/19/19/19 
f 16/16/16/16 19/19/19/19 17/17/17/17 
f 18/18/18/18 20/20/20/20 21/21/21/21 
f 18/18/18/18 21/21/21/21 19/19/19/19 
f 20/20/20/20 22/22/22/22 23/23/23/23 
f 20/20/20/20 23/23/23/23 21/21/21/21 
f 22/22/22/22 0/24/0/24 3/25/3/25 
f 22/22/22/22 3/25/3/25 23/23/23/23 
f 1/2/1/1 0/3/0/0 24/0/24/26 
f 1/2/1/1 24/0/24/26 25/1/25/27 
f 25/1/25/27 26/4/26/28 4/5/4/4 
f 25/1/25/27 4/5/4/4 1/2/1/1 
f 26/4/26/28 27/6/27/29 6/7/6/6 
f 26/4/26/28 6/7/6/6 4/5/4/4 
f 27/6/27/29 28/8/28/30 8/9/8/8 
f 27/6/27/29 8/9/8/8 6/7/6/6 
f 28/8/28/30 29/10/29/31 10/11/10/10 
f 28/8/28/30 10/11/10/10 8/9/8/8 
f 29/10/29/31 30/12/30/32 12/13/12/12 
f 29/10/29/31 12/13/12/12 10/11/10/10 
f 30/12/30/32 31/14/31/33 14/15/14/34 
f 30/12/30/32 14/15/14/34 12/13/12/12 
f 31/14/31/33 32/16/32/35 16/17/16/16 
f 31/14/31/33 16/17/16/16 14/15/14/34 
f 32/16/32/35 33/18/33/36 18/19/18/18 
f 32/16/32/35 18/19/18/18 16/17/16/16 
f 33/18/33/36 34/20/34/37 20/21/20/38 
f 33/18/33/36 20/21/20/38 18/19/18/18 
f 34/20/34/37 35/22/35/39 22/23/22/40 
f 34/20/34/37 22/23/22/40 20/21/20/38 
f 0/25/0/24 22/23/22/40 35/22/35/39 
f 0/25/0/24 35/22/35/39 24/24/24/41 
f 36/0/36/42 37/1/37/43 25/2/25/44 
f 36/0/36/42 25/2/25/44 24/3/24/26 
f 37/1/37/43 38/4/38/45 26/5/26/28 
f 37/1/37/43 26/5/26/28 25/2/25/44 
f 38/4/38/45 39/6/39/46 27/7/27/47 
f 38/4/38/45 27/7/27/47 26/5/26/28 
f 39/6/39/46 40/8/40/48 28/9/28/30 
f 39/6/39/46 28/9/28/30 27/7/27/47 
f 40/8/40/48 41/10/41/49 29/11/29/31 
f 40/8/40/48 29/11/29/31 28/9/28/30 
f 41/10/41/49 42/12/42/50 30/13/30/51 
f 41/10/41/49 30/13/30/51 29/11/29/31 
f 42/12/42/50 43/14/43/52 31/15/31/53 
f 42/12/42/50 31/15/31/53 30/13/30/51 
f 43/14/43/52 44/16/44/54 32/17/32/35 
f 43/14/43/52 32/17/32/35 31/15/31/53 
f 44/16/44/54 45/18/45/55 33/19/33/36 
f 44/16/44/54 33/19/33/36 32/17/32/35 
f 45/18/45/55 46/20/46/56 34/21/34/37 
f 45/18/45/55 34/21/34/37 33/19/33/36 
f 46/20/46/56 47/22/47/57 35/23/35/39 
f 46/20/46/56 35/23/35/39 34/21/34/37 
f 47/22/47/57 36/24/36/58 24/25/24/59 
f 47/22/47/57 24/25/24/59 35/23/35/39 
f 48/26/48/60 49/27/49/61 37/2/37/62 
f 48/26/48/60 37/2/37/62 36/3/36/63 
f 49/27/49/61 50/28/50/64 38/5/38/45 
f 49/27/49/61 38/5/38/45 37/2/37/62 
f 50/28/50/64 51/29/51/65 39/7/39/46 
f 50/28/50/64 39/7/39/46 38/5/38/45 
f 51/29/51/65 52/30/52/66 40/9/40/48 
f 51/29/51/65 40/9/40/48 39/7/39/46 
f 52/30/52/66 53/31/53/67 41/11/41/68 
f 52/30/52/66 41/11/41/68 40/9/40/48 
f 53/31/53/67 54/32/54/69 42/13/42/50 
f 53/31/53/67 42/13/42/50 41/11/41/68 
f 54/32/54/69 55/33/55/70 43/15/43/52 
f 54/32/54/69 43/15/43/52 42/13/42/50 
f 55/33/55/70 56/34/56/71 44/17/44/54 
f 55/33/55/70 44/17/44/54 43/15/43/52 
f 56/34/56/71 57/35/57/72 45/19/45/73 
f 56/34/56/71 45/19/45/73 44/17/44/54 
f 57/35/57/72 58/36/58/74 46/21/46/75 
f 57/35/57/72 46/21/46/75 45/19/45/73 
f 58/36/58/74 59/37/59/76 47/23/47/77 
f 58/36/58/74 47/23/47/77 46/21/46/75 
f 59/37/59/76 48/38/48/78 36/25/36/79 
f 59/37/59/76 36/25/36/79 47/23/47/77 
f 60/2/60/80 61/1/61/81 62/0/62/82 
f 60/2/60/80 62/0/62/82 63/3/63/3 
f 64/5/64/83 65/4/65/84 61/1/61/81 
f 64/5/64/83 61/1/61/81 60/2/60/80 
f 66/7/7/7 67/6/66/6 65/4/65/84 
f 66/7/7/7 65/4/65/84 64/5/64/83 
f 68/9/67/85 69/8/68/86 67/6/66/6 
f 68/9/67/85 67/6/66/6 66/7/7/7 
f 70/11/69/87 71/10/70/88 69/8/68/86 
f 70/11/69/87 69/8/68/86 68/9/67/85 
f 72/13/71/13 73/12/72/12 71/10/70/88 
f 72/13/71/13 71/10/70/88 70/11/69/87 
f 74/15/73/89 75/14/74/90 73/12/72/12 
f 74/15/73/89 73/12/72/12 72/13/71/13 
f 76/17/75/91 77/16/44/54 75/14/74/90 
f 76/17/75/91 75/14/74/90 74/15/73/89 
f 78/19/76/19 79/18/77/92 77/16/44/54 
f 78/19/76/19 77/16/44/54 76/17/75/91 
f 80/21/78/93 81/20/79/94 79/18/77/92 
f 80/21/78/93 79/18/77/92 78/19/76/19 
f 82/23/80/95 83/22/81/96 81/20/79/94 
f 82/23/80/95 81/20/79/94 80/21/78/93 
f 63/25/63/25 62/24/62/97 83/22/81/96 
f 63/25/63/25 83/22/81/96 82/23/80/95 
f 61/2/61/81 84/1/82/98 85/0/83/99 
f 61/2/61/81 85/0/83/99 62/3/62/82 
f 65/5/65/84 86/4/84/100 84/1/82/98 
f 65/5/65/84 84/1/82/98 61/2/61/81 
f 67/7/66/6 87/6/85/101 86/4/84/100 
f 67/7/66/6 86/4/84/100 65/5/65/84 
f 69/9/68/86 88/8/86/102 87/6/85/101 
f 69/9/68/86 87/6/85/101 67/7/66/6 
f 71/11/70/88 89/10/87/103 88/8/86/102 
f 71/11/70/88 88/8/86/102 69/9/68/86 
f 73/13/72/12 90/12/88/12 89/10/87/103 
f 73/13/72/12 89/10/87/103 71/11/70/88 
f 75/15/74/90 91/14/89/104 90/12/88/12 
f 75/15/74/90 90/12/88/12 73/13/72/12 
f 77/17/44/54 92/16/90/105 91/14/89/104 
f 77/17/44/54 91/14/89/104 75/15/74/90 
f 79/19/77/92 93/18/91/106 92/16/90/105 
f 79/19/77/92 92/16/90/105 77/17/44/54 
f 81/21/79/94 94/20/92/107 93/18/91/106 
f 81/21/79/94 93/18/91/106 79/19/77/92 
f 83/23/81/108 95/22/93/109 94/20/92/107 
f 83/23/81/108 94/20/92/107 81/21/79/94 
f 62/25/62/97 85/24/83/110 95/22/93/109 
f 62/25/62/97 95/22/93/109 83/23/81/108 
f 84/2/82/98 96/1/94/111 97/0/95/112 
f 84/2/82/98 97/0/95/112 85/3/83/99 
f 86/5/84/100 98/4/96/113 96/1/94/111 
f 86/5/84/100 96/1/94/111 84/2/82/98 
f 87/7/85/101 99/6/97/114 98/4/96/113 
f 87/7/85/101 98/4/96/113 86/5/84/100 
f 88/9/86/102 100/8/98/115 99/6/97/114 
f 88/9/86/102 99/6/97/114 87/7/85/101 
f 89/11/87/103 101/10/99/116 100/8/98/115 
f 89/11/87/103 100/8/98/115 88/9/86/102 
f 90/13/88/12 102/12/100/117 101/10/99/116 
f 90/13/88/12 101/10/99/116 89/11/87/103 
f 91/15/89/104 103/14/101/118 102/12/100/117 
f 91/15/89/104 102/12/100/117 90/13/88/12 
f 92/17/90/119 104/16/102/120 103/14/101/118 
f 92/17/90/119 103/14/101/118 91/15/89/104 
f 93/19/91/106 105/18/103/121 104/16/102/120 
f 93/19/91/106 104/16/102/120 92/17/90/119 
f 94/21/92/107 106/20/104/122 105/18/103/121 
f 94/21/92/107 105/18/103/121 93/19/91/106 
f 95/23/93/109 107/22/105/123 106/20/104/122 
f 95/23/93/109 106/20/104/122 94/21/92/107 
f 85/25/83/110 97/24/95/124 107/22/105/123 
f 85/25/83/110 107/22/105/123 95/23/93/109 
f 96/2/94/111 49/27/49/61 48/26/48/125 
f 96/2/94/111 48/26/48/125 97/3/95/126 
f 98/5/96/113 50/28/50/64 49/27/49/61 
f 98/5/96/113 49/27/49/61 96/2/94/111 
f 99/7/97/114 51/29/51/65 50/28/50/64 
f 99/7/97/114 50/28/50/64 98/5/96/113 
f 100/9/98/115 52/30/52/66 51/29/51/65 
f 100/9/98/115 51/29/51/65 99/7/97/114 
f 101/11/99/127 53/31/53/67 52/30/52/66 
f 101/11/99/127 52/30/52/66 100/9/98/115 
f 102/13/100/117 54/32/54/69 53/31/53/67 
f 102/13/100/117 53/31/53/67 101/11/99/127 
f 103/15/101/118 55/33/55/70 54/32/54/69 
f 103/15/101/118 54/32/54/69 102/13/100/117 
f 104/17/102/128 56/34/56/71 55/33/55/70 
f 104/17/102/128 55/33/55/70 103/15/101/118 
f 105/19/103/121 57/35/57/72 56/34/56/71 
f 105/19/103/121 56/34/56/71 104/17/102/128 
f 106/21/104/122 58/36/58/74 57/35/57/72 
f 106/21/104/122 57/35/57/72 105/19/103/121 
f 107/23/105/123 59/37/59/129 58/36/58/74 
f 107/23/105/123 58/36/58/74 106/21/104/122 
f 97/25/95/130 48/38/48/78 59/37/59/129 
f 97/25/95/130 59/37/59/129 107/23/105/123 
