v 816.3393 220.9971 -239.9911
v 848.7258 220.9971 -239.9911
v 872.0224 220.997 -263.2878
v 872.0224 220.9971 -316.8692
v 816.3393 220.9971 -316.8692
v 816.3393 212.9782 -316.8692
v 872.0224 212.9782 -316.8692
v 872.0224 207.888 -316.8692
v 816.3393 207.888 -316.8692
v 816.3393 212.9782 -239.9911
v 816.3393 207.888 -239.9911
v 818.824 204.0866 -314.6789
v 818.824 204.0866 -242.1814
v 850.9161 204.0866 -242.1815
v 848.7258 207.888 -239.9911
v 825.1035 201.1721 -309.1433
v 825.1035 201.1721 -247.717
v 872.0224 204.0866 -314.6789
v 872.0224 201.1721 -309.1433
v 848.0438 186.6514 -252.3706
v 830.8787 186.6514 -267.4776
v 830.8787 -2.4607 -267.4776
v 848.0438 -2.4607 -252.3706
v 830.8787 186.6514 -288.8421
v 830.8787 -2.4607 -288.8421
v 848.0438 186.6514 -303.949
v 848.0438 -2.4606 -303.949
v 872.0224 186.6514 -303.949
v 872.0224 -2.4606 -303.949
v 847.3026 192.5002 -250.7961
v 829.0898 192.5002 -266.8254
v 830.8787 191.226 -267.4776
v 848.0438 191.226 -252.3706
v 829.0898 192.5002 -289.4942
v 830.8787 191.226 -288.8421
v 847.3026 192.5002 -305.5235
v 848.0438 191.226 -303.949
v 872.0224 192.5002 -305.5235
v 872.0224 191.226 -303.949
v 846.9869 199.2605 -250.125
v 828.3272 199.2605 -266.5475
v 830.3276 196.3225 -267.2767
v 847.8154 196.3225 -251.8857
v 828.3272 199.2605 -289.7722
v 830.3276 196.3225 -289.0429
v 846.9869 199.2605 -306.1946
v 847.8154 196.3225 -304.4339
v 872.0224 199.2605 -306.1946
v 872.0224 196.3225 -304.4339
v 858.8597 199.2605 -250.125
v 856.4516 201.1721 -247.717
v 861.1053 186.6514 -252.3706
v 858.6102 188.9386 -249.8755
v 846.8694 188.9388 -249.8755
v 828.0436 188.9388 -266.4441
v 828.0436 188.9388 -289.8756
v 846.8694 188.9388 -306.4441
v 861.1053 191.226 -252.3706
v 860.4815 193.7742 -251.7469
v 860.6203 196.3225 -251.8857
v 847.7499 193.7742 -251.7469
v 830.17 193.7742 -267.2192
v 830.17 193.7742 -289.1004
v 847.7499 193.7742 -304.5728
v 859.5307 192.5002 -250.7961
v 817.3942 215.2094 -315.9406
v 872.0224 215.2094 -315.9406
v 872.0224 212.9782 -315.9406
v 817.3942 212.9782 -315.9406
v 817.3942 215.2094 -240.9197
v 817.3942 212.9782 -240.9197
v 848.7258 215.2094 -239.9911
v 816.3393 215.2094 -239.9911
v 816.3393 215.2094 -316.8692
v 849.6544 215.2094 -240.9197
v 872.0224 188.9386 -306.4441
v 872.0224 193.7742 -304.5728
v 872.0224 215.2094 -316.8692
v 896.001 186.6514 -303.949
v 896.001 -2.4606 -303.949
v 896.001 191.226 -303.949
v 896.7422 192.5002 -305.5235
v 896.2293 196.3225 -304.4339
v 897.0579 199.2605 -306.1946
v 897.1752 188.9388 -306.4441
v 906.751 188.9388 -298.0164
v 904.8743 186.6514 -296.1397
v 904.8743 191.226 -296.1397
v 905.2391 196.3225 -296.5045
v 905.3436 193.7742 -296.6089
v 896.2949 193.7742 -304.5728
v 906.0587 192.5002 -297.3241
v 925.6038 207.888 -316.8692
v 923.4135 204.0866 -314.6789
v 917.878 201.1721 -309.1433
v 917.7123 201.0647 -308.9778
v 925.6038 220.9971 -316.8692
v 925.6038 215.2094 -316.8692
v 924.6752 215.2094 -315.9406
v 848.7258 212.9782 -239.9911
v 861.1053 -2.4607 -252.3706
v 849.6544 212.9782 -240.9197
v 925.6038 212.9782 -316.8692
v 904.8743 -2.4607 -296.1397
v 906.5634 199.2605 -297.8288
v 924.6752 212.9782 -315.9406
v 848.7258 220.9971 -207.6046
v 925.6038 220.9971 -263.2878
v 925.6038 220.9971 -207.6047
v 925.6038 207.888 -263.2878
v 925.6038 212.9782 -263.2878
v 925.6038 212.9782 -207.6047
v 925.6038 207.888 -207.6047
v 848.7258 212.9782 -207.6046
v 848.7258 207.888 -207.6046
v 850.9161 204.0866 -210.0894
v 923.4135 204.0866 -210.0894
v 856.4516 201.1721 -216.3688
v 917.878 201.1721 -216.3689
v 917.878 201.1721 -263.2878
v 923.4135 204.0866 -263.2878
v 876.2122 -2.4607 -222.1441
v 876.2122 186.6513 -222.1441
v 861.1053 186.6514 -239.3092
v 861.1053 -2.4607 -239.3092
v 897.5767 -2.4607 -222.1441
v 897.5767 186.6513 -222.1441
v 912.6837 -2.4607 -239.3092
v 912.6837 186.6514 -239.3092
v 912.6837 -2.4607 -263.2878
v 912.6837 186.6514 -263.2878
v 876.2122 191.226 -222.1441
v 875.56 192.5001 -220.3552
v 859.5307 192.5002 -238.568
v 861.1053 191.226 -239.3092
v 897.5767 191.226 -222.1441
v 898.2288 192.5001 -220.3552
v 912.6837 191.226 -239.3092
v 914.2581 192.5002 -238.568
v 912.6837 191.226 -263.2878
v 914.2581 192.5002 -263.2878
v 876.0113 196.3225 -221.593
v 875.282 199.2604 -219.5926
v 858.8597 199.2605 -238.2523
v 860.6203 196.3225 -239.0808
v 897.7775 196.3225 -221.5929
v 898.5068 199.2604 -219.5926
v 913.1685 196.3225 -239.0808
v 914.9293 199.2605 -238.2523
v 913.1685 196.3225 -263.2878
v 914.9293 199.2605 -263.2878
v 858.6102 188.9388 -238.1348
v 875.1786 188.9387 -219.3091
v 898.6102 188.9387 -219.3091
v 915.1788 188.9388 -238.1349
v 860.4815 193.7742 -239.0154
v 875.9538 193.7742 -221.4354
v 897.835 193.7742 -221.4354
v 913.3074 193.7742 -239.0154
v 924.6752 212.9782 -263.2878
v 924.6752 215.2094 -263.2878
v 924.6752 215.2093 -208.6596
v 924.6752 212.9782 -208.6596
v 849.6544 215.2093 -208.6596
v 849.6544 212.9782 -208.6596
v 848.7258 215.2093 -207.6046
v 925.6038 215.2093 -207.6047
v 915.1788 188.9386 -263.2878
v 913.3074 193.7742 -263.2878
v 925.6038 215.2094 -263.2878
v 912.6837 186.6514 -287.2664
v 912.6837 -2.4607 -287.2664
v 912.6837 191.226 -287.2664
v 914.2581 192.5002 -288.0077
v 913.1685 196.3225 -287.4947
v 914.9293 199.2605 -288.3233
v 915.1788 188.9388 -288.4406
v 913.3074 193.7742 -287.5603
gi 0 0 0 0
gi 0 0 0 0
gi 0 0 0 0
gi 0 0 0 0
gi 0 0 0 0
gi 0 0 0 0
gi 0 0 0 0
gi 0 0 0 0
gi 0 0 0 0
gi 0 0 0 0
gi 0 0 0 0
gi 0 0 0 0
gi 0 0 0 0
gi 0 0 0 0
gi 0 0 0 0
gi 0 0 0 0
gi 0 0 0 0
gi 0 0 0 0
gi 0 0 0 0
gi 0 0 0 0
gi 0 0 0 0
gi 0 0 0 0
gi 0 0 0 0
gi 0 0 0 0
gi 0 0 0 0
gi 0 0 0 0
gi 0 0 0 0
gi 0 0 0 0
gi 0 0 0 0
gi 0 0 0 0
gi 0 0 0 0
gi 0 0 0 0
gi 0 0 0 0
gi 0 0 0 0
gi 0 0 0 0
gi 0 0 0 0
gi 0 0 0 0
gi 0 0 0 0
gi 0 0 0 0
gi 0 0 0 0
gi 0 0 0 0
gi 0 0 0 0
gi 0 0 0 0
gi 0 0 0 0
gi 0 0 0 0
gi 0 0 0 0
gi 0 0 0 0
gi 0 0 0 0
gi 0 0 0 0
gi 0 0 0 0
gi 0 0 0 0
gi 0 0 0 0
gi 0 0 0 0
gi 0 0 0 0
gi 0 0 0 0
gi 0 0 0 0
gi 0 0 0 0
gi 0 0 0 0
gi 0 0 0 0
gi 0 0 0 0
gi 0 0 0 0
gi 0 0 0 0
gi 0 0 0 0
gi 0 0 0 0
gi 0 0 0 0
gi 0 0 0 0
gi 0 0 0 0
gi 0 0 0 0
gi 0 0 0 0
gi 0 0 0 0
gi 0 0 0 0
gi 0 0 0 0
gi 0 0 0 0
gi 0 0 0 0
gi 0 0 0 0
gi 0 0 0 0
gi 0 0 0 0
gi 0 0 0 0
gi 0 0 0 0
gi 0 0 0 0
gi 0 0 0 0
gi 0 0 0 0
gi 0 0 0 0
gi 0 0 0 0
gi 0 0 0 0
gi 0 0 0 0
gi 0 0 0 0
gi 0 0 0 0
gi 0 0 0 0
gi 0 0 0 0
gi 0 0 0 0
gi 0 0 0 0
gi 0 0 0 0
gi 0 0 0 0
gi 0 0 0 0
gi 0 0 0 0
gi 0 0 0 0
gi 0 0 0 0
gi 0 0 0 0
gi 0 0 0 0
gi 0 0 0 0
gi 0 0 0 0
gi 0 0 0 0
gi 0 0 0 0
gi 0 0 0 0
gi 0 0 0 0
gi 0 0 0 0
gi 0 0 0 0
gi 0 0 0 0
gi 0 0 0 0
gi 0 0 0 0
gi 0 0 0 0
gi 0 0 0 0
gi 0 0 0 0
gi 0 0 0 0
gi 0 0 0 0
gi 0 0 0 0
gi 0 0 0 0
gi 0 0 0 0
gi 0 0 0 0
gi 0 0 0 0
gi 0 0 0 0
gi 0 0 0 0
gi 0 0 0 0
gi 0 0 0 0
gi 0 0 0 0
gi 0 0 0 0
gi 0 0 0 0
gi 0 0 0 0
gi 0 0 0 0
gi 0 0 0 0
gi 0 0 0 0
gi 0 0 0 0
gi 0 0 0 0
gi 0 0 0 0
gi 0 0 0 0
gi 0 0 0 0
gi 0 0 0 0
gi 0 0 0 0
gi 0 0 0 0
gi 0 0 0 0
gi 0 0 0 0
gi 0 0 0 0
gi 0 0 0 0
gi 0 0 0 0
gi 0 0 0 0
gi 0 0 0 0
gi 0 0 0 0
gi 0 0 0 0
gi 0 0 0 0
gi 0 0 0 0
gi 0 0 0 0
gi 0 0 0 0
gi 0 0 0 0
gi 0 0 0 0
gi 0 0 0 0
gi 0 0 0 0
gi 0 0 0 0
gi 0 0 0 0
gi 0 0 0 0
gi 0 0 0 0
gi 0 0 0 0
gi 0 0 0 0
gi 0 0 0 0
gi 0 0 0 0
gi 0 0 0 0
gi 0 0 0 0
gi 0 0 0 0
gi 0 0 0 0
gi 0 0 0 0
gi 0 0 0 0
gi 0 0 0 0
gi 0 0 0 0
gi 0 0 0 0
gi 0 0 0 0
gi 0 0 0 0
gi 0 0 0 0
gi 0 0 0 0
gw 0.0 0.0 0.0 0.0
gw 0.0 0.0 0.0 0.0
gw 0.0 0.0 0.0 0.0
gw 0.0 0.0 0.0 0.0
gw 0.0 0.0 0.0 0.0
gw 0.0 0.0 0.0 0.0
gw 0.0 0.0 0.0 0.0
gw 0.0 0.0 0.0 0.0
gw 0.0 0.0 0.0 0.0
gw 0.0 0.0 0.0 0.0
gw 0.0 0.0 0.0 0.0
gw 0.0 0.0 0.0 0.0
gw 0.0 0.0 0.0 0.0
gw 0.0 0.0 0.0 0.0
gw 0.0 0.0 0.0 0.0
gw 0.0 0.0 0.0 0.0
gw 0.0 0.0 0.0 0.0
gw 0.0 0.0 0.0 0.0
gw 0.0 0.0 0.0 0.0
gw 0.0 0.0 0.0 0.0
gw 0.0 0.0 0.0 0.0
gw 0.0 0.0 0.0 0.0
gw 0.0 0.0 0.0 0.0
gw 0.0 0.0 0.0 0.0
gw 0.0 0.0 0.0 0.0
gw 0.0 0.0 0.0 0.0
gw 0.0 0.0 0.0 0.0
gw 0.0 0.0 0.0 0.0
gw 0.0 0.0 0.0 0.0
gw 0.0 0.0 0.0 0.0
gw 0.0 0.0 0.0 0.0
gw 0.0 0.0 0.0 0.0
gw 0.0 0.0 0.0 0.0
gw 0.0 0.0 0.0 0.0
gw 0.0 0.0 0.0 0.0
gw 0.0 0.0 0.0 0.0
gw 0.0 0.0 0.0 0.0
gw 0.0 0.0 0.0 0.0
gw 0.0 0.0 0.0 0.0
gw 0.0 0.0 0.0 0.0
gw 0.0 0.0 0.0 0.0
gw 0.0 0.0 0.0 0.0
gw 0.0 0.0 0.0 0.0
gw 0.0 0.0 0.0 0.0
gw 0.0 0.0 0.0 0.0
gw 0.0 0.0 0.0 0.0
gw 0.0 0.0 0.0 0.0
gw 0.0 0.0 0.0 0.0
gw 0.0 0.0 0.0 0.0
gw 0.0 0.0 0.0 0.0
gw 0.0 0.0 0.0 0.0
gw 0.0 0.0 0.0 0.0
gw 0.0 0.0 0.0 0.0
gw 0.0 0.0 0.0 0.0
gw 0.0 0.0 0.0 0.0
gw 0.0 0.0 0.0 0.0
gw 0.0 0.0 0.0 0.0
gw 0.0 0.0 0.0 0.0
gw 0.0 0.0 0.0 0.0
gw 0.0 0.0 0.0 0.0
gw 0.0 0.0 0.0 0.0
gw 0.0 0.0 0.0 0.0
gw 0.0 0.0 0.0 0.0
gw 0.0 0.0 0.0 0.0
gw 0.0 0.0 0.0 0.0
gw 0.0 0.0 0.0 0.0
gw 0.0 0.0 0.0 0.0
gw 0.0 0.0 0.0 0.0
gw 0.0 0.0 0.0 0.0
gw 0.0 0.0 0.0 0.0
gw 0.0 0.0 0.0 0.0
gw 0.0 0.0 0.0 0.0
gw 0.0 0.0 0.0 0.0
gw 0.0 0.0 0.0 0.0
gw 0.0 0.0 0.0 0.0
gw 0.0 0.0 0.0 0.0
gw 0.0 0.0 0.0 0.0
gw 0.0 0.0 0.0 0.0
gw 0.0 0.0 0.0 0.0
gw 0.0 0.0 0.0 0.0
gw 0.0 0.0 0.0 0.0
gw 0.0 0.0 0.0 0.0
gw 0.0 0.0 0.0 0.0
gw 0.0 0.0 0.0 0.0
gw 0.0 0.0 0.0 0.0
gw 0.0 0.0 0.0 0.0
gw 0.0 0.0 0.0 0.0
gw 0.0 0.0 0.0 0.0
gw 0.0 0.0 0.0 0.0
gw 0.0 0.0 0.0 0.0
gw 0.0 0.0 0.0 0.0
gw 0.0 0.0 0.0 0.0
gw 0.0 0.0 0.0 0.0
gw 0.0 0.0 0.0 0.0
gw 0.0 0.0 0.0 0.0
gw 0.0 0.0 0.0 0.0
gw 0.0 0.0 0.0 0.0
gw 0.0 0.0 0.0 0.0
gw 0.0 0.0 0.0 0.0
gw 0.0 0.0 0.0 0.0
gw 0.0 0.0 0.0 0.0
gw 0.0 0.0 0.0 0.0
gw 0.0 0.0 0.0 0.0
gw 0.0 0.0 0.0 0.0
gw 0.0 0.0 0.0 0.0
gw 0.0 0.0 0.0 0.0
gw 0.0 0.0 0.0 0.0
gw 0.0 0.0 0.0 0.0
gw 0.0 0.0 0.0 0.0
gw 0.0 0.0 0.0 0.0
gw 0.0 0.0 0.0 0.0
gw 0.0 0.0 0.0 0.0
gw 0.0 0.0 0.0 0.0
gw 0.0 0.0 0.0 0.0
gw 0.0 0.0 0.0 0.0
gw 0.0 0.0 0.0 0.0
gw 0.0 0.0 0.0 0.0
gw 0.0 0.0 0.0 0.0
gw 0.0 0.0 0.0 0.0
gw 0.0 0.0 0.0 0.0
gw 0.0 0.0 0.0 0.0
gw 0.0 0.0 0.0 0.0
gw 0.0 0.0 0.0 0.0
gw 0.0 0.0 0.0 0.0
gw 0.0 0.0 0.0 0.0
gw 0.0 0.0 0.0 0.0
gw 0.0 0.0 0.0 0.0
gw 0.0 0.0 0.0 0.0
gw 0.0 0.0 0.0 0.0
gw 0.0 0.0 0.0 0.0
gw 0.0 0.0 0.0 0.0
gw 0.0 0.0 0.0 0.0
gw 0.0 0.0 0.0 0.0
gw 0.0 0.0 0.0 0.0
gw 0.0 0.0 0.0 0.0
gw 0.0 0.0 0.0 0.0
gw 0.0 0.0 0.0 0.0
gw 0.0 0.0 0.0 0.0
gw 0.0 0.0 0.0 0.0
gw 0.0 0.0 0.0 0.0
gw 0.0 0.0 0.0 0.0
gw 0.0 0.0 0.0 0.0
gw 0.0 0.0 0.0 0.0
gw 0.0 0.0 0.0 0.0
gw 0.0 0.0 0.0 0.0
gw 0.0 0.0 0.0 0.0
gw 0.0 0.0 0.0 0.0
gw 0.0 0.0 0.0 0.0
gw 0.0 0.0 0.0 0.0
gw 0.0 0.0 0.0 0.0
gw 0.0 0.0 0.0 0.0
gw 0.0 0.0 0.0 0.0
gw 0.0 0.0 0.0 0.0
gw 0.0 0.0 0.0 0.0
gw 0.0 0.0 0.0 0.0
gw 0.0 0.0 0.0 0.0
gw 0.0 0.0 0.0 0.0
gw 0.0 0.0 0.0 0.0
gw 0.0 0.0 0.0 0.0
gw 0.0 0.0 0.0 0.0
gw 0.0 0.0 0.0 0.0
gw 0.0 0.0 0.0 0.0
gw 0.0 0.0 0.0 0.0
gw 0.0 0.0 0.0 0.0
gw 0.0 0.0 0.0 0.0
gw 0.0 0.0 0.0 0.0
gw 0.0 0.0 0.0 0.0
gw 0.0 0.0 0.0 0.0
gw 0.0 0.0 0.0 0.0
gw 0.0 0.0 0.0 0.0
gw 0.0 0.0 0.0 0.0
gw 0.0 0.0 0.0 0.0
gw 0.0 0.0 0.0 0.0
gw 0.0 0.0 0.0 0.0
gw 0.0 0.0 0.0 0.0
gw 0.0 0.0 0.0 0.0
gw 0.0 0.0 0.0 0.0
gw 0.0 0.0 0.0 0.0
vt 0.2969 0.905
vt 0.2969 0.8339
vt 0.2388 0.7828
vt 0.1052 0.7828
vt 0.1052 0.905
vt 0.0419 0.0149
vt 0.0419 0.1688
vt 0.0579 0.1688
vt 0.0579 0.0149
vt 0.0419 0.7325
vt 0.0419 0.974
vt 0.0579 0.974
vt 0.0577 0.7325
vt 0.0698 0.9671
vt 0.0698 0.7394
vt 0.0694 0.7257
vt 0.0694 0.6381
vt 0.0577 0.6441
vt 0.0871 0.9497
vt 0.0871 0.7568
vt 0.0698 0.1688
vt 0.0872 0.1688
vt 0.0872 0.0391
vt 0.0698 0.0217
vt 0.9967 0.9005
vt 0.8929 0.9005
vt 0.8929 0.0091
vt 0.9967 0.0091
vt 0.8048 0.9005
vt 0.8048 0.0091
vt 0.7184 0.9005
vt 0.649 0.9005
vt 0.649 0.0091
vt 0.7184 0.0091
vt 0.475 0.9005
vt 0.475 0.0091
vt 0.35 0.9493
vt 0.4571 0.9493
vt 0.4571 0.9414
vt 0.35 0.9414
vt 0.5643 0.9493
vt 0.5643 0.9414
vt 0.6715 0.9493
vt 0.6715 0.9414
vt 0.7744 0.9493
vt 0.7774 0.9414
vt 0.35 0.9908
vt 0.4571 0.9908
vt 0.4571 0.9727
vt 0.35 0.9727
vt 0.5643 0.9908
vt 0.5643 0.9727
vt 0.6715 0.9908
vt 0.6715 0.9727
vt 0.7732 0.9908
vt 0.7764 0.9727
vt 0.0941 0.6488
vt 0.0941 0.6164
vt 0.0866 0.623
vt 0.0866 0.7086
vt 0.0964 0.0996
vt 0.148 0.048
vt 0.0961 0.8889
vt 0.0961 0.8159
vt 0.145 0.6998
vt 0.35 0.9133
vt 0.2923 0.9133
vt 0.3027 0.9274
vt 0.35 0.9274
vt 0.4571 0.9133
vt 0.4571 0.9274
vt 0.5643 0.9274
vt 0.5643 0.9133
vt 0.6715 0.9274
vt 0.6715 0.9133
vt 0.2923 0.9414
vt 0.2951 0.9571
vt 0.2945 0.9727
vt 0.35 0.9571
vt 0.4571 0.9571
vt 0.5643 0.9571
vt 0.6715 0.9571
vt 0.2991 0.9493
vt 0.0318 0.0178
vt 0.0318 0.1707
vt 0.0389 0.1707
vt 0.0389 0.0178
vt 0.0318 0.7325
vt 0.0318 0.971
vt 0.0389 0.971
vt 0.0389 0.7325
vt 0.0059 0.2501
vt 0.0243 0.2501
vt 0.0243 0.1595
vt 0.0059 0.1595
vt 0.0059 0.4945
vt 0.0243 0.4945
vt 0.0272 0.4915
vt 0.0272 0.253
vt 0.0272 0.2471
vt 0.0272 0.1569
vt 0.0964 0.1688
vt 0.7728 0.9274
vt 0.7774 0.9133
vt 0.7761 0.9571
vt 0.0243 0.6503
vt 0.0059 0.6503
vt 0.0272 0.6503
vt 0.0272 0.4974
vt 0.3698 0.9005
vt 0.3698 0.0091
vt 0.617 0.9274
vt 0.6161 0.9133
vt 0.6161 0.9414
vt 0.6163 0.9727
vt 0.6163 0.9571
vt 0.6167 0.9493
vt 0.0579 0.0207
vt 0.0698 0.0267
vt 0.0872 0.042
vt 0.0877 0.0425
vt 0.0059 0.5004
vt 0.0243 0.5004
vt 0.0272 0.503
vt 0.0419 0.6441
vt 0.3563 0.9005
vt 0.3177 0.9005
vt 0.3177 0.0091
vt 0.3563 0.0091
vt 0.3017 0.9908
vt 0.0318 0.6422
vt 0.0389 0.6422
vt 0.1052 0.9004
vt 0.0419 0.0207
vt 0.3161 0.0091
vt 0.3161 0.9005
vt 0.6169 0.9908
vt 0.1227 0.0733
vt 0.0389 0.0233
vt 0.0318 0.0233
vt 0.48 0.0091
vt 0.48 0.9005
vt 0.38 0.9005
vt 0.38 0.0091
vt 0.5472 0.0091
vt 0.5472 0.9005
vt 0.6467 0.0091
vt 0.6467 0.9005
vt 0.7432 0.0091
vt 0.7432 0.9005
vt 0.8931 0.9005
vt 0.8931 0.0091
vt 0.339 0.9005
vt 0.339 0.0091
vt 0.9972 0.0091
vt 0.9972 0.9005
vn -0.5774 0.5774 0.5773
vn -0.3015 0.9045 0.3015
vn 0.0 1.0 0.0
vn 0.0 0.7071 -0.7071
vn -0.5774 0.5773 -0.5774
vn -0.5773 0.5774 -0.5773
vn 0.0 0.7071 -0.7071
vn 0.0 -0.2584 -0.966
vn -0.6761 -0.3073 -0.6696
vn -0.5773 0.5774 0.5773
vn -0.6761 -0.3073 0.6696
vn -0.4376 -0.7728 -0.4596
vn -0.4376 -0.7728 0.4596
vn -0.3433 -0.8743 0.3433
vn -0.6494 -0.3957 0.6494
vn -0.1918 -0.9569 -0.218
vn -0.1928 -0.9566 0.2187
vn 0.0 -0.7204 -0.6935
vn 0.0 -0.8629 -0.5055
vn -0.3058 -0.4658 0.8304
vn -0.7866 -0.4981 0.365
vn -0.9112 -0.0 0.4119
vn -0.3531 -0.0 0.9356
vn -0.7866 -0.4981 -0.365
vn -0.9112 0.0 -0.4119
vn -0.3057 -0.4658 -0.8304
vn -0.3531 0.0 -0.9356
vn 0.0 -0.4027 -0.9154
vn 0.0 0.0 -1.0
vn -0.3605 -0.108 0.9265
vn -0.9108 -0.1043 0.3994
vn -0.9007 -0.0386 0.4328
vn -0.335 -0.0375 0.9415
vn -0.9108 -0.1043 -0.3994
vn -0.9007 -0.0386 -0.4328
vn -0.3605 -0.108 -0.9265
vn -0.335 -0.0375 -0.9415
vn 0.0 -0.1244 -0.9922
vn 0.0 -0.0308 -0.9995
vn -0.1386 -0.7507 0.646
vn -0.5588 -0.8161 0.1473
vn -0.8652 -0.3031 0.3994
vn -0.3334 -0.2783 0.9008
vn -0.5588 -0.8162 -0.1469
vn -0.8652 -0.3031 -0.3994
vn -0.139 -0.7815 -0.6082
vn -0.3334 -0.2783 -0.9008
vn 0.0 -0.6945 -0.7195
vn 0.0 -0.2403 -0.9707
vn -0.4817 -0.732 0.4817
vn -0.3186 -0.8927 0.3186
vn -0.6466 -0.4048 0.6466
vn -0.7071 -0.0 0.7071
vn -0.3633 0.0 0.9317
vn -0.9161 -0.0 0.4009
vn -0.9161 0.0 -0.4009
vn -0.3633 0.0 -0.9317
vn -0.707 -0.0209 0.707
vn -0.6549 0.3772 0.6549
vn -0.6814 -0.267 0.6814
vn -0.3195 0.3911 0.8631
vn -0.8227 0.4229 0.3798
vn -0.8227 0.4229 -0.3798
vn -0.3195 0.3911 -0.8631
vn -0.6911 -0.2113 0.6912
vn -0.3015 -0.9045 -0.3015
vn 0.0 -0.7071 -0.7071
vn 0.0 0.7071 -0.7071
vn -0.3015 0.9045 -0.3015
vn -0.3015 -0.9045 0.3015
vn -0.3015 0.9045 0.3015
vn -0.5773 -0.5774 0.5773
vn -0.3015 -0.9045 0.3015
vn -0.5773 -0.5774 -0.5773
vn -0.5773 -0.5774 0.5773
vn -0.0 -0.0 -1.0
vn 0.0 0.3408 -0.9401
vn 0.0 -0.7071 -0.7071
vn 0.3058 -0.4658 -0.8304
vn 0.3531 0.0 -0.9356
vn 0.335 -0.0375 -0.9415
vn 0.3605 -0.108 -0.9265
vn 0.3334 -0.2783 -0.9008
vn 0.139 -0.7815 -0.6082
vn 0.3633 0.0 -0.9317
vn 0.7071 0.0 -0.7071
vn 0.6407 -0.4232 -0.6407
vn 0.7068 -0.0315 -0.7068
vn 0.6837 -0.2551 -0.6837
vn 0.6595 0.3606 -0.6595
vn 0.3195 0.3911 -0.8631
vn 0.7019 -0.121 -0.7019
vn 0.6756 -0.2953 -0.6756
vn 0.4624 -0.7566 -0.4624
vn 0.2599 -0.93 -0.2598
vn 0.2486 -0.9361 -0.249
vn 0.5773 0.5774 -0.5773
vn 0.5773 -0.5774 -0.5773
vn 0.3015 -0.9045 -0.3015
vn -0.3015 0.9045 0.3015
vn -0.7071 -0.0 0.7071
vn -0.5773 0.5774 0.5773
vn 0.5773 0.5774 -0.5773
vn 0.7071 0.0 -0.7071
vn 0.3657 -0.8558 -0.3657
vn 0.3015 0.9045 -0.3015
vn -0.5773 0.5774 0.5774
vn 0.7071 0.7071 -0.0
vn 0.5774 0.5773 0.5774
vn 0.966 -0.2584 0.0
vn 0.7071 0.7071 0.0
vn 0.5773 0.5774 0.5773
vn 0.6696 -0.3073 0.6761
vn -0.5773 0.5774 0.5774
vn -0.6696 -0.3073 0.6761
vn -0.4596 -0.7728 0.4376
vn 0.4596 -0.7728 0.4376
vn -0.2187 -0.9566 0.1928
vn 0.218 -0.9569 0.1918
vn 0.5055 -0.8629 -0.0
vn 0.6935 -0.7204 -0.0
vn -0.4119 -0.0 0.9112
vn -0.365 -0.4981 0.7866
vn -0.8304 -0.4658 0.3058
vn -0.9356 -0.0 0.3531
vn 0.4119 -0.0 0.9112
vn 0.365 -0.4981 0.7866
vn 0.9356 0.0 0.3531
vn 0.8304 -0.4658 0.3058
vn 1.0 0.0 0.0
vn 0.9154 -0.4026 0.0
vn -0.4328 -0.0386 0.9007
vn -0.3994 -0.1043 0.9108
vn -0.9265 -0.108 0.3605
vn -0.9415 -0.0375 0.335
vn 0.4328 -0.0386 0.9007
vn 0.3994 -0.1043 0.9108
vn 0.9415 -0.0375 0.335
vn 0.9265 -0.1079 0.3605
vn 0.9995 -0.0308 0.0
vn 0.9922 -0.1244 0.0
vn -0.3994 -0.3031 0.8652
vn -0.1473 -0.8161 0.5588
vn -0.646 -0.7507 0.1386
vn -0.9008 -0.2783 0.3334
vn 0.3994 -0.3031 0.8652
vn 0.1469 -0.8162 0.5588
vn 0.9008 -0.2783 0.3334
vn 0.6082 -0.7815 0.139
vn 0.9707 -0.2404 0.0
vn 0.7195 -0.6945 0.0
vn -0.9317 0.0 0.3633
vn -0.4009 -0.0 0.9161
vn 0.4009 0.0 0.9161
vn 0.9317 0.0 0.3633
vn -0.8631 0.3911 0.3195
vn -0.3798 0.4229 0.8227
vn 0.3798 0.4229 0.8227
vn 0.8631 0.3911 0.3195
vn 0.7071 0.7071 0.0
vn 0.7071 -0.7071 0.0
vn 0.3015 -0.9045 0.3015
vn 0.3015 0.9045 0.3015
vn -0.3015 -0.9045 0.3015
vn -0.3015 0.9045 0.3015
vn -0.5773 -0.5774 0.5773
vn 0.5773 -0.5774 0.5773
vn 1.0 -0.0 0.0
vn 0.9401 0.3408 0.0
vn 0.7071 -0.7071 -0.0
vn 0.8304 -0.4658 -0.3058
vn 0.9356 0.0 -0.3531
vn 0.9415 -0.0375 -0.335
vn 0.9265 -0.108 -0.3605
vn 0.9008 -0.2783 -0.3334
vn 0.6082 -0.7815 -0.139
vn 0.9317 0.0 -0.3633
vn 0.8631 0.3911 -0.3195
vtan 0.4081 -0.4084 0.8165
vtan 0.0945 -0.2863 0.9535
vtan -0.0001 -0.0 1.0
vtan 0.0 0.7071 0.7071
vtan -0.4083 0.4082 0.8165
vtan -0.1768 -0.7787 -0.6019
vtan 0.3873 -0.6519 -0.6519
vtan 0.0001 -0.966 0.2584
vtan 0.1165 -0.942 0.3146
vtan -0.4339 -0.8159 0.3821
vtan -0.6331 -0.7631 -0.13
vtan 0.3307 -0.9388 0.0969
vtan 0.2268 -0.9516 -0.2077
vtan 0.8269 -0.5466 0.1319
vtan 0.827 -0.5466 -0.1318
vtan 0.151 -0.5671 -0.8097
vtan 0.0941 -0.3956 -0.9136
vtan 0.115 -0.8952 -0.4305
vtan 0.9768 -0.2077 0.0525
vtan 0.9765 -0.2089 -0.0526
vtan -0.0001 -0.6935 0.7204
vtan -0.0 -0.5055 0.8629
vtan 0.0241 -0.2266 0.9737
vtan 0.1544 -0.5681 0.8083
vtan 0.895 0.1568 0.4175
vtan 0.4188 0.0041 0.9081
vtan 0.4119 -0.0 0.9112
vtan 0.9356 0.0 0.3531
vtan -0.3084 -0.1953 0.931
vtan -0.4119 -0.0 0.9112
vtan -0.5079 0.1857 0.8412
vtan -0.9378 -0.0032 0.3471
vtan -0.9356 0.0 0.3531
vtan -0.4119 -0.0 0.9112
vtan -1.0 0.0 0.0
vtan -0.9319 -0.0006 -0.3627
vtan -0.4015 -0.0008 -0.9159
vtan -0.4331 0.0004 -0.9013
vtan -0.9421 0.0003 -0.3352
vtan 0.4015 0.0008 -0.9159
vtan 0.4331 -0.0004 -0.9013
vtan 0.9319 0.0006 -0.3627
vtan 0.9421 -0.0003 -0.3352
vtan 1.0 0.0 0.0
vtan -0.9514 -0.0801 -0.2972
vtan -0.3459 0.0679 -0.9358
vtan -0.419 -0.0003 -0.908
vtan -0.9378 -0.0002 -0.3471
vtan 0.3456 -0.0682 -0.9359
vtan 0.419 0.0003 -0.908
vtan 0.9484 0.0716 -0.3088
vtan 0.9378 0.0002 -0.3471
vtan -0.027 -0.6491 -0.7602
vtan 0.035 -0.5653 -0.8241
vtan 0.0841 -0.3614 -0.9286
vtan 0.0269 -0.2279 -0.9733
vtan -0.0277 -0.6109 0.7913
vtan -0.0426 -0.1486 0.988
vtan 0.8257 -0.5641 -0.0071
vtan 0.8253 -0.5647 0.0022
vtan -0.0419 -0.1496 -0.9879
vtan -0.9388 0.0024 -0.3443
vtan -0.7629 0.3431 -0.548
vtan -0.7071 0.0 -0.7071
vtan -0.9317 0.0 -0.3633
vtan -0.4222 0.0025 -0.9065
vtan -0.4009 -0.0 -0.9161
vtan 0.4009 -0.0 -0.9161
vtan 0.4222 -0.0025 -0.9065
vtan 0.9317 -0.0 -0.3633
vtan 0.9388 -0.0024 -0.3443
vtan -0.7073 0.0209 -0.7066
vtan -0.7557 -0.3269 -0.5675
vtan -0.7319 0.2486 -0.6345
vtan -0.9377 0.0003 -0.3473
vtan -0.4188 0.0006 -0.9081
vtan 0.4188 -0.0006 -0.9081
vtan 0.9377 -0.0003 -0.3473
vtan -0.7227 0.202 -0.661
vtan 0.6396 -0.4264 0.6396
vtan 0.0 -0.7071 0.7071
vtan 0.3904 -0.651 -0.651
vtan -0.1043 -0.3456 -0.9326
vtan 0.6396 -0.4264 -0.6396
vtan 0.6396 -0.4264 0.6396
vtan -0.9331 -0.345 -0.1019
vtan -0.6743 -0.4259 0.6032
vtan -0.4083 -0.8165 0.4082
vtan 0.4316 -0.816 -0.3844
vtan 0.1061 -0.3461 -0.9322
vtan -0.6396 -0.4264 0.6396
vtan -0.4082 -0.8165 -0.4082
vtan 0.4357 -0.8159 0.3802
vtan 0.9534 -0.2815 -0.1088
vtan 0.9533 -0.2909 0.0807
vtan -0.1129 -0.2802 -0.9533
vtan -0.4091 -0.4074 -0.8165
vtan 0.0 -0.7195 0.6945
vtan 1.0 -0.0 -0.0
vtan 0.0001 -0.7071 0.7071
vtan 0.0 -0.7071 -0.7071
vtan 0.0 -0.7071 0.7071
vtan -0.0766 -0.2922 0.9533
vtan -0.9378 0.0032 -0.3471
vtan -0.9356 0.0 -0.3531
vtan -0.9421 -0.0003 -0.3353
vtan -0.9319 0.0006 -0.3627
vtan -0.9378 0.0002 -0.3471
vtan -0.9484 0.0716 -0.3088
vtan -0.9388 -0.0024 -0.3443
vtan -0.9317 -0.0 -0.3633
vtan -0.7071 0.0 -0.7071
vtan -0.7149 -0.0244 -0.6988
vtan -0.7072 -0.002 -0.7071
vtan -0.7099 -0.0157 -0.7041
vtan -0.7128 0.0214 -0.7011
vtan -0.9378 -0.0003 -0.3473
vtan -0.7077 -0.0077 -0.7064
vtan -0.0001 -0.966 0.2584
vtan -0.1035 -0.9452 0.3096
vtan -0.1492 -0.5804 0.8005
vtan -0.0 -0.6935 0.7204
vtan -0.042 -0.2797 0.9592
vtan 0.0168 -0.2528 0.9674
vtan 0.0314 -0.6104 0.7915
vtan 0.0003 -0.7195 0.6945
vtan 0.0 -0.5055 0.8629
vtan -1.0 -0.0 0.0
vtan 0.4083 -0.8165 -0.4083
vtan -0.1542 -0.7715 0.6173
vtan 0.0 -0.7071 0.7071
vtan 0.0961 -0.2858 0.9535
vtan -0.3019 -0.3905 0.8697
vtan 0.7629 -0.3431 0.548
vtan 0.9521 -0.1496 0.2667
vtan 0.9356 -0.0 0.3531
vtan 0.7071 -0.0 0.7071
vtan -0.8763 0.4024 -0.2648
vtan 0.4083 -0.8165 -0.4083
vtan -0.2166 -0.7901 0.5735
vtan 0.0 -0.0 1.0
vtan 0.4082 0.4083 0.8165
vtan 0.0 0.7071 0.7071
vtan -0.3873 -0.6519 -0.6519
vtan 0.1518 -0.7707 -0.6189
vtan -0.7071 0.0 -0.7071
vtan -0.7149 -0.0244 -0.6988
vtan -0.739 -0.0282 -0.6731
vtan 0.1105 -0.3503 0.9301
vtan 0.095 -0.3432 -0.9345
vtan -0.3903 -0.651 -0.651
vtan 0.0 -0.7071 0.7071
vtan -0.6396 -0.4264 0.6396
vtan -1.0 0.0 0.0001
vtan -0.9535 -0.2863 -0.0945
vtan -0.8165 -0.4084 -0.4081
vtan -0.7071 0.7071 0.0
vtan -0.8165 0.4082 0.4083
vtan -0.2584 -0.966 -0.0001
vtan 0.6519 -0.6519 -0.3873
vtan 0.602 -0.7787 0.1768
vtan -0.3146 -0.942 -0.1165
vtan -0.0969 -0.9388 -0.3307
vtan 0.1301 -0.7631 0.6331
vtan -0.3821 -0.8159 0.4339
vtan 0.2077 -0.9516 -0.2268
vtan 0.1318 -0.5466 -0.827
vtan -0.1319 -0.5466 -0.8269
vtan 0.4305 -0.8952 -0.115
vtan 0.9136 -0.3956 -0.0941
vtan 0.8097 -0.5671 -0.151
vtan 0.0526 -0.2089 -0.9765
vtan -0.0525 -0.2077 -0.9768
vtan -0.9737 -0.2266 -0.0241
vtan -0.8629 -0.5055 0.0
vtan -0.7204 -0.6935 0.0001
vtan -0.8083 -0.5681 -0.1544
vtan 0.9112 -0.0 0.4119
vtan 0.9081 -0.0041 0.4188
vtan 0.3471 -0.0032 0.9378
vtan 0.3531 -0.0 0.9356
vtan 0.9112 0.0 -0.4119
vtan 0.9081 0.0041 -0.4188
vtan 0.3531 0.0 -0.9356
vtan 0.3471 0.0032 -0.9378
vtan -0.0 0.0 -1.0
vtan 0.0 0.0 -1.0
vtan 0.9013 0.0004 0.4331
vtan 0.9159 -0.0008 0.4015
vtan 0.3627 -0.0006 0.9319
vtan 0.3353 0.0003 0.9421
vtan 0.9013 -0.0004 -0.4331
vtan 0.9159 0.0008 -0.4015
vtan 0.3353 -0.0003 -0.9421
vtan 0.3627 0.0006 -0.9319
vtan 0.908 -0.0003 0.419
vtan 0.9358 0.0679 0.3459
vtan 0.2972 -0.0801 0.9514
vtan 0.3471 -0.0002 0.9378
vtan 0.908 0.0003 -0.419
vtan 0.9359 -0.0682 -0.3456
vtan 0.3471 0.0002 -0.9378
vtan 0.3088 0.0716 -0.9484
vtan 0.9286 -0.3614 -0.0841
vtan 0.8241 -0.5653 -0.035
vtan 0.7602 -0.6492 0.0269
vtan 0.9733 -0.2279 -0.0269
vtan -0.988 -0.1486 0.0426
vtan -0.7913 -0.6109 0.0277
vtan -0.0022 -0.5646 -0.8253
vtan 0.0071 -0.5641 -0.8257
vtan 0.9879 -0.1496 0.0419
vtan 0.3443 0.0024 0.9388
vtan 0.3633 0.0 0.9317
vtan 0.7071 0.0 0.7071
vtan 0.548 0.3431 0.7628
vtan 0.9065 0.0025 0.4222
vtan 0.9161 -0.0 0.4009
vtan 0.9161 0.0 -0.4009
vtan 0.9065 -0.0025 -0.4222
vtan 0.3633 -0.0 -0.9317
vtan 0.3443 -0.0024 -0.9388
vtan 0.7066 0.0209 0.7073
vtan 0.6345 0.2486 0.7319
vtan 0.5675 -0.3269 0.7557
vtan 0.3473 0.0003 0.9378
vtan 0.9081 0.0006 0.4188
vtan 0.9081 -0.0006 -0.4188
vtan 0.3473 -0.0003 -0.9378
vtan 0.661 0.202 0.7227
vtan 0.651 -0.651 -0.3903
vtan -0.7071 -0.7071 0.0
vtan -0.6396 -0.4264 -0.6396
vtan 0.9326 -0.3456 0.1042
vtan 0.1019 -0.345 0.933
vtan 0.6396 -0.4264 -0.6396
vtan -0.6032 -0.4259 0.6744
vtan -0.4082 -0.8165 0.4083
vtan 0.9322 -0.3461 -0.1061
vtan 0.3844 -0.816 -0.4317
vtan 0.4082 -0.8165 0.4082
vtan -0.3802 -0.8159 -0.4357
vtan -0.0807 -0.2909 -0.9533
vtan 0.1088 -0.2815 -0.9534
vtan 0.8165 -0.4074 0.4091
vtan 0.9533 -0.2802 0.1128
vtan -0.6945 -0.7195 0.0
vtan -0.0 -0.0 -1.0
vtan -0.7071 -0.7071 -0.0001
vtan 0.7071 -0.7071 -0.0
vtan -0.9533 -0.2922 0.0767
vtan -0.7071 -0.7071 0.0
vtan -0.3471 -0.0032 -0.9378
vtan -0.3531 0.0 -0.9356
vtan 0.3352 -0.0003 0.9421
vtan 0.3627 0.0006 0.9319
vtan 0.0 0.0 1.0
vtan 0.3471 0.0002 0.9378
vtan 0.3088 0.0716 0.9484
vtan 0.3443 -0.0024 0.9388
vtan 0.6988 -0.0244 0.7149
vtan 0.7071 0.0 0.7071
vtan 0.3633 -0.0 0.9317
vtan 0.7071 -0.002 0.7071
vtan 0.7011 0.0214 0.7128
vtan 0.7041 -0.0157 0.7099
vtan 0.3473 -0.0003 0.9378
vtan 0.7064 -0.0077 0.7077
vtan -0.2584 -0.966 0.0001
vtan -0.7204 -0.6935 0.0
vtan -0.8005 -0.5804 0.1492
vtan -0.3096 -0.9452 0.1035
vtan -0.7915 -0.6104 -0.0314
vtan -0.9675 -0.2523 -0.0177
vtan -0.9592 -0.2797 0.0417
vtan -0.6945 -0.7195 -0.0003
vtan -0.8629 -0.5055 0.0
vtan -0.0 -0.0 1.0
vtan -0.7071 -0.7071 -0.0
vtan -0.6173 -0.7714 0.1542
vtan -0.9535 -0.2858 -0.0961
vtan -0.8697 -0.3905 0.3019
vtan 0.7071 -0.0 0.7071
vtan 0.2648 0.4024 0.8763
vtan 0.4083 -0.8165 -0.4083
vtan -0.5735 -0.7901 0.2166
vtan -1.0 0.0 0.0
vtan -0.7071 0.7071 -0.0
vtan -0.8165 0.4083 -0.4082
vtan 0.6519 -0.6519 0.3873
vtan 0.6189 -0.7706 -0.1518
vtan -0.7071 -0.0 -0.7071
vtan -0.6988 0.0244 -0.7149
vtan 0.6731 -0.0282 0.739
vtan -0.9301 -0.3503 -0.1105
vtan 0.651 -0.651 0.3903
vtan 0.9345 -0.3432 -0.095
f 0/0/0/0 1/1/1/1 2/2/2/2 
f 0/0/0/0 2/2/2/2 3/3/3/3 
f 4/4/4/4 0/0/0/0 3/3/3/3 
f 5/5/5/5 6/6/6/6 7/7/7/7 
f 5/5/5/5 7/7/7/7 8/8/8/8 
f 9/9/9/9 5/10/5/10 8/11/8/11 
f 9/9/9/9 8/11/8/11 10/12/10/12 
f 11/13/11/13 12/14/12/14 10/12/10/12 
f 11/13/11/13 10/12/10/12 8/11/8/11 
f 12/15/12/15 13/16/13/16 14/17/14/17 
f 12/15/12/15 14/17/14/17 10/12/10/12 
f 11/13/11/13 15/18/15/18 16/19/16/19 
f 11/13/11/13 16/19/16/19 12/14/12/14 
f 17/20/17/20 18/21/18/21 15/22/15/22 
f 17/20/17/20 15/22/15/22 11/23/11/23 
f 19/24/19/24 20/25/20/25 21/26/21/26 
f 19/24/19/24 21/26/21/26 22/27/22/27 
f 20/25/20/25 23/28/23/28 24/29/24/29 
f 20/25/20/25 24/29/24/29 21/26/21/26 
f 23/30/23/30 25/31/25/31 26/32/26/32 
f 23/30/23/30 26/32/26/32 24/33/24/33 
f 25/31/25/31 27/34/27/34 28/35/28/34 
f 25/31/25/31 28/35/28/34 26/32/26/32 
f 29/36/29/35 30/37/30/36 31/38/31/37 
f 29/36/29/35 31/38/31/37 32/39/32/38 
f 30/37/30/36 33/40/33/39 34/41/34/40 
f 30/37/30/36 34/41/34/40 31/38/31/37 
f 34/41/34/40 33/40/33/39 35/42/35/41 
f 34/41/34/40 35/42/35/41 36/43/36/42 
f 36/43/36/42 35/42/35/41 37/44/37/43 
f 36/43/36/42 37/44/37/43 38/45/38/43 
f 39/46/39/44 40/47/40/45 41/48/41/46 
f 39/46/39/44 41/48/41/46 42/49/42/47 
f 40/47/40/45 43/50/43/48 44/51/44/49 
f 40/47/40/45 44/51/44/49 41/48/41/46 
f 44/51/44/49 43/50/43/48 45/52/45/50 
f 44/51/44/49 45/52/45/50 46/53/46/51 
f 46/53/46/51 45/52/45/50 47/54/47/43 
f 46/53/46/51 47/54/47/43 48/55/48/43 
f 39/56/39/52 49/57/49/53 50/58/50/54 
f 39/56/39/52 50/58/50/54 16/59/16/55 
f 15/22/15/22 45/60/45/56 43/61/43/57 
f 43/62/43/58 40/63/40/59 16/19/16/19 
f 43/62/43/58 16/19/16/19 15/18/15/18 
f 16/59/16/55 40/64/40/60 39/56/39/52 
f 19/65/19/61 51/66/51/62 52/67/52/63 
f 19/65/19/61 52/67/52/63 53/68/53/64 
f 20/69/20/65 19/65/19/61 53/68/53/64 
f 20/69/20/65 53/68/53/64 54/70/54/66 
f 20/69/20/65 54/70/54/66 55/71/55/67 
f 20/69/20/65 55/71/55/67 23/72/23/68 
f 23/72/23/68 55/71/55/67 56/73/56/69 
f 23/72/23/68 56/73/56/69 25/74/25/70 
f 52/67/52/63 57/75/57/71 32/39/32/38 
f 52/67/52/63 32/39/32/38 53/68/53/64 
f 53/68/53/64 32/39/32/38 31/38/31/37 
f 53/68/53/64 31/38/31/37 54/70/54/66 
f 54/70/54/66 31/38/31/37 34/41/34/40 
f 54/70/54/66 34/41/34/40 55/71/55/67 
f 56/73/56/69 55/71/55/67 34/41/34/40 
f 56/73/56/69 34/41/34/40 36/43/36/42 
f 58/76/58/72 59/77/59/73 42/49/42/47 
f 58/76/58/72 42/49/42/47 60/78/60/74 
f 60/78/60/74 42/49/42/47 41/48/41/46 
f 60/78/60/74 41/48/41/46 61/79/61/75 
f 61/79/61/75 41/48/41/46 44/51/44/49 
f 61/79/61/75 44/51/44/49 62/80/62/76 
f 62/80/62/76 44/51/44/49 46/53/46/51 
f 62/80/62/76 46/53/46/51 63/81/63/77 
f 64/82/64/78 58/76/58/72 60/78/60/74 
f 64/82/64/78 60/78/60/74 29/36/29/35 
f 29/36/29/35 60/78/60/74 61/79/61/75 
f 29/36/29/35 61/79/61/75 30/37/30/36 
f 30/37/30/36 61/79/61/75 62/80/62/76 
f 30/37/30/36 62/80/62/76 33/40/33/39 
f 35/42/35/41 33/40/33/39 62/80/62/76 
f 35/42/35/41 62/80/62/76 63/81/63/77 
f 65/83/65/79 66/84/66/80 67/85/67/81 
f 65/83/65/79 67/85/67/81 68/86/68/82 
f 69/87/69/83 65/88/65/84 68/89/68/85 
f 69/87/69/83 68/89/68/85 70/90/70/86 
f 0/91/0/87 72/92/71/88 71/93/72/89 
f 0/91/0/87 71/93/72/89 1/94/1/90 
f 72/92/71/88 0/91/0/87 4/95/4/91 
f 72/92/71/88 4/95/4/91 73/96/73/92 
f 68/86/68/82 67/85/67/81 6/6/6/6 
f 68/86/68/82 6/6/6/6 5/5/5/5 
f 70/90/70/86 68/89/68/85 5/10/5/10 
f 70/90/70/86 5/10/5/10 9/9/9/9 
f 65/97/65/93 69/98/69/94 72/92/71/88 
f 65/97/65/93 72/92/71/88 73/96/73/92 
f 69/99/69/95 74/100/74/96 71/93/72/89 
f 69/99/69/95 71/93/72/89 72/92/71/88 
f 7/7/7/7 17/20/17/20 11/23/11/23 
f 7/7/7/7 11/23/11/23 8/8/8/8 
f 18/21/18/21 47/101/47/97 45/60/45/56 
f 18/21/18/21 45/60/45/56 15/22/15/22 
f 75/102/75/98 27/103/27/43 25/74/25/70 
f 75/102/75/98 25/74/25/70 56/73/56/69 
f 75/102/75/98 56/73/56/69 36/43/36/42 
f 75/102/75/98 36/43/36/42 38/45/38/43 
f 76/104/76/43 63/81/63/77 46/53/46/51 
f 76/104/76/43 46/53/46/51 48/55/48/43 
f 37/44/37/43 35/42/35/41 63/81/63/77 
f 37/44/37/43 63/81/63/77 76/104/76/43 
f 77/105/77/99 73/96/73/92 4/95/4/91 
f 77/105/77/99 4/95/4/91 3/106/3/100 
f 77/105/77/99 66/107/66/101 65/108/65/102 
f 77/105/77/99 65/108/65/102 73/96/73/92 
f 28/35/28/34 27/34/27/34 78/109/78/103 
f 28/35/28/34 78/109/78/103 79/110/79/104 
f 80/43/80/105 38/45/38/34 37/44/37/34 
f 80/43/80/105 37/44/37/34 81/42/81/106 
f 82/53/82/107 48/55/48/34 47/54/47/34 
f 82/53/82/107 47/54/47/34 83/52/83/108 
f 78/74/78/109 84/73/84/110 85/111/85/111 
f 78/74/78/109 85/111/85/111 86/112/86/112 
f 80/43/80/105 87/113/87/113 85/111/85/111 
f 80/43/80/105 85/111/85/111 84/73/84/110 
f 82/53/82/107 88/114/88/114 89/115/89/115 
f 82/53/82/107 89/115/89/115 90/81/90/116 
f 90/81/90/116 89/115/89/115 91/116/91/117 
f 90/81/90/116 91/116/91/117 81/42/81/106 
f 7/7/7/118 92/117/92/119 93/118/93/120 
f 7/7/7/118 93/118/93/120 17/20/17/121 
f 94/119/94/122 95/120/95/123 83/60/83/124 
f 94/119/94/122 83/60/83/124 47/101/47/125 
f 18/21/18/126 94/119/94/122 47/101/47/125 
f 75/102/75/127 84/73/84/110 78/74/78/109 
f 75/102/75/127 78/74/78/109 27/103/27/34 
f 80/43/80/105 84/73/84/110 75/102/75/127 
f 80/43/80/105 75/102/75/127 38/45/38/34 
f 82/53/82/107 90/81/90/116 76/104/76/34 
f 82/53/82/107 76/104/76/34 48/55/48/34 
f 90/81/90/116 81/42/81/106 37/44/37/34 
f 90/81/90/116 37/44/37/34 76/104/76/34 
f 96/121/96/128 97/122/97/129 77/105/77/130 
f 96/121/96/128 77/105/77/130 3/106/3/100 
f 77/105/77/130 97/122/97/129 98/123/98/131 
f 77/105/77/130 98/123/98/131 66/107/66/101 
f 99/124/99/132 9/9/9/9 10/12/10/12 
f 99/124/99/132 10/12/10/12 14/17/14/17 
f 13/16/13/16 12/15/12/15 16/59/16/55 
f 13/16/13/16 16/59/16/55 50/58/50/54 
f 51/125/51/133 19/126/19/134 22/127/22/135 
f 51/125/51/133 22/127/22/135 100/128/100/136 
f 64/82/64/78 29/36/29/35 32/39/32/38 
f 64/82/64/78 32/39/32/38 57/75/57/71 
f 49/129/49/137 39/46/39/44 42/49/42/47 
f 49/129/49/137 42/49/42/47 59/77/59/73 
f 74/130/74/138 69/87/69/83 70/90/70/86 
f 74/130/74/138 70/90/70/86 101/131/101/139 
f 99/124/99/132 101/131/101/139 70/90/70/86 
f 99/124/99/132 70/90/70/86 9/9/9/9 
f 2/2/2/140 96/132/96/141 3/3/3/142 
f 92/117/92/119 7/7/7/118 6/6/6/143 
f 92/117/92/119 6/6/6/143 102/133/102/144 
f 94/119/94/122 18/21/18/126 17/20/17/121 
f 94/119/94/122 17/20/17/121 93/118/93/120 
f 103/134/103/145 79/110/79/104 78/109/78/103 
f 103/134/103/145 78/109/78/103 86/135/86/146 
f 91/116/91/117 87/113/87/113 80/43/80/105 
f 91/116/91/117 80/43/80/105 81/42/81/106 
f 104/136/104/147 88/114/88/114 82/53/82/107 
f 104/136/104/147 82/53/82/107 83/52/83/108 
f 95/120/95/123 104/137/104/148 83/60/83/124 
f 105/138/105/149 67/85/67/150 66/84/66/151 
f 105/138/105/149 66/84/66/151 98/139/98/152 
f 105/138/105/149 102/133/102/144 6/6/6/143 
f 105/138/105/149 6/6/6/143 67/85/67/150 
f 2/2/2/153 1/1/1/154 106/0/106/155 
f 2/2/2/153 106/0/106/155 107/3/107/156 
f 108/4/108/157 107/3/107/156 106/0/106/155 
f 109/7/109/158 110/6/110/159 111/5/111/160 
f 109/7/109/158 111/5/111/160 112/8/112/161 
f 112/11/112/162 111/10/111/163 113/9/113/164 
f 112/11/112/162 113/9/113/164 114/12/114/165 
f 114/12/114/165 115/14/115/166 116/13/116/167 
f 114/12/114/165 116/13/116/167 112/11/112/162 
f 14/17/14/168 13/16/13/169 115/15/115/170 
f 14/17/14/168 115/15/115/170 114/12/114/165 
f 117/19/117/171 118/18/118/172 116/13/116/167 
f 117/19/117/171 116/13/116/167 115/14/115/166 
f 118/22/118/173 119/21/119/174 120/20/120/175 
f 118/22/118/173 120/20/120/175 116/23/116/176 
f 121/140/121/177 122/141/122/178 123/142/123/179 
f 121/140/121/177 123/142/123/179 124/143/124/180 
f 125/144/125/181 126/145/126/182 122/141/122/178 
f 125/144/125/181 122/141/122/178 121/140/121/177 
f 127/146/127/183 128/147/128/184 126/145/126/182 
f 127/146/127/183 126/145/126/182 125/144/125/181 
f 129/148/129/185 130/149/130/186 128/147/128/184 
f 129/148/129/185 128/147/128/184 127/146/127/183 
f 131/38/131/187 132/37/132/188 133/36/133/189 
f 131/38/131/187 133/36/133/189 134/39/134/190 
f 135/41/135/191 136/40/136/192 132/37/132/188 
f 135/41/135/191 132/37/132/188 131/38/131/187 
f 135/41/135/191 137/43/137/193 138/42/138/194 
f 135/41/135/191 138/42/138/194 136/40/136/192 
f 137/43/137/193 139/45/139/186 140/44/140/186 
f 137/43/137/193 140/44/140/186 138/42/138/194 
f 141/48/141/195 142/47/142/196 143/46/143/197 
f 141/48/141/195 143/46/143/197 144/49/144/198 
f 145/51/145/199 146/50/146/200 142/47/142/196 
f 145/51/145/199 142/47/142/196 141/48/141/195 
f 145/51/145/199 147/53/147/201 148/52/148/202 
f 145/51/145/199 148/52/148/202 146/50/146/200 
f 147/53/147/201 149/55/149/186 150/54/150/186 
f 147/53/147/201 150/54/150/186 148/52/148/202 
f 50/58/50/203 49/57/49/204 143/56/143/205 
f 50/58/50/203 143/56/143/205 117/59/117/206 
f 118/22/118/173 146/61/146/207 148/60/148/208 
f 117/19/117/171 142/63/142/209 146/62/146/210 
f 117/19/117/171 146/62/146/210 118/18/118/172 
f 117/59/117/206 143/56/143/205 142/64/142/211 
f 123/65/123/212 151/68/151/213 52/67/52/214 
f 123/65/123/212 52/67/52/214 51/66/51/215 
f 122/69/122/216 152/70/152/217 151/68/151/213 
f 122/69/122/216 151/68/151/213 123/65/123/212 
f 153/71/153/218 152/70/152/217 122/69/122/216 
f 153/71/153/218 122/69/122/216 126/72/126/219 
f 154/73/154/220 153/71/153/218 126/72/126/219 
f 154/73/154/220 126/72/126/219 128/74/128/221 
f 134/39/134/190 57/75/57/222 52/67/52/214 
f 134/39/134/190 52/67/52/214 151/68/151/213 
f 131/38/131/187 134/39/134/190 151/68/151/213 
f 131/38/131/187 151/68/151/213 152/70/152/217 
f 135/41/135/191 131/38/131/187 152/70/152/217 
f 135/41/135/191 152/70/152/217 153/71/153/218 
f 154/73/154/220 137/43/137/193 135/41/135/191 
f 154/73/154/220 135/41/135/191 153/71/153/218 
f 144/49/144/198 59/77/59/223 58/76/58/224 
f 144/49/144/198 58/76/58/224 155/78/155/225 
f 141/48/141/195 144/49/144/198 155/78/155/225 
f 141/48/141/195 155/78/155/225 156/79/156/226 
f 145/51/145/199 141/48/141/195 156/79/156/226 
f 145/51/145/199 156/79/156/226 157/80/157/227 
f 147/53/147/201 145/51/145/199 157/80/157/227 
f 147/53/147/201 157/80/157/227 158/81/158/228 
f 155/78/155/225 58/76/58/224 64/82/64/229 
f 155/78/155/225 64/82/64/229 133/36/133/189 
f 156/79/156/226 155/78/155/225 133/36/133/189 
f 156/79/156/226 133/36/133/189 132/37/132/188 
f 157/80/157/227 156/79/156/226 132/37/132/188 
f 157/80/157/227 132/37/132/188 136/40/136/192 
f 138/42/138/194 158/81/158/228 157/80/157/227 
f 138/42/138/194 157/80/157/227 136/40/136/192 
f 159/85/159/230 160/84/160/231 161/83/161/232 
f 159/85/159/230 161/83/161/232 162/86/162/233 
f 162/89/162/234 161/88/161/232 163/87/163/235 
f 162/89/162/234 163/87/163/235 164/90/164/236 
f 106/91/106/237 1/94/1/90 71/93/72/238 
f 106/91/106/237 71/93/72/238 165/92/165/239 
f 108/95/108/240 106/91/106/237 165/92/165/239 
f 108/95/108/240 165/92/165/239 166/96/166/241 
f 110/6/110/159 159/85/159/230 162/86/162/233 
f 110/6/110/159 162/86/162/233 111/5/111/160 
f 111/10/111/163 162/89/162/234 164/90/164/236 
f 111/10/111/163 164/90/164/236 113/9/113/164 
f 165/92/165/239 163/98/163/242 161/97/161/243 
f 165/92/165/239 161/97/161/243 166/96/166/241 
f 71/93/72/238 74/100/74/244 163/99/163/245 
f 71/93/72/238 163/99/163/245 165/92/165/239 
f 109/7/109/158 112/8/112/161 116/23/116/176 
f 109/7/109/158 116/23/116/176 120/20/120/175 
f 119/21/119/174 118/22/118/173 148/60/148/208 
f 119/21/119/174 148/60/148/208 150/101/150/246 
f 167/102/167/247 154/73/154/220 128/74/128/221 
f 167/102/167/247 128/74/128/221 130/103/130/186 
f 137/43/137/193 154/73/154/220 167/102/167/247 
f 137/43/137/193 167/102/167/247 139/45/139/186 
f 147/53/147/201 158/81/158/228 168/104/168/186 
f 147/53/147/201 168/104/168/186 149/55/149/186 
f 158/81/158/228 138/42/138/194 140/44/140/186 
f 158/81/158/228 140/44/140/186 168/104/168/186 
f 108/95/108/240 166/96/166/241 169/105/169/248 
f 108/95/108/240 169/105/169/248 107/106/107/249 
f 169/105/169/248 166/96/166/241 161/108/161/250 
f 169/105/169/248 161/108/161/250 160/107/160/251 
f 170/150/170/252 130/149/130/186 129/148/129/185 
f 170/150/170/252 129/148/129/185 171/151/171/253 
f 172/43/172/254 173/42/173/255 140/44/140/256 
f 172/43/172/254 140/44/140/256 139/45/139/256 
f 174/53/174/257 175/52/175/258 150/54/150/256 
f 174/53/174/257 150/54/150/256 149/55/149/256 
f 170/74/170/259 86/112/86/260 85/111/85/261 
f 170/74/170/259 85/111/85/261 176/73/176/262 
f 85/111/85/261 87/113/87/263 172/43/172/254 
f 85/111/85/261 172/43/172/254 176/73/176/262 
f 89/115/89/264 88/114/88/265 174/53/174/257 
f 89/115/89/264 174/53/174/257 177/81/177/266 
f 91/116/91/267 89/115/89/264 177/81/177/266 
f 91/116/91/267 177/81/177/266 173/42/173/255 
f 109/7/109/268 120/20/120/269 93/118/93/270 
f 109/7/109/268 93/118/93/270 92/117/92/271 
f 175/60/175/272 95/120/95/273 94/119/94/274 
f 175/60/175/272 94/119/94/274 150/101/150/275 
f 119/21/119/276 150/101/150/275 94/119/94/274 
f 167/102/167/277 130/103/130/256 170/74/170/259 
f 167/102/167/277 170/74/170/259 176/73/176/262 
f 167/102/167/277 176/73/176/262 172/43/172/254 
f 167/102/167/277 172/43/172/254 139/45/139/256 
f 168/104/168/256 177/81/177/266 174/53/174/257 
f 168/104/168/256 174/53/174/257 149/55/149/256 
f 140/44/140/256 173/42/173/255 177/81/177/266 
f 140/44/140/256 177/81/177/266 168/104/168/256 
f 169/105/169/278 97/122/97/279 96/121/96/128 
f 169/105/169/278 96/121/96/128 107/106/107/249 
f 169/105/169/278 160/107/160/251 98/123/98/280 
f 169/105/169/278 98/123/98/280 97/122/97/279 
f 114/12/114/165 113/9/113/164 99/124/99/281 
f 114/12/114/165 99/124/99/281 14/17/14/168 
f 117/59/117/206 115/15/115/170 13/16/13/169 
f 117/59/117/206 13/16/13/169 50/58/50/203 
f 124/143/124/180 123/142/123/179 51/152/51/215 
f 124/143/124/180 51/152/51/215 100/153/100/282 
f 134/39/134/190 133/36/133/189 64/82/64/229 
f 134/39/134/190 64/82/64/229 57/75/57/222 
f 144/49/144/198 143/46/143/197 49/129/49/283 
f 144/49/144/198 49/129/49/283 59/77/59/223 
f 164/90/164/236 163/87/163/235 74/130/74/284 
f 164/90/164/236 74/130/74/284 101/131/101/285 
f 99/124/99/281 113/9/113/164 164/90/164/236 
f 99/124/99/281 164/90/164/236 101/131/101/285 
f 2/2/2/286 107/3/107/287 96/132/96/288 
f 110/6/110/289 109/7/109/268 92/117/92/271 
f 110/6/110/289 92/117/92/271 102/133/102/290 
f 120/20/120/269 119/21/119/276 94/119/94/274 
f 120/20/120/269 94/119/94/274 93/118/93/270 
f 170/150/170/252 171/151/171/253 103/154/103/291 
f 170/150/170/252 103/154/103/291 86/155/86/292 
f 91/116/91/267 173/42/173/255 172/43/172/254 
f 91/116/91/267 172/43/172/254 87/113/87/263 
f 104/136/104/293 175/52/175/258 174/53/174/257 
f 104/136/104/293 174/53/174/257 88/114/88/265 
f 95/120/95/273 175/60/175/272 104/137/104/294 
f 160/84/160/231 159/85/159/295 105/138/105/296 
f 160/84/160/231 105/138/105/296 98/139/98/152 
f 105/138/105/296 159/85/159/295 110/6/110/289 
f 105/138/105/296 110/6/110/289 102/133/102/290 
