v 1297.1455 186.5209 569.615
v 1297.1455 186.5209 575.7248
v 1296.5137 192.9853 575.7249
v 1296.5137 192.9853 568.7932
v 1297.6091 182.6522 570.1982
v 1297.6091 182.6522 575.7248
v 1295.8213 184.5865 575.7248
v 1295.8213 184.5865 568.0745
v 1291.6677 213.2486 562.8898
v 1291.6677 213.2486 575.7249
v 1290.0022 215.4301 575.7249
v 1290.0022 215.4301 560.9222
v 1291.6677 217.6116 575.7249
v 1291.6677 217.6116 562.9676
v 1294.3738 201.9842 566.1924
v 1294.3738 201.9842 575.7249
v 1291.6677 208.8855 575.7249
v 1291.6677 208.8855 562.8546
v 1296.9871 192.9853 568.2115
v 1297.6375 186.5209 569.0106
v 1292.1614 213.2486 562.2834
v 1292.147 208.8855 562.2657
v 1290.5278 215.4301 560.2767
v 1292.1929 217.6116 562.3221
v 1294.8584 201.9842 565.5967
v 1298.605 182.6522 570.199
v 1303.1035 182.6522 575.7253
v 1296.3484 184.5865 567.4269
v 1298.1067 182.6522 569.587
v 1303.1035 217.6116 575.7255
v 1298.1294 186.5209 568.4063
v 1297.4604 192.9853 567.6302
v 1303.1028 192.9853 567.6302
v 1303.1028 186.5209 568.4063
v 1298.604 182.6522 568.9759
v 1296.8755 184.5865 566.7794
v 1303.1028 184.5865 566.7794
v 1303.1028 182.6522 568.9759
v 1292.655 213.2486 561.6769
v 1291.0532 215.4301 559.631
v 1303.1028 215.4301 559.631
v 1303.1028 213.2486 561.6769
v 1292.7183 217.6116 561.6769
v 1303.1028 217.6116 561.6769
v 1295.3433 201.9842 565.0013
v 1292.6262 208.8855 561.6769
v 1303.1028 208.8855 561.6769
v 1303.1028 201.9842 565.0013
gi 0 0 0 0
gw 0.0 0.0 0.0 0.0
gi 0 0 0 0
gw 0.0 0.0 0.0 0.0
gi 0 0 0 0
gw 0.0 0.0 0.0 0.0
gi 0 0 0 0
gw 0.0 0.0 0.0 0.0
gi 0 0 0 0
gw 0.0 0.0 0.0 0.0
gi 0 0 0 0
gw 0.0 0.0 0.0 0.0
gi 0 0 0 0
gw 0.0 0.0 0.0 0.0
gi 0 0 0 0
gw 0.0 0.0 0.0 0.0
gi 0 0 0 0
gw 0.0 0.0 0.0 0.0
gi 0 0 0 0
gw 0.0 0.0 0.0 0.0
gi 0 0 0 0
gw 0.0 0.0 0.0 0.0
gi 0 0 0 0
gw 0.0 0.0 0.0 0.0
gi 0 0 0 0
gw 0.0 0.0 0.0 0.0
gi 0 0 0 0
gw 0.0 0.0 0.0 0.0
gi 0 0 0 0
gw 0.0 0.0 0.0 0.0
gi 0 0 0 0
gw 0.0 0.0 0.0 0.0
gi 0 0 0 0
gw 0.0 0.0 0.0 0.0
gi 0 0 0 0
gw 0.0 0.0 0.0 0.0
gi 0 0 0 0
gw 0.0 0.0 0.0 0.0
gi 0 0 0 0
gw 0.0 0.0 0.0 0.0
gi 0 0 0 0
gw 0.0 0.0 0.0 0.0
gi 0 0 0 0
gw 0.0 0.0 0.0 0.0
gi 0 0 0 0
gw 0.0 0.0 0.0 0.0
gi 0 0 0 0
gw 0.0 0.0 0.0 0.0
gi 0 0 0 0
gw 0.0 0.0 0.0 0.0
gi 0 0 0 0
gw 0.0 0.0 0.0 0.0
gi 0 0 0 0
gw 0.0 0.0 0.0 0.0
gi 0 0 0 0
gw 0.0 0.0 0.0 0.0
gi 0 0 0 0
gw 0.0 0.0 0.0 0.0
gi 0 0 0 0
gw 0.0 0.0 0.0 0.0
gi 0 0 0 0
gw 0.0 0.0 0.0 0.0
gi 0 0 0 0
gw 0.0 0.0 0.0 0.0
gi 0 0 0 0
gw 0.0 0.0 0.0 0.0
gi 0 0 0 0
gw 0.0 0.0 0.0 0.0
gi 0 0 0 0
gw 0.0 0.0 0.0 0.0
gi 0 0 0 0
gw 0.0 0.0 0.0 0.0
gi 0 0 0 0
gw 0.0 0.0 0.0 0.0
gi 0 0 0 0
gw 0.0 0.0 0.0 0.0
gi 0 0 0 0
gw 0.0 0.0 0.0 0.0
gi 0 0 0 0
gw 0.0 0.0 0.0 0.0
gi 0 0 0 0
gw 0.0 0.0 0.0 0.0
gi 0 0 0 0
gw 0.0 0.0 0.0 0.0
gi 0 0 0 0
gw 0.0 0.0 0.0 0.0
gi 0 0 0 0
gw 0.0 0.0 0.0 0.0
gi 0 0 0 0
gw 0.0 0.0 0.0 0.0
gi 0 0 0 0
gw 0.0 0.0 0.0 0.0
gi 0 0 0 0
gw 0.0 0.0 0.0 0.0
gi 0 0 0 0
gw 0.0 0.0 0.0 0.0
vt 0.4476 0.6742
vt 0.4476 0.6911
vt 0.4439 0.6911
vt 0.427 0.6742
vt 0.4457 0.6929
vt 0.5504 0.8881
vt 0.5337 0.8881
vt 0.5337 0.9084
vt 0.5526 0.9084
vt 0.9865 0.7672
vt 0.9619 0.7672
vt 0.9632 0.7791
vt 0.9959 0.7791
vt 0.5546 0.882
vt 0.5337 0.882
vt 0.5687 0.9721
vt 0.5337 0.9721
vt 0.5337 0.979
vt 0.5741 0.979
vt 0.5337 0.9859
vt 0.5685 0.9859
vt 0.5597 0.9367
vt 0.5337 0.9367
vt 0.5337 0.9584
vt 0.5688 0.9584
vt 0.6071 0.8899
vt 0.605 0.8907
vt 0.6028 0.9094
vt 0.605 0.9099
vt 0.5867 0.9726
vt 0.5888 0.9735
vt 0.5887 0.9599
vt 0.5865 0.9593
vt 0.5815 0.9806
vt 0.5834 0.9806
vt 0.5871 0.99
vt 0.589 0.988
vt 0.5978 0.9381
vt 0.5957 0.9372
vt 0.6007 0.8862
vt 0.6028 0.8842
vt 0.0107 0.7672
vt 0.0079 0.7672
vt 0.0078 0.7789
vt 0.0104 0.779
vt 0.0105 0.8749
vt 0.0091 0.876
vt 0.0091 0.8976
vt 0.0406 0.8976
vn 0.0 -1.0 0.0
vn 0.0 -1.0 0.0
vn 0.0 -1.0 -0.0
vn 0.0 -1.0 0.0
vn -0.9118 0.3115 -0.2676
vn -0.9686 0.2488 0.0
vn -0.9863 -0.1647 0.0
vn -0.9232 -0.2213 -0.3143
vn -0.4051 -0.9097 -0.0916
vn -0.401 -0.9161 -0.0
vn -0.9973 -0.0728 0.0
vn -0.9149 -0.0673 -0.398
vn -0.8773 -0.4015 -0.263
vn -0.9473 -0.3203 0.0
vn -1.0 -0.0 0.0
vn -0.9163 0.0033 -0.4005
vn -0.4434 0.8963 0.0
vn -0.4484 0.8877 -0.1047
vn -0.8738 -0.3895 -0.2912
vn -0.9543 -0.2989 0.0
vn -0.9826 -0.1858 0.0
vn -0.9078 -0.2348 -0.3474
vn -0.7353 0.318 -0.5985
vn -0.7508 -0.2505 -0.6112
vn -0.7058 -0.4145 -0.5745
vn -0.7473 -0.2678 -0.6082
vn -0.7755 0.0048 -0.6313
vn -0.2665 0.9391 -0.2169
vn -0.6985 -0.4345 -0.5686
vn -0.7733 -0.0759 -0.6295
vn -0.2356 -0.9527 -0.1918
vn 0.0 1.0 0.0
vn -0.3713 0.3626 -0.8548
vn -0.4078 -0.254 -0.877
vn 0.0 -0.2005 -0.9797
vn 0.0 0.2859 -0.9583
vn -0.1382 -0.9239 -0.3568
vn -0.4598 -0.0629 -0.8858
vn 0.0 -0.0747 -0.9972
vn -0.0 -0.9354 -0.3535
vn -0.3557 -0.462 -0.8124
vn -0.4625 0.0025 -0.8866
vn -0.0 -0.0 -1.0
vn 0.0 -0.3678 -0.9299
vn -0.1562 0.9026 -0.4011
vn 0.0 0.9176 -0.3974
vn -0.3735 -0.4407 -0.8163
vn -0.4272 -0.251 -0.8686
vn 0.0 -0.2226 -0.9749
vn 0.0 -0.3584 -0.9336
vtan -1.0 0.0 -0.0002 1.0
vtan -1.0 0.0 -0.0008 1.0
vtan -1.0 0.0 -0.0005 1.0
vtan -1.0 0.0 -0.0001 1.0
vtan -1.0 0.0 -0.0008 1.0
vtan -1.0 0.0 -0.0008 1.0
vtan -1.0 0.0 -0.0008 1.0
vtan -0.0001 0.0 -1.0 -1.0
vtan -0.0001 0.0 -1.0 -1.0
vtan -0.0001 0.0 -1.0 -1.0
vtan -0.0008 0.0 -1.0 -1.0
vtan -0.0008 0.0 -1.0 -1.0
vtan -0.0008 0.0 -1.0 -1.0
vtan -0.0008 -0.0 -1.0 -1.0
vtan -0.0008 -0.0 -1.0 -1.0
vtan -0.0008 -0.0 -1.0 -1.0
vtan 0.2532 -0.0865 -0.9635 -1.0
vtan 0.0 0.0 -1.0 -1.0
vtan 0.3056 0.0733 -0.9493 -1.0
vtan 0.0373 0.0837 -0.9958 -1.0
vtan 0.0 0.0 -1.0 -1.0
vtan 0.397 0.0292 -0.9174 -1.0
vtan 0.397 0.0292 -0.9174 -1.0
vtan 0.2392 0.1094 -0.9648 -1.0
vtan 0.4005 -0.0014 -0.9163 -1.0
vtan -0.0 0.0 -1.0 -1.0
vtan 0.0472 -0.0935 -0.9945 -1.0
vtan 0.266 0.1186 -0.9567 -1.0
vtan 0.3363 0.087 -0.9377 -1.0
vtan 0.6758 0.411 -0.6118 -1.0
vtan 0.4013 0.538 -0.7413 -1.0
vtan 0.3695 -0.2851 -0.8844 -1.0
vtan 0.6588 -0.217 -0.7204 -1.0
vtan 0.4487 -0.4917 -0.7462 -1.0
vtan 0.7031 -0.3107 -0.6396 -1.0
vtan 0.6637 -0.2559 -0.7028 -1.0
vtan 0.4117 -0.3415 -0.8449 -1.0
vtan 0.4004 0.0249 -0.916 -1.0
vtan 0.6313 0.0 -0.7755 -1.0
vtan 0.8835 0.4223 -0.2029 -1.0
vtan 0.943 0.2074 -0.2604 -1.0
vtan 0.7128 -0.3517 -0.6068 -1.0
vtan 0.4652 -0.4949 -0.7339 -1.0
vtan 0.2217 0.7404 -0.6346 -1.0
vtan 0.4288 0.6688 -0.6074 -1.0
vtan 0.6349 -0.0015 -0.7726 -1.0
vtan 0.5662 -0.1709 -0.8063 -1.0
vtan 0.401 -0.038 -0.9153 -1.0
vtan 0.6324 -0.0217 -0.7743 -1.0
vtan 0.9638 0.2605 -0.0563 -1.0
vtan 0.8938 0.4463 -0.0436 -1.0
vtan 0.8963 0.4434 0.0003 -1.0
vtan 1.0 -0.0 0.0001 -1.0
vtan -0.9285 -0.145 0.3419 1.0
vtan -0.9131 0.1135 0.3917 1.0
vtan -1.0 0.0 0.0 1.0
vtan -0.9904 0.1289 0.0498 1.0
vtan -0.888 0.0326 0.4587 1.0
vtan -1.0 0.0 0.0 1.0
vtan -0.888 0.0326 0.4587 1.0
vtan -0.9346 0.1758 0.3092 1.0
vtan -0.8866 -0.0013 0.4625 1.0
vtan -1.0 -0.0 0.0 1.0
vtan -0.9877 -0.1427 0.0634 1.0
vtan -1.0 0.0 0.0 1.0
vtan -0.9276 0.1775 0.3287 1.0
vtan -0.9042 0.1186 0.4104 1.0
vtan -0.6722 0.53 0.5169 1.0
vtan -0.5128 0.3165 0.7981 1.0
vtan -0.5794 -0.1946 0.7915 1.0
vtan -0.8064 -0.3502 0.4765 1.0
vtan -0.5555 -0.2506 0.7929 1.0
vtan -0.4714 -0.3306 0.8176 1.0
vtan -0.6473 -0.5053 0.5707 1.0
vtan -0.7873 -0.3691 0.4939 1.0
vtan -0.631 0.0238 0.7754 1.0
vtan -0.8866 0.0011 0.4625 1.0
vtan 0.0064 0.2267 0.9739 1.0
vtan -0.1404 0.3817 0.9136 1.0
vtan -0.6328 -0.5223 0.5716 1.0
vtan -0.4626 -0.3321 0.822 1.0
vtan -0.5664 0.7891 0.238 1.0
vtan -0.5654 0.5318 0.6305 1.0
vtan -0.6302 -0.0174 0.7763 1.0
vtan -0.8849 -0.0508 0.463 1.0
vtan -0.6662 -0.1799 0.7238 1.0
vtan -0.6312 -0.0 0.7756 1.0
vtan 0.0003 0.3974 0.9176 1.0
vtan -0.0627 0.3962 0.916 1.0
vtan -0.0569 0.2093 0.9762 1.0
vtan 0.0001 -0.0 1.0 1.0
f 5/0/0/0 4/1/0/1 25/2/0/2 
f 5/0/0/0 25/2/0/2 26/3/0/3 
f 28/4/1/4 25/2/1/5 4/1/1/6 
f 37/0/1/7 26/3/1/8 25/2/1/9 
f 37/0/2/10 25/2/2/11 34/1/2/12 
f 28/4/3/13 34/1/3/14 25/2/3/15 
f 0/5/4/16 1/6/5/17 2/7/6/17 
f 0/5/4/16 2/7/6/17 3/8/7/18 
f 4/9/8/19 5/10/9/20 6/11/10/17 
f 4/9/8/19 6/11/10/17 7/12/11/21 
f 0/5/4/16 7/13/11/22 6/14/10/17 
f 0/5/4/16 6/14/10/17 1/6/5/17 
f 8/15/12/23 9/16/13/17 10/17/14/17 
f 8/15/12/23 10/17/14/17 11/18/15/24 
f 10/17/14/17 12/19/16/25 13/20/17/26 
f 10/17/14/17 13/20/17/26 11/18/15/24 
f 14/21/18/27 15/22/19/17 16/23/20/17 
f 14/21/18/27 16/23/20/17 17/24/21/28 
f 3/8/7/18 2/7/6/17 15/22/19/17 
f 3/8/7/18 15/22/19/17 14/21/18/27 
f 19/25/22/29 0/26/4/30 3/27/7/31 
f 19/25/22/29 3/27/7/31 18/28/23/32 
f 8/29/12/33 20/30/24/34 21/31/25/35 
f 8/29/12/33 21/31/25/35 17/32/21/36 
f 11/33/15/37 22/34/26/38 20/30/24/34 
f 11/33/15/37 20/30/24/34 8/29/12/33 
f 11/33/15/37 13/35/17/39 23/36/27/40 
f 11/33/15/37 23/36/27/40 22/34/26/38 
f 17/32/21/36 21/31/25/35 24/37/28/41 
f 17/32/21/36 24/37/28/41 14/38/18/42 
f 14/38/18/42 24/37/28/41 18/28/23/32 
f 14/38/18/42 18/28/23/32 3/27/7/31 
f 8/15/12/23 17/24/21/28 16/23/20/17 
f 8/15/12/23 16/23/20/17 9/16/13/17 
f 7/39/11/43 0/26/4/30 19/25/22/29 
f 7/39/11/43 19/25/22/29 27/40/29/44 
f 28/41/30/45 4/42/8/46 7/43/11/47 
f 28/41/30/45 7/43/11/47 27/44/29/48 
f 23/45/27/49 13/46/17/50 12/47/16/51 
f 23/45/27/49 12/47/16/51 29/48/31/52 
f 30/5/32/53 31/8/33/54 32/7/34/55 
f 30/5/32/53 32/7/34/55 33/6/35/55 
f 34/9/36/56 35/12/37/57 36/11/38/55 
f 34/9/36/56 36/11/38/55 37/10/39/58 
f 30/5/32/53 33/6/35/55 36/14/38/55 
f 30/5/32/53 36/14/38/55 35/13/37/59 
f 38/15/40/60 39/18/41/61 40/17/42/62 
f 38/15/40/60 40/17/42/62 41/16/43/55 
f 42/20/44/63 43/19/45/64 40/17/42/62 
f 42/20/44/63 40/17/42/62 39/18/41/61 
f 44/21/46/65 45/24/47/66 46/23/48/55 
f 44/21/46/65 46/23/48/55 47/22/49/55 
f 31/8/33/54 44/21/46/65 47/22/49/55 
f 31/8/33/54 47/22/49/55 32/7/34/55 
f 30/26/32/67 19/25/22/68 18/28/23/69 
f 30/26/32/67 18/28/23/69 31/27/33/70 
f 21/31/25/71 20/30/24/72 38/29/40/73 
f 21/31/25/71 38/29/40/73 45/32/47/74 
f 38/29/40/73 20/30/24/72 22/34/26/75 
f 38/29/40/73 22/34/26/75 39/33/41/76 
f 22/34/26/75 23/36/27/77 42/35/44/78 
f 22/34/26/75 42/35/44/78 39/33/41/76 
f 44/38/46/79 24/37/28/80 21/31/25/71 
f 44/38/46/79 21/31/25/71 45/32/47/74 
f 31/27/33/70 18/28/23/69 24/37/28/80 
f 31/27/33/70 24/37/28/80 44/38/46/79 
f 46/23/48/55 45/24/47/66 38/15/40/60 
f 46/23/48/55 38/15/40/60 41/16/43/55 
f 30/26/32/67 35/39/37/81 27/40/29/82 
f 30/26/32/67 27/40/29/82 19/25/22/68 
f 27/44/29/83 35/43/37/84 34/42/36/85 
f 27/44/29/83 34/42/36/85 28/41/30/86 
f 43/47/45/87 42/46/44/88 23/45/27/89 
f 43/47/45/87 23/45/27/89 29/48/31/90 
