v -833.3086 687.1913 -250.3648
v -833.7307 687.1913 -250.5396
v -834.1932 687.1913 -251.0022
v -834.368 687.1913 -308.2992
v -834.368 687.1913 -252.1807
v -834.368 687.1913 -307.1275
v -834.368 687.1913 -251.4242
v -834.1932 687.1913 -308.7212
v -833.7307 687.1913 -309.1837
v -776.3282 687.1913 -309.3586
v -831.9907 687.1913 -309.3586
v -777.301 687.1913 -309.3586
v -833.3086 687.1913 -309.3586
v -775.9061 687.1913 -309.1838
v -775.4436 687.1913 -308.7212
v -775.2688 687.1913 -251.4243
v -775.2688 687.1913 -307.1475
v -775.2688 687.1913 -252.7965
v -775.2688 687.1913 -308.2992
v -775.4436 687.1913 -251.0022
v -775.9061 687.1913 -250.5396
v -777.6094 687.1913 -250.3648
v -832.8588 687.1913 -250.3648
v -776.3282 687.1913 -250.3648
v -775.2688 695.6663 -308.2992
v -775.4436 695.6663 -308.7212
v -775.9061 695.6663 -309.1838
v -833.3086 695.6663 -309.3586
v -777.301 695.6663 -309.3586
v -831.9907 695.6663 -309.3586
v -776.3282 695.6663 -309.3586
v -833.7307 695.6663 -309.1837
v -834.1932 695.6663 -308.7212
v -834.368 695.6663 -251.4242
v -834.368 695.6663 -307.1275
v -834.368 695.6663 -252.1807
v -834.368 695.6663 -308.2992
v -834.1932 695.6663 -251.0022
v -833.7307 695.6663 -250.5396
v -776.3282 695.6663 -250.3648
v -832.8588 695.6663 -250.3648
v -777.6094 695.6663 -250.3648
v -833.3086 695.6663 -250.3648
v -775.9061 695.6663 -250.5396
v -775.4436 695.6663 -251.0022
v -775.2688 695.6663 -252.7965
v -775.2688 695.6663 -307.1475
v -775.2688 695.6663 -251.4243
v -776.2593 687.5381 -250.018
v -776.2593 693.3951 -250.018
v -777.5435 691.4311 -250.018
v -777.5435 689.467 -250.018
v -834.7148 687.5381 -251.3553
v -834.7148 693.3951 -251.3553
v -834.7148 691.4311 -252.1136
v -834.7148 689.467 -252.1136
v -833.9271 687.5381 -250.2456
v -833.9271 695.3195 -250.2456
v -834.4872 695.3195 -250.8057
v -834.4872 687.5381 -250.8057
v -775.7097 687.5381 -250.2456
v -775.1497 687.5381 -250.8057
v -775.1497 695.3195 -250.8057
v -775.7097 695.3195 -250.2456
v -834.4872 687.5381 -308.9177
v -834.4872 695.3195 -308.9177
v -833.9271 695.3195 -309.4777
v -833.9271 687.5381 -309.4777
v -833.3776 693.3951 -250.018
v -833.3776 695.3195 -250.018
v -833.3776 687.5381 -250.018
v -776.2593 695.3195 -250.018
v -834.7148 687.5381 -308.3681
v -834.7148 693.3951 -308.3681
v -834.7148 695.3195 -251.3553
v -774.922 687.5381 -251.3553
v -774.922 693.3951 -251.3553
v -774.922 695.3195 -251.3553
v -833.3776 693.3951 -309.7054
v -833.3776 687.5381 -309.7054
v -834.7148 687.5381 -307.1936
v -832.9266 687.5381 -250.018
v -777.5435 695.3195 -250.018
v -834.7148 695.3195 -252.1136
v -833.3776 695.3195 -309.7054
v -834.7148 695.3195 -308.3681
v -832.0565 691.4311 -309.7054
v -832.0565 689.467 -309.7054
v -774.922 687.5381 -308.3681
v -774.922 693.3951 -308.3681
v -774.922 691.4311 -307.2136
v -774.922 689.467 -307.2136
v -775.7097 687.5381 -309.4778
v -775.7097 695.3195 -309.4778
v -775.1497 695.3195 -308.9177
v -775.1497 687.5381 -308.9177
v -776.2593 693.3951 -309.7054
v -776.2593 695.3195 -309.7054
v -776.2593 687.5381 -309.7054
v -774.922 695.3195 -308.3681
v -774.922 687.5381 -252.7309
v -777.2345 687.5381 -309.7054
v -832.0565 695.3195 -309.7054
v -774.922 695.3195 -307.2136
v -832.9266 693.3951 -250.018
v -834.7148 693.3951 -307.1936
v -834.7148 695.3195 -307.1936
v -777.2345 693.3951 -309.7054
v -774.922 693.3951 -252.7309
v -777.5435 687.5381 -250.018
v -778.0256 689.467 -250.018
v -832.9266 695.3195 -250.018
v -777.5435 693.3951 -250.018
v -832.2531 693.3951 -250.018
v -832.9266 691.4311 -250.018
v -832.2531 691.4311 -252.7302
v -832.9266 689.467 -250.018
v -834.7148 689.467 -307.1936
v -834.7148 687.5381 -252.1136
v -834.7148 693.3951 -306.6699
v -834.7148 691.4311 -307.1936
v -832.7659 691.4311 -306.6699
v -834.7148 689.467 -252.8391
v -834.7148 693.3951 -252.1136
v -777.2345 689.467 -309.7054
v -832.0565 687.5381 -309.7054
v -777.2345 695.3195 -309.7054
v -777.8043 693.3951 -309.7054
v -777.2345 691.4311 -309.7054
v -777.8043 691.4311 -307.7225
v -831.4276 689.467 -309.7054
v -832.0565 693.3951 -309.7054
v -774.922 689.467 -252.7309
v -774.922 687.5381 -307.2136
v -774.922 695.3195 -252.7309
v -774.922 693.3951 -253.3856
v -774.922 691.4311 -252.7309
v -777.3737 691.4311 -253.3856
v -774.922 689.467 -306.7096
v -774.922 693.3951 -307.2136
v -778.0256 691.4311 -252.7302
v -832.7659 691.4311 -252.8391
v -831.4276 691.4311 -307.7225
v -777.3737 691.4311 -306.7096
v -774.922 693.3951 -306.7096
v -774.922 689.467 -253.3856
v -831.4276 693.3951 -309.7054
v -777.8043 689.467 -309.7054
v -834.7148 693.3951 -252.8391
v -834.7148 689.467 -306.6699
v -778.0256 693.3951 -250.018
v -832.2531 689.467 -250.018
gi 0 0 0 0
gi 0 0 0 0
gi 0 0 0 0
gi 0 0 0 0
gi 0 0 0 0
gi 0 0 0 0
gi 0 0 0 0
gi 0 0 0 0
gi 0 0 0 0
gi 0 0 0 0
gi 0 0 0 0
gi 0 0 0 0
gi 0 0 0 0
gi 0 0 0 0
gi 0 0 0 0
gi 0 0 0 0
gi 0 0 0 0
gi 0 0 0 0
gi 0 0 0 0
gi 0 0 0 0
gi 0 0 0 0
gi 0 0 0 0
gi 0 0 0 0
gi 0 0 0 0
gi 0 0 0 0
gi 0 0 0 0
gi 0 0 0 0
gi 0 0 0 0
gi 0 0 0 0
gi 0 0 0 0
gi 0 0 0 0
gi 0 0 0 0
gi 0 0 0 0
gi 0 0 0 0
gi 0 0 0 0
gi 0 0 0 0
gi 0 0 0 0
gi 0 0 0 0
gi 0 0 0 0
gi 0 0 0 0
gi 0 0 0 0
gi 0 0 0 0
gi 0 0 0 0
gi 0 0 0 0
gi 0 0 0 0
gi 0 0 0 0
gi 0 0 0 0
gi 0 0 0 0
gi 0 0 0 0
gi 0 0 0 0
gi 0 0 0 0
gi 0 0 0 0
gi 0 0 0 0
gi 0 0 0 0
gi 0 0 0 0
gi 0 0 0 0
gi 0 0 0 0
gi 0 0 0 0
gi 0 0 0 0
gi 0 0 0 0
gi 0 0 0 0
gi 0 0 0 0
gi 0 0 0 0
gi 0 0 0 0
gi 0 0 0 0
gi 0 0 0 0
gi 0 0 0 0
gi 0 0 0 0
gi 0 0 0 0
gi 0 0 0 0
gi 0 0 0 0
gi 0 0 0 0
gi 0 0 0 0
gi 0 0 0 0
gi 0 0 0 0
gi 0 0 0 0
gi 0 0 0 0
gi 0 0 0 0
gi 0 0 0 0
gi 0 0 0 0
gi 0 0 0 0
gi 0 0 0 0
gi 0 0 0 0
gi 0 0 0 0
gi 0 0 0 0
gi 0 0 0 0
gi 0 0 0 0
gi 0 0 0 0
gi 0 0 0 0
gi 0 0 0 0
gi 0 0 0 0
gi 0 0 0 0
gi 0 0 0 0
gi 0 0 0 0
gi 0 0 0 0
gi 0 0 0 0
gi 0 0 0 0
gi 0 0 0 0
gi 0 0 0 0
gi 0 0 0 0
gi 0 0 0 0
gi 0 0 0 0
gi 0 0 0 0
gi 0 0 0 0
gi 0 0 0 0
gi 0 0 0 0
gi 0 0 0 0
gi 0 0 0 0
gi 0 0 0 0
gi 0 0 0 0
gi 0 0 0 0
gi 0 0 0 0
gi 0 0 0 0
gi 0 0 0 0
gi 0 0 0 0
gi 0 0 0 0
gi 0 0 0 0
gi 0 0 0 0
gi 0 0 0 0
gi 0 0 0 0
gi 0 0 0 0
gi 0 0 0 0
gi 0 0 0 0
gi 0 0 0 0
gi 0 0 0 0
gi 0 0 0 0
gi 0 0 0 0
gi 0 0 0 0
gi 0 0 0 0
gi 0 0 0 0
gi 0 0 0 0
gi 0 0 0 0
gi 0 0 0 0
gi 0 0 0 0
gi 0 0 0 0
gi 0 0 0 0
gi 0 0 0 0
gi 0 0 0 0
gi 0 0 0 0
gi 0 0 0 0
gi 0 0 0 0
gi 0 0 0 0
gi 0 0 0 0
gi 0 0 0 0
gi 0 0 0 0
gi 0 0 0 0
gi 0 0 0 0
gi 0 0 0 0
gi 0 0 0 0
gi 0 0 0 0
gi 0 0 0 0
gi 0 0 0 0
gw 0.0 0.0 0.0 0.0
gw 0.0 0.0 0.0 0.0
gw 0.0 0.0 0.0 0.0
gw 0.0 0.0 0.0 0.0
gw 0.0 0.0 0.0 0.0
gw 0.0 0.0 0.0 0.0
gw 0.0 0.0 0.0 0.0
gw 0.0 0.0 0.0 0.0
gw 0.0 0.0 0.0 0.0
gw 0.0 0.0 0.0 0.0
gw 0.0 0.0 0.0 0.0
gw 0.0 0.0 0.0 0.0
gw 0.0 0.0 0.0 0.0
gw 0.0 0.0 0.0 0.0
gw 0.0 0.0 0.0 0.0
gw 0.0 0.0 0.0 0.0
gw 0.0 0.0 0.0 0.0
gw 0.0 0.0 0.0 0.0
gw 0.0 0.0 0.0 0.0
gw 0.0 0.0 0.0 0.0
gw 0.0 0.0 0.0 0.0
gw 0.0 0.0 0.0 0.0
gw 0.0 0.0 0.0 0.0
gw 0.0 0.0 0.0 0.0
gw 0.0 0.0 0.0 0.0
gw 0.0 0.0 0.0 0.0
gw 0.0 0.0 0.0 0.0
gw 0.0 0.0 0.0 0.0
gw 0.0 0.0 0.0 0.0
gw 0.0 0.0 0.0 0.0
gw 0.0 0.0 0.0 0.0
gw 0.0 0.0 0.0 0.0
gw 0.0 0.0 0.0 0.0
gw 0.0 0.0 0.0 0.0
gw 0.0 0.0 0.0 0.0
gw 0.0 0.0 0.0 0.0
gw 0.0 0.0 0.0 0.0
gw 0.0 0.0 0.0 0.0
gw 0.0 0.0 0.0 0.0
gw 0.0 0.0 0.0 0.0
gw 0.0 0.0 0.0 0.0
gw 0.0 0.0 0.0 0.0
gw 0.0 0.0 0.0 0.0
gw 0.0 0.0 0.0 0.0
gw 0.0 0.0 0.0 0.0
gw 0.0 0.0 0.0 0.0
gw 0.0 0.0 0.0 0.0
gw 0.0 0.0 0.0 0.0
gw 0.0 0.0 0.0 0.0
gw 0.0 0.0 0.0 0.0
gw 0.0 0.0 0.0 0.0
gw 0.0 0.0 0.0 0.0
gw 0.0 0.0 0.0 0.0
gw 0.0 0.0 0.0 0.0
gw 0.0 0.0 0.0 0.0
gw 0.0 0.0 0.0 0.0
gw 0.0 0.0 0.0 0.0
gw 0.0 0.0 0.0 0.0
gw 0.0 0.0 0.0 0.0
gw 0.0 0.0 0.0 0.0
gw 0.0 0.0 0.0 0.0
gw 0.0 0.0 0.0 0.0
gw 0.0 0.0 0.0 0.0
gw 0.0 0.0 0.0 0.0
gw 0.0 0.0 0.0 0.0
gw 0.0 0.0 0.0 0.0
gw 0.0 0.0 0.0 0.0
gw 0.0 0.0 0.0 0.0
gw 0.0 0.0 0.0 0.0
gw 0.0 0.0 0.0 0.0
gw 0.0 0.0 0.0 0.0
gw 0.0 0.0 0.0 0.0
gw 0.0 0.0 0.0 0.0
gw 0.0 0.0 0.0 0.0
gw 0.0 0.0 0.0 0.0
gw 0.0 0.0 0.0 0.0
gw 0.0 0.0 0.0 0.0
gw 0.0 0.0 0.0 0.0
gw 0.0 0.0 0.0 0.0
gw 0.0 0.0 0.0 0.0
gw 0.0 0.0 0.0 0.0
gw 0.0 0.0 0.0 0.0
gw 0.0 0.0 0.0 0.0
gw 0.0 0.0 0.0 0.0
gw 0.0 0.0 0.0 0.0
gw 0.0 0.0 0.0 0.0
gw 0.0 0.0 0.0 0.0
gw 0.0 0.0 0.0 0.0
gw 0.0 0.0 0.0 0.0
gw 0.0 0.0 0.0 0.0
gw 0.0 0.0 0.0 0.0
gw 0.0 0.0 0.0 0.0
gw 0.0 0.0 0.0 0.0
gw 0.0 0.0 0.0 0.0
gw 0.0 0.0 0.0 0.0
gw 0.0 0.0 0.0 0.0
gw 0.0 0.0 0.0 0.0
gw 0.0 0.0 0.0 0.0
gw 0.0 0.0 0.0 0.0
gw 0.0 0.0 0.0 0.0
gw 0.0 0.0 0.0 0.0
gw 0.0 0.0 0.0 0.0
gw 0.0 0.0 0.0 0.0
gw 0.0 0.0 0.0 0.0
gw 0.0 0.0 0.0 0.0
gw 0.0 0.0 0.0 0.0
gw 0.0 0.0 0.0 0.0
gw 0.0 0.0 0.0 0.0
gw 0.0 0.0 0.0 0.0
gw 0.0 0.0 0.0 0.0
gw 0.0 0.0 0.0 0.0
gw 0.0 0.0 0.0 0.0
gw 0.0 0.0 0.0 0.0
gw 0.0 0.0 0.0 0.0
gw 0.0 0.0 0.0 0.0
gw 0.0 0.0 0.0 0.0
gw 0.0 0.0 0.0 0.0
gw 0.0 0.0 0.0 0.0
gw 0.0 0.0 0.0 0.0
gw 0.0 0.0 0.0 0.0
gw 0.0 0.0 0.0 0.0
gw 0.0 0.0 0.0 0.0
gw 0.0 0.0 0.0 0.0
gw 0.0 0.0 0.0 0.0
gw 0.0 0.0 0.0 0.0
gw 0.0 0.0 0.0 0.0
gw 0.0 0.0 0.0 0.0
gw 0.0 0.0 0.0 0.0
gw 0.0 0.0 0.0 0.0
gw 0.0 0.0 0.0 0.0
gw 0.0 0.0 0.0 0.0
gw 0.0 0.0 0.0 0.0
gw 0.0 0.0 0.0 0.0
gw 0.0 0.0 0.0 0.0
gw 0.0 0.0 0.0 0.0
gw 0.0 0.0 0.0 0.0
gw 0.0 0.0 0.0 0.0
gw 0.0 0.0 0.0 0.0
gw 0.0 0.0 0.0 0.0
gw 0.0 0.0 0.0 0.0
gw 0.0 0.0 0.0 0.0
gw 0.0 0.0 0.0 0.0
gw 0.0 0.0 0.0 0.0
gw 0.0 0.0 0.0 0.0
gw 0.0 0.0 0.0 0.0
gw 0.0 0.0 0.0 0.0
gw 0.0 0.0 0.0 0.0
gw 0.0 0.0 0.0 0.0
gw 0.0 0.0 0.0 0.0
gw 0.0 0.0 0.0 0.0
gw 0.0 0.0 0.0 0.0
gw 0.0 0.0 0.0 0.0
vt 0.6734 0.6622
vt 0.6713 0.6631
vt 0.6687 0.6656
vt 0.6678 0.9769
vt 0.6678 0.672
vt 0.6678 0.9705
vt 0.6678 0.6679
vt 0.6687 0.9792
vt 0.6713 0.9817
vt 0.9831 0.9826
vt 0.6807 0.9826
vt 0.9778 0.9826
vt 0.6736 0.9826
vt 0.9853 0.9817
vt 0.9879 0.9792
vt 0.9888 0.6679
vt 0.9888 0.9706
vt 0.9888 0.6754
vt 0.9888 0.9769
vt 0.9853 0.6631
vt 0.9879 0.6656
vt 0.6758 0.6622
vt 0.9761 0.6621
vt 0.9831 0.6621
vt 0.5631 0.6536
vt 0.5626 0.6526
vt 0.5616 0.6515
vt 0.4276 0.6511
vt 0.5583 0.6511
vt 0.4307 0.6511
vt 0.5606 0.6511
vt 0.4266 0.6515
vt 0.4256 0.6526
vt 0.4252 0.7863
vt 0.4252 0.6563
vt 0.4252 0.7845
vt 0.4252 0.6536
vt 0.4256 0.7873
vt 0.4266 0.7884
vt 0.5606 0.7888
vt 0.4286 0.7888
vt 0.5577 0.7888
vt 0.4276 0.7888
vt 0.5616 0.7884
vt 0.5626 0.7873
vt 0.5631 0.7831
vt 0.5631 0.6563
vt 0.5631 0.7863
vt 0.0143 0.6233
vt 0.045 0.6233
vt 0.0347 0.6166
vt 0.0244 0.6166
vt 0.0143 0.3152
vt 0.045 0.3152
vt 0.0347 0.3112
vt 0.0244 0.3112
vt 0.0143 0.321
vt 0.0551 0.321
vt 0.0551 0.3181
vt 0.0143 0.3181
vt 0.0143 0.6262
vt 0.0143 0.6291
vt 0.0551 0.6291
vt 0.0551 0.6262
vt 0.0143 0.0134
vt 0.0551 0.0134
vt 0.0551 0.0105
vt 0.0143 0.0105
vt 0.045 0.3239
vt 0.0551 0.3239
vt 0.0143 0.3239
vt 0.0551 0.6233
vt 0.0143 0.0163
vt 0.045 0.0163
vt 0.0551 0.3152
vt 0.0143 0.632
vt 0.045 0.632
vt 0.0551 0.632
vt 0.045 0.0076
vt 0.0143 0.0076
vt 0.0124 0.0165
vt 0.0124 0.0226
vt 0.0143 0.0224
vt 0.0125 0.3241
vt 0.0125 0.3264
vt 0.0143 0.3262
vt 0.0569 0.6231
vt 0.0569 0.6164
vt 0.0551 0.6166
vt 0.057 0.3151
vt 0.057 0.3112
vt 0.0551 0.3112
vt 0.0125 0.6262
vt 0.0125 0.6292
vt 0.0126 0.318
vt 0.0126 0.321
vt 0.0125 0.0104
vt 0.0122 0.0134
vt 0.0572 0.6292
vt 0.0569 0.6262
vt 0.0568 0.321
vt 0.057 0.318
vt 0.0572 0.0134
vt 0.0572 0.0104
vt 0.0126 0.623
vt 0.0576 0.0079
vt 0.0551 0.0076
vt 0.0126 0.6317
vt 0.0125 0.3152
vt 0.0126 0.0079
vt 0.0571 0.6317
vt 0.0569 0.3241
vt 0.0551 0.0163
vt 0.0572 0.0163
vt 0.0347 0.6164
vt 0.0244 0.6164
vt 0.0347 0.3091
vt 0.0244 0.3091
vt 0.0124 0.0237
vt 0.0143 0.0235
vt 0.0125 0.3292
vt 0.0143 0.329
vt 0.0569 0.6162
vt 0.0551 0.6164
vt 0.057 0.3091
vt 0.0551 0.3091
vt 0.045 0.3262
vt 0.045 0.0224
vt 0.0551 0.0224
vt 0.045 0.329
vt 0.045 0.0235
vt 0.0143 0.6166
vt 0.0244 0.6141
vt 0.0126 0.6163
vt 0.0569 0.3265
vt 0.0551 0.3262
vt 0.045 0.6166
vt 0.045 0.3298
vt 0.0347 0.3262
vt 0.0347 0.3298
vt 0.0244 0.3262
vt 0.0244 0.0224
vt 0.0125 0.3112
vt 0.0143 0.3112
vt 0.0572 0.0225
vt 0.045 0.0252
vt 0.0347 0.0224
vt 0.0347 0.0252
vt 0.0244 0.3074
vt 0.045 0.3112
vt 0.0244 0.329
vt 0.0126 0.6161
vt 0.0143 0.6164
vt 0.0551 0.329
vt 0.0569 0.3292
vt 0.045 0.332
vt 0.0347 0.329
vt 0.0347 0.332
vt 0.0244 0.6131
vt 0.045 0.6164
vt 0.0244 0.0235
vt 0.0125 0.3091
vt 0.0143 0.3091
vt 0.0551 0.0235
vt 0.0572 0.0235
vt 0.045 0.0269
vt 0.0347 0.0235
vt 0.0347 0.0269
vt 0.0244 0.3065
vt 0.045 0.3091
vt 0.0347 0.6141
vt 0.0347 0.3074
vt 0.0347 0.6131
vt 0.0347 0.3065
vt 0.045 0.3065
vt 0.0244 0.0269
vt 0.045 0.6131
vt 0.0244 0.332
vt 0.045 0.3074
vt 0.0244 0.0252
vt 0.045 0.6141
vt 0.0244 0.3298
vn -0.0814 -0.9088 0.4093
vn -0.2318 -0.9087 0.3471
vn -0.3469 -0.9088 0.2318
vn -0.4092 -0.9088 -0.0814
vn -0.3827 -0.9239 0.0
vn -0.3827 -0.9239 0.0
vn -0.4092 -0.9088 0.0814
vn -0.3469 -0.9088 -0.2318
vn -0.2318 -0.9088 -0.3469
vn 0.0814 -0.9088 -0.4092
vn 0.0 -0.9239 -0.3827
vn 0.0 -0.9239 -0.3827
vn -0.0814 -0.9087 -0.4095
vn 0.2318 -0.9088 -0.3469
vn 0.347 -0.9088 -0.2318
vn 0.4092 -0.9088 0.0814
vn 0.3827 -0.9239 0.0
vn 0.3827 -0.9239 0.0
vn 0.4092 -0.9088 -0.0814
vn 0.2318 -0.9088 0.3469
vn 0.3469 -0.9088 0.2318
vn 0.0 -0.9239 0.3827
vn 0.0 -0.9239 0.3827
vn 0.0814 -0.9088 0.4093
vn 0.4092 0.9088 -0.0815
vn 0.3469 0.9088 -0.2318
vn 0.2318 0.9088 -0.3469
vn -0.0814 0.9088 -0.4092
vn 0.0 0.9238 -0.3828
vn -0.0 0.9239 -0.3827
vn 0.0814 0.9088 -0.4092
vn -0.2319 0.9089 -0.3467
vn -0.3469 0.9088 -0.2318
vn -0.4092 0.9088 0.0814
vn -0.3827 0.9239 0.0
vn -0.3827 0.9239 0.0
vn -0.4092 0.9088 -0.0814
vn -0.3469 0.9088 0.2318
vn -0.2318 0.9088 0.347
vn 0.0814 0.9088 0.4092
vn 0.0 0.9239 0.3827
vn 0.0 0.9239 0.3827
vn -0.0813 0.9087 0.4095
vn 0.2318 0.9088 0.3469
vn 0.347 0.9088 0.2318
vn 0.3827 0.9239 0.0
vn 0.3827 0.9239 0.0
vn 0.4092 0.9088 0.0814
vn 0.1811 -0.371 0.9108
vn 0.1951 0.0 0.9808
vn -0.5691 -0.0 0.8222
vn -0.2653 0.0651 0.962
vn -0.9108 -0.371 0.1811
vn -0.9808 0.0 0.195
vn -0.8983 0.0 -0.4393
vn -0.9747 0.0774 -0.2097
vn -0.5159 -0.371 0.7721
vn -0.5159 0.371 0.7721
vn -0.7722 0.371 0.5159
vn -0.7722 -0.371 0.5159
vn 0.5159 -0.371 0.7721
vn 0.7721 -0.371 0.5159
vn 0.7721 0.3709 0.516
vn 0.5159 0.371 0.7721
vn -0.7722 -0.371 -0.5159
vn -0.7722 0.371 -0.5159
vn -0.516 0.371 -0.7721
vn -0.5159 -0.371 -0.7721
vn -0.1951 0.0 0.9808
vn -0.1812 0.371 0.9108
vn -0.1812 -0.371 0.9108
vn 0.1811 0.371 0.9108
vn -0.9108 -0.371 -0.1811
vn -0.9808 0.0 -0.1951
vn -0.9108 0.3709 0.1811
vn 0.9108 -0.3709 0.1812
vn 0.9808 0.0 0.1951
vn 0.9108 0.371 0.1812
vn -0.1952 0.0 -0.9808
vn -0.1812 -0.371 -0.9108
vn -0.9239 -0.3827 0.0
vn 0.0 -0.3827 0.9239
vn 0.0 0.3827 0.9239
vn -0.9239 0.3827 0.0
vn -0.1812 0.371 -0.9108
vn -0.9108 0.371 -0.1811
vn 0.4733 0.0 -0.8809
vn 0.2251 0.072 -0.9717
vn 0.9108 -0.371 -0.1812
vn 0.9808 0.0 -0.1951
vn 0.8358 0.0 0.549
vn 0.9641 0.066 0.2573
vn 0.5159 -0.371 -0.7721
vn 0.5159 0.371 -0.7721
vn 0.7721 0.371 -0.5159
vn 0.7721 -0.3709 -0.516
vn 0.1951 0.0 -0.9808
vn 0.1811 0.371 -0.9108
vn 0.1811 -0.371 -0.9108
vn 0.9108 0.3709 -0.1812
vn 0.9239 -0.3826 0.0
vn 0.0 -0.3827 -0.9239
vn 0.0 0.3827 -0.9239
vn 0.9239 0.3827 0.0
vn 0.2415 -0.0828 0.9669
vn -0.9687 -0.0639 0.2399
vn -0.9239 0.3827 0.0
vn -0.234 -0.0679 -0.9699
vn 0.9682 -0.0791 -0.2372
vn 0.0 -0.3827 0.9239
vn -0.2845 0.321 0.9033
vn 0.0 0.3827 0.9239
vn -0.2653 -0.0651 0.962
vn 0.2578 -0.3324 0.9072
vn 0.5149 0.0 0.8572
vn 0.4281 0.0 0.9037
vn 0.2415 0.0828 0.9669
vn -0.9687 0.0639 0.2399
vn -0.9239 -0.3827 0.0
vn -0.9286 -0.2732 0.251
vn -0.8624 0.0 0.5062
vn -0.9042 0.0 0.427
vn -0.9344 0.2813 -0.2188
vn -0.9747 -0.0774 -0.2097
vn -0.234 0.0679 -0.9699
vn 0.0 -0.3827 -0.9239
vn 0.0 0.3826 -0.9239
vn -0.2449 -0.2781 -0.9288
vn -0.4932 -0.0 -0.8699
vn -0.4171 -0.0 -0.9089
vn 0.2354 0.2806 -0.9305
vn 0.2251 -0.072 -0.9717
vn 0.9682 0.0791 -0.2372
vn 0.9239 -0.3827 0.0
vn 0.9239 0.3827 0.0
vn 0.9149 -0.3158 -0.2515
vn 0.864 -0.0 -0.5036
vn 0.907 0.0 -0.4212
vn 0.9113 0.3076 0.2736
vn 0.9641 -0.066 0.2573
vn -0.4649 0.0 0.8854
vn -0.9259 -0.0 -0.3779
vn 0.4026 -0.0 -0.9154
vn 0.8916 0.0 0.4529
vn 0.9113 -0.3077 0.2737
vn 0.9149 0.3158 -0.2515
vn 0.2354 -0.2806 -0.9305
vn -0.2449 0.2781 -0.9288
vn -0.9344 -0.2813 -0.2188
vn -0.9286 0.2732 0.251
vn -0.2845 -0.321 0.9033
vn 0.2578 0.3323 0.9073
vtan 0.9967 -0.0716 0.0391
vtan 0.9723 -0.2054 0.1116
vtan 0.9378 -0.3332 0.0972
vtan 0.9124 -0.4075 -0.0369
vtan 0.9239 -0.3827 0.0018
vtan 0.4331 -0.1794 0.8833
vtan 0.9123 -0.4089 0.0216
vtan 0.9378 -0.3326 -0.0996
vtan 0.9728 -0.2163 -0.0834
vtan 0.9967 0.0717 0.0391
vtan 1.0 0.0 0.0
vtan 1.0 0.0 0.0
vtan 0.9967 -0.0742 -0.0334
vtan 0.9723 0.2054 0.1116
vtan 0.9378 0.3333 0.097
vtan 0.9124 0.4076 -0.0369
vtan 0.9224 0.382 -0.0577
vtan 0.3961 0.1641 0.9034
vtan 0.9124 0.4066 0.0462
vtan 0.9728 0.2163 -0.0835
vtan 0.9378 0.3326 -0.0997
vtan 1.0 0.0 -0.0
vtan 1.0 -0.0001 -0.0003
vtan 0.9967 0.0742 -0.0334
vtan 0.9124 -0.4077 0.0351
vtan 0.9379 -0.3377 0.0796
vtan 0.9728 -0.2166 0.0825
vtan 0.9967 0.0742 -0.0335
vtan 1.0 0.0 -0.0
vtan 0.9967 -0.0742 0.0334
vtan 0.9724 0.2075 -0.1063
vtan 0.9379 0.3383 -0.0773
vtan 0.9124 0.4077 0.035
vtan 0.923 0.3823 -0.0448
vtan 0.1343 0.0556 -0.9894
vtan 0.9099 0.413 0.0377
vtan 0.9379 0.3376 0.0798
vtan 0.9728 0.2166 0.0825
vtan 0.9967 -0.0742 -0.0334
vtan 1.0 -0.0 -0.0
vtan 0.9967 0.0742 0.0334
vtan 0.9725 -0.2077 -0.1059
vtan 0.9378 -0.3384 -0.0772
vtan 0.9232 -0.3824 0.037
vtan 0.4769 -0.1976 -0.8565
vtan 0.9116 -0.4109 0.0054
vtan 0.0668 0.9286 0.3649
vtan 0.0 1.0 0.0
vtan 0.0 1.0 0.0
vtan 0.0173 0.9979 -0.0628
vtan -0.3578 0.9282 0.1019
vtan 0.0 1.0 0.0
vtan 0.0757 0.997 0.0163
vtan -0.1687 0.9277 0.333
vtan 0.233 0.9282 -0.2902
vtan 0.3402 0.9271 -0.1574
vtan -0.3028 0.9286 0.2145
vtan 0.233 0.9282 0.2903
vtan 0.3296 0.928 0.174
vtan -0.3028 0.9286 -0.2145
vtan -0.1687 0.9277 -0.333
vtan -0.333 0.9277 -0.1687
vtan 0.2902 0.9282 0.233
vtan 0.1739 0.928 0.3296
vtan -0.2144 0.9286 -0.3029
vtan 0.0795 0.9286 -0.3624
vtan -0.0319 0.9279 0.3716
vtan -0.0322 0.9279 -0.3716
vtan -0.3715 0.9279 -0.0321
vtan 0.3677 0.9285 -0.0523
vtan 0.3506 0.9268 0.1347
vtan -0.3451 0.925 -0.1592
vtan -0.1591 0.925 -0.3451
vtan -0.8923 0.4172 -0.1723
vtan -0.9222 0.382 -0.0608
vtan -0.3825 0.9234 -0.0322
vtan -0.1717 0.4173 0.8924
vtan -0.064 0.3819 0.922
vtan -0.0338 0.9234 0.3824
vtan -0.1724 0.4172 -0.8923
vtan -0.0607 0.382 -0.9222
vtan -0.0302 0.9235 -0.3825
vtan 0.8854 0.4171 -0.205
vtan 0.914 0.3786 -0.1459
vtan 0.3817 0.9216 -0.0699
vtan 0.4365 0.4159 0.7978
vtan 0.75 0.4172 0.5133
vtan -0.8061 0.4152 0.4217
vtan -0.5505 0.4167 0.7234
vtan -0.4431 0.4161 -0.794
vtan -0.7234 0.4166 -0.5506
vtan -0.7939 0.4162 -0.4433
vtan -0.5505 0.4166 -0.7234
vtan 0.4414 0.4162 -0.7949
vtan 0.7486 0.4171 -0.5154
vtan 0.7885 0.4164 0.4526
vtan 0.5131 0.417 0.7502
vtan 0.0719 0.4149 0.907
vtan 0.3544 0.4101 0.8404
vtan 0.1347 0.9268 0.3507
vtan 0.8403 0.4101 0.3545
vtan -0.8915 0.4172 0.1765
vtan -0.2909 0.4146 -0.8622
vtan -0.8624 0.4143 -0.2909
vtan 0.0959 0.4161 -0.9042
vtan 0.3568 0.9281 0.1067
vtan 0.8924 0.4172 0.172
vtan -0.014 0.927 -0.3748
vtan -0.0 1.0 0.0
vtan -0.0163 0.9974 0.0702
vtan 0.3578 0.9282 -0.1019
vtan 0.0 1.0 -0.0
vtan -0.0638 0.9978 -0.017
vtan 0.1687 0.9277 -0.333
vtan -0.233 0.9281 0.2903
vtan -0.3402 0.9271 0.1575
vtan 0.3028 0.9286 -0.2145
vtan -0.0799 0.9286 0.3624
vtan 0.0323 0.9279 -0.3715
vtan -0.3677 0.9285 0.0524
vtan 0.9044 0.4158 0.0956
vtan 0.9222 0.3821 0.06
vtan 0.3825 0.9235 0.03
vtan 0.3712 0.9279 0.0335
vtan 0.1725 0.4172 -0.8923
vtan 0.0623 0.3819 -0.9221
vtan 0.0319 0.9234 -0.3825
vtan 0.0955 0.4158 0.9044
vtan 0.0605 0.382 0.9222
vtan 0.0309 0.9234 0.3825
vtan 0.0335 0.9279 0.3713
vtan -0.8859 0.4171 0.2028
vtan -0.9143 0.3787 0.1436
vtan -0.3817 0.9217 0.0692
vtan 0.806 0.4153 -0.4218
vtan 0.5505 0.4166 -0.7234
vtan -0.4415 0.4161 0.795
vtan -0.7485 0.4172 0.5154
vtan 0.8915 0.4172 -0.1765
vtan -0.1061 0.4162 0.9031
vtan 0.0201 0.9966 0.0803
vtan -0.0621 0.998 0.0154
vtan 0.3821 0.9225 0.0556
vtan -0.0159 0.9977 -0.066
vtan 0.0768 0.9969 -0.0188
vtan -0.3638 0.9286 -0.0724
vtan 0.0091 0.9238 0.3827
vtan 0.0106 0.9433 -0.3318
vtan 0.019 0.3826 0.9237
vtan 0.0243 0.3826 -0.9236
vtan 0.0191 0.9237 -0.3826
vtan -0.0173 0.9979 0.0628
vtan 0.0117 0.94 0.341
vtan -0.0 1.0 0.0
vtan -0.0 1.0 0.0
vtan -0.0201 0.9966 -0.0804
vtan 0.062 0.998 -0.0154
vtan -0.9139 0.3786 0.1465
vtan -0.3816 0.9214 0.0734
vtan 0.9189 0.3806 0.1035
vtan -0.2792 0.9601 0.0119
vtan -0.0 1.0 -0.0
vtan 0.0 1.0 -0.0
vtan 0.2865 0.958 0.0081
vtan -0.0757 0.997 -0.0163
vtan 0.0159 0.9977 0.066
vtan -0.0189 0.3826 -0.9237
vtan -0.0098 0.9238 -0.3827
vtan -0.0318 0.9234 0.3824
vtan -0.0626 0.382 0.922
vtan -0.0103 0.9587 -0.2843
vtan 0.0 1.0 -0.0
vtan 0.0 1.0 -0.0
vtan -0.0094 0.958 0.2865
vtan -0.0544 0.4143 -0.9085
vtan 0.0163 0.9974 -0.0702
vtan -0.0768 0.9969 0.0188
vtan 0.9142 0.3787 -0.1444
vtan 0.3817 0.9215 -0.0716
vtan -0.3817 0.9215 -0.0712
vtan -0.9144 0.3787 -0.1433
vtan -0.8916 0.4172 -0.176
vtan 0.3241 0.946 -0.0088
vtan 0.0 1.0 0.0
vtan 0.0 1.0 0.0
vtan -0.3171 0.9483 -0.01
vtan 0.0638 0.9978 0.017
vtan 0.0 1.0 0.0
vtan -0.0 1.0 0.0
vtan -0.0 1.0 -0.0
vtan 0.0 1.0 -0.0
vtan 0.3171 0.9483 0.0101
vtan -0.3241 0.946 0.0089
vtan 0.0094 0.958 -0.2865
vtan 0.0103 0.9587 0.2843
vtan -0.2865 0.958 -0.008
vtan 0.2793 0.9601 -0.0118
vtan -0.0106 0.9433 0.3318
vtan -0.0116 0.94 -0.341
f 0/0/0/0 1/1/1/1 2/2/2/2 
f 0/0/0/0 2/2/2/2 3/3/3/3 
f 4/4/4/4 5/5/5/5 2/2/2/2 
f 4/4/4/4 2/2/2/2 6/6/6/6 
f 2/2/2/2 5/5/5/5 3/3/3/3 
f 3/3/3/3 7/7/7/7 8/8/8/8 
f 3/3/3/3 8/8/8/8 9/9/9/9 
f 10/10/10/10 11/11/11/11 8/8/8/8 
f 10/10/10/10 8/8/8/8 12/12/12/12 
f 8/8/8/8 11/11/11/11 9/9/9/9 
f 9/9/9/9 13/13/13/13 14/14/14/14 
f 9/9/9/9 14/14/14/14 15/15/15/15 
f 16/16/16/16 17/17/17/17 14/14/14/14 
f 16/16/16/16 14/14/14/14 18/18/18/18 
f 14/14/14/14 17/17/17/17 15/15/15/15 
f 0/0/0/0 3/3/3/3 9/9/9/9 
f 0/0/0/0 9/9/9/9 15/15/15/15 
f 20/19/19/19 0/0/0/0 15/15/15/15 
f 20/19/19/19 15/15/15/15 19/20/20/20 
f 22/21/21/21 0/0/0/0 20/19/19/19 
f 22/21/21/21 20/19/19/19 21/22/22/22 
f 23/23/23/23 21/22/22/22 20/19/19/19 
f 24/24/24/24 25/25/25/25 26/26/26/26 
f 24/24/24/24 26/26/26/26 27/27/27/27 
f 28/28/28/10 29/29/29/28 26/26/26/26 
f 28/28/28/10 26/26/26/26 30/30/30/29 
f 26/26/26/26 29/29/29/28 27/27/27/27 
f 27/27/27/27 31/31/31/30 32/32/32/31 
f 27/27/27/27 32/32/32/31 33/33/33/32 
f 34/34/34/33 35/35/35/34 32/32/32/31 
f 34/34/34/33 32/32/32/31 36/36/36/35 
f 32/32/32/31 35/35/35/34 33/33/33/32 
f 33/33/33/32 37/37/37/36 38/38/38/37 
f 33/33/33/32 38/38/38/37 39/39/39/38 
f 40/40/40/10 41/41/41/39 38/38/38/37 
f 40/40/40/10 38/38/38/37 42/42/42/40 
f 38/38/38/37 41/41/41/39 39/39/39/38 
f 33/33/33/32 39/39/39/38 24/24/24/24 
f 33/33/33/32 24/24/24/24 27/27/27/27 
f 39/39/39/38 43/43/43/41 44/44/44/42 
f 39/39/39/38 44/44/44/42 24/24/24/24 
f 44/44/44/42 45/45/45/43 46/46/46/44 
f 44/44/44/42 46/46/46/44 24/24/24/24 
f 47/47/47/45 45/45/45/43 44/44/44/42 
f 48/48/48/46 49/49/49/47 50/50/50/48 
f 48/48/48/46 50/50/50/48 51/51/51/49 
f 52/52/52/50 53/53/53/47 54/54/54/51 
f 52/52/52/50 54/54/54/51 55/55/55/52 
f 56/56/56/53 57/57/57/54 58/58/58/55 
f 56/56/56/53 58/58/58/55 59/59/59/56 
f 60/60/60/57 61/61/61/58 62/62/62/59 
f 60/60/60/57 62/62/62/59 63/63/63/60 
f 64/64/64/61 65/65/65/62 66/66/66/63 
f 64/64/64/61 66/66/66/63 67/67/67/64 
f 68/68/68/47 69/69/69/65 57/57/57/54 
f 68/68/68/47 57/57/57/54 56/56/56/53 
f 70/70/70/66 68/68/68/47 56/56/56/53 
f 49/49/49/47 48/48/48/46 60/60/60/57 
f 49/49/49/47 60/60/60/57 63/63/63/60 
f 71/71/71/67 49/49/49/47 63/63/63/60 
f 64/64/64/61 72/72/72/68 73/73/73/47 
f 64/64/64/61 73/73/73/47 65/65/65/62 
f 53/53/53/47 52/52/52/50 58/58/58/55 
f 53/53/53/47 58/58/58/55 74/74/74/69 
f 59/59/59/56 58/58/58/55 52/52/52/50 
f 61/61/61/58 75/75/75/70 76/76/76/47 
f 61/61/61/58 76/76/76/47 62/62/62/59 
f 62/62/62/59 76/76/76/47 77/77/77/71 
f 67/67/67/64 66/66/66/63 78/78/78/47 
f 67/67/67/64 78/78/78/47 79/79/79/72 
f 3/80/3/73 5/81/5/74 80/82/80/75 
f 3/80/3/73 80/82/80/75 72/72/72/68 
f 0/83/0/76 22/84/21/77 81/85/81/78 
f 0/83/0/76 81/85/81/78 70/70/70/66 
f 39/86/39/79 41/87/41/80 82/88/82/81 
f 39/86/39/79 82/88/82/81 71/71/71/67 
f 33/89/33/82 35/90/35/83 83/91/83/84 
f 33/89/33/82 83/91/83/84 74/74/74/69 
f 60/60/60/57 20/92/19/85 19/93/20/86 
f 60/60/60/57 19/93/20/86 61/61/61/58 
f 59/59/59/56 2/94/2/87 1/95/1/88 
f 59/59/59/56 1/95/1/88 56/56/56/53 
f 67/67/67/64 8/96/8/89 7/97/7/90 
f 67/67/67/64 7/97/7/90 64/64/64/61 
f 62/62/62/59 44/98/44/91 43/99/43/92 
f 62/62/62/59 43/99/43/92 63/63/63/60 
f 57/57/57/54 38/100/38/93 37/101/37/94 
f 57/57/57/54 37/101/37/94 58/58/58/55 
f 65/65/65/62 32/102/32/95 31/103/31/96 
f 65/65/65/62 31/103/31/96 66/66/66/63 
f 48/48/48/46 23/104/23/97 20/92/19/85 
f 48/48/48/46 20/92/19/85 60/60/60/57 
f 0/83/0/76 70/70/70/66 56/56/56/53 
f 0/83/0/76 56/56/56/53 1/95/1/88 
f 64/64/64/61 7/97/7/90 3/80/3/73 
f 64/64/64/61 3/80/3/73 72/72/72/68 
f 63/63/63/60 43/99/43/92 39/86/39/79 
f 63/63/63/60 39/86/39/79 71/71/71/67 
f 58/58/58/55 37/101/37/94 33/89/33/82 
f 58/58/58/55 33/89/33/82 74/74/74/69 
f 66/66/66/63 31/103/31/96 27/105/27/98 
f 66/66/66/63 27/105/27/98 84/106/84/99 
f 61/61/61/58 19/93/20/86 15/107/15/100 
f 61/61/61/58 15/107/15/100 75/75/75/70 
f 52/52/52/50 6/108/6/101 2/94/2/87 
f 52/52/52/50 2/94/2/87 59/59/59/56 
f 79/79/79/72 12/109/12/102 8/96/8/89 
f 79/79/79/72 8/96/8/89 67/67/67/64 
f 77/77/77/71 47/110/47/103 44/98/44/91 
f 77/77/77/71 44/98/44/91 62/62/62/59 
f 69/69/69/65 42/111/42/104 38/100/38/93 
f 69/69/69/65 38/100/38/93 57/57/57/54 
f 85/112/85/105 36/113/36/106 32/102/32/95 
f 85/112/85/105 32/102/32/95 65/65/65/62 
f 79/48/79/107 78/49/78/47 86/114/86/108 
f 79/48/79/107 86/114/86/108 87/115/87/109 
f 88/52/88/110 89/53/89/47 90/116/90/111 
f 88/52/88/110 90/116/90/111 91/117/91/112 
f 92/56/92/113 93/57/93/114 94/58/94/115 
f 92/56/92/113 94/58/94/115 95/59/95/116 
f 96/68/96/47 97/69/97/117 93/57/93/114 
f 96/68/96/47 93/57/93/114 92/56/92/113 
f 98/70/98/118 96/68/96/47 92/56/92/113 
f 89/53/89/47 88/52/88/110 94/58/94/115 
f 89/53/89/47 94/58/94/115 99/74/99/119 
f 95/59/95/116 94/58/94/115 88/52/88/110 
f 15/80/15/120 17/118/17/121 100/119/100/122 
f 15/80/15/120 100/119/100/122 75/72/75/123 
f 9/83/9/124 11/120/11/125 101/121/101/126 
f 9/83/9/124 101/121/101/126 98/70/98/118 
f 27/86/27/127 29/122/29/128 102/123/102/129 
f 27/86/27/127 102/123/102/129 84/71/84/130 
f 24/89/24/131 46/124/46/132 103/125/103/133 
f 24/89/24/131 103/125/103/133 99/74/99/119 
f 95/59/95/116 14/94/14/134 13/95/13/135 
f 95/59/95/116 13/95/13/135 92/56/92/113 
f 93/57/93/114 26/100/26/136 25/101/25/137 
f 93/57/93/114 25/101/25/137 94/58/94/115 
f 92/56/92/113 13/95/13/135 9/83/9/124 
f 92/56/92/113 9/83/9/124 98/70/98/118 
f 94/58/94/115 25/101/25/137 24/89/24/131 
f 94/58/94/115 24/89/24/131 99/74/99/119 
f 88/52/88/110 18/108/18/138 14/94/14/134 
f 88/52/88/110 14/94/14/134 95/59/95/116 
f 97/69/97/117 30/111/30/139 26/100/26/136 
f 97/69/97/117 26/100/26/136 93/57/93/114 
f 68/68/68/47 104/126/104/140 69/69/69/65 
f 73/73/73/47 105/127/105/141 106/128/106/142 
f 73/73/73/47 106/128/106/142 85/112/85/105 
f 96/68/96/47 107/129/107/143 97/69/97/117 
f 76/73/76/47 108/130/108/144 77/112/77/145 
f 109/131/109/146 51/51/51/49 110/132/110/147 
f 109/131/109/146 21/133/22/148 23/104/23/97 
f 109/131/109/146 23/104/23/97 48/48/48/46 
f 41/87/41/80 40/134/40/149 111/135/111/150 
f 41/87/41/80 111/135/111/150 82/88/82/81 
f 82/88/82/81 112/136/112/151 71/71/71/67 
f 112/136/112/151 50/50/50/48 49/49/49/47 
f 22/84/21/77 21/133/22/148 109/131/109/146 
f 22/84/21/77 109/131/109/146 81/85/81/78 
f 111/135/111/150 104/126/104/140 113/137/113/152 
f 113/137/113/152 104/126/104/140 114/138/114/153 
f 113/137/113/152 114/138/114/153 115/139/115/154 
f 81/85/81/78 116/140/116/155 70/70/70/66 
f 111/135/111/150 40/134/40/149 42/111/42/104 
f 111/135/111/150 42/111/42/104 69/69/69/65 
f 80/82/80/75 117/141/117/156 72/72/72/68 
f 5/81/5/74 4/142/4/157 118/143/118/158 
f 5/81/5/74 118/143/118/158 80/82/80/75 
f 106/128/106/142 34/144/34/159 36/113/36/106 
f 106/128/106/142 36/113/36/106 85/112/85/105 
f 106/128/106/142 105/127/105/141 119/145/119/160 
f 119/145/119/160 105/127/105/141 120/146/120/161 
f 119/145/119/160 120/146/120/161 121/147/121/162 
f 118/143/118/158 55/55/55/52 122/148/122/163 
f 35/90/35/83 34/144/34/159 106/128/106/142 
f 35/90/35/83 106/128/106/142 83/91/83/84 
f 118/143/118/158 4/142/4/157 6/108/6/101 
f 118/143/118/158 6/108/6/101 52/52/52/50 
f 83/91/83/84 123/149/123/164 74/74/74/69 
f 123/149/123/164 54/54/54/51 53/53/53/47 
f 101/121/101/126 124/150/124/165 98/70/98/118 
f 11/120/11/125 10/151/10/166 125/152/125/167 
f 11/120/11/125 125/152/125/167 101/121/101/126 
f 126/153/126/168 28/154/28/169 30/111/30/139 
f 126/153/126/168 30/111/30/139 97/69/97/117 
f 126/153/126/168 107/129/107/143 127/155/127/170 
f 127/155/127/170 107/129/107/143 128/156/128/171 
f 127/155/127/170 128/156/128/171 129/157/129/172 
f 125/152/125/167 87/115/87/109 130/158/130/173 
f 29/122/29/128 28/154/28/169 126/153/126/168 
f 29/122/29/128 126/153/126/168 102/123/102/129 
f 125/152/125/167 10/151/10/166 12/104/12/174 
f 125/152/125/167 12/104/12/174 79/48/79/107 
f 102/123/102/129 131/159/131/175 78/49/78/47 
f 102/123/102/129 78/49/78/47 84/71/84/130 
f 131/159/131/175 86/114/86/108 78/49/78/47 
f 100/119/100/122 132/160/132/176 75/72/75/123 
f 17/118/17/121 16/161/16/177 133/162/133/178 
f 17/118/17/121 133/162/133/178 100/119/100/122 
f 134/163/134/179 45/164/45/180 47/113/47/181 
f 134/163/134/179 47/113/47/181 77/112/77/145 
f 134/163/134/179 108/130/108/144 135/165/135/182 
f 135/165/135/182 108/130/108/144 136/166/136/183 
f 135/165/135/182 136/166/136/183 137/167/137/184 
f 133/162/133/178 91/117/91/112 138/168/138/185 
f 46/124/46/132 45/164/45/180 134/163/134/179 
f 46/124/46/132 134/163/134/179 103/125/103/133 
f 133/162/133/178 16/161/16/177 18/108/18/138 
f 133/162/133/178 18/108/18/138 88/52/88/110 
f 103/125/103/133 139/169/139/186 99/74/99/119 
f 139/169/139/186 90/116/90/111 89/53/89/47 
f 50/50/50/48 140/170/140/187 110/132/110/147 
f 50/50/50/48 110/132/110/147 51/51/51/49 
f 54/54/54/51 141/171/141/188 122/148/122/163 
f 54/54/54/51 122/148/122/163 55/55/55/52 
f 86/114/86/108 142/172/142/189 130/158/130/173 
f 86/114/86/108 130/158/130/173 87/115/87/109 
f 90/116/90/111 143/173/143/190 138/168/138/185 
f 90/116/90/111 138/168/138/185 91/117/91/112 
f 135/165/135/182 137/167/137/184 143/173/143/190 
f 135/165/135/182 143/173/143/190 144/174/144/191 
f 145/175/145/192 137/167/137/184 136/166/136/183 
f 145/175/145/192 136/166/136/183 132/160/132/176 
f 138/168/138/185 143/173/143/190 137/167/137/184 
f 138/168/138/185 137/167/137/184 145/175/145/192 
f 144/174/144/191 143/173/143/190 90/116/90/111 
f 144/174/144/191 90/116/90/111 139/169/139/186 
f 127/155/127/170 129/157/129/172 142/172/142/189 
f 127/155/127/170 142/172/142/189 146/176/146/193 
f 147/177/147/194 129/157/129/172 128/156/128/171 
f 147/177/147/194 128/156/128/171 124/150/124/165 
f 130/158/130/173 142/172/142/189 129/157/129/172 
f 130/158/130/173 129/157/129/172 147/177/147/194 
f 146/176/146/193 142/172/142/189 86/114/86/108 
f 146/176/146/193 86/114/86/108 131/159/131/175 
f 119/145/119/160 121/147/121/162 141/171/141/188 
f 119/145/119/160 141/171/141/188 148/178/148/195 
f 149/179/149/196 121/147/121/162 120/146/120/161 
f 149/179/149/196 120/146/120/161 117/141/117/156 
f 122/148/122/163 141/171/141/188 121/147/121/162 
f 122/148/122/163 121/147/121/162 149/179/149/196 
f 148/178/148/195 141/171/141/188 54/54/54/51 
f 148/178/148/195 54/54/54/51 123/149/123/164 
f 113/137/113/152 115/139/115/154 140/170/140/187 
f 113/137/113/152 140/170/140/187 150/180/150/197 
f 151/181/151/198 115/139/115/154 114/138/114/153 
f 151/181/151/198 114/138/114/153 116/140/116/155 
f 110/132/110/147 140/170/140/187 115/139/115/154 
f 110/132/110/147 115/139/115/154 151/181/151/198 
f 150/180/150/197 140/170/140/187 50/50/50/48 
f 150/180/150/197 50/50/50/48 112/136/112/151 
f 68/68/68/47 114/138/114/153 104/126/104/140 
f 83/91/83/84 148/178/148/195 123/149/123/164 
f 118/143/118/158 122/148/122/163 149/179/149/196 
f 118/143/118/158 149/179/149/196 80/82/80/75 
f 111/135/111/150 113/137/113/152 150/180/150/197 
f 111/135/111/150 150/180/150/197 82/88/82/81 
f 81/85/81/78 151/181/151/198 116/140/116/155 
f 106/128/106/142 119/145/119/160 148/178/148/195 
f 106/128/106/142 148/178/148/195 83/91/83/84 
f 80/82/80/75 149/179/149/196 117/141/117/156 
f 73/73/73/47 120/146/120/161 105/127/105/141 
f 125/152/125/167 130/158/130/173 147/177/147/194 
f 125/152/125/167 147/177/147/194 101/121/101/126 
f 102/123/102/129 146/176/146/193 131/159/131/175 
f 126/153/126/168 127/155/127/170 146/176/146/193 
f 126/153/126/168 146/176/146/193 102/123/102/129 
f 96/68/96/47 128/156/128/171 107/129/107/143 
f 133/162/133/178 138/168/138/185 145/175/145/192 
f 133/162/133/178 145/175/145/192 100/119/100/122 
f 103/125/103/133 144/174/144/191 139/169/139/186 
f 101/121/101/126 147/177/147/194 124/150/124/165 
f 76/73/76/47 136/166/136/183 108/130/108/144 
f 82/88/82/81 150/180/150/197 112/136/112/151 
f 109/131/109/146 110/132/110/147 151/181/151/198 
f 109/131/109/146 151/181/151/198 81/85/81/78 
f 100/119/100/122 145/175/145/192 132/160/132/176 
f 134/163/134/179 135/165/135/182 144/174/144/191 
f 134/163/134/179 144/174/144/191 103/125/103/133 
f 52/52/52/50 55/55/55/52 118/143/118/158 
f 74/74/74/69 123/149/123/164 53/53/53/47 
f 69/69/69/65 104/126/104/140 111/135/111/150 
f 70/70/70/66 116/140/116/155 114/138/114/153 
f 70/70/70/66 114/138/114/153 68/68/68/47 
f 65/65/65/62 73/73/73/47 85/112/85/105 
f 78/78/78/47 66/66/66/63 84/106/84/99 
f 79/48/79/107 87/115/87/109 125/152/125/167 
f 72/72/72/68 117/141/117/156 120/146/120/161 
f 72/72/72/68 120/146/120/161 73/73/73/47 
f 99/74/99/119 139/169/139/186 89/53/89/47 
f 98/70/98/118 124/150/124/165 128/156/128/171 
f 98/70/98/118 128/156/128/171 96/68/96/47 
f 88/52/88/110 91/117/91/112 133/162/133/178 
f 97/69/97/117 107/129/107/143 126/153/126/168 
f 77/112/77/145 108/130/108/144 134/163/134/179 
f 71/71/71/67 112/136/112/151 49/49/49/47 
f 48/48/48/46 51/51/51/49 109/131/109/146 
f 75/72/75/123 132/160/132/176 136/166/136/183 
f 75/72/75/123 136/166/136/183 76/73/76/47 
