v -155.3292 229.0133 567.1439
v -165.661 239.2432 554.2698
v -64.8416 239.2432 554.2698
v -64.821 228.4796 567.1439
v -128.8519 199.3155 567.1439
v -128.0989 5.7999 567.1438
v -154.2131 -2.135 567.1438
v -13.248 188.2831 574.7588
v -12.3618 190.4989 574.7588
v -11.5863 191.6068 574.7588
v -8.8165 187.286 574.7587
v -0.6753 199.3155 574.7588
v -0.6753 175.2101 574.7587
v -3.1664 176.2072 574.7587
v -4.8282 184.0732 574.7587
v -4.7174 178.977 574.7587
v -6.3793 186.7321 574.7587
v -11.4755 185.8458 574.7587
v -13.4696 193.1578 574.7588
v -12.5834 196.9246 574.7588
v -12.4725 199.3155 574.7588
v -118.041 190.7719 586.1813
v -118.8447 191.522 586.1813
v -117.8268 192.915 586.1813
v -118.0946 188.1466 586.1813
v -118.041 195.4332 586.1813
v -118.6305 196.5048 586.1813
v -117.7196 198.0586 586.1813
v -117.7196 199.3155 586.1813
v -65.0961 199.3155 586.1813
v -120.1842 187.1822 586.1812
v -64.3871 5.7999 586.1812
v -128.0989 5.7999 586.1812
v -126.7743 177.6452 586.1812
v -128.7561 174.6988 586.1812
v -125.2742 182.6816 586.1812
v -123.9883 186.8607 586.1812
v -122.0594 188.093 586.1813
v -118.6305 196.5048 574.7588
v -118.041 195.4332 574.7588
v -117.8268 192.915 574.7588
v -128.8519 199.3155 574.7588
v -118.8447 191.522 574.7588
v -117.7196 198.0586 574.7588
v -117.7196 199.3155 574.7588
v -118.041 190.7719 574.7588
v -118.0946 188.1466 574.7588
v -120.1842 187.1822 574.7587
v -125.2742 182.6816 574.7587
v -126.7743 177.6452 574.7587
v -128.7561 174.6988 574.7587
v -123.9883 186.8607 574.7587
v -122.0594 188.093 574.7588
v -65.0961 199.3155 567.1439
v -0.6753 199.3155 567.1439
v -0.6753 5.7999 567.1438
v -0.6753 175.2101 586.1812
v -3.1664 176.2072 586.1812
v -0.6753 5.7999 586.1812
v -64.3871 5.7999 567.1438
v -12.5834 196.9246 586.1813
v -12.4725 199.3155 586.1813
v -13.4696 193.1578 586.1813
v -11.5863 191.6068 586.1813
v -12.3618 190.4989 586.1813
v -13.248 188.2831 586.1813
v -11.4755 185.8458 586.1812
v -8.8165 187.286 586.1812
v -6.3793 186.7321 586.1812
v -4.8282 184.0732 586.1812
v -4.7174 178.977 586.1812
v -64.8497 243.5642 554.2698
v 41.1111 243.5642 554.2698
v 37.0472 239.2432 554.2698
v 26.4181 227.9416 567.1439
v -64.2632 -2.135 567.1438
v 25.6868 -2.135 567.1438
v -170.0249 243.5642 554.2698
v 39.0792 239.2432 598.5663
v 27.3276 228.2106 605.0135
v 41.1111 243.5642 598.5624
v -156.2388 229.2823 605.0137
v -167.6929 239.2432 598.5663
v -169.7249 243.5642 598.5624
v -169.7249 243.5642 554.2698
v -153.3036 -1.8661 605.0136
v -63.3536 -1.8661 605.0136
v 26.5963 -1.8661 605.0136
gi 0 0 0 0
gw 0.0 0.0 0.0 0.0
gi 0 0 0 0
gw 0.0 0.0 0.0 0.0
gi 0 0 0 0
gw 0.0 0.0 0.0 0.0
gi 0 0 0 0
gw 0.0 0.0 0.0 0.0
gi 0 0 0 0
gw 0.0 0.0 0.0 0.0
gi 0 0 0 0
gw 0.0 0.0 0.0 0.0
gi 0 0 0 0
gw 0.0 0.0 0.0 0.0
gi 0 0 0 0
gw 0.0 0.0 0.0 0.0
gi 0 0 0 0
gw 0.0 0.0 0.0 0.0
gi 0 0 0 0
gw 0.0 0.0 0.0 0.0
gi 0 0 0 0
gw 0.0 0.0 0.0 0.0
gi 0 0 0 0
gw 0.0 0.0 0.0 0.0
gi 0 0 0 0
gw 0.0 0.0 0.0 0.0
gi 0 0 0 0
gw 0.0 0.0 0.0 0.0
gi 0 0 0 0
gw 0.0 0.0 0.0 0.0
gi 0 0 0 0
gw 0.0 0.0 0.0 0.0
gi 0 0 0 0
gw 0.0 0.0 0.0 0.0
gi 0 0 0 0
gw 0.0 0.0 0.0 0.0
gi 0 0 0 0
gw 0.0 0.0 0.0 0.0
gi 0 0 0 0
gw 0.0 0.0 0.0 0.0
gi 0 0 0 0
gw 0.0 0.0 0.0 0.0
gi 0 0 0 0
gw 0.0 0.0 0.0 0.0
gi 0 0 0 0
gw 0.0 0.0 0.0 0.0
gi 0 0 0 0
gw 0.0 0.0 0.0 0.0
gi 0 0 0 0
gw 0.0 0.0 0.0 0.0
gi 0 0 0 0
gw 0.0 0.0 0.0 0.0
gi 0 0 0 0
gw 0.0 0.0 0.0 0.0
gi 0 0 0 0
gw 0.0 0.0 0.0 0.0
gi 0 0 0 0
gw 0.0 0.0 0.0 0.0
gi 0 0 0 0
gw 0.0 0.0 0.0 0.0
gi 0 0 0 0
gw 0.0 0.0 0.0 0.0
gi 0 0 0 0
gw 0.0 0.0 0.0 0.0
gi 0 0 0 0
gw 0.0 0.0 0.0 0.0
gi 0 0 0 0
gw 0.0 0.0 0.0 0.0
gi 0 0 0 0
gw 0.0 0.0 0.0 0.0
gi 0 0 0 0
gw 0.0 0.0 0.0 0.0
gi 0 0 0 0
gw 0.0 0.0 0.0 0.0
gi 0 0 0 0
gw 0.0 0.0 0.0 0.0
gi 0 0 0 0
gw 0.0 0.0 0.0 0.0
gi 0 0 0 0
gw 0.0 0.0 0.0 0.0
gi 0 0 0 0
gw 0.0 0.0 0.0 0.0
gi 0 0 0 0
gw 0.0 0.0 0.0 0.0
gi 0 0 0 0
gw 0.0 0.0 0.0 0.0
gi 0 0 0 0
gw 0.0 0.0 0.0 0.0
gi 0 0 0 0
gw 0.0 0.0 0.0 0.0
gi 0 0 0 0
gw 0.0 0.0 0.0 0.0
gi 0 0 0 0
gw 0.0 0.0 0.0 0.0
gi 0 0 0 0
gw 0.0 0.0 0.0 0.0
gi 0 0 0 0
gw 0.0 0.0 0.0 0.0
gi 0 0 0 0
gw 0.0 0.0 0.0 0.0
gi 0 0 0 0
gw 0.0 0.0 0.0 0.0
gi 0 0 0 0
gw 0.0 0.0 0.0 0.0
gi 0 0 0 0
gw 0.0 0.0 0.0 0.0
gi 0 0 0 0
gw 0.0 0.0 0.0 0.0
gi 0 0 0 0
gw 0.0 0.0 0.0 0.0
gi 0 0 0 0
gw 0.0 0.0 0.0 0.0
gi 0 0 0 0
gw 0.0 0.0 0.0 0.0
gi 0 0 0 0
gw 0.0 0.0 0.0 0.0
gi 0 0 0 0
gw 0.0 0.0 0.0 0.0
gi 0 0 0 0
gw 0.0 0.0 0.0 0.0
gi 0 0 0 0
gw 0.0 0.0 0.0 0.0
gi 0 0 0 0
gw 0.0 0.0 0.0 0.0
gi 0 0 0 0
gw 0.0 0.0 0.0 0.0
gi 0 0 0 0
gw 0.0 0.0 0.0 0.0
gi 0 0 0 0
gw 0.0 0.0 0.0 0.0
gi 0 0 0 0
gw 0.0 0.0 0.0 0.0
gi 0 0 0 0
gw 0.0 0.0 0.0 0.0
gi 0 0 0 0
gw 0.0 0.0 0.0 0.0
gi 0 0 0 0
gw 0.0 0.0 0.0 0.0
gi 0 0 0 0
gw 0.0 0.0 0.0 0.0
gi 0 0 0 0
gw 0.0 0.0 0.0 0.0
gi 0 0 0 0
gw 0.0 0.0 0.0 0.0
gi 0 0 0 0
gw 0.0 0.0 0.0 0.0
gi 0 0 0 0
gw 0.0 0.0 0.0 0.0
gi 0 0 0 0
gw 0.0 0.0 0.0 0.0
gi 0 0 0 0
gw 0.0 0.0 0.0 0.0
gi 0 0 0 0
gw 0.0 0.0 0.0 0.0
gi 0 0 0 0
gw 0.0 0.0 0.0 0.0
gi 0 0 0 0
gw 0.0 0.0 0.0 0.0
gi 0 0 0 0
gw 0.0 0.0 0.0 0.0
gi 0 0 0 0
gw 0.0 0.0 0.0 0.0
gi 0 0 0 0
gw 0.0 0.0 0.0 0.0
gi 0 0 0 0
gw 0.0 0.0 0.0 0.0
gi 0 0 0 0
gw 0.0 0.0 0.0 0.0
gi 0 0 0 0
gw 0.0 0.0 0.0 0.0
gi 0 0 0 0
gw 0.0 0.0 0.0 0.0
gi 0 0 0 0
gw 0.0 0.0 0.0 0.0
gi 0 0 0 0
gw 0.0 0.0 0.0 0.0
vt 0.9068 0.9628
vt 0.93 0.9864
vt 0.7037 0.9864
vt 0.7036 0.9615
vt 0.9043 0.429
vt 0.8474 0.8942
vt 0.8457 0.4474
vt 0.5879 0.8687
vt 0.5859 0.8738
vt 0.5841 0.8764
vt 0.5779 0.8664
vt 0.5597 0.8942
vt 0.5597 0.8385
vt 0.5652 0.8408
vt 0.569 0.859
vt 0.5687 0.8472
vt 0.5725 0.8651
vt 0.5839 0.8631
vt 0.5884 0.88
vt 0.5864 0.8887
vt 0.5861 0.8942
vt 0.8231 0.8745
vt 0.8249 0.8762
vt 0.8226 0.8794
vt 0.8232 0.8684
vt 0.8231 0.8852
vt 0.8244 0.8877
vt 0.8224 0.8913
vt 0.8224 0.8942
vt 0.7043 0.8942
vt 0.8279 0.8662
vt 0.7027 0.4474
vt 0.8427 0.8442
vt 0.8472 0.8373
vt 0.8393 0.8558
vt 0.8365 0.8654
vt 0.8321 0.8683
vt 0.5059 0.9467
vt 0.5059 0.7776
vt 0.5261 0.9171
vt 0.5261 0.9467
vt 0.5059 1.0114
vt 0.5059 0.4982
vt 0.5261 0.9475
vt 0.5261 1.0114
vt 0.5564 0.4982
vt 0.5564 0.9475
vt 0.5059 0.7552
vt 0.5564 0.7552
vt 0.5564 0.9241
vt 0.5059 0.9241
vt 0.5362 0.883
vt 0.5059 0.883
vt 0.5059 0.4351
vt 0.5564 0.4351
vt 0.5564 0.7776
vt 0.5564 0.9171
vt 0.5564 0.9483
vt 0.5362 0.9483
vt 0.7037 0.9964
vt 0.4659 0.9964
vt 0.475 0.9864
vt 0.4988 0.9603
vt 0.5261 0.6381
vt 0.5564 0.6381
vt 0.5059 0.6068
vt 0.5261 0.6068
vt 0.7024 0.429
vt 0.5597 0.4474
vt 0.5005 0.429
vt 0.9398 0.9964
vt 0.8168 0.9864
vt 0.8052 0.9621
vt 0.9282 0.9964
vt 0.816 0.9964
vt 0.0591 0.4827
vt 0.0186 0.4821
vt 0.0186 0.0022
vt 0.0592 0.0028
vt 0.0216 0.2307
vt 0.0621 0.2313
vt 0.0592 0.4179
vt 0.0186 0.4174
vt 0.028 0.0101
vt 0.0686 0.0107
vt 0.0651 0.4883
vt 0.0245 0.4877
vt 0.5059 0.5863
vt 0.5564 0.5863
vt 0.0245 0.0441
vt 0.0651 0.0446
vn -0.57 -0.6166 -0.5431
vn -0.4345 -0.5462 -0.7162
vn -0.0022 -0.4234 -0.9059
vn -0.0012 -0.4234 -0.9059
vn -0.5777 -0.5764 -0.5779
vn 0.3014 -0.3003 -0.905
vn 0.3016 0.3028 -0.9041
vn -0.7842 -0.0979 -0.6128
vn -0.6432 0.3477 -0.6821
vn -0.4415 -0.0602 -0.8952
vn 0.0824 -0.6002 -0.7956
vn -0.5774 -0.5774 -0.5773
vn -0.9423 -0.2595 -0.2117
vn -0.5074 -0.5779 -0.6392
vn -0.6163 -0.1738 -0.7681
vn -0.7278 -0.1984 -0.6565
vn -0.3838 -0.523 -0.761
vn -0.1793 -0.7912 -0.5846
vn -0.7542 -0.2545 -0.6053
vn -0.7197 0.1005 -0.687
vn -0.3042 -0.8995 -0.3135
vn 0.7184 0.3035 -0.626
vn 0.8082 0.0765 -0.5839
vn 0.584 -0.1636 -0.7951
vn 0.6576 -0.4302 -0.6184
vn 0.7162 0.2167 -0.6634
vn 0.7915 -0.0108 -0.611
vn 0.6186 -0.1679 -0.7675
vn 0.5774 -0.5774 -0.5774
vn 0.0 -0.7071 -0.7071
vn -0.0057 -0.5763 -0.8172
vn 0.0 0.7071 -0.7071
vn 0.5761 0.5784 -0.5775
vn 0.6056 -0.2857 -0.7427
vn 0.7301 -0.2211 -0.6466
vn 0.6777 -0.2052 -0.7061
vn 0.6134 -0.4667 -0.6371
vn 0.046 -0.7896 -0.612
vn 0.5475 -0.0075 -0.8368
vn 0.7164 0.2168 -0.6632
vn 0.743 -0.2081 -0.6361
vn 0.5786 -0.5764 -0.5771
vn 0.4536 0.043 -0.8902
vn 0.7312 -0.1985 -0.6526
vn 0.3015 -0.9045 -0.3015
vn 0.7185 0.3036 -0.6258
vn 0.6663 -0.436 -0.605
vn -0.0077 -0.7828 -0.6223
vn 0.6777 -0.2052 -0.7061
vn 0.6675 -0.3149 -0.6747
vn 0.9852 -0.1406 -0.0976
vn 0.598 -0.455 -0.6598
vn 0.032 -0.5491 -0.8351
vn 0.0 -0.7071 -0.7071
vn -0.3015 -0.3015 -0.9045
vn -0.3015 0.3015 -0.9045
vn -0.6625 -0.4484 -0.6001
vn -0.5073 -0.5778 -0.6394
vn -0.5774 0.5773 -0.5773
vn 0.0 0.7071 -0.7071
vn -0.7197 0.1005 -0.6869
vn -0.5918 -0.565 -0.575
vn -0.5034 -0.1698 -0.8472
vn -0.806 -0.11 -0.5816
vn -0.6431 0.3476 -0.6823
vn -0.5524 -0.0689 -0.8308
vn -0.1067 -0.4712 -0.8756
vn 0.105 -0.7647 -0.6358
vn -0.4607 -0.6277 -0.6275
vn -0.7274 -0.2052 -0.6549
vn -0.6204 -0.1691 -0.7658
vn 0.0 0.0 -1.0
vn 0.7195 -0.5075 -0.474
vn 0.4437 -0.5427 -0.7131
vn 0.5772 -0.5937 -0.5606
vn 0.0 -0.7096 -0.7046
vn 0.5684 -0.5817 -0.5818
vn 0.0 0.0 -1.0
vn 0.7543 -0.6562 -0.0209
vn 0.9396 -0.3414 -0.0253
vn 0.8172 -0.5761 -0.0187
vn -0.9345 -0.3558 -0.0101
vn -0.7404 -0.6719 -0.0204
vn -0.8172 -0.5761 -0.0187
vn -0.8169 -0.5765 -0.0188
vn -0.7002 -0.714 0.0051
vn 0.0 -1.0 0.0071
vn 0.7128 -0.7012 -0.0121
vtan -0.8216 0.4273 0.3772 1.0
vtan -0.9007 0.2635 0.3455 1.0
vtan -1.0 -0.0003 0.0026 1.0
vtan -1.0 -0.0009 0.0017 1.0
vtan -0.8163 0.4086 0.4084 1.0
vtan -0.9535 -0.0951 -0.286 1.0
vtan -0.9534 0.0963 -0.2858 1.0
vtan -0.6205 0.1267 0.7739 1.0
vtan -0.7632 -0.22 0.6075 1.0
vtan -0.8973 0.0305 0.4405 1.0
vtan -0.9966 -0.0512 -0.0646 1.0
vtan -0.8165 0.4081 0.4084 1.0
vtan -0.3349 0.7309 0.5947 1.0
vtan -0.8617 0.3406 0.3761 1.0
vtan -0.7875 0.1342 0.6015 1.0
vtan -0.6858 0.2157 0.6951 1.0
vtan -0.9234 0.22 0.3145 1.0
vtan -0.9838 0.1438 0.1071 1.0
vtan -0.6566 0.2878 0.6971 1.0
vtan -0.6939 -0.1345 0.7074 1.0
vtan -0.9526 0.2866 0.1021 1.0
vtan -0.6772 0.0994 -0.729 1.0
vtan -0.5889 0.1175 -0.7997 1.0
vtan -0.8117 -0.1175 -0.5721 1.0
vtan -0.7534 -0.3732 -0.5414 1.0
vtan -0.6971 0.2683 -0.6649 1.0
vtan -0.6111 -0.024 -0.7912 1.0
vtan -0.7857 -0.1318 -0.6044 1.0
vtan -0.8165 -0.4082 -0.4082 1.0
vtan -1.0 -0.0001 0.0001 1.0
vtan -1.0 0.0049 0.0035 1.0
vtan -1.0 0.0 0.0 1.0
vtan -0.8174 0.4077 -0.4071 1.0
vtan -0.7957 -0.214 -0.5666 1.0
vtan -0.6831 -0.208 -0.7001 1.0
vtan 0.7679 0.4547 0.4512 -1.0
vtan 0.7035 0.4602 0.5416 -1.0
vtan 0.7702 0.5321 0.3517 -1.0
vtan -0.7898 -0.3568 -0.499 1.0
vtan -0.9989 -0.0342 -0.0309 1.0
vtan -0.8368 -0.0067 -0.5474 1.0
vtan -0.6972 0.1861 -0.6923 1.0
vtan -0.6693 -0.2347 -0.705 1.0
vtan -0.8156 -0.4086 -0.4097 1.0
vtan -0.8886 -0.0546 -0.4554 1.0
vtan -0.6821 -0.2126 -0.6996 1.0
vtan -0.9535 -0.286 -0.0953 1.0
vtan -0.6955 0.3106 -0.6479 1.0
vtan -0.7457 -0.397 -0.5352 1.0
vtan -1.0 0.0058 0.0052 1.0
vtan -0.7322 -0.0997 -0.6737 1.0
vtan -0.7434 -0.2311 -0.6277 1.0
vtan -0.1706 -0.76 -0.6271 1.0
vtan -0.8015 -0.3369 -0.494 1.0
vtan -0.9995 -0.015 -0.0284 1.0
vtan 0.6402 -0.6397 0.4254 1.0
vtan -0.0001 -0.7071 0.7071 1.0
vtan 0.0935 -0.2866 0.9535 1.0
vtan 0.4088 -0.4073 0.8167 1.0
vtan -0.6394 -0.6398 0.4264 1.0
vtan -0.6396 0.6396 0.4264 1.0
vtan -0.2039 -0.057 0.9773 1.0
vtan -0.4082 -0.4082 0.8165 1.0
vtan -0.7491 0.3968 0.5305 1.0
vtan -0.8618 0.3394 0.3771 1.0
vtan -0.4082 0.4082 0.8165 1.0
vtan -0.4969 -0.3364 0.8 1.0
vtan 0.0 0.7071 0.7071 1.0
vtan 0.0 0.7071 0.7071 1.0
vtan -0.4082 0.4082 0.8165 1.0
vtan -0.6396 0.6396 0.4264 1.0
vtan -0.0967 0.0133 -0.9952 1.0
vtan -0.6188 0.1874 -0.7628 1.0
vtan -0.4076 -0.4092 -0.8164 1.0
vtan -0.638 -0.6405 -0.4274 1.0
vtan 1.0 0.0 0.0 -1.0
vtan 0.0 -0.7071 0.7071 1.0
vtan 0.4082 -0.4082 0.8165 1.0
vtan -0.6942 -0.104 0.7122 1.0
vtan -0.8061 0.4148 0.4221 1.0
vtan -0.8641 0.0987 0.4936 1.0
vtan -0.5918 0.1591 0.7902 1.0
vtan -0.7657 -0.3031 0.5673 1.0
vtan -0.8336 0.045 0.5505 1.0
vtan -0.9943 0.0527 0.0929 1.0
vtan -0.9945 -0.0823 -0.0652 1.0
vtan -0.8876 0.3247 0.3267 1.0
vtan -0.6861 0.239 0.6872 1.0
vtan -0.7843 0.1313 0.6063 1.0
vtan -0.6413 0.6386 -0.4254 1.0
vtan -0.4088 0.4073 -0.8167 1.0
vtan -0.6945 -0.5258 -0.4911 1.0
vtan -0.8962 -0.2687 -0.3531 1.0
vtan -0.8166 -0.42 -0.396 1.0
vtan -0.9535 0.0954 0.286 1.0
vtan -0.0999 -0.2972 0.9496 1.0
vtan -0.4159 -0.397 0.8182 1.0
vtan -0.6393 -0.6399 0.4264 1.0
vtan -0.4082 -0.4082 0.8165 1.0
vtan -1.0 0.0 0.0 1.0
vtan -0.9535 -0.0958 0.2859 1.0
vtan -0.8227 -0.4025 -0.4013 1.0
vtan -0.4188 0.3741 -0.8274 1.0
vtan -0.4889 0.5203 -0.7002 1.0
vtan -0.0282 -0.0006 -0.9996 1.0
vtan -0.0326 -0.0157 -0.9993 1.0
vtan -0.4029 0.2508 -0.8802 1.0
vtan -0.0153 0.0108 -0.9998 1.0
vtan 0.3974 0.3716 -0.839 -1.0
vtan 0.0185 -0.0202 -0.9996 -1.0
vtan 0.0279 -0.0004 -0.9996 -1.0
vtan 0.4844 0.5287 -0.697 -1.0
vtan 0.0152 0.0107 -0.9998 -1.0
vtan 0.0295 -0.0093 -0.9995 -1.0
vtan -0.0116 0.0021 0.9999 1.0
vtan -0.3835 -0.3849 0.8395 1.0
vtan -0.396 -0.4213 0.8159 1.0
vtan 0.0161 -0.0087 0.9998 1.0
vtan 0.0447 -0.7039 0.7089 1.0
vtan 0.0315 0.0071 0.9995 1.0
vtan 0.0157 -0.0083 0.9998 1.0
vtan -0.3945 -0.4227 0.8159 1.0
vtan 0.4143 -0.3787 0.8276 1.0
vtan 0.0313 0.0121 0.9994 1.0
vtan 0.0278 0.011 0.9996 1.0
vtan 0.4305 -0.3924 0.8128 1.0
vtan 0.6381 0.6405 0.4274 1.0
vtan 0.4076 0.4092 0.8164 1.0
vtan 0.4298 -0.3931 0.8129 1.0
vtan 0.0271 0.0103 0.9996 1.0
vtan -0.8165 -0.4083 0.4082 1.0
f 0/0/0/0 1/1/1/1 2/2/2/2 
f 0/0/0/0 2/2/2/2 3/3/3/3 
f 6/4/4/4 0/0/0/0 4/5/5/5 
f 6/4/4/4 4/5/5/5 5/6/6/6 
f 7/7/7/7 8/8/8/8 9/9/9/9 
f 7/7/7/7 9/9/9/9 10/10/10/10 
f 11/11/11/11 12/12/12/12 13/13/13/13 
f 11/11/11/11 13/13/13/13 14/14/14/14 
f 13/13/13/13 15/15/15/15 14/14/14/14 
f 11/11/11/11 14/14/14/14 16/16/16/16 
f 11/11/11/11 16/16/16/16 9/9/9/9 
f 9/9/9/9 16/16/16/16 10/10/10/10 
f 17/17/17/17 7/7/7/7 10/10/10/10 
f 9/9/9/9 18/18/18/18 19/19/19/19 
f 9/9/9/9 19/19/19/19 20/20/20/20 
f 9/9/9/9 20/20/20/20 11/11/11/11 
f 21/21/21/21 22/22/22/22 23/23/23/23 
f 21/21/21/21 23/23/23/23 24/24/24/24 
f 25/25/25/25 26/26/26/26 27/27/27/27 
f 25/25/25/25 27/27/27/27 23/23/23/23 
f 27/27/27/27 28/28/28/28 29/29/29/29 
f 27/27/27/27 29/29/29/29 23/23/23/23 
f 24/24/24/24 23/23/23/23 29/29/29/29 
f 24/24/24/24 29/29/29/29 30/30/30/30 
f 29/29/29/29 31/31/31/31 32/6/32/32 
f 29/29/29/29 32/6/32/32 33/32/33/33 
f 32/6/32/32 34/33/34/34 33/32/33/33 
f 33/32/33/35 35/34/35/36 36/35/36/37 
f 33/32/33/33 36/35/36/38 30/30/30/30 
f 36/35/36/38 37/36/37/39 30/30/30/30 
f 29/29/29/29 33/32/33/33 30/30/30/30 
f 38/26/38/40 39/25/39/41 40/23/40/42 
f 38/26/38/40 40/23/40/42 41/5/41/43 
f 40/23/40/42 42/22/42/44 41/5/41/43 
f 43/27/43/45 38/26/38/40 41/5/41/43 
f 43/27/43/45 41/5/41/43 44/28/44/46 
f 45/21/45/47 46/24/46/48 47/30/47/49 
f 45/21/45/47 47/30/47/49 41/5/41/43 
f 48/34/48/50 49/32/49/51 50/33/50/52 
f 48/34/48/50 50/33/50/52 51/35/51/53 
f 51/35/51/53 50/33/50/52 41/5/41/43 
f 51/35/51/53 41/5/41/43 52/36/52/54 
f 47/30/47/49 52/36/52/54 41/5/41/43 
f 42/22/42/44 45/21/45/47 41/5/41/43 
f 4/37/5/55 53/38/53/56 44/39/44/57 
f 4/37/5/55 44/39/44/57 41/40/41/58 
f 54/41/54/59 55/42/55/60 12/43/12/61 
f 54/41/54/59 12/43/12/61 11/44/11/62 
f 12/12/12/12 56/12/56/63 57/13/57/64 
f 12/12/12/12 57/13/57/64 13/13/13/13 
f 55/42/55/60 58/45/58/65 56/46/56/66 
f 55/42/55/60 56/46/56/66 12/43/12/61 
f 59/47/59/67 31/48/31/68 58/49/58/69 
f 59/47/59/67 58/49/58/69 55/50/55/70 
f 50/51/50/71 34/52/34/72 32/53/32/73 
f 50/51/50/71 32/53/32/73 5/54/6/74 
f 49/32/49/51 33/32/33/33 34/33/34/34 
f 49/32/49/51 34/33/34/34 50/33/50/52 
f 48/34/48/50 35/34/35/75 33/32/33/33 
f 48/34/48/50 33/32/33/33 49/32/49/51 
f 51/35/51/75 36/35/36/37 35/34/35/36 
f 51/35/51/75 35/34/35/36 48/34/48/75 
f 52/36/52/75 37/36/37/75 36/35/36/37 
f 52/36/52/75 36/35/36/37 51/35/51/75 
f 47/30/47/49 30/30/30/30 37/36/37/39 
f 47/30/47/49 37/36/37/39 52/36/52/54 
f 46/24/46/48 24/24/24/24 30/30/30/30 
f 46/24/46/48 30/30/30/30 47/30/47/49 
f 45/21/45/47 21/21/21/21 24/24/24/24 
f 45/21/45/47 24/24/24/24 46/24/46/48 
f 42/22/42/44 22/22/22/22 21/21/21/21 
f 42/22/42/44 21/21/21/21 45/21/45/47 
f 40/23/40/42 23/23/23/23 22/22/22/22 
f 40/23/40/42 22/22/22/22 42/22/42/44 
f 39/25/39/41 25/25/25/25 23/23/23/23 
f 39/25/39/41 23/23/23/23 40/23/40/42 
f 38/26/38/40 26/26/26/26 25/25/25/25 
f 38/26/38/40 25/25/25/25 39/25/39/41 
f 43/27/43/45 27/27/27/27 26/26/26/26 
f 43/27/43/45 26/26/26/26 38/26/38/40 
f 44/28/44/46 28/28/28/28 27/27/27/27 
f 44/28/44/46 27/27/27/27 43/27/43/45 
f 44/39/44/57 53/38/53/56 29/55/29/76 
f 44/39/44/57 29/55/29/76 28/56/28/77 
f 19/19/19/19 60/19/60/78 61/20/61/79 
f 19/19/19/19 61/20/61/79 20/20/20/20 
f 18/18/18/18 62/18/62/80 60/19/60/78 
f 18/18/18/18 60/19/60/78 19/19/19/19 
f 9/9/9/9 63/9/63/81 62/18/62/80 
f 9/9/9/9 62/18/62/80 18/18/18/18 
f 8/8/8/8 64/8/64/82 63/9/63/81 
f 8/8/8/8 63/9/63/81 9/9/9/9 
f 7/7/7/7 65/7/65/83 64/8/64/82 
f 7/7/7/7 64/8/64/82 8/8/8/8 
f 17/17/17/17 66/17/66/84 65/7/65/83 
f 17/17/17/17 65/7/65/83 7/7/7/7 
f 10/10/10/10 67/10/67/85 66/17/66/84 
f 10/10/10/10 66/17/66/84 17/17/17/17 
f 16/16/16/16 68/16/68/86 67/10/67/85 
f 16/16/16/16 67/10/67/85 10/10/10/10 
f 14/14/14/14 69/14/69/87 68/16/68/86 
f 14/14/14/14 68/16/68/86 16/16/16/16 
f 15/15/15/15 70/15/70/88 69/14/69/87 
f 15/15/15/15 69/14/69/87 14/14/14/14 
f 13/13/13/13 57/13/57/64 70/15/70/88 
f 13/13/13/13 70/15/70/88 15/15/15/15 
f 4/57/5/89 41/58/41/90 50/51/50/71 
f 4/57/5/89 50/51/50/71 5/54/6/74 
f 71/59/71/31 72/60/72/91 73/61/73/92 
f 71/59/71/31 73/61/73/92 2/2/2/2 
f 3/3/3/3 74/62/74/93 54/11/54/94 
f 3/3/3/3 54/11/54/94 53/29/53/31 
f 20/63/20/95 61/64/61/96 29/55/29/76 
f 20/63/20/95 29/55/29/76 53/38/53/56 
f 54/65/54/97 11/66/11/98 20/63/20/95 
f 54/65/54/97 20/63/20/95 53/38/53/56 
f 75/67/75/99 59/31/59/31 55/68/55/100 
f 75/67/75/99 55/68/55/100 76/69/76/101 
f 1/1/1/1 77/70/77/31 71/59/71/31 
f 1/1/1/1 71/59/71/31 2/2/2/2 
f 74/62/74/93 3/3/3/3 2/2/2/2 
f 74/62/74/93 2/2/2/2 73/61/73/92 
f 76/69/76/101 55/68/55/100 54/11/54/94 
f 76/69/76/101 54/11/54/94 74/62/74/93 
f 4/5/5/5 0/0/0/0 3/3/3/3 
f 4/5/5/5 3/3/3/3 53/29/53/31 
f 74/0/74/102 73/1/73/103 78/71/78/104 
f 74/0/74/102 78/71/78/104 79/72/79/105 
f 72/73/72/106 80/74/80/107 78/71/78/104 
f 72/73/72/106 78/71/78/104 73/1/73/103 
f 0/0/0/108 81/72/81/109 82/71/82/110 
f 0/0/0/108 82/71/82/110 1/1/1/111 
f 82/71/82/110 83/74/83/112 84/73/84/113 
f 82/71/82/110 84/73/84/113 1/1/1/111 
f 81/75/81/114 0/76/0/115 6/77/4/116 
f 81/75/81/114 6/77/4/116 85/78/85/117 
f 75/79/75/118 86/80/86/119 85/81/85/120 
f 75/79/75/118 85/81/85/120 6/82/4/121 
f 74/83/74/122 79/84/79/123 87/85/87/124 
f 74/83/74/122 87/85/87/124 76/86/76/125 
f 5/87/6/126 32/88/32/127 31/48/31/68 
f 5/87/6/126 31/48/31/68 59/47/59/67 
f 75/67/75/99 6/4/4/4 5/6/6/6 
f 75/67/75/99 5/6/6/6 59/31/59/31 
f 76/89/76/128 87/90/87/129 86/80/86/119 
f 76/89/76/128 86/80/86/119 75/79/75/118 
f 29/29/29/29 61/20/61/79 60/19/60/78 
f 29/29/29/29 60/19/60/78 62/18/62/80 
f 62/18/62/80 63/9/63/81 64/8/64/82 
f 62/18/62/80 64/8/64/82 65/7/65/83 
f 29/29/29/29 62/18/62/80 65/7/65/83 
f 29/29/29/29 65/7/65/83 58/68/58/130 
f 66/17/66/84 67/10/67/85 68/16/68/86 
f 66/17/66/84 68/16/68/86 70/15/70/88 
f 68/16/68/86 69/14/69/87 70/15/70/88 
f 57/13/57/64 56/12/56/63 58/68/58/130 
f 57/13/57/64 58/68/58/130 70/15/70/88 
f 66/17/66/84 70/15/70/88 58/68/58/130 
f 66/17/66/84 58/68/58/130 65/7/65/83 
f 29/29/29/29 58/68/58/130 31/31/31/31 
