v 461.958 134.776 143.3416
v 486.0656 214.133 143.3416
v 489.5375 213.0783 143.3416
v 465.4299 133.7213 143.3416
gi 0 0 0 0
gw 0.0 0.0 0.0 0.0
gi 0 0 0 0
gw 0.0 0.0 0.0 0.0
gi 0 0 0 0
gw 0.0 0.0 0.0 0.0
gi 0 0 0 0
gw 0.0 0.0 0.0 0.0
vt 0.677 0.0
vt 0.677 3.0982
vt 0.1467 3.0982
vt 0.1467 0.0
vn 0.0 0.0 -1.0
vn -0.0 0.0 -1.0
vn -0.0 0.0 -1.0
vn 0.0 0.0 -1.0
vtan -0.9568 0.2907 -0.0 1.0
vtan -0.9568 0.2907 0.0 1.0
vtan -0.9568 0.2907 0.0 1.0
vtan -0.9568 0.2907 -0.0 1.0
f 0/0/0/0 1/1/1/1 2/2/2/2 
f 0/0/0/0 2/2/2/2 3/3/3/3 
