v 131.7563 841.8127 -257.7837
v 131.1177 841.6417 -255.3471
v 131.4528 839.1407 -255.3471
v 132.1143 839.1407 -257.7837
v 130.7303 844.3058 -257.7837
v 130.1575 843.975 -255.3471
v 129.0843 846.4409 -257.7837
v 128.6168 845.9734 -255.3471
v 126.9493 848.087 -257.7837
v 126.6185 847.514 -255.3471
v 124.4564 849.1129 -257.7837
v 124.2853 848.4742 -255.3471
v 121.7845 849.4708 -257.7837
v 121.7845 848.8093 -255.3471
v 119.1125 849.1127 -257.7837
v 119.2836 848.4742 -255.3471
v 116.6195 848.0867 -257.7837
v 116.9503 847.514 -255.3471
v 114.4844 846.4407 -257.7837
v 114.9519 845.9733 -255.3471
v 112.8384 844.3058 -257.7837
v 113.4113 843.975 -255.3471
v 111.8125 841.8127 -257.7837
v 112.4511 841.6417 -255.3471
v 111.4545 839.1409 -257.7837
v 112.1161 839.1409 -255.3471
v 111.8125 836.4689 -257.7837
v 112.4511 836.6401 -255.3471
v 112.8385 833.976 -257.7837
v 113.4114 834.3066 -255.3471
v 114.4845 831.8409 -257.7837
v 114.952 832.3083 -255.3471
v 116.6194 830.1949 -257.7837
v 116.9502 830.7679 -255.3471
v 119.1124 829.1689 -257.7837
v 119.2835 829.8076 -255.3471
v 121.7843 828.811 -257.7837
v 121.7843 829.4725 -255.3471
v 124.4564 829.1689 -257.7837
v 124.2853 829.8077 -255.3471
v 126.9494 830.1949 -257.7837
v 126.6187 830.7679 -255.3471
v 129.0844 831.8409 -257.7837
v 128.6169 832.3085 -255.3471
v 130.7304 833.9759 -257.7837
v 130.1575 834.3066 -255.3471
v 131.7563 836.4689 -257.7837
v 131.1177 836.64 -255.3471
v 126.6053 840.4327 -250.844
v 127.0614 840.5549 -251.7819
v 126.5185 841.8741 -251.7819
v 126.1093 841.6379 -250.844
v 125.2766 841.157 -250.3866
v 125.6771 840.1838 -250.3866
v 125.8168 839.1409 -250.3866
v 126.7784 839.1409 -250.844
v 125.3136 842.67 -250.844
v 125.6475 843.0038 -251.7819
v 124.5176 843.8749 -251.7819
v 124.2814 843.4658 -250.844
v 123.8006 842.6331 -250.3866
v 124.6341 841.9905 -250.3866
v 123.0762 843.9617 -250.844
v 123.1984 844.4178 -251.7819
v 121.7844 844.6074 -251.7819
v 121.7844 844.1349 -250.844
v 121.7844 843.1733 -250.3866
v 122.8275 843.0336 -250.3866
v 120.4927 843.9617 -250.844
v 120.3705 844.4178 -251.7819
v 119.0512 843.8749 -251.7819
v 119.2874 843.4658 -250.844
v 119.7682 842.6331 -250.3866
v 120.7414 843.0336 -250.3866
v 118.2553 842.67 -250.844
v 117.9214 843.0038 -251.7819
v 117.0503 841.8741 -251.7819
v 117.4595 841.6379 -250.844
v 118.2922 841.157 -250.3866
v 118.9348 841.9905 -250.3866
v 116.9635 840.4327 -250.844
v 116.5074 840.5549 -251.7819
v 116.318 839.1409 -251.7818
v 116.7905 839.1409 -250.844
v 117.752 839.1409 -250.3866
v 117.8918 840.1838 -250.3866
v 116.9635 837.8492 -250.844
v 116.5074 837.727 -251.7819
v 117.0503 836.4077 -251.7818
v 117.4595 836.644 -250.844
v 118.2922 837.1246 -250.3866
v 117.8918 838.0978 -250.3866
v 118.2553 835.6118 -250.844
v 117.9214 835.2778 -251.7819
v 119.0512 834.4067 -251.7819
v 119.2874 834.816 -250.844
v 119.7682 835.6487 -250.3866
v 118.9348 836.2913 -250.3866
v 120.4927 834.3199 -250.844
v 120.3705 833.8638 -251.7819
v 121.7844 833.6744 -251.7819
v 121.7844 834.147 -250.844
v 121.7844 835.1085 -250.3866
v 120.7414 835.2483 -250.3866
v 123.0762 834.3199 -250.844
v 123.1984 833.8638 -251.7819
v 124.5176 834.4067 -251.7819
v 124.2814 834.816 -250.844
v 123.8006 835.6487 -250.3866
v 122.8275 835.2483 -250.3866
v 125.3136 835.6118 -250.844
v 125.6475 835.2778 -251.7818
v 126.5185 836.4077 -251.7818
v 126.1093 836.644 -250.844
v 125.2766 837.1246 -250.3866
v 124.6341 836.2913 -250.3866
v 126.6053 837.8492 -250.844
v 127.0614 837.727 -251.7819
v 127.2509 839.1409 -251.7818
v 125.6771 838.0978 -250.3866
v 127.4899 840.6697 -253.7286
v 126.9029 842.0959 -253.7286
v 127.6947 839.1409 -253.7286
v 125.9611 843.3176 -253.7286
v 124.7396 844.2593 -253.7286
v 123.3132 844.8464 -253.7286
v 121.7844 845.0511 -253.7286
v 120.2556 844.8464 -253.7286
v 118.8293 844.2593 -253.7286
v 117.6077 843.3176 -253.7286
v 116.666 842.0959 -253.7286
v 116.079 840.6697 -253.7286
v 115.8741 839.1409 -253.7286
v 116.079 837.6122 -253.7286
v 116.666 836.1858 -253.7286
v 117.6077 834.9642 -253.7286
v 118.8293 834.0225 -253.7286
v 120.2556 833.4355 -253.7286
v 121.7844 833.2306 -253.7286
v 123.3132 833.4355 -253.7286
v 124.7396 834.0225 -253.7286
v 125.9611 834.9642 -253.7286
v 126.9029 836.1858 -253.7286
v 127.4899 837.6122 -253.7286
v 128.0707 840.8253 -254.3085
v 129.6464 841.2474 -254.6268
v 128.8375 843.213 -254.6268
v 127.4239 842.3969 -254.3085
v 128.2964 839.1409 -254.3085
v 129.9286 839.1407 -254.6268
v 128.0707 837.4565 -254.3085
v 129.6464 837.0342 -254.6268
v 127.4239 835.8849 -254.3085
v 128.8375 835.0688 -254.6268
v 126.3863 834.5389 -254.3085
v 127.5398 833.3856 -254.6268
v 125.0404 833.5013 -254.3085
v 125.8566 832.0879 -254.6268
v 123.4688 832.8547 -254.3085
v 123.891 831.2789 -254.6268
v 121.7844 832.629 -254.3085
v 121.7844 830.9966 -254.6268
v 120.1 832.8547 -254.3085
v 119.6778 831.2789 -254.6268
v 118.5284 833.5013 -254.3085
v 117.7123 832.0878 -254.6268
v 117.1826 834.5389 -254.3085
v 116.0291 833.3854 -254.6268
v 116.1449 835.8849 -254.3085
v 114.7313 835.0688 -254.6268
v 115.4982 837.4565 -254.3085
v 113.9225 837.0342 -254.6268
v 115.2725 839.1409 -254.3085
v 113.6402 839.1409 -254.6268
v 115.4982 840.8253 -254.3085
v 113.9224 841.2474 -254.6268
v 116.1449 842.3969 -254.3085
v 114.7313 843.213 -254.6268
v 117.1826 843.7427 -254.3085
v 116.0291 844.8962 -254.6268
v 118.5285 844.7803 -254.3085
v 117.7123 846.194 -254.6268
v 120.1 845.4272 -254.3085
v 119.6779 847.0029 -254.6268
v 121.7845 845.6528 -254.3085
v 121.7845 847.285 -254.6268
v 123.4688 845.4272 -254.3085
v 123.891 847.0029 -254.6268
v 125.0404 844.7803 -254.3085
v 125.8565 846.194 -254.6268
v 126.3863 843.7427 -254.3085
v 127.5398 844.8962 -254.6268
v 125.1696 840.048 -252.5553
v 125.2911 839.1409 -252.5554
v 124.8213 840.8943 -252.5553
v 124.2625 841.619 -252.5554
v 123.5378 842.1777 -252.5553
v 122.6915 842.5259 -252.5554
v 121.7844 842.6476 -252.5553
v 120.8774 842.5259 -252.5554
v 120.0311 842.1777 -252.5553
v 119.3063 841.619 -252.5554
v 118.7476 840.8943 -252.5553
v 118.3993 840.048 -252.5553
v 118.2778 839.1409 -252.5554
v 118.3993 838.2339 -252.5554
v 118.7476 837.3876 -252.5554
v 119.3063 836.6628 -252.5553
v 120.0311 836.1039 -252.5554
v 120.8774 835.7557 -252.5554
v 121.7844 835.6343 -252.5554
v 122.6915 835.7557 -252.5554
v 123.5378 836.1039 -252.5554
v 124.2625 836.6628 -252.5553
v 124.8213 837.3876 -252.5553
v 125.1696 838.2339 -252.5554
v 121.7844 839.1409 -252.8057
v 129.8929 843.8223 -255.1829
v 130.8228 841.5627 -255.1829
v 131.1472 839.1407 -255.1829
v 130.8228 836.7189 -255.1829
v 129.8929 834.4595 -255.1829
v 128.401 832.5244 -255.1829
v 126.4659 831.0325 -255.1829
v 124.2062 830.1025 -255.1829
v 121.7843 829.7781 -255.1829
v 119.3625 830.1025 -255.1829
v 117.103 831.0323 -255.1829
v 115.1679 832.5244 -255.1829
v 113.676 834.4595 -255.1829
v 112.7461 836.7191 -255.1829
v 112.4216 839.1409 -255.1829
v 112.746 841.5627 -255.1829
v 113.6759 843.8221 -255.1829
v 115.1678 845.7574 -255.1829
v 117.103 847.2494 -255.1829
v 119.3627 848.1793 -255.1829
v 121.7845 848.5038 -255.1829
v 124.2062 848.1793 -255.1829
v 126.4658 847.2494 -255.1829
v 128.4009 845.7574 -255.1829
vt 0.6636 0.7293
vt 0.6431 0.7239
vt 0.6539 0.6437
vt 0.6751 0.6437
vt 0.6307 0.8093
vt 0.6123 0.7987
vt 0.5779 0.8778
vt 0.5629 0.8628
vt 0.5095 0.9306
vt 0.4988 0.9122
vt 0.4295 0.9635
vt 0.424 0.943
vt 0.3438 0.9749
vt 0.3438 0.9537
vt 0.2581 0.9635
vt 0.2636 0.943
vt 0.1782 0.9306
vt 0.1888 0.9122
vt 0.1097 0.8778
vt 0.1247 0.8628
vt 0.0569 0.8093
vt 0.0753 0.7987
vt 0.024 0.7293
vt 0.0445 0.7239
vt 0.0125 0.6437
vt 0.0337 0.6437
vt 0.024 0.558
vt 0.0445 0.5635
vt 0.0569 0.478
vt 0.0753 0.4886
vt 0.1097 0.4095
vt 0.1247 0.4245
vt 0.1782 0.3568
vt 0.1888 0.3751
vt 0.2581 0.3239
vt 0.2636 0.3443
vt 0.3438 0.3124
vt 0.3438 0.3336
vt 0.4295 0.3239
vt 0.424 0.3443
vt 0.5095 0.3568
vt 0.4989 0.3751
vt 0.5779 0.4095
vt 0.5629 0.4245
vt 0.6307 0.478
vt 0.6123 0.4886
vt 0.6636 0.558
vt 0.6431 0.5635
vt 0.4984 0.6851
vt 0.5131 0.689
vt 0.4956 0.7313
vt 0.4825 0.7237
vt 0.4558 0.7083
vt 0.4687 0.6771
vt 0.4731 0.6437
vt 0.504 0.6437
vt 0.457 0.7568
vt 0.4677 0.7675
vt 0.4315 0.7955
vt 0.4239 0.7824
vt 0.4085 0.7557
vt 0.4352 0.735
vt 0.3852 0.7983
vt 0.3892 0.8129
vt 0.3438 0.819
vt 0.3438 0.8038
vt 0.3438 0.773
vt 0.3773 0.7685
vt 0.3024 0.7983
vt 0.2985 0.8129
vt 0.2562 0.7955
vt 0.2637 0.7824
vt 0.2792 0.7557
vt 0.3104 0.7685
vt 0.2306 0.7568
vt 0.2199 0.7675
vt 0.192 0.7313
vt 0.2051 0.7237
vt 0.2318 0.7083
vt 0.2524 0.735
vt 0.1892 0.6851
vt 0.1746 0.689
vt 0.1685 0.6437
vt 0.1837 0.6437
vt 0.2145 0.6437
vt 0.219 0.6771
vt 0.1892 0.6022
vt 0.1746 0.5983
vt 0.192 0.556
vt 0.2051 0.5636
vt 0.2318 0.579
vt 0.219 0.6102
vt 0.2306 0.5305
vt 0.2199 0.5198
vt 0.2562 0.4918
vt 0.2637 0.505
vt 0.2792 0.5317
vt 0.2524 0.5523
vt 0.3024 0.489
vt 0.2985 0.4744
vt 0.3438 0.4683
vt 0.3438 0.4835
vt 0.3438 0.5143
vt 0.3104 0.5188
vt 0.3852 0.489
vt 0.3892 0.4744
vt 0.4315 0.4918
vt 0.4239 0.505
vt 0.4085 0.5317
vt 0.3773 0.5188
vt 0.457 0.5305
vt 0.4677 0.5198
vt 0.4956 0.556
vt 0.4825 0.5636
vt 0.4558 0.579
vt 0.4352 0.5523
vt 0.4984 0.6022
vt 0.5131 0.5983
vt 0.5191 0.6437
vt 0.4687 0.6102
vt 0.5268 0.6927
vt 0.508 0.7384
vt 0.5334 0.6437
vt 0.4778 0.7776
vt 0.4386 0.8078
vt 0.3928 0.8266
vt 0.3438 0.8332
vt 0.2948 0.8266
vt 0.249 0.8078
vt 0.2099 0.7776
vt 0.1797 0.7384
vt 0.1608 0.6927
vt 0.1543 0.6437
vt 0.1608 0.5946
vt 0.1797 0.5489
vt 0.2099 0.5097
vt 0.249 0.4795
vt 0.2948 0.4607
vt 0.3438 0.4541
vt 0.3928 0.4607
vt 0.4386 0.4795
vt 0.4778 0.5097
vt 0.508 0.5489
vt 0.5268 0.5946
vt 0.5454 0.6977
vt 0.596 0.7112
vt 0.57 0.7743
vt 0.5247 0.7481
vt 0.5527 0.6437
vt 0.605 0.6437
vt 0.5454 0.5896
vt 0.596 0.5761
vt 0.5247 0.5392
vt 0.57 0.5131
vt 0.4914 0.4961
vt 0.5284 0.4591
vt 0.4482 0.4628
vt 0.4744 0.4175
vt 0.3978 0.4421
vt 0.4114 0.3915
vt 0.3438 0.4348
vt 0.3438 0.3825
vt 0.2898 0.4421
vt 0.2763 0.3915
vt 0.2394 0.4628
vt 0.2132 0.4175
vt 0.1962 0.4961
vt 0.1592 0.4591
vt 0.163 0.5392
vt 0.1176 0.5131
vt 0.1422 0.5896
vt 0.0917 0.5761
vt 0.135 0.6437
vt 0.0826 0.6437
vt 0.1422 0.6977
vt 0.0917 0.7112
vt 0.163 0.7481
vt 0.1176 0.7743
vt 0.1962 0.7912
vt 0.1592 0.8282
vt 0.2394 0.8245
vt 0.2132 0.8699
vt 0.2898 0.8453
vt 0.2763 0.8958
vt 0.3438 0.8525
vt 0.3438 0.9048
vt 0.3978 0.8453
vt 0.4114 0.8958
vt 0.4482 0.8245
vt 0.4744 0.8699
vt 0.4914 0.7912
vt 0.5284 0.8282
vt 0.4524 0.6727
vt 0.4563 0.6437
vt 0.4412 0.6999
vt 0.4233 0.7231
vt 0.4 0.7411
vt 0.3729 0.7522
vt 0.3438 0.7561
vt 0.3147 0.7522
vt 0.2876 0.7411
vt 0.2643 0.7231
vt 0.2464 0.6999
vt 0.2353 0.6727
vt 0.2314 0.6437
vt 0.2353 0.6146
vt 0.2464 0.5874
vt 0.2643 0.5642
vt 0.2876 0.5463
vt 0.3147 0.5351
vt 0.3438 0.5312
vt 0.3729 0.5351
vt 0.4 0.5463
vt 0.4233 0.5642
vt 0.4412 0.5874
vt 0.4524 0.6146
vt 0.3438 0.6437
vt 0.6039 0.7938
vt 0.6337 0.7213
vt 0.6441 0.6437
vt 0.6337 0.566
vt 0.6039 0.4935
vt 0.556 0.4315
vt 0.494 0.3836
vt 0.4215 0.3538
vt 0.3438 0.3434
vt 0.2661 0.3538
vt 0.1937 0.3836
vt 0.1316 0.4315
vt 0.0838 0.4935
vt 0.0539 0.566
vt 0.0435 0.6437
vt 0.0539 0.7213
vt 0.0838 0.7938
vt 0.1316 0.8559
vt 0.1937 0.9037
vt 0.2661 0.9335
vt 0.3438 0.9439
vt 0.4215 0.9335
vt 0.4939 0.9037
vt 0.556 0.8559
vn 0.9322 0.2498 0.2619
vn 0.7679 0.2058 0.6066
vn 0.7953 -0.0 0.6063
vn 0.9651 -0.0 0.262
vn 0.8358 0.4825 0.262
vn 0.6887 0.3976 0.6062
vn 0.6824 0.6824 0.2618
vn 0.5621 0.5621 0.6067
vn 0.4825 0.8358 0.2621
vn 0.3976 0.6888 0.6062
vn 0.2498 0.9322 0.2619
vn 0.2058 0.7679 0.6067
vn -0.0 0.9651 0.262
vn -0.0 0.7953 0.6062
vn -0.2498 0.9322 0.2619
vn -0.2058 0.7679 0.6067
vn -0.4825 0.8358 0.262
vn -0.3976 0.6888 0.6062
vn -0.6824 0.6824 0.2619
vn -0.5622 0.5622 0.6066
vn -0.8358 0.4825 0.262
vn -0.6887 0.3976 0.6062
vn -0.9322 0.2498 0.2619
vn -0.7679 0.2057 0.6066
vn -0.9651 -0.0 0.262
vn -0.7953 -0.0 0.6063
vn -0.9322 -0.2498 0.2619
vn -0.7679 -0.2058 0.6066
vn -0.8358 -0.4825 0.262
vn -0.6887 -0.3976 0.6063
vn -0.6825 -0.6824 0.2618
vn -0.5621 -0.5621 0.6066
vn -0.4825 -0.8358 0.262
vn -0.3976 -0.6887 0.6062
vn -0.2498 -0.9322 0.2619
vn -0.2058 -0.7679 0.6066
vn -0.0 -0.9651 0.262
vn 0.0 -0.7952 0.6063
vn 0.2498 -0.9322 0.2619
vn 0.2058 -0.7679 0.6066
vn 0.4825 -0.8358 0.262
vn 0.3976 -0.6887 0.6063
vn 0.6824 -0.6824 0.2619
vn 0.5621 -0.5622 0.6066
vn 0.8358 -0.4825 0.262
vn 0.6887 -0.3976 0.6063
vn 0.9322 -0.2498 0.2619
vn 0.7679 -0.2057 0.6066
vn 0.688 0.1844 0.7019
vn 0.91 0.2439 0.3353
vn 0.8159 0.471 0.3354
vn 0.6171 0.3563 0.7016
vn -0.3234 -0.1867 0.9277
vn -0.3626 -0.0972 0.9269
vn -0.3734 -0.0 0.9277
vn 0.7125 -0.0 0.7016
vn 0.5037 0.5037 0.7019
vn 0.6662 0.6662 0.3353
vn 0.471 0.8159 0.3354
vn 0.3563 0.6171 0.7016
vn -0.1867 -0.3234 0.9277
vn -0.2654 -0.2654 0.9269
vn 0.1844 0.688 0.7019
vn 0.2439 0.91 0.3353
vn -0.0 0.9421 0.3353
vn -0.0 0.7126 0.7016
vn -0.0 -0.3734 0.9277
vn -0.0972 -0.3626 0.9269
vn -0.1844 0.688 0.7019
vn -0.2438 0.91 0.3353
vn -0.471 0.8159 0.3354
vn -0.3563 0.6171 0.7016
vn 0.1867 -0.3234 0.9277
vn 0.0972 -0.3626 0.9269
vn -0.5037 0.5037 0.7019
vn -0.6662 0.6662 0.3353
vn -0.8159 0.4711 0.3354
vn -0.6171 0.3563 0.7016
vn 0.3234 -0.1867 0.9277
vn 0.2654 -0.2655 0.9269
vn -0.688 0.1843 0.7019
vn -0.91 0.2438 0.3353
vn -0.9421 0.0 0.3354
vn -0.7125 -0.0 0.7016
vn 0.3734 0.0 0.9277
vn 0.3627 -0.0972 0.9268
vn -0.688 -0.1843 0.7019
vn -0.91 -0.2438 0.3353
vn -0.8159 -0.471 0.3354
vn -0.6171 -0.3563 0.7016
vn 0.3233 0.1867 0.9277
vn 0.3626 0.0971 0.9269
vn -0.5037 -0.5037 0.7019
vn -0.6662 -0.6662 0.3353
vn -0.471 -0.8159 0.3354
vn -0.3563 -0.6171 0.7016
vn 0.1867 0.3234 0.9277
vn 0.2655 0.2655 0.9269
vn -0.1843 -0.688 0.7019
vn -0.2438 -0.91 0.3353
vn -0.0 -0.9421 0.3354
vn -0.0 -0.7126 0.7016
vn -0.0 0.3733 0.9277
vn 0.0972 0.3627 0.9268
vn 0.1843 -0.688 0.7019
vn 0.2438 -0.91 0.3353
vn 0.471 -0.8159 0.3354
vn 0.3563 -0.6171 0.7016
vn -0.1867 0.3234 0.9277
vn -0.0972 0.3626 0.9268
vn 0.5037 -0.5036 0.7019
vn 0.6662 -0.6662 0.3353
vn 0.8159 -0.471 0.3354
vn 0.6171 -0.3562 0.7016
vn -0.3234 0.1867 0.9277
vn -0.2655 0.2654 0.9269
vn 0.688 -0.1844 0.7019
vn 0.91 -0.2438 0.3353
vn 0.9421 0.0 0.3354
vn -0.3626 0.0971 0.9269
vn 0.8356 0.2239 0.5017
vn 0.7489 0.4324 0.5023
vn 0.8647 -0.0 0.5023
vn 0.6117 0.6117 0.5017
vn 0.4324 0.7489 0.5023
vn 0.2239 0.8356 0.5017
vn -0.0 0.8647 0.5023
vn -0.2239 0.8355 0.5017
vn -0.4324 0.7489 0.5023
vn -0.6117 0.6117 0.5017
vn -0.7489 0.4323 0.5023
vn -0.8356 0.2239 0.5017
vn -0.8647 -0.0 0.5023
vn -0.8356 -0.2239 0.5017
vn -0.7489 -0.4323 0.5023
vn -0.6117 -0.6117 0.5017
vn -0.4323 -0.7489 0.5023
vn -0.2239 -0.8355 0.5018
vn -0.0 -0.8647 0.5023
vn 0.2239 -0.8356 0.5017
vn 0.4323 -0.7489 0.5023
vn 0.6117 -0.6117 0.5017
vn 0.7489 -0.4323 0.5023
vn 0.8356 -0.2239 0.5017
vn 0.4281 0.1147 0.8964
vn 0.3035 0.0813 0.9494
vn 0.2722 0.1572 0.9493
vn 0.383 0.2212 0.8969
vn 0.4423 -0.0 0.8969
vn 0.3144 -0.0 0.9493
vn 0.4281 -0.1147 0.8964
vn 0.3035 -0.0813 0.9494
vn 0.383 -0.2211 0.8969
vn 0.2722 -0.1572 0.9493
vn 0.3134 -0.3133 0.8965
vn 0.2222 -0.2222 0.9493
vn 0.2211 -0.383 0.8969
vn 0.1572 -0.2722 0.9493
vn 0.1147 -0.428 0.8965
vn 0.0813 -0.3035 0.9494
vn -0.0 -0.4423 0.8969
vn -0.0 -0.3144 0.9493
vn -0.1147 -0.428 0.8965
vn -0.0813 -0.3035 0.9493
vn -0.2211 -0.383 0.8969
vn -0.1572 -0.2722 0.9493
vn -0.3134 -0.3134 0.8964
vn -0.2222 -0.2222 0.9493
vn -0.383 -0.2211 0.8969
vn -0.2723 -0.1572 0.9493
vn -0.428 -0.1147 0.8964
vn -0.3035 -0.0813 0.9493
vn -0.4423 -0.0 0.8969
vn -0.3144 -0.0 0.9493
vn -0.4281 0.1147 0.8964
vn -0.3035 0.0813 0.9494
vn -0.383 0.2211 0.8969
vn -0.2722 0.1572 0.9493
vn -0.3134 0.3134 0.8964
vn -0.2222 0.2222 0.9494
vn -0.2212 0.3831 0.8969
vn -0.1572 0.2722 0.9493
vn -0.1147 0.428 0.8965
vn -0.0813 0.3035 0.9494
vn 0.0 0.4423 0.8969
vn -0.0 0.3143 0.9493
vn 0.1147 0.428 0.8964
vn 0.0813 0.3035 0.9494
vn 0.2212 0.3831 0.8969
vn 0.1572 0.2722 0.9493
vn 0.3133 0.3133 0.8965
vn 0.2222 0.2222 0.9494
vn -0.6495 -0.174 0.7402
vn -0.6731 -0.0 0.7395
vn -0.583 -0.3366 0.7395
vn -0.4754 -0.4754 0.7403
vn -0.3366 -0.583 0.7395
vn -0.174 -0.6494 0.7403
vn -0.0 -0.6732 0.7394
vn 0.174 -0.6494 0.7403
vn 0.3366 -0.583 0.7395
vn 0.4754 -0.4754 0.7403
vn 0.583 -0.3365 0.7395
vn 0.6495 -0.1741 0.7402
vn 0.6731 -0.0 0.7395
vn 0.6494 0.174 0.7402
vn 0.5829 0.3366 0.7395
vn 0.4755 0.4754 0.7402
vn 0.3366 0.583 0.7395
vn 0.174 0.6495 0.7402
vn -0.0 0.6731 0.7395
vn -0.174 0.6495 0.7402
vn -0.3366 0.583 0.7395
vn -0.4755 0.4754 0.7402
vn -0.583 0.3366 0.7395
vn -0.6494 0.1741 0.7402
vn -0.0 -0.0 1.0
vn 0.3869 0.2234 0.8947
vn 0.4316 0.1157 0.8946
vn 0.4467 -0.0 0.8947
vn 0.4316 -0.1156 0.8946
vn 0.3869 -0.2233 0.8947
vn 0.316 -0.316 0.8946
vn 0.2233 -0.3868 0.8947
vn 0.1157 -0.4317 0.8946
vn -0.0 -0.4466 0.8947
vn -0.1157 -0.4317 0.8946
vn -0.2234 -0.3869 0.8947
vn -0.316 -0.3159 0.8946
vn -0.3868 -0.2233 0.8947
vn -0.4316 -0.1157 0.8946
vn -0.4467 -0.0 0.8947
vn -0.4316 0.1157 0.8946
vn -0.3869 0.2233 0.8947
vn -0.316 0.316 0.8946
vn -0.2234 0.3869 0.8947
vn -0.1156 0.4316 0.8946
vn 0.0 0.4468 0.8947
vn 0.1156 0.4315 0.8947
vn 0.2234 0.3869 0.8946
vn 0.3159 0.3159 0.8946
vtan 0.2702 0.0008 -0.9628 1.0
vtan 0.6201 -0.0014 -0.7845 1.0
vtan 0.6063 0.0 -0.7953 1.0
vtan 0.262 0.0 -0.9651 1.0
vtan 0.2993 -0.0003 -0.9542 1.0
vtan 0.6578 0.0089 -0.7531 1.0
vtan 0.3604 -0.0025 -0.9328 1.0
vtan 0.7199 0.0286 -0.6935 1.0
vtan 0.4885 -0.0084 -0.8725 1.0
vtan 0.8063 0.0529 -0.5891 1.0
vtan 0.7569 -0.0193 -0.6532 1.0
vtan 0.9219 0.0559 -0.3834 1.0
vtan 1.0 0.0001 -0.0002 1.0
vtan 1.0 0.0001 -0.0001 1.0
vtan 0.7567 0.0192 0.6535 1.0
vtan 0.9219 -0.0558 0.3833 1.0
vtan 0.4885 0.0085 0.8725 1.0
vtan 0.8063 -0.053 0.5891 1.0
vtan 0.3605 0.0026 0.9328 1.0
vtan 0.7198 -0.0286 0.6936 1.0
vtan 0.2994 0.0005 0.9541 1.0
vtan 0.6577 -0.009 0.7532 1.0
vtan 0.2703 -0.0007 0.9628 1.0
vtan 0.6201 0.0015 0.7845 1.0
vtan 0.262 -0.0003 0.9651 1.0
vtan 0.6063 0.0 0.7953 1.0
vtan 0.2705 -0.0002 0.9627 1.0
vtan 0.6195 0.0023 0.785 1.0
vtan 0.2994 -0.0006 0.9541 1.0
vtan 0.6579 0.0088 0.7531 1.0
vtan 0.3605 -0.0027 0.9327 1.0
vtan 0.721 0.0262 0.6924 1.0
vtan 0.4874 -0.0077 0.8732 1.0
vtan 0.8059 0.0537 0.5896 1.0
vtan 0.7546 -0.0179 0.656 1.0
vtan 0.9214 0.0567 0.3844 1.0
vtan 1.0 -0.0001 -0.0003 1.0
vtan 1.0 -0.0003 -0.0005 1.0
vtan 0.7551 0.0183 -0.6553 1.0
vtan 0.9216 -0.0564 -0.3841 1.0
vtan 0.4872 0.0075 -0.8733 1.0
vtan 0.8059 -0.0537 -0.5896 1.0
vtan 0.3603 0.0023 -0.9328 1.0
vtan 0.7212 -0.0259 -0.6923 1.0
vtan 0.2994 0.0005 -0.9541 1.0
vtan 0.6578 -0.0091 -0.7532 1.0
vtan 0.2705 0.0001 -0.9627 1.0
vtan 0.6195 -0.0024 -0.785 1.0
vtan 0.7141 0.0004 -0.7001 1.0
vtan 0.3457 0.0001 -0.9383 1.0
vtan 0.3803 -0.0002 -0.9249 1.0
vtan 0.7498 0.0045 -0.6617 1.0
vtan 0.9419 0.0309 0.3346 1.0
vtan 0.931 0.0076 0.365 1.0
vtan 0.9277 0.0 0.3734 1.0
vtan 0.7016 0.0 -0.7125 1.0
vtan 0.8073 0.0149 -0.59 1.0
vtan 0.4494 0.0002 -0.8934 1.0
vtan 0.5795 0.0004 -0.815 1.0
vtan 0.8823 0.0249 -0.47 1.0
vtan 0.9688 0.0962 0.2285 1.0
vtan 0.9539 0.0673 0.2924 1.0
vtan 0.9616 0.0215 -0.2737 1.0
vtan 0.8106 -0.0015 -0.5856 1.0
vtan 1.0 0.0 -0.0 1.0
vtan 1.0 -0.0 0.0 1.0
vtan 1.0 -0.0001 -0.0 1.0
vtan 0.9874 0.0819 0.1356 1.0
vtan 0.9616 -0.0215 0.2737 1.0
vtan 0.8106 0.0014 0.5856 1.0
vtan 0.5793 -0.0007 0.8151 1.0
vtan 0.8823 -0.0249 0.47 1.0
vtan 0.9688 -0.096 -0.2284 1.0
vtan 0.9874 -0.0818 -0.1355 1.0
vtan 0.8073 -0.0149 0.59 1.0
vtan 0.4494 -0.0003 0.8933 1.0
vtan 0.3803 0.0002 0.9249 1.0
vtan 0.7498 -0.0045 0.6617 1.0
vtan 0.9419 -0.0311 -0.3346 1.0
vtan 0.9539 -0.0673 -0.2925 1.0
vtan 0.7141 -0.0004 0.7001 1.0
vtan 0.3457 -0.0002 0.9384 1.0
vtan 0.3354 0.0001 0.9421 1.0
vtan 0.7016 -0.0 0.7125 1.0
vtan 0.9277 0.0002 -0.3734 1.0
vtan 0.9309 -0.0077 -0.3651 1.0
vtan 0.7141 0.0005 0.7001 1.0
vtan 0.3457 0.0002 0.9384 1.0
vtan 0.3803 -0.0002 0.9249 1.0
vtan 0.7498 0.0044 0.6617 1.0
vtan 0.9419 0.0309 -0.3345 1.0
vtan 0.931 0.0078 -0.365 1.0
vtan 0.8076 0.014 0.5896 1.0
vtan 0.4494 0.0003 0.8933 1.0
vtan 0.5801 -0.0 0.8146 1.0
vtan 0.8828 0.0236 0.4691 1.0
vtan 0.9687 0.0966 -0.2286 1.0
vtan 0.954 0.0664 -0.2923 1.0
vtan 0.9615 0.022 0.2741 1.0
vtan 0.8106 -0.0014 0.5856 1.0
vtan 1.0 0.0 0.0001 1.0
vtan 1.0 -0.0 0.0 1.0
vtan 1.0 -0.0 0.0 1.0
vtan 0.9872 0.0834 -0.1361 1.0
vtan 0.9615 -0.022 -0.2741 1.0
vtan 0.8106 0.0014 -0.5857 1.0
vtan 0.5798 -0.0001 -0.8147 1.0
vtan 0.8828 -0.0236 -0.4691 1.0
vtan 0.9687 -0.0964 0.2286 1.0
vtan 0.9872 -0.0833 0.1361 1.0
vtan 0.8076 -0.014 -0.5896 1.0
vtan 0.4494 -0.0003 -0.8933 1.0
vtan 0.3803 0.0002 -0.9249 1.0
vtan 0.7498 -0.0044 -0.6617 1.0
vtan 0.9419 -0.031 0.3345 1.0
vtan 0.9541 -0.0663 0.2922 1.0
vtan 0.7141 -0.0005 -0.7001 1.0
vtan 0.3457 -0.0002 -0.9384 1.0
vtan 0.3354 0.0 -0.9421 1.0
vtan 0.931 -0.0079 0.365 1.0
vtan 0.5147 0.0003 -0.8574 1.0
vtan 0.5556 0.0036 -0.8315 1.0
vtan 0.5023 -0.0 -0.8647 1.0
vtan 0.6253 0.0148 -0.7803 1.0
vtan 0.7335 0.0318 -0.6789 1.0
vtan 0.887 0.0387 -0.4602 1.0
vtan 1.0 -0.0002 0.0003 1.0
vtan 0.8873 -0.0383 0.4597 1.0
vtan 0.7337 -0.0317 0.6788 1.0
vtan 0.6251 -0.015 0.7804 1.0
vtan 0.5556 -0.0036 0.8314 1.0
vtan 0.5148 -0.0002 0.8573 1.0
vtan 0.5023 0.0 0.8647 1.0
vtan 0.5147 0.0005 0.8574 1.0
vtan 0.5556 0.0036 0.8314 1.0
vtan 0.6253 0.0148 0.7803 1.0
vtan 0.7335 0.0319 0.6789 1.0
vtan 0.8869 0.0388 0.4604 1.0
vtan 1.0 0.0001 0.0001 1.0
vtan 0.8868 -0.0389 -0.4606 1.0
vtan 0.7338 -0.0316 -0.6787 1.0
vtan 0.6251 -0.015 -0.7804 1.0
vtan 0.5556 -0.0036 -0.8315 1.0
vtan 0.5147 -0.0003 -0.8574 1.0
vtan 0.9024 0.0003 -0.4309 1.0
vtan 0.9525 0.0005 -0.3046 1.0
vtan 0.9612 0.0003 -0.2757 1.0
vtan 0.9196 0.0008 -0.3929 1.0
vtan 0.8969 0.0 -0.4423 1.0
vtan 0.9493 -0.0001 -0.3144 1.0
vtan 0.9024 -0.0007 -0.431 1.0
vtan 0.9525 -0.0005 -0.3046 1.0
vtan 0.9195 -0.0013 -0.3931 1.0
vtan 0.9613 0.0 -0.2757 1.0
vtan 0.9434 -0.005 -0.3315 1.0
vtan 0.9737 -0.0003 -0.228 1.0
vtan 0.9703 -0.0062 -0.2419 1.0
vtan 0.9865 -0.0004 -0.1635 1.0
vtan 0.9916 -0.0053 -0.1294 1.0
vtan 0.9963 -0.0002 -0.0854 1.0
vtan 1.0 0.0004 0.0002 1.0
vtan 1.0 0.0 0.0 1.0
vtan 0.9916 0.0047 0.1291 1.0
vtan 0.9963 0.0003 0.0854 1.0
vtan 0.9703 0.0065 0.242 1.0
vtan 0.9866 0.0004 0.1634 1.0
vtan 0.9435 0.0046 0.3314 1.0
vtan 0.9737 0.0004 0.228 1.0
vtan 0.9195 0.0016 0.3931 1.0
vtan 0.9613 -0.0001 0.2757 1.0
vtan 0.9024 0.0007 0.431 1.0
vtan 0.9525 0.0003 0.3045 1.0
vtan 0.8969 0.0001 0.4423 1.0
vtan 0.9493 -0.0 0.3144 1.0
vtan 0.9024 -0.0005 0.4309 1.0
vtan 0.9525 -0.0003 0.3045 1.0
vtan 0.9196 -0.0008 0.3929 1.0
vtan 0.9612 -0.0002 0.2757 1.0
vtan 0.9435 -0.0047 0.3314 1.0
vtan 0.9737 0.0002 0.2278 1.0
vtan 0.9702 -0.0067 0.2421 1.0
vtan 0.9865 -0.0004 0.1635 1.0
vtan 0.9917 -0.004 0.1288 1.0
vtan 0.9964 0.0001 0.0853 1.0
vtan 1.0 -0.0002 0.0001 1.0
vtan 1.0 -0.0001 0.0 1.0
vtan 0.9916 0.0047 -0.1291 1.0
vtan 0.9964 0.0 -0.0854 1.0
vtan 0.9703 0.0061 -0.2419 1.0
vtan 0.9865 0.0007 -0.1635 1.0
vtan 0.9435 0.0046 -0.3314 1.0
vtan 0.9737 -0.0006 -0.2278 1.0
vtan 0.7515 0.0017 0.6598 1.0
vtan 0.7395 -0.0002 0.6731 1.0
vtan 0.7807 0.0198 0.6245 1.0
vtan 0.8226 0.0581 0.5656 1.0
vtan 0.8737 0.0996 0.4762 1.0
vtan 0.9461 0.0983 0.3086 1.0
vtan 1.0 -0.0002 -0.0001 1.0
vtan 0.946 -0.0985 -0.3088 1.0
vtan 0.8736 -0.0997 -0.4763 1.0
vtan 0.8226 -0.0582 -0.5656 1.0
vtan 0.7808 -0.0196 -0.6245 1.0
vtan 0.7515 -0.0017 -0.6597 1.0
vtan 0.7395 -0.0001 -0.6731 1.0
vtan 0.7515 0.0016 -0.6597 1.0
vtan 0.7809 0.0194 -0.6244 1.0
vtan 0.823 0.0569 -0.5652 1.0
vtan 0.8735 0.1 -0.4765 1.0
vtan 0.9456 0.0997 -0.3097 1.0
vtan 1.0 -0.0001 0.0001 1.0
vtan 0.9456 -0.0998 0.3098 1.0
vtan 0.8734 -0.1001 0.4765 1.0
vtan 0.823 -0.057 0.5652 1.0
vtan 0.7809 -0.0192 0.6244 1.0
vtan 0.7515 -0.0015 0.6597 1.0
vtan 1.0 -0.0 0.0 1.0
vtan 0.9178 0.0003 -0.3969 1.0
vtan 0.9008 -0.0029 -0.4343 1.0
vtan 0.8947 -0.0001 -0.4467 1.0
vtan 0.9006 -0.0016 -0.4347 1.0
vtan 0.9179 0.0005 -0.3968 1.0
vtan 0.9432 0.003 -0.3321 1.0
vtan 0.9703 0.0004 -0.242 1.0
vtan 0.9918 0.0011 -0.1277 1.0
vtan 1.0 -0.0002 -0.0001 1.0
vtan 0.9918 -0.0006 0.128 1.0
vtan 0.9703 -0.0011 0.2418 1.0
vtan 0.9432 -0.0024 0.3323 1.0
vtan 0.9179 -0.0005 0.3968 1.0
vtan 0.9006 0.0016 0.4347 1.0
vtan 0.8947 0.0001 0.4467 1.0
vtan 0.9008 0.0029 0.4343 1.0
vtan 0.9178 -0.0003 0.397 1.0
vtan 0.9429 -0.0004 0.3332 1.0
vtan 0.9703 0.0007 0.242 1.0
vtan 0.9918 0.001 0.1277 1.0
vtan 1.0 -0.0002 0.0001 1.0
vtan 0.9918 -0.0007 -0.1278 1.0
vtan 0.9703 -0.0005 -0.2421 1.0
vtan 0.9429 0.0 -0.333 1.0
f 0/0/0/0 1/1/1/1 2/2/2/2 
f 0/0/0/0 2/2/2/2 3/3/3/3 
f 1/1/1/1 0/0/0/0 4/4/4/4 
f 1/1/1/1 4/4/4/4 5/5/5/5 
f 6/6/6/6 7/7/7/7 5/5/5/5 
f 6/6/6/6 5/5/5/5 4/4/4/4 
f 8/8/8/8 9/9/9/9 7/7/7/7 
f 8/8/8/8 7/7/7/7 6/6/6/6 
f 10/10/10/10 11/11/11/11 9/9/9/9 
f 10/10/10/10 9/9/9/9 8/8/8/8 
f 12/12/12/12 13/13/13/13 11/11/11/11 
f 12/12/12/12 11/11/11/11 10/10/10/10 
f 14/14/14/14 15/15/15/15 13/13/13/13 
f 14/14/14/14 13/13/13/13 12/12/12/12 
f 16/16/16/16 17/17/17/17 15/15/15/15 
f 16/16/16/16 15/15/15/15 14/14/14/14 
f 18/18/18/18 19/19/19/19 17/17/17/17 
f 18/18/18/18 17/17/17/17 16/16/16/16 
f 20/20/20/20 21/21/21/21 19/19/19/19 
f 20/20/20/20 19/19/19/19 18/18/18/18 
f 22/22/22/22 23/23/23/23 21/21/21/21 
f 22/22/22/22 21/21/21/21 20/20/20/20 
f 24/24/24/24 25/25/25/25 23/23/23/23 
f 24/24/24/24 23/23/23/23 22/22/22/22 
f 26/26/26/26 27/27/27/27 25/25/25/25 
f 26/26/26/26 25/25/25/25 24/24/24/24 
f 28/28/28/28 29/29/29/29 27/27/27/27 
f 28/28/28/28 27/27/27/27 26/26/26/26 
f 30/30/30/30 31/31/31/31 29/29/29/29 
f 30/30/30/30 29/29/29/29 28/28/28/28 
f 32/32/32/32 33/33/33/33 31/31/31/31 
f 32/32/32/32 31/31/31/31 30/30/30/30 
f 34/34/34/34 35/35/35/35 33/33/33/33 
f 34/34/34/34 33/33/33/33 32/32/32/32 
f 36/36/36/36 37/37/37/37 35/35/35/35 
f 36/36/36/36 35/35/35/35 34/34/34/34 
f 38/38/38/38 39/39/39/39 37/37/37/37 
f 38/38/38/38 37/37/37/37 36/36/36/36 
f 40/40/40/40 41/41/41/41 39/39/39/39 
f 40/40/40/40 39/39/39/39 38/38/38/38 
f 42/42/42/42 43/43/43/43 41/41/41/41 
f 42/42/42/42 41/41/41/41 40/40/40/40 
f 44/44/44/44 45/45/45/45 43/43/43/43 
f 44/44/44/44 43/43/43/43 42/42/42/42 
f 46/46/46/46 47/47/47/47 45/45/45/45 
f 46/46/46/46 45/45/45/45 44/44/44/44 
f 3/3/3/3 2/2/2/2 47/47/47/47 
f 3/3/3/3 47/47/47/47 46/46/46/46 
f 48/48/48/48 49/49/49/49 50/50/50/50 
f 48/48/48/48 50/50/50/50 51/51/51/51 
f 52/52/52/52 53/53/53/53 48/48/48/48 
f 52/52/52/52 48/48/48/48 51/51/51/51 
f 48/48/48/48 53/53/53/53 54/54/54/54 
f 48/48/48/48 54/54/54/54 55/55/55/55 
f 56/56/56/56 57/57/57/57 58/58/58/58 
f 56/56/56/56 58/58/58/58 59/59/59/59 
f 60/60/60/60 61/61/61/61 56/56/56/56 
f 60/60/60/60 56/56/56/56 59/59/59/59 
f 56/56/56/56 61/61/61/61 52/52/52/52 
f 56/56/56/56 52/52/52/52 51/51/51/51 
f 62/62/62/62 63/63/63/63 64/64/64/64 
f 62/62/62/62 64/64/64/64 65/65/65/65 
f 66/66/66/66 67/67/67/67 62/62/62/62 
f 66/66/66/66 62/62/62/62 65/65/65/65 
f 62/62/62/62 67/67/67/67 60/60/60/60 
f 62/62/62/62 60/60/60/60 59/59/59/59 
f 68/68/68/68 69/69/69/69 70/70/70/70 
f 68/68/68/68 70/70/70/70 71/71/71/71 
f 72/72/72/72 73/73/73/73 68/68/68/68 
f 72/72/72/72 68/68/68/68 71/71/71/71 
f 68/68/68/68 73/73/73/73 66/66/66/66 
f 68/68/68/68 66/66/66/66 65/65/65/65 
f 74/74/74/74 75/75/75/75 76/76/76/76 
f 74/74/74/74 76/76/76/76 77/77/77/77 
f 78/78/78/78 79/79/79/79 74/74/74/74 
f 78/78/78/78 74/74/74/74 77/77/77/77 
f 74/74/74/74 79/79/79/79 72/72/72/72 
f 74/74/74/74 72/72/72/72 71/71/71/71 
f 80/80/80/80 81/81/81/81 82/82/82/82 
f 80/80/80/80 82/82/82/82 83/83/83/83 
f 84/84/84/84 85/85/85/85 80/80/80/80 
f 84/84/84/84 80/80/80/80 83/83/83/83 
f 80/80/80/80 85/85/85/85 78/78/78/78 
f 80/80/80/80 78/78/78/78 77/77/77/77 
f 86/86/86/86 87/87/87/87 88/88/88/88 
f 86/86/86/86 88/88/88/88 89/89/89/89 
f 90/90/90/90 91/91/91/91 86/86/86/86 
f 90/90/90/90 86/86/86/86 89/89/89/89 
f 86/86/86/86 91/91/91/91 84/84/84/84 
f 86/86/86/86 84/84/84/84 83/83/83/83 
f 92/92/92/92 93/93/93/93 94/94/94/94 
f 92/92/92/92 94/94/94/94 95/95/95/95 
f 96/96/96/96 97/97/97/97 92/92/92/92 
f 96/96/96/96 92/92/92/92 95/95/95/95 
f 92/92/92/92 97/97/97/97 90/90/90/90 
f 92/92/92/92 90/90/90/90 89/89/89/89 
f 98/98/98/98 99/99/99/99 100/100/100/100 
f 98/98/98/98 100/100/100/100 101/101/101/101 
f 102/102/102/102 103/103/103/103 98/98/98/98 
f 102/102/102/102 98/98/98/98 101/101/101/101 
f 98/98/98/98 103/103/103/103 96/96/96/96 
f 98/98/98/98 96/96/96/96 95/95/95/95 
f 104/104/104/104 105/105/105/105 106/106/106/106 
f 104/104/104/104 106/106/106/106 107/107/107/107 
f 108/108/108/108 109/109/109/109 104/104/104/104 
f 108/108/108/108 104/104/104/104 107/107/107/107 
f 104/104/104/104 109/109/109/109 102/102/102/102 
f 104/104/104/104 102/102/102/102 101/101/101/101 
f 110/110/110/110 111/111/111/111 112/112/112/112 
f 110/110/110/110 112/112/112/112 113/113/113/113 
f 114/114/114/114 115/115/115/115 110/110/110/110 
f 114/114/114/114 110/110/110/110 113/113/113/113 
f 110/110/110/110 115/115/115/115 108/108/108/108 
f 110/110/110/110 108/108/108/108 107/107/107/107 
f 116/116/116/116 117/117/117/117 118/118/118/118 
f 116/116/116/116 118/118/118/118 55/55/55/55 
f 54/54/54/54 119/119/119/119 116/116/116/116 
f 54/54/54/54 116/116/116/116 55/55/55/55 
f 116/116/116/116 119/119/119/119 114/114/114/114 
f 116/116/116/116 114/114/114/114 113/113/113/113 
f 50/50/50/50 49/49/49/49 120/120/120/120 
f 50/50/50/50 120/120/120/120 121/121/121/121 
f 122/122/122/122 120/120/120/120 49/49/49/49 
f 122/122/122/122 49/49/49/49 118/118/118/118 
f 58/58/58/58 57/57/57/57 123/123/123/123 
f 58/58/58/58 123/123/123/123 124/124/124/124 
f 121/121/121/121 123/123/123/123 57/57/57/57 
f 121/121/121/121 57/57/57/57 50/50/50/50 
f 64/64/64/64 63/63/63/63 125/125/125/125 
f 64/64/64/64 125/125/125/125 126/126/126/126 
f 124/124/124/124 125/125/125/125 63/63/63/63 
f 124/124/124/124 63/63/63/63 58/58/58/58 
f 70/70/70/70 69/69/69/69 127/127/127/127 
f 70/70/70/70 127/127/127/127 128/128/128/128 
f 126/126/126/126 127/127/127/127 69/69/69/69 
f 126/126/126/126 69/69/69/69 64/64/64/64 
f 76/76/76/76 75/75/75/75 129/129/129/129 
f 76/76/76/76 129/129/129/129 130/130/130/130 
f 128/128/128/128 129/129/129/129 75/75/75/75 
f 128/128/128/128 75/75/75/75 70/70/70/70 
f 82/82/82/82 81/81/81/81 131/131/131/131 
f 82/82/82/82 131/131/131/131 132/132/132/132 
f 130/130/130/130 131/131/131/131 81/81/81/81 
f 130/130/130/130 81/81/81/81 76/76/76/76 
f 88/88/88/88 87/87/87/87 133/133/133/133 
f 88/88/88/88 133/133/133/133 134/134/134/134 
f 132/132/132/132 133/133/133/133 87/87/87/87 
f 132/132/132/132 87/87/87/87 82/82/82/82 
f 94/94/94/94 93/93/93/93 135/135/135/135 
f 94/94/94/94 135/135/135/135 136/136/136/136 
f 134/134/134/134 135/135/135/135 93/93/93/93 
f 134/134/134/134 93/93/93/93 88/88/88/88 
f 100/100/100/100 99/99/99/99 137/137/137/137 
f 100/100/100/100 137/137/137/137 138/138/138/138 
f 136/136/136/136 137/137/137/137 99/99/99/99 
f 136/136/136/136 99/99/99/99 94/94/94/94 
f 106/106/106/106 105/105/105/105 139/139/139/139 
f 106/106/106/106 139/139/139/139 140/140/140/140 
f 138/138/138/138 139/139/139/139 105/105/105/105 
f 138/138/138/138 105/105/105/105 100/100/100/100 
f 112/112/112/112 111/111/111/111 141/141/141/141 
f 112/112/112/112 141/141/141/141 142/142/142/142 
f 140/140/140/140 141/141/141/141 111/111/111/111 
f 140/140/140/140 111/111/111/111 106/106/106/106 
f 118/118/118/118 117/117/117/117 143/143/143/143 
f 118/118/118/118 143/143/143/143 122/122/122/122 
f 142/142/142/142 143/143/143/143 117/117/117/117 
f 142/142/142/142 117/117/117/117 112/112/112/112 
f 144/144/144/144 145/145/145/145 146/146/146/146 
f 144/144/144/144 146/146/146/146 147/147/147/147 
f 148/148/148/148 149/149/149/149 145/145/145/145 
f 148/148/148/148 145/145/145/145 144/144/144/144 
f 150/150/150/150 151/151/151/151 149/149/149/149 
f 150/150/150/150 149/149/149/149 148/148/148/148 
f 152/152/152/152 153/153/153/153 151/151/151/151 
f 152/152/152/152 151/151/151/151 150/150/150/150 
f 154/154/154/154 155/155/155/155 153/153/153/153 
f 154/154/154/154 153/153/153/153 152/152/152/152 
f 156/156/156/156 157/157/157/157 155/155/155/155 
f 156/156/156/156 155/155/155/155 154/154/154/154 
f 158/158/158/158 159/159/159/159 157/157/157/157 
f 158/158/158/158 157/157/157/157 156/156/156/156 
f 160/160/160/160 161/161/161/161 159/159/159/159 
f 160/160/160/160 159/159/159/159 158/158/158/158 
f 162/162/162/162 163/163/163/163 161/161/161/161 
f 162/162/162/162 161/161/161/161 160/160/160/160 
f 164/164/164/164 165/165/165/165 163/163/163/163 
f 164/164/164/164 163/163/163/163 162/162/162/162 
f 166/166/166/166 167/167/167/167 165/165/165/165 
f 166/166/166/166 165/165/165/165 164/164/164/164 
f 168/168/168/168 169/169/169/169 167/167/167/167 
f 168/168/168/168 167/167/167/167 166/166/166/166 
f 170/170/170/170 171/171/171/171 169/169/169/169 
f 170/170/170/170 169/169/169/169 168/168/168/168 
f 172/172/172/172 173/173/173/173 171/171/171/171 
f 172/172/172/172 171/171/171/171 170/170/170/170 
f 174/174/174/174 175/175/175/175 173/173/173/173 
f 174/174/174/174 173/173/173/173 172/172/172/172 
f 176/176/176/176 177/177/177/177 175/175/175/175 
f 176/176/176/176 175/175/175/175 174/174/174/174 
f 178/178/178/178 179/179/179/179 177/177/177/177 
f 178/178/178/178 177/177/177/177 176/176/176/176 
f 180/180/180/180 181/181/181/181 179/179/179/179 
f 180/180/180/180 179/179/179/179 178/178/178/178 
f 182/182/182/182 183/183/183/183 181/181/181/181 
f 182/182/182/182 181/181/181/181 180/180/180/180 
f 184/184/184/184 185/185/185/185 183/183/183/183 
f 184/184/184/184 183/183/183/183 182/182/182/182 
f 186/186/186/186 187/187/187/187 185/185/185/185 
f 186/186/186/186 185/185/185/185 184/184/184/184 
f 188/188/188/188 189/189/189/189 187/187/187/187 
f 188/188/188/188 187/187/187/187 186/186/186/186 
f 190/190/190/190 191/191/191/191 189/189/189/189 
f 190/190/190/190 189/189/189/189 188/188/188/188 
f 147/147/147/147 146/146/146/146 191/191/191/191 
f 147/147/147/147 191/191/191/191 190/190/190/190 
f 53/53/53/53 192/192/192/192 193/193/193/193 
f 53/53/53/53 193/193/193/193 54/54/54/54 
f 52/52/52/52 194/194/194/194 192/192/192/192 
f 52/52/52/52 192/192/192/192 53/53/53/53 
f 61/61/61/61 195/195/195/195 194/194/194/194 
f 61/61/61/61 194/194/194/194 52/52/52/52 
f 60/60/60/60 196/196/196/196 195/195/195/195 
f 60/60/60/60 195/195/195/195 61/61/61/61 
f 67/67/67/67 197/197/197/197 196/196/196/196 
f 67/67/67/67 196/196/196/196 60/60/60/60 
f 66/66/66/66 198/198/198/198 197/197/197/197 
f 66/66/66/66 197/197/197/197 67/67/67/67 
f 73/73/73/73 199/199/199/199 198/198/198/198 
f 73/73/73/73 198/198/198/198 66/66/66/66 
f 72/72/72/72 200/200/200/200 199/199/199/199 
f 72/72/72/72 199/199/199/199 73/73/73/73 
f 79/79/79/79 201/201/201/201 200/200/200/200 
f 79/79/79/79 200/200/200/200 72/72/72/72 
f 78/78/78/78 202/202/202/202 201/201/201/201 
f 78/78/78/78 201/201/201/201 79/79/79/79 
f 85/85/85/85 203/203/203/203 202/202/202/202 
f 85/85/85/85 202/202/202/202 78/78/78/78 
f 84/84/84/84 204/204/204/204 203/203/203/203 
f 84/84/84/84 203/203/203/203 85/85/85/85 
f 91/91/91/91 205/205/205/205 204/204/204/204 
f 91/91/91/91 204/204/204/204 84/84/84/84 
f 90/90/90/90 206/206/206/206 205/205/205/205 
f 90/90/90/90 205/205/205/205 91/91/91/91 
f 97/97/97/97 207/207/207/207 206/206/206/206 
f 97/97/97/97 206/206/206/206 90/90/90/90 
f 96/96/96/96 208/208/208/208 207/207/207/207 
f 96/96/96/96 207/207/207/207 97/97/97/97 
f 103/103/103/103 209/209/209/209 208/208/208/208 
f 103/103/103/103 208/208/208/208 96/96/96/96 
f 102/102/102/102 210/210/210/210 209/209/209/209 
f 102/102/102/102 209/209/209/209 103/103/103/103 
f 109/109/109/109 211/211/211/211 210/210/210/210 
f 109/109/109/109 210/210/210/210 102/102/102/102 
f 108/108/108/108 212/212/212/212 211/211/211/211 
f 108/108/108/108 211/211/211/211 109/109/109/109 
f 115/115/115/115 213/213/213/213 212/212/212/212 
f 115/115/115/115 212/212/212/212 108/108/108/108 
f 114/114/114/114 214/214/214/214 213/213/213/213 
f 114/114/114/114 213/213/213/213 115/115/115/115 
f 119/119/119/119 215/215/215/215 214/214/214/214 
f 119/119/119/119 214/214/214/214 114/114/114/114 
f 54/54/54/54 193/193/193/193 215/215/215/215 
f 54/54/54/54 215/215/215/215 119/119/119/119 
f 193/193/193/193 192/192/192/192 216/216/216/216 
f 192/192/192/192 194/194/194/194 216/216/216/216 
f 194/194/194/194 195/195/195/195 216/216/216/216 
f 195/195/195/195 196/196/196/196 216/216/216/216 
f 196/196/196/196 197/197/197/197 216/216/216/216 
f 197/197/197/197 198/198/198/198 216/216/216/216 
f 198/198/198/198 199/199/199/199 216/216/216/216 
f 199/199/199/199 200/200/200/200 216/216/216/216 
f 200/200/200/200 201/201/201/201 216/216/216/216 
f 201/201/201/201 202/202/202/202 216/216/216/216 
f 202/202/202/202 203/203/203/203 216/216/216/216 
f 203/203/203/203 204/204/204/204 216/216/216/216 
f 204/204/204/204 205/205/205/205 216/216/216/216 
f 205/205/205/205 206/206/206/206 216/216/216/216 
f 206/206/206/206 207/207/207/207 216/216/216/216 
f 207/207/207/207 208/208/208/208 216/216/216/216 
f 208/208/208/208 209/209/209/209 216/216/216/216 
f 209/209/209/209 210/210/210/210 216/216/216/216 
f 210/210/210/210 211/211/211/211 216/216/216/216 
f 211/211/211/211 212/212/212/212 216/216/216/216 
f 212/212/212/212 213/213/213/213 216/216/216/216 
f 213/213/213/213 214/214/214/214 216/216/216/216 
f 214/214/214/214 215/215/215/215 216/216/216/216 
f 215/215/215/215 193/193/193/193 216/216/216/216 
f 217/217/217/217 218/218/218/218 1/1/1/1 
f 217/217/217/217 1/1/1/1 5/5/5/5 
f 219/219/219/219 220/220/220/220 47/47/47/47 
f 219/219/219/219 47/47/47/47 2/2/2/2 
f 221/221/221/221 222/222/222/222 43/43/43/43 
f 221/221/221/221 43/43/43/43 45/45/45/45 
f 223/223/223/223 224/224/224/224 39/39/39/39 
f 223/223/223/223 39/39/39/39 41/41/41/41 
f 225/225/225/225 226/226/226/226 35/35/35/35 
f 225/225/225/225 35/35/35/35 37/37/37/37 
f 227/227/227/227 228/228/228/228 31/31/31/31 
f 227/227/227/227 31/31/31/31 33/33/33/33 
f 229/229/229/229 230/230/230/230 27/27/27/27 
f 229/229/229/229 27/27/27/27 29/29/29/29 
f 231/231/231/231 232/232/232/232 23/23/23/23 
f 231/231/231/231 23/23/23/23 25/25/25/25 
f 233/233/233/233 234/234/234/234 19/19/19/19 
f 233/233/233/233 19/19/19/19 21/21/21/21 
f 235/235/235/235 236/236/236/236 15/15/15/15 
f 235/235/235/235 15/15/15/15 17/17/17/17 
f 237/237/237/237 238/238/238/238 11/11/11/11 
f 237/237/237/237 11/11/11/11 13/13/13/13 
f 239/239/239/239 240/240/240/240 7/7/7/7 
f 239/239/239/239 7/7/7/7 9/9/9/9 
f 240/240/240/240 191/191/191/191 146/146/146/146 
f 240/240/240/240 146/146/146/146 217/217/217/217 
f 239/239/239/239 189/189/189/189 191/191/191/191 
f 239/239/239/239 191/191/191/191 240/240/240/240 
f 238/238/238/238 187/187/187/187 189/189/189/189 
f 238/238/238/238 189/189/189/189 239/239/239/239 
f 236/236/236/236 183/183/183/183 185/185/185/185 
f 236/236/236/236 185/185/185/185 237/237/237/237 
f 234/234/234/234 179/179/179/179 181/181/181/181 
f 234/234/234/234 181/181/181/181 235/235/235/235 
f 232/232/232/232 175/175/175/175 177/177/177/177 
f 232/232/232/232 177/177/177/177 233/233/233/233 
f 230/230/230/230 171/171/171/171 173/173/173/173 
f 230/230/230/230 173/173/173/173 231/231/231/231 
f 228/228/228/228 167/167/167/167 169/169/169/169 
f 228/228/228/228 169/169/169/169 229/229/229/229 
f 226/226/226/226 163/163/163/163 165/165/165/165 
f 226/226/226/226 165/165/165/165 227/227/227/227 
f 224/224/224/224 159/159/159/159 161/161/161/161 
f 224/224/224/224 161/161/161/161 225/225/225/225 
f 222/222/222/222 155/155/155/155 157/157/157/157 
f 222/222/222/222 157/157/157/157 223/223/223/223 
f 220/220/220/220 151/151/151/151 153/153/153/153 
f 220/220/220/220 153/153/153/153 221/221/221/221 
f 218/218/218/218 145/145/145/145 149/149/149/149 
f 218/218/218/218 149/149/149/149 219/219/219/219 
f 151/151/151/151 220/220/220/220 219/219/219/219 
f 151/151/151/151 219/219/219/219 149/149/149/149 
f 155/155/155/155 222/222/222/222 221/221/221/221 
f 155/155/155/155 221/221/221/221 153/153/153/153 
f 159/159/159/159 224/224/224/224 223/223/223/223 
f 159/159/159/159 223/223/223/223 157/157/157/157 
f 163/163/163/163 226/226/226/226 225/225/225/225 
f 163/163/163/163 225/225/225/225 161/161/161/161 
f 167/167/167/167 228/228/228/228 227/227/227/227 
f 167/167/167/167 227/227/227/227 165/165/165/165 
f 171/171/171/171 230/230/230/230 229/229/229/229 
f 171/171/171/171 229/229/229/229 169/169/169/169 
f 175/175/175/175 232/232/232/232 231/231/231/231 
f 175/175/175/175 231/231/231/231 173/173/173/173 
f 179/179/179/179 234/234/234/234 233/233/233/233 
f 179/179/179/179 233/233/233/233 177/177/177/177 
f 183/183/183/183 236/236/236/236 235/235/235/235 
f 183/183/183/183 235/235/235/235 181/181/181/181 
f 187/187/187/187 238/238/238/238 237/237/237/237 
f 187/187/187/187 237/237/237/237 185/185/185/185 
f 145/145/145/145 218/218/218/218 217/217/217/217 
f 145/145/145/145 217/217/217/217 146/146/146/146 
f 2/2/2/2 1/1/1/1 218/218/218/218 
f 2/2/2/2 218/218/218/218 219/219/219/219 
f 45/45/45/45 47/47/47/47 220/220/220/220 
f 45/45/45/45 220/220/220/220 221/221/221/221 
f 41/41/41/41 43/43/43/43 222/222/222/222 
f 41/41/41/41 222/222/222/222 223/223/223/223 
f 37/37/37/37 39/39/39/39 224/224/224/224 
f 37/37/37/37 224/224/224/224 225/225/225/225 
f 33/33/33/33 35/35/35/35 226/226/226/226 
f 33/33/33/33 226/226/226/226 227/227/227/227 
f 29/29/29/29 31/31/31/31 228/228/228/228 
f 29/29/29/29 228/228/228/228 229/229/229/229 
f 25/25/25/25 27/27/27/27 230/230/230/230 
f 25/25/25/25 230/230/230/230 231/231/231/231 
f 21/21/21/21 23/23/23/23 232/232/232/232 
f 21/21/21/21 232/232/232/232 233/233/233/233 
f 17/17/17/17 19/19/19/19 234/234/234/234 
f 17/17/17/17 234/234/234/234 235/235/235/235 
f 13/13/13/13 15/15/15/15 236/236/236/236 
f 13/13/13/13 236/236/236/236 237/237/237/237 
f 9/9/9/9 11/11/11/11 238/238/238/238 
f 9/9/9/9 238/238/238/238 239/239/239/239 
f 5/5/5/5 7/7/7/7 240/240/240/240 
f 5/5/5/5 240/240/240/240 217/217/217/217 
f 118/118/118/118 49/49/49/49 48/48/48/48 
f 118/118/118/118 48/48/48/48 55/55/55/55 
f 50/50/50/50 57/57/57/57 56/56/56/56 
f 50/50/50/50 56/56/56/56 51/51/51/51 
f 58/58/58/58 63/63/63/63 62/62/62/62 
f 58/58/58/58 62/62/62/62 59/59/59/59 
f 64/64/64/64 69/69/69/69 68/68/68/68 
f 64/64/64/64 68/68/68/68 65/65/65/65 
f 70/70/70/70 75/75/75/75 74/74/74/74 
f 70/70/70/70 74/74/74/74 71/71/71/71 
f 76/76/76/76 81/81/81/81 80/80/80/80 
f 76/76/76/76 80/80/80/80 77/77/77/77 
f 82/82/82/82 87/87/87/87 86/86/86/86 
f 82/82/82/82 86/86/86/86 83/83/83/83 
f 88/88/88/88 93/93/93/93 92/92/92/92 
f 88/88/88/88 92/92/92/92 89/89/89/89 
f 94/94/94/94 99/99/99/99 98/98/98/98 
f 94/94/94/94 98/98/98/98 95/95/95/95 
f 100/100/100/100 105/105/105/105 104/104/104/104 
f 100/100/100/100 104/104/104/104 101/101/101/101 
f 106/106/106/106 111/111/111/111 110/110/110/110 
f 106/106/106/106 110/110/110/110 107/107/107/107 
f 112/112/112/112 117/117/117/117 116/116/116/116 
f 112/112/112/112 116/116/116/116 113/113/113/113 
f 144/144/144/144 147/147/147/147 121/121/121/121 
f 144/144/144/144 121/121/121/121 120/120/120/120 
f 148/148/148/148 144/144/144/144 120/120/120/120 
f 148/148/148/148 120/120/120/120 122/122/122/122 
f 190/190/190/190 188/188/188/188 124/124/124/124 
f 190/190/190/190 124/124/124/124 123/123/123/123 
f 147/147/147/147 190/190/190/190 123/123/123/123 
f 147/147/147/147 123/123/123/123 121/121/121/121 
f 186/186/186/186 184/184/184/184 126/126/126/126 
f 186/186/186/186 126/126/126/126 125/125/125/125 
f 188/188/188/188 186/186/186/186 125/125/125/125 
f 188/188/188/188 125/125/125/125 124/124/124/124 
f 182/182/182/182 180/180/180/180 128/128/128/128 
f 182/182/182/182 128/128/128/128 127/127/127/127 
f 184/184/184/184 182/182/182/182 127/127/127/127 
f 184/184/184/184 127/127/127/127 126/126/126/126 
f 178/178/178/178 176/176/176/176 130/130/130/130 
f 178/178/178/178 130/130/130/130 129/129/129/129 
f 180/180/180/180 178/178/178/178 129/129/129/129 
f 180/180/180/180 129/129/129/129 128/128/128/128 
f 174/174/174/174 172/172/172/172 132/132/132/132 
f 174/174/174/174 132/132/132/132 131/131/131/131 
f 176/176/176/176 174/174/174/174 131/131/131/131 
f 176/176/176/176 131/131/131/131 130/130/130/130 
f 170/170/170/170 168/168/168/168 134/134/134/134 
f 170/170/170/170 134/134/134/134 133/133/133/133 
f 172/172/172/172 170/170/170/170 133/133/133/133 
f 172/172/172/172 133/133/133/133 132/132/132/132 
f 166/166/166/166 164/164/164/164 136/136/136/136 
f 166/166/166/166 136/136/136/136 135/135/135/135 
f 168/168/168/168 166/166/166/166 135/135/135/135 
f 168/168/168/168 135/135/135/135 134/134/134/134 
f 162/162/162/162 160/160/160/160 138/138/138/138 
f 162/162/162/162 138/138/138/138 137/137/137/137 
f 164/164/164/164 162/162/162/162 137/137/137/137 
f 164/164/164/164 137/137/137/137 136/136/136/136 
f 158/158/158/158 156/156/156/156 140/140/140/140 
f 158/158/158/158 140/140/140/140 139/139/139/139 
f 160/160/160/160 158/158/158/158 139/139/139/139 
f 160/160/160/160 139/139/139/139 138/138/138/138 
f 154/154/154/154 152/152/152/152 142/142/142/142 
f 154/154/154/154 142/142/142/142 141/141/141/141 
f 156/156/156/156 154/154/154/154 141/141/141/141 
f 156/156/156/156 141/141/141/141 140/140/140/140 
f 150/150/150/150 148/148/148/148 122/122/122/122 
f 150/150/150/150 122/122/122/122 143/143/143/143 
f 152/152/152/152 150/150/150/150 143/143/143/143 
f 152/152/152/152 143/143/143/143 142/142/142/142 
