v 821.3568 695.3229 -243.7442
v 822.1699 695.3229 -242.9311
v 844.9862 695.3229 -242.9311
v 822.1699 695.3229 -313.4021
v 871.1917 695.3229 -269.1365
v 871.1917 695.3229 -313.4021
v 821.3568 695.3229 -312.5889
v 829.4016 660.3633 -306.1041
v 871.1917 660.3633 -306.1041
v 871.1917 520.3423 -306.1041
v 829.3273 520.3423 -306.1041
v 828.6557 660.3633 -250.9749
v 828.6557 660.3633 -305.3582
v 828.6557 520.3423 -305.4324
v 828.6557 520.3423 -250.9007
v 828.8183 664.2319 -249.6597
v 851.7148 664.2319 -249.6597
v 850.9385 670.6964 -248.8835
v 827.9963 670.6964 -248.8835
v 828.0862 664.2319 -250.3917
v 827.3099 670.6964 -249.5698
v 827.3099 670.6965 -306.7633
v 828.0862 664.2319 -305.9414
v 822.0922 690.9597 -313.4021
v 871.1917 690.9597 -313.402
v 871.1917 686.5967 -313.4021
v 822.0568 686.5967 -313.4021
v 821.3568 690.9597 -243.6665
v 821.3568 690.9597 -312.6666
v 821.3568 686.5967 -312.7019
v 821.3568 686.5967 -243.6312
v 829.4016 660.3633 -250.229
v 852.2841 660.3633 -250.229
v 850.0881 662.2977 -248.0331
v 827.2776 662.2977 -248.0331
v 826.4594 662.2977 -248.8512
v 826.4594 662.2977 -307.482
v 822.0922 690.9597 -242.9311
v 844.9862 690.9597 -242.9311
v 842.9407 693.1412 -240.8857
v 820.1243 693.1412 -240.8857
v 819.311 693.1412 -241.6988
v 819.311 693.1412 -314.6343
v 825.395 679.6954 -246.255
v 848.3102 679.6954 -246.255
v 844.9862 686.5967 -242.9311
v 822.0568 686.5967 -242.9311
v 824.6812 679.6954 -246.969
v 824.6812 679.6954 -309.3642
v 825.395 679.6954 -310.0781
v 829.3273 520.3423 -250.229
v 827.2776 662.2977 -308.3001
v 828.8183 664.2319 -306.6734
v 820.1243 693.1412 -315.4475
v 827.9963 670.6965 -307.4496
v 821.1014 511.8408 -312.8047
v 821.1014 511.8407 -243.5284
v 828.0399 518.7643 -250.2993
v 828.0399 518.7643 -306.0338
v 821.954 511.8407 -242.6758
v 828.7259 518.7643 -249.6133
v 844.7308 511.8407 -242.6758
v 851.6685 518.7643 -249.6133
v 821.954 511.8408 -313.6574
v 828.7259 518.7643 -306.7198
v 819.6448 509.4904 -313.408
v 819.6448 509.4903 -242.9251
v 819.6448 511.8407 -242.9251
v 819.6448 511.8408 -313.408
v 821.3506 509.4903 -241.2192
v 821.3506 511.8407 -241.2192
v 843.2743 509.4903 -241.2192
v 843.2743 511.8407 -241.2192
v 821.3506 509.4904 -315.114
v 821.3506 511.8408 -315.114
v 827.528 519.5533 -249.7999
v 827.528 519.5533 -306.5332
v 851.1564 519.5533 -249.1014
v 828.2264 519.5533 -249.1014
v 828.2264 519.5533 -307.2318
v 821.1014 509.4904 -312.8047
v 821.1014 507.1399 -312.8047
v 821.1014 507.1398 -243.5284
v 821.1014 509.4903 -243.5284
v 821.954 507.1398 -242.6758
v 821.954 509.4903 -242.6758
v 871.1917 509.4904 -313.6574
v 871.1917 507.1399 -313.6574
v 821.954 507.1399 -313.6574
v 821.954 509.4904 -313.6574
v 852.2841 520.3423 -250.229
v 871.1917 509.4904 -315.114
v 871.1917 670.6964 -307.4496
v 871.1917 664.2319 -306.6734
v 871.1917 662.2977 -308.3001
v 871.1917 693.1412 -315.4475
v 871.1917 679.6954 -310.0781
v 871.1917 511.8408 -313.6574
v 871.1917 518.7643 -306.7198
v 871.1917 511.8408 -315.114
v 871.1917 519.5533 -307.2318
v 909.5047 670.6964 -307.4496
v 908.7285 664.2319 -306.6734
v 910.3552 662.2977 -308.3001
v 908.1592 660.3633 -306.1041
v 917.5026 693.1412 -315.4475
v 915.4571 690.9597 -313.4021
v 915.4571 695.3229 -313.4021
v 915.4571 686.5967 -313.4021
v 912.1331 679.6954 -310.0781
v 908.7748 518.7643 -306.7198
v 915.7125 511.8408 -313.6574
v 917.169 511.8408 -315.114
v 917.169 509.4904 -315.114
v 909.2869 519.5533 -307.2318
v 908.1592 520.3423 -306.1041
v 844.7308 509.4903 -242.6758
v 844.7308 507.1398 -242.6758
v 915.7125 507.1399 -313.6574
v 915.7125 509.4904 -313.6574
v 915.4571 695.3229 -220.1148
v 915.4571 695.3229 -269.1365
v 845.7992 695.3229 -219.3017
v 844.9862 695.3229 -220.1148
v 914.644 695.3229 -219.3017
v 908.1592 520.3423 -269.1365
v 908.1592 660.3633 -269.1365
v 908.1592 660.3633 -227.3465
v 908.1592 520.3423 -227.2723
v 907.4875 520.3423 -226.6006
v 907.4133 660.3633 -226.6006
v 853.03 660.3633 -226.6006
v 852.9558 520.3423 -226.6006
v 851.7148 664.2319 -226.7632
v 850.9385 670.6964 -225.9412
v 908.8184 670.6965 -225.2549
v 851.6249 670.6964 -225.2549
v 852.4468 664.2319 -226.0312
v 907.9965 664.2319 -226.0312
v 915.4571 686.5967 -269.1365
v 915.4571 690.9597 -269.1365
v 915.4571 690.9597 -220.037
v 915.4571 686.5967 -220.0017
v 914.757 686.5967 -219.3017
v 914.7217 690.9597 -219.3017
v 845.7216 690.9597 -219.3017
v 845.6863 686.5967 -219.3017
v 852.2841 660.3633 -227.3465
v 850.0881 662.2977 -225.2225
v 909.5371 662.2977 -224.4043
v 850.9062 662.2977 -224.4043
v 844.9862 690.9597 -220.037
v 842.9407 693.1412 -218.0691
v 916.6894 693.1412 -217.256
v 843.7539 693.1412 -217.256
v 848.3102 679.6954 -223.34
v 844.9862 686.5967 -220.0017
v 849.024 679.6954 -222.6261
v 911.4193 679.6954 -222.6261
v 912.1331 679.6954 -223.34
v 852.2841 520.3423 -227.2723
v 910.3552 662.2977 -225.2224
v 908.7285 664.2319 -226.7632
v 917.5026 693.1412 -218.0691
v 909.5047 670.6965 -225.9412
v 852.3544 518.7643 -225.9848
v 845.5835 511.8407 -219.0463
v 914.8598 511.8407 -219.0463
v 908.0889 518.7643 -225.9848
v 851.6685 518.7643 -226.6708
v 844.7307 511.8407 -219.899
v 915.7123 511.8407 -219.899
v 908.7748 518.7643 -226.6708
v 844.9802 511.8407 -217.5896
v 844.9802 509.4903 -217.5896
v 915.4631 509.4903 -217.5896
v 915.4631 511.8407 -217.5896
v 843.2742 511.8407 -219.2956
v 843.2742 509.4903 -219.2956
v 917.169 509.4903 -219.2956
v 917.169 511.8407 -219.2956
v 908.5884 519.5533 -225.4728
v 851.8549 519.5533 -225.4728
v 851.1564 519.5533 -226.1714
v 909.2869 519.5533 -226.1713
v 845.5835 507.1398 -219.0463
v 914.8598 507.1398 -219.0463
v 914.8598 509.4903 -219.0463
v 845.5835 509.4903 -219.0463
v 844.7307 507.1398 -219.899
v 844.7307 509.4903 -219.899
v 915.7123 507.1398 -219.899
v 915.7125 507.1398 -269.1365
v 915.7125 509.4903 -269.1365
v 915.7123 509.4903 -219.899
v 917.169 509.4903 -269.1365
v 909.5047 670.6964 -269.1365
v 908.7285 664.2319 -269.1365
v 910.3552 662.2977 -269.1365
v 917.5026 693.1412 -269.1365
v 912.1331 679.6954 -269.1365
v 915.7125 511.8407 -269.1365
v 908.7748 518.7643 -269.1365
v 917.169 511.8407 -269.1365
v 909.2869 519.5533 -269.1365
gi 0 0 0 0
gi 0 0 0 0
gi 0 0 0 0
gi 0 0 0 0
gi 0 0 0 0
gi 0 0 0 0
gi 0 0 0 0
gi 0 0 0 0
gi 0 0 0 0
gi 0 0 0 0
gi 0 0 0 0
gi 0 0 0 0
gi 0 0 0 0
gi 0 0 0 0
gi 0 0 0 0
gi 0 0 0 0
gi 0 0 0 0
gi 0 0 0 0
gi 0 0 0 0
gi 0 0 0 0
gi 0 0 0 0
gi 0 0 0 0
gi 0 0 0 0
gi 0 0 0 0
gi 0 0 0 0
gi 0 0 0 0
gi 0 0 0 0
gi 0 0 0 0
gi 0 0 0 0
gi 0 0 0 0
gi 0 0 0 0
gi 0 0 0 0
gi 0 0 0 0
gi 0 0 0 0
gi 0 0 0 0
gi 0 0 0 0
gi 0 0 0 0
gi 0 0 0 0
gi 0 0 0 0
gi 0 0 0 0
gi 0 0 0 0
gi 0 0 0 0
gi 0 0 0 0
gi 0 0 0 0
gi 0 0 0 0
gi 0 0 0 0
gi 0 0 0 0
gi 0 0 0 0
gi 0 0 0 0
gi 0 0 0 0
gi 0 0 0 0
gi 0 0 0 0
gi 0 0 0 0
gi 0 0 0 0
gi 0 0 0 0
gi 0 0 0 0
gi 0 0 0 0
gi 0 0 0 0
gi 0 0 0 0
gi 0 0 0 0
gi 0 0 0 0
gi 0 0 0 0
gi 0 0 0 0
gi 0 0 0 0
gi 0 0 0 0
gi 0 0 0 0
gi 0 0 0 0
gi 0 0 0 0
gi 0 0 0 0
gi 0 0 0 0
gi 0 0 0 0
gi 0 0 0 0
gi 0 0 0 0
gi 0 0 0 0
gi 0 0 0 0
gi 0 0 0 0
gi 0 0 0 0
gi 0 0 0 0
gi 0 0 0 0
gi 0 0 0 0
gi 0 0 0 0
gi 0 0 0 0
gi 0 0 0 0
gi 0 0 0 0
gi 0 0 0 0
gi 0 0 0 0
gi 0 0 0 0
gi 0 0 0 0
gi 0 0 0 0
gi 0 0 0 0
gi 0 0 0 0
gi 0 0 0 0
gi 0 0 0 0
gi 0 0 0 0
gi 0 0 0 0
gi 0 0 0 0
gi 0 0 0 0
gi 0 0 0 0
gi 0 0 0 0
gi 0 0 0 0
gi 0 0 0 0
gi 0 0 0 0
gi 0 0 0 0
gi 0 0 0 0
gi 0 0 0 0
gi 0 0 0 0
gi 0 0 0 0
gi 0 0 0 0
gi 0 0 0 0
gi 0 0 0 0
gi 0 0 0 0
gi 0 0 0 0
gi 0 0 0 0
gi 0 0 0 0
gi 0 0 0 0
gi 0 0 0 0
gi 0 0 0 0
gi 0 0 0 0
gi 0 0 0 0
gi 0 0 0 0
gi 0 0 0 0
gi 0 0 0 0
gi 0 0 0 0
gi 0 0 0 0
gi 0 0 0 0
gi 0 0 0 0
gi 0 0 0 0
gi 0 0 0 0
gi 0 0 0 0
gi 0 0 0 0
gi 0 0 0 0
gi 0 0 0 0
gi 0 0 0 0
gi 0 0 0 0
gi 0 0 0 0
gi 0 0 0 0
gi 0 0 0 0
gi 0 0 0 0
gi 0 0 0 0
gi 0 0 0 0
gi 0 0 0 0
gi 0 0 0 0
gi 0 0 0 0
gi 0 0 0 0
gi 0 0 0 0
gi 0 0 0 0
gi 0 0 0 0
gi 0 0 0 0
gi 0 0 0 0
gi 0 0 0 0
gi 0 0 0 0
gi 0 0 0 0
gi 0 0 0 0
gi 0 0 0 0
gi 0 0 0 0
gi 0 0 0 0
gi 0 0 0 0
gi 0 0 0 0
gi 0 0 0 0
gi 0 0 0 0
gi 0 0 0 0
gi 0 0 0 0
gi 0 0 0 0
gi 0 0 0 0
gi 0 0 0 0
gi 0 0 0 0
gi 0 0 0 0
gi 0 0 0 0
gi 0 0 0 0
gi 0 0 0 0
gi 0 0 0 0
gi 0 0 0 0
gi 0 0 0 0
gi 0 0 0 0
gi 0 0 0 0
gi 0 0 0 0
gi 0 0 0 0
gi 0 0 0 0
gi 0 0 0 0
gi 0 0 0 0
gi 0 0 0 0
gi 0 0 0 0
gi 0 0 0 0
gi 0 0 0 0
gi 0 0 0 0
gi 0 0 0 0
gi 0 0 0 0
gi 0 0 0 0
gi 0 0 0 0
gi 0 0 0 0
gi 0 0 0 0
gi 0 0 0 0
gi 0 0 0 0
gi 0 0 0 0
gi 0 0 0 0
gi 0 0 0 0
gi 0 0 0 0
gi 0 0 0 0
gi 0 0 0 0
gi 0 0 0 0
gi 0 0 0 0
gi 0 0 0 0
gi 0 0 0 0
gi 0 0 0 0
gi 0 0 0 0
gw 0.0 0.0 0.0 0.0
gw 0.0 0.0 0.0 0.0
gw 0.0 0.0 0.0 0.0
gw 0.0 0.0 0.0 0.0
gw 0.0 0.0 0.0 0.0
gw 0.0 0.0 0.0 0.0
gw 0.0 0.0 0.0 0.0
gw 0.0 0.0 0.0 0.0
gw 0.0 0.0 0.0 0.0
gw 0.0 0.0 0.0 0.0
gw 0.0 0.0 0.0 0.0
gw 0.0 0.0 0.0 0.0
gw 0.0 0.0 0.0 0.0
gw 0.0 0.0 0.0 0.0
gw 0.0 0.0 0.0 0.0
gw 0.0 0.0 0.0 0.0
gw 0.0 0.0 0.0 0.0
gw 0.0 0.0 0.0 0.0
gw 0.0 0.0 0.0 0.0
gw 0.0 0.0 0.0 0.0
gw 0.0 0.0 0.0 0.0
gw 0.0 0.0 0.0 0.0
gw 0.0 0.0 0.0 0.0
gw 0.0 0.0 0.0 0.0
gw 0.0 0.0 0.0 0.0
gw 0.0 0.0 0.0 0.0
gw 0.0 0.0 0.0 0.0
gw 0.0 0.0 0.0 0.0
gw 0.0 0.0 0.0 0.0
gw 0.0 0.0 0.0 0.0
gw 0.0 0.0 0.0 0.0
gw 0.0 0.0 0.0 0.0
gw 0.0 0.0 0.0 0.0
gw 0.0 0.0 0.0 0.0
gw 0.0 0.0 0.0 0.0
gw 0.0 0.0 0.0 0.0
gw 0.0 0.0 0.0 0.0
gw 0.0 0.0 0.0 0.0
gw 0.0 0.0 0.0 0.0
gw 0.0 0.0 0.0 0.0
gw 0.0 0.0 0.0 0.0
gw 0.0 0.0 0.0 0.0
gw 0.0 0.0 0.0 0.0
gw 0.0 0.0 0.0 0.0
gw 0.0 0.0 0.0 0.0
gw 0.0 0.0 0.0 0.0
gw 0.0 0.0 0.0 0.0
gw 0.0 0.0 0.0 0.0
gw 0.0 0.0 0.0 0.0
gw 0.0 0.0 0.0 0.0
gw 0.0 0.0 0.0 0.0
gw 0.0 0.0 0.0 0.0
gw 0.0 0.0 0.0 0.0
gw 0.0 0.0 0.0 0.0
gw 0.0 0.0 0.0 0.0
gw 0.0 0.0 0.0 0.0
gw 0.0 0.0 0.0 0.0
gw 0.0 0.0 0.0 0.0
gw 0.0 0.0 0.0 0.0
gw 0.0 0.0 0.0 0.0
gw 0.0 0.0 0.0 0.0
gw 0.0 0.0 0.0 0.0
gw 0.0 0.0 0.0 0.0
gw 0.0 0.0 0.0 0.0
gw 0.0 0.0 0.0 0.0
gw 0.0 0.0 0.0 0.0
gw 0.0 0.0 0.0 0.0
gw 0.0 0.0 0.0 0.0
gw 0.0 0.0 0.0 0.0
gw 0.0 0.0 0.0 0.0
gw 0.0 0.0 0.0 0.0
gw 0.0 0.0 0.0 0.0
gw 0.0 0.0 0.0 0.0
gw 0.0 0.0 0.0 0.0
gw 0.0 0.0 0.0 0.0
gw 0.0 0.0 0.0 0.0
gw 0.0 0.0 0.0 0.0
gw 0.0 0.0 0.0 0.0
gw 0.0 0.0 0.0 0.0
gw 0.0 0.0 0.0 0.0
gw 0.0 0.0 0.0 0.0
gw 0.0 0.0 0.0 0.0
gw 0.0 0.0 0.0 0.0
gw 0.0 0.0 0.0 0.0
gw 0.0 0.0 0.0 0.0
gw 0.0 0.0 0.0 0.0
gw 0.0 0.0 0.0 0.0
gw 0.0 0.0 0.0 0.0
gw 0.0 0.0 0.0 0.0
gw 0.0 0.0 0.0 0.0
gw 0.0 0.0 0.0 0.0
gw 0.0 0.0 0.0 0.0
gw 0.0 0.0 0.0 0.0
gw 0.0 0.0 0.0 0.0
gw 0.0 0.0 0.0 0.0
gw 0.0 0.0 0.0 0.0
gw 0.0 0.0 0.0 0.0
gw 0.0 0.0 0.0 0.0
gw 0.0 0.0 0.0 0.0
gw 0.0 0.0 0.0 0.0
gw 0.0 0.0 0.0 0.0
gw 0.0 0.0 0.0 0.0
gw 0.0 0.0 0.0 0.0
gw 0.0 0.0 0.0 0.0
gw 0.0 0.0 0.0 0.0
gw 0.0 0.0 0.0 0.0
gw 0.0 0.0 0.0 0.0
gw 0.0 0.0 0.0 0.0
gw 0.0 0.0 0.0 0.0
gw 0.0 0.0 0.0 0.0
gw 0.0 0.0 0.0 0.0
gw 0.0 0.0 0.0 0.0
gw 0.0 0.0 0.0 0.0
gw 0.0 0.0 0.0 0.0
gw 0.0 0.0 0.0 0.0
gw 0.0 0.0 0.0 0.0
gw 0.0 0.0 0.0 0.0
gw 0.0 0.0 0.0 0.0
gw 0.0 0.0 0.0 0.0
gw 0.0 0.0 0.0 0.0
gw 0.0 0.0 0.0 0.0
gw 0.0 0.0 0.0 0.0
gw 0.0 0.0 0.0 0.0
gw 0.0 0.0 0.0 0.0
gw 0.0 0.0 0.0 0.0
gw 0.0 0.0 0.0 0.0
gw 0.0 0.0 0.0 0.0
gw 0.0 0.0 0.0 0.0
gw 0.0 0.0 0.0 0.0
gw 0.0 0.0 0.0 0.0
gw 0.0 0.0 0.0 0.0
gw 0.0 0.0 0.0 0.0
gw 0.0 0.0 0.0 0.0
gw 0.0 0.0 0.0 0.0
gw 0.0 0.0 0.0 0.0
gw 0.0 0.0 0.0 0.0
gw 0.0 0.0 0.0 0.0
gw 0.0 0.0 0.0 0.0
gw 0.0 0.0 0.0 0.0
gw 0.0 0.0 0.0 0.0
gw 0.0 0.0 0.0 0.0
gw 0.0 0.0 0.0 0.0
gw 0.0 0.0 0.0 0.0
gw 0.0 0.0 0.0 0.0
gw 0.0 0.0 0.0 0.0
gw 0.0 0.0 0.0 0.0
gw 0.0 0.0 0.0 0.0
gw 0.0 0.0 0.0 0.0
gw 0.0 0.0 0.0 0.0
gw 0.0 0.0 0.0 0.0
gw 0.0 0.0 0.0 0.0
gw 0.0 0.0 0.0 0.0
gw 0.0 0.0 0.0 0.0
gw 0.0 0.0 0.0 0.0
gw 0.0 0.0 0.0 0.0
gw 0.0 0.0 0.0 0.0
gw 0.0 0.0 0.0 0.0
gw 0.0 0.0 0.0 0.0
gw 0.0 0.0 0.0 0.0
gw 0.0 0.0 0.0 0.0
gw 0.0 0.0 0.0 0.0
gw 0.0 0.0 0.0 0.0
gw 0.0 0.0 0.0 0.0
gw 0.0 0.0 0.0 0.0
gw 0.0 0.0 0.0 0.0
gw 0.0 0.0 0.0 0.0
gw 0.0 0.0 0.0 0.0
gw 0.0 0.0 0.0 0.0
gw 0.0 0.0 0.0 0.0
gw 0.0 0.0 0.0 0.0
gw 0.0 0.0 0.0 0.0
gw 0.0 0.0 0.0 0.0
gw 0.0 0.0 0.0 0.0
gw 0.0 0.0 0.0 0.0
gw 0.0 0.0 0.0 0.0
gw 0.0 0.0 0.0 0.0
gw 0.0 0.0 0.0 0.0
gw 0.0 0.0 0.0 0.0
gw 0.0 0.0 0.0 0.0
gw 0.0 0.0 0.0 0.0
gw 0.0 0.0 0.0 0.0
gw 0.0 0.0 0.0 0.0
gw 0.0 0.0 0.0 0.0
gw 0.0 0.0 0.0 0.0
gw 0.0 0.0 0.0 0.0
gw 0.0 0.0 0.0 0.0
gw 0.0 0.0 0.0 0.0
gw 0.0 0.0 0.0 0.0
gw 0.0 0.0 0.0 0.0
gw 0.0 0.0 0.0 0.0
gw 0.0 0.0 0.0 0.0
gw 0.0 0.0 0.0 0.0
gw 0.0 0.0 0.0 0.0
gw 0.0 0.0 0.0 0.0
gw 0.0 0.0 0.0 0.0
gw 0.0 0.0 0.0 0.0
gw 0.0 0.0 0.0 0.0
gw 0.0 0.0 0.0 0.0
gw 0.0 0.0 0.0 0.0
gw 0.0 0.0 0.0 0.0
gw 0.0 0.0 0.0 0.0
gw 0.0 0.0 0.0 0.0
gw 0.0 0.0 0.0 0.0
gw 0.0 0.0 0.0 0.0
gw 0.0 0.0 0.0 0.0
vt 0.1674 0.876
vt 0.1655 0.8746
vt 0.1143 0.8746
vt 0.1655 0.9938
vt 0.0555 0.919
vt 0.0555 0.9938
vt 0.1674 0.9924
vt 0.5006 0.7672
vt 0.6859 0.7672
vt 0.6859 0.0122
vt 0.5003 0.0122
vt 0.2558 0.7672
vt 0.4971 0.7672
vt 0.4975 0.0122
vt 0.2558 0.0122
vt 0.7592 0.8897
vt 0.6967 0.8897
vt 0.6988 0.91
vt 0.7614 0.91
vt 0.8121 0.8892
vt 0.8098 0.9096
vt 0.9659 0.9096
vt 0.9637 0.8892
vt 0.1755 0.9726
vt 0.3095 0.9726
vt 0.3095 0.9589
vt 0.1754 0.9589
vt 0.7937 0.9733
vt 0.982 0.9733
vt 0.9821 0.9596
vt 0.7936 0.9596
vt 0.2525 0.7672
vt 0.151 0.7672
vt 0.1585 0.779
vt 0.2524 0.779
vt 0.2559 0.779
vt 0.4969 0.7793
vt 0.7011 0.8836
vt 0.7634 0.8836
vt 0.8079 0.8832
vt 0.9679 0.8832
vt 0.7775 0.9737
vt 0.7151 0.9737
vt 0.7206 0.9806
vt 0.7829 0.9806
vt 0.7884 0.9801
vt 0.9874 0.9801
vt 0.7151 0.9875
vt 0.7773 0.9875
vt 0.7939 0.987
vt 0.9818 0.987
vt 0.7685 0.9383
vt 0.706 0.9383
vt 0.7151 0.96
vt 0.7776 0.96
vt 0.8027 0.9379
vt 0.973 0.9379
vt 0.9754 0.9368
vt 0.9849 0.9589
vt 0.2528 0.0122
vt 0.8073 0.909
vt 0.8095 0.8902
vt 0.9848 0.9721
vt 0.7912 0.9721
vt 0.791 0.9589
vt 0.9705 0.8857
vt 0.9664 0.8902
vt 0.8052 0.8857
vt 0.5005 0.7793
vt 0.9907 0.9801
vt 0.786 0.9801
vt 0.9842 0.9896
vt 0.7916 0.9896
vt 0.9686 0.909
vt 0.8002 0.9367
vt 0.9787 0.844
vt 0.7407 0.844
vt 0.7521 0.8673
vt 0.9674 0.8673
vt 0.7344 0.844
vt 0.7231 0.8673
vt 0.6561 0.844
vt 0.6344 0.8678
vt 0.9833 0.8433
vt 0.983 0.8665
vt 0.979 0.8318
vt 0.7404 0.8318
vt 0.7404 0.8398
vt 0.979 0.8398
vt 0.7347 0.8318
vt 0.7347 0.8398
vt 0.6605 0.8318
vt 0.6605 0.8398
vt 0.9847 0.8318
vt 0.9847 0.8398
vt 0.7512 0.8699
vt 0.9682 0.8705
vt 0.6362 0.8704
vt 0.7239 0.8699
vt 0.983 0.8702
vt 0.5036 0.8097
vt 0.5036 0.8179
vt 0.745 0.8179
vt 0.745 0.8097
vt 0.7479 0.8179
vt 0.7479 0.8097
vt 0.3292 0.8097
vt 0.3292 0.8179
vt 0.5007 0.8179
vt 0.5007 0.8097
vt 0.2557 0.0062
vt 0.4974 0.0062
vt 0.155 0.0062
vt 0.151 0.0122
vt 0.2527 0.0062
vt 0.5002 0.0062
vt 0.9787 0.8276
vt 0.7407 0.8276
vt 0.9833 0.8276
vt 0.0095 0.8276
vt 0.0075 0.8318
vt 0.1761 0.8318
vt 0.1774 0.8276
vt 0.7344 0.8276
vt 0.3095 0.9089
vt 0.3095 0.8885
vt 0.1939 0.8885
vt 0.1916 0.9089
vt 0.6812 0.779
vt 0.3095 0.8825
vt 0.1897 0.8825
vt 0.3095 0.9794
vt 0.1701 0.9794
vt 0.1757 0.9863
vt 0.3095 0.9863
vt 0.3095 0.9372
vt 0.1845 0.9372
vt 0.1774 0.8442
vt 0.0095 0.8447
vt 0.0185 0.8682
vt 0.183 0.8683
vt 0.0075 0.8398
vt 0.1761 0.8398
vt 0.1822 0.8709
vt 0.0168 0.8708
vt 0.6833 0.0062
vt 0.2049 0.9089
vt 0.2071 0.8885
vt 0.5201 0.7792
vt 0.522 0.7672
vt 0.2026 0.8825
vt 0.1831 0.9794
vt 0.1887 0.9726
vt 0.1887 0.9863
vt 0.1887 0.9589
vt 0.1978 0.9372
vt 0.0374 0.8682
vt 0.0256 0.8447
vt 0.0205 0.8398
vt 0.0205 0.8318
vt 0.0356 0.8709
vt 0.522 0.0122
vt 0.521 0.0062
vt 0.8273 0.8097
vt 0.8273 0.8179
vt 0.6561 0.8276
vt 0.1549 0.9938
vt 0.4842 0.8179
vt 0.4842 0.8097
vt 0.0256 0.8276
vn -0.4014 0.9081 0.1192
vn -0.1192 0.9081 0.4014
vn -0.1157 0.9865 0.1157
vn -0.1192 0.9081 -0.4014
vn 0.0 1.0 -0.0
vn 0.0 0.9176 -0.3975
vn -0.4014 0.9081 -0.1192
vn -0.2921 -0.5105 -0.8088
vn 0.0 -0.4117 -0.9113
vn 0.0 0.4619 -0.8869
vn -0.2799 0.5652 -0.7761
vn -0.8087 -0.5105 0.2921
vn -0.8087 -0.5105 -0.2921
vn -0.7761 0.5651 -0.2798
vn -0.7761 0.5651 0.2798
vn -0.3129 0.3591 0.8793
vn -0.6771 0.2883 0.6771
vn -0.6821 -0.2638 0.6821
vn -0.3576 -0.262 0.8964
vn -0.8793 0.3591 0.313
vn -0.8963 -0.2621 0.3577
vn -0.8963 -0.262 -0.3577
vn -0.8793 0.3591 -0.3129
vn -0.3026 -0.4599 -0.8348
vn 0.0 -0.3678 -0.9299
vn 0.0 -0.2225 -0.9749
vn -0.3872 -0.2629 -0.8837
vn -0.8348 -0.4599 0.3026
vn -0.8348 -0.4599 -0.3025
vn -0.8838 -0.2629 -0.3871
vn -0.8838 -0.2629 0.3871
vn -0.2921 -0.5104 0.8088
vn -0.6447 -0.4108 0.6447
vn -0.7013 -0.1278 0.7013
vn -0.4328 -0.0633 0.8992
vn -0.8992 -0.0633 0.4328
vn -0.8992 -0.0633 -0.4329
vn -0.3026 -0.4599 0.8349
vn -0.6538 -0.381 0.6538
vn -0.7071 -0.0 0.7071
vn -0.4354 0.0028 0.9003
vn -0.9002 0.0028 0.4354
vn -0.9002 0.0029 -0.4354
vn -0.3245 -0.4518 0.831
vn -0.6292 -0.4562 0.6292
vn -0.6648 -0.3406 0.6648
vn -0.3872 -0.2629 0.8837
vn -0.831 -0.4518 0.3244
vn -0.831 -0.4519 -0.3244
vn -0.3244 -0.4518 -0.831
vn -0.2799 0.5651 0.7761
vn -0.4328 -0.0633 -0.8992
vn -0.3129 0.3591 -0.8793
vn -0.4354 0.0028 -0.9002
vn -0.3576 -0.262 -0.8964
vn -0.2184 0.9701 -0.1058
vn -0.2184 0.9701 0.1058
vn -0.9468 0.1288 0.295
vn -0.9468 0.1288 -0.2949
vn -0.1058 0.9701 0.2184
vn -0.295 0.1288 0.9468
vn -0.2998 0.9057 0.2998
vn -0.7047 0.0826 0.7047
vn -0.1058 0.9701 -0.2184
vn -0.295 0.1288 -0.9468
vn -0.7173 -0.6303 -0.2971
vn -0.7173 -0.6302 0.2971
vn -0.7173 0.6303 0.2971
vn -0.7173 0.6302 -0.2971
vn -0.2971 -0.6303 0.7173
vn -0.2971 0.6302 0.7173
vn -0.3015 -0.9045 0.3015
vn -0.3015 0.9045 0.3015
vn -0.2972 -0.6302 -0.7173
vn -0.2971 0.6302 -0.7173
vn -0.89 0.1596 0.4271
vn -0.89 0.1596 -0.4271
vn -0.6699 0.3198 0.67
vn -0.4273 0.1596 0.8899
vn -0.4272 0.1596 -0.8899
vn -0.5491 -0.8042 -0.2274
vn -0.9239 0.0 -0.3827
vn -0.9239 0.0 0.3827
vn -0.5491 -0.8042 0.2275
vn -0.3827 0.0 0.9239
vn -0.2275 -0.8042 0.5491
vn 0.0 -0.7071 -0.7071
vn 0.0 0.0 -1.0
vn -0.3827 0.0 -0.9239
vn -0.2275 -0.8042 -0.5491
vn -0.6342 0.4423 0.6342
vn 0.0 -0.7071 -0.7071
vn -0.0 -0.2005 -0.9797
vn 0.0 0.2858 -0.9583
vn 0.0 -0.0746 -0.9972
vn -0.0 -0.0 -1.0
vn -0.0 -0.3584 -0.9336
vn 0.0 0.9241 -0.3822
vn 0.0 0.1052 -0.9944
vn 0.0 0.7071 -0.7071
vn 0.0 0.1912 -0.9816
vn 0.6766 -0.2907 -0.6766
vn 0.6319 0.4487 -0.6319
vn 0.7061 -0.0541 -0.7061
vn 0.559 -0.6123 -0.5591
vn 0.7071 -0.0 -0.7071
vn 0.5886 -0.5541 -0.5886
vn 0.3128 0.8968 -0.3128
vn 0.6823 -0.2628 -0.6823
vn 0.6141 -0.4958 -0.6141
vn 0.6957 0.1787 -0.6957
vn 0.1099 0.9879 -0.1099
vn 0.5773 0.5774 -0.5773
vn 0.5773 -0.5774 -0.5773
vn 0.7001 0.1403 -0.7001
vn 0.5222 0.6742 -0.5222
vn -0.5773 -0.5774 0.5773
vn -0.7071 0.0 0.7071
vn 0.7071 0.0 -0.7071
vn 0.3015 -0.9045 -0.3015
vn 0.4014 0.9081 0.1192
vn 0.3975 0.9176 0.0
vn -0.1192 0.9081 0.4014
vn -0.4014 0.9081 0.1192
vn 0.1192 0.9081 0.4014
vn 0.8869 0.4619 0.0
vn 0.9113 -0.4117 0.0
vn 0.8088 -0.5105 0.2921
vn 0.7761 0.5651 0.2799
vn 0.2799 0.5652 0.7761
vn 0.2921 -0.5105 0.8087
vn -0.2921 -0.5105 0.8087
vn -0.2799 0.5652 0.776
vn -0.8793 0.3591 0.3129
vn -0.8963 -0.262 0.3577
vn 0.3577 -0.262 0.8963
vn -0.3576 -0.262 0.8963
vn -0.3129 0.3591 0.8793
vn 0.3129 0.3591 0.8793
vn 0.9749 -0.2225 0.0
vn 0.9299 -0.3678 0.0
vn 0.8348 -0.4599 0.3026
vn 0.8837 -0.2629 0.3872
vn 0.3871 -0.2629 0.8838
vn 0.3025 -0.4599 0.8348
vn -0.3025 -0.4599 0.8348
vn -0.3871 -0.2629 0.8838
vn -0.8088 -0.5105 0.2921
vn -0.8993 -0.0633 0.4328
vn 0.4328 -0.0633 0.8992
vn -0.4329 -0.0633 0.8992
vn -0.8348 -0.4599 0.3026
vn -0.9002 0.0029 0.4354
vn 0.4354 0.0028 0.9003
vn -0.4354 0.0028 0.9003
vn -0.831 -0.4518 0.3244
vn -0.8837 -0.2629 0.3872
vn -0.3244 -0.4519 0.831
vn 0.3245 -0.4519 0.831
vn 0.831 -0.4518 0.3244
vn -0.7761 0.5651 0.2799
vn 0.8992 -0.0633 0.4328
vn 0.8793 0.3591 0.3129
vn 0.9002 0.0028 0.4354
vn 0.8963 -0.262 0.3576
vn -0.295 0.1288 0.9468
vn -0.1058 0.9701 0.2184
vn 0.1058 0.9701 0.2184
vn 0.295 0.1288 0.9468
vn -0.9468 0.1287 0.2949
vn -0.2184 0.9701 0.1058
vn 0.2184 0.9701 0.1058
vn 0.9468 0.1287 0.2949
vn -0.2971 0.6303 0.7173
vn -0.2971 -0.6302 0.7173
vn 0.2971 -0.6303 0.7173
vn 0.2971 0.6302 0.7173
vn -0.7173 0.6302 0.2971
vn -0.7173 -0.6303 0.2971
vn 0.7173 -0.6302 0.2971
vn 0.7173 0.6303 0.2971
vn 0.4272 0.1597 0.89
vn -0.4272 0.1597 0.8899
vn -0.89 0.1596 0.4271
vn 0.89 0.1596 0.4272
vn -0.3826 0.0 0.9239
vn 0.3827 0.0 0.9239
vn 0.2275 -0.8042 0.5491
vn -0.2274 -0.8042 0.5491
vn -0.9239 0.0 0.3827
vn -0.5491 -0.8042 0.2275
vn 0.9239 0.0 0.3826
vn 1.0 0.0 0.0
vn 0.7071 -0.7071 0.0
vn 0.5492 -0.8042 0.2274
vn 0.7071 -0.7071 0.0
vn 0.9797 -0.2005 0.0
vn 0.9583 0.2858 0.0
vn 0.9972 -0.0746 0.0
vn 1.0 -0.0 0.0
vn 0.9336 -0.3584 0.0
vn 0.3822 0.9241 0.0
vn 0.9945 0.1051 0.0
vn 0.7071 0.7071 0.0
vn 0.9816 0.191 0.0
vtan -0.9159 -0.398 -0.0519
vtan -0.9929 -0.109 -0.0482
vtan -0.9933 -0.1149 -0.0136
vtan -0.9929 -0.1112 0.0433
vtan -1.0 -0.0 -0.0027
vtan -1.0 -0.0002 -0.0006
vtan -0.9157 -0.4005 0.0326
vtan 0.9404 0.0008 -0.3401
vtan 1.0 0.0 0.0
vtan 0.9411 0.0017 -0.3382
vtan -0.3397 -0.0 -0.9405
vtan 0.3399 -0.0003 -0.9405
vtan 0.3381 -0.0017 -0.9411
vtan -0.3381 0.0017 -0.9411
vtan -0.9498 -0.1183 -0.2896
vtan -0.7359 -0.2653 -0.6229
vtan -0.7313 0.246 -0.6361
vtan -0.9339 0.1003 -0.3432
vtan -0.2823 0.1363 -0.9496
vtan -0.3421 -0.1046 -0.9338
vtan 0.3453 0.0936 -0.9338
vtan 0.2673 -0.1717 -0.9482
vtan 0.9531 -0.146 -0.265
vtan 1.0 -0.0 0.0
vtan 1.0 -0.0 0.0
vtan 0.922 -0.1104 -0.3711
vtan -0.27 -0.137 -0.9531
vtan 0.254 0.1657 -0.9529
vtan 0.366 0.127 -0.9219
vtan -0.3643 -0.1325 -0.9218
vtan -0.9405 -0.0003 -0.3399
vtan -0.7644 0.3464 -0.5437
vtan -0.7129 0.1257 -0.6899
vtan -0.901 -0.0032 -0.4339
vtan -0.4339 0.0028 -0.901
vtan 0.4339 -0.0032 -0.9009
vtan -0.7129 0.1257 -0.6899
vtan -0.9015 0.0304 -0.4318
vtan -0.4313 0.2938 -0.853
vtan 0.431 -0.2976 -0.8519
vtan -0.9531 0.146 -0.265
vtan -0.7567 0.3292 -0.5649
vtan -0.7071 0.0 -0.7071
vtan -0.9003 -0.0014 -0.4354
vtan -0.435 0.0375 -0.8996
vtan 0.4354 0.0221 -0.9
vtan -0.9933 -0.1149 -0.0135
vtan 0.019 0.1384 -0.9902
vtan 0.0963 -0.0876 -0.9915
vtan -0.9459 0.155 -0.2851
vtan -0.7772 0.3693 -0.5094
vtan -0.747 0.3031 -0.5917
vtan -0.922 0.1104 -0.3711
vtan -0.2727 -0.1773 -0.9456
vtan 0.2785 0.1669 -0.9458
vtan 0.6805 0.4987 -0.5369
vtan 0.8204 0.3392 -0.4604
vtan -0.9411 -0.0017 -0.3382
vtan -0.8561 -0.2915 -0.4268
vtan -0.6953 0.5441 -0.4696
vtan 0.6808 0.5087 -0.527
vtan -0.6777 -0.5121 -0.5277
vtan -0.8193 -0.3415 -0.4605
vtan 0.7219 -0.6218 -0.3037
vtan 0.7183 -0.5163 -0.4664
vtan -0.5545 0.8052 -0.2103
vtan 0.9009 0.0037 -0.4339
vtan 0.8978 -0.0727 -0.4344
vtan -0.8996 -0.0385 -0.4349
vtan 0.1651 -0.3806 -0.9099
vtan -0.1666 0.3803 -0.9097
vtan 0.8418 0.3252 -0.4309
vtan -0.6639 -0.5169 -0.5403
vtan 0.5028 0.0189 -0.8642
vtan -0.4242 0.0033 -0.9056
vtan -0.2973 0.0014 -0.9548
vtan 0.3064 0.0801 -0.9485
vtan -0.9056 -0.0033 -0.4242
vtan -0.9547 0.0001 -0.2975
vtan -0.954 -0.2831 -0.0987
vtan -0.7094 -0.0729 -0.701
vtan 0.8728 -0.0146 -0.4879
vtan 0.9479 0.1639 -0.273
vtan 0.3827 -0.0 -0.9239
vtan -0.3827 -0.0 -0.9239
vtan -0.3827 -0.0 -0.9239
vtan 0.3827 -0.0 -0.9239
vtan -0.9239 -0.0 -0.3827
vtan -0.9239 -0.0 -0.3827
vtan -0.9535 0.286 -0.0953
vtan -0.9535 -0.286 -0.0953
vtan 0.833 0.1961 -0.5174
vtan 0.8506 -0.1665 -0.4987
vtan -0.4332 -0.0039 -0.9013
vtan 0.4382 0.0405 -0.898
vtan -0.7424 -0.2835 -0.607
vtan -0.9011 0.0052 -0.4336
vtan 0.9041 0.0681 -0.4218
vtan -0.3827 0.0 0.9239
vtan -0.3827 -0.0 0.9239
vtan 0.3827 -0.0 0.9239
vtan 0.3827 -0.0 0.9239
vtan 0.9239 0.0 0.3827
vtan 0.9239 0.0 0.3827
vtan -1.0 0.0 0.0
vtan -0.9239 0.0 0.3827
vtan -0.9239 -0.0 0.3827
vtan -0.4342 -0.0104 -0.9008
vtan 0.4341 0.0104 -0.9008
vtan -0.7424 -0.2885 -0.6046
vtan -0.7732 -0.3628 -0.5201
vtan -0.9007 0.0104 -0.4343
vtan 0.9007 -0.0104 -0.4343
vtan 0.3827 -0.0 -0.9239
vtan -0.3827 -0.0 -0.9239
vtan 0.7792 0.1878 -0.5979
vtan 0.9738 -0.1879 -0.1283
vtan 0.9548 -0.1961 -0.2232
vtan -0.9239 0.0 -0.3827
vtan 1.0 -0.0 -0.0
vtan 0.9498 0.1183 -0.2896
vtan 0.9339 -0.1003 -0.3432
vtan 1.0 0.0 -0.0
vtan 0.9015 -0.0304 -0.4318
vtan 1.0 -0.0 -0.0
vtan 0.9003 0.0014 -0.4354
vtan 0.9929 0.109 -0.0482
vtan 1.0 -0.0 0.0
vtan 0.9459 -0.155 -0.285
vtan 1.0 0.0005 0.0013
vtan 0.9944 0.1035 -0.0221
vtan 0.9555 0.041 -0.2921
vtan 1.0 -0.0007 -0.0001
vtan 0.9548 0.1961 -0.2232
vtan 1.0 0.0008 0.0008
vtan 1.0 -0.0006 -0.0001
vtan 0.9041 0.0747 -0.4206
vtan -1.0 0.0 0.0
vtan -0.7364 -0.2671 -0.6216
vtan -0.775 0.3659 -0.5152
vtan -1.0 0.0 -0.0
vtan -0.7081 -0.0527 -0.7041
vtan -0.8291 -0.4122 -0.3777
vtan -0.7081 -0.0539 -0.704
vtan -1.0 -0.0 0.0
vtan -0.7071 -0.0 -0.7071
vtan -0.8084 -0.4035 -0.4286
vtan -1.0 -0.0 -0.0
vtan -0.9498 0.2953 -0.103
vtan -1.0 -0.0 -0.0
vtan -0.7311 -0.2452 -0.6367
vtan -0.7893 -0.3858 -0.4778
vtan -1.0 0.0 0.0
vtan -0.7183 0.1755 -0.6732
vtan -0.9939 0.1093 -0.0112
vtan -1.0 0.0006 0.0015
vtan -1.0 -0.0008 -0.0001
vtan -0.8165 0.4083 -0.4082
vtan -0.8165 -0.4083 -0.4082
vtan -1.0 0.0009 0.0009
vtan -1.0 -0.0007 -0.0001
vtan -0.714 0.1376 -0.6865
vtan -0.8528 0.4129 -0.3198
vtan 0.8165 -0.4083 0.4082
vtan 0.7071 0.0 0.7071
vtan -0.8165 0.4083 -0.4082
vtan 0.9498 -0.2953 0.103
vtan 0.7071 0.0 0.7071
vtan 0.9535 0.286 0.0953
vtan -0.9535 -0.286 -0.0953
vtan -0.043 -0.1113 0.9929
vtan 0.0 0.0 1.0
vtan 0.0003 0.0 1.0
vtan 0.0494 -0.3984 0.9159
vtan 0.0135 -0.1149 0.9933
vtan 0.0444 -0.1107 0.9929
vtan -0.0325 -0.4005 0.9157
vtan 0.0 0.0 -1.0
vtan 0.3401 0.0008 -0.9404
vtan 0.3381 0.0017 -0.9411
vtan 0.9411 -0.0017 -0.3382
vtan 0.9405 -0.0003 -0.3399
vtan 0.9405 -0.0 0.3397
vtan 0.9411 0.0017 0.3382
vtan 0.2897 -0.1183 0.9498
vtan 0.3433 0.1004 0.9338
vtan 0.6362 0.246 0.7313
vtan 0.6229 -0.2653 0.7359
vtan 0.9338 0.0936 -0.3453
vtan 0.9339 -0.1046 0.342
vtan 0.9496 0.1363 0.2823
vtan 0.9482 -0.1717 -0.2673
vtan 0.265 -0.146 -0.9531
vtan 0.3711 -0.1104 -0.922
vtan 0.9219 0.127 -0.366
vtan 0.9529 0.1658 -0.254
vtan 0.9531 -0.137 0.2699
vtan 0.9218 -0.1325 0.3643
vtan 0.3399 -0.0003 0.9405
vtan 0.4339 -0.0032 0.901
vtan 0.69 0.1257 0.7128
vtan 0.5437 0.3464 0.7644
vtan 0.901 -0.0032 -0.4339
vtan 0.901 0.0028 0.4339
vtan 0.4318 0.0304 0.9015
vtan 0.853 0.2938 0.4313
vtan 0.8519 -0.2976 -0.431
vtan 0.265 0.146 0.9531
vtan 0.4354 -0.0014 0.9002
vtan 0.7071 0.0 0.7071
vtan 0.5648 0.3292 0.7567
vtan 0.9 0.0221 -0.4353
vtan 0.8997 0.0375 0.435
vtan 0.0482 -0.109 0.9929
vtan 0.0135 -0.1149 0.9933
vtan 0.9915 -0.0876 -0.0963
vtan 0.9902 0.1384 -0.019
vtan 0.285 0.155 0.9459
vtan 0.3711 0.1104 0.922
vtan 0.5917 0.3031 0.747
vtan 0.5094 0.3693 0.7772
vtan 0.9456 -0.1773 0.2728
vtan 0.9458 0.1669 -0.2785
vtan 0.5368 0.4987 -0.6806
vtan 0.4603 0.3392 -0.8204
vtan 0.3381 -0.0017 0.9411
vtan 0.4268 -0.2915 0.8561
vtan 0.4696 0.5441 0.6952
vtan 0.527 0.5088 -0.6807
vtan 0.5278 -0.5122 0.6776
vtan 0.4605 -0.3415 0.8193
vtan 0.3037 -0.6218 -0.7219
vtan 0.4664 -0.5163 -0.7182
vtan 0.2102 0.8052 0.5545
vtan 0.4339 0.0037 -0.9009
vtan 0.4345 -0.0727 -0.8977
vtan 0.435 -0.0385 0.8996
vtan 0.9099 -0.3806 -0.1651
vtan 0.9097 0.3803 0.1666
vtan 0.4309 0.3252 -0.8418
vtan 0.5403 -0.5169 0.664
vtan 0.9548 0.0014 0.2973
vtan 0.9056 0.0033 0.4242
vtan 0.8642 0.0189 -0.5028
vtan 0.9485 0.0801 -0.3064
vtan 0.2974 0.0001 0.9547
vtan 0.4242 -0.0033 0.9056
vtan 0.7009 -0.0729 0.7095
vtan 0.0987 -0.2831 0.954
vtan 0.4877 -0.0146 -0.8729
vtan 0.273 0.164 -0.9479
vtan 0.9239 0.0 0.3827
vtan 0.9239 -0.0 0.3827
vtan 0.9239 -0.0 -0.3827
vtan 0.9239 -0.0 -0.3827
vtan 0.3827 -0.0 0.9239
vtan 0.3827 -0.0 0.9239
vtan 0.0953 -0.286 0.9535
vtan 0.0953 0.286 0.9535
vtan 0.5173 0.1961 -0.833
vtan 0.4986 -0.1665 -0.8507
vtan 0.8979 0.0405 -0.4383
vtan 0.9012 -0.0039 0.4333
vtan 0.4334 0.0052 0.9012
vtan 0.6071 -0.2836 0.7423
vtan 0.4218 0.0681 -0.9041
vtan -0.9239 0.0 -0.3826
vtan -0.9239 0.0 0.3827
vtan -0.9239 0.0 0.3827
vtan -0.9239 -0.0 -0.3827
vtan -0.3827 0.0 -0.9239
vtan -0.3827 -0.0 -0.9239
vtan -0.3826 0.0 0.9239
vtan -0.0 0.0 1.0
vtan -0.0 -0.0 1.0
vtan -0.3826 -0.0 0.9239
vtan 0.9007 -0.0104 0.4342
vtan 0.9008 0.0104 -0.4342
vtan 0.5201 -0.3628 0.7732
vtan 0.6047 -0.2886 0.7423
vtan 0.4342 0.0104 0.9008
vtan 0.4342 -0.0104 -0.9007
vtan 0.9238 -0.0 -0.3828
vtan 0.9239 0.0 0.3827
vtan 0.5978 0.1878 -0.7793
vtan 0.1283 -0.1878 -0.9738
vtan 0.0 0.0 -1.0
vtan 0.0 0.0 -1.0
vtan 0.2232 -0.1961 -0.9548
vtan 0.3827 0.0 0.9239
vtan 0.0 -0.0 -1.0
vtan 0.3433 -0.1004 -0.9339
vtan 0.2897 0.1183 -0.9498
vtan 0.0 0.0 -1.0
vtan 0.4318 -0.0304 -0.9015
vtan 0.4354 0.0014 -0.9002
vtan 0.0482 0.109 -0.9929
vtan 0.285 -0.155 -0.9459
vtan -0.0 -0.0 -1.0
vtan 0.2921 0.041 -0.9555
vtan 0.0222 0.1035 -0.9944
vtan -0.0013 0.0005 -1.0
vtan 0.0001 -0.0007 -1.0
vtan 0.2232 0.1961 -0.9548
vtan -0.0008 0.0008 -1.0
vtan 0.0001 -0.0006 -1.0
vtan 0.4206 0.0747 -0.9042
vtan -0.0 0.0 1.0
vtan 0.5152 0.3659 0.775
vtan 0.6216 -0.2671 0.7364
vtan 0.0 0.0 1.0
vtan 0.3777 -0.4122 0.8291
vtan 0.7041 -0.0527 0.7081
vtan 0.704 -0.0539 0.7081
vtan 0.4286 -0.4035 0.8084
vtan 0.7071 -0.0 0.7071
vtan 0.103 0.2954 0.9498
vtan -0.0 0.0 1.0
vtan 0.4778 -0.3858 0.7893
vtan 0.6367 -0.2452 0.7311
vtan -0.0015 0.0006 1.0
vtan 0.0112 0.1093 0.9939
vtan 0.6732 0.1755 0.7183
vtan 0.0001 -0.0008 1.0
vtan -0.0 -0.0 1.0
vtan 0.4082 -0.4083 0.8165
vtan 0.4082 0.4083 0.8165
vtan -0.0009 0.0009 1.0
vtan 0.0001 -0.0007 1.0
vtan 0.6864 0.1375 0.7141
vtan 0.6864 0.1375 0.7141
vtan 0.3198 0.4129 0.8528
vtan -0.4082 -0.4083 -0.8165
vtan -0.7071 0.0 -0.7071
vtan 0.4082 0.4083 0.8165
vtan 0.0 -0.0 -1.0
vtan -0.103 -0.2954 -0.9498
vtan 0.0 -0.0 -1.0
vtan 0.0 0.0 -1.0
vtan -0.7071 0.0 -0.7071
vtan -0.0953 0.286 -0.9535
vtan -0.0 0.0 1.0
vtan 0.0953 -0.286 0.9535
f 0/0/0/0 1/1/1/1 2/2/2/2 
f 0/0/0/0 2/2/2/2 3/3/3/3 
f 2/2/2/2 4/4/4/4 5/5/5/5 
f 2/2/2/2 5/5/5/5 3/3/3/3 
f 6/6/6/6 0/0/0/0 3/3/3/3 
f 7/7/7/7 8/8/8/8 9/9/9/8 
f 7/7/7/7 9/9/9/8 10/10/10/9 
f 11/11/11/10 12/12/12/11 13/13/13/12 
f 11/11/11/10 13/13/13/12 14/14/14/13 
f 15/15/15/14 16/16/16/15 17/17/17/16 
f 15/15/15/14 17/17/17/16 18/18/18/17 
f 19/19/19/18 20/20/20/19 21/21/21/20 
f 19/19/19/18 21/21/21/20 22/22/22/21 
f 23/23/23/22 24/24/24/23 25/25/25/24 
f 23/23/23/22 25/25/25/24 26/26/26/25 
f 27/27/27/26 28/28/28/27 29/29/29/28 
f 27/27/27/26 29/29/29/28 30/30/30/29 
f 31/31/31/30 32/32/32/31 33/33/33/32 
f 31/31/31/30 33/33/33/32 34/34/34/33 
f 11/11/11/10 35/35/35/34 36/36/36/35 
f 11/11/11/10 36/36/36/35 12/12/12/11 
f 33/37/33/36 16/16/16/15 15/15/15/14 
f 33/37/33/36 15/15/15/14 34/38/34/37 
f 35/39/35/38 19/19/19/18 22/22/22/21 
f 35/39/35/38 22/22/22/21 36/40/36/39 
f 37/41/37/40 38/42/38/41 39/43/39/42 
f 37/41/37/40 39/43/39/42 40/44/40/43 
f 27/27/27/26 41/45/41/44 42/46/42/45 
f 27/27/27/26 42/46/42/45 28/28/28/27 
f 39/43/39/42 2/47/2/46 1/48/1/1 
f 39/43/39/42 1/48/1/1 40/44/40/43 
f 41/45/41/44 0/49/0/47 6/50/6/48 
f 41/45/41/44 6/50/6/48 42/46/42/45 
f 43/51/43/49 44/52/44/50 45/53/45/51 
f 43/51/43/49 45/53/45/51 46/54/46/52 
f 47/55/47/53 30/30/30/29 29/29/29/28 
f 47/55/47/53 29/29/29/28 48/56/48/54 
f 18/18/18/17 17/17/17/16 44/52/44/50 
f 18/18/18/17 44/52/44/50 43/51/43/49 
f 20/20/20/19 47/55/47/53 48/56/48/54 
f 20/20/20/19 48/56/48/54 21/21/21/20 
f 49/57/49/55 48/56/48/54 29/29/29/28 
f 49/57/49/55 29/29/29/28 26/58/26/56 
f 31/31/31/30 11/11/11/10 14/14/14/13 
f 31/31/31/30 14/14/14/13 50/59/50/57 
f 10/10/10/9 13/13/13/12 12/12/12/11 
f 10/10/10/9 12/12/12/11 7/7/7/7 
f 18/60/18/58 20/20/20/19 19/19/19/18 
f 18/60/18/58 19/19/19/18 15/61/15/59 
f 28/28/28/27 23/62/23/60 26/58/26/56 
f 28/28/28/27 26/58/26/56 29/29/29/28 
f 37/63/37/61 27/27/27/26 30/30/30/29 
f 37/63/37/61 30/30/30/29 46/64/46/62 
f 51/65/51/63 36/40/36/39 22/22/22/21 
f 51/65/51/63 22/22/22/21 52/66/52/64 
f 35/39/35/38 34/67/34/65 15/61/15/59 
f 35/39/35/38 15/61/15/59 19/19/19/18 
f 7/7/7/7 12/12/12/11 36/36/36/35 
f 7/7/7/7 36/36/36/35 51/68/51/66 
f 11/11/11/10 31/31/31/30 34/34/34/33 
f 11/11/11/10 34/34/34/33 35/35/35/34 
f 42/46/42/45 53/69/53/67 23/62/23/60 
f 42/46/42/45 23/62/23/60 28/28/28/27 
f 40/70/40/68 41/45/41/44 27/27/27/26 
f 40/70/40/68 27/27/27/26 37/63/37/61 
f 6/50/6/48 3/71/3/69 53/69/53/67 
f 6/50/6/48 53/69/53/67 42/46/42/45 
f 1/72/1/70 0/49/0/47 41/45/41/44 
f 1/72/1/70 41/45/41/44 40/70/40/68 
f 52/66/52/64 22/22/22/21 21/21/21/20 
f 52/66/52/64 21/21/21/20 54/73/54/71 
f 46/64/46/62 30/30/30/29 47/55/47/53 
f 46/64/46/62 47/55/47/53 43/74/43/72 
f 48/56/48/54 49/57/49/55 54/73/54/71 
f 48/56/48/54 54/73/54/71 21/21/21/20 
f 43/74/43/72 47/55/47/53 20/20/20/19 
f 43/74/43/72 20/20/20/19 18/60/18/58 
f 55/75/55/73 56/76/56/74 57/77/57/75 
f 55/75/55/73 57/77/57/75 58/78/58/76 
f 56/76/56/74 59/79/59/77 60/80/60/78 
f 56/76/56/74 60/80/60/78 57/77/57/75 
f 60/80/60/78 59/79/59/77 61/81/61/79 
f 60/80/60/78 61/81/61/79 62/82/62/80 
f 63/83/63/81 55/75/55/73 58/78/58/76 
f 63/83/63/81 58/78/58/76 64/84/64/82 
f 65/85/65/83 66/86/66/84 67/87/67/85 
f 65/85/65/83 67/87/67/85 68/88/68/86 
f 66/86/66/84 69/89/69/87 70/90/70/88 
f 66/86/66/84 70/90/70/88 67/87/67/85 
f 69/89/69/87 71/91/71/89 72/92/72/90 
f 69/89/69/87 72/92/72/90 70/90/70/88 
f 73/93/73/91 65/85/65/83 68/88/68/86 
f 73/93/73/91 68/88/68/86 74/94/74/92 
f 57/77/57/75 75/95/75/93 76/96/76/94 
f 57/77/57/75 76/96/76/94 58/78/58/76 
f 60/80/60/78 62/82/62/80 77/97/77/95 
f 60/80/60/78 77/97/77/95 78/98/78/96 
f 58/78/58/76 76/96/76/94 79/99/79/97 
f 58/78/58/76 79/99/79/97 64/84/64/82 
f 60/80/60/78 78/98/78/96 75/95/75/93 
f 60/80/60/78 75/95/75/93 57/77/57/75 
f 80/100/80/98 81/101/81/99 82/102/82/100 
f 80/100/80/98 82/102/82/100 83/103/83/101 
f 83/103/83/101 82/102/82/100 84/104/84/102 
f 83/103/83/101 84/104/84/102 85/105/85/103 
f 86/106/86/104 87/107/87/104 88/108/88/105 
f 86/106/86/104 88/108/88/105 89/109/89/106 
f 89/109/89/106 88/108/88/105 81/101/81/99 
f 89/109/89/106 81/101/81/99 80/100/80/98 
f 75/110/75/107 14/14/14/13 13/13/13/12 
f 75/110/75/107 13/13/13/12 76/111/76/108 
f 77/112/77/109 90/113/90/110 50/59/50/57 
f 77/112/77/109 50/59/50/57 78/114/78/111 
f 76/111/76/108 13/13/13/12 10/10/10/9 
f 76/111/76/108 10/10/10/9 79/115/79/112 
f 78/114/78/111 50/59/50/57 14/14/14/13 
f 78/114/78/111 14/14/14/13 75/110/75/107 
f 68/88/68/86 67/87/67/85 56/76/56/74 
f 68/88/68/86 56/76/56/74 55/75/55/73 
f 67/87/67/85 70/90/70/88 59/79/59/77 
f 67/87/67/85 59/79/59/77 56/76/56/74 
f 59/79/59/77 70/90/70/88 72/92/72/90 
f 59/79/59/77 72/92/72/90 61/81/61/79 
f 74/94/74/92 68/88/68/86 55/75/55/73 
f 74/94/74/92 55/75/55/73 63/83/63/81 
f 66/86/66/84 65/85/65/83 80/116/80/113 
f 66/86/66/84 80/116/80/113 83/117/83/114 
f 65/85/65/83 73/93/73/91 89/118/89/115 
f 65/85/65/83 89/118/89/115 80/116/80/113 
f 89/119/89/116 73/120/73/117 91/121/91/8 
f 89/119/89/116 91/121/91/8 86/122/86/8 
f 69/89/69/87 66/86/66/84 83/117/83/114 
f 69/89/69/87 83/117/83/114 85/123/85/118 
f 92/124/92/119 93/125/93/8 52/126/52/120 
f 92/124/92/119 52/126/52/120 54/127/54/121 
f 94/128/94/122 8/8/8/8 7/7/7/7 
f 94/128/94/122 7/7/7/7 51/68/51/66 
f 94/129/94/8 51/130/51/123 52/126/52/120 
f 94/129/94/8 52/126/52/120 93/125/93/8 
f 95/131/95/124 24/24/24/23 23/23/23/22 
f 95/131/95/124 23/23/23/22 53/132/53/125 
f 95/131/95/124 53/132/53/125 3/133/3/126 
f 95/131/95/124 3/133/3/126 5/134/5/8 
f 25/25/25/24 96/135/96/127 49/136/49/128 
f 25/25/25/24 49/136/49/128 26/26/26/25 
f 96/135/96/127 92/124/92/119 54/127/54/121 
f 96/135/96/127 54/127/54/121 49/136/49/128 
f 97/137/97/129 63/138/63/130 64/139/64/131 
f 97/137/97/129 64/139/64/131 98/140/98/132 
f 91/121/91/8 73/120/73/117 74/141/74/133 
f 91/121/91/8 74/141/74/133 99/142/99/134 
f 100/143/100/135 98/140/98/132 64/139/64/131 
f 100/143/100/135 64/139/64/131 79/144/79/136 
f 100/145/100/8 79/115/79/112 10/10/10/9 
f 100/145/100/8 10/10/10/9 9/9/9/8 
f 99/142/99/134 74/141/74/133 63/138/63/130 
f 99/142/99/134 63/138/63/130 97/137/97/129 
f 92/124/92/137 101/146/101/138 102/147/102/139 
f 92/124/92/137 102/147/102/139 93/125/93/104 
f 94/128/94/140 103/148/103/141 104/149/104/142 
f 94/128/94/140 104/149/104/142 8/8/8/104 
f 102/147/102/139 103/150/103/143 94/129/94/104 
f 102/147/102/139 94/129/94/104 93/125/93/104 
f 95/131/95/144 105/151/105/145 106/152/106/146 
f 95/131/95/144 106/152/106/146 24/24/24/147 
f 107/153/107/148 105/151/105/145 95/131/95/144 
f 107/153/107/148 95/131/95/144 5/134/5/104 
f 25/25/25/149 108/154/108/150 109/155/109/151 
f 25/25/25/149 109/155/109/151 96/135/96/152 
f 96/135/96/152 109/155/109/151 101/146/101/138 
f 96/135/96/152 101/146/101/138 92/124/92/137 
f 110/156/110/153 111/157/111/154 97/137/97/155 
f 110/156/110/153 97/137/97/155 98/140/98/156 
f 112/158/112/157 113/159/113/158 91/121/91/104 
f 112/158/112/157 91/121/91/104 99/142/99/159 
f 100/143/100/160 114/160/114/161 110/156/110/153 
f 100/143/100/160 110/156/110/153 98/140/98/156 
f 115/161/115/162 114/162/114/161 100/145/100/104 
f 115/161/115/162 100/145/100/104 9/9/9/104 
f 111/157/111/154 112/158/112/157 99/142/99/159 
f 111/157/111/154 99/142/99/159 97/137/97/155 
f 32/32/32/31 31/31/31/30 50/59/50/57 
f 32/32/32/31 50/59/50/57 90/113/90/110 
f 38/42/38/41 37/41/37/40 46/54/46/52 
f 38/42/38/41 46/54/46/52 45/53/45/51 
f 116/163/116/163 85/105/85/103 84/104/84/102 
f 116/163/116/163 84/104/84/102 117/164/117/164 
f 71/91/71/89 69/89/69/87 85/123/85/118 
f 71/91/71/89 85/123/85/118 116/165/116/165 
f 4/4/4/8 107/166/107/166 5/5/5/8 
f 115/161/115/162 9/9/9/104 8/8/8/104 
f 115/161/115/162 8/8/8/104 104/149/104/142 
f 108/154/108/150 25/25/25/149 24/24/24/147 
f 108/154/108/150 24/24/24/147 106/152/106/146 
f 118/167/118/167 87/107/87/8 86/106/86/8 
f 118/167/118/167 86/106/86/8 119/168/119/168 
f 119/169/119/169 86/122/86/104 91/121/91/104 
f 119/169/119/169 91/121/91/104 113/159/113/158 
f 120/3/120/170 121/5/121/171 4/4/4/172 
f 120/3/120/170 4/4/4/172 122/0/122/173 
f 4/4/4/172 2/2/2/174 123/1/123/175 
f 4/4/4/172 123/1/123/175 122/0/122/173 
f 124/6/124/176 120/3/120/170 122/0/122/173 
f 125/9/125/177 126/8/126/177 127/7/127/178 
f 125/9/125/177 127/7/127/178 128/10/128/179 
f 129/13/129/180 130/12/130/181 131/11/131/182 
f 129/13/129/180 131/11/131/182 132/14/132/183 
f 133/15/133/184 134/18/134/185 17/17/17/186 
f 133/15/133/184 17/17/17/186 16/16/16/187 
f 135/21/135/188 136/20/136/189 137/19/137/190 
f 135/21/135/188 137/19/137/190 138/22/138/191 
f 139/25/139/177 140/24/140/177 141/23/141/192 
f 139/25/139/177 141/23/141/192 142/26/142/193 
f 143/29/143/194 144/28/144/195 145/27/145/196 
f 143/29/143/194 145/27/145/196 146/30/146/197 
f 147/31/147/198 148/34/148/199 33/33/33/200 
f 147/31/147/198 33/33/33/200 32/32/32/201 
f 149/36/149/202 150/35/150/203 131/11/131/182 
f 149/36/149/202 131/11/131/182 130/12/130/181 
f 133/15/133/184 16/16/16/187 33/37/33/200 
f 133/15/133/184 33/37/33/200 148/38/148/204 
f 138/22/138/191 137/19/137/190 150/39/150/205 
f 138/22/138/191 150/39/150/205 149/40/149/206 
f 151/41/151/207 152/44/152/208 39/43/39/209 
f 151/41/151/207 39/43/39/209 38/42/38/210 
f 153/46/153/211 154/45/154/212 145/27/145/196 
f 153/46/153/211 145/27/145/196 144/28/144/195 
f 123/48/123/213 2/47/2/214 39/43/39/209 
f 123/48/123/213 39/43/39/209 152/44/152/208 
f 124/50/124/215 122/49/122/216 154/45/154/212 
f 124/50/124/215 154/45/154/212 153/46/153/211 
f 155/51/155/217 156/54/156/218 45/53/45/219 
f 155/51/155/217 45/53/45/219 44/52/44/220 
f 143/29/143/194 146/30/146/197 157/55/157/221 
f 143/29/143/194 157/55/157/221 158/56/158/222 
f 134/18/134/185 155/51/155/217 44/52/44/220 
f 134/18/134/185 44/52/44/220 17/17/17/186 
f 158/56/158/222 157/55/157/221 136/20/136/189 
f 158/56/158/222 136/20/136/189 135/21/135/188 
f 143/29/143/194 158/56/158/222 159/57/159/223 
f 143/29/143/194 159/57/159/223 142/58/142/224 
f 132/14/132/183 131/11/131/182 147/31/147/198 
f 132/14/132/183 147/31/147/198 160/59/160/225 
f 130/12/130/181 129/13/129/180 128/10/128/179 
f 130/12/130/181 128/10/128/179 127/7/127/178 
f 137/19/137/190 136/20/136/189 134/60/134/226 
f 137/19/137/190 134/60/134/226 133/61/133/227 
f 142/58/142/224 141/62/141/228 144/28/144/195 
f 142/58/142/224 144/28/144/195 143/29/143/194 
f 146/30/146/197 145/27/145/196 151/63/151/229 
f 146/30/146/197 151/63/151/229 156/64/156/230 
f 138/22/138/191 149/40/149/206 161/65/161/231 
f 138/22/138/191 161/65/161/231 162/66/162/232 
f 133/61/133/227 148/67/148/233 150/39/150/205 
f 133/61/133/227 150/39/150/205 137/19/137/190 
f 149/36/149/202 130/12/130/181 127/7/127/178 
f 149/36/149/202 127/7/127/178 161/68/161/234 
f 148/34/148/199 147/31/147/198 131/11/131/182 
f 148/34/148/199 131/11/131/182 150/35/150/203 
f 141/62/141/228 163/69/163/235 153/46/153/211 
f 141/62/141/228 153/46/153/211 144/28/144/195 
f 145/27/145/196 154/45/154/212 152/70/152/236 
f 145/27/145/196 152/70/152/236 151/63/151/229 
f 163/69/163/235 120/71/120/237 124/50/124/215 
f 163/69/163/235 124/50/124/215 153/46/153/211 
f 154/45/154/212 122/49/122/216 123/72/123/238 
f 154/45/154/212 123/72/123/238 152/70/152/236 
f 135/21/135/188 138/22/138/191 162/66/162/232 
f 135/21/135/188 162/66/162/232 164/73/164/239 
f 157/55/157/221 146/30/146/197 156/64/156/230 
f 157/55/157/221 156/64/156/230 155/74/155/240 
f 164/73/164/239 159/57/159/223 158/56/158/222 
f 164/73/164/239 158/56/158/222 135/21/135/188 
f 136/20/136/189 157/55/157/221 155/74/155/240 
f 136/20/136/189 155/74/155/240 134/60/134/226 
f 165/77/165/241 166/76/166/242 167/75/167/243 
f 165/77/165/241 167/75/167/243 168/78/168/244 
f 169/80/169/245 170/79/170/246 166/76/166/242 
f 169/80/169/245 166/76/166/242 165/77/165/241 
f 169/80/169/245 62/82/62/247 61/81/61/248 
f 169/80/169/245 61/81/61/248 170/79/170/246 
f 168/78/168/244 167/75/167/243 171/83/171/249 
f 168/78/168/244 171/83/171/249 172/84/172/250 
f 173/87/173/251 174/86/174/252 175/85/175/253 
f 173/87/173/251 175/85/175/253 176/88/176/254 
f 177/90/177/255 178/89/178/256 174/86/174/252 
f 177/90/177/255 174/86/174/252 173/87/173/251 
f 72/92/72/257 71/91/71/258 178/89/178/256 
f 72/92/72/257 178/89/178/256 177/90/177/255 
f 176/88/176/254 175/85/175/253 179/93/179/259 
f 176/88/176/254 179/93/179/259 180/94/180/260 
f 181/96/181/261 182/95/182/262 165/77/165/241 
f 181/96/181/261 165/77/165/241 168/78/168/244 
f 169/80/169/245 183/98/183/263 77/97/77/264 
f 169/80/169/245 77/97/77/264 62/82/62/247 
f 184/99/184/265 181/96/181/261 168/78/168/244 
f 184/99/184/265 168/78/168/244 172/84/172/250 
f 182/95/182/262 183/98/183/263 169/80/169/245 
f 182/95/182/262 169/80/169/245 165/77/165/241 
f 185/102/185/266 186/101/186/267 187/100/187/268 
f 185/102/185/266 187/100/187/268 188/103/188/269 
f 189/104/189/270 185/102/185/266 188/103/188/269 
f 189/104/189/270 188/103/188/269 190/105/190/271 
f 191/108/191/272 192/107/192/273 193/106/193/274 
f 191/108/191/272 193/106/193/274 194/109/194/275 
f 186/101/186/267 191/108/191/272 194/109/194/275 
f 186/101/186/267 194/109/194/275 187/100/187/268 
f 129/13/129/180 132/14/132/183 182/110/182/276 
f 129/13/129/180 182/110/182/276 181/111/181/277 
f 160/59/160/225 90/113/90/278 77/112/77/279 
f 160/59/160/225 77/112/77/279 183/114/183/280 
f 128/10/128/179 129/13/129/180 181/111/181/277 
f 128/10/128/179 181/111/181/277 184/115/184/281 
f 132/14/132/183 160/59/160/225 183/114/183/280 
f 132/14/132/183 183/114/183/280 182/110/182/276 
f 166/76/166/242 173/87/173/251 176/88/176/254 
f 166/76/166/242 176/88/176/254 167/75/167/243 
f 170/79/170/246 177/90/177/255 173/87/173/251 
f 170/79/170/246 173/87/173/251 166/76/166/242 
f 170/79/170/246 61/81/61/248 72/92/72/257 
f 170/79/170/246 72/92/72/257 177/90/177/255 
f 167/75/167/243 176/88/176/254 180/94/180/260 
f 167/75/167/243 180/94/180/260 171/83/171/249 
f 187/116/187/282 175/85/175/253 174/86/174/252 
f 187/116/187/282 174/86/174/252 188/117/188/283 
f 194/118/194/284 179/93/179/259 175/85/175/253 
f 194/118/194/284 175/85/175/253 187/116/187/282 
f 194/119/194/285 193/122/193/286 195/121/195/287 
f 194/119/194/285 195/121/195/287 179/120/179/288 
f 188/117/188/283 174/86/174/252 178/89/178/256 
f 188/117/188/283 178/89/178/256 190/123/190/289 
f 196/124/196/290 164/127/164/291 162/126/162/292 
f 196/124/196/290 162/126/162/292 197/125/197/177 
f 198/128/198/293 161/68/161/234 127/7/127/178 
f 198/128/198/293 127/7/127/178 126/8/126/177 
f 162/126/162/292 161/130/161/294 198/129/198/177 
f 162/126/162/292 198/129/198/177 197/125/197/177 
f 199/131/199/177 163/132/163/295 141/23/141/192 
f 199/131/199/177 141/23/141/192 140/24/140/177 
f 120/133/120/296 163/132/163/295 199/131/199/177 
f 120/133/120/296 199/131/199/177 121/134/121/177 
f 139/25/139/177 142/26/142/193 159/136/159/297 
f 139/25/139/177 159/136/159/297 200/135/200/298 
f 200/135/200/298 159/136/159/297 164/127/164/291 
f 200/135/200/298 164/127/164/291 196/124/196/290 
f 172/139/172/299 171/138/171/300 201/137/201/301 
f 172/139/172/299 201/137/201/301 202/140/202/302 
f 180/141/180/303 179/120/179/288 195/121/195/287 
f 180/141/180/303 195/121/195/287 203/142/203/304 
f 204/143/204/305 184/144/184/306 172/139/172/299 
f 204/143/204/305 172/139/172/299 202/140/202/302 
f 128/10/128/179 184/115/184/281 204/145/204/177 
f 128/10/128/179 204/145/204/177 125/9/125/177 
f 171/138/171/300 180/141/180/303 203/142/203/304 
f 171/138/171/300 203/142/203/304 201/137/201/301 
f 196/124/196/307 197/125/197/171 102/147/102/308 
f 196/124/196/307 102/147/102/308 101/146/101/309 
f 198/128/198/310 126/8/126/171 104/149/104/311 
f 198/128/198/310 104/149/104/311 103/148/103/312 
f 198/129/198/171 103/150/103/313 102/147/102/308 
f 198/129/198/171 102/147/102/308 197/125/197/171 
f 199/131/199/171 140/24/140/171 106/152/106/314 
f 199/131/199/171 106/152/106/314 105/151/105/315 
f 199/131/199/171 105/151/105/315 107/153/107/316 
f 199/131/199/171 107/153/107/316 121/134/121/171 
f 139/25/139/171 200/135/200/317 109/155/109/318 
f 139/25/139/171 109/155/109/318 108/154/108/319 
f 200/135/200/317 196/124/196/307 101/146/101/309 
f 200/135/200/317 101/146/101/309 109/155/109/318 
f 201/137/201/320 111/157/111/321 110/156/110/322 
f 201/137/201/320 110/156/110/322 202/140/202/323 
f 195/121/195/324 113/159/113/325 112/158/112/326 
f 195/121/195/324 112/158/112/326 203/142/203/327 
f 204/143/204/328 202/140/202/323 110/156/110/322 
f 204/143/204/328 110/156/110/322 114/160/114/329 
f 204/145/204/171 114/162/114/330 115/161/115/331 
f 204/145/204/171 115/161/115/331 125/9/125/171 
f 203/142/203/327 112/158/112/326 111/157/111/321 
f 203/142/203/327 111/157/111/321 201/137/201/320 
f 160/59/160/225 147/31/147/198 32/32/32/201 
f 160/59/160/225 32/32/32/201 90/113/90/278 
f 156/54/156/218 151/41/151/207 38/42/38/210 
f 156/54/156/218 38/42/38/210 45/53/45/219 
f 189/104/189/270 190/105/190/271 116/163/116/332 
f 189/104/189/270 116/163/116/332 117/164/117/333 
f 190/123/190/289 178/89/178/256 71/91/71/258 
f 190/123/190/289 71/91/71/258 116/165/116/334 
f 4/4/4/335 121/5/121/177 107/166/107/336 
f 126/8/126/171 125/9/125/171 115/161/115/331 
f 126/8/126/171 115/161/115/331 104/149/104/311 
f 140/24/140/171 139/25/139/171 108/154/108/319 
f 140/24/140/171 108/154/108/319 106/152/106/314 
f 193/106/193/337 192/107/192/338 118/167/118/339 
f 193/106/193/337 118/167/118/339 119/168/119/340 
f 195/121/195/324 193/122/193/341 119/169/119/342 
f 195/121/195/324 119/169/119/342 113/159/113/325 
