v 706.4912 687.1913 -309.1838
v 706.9537 687.1913 -308.7212
v 707.1285 687.1913 -308.2992
v 649.0887 687.1913 -309.3586
v 706.9537 687.1913 -251.0022
v 707.1285 687.1913 -306.9269
v 707.1285 687.1913 -252.5759
v 707.1285 687.1913 -251.4242
v 706.0691 687.1913 -250.3648
v 706.4912 687.1913 -250.5396
v 648.6667 687.1913 -250.5396
v 705.0963 687.1913 -250.3648
v 650.4067 687.1913 -250.3648
v 649.0887 687.1913 -250.3648
v 648.0293 687.1913 -251.4242
v 648.2042 687.1913 -251.0022
v 648.2042 687.1913 -308.7212
v 648.0293 687.1913 -252.5959
v 648.0293 687.1913 -307.5427
v 648.0293 687.1913 -308.2992
v 648.6667 687.1913 -309.1838
v 649.5386 687.1913 -309.3586
v 704.788 687.1913 -309.3586
v 706.0691 687.1913 -309.3586
v 706.9537 695.6663 -308.7212
v 706.4912 695.6663 -309.1838
v 706.0691 695.6663 -309.3586
v 707.1285 695.6663 -251.4242
v 648.6667 695.6663 -309.1838
v 704.788 695.6663 -309.3586
v 649.5386 695.6663 -309.3586
v 649.0887 695.6663 -309.3586
v 648.0293 695.6663 -308.2992
v 648.2042 695.6663 -308.7212
v 648.2042 695.6663 -251.0022
v 648.0293 695.6663 -307.5427
v 648.0293 695.6663 -252.5959
v 648.0293 695.6663 -251.4242
v 649.0887 695.6663 -250.3648
v 648.6667 695.6663 -250.5396
v 706.4912 695.6663 -250.5396
v 650.4067 695.6663 -250.3648
v 705.0963 695.6663 -250.3648
v 706.0691 695.6663 -250.3648
v 706.9537 695.6663 -251.0022
v 707.1285 695.6663 -252.5759
v 707.1285 695.6663 -306.9269
v 707.1285 695.6663 -308.2992
v 704.8539 691.4311 -309.7054
v 706.1381 693.3951 -309.7054
v 706.1381 687.5381 -309.7054
v 704.8539 689.467 -309.7054
v 647.6825 691.4311 -307.6098
v 647.6825 693.3951 -308.3681
v 647.6825 687.5381 -308.3681
v 647.6825 689.467 -307.6098
v 647.9102 695.3195 -308.9177
v 648.4702 695.3195 -309.4777
v 648.4702 687.5381 -309.4777
v 647.9102 687.5381 -308.9177
v 707.2477 695.3195 -308.9177
v 707.2477 687.5381 -308.9177
v 706.6876 687.5381 -309.4777
v 706.6876 695.3195 -309.4777
v 648.4702 695.3195 -250.2456
v 647.9102 695.3195 -250.8057
v 647.9102 687.5381 -250.8057
v 648.4702 687.5381 -250.2456
v 649.0198 695.3195 -309.7054
v 649.0198 693.3951 -309.7054
v 649.0198 687.5381 -309.7054
v 706.1381 695.3195 -309.7054
v 647.6825 693.3951 -251.3553
v 647.6825 687.5381 -251.3553
v 647.6825 695.3195 -308.3681
v 707.4753 693.3951 -308.3681
v 707.4753 687.5381 -308.3681
v 707.4753 695.3195 -308.3681
v 649.0198 693.3951 -250.018
v 649.0198 687.5381 -250.018
v 647.6825 687.5381 -252.5297
v 649.4707 687.5381 -309.7054
v 704.8539 695.3195 -309.7054
v 647.6825 695.3195 -307.6098
v 649.0198 695.3195 -250.018
v 647.6825 695.3195 -251.3553
v 650.3409 691.4311 -250.018
v 650.3409 689.467 -250.018
v 707.4753 691.4311 -252.5098
v 707.4753 693.3951 -251.3553
v 707.4753 687.5381 -251.3553
v 707.4753 689.467 -252.5098
v 707.2477 695.3195 -250.8057
v 706.6876 695.3195 -250.2456
v 706.6876 687.5381 -250.2456
v 707.2477 687.5381 -250.8057
v 706.1381 695.3195 -250.018
v 706.1381 693.3951 -250.018
v 706.1381 687.5381 -250.018
v 707.4753 695.3195 -251.3553
v 707.4753 687.5381 -306.9925
v 705.1629 687.5381 -250.018
v 650.3409 695.3195 -250.018
v 707.4753 695.3195 -252.5098
v 649.4707 693.3951 -309.7054
v 647.6825 695.3195 -252.5297
v 647.6825 693.3951 -252.5297
v 705.1629 693.3951 -250.018
v 707.4753 693.3951 -306.9925
v 704.8539 687.5381 -309.7054
v 704.3716 689.467 -309.7054
v 649.4707 695.3195 -309.7054
v 704.8539 693.3951 -309.7054
v 650.1443 693.3951 -309.7054
v 650.1443 691.4311 -306.9932
v 649.4707 691.4311 -309.7054
v 649.4707 689.467 -309.7054
v 647.6825 689.467 -252.5297
v 647.6825 687.5381 -307.6098
v 647.6825 693.3951 -253.0534
v 649.6315 691.4311 -253.0534
v 647.6825 691.4311 -252.5297
v 647.6825 689.467 -306.8843
v 647.6825 693.3951 -307.6098
v 705.1629 689.467 -250.018
v 650.3409 687.5381 -250.018
v 705.1629 695.3195 -250.018
v 704.593 693.3951 -250.018
v 704.593 691.4311 -252.0009
v 705.1629 691.4311 -250.018
v 650.9698 689.467 -250.018
v 650.3409 693.3951 -250.018
v 707.4753 689.467 -306.9925
v 707.4753 687.5381 -252.5098
v 707.4753 695.3195 -306.9925
v 707.4753 693.3951 -306.3379
v 705.0237 691.4311 -306.3379
v 707.4753 691.4311 -306.9925
v 707.4753 689.467 -253.0138
v 707.4753 693.3951 -252.5098
v 704.3716 691.4311 -306.9932
v 649.6315 691.4311 -306.8843
v 650.9698 691.4311 -252.0009
v 705.0237 691.4311 -253.0138
v 707.4753 693.3951 -253.0138
v 707.4753 689.467 -306.3379
v 650.9698 693.3951 -250.018
v 704.593 689.467 -250.018
v 647.6825 693.3951 -306.8843
v 647.6825 689.467 -253.0534
v 704.3716 693.3951 -309.7054
v 650.1443 689.467 -309.7054
gi 0 0 0 0
gi 0 0 0 0
gi 0 0 0 0
gi 0 0 0 0
gi 0 0 0 0
gi 0 0 0 0
gi 0 0 0 0
gi 0 0 0 0
gi 0 0 0 0
gi 0 0 0 0
gi 0 0 0 0
gi 0 0 0 0
gi 0 0 0 0
gi 0 0 0 0
gi 0 0 0 0
gi 0 0 0 0
gi 0 0 0 0
gi 0 0 0 0
gi 0 0 0 0
gi 0 0 0 0
gi 0 0 0 0
gi 0 0 0 0
gi 0 0 0 0
gi 0 0 0 0
gi 0 0 0 0
gi 0 0 0 0
gi 0 0 0 0
gi 0 0 0 0
gi 0 0 0 0
gi 0 0 0 0
gi 0 0 0 0
gi 0 0 0 0
gi 0 0 0 0
gi 0 0 0 0
gi 0 0 0 0
gi 0 0 0 0
gi 0 0 0 0
gi 0 0 0 0
gi 0 0 0 0
gi 0 0 0 0
gi 0 0 0 0
gi 0 0 0 0
gi 0 0 0 0
gi 0 0 0 0
gi 0 0 0 0
gi 0 0 0 0
gi 0 0 0 0
gi 0 0 0 0
gi 0 0 0 0
gi 0 0 0 0
gi 0 0 0 0
gi 0 0 0 0
gi 0 0 0 0
gi 0 0 0 0
gi 0 0 0 0
gi 0 0 0 0
gi 0 0 0 0
gi 0 0 0 0
gi 0 0 0 0
gi 0 0 0 0
gi 0 0 0 0
gi 0 0 0 0
gi 0 0 0 0
gi 0 0 0 0
gi 0 0 0 0
gi 0 0 0 0
gi 0 0 0 0
gi 0 0 0 0
gi 0 0 0 0
gi 0 0 0 0
gi 0 0 0 0
gi 0 0 0 0
gi 0 0 0 0
gi 0 0 0 0
gi 0 0 0 0
gi 0 0 0 0
gi 0 0 0 0
gi 0 0 0 0
gi 0 0 0 0
gi 0 0 0 0
gi 0 0 0 0
gi 0 0 0 0
gi 0 0 0 0
gi 0 0 0 0
gi 0 0 0 0
gi 0 0 0 0
gi 0 0 0 0
gi 0 0 0 0
gi 0 0 0 0
gi 0 0 0 0
gi 0 0 0 0
gi 0 0 0 0
gi 0 0 0 0
gi 0 0 0 0
gi 0 0 0 0
gi 0 0 0 0
gi 0 0 0 0
gi 0 0 0 0
gi 0 0 0 0
gi 0 0 0 0
gi 0 0 0 0
gi 0 0 0 0
gi 0 0 0 0
gi 0 0 0 0
gi 0 0 0 0
gi 0 0 0 0
gi 0 0 0 0
gi 0 0 0 0
gi 0 0 0 0
gi 0 0 0 0
gi 0 0 0 0
gi 0 0 0 0
gi 0 0 0 0
gi 0 0 0 0
gi 0 0 0 0
gi 0 0 0 0
gi 0 0 0 0
gi 0 0 0 0
gi 0 0 0 0
gi 0 0 0 0
gi 0 0 0 0
gi 0 0 0 0
gi 0 0 0 0
gi 0 0 0 0
gi 0 0 0 0
gi 0 0 0 0
gi 0 0 0 0
gi 0 0 0 0
gi 0 0 0 0
gi 0 0 0 0
gi 0 0 0 0
gi 0 0 0 0
gi 0 0 0 0
gi 0 0 0 0
gi 0 0 0 0
gi 0 0 0 0
gi 0 0 0 0
gi 0 0 0 0
gi 0 0 0 0
gi 0 0 0 0
gi 0 0 0 0
gi 0 0 0 0
gi 0 0 0 0
gi 0 0 0 0
gi 0 0 0 0
gi 0 0 0 0
gi 0 0 0 0
gi 0 0 0 0
gi 0 0 0 0
gi 0 0 0 0
gi 0 0 0 0
gi 0 0 0 0
gw 0.0 0.0 0.0 0.0
gw 0.0 0.0 0.0 0.0
gw 0.0 0.0 0.0 0.0
gw 0.0 0.0 0.0 0.0
gw 0.0 0.0 0.0 0.0
gw 0.0 0.0 0.0 0.0
gw 0.0 0.0 0.0 0.0
gw 0.0 0.0 0.0 0.0
gw 0.0 0.0 0.0 0.0
gw 0.0 0.0 0.0 0.0
gw 0.0 0.0 0.0 0.0
gw 0.0 0.0 0.0 0.0
gw 0.0 0.0 0.0 0.0
gw 0.0 0.0 0.0 0.0
gw 0.0 0.0 0.0 0.0
gw 0.0 0.0 0.0 0.0
gw 0.0 0.0 0.0 0.0
gw 0.0 0.0 0.0 0.0
gw 0.0 0.0 0.0 0.0
gw 0.0 0.0 0.0 0.0
gw 0.0 0.0 0.0 0.0
gw 0.0 0.0 0.0 0.0
gw 0.0 0.0 0.0 0.0
gw 0.0 0.0 0.0 0.0
gw 0.0 0.0 0.0 0.0
gw 0.0 0.0 0.0 0.0
gw 0.0 0.0 0.0 0.0
gw 0.0 0.0 0.0 0.0
gw 0.0 0.0 0.0 0.0
gw 0.0 0.0 0.0 0.0
gw 0.0 0.0 0.0 0.0
gw 0.0 0.0 0.0 0.0
gw 0.0 0.0 0.0 0.0
gw 0.0 0.0 0.0 0.0
gw 0.0 0.0 0.0 0.0
gw 0.0 0.0 0.0 0.0
gw 0.0 0.0 0.0 0.0
gw 0.0 0.0 0.0 0.0
gw 0.0 0.0 0.0 0.0
gw 0.0 0.0 0.0 0.0
gw 0.0 0.0 0.0 0.0
gw 0.0 0.0 0.0 0.0
gw 0.0 0.0 0.0 0.0
gw 0.0 0.0 0.0 0.0
gw 0.0 0.0 0.0 0.0
gw 0.0 0.0 0.0 0.0
gw 0.0 0.0 0.0 0.0
gw 0.0 0.0 0.0 0.0
gw 0.0 0.0 0.0 0.0
gw 0.0 0.0 0.0 0.0
gw 0.0 0.0 0.0 0.0
gw 0.0 0.0 0.0 0.0
gw 0.0 0.0 0.0 0.0
gw 0.0 0.0 0.0 0.0
gw 0.0 0.0 0.0 0.0
gw 0.0 0.0 0.0 0.0
gw 0.0 0.0 0.0 0.0
gw 0.0 0.0 0.0 0.0
gw 0.0 0.0 0.0 0.0
gw 0.0 0.0 0.0 0.0
gw 0.0 0.0 0.0 0.0
gw 0.0 0.0 0.0 0.0
gw 0.0 0.0 0.0 0.0
gw 0.0 0.0 0.0 0.0
gw 0.0 0.0 0.0 0.0
gw 0.0 0.0 0.0 0.0
gw 0.0 0.0 0.0 0.0
gw 0.0 0.0 0.0 0.0
gw 0.0 0.0 0.0 0.0
gw 0.0 0.0 0.0 0.0
gw 0.0 0.0 0.0 0.0
gw 0.0 0.0 0.0 0.0
gw 0.0 0.0 0.0 0.0
gw 0.0 0.0 0.0 0.0
gw 0.0 0.0 0.0 0.0
gw 0.0 0.0 0.0 0.0
gw 0.0 0.0 0.0 0.0
gw 0.0 0.0 0.0 0.0
gw 0.0 0.0 0.0 0.0
gw 0.0 0.0 0.0 0.0
gw 0.0 0.0 0.0 0.0
gw 0.0 0.0 0.0 0.0
gw 0.0 0.0 0.0 0.0
gw 0.0 0.0 0.0 0.0
gw 0.0 0.0 0.0 0.0
gw 0.0 0.0 0.0 0.0
gw 0.0 0.0 0.0 0.0
gw 0.0 0.0 0.0 0.0
gw 0.0 0.0 0.0 0.0
gw 0.0 0.0 0.0 0.0
gw 0.0 0.0 0.0 0.0
gw 0.0 0.0 0.0 0.0
gw 0.0 0.0 0.0 0.0
gw 0.0 0.0 0.0 0.0
gw 0.0 0.0 0.0 0.0
gw 0.0 0.0 0.0 0.0
gw 0.0 0.0 0.0 0.0
gw 0.0 0.0 0.0 0.0
gw 0.0 0.0 0.0 0.0
gw 0.0 0.0 0.0 0.0
gw 0.0 0.0 0.0 0.0
gw 0.0 0.0 0.0 0.0
gw 0.0 0.0 0.0 0.0
gw 0.0 0.0 0.0 0.0
gw 0.0 0.0 0.0 0.0
gw 0.0 0.0 0.0 0.0
gw 0.0 0.0 0.0 0.0
gw 0.0 0.0 0.0 0.0
gw 0.0 0.0 0.0 0.0
gw 0.0 0.0 0.0 0.0
gw 0.0 0.0 0.0 0.0
gw 0.0 0.0 0.0 0.0
gw 0.0 0.0 0.0 0.0
gw 0.0 0.0 0.0 0.0
gw 0.0 0.0 0.0 0.0
gw 0.0 0.0 0.0 0.0
gw 0.0 0.0 0.0 0.0
gw 0.0 0.0 0.0 0.0
gw 0.0 0.0 0.0 0.0
gw 0.0 0.0 0.0 0.0
gw 0.0 0.0 0.0 0.0
gw 0.0 0.0 0.0 0.0
gw 0.0 0.0 0.0 0.0
gw 0.0 0.0 0.0 0.0
gw 0.0 0.0 0.0 0.0
gw 0.0 0.0 0.0 0.0
gw 0.0 0.0 0.0 0.0
gw 0.0 0.0 0.0 0.0
gw 0.0 0.0 0.0 0.0
gw 0.0 0.0 0.0 0.0
gw 0.0 0.0 0.0 0.0
gw 0.0 0.0 0.0 0.0
gw 0.0 0.0 0.0 0.0
gw 0.0 0.0 0.0 0.0
gw 0.0 0.0 0.0 0.0
gw 0.0 0.0 0.0 0.0
gw 0.0 0.0 0.0 0.0
gw 0.0 0.0 0.0 0.0
gw 0.0 0.0 0.0 0.0
gw 0.0 0.0 0.0 0.0
gw 0.0 0.0 0.0 0.0
gw 0.0 0.0 0.0 0.0
gw 0.0 0.0 0.0 0.0
gw 0.0 0.0 0.0 0.0
gw 0.0 0.0 0.0 0.0
gw 0.0 0.0 0.0 0.0
gw 0.0 0.0 0.0 0.0
gw 0.0 0.0 0.0 0.0
gw 0.0 0.0 0.0 0.0
gw 0.0 0.0 0.0 0.0
gw 0.0 0.0 0.0 0.0
gw 0.0 0.0 0.0 0.0
vt 0.9853 0.6631
vt 0.9879 0.6656
vt 0.9888 0.6679
vt 0.6734 0.6622
vt 0.9879 0.9792
vt 0.9888 0.6754
vt 0.9888 0.9706
vt 0.9888 0.9769
vt 0.9831 0.9826
vt 0.9853 0.9817
vt 0.6713 0.9817
vt 0.9778 0.9826
vt 0.6807 0.9826
vt 0.6736 0.9826
vt 0.6678 0.9769
vt 0.6687 0.9792
vt 0.6687 0.6656
vt 0.6678 0.9705
vt 0.6678 0.672
vt 0.6678 0.6679
vt 0.6713 0.6631
vt 0.6758 0.6622
vt 0.9761 0.6621
vt 0.9831 0.6621
vt 0.5626 0.7873
vt 0.5616 0.7884
vt 0.5606 0.7888
vt 0.5631 0.6536
vt 0.4266 0.7884
vt 0.5577 0.7888
vt 0.4286 0.7888
vt 0.4276 0.7888
vt 0.4252 0.7863
vt 0.4256 0.7873
vt 0.4256 0.6526
vt 0.4252 0.7845
vt 0.4252 0.6563
vt 0.4252 0.6536
vt 0.4276 0.6511
vt 0.4266 0.6515
vt 0.5616 0.6515
vt 0.4307 0.6511
vt 0.5583 0.6511
vt 0.5606 0.6511
vt 0.5626 0.6526
vt 0.5631 0.6563
vt 0.5631 0.7831
vt 0.5631 0.7863
vt 0.0347 0.6166
vt 0.045 0.6233
vt 0.0143 0.6233
vt 0.0244 0.6166
vt 0.0347 0.3112
vt 0.045 0.3152
vt 0.0143 0.3152
vt 0.0244 0.3112
vt 0.0551 0.3181
vt 0.0551 0.321
vt 0.0143 0.321
vt 0.0143 0.3181
vt 0.0551 0.6291
vt 0.0143 0.6291
vt 0.0143 0.6262
vt 0.0551 0.6262
vt 0.0551 0.0105
vt 0.0551 0.0134
vt 0.0143 0.0134
vt 0.0143 0.0105
vt 0.0551 0.3239
vt 0.045 0.3239
vt 0.0143 0.3239
vt 0.0551 0.6233
vt 0.045 0.0163
vt 0.0143 0.0163
vt 0.0551 0.3152
vt 0.045 0.632
vt 0.0143 0.632
vt 0.0551 0.632
vt 0.045 0.0076
vt 0.0143 0.0076
vt 0.0124 0.0165
vt 0.0143 0.0224
vt 0.0124 0.0226
vt 0.0125 0.3241
vt 0.0143 0.3262
vt 0.0125 0.3264
vt 0.0569 0.6231
vt 0.0551 0.6166
vt 0.0569 0.6164
vt 0.057 0.3151
vt 0.0551 0.3112
vt 0.057 0.3112
vt 0.0125 0.6292
vt 0.0125 0.6262
vt 0.0126 0.321
vt 0.0126 0.318
vt 0.0122 0.0134
vt 0.0125 0.0104
vt 0.0569 0.6262
vt 0.0572 0.6292
vt 0.057 0.318
vt 0.0568 0.321
vt 0.0572 0.0104
vt 0.0572 0.0134
vt 0.0126 0.623
vt 0.0576 0.0079
vt 0.0551 0.0076
vt 0.0126 0.6317
vt 0.0125 0.3152
vt 0.0126 0.0079
vt 0.0571 0.6317
vt 0.0569 0.3241
vt 0.0572 0.0163
vt 0.0551 0.0163
vt 0.0347 0.6164
vt 0.0244 0.6164
vt 0.0347 0.3091
vt 0.0244 0.3091
vt 0.0143 0.0235
vt 0.0124 0.0237
vt 0.0143 0.329
vt 0.0125 0.3292
vt 0.0551 0.6164
vt 0.0569 0.6162
vt 0.0551 0.3091
vt 0.057 0.3091
vt 0.045 0.3262
vt 0.0551 0.0224
vt 0.045 0.0224
vt 0.045 0.329
vt 0.045 0.0235
vt 0.0143 0.6166
vt 0.0244 0.6141
vt 0.0126 0.6163
vt 0.0551 0.3262
vt 0.0569 0.3265
vt 0.045 0.6166
vt 0.045 0.3298
vt 0.0347 0.3298
vt 0.0347 0.3262
vt 0.0244 0.3262
vt 0.0244 0.0224
vt 0.0143 0.3112
vt 0.0125 0.3112
vt 0.0572 0.0225
vt 0.045 0.0252
vt 0.0347 0.0252
vt 0.0347 0.0224
vt 0.0244 0.3074
vt 0.045 0.3112
vt 0.0244 0.329
vt 0.0143 0.6164
vt 0.0126 0.6161
vt 0.0551 0.329
vt 0.0569 0.3292
vt 0.045 0.332
vt 0.0347 0.332
vt 0.0347 0.329
vt 0.0244 0.6131
vt 0.045 0.6164
vt 0.0244 0.0235
vt 0.0143 0.3091
vt 0.0125 0.3091
vt 0.0551 0.0235
vt 0.0572 0.0235
vt 0.045 0.0269
vt 0.0347 0.0269
vt 0.0347 0.0235
vt 0.0244 0.3065
vt 0.045 0.3091
vt 0.0347 0.6141
vt 0.0347 0.3074
vt 0.0347 0.6131
vt 0.0347 0.3065
vt 0.045 0.3065
vt 0.0244 0.0269
vt 0.045 0.6131
vt 0.0244 0.332
vt 0.045 0.3074
vt 0.0244 0.0252
vt 0.045 0.6141
vt 0.0244 0.3298
vn 0.2318 -0.9088 -0.3469
vn 0.3469 -0.9088 -0.2318
vn 0.4092 -0.9088 -0.0814
vn -0.0814 -0.9088 -0.4092
vn 0.3469 -0.9088 0.2318
vn 0.3827 -0.9239 0.0
vn 0.3827 -0.9239 0.0
vn 0.4092 -0.9088 0.0814
vn 0.0814 -0.9088 0.4092
vn 0.2318 -0.9087 0.3471
vn -0.2319 -0.9088 0.3469
vn 0.0 -0.9239 0.3827
vn 0.0 -0.9237 0.383
vn -0.0814 -0.9087 0.4094
vn -0.4092 -0.9088 0.0814
vn -0.3468 -0.9088 0.2319
vn -0.3469 -0.9088 -0.2318
vn -0.3827 -0.9239 0.0
vn -0.4092 -0.9088 -0.0815
vn -0.2318 -0.9088 -0.3469
vn -0.0 -0.9239 -0.3827
vn 0.0 -0.9239 -0.3827
vn 0.0814 -0.9088 -0.4092
vn 0.3469 0.9088 -0.2318
vn 0.2318 0.9088 -0.3468
vn 0.0814 0.9088 -0.4092
vn 0.4092 0.9088 0.0814
vn -0.2319 0.9088 -0.347
vn 0.0 0.9239 -0.3827
vn 0.0 0.9239 -0.3827
vn -0.0814 0.9086 -0.4096
vn -0.4092 0.9088 -0.0815
vn -0.3468 0.9088 -0.2318
vn -0.3469 0.9088 0.2319
vn -0.3827 0.9239 0.0
vn -0.3827 0.9239 0.0
vn -0.4092 0.9088 0.0815
vn -0.0814 0.9088 0.4092
vn -0.2318 0.9088 0.3469
vn 0.2318 0.9088 0.347
vn 0.0 0.9239 0.3827
vn 0.0 0.9239 0.3827
vn 0.0814 0.9088 0.4092
vn 0.3469 0.9087 0.232
vn 0.3827 0.9239 0.0
vn 0.3827 0.9239 0.0
vn 0.4092 0.9088 -0.0814
vn -0.5691 -0.0 -0.8223
vn 0.1952 0.0 -0.9808
vn 0.1812 -0.371 -0.9108
vn -0.2653 0.0651 -0.962
vn -0.8983 0.0 0.4393
vn -0.9808 0.0 -0.1951
vn -0.9108 -0.371 -0.1812
vn -0.9747 0.0774 0.2097
vn -0.7721 0.371 -0.516
vn -0.516 0.3709 -0.7721
vn -0.516 -0.371 -0.7721
vn -0.7721 -0.371 -0.5159
vn 0.7722 0.3709 -0.5159
vn 0.7722 -0.3709 -0.5159
vn 0.516 -0.3709 -0.7721
vn 0.516 0.3709 -0.7721
vn -0.516 0.371 0.7721
vn -0.7721 0.371 0.5159
vn -0.7721 -0.371 0.5159
vn -0.5159 -0.371 0.7721
vn -0.1812 0.3709 -0.9108
vn -0.1952 0.0 -0.9808
vn -0.1812 -0.371 -0.9108
vn 0.1812 0.371 -0.9108
vn -0.9808 0.0 0.1951
vn -0.9108 -0.3709 0.1812
vn -0.9108 0.3709 -0.1812
vn 0.9808 0.0 -0.195
vn 0.9108 -0.371 -0.1812
vn 0.9108 0.371 -0.1811
vn -0.1951 0.0 0.9808
vn -0.1811 -0.371 0.9108
vn -0.9239 -0.3827 0.0
vn 0.0 -0.3827 -0.9239
vn 0.0 0.3827 -0.9239
vn -0.9239 0.3827 0.0
vn -0.1812 0.371 0.9108
vn -0.9108 0.371 0.1812
vn 0.4733 0.0 0.8809
vn 0.2251 0.0721 0.9717
vn 0.8358 -0.0 -0.549
vn 0.9808 0.0 0.1951
vn 0.9108 -0.371 0.1812
vn 0.9641 0.066 -0.2573
vn 0.7722 0.371 0.5159
vn 0.5159 0.371 0.7721
vn 0.5159 -0.371 0.7721
vn 0.7722 -0.371 0.5159
vn 0.1812 0.371 0.9108
vn 0.1951 0.0 0.9808
vn 0.1812 -0.371 0.9108
vn 0.9108 0.3709 0.1812
vn 0.9239 -0.3827 0.0
vn 0.0 -0.3827 0.9239
vn 0.0 0.3827 0.9239
vn 0.9239 0.3827 0.0
vn 0.2415 -0.0828 -0.9669
vn -0.9239 0.3827 0.0
vn -0.9687 -0.0639 -0.2399
vn -0.2339 -0.0679 0.9699
vn 0.9682 -0.0791 0.2372
vn 0.0 -0.3827 -0.9239
vn -0.2845 0.321 -0.9033
vn 0.0 0.3827 -0.9239
vn -0.2653 -0.0651 -0.962
vn 0.2578 -0.3324 -0.9072
vn 0.4281 -0.0 -0.9037
vn 0.5149 -0.0 -0.8572
vn 0.2415 0.0828 -0.9669
vn -0.9687 0.064 -0.2399
vn -0.9239 -0.3827 0.0
vn -0.9286 -0.2732 -0.251
vn -0.9042 -0.0 -0.427
vn -0.8624 0.0 -0.5062
vn -0.9344 0.2813 0.2188
vn -0.9747 -0.0775 0.2097
vn -0.234 0.0679 0.9699
vn 0.0 -0.3827 0.9239
vn 0.0 0.3827 0.9239
vn -0.2449 -0.2781 0.9288
vn -0.417 -0.0 0.9089
vn -0.4931 0.0 0.87
vn 0.2354 0.2806 0.9305
vn 0.2251 -0.0721 0.9717
vn 0.9682 0.0791 0.2372
vn 0.9239 -0.3827 0.0
vn 0.9239 0.3827 0.0
vn 0.9149 -0.3158 0.2515
vn 0.9069 -0.0 0.4212
vn 0.864 -0.0 0.5036
vn 0.9113 0.3076 -0.2736
vn 0.9641 -0.066 -0.2573
vn -0.4648 0.0 -0.8854
vn -0.9258 -0.0 0.3779
vn 0.4026 -0.0 0.9154
vn 0.8916 -0.0 -0.4529
vn 0.9113 -0.3076 -0.2737
vn 0.9149 0.3158 0.2515
vn 0.2354 -0.2806 0.9305
vn -0.2449 0.2781 0.9288
vn -0.9343 -0.2813 0.2188
vn -0.9286 0.2732 -0.251
vn -0.2845 -0.321 -0.9033
vn 0.2578 0.3323 -0.9072
vtan 0.9728 0.2163 0.0835
vtan 0.9378 0.3325 0.0999
vtan 0.9124 0.4077 0.0358
vtan 0.9967 -0.0717 -0.0391
vtan 0.9378 0.3333 -0.0969
vtan 0.8696 0.3602 -0.3378
vtan 0.9223 0.3821 0.0577
vtan 0.9124 0.4067 -0.046
vtan 0.9967 0.0716 -0.0391
vtan 0.9723 0.2054 -0.1116
vtan 0.9727 -0.2163 0.0835
vtan 1.0 0.0 0.0
vtan 1.0 0.0 0.0
vtan 0.9967 -0.0742 0.0334
vtan 0.9124 -0.4077 0.036
vtan 0.9379 -0.3323 0.1001
vtan 0.9378 -0.3332 -0.0971
vtan 0.8786 -0.3639 -0.3092
vtan 0.9239 -0.3827 -0.002
vtan 0.9123 -0.4088 -0.0219
vtan 0.9723 -0.2054 -0.1116
vtan 1.0 -0.0 0.0
vtan 1.0 -0.0001 0.0003
vtan 0.9967 0.0742 0.0334
vtan 0.9379 -0.3383 0.0772
vtan 0.9725 -0.2077 0.1058
vtan 0.9967 -0.0742 0.0334
vtan 0.9124 -0.4077 -0.0351
vtan 0.9727 0.2167 -0.0825
vtan 1.0 -0.0 -0.0
vtan 0.9967 0.0742 -0.0335
vtan 0.9124 0.408 -0.0313
vtan 0.9379 0.3376 -0.0796
vtan 0.9379 0.3383 0.0771
vtan 0.613 0.2539 0.7482
vtan 0.9229 0.3823 0.0446
vtan 0.9099 0.4131 -0.0379
vtan 0.9967 0.0742 0.0334
vtan 0.9725 0.2077 0.1059
vtan 0.9728 -0.2166 -0.0825
vtan 1.0 0.0 -0.0
vtan 0.9967 -0.0742 -0.0334
vtan 0.9379 -0.3377 -0.0799
vtan 0.4787 -0.1983 0.8553
vtan 0.9233 -0.3824 -0.037
vtan 0.9116 -0.411 -0.0059
vtan 0.0 1.0 -0.0
vtan 0.0 1.0 0.0
vtan 0.0669 0.9286 -0.3649
vtan 0.0173 0.9979 0.0628
vtan 0.0 1.0 -0.0
vtan -0.3578 0.9282 -0.1018
vtan 0.0757 0.997 -0.0163
vtan 0.3402 0.9271 0.1574
vtan 0.233 0.9282 0.2902
vtan -0.1688 0.9277 -0.333
vtan -0.3029 0.9286 -0.2144
vtan -0.3028 0.9286 0.2144
vtan 0.3296 0.928 -0.1739
vtan 0.233 0.9282 -0.2902
vtan -0.1687 0.9277 0.3329
vtan 0.1739 0.9279 -0.3297
vtan 0.2902 0.9282 -0.233
vtan -0.333 0.9277 0.1688
vtan -0.2144 0.9286 0.3029
vtan 0.0794 0.9286 0.3624
vtan -0.0318 0.9279 -0.3716
vtan -0.0324 0.9279 0.3715
vtan -0.3715 0.9279 0.0321
vtan 0.3677 0.9285 0.0523
vtan 0.3507 0.9268 -0.1346
vtan -0.3451 0.925 0.1591
vtan -0.1591 0.925 0.3451
vtan -0.8923 0.4173 0.1723
vtan -0.3825 0.9234 0.0323
vtan -0.9222 0.382 0.061
vtan -0.1717 0.4173 -0.8924
vtan -0.0339 0.9233 -0.3825
vtan -0.0643 0.3819 -0.922
vtan -0.1726 0.4172 0.8923
vtan -0.0302 0.9235 0.3825
vtan -0.0607 0.382 0.9222
vtan 0.8854 0.4171 0.205
vtan 0.3817 0.9216 0.0699
vtan 0.914 0.3786 0.1459
vtan 0.7501 0.4172 -0.5131
vtan 0.4367 0.4159 -0.7977
vtan -0.5507 0.4166 -0.7233
vtan -0.8061 0.4153 -0.4217
vtan -0.7233 0.4165 0.5507
vtan -0.4431 0.4162 0.794
vtan -0.5507 0.4165 0.7234
vtan -0.794 0.4161 0.4431
vtan 0.7486 0.4171 0.5154
vtan 0.4416 0.4162 0.7949
vtan 0.5131 0.4172 -0.7501
vtan 0.7885 0.4165 -0.4526
vtan 0.0722 0.4148 -0.907
vtan 0.3543 0.4101 -0.8404
vtan 0.1346 0.9267 -0.3508
vtan 0.8404 0.4102 -0.3543
vtan -0.8915 0.4172 -0.1765
vtan -0.2906 0.4146 0.8623
vtan -0.8624 0.4144 0.2907
vtan 0.0958 0.4162 0.9042
vtan 0.8924 0.4172 -0.172
vtan 0.3568 0.9281 -0.1067
vtan -0.0 1.0 -0.0
vtan -0.0139 0.927 0.3748
vtan -0.0163 0.9974 -0.0702
vtan 0.0 1.0 0.0
vtan 0.3578 0.9282 0.1019
vtan -0.0638 0.9978 0.017
vtan -0.3402 0.9271 -0.1574
vtan -0.233 0.9282 -0.2903
vtan 0.1687 0.9277 0.333
vtan 0.3028 0.9286 0.2144
vtan -0.08 0.9286 -0.3623
vtan 0.0324 0.9279 0.3715
vtan -0.3677 0.9285 -0.0524
vtan 0.9044 0.4158 -0.0954
vtan 0.3713 0.9279 -0.0334
vtan 0.3825 0.9235 -0.03
vtan 0.9222 0.382 -0.06
vtan 0.1727 0.4172 0.8922
vtan 0.032 0.9234 0.3825
vtan 0.0624 0.3819 0.9221
vtan 0.0953 0.4157 -0.9045
vtan 0.0334 0.9279 -0.3714
vtan 0.0309 0.9234 -0.3825
vtan 0.0605 0.382 -0.9222
vtan -0.8859 0.4171 -0.2028
vtan -0.3817 0.9217 -0.0692
vtan -0.9143 0.3787 -0.1436
vtan 0.5505 0.4167 0.7234
vtan 0.806 0.4153 0.4217
vtan -0.7485 0.4173 -0.5154
vtan -0.4415 0.4161 -0.7949
vtan 0.8915 0.4172 0.1765
vtan -0.1063 0.4161 -0.9031
vtan 0.0201 0.9966 -0.0803
vtan 0.3821 0.9225 -0.0556
vtan -0.0621 0.998 -0.0154
vtan -0.0159 0.9977 0.066
vtan -0.3638 0.9286 0.0723
vtan 0.0768 0.9969 0.0188
vtan 0.0091 0.9238 -0.3827
vtan 0.0106 0.9433 0.3318
vtan 0.019 0.3826 -0.9237
vtan 0.0192 0.9237 0.3826
vtan 0.0245 0.3826 0.9236
vtan -0.0173 0.9979 -0.0628
vtan 0.0117 0.94 -0.341
vtan -0.0 1.0 -0.0
vtan -0.0 1.0 -0.0
vtan -0.0201 0.9966 0.0803
vtan 0.0621 0.998 0.0154
vtan -0.3816 0.9214 -0.0734
vtan -0.9139 0.3786 -0.1465
vtan 0.9189 0.3807 -0.1037
vtan -0.2792 0.9601 -0.0119
vtan -0.0 1.0 0.0
vtan -0.0 1.0 0.0
vtan 0.2865 0.958 -0.0081
vtan -0.0757 0.997 0.0163
vtan 0.0159 0.9977 -0.066
vtan -0.0097 0.9238 0.3827
vtan -0.0189 0.3829 0.9236
vtan -0.0318 0.9234 -0.3825
vtan -0.0627 0.382 -0.922
vtan -0.0103 0.9587 0.2843
vtan -0.0 1.0 0.0
vtan 0.0 1.0 -0.0
vtan -0.0094 0.958 -0.2865
vtan -0.0542 0.4142 0.9086
vtan 0.0163 0.9974 0.0702
vtan -0.0768 0.9969 -0.0188
vtan 0.3817 0.9215 0.0716
vtan 0.9142 0.3787 0.1444
vtan -0.3817 0.9215 0.0712
vtan -0.8916 0.4172 0.1758
vtan -0.9144 0.3787 0.1433
vtan 0.3241 0.946 0.0088
vtan 0.0 1.0 0.0
vtan 0.0 1.0 -0.0
vtan -0.3171 0.9483 0.01
vtan 0.0638 0.9978 -0.017
vtan 0.0 1.0 -0.0
vtan -0.0 1.0 0.0
vtan 0.0 1.0 0.0
vtan 0.0 1.0 0.0
vtan 0.3171 0.9483 -0.0101
vtan -0.3241 0.946 -0.0089
vtan 0.0094 0.958 0.2865
vtan 0.0103 0.9587 -0.2843
vtan -0.2865 0.958 0.008
vtan 0.2793 0.9601 0.0118
vtan -0.0105 0.9433 -0.3318
vtan -0.0116 0.94 0.341
f 0/0/0/0 1/1/1/1 2/2/2/2 
f 0/0/0/0 2/2/2/2 3/3/3/3 
f 4/4/4/4 5/5/5/5 6/6/6/6 
f 4/4/4/4 6/6/6/6 7/7/7/7 
f 5/5/5/5 4/4/4/4 8/8/8/8 
f 5/5/5/5 8/8/8/8 2/2/2/2 
f 4/4/4/4 9/9/9/9 8/8/8/8 
f 10/10/10/10 11/11/11/11 12/12/12/12 
f 10/10/10/10 12/12/12/12 13/13/13/13 
f 11/11/11/11 10/10/10/10 14/14/14/14 
f 11/11/11/11 14/14/14/14 8/8/8/8 
f 10/10/10/10 15/15/15/15 14/14/14/14 
f 8/8/8/8 14/14/14/14 3/3/3/3 
f 8/8/8/8 3/3/3/3 2/2/2/2 
f 16/16/16/16 17/17/17/17 18/18/17/18 
f 16/16/16/16 18/18/17/18 19/19/18/19 
f 17/17/17/17 16/16/16/16 3/3/3/3 
f 17/17/17/17 3/3/3/3 14/14/14/14 
f 16/16/16/16 20/20/19/20 3/3/3/3 
f 0/0/0/0 3/3/3/3 21/21/20/21 
f 0/0/0/0 21/21/20/21 22/22/21/22 
f 23/23/22/23 0/0/0/0 22/22/21/22 
f 24/24/23/24 25/25/24/25 26/26/25/26 
f 24/24/23/24 26/26/25/26 27/27/26/27 
f 28/28/27/28 29/29/28/29 30/30/29/12 
f 28/28/27/28 30/30/29/12 31/31/30/30 
f 29/29/28/29 28/28/27/28 32/32/31/31 
f 29/29/28/29 32/32/31/31 26/26/25/26 
f 28/28/27/28 33/33/32/32 32/32/31/31 
f 34/34/33/33 35/35/34/34 36/36/35/35 
f 34/34/33/33 36/36/35/35 37/37/36/36 
f 35/35/34/34 34/34/33/33 38/38/37/37 
f 35/35/34/34 38/38/37/37 32/32/31/31 
f 34/34/33/33 39/39/38/38 38/38/37/37 
f 32/32/31/31 38/38/37/37 27/27/26/27 
f 32/32/31/31 27/27/26/27 26/26/25/26 
f 40/40/39/39 41/41/40/40 42/42/41/12 
f 40/40/39/39 42/42/41/12 43/43/42/41 
f 41/41/40/40 40/40/39/39 27/27/26/27 
f 41/41/40/40 27/27/26/27 38/38/37/37 
f 40/40/39/39 44/44/43/42 27/27/26/27 
f 45/45/44/43 46/46/45/44 24/24/23/24 
f 45/45/44/43 24/24/23/24 27/27/26/27 
f 47/47/46/45 24/24/23/24 46/46/45/44 
f 48/48/47/46 49/49/48/47 50/50/49/48 
f 48/48/47/46 50/50/49/48 51/51/50/49 
f 52/52/51/50 53/53/52/47 54/54/53/51 
f 52/52/51/50 54/54/53/51 55/55/54/52 
f 56/56/55/53 57/57/56/54 58/58/57/55 
f 56/56/55/53 58/58/57/55 59/59/58/56 
f 60/60/59/57 61/61/60/58 62/62/61/59 
f 60/60/59/57 62/62/61/59 63/63/62/60 
f 64/64/63/61 65/65/64/62 66/66/65/63 
f 64/64/63/61 66/66/65/63 67/67/66/64 
f 57/57/56/54 68/68/67/65 69/69/68/47 
f 57/57/56/54 69/69/68/47 58/58/57/55 
f 70/70/69/66 58/58/57/55 69/69/68/47 
f 62/62/61/59 50/50/49/48 49/49/48/47 
f 62/62/61/59 49/49/48/47 63/63/62/60 
f 71/71/70/67 63/63/62/60 49/49/48/47 
f 66/66/65/63 65/65/64/62 72/72/71/47 
f 66/66/65/63 72/72/71/47 73/73/72/68 
f 56/56/55/53 54/54/53/51 53/53/52/47 
f 56/56/55/53 53/53/52/47 74/74/73/69 
f 59/59/58/56 54/54/53/51 56/56/55/53 
f 75/75/74/47 76/76/75/70 60/60/59/57 
f 75/75/74/47 60/60/59/57 77/77/76/71 
f 60/60/59/57 76/76/75/70 61/61/60/58 
f 78/78/77/47 64/64/63/61 67/67/66/64 
f 78/78/77/47 67/67/66/64 79/79/78/72 
f 14/80/14/73 73/73/72/68 80/81/79/74 
f 14/80/14/73 80/81/79/74 17/82/17/75 
f 3/83/3/76 70/70/69/66 81/84/80/77 
f 3/83/3/76 81/84/80/77 21/85/20/78 
f 26/86/25/79 71/71/70/67 82/87/81/80 
f 26/86/25/79 82/87/81/80 29/88/28/81 
f 32/89/31/82 74/74/73/69 83/90/82/83 
f 32/89/31/82 83/90/82/83 35/91/34/84 
f 1/92/1/85 0/93/0/86 62/62/61/59 
f 1/92/1/85 62/62/61/59 61/61/60/58 
f 20/94/19/87 16/95/16/88 59/59/58/56 
f 20/94/19/87 59/59/58/56 58/58/57/55 
f 15/96/15/89 10/97/10/90 67/67/66/64 
f 15/96/15/89 67/67/66/64 66/66/65/63 
f 25/98/24/91 24/99/23/92 60/60/59/57 
f 25/98/24/91 60/60/59/57 63/63/62/60 
f 33/100/32/93 28/101/27/94 57/57/56/54 
f 33/100/32/93 57/57/56/54 56/56/55/53 
f 39/102/38/95 34/103/33/96 65/65/64/62 
f 39/102/38/95 65/65/64/62 64/64/63/61 
f 0/93/0/86 23/104/22/97 50/50/49/48 
f 0/93/0/86 50/50/49/48 62/62/61/59 
f 3/83/3/76 20/94/19/87 58/58/57/55 
f 3/83/3/76 58/58/57/55 70/70/69/66 
f 14/80/14/73 15/96/15/89 66/66/65/63 
f 14/80/14/73 66/66/65/63 73/73/72/68 
f 26/86/25/79 25/98/24/91 63/63/62/60 
f 26/86/25/79 63/63/62/60 71/71/70/67 
f 32/89/31/82 33/100/32/93 56/56/55/53 
f 32/89/31/82 56/56/55/53 74/74/73/69 
f 38/105/37/98 39/102/38/95 64/64/63/61 
f 38/105/37/98 64/64/63/61 84/106/83/99 
f 2/107/2/100 1/92/1/85 61/61/60/58 
f 2/107/2/100 61/61/60/58 76/76/75/70 
f 16/95/16/88 19/108/18/101 54/54/53/51 
f 16/95/16/88 54/54/53/51 59/59/58/56 
f 10/97/10/90 13/109/13/102 79/79/78/72 
f 10/97/10/90 79/79/78/72 67/67/66/64 
f 24/99/23/92 47/110/46/103 77/77/76/71 
f 24/99/23/92 77/77/76/71 60/60/59/57 
f 28/101/27/94 31/111/30/104 68/68/67/65 
f 28/101/27/94 68/68/67/65 57/57/56/54 
f 34/103/33/96 37/112/36/105 85/113/84/106 
f 34/103/33/96 85/113/84/106 65/65/64/62 
f 86/114/85/107 78/49/77/47 79/50/78/108 
f 86/114/85/107 79/50/78/108 87/115/86/109 
f 88/116/87/110 89/53/88/47 90/54/89/111 
f 88/116/87/110 90/54/89/111 91/117/90/112 
f 92/56/91/113 93/57/92/114 94/58/93/115 
f 92/56/91/113 94/58/93/115 95/59/94/116 
f 93/57/92/114 96/68/95/117 97/69/96/47 
f 93/57/92/114 97/69/96/47 94/58/93/115 
f 98/70/97/118 94/58/93/115 97/69/96/47 
f 92/56/91/113 90/54/89/111 89/53/88/47 
f 92/56/91/113 89/53/88/47 99/74/98/119 
f 95/59/94/116 90/54/89/111 92/56/91/113 
f 2/80/2/120 76/73/75/121 100/118/99/122 
f 2/80/2/120 100/118/99/122 5/119/5/123 
f 8/83/8/124 98/70/97/118 101/120/100/125 
f 8/83/8/124 101/120/100/125 11/121/11/126 
f 38/86/37/127 84/71/83/128 102/122/101/129 
f 38/86/37/127 102/122/101/129 41/123/40/130 
f 27/89/26/131 99/74/98/119 103/124/102/132 
f 27/89/26/131 103/124/102/132 45/125/44/133 
f 9/94/9/134 4/95/4/135 95/59/94/116 
f 9/94/9/134 95/59/94/116 94/58/93/115 
f 44/100/43/136 40/101/39/137 93/57/92/114 
f 44/100/43/136 93/57/92/114 92/56/91/113 
f 8/83/8/124 9/94/9/134 94/58/93/115 
f 8/83/8/124 94/58/93/115 98/70/97/118 
f 27/89/26/131 44/100/43/136 92/56/91/113 
f 27/89/26/131 92/56/91/113 99/74/98/119 
f 4/95/4/135 7/108/7/138 90/54/89/111 
f 4/95/4/135 90/54/89/111 95/59/94/116 
f 40/101/39/137 43/111/42/139 96/68/95/117 
f 40/101/39/137 96/68/95/117 93/57/92/114 
f 69/69/68/47 68/68/67/65 104/126/103/140 
f 105/127/104/141 106/128/105/142 72/72/71/47 
f 105/127/104/141 72/72/71/47 85/113/84/106 
f 97/69/96/47 96/68/95/117 107/129/106/143 
f 75/72/74/47 77/113/76/144 108/130/107/145 
f 109/131/108/146 110/132/109/147 51/51/50/49 
f 109/131/108/146 50/50/49/48 23/104/22/97 
f 109/131/108/146 23/104/22/97 22/133/21/148 
f 111/134/110/149 30/135/29/150 29/88/28/81 
f 111/134/110/149 29/88/28/81 82/87/81/80 
f 82/87/81/80 71/71/70/67 112/136/111/151 
f 112/136/111/151 49/49/48/47 48/48/47/46 
f 109/131/108/146 22/133/21/148 21/85/20/78 
f 109/131/108/146 21/85/20/78 81/84/80/77 
f 111/134/110/149 113/137/112/152 104/126/103/140 
f 113/137/112/152 114/138/113/153 115/139/114/154 
f 113/137/112/152 115/139/114/154 104/126/103/140 
f 81/84/80/77 70/70/69/66 116/140/115/155 
f 111/134/110/149 68/68/67/65 31/111/30/104 
f 111/134/110/149 31/111/30/104 30/135/29/150 
f 80/81/79/74 73/73/72/68 117/141/116/156 
f 118/142/117/157 18/143/17/158 17/82/17/75 
f 118/142/117/157 17/82/17/75 80/81/79/74 
f 105/127/104/141 85/113/84/106 37/112/36/105 
f 105/127/104/141 37/112/36/105 36/144/35/159 
f 105/127/104/141 119/145/118/160 106/128/105/142 
f 119/145/118/160 120/146/119/161 121/147/120/162 
f 119/145/118/160 121/147/120/162 106/128/105/142 
f 118/142/117/157 122/148/121/163 55/55/54/52 
f 105/127/104/141 36/144/35/159 35/91/34/84 
f 105/127/104/141 35/91/34/84 83/90/82/83 
f 118/142/117/157 54/54/53/51 19/108/18/101 
f 118/142/117/157 19/108/18/101 18/143/17/158 
f 83/90/82/83 74/74/73/69 123/149/122/164 
f 123/149/122/164 53/53/52/47 52/52/51/50 
f 101/120/100/125 98/70/97/118 124/150/123/165 
f 125/151/124/166 12/152/12/167 11/121/11/126 
f 125/151/124/166 11/121/11/126 101/120/100/125 
f 126/153/125/168 96/68/95/117 43/111/42/139 
f 126/153/125/168 43/111/42/139 42/154/41/169 
f 126/153/125/168 127/155/126/170 107/129/106/143 
f 127/155/126/170 128/156/127/171 129/157/128/172 
f 127/155/126/170 129/157/128/172 107/129/106/143 
f 125/151/124/166 130/158/129/173 87/115/86/109 
f 126/153/125/168 42/154/41/169 41/123/40/130 
f 126/153/125/168 41/123/40/130 102/122/101/129 
f 125/151/124/166 79/50/78/108 13/104/13/174 
f 125/151/124/166 13/104/13/174 12/152/12/167 
f 78/49/77/47 131/159/130/175 102/122/101/129 
f 78/49/77/47 102/122/101/129 84/71/83/128 
f 131/159/130/175 78/49/77/47 86/114/85/107 
f 100/118/99/122 76/73/75/121 132/160/131/176 
f 133/161/132/177 6/162/6/178 5/119/5/123 
f 133/161/132/177 5/119/5/123 100/118/99/122 
f 134/163/133/179 77/113/76/144 47/112/46/180 
f 134/163/133/179 47/112/46/180 46/164/45/181 
f 134/163/133/179 135/165/134/182 108/130/107/145 
f 135/165/134/182 136/166/135/183 137/167/136/184 
f 135/165/134/182 137/167/136/184 108/130/107/145 
f 133/161/132/177 138/168/137/185 91/117/90/112 
f 134/163/133/179 46/164/45/181 45/125/44/133 
f 134/163/133/179 45/125/44/133 103/124/102/132 
f 133/161/132/177 90/54/89/111 7/108/7/138 
f 133/161/132/177 7/108/7/138 6/162/6/178 
f 103/124/102/132 99/74/98/119 139/169/138/186 
f 139/169/138/186 89/53/88/47 88/116/87/110 
f 110/132/109/147 140/170/139/187 48/48/47/46 
f 110/132/109/147 48/48/47/46 51/51/50/49 
f 122/148/121/163 141/171/140/188 52/52/51/50 
f 122/148/121/163 52/52/51/50 55/55/54/52 
f 130/158/129/173 142/172/141/189 86/114/85/107 
f 130/158/129/173 86/114/85/107 87/115/86/109 
f 138/168/137/185 143/173/142/190 88/116/87/110 
f 138/168/137/185 88/116/87/110 91/117/90/112 
f 143/173/142/190 136/166/135/183 135/165/134/182 
f 143/173/142/190 135/165/134/182 144/174/143/191 
f 137/167/136/184 136/166/135/183 145/175/144/192 
f 137/167/136/184 145/175/144/192 132/160/131/176 
f 136/166/135/183 143/173/142/190 138/168/137/185 
f 136/166/135/183 138/168/137/185 145/175/144/192 
f 88/116/87/110 143/173/142/190 144/174/143/191 
f 88/116/87/110 144/174/143/191 139/169/138/186 
f 142/172/141/189 128/156/127/171 127/155/126/170 
f 142/172/141/189 127/155/126/170 146/176/145/193 
f 129/157/128/172 128/156/127/171 147/177/146/194 
f 129/157/128/172 147/177/146/194 124/150/123/165 
f 128/156/127/171 142/172/141/189 130/158/129/173 
f 128/156/127/171 130/158/129/173 147/177/146/194 
f 86/114/85/107 142/172/141/189 146/176/145/193 
f 86/114/85/107 146/176/145/193 131/159/130/175 
f 141/171/140/188 120/146/119/161 119/145/118/160 
f 141/171/140/188 119/145/118/160 148/178/147/195 
f 121/147/120/162 120/146/119/161 149/179/148/196 
f 121/147/120/162 149/179/148/196 117/141/116/156 
f 120/146/119/161 141/171/140/188 122/148/121/163 
f 120/146/119/161 122/148/121/163 149/179/148/196 
f 52/52/51/50 141/171/140/188 148/178/147/195 
f 52/52/51/50 148/178/147/195 123/149/122/164 
f 140/170/139/187 114/138/113/153 113/137/112/152 
f 140/170/139/187 113/137/112/152 150/180/149/197 
f 115/139/114/154 114/138/113/153 151/181/150/198 
f 115/139/114/154 151/181/150/198 116/140/115/155 
f 114/138/113/153 140/170/139/187 110/132/109/147 
f 114/138/113/153 110/132/109/147 151/181/150/198 
f 48/48/47/46 140/170/139/187 150/180/149/197 
f 48/48/47/46 150/180/149/197 112/136/111/151 
f 69/69/68/47 104/126/103/140 115/139/114/154 
f 83/90/82/83 123/149/122/164 148/178/147/195 
f 149/179/148/196 122/148/121/163 118/142/117/157 
f 149/179/148/196 118/142/117/157 80/81/79/74 
f 150/180/149/197 113/137/112/152 111/134/110/149 
f 150/180/149/197 111/134/110/149 82/87/81/80 
f 81/84/80/77 116/140/115/155 151/181/150/198 
f 148/178/147/195 119/145/118/160 105/127/104/141 
f 148/178/147/195 105/127/104/141 83/90/82/83 
f 80/81/79/74 117/141/116/156 149/179/148/196 
f 72/72/71/47 106/128/105/142 121/147/120/162 
f 147/177/146/194 130/158/129/173 125/151/124/166 
f 147/177/146/194 125/151/124/166 101/120/100/125 
f 102/122/101/129 131/159/130/175 146/176/145/193 
f 146/176/145/193 127/155/126/170 126/153/125/168 
f 146/176/145/193 126/153/125/168 102/122/101/129 
f 97/69/96/47 107/129/106/143 129/157/128/172 
f 145/175/144/192 138/168/137/185 133/161/132/177 
f 145/175/144/192 133/161/132/177 100/118/99/122 
f 103/124/102/132 139/169/138/186 144/174/143/191 
f 101/120/100/125 124/150/123/165 147/177/146/194 
f 75/72/74/47 108/130/107/145 137/167/136/184 
f 82/87/81/80 112/136/111/151 150/180/149/197 
f 151/181/150/198 110/132/109/147 109/131/108/146 
f 151/181/150/198 109/131/108/146 81/84/80/77 
f 100/118/99/122 132/160/131/176 145/175/144/192 
f 144/174/143/191 135/165/134/182 134/163/133/179 
f 144/174/143/191 134/163/133/179 103/124/102/132 
f 54/54/53/51 118/142/117/157 55/55/54/52 
f 74/74/73/69 53/53/52/47 123/149/122/164 
f 68/68/67/65 111/134/110/149 104/126/103/140 
f 115/139/114/154 116/140/115/155 70/70/69/66 
f 115/139/114/154 70/70/69/66 69/69/68/47 
f 65/65/64/62 85/113/84/106 72/72/71/47 
f 78/78/77/47 84/106/83/99 64/64/63/61 
f 79/50/78/108 125/151/124/166 87/115/86/109 
f 121/147/120/162 117/141/116/156 73/73/72/68 
f 121/147/120/162 73/73/72/68 72/72/71/47 
f 99/74/98/119 89/53/88/47 139/169/138/186 
f 129/157/128/172 124/150/123/165 98/70/97/118 
f 129/157/128/172 98/70/97/118 97/69/96/47 
f 90/54/89/111 133/161/132/177 91/117/90/112 
f 96/68/95/117 126/153/125/168 107/129/106/143 
f 77/113/76/144 134/163/133/179 108/130/107/145 
f 71/71/70/67 49/49/48/47 112/136/111/151 
f 50/50/49/48 109/131/108/146 51/51/50/49 
f 137/167/136/184 132/160/131/176 76/73/75/121 
f 137/167/136/184 76/73/75/121 75/72/74/47 
