v -246.6537 221.4877 180.1305
v -278.9044 329.2574 180.1306
v -246.6537 495.6896 180.1306
v -338.1725 382.468 180.1306
v -434.7888 406.4195 180.1306
v -434.7888 495.6896 180.1306
v -617.8264 221.4877 180.1305
v -617.8264 495.6896 180.1306
v -592.5498 328.8608 180.1306
v -526.3077 381.4321 180.1306
v 119.4216 221.4877 180.1305
v 87.1708 329.2574 180.1306
v 119.4216 495.6896 180.1306
v 27.9028 382.468 180.1306
v -63.616 406.4195 180.1306
v -63.616 495.6896 180.1306
v -214.4576 328.8608 180.1306
v -155.1349 381.4321 180.1306
v 492.2777 221.4877 180.1305
v 492.2777 495.6896 180.1306
v 524.5285 329.2574 180.1306
v 583.7966 382.468 180.1306
v 675.3154 495.6896 180.1306
v 675.3154 406.4195 180.1306
v 869.3511 221.4877 180.1305
v 826.157 328.8608 180.1306
v 869.3511 495.6896 180.1306
v 766.8342 381.4321 180.1306
v 158.4532 329.2574 180.1306
v 217.7213 382.468 180.1306
v 309.2401 495.6896 180.1306
v 309.2401 406.4195 180.1306
v 460.0817 328.8608 180.1306
v 400.7589 381.4321 180.1306
v -656.8982 329.2574 180.1306
v -712.5435 377.9363 180.1306
v -805.114 406.4195 180.1306
v -805.114 495.6896 180.1306
v -998.5178 221.4877 180.1305
v -998.5178 495.6896 180.1306
v -955.9557 328.8608 180.1306
v -896.6328 381.4321 180.1306
v -998.5178 314.0042 119.4785
v -998.5178 354.6989 60.8253
v -998.5178 381.1631 2.172
v -998.5178 381.7648 -35.3436
v -998.5178 495.6896 -35.3436
v 869.3511 314.0042 119.4785
v 869.3511 354.6989 60.8253
v 869.3511 381.1631 2.172
v 869.3511 495.6896 -35.3436
v 869.3511 381.7648 -35.3436
v -246.6537 221.4877 -250.8179
v -246.6537 495.6896 -250.8178
v -278.9044 329.2574 -250.8178
v -338.1725 382.468 -250.8178
v -434.7888 495.6896 -250.8178
v -434.7888 406.4195 -250.8178
v -617.8264 221.4877 -250.8179
v -592.5498 328.8608 -250.8178
v -617.8264 495.6896 -250.8178
v -526.3077 381.4321 -250.8178
v 119.4216 221.4877 -250.8179
v 119.4216 495.6896 -250.8178
v 87.1708 329.2574 -250.8178
v 27.9028 382.468 -250.8178
v -63.616 495.6896 -250.8178
v -63.616 406.4195 -250.8178
v -214.4576 328.8608 -250.8178
v -155.1349 381.4321 -250.8178
v 492.2777 221.4877 -250.8179
v 524.5285 329.2574 -250.8178
v 492.2777 495.6896 -250.8178
v 583.7966 382.468 -250.8178
v 675.3154 406.4195 -250.8178
v 675.3154 495.6896 -250.8178
v 869.3511 221.4877 -250.8179
v 869.3511 495.6896 -250.8178
v 826.157 328.8608 -250.8178
v 766.8342 381.4321 -250.8178
v 158.4532 329.2574 -250.8178
v 217.7213 382.468 -250.8178
v 309.2401 406.4195 -250.8178
v 309.2401 495.6896 -250.8178
v 460.0817 328.8608 -250.8178
v 400.7589 381.4321 -250.8178
v -656.8982 329.2574 -250.8178
v -712.5435 377.9363 -250.8178
v -805.114 495.6896 -250.8178
v -805.114 406.4195 -250.8178
v -998.5178 221.4877 -250.8179
v -955.9557 328.8608 -250.8178
v -998.5178 495.6896 -250.8178
v -896.6328 381.4321 -250.8178
v -998.5178 314.0042 -190.1658
v -998.5178 354.6989 -131.5124
v -998.5178 381.1631 -72.8592
v 869.3511 314.0042 -190.1658
v 869.3511 354.6989 -131.5124
v 869.3511 381.1631 -72.8592
gi 0 0 0 0
gi 0 0 0 0
gi 0 0 0 0
gi 0 0 0 0
gi 0 0 0 0
gi 0 0 0 0
gi 0 0 0 0
gi 0 0 0 0
gi 0 0 0 0
gi 0 0 0 0
gi 0 0 0 0
gi 0 0 0 0
gi 0 0 0 0
gi 0 0 0 0
gi 0 0 0 0
gi 0 0 0 0
gi 0 0 0 0
gi 0 0 0 0
gi 0 0 0 0
gi 0 0 0 0
gi 0 0 0 0
gi 0 0 0 0
gi 0 0 0 0
gi 0 0 0 0
gi 0 0 0 0
gi 0 0 0 0
gi 0 0 0 0
gi 0 0 0 0
gi 0 0 0 0
gi 0 0 0 0
gi 0 0 0 0
gi 0 0 0 0
gi 0 0 0 0
gi 0 0 0 0
gi 0 0 0 0
gi 0 0 0 0
gi 0 0 0 0
gi 0 0 0 0
gi 0 0 0 0
gi 0 0 0 0
gi 0 0 0 0
gi 0 0 0 0
gi 0 0 0 0
gi 0 0 0 0
gi 0 0 0 0
gi 0 0 0 0
gi 0 0 0 0
gi 0 0 0 0
gi 0 0 0 0
gi 0 0 0 0
gi 0 0 0 0
gi 0 0 0 0
gi 0 0 0 0
gi 0 0 0 0
gi 0 0 0 0
gi 0 0 0 0
gi 0 0 0 0
gi 0 0 0 0
gi 0 0 0 0
gi 0 0 0 0
gi 0 0 0 0
gi 0 0 0 0
gi 0 0 0 0
gi 0 0 0 0
gi 0 0 0 0
gi 0 0 0 0
gi 0 0 0 0
gi 0 0 0 0
gi 0 0 0 0
gi 0 0 0 0
gi 0 0 0 0
gi 0 0 0 0
gi 0 0 0 0
gi 0 0 0 0
gi 0 0 0 0
gi 0 0 0 0
gi 0 0 0 0
gi 0 0 0 0
gi 0 0 0 0
gi 0 0 0 0
gi 0 0 0 0
gi 0 0 0 0
gi 0 0 0 0
gi 0 0 0 0
gi 0 0 0 0
gi 0 0 0 0
gi 0 0 0 0
gi 0 0 0 0
gi 0 0 0 0
gi 0 0 0 0
gi 0 0 0 0
gi 0 0 0 0
gi 0 0 0 0
gi 0 0 0 0
gi 0 0 0 0
gi 0 0 0 0
gi 0 0 0 0
gi 0 0 0 0
gi 0 0 0 0
gi 0 0 0 0
gw 0.0 0.0 0.0 0.0
gw 0.0 0.0 0.0 0.0
gw 0.0 0.0 0.0 0.0
gw 0.0 0.0 0.0 0.0
gw 0.0 0.0 0.0 0.0
gw 0.0 0.0 0.0 0.0
gw 0.0 0.0 0.0 0.0
gw 0.0 0.0 0.0 0.0
gw 0.0 0.0 0.0 0.0
gw 0.0 0.0 0.0 0.0
gw 0.0 0.0 0.0 0.0
gw 0.0 0.0 0.0 0.0
gw 0.0 0.0 0.0 0.0
gw 0.0 0.0 0.0 0.0
gw 0.0 0.0 0.0 0.0
gw 0.0 0.0 0.0 0.0
gw 0.0 0.0 0.0 0.0
gw 0.0 0.0 0.0 0.0
gw 0.0 0.0 0.0 0.0
gw 0.0 0.0 0.0 0.0
gw 0.0 0.0 0.0 0.0
gw 0.0 0.0 0.0 0.0
gw 0.0 0.0 0.0 0.0
gw 0.0 0.0 0.0 0.0
gw 0.0 0.0 0.0 0.0
gw 0.0 0.0 0.0 0.0
gw 0.0 0.0 0.0 0.0
gw 0.0 0.0 0.0 0.0
gw 0.0 0.0 0.0 0.0
gw 0.0 0.0 0.0 0.0
gw 0.0 0.0 0.0 0.0
gw 0.0 0.0 0.0 0.0
gw 0.0 0.0 0.0 0.0
gw 0.0 0.0 0.0 0.0
gw 0.0 0.0 0.0 0.0
gw 0.0 0.0 0.0 0.0
gw 0.0 0.0 0.0 0.0
gw 0.0 0.0 0.0 0.0
gw 0.0 0.0 0.0 0.0
gw 0.0 0.0 0.0 0.0
gw 0.0 0.0 0.0 0.0
gw 0.0 0.0 0.0 0.0
gw 0.0 0.0 0.0 0.0
gw 0.0 0.0 0.0 0.0
gw 0.0 0.0 0.0 0.0
gw 0.0 0.0 0.0 0.0
gw 0.0 0.0 0.0 0.0
gw 0.0 0.0 0.0 0.0
gw 0.0 0.0 0.0 0.0
gw 0.0 0.0 0.0 0.0
gw 0.0 0.0 0.0 0.0
gw 0.0 0.0 0.0 0.0
gw 0.0 0.0 0.0 0.0
gw 0.0 0.0 0.0 0.0
gw 0.0 0.0 0.0 0.0
gw 0.0 0.0 0.0 0.0
gw 0.0 0.0 0.0 0.0
gw 0.0 0.0 0.0 0.0
gw 0.0 0.0 0.0 0.0
gw 0.0 0.0 0.0 0.0
gw 0.0 0.0 0.0 0.0
gw 0.0 0.0 0.0 0.0
gw 0.0 0.0 0.0 0.0
gw 0.0 0.0 0.0 0.0
gw 0.0 0.0 0.0 0.0
gw 0.0 0.0 0.0 0.0
gw 0.0 0.0 0.0 0.0
gw 0.0 0.0 0.0 0.0
gw 0.0 0.0 0.0 0.0
gw 0.0 0.0 0.0 0.0
gw 0.0 0.0 0.0 0.0
gw 0.0 0.0 0.0 0.0
gw 0.0 0.0 0.0 0.0
gw 0.0 0.0 0.0 0.0
gw 0.0 0.0 0.0 0.0
gw 0.0 0.0 0.0 0.0
gw 0.0 0.0 0.0 0.0
gw 0.0 0.0 0.0 0.0
gw 0.0 0.0 0.0 0.0
gw 0.0 0.0 0.0 0.0
gw 0.0 0.0 0.0 0.0
gw 0.0 0.0 0.0 0.0
gw 0.0 0.0 0.0 0.0
gw 0.0 0.0 0.0 0.0
gw 0.0 0.0 0.0 0.0
gw 0.0 0.0 0.0 0.0
gw 0.0 0.0 0.0 0.0
gw 0.0 0.0 0.0 0.0
gw 0.0 0.0 0.0 0.0
gw 0.0 0.0 0.0 0.0
gw 0.0 0.0 0.0 0.0
gw 0.0 0.0 0.0 0.0
gw 0.0 0.0 0.0 0.0
gw 0.0 0.0 0.0 0.0
gw 0.0 0.0 0.0 0.0
gw 0.0 0.0 0.0 0.0
gw 0.0 0.0 0.0 0.0
gw 0.0 0.0 0.0 0.0
gw 0.0 0.0 0.0 0.0
gw 0.0 0.0 0.0 0.0
vt 8.8594 -0.5571
vt 9.1283 -0.1002
vt 8.8564 0.7965
vt 9.418 0.1008
vt 9.7077 0.2315
vt 9.8931 0.2345
vt 9.8931 0.7972
vt 8.8288 -0.5572
vt 8.8288 0.7972
vt 8.8554 0.7966
vt 5.1804 -0.5572
vt 5.3397 -0.0248
vt 5.1804 0.7972
vt 5.6324 0.238
vt 6.1097 0.3563
vt 6.1097 0.7972
vt 7.0137 -0.5572
vt 7.0137 0.7972
vt 6.8889 -0.0268
vt 6.5617 0.2329
vt 3.3722 -0.5572
vt 3.5315 -0.0248
vt 3.3722 0.7972
vt 3.8243 0.238
vt 4.2763 0.3563
vt 4.2763 0.7972
vt 5.0214 -0.0268
vt 4.7284 0.2329
vt 1.5306 -0.5572
vt 1.5306 0.7972
vt 1.3713 -0.0248
vt 1.0785 0.238
vt 0.6265 0.7972
vt 0.6265 0.3563
vt -0.2776 -0.5572
vt -0.1186 -0.0268
vt -0.2721 0.7954
vt 0.1745 0.2329
vt 3.1794 -0.0248
vt 2.8867 0.238
vt 2.4347 0.7972
vt 2.4347 0.3563
vt 1.6896 -0.0268
vt 1.9826 0.2329
vt 7.2067 -0.0248
vt 7.4816 0.2156
vt 7.9388 0.3563
vt 7.9386 0.7972
vt 8.6832 -0.027
vt 8.3907 0.2328
vt -0.2741 0.795
vn 1.0 0.0 0.0
vn 1.0 -0.0 0.0
vn -1.0 0.0 0.0
vn -1.0 0.0 0.0
vn 1.0 0.0 0.0
vn 1.0 -0.0 0.0
vn 1.0 0.0 0.0
vn -1.0 -0.0 0.0
vn -1.0 0.0 0.0
vn -0.0 0.0 -1.0
vn 0.0 0.0 -1.0
vn -0.0 0.0 -1.0
vn -0.0 0.0 -1.0
vn 0.0 0.0 -1.0
vn 0.0 0.0 -1.0
vn -0.0 0.0 -1.0
vn -0.0 0.0 -1.0
vn -0.0 0.0 -1.0
vn 0.0 0.0 -1.0
vn 0.0 0.0 -1.0
vn 0.0 0.0 -1.0
vn -0.0 0.0 -1.0
vn -0.0 0.0 -1.0
vn 0.0 0.0 -1.0
vn 0.0 0.0 -1.0
vn -0.0 0.0 -1.0
vn 0.0 0.0 -1.0
vn 0.0 0.0 -1.0
vn 0.0 0.0 -1.0
vn -0.0 0.0 -1.0
vn 0.0 0.0 -1.0
vn -0.0 0.0 -1.0
vn -0.0 0.0 -1.0
vn -0.835 -0.0 -0.5503
vn 0.0 0.0 -1.0
vn -0.7072 0.0 -0.707
vn -0.0 0.0 -1.0
vn -0.0 0.0 -1.0
vn 0.0 0.0 -1.0
vn -0.0 0.0 -1.0
vn -0.0 0.0 -1.0
vn 0.0 0.0 -1.0
vn -0.0 0.0 -1.0
vn 0.0 0.0 -1.0
vn -0.0 0.0 -1.0
vn 0.0 0.0 -1.0
vn 0.0 0.0 -1.0
vn 0.8383 0.0001 -0.5452
vn 0.7072 0.0 -0.707
vn -0.0 0.0 -1.0
vn 0.0 0.0 -1.0
vn 0.0 -0.0 1.0
vn 0.0 -0.0 1.0
vn 0.0 -0.0 1.0
vn 0.0 -0.0 1.0
vn 0.0 -0.0 1.0
vn 0.0 -0.0 1.0
vn 0.0 -0.0 1.0
vn 0.0 -0.0 1.0
vn 0.0 -0.0 1.0
vn 0.0 -0.0 1.0
vn 0.0 -0.0 1.0
vn 0.0 -0.0 1.0
vn 0.0 -0.0 1.0
vn 0.0 -0.0 1.0
vn 0.0 -0.0 1.0
vn 0.0 -0.0 1.0
vn 0.0 -0.0 1.0
vn 0.0 -0.0 1.0
vn -0.0 -0.0 1.0
vn -0.0 -0.0 1.0
vn -0.0 -0.0 1.0
vn -0.0 -0.0 1.0
vn -0.0 -0.0 1.0
vn -0.835 -0.0 0.5503
vn -0.7072 -0.0 0.707
vn 0.0 -0.0 1.0
vn -0.0 -0.0 1.0
vn -0.0 -0.0 1.0
vn -0.0 -0.0 1.0
vn -0.0 -0.0 1.0
vn 0.0 -0.0 1.0
vn -0.0 -0.0 1.0
vn 0.0 -0.0 1.0
vn 0.0 -0.0 1.0
vn 0.0 -0.0 1.0
vn -0.0 -0.0 1.0
vn 0.8383 0.0 0.5452
vn 0.0 -0.0 1.0
vn 0.7072 -0.0 0.707
vn 0.0 -0.0 1.0
vtan 0.0 -0.0006 -1.0
vtan 0.0 -0.0006 -1.0
vtan 0.0 -0.0005 -1.0
vtan 0.0 -0.0004 -1.0
vtan 0.0 -0.0003 -1.0
vtan -0.0 -0.0002 -1.0
vtan 0.0 -0.0007 -1.0
vtan 0.0 -0.0001 -1.0
vtan 0.0 -0.0 -1.0
vtan 0.0 -0.0 -1.0
vtan 0.0 0.0 -1.0
vtan 0.0 0.0 -1.0
vtan 0.0 0.0 -1.0
vtan -0.0 -0.0002 -1.0
vtan 0.0 -0.0005 1.0
vtan 0.0 -0.0005 1.0
vtan 0.0 -0.0002 1.0
vtan 0.0 -0.0002 1.0
vtan -0.0 -0.0004 1.0
vtan -0.0 -0.0004 1.0
vtan 0.0 -0.0006 1.0
vtan 0.0 -0.0006 1.0
vtan 0.0 -0.0002 1.0
vtan 0.0 -0.0001 1.0
vtan 0.0 0.0 1.0
vtan 0.0 0.0 1.0
vtan 0.0 -0.0002 1.0
vtan -0.0 -0.0 1.0
vtan -1.0 -0.0001 0.0
vtan -1.0 -0.0004 -0.0
vtan -1.0 0.0 0.0
vtan -1.0 0.0 0.0
vtan -1.0 -0.0 -0.0
vtan -1.0 -0.0 -0.0
vtan -1.0 -0.0001 0.0
vtan -1.0 0.0 0.0
vtan -1.0 0.0003 0.0
vtan -1.0 0.0 -0.0
vtan -1.0 -0.0 -0.0
vtan -1.0 -0.0004 -0.0
vtan -1.0 -0.0 0.0
vtan -1.0 0.0 0.0
vtan -1.0 -0.0 -0.0
vtan -1.0 -0.0 -0.0
vtan -1.0 0.0002 0.0
vtan -1.0 0.0 -0.0
vtan -1.0 0.0001 -0.0
vtan -1.0 -0.0 -0.0
vtan -1.0 0.0004 0.0
vtan -1.0 -0.0 -0.0
vtan -1.0 -0.0005 0.0
vtan -1.0 0.0 0.0
vtan -0.5503 -0.0063 0.8349
vtan -1.0 -0.0029 -0.0
vtan -0.707 -0.0029 0.7072
vtan -1.0 -0.0015 0.0
vtan -1.0 0.0003 0.0
vtan -1.0 -0.0 -0.0
vtan -1.0 0.0 0.0
vtan -1.0 0.0 0.0
vtan -1.0 -0.0002 -0.0
vtan -1.0 -0.0 0.0
vtan -1.0 -0.0003 -0.0
vtan -1.0 0.0 0.0
vtan -1.0 0.0001 -0.0
vtan -1.0 0.0002 -0.0
vtan -0.5452 0.0006 -0.8383
vtan -0.707 0.001 -0.7072
vtan -1.0 0.0004 0.0
vtan -1.0 0.0007 -0.0
vtan -1.0 -0.0001 -0.0
vtan -1.0 0.0 0.0
vtan -1.0 -0.0004 0.0
vtan -1.0 0.0 0.0
vtan -1.0 -0.0 0.0
vtan -1.0 -0.0 0.0
vtan -1.0 -0.0001 -0.0
vtan -1.0 0.0003 0.0
vtan -1.0 0.0 0.0
vtan -1.0 0.0 0.0
vtan -1.0 -0.0 -0.0
vtan -1.0 -0.0 0.0
vtan -1.0 -0.0004 0.0
vtan -1.0 0.0 0.0
vtan -1.0 -0.0 0.0
vtan -1.0 -0.0 0.0
vtan -1.0 0.0002 0.0
vtan -1.0 0.0 0.0
vtan -1.0 0.0001 0.0
vtan -1.0 0.0004 -0.0
vtan -1.0 -0.0 -0.0
vtan -1.0 -0.0 -0.0
vtan -1.0 0.0 -0.0
vtan -1.0 -0.0006 -0.0
vtan -0.5503 -0.0077 -0.8349
vtan -0.707 -0.0035 -0.7072
vtan -1.0 -0.0036 -0.0
vtan -1.0 -0.0018 -0.0
vtan -1.0 0.0003 -0.0
vtan -1.0 -0.0 -0.0
vtan -1.0 0.0 -0.0
vtan -1.0 -0.0002 -0.0
vtan -1.0 -0.0 -0.0
vtan -1.0 -0.0003 0.0
vtan -1.0 0.0 0.0
vtan -1.0 0.0002 0.0
vtan -1.0 0.0001 -0.0
vtan -0.5452 0.0002 0.8383
vtan -1.0 0.0003 0.0
vtan -0.707 0.0008 0.7072
vtan -1.0 0.0006 0.0
f 38/0/0/0 42/1/0/1 39/2/0/2 
f 43/3/0/3 44/4/0/4 39/2/0/2 
f 42/1/0/1 43/3/0/3 39/2/0/2 
f 44/4/1/5 45/5/1/5 46/6/1/5 
f 44/4/0/6 46/6/0/6 39/2/0/6 
f 24/7/2/7 26/8/2/8 47/1/2/9 
f 48/3/2/10 26/8/2/8 49/4/2/11 
f 47/1/2/9 26/8/2/8 48/3/2/10 
f 49/4/2/12 26/8/2/12 50/6/2/12 
f 49/4/3/13 50/6/3/13 51/5/3/13 
f 90/0/0/14 92/9/0/15 94/1/0/14 
f 95/3/4/16 92/9/4/16 96/4/4/17 
f 94/1/5/18 92/9/5/18 95/3/5/19 
f 96/4/0/20 92/9/0/21 46/6/0/20 
f 96/4/6/22 46/6/6/22 45/5/6/22 
f 76/7/2/23 97/1/2/23 77/8/2/23 
f 98/3/2/24 99/4/2/24 77/8/2/24 
f 97/1/2/25 98/3/2/25 77/8/2/25 
f 99/4/7/26 51/5/7/26 50/6/7/26 
f 99/4/8/27 50/6/8/27 77/8/8/27 
f 0/10/9/28 1/11/10/29 2/12/11/30 
f 3/13/12/31 4/14/13/32 5/15/14/33 
f 3/13/12/31 5/15/14/33 2/12/11/30 
f 1/11/10/29 3/13/12/31 2/12/11/30 
f 6/16/15/34 7/17/16/35 8/18/17/36 
f 9/19/18/37 7/17/16/35 5/15/14/33 
f 9/19/18/37 5/15/14/33 4/14/13/32 
f 8/18/17/36 7/17/16/35 9/19/18/37 
f 10/20/19/38 11/21/20/39 12/22/21/40 
f 13/23/22/41 14/24/23/42 15/25/24/43 
f 13/23/22/41 15/25/24/43 12/22/21/40 
f 11/21/20/39 13/23/22/41 12/22/21/40 
f 0/10/9/28 2/12/11/30 16/26/25/44 
f 17/27/26/45 2/12/11/30 15/25/24/43 
f 17/27/26/45 15/25/24/43 14/24/23/42 
f 16/26/25/44 2/12/11/30 17/27/26/45 
f 18/28/27/46 19/29/28/47 20/30/29/48 
f 21/31/30/49 19/29/28/47 22/32/31/50 
f 21/31/30/49 22/32/31/50 23/33/32/51 
f 20/30/29/48 19/29/28/47 21/31/30/49 
f 24/34/33/52 25/35/34/53 26/36/35/54 
f 27/37/36/55 23/33/32/51 22/32/31/50 
f 27/37/36/55 22/32/31/50 26/36/35/54 
f 25/35/34/53 27/37/36/55 26/36/35/54 
f 10/20/19/38 12/22/21/40 28/38/37/56 
f 29/39/38/57 12/22/21/40 30/40/39/58 
f 29/39/38/57 30/40/39/58 31/41/40/59 
f 28/38/37/56 12/22/21/40 29/39/38/57 
f 18/28/27/46 32/42/41/60 19/29/28/47 
f 33/43/42/61 31/41/40/59 30/40/39/58 
f 33/43/42/61 30/40/39/58 19/29/28/47 
f 32/42/41/60 33/43/42/61 19/29/28/47 
f 6/16/15/34 34/44/43/62 7/17/16/35 
f 35/45/44/63 36/46/45/64 37/47/46/65 
f 35/45/44/63 37/47/46/65 7/17/16/35 
f 34/44/43/62 35/45/44/63 7/17/16/35 
f 38/0/47/66 39/2/48/67 40/48/49/68 
f 41/49/50/69 39/2/48/67 37/47/46/65 
f 41/49/50/69 37/47/46/65 36/46/45/64 
f 40/48/49/68 39/2/48/67 41/49/50/69 
f 52/10/51/70 53/12/52/71 54/11/53/72 
f 55/13/54/73 53/12/52/71 56/15/55/74 
f 55/13/54/73 56/15/55/74 57/14/56/75 
f 54/11/53/72 53/12/52/71 55/13/54/73 
f 58/16/57/76 59/18/58/77 60/17/59/78 
f 61/19/60/79 57/14/56/75 56/15/55/74 
f 61/19/60/79 56/15/55/74 60/17/59/78 
f 59/18/58/77 61/19/60/79 60/17/59/78 
f 62/20/51/80 63/22/61/81 64/21/62/82 
f 65/23/63/83 63/22/61/81 66/25/64/84 
f 65/23/63/83 66/25/64/84 67/24/65/85 
f 64/21/62/82 63/22/61/81 65/23/63/83 
f 52/10/51/70 68/26/66/86 53/12/52/71 
f 69/27/67/87 67/24/65/85 66/25/64/84 
f 69/27/67/87 66/25/64/84 53/12/52/71 
f 68/26/66/86 69/27/67/87 53/12/52/71 
f 70/28/68/88 71/30/69/89 72/29/70/90 
f 73/31/71/91 74/33/72/92 75/32/73/93 
f 73/31/71/91 75/32/73/93 72/29/70/90 
f 71/30/69/89 73/31/71/91 72/29/70/90 
f 76/34/74/94 77/50/75/95 78/35/76/96 
f 79/37/77/97 77/50/75/95 75/32/73/93 
f 79/37/77/97 75/32/73/93 74/33/72/92 
f 78/35/76/96 77/50/75/95 79/37/77/97 
f 62/20/51/80 80/38/78/98 63/22/61/81 
f 81/39/79/99 82/41/72/92 83/40/80/100 
f 81/39/79/99 83/40/80/100 63/22/61/81 
f 80/38/78/98 81/39/79/99 63/22/61/81 
f 70/28/68/88 72/29/70/90 84/42/81/101 
f 85/43/82/102 72/29/70/90 83/40/80/100 
f 85/43/82/102 83/40/80/100 82/41/72/92 
f 84/42/81/101 72/29/70/90 85/43/82/102 
f 58/16/57/76 60/17/59/78 86/44/83/103 
f 87/45/84/104 60/17/59/78 88/47/85/105 
f 87/45/84/104 88/47/85/105 89/46/86/106 
f 86/44/83/103 60/17/59/78 87/45/84/104 
f 90/0/87/107 91/48/88/108 92/9/89/109 
f 93/49/90/110 89/46/86/106 88/47/85/105 
f 93/49/90/110 88/47/85/105 92/9/89/109 
f 91/48/88/108 93/49/90/110 92/9/89/109 
