v -66.0623 915.4515 171.3335
v -66.0623 915.4514 243.5574
v -457.6763 915.4514 243.558
v -457.6763 915.4515 171.3345
v -66.0623 927.7803 243.5574
v -457.6763 927.7803 243.5581
v -66.0623 930.2659 241.0719
v -66.0623 930.2659 165.5666
v -457.6763 930.2657 165.5674
v -457.6763 930.2656 241.0724
v -66.0623 923.7036 163.0811
v -457.6763 923.7036 163.0816
v -848.2461 915.4514 243.5574
v -848.2461 915.4514 171.3335
v -848.2461 927.7803 243.5574
v -848.2461 930.2659 165.5667
v -848.2461 930.2656 241.0719
v -848.2461 923.7036 163.0811
v -457.6763 927.7804 163.0816
v -66.0623 927.7804 163.0811
v -848.2461 927.7804 163.0811
v -967.8306 923.7036 163.0809
v -967.8306 927.7804 163.0809
v -970.3163 930.2659 165.5665
v -976.0833 915.4515 171.3335
v -1048.3079 915.4514 243.5582
v -1048.308 927.7803 243.5582
v -1045.8223 930.2656 241.0726
v -967.8308 923.7036 43.4963
v -967.8309 923.7036 -37.2738
v -967.8309 927.7804 -37.2737
v -967.8308 927.7804 43.4963
v -970.3165 930.2659 -37.2737
v -970.3164 930.2659 43.4963
v -1048.3071 915.4515 43.4963
v -976.0833 915.4514 43.4963
v -1048.3071 927.7804 43.4964
v -1045.8217 930.2657 43.4964
v -1048.3073 915.4515 -37.2738
v -976.0835 915.4515 -37.2738
v -1048.3073 927.7804 -37.2737
v -1045.8218 930.2657 -37.2737
v -457.6763 915.4515 -318.1056
v -66.0623 915.4515 -318.1049
v -66.0623 915.4515 -245.881
v -457.6763 915.4515 -245.8821
v -457.6763 927.7805 -318.1056
v -66.0623 927.7805 -318.1049
v -457.6763 930.2657 -240.1149
v -66.0623 930.266 -240.1142
v -66.0623 930.266 -315.6194
v -457.6763 930.2657 -315.6199
v -66.0623 923.7037 -237.6286
v -457.6763 923.7037 -237.6292
v -848.246 915.4515 -245.881
v -848.246 915.4515 -318.1049
v -848.246 927.7805 -318.1049
v -848.246 930.2657 -315.6194
v -848.246 930.266 -240.1142
v -848.246 923.7037 -237.6286
v -66.0623 927.7805 -237.6286
v -457.6763 927.7805 -237.6292
v -848.246 927.7805 -237.6286
v -967.8307 927.7805 -237.6283
v -967.8307 923.7037 -237.6283
v -970.3163 930.266 -240.114
v -976.0834 915.4515 -245.881
v -1048.308 915.4515 -318.1057
v -1048.308 927.7805 -318.1057
v -1045.8221 930.2657 -315.6201
v -967.8309 923.7036 -118.0438
v -967.8309 927.7804 -118.0438
v -970.3163 930.2659 -118.0438
v -976.0834 915.4514 -118.0438
v -1048.307 915.4515 -118.0438
v -1048.307 927.7804 -118.0438
v -1045.8217 930.2657 -118.0438
v 325.5518 915.4514 243.5581
v 325.5518 915.4515 171.3347
v 325.5518 927.7803 243.5581
v 325.5518 930.2657 165.5672
v 325.5518 930.2656 241.0724
v 325.5518 923.7036 163.0816
v 716.1216 915.4514 171.3335
v 716.1216 915.4514 243.5573
v 716.1216 927.7803 243.5573
v 716.1216 930.2656 241.0719
v 716.1216 930.2659 165.5666
v 716.1216 923.7036 163.0809
v 325.5518 927.7804 163.0816
v 716.1216 927.7804 163.0813
v 837.2064 927.7804 163.0807
v 837.2064 923.7036 163.0807
v 839.692 930.2659 165.5666
v 845.459 915.4515 171.3335
v 917.6836 915.4514 243.5581
v 917.6837 927.7803 243.5583
v 915.198 930.2656 241.0724
v 837.2067 927.7804 -37.2737
v 837.2067 923.7036 -37.2738
v 837.2067 923.7036 43.4963
v 837.2067 927.7804 43.4963
v 839.6923 930.2659 -37.2737
v 839.6921 930.2659 43.4963
v 845.459 915.4514 43.4963
v 917.6829 915.4515 43.4963
v 917.6829 927.7804 43.4963
v 915.1974 930.2657 43.4963
v 917.683 915.4515 -37.2738
v 845.4591 915.4515 -37.2738
v 917.683 927.7804 -37.2737
v 915.1974 930.2657 -37.2737
v 325.5518 915.4515 -318.1056
v 325.5518 915.4515 -245.8821
v 325.5518 927.7805 -318.1056
v 325.5518 930.2657 -240.1149
v 325.5518 930.2657 -315.6199
v 325.5518 923.7037 -237.6292
v 716.1215 915.4515 -318.1049
v 716.1215 915.4515 -245.881
v 716.1215 927.7805 -318.1049
v 716.1215 930.266 -240.1142
v 716.1215 930.2657 -315.6194
v 716.1215 923.7037 -237.6286
v 325.5518 927.7805 -237.6292
v 716.1215 927.7805 -237.6286
v 837.2064 923.7037 -237.6283
v 837.2064 927.7805 -237.6283
v 839.692 930.266 -240.114
v 845.4591 915.4515 -245.881
v 917.6837 915.4515 -318.1057
v 917.6837 927.7805 -318.1058
v 915.1979 930.2657 -315.6201
v 837.2067 923.7036 -118.0437
v 837.2067 927.7804 -118.0437
v 839.692 930.2659 -118.0437
v 917.6827 915.4515 -118.0437
v 845.4591 915.4514 -118.0437
v 917.6827 927.7804 -118.0437
v 915.1974 930.2657 -118.0437
gi 0 0 0 0
gi 0 0 0 0
gi 0 0 0 0
gi 0 0 0 0
gi 0 0 0 0
gi 0 0 0 0
gi 0 0 0 0
gi 0 0 0 0
gi 0 0 0 0
gi 0 0 0 0
gi 0 0 0 0
gi 0 0 0 0
gi 0 0 0 0
gi 0 0 0 0
gi 0 0 0 0
gi 0 0 0 0
gi 0 0 0 0
gi 0 0 0 0
gi 0 0 0 0
gi 0 0 0 0
gi 0 0 0 0
gi 0 0 0 0
gi 0 0 0 0
gi 0 0 0 0
gi 0 0 0 0
gi 0 0 0 0
gi 0 0 0 0
gi 0 0 0 0
gi 0 0 0 0
gi 0 0 0 0
gi 0 0 0 0
gi 0 0 0 0
gi 0 0 0 0
gi 0 0 0 0
gi 0 0 0 0
gi 0 0 0 0
gi 0 0 0 0
gi 0 0 0 0
gi 0 0 0 0
gi 0 0 0 0
gi 0 0 0 0
gi 0 0 0 0
gi 0 0 0 0
gi 0 0 0 0
gi 0 0 0 0
gi 0 0 0 0
gi 0 0 0 0
gi 0 0 0 0
gi 0 0 0 0
gi 0 0 0 0
gi 0 0 0 0
gi 0 0 0 0
gi 0 0 0 0
gi 0 0 0 0
gi 0 0 0 0
gi 0 0 0 0
gi 0 0 0 0
gi 0 0 0 0
gi 0 0 0 0
gi 0 0 0 0
gi 0 0 0 0
gi 0 0 0 0
gi 0 0 0 0
gi 0 0 0 0
gi 0 0 0 0
gi 0 0 0 0
gi 0 0 0 0
gi 0 0 0 0
gi 0 0 0 0
gi 0 0 0 0
gi 0 0 0 0
gi 0 0 0 0
gi 0 0 0 0
gi 0 0 0 0
gi 0 0 0 0
gi 0 0 0 0
gi 0 0 0 0
gi 0 0 0 0
gi 0 0 0 0
gi 0 0 0 0
gi 0 0 0 0
gi 0 0 0 0
gi 0 0 0 0
gi 0 0 0 0
gi 0 0 0 0
gi 0 0 0 0
gi 0 0 0 0
gi 0 0 0 0
gi 0 0 0 0
gi 0 0 0 0
gi 0 0 0 0
gi 0 0 0 0
gi 0 0 0 0
gi 0 0 0 0
gi 0 0 0 0
gi 0 0 0 0
gi 0 0 0 0
gi 0 0 0 0
gi 0 0 0 0
gi 0 0 0 0
gi 0 0 0 0
gi 0 0 0 0
gi 0 0 0 0
gi 0 0 0 0
gi 0 0 0 0
gi 0 0 0 0
gi 0 0 0 0
gi 0 0 0 0
gi 0 0 0 0
gi 0 0 0 0
gi 0 0 0 0
gi 0 0 0 0
gi 0 0 0 0
gi 0 0 0 0
gi 0 0 0 0
gi 0 0 0 0
gi 0 0 0 0
gi 0 0 0 0
gi 0 0 0 0
gi 0 0 0 0
gi 0 0 0 0
gi 0 0 0 0
gi 0 0 0 0
gi 0 0 0 0
gi 0 0 0 0
gi 0 0 0 0
gi 0 0 0 0
gi 0 0 0 0
gi 0 0 0 0
gi 0 0 0 0
gi 0 0 0 0
gi 0 0 0 0
gi 0 0 0 0
gi 0 0 0 0
gi 0 0 0 0
gi 0 0 0 0
gi 0 0 0 0
gi 0 0 0 0
gi 0 0 0 0
gi 0 0 0 0
gw 0.0 0.0 0.0 0.0
gw 0.0 0.0 0.0 0.0
gw 0.0 0.0 0.0 0.0
gw 0.0 0.0 0.0 0.0
gw 0.0 0.0 0.0 0.0
gw 0.0 0.0 0.0 0.0
gw 0.0 0.0 0.0 0.0
gw 0.0 0.0 0.0 0.0
gw 0.0 0.0 0.0 0.0
gw 0.0 0.0 0.0 0.0
gw 0.0 0.0 0.0 0.0
gw 0.0 0.0 0.0 0.0
gw 0.0 0.0 0.0 0.0
gw 0.0 0.0 0.0 0.0
gw 0.0 0.0 0.0 0.0
gw 0.0 0.0 0.0 0.0
gw 0.0 0.0 0.0 0.0
gw 0.0 0.0 0.0 0.0
gw 0.0 0.0 0.0 0.0
gw 0.0 0.0 0.0 0.0
gw 0.0 0.0 0.0 0.0
gw 0.0 0.0 0.0 0.0
gw 0.0 0.0 0.0 0.0
gw 0.0 0.0 0.0 0.0
gw 0.0 0.0 0.0 0.0
gw 0.0 0.0 0.0 0.0
gw 0.0 0.0 0.0 0.0
gw 0.0 0.0 0.0 0.0
gw 0.0 0.0 0.0 0.0
gw 0.0 0.0 0.0 0.0
gw 0.0 0.0 0.0 0.0
gw 0.0 0.0 0.0 0.0
gw 0.0 0.0 0.0 0.0
gw 0.0 0.0 0.0 0.0
gw 0.0 0.0 0.0 0.0
gw 0.0 0.0 0.0 0.0
gw 0.0 0.0 0.0 0.0
gw 0.0 0.0 0.0 0.0
gw 0.0 0.0 0.0 0.0
gw 0.0 0.0 0.0 0.0
gw 0.0 0.0 0.0 0.0
gw 0.0 0.0 0.0 0.0
gw 0.0 0.0 0.0 0.0
gw 0.0 0.0 0.0 0.0
gw 0.0 0.0 0.0 0.0
gw 0.0 0.0 0.0 0.0
gw 0.0 0.0 0.0 0.0
gw 0.0 0.0 0.0 0.0
gw 0.0 0.0 0.0 0.0
gw 0.0 0.0 0.0 0.0
gw 0.0 0.0 0.0 0.0
gw 0.0 0.0 0.0 0.0
gw 0.0 0.0 0.0 0.0
gw 0.0 0.0 0.0 0.0
gw 0.0 0.0 0.0 0.0
gw 0.0 0.0 0.0 0.0
gw 0.0 0.0 0.0 0.0
gw 0.0 0.0 0.0 0.0
gw 0.0 0.0 0.0 0.0
gw 0.0 0.0 0.0 0.0
gw 0.0 0.0 0.0 0.0
gw 0.0 0.0 0.0 0.0
gw 0.0 0.0 0.0 0.0
gw 0.0 0.0 0.0 0.0
gw 0.0 0.0 0.0 0.0
gw 0.0 0.0 0.0 0.0
gw 0.0 0.0 0.0 0.0
gw 0.0 0.0 0.0 0.0
gw 0.0 0.0 0.0 0.0
gw 0.0 0.0 0.0 0.0
gw 0.0 0.0 0.0 0.0
gw 0.0 0.0 0.0 0.0
gw 0.0 0.0 0.0 0.0
gw 0.0 0.0 0.0 0.0
gw 0.0 0.0 0.0 0.0
gw 0.0 0.0 0.0 0.0
gw 0.0 0.0 0.0 0.0
gw 0.0 0.0 0.0 0.0
gw 0.0 0.0 0.0 0.0
gw 0.0 0.0 0.0 0.0
gw 0.0 0.0 0.0 0.0
gw 0.0 0.0 0.0 0.0
gw 0.0 0.0 0.0 0.0
gw 0.0 0.0 0.0 0.0
gw 0.0 0.0 0.0 0.0
gw 0.0 0.0 0.0 0.0
gw 0.0 0.0 0.0 0.0
gw 0.0 0.0 0.0 0.0
gw 0.0 0.0 0.0 0.0
gw 0.0 0.0 0.0 0.0
gw 0.0 0.0 0.0 0.0
gw 0.0 0.0 0.0 0.0
gw 0.0 0.0 0.0 0.0
gw 0.0 0.0 0.0 0.0
gw 0.0 0.0 0.0 0.0
gw 0.0 0.0 0.0 0.0
gw 0.0 0.0 0.0 0.0
gw 0.0 0.0 0.0 0.0
gw 0.0 0.0 0.0 0.0
gw 0.0 0.0 0.0 0.0
gw 0.0 0.0 0.0 0.0
gw 0.0 0.0 0.0 0.0
gw 0.0 0.0 0.0 0.0
gw 0.0 0.0 0.0 0.0
gw 0.0 0.0 0.0 0.0
gw 0.0 0.0 0.0 0.0
gw 0.0 0.0 0.0 0.0
gw 0.0 0.0 0.0 0.0
gw 0.0 0.0 0.0 0.0
gw 0.0 0.0 0.0 0.0
gw 0.0 0.0 0.0 0.0
gw 0.0 0.0 0.0 0.0
gw 0.0 0.0 0.0 0.0
gw 0.0 0.0 0.0 0.0
gw 0.0 0.0 0.0 0.0
gw 0.0 0.0 0.0 0.0
gw 0.0 0.0 0.0 0.0
gw 0.0 0.0 0.0 0.0
gw 0.0 0.0 0.0 0.0
gw 0.0 0.0 0.0 0.0
gw 0.0 0.0 0.0 0.0
gw 0.0 0.0 0.0 0.0
gw 0.0 0.0 0.0 0.0
gw 0.0 0.0 0.0 0.0
gw 0.0 0.0 0.0 0.0
gw 0.0 0.0 0.0 0.0
gw 0.0 0.0 0.0 0.0
gw 0.0 0.0 0.0 0.0
gw 0.0 0.0 0.0 0.0
gw 0.0 0.0 0.0 0.0
gw 0.0 0.0 0.0 0.0
gw 0.0 0.0 0.0 0.0
gw 0.0 0.0 0.0 0.0
gw 0.0 0.0 0.0 0.0
gw 0.0 0.0 0.0 0.0
gw 0.0 0.0 0.0 0.0
gw 0.0 0.0 0.0 0.0
gw 0.0 0.0 0.0 0.0
gw 0.0 0.0 0.0 0.0
gw 0.0 0.0 0.0 0.0
vt 0.9897 0.5705
vt 0.9897 0.7513
vt 0.0111 0.7513
vt 0.0111 0.5705
vt 0.9897 0.7821
vt 0.0111 0.7821
vt 0.9897 0.3444
vt 0.9897 0.5334
vt 0.0111 0.5334
vt 0.0111 0.3444
vt 0.9897 0.5498
vt 0.0111 0.5498
vt 0.9897 0.3382
vt 0.0111 0.3382
vt 0.9887 0.7513
vt 0.9887 0.5705
vt 0.9887 0.7821
vt 0.9887 0.5334
vt 0.9887 0.3444
vt 0.9887 0.5498
vt 0.9887 0.3382
vt 0.0111 0.5396
vt 0.9897 0.5396
vt 0.9887 0.5396
vt 0.6893 0.5498
vt 0.6893 0.5396
vt 0.6831 0.5334
vt 0.6687 0.5705
vt 0.4879 0.7513
vt 0.4879 0.7821
vt 0.4941 0.3444
vt 0.4879 0.3382
vt 0.7865 0.5498
vt 0.7865 0.5396
vt 0.7865 0.5334
vt 0.7865 0.7513
vt 0.7865 0.5705
vt 0.7865 0.7821
vt 0.7865 0.3444
vt 0.7865 0.3382
vn 0.0 -0.9239 -0.3827
vn -0.0 -0.7071 0.7071
vn 0.0 -0.7071 0.7071
vn 0.0 -0.9239 -0.3827
vn -0.0 0.3827 0.9239
vn -0.0 0.3827 0.9239
vn -0.0 0.9239 0.3827
vn -0.0 0.9239 -0.3827
vn -0.0 0.9239 -0.3826
vn -0.0 0.9239 0.3826
vn 0.0 -0.3827 -0.9239
vn 0.0 -0.3827 -0.9239
vn 0.0 -0.7071 0.7071
vn 0.0 -0.9239 -0.3827
vn 0.0 0.3827 0.9239
vn 0.0 0.9239 -0.3827
vn 0.0 0.9239 0.3827
vn 0.0 -0.3827 -0.9239
vn -0.0 0.3827 -0.9239
vn -0.0 0.3827 -0.9239
vn 0.0 0.3827 -0.9239
vn 0.5789 -0.5743 -0.5789
vn 0.5789 0.5743 -0.5789
vn 0.11 0.9878 -0.11
vn 0.11 -0.9878 -0.11
vn -0.5773 -0.5774 0.5773
vn -0.6507 0.3914 0.6507
vn -0.3001 0.9054 0.3002
vn 0.9239 -0.3827 -0.0
vn 0.9239 -0.3827 -0.0
vn 0.9239 0.3827 -0.0
vn 0.9239 0.3827 -0.0
vn 0.3826 0.9239 -0.0
vn 0.3827 0.9239 -0.0
vn -0.7071 -0.7071 -0.0
vn 0.3827 -0.9239 -0.0
vn -0.9239 0.3827 -0.0
vn -0.3827 0.9239 0.0
vn -0.7071 -0.7071 -0.0
vn 0.3827 -0.9239 0.0
vn -0.9239 0.3827 -0.0
vn -0.3827 0.9239 -0.0
vn 0.0 -0.7071 -0.7071
vn -0.0 -0.7071 -0.7071
vn 0.0 -0.9239 0.3827
vn 0.0 -0.9239 0.3827
vn -0.0 0.3827 -0.9239
vn -0.0 0.3827 -0.9239
vn -0.0 0.9239 0.3826
vn -0.0 0.9239 0.3827
vn -0.0 0.9239 -0.3827
vn -0.0 0.9239 -0.3827
vn 0.0 -0.3827 0.9239
vn 0.0 -0.3827 0.9239
vn 0.0 -0.9239 0.3827
vn 0.0 -0.7071 -0.7071
vn 0.0 0.3827 -0.9239
vn 0.0 0.9239 -0.3827
vn 0.0 0.9239 0.3827
vn 0.0 -0.3827 0.9239
vn -0.0 0.3827 0.9239
vn -0.0 0.3827 0.9239
vn 0.0 0.3827 0.9239
vn 0.5789 0.5743 0.5789
vn 0.5789 -0.5743 0.5789
vn 0.11 0.9878 0.11
vn 0.11 -0.9878 0.11
vn -0.5773 -0.5774 -0.5773
vn -0.6507 0.3914 -0.6507
vn -0.3002 0.9054 -0.3002
vn 0.9239 -0.3827 0.0
vn 0.9239 0.3827 0.0
vn 0.3827 0.9239 0.0
vn 0.3827 -0.9239 -0.0
vn -0.7071 -0.7071 0.0
vn -0.9239 0.3827 0.0
vn -0.3827 0.9239 0.0
vn -0.0 -0.9239 -0.3827
vn 0.0 -0.7071 0.7071
vn 0.0 0.3827 0.9239
vn 0.0 0.9239 -0.3827
vn 0.0 0.9239 0.3827
vn -0.0 -0.3827 -0.9239
vn -0.0 -0.9239 -0.3827
vn -0.0 -0.7071 0.7071
vn -0.0 0.3827 0.9239
vn -0.0 0.9239 0.3827
vn -0.0 0.9239 -0.3827
vn -0.0 -0.3827 -0.9239
vn 0.0 0.3827 -0.9239
vn -0.0 0.3827 -0.9239
vn -0.5789 0.5743 -0.5789
vn -0.5789 -0.5743 -0.5789
vn -0.11 0.9878 -0.11
vn -0.11 -0.9878 -0.11
vn 0.5773 -0.5774 0.5773
vn 0.6507 0.3914 0.6507
vn 0.3001 0.9054 0.3001
vn -0.9239 0.3827 0.0
vn -0.9239 -0.3827 0.0
vn -0.9239 -0.3827 -0.0
vn -0.9239 0.3827 -0.0
vn -0.3827 0.9239 -0.0
vn -0.3827 0.9239 -0.0
vn -0.3827 -0.9239 -0.0
vn 0.7071 -0.7071 -0.0
vn 0.9239 0.3827 -0.0
vn 0.3827 0.9239 -0.0
vn 0.7071 -0.7071 -0.0
vn -0.3827 -0.9239 -0.0
vn 0.9239 0.3827 -0.0
vn 0.3827 0.9239 -0.0
vn -0.0 -0.7071 -0.7071
vn -0.0 -0.9239 0.3827
vn 0.0 0.3827 -0.9239
vn 0.0 0.9239 0.3826
vn 0.0 0.9239 -0.3826
vn -0.0 -0.3827 0.9239
vn -0.0 -0.7071 -0.7071
vn -0.0 -0.9239 0.3827
vn -0.0 0.3827 -0.9239
vn -0.0 0.9239 0.3827
vn -0.0 0.9239 -0.3827
vn -0.0 -0.3827 0.9239
vn 0.0 0.3827 0.9239
vn -0.0 0.3827 0.9239
vn -0.5789 -0.5743 0.5789
vn -0.5789 0.5743 0.5789
vn -0.11 0.9878 0.11
vn -0.11 -0.9878 0.11
vn 0.5773 -0.5774 -0.5773
vn 0.6507 0.3914 -0.6507
vn 0.3001 0.9054 -0.3001
vn -0.9239 -0.3827 0.0
vn -0.9239 0.3827 0.0
vn -0.3827 0.9239 0.0
vn 0.7071 -0.7071 0.0
vn -0.3827 -0.9239 0.0
vn 0.9239 0.3827 0.0
vn 0.3827 0.9239 0.0
vtan 1.0 0.0 -0.0
vtan 1.0 -0.0 -0.0
vtan 1.0 -0.0 -0.0
vtan 1.0 0.0 -0.0
vtan 1.0 0.0 -0.0
vtan 1.0 0.0 -0.0
vtan 1.0 0.0 -0.0
vtan 1.0 -0.0 -0.0
vtan 1.0 -0.0 -0.0
vtan 1.0 0.0 -0.0
vtan 1.0 0.0 -0.0
vtan 1.0 0.0 -0.0
vtan 1.0 0.0 -0.0
vtan 1.0 0.0 -0.0
vtan -1.0 -0.0 -0.0
vtan -1.0 -0.0 -0.0
vtan -1.0 0.0 -0.0
vtan -1.0 0.0 -0.0
vtan -1.0 0.0 -0.0
vtan -1.0 0.0 0.0
vtan -1.0 -0.0 -0.0
vtan -1.0 0.0 -0.0
vtan -1.0 0.0 -0.0
vtan -1.0 0.0 -0.0
vtan -1.0 0.0 -0.0
vtan -1.0 0.0 -0.0
vtan -1.0 0.0 0.0
vtan -1.0 0.0 -0.0
vtan 1.0 -0.0 -0.0
vtan 1.0 -0.0 -0.0
vtan -1.0 -0.0 -0.0
vtan -1.0 0.0 -0.0
vtan 1.0 0.0 0.0
vtan 0.8154 0.4077 0.411
vtan 0.8154 -0.4077 0.411
vtan 1.0 -0.0 0.0
vtan 1.0 -0.0 0.0
vtan 0.9939 -0.1094 0.0122
vtan 0.9939 0.1094 0.0122
vtan 1.0 0.0 0.0
vtan 1.0 -0.0 -0.0
vtan 0.8165 -0.4083 0.4082
vtan 1.0 0.0 -0.0
vtan 0.7593 0.3354 0.5576
vtan 1.0 0.0 -0.0
vtan 0.9539 0.2849 0.0944
vtan 1.0 0.0 -0.0
vtan 0.0 -0.0 1.0
vtan 0.0 0.0 1.0
vtan 0.0 -0.0 1.0
vtan 0.0 0.0 1.0
vtan 0.0 0.0 1.0
vtan 0.0 -0.0 1.0
vtan -0.411 -0.4077 -0.8154
vtan -0.411 0.4077 -0.8154
vtan -0.0 -0.0 -1.0
vtan -0.0 0.0 -1.0
vtan -0.0 0.0 -1.0
vtan -0.0122 -0.1094 -0.9939
vtan -0.0122 0.1094 -0.9939
vtan -0.4082 -0.4083 -0.8165
vtan 0.0 -0.0 -1.0
vtan -0.0 0.0 -1.0
vtan -0.5576 0.3354 -0.7593
vtan 0.0 0.0 -1.0
vtan 0.0 0.0 -1.0
vtan -0.0944 0.2849 -0.9539
vtan 0.0 0.0 -1.0
vtan -0.5576 0.3354 -0.7593
vtan 0.0 0.0 1.0
vtan 0.0 -0.0 1.0
vtan 0.0 -0.0 1.0
vtan 0.0 0.0 1.0
vtan -0.0 0.0 1.0
vtan -0.0 0.0 1.0
vtan 0.0 0.0 1.0
vtan 0.0 0.0 1.0
vtan -0.0 0.0 1.0
vtan 1.0 -0.0 0.0
vtan 1.0 -0.0 0.0
vtan 1.0 0.0 0.0
vtan 1.0 0.0 0.0
vtan 1.0 0.0 0.0
vtan 1.0 0.0 0.0
vtan 1.0 -0.0 0.0
vtan 1.0 -0.0 0.0
vtan 1.0 0.0 0.0
vtan 1.0 0.0 0.0
vtan 1.0 0.0 0.0
vtan 1.0 0.0 0.0
vtan 1.0 0.0 0.0
vtan 1.0 0.0 0.0
vtan -1.0 -0.0 0.0
vtan -1.0 -0.0 0.0
vtan -1.0 -0.0 0.0
vtan -1.0 0.0 0.0
vtan -1.0 0.0 -0.0
vtan -1.0 0.0 0.0
vtan -1.0 0.0 0.0
vtan -1.0 0.0 0.0
vtan -1.0 -0.0 0.0
vtan -1.0 0.0 0.0
vtan -1.0 -0.0 0.0
vtan -1.0 0.0 0.0
vtan -1.0 0.0 -0.0
vtan -1.0 0.0 0.0
vtan 1.0 -0.0 0.0
vtan 1.0 -0.0 0.0
vtan -1.0 -0.0 -0.0
vtan -1.0 0.0 0.0
vtan 0.8154 -0.4077 -0.411
vtan 0.8154 0.4077 -0.411
vtan 1.0 -0.0 -0.0
vtan 1.0 0.0 -0.0
vtan 1.0 -0.0 -0.0
vtan 0.9939 -0.1094 -0.0122
vtan 0.9939 0.1094 -0.0122
vtan 0.8165 -0.4083 -0.4082
vtan 1.0 -0.0 0.0
vtan 1.0 0.0 -0.0
vtan 0.7593 0.3354 -0.5576
vtan 1.0 0.0 0.0
vtan 1.0 0.0 0.0
vtan 0.9539 0.2849 -0.0944
vtan 1.0 0.0 0.0
vtan 0.7593 0.3354 -0.5576
vtan -0.0 -0.0 -1.0
vtan -0.0 0.0 -1.0
vtan 0.0 -0.0 -1.0
vtan 0.0 -0.0 -1.0
vtan 0.0 -0.0 -1.0
vtan 0.0 0.0 -1.0
vtan -0.0 -0.0 1.0
vtan -0.411 0.4077 0.8154
vtan -0.411 -0.4077 0.8154
vtan -0.0 -0.0 1.0
vtan -0.0 -0.0 1.0
vtan -0.0122 -0.1094 0.9939
vtan -0.0122 0.1094 0.9939
vtan -0.0 -0.0 1.0
vtan 0.0 -0.0 1.0
vtan -0.4082 -0.4083 0.8165
vtan 0.0 0.0 1.0
vtan -0.5576 0.3354 0.7593
vtan 0.0 -0.0 1.0
vtan -0.0944 0.2849 0.9539
vtan 0.0 0.0 1.0
vtan 0.0 -0.0 -1.0
vtan 0.0 -0.0 -1.0
vtan 0.0 0.0 -1.0
vtan 0.0 0.0 -1.0
vtan 0.0 0.0 -1.0
vtan -0.0 0.0 -1.0
vtan 0.0 0.0 -1.0
vtan 0.0 -0.0 -1.0
vtan -0.0 0.0 -1.0
vtan 0.0 0.0 -1.0
vtan -1.0 0.0 -0.0
vtan -1.0 0.0 -0.0
vtan -1.0 -0.0 -0.0
vtan -1.0 -0.0 -0.0
vtan -1.0 0.0 -0.0
vtan -1.0 0.0 -0.0
vtan -1.0 -0.0 -0.0
vtan -1.0 -0.0 -0.0
vtan -1.0 0.0 -0.0
vtan -1.0 0.0 -0.0
vtan -1.0 0.0 -0.0
vtan -1.0 0.0 -0.0
vtan -1.0 0.0 -0.0
vtan -1.0 0.0 -0.0
vtan 1.0 0.0 -0.0
vtan 1.0 -0.0 -0.0
vtan 1.0 -0.0 -0.0
vtan 1.0 0.0 -0.0
vtan 1.0 0.0 0.0
vtan 1.0 0.0 -0.0
vtan 1.0 0.0 -0.0
vtan 1.0 0.0 -0.0
vtan 1.0 -0.0 -0.0
vtan 1.0 0.0 -0.0
vtan 1.0 -0.0 -0.0
vtan 1.0 0.0 -0.0
vtan 1.0 0.0 0.0
vtan 1.0 0.0 -0.0
vtan -1.0 -0.0 -0.0
vtan -1.0 -0.0 -0.0
vtan 1.0 -0.0 -0.0
vtan 1.0 0.0 -0.0
vtan -0.8154 -0.4077 0.411
vtan -0.8154 0.4077 0.411
vtan -1.0 -0.0 0.0
vtan -1.0 0.0 0.0
vtan -1.0 -0.0 0.0
vtan -0.9939 -0.1094 0.0122
vtan -0.9939 0.1094 0.0122
vtan -0.8165 -0.4083 0.4082
vtan -1.0 -0.0 -0.0
vtan -1.0 0.0 0.0
vtan -0.7593 0.3354 0.5576
vtan -1.0 0.0 -0.0
vtan -1.0 0.0 -0.0
vtan -0.9539 0.2849 0.0944
vtan -1.0 0.0 -0.0
vtan -0.7593 0.3354 0.5576
vtan 0.0 0.0 1.0
vtan -0.0 -0.0 1.0
vtan -0.0 0.0 1.0
vtan -0.0 -0.0 1.0
vtan -0.0 -0.0 1.0
vtan 0.0 -0.0 -1.0
vtan 0.411 0.4077 -0.8154
vtan 0.4109 -0.4077 -0.8154
vtan 0.0 0.0 -1.0
vtan 0.0 -0.0 -1.0
vtan 0.0122 -0.1094 -0.9939
vtan 0.0122 0.1094 -0.9939
vtan 0.0 0.0 -1.0
vtan -0.0 -0.0 -1.0
vtan 0.4082 -0.4083 -0.8165
vtan -0.0 0.0 -1.0
vtan 0.5576 0.3354 -0.7593
vtan -0.0 0.0 -1.0
vtan 0.0944 0.2849 -0.9539
vtan -0.0 0.0 -1.0
vtan 0.5576 0.3354 -0.7593
vtan 0.0 -0.0 1.0
vtan 0.0 -0.0 1.0
vtan -0.0 -0.0 1.0
vtan -0.0 0.0 1.0
vtan 0.0 0.0 1.0
vtan 0.0 0.0 1.0
vtan -0.0 0.0 1.0
vtan -0.0 0.0 1.0
vtan 0.0 0.0 1.0
vtan 0.0 0.0 1.0
vtan -1.0 0.0 0.0
vtan -1.0 -0.0 0.0
vtan -1.0 -0.0 0.0
vtan -1.0 0.0 0.0
vtan -1.0 0.0 0.0
vtan -1.0 0.0 0.0
vtan -1.0 0.0 0.0
vtan -1.0 -0.0 0.0
vtan -1.0 -0.0 0.0
vtan -1.0 0.0 0.0
vtan -1.0 0.0 0.0
vtan -1.0 0.0 0.0
vtan -1.0 0.0 0.0
vtan 1.0 -0.0 0.0
vtan 1.0 -0.0 0.0
vtan 1.0 0.0 0.0
vtan 1.0 0.0 0.0
vtan 1.0 0.0 0.0
vtan 1.0 0.0 -0.0
vtan 1.0 -0.0 0.0
vtan 1.0 0.0 0.0
vtan 1.0 0.0 0.0
vtan 1.0 0.0 0.0
vtan 1.0 -0.0 0.0
vtan 1.0 0.0 0.0
vtan 1.0 0.0 -0.0
vtan 1.0 0.0 0.0
vtan -1.0 -0.0 0.0
vtan -1.0 -0.0 0.0
vtan 1.0 -0.0 -0.0
vtan 1.0 0.0 0.0
vtan -1.0 -0.0 -0.0
vtan -0.8154 0.4077 -0.411
vtan -0.8154 -0.4077 -0.411
vtan -1.0 0.0 -0.0
vtan -1.0 -0.0 -0.0
vtan -0.9939 -0.1094 -0.0122
vtan -0.9939 0.1094 -0.0122
vtan -1.0 0.0 -0.0
vtan -1.0 -0.0 0.0
vtan -0.8165 -0.4083 -0.4082
vtan -1.0 0.0 0.0
vtan -0.7593 0.3354 -0.5576
vtan -1.0 0.0 0.0
vtan -0.9539 0.2849 -0.0944
vtan -1.0 0.0 0.0
vtan -0.7593 0.3354 -0.5576
vtan -0.0 -0.0 -1.0
vtan 0.0 0.0 -1.0
vtan -0.0 0.0 -1.0
vtan -0.0 -0.0 -1.0
vtan -0.0 0.0 -1.0
vtan 0.411 -0.4077 0.8154
vtan 0.411 0.4077 0.8154
vtan 0.0 -0.0 1.0
vtan 0.0 -0.0 1.0
vtan 0.0 -0.0 1.0
vtan 0.0122 -0.1094 0.9939
vtan 0.0122 0.1094 0.9939
vtan 0.4082 -0.4083 0.8165
vtan -0.0 -0.0 1.0
vtan 0.0 -0.0 1.0
vtan 0.5576 0.3354 0.7593
vtan -0.0 0.0 1.0
vtan -0.0 -0.0 1.0
vtan 0.0944 0.2849 0.9539
vtan -0.0 0.0 1.0
vtan -0.0 0.0 -1.0
vtan -0.0 -0.0 -1.0
vtan -0.0 -0.0 -1.0
vtan 0.0 0.0 -1.0
vtan 0.0 0.0 -1.0
vtan -0.0 0.0 -1.0
vtan -0.0 0.0 -1.0
vtan -0.0 0.0 -1.0
vtan 0.0 0.0 -1.0
vtan -0.0 0.0 -1.0
f 0/0/0/0 1/1/1/1 2/2/2/2 
f 0/0/0/0 2/2/2/2 3/3/3/3 
f 1/1/1/1 4/4/4/4 5/5/5/5 
f 1/1/1/1 5/5/5/5 2/2/2/2 
f 6/6/6/6 7/7/7/7 8/8/8/8 
f 6/6/6/6 8/8/8/8 9/9/9/9 
f 10/10/10/10 0/0/0/0 3/3/3/3 
f 10/10/10/10 3/3/3/3 11/11/11/11 
f 4/12/4/12 6/6/6/6 9/9/9/9 
f 4/12/4/12 9/9/9/9 5/13/5/13 
f 2/2/2/14 12/14/12/15 13/15/13/16 
f 2/2/2/14 13/15/13/16 3/3/3/17 
f 5/5/5/18 14/16/14/19 12/14/12/15 
f 5/5/5/18 12/14/12/15 2/2/2/14 
f 8/8/8/20 15/17/15/21 16/18/16/22 
f 8/8/8/20 16/18/16/22 9/9/9/23 
f 3/3/3/17 13/15/13/16 17/19/17/24 
f 3/3/3/17 17/19/17/24 11/11/11/25 
f 9/9/9/23 16/18/16/22 14/20/14/26 
f 9/9/9/23 14/20/14/26 5/13/5/27 
f 11/11/11/11 18/21/18/28 19/22/19/29 
f 11/11/11/11 19/22/19/29 10/10/10/10 
f 18/21/18/28 8/8/8/8 7/7/7/7 
f 18/21/18/28 7/7/7/7 19/22/19/29 
f 18/21/18/30 11/11/11/25 17/19/17/24 
f 18/21/18/30 17/19/17/24 20/23/20/31 
f 8/8/8/20 18/21/18/30 20/23/20/31 
f 8/8/8/20 20/23/20/31 15/17/15/21 
f 17/19/17/32 21/24/21/33 22/25/22/34 
f 17/19/17/32 22/25/22/34 20/23/20/35 
f 15/17/15/36 20/23/20/35 22/25/22/34 
f 15/17/15/36 22/25/22/34 23/26/23/37 
f 24/27/24/38 13/15/13/39 12/14/12/40 
f 24/27/24/38 12/14/12/40 25/28/25/41 
f 12/14/12/40 14/16/14/42 26/29/26/43 
f 12/14/12/40 26/29/26/43 25/28/25/41 
f 16/18/16/44 15/17/15/36 23/26/23/37 
f 16/18/16/44 23/26/23/37 27/30/27/45 
f 21/24/21/33 17/19/17/32 13/15/13/39 
f 21/24/21/33 13/15/13/39 24/27/24/38 
f 14/20/14/46 16/18/16/44 27/30/27/45 
f 14/20/14/46 27/30/27/45 26/31/26/43 
f 28/19/28/47 29/32/29/48 30/33/30/49 
f 28/19/28/47 30/33/30/49 31/23/31/50 
f 31/23/31/50 30/33/30/49 32/34/32/51 
f 31/23/31/50 32/34/32/51 33/17/33/52 
f 22/25/22/53 21/24/21/54 28/19/28/55 
f 22/25/22/53 28/19/28/55 31/23/31/56 
f 33/17/33/57 23/26/23/58 22/25/22/53 
f 33/17/33/57 22/25/22/53 31/23/31/56 
f 24/27/24/59 25/28/25/60 34/14/34/61 
f 24/27/24/59 34/14/34/61 35/15/35/62 
f 26/29/26/63 36/16/36/64 34/14/34/61 
f 26/29/26/63 34/14/34/61 25/28/25/60 
f 23/26/23/58 33/17/33/57 37/18/37/65 
f 23/26/23/58 37/18/37/65 27/30/27/66 
f 21/24/21/54 24/27/24/59 35/15/35/62 
f 21/24/21/54 35/15/35/62 28/19/28/55 
f 27/30/27/66 37/18/37/65 36/20/36/67 
f 27/30/27/66 36/20/36/67 26/31/26/68 
f 35/15/35/69 34/14/34/70 38/35/38/71 
f 35/15/35/69 38/35/38/71 39/36/39/72 
f 34/14/34/70 36/16/36/73 40/37/40/74 
f 34/14/34/70 40/37/40/74 38/35/38/71 
f 37/18/37/75 33/17/33/52 32/34/32/51 
f 37/18/37/75 32/34/32/51 41/38/41/76 
f 28/19/28/47 35/15/35/69 39/36/39/72 
f 28/19/28/47 39/36/39/72 29/32/29/48 
f 36/20/36/77 37/18/37/75 41/38/41/76 
f 36/20/36/77 41/38/41/76 40/39/40/74 
f 42/2/42/78 43/1/43/79 44/0/44/80 
f 42/2/42/78 44/0/44/80 45/3/45/81 
f 46/5/46/82 47/4/47/83 43/1/43/79 
f 46/5/46/82 43/1/43/79 42/2/42/78 
f 48/8/48/84 49/7/49/85 50/6/50/86 
f 48/8/48/84 50/6/50/86 51/9/51/87 
f 45/3/45/81 44/0/44/80 52/10/52/88 
f 45/3/45/81 52/10/52/88 53/11/53/89 
f 51/9/51/87 50/6/50/86 47/12/47/90 
f 51/9/51/87 47/12/47/90 46/13/46/91 
f 54/15/54/92 55/14/55/93 42/2/42/94 
f 54/15/54/92 42/2/42/94 45/3/45/95 
f 55/14/55/93 56/16/56/96 46/5/46/97 
f 55/14/55/93 46/5/46/97 42/2/42/94 
f 57/18/57/98 58/17/58/99 48/8/48/100 
f 57/18/57/98 48/8/48/100 51/9/51/101 
f 59/19/59/102 54/15/54/92 45/3/45/95 
f 59/19/59/102 45/3/45/95 53/11/53/103 
f 56/20/56/104 57/18/57/98 51/9/51/101 
f 56/20/56/104 51/9/51/101 46/13/46/105 
f 60/22/60/106 61/21/61/107 53/11/53/89 
f 60/22/60/106 53/11/53/89 52/10/52/88 
f 49/7/49/85 48/8/48/84 61/21/61/107 
f 49/7/49/85 61/21/61/107 60/22/60/106 
f 59/19/59/102 53/11/53/103 61/21/61/108 
f 59/19/59/102 61/21/61/108 62/23/62/109 
f 62/23/62/109 61/21/61/108 48/8/48/100 
f 62/23/62/109 48/8/48/100 58/17/58/99 
f 63/25/63/110 64/24/64/111 59/19/59/112 
f 63/25/63/110 59/19/59/112 62/23/62/113 
f 58/17/58/114 65/26/65/115 63/25/63/110 
f 58/17/58/114 63/25/63/110 62/23/62/113 
f 66/27/66/116 67/28/67/117 55/14/55/118 
f 66/27/66/116 55/14/55/118 54/15/54/119 
f 68/29/68/120 56/16/56/121 55/14/55/118 
f 68/29/68/120 55/14/55/118 67/28/67/117 
f 65/26/65/115 58/17/58/114 57/18/57/122 
f 65/26/65/115 57/18/57/122 69/30/69/123 
f 64/24/64/111 66/27/66/116 54/15/54/119 
f 64/24/64/111 54/15/54/119 59/19/59/112 
f 69/30/69/123 57/18/57/122 56/20/56/124 
f 69/30/69/123 56/20/56/124 68/31/68/125 
f 30/33/30/126 29/32/29/127 70/19/70/128 
f 30/33/30/126 70/19/70/128 71/23/71/129 
f 32/34/32/130 30/33/30/126 71/23/71/129 
f 32/34/32/130 71/23/71/129 72/17/72/131 
f 70/19/70/132 64/24/64/133 63/25/63/134 
f 70/19/70/132 63/25/63/134 71/23/71/135 
f 72/17/72/136 71/23/71/135 63/25/63/134 
f 72/17/72/136 63/25/63/134 65/26/65/137 
f 66/27/66/138 73/15/73/139 74/14/74/140 
f 66/27/66/138 74/14/74/140 67/28/67/141 
f 74/14/74/140 75/16/75/142 68/29/68/143 
f 74/14/74/140 68/29/68/143 67/28/67/141 
f 76/18/76/144 72/17/72/136 65/26/65/137 
f 76/18/76/144 65/26/65/137 69/30/69/145 
f 64/24/64/133 70/19/70/132 73/15/73/139 
f 64/24/64/133 73/15/73/139 66/27/66/138 
f 75/20/75/146 76/18/76/144 69/30/69/145 
f 75/20/75/146 69/30/69/145 68/31/68/143 
f 38/35/38/147 74/14/74/148 73/15/73/149 
f 38/35/38/147 73/15/73/149 39/36/39/150 
f 40/37/40/151 75/16/75/152 74/14/74/148 
f 40/37/40/151 74/14/74/148 38/35/38/147 
f 32/34/32/130 72/17/72/131 76/18/76/153 
f 32/34/32/130 76/18/76/153 41/38/41/154 
f 39/36/39/150 73/15/73/149 70/19/70/128 
f 39/36/39/150 70/19/70/128 29/32/29/127 
f 41/38/41/154 76/18/76/153 75/20/75/155 
f 41/38/41/154 75/20/75/155 40/39/40/156 
f 0/0/0/157 78/3/77/158 77/2/78/159 
f 0/0/0/157 77/2/78/159 1/1/1/160 
f 79/5/79/161 4/4/4/162 1/1/1/160 
f 79/5/79/161 1/1/1/160 77/2/78/159 
f 80/8/80/163 7/7/7/164 6/6/6/165 
f 80/8/80/163 6/6/6/165 81/9/81/166 
f 78/3/77/158 0/0/0/157 10/10/10/167 
f 78/3/77/158 10/10/10/167 82/11/82/168 
f 81/9/81/166 6/6/6/165 4/12/4/169 
f 81/9/81/166 4/12/4/169 79/13/79/170 
f 83/15/83/171 84/14/84/172 77/2/78/173 
f 83/15/83/171 77/2/78/173 78/3/77/174 
f 84/14/84/172 85/16/85/175 79/5/79/176 
f 84/14/84/172 79/5/79/176 77/2/78/173 
f 86/18/86/177 87/17/87/178 80/8/80/179 
f 86/18/86/177 80/8/80/179 81/9/81/180 
f 88/19/88/181 83/15/83/171 78/3/77/174 
f 88/19/88/181 78/3/77/174 82/11/82/182 
f 85/20/85/183 86/18/86/177 81/9/81/180 
f 85/20/85/183 81/9/81/180 79/13/79/184 
f 19/22/19/185 89/21/89/186 82/11/82/168 
f 19/22/19/185 82/11/82/168 10/10/10/167 
f 7/7/7/164 80/8/80/163 89/21/89/186 
f 7/7/7/164 89/21/89/186 19/22/19/185 
f 88/19/88/181 82/11/82/182 89/21/89/187 
f 88/19/88/181 89/21/89/187 90/23/90/188 
f 90/23/90/188 89/21/89/187 80/8/80/179 
f 90/23/90/188 80/8/80/179 87/17/87/178 
f 91/25/91/189 92/24/92/190 88/19/88/191 
f 91/25/91/189 88/19/88/191 90/23/90/192 
f 87/17/87/193 93/26/93/194 91/25/91/189 
f 87/17/87/193 91/25/91/189 90/23/90/192 
f 94/27/94/195 95/28/95/196 84/14/84/197 
f 94/27/94/195 84/14/84/197 83/15/83/198 
f 96/29/96/199 85/16/85/200 84/14/84/197 
f 96/29/96/199 84/14/84/197 95/28/95/196 
f 93/26/93/194 87/17/87/193 86/18/86/201 
f 93/26/93/194 86/18/86/201 97/30/97/202 
f 92/24/92/190 94/27/94/195 83/15/83/198 
f 92/24/92/190 83/15/83/198 88/19/88/191 
f 97/30/97/202 86/18/86/201 85/20/85/203 
f 97/30/97/202 85/20/85/203 96/31/96/204 
f 98/33/98/205 99/32/99/205 100/19/100/206 
f 98/33/98/205 100/19/100/206 101/23/101/207 
f 102/34/102/208 98/33/98/205 101/23/101/207 
f 102/34/102/208 101/23/101/207 103/17/103/209 
f 100/19/100/210 92/24/92/211 91/25/91/212 
f 100/19/100/210 91/25/91/212 101/23/101/213 
f 103/17/103/214 101/23/101/213 91/25/91/212 
f 103/17/103/214 91/25/91/212 93/26/93/215 
f 94/27/94/216 104/15/104/217 105/14/105/218 
f 94/27/94/216 105/14/105/218 95/28/95/219 
f 105/14/105/218 106/16/106/220 96/29/96/221 
f 105/14/105/218 96/29/96/221 95/28/95/219 
f 107/18/107/222 103/17/103/214 93/26/93/215 
f 107/18/107/222 93/26/93/215 97/30/97/223 
f 92/24/92/211 100/19/100/210 104/15/104/217 
f 92/24/92/211 104/15/104/217 94/27/94/216 
f 106/20/106/224 107/18/107/222 97/30/97/223 
f 106/20/106/224 97/30/97/223 96/31/96/225 
f 108/35/108/226 105/14/105/227 104/15/104/228 
f 108/35/108/226 104/15/104/228 109/36/109/229 
f 110/37/110/230 106/16/106/231 105/14/105/227 
f 110/37/110/230 105/14/105/227 108/35/108/226 
f 102/34/102/208 103/17/103/209 107/18/107/232 
f 102/34/102/208 107/18/107/232 111/38/111/233 
f 109/36/109/229 104/15/104/228 100/19/100/206 
f 109/36/109/229 100/19/100/206 99/32/99/205 
f 111/38/111/233 107/18/107/232 106/20/106/234 
f 111/38/111/233 106/20/106/234 110/39/110/235 
f 44/0/44/236 43/1/43/237 112/2/112/238 
f 44/0/44/236 112/2/112/238 113/3/113/239 
f 43/1/43/237 47/4/47/240 114/5/114/241 
f 43/1/43/237 114/5/114/241 112/2/112/238 
f 50/6/50/242 49/7/49/243 115/8/115/244 
f 50/6/50/242 115/8/115/244 116/9/116/245 
f 52/10/52/246 44/0/44/236 113/3/113/239 
f 52/10/52/246 113/3/113/239 117/11/117/247 
f 47/12/47/248 50/6/50/242 116/9/116/245 
f 47/12/47/248 116/9/116/245 114/13/114/241 
f 112/2/112/249 118/14/118/250 119/15/119/251 
f 112/2/112/249 119/15/119/251 113/3/113/252 
f 114/5/114/253 120/16/120/254 118/14/118/250 
f 114/5/114/253 118/14/118/250 112/2/112/249 
f 115/8/115/255 121/17/121/256 122/18/122/257 
f 115/8/115/255 122/18/122/257 116/9/116/258 
f 113/3/113/252 119/15/119/251 123/19/123/259 
f 113/3/113/252 123/19/123/259 117/11/117/260 
f 116/9/116/258 122/18/122/257 120/20/120/261 
f 116/9/116/258 120/20/120/261 114/13/114/262 
f 117/11/117/247 124/21/124/263 60/22/60/264 
f 117/11/117/247 60/22/60/264 52/10/52/246 
f 124/21/124/263 115/8/115/244 49/7/49/243 
f 124/21/124/263 49/7/49/243 60/22/60/264 
f 124/21/124/265 117/11/117/260 123/19/123/259 
f 124/21/124/265 123/19/123/259 125/23/125/266 
f 115/8/115/255 124/21/124/265 125/23/125/266 
f 115/8/115/255 125/23/125/266 121/17/121/256 
f 123/19/123/267 126/24/126/268 127/25/127/269 
f 123/19/123/267 127/25/127/269 125/23/125/270 
f 121/17/121/271 125/23/125/270 127/25/127/269 
f 121/17/121/271 127/25/127/269 128/26/128/272 
f 129/27/129/273 119/15/119/274 118/14/118/275 
f 129/27/129/273 118/14/118/275 130/28/130/276 
f 118/14/118/275 120/16/120/277 131/29/131/278 
f 118/14/118/275 131/29/131/278 130/28/130/276 
f 122/18/122/279 121/17/121/271 128/26/128/272 
f 122/18/122/279 128/26/128/272 132/30/132/280 
f 126/24/126/268 123/19/123/267 119/15/119/274 
f 126/24/126/268 119/15/119/274 129/27/129/273 
f 120/20/120/281 122/18/122/279 132/30/132/280 
f 120/20/120/281 132/30/132/280 131/31/131/282 
f 133/19/133/283 99/32/99/284 98/33/98/284 
f 133/19/133/283 98/33/98/284 134/23/134/285 
f 134/23/134/285 98/33/98/284 102/34/102/286 
f 134/23/134/285 102/34/102/286 135/17/135/287 
f 127/25/127/288 126/24/126/289 133/19/133/290 
f 127/25/127/288 133/19/133/290 134/23/134/291 
f 135/17/135/292 128/26/128/293 127/25/127/288 
f 135/17/135/292 127/25/127/288 134/23/134/291 
f 129/27/129/294 130/28/130/295 136/14/136/296 
f 129/27/129/294 136/14/136/296 137/15/137/297 
f 131/29/131/298 138/16/138/299 136/14/136/296 
f 131/29/131/298 136/14/136/296 130/28/130/295 
f 128/26/128/293 135/17/135/292 139/18/139/300 
f 128/26/128/293 139/18/139/300 132/30/132/301 
f 126/24/126/289 129/27/129/294 137/15/137/297 
f 126/24/126/289 137/15/137/297 133/19/133/290 
f 132/30/132/301 139/18/139/300 138/20/138/302 
f 132/30/132/301 138/20/138/302 131/31/131/298 
f 137/15/137/303 136/14/136/304 108/35/108/305 
f 137/15/137/303 108/35/108/305 109/36/109/306 
f 136/14/136/304 138/16/138/307 110/37/110/308 
f 136/14/136/304 110/37/110/308 108/35/108/305 
f 139/18/139/309 135/17/135/287 102/34/102/286 
f 139/18/139/309 102/34/102/286 111/38/111/310 
f 133/19/133/283 137/15/137/303 109/36/109/306 
f 133/19/133/283 109/36/109/306 99/32/99/284 
f 138/20/138/311 139/18/139/309 111/38/111/310 
f 138/20/138/311 111/38/111/310 110/39/110/312 
