v -618.9843 213.5821 157.3464
v -617.647 214.3547 157.295
v -617.2977 214.0301 170.4485
v -618.9843 213.0564 170.4394
v -617.647 215.8999 157.1922
v -617.2977 215.9776 170.4667
v -618.9843 216.6725 157.1408
v -618.9843 216.9513 170.4758
v -620.3216 215.8999 157.1922
v -620.6709 215.9776 170.4667
v -620.3216 214.3547 157.295
v -620.6709 214.0301 170.4485
v -618.9843 213.4458 156.3942
v -617.647 214.2085 156.2741
v -617.647 215.7341 156.0338
v -618.9843 216.4968 155.9136
v -620.3216 215.7341 156.0338
v -620.3216 214.2085 156.2741
v -618.9843 213.272 155.3836
v -617.647 214.0292 155.2309
v -617.647 215.5435 154.9256
v -618.9843 216.3007 154.7729
v -620.3216 215.5435 154.9256
v -620.3216 214.0292 155.2309
v -618.9843 213.0548 154.4459
v -617.647 213.7992 154.2382
v -617.647 215.288 153.8228
v -618.9843 216.0324 153.615
v -620.3216 215.288 153.8228
v -620.3216 213.7992 154.2382
v -618.9843 212.776 153.5948
v -617.647 213.495 153.3097
v -617.647 214.9332 152.7396
v -618.9843 215.6523 152.4545
v -620.3216 214.9332 152.7396
v -620.3216 213.495 153.3097
v -618.9843 212.4206 152.8366
v -617.647 213.0948 152.4556
v -617.647 214.4431 151.6938
v -618.9843 215.1172 151.3129
v -620.3216 214.4431 151.6938
v -620.3216 213.0948 152.4556
v -618.9843 211.9713 152.1661
v -617.647 212.5752 151.6804
v -617.647 213.7831 150.7089
v -618.9843 214.387 150.2232
v -620.3216 213.7831 150.7089
v -620.3216 212.5752 151.6804
v -618.9843 211.3319 151.499
v -617.647 211.8739 150.9487
v -617.647 212.9579 149.8481
v -618.9843 213.4999 149.2978
v -620.3216 212.9579 149.8481
v -620.3216 211.8739 150.9487
v -618.9843 210.4486 150.6776
v -617.647 210.9995 150.1357
v -617.647 212.1015 149.0518
v -618.9843 212.6525 148.5099
v -620.3216 212.1015 149.0518
v -620.3216 210.9995 150.1357
v -618.9843 209.5027 149.6261
v -617.647 210.1099 149.1466
v -617.647 211.3242 148.1876
v -618.9843 211.9314 147.7081
v -620.3216 211.3242 148.1876
v -620.3216 210.1099 149.1466
v -618.9843 208.6371 148.3726
v -617.647 209.3088 147.9866
v -617.647 210.6522 147.2145
v -618.9843 211.3239 146.8285
v -620.3216 210.6522 147.2145
v -620.3216 209.3088 147.9866
v -618.9843 207.9437 146.8953
v -617.647 208.6748 146.6357
v -617.647 210.1369 146.1166
v -618.9843 210.868 145.8571
v -620.3216 210.1369 146.1166
v -620.3216 208.6748 146.6357
v -618.9843 207.5206 145.1916
v -617.647 208.2894 145.0838
v -617.647 209.8269 144.8684
v -618.9843 210.5957 144.7607
v -620.3216 209.8269 144.8684
v -620.3216 208.2894 145.0838
v -618.9843 207.4537 143.2814
v -617.647 208.228 143.3319
v -617.647 209.7767 143.433
v -618.9843 210.551 143.4835
v -620.3216 209.7767 143.433
v -620.3216 208.228 143.3319
v -618.9843 207.7999 141.2067
v -617.647 208.5517 141.392
v -617.647 210.0554 141.7625
v -618.9843 210.8073 141.9478
v -620.3216 210.0554 141.7625
v -620.3216 208.5517 141.392
v -618.9843 208.4208 139.3195
v -617.647 209.134 139.6223
v -617.647 210.5604 140.2278
v -618.9843 211.2736 140.5305
v -620.3216 210.5604 140.2278
v -620.3216 209.134 139.6223
v -618.9843 209.1858 137.868
v -617.647 209.8264 138.3086
v -617.647 211.1074 139.1898
v -618.9843 211.748 139.6304
v -620.3216 211.1074 139.1898
v -620.3216 209.8264 138.3086
v -618.9843 210.1376 136.7829
v -617.647 210.6438 137.3766
v -617.647 211.6562 138.5642
v -618.9843 212.1624 139.158
v -620.3216 211.6562 138.5642
v -620.3216 210.6438 137.3766
v -618.9843 211.2601 136.1862
v -617.7204 211.5614 136.8587
v -617.7203 212.1639 138.2038
v -618.9843 212.4651 138.8763
v -620.2482 212.1639 138.2038
v -620.2482 211.5614 136.8587
v -618.9843 212.312 135.4051
v -617.3365 212.4839 136.3457
v -617.3365 212.8275 138.2269
v -618.9843 212.9994 139.1675
v -620.6321 212.8275 138.2269
v -620.6321 212.4839 136.3457
v -618.9843 213.1934 135.2422
v -617.3106 213.3072 136.2029
v -617.3106 213.5349 138.1245
v -618.9843 213.6488 139.0852
v -620.658 213.5349 138.1245
v -620.658 213.3072 136.2029
v -618.9843 214.3663 135.8034
v -617.734 214.3527 136.5252
v -617.734 214.3255 137.9686
v -618.9843 214.3119 138.6904
v -620.2346 214.3255 137.9686
v -620.2346 214.3527 136.5252
v -619.0442 214.3656 135.838
vt 0.1725 0.8797
vt 0.1731 0.8926
vt 0.0035 0.8872
vt 0.0036 0.871
vt 0.1745 0.9183
vt 0.0033 0.9196
vt 0.1751 0.9311
vt 0.0032 0.9358
vt 0.1848 0.8775
vt 0.1863 0.8901
vt 0.1894 0.9155
vt 0.191 0.9282
vt 0.1978 0.8746
vt 0.1998 0.8872
vt 0.2037 0.9124
vt 0.2057 0.925
vt 0.2099 0.871
vt 0.2126 0.8833
vt 0.2179 0.9081
vt 0.2206 0.9205
vt 0.2209 0.8663
vt 0.2245 0.8783
vt 0.2319 0.9022
vt 0.2356 0.9142
vt 0.2306 0.8604
vt 0.2355 0.8716
vt 0.2454 0.894
vt 0.2503 0.9053
vt 0.2393 0.8529
vt 0.2455 0.863
vt 0.2581 0.8831
vt 0.2643 0.8931
vt 0.2479 0.8423
vt 0.255 0.8513
vt 0.2692 0.8693
vt 0.2763 0.8784
vt 0.2585 0.8276
vt 0.2655 0.8368
vt 0.2794 0.8551
vt 0.2864 0.8643
vt 0.272 0.8119
vt 0.2782 0.822
vt 0.2906 0.8422
vt 0.2968 0.8523
vt 0.2882 0.7975
vt 0.2932 0.8086
vt 0.3031 0.831
vt 0.3081 0.8422
vt 0.3073 0.7859
vt 0.3106 0.7981
vt 0.3173 0.8224
vt 0.3206 0.8346
vt 0.3292 0.7789
vt 0.3306 0.7917
vt 0.3334 0.8173
vt 0.3348 0.83
vt 0.3539 0.7778
vt 0.3532 0.7907
vt 0.3519 0.8164
vt 0.3513 0.8293
vt 0.3806 0.7835
vt 0.3782 0.796
vt 0.3734 0.8211
vt 0.3711 0.8336
vt 0.4049 0.7939
vt 0.401 0.8057
vt 0.3932 0.8295
vt 0.3893 0.8413
vt 0.4237 0.8066
vt 0.418 0.8172
vt 0.4066 0.8386
vt 0.4009 0.8492
vt 0.4377 0.8224
vt 0.43 0.8308
vt 0.4147 0.8477
vt 0.407 0.8561
vt 0.4454 0.8411
vt 0.4367 0.8461
vt 0.4193 0.8561
vt 0.4107 0.8611
vt 0.4554 0.8586
vt 0.4433 0.8615
vt 0.419 0.8672
vt 0.4069 0.87
vt 0.4575 0.8733
vt 0.4451 0.8752
vt 0.4204 0.8789
vt 0.408 0.8808
vt 0.4497 0.8991
vt 0.441 0.8925
vt 0.4224 0.8921
vt 0.4125 0.8982
vt 0.4492 0.8991
vn 0.0 -0.9987 0.0506
vn 0.8767 -0.4807 0.0165
vn 0.8653 -0.5 -0.0353
vn 0.0 -0.9992 -0.0401
vn 0.8556 0.5153 -0.0494
vn 0.8657 0.5 -0.0258
vn 0.0 0.9967 -0.0812
vn 0.0 0.9998 -0.021
vn -0.8558 0.515 -0.0494
vn -0.8657 0.4999 -0.0258
vn -0.8768 -0.4807 0.0164
vn -0.8654 -0.4998 -0.0353
vn -0.0 -0.9878 0.1556
vn 0.8679 -0.4906 0.0773
vn 0.8641 0.4972 -0.0783
vn 0.0 0.9878 -0.1556
vn -0.8641 0.4972 -0.0783
vn -0.868 -0.4906 0.0773
vn -0.0 -0.9803 0.1977
vn 0.87 -0.4833 0.0974
vn 0.8621 0.4967 -0.1002
vn 0.0 0.9803 -0.1977
vn -0.8621 0.4967 -0.1002
vn -0.87 -0.4833 0.0974
vn -0.0 -0.9632 0.2688
vn 0.8722 -0.4711 0.1314
vn 0.86 0.4915 -0.1371
vn 0.0 0.9632 -0.2688
vn -0.86 0.4915 -0.1371
vn -0.8722 -0.4711 0.1314
vn -0.0 -0.9296 0.3686
vn 0.8746 -0.4508 0.1787
vn 0.8579 0.4777 -0.1894
vn -0.0 0.9296 -0.3685
vn -0.8579 0.4777 -0.1894
vn -0.8746 -0.4508 0.1787
vn -0.0 -0.8706 0.492
vn 0.8768 -0.4186 0.2365
vn 0.8559 0.4503 -0.2544
vn -0.0 0.8706 -0.492
vn -0.8559 0.4503 -0.2544
vn -0.8768 -0.4186 0.2366
vn 0.0 -0.7793 0.6267
vn 0.8783 -0.3725 0.2996
vn 0.8545 0.4048 -0.3256
vn 0.0 0.7792 -0.6267
vn -0.8545 0.4048 -0.3256
vn -0.8784 -0.3725 0.2996
vn -0.0 -0.7017 0.7124
vn 0.87 -0.346 0.3512
vn 0.8621 0.3556 -0.361
vn -0.0 0.7017 -0.7125
vn -0.8621 0.3556 -0.361
vn -0.87 -0.3459 0.3512
vn -0.0 -0.7129 0.7012
vn 0.86 -0.3638 0.3579
vn 0.8723 0.3486 -0.3429
vn 0.0 0.7129 -0.7012
vn -0.8723 0.3486 -0.3429
vn -0.86 -0.3638 0.3579
vn -0.0 -0.7848 0.6198
vn 0.8574 -0.4039 0.3189
vn 0.875 0.3799 -0.3
vn -0.0 0.7848 -0.6198
vn -0.8751 0.3799 -0.3
vn -0.8574 -0.4038 0.3189
vn -0.0 -0.867 0.4983
vn 0.855 -0.4496 0.2584
vn 0.8778 0.4154 -0.2387
vn -0.0 0.867 -0.4983
vn -0.8778 0.4154 -0.2387
vn -0.855 -0.4496 0.2584
vn -0.0 -0.9424 0.3346
vn 0.8531 -0.4916 0.1745
vn 0.8799 0.4477 -0.1589
vn -0.0 0.9424 -0.3346
vn -0.8799 0.4477 -0.1589
vn -0.8531 -0.4916 0.1745
vn -0.0 -0.9903 0.1388
vn 0.8523 -0.518 0.0726
vn 0.8809 0.4687 -0.0657
vn 0.0 0.9903 -0.1388
vn -0.8809 0.4688 -0.0657
vn -0.8523 -0.5179 0.0726
vn 0.0 -0.9979 -0.0651
vn 0.8528 -0.5211 -0.034
vn 0.8803 0.4734 0.0309
vn -0.0 0.9979 0.0651
vn -0.8803 0.4734 0.0309
vn -0.8528 -0.5211 -0.034
vn -0.0 -0.971 -0.2393
vn 0.8558 -0.5022 -0.1238
vn 0.8768 0.4669 0.115
vn 0.0 0.9709 0.2393
vn -0.8768 0.4669 0.115
vn -0.8559 -0.5022 -0.1237
vn -0.0 -0.9205 -0.3908
vn 0.8549 -0.4775 -0.2027
vn 0.8779 0.4408 0.1871
vn -0.0 0.9205 0.3908
vn -0.8779 0.4408 0.1871
vn -0.8549 -0.4775 -0.2027
vn 0.0 -0.8239 -0.5667
vn 0.8507 -0.4331 -0.2979
vn 0.8829 0.3869 0.2662
vn -0.0 0.8239 0.5668
vn -0.8829 0.3869 0.2662
vn -0.8507 -0.4331 -0.2979
vn 0.0 -0.6198 -0.7847
vn 0.8484 -0.3097 -0.4292
vn 0.8831 0.3486 0.314
vn 0.0 0.7051 0.7091
vn -0.8831 0.3485 0.3142
vn -0.8485 -0.3096 -0.4292
vn 0.0 -0.5476 -0.8367
vn 0.8171 -0.3897 -0.4248
vn 0.8793 -0.0707 0.471
vn -0.0 0.1005 0.9949
vn -0.8793 -0.0707 0.471
vn -0.8172 -0.3897 -0.4247
vn -0.0 -0.3987 -0.9171
vn 0.8392 -0.32 -0.4398
vn 0.8381 -0.1757 0.5165
vn -0.0 -0.11 0.9939
vn -0.8381 -0.1757 0.5165
vn -0.8391 -0.32 -0.4398
vn 0.0019 0.113 -0.9936
vn 0.8367 0.1622 -0.5232
vn 0.8597 0.2524 0.4441
vn 0.0 0.2984 0.9545
vn -0.8597 0.2523 0.4441
vn -0.8371 0.1636 -0.5219
vn 0.0003 0.7821 -0.6232
vn 0.5369 0.7848 -0.3095
vn 0.5321 0.7859 0.3149
vn -0.0 0.7852 0.6192
vn -0.5321 0.7859 0.3149
vn -0.5371 0.788 -0.3008
vn -0.2717 0.8488 -0.4535
vtan 0.0845 -0.0504 -0.9951 1.0
vtan 0.0233 0.0084 -0.9997 1.0
vtan -0.0424 -0.003 -0.9991 1.0
vtan -0.069 0.04 -0.9968 1.0
vtan -0.0636 0.01 -0.9979 1.0
vtan -0.0302 0.0007 -0.9995 1.0
vtan -0.1378 -0.0804 -0.9872 1.0
vtan -0.0365 -0.0209 -0.9991 1.0
vtan 0.1376 -0.0805 -0.9872 -1.0
vtan 0.0636 0.0099 -0.9979 -1.0
vtan 0.0303 0.0009 -0.9995 -1.0
vtan 0.0367 -0.021 -0.9991 -1.0
vtan -0.0233 0.0084 -0.9997 -1.0
vtan 0.0425 -0.0031 -0.9991 -1.0
vtan -0.0846 -0.0504 -0.9951 -1.0
vtan 0.0692 0.04 -0.9968 -1.0
vtan 0.2618 -0.1502 -0.9534 1.0
vtan 0.0985 0.0175 -0.995 1.0
vtan -0.1003 0.0175 -0.9948 1.0
vtan -0.2608 -0.1502 -0.9536 1.0
vtan 0.2609 -0.1502 -0.9536 -1.0
vtan 0.1003 0.0176 -0.9948 -1.0
vtan -0.0982 0.0169 -0.995 -1.0
vtan -0.2595 -0.1503 -0.954 -1.0
vtan 0.3275 -0.1868 -0.9262 1.0
vtan 0.1229 0.0212 -0.9922 1.0
vtan -0.128 0.0221 -0.9915 1.0
vtan -0.3279 -0.1867 -0.9261 1.0
vtan 0.3275 -0.1868 -0.9262 -1.0
vtan 0.1278 0.0219 -0.9916 -1.0
vtan -0.1237 0.0226 -0.9921 -1.0
vtan -0.3309 -0.1865 -0.9251 -1.0
vtan 0.4383 -0.2416 -0.8658 1.0
vtan 0.164 0.0285 -0.986 1.0
vtan -0.1737 0.0292 -0.9844 1.0
vtan -0.4334 -0.2422 -0.8681 1.0
vtan 0.4335 -0.2422 -0.868 -1.0
vtan 0.1736 0.029 -0.9844 -1.0
vtan -0.1633 0.0272 -0.9862 -1.0
vtan -0.4343 -0.2421 -0.8676 -1.0
vtan 0.5626 -0.3047 -0.7686 1.0
vtan 0.2149 0.03 -0.9762 1.0
vtan -0.2333 0.0338 -0.9718 1.0
vtan -0.5606 -0.3052 -0.7698 1.0
vtan 0.5609 -0.3051 -0.7696 -1.0
vtan 0.2331 0.0332 -0.9719 -1.0
vtan -0.2156 0.0315 -0.976 -1.0
vtan -0.5644 -0.3042 -0.7674 -1.0
vtan 0.696 -0.3533 -0.6251 1.0
vtan 0.2743 0.0315 -0.9611 1.0
vtan -0.3 0.0316 -0.9534 1.0
vtan -0.6934 -0.3545 -0.6273 1.0
vtan 0.6942 -0.3541 -0.6267 -1.0
vtan 0.3007 0.0331 -0.9531 -1.0
vtan -0.2741 0.031 -0.9612 -1.0
vtan -0.6947 -0.3539 -0.6262 -1.0
vtan 0.8088 -0.3685 -0.4583 1.0
vtan 0.332 0.0245 -0.943 1.0
vtan -0.3671 0.0271 -0.9298 1.0
vtan -0.8106 -0.367 -0.4564 1.0
vtan 0.8088 -0.3686 -0.4583 -1.0
vtan 0.3671 0.0272 -0.9298 -1.0
vtan -0.3323 0.0252 -0.9429 -1.0
vtan -0.8086 -0.3687 -0.4585 -1.0
vtan 0.8686 -0.353 -0.3477 1.0
vtan 0.3815 0.0212 -0.9241 1.0
vtan -0.3935 0.0208 -0.9191 1.0
vtan -0.868 -0.3538 -0.3484 1.0
vtan 0.868 -0.3538 -0.3485 -1.0
vtan 0.3935 0.0208 -0.9191 -1.0
vtan -0.3815 0.0212 -0.9241 -1.0
vtan -0.8686 -0.353 -0.3477 -1.0
vtan 0.8608 -0.3569 -0.3628 1.0
vtan 0.392 0.0218 -0.9197 1.0
vtan -0.3728 0.0203 -0.9277 1.0
vtan -0.8607 -0.357 -0.363 1.0
vtan 0.8606 -0.3571 -0.3631 -1.0
vtan 0.3729 0.0206 -0.9276 -1.0
vtan -0.3919 0.0217 -0.9197 -1.0
vtan -0.8611 -0.3565 -0.3624 -1.0
vtan 0.8051 -0.3676 -0.4654 1.0
vtan 0.3606 0.0293 -0.9323 1.0
vtan -0.3346 0.0268 -0.942 1.0
vtan -0.8054 -0.3673 -0.4651 1.0
vtan 0.805 -0.3677 -0.4655 -1.0
vtan 0.3345 0.0266 -0.942 -1.0
vtan -0.3604 0.0289 -0.9324 -1.0
vtan -0.8061 -0.3667 -0.4644 -1.0
vtan 0.7039 -0.3539 -0.6159 1.0
vtan 0.3062 0.0355 -0.9513 1.0
vtan -0.276 0.031 -0.9607 1.0
vtan -0.7001 -0.3558 -0.6191 1.0
vtan 0.7005 -0.3556 -0.6188 -1.0
vtan 0.2759 0.0309 -0.9607 -1.0
vtan -0.3058 0.0346 -0.9515 -1.0
vtan -0.7022 -0.3548 -0.6173 -1.0
vtan 0.513 -0.2872 -0.8089 1.0
vtan 0.2169 0.0301 -0.9757 1.0
vtan -0.1909 0.0268 -0.9812 1.0
vtan -0.5148 -0.2868 -0.8079 1.0
vtan 0.5161 -0.2866 -0.8072 -1.0
vtan 0.1914 0.0279 -0.9811 -1.0
vtan -0.2175 0.0312 -0.9756 -1.0
vtan -0.5137 -0.287 -0.8085 -1.0
vtan 0.2268 -0.1352 -0.9645 1.0
vtan 0.0943 0.0156 -0.9954 1.0
vtan -0.0824 0.0152 -0.9965 1.0
vtan -0.2324 -0.135 -0.9632 1.0
vtan 0.2272 -0.1351 -0.9644 -1.0
vtan 0.082 0.0145 -0.9965 -1.0
vtan -0.0944 0.0158 -0.9954 -1.0
vtan -0.2264 -0.1352 -0.9646 -1.0
vtan -0.1076 0.0647 -0.9921 1.0
vtan -0.0441 -0.007 -0.999 1.0
vtan 0.0387 -0.0068 -0.9992 1.0
vtan 0.1118 0.0647 -0.9916 1.0
vtan -0.1096 0.0647 -0.9919 -1.0
vtan -0.0386 -0.0065 -0.9992 -1.0
vtan 0.0442 -0.0072 -0.999 -1.0
vtan 0.1074 0.0647 -0.9921 -1.0
vtan -0.3865 0.2207 -0.8955 1.0
vtan -0.158 -0.026 -0.9871 1.0
vtan 0.1429 -0.0246 -0.9894 1.0
vtan 0.3878 0.2206 -0.895 1.0
vtan -0.3865 0.2207 -0.8955 -1.0
vtan -0.1428 -0.0244 -0.9894 -1.0
vtan 0.1576 -0.0254 -0.9872 -1.0
vtan 0.3861 0.2207 -0.8957 -1.0
vtan -0.5878 0.3161 -0.7447 1.0
vtan -0.2487 -0.0343 -0.968 1.0
vtan 0.2231 -0.0306 -0.9743 1.0
vtan 0.5868 0.3164 -0.7454 1.0
vtan -0.5871 0.3163 -0.7452 -1.0
vtan -0.2233 -0.0312 -0.9742 -1.0
vtan 0.2488 -0.0345 -0.9679 -1.0
vtan 0.5887 0.3159 -0.7441 -1.0
vtan -0.7592 0.3689 -0.5362 1.0
vtan -0.3444 -0.031 -0.9383 1.0
vtan 0.2993 -0.0268 -0.9538 1.0
vtan 0.7603 0.3682 -0.5352 1.0
vtan -0.7603 0.3682 -0.5352 -1.0
vtan -0.2993 -0.0268 -0.9538 -1.0
vtan 0.3444 -0.031 -0.9383 -1.0
vtan 0.7592 0.3689 -0.5362 -1.0
vtan -0.9053 0.3334 -0.2634 1.0
vtan -0.4553 -0.0133 -0.8903 1.0
vtan 0.3423 -0.0211 -0.9393 1.0
vtan 0.8672 0.3531 -0.3512 1.0
vtan -0.8672 0.3531 -0.3512 -1.0
vtan -0.3424 -0.021 -0.9393 -1.0
vtan 0.4553 -0.0133 -0.8903 -1.0
vtan 0.9052 0.3334 -0.2634 -1.0
vtan -0.9374 0.2915 -0.1908 1.0
vtan -0.4654 -0.0112 -0.885 1.0
vtan 0.4723 0.0021 -0.8815 1.0
vtan 0.9984 0.0558 -0.0056 1.0
vtan -0.9984 0.0558 -0.0057 -1.0
vtan -0.4723 0.0021 -0.8814 -1.0
vtan 0.4637 -0.0068 -0.8859 -1.0
vtan 0.9397 0.2863 -0.1874 -1.0
vtan -0.9694 0.2252 -0.0979 1.0
vtan -0.4672 -0.0101 -0.8841 1.0
vtan 0.5246 -0.0003 -0.8514 1.0
vtan 0.9982 -0.0588 -0.0065 1.0
vtan -0.9982 -0.0588 -0.0065 -1.0
vtan -0.5246 -0.0003 -0.8514 -1.0
vtan 0.4665 -0.0077 -0.8845 -1.0
vtan 0.971 0.2194 -0.0954 -1.0
vtan -0.9975 -0.0706 -0.01 1.0
vtan -0.5235 -0.0442 -0.8509 1.0
vtan 0.4595 -0.0025 -0.8881 1.0
vtan 0.9734 0.2187 -0.0684 1.0
vtan -0.9734 0.2187 -0.0684 -1.0
vtan -0.4596 -0.0025 -0.8881 -1.0
vtan 0.5223 -0.0446 -0.8516 -1.0
vtan 0.9974 -0.0714 -0.0062 -1.0
vtan 0.1955 -0.6112 -0.767 1.0
vtan -0.3072 -0.1598 -0.9381 1.0
vtan 0.3939 0.0994 -0.9138 1.0
vtan 0.6085 0.4914 -0.6231 1.0
vtan -0.6277 0.4821 -0.6112 -1.0
vtan -0.3989 0.0954 -0.912 -1.0
vtan 0.3017 -0.1536 -0.941 -1.0
vtan 0.7218 -0.132 -0.6794 -1.0
vtan 0.9149 -0.2518 -0.3156 -1.0
vtan 0.5345 -0.2588 -0.8045 1.0
f 0/0/0/0 1/1/1/1 2/2/2/2 
f 0/0/0/0 2/2/2/2 3/3/3/3 
f 1/1/1/1 4/4/4/4 5/5/5/5 
f 1/1/1/1 5/5/5/5 2/2/2/2 
f 4/4/4/4 6/6/6/6 7/7/7/7 
f 4/4/4/4 7/7/7/7 5/5/5/5 
f 6/6/6/8 8/4/8/9 9/5/9/10 
f 6/6/6/8 9/5/9/10 7/7/7/11 
f 9/5/9/10 8/4/8/9 10/1/10/12 
f 9/5/9/10 10/1/10/12 11/2/11/13 
f 10/1/10/12 0/0/0/14 3/3/3/15 
f 10/1/10/12 3/3/3/15 11/2/11/13 
f 0/0/0/0 12/8/12/16 13/9/13/17 
f 0/0/0/0 13/9/13/17 1/1/1/1 
f 1/1/1/1 13/9/13/17 14/10/14/18 
f 1/1/1/1 14/10/14/18 4/4/4/4 
f 4/4/4/4 14/10/14/18 15/11/15/19 
f 4/4/4/4 15/11/15/19 6/6/6/6 
f 15/11/15/20 16/10/16/21 8/4/8/9 
f 15/11/15/20 8/4/8/9 6/6/6/8 
f 16/10/16/21 17/9/17/22 10/1/10/12 
f 16/10/16/21 10/1/10/12 8/4/8/9 
f 0/0/0/14 10/1/10/12 17/9/17/22 
f 0/0/0/14 17/9/17/22 12/8/12/23 
f 18/12/18/24 19/13/19/25 13/9/13/17 
f 18/12/18/24 13/9/13/17 12/8/12/16 
f 19/13/19/25 20/14/20/26 14/10/14/18 
f 19/13/19/25 14/10/14/18 13/9/13/17 
f 20/14/20/26 21/15/21/27 15/11/15/19 
f 20/14/20/26 15/11/15/19 14/10/14/18 
f 21/15/21/28 22/14/22/29 16/10/16/21 
f 21/15/21/28 16/10/16/21 15/11/15/20 
f 16/10/16/21 22/14/22/29 23/13/23/30 
f 16/10/16/21 23/13/23/30 17/9/17/22 
f 23/13/23/30 18/12/18/31 12/8/12/23 
f 23/13/23/30 12/8/12/23 17/9/17/22 
f 24/16/24/32 25/17/25/33 19/13/19/25 
f 24/16/24/32 19/13/19/25 18/12/18/24 
f 25/17/25/33 26/18/26/34 20/14/20/26 
f 25/17/25/33 20/14/20/26 19/13/19/25 
f 26/18/26/34 27/19/27/35 21/15/21/27 
f 26/18/26/34 21/15/21/27 20/14/20/26 
f 27/19/27/36 28/18/28/37 22/14/22/29 
f 27/19/27/36 22/14/22/29 21/15/21/28 
f 22/14/22/29 28/18/28/37 29/17/29/38 
f 22/14/22/29 29/17/29/38 23/13/23/30 
f 29/17/29/38 24/16/24/39 18/12/18/31 
f 29/17/29/38 18/12/18/31 23/13/23/30 
f 30/20/30/40 31/21/31/41 25/17/25/33 
f 30/20/30/40 25/17/25/33 24/16/24/32 
f 31/21/31/41 32/22/32/42 26/18/26/34 
f 31/21/31/41 26/18/26/34 25/17/25/33 
f 32/22/32/42 33/23/33/43 27/19/27/35 
f 32/22/32/42 27/19/27/35 26/18/26/34 
f 33/23/33/44 34/22/34/45 28/18/28/37 
f 33/23/33/44 28/18/28/37 27/19/27/36 
f 28/18/28/37 34/22/34/45 35/21/35/46 
f 28/18/28/37 35/21/35/46 29/17/29/38 
f 35/21/35/46 30/20/30/47 24/16/24/39 
f 35/21/35/46 24/16/24/39 29/17/29/38 
f 36/24/36/48 37/25/37/49 31/21/31/41 
f 36/24/36/48 31/21/31/41 30/20/30/40 
f 37/25/37/49 38/26/38/50 32/22/32/42 
f 37/25/37/49 32/22/32/42 31/21/31/41 
f 38/26/38/50 39/27/39/51 33/23/33/43 
f 38/26/38/50 33/23/33/43 32/22/32/42 
f 39/27/39/52 40/26/40/53 34/22/34/45 
f 39/27/39/52 34/22/34/45 33/23/33/44 
f 34/22/34/45 40/26/40/53 41/25/41/54 
f 34/22/34/45 41/25/41/54 35/21/35/46 
f 41/25/41/54 36/24/36/55 30/20/30/47 
f 41/25/41/54 30/20/30/47 35/21/35/46 
f 42/28/42/56 43/29/43/57 37/25/37/49 
f 42/28/42/56 37/25/37/49 36/24/36/48 
f 43/29/43/57 44/30/44/58 38/26/38/50 
f 43/29/43/57 38/26/38/50 37/25/37/49 
f 44/30/44/58 45/31/45/59 39/27/39/51 
f 44/30/44/58 39/27/39/51 38/26/38/50 
f 45/31/45/60 46/30/46/61 40/26/40/53 
f 45/31/45/60 40/26/40/53 39/27/39/52 
f 40/26/40/53 46/30/46/61 47/29/47/62 
f 40/26/40/53 47/29/47/62 41/25/41/54 
f 47/29/47/62 42/28/42/63 36/24/36/55 
f 47/29/47/62 36/24/36/55 41/25/41/54 
f 42/28/42/56 48/32/48/64 49/33/49/65 
f 42/28/42/56 49/33/49/65 43/29/43/57 
f 43/29/43/57 49/33/49/65 50/34/50/66 
f 43/29/43/57 50/34/50/66 44/30/44/58 
f 44/30/44/58 50/34/50/66 51/35/51/67 
f 44/30/44/58 51/35/51/67 45/31/45/59 
f 51/35/51/68 52/34/52/69 46/30/46/61 
f 51/35/51/68 46/30/46/61 45/31/45/60 
f 52/34/52/69 53/33/53/70 47/29/47/62 
f 52/34/52/69 47/29/47/62 46/30/46/61 
f 53/33/53/70 48/32/48/71 42/28/42/63 
f 53/33/53/70 42/28/42/63 47/29/47/62 
f 48/32/48/64 54/36/54/72 55/37/55/73 
f 48/32/48/64 55/37/55/73 49/33/49/65 
f 49/33/49/65 55/37/55/73 56/38/56/74 
f 49/33/49/65 56/38/56/74 50/34/50/66 
f 50/34/50/66 56/38/56/74 57/39/57/75 
f 50/34/50/66 57/39/57/75 51/35/51/67 
f 57/39/57/76 58/38/58/77 52/34/52/69 
f 57/39/57/76 52/34/52/69 51/35/51/68 
f 58/38/58/77 59/37/59/78 53/33/53/70 
f 58/38/58/77 53/33/53/70 52/34/52/69 
f 59/37/59/78 54/36/54/79 48/32/48/71 
f 59/37/59/78 48/32/48/71 53/33/53/70 
f 60/40/60/80 61/41/61/81 55/37/55/73 
f 60/40/60/80 55/37/55/73 54/36/54/72 
f 55/37/55/73 61/41/61/81 62/42/62/82 
f 55/37/55/73 62/42/62/82 56/38/56/74 
f 62/42/62/82 63/43/63/83 57/39/57/75 
f 62/42/62/82 57/39/57/75 56/38/56/74 
f 63/43/63/84 64/42/64/85 58/38/58/77 
f 63/43/63/84 58/38/58/77 57/39/57/76 
f 64/42/64/85 65/41/65/86 59/37/59/78 
f 64/42/64/85 59/37/59/78 58/38/58/77 
f 65/41/65/86 60/40/60/87 54/36/54/79 
f 65/41/65/86 54/36/54/79 59/37/59/78 
f 66/44/66/88 67/45/67/89 61/41/61/81 
f 66/44/66/88 61/41/61/81 60/40/60/80 
f 61/41/61/81 67/45/67/89 68/46/68/90 
f 61/41/61/81 68/46/68/90 62/42/62/82 
f 68/46/68/90 69/47/69/91 63/43/63/83 
f 68/46/68/90 63/43/63/83 62/42/62/82 
f 69/47/69/92 70/46/70/93 64/42/64/85 
f 69/47/69/92 64/42/64/85 63/43/63/84 
f 70/46/70/93 71/45/71/94 65/41/65/86 
f 70/46/70/93 65/41/65/86 64/42/64/85 
f 71/45/71/94 66/44/66/95 60/40/60/87 
f 71/45/71/94 60/40/60/87 65/41/65/86 
f 72/48/72/96 73/49/73/97 67/45/67/89 
f 72/48/72/96 67/45/67/89 66/44/66/88 
f 67/45/67/89 73/49/73/97 74/50/74/98 
f 67/45/67/89 74/50/74/98 68/46/68/90 
f 74/50/74/98 75/51/75/99 69/47/69/91 
f 74/50/74/98 69/47/69/91 68/46/68/90 
f 75/51/75/100 76/50/76/101 70/46/70/93 
f 75/51/75/100 70/46/70/93 69/47/69/92 
f 76/50/76/101 77/49/77/102 71/45/71/94 
f 76/50/76/101 71/45/71/94 70/46/70/93 
f 77/49/77/102 72/48/72/103 66/44/66/95 
f 77/49/77/102 66/44/66/95 71/45/71/94 
f 78/52/78/104 79/53/79/105 73/49/73/97 
f 78/52/78/104 73/49/73/97 72/48/72/96 
f 79/53/79/105 80/54/80/106 74/50/74/98 
f 79/53/79/105 74/50/74/98 73/49/73/97 
f 80/54/80/106 81/55/81/107 75/51/75/99 
f 80/54/80/106 75/51/75/99 74/50/74/98 
f 81/55/81/108 82/54/82/109 76/50/76/101 
f 81/55/81/108 76/50/76/101 75/51/75/100 
f 82/54/82/109 83/53/83/110 77/49/77/102 
f 82/54/82/109 77/49/77/102 76/50/76/101 
f 83/53/83/110 78/52/78/111 72/48/72/103 
f 83/53/83/110 72/48/72/103 77/49/77/102 
f 84/56/84/112 85/57/85/113 79/53/79/105 
f 84/56/84/112 79/53/79/105 78/52/78/104 
f 85/57/85/113 86/58/86/114 80/54/80/106 
f 85/57/85/113 80/54/80/106 79/53/79/105 
f 86/58/86/114 87/59/87/115 81/55/81/107 
f 86/58/86/114 81/55/81/107 80/54/80/106 
f 87/59/87/116 88/58/88/117 82/54/82/109 
f 87/59/87/116 82/54/82/109 81/55/81/108 
f 88/58/88/117 89/57/89/118 83/53/83/110 
f 88/58/88/117 83/53/83/110 82/54/82/109 
f 89/57/89/118 84/56/84/119 78/52/78/111 
f 89/57/89/118 78/52/78/111 83/53/83/110 
f 90/60/90/120 91/61/91/121 85/57/85/113 
f 90/60/90/120 85/57/85/113 84/56/84/112 
f 91/61/91/121 92/62/92/122 86/58/86/114 
f 91/61/91/121 86/58/86/114 85/57/85/113 
f 92/62/92/122 93/63/93/123 87/59/87/115 
f 92/62/92/122 87/59/87/115 86/58/86/114 
f 87/59/87/116 93/63/93/124 94/62/94/125 
f 87/59/87/116 94/62/94/125 88/58/88/117 
f 88/58/88/117 94/62/94/125 95/61/95/126 
f 88/58/88/117 95/61/95/126 89/57/89/118 
f 89/57/89/118 95/61/95/126 90/60/90/127 
f 89/57/89/118 90/60/90/127 84/56/84/119 
f 96/64/96/128 97/65/97/129 91/61/91/121 
f 96/64/96/128 91/61/91/121 90/60/90/120 
f 97/65/97/129 98/66/98/130 92/62/92/122 
f 97/65/97/129 92/62/92/122 91/61/91/121 
f 98/66/98/130 99/67/99/131 93/63/93/123 
f 98/66/98/130 93/63/93/123 92/62/92/122 
f 99/67/99/132 100/66/100/133 94/62/94/125 
f 99/67/99/132 94/62/94/125 93/63/93/124 
f 100/66/100/133 101/65/101/134 95/61/95/126 
f 100/66/100/133 95/61/95/126 94/62/94/125 
f 101/65/101/134 96/64/96/135 90/60/90/127 
f 101/65/101/134 90/60/90/127 95/61/95/126 
f 96/64/96/128 102/68/102/136 103/69/103/137 
f 96/64/96/128 103/69/103/137 97/65/97/129 
f 97/65/97/129 103/69/103/137 104/70/104/138 
f 97/65/97/129 104/70/104/138 98/66/98/130 
f 98/66/98/130 104/70/104/138 105/71/105/139 
f 98/66/98/130 105/71/105/139 99/67/99/131 
f 105/71/105/140 106/70/106/141 100/66/100/133 
f 105/71/105/140 100/66/100/133 99/67/99/132 
f 106/70/106/141 107/69/107/142 101/65/101/134 
f 106/70/106/141 101/65/101/134 100/66/100/133 
f 107/69/107/142 102/68/102/143 96/64/96/135 
f 107/69/107/142 96/64/96/135 101/65/101/134 
f 102/68/102/136 108/72/108/144 109/73/109/145 
f 102/68/102/136 109/73/109/145 103/69/103/137 
f 103/69/103/137 109/73/109/145 110/74/110/146 
f 103/69/103/137 110/74/110/146 104/70/104/138 
f 104/70/104/138 110/74/110/146 111/75/111/147 
f 104/70/104/138 111/75/111/147 105/71/105/139 
f 111/75/111/148 112/74/112/149 106/70/106/141 
f 111/75/111/148 106/70/106/141 105/71/105/140 
f 112/74/112/149 113/73/113/150 107/69/107/142 
f 112/74/112/149 107/69/107/142 106/70/106/141 
f 113/73/113/150 108/72/108/151 102/68/102/143 
f 113/73/113/150 102/68/102/143 107/69/107/142 
f 114/76/114/152 115/77/115/153 109/73/109/145 
f 114/76/114/152 109/73/109/145 108/72/108/144 
f 115/77/115/153 116/78/116/154 110/74/110/146 
f 115/77/115/153 110/74/110/146 109/73/109/145 
f 116/78/116/154 117/79/117/155 111/75/111/147 
f 116/78/116/154 111/75/111/147 110/74/110/146 
f 111/75/111/148 117/79/117/156 118/78/118/157 
f 111/75/111/148 118/78/118/157 112/74/112/149 
f 112/74/112/149 118/78/118/157 119/77/119/158 
f 112/74/112/149 119/77/119/158 113/73/113/150 
f 113/73/113/150 119/77/119/158 114/76/114/159 
f 113/73/113/150 114/76/114/159 108/72/108/151 
f 120/80/120/160 121/81/121/161 115/77/115/153 
f 120/80/120/160 115/77/115/153 114/76/114/152 
f 115/77/115/153 121/81/121/161 122/82/122/162 
f 115/77/115/153 122/82/122/162 116/78/116/154 
f 116/78/116/154 122/82/122/162 123/83/123/163 
f 116/78/116/154 123/83/123/163 117/79/117/155 
f 123/83/123/164 124/82/124/165 118/78/118/157 
f 123/83/123/164 118/78/118/157 117/79/117/156 
f 124/82/124/165 125/81/125/166 119/77/119/158 
f 124/82/124/165 119/77/119/158 118/78/118/157 
f 125/81/125/166 120/80/120/167 114/76/114/159 
f 125/81/125/166 114/76/114/159 119/77/119/158 
f 126/84/126/168 127/85/127/169 121/81/121/161 
f 126/84/126/168 121/81/121/161 120/80/120/160 
f 121/81/121/161 127/85/127/169 128/86/128/170 
f 121/81/121/161 128/86/128/170 122/82/122/162 
f 122/82/122/162 128/86/128/170 129/87/129/171 
f 122/82/122/162 129/87/129/171 123/83/123/163 
f 129/87/129/172 130/86/130/173 124/82/124/165 
f 129/87/129/172 124/82/124/165 123/83/123/164 
f 130/86/130/173 131/85/131/174 125/81/125/166 
f 130/86/130/173 125/81/125/166 124/82/124/165 
f 131/85/131/174 126/84/126/175 120/80/120/167 
f 131/85/131/174 120/80/120/167 125/81/125/166 
f 132/88/132/176 133/89/133/177 127/85/127/169 
f 132/88/132/176 127/85/127/169 126/84/126/168 
f 133/89/133/177 134/90/134/178 128/86/128/170 
f 133/89/133/177 128/86/128/170 127/85/127/169 
f 134/90/134/178 135/91/135/179 129/87/129/171 
f 134/90/134/178 129/87/129/171 128/86/128/170 
f 129/87/129/172 135/91/135/180 136/90/136/181 
f 129/87/129/172 136/90/136/181 130/86/130/173 
f 130/86/130/173 136/90/136/181 137/89/137/182 
f 130/86/130/173 137/89/137/182 131/85/131/174 
f 131/85/131/174 137/89/137/182 138/92/138/183 
f 131/85/131/174 138/92/138/183 132/88/132/184 
f 131/85/131/174 132/88/132/184 126/84/126/175 
f 133/89/133/177 132/88/132/176 138/92/138/185 
f 133/89/133/177 138/92/138/185 135/91/135/179 
f 134/90/134/178 133/89/133/177 135/91/135/179 
f 138/92/138/183 137/89/137/182 136/90/136/181 
f 138/92/138/183 136/90/136/181 135/91/135/180 
