v -618.8848 98.6729 144.3934
v -619.0859 98.6729 144.394
v -619.08 98.6729 144.334
v -618.891 98.6729 144.3334
v -618.8013 99.2488 145.1892
v -619.1643 99.2488 145.1904
v -619.3143 104.4995 146.714
v -618.6414 104.4995 146.7119
v -618.6396 104.8019 146.7294
v -619.3162 104.8019 146.7316
v -618.7042 102.5054 146.1136
v -619.2554 102.5054 146.1154
v -618.8041 99.942 145.1615
v -618.8565 100.5255 144.6628
v -619.1125 100.5255 144.6636
v -619.1616 99.942 145.1627
v -619.1919 98.6729 142.4313
v -618.9918 98.6729 142.4102
v -618.9916 98.6729 142.4706
v -619.1796 98.6729 142.4903
v -619.3837 98.6729 142.4921
v -619.3597 98.6729 142.5475
v -619.5593 98.6729 142.5903
v -619.5247 98.6729 142.6397
v -619.7114 98.6729 142.7219
v -619.6676 98.6729 142.7633
v -619.834 98.6729 142.8814
v -619.7828 98.6729 142.9131
v -619.9221 98.6729 143.0623
v -619.8655 98.6729 143.0831
v -619.9719 98.6729 143.2572
v -619.9122 98.6729 143.2662
v -619.9814 98.6729 143.4581
v -619.9211 98.6729 143.4549
v -619.9503 98.6729 143.6569
v -619.8919 98.6729 143.6416
v -619.8798 98.6729 143.8453
v -619.8257 98.6729 143.8186
v -619.7728 98.6729 144.0157
v -619.7252 98.6729 143.9787
v -619.6337 98.6729 144.1611
v -619.5945 98.6729 144.1152
v -619.4683 98.6729 144.2755
v -619.4391 98.6729 144.2227
v -619.2831 98.6729 144.3542
v -619.2652 98.6729 144.2966
v -618.8036 98.6729 142.4891
v -618.7914 98.6729 142.43
v -618.623 98.6729 142.545
v -618.5993 98.6729 142.4896
v -618.4575 98.6729 142.6362
v -618.4231 98.6729 142.5867
v -618.3137 98.6729 142.7588
v -618.2701 98.6729 142.7172
v -618.1976 98.6729 142.9079
v -618.1464 98.6729 142.8759
v -618.1138 98.6729 143.0773
v -618.0573 98.6729 143.0562
v -618.0658 98.6729 143.26
v -618.0062 98.6729 143.2508
v -618.0556 98.6729 143.4487
v -617.9954 98.6729 143.4517
v -618.0836 98.6729 143.6356
v -618.0252 98.6729 143.6507
v -618.1487 98.6729 143.8131
v -618.0945 98.6729 143.8396
v -618.2481 98.6729 143.9738
v -618.2003 98.6729 144.0106
v -618.3778 98.6729 144.1112
v -618.3385 98.6729 144.1569
v -618.5326 98.6729 144.2196
v -618.5032 98.6729 144.2723
v -618.706 98.6729 144.2947
v -618.6879 98.6729 144.3523
v -619.3556 99.2488 141.6479
v -618.9943 99.2488 141.6099
v -619.7017 99.2488 141.7577
v -620.0186 99.2488 141.935
v -620.2933 99.2488 142.1724
v -620.5146 99.2488 142.4602
v -620.6734 99.2488 142.7867
v -620.7632 99.2488 143.1385
v -620.7805 99.2488 143.5012
v -620.7243 99.2488 143.8599
v -620.5971 99.2488 144.2
v -620.4041 99.2488 144.5075
v -620.153 99.2488 144.7699
v -619.8544 99.2488 144.9763
v -619.5202 99.2488 145.1184
v -618.6328 99.2488 141.6455
v -618.2861 99.2488 141.7531
v -617.968 99.2488 141.9283
v -617.6918 99.2488 142.164
v -617.4686 99.2488 142.4504
v -617.3077 99.2488 142.7759
v -617.2156 99.2488 143.1271
v -617.196 99.2488 143.4897
v -617.2499 99.2488 143.8487
v -617.3749 99.2488 144.1896
v -617.566 99.2488 144.4984
v -617.8153 99.2488 144.7623
v -618.1126 99.2488 144.9707
v -618.4458 99.2488 145.115
v -618.9993 104.4995 140.0787
v -619.6688 104.4994 140.149
v -619.6724 104.8019 140.1317
v -618.9993 104.8019 140.061
v -620.3101 104.4994 140.3526
v -620.3171 104.8019 140.3363
v -620.8974 104.4994 140.681
v -620.9075 104.8019 140.6665
v -621.4065 104.4994 141.121
v -621.4193 104.8019 141.1089
v -621.8167 104.4995 141.6545
v -621.8316 104.8019 141.6451
v -622.111 104.4995 142.2596
v -622.1276 104.8019 142.2534
v -622.2775 104.4995 142.9115
v -622.295 104.8019 142.9088
v -622.3094 104.4995 143.5836
v -622.327 104.8019 143.5845
v -622.2053 104.4995 144.2484
v -622.2224 104.8019 144.2529
v -621.9695 104.4995 144.8787
v -621.9854 104.8019 144.8864
v -621.6118 104.4995 145.4486
v -621.6257 104.8019 145.4594
v -621.1466 104.4995 145.9348
v -621.1581 104.8019 145.9481
v -620.5931 104.4995 146.3174
v -620.6017 104.8019 146.3328
v -619.9739 104.4995 146.5807
v -619.9792 104.8019 146.5975
v -618.3293 104.4995 140.1447
v -618.3257 104.8019 140.1274
v -617.6867 104.4995 140.3441
v -617.6796 104.8019 140.3279
v -617.0973 104.4995 140.6688
v -617.0872 104.8019 140.6543
v -616.5854 104.4995 141.1055
v -616.5725 104.8019 141.0933
v -616.1718 104.4995 141.6363
v -616.1568 104.8019 141.627
v -615.8736 104.4995 142.2394
v -615.857 104.8019 142.2334
v -615.7028 104.4995 142.8903
v -615.6854 104.8019 142.8877
v -615.6666 104.4995 143.5622
v -615.649 104.8019 143.5632
v -615.7664 104.4995 144.2277
v -615.7493 104.8019 144.2321
v -615.9981 104.4995 144.8594
v -615.9822 104.8019 144.8672
v -616.3522 104.4995 145.4316
v -616.3383 104.8019 145.4424
v -616.8142 104.4995 145.9208
v -616.8027 104.8019 145.9342
v -617.3652 104.4995 146.307
v -617.3568 104.8019 146.3224
v -617.9828 104.4995 146.5743
v -617.9775 104.8019 146.5911
v -619.5457 102.5054 140.7379
v -618.9973 102.5054 140.6803
v -620.071 102.5054 140.9046
v -620.5521 102.5054 141.1737
v -620.9691 102.5054 141.5341
v -621.3051 102.5054 141.971
v -621.5461 102.5054 142.4667
v -621.6826 102.5054 143.0007
v -621.7087 102.5054 143.5512
v -621.6234 102.5054 144.0958
v -621.4304 102.5054 144.612
v -621.1373 102.5054 145.0788
v -620.7562 102.5054 145.4771
v -620.3029 102.5054 145.7905
v -619.7957 102.5054 146.0062
v -618.3776 101.6056 140.3832
v -618.7377 100.5255 142.1643
v -618.9926 100.5255 142.1392
v -618.9985 101.6056 140.3221
v -617.782 101.6056 140.5681
v -618.4932 100.5255 142.2402
v -617.2357 101.6056 140.869
v -618.269 100.5255 142.3637
v -616.7612 101.6056 141.2737
v -618.0742 100.5255 142.5298
v -616.3779 101.6056 141.7657
v -617.9169 100.5255 142.7318
v -616.1016 101.6056 142.3247
v -617.8035 100.5255 142.9613
v -615.9433 101.6056 142.928
v -617.7385 100.5255 143.2089
v -615.9097 101.6056 143.5507
v -617.7247 100.5255 143.4645
v -616.0022 101.6056 144.1674
v -617.7626 100.5255 143.7177
v -616.2169 101.6056 144.753
v -617.8508 100.5255 143.958
v -616.5451 101.6056 145.2833
v -617.9855 100.5255 144.1757
v -616.9733 101.6056 145.7367
v -618.1613 100.5255 144.3618
v -617.4841 101.6056 146.0946
v -618.371 100.5255 144.5088
v -618.0564 101.6056 146.3423
v -618.6059 100.5255 144.6105
v -618.6669 101.6056 146.4698
v -619.3499 99.942 141.6751
v -619.2473 100.5255 142.1659
v -618.9943 99.942 141.6378
v -619.6906 99.942 141.7832
v -619.4913 100.5255 142.2434
v -620.0026 99.942 141.9577
v -619.7148 100.5255 142.3684
v -620.273 99.942 142.1915
v -619.9084 100.5255 142.5358
v -620.4909 99.942 142.4749
v -620.0645 100.5255 142.7387
v -620.6473 99.942 142.7963
v -620.1765 100.5255 142.9689
v -620.7357 99.942 143.1426
v -620.2399 100.5255 143.2169
v -620.7527 99.942 143.4997
v -620.252 100.5255 143.4727
v -620.6974 99.942 143.8529
v -620.2124 100.5255 143.7256
v -620.5721 99.942 144.1877
v -620.1227 100.5255 143.9654
v -620.3821 99.942 144.4904
v -619.9866 100.5255 144.1822
v -620.1349 99.942 144.7487
v -619.8096 100.5255 144.3672
v -619.8409 99.942 144.9519
v -619.599 100.5255 144.5127
v -619.512 99.942 145.0918
v -619.3634 100.5255 144.6129
v -618.6384 99.942 141.6728
v -618.2969 99.942 141.7787
v -617.9839 99.942 141.9512
v -617.7119 99.942 142.1832
v -617.4922 99.942 142.4652
v -617.3338 99.942 142.7856
v -617.2431 99.942 143.1314
v -617.2238 99.942 143.4883
v -617.2769 99.942 143.8418
v -617.3999 99.942 144.1774
v -617.588 99.942 144.4814
v -617.8335 99.942 144.7413
v -618.1262 99.942 144.9464
v -618.4542 99.942 145.0884
v -619.2905 101.6056 146.4719
v -619.619 101.6056 140.3873
v -620.2134 101.6056 140.5759
v -620.7577 101.6056 140.8804
v -621.2296 101.6056 141.2881
v -621.6097 101.6056 141.7826
v -621.8824 101.6056 142.3434
v -622.0368 101.6056 142.9476
v -622.0663 101.6056 143.5706
v -621.9699 101.6056 144.1867
v -621.7514 101.6056 144.7708
v -621.4198 101.6056 145.299
v -620.9886 101.6056 145.7496
v -620.4756 101.6056 146.1042
v -619.9017 101.6056 146.3483
v -618.3704 102.239 140.3476
v -618.9986 102.239 140.2858
v -617.7678 102.239 140.5346
v -617.2151 102.239 140.8391
v -616.735 102.239 141.2486
v -616.3472 102.239 141.7464
v -616.0675 102.239 142.312
v -615.9074 102.239 142.9223
v -615.8735 102.239 143.5524
v -615.967 102.239 144.1764
v -616.1843 102.239 144.7688
v -616.5164 102.239 145.3054
v -616.9496 102.239 145.7641
v -617.4663 102.239 146.1263
v -618.0454 102.239 146.377
v -618.663 102.239 146.506
v -619.2941 102.239 146.508
v -619.6264 102.239 140.3517
v -620.2278 102.239 140.5426
v -620.7785 102.239 140.8506
v -621.2559 102.239 141.2632
v -621.6406 102.239 141.7634
v -621.9166 102.239 142.3309
v -622.0728 102.239 142.9422
v -622.1026 102.239 143.5725
v -622.0051 102.239 144.1959
v -621.7839 102.239 144.7869
v -621.4484 102.239 145.3213
v -621.0123 102.239 145.7772
v -620.4932 102.239 146.136
v -619.9125 102.239 146.383
v -618.4486 102.5054 140.7343
v -617.9222 102.5054 140.8977
v -617.4394 102.5054 141.1637
v -617.0201 102.5054 141.5213
v -616.6813 102.5054 141.9561
v -616.437 102.5054 142.4502
v -616.2972 102.5054 142.9833
v -616.2675 102.5054 143.5337
v -616.3492 102.5054 144.0788
v -616.539 102.5054 144.5963
v -616.8291 102.5054 145.0649
v -617.2075 102.5054 145.4656
v -617.6589 102.5054 145.7819
v -618.1647 102.5054 146.0009
vt 0.5179 0.0173
vt 0.4869 0.0173
vt 0.4869 0.0141
vt 0.5179 0.0141
vt 0.5179 0.0474
vt 0.4869 0.0474
vt 0.4869 0.1668
vt 0.5179 0.1668
vt 0.5179 0.1687
vt 0.4869 0.1687
vt 0.5179 0.1252
vt 0.4869 0.1252
vt 0.5179 0.0699
vt 0.5179 0.0877
vt 0.4869 0.0877
vt 0.4869 0.0699
vt 0.0531 0.0173
vt 0.0221 0.0173
vt 0.0221 0.0141
vt 0.0531 0.0141
vt 0.0841 0.0173
vt 0.0841 0.0141
vt 0.1151 0.0173
vt 0.1151 0.0141
vt 0.1461 0.0173
vt 0.1461 0.0141
vt 0.1771 0.0173
vt 0.1771 0.0141
vt 0.208 0.0173
vt 0.208 0.0141
vt 0.239 0.0173
vt 0.239 0.0141
vt 0.27 0.0173
vt 0.27 0.0141
vt 0.301 0.0173
vt 0.301 0.0141
vt 0.332 0.0173
vt 0.332 0.0141
vt 0.363 0.0173
vt 0.363 0.0141
vt 0.394 0.0173
vt 0.394 0.0141
vt 0.4249 0.0173
vt 0.4249 0.0141
vt 0.4559 0.0173
vt 0.4559 0.0141
vt 0.9517 0.0141
vt 0.9788 0.0145
vt 0.9788 0.0177
vt 0.9517 0.0173
vt 0.9207 0.0141
vt 0.9207 0.0173
vt 0.8897 0.0141
vt 0.8897 0.0173
vt 0.8588 0.0141
vt 0.8587 0.0173
vt 0.8278 0.0141
vt 0.8278 0.0173
vt 0.7968 0.0141
vt 0.7968 0.0173
vt 0.7658 0.0141
vt 0.7658 0.0173
vt 0.7348 0.0141
vt 0.7348 0.0173
vt 0.7038 0.0141
vt 0.7038 0.0173
vt 0.6728 0.0141
vt 0.6728 0.0173
vt 0.6419 0.0141
vt 0.6418 0.0173
vt 0.6109 0.0141
vt 0.6109 0.0173
vt 0.5799 0.0141
vt 0.5799 0.0173
vt 0.5489 0.0141
vt 0.5489 0.0173
vt 0.0531 0.0474
vt 0.0221 0.0474
vt 0.0841 0.0474
vt 0.1151 0.0474
vt 0.1461 0.0474
vt 0.1771 0.0474
vt 0.208 0.0474
vt 0.239 0.0474
vt 0.27 0.0474
vt 0.301 0.0474
vt 0.332 0.0474
vt 0.363 0.0474
vt 0.394 0.0474
vt 0.4249 0.0474
vt 0.4559 0.0474
vt 0.9788 0.0479
vt 0.9517 0.0474
vt 0.9207 0.0474
vt 0.8897 0.0474
vt 0.8587 0.0474
vt 0.8278 0.0474
vt 0.7968 0.0474
vt 0.7658 0.0474
vt 0.7348 0.0474
vt 0.7038 0.0474
vt 0.6728 0.0474
vt 0.6418 0.0474
vt 0.6109 0.0474
vt 0.5799 0.0474
vt 0.5489 0.0474
vt 0.0221 0.1668
vt 0.0531 0.1668
vt 0.0531 0.1687
vt 0.0221 0.1687
vt 0.0841 0.1668
vt 0.0841 0.1687
vt 0.1151 0.1668
vt 0.1151 0.1687
vt 0.1461 0.1668
vt 0.1461 0.1687
vt 0.1771 0.1668
vt 0.177 0.1687
vt 0.208 0.1668
vt 0.208 0.1687
vt 0.239 0.1668
vt 0.239 0.1687
vt 0.27 0.1668
vt 0.27 0.1687
vt 0.301 0.1668
vt 0.301 0.1687
vt 0.332 0.1668
vt 0.332 0.1687
vt 0.363 0.1668
vt 0.363 0.1687
vt 0.394 0.1668
vt 0.3939 0.1687
vt 0.4249 0.1668
vt 0.4249 0.1687
vt 0.4559 0.1668
vt 0.4559 0.1687
vt 0.9517 0.1668
vt 0.9788 0.1681
vt 0.9788 0.1691
vt 0.9517 0.1687
vt 0.9207 0.1668
vt 0.9207 0.1687
vt 0.8897 0.1668
vt 0.8897 0.1687
vt 0.8587 0.1668
vt 0.8587 0.1687
vt 0.8278 0.1668
vt 0.8277 0.1687
vt 0.7968 0.1668
vt 0.7968 0.1687
vt 0.7658 0.1668
vt 0.7658 0.1687
vt 0.7348 0.1668
vt 0.7348 0.1687
vt 0.7038 0.1668
vt 0.7038 0.1687
vt 0.6728 0.1668
vt 0.6728 0.1687
vt 0.6418 0.1668
vt 0.6418 0.1687
vt 0.6109 0.1668
vt 0.6108 0.1687
vt 0.5799 0.1668
vt 0.5799 0.1687
vt 0.5489 0.1668
vt 0.5489 0.1687
vt 0.0531 0.1252
vt 0.0221 0.1252
vt 0.0841 0.1252
vt 0.1151 0.1252
vt 0.1461 0.1252
vt 0.1771 0.1252
vt 0.208 0.1252
vt 0.239 0.1252
vt 0.27 0.1252
vt 0.301 0.1252
vt 0.332 0.1252
vt 0.363 0.1252
vt 0.394 0.1252
vt 0.4249 0.1252
vt 0.4559 0.1252
vt 0.9517 0.1381
vt 0.9517 0.0877
vt 0.9788 0.0889
vt 0.9788 0.1387
vt 0.9207 0.1381
vt 0.9207 0.0877
vt 0.8897 0.1381
vt 0.8897 0.0877
vt 0.8587 0.1381
vt 0.8587 0.0877
vt 0.8278 0.1381
vt 0.8278 0.0877
vt 0.7968 0.1381
vt 0.7968 0.0877
vt 0.7658 0.1381
vt 0.7658 0.0877
vt 0.7348 0.1381
vt 0.7348 0.0877
vt 0.7038 0.1381
vt 0.7038 0.0877
vt 0.6728 0.1381
vt 0.6728 0.0877
vt 0.6418 0.1381
vt 0.6418 0.0877
vt 0.6109 0.1381
vt 0.6109 0.0877
vt 0.5799 0.1381
vt 0.5799 0.0877
vt 0.5489 0.1381
vt 0.5489 0.0877
vt 0.5179 0.1381
vt 0.0531 0.0699
vt 0.0531 0.0877
vt 0.0221 0.0877
vt 0.0221 0.0699
vt 0.0841 0.0699
vt 0.0841 0.0877
vt 0.1151 0.0699
vt 0.1151 0.0877
vt 0.1461 0.0699
vt 0.1461 0.0877
vt 0.1771 0.0699
vt 0.1771 0.0877
vt 0.208 0.0699
vt 0.208 0.0877
vt 0.239 0.0699
vt 0.239 0.0877
vt 0.27 0.0699
vt 0.27 0.0877
vt 0.301 0.0699
vt 0.301 0.0877
vt 0.332 0.0699
vt 0.332 0.0877
vt 0.363 0.0699
vt 0.363 0.0877
vt 0.394 0.0699
vt 0.394 0.0877
vt 0.4249 0.0699
vt 0.4249 0.0877
vt 0.4559 0.0699
vt 0.4559 0.0877
vt 0.9517 0.0699
vt 0.9788 0.0711
vt 0.9207 0.0699
vt 0.8897 0.0699
vt 0.8587 0.0699
vt 0.8278 0.0699
vt 0.7968 0.0699
vt 0.7658 0.0699
vt 0.7348 0.0699
vt 0.7038 0.0699
vt 0.6728 0.0699
vt 0.6418 0.0699
vt 0.6109 0.0699
vt 0.5799 0.0699
vt 0.5489 0.0699
vt 0.4869 0.1381
vt 0.0531 0.1381
vt 0.0221 0.1381
vt 0.0841 0.1381
vt 0.1151 0.1381
vt 0.1461 0.1381
vt 0.1771 0.1381
vt 0.208 0.1381
vt 0.239 0.1381
vt 0.27 0.1381
vt 0.301 0.1381
vt 0.332 0.1381
vt 0.363 0.1381
vt 0.394 0.1381
vt 0.4249 0.1381
vt 0.4559 0.1381
vt 0.9517 0.1533
vt 0.9788 0.1538
vt 0.9207 0.1533
vt 0.8897 0.1533
vt 0.8587 0.1533
vt 0.8278 0.1533
vt 0.7968 0.1533
vt 0.7658 0.1533
vt 0.7348 0.1533
vt 0.7038 0.1533
vt 0.6728 0.1533
vt 0.6418 0.1533
vt 0.6109 0.1533
vt 0.5799 0.1533
vt 0.5489 0.1533
vt 0.5179 0.1533
vt 0.4869 0.1533
vt 0.0531 0.1533
vt 0.0221 0.1533
vt 0.0841 0.1533
vt 0.1151 0.1533
vt 0.1461 0.1533
vt 0.1771 0.1533
vt 0.208 0.1533
vt 0.239 0.1533
vt 0.27 0.1533
vt 0.301 0.1533
vt 0.332 0.1533
vt 0.363 0.1533
vt 0.394 0.1533
vt 0.4249 0.1533
vt 0.4559 0.1533
vt 0.9517 0.1252
vt 0.9788 0.1267
vt 0.9207 0.1252
vt 0.8897 0.1252
vt 0.8587 0.1252
vt 0.8278 0.1252
vt 0.7968 0.1252
vt 0.7658 0.1252
vt 0.7348 0.1252
vt 0.7038 0.1252
vt 0.6728 0.1252
vt 0.6418 0.1252
vt 0.6109 0.1252
vt 0.5799 0.1252
vt 0.5489 0.1252
vn 0.0338 -0.9459 0.3228
vn -0.0318 -0.9459 0.323
vn 0.0 -1.0 -0.0
vn 0.0 -1.0 -0.0002
vn 0.0944 -0.4265 0.8996
vn -0.0886 -0.4264 0.9002
vn -0.0964 -0.1735 0.9801
vn 0.1028 -0.1734 0.9795
vn 0.1042 -0.0581 0.9929
vn -0.0978 -0.0584 0.9935
vn 0.0979 0.3481 0.9323
vn -0.0918 0.3481 0.933
vn 0.0975 0.3593 0.9281
vn 0.1029 -0.1698 0.9801
vn -0.0966 -0.1702 0.9807
vn -0.0914 0.3593 0.9287
vn -0.0664 -0.9459 -0.3176
vn -0.0011 -0.9458 -0.3246
vn 0.0 -1.0 0.0
vn 0.0 -1.0 0.0
vn -0.1289 -0.9458 -0.2979
vn 0.0 -1.0 -0.0001
vn -0.1864 -0.9458 -0.2658
vn 0.0 -1.0 -0.0
vn -0.236 -0.9459 -0.2227
vn 0.0 -1.0 0.0001
vn -0.2759 -0.9459 -0.1707
vn 0.0 -1.0 0.0
vn -0.3048 -0.9458 -0.1118
vn 0.0 -1.0 0.0
vn -0.3211 -0.9458 -0.0481
vn 0.0 -1.0 -0.0
vn -0.3241 -0.9459 0.0175
vn 0.0 -1.0 -0.0
vn -0.314 -0.9458 0.0824
vn 0.0 -1.0 0.0
vn -0.291 -0.9458 0.1439
vn 0.0 -1.0 -0.0
vn -0.256 -0.9459 0.1995
vn 0.0 -1.0 0.0001
vn -0.2107 -0.9458 0.247
vn 0.0 -1.0 0.0
vn -0.1567 -0.9458 0.2845
vn 0.0 -1.0 0.0001
vn -0.0961 -0.9459 0.31
vn 0.0 -1.0 -0.0002
vn 0.0 -1.0 -0.0001
vn 0.0644 -0.9459 -0.3182
vn 0.0 -1.0 -0.0001
vn 0.1271 -0.9458 -0.2987
vn 0.0 -1.0 -0.0
vn 0.1846 -0.9459 -0.2669
vn 0.0 -1.0 0.0001
vn 0.2345 -0.9459 -0.2243
vn 0.0 -1.0 0.0
vn 0.2749 -0.9459 -0.1725
vn 0.0 -1.0 0.0
vn 0.304 -0.9459 -0.1137
vn 0.0 -1.0 -0.0
vn 0.3207 -0.9459 -0.0502
vn 0.0 -1.0 0.0
vn 0.3242 -0.9459 0.0154
vn 0.0 -1.0 0.0
vn 0.3145 -0.9458 0.0804
vn 0.0 -1.0 0.0
vn 0.2919 -0.9458 0.142
vn 0.0 -1.0 0.0
vn 0.2573 -0.9459 0.1979
vn 0.0 -1.0 0.0001
vn 0.2122 -0.9458 0.2457
vn 0.0 -1.0 -0.0
vn 0.1584 -0.9459 0.2832
vn 0.0 -1.0 0.0001
vn 0.0981 -0.9458 0.3094
vn -0.185 -0.4265 -0.8854
vn -0.003 -0.4264 -0.9045
vn -0.3594 -0.4265 -0.83
vn -0.5192 -0.4265 -0.7406
vn -0.6576 -0.4265 -0.621
vn -0.7692 -0.4265 -0.4759
vn -0.8493 -0.4265 -0.3113
vn -0.8945 -0.4265 -0.1341
vn -0.9032 -0.4265 0.0487
vn -0.8749 -0.4265 0.2296
vn -0.8108 -0.4264 0.4009
vn -0.7135 -0.4264 0.556
vn -0.5869 -0.4265 0.6882
vn -0.4364 -0.4265 0.7923
vn -0.268 -0.4265 0.8639
vn 0.1793 -0.4265 -0.8866
vn 0.354 -0.4265 -0.8323
vn 0.5144 -0.4265 -0.744
vn 0.6537 -0.4265 -0.6252
vn 0.7661 -0.4265 -0.4809
vn 0.8472 -0.4264 -0.3168
vn 0.8936 -0.4265 -0.1398
vn 0.9035 -0.4264 0.043
vn 0.8764 -0.4264 0.224
vn 0.8133 -0.4265 0.3957
vn 0.717 -0.4265 0.5514
vn 0.5913 -0.4265 0.6844
vn 0.4416 -0.4264 0.7894
vn 0.2736 -0.4264 0.8622
vn -0.0032 -0.1735 -0.9848
vn -0.2014 -0.1735 -0.964
vn -0.2042 -0.0583 -0.9772
vn -0.0032 -0.0584 -0.9983
vn -0.3914 -0.1735 -0.9037
vn -0.3967 -0.0584 -0.9161
vn -0.5652 -0.1735 -0.8065
vn -0.5729 -0.0583 -0.8175
vn -0.716 -0.1734 -0.6762
vn -0.7258 -0.0583 -0.6854
vn -0.8375 -0.1734 -0.5182
vn -0.8489 -0.0581 -0.5254
vn -0.9246 -0.1736 -0.339
vn -0.9373 -0.0585 -0.3436
vn -0.974 -0.1735 -0.1459
vn -0.9873 -0.0587 -0.1479
vn -0.9834 -0.1734 0.0531
vn -0.9968 -0.0583 0.0538
vn -0.9526 -0.1734 0.25
vn -0.9656 -0.0583 0.2534
vn -0.8828 -0.1734 0.4366
vn -0.8949 -0.0582 0.4426
vn -0.7769 -0.1734 0.6053
vn -0.7875 -0.058 0.6136
vn -0.6391 -0.1733 0.7494
vn -0.6479 -0.058 0.7595
vn -0.4751 -0.1734 0.8627
vn -0.4817 -0.0581 0.8744
vn -0.2917 -0.1735 0.9406
vn -0.2958 -0.0582 0.9535
vn 0.1952 -0.1735 -0.9653
vn 0.1979 -0.0583 -0.9785
vn 0.3855 -0.1735 -0.9062
vn 0.3908 -0.0583 -0.9186
vn 0.5601 -0.1734 -0.8101
vn 0.5678 -0.0582 -0.8211
vn 0.7116 -0.1736 -0.6808
vn 0.7214 -0.0586 -0.69
vn 0.8341 -0.1735 -0.5236
vn 0.8456 -0.0584 -0.5307
vn 0.9224 -0.1735 -0.345
vn 0.9351 -0.0582 -0.3496
vn 0.973 -0.1733 -0.1522
vn 0.9863 -0.0579 -0.1542
vn 0.9837 -0.1736 0.0467
vn 0.9972 -0.0585 0.0474
vn 0.9542 -0.1735 0.2438
vn 0.9672 -0.0582 0.2472
vn 0.8856 -0.1735 0.4308
vn 0.8977 -0.0584 0.4367
vn 0.7807 -0.1733 0.6004
vn 0.7913 -0.058 0.6086
vn 0.644 -0.1735 0.7451
vn 0.6528 -0.0584 0.7553
vn 0.4807 -0.1733 0.8596
vn 0.4871 -0.0579 0.8714
vn 0.2979 -0.1734 0.9387
vn 0.3019 -0.0582 0.9516
vn -0.1917 0.348 -0.9177
vn -0.003 0.348 -0.9375
vn -0.3725 0.348 -0.8603
vn -0.5381 0.348 -0.7677
vn -0.6816 0.348 -0.6437
vn -0.7972 0.3481 -0.4932
vn -0.8802 0.348 -0.3227
vn -0.9271 0.348 -0.139
vn -0.9361 0.348 0.0506
vn -0.9068 0.3481 0.2379
vn -0.8404 0.3479 0.4155
vn -0.7395 0.348 0.5762
vn -0.6084 0.348 0.7133
vn -0.4523 0.348 0.8211
vn -0.2778 0.348 0.8954
vn 0.1709 -0.5062 -0.8453
vn 0.1954 -0.1701 -0.9659
vn -0.0031 -0.1701 -0.9854
vn -0.0028 -0.5062 -0.8624
vn 0.3376 -0.5062 -0.7936
vn 0.3857 -0.1701 -0.9068
vn 0.4904 -0.5062 -0.7094
vn 0.5603 -0.1701 -0.8106
vn 0.6232 -0.5062 -0.5961
vn 0.7121 -0.17 -0.6812
vn 0.7305 -0.5062 -0.4585
vn 0.8348 -0.17 -0.5237
vn 0.8078 -0.5063 -0.3021
vn 0.9231 -0.17 -0.3451
vn 0.852 -0.5062 -0.1333
vn 0.9736 -0.17 -0.1526
vn 0.8615 -0.5061 0.0409
vn 0.9843 -0.17 0.0465
vn 0.8356 -0.5061 0.2135
vn 0.9547 -0.1701 0.2441
vn 0.7755 -0.5061 0.3773
vn 0.8861 -0.17 0.4312
vn 0.6837 -0.5061 0.5257
vn 0.7812 -0.1701 0.6007
vn 0.5639 -0.5062 0.6526
vn 0.6443 -0.1701 0.7456
vn 0.4209 -0.5062 0.7527
vn 0.4811 -0.1701 0.86
vn 0.2608 -0.5062 0.822
vn 0.298 -0.1701 0.9393
vn 0.09 -0.5061 0.8577
vn -0.1908 0.3593 -0.9135
vn -0.2015 -0.1702 -0.9646
vn -0.0031 0.3593 -0.9332
vn -0.3708 0.3593 -0.8564
vn -0.3916 -0.1701 -0.9043
vn -0.5357 0.3592 -0.7642
vn -0.5657 -0.1701 -0.8069
vn -0.6786 0.3593 -0.6406
vn -0.7164 -0.17 -0.6766
vn -0.7936 0.3593 -0.4911
vn -0.8379 -0.1701 -0.5187
vn -0.8762 0.3592 -0.3212
vn -0.9252 -0.1701 -0.3393
vn -0.923 0.3592 -0.1384
vn -0.9745 -0.1701 -0.1461
vn -0.9319 0.3592 0.0503
vn -0.984 -0.17 0.0533
vn -0.9027 0.3593 0.2369
vn -0.9531 -0.17 0.2502
vn -0.8365 0.3593 0.4138
vn -0.8833 -0.1701 0.4369
vn -0.7361 0.3593 0.5736
vn -0.7773 -0.1701 0.6057
vn -0.6055 0.3593 0.7101
vn -0.6394 -0.1701 0.7498
vn -0.4502 0.3593 0.8174
vn -0.4754 -0.1701 0.8632
vn -0.2766 0.3593 0.8913
vn -0.2919 -0.1701 0.9412
vn 0.1848 0.3593 -0.9147
vn 0.3653 0.3592 -0.8588
vn 0.5308 0.3592 -0.7676
vn 0.6744 0.3593 -0.6451
vn 0.7905 0.3592 -0.4961
vn 0.8741 0.3593 -0.3269
vn 0.922 0.3593 -0.1443
vn 0.9322 0.3592 0.0443
vn 0.9042 0.3592 0.2311
vn 0.8392 0.3593 0.4082
vn 0.7398 0.3593 0.5689
vn 0.6101 0.3592 0.7062
vn 0.4555 0.3592 0.8145
vn 0.2823 0.3593 0.8895
vn -0.0845 -0.5061 0.8583
vn -0.1764 -0.5062 -0.8442
vn -0.3427 -0.5061 -0.7914
vn -0.4949 -0.5062 -0.7063
vn -0.6271 -0.5061 -0.5921
vn -0.7334 -0.5062 -0.4537
vn -0.8097 -0.5063 -0.2969
vn -0.8528 -0.5063 -0.1278
vn -0.8611 -0.5062 0.0465
vn -0.8342 -0.5062 0.2188
vn -0.773 -0.5062 0.3824
vn -0.6803 -0.5061 0.5301
vn -0.5596 -0.5062 0.6562
vn -0.4161 -0.5062 0.7554
vn -0.2556 -0.5062 0.8237
vn 0.1788 0.4316 -0.8842
vn -0.0029 0.4316 -0.9021
vn 0.3531 0.4316 -0.8301
vn 0.5129 0.4316 -0.742
vn 0.6519 0.4316 -0.6236
vn 0.764 0.4316 -0.4796
vn 0.845 0.4315 -0.316
vn 0.8912 0.4316 -0.1394
vn 0.9011 0.4316 0.0428
vn 0.874 0.4316 0.2233
vn 0.8111 0.4315 0.3947
vn 0.7151 0.4317 0.5498
vn 0.5898 0.4316 0.6825
vn 0.4403 0.4316 0.7873
vn 0.2728 0.4315 0.8599
vn 0.0942 0.4315 0.8972
vn -0.0884 0.4316 0.8977
vn -0.1845 0.4316 -0.883
vn -0.3585 0.4316 -0.8278
vn -0.5177 0.4316 -0.7387
vn -0.6558 0.4316 -0.6194
vn -0.7671 0.4315 -0.4747
vn -0.847 0.4315 -0.3105
vn -0.8922 0.4315 -0.1337
vn -0.9008 0.4315 0.0486
vn -0.8725 0.4316 0.229
vn -0.8086 0.4315 0.4
vn -0.7116 0.4315 0.5545
vn -0.5854 0.4315 0.6864
vn -0.4352 0.4315 0.7902
vn -0.2673 0.4315 0.8616
vn 0.1858 0.3481 -0.9189
vn 0.367 0.348 -0.8627
vn 0.5331 0.3481 -0.7711
vn 0.6774 0.3481 -0.6481
vn 0.794 0.348 -0.4984
vn 0.8781 0.348 -0.3283
vn 0.9262 0.3481 -0.1449
vn 0.9364 0.348 0.0445
vn 0.9083 0.348 0.2321
vn 0.843 0.348 0.4103
vn 0.7432 0.348 0.5715
vn 0.613 0.348 0.7093
vn 0.4576 0.348 0.8182
vn 0.2835 0.348 0.8936
vtan 0.9946 0.0 -0.1042 1.0
vtan 0.9952 -0.0 0.0979 1.0
vtan 0.9952 -0.0 0.098 1.0
vtan 0.9945 0.0 -0.1045 1.0
vtan 0.9945 -0.0 -0.1043 1.0
vtan 0.9952 -0.0 0.098 1.0
vtan 0.9952 0.0 0.0979 1.0
vtan 0.9945 -0.0 -0.1043 1.0
vtan 0.9945 -0.0 -0.1043 1.0
vtan 0.9952 -0.0 0.098 1.0
vtan 0.9945 -0.0 -0.1044 1.0
vtan 0.9952 0.0 0.0979 1.0
vtan 0.9945 -0.0 -0.1045 1.0
vtan 0.9945 0.0 -0.1044 1.0
vtan 0.9952 -0.0 0.098 1.0
vtan 0.9952 -0.0 0.098 1.0
vtan -0.9789 0.0001 0.2044 1.0
vtan -0.9951 -0.0312 0.0942 1.0
vtan -0.9945 0.0 0.1048 1.0
vtan -0.9789 0.0 0.2043 1.0
vtan -0.9177 -0.0001 0.3973 1.0
vtan -0.9176 -0.0 0.3974 1.0
vtan -0.8188 0.0 0.5741 1.0
vtan -0.8189 -0.0 0.574 1.0
vtan -0.6863 0.0 0.7273 1.0
vtan -0.6863 0.0001 0.7273 1.0
vtan -0.5263 0.0 0.8503 1.0
vtan -0.5264 0.0 0.8502 1.0
vtan -0.3444 0.0 0.9388 1.0
vtan -0.3442 0.0 0.9389 1.0
vtan -0.1481 -0.0 0.989 1.0
vtan -0.1478 -0.0 0.989 1.0
vtan 0.0539 -0.0 0.9985 1.0
vtan 0.0539 -0.0 0.9985 1.0
vtan 0.2537 -0.0 0.9673 1.0
vtan 0.2537 0.0 0.9673 1.0
vtan 0.4433 -0.0 0.8964 1.0
vtan 0.4434 -0.0 0.8963 1.0
vtan 0.6146 0.0001 0.7888 1.0
vtan 0.6147 0.0001 0.7888 1.0
vtan 0.7608 0.0 0.649 1.0
vtan 0.761 0.0 0.6488 1.0
vtan 0.8759 0.0 0.4825 1.0
vtan 0.876 0.0 0.4824 1.0
vtan 0.9552 -0.0 0.296 1.0
vtan 0.9552 -0.0 0.296 1.0
vtan -0.9838 0.0 -0.1792 1.0
vtan -0.9983 -0.0 -0.0582 1.0
vtan -0.9991 0.0148 -0.0399 1.0
vtan -0.9843 -0.0076 -0.1765 1.0
vtan -0.9202 0.0 -0.3914 1.0
vtan -0.9201 0.0 -0.3916 1.0
vtan -0.8227 0.0 -0.5685 1.0
vtan -0.8225 0.0 -0.5687 1.0
vtan -0.6914 -0.0001 -0.7225 1.0
vtan -0.6912 -0.0 -0.7226 1.0
vtan -0.5318 -0.0 -0.8469 1.0
vtan -0.5316 -0.0 -0.847 1.0
vtan -0.3504 -0.0 -0.9366 1.0
vtan -0.3503 -0.0 -0.9366 1.0
vtan -0.1549 0.0 -0.9879 1.0
vtan -0.1546 0.0 -0.988 1.0
vtan 0.0473 -0.0 -0.9989 1.0
vtan 0.0475 0.0 -0.9989 1.0
vtan 0.2472 -0.0 -0.969 1.0
vtan 0.2475 -0.0 -0.9689 1.0
vtan 0.4373 -0.0 -0.8993 1.0
vtan 0.4376 0.0 -0.8992 1.0
vtan 0.6094 0.0 -0.7929 1.0
vtan 0.6096 0.0 -0.7927 1.0
vtan 0.7567 -0.0 -0.6538 1.0
vtan 0.7568 0.0 -0.6537 1.0
vtan 0.8728 0.0 -0.4881 1.0
vtan 0.8728 -0.0 -0.4881 1.0
vtan 0.953 -0.0 -0.3028 1.0
vtan 0.9532 -0.0 -0.3024 1.0
vtan -0.9789 -0.0 0.2045 1.0
vtan -0.999 -0.0393 0.0218 1.0
vtan -0.9177 -0.0 0.3973 1.0
vtan -0.8188 -0.0 0.574 1.0
vtan -0.6866 0.0 0.7271 1.0
vtan -0.5262 -0.0 0.8504 1.0
vtan -0.3442 0.0 0.9389 1.0
vtan -0.1483 0.0 0.9889 1.0
vtan 0.0539 -0.0 0.9985 1.0
vtan 0.2538 0.0 0.9672 1.0
vtan 0.4433 0.0 0.8964 1.0
vtan 0.6147 0.0 0.7888 1.0
vtan 0.7609 -0.0 0.6489 1.0
vtan 0.8759 -0.0 0.4824 1.0
vtan 0.9551 0.0 0.2963 1.0
vtan -1.0 -0.0047 0.0055 1.0
vtan -0.9816 -0.0174 -0.1901 1.0
vtan -0.9202 0.0 -0.3914 1.0
vtan -0.8226 0.0 -0.5687 1.0
vtan -0.6912 -0.0 -0.7227 1.0
vtan -0.5316 -0.0 -0.847 1.0
vtan -0.3503 0.0 -0.9366 1.0
vtan -0.1546 -0.0 -0.988 1.0
vtan 0.0475 0.0 -0.9989 1.0
vtan 0.2476 0.0 -0.9689 1.0
vtan 0.4375 -0.0 -0.8992 1.0
vtan 0.6096 0.0 -0.7927 1.0
vtan 0.7567 -0.0 -0.6538 1.0
vtan 0.8727 0.0 -0.4882 1.0
vtan 0.9532 -0.0 -0.3024 1.0
vtan -0.9998 -0.0175 0.0063 1.0
vtan -0.9789 -0.0001 0.2045 1.0
vtan -0.9789 -0.0001 0.2045 1.0
vtan -1.0 -0.0059 0.0036 1.0
vtan -0.9177 -0.0 0.3974 1.0
vtan -0.9177 0.0 0.3974 1.0
vtan -0.8189 -0.0 0.5739 1.0
vtan -0.8189 -0.0 0.5739 1.0
vtan -0.6866 0.0 0.727 1.0
vtan -0.6866 0.0 0.7271 1.0
vtan -0.5262 0.0001 0.8504 1.0
vtan -0.5263 0.0001 0.8503 1.0
vtan -0.3442 0.0 0.9389 1.0
vtan -0.3442 0.0 0.9389 1.0
vtan -0.1482 -0.0 0.989 1.0
vtan -0.1482 -0.0 0.989 1.0
vtan 0.0539 -0.0 0.9985 1.0
vtan 0.0539 -0.0 0.9985 1.0
vtan 0.2538 -0.0 0.9673 1.0
vtan 0.2538 -0.0 0.9672 1.0
vtan 0.4433 0.0 0.8964 1.0
vtan 0.4433 -0.0 0.8964 1.0
vtan 0.6146 0.0 0.7888 1.0
vtan 0.6146 -0.0 0.7888 1.0
vtan 0.7609 0.0 0.6489 1.0
vtan 0.7608 0.0 0.649 1.0
vtan 0.8759 0.0 0.4824 1.0
vtan 0.8759 -0.0 0.4825 1.0
vtan 0.9551 0.0 0.2962 1.0
vtan 0.9551 0.0 0.2963 1.0
vtan -0.9799 -0.0761 -0.1845 1.0
vtan -0.9553 -0.2907 0.0543 1.0
vtan -0.9172 -0.3975 0.0262 1.0
vtan -0.9796 -0.0471 -0.1953 1.0
vtan -0.9202 0.0 -0.3914 1.0
vtan -0.9202 -0.0 -0.3915 1.0
vtan -0.8226 0.0 -0.5687 1.0
vtan -0.8225 -0.0 -0.5687 1.0
vtan -0.6913 0.0 -0.7226 1.0
vtan -0.6912 -0.0 -0.7226 1.0
vtan -0.5317 0.0 -0.847 1.0
vtan -0.5316 0.0 -0.847 1.0
vtan -0.3503 0.0 -0.9366 1.0
vtan -0.3502 0.0 -0.9367 1.0
vtan -0.1546 0.0 -0.988 1.0
vtan -0.1545 0.0 -0.988 1.0
vtan 0.0475 -0.0 -0.9989 1.0
vtan 0.0475 -0.0 -0.9989 1.0
vtan 0.2476 -0.0 -0.9689 1.0
vtan 0.2476 -0.0 -0.9689 1.0
vtan 0.4375 0.0 -0.8992 1.0
vtan 0.4375 0.0 -0.8992 1.0
vtan 0.6096 -0.0 -0.7927 1.0
vtan 0.6097 -0.0 -0.7927 1.0
vtan 0.7566 0.0 -0.6539 1.0
vtan 0.7566 0.0 -0.6539 1.0
vtan 0.8728 0.0 -0.4881 1.0
vtan 0.8729 0.0 -0.488 1.0
vtan 0.9532 0.0 -0.3024 1.0
vtan 0.9532 0.0 -0.3024 1.0
vtan -0.9789 -0.0 0.2045 1.0
vtan -0.9993 0.0332 0.0156 1.0
vtan -0.9177 -0.0 0.3974 1.0
vtan -0.8189 -0.0 0.574 1.0
vtan -0.6866 0.0 0.727 1.0
vtan -0.5261 0.0 0.8504 1.0
vtan -0.3442 -0.0 0.9389 1.0
vtan -0.1482 0.0 0.989 1.0
vtan 0.0539 0.0 0.9985 1.0
vtan 0.2538 -0.0 0.9673 1.0
vtan 0.4432 0.0 0.8964 1.0
vtan 0.6147 0.0 0.7888 1.0
vtan 0.7608 0.0 0.6489 1.0
vtan 0.8759 0.0 0.4825 1.0
vtan 0.9551 0.0 0.2963 1.0
vtan -0.982 -0.0179 -0.1878 1.0
vtan -0.9804 -0.059 -0.1879 1.0
vtan -0.9954 -0.0943 0.0194 1.0
vtan -0.9999 0.0149 -0.0054 1.0
vtan -0.9202 0.0 -0.3915 1.0
vtan -0.9202 0.0 -0.3914 1.0
vtan -0.8226 0.0 -0.5686 1.0
vtan -0.8226 0.0 -0.5686 1.0
vtan -0.6912 -0.0 -0.7226 1.0
vtan -0.6912 -0.0 -0.7226 1.0
vtan -0.5316 0.0 -0.847 1.0
vtan -0.5314 0.0 -0.8471 1.0
vtan -0.3503 0.0 -0.9367 1.0
vtan -0.3502 0.0 -0.9367 1.0
vtan -0.1546 -0.0 -0.988 1.0
vtan -0.1548 0.0 -0.9879 1.0
vtan 0.0475 -0.0 -0.9989 1.0
vtan 0.0472 0.0 -0.9989 1.0
vtan 0.2476 -0.0 -0.9689 1.0
vtan 0.2477 -0.0 -0.9688 1.0
vtan 0.4375 0.0 -0.8992 1.0
vtan 0.4376 -0.0 -0.8992 1.0
vtan 0.6096 -0.0 -0.7927 1.0
vtan 0.6095 0.0 -0.7928 1.0
vtan 0.7567 0.0 -0.6538 1.0
vtan 0.7567 -0.0 -0.6538 1.0
vtan 0.8728 -0.0 -0.4881 1.0
vtan 0.8727 0.0 -0.4882 1.0
vtan 0.9532 0.0 -0.3024 1.0
vtan 0.9532 0.0 -0.3024 1.0
vtan 0.9945 -0.0 -0.1044 1.0
vtan -0.9789 -0.0 0.2044 1.0
vtan -0.9789 -0.0 0.2045 1.0
vtan -0.9998 -0.017 0.0061 1.0
vtan -0.9993 0.034 0.0164 1.0
vtan -0.9177 -0.0 0.3974 1.0
vtan -0.9176 -0.0 0.3974 1.0
vtan -0.8188 -0.0 0.574 1.0
vtan -0.8188 0.0 0.5741 1.0
vtan -0.6865 -0.0 0.7271 1.0
vtan -0.6866 0.0 0.727 1.0
vtan -0.5262 -0.0 0.8504 1.0
vtan -0.5264 -0.0 0.8503 1.0
vtan -0.3442 -0.0 0.9389 1.0
vtan -0.3444 -0.0 0.9388 1.0
vtan -0.1482 -0.0 0.989 1.0
vtan -0.1482 0.0 0.989 1.0
vtan 0.0539 0.0 0.9985 1.0
vtan 0.0541 0.0 0.9985 1.0
vtan 0.2539 0.0 0.9672 1.0
vtan 0.2539 0.0 0.9672 1.0
vtan 0.4434 -0.0 0.8963 1.0
vtan 0.4433 -0.0 0.8964 1.0
vtan 0.6147 -0.0 0.7888 1.0
vtan 0.6146 -0.0 0.7888 1.0
vtan 0.7609 0.0 0.6488 1.0
vtan 0.7609 0.0 0.6488 1.0
vtan 0.8759 0.0 0.4825 1.0
vtan 0.876 0.0 0.4824 1.0
vtan 0.9551 0.0 0.2964 1.0
vtan 0.9551 0.0 0.2963 1.0
vtan -0.975 -0.0498 -0.2166 1.0
vtan -0.9878 -0.1466 -0.0532 1.0
vtan -0.9202 0.0 -0.3915 1.0
vtan -0.8225 0.0 -0.5687 1.0
vtan -0.6912 0.0 -0.7226 1.0
vtan -0.5316 -0.0 -0.847 1.0
vtan -0.3502 0.0 -0.9367 1.0
vtan -0.1546 0.0 -0.988 1.0
vtan 0.0475 0.0 -0.9989 1.0
vtan 0.2476 -0.0 -0.9689 1.0
vtan 0.4374 0.0 -0.8993 1.0
vtan 0.6096 -0.0 -0.7927 1.0
vtan 0.7567 -0.0 -0.6538 1.0
vtan 0.8728 -0.0 -0.4881 1.0
vtan 0.9532 -0.0 -0.3025 1.0
vtan 0.9952 0.0 0.0979 1.0
vtan -0.9789 -0.0 0.2045 1.0
vtan -0.9986 -0.0443 0.0293 1.0
vtan -0.9176 0.0 0.3974 1.0
vtan -0.8189 -0.0 0.5739 1.0
vtan -0.6866 0.0 0.7271 1.0
vtan -0.5261 -0.0 0.8504 1.0
vtan -0.3442 0.0 0.9389 1.0
vtan -0.1482 -0.0 0.989 1.0
vtan 0.0539 -0.0 0.9985 1.0
vtan 0.2538 -0.0 0.9673 1.0
vtan 0.4433 0.0 0.8963 1.0
vtan 0.6147 0.0 0.7888 1.0
vtan 0.7609 -0.0 0.6489 1.0
vtan 0.8759 0.0 0.4825 1.0
vtan 0.9551 -0.0 0.2963 1.0
vtan -0.9786 -0.0147 -0.205 1.0
vtan -0.9974 -0.0658 -0.0282 1.0
vtan -0.9202 0.0 -0.3915 1.0
vtan -0.8226 -0.0 -0.5686 1.0
vtan -0.6912 -0.0 -0.7226 1.0
vtan -0.5316 0.0 -0.847 1.0
vtan -0.3503 -0.0 -0.9366 1.0
vtan -0.1546 0.0 -0.988 1.0
vtan 0.0474 0.0 -0.9989 1.0
vtan 0.2476 -0.0 -0.9689 1.0
vtan 0.4376 0.0 -0.8992 1.0
vtan 0.6096 0.0 -0.7927 1.0
vtan 0.7566 -0.0 -0.6539 1.0
vtan 0.8728 0.0 -0.4881 1.0
vtan 0.9532 0.0 -0.3024 1.0
vtan 0.9945 -0.0 -0.1044 1.0
vtan 0.9945 0.0 -0.1044 -1.0
vtan 0.9945 -0.0 -0.1044 -1.0
vtan 0.9952 -0.0 0.0979 -1.0
vtan 0.9952 -0.0 0.098 -1.0
vtan -0.9789 0.0 0.2045 -1.0
vtan -0.9789 0.0 0.2045 -1.0
vtan -0.9993 0.0332 0.0156 -1.0
vtan -0.999 0.0395 0.0222 -1.0
vtan -0.9177 -0.0 0.3974 -1.0
vtan -0.9177 -0.0 0.3974 -1.0
vtan -0.8189 0.0 0.5739 -1.0
vtan -0.8189 0.0 0.574 -1.0
vtan -0.6866 -0.0 0.727 -1.0
vtan -0.6866 -0.0 0.727 -1.0
vtan -0.5262 -0.0 0.8504 -1.0
vtan -0.5261 -0.0 0.8504 -1.0
vtan -0.3442 0.0 0.9389 -1.0
vtan -0.3442 0.0 0.9389 -1.0
vtan -0.1482 -0.0 0.989 -1.0
vtan -0.1482 0.0 0.989 -1.0
vtan 0.0539 -0.0 0.9985 -1.0
vtan 0.0539 -0.0 0.9985 -1.0
vtan 0.2538 0.0 0.9672 -1.0
vtan 0.2538 0.0 0.9673 -1.0
vtan 0.4434 -0.0 0.8963 -1.0
vtan 0.4432 -0.0 0.8964 -1.0
vtan 0.6146 -0.0 0.7888 -1.0
vtan 0.6147 -0.0 0.7888 -1.0
vtan 0.7608 0.0 0.6489 -1.0
vtan 0.7608 0.0 0.6489 -1.0
vtan 0.8759 -0.0 0.4825 -1.0
vtan 0.8759 -0.0 0.4825 -1.0
vtan 0.9551 0.0 0.2963 -1.0
vtan 0.9551 -0.0 0.2963 -1.0
vtan -0.9749 -0.0511 -0.2165 1.0
vtan -0.991 -0.1265 -0.0437 1.0
vtan -0.9202 0.0 -0.3915 1.0
vtan -0.8226 -0.0 -0.5687 1.0
vtan -0.6913 0.0 -0.7226 1.0
vtan -0.5316 0.0 -0.847 1.0
vtan -0.3502 0.0 -0.9367 1.0
vtan -0.1546 0.0 -0.988 1.0
vtan 0.0474 -0.0 -0.9989 1.0
vtan 0.2475 -0.0 -0.9689 1.0
vtan 0.4376 0.0 -0.8992 1.0
vtan 0.6096 -0.0 -0.7927 1.0
vtan 0.7566 0.0 -0.6538 1.0
vtan 0.8728 -0.0 -0.4881 1.0
vtan 0.9532 0.0 -0.3024 1.0
vtan -0.9808 0.0098 -0.1946 -1.0
vtan -0.9806 0.0052 -0.1957 -1.0
vtan -0.9999 -0.0132 -0.0031 -1.0
vtan -1.0 0.0034 0.0045 -1.0
vtan -0.9202 -0.0 -0.3915 -1.0
vtan -0.9202 0.0 -0.3915 -1.0
vtan -0.8226 0.0 -0.5687 -1.0
vtan -0.8226 0.0 -0.5686 -1.0
vtan -0.6913 -0.0 -0.7226 -1.0
vtan -0.6912 0.0 -0.7226 -1.0
vtan -0.5316 -0.0 -0.847 -1.0
vtan -0.5316 -0.0 -0.847 -1.0
vtan -0.3502 0.0 -0.9367 -1.0
vtan -0.3503 0.0 -0.9366 -1.0
vtan -0.1546 0.0 -0.988 -1.0
vtan -0.1546 -0.0 -0.988 -1.0
vtan 0.0474 -0.0 -0.9989 -1.0
vtan 0.0474 -0.0 -0.9989 -1.0
vtan 0.2475 -0.0 -0.9689 -1.0
vtan 0.2476 0.0 -0.9689 -1.0
vtan 0.4376 -0.0 -0.8992 -1.0
vtan 0.4376 -0.0 -0.8992 -1.0
vtan 0.6096 0.0 -0.7927 -1.0
vtan 0.6096 0.0 -0.7927 -1.0
vtan 0.7566 -0.0 -0.6538 -1.0
vtan 0.7566 -0.0 -0.6539 -1.0
vtan 0.8728 0.0 -0.4881 -1.0
vtan 0.8728 0.0 -0.4881 -1.0
vtan 0.9532 0.0 -0.3024 -1.0
vtan 0.9532 0.0 -0.3024 -1.0
vtan 0.9952 0.0 0.098 1.0
vtan -0.9789 -0.0 0.2045 1.0
vtan -0.999 0.0396 0.0222 1.0
vtan -0.9176 0.0 0.3974 1.0
vtan -0.8189 -0.0 0.5739 1.0
vtan -0.6866 0.0 0.727 1.0
vtan -0.5262 0.0 0.8504 1.0
vtan -0.3442 -0.0 0.9389 1.0
vtan -0.1482 0.0 0.989 1.0
vtan 0.0539 0.0 0.9985 1.0
vtan 0.2538 -0.0 0.9673 1.0
vtan 0.4434 0.0 0.8963 1.0
vtan 0.6146 0.0 0.7888 1.0
vtan 0.7608 -0.0 0.6489 1.0
vtan 0.8759 0.0 0.4825 1.0
vtan 0.9551 0.0 0.2963 1.0
f 0/0/0/0 1/1/1/1 2/2/2/2 
f 0/0/0/0 2/2/2/2 3/3/3/3 
f 1/1/1/1 0/0/0/0 4/4/4/4 
f 1/1/1/1 4/4/4/4 5/5/5/5 
f 6/6/6/6 7/7/7/7 8/8/8/8 
f 6/6/6/6 8/8/8/8 9/9/9/9 
f 10/10/10/10 7/7/7/7 6/6/6/6 
f 10/10/10/10 6/6/6/6 11/11/11/11 
f 12/12/12/12 13/13/13/13 14/14/14/14 
f 12/12/12/12 14/14/14/14 15/15/15/15 
f 16/16/16/16 17/17/17/17 18/18/18/18 
f 16/16/16/16 18/18/18/18 19/19/19/19 
f 20/20/20/20 16/16/16/16 19/19/19/19 
f 20/20/20/20 19/19/19/19 21/21/21/21 
f 22/22/22/22 20/20/20/20 21/21/21/21 
f 22/22/22/22 21/21/21/21 23/23/23/23 
f 24/24/24/24 22/22/22/22 23/23/23/23 
f 24/24/24/24 23/23/23/23 25/25/25/25 
f 26/26/26/26 24/24/24/24 25/25/25/25 
f 26/26/26/26 25/25/25/25 27/27/27/27 
f 28/28/28/28 26/26/26/26 27/27/27/27 
f 28/28/28/28 27/27/27/27 29/29/29/29 
f 30/30/30/30 28/28/28/28 29/29/29/29 
f 30/30/30/30 29/29/29/29 31/31/31/31 
f 32/32/32/32 30/30/30/30 31/31/31/31 
f 32/32/32/32 31/31/31/31 33/33/33/33 
f 34/34/34/34 32/32/32/32 33/33/33/33 
f 34/34/34/34 33/33/33/33 35/35/35/35 
f 36/36/36/36 34/34/34/34 35/35/35/35 
f 36/36/36/36 35/35/35/35 37/37/37/37 
f 38/38/38/38 36/36/36/36 37/37/37/37 
f 38/38/38/38 37/37/37/37 39/39/39/39 
f 40/40/40/40 38/38/38/38 39/39/39/39 
f 40/40/40/40 39/39/39/39 41/41/41/41 
f 42/42/42/42 40/40/40/40 41/41/41/41 
f 42/42/42/42 41/41/41/41 43/43/43/43 
f 44/44/44/44 42/42/42/42 43/43/43/43 
f 44/44/44/44 43/43/43/43 45/45/45/45 
f 1/1/1/1 44/44/44/44 45/45/45/45 
f 1/1/1/1 45/45/45/45 2/2/2/2 
f 46/46/46/46 18/47/18/47 17/48/17/48 
f 46/46/46/46 17/48/17/48 47/49/47/49 
f 48/50/48/50 46/46/46/46 47/49/47/49 
f 48/50/48/50 47/49/47/49 49/51/49/51 
f 50/52/50/52 48/50/48/50 49/51/49/51 
f 50/52/50/52 49/51/49/51 51/53/51/53 
f 52/54/52/54 50/52/50/52 51/53/51/53 
f 52/54/52/54 51/53/51/53 53/55/53/55 
f 54/56/54/56 52/54/52/54 53/55/53/55 
f 54/56/54/56 53/55/53/55 55/57/55/57 
f 56/58/56/58 54/56/54/56 55/57/55/57 
f 56/58/56/58 55/57/55/57 57/59/57/59 
f 58/60/58/60 56/58/56/58 57/59/57/59 
f 58/60/58/60 57/59/57/59 59/61/59/61 
f 60/62/60/62 58/60/58/60 59/61/59/61 
f 60/62/60/62 59/61/59/61 61/63/61/63 
f 62/64/62/64 60/62/60/62 61/63/61/63 
f 62/64/62/64 61/63/61/63 63/65/63/65 
f 64/66/64/66 62/64/62/64 63/65/63/65 
f 64/66/64/66 63/65/63/65 65/67/65/67 
f 66/68/66/68 64/66/64/66 65/67/65/67 
f 66/68/66/68 65/67/65/67 67/69/67/69 
f 68/70/68/70 66/68/66/68 67/69/67/69 
f 68/70/68/70 67/69/67/69 69/71/69/71 
f 70/72/70/72 68/70/68/70 69/71/69/71 
f 70/72/70/72 69/71/69/71 71/73/71/73 
f 72/74/72/74 70/72/70/72 71/73/71/73 
f 72/74/72/74 71/73/71/73 73/75/73/75 
f 73/75/73/75 0/0/0/0 3/3/3/3 
f 73/75/73/75 3/3/3/3 72/74/72/74 
f 74/76/74/76 75/77/75/77 17/17/17/17 
f 74/76/74/76 17/17/17/17 16/16/16/16 
f 76/78/76/78 74/76/74/76 16/16/16/16 
f 76/78/76/78 16/16/16/16 20/20/20/20 
f 77/79/77/79 76/78/76/78 20/20/20/20 
f 77/79/77/79 20/20/20/20 22/22/22/22 
f 78/80/78/80 77/79/77/79 22/22/22/22 
f 78/80/78/80 22/22/22/22 24/24/24/24 
f 79/81/79/81 78/80/78/80 24/24/24/24 
f 79/81/79/81 24/24/24/24 26/26/26/26 
f 80/82/80/82 79/81/79/81 26/26/26/26 
f 80/82/80/82 26/26/26/26 28/28/28/28 
f 81/83/81/83 80/82/80/82 28/28/28/28 
f 81/83/81/83 28/28/28/28 30/30/30/30 
f 82/84/82/84 81/83/81/83 30/30/30/30 
f 82/84/82/84 30/30/30/30 32/32/32/32 
f 83/85/83/85 82/84/82/84 32/32/32/32 
f 83/85/83/85 32/32/32/32 34/34/34/34 
f 84/86/84/86 83/85/83/85 34/34/34/34 
f 84/86/84/86 34/34/34/34 36/36/36/36 
f 85/87/85/87 84/86/84/86 36/36/36/36 
f 85/87/85/87 36/36/36/36 38/38/38/38 
f 86/88/86/88 85/87/85/87 38/38/38/38 
f 86/88/86/88 38/38/38/38 40/40/40/40 
f 87/89/87/89 86/88/86/88 40/40/40/40 
f 87/89/87/89 40/40/40/40 42/42/42/42 
f 88/90/88/90 87/89/87/89 42/42/42/42 
f 88/90/88/90 42/42/42/42 44/44/44/44 
f 5/5/5/5 88/90/88/90 44/44/44/44 
f 5/5/5/5 44/44/44/44 1/1/1/1 
f 75/91/75/91 89/92/89/92 47/49/47/49 
f 75/91/75/91 47/49/47/49 17/48/17/48 
f 89/92/89/92 90/93/90/93 49/51/49/51 
f 89/92/89/92 49/51/49/51 47/49/47/49 
f 90/93/90/93 91/94/91/94 51/53/51/53 
f 90/93/90/93 51/53/51/53 49/51/49/51 
f 91/94/91/94 92/95/92/95 53/55/53/55 
f 91/94/91/94 53/55/53/55 51/53/51/53 
f 92/95/92/95 93/96/93/96 55/57/55/57 
f 92/95/92/95 55/57/55/57 53/55/53/55 
f 93/96/93/96 94/97/94/97 57/59/57/59 
f 93/96/93/96 57/59/57/59 55/57/55/57 
f 94/97/94/97 95/98/95/98 59/61/59/61 
f 94/97/94/97 59/61/59/61 57/59/57/59 
f 95/98/95/98 96/99/96/99 61/63/61/63 
f 95/98/95/98 61/63/61/63 59/61/59/61 
f 96/99/96/99 97/100/97/100 63/65/63/65 
f 96/99/96/99 63/65/63/65 61/63/61/63 
f 97/100/97/100 98/101/98/101 65/67/65/67 
f 97/100/97/100 65/67/65/67 63/65/63/65 
f 98/101/98/101 99/102/99/102 67/69/67/69 
f 98/101/98/101 67/69/67/69 65/67/65/67 
f 99/102/99/102 100/103/100/103 69/71/69/71 
f 99/102/99/102 69/71/69/71 67/69/67/69 
f 100/103/100/103 101/104/101/104 71/73/71/73 
f 100/103/100/103 71/73/71/73 69/71/69/71 
f 101/104/101/104 102/105/102/105 73/75/73/75 
f 101/104/101/104 73/75/73/75 71/73/71/73 
f 0/0/0/0 73/75/73/75 102/105/102/105 
f 0/0/0/0 102/105/102/105 4/4/4/4 
f 103/106/103/106 104/107/104/107 105/108/105/108 
f 103/106/103/106 105/108/105/108 106/109/106/109 
f 104/107/104/107 107/110/107/110 108/111/108/111 
f 104/107/104/107 108/111/108/111 105/108/105/108 
f 107/110/107/110 109/112/109/112 110/113/110/113 
f 107/110/107/110 110/113/110/113 108/111/108/111 
f 109/112/109/112 111/114/111/114 112/115/112/115 
f 109/112/109/112 112/115/112/115 110/113/110/113 
f 111/114/111/114 113/116/113/116 114/117/114/117 
f 111/114/111/114 114/117/114/117 112/115/112/115 
f 113/116/113/116 115/118/115/118 116/119/116/119 
f 113/116/113/116 116/119/116/119 114/117/114/117 
f 115/118/115/118 117/120/117/120 118/121/118/121 
f 115/118/115/118 118/121/118/121 116/119/116/119 
f 117/120/117/120 119/122/119/122 120/123/120/123 
f 117/120/117/120 120/123/120/123 118/121/118/121 
f 119/122/119/122 121/124/121/124 122/125/122/125 
f 119/122/119/122 122/125/122/125 120/123/120/123 
f 121/124/121/124 123/126/123/126 124/127/124/127 
f 121/124/121/124 124/127/124/127 122/125/122/125 
f 123/126/123/126 125/128/125/128 126/129/126/129 
f 123/126/123/126 126/129/126/129 124/127/124/127 
f 125/128/125/128 127/130/127/130 128/131/128/131 
f 125/128/125/128 128/131/128/131 126/129/126/129 
f 127/130/127/130 129/132/129/132 130/133/130/133 
f 127/130/127/130 130/133/130/133 128/131/128/131 
f 129/132/129/132 131/134/131/134 132/135/132/135 
f 129/132/129/132 132/135/132/135 130/133/130/133 
f 131/134/131/134 6/6/6/6 9/9/9/9 
f 131/134/131/134 9/9/9/9 132/135/132/135 
f 133/136/133/136 103/137/103/137 106/138/106/138 
f 133/136/133/136 106/138/106/138 134/139/134/139 
f 135/140/135/140 133/136/133/136 134/139/134/139 
f 135/140/135/140 134/139/134/139 136/141/136/141 
f 137/142/137/142 135/140/135/140 136/141/136/141 
f 137/142/137/142 136/141/136/141 138/143/138/143 
f 139/144/139/144 137/142/137/142 138/143/138/143 
f 139/144/139/144 138/143/138/143 140/145/140/145 
f 141/146/141/146 139/144/139/144 140/145/140/145 
f 141/146/141/146 140/145/140/145 142/147/142/147 
f 143/148/143/148 141/146/141/146 142/147/142/147 
f 143/148/143/148 142/147/142/147 144/149/144/149 
f 145/150/145/150 143/148/143/148 144/149/144/149 
f 145/150/145/150 144/149/144/149 146/151/146/151 
f 147/152/147/152 145/150/145/150 146/151/146/151 
f 147/152/147/152 146/151/146/151 148/153/148/153 
f 149/154/149/154 147/152/147/152 148/153/148/153 
f 149/154/149/154 148/153/148/153 150/155/150/155 
f 151/156/151/156 149/154/149/154 150/155/150/155 
f 151/156/151/156 150/155/150/155 152/157/152/157 
f 153/158/153/158 151/156/151/156 152/157/152/157 
f 153/158/153/158 152/157/152/157 154/159/154/159 
f 155/160/155/160 153/158/153/158 154/159/154/159 
f 155/160/155/160 154/159/154/159 156/161/156/161 
f 157/162/157/162 155/160/155/160 156/161/156/161 
f 157/162/157/162 156/161/156/161 158/163/158/163 
f 159/164/159/164 157/162/157/162 158/163/158/163 
f 159/164/159/164 158/163/158/163 160/165/160/165 
f 7/7/7/7 159/164/159/164 160/165/160/165 
f 7/7/7/7 160/165/160/165 8/8/8/8 
f 161/166/161/166 104/107/104/107 103/106/103/106 
f 161/166/161/166 103/106/103/106 162/167/162/167 
f 163/168/163/168 107/110/107/110 104/107/104/107 
f 163/168/163/168 104/107/104/107 161/166/161/166 
f 164/169/164/169 109/112/109/112 107/110/107/110 
f 164/169/164/169 107/110/107/110 163/168/163/168 
f 165/170/165/170 111/114/111/114 109/112/109/112 
f 165/170/165/170 109/112/109/112 164/169/164/169 
f 166/171/166/171 113/116/113/116 111/114/111/114 
f 166/171/166/171 111/114/111/114 165/170/165/170 
f 167/172/167/172 115/118/115/118 113/116/113/116 
f 167/172/167/172 113/116/113/116 166/171/166/171 
f 168/173/168/173 117/120/117/120 115/118/115/118 
f 168/173/168/173 115/118/115/118 167/172/167/172 
f 169/174/169/174 119/122/119/122 117/120/117/120 
f 169/174/169/174 117/120/117/120 168/173/168/173 
f 170/175/170/175 121/124/121/124 119/122/119/122 
f 170/175/170/175 119/122/119/122 169/174/169/174 
f 171/176/171/176 123/126/123/126 121/124/121/124 
f 171/176/171/176 121/124/121/124 170/175/170/175 
f 172/177/172/177 125/128/125/128 123/126/123/126 
f 172/177/172/177 123/126/123/126 171/176/171/176 
f 173/178/173/178 127/130/127/130 125/128/125/128 
f 173/178/173/178 125/128/125/128 172/177/172/177 
f 174/179/174/179 129/132/129/132 127/130/127/130 
f 174/179/174/179 127/130/127/130 173/178/173/178 
f 175/180/175/180 131/134/131/134 129/132/129/132 
f 175/180/175/180 129/132/129/132 174/179/174/179 
f 11/11/11/11 6/6/6/6 131/134/131/134 
f 11/11/11/11 131/134/131/134 175/180/175/180 
f 176/181/176/181 177/182/177/182 178/183/178/183 
f 176/181/176/181 178/183/178/183 179/184/179/184 
f 180/185/180/185 181/186/181/186 177/182/177/182 
f 180/185/180/185 177/182/177/182 176/181/176/181 
f 182/187/182/187 183/188/183/188 181/186/181/186 
f 182/187/182/187 181/186/181/186 180/185/180/185 
f 184/189/184/189 185/190/185/190 183/188/183/188 
f 184/189/184/189 183/188/183/188 182/187/182/187 
f 186/191/186/191 187/192/187/192 185/190/185/190 
f 186/191/186/191 185/190/185/190 184/189/184/189 
f 188/193/188/193 189/194/189/194 187/192/187/192 
f 188/193/188/193 187/192/187/192 186/191/186/191 
f 190/195/190/195 191/196/191/196 189/194/189/194 
f 190/195/190/195 189/194/189/194 188/193/188/193 
f 192/197/192/197 193/198/193/198 191/196/191/196 
f 192/197/192/197 191/196/191/196 190/195/190/195 
f 194/199/194/199 195/200/195/200 193/198/193/198 
f 194/199/194/199 193/198/193/198 192/197/192/197 
f 196/201/196/201 197/202/197/202 195/200/195/200 
f 196/201/196/201 195/200/195/200 194/199/194/199 
f 198/203/198/203 199/204/199/204 197/202/197/202 
f 198/203/198/203 197/202/197/202 196/201/196/201 
f 200/205/200/205 201/206/201/206 199/204/199/204 
f 200/205/200/205 199/204/199/204 198/203/198/203 
f 202/207/202/207 203/208/203/208 201/206/201/206 
f 202/207/202/207 201/206/201/206 200/205/200/205 
f 204/209/204/209 205/210/205/210 203/208/203/208 
f 204/209/204/209 203/208/203/208 202/207/202/207 
f 206/211/206/211 13/13/13/13 205/210/205/210 
f 206/211/206/211 205/210/205/210 204/209/204/209 
f 207/212/207/212 208/213/208/213 178/214/178/214 
f 207/212/207/212 178/214/178/214 209/215/209/215 
f 210/216/210/216 211/217/211/217 208/213/208/213 
f 210/216/210/216 208/213/208/213 207/212/207/212 
f 212/218/212/218 213/219/213/219 211/217/211/217 
f 212/218/212/218 211/217/211/217 210/216/210/216 
f 214/220/214/220 215/221/215/221 213/219/213/219 
f 214/220/214/220 213/219/213/219 212/218/212/218 
f 216/222/216/222 217/223/217/223 215/221/215/221 
f 216/222/216/222 215/221/215/221 214/220/214/220 
f 218/224/218/224 219/225/219/225 217/223/217/223 
f 218/224/218/224 217/223/217/223 216/222/216/222 
f 220/226/220/226 221/227/221/227 219/225/219/225 
f 220/226/220/226 219/225/219/225 218/224/218/224 
f 222/228/222/228 223/229/223/229 221/227/221/227 
f 222/228/222/228 221/227/221/227 220/226/220/226 
f 224/230/224/230 225/231/225/231 223/229/223/229 
f 224/230/224/230 223/229/223/229 222/228/222/228 
f 226/232/226/232 227/233/227/233 225/231/225/231 
f 226/232/226/232 225/231/225/231 224/230/224/230 
f 228/234/228/234 229/235/229/235 227/233/227/233 
f 228/234/228/234 227/233/227/233 226/232/226/232 
f 230/236/230/236 231/237/231/237 229/235/229/235 
f 230/236/230/236 229/235/229/235 228/234/228/234 
f 232/238/232/238 233/239/233/239 231/237/231/237 
f 232/238/232/238 231/237/231/237 230/236/230/236 
f 234/240/234/240 235/241/235/241 233/239/233/239 
f 234/240/234/240 233/239/233/239 232/238/232/238 
f 15/15/15/15 14/14/14/14 235/241/235/241 
f 15/15/15/15 235/241/235/241 234/240/234/240 
f 236/242/236/242 89/92/89/92 75/91/75/91 
f 236/242/236/242 75/91/75/91 209/243/209/243 
f 237/244/237/244 90/93/90/93 89/92/89/92 
f 237/244/237/244 89/92/89/92 236/242/236/242 
f 238/245/238/245 91/94/91/94 90/93/90/93 
f 238/245/238/245 90/93/90/93 237/244/237/244 
f 239/246/239/246 92/95/92/95 91/94/91/94 
f 239/246/239/246 91/94/91/94 238/245/238/245 
f 240/247/240/247 93/96/93/96 92/95/92/95 
f 240/247/240/247 92/95/92/95 239/246/239/246 
f 241/248/241/248 94/97/94/97 93/96/93/96 
f 241/248/241/248 93/96/93/96 240/247/240/247 
f 242/249/242/249 95/98/95/98 94/97/94/97 
f 242/249/242/249 94/97/94/97 241/248/241/248 
f 243/250/243/250 96/99/96/99 95/98/95/98 
f 243/250/243/250 95/98/95/98 242/249/242/249 
f 244/251/244/251 97/100/97/100 96/99/96/99 
f 244/251/244/251 96/99/96/99 243/250/243/250 
f 245/252/245/252 98/101/98/101 97/100/97/100 
f 245/252/245/252 97/100/97/100 244/251/244/251 
f 246/253/246/253 99/102/99/102 98/101/98/101 
f 246/253/246/253 98/101/98/101 245/252/245/252 
f 247/254/247/254 100/103/100/103 99/102/99/102 
f 247/254/247/254 99/102/99/102 246/253/246/253 
f 248/255/248/255 101/104/101/104 100/103/100/103 
f 248/255/248/255 100/103/100/103 247/254/247/254 
f 249/256/249/256 102/105/102/105 101/104/101/104 
f 249/256/249/256 101/104/101/104 248/255/248/255 
f 12/12/12/12 4/4/4/4 102/105/102/105 
f 12/12/12/12 102/105/102/105 249/256/249/256 
f 13/13/13/13 206/211/206/211 250/257/250/257 
f 13/13/13/13 250/257/250/257 14/14/14/14 
f 208/213/208/213 251/258/251/258 179/259/179/259 
f 208/213/208/213 179/259/179/259 178/214/178/214 
f 211/217/211/217 252/260/252/260 251/258/251/258 
f 211/217/211/217 251/258/251/258 208/213/208/213 
f 213/219/213/219 253/261/253/261 252/260/252/260 
f 213/219/213/219 252/260/252/260 211/217/211/217 
f 215/221/215/221 254/262/254/262 253/261/253/261 
f 215/221/215/221 253/261/253/261 213/219/213/219 
f 217/223/217/223 255/263/255/263 254/262/254/262 
f 217/223/217/223 254/262/254/262 215/221/215/221 
f 219/225/219/225 256/264/256/264 255/263/255/263 
f 219/225/219/225 255/263/255/263 217/223/217/223 
f 221/227/221/227 257/265/257/265 256/264/256/264 
f 221/227/221/227 256/264/256/264 219/225/219/225 
f 223/229/223/229 258/266/258/266 257/265/257/265 
f 223/229/223/229 257/265/257/265 221/227/221/227 
f 225/231/225/231 259/267/259/267 258/266/258/266 
f 225/231/225/231 258/266/258/266 223/229/223/229 
f 227/233/227/233 260/268/260/268 259/267/259/267 
f 227/233/227/233 259/267/259/267 225/231/225/231 
f 229/235/229/235 261/269/261/269 260/268/260/268 
f 229/235/229/235 260/268/260/268 227/233/227/233 
f 231/237/231/237 262/270/262/270 261/269/261/269 
f 231/237/231/237 261/269/261/269 229/235/229/235 
f 233/239/233/239 263/271/263/271 262/270/262/270 
f 233/239/233/239 262/270/262/270 231/237/231/237 
f 235/241/235/241 264/272/264/272 263/271/263/271 
f 235/241/235/241 263/271/263/271 233/239/233/239 
f 14/14/14/14 250/257/250/257 264/272/264/272 
f 14/14/14/14 264/272/264/272 235/241/235/241 
f 265/273/265/273 176/181/176/181 179/184/179/184 
f 265/273/265/273 179/184/179/184 266/274/266/274 
f 267/275/267/275 180/185/180/185 176/181/176/181 
f 267/275/267/275 176/181/176/181 265/273/265/273 
f 268/276/268/276 182/187/182/187 180/185/180/185 
f 268/276/268/276 180/185/180/185 267/275/267/275 
f 269/277/269/277 184/189/184/189 182/187/182/187 
f 269/277/269/277 182/187/182/187 268/276/268/276 
f 270/278/270/278 186/191/186/191 184/189/184/189 
f 270/278/270/278 184/189/184/189 269/277/269/277 
f 271/279/271/279 188/193/188/193 186/191/186/191 
f 271/279/271/279 186/191/186/191 270/278/270/278 
f 272/280/272/280 190/195/190/195 188/193/188/193 
f 272/280/272/280 188/193/188/193 271/279/271/279 
f 273/281/273/281 192/197/192/197 190/195/190/195 
f 273/281/273/281 190/195/190/195 272/280/272/280 
f 274/282/274/282 194/199/194/199 192/197/192/197 
f 274/282/274/282 192/197/192/197 273/281/273/281 
f 275/283/275/283 196/201/196/201 194/199/194/199 
f 275/283/275/283 194/199/194/199 274/282/274/282 
f 276/284/276/284 198/203/198/203 196/201/196/201 
f 276/284/276/284 196/201/196/201 275/283/275/283 
f 277/285/277/285 200/205/200/205 198/203/198/203 
f 277/285/277/285 198/203/198/203 276/284/276/284 
f 278/286/278/286 202/207/202/207 200/205/200/205 
f 278/286/278/286 200/205/200/205 277/285/277/285 
f 279/287/279/287 204/209/204/209 202/207/202/207 
f 279/287/279/287 202/207/202/207 278/286/278/286 
f 280/288/280/288 206/211/206/211 204/209/204/209 
f 280/288/280/288 204/209/204/209 279/287/279/287 
f 280/288/280/289 10/10/10/290 11/11/11/291 
f 280/288/280/289 11/11/11/291 281/289/281/292 
f 282/290/282/293 161/166/161/294 162/167/162/295 
f 282/290/282/293 162/167/162/295 266/291/266/296 
f 283/292/283/297 163/168/163/298 161/166/161/294 
f 283/292/283/297 161/166/161/294 282/290/282/293 
f 284/293/284/299 164/169/164/300 163/168/163/298 
f 284/293/284/299 163/168/163/298 283/292/283/297 
f 285/294/285/301 165/170/165/302 164/169/164/300 
f 285/294/285/301 164/169/164/300 284/293/284/299 
f 286/295/286/303 166/171/166/304 165/170/165/302 
f 286/295/286/303 165/170/165/302 285/294/285/301 
f 287/296/287/305 167/172/167/306 166/171/166/304 
f 287/296/287/305 166/171/166/304 286/295/286/303 
f 288/297/288/307 168/173/168/308 167/172/167/306 
f 288/297/288/307 167/172/167/306 287/296/287/305 
f 289/298/289/309 169/174/169/310 168/173/168/308 
f 289/298/289/309 168/173/168/308 288/297/288/307 
f 290/299/290/311 170/175/170/312 169/174/169/310 
f 290/299/290/311 169/174/169/310 289/298/289/309 
f 291/300/291/313 171/176/171/314 170/175/170/312 
f 291/300/291/313 170/175/170/312 290/299/290/311 
f 292/301/292/315 172/177/172/316 171/176/171/314 
f 292/301/292/315 171/176/171/314 291/300/291/313 
f 293/302/293/317 173/178/173/318 172/177/172/316 
f 293/302/293/317 172/177/172/316 292/301/292/315 
f 294/303/294/319 174/179/174/320 173/178/173/318 
f 294/303/294/319 173/178/173/318 293/302/293/317 
f 295/304/295/321 175/180/175/322 174/179/174/320 
f 295/304/295/321 174/179/174/320 294/303/294/319 
f 281/289/281/292 11/11/11/291 175/180/175/322 
f 281/289/281/292 175/180/175/322 295/304/295/321 
f 133/136/133/136 296/305/296/323 162/306/162/324 
f 133/136/133/136 162/306/162/324 103/137/103/137 
f 135/140/135/140 297/307/297/325 296/305/296/323 
f 135/140/135/140 296/305/296/323 133/136/133/136 
f 137/142/137/142 298/308/298/326 297/307/297/325 
f 137/142/137/142 297/307/297/325 135/140/135/140 
f 139/144/139/144 299/309/299/327 298/308/298/326 
f 139/144/139/144 298/308/298/326 137/142/137/142 
f 141/146/141/146 300/310/300/328 299/309/299/327 
f 141/146/141/146 299/309/299/327 139/144/139/144 
f 143/148/143/148 301/311/301/329 300/310/300/328 
f 143/148/143/148 300/310/300/328 141/146/141/146 
f 145/150/145/150 302/312/302/330 301/311/301/329 
f 145/150/145/150 301/311/301/329 143/148/143/148 
f 147/152/147/152 303/313/303/331 302/312/302/330 
f 147/152/147/152 302/312/302/330 145/150/145/150 
f 149/154/149/154 304/314/304/332 303/313/303/331 
f 149/154/149/154 303/313/303/331 147/152/147/152 
f 151/156/151/156 305/315/305/333 304/314/304/332 
f 151/156/151/156 304/314/304/332 149/154/149/154 
f 153/158/153/158 306/316/306/334 305/315/305/333 
f 153/158/153/158 305/315/305/333 151/156/151/156 
f 155/160/155/160 307/317/307/335 306/316/306/334 
f 155/160/155/160 306/316/306/334 153/158/153/158 
f 157/162/157/162 308/318/308/336 307/317/307/335 
f 157/162/157/162 307/317/307/335 155/160/155/160 
f 159/164/159/164 309/319/309/337 308/318/308/336 
f 159/164/159/164 308/318/308/336 157/162/157/162 
f 7/7/7/7 10/10/10/10 309/319/309/337 
f 7/7/7/7 309/319/309/337 159/164/159/164 
f 296/305/296/338 265/273/265/339 266/274/266/340 
f 296/305/296/338 266/274/266/340 162/306/162/341 
f 297/307/297/342 267/275/267/343 265/273/265/339 
f 297/307/297/342 265/273/265/339 296/305/296/338 
f 298/308/298/344 268/276/268/345 267/275/267/343 
f 298/308/298/344 267/275/267/343 297/307/297/342 
f 299/309/299/346 269/277/269/347 268/276/268/345 
f 299/309/299/346 268/276/268/345 298/308/298/344 
f 300/310/300/348 270/278/270/349 269/277/269/347 
f 300/310/300/348 269/277/269/347 299/309/299/346 
f 301/311/301/350 271/279/271/351 270/278/270/349 
f 301/311/301/350 270/278/270/349 300/310/300/348 
f 302/312/302/352 272/280/272/353 271/279/271/351 
f 302/312/302/352 271/279/271/351 301/311/301/350 
f 303/313/303/354 273/281/273/355 272/280/272/353 
f 303/313/303/354 272/280/272/353 302/312/302/352 
f 304/314/304/356 274/282/274/357 273/281/273/355 
f 304/314/304/356 273/281/273/355 303/313/303/354 
f 305/315/305/358 275/283/275/359 274/282/274/357 
f 305/315/305/358 274/282/274/357 304/314/304/356 
f 306/316/306/360 276/284/276/361 275/283/275/359 
f 306/316/306/360 275/283/275/359 305/315/305/358 
f 307/317/307/362 277/285/277/363 276/284/276/361 
f 307/317/307/362 276/284/276/361 306/316/306/360 
f 308/318/308/364 278/286/278/365 277/285/277/363 
f 308/318/308/364 277/285/277/363 307/317/307/362 
f 309/319/309/366 279/287/279/367 278/286/278/365 
f 309/319/309/366 278/286/278/365 308/318/308/364 
f 10/10/10/290 280/288/280/289 279/287/279/367 
f 10/10/10/290 279/287/279/367 309/319/309/366 
f 206/211/206/211 280/288/280/288 281/289/281/368 
f 206/211/206/211 281/289/281/368 250/257/250/257 
f 251/258/251/258 282/290/282/369 266/291/266/370 
f 251/258/251/258 266/291/266/370 179/259/179/259 
f 252/260/252/260 283/292/283/371 282/290/282/369 
f 252/260/252/260 282/290/282/369 251/258/251/258 
f 253/261/253/261 284/293/284/372 283/292/283/371 
f 253/261/253/261 283/292/283/371 252/260/252/260 
f 254/262/254/262 285/294/285/373 284/293/284/372 
f 254/262/254/262 284/293/284/372 253/261/253/261 
f 255/263/255/263 286/295/286/374 285/294/285/373 
f 255/263/255/263 285/294/285/373 254/262/254/262 
f 256/264/256/264 287/296/287/375 286/295/286/374 
f 256/264/256/264 286/295/286/374 255/263/255/263 
f 257/265/257/265 288/297/288/376 287/296/287/375 
f 257/265/257/265 287/296/287/375 256/264/256/264 
f 258/266/258/266 289/298/289/377 288/297/288/376 
f 258/266/258/266 288/297/288/376 257/265/257/265 
f 259/267/259/267 290/299/290/378 289/298/289/377 
f 259/267/259/267 289/298/289/377 258/266/258/266 
f 260/268/260/268 291/300/291/379 290/299/290/378 
f 260/268/260/268 290/299/290/378 259/267/259/267 
f 261/269/261/269 292/301/292/380 291/300/291/379 
f 261/269/261/269 291/300/291/379 260/268/260/268 
f 262/270/262/270 293/302/293/381 292/301/292/380 
f 262/270/262/270 292/301/292/380 261/269/261/269 
f 263/271/263/271 294/303/294/382 293/302/293/381 
f 263/271/263/271 293/302/293/381 262/270/262/270 
f 264/272/264/272 295/304/295/383 294/303/294/382 
f 264/272/264/272 294/303/294/382 263/271/263/271 
f 250/257/250/257 281/289/281/368 295/304/295/383 
f 250/257/250/257 295/304/295/383 264/272/264/272 
f 4/4/4/4 12/12/12/12 15/15/15/15 
f 4/4/4/4 15/15/15/15 5/5/5/5 
f 74/76/74/76 207/212/207/212 209/215/209/215 
f 74/76/74/76 209/215/209/215 75/77/75/77 
f 76/78/76/78 210/216/210/216 207/212/207/212 
f 76/78/76/78 207/212/207/212 74/76/74/76 
f 77/79/77/79 212/218/212/218 210/216/210/216 
f 77/79/77/79 210/216/210/216 76/78/76/78 
f 78/80/78/80 214/220/214/220 212/218/212/218 
f 78/80/78/80 212/218/212/218 77/79/77/79 
f 79/81/79/81 216/222/216/222 214/220/214/220 
f 79/81/79/81 214/220/214/220 78/80/78/80 
f 80/82/80/82 218/224/218/224 216/222/216/222 
f 80/82/80/82 216/222/216/222 79/81/79/81 
f 81/83/81/83 220/226/220/226 218/224/218/224 
f 81/83/81/83 218/224/218/224 80/82/80/82 
f 82/84/82/84 222/228/222/228 220/226/220/226 
f 82/84/82/84 220/226/220/226 81/83/81/83 
f 83/85/83/85 224/230/224/230 222/228/222/228 
f 83/85/83/85 222/228/222/228 82/84/82/84 
f 84/86/84/86 226/232/226/232 224/230/224/230 
f 84/86/84/86 224/230/224/230 83/85/83/85 
f 85/87/85/87 228/234/228/234 226/232/226/232 
f 85/87/85/87 226/232/226/232 84/86/84/86 
f 86/88/86/88 230/236/230/236 228/234/228/234 
f 86/88/86/88 228/234/228/234 85/87/85/87 
f 87/89/87/89 232/238/232/238 230/236/230/236 
f 87/89/87/89 230/236/230/236 86/88/86/88 
f 88/90/88/90 234/240/234/240 232/238/232/238 
f 88/90/88/90 232/238/232/238 87/89/87/89 
f 5/5/5/5 15/15/15/15 234/240/234/240 
f 5/5/5/5 234/240/234/240 88/90/88/90 
f 177/182/177/182 236/242/236/242 209/243/209/243 
f 177/182/177/182 209/243/209/243 178/183/178/183 
f 181/186/181/186 237/244/237/244 236/242/236/242 
f 181/186/181/186 236/242/236/242 177/182/177/182 
f 183/188/183/188 238/245/238/245 237/244/237/244 
f 183/188/183/188 237/244/237/244 181/186/181/186 
f 185/190/185/190 239/246/239/246 238/245/238/245 
f 185/190/185/190 238/245/238/245 183/188/183/188 
f 187/192/187/192 240/247/240/247 239/246/239/246 
f 187/192/187/192 239/246/239/246 185/190/185/190 
f 189/194/189/194 241/248/241/248 240/247/240/247 
f 189/194/189/194 240/247/240/247 187/192/187/192 
f 191/196/191/196 242/249/242/249 241/248/241/248 
f 191/196/191/196 241/248/241/248 189/194/189/194 
f 193/198/193/198 243/250/243/250 242/249/242/249 
f 193/198/193/198 242/249/242/249 191/196/191/196 
f 195/200/195/200 244/251/244/251 243/250/243/250 
f 195/200/195/200 243/250/243/250 193/198/193/198 
f 197/202/197/202 245/252/245/252 244/251/244/251 
f 197/202/197/202 244/251/244/251 195/200/195/200 
f 199/204/199/204 246/253/246/253 245/252/245/252 
f 199/204/199/204 245/252/245/252 197/202/197/202 
f 201/206/201/206 247/254/247/254 246/253/246/253 
f 201/206/201/206 246/253/246/253 199/204/199/204 
f 203/208/203/208 248/255/248/255 247/254/247/254 
f 203/208/203/208 247/254/247/254 201/206/201/206 
f 205/210/205/210 249/256/249/256 248/255/248/255 
f 205/210/205/210 248/255/248/255 203/208/203/208 
f 13/13/13/13 12/12/12/12 249/256/249/256 
f 13/13/13/13 249/256/249/256 205/210/205/210 
