v 325.8752 516.4329 224.6946
v 325.8752 516.4329 184.8652
v 325.6197 517.4015 185.1207
v 325.6198 517.4014 224.4391
v 325.4807 516.4329 225.0892
v 325.2252 517.4014 224.8337
v 330.6566 510.635 230.2662
v 331.0512 510.635 229.8717
v 329.3738 511.8852 228.194
v 328.9793 511.8852 228.5886
v 326.1817 515.7083 225.0012
v 325.7871 515.7083 225.3957
v 326.3273 514.8397 225.936
v 326.7219 514.8397 225.5415
v 327.9794 512.8038 227.5884
v 328.3739 512.8038 227.1939
v 327.5876 513.6798 226.4074
v 327.193 513.6798 226.8019
v 328.3739 512.8039 182.3659
v 327.5875 513.6799 183.1524
v 326.1817 515.7084 184.5586
v 325.4806 516.4329 184.4707
v 325.2252 517.4015 184.7261
v 329.3738 511.8852 181.3658
v 331.0512 510.635 179.6881
v 330.6566 510.635 179.2936
v 328.9793 511.8852 180.9712
v 326.3273 514.8397 183.6238
v 325.7871 515.7084 184.1641
v 326.7219 514.8397 184.0183
v 327.9794 512.8039 181.9714
v 327.193 513.6799 182.7579
v 280.4836 510.635 179.2936
v 282.1609 511.8852 180.9713
v 284.8129 514.8397 183.6238
v 285.3531 515.7084 184.1641
v 283.9472 513.6799 182.7579
v 283.1608 512.8039 181.9714
v 285.6596 516.4329 184.4707
v 285.265 516.4329 184.8652
v 285.5205 517.4015 185.1207
v 285.915 517.4015 184.7261
v 280.089 510.635 179.6881
v 281.7664 511.8852 181.3658
v 284.9585 515.7084 184.5586
v 284.4183 514.8397 184.0183
v 282.7663 512.8039 182.3659
v 283.5527 513.6799 183.1525
v 330.6566 509.8055 230.2662
v 331.0512 509.8055 229.8717
v 331.0512 509.8055 179.6881
v 330.6566 509.8055 179.2936
v 280.4836 509.8055 179.2936
v 280.089 509.8055 179.6881
v 332.6148 509.8055 232.2556
v 333.0401 509.8055 231.8302
v 333.0401 509.8055 177.7296
v 332.6148 509.8055 177.3042
v 278.5254 509.8055 177.3042
v 278.1001 509.8055 177.7296
v 332.6148 506.6332 232.2556
v 333.0401 506.6332 231.8302
v 333.0401 506.6332 177.7296
v 332.6148 506.6332 177.3042
v 278.5254 506.6332 177.3042
v 278.1001 506.6332 177.7296
v 285.265 516.4329 224.6946
v 285.5205 517.4014 224.4392
v 282.7663 512.8038 227.1939
v 283.5527 513.6798 226.4074
v 284.9585 515.7083 225.0012
v 285.6596 516.4329 225.0892
v 285.915 517.4014 224.8337
v 281.7664 511.8852 228.194
v 280.0891 510.635 229.8717
v 280.4836 510.635 230.2662
v 282.1609 511.8852 228.5886
v 284.8129 514.8397 225.936
v 285.3531 515.7083 225.3958
v 284.4183 514.8397 225.5415
v 283.1608 512.8038 227.5884
v 283.9472 513.6798 226.8019
v 280.0891 509.8055 229.8717
v 280.4836 509.8055 230.2662
v 278.1001 509.8055 231.8303
v 278.5255 509.8055 232.2556
v 278.1001 506.6332 231.8303
v 278.5255 506.6332 232.2556
gi 0 0 0 0
gi 0 0 0 0
gi 0 0 0 0
gi 0 0 0 0
gi 0 0 0 0
gi 0 0 0 0
gi 0 0 0 0
gi 0 0 0 0
gi 0 0 0 0
gi 0 0 0 0
gi 0 0 0 0
gi 0 0 0 0
gi 0 0 0 0
gi 0 0 0 0
gi 0 0 0 0
gi 0 0 0 0
gi 0 0 0 0
gi 0 0 0 0
gi 0 0 0 0
gi 0 0 0 0
gi 0 0 0 0
gi 0 0 0 0
gi 0 0 0 0
gi 0 0 0 0
gi 0 0 0 0
gi 0 0 0 0
gi 0 0 0 0
gi 0 0 0 0
gi 0 0 0 0
gi 0 0 0 0
gi 0 0 0 0
gi 0 0 0 0
gi 0 0 0 0
gi 0 0 0 0
gi 0 0 0 0
gi 0 0 0 0
gi 0 0 0 0
gi 0 0 0 0
gi 0 0 0 0
gi 0 0 0 0
gi 0 0 0 0
gi 0 0 0 0
gi 0 0 0 0
gi 0 0 0 0
gi 0 0 0 0
gi 0 0 0 0
gi 0 0 0 0
gi 0 0 0 0
gi 0 0 0 0
gi 0 0 0 0
gi 0 0 0 0
gi 0 0 0 0
gi 0 0 0 0
gi 0 0 0 0
gi 0 0 0 0
gi 0 0 0 0
gi 0 0 0 0
gi 0 0 0 0
gi 0 0 0 0
gi 0 0 0 0
gi 0 0 0 0
gi 0 0 0 0
gi 0 0 0 0
gi 0 0 0 0
gi 0 0 0 0
gi 0 0 0 0
gi 0 0 0 0
gi 0 0 0 0
gi 0 0 0 0
gi 0 0 0 0
gi 0 0 0 0
gi 0 0 0 0
gi 0 0 0 0
gi 0 0 0 0
gi 0 0 0 0
gi 0 0 0 0
gi 0 0 0 0
gi 0 0 0 0
gi 0 0 0 0
gi 0 0 0 0
gi 0 0 0 0
gi 0 0 0 0
gi 0 0 0 0
gi 0 0 0 0
gi 0 0 0 0
gi 0 0 0 0
gi 0 0 0 0
gi 0 0 0 0
gw 0.0 0.0 0.0 0.0
gw 0.0 0.0 0.0 0.0
gw 0.0 0.0 0.0 0.0
gw 0.0 0.0 0.0 0.0
gw 0.0 0.0 0.0 0.0
gw 0.0 0.0 0.0 0.0
gw 0.0 0.0 0.0 0.0
gw 0.0 0.0 0.0 0.0
gw 0.0 0.0 0.0 0.0
gw 0.0 0.0 0.0 0.0
gw 0.0 0.0 0.0 0.0
gw 0.0 0.0 0.0 0.0
gw 0.0 0.0 0.0 0.0
gw 0.0 0.0 0.0 0.0
gw 0.0 0.0 0.0 0.0
gw 0.0 0.0 0.0 0.0
gw 0.0 0.0 0.0 0.0
gw 0.0 0.0 0.0 0.0
gw 0.0 0.0 0.0 0.0
gw 0.0 0.0 0.0 0.0
gw 0.0 0.0 0.0 0.0
gw 0.0 0.0 0.0 0.0
gw 0.0 0.0 0.0 0.0
gw 0.0 0.0 0.0 0.0
gw 0.0 0.0 0.0 0.0
gw 0.0 0.0 0.0 0.0
gw 0.0 0.0 0.0 0.0
gw 0.0 0.0 0.0 0.0
gw 0.0 0.0 0.0 0.0
gw 0.0 0.0 0.0 0.0
gw 0.0 0.0 0.0 0.0
gw 0.0 0.0 0.0 0.0
gw 0.0 0.0 0.0 0.0
gw 0.0 0.0 0.0 0.0
gw 0.0 0.0 0.0 0.0
gw 0.0 0.0 0.0 0.0
gw 0.0 0.0 0.0 0.0
gw 0.0 0.0 0.0 0.0
gw 0.0 0.0 0.0 0.0
gw 0.0 0.0 0.0 0.0
gw 0.0 0.0 0.0 0.0
gw 0.0 0.0 0.0 0.0
gw 0.0 0.0 0.0 0.0
gw 0.0 0.0 0.0 0.0
gw 0.0 0.0 0.0 0.0
gw 0.0 0.0 0.0 0.0
gw 0.0 0.0 0.0 0.0
gw 0.0 0.0 0.0 0.0
gw 0.0 0.0 0.0 0.0
gw 0.0 0.0 0.0 0.0
gw 0.0 0.0 0.0 0.0
gw 0.0 0.0 0.0 0.0
gw 0.0 0.0 0.0 0.0
gw 0.0 0.0 0.0 0.0
gw 0.0 0.0 0.0 0.0
gw 0.0 0.0 0.0 0.0
gw 0.0 0.0 0.0 0.0
gw 0.0 0.0 0.0 0.0
gw 0.0 0.0 0.0 0.0
gw 0.0 0.0 0.0 0.0
gw 0.0 0.0 0.0 0.0
gw 0.0 0.0 0.0 0.0
gw 0.0 0.0 0.0 0.0
gw 0.0 0.0 0.0 0.0
gw 0.0 0.0 0.0 0.0
gw 0.0 0.0 0.0 0.0
gw 0.0 0.0 0.0 0.0
gw 0.0 0.0 0.0 0.0
gw 0.0 0.0 0.0 0.0
gw 0.0 0.0 0.0 0.0
gw 0.0 0.0 0.0 0.0
gw 0.0 0.0 0.0 0.0
gw 0.0 0.0 0.0 0.0
gw 0.0 0.0 0.0 0.0
gw 0.0 0.0 0.0 0.0
gw 0.0 0.0 0.0 0.0
gw 0.0 0.0 0.0 0.0
gw 0.0 0.0 0.0 0.0
gw 0.0 0.0 0.0 0.0
gw 0.0 0.0 0.0 0.0
gw 0.0 0.0 0.0 0.0
gw 0.0 0.0 0.0 0.0
gw 0.0 0.0 0.0 0.0
gw 0.0 0.0 0.0 0.0
gw 0.0 0.0 0.0 0.0
gw 0.0 0.0 0.0 0.0
gw 0.0 0.0 0.0 0.0
gw 0.0 0.0 0.0 0.0
vt 0.2788 0.949
vt 0.2788 0.7224
vt 0.2734 0.7237
vt 0.2733 0.9476
vt 0.2778 0.9519
vt 0.2712 0.9499
vt 0.3144 0.9807
vt 0.3147 0.9785
vt 0.3052 0.9689
vt 0.3029 0.9712
vt 0.2829 0.9508
vt 0.2816 0.9534
vt 0.286 0.9566
vt 0.2879 0.9539
vt 0.2972 0.9656
vt 0.2995 0.9633
vt 0.2945 0.9588
vt 0.2922 0.9615
vt 0.2995 0.7081
vt 0.2945 0.7126
vt 0.2829 0.7206
vt 0.2755 0.7168
vt 0.2725 0.7161
vt 0.2711 0.7216
vt 0.2947 0.692
vt 0.3045 0.6818
vt 0.302 0.6802
vt 0.2924 0.6897
vt 0.2773 0.707
vt 0.2743 0.7119
vt 0.2768 0.7135
vt 0.2801 0.7089
vt 0.285 0.7026
vt 0.2891 0.6976
vt 0.2867 0.6954
vt 0.2823 0.7004
vt 0.0164 0.6802
vt 0.026 0.6897
vt 0.0411 0.707
vt 0.0441 0.7119
vt 0.0361 0.7004
vt 0.0317 0.6953
vt 0.0459 0.7161
vt 0.044 0.7173
vt 0.0451 0.7238
vt 0.0473 0.7216
vt 0.014 0.6812
vt 0.0237 0.692
vt 0.0416 0.7135
vt 0.0383 0.7089
vt 0.0293 0.6976
vt 0.0334 0.7026
vt 0.3147 0.6929
vt 0.3052 0.7024
vt 0.2879 0.7175
vt 0.3184 0.9812
vt 0.3194 0.9785
vt 0.3194 0.6929
vt 0.302 0.6754
vt 0.0164 0.6754
vt 0.3048 0.6767
vt 0.0138 0.6766
vt 0.3283 0.9921
vt 0.3307 0.9896
vt 0.3307 0.6817
vt 0.3131 0.6641
vt 0.0053 0.6641
vt 0.316 0.6653
vt 0.0029 0.6653
vt 0.3307 0.9921
vt 0.3488 0.9921
vt 0.3488 0.9896
vt 0.3488 0.6817
vt 0.3131 0.6461
vt 0.0053 0.6461
vt 0.3155 0.6461
vt 0.0029 0.6461
vt 0.0451 0.9476
vt 0.0473 0.9498
vn 0.8484 0.4105 0.3342
vn 0.8483 0.4106 -0.3343
vn 0.6219 0.7482 -0.231
vn 0.622 0.7482 0.2311
vn 0.3343 0.4106 0.8483
vn 0.2311 0.7482 0.6219
vn 0.355 0.4595 0.8142
vn 0.8141 0.4594 0.3551
vn 0.5035 0.8445 0.1824
vn 0.1825 0.8445 0.5034
vn 0.7704 0.5643 0.2969
vn 0.2968 0.5643 0.7704
vn 0.2649 0.6653 0.698
vn 0.698 0.6653 0.265
vn 0.2114 0.7904 0.575
vn 0.575 0.7903 0.2114
vn 0.6399 0.7303 0.239
vn 0.239 0.7304 0.6399
vn 0.575 0.7903 -0.2114
vn 0.6399 0.7303 -0.239
vn 0.7704 0.5643 -0.2969
vn 0.3342 0.4106 -0.8483
vn 0.2312 0.7482 -0.622
vn 0.5035 0.8445 -0.1824
vn 0.8141 0.4594 -0.3551
vn 0.355 0.4594 -0.8142
vn 0.1825 0.8445 -0.5035
vn 0.2649 0.6653 -0.698
vn 0.2968 0.5643 -0.7704
vn 0.698 0.6653 -0.2649
vn 0.2114 0.7904 -0.575
vn 0.239 0.7304 -0.6398
vn -0.355 0.4595 -0.8142
vn -0.1825 0.8445 -0.5035
vn -0.2649 0.6653 -0.698
vn -0.2968 0.5643 -0.7704
vn -0.239 0.7304 -0.6399
vn -0.2114 0.7904 -0.575
vn -0.3343 0.4106 -0.8483
vn -0.8483 0.4106 -0.3343
vn -0.622 0.7482 -0.231
vn -0.2311 0.7482 -0.622
vn -0.8141 0.4594 -0.3551
vn -0.5035 0.8445 -0.1825
vn -0.7703 0.5643 -0.2969
vn -0.698 0.6653 -0.265
vn -0.575 0.7903 -0.2114
vn -0.6399 0.7303 -0.239
vn 0.2274 0.8042 0.5492
vn 0.5491 0.8042 0.2275
vn 0.5491 0.8042 -0.2275
vn 0.2274 0.8042 -0.5492
vn -0.2274 0.8042 -0.5492
vn -0.5491 0.8042 -0.2275
vn 0.2972 0.6303 0.7173
vn 0.7173 0.6303 0.297
vn 0.7173 0.6303 -0.297
vn 0.2972 0.6303 -0.7173
vn -0.2972 0.6303 -0.7173
vn -0.7173 0.6303 -0.297
vn 0.3827 0.0 0.9239
vn 0.9239 0.0 0.3826
vn 0.9239 0.0 -0.3826
vn 0.3827 0.0 -0.9239
vn -0.3828 0.0 -0.9238
vn -0.9239 0.0 -0.3826
vn -0.8483 0.4106 0.3342
vn -0.6219 0.7482 0.2311
vn -0.575 0.7904 0.2114
vn -0.6399 0.7303 0.239
vn -0.7704 0.5643 0.2968
vn -0.3343 0.4106 0.8483
vn -0.2311 0.7482 0.6219
vn -0.5035 0.8445 0.1824
vn -0.8141 0.4594 0.3551
vn -0.3551 0.4594 0.8142
vn -0.1825 0.8445 0.5034
vn -0.2649 0.6653 0.698
vn -0.2968 0.5643 0.7704
vn -0.698 0.6653 0.265
vn -0.2114 0.7904 0.575
vn -0.239 0.7304 0.6399
vn -0.5491 0.8042 0.2275
vn -0.2275 0.8042 0.5491
vn -0.7173 0.6303 0.2971
vn -0.2971 0.6303 0.7173
vn -0.9239 0.0 0.3828
vn -0.3826 0.0 0.9239
vtan 0.4241 -0.9049 0.0351
vtan 0.4235 -0.9051 -0.0371
vtan 0.783 -0.5904 0.1957
vtan 0.7697 -0.6383 -0.005
vtan 0.5586 -0.8113 0.1725
vtan 0.9425 -0.3307 0.0477
vtan 0.6817 -0.7232 0.1109
vtan 0.4997 -0.8658 -0.0254
vtan 0.8583 -0.5132 0.0066
vtan 0.9601 -0.2634 0.0939
vtan 0.5869 -0.8095 0.0156
vtan 0.7466 -0.6401 0.1812
vtan 0.833 -0.5225 0.1819
vtan 0.6823 -0.7302 0.0359
vtan 0.9333 -0.3379 0.1213
vtan 0.8074 -0.5899 0.0091
vtan 0.7448 -0.666 0.0413
vtan 0.869 -0.4549 0.1946
vtan 0.8047 -0.593 -0.028
vtan 0.7462 -0.6648 -0.0336
vtan 0.5827 -0.812 -0.0313
vtan 0.5015 -0.4205 0.7561
vtan 0.9423 -0.1287 0.309
vtan 0.9729 -0.1761 0.1497
vtan 0.8609 -0.5083 0.023
vtan 0.5771 -0.5724 0.5825
vtan 0.9332 -0.2266 0.279
vtan 0.9777 -0.2102 0.0017
vtan 0.9603 -0.2475 0.1285
vtan 0.9536 -0.2187 0.2072
vtan 0.636 -0.6467 0.4211
vtan 0.716 -0.6422 0.2738
vtan 0.7666 -0.6282 0.1327
vtan 0.8152 -0.5754 0.0664
vtan 0.9707 -0.2385 0.0291
vtan 0.9636 -0.26 0.0632
vtan 0.9347 0.1587 -0.318
vtan 0.9775 0.2109 -0.0004
vtan 0.9603 0.2475 -0.1285
vtan 0.9533 0.2219 -0.2048
vtan 0.9639 0.2583 -0.0652
vtan 0.9694 0.2446 -0.0203
vtan 0.9413 0.1908 -0.2785
vtan 0.5182 0.5141 -0.6835
vtan 0.7748 0.5452 -0.3202
vtan 0.9729 0.1832 -0.1412
vtan 0.5573 0.4462 -0.7003
vtan 0.8618 0.5059 -0.0367
vtan 0.6342 0.6297 -0.4486
vtan 0.716 0.6422 -0.2738
vtan 0.8134 0.5801 -0.0438
vtan 0.7667 0.6279 -0.1341
vtan 0.4676 -0.8813 -0.0683
vtan 0.8561 -0.5161 -0.0264
vtan 0.6816 -0.7307 -0.039
vtan 0.8215 -0.4613 0.3352
vtan 0.8164 -0.5744 0.0602
vtan 0.8251 -0.5649 -0.0056
vtan 0.9656 -0.113 0.2344
vtan 0.9642 0.1071 -0.2424
vtan 0.7662 -0.3757 0.5213
vtan 0.7565 0.3626 -0.5442
vtan 0.9546 -0.2129 -0.2084
vtan 0.6553 -0.7551 0.0199
vtan 0.6378 -0.7656 -0.0842
vtan 0.947 -0.0984 0.3059
vtan 0.945 0.0869 -0.3152
vtan 0.6322 -0.4094 0.6578
vtan 0.6331 0.4114 -0.6557
vtan 0.2412 -0.7764 0.5823
vtan 0.0 -1.0 0.0
vtan 0.9237 -0.0197 0.3827
vtan 0.9238 0.0 -0.3828
vtan 0.3826 0.0 0.9239
vtan 0.3823 0.0373 -0.9233
vtan -0.4258 -0.9043 -0.0304
vtan -0.4235 -0.9051 0.0371
vtan -0.7261 -0.6615 0.1875
vtan -0.7317 -0.6604 -0.1689
vtan -0.8033 -0.5944 -0.037
vtan -0.8047 -0.593 0.028
vtan -0.7462 -0.6648 0.0336
vtan -0.7462 -0.6648 -0.0335
vtan -0.5828 -0.812 -0.0313
vtan -0.5828 -0.812 0.0313
vtan -0.7279 -0.4437 -0.5228
vtan -0.5014 -0.4205 -0.7561
vtan -0.9423 -0.1287 -0.309
vtan -0.9729 -0.1817 -0.1428
vtan -0.8609 -0.5083 -0.023
vtan -0.5771 -0.5724 -0.5825
vtan -0.9331 -0.2267 -0.279
vtan -0.9777 -0.2102 -0.0017
vtan -0.9603 -0.2475 -0.1285
vtan -0.9535 -0.2186 -0.2073
vtan -0.6359 -0.6466 -0.4212
vtan -0.716 -0.6421 -0.2738
vtan -0.7666 -0.6282 -0.1327
vtan -0.8152 -0.5753 -0.0664
vtan -0.9707 -0.2384 -0.0291
vtan -0.9636 -0.26 -0.0632
vtan -0.9349 0.1745 0.3092
vtan -0.9832 0.1567 0.0936
vtan -0.9643 0.1828 0.1917
vtan -0.9549 0.1754 0.2395
vtan -0.971 0.1795 0.1577
vtan -0.9774 0.1706 0.1248
vtan -0.9425 0.1456 0.3009
vtan -0.9729 0.1777 0.1477
vtan -0.4686 -0.881 -0.0656
vtan -0.4676 -0.8813 0.0683
vtan -0.8561 -0.5162 0.0264
vtan -0.8564 -0.5158 -0.0242
vtan -0.6816 -0.7307 -0.0392
vtan -0.6816 -0.7307 0.039
vtan -0.8242 -0.5662 -0.0121
vtan -0.8251 -0.565 0.0056
vtan -0.9655 -0.113 -0.2344
vtan -0.9738 0.1878 0.1283
vtan -0.7662 -0.3757 -0.5213
vtan -0.637 -0.766 -0.0871
vtan -0.6378 -0.7656 0.0842
vtan -0.947 -0.0983 -0.3058
vtan -0.9548 0.1962 0.2232
vtan -0.6323 -0.4095 -0.6577
vtan -0.9237 -0.0197 -0.3825
vtan -0.9239 0.0 0.3827
vtan -0.3828 0.0 -0.9239
vtan 0.7828 0.5868 0.207
vtan 0.9729 0.1747 0.1513
f 0/0/0/0 1/1/1/1 2/2/2/2 
f 0/0/0/0 2/2/2/2 3/3/3/3 
f 4/4/4/4 0/0/0/0 3/3/3/3 
f 4/4/4/4 3/3/3/3 5/5/5/5 
f 6/6/6/6 7/7/7/7 8/8/8/8 
f 6/6/6/6 8/8/8/8 9/9/9/9 
f 10/10/10/10 11/11/11/11 12/12/12/12 
f 10/10/10/10 12/12/12/12 13/13/13/13 
f 14/14/14/14 15/15/15/15 16/16/16/16 
f 14/14/14/14 16/16/16/16 17/17/17/17 
f 9/9/9/9 8/8/8/8 15/15/15/15 
f 9/9/9/9 15/15/15/15 14/14/14/14 
f 13/13/13/13 12/12/12/12 17/17/17/17 
f 13/13/13/13 17/17/17/17 16/16/16/16 
f 0/0/0/0 4/4/4/4 11/11/11/11 
f 0/0/0/0 11/11/11/11 10/10/10/10 
f 15/15/15/15 18/18/18/18 19/19/19/19 
f 15/15/15/15 19/19/19/19 16/16/16/16 
f 1/1/1/1 0/0/0/0 10/10/10/10 
f 1/1/1/1 10/10/10/10 20/20/20/20 
f 2/2/2/2 1/21/1/21 21/22/21/22 
f 2/2/2/2 21/22/21/22 22/23/22/23 
f 23/24/23/24 24/25/24/25 25/26/25/26 
f 23/24/23/24 25/26/25/26 26/27/26/27 
f 27/28/27/28 28/29/28/29 20/30/20/30 
f 27/28/27/28 20/30/20/30 29/31/29/31 
f 19/32/19/32 18/33/18/33 30/34/30/34 
f 19/32/19/32 30/34/30/34 31/35/31/35 
f 18/33/18/33 23/24/23/24 26/27/26/27 
f 18/33/18/33 26/27/26/27 30/34/30/34 
f 31/35/31/35 27/28/27/28 29/31/29/31 
f 31/35/31/35 29/31/29/31 19/32/19/32 
f 28/29/28/29 21/22/21/22 1/21/1/21 
f 28/29/28/29 1/21/1/21 20/30/20/30 
f 26/27/26/27 25/26/25/26 32/36/32/36 
f 26/27/26/27 32/36/32/36 33/37/33/37 
f 28/29/28/29 27/28/27/28 34/38/34/38 
f 28/29/28/29 34/38/34/38 35/39/35/39 
f 36/40/36/40 31/35/31/35 30/34/30/34 
f 36/40/36/40 30/34/30/34 37/41/37/41 
f 27/28/27/28 31/35/31/35 36/40/36/40 
f 27/28/27/28 36/40/36/40 34/38/34/38 
f 30/34/30/34 26/27/26/27 33/37/33/37 
f 30/34/30/34 33/37/33/37 37/41/37/41 
f 21/22/21/22 28/29/28/29 35/39/35/39 
f 21/22/21/22 35/39/35/39 38/42/38/42 
f 38/42/38/42 39/43/39/43 40/44/40/44 
f 38/42/38/42 40/44/40/44 41/45/41/45 
f 32/36/32/36 42/46/42/46 43/47/43/47 
f 32/36/32/36 43/47/43/47 33/37/33/37 
f 44/48/44/48 35/39/35/39 34/38/34/38 
f 44/48/44/48 34/38/34/38 45/49/45/49 
f 37/41/37/41 46/50/46/50 47/51/47/51 
f 37/41/37/41 47/51/47/51 36/40/36/40 
f 33/37/33/37 43/47/43/47 46/50/46/50 
f 33/37/33/37 46/50/46/50 37/41/37/41 
f 45/49/45/49 34/38/34/38 36/40/36/40 
f 45/49/45/49 36/40/36/40 47/51/47/51 
f 39/43/39/43 38/42/38/42 35/39/35/39 
f 39/43/39/43 35/39/35/39 44/48/44/48 
f 41/45/41/45 22/23/22/23 21/22/21/22 
f 41/45/41/45 21/22/21/22 38/42/38/42 
f 7/7/7/7 24/52/24/52 23/53/23/53 
f 7/7/7/7 23/53/23/53 8/8/8/8 
f 13/13/13/13 29/54/29/54 20/20/20/20 
f 13/13/13/13 20/20/20/20 10/10/10/10 
f 16/16/16/16 19/19/19/19 29/54/29/54 
f 16/16/16/16 29/54/29/54 13/13/13/13 
f 8/8/8/8 23/53/23/53 18/18/18/18 
f 8/8/8/8 18/18/18/18 15/15/15/15 
f 48/55/48/55 49/56/49/56 7/7/7/7 
f 48/55/48/55 7/7/7/7 6/6/6/6 
f 7/7/7/7 49/56/49/56 50/57/50/57 
f 7/7/7/7 50/57/50/57 24/52/24/52 
f 51/58/51/58 52/59/52/59 32/36/32/36 
f 51/58/51/58 32/36/32/36 25/26/25/26 
f 50/60/50/60 51/58/51/58 25/26/25/26 
f 50/60/50/60 25/26/25/26 24/25/24/25 
f 52/59/52/59 53/61/53/61 42/46/42/46 
f 52/59/52/59 42/46/42/46 32/36/32/36 
f 54/62/54/62 55/63/55/63 49/56/49/56 
f 54/62/54/62 49/56/49/56 48/55/48/55 
f 55/63/55/63 56/64/56/64 50/57/50/57 
f 55/63/55/63 50/57/50/57 49/56/49/56 
f 57/65/57/65 58/66/58/66 52/59/52/59 
f 57/65/57/65 52/59/52/59 51/58/51/58 
f 56/67/56/67 57/65/57/65 51/58/51/58 
f 56/67/56/67 51/58/51/58 50/60/50/60 
f 58/66/58/66 59/68/59/68 53/61/53/61 
f 58/66/58/66 53/61/53/61 52/59/52/59 
f 54/69/54/69 60/70/60/70 61/71/61/70 
f 54/69/54/69 61/71/61/70 55/63/55/63 
f 55/63/55/63 61/71/61/70 62/72/62/70 
f 55/63/55/63 62/72/62/70 56/64/56/64 
f 57/65/57/65 63/73/63/71 64/74/64/72 
f 57/65/57/65 64/74/64/72 58/66/58/66 
f 56/67/56/67 62/75/62/73 63/73/63/71 
f 56/67/56/67 63/73/63/71 57/65/57/65 
f 58/66/58/66 64/74/64/72 65/76/65/74 
f 58/66/58/66 65/76/65/74 59/68/59/68 
f 39/0/39/75 66/1/66/76 67/2/67/77 
f 39/0/39/75 67/2/67/77 40/3/40/78 
f 46/15/46/79 68/18/68/80 69/19/69/81 
f 46/15/46/79 69/19/69/81 47/16/47/82 
f 44/10/44/83 70/20/70/84 66/1/66/76 
f 44/10/44/83 66/1/66/76 39/0/39/75 
f 67/2/67/85 66/21/66/86 71/22/71/87 
f 67/2/67/85 71/22/71/87 72/23/72/88 
f 73/24/73/89 74/25/74/90 75/26/75/91 
f 73/24/73/89 75/26/75/91 76/27/76/92 
f 77/28/77/93 78/29/78/94 70/30/70/95 
f 77/28/77/93 70/30/70/95 79/31/79/96 
f 69/32/69/97 68/33/68/98 80/34/80/99 
f 69/32/69/97 80/34/80/99 81/35/81/100 
f 68/33/68/98 73/24/73/89 76/27/76/92 
f 68/33/68/98 76/27/76/92 80/34/80/99 
f 81/35/81/100 77/28/77/93 79/31/79/96 
f 81/35/81/100 79/31/79/96 69/32/69/97 
f 78/29/78/94 71/22/71/87 66/21/66/86 
f 78/29/78/94 66/21/66/86 70/30/70/95 
f 76/27/76/92 75/26/75/91 6/36/6/101 
f 76/27/76/92 6/36/6/101 9/37/9/102 
f 78/29/78/94 77/28/77/93 12/38/12/103 
f 78/29/78/94 12/38/12/103 11/39/11/104 
f 17/40/17/105 81/35/81/100 80/34/80/99 
f 17/40/17/105 80/34/80/99 14/41/14/106 
f 77/28/77/93 81/35/81/100 17/40/17/105 
f 77/28/77/93 17/40/17/105 12/38/12/103 
f 80/34/80/99 76/27/76/92 9/37/9/102 
f 80/34/80/99 9/37/9/102 14/41/14/106 
f 71/22/71/87 78/29/78/94 11/39/11/104 
f 71/22/71/87 11/39/11/104 4/42/4/107 
f 5/45/5/108 72/23/72/88 71/22/71/87 
f 5/45/5/108 71/22/71/87 4/42/4/107 
f 42/7/42/109 74/52/74/110 73/53/73/111 
f 42/7/42/109 73/53/73/111 43/8/43/112 
f 45/13/45/113 79/54/79/114 70/20/70/84 
f 45/13/45/113 70/20/70/84 44/10/44/83 
f 47/16/47/82 69/19/69/81 79/54/79/114 
f 47/16/47/82 79/54/79/114 45/13/45/113 
f 43/8/43/112 73/53/73/111 68/18/68/80 
f 43/8/43/112 68/18/68/80 46/15/46/79 
f 42/7/42/109 53/56/53/115 82/57/82/116 
f 42/7/42/109 82/57/82/116 74/52/74/110 
f 83/58/83/117 48/59/48/118 6/36/6/101 
f 83/58/83/117 6/36/6/101 75/26/75/91 
f 82/60/82/119 83/58/83/117 75/26/75/91 
f 82/60/82/119 75/26/75/91 74/25/74/90 
f 59/63/59/120 84/64/84/121 82/57/82/116 
f 59/63/59/120 82/57/82/116 53/56/53/115 
f 85/65/85/122 54/66/54/123 48/59/48/118 
f 85/65/85/122 48/59/48/118 83/58/83/117 
f 84/67/84/124 85/65/85/122 83/58/83/117 
f 84/67/84/124 83/58/83/117 82/60/82/119 
f 59/63/59/120 65/71/65/70 86/72/86/70 
f 59/63/59/120 86/72/86/70 84/64/84/121 
f 85/65/85/122 87/73/87/125 60/74/60/126 
f 85/65/85/122 60/74/60/126 54/66/54/123 
f 84/67/84/124 86/75/86/127 87/73/87/125 
f 84/67/84/124 87/73/87/125 85/65/85/122 
f 40/44/40/44 67/77/67/128 72/78/72/129 
f 40/44/40/44 72/78/72/129 41/45/41/45 
f 72/78/72/129 5/5/5/5 3/3/3/3 
f 72/78/72/129 3/3/3/3 41/45/41/45 
f 3/3/3/3 2/2/2/2 22/23/22/23 
f 3/3/3/3 22/23/22/23 41/45/41/45 
