v -264.6123 1261.4871 182.2711
v -264.6125 1261.4871 197.7681
v -268.3778 1260.4785 197.7681
v -268.3778 1260.4785 182.2711
v -271.1335 1257.7228 197.7681
v -271.1335 1257.7228 182.2711
v -272.1421 1253.9584 197.7681
v -272.1421 1253.9584 182.2711
v -271.4805 1251.4889 197.7681
v -271.4805 1251.4889 182.2711
v -277.7144 1251.1418 182.2711
v -277.7144 1251.1418 197.7681
v -280.4701 1248.3862 197.7681
v -280.4701 1248.3862 182.2711
v -273.95 1252.1506 182.2711
v -273.95 1252.1506 197.7681
v -260.8473 1260.4785 182.2711
v -260.8473 1260.4785 197.7681
v -258.0916 1257.7228 182.2711
v -258.0916 1257.7228 197.7681
v -257.0829 1253.9584 182.2711
v -257.0829 1253.9584 197.7681
v -257.7446 1251.4889 182.2711
v -257.7446 1251.4889 197.7681
v -247.7844 1244.7637 182.2711
v -247.7844 1244.7637 197.7681
v -248.755 1248.3862 197.7681
v -248.755 1248.3862 182.2711
v -251.5107 1251.1418 197.7681
v -251.5107 1251.1418 182.2711
v -255.2751 1252.1506 197.7681
v -255.2751 1252.1506 182.2711
v -281.4407 1244.7637 197.7681
v -281.4407 1244.7637 182.2711
v -268.3778 1229.049 182.2711
v -268.3778 1229.049 197.7681
v -264.6125 1228.0404 197.7681
v -264.6125 1228.0404 182.2711
v -271.1335 1231.8047 182.2711
v -271.1335 1231.8047 197.7681
v -272.1421 1235.5691 182.2711
v -272.1421 1235.5691 197.7681
v -271.4805 1238.0386 182.2711
v -271.4805 1238.0386 197.7681
v -280.4701 1241.1412 182.2711
v -280.4701 1241.1412 197.7681
v -277.7144 1238.3855 197.7681
v -277.7144 1238.3855 182.2711
v -273.95 1237.3768 197.7681
v -273.95 1237.3768 182.2711
v -260.8473 1229.049 197.7681
v -260.8473 1229.049 182.2711
v -258.0916 1231.8047 197.7681
v -258.0916 1231.8047 182.2711
v -257.0829 1235.5691 197.7681
v -257.0829 1235.5691 182.2711
v -257.7446 1238.0386 197.7681
v -257.7446 1238.0386 182.2711
v -251.5107 1238.3855 182.2711
v -251.5107 1238.3855 197.7681
v -248.755 1241.1412 197.7681
v -248.755 1241.1412 182.2711
v -255.2751 1237.3768 182.2711
v -255.2751 1237.3768 197.7681
v -247.9296 1238.7134 182.2711
v -251.6802 1232.5804 182.2711
v -257.5596 1228.4437 182.2711
v -246.9255 1245.8318 182.2711
v -248.5825 1252.2522 182.2711
v -252.4848 1257.613 182.2711
v -258.0853 1261.1631 182.2711
v -264.5989 1262.4043 182.2711
v -271.1123 1261.1631 182.2711
v -276.7129 1257.613 182.2711
v -280.6151 1252.2522 182.2711
v -282.2722 1245.8318 182.2711
v -281.2681 1238.7134 182.2711
v -277.5173 1232.5804 182.2711
v -271.6381 1228.4436 182.2711
v -264.5989 1226.9846 182.2711
gi 0 0 0 0
gi 0 0 0 0
gi 0 0 0 0
gi 0 0 0 0
gi 0 0 0 0
gi 0 0 0 0
gi 0 0 0 0
gi 0 0 0 0
gi 0 0 0 0
gi 0 0 0 0
gi 0 0 0 0
gi 0 0 0 0
gi 0 0 0 0
gi 0 0 0 0
gi 0 0 0 0
gi 0 0 0 0
gi 0 0 0 0
gi 0 0 0 0
gi 0 0 0 0
gi 0 0 0 0
gi 0 0 0 0
gi 0 0 0 0
gi 0 0 0 0
gi 0 0 0 0
gi 0 0 0 0
gi 0 0 0 0
gi 0 0 0 0
gi 0 0 0 0
gi 0 0 0 0
gi 0 0 0 0
gi 0 0 0 0
gi 0 0 0 0
gi 0 0 0 0
gi 0 0 0 0
gi 0 0 0 0
gi 0 0 0 0
gi 0 0 0 0
gi 0 0 0 0
gi 0 0 0 0
gi 0 0 0 0
gi 0 0 0 0
gi 0 0 0 0
gi 0 0 0 0
gi 0 0 0 0
gi 0 0 0 0
gi 0 0 0 0
gi 0 0 0 0
gi 0 0 0 0
gi 0 0 0 0
gi 0 0 0 0
gi 0 0 0 0
gi 0 0 0 0
gi 0 0 0 0
gi 0 0 0 0
gi 0 0 0 0
gi 0 0 0 0
gi 0 0 0 0
gi 0 0 0 0
gi 0 0 0 0
gi 0 0 0 0
gi 0 0 0 0
gi 0 0 0 0
gi 0 0 0 0
gi 0 0 0 0
gi 0 0 0 0
gi 0 0 0 0
gi 0 0 0 0
gi 0 0 0 0
gi 0 0 0 0
gi 0 0 0 0
gi 0 0 0 0
gi 0 0 0 0
gi 0 0 0 0
gi 0 0 0 0
gi 0 0 0 0
gi 0 0 0 0
gi 0 0 0 0
gi 0 0 0 0
gi 0 0 0 0
gi 0 0 0 0
gw 0.0 0.0 0.0 0.0
gw 0.0 0.0 0.0 0.0
gw 0.0 0.0 0.0 0.0
gw 0.0 0.0 0.0 0.0
gw 0.0 0.0 0.0 0.0
gw 0.0 0.0 0.0 0.0
gw 0.0 0.0 0.0 0.0
gw 0.0 0.0 0.0 0.0
gw 0.0 0.0 0.0 0.0
gw 0.0 0.0 0.0 0.0
gw 0.0 0.0 0.0 0.0
gw 0.0 0.0 0.0 0.0
gw 0.0 0.0 0.0 0.0
gw 0.0 0.0 0.0 0.0
gw 0.0 0.0 0.0 0.0
gw 0.0 0.0 0.0 0.0
gw 0.0 0.0 0.0 0.0
gw 0.0 0.0 0.0 0.0
gw 0.0 0.0 0.0 0.0
gw 0.0 0.0 0.0 0.0
gw 0.0 0.0 0.0 0.0
gw 0.0 0.0 0.0 0.0
gw 0.0 0.0 0.0 0.0
gw 0.0 0.0 0.0 0.0
gw 0.0 0.0 0.0 0.0
gw 0.0 0.0 0.0 0.0
gw 0.0 0.0 0.0 0.0
gw 0.0 0.0 0.0 0.0
gw 0.0 0.0 0.0 0.0
gw 0.0 0.0 0.0 0.0
gw 0.0 0.0 0.0 0.0
gw 0.0 0.0 0.0 0.0
gw 0.0 0.0 0.0 0.0
gw 0.0 0.0 0.0 0.0
gw 0.0 0.0 0.0 0.0
gw 0.0 0.0 0.0 0.0
gw 0.0 0.0 0.0 0.0
gw 0.0 0.0 0.0 0.0
gw 0.0 0.0 0.0 0.0
gw 0.0 0.0 0.0 0.0
gw 0.0 0.0 0.0 0.0
gw 0.0 0.0 0.0 0.0
gw 0.0 0.0 0.0 0.0
gw 0.0 0.0 0.0 0.0
gw 0.0 0.0 0.0 0.0
gw 0.0 0.0 0.0 0.0
gw 0.0 0.0 0.0 0.0
gw 0.0 0.0 0.0 0.0
gw 0.0 0.0 0.0 0.0
gw 0.0 0.0 0.0 0.0
gw 0.0 0.0 0.0 0.0
gw 0.0 0.0 0.0 0.0
gw 0.0 0.0 0.0 0.0
gw 0.0 0.0 0.0 0.0
gw 0.0 0.0 0.0 0.0
gw 0.0 0.0 0.0 0.0
gw 0.0 0.0 0.0 0.0
gw 0.0 0.0 0.0 0.0
gw 0.0 0.0 0.0 0.0
gw 0.0 0.0 0.0 0.0
gw 0.0 0.0 0.0 0.0
gw 0.0 0.0 0.0 0.0
gw 0.0 0.0 0.0 0.0
gw 0.0 0.0 0.0 0.0
gw 0.0 0.0 0.0 0.0
gw 0.0 0.0 0.0 0.0
gw 0.0 0.0 0.0 0.0
gw 0.0 0.0 0.0 0.0
gw 0.0 0.0 0.0 0.0
gw 0.0 0.0 0.0 0.0
gw 0.0 0.0 0.0 0.0
gw 0.0 0.0 0.0 0.0
gw 0.0 0.0 0.0 0.0
gw 0.0 0.0 0.0 0.0
gw 0.0 0.0 0.0 0.0
gw 0.0 0.0 0.0 0.0
gw 0.0 0.0 0.0 0.0
gw 0.0 0.0 0.0 0.0
gw 0.0 0.0 0.0 0.0
gw 0.0 0.0 0.0 0.0
vt 0.9551 0.5948
vt 0.8159 0.5948
vt 0.8159 0.6286
vt 0.9551 0.6286
vt 0.8159 0.6533
vt 0.9551 0.6533
vt 0.8159 0.6871
vt 0.9551 0.6871
vt 0.8159 0.7093
vt 0.9551 0.7093
vt 0.9551 0.7626
vt 0.8159 0.7626
vt 0.8159 0.7976
vt 0.9551 0.7976
vt 0.9551 0.7323
vt 0.8159 0.7323
vt 0.9551 0.5609
vt 0.8159 0.5609
vt 0.9551 0.5362
vt 0.8159 0.5362
vt 0.9551 0.5024
vt 0.8159 0.5024
vt 0.9551 0.4802
vt 0.8159 0.4802
vt 0.9551 0.3613
vt 0.8159 0.3613
vt 0.8159 0.395
vt 0.9551 0.395
vt 0.8159 0.4253
vt 0.9551 0.4253
vt 0.8159 0.4603
vt 0.9551 0.4603
vt 0.8159 0.8268
vt 0.9551 0.8268
vt 0.9551 0.0879
vt 0.8159 0.0879
vt 0.8159 0.1217
vt 0.9551 0.1217
vt 0.9551 0.0529
vt 0.8159 0.0529
vt 0.9551 0.0226
vt 0.8159 0.0226
vt 0.9551 0.9442
vt 0.8159 0.9442
vt 0.8159 0.9672
vt 0.9551 0.9672
vt 0.9551 0.856
vt 0.8159 0.856
vt 0.8159 0.891
vt 0.9551 0.891
vt 0.8159 0.9213
vt 0.9551 0.9213
vt 0.8159 0.1556
vt 0.9551 0.1556
vt 0.8159 0.1906
vt 0.9551 0.1906
vt 0.8159 0.2209
vt 0.9551 0.2209
vt 0.8159 0.2438
vt 0.9551 0.2438
vt 0.9551 0.2971
vt 0.8159 0.2971
vt 0.8159 0.3321
vt 0.9551 0.3321
vt 0.9551 0.2668
vt 0.8159 0.2668
vt 0.5804 0.6036
vt 0.546 0.5976
vt 0.5524 0.6197
vt 0.6117 0.6454
vt 0.6133 0.5916
vt 0.6762 0.6454
vt 0.5201 0.576
vt 0.5083 0.5726
vt 0.5085 0.5443
vt 0.4873 0.5168
vt 0.5146 0.5098
vt 0.4883 0.4573
vt 0.537 0.483
vt 0.5111 0.4022
vt 0.541 0.4604
vt 0.5289 0.4275
vt 0.5349 0.393
vt 0.5526 0.3595
vt 0.5574 0.3662
vt 0.5903 0.3541
vt 0.6068 0.335
vt 0.6248 0.3601
vt 0.6663 0.3321
vt 0.6516 0.3826
vt 0.7227 0.3514
vt 0.6742 0.3865
vt 0.7071 0.3745
vt 0.7416 0.3805
vt 0.7674 0.4021
vt 0.768 0.39
vt 0.779 0.4338
vt 0.7974 0.4475
vt 0.773 0.4682
vt 0.8015 0.5119
vt 0.7506 0.4951
vt 0.7797 0.5727
vt 0.7466 0.5177
vt 0.7586 0.5506
vt 0.7526 0.5851
vt 0.7355 0.6198
vt 0.7302 0.6119
vt 0.6973 0.624
vt 0.6628 0.618
vt 0.6359 0.5955
vt 0.6595 0.4042
vt 0.5586 0.4751
vt 0.729 0.503
vt 0.628 0.5739
vn -0.0 -0.6377 -0.7702
vn 0.0 -1.0 0.0
vn 0.5 -0.866 0.0
vn 0.3188 -0.5523 -0.7703
vn 0.866 -0.5 0.0
vn 0.5523 -0.3188 -0.7703
vn 1.0 -0.0 0.0
vn 0.6378 -0.0 -0.7702
vn 0.7071 -0.7071 0.0
vn 0.5883 -0.5884 -0.5547
vn 0.3189 -0.5523 -0.7703
vn 0.5 -0.866 0.0
vn 0.866 -0.5 0.0
vn 0.5523 -0.3189 -0.7703
vn 0.0 -0.6377 -0.7703
vn 0.0 -1.0 0.0
vn -0.353 -0.6115 -0.7081
vn -0.5 -0.866 0.0
vn -0.5523 -0.3189 -0.7703
vn -0.866 -0.5 0.0
vn -0.6377 0.0 -0.7703
vn -1.0 -0.0 0.0
vn -0.5883 -0.5884 -0.5547
vn -0.7071 -0.7071 0.0
vn -0.6377 0.0 -0.7703
vn -1.0 -0.0 0.0
vn -0.866 -0.5 0.0
vn -0.5523 -0.3189 -0.7703
vn -0.5 -0.866 0.0
vn -0.3189 -0.5523 -0.7703
vn -0.0 -1.0 0.0
vn -0.0 -0.6377 -0.7703
vn 1.0 0.0 0.0
vn 0.6377 -0.0 -0.7703
vn 0.35 0.6064 -0.714
vn 0.5 0.866 0.0
vn -0.0 1.0 0.0
vn 0.0 0.6377 -0.7702
vn 0.5523 0.3189 -0.7703
vn 0.866 0.5 0.0
vn 0.6377 0.0 -0.7703
vn 1.0 0.0 0.0
vn 0.5883 0.5884 -0.5547
vn 0.7071 0.7071 0.0
vn 0.5523 0.3189 -0.7703
vn 0.866 0.5 0.0
vn 0.5 0.866 0.0
vn 0.3189 0.5523 -0.7703
vn -0.0 1.0 0.0
vn 0.0 0.6377 -0.7703
vn -0.5 0.866 0.0
vn -0.3188 0.5523 -0.7703
vn -0.866 0.5 0.0
vn -0.5523 0.3189 -0.7703
vn -1.0 -0.0 0.0
vn -0.6377 0.0 -0.7703
vn -0.7071 0.7071 0.0
vn -0.5884 0.5883 -0.5547
vn -0.3189 0.5523 -0.7703
vn -0.5 0.866 0.0
vn -0.866 0.5 0.0
vn -0.5523 0.3189 -0.7703
vn 0.0 0.6377 -0.7703
vn 0.0 1.0 0.0
vn 0.0 0.0 -1.0
vn -0.0 0.0 -1.0
vn -0.0 0.0 -1.0
vn 0.0 0.0 -1.0
vn -0.0 0.0 -1.0
vn 0.0 0.0 -1.0
vn 0.0 0.0 -1.0
vn -0.0 0.0 -1.0
vn -0.0 0.0 -1.0
vn 0.0 0.0 -1.0
vn -0.0 0.0 -1.0
vn -0.0 0.0 -1.0
vtan 0.0 0.7702 -0.6377
vtan 0.0 0.0 -1.0
vtan 0.0 0.0 -1.0
vtan -0.3851 0.6671 -0.6377
vtan 0.0 0.0 -1.0
vtan -0.6671 0.3851 -0.6377
vtan -0.7702 0.0 -0.6378
vtan -0.3922 0.3922 -0.8321
vtan -0.3851 0.6671 -0.6377
vtan -0.6671 0.3851 -0.6377
vtan -0.0 0.7703 -0.6377
vtan 0.354 0.6132 -0.7061
vtan 0.6671 0.3851 -0.6377
vtan 0.7703 -0.0 -0.6377
vtan 0.3922 0.3922 -0.8321
vtan 0.7703 -0.0 -0.6377
vtan 0.6671 0.3851 -0.6377
vtan 0.3851 0.6671 -0.6377
vtan 0.0 0.7703 -0.6377
vtan -0.7703 0.0 -0.6377
vtan -0.357 -0.6184 -0.7002
vtan -0.0 -0.7702 -0.6377
vtan -0.6671 -0.3851 -0.6377
vtan -0.7703 -0.0 -0.6377
vtan -0.3922 -0.3922 -0.8321
vtan -0.6671 -0.3851 -0.6377
vtan -0.3851 -0.6671 -0.6377
vtan -0.0 -0.7703 -0.6377
vtan 0.3851 -0.6671 -0.6377
vtan 0.6671 -0.3851 -0.6377
vtan 0.7703 -0.0 -0.6377
vtan 0.3922 -0.3922 -0.8321
vtan 0.3851 -0.6671 -0.6377
vtan 0.6671 -0.3851 -0.6377
vtan -0.0 -0.7703 -0.6377
vtan -0.8376 -0.5445 -0.0437
vtan -0.6952 -0.6861 0.2144
vtan -0.8179 -0.5753 0.0
vtan -0.8181 -0.5751 0.0
vtan -0.8791 -0.3671 -0.304
vtan -0.8181 -0.5751 0.0
vtan -0.5681 -0.6753 0.4703
vtan -0.8169 -0.5767 0.0
vtan -0.6024 -0.4861 0.6331
vtan -0.8171 -0.5764 0.0
vtan -0.7763 -0.3141 0.5466
vtan -0.8176 -0.5758 -0.0
vtan -0.8794 -0.3666 0.3036
vtan -0.8188 -0.5741 0.0
vtan -0.5702 -0.6723 0.4721
vtan -0.6074 -0.479 0.6338
vtan -0.7719 -0.2373 0.5898
vtan -0.819 -0.5738 0.0
vtan -0.8802 -0.3655 0.3027
vtan -0.8372 -0.5451 0.0443
vtan -0.8178 -0.5756 -0.0
vtan -0.6953 -0.686 -0.2146
vtan -0.8184 -0.5747 -0.0
vtan -0.5688 -0.6743 -0.471
vtan -0.8183 -0.5748 0.0
vtan -0.8788 -0.3676 0.3043
vtan -0.8374 -0.5448 0.044
vtan -0.6962 -0.6846 -0.2158
vtan -0.5753 -0.665 -0.4763
vtan -0.8201 -0.5722 0.0
vtan -0.6045 -0.4831 -0.6334
vtan -0.8185 -0.5745 0.0
vtan -0.7774 -0.3125 -0.5459
vtan -0.8181 -0.5751 -0.0
vtan -0.8793 -0.3668 -0.3037
vtan -0.818 -0.5752 0.0
vtan -0.5703 -0.6722 -0.4722
vtan -0.6053 -0.4819 -0.6335
vtan -0.7714 -0.2458 -0.5869
vtan -0.82 -0.5723 0.0
vtan -0.8812 -0.3641 -0.3015
vtan -0.8376 -0.5446 -0.0438
vtan -0.6956 -0.6854 0.215
vtan -0.5674 -0.6763 0.4697
vtan -0.7412 -0.6667 -0.079
vtan -0.5856 -0.163 0.794
vtan -0.5856 -0.163 -0.794
vtan -0.7411 -0.6667 0.079
f 0/0/0/0 1/1/1/1 2/2/2/2 
f 0/0/0/0 2/2/2/2 3/3/3/3 
f 3/3/3/3 2/2/2/2 4/4/4/4 
f 3/3/3/3 4/4/4/4 5/5/5/5 
f 5/5/5/5 4/4/4/4 6/6/6/4 
f 5/5/5/5 6/6/6/4 7/7/7/6 
f 7/7/7/6 6/6/6/4 8/8/8/4 
f 7/7/7/6 8/8/8/4 9/9/9/7 
f 10/10/10/8 11/11/11/4 12/12/12/4 
f 10/10/10/8 12/12/12/4 13/13/13/9 
f 14/14/14/10 15/15/15/4 11/11/11/4 
f 14/14/14/10 11/11/11/4 10/10/10/8 
f 9/9/9/7 8/8/8/4 15/15/15/4 
f 9/9/9/7 15/15/15/4 14/14/14/10 
f 1/1/1/1 0/0/0/0 16/16/16/11 
f 1/1/1/1 16/16/16/11 17/17/17/4 
f 18/18/18/12 19/19/19/4 17/17/17/4 
f 18/18/18/12 17/17/17/4 16/16/16/11 
f 20/20/20/13 21/21/21/4 19/19/19/4 
f 20/20/20/13 19/19/19/4 18/18/18/12 
f 22/22/22/14 23/23/23/4 21/21/21/4 
f 22/22/22/14 21/21/21/4 20/20/20/13 
f 24/24/24/15 25/25/25/4 26/26/26/4 
f 24/24/24/15 26/26/26/4 27/27/27/16 
f 27/27/27/16 26/26/26/4 28/28/28/4 
f 27/27/27/16 28/28/28/4 29/29/29/17 
f 29/29/29/17 28/28/28/4 30/30/30/4 
f 29/29/29/17 30/30/30/4 31/31/31/18 
f 31/31/31/18 30/30/30/4 23/23/23/4 
f 31/31/31/18 23/23/23/4 22/22/22/14 
f 13/13/13/9 12/12/12/4 32/32/32/4 
f 13/13/13/9 32/32/32/4 33/33/33/19 
f 34/34/34/20 35/35/35/4 36/36/36/4 
f 34/34/34/20 36/36/36/4 37/37/37/21 
f 38/38/38/22 39/39/39/4 35/35/35/4 
f 38/38/38/22 35/35/35/4 34/34/34/20 
f 40/40/40/23 41/41/41/4 39/39/39/4 
f 40/40/40/23 39/39/39/4 38/38/38/22 
f 42/42/42/24 43/43/43/4 41/44/41/4 
f 42/42/42/24 41/44/41/4 40/45/40/23 
f 44/46/44/25 45/47/45/4 46/48/46/4 
f 44/46/44/25 46/48/46/4 47/49/47/26 
f 47/49/47/26 46/48/46/4 48/50/48/4 
f 47/49/47/26 48/50/48/4 49/51/49/27 
f 49/51/49/27 48/50/48/4 43/43/43/4 
f 49/51/49/27 43/43/43/4 42/42/42/24 
f 37/37/37/21 36/36/36/4 50/52/50/4 
f 37/37/37/21 50/52/50/4 51/53/51/28 
f 51/53/51/28 50/52/50/4 52/54/52/4 
f 51/53/51/28 52/54/52/4 53/55/53/29 
f 53/55/53/29 52/54/52/4 54/56/54/4 
f 53/55/53/29 54/56/54/4 55/57/55/30 
f 55/57/55/30 54/56/54/4 56/58/56/4 
f 55/57/55/30 56/58/56/4 57/59/57/31 
f 58/60/58/32 59/61/59/4 60/62/60/4 
f 58/60/58/32 60/62/60/4 61/63/61/33 
f 62/64/62/34 63/65/63/4 59/61/59/4 
f 62/64/62/34 59/61/59/4 58/60/58/32 
f 57/59/57/31 56/58/56/4 63/65/63/4 
f 57/59/57/31 63/65/63/4 62/64/62/34 
f 33/33/33/19 32/32/32/4 45/47/45/4 
f 33/33/33/19 45/47/45/4 44/46/44/25 
f 61/63/61/33 60/62/60/4 25/25/25/4 
f 61/63/61/33 25/25/25/4 24/24/24/15 
f 58/66/58/35 61/67/61/36 64/68/64/37 
f 58/66/58/35 64/68/64/37 65/69/64/38 
f 62/70/62/39 58/66/58/35 65/69/64/38 
f 62/70/62/39 65/69/64/38 66/71/65/40 
f 61/67/61/36 24/72/24/41 67/73/66/42 
f 61/67/61/36 67/73/66/42 64/68/64/37 
f 67/73/66/42 24/72/24/41 27/74/27/43 
f 67/73/66/42 27/74/27/43 68/75/64/44 
f 68/75/64/44 27/74/27/43 29/76/29/45 
f 68/75/64/44 29/76/29/45 69/77/67/46 
f 69/77/67/46 29/76/29/45 31/78/31/47 
f 69/77/67/46 31/78/31/47 70/79/68/48 
f 31/78/31/47 20/80/20/49 18/81/18/50 
f 31/78/31/47 18/81/18/50 70/79/68/48 
f 70/79/68/48 18/81/18/50 16/82/16/51 
f 70/79/68/48 16/82/16/51 71/83/64/52 
f 71/83/64/52 0/84/0/53 3/85/3/54 
f 71/83/64/52 3/85/3/54 72/86/69/55 
f 72/86/69/55 3/85/3/54 5/87/5/56 
f 72/86/69/55 5/87/5/56 73/88/70/57 
f 73/88/70/57 5/87/5/56 7/89/7/58 
f 73/88/70/57 7/89/7/58 74/90/71/59 
f 7/89/7/58 14/91/14/60 10/92/10/61 
f 7/89/7/58 10/92/10/61 74/90/71/59 
f 13/93/13/62 33/94/33/63 75/95/72/64 
f 13/93/13/62 75/95/72/64 74/90/71/59 
f 75/95/72/64 33/94/33/63 44/96/44/65 
f 75/95/72/64 44/96/44/65 76/97/64/66 
f 76/97/64/66 44/96/44/65 47/98/47/67 
f 76/97/64/66 47/98/47/67 77/99/73/68 
f 77/99/73/68 47/98/47/67 49/100/49/69 
f 77/99/73/68 49/100/49/69 78/101/74/70 
f 49/100/49/69 40/102/40/71 38/103/38/72 
f 49/100/49/69 38/103/38/72 78/101/74/70 
f 34/104/34/73 79/105/75/74 78/101/74/70 
f 34/104/34/73 78/101/74/70 38/103/38/72 
f 79/105/75/74 37/106/37/75 51/107/51/76 
f 79/105/75/74 51/107/51/76 66/71/65/40 
f 53/108/53/77 55/109/55/78 62/70/62/39 
f 53/108/53/77 62/70/62/39 66/71/65/40 
f 7/89/7/58 9/110/9/79 14/91/14/60 
f 10/92/10/61 13/93/13/62 74/90/71/59 
f 16/82/16/51 0/84/0/53 71/83/64/52 
f 22/111/22/80 20/80/20/49 31/78/31/47 
f 34/104/34/73 37/106/37/75 79/105/75/74 
f 42/112/42/81 40/102/40/71 49/100/49/69 
f 51/107/51/76 53/108/53/77 66/71/65/40 
f 55/109/55/78 57/113/57/82 62/70/62/39 
