v -1004.9495 1263.0107 -34.9849
v -1020.4465 1263.0107 -34.9851
v -1020.4465 1262.0022 -38.7505
v -1004.9495 1262.0022 -38.7505
v -1020.4465 1259.2465 -41.5061
v -1004.9495 1259.2465 -41.5061
v -1020.4465 1255.4821 -42.5149
v -1004.9495 1255.4821 -42.5149
v -1020.4465 1253.0126 -41.8532
v -1004.9495 1253.0126 -41.8532
v -1004.9495 1252.6655 -48.0869
v -1020.4465 1252.6655 -48.0869
v -1020.4465 1249.9099 -50.8428
v -1004.9495 1249.9099 -50.8428
v -1004.9495 1253.6743 -44.3225
v -1020.4465 1253.6743 -44.3225
v -1004.9495 1262.0022 -31.2199
v -1020.4465 1262.0022 -31.2199
v -1004.9495 1259.2465 -28.4641
v -1020.4465 1259.2465 -28.4641
v -1004.9495 1255.4821 -27.4555
v -1020.4465 1255.4821 -27.4555
v -1004.9495 1253.0126 -28.1172
v -1020.4465 1253.0126 -28.1172
v -1004.9495 1246.2874 -18.157
v -1020.4465 1246.2874 -18.157
v -1020.4465 1249.9099 -19.1277
v -1004.9495 1249.9099 -19.1277
v -1020.4465 1252.6655 -21.8833
v -1004.9495 1252.6655 -21.8833
v -1020.4465 1253.6743 -25.6477
v -1004.9495 1253.6743 -25.6477
v -1020.4465 1246.2874 -51.8134
v -1004.9495 1246.2874 -51.8134
v -1004.9495 1230.5726 -38.7505
v -1020.4465 1230.5726 -38.7505
v -1020.4465 1229.5641 -34.9851
v -1004.9495 1229.5641 -34.9851
v -1004.9495 1233.3284 -41.5061
v -1020.4465 1233.3284 -41.5061
v -1004.9495 1237.0928 -42.5149
v -1020.4465 1237.0928 -42.5149
v -1004.9495 1239.5623 -41.8532
v -1020.4465 1239.5623 -41.8532
v -1004.9495 1242.6649 -50.8428
v -1020.4465 1242.6649 -50.8428
v -1020.4465 1239.9092 -48.0869
v -1004.9495 1239.9092 -48.0869
v -1020.4465 1238.9005 -44.3225
v -1004.9495 1238.9005 -44.3225
v -1020.4465 1230.5726 -31.2199
v -1004.9495 1230.5726 -31.2199
v -1020.4465 1233.3284 -28.4641
v -1004.9495 1233.3284 -28.4641
v -1020.4465 1237.0928 -27.4555
v -1004.9495 1237.0928 -27.4555
v -1020.4465 1239.5623 -28.1172
v -1004.9495 1239.5623 -28.1172
v -1004.9495 1239.9092 -21.8833
v -1020.4465 1239.9092 -21.8833
v -1020.4465 1242.6649 -19.1277
v -1004.9495 1242.6649 -19.1277
v -1004.9495 1238.9005 -25.6477
v -1020.4465 1238.9005 -25.6477
v -1004.9495 1240.2371 -18.3023
v -1004.9495 1234.1041 -22.0527
v -1004.9495 1229.9674 -27.9321
v -1004.9495 1247.3555 -17.2981
v -1004.9495 1253.7759 -18.9551
v -1004.9495 1259.1367 -22.8574
v -1004.9495 1262.6868 -28.4579
v -1004.9495 1263.928 -34.9714
v -1004.9495 1262.6868 -41.4851
v -1004.9495 1259.1367 -47.0855
v -1004.9495 1253.7759 -50.9877
v -1004.9495 1247.3555 -52.6448
v -1004.9495 1240.2371 -51.6408
v -1004.9495 1234.1041 -47.89
v -1004.9495 1229.9673 -42.0108
v -1004.9495 1228.5083 -34.9714
vt 0.9551 0.5948
vt 0.8159 0.5948
vt 0.8159 0.6286
vt 0.9551 0.6286
vt 0.8159 0.6533
vt 0.9551 0.6533
vt 0.8159 0.6871
vt 0.9551 0.6871
vt 0.8159 0.7093
vt 0.9551 0.7093
vt 0.9551 0.7626
vt 0.8159 0.7626
vt 0.8159 0.7976
vt 0.9551 0.7976
vt 0.9551 0.7323
vt 0.8159 0.7323
vt 0.9551 0.5609
vt 0.8159 0.5609
vt 0.9551 0.5362
vt 0.8159 0.5362
vt 0.9551 0.5024
vt 0.8159 0.5024
vt 0.9551 0.4802
vt 0.8159 0.4802
vt 0.9551 0.3613
vt 0.8159 0.3613
vt 0.8159 0.395
vt 0.9551 0.395
vt 0.8159 0.4253
vt 0.9551 0.4253
vt 0.8159 0.4603
vt 0.9551 0.4603
vt 0.8159 0.8268
vt 0.9551 0.8268
vt 0.9551 0.0879
vt 0.8159 0.0879
vt 0.8159 0.1217
vt 0.9551 0.1217
vt 0.9551 0.0529
vt 0.8159 0.0529
vt 0.9551 0.0226
vt 0.8159 0.0226
vt 0.9551 0.9442
vt 0.8159 0.9442
vt 0.8159 0.9672
vt 0.9551 0.9672
vt 0.9551 0.856
vt 0.8159 0.856
vt 0.8159 0.891
vt 0.9551 0.891
vt 0.8159 0.9213
vt 0.9551 0.9213
vt 0.8159 0.1556
vt 0.9551 0.1556
vt 0.8159 0.1906
vt 0.9551 0.1906
vt 0.8159 0.2209
vt 0.9551 0.2209
vt 0.8159 0.2438
vt 0.9551 0.2438
vt 0.9551 0.2971
vt 0.8159 0.2971
vt 0.8159 0.3321
vt 0.9551 0.3321
vt 0.9551 0.2668
vt 0.8159 0.2668
vt 0.5804 0.6036
vt 0.546 0.5976
vt 0.5524 0.6197
vt 0.6117 0.6454
vt 0.6133 0.5916
vt 0.6762 0.6454
vt 0.5201 0.576
vt 0.5083 0.5726
vt 0.5085 0.5443
vt 0.4873 0.5168
vt 0.5146 0.5098
vt 0.4883 0.4573
vt 0.537 0.483
vt 0.5111 0.4022
vt 0.541 0.4604
vt 0.5289 0.4275
vt 0.5349 0.393
vt 0.5526 0.3595
vt 0.5574 0.3662
vt 0.5903 0.3541
vt 0.6068 0.335
vt 0.6248 0.3601
vt 0.6663 0.3321
vt 0.6516 0.3826
vt 0.7227 0.3514
vt 0.6742 0.3865
vt 0.7071 0.3745
vt 0.7416 0.3805
vt 0.7674 0.4021
vt 0.768 0.39
vt 0.779 0.4338
vt 0.7974 0.4475
vt 0.773 0.4682
vt 0.8015 0.5119
vt 0.7506 0.4951
vt 0.7797 0.5727
vt 0.7466 0.5177
vt 0.7586 0.5506
vt 0.7526 0.5851
vt 0.7355 0.6198
vt 0.7302 0.6119
vt 0.6973 0.624
vt 0.6628 0.618
vt 0.6359 0.5955
vt 0.6595 0.4042
vt 0.5586 0.4751
vt 0.729 0.503
vt 0.628 0.5739
vn 0.7703 -0.6377 -0.0
vn -0.0 -1.0 -0.0
vn -0.0 -0.866 0.5
vn 0.7703 -0.5523 0.3188
vn 0.0 -0.5 0.866
vn 0.7703 -0.3189 0.5523
vn 0.0 -0.0 1.0
vn 0.7703 -0.0 0.6377
vn 0.0 -0.7072 0.7071
vn 0.5547 -0.5884 0.5884
vn 0.7702 -0.5523 0.3189
vn 0.0 -0.866 0.5
vn 0.0 -0.5 0.866
vn 0.7703 -0.3189 0.5523
vn 0.7702 -0.6377 0.0
vn 0.0 -1.0 -0.0
vn 0.7081 -0.6115 -0.353
vn 0.0 -0.8661 -0.4999
vn 0.7703 -0.3188 -0.5523
vn 0.0 -0.5 -0.866
vn 0.7703 -0.0 -0.6377
vn 0.0 0.0 -1.0
vn 0.5547 -0.5884 -0.5883
vn 0.0 -0.7071 -0.7071
vn 0.7703 -0.0 -0.6377
vn 0.0 0.0 -1.0
vn 0.0 -0.5 -0.866
vn 0.7703 -0.3189 -0.5523
vn 0.0 -0.866 -0.5
vn 0.7703 -0.5523 -0.3189
vn 0.0 -1.0 -0.0
vn 0.7703 -0.6377 -0.0
vn 0.0 0.0 1.0
vn 0.7703 -0.0 0.6377
vn 0.714 0.6064 0.3501
vn 0.0 0.866 0.5
vn 0.0 1.0 -0.0
vn 0.7702 0.6378 0.0
vn 0.7703 0.3189 0.5523
vn 0.0 0.5 0.866
vn 0.7703 0.0 0.6377
vn 0.0 0.0 1.0
vn 0.5547 0.5884 0.5883
vn 0.0 0.7071 0.7071
vn 0.7703 0.3189 0.5523
vn 0.0 0.5 0.866
vn 0.0 0.866 0.5
vn 0.7703 0.5523 0.3189
vn 0.0 1.0 -0.0
vn 0.7703 0.6377 -0.0
vn 0.0 0.866 -0.5
vn 0.7703 0.5523 -0.3188
vn 0.0 0.5 -0.866
vn 0.7703 0.3189 -0.5523
vn 0.0 -0.0 -1.0
vn 0.7703 -0.0 -0.6377
vn 0.0 0.7071 -0.7071
vn 0.5547 0.5883 -0.5884
vn 0.7703 0.5523 -0.3189
vn 0.0 0.866 -0.5
vn 0.0 0.5 -0.866
vn 0.7703 0.3189 -0.5523
vn 0.7703 0.6377 -0.0
vn 0.0 1.0 0.0
vn 1.0 -0.0 0.0
vn 1.0 -0.0 0.0
vn 1.0 0.0 0.0
vn 1.0 -0.0 0.0
vn 1.0 0.0 0.0
vn 1.0 -0.0 0.0
vn 1.0 -0.0 0.0
vn 1.0 0.0 0.0
vn 1.0 -0.0 0.0
vn 1.0 -0.0 0.0
vn 1.0 0.0 0.0
vn 1.0 0.0 0.0
vn 1.0 -0.0 0.0
vn 1.0 -0.0 0.0
vn 1.0 -0.0 0.0
vn 1.0 0.0 0.0
vtan 0.6377 0.7703 0.0 -1.0
vtan 1.0 -0.0 0.0 -1.0
vtan 1.0 0.0 0.0 -1.0
vtan 0.6377 0.6671 -0.3851 -1.0
vtan 1.0 0.0 0.0 -1.0
vtan 0.6377 0.3852 -0.667 -1.0
vtan 0.6377 0.0 -0.7703 -1.0
vtan 0.8321 0.3922 -0.3922 -1.0
vtan 0.6378 0.6671 -0.3851 -1.0
vtan 0.6377 0.3851 -0.6671 -1.0
vtan 0.6377 0.7702 -0.0 -1.0
vtan 0.7061 0.6133 0.354 -1.0
vtan 1.0 0.0 0.0 -1.0
vtan 0.6377 0.3851 0.6671 -1.0
vtan 0.6377 0.0 0.7703 -1.0
vtan 0.832 0.3923 0.3922 -1.0
vtan 0.6377 0.0 0.7703 -1.0
vtan 0.6377 0.3851 0.6671 -1.0
vtan 0.6377 0.667 0.3852 -1.0
vtan 0.6377 0.7703 0.0 -1.0
vtan 0.6377 0.0 -0.7703 -1.0
vtan 0.7002 -0.6183 -0.357 -1.0
vtan 0.6378 -0.7702 -0.0 -1.0
vtan 0.6377 -0.3851 -0.6671 -1.0
vtan 0.6377 -0.0 -0.7703 -1.0
vtan 0.8321 -0.3922 -0.3922 -1.0
vtan 0.6377 -0.0 -0.7703 -1.0
vtan 0.6377 -0.3851 -0.6671 -1.0
vtan 0.6377 -0.6671 -0.3851 -1.0
vtan 0.6377 -0.7703 0.0 -1.0
vtan 0.6377 -0.6671 0.3851 -1.0
vtan 0.6377 -0.3851 0.6671 -1.0
vtan 0.6377 0.0 0.7703 -1.0
vtan 0.8321 -0.3922 0.3922 -1.0
vtan 0.6377 -0.6671 0.3851 -1.0
vtan 0.6377 -0.3851 0.6671 -1.0
vtan 0.6377 -0.7703 0.0 -1.0
vtan 0.0437 -0.5446 -0.8376 -1.0
vtan -0.2144 -0.6861 -0.6952 -1.0
vtan -0.0 -0.5754 -0.8179 -1.0
vtan -0.0 -0.5751 -0.8181 -1.0
vtan 0.304 -0.3672 -0.8791 -1.0
vtan 0.0 -0.5751 -0.8181 -1.0
vtan -0.4704 -0.6753 -0.5681 -1.0
vtan -0.0 -0.5767 -0.8169 -1.0
vtan -0.6331 -0.4861 -0.6024 -1.0
vtan 0.0 -0.5764 -0.8172 -1.0
vtan -0.5466 -0.3141 -0.7762 -1.0
vtan -0.0 -0.5758 -0.8176 -1.0
vtan -0.3036 -0.3667 -0.8794 -1.0
vtan -0.0 -0.5741 -0.8188 -1.0
vtan -0.4721 -0.6722 -0.5703 -1.0
vtan -0.6338 -0.479 -0.6074 -1.0
vtan -0.5898 -0.2373 -0.7719 -1.0
vtan 0.0 -0.5737 -0.819 -1.0
vtan -0.3027 -0.3655 -0.8802 -1.0
vtan -0.0443 -0.5451 -0.8372 -1.0
vtan -0.0 -0.5756 -0.8178 -1.0
vtan 0.2145 -0.686 -0.6953 -1.0
vtan -0.0 -0.5747 -0.8184 -1.0
vtan 0.4709 -0.6743 -0.5688 -1.0
vtan 0.0 -0.5748 -0.8183 -1.0
vtan -0.3044 -0.3676 -0.8788 -1.0
vtan -0.044 -0.5448 -0.8374 -1.0
vtan 0.2158 -0.6846 -0.6962 -1.0
vtan 0.4762 -0.665 -0.5752 -1.0
vtan 0.0 -0.5722 -0.8201 -1.0
vtan 0.6334 -0.4831 -0.6045 -1.0
vtan -0.0 -0.5744 -0.8185 -1.0
vtan 0.5458 -0.3124 -0.7775 -1.0
vtan -0.0 -0.5751 -0.8181 -1.0
vtan 0.3037 -0.3669 -0.8793 -1.0
vtan -0.0 -0.5752 -0.818 -1.0
vtan 0.4721 -0.6723 -0.5702 -1.0
vtan 0.6335 -0.4819 -0.6053 -1.0
vtan 0.5869 -0.2458 -0.7714 -1.0
vtan 0.0 -0.5724 -0.82 -1.0
vtan 0.3015 -0.3641 -0.8812 -1.0
vtan 0.0438 -0.5445 -0.8376 -1.0
vtan -0.215 -0.6854 -0.6956 -1.0
vtan -0.4698 -0.6763 -0.5674 -1.0
vtan 0.079 -0.6667 -0.7411 -1.0
vtan -0.794 -0.163 -0.5857 -1.0
vtan 0.794 -0.163 -0.5856 -1.0
vtan -0.079 -0.6667 -0.7411 -1.0
f 0/0/0/0 1/1/1/1 2/2/2/2 
f 0/0/0/0 2/2/2/2 3/3/3/3 
f 3/3/3/3 2/2/2/2 4/4/4/4 
f 3/3/3/3 4/4/4/4 5/5/5/5 
f 5/5/5/5 4/4/4/4 6/6/6/4 
f 5/5/5/5 6/6/6/4 7/7/7/6 
f 7/7/7/6 6/6/6/4 8/8/8/4 
f 7/7/7/6 8/8/8/4 9/9/9/7 
f 10/10/10/8 11/11/11/4 12/12/12/4 
f 10/10/10/8 12/12/12/4 13/13/13/9 
f 14/14/14/10 15/15/15/4 11/11/11/4 
f 14/14/14/10 11/11/11/4 10/10/10/8 
f 9/9/9/7 8/8/8/4 15/15/15/4 
f 9/9/9/7 15/15/15/4 14/14/14/10 
f 1/1/1/1 0/0/0/0 16/16/16/11 
f 1/1/1/1 16/16/16/11 17/17/17/12 
f 18/18/18/13 19/19/19/4 17/17/17/12 
f 18/18/18/13 17/17/17/12 16/16/16/11 
f 20/20/20/14 21/21/21/4 19/19/19/4 
f 20/20/20/14 19/19/19/4 18/18/18/13 
f 22/22/22/15 23/23/23/4 21/21/21/4 
f 22/22/22/15 21/21/21/4 20/20/20/14 
f 24/24/24/16 25/25/25/4 26/26/26/4 
f 24/24/24/16 26/26/26/4 27/27/27/17 
f 27/27/27/17 26/26/26/4 28/28/28/4 
f 27/27/27/17 28/28/28/4 29/29/29/18 
f 29/29/29/18 28/28/28/4 30/30/30/4 
f 29/29/29/18 30/30/30/4 31/31/31/19 
f 31/31/31/19 30/30/30/4 23/23/23/4 
f 31/31/31/19 23/23/23/4 22/22/22/15 
f 13/13/13/9 12/12/12/4 32/32/32/4 
f 13/13/13/9 32/32/32/4 33/33/33/20 
f 34/34/34/21 35/35/35/12 36/36/36/4 
f 34/34/34/21 36/36/36/4 37/37/37/22 
f 38/38/38/23 39/39/39/4 35/35/35/12 
f 38/38/38/23 35/35/35/12 34/34/34/21 
f 40/40/40/24 41/41/41/4 39/39/39/4 
f 40/40/40/24 39/39/39/4 38/38/38/23 
f 42/42/42/25 43/43/43/12 41/44/41/4 
f 42/42/42/25 41/44/41/4 40/45/40/26 
f 44/46/44/27 45/47/45/4 46/48/46/4 
f 44/46/44/27 46/48/46/4 47/49/47/28 
f 47/49/47/28 46/48/46/4 48/50/48/12 
f 47/49/47/28 48/50/48/12 49/51/49/29 
f 49/51/49/29 48/50/48/12 43/43/43/12 
f 49/51/49/29 43/43/43/12 42/42/42/25 
f 37/37/37/22 36/36/36/4 50/52/50/4 
f 37/37/37/22 50/52/50/4 51/53/51/30 
f 51/53/51/30 50/52/50/4 52/54/52/4 
f 51/53/51/30 52/54/52/4 53/55/53/31 
f 53/55/53/31 52/54/52/4 54/56/54/4 
f 53/55/53/31 54/56/54/4 55/57/55/32 
f 55/57/55/32 54/56/54/4 56/58/56/12 
f 55/57/55/32 56/58/56/12 57/59/57/33 
f 58/60/58/34 59/61/59/12 60/62/60/4 
f 58/60/58/34 60/62/60/4 61/63/61/35 
f 62/64/62/36 63/65/63/4 59/61/59/12 
f 62/64/62/36 59/61/59/12 58/60/58/34 
f 57/59/57/33 56/58/56/12 63/65/63/4 
f 57/59/57/33 63/65/63/4 62/64/62/36 
f 33/33/33/20 32/32/32/4 45/47/45/4 
f 33/33/33/20 45/47/45/4 44/46/44/27 
f 61/63/61/35 60/62/60/4 25/25/25/4 
f 61/63/61/35 25/25/25/4 24/24/24/16 
f 58/66/58/37 61/67/61/38 64/68/64/39 
f 58/66/58/37 64/68/64/39 65/69/65/40 
f 62/70/62/41 58/66/58/37 65/69/65/40 
f 62/70/62/41 65/69/65/40 66/71/66/42 
f 61/67/61/38 24/72/24/43 67/73/67/44 
f 61/67/61/38 67/73/67/44 64/68/64/39 
f 67/73/67/44 24/72/24/43 27/74/27/45 
f 67/73/67/44 27/74/27/45 68/75/68/46 
f 68/75/68/46 27/74/27/45 29/76/29/47 
f 68/75/68/46 29/76/29/47 69/77/69/48 
f 69/77/69/48 29/76/29/47 31/78/31/49 
f 69/77/69/48 31/78/31/49 70/79/70/50 
f 31/78/31/49 20/80/20/51 18/81/18/52 
f 31/78/31/49 18/81/18/52 70/79/70/50 
f 70/79/70/50 18/81/18/52 16/82/16/53 
f 70/79/70/50 16/82/16/53 71/83/71/54 
f 71/83/71/54 0/84/0/55 3/85/3/56 
f 71/83/71/54 3/85/3/56 72/86/72/57 
f 72/86/72/57 3/85/3/56 5/87/5/58 
f 72/86/72/57 5/87/5/58 73/88/73/59 
f 73/88/73/59 5/87/5/58 7/89/7/60 
f 73/88/73/59 7/89/7/60 74/90/74/61 
f 7/89/7/60 14/91/14/62 10/92/10/63 
f 7/89/7/60 10/92/10/63 74/90/74/61 
f 13/93/13/64 33/94/33/65 75/95/75/66 
f 13/93/13/64 75/95/75/66 74/90/74/61 
f 75/95/75/66 33/94/33/65 44/96/44/67 
f 75/95/75/66 44/96/44/67 76/97/76/68 
f 76/97/76/68 44/96/44/67 47/98/47/69 
f 76/97/76/68 47/98/47/69 77/99/77/70 
f 77/99/77/70 47/98/47/69 49/100/49/71 
f 77/99/77/70 49/100/49/71 78/101/78/72 
f 49/100/49/71 40/102/40/73 38/103/38/74 
f 49/100/49/71 38/103/38/74 78/101/78/72 
f 34/104/34/75 79/105/79/76 78/101/78/72 
f 34/104/34/75 78/101/78/72 38/103/38/74 
f 79/105/79/76 37/106/37/77 51/107/51/78 
f 79/105/79/76 51/107/51/78 66/71/66/42 
f 53/108/53/79 55/109/55/80 62/70/62/41 
f 53/108/53/79 62/70/62/41 66/71/66/42 
f 7/89/7/60 9/110/9/81 14/91/14/62 
f 10/92/10/63 13/93/13/64 74/90/74/61 
f 16/82/16/53 0/84/0/55 71/83/71/54 
f 22/111/22/82 20/80/20/51 31/78/31/49 
f 34/104/34/75 37/106/37/77 79/105/79/76 
f 42/112/42/83 40/102/40/73 49/100/49/71 
f 51/107/51/78 53/108/53/79 66/71/66/42 
f 55/109/55/80 57/113/57/84 62/70/62/41 
