v -1424.1953 664.2319 162.5778
v -1430.3052 664.2319 162.5778
v -1430.3052 670.6963 161.6567
v -1423.3735 670.6963 161.6567
v -1423.4639 664.2319 163.4467
v -1422.6875 670.6963 162.4711
v -1422.6875 670.6962 230.3677
v -1423.4639 664.2318 229.3921
v -1416.7349 690.9596 155.4632
v -1416.7349 690.9595 237.376
v -1416.7349 686.5964 237.4179
v -1416.7349 686.5965 155.4213
v -1417.4702 690.9595 238.249
v -1430.3052 690.9595 238.249
v -1430.3052 686.5964 238.249
v -1417.4351 686.5964 238.249
v -1424.7788 660.3632 163.2539
v -1430.3052 660.3632 163.2539
v -1430.3052 662.2975 160.6467
v -1422.6553 662.2975 160.6467
v -1424.0332 660.3632 164.1392
v -1421.8369 662.2975 161.6181
v -1421.8369 662.2974 231.221
v -1424.0332 660.3632 228.6998
v -1417.4702 690.9596 154.5904
v -1430.3052 690.9596 154.5904
v -1430.3052 693.1411 152.1619
v -1415.5029 693.1411 152.1619
v -1414.6899 693.1411 153.1273
v -1414.6899 693.1411 239.7118
v -1430.3052 695.3226 154.5904
v -1417.5483 695.3226 154.5904
v -1416.7349 695.3226 155.5554
v -1416.7349 695.3225 237.2838
v -1420.7729 679.6952 158.5362
v -1430.3052 679.6952 158.5362
v -1430.3052 686.5965 154.5904
v -1417.4351 686.5965 154.5904
v -1420.0591 679.6952 159.3836
v -1420.0591 679.6951 233.4555
v -1423.3735 670.6962 231.1827
v -1424.1953 664.2318 230.261
v -1422.6553 662.2974 232.1921
v -1424.7788 660.3632 229.5853
v -1415.5029 693.1411 240.6773
v -1417.5483 695.3225 238.249
v -1420.7729 679.6951 234.3029
v -1430.3052 695.3225 238.249
v -1430.3052 670.6962 231.1827
v -1430.3052 664.2318 230.261
v -1430.3052 662.2974 232.1923
v -1430.3052 660.3632 229.5855
v -1430.3052 693.1411 240.6773
v -1430.3052 679.6951 234.3029
gi 0 0 0 0
gi 0 0 0 0
gi 0 0 0 0
gi 0 0 0 0
gi 0 0 0 0
gi 0 0 0 0
gi 0 0 0 0
gi 0 0 0 0
gi 0 0 0 0
gi 0 0 0 0
gi 0 0 0 0
gi 0 0 0 0
gi 0 0 0 0
gi 0 0 0 0
gi 0 0 0 0
gi 0 0 0 0
gi 0 0 0 0
gi 0 0 0 0
gi 0 0 0 0
gi 0 0 0 0
gi 0 0 0 0
gi 0 0 0 0
gi 0 0 0 0
gi 0 0 0 0
gi 0 0 0 0
gi 0 0 0 0
gi 0 0 0 0
gi 0 0 0 0
gi 0 0 0 0
gi 0 0 0 0
gi 0 0 0 0
gi 0 0 0 0
gi 0 0 0 0
gi 0 0 0 0
gi 0 0 0 0
gi 0 0 0 0
gi 0 0 0 0
gi 0 0 0 0
gi 0 0 0 0
gi 0 0 0 0
gi 0 0 0 0
gi 0 0 0 0
gi 0 0 0 0
gi 0 0 0 0
gi 0 0 0 0
gi 0 0 0 0
gi 0 0 0 0
gi 0 0 0 0
gi 0 0 0 0
gi 0 0 0 0
gi 0 0 0 0
gi 0 0 0 0
gi 0 0 0 0
gi 0 0 0 0
gw 0.0 0.0 0.0 0.0
gw 0.0 0.0 0.0 0.0
gw 0.0 0.0 0.0 0.0
gw 0.0 0.0 0.0 0.0
gw 0.0 0.0 0.0 0.0
gw 0.0 0.0 0.0 0.0
gw 0.0 0.0 0.0 0.0
gw 0.0 0.0 0.0 0.0
gw 0.0 0.0 0.0 0.0
gw 0.0 0.0 0.0 0.0
gw 0.0 0.0 0.0 0.0
gw 0.0 0.0 0.0 0.0
gw 0.0 0.0 0.0 0.0
gw 0.0 0.0 0.0 0.0
gw 0.0 0.0 0.0 0.0
gw 0.0 0.0 0.0 0.0
gw 0.0 0.0 0.0 0.0
gw 0.0 0.0 0.0 0.0
gw 0.0 0.0 0.0 0.0
gw 0.0 0.0 0.0 0.0
gw 0.0 0.0 0.0 0.0
gw 0.0 0.0 0.0 0.0
gw 0.0 0.0 0.0 0.0
gw 0.0 0.0 0.0 0.0
gw 0.0 0.0 0.0 0.0
gw 0.0 0.0 0.0 0.0
gw 0.0 0.0 0.0 0.0
gw 0.0 0.0 0.0 0.0
gw 0.0 0.0 0.0 0.0
gw 0.0 0.0 0.0 0.0
gw 0.0 0.0 0.0 0.0
gw 0.0 0.0 0.0 0.0
gw 0.0 0.0 0.0 0.0
gw 0.0 0.0 0.0 0.0
gw 0.0 0.0 0.0 0.0
gw 0.0 0.0 0.0 0.0
gw 0.0 0.0 0.0 0.0
gw 0.0 0.0 0.0 0.0
gw 0.0 0.0 0.0 0.0
gw 0.0 0.0 0.0 0.0
gw 0.0 0.0 0.0 0.0
gw 0.0 0.0 0.0 0.0
gw 0.0 0.0 0.0 0.0
gw 0.0 0.0 0.0 0.0
gw 0.0 0.0 0.0 0.0
gw 0.0 0.0 0.0 0.0
gw 0.0 0.0 0.0 0.0
gw 0.0 0.0 0.0 0.0
gw 0.0 0.0 0.0 0.0
gw 0.0 0.0 0.0 0.0
gw 0.0 0.0 0.0 0.0
gw 0.0 0.0 0.0 0.0
gw 0.0 0.0 0.0 0.0
gw 0.0 0.0 0.0 0.0
vt 0.4476 0.6911
vt 0.2773 0.6911
vt 0.2773 0.6742
vt 0.4476 0.6742
vt 0.4453 0.6933
vt 0.2795 0.6933
vt 0.5504 0.8881
vt 0.5337 0.8881
vt 0.5337 0.9084
vt 0.5526 0.9084
vt 0.6076 0.8897
vt 0.6053 0.91
vt 0.7614 0.91
vt 0.7592 0.8897
vt 0.5892 0.9737
vt 0.7775 0.9737
vt 0.7776 0.96
vt 0.5891 0.96
vt 0.7937 0.9733
vt 0.8287 0.9733
vt 0.8287 0.9596
vt 0.7936 0.9596
vt 0.9865 0.7672
vt 0.9619 0.7672
vt 0.9632 0.7791
vt 0.9959 0.7791
vt 0.0112 0.7672
vt 0.0111 0.779
vt 0.2524 0.779
vt 0.2525 0.7672
vt 0.5546 0.882
vt 0.5337 0.882
vt 0.6034 0.8836
vt 0.7634 0.8836
vt 0.5687 0.9721
vt 0.5337 0.9721
vt 0.5337 0.979
vt 0.5741 0.979
vt 0.5839 0.9806
vt 0.7829 0.9806
vt 0.5337 0.9859
vt 0.5685 0.9859
vt 0.5894 0.9875
vt 0.7773 0.9875
vt 0.5597 0.9367
vt 0.5337 0.9367
vt 0.5337 0.9584
vt 0.5688 0.9584
vt 0.5982 0.9383
vt 0.7685 0.9383
vt 0.605 0.8907
vt 0.6028 0.9094
vt 0.8073 0.909
vt 0.8098 0.9096
vt 0.8121 0.8892
vt 0.8095 0.8902
vt 0.5867 0.9726
vt 0.5865 0.9593
vt 0.7912 0.9721
vt 0.791 0.9589
vt 0.6007 0.8862
vt 0.8079 0.8832
vt 0.8052 0.8857
vt 0.0079 0.7672
vt 0.0078 0.7789
vt 0.2558 0.7672
vt 0.2559 0.779
vt 0.5815 0.9806
vt 0.786 0.9801
vt 0.7884 0.9801
vt 0.5871 0.99
vt 0.7916 0.9896
vt 0.7939 0.987
vt 0.5957 0.9372
vt 0.8027 0.9379
vt 0.8002 0.9367
vt 0.1674 0.876
vt 0.1655 0.8746
vt 0.0109 0.8746
vt 0.0091 0.8976
vt 0.0091 0.876
vt 0.1674 0.8976
vt 0.8287 0.9096
vt 0.8287 0.8892
vt 0.2874 0.779
vt 0.2803 0.7672
vt 0.8287 0.8832
vt 0.8287 0.9801
vt 0.8287 0.987
vt 0.8287 0.9379
vn -0.0 -1.0 0.0
vn 0.0 -1.0 -0.0
vn 0.0 -1.0 -0.0
vn -0.0 -1.0 0.0
vn 0.3529 0.3982 -0.8467
vn 0.0 0.316 -0.9488
vn 0.0 -0.2354 -0.9719
vn 0.3927 -0.2994 -0.8696
vn 0.8968 0.3533 -0.2665
vn 0.9105 -0.267 -0.3159
vn 0.9105 -0.267 0.3158
vn 0.8967 0.3534 0.2665
vn 0.8514 -0.455 -0.261
vn 0.8514 -0.455 0.261
vn 0.895 -0.273 0.3526
vn 0.895 -0.273 -0.3527
vn 0.3354 -0.5075 0.7937
vn 0.0 -0.4072 0.9133
vn 0.0 -0.2568 0.9665
vn 0.4175 -0.2861 0.8625
vn 0.1148 -0.9416 -0.3164
vn 0.0 -0.9495 -0.3138
vn 0.0 -0.0739 -0.9973
vn 0.4573 -0.0594 -0.8873
vn 0.3562 -0.9309 -0.0808
vn 0.911 -0.0637 -0.4075
vn 0.911 -0.0637 0.4075
vn 0.3562 -0.9309 0.0808
vn 0.3354 -0.5075 -0.7937
vn 0.0 -0.4073 -0.9133
vn 0.0 -0.0 -1.0
vn 0.46 0.0025 -0.8879
vn 0.9121 0.0031 -0.4099
vn 0.9121 0.0031 0.4099
vn -0.0 0.9338 -0.3578
vn 0.1314 0.9234 -0.3606
vn 0.4011 0.9113 -0.0932
vn 0.4011 0.9113 0.0932
vn 0.3492 -0.5056 -0.7889
vn 0.0 -0.4138 -0.9104
vn 0.0 -0.2568 -0.9665
vn 0.4174 -0.2861 -0.8625
vn 0.8417 -0.4587 -0.285
vn 0.8416 -0.4587 0.285
vn 0.3929 -0.2994 0.8695
vn 0.3529 0.3982 0.8467
vn 0.4573 -0.0594 0.8873
vn 0.1148 -0.9416 0.3165
vn 0.4601 0.0025 0.8879
vn 0.1314 0.9234 0.3607
vn 0.3492 -0.5057 0.7889
vn 0.0 0.9338 0.3578
vn 0.0 -0.2355 0.9719
vn 0.0 0.316 0.9488
vn 0.0 -0.0739 0.9973
vn -0.0 -0.9495 0.3139
vn 0.0 0.0 1.0
vn 0.0 -0.4138 0.9104
vtan -0.0 0.0 -1.0
vtan 0.0 0.0 -1.0
vtan -0.0 0.0 -1.0
vtan -0.0 0.0 -1.0
vtan 0.9357 -0.1502 0.3193
vtan 1.0 0.0 0.0
vtan 0.9197 0.1278 0.3713
vtan 0.2397 0.1184 0.9636
vtan 0.3053 -0.0814 0.9488
vtan -0.303 0.0889 0.9488
vtan -0.2479 -0.0977 0.9638
vtan 0.2257 -0.1314 0.9653
vtan -0.2302 0.123 0.9653
vtan -0.3373 0.1029 0.9358
vtan 0.3317 -0.1211 0.9356
vtan -0.9407 -0.1345 0.3115
vtan -1.0 0.0 0.0
vtan -0.9087 -0.1228 0.3991
vtan 0.9934 0.1088 0.0366
vtan 1.0 0.0 0.0
vtan 0.8893 0.0306 0.4563
vtan 0.2602 0.0158 0.9654
vtan 0.4081 -0.0043 0.9129
vtan -0.4086 -0.0038 0.9127
vtan -0.2602 -0.0158 0.9654
vtan 0.4084 0.2775 0.8696
vtan -0.4066 0.0284 0.9132
vtan 0.9421 0.1807 0.2825
vtan 0.8879 -0.0013 0.46
vtan 0.4099 0.0144 0.912
vtan -0.4099 -0.0014 0.9121
vtan 1.0 0.0 -0.0
vtan 0.9913 -0.1224 0.0478
vtan -0.0092 0.1058 0.9943
vtan -0.0375 -0.0853 0.9956
vtan 0.937 0.1884 0.294
vtan 0.9087 0.1314 0.3962
vtan 0.2449 -0.146 0.9585
vtan -0.2502 0.1364 0.9585
vtan 0.6806 0.5118 0.5243
vtan 0.811 -0.3331 0.4809
vtan -0.3842 -0.2637 0.8848
vtan -0.9192 -0.0985 0.3814
vtan -0.9354 0.1727 0.3086
vtan -0.4242 0.5148 0.745
vtan 0.6636 -0.4707 0.5814
vtan 0.7995 -0.3355 0.4982
vtan -0.4826 -0.4843 0.7298
vtan -0.4293 -0.3134 0.847
vtan 0.6112 0.7458 0.265
vtan -0.8449 0.2822 0.4543
vtan -0.2829 0.6226 0.7296
vtan 0.6696 -0.1619 0.7249
vtan 0.8871 -0.0404 0.4599
vtan -0.9274 0.0126 0.3739
vtan -0.8888 0.0028 0.4582
vtan 0.8879 0.001 0.4601
vtan -0.4098 0.0329 0.9116
vtan -0.8879 -0.0001 0.4601
vtan 0.1605 0.3392 0.9269
vtan -0.9048 0.3783 0.1956
vtan -0.9883 0.0934 0.1209
vtan 0.6357 -0.4907 0.5959
vtan -0.9368 -0.1684 0.3067
vtan -0.5065 -0.4876 0.7111
vtan -0.0508 -0.3571 0.9327
vtan -0.0375 -0.0853 0.9956
vtan 0.0339 0.0869 0.9956
vtan -0.0005 0.3578 0.9338
vtan 0.0362 0.3591 0.9326
vtan 0.0 -0.3578 0.9338
vtan -1.0 0.0 0.0
vtan -1.0 0.0 0.0
vtan -1.0 -0.0 0.0
f 16/0/0/0 43/1/0/0 51/2/0/0 
f 16/0/1/1 51/2/1/1 17/3/1/1 
f 43/1/2/2 16/0/2/2 20/4/2/2 
f 43/1/3/3 20/4/3/3 23/5/3/3 
f 0/6/4/4 1/7/5/5 2/8/6/5 
f 0/6/4/4 2/8/6/5 3/9/7/6 
f 4/10/8/7 5/11/9/8 6/12/10/9 
f 4/10/8/7 6/12/10/9 7/13/11/10 
f 8/14/12/11 9/15/13/12 10/16/14/13 
f 8/14/12/11 10/16/14/13 11/17/15/14 
f 12/18/16/15 13/19/17/16 14/20/18/16 
f 12/18/16/15 14/20/18/16 15/21/19/17 
f 16/22/20/18 17/23/21/19 18/24/22/5 
f 16/22/20/18 18/24/22/5 19/25/23/20 
f 20/26/24/21 21/27/25/22 22/28/26/23 
f 20/26/24/21 22/28/26/23 23/29/27/24 
f 0/6/4/4 19/30/23/20 18/31/22/5 
f 0/6/4/4 18/31/22/5 1/7/5/5 
f 21/32/25/25 4/10/8/7 7/13/11/10 
f 21/32/25/25 7/13/11/10 22/33/26/26 
f 24/34/28/27 25/35/29/5 26/36/30/5 
f 24/34/28/27 26/36/30/5 27/37/31/28 
f 8/14/12/11 28/38/32/29 29/39/33/30 
f 8/14/12/11 29/39/33/30 9/15/13/12 
f 26/36/30/5 30/40/34/31 31/41/35/32 
f 26/36/30/5 31/41/35/32 27/37/31/28 
f 28/38/32/29 32/42/36/33 33/43/37/34 
f 28/38/32/29 33/43/37/34 29/39/33/30 
f 34/44/38/35 35/45/39/5 36/46/40/5 
f 34/44/38/35 36/46/40/5 37/47/41/36 
f 38/48/42/37 11/17/15/14 10/16/14/13 
f 38/48/42/37 10/16/14/13 39/49/43/38 
f 3/9/7/6 2/8/6/5 35/45/39/5 
f 3/9/7/6 35/45/39/5 34/44/38/35 
f 5/11/9/8 38/48/42/37 39/49/43/38 
f 5/11/9/8 39/49/43/38 6/12/10/9 
f 0/50/4/39 3/51/7/40 5/11/9/8 
f 0/50/4/39 5/11/9/8 4/10/8/7 
f 6/52/10/41 40/53/44/42 41/54/45/43 
f 6/52/10/41 41/54/45/43 7/55/11/44 
f 24/56/28/45 8/14/12/11 11/17/15/14 
f 24/56/28/45 11/17/15/14 37/57/41/46 
f 9/58/13/47 12/18/16/15 15/21/19/17 
f 9/58/13/47 15/21/19/17 10/59/14/48 
f 0/50/4/39 4/10/8/7 21/32/25/25 
f 0/50/4/39 21/32/25/25 19/60/23/49 
f 41/54/45/43 42/61/46/50 22/62/26/51 
f 41/54/45/43 22/62/26/51 7/55/11/44 
f 21/27/25/22 20/26/24/21 16/63/20/52 
f 21/27/25/22 16/63/20/52 19/64/23/53 
f 43/65/47/54 23/29/27/24 22/28/26/23 
f 43/65/47/54 22/28/26/23 42/66/46/55 
f 24/56/28/45 27/67/31/56 28/38/32/29 
f 24/56/28/45 28/38/32/29 8/14/12/11 
f 29/68/33/57 44/69/48/58 12/18/16/15 
f 29/68/33/57 12/18/16/15 9/58/13/47 
f 31/70/35/59 32/42/36/33 28/38/32/29 
f 31/70/35/59 28/38/32/29 27/67/31/56 
f 29/68/33/57 33/71/37/60 45/72/49/61 
f 29/68/33/57 45/72/49/61 44/69/48/58 
f 34/73/38/62 37/57/41/46 11/17/15/14 
f 34/73/38/62 11/17/15/14 38/48/42/37 
f 10/59/14/48 15/21/19/17 46/74/50/63 
f 10/59/14/48 46/74/50/63 39/75/43/64 
f 3/51/7/40 34/73/38/62 38/48/42/37 
f 3/51/7/40 38/48/42/37 5/11/9/8 
f 39/75/43/64 46/74/50/63 40/53/44/42 
f 39/75/43/64 40/53/44/42 6/52/10/41 
f 45/76/49/65 33/77/37/66 32/78/36/67 
f 45/76/49/65 32/78/36/67 30/79/34/68 
f 32/78/36/67 31/80/35/69 30/79/34/68 
f 47/81/51/70 45/76/49/65 30/79/34/68 
f 41/54/45/43 40/53/44/42 48/82/52/16 
f 41/54/45/43 48/82/52/16 49/83/53/16 
f 24/34/28/27 37/47/41/36 36/46/40/5 
f 24/34/28/27 36/46/40/5 25/35/29/5 
f 43/65/47/54 42/66/46/55 50/84/54/71 
f 43/65/47/54 50/84/54/71 51/85/55/72 
f 50/86/54/73 42/61/46/50 41/54/45/43 
f 50/86/54/73 41/54/45/43 49/83/53/16 
f 12/18/16/15 44/69/48/58 52/87/56/16 
f 12/18/16/15 52/87/56/16 13/19/17/16 
f 52/87/56/16 44/69/48/58 45/72/49/61 
f 52/87/56/16 45/72/49/61 47/88/51/16 
f 46/74/50/63 15/21/19/17 14/20/18/16 
f 46/74/50/63 14/20/18/16 53/89/57/16 
f 40/53/44/42 46/74/50/63 53/89/57/16 
f 40/53/44/42 53/89/57/16 48/82/52/16 
