v 852.3397 59.3754 -218.7277
v 846.8751 55.8291 -221.6582
v 842.3403 59.193 -215.2703
v 848.6538 62.3775 -213.0767
v 855.9586 56.7307 -224.6364
v 849.635 53.5996 -226.8684
v 842.0511 59.4604 -225.4627
v 838.4036 62.258 -219.6643
v 845.6265 57.047 -231.5383
v 840.228 59.1021 -212.5438
v 840.0234 61.0686 -202.3833
v 846.107 64.0482 -202.4872
v 847.6479 61.2835 -212.6077
v 845.9091 63.5125 -222.5363
v 839.6627 60.5496 -222.0935
v 833.7933 64.4681 -203.5422
v 832.0374 63.8339 -211.7991
v 832.0874 63.7598 -220.4388
v 831.6144 61.1193 -210.6511
v 831.9159 59.9692 -218.4877
v 825.162 59.8241 -217.4755
v 824.5144 61.5929 -210.2901
v 819.954 65.6334 -211.2438
v 820.7776 65.329 -219.8203
v 826.2017 64.3586 -203.2288
v 833.1678 65.7469 -204.9176
v 821.9142 70.9582 -205.5859
v 834.2186 58.6872 -198.2661
v 841.3687 61.6336 -199.6779
v 839.265 60.5152 -206.0664
v 832.2268 58.3894 -205.1019
v 829.7885 61.9409 -209.5731
v 837.1682 66.0069 -210.5928
v 825.1903 57.3371 -201.8383
v 827.1826 59.8566 -195.3289
v 822.4984 63.7661 -206.2228
v 840.5268 56.322 -196.6056
v 846.689 56.9439 -198.64
v 844.3591 59.8168 -205.7366
v 838.1336 56.4008 -204.884
v 840.9959 58.6861 -210.5811
v 835.6523 56.7264 -210.7278
v 832.6821 60.5671 -201.8815
v 835.1188 59.7095 -194.8202
v 830.0446 59.1821 -208.8765
v 829.1519 61.0644 -206.3182
v 823.5674 57.0108 -204.6239
v 828.5612 55.0659 -197.9143
v 833.6952 59.5108 -200.6263
v 824.4515 62.9639 -211.7748
v 819.2941 58.5706 -209.0278
v 819.4037 59.1221 -199.1143
v 824.0368 57.3707 -193.5569
v 814.6017 61.2457 -204.4185
v 832.7884 62.0131 -219.0331
v 829.0566 63.3633 -227.3825
v 821.59 65.5079 -220.9502
v 825.0252 62.092 -214.7534
v 819.0608 62.4176 -211.0088
v 813.4954 69.9445 -217.2748
v 829.4669 65.6019 -209.1891
v 835.7158 65.4006 -213.282
v 822.6578 66.2278 -205.353
v 824.9998 61.5522 -226.9839
v 826.0225 63.8803 -234.4532
v 819.2846 62.8264 -234.4409
v 817.8848 61.2988 -227.2997
v 812.9047 64.957 -226.7897
v 814.3857 68.3883 -234.4532
v 818.6719 60.8804 -219.5147
v 825.5038 63.3411 -219.5147
v 813.7244 67.4269 -219.0087
v 815.7184 61.0465 -224.4712
v 814.631 57.7382 -225.2762
v 814.1865 56.464 -220.2611
v 816.7496 60.2885 -219.5723
v 813.848 61.7408 -231.1851
v 813.1976 58.0554 -229.7359
v 808.4819 55.0648 -222.7879
v 808.9746 55.7579 -219.5181
v 807.1716 55.4882 -228.45
v 819.1433 58.55 -206.8706
v 826.5585 61.1521 -207.1513
v 826.2207 58.6286 -216.0114
v 818.9728 56.9337 -215.772
v 818.1994 58.691 -224.5592
v 825.7949 61.2736 -225.1853
v 811.2342 61.3764 -215.8176
v 811.5837 62.4084 -207.067
v 810.3441 62.1131 -224.5701
v 838.6919 63.2871 -242.003
v 836.1881 70.0051 -244.257
v 827.7619 66.4283 -243.7179
v 830.2426 60.4072 -240.8208
v 822.3633 59.3307 -236.5865
v 819.4736 66.093 -238.8713
v 833.0969 57.9877 -232.6011
v 841.2996 60.5813 -234.3214
v 825.2089 56.174 -229.1301
v 850.2293 62.6211 -225.9796
v 851.2532 64.9486 -233.4489
v 844.5148 63.8979 -233.4366
v 843.1141 62.371 -226.2954
v 838.136 66.0315 -225.7854
v 839.6188 69.4622 -233.4489
v 843.9011 61.9523 -218.5104
v 850.7343 64.4097 -218.5104
v 838.957 68.501 -218.0044
v 844.8268 58.0807 -211.7122
v 850.6717 63.0849 -211.9929
v 851.3626 60.6255 -220.853
v 845.3119 56.5215 -220.6136
v 843.8948 57.8819 -229.4008
v 849.9148 62.931 -230.0268
v 836.363 57.9411 -220.6592
v 836.2766 59.0208 -211.9085
v 835.2439 58.3137 -229.4116
v 840.8613 61.2562 -207.1309
v 849.9092 62.6063 -205.7991
v 848.4885 64.751 -215.5513
v 841.4161 61.335 -215.9782
v 841.4573 61.6606 -223.0205
v 849.7312 69.1875 -224.354
v 834.3373 64.8449 -215.2164
v 834.4374 64.6437 -207.7471
v 834.7545 65.4709 -223.0205
v 860.2188 56.0337 -223.9933
v 853.4225 57.4268 -224.6961
v 853.8197 60.0028 -217.6024
v 861.5535 60.0064 -217.2565
v 861.8858 61.1683 -229.7415
v 853.4988 59.5841 -230.2259
v 845.8318 59.1108 -223.5302
v 847.4673 64.8283 -217.6088
v 847.0449 63.6617 -229.6472
v 854.0094 57.3357 -215.5694
v 855.7801 57.553 -218.7809
v 852.7975 58.7623 -219.7106
v 850.7206 57.6625 -216.7607
v 848.5325 60.5863 -217.1901
v 849.7871 61.128 -221.0626
v 850.3414 58.2262 -212.9533
v 853.6647 57.7615 -211.9104
v 847.3656 60.3875 -213.632
v 839.5129 59.9986 -206.6485
v 839.0125 57.3944 -203.3095
v 843.3831 58.6249 -202.7461
v 843.7333 60.2246 -206.428
v 835.2837 61.396 -206.1161
v 835.2275 59.1084 -202.4854
v 839.4832 57.1355 -198.8532
v 843.2308 58.6234 -198.3895
v 835.287 58.003 -198.4737
v 832.5244 59.7795 -205.8328
v 839.9936 62.1855 -206.4608
v 839.9813 57.6708 -214.3755
v 832.6984 56.1325 -214.0214
v 832.3301 55.7825 -223.0246
v 839.9936 58.0877 -223.9732
v 825.0551 60.4734 -215.5985
v 825.0551 63.5183 -207.3922
v 824.5491 59.144 -224.3017
v 826.7214 61.2156 -216.44
v 829.1177 61.101 -208.1666
v 834.2289 57.7097 -210.6903
v 832.392 57.7001 -217.9289
v 830.1127 60.9596 -201.8993
v 835.8199 57.4797 -203.3964
v 820.7891 59.8322 -215.0018
v 822.4854 59.7048 -207.7316
v 823.9173 59.3197 -200.4019
v 829.7972 58.0807 -218.0919
v 835.6421 63.0849 -218.3726
v 836.333 60.6255 -227.2327
v 830.2823 56.5215 -226.9933
v 828.8652 57.8819 -235.7806
v 834.8852 62.931 -236.4066
v 821.3334 57.9411 -227.0389
v 821.247 59.0208 -218.2883
v 820.2143 58.3137 -235.7914
v 822.5508 61.3896 -238.7344
v 818.0367 62.5787 -232.3475
v 825.564 60.0498 -227.6653
v 829.9062 59.719 -233.7384
v 837.1427 61.4685 -228.6908
v 832.7971 62.6009 -221.9574
v 834.0605 65.4928 -238.9472
v 826.7851 66.5557 -243.8145
v 841.457 66.2633 -234.1898
v 832.8571 56.4689 -209.7871
v 838.702 61.4731 -210.0678
v 839.3929 59.0136 -218.9279
v 833.3422 54.9096 -218.6885
v 831.9251 56.2701 -227.4758
v 837.9451 61.3192 -228.1018
v 824.3933 56.3292 -218.7341
v 824.3069 57.4089 -209.9835
v 823.2742 56.7019 -227.4866
v 842.4836 59.1504 -222.4361
v 836.3046 55.7345 -223.5782
v 835.9819 55.6556 -214.9669
v 842.4713 59.1751 -214.9669
v 842.2993 59.5207 -229.9053
v 835.7805 56.06 -229.9053
v 830.1866 59.2443 -222.4361
v 830.2869 59.0431 -214.9669
v 829.8751 59.8703 -229.9053
v 843.149 57.1713 -230.7652
v 840.5637 58.7387 -238.0815
v 835.3129 60.8901 -234.3642
v 837.7797 60.194 -227.3659
v 836.0717 65.6602 -225.5376
v 834.1702 67.9824 -233.5737
v 842.65 59.4696 -221.2743
v 848.5725 58.5041 -225.45
v 842.1893 67.4441 -220.3304
v 837.718 63.3048 -225.6109
v 838.4708 64.0455 -230.5836
v 833.8082 63.6823 -230.5754
v 833.1884 61.5498 -225.8211
v 828.4996 64.0081 -225.4816
v 828.1838 64.7437 -231.1131
v 833.7715 62.7774 -220.6381
v 838.3792 64.3438 -220.6381
v 828.5732 63.7168 -220.3013
v 820.0497 66.1104 -238.4785
v 819.4858 66.1104 -231.0876
v 824.3543 62.6138 -230.5211
v 827.0097 63.4207 -237.6051
v 819.5737 66.1104 -220.8697
v 824.7722 62.6138 -223.6967
v 833.9697 66.1104 -232.1524
v 833.1262 67.8279 -236.6416
v 833.9697 65.6468 -223.6967
v 823.2563 61.8334 -214.2468
v 823.9211 58.3369 -221.8483
v 816.7388 62.5236 -221.2068
v 815.8654 61.8334 -214.2468
v 830.6472 61.8334 -214.2468
v 830.6472 58.3369 -221.2068
v 822.1915 61.8334 -228.1667
v 818.2673 65.1756 -228.1667
v 830.6472 58.7622 -228.1667
v 814.7009 57.3401 -212.0256
v 814.6229 57.0261 -215.7097
v 809.5212 56.6327 -216.0982
v 809.7552 56.5936 -211.2381
v 821.4136 58.4353 -213.6429
v 819.0546 57.7837 -217.0088
v 811.9188 58.2806 -220.6888
v 808.9631 58.0988 -219.178
v 817.5173 59.085 -222.0665
v 821.9749 60.7177 -244.3366
v 818.0048 65.5171 -245.0718
v 819.2468 67.8256 -237.4837
v 820.7198 61.3425 -235.8368
v 818.8102 66.1451 -231.754
v 820.5242 61.4749 -229.4831
v 828.2467 60.0699 -235.9642
v 828.4706 59.2361 -243.4338
v 826.4507 59.2048 -228.6162
v 818.7941 64.6591 -238.8277
v 819.1078 62.9377 -234.8398
v 822.4298 65.9368 -234.6701
v 822.4804 66.6052 -238.6842
v 814.2666 64.3636 -238.738
v 814.8014 63.1785 -234.5657
v 819.0924 64.0016 -230.4866
v 821.7464 66.9595 -230.4901
v 814.855 63.2026 -230.384
v 823.0772 59.0887 -235.4702
v 815.5593 62.7921 -239.1748
v 814.2081 65.108 -231.7692
v 821.2114 60.7028 -228.4409
v 825.6411 53.8916 -225.4674
v 827.3083 51.3674 -232.9269
v 815.2322 57.6119 -222.4622
v 808.792 62.3492 -225.7573
v 820.2767 51.5809 -219.1278
v 811.9424 56.1311 -226.9033
v 814.2103 61.8796 -222.4336
v 821.748 61.8024 -227.8232
v 819.0851 56.8876 -232.4323
v 823.9881 60.0931 -239.1839
v 826.5977 65.9958 -234.8057
v 812.9847 56.8382 -239.1528
v 806.3584 55.7251 -233.4441
v 818.3744 59.1428 -245.7037
v 839.0217 60.5177 -227.4922
v 845.1052 63.4812 -227.1463
v 846.6462 62.0819 -237.582
v 839.2263 59.9139 -237.8473
v 844.9073 65.601 -247.0754
v 838.6609 62.6092 -247.0835
v 832.7916 64.0364 -228.1275
v 831.0356 64.4999 -236.3973
v 831.0856 65.5685 -244.9617
v 847.1678 63.686 -236.7933
v 846.8925 64.2797 -241.7931
v 842.3886 63.9886 -241.6743
v 842.027 62.2794 -236.9728
v 837.6432 64.2497 -236.6828
v 837.3735 64.8393 -241.8577
v 842.3572 63.2633 -232.3414
v 846.6171 64.5188 -232.3414
v 837.7061 64.0162 -232.0537
v 850.4247 64.0884 -226.2701
v 856.3312 61.5374 -225.7704
v 856.4506 59.7057 -233.6035
v 849.1907 59.6256 -233.3444
v 853.4156 56.8324 -237.8009
v 847.7636 56.8785 -238.8026
v 847.2333 69.0151 -229.0386
v 846.2352 65.8578 -235.693
v 843.9189 61.265 -241.0473
v 831.5376 60.5201 -238.5777
v 831.6805 56.6597 -244.2242
v 823.162 57.8715 -244.0718
v 824.1855 61.7002 -238.2008
v 838.912 59.503 -239.1568
v 837.8917 55.6985 -245.0579
v 830.3171 57.0254 -250.0306
v 822.9523 58.1123 -249.538
v 837.7059 56.1136 -250.7406
v 849.972 56.7201 -204.7649
v 844.7069 56.2114 -209.7414
v 839.5647 56.7466 -202.8495
v 845.7444 57.1548 -198.6246
v 854.2265 56.7204 -210.9195
v 848.0508 56.3771 -215.1465
v 841.1497 61.9767 -211.238
v 836.9067 62.1626 -205.0895
v 845.4216 62.2585 -217.4018
v 832.8886 58.8121 -241.9129
v 829.0909 60.6598 -248.5813
v 821.8081 56.8944 -244.4979
v 825.322 55.9169 -237.9843
v 817.4406 56.408 -233.6321
v 813.2643 58.169 -240.3186
v 827.5748 60.9724 -231.0432
v 835.0483 63.2549 -235.0579
v 819.973 60.4762 -226.5768
v 829.0767 58.2234 -239.6996
v 829.0717 64.4022 -235.3095
v 837.9021 62.2942 -233.627
v 837.9538 56.9432 -238.4466
v 846.7901 58.0658 -239.7945
v 847.1219 64.3324 -235.2315
v 838.3971 56.3028 -247.4864
v 829.6547 57.2097 -248.2229
v 847.1895 56.5335 -248.2926
v 845.9145 55.9086 -244.3266
v 841.9638 61.8932 -246.8481
v 838.4156 61.9029 -238.2876
v 842.8226 56.7311 -235.8466
v 842.4156 59.8719 -227.4844
v 838.2325 66.0197 -229.7456
v 851.5381 56.2138 -233.3733
v 854.0769 55.0609 -241.7369
v 850.5609 58.4803 -224.9349
v 816.8422 60.3012 -209.8781
v 819.691 60.8683 -207.6374
v 821.3771 60.1943 -210.4775
v 818.5449 58.7042 -212.4377
v 820.1773 59.9236 -215.6556
v 823.8266 60.3888 -213.8279
v 815.1751 59.5828 -214.1012
v 813.5648 61.0603 -211.3999
v 816.9194 59.7347 -217.5028
v 830.4465 54.2737 -225.7293
v 831.4691 56.6017 -233.1985
v 824.7313 55.5478 -233.1862
v 823.3315 54.0202 -226.045
v 818.3514 57.6784 -225.535
v 819.8323 61.1098 -233.1985
v 824.1186 53.6019 -218.26
v 830.9505 56.0625 -218.26
v 819.171 60.1483 -217.7541
v 846.6836 59.4051 -230.4056
v 839.3298 61.7327 -232.0665
v 838.7639 60.6819 -225.3519
v 845.7585 59.155 -223.3438
v 845.8395 62.8156 -218.3403
v 838.3315 66.2462 -220.4751
v 853.5823 58.7363 -223.4598
v 854.1686 61.1937 -230.2679
v 853.6622 65.2851 -218.4906
v 856.7354 58.4354 -235.6318
v 853.3942 58.4715 -241.2341
v 846.6967 59.9788 -237.5874
v 849.1766 58.2075 -231.5122
v 842.8035 59.2147 -233.1976
v 843.9813 58.2412 -227.8471
v 852.8379 61.0736 -227.079
v 859.2798 60.7755 -230.9344
v 846.7239 60.0304 -222.9172
v 843.7047 62.0471 -215.922
v 842.6884 59.7996 -209.3677
v 849.8914 58.3072 -209.819
v 849.7031 56.8346 -218.1647
v 857.0944 56.8148 -210.2702
v 856.2581 55.3127 -217.958
v 848.8536 62.0754 -223.1471
v 845.8286 66.0018 -221.96
v 856.3599 57.4882 -224.534
v 830.8007 68.1884 -219.0439
v 826.6137 67.1195 -213.4838
v 832.321 63.2823 -211.1877
v 834.6728 61.1175 -219.0163
v 838.0283 59.4451 -208.8916
v 839.5729 57.5373 -216.3642
v 837.8749 65.749 -223.7224
v 836.4156 70.5246 -223.6314
v 842.9609 58.8427 -222.2994
v 831.0446 59.1146 -214.0167
v 826.8575 58.0456 -208.4567
v 832.5649 54.2085 -206.1606
v 834.9167 52.0436 -213.9891
v 838.2722 50.3713 -203.8644
v 839.8167 48.4634 -211.3371
v 838.1188 56.6751 -218.6953
v 836.6595 61.4507 -218.6042
v 843.2048 49.7688 -217.2723
v 841.0097 62.0471 -228.002
v 839.9934 59.7996 -221.4478
v 847.1964 58.3072 -221.899
v 847.0081 56.8346 -230.2447
v 854.3994 56.8148 -222.3502
v 853.5632 55.3127 -230.0381
v 846.1587 62.0754 -235.2271
v 843.1337 66.0018 -234.04
v 853.6649 57.4882 -236.614
v 834.4752 58.4141 -224.4673
v 830.2882 57.3451 -218.9073
v 835.9955 53.5079 -216.6111
v 838.3473 51.3431 -224.4397
v 841.7028 49.6708 -214.315
v 843.2474 47.7629 -221.7876
v 841.5494 55.9746 -229.1458
v 840.0901 60.7502 -229.0548
v 846.6354 49.0683 -227.7228
v 820.8597 59.0852 -210.9355
v 818.7708 56.5068 -209.8973
v 821.8438 56.4844 -204.7947
v 823.6483 59.3636 -205.5453
v 816.0154 60.2232 -214.5027
v 814.2736 57.2773 -213.5304
v 814.1266 55.4936 -206.5667
v 817.4222 55.3709 -201.8013
v 809.9725 55.9471 -210.5447
gi 0 0 0 0
gi 0 0 0 0
gi 0 0 0 0
gi 0 0 0 0
gi 0 0 0 0
gi 0 0 0 0
gi 0 0 0 0
gi 0 0 0 0
gi 0 0 0 0
gi 0 0 0 0
gi 0 0 0 0
gi 0 0 0 0
gi 0 0 0 0
gi 0 0 0 0
gi 0 0 0 0
gi 0 0 0 0
gi 0 0 0 0
gi 0 0 0 0
gi 0 0 0 0
gi 0 0 0 0
gi 0 0 0 0
gi 0 0 0 0
gi 0 0 0 0
gi 0 0 0 0
gi 0 0 0 0
gi 0 0 0 0
gi 0 0 0 0
gi 0 0 0 0
gi 0 0 0 0
gi 0 0 0 0
gi 0 0 0 0
gi 0 0 0 0
gi 0 0 0 0
gi 0 0 0 0
gi 0 0 0 0
gi 0 0 0 0
gi 0 0 0 0
gi 0 0 0 0
gi 0 0 0 0
gi 0 0 0 0
gi 0 0 0 0
gi 0 0 0 0
gi 0 0 0 0
gi 0 0 0 0
gi 0 0 0 0
gi 0 0 0 0
gi 0 0 0 0
gi 0 0 0 0
gi 0 0 0 0
gi 0 0 0 0
gi 0 0 0 0
gi 0 0 0 0
gi 0 0 0 0
gi 0 0 0 0
gi 0 0 0 0
gi 0 0 0 0
gi 0 0 0 0
gi 0 0 0 0
gi 0 0 0 0
gi 0 0 0 0
gi 0 0 0 0
gi 0 0 0 0
gi 0 0 0 0
gi 0 0 0 0
gi 0 0 0 0
gi 0 0 0 0
gi 0 0 0 0
gi 0 0 0 0
gi 0 0 0 0
gi 0 0 0 0
gi 0 0 0 0
gi 0 0 0 0
gi 0 0 0 0
gi 0 0 0 0
gi 0 0 0 0
gi 0 0 0 0
gi 0 0 0 0
gi 0 0 0 0
gi 0 0 0 0
gi 0 0 0 0
gi 0 0 0 0
gi 0 0 0 0
gi 0 0 0 0
gi 0 0 0 0
gi 0 0 0 0
gi 0 0 0 0
gi 0 0 0 0
gi 0 0 0 0
gi 0 0 0 0
gi 0 0 0 0
gi 0 0 0 0
gi 0 0 0 0
gi 0 0 0 0
gi 0 0 0 0
gi 0 0 0 0
gi 0 0 0 0
gi 0 0 0 0
gi 0 0 0 0
gi 0 0 0 0
gi 0 0 0 0
gi 0 0 0 0
gi 0 0 0 0
gi 0 0 0 0
gi 0 0 0 0
gi 0 0 0 0
gi 0 0 0 0
gi 0 0 0 0
gi 0 0 0 0
gi 0 0 0 0
gi 0 0 0 0
gi 0 0 0 0
gi 0 0 0 0
gi 0 0 0 0
gi 0 0 0 0
gi 0 0 0 0
gi 0 0 0 0
gi 0 0 0 0
gi 0 0 0 0
gi 0 0 0 0
gi 0 0 0 0
gi 0 0 0 0
gi 0 0 0 0
gi 0 0 0 0
gi 0 0 0 0
gi 0 0 0 0
gi 0 0 0 0
gi 0 0 0 0
gi 0 0 0 0
gi 0 0 0 0
gi 0 0 0 0
gi 0 0 0 0
gi 0 0 0 0
gi 0 0 0 0
gi 0 0 0 0
gi 0 0 0 0
gi 0 0 0 0
gi 0 0 0 0
gi 0 0 0 0
gi 0 0 0 0
gi 0 0 0 0
gi 0 0 0 0
gi 0 0 0 0
gi 0 0 0 0
gi 0 0 0 0
gi 0 0 0 0
gi 0 0 0 0
gi 0 0 0 0
gi 0 0 0 0
gi 0 0 0 0
gi 0 0 0 0
gi 0 0 0 0
gi 0 0 0 0
gi 0 0 0 0
gi 0 0 0 0
gi 0 0 0 0
gi 0 0 0 0
gi 0 0 0 0
gi 0 0 0 0
gi 0 0 0 0
gi 0 0 0 0
gi 0 0 0 0
gi 0 0 0 0
gi 0 0 0 0
gi 0 0 0 0
gi 0 0 0 0
gi 0 0 0 0
gi 0 0 0 0
gi 0 0 0 0
gi 0 0 0 0
gi 0 0 0 0
gi 0 0 0 0
gi 0 0 0 0
gi 0 0 0 0
gi 0 0 0 0
gi 0 0 0 0
gi 0 0 0 0
gi 0 0 0 0
gi 0 0 0 0
gi 0 0 0 0
gi 0 0 0 0
gi 0 0 0 0
gi 0 0 0 0
gi 0 0 0 0
gi 0 0 0 0
gi 0 0 0 0
gi 0 0 0 0
gi 0 0 0 0
gi 0 0 0 0
gi 0 0 0 0
gi 0 0 0 0
gi 0 0 0 0
gi 0 0 0 0
gi 0 0 0 0
gi 0 0 0 0
gi 0 0 0 0
gi 0 0 0 0
gi 0 0 0 0
gi 0 0 0 0
gi 0 0 0 0
gi 0 0 0 0
gi 0 0 0 0
gi 0 0 0 0
gi 0 0 0 0
gi 0 0 0 0
gi 0 0 0 0
gi 0 0 0 0
gi 0 0 0 0
gi 0 0 0 0
gi 0 0 0 0
gi 0 0 0 0
gi 0 0 0 0
gi 0 0 0 0
gi 0 0 0 0
gi 0 0 0 0
gi 0 0 0 0
gi 0 0 0 0
gi 0 0 0 0
gi 0 0 0 0
gi 0 0 0 0
gi 0 0 0 0
gi 0 0 0 0
gi 0 0 0 0
gi 0 0 0 0
gi 0 0 0 0
gi 0 0 0 0
gi 0 0 0 0
gi 0 0 0 0
gi 0 0 0 0
gi 0 0 0 0
gi 0 0 0 0
gi 0 0 0 0
gi 0 0 0 0
gi 0 0 0 0
gi 0 0 0 0
gi 0 0 0 0
gi 0 0 0 0
gi 0 0 0 0
gi 0 0 0 0
gi 0 0 0 0
gi 0 0 0 0
gi 0 0 0 0
gi 0 0 0 0
gi 0 0 0 0
gi 0 0 0 0
gi 0 0 0 0
gi 0 0 0 0
gi 0 0 0 0
gi 0 0 0 0
gi 0 0 0 0
gi 0 0 0 0
gi 0 0 0 0
gi 0 0 0 0
gi 0 0 0 0
gi 0 0 0 0
gi 0 0 0 0
gi 0 0 0 0
gi 0 0 0 0
gi 0 0 0 0
gi 0 0 0 0
gi 0 0 0 0
gi 0 0 0 0
gi 0 0 0 0
gi 0 0 0 0
gi 0 0 0 0
gi 0 0 0 0
gi 0 0 0 0
gi 0 0 0 0
gi 0 0 0 0
gi 0 0 0 0
gi 0 0 0 0
gi 0 0 0 0
gi 0 0 0 0
gi 0 0 0 0
gi 0 0 0 0
gi 0 0 0 0
gi 0 0 0 0
gi 0 0 0 0
gi 0 0 0 0
gi 0 0 0 0
gi 0 0 0 0
gi 0 0 0 0
gi 0 0 0 0
gi 0 0 0 0
gi 0 0 0 0
gi 0 0 0 0
gi 0 0 0 0
gi 0 0 0 0
gi 0 0 0 0
gi 0 0 0 0
gi 0 0 0 0
gi 0 0 0 0
gi 0 0 0 0
gi 0 0 0 0
gi 0 0 0 0
gi 0 0 0 0
gi 0 0 0 0
gi 0 0 0 0
gi 0 0 0 0
gi 0 0 0 0
gi 0 0 0 0
gi 0 0 0 0
gi 0 0 0 0
gi 0 0 0 0
gi 0 0 0 0
gi 0 0 0 0
gi 0 0 0 0
gi 0 0 0 0
gi 0 0 0 0
gi 0 0 0 0
gi 0 0 0 0
gi 0 0 0 0
gi 0 0 0 0
gi 0 0 0 0
gi 0 0 0 0
gi 0 0 0 0
gi 0 0 0 0
gi 0 0 0 0
gi 0 0 0 0
gi 0 0 0 0
gi 0 0 0 0
gi 0 0 0 0
gi 0 0 0 0
gi 0 0 0 0
gi 0 0 0 0
gi 0 0 0 0
gi 0 0 0 0
gi 0 0 0 0
gi 0 0 0 0
gi 0 0 0 0
gi 0 0 0 0
gi 0 0 0 0
gi 0 0 0 0
gi 0 0 0 0
gi 0 0 0 0
gi 0 0 0 0
gi 0 0 0 0
gi 0 0 0 0
gi 0 0 0 0
gi 0 0 0 0
gi 0 0 0 0
gi 0 0 0 0
gi 0 0 0 0
gi 0 0 0 0
gi 0 0 0 0
gi 0 0 0 0
gi 0 0 0 0
gi 0 0 0 0
gi 0 0 0 0
gi 0 0 0 0
gi 0 0 0 0
gi 0 0 0 0
gi 0 0 0 0
gi 0 0 0 0
gi 0 0 0 0
gi 0 0 0 0
gi 0 0 0 0
gi 0 0 0 0
gi 0 0 0 0
gi 0 0 0 0
gi 0 0 0 0
gi 0 0 0 0
gi 0 0 0 0
gi 0 0 0 0
gi 0 0 0 0
gi 0 0 0 0
gi 0 0 0 0
gi 0 0 0 0
gi 0 0 0 0
gi 0 0 0 0
gi 0 0 0 0
gi 0 0 0 0
gi 0 0 0 0
gi 0 0 0 0
gi 0 0 0 0
gi 0 0 0 0
gi 0 0 0 0
gi 0 0 0 0
gi 0 0 0 0
gi 0 0 0 0
gi 0 0 0 0
gi 0 0 0 0
gi 0 0 0 0
gi 0 0 0 0
gi 0 0 0 0
gi 0 0 0 0
gi 0 0 0 0
gi 0 0 0 0
gi 0 0 0 0
gi 0 0 0 0
gi 0 0 0 0
gi 0 0 0 0
gi 0 0 0 0
gi 0 0 0 0
gi 0 0 0 0
gi 0 0 0 0
gi 0 0 0 0
gi 0 0 0 0
gi 0 0 0 0
gi 0 0 0 0
gi 0 0 0 0
gi 0 0 0 0
gi 0 0 0 0
gi 0 0 0 0
gi 0 0 0 0
gi 0 0 0 0
gi 0 0 0 0
gi 0 0 0 0
gi 0 0 0 0
gi 0 0 0 0
gi 0 0 0 0
gi 0 0 0 0
gi 0 0 0 0
gi 0 0 0 0
gi 0 0 0 0
gi 0 0 0 0
gi 0 0 0 0
gi 0 0 0 0
gi 0 0 0 0
gi 0 0 0 0
gi 0 0 0 0
gi 0 0 0 0
gi 0 0 0 0
gi 0 0 0 0
gi 0 0 0 0
gi 0 0 0 0
gi 0 0 0 0
gi 0 0 0 0
gi 0 0 0 0
gi 0 0 0 0
gi 0 0 0 0
gi 0 0 0 0
gi 0 0 0 0
gi 0 0 0 0
gi 0 0 0 0
gi 0 0 0 0
gi 0 0 0 0
gi 0 0 0 0
gi 0 0 0 0
gi 0 0 0 0
gi 0 0 0 0
gi 0 0 0 0
gi 0 0 0 0
gi 0 0 0 0
gi 0 0 0 0
gi 0 0 0 0
gi 0 0 0 0
gi 0 0 0 0
gi 0 0 0 0
gi 0 0 0 0
gi 0 0 0 0
gw 0.0 0.0 0.0 0.0
gw 0.0 0.0 0.0 0.0
gw 0.0 0.0 0.0 0.0
gw 0.0 0.0 0.0 0.0
gw 0.0 0.0 0.0 0.0
gw 0.0 0.0 0.0 0.0
gw 0.0 0.0 0.0 0.0
gw 0.0 0.0 0.0 0.0
gw 0.0 0.0 0.0 0.0
gw 0.0 0.0 0.0 0.0
gw 0.0 0.0 0.0 0.0
gw 0.0 0.0 0.0 0.0
gw 0.0 0.0 0.0 0.0
gw 0.0 0.0 0.0 0.0
gw 0.0 0.0 0.0 0.0
gw 0.0 0.0 0.0 0.0
gw 0.0 0.0 0.0 0.0
gw 0.0 0.0 0.0 0.0
gw 0.0 0.0 0.0 0.0
gw 0.0 0.0 0.0 0.0
gw 0.0 0.0 0.0 0.0
gw 0.0 0.0 0.0 0.0
gw 0.0 0.0 0.0 0.0
gw 0.0 0.0 0.0 0.0
gw 0.0 0.0 0.0 0.0
gw 0.0 0.0 0.0 0.0
gw 0.0 0.0 0.0 0.0
gw 0.0 0.0 0.0 0.0
gw 0.0 0.0 0.0 0.0
gw 0.0 0.0 0.0 0.0
gw 0.0 0.0 0.0 0.0
gw 0.0 0.0 0.0 0.0
gw 0.0 0.0 0.0 0.0
gw 0.0 0.0 0.0 0.0
gw 0.0 0.0 0.0 0.0
gw 0.0 0.0 0.0 0.0
gw 0.0 0.0 0.0 0.0
gw 0.0 0.0 0.0 0.0
gw 0.0 0.0 0.0 0.0
gw 0.0 0.0 0.0 0.0
gw 0.0 0.0 0.0 0.0
gw 0.0 0.0 0.0 0.0
gw 0.0 0.0 0.0 0.0
gw 0.0 0.0 0.0 0.0
gw 0.0 0.0 0.0 0.0
gw 0.0 0.0 0.0 0.0
gw 0.0 0.0 0.0 0.0
gw 0.0 0.0 0.0 0.0
gw 0.0 0.0 0.0 0.0
gw 0.0 0.0 0.0 0.0
gw 0.0 0.0 0.0 0.0
gw 0.0 0.0 0.0 0.0
gw 0.0 0.0 0.0 0.0
gw 0.0 0.0 0.0 0.0
gw 0.0 0.0 0.0 0.0
gw 0.0 0.0 0.0 0.0
gw 0.0 0.0 0.0 0.0
gw 0.0 0.0 0.0 0.0
gw 0.0 0.0 0.0 0.0
gw 0.0 0.0 0.0 0.0
gw 0.0 0.0 0.0 0.0
gw 0.0 0.0 0.0 0.0
gw 0.0 0.0 0.0 0.0
gw 0.0 0.0 0.0 0.0
gw 0.0 0.0 0.0 0.0
gw 0.0 0.0 0.0 0.0
gw 0.0 0.0 0.0 0.0
gw 0.0 0.0 0.0 0.0
gw 0.0 0.0 0.0 0.0
gw 0.0 0.0 0.0 0.0
gw 0.0 0.0 0.0 0.0
gw 0.0 0.0 0.0 0.0
gw 0.0 0.0 0.0 0.0
gw 0.0 0.0 0.0 0.0
gw 0.0 0.0 0.0 0.0
gw 0.0 0.0 0.0 0.0
gw 0.0 0.0 0.0 0.0
gw 0.0 0.0 0.0 0.0
gw 0.0 0.0 0.0 0.0
gw 0.0 0.0 0.0 0.0
gw 0.0 0.0 0.0 0.0
gw 0.0 0.0 0.0 0.0
gw 0.0 0.0 0.0 0.0
gw 0.0 0.0 0.0 0.0
gw 0.0 0.0 0.0 0.0
gw 0.0 0.0 0.0 0.0
gw 0.0 0.0 0.0 0.0
gw 0.0 0.0 0.0 0.0
gw 0.0 0.0 0.0 0.0
gw 0.0 0.0 0.0 0.0
gw 0.0 0.0 0.0 0.0
gw 0.0 0.0 0.0 0.0
gw 0.0 0.0 0.0 0.0
gw 0.0 0.0 0.0 0.0
gw 0.0 0.0 0.0 0.0
gw 0.0 0.0 0.0 0.0
gw 0.0 0.0 0.0 0.0
gw 0.0 0.0 0.0 0.0
gw 0.0 0.0 0.0 0.0
gw 0.0 0.0 0.0 0.0
gw 0.0 0.0 0.0 0.0
gw 0.0 0.0 0.0 0.0
gw 0.0 0.0 0.0 0.0
gw 0.0 0.0 0.0 0.0
gw 0.0 0.0 0.0 0.0
gw 0.0 0.0 0.0 0.0
gw 0.0 0.0 0.0 0.0
gw 0.0 0.0 0.0 0.0
gw 0.0 0.0 0.0 0.0
gw 0.0 0.0 0.0 0.0
gw 0.0 0.0 0.0 0.0
gw 0.0 0.0 0.0 0.0
gw 0.0 0.0 0.0 0.0
gw 0.0 0.0 0.0 0.0
gw 0.0 0.0 0.0 0.0
gw 0.0 0.0 0.0 0.0
gw 0.0 0.0 0.0 0.0
gw 0.0 0.0 0.0 0.0
gw 0.0 0.0 0.0 0.0
gw 0.0 0.0 0.0 0.0
gw 0.0 0.0 0.0 0.0
gw 0.0 0.0 0.0 0.0
gw 0.0 0.0 0.0 0.0
gw 0.0 0.0 0.0 0.0
gw 0.0 0.0 0.0 0.0
gw 0.0 0.0 0.0 0.0
gw 0.0 0.0 0.0 0.0
gw 0.0 0.0 0.0 0.0
gw 0.0 0.0 0.0 0.0
gw 0.0 0.0 0.0 0.0
gw 0.0 0.0 0.0 0.0
gw 0.0 0.0 0.0 0.0
gw 0.0 0.0 0.0 0.0
gw 0.0 0.0 0.0 0.0
gw 0.0 0.0 0.0 0.0
gw 0.0 0.0 0.0 0.0
gw 0.0 0.0 0.0 0.0
gw 0.0 0.0 0.0 0.0
gw 0.0 0.0 0.0 0.0
gw 0.0 0.0 0.0 0.0
gw 0.0 0.0 0.0 0.0
gw 0.0 0.0 0.0 0.0
gw 0.0 0.0 0.0 0.0
gw 0.0 0.0 0.0 0.0
gw 0.0 0.0 0.0 0.0
gw 0.0 0.0 0.0 0.0
gw 0.0 0.0 0.0 0.0
gw 0.0 0.0 0.0 0.0
gw 0.0 0.0 0.0 0.0
gw 0.0 0.0 0.0 0.0
gw 0.0 0.0 0.0 0.0
gw 0.0 0.0 0.0 0.0
gw 0.0 0.0 0.0 0.0
gw 0.0 0.0 0.0 0.0
gw 0.0 0.0 0.0 0.0
gw 0.0 0.0 0.0 0.0
gw 0.0 0.0 0.0 0.0
gw 0.0 0.0 0.0 0.0
gw 0.0 0.0 0.0 0.0
gw 0.0 0.0 0.0 0.0
gw 0.0 0.0 0.0 0.0
gw 0.0 0.0 0.0 0.0
gw 0.0 0.0 0.0 0.0
gw 0.0 0.0 0.0 0.0
gw 0.0 0.0 0.0 0.0
gw 0.0 0.0 0.0 0.0
gw 0.0 0.0 0.0 0.0
gw 0.0 0.0 0.0 0.0
gw 0.0 0.0 0.0 0.0
gw 0.0 0.0 0.0 0.0
gw 0.0 0.0 0.0 0.0
gw 0.0 0.0 0.0 0.0
gw 0.0 0.0 0.0 0.0
gw 0.0 0.0 0.0 0.0
gw 0.0 0.0 0.0 0.0
gw 0.0 0.0 0.0 0.0
gw 0.0 0.0 0.0 0.0
gw 0.0 0.0 0.0 0.0
gw 0.0 0.0 0.0 0.0
gw 0.0 0.0 0.0 0.0
gw 0.0 0.0 0.0 0.0
gw 0.0 0.0 0.0 0.0
gw 0.0 0.0 0.0 0.0
gw 0.0 0.0 0.0 0.0
gw 0.0 0.0 0.0 0.0
gw 0.0 0.0 0.0 0.0
gw 0.0 0.0 0.0 0.0
gw 0.0 0.0 0.0 0.0
gw 0.0 0.0 0.0 0.0
gw 0.0 0.0 0.0 0.0
gw 0.0 0.0 0.0 0.0
gw 0.0 0.0 0.0 0.0
gw 0.0 0.0 0.0 0.0
gw 0.0 0.0 0.0 0.0
gw 0.0 0.0 0.0 0.0
gw 0.0 0.0 0.0 0.0
gw 0.0 0.0 0.0 0.0
gw 0.0 0.0 0.0 0.0
gw 0.0 0.0 0.0 0.0
gw 0.0 0.0 0.0 0.0
gw 0.0 0.0 0.0 0.0
gw 0.0 0.0 0.0 0.0
gw 0.0 0.0 0.0 0.0
gw 0.0 0.0 0.0 0.0
gw 0.0 0.0 0.0 0.0
gw 0.0 0.0 0.0 0.0
gw 0.0 0.0 0.0 0.0
gw 0.0 0.0 0.0 0.0
gw 0.0 0.0 0.0 0.0
gw 0.0 0.0 0.0 0.0
gw 0.0 0.0 0.0 0.0
gw 0.0 0.0 0.0 0.0
gw 0.0 0.0 0.0 0.0
gw 0.0 0.0 0.0 0.0
gw 0.0 0.0 0.0 0.0
gw 0.0 0.0 0.0 0.0
gw 0.0 0.0 0.0 0.0
gw 0.0 0.0 0.0 0.0
gw 0.0 0.0 0.0 0.0
gw 0.0 0.0 0.0 0.0
gw 0.0 0.0 0.0 0.0
gw 0.0 0.0 0.0 0.0
gw 0.0 0.0 0.0 0.0
gw 0.0 0.0 0.0 0.0
gw 0.0 0.0 0.0 0.0
gw 0.0 0.0 0.0 0.0
gw 0.0 0.0 0.0 0.0
gw 0.0 0.0 0.0 0.0
gw 0.0 0.0 0.0 0.0
gw 0.0 0.0 0.0 0.0
gw 0.0 0.0 0.0 0.0
gw 0.0 0.0 0.0 0.0
gw 0.0 0.0 0.0 0.0
gw 0.0 0.0 0.0 0.0
gw 0.0 0.0 0.0 0.0
gw 0.0 0.0 0.0 0.0
gw 0.0 0.0 0.0 0.0
gw 0.0 0.0 0.0 0.0
gw 0.0 0.0 0.0 0.0
gw 0.0 0.0 0.0 0.0
gw 0.0 0.0 0.0 0.0
gw 0.0 0.0 0.0 0.0
gw 0.0 0.0 0.0 0.0
gw 0.0 0.0 0.0 0.0
gw 0.0 0.0 0.0 0.0
gw 0.0 0.0 0.0 0.0
gw 0.0 0.0 0.0 0.0
gw 0.0 0.0 0.0 0.0
gw 0.0 0.0 0.0 0.0
gw 0.0 0.0 0.0 0.0
gw 0.0 0.0 0.0 0.0
gw 0.0 0.0 0.0 0.0
gw 0.0 0.0 0.0 0.0
gw 0.0 0.0 0.0 0.0
gw 0.0 0.0 0.0 0.0
gw 0.0 0.0 0.0 0.0
gw 0.0 0.0 0.0 0.0
gw 0.0 0.0 0.0 0.0
gw 0.0 0.0 0.0 0.0
gw 0.0 0.0 0.0 0.0
gw 0.0 0.0 0.0 0.0
gw 0.0 0.0 0.0 0.0
gw 0.0 0.0 0.0 0.0
gw 0.0 0.0 0.0 0.0
gw 0.0 0.0 0.0 0.0
gw 0.0 0.0 0.0 0.0
gw 0.0 0.0 0.0 0.0
gw 0.0 0.0 0.0 0.0
gw 0.0 0.0 0.0 0.0
gw 0.0 0.0 0.0 0.0
gw 0.0 0.0 0.0 0.0
gw 0.0 0.0 0.0 0.0
gw 0.0 0.0 0.0 0.0
gw 0.0 0.0 0.0 0.0
gw 0.0 0.0 0.0 0.0
gw 0.0 0.0 0.0 0.0
gw 0.0 0.0 0.0 0.0
gw 0.0 0.0 0.0 0.0
gw 0.0 0.0 0.0 0.0
gw 0.0 0.0 0.0 0.0
gw 0.0 0.0 0.0 0.0
gw 0.0 0.0 0.0 0.0
gw 0.0 0.0 0.0 0.0
gw 0.0 0.0 0.0 0.0
gw 0.0 0.0 0.0 0.0
gw 0.0 0.0 0.0 0.0
gw 0.0 0.0 0.0 0.0
gw 0.0 0.0 0.0 0.0
gw 0.0 0.0 0.0 0.0
gw 0.0 0.0 0.0 0.0
gw 0.0 0.0 0.0 0.0
gw 0.0 0.0 0.0 0.0
gw 0.0 0.0 0.0 0.0
gw 0.0 0.0 0.0 0.0
gw 0.0 0.0 0.0 0.0
gw 0.0 0.0 0.0 0.0
gw 0.0 0.0 0.0 0.0
gw 0.0 0.0 0.0 0.0
gw 0.0 0.0 0.0 0.0
gw 0.0 0.0 0.0 0.0
gw 0.0 0.0 0.0 0.0
gw 0.0 0.0 0.0 0.0
gw 0.0 0.0 0.0 0.0
gw 0.0 0.0 0.0 0.0
gw 0.0 0.0 0.0 0.0
gw 0.0 0.0 0.0 0.0
gw 0.0 0.0 0.0 0.0
gw 0.0 0.0 0.0 0.0
gw 0.0 0.0 0.0 0.0
gw 0.0 0.0 0.0 0.0
gw 0.0 0.0 0.0 0.0
gw 0.0 0.0 0.0 0.0
gw 0.0 0.0 0.0 0.0
gw 0.0 0.0 0.0 0.0
gw 0.0 0.0 0.0 0.0
gw 0.0 0.0 0.0 0.0
gw 0.0 0.0 0.0 0.0
gw 0.0 0.0 0.0 0.0
gw 0.0 0.0 0.0 0.0
gw 0.0 0.0 0.0 0.0
gw 0.0 0.0 0.0 0.0
gw 0.0 0.0 0.0 0.0
gw 0.0 0.0 0.0 0.0
gw 0.0 0.0 0.0 0.0
gw 0.0 0.0 0.0 0.0
gw 0.0 0.0 0.0 0.0
gw 0.0 0.0 0.0 0.0
gw 0.0 0.0 0.0 0.0
gw 0.0 0.0 0.0 0.0
gw 0.0 0.0 0.0 0.0
gw 0.0 0.0 0.0 0.0
gw 0.0 0.0 0.0 0.0
gw 0.0 0.0 0.0 0.0
gw 0.0 0.0 0.0 0.0
gw 0.0 0.0 0.0 0.0
gw 0.0 0.0 0.0 0.0
gw 0.0 0.0 0.0 0.0
gw 0.0 0.0 0.0 0.0
gw 0.0 0.0 0.0 0.0
gw 0.0 0.0 0.0 0.0
gw 0.0 0.0 0.0 0.0
gw 0.0 0.0 0.0 0.0
gw 0.0 0.0 0.0 0.0
gw 0.0 0.0 0.0 0.0
gw 0.0 0.0 0.0 0.0
gw 0.0 0.0 0.0 0.0
gw 0.0 0.0 0.0 0.0
gw 0.0 0.0 0.0 0.0
gw 0.0 0.0 0.0 0.0
gw 0.0 0.0 0.0 0.0
gw 0.0 0.0 0.0 0.0
gw 0.0 0.0 0.0 0.0
gw 0.0 0.0 0.0 0.0
gw 0.0 0.0 0.0 0.0
gw 0.0 0.0 0.0 0.0
gw 0.0 0.0 0.0 0.0
gw 0.0 0.0 0.0 0.0
gw 0.0 0.0 0.0 0.0
gw 0.0 0.0 0.0 0.0
gw 0.0 0.0 0.0 0.0
gw 0.0 0.0 0.0 0.0
gw 0.0 0.0 0.0 0.0
gw 0.0 0.0 0.0 0.0
gw 0.0 0.0 0.0 0.0
gw 0.0 0.0 0.0 0.0
gw 0.0 0.0 0.0 0.0
gw 0.0 0.0 0.0 0.0
gw 0.0 0.0 0.0 0.0
gw 0.0 0.0 0.0 0.0
gw 0.0 0.0 0.0 0.0
gw 0.0 0.0 0.0 0.0
gw 0.0 0.0 0.0 0.0
gw 0.0 0.0 0.0 0.0
gw 0.0 0.0 0.0 0.0
gw 0.0 0.0 0.0 0.0
gw 0.0 0.0 0.0 0.0
gw 0.0 0.0 0.0 0.0
gw 0.0 0.0 0.0 0.0
gw 0.0 0.0 0.0 0.0
gw 0.0 0.0 0.0 0.0
gw 0.0 0.0 0.0 0.0
gw 0.0 0.0 0.0 0.0
gw 0.0 0.0 0.0 0.0
gw 0.0 0.0 0.0 0.0
gw 0.0 0.0 0.0 0.0
gw 0.0 0.0 0.0 0.0
gw 0.0 0.0 0.0 0.0
gw 0.0 0.0 0.0 0.0
gw 0.0 0.0 0.0 0.0
gw 0.0 0.0 0.0 0.0
gw 0.0 0.0 0.0 0.0
gw 0.0 0.0 0.0 0.0
gw 0.0 0.0 0.0 0.0
gw 0.0 0.0 0.0 0.0
gw 0.0 0.0 0.0 0.0
gw 0.0 0.0 0.0 0.0
gw 0.0 0.0 0.0 0.0
gw 0.0 0.0 0.0 0.0
gw 0.0 0.0 0.0 0.0
gw 0.0 0.0 0.0 0.0
gw 0.0 0.0 0.0 0.0
gw 0.0 0.0 0.0 0.0
gw 0.0 0.0 0.0 0.0
gw 0.0 0.0 0.0 0.0
gw 0.0 0.0 0.0 0.0
gw 0.0 0.0 0.0 0.0
gw 0.0 0.0 0.0 0.0
gw 0.0 0.0 0.0 0.0
gw 0.0 0.0 0.0 0.0
gw 0.0 0.0 0.0 0.0
gw 0.0 0.0 0.0 0.0
gw 0.0 0.0 0.0 0.0
gw 0.0 0.0 0.0 0.0
gw 0.0 0.0 0.0 0.0
gw 0.0 0.0 0.0 0.0
gw 0.0 0.0 0.0 0.0
gw 0.0 0.0 0.0 0.0
gw 0.0 0.0 0.0 0.0
gw 0.0 0.0 0.0 0.0
gw 0.0 0.0 0.0 0.0
gw 0.0 0.0 0.0 0.0
gw 0.0 0.0 0.0 0.0
gw 0.0 0.0 0.0 0.0
gw 0.0 0.0 0.0 0.0
gw 0.0 0.0 0.0 0.0
gw 0.0 0.0 0.0 0.0
gw 0.0 0.0 0.0 0.0
gw 0.0 0.0 0.0 0.0
gw 0.0 0.0 0.0 0.0
gw 0.0 0.0 0.0 0.0
gw 0.0 0.0 0.0 0.0
gw 0.0 0.0 0.0 0.0
gw 0.0 0.0 0.0 0.0
gw 0.0 0.0 0.0 0.0
gw 0.0 0.0 0.0 0.0
gw 0.0 0.0 0.0 0.0
gw 0.0 0.0 0.0 0.0
gw 0.0 0.0 0.0 0.0
gw 0.0 0.0 0.0 0.0
gw 0.0 0.0 0.0 0.0
gw 0.0 0.0 0.0 0.0
gw 0.0 0.0 0.0 0.0
gw 0.0 0.0 0.0 0.0
gw 0.0 0.0 0.0 0.0
gw 0.0 0.0 0.0 0.0
gw 0.0 0.0 0.0 0.0
gw 0.0 0.0 0.0 0.0
gw 0.0 0.0 0.0 0.0
gw 0.0 0.0 0.0 0.0
gw 0.0 0.0 0.0 0.0
vt 0.1166 0.7956
vt 0.1298 0.8902
vt 0.0 0.8978
vt 0.0 0.7956
vt 0.2332 0.7956
vt 0.2332 0.8978
vt 0.1166 1.0
vt 0.0 1.0
vt 0.2332 1.0
vt 0.7285 0.3988
vt 0.5468 0.3673
vt 0.5615 0.2734
vt 0.7285 0.288
vt 0.9084 0.288
vt 0.911 0.3888
vt 0.5546 0.4534
vt 0.7164 0.5033
vt 0.8843 0.4732
vt 0.0179 0.6408
vt 0.0179 0.5031
vt 0.175 0.5031
vt 0.1928 0.6305
vt 0.332 0.6408
vt 0.3191 0.5108
vt 0.175 0.7786
vt 0.0179 0.7786
vt 0.332 0.7786
vt 0.32 0.5466
vt 0.3268 0.4296
vt 0.4642 0.416
vt 0.4805 0.5373
vt 0.5837 0.4495
vt 0.6084 0.5466
vt 0.4642 0.6713
vt 0.32 0.6713
vt 0.6084 0.6713
vt 0.6606 0.8469
vt 0.6839 0.6153
vt 0.8199 0.7011
vt 0.838 0.836
vt 0.9792 0.8469
vt 0.9792 0.7011
vt 0.8199 0.9927
vt 0.6606 0.9927
vt 0.9792 0.9927
vt 0.8725 0.4801
vt 0.8795 0.5802
vt 0.7418 0.5871
vt 0.7379 0.5099
vt 0.9847 0.4865
vt 0.9967 0.5854
vt 0.8652 0.7075
vt 0.7692 0.6737
vt 0.9967 0.7126
vt 0.0528 0.3841
vt 0.0528 0.2864
vt 0.1931 0.2864
vt 0.1958 0.3861
vt 0.3335 0.3841
vt 0.3335 0.2864
vt 0.1931 0.4819
vt 0.0528 0.4819
vt 0.3335 0.4819
vt 0.0092 0.1325
vt 0.0092 0.0028
vt 0.1437 0.0028
vt 0.1415 0.1345
vt 0.2782 0.1325
vt 0.2782 0.0028
vt 0.1437 0.2623
vt 0.0092 0.2623
vt 0.2782 0.2623
vt 0.8283 0.0056
vt 0.8258 0.1565
vt 0.6713 0.1543
vt 0.6713 0.0056
vt 0.9854 0.0056
vt 0.9854 0.1543
vt 0.8283 0.303
vt 0.6713 0.303
vt 0.9854 0.303
vt 0.4643 0.6874
vt 0.4911 0.8784
vt 0.3013 0.8437
vt 0.3013 0.6874
vt 0.6272 0.6874
vt 0.6272 0.8437
vt 0.4643 1.0001
vt 0.3013 1.0001
vt 0.6272 1.0001
vt 0.3291 0.1485
vt 0.3291 0.01
vt 0.4753 0.0129
vt 0.4658 0.1505
vt 0.6098 0.1485
vt 0.6098 0.01
vt 0.4753 0.2914
vt 0.3291 0.2885
vt 0.6098 0.2885
vn -0.2273 0.8118 -0.5378
vn 0.2028 0.9285 -0.3111
vn 0.2379 0.9182 -0.3167
vn -0.21 0.7978 -0.5652
vn -0.2476 0.827 -0.5048
vn 0.2351 0.9347 -0.2665
vn 0.609 0.7931 0.0112
vn 0.6051 0.7962 0.0037
vn 0.6136 0.7893 0.0198
vn 0.0552 0.9979 -0.0331
vn 0.0617 0.9727 -0.2238
vn -0.3491 0.9055 -0.2413
vn -0.3524 0.9357 -0.016
vn -0.3373 0.917 0.213
vn 0.0427 0.9877 0.1504
vn 0.4883 0.8575 -0.1621
vn 0.475 0.8782 -0.0552
vn 0.4558 0.8885 0.0542
vn -0.062 0.9394 -0.3372
vn 0.0044 0.9817 -0.1905
vn 0.3857 0.9148 -0.1195
vn 0.4192 0.843 -0.337
vn 0.7616 0.5859 -0.277
vn 0.7332 0.6797 -0.0209
vn 0.3232 0.7678 -0.5532
vn -0.1257 0.8724 -0.4724
vn 0.7357 0.4557 -0.501
vn -0.2067 0.974 -0.0926
vn -0.3361 0.9418 0.0032
vn -0.2853 0.8785 0.3832
vn -0.0675 0.9271 0.3687
vn 0.0891 0.7079 0.7007
vn -0.1766 0.6482 0.7407
vn 0.1339 0.9642 0.229
vn -0.0732 0.98 -0.1852
vn 0.3244 0.7155 0.6187
vn 0.1681 0.9831 0.0726
vn -0.2452 0.9353 0.2551
vn -0.3135 0.9249 0.2154
vn 0.0614 0.998 0.017
vn -0.4084 0.8994 0.1556
vn 0.0837 0.993 -0.0838
vn 0.483 0.8585 -0.1724
vn 0.5321 0.8387 -0.1163
vn 0.4193 0.8757 -0.2394
vn -0.3716 0.7534 0.5425
vn 0.0149 0.9541 0.299
vn 0.0189 0.9644 0.2637
vn -0.3917 0.7617 0.5161
vn -0.3457 0.7417 0.5747
vn 0.0679 0.9567 0.2831
vn 0.4169 0.9075 -0.0505
vn 0.4097 0.911 -0.047
vn 0.4254 0.9033 -0.0549
vn 0.0335 0.9937 -0.1074
vn 0.2649 0.9474 0.1797
vn 0.3754 0.8828 0.2824
vn 0.0959 0.9926 -0.0745
vn 0.1763 0.9841 -0.0197
vn 0.467 0.8037 0.3687
vn -0.2076 0.8853 -0.4162
vn -0.2206 0.8901 -0.3989
vn -0.1927 0.8794 -0.4354
vn -0.1448 0.9859 0.0837
vn -0.0964 0.9662 0.239
vn 0.2786 0.9056 0.3197
vn 0.336 0.9359 0.1055
vn 0.6985 0.7105 0.0853
vn 0.648 0.6753 0.3523
vn 0.2697 0.9539 -0.1315
vn -0.1891 0.9793 -0.0721
vn 0.699 0.6961 -0.1641
vn -0.9113 0.3539 0.2106
vn -0.7168 0.6681 0.1996
vn -0.5981 0.7937 0.1106
vn -0.8929 0.4277 0.1407
vn -0.9205 0.2559 0.2953
vn -0.7339 0.6271 0.2612
vn -0.3035 0.9464 0.111
vn -0.2663 0.9614 0.0687
vn -0.3474 0.9237 0.1617
vn 0.1038 0.976 -0.1916
vn -0.2818 0.9362 -0.2102
vn -0.2758 0.9611 0.0173
vn 0.0909 0.9958 -0.0065
vn 0.1149 0.9779 0.1745
vn -0.2551 0.9351 0.2462
vn 0.4638 0.8855 -0.0263
vn 0.4737 0.8688 -0.1443
vn 0.4485 0.8898 0.084
vn -0.1514 0.6926 0.7053
vn -0.0427 0.3601 0.9319
vn 0.1844 0.4349 0.8814
vn 0.0365 0.73 0.6824
vn 0.2048 0.7747 0.5982
vn 0.3964 0.483 0.7808
vn -0.117 0.9272 0.3557
vn -0.2314 0.8999 0.3696
vn -0.0076 0.9413 0.3376
vn -0.1444 0.986 0.0837
vn -0.096 0.9663 0.239
vn 0.279 0.9056 0.3196
vn 0.3364 0.9358 0.1055
vn 0.6988 0.7102 0.0853
vn 0.6483 0.6749 0.3523
vn 0.2701 0.9538 -0.1316
vn -0.1886 0.9794 -0.0721
vn 0.6993 0.6957 -0.164
vn -0.2502 0.9488 -0.1928
vn -0.5997 0.771 -0.2142
vn -0.6032 0.7974 0.0177
vn -0.2726 0.9621 -0.006
vn -0.2399 0.9547 0.1761
vn -0.5735 0.7799 0.2507
vn 0.1191 0.9925 -0.0261
vn 0.1342 0.9807 -0.1423
vn 0.104 0.9911 0.0829
vn 0.0725 0.9937 0.0856
vn -0.2938 0.9474 0.1271
vn -0.4398 0.8828 0.1652
vn 0.0114 0.9926 0.1209
vn -0.0779 0.9841 0.1594
vn -0.5617 0.8037 0.1963
vn 0.4626 0.8853 0.0482
vn 0.455 0.8901 0.0279
vn 0.471 0.8793 0.0708
vn 0.0414 0.9986 0.0322
vn 0.2185 0.974 0.0596
vn 0.2209 0.8399 -0.4957
vn 0.1166 0.8918 -0.4371
vn -0.0527 0.8422 0.5366
vn 0.1746 0.8318 0.5269
vn 0.4063 0.911 -0.071
vn 0.3174 0.7764 -0.5445
vn 0.3821 0.7818 0.4928
vn 0.149 0.9854 0.0827
vn 0.1354 0.9483 0.2871
vn 0.3504 0.8587 0.3739
vn 0.4262 0.8819 0.2015
vn 0.6333 0.7215 0.2798
vn 0.5607 0.7002 0.442
vn 0.4268 0.9043 -0.0104
vn 0.1562 0.981 -0.1148
vn 0.6855 0.72 0.1084
vn 0.0893 0.8358 0.5418
vn 0.0716 0.9396 0.3348
vn -0.2632 0.926 0.2705
vn -0.1888 0.8525 0.4874
vn 0.3814 0.7421 0.5512
vn 0.362 0.8644 0.349
vn -0.0221 0.996 0.0869
vn -0.3218 0.946 0.0395
vn 0.3227 0.9374 0.1309
vn 0.1284 0.9018 -0.4127
vn -0.2593 0.8604 -0.4387
vn -0.2608 0.9396 -0.2215
vn 0.1088 0.9652 -0.2378
vn 0.125 0.9907 -0.0545
vn -0.2484 0.9686 0.0082
vn 0.4811 0.8508 -0.2113
vn 0.4974 0.805 -0.3233
vn 0.4599 0.8816 -0.1063
vn 0.1502 0.9882 -0.0306
vn 0.1732 0.9847 -0.0173
vn 0.5066 0.8556 -0.1061
vn 0.4999 0.8562 -0.1306
vn 0.1402 0.9901 0.0051
vn 0.5146 0.8542 -0.0745
vn -0.2056 0.9762 0.0693
vn -0.2116 0.9747 0.0727
vn -0.2187 0.9728 0.0767
vn -0.2502 0.9488 -0.1928
vn -0.5997 0.771 -0.2142
vn -0.6032 0.7974 0.0177
vn -0.2726 0.9621 -0.006
vn -0.2399 0.9547 0.1761
vn -0.5735 0.7799 0.2507
vn 0.1191 0.9925 -0.0261
vn 0.1342 0.9807 -0.1423
vn 0.104 0.9911 0.0829
vn -0.0101 0.9366 0.3501
vn 0.2397 0.9695 0.0521
vn 0.0538 0.9956 -0.0771
vn -0.1529 0.9607 0.2318
vn -0.3086 0.9414 0.1359
vn -0.1368 0.9695 -0.2036
vn -0.3506 0.78 0.5183
vn -0.2598 0.7598 0.596
vn -0.4299 0.7891 0.4388
vn -0.2502 0.9488 -0.1927
vn -0.5997 0.771 -0.2142
vn -0.6032 0.7974 0.0177
vn -0.2726 0.9621 -0.006
vn -0.2399 0.9547 0.1761
vn -0.5735 0.7799 0.2507
vn 0.1191 0.9925 -0.0261
vn 0.1342 0.9807 -0.1422
vn 0.104 0.9911 0.0829
vn -0.4801 0.8768 0.027
vn 0.0007 0.9994 0.0345
vn 0.0272 0.9996 0.0087
vn -0.4797 0.8774 -0.007
vn -0.4799 0.8746 0.0686
vn 0.0507 0.9972 0.0543
vn 0.5129 0.8581 0.0245
vn 0.5057 0.8625 0.022
vn 0.5217 0.8527 0.0272
vn 0.3144 0.9419 -0.118
vn 0.4325 0.9016 -0.0101
vn 0.7415 0.66 -0.121
vn 0.6713 0.6584 -0.3404
vn 0.8351 0.2649 -0.4821
vn 0.9402 0.2593 -0.221
vn 0.4896 0.7061 -0.5116
vn 0.1889 0.9566 -0.2217
vn 0.6819 0.2515 -0.6869
vn -0.2863 0.9575 0.0361
vn -0.2225 0.9431 0.247
vn 0.035 0.964 0.2636
vn 0.0374 0.9971 0.0666
vn 0.3174 0.9449 0.0808
vn 0.3071 0.9151 0.2615
vn -0.0278 0.989 -0.1454
vn -0.3335 0.928 -0.1662
vn 0.3165 0.9427 -0.1051
vn 0.4441 0.8837 0.148
vn 0.5064 0.8595 0.0694
vn 0.1329 0.9882 0.0758
vn -0.0608 0.9868 0.1502
vn 0.5679 0.8229 -0.0168
vn 0.1801 0.9836 0.0089
vn -0.3895 0.9171 0.0854
vn -0.4413 0.8886 0.1249
vn -0.3248 0.945 0.0376
vn 0.1519 0.9443 -0.2918
vn 0.2462 0.9692 0.0061
vn 0.4135 0.9066 0.0839
vn 0.2662 0.9514 -0.1551
vn 0.0195 0.9016 -0.432
vn 0.1023 0.9881 -0.115
vn 0.4181 0.8499 0.3206
vn 0.54 0.7668 0.3471
vn 0.1812 0.9493 0.2568
vn -0.1443 0.9884 -0.0474
vn -0.1095 0.9885 0.1043
vn -0.0643 0.9832 0.1706
vn -0.1138 0.9931 -0.0278
vn -0.1817 0.9808 -0.0715
vn -0.1358 0.9868 0.088
vn -0.0466 0.9515 0.304
vn -0.0215 0.9445 0.3278
vn -0.0756 0.9582 0.2759
vn 0.6091 0.7888 -0.0823
vn 0.9042 0.4203 -0.0761
vn 0.9273 0.3741 -0.0091
vn 0.6693 0.7428 0.0168
vn 0.9491 0.3023 0.0884
vn 0.6111 0.7853 0.0998
vn 0.2207 0.9753 0.0004
vn 0.1961 0.978 -0.0712
vn 0.2491 0.9645 0.0878
vn -0.2979 0.9038 0.3073
vn -0.3434 0.9366 0.0694
vn -0.6455 0.7636 0.0145
vn -0.5652 0.7853 0.2529
vn 0.0078 0.9423 0.3346
vn -0.0324 0.9934 0.1096
vn -0.4212 0.8868 -0.1903
vn -0.6846 0.6931 -0.2255
vn -0.0704 0.9896 -0.1257
vn 0.705 0.7085 -0.0303
vn 0.5254 0.8434 -0.1125
vn 0.4094 0.874 0.2618
vn 0.5658 0.7615 0.3161
vn 0.6733 0.6246 0.3957
vn 0.8481 0.5268 0.0563
vn 0.3266 0.7034 0.6313
vn 0.2306 0.7701 0.5948
vn 0.4147 0.6289 0.6576
vn -0.297 0.9128 -0.2805
vn -0.4522 0.6902 -0.565
vn -0.6304 0.6544 -0.4176
vn -0.4525 0.8751 -0.1714
vn -0.5582 0.8293 -0.0256
vn -0.7786 0.5795 -0.2407
vn -0.1913 0.9748 0.1148
vn -0.0947 0.9943 0.0493
vn -0.2788 0.9442 0.1753
vn 0.062 0.9938 -0.0927
vn -0.3482 0.9299 -0.1189
vn -0.3527 0.9295 0.108
vn 0.055 0.9934 0.1006
vn -0.3388 0.8797 0.3336
vn 0.0424 0.9589 0.2807
vn 0.4875 0.8718 -0.047
vn 0.4751 0.8778 0.061
vn 0.4567 0.873 0.1713
vn -0.2225 0.9748 0.0143
vn -0.1701 0.9592 0.226
vn 0.0507 0.9721 0.2291
vn 0.0429 0.998 0.0461
vn 0.2859 0.956 0.0664
vn 0.2826 0.9337 0.2197
vn 0.0007 0.9887 -0.1499
vn -0.2638 0.9446 -0.1953
vn 0.282 0.9553 -0.0892
vn 0.5921 0.696 -0.4062
vn 0.1766 0.902 -0.3938
vn 0.1159 0.8883 -0.4445
vn 0.5219 0.6928 -0.4976
vn 0.0272 0.8584 -0.5122
vn 0.5582 0.6057 -0.5671
vn 0.8827 0.3351 -0.3295
vn 0.854 0.3241 -0.4069
vn 0.8143 0.3088 -0.4915
vn 0.0864 0.8262 -0.5568
vn 0.1173 0.9523 -0.2816
vn 0.1323 0.9545 -0.2672
vn 0.1055 0.8233 -0.5577
vn 0.0629 0.8294 -0.5551
vn 0.1096 0.9612 -0.2533
vn 0.1432 0.9889 0.0398
vn 0.1444 0.989 0.033
vn 0.1416 0.9888 0.0481
vn -0.0323 0.9979 -0.056
vn 0.3701 0.8981 0.2376
vn 0.4031 0.8858 0.2298
vn -0.0128 0.9964 -0.0833
vn -0.0562 0.9982 -0.0229
vn 0.3949 0.8749 0.2803
vn 0.6976 0.536 0.4755
vn 0.6952 0.5436 0.4703
vn 0.7003 0.5271 0.4814
vn -0.3849 0.9224 -0.0331
vn -0.2346 0.9157 0.3264
vn -0.038 0.9738 0.224
vn -0.2179 0.9707 -0.1011
vn -0.0612 0.9782 -0.1986
vn 0.1621 0.9807 0.1091
vn -0.3682 0.8242 -0.4303
vn -0.477 0.7877 -0.3897
vn -0.2634 0.8469 -0.462
vn 0.2027 0.8668 -0.4556
vn 0.2416 0.6063 -0.7576
vn 0.0067 0.6283 -0.7779
vn 0.0146 0.8715 -0.4903
vn -0.1709 0.8698 -0.4628
vn -0.2309 0.6147 -0.7542
vn 0.0169 0.994 -0.1077
vn 0.1322 0.9875 -0.0853
vn -0.0913 0.9877 -0.1268
vn 0.4479 0.8894 0.0913
vn 0.719 0.6491 0.2485
vn 0.7905 0.6118 0.0281
vn 0.5203 0.8497 -0.0847
vn 0.5299 0.8054 -0.2654
vn 0.8188 0.5373 -0.2021
vn 0.1505 0.9704 -0.1886
vn 0.1045 0.9912 -0.0813
vn 0.1916 0.9388 -0.2863
vn 0.1717 0.9192 -0.3544
vn -0.0319 0.9141 -0.4042
vn -0.1669 0.9643 -0.2054
vn -0.0059 0.9936 -0.1131
vn -0.1547 0.9817 0.1114
vn -0.2989 0.9541 0.0194
vn 0.1959 0.9787 -0.0616
vn 0.3585 0.8866 -0.2923
vn -0.0044 0.9797 0.2005
vn -0.1448 0.9859 0.0837
vn -0.0964 0.9662 0.239
vn 0.2786 0.9057 0.3196
vn 0.336 0.9359 0.1055
vn 0.6985 0.7105 0.0853
vn 0.6481 0.6752 0.3524
vn 0.2697 0.9539 -0.1315
vn -0.1891 0.9793 -0.0722
vn 0.699 0.6961 -0.164
vn 0.071 0.986 0.151
vn 0.2299 0.9663 0.1161
vn 0.3424 0.9055 -0.2506
vn 0.1339 0.9358 -0.3262
vn 0.145 0.7102 -0.6889
vn 0.4067 0.6748 -0.6158
vn -0.1078 0.9538 -0.2805
vn -0.088 0.9794 0.1817
vn -0.1034 0.6957 -0.7108
vn -0.041 0.9872 -0.1542
vn 0.1352 0.9872 0.0852
vn 0.1214 0.9837 0.1326
vn -0.0597 0.995 -0.0804
vn 0.1006 0.9743 0.2017
vn -0.1232 0.9891 -0.0804
vn -0.2377 0.9142 -0.3283
vn -0.2083 0.9038 -0.3737
vn -0.2714 0.9229 -0.2732
vn 0.6031 0.7453 0.2843
vn 0.4631 0.8834 0.0718
vn 0.3472 0.9362 -0.0545
vn 0.4524 0.859 0.2399
vn 0.2068 0.9595 -0.1912
vn 0.3103 0.941 0.1349
vn 0.5974 0.6226 0.5055
vn 0.7022 0.5045 0.5024
vn 0.3829 0.7886 0.4812
vn 0.6801 0.5051 0.5313
vn 0.69 0.6664 0.2825
vn 0.655 0.7463 0.1186
vn 0.6075 0.6652 0.4342
vn 0.5916 0.8038 -0.0633
vn 0.5518 0.7853 0.2807
vn 0.5445 0.4165 0.7281
vn 0.5937 0.2629 0.7606
vn 0.4272 0.6508 0.6277
vn 0.6802 0.5051 0.5313
vn 0.6899 0.6664 0.2826
vn 0.655 0.7463 0.1186
vn 0.6075 0.6652 0.4342
vn 0.5916 0.8038 -0.0633
vn 0.5518 0.7853 0.2807
vn 0.5445 0.4164 0.7281
vn 0.5937 0.2629 0.7606
vn 0.4272 0.6508 0.6277
vn 0.603 0.7453 0.2843
vn 0.4631 0.8834 0.0718
vn 0.3472 0.9362 -0.0546
vn 0.4524 0.859 0.2399
vn 0.2068 0.9595 -0.1912
vn 0.3104 0.941 0.1349
vn 0.5973 0.6226 0.5055
vn 0.7022 0.5045 0.5024
vn 0.383 0.7885 0.4812
vn 0.6802 0.5051 0.5313
vn 0.69 0.6664 0.2826
vn 0.655 0.7463 0.1186
vn 0.6075 0.6652 0.4342
vn 0.5915 0.8038 -0.0633
vn 0.5518 0.7853 0.2807
vn 0.5445 0.4165 0.7281
vn 0.5937 0.2629 0.7606
vn 0.4272 0.6508 0.6277
vn -0.5855 0.6033 0.5415
vn -0.3809 0.8292 0.4091
vn -0.4539 0.8523 0.2601
vn -0.6935 0.6168 0.3724
vn -0.4323 0.5576 0.7086
vn -0.2542 0.8369 0.4847
vn -0.1142 0.9765 0.1825
vn -0.1519 0.982 0.1125
vn -0.0796 0.9661 0.2458
vtan 0.4861 -0.384 -0.785
vtan 0.4922 -0.3713 -0.7873
vtan 0.4916 -0.395 -0.7761
vtan 0.4998 -0.4092 -0.7633
vtan 0.499 -0.3378 -0.7981
vtan 0.4935 -0.351 -0.7958
vtan 0.4896 -0.3647 -0.792
vtan 0.4964 -0.3736 -0.7836
vtan 0.466 -0.3419 -0.816
vtan 0.0186 -0.0341 -0.9992
vtan 0.2236 -0.232 -0.9467
vtan 0.23 -0.1668 -0.9588
vtan 0.0343 -0.0042 -0.9994
vtan -0.1467 0.1723 -0.9741
vtan -0.1365 0.1549 -0.9785
vtan 0.2332 -0.3072 -0.9227
vtan 0.0004 -0.063 -0.998
vtan -0.2078 0.1654 -0.9641
vtan -0.9872 -0.0081 0.159
vtan -0.9899 0.0312 0.1382
vtan -0.9216 0.3758 -0.0974
vtan -0.9049 0.4178 -0.0806
vtan -0.6475 0.705 -0.2892
vtan -0.6354 0.6737 -0.3773
vtan -0.9299 0.3662 -0.035
vtan -0.9856 -0.0555 0.1599
vtan -0.6194 0.752 -0.2257
vtan -0.325 -0.1577 -0.9325
vtan -0.3271 -0.1135 -0.9381
vtan -0.3196 0.2897 -0.9022
vtan -0.3509 0.3239 -0.8786
vtan -0.2948 0.6907 -0.6603
vtan -0.2068 0.7113 -0.6717
vtan -0.365 0.2628 -0.8931
vtan -0.2892 -0.1986 -0.9364
vtan -0.3697 0.698 -0.6133
vtan -0.3485 0.1281 -0.9285
vtan -0.3377 0.1643 -0.9268
vtan -0.3498 0.0984 -0.9317
vtan -0.3243 0.036 -0.9453
vtan -0.314 0.0217 -0.9492
vtan -0.3332 -0.0514 -0.9415
vtan -0.3194 -0.0106 -0.9476
vtan -0.3415 0.0869 -0.9359
vtan -0.3406 -0.0927 -0.9356
vtan -0.6271 0.2272 -0.745
vtan -0.6243 0.2424 -0.7426
vtan -0.6198 0.2182 -0.7538
vtan -0.6088 0.2061 -0.7661
vtan -0.6241 0.2756 -0.7311
vtan -0.6272 0.2616 -0.7336
vtan -0.628 0.2475 -0.7378
vtan -0.6201 0.2403 -0.7468
vtan -0.6531 0.2644 -0.7096
vtan -0.8721 0.0816 0.4824
vtan -0.9244 0.1965 0.3271
vtan -0.871 0.2319 0.4331
vtan -0.8586 0.1204 0.4982
vtan -0.8791 0.1665 0.4466
vtan -0.8741 0.3566 0.3298
vtan -0.8529 0.0446 0.5202
vtan -0.8385 0.0359 0.5437
vtan -0.8758 0.0461 0.4806
vtan -0.989 -0.1468 0.0181
vtan -0.9946 -0.1029 0.0146
vtan -0.9537 0.3002 -0.0195
vtan -0.9416 0.3363 0.0149
vtan -0.713 0.7012 -0.0019
vtan -0.6944 0.7138 -0.0909
vtan -0.9608 0.2757 0.0291
vtan -0.9816 -0.1904 -0.0112
vtan -0.6934 0.7158 0.0824
vtan -0.1948 0.08 -0.9776
vtan -0.1313 0.1518 -0.9797
vtan -0.0423 0.1065 -0.9934
vtan -0.2406 -0.1892 -0.952
vtan -0.2687 0.1344 -0.9538
vtan -0.2542 0.103 -0.9616
vtan 0.0324 0.1267 -0.9914
vtan 0.3355 0.1593 -0.9285
vtan -0.2087 0.092 -0.9736
vtan -0.0218 -0.1904 -0.9815
vtan -0.0491 -0.2328 -0.9713
vtan -0.0478 0.0043 -0.9988
vtan -0.0536 -0.0016 -0.9986
vtan -0.0864 0.1849 -0.979
vtan -0.0359 0.2453 -0.9688
vtan -0.0623 0.003 -0.9981
vtan -0.0504 -0.1368 -0.9893
vtan -0.0766 0.1319 -0.9883
vtan -0.9362 -0.3295 0.1226
vtan -0.9219 -0.3738 0.1022
vtan -0.9268 -0.2216 0.3032
vtan -0.9259 -0.2322 0.2979
vtan -0.8771 -0.1259 0.4634
vtan -0.8772 -0.0519 0.4774
vtan -0.9225 -0.2341 0.3068
vtan -0.9299 -0.3162 0.1877
vtan -0.8974 -0.1553 0.413
vtan -0.9891 -0.1464 0.0181
vtan -0.9946 -0.1024 0.0146
vtan -0.9535 0.3007 -0.0195
vtan -0.9415 0.3368 0.0149
vtan -0.7127 0.7015 -0.0019
vtan -0.6941 0.7141 -0.0909
vtan -0.9607 0.2761 0.0291
vtan -0.9817 -0.1899 -0.0112
vtan -0.6931 0.7161 0.0824
vtan 0.0558 -0.1846 -0.9812
vtan 0.0481 -0.2324 -0.9714
vtan -0.0462 -0.0128 -0.9989
vtan -0.0494 -0.0202 -0.9986
vtan -0.154 0.1417 -0.9779
vtan -0.1317 0.2143 -0.9679
vtan -0.0588 -0.0191 -0.9981
vtan 0.0068 -0.1445 -0.9895
vtan -0.1213 0.0953 -0.988
vtan 0.0609 0.0813 -0.9948
vtan 0.2201 0.1965 -0.9555
vtan 0.102 0.2319 -0.9674
vtan 0.0404 0.1204 -0.9919
vtan 0.095 0.1665 -0.9815
vtan 0.1908 0.3567 -0.9145
vtan 0.0188 0.0446 -0.9988
vtan -0.0088 0.0359 -0.9993
vtan 0.0644 0.0458 -0.9969
vtan 0.0133 0.0317 -0.9994
vtan 0.0029 0.0605 -0.9982
vtan -0.156 -0.4713 -0.868
vtan -0.1579 -0.4178 -0.8947
vtan 0.2215 0.5338 -0.8161
vtan 0.1498 0.5065 -0.8491
vtan -0.0306 -0.0641 -0.9975
vtan -0.1322 -0.5324 -0.8361
vtan 0.1082 0.4917 -0.864
vtan -0.9309 0.1679 -0.3243
vtan -0.9189 0.2286 -0.3216
vtan -0.837 0.4663 -0.2863
vtan -0.8481 0.467 -0.2501
vtan -0.7007 0.6881 -0.1885
vtan -0.6625 0.6996 -0.2677
vtan -0.8761 0.4107 -0.2524
vtan -0.9484 0.1165 -0.295
vtan -0.7014 0.6929 -0.1672
vtan -0.9957 0.0878 0.0288
vtan -0.9973 0.0621 0.0389
vtan -0.964 -0.2414 -0.1114
vtan -0.9818 -0.1545 -0.1101
vtan -0.9206 0.359 0.1537
vtan -0.932 0.3278 0.155
vtan -0.9997 -0.0225 0.004
vtan -0.9422 -0.3158 -0.1123
vtan -0.9448 0.3108 0.1039
vtan 0.0162 -0.418 -0.9083
vtan -0.013 -0.4573 -0.8892
vtan -0.0058 -0.2309 -0.973
vtan -0.0109 -0.2381 -0.9712
vtan -0.0414 -0.0496 -0.9979
vtan 0.0096 0.0109 -0.9999
vtan -0.0203 -0.2302 -0.9729
vtan -0.0115 -0.3665 -0.9303
vtan -0.0324 -0.103 -0.9942
vtan 0.2327 -0.0052 0.9725
vtan 0.2199 -0.0215 0.9753
vtan 0.2234 -0.0114 0.9747
vtan 0.2472 0.0034 0.969
vtan 0.2267 -0.0371 0.9733
vtan 0.2186 -0.0466 0.9747
vtan 0.228 -0.0211 0.9734
vtan 0.2092 -0.0275 0.9775
vtan 0.2104 -0.0297 0.9772
vtan 0.0558 -0.1846 -0.9812
vtan 0.0481 -0.2324 -0.9714
vtan -0.0462 -0.0128 -0.9989
vtan -0.0494 -0.0202 -0.9986
vtan -0.154 0.1417 -0.9779
vtan -0.1317 0.2143 -0.9679
vtan -0.0588 -0.0192 -0.9981
vtan 0.0068 -0.1445 -0.9895
vtan -0.1213 0.0953 -0.988
vtan 0.8144 -0.1955 0.5464
vtan 0.8278 -0.2321 0.5107
vtan 0.8211 -0.0002 0.5707
vtan 0.825 -0.0051 0.5651
vtan 0.8076 0.1839 0.5603
vtan 0.7616 0.2343 0.6042
vtan 0.8293 0.0015 0.5588
vtan 0.8313 -0.1381 0.5384
vtan 0.8155 0.1307 0.5638
vtan 0.0558 -0.1846 -0.9812
vtan 0.0481 -0.2324 -0.9714
vtan -0.0462 -0.0128 -0.9989
vtan -0.0494 -0.0202 -0.9986
vtan -0.154 0.1417 -0.9779
vtan -0.1317 0.2142 -0.9679
vtan -0.0588 -0.0191 -0.9981
vtan 0.0068 -0.1445 -0.9895
vtan -0.1213 0.0953 -0.988
vtan -0.0197 0.02 -0.9996
vtan -0.016 0.0345 -0.9993
vtan -0.0104 0.009 -0.9999
vtan 0.0032 -0.0062 -1.0
vtan -0.0162 0.0694 -0.9975
vtan -0.0195 0.0554 -0.9983
vtan -0.0206 0.0408 -0.999
vtan -0.0106 0.0317 -0.9994
vtan -0.0532 0.0643 -0.9965
vtan -0.7623 0.3246 0.5599
vtan -0.7516 0.3667 0.5482
vtan -0.5792 0.7206 0.3812
vtan -0.5333 0.748 0.3951
vtan -0.2182 0.964 0.1517
vtan -0.2518 0.9658 0.0618
vtan -0.5619 0.7041 0.4342
vtan -0.7905 0.2821 0.5436
vtan -0.1469 0.967 0.2082
vtan -0.958 -0.2853 -0.0306
vtan -0.9747 -0.2207 -0.0355
vtan -0.9989 0.0422 -0.0219
vtan -0.9992 0.0366 0.0129
vtan -0.9483 0.3161 0.028
vtan -0.942 0.3314 -0.0534
vtan -0.9995 -0.025 0.0209
vtan -0.9412 -0.3377 0.0028
vtan -0.9452 0.3228 0.0484
vtan -0.0955 -0.1176 0.9885
vtan 0.0363 -0.1017 0.9942
vtan -0.0682 -0.0672 0.9954
vtan -0.2901 -0.1614 0.9433
vtan -0.0168 0.032 0.9993
vtan -0.0045 -0.0082 1.0
vtan -0.2197 -0.1825 0.9583
vtan -0.4496 -0.3394 0.8262
vtan -0.0266 -0.0489 0.9985
vtan 0.9883 -0.1491 0.0322
vtan 0.9691 -0.2463 0.0098
vtan 0.9061 -0.4188 0.0596
vtan 0.9639 -0.2628 0.0428
vtan 0.9971 -0.0491 -0.0573
vtan 0.9852 -0.1166 -0.1258
vtan 0.8861 -0.4593 0.0621
vtan 0.8108 -0.5846 0.03
vtan 0.9833 -0.1697 -0.0663
vtan 0.9663 0.1304 -0.222
vtan 0.9853 0.1218 -0.1198
vtan 0.9872 0.0877 -0.1333
vtan 0.8753 0.087 -0.4757
vtan 0.9664 0.1647 -0.1975
vtan 0.9634 0.1522 -0.2208
vtan 0.9916 0.0807 -0.1007
vtan 0.9984 0.0373 -0.0418
vtan 0.9668 0.1382 -0.215
vtan 0.0022 0.1021 0.9948
vtan 0.022 0.132 0.991
vtan -0.0232 0.0817 0.9964
vtan -0.0928 0.0612 0.9938
vtan -0.1103 0.0562 0.9923
vtan -0.1457 -0.0124 0.9893
vtan -0.134 0.03 0.9905
vtan -0.036 0.0797 0.9962
vtan -0.177 -0.0438 0.9832
vtan -0.9496 -0.3133 0.0008
vtan -0.9384 -0.3452 0.0155
vtan -0.7635 -0.6448 -0.0353
vtan -0.8199 -0.5687 -0.0664
vtan -0.9991 -0.0062 0.0408
vtan -0.9981 -0.038 0.049
vtan -0.9041 -0.4271 0.0105
vtan -0.7094 -0.7047 -0.0124
vtan -0.9975 -0.0698 0.0091
vtan 0.6687 -0.6499 0.3613
vtan 0.7978 -0.4424 0.4098
vtan 0.7899 -0.4831 0.3778
vtan 0.6662 -0.6481 0.3689
vtan 0.5197 -0.7804 0.3477
vtan 0.4931 -0.8237 0.2798
vtan 0.6646 -0.6458 0.3758
vtan 0.7504 -0.5299 0.3951
vtan 0.5677 -0.7436 0.3532
vtan 0.7915 0.071 -0.607
vtan 0.7939 0.0227 -0.6076
vtan 0.6884 0.2228 -0.6902
vtan 0.6854 0.2184 -0.6947
vtan 0.5551 0.3503 -0.7544
vtan 0.5394 0.4222 -0.7285
vtan 0.6803 0.216 -0.7004
vtan 0.7539 0.104 -0.6487
vtan 0.5989 0.3136 -0.7368
vtan 0.232 -0.1047 -0.9671
vtan 0.2159 -0.0439 -0.9754
vtan 0.0407 0.1305 -0.9906
vtan 0.0135 0.1 -0.9949
vtan -0.1473 0.3005 -0.9423
vtan -0.137 0.2838 -0.949
vtan 0.2322 -0.1814 -0.9556
vtan 0.0008 0.0689 -0.9976
vtan -0.2087 0.2923 -0.9333
vtan -0.9746 -0.222 -0.0282
vtan -0.9853 -0.1695 -0.0222
vtan -0.9987 0.0517 0.0016
vtan -0.999 0.0423 0.0157
vtan -0.9577 0.2827 0.0534
vtan -0.9579 0.2867 0.0134
vtan -0.9998 0.0038 0.0204
vtan -0.9616 -0.2734 -0.0236
vtan -0.9549 0.2884 0.0699
vtan -0.1472 -0.4022 -0.9037
vtan -0.1082 -0.3799 -0.9187
vtan -0.1686 -0.4234 -0.8901
vtan -0.176 -0.4833 -0.8576
vtan -0.1733 -0.5006 -0.8481
vtan -0.2287 -0.5446 -0.8069
vtan -0.154 -0.4563 -0.8764
vtan -0.2014 -0.5153 -0.833
vtan -0.2577 -0.5665 -0.7828
vtan 0.986 -0.1507 -0.0706
vtan 0.9871 -0.1429 -0.0722
vtan 0.9861 -0.1542 -0.0626
vtan 0.9859 -0.1598 -0.0495
vtan 0.99 -0.1222 -0.0703
vtan 0.9894 -0.1298 -0.0647
vtan 0.987 -0.1397 -0.079
vtan 0.9877 -0.142 -0.0659
vtan 0.9873 -0.1375 -0.0793
vtan 0.5602 -0.0283 -0.8279
vtan 0.5688 -0.0169 -0.8223
vtan 0.5628 -0.0419 -0.8256
vtan 0.5662 -0.0615 -0.822
vtan 0.5824 0.0141 -0.8128
vtan 0.5749 0.0027 -0.8182
vtan 0.5682 -0.0097 -0.8228
vtan 0.5718 -0.0218 -0.8201
vtan 0.5532 0.0254 -0.8326
vtan -0.835 -0.3327 0.4384
vtan -0.8063 -0.3708 0.4608
vtan -0.8749 -0.1408 0.4634
vtan -0.8713 -0.1468 0.4683
vtan -0.8738 0.0436 0.4843
vtan -0.8963 0.1001 0.4321
vtan -0.8682 -0.1392 0.4764
vtan -0.8399 -0.278 0.4661
vtan -0.8765 -0.0101 0.4813
vtan 0.9777 -0.1531 0.1436
vtan 0.9684 -0.201 0.148
vtan 1.0 -0.009 0.0013
vtan 0.9999 -0.0168 -0.0002
vtan 0.9827 0.1165 -0.144
vtan 0.9713 0.1915 -0.1413
vtan 0.9998 -0.018 -0.0092
vtan 0.9885 -0.125 0.0854
vtan 0.992 0.0791 -0.0982
vtan -0.3464 0.0785 0.9348
vtan -0.3508 0.0303 0.9359
vtan -0.2065 0.2231 0.9527
vtan -0.2016 0.2186 0.9547
vtan -0.052 0.3432 0.9378
vtan -0.0483 0.4153 0.9084
vtan -0.1943 0.2161 0.9568
vtan -0.2904 0.1086 0.9507
vtan -0.1009 0.309 0.9457
vtan 0.4976 -0.3914 -0.774
vtan 0.5099 -0.333 -0.7932
vtan 0.5286 -0.0884 -0.8443
vtan 0.4986 -0.0951 -0.8616
vtan 0.4799 0.1732 -0.8601
vtan 0.5516 0.1893 -0.8124
vtan 0.4882 -0.1518 -0.8594
vtan 0.4576 -0.4398 -0.7727
vtan 0.4599 0.18 -0.8695
vtan -0.989 -0.1468 0.0181
vtan -0.9946 -0.1029 0.0146
vtan -0.9537 0.3002 -0.0195
vtan -0.9416 0.3363 0.0149
vtan -0.713 0.7011 -0.0019
vtan -0.6943 0.7139 -0.0908
vtan -0.9608 0.2757 0.0291
vtan -0.9816 -0.1904 -0.0112
vtan -0.6935 0.7158 0.0824
vtan -0.0668 -0.1464 0.987
vtan -0.0708 -0.1024 0.9922
vtan -0.1012 0.3007 0.9483
vtan -0.0659 0.3368 0.9393
vtan -0.063 0.7015 0.7099
vtan -0.1501 0.7143 0.6836
vtan -0.0534 0.2762 0.9596
vtan -0.0954 -0.1899 0.9772
vtan 0.0227 0.7161 0.6976
vtan -0.8453 0.0481 0.5321
vtan -0.8351 0.0673 0.546
vtan -0.846 0.0327 0.5322
vtan -0.8524 -0.0089 0.5229
vtan -0.86 -0.0168 0.51
vtan -0.85 -0.0633 0.523
vtan -0.8488 -0.0312 0.5277
vtan -0.8529 0.0192 0.5218
vtan -0.8357 -0.0852 0.5425
vtan 0.7934 -0.5972 -0.1174
vtan 0.8854 -0.4573 -0.0837
vtan 0.931 -0.3511 -0.0999
vtan 0.8918 -0.4326 -0.1326
vtan 0.9735 -0.2213 -0.0575
vtan 0.9429 -0.2866 -0.1698
vtan 0.765 -0.6316 -0.1261
vtan 0.6586 -0.7284 -0.189
vtan 0.9233 -0.3427 -0.1732
vtan 0.4935 -0.8514 0.1777
vtan 0.6188 -0.7456 0.2475
vtan 0.7055 -0.6602 0.2578
vtan 0.6503 -0.7303 0.2091
vtan 0.7754 -0.5456 0.318
vtan 0.7675 -0.6099 0.1976
vtan 0.4586 -0.8746 0.1573
vtan 0.3482 -0.936 0.0518
vtan 0.7282 -0.6592 0.1877
vtan 0.4935 -0.8514 0.1777
vtan 0.6188 -0.7456 0.2475
vtan 0.7055 -0.6602 0.2578
vtan 0.6503 -0.7304 0.2091
vtan 0.7753 -0.5456 0.318
vtan 0.7675 -0.6099 0.1976
vtan 0.4586 -0.8746 0.1573
vtan 0.3481 -0.936 0.0518
vtan 0.7282 -0.6591 0.1877
vtan 0.7935 -0.5972 -0.1174
vtan 0.8854 -0.4573 -0.0836
vtan 0.931 -0.3511 -0.0999
vtan 0.8918 -0.4326 -0.1327
vtan 0.9735 -0.2213 -0.0575
vtan 0.9429 -0.2866 -0.1698
vtan 0.765 -0.6316 -0.126
vtan 0.6586 -0.7284 -0.189
vtan 0.9233 -0.3428 -0.1732
vtan 0.4935 -0.8514 0.1777
vtan 0.6188 -0.7456 0.2475
vtan 0.7055 -0.6602 0.2578
vtan 0.6503 -0.7303 0.2091
vtan 0.7754 -0.5456 0.318
vtan 0.7675 -0.6099 0.1976
vtan 0.4586 -0.8746 0.1573
vtan 0.3481 -0.936 0.0518
vtan 0.7282 -0.6591 0.1877
vtan -0.6364 0.0716 -0.768
vtan -0.6552 0.0702 -0.7522
vtan -0.5059 -0.0062 -0.8626
vtan -0.4874 -0.021 -0.8729
vtan -0.7871 0.1501 -0.5983
vtan -0.7686 0.1295 -0.6265
vtan -0.6565 0.0637 -0.7517
vtan -0.5665 0.0068 -0.824
vtan -0.7234 0.1137 -0.681
f 0/0/0/0 1/1/1/1 2/2/2/2 
f 0/0/0/0 2/2/2/2 3/3/3/3 
f 1/1/1/1 0/0/0/0 4/4/4/4 
f 1/1/1/1 4/4/4/4 5/5/5/5 
f 2/2/2/2 1/1/1/1 6/6/6/6 
f 2/2/2/2 6/6/6/6 7/7/7/7 
f 5/5/5/5 8/8/8/8 6/6/6/6 
f 5/5/5/5 6/6/6/6 1/1/1/1 
f 9/9/9/9 10/10/10/10 11/11/11/11 
f 9/9/9/9 11/11/11/11 12/12/12/12 
f 9/9/9/9 12/12/12/12 13/13/13/13 
f 9/9/9/9 13/13/13/13 14/14/14/14 
f 15/15/15/15 10/10/10/10 9/9/9/9 
f 15/15/15/15 9/9/9/9 16/16/16/16 
f 17/17/17/17 16/16/16/16 9/9/9/9 
f 17/17/17/17 9/9/9/9 14/14/14/14 
f 18/18/18/18 19/19/19/19 20/20/20/20 
f 18/18/18/18 20/20/20/20 21/21/21/21 
f 22/22/22/22 21/21/21/21 20/20/20/20 
f 22/22/22/22 20/20/20/20 23/23/23/23 
f 24/24/24/24 25/25/25/25 18/18/18/18 
f 24/24/24/24 18/18/18/18 21/21/21/21 
f 24/24/24/24 21/21/21/21 22/22/22/22 
f 24/24/24/24 22/22/22/22 26/26/26/26 
f 27/18/27/27 28/19/28/28 29/20/29/29 
f 27/18/27/27 29/20/29/29 30/21/30/30 
f 31/22/31/31 30/21/30/30 29/20/29/29 
f 31/22/31/31 29/20/29/29 32/23/32/32 
f 33/24/33/33 34/25/34/34 27/18/27/27 
f 33/24/33/33 27/18/27/27 30/21/30/30 
f 33/24/33/33 30/21/30/30 31/22/31/31 
f 33/24/33/33 31/22/31/31 35/26/35/35 
f 36/27/36/36 37/28/37/37 38/29/38/38 
f 36/27/36/36 38/29/38/38 39/30/39/39 
f 39/30/39/39 38/29/38/38 40/31/40/40 
f 39/30/39/39 40/31/40/40 41/32/41/41 
f 42/33/42/42 43/34/43/43 36/27/36/36 
f 42/33/42/42 36/27/36/36 39/30/39/39 
f 44/35/44/44 42/33/42/42 39/30/39/39 
f 44/35/44/44 39/30/39/39 41/32/41/41 
f 45/0/45/45 46/1/46/46 47/2/47/47 
f 45/0/45/45 47/2/47/47 48/3/48/48 
f 49/4/49/49 50/5/50/50 46/1/46/46 
f 49/4/49/49 46/1/46/46 45/0/45/45 
f 47/2/47/47 46/1/46/46 51/6/51/51 
f 47/2/47/47 51/6/51/51 52/7/52/52 
f 50/5/50/50 53/8/53/53 51/6/51/51 
f 50/5/50/50 51/6/51/51 46/1/46/46 
f 54/36/54/54 55/37/55/55 56/38/56/56 
f 54/36/54/54 56/38/56/56 57/39/57/57 
f 58/40/58/58 57/39/57/57 56/38/56/56 
f 58/40/58/58 56/38/56/56 59/41/59/59 
f 60/42/60/60 61/43/61/61 54/36/54/54 
f 60/42/60/60 54/36/54/54 57/39/57/57 
f 62/44/62/62 60/42/60/60 57/39/57/57 
f 62/44/62/62 57/39/57/57 58/40/58/58 
f 63/18/63/63 64/19/64/64 65/20/65/65 
f 63/18/63/63 65/20/65/65 66/21/66/66 
f 67/22/67/67 66/21/66/66 65/20/65/65 
f 67/22/67/67 65/20/65/65 68/23/68/68 
f 69/24/69/69 70/25/70/70 63/18/63/63 
f 69/24/69/69 63/18/63/63 66/21/66/66 
f 69/24/69/69 66/21/66/66 67/22/67/67 
f 69/24/69/69 67/22/67/67 71/26/71/71 
f 72/45/72/72 73/46/73/73 74/47/74/74 
f 72/45/72/72 74/47/74/74 75/48/75/75 
f 72/45/72/72 76/49/76/76 77/50/77/77 
f 72/45/72/72 77/50/77/77 73/46/73/73 
f 74/47/74/74 73/46/73/73 78/51/78/78 
f 74/47/74/74 78/51/78/78 79/52/79/79 
f 73/46/73/73 77/50/77/77 80/53/80/80 
f 73/46/73/73 80/53/80/80 78/51/78/78 
f 81/54/81/81 82/55/82/82 83/56/83/83 
f 81/54/81/81 83/56/83/83 84/57/84/84 
f 85/58/85/85 84/57/84/84 83/56/83/83 
f 85/58/85/85 83/56/83/83 86/59/86/86 
f 87/60/87/87 88/61/88/88 81/54/81/81 
f 87/60/87/87 81/54/81/81 84/57/84/84 
f 87/60/87/87 84/57/84/84 85/58/85/85 
f 87/60/87/87 85/58/85/85 89/62/89/89 
f 90/54/90/90 91/55/91/91 92/56/92/92 
f 90/54/90/90 92/56/92/92 93/57/93/93 
f 94/58/94/94 93/57/93/93 92/56/92/92 
f 94/58/94/94 92/56/92/92 95/59/95/95 
f 96/60/96/96 97/61/97/97 90/54/90/90 
f 96/60/96/96 90/54/90/90 93/57/93/93 
f 96/60/96/96 93/57/93/93 94/58/94/94 
f 96/60/96/96 94/58/94/94 98/62/98/98 
f 99/18/99/99 100/19/100/100 101/20/101/101 
f 99/18/99/99 101/20/101/101 102/21/102/102 
f 103/22/103/103 102/21/102/102 101/20/101/101 
f 103/22/103/103 101/20/101/101 104/23/104/104 
f 105/24/105/105 106/25/106/106 99/18/99/99 
f 105/24/105/105 99/18/99/99 102/21/102/102 
f 105/24/105/105 102/21/102/102 103/22/103/103 
f 105/24/105/105 103/22/103/103 107/26/107/107 
f 108/54/108/108 109/55/109/109 110/56/110/110 
f 108/54/108/108 110/56/110/110 111/57/111/111 
f 112/58/112/112 111/57/111/111 110/56/110/110 
f 112/58/112/112 110/56/110/110 113/59/113/113 
f 114/60/114/114 115/61/115/115 108/54/108/108 
f 114/60/114/114 108/54/108/108 111/57/111/111 
f 114/60/114/114 111/57/111/111 112/58/112/112 
f 114/60/114/114 112/58/112/112 116/62/116/116 
f 117/36/117/117 118/37/118/118 119/38/119/119 
f 117/36/117/117 119/38/119/119 120/39/120/120 
f 121/40/121/121 120/39/120/120 119/38/119/119 
f 121/40/121/121 119/38/119/119 122/41/122/122 
f 123/42/123/123 124/43/124/124 117/36/117/117 
f 123/42/123/123 117/36/117/117 120/39/120/120 
f 125/44/125/125 123/42/123/123 120/39/120/120 
f 125/44/125/125 120/39/120/120 121/40/121/121 
f 126/0/126/126 127/1/127/127 128/2/128/128 
f 126/0/126/126 128/2/128/128 129/3/129/129 
f 126/0/126/126 130/4/130/130 131/5/131/131 
f 126/0/126/126 131/5/131/131 127/1/127/127 
f 128/2/128/128 127/1/127/127 132/6/132/132 
f 128/2/128/128 132/6/132/132 133/7/133/133 
f 131/5/131/131 134/8/134/134 132/6/132/132 
f 131/5/131/131 132/6/132/132 127/1/127/127 
f 135/63/135/135 136/64/136/136 137/65/137/137 
f 135/63/135/135 137/65/137/137 138/66/138/138 
f 139/67/139/139 138/66/138/138 137/65/137/137 
f 139/67/139/139 137/65/137/137 140/68/140/140 
f 141/69/141/141 142/70/142/142 135/63/135/135 
f 141/69/141/141 135/63/135/135 138/66/138/138 
f 141/69/141/141 138/66/138/138 139/67/139/139 
f 141/69/141/141 139/67/139/139 143/71/143/143 
f 144/72/144/144 145/73/145/145 146/74/146/146 
f 144/72/144/144 146/74/146/146 147/75/147/147 
f 144/72/144/144 148/76/148/148 149/77/149/149 
f 144/72/144/144 149/77/149/149 145/73/145/145 
f 146/74/146/146 145/73/145/145 150/78/150/150 
f 146/74/146/146 150/78/150/150 151/79/151/151 
f 149/77/149/149 152/80/152/152 150/78/150/150 
f 149/77/149/149 150/78/150/150 145/73/145/145 
f 153/54/153/153 154/55/154/154 155/56/155/155 
f 153/54/153/153 155/56/155/155 156/57/156/156 
f 157/58/157/157 156/57/156/156 155/56/155/155 
f 157/58/157/157 155/56/155/155 158/59/158/158 
f 159/60/159/159 160/61/160/160 153/54/153/153 
f 159/60/159/159 153/54/153/153 156/57/156/156 
f 159/60/159/159 156/57/156/156 157/58/157/157 
f 159/60/159/159 157/58/157/157 161/62/161/161 
f 162/2/162/162 163/1/163/163 164/0/164/164 
f 162/2/162/162 164/0/164/164 165/3/165/165 
f 163/1/163/163 166/5/166/166 167/4/167/167 
f 163/1/163/163 167/4/167/167 164/0/164/164 
f 162/2/162/162 168/7/168/168 169/6/169/169 
f 162/2/162/162 169/6/169/169 163/1/163/163 
f 163/1/163/163 169/6/169/169 170/8/170/170 
f 163/1/163/163 170/8/170/170 166/5/166/166 
f 171/54/171/171 172/55/172/172 173/56/173/173 
f 171/54/171/171 173/56/173/173 174/57/174/174 
f 175/58/175/175 174/57/174/174 173/56/173/173 
f 175/58/175/175 173/56/173/173 176/59/176/176 
f 177/60/177/177 178/61/178/178 171/54/171/171 
f 177/60/177/177 171/54/171/171 174/57/174/174 
f 177/60/177/177 174/57/174/174 175/58/175/175 
f 177/60/177/177 175/58/175/175 179/62/179/179 
f 180/54/180/180 181/55/181/181 182/56/182/182 
f 180/54/180/180 182/56/182/182 183/57/183/183 
f 184/58/184/184 183/57/183/183 182/56/182/182 
f 184/58/184/184 182/56/182/182 185/59/185/185 
f 186/60/186/186 187/61/187/187 180/54/180/180 
f 186/60/186/186 180/54/180/180 183/57/183/183 
f 186/60/186/186 183/57/183/183 184/58/184/184 
f 186/60/186/186 184/58/184/184 188/62/188/188 
f 189/54/189/189 190/55/190/190 191/56/191/191 
f 189/54/189/189 191/56/191/191 192/57/192/192 
f 193/58/193/193 192/57/192/192 191/56/191/191 
f 193/58/193/193 191/56/191/191 194/59/194/194 
f 195/60/195/195 196/61/196/196 189/54/189/189 
f 195/60/195/195 189/54/189/189 192/57/192/192 
f 195/60/195/195 192/57/192/192 193/58/193/193 
f 195/60/195/195 193/58/193/193 197/62/197/197 
f 198/0/198/198 199/1/199/199 200/2/200/200 
f 198/0/198/198 200/2/200/200 201/3/201/201 
f 202/4/202/202 203/5/203/203 199/1/199/199 
f 202/4/202/202 199/1/199/199 198/0/198/198 
f 200/2/200/200 199/1/199/199 204/6/204/204 
f 200/2/200/200 204/6/204/204 205/7/205/205 
f 203/5/203/203 206/8/206/206 204/6/204/204 
f 203/5/203/203 204/6/204/204 199/1/199/199 
f 207/18/207/207 208/19/208/208 209/20/209/209 
f 207/18/207/207 209/20/209/209 210/21/210/210 
f 211/22/211/211 210/21/210/210 209/20/209/209 
f 211/22/211/211 209/20/209/209 212/23/212/212 
f 213/24/213/213 214/25/214/214 207/18/207/207 
f 213/24/213/213 207/18/207/207 210/21/210/210 
f 213/24/213/213 210/21/210/210 211/22/211/211 
f 213/24/213/213 211/22/211/211 215/26/215/215 
f 216/63/216/216 217/64/217/217 218/65/218/218 
f 216/63/216/216 218/65/218/218 219/66/219/219 
f 220/67/220/220 219/66/219/219 218/65/218/218 
f 220/67/220/220 218/65/218/218 221/68/221/221 
f 222/69/222/222 223/70/223/223 216/63/216/216 
f 222/69/222/222 216/63/216/216 219/66/219/219 
f 222/69/222/222 219/66/219/219 220/67/220/220 
f 222/69/222/222 220/67/220/220 224/71/224/224 
f 225/48/225/225 226/45/226/226 227/46/227/227 
f 225/48/225/225 227/46/227/227 228/47/228/228 
f 226/45/226/226 229/49/229/229 230/50/230/230 
f 226/45/226/226 230/50/230/230 227/46/227/227 
f 228/47/228/228 227/46/227/227 231/51/231/231 
f 228/47/228/228 231/51/231/231 232/52/232/232 
f 227/46/227/227 230/50/230/230 233/53/233/233 
f 227/46/227/227 233/53/233/233 231/51/231/231 
f 234/81/234/234 235/82/235/235 236/83/236/236 
f 234/81/234/234 236/83/236/236 237/84/237/237 
f 238/85/238/238 239/86/239/239 235/82/235/235 
f 238/85/238/238 235/82/235/235 234/81/234/234 
f 236/83/236/236 235/82/235/235 240/87/240/240 
f 236/83/236/236 240/87/240/240 241/88/241/241 
f 235/82/235/235 239/86/239/239 242/89/242/242 
f 235/82/235/235 242/89/242/242 240/87/240/240 
f 243/45/243/243 244/46/244/244 245/47/245/245 
f 243/45/243/243 245/47/245/245 246/48/246/246 
f 243/45/243/243 247/49/247/247 248/50/248/248 
f 243/45/243/243 248/50/248/248 244/46/244/244 
f 245/47/245/245 244/46/244/244 249/51/249/249 
f 245/47/245/245 249/51/249/249 250/52/250/250 
f 244/46/244/244 248/50/248/248 251/53/251/251 
f 244/46/244/244 251/53/251/251 249/51/249/249 
f 252/27/252/252 253/28/253/253 254/29/254/254 
f 252/27/252/252 254/29/254/254 255/30/255/255 
f 255/30/255/255 254/29/254/254 256/31/256/256 
f 255/30/255/255 256/31/256/256 257/32/257/257 
f 258/33/258/258 259/34/259/259 252/27/252/252 
f 258/33/258/258 252/27/252/252 255/30/255/255 
f 260/35/260/260 258/33/258/258 255/30/255/255 
f 260/35/260/260 255/30/255/255 257/32/257/257 
f 261/72/261/261 262/73/262/262 263/74/263/263 
f 261/72/261/261 263/74/263/263 264/75/264/264 
f 261/72/261/261 265/76/265/265 266/77/266/266 
f 261/72/261/261 266/77/266/266 262/73/262/262 
f 263/74/263/263 262/73/262/262 267/78/267/267 
f 263/74/263/263 267/78/267/267 268/79/268/268 
f 266/77/266/266 269/80/269/269 267/78/267/267 
f 266/77/266/266 267/78/267/267 262/73/262/262 
f 270/56/270/270 271/55/271/271 272/54/272/272 
f 270/56/270/270 272/54/272/272 273/57/273/273 
f 274/58/274/274 275/59/275/275 270/56/270/270 
f 274/58/274/274 270/56/270/270 273/57/273/273 
f 276/60/276/276 273/57/273/273 272/54/272/272 
f 276/60/276/276 272/54/272/272 277/61/277/277 
f 274/58/274/274 273/57/273/273 276/60/276/276 
f 274/58/274/274 276/60/276/276 278/62/278/278 
f 279/54/279/279 280/55/280/280 281/56/281/281 
f 279/54/279/279 281/56/281/281 282/57/282/282 
f 283/58/283/283 282/57/282/282 281/56/281/281 
f 283/58/283/283 281/56/281/281 284/59/284/284 
f 285/60/285/285 286/61/286/286 279/54/279/279 
f 285/60/285/285 279/54/279/279 282/57/282/282 
f 285/60/285/285 282/57/282/282 283/58/283/283 
f 285/60/285/285 283/58/283/283 287/62/287/287 
f 288/10/288/288 289/11/289/289 290/12/290/290 
f 288/10/288/288 290/12/290/290 291/9/291/291 
f 291/9/291/291 290/12/290/290 292/13/292/292 
f 291/9/291/291 292/13/292/292 293/14/293/293 
f 294/15/294/294 288/10/288/288 291/9/291/291 
f 294/15/294/294 291/9/291/291 295/16/295/295 
f 296/17/296/296 295/16/295/295 291/9/291/291 
f 296/17/296/296 291/9/291/291 293/14/293/293 
f 297/90/297/297 298/91/298/298 299/92/299/299 
f 297/90/297/297 299/92/299/299 300/93/300/300 
f 301/94/301/301 300/93/300/300 299/92/299/299 
f 301/94/301/301 299/92/299/299 302/95/302/302 
f 303/96/303/303 304/97/304/304 297/90/297/297 
f 303/96/303/303 297/90/297/297 300/93/300/300 
f 303/96/303/303 300/93/300/300 301/94/301/301 
f 303/96/303/303 301/94/301/301 305/98/305/305 
f 306/27/306/306 307/28/307/307 308/29/308/308 
f 306/27/306/306 308/29/308/308 309/30/309/309 
f 309/30/309/309 308/29/308/308 310/31/310/310 
f 309/30/309/309 310/31/310/310 311/32/311/311 
f 312/34/312/312 306/27/306/306 309/30/309/309 
f 312/34/312/312 309/30/309/309 313/33/313/313 
f 314/35/314/314 313/33/313/313 309/30/309/309 
f 314/35/314/314 309/30/309/309 311/32/311/311 
f 315/0/315/315 316/1/316/316 317/2/317/317 
f 315/0/315/315 317/2/317/317 318/3/318/318 
f 319/4/319/319 320/5/320/320 316/1/316/316 
f 319/4/319/319 316/1/316/316 315/0/315/315 
f 317/2/317/317 316/1/316/316 321/6/321/321 
f 317/2/317/317 321/6/321/321 322/7/322/322 
f 316/1/316/316 320/5/320/320 323/8/323/323 
f 316/1/316/316 323/8/323/323 321/6/321/321 
f 324/0/324/324 325/1/325/325 326/2/326/326 
f 324/0/324/324 326/2/326/326 327/3/327/327 
f 328/4/328/328 329/5/329/329 325/1/325/325 
f 328/4/328/328 325/1/325/325 324/0/324/324 
f 326/2/326/326 325/1/325/325 330/6/330/330 
f 326/2/326/326 330/6/330/330 331/7/331/331 
f 329/5/329/329 332/8/332/332 330/6/330/330 
f 329/5/329/329 330/6/330/330 325/1/325/325 
f 333/54/333/333 334/55/334/334 335/56/335/335 
f 333/54/333/333 335/56/335/335 336/57/336/336 
f 337/58/337/337 336/57/336/336 335/56/335/335 
f 337/58/337/337 335/56/335/335 338/59/338/338 
f 339/60/339/339 340/61/340/340 333/54/333/333 
f 339/60/339/339 333/54/333/333 336/57/336/336 
f 339/60/339/339 336/57/336/336 337/58/337/337 
f 339/60/339/339 337/58/337/337 341/62/341/341 
f 342/54/342/342 343/55/343/343 344/56/344/344 
f 342/54/342/342 344/56/344/344 345/57/345/345 
f 346/58/346/346 345/57/345/345 344/56/344/344 
f 346/58/346/346 344/56/344/344 347/59/347/347 
f 348/60/348/348 349/61/349/349 342/54/342/342 
f 348/60/348/348 342/54/342/342 345/57/345/345 
f 348/60/348/348 345/57/345/345 346/58/346/346 
f 348/60/348/348 346/58/346/346 350/62/350/350 
f 351/54/351/351 352/55/352/352 353/56/353/353 
f 351/54/351/351 353/56/353/353 354/57/354/354 
f 355/58/355/355 354/57/354/354 353/56/353/353 
f 355/58/355/355 353/56/353/353 356/59/356/356 
f 357/60/357/357 358/61/358/358 351/54/351/351 
f 357/60/357/357 351/54/351/351 354/57/354/354 
f 357/60/357/357 354/57/354/354 355/58/355/355 
f 357/60/357/357 355/58/355/355 359/62/359/359 
f 360/63/360/360 361/64/361/361 362/65/362/362 
f 360/63/360/360 362/65/362/362 363/66/363/363 
f 364/67/364/364 363/66/363/363 362/65/362/362 
f 364/67/364/364 362/65/362/362 365/68/365/365 
f 366/69/366/366 367/70/367/367 360/63/360/360 
f 366/69/366/366 360/63/360/360 363/66/363/363 
f 366/69/366/366 363/66/363/363 364/67/364/364 
f 366/69/366/366 364/67/364/364 368/71/368/368 
f 369/18/369/369 370/19/370/370 371/20/371/371 
f 369/18/369/369 371/20/371/371 372/21/372/372 
f 373/22/373/373 372/21/372/372 371/20/371/371 
f 373/22/373/373 371/20/371/371 374/23/374/374 
f 375/24/375/375 376/25/376/376 369/18/369/369 
f 375/24/375/375 369/18/369/369 372/21/372/372 
f 375/24/375/375 372/21/372/372 373/22/373/373 
f 375/24/375/375 373/22/373/373 377/26/377/377 
f 378/18/378/378 379/19/379/379 380/20/380/380 
f 378/18/378/378 380/20/380/380 381/21/381/381 
f 382/22/382/382 381/21/381/381 380/20/380/380 
f 382/22/382/382 380/20/380/380 383/23/383/383 
f 384/24/384/384 385/25/385/385 378/18/378/378 
f 384/24/384/384 378/18/378/378 381/21/381/381 
f 384/24/384/384 381/21/381/381 382/22/382/382 
f 384/24/384/384 382/22/382/382 386/26/386/386 
f 387/27/387/387 388/28/388/388 389/29/389/389 
f 387/27/387/387 389/29/389/389 390/30/390/390 
f 390/30/390/390 389/29/389/389 391/31/391/391 
f 390/30/390/390 391/31/391/391 392/32/392/392 
f 393/33/393/393 394/34/394/394 387/27/387/387 
f 393/33/393/393 387/27/387/387 390/30/390/390 
f 395/35/395/395 393/33/393/393 390/30/390/390 
f 395/35/395/395 390/30/390/390 392/32/392/392 
f 396/83/396/396 397/84/397/397 398/81/398/398 
f 396/83/396/396 398/81/398/398 399/82/399/399 
f 398/81/398/398 400/85/400/400 401/86/401/401 
f 398/81/398/398 401/86/401/401 399/82/399/399 
f 396/83/396/396 399/82/399/399 402/87/402/402 
f 396/83/396/396 402/87/402/402 403/88/403/403 
f 399/82/399/399 401/86/401/401 404/89/404/404 
f 399/82/399/399 404/89/404/404 402/87/402/402 
f 405/83/405/405 406/84/406/406 407/81/407/407 
f 405/83/405/405 407/81/407/407 408/82/408/408 
f 407/81/407/407 409/85/409/409 410/86/410/410 
f 407/81/407/407 410/86/410/410 408/82/408/408 
f 405/83/405/405 408/82/408/408 411/87/411/411 
f 405/83/405/405 411/87/411/411 412/88/412/412 
f 408/82/408/408 410/86/410/410 413/89/413/413 
f 408/82/408/408 413/89/413/413 411/87/411/411 
f 414/83/414/414 415/84/415/415 416/81/416/416 
f 414/83/414/414 416/81/416/416 417/82/417/417 
f 416/81/416/416 418/85/418/418 419/86/419/419 
f 416/81/416/416 419/86/419/419 417/82/417/417 
f 414/83/414/414 417/82/417/417 420/87/420/420 
f 414/83/414/414 420/87/420/420 421/88/421/421 
f 417/82/417/417 419/86/419/419 422/89/422/422 
f 417/82/417/417 422/89/422/422 420/87/420/420 
f 423/83/423/423 424/84/424/424 425/81/425/425 
f 423/83/423/423 425/81/425/425 426/82/426/426 
f 425/81/425/425 427/85/427/427 428/86/428/428 
f 425/81/425/425 428/86/428/428 426/82/426/426 
f 423/83/423/423 426/82/426/426 429/87/429/429 
f 423/83/423/423 429/87/429/429 430/88/430/430 
f 426/82/426/426 428/86/428/428 431/89/431/431 
f 426/82/426/426 431/89/431/431 429/87/429/429 
f 432/83/432/432 433/84/433/433 434/81/434/434 
f 432/83/432/432 434/81/434/434 435/82/435/435 
f 434/81/434/434 436/85/436/436 437/86/437/437 
f 434/81/434/434 437/86/437/437 435/82/435/435 
f 432/83/432/432 435/82/435/435 438/87/438/438 
f 432/83/432/432 438/87/438/438 439/88/439/439 
f 435/82/435/435 437/86/437/437 440/89/440/440 
f 435/82/435/435 440/89/440/440 438/87/438/438 
f 441/56/441/441 442/57/442/442 443/54/443/443 
f 441/56/441/441 443/54/443/443 444/55/444/444 
f 445/59/445/445 446/58/446/446 442/57/442/442 
f 445/59/445/445 442/57/442/442 441/56/441/441 
f 443/54/443/443 442/57/442/442 447/60/447/447 
f 443/54/443/443 447/60/447/447 448/61/448/448 
f 446/58/446/446 449/62/449/449 447/60/447/447 
f 446/58/446/446 447/60/447/447 442/57/442/442 
