v 516.2248 664.2318 569.3783
v 516.8566 670.6962 568.5564
v 516.8566 670.6962 575.4881
v 516.2248 664.2318 575.4881
v 469.7348 670.6962 567.8701
v 516.298 670.6962 567.8701
v 515.6288 664.2318 568.6463
v 470.404 664.2318 568.6463
v 464.8998 686.5964 561.9177
v 464.9286 690.9595 561.9177
v 521.1039 690.9595 561.9177
v 521.1328 686.5964 561.9177
v 464.33 686.5964 575.4881
v 464.33 690.9595 575.4881
v 464.33 690.9595 562.6531
v 464.33 686.5964 562.6179
v 515.7612 660.3631 569.9615
v 517.549 662.2974 567.8378
v 517.549 662.2974 575.4881
v 515.7612 660.3631 575.4881
v 469.1498 662.2974 567.0197
v 516.883 662.2974 567.0197
v 515.154 660.3631 569.2157
v 470.8788 660.3631 569.2157
v 521.7026 690.9595 562.6531
v 523.3679 693.1411 560.6855
v 523.3679 693.141 575.4881
v 521.7026 690.9595 575.4881
v 463.3268 693.1411 559.8723
v 522.7057 693.1411 559.8723
v 521.7026 695.3226 562.7309
v 521.7026 695.3226 575.4881
v 464.9919 695.3226 561.9177
v 521.0407 695.3226 561.9177
v 518.9965 679.6952 565.9556
v 521.7026 686.5964 562.6179
v 521.7026 686.5964 575.4881
v 518.9965 679.6952 575.4881
v 518.4155 679.6952 565.2417
v 467.6174 679.6952 565.2417
v 469.808 664.2318 569.3783
v 469.176 670.6962 568.5564
v 468.4838 662.2974 567.8378
v 470.2714 660.3631 569.9615
v 462.6647 693.1411 560.6855
v 464.33 695.3226 562.7309
v 467.0361 679.6952 565.9556
v 464.33 695.3226 575.4881
v 469.176 670.6962 575.4881
v 469.808 664.2318 575.4881
v 468.4838 662.2974 575.4881
v 470.2714 660.3631 575.4881
v 462.6647 693.141 575.4881
v 467.0363 679.6952 575.4881
gi 0 0 0 0
gw 0.0 0.0 0.0 0.0
gi 0 0 0 0
gw 0.0 0.0 0.0 0.0
gi 0 0 0 0
gw 0.0 0.0 0.0 0.0
gi 0 0 0 0
gw 0.0 0.0 0.0 0.0
gi 0 0 0 0
gw 0.0 0.0 0.0 0.0
gi 0 0 0 0
gw 0.0 0.0 0.0 0.0
gi 0 0 0 0
gw 0.0 0.0 0.0 0.0
gi 0 0 0 0
gw 0.0 0.0 0.0 0.0
gi 0 0 0 0
gw 0.0 0.0 0.0 0.0
gi 0 0 0 0
gw 0.0 0.0 0.0 0.0
gi 0 0 0 0
gw 0.0 0.0 0.0 0.0
gi 0 0 0 0
gw 0.0 0.0 0.0 0.0
gi 0 0 0 0
gw 0.0 0.0 0.0 0.0
gi 0 0 0 0
gw 0.0 0.0 0.0 0.0
gi 0 0 0 0
gw 0.0 0.0 0.0 0.0
gi 0 0 0 0
gw 0.0 0.0 0.0 0.0
gi 0 0 0 0
gw 0.0 0.0 0.0 0.0
gi 0 0 0 0
gw 0.0 0.0 0.0 0.0
gi 0 0 0 0
gw 0.0 0.0 0.0 0.0
gi 0 0 0 0
gw 0.0 0.0 0.0 0.0
gi 0 0 0 0
gw 0.0 0.0 0.0 0.0
gi 0 0 0 0
gw 0.0 0.0 0.0 0.0
gi 0 0 0 0
gw 0.0 0.0 0.0 0.0
gi 0 0 0 0
gw 0.0 0.0 0.0 0.0
gi 0 0 0 0
gw 0.0 0.0 0.0 0.0
gi 0 0 0 0
gw 0.0 0.0 0.0 0.0
gi 0 0 0 0
gw 0.0 0.0 0.0 0.0
gi 0 0 0 0
gw 0.0 0.0 0.0 0.0
gi 0 0 0 0
gw 0.0 0.0 0.0 0.0
gi 0 0 0 0
gw 0.0 0.0 0.0 0.0
gi 0 0 0 0
gw 0.0 0.0 0.0 0.0
gi 0 0 0 0
gw 0.0 0.0 0.0 0.0
gi 0 0 0 0
gw 0.0 0.0 0.0 0.0
gi 0 0 0 0
gw 0.0 0.0 0.0 0.0
gi 0 0 0 0
gw 0.0 0.0 0.0 0.0
gi 0 0 0 0
gw 0.0 0.0 0.0 0.0
gi 0 0 0 0
gw 0.0 0.0 0.0 0.0
gi 0 0 0 0
gw 0.0 0.0 0.0 0.0
gi 0 0 0 0
gw 0.0 0.0 0.0 0.0
gi 0 0 0 0
gw 0.0 0.0 0.0 0.0
gi 0 0 0 0
gw 0.0 0.0 0.0 0.0
gi 0 0 0 0
gw 0.0 0.0 0.0 0.0
gi 0 0 0 0
gw 0.0 0.0 0.0 0.0
gi 0 0 0 0
gw 0.0 0.0 0.0 0.0
gi 0 0 0 0
gw 0.0 0.0 0.0 0.0
gi 0 0 0 0
gw 0.0 0.0 0.0 0.0
gi 0 0 0 0
gw 0.0 0.0 0.0 0.0
gi 0 0 0 0
gw 0.0 0.0 0.0 0.0
gi 0 0 0 0
gw 0.0 0.0 0.0 0.0
gi 0 0 0 0
gw 0.0 0.0 0.0 0.0
gi 0 0 0 0
gw 0.0 0.0 0.0 0.0
gi 0 0 0 0
gw 0.0 0.0 0.0 0.0
gi 0 0 0 0
gw 0.0 0.0 0.0 0.0
gi 0 0 0 0
gw 0.0 0.0 0.0 0.0
vt 0.2773 0.6742
vt 0.2773 0.6911
vt 0.4476 0.6911
vt 0.4476 0.6742
vt 0.4453 0.6933
vt 0.2795 0.6933
vt 0.5504 0.8881
vt 0.5526 0.9084
vt 0.5337 0.9084
vt 0.5337 0.8881
vt 0.7614 0.91
vt 0.6053 0.91
vt 0.6076 0.8897
vt 0.7592 0.8897
vt 0.7776 0.96
vt 0.7775 0.9737
vt 0.5892 0.9737
vt 0.5891 0.96
vt 0.8287 0.9596
vt 0.8287 0.9733
vt 0.7937 0.9733
vt 0.7936 0.9596
vt 0.9865 0.7672
vt 0.9959 0.7791
vt 0.9632 0.7791
vt 0.9619 0.7672
vt 0.2524 0.779
vt 0.0111 0.779
vt 0.0112 0.7672
vt 0.2525 0.7672
vt 0.5337 0.882
vt 0.5546 0.882
vt 0.6034 0.8836
vt 0.7634 0.8836
vt 0.5687 0.9721
vt 0.5741 0.979
vt 0.5337 0.979
vt 0.5337 0.9721
vt 0.7829 0.9806
vt 0.5839 0.9806
vt 0.5685 0.9859
vt 0.5337 0.9859
vt 0.7773 0.9875
vt 0.5894 0.9875
vt 0.5597 0.9367
vt 0.5688 0.9584
vt 0.5337 0.9584
vt 0.5337 0.9367
vt 0.5982 0.9383
vt 0.7685 0.9383
vt 0.6028 0.9094
vt 0.605 0.8907
vt 0.8095 0.8902
vt 0.8121 0.8892
vt 0.8098 0.9096
vt 0.8073 0.909
vt 0.5867 0.9726
vt 0.5865 0.9593
vt 0.7912 0.9721
vt 0.791 0.9589
vt 0.6007 0.8862
vt 0.8052 0.8857
vt 0.8079 0.8832
vt 0.0078 0.7789
vt 0.0079 0.7672
vt 0.2559 0.779
vt 0.2558 0.7672
vt 0.5815 0.9806
vt 0.7884 0.9801
vt 0.786 0.9801
vt 0.5871 0.99
vt 0.7939 0.987
vt 0.7916 0.9896
vt 0.5957 0.9372
vt 0.8002 0.9367
vt 0.8027 0.9379
vt 0.0091 0.8976
vt 0.0091 0.876
vt 0.0109 0.8746
vt 0.1674 0.876
vt 0.1655 0.8746
vt 0.1674 0.8976
vt 0.8287 0.9096
vt 0.8287 0.8892
vt 0.2874 0.779
vt 0.2803 0.7672
vt 0.8287 0.8832
vt 0.8287 0.9801
vt 0.8287 0.987
vt 0.8287 0.9379
vn 0.0 -1.0 0.0
vn 0.0 -1.0 0.0
vn 0.9118 0.3115 -0.2677
vn 0.9232 -0.2213 -0.3143
vn 0.9863 -0.1647 0.0
vn 0.9686 0.2488 0.0
vn -0.4078 -0.254 -0.877
vn 0.4079 -0.254 -0.877
vn 0.3713 0.3626 -0.8548
vn -0.3713 0.3626 -0.8548
vn -0.4272 -0.251 -0.8686
vn -0.3556 -0.4619 -0.8125
vn 0.3556 -0.4619 -0.8125
vn 0.4272 -0.251 -0.8686
vn -0.9826 -0.1858 0.0
vn -0.9473 -0.3203 0.0
vn -0.8773 -0.4014 -0.2631
vn -0.9078 -0.2349 -0.3474
vn 0.4051 -0.9097 -0.0918
vn 0.9149 -0.0672 -0.3981
vn 0.9973 -0.0728 0.0
vn 0.401 -0.9161 -0.0
vn -0.4598 -0.0629 -0.8858
vn 0.4598 -0.0629 -0.8858
vn 0.1381 -0.9239 -0.3569
vn -0.1382 -0.9239 -0.3568
vn 0.8773 -0.4014 -0.2631
vn 0.9163 0.0033 -0.4004
vn 1.0 -0.0 -0.0
vn 0.9473 -0.3203 0.0
vn -0.4625 0.0025 -0.8866
vn 0.4624 0.0025 -0.8867
vn 0.4484 0.8876 -0.1048
vn 0.4434 0.8963 0.0
vn -0.1562 0.9026 -0.4012
vn 0.1562 0.9026 -0.4011
vn 0.8738 -0.3895 -0.2913
vn 0.9078 -0.2349 -0.3474
vn 0.9826 -0.1858 0.0
vn 0.9543 -0.2989 0.0
vn 0.3737 -0.4407 -0.8162
vn -0.3736 -0.4407 -0.8162
vn -0.9118 0.3115 -0.2677
vn -0.9231 -0.2213 -0.3144
vn -0.9149 -0.0672 -0.3981
vn -0.4051 -0.9096 -0.0917
vn -0.9163 0.0033 -0.4004
vn -0.4484 0.8877 -0.1048
vn -0.8737 -0.3895 -0.2913
vn -0.4434 0.8963 0.0
vn -0.9863 -0.1647 0.0
vn -0.9686 0.2488 0.0
vn -0.9973 -0.0728 0.0
vn -0.4011 -0.916 -0.0
vn -1.0 -0.0 -0.0
vn -0.9543 -0.2989 0.0
vtan 1.0 0.0 0.0 -1.0
vtan 1.0 0.0 0.0 -1.0
vtan -0.2533 -0.0865 -0.9635 1.0
vtan -0.3057 0.0733 -0.9493 1.0
vtan 0.0 0.0 -1.0 1.0
vtan 0.0 0.0 -1.0 1.0
vtan -0.9131 0.1135 0.3917 1.0
vtan -0.913 -0.1188 -0.3902 1.0
vtan -0.9265 0.205 -0.3155 1.0
vtan -0.9285 -0.145 0.3418 1.0
vtan -0.9042 0.1186 0.4104 1.0
vtan -0.9346 0.1758 0.3092 1.0
vtan -0.9343 -0.1513 -0.3229 1.0
vtan -0.9038 -0.144 -0.4029 1.0
vtan 0.0 -0.0 1.0 1.0
vtan 0.0 0.0 1.0 1.0
vtan -0.2125 -0.1666 0.9629 1.0
vtan -0.3211 -0.1438 0.9361 1.0
vtan -0.0373 0.0838 -0.9958 1.0
vtan -0.397 0.0292 -0.9173 1.0
vtan -0.0 0.0 -1.0 1.0
vtan -0.8875 -0.0021 0.4609 1.0
vtan -0.8878 -0.0086 -0.4602 1.0
vtan -0.9226 0.0111 -0.3857 1.0
vtan -0.9218 -0.0118 0.3874 1.0
vtan -0.397 0.0292 -0.9173 1.0
vtan -0.8293 0.3261 -0.4537 1.0
vtan -0.888 0.0326 0.4587 1.0
vtan -0.2392 0.1095 -0.9648 1.0
vtan -0.4004 -0.0014 -0.9163 1.0
vtan -0.0 0.0 -1.0 1.0
vtan -0.8866 -0.0013 0.4624 1.0
vtan -0.8867 -0.0001 -0.4624 1.0
vtan -0.0472 -0.0935 -0.9945 1.0
vtan 0.0 0.0 -1.0 1.0
vtan -0.9877 -0.1428 0.0635 1.0
vtan -0.9858 0.1172 -0.1202 1.0
vtan -0.266 0.1186 -0.9566 1.0
vtan -0.3363 0.087 -0.9377 1.0
vtan -0.9275 -0.1901 -0.322 1.0
vtan -0.9276 0.1775 0.3287 1.0
vtan -0.3692 -0.2826 -0.8853 1.0
vtan -0.4025 0.5486 -0.7328 1.0
vtan -0.6673 0.5359 0.5172 1.0
vtan -0.2341 0.1414 0.9619 1.0
vtan -0.2992 -0.0999 0.9489 1.0
vtan -0.8044 -0.3544 0.4767 1.0
vtan -0.4489 -0.4923 -0.7458 1.0
vtan -0.4114 -0.3385 -0.8463 1.0
vtan -0.6287 -0.525 0.5737 1.0
vtan -0.7893 -0.3651 0.4937 1.0
vtan -0.2304 0.7228 -0.6515 1.0
vtan -0.5709 0.785 0.2407 1.0
vtan -0.3982 0.3135 0.8621 1.0
vtan -0.4009 -0.0333 -0.9155 1.0
vtan -0.5663 -0.1708 -0.8063 1.0
vtan -0.3992 0.0031 0.9169 1.0
vtan -0.2537 0.0155 0.9672 1.0
vtan -0.4003 0.0329 -0.9158 1.0
vtan -0.4003 0.0128 0.9163 1.0
vtan -0.8866 0.0011 0.4625 1.0
vtan -0.8828 0.4216 -0.2071 1.0
vtan 0.0234 0.1288 0.9914 1.0
vtan -0.1319 0.3835 0.9141 1.0
vtan -0.4661 -0.4998 -0.73 1.0
vtan -0.6069 -0.5493 0.5744 1.0
vtan -0.2342 -0.1881 0.9538 1.0
vtan -0.8963 0.4434 0.0004 1.0
vtan -0.8936 0.4479 -0.0297 1.0
vtan -0.9877 0.1448 -0.0588 1.0
vtan -0.8938 -0.4453 0.0525 1.0
vtan -0.9877 -0.1428 0.0635 1.0
vtan -0.8963 -0.4434 0.0 1.0
vtan -0.0 -0.0 1.0 1.0
vtan -0.0 -0.0 1.0 1.0
vtan 0.0 -0.0 1.0 1.0
f 51/0/0/0 43/1/0/0 16/2/0/0 
f 51/0/0/0 16/2/0/0 19/3/0/0 
f 22/4/0/0 16/2/0/0 43/1/0/0 
f 22/4/1/0 43/1/1/1 23/5/1/0 
f 0/6/2/2 1/7/3/3 2/8/4/4 
f 0/6/2/2 2/8/4/4 3/9/5/5 
f 4/10/6/6 5/11/7/7 6/12/8/8 
f 4/10/6/6 6/12/8/8 7/13/9/9 
f 8/14/10/10 9/15/11/11 10/16/12/12 
f 8/14/10/10 10/16/12/12 11/17/13/13 
f 12/18/14/14 13/19/15/15 14/20/16/16 
f 12/18/14/14 14/20/16/16 15/21/17/17 
f 16/22/18/18 17/23/19/19 18/24/20/4 
f 16/22/18/18 18/24/20/4 19/25/21/20 
f 20/26/22/21 21/27/23/22 22/28/24/23 
f 20/26/22/21 22/28/24/23 23/29/25/24 
f 0/6/2/2 3/9/5/5 18/30/20/5 
f 0/6/2/2 18/30/20/5 17/31/19/25 
f 7/13/9/9 6/12/8/8 21/32/23/26 
f 7/13/9/9 21/32/23/26 20/33/22/27 
f 24/34/26/28 25/35/27/29 26/36/28/30 
f 24/34/26/28 26/36/28/30 27/37/29/5 
f 28/38/30/31 29/39/31/32 10/16/12/12 
f 28/38/30/31 10/16/12/12 9/15/11/11 
f 30/40/32/33 31/41/33/34 26/36/28/30 
f 30/40/32/33 26/36/28/30 25/35/27/29 
f 32/42/34/35 33/43/35/36 29/39/31/32 
f 32/42/34/35 29/39/31/32 28/38/30/31 
f 34/44/36/37 35/45/37/38 36/46/38/5 
f 34/44/36/37 36/46/38/5 37/47/39/5 
f 8/14/10/10 11/17/13/13 38/48/40/39 
f 8/14/10/10 38/48/40/39 39/49/41/40 
f 1/7/3/3 34/44/36/37 37/47/39/5 
f 1/7/3/3 37/47/39/5 2/8/4/4 
f 39/49/41/40 38/48/40/39 5/11/7/7 
f 39/49/41/40 5/11/7/7 4/10/6/6 
f 1/50/3/41 0/51/2/42 6/12/8/8 
f 1/50/3/41 6/12/8/8 5/11/7/7 
f 7/52/9/43 40/53/42/44 41/54/43/45 
f 7/52/9/43 41/54/43/45 4/55/6/46 
f 11/17/13/13 10/16/12/12 24/56/26/47 
f 11/17/13/13 24/56/26/47 35/57/37/48 
f 15/21/17/17 14/20/16/16 9/58/11/49 
f 15/21/17/17 9/58/11/49 8/59/10/50 
f 6/12/8/8 0/51/2/42 17/60/19/51 
f 6/12/8/8 17/60/19/51 21/32/23/26 
f 7/52/9/43 20/61/22/52 42/62/44/53 
f 7/52/9/43 42/62/44/53 40/53/42/44 
f 17/63/19/54 16/64/18/55 22/28/24/23 
f 17/63/19/54 22/28/24/23 21/27/23/22 
f 42/65/44/56 20/26/22/21 23/29/25/24 
f 42/65/44/56 23/29/25/24 43/66/45/57 
f 10/16/12/12 29/39/31/32 25/67/27/58 
f 10/16/12/12 25/67/27/58 24/56/26/47 
f 9/58/11/49 14/20/16/16 44/68/46/59 
f 9/58/11/49 44/68/46/59 28/69/30/60 
f 25/67/27/58 29/39/31/32 33/43/35/36 
f 25/67/27/58 33/43/35/36 30/70/32/61 
f 44/68/46/59 45/71/47/62 32/72/34/63 
f 44/68/46/59 32/72/34/63 28/69/30/60 
f 38/48/40/39 11/17/13/13 35/57/37/48 
f 38/48/40/39 35/57/37/48 34/73/36/64 
f 39/74/41/65 46/75/48/66 15/21/17/17 
f 39/74/41/65 15/21/17/17 8/59/10/50 
f 5/11/7/7 38/48/40/39 34/73/36/64 
f 5/11/7/7 34/73/36/64 1/50/3/41 
f 4/55/6/46 41/54/43/45 46/75/48/66 
f 4/55/6/46 46/75/48/66 39/74/41/65 
f 31/76/33/67 30/77/32/68 33/78/35/69 
f 31/76/33/67 33/78/35/69 45/79/47/70 
f 33/78/35/69 32/80/34/71 45/79/47/70 
f 47/81/49/72 31/76/33/67 45/79/47/70 
f 48/82/50/15 41/54/43/45 40/53/42/44 
f 48/82/50/15 40/53/42/44 49/83/51/15 
f 36/46/38/5 35/45/37/38 24/34/26/28 
f 36/46/38/5 24/34/26/28 27/37/29/5 
f 50/84/52/15 42/65/44/56 43/66/45/57 
f 50/84/52/15 43/66/45/57 51/85/53/73 
f 50/86/52/15 49/83/51/15 40/53/42/44 
f 50/86/52/15 40/53/42/44 42/62/44/53 
f 52/87/54/74 44/68/46/59 14/20/16/16 
f 52/87/54/74 14/20/16/16 13/19/15/15 
f 52/87/54/74 47/88/49/15 45/71/47/62 
f 52/87/54/74 45/71/47/62 44/68/46/59 
f 12/18/14/14 15/21/17/17 46/75/48/66 
f 12/18/14/14 46/75/48/66 53/89/55/75 
f 53/89/55/75 46/75/48/66 41/54/43/45 
f 53/89/55/75 41/54/43/45 48/82/50/15 
