v -619.5236 98.6729 -220.7521
v -619.3224 98.6729 -220.7528
v -619.3284 98.6729 -220.6928
v -619.5173 98.6729 -220.6921
v -619.6071 99.2488 -221.5479
v -619.244 99.2488 -221.5491
v -619.094 104.4995 -223.0728
v -619.7668 104.4995 -223.0706
v -619.7687 104.8019 -223.0882
v -619.0922 104.8019 -223.0903
v -619.7041 102.5054 -222.4724
v -619.153 102.5054 -222.4741
v -619.6041 99.942 -221.5202
v -619.5519 100.5255 -221.0216
v -619.2959 100.5255 -221.0224
v -619.2467 99.942 -221.5214
v -619.2164 98.6729 -218.79
v -619.4166 98.6729 -218.769
v -619.4166 98.6729 -218.8293
v -619.2288 98.6729 -218.849
v -619.0247 98.6729 -218.8509
v -619.0486 98.6729 -218.9062
v -618.8491 98.6729 -218.9491
v -618.8837 98.6729 -218.9985
v -618.6969 98.6729 -219.0806
v -618.7407 98.6729 -219.122
v -618.5742 98.6729 -219.2401
v -618.6255 98.6729 -219.2719
v -618.4862 98.6729 -219.421
v -618.5428 98.6729 -219.4418
v -618.4365 98.6729 -219.6159
v -618.4961 98.6729 -219.6249
v -618.4269 98.6729 -219.8169
v -618.4872 98.6729 -219.8137
v -618.458 98.6729 -220.0156
v -618.5164 98.6729 -220.0004
v -618.5286 98.6729 -220.2041
v -618.5826 98.6729 -220.1774
v -618.6355 98.6729 -220.3744
v -618.6831 98.6729 -220.3374
v -618.7745 98.6729 -220.5198
v -618.8137 98.6729 -220.474
v -618.9401 98.6729 -220.6342
v -618.9692 98.6729 -220.5814
v -619.1252 98.6729 -220.7129
v -619.1432 98.6729 -220.6553
v -619.6047 98.6729 -218.8478
v -619.6168 98.6729 -218.7887
v -619.7853 98.6729 -218.9038
v -619.809 98.6729 -218.8483
v -619.9508 98.6729 -218.9949
v -619.9852 98.6729 -218.9454
v -620.0946 98.6729 -219.1176
v -620.1383 98.6729 -219.076
v -620.2108 98.6729 -219.2666
v -620.262 98.6729 -219.2347
v -620.2946 98.6729 -219.436
v -620.3511 98.6729 -219.415
v -620.3425 98.6729 -219.6188
v -620.4021 98.6729 -219.6096
v -620.3527 98.6729 -219.8075
v -620.413 98.6729 -219.8105
v -620.3247 98.6729 -219.9944
v -620.3832 98.6729 -220.0094
v -620.2596 98.6729 -220.1718
v -620.3138 98.6729 -220.1983
v -620.1603 98.6729 -220.3325
v -620.208 98.6729 -220.3694
v -620.0305 98.6729 -220.4699
v -620.0698 98.6729 -220.5156
v -619.8757 98.6729 -220.5784
v -619.9052 98.6729 -220.6311
v -619.7024 98.6729 -220.6535
v -619.7205 98.6729 -220.711
v -619.0527 99.2488 -218.0066
v -619.4139 99.2488 -217.9687
v -618.7067 99.2488 -218.1165
v -618.3898 99.2488 -218.2937
v -618.1151 99.2488 -218.5311
v -617.8938 99.2488 -218.819
v -617.7349 99.2488 -219.1455
v -617.645 99.2488 -219.4973
v -617.6278 99.2488 -219.86
v -617.684 99.2488 -220.2187
v -617.8113 99.2488 -220.5587
v -618.0043 99.2488 -220.8663
v -618.2552 99.2488 -221.1286
v -618.554 99.2488 -221.3351
v -618.8881 99.2488 -221.4772
v -619.7755 99.2488 -218.0043
v -620.1223 99.2488 -218.1119
v -620.4403 99.2488 -218.2871
v -620.7166 99.2488 -218.5227
v -620.9397 99.2488 -218.8091
v -621.1006 99.2488 -219.1346
v -621.1927 99.2488 -219.4858
v -621.2123 99.2488 -219.8484
v -621.1584 99.2488 -220.2075
v -621.0334 99.2488 -220.5484
v -620.8424 99.2488 -220.8571
v -620.593 99.2488 -221.1211
v -620.2957 99.2488 -221.3294
v -619.9625 99.2488 -221.4737
v -619.4091 104.4995 -216.4374
v -618.7396 104.4994 -216.5077
v -618.736 104.8019 -216.4904
v -619.4091 104.8019 -216.4198
v -618.0981 104.4994 -216.7113
v -618.0912 104.8019 -216.6951
v -617.511 104.4994 -217.0398
v -617.5009 104.8019 -217.0253
v -617.0018 104.4994 -217.4798
v -616.989 104.8019 -217.4676
v -616.5917 104.4995 -218.0132
v -616.5767 104.8019 -218.0039
v -616.2974 104.4995 -218.6183
v -616.2808 104.8019 -218.6122
v -616.1309 104.4995 -219.2703
v -616.1134 104.8019 -219.2676
v -616.099 104.4995 -219.9424
v -616.0813 104.8019 -219.9433
v -616.203 104.4995 -220.6072
v -616.1859 104.8019 -220.6116
v -616.4387 104.4995 -221.2374
v -616.4229 104.8019 -221.2452
v -616.7965 104.4995 -221.8073
v -616.7826 104.8019 -221.8181
v -617.2617 104.4995 -222.2935
v -617.2502 104.8019 -222.3069
v -617.8153 104.4995 -222.6761
v -617.8066 104.8019 -222.6915
v -618.4344 104.4995 -222.9395
v -618.4292 104.8019 -222.9563
v -620.079 104.4995 -216.5034
v -620.0826 104.8019 -216.4861
v -620.7217 104.4995 -216.7028
v -620.7286 104.8019 -216.6866
v -621.311 104.4995 -217.0275
v -621.3212 104.8019 -217.013
v -621.823 104.4995 -217.4642
v -621.8358 104.8019 -217.4521
v -622.2366 104.4995 -217.995
v -622.2516 104.8019 -217.9857
v -622.5348 104.4995 -218.5982
v -622.5514 104.8019 -218.5921
v -622.7054 104.4995 -219.2491
v -622.7229 104.8019 -219.2464
v -622.7417 104.4995 -219.921
v -622.7594 104.8019 -219.9219
v -622.642 104.4995 -220.5864
v -622.6591 104.8019 -220.5909
v -622.4103 104.4995 -221.2182
v -622.426 104.8019 -221.226
v -622.0562 104.4995 -221.7903
v -622.0701 104.8019 -221.8012
v -621.5941 104.4995 -222.2795
v -621.6056 104.8019 -222.2929
v -621.0431 104.4995 -222.6657
v -621.0516 104.8019 -222.6811
v -620.4255 104.4995 -222.933
v -620.4308 104.8019 -222.9499
v -618.8625 102.5054 -217.0966
v -619.411 102.5054 -217.039
v -618.3373 102.5054 -217.2634
v -617.8562 102.5054 -217.5324
v -617.4392 102.5054 -217.8928
v -617.1033 102.5054 -218.3298
v -616.8622 102.5054 -218.8254
v -616.7258 102.5054 -219.3594
v -616.6997 102.5054 -219.91
v -616.7849 102.5054 -220.4545
v -616.978 102.5054 -220.9708
v -617.2711 102.5054 -221.4376
v -617.6521 102.5054 -221.8358
v -618.1055 102.5054 -222.1492
v -618.6127 102.5054 -222.3649
v -620.0308 101.6056 -216.742
v -619.6705 100.5255 -218.523
v -619.4156 100.5255 -218.4979
v -619.4098 101.6056 -216.6808
v -620.6263 101.6056 -216.9268
v -619.915 100.5255 -218.5989
v -621.1726 101.6056 -217.2278
v -620.1393 100.5255 -218.7224
v -621.6471 101.6056 -217.6325
v -620.3341 100.5255 -218.8886
v -622.0304 101.6056 -218.1244
v -620.4915 100.5255 -219.0905
v -622.3068 101.6056 -218.6835
v -620.6049 100.5255 -219.32
v -622.4651 101.6056 -219.2867
v -620.6698 100.5255 -219.5676
v -622.4987 101.6056 -219.9094
v -620.6836 100.5255 -219.8233
v -622.4061 101.6056 -220.5262
v -620.6456 100.5255 -220.0764
v -622.1914 101.6056 -221.1117
v -620.5575 100.5255 -220.3168
v -621.8632 101.6056 -221.642
v -620.4229 100.5255 -220.5345
v -621.4349 101.6056 -222.0954
v -620.2471 100.5255 -220.7206
v -620.9243 101.6056 -222.4533
v -620.0374 100.5255 -220.8675
v -620.3519 101.6056 -222.7011
v -619.8025 100.5255 -220.9692
v -619.7415 101.6056 -222.8286
v -619.0585 99.942 -218.0338
v -619.161 100.5255 -218.5247
v -619.4141 99.942 -217.9965
v -618.7178 99.942 -218.142
v -618.917 100.5255 -218.6021
v -618.4058 99.942 -218.3165
v -618.6936 100.5255 -218.7271
v -618.1353 99.942 -218.5502
v -618.4999 100.5255 -218.8945
v -617.9175 99.942 -218.8336
v -618.3439 100.5255 -219.0974
v -617.7611 99.942 -219.155
v -618.2318 100.5255 -219.3277
v -617.6726 99.942 -219.5014
v -618.1685 100.5255 -219.5757
v -617.6556 99.942 -219.8584
v -618.1564 100.5255 -219.8314
v -617.7109 99.942 -220.2116
v -618.1959 100.5255 -220.0843
v -617.8362 99.942 -220.5464
v -618.2856 100.5255 -220.3241
v -618.0262 99.942 -220.8491
v -618.4218 100.5255 -220.5409
v -618.2733 99.942 -221.1074
v -618.5988 100.5255 -220.7259
v -618.5674 99.942 -221.3107
v -618.8093 100.5255 -220.8715
v -618.8964 99.942 -221.4506
v -619.0449 100.5255 -220.9717
v -619.77 99.942 -218.0316
v -620.1113 99.942 -218.1375
v -620.4244 99.942 -218.31
v -620.6964 99.942 -218.542
v -620.9161 99.942 -218.8239
v -621.0746 99.942 -219.1444
v -621.1653 99.942 -219.4901
v -621.1844 99.942 -219.8471
v -621.1315 99.942 -220.2006
v -621.0084 99.942 -220.5362
v -620.8203 99.942 -220.8401
v -620.5748 99.942 -221.1
v -620.2821 99.942 -221.3051
v -619.9541 99.942 -221.4472
v -619.1178 101.6056 -222.8306
v -618.7893 101.6056 -216.746
v -618.1949 101.6056 -216.9347
v -617.6506 101.6056 -217.2391
v -617.1788 101.6056 -217.6469
v -616.7987 101.6056 -218.1413
v -616.5259 101.6056 -218.7021
v -616.3716 101.6056 -219.3064
v -616.3419 101.6056 -219.9293
v -616.4385 101.6056 -220.5454
v -616.6569 101.6056 -221.1295
v -616.9885 101.6056 -221.6577
v -617.4197 101.6056 -222.1083
v -617.9326 101.6056 -222.463
v -618.5066 101.6056 -222.707
v -620.038 102.239 -216.7064
v -619.4097 102.239 -216.6445
v -620.6406 102.239 -216.8934
v -621.1932 102.239 -217.1979
v -621.6733 102.239 -217.6074
v -622.0612 102.239 -218.1051
v -622.3408 102.239 -218.6707
v -622.501 102.239 -219.2811
v -622.5349 102.239 -219.9112
v -622.4413 102.239 -220.5352
v -622.224 102.239 -221.1276
v -621.892 102.239 -221.6641
v -621.4587 102.239 -222.1229
v -620.942 102.239 -222.485
v -620.3629 102.239 -222.7357
v -619.7452 102.239 -222.8647
v -619.1143 102.239 -222.8667
v -618.7819 102.239 -216.7104
v -618.1805 102.239 -216.9013
v -617.6298 102.239 -217.2094
v -617.1523 102.239 -217.6219
v -616.7678 102.239 -218.1222
v -616.4918 102.239 -218.6896
v -616.3356 102.239 -219.301
v -616.3057 102.239 -219.9312
v -616.4033 102.239 -220.5547
v -616.6244 102.239 -221.1456
v -616.9598 102.239 -221.6801
v -617.3961 102.239 -222.136
v -617.9152 102.239 -222.4948
v -618.4958 102.239 -222.7417
v -619.9597 102.5054 -217.0931
v -620.4862 102.5054 -217.2564
v -620.9689 102.5054 -217.5224
v -621.3882 102.5054 -217.8801
v -621.7271 102.5054 -218.3149
v -621.9713 102.5054 -218.8089
v -622.1111 102.5054 -219.3421
v -622.1407 102.5054 -219.8924
v -622.0591 102.5054 -220.4375
v -621.8693 102.5054 -220.955
v -621.5792 102.5054 -221.4237
v -621.2008 102.5054 -221.8244
v -620.7494 102.5054 -222.1407
v -620.2437 102.5054 -222.3596
gi 0 0 0 0
gi 0 0 0 0
gi 0 0 0 0
gi 0 0 0 0
gi 0 0 0 0
gi 0 0 0 0
gi 0 0 0 0
gi 0 0 0 0
gi 0 0 0 0
gi 0 0 0 0
gi 0 0 0 0
gi 0 0 0 0
gi 0 0 0 0
gi 0 0 0 0
gi 0 0 0 0
gi 0 0 0 0
gi 0 0 0 0
gi 0 0 0 0
gi 0 0 0 0
gi 0 0 0 0
gi 0 0 0 0
gi 0 0 0 0
gi 0 0 0 0
gi 0 0 0 0
gi 0 0 0 0
gi 0 0 0 0
gi 0 0 0 0
gi 0 0 0 0
gi 0 0 0 0
gi 0 0 0 0
gi 0 0 0 0
gi 0 0 0 0
gi 0 0 0 0
gi 0 0 0 0
gi 0 0 0 0
gi 0 0 0 0
gi 0 0 0 0
gi 0 0 0 0
gi 0 0 0 0
gi 0 0 0 0
gi 0 0 0 0
gi 0 0 0 0
gi 0 0 0 0
gi 0 0 0 0
gi 0 0 0 0
gi 0 0 0 0
gi 0 0 0 0
gi 0 0 0 0
gi 0 0 0 0
gi 0 0 0 0
gi 0 0 0 0
gi 0 0 0 0
gi 0 0 0 0
gi 0 0 0 0
gi 0 0 0 0
gi 0 0 0 0
gi 0 0 0 0
gi 0 0 0 0
gi 0 0 0 0
gi 0 0 0 0
gi 0 0 0 0
gi 0 0 0 0
gi 0 0 0 0
gi 0 0 0 0
gi 0 0 0 0
gi 0 0 0 0
gi 0 0 0 0
gi 0 0 0 0
gi 0 0 0 0
gi 0 0 0 0
gi 0 0 0 0
gi 0 0 0 0
gi 0 0 0 0
gi 0 0 0 0
gi 0 0 0 0
gi 0 0 0 0
gi 0 0 0 0
gi 0 0 0 0
gi 0 0 0 0
gi 0 0 0 0
gi 0 0 0 0
gi 0 0 0 0
gi 0 0 0 0
gi 0 0 0 0
gi 0 0 0 0
gi 0 0 0 0
gi 0 0 0 0
gi 0 0 0 0
gi 0 0 0 0
gi 0 0 0 0
gi 0 0 0 0
gi 0 0 0 0
gi 0 0 0 0
gi 0 0 0 0
gi 0 0 0 0
gi 0 0 0 0
gi 0 0 0 0
gi 0 0 0 0
gi 0 0 0 0
gi 0 0 0 0
gi 0 0 0 0
gi 0 0 0 0
gi 0 0 0 0
gi 0 0 0 0
gi 0 0 0 0
gi 0 0 0 0
gi 0 0 0 0
gi 0 0 0 0
gi 0 0 0 0
gi 0 0 0 0
gi 0 0 0 0
gi 0 0 0 0
gi 0 0 0 0
gi 0 0 0 0
gi 0 0 0 0
gi 0 0 0 0
gi 0 0 0 0
gi 0 0 0 0
gi 0 0 0 0
gi 0 0 0 0
gi 0 0 0 0
gi 0 0 0 0
gi 0 0 0 0
gi 0 0 0 0
gi 0 0 0 0
gi 0 0 0 0
gi 0 0 0 0
gi 0 0 0 0
gi 0 0 0 0
gi 0 0 0 0
gi 0 0 0 0
gi 0 0 0 0
gi 0 0 0 0
gi 0 0 0 0
gi 0 0 0 0
gi 0 0 0 0
gi 0 0 0 0
gi 0 0 0 0
gi 0 0 0 0
gi 0 0 0 0
gi 0 0 0 0
gi 0 0 0 0
gi 0 0 0 0
gi 0 0 0 0
gi 0 0 0 0
gi 0 0 0 0
gi 0 0 0 0
gi 0 0 0 0
gi 0 0 0 0
gi 0 0 0 0
gi 0 0 0 0
gi 0 0 0 0
gi 0 0 0 0
gi 0 0 0 0
gi 0 0 0 0
gi 0 0 0 0
gi 0 0 0 0
gi 0 0 0 0
gi 0 0 0 0
gi 0 0 0 0
gi 0 0 0 0
gi 0 0 0 0
gi 0 0 0 0
gi 0 0 0 0
gi 0 0 0 0
gi 0 0 0 0
gi 0 0 0 0
gi 0 0 0 0
gi 0 0 0 0
gi 0 0 0 0
gi 0 0 0 0
gi 0 0 0 0
gi 0 0 0 0
gi 0 0 0 0
gi 0 0 0 0
gi 0 0 0 0
gi 0 0 0 0
gi 0 0 0 0
gi 0 0 0 0
gi 0 0 0 0
gi 0 0 0 0
gi 0 0 0 0
gi 0 0 0 0
gi 0 0 0 0
gi 0 0 0 0
gi 0 0 0 0
gi 0 0 0 0
gi 0 0 0 0
gi 0 0 0 0
gi 0 0 0 0
gi 0 0 0 0
gi 0 0 0 0
gi 0 0 0 0
gi 0 0 0 0
gi 0 0 0 0
gi 0 0 0 0
gi 0 0 0 0
gi 0 0 0 0
gi 0 0 0 0
gi 0 0 0 0
gi 0 0 0 0
gi 0 0 0 0
gi 0 0 0 0
gi 0 0 0 0
gi 0 0 0 0
gi 0 0 0 0
gi 0 0 0 0
gi 0 0 0 0
gi 0 0 0 0
gi 0 0 0 0
gi 0 0 0 0
gi 0 0 0 0
gi 0 0 0 0
gi 0 0 0 0
gi 0 0 0 0
gi 0 0 0 0
gi 0 0 0 0
gi 0 0 0 0
gi 0 0 0 0
gi 0 0 0 0
gi 0 0 0 0
gi 0 0 0 0
gi 0 0 0 0
gi 0 0 0 0
gi 0 0 0 0
gi 0 0 0 0
gi 0 0 0 0
gi 0 0 0 0
gi 0 0 0 0
gi 0 0 0 0
gi 0 0 0 0
gi 0 0 0 0
gi 0 0 0 0
gi 0 0 0 0
gi 0 0 0 0
gi 0 0 0 0
gi 0 0 0 0
gi 0 0 0 0
gi 0 0 0 0
gi 0 0 0 0
gi 0 0 0 0
gi 0 0 0 0
gi 0 0 0 0
gi 0 0 0 0
gi 0 0 0 0
gi 0 0 0 0
gi 0 0 0 0
gi 0 0 0 0
gi 0 0 0 0
gi 0 0 0 0
gi 0 0 0 0
gi 0 0 0 0
gi 0 0 0 0
gi 0 0 0 0
gi 0 0 0 0
gi 0 0 0 0
gi 0 0 0 0
gi 0 0 0 0
gi 0 0 0 0
gi 0 0 0 0
gi 0 0 0 0
gi 0 0 0 0
gi 0 0 0 0
gi 0 0 0 0
gi 0 0 0 0
gi 0 0 0 0
gi 0 0 0 0
gi 0 0 0 0
gi 0 0 0 0
gi 0 0 0 0
gi 0 0 0 0
gi 0 0 0 0
gi 0 0 0 0
gi 0 0 0 0
gi 0 0 0 0
gi 0 0 0 0
gi 0 0 0 0
gi 0 0 0 0
gi 0 0 0 0
gi 0 0 0 0
gi 0 0 0 0
gi 0 0 0 0
gi 0 0 0 0
gi 0 0 0 0
gi 0 0 0 0
gi 0 0 0 0
gi 0 0 0 0
gi 0 0 0 0
gi 0 0 0 0
gi 0 0 0 0
gi 0 0 0 0
gi 0 0 0 0
gi 0 0 0 0
gi 0 0 0 0
gi 0 0 0 0
gi 0 0 0 0
gi 0 0 0 0
gi 0 0 0 0
gi 0 0 0 0
gi 0 0 0 0
gi 0 0 0 0
gi 0 0 0 0
gi 0 0 0 0
gi 0 0 0 0
gi 0 0 0 0
gi 0 0 0 0
gi 0 0 0 0
gi 0 0 0 0
gi 0 0 0 0
gi 0 0 0 0
gw 0.0 0.0 0.0 0.0
gw 0.0 0.0 0.0 0.0
gw 0.0 0.0 0.0 0.0
gw 0.0 0.0 0.0 0.0
gw 0.0 0.0 0.0 0.0
gw 0.0 0.0 0.0 0.0
gw 0.0 0.0 0.0 0.0
gw 0.0 0.0 0.0 0.0
gw 0.0 0.0 0.0 0.0
gw 0.0 0.0 0.0 0.0
gw 0.0 0.0 0.0 0.0
gw 0.0 0.0 0.0 0.0
gw 0.0 0.0 0.0 0.0
gw 0.0 0.0 0.0 0.0
gw 0.0 0.0 0.0 0.0
gw 0.0 0.0 0.0 0.0
gw 0.0 0.0 0.0 0.0
gw 0.0 0.0 0.0 0.0
gw 0.0 0.0 0.0 0.0
gw 0.0 0.0 0.0 0.0
gw 0.0 0.0 0.0 0.0
gw 0.0 0.0 0.0 0.0
gw 0.0 0.0 0.0 0.0
gw 0.0 0.0 0.0 0.0
gw 0.0 0.0 0.0 0.0
gw 0.0 0.0 0.0 0.0
gw 0.0 0.0 0.0 0.0
gw 0.0 0.0 0.0 0.0
gw 0.0 0.0 0.0 0.0
gw 0.0 0.0 0.0 0.0
gw 0.0 0.0 0.0 0.0
gw 0.0 0.0 0.0 0.0
gw 0.0 0.0 0.0 0.0
gw 0.0 0.0 0.0 0.0
gw 0.0 0.0 0.0 0.0
gw 0.0 0.0 0.0 0.0
gw 0.0 0.0 0.0 0.0
gw 0.0 0.0 0.0 0.0
gw 0.0 0.0 0.0 0.0
gw 0.0 0.0 0.0 0.0
gw 0.0 0.0 0.0 0.0
gw 0.0 0.0 0.0 0.0
gw 0.0 0.0 0.0 0.0
gw 0.0 0.0 0.0 0.0
gw 0.0 0.0 0.0 0.0
gw 0.0 0.0 0.0 0.0
gw 0.0 0.0 0.0 0.0
gw 0.0 0.0 0.0 0.0
gw 0.0 0.0 0.0 0.0
gw 0.0 0.0 0.0 0.0
gw 0.0 0.0 0.0 0.0
gw 0.0 0.0 0.0 0.0
gw 0.0 0.0 0.0 0.0
gw 0.0 0.0 0.0 0.0
gw 0.0 0.0 0.0 0.0
gw 0.0 0.0 0.0 0.0
gw 0.0 0.0 0.0 0.0
gw 0.0 0.0 0.0 0.0
gw 0.0 0.0 0.0 0.0
gw 0.0 0.0 0.0 0.0
gw 0.0 0.0 0.0 0.0
gw 0.0 0.0 0.0 0.0
gw 0.0 0.0 0.0 0.0
gw 0.0 0.0 0.0 0.0
gw 0.0 0.0 0.0 0.0
gw 0.0 0.0 0.0 0.0
gw 0.0 0.0 0.0 0.0
gw 0.0 0.0 0.0 0.0
gw 0.0 0.0 0.0 0.0
gw 0.0 0.0 0.0 0.0
gw 0.0 0.0 0.0 0.0
gw 0.0 0.0 0.0 0.0
gw 0.0 0.0 0.0 0.0
gw 0.0 0.0 0.0 0.0
gw 0.0 0.0 0.0 0.0
gw 0.0 0.0 0.0 0.0
gw 0.0 0.0 0.0 0.0
gw 0.0 0.0 0.0 0.0
gw 0.0 0.0 0.0 0.0
gw 0.0 0.0 0.0 0.0
gw 0.0 0.0 0.0 0.0
gw 0.0 0.0 0.0 0.0
gw 0.0 0.0 0.0 0.0
gw 0.0 0.0 0.0 0.0
gw 0.0 0.0 0.0 0.0
gw 0.0 0.0 0.0 0.0
gw 0.0 0.0 0.0 0.0
gw 0.0 0.0 0.0 0.0
gw 0.0 0.0 0.0 0.0
gw 0.0 0.0 0.0 0.0
gw 0.0 0.0 0.0 0.0
gw 0.0 0.0 0.0 0.0
gw 0.0 0.0 0.0 0.0
gw 0.0 0.0 0.0 0.0
gw 0.0 0.0 0.0 0.0
gw 0.0 0.0 0.0 0.0
gw 0.0 0.0 0.0 0.0
gw 0.0 0.0 0.0 0.0
gw 0.0 0.0 0.0 0.0
gw 0.0 0.0 0.0 0.0
gw 0.0 0.0 0.0 0.0
gw 0.0 0.0 0.0 0.0
gw 0.0 0.0 0.0 0.0
gw 0.0 0.0 0.0 0.0
gw 0.0 0.0 0.0 0.0
gw 0.0 0.0 0.0 0.0
gw 0.0 0.0 0.0 0.0
gw 0.0 0.0 0.0 0.0
gw 0.0 0.0 0.0 0.0
gw 0.0 0.0 0.0 0.0
gw 0.0 0.0 0.0 0.0
gw 0.0 0.0 0.0 0.0
gw 0.0 0.0 0.0 0.0
gw 0.0 0.0 0.0 0.0
gw 0.0 0.0 0.0 0.0
gw 0.0 0.0 0.0 0.0
gw 0.0 0.0 0.0 0.0
gw 0.0 0.0 0.0 0.0
gw 0.0 0.0 0.0 0.0
gw 0.0 0.0 0.0 0.0
gw 0.0 0.0 0.0 0.0
gw 0.0 0.0 0.0 0.0
gw 0.0 0.0 0.0 0.0
gw 0.0 0.0 0.0 0.0
gw 0.0 0.0 0.0 0.0
gw 0.0 0.0 0.0 0.0
gw 0.0 0.0 0.0 0.0
gw 0.0 0.0 0.0 0.0
gw 0.0 0.0 0.0 0.0
gw 0.0 0.0 0.0 0.0
gw 0.0 0.0 0.0 0.0
gw 0.0 0.0 0.0 0.0
gw 0.0 0.0 0.0 0.0
gw 0.0 0.0 0.0 0.0
gw 0.0 0.0 0.0 0.0
gw 0.0 0.0 0.0 0.0
gw 0.0 0.0 0.0 0.0
gw 0.0 0.0 0.0 0.0
gw 0.0 0.0 0.0 0.0
gw 0.0 0.0 0.0 0.0
gw 0.0 0.0 0.0 0.0
gw 0.0 0.0 0.0 0.0
gw 0.0 0.0 0.0 0.0
gw 0.0 0.0 0.0 0.0
gw 0.0 0.0 0.0 0.0
gw 0.0 0.0 0.0 0.0
gw 0.0 0.0 0.0 0.0
gw 0.0 0.0 0.0 0.0
gw 0.0 0.0 0.0 0.0
gw 0.0 0.0 0.0 0.0
gw 0.0 0.0 0.0 0.0
gw 0.0 0.0 0.0 0.0
gw 0.0 0.0 0.0 0.0
gw 0.0 0.0 0.0 0.0
gw 0.0 0.0 0.0 0.0
gw 0.0 0.0 0.0 0.0
gw 0.0 0.0 0.0 0.0
gw 0.0 0.0 0.0 0.0
gw 0.0 0.0 0.0 0.0
gw 0.0 0.0 0.0 0.0
gw 0.0 0.0 0.0 0.0
gw 0.0 0.0 0.0 0.0
gw 0.0 0.0 0.0 0.0
gw 0.0 0.0 0.0 0.0
gw 0.0 0.0 0.0 0.0
gw 0.0 0.0 0.0 0.0
gw 0.0 0.0 0.0 0.0
gw 0.0 0.0 0.0 0.0
gw 0.0 0.0 0.0 0.0
gw 0.0 0.0 0.0 0.0
gw 0.0 0.0 0.0 0.0
gw 0.0 0.0 0.0 0.0
gw 0.0 0.0 0.0 0.0
gw 0.0 0.0 0.0 0.0
gw 0.0 0.0 0.0 0.0
gw 0.0 0.0 0.0 0.0
gw 0.0 0.0 0.0 0.0
gw 0.0 0.0 0.0 0.0
gw 0.0 0.0 0.0 0.0
gw 0.0 0.0 0.0 0.0
gw 0.0 0.0 0.0 0.0
gw 0.0 0.0 0.0 0.0
gw 0.0 0.0 0.0 0.0
gw 0.0 0.0 0.0 0.0
gw 0.0 0.0 0.0 0.0
gw 0.0 0.0 0.0 0.0
gw 0.0 0.0 0.0 0.0
gw 0.0 0.0 0.0 0.0
gw 0.0 0.0 0.0 0.0
gw 0.0 0.0 0.0 0.0
gw 0.0 0.0 0.0 0.0
gw 0.0 0.0 0.0 0.0
gw 0.0 0.0 0.0 0.0
gw 0.0 0.0 0.0 0.0
gw 0.0 0.0 0.0 0.0
gw 0.0 0.0 0.0 0.0
gw 0.0 0.0 0.0 0.0
gw 0.0 0.0 0.0 0.0
gw 0.0 0.0 0.0 0.0
gw 0.0 0.0 0.0 0.0
gw 0.0 0.0 0.0 0.0
gw 0.0 0.0 0.0 0.0
gw 0.0 0.0 0.0 0.0
gw 0.0 0.0 0.0 0.0
gw 0.0 0.0 0.0 0.0
gw 0.0 0.0 0.0 0.0
gw 0.0 0.0 0.0 0.0
gw 0.0 0.0 0.0 0.0
gw 0.0 0.0 0.0 0.0
gw 0.0 0.0 0.0 0.0
gw 0.0 0.0 0.0 0.0
gw 0.0 0.0 0.0 0.0
gw 0.0 0.0 0.0 0.0
gw 0.0 0.0 0.0 0.0
gw 0.0 0.0 0.0 0.0
gw 0.0 0.0 0.0 0.0
gw 0.0 0.0 0.0 0.0
gw 0.0 0.0 0.0 0.0
gw 0.0 0.0 0.0 0.0
gw 0.0 0.0 0.0 0.0
gw 0.0 0.0 0.0 0.0
gw 0.0 0.0 0.0 0.0
gw 0.0 0.0 0.0 0.0
gw 0.0 0.0 0.0 0.0
gw 0.0 0.0 0.0 0.0
gw 0.0 0.0 0.0 0.0
gw 0.0 0.0 0.0 0.0
gw 0.0 0.0 0.0 0.0
gw 0.0 0.0 0.0 0.0
gw 0.0 0.0 0.0 0.0
gw 0.0 0.0 0.0 0.0
gw 0.0 0.0 0.0 0.0
gw 0.0 0.0 0.0 0.0
gw 0.0 0.0 0.0 0.0
gw 0.0 0.0 0.0 0.0
gw 0.0 0.0 0.0 0.0
gw 0.0 0.0 0.0 0.0
gw 0.0 0.0 0.0 0.0
gw 0.0 0.0 0.0 0.0
gw 0.0 0.0 0.0 0.0
gw 0.0 0.0 0.0 0.0
gw 0.0 0.0 0.0 0.0
gw 0.0 0.0 0.0 0.0
gw 0.0 0.0 0.0 0.0
gw 0.0 0.0 0.0 0.0
gw 0.0 0.0 0.0 0.0
gw 0.0 0.0 0.0 0.0
gw 0.0 0.0 0.0 0.0
gw 0.0 0.0 0.0 0.0
gw 0.0 0.0 0.0 0.0
gw 0.0 0.0 0.0 0.0
gw 0.0 0.0 0.0 0.0
gw 0.0 0.0 0.0 0.0
gw 0.0 0.0 0.0 0.0
gw 0.0 0.0 0.0 0.0
gw 0.0 0.0 0.0 0.0
gw 0.0 0.0 0.0 0.0
gw 0.0 0.0 0.0 0.0
gw 0.0 0.0 0.0 0.0
gw 0.0 0.0 0.0 0.0
gw 0.0 0.0 0.0 0.0
gw 0.0 0.0 0.0 0.0
gw 0.0 0.0 0.0 0.0
gw 0.0 0.0 0.0 0.0
gw 0.0 0.0 0.0 0.0
gw 0.0 0.0 0.0 0.0
gw 0.0 0.0 0.0 0.0
gw 0.0 0.0 0.0 0.0
gw 0.0 0.0 0.0 0.0
gw 0.0 0.0 0.0 0.0
gw 0.0 0.0 0.0 0.0
gw 0.0 0.0 0.0 0.0
gw 0.0 0.0 0.0 0.0
gw 0.0 0.0 0.0 0.0
gw 0.0 0.0 0.0 0.0
gw 0.0 0.0 0.0 0.0
gw 0.0 0.0 0.0 0.0
gw 0.0 0.0 0.0 0.0
gw 0.0 0.0 0.0 0.0
gw 0.0 0.0 0.0 0.0
gw 0.0 0.0 0.0 0.0
gw 0.0 0.0 0.0 0.0
gw 0.0 0.0 0.0 0.0
gw 0.0 0.0 0.0 0.0
gw 0.0 0.0 0.0 0.0
gw 0.0 0.0 0.0 0.0
gw 0.0 0.0 0.0 0.0
gw 0.0 0.0 0.0 0.0
gw 0.0 0.0 0.0 0.0
gw 0.0 0.0 0.0 0.0
gw 0.0 0.0 0.0 0.0
gw 0.0 0.0 0.0 0.0
gw 0.0 0.0 0.0 0.0
gw 0.0 0.0 0.0 0.0
gw 0.0 0.0 0.0 0.0
gw 0.0 0.0 0.0 0.0
gw 0.0 0.0 0.0 0.0
gw 0.0 0.0 0.0 0.0
gw 0.0 0.0 0.0 0.0
gw 0.0 0.0 0.0 0.0
gw 0.0 0.0 0.0 0.0
gw 0.0 0.0 0.0 0.0
gw 0.0 0.0 0.0 0.0
gw 0.0 0.0 0.0 0.0
gw 0.0 0.0 0.0 0.0
gw 0.0 0.0 0.0 0.0
gw 0.0 0.0 0.0 0.0
gw 0.0 0.0 0.0 0.0
gw 0.0 0.0 0.0 0.0
gw 0.0 0.0 0.0 0.0
vt 0.5179 0.0173
vt 0.4869 0.0173
vt 0.4869 0.0141
vt 0.5179 0.0141
vt 0.5179 0.0474
vt 0.4869 0.0474
vt 0.4869 0.1668
vt 0.5179 0.1668
vt 0.5179 0.1687
vt 0.4869 0.1687
vt 0.5179 0.1252
vt 0.4869 0.1252
vt 0.5179 0.0699
vt 0.5179 0.0877
vt 0.4869 0.0877
vt 0.4869 0.0699
vt 0.0531 0.0173
vt 0.0221 0.0173
vt 0.0221 0.0141
vt 0.0531 0.0141
vt 0.0841 0.0173
vt 0.0841 0.0141
vt 0.1151 0.0173
vt 0.1151 0.0141
vt 0.1461 0.0173
vt 0.1461 0.0141
vt 0.1771 0.0173
vt 0.1771 0.0141
vt 0.208 0.0173
vt 0.208 0.0141
vt 0.239 0.0173
vt 0.239 0.0141
vt 0.27 0.0173
vt 0.27 0.0141
vt 0.301 0.0173
vt 0.301 0.0141
vt 0.332 0.0173
vt 0.332 0.0141
vt 0.363 0.0173
vt 0.363 0.0141
vt 0.394 0.0173
vt 0.394 0.0141
vt 0.4249 0.0173
vt 0.4249 0.0141
vt 0.4559 0.0173
vt 0.4559 0.0141
vt 0.9517 0.0141
vt 0.9788 0.0145
vt 0.9788 0.0177
vt 0.9517 0.0173
vt 0.9207 0.0141
vt 0.9207 0.0173
vt 0.8897 0.0141
vt 0.8897 0.0173
vt 0.8588 0.0141
vt 0.8587 0.0173
vt 0.8278 0.0141
vt 0.8278 0.0173
vt 0.7968 0.0141
vt 0.7968 0.0173
vt 0.7658 0.0141
vt 0.7658 0.0173
vt 0.7348 0.0141
vt 0.7348 0.0173
vt 0.7038 0.0141
vt 0.7038 0.0173
vt 0.6728 0.0141
vt 0.6728 0.0173
vt 0.6419 0.0141
vt 0.6418 0.0173
vt 0.6109 0.0141
vt 0.6109 0.0173
vt 0.5799 0.0141
vt 0.5799 0.0173
vt 0.5489 0.0141
vt 0.5489 0.0173
vt 0.0531 0.0474
vt 0.0221 0.0474
vt 0.0841 0.0474
vt 0.1151 0.0474
vt 0.1461 0.0474
vt 0.1771 0.0474
vt 0.208 0.0474
vt 0.239 0.0474
vt 0.27 0.0474
vt 0.301 0.0474
vt 0.332 0.0474
vt 0.363 0.0474
vt 0.394 0.0474
vt 0.4249 0.0474
vt 0.4559 0.0474
vt 0.9788 0.0479
vt 0.9517 0.0474
vt 0.9207 0.0474
vt 0.8897 0.0474
vt 0.8587 0.0474
vt 0.8278 0.0474
vt 0.7968 0.0474
vt 0.7658 0.0474
vt 0.7348 0.0474
vt 0.7038 0.0474
vt 0.6728 0.0474
vt 0.6418 0.0474
vt 0.6109 0.0474
vt 0.5799 0.0474
vt 0.5489 0.0474
vt 0.0221 0.1668
vt 0.0531 0.1668
vt 0.0531 0.1687
vt 0.0221 0.1687
vt 0.0841 0.1668
vt 0.0841 0.1687
vt 0.1151 0.1668
vt 0.1151 0.1687
vt 0.1461 0.1668
vt 0.1461 0.1687
vt 0.1771 0.1668
vt 0.177 0.1687
vt 0.208 0.1668
vt 0.208 0.1687
vt 0.239 0.1668
vt 0.239 0.1687
vt 0.27 0.1668
vt 0.27 0.1687
vt 0.301 0.1668
vt 0.301 0.1687
vt 0.332 0.1668
vt 0.332 0.1687
vt 0.363 0.1668
vt 0.363 0.1687
vt 0.394 0.1668
vt 0.3939 0.1687
vt 0.4249 0.1668
vt 0.4249 0.1687
vt 0.4559 0.1668
vt 0.4559 0.1687
vt 0.9517 0.1668
vt 0.9788 0.1681
vt 0.9788 0.1691
vt 0.9517 0.1687
vt 0.9207 0.1668
vt 0.9207 0.1687
vt 0.8897 0.1668
vt 0.8897 0.1687
vt 0.8587 0.1668
vt 0.8587 0.1687
vt 0.8278 0.1668
vt 0.8277 0.1687
vt 0.7968 0.1668
vt 0.7968 0.1687
vt 0.7658 0.1668
vt 0.7658 0.1687
vt 0.7348 0.1668
vt 0.7348 0.1687
vt 0.7038 0.1668
vt 0.7038 0.1687
vt 0.6728 0.1668
vt 0.6728 0.1687
vt 0.6418 0.1668
vt 0.6418 0.1687
vt 0.6109 0.1668
vt 0.6108 0.1687
vt 0.5799 0.1668
vt 0.5799 0.1687
vt 0.5489 0.1668
vt 0.5489 0.1687
vt 0.0531 0.1252
vt 0.0221 0.1252
vt 0.0841 0.1252
vt 0.1151 0.1252
vt 0.1461 0.1252
vt 0.1771 0.1252
vt 0.208 0.1252
vt 0.239 0.1252
vt 0.27 0.1252
vt 0.301 0.1252
vt 0.332 0.1252
vt 0.363 0.1252
vt 0.394 0.1252
vt 0.4249 0.1252
vt 0.4559 0.1252
vt 0.9517 0.1381
vt 0.9517 0.0877
vt 0.9788 0.0889
vt 0.9788 0.1387
vt 0.9207 0.1381
vt 0.9207 0.0877
vt 0.8897 0.1381
vt 0.8897 0.0877
vt 0.8587 0.1381
vt 0.8587 0.0877
vt 0.8278 0.1381
vt 0.8278 0.0877
vt 0.7968 0.1381
vt 0.7968 0.0877
vt 0.7658 0.1381
vt 0.7658 0.0877
vt 0.7348 0.1381
vt 0.7348 0.0877
vt 0.7038 0.1381
vt 0.7038 0.0877
vt 0.6728 0.1381
vt 0.6728 0.0877
vt 0.6418 0.1381
vt 0.6418 0.0877
vt 0.6109 0.1381
vt 0.6109 0.0877
vt 0.5799 0.1381
vt 0.5799 0.0877
vt 0.5489 0.1381
vt 0.5489 0.0877
vt 0.5179 0.1381
vt 0.0531 0.0699
vt 0.0531 0.0877
vt 0.0221 0.0877
vt 0.0221 0.0699
vt 0.0841 0.0699
vt 0.0841 0.0877
vt 0.1151 0.0699
vt 0.1151 0.0877
vt 0.1461 0.0699
vt 0.1461 0.0877
vt 0.1771 0.0699
vt 0.1771 0.0877
vt 0.208 0.0699
vt 0.208 0.0877
vt 0.239 0.0699
vt 0.239 0.0877
vt 0.27 0.0699
vt 0.27 0.0877
vt 0.301 0.0699
vt 0.301 0.0877
vt 0.332 0.0699
vt 0.332 0.0877
vt 0.363 0.0699
vt 0.363 0.0877
vt 0.394 0.0699
vt 0.394 0.0877
vt 0.4249 0.0699
vt 0.4249 0.0877
vt 0.4559 0.0699
vt 0.4559 0.0877
vt 0.9517 0.0699
vt 0.9788 0.0711
vt 0.9207 0.0699
vt 0.8897 0.0699
vt 0.8587 0.0699
vt 0.8278 0.0699
vt 0.7968 0.0699
vt 0.7658 0.0699
vt 0.7348 0.0699
vt 0.7038 0.0699
vt 0.6728 0.0699
vt 0.6418 0.0699
vt 0.6109 0.0699
vt 0.5799 0.0699
vt 0.5489 0.0699
vt 0.4869 0.1381
vt 0.0531 0.1381
vt 0.0221 0.1381
vt 0.0841 0.1381
vt 0.1151 0.1381
vt 0.1461 0.1381
vt 0.1771 0.1381
vt 0.208 0.1381
vt 0.239 0.1381
vt 0.27 0.1381
vt 0.301 0.1381
vt 0.332 0.1381
vt 0.363 0.1381
vt 0.394 0.1381
vt 0.4249 0.1381
vt 0.4559 0.1381
vt 0.9517 0.1533
vt 0.9788 0.1538
vt 0.9207 0.1533
vt 0.8897 0.1533
vt 0.8587 0.1533
vt 0.8278 0.1533
vt 0.7968 0.1533
vt 0.7658 0.1533
vt 0.7348 0.1533
vt 0.7038 0.1533
vt 0.6728 0.1533
vt 0.6418 0.1533
vt 0.6109 0.1533
vt 0.5799 0.1533
vt 0.5489 0.1533
vt 0.5179 0.1533
vt 0.4869 0.1533
vt 0.0531 0.1533
vt 0.0221 0.1533
vt 0.0841 0.1533
vt 0.1151 0.1533
vt 0.1461 0.1533
vt 0.1771 0.1533
vt 0.208 0.1533
vt 0.239 0.1533
vt 0.27 0.1533
vt 0.301 0.1533
vt 0.332 0.1533
vt 0.363 0.1533
vt 0.394 0.1533
vt 0.4249 0.1533
vt 0.4559 0.1533
vt 0.9517 0.1252
vt 0.9788 0.1267
vt 0.9207 0.1252
vt 0.8897 0.1252
vt 0.8587 0.1252
vt 0.8278 0.1252
vt 0.7968 0.1252
vt 0.7658 0.1252
vt 0.7348 0.1252
vt 0.7038 0.1252
vt 0.6728 0.1252
vt 0.6418 0.1252
vt 0.6109 0.1252
vt 0.5799 0.1252
vt 0.5489 0.1252
vn -0.0339 -0.9459 -0.3227
vn 0.0318 -0.9459 -0.323
vn 0.0 -1.0 -0.0001
vn 0.0 -1.0 0.0001
vn -0.0944 -0.4264 -0.8996
vn 0.0885 -0.4264 -0.9002
vn 0.0965 -0.1734 -0.9801
vn -0.1028 -0.1736 -0.9794
vn -0.1042 -0.0584 -0.9928
vn 0.0978 -0.058 -0.9935
vn -0.0978 0.3481 -0.9324
vn 0.0919 0.348 -0.933
vn -0.0974 0.3593 -0.9281
vn -0.1029 -0.1701 -0.98
vn 0.0966 -0.1701 -0.9807
vn 0.0913 0.3593 -0.9287
vn 0.0664 -0.9458 0.3179
vn 0.001 -0.9459 0.3245
vn 0.0 -1.0 0.0
vn 0.0 -1.0 0.0001
vn 0.129 -0.9459 0.2977
vn 0.0 -1.0 -0.0002
vn 0.1862 -0.9459 0.2658
vn 0.0 -1.0 0.0
vn 0.236 -0.9459 0.2228
vn 0.0 -1.0 -0.0001
vn 0.2761 -0.9458 0.1709
vn 0.0 -1.0 0.0001
vn 0.3048 -0.9458 0.1117
vn 0.3209 -0.9459 0.0481
vn 0.0 -1.0 0.0
vn 0.3241 -0.9458 -0.0174
vn 0.0 -1.0 0.0
vn 0.3139 -0.9459 -0.0825
vn 0.2909 -0.9459 -0.1439
vn 0.2561 -0.9459 -0.1994
vn 0.0 -1.0 -0.0
vn 0.2107 -0.9458 -0.247
vn 0.0 -1.0 -0.0
vn 0.1565 -0.9459 -0.2844
vn 0.0 -1.0 -0.0
vn 0.0962 -0.9459 -0.3099
vn 0.0 -1.0 0.0
vn 0.0 -1.0 0.0
vn -0.0643 -0.9459 0.3182
vn 0.0 -1.0 -0.0001
vn -0.1271 -0.9458 0.2987
vn 0.0 -1.0 -0.0001
vn -0.1846 -0.9459 0.2669
vn 0.0 -1.0 0.0
vn -0.2345 -0.9459 0.2244
vn 0.0 -1.0 0.0001
vn -0.275 -0.9458 0.1726
vn -0.304 -0.9459 0.1136
vn 0.0 -1.0 -0.0
vn -0.3206 -0.9459 0.0502
vn 0.0 -1.0 0.0
vn -0.3243 -0.9458 -0.0154
vn 0.0 -1.0 0.0
vn -0.3145 -0.9458 -0.0805
vn 0.0 -1.0 -0.0001
vn -0.2918 -0.9459 -0.142
vn 0.0 -1.0 -0.0001
vn -0.2574 -0.9458 -0.1979
vn 0.0 -1.0 0.0
vn -0.2122 -0.9459 -0.2455
vn 0.0 -1.0 0.0001
vn -0.1585 -0.9458 -0.2833
vn 0.0 -1.0 -0.0001
vn -0.0981 -0.9459 -0.3094
vn 0.185 -0.4265 0.8854
vn 0.0029 -0.4265 0.9045
vn 0.3594 -0.4265 0.83
vn 0.5191 -0.4264 0.7407
vn 0.6576 -0.4265 0.621
vn 0.7691 -0.4265 0.4759
vn 0.8492 -0.4264 0.3115
vn 0.8945 -0.4264 0.1341
vn 0.9032 -0.4264 -0.0488
vn 0.8749 -0.4264 -0.2297
vn 0.8108 -0.4265 -0.4009
vn 0.7136 -0.4264 -0.5559
vn 0.5869 -0.4264 -0.6882
vn 0.4364 -0.4264 -0.7923
vn 0.2679 -0.4264 -0.8639
vn -0.1792 -0.4265 0.8866
vn -0.354 -0.4265 0.8323
vn -0.5143 -0.4265 0.744
vn -0.6536 -0.4264 0.6253
vn -0.7661 -0.4265 0.4808
vn -0.8472 -0.4265 0.3167
vn -0.8936 -0.4265 0.1398
vn -0.9035 -0.4264 -0.0429
vn -0.8763 -0.4265 -0.224
vn -0.8134 -0.4265 -0.3957
vn -0.717 -0.4264 -0.5514
vn -0.5913 -0.4264 -0.6845
vn -0.4415 -0.4264 -0.7894
vn -0.2736 -0.4264 -0.8622
vn 0.0031 -0.1734 0.9848
vn 0.2014 -0.1735 0.964
vn 0.2042 -0.0583 0.9772
vn 0.0031 -0.0581 0.9983
vn 0.3914 -0.1734 0.9037
vn 0.3967 -0.0581 0.9161
vn 0.5653 -0.1735 0.8064
vn 0.573 -0.0582 0.8175
vn 0.716 -0.1735 0.6762
vn 0.7258 -0.0584 0.6854
vn 0.8375 -0.1734 0.5182
vn 0.8489 -0.0583 0.5253
vn 0.9247 -0.1735 0.3389
vn 0.9373 -0.0584 0.3436
vn 0.974 -0.1735 0.146
vn 0.9873 -0.0584 0.148
vn 0.9834 -0.1736 -0.053
vn 0.9968 -0.0586 -0.0538
vn 0.9526 -0.1734 -0.2499
vn 0.9656 -0.0581 -0.2533
vn 0.8828 -0.1734 -0.4366
vn 0.8949 -0.0581 -0.4425
vn 0.7768 -0.1735 -0.6053
vn 0.7875 -0.0583 -0.6136
vn 0.639 -0.1735 -0.7494
vn 0.6478 -0.0584 -0.7595
vn 0.4751 -0.1735 -0.8626
vn 0.4816 -0.0584 -0.8744
vn 0.2919 -0.1734 -0.9406
vn 0.2958 -0.0581 -0.9535
vn -0.1952 -0.1735 0.9653
vn -0.1979 -0.0583 0.9785
vn -0.3855 -0.1734 0.9062
vn -0.3908 -0.0582 0.9186
vn -0.56 -0.1736 0.8101
vn -0.5677 -0.0585 0.8212
vn -0.7117 -0.1734 0.6808
vn -0.7215 -0.058 0.69
vn -0.8341 -0.1734 0.5236
vn -0.8455 -0.0582 0.5307
vn -0.9225 -0.1736 0.3448
vn -0.9351 -0.0585 0.3495
vn -0.973 -0.1735 0.1522
vn -0.9863 -0.0583 0.1543
vn -0.9837 -0.1735 -0.0466
vn -0.9972 -0.0583 -0.0473
vn -0.9542 -0.1735 -0.2438
vn -0.9672 -0.0582 -0.2472
vn -0.8856 -0.1734 -0.4309
vn -0.8976 -0.0581 -0.4369
vn -0.7807 -0.1734 -0.6003
vn -0.7914 -0.0582 -0.6086
vn -0.6439 -0.1735 -0.7452
vn -0.6526 -0.0583 -0.7554
vn -0.4807 -0.1734 -0.8596
vn -0.4872 -0.0583 -0.8713
vn -0.2978 -0.1736 -0.9387
vn -0.3019 -0.0585 -0.9515
vn 0.1918 0.348 0.9177
vn 0.003 0.348 0.9375
vn 0.3726 0.348 0.8603
vn 0.538 0.348 0.7677
vn 0.6816 0.3481 0.6436
vn 0.7972 0.348 0.4932
vn 0.8802 0.348 0.3227
vn 0.9271 0.348 0.1389
vn 0.9361 0.3481 -0.0505
vn 0.9068 0.348 -0.2379
vn 0.8403 0.348 -0.4156
vn 0.7394 0.3481 -0.5763
vn 0.6083 0.348 -0.7133
vn 0.4523 0.348 -0.8212
vn 0.2777 0.348 -0.8954
vn -0.171 -0.5062 0.8453
vn -0.1954 -0.1699 0.9659
vn 0.0033 -0.1699 0.9855
vn 0.0028 -0.5062 0.8624
vn -0.3376 -0.5062 0.7936
vn -0.3857 -0.17 0.9068
vn -0.4904 -0.5062 0.7094
vn -0.5603 -0.17 0.8107
vn -0.6232 -0.5062 0.5962
vn -0.712 -0.17 0.6813
vn -0.7304 -0.5062 0.4585
vn -0.8346 -0.1701 0.5239
vn -0.8078 -0.5062 0.3021
vn -0.9231 -0.1701 0.3449
vn -0.852 -0.5062 0.1333
vn -0.9736 -0.17 0.1523
vn -0.8615 -0.5061 -0.041
vn -0.9843 -0.17 -0.0468
vn -0.8356 -0.5061 -0.2136
vn -0.9548 -0.17 -0.2439
vn -0.7755 -0.5062 -0.3773
vn -0.8862 -0.17 -0.4309
vn -0.6836 -0.5062 -0.5257
vn -0.7812 -0.1701 -0.6006
vn -0.5638 -0.5062 -0.6526
vn -0.6442 -0.1701 -0.7457
vn -0.421 -0.5062 -0.7527
vn -0.481 -0.1701 -0.8601
vn -0.2608 -0.5061 -0.8221
vn -0.2982 -0.17 -0.9392
vn -0.09 -0.5061 -0.8577
vn 0.1909 0.3592 0.9135
vn 0.2016 -0.1699 0.9646
vn 0.0029 0.3591 0.9333
vn 0.3709 0.3592 0.8564
vn 0.3916 -0.1701 0.9043
vn 0.5356 0.3592 0.7642
vn 0.5656 -0.1701 0.8069
vn 0.6785 0.3592 0.6408
vn 0.7164 -0.1701 0.6766
vn 0.7936 0.3593 0.491
vn 0.838 -0.17 0.5186
vn 0.8762 0.3593 0.3213
vn 0.9252 -0.1701 0.3392
vn 0.9229 0.3593 0.1384
vn 0.9746 -0.17 0.146
vn 0.9319 0.3592 -0.0502
vn 0.984 -0.17 -0.053
vn 0.9027 0.3592 -0.2369
vn 0.9532 -0.17 -0.25
vn 0.8365 0.3592 -0.4137
vn 0.8833 -0.1701 -0.4369
vn 0.7362 0.3592 -0.5736
vn 0.7772 -0.17 -0.6059
vn 0.6056 0.3593 -0.71
vn 0.6396 -0.17 -0.7497
vn 0.4503 0.3593 -0.8174
vn 0.4756 -0.1701 -0.8631
vn 0.2764 0.3593 -0.8913
vn 0.2919 -0.1701 -0.9412
vn -0.185 0.3592 0.9147
vn -0.3653 0.3592 0.8588
vn -0.5307 0.3593 0.7676
vn -0.6743 0.3593 0.6452
vn -0.7904 0.3592 0.4962
vn -0.8741 0.3592 0.3269
vn -0.9221 0.3592 0.1441
vn -0.9322 0.3593 -0.0443
vn -0.9042 0.3592 -0.2309
vn -0.8392 0.3592 -0.4083
vn -0.7398 0.3592 -0.5689
vn -0.6101 0.3593 -0.7062
vn -0.4556 0.3593 -0.8145
vn -0.2822 0.3592 -0.8895
vn 0.0845 -0.5061 -0.8583
vn 0.1764 -0.5062 0.8442
vn 0.3427 -0.5062 0.7914
vn 0.495 -0.5061 0.7063
vn 0.627 -0.5063 0.5921
vn 0.7334 -0.5062 0.4537
vn 0.8097 -0.5062 0.2968
vn 0.8529 -0.5062 0.1279
vn 0.8612 -0.5061 -0.0465
vn 0.8342 -0.5062 -0.2189
vn 0.7731 -0.5062 -0.3823
vn 0.6803 -0.5063 -0.53
vn 0.5597 -0.5062 -0.6561
vn 0.4161 -0.5061 -0.7555
vn 0.2555 -0.5062 -0.8237
vn -0.1788 0.4316 0.8842
vn 0.0029 0.4316 0.9021
vn -0.3532 0.4316 0.8301
vn -0.513 0.4316 0.742
vn -0.6518 0.4316 0.6236
vn -0.764 0.4315 0.4796
vn -0.8449 0.4316 0.316
vn -0.8912 0.4317 0.1394
vn -0.901 0.4317 -0.0428
vn -0.874 0.4316 -0.2234
vn -0.8111 0.4316 -0.3947
vn -0.7151 0.4316 -0.5499
vn -0.5898 0.4316 -0.6826
vn -0.4403 0.4316 -0.7873
vn -0.2728 0.4316 -0.8598
vn -0.0941 0.4316 -0.8972
vn 0.0883 0.4316 -0.8977
vn 0.1845 0.4315 0.883
vn 0.3585 0.4316 0.8278
vn 0.5177 0.4316 0.7387
vn 0.6559 0.4315 0.6194
vn 0.7671 0.4316 0.4746
vn 0.847 0.4315 0.3106
vn 0.8921 0.4315 0.1337
vn 0.9007 0.4317 -0.0487
vn 0.8725 0.4316 -0.229
vn 0.8086 0.4315 -0.3999
vn 0.7116 0.4315 -0.5545
vn 0.5853 0.4316 -0.6864
vn 0.4352 0.4316 -0.7902
vn 0.2673 0.4316 -0.8616
vn -0.1858 0.348 0.9189
vn -0.367 0.348 0.8627
vn -0.5332 0.3479 0.7711
vn -0.6774 0.348 0.6481
vn -0.794 0.348 0.4985
vn -0.8781 0.348 0.3283
vn -0.9262 0.3481 0.1448
vn -0.9364 0.3481 -0.0444
vn -0.9083 0.348 -0.232
vn -0.843 0.348 -0.4102
vn -0.7432 0.348 -0.5715
vn -0.6129 0.348 -0.7094
vn -0.4575 0.348 -0.8183
vn -0.2836 0.3481 -0.8935
vtan -0.9945 -0.0 0.1045
vtan -0.9952 0.0 -0.098
vtan -0.9952 0.0 -0.0978
vtan -0.9945 0.0 0.1045
vtan -0.9945 -0.0 0.1044
vtan -0.9952 -0.0 -0.0979
vtan -0.9952 0.0 -0.0979
vtan -0.9945 0.0 0.1044
vtan -0.9945 -0.0 0.1044
vtan -0.9952 0.0 -0.098
vtan -0.9945 0.0 0.1044
vtan -0.9952 -0.0 -0.098
vtan -0.9945 -0.0 0.1043
vtan -0.9945 -0.0 0.1044
vtan -0.9952 -0.0 -0.098
vtan -0.9952 -0.0 -0.0979
vtan 0.9788 -0.0 -0.2047
vtan 0.9951 -0.0311 -0.0937
vtan 0.9945 0.0 -0.1043
vtan 0.9789 -0.0 -0.2045
vtan 0.9176 0.0 -0.3974
vtan 0.9176 0.0001 -0.3974
vtan 0.8189 -0.0 -0.5739
vtan 0.8188 -0.0 -0.5741
vtan 0.6867 0.0001 -0.7269
vtan 0.6868 0.0001 -0.7269
vtan 0.5263 -0.0 -0.8503
vtan 0.5261 -0.0001 -0.8504
vtan 0.3441 0.0 -0.9389
vtan 0.3441 0.0 -0.9389
vtan 0.1482 0.0 -0.989
vtan 0.1481 -0.0 -0.989
vtan -0.0538 -0.0 -0.9986
vtan -0.0542 -0.0 -0.9985
vtan -0.254 0.0001 -0.9672
vtan -0.2541 0.0 -0.9672
vtan -0.4433 0.0001 -0.8964
vtan -0.4431 0.0 -0.8965
vtan -0.6145 -0.0 -0.7889
vtan -0.6147 0.0 -0.7888
vtan -0.7608 0.0 -0.649
vtan -0.761 0.0 -0.6488
vtan -0.876 0.0 -0.4823
vtan -0.876 0.0 -0.4823
vtan -0.9551 -0.0 -0.2963
vtan -0.9552 -0.0 -0.296
vtan 0.9838 0.0 0.1794
vtan 0.9983 0.0 0.0582
vtan 0.9991 0.0147 0.0397
vtan 0.9843 -0.0076 0.1763
vtan 0.9204 -0.0 0.3911
vtan 0.9202 -0.0 0.3914
vtan 0.8226 -0.0001 0.5686
vtan 0.8224 -0.0 0.5688
vtan 0.6915 0.0 0.7224
vtan 0.6913 0.0 0.7226
vtan 0.5321 0.0001 0.8467
vtan 0.5316 0.0 0.847
vtan 0.3501 0.0 0.9367
vtan 0.35 0.0 0.9368
vtan 0.1547 -0.0 0.988
vtan 0.1546 0.0 0.988
vtan -0.0471 0.0 0.9989
vtan -0.0474 0.0 0.9989
vtan -0.2477 0.0 0.9688
vtan -0.2479 -0.0 0.9688
vtan -0.4373 -0.0001 0.8993
vtan -0.4376 -0.0 0.8992
vtan -0.6092 -0.0001 0.793
vtan -0.6096 -0.0 0.7927
vtan -0.7567 0.0 0.6538
vtan -0.7567 0.0001 0.6538
vtan -0.8726 0.0 0.4885
vtan -0.8727 -0.0001 0.4883
vtan -0.9532 -0.0 0.3023
vtan -0.9533 0.0 0.3022
vtan 0.9788 -0.0 -0.2046
vtan 0.999 -0.0392 -0.0217
vtan 0.9176 -0.0 -0.3974
vtan 0.8189 0.0 -0.5739
vtan 0.6866 -0.0 -0.7271
vtan 0.5262 -0.0 -0.8504
vtan 0.3443 0.0 -0.9388
vtan 0.1482 0.0 -0.989
vtan -0.054 0.0 -0.9985
vtan -0.254 -0.0 -0.9672
vtan -0.4433 -0.0 -0.8964
vtan -0.6145 0.0 -0.7889
vtan -0.7609 0.0 -0.6489
vtan -0.8759 -0.0 -0.4824
vtan -0.9551 0.0 -0.2962
vtan 1.0 -0.0047 -0.0054
vtan 0.9816 -0.0174 0.19
vtan 0.9202 0.0 0.3914
vtan 0.8226 -0.0 0.5686
vtan 0.6913 -0.0 0.7226
vtan 0.5316 0.0 0.847
vtan 0.3502 0.0 0.9367
vtan 0.1546 0.0 0.988
vtan -0.0474 -0.0 0.9989
vtan -0.2476 0.0 0.9689
vtan -0.4374 0.0 0.8993
vtan -0.6096 -0.0 0.7927
vtan -0.7567 -0.0 0.6537
vtan -0.8728 0.0 0.4881
vtan -0.9532 0.0 0.3024
vtan 0.9998 -0.0175 -0.0063
vtan 0.9789 -0.0001 -0.2045
vtan 0.9789 -0.0001 -0.2045
vtan 1.0 -0.0059 -0.0035
vtan 0.9176 0.0 -0.3974
vtan 0.9176 0.0 -0.3974
vtan 0.8189 -0.0 -0.574
vtan 0.8189 0.0 -0.574
vtan 0.6866 0.0 -0.727
vtan 0.6866 -0.0 -0.727
vtan 0.5261 0.0001 -0.8504
vtan 0.5262 0.0001 -0.8504
vtan 0.3442 -0.0 -0.9389
vtan 0.3442 -0.0 -0.9389
vtan 0.1482 -0.0 -0.989
vtan 0.1482 -0.0 -0.989
vtan -0.0539 -0.0 -0.9985
vtan -0.0539 -0.0 -0.9985
vtan -0.2538 -0.0 -0.9673
vtan -0.2538 -0.0 -0.9673
vtan -0.4433 -0.0 -0.8964
vtan -0.4433 -0.0 -0.8964
vtan -0.6147 0.0 -0.7888
vtan -0.6146 -0.0 -0.7888
vtan -0.7609 0.0 -0.6489
vtan -0.7608 -0.0 -0.6489
vtan -0.8759 0.0 -0.4824
vtan -0.8759 0.0 -0.4825
vtan -0.9551 -0.0 -0.2963
vtan -0.9551 -0.0 -0.2963
vtan 0.9799 -0.0761 0.1844
vtan 0.9552 -0.2908 -0.0542
vtan 0.9172 -0.3976 -0.026
vtan 0.9796 -0.0471 0.1953
vtan 0.9202 0.0 0.3915
vtan 0.9202 0.0 0.3915
vtan 0.8226 -0.0 0.5686
vtan 0.8226 -0.0 0.5687
vtan 0.6912 -0.0 0.7226
vtan 0.6912 0.0 0.7227
vtan 0.5317 0.0 0.847
vtan 0.5316 0.0 0.847
vtan 0.3502 -0.0 0.9367
vtan 0.3501 -0.0 0.9367
vtan 0.1546 0.0 0.988
vtan 0.1546 0.0 0.988
vtan -0.0473 -0.0 0.9989
vtan -0.0474 -0.0 0.9989
vtan -0.2475 0.0 0.9689
vtan -0.2476 -0.0 0.9689
vtan -0.4376 0.0 0.8992
vtan -0.4376 0.0 0.8991
vtan -0.6096 0.0 0.7927
vtan -0.6096 -0.0 0.7927
vtan -0.7567 -0.0 0.6538
vtan -0.7567 -0.0 0.6537
vtan -0.8728 0.0 0.4881
vtan -0.8728 0.0 0.4881
vtan -0.9532 0.0 0.3024
vtan -0.9532 -0.0 0.3024
vtan 0.9788 -0.0 -0.2046
vtan 0.9993 0.0332 -0.0155
vtan 0.9176 -0.0 -0.3974
vtan 0.8189 0.0 -0.5739
vtan 0.6865 -0.0 -0.7271
vtan 0.5261 0.0 -0.8504
vtan 0.3442 0.0 -0.9389
vtan 0.1481 -0.0 -0.989
vtan -0.0539 -0.0 -0.9985
vtan -0.2538 -0.0 -0.9673
vtan -0.4433 0.0 -0.8964
vtan -0.6147 -0.0 -0.7888
vtan -0.7609 0.0 -0.6489
vtan -0.8759 0.0 -0.4825
vtan -0.9551 -0.0 -0.2963
vtan 0.982 -0.0179 0.1879
vtan 0.9804 -0.059 0.1879
vtan 0.9953 -0.0943 -0.0196
vtan 0.9999 0.0149 0.0055
vtan 0.9202 0.0 0.3915
vtan 0.9202 0.0 0.3914
vtan 0.8226 0.0 0.5686
vtan 0.8226 0.0 0.5686
vtan 0.6913 0.0 0.7226
vtan 0.6914 0.0 0.7225
vtan 0.5316 -0.0 0.847
vtan 0.5316 -0.0 0.847
vtan 0.3503 0.0 0.9366
vtan 0.3501 -0.0 0.9367
vtan 0.1546 0.0 0.988
vtan 0.1545 0.0 0.988
vtan -0.0475 -0.0 0.9989
vtan -0.0475 0.0 0.9989
vtan -0.2477 -0.0 0.9688
vtan -0.2475 -0.0 0.9689
vtan -0.4375 0.0 0.8992
vtan -0.4373 0.0 0.8993
vtan -0.6096 -0.0 0.7927
vtan -0.6095 0.0 0.7928
vtan -0.7567 -0.0 0.6538
vtan -0.7568 -0.0 0.6537
vtan -0.8728 -0.0 0.4881
vtan -0.8728 0.0 0.4881
vtan -0.9532 0.0 0.3024
vtan -0.9531 0.0 0.3026
vtan -0.9945 -0.0 0.1044
vtan 0.9789 0.0 -0.2046
vtan 0.9788 0.0 -0.2046
vtan 0.9998 -0.017 -0.0063
vtan 0.9993 0.0341 -0.0162
vtan 0.9176 -0.0 -0.3975
vtan 0.9177 -0.0 -0.3974
vtan 0.8189 -0.0 -0.5739
vtan 0.8189 0.0 -0.574
vtan 0.6866 -0.0 -0.7271
vtan 0.6866 -0.0 -0.727
vtan 0.5261 -0.0 -0.8504
vtan 0.5262 -0.0 -0.8503
vtan 0.3443 -0.0 -0.9389
vtan 0.3442 -0.0 -0.9389
vtan 0.1483 0.0 -0.9889
vtan 0.1482 -0.0 -0.989
vtan -0.0538 0.0 -0.9986
vtan -0.0538 -0.0 -0.9986
vtan -0.2539 0.0 -0.9672
vtan -0.2537 -0.0 -0.9673
vtan -0.4433 0.0 -0.8964
vtan -0.4434 0.0 -0.8963
vtan -0.6146 0.0 -0.7888
vtan -0.6148 0.0 -0.7887
vtan -0.7609 0.0 -0.6489
vtan -0.7608 0.0 -0.649
vtan -0.8759 0.0 -0.4825
vtan -0.8758 -0.0 -0.4826
vtan -0.9551 -0.0 -0.2962
vtan -0.9551 -0.0 -0.2963
vtan 0.975 -0.0498 0.2168
vtan 0.9877 -0.1466 0.0534
vtan 0.9202 0.0 0.3915
vtan 0.8226 0.0 0.5687
vtan 0.6913 0.0 0.7225
vtan 0.5317 -0.0 0.8469
vtan 0.3503 0.0 0.9366
vtan 0.1544 0.0 0.988
vtan -0.0475 -0.0 0.9989
vtan -0.2474 -0.0 0.9689
vtan -0.4375 0.0 0.8992
vtan -0.6096 -0.0 0.7927
vtan -0.7567 0.0 0.6537
vtan -0.8728 0.0 0.4882
vtan -0.9532 -0.0 0.3024
vtan -0.9952 0.0 -0.098
vtan 0.9789 0.0 -0.2046
vtan 0.9986 -0.0444 -0.0293
vtan 0.9177 0.0 -0.3974
vtan 0.8189 -0.0 -0.574
vtan 0.6866 -0.0 -0.7271
vtan 0.5261 0.0 -0.8504
vtan 0.3442 0.0 -0.9389
vtan 0.1483 -0.0 -0.9889
vtan -0.054 0.0 -0.9985
vtan -0.2538 -0.0 -0.9673
vtan -0.4433 -0.0 -0.8964
vtan -0.6146 -0.0 -0.7888
vtan -0.7608 -0.0 -0.649
vtan -0.8759 0.0 -0.4825
vtan -0.9551 -0.0 -0.2963
vtan 0.9786 -0.0147 0.2051
vtan 0.9974 -0.0659 0.0283
vtan 0.9202 0.0 0.3915
vtan 0.8226 0.0 0.5687
vtan 0.6913 0.0 0.7225
vtan 0.5317 -0.0 0.847
vtan 0.3503 0.0 0.9367
vtan 0.1546 0.0 0.988
vtan -0.0475 -0.0 0.9989
vtan -0.2476 -0.0 0.9689
vtan -0.4375 0.0 0.8992
vtan -0.6095 -0.0 0.7928
vtan -0.7567 -0.0 0.6538
vtan -0.8728 0.0 0.4881
vtan -0.9532 -0.0 0.3024
vtan -0.9945 0.0 0.1043
vtan -0.9945 -0.0 0.1043
vtan -0.9945 -0.0 0.1044
vtan -0.9952 0.0 -0.098
vtan -0.9952 -0.0 -0.0979
vtan 0.9789 0.0 -0.2045
vtan 0.9788 -0.0 -0.2046
vtan 0.9993 0.0332 -0.0155
vtan 0.999 0.0396 -0.0221
vtan 0.9176 0.0 -0.3974
vtan 0.9176 0.0 -0.3974
vtan 0.8189 -0.0 -0.5739
vtan 0.8189 -0.0 -0.5739
vtan 0.6866 0.0 -0.7271
vtan 0.6865 0.0 -0.7271
vtan 0.5261 -0.0 -0.8504
vtan 0.5261 0.0 -0.8504
vtan 0.3443 -0.0 -0.9389
vtan 0.3442 -0.0 -0.9389
vtan 0.1482 0.0 -0.989
vtan 0.1481 0.0 -0.989
vtan -0.0539 -0.0 -0.9985
vtan -0.0539 0.0 -0.9985
vtan -0.2538 0.0 -0.9673
vtan -0.2538 0.0 -0.9673
vtan -0.4432 -0.0 -0.8964
vtan -0.4433 -0.0 -0.8964
vtan -0.6147 0.0 -0.7888
vtan -0.6147 0.0 -0.7888
vtan -0.7609 -0.0 -0.6489
vtan -0.7609 0.0 -0.6489
vtan -0.8759 -0.0 -0.4824
vtan -0.8759 0.0 -0.4825
vtan -0.9551 0.0 -0.2963
vtan -0.9551 -0.0 -0.2963
vtan 0.975 -0.0511 0.2165
vtan 0.991 -0.1265 0.0438
vtan 0.9202 0.0 0.3915
vtan 0.8225 -0.0 0.5687
vtan 0.6913 -0.0 0.7225
vtan 0.5317 0.0 0.8469
vtan 0.3502 -0.0 0.9367
vtan 0.1545 -0.0 0.988
vtan -0.0474 -0.0 0.9989
vtan -0.2475 0.0 0.9689
vtan -0.4375 0.0 0.8992
vtan -0.6096 -0.0 0.7927
vtan -0.7567 0.0 0.6538
vtan -0.8728 -0.0 0.4881
vtan -0.9532 -0.0 0.3025
vtan 0.9808 0.0098 0.1946
vtan 0.9806 0.0052 0.1958
vtan 0.9999 -0.0133 0.0032
vtan 1.0 0.0034 -0.0044
vtan 0.9202 -0.0 0.3915
vtan 0.9202 0.0 0.3915
vtan 0.8225 -0.0 0.5687
vtan 0.8225 -0.0 0.5687
vtan 0.6913 0.0 0.7225
vtan 0.6913 -0.0 0.7225
vtan 0.5317 -0.0 0.8469
vtan 0.5317 0.0 0.8469
vtan 0.3502 -0.0 0.9367
vtan 0.3502 -0.0 0.9367
vtan 0.1545 0.0 0.988
vtan 0.1546 -0.0 0.988
vtan -0.0474 0.0 0.9989
vtan -0.0475 0.0 0.9989
vtan -0.2475 -0.0 0.9689
vtan -0.2476 0.0 0.9689
vtan -0.4375 -0.0 0.8992
vtan -0.4375 -0.0 0.8992
vtan -0.6096 0.0 0.7927
vtan -0.6095 0.0 0.7928
vtan -0.7567 -0.0 0.6538
vtan -0.7567 -0.0 0.6538
vtan -0.8728 0.0 0.4881
vtan -0.8728 -0.0 0.4881
vtan -0.9531 0.0 0.3025
vtan -0.9532 0.0 0.3024
vtan -0.9952 -0.0 -0.0979
vtan 0.9789 0.0 -0.2045
vtan 0.999 0.0396 -0.0221
vtan 0.9176 -0.0 -0.3974
vtan 0.8189 0.0 -0.5739
vtan 0.6866 -0.0 -0.727
vtan 0.5261 0.0 -0.8504
vtan 0.3442 0.0 -0.9389
vtan 0.1482 -0.0 -0.989
vtan -0.054 0.0 -0.9985
vtan -0.2538 -0.0 -0.9673
vtan -0.4433 0.0 -0.8964
vtan -0.6146 -0.0 -0.7888
vtan -0.7609 0.0 -0.6489
vtan -0.8759 0.0 -0.4824
vtan -0.9551 -0.0 -0.2963
f 0/0/0/0 1/1/1/1 2/2/2/2 
f 0/0/0/0 2/2/2/2 3/3/3/3 
f 1/1/1/1 0/0/0/0 4/4/4/4 
f 1/1/1/1 4/4/4/4 5/5/5/5 
f 6/6/6/6 7/7/7/7 8/8/8/8 
f 6/6/6/6 8/8/8/8 9/9/9/9 
f 10/10/10/10 7/7/7/7 6/6/6/6 
f 10/10/10/10 6/6/6/6 11/11/11/11 
f 12/12/12/12 13/13/13/13 14/14/14/14 
f 12/12/12/12 14/14/14/14 15/15/15/15 
f 16/16/16/16 17/17/17/17 18/18/18/18 
f 16/16/16/16 18/18/18/18 19/19/19/19 
f 20/20/20/20 16/16/16/16 19/19/19/19 
f 20/20/20/20 19/19/19/19 21/21/21/21 
f 22/22/22/22 20/20/20/20 21/21/21/21 
f 22/22/22/22 21/21/21/21 23/23/23/23 
f 24/24/24/24 22/22/22/22 23/23/23/23 
f 24/24/24/24 23/23/23/23 25/25/25/25 
f 26/26/26/26 24/24/24/24 25/25/25/25 
f 26/26/26/26 25/25/25/25 27/27/27/27 
f 28/28/28/28 26/26/26/26 27/27/27/27 
f 28/28/28/28 27/27/27/27 29/29/18/29 
f 30/30/29/30 28/28/28/28 29/29/18/29 
f 30/30/29/30 29/29/18/29 31/31/30/31 
f 32/32/31/32 30/30/29/30 31/31/30/31 
f 32/32/31/32 31/31/30/31 33/33/32/33 
f 34/34/33/34 32/32/31/32 33/33/32/33 
f 34/34/33/34 33/33/32/33 35/35/18/35 
f 36/36/34/36 34/34/33/34 35/35/18/35 
f 36/36/34/36 35/35/18/35 37/37/18/37 
f 38/38/35/38 36/36/34/36 37/37/18/37 
f 38/38/35/38 37/37/18/37 39/39/36/39 
f 40/40/37/40 38/38/35/38 39/39/36/39 
f 40/40/37/40 39/39/36/39 41/41/38/41 
f 42/42/39/42 40/40/37/40 41/41/38/41 
f 42/42/39/42 41/41/38/41 43/43/40/43 
f 44/44/41/44 42/42/39/42 43/43/40/43 
f 44/44/41/44 43/43/40/43 45/45/42/45 
f 1/1/1/1 44/44/41/44 45/45/42/45 
f 1/1/1/1 45/45/42/45 2/2/2/2 
f 46/46/43/46 18/47/18/47 17/48/17/48 
f 46/46/43/46 17/48/17/48 47/49/44/49 
f 48/50/45/50 46/46/43/46 47/49/44/49 
f 48/50/45/50 47/49/44/49 49/51/46/51 
f 50/52/47/52 48/50/45/50 49/51/46/51 
f 50/52/47/52 49/51/46/51 51/53/48/53 
f 52/54/49/54 50/52/47/52 51/53/48/53 
f 52/54/49/54 51/53/48/53 53/55/50/55 
f 54/56/51/56 52/54/49/54 53/55/50/55 
f 54/56/51/56 53/55/50/55 55/57/52/57 
f 56/58/18/58 54/56/51/56 55/57/52/57 
f 56/58/18/58 55/57/52/57 57/59/53/59 
f 58/60/54/60 56/58/18/58 57/59/53/59 
f 58/60/54/60 57/59/53/59 59/61/55/61 
f 60/62/56/62 58/60/54/60 59/61/55/61 
f 60/62/56/62 59/61/55/61 61/63/57/63 
f 62/64/58/64 60/62/56/62 61/63/57/63 
f 62/64/58/64 61/63/57/63 63/65/59/65 
f 64/66/60/66 62/64/58/64 63/65/59/65 
f 64/66/60/66 63/65/59/65 65/67/61/67 
f 66/68/62/68 64/66/60/66 65/67/61/67 
f 66/68/62/68 65/67/61/67 67/69/63/69 
f 68/70/64/70 66/68/62/68 67/69/63/69 
f 68/70/64/70 67/69/63/69 69/71/65/71 
f 70/72/66/72 68/70/64/70 69/71/65/71 
f 70/72/66/72 69/71/65/71 71/73/67/73 
f 72/74/68/74 70/72/66/72 71/73/67/73 
f 72/74/68/74 71/73/67/73 73/75/69/75 
f 73/75/69/75 0/0/0/0 3/3/3/3 
f 73/75/69/75 3/3/3/3 72/74/68/74 
f 74/76/70/76 75/77/71/77 17/17/17/17 
f 74/76/70/76 17/17/17/17 16/16/16/16 
f 76/78/72/78 74/76/70/76 16/16/16/16 
f 76/78/72/78 16/16/16/16 20/20/20/20 
f 77/79/73/79 76/78/72/78 20/20/20/20 
f 77/79/73/79 20/20/20/20 22/22/22/22 
f 78/80/74/80 77/79/73/79 22/22/22/22 
f 78/80/74/80 22/22/22/22 24/24/24/24 
f 79/81/75/81 78/80/74/80 24/24/24/24 
f 79/81/75/81 24/24/24/24 26/26/26/26 
f 80/82/76/82 79/81/75/81 26/26/26/26 
f 80/82/76/82 26/26/26/26 28/28/28/28 
f 81/83/77/83 80/82/76/82 28/28/28/28 
f 81/83/77/83 28/28/28/28 30/30/29/30 
f 82/84/78/84 81/83/77/83 30/30/29/30 
f 82/84/78/84 30/30/29/30 32/32/31/32 
f 83/85/79/85 82/84/78/84 32/32/31/32 
f 83/85/79/85 32/32/31/32 34/34/33/34 
f 84/86/80/86 83/85/79/85 34/34/33/34 
f 84/86/80/86 34/34/33/34 36/36/34/36 
f 85/87/81/87 84/86/80/86 36/36/34/36 
f 85/87/81/87 36/36/34/36 38/38/35/38 
f 86/88/82/88 85/87/81/87 38/38/35/38 
f 86/88/82/88 38/38/35/38 40/40/37/40 
f 87/89/83/89 86/88/82/88 40/40/37/40 
f 87/89/83/89 40/40/37/40 42/42/39/42 
f 88/90/84/90 87/89/83/89 42/42/39/42 
f 88/90/84/90 42/42/39/42 44/44/41/44 
f 5/5/5/5 88/90/84/90 44/44/41/44 
f 5/5/5/5 44/44/41/44 1/1/1/1 
f 75/91/71/91 89/92/85/92 47/49/44/49 
f 75/91/71/91 47/49/44/49 17/48/17/48 
f 89/92/85/92 90/93/86/93 49/51/46/51 
f 89/92/85/92 49/51/46/51 47/49/44/49 
f 90/93/86/93 91/94/87/94 51/53/48/53 
f 90/93/86/93 51/53/48/53 49/51/46/51 
f 91/94/87/94 92/95/88/95 53/55/50/55 
f 91/94/87/94 53/55/50/55 51/53/48/53 
f 92/95/88/95 93/96/89/96 55/57/52/57 
f 92/95/88/95 55/57/52/57 53/55/50/55 
f 93/96/89/96 94/97/90/97 57/59/53/59 
f 93/96/89/96 57/59/53/59 55/57/52/57 
f 94/97/90/97 95/98/91/98 59/61/55/61 
f 94/97/90/97 59/61/55/61 57/59/53/59 
f 95/98/91/98 96/99/92/99 61/63/57/63 
f 95/98/91/98 61/63/57/63 59/61/55/61 
f 96/99/92/99 97/100/93/100 63/65/59/65 
f 96/99/92/99 63/65/59/65 61/63/57/63 
f 97/100/93/100 98/101/94/101 65/67/61/67 
f 97/100/93/100 65/67/61/67 63/65/59/65 
f 98/101/94/101 99/102/95/102 67/69/63/69 
f 98/101/94/101 67/69/63/69 65/67/61/67 
f 99/102/95/102 100/103/96/103 69/71/65/71 
f 99/102/95/102 69/71/65/71 67/69/63/69 
f 100/103/96/103 101/104/97/104 71/73/67/73 
f 100/103/96/103 71/73/67/73 69/71/65/71 
f 101/104/97/104 102/105/98/105 73/75/69/75 
f 101/104/97/104 73/75/69/75 71/73/67/73 
f 0/0/0/0 73/75/69/75 102/105/98/105 
f 0/0/0/0 102/105/98/105 4/4/4/4 
f 103/106/99/106 104/107/100/107 105/108/101/108 
f 103/106/99/106 105/108/101/108 106/109/102/109 
f 104/107/100/107 107/110/103/110 108/111/104/111 
f 104/107/100/107 108/111/104/111 105/108/101/108 
f 107/110/103/110 109/112/105/112 110/113/106/113 
f 107/110/103/110 110/113/106/113 108/111/104/111 
f 109/112/105/112 111/114/107/114 112/115/108/115 
f 109/112/105/112 112/115/108/115 110/113/106/113 
f 111/114/107/114 113/116/109/116 114/117/110/117 
f 111/114/107/114 114/117/110/117 112/115/108/115 
f 113/116/109/116 115/118/111/118 116/119/112/119 
f 113/116/109/116 116/119/112/119 114/117/110/117 
f 115/118/111/118 117/120/113/120 118/121/114/121 
f 115/118/111/118 118/121/114/121 116/119/112/119 
f 117/120/113/120 119/122/115/122 120/123/116/123 
f 117/120/113/120 120/123/116/123 118/121/114/121 
f 119/122/115/122 121/124/117/124 122/125/118/125 
f 119/122/115/122 122/125/118/125 120/123/116/123 
f 121/124/117/124 123/126/119/126 124/127/120/127 
f 121/124/117/124 124/127/120/127 122/125/118/125 
f 123/126/119/126 125/128/121/128 126/129/122/129 
f 123/126/119/126 126/129/122/129 124/127/120/127 
f 125/128/121/128 127/130/123/130 128/131/124/131 
f 125/128/121/128 128/131/124/131 126/129/122/129 
f 127/130/123/130 129/132/125/132 130/133/126/133 
f 127/130/123/130 130/133/126/133 128/131/124/131 
f 129/132/125/132 131/134/127/134 132/135/128/135 
f 129/132/125/132 132/135/128/135 130/133/126/133 
f 131/134/127/134 6/6/6/6 9/9/9/9 
f 131/134/127/134 9/9/9/9 132/135/128/135 
f 133/136/129/136 103/137/99/137 106/138/102/138 
f 133/136/129/136 106/138/102/138 134/139/130/139 
f 135/140/131/140 133/136/129/136 134/139/130/139 
f 135/140/131/140 134/139/130/139 136/141/132/141 
f 137/142/133/142 135/140/131/140 136/141/132/141 
f 137/142/133/142 136/141/132/141 138/143/134/143 
f 139/144/135/144 137/142/133/142 138/143/134/143 
f 139/144/135/144 138/143/134/143 140/145/136/145 
f 141/146/137/146 139/144/135/144 140/145/136/145 
f 141/146/137/146 140/145/136/145 142/147/138/147 
f 143/148/139/148 141/146/137/146 142/147/138/147 
f 143/148/139/148 142/147/138/147 144/149/140/149 
f 145/150/141/150 143/148/139/148 144/149/140/149 
f 145/150/141/150 144/149/140/149 146/151/142/151 
f 147/152/143/152 145/150/141/150 146/151/142/151 
f 147/152/143/152 146/151/142/151 148/153/144/153 
f 149/154/145/154 147/152/143/152 148/153/144/153 
f 149/154/145/154 148/153/144/153 150/155/146/155 
f 151/156/147/156 149/154/145/154 150/155/146/155 
f 151/156/147/156 150/155/146/155 152/157/148/157 
f 153/158/149/158 151/156/147/156 152/157/148/157 
f 153/158/149/158 152/157/148/157 154/159/150/159 
f 155/160/151/160 153/158/149/158 154/159/150/159 
f 155/160/151/160 154/159/150/159 156/161/152/161 
f 157/162/153/162 155/160/151/160 156/161/152/161 
f 157/162/153/162 156/161/152/161 158/163/154/163 
f 159/164/155/164 157/162/153/162 158/163/154/163 
f 159/164/155/164 158/163/154/163 160/165/156/165 
f 7/7/7/7 159/164/155/164 160/165/156/165 
f 7/7/7/7 160/165/156/165 8/8/8/8 
f 161/166/157/166 104/107/100/107 103/106/99/106 
f 161/166/157/166 103/106/99/106 162/167/158/167 
f 163/168/159/168 107/110/103/110 104/107/100/107 
f 163/168/159/168 104/107/100/107 161/166/157/166 
f 164/169/160/169 109/112/105/112 107/110/103/110 
f 164/169/160/169 107/110/103/110 163/168/159/168 
f 165/170/161/170 111/114/107/114 109/112/105/112 
f 165/170/161/170 109/112/105/112 164/169/160/169 
f 166/171/162/171 113/116/109/116 111/114/107/114 
f 166/171/162/171 111/114/107/114 165/170/161/170 
f 167/172/163/172 115/118/111/118 113/116/109/116 
f 167/172/163/172 113/116/109/116 166/171/162/171 
f 168/173/164/173 117/120/113/120 115/118/111/118 
f 168/173/164/173 115/118/111/118 167/172/163/172 
f 169/174/165/174 119/122/115/122 117/120/113/120 
f 169/174/165/174 117/120/113/120 168/173/164/173 
f 170/175/166/175 121/124/117/124 119/122/115/122 
f 170/175/166/175 119/122/115/122 169/174/165/174 
f 171/176/167/176 123/126/119/126 121/124/117/124 
f 171/176/167/176 121/124/117/124 170/175/166/175 
f 172/177/168/177 125/128/121/128 123/126/119/126 
f 172/177/168/177 123/126/119/126 171/176/167/176 
f 173/178/169/178 127/130/123/130 125/128/121/128 
f 173/178/169/178 125/128/121/128 172/177/168/177 
f 174/179/170/179 129/132/125/132 127/130/123/130 
f 174/179/170/179 127/130/123/130 173/178/169/178 
f 175/180/171/180 131/134/127/134 129/132/125/132 
f 175/180/171/180 129/132/125/132 174/179/170/179 
f 11/11/11/11 6/6/6/6 131/134/127/134 
f 11/11/11/11 131/134/127/134 175/180/171/180 
f 176/181/172/181 177/182/173/182 178/183/174/183 
f 176/181/172/181 178/183/174/183 179/184/175/184 
f 180/185/176/185 181/186/177/186 177/182/173/182 
f 180/185/176/185 177/182/173/182 176/181/172/181 
f 182/187/178/187 183/188/179/188 181/186/177/186 
f 182/187/178/187 181/186/177/186 180/185/176/185 
f 184/189/180/189 185/190/181/190 183/188/179/188 
f 184/189/180/189 183/188/179/188 182/187/178/187 
f 186/191/182/191 187/192/183/192 185/190/181/190 
f 186/191/182/191 185/190/181/190 184/189/180/189 
f 188/193/184/193 189/194/185/194 187/192/183/192 
f 188/193/184/193 187/192/183/192 186/191/182/191 
f 190/195/186/195 191/196/187/196 189/194/185/194 
f 190/195/186/195 189/194/185/194 188/193/184/193 
f 192/197/188/197 193/198/189/198 191/196/187/196 
f 192/197/188/197 191/196/187/196 190/195/186/195 
f 194/199/190/199 195/200/191/200 193/198/189/198 
f 194/199/190/199 193/198/189/198 192/197/188/197 
f 196/201/192/201 197/202/193/202 195/200/191/200 
f 196/201/192/201 195/200/191/200 194/199/190/199 
f 198/203/194/203 199/204/195/204 197/202/193/202 
f 198/203/194/203 197/202/193/202 196/201/192/201 
f 200/205/196/205 201/206/197/206 199/204/195/204 
f 200/205/196/205 199/204/195/204 198/203/194/203 
f 202/207/198/207 203/208/199/208 201/206/197/206 
f 202/207/198/207 201/206/197/206 200/205/196/205 
f 204/209/200/209 205/210/201/210 203/208/199/208 
f 204/209/200/209 203/208/199/208 202/207/198/207 
f 206/211/202/211 13/13/13/13 205/210/201/210 
f 206/211/202/211 205/210/201/210 204/209/200/209 
f 207/212/203/212 208/213/204/213 178/214/174/214 
f 207/212/203/212 178/214/174/214 209/215/205/215 
f 210/216/206/216 211/217/207/217 208/213/204/213 
f 210/216/206/216 208/213/204/213 207/212/203/212 
f 212/218/208/218 213/219/209/219 211/217/207/217 
f 212/218/208/218 211/217/207/217 210/216/206/216 
f 214/220/210/220 215/221/211/221 213/219/209/219 
f 214/220/210/220 213/219/209/219 212/218/208/218 
f 216/222/212/222 217/223/213/223 215/221/211/221 
f 216/222/212/222 215/221/211/221 214/220/210/220 
f 218/224/214/224 219/225/215/225 217/223/213/223 
f 218/224/214/224 217/223/213/223 216/222/212/222 
f 220/226/216/226 221/227/217/227 219/225/215/225 
f 220/226/216/226 219/225/215/225 218/224/214/224 
f 222/228/218/228 223/229/219/229 221/227/217/227 
f 222/228/218/228 221/227/217/227 220/226/216/226 
f 224/230/220/230 225/231/221/231 223/229/219/229 
f 224/230/220/230 223/229/219/229 222/228/218/228 
f 226/232/222/232 227/233/223/233 225/231/221/231 
f 226/232/222/232 225/231/221/231 224/230/220/230 
f 228/234/224/234 229/235/225/235 227/233/223/233 
f 228/234/224/234 227/233/223/233 226/232/222/232 
f 230/236/226/236 231/237/227/237 229/235/225/235 
f 230/236/226/236 229/235/225/235 228/234/224/234 
f 232/238/228/238 233/239/229/239 231/237/227/237 
f 232/238/228/238 231/237/227/237 230/236/226/236 
f 234/240/230/240 235/241/231/241 233/239/229/239 
f 234/240/230/240 233/239/229/239 232/238/228/238 
f 15/15/15/15 14/14/14/14 235/241/231/241 
f 15/15/15/15 235/241/231/241 234/240/230/240 
f 236/242/232/242 89/92/85/92 75/91/71/91 
f 236/242/232/242 75/91/71/91 209/243/205/243 
f 237/244/233/244 90/93/86/93 89/92/85/92 
f 237/244/233/244 89/92/85/92 236/242/232/242 
f 238/245/234/245 91/94/87/94 90/93/86/93 
f 238/245/234/245 90/93/86/93 237/244/233/244 
f 239/246/235/246 92/95/88/95 91/94/87/94 
f 239/246/235/246 91/94/87/94 238/245/234/245 
f 240/247/236/247 93/96/89/96 92/95/88/95 
f 240/247/236/247 92/95/88/95 239/246/235/246 
f 241/248/237/248 94/97/90/97 93/96/89/96 
f 241/248/237/248 93/96/89/96 240/247/236/247 
f 242/249/238/249 95/98/91/98 94/97/90/97 
f 242/249/238/249 94/97/90/97 241/248/237/248 
f 243/250/239/250 96/99/92/99 95/98/91/98 
f 243/250/239/250 95/98/91/98 242/249/238/249 
f 244/251/240/251 97/100/93/100 96/99/92/99 
f 244/251/240/251 96/99/92/99 243/250/239/250 
f 245/252/241/252 98/101/94/101 97/100/93/100 
f 245/252/241/252 97/100/93/100 244/251/240/251 
f 246/253/242/253 99/102/95/102 98/101/94/101 
f 246/253/242/253 98/101/94/101 245/252/241/252 
f 247/254/243/254 100/103/96/103 99/102/95/102 
f 247/254/243/254 99/102/95/102 246/253/242/253 
f 248/255/244/255 101/104/97/104 100/103/96/103 
f 248/255/244/255 100/103/96/103 247/254/243/254 
f 249/256/245/256 102/105/98/105 101/104/97/104 
f 249/256/245/256 101/104/97/104 248/255/244/255 
f 12/12/12/12 4/4/4/4 102/105/98/105 
f 12/12/12/12 102/105/98/105 249/256/245/256 
f 13/13/13/13 206/211/202/211 250/257/246/257 
f 13/13/13/13 250/257/246/257 14/14/14/14 
f 208/213/204/213 251/258/247/258 179/259/175/259 
f 208/213/204/213 179/259/175/259 178/214/174/214 
f 211/217/207/217 252/260/248/260 251/258/247/258 
f 211/217/207/217 251/258/247/258 208/213/204/213 
f 213/219/209/219 253/261/249/261 252/260/248/260 
f 213/219/209/219 252/260/248/260 211/217/207/217 
f 215/221/211/221 254/262/250/262 253/261/249/261 
f 215/221/211/221 253/261/249/261 213/219/209/219 
f 217/223/213/223 255/263/251/263 254/262/250/262 
f 217/223/213/223 254/262/250/262 215/221/211/221 
f 219/225/215/225 256/264/252/264 255/263/251/263 
f 219/225/215/225 255/263/251/263 217/223/213/223 
f 221/227/217/227 257/265/253/265 256/264/252/264 
f 221/227/217/227 256/264/252/264 219/225/215/225 
f 223/229/219/229 258/266/254/266 257/265/253/265 
f 223/229/219/229 257/265/253/265 221/227/217/227 
f 225/231/221/231 259/267/255/267 258/266/254/266 
f 225/231/221/231 258/266/254/266 223/229/219/229 
f 227/233/223/233 260/268/256/268 259/267/255/267 
f 227/233/223/233 259/267/255/267 225/231/221/231 
f 229/235/225/235 261/269/257/269 260/268/256/268 
f 229/235/225/235 260/268/256/268 227/233/223/233 
f 231/237/227/237 262/270/258/270 261/269/257/269 
f 231/237/227/237 261/269/257/269 229/235/225/235 
f 233/239/229/239 263/271/259/271 262/270/258/270 
f 233/239/229/239 262/270/258/270 231/237/227/237 
f 235/241/231/241 264/272/260/272 263/271/259/271 
f 235/241/231/241 263/271/259/271 233/239/229/239 
f 14/14/14/14 250/257/246/257 264/272/260/272 
f 14/14/14/14 264/272/260/272 235/241/231/241 
f 265/273/261/273 176/181/172/181 179/184/175/184 
f 265/273/261/273 179/184/175/184 266/274/262/274 
f 267/275/263/275 180/185/176/185 176/181/172/181 
f 267/275/263/275 176/181/172/181 265/273/261/273 
f 268/276/264/276 182/187/178/187 180/185/176/185 
f 268/276/264/276 180/185/176/185 267/275/263/275 
f 269/277/265/277 184/189/180/189 182/187/178/187 
f 269/277/265/277 182/187/178/187 268/276/264/276 
f 270/278/266/278 186/191/182/191 184/189/180/189 
f 270/278/266/278 184/189/180/189 269/277/265/277 
f 271/279/267/279 188/193/184/193 186/191/182/191 
f 271/279/267/279 186/191/182/191 270/278/266/278 
f 272/280/268/280 190/195/186/195 188/193/184/193 
f 272/280/268/280 188/193/184/193 271/279/267/279 
f 273/281/269/281 192/197/188/197 190/195/186/195 
f 273/281/269/281 190/195/186/195 272/280/268/280 
f 274/282/270/282 194/199/190/199 192/197/188/197 
f 274/282/270/282 192/197/188/197 273/281/269/281 
f 275/283/271/283 196/201/192/201 194/199/190/199 
f 275/283/271/283 194/199/190/199 274/282/270/282 
f 276/284/272/284 198/203/194/203 196/201/192/201 
f 276/284/272/284 196/201/192/201 275/283/271/283 
f 277/285/273/285 200/205/196/205 198/203/194/203 
f 277/285/273/285 198/203/194/203 276/284/272/284 
f 278/286/274/286 202/207/198/207 200/205/196/205 
f 278/286/274/286 200/205/196/205 277/285/273/285 
f 279/287/275/287 204/209/200/209 202/207/198/207 
f 279/287/275/287 202/207/198/207 278/286/274/286 
f 280/288/276/288 206/211/202/211 204/209/200/209 
f 280/288/276/288 204/209/200/209 279/287/275/287 
f 280/288/276/289 10/10/10/290 11/11/11/291 
f 280/288/276/289 11/11/11/291 281/289/277/292 
f 282/290/278/293 161/166/157/294 162/167/158/295 
f 282/290/278/293 162/167/158/295 266/291/262/296 
f 283/292/279/297 163/168/159/298 161/166/157/294 
f 283/292/279/297 161/166/157/294 282/290/278/293 
f 284/293/280/299 164/169/160/300 163/168/159/298 
f 284/293/280/299 163/168/159/298 283/292/279/297 
f 285/294/281/301 165/170/161/302 164/169/160/300 
f 285/294/281/301 164/169/160/300 284/293/280/299 
f 286/295/282/303 166/171/162/304 165/170/161/302 
f 286/295/282/303 165/170/161/302 285/294/281/301 
f 287/296/283/305 167/172/163/306 166/171/162/304 
f 287/296/283/305 166/171/162/304 286/295/282/303 
f 288/297/284/307 168/173/164/308 167/172/163/306 
f 288/297/284/307 167/172/163/306 287/296/283/305 
f 289/298/285/309 169/174/165/310 168/173/164/308 
f 289/298/285/309 168/173/164/308 288/297/284/307 
f 290/299/286/311 170/175/166/312 169/174/165/310 
f 290/299/286/311 169/174/165/310 289/298/285/309 
f 291/300/287/313 171/176/167/314 170/175/166/312 
f 291/300/287/313 170/175/166/312 290/299/286/311 
f 292/301/288/315 172/177/168/316 171/176/167/314 
f 292/301/288/315 171/176/167/314 291/300/287/313 
f 293/302/289/317 173/178/169/318 172/177/168/316 
f 293/302/289/317 172/177/168/316 292/301/288/315 
f 294/303/290/319 174/179/170/320 173/178/169/318 
f 294/303/290/319 173/178/169/318 293/302/289/317 
f 295/304/291/321 175/180/171/322 174/179/170/320 
f 295/304/291/321 174/179/170/320 294/303/290/319 
f 281/289/277/292 11/11/11/291 175/180/171/322 
f 281/289/277/292 175/180/171/322 295/304/291/321 
f 133/136/129/136 296/305/292/323 162/306/158/324 
f 133/136/129/136 162/306/158/324 103/137/99/137 
f 135/140/131/140 297/307/293/325 296/305/292/323 
f 135/140/131/140 296/305/292/323 133/136/129/136 
f 137/142/133/142 298/308/294/326 297/307/293/325 
f 137/142/133/142 297/307/293/325 135/140/131/140 
f 139/144/135/144 299/309/295/327 298/308/294/326 
f 139/144/135/144 298/308/294/326 137/142/133/142 
f 141/146/137/146 300/310/296/328 299/309/295/327 
f 141/146/137/146 299/309/295/327 139/144/135/144 
f 143/148/139/148 301/311/297/329 300/310/296/328 
f 143/148/139/148 300/310/296/328 141/146/137/146 
f 145/150/141/150 302/312/298/330 301/311/297/329 
f 145/150/141/150 301/311/297/329 143/148/139/148 
f 147/152/143/152 303/313/299/331 302/312/298/330 
f 147/152/143/152 302/312/298/330 145/150/141/150 
f 149/154/145/154 304/314/300/332 303/313/299/331 
f 149/154/145/154 303/313/299/331 147/152/143/152 
f 151/156/147/156 305/315/301/333 304/314/300/332 
f 151/156/147/156 304/314/300/332 149/154/145/154 
f 153/158/149/158 306/316/302/334 305/315/301/333 
f 153/158/149/158 305/315/301/333 151/156/147/156 
f 155/160/151/160 307/317/303/335 306/316/302/334 
f 155/160/151/160 306/316/302/334 153/158/149/158 
f 157/162/153/162 308/318/304/336 307/317/303/335 
f 157/162/153/162 307/317/303/335 155/160/151/160 
f 159/164/155/164 309/319/305/337 308/318/304/336 
f 159/164/155/164 308/318/304/336 157/162/153/162 
f 7/7/7/7 10/10/10/10 309/319/305/337 
f 7/7/7/7 309/319/305/337 159/164/155/164 
f 296/305/292/338 265/273/261/339 266/274/262/340 
f 296/305/292/338 266/274/262/340 162/306/158/341 
f 297/307/293/342 267/275/263/343 265/273/261/339 
f 297/307/293/342 265/273/261/339 296/305/292/338 
f 298/308/294/344 268/276/264/345 267/275/263/343 
f 298/308/294/344 267/275/263/343 297/307/293/342 
f 299/309/295/346 269/277/265/347 268/276/264/345 
f 299/309/295/346 268/276/264/345 298/308/294/344 
f 300/310/296/348 270/278/266/349 269/277/265/347 
f 300/310/296/348 269/277/265/347 299/309/295/346 
f 301/311/297/350 271/279/267/351 270/278/266/349 
f 301/311/297/350 270/278/266/349 300/310/296/348 
f 302/312/298/352 272/280/268/353 271/279/267/351 
f 302/312/298/352 271/279/267/351 301/311/297/350 
f 303/313/299/354 273/281/269/355 272/280/268/353 
f 303/313/299/354 272/280/268/353 302/312/298/352 
f 304/314/300/356 274/282/270/357 273/281/269/355 
f 304/314/300/356 273/281/269/355 303/313/299/354 
f 305/315/301/358 275/283/271/359 274/282/270/357 
f 305/315/301/358 274/282/270/357 304/314/300/356 
f 306/316/302/360 276/284/272/361 275/283/271/359 
f 306/316/302/360 275/283/271/359 305/315/301/358 
f 307/317/303/362 277/285/273/363 276/284/272/361 
f 307/317/303/362 276/284/272/361 306/316/302/360 
f 308/318/304/364 278/286/274/365 277/285/273/363 
f 308/318/304/364 277/285/273/363 307/317/303/362 
f 309/319/305/366 279/287/275/367 278/286/274/365 
f 309/319/305/366 278/286/274/365 308/318/304/364 
f 10/10/10/290 280/288/276/289 279/287/275/367 
f 10/10/10/290 279/287/275/367 309/319/305/366 
f 206/211/202/211 280/288/276/288 281/289/277/368 
f 206/211/202/211 281/289/277/368 250/257/246/257 
f 251/258/247/258 282/290/278/369 266/291/262/370 
f 251/258/247/258 266/291/262/370 179/259/175/259 
f 252/260/248/260 283/292/279/371 282/290/278/369 
f 252/260/248/260 282/290/278/369 251/258/247/258 
f 253/261/249/261 284/293/280/372 283/292/279/371 
f 253/261/249/261 283/292/279/371 252/260/248/260 
f 254/262/250/262 285/294/281/373 284/293/280/372 
f 254/262/250/262 284/293/280/372 253/261/249/261 
f 255/263/251/263 286/295/282/374 285/294/281/373 
f 255/263/251/263 285/294/281/373 254/262/250/262 
f 256/264/252/264 287/296/283/375 286/295/282/374 
f 256/264/252/264 286/295/282/374 255/263/251/263 
f 257/265/253/265 288/297/284/376 287/296/283/375 
f 257/265/253/265 287/296/283/375 256/264/252/264 
f 258/266/254/266 289/298/285/377 288/297/284/376 
f 258/266/254/266 288/297/284/376 257/265/253/265 
f 259/267/255/267 290/299/286/378 289/298/285/377 
f 259/267/255/267 289/298/285/377 258/266/254/266 
f 260/268/256/268 291/300/287/379 290/299/286/378 
f 260/268/256/268 290/299/286/378 259/267/255/267 
f 261/269/257/269 292/301/288/380 291/300/287/379 
f 261/269/257/269 291/300/287/379 260/268/256/268 
f 262/270/258/270 293/302/289/381 292/301/288/380 
f 262/270/258/270 292/301/288/380 261/269/257/269 
f 263/271/259/271 294/303/290/382 293/302/289/381 
f 263/271/259/271 293/302/289/381 262/270/258/270 
f 264/272/260/272 295/304/291/383 294/303/290/382 
f 264/272/260/272 294/303/290/382 263/271/259/271 
f 250/257/246/257 281/289/277/368 295/304/291/383 
f 250/257/246/257 295/304/291/383 264/272/260/272 
f 4/4/4/4 12/12/12/12 15/15/15/15 
f 4/4/4/4 15/15/15/15 5/5/5/5 
f 74/76/70/76 207/212/203/212 209/215/205/215 
f 74/76/70/76 209/215/205/215 75/77/71/77 
f 76/78/72/78 210/216/206/216 207/212/203/212 
f 76/78/72/78 207/212/203/212 74/76/70/76 
f 77/79/73/79 212/218/208/218 210/216/206/216 
f 77/79/73/79 210/216/206/216 76/78/72/78 
f 78/80/74/80 214/220/210/220 212/218/208/218 
f 78/80/74/80 212/218/208/218 77/79/73/79 
f 79/81/75/81 216/222/212/222 214/220/210/220 
f 79/81/75/81 214/220/210/220 78/80/74/80 
f 80/82/76/82 218/224/214/224 216/222/212/222 
f 80/82/76/82 216/222/212/222 79/81/75/81 
f 81/83/77/83 220/226/216/226 218/224/214/224 
f 81/83/77/83 218/224/214/224 80/82/76/82 
f 82/84/78/84 222/228/218/228 220/226/216/226 
f 82/84/78/84 220/226/216/226 81/83/77/83 
f 83/85/79/85 224/230/220/230 222/228/218/228 
f 83/85/79/85 222/228/218/228 82/84/78/84 
f 84/86/80/86 226/232/222/232 224/230/220/230 
f 84/86/80/86 224/230/220/230 83/85/79/85 
f 85/87/81/87 228/234/224/234 226/232/222/232 
f 85/87/81/87 226/232/222/232 84/86/80/86 
f 86/88/82/88 230/236/226/236 228/234/224/234 
f 86/88/82/88 228/234/224/234 85/87/81/87 
f 87/89/83/89 232/238/228/238 230/236/226/236 
f 87/89/83/89 230/236/226/236 86/88/82/88 
f 88/90/84/90 234/240/230/240 232/238/228/238 
f 88/90/84/90 232/238/228/238 87/89/83/89 
f 5/5/5/5 15/15/15/15 234/240/230/240 
f 5/5/5/5 234/240/230/240 88/90/84/90 
f 177/182/173/182 236/242/232/242 209/243/205/243 
f 177/182/173/182 209/243/205/243 178/183/174/183 
f 181/186/177/186 237/244/233/244 236/242/232/242 
f 181/186/177/186 236/242/232/242 177/182/173/182 
f 183/188/179/188 238/245/234/245 237/244/233/244 
f 183/188/179/188 237/244/233/244 181/186/177/186 
f 185/190/181/190 239/246/235/246 238/245/234/245 
f 185/190/181/190 238/245/234/245 183/188/179/188 
f 187/192/183/192 240/247/236/247 239/246/235/246 
f 187/192/183/192 239/246/235/246 185/190/181/190 
f 189/194/185/194 241/248/237/248 240/247/236/247 
f 189/194/185/194 240/247/236/247 187/192/183/192 
f 191/196/187/196 242/249/238/249 241/248/237/248 
f 191/196/187/196 241/248/237/248 189/194/185/194 
f 193/198/189/198 243/250/239/250 242/249/238/249 
f 193/198/189/198 242/249/238/249 191/196/187/196 
f 195/200/191/200 244/251/240/251 243/250/239/250 
f 195/200/191/200 243/250/239/250 193/198/189/198 
f 197/202/193/202 245/252/241/252 244/251/240/251 
f 197/202/193/202 244/251/240/251 195/200/191/200 
f 199/204/195/204 246/253/242/253 245/252/241/252 
f 199/204/195/204 245/252/241/252 197/202/193/202 
f 201/206/197/206 247/254/243/254 246/253/242/253 
f 201/206/197/206 246/253/242/253 199/204/195/204 
f 203/208/199/208 248/255/244/255 247/254/243/254 
f 203/208/199/208 247/254/243/254 201/206/197/206 
f 205/210/201/210 249/256/245/256 248/255/244/255 
f 205/210/201/210 248/255/244/255 203/208/199/208 
f 13/13/13/13 12/12/12/12 249/256/245/256 
f 13/13/13/13 249/256/245/256 205/210/201/210 
