v -1082.3611 1302.449 314.8017
v -1044.7346 1307.6422 250.6596
v 934.5433 1307.6178 250.6251
v 993.5328 1302.418 314.8323
v 934.5327 1307.6155 -331.6945
v 993.5411 1302.4076 -404.0795
v -1044.7207 1307.6411 -331.7242
v -1082.3706 1302.4335 -404.0525
v -1082.4391 911.7277 314.9173
v -1082.4391 911.7278 -404.1629
v 993.6124 911.7277 314.9173
v 872.4121 914.6441 183.1716
v -1004.5605 914.6441 183.1716
v 993.6124 911.7278 -404.1629
v 872.4121 914.6442 -255.959
v -1004.5605 914.6442 -255.959
v 935.0042 1314.4901 251.0364
v -1045.4917 1314.4901 251.0364
v -1086.4229 1316.3884 318.901
v 997.5962 1330.7693 318.901
v 935.0042 1314.4901 -332.0527
v 997.5962 1330.7694 -408.1466
v -1086.4229 1316.3885 -408.1466
v -1045.4917 1314.4901 -332.0527
v -1086.4229 907.744 318.9009
v -1086.4229 907.7441 -408.1466
v 872.4121 907.7441 183.1716
v 997.5961 907.744 318.9009
v -1004.5605 907.7441 183.1716
v 872.4121 907.7441 -255.959
v 997.5961 907.7441 -408.1466
v -1004.5605 907.7441 -255.959
vt 0.8033 2.3417
vt 0.8899 2.4853
vt 5.0805 2.4853
vt 5.213 2.3417
vt 5.0805 3.7191
vt 5.213 3.8801
vt 0.8899 3.7191
vt 0.8033 3.8801
vt 0.8033 1.5384
vt 5.213 1.5384
vt 4.9481 1.2512
vt 0.9765 1.2512
vt 5.213 0.0
vt 4.9481 0.322
vt 0.8033 0.0
vt 0.9765 0.322
vt 0.0 2.3417
vt 0.0 3.8801
vt 6.0163 3.8801
vt 6.0163 2.3417
vt 0.8033 4.6834
vt 5.213 4.6834
vn -0.0 -0.9967 -0.0807
vn -0.0 -0.9967 -0.0807
vn -0.0878 -0.9961 0.0
vn -0.0879 -0.9961 0.0
vn -0.0 -0.9974 0.0718
vn -0.0 -0.9974 0.0717
vn 0.137 -0.9906 0.0
vn 0.1367 -0.9906 0.0
vn 0.0 0.9998 0.0221
vn 0.0 0.9998 0.0221
vn 0.0241 0.9997 0.0
vn 0.0241 0.9997 0.0
vn 0.0 0.9998 -0.0197
vn 0.0 0.9998 -0.0197
vn -0.0374 0.9993 0.0
vn -0.0374 0.9993 0.0
vn -0.0035 0.9913 -0.1319
vn -0.0035 0.9913 -0.1319
vn -0.0035 0.9913 -0.1319
vn -0.0035 0.9912 -0.1325
vn -0.0035 0.9912 -0.1325
vn -0.0035 0.9912 -0.1325
vn -0.2517 0.9678 0.0
vn -0.2517 0.9678 0.0
vn -0.0035 0.993 0.118
vn -0.0035 0.993 0.1181
vn -0.0035 0.993 0.1181
vn -0.0035 0.993 0.1181
vn -0.0035 0.993 0.1181
vn -0.0035 0.993 0.1181
vn 0.0463 0.9989 0.0
vn 0.0463 0.9989 0.0
vn 0.0 -1.0 0.0
vn 0.0 -1.0 -0.0
vn -0.0 -1.0 -0.0
vn -0.0 -1.0 -0.0
vn 0.0 -1.0 -0.0
vn 0.0 -1.0 0.0
vn 0.0 -1.0 -0.0
vn 0.0 -1.0 -0.0
vn 0.5838 -0.5597 0.5881
vn 0.5848 -0.5581 -0.5886
vn 0.5752 0.5827 -0.5741
vn 0.5755 0.5822 0.5743
vn -0.585 -0.5613 -0.5855
vn -0.5752 0.5818 -0.575
vn -0.5841 -0.5623 0.5853
vn -0.5754 0.5815 0.5751
vn -0.5774 -0.5774 0.5773
vn -0.589 0.5939 0.5481
vn -0.5883 0.5929 -0.5499
vn -0.5773 -0.5774 -0.5773
vn 0.5773 -0.5774 0.5774
vn 0.5412 0.6169 0.5714
vn 0.5445 0.6143 -0.5711
vn 0.5773 -0.5774 -0.5773
vn 0.3821 -0.852 -0.3579
vn 0.2954 0.9013 -0.3168
vn -0.3828 0.8641 -0.3268
vn -0.3546 -0.8663 -0.3517
vn -0.3874 0.8646 0.3201
vn -0.354 -0.8685 0.347
vn 0.2979 0.9025 0.311
vn 0.3816 -0.854 0.3537
vn -0.2923 0.9101 -0.2936
vn -0.3014 -0.9046 -0.3015
vn 0.3015 -0.9045 -0.3015
vn 0.2853 0.9118 -0.2952
vn -0.292 0.9099 0.2948
vn -0.3015 -0.9045 0.3015
vn 0.2849 0.9116 0.2963
vn 0.3015 -0.9046 0.3015
vtan 1.0 -0.0 -0.0 -1.0
vtan 1.0 -0.0 0.0 -1.0
vtan 1.0 -0.0 0.0 -1.0
vtan 1.0 -0.0 0.0 -1.0
vtan 0.9943 -0.0877 -0.0601 -1.0
vtan 0.9943 -0.0877 -0.0601 -1.0
vtan 0.9943 -0.0877 -0.0601 -1.0
vtan 0.995 -0.0878 0.0481 -1.0
vtan 0.995 -0.0878 0.0481 -1.0
vtan 0.995 -0.0878 0.0481 -1.0
vtan 1.0 -0.0 0.0 -1.0
vtan 1.0 -0.0 0.0 -1.0
vtan 1.0 -0.0 -0.0 -1.0
vtan 1.0 -0.0 -0.0 -1.0
vtan 1.0 -0.0 -0.0 -1.0
vtan 0.9877 0.1366 -0.0762 -1.0
vtan 0.9877 0.1366 -0.0762 -1.0
vtan 0.9877 0.1366 -0.0762 -1.0
vtan 0.9861 0.1361 0.0954 -1.0
vtan 0.9861 0.1361 0.0954 -1.0
vtan 0.9861 0.1361 0.0954 -1.0
vtan 1.0 0.0 0.0 -1.0
vtan 0.9995 -0.0241 0.019 -1.0
vtan 0.9995 -0.0241 0.019 -1.0
vtan 0.9995 -0.0241 0.019 -1.0
vtan 0.9992 -0.024 -0.0328 -1.0
vtan 0.9992 -0.024 -0.0328 -1.0
vtan 0.9992 -0.024 -0.0328 -1.0
vtan 1.0 0.0 0.0 -1.0
vtan 0.998 0.0374 0.051 -1.0
vtan 0.998 0.0374 0.051 -1.0
vtan 0.998 0.0374 0.051 -1.0
vtan 0.9989 0.0374 -0.0296 -1.0
vtan 0.9989 0.0374 -0.0296 -1.0
vtan 0.9989 0.0374 -0.0296 -1.0
vtan 1.0 0.0035 -0.0005 1.0
vtan 1.0 0.0035 -0.0005 1.0
vtan 1.0 0.0035 -0.0005 1.0
vtan 1.0 0.0036 0.0004 1.0
vtan 1.0 0.0036 0.0004 1.0
vtan 1.0 0.0036 0.0004 1.0
vtan 0.9678 0.2517 -0.0 1.0
vtan 0.9678 0.2517 -0.0 1.0
vtan 0.9678 0.2517 -0.0001 1.0
vtan 0.9678 0.2517 -0.0001 1.0
vtan 0.9678 0.2517 -0.0001 1.0
vtan 1.0 0.0035 0.0004 1.0
vtan 1.0 0.0035 0.0004 1.0
vtan 1.0 0.0035 0.0004 1.0
vtan 1.0 0.0036 -0.0004 1.0
vtan 1.0 0.0036 -0.0004 1.0
vtan 1.0 0.0036 -0.0004 1.0
vtan 0.9989 -0.0463 0.0 1.0
vtan 0.9989 -0.0463 0.0 1.0
vtan 0.9989 -0.0463 0.0 1.0
vtan 0.9989 -0.0463 0.0001 1.0
vtan 0.9989 -0.0463 0.0001 1.0
vtan 0.9989 -0.0463 0.0001 1.0
vtan 1.0 -0.0 -0.0001 1.0
vtan 1.0 -0.0 -0.0001 1.0
vtan 1.0 -0.0 0.0 1.0
vtan 1.0 -0.0 0.0 1.0
vtan 1.0 0.0 0.0001 1.0
vtan 1.0 0.0 -0.0 1.0
vtan 1.0 0.0 -0.0 1.0
vtan 0.3943 0.8287 0.3972 -1.0
vtan 0.3933 0.8298 -0.396 -1.0
vtan -0.4124 0.8127 0.4116 -1.0
vtan -0.4122 0.813 -0.4112 -1.0
vtan 0.8112 0.4024 0.4244 -1.0
vtan 0.8111 -0.4048 -0.4223 -1.0
vtan 0.818 0.4091 -0.4043 -1.0
vtan 0.818 -0.4097 0.4037 -1.0
vtan 0.3972 -0.8269 -0.3979 -1.0
vtan -0.4113 -0.8135 0.4111 -1.0
vtan -0.4114 -0.8133 -0.4114 -1.0
vtan 0.3967 -0.8276 0.3971 -1.0
vtan 0.8119 0.4025 -0.4229 -1.0
vtan 0.8178 -0.4097 -0.4041 -1.0
vtan 0.8179 0.4091 0.4046 -1.0
vtan 0.8116 -0.4047 0.4213 -1.0
vtan -0.4083 0.8165 0.4083 1.0
vtan 0.4347 0.8046 -0.4046 1.0
vtan 0.4331 0.8053 0.4049 1.0
vtan -0.4083 0.8165 -0.4083 1.0
vtan 0.8165 0.4121 -0.4044 1.0
vtan 0.8409 -0.3932 -0.3719 1.0
vtan 0.8082 0.4332 0.3991 1.0
vtan 0.8165 -0.4083 0.4082 1.0
vtan 0.4239 -0.7891 -0.4446 1.0
vtan 0.4242 -0.787 0.4479 1.0
vtan -0.4083 -0.8165 -0.4083 1.0
vtan -0.4083 -0.8165 0.4083 1.0
vtan 0.8086 0.4317 -0.3997 1.0
vtan 0.8388 -0.3949 0.3749 1.0
vtan 0.8165 0.4121 0.4044 1.0
vtan 0.8165 -0.4082 -0.4082 1.0
f 0/0/0/0 1/1/0/0 2/2/0/0 
f 0/0/1/1 2/2/1/2 3/3/1/3 
f 3/3/2/4 2/2/2/5 4/4/2/6 
f 3/3/3/7 4/4/3/8 5/5/3/9 
f 4/4/4/10 6/6/4/11 7/7/4/10 
f 4/4/5/12 7/7/5/13 5/5/5/14 
f 0/0/6/15 7/7/6/16 6/6/6/17 
f 0/0/7/18 6/6/7/19 1/1/7/20 
f 8/8/8/21 10/9/8/21 11/10/8/21 
f 8/8/9/21 11/10/9/21 12/11/9/21 
f 10/9/10/22 13/12/10/23 14/13/10/24 
f 10/9/11/25 14/13/11/26 11/10/11/27 
f 9/14/12/21 15/15/12/21 14/13/12/28 
f 9/14/13/28 14/13/13/21 13/12/13/21 
f 8/8/14/29 12/11/14/30 15/15/14/31 
f 8/8/15/32 15/15/15/33 9/14/15/34 
f 16/2/16/35 17/1/17/36 18/0/18/37 
f 16/2/19/38 18/0/20/39 19/3/21/40 
f 20/4/22/41 16/2/22/42 19/3/22/41 
f 20/4/23/43 19/3/23/44 21/5/23/45 
f 22/7/24/46 23/6/25/47 20/4/26/48 
f 22/7/27/49 20/4/28/50 21/5/29/51 
f 18/0/30/52 17/1/30/53 23/6/30/54 
f 18/0/31/55 23/6/31/56 22/7/31/57 
f 26/10/32/21 27/9/32/21 24/8/32/21 
f 26/10/33/21 24/8/33/21 28/11/33/21 
f 29/13/34/58 30/12/34/59 27/9/34/58 
f 29/13/35/60 27/9/35/60 26/10/35/61 
f 25/14/36/21 30/12/36/21 29/13/36/21 
f 25/14/37/21 29/13/37/21 31/15/37/21 
f 24/8/38/62 25/14/38/62 31/15/38/62 
f 24/8/39/63 31/15/39/64 28/11/39/64 
f 7/7/40/65 0/0/41/66 8/16/42/67 
f 7/7/40/65 8/16/42/67 9/17/43/68 
f 0/0/41/69 3/3/44/70 10/9/45/71 
f 0/0/41/69 10/9/45/71 8/8/42/72 
f 5/5/46/73 13/18/47/74 10/19/45/75 
f 5/5/46/73 10/19/45/75 3/3/44/76 
f 7/7/40/77 9/20/43/78 13/21/47/79 
f 7/7/40/77 13/21/47/79 5/5/46/80 
f 24/16/48/81 18/0/49/82 22/7/50/83 
f 24/16/48/81 22/7/50/83 25/17/51/84 
f 27/9/52/85 19/3/53/86 18/0/49/87 
f 27/9/52/85 18/0/49/87 24/8/48/88 
f 21/5/54/89 19/3/53/90 27/19/52/91 
f 21/5/54/89 27/19/52/91 30/18/55/92 
f 22/7/50/93 21/5/54/94 30/21/55/95 
f 22/7/50/93 30/21/55/95 25/20/51/96 
f 1/1/56/21 17/1/57/21 16/2/58/21 
f 1/1/56/21 16/2/58/21 2/2/59/21 
f 2/2/59/21 16/2/58/21 20/4/60/21 
f 2/2/59/21 20/4/60/21 4/4/61/21 
f 4/4/61/21 20/4/60/21 23/6/62/21 
f 4/4/61/21 23/6/62/21 6/6/63/21 
f 6/6/63/21 23/6/62/21 17/1/57/21 
f 6/6/63/21 17/1/57/21 1/1/56/21 
f 11/10/64/21 26/10/65/21 28/11/66/21 
f 11/10/64/21 28/11/66/21 12/11/67/21 
f 14/13/68/21 29/13/69/21 26/10/65/21 
f 14/13/68/21 26/10/65/21 11/10/64/21 
f 15/15/70/21 31/15/71/21 29/13/69/21 
f 15/15/70/21 29/13/69/21 14/13/68/21 
f 12/11/67/21 28/11/66/21 31/15/71/21 
f 12/11/67/21 31/15/71/21 15/15/70/21 
