v -688.9853 279.8812 -279.1519
v -688.9853 280.1829 -280.278
v -648.8207 280.1829 -280.278
v -648.8207 279.8812 -279.1519
v -688.9853 281.0074 -281.1023
v -648.8207 281.0074 -281.1023
v -688.9853 282.1335 -281.4041
v -648.8207 282.1335 -281.4041
v -688.9853 283.2597 -281.1023
v -648.8207 283.2597 -281.1023
v -688.9853 284.0839 -280.278
v -648.8207 284.0839 -280.278
v -688.9853 284.3857 -279.1518
v -648.8207 284.3857 -279.1518
v -688.9853 284.0839 -278.0257
v -648.8207 284.0839 -278.0257
v -688.9853 283.2596 -277.2013
v -648.8207 283.2596 -277.2013
v -688.9853 282.1334 -276.8996
v -648.8207 282.1334 -276.8996
v -688.9853 281.0073 -277.2013
v -648.8207 281.0073 -277.2013
v -688.9853 280.1829 -278.0258
v -648.8207 280.1829 -278.0258
v -729.1499 279.8812 -279.1519
v -729.1499 280.1829 -280.278
v -729.1499 281.0074 -281.1023
v -729.1499 282.1335 -281.4041
v -729.1499 283.2597 -281.1023
v -729.1499 284.0839 -280.278
v -729.1499 284.3857 -279.1518
v -729.1499 284.0839 -278.0257
v -729.1499 283.2596 -277.2013
v -729.1499 282.1334 -276.8996
v -729.1499 281.0073 -277.2013
v -729.1499 280.1829 -278.0258
v -769.3145 279.8812 -279.1519
v -769.3145 280.1829 -280.278
v -769.3145 281.0074 -281.1023
v -769.3145 282.1335 -281.4041
v -769.3145 283.2597 -281.1023
v -769.3145 284.0839 -280.278
v -769.3145 284.3857 -279.1518
v -769.3145 284.0839 -278.0257
v -769.3145 283.2596 -277.2013
v -769.3145 282.1334 -276.8996
v -769.3145 281.0073 -277.2013
v -769.3145 280.1829 -278.0258
v -803.7593 279.8812 -279.1519
v -803.7593 280.1829 -280.278
v -803.7593 281.0074 -281.1023
v -803.7593 282.1335 -281.4041
v -803.7593 283.2597 -281.1023
v -803.7593 284.0839 -280.278
v -803.7593 284.3857 -279.1518
v -803.7593 284.0839 -278.0257
v -803.7593 283.2596 -277.2013
v -803.7593 282.1334 -276.8996
v -803.7593 281.0073 -277.2013
v -803.7593 280.1829 -278.0258
v -958.6978 280.1829 -280.278
v -918.5332 280.1829 -280.278
v -918.5332 279.8812 -279.1519
v -958.6978 279.8812 -279.1519
v -958.6978 281.0074 -281.1023
v -918.5332 281.0074 -281.1023
v -958.6978 282.1335 -281.4041
v -918.5332 282.1335 -281.4041
v -958.6978 283.2597 -281.1023
v -918.5332 283.2597 -281.1023
v -958.6978 284.0839 -280.278
v -918.5332 284.0839 -280.278
v -958.6978 284.3857 -279.1518
v -918.5332 284.3857 -279.1518
v -958.6978 284.0839 -278.0257
v -918.5332 284.0839 -278.0257
v -958.6978 283.2596 -277.2013
v -918.5332 283.2596 -277.2013
v -958.6978 282.1334 -276.8996
v -918.5332 282.1334 -276.8996
v -958.6978 281.0073 -277.2013
v -918.5332 281.0073 -277.2013
v -958.6978 280.1829 -278.0258
v -918.5332 280.1829 -278.0258
v -878.3687 280.1829 -280.278
v -878.3687 279.8812 -279.1519
v -878.3687 281.0074 -281.1023
v -878.3687 282.1335 -281.4041
v -878.3687 283.2597 -281.1023
v -878.3687 284.0839 -280.278
v -878.3687 284.3857 -279.1518
v -878.3687 284.0839 -278.0257
v -878.3687 283.2596 -277.2013
v -878.3687 282.1334 -276.8996
v -878.3687 281.0073 -277.2013
v -878.3687 280.1829 -278.0258
v -838.204 280.1829 -280.278
v -838.204 279.8812 -279.1519
v -838.204 281.0074 -281.1023
v -838.204 282.1335 -281.4041
v -838.204 283.2597 -281.1023
v -838.204 284.0839 -280.278
v -838.204 284.3857 -279.1518
v -838.204 284.0839 -278.0257
v -838.204 283.2596 -277.2013
v -838.204 282.1334 -276.8996
v -838.204 281.0073 -277.2013
v -838.204 280.1829 -278.0258
gi 0 0 0 0
gi 0 0 0 0
gi 0 0 0 0
gi 0 0 0 0
gi 0 0 0 0
gi 0 0 0 0
gi 0 0 0 0
gi 0 0 0 0
gi 0 0 0 0
gi 0 0 0 0
gi 0 0 0 0
gi 0 0 0 0
gi 0 0 0 0
gi 0 0 0 0
gi 0 0 0 0
gi 0 0 0 0
gi 0 0 0 0
gi 0 0 0 0
gi 0 0 0 0
gi 0 0 0 0
gi 0 0 0 0
gi 0 0 0 0
gi 0 0 0 0
gi 0 0 0 0
gi 0 0 0 0
gi 0 0 0 0
gi 0 0 0 0
gi 0 0 0 0
gi 0 0 0 0
gi 0 0 0 0
gi 0 0 0 0
gi 0 0 0 0
gi 0 0 0 0
gi 0 0 0 0
gi 0 0 0 0
gi 0 0 0 0
gi 0 0 0 0
gi 0 0 0 0
gi 0 0 0 0
gi 0 0 0 0
gi 0 0 0 0
gi 0 0 0 0
gi 0 0 0 0
gi 0 0 0 0
gi 0 0 0 0
gi 0 0 0 0
gi 0 0 0 0
gi 0 0 0 0
gi 0 0 0 0
gi 0 0 0 0
gi 0 0 0 0
gi 0 0 0 0
gi 0 0 0 0
gi 0 0 0 0
gi 0 0 0 0
gi 0 0 0 0
gi 0 0 0 0
gi 0 0 0 0
gi 0 0 0 0
gi 0 0 0 0
gi 0 0 0 0
gi 0 0 0 0
gi 0 0 0 0
gi 0 0 0 0
gi 0 0 0 0
gi 0 0 0 0
gi 0 0 0 0
gi 0 0 0 0
gi 0 0 0 0
gi 0 0 0 0
gi 0 0 0 0
gi 0 0 0 0
gi 0 0 0 0
gi 0 0 0 0
gi 0 0 0 0
gi 0 0 0 0
gi 0 0 0 0
gi 0 0 0 0
gi 0 0 0 0
gi 0 0 0 0
gi 0 0 0 0
gi 0 0 0 0
gi 0 0 0 0
gi 0 0 0 0
gi 0 0 0 0
gi 0 0 0 0
gi 0 0 0 0
gi 0 0 0 0
gi 0 0 0 0
gi 0 0 0 0
gi 0 0 0 0
gi 0 0 0 0
gi 0 0 0 0
gi 0 0 0 0
gi 0 0 0 0
gi 0 0 0 0
gi 0 0 0 0
gi 0 0 0 0
gi 0 0 0 0
gi 0 0 0 0
gi 0 0 0 0
gi 0 0 0 0
gi 0 0 0 0
gi 0 0 0 0
gi 0 0 0 0
gi 0 0 0 0
gi 0 0 0 0
gi 0 0 0 0
gw 0.0 0.0 0.0 0.0
gw 0.0 0.0 0.0 0.0
gw 0.0 0.0 0.0 0.0
gw 0.0 0.0 0.0 0.0
gw 0.0 0.0 0.0 0.0
gw 0.0 0.0 0.0 0.0
gw 0.0 0.0 0.0 0.0
gw 0.0 0.0 0.0 0.0
gw 0.0 0.0 0.0 0.0
gw 0.0 0.0 0.0 0.0
gw 0.0 0.0 0.0 0.0
gw 0.0 0.0 0.0 0.0
gw 0.0 0.0 0.0 0.0
gw 0.0 0.0 0.0 0.0
gw 0.0 0.0 0.0 0.0
gw 0.0 0.0 0.0 0.0
gw 0.0 0.0 0.0 0.0
gw 0.0 0.0 0.0 0.0
gw 0.0 0.0 0.0 0.0
gw 0.0 0.0 0.0 0.0
gw 0.0 0.0 0.0 0.0
gw 0.0 0.0 0.0 0.0
gw 0.0 0.0 0.0 0.0
gw 0.0 0.0 0.0 0.0
gw 0.0 0.0 0.0 0.0
gw 0.0 0.0 0.0 0.0
gw 0.0 0.0 0.0 0.0
gw 0.0 0.0 0.0 0.0
gw 0.0 0.0 0.0 0.0
gw 0.0 0.0 0.0 0.0
gw 0.0 0.0 0.0 0.0
gw 0.0 0.0 0.0 0.0
gw 0.0 0.0 0.0 0.0
gw 0.0 0.0 0.0 0.0
gw 0.0 0.0 0.0 0.0
gw 0.0 0.0 0.0 0.0
gw 0.0 0.0 0.0 0.0
gw 0.0 0.0 0.0 0.0
gw 0.0 0.0 0.0 0.0
gw 0.0 0.0 0.0 0.0
gw 0.0 0.0 0.0 0.0
gw 0.0 0.0 0.0 0.0
gw 0.0 0.0 0.0 0.0
gw 0.0 0.0 0.0 0.0
gw 0.0 0.0 0.0 0.0
gw 0.0 0.0 0.0 0.0
gw 0.0 0.0 0.0 0.0
gw 0.0 0.0 0.0 0.0
gw 0.0 0.0 0.0 0.0
gw 0.0 0.0 0.0 0.0
gw 0.0 0.0 0.0 0.0
gw 0.0 0.0 0.0 0.0
gw 0.0 0.0 0.0 0.0
gw 0.0 0.0 0.0 0.0
gw 0.0 0.0 0.0 0.0
gw 0.0 0.0 0.0 0.0
gw 0.0 0.0 0.0 0.0
gw 0.0 0.0 0.0 0.0
gw 0.0 0.0 0.0 0.0
gw 0.0 0.0 0.0 0.0
gw 0.0 0.0 0.0 0.0
gw 0.0 0.0 0.0 0.0
gw 0.0 0.0 0.0 0.0
gw 0.0 0.0 0.0 0.0
gw 0.0 0.0 0.0 0.0
gw 0.0 0.0 0.0 0.0
gw 0.0 0.0 0.0 0.0
gw 0.0 0.0 0.0 0.0
gw 0.0 0.0 0.0 0.0
gw 0.0 0.0 0.0 0.0
gw 0.0 0.0 0.0 0.0
gw 0.0 0.0 0.0 0.0
gw 0.0 0.0 0.0 0.0
gw 0.0 0.0 0.0 0.0
gw 0.0 0.0 0.0 0.0
gw 0.0 0.0 0.0 0.0
gw 0.0 0.0 0.0 0.0
gw 0.0 0.0 0.0 0.0
gw 0.0 0.0 0.0 0.0
gw 0.0 0.0 0.0 0.0
gw 0.0 0.0 0.0 0.0
gw 0.0 0.0 0.0 0.0
gw 0.0 0.0 0.0 0.0
gw 0.0 0.0 0.0 0.0
gw 0.0 0.0 0.0 0.0
gw 0.0 0.0 0.0 0.0
gw 0.0 0.0 0.0 0.0
gw 0.0 0.0 0.0 0.0
gw 0.0 0.0 0.0 0.0
gw 0.0 0.0 0.0 0.0
gw 0.0 0.0 0.0 0.0
gw 0.0 0.0 0.0 0.0
gw 0.0 0.0 0.0 0.0
gw 0.0 0.0 0.0 0.0
gw 0.0 0.0 0.0 0.0
gw 0.0 0.0 0.0 0.0
gw 0.0 0.0 0.0 0.0
gw 0.0 0.0 0.0 0.0
gw 0.0 0.0 0.0 0.0
gw 0.0 0.0 0.0 0.0
gw 0.0 0.0 0.0 0.0
gw 0.0 0.0 0.0 0.0
gw 0.0 0.0 0.0 0.0
gw 0.0 0.0 0.0 0.0
gw 0.0 0.0 0.0 0.0
gw 0.0 0.0 0.0 0.0
gw 0.0 0.0 0.0 0.0
gw 0.0 0.0 0.0 0.0
vt 0.9876 0.5241
vt 0.9633 0.5241
vt 0.9633 0.0053
vt 0.9876 0.0053
vt 0.9391 0.5241
vt 0.9391 0.0053
vt 0.9148 0.5241
vt 0.9148 0.0053
vt 0.8906 0.5241
vt 0.8906 0.0053
vt 0.8663 0.5241
vt 0.8663 0.0053
vt 0.8421 0.5241
vt 0.8421 0.0053
vt 0.8178 0.5241
vt 0.8178 0.0053
vt 0.7936 0.5241
vt 0.7936 0.0053
vt 0.7694 0.5241
vt 0.7694 0.0053
vt 0.7451 0.5241
vt 0.7451 0.0053
vt 0.7209 0.5241
vt 0.7209 0.0053
vt 0.6966 0.5241
vt 0.6966 0.0053
vt 0.9876 0.4502
vt 0.9633 0.4502
vt 0.9391 0.4502
vt 0.9148 0.4502
vt 0.8906 0.4502
vt 0.8663 0.4502
vt 0.8421 0.4502
vt 0.8178 0.4502
vt 0.7936 0.4502
vt 0.7694 0.4502
vt 0.7451 0.4502
vt 0.7209 0.4502
vt 0.6966 0.4502
vn 0.0 -1.0 0.0
vn 0.0 -0.866 -0.5
vn 0.0 -0.866 -0.5
vn 0.0 -1.0 -0.0
vn 0.0 -0.5 -0.866
vn 0.0 -0.5 -0.866
vn 0.0 -0.0 -1.0
vn 0.0 -0.0 -1.0
vn 0.0 0.5001 -0.866
vn 0.0 0.5 -0.866
vn 0.0 0.866 -0.5
vn 0.0 0.866 -0.5
vn 0.0 1.0 0.0
vn 0.0 1.0 0.0
vn 0.0 0.866 0.5
vn 0.0 0.866 0.5
vn 0.0 0.5 0.866
vn 0.0 0.5 0.866
vn 0.0 -0.0 1.0
vn 0.0 -0.0 1.0
vn 0.0 -0.5 0.866
vn 0.0 -0.5 0.866
vn 0.0 -0.866 0.5
vn 0.0 -0.866 0.5
vn 0.0 -1.0 0.0
vn 0.0 -0.866 -0.5
vn 0.0 -0.5 -0.866
vn 0.0 -0.0 -1.0
vn 0.0 0.5 -0.866
vn 0.0 0.866 -0.5
vn 0.0 1.0 0.0
vn 0.0 0.866 0.5
vn 0.0 0.5 0.866
vn 0.0 -0.0 1.0
vn 0.0 -0.5 0.866
vn 0.0 -0.866 0.5
vn 0.0 -1.0 0.0
vn 0.0 -0.5 -0.866
vn 0.0 -0.0 -1.0
vn 0.0 0.5 -0.866
vn 0.0 0.866 -0.5
vn 0.0 1.0 0.0
vn 0.0 0.866 0.5
vn 0.0 -0.0 1.0
vn 0.0 -0.5 0.866
vn 0.0 -0.866 0.5
vn 0.0 -1.0 0.0
vn 0.0 -0.866 -0.5
vn 0.0 -0.5 -0.866
vn 0.0 -0.0 -1.0
vn 0.0 0.5001 -0.866
vn 0.0 0.866 -0.5
vn 0.0 1.0 -0.0
vn 0.0 0.866 0.5
vn 0.0 0.5 0.866
vn 0.0 -0.0 1.0
vn 0.0 -0.5 0.866
vn 0.0 -0.866 0.5
vn 0.0 -0.866 -0.5
vn 0.0 -0.866 -0.5
vn 0.0 -1.0 0.0
vn 0.0 -1.0 -0.0
vn 0.0 -0.5 -0.866
vn 0.0 -0.5 -0.866
vn 0.0 -0.0 -1.0
vn 0.0 -0.0 -1.0
vn 0.0 0.5 -0.866
vn 0.0 0.5001 -0.866
vn 0.0 0.866 -0.5
vn 0.0 0.866 -0.5
vn 0.0 1.0 0.0
vn 0.0 1.0 -0.0
vn 0.0 0.866 0.5
vn 0.0 0.866 0.5
vn 0.0 0.5 0.866
vn 0.0 0.5 0.866
vn 0.0 -0.0 1.0
vn 0.0 -0.0 1.0
vn 0.0 -0.5 0.866
vn 0.0 -0.5 0.866
vn 0.0 -0.866 -0.5
vn 0.0 -1.0 0.0
vn 0.0 -0.5 -0.866
vn 0.0 -0.0 -1.0
vn 0.0 0.5 -0.866
vn 0.0 0.866 -0.5
vn 0.0 1.0 0.0
vn 0.0 0.866 0.5
vn 0.0 0.5 0.866
vn 0.0 -0.0 1.0
vn 0.0 -0.866 0.5
vn 0.0 -0.866 -0.5
vn 0.0 -1.0 0.0
vn 0.0 -0.5 -0.866
vn 0.0 -0.0 -1.0
vn 0.0 0.5 -0.866
vn 0.0 0.866 -0.5
vn 0.0 1.0 0.0
vn 0.0 0.866 0.5
vn 0.0 0.5 0.866
vn 0.0 -0.0 1.0
vn 0.0 -0.5 0.866
vn 0.0 -0.866 0.5
vtan 0.0 0.0 1.0
vtan 0.0 -0.5 0.866
vtan 0.0 -0.5 0.866
vtan 0.0 -0.0 1.0
vtan 0.0 -0.866 0.5
vtan 0.0 -0.866 0.5
vtan 0.0 -1.0 0.0
vtan 0.0 -1.0 0.0
vtan 0.0 -0.866 -0.5001
vtan 0.0 -0.866 -0.5
vtan 0.0 -0.5 -0.866
vtan 0.0 -0.5 -0.866
vtan 0.0 0.0 -1.0
vtan 0.0 0.0 -1.0
vtan 0.0 0.5 -0.866
vtan 0.0 0.5 -0.866
vtan 0.0 0.866 -0.5
vtan 0.0 0.866 -0.5
vtan 0.0 1.0 0.0
vtan 0.0 1.0 0.0
vtan 0.0 0.866 0.5
vtan 0.0 0.866 0.5
vtan 0.0 0.5 0.866
vtan 0.0 0.5 0.866
vtan 0.0 0.0 1.0
vtan 0.0 -0.0 1.0
vtan 0.0 0.0 1.0
vtan 0.0 -0.5 0.866
vtan 0.0 -0.866 0.5
vtan 0.0 -0.866 -0.5
vtan 0.0 -0.5 -0.866
vtan 0.0 0.0 -1.0
vtan 0.0 0.5 -0.866
vtan 0.0 0.866 -0.5
vtan 0.0 0.866 0.5
vtan 0.0 0.5 0.866
vtan 0.0 0.0 1.0
vtan 0.0 0.0 1.0
vtan 0.0 0.0 1.0
vtan 0.0 -0.5 0.866
vtan 0.0 -0.866 0.5
vtan 0.0 -1.0 0.0
vtan 0.0 -0.866 -0.5
vtan 0.0 -0.5 -0.866
vtan 0.0 0.0 -1.0
vtan 0.0 0.5 -0.866
vtan 0.0 0.866 -0.5
vtan 0.0 1.0 0.0
vtan 0.0 0.866 0.5
vtan 0.0 0.866 0.5
vtan 0.0 0.5 0.866
vtan 0.0 0.0 1.0
vtan 0.0 0.0 1.0
vtan 0.0 -0.5 0.866
vtan 0.0 -0.866 0.5
vtan 0.0 -1.0 0.0
vtan 0.0 -1.0 0.0
vtan 0.0 -0.866 -0.5001
vtan 0.0 -0.5 -0.866
vtan 0.0 -0.0 -1.0
vtan 0.0 0.5 -0.866
vtan 0.0 0.866 -0.5
vtan 0.0 1.0 0.0
vtan 0.0 1.0 0.0
vtan 0.0 0.866 0.5
vtan 0.0 0.866 0.5
vtan 0.0 0.5 0.866
vtan 0.0 0.5 0.866
vtan 0.0 0.0 1.0
vtan 0.0 -0.5 0.866
vtan 0.0 -0.5 0.866
vtan 0.0 -0.0 1.0
vtan 0.0 -0.866 0.5
vtan 0.0 -0.866 0.5
vtan 0.0 -1.0 0.0
vtan 0.0 -1.0 0.0
vtan 0.0 -0.866 -0.5
vtan 0.0 -0.866 -0.5001
vtan 0.0 -0.5 -0.866
vtan 0.0 -0.5 -0.866
vtan 0.0 0.0 -1.0
vtan 0.0 -0.0 -1.0
vtan 0.0 0.5 -0.866
vtan 0.0 0.5 -0.866
vtan 0.0 0.866 -0.5
vtan 0.0 0.866 -0.5
vtan 0.0 1.0 0.0
vtan 0.0 0.866 0.5
vtan 0.0 0.866 0.5
vtan 0.0 0.5 0.866
vtan 0.0 -0.0 1.0
vtan 0.0 -0.5 0.866
vtan 0.0 -0.866 0.5
vtan 0.0 -1.0 0.0
vtan 0.0 -0.866 -0.5001
vtan 0.0 -0.5 -0.866
vtan 0.0 -0.5 -0.866
vtan 0.0 0.0 -1.0
vtan 0.0 0.5 -0.866
vtan 0.0 0.5 -0.866
vtan 0.0 0.866 -0.5
vtan 0.0 1.0 0.0
vtan 0.0 0.5 0.866
vtan 0.0 -0.5 0.866
vtan 0.0 0.0 1.0
vtan 0.0 -0.866 0.5
vtan 0.0 -1.0 0.0
vtan 0.0 -0.866 -0.5
vtan 0.0 -0.5 -0.866
vtan 0.0 -0.5 -0.866
vtan 0.0 0.0 -1.0
vtan 0.0 0.0 -1.0
vtan 0.0 0.5 -0.866
vtan 0.0 0.866 -0.5
vtan 0.0 1.0 0.0
vtan 0.0 1.0 0.0
vtan 0.0 0.866 0.5
vtan 0.0 0.5 0.866
vtan 0.0 0.0 1.0
vtan 0.0 0.0 1.0
vtan 0.0 1.0 0.0
f 0/0/0/0 1/1/1/1 2/2/2/2 
f 0/0/0/0 2/2/2/2 3/3/3/3 
f 1/1/1/1 4/4/4/4 5/5/5/5 
f 1/1/1/1 5/5/5/5 2/2/2/2 
f 4/4/4/4 6/6/6/6 7/7/7/7 
f 4/4/4/4 7/7/7/7 5/5/5/5 
f 6/6/6/6 8/8/8/8 9/9/9/9 
f 6/6/6/6 9/9/9/9 7/7/7/7 
f 8/8/8/8 10/10/10/10 11/11/11/11 
f 8/8/8/8 11/11/11/11 9/9/9/9 
f 10/10/10/10 12/12/12/12 13/13/13/13 
f 10/10/10/10 13/13/13/13 11/11/11/11 
f 12/12/12/12 14/14/14/14 15/15/15/15 
f 12/12/12/12 15/15/15/15 13/13/13/13 
f 14/14/14/14 16/16/16/16 17/17/17/17 
f 14/14/14/14 17/17/17/17 15/15/15/15 
f 16/16/16/16 18/18/18/18 19/19/19/19 
f 16/16/16/16 19/19/19/19 17/17/17/17 
f 18/18/18/18 20/20/20/20 21/21/21/21 
f 18/18/18/18 21/21/21/21 19/19/19/19 
f 20/20/20/20 22/22/22/22 23/23/23/23 
f 20/20/20/20 23/23/23/23 21/21/21/21 
f 22/22/22/22 0/24/0/24 3/25/3/25 
f 22/22/22/22 3/25/3/25 23/23/23/23 
f 1/2/1/1 0/3/0/0 24/0/24/26 
f 1/2/1/1 24/0/24/26 25/1/25/27 
f 25/1/25/27 26/4/26/28 4/5/4/4 
f 25/1/25/27 4/5/4/4 1/2/1/1 
f 26/4/26/28 27/6/27/6 6/7/6/6 
f 26/4/26/28 6/7/6/6 4/5/4/4 
f 27/6/27/6 28/8/28/29 8/9/8/8 
f 27/6/27/6 8/9/8/8 6/7/6/6 
f 28/8/28/29 29/10/29/30 10/11/10/10 
f 28/8/28/29 10/11/10/10 8/9/8/8 
f 29/10/29/30 30/12/30/31 12/13/12/12 
f 29/10/29/30 12/13/12/12 10/11/10/10 
f 30/12/30/31 31/14/31/32 14/15/14/14 
f 30/12/30/31 14/15/14/14 12/13/12/12 
f 31/14/31/32 32/16/32/33 16/17/16/16 
f 31/14/31/32 16/17/16/16 14/15/14/14 
f 32/16/32/33 33/18/33/18 18/19/18/18 
f 32/16/32/33 18/19/18/18 16/17/16/16 
f 33/18/33/18 34/20/34/34 20/21/20/20 
f 33/18/33/18 20/21/20/20 18/19/18/18 
f 34/20/34/34 35/22/35/35 22/23/22/22 
f 34/20/34/34 22/23/22/22 20/21/20/20 
f 0/25/0/36 22/23/22/22 35/22/35/35 
f 0/25/0/36 35/22/35/35 24/24/24/37 
f 36/0/36/38 37/1/1/1 25/2/25/39 
f 36/0/36/38 25/2/25/39 24/3/24/26 
f 37/1/1/1 38/4/37/40 26/5/26/28 
f 37/1/1/1 26/5/26/28 25/2/25/39 
f 38/4/37/40 39/6/38/41 27/7/27/6 
f 38/4/37/40 27/7/27/6 26/5/26/28 
f 39/6/38/41 40/8/39/42 28/9/28/29 
f 39/6/38/41 28/9/28/29 27/7/27/6 
f 40/8/39/42 41/10/40/43 29/11/29/30 
f 40/8/39/42 29/11/29/30 28/9/28/29 
f 41/10/40/43 42/12/41/44 30/13/30/31 
f 41/10/40/43 30/13/30/31 29/11/29/30 
f 42/12/41/44 43/14/42/45 31/15/31/32 
f 42/12/41/44 31/15/31/32 30/13/30/31 
f 43/14/42/45 44/16/16/46 32/17/32/33 
f 43/14/42/45 32/17/32/33 31/15/31/32 
f 44/16/16/46 45/18/43/47 33/19/33/18 
f 44/16/16/46 33/19/33/18 32/17/32/33 
f 45/18/43/47 46/20/44/48 34/21/34/49 
f 45/18/43/47 34/21/34/49 33/19/33/18 
f 46/20/44/48 47/22/45/50 35/23/35/35 
f 46/20/44/48 35/23/35/35 34/21/34/49 
f 47/22/45/50 36/24/36/51 24/25/24/37 
f 47/22/45/50 24/25/24/37 35/23/35/35 
f 48/26/46/52 49/27/47/53 37/2/1/1 
f 48/26/46/52 37/2/1/1 36/3/36/38 
f 49/27/47/53 50/28/48/54 38/5/37/40 
f 49/27/47/53 38/5/37/40 37/2/1/1 
f 50/28/48/54 51/29/49/55 39/7/38/56 
f 50/28/48/54 39/7/38/56 38/5/37/40 
f 51/29/49/55 52/30/50/57 40/9/39/42 
f 51/29/49/55 40/9/39/42 39/7/38/56 
f 52/30/50/57 53/31/51/58 41/11/40/43 
f 52/30/50/57 41/11/40/43 40/9/39/42 
f 53/31/51/58 54/32/52/59 42/13/41/44 
f 53/31/51/58 42/13/41/44 41/11/40/43 
f 54/32/52/59 55/33/53/60 43/15/42/45 
f 54/32/52/59 43/15/42/45 42/13/41/44 
f 55/33/53/60 56/34/54/61 44/17/16/16 
f 55/33/53/60 44/17/16/16 43/15/42/45 
f 56/34/54/61 57/35/55/62 45/19/43/63 
f 56/34/54/61 45/19/43/63 44/17/16/16 
f 57/35/55/62 58/36/56/64 46/21/44/65 
f 57/35/55/62 46/21/44/65 45/19/43/63 
f 58/36/56/64 59/37/57/66 47/23/45/67 
f 58/36/56/64 47/23/45/67 46/21/44/65 
f 59/37/57/66 48/38/46/68 36/25/36/51 
f 59/37/57/66 36/25/36/51 47/23/45/67 
f 60/2/58/69 61/1/59/70 62/0/60/0 
f 60/2/58/69 62/0/60/0 63/3/61/71 
f 64/5/62/72 65/4/63/73 61/1/59/70 
f 64/5/62/72 61/1/59/70 60/2/58/69 
f 66/7/64/74 67/6/65/75 65/4/63/73 
f 66/7/64/74 65/4/63/73 64/5/62/72 
f 68/9/66/76 69/8/67/77 67/6/65/75 
f 68/9/66/76 67/6/65/75 66/7/64/74 
f 70/11/68/78 71/10/69/79 69/8/67/77 
f 70/11/68/78 69/8/67/77 68/9/66/76 
f 72/13/70/80 73/12/71/81 71/10/69/79 
f 72/13/70/80 71/10/69/79 70/11/68/78 
f 74/15/72/82 75/14/73/83 73/12/71/81 
f 74/15/72/82 73/12/71/81 72/13/70/80 
f 76/17/74/84 77/16/75/85 75/14/73/83 
f 76/17/74/84 75/14/73/83 74/15/72/82 
f 78/19/76/86 79/18/77/18 77/16/75/85 
f 78/19/76/86 77/16/75/85 76/17/74/84 
f 80/21/78/87 81/20/79/88 79/18/77/18 
f 80/21/78/87 79/18/77/18 78/19/76/86 
f 82/23/23/23 83/22/35/89 81/20/79/88 
f 82/23/23/23 81/20/79/88 80/21/78/87 
f 63/25/61/90 62/24/60/24 83/22/35/89 
f 63/25/61/90 83/22/35/89 82/23/23/23 
f 61/2/59/70 84/1/80/91 85/0/81/0 
f 61/2/59/70 85/0/81/0 62/3/60/0 
f 65/5/63/73 86/4/82/92 84/1/80/91 
f 65/5/63/73 84/1/80/91 61/2/59/70 
f 67/7/65/75 87/6/83/93 86/4/82/92 
f 67/7/65/75 86/4/82/92 65/5/63/73 
f 69/9/67/77 88/8/84/94 87/6/83/93 
f 69/9/67/77 87/6/83/93 67/7/65/75 
f 71/11/69/95 89/10/85/96 88/8/84/94 
f 71/11/69/95 88/8/84/94 69/9/67/77 
f 73/13/71/81 90/12/86/97 89/10/85/96 
f 73/13/71/81 89/10/85/96 71/11/69/95 
f 75/15/73/98 91/14/87/99 90/12/86/97 
f 75/15/73/98 90/12/86/97 73/13/71/81 
f 77/17/75/85 92/16/88/100 91/14/87/99 
f 77/17/75/85 91/14/87/99 75/15/73/98 
f 79/19/77/18 93/18/89/101 92/16/88/100 
f 79/19/77/18 92/16/88/100 77/17/75/85 
f 81/21/79/88 94/20/34/34 93/18/89/101 
f 81/21/79/88 93/18/89/101 79/19/77/18 
f 83/23/35/35 95/22/90/102 94/20/34/34 
f 83/23/35/35 94/20/34/34 81/21/79/88 
f 62/25/60/24 85/24/81/24 95/22/90/102 
f 62/25/60/24 95/22/90/102 83/23/35/35 
f 84/2/80/91 96/1/91/103 97/0/92/104 
f 84/2/80/91 97/0/92/104 85/3/81/0 
f 86/5/82/92 98/4/93/105 96/1/91/103 
f 86/5/82/92 96/1/91/103 84/2/80/91 
f 87/7/83/93 99/6/94/106 98/4/93/105 
f 87/7/83/93 98/4/93/105 86/5/82/92 
f 88/9/84/94 100/8/95/107 99/6/94/106 
f 88/9/84/94 99/6/94/106 87/7/83/93 
f 89/11/85/108 101/10/96/109 100/8/95/107 
f 89/11/85/108 100/8/95/107 88/9/84/94 
f 90/13/86/110 102/12/97/111 101/10/96/109 
f 90/13/86/110 101/10/96/109 89/11/85/108 
f 91/15/87/99 103/14/98/112 102/12/97/111 
f 91/15/87/99 102/12/97/111 90/13/86/110 
f 92/17/88/100 104/16/99/113 103/14/98/112 
f 92/17/88/100 103/14/98/112 91/15/87/99 
f 93/19/89/114 105/18/100/115 104/16/99/113 
f 93/19/89/114 104/16/99/113 92/17/88/100 
f 94/21/34/34 106/20/101/116 105/18/100/115 
f 94/21/34/34 105/18/100/115 93/19/89/114 
f 95/23/90/102 107/22/102/117 106/20/101/116 
f 95/23/90/102 106/20/101/116 94/21/34/34 
f 85/25/81/24 97/24/92/118 107/22/102/117 
f 85/25/81/24 107/22/102/117 95/23/90/102 
f 96/2/91/103 49/27/47/53 48/26/46/52 
f 96/2/91/103 48/26/46/52 97/3/92/119 
f 98/5/93/105 50/28/48/54 49/27/47/53 
f 98/5/93/105 49/27/47/53 96/2/91/103 
f 99/7/94/106 51/29/49/55 50/28/48/54 
f 99/7/94/106 50/28/48/54 98/5/93/105 
f 100/9/95/107 52/30/50/57 51/29/49/55 
f 100/9/95/107 51/29/49/55 99/7/94/106 
f 101/11/96/109 53/31/51/58 52/30/50/57 
f 101/11/96/109 52/30/50/57 100/9/95/107 
f 102/13/97/111 54/32/52/59 53/31/51/58 
f 102/13/97/111 53/31/51/58 101/11/96/109 
f 103/15/98/112 55/33/53/60 54/32/52/59 
f 103/15/98/112 54/32/52/59 102/13/97/111 
f 104/17/99/113 56/34/54/61 55/33/53/60 
f 104/17/99/113 55/33/53/60 103/15/98/112 
f 105/19/100/120 57/35/55/62 56/34/54/61 
f 105/19/100/120 56/34/54/61 104/17/99/113 
f 106/21/101/116 58/36/56/64 57/35/55/62 
f 106/21/101/116 57/35/55/62 105/19/100/120 
f 107/23/102/117 59/37/57/66 58/36/56/64 
f 107/23/102/117 58/36/56/64 106/21/101/116 
f 97/25/92/118 48/38/46/68 59/37/57/66 
f 97/25/92/118 59/37/57/66 107/23/102/117 
