v -1864.3878 -126.4423 -1136.4355
v 1744.0978 -126.4423 -1136.4355
v 1744.0978 -126.4427 1037.116
v -1864.3878 -126.4427 1037.116
v 1746.6929 1334.9814 1039.7114
v -1866.9829 1334.9814 1039.7114
v 1746.6929 1334.9818 -1139.0303
v -1866.9829 1334.9818 -1139.0303
v -1852.8408 -114.8953 -1124.8884
v -1852.8408 -114.8957 1025.5691
v 1732.5508 -114.8957 1025.5691
v 1732.5508 -114.8953 -1124.8884
v -1852.8408 1347.1957 1025.5693
v 1732.5508 1347.1957 1025.5693
v 1732.5508 1347.196 -1124.8882
v -1852.8408 1347.196 -1124.8882
gi 0 0 0 0
gi 0 0 0 0
gi 0 0 0 0
gi 0 0 0 0
gi 0 0 0 0
gi 0 0 0 0
gi 0 0 0 0
gi 0 0 0 0
gi 0 0 0 0
gi 0 0 0 0
gi 0 0 0 0
gi 0 0 0 0
gi 0 0 0 0
gi 0 0 0 0
gi 0 0 0 0
gi 0 0 0 0
gw 0.0 0.0 0.0 0.0
gw 0.0 0.0 0.0 0.0
gw 0.0 0.0 0.0 0.0
gw 0.0 0.0 0.0 0.0
gw 0.0 0.0 0.0 0.0
gw 0.0 0.0 0.0 0.0
gw 0.0 0.0 0.0 0.0
gw 0.0 0.0 0.0 0.0
gw 0.0 0.0 0.0 0.0
gw 0.0 0.0 0.0 0.0
gw 0.0 0.0 0.0 0.0
gw 0.0 0.0 0.0 0.0
gw 0.0 0.0 0.0 0.0
gw 0.0 0.0 0.0 0.0
gw 0.0 0.0 0.0 0.0
gw 0.0 0.0 0.0 0.0
vt 18.4104 2.6857
vt 9.2318 2.6857
vt 9.2318 -2.8194
vt 18.4104 -2.8194
vt 9.2318 -6.5756
vt 18.4104 -6.5756
vt 3.7266 -2.8194
vt 3.7266 -6.5756
vt -5.452 -2.8194
vt -5.452 -6.5756
vt 23.9155 -6.5756
vt 23.9155 -2.8194
vn -0.5769 -0.5783 -0.5769
vn 0.5769 -0.5783 -0.5769
vn 0.5769 -0.5783 0.5769
vn -0.5769 -0.5783 0.5769
vn 0.6441 0.4126 0.6441
vn -0.6441 0.4126 0.6441
vn 0.6441 0.4126 -0.6441
vn -0.6441 0.4126 -0.6441
vn 0.5774 0.5774 0.5773
vn 0.5774 0.5773 -0.5773
vn -0.5774 0.5774 -0.5773
vn -0.5774 0.5773 0.5773
vn 0.0359 0.9987 -0.0358
vn -0.0359 0.9987 -0.0359
vn -0.0359 0.9987 0.0359
vn 0.0359 0.9987 0.0359
vtan -0.8168 0.4084 0.4074
vtan -0.8168 -0.4084 -0.4074
vtan -0.7717 -0.1543 0.617
vtan -0.7717 0.1543 -0.617
vtan -0.7071 0.0 0.7071
vtan -0.7071 -0.0 -0.7071
vtan 0.7071 0.0 0.7071
vtan 0.7071 -0.0 0.7071
vtan 0.8168 -0.4084 -0.4074
vtan 0.7649 0.3474 -0.5424
vtan 0.5424 -0.3474 -0.7649
vtan 0.4074 0.4084 -0.8168
vtan -0.8165 0.4083 0.4082
vtan -0.7715 0.1543 -0.6172
vtan -0.7715 -0.1543 0.6172
vtan -0.8165 -0.4083 -0.4083
vtan -0.7068 -0.0 -0.7074
vtan -0.707 0.0 0.7072
vtan 0.7071 0.0 0.7071
vtan 0.7069 -0.0 0.7074
vtan 0.8165 -0.4083 -0.4082
vtan 0.9994 -0.0359 -0.0013
vtan 0.4082 0.4082 -0.8165
vtan 0.0013 0.0358 -0.9994
vtan 1.0 0.0 0.0
f 0/0/0/0 1/1/1/1 2/2/2/2 
f 0/0/0/0 2/2/2/2 3/3/3/3 
f 2/2/2/2 4/4/4/4 5/5/5/5 
f 2/2/2/2 5/5/5/5 3/3/3/3 
f 1/6/1/6 6/7/6/7 4/4/4/4 
f 1/6/1/6 4/4/4/4 2/2/2/2 
f 0/8/0/8 7/9/7/9 6/7/6/7 
f 0/8/0/8 6/7/6/7 1/6/1/6 
f 7/10/7/10 0/11/0/11 3/3/3/3 
f 7/10/7/10 3/3/3/3 5/5/5/5 
f 8/0/8/12 9/3/9/13 10/2/10/14 
f 8/0/8/12 10/2/10/14 11/1/11/15 
f 10/2/10/14 9/3/9/13 12/5/12/16 
f 10/2/10/14 12/5/12/16 13/4/13/17 
f 11/6/11/18 10/2/10/14 13/4/13/17 
f 11/6/11/18 13/4/13/17 14/7/14/19 
f 8/8/8/20 11/6/11/18 14/7/14/19 
f 8/8/8/20 14/7/14/19 15/9/15/21 
f 9/3/9/13 8/11/8/22 15/10/15/23 
f 9/3/9/13 15/10/15/23 12/5/12/16 
f 4/4/4/4 13/4/13/24 12/5/12/24 
f 4/4/4/4 12/5/12/24 5/5/5/5 
f 6/7/6/7 14/7/14/24 13/4/13/24 
f 6/7/6/7 13/4/13/24 4/4/4/4 
f 7/9/7/9 15/9/15/24 14/7/14/24 
f 7/9/7/9 14/7/14/24 6/7/6/7 
f 5/5/5/5 12/5/12/24 15/10/15/24 
f 5/5/5/5 15/10/15/24 7/10/7/10 
