v -594.9648 134.3402 -217.9138
v -619.0723 213.6973 -217.9138
v -619.6752 213.5141 -221.4872
v -595.5676 134.157 -221.4872
gi 0 0 0 0
gw 0.0 0.0 0.0 0.0
gi 0 0 0 0
gw 0.0 0.0 0.0 0.0
gi 0 0 0 0
gw 0.0 0.0 0.0 0.0
gi 0 0 0 0
gw 0.0 0.0 0.0 0.0
vt 0.677 0.0
vt 0.677 3.0982
vt 0.1467 3.0982
vt 0.1467 0.0
vn -0.9423 -0.2863 0.1736
vn -0.9423 -0.2863 0.1736
vn -0.9423 -0.2863 0.1736
vn -0.9423 -0.2863 0.1736
vtan 0.1661 0.0505 0.9848 1.0
vtan 0.1661 0.0505 0.9848 1.0
vtan 0.1661 0.0505 0.9848 1.0
vtan 0.1661 0.0505 0.9848 1.0
f 0/0/0/0 1/1/1/1 2/2/2/2 
f 0/0/0/0 2/2/2/2 3/3/3/3 
