v -1423.9666 1.123 -639.7568
v -1423.9661 1.1228 569.4755
v -1423.9661 -3.3795 569.4755
v -1423.9666 -3.3793 -639.7568
v 1297.6368 1.1228 569.476
v 1297.636 1.123 -638.8087
v 1297.636 -3.3793 -638.8087
v 1297.6368 -3.3795 569.476
v 12.1624 1.123 -639.2566
v 12.1624 -3.3793 -639.2565
v -1428.5198 5.625 574.0293
v -1428.5198 5.6252 -644.3114
v 1302.1906 5.6252 -643.3617
v 1302.1906 5.625 574.0297
v 12.0829 5.6252 -643.8104
v -1428.5198 1.123 -644.3114
v -1428.5198 -3.3793 -644.3114
v -1428.5198 -3.3795 574.0293
v -1428.5198 1.1228 574.0293
v 1302.1906 1.1228 574.0297
v 1302.1906 -3.3795 574.0297
v 1302.1906 -3.3793 -643.3617
v 1302.1906 1.123 -643.3617
v -138.698 1.123 -643.8628
v -138.698 -3.3793 -643.8628
v -138.698 5.6252 -643.8628
v 12.0829 -3.3793 -643.8103
v -138.6185 -3.3793 -639.309
v -138.6185 1.123 -639.3091
v 12.0829 1.123 -643.8104
vt 8.333 1.1986
vt 14.896 1.1986
vt 14.896 1.2605
vt 8.333 1.2605
vt -12.9962 1.1986
vt -6.4383 1.1986
vt -6.4383 1.2605
vt -12.9962 1.2605
vt 0.5385 1.1986
vt 0.5385 1.2605
vt -27.7677 1.1986
vt -27.7677 1.2605
vt 8.3083 1.0748
vt 8.3083 1.0128
vt 14.9208 1.0128
vt 14.9208 1.0748
vt -13.021 1.0748
vt -13.021 1.0128
vt -6.4136 1.0128
vt -6.4136 1.0748
vt 1.3573 1.0748
vt 1.3573 1.0128
vt 8.3577 1.0128
vt 8.3577 1.0748
vt -27.7924 1.0748
vt -27.7924 1.0128
vt -12.9715 1.0128
vt -12.9715 1.0748
vt 14.9208 1.1367
vt 8.3083 1.1367
vt -6.4136 1.1367
vt -13.021 1.1367
vt 8.3577 1.1367
vt 1.3573 1.1367
vt -12.9715 1.1367
vt -27.7924 1.1367
vt 1.3568 1.2605
vt 1.3568 1.1986
vt -6.4631 1.0748
vt -6.4631 1.0128
vt 0.5389 1.0128
vt 0.5389 1.0748
vt -6.4631 1.1367
vt 0.5389 1.1367
vt 14.9208 1.2734
vt 8.3083 1.2734
vt -6.4136 1.2734
vt -13.021 1.2734
vt 0.5389 1.2733
vt -6.4631 1.272
vt -12.9715 1.2734
vt -27.7924 1.2734
vt 8.3577 1.2747
vt 1.3573 1.2735
vn 1.0 0.0 -0.0
vn 1.0 0.0 -0.0
vn -1.0 0.0 0.0
vn -0.0003 0.0 1.0
vn -0.0003 0.0 1.0
vn 0.0 0.0 -1.0
vn 0.0 0.0 -1.0
vn -1.0 0.0 0.0
vn -1.0 0.0 0.0
vn 1.0 0.0 0.0
vn 0.0003 0.0 -1.0
vn 0.0003 0.0 -1.0
vn -0.0 0.0 1.0
vn -0.0 0.0 1.0
vn 0.0003 0.0 -1.0
vn 0.0003 0.0 -1.0
vn -0.0 0.0 1.0
vn -0.0 0.0 1.0
vn -0.0003 0.0 1.0
vn -0.0003 0.0 1.0
vn 0.0003 0.0 -1.0
vn 0.0003 -0.0 -1.0
vn 0.0003 0.0 -1.0
vn 0.0003 0.0 -1.0
vn 0.5768 0.578 0.5772
vn -0.4844 0.7285 -0.4845
vn -0.4844 0.7284 0.4845
vn 0.5771 0.578 -0.577
vn 0.4844 0.7285 -0.4844
vn -0.5772 0.5779 0.5769
vn -0.577 0.578 -0.5771
vn 0.4845 0.7285 0.4844
vn 0.0001 0.9191 -0.394
vn -0.0003 0.3871 0.922
vn 0.3014 -0.9046 -0.3016
vn -0.5774 -0.5774 0.5773
vn -0.5772 -0.5773 -0.5775
vn 0.3014 -0.9046 0.3014
vn -0.3015 -0.9045 0.3016
vn 0.5775 -0.5774 -0.5772
vn 0.5773 -0.5774 0.5774
vn -0.3016 -0.9046 -0.3014
vn -0.0003 -0.7109 0.7033
vn 0.0003 -0.7029 -0.7113
vn -0.0003 0.384 0.9233
vn 0.0002 0.9266 -0.3761
vn 0.0003 -0.7109 -0.7033
vn -0.0003 -0.7029 0.7113
vtan 0.0 -0.0 1.0 1.0
vtan 0.0 -0.0 1.0 1.0
vtan 0.0 -0.0 1.0 1.0
vtan 0.0 -0.0 1.0 1.0
vtan 0.0 -0.0 1.0 1.0
vtan -0.0 0.0 -1.0 1.0
vtan -0.0 0.0 -1.0 1.0
vtan -0.0 0.0 -1.0 1.0
vtan -0.0 0.0 -1.0 1.0
vtan -1.0 0.0 -0.0003 1.0
vtan -1.0 0.0 -0.0003 1.0
vtan -1.0 0.0 -0.0003 1.0
vtan -1.0 0.0 -0.0003 1.0
vtan -1.0 0.0 -0.0003 1.0
vtan -1.0 0.0 -0.0003 1.0
vtan 1.0 0.0 0.0 1.0
vtan 1.0 0.0 0.0 1.0
vtan 1.0 0.0 0.0 1.0
vtan 1.0 0.0 0.0 1.0
vtan 0.0 -0.0 1.0 1.0
vtan 0.0 -0.0 1.0 1.0
vtan 0.0 -0.0 1.0 1.0
vtan 0.0 -0.0 1.0 1.0
vtan 0.0 -0.0 1.0 1.0
vtan 0.0 0.0 -1.0 1.0
vtan 0.0 0.0 -1.0 1.0
vtan 0.0 0.0 -1.0 1.0
vtan 0.0 0.0 -1.0 1.0
vtan -1.0 0.0 -0.0003 1.0
vtan -1.0 0.0 -0.0003 1.0
vtan -1.0 0.0 -0.0003 1.0
vtan -1.0 0.0 -0.0003 1.0
vtan -1.0 0.0 -0.0003 1.0
vtan 1.0 0.0 0.0 1.0
vtan 1.0 0.0 0.0 1.0
vtan 1.0 0.0 0.0 1.0
vtan 1.0 0.0 0.0 1.0
vtan 0.0 -0.0 1.0 1.0
vtan 0.0 -0.0 1.0 1.0
vtan 0.0 -0.0 1.0 1.0
vtan 0.0 -0.0 1.0 1.0
vtan 0.0 0.0 -1.0 1.0
vtan 0.0 0.0 -1.0 1.0
vtan -1.0 0.0 -0.0003 1.0
vtan -1.0 0.0 -0.0003 1.0
vtan -1.0 0.0 -0.0003 1.0
vtan -1.0 0.0 -0.0003 1.0
vtan -1.0 0.0 -0.0003 1.0
vtan 1.0 0.0 0.0 1.0
vtan 1.0 0.0 0.0 1.0
vtan 1.0 0.0 0.0 1.0
vtan 1.0 0.0 0.0 1.0
vtan 1.0 0.0 0.0 1.0
vtan -1.0 0.0 -0.0003 1.0
vtan -1.0 0.0 -0.0003 1.0
vtan -1.0 0.0 -0.0003 1.0
vtan -1.0 0.0 -0.0003 1.0
vtan -1.0 0.0 -0.0003 1.0
vtan -1.0 0.0 -0.0003 1.0
vtan -1.0 -0.0 -0.0003 1.0
vtan -1.0 -0.0 -0.0003 1.0
vtan -1.0 0.0 -0.0003 1.0
vtan -1.0 0.0 -0.0003 1.0
vtan -1.0 0.0 -0.0003 1.0
vtan -1.0 0.0 -0.0003 1.0
vtan -1.0 0.0 -0.0003 1.0
vtan -1.0 0.0 -0.0003 1.0
vtan -0.4077 -0.4086 0.8166 1.0
vtan -0.2683 0.4034 0.8748 1.0
vtan 0.2683 -0.4034 0.8748 1.0
vtan 0.4077 0.4083 0.8168 1.0
vtan -0.2682 -0.4033 -0.8749 1.0
vtan -0.4077 0.4082 -0.8168 1.0
vtan 0.4077 -0.4084 -0.8167 1.0
vtan 0.2682 0.4033 -0.8749 1.0
vtan -1.0 -0.0 -0.0003 1.0
vtan -1.0 0.0 -0.0003 1.0
vtan -0.8166 -0.4083 -0.408 1.0
vtan -0.8748 0.4032 -0.2685 1.0
vtan 0.8748 -0.4034 -0.2682 1.0
vtan 0.8168 0.4083 -0.4077 1.0
vtan 0.8167 -0.4084 0.4077 1.0
vtan 0.8748 0.4033 0.2683 1.0
vtan 0.0953 -0.2861 0.9534 1.0
vtan 0.4082 0.4082 0.8165 1.0
vtan -0.4083 -0.4084 0.8164 1.0
vtan -0.0953 0.2859 0.9535 1.0
vtan -0.0954 -0.2861 -0.9534 1.0
vtan -0.4082 0.4081 -0.8166 1.0
vtan 0.4083 -0.4083 -0.8165 1.0
vtan 0.0953 0.2859 -0.9535 1.0
vtan -1.0 0.0002 -0.0002 1.0
vtan -1.0 -0.0002 -0.0002 1.0
vtan -0.8164 -0.4082 -0.4085 1.0
vtan -0.9535 0.2859 -0.0957 1.0
vtan 0.9534 -0.2861 -0.0953 1.0
vtan 0.8165 0.4082 -0.4082 1.0
vtan 0.8165 -0.4083 0.4083 1.0
vtan 0.9535 0.2859 0.0953 1.0
vtan -0.8749 -0.4035 0.268 1.0
vtan -0.8169 0.4084 0.4074 1.0
vtan -1.0 -0.0 -0.0003 1.0
vtan -1.0 0.0 -0.0004 1.0
vtan -0.9535 -0.286 0.0952 1.0
vtan -0.8166 0.4081 0.4082 1.0
vtan -1.0 -0.0 -0.0004 1.0
vtan -1.0 0.0 -0.0004 1.0
f 0/0/0/0 1/1/0/1 2/2/0/2 
f 0/0/1/3 2/2/1/4 3/3/1/3 
f 4/4/2/5 5/5/2/6 6/6/2/7 
f 4/4/2/5 6/6/2/7 7/7/2/8 
f 5/5/3/9 8/8/3/10 9/9/3/11 
f 5/5/4/12 9/9/4/13 6/6/4/14 
f 1/10/5/15 4/4/5/15 7/7/5/16 
f 1/10/6/17 7/7/6/18 2/11/6/18 
f 15/12/7/19 16/13/7/20 17/14/7/19 
f 15/12/8/21 17/14/8/22 18/15/8/23 
f 19/16/9/24 20/17/9/25 21/18/9/26 
f 19/16/9/24 21/18/9/26 22/19/9/27 
f 23/20/10/28 24/21/10/29 16/22/10/30 
f 23/20/11/31 16/22/11/32 15/23/11/32 
f 18/24/12/33 17/25/12/34 20/26/12/33 
f 18/24/13/35 20/26/13/36 19/27/13/35 
f 10/28/7/37 11/29/7/38 15/12/7/39 
f 10/28/7/37 15/12/7/39 18/15/7/40 
f 12/30/9/41 13/31/9/42 19/16/9/24 
f 12/30/9/41 19/16/9/24 22/19/9/27 
f 11/32/14/43 25/33/14/44 23/20/14/44 
f 11/32/15/45 23/20/15/46 15/23/15/47 
f 13/34/16/48 10/35/16/48 18/24/16/49 
f 13/34/17/50 18/24/17/51 19/27/17/52 
f 0/0/18/53 3/3/18/53 27/36/18/54 
f 0/0/19/55 27/36/19/56 28/37/19/56 
f 22/38/20/57 21/39/20/58 26/40/20/57 
f 22/38/21/59 26/40/21/60 29/41/21/59 
f 12/42/22/61 22/38/22/62 29/41/22/63 
f 12/42/23/64 29/41/23/65 14/43/23/66 
f 0/0/24/67 11/29/25/68 10/28/26/69 
f 0/0/24/67 10/28/26/69 1/1/27/70 
f 12/30/28/71 5/5/29/72 4/4/30/73 
f 12/30/28/71 4/4/30/73 13/31/31/74 
f 14/43/32/75 8/8/33/76 5/5/29/77 
f 14/43/32/75 5/5/29/77 12/42/28/78 
f 13/34/31/79 4/4/30/80 1/10/27/81 
f 13/34/31/79 1/10/27/81 10/35/26/82 
f 2/2/34/83 17/44/35/84 16/45/36/85 
f 2/2/34/83 16/45/36/85 3/3/37/86 
f 6/6/38/87 21/46/39/88 20/47/40/89 
f 6/6/38/87 20/47/40/89 7/7/41/90 
f 9/9/42/91 26/48/43/92 21/49/39/93 
f 9/9/42/91 21/49/39/93 6/6/38/94 
f 7/7/41/95 20/50/40/96 17/51/35/97 
f 7/7/41/95 17/51/35/97 2/11/34/98 
f 11/32/25/99 0/0/24/100 28/37/44/101 
f 11/32/25/99 28/37/44/101 25/33/45/102 
f 3/3/37/103 16/52/36/104 24/53/46/105 
f 3/3/37/103 24/53/46/105 27/36/47/106 
