v -972.9014 186.5209 569.3782
v -972.0032 192.9853 568.5563
v -972.0032 192.9853 575.488
v -972.9014 186.5209 575.488
v -1039.0024 192.9853 567.8701
v -972.7974 192.9853 567.8701
v -973.7485 186.5209 568.6462
v -1038.0508 186.5209 568.6462
v -1045.877 208.8855 561.9177
v -1045.8357 213.2486 561.9177
v -965.9641 213.2486 561.9177
v -965.9231 208.8855 561.9177
v -1046.6873 208.8855 575.488
v -1046.6873 213.2486 575.488
v -1046.6873 213.2486 562.6531
v -1046.6873 208.8855 562.6179
v -973.5605 182.6522 569.9614
v -971.0186 184.5865 567.8377
v -971.0186 184.5865 575.488
v -973.5605 182.6522 575.488
v -1039.8342 184.5865 567.0196
v -971.9656 184.5865 567.0196
v -974.4238 182.6522 569.2156
v -1037.3757 182.6522 569.2156
v -965.1128 213.2486 562.6531
v -962.7449 215.4301 560.6855
v -962.7449 215.4301 575.488
v -965.1128 213.2486 575.488
v -1048.1138 215.4301 559.8723
v -963.6863 215.4301 559.8723
v -965.1128 217.6116 562.7308
v -965.1128 217.6116 575.488
v -1045.7458 217.6116 561.9177
v -966.0537 217.6116 561.9177
v -968.9602 201.9842 565.9556
v -965.1128 208.8855 562.6179
v -965.1128 208.8855 575.488
v -968.9602 201.9842 575.488
v -969.7866 201.9842 565.2416
v -1042.0129 201.9842 565.2416
v -1038.8984 186.5209 569.3782
v -1039.7969 192.9853 568.5563
v -1040.7812 184.5865 567.8377
v -1038.239 182.6522 569.9614
v -1049.0547 215.4301 560.6855
v -1046.6873 217.6116 562.7308
v -1042.8394 201.9842 565.9556
v -1046.6873 217.6116 575.488
v -1039.7969 192.9853 575.488
v -1038.8984 186.5209 575.488
v -1040.7815 184.5865 575.488
v -1038.2395 182.6522 575.488
v -1049.0547 215.4301 575.488
v -1042.8394 201.9842 575.488
gi 0 0 0 0
gw 0.0 0.0 0.0 0.0
gi 0 0 0 0
gw 0.0 0.0 0.0 0.0
gi 0 0 0 0
gw 0.0 0.0 0.0 0.0
gi 0 0 0 0
gw 0.0 0.0 0.0 0.0
gi 0 0 0 0
gw 0.0 0.0 0.0 0.0
gi 0 0 0 0
gw 0.0 0.0 0.0 0.0
gi 0 0 0 0
gw 0.0 0.0 0.0 0.0
gi 0 0 0 0
gw 0.0 0.0 0.0 0.0
gi 0 0 0 0
gw 0.0 0.0 0.0 0.0
gi 0 0 0 0
gw 0.0 0.0 0.0 0.0
gi 0 0 0 0
gw 0.0 0.0 0.0 0.0
gi 0 0 0 0
gw 0.0 0.0 0.0 0.0
gi 0 0 0 0
gw 0.0 0.0 0.0 0.0
gi 0 0 0 0
gw 0.0 0.0 0.0 0.0
gi 0 0 0 0
gw 0.0 0.0 0.0 0.0
gi 0 0 0 0
gw 0.0 0.0 0.0 0.0
gi 0 0 0 0
gw 0.0 0.0 0.0 0.0
gi 0 0 0 0
gw 0.0 0.0 0.0 0.0
gi 0 0 0 0
gw 0.0 0.0 0.0 0.0
gi 0 0 0 0
gw 0.0 0.0 0.0 0.0
gi 0 0 0 0
gw 0.0 0.0 0.0 0.0
gi 0 0 0 0
gw 0.0 0.0 0.0 0.0
gi 0 0 0 0
gw 0.0 0.0 0.0 0.0
gi 0 0 0 0
gw 0.0 0.0 0.0 0.0
gi 0 0 0 0
gw 0.0 0.0 0.0 0.0
gi 0 0 0 0
gw 0.0 0.0 0.0 0.0
gi 0 0 0 0
gw 0.0 0.0 0.0 0.0
gi 0 0 0 0
gw 0.0 0.0 0.0 0.0
gi 0 0 0 0
gw 0.0 0.0 0.0 0.0
gi 0 0 0 0
gw 0.0 0.0 0.0 0.0
gi 0 0 0 0
gw 0.0 0.0 0.0 0.0
gi 0 0 0 0
gw 0.0 0.0 0.0 0.0
gi 0 0 0 0
gw 0.0 0.0 0.0 0.0
gi 0 0 0 0
gw 0.0 0.0 0.0 0.0
gi 0 0 0 0
gw 0.0 0.0 0.0 0.0
gi 0 0 0 0
gw 0.0 0.0 0.0 0.0
gi 0 0 0 0
gw 0.0 0.0 0.0 0.0
gi 0 0 0 0
gw 0.0 0.0 0.0 0.0
gi 0 0 0 0
gw 0.0 0.0 0.0 0.0
gi 0 0 0 0
gw 0.0 0.0 0.0 0.0
gi 0 0 0 0
gw 0.0 0.0 0.0 0.0
gi 0 0 0 0
gw 0.0 0.0 0.0 0.0
gi 0 0 0 0
gw 0.0 0.0 0.0 0.0
gi 0 0 0 0
gw 0.0 0.0 0.0 0.0
gi 0 0 0 0
gw 0.0 0.0 0.0 0.0
gi 0 0 0 0
gw 0.0 0.0 0.0 0.0
gi 0 0 0 0
gw 0.0 0.0 0.0 0.0
gi 0 0 0 0
gw 0.0 0.0 0.0 0.0
gi 0 0 0 0
gw 0.0 0.0 0.0 0.0
gi 0 0 0 0
gw 0.0 0.0 0.0 0.0
gi 0 0 0 0
gw 0.0 0.0 0.0 0.0
gi 0 0 0 0
gw 0.0 0.0 0.0 0.0
gi 0 0 0 0
gw 0.0 0.0 0.0 0.0
gi 0 0 0 0
gw 0.0 0.0 0.0 0.0
vt 0.2773 0.6742
vt 0.2773 0.6911
vt 0.4476 0.6911
vt 0.4476 0.6742
vt 0.4453 0.6933
vt 0.2795 0.6933
vt 0.5504 0.8881
vt 0.5526 0.9084
vt 0.5337 0.9084
vt 0.5337 0.8881
vt 0.7614 0.91
vt 0.6053 0.91
vt 0.6076 0.8897
vt 0.7592 0.8897
vt 0.7776 0.96
vt 0.7775 0.9737
vt 0.5892 0.9737
vt 0.5891 0.96
vt 0.8287 0.9596
vt 0.8287 0.9733
vt 0.7937 0.9733
vt 0.7936 0.9596
vt 0.9865 0.7672
vt 0.9959 0.7791
vt 0.9632 0.7791
vt 0.9619 0.7672
vt 0.2524 0.779
vt 0.0111 0.779
vt 0.0112 0.7672
vt 0.2525 0.7672
vt 0.5337 0.882
vt 0.5546 0.882
vt 0.6034 0.8836
vt 0.7634 0.8836
vt 0.5687 0.9721
vt 0.5741 0.979
vt 0.5337 0.979
vt 0.5337 0.9721
vt 0.7829 0.9806
vt 0.5839 0.9806
vt 0.5685 0.9859
vt 0.5337 0.9859
vt 0.7773 0.9875
vt 0.5894 0.9875
vt 0.5597 0.9367
vt 0.5688 0.9584
vt 0.5337 0.9584
vt 0.5337 0.9367
vt 0.5982 0.9383
vt 0.7685 0.9383
vt 0.605 0.8907
vt 0.6028 0.9094
vt 0.8121 0.8892
vt 0.8098 0.9096
vt 0.8073 0.909
vt 0.8095 0.8902
vt 0.5867 0.9726
vt 0.5865 0.9593
vt 0.7912 0.9721
vt 0.791 0.9589
vt 0.6007 0.8862
vt 0.8052 0.8857
vt 0.8079 0.8832
vt 0.0078 0.7789
vt 0.0079 0.7672
vt 0.2558 0.7672
vt 0.2559 0.779
vt 0.5815 0.9806
vt 0.7884 0.9801
vt 0.786 0.9801
vt 0.5871 0.99
vt 0.7939 0.987
vt 0.7916 0.9896
vt 0.5957 0.9372
vt 0.8027 0.9379
vt 0.8002 0.9367
vt 0.0091 0.8976
vt 0.0091 0.876
vt 0.0109 0.8746
vt 0.1674 0.876
vt 0.1655 0.8746
vt 0.1674 0.8976
vt 0.8287 0.9096
vt 0.8287 0.8892
vt 0.2874 0.779
vt 0.2803 0.7672
vt 0.8287 0.8832
vt 0.8287 0.9801
vt 0.8287 0.987
vt 0.8287 0.9379
vn 0.0 -1.0 0.0
vn 0.0 -1.0 -0.0
vn 0.8519 0.3925 -0.3467
vn 0.8738 -0.2937 -0.3876
vn 0.9732 -0.23 0.0
vn 0.9502 0.3116 0.0
vn -0.322 -0.2664 -0.9085
vn 0.322 -0.2664 -0.9085
vn 0.2733 0.3543 -0.8943
vn -0.2731 0.3543 -0.8944
vn -0.3578 -0.2715 -0.8935
vn -0.2669 -0.4559 -0.8491
vn 0.2669 -0.4559 -0.8491
vn 0.3578 -0.2715 -0.8935
vn -0.9678 -0.2516 0.0
vn -0.9159 -0.4015 0.0
vn -0.8 -0.5006 -0.3306
vn -0.8657 -0.2827 -0.4132
vn 0.3225 -0.9398 -0.1134
vn 0.889 -0.06 -0.454
vn 0.9972 -0.0742 0.0
vn 0.3198 -0.9475 -0.0
vn -0.4114 -0.0636 -0.9092
vn 0.4114 -0.0636 -0.9092
vn 0.084 -0.9305 -0.3565
vn -0.0841 -0.9305 -0.3565
vn 0.8 -0.5007 -0.3306
vn 0.8896 0.0025 -0.4567
vn 1.0 0.0 0.0
vn 0.9159 -0.4015 0.0
vn -0.414 0.0031 -0.9103
vn 0.4139 0.0031 -0.9103
vn 0.3667 0.9213 -0.1296
vn 0.3637 0.9315 0.0
vn -0.0967 0.9109 -0.4011
vn 0.0967 0.9109 -0.4011
vn 0.7955 -0.4977 -0.3458
vn 0.8657 -0.2827 -0.4132
vn 0.9678 -0.2516 0.0
vn 0.9142 -0.4053 0.0
vn 0.2906 -0.4578 -0.8402
vn -0.2906 -0.4578 -0.8402
vn -0.8518 0.3925 -0.3469
vn -0.8737 -0.2937 -0.3877
vn -0.889 -0.06 -0.454
vn -0.3224 -0.9398 -0.1133
vn -0.8897 0.0025 -0.4566
vn -0.3667 0.9213 -0.1296
vn -0.7955 -0.4977 -0.3458
vn -0.3637 0.9315 0.0
vn -0.9732 -0.23 0.0
vn -0.9502 0.3117 0.0
vn -0.9972 -0.0741 -0.0
vn -0.3198 -0.9475 -0.0001
vn -1.0 0.0 0.0
vn -0.9142 -0.4053 0.0
vtan 1.0 0.0 0.0 -1.0
vtan 1.0 0.0 0.0 -1.0
vtan -0.3149 -0.1451 -0.938 1.0
vtan -0.3674 0.1235 -0.9218 1.0
vtan 0.0 0.0 -1.0 1.0
vtan 0.0 0.0 -1.0 1.0
vtan -0.9467 0.0906 0.309 1.0
vtan -0.9467 -0.0832 -0.3112 1.0
vtan -0.9617 0.1216 -0.2457 1.0
vtan -0.962 -0.1006 0.2539 1.0
vtan -0.9338 0.104 0.3423 1.0
vtan -0.9637 0.1262 0.2351 1.0
vtan -0.9637 -0.1347 -0.2306 1.0
vtan -0.9336 -0.1228 -0.3366 1.0
vtan 0.0 0.0 1.0 1.0
vtan -0.3052 -0.1348 0.9427 1.0
vtan -0.3941 -0.1243 0.9106 1.0
vtan -0.0368 0.1072 -0.9936 1.0
vtan -0.453 0.0306 -0.891 1.0
vtan -0.0 0.0 -1.0 1.0
vtan -0.911 -0.0037 0.4124 1.0
vtan -0.9112 -0.0044 -0.412 1.0
vtan -0.9632 0.0159 -0.2683 1.0
vtan -0.9632 -0.0158 0.2683 1.0
vtan -0.453 0.0306 -0.891 1.0
vtan -0.8669 0.2807 -0.4119 1.0
vtan -0.9115 0.0287 0.4104 1.0
vtan -0.2802 0.1754 -0.9438 1.0
vtan -0.4567 -0.0013 -0.8896 1.0
vtan -0.9103 -0.0014 0.414 1.0
vtan -0.9103 0.0147 -0.4138 1.0
vtan -0.0479 -0.1204 -0.9916 1.0
vtan -0.9953 -0.0885 0.039 1.0
vtan -0.9939 0.1098 0.0096 1.0
vtan -0.2931 0.1834 -0.9383 1.0
vtan -0.3928 0.1282 -0.9107 1.0
vtan -0.9568 -0.149 -0.2498 1.0
vtan -0.9568 0.1391 0.2552 1.0
vtan -0.5157 0.5131 -0.6862 1.0
vtan -0.4735 -0.3319 -0.8159 1.0
vtan -0.3027 0.1716 0.9375 1.0
vtan -0.3754 -0.0995 0.9215 1.0
vtan -0.8807 -0.268 0.3907 1.0
vtan -0.7382 0.519 0.431 1.0
vtan -0.5724 -0.4719 -0.6706 1.0
vtan -0.4927 -0.3351 -0.8031 1.0
vtan -0.7222 -0.4888 0.4894 1.0
vtan -0.843 -0.3176 0.4341 1.0
vtan -0.2554 0.7578 -0.6004 1.0
vtan -0.7286 0.6223 0.2861 1.0
vtan -0.4512 0.2848 0.8458 1.0
vtan -0.4566 -0.0402 -0.8887 1.0
vtan -0.7153 -0.1635 -0.6795 1.0
vtan -0.3652 0.0131 0.9308 1.0
vtan -0.455 0.0029 0.8905 1.0
vtan -0.4567 0.001 -0.8896 1.0
vtan -0.4566 -0.0001 0.8897 1.0
vtan -0.9098 0.033 0.4138 1.0
vtan -0.9243 0.3449 -0.1635 1.0
vtan -0.1171 0.0925 0.9888 1.0
vtan -0.1909 0.3786 0.9057 1.0
vtan -0.5872 -0.4921 -0.6427 1.0
vtan -0.3016 -0.1699 0.9382 1.0
vtan -0.7041 -0.4922 0.5118 1.0
vtan -0.9315 0.3637 0.0005 1.0
vtan -0.9302 0.3652 -0.0357 1.0
vtan -0.9953 0.0902 -0.0351 1.0
vtan -0.9303 -0.3631 0.0511 1.0
vtan -0.9953 -0.0885 0.039 1.0
vtan -0.9315 -0.3637 0.0 1.0
vtan 0.0 0.0 1.0 1.0
vtan -0.0 0.0 1.0 1.0
vtan -0.0001 -0.0 1.0 1.0
vtan -0.0 -0.0 1.0 1.0
f 51/0/0/0 43/1/0/1 16/2/0/1 
f 51/0/0/0 16/2/0/1 19/3/0/1 
f 22/4/0/1 16/2/0/1 43/1/0/1 
f 22/4/1/1 43/1/1/1 23/5/1/0 
f 0/6/2/2 1/7/3/3 2/8/4/4 
f 0/6/2/2 2/8/4/4 3/9/5/5 
f 4/10/6/6 5/11/7/7 6/12/8/8 
f 4/10/6/6 6/12/8/8 7/13/9/9 
f 8/14/10/10 9/15/11/11 10/16/12/12 
f 8/14/10/10 10/16/12/12 11/17/13/13 
f 12/18/14/14 13/19/15/14 14/20/16/15 
f 12/18/14/14 14/20/16/15 15/21/17/16 
f 16/22/18/17 17/23/19/18 18/24/20/5 
f 16/22/18/17 18/24/20/5 19/25/21/19 
f 20/26/22/20 21/27/23/21 22/28/24/22 
f 20/26/22/20 22/28/24/22 23/29/25/23 
f 0/6/2/2 3/9/5/5 18/30/20/4 
f 0/6/2/2 18/30/20/4 17/31/19/24 
f 7/13/9/9 6/12/8/8 21/32/23/25 
f 7/13/9/9 21/32/23/25 20/33/22/26 
f 24/34/26/27 25/35/27/28 26/36/28/4 
f 24/34/26/27 26/36/28/4 27/37/29/4 
f 28/38/30/29 29/39/31/30 10/16/12/12 
f 28/38/30/29 10/16/12/12 9/15/11/11 
f 30/40/32/31 31/41/33/4 26/36/28/4 
f 30/40/32/31 26/36/28/4 25/35/27/28 
f 32/42/34/32 33/43/35/33 29/39/31/30 
f 32/42/34/32 29/39/31/30 28/38/30/29 
f 34/44/36/34 35/45/37/35 36/46/38/4 
f 34/44/36/34 36/46/38/4 37/47/39/4 
f 8/14/10/10 11/17/13/13 38/48/40/36 
f 8/14/10/10 38/48/40/36 39/49/41/37 
f 1/7/3/3 34/44/36/34 37/47/39/4 
f 1/7/3/3 37/47/39/4 2/8/4/4 
f 39/49/41/37 38/48/40/36 5/11/7/7 
f 39/49/41/37 5/11/7/7 4/10/6/6 
f 0/50/2/38 6/12/8/8 5/11/7/7 
f 0/50/2/38 5/11/7/7 1/51/3/39 
f 40/52/42/40 41/53/43/41 4/54/6/42 
f 40/52/42/40 4/54/6/42 7/55/9/43 
f 11/17/13/13 10/16/12/12 24/56/26/44 
f 11/17/13/13 24/56/26/44 35/57/37/45 
f 15/21/17/16 14/20/16/15 9/58/11/46 
f 15/21/17/16 9/58/11/46 8/59/10/47 
f 0/50/2/38 17/60/19/48 21/32/23/25 
f 0/50/2/38 21/32/23/25 6/12/8/8 
f 40/52/42/40 7/55/9/43 20/61/22/49 
f 40/52/42/40 20/61/22/49 42/62/44/50 
f 21/27/23/21 17/63/19/51 16/64/18/52 
f 21/27/23/21 16/64/18/52 22/28/24/22 
f 20/26/22/20 23/29/25/23 43/65/45/53 
f 20/26/22/20 43/65/45/53 42/66/44/54 
f 24/56/26/44 10/16/12/12 29/39/31/30 
f 24/56/26/44 29/39/31/30 25/67/27/55 
f 14/20/16/15 44/68/46/56 28/69/30/57 
f 14/20/16/15 28/69/30/57 9/58/11/46 
f 29/39/31/30 33/43/35/33 30/70/32/58 
f 29/39/31/30 30/70/32/58 25/67/27/55 
f 28/69/30/57 44/68/46/56 45/71/47/59 
f 28/69/30/57 45/71/47/59 32/72/34/60 
f 34/73/36/61 38/48/40/36 11/17/13/13 
f 34/73/36/61 11/17/13/13 35/57/37/45 
f 46/74/48/62 15/21/17/16 8/59/10/47 
f 46/74/48/62 8/59/10/47 39/75/41/63 
f 1/51/3/39 5/11/7/7 38/48/40/36 
f 1/51/3/39 38/48/40/36 34/73/36/61 
f 41/53/43/41 46/74/48/62 39/75/41/63 
f 41/53/43/41 39/75/41/63 4/54/6/42 
f 31/76/33/64 30/77/32/65 33/78/35/66 
f 31/76/33/64 33/78/35/66 45/79/47/67 
f 33/78/35/66 32/80/34/68 45/79/47/67 
f 47/81/49/69 31/76/33/64 45/79/47/67 
f 48/82/50/14 41/53/43/41 40/52/42/40 
f 48/82/50/14 40/52/42/40 49/83/51/70 
f 36/46/38/4 35/45/37/35 24/34/26/27 
f 36/46/38/4 24/34/26/27 27/37/29/4 
f 50/84/52/71 42/66/44/54 43/65/45/53 
f 50/84/52/71 43/65/45/53 51/85/53/72 
f 50/86/52/73 49/83/51/70 40/52/42/40 
f 50/86/52/73 40/52/42/40 42/62/44/50 
f 52/87/54/14 44/68/46/56 14/20/16/15 
f 52/87/54/14 14/20/16/15 13/19/15/14 
f 52/87/54/14 47/88/49/14 45/71/47/59 
f 52/87/54/14 45/71/47/59 44/68/46/56 
f 12/18/14/14 15/21/17/16 46/74/48/62 
f 12/18/14/14 46/74/48/62 53/89/55/14 
f 53/89/55/14 46/74/48/62 41/53/43/41 
f 53/89/55/14 41/53/43/41 48/82/50/14 
