v -453.4543 517.4015 185.1207
v -453.7098 516.4329 184.8652
v -453.7098 516.4329 224.6946
v -453.4543 517.4014 224.4391
v -453.3153 516.4329 225.0892
v -453.0598 517.4014 224.8337
v -457.2085 511.8852 228.194
v -458.8857 510.635 229.8717
v -458.4912 510.635 230.2662
v -456.814 511.8852 228.5886
v -454.162 514.8397 225.936
v -453.6218 515.7083 225.3957
v -454.0164 515.7083 225.0012
v -454.5565 514.8397 225.5415
v -455.4221 513.6798 226.4074
v -456.2085 512.8038 227.1939
v -455.814 512.8038 227.5884
v -455.0276 513.6798 226.8019
v -455.4221 513.6799 183.1524
v -456.2085 512.8039 182.3659
v -454.0164 515.7084 184.5586
v -453.3153 516.4329 184.4706
v -453.0598 517.4015 184.7261
v -458.4912 510.635 179.2936
v -458.8857 510.635 179.6881
v -457.2085 511.8852 181.3658
v -456.814 511.8852 180.9712
v -453.6217 515.7084 184.1641
v -454.162 514.8397 183.6238
v -454.5565 514.8397 184.0183
v -455.814 512.8039 181.9714
v -455.0276 513.6799 182.7579
v -408.3182 510.635 179.2936
v -409.9955 511.8852 180.9712
v -412.6475 514.8397 183.6238
v -413.1877 515.7084 184.1641
v -411.7819 513.6799 182.7579
v -410.9955 512.8039 181.9714
v -413.4941 516.4329 184.4706
v -413.3551 517.4015 185.1207
v -413.0996 516.4329 184.8652
v -413.7496 517.4015 184.7261
v -409.601 511.8852 181.3658
v -407.9237 510.635 179.6881
v -412.7932 515.7084 184.5586
v -412.2529 514.8397 184.0183
v -411.3873 513.6799 183.1524
v -410.601 512.8039 182.3659
v -458.8857 509.8055 229.8717
v -458.4912 509.8055 230.2662
v -458.8857 509.8055 179.6881
v -408.3182 509.8055 179.2936
v -458.4912 509.8055 179.2936
v -407.9237 509.8055 179.6881
v -460.8748 509.8055 231.8302
v -460.4493 509.8055 232.2556
v -460.8748 509.8055 177.7296
v -406.3601 509.8055 177.3042
v -460.4493 509.8055 177.3042
v -405.9347 509.8055 177.7296
v -460.8748 506.6332 231.8302
v -460.4493 506.6332 232.2556
v -460.8748 506.6332 177.7296
v -406.3601 506.6332 177.3042
v -460.4493 506.6332 177.3042
v -405.9347 506.6332 177.7296
v -413.3551 517.4014 224.4391
v -413.0996 516.4329 224.6946
v -411.3873 513.6798 226.4074
v -410.601 512.8038 227.1939
v -412.7932 515.7083 225.0012
v -413.4941 516.4329 225.0892
v -413.7496 517.4014 224.8337
v -408.3182 510.635 230.2662
v -407.9237 510.635 229.8717
v -409.601 511.8852 228.194
v -409.9955 511.8852 228.5886
v -413.1877 515.7083 225.3957
v -412.6475 514.8397 225.936
v -412.2529 514.8397 225.5415
v -410.9955 512.8038 227.5884
v -411.7819 513.6798 226.8019
v -407.9237 509.8055 229.8717
v -408.3182 509.8055 230.2662
v -405.9347 509.8055 231.8302
v -406.3601 509.8055 232.2556
v -405.9347 506.6332 231.8302
v -406.3601 506.6332 232.2556
gi 0 0 0 0
gw 0.0 0.0 0.0 0.0
gi 0 0 0 0
gw 0.0 0.0 0.0 0.0
gi 0 0 0 0
gw 0.0 0.0 0.0 0.0
gi 0 0 0 0
gw 0.0 0.0 0.0 0.0
gi 0 0 0 0
gw 0.0 0.0 0.0 0.0
gi 0 0 0 0
gw 0.0 0.0 0.0 0.0
gi 0 0 0 0
gw 0.0 0.0 0.0 0.0
gi 0 0 0 0
gw 0.0 0.0 0.0 0.0
gi 0 0 0 0
gw 0.0 0.0 0.0 0.0
gi 0 0 0 0
gw 0.0 0.0 0.0 0.0
gi 0 0 0 0
gw 0.0 0.0 0.0 0.0
gi 0 0 0 0
gw 0.0 0.0 0.0 0.0
gi 0 0 0 0
gw 0.0 0.0 0.0 0.0
gi 0 0 0 0
gw 0.0 0.0 0.0 0.0
gi 0 0 0 0
gw 0.0 0.0 0.0 0.0
gi 0 0 0 0
gw 0.0 0.0 0.0 0.0
gi 0 0 0 0
gw 0.0 0.0 0.0 0.0
gi 0 0 0 0
gw 0.0 0.0 0.0 0.0
gi 0 0 0 0
gw 0.0 0.0 0.0 0.0
gi 0 0 0 0
gw 0.0 0.0 0.0 0.0
gi 0 0 0 0
gw 0.0 0.0 0.0 0.0
gi 0 0 0 0
gw 0.0 0.0 0.0 0.0
gi 0 0 0 0
gw 0.0 0.0 0.0 0.0
gi 0 0 0 0
gw 0.0 0.0 0.0 0.0
gi 0 0 0 0
gw 0.0 0.0 0.0 0.0
gi 0 0 0 0
gw 0.0 0.0 0.0 0.0
gi 0 0 0 0
gw 0.0 0.0 0.0 0.0
gi 0 0 0 0
gw 0.0 0.0 0.0 0.0
gi 0 0 0 0
gw 0.0 0.0 0.0 0.0
gi 0 0 0 0
gw 0.0 0.0 0.0 0.0
gi 0 0 0 0
gw 0.0 0.0 0.0 0.0
gi 0 0 0 0
gw 0.0 0.0 0.0 0.0
gi 0 0 0 0
gw 0.0 0.0 0.0 0.0
gi 0 0 0 0
gw 0.0 0.0 0.0 0.0
gi 0 0 0 0
gw 0.0 0.0 0.0 0.0
gi 0 0 0 0
gw 0.0 0.0 0.0 0.0
gi 0 0 0 0
gw 0.0 0.0 0.0 0.0
gi 0 0 0 0
gw 0.0 0.0 0.0 0.0
gi 0 0 0 0
gw 0.0 0.0 0.0 0.0
gi 0 0 0 0
gw 0.0 0.0 0.0 0.0
gi 0 0 0 0
gw 0.0 0.0 0.0 0.0
gi 0 0 0 0
gw 0.0 0.0 0.0 0.0
gi 0 0 0 0
gw 0.0 0.0 0.0 0.0
gi 0 0 0 0
gw 0.0 0.0 0.0 0.0
gi 0 0 0 0
gw 0.0 0.0 0.0 0.0
gi 0 0 0 0
gw 0.0 0.0 0.0 0.0
gi 0 0 0 0
gw 0.0 0.0 0.0 0.0
gi 0 0 0 0
gw 0.0 0.0 0.0 0.0
gi 0 0 0 0
gw 0.0 0.0 0.0 0.0
gi 0 0 0 0
gw 0.0 0.0 0.0 0.0
gi 0 0 0 0
gw 0.0 0.0 0.0 0.0
gi 0 0 0 0
gw 0.0 0.0 0.0 0.0
gi 0 0 0 0
gw 0.0 0.0 0.0 0.0
gi 0 0 0 0
gw 0.0 0.0 0.0 0.0
gi 0 0 0 0
gw 0.0 0.0 0.0 0.0
gi 0 0 0 0
gw 0.0 0.0 0.0 0.0
gi 0 0 0 0
gw 0.0 0.0 0.0 0.0
gi 0 0 0 0
gw 0.0 0.0 0.0 0.0
gi 0 0 0 0
gw 0.0 0.0 0.0 0.0
gi 0 0 0 0
gw 0.0 0.0 0.0 0.0
gi 0 0 0 0
gw 0.0 0.0 0.0 0.0
gi 0 0 0 0
gw 0.0 0.0 0.0 0.0
gi 0 0 0 0
gw 0.0 0.0 0.0 0.0
gi 0 0 0 0
gw 0.0 0.0 0.0 0.0
gi 0 0 0 0
gw 0.0 0.0 0.0 0.0
gi 0 0 0 0
gw 0.0 0.0 0.0 0.0
gi 0 0 0 0
gw 0.0 0.0 0.0 0.0
gi 0 0 0 0
gw 0.0 0.0 0.0 0.0
gi 0 0 0 0
gw 0.0 0.0 0.0 0.0
gi 0 0 0 0
gw 0.0 0.0 0.0 0.0
gi 0 0 0 0
gw 0.0 0.0 0.0 0.0
gi 0 0 0 0
gw 0.0 0.0 0.0 0.0
gi 0 0 0 0
gw 0.0 0.0 0.0 0.0
gi 0 0 0 0
gw 0.0 0.0 0.0 0.0
gi 0 0 0 0
gw 0.0 0.0 0.0 0.0
gi 0 0 0 0
gw 0.0 0.0 0.0 0.0
gi 0 0 0 0
gw 0.0 0.0 0.0 0.0
gi 0 0 0 0
gw 0.0 0.0 0.0 0.0
gi 0 0 0 0
gw 0.0 0.0 0.0 0.0
gi 0 0 0 0
gw 0.0 0.0 0.0 0.0
gi 0 0 0 0
gw 0.0 0.0 0.0 0.0
gi 0 0 0 0
gw 0.0 0.0 0.0 0.0
gi 0 0 0 0
gw 0.0 0.0 0.0 0.0
gi 0 0 0 0
gw 0.0 0.0 0.0 0.0
gi 0 0 0 0
gw 0.0 0.0 0.0 0.0
gi 0 0 0 0
gw 0.0 0.0 0.0 0.0
gi 0 0 0 0
gw 0.0 0.0 0.0 0.0
gi 0 0 0 0
gw 0.0 0.0 0.0 0.0
vt 0.2734 0.7237
vt 0.2788 0.7224
vt 0.2788 0.949
vt 0.2733 0.9476
vt 0.2778 0.9519
vt 0.2712 0.9499
vt 0.3052 0.9689
vt 0.3147 0.9785
vt 0.3144 0.9807
vt 0.3029 0.9712
vt 0.286 0.9566
vt 0.2816 0.9534
vt 0.2829 0.9508
vt 0.2879 0.9539
vt 0.2945 0.9588
vt 0.2995 0.9633
vt 0.2972 0.9656
vt 0.2922 0.9615
vt 0.2945 0.7126
vt 0.2995 0.7081
vt 0.2829 0.7206
vt 0.2711 0.7216
vt 0.2725 0.7161
vt 0.2755 0.7168
vt 0.302 0.6802
vt 0.3045 0.6818
vt 0.2947 0.692
vt 0.2924 0.6897
vt 0.2768 0.7135
vt 0.2743 0.7119
vt 0.2773 0.707
vt 0.2801 0.7089
vt 0.2867 0.6954
vt 0.2891 0.6976
vt 0.285 0.7026
vt 0.2823 0.7004
vt 0.0164 0.6802
vt 0.026 0.6897
vt 0.0411 0.707
vt 0.0441 0.7119
vt 0.0361 0.7004
vt 0.0317 0.6953
vt 0.0459 0.7161
vt 0.0451 0.7238
vt 0.044 0.7173
vt 0.0473 0.7216
vt 0.0237 0.692
vt 0.014 0.6812
vt 0.0416 0.7135
vt 0.0383 0.7089
vt 0.0334 0.7026
vt 0.0293 0.6976
vt 0.3052 0.7024
vt 0.3147 0.6929
vt 0.2879 0.7175
vt 0.3194 0.9785
vt 0.3184 0.9812
vt 0.3194 0.6929
vt 0.0164 0.6754
vt 0.302 0.6754
vt 0.3048 0.6767
vt 0.0138 0.6766
vt 0.3307 0.9896
vt 0.3283 0.9921
vt 0.3307 0.6817
vt 0.0053 0.6641
vt 0.3131 0.6641
vt 0.316 0.6653
vt 0.0029 0.6653
vt 0.3488 0.9896
vt 0.3488 0.9921
vt 0.3307 0.9921
vt 0.3488 0.6817
vt 0.0053 0.6461
vt 0.3131 0.6461
vt 0.3155 0.6461
vt 0.0029 0.6461
vt 0.0473 0.9498
vt 0.0451 0.9476
vn -0.622 0.7482 -0.231
vn -0.8483 0.4106 -0.3342
vn -0.8483 0.4106 0.3342
vn -0.6219 0.7482 0.231
vn -0.3343 0.4106 0.8483
vn -0.2311 0.7482 0.6219
vn -0.5035 0.8445 0.1824
vn -0.8141 0.4594 0.3551
vn -0.355 0.4594 0.8142
vn -0.1825 0.8445 0.5035
vn -0.2649 0.6653 0.698
vn -0.2968 0.5643 0.7704
vn -0.7704 0.5643 0.2969
vn -0.698 0.6653 0.2649
vn -0.6399 0.7303 0.239
vn -0.575 0.7904 0.2114
vn -0.2114 0.7904 0.575
vn -0.239 0.7304 0.6399
vn -0.6399 0.7303 -0.239
vn -0.575 0.7904 -0.2114
vn -0.7703 0.5643 -0.2969
vn -0.2311 0.7482 -0.6219
vn -0.3343 0.4106 -0.8483
vn -0.3551 0.4594 -0.8142
vn -0.8141 0.4594 -0.3551
vn -0.5035 0.8445 -0.1824
vn -0.1825 0.8445 -0.5035
vn -0.2968 0.5643 -0.7704
vn -0.2649 0.6653 -0.698
vn -0.698 0.6653 -0.2649
vn -0.2114 0.7904 -0.575
vn -0.239 0.7304 -0.6399
vn 0.355 0.4594 -0.8142
vn 0.1825 0.8445 -0.5035
vn 0.2649 0.6653 -0.698
vn 0.2968 0.5643 -0.7704
vn 0.239 0.7304 -0.6399
vn 0.2114 0.7904 -0.575
vn 0.3343 0.4106 -0.8483
vn 0.622 0.7482 -0.231
vn 0.8484 0.4105 -0.3342
vn 0.2311 0.7482 -0.6219
vn 0.5035 0.8445 -0.1824
vn 0.8142 0.4594 -0.3551
vn 0.7704 0.5643 -0.2969
vn 0.698 0.6653 -0.2649
vn 0.6399 0.7303 -0.239
vn 0.575 0.7903 -0.2114
vn -0.5491 0.8042 0.2275
vn -0.2275 0.8042 0.5491
vn -0.5491 0.8042 -0.2275
vn 0.2275 0.8042 -0.5491
vn -0.2275 0.8042 -0.5492
vn 0.5491 0.8042 -0.2274
vn -0.7173 0.6303 0.2971
vn -0.2971 0.6303 0.7173
vn -0.7173 0.6303 -0.2971
vn 0.2971 0.6303 -0.7173
vn -0.2971 0.6303 -0.7173
vn 0.7173 0.6303 -0.2971
vn -0.9239 0.0 0.3827
vn -0.3826 0.0 0.9239
vn -0.9239 0.0 -0.3827
vn 0.3827 0.0 -0.9239
vn -0.3826 0.0 -0.9239
vn 0.9239 0.0 -0.3827
vn 0.6219 0.7482 0.231
vn 0.8484 0.4106 0.3342
vn 0.6399 0.7303 0.239
vn 0.575 0.7903 0.2114
vn 0.7704 0.5643 0.2969
vn 0.3343 0.4106 0.8483
vn 0.2311 0.7482 0.622
vn 0.3551 0.4594 0.8142
vn 0.8141 0.4594 0.3551
vn 0.5035 0.8445 0.1824
vn 0.1825 0.8445 0.5034
vn 0.2968 0.5643 0.7704
vn 0.2649 0.6653 0.698
vn 0.698 0.6653 0.2649
vn 0.2114 0.7904 0.575
vn 0.239 0.7304 0.6399
vn 0.5491 0.8042 0.2275
vn 0.2275 0.8042 0.5491
vn 0.7173 0.6303 0.2971
vn 0.2971 0.6303 0.7173
vn 0.9239 0.0 0.3827
vn 0.3827 0.0 0.9239
vtan -0.783 -0.5904 0.1957 1.0
vtan -0.4235 -0.9051 -0.0371 1.0
vtan -0.4242 -0.9049 0.0351 1.0
vtan -0.7698 -0.6383 -0.005 1.0
vtan -0.5586 -0.8113 0.1725 1.0
vtan -0.9425 -0.3308 0.0477 1.0
vtan -0.8583 -0.5132 0.0066 1.0
vtan -0.4997 -0.8658 -0.0255 1.0
vtan -0.6816 -0.7233 0.1109 1.0
vtan -0.9601 -0.2634 0.0939 1.0
vtan -0.833 -0.5225 0.1819 1.0
vtan -0.7466 -0.6401 0.1812 1.0
vtan -0.5869 -0.8095 0.0156 1.0
vtan -0.6823 -0.7302 0.0359 1.0
vtan -0.7448 -0.666 0.0413 1.0
vtan -0.8075 -0.5899 0.0091 1.0
vtan -0.9333 -0.3379 0.1213 1.0
vtan -0.869 -0.4549 0.1947 1.0
vtan -0.7462 -0.6648 -0.0336 1.0
vtan -0.8047 -0.593 -0.028 1.0
vtan -0.5828 -0.812 -0.0313 1.0
vtan -0.9729 -0.1761 0.1497 1.0
vtan -0.9423 -0.1287 0.3091 1.0
vtan -0.5014 -0.4205 0.7561 1.0
vtan -0.9331 -0.2267 0.279 1.0
vtan -0.5771 -0.5724 0.5825 1.0
vtan -0.8609 -0.5083 0.023 1.0
vtan -0.9777 -0.2102 0.0017 1.0
vtan -0.636 -0.6467 0.4211 1.0
vtan -0.9536 -0.2186 0.2072 1.0
vtan -0.9603 -0.2476 0.1285 1.0
vtan -0.716 -0.6422 0.2738 1.0
vtan -0.9707 -0.2384 0.0291 1.0
vtan -0.8152 -0.5753 0.0664 1.0
vtan -0.7666 -0.6282 0.1327 1.0
vtan -0.9636 -0.26 0.0632 1.0
vtan -0.9347 0.1587 -0.3181 1.0
vtan -0.9775 0.2109 -0.0005 1.0
vtan -0.9603 0.2475 -0.1285 1.0
vtan -0.9533 0.2219 -0.2048 1.0
vtan -0.9639 0.2583 -0.0651 1.0
vtan -0.9694 0.2445 -0.0202 1.0
vtan -0.9413 0.1908 -0.2786 1.0
vtan -0.7748 0.5452 -0.3202 1.0
vtan -0.5181 0.514 -0.6837 1.0
vtan -0.9729 0.1832 -0.1412 1.0
vtan -0.8618 0.5059 -0.0369 1.0
vtan -0.5572 0.4462 -0.7003 1.0
vtan -0.6342 0.6298 -0.4486 1.0
vtan -0.716 0.6422 -0.2738 1.0
vtan -0.7667 0.6279 -0.1339 1.0
vtan -0.8134 0.5801 -0.0439 1.0
vtan -0.8561 -0.5162 -0.0264 1.0
vtan -0.4675 -0.8813 -0.0683 1.0
vtan -0.6816 -0.7307 -0.039 1.0
vtan -0.8163 -0.5745 0.0601 1.0
vtan -0.8215 -0.4613 0.3352 1.0
vtan -0.8251 -0.565 -0.0055 1.0
vtan -0.9642 0.1071 -0.2425 1.0
vtan -0.9655 -0.113 0.2344 1.0
vtan -0.7662 -0.3757 0.5213 1.0
vtan -0.7565 0.3626 -0.5443 1.0
vtan -0.6553 -0.7551 0.0199 1.0
vtan -0.9546 -0.2128 -0.2084 1.0
vtan -0.6378 -0.7656 -0.0842 1.0
vtan -0.9451 0.0868 -0.3151 1.0
vtan -0.947 -0.0983 0.3058 1.0
vtan -0.6322 -0.4094 0.6578 1.0
vtan -0.6331 0.4114 -0.6557 1.0
vtan 0.0 -1.0 0.0 1.0
vtan -0.2412 -0.7764 0.5823 1.0
vtan 0.0 -1.0 0.0 1.0
vtan -0.9239 0.0 -0.3827 1.0
vtan -0.9237 -0.0197 0.3826 1.0
vtan -0.3827 0.0 0.9239 1.0
vtan -0.3824 0.0373 -0.9232 1.0
vtan 0.7261 -0.6615 0.1876 1.0
vtan 0.4234 -0.9052 0.0371 1.0
vtan 0.4257 -0.9044 -0.0304 1.0
vtan 0.7317 -0.6604 -0.1689 1.0
vtan 0.7462 -0.6648 0.0336 1.0
vtan 0.8047 -0.593 0.028 1.0
vtan 0.8033 -0.5944 -0.0369 1.0
vtan 0.7463 -0.6648 -0.0335 1.0
vtan 0.5828 -0.812 0.0313 1.0
vtan 0.5828 -0.812 -0.0313 1.0
vtan 0.9423 -0.1287 -0.3091 1.0
vtan 0.5014 -0.4205 -0.7562 1.0
vtan 0.7279 -0.4436 -0.5228 1.0
vtan 0.9729 -0.1817 -0.1429 1.0
vtan 0.9331 -0.2267 -0.279 1.0
vtan 0.5771 -0.5724 -0.5825 1.0
vtan 0.8609 -0.5083 -0.023 1.0
vtan 0.9777 -0.2102 -0.0017 1.0
vtan 0.636 -0.6467 -0.4211 1.0
vtan 0.9535 -0.2187 -0.2072 1.0
vtan 0.9603 -0.2475 -0.1285 1.0
vtan 0.716 -0.6421 -0.2738 1.0
vtan 0.9707 -0.2384 -0.0291 1.0
vtan 0.8152 -0.5754 -0.0664 1.0
vtan 0.7666 -0.6282 -0.1327 1.0
vtan 0.9636 -0.2599 -0.0632 1.0
vtan 0.9348 0.1745 0.3092 1.0
vtan 0.9832 0.1567 0.0936 1.0
vtan 0.9643 0.1828 0.1918 1.0
vtan 0.9549 0.1754 0.2395 1.0
vtan 0.971 0.1795 0.1578 1.0
vtan 0.9774 0.1706 0.1248 1.0
vtan 0.9425 0.1457 0.3009 1.0
vtan 0.9729 0.1777 0.1477 1.0
vtan 0.8561 -0.5161 0.0264 1.0
vtan 0.4676 -0.8813 0.0683 1.0
vtan 0.4686 -0.881 -0.0656 1.0
vtan 0.8563 -0.5158 -0.0242 1.0
vtan 0.6817 -0.7306 0.039 1.0
vtan 0.6816 -0.7307 -0.0392 1.0
vtan 0.8251 -0.565 0.0055 1.0
vtan 0.8242 -0.5662 -0.0121 1.0
vtan 0.9738 0.1878 0.1283 1.0
vtan 0.9655 -0.113 -0.2344 1.0
vtan 0.7662 -0.3757 -0.5213 1.0
vtan 0.6378 -0.7656 0.0842 1.0
vtan 0.6369 -0.766 -0.0872 1.0
vtan 0.9549 0.1961 0.2232 1.0
vtan 0.947 -0.0983 -0.3058 1.0
vtan 0.6322 -0.4094 -0.6578 1.0
vtan 0.9239 0.0 0.3826 1.0
vtan 0.9237 -0.0197 -0.3826 1.0
vtan 0.3827 0.0 -0.9239 1.0
vtan -0.9729 0.1747 0.1513 1.0
vtan -0.7828 0.5867 0.2072 1.0
f 0/0/0/0 1/1/1/1 2/2/2/2 
f 0/0/0/0 2/2/2/2 3/3/3/3 
f 3/3/3/3 2/2/2/2 4/4/4/4 
f 3/3/3/3 4/4/4/4 5/5/5/5 
f 6/6/6/6 7/7/7/7 8/8/8/8 
f 6/6/6/6 8/8/8/8 9/9/9/9 
f 10/10/10/10 11/11/11/11 12/12/12/12 
f 10/10/10/10 12/12/12/12 13/13/13/13 
f 14/14/14/14 15/15/15/15 16/16/16/16 
f 14/14/14/14 16/16/16/16 17/17/17/17 
f 15/15/15/15 6/6/6/6 9/9/9/9 
f 15/15/15/15 9/9/9/9 16/16/16/16 
f 17/17/17/17 10/10/10/10 13/13/13/13 
f 17/17/17/17 13/13/13/13 14/14/14/14 
f 11/11/11/11 4/4/4/4 2/2/2/2 
f 11/11/11/11 2/2/2/2 12/12/12/12 
f 18/18/18/18 19/19/19/19 15/15/15/15 
f 18/18/18/18 15/15/15/15 14/14/14/14 
f 1/1/1/1 20/20/20/20 12/12/12/12 
f 1/1/1/1 12/12/12/12 2/2/2/2 
f 0/0/0/0 22/21/21/21 21/22/22/22 
f 0/0/0/0 21/22/22/22 1/23/1/23 
f 23/24/23/24 24/25/24/25 25/26/25/26 
f 23/24/23/24 25/26/25/26 26/27/26/27 
f 20/28/20/28 27/29/27/29 28/30/28/30 
f 20/28/20/28 28/30/28/30 29/31/29/31 
f 30/32/30/32 19/33/19/33 18/34/18/34 
f 30/32/30/32 18/34/18/34 31/35/31/35 
f 26/27/26/27 25/26/25/26 19/33/19/33 
f 26/27/26/27 19/33/19/33 30/32/30/32 
f 29/31/29/31 28/30/28/30 31/35/31/35 
f 29/31/29/31 31/35/31/35 18/34/18/34 
f 1/23/1/23 21/22/22/22 27/29/27/29 
f 1/23/1/23 27/29/27/29 20/28/20/28 
f 32/36/32/36 23/24/23/24 26/27/26/27 
f 32/36/32/36 26/27/26/27 33/37/33/37 
f 34/38/34/38 28/30/28/30 27/29/27/29 
f 34/38/34/38 27/29/27/29 35/39/35/39 
f 30/32/30/32 31/35/31/35 36/40/36/40 
f 30/32/30/32 36/40/36/40 37/41/37/41 
f 36/40/36/40 31/35/31/35 28/30/28/30 
f 36/40/36/40 28/30/28/30 34/38/34/38 
f 33/37/33/37 26/27/26/27 30/32/30/32 
f 33/37/33/37 30/32/30/32 37/41/37/41 
f 35/39/35/39 27/29/27/29 21/22/22/22 
f 35/39/35/39 21/22/22/22 38/42/38/42 
f 39/43/39/43 40/44/40/44 38/42/38/42 
f 39/43/39/43 38/42/38/42 41/45/41/45 
f 42/46/42/46 43/47/43/47 32/36/32/36 
f 42/46/42/46 32/36/32/36 33/37/33/37 
f 34/38/34/38 35/39/35/39 44/48/44/48 
f 34/38/34/38 44/48/44/48 45/49/45/49 
f 46/50/46/50 47/51/47/51 37/41/37/41 
f 46/50/46/50 37/41/37/41 36/40/36/40 
f 47/51/47/51 42/46/42/46 33/37/33/37 
f 47/51/47/51 33/37/33/37 37/41/37/41 
f 36/40/36/40 34/38/34/38 45/49/45/49 
f 36/40/36/40 45/49/45/49 46/50/46/50 
f 35/39/35/39 38/42/38/42 40/44/40/44 
f 35/39/35/39 40/44/40/44 44/48/44/48 
f 21/22/22/22 22/21/21/21 41/45/41/45 
f 21/22/22/22 41/45/41/45 38/42/38/42 
f 25/52/25/52 24/53/24/53 7/7/7/7 
f 25/52/25/52 7/7/7/7 6/6/6/6 
f 20/20/20/20 29/54/29/54 13/13/13/13 
f 20/20/20/20 13/13/13/13 12/12/12/12 
f 29/54/29/54 18/18/18/18 14/14/14/14 
f 29/54/29/54 14/14/14/14 13/13/13/13 
f 19/19/19/19 25/52/25/52 6/6/6/6 
f 19/19/19/19 6/6/6/6 15/15/15/15 
f 7/7/7/7 48/55/48/55 49/56/49/56 
f 7/7/7/7 49/56/49/56 8/8/8/8 
f 50/57/50/57 48/55/48/55 7/7/7/7 
f 50/57/50/57 7/7/7/7 24/53/24/53 
f 32/36/32/36 51/58/51/58 52/59/52/59 
f 32/36/32/36 52/59/52/59 23/24/23/24 
f 23/24/23/24 52/59/52/59 50/60/50/60 
f 23/24/23/24 50/60/50/60 24/25/24/25 
f 43/47/43/47 53/61/53/61 51/58/51/58 
f 43/47/43/47 51/58/51/58 32/36/32/36 
f 48/55/48/55 54/62/54/62 55/63/55/63 
f 48/55/48/55 55/63/55/63 49/56/49/56 
f 50/57/50/57 56/64/56/64 54/62/54/62 
f 50/57/50/57 54/62/54/62 48/55/48/55 
f 51/58/51/58 57/65/57/65 58/66/58/66 
f 51/58/51/58 58/66/58/66 52/59/52/59 
f 52/59/52/59 58/66/58/66 56/67/56/67 
f 52/59/52/59 56/67/56/67 50/60/50/60 
f 53/61/53/61 59/68/59/68 57/65/57/65 
f 53/61/53/61 57/65/57/65 51/58/51/58 
f 60/69/60/69 61/70/61/69 55/71/55/70 
f 60/69/60/69 55/71/55/70 54/62/54/62 
f 62/72/62/71 60/69/60/69 54/62/54/62 
f 62/72/62/71 54/62/54/62 56/64/56/64 
f 63/73/63/72 64/74/64/73 58/66/58/66 
f 63/73/63/72 58/66/58/66 57/65/57/65 
f 64/74/64/73 62/75/62/74 56/67/56/67 
f 64/74/64/73 56/67/56/67 58/66/58/66 
f 65/76/65/75 63/73/63/72 57/65/57/65 
f 65/76/65/75 57/65/57/65 59/68/59/68 
f 66/0/66/76 67/1/67/77 40/2/40/78 
f 66/0/66/76 40/2/40/78 39/3/39/79 
f 68/18/68/80 69/19/69/81 47/15/47/82 
f 68/18/68/80 47/15/47/82 46/14/46/83 
f 67/1/67/77 70/20/70/84 44/12/44/85 
f 67/1/67/77 44/12/44/85 40/2/40/78 
f 71/22/71/86 67/23/67/87 66/0/66/88 
f 71/22/71/86 66/0/66/88 72/21/72/89 
f 73/24/73/90 74/25/74/91 75/26/75/92 
f 73/24/73/90 75/26/75/92 76/27/76/93 
f 70/28/70/94 77/29/77/95 78/30/78/96 
f 70/28/70/94 78/30/78/96 79/31/79/97 
f 80/32/80/98 69/33/69/99 68/34/68/100 
f 80/32/80/98 68/34/68/100 81/35/81/101 
f 76/27/76/93 75/26/75/92 69/33/69/99 
f 76/27/76/93 69/33/69/99 80/32/80/98 
f 79/31/79/97 78/30/78/96 81/35/81/101 
f 79/31/79/97 81/35/81/101 68/34/68/100 
f 67/23/67/87 71/22/71/86 77/29/77/95 
f 67/23/67/87 77/29/77/95 70/28/70/94 
f 8/36/8/102 73/24/73/90 76/27/76/93 
f 8/36/8/102 76/27/76/93 9/37/9/103 
f 10/38/10/104 78/30/78/96 77/29/77/95 
f 10/38/10/104 77/29/77/95 11/39/11/105 
f 80/32/80/98 81/35/81/101 17/40/17/106 
f 80/32/80/98 17/40/17/106 16/41/16/107 
f 17/40/17/106 81/35/81/101 78/30/78/96 
f 17/40/17/106 78/30/78/96 10/38/10/104 
f 9/37/9/103 76/27/76/93 80/32/80/98 
f 9/37/9/103 80/32/80/98 16/41/16/107 
f 11/39/11/105 77/29/77/95 71/22/71/86 
f 11/39/11/105 71/22/71/86 4/42/4/108 
f 71/22/71/86 72/21/72/89 5/45/5/109 
f 71/22/71/86 5/45/5/109 4/42/4/108 
f 75/52/75/110 74/53/74/111 43/7/43/112 
f 75/52/75/110 43/7/43/112 42/6/42/113 
f 70/20/70/84 79/54/79/114 45/13/45/115 
f 70/20/70/84 45/13/45/115 44/12/44/85 
f 79/54/79/114 68/18/68/80 46/14/46/83 
f 79/54/79/114 46/14/46/83 45/13/45/115 
f 69/19/69/81 75/52/75/110 42/6/42/113 
f 69/19/69/81 42/6/42/113 47/15/47/82 
f 82/57/82/116 53/55/53/117 43/7/43/112 
f 82/57/82/116 43/7/43/112 74/53/74/111 
f 8/36/8/102 49/58/49/118 83/59/83/119 
f 8/36/8/102 83/59/83/119 73/24/73/90 
f 73/24/73/90 83/59/83/119 82/60/82/120 
f 73/24/73/90 82/60/82/120 74/25/74/91 
f 82/57/82/116 84/64/84/121 59/62/59/122 
f 82/57/82/116 59/62/59/122 53/55/53/117 
f 49/58/49/118 55/65/55/123 85/66/85/124 
f 49/58/49/118 85/66/85/124 83/59/83/119 
f 83/59/83/119 85/66/85/124 84/67/84/125 
f 83/59/83/119 84/67/84/125 82/60/82/120 
f 86/72/86/69 65/69/65/69 59/62/59/122 
f 86/72/86/69 59/62/59/122 84/64/84/121 
f 61/73/61/126 87/74/87/127 85/66/85/124 
f 61/73/61/126 85/66/85/124 55/65/55/123 
f 87/74/87/127 86/75/86/128 84/67/84/125 
f 87/74/87/127 84/67/84/125 85/66/85/124 
f 39/43/39/43 41/45/41/45 72/77/72/129 
f 39/43/39/43 72/77/72/129 66/78/66/130 
f 72/77/72/129 41/45/41/45 3/3/3/3 
f 72/77/72/129 3/3/3/3 5/5/5/5 
f 22/21/21/21 0/0/0/0 3/3/3/3 
f 22/21/21/21 3/3/3/3 41/45/41/45 
