v -1424.1924 186.5209 569.615
v -1423.5601 192.9853 568.7933
v -1423.5601 192.9853 575.7249
v -1424.1924 186.5209 575.7248
v -1424.6558 182.6522 570.1982
v -1422.8682 184.5865 568.0745
v -1422.8682 184.5865 575.7248
v -1424.6558 182.6522 575.7248
v -1418.7144 213.2485 562.8898
v -1417.0488 215.4301 560.9222
v -1417.0488 215.4301 575.7249
v -1418.7144 213.2485 575.7249
v -1418.7144 217.6116 562.9677
v -1418.7144 217.6116 575.7249
v -1421.4199 201.9842 566.1924
v -1418.7144 208.8855 562.8547
v -1418.7144 208.8855 575.7249
v -1421.4199 201.9842 575.7249
v -1424.6841 186.5209 569.0107
v -1424.0337 192.9853 568.2117
v -1419.1938 208.8855 562.2657
v -1419.208 213.2485 562.2834
v -1417.5747 215.4301 560.2767
v -1419.2393 217.6116 562.3223
v -1421.9053 201.9842 565.5967
v -1430.1499 182.6522 575.7254
v -1425.6514 182.6522 570.1991
v -1423.3945 184.5865 567.427
v -1425.1533 182.6522 569.587
v -1430.1499 217.6116 575.7256
v -1425.1758 186.5209 568.4063
v -1430.1494 186.5209 568.4064
v -1430.1494 192.9853 567.6302
v -1424.5068 192.9853 567.6302
v -1425.6509 182.6522 568.976
v -1430.1494 182.6522 568.976
v -1430.1494 184.5865 566.7794
v -1423.9219 184.5865 566.7794
v -1419.7017 213.2485 561.6769
v -1430.1494 213.2485 561.6769
v -1430.1494 215.4301 559.631
v -1418.1001 215.4301 559.631
v -1430.1494 217.6116 561.6769
v -1419.7651 217.6116 561.6769
v -1422.3896 201.9842 565.0013
v -1430.1494 201.9842 565.0013
v -1430.1494 208.8855 561.6769
v -1419.6729 208.8855 561.6769
gi 0 0 0 0
gw 0.0 0.0 0.0 0.0
gi 0 0 0 0
gw 0.0 0.0 0.0 0.0
gi 0 0 0 0
gw 0.0 0.0 0.0 0.0
gi 0 0 0 0
gw 0.0 0.0 0.0 0.0
gi 0 0 0 0
gw 0.0 0.0 0.0 0.0
gi 0 0 0 0
gw 0.0 0.0 0.0 0.0
gi 0 0 0 0
gw 0.0 0.0 0.0 0.0
gi 0 0 0 0
gw 0.0 0.0 0.0 0.0
gi 0 0 0 0
gw 0.0 0.0 0.0 0.0
gi 0 0 0 0
gw 0.0 0.0 0.0 0.0
gi 0 0 0 0
gw 0.0 0.0 0.0 0.0
gi 0 0 0 0
gw 0.0 0.0 0.0 0.0
gi 0 0 0 0
gw 0.0 0.0 0.0 0.0
gi 0 0 0 0
gw 0.0 0.0 0.0 0.0
gi 0 0 0 0
gw 0.0 0.0 0.0 0.0
gi 0 0 0 0
gw 0.0 0.0 0.0 0.0
gi 0 0 0 0
gw 0.0 0.0 0.0 0.0
gi 0 0 0 0
gw 0.0 0.0 0.0 0.0
gi 0 0 0 0
gw 0.0 0.0 0.0 0.0
gi 0 0 0 0
gw 0.0 0.0 0.0 0.0
gi 0 0 0 0
gw 0.0 0.0 0.0 0.0
gi 0 0 0 0
gw 0.0 0.0 0.0 0.0
gi 0 0 0 0
gw 0.0 0.0 0.0 0.0
gi 0 0 0 0
gw 0.0 0.0 0.0 0.0
gi 0 0 0 0
gw 0.0 0.0 0.0 0.0
gi 0 0 0 0
gw 0.0 0.0 0.0 0.0
gi 0 0 0 0
gw 0.0 0.0 0.0 0.0
gi 0 0 0 0
gw 0.0 0.0 0.0 0.0
gi 0 0 0 0
gw 0.0 0.0 0.0 0.0
gi 0 0 0 0
gw 0.0 0.0 0.0 0.0
gi 0 0 0 0
gw 0.0 0.0 0.0 0.0
gi 0 0 0 0
gw 0.0 0.0 0.0 0.0
gi 0 0 0 0
gw 0.0 0.0 0.0 0.0
gi 0 0 0 0
gw 0.0 0.0 0.0 0.0
gi 0 0 0 0
gw 0.0 0.0 0.0 0.0
gi 0 0 0 0
gw 0.0 0.0 0.0 0.0
gi 0 0 0 0
gw 0.0 0.0 0.0 0.0
gi 0 0 0 0
gw 0.0 0.0 0.0 0.0
gi 0 0 0 0
gw 0.0 0.0 0.0 0.0
gi 0 0 0 0
gw 0.0 0.0 0.0 0.0
gi 0 0 0 0
gw 0.0 0.0 0.0 0.0
gi 0 0 0 0
gw 0.0 0.0 0.0 0.0
gi 0 0 0 0
gw 0.0 0.0 0.0 0.0
gi 0 0 0 0
gw 0.0 0.0 0.0 0.0
gi 0 0 0 0
gw 0.0 0.0 0.0 0.0
gi 0 0 0 0
gw 0.0 0.0 0.0 0.0
gi 0 0 0 0
gw 0.0 0.0 0.0 0.0
gi 0 0 0 0
gw 0.0 0.0 0.0 0.0
vt 0.4476 0.6742
vt 0.427 0.6742
vt 0.4439 0.6911
vt 0.4476 0.6911
vt 0.4457 0.6929
vt 0.5504 0.8881
vt 0.5526 0.9084
vt 0.5337 0.9084
vt 0.5337 0.8881
vt 0.9865 0.7672
vt 0.9959 0.7791
vt 0.9632 0.7791
vt 0.9619 0.7672
vt 0.5337 0.882
vt 0.5546 0.882
vt 0.5687 0.9721
vt 0.5741 0.979
vt 0.5337 0.979
vt 0.5337 0.9721
vt 0.5685 0.9859
vt 0.5337 0.9859
vt 0.5597 0.9367
vt 0.5688 0.9584
vt 0.5337 0.9584
vt 0.5337 0.9367
vt 0.6028 0.9094
vt 0.605 0.8907
vt 0.6071 0.8899
vt 0.605 0.9099
vt 0.5887 0.9599
vt 0.5888 0.9735
vt 0.5867 0.9726
vt 0.5865 0.9593
vt 0.5834 0.9806
vt 0.5815 0.9806
vt 0.589 0.988
vt 0.5871 0.99
vt 0.5978 0.9381
vt 0.5957 0.9372
vt 0.6007 0.8862
vt 0.6028 0.8842
vt 0.0078 0.7789
vt 0.0079 0.7672
vt 0.0107 0.7672
vt 0.0104 0.779
vt 0.0091 0.8976
vt 0.0091 0.876
vt 0.0105 0.8749
vt 0.0406 0.8976
vn 0.0 -1.0 0.0
vn 0.0 -1.0 0.0
vn 0.0 -1.0 0.0
vn 0.0 -1.0 0.0
vn 0.9118 0.3114 -0.2676
vn 0.9231 -0.2214 -0.3144
vn 0.9863 -0.1647 0.0
vn 0.9686 0.2488 0.0
vn 0.4051 -0.9096 -0.0917
vn 0.915 -0.0672 -0.3978
vn 0.9973 -0.0728 0.0
vn 0.401 -0.9161 -0.0
vn 0.8773 -0.4015 -0.2631
vn 0.9163 0.0033 -0.4005
vn 1.0 0.0 0.0
vn 0.9473 -0.3203 0.0
vn 0.4484 0.8877 -0.1047
vn 0.4433 0.8964 0.0
vn 0.8737 -0.3895 -0.2915
vn 0.9078 -0.2349 -0.3475
vn 0.9826 -0.1857 0.0
vn 0.9543 -0.2989 0.0
vn 0.7355 0.318 -0.5983
vn 0.7508 -0.2505 -0.6112
vn 0.7473 -0.2678 -0.6081
vn 0.7058 -0.4146 -0.5745
vn 0.7755 0.0047 -0.6314
vn 0.2665 0.9391 -0.217
vn 0.6985 -0.4345 -0.5687
vn 0.7734 -0.0758 -0.6293
vn 0.2357 -0.9527 -0.1918
vn 0.0 1.0 0.0
vn 0.3715 0.3627 -0.8547
vn 0.0 0.2859 -0.9583
vn -0.0 -0.2005 -0.9797
vn 0.408 -0.2541 -0.8769
vn 0.138 -0.9239 -0.3568
vn 0.0 -0.9355 -0.3535
vn 0.0 -0.0747 -0.9972
vn 0.4598 -0.0629 -0.8858
vn 0.3557 -0.462 -0.8124
vn -0.0 -0.3678 -0.9299
vn -0.0 0.0 -1.0
vn 0.4625 0.0025 -0.8866
vn 0.0 0.9176 -0.3974
vn 0.1561 0.9026 -0.4011
vn 0.3737 -0.4407 -0.8161
vn 0.0 -0.3584 -0.9336
vn -0.0 -0.2226 -0.9749
vn 0.4273 -0.251 -0.8686
vtan 1.0 0.0 -0.0002 -1.0
vtan 1.0 0.0 -0.0001 -1.0
vtan 1.0 0.0 -0.0006 -1.0
vtan 1.0 0.0 -0.0009 -1.0
vtan 1.0 0.0 -0.0009 -1.0
vtan 1.0 0.0 -0.0009 -1.0
vtan 1.0 0.0 -0.0009 -1.0
vtan 0.0004 -0.0 -1.0 1.0
vtan 0.0004 -0.0 -1.0 1.0
vtan 0.0004 -0.0 -1.0 1.0
vtan 0.0001 0.0 -1.0 1.0
vtan 0.0001 0.0 -1.0 1.0
vtan 0.0004 -0.0 -1.0 1.0
vtan 0.0004 -0.0 -1.0 1.0
vtan 0.0004 -0.0 -1.0 1.0
vtan -0.2532 -0.0865 -0.9635 1.0
vtan -0.3058 0.0733 -0.9493 1.0
vtan 0.0 0.0 -1.0 1.0
vtan -0.0373 0.0838 -0.9958 1.0
vtan -0.3967 0.0291 -0.9175 1.0
vtan -0.0 0.0 -1.0 1.0
vtan -0.3967 0.0291 -0.9175 1.0
vtan -0.2392 0.1095 -0.9648 1.0
vtan -0.4005 -0.0014 -0.9163 1.0
vtan -0.0472 -0.0934 -0.9945 1.0
vtan 0.0 0.0 -1.0 1.0
vtan -0.2662 0.1187 -0.9566 1.0
vtan -0.3364 0.087 -0.9377 1.0
vtan 0.0 0.0 -1.0 1.0
vtan -0.3696 -0.2851 -0.8844 1.0
vtan -0.4013 0.538 -0.7413 1.0
vtan -0.6756 0.4112 -0.612 1.0
vtan -0.6588 -0.217 -0.7203 1.0
vtan -0.6637 -0.2559 -0.7029 1.0
vtan -0.7031 -0.3106 -0.6396 1.0
vtan -0.4488 -0.4917 -0.7462 1.0
vtan -0.4118 -0.3415 -0.8449 1.0
vtan -0.6314 0.0 -0.7755 1.0
vtan -0.4005 0.0249 -0.916 1.0
vtan -0.943 0.2075 -0.2603 1.0
vtan -0.8834 0.4223 -0.2029 1.0
vtan -0.7128 -0.3517 -0.6068 1.0
vtan -0.4654 -0.4949 -0.7338 1.0
vtan -0.2213 0.7408 -0.6342 1.0
vtan -0.4285 0.6691 -0.6072 1.0
vtan -0.4008 -0.0379 -0.9154 1.0
vtan -0.5662 -0.1709 -0.8063 1.0
vtan -0.6348 -0.0015 -0.7727 1.0
vtan -0.6323 -0.0217 -0.7745 1.0
vtan -0.8964 0.4433 0.0003 1.0
vtan -0.8938 0.4464 -0.0435 1.0
vtan -0.9638 0.2605 -0.0563 1.0
vtan -1.0 -0.0 0.0001 1.0
vtan 0.9284 -0.1451 0.342 -1.0
vtan 1.0 -0.0 -0.0 -1.0
vtan 1.0 0.0 -0.0 -1.0
vtan 0.913 0.1135 0.3918 -1.0
vtan 0.9904 0.1288 0.0497 -1.0
vtan 1.0 0.0 0.0 -1.0
vtan 1.0 0.0 0.0 -1.0
vtan 0.888 0.0326 0.4586 -1.0
vtan 1.0 0.0 -0.0 -1.0
vtan 0.888 0.0326 0.4586 -1.0
vtan 0.9346 0.1758 0.3092 -1.0
vtan 1.0 -0.0 -0.0 -1.0
vtan 1.0 0.0 -0.0 -1.0
vtan 0.8866 -0.0013 0.4625 -1.0
vtan 1.0 0.0 0.0 -1.0
vtan 0.9877 -0.1427 0.0634 -1.0
vtan 0.9275 0.1776 0.3288 -1.0
vtan 1.0 0.0 -0.0 -1.0
vtan 1.0 0.0 -0.0 -1.0
vtan 0.9041 0.1186 0.4105 -1.0
vtan 0.672 0.5301 0.5171 -1.0
vtan 0.8063 -0.3503 0.4766 -1.0
vtan 0.5794 -0.1947 0.7915 -1.0
vtan 0.5125 0.3165 0.7982 -1.0
vtan 0.6473 -0.5053 0.5707 -1.0
vtan 0.4714 -0.3306 0.8176 -1.0
vtan 0.5554 -0.2507 0.7929 -1.0
vtan 0.7872 -0.3692 0.494 -1.0
vtan 0.8866 0.0011 0.4625 -1.0
vtan 0.6311 0.0238 0.7753 -1.0
vtan 0.1408 0.3816 0.9135 -1.0
vtan -0.0059 0.2267 0.974 -1.0
vtan 0.6325 -0.5225 0.5718 -1.0
vtan 0.4625 -0.3323 0.822 -1.0
vtan 0.5653 0.5317 0.6306 -1.0
vtan 0.5665 0.7889 0.2381 -1.0
vtan 0.63 -0.0173 0.7764 -1.0
vtan 0.6315 0.0001 0.7754 -1.0
vtan 0.6664 -0.1799 0.7236 -1.0
vtan 0.8849 -0.0508 0.463 -1.0
vtan 0.0573 0.2093 0.9762 -1.0
vtan 0.0635 0.3961 0.916 -1.0
vtan -0.0002 0.3974 0.9176 -1.0
vtan -0.0 -0.0 1.0 -1.0
f 7/0/0/0 25/1/0/1 26/2/0/2 
f 7/0/0/0 26/2/0/2 4/3/0/3 
f 28/4/1/4 4/3/1/5 26/2/1/6 
f 35/0/2/7 34/3/2/8 26/2/2/9 
f 35/0/0/10 26/2/0/11 25/1/0/10 
f 28/4/3/12 26/2/3/13 34/3/3/14 
f 0/5/4/15 1/6/5/16 2/7/6/17 
f 0/5/4/15 2/7/6/17 3/8/7/17 
f 4/9/8/18 5/10/9/19 6/11/10/17 
f 4/9/8/18 6/11/10/17 7/12/11/20 
f 0/5/4/15 3/8/7/17 6/13/10/17 
f 0/5/4/15 6/13/10/17 5/14/9/21 
f 8/15/12/22 9/16/13/23 10/17/14/17 
f 8/15/12/22 10/17/14/17 11/18/15/17 
f 12/19/16/24 13/20/17/25 10/17/14/17 
f 12/19/16/24 10/17/14/17 9/16/13/23 
f 14/21/18/26 15/22/19/27 16/23/20/17 
f 14/21/18/26 16/23/20/17 17/24/21/28 
f 1/6/5/16 14/21/18/26 17/24/21/28 
f 1/6/5/16 17/24/21/28 2/7/6/17 
f 1/25/5/29 0/26/4/30 18/27/22/31 
f 1/25/5/29 18/27/22/31 19/28/23/32 
f 20/29/24/33 21/30/25/34 8/31/12/35 
f 20/29/24/33 8/31/12/35 15/32/19/36 
f 21/30/25/34 22/33/26/37 9/34/13/38 
f 21/30/25/34 9/34/13/38 8/31/12/35 
f 9/34/13/38 22/33/26/37 23/35/27/39 
f 9/34/13/38 23/35/27/39 12/36/16/40 
f 24/37/28/41 20/29/24/33 15/32/19/36 
f 24/37/28/41 15/32/19/36 14/38/18/42 
f 19/28/23/32 24/37/28/41 14/38/18/42 
f 19/28/23/32 14/38/18/42 1/25/5/29 
f 16/23/20/17 15/22/19/27 8/15/12/22 
f 16/23/20/17 8/15/12/22 11/18/15/17 
f 18/27/22/31 0/26/4/30 5/39/9/43 
f 18/27/22/31 5/39/9/43 27/40/29/44 
f 5/41/9/45 4/42/8/46 28/43/30/47 
f 5/41/9/45 28/43/30/47 27/44/29/48 
f 13/45/17/49 12/46/16/50 23/47/27/51 
f 13/45/17/49 23/47/27/51 29/48/31/52 
f 30/5/32/53 31/8/33/54 32/7/34/55 
f 30/5/32/53 32/7/34/55 33/6/35/56 
f 34/9/36/57 35/12/37/58 36/11/38/59 
f 34/9/36/57 36/11/38/59 37/10/39/60 
f 36/13/38/61 31/8/33/54 30/5/32/53 
f 36/13/38/61 30/5/32/53 37/14/39/62 
f 38/15/40/63 39/18/41/64 40/17/42/65 
f 38/15/40/63 40/17/42/65 41/16/43/66 
f 40/17/42/65 42/20/44/67 43/19/45/68 
f 40/17/42/65 43/19/45/68 41/16/43/66 
f 44/21/46/69 45/24/47/70 46/23/48/71 
f 44/21/46/69 46/23/48/71 47/22/49/72 
f 33/6/35/56 32/7/34/55 45/24/47/70 
f 33/6/35/56 45/24/47/70 44/21/46/69 
f 30/26/32/73 33/25/35/74 19/28/23/75 
f 30/26/32/73 19/28/23/75 18/27/22/76 
f 38/31/40/77 21/30/25/78 20/29/24/79 
f 38/31/40/77 20/29/24/79 47/32/49/80 
f 38/31/40/77 41/34/43/81 22/33/26/82 
f 38/31/40/77 22/33/26/82 21/30/25/78 
f 43/36/45/83 23/35/27/84 22/33/26/82 
f 43/36/45/83 22/33/26/82 41/34/43/81 
f 44/38/46/85 47/32/49/80 20/29/24/79 
f 44/38/46/85 20/29/24/79 24/37/28/86 
f 33/25/35/74 44/38/46/85 24/37/28/86 
f 33/25/35/74 24/37/28/86 19/28/23/75 
f 38/15/40/63 47/22/49/72 46/23/48/71 
f 38/15/40/63 46/23/48/71 39/18/41/64 
f 27/40/29/87 37/39/39/88 30/26/32/73 
f 27/40/29/87 30/26/32/73 18/27/22/76 
f 27/44/29/89 28/43/30/90 34/42/36/91 
f 27/44/29/89 34/42/36/91 37/41/39/92 
f 23/47/27/93 43/46/45/94 42/45/44/95 
f 23/47/27/93 42/45/44/95 29/48/31/96 
