v 913.3156 186.5211 -640.858
v 913.3156 186.5211 -646.9679
v 914.2369 192.9855 -646.9678
v 914.2369 192.9855 -640.0363
v 912.4467 186.5211 -640.1261
v 913.4224 192.9855 -639.3499
v 845.5257 192.9855 -639.3499
v 846.5013 186.5211 -640.1261
v 920.4302 213.2488 -633.3975
v 838.5174 213.2488 -633.3975
v 838.4755 208.8857 -633.3975
v 920.4721 208.8857 -633.3975
v 837.6443 213.2488 -634.1328
v 837.6443 213.2488 -646.9678
v 837.6443 208.8857 -646.9678
v 837.6443 208.8857 -634.0977
v 912.6396 182.6524 -641.4413
v 912.6396 182.6524 -646.9679
v 915.2466 184.5867 -646.9679
v 915.2466 184.5867 -639.3175
v 911.7541 182.6524 -640.6954
v 914.2755 184.5867 -638.4995
v 844.6725 184.5867 -638.4995
v 847.1937 182.6524 -640.6954
v 921.303 213.2488 -634.1328
v 921.303 213.2488 -646.9678
v 923.7315 215.4303 -646.9678
v 923.7315 215.4303 -632.1652
v 922.7661 215.4303 -631.3521
v 836.1815 215.4303 -631.3521
v 921.303 217.6118 -646.9678
v 921.303 217.6118 -634.2106
v 920.3381 217.6118 -633.3975
v 838.6098 217.6118 -633.3975
v 917.3571 201.9844 -637.4354
v 917.3571 201.9844 -646.9678
v 921.303 208.8857 -646.9678
v 921.303 208.8857 -634.0977
v 916.5101 201.9844 -636.7213
v 842.4379 201.9844 -636.7213
v 844.7108 192.9855 -640.0363
v 845.6324 186.5211 -640.858
v 843.7014 184.5867 -639.3175
v 846.3082 182.6524 -641.4413
v 835.2162 215.4303 -632.1652
v 837.6443 217.6118 -634.2106
v 841.5905 201.9844 -637.4354
v 837.6443 217.6118 -646.9678
v 844.7108 192.9855 -646.9678
v 845.6324 186.5211 -646.9679
v 843.7011 184.5867 -646.9679
v 846.308 182.6524 -646.9679
v 835.2162 215.4303 -646.9678
v 841.5906 201.9844 -646.9678
gi 0 0 0 0
gw 0.0 0.0 0.0 0.0
gi 0 0 0 0
gw 0.0 0.0 0.0 0.0
gi 0 0 0 0
gw 0.0 0.0 0.0 0.0
gi 0 0 0 0
gw 0.0 0.0 0.0 0.0
gi 0 0 0 0
gw 0.0 0.0 0.0 0.0
gi 0 0 0 0
gw 0.0 0.0 0.0 0.0
gi 0 0 0 0
gw 0.0 0.0 0.0 0.0
gi 0 0 0 0
gw 0.0 0.0 0.0 0.0
gi 0 0 0 0
gw 0.0 0.0 0.0 0.0
gi 0 0 0 0
gw 0.0 0.0 0.0 0.0
gi 0 0 0 0
gw 0.0 0.0 0.0 0.0
gi 0 0 0 0
gw 0.0 0.0 0.0 0.0
gi 0 0 0 0
gw 0.0 0.0 0.0 0.0
gi 0 0 0 0
gw 0.0 0.0 0.0 0.0
gi 0 0 0 0
gw 0.0 0.0 0.0 0.0
gi 0 0 0 0
gw 0.0 0.0 0.0 0.0
gi 0 0 0 0
gw 0.0 0.0 0.0 0.0
gi 0 0 0 0
gw 0.0 0.0 0.0 0.0
gi 0 0 0 0
gw 0.0 0.0 0.0 0.0
gi 0 0 0 0
gw 0.0 0.0 0.0 0.0
gi 0 0 0 0
gw 0.0 0.0 0.0 0.0
gi 0 0 0 0
gw 0.0 0.0 0.0 0.0
gi 0 0 0 0
gw 0.0 0.0 0.0 0.0
gi 0 0 0 0
gw 0.0 0.0 0.0 0.0
gi 0 0 0 0
gw 0.0 0.0 0.0 0.0
gi 0 0 0 0
gw 0.0 0.0 0.0 0.0
gi 0 0 0 0
gw 0.0 0.0 0.0 0.0
gi 0 0 0 0
gw 0.0 0.0 0.0 0.0
gi 0 0 0 0
gw 0.0 0.0 0.0 0.0
gi 0 0 0 0
gw 0.0 0.0 0.0 0.0
gi 0 0 0 0
gw 0.0 0.0 0.0 0.0
gi 0 0 0 0
gw 0.0 0.0 0.0 0.0
gi 0 0 0 0
gw 0.0 0.0 0.0 0.0
gi 0 0 0 0
gw 0.0 0.0 0.0 0.0
gi 0 0 0 0
gw 0.0 0.0 0.0 0.0
gi 0 0 0 0
gw 0.0 0.0 0.0 0.0
gi 0 0 0 0
gw 0.0 0.0 0.0 0.0
gi 0 0 0 0
gw 0.0 0.0 0.0 0.0
gi 0 0 0 0
gw 0.0 0.0 0.0 0.0
gi 0 0 0 0
gw 0.0 0.0 0.0 0.0
gi 0 0 0 0
gw 0.0 0.0 0.0 0.0
gi 0 0 0 0
gw 0.0 0.0 0.0 0.0
gi 0 0 0 0
gw 0.0 0.0 0.0 0.0
gi 0 0 0 0
gw 0.0 0.0 0.0 0.0
gi 0 0 0 0
gw 0.0 0.0 0.0 0.0
gi 0 0 0 0
gw 0.0 0.0 0.0 0.0
gi 0 0 0 0
gw 0.0 0.0 0.0 0.0
gi 0 0 0 0
gw 0.0 0.0 0.0 0.0
gi 0 0 0 0
gw 0.0 0.0 0.0 0.0
gi 0 0 0 0
gw 0.0 0.0 0.0 0.0
gi 0 0 0 0
gw 0.0 0.0 0.0 0.0
gi 0 0 0 0
gw 0.0 0.0 0.0 0.0
gi 0 0 0 0
gw 0.0 0.0 0.0 0.0
gi 0 0 0 0
gw 0.0 0.0 0.0 0.0
vt 0.4476 0.6911
vt 0.2773 0.6911
vt 0.2773 0.6742
vt 0.4476 0.6742
vt 0.4453 0.6933
vt 0.2795 0.6933
vt 0.5504 0.8881
vt 0.5337 0.8881
vt 0.5337 0.9084
vt 0.5526 0.9084
vt 0.6076 0.8897
vt 0.6053 0.91
vt 0.7614 0.91
vt 0.7592 0.8897
vt 0.5892 0.9737
vt 0.7775 0.9737
vt 0.7776 0.96
vt 0.5891 0.96
vt 0.7937 0.9733
vt 0.8287 0.9733
vt 0.8287 0.9596
vt 0.7936 0.9596
vt 0.9865 0.7672
vt 0.9619 0.7672
vt 0.9632 0.7791
vt 0.9959 0.7791
vt 0.0112 0.7672
vt 0.0111 0.779
vt 0.2524 0.779
vt 0.2525 0.7672
vt 0.5546 0.882
vt 0.5337 0.882
vt 0.6034 0.8836
vt 0.7634 0.8836
vt 0.5687 0.9721
vt 0.5337 0.9721
vt 0.5337 0.979
vt 0.5741 0.979
vt 0.5839 0.9806
vt 0.7829 0.9806
vt 0.5337 0.9859
vt 0.5685 0.9859
vt 0.5894 0.9875
vt 0.7773 0.9875
vt 0.5597 0.9367
vt 0.5337 0.9367
vt 0.5337 0.9584
vt 0.5688 0.9584
vt 0.5982 0.9383
vt 0.7685 0.9383
vt 0.605 0.8907
vt 0.6028 0.9094
vt 0.8073 0.909
vt 0.8098 0.9096
vt 0.8121 0.8892
vt 0.8095 0.8902
vt 0.5867 0.9726
vt 0.5865 0.9593
vt 0.7912 0.9721
vt 0.791 0.9589
vt 0.6007 0.8862
vt 0.8079 0.8832
vt 0.8052 0.8857
vt 0.0079 0.7672
vt 0.0078 0.7789
vt 0.2558 0.7672
vt 0.2559 0.779
vt 0.5815 0.9806
vt 0.786 0.9801
vt 0.7884 0.9801
vt 0.5871 0.99
vt 0.7916 0.9896
vt 0.7939 0.987
vt 0.5957 0.9372
vt 0.8027 0.9379
vt 0.8002 0.9367
vt 0.1674 0.876
vt 0.1655 0.8746
vt 0.0109 0.8746
vt 0.0091 0.8976
vt 0.0091 0.876
vt 0.1674 0.8976
vt 0.8287 0.9096
vt 0.8287 0.8892
vt 0.2874 0.779
vt 0.2803 0.7672
vt 0.8287 0.8832
vt 0.8287 0.9801
vt 0.8287 0.987
vt 0.8287 0.9379
vn 0.0 -1.0 -0.0
vn 0.0 -1.0 0.0
vn 0.0 -1.0 0.0
vn 0.8468 0.3982 0.3528
vn 0.9488 0.316 0.0
vn 0.9719 -0.2354 0.0
vn 0.8696 -0.2994 0.3926
vn 0.2666 0.3533 0.8967
vn 0.316 -0.267 0.9104
vn -0.3159 -0.267 0.9104
vn -0.2666 0.3533 0.8967
vn 0.2611 -0.4551 0.8513
vn -0.261 -0.4551 0.8514
vn -0.3526 -0.273 0.8951
vn 0.3527 -0.273 0.895
vn -0.7937 -0.5075 0.3354
vn -0.9133 -0.4072 0.0
vn -0.9665 -0.2568 -0.0
vn -0.8625 -0.2861 0.4175
vn 0.3166 -0.9416 0.1149
vn 0.314 -0.9494 0.0
vn 0.9973 -0.0739 0.0
vn 0.8873 -0.0594 0.4573
vn 0.0809 -0.9308 0.3564
vn 0.4075 -0.0637 0.911
vn -0.4075 -0.0637 0.911
vn -0.0808 -0.9308 0.3565
vn 0.7937 -0.5075 0.3353
vn 0.9133 -0.4073 0.0
vn 1.0 0.0 0.0
vn 0.8879 0.0024 0.46
vn 0.41 0.0031 0.9121
vn -0.41 0.0031 0.9121
vn 0.3578 0.9338 -0.0
vn 0.3607 0.9234 0.1314
vn 0.0932 0.9113 0.4011
vn -0.0932 0.9113 0.4011
vn 0.789 -0.5056 0.3491
vn 0.9104 -0.4138 0.0
vn 0.9665 -0.2568 0.0
vn 0.8625 -0.2861 0.4174
vn 0.2851 -0.4587 0.8416
vn -0.285 -0.4587 0.8416
vn -0.8696 -0.2994 0.3927
vn -0.8468 0.3982 0.3528
vn -0.8873 -0.0594 0.4574
vn -0.3166 -0.9416 0.1149
vn -0.8879 0.0025 0.46
vn -0.3607 0.9234 0.1314
vn -0.7889 -0.5056 0.3492
vn -0.3579 0.9338 0.0
vn -0.9719 -0.2355 0.0
vn -0.9488 0.316 0.0
vn -0.9973 -0.0739 0.0
vn -0.3141 -0.9494 -0.0
vn -1.0 -0.0 0.0
vn -0.9104 -0.4138 -0.0
vtan 1.0 0.0 0.0 1.0
vtan -0.3192 -0.1501 0.9357 -1.0
vtan 0.0 0.0 1.0 -1.0
vtan 0.0 0.0 1.0 -1.0
vtan -0.3712 0.1278 0.9197 -1.0
vtan -0.9636 0.1184 0.2398 -1.0
vtan -0.9487 -0.0814 0.3055 -1.0
vtan -0.9488 0.0889 -0.3032 -1.0
vtan -0.9638 -0.0977 -0.248 -1.0
vtan -0.9653 -0.1314 0.2257 -1.0
vtan -0.9653 0.123 -0.2302 -1.0
vtan -0.9358 0.1029 -0.3373 -1.0
vtan -0.9356 -0.1211 0.3317 -1.0
vtan -0.3115 -0.1345 -0.9407 -1.0
vtan 0.0 0.0 -1.0 -1.0
vtan 0.0 -0.0 -1.0 -1.0
vtan -0.3991 -0.1228 -0.9086 -1.0
vtan -0.0366 0.1089 0.9934 -1.0
vtan -0.0 0.0 1.0 -1.0
vtan -0.4563 0.0306 0.8893 -1.0
vtan -0.9654 0.0158 0.2603 -1.0
vtan -0.9129 -0.0043 0.4081 -1.0
vtan -0.9127 -0.0038 -0.4086 -1.0
vtan -0.9654 -0.0159 -0.2602 -1.0
vtan -0.4563 0.0306 0.8893 -1.0
vtan -0.8696 0.2776 0.4084 -1.0
vtan -0.9132 0.0284 -0.4065 -1.0
vtan -0.2825 0.1806 0.9421 -1.0
vtan -0.46 -0.0013 0.8879 -1.0
vtan -0.912 0.0144 0.4099 -1.0
vtan -0.9121 -0.0014 -0.41 -1.0
vtan 0.0 0.0 1.0 -1.0
vtan -0.0478 -0.1224 0.9913 -1.0
vtan -0.9943 0.1058 -0.0093 -1.0
vtan -0.9957 -0.0853 -0.0375 -1.0
vtan -0.2939 0.1883 0.9371 -1.0
vtan -0.3962 0.1314 0.9087 -1.0
vtan -0.9584 -0.1461 0.2451 -1.0
vtan -0.9585 0.1364 -0.2503 -1.0
vtan -0.5242 0.5117 0.6808 -1.0
vtan -0.4808 -0.333 0.8111 -1.0
vtan -0.8847 -0.2637 -0.3844 -1.0
vtan -0.3812 -0.0985 -0.9192 -1.0
vtan -0.3085 0.1727 -0.9354 -1.0
vtan -0.745 0.5148 -0.4243 -1.0
vtan -0.5814 -0.4708 0.6636 -1.0
vtan -0.4982 -0.3355 0.7995 -1.0
vtan -0.7298 -0.4843 -0.4826 -1.0
vtan -0.8471 -0.3134 -0.4293 -1.0
vtan -0.2649 0.7461 0.6109 -1.0
vtan -0.4544 0.2823 -0.8449 -1.0
vtan -0.7296 0.6227 -0.2829 -1.0
vtan -0.7248 -0.162 0.6697 -1.0
vtan -0.4599 -0.0404 0.8871 -1.0
vtan -0.3738 0.0125 -0.9274 -1.0
vtan -0.4583 0.0028 -0.8888 -1.0
vtan -0.46 0.001 0.8879 -1.0
vtan -0.9116 0.0329 -0.4098 -1.0
vtan -0.46 -0.0001 -0.8879 -1.0
vtan -0.9269 0.3392 0.1603 -1.0
vtan -0.1958 0.3782 -0.9048 -1.0
vtan -0.121 0.0934 -0.9882 -1.0
vtan -0.5957 -0.4906 0.6359 -1.0
vtan -0.3067 -0.1684 -0.9368 -1.0
vtan -0.7111 -0.4876 -0.5066 -1.0
vtan -0.9327 -0.3571 -0.0508 -1.0
vtan -0.9957 -0.0853 -0.0375 -1.0
vtan -0.9956 0.087 0.0338 -1.0
vtan -0.9338 0.3578 -0.0005 -1.0
vtan -0.9326 0.3592 0.0359 -1.0
vtan -0.9338 -0.3579 0.0 -1.0
vtan -0.0 0.0 -1.0 -1.0
vtan -0.0 0.0 -1.0 -1.0
vtan -0.0 -0.0 -1.0 -1.0
vtan 0.0 -0.0 -1.0 -1.0
f 16/0/0/0 43/1/0/0 51/2/0/0 
f 16/0/1/0 51/2/1/0 17/3/1/0 
f 43/1/2/0 16/0/2/0 20/4/2/0 
f 43/1/1/0 20/4/1/0 23/5/1/0 
f 0/6/3/1 1/7/4/2 2/8/5/3 
f 0/6/3/1 2/8/5/3 3/9/6/4 
f 4/10/7/5 5/11/8/6 6/12/9/7 
f 4/10/7/5 6/12/9/7 7/13/10/8 
f 8/14/11/9 9/15/12/10 10/16/13/11 
f 8/14/11/9 10/16/13/11 11/17/14/12 
f 12/18/15/13 13/19/16/14 14/20/17/15 
f 12/18/15/13 14/20/17/15 15/21/18/16 
f 16/22/19/17 17/23/20/18 18/24/21/2 
f 16/22/19/17 18/24/21/2 19/25/22/19 
f 20/26/23/20 21/27/24/21 22/28/25/22 
f 20/26/23/20 22/28/25/22 23/29/26/23 
f 0/6/3/1 19/30/22/24 18/31/21/2 
f 0/6/3/1 18/31/21/2 1/7/4/2 
f 21/32/24/25 4/10/7/5 7/13/10/8 
f 21/32/24/25 7/13/10/8 22/33/25/26 
f 24/34/27/27 25/35/28/2 26/36/29/2 
f 24/34/27/27 26/36/29/2 27/37/30/28 
f 8/14/11/9 28/38/31/29 29/39/32/30 
f 8/14/11/9 29/39/32/30 9/15/12/10 
f 26/36/29/2 30/40/33/31 31/41/34/32 
f 26/36/29/2 31/41/34/32 27/37/30/28 
f 28/38/31/29 32/42/35/33 33/43/36/34 
f 28/38/31/29 33/43/36/34 29/39/32/30 
f 34/44/37/35 35/45/38/2 36/46/39/2 
f 34/44/37/35 36/46/39/2 37/47/40/36 
f 38/48/41/37 11/17/14/12 10/16/13/11 
f 38/48/41/37 10/16/13/11 39/49/42/38 
f 3/9/6/4 2/8/5/3 35/45/38/2 
f 3/9/6/4 35/45/38/2 34/44/37/35 
f 5/11/8/6 38/48/41/37 39/49/42/38 
f 5/11/8/6 39/49/42/38 6/12/9/7 
f 0/50/3/39 3/51/6/40 5/11/8/6 
f 0/50/3/39 5/11/8/6 4/10/7/5 
f 6/52/9/41 40/53/43/42 41/54/44/43 
f 6/52/9/41 41/54/44/43 7/55/10/44 
f 24/56/27/45 8/14/11/9 11/17/14/12 
f 24/56/27/45 11/17/14/12 37/57/40/46 
f 9/58/12/47 12/18/15/13 15/21/18/16 
f 9/58/12/47 15/21/18/16 10/59/13/48 
f 0/50/3/39 4/10/7/5 21/32/24/25 
f 0/50/3/39 21/32/24/25 19/60/22/49 
f 41/54/44/43 42/61/45/50 22/62/25/51 
f 41/54/44/43 22/62/25/51 7/55/10/44 
f 21/27/24/21 20/26/23/20 16/63/19/52 
f 21/27/24/21 16/63/19/52 19/64/22/53 
f 43/65/46/54 23/29/26/23 22/28/25/22 
f 43/65/46/54 22/28/25/22 42/66/45/55 
f 24/56/27/45 27/67/30/56 28/38/31/29 
f 24/56/27/45 28/38/31/29 8/14/11/9 
f 29/68/32/57 44/69/47/58 12/18/15/13 
f 29/68/32/57 12/18/15/13 9/58/12/47 
f 31/70/34/59 32/42/35/33 28/38/31/29 
f 31/70/34/59 28/38/31/29 27/67/30/56 
f 29/68/32/57 33/71/36/60 45/72/48/61 
f 29/68/32/57 45/72/48/61 44/69/47/58 
f 34/73/37/62 37/57/40/46 11/17/14/12 
f 34/73/37/62 11/17/14/12 38/48/41/37 
f 10/59/13/48 15/21/18/16 46/74/49/63 
f 10/59/13/48 46/74/49/63 39/75/42/64 
f 3/51/6/40 34/73/37/62 38/48/41/37 
f 3/51/6/40 38/48/41/37 5/11/8/6 
f 39/75/42/64 46/74/49/63 40/53/43/42 
f 39/75/42/64 40/53/43/42 6/52/9/41 
f 45/76/48/65 33/77/36/66 32/78/35/67 
f 45/76/48/65 32/78/35/67 30/79/33/68 
f 32/78/35/67 31/80/34/69 30/79/33/68 
f 47/81/50/70 45/76/48/65 30/79/33/68 
f 41/54/44/43 40/53/43/42 48/82/51/14 
f 41/54/44/43 48/82/51/14 49/83/52/14 
f 24/34/27/27 37/47/40/36 36/46/39/2 
f 24/34/27/27 36/46/39/2 25/35/28/2 
f 43/65/46/54 42/66/45/55 50/84/53/71 
f 43/65/46/54 50/84/53/71 51/85/54/72 
f 50/86/53/73 42/61/45/50 41/54/44/43 
f 50/86/53/73 41/54/44/43 49/83/52/14 
f 12/18/15/13 44/69/47/58 52/87/55/14 
f 12/18/15/13 52/87/55/14 13/19/16/14 
f 52/87/55/14 44/69/47/58 45/72/48/61 
f 52/87/55/14 45/72/48/61 47/88/50/14 
f 46/74/49/63 15/21/18/16 14/20/17/15 
f 46/74/49/63 14/20/17/15 53/89/56/74 
f 40/53/43/42 46/74/49/63 53/89/56/74 
f 40/53/43/42 53/89/56/74 48/82/51/14 
