v -596.1614 186.5209 569.3782
v -595.5298 192.9853 568.5563
v -595.5298 192.9853 575.488
v -596.1614 186.5209 575.488
v -642.6514 192.9853 567.8699
v -596.0881 192.9853 567.8699
v -596.7576 186.5209 568.6462
v -641.9824 186.5209 568.6462
v -647.4861 208.8855 561.9175
v -647.4575 213.2486 561.9175
v -591.2822 213.2486 561.9175
v -591.2534 208.8855 561.9175
v -648.0564 208.8855 575.488
v -648.0564 213.2486 575.488
v -648.0564 213.2486 562.6531
v -648.0564 208.8855 562.6177
v -596.6252 182.6522 569.9614
v -594.8372 184.5865 567.8376
v -594.8372 184.5865 575.488
v -596.6252 182.6522 575.488
v -643.2363 184.5865 567.0195
v -595.5032 184.5865 567.0195
v -597.2324 182.6522 569.2155
v -641.5076 182.6522 569.2155
v -590.6838 213.2486 562.6531
v -589.0181 215.4301 560.6854
v -589.0181 215.4301 575.488
v -590.6838 213.2486 575.488
v -649.0593 215.4301 559.8721
v -589.6804 215.4301 559.8721
v -590.6838 217.6117 562.7308
v -590.6838 217.6117 575.488
v -647.394 217.6117 561.9175
v -591.3455 217.6117 561.9175
v -593.3896 201.9842 565.9554
v -590.6838 208.8855 562.6177
v -590.6838 208.8855 575.488
v -593.3896 201.9842 575.488
v -593.9709 201.9842 565.2416
v -644.7686 201.9842 565.2416
v -642.5781 186.5209 569.3782
v -643.2104 192.9853 568.5563
v -643.9023 184.5865 567.8376
v -642.1145 182.6522 569.9614
v -649.7214 215.4301 560.6854
v -648.0564 217.6117 562.7308
v -645.3501 201.9842 565.9554
v -648.0564 217.6117 575.488
v -643.2104 192.9853 575.488
v -642.5781 186.5209 575.488
v -643.9023 184.5865 575.488
v -642.115 182.6522 575.488
v -649.7214 215.4301 575.488
v -645.3501 201.9842 575.488
vt 0.2773 0.6742
vt 0.2773 0.6911
vt 0.4476 0.6911
vt 0.4476 0.6742
vt 0.4453 0.6933
vt 0.2795 0.6933
vt 0.5504 0.8881
vt 0.5526 0.9084
vt 0.5337 0.9084
vt 0.5337 0.8881
vt 0.7614 0.91
vt 0.6053 0.91
vt 0.6076 0.8897
vt 0.7592 0.8897
vt 0.7776 0.96
vt 0.7775 0.9737
vt 0.5892 0.9737
vt 0.5891 0.96
vt 0.8287 0.9596
vt 0.8287 0.9733
vt 0.7937 0.9733
vt 0.7936 0.9596
vt 0.9865 0.7672
vt 0.9959 0.7791
vt 0.9632 0.7791
vt 0.9619 0.7672
vt 0.2524 0.779
vt 0.0111 0.779
vt 0.0112 0.7672
vt 0.2525 0.7672
vt 0.5337 0.882
vt 0.5546 0.882
vt 0.6034 0.8836
vt 0.7634 0.8836
vt 0.5687 0.9721
vt 0.5741 0.979
vt 0.5337 0.979
vt 0.5337 0.9721
vt 0.7829 0.9806
vt 0.5839 0.9806
vt 0.5685 0.9859
vt 0.5337 0.9859
vt 0.7773 0.9875
vt 0.5894 0.9875
vt 0.5597 0.9367
vt 0.5688 0.9584
vt 0.5337 0.9584
vt 0.5337 0.9367
vt 0.5982 0.9383
vt 0.7685 0.9383
vt 0.6028 0.9094
vt 0.605 0.8907
vt 0.8095 0.8902
vt 0.8121 0.8892
vt 0.8098 0.9096
vt 0.8073 0.909
vt 0.5867 0.9726
vt 0.5865 0.9593
vt 0.7912 0.9721
vt 0.791 0.9589
vt 0.6007 0.8862
vt 0.8052 0.8857
vt 0.8079 0.8832
vt 0.0078 0.7789
vt 0.0079 0.7672
vt 0.2559 0.779
vt 0.2558 0.7672
vt 0.5815 0.9806
vt 0.7884 0.9801
vt 0.786 0.9801
vt 0.5871 0.99
vt 0.7939 0.987
vt 0.7916 0.9896
vt 0.5957 0.9372
vt 0.8002 0.9367
vt 0.8027 0.9379
vt 0.0091 0.8976
vt 0.0091 0.876
vt 0.0109 0.8746
vt 0.1674 0.876
vt 0.1655 0.8746
vt 0.1674 0.8976
vt 0.8287 0.9096
vt 0.8287 0.8892
vt 0.2874 0.779
vt 0.2803 0.7672
vt 0.8287 0.8832
vt 0.8287 0.9801
vt 0.8287 0.987
vt 0.8287 0.9379
vn 0.0 -1.0 0.0
vn 0.0 -1.0 0.0001
vn 0.0 -1.0 -0.0
vn 0.9117 0.3115 -0.2677
vn 0.9232 -0.2213 -0.3142
vn 0.9863 -0.1647 0.0
vn 0.9686 0.2488 0.0
vn -0.4078 -0.254 -0.877
vn 0.4081 -0.2541 -0.8769
vn 0.3712 0.3626 -0.8548
vn -0.3714 0.3626 -0.8547
vn -0.427 -0.2511 -0.8687
vn -0.3556 -0.4619 -0.8125
vn 0.3557 -0.462 -0.8124
vn 0.4273 -0.251 -0.8686
vn -0.9826 -0.1858 0.0
vn -0.9473 -0.3202 0.0
vn -0.8773 -0.4014 -0.2631
vn -0.9078 -0.2349 -0.3476
vn 0.4051 -0.9097 -0.0918
vn 0.9149 -0.0672 -0.3981
vn 0.9973 -0.0728 0.0
vn 0.401 -0.9161 -0.0
vn -0.4598 -0.0629 -0.8858
vn 0.4599 -0.0629 -0.8858
vn 0.1381 -0.9239 -0.3568
vn -0.1382 -0.9239 -0.3568
vn 0.8773 -0.4014 -0.2629
vn 0.9163 0.0032 -0.4005
vn 1.0 -0.0 0.0
vn 0.9473 -0.3203 0.0
vn -0.4624 0.0025 -0.8866
vn 0.4624 0.0025 -0.8867
vn 0.4484 0.8877 -0.1047
vn 0.4434 0.8963 0.0
vn -0.1561 0.9026 -0.4012
vn 0.1562 0.9026 -0.4012
vn 0.8737 -0.3895 -0.2913
vn 0.9079 -0.2348 -0.3474
vn 0.9826 -0.1858 0.0
vn 0.9543 -0.2989 0.0
vn 0.3736 -0.4407 -0.8162
vn -0.3735 -0.4407 -0.8163
vn -0.9118 0.3114 -0.2676
vn -0.9231 -0.2213 -0.3144
vn -0.9149 -0.0672 -0.3981
vn -0.4051 -0.9097 -0.0916
vn -0.9163 0.0033 -0.4004
vn -0.4484 0.8876 -0.1048
vn -0.8737 -0.3895 -0.2914
vn -0.4434 0.8963 0.0
vn -0.9863 -0.1647 0.0
vn -0.9686 0.2488 0.0
vn -0.9973 -0.0728 -0.0
vn -0.4011 -0.916 -0.0002
vn -1.0 -0.0 0.0
vn -0.9543 -0.2989 0.0
vtan 1.0 0.0 0.0 -1.0
vtan 1.0 0.0 0.0 -1.0
vtan -0.2534 -0.0866 -0.9635 1.0
vtan -0.3055 0.0732 -0.9494 1.0
vtan 0.0 0.0 -1.0 1.0
vtan -0.9131 0.1135 0.3917 1.0
vtan -0.9129 -0.1189 -0.3904 1.0
vtan -0.9265 0.205 -0.3155 1.0
vtan -0.9285 -0.1451 0.3419 1.0
vtan -0.9042 0.1186 0.4102 1.0
vtan -0.9346 0.1757 0.3091 1.0
vtan -0.9342 -0.1514 -0.323 1.0
vtan -0.9038 -0.144 -0.403 1.0
vtan 0.0 0.0 1.0 1.0
vtan 0.0 0.0 1.0 1.0
vtan -0.2125 -0.1666 0.9629 1.0
vtan -0.3212 -0.1437 0.936 1.0
vtan -0.0373 0.0838 -0.9958 1.0
vtan -0.397 0.0292 -0.9174 1.0
vtan -0.0 0.0 -1.0 1.0
vtan -0.8875 -0.0021 0.4609 1.0
vtan -0.8877 -0.0086 -0.4603 1.0
vtan -0.9226 0.0111 -0.3857 1.0
vtan -0.9217 -0.0118 0.3877 1.0
vtan -0.397 0.0292 -0.9174 1.0
vtan -0.8293 0.3261 -0.4537 1.0
vtan -0.888 0.0326 0.4587 1.0
vtan -0.2391 0.1094 -0.9648 1.0
vtan -0.4005 -0.0014 -0.9163 1.0
vtan -0.8867 -0.0013 0.4624 1.0
vtan -0.8867 -0.0001 -0.4624 1.0
vtan -0.0472 -0.0935 -0.9945 1.0
vtan -0.9877 -0.1427 0.0634 1.0
vtan -0.9858 0.1172 -0.1202 1.0
vtan -0.2661 0.1186 -0.9566 1.0
vtan -0.3363 0.087 -0.9377 1.0
vtan 0.0 0.0 -1.0 1.0
vtan -0.9275 -0.19 -0.3219 1.0
vtan -0.9276 0.1774 0.3287 1.0
vtan -0.3691 -0.2826 -0.8854 1.0
vtan -0.4026 0.5486 -0.7328 1.0
vtan -0.6672 0.536 0.5173 1.0
vtan -0.234 0.1414 0.9619 1.0
vtan -0.2993 -0.0999 0.9489 1.0
vtan -0.8045 -0.3544 0.4767 1.0
vtan -0.4488 -0.4923 -0.7458 1.0
vtan -0.4114 -0.3385 -0.8463 1.0
vtan -0.6289 -0.5249 0.5736 1.0
vtan -0.7895 -0.3648 0.4935 1.0
vtan -0.2304 0.7228 -0.6515 1.0
vtan -0.571 0.7849 0.2407 1.0
vtan -0.3981 0.3136 0.8621 1.0
vtan -0.4008 -0.0333 -0.9156 1.0
vtan -0.5663 -0.1708 -0.8063 1.0
vtan -0.3992 0.0031 0.9169 1.0
vtan -0.2535 0.0155 0.9672 1.0
vtan -0.4003 0.0329 -0.9158 1.0
vtan -0.4004 0.0128 0.9163 1.0
vtan -0.8866 0.0011 0.4624 1.0
vtan -0.8829 0.4215 -0.2071 1.0
vtan 0.0233 0.1288 0.9914 1.0
vtan -0.1322 0.3834 0.9141 1.0
vtan -0.4662 -0.4998 -0.7299 1.0
vtan -0.607 -0.5493 0.5743 1.0
vtan -0.2343 -0.1881 0.9538 1.0
vtan -0.8963 0.4434 0.0004 1.0
vtan -0.8936 0.4479 -0.0298 1.0
vtan -0.9877 0.1448 -0.0588 1.0
vtan -0.8938 -0.4454 0.0526 1.0
vtan -0.9877 -0.1427 0.0634 1.0
vtan -0.8963 -0.4434 0.0 1.0
vtan -0.0 0.0 1.0 1.0
vtan -0.0002 -0.0002 1.0 1.0
vtan -0.0 -0.0 1.0 1.0
f 51/0/0/0 43/1/0/1 16/2/0/0 
f 51/0/0/0 16/2/0/0 19/3/0/0 
f 22/4/1/0 16/2/1/1 43/1/1/0 
f 22/4/2/0 43/1/2/0 23/5/2/0 
f 0/6/3/2 1/7/4/3 2/8/5/4 
f 0/6/3/2 2/8/5/4 3/9/6/4 
f 4/10/7/5 5/11/8/6 6/12/9/7 
f 4/10/7/5 6/12/9/7 7/13/10/8 
f 8/14/11/9 9/15/12/10 10/16/13/11 
f 8/14/11/9 10/16/13/11 11/17/14/12 
f 12/18/15/13 13/19/16/14 14/20/17/15 
f 12/18/15/13 14/20/17/15 15/21/18/16 
f 16/22/19/17 17/23/20/18 18/24/21/4 
f 16/22/19/17 18/24/21/4 19/25/22/19 
f 20/26/23/20 21/27/24/21 22/28/25/22 
f 20/26/23/20 22/28/25/22 23/29/26/23 
f 0/6/3/2 3/9/6/4 18/30/21/4 
f 0/6/3/2 18/30/21/4 17/31/20/24 
f 7/13/10/8 6/12/9/7 21/32/24/25 
f 7/13/10/8 21/32/24/25 20/33/23/26 
f 24/34/27/27 25/35/28/28 26/36/29/4 
f 24/34/27/27 26/36/29/4 27/37/30/4 
f 28/38/31/29 29/39/32/30 10/16/13/11 
f 28/38/31/29 10/16/13/11 9/15/12/10 
f 30/40/33/31 31/41/34/4 26/36/29/4 
f 30/40/33/31 26/36/29/4 25/35/28/28 
f 32/42/35/32 33/43/36/33 29/39/32/30 
f 32/42/35/32 29/39/32/30 28/38/31/29 
f 34/44/37/34 35/45/38/35 36/46/39/36 
f 34/44/37/34 36/46/39/36 37/47/40/36 
f 8/14/11/9 11/17/14/12 38/48/41/37 
f 8/14/11/9 38/48/41/37 39/49/42/38 
f 1/7/4/3 34/44/37/34 37/47/40/36 
f 1/7/4/3 37/47/40/36 2/8/5/4 
f 39/49/42/38 38/48/41/37 5/11/8/6 
f 39/49/42/38 5/11/8/6 4/10/7/5 
f 1/50/4/39 0/51/3/40 6/12/9/7 
f 1/50/4/39 6/12/9/7 5/11/8/6 
f 7/52/10/41 40/53/43/42 41/54/44/43 
f 7/52/10/41 41/54/44/43 4/55/7/44 
f 11/17/14/12 10/16/13/11 24/56/27/45 
f 11/17/14/12 24/56/27/45 35/57/38/46 
f 15/21/18/16 14/20/17/15 9/58/12/47 
f 15/21/18/16 9/58/12/47 8/59/11/48 
f 6/12/9/7 0/51/3/40 17/60/20/49 
f 6/12/9/7 17/60/20/49 21/32/24/25 
f 7/52/10/41 20/61/23/50 42/62/45/51 
f 7/52/10/41 42/62/45/51 40/53/43/42 
f 17/63/20/52 16/64/19/53 22/28/25/22 
f 17/63/20/52 22/28/25/22 21/27/24/21 
f 42/65/45/54 20/26/23/20 23/29/26/23 
f 42/65/45/54 23/29/26/23 43/66/46/55 
f 10/16/13/11 29/39/32/30 25/67/28/56 
f 10/16/13/11 25/67/28/56 24/56/27/45 
f 9/58/12/47 14/20/17/15 44/68/47/57 
f 9/58/12/47 44/68/47/57 28/69/31/58 
f 25/67/28/56 29/39/32/30 33/43/36/33 
f 25/67/28/56 33/43/36/33 30/70/33/59 
f 44/68/47/57 45/71/48/60 32/72/35/61 
f 44/68/47/57 32/72/35/61 28/69/31/58 
f 38/48/41/37 11/17/14/12 35/57/38/46 
f 38/48/41/37 35/57/38/46 34/73/37/62 
f 39/74/42/63 46/75/49/64 15/21/18/16 
f 39/74/42/63 15/21/18/16 8/59/11/48 
f 5/11/8/6 38/48/41/37 34/73/37/62 
f 5/11/8/6 34/73/37/62 1/50/4/39 
f 4/55/7/44 41/54/44/43 46/75/49/64 
f 4/55/7/44 46/75/49/64 39/74/42/63 
f 31/76/34/65 30/77/33/66 33/78/36/67 
f 31/76/34/65 33/78/36/67 45/79/48/68 
f 33/78/36/67 32/80/35/69 45/79/48/68 
f 47/81/50/70 31/76/34/65 45/79/48/68 
f 48/82/51/14 41/54/44/43 40/53/43/42 
f 48/82/51/14 40/53/43/42 49/83/52/14 
f 36/46/39/36 35/45/38/35 24/34/27/27 
f 36/46/39/36 24/34/27/27 27/37/30/4 
f 50/84/53/71 42/65/45/54 43/66/46/55 
f 50/84/53/71 43/66/46/55 51/85/54/72 
f 50/86/53/73 49/83/52/14 40/53/43/42 
f 50/86/53/73 40/53/43/42 42/62/45/51 
f 52/87/55/13 44/68/47/57 14/20/17/15 
f 52/87/55/13 14/20/17/15 13/19/16/14 
f 52/87/55/13 47/88/50/14 45/71/48/60 
f 52/87/55/13 45/71/48/60 44/68/47/57 
f 12/18/15/13 15/21/18/16 46/75/49/64 
f 12/18/15/13 46/75/49/64 53/89/56/14 
f 53/89/56/14 46/75/49/64 41/54/44/43 
f 53/89/56/14 41/54/44/43 48/82/51/14 
