v 456.5916 695.3228 240.4916
v 457.4047 695.3228 241.3048
v 526.2592 695.3228 241.3048
v 457.4047 695.3228 170.8338
v 527.0723 695.3228 240.4916
v 527.0723 695.3228 171.6469
v 526.2592 695.3228 170.8338
v 456.5916 695.3228 171.6469
v 464.6364 660.3633 178.1318
v 519.0275 660.3633 178.1318
v 519.1018 520.3423 178.1318
v 464.5621 520.3423 178.1318
v 519.7734 660.3633 178.8776
v 519.7734 660.3632 233.261
v 519.7734 520.3422 233.3351
v 519.7734 520.3423 178.8035
v 519.0275 660.3632 234.0068
v 464.6364 660.3632 234.0068
v 464.5621 520.3422 234.0068
v 519.1018 520.3422 234.0068
v 463.8905 660.3632 233.261
v 463.8905 660.3633 178.8776
v 463.8905 520.3423 178.8035
v 463.8905 520.3422 233.3351
v 464.0531 664.2319 177.5624
v 463.2311 670.6964 176.7862
v 520.4327 670.6963 176.7862
v 519.6108 664.2319 177.5624
v 520.3428 664.2319 178.2944
v 521.1192 670.6963 177.4725
v 521.1192 670.6962 234.666
v 520.3428 664.2318 233.8442
v 519.6108 664.2318 234.5761
v 520.4327 670.6962 235.3524
v 463.2311 670.6962 235.3524
v 464.0531 664.2318 234.5761
v 463.321 664.2318 233.8442
v 462.5447 670.6962 234.666
v 462.5447 670.6964 177.4725
v 463.321 664.2319 178.2944
v 457.327 690.9596 170.8338
v 526.3369 690.9596 170.8338
v 526.3722 686.5966 170.8338
v 457.2916 686.5966 170.8338
v 527.0723 690.9596 171.5692
v 527.0723 690.9595 240.5694
v 527.0723 686.5966 240.6047
v 527.0723 686.5966 171.5339
v 526.3369 690.9595 241.3048
v 457.327 690.9595 241.3048
v 457.2916 686.5966 241.3048
v 526.3722 686.5966 241.3048
v 456.5916 690.9595 240.5694
v 456.5916 690.9596 171.5692
v 456.5916 686.5966 171.5339
v 456.5916 686.5966 240.6047
v 462.5125 662.2976 175.9358
v 521.1515 662.2976 175.9358
v 521.9696 662.2976 176.7539
v 521.9696 662.2975 235.3847
v 521.1515 662.2975 236.2028
v 462.5125 662.2975 236.2028
v 461.6943 662.2975 235.3847
v 461.6943 662.2976 176.7539
v 455.3591 693.1412 168.7884
v 528.3048 693.1412 168.7884
v 529.1181 693.1412 169.6015
v 529.1181 693.1411 242.5371
v 528.3048 693.1411 243.3502
v 455.3591 693.1411 243.3502
v 454.5458 693.1411 242.5371
v 454.5458 693.1412 169.6015
v 460.6299 679.6953 174.1578
v 523.0339 679.6953 174.1578
v 523.7479 679.6953 174.8717
v 523.7479 679.6953 237.2669
v 523.0339 679.6953 237.9808
v 460.6299 679.6953 237.9808
v 459.916 679.6953 237.2669
v 459.916 679.6953 174.8717
v 456.3363 511.8407 171.4311
v 456.3363 511.8407 240.7075
v 463.2747 518.7642 233.9365
v 463.2747 518.7642 178.202
v 457.1888 511.8407 241.5601
v 463.9607 518.7642 234.6225
v 526.475 511.8407 241.5601
v 519.7032 518.7642 234.6225
v 527.3276 511.8407 240.7075
v 520.3892 518.7642 233.9365
v 527.3276 511.8407 171.4311
v 520.3892 518.7642 178.202
v 526.475 511.8407 170.5785
v 519.7032 518.7642 177.5161
v 457.1888 511.8407 170.5785
v 463.9607 518.7642 177.5161
v 454.8796 509.4903 170.8278
v 454.8796 509.4903 241.3107
v 454.8796 511.8407 241.3107
v 454.8796 511.8407 170.8278
v 456.5854 509.4903 243.0167
v 456.5854 511.8407 243.0167
v 527.0784 509.4903 243.0167
v 527.0784 511.8407 243.0167
v 528.7843 509.4903 241.3108
v 528.7843 511.8407 241.3108
v 528.7843 509.4903 170.8278
v 528.7843 511.8407 170.8278
v 527.0784 509.4903 169.1218
v 527.0784 511.8407 169.1218
v 456.5854 509.4903 169.1219
v 456.5854 511.8407 169.1219
v 462.7628 519.5532 234.4359
v 462.7628 519.5532 177.7026
v 520.2026 519.5532 235.1345
v 463.4612 519.5532 235.1345
v 520.9011 519.5532 177.7026
v 520.9011 519.5532 234.4359
v 463.4612 519.5532 177.0041
v 520.2026 519.5532 177.0041
v 456.3363 509.4903 171.4311
v 456.3363 507.1398 171.4311
v 456.3363 507.1398 240.7075
v 456.3363 509.4903 240.7075
v 457.1888 507.1398 241.5601
v 457.1888 509.4903 241.5601
v 526.475 507.1398 241.5601
v 526.475 509.4903 241.5601
v 527.3276 507.1398 240.7075
v 527.3276 509.4903 240.7075
v 527.3276 507.1398 171.4311
v 527.3276 509.4903 171.4311
v 526.475 507.1398 170.5785
v 526.475 509.4903 170.5785
v 457.1888 507.1398 170.5785
v 457.1888 509.4903 170.5785
gi 0 0 0 0
gi 0 0 0 0
gi 0 0 0 0
gi 0 0 0 0
gi 0 0 0 0
gi 0 0 0 0
gi 0 0 0 0
gi 0 0 0 0
gi 0 0 0 0
gi 0 0 0 0
gi 0 0 0 0
gi 0 0 0 0
gi 0 0 0 0
gi 0 0 0 0
gi 0 0 0 0
gi 0 0 0 0
gi 0 0 0 0
gi 0 0 0 0
gi 0 0 0 0
gi 0 0 0 0
gi 0 0 0 0
gi 0 0 0 0
gi 0 0 0 0
gi 0 0 0 0
gi 0 0 0 0
gi 0 0 0 0
gi 0 0 0 0
gi 0 0 0 0
gi 0 0 0 0
gi 0 0 0 0
gi 0 0 0 0
gi 0 0 0 0
gi 0 0 0 0
gi 0 0 0 0
gi 0 0 0 0
gi 0 0 0 0
gi 0 0 0 0
gi 0 0 0 0
gi 0 0 0 0
gi 0 0 0 0
gi 0 0 0 0
gi 0 0 0 0
gi 0 0 0 0
gi 0 0 0 0
gi 0 0 0 0
gi 0 0 0 0
gi 0 0 0 0
gi 0 0 0 0
gi 0 0 0 0
gi 0 0 0 0
gi 0 0 0 0
gi 0 0 0 0
gi 0 0 0 0
gi 0 0 0 0
gi 0 0 0 0
gi 0 0 0 0
gi 0 0 0 0
gi 0 0 0 0
gi 0 0 0 0
gi 0 0 0 0
gi 0 0 0 0
gi 0 0 0 0
gi 0 0 0 0
gi 0 0 0 0
gi 0 0 0 0
gi 0 0 0 0
gi 0 0 0 0
gi 0 0 0 0
gi 0 0 0 0
gi 0 0 0 0
gi 0 0 0 0
gi 0 0 0 0
gi 0 0 0 0
gi 0 0 0 0
gi 0 0 0 0
gi 0 0 0 0
gi 0 0 0 0
gi 0 0 0 0
gi 0 0 0 0
gi 0 0 0 0
gi 0 0 0 0
gi 0 0 0 0
gi 0 0 0 0
gi 0 0 0 0
gi 0 0 0 0
gi 0 0 0 0
gi 0 0 0 0
gi 0 0 0 0
gi 0 0 0 0
gi 0 0 0 0
gi 0 0 0 0
gi 0 0 0 0
gi 0 0 0 0
gi 0 0 0 0
gi 0 0 0 0
gi 0 0 0 0
gi 0 0 0 0
gi 0 0 0 0
gi 0 0 0 0
gi 0 0 0 0
gi 0 0 0 0
gi 0 0 0 0
gi 0 0 0 0
gi 0 0 0 0
gi 0 0 0 0
gi 0 0 0 0
gi 0 0 0 0
gi 0 0 0 0
gi 0 0 0 0
gi 0 0 0 0
gi 0 0 0 0
gi 0 0 0 0
gi 0 0 0 0
gi 0 0 0 0
gi 0 0 0 0
gi 0 0 0 0
gi 0 0 0 0
gi 0 0 0 0
gi 0 0 0 0
gi 0 0 0 0
gi 0 0 0 0
gi 0 0 0 0
gi 0 0 0 0
gi 0 0 0 0
gi 0 0 0 0
gi 0 0 0 0
gi 0 0 0 0
gi 0 0 0 0
gi 0 0 0 0
gi 0 0 0 0
gi 0 0 0 0
gi 0 0 0 0
gi 0 0 0 0
gi 0 0 0 0
gi 0 0 0 0
gi 0 0 0 0
gw 0.0 0.0 0.0 0.0
gw 0.0 0.0 0.0 0.0
gw 0.0 0.0 0.0 0.0
gw 0.0 0.0 0.0 0.0
gw 0.0 0.0 0.0 0.0
gw 0.0 0.0 0.0 0.0
gw 0.0 0.0 0.0 0.0
gw 0.0 0.0 0.0 0.0
gw 0.0 0.0 0.0 0.0
gw 0.0 0.0 0.0 0.0
gw 0.0 0.0 0.0 0.0
gw 0.0 0.0 0.0 0.0
gw 0.0 0.0 0.0 0.0
gw 0.0 0.0 0.0 0.0
gw 0.0 0.0 0.0 0.0
gw 0.0 0.0 0.0 0.0
gw 0.0 0.0 0.0 0.0
gw 0.0 0.0 0.0 0.0
gw 0.0 0.0 0.0 0.0
gw 0.0 0.0 0.0 0.0
gw 0.0 0.0 0.0 0.0
gw 0.0 0.0 0.0 0.0
gw 0.0 0.0 0.0 0.0
gw 0.0 0.0 0.0 0.0
gw 0.0 0.0 0.0 0.0
gw 0.0 0.0 0.0 0.0
gw 0.0 0.0 0.0 0.0
gw 0.0 0.0 0.0 0.0
gw 0.0 0.0 0.0 0.0
gw 0.0 0.0 0.0 0.0
gw 0.0 0.0 0.0 0.0
gw 0.0 0.0 0.0 0.0
gw 0.0 0.0 0.0 0.0
gw 0.0 0.0 0.0 0.0
gw 0.0 0.0 0.0 0.0
gw 0.0 0.0 0.0 0.0
gw 0.0 0.0 0.0 0.0
gw 0.0 0.0 0.0 0.0
gw 0.0 0.0 0.0 0.0
gw 0.0 0.0 0.0 0.0
gw 0.0 0.0 0.0 0.0
gw 0.0 0.0 0.0 0.0
gw 0.0 0.0 0.0 0.0
gw 0.0 0.0 0.0 0.0
gw 0.0 0.0 0.0 0.0
gw 0.0 0.0 0.0 0.0
gw 0.0 0.0 0.0 0.0
gw 0.0 0.0 0.0 0.0
gw 0.0 0.0 0.0 0.0
gw 0.0 0.0 0.0 0.0
gw 0.0 0.0 0.0 0.0
gw 0.0 0.0 0.0 0.0
gw 0.0 0.0 0.0 0.0
gw 0.0 0.0 0.0 0.0
gw 0.0 0.0 0.0 0.0
gw 0.0 0.0 0.0 0.0
gw 0.0 0.0 0.0 0.0
gw 0.0 0.0 0.0 0.0
gw 0.0 0.0 0.0 0.0
gw 0.0 0.0 0.0 0.0
gw 0.0 0.0 0.0 0.0
gw 0.0 0.0 0.0 0.0
gw 0.0 0.0 0.0 0.0
gw 0.0 0.0 0.0 0.0
gw 0.0 0.0 0.0 0.0
gw 0.0 0.0 0.0 0.0
gw 0.0 0.0 0.0 0.0
gw 0.0 0.0 0.0 0.0
gw 0.0 0.0 0.0 0.0
gw 0.0 0.0 0.0 0.0
gw 0.0 0.0 0.0 0.0
gw 0.0 0.0 0.0 0.0
gw 0.0 0.0 0.0 0.0
gw 0.0 0.0 0.0 0.0
gw 0.0 0.0 0.0 0.0
gw 0.0 0.0 0.0 0.0
gw 0.0 0.0 0.0 0.0
gw 0.0 0.0 0.0 0.0
gw 0.0 0.0 0.0 0.0
gw 0.0 0.0 0.0 0.0
gw 0.0 0.0 0.0 0.0
gw 0.0 0.0 0.0 0.0
gw 0.0 0.0 0.0 0.0
gw 0.0 0.0 0.0 0.0
gw 0.0 0.0 0.0 0.0
gw 0.0 0.0 0.0 0.0
gw 0.0 0.0 0.0 0.0
gw 0.0 0.0 0.0 0.0
gw 0.0 0.0 0.0 0.0
gw 0.0 0.0 0.0 0.0
gw 0.0 0.0 0.0 0.0
gw 0.0 0.0 0.0 0.0
gw 0.0 0.0 0.0 0.0
gw 0.0 0.0 0.0 0.0
gw 0.0 0.0 0.0 0.0
gw 0.0 0.0 0.0 0.0
gw 0.0 0.0 0.0 0.0
gw 0.0 0.0 0.0 0.0
gw 0.0 0.0 0.0 0.0
gw 0.0 0.0 0.0 0.0
gw 0.0 0.0 0.0 0.0
gw 0.0 0.0 0.0 0.0
gw 0.0 0.0 0.0 0.0
gw 0.0 0.0 0.0 0.0
gw 0.0 0.0 0.0 0.0
gw 0.0 0.0 0.0 0.0
gw 0.0 0.0 0.0 0.0
gw 0.0 0.0 0.0 0.0
gw 0.0 0.0 0.0 0.0
gw 0.0 0.0 0.0 0.0
gw 0.0 0.0 0.0 0.0
gw 0.0 0.0 0.0 0.0
gw 0.0 0.0 0.0 0.0
gw 0.0 0.0 0.0 0.0
gw 0.0 0.0 0.0 0.0
gw 0.0 0.0 0.0 0.0
gw 0.0 0.0 0.0 0.0
gw 0.0 0.0 0.0 0.0
gw 0.0 0.0 0.0 0.0
gw 0.0 0.0 0.0 0.0
gw 0.0 0.0 0.0 0.0
gw 0.0 0.0 0.0 0.0
gw 0.0 0.0 0.0 0.0
gw 0.0 0.0 0.0 0.0
gw 0.0 0.0 0.0 0.0
gw 0.0 0.0 0.0 0.0
gw 0.0 0.0 0.0 0.0
gw 0.0 0.0 0.0 0.0
gw 0.0 0.0 0.0 0.0
gw 0.0 0.0 0.0 0.0
gw 0.0 0.0 0.0 0.0
gw 0.0 0.0 0.0 0.0
gw 0.0 0.0 0.0 0.0
gw 0.0 0.0 0.0 0.0
gw 0.0 0.0 0.0 0.0
gw 0.0 0.0 0.0 0.0
vt 0.1674 0.876
vt 0.1655 0.8746
vt 0.0109 0.8746
vt 0.1655 0.9938
vt 0.0091 0.876
vt 0.0091 0.9924
vt 0.0109 0.9938
vt 0.1674 0.9924
vt 0.5006 0.7672
vt 0.7418 0.7672
vt 0.7421 0.0122
vt 0.5003 0.0122
vt 0.7451 0.7672
vt 0.9865 0.7672
vt 0.9868 0.0122
vt 0.7451 0.0122
vt 0.0112 0.7672
vt 0.2525 0.7672
vt 0.2528 0.0122
vt 0.0109 0.0122
vt 0.2558 0.7672
vt 0.4971 0.7672
vt 0.4975 0.0122
vt 0.2558 0.0122
vt 0.1939 0.8885
vt 0.1916 0.9089
vt 0.3477 0.9089
vt 0.3455 0.8885
vt 0.3988 0.8881
vt 0.3965 0.9084
vt 0.5526 0.9084
vt 0.5504 0.8881
vt 0.6076 0.8897
vt 0.6053 0.91
vt 0.7614 0.91
vt 0.7592 0.8897
vt 0.8121 0.8892
vt 0.8098 0.9096
vt 0.9659 0.9096
vt 0.9637 0.8892
vt 0.1755 0.9726
vt 0.3638 0.9726
vt 0.3639 0.9589
vt 0.1754 0.9589
vt 0.3804 0.9721
vt 0.5687 0.9721
vt 0.5688 0.9584
vt 0.3803 0.9584
vt 0.5892 0.9737
vt 0.7775 0.9737
vt 0.7776 0.96
vt 0.5891 0.96
vt 0.7937 0.9733
vt 0.982 0.9733
vt 0.9821 0.9596
vt 0.7936 0.9596
vt 0.5005 0.7793
vt 0.7418 0.779
vt 0.7453 0.7792
vt 0.9959 0.7791
vt 0.0111 0.779
vt 0.2524 0.779
vt 0.2559 0.779
vt 0.4969 0.7793
vt 0.1897 0.8825
vt 0.3497 0.8825
vt 0.3946 0.882
vt 0.5546 0.882
vt 0.6034 0.8836
vt 0.7634 0.8836
vt 0.8079 0.8832
vt 0.9679 0.8832
vt 0.1701 0.9794
vt 0.3692 0.9794
vt 0.3751 0.979
vt 0.5741 0.979
vt 0.5839 0.9806
vt 0.7829 0.9806
vt 0.7884 0.9801
vt 0.9874 0.9801
vt 0.1757 0.9863
vt 0.3636 0.9863
vt 0.3806 0.9859
vt 0.5685 0.9859
vt 0.5894 0.9875
vt 0.7773 0.9875
vt 0.7939 0.987
vt 0.9818 0.987
vt 0.1845 0.9372
vt 0.3548 0.9372
vt 0.3894 0.9367
vt 0.5597 0.9367
vt 0.5982 0.9383
vt 0.7685 0.9383
vt 0.8027 0.9379
vt 0.973 0.9379
vt 0.9754 0.9368
vt 0.9849 0.9589
vt 0.0079 0.7672
vt 0.0079 0.0122
vt 0.3503 0.9083
vt 0.348 0.8895
vt 0.6028 0.9094
vt 0.605 0.8907
vt 0.8073 0.909
vt 0.8095 0.8902
vt 0.9848 0.9721
vt 0.3663 0.9714
vt 0.3665 0.9582
vt 0.5867 0.9726
vt 0.5865 0.9593
vt 0.7912 0.9721
vt 0.791 0.9589
vt 0.3523 0.885
vt 0.9705 0.8857
vt 0.9664 0.8902
vt 0.6007 0.8862
vt 0.8052 0.8857
vt 0.0078 0.7789
vt 0.9907 0.9801
vt 0.3716 0.9794
vt 0.5815 0.9806
vt 0.786 0.9801
vt 0.9842 0.9896
vt 0.366 0.9889
vt 0.5871 0.99
vt 0.7916 0.9896
vt 0.9686 0.909
vt 0.3574 0.936
vt 0.5957 0.9372
vt 0.8002 0.9367
vt 0.9787 0.844
vt 0.7407 0.844
vt 0.7521 0.8673
vt 0.9674 0.8673
vt 0.7344 0.844
vt 0.7231 0.8673
vt 0.4964 0.844
vt 0.5077 0.8685
vt 0.49 0.844
vt 0.4787 0.8685
vt 0.2521 0.844
vt 0.2634 0.8683
vt 0.2457 0.844
vt 0.2344 0.8683
vt 0.0095 0.8447
vt 0.0185 0.8682
vt 0.9833 0.8433
vt 0.983 0.8665
vt 0.979 0.8318
vt 0.7404 0.8318
vt 0.7404 0.8398
vt 0.979 0.8398
vt 0.7347 0.8318
vt 0.7347 0.8398
vt 0.4961 0.8318
vt 0.4961 0.8398
vt 0.4903 0.8318
vt 0.4903 0.8398
vt 0.2518 0.8318
vt 0.2518 0.8398
vt 0.246 0.8318
vt 0.246 0.8398
vt 0.0075 0.8318
vt 0.0075 0.8398
vt 0.9847 0.8318
vt 0.9847 0.8398
vt 0.7512 0.8699
vt 0.9682 0.8705
vt 0.5069 0.8711
vt 0.7239 0.8699
vt 0.2626 0.8709
vt 0.4796 0.8711
vt 0.0168 0.8708
vt 0.2352 0.8709
vt 0.983 0.8702
vt 0.5036 0.8097
vt 0.5036 0.8179
vt 0.745 0.8179
vt 0.745 0.8097
vt 0.7479 0.8179
vt 0.7479 0.8097
vt 0.9893 0.8179
vt 0.9893 0.8097
vt 0.9922 0.8179
vt 0.9922 0.8097
vt 0.015 0.8097
vt 0.015 0.8179
vt 0.2564 0.8179
vt 0.2564 0.8097
vt 0.2593 0.8179
vt 0.2593 0.8097
vt 0.5007 0.8179
vt 0.5007 0.8097
vt 0.2557 0.0062
vt 0.4974 0.0062
vt 0.011 0.0062
vt 0.2527 0.0062
vt 0.745 0.0062
vt 0.9917 0.0062
vt 0.5002 0.0062
vt 0.742 0.0062
vt 0.0079 0.0062
vt 0.9787 0.8276
vt 0.7407 0.8276
vt 0.9833 0.8276
vt 0.2457 0.8276
vt 0.0095 0.8276
vt 0.2521 0.8276
vt 0.49 0.8276
vt 0.4964 0.8276
vt 0.7344 0.8276
vn -0.4014 0.9081 0.1192
vn -0.1192 0.9081 0.4014
vn 0.1192 0.9081 0.4014
vn -0.1192 0.9081 -0.4014
vn 0.4014 0.9081 0.1192
vn 0.4014 0.9081 -0.1192
vn 0.1192 0.9081 -0.4014
vn -0.4014 0.9081 -0.1192
vn -0.2921 -0.5104 -0.8088
vn 0.2921 -0.5105 -0.8088
vn 0.2799 0.5652 -0.776
vn -0.2799 0.5651 -0.7761
vn 0.8087 -0.5105 -0.2921
vn 0.8088 -0.5105 0.2921
vn 0.7761 0.5651 0.2798
vn 0.7761 0.5651 -0.2798
vn 0.2921 -0.5105 0.8088
vn -0.2921 -0.5105 0.8088
vn -0.2799 0.5652 0.776
vn 0.2799 0.5651 0.7761
vn -0.8087 -0.5105 0.2921
vn -0.8087 -0.5105 -0.2921
vn -0.7761 0.5651 -0.2799
vn -0.7761 0.5651 0.2798
vn -0.3129 0.3591 -0.8793
vn -0.3576 -0.262 -0.8964
vn 0.3576 -0.262 -0.8964
vn 0.3129 0.3591 -0.8793
vn 0.8793 0.3591 -0.3129
vn 0.8963 -0.2621 -0.3577
vn 0.8963 -0.262 0.3577
vn 0.8793 0.3591 0.3129
vn 0.3129 0.3591 0.8793
vn 0.3576 -0.262 0.8964
vn -0.3577 -0.262 0.8963
vn -0.3129 0.3591 0.8793
vn -0.8793 0.3591 0.313
vn -0.8963 -0.262 0.3577
vn -0.8963 -0.262 -0.3577
vn -0.8793 0.3591 -0.3129
vn -0.3026 -0.4599 -0.8349
vn 0.3026 -0.4599 -0.8348
vn 0.3871 -0.2629 -0.8838
vn -0.3872 -0.2629 -0.8837
vn 0.8348 -0.4599 -0.3026
vn 0.8348 -0.4599 0.3026
vn 0.8837 -0.2629 0.3872
vn 0.8837 -0.2629 -0.3871
vn 0.3026 -0.4599 0.8349
vn -0.3026 -0.4599 0.8348
vn -0.3872 -0.2629 0.8837
vn 0.3871 -0.2629 0.8838
vn -0.8348 -0.4599 0.3026
vn -0.8348 -0.4599 -0.3026
vn -0.8838 -0.2629 -0.3871
vn -0.8838 -0.2629 0.3871
vn -0.4328 -0.0633 -0.8992
vn 0.4328 -0.0633 -0.8992
vn 0.8992 -0.0633 -0.4328
vn 0.8992 -0.0633 0.4329
vn 0.4328 -0.0633 0.8992
vn -0.4328 -0.0633 0.8993
vn -0.8992 -0.0633 0.4329
vn -0.8992 -0.0633 -0.4329
vn -0.4354 0.0028 -0.9002
vn 0.4354 0.0029 -0.9002
vn 0.9002 0.0028 -0.4354
vn 0.9002 0.0028 0.4354
vn 0.4354 0.0028 0.9003
vn -0.4354 0.0028 0.9003
vn -0.9002 0.0028 0.4355
vn -0.9002 0.0028 -0.4354
vn -0.3244 -0.4518 -0.831
vn 0.3244 -0.4518 -0.831
vn 0.831 -0.4519 -0.3245
vn 0.831 -0.4519 0.3245
vn 0.3244 -0.4518 0.831
vn -0.3244 -0.4519 0.831
vn -0.831 -0.4519 0.3244
vn -0.831 -0.4519 -0.3245
vn -0.2184 0.9701 -0.1058
vn -0.2184 0.9701 0.1058
vn -0.9468 0.1288 0.295
vn -0.9468 0.1288 -0.295
vn -0.1058 0.9701 0.2184
vn -0.295 0.1288 0.9468
vn 0.1058 0.9701 0.2184
vn 0.295 0.1288 0.9468
vn 0.2184 0.9701 0.1058
vn 0.9468 0.1288 0.295
vn 0.2184 0.9701 -0.1058
vn 0.9468 0.1288 -0.295
vn 0.1058 0.9701 -0.2184
vn 0.2949 0.1287 -0.9468
vn -0.1058 0.9701 -0.2184
vn -0.2949 0.1288 -0.9468
vn -0.7173 -0.6303 -0.2971
vn -0.7173 -0.6302 0.2971
vn -0.7173 0.6303 0.2971
vn -0.7173 0.6302 -0.2971
vn -0.2971 -0.6302 0.7173
vn -0.2971 0.6302 0.7173
vn 0.2971 -0.6302 0.7173
vn 0.2971 0.6303 0.7173
vn 0.7173 -0.6303 0.2971
vn 0.7173 0.6302 0.2971
vn 0.7173 -0.6302 -0.2971
vn 0.7173 0.6303 -0.2971
vn 0.2971 -0.6302 -0.7173
vn 0.2971 0.6302 -0.7173
vn -0.2971 -0.6302 -0.7173
vn -0.2971 0.6303 -0.7173
vn -0.89 0.1596 0.4271
vn -0.89 0.1597 -0.4271
vn 0.4272 0.1596 0.89
vn -0.4272 0.1596 0.8899
vn 0.8899 0.1597 -0.4272
vn 0.89 0.1597 0.4271
vn -0.4272 0.1596 -0.89
vn 0.4271 0.1596 -0.89
vn -0.5491 -0.8042 -0.2274
vn -0.9239 0.0 -0.3827
vn -0.9239 0.0 0.3827
vn -0.5491 -0.8042 0.2274
vn -0.3827 0.0 0.9239
vn -0.2275 -0.8042 0.5491
vn 0.3827 0.0 0.9239
vn 0.2275 -0.8042 0.5491
vn 0.9239 0.0 0.3827
vn 0.5491 -0.8042 0.2275
vn 0.9239 0.0 -0.3827
vn 0.5491 -0.8042 -0.2274
vn 0.3827 0.0 -0.9239
vn 0.2275 -0.8042 -0.5491
vn -0.3827 0.0 -0.9239
vn -0.2275 -0.8042 -0.5491
vtan -0.9159 -0.398 -0.0522
vtan -0.9929 -0.109 -0.0482
vtan -0.9929 0.1112 0.0433
vtan -0.9929 -0.1112 0.0433
vtan -0.9157 0.4005 0.0326
vtan -0.9159 0.398 -0.0522
vtan -0.9929 0.109 -0.0482
vtan -0.9157 -0.4005 0.0325
vtan 0.9404 0.0007 -0.3401
vtan 0.9405 -0.0003 0.3399
vtan 0.9411 -0.0017 0.3382
vtan 0.9411 0.0017 -0.3382
vtan 0.3388 -0.0016 0.9408
vtan -0.247 0.1559 0.9564
vtan -0.2262 -0.1647 0.96
vtan 0.3381 0.0017 0.9411
vtan -0.9407 -0.0007 0.3393
vtan -0.9405 -0.0003 -0.3399
vtan -0.9411 -0.0017 -0.3382
vtan -0.9411 0.0017 0.3382
vtan -0.3397 -0.0 -0.9405
vtan 0.3399 -0.0003 -0.9404
vtan 0.3381 -0.0017 -0.9411
vtan -0.3381 0.0017 -0.9411
vtan 0.9498 0.1183 -0.2897
vtan 0.9339 -0.1003 -0.3433
vtan 0.9339 0.0936 0.3452
vtan 0.9482 -0.1717 0.2673
vtan 0.2897 0.1183 0.9498
vtan 0.3434 -0.1004 0.9338
vtan -0.3433 0.1004 0.9338
vtan -0.2897 -0.1183 0.9498
vtan -0.9496 0.1355 0.2826
vtan -0.9339 -0.1042 0.3421
vtan -0.9339 0.1003 -0.3433
vtan -0.9498 -0.1183 -0.2896
vtan -0.2823 0.1363 -0.9496
vtan -0.342 -0.1046 -0.9338
vtan 0.3453 0.0936 -0.9338
vtan 0.2673 -0.1717 -0.9482
vtan 0.9531 -0.146 -0.265
vtan 0.9529 0.1657 0.254
vtan 0.9219 0.1272 0.366
vtan 0.922 -0.1104 -0.3711
vtan 0.265 -0.146 0.9531
vtan -0.265 0.146 0.9531
vtan -0.3711 0.1104 0.922
vtan 0.3711 -0.1104 0.922
vtan -0.9529 -0.1266 0.2756
vtan -0.9531 0.146 -0.265
vtan -0.922 0.1104 -0.3711
vtan -0.9218 -0.1311 0.3648
vtan -0.27 -0.137 -0.9531
vtan 0.254 0.1658 -0.9529
vtan 0.366 0.127 -0.9219
vtan -0.3643 -0.1325 -0.9218
vtan 0.901 0.0035 -0.4339
vtan 0.9003 -0.0196 0.4348
vtan 0.4327 -0.0172 0.9014
vtan -0.4318 0.0304 0.9015
vtan -0.9012 -0.0073 0.4333
vtan -0.901 -0.0032 -0.4339
vtan -0.4339 0.0028 -0.901
vtan 0.4339 -0.0032 -0.901
vtan 0.9015 -0.0304 -0.4318
vtan 0.8519 -0.2976 0.431
vtan 0.4318 -0.0304 0.9015
vtan -0.4318 0.0304 0.9015
vtan -0.8516 0.2985 0.4309
vtan -0.9015 0.0304 -0.4318
vtan -0.4313 0.2938 -0.853
vtan 0.431 -0.2976 -0.8519
vtan 0.9003 0.0014 -0.4354
vtan 0.9 0.0221 0.4353
vtan 0.4354 0.0014 0.9002
vtan -0.4354 -0.0014 0.9002
vtan -0.8997 0.0366 0.435
vtan -0.9003 -0.0014 -0.4354
vtan -0.4351 0.0375 -0.8996
vtan 0.4354 0.0221 -0.9
vtan 0.9929 0.109 -0.0482
vtan 0.9915 -0.0876 0.0963
vtan 0.0482 0.109 0.9929
vtan -0.0482 -0.109 0.9929
vtan -0.9908 0.135 -0.0111
vtan 0.019 0.1384 -0.9902
vtan 0.0963 -0.0876 -0.9915
vtan 0.9459 -0.155 -0.285
vtan 0.9455 0.1805 0.2709
vtan 0.2851 -0.155 0.9459
vtan -0.285 0.155 0.9459
vtan -0.9459 -0.1645 0.2798
vtan -0.9459 0.155 -0.285
vtan -0.2728 -0.1773 -0.9456
vtan 0.2785 0.1669 -0.9458
vtan 0.6805 0.4987 -0.5368
vtan 0.8204 0.3392 -0.4603
vtan -0.4422 -0.2003 0.8742
vtan -0.4643 0.2117 0.86
vtan 0.4311 0.3261 0.8413
vtan 0.4665 -0.5163 0.7182
vtan -0.4268 -0.2914 0.8561
vtan -0.4697 0.5441 0.6952
vtan -0.8561 -0.2915 -0.4268
vtan -0.6953 0.5441 -0.4696
vtan 0.6808 0.5088 -0.527
vtan 0.527 0.5087 0.6808
vtan 0.4603 0.3386 0.8207
vtan -0.5229 -0.4906 0.697
vtan -0.4604 -0.3397 0.8201
vtan -0.6777 -0.5121 -0.5277
vtan -0.8193 -0.3415 -0.4606
vtan 0.3037 -0.6218 0.7219
vtan 0.7219 -0.6218 -0.3037
vtan 0.7183 -0.5163 -0.4664
vtan -0.199 0.822 0.5336
vtan -0.5546 0.8051 -0.2103
vtan -0.4355 -0.035 0.8995
vtan 0.8978 -0.0727 -0.4344
vtan 0.4345 -0.0727 0.8978
vtan -0.4351 -0.0352 0.8997
vtan -0.8996 -0.0385 -0.4349
vtan 0.1651 -0.3805 -0.9099
vtan 0.9099 -0.3805 0.1652
vtan -0.908 0.3775 0.1818
vtan -0.1666 0.3803 -0.9097
vtan 0.8418 0.3251 -0.4309
vtan 0.5412 0.5218 0.6594
vtan -0.5361 -0.4947 0.684
vtan -0.664 -0.5169 -0.5403
vtan 0.5028 0.0189 -0.8642
vtan -0.4242 0.0033 -0.9056
vtan -0.2973 0.0014 -0.9548
vtan 0.3064 0.0801 -0.9485
vtan -0.9052 -0.0031 -0.425
vtan -0.9547 0.0021 -0.2977
vtan -0.9056 0.0033 0.4242
vtan -0.9549 0.0044 0.2969
vtan -0.4241 -0.0033 0.9056
vtan -0.2971 -0.0031 0.9549
vtan 0.4242 0.0033 0.9056
vtan 0.2972 0.002 0.9548
vtan 0.9051 -0.003 0.4251
vtan 0.9548 -0.0027 0.2971
vtan 0.9944 0.1035 -0.0222
vtan 0.9555 0.0412 -0.292
vtan 0.8728 -0.0146 -0.4879
vtan 0.948 0.1639 -0.273
vtan 0.3827 -0.0 -0.9239
vtan -0.3827 -0.0 -0.9239
vtan -0.3826 0.0 -0.9239
vtan 0.3827 -0.0 -0.9239
vtan -0.9239 -0.0 -0.3827
vtan -0.9239 -0.0 -0.3827
vtan -0.9239 -0.0 0.3827
vtan -0.9239 -0.0 0.3827
vtan -0.3827 0.0 0.9239
vtan -0.3827 -0.0 0.9239
vtan 0.3827 -0.0 0.9239
vtan 0.3827 -0.0 0.9239
vtan 0.9239 -0.0 0.3827
vtan 0.9237 0.0004 0.383
vtan 0.9548 -0.1961 -0.2232
vtan 0.9548 0.1961 -0.2232
vtan 0.833 0.1961 -0.5174
vtan 0.8506 -0.1665 -0.4987
vtan -0.4333 -0.0039 -0.9013
vtan 0.4382 0.0405 -0.8979
vtan -0.9015 -0.0002 0.4328
vtan -0.9011 0.0051 -0.4335
vtan 0.4332 -0.0031 0.9013
vtan -0.433 0.0022 0.9014
vtan 0.9042 0.0749 -0.4206
vtan 0.9014 0.0024 0.433
vtan 0.9041 0.0681 -0.4218
vtan -0.3827 0.0 0.9239
vtan -0.3827 0.0 0.9239
vtan 0.3827 0.0 0.9239
vtan 0.3827 -0.0 0.9239
vtan 0.9239 0.0 0.3827
vtan 0.9239 0.0 0.3827
vtan 0.9239 0.0 -0.3827
vtan 0.9239 -0.0 -0.3827
vtan 0.3827 0.0 -0.9239
vtan 0.5979 0.1878 -0.7793
vtan 0.1283 -0.1879 -0.9738
vtan -0.3827 0.0 -0.9239
vtan -0.3827 -0.0 -0.9239
vtan -0.9239 0.0 -0.3827
vtan -0.9239 0.0 -0.3827
vtan -0.9239 0.0 0.3827
vtan -0.9239 -0.0 0.3827
vtan -0.4342 -0.0104 -0.9008
vtan 0.4342 0.0104 -0.9008
vtan -0.9007 -0.0104 0.4342
vtan -0.9007 0.0104 -0.4343
vtan 0.4342 -0.0104 0.9007
vtan -0.4204 -0.0754 0.9042
vtan 0.9007 -0.0104 -0.4342
vtan 0.9008 0.0104 0.4342
vtan -0.4401 0.0553 0.8963
vtan 0.3827 -0.0 -0.9239
vtan -0.3827 0.0 -0.9239
vtan 0.7792 0.1879 -0.5979
vtan 0.9239 0.0 0.3827
vtan 0.9738 -0.1878 -0.1283
vtan 0.3827 0.0 0.9239
vtan -0.3827 0.0 0.9239
vtan -0.9239 -0.0 0.3827
vtan -0.9239 -0.0 -0.3827
f 0/0/0/0 1/1/1/1 2/2/2/2 
f 0/0/0/0 2/2/2/2 3/3/3/3 
f 2/2/2/2 4/4/4/4 5/5/5/5 
f 2/2/2/2 5/5/5/5 3/3/3/3 
f 5/5/5/5 6/6/6/6 3/3/3/3 
f 7/7/7/7 0/0/0/0 3/3/3/3 
f 8/8/8/8 9/9/9/9 10/10/10/10 
f 8/8/8/8 10/10/10/10 11/11/11/11 
f 12/12/12/12 13/13/13/13 14/14/14/14 
f 12/12/12/12 14/14/14/14 15/15/15/15 
f 16/16/16/16 17/17/17/17 18/18/18/18 
f 16/16/16/16 18/18/18/18 19/19/19/19 
f 20/20/20/20 21/21/21/21 22/22/22/22 
f 20/20/20/20 22/22/22/22 23/23/23/23 
f 24/24/24/24 25/25/25/25 26/26/26/26 
f 24/24/24/24 26/26/26/26 27/27/27/27 
f 28/28/28/28 29/29/29/29 30/30/30/30 
f 28/28/28/28 30/30/30/30 31/31/31/31 
f 32/32/32/32 33/33/33/33 34/34/34/34 
f 32/32/32/32 34/34/34/34 35/35/35/35 
f 36/36/36/36 37/37/37/37 38/38/38/38 
f 36/36/36/36 38/38/38/38 39/39/39/39 
f 40/40/40/40 41/41/41/41 42/42/42/42 
f 40/40/40/40 42/42/42/42 43/43/43/43 
f 44/44/44/44 45/45/45/45 46/46/46/46 
f 44/44/44/44 46/46/46/46 47/47/47/47 
f 48/48/48/48 49/49/49/49 50/50/50/50 
f 48/48/48/48 50/50/50/50 51/51/51/51 
f 52/52/52/52 53/53/53/53 54/54/54/54 
f 52/52/52/52 54/54/54/54 55/55/55/55 
f 8/8/8/8 56/56/56/56 57/57/57/57 
f 8/8/8/8 57/57/57/57 9/9/9/9 
f 12/12/12/12 58/58/58/58 59/59/59/59 
f 12/12/12/12 59/59/59/59 13/13/13/13 
f 16/16/16/16 60/60/60/60 61/61/61/61 
f 16/16/16/16 61/61/61/61 17/17/17/17 
f 20/20/20/20 62/62/62/62 63/63/63/63 
f 20/20/20/20 63/63/63/63 21/21/21/21 
f 56/64/56/64 24/24/24/24 27/27/27/27 
f 56/64/56/64 27/27/27/27 57/65/57/65 
f 58/66/58/66 28/28/28/28 31/31/31/31 
f 58/66/58/66 31/31/31/31 59/67/59/67 
f 60/68/60/68 32/32/32/32 35/35/35/35 
f 60/68/60/68 35/35/35/35 61/69/61/69 
f 62/70/62/70 36/36/36/36 39/39/39/39 
f 62/70/62/70 39/39/39/39 63/71/63/71 
f 40/40/40/40 64/72/64/72 65/73/65/73 
f 40/40/40/40 65/73/65/73 41/41/41/41 
f 44/44/44/44 66/74/66/74 67/75/67/75 
f 44/44/44/44 67/75/67/75 45/45/45/45 
f 48/48/48/48 68/76/68/76 69/77/69/77 
f 48/48/48/48 69/77/69/77 49/49/49/49 
f 52/52/52/52 70/78/70/78 71/79/71/79 
f 52/52/52/52 71/79/71/79 53/53/53/53 
f 64/72/64/72 3/80/3/80 6/81/6/81 
f 64/72/64/72 6/81/6/81 65/73/65/73 
f 66/74/66/74 5/82/5/82 4/83/4/83 
f 66/74/66/74 4/83/4/83 67/75/67/75 
f 68/76/68/76 2/84/2/84 1/85/1/1 
f 68/76/68/76 1/85/1/1 69/77/69/77 
f 70/78/70/78 0/86/0/85 7/87/7/86 
f 70/78/70/78 7/87/7/86 71/79/71/79 
f 72/88/72/87 43/43/43/43 42/42/42/42 
f 72/88/72/87 42/42/42/42 73/89/73/88 
f 74/90/74/89 47/47/47/47 46/46/46/46 
f 74/90/74/89 46/46/46/46 75/91/75/90 
f 76/92/76/91 51/51/51/51 50/50/50/50 
f 76/92/76/91 50/50/50/50 77/93/77/92 
f 78/94/78/93 55/55/55/55 54/54/54/54 
f 78/94/78/93 54/54/54/54 79/95/79/94 
f 25/25/25/25 72/88/72/87 73/89/73/88 
f 25/25/25/25 73/89/73/88 26/26/26/26 
f 29/29/29/29 74/90/74/89 75/91/75/90 
f 29/29/29/29 75/91/75/90 30/30/30/30 
f 33/33/33/33 76/92/76/91 77/93/77/92 
f 33/33/33/33 77/93/77/92 34/34/34/34 
f 37/37/37/37 78/94/78/93 79/95/79/94 
f 37/37/37/37 79/95/79/94 38/38/38/38 
f 9/9/9/9 12/12/12/12 15/15/15/15 
f 9/9/9/9 15/15/15/15 10/10/10/10 
f 72/96/72/95 79/95/79/94 54/54/54/54 
f 72/96/72/95 54/54/54/54 43/97/43/96 
f 13/98/13/97 16/16/16/16 19/19/19/19 
f 13/98/13/97 19/19/19/19 14/99/14/98 
f 17/17/17/17 20/20/20/20 23/23/23/23 
f 17/17/17/17 23/23/23/23 18/18/18/18 
f 26/26/26/26 29/100/29/99 28/101/28/100 
f 26/26/26/26 28/101/28/100 27/27/27/27 
f 11/11/11/11 22/22/22/22 21/21/21/21 
f 11/11/11/11 21/21/21/21 8/8/8/8 
f 30/102/30/101 33/33/33/33 32/32/32/32 
f 30/102/30/101 32/32/32/32 31/103/31/102 
f 34/104/34/103 37/37/37/37 36/36/36/36 
f 34/104/34/103 36/36/36/36 35/105/35/104 
f 53/53/53/53 40/106/40/105 43/97/43/96 
f 53/53/53/53 43/97/43/96 54/54/54/54 
f 41/41/41/41 44/107/44/106 47/108/47/107 
f 41/41/41/41 47/108/47/107 42/42/42/42 
f 45/109/45/108 48/48/48/48 51/51/51/51 
f 45/109/45/108 51/51/51/51 46/110/46/109 
f 49/111/49/110 52/52/52/52 55/55/55/55 
f 49/111/49/110 55/55/55/55 50/112/50/111 
f 58/113/58/112 57/65/57/65 27/27/27/27 
f 58/113/58/112 27/27/27/27 28/101/28/100 
f 56/114/56/113 63/71/63/71 39/39/39/39 
f 56/114/56/113 39/39/39/39 24/115/24/114 
f 60/68/60/68 59/116/59/115 31/103/31/102 
f 60/68/60/68 31/103/31/102 32/32/32/32 
f 62/70/62/70 61/117/61/116 35/105/35/104 
f 62/70/62/70 35/105/35/104 36/36/36/36 
f 12/12/12/12 9/9/9/9 57/57/57/57 
f 12/12/12/12 57/57/57/57 58/58/58/58 
f 8/8/8/8 21/21/21/21 63/63/63/63 
f 8/8/8/8 63/63/63/63 56/56/56/56 
f 16/16/16/16 13/98/13/97 59/118/59/117 
f 16/16/16/16 59/118/59/117 60/60/60/60 
f 20/20/20/20 17/17/17/17 61/61/61/61 
f 20/20/20/20 61/61/61/61 62/62/62/62 
f 71/79/71/79 64/119/64/118 40/106/40/105 
f 71/79/71/79 40/106/40/105 53/53/53/53 
f 65/73/65/73 66/120/66/119 44/107/44/106 
f 65/73/65/73 44/107/44/106 41/41/41/41 
f 67/121/67/120 68/76/68/76 48/48/48/48 
f 67/121/67/120 48/48/48/48 45/109/45/108 
f 69/122/69/121 70/78/70/78 52/52/52/52 
f 69/122/69/121 52/52/52/52 49/111/49/110 
f 7/87/7/86 3/123/3/122 64/119/64/118 
f 7/87/7/86 64/119/64/118 71/79/71/79 
f 6/81/6/81 5/124/5/123 66/120/66/119 
f 6/81/6/81 66/120/66/119 65/73/65/73 
f 4/125/4/124 2/84/2/84 68/76/68/76 
f 4/125/4/124 68/76/68/76 67/121/67/120 
f 1/126/1/125 0/86/0/85 70/78/70/78 
f 1/126/1/125 70/78/70/78 69/122/69/121 
f 24/115/24/114 39/39/39/39 38/38/38/38 
f 24/115/24/114 38/38/38/38 25/127/25/126 
f 42/42/42/42 47/108/47/107 74/128/74/127 
f 42/42/42/42 74/128/74/127 73/89/73/88 
f 46/110/46/109 51/51/51/51 76/92/76/91 
f 46/110/46/109 76/92/76/91 75/129/75/128 
f 50/112/50/111 55/55/55/55 78/94/78/93 
f 50/112/50/111 78/94/78/93 77/130/77/129 
f 79/95/79/94 72/96/72/95 25/127/25/126 
f 79/95/79/94 25/127/25/126 38/38/38/38 
f 73/89/73/88 74/128/74/127 29/100/29/99 
f 73/89/73/88 29/100/29/99 26/26/26/26 
f 75/129/75/128 76/92/76/91 33/33/33/33 
f 75/129/75/128 33/33/33/33 30/102/30/101 
f 77/130/77/129 78/94/78/93 37/37/37/37 
f 77/130/77/129 37/37/37/37 34/104/34/103 
f 80/131/80/130 81/132/81/131 82/133/82/132 
f 80/131/80/130 82/133/82/132 83/134/83/133 
f 81/132/81/131 84/135/84/134 85/136/85/135 
f 81/132/81/131 85/136/85/135 82/133/82/132 
f 84/135/84/134 86/137/86/136 87/138/87/137 
f 84/135/84/134 87/138/87/137 85/136/85/135 
f 86/137/86/136 88/139/88/138 89/140/89/139 
f 86/137/86/136 89/140/89/139 87/138/87/137 
f 88/139/88/138 90/141/90/140 91/142/91/141 
f 88/139/88/138 91/142/91/141 89/140/89/139 
f 90/141/90/140 92/143/92/142 93/144/93/143 
f 90/141/90/140 93/144/93/143 91/142/91/141 
f 92/143/92/142 94/145/94/144 95/146/95/145 
f 92/143/92/142 95/146/95/145 93/144/93/143 
f 94/147/94/146 80/131/80/130 83/134/83/133 
f 94/147/94/146 83/134/83/133 95/148/95/147 
f 96/149/96/148 97/150/97/149 98/151/98/150 
f 96/149/96/148 98/151/98/150 99/152/99/151 
f 97/150/97/149 100/153/100/152 101/154/101/153 
f 97/150/97/149 101/154/101/153 98/151/98/150 
f 100/153/100/152 102/155/102/154 103/156/103/155 
f 100/153/100/152 103/156/103/155 101/154/101/153 
f 102/155/102/154 104/157/104/156 105/158/105/157 
f 102/155/102/154 105/158/105/157 103/156/103/155 
f 104/157/104/156 106/159/106/158 107/160/107/159 
f 104/157/104/156 107/160/107/159 105/158/105/157 
f 106/159/106/158 108/161/108/160 109/162/109/161 
f 106/159/106/158 109/162/109/161 107/160/107/159 
f 108/161/108/160 110/163/110/162 111/164/111/163 
f 108/161/108/160 111/164/111/163 109/162/109/161 
f 110/165/110/164 96/149/96/148 99/152/99/151 
f 110/165/110/164 99/152/99/151 111/166/111/165 
f 82/133/82/132 112/167/112/166 113/168/113/167 
f 82/133/82/132 113/168/113/167 83/134/83/133 
f 87/138/87/137 114/169/114/168 115/170/115/169 
f 87/138/87/137 115/170/115/169 85/136/85/135 
f 91/142/91/141 116/171/116/170 117/172/117/171 
f 91/142/91/141 117/172/117/171 89/140/89/139 
f 95/146/95/145 118/173/118/172 119/174/119/173 
f 95/146/95/145 119/174/119/173 93/144/93/143 
f 83/134/83/133 113/168/113/167 118/175/118/174 
f 83/134/83/133 118/175/118/174 95/148/95/147 
f 93/144/93/143 119/174/119/173 116/171/116/170 
f 93/144/93/143 116/171/116/170 91/142/91/141 
f 85/136/85/135 115/170/115/169 112/167/112/166 
f 85/136/85/135 112/167/112/166 82/133/82/132 
f 89/140/89/139 117/172/117/171 114/169/114/168 
f 89/140/89/139 114/169/114/168 87/138/87/137 
f 120/176/120/175 121/177/121/176 122/178/122/177 
f 120/176/120/175 122/178/122/177 123/179/123/178 
f 123/179/123/178 122/178/122/177 124/180/124/179 
f 123/179/123/178 124/180/124/179 125/181/125/180 
f 125/181/125/180 124/180/124/179 126/182/126/181 
f 125/181/125/180 126/182/126/181 127/183/127/182 
f 127/183/127/182 126/182/126/181 128/184/128/183 
f 127/183/127/182 128/184/128/183 129/185/129/184 
f 129/186/129/185 128/187/128/183 130/188/130/186 
f 129/186/129/185 130/188/130/186 131/189/131/187 
f 131/189/131/187 130/188/130/186 132/190/132/188 
f 131/189/131/187 132/190/132/188 133/191/133/189 
f 133/191/133/189 132/190/132/188 134/192/134/190 
f 133/191/133/189 134/192/134/190 135/193/135/191 
f 135/193/135/191 134/192/134/190 121/177/121/176 
f 135/193/135/191 121/177/121/176 120/176/120/175 
f 112/194/112/192 23/23/23/23 22/22/22/22 
f 112/194/112/192 22/22/22/22 113/195/113/193 
f 114/196/114/194 19/19/19/19 18/18/18/18 
f 114/196/114/194 18/18/18/18 115/197/115/195 
f 116/198/116/196 15/15/15/15 14/14/14/14 
f 116/198/116/196 14/14/14/14 117/199/117/197 
f 118/200/118/198 11/11/11/11 10/10/10/10 
f 118/200/118/198 10/10/10/10 119/201/119/199 
f 113/195/113/193 22/22/22/22 11/11/11/11 
f 113/195/113/193 11/11/11/11 118/200/118/198 
f 119/201/119/199 10/10/10/10 15/15/15/15 
f 119/201/119/199 15/15/15/15 116/198/116/196 
f 115/197/115/195 18/18/18/18 23/23/23/23 
f 115/197/115/195 23/23/23/23 112/194/112/192 
f 117/202/117/200 14/99/14/98 19/19/19/19 
f 117/202/117/200 19/19/19/19 114/196/114/194 
f 99/152/99/151 98/151/98/150 81/132/81/131 
f 99/152/99/151 81/132/81/131 80/131/80/130 
f 98/151/98/150 101/154/101/153 84/135/84/134 
f 98/151/98/150 84/135/84/134 81/132/81/131 
f 101/154/101/153 103/156/103/155 86/137/86/136 
f 101/154/101/153 86/137/86/136 84/135/84/134 
f 103/156/103/155 105/158/105/157 88/139/88/138 
f 103/156/103/155 88/139/88/138 86/137/86/136 
f 105/158/105/157 107/160/107/159 90/141/90/140 
f 105/158/105/157 90/141/90/140 88/139/88/138 
f 107/160/107/159 109/162/109/161 92/143/92/142 
f 107/160/107/159 92/143/92/142 90/141/90/140 
f 109/162/109/161 111/164/111/163 94/145/94/144 
f 109/162/109/161 94/145/94/144 92/143/92/142 
f 111/166/111/165 99/152/99/151 80/131/80/130 
f 111/166/111/165 80/131/80/130 94/147/94/146 
f 97/150/97/149 96/149/96/148 120/203/120/201 
f 97/150/97/149 120/203/120/201 123/204/123/202 
f 96/149/96/148 110/165/110/164 135/205/135/203 
f 96/149/96/148 135/205/135/203 120/203/120/201 
f 110/163/110/162 108/161/108/160 133/206/133/204 
f 110/163/110/162 133/206/133/204 135/207/135/205 
f 108/161/108/160 106/159/106/158 131/208/131/206 
f 108/161/108/160 131/208/131/206 133/206/133/204 
f 106/159/106/158 104/157/104/156 129/209/129/207 
f 106/159/106/158 129/209/129/207 131/208/131/206 
f 104/157/104/156 102/155/102/154 127/210/127/208 
f 104/157/104/156 127/210/127/208 129/209/129/207 
f 102/155/102/154 100/153/100/152 125/211/125/209 
f 102/155/102/154 125/211/125/209 127/210/127/208 
f 100/153/100/152 97/150/97/149 123/204/123/202 
f 100/153/100/152 123/204/123/202 125/211/125/209 
