v -238.3171 839.1407 183.9077
v -238.6521 841.6416 183.9077
v -238.0135 841.8127 186.3443
v -237.6555 839.1407 186.3443
v -239.6124 843.975 183.9077
v -239.0395 844.3058 186.3443
v -241.153 845.9733 183.9077
v -240.6855 846.4408 186.3443
v -243.1513 847.5139 183.9077
v -242.8206 848.0869 186.3443
v -245.4846 848.4742 183.9077
v -245.3134 849.1128 186.3443
v -247.9854 848.8092 183.9077
v -247.9853 849.4707 186.3443
v -250.4862 848.4741 183.9077
v -250.6573 849.1127 186.3443
v -252.8196 847.5139 183.9077
v -253.1503 848.0867 186.3443
v -254.8179 845.9732 183.9077
v -255.2854 846.4407 186.3443
v -256.3585 843.9749 183.9077
v -256.9314 844.3057 186.3443
v -257.3188 841.6416 183.9077
v -257.9574 841.8127 186.3443
v -257.6538 839.1408 183.9077
v -258.3153 839.1408 186.3443
v -257.3187 836.64 183.9077
v -257.9573 836.4689 186.3443
v -256.3585 834.3066 183.9077
v -256.9314 833.9759 186.3443
v -254.8179 832.3083 183.9077
v -255.2853 831.8409 186.3443
v -252.8196 830.7678 183.9077
v -253.1504 830.1949 186.3443
v -250.4863 829.8075 183.9077
v -250.6575 829.1689 186.3443
v -247.9855 829.4725 183.9077
v -247.9855 828.8109 186.3443
v -245.4846 829.8076 183.9077
v -245.3135 829.1689 186.3443
v -243.1512 830.7678 183.9077
v -242.8204 830.1949 186.3443
v -241.1529 832.3084 183.9077
v -240.6854 831.8409 186.3443
v -239.6124 834.3066 183.9077
v -239.0394 833.9758 186.3443
v -238.6521 836.6399 183.9077
v -238.0135 836.4688 186.3443
v -243.2513 841.874 180.3424
v -242.7084 840.5548 180.3424
v -243.1645 840.4326 179.4046
v -243.6605 841.6378 179.4046
v -244.0927 840.1838 178.9472
v -244.4932 841.157 178.9472
v -243.953 839.1408 178.9472
v -242.9915 839.1408 179.4046
v -245.2522 843.8749 180.3424
v -244.1224 843.0038 180.3424
v -244.4562 842.67 179.4046
v -245.4884 843.4657 179.4046
v -245.1358 841.9905 178.9472
v -245.9692 842.633 178.9472
v -247.9854 844.6073 180.3424
v -246.5714 844.4178 180.3424
v -246.6937 843.9617 179.4046
v -247.9854 844.1348 179.4046
v -246.9424 843.0335 178.9472
v -247.9854 843.1732 178.9472
v -250.7186 843.8749 180.3424
v -249.3994 844.4178 180.3424
v -249.2772 843.9617 179.4046
v -250.4824 843.4657 179.4046
v -249.0284 843.0335 178.9472
v -250.0016 842.633 178.9472
v -252.7195 841.874 180.3424
v -251.8484 843.0038 180.3424
v -251.5146 842.67 179.4046
v -252.3103 841.6378 179.4046
v -250.835 841.9905 178.9472
v -251.4776 841.157 178.9472
v -253.4518 839.1408 180.3424
v -253.2625 840.5548 180.3424
v -252.8063 840.4326 179.4046
v -252.9794 839.1408 179.4046
v -251.8781 840.1838 178.9472
v -252.0178 839.1408 178.9472
v -252.7195 836.4076 180.3424
v -253.2625 837.7269 180.3424
v -252.8063 837.8491 179.4046
v -252.3103 836.6439 179.4046
v -251.8781 838.0978 178.9472
v -251.4776 837.1246 178.9472
v -250.7186 834.4067 180.3424
v -251.8484 835.2778 180.3424
v -251.5146 835.6117 179.4046
v -250.4824 834.8159 179.4046
v -250.835 836.2912 178.9472
v -250.0016 835.6486 178.9472
v -247.9854 833.6744 180.3424
v -249.3994 833.8638 180.3424
v -249.2772 834.3199 179.4046
v -247.9854 834.1469 179.4046
v -249.0284 835.2482 178.9472
v -247.9854 835.1084 178.9472
v -245.2522 834.4067 180.3424
v -246.5715 833.8638 180.3424
v -246.6937 834.3199 179.4046
v -245.4884 834.8159 179.4046
v -246.9424 835.2482 178.9472
v -245.9692 835.6486 178.9472
v -243.2513 836.4076 180.3424
v -244.1224 835.2778 180.3424
v -244.4563 835.6117 179.4046
v -243.6605 836.6439 179.4046
v -245.1358 836.2912 178.9472
v -244.4932 837.1246 178.9472
v -242.519 839.1408 180.3424
v -242.7084 837.7269 180.3424
v -243.1645 837.8491 179.4046
v -244.0927 838.0978 178.9472
v -242.28 840.6696 182.2892
v -242.8669 842.0959 182.2892
v -242.0751 839.1408 182.2892
v -243.8087 843.3175 182.2892
v -245.0303 844.2593 182.2892
v -246.4567 844.8463 182.2892
v -247.9854 845.0511 182.2892
v -249.5142 844.8463 182.2892
v -250.9406 844.2593 182.2892
v -252.1621 843.3175 182.2892
v -253.1039 842.0959 182.2892
v -253.6909 840.6696 182.2892
v -253.8957 839.1408 182.2892
v -253.6909 837.6121 182.2892
v -253.1039 836.1857 182.2892
v -252.1621 834.9641 182.2892
v -250.9406 834.0224 182.2892
v -249.5142 833.4354 182.2892
v -247.9854 833.2305 182.2892
v -246.4567 833.4354 182.2892
v -245.0303 834.0224 182.2892
v -243.8087 834.9641 182.2892
v -242.8669 836.1857 182.2892
v -242.28 837.6121 182.2892
v -240.9323 843.2129 183.1874
v -240.1234 841.2474 183.1874
v -241.6992 840.8252 182.8691
v -242.3459 842.3968 182.8691
v -239.8412 839.1407 183.1874
v -241.4735 839.1408 182.8691
v -240.1235 837.0342 183.1874
v -241.6992 837.4564 182.8691
v -240.9323 835.0687 183.1874
v -242.3459 835.8848 182.8691
v -242.23 833.3855 183.1874
v -243.3835 834.5389 182.8691
v -243.9133 832.0878 183.1874
v -244.7294 833.5013 182.8691
v -245.8788 831.2789 183.1874
v -246.301 832.8546 182.8691
v -247.9855 830.9966 183.1874
v -247.9854 832.6289 182.8691
v -250.092 831.2789 183.1874
v -249.6698 832.8546 182.8691
v -252.0575 832.0877 183.1874
v -251.2414 833.5013 182.8691
v -253.7408 833.3854 183.1874
v -252.5873 834.5389 182.8691
v -255.0385 835.0687 183.1874
v -253.6249 835.8848 182.8691
v -255.8474 837.0342 183.1874
v -254.2717 837.4564 182.8691
v -256.1296 839.1408 183.1874
v -254.4973 839.1408 182.8691
v -255.8474 841.2474 183.1874
v -254.2717 840.8252 182.8691
v -255.0385 843.2129 183.1874
v -253.6249 842.3968 182.8691
v -253.7408 844.8961 183.1874
v -252.5873 843.7427 182.8691
v -252.0575 846.1939 183.1874
v -251.2414 844.7803 182.8691
v -250.092 847.0028 183.1874
v -249.6698 845.4271 182.8691
v -247.9854 847.285 183.1874
v -247.9854 845.6528 182.8691
v -245.8788 847.0028 183.1874
v -246.301 845.4271 182.8691
v -243.9133 846.1939 183.1874
v -244.7295 844.7803 182.8691
v -242.2301 844.8962 183.1874
v -243.3835 843.7427 182.8691
v -244.4788 839.1408 181.1159
v -244.6003 840.0479 181.1159
v -244.9485 840.8942 181.1159
v -245.5073 841.6189 181.1159
v -246.2321 842.1777 181.1159
v -247.0784 842.5259 181.1159
v -247.9854 842.6475 181.1159
v -248.8925 842.5259 181.1159
v -249.7388 842.1777 181.1159
v -250.4635 841.6189 181.1159
v -251.0223 840.8942 181.1159
v -251.3705 840.0479 181.1159
v -251.4921 839.1408 181.1159
v -251.3705 838.2338 181.1159
v -251.0223 837.3875 181.1159
v -250.4635 836.6627 181.1159
v -249.7388 836.1039 181.1159
v -248.8925 835.7557 181.1159
v -247.9854 835.6342 181.1159
v -247.0784 835.7557 181.1159
v -246.2321 836.1039 181.1159
v -245.5073 836.6627 181.1159
v -244.9485 837.3875 181.1159
v -244.6003 838.2338 181.1159
v -247.9854 839.1408 181.3662
v -238.947 841.5626 183.7435
v -239.877 843.8222 183.7435
v -238.947 836.7189 183.7435
v -238.6226 839.1407 183.7435
v -241.3688 832.5243 183.7435
v -239.877 834.4594 183.7435
v -245.5636 830.1025 183.7435
v -243.304 831.0324 183.7435
v -250.4073 830.1025 183.7435
v -247.9855 829.778 183.7435
v -254.6019 832.5243 183.7435
v -252.6669 831.0323 183.7435
v -257.0238 836.719 183.7435
v -256.0939 834.4594 183.7435
v -257.0238 841.5626 183.7435
v -257.3483 839.1408 183.7435
v -254.602 845.7573 183.7435
v -256.0939 843.8221 183.7435
v -250.4072 848.1792 183.7435
v -252.6668 847.2493 183.7435
v -245.5636 848.1792 183.7435
v -247.9854 848.5037 183.7435
v -241.3689 845.7574 183.7435
v -243.3041 847.2493 183.7435
gi 0 0 0 0
gi 0 0 0 0
gi 0 0 0 0
gi 0 0 0 0
gi 0 0 0 0
gi 0 0 0 0
gi 0 0 0 0
gi 0 0 0 0
gi 0 0 0 0
gi 0 0 0 0
gi 0 0 0 0
gi 0 0 0 0
gi 0 0 0 0
gi 0 0 0 0
gi 0 0 0 0
gi 0 0 0 0
gi 0 0 0 0
gi 0 0 0 0
gi 0 0 0 0
gi 0 0 0 0
gi 0 0 0 0
gi 0 0 0 0
gi 0 0 0 0
gi 0 0 0 0
gi 0 0 0 0
gi 0 0 0 0
gi 0 0 0 0
gi 0 0 0 0
gi 0 0 0 0
gi 0 0 0 0
gi 0 0 0 0
gi 0 0 0 0
gi 0 0 0 0
gi 0 0 0 0
gi 0 0 0 0
gi 0 0 0 0
gi 0 0 0 0
gi 0 0 0 0
gi 0 0 0 0
gi 0 0 0 0
gi 0 0 0 0
gi 0 0 0 0
gi 0 0 0 0
gi 0 0 0 0
gi 0 0 0 0
gi 0 0 0 0
gi 0 0 0 0
gi 0 0 0 0
gi 0 0 0 0
gi 0 0 0 0
gi 0 0 0 0
gi 0 0 0 0
gi 0 0 0 0
gi 0 0 0 0
gi 0 0 0 0
gi 0 0 0 0
gi 0 0 0 0
gi 0 0 0 0
gi 0 0 0 0
gi 0 0 0 0
gi 0 0 0 0
gi 0 0 0 0
gi 0 0 0 0
gi 0 0 0 0
gi 0 0 0 0
gi 0 0 0 0
gi 0 0 0 0
gi 0 0 0 0
gi 0 0 0 0
gi 0 0 0 0
gi 0 0 0 0
gi 0 0 0 0
gi 0 0 0 0
gi 0 0 0 0
gi 0 0 0 0
gi 0 0 0 0
gi 0 0 0 0
gi 0 0 0 0
gi 0 0 0 0
gi 0 0 0 0
gi 0 0 0 0
gi 0 0 0 0
gi 0 0 0 0
gi 0 0 0 0
gi 0 0 0 0
gi 0 0 0 0
gi 0 0 0 0
gi 0 0 0 0
gi 0 0 0 0
gi 0 0 0 0
gi 0 0 0 0
gi 0 0 0 0
gi 0 0 0 0
gi 0 0 0 0
gi 0 0 0 0
gi 0 0 0 0
gi 0 0 0 0
gi 0 0 0 0
gi 0 0 0 0
gi 0 0 0 0
gi 0 0 0 0
gi 0 0 0 0
gi 0 0 0 0
gi 0 0 0 0
gi 0 0 0 0
gi 0 0 0 0
gi 0 0 0 0
gi 0 0 0 0
gi 0 0 0 0
gi 0 0 0 0
gi 0 0 0 0
gi 0 0 0 0
gi 0 0 0 0
gi 0 0 0 0
gi 0 0 0 0
gi 0 0 0 0
gi 0 0 0 0
gi 0 0 0 0
gi 0 0 0 0
gi 0 0 0 0
gi 0 0 0 0
gi 0 0 0 0
gi 0 0 0 0
gi 0 0 0 0
gi 0 0 0 0
gi 0 0 0 0
gi 0 0 0 0
gi 0 0 0 0
gi 0 0 0 0
gi 0 0 0 0
gi 0 0 0 0
gi 0 0 0 0
gi 0 0 0 0
gi 0 0 0 0
gi 0 0 0 0
gi 0 0 0 0
gi 0 0 0 0
gi 0 0 0 0
gi 0 0 0 0
gi 0 0 0 0
gi 0 0 0 0
gi 0 0 0 0
gi 0 0 0 0
gi 0 0 0 0
gi 0 0 0 0
gi 0 0 0 0
gi 0 0 0 0
gi 0 0 0 0
gi 0 0 0 0
gi 0 0 0 0
gi 0 0 0 0
gi 0 0 0 0
gi 0 0 0 0
gi 0 0 0 0
gi 0 0 0 0
gi 0 0 0 0
gi 0 0 0 0
gi 0 0 0 0
gi 0 0 0 0
gi 0 0 0 0
gi 0 0 0 0
gi 0 0 0 0
gi 0 0 0 0
gi 0 0 0 0
gi 0 0 0 0
gi 0 0 0 0
gi 0 0 0 0
gi 0 0 0 0
gi 0 0 0 0
gi 0 0 0 0
gi 0 0 0 0
gi 0 0 0 0
gi 0 0 0 0
gi 0 0 0 0
gi 0 0 0 0
gi 0 0 0 0
gi 0 0 0 0
gi 0 0 0 0
gi 0 0 0 0
gi 0 0 0 0
gi 0 0 0 0
gi 0 0 0 0
gi 0 0 0 0
gi 0 0 0 0
gi 0 0 0 0
gi 0 0 0 0
gi 0 0 0 0
gi 0 0 0 0
gi 0 0 0 0
gi 0 0 0 0
gi 0 0 0 0
gi 0 0 0 0
gi 0 0 0 0
gi 0 0 0 0
gi 0 0 0 0
gi 0 0 0 0
gi 0 0 0 0
gi 0 0 0 0
gi 0 0 0 0
gi 0 0 0 0
gi 0 0 0 0
gi 0 0 0 0
gi 0 0 0 0
gi 0 0 0 0
gi 0 0 0 0
gi 0 0 0 0
gi 0 0 0 0
gi 0 0 0 0
gi 0 0 0 0
gi 0 0 0 0
gi 0 0 0 0
gi 0 0 0 0
gi 0 0 0 0
gi 0 0 0 0
gi 0 0 0 0
gi 0 0 0 0
gi 0 0 0 0
gi 0 0 0 0
gi 0 0 0 0
gi 0 0 0 0
gi 0 0 0 0
gi 0 0 0 0
gi 0 0 0 0
gi 0 0 0 0
gi 0 0 0 0
gi 0 0 0 0
gi 0 0 0 0
gi 0 0 0 0
gi 0 0 0 0
gi 0 0 0 0
gi 0 0 0 0
gi 0 0 0 0
gi 0 0 0 0
gi 0 0 0 0
gi 0 0 0 0
gi 0 0 0 0
gi 0 0 0 0
gi 0 0 0 0
gi 0 0 0 0
gi 0 0 0 0
gi 0 0 0 0
gw 0.0 0.0 0.0 0.0
gw 0.0 0.0 0.0 0.0
gw 0.0 0.0 0.0 0.0
gw 0.0 0.0 0.0 0.0
gw 0.0 0.0 0.0 0.0
gw 0.0 0.0 0.0 0.0
gw 0.0 0.0 0.0 0.0
gw 0.0 0.0 0.0 0.0
gw 0.0 0.0 0.0 0.0
gw 0.0 0.0 0.0 0.0
gw 0.0 0.0 0.0 0.0
gw 0.0 0.0 0.0 0.0
gw 0.0 0.0 0.0 0.0
gw 0.0 0.0 0.0 0.0
gw 0.0 0.0 0.0 0.0
gw 0.0 0.0 0.0 0.0
gw 0.0 0.0 0.0 0.0
gw 0.0 0.0 0.0 0.0
gw 0.0 0.0 0.0 0.0
gw 0.0 0.0 0.0 0.0
gw 0.0 0.0 0.0 0.0
gw 0.0 0.0 0.0 0.0
gw 0.0 0.0 0.0 0.0
gw 0.0 0.0 0.0 0.0
gw 0.0 0.0 0.0 0.0
gw 0.0 0.0 0.0 0.0
gw 0.0 0.0 0.0 0.0
gw 0.0 0.0 0.0 0.0
gw 0.0 0.0 0.0 0.0
gw 0.0 0.0 0.0 0.0
gw 0.0 0.0 0.0 0.0
gw 0.0 0.0 0.0 0.0
gw 0.0 0.0 0.0 0.0
gw 0.0 0.0 0.0 0.0
gw 0.0 0.0 0.0 0.0
gw 0.0 0.0 0.0 0.0
gw 0.0 0.0 0.0 0.0
gw 0.0 0.0 0.0 0.0
gw 0.0 0.0 0.0 0.0
gw 0.0 0.0 0.0 0.0
gw 0.0 0.0 0.0 0.0
gw 0.0 0.0 0.0 0.0
gw 0.0 0.0 0.0 0.0
gw 0.0 0.0 0.0 0.0
gw 0.0 0.0 0.0 0.0
gw 0.0 0.0 0.0 0.0
gw 0.0 0.0 0.0 0.0
gw 0.0 0.0 0.0 0.0
gw 0.0 0.0 0.0 0.0
gw 0.0 0.0 0.0 0.0
gw 0.0 0.0 0.0 0.0
gw 0.0 0.0 0.0 0.0
gw 0.0 0.0 0.0 0.0
gw 0.0 0.0 0.0 0.0
gw 0.0 0.0 0.0 0.0
gw 0.0 0.0 0.0 0.0
gw 0.0 0.0 0.0 0.0
gw 0.0 0.0 0.0 0.0
gw 0.0 0.0 0.0 0.0
gw 0.0 0.0 0.0 0.0
gw 0.0 0.0 0.0 0.0
gw 0.0 0.0 0.0 0.0
gw 0.0 0.0 0.0 0.0
gw 0.0 0.0 0.0 0.0
gw 0.0 0.0 0.0 0.0
gw 0.0 0.0 0.0 0.0
gw 0.0 0.0 0.0 0.0
gw 0.0 0.0 0.0 0.0
gw 0.0 0.0 0.0 0.0
gw 0.0 0.0 0.0 0.0
gw 0.0 0.0 0.0 0.0
gw 0.0 0.0 0.0 0.0
gw 0.0 0.0 0.0 0.0
gw 0.0 0.0 0.0 0.0
gw 0.0 0.0 0.0 0.0
gw 0.0 0.0 0.0 0.0
gw 0.0 0.0 0.0 0.0
gw 0.0 0.0 0.0 0.0
gw 0.0 0.0 0.0 0.0
gw 0.0 0.0 0.0 0.0
gw 0.0 0.0 0.0 0.0
gw 0.0 0.0 0.0 0.0
gw 0.0 0.0 0.0 0.0
gw 0.0 0.0 0.0 0.0
gw 0.0 0.0 0.0 0.0
gw 0.0 0.0 0.0 0.0
gw 0.0 0.0 0.0 0.0
gw 0.0 0.0 0.0 0.0
gw 0.0 0.0 0.0 0.0
gw 0.0 0.0 0.0 0.0
gw 0.0 0.0 0.0 0.0
gw 0.0 0.0 0.0 0.0
gw 0.0 0.0 0.0 0.0
gw 0.0 0.0 0.0 0.0
gw 0.0 0.0 0.0 0.0
gw 0.0 0.0 0.0 0.0
gw 0.0 0.0 0.0 0.0
gw 0.0 0.0 0.0 0.0
gw 0.0 0.0 0.0 0.0
gw 0.0 0.0 0.0 0.0
gw 0.0 0.0 0.0 0.0
gw 0.0 0.0 0.0 0.0
gw 0.0 0.0 0.0 0.0
gw 0.0 0.0 0.0 0.0
gw 0.0 0.0 0.0 0.0
gw 0.0 0.0 0.0 0.0
gw 0.0 0.0 0.0 0.0
gw 0.0 0.0 0.0 0.0
gw 0.0 0.0 0.0 0.0
gw 0.0 0.0 0.0 0.0
gw 0.0 0.0 0.0 0.0
gw 0.0 0.0 0.0 0.0
gw 0.0 0.0 0.0 0.0
gw 0.0 0.0 0.0 0.0
gw 0.0 0.0 0.0 0.0
gw 0.0 0.0 0.0 0.0
gw 0.0 0.0 0.0 0.0
gw 0.0 0.0 0.0 0.0
gw 0.0 0.0 0.0 0.0
gw 0.0 0.0 0.0 0.0
gw 0.0 0.0 0.0 0.0
gw 0.0 0.0 0.0 0.0
gw 0.0 0.0 0.0 0.0
gw 0.0 0.0 0.0 0.0
gw 0.0 0.0 0.0 0.0
gw 0.0 0.0 0.0 0.0
gw 0.0 0.0 0.0 0.0
gw 0.0 0.0 0.0 0.0
gw 0.0 0.0 0.0 0.0
gw 0.0 0.0 0.0 0.0
gw 0.0 0.0 0.0 0.0
gw 0.0 0.0 0.0 0.0
gw 0.0 0.0 0.0 0.0
gw 0.0 0.0 0.0 0.0
gw 0.0 0.0 0.0 0.0
gw 0.0 0.0 0.0 0.0
gw 0.0 0.0 0.0 0.0
gw 0.0 0.0 0.0 0.0
gw 0.0 0.0 0.0 0.0
gw 0.0 0.0 0.0 0.0
gw 0.0 0.0 0.0 0.0
gw 0.0 0.0 0.0 0.0
gw 0.0 0.0 0.0 0.0
gw 0.0 0.0 0.0 0.0
gw 0.0 0.0 0.0 0.0
gw 0.0 0.0 0.0 0.0
gw 0.0 0.0 0.0 0.0
gw 0.0 0.0 0.0 0.0
gw 0.0 0.0 0.0 0.0
gw 0.0 0.0 0.0 0.0
gw 0.0 0.0 0.0 0.0
gw 0.0 0.0 0.0 0.0
gw 0.0 0.0 0.0 0.0
gw 0.0 0.0 0.0 0.0
gw 0.0 0.0 0.0 0.0
gw 0.0 0.0 0.0 0.0
gw 0.0 0.0 0.0 0.0
gw 0.0 0.0 0.0 0.0
gw 0.0 0.0 0.0 0.0
gw 0.0 0.0 0.0 0.0
gw 0.0 0.0 0.0 0.0
gw 0.0 0.0 0.0 0.0
gw 0.0 0.0 0.0 0.0
gw 0.0 0.0 0.0 0.0
gw 0.0 0.0 0.0 0.0
gw 0.0 0.0 0.0 0.0
gw 0.0 0.0 0.0 0.0
gw 0.0 0.0 0.0 0.0
gw 0.0 0.0 0.0 0.0
gw 0.0 0.0 0.0 0.0
gw 0.0 0.0 0.0 0.0
gw 0.0 0.0 0.0 0.0
gw 0.0 0.0 0.0 0.0
gw 0.0 0.0 0.0 0.0
gw 0.0 0.0 0.0 0.0
gw 0.0 0.0 0.0 0.0
gw 0.0 0.0 0.0 0.0
gw 0.0 0.0 0.0 0.0
gw 0.0 0.0 0.0 0.0
gw 0.0 0.0 0.0 0.0
gw 0.0 0.0 0.0 0.0
gw 0.0 0.0 0.0 0.0
gw 0.0 0.0 0.0 0.0
gw 0.0 0.0 0.0 0.0
gw 0.0 0.0 0.0 0.0
gw 0.0 0.0 0.0 0.0
gw 0.0 0.0 0.0 0.0
gw 0.0 0.0 0.0 0.0
gw 0.0 0.0 0.0 0.0
gw 0.0 0.0 0.0 0.0
gw 0.0 0.0 0.0 0.0
gw 0.0 0.0 0.0 0.0
gw 0.0 0.0 0.0 0.0
gw 0.0 0.0 0.0 0.0
gw 0.0 0.0 0.0 0.0
gw 0.0 0.0 0.0 0.0
gw 0.0 0.0 0.0 0.0
gw 0.0 0.0 0.0 0.0
gw 0.0 0.0 0.0 0.0
gw 0.0 0.0 0.0 0.0
gw 0.0 0.0 0.0 0.0
gw 0.0 0.0 0.0 0.0
gw 0.0 0.0 0.0 0.0
gw 0.0 0.0 0.0 0.0
gw 0.0 0.0 0.0 0.0
gw 0.0 0.0 0.0 0.0
gw 0.0 0.0 0.0 0.0
gw 0.0 0.0 0.0 0.0
gw 0.0 0.0 0.0 0.0
gw 0.0 0.0 0.0 0.0
gw 0.0 0.0 0.0 0.0
gw 0.0 0.0 0.0 0.0
gw 0.0 0.0 0.0 0.0
gw 0.0 0.0 0.0 0.0
gw 0.0 0.0 0.0 0.0
gw 0.0 0.0 0.0 0.0
gw 0.0 0.0 0.0 0.0
gw 0.0 0.0 0.0 0.0
gw 0.0 0.0 0.0 0.0
gw 0.0 0.0 0.0 0.0
gw 0.0 0.0 0.0 0.0
gw 0.0 0.0 0.0 0.0
gw 0.0 0.0 0.0 0.0
gw 0.0 0.0 0.0 0.0
gw 0.0 0.0 0.0 0.0
gw 0.0 0.0 0.0 0.0
gw 0.0 0.0 0.0 0.0
gw 0.0 0.0 0.0 0.0
gw 0.0 0.0 0.0 0.0
gw 0.0 0.0 0.0 0.0
gw 0.0 0.0 0.0 0.0
gw 0.0 0.0 0.0 0.0
gw 0.0 0.0 0.0 0.0
gw 0.0 0.0 0.0 0.0
gw 0.0 0.0 0.0 0.0
gw 0.0 0.0 0.0 0.0
gw 0.0 0.0 0.0 0.0
gw 0.0 0.0 0.0 0.0
gw 0.0 0.0 0.0 0.0
gw 0.0 0.0 0.0 0.0
gw 0.0 0.0 0.0 0.0
vt 0.6539 0.6437
vt 0.6431 0.7239
vt 0.6636 0.7293
vt 0.6751 0.6437
vt 0.6123 0.7987
vt 0.6307 0.8093
vt 0.5629 0.8628
vt 0.5779 0.8778
vt 0.4988 0.9122
vt 0.5095 0.9306
vt 0.424 0.943
vt 0.4295 0.9635
vt 0.3438 0.9537
vt 0.3438 0.9749
vt 0.2636 0.943
vt 0.2581 0.9635
vt 0.1888 0.9122
vt 0.1782 0.9306
vt 0.1247 0.8628
vt 0.1097 0.8778
vt 0.0753 0.7987
vt 0.0569 0.8093
vt 0.0445 0.7239
vt 0.024 0.7293
vt 0.0337 0.6437
vt 0.0125 0.6437
vt 0.0445 0.5635
vt 0.024 0.558
vt 0.0753 0.4886
vt 0.0569 0.478
vt 0.1247 0.4245
vt 0.1097 0.4095
vt 0.1888 0.3751
vt 0.1782 0.3568
vt 0.2636 0.3443
vt 0.2581 0.3239
vt 0.3438 0.3336
vt 0.3438 0.3124
vt 0.424 0.3443
vt 0.4295 0.3239
vt 0.4989 0.3751
vt 0.5095 0.3568
vt 0.5629 0.4245
vt 0.5779 0.4095
vt 0.6123 0.4886
vt 0.6307 0.478
vt 0.6431 0.5635
vt 0.6636 0.558
vt 0.4956 0.7313
vt 0.5131 0.689
vt 0.4984 0.6851
vt 0.4825 0.7237
vt 0.4687 0.6771
vt 0.4558 0.7083
vt 0.4731 0.6437
vt 0.504 0.6437
vt 0.4315 0.7955
vt 0.4677 0.7675
vt 0.457 0.7568
vt 0.4239 0.7824
vt 0.4352 0.735
vt 0.4085 0.7557
vt 0.3438 0.819
vt 0.3892 0.8129
vt 0.3852 0.7983
vt 0.3438 0.8038
vt 0.3773 0.7685
vt 0.3438 0.773
vt 0.2562 0.7955
vt 0.2985 0.8129
vt 0.3024 0.7983
vt 0.2637 0.7824
vt 0.3104 0.7685
vt 0.2792 0.7557
vt 0.192 0.7313
vt 0.2199 0.7675
vt 0.2306 0.7568
vt 0.2051 0.7237
vt 0.2524 0.735
vt 0.2318 0.7083
vt 0.1685 0.6437
vt 0.1746 0.689
vt 0.1892 0.6851
vt 0.1837 0.6437
vt 0.219 0.6771
vt 0.2145 0.6437
vt 0.192 0.556
vt 0.1746 0.5983
vt 0.1892 0.6022
vt 0.2051 0.5636
vt 0.219 0.6102
vt 0.2318 0.579
vt 0.2562 0.4918
vt 0.2199 0.5198
vt 0.2306 0.5305
vt 0.2637 0.505
vt 0.2524 0.5523
vt 0.2792 0.5317
vt 0.3438 0.4683
vt 0.2985 0.4744
vt 0.3024 0.489
vt 0.3438 0.4835
vt 0.3104 0.5188
vt 0.3438 0.5143
vt 0.4315 0.4918
vt 0.3892 0.4744
vt 0.3852 0.489
vt 0.4239 0.505
vt 0.3773 0.5188
vt 0.4085 0.5317
vt 0.4956 0.556
vt 0.4677 0.5198
vt 0.457 0.5305
vt 0.4825 0.5636
vt 0.4352 0.5523
vt 0.4558 0.579
vt 0.5191 0.6437
vt 0.5131 0.5983
vt 0.4984 0.6022
vt 0.4687 0.6102
vt 0.5268 0.6927
vt 0.508 0.7384
vt 0.5334 0.6437
vt 0.4778 0.7776
vt 0.4386 0.8078
vt 0.3928 0.8266
vt 0.3438 0.8332
vt 0.2948 0.8266
vt 0.249 0.8078
vt 0.2099 0.7776
vt 0.1797 0.7384
vt 0.1608 0.6927
vt 0.1543 0.6437
vt 0.1608 0.5946
vt 0.1797 0.5489
vt 0.2099 0.5097
vt 0.249 0.4795
vt 0.2948 0.4607
vt 0.3438 0.4541
vt 0.3928 0.4607
vt 0.4386 0.4795
vt 0.4778 0.5097
vt 0.508 0.5489
vt 0.5268 0.5946
vt 0.57 0.7743
vt 0.596 0.7112
vt 0.5454 0.6977
vt 0.5247 0.7481
vt 0.605 0.6437
vt 0.5527 0.6437
vt 0.596 0.5761
vt 0.5454 0.5896
vt 0.57 0.5131
vt 0.5247 0.5392
vt 0.5284 0.4591
vt 0.4914 0.4961
vt 0.4744 0.4175
vt 0.4482 0.4628
vt 0.4114 0.3915
vt 0.3978 0.4421
vt 0.3438 0.3825
vt 0.3438 0.4348
vt 0.2763 0.3915
vt 0.2898 0.4421
vt 0.2132 0.4175
vt 0.2394 0.4628
vt 0.1592 0.4591
vt 0.1962 0.4961
vt 0.1176 0.5131
vt 0.163 0.5392
vt 0.0917 0.5761
vt 0.1422 0.5896
vt 0.0826 0.6437
vt 0.135 0.6437
vt 0.0917 0.7112
vt 0.1422 0.6977
vt 0.1176 0.7743
vt 0.163 0.7481
vt 0.1592 0.8282
vt 0.1962 0.7912
vt 0.2132 0.8699
vt 0.2394 0.8245
vt 0.2763 0.8958
vt 0.2898 0.8453
vt 0.3438 0.9048
vt 0.3438 0.8525
vt 0.4114 0.8958
vt 0.3978 0.8453
vt 0.4744 0.8699
vt 0.4482 0.8245
vt 0.5284 0.8282
vt 0.4914 0.7912
vt 0.4563 0.6437
vt 0.4524 0.6727
vt 0.4412 0.6999
vt 0.4233 0.7231
vt 0.4 0.7411
vt 0.3729 0.7522
vt 0.3438 0.7561
vt 0.3147 0.7522
vt 0.2876 0.7411
vt 0.2643 0.7231
vt 0.2464 0.6999
vt 0.2353 0.6727
vt 0.2314 0.6437
vt 0.2353 0.6146
vt 0.2464 0.5874
vt 0.2643 0.5642
vt 0.2876 0.5463
vt 0.3147 0.5351
vt 0.3438 0.5312
vt 0.3729 0.5351
vt 0.4 0.5463
vt 0.4233 0.5642
vt 0.4412 0.5874
vt 0.4524 0.6146
vt 0.3438 0.6437
vt 0.6337 0.7213
vt 0.6039 0.7938
vt 0.6441 0.6437
vt 0.6337 0.566
vt 0.556 0.4315
vt 0.6039 0.4935
vt 0.4215 0.3538
vt 0.494 0.3836
vt 0.2661 0.3538
vt 0.3438 0.3434
vt 0.1316 0.4315
vt 0.1937 0.3836
vt 0.0539 0.566
vt 0.0838 0.4935
vt 0.0539 0.7213
vt 0.0435 0.6437
vt 0.1316 0.8559
vt 0.0838 0.7938
vt 0.2661 0.9335
vt 0.1937 0.9037
vt 0.4215 0.9335
vt 0.3438 0.9439
vt 0.556 0.8559
vt 0.4939 0.9037
vn 0.7953 -0.0 -0.6063
vn 0.7679 0.2058 -0.6066
vn 0.9322 0.2498 -0.2619
vn 0.9651 0.0 -0.262
vn 0.6887 0.3976 -0.6063
vn 0.8358 0.4825 -0.262
vn 0.5622 0.5621 -0.6066
vn 0.6824 0.6824 -0.2619
vn 0.3976 0.6887 -0.6063
vn 0.4825 0.8358 -0.262
vn 0.2058 0.7679 -0.6066
vn 0.2498 0.9322 -0.2619
vn -0.0 0.7953 -0.6062
vn -0.0 0.9651 -0.262
vn -0.2058 0.7679 -0.6066
vn -0.2498 0.9322 -0.2618
vn -0.3976 0.6887 -0.6063
vn -0.4825 0.8358 -0.2619
vn -0.5622 0.5621 -0.6066
vn -0.6824 0.6824 -0.2619
vn -0.6887 0.3976 -0.6063
vn -0.8358 0.4825 -0.262
vn -0.7679 0.2058 -0.6066
vn -0.9322 0.2498 -0.2619
vn -0.7953 -0.0 -0.6062
vn -0.9651 -0.0 -0.262
vn -0.7679 -0.2057 -0.6066
vn -0.9322 -0.2498 -0.2619
vn -0.6887 -0.3976 -0.6062
vn -0.8358 -0.4825 -0.262
vn -0.5621 -0.5621 -0.6067
vn -0.6824 -0.6824 -0.2618
vn -0.3976 -0.6888 -0.6062
vn -0.4825 -0.8358 -0.262
vn -0.2058 -0.7678 -0.6067
vn -0.2498 -0.9322 -0.2619
vn -0.0 -0.7953 -0.6062
vn -0.0 -0.9651 -0.262
vn 0.2058 -0.7679 -0.6066
vn 0.2498 -0.9322 -0.2619
vn 0.3976 -0.6887 -0.6063
vn 0.4825 -0.8358 -0.262
vn 0.5621 -0.5622 -0.6066
vn 0.6824 -0.6824 -0.2619
vn 0.6887 -0.3976 -0.6063
vn 0.8358 -0.4825 -0.262
vn 0.7679 -0.2058 -0.6066
vn 0.9322 -0.2498 -0.2619
vn 0.8159 0.4711 -0.3354
vn 0.91 0.2438 -0.3353
vn 0.688 0.1843 -0.7019
vn 0.6171 0.3563 -0.7016
vn -0.3626 -0.0971 -0.9269
vn -0.3234 -0.1867 -0.9277
vn -0.3734 0.0 -0.9277
vn 0.7125 -0.0 -0.7016
vn 0.471 0.8159 -0.3354
vn 0.6662 0.6662 -0.3353
vn 0.5037 0.5037 -0.7019
vn 0.3563 0.6171 -0.7016
vn -0.2655 -0.2655 -0.9268
vn -0.1867 -0.3234 -0.9277
vn -0.0 0.9421 -0.3354
vn 0.2439 0.91 -0.3353
vn 0.1844 0.688 -0.7019
vn 0.0 0.7125 -0.7017
vn -0.0971 -0.3626 -0.9269
vn -0.0 -0.3734 -0.9277
vn -0.471 0.8159 -0.3354
vn -0.2438 0.91 -0.3353
vn -0.1844 0.688 -0.7019
vn -0.3563 0.6171 -0.7016
vn 0.0972 -0.3626 -0.9269
vn 0.1867 -0.3234 -0.9277
vn -0.8159 0.4711 -0.3354
vn -0.6662 0.6662 -0.3353
vn -0.5037 0.5037 -0.7019
vn -0.6171 0.3563 -0.7016
vn 0.2655 -0.2654 -0.9269
vn 0.3234 -0.1867 -0.9277
vn -0.9421 0.0 -0.3354
vn -0.91 0.2438 -0.3353
vn -0.688 0.1843 -0.7019
vn -0.7126 -0.0 -0.7016
vn 0.3626 -0.0971 -0.9269
vn 0.3734 -0.0 -0.9277
vn -0.8159 -0.471 -0.3354
vn -0.91 -0.2438 -0.3353
vn -0.688 -0.1843 -0.7019
vn -0.6171 -0.3562 -0.7016
vn 0.3626 0.0972 -0.9269
vn 0.3233 0.1867 -0.9277
vn -0.4711 -0.8159 -0.3354
vn -0.6662 -0.6662 -0.3353
vn -0.5037 -0.5036 -0.7019
vn -0.3563 -0.6171 -0.7016
vn 0.2655 0.2655 -0.9268
vn 0.1867 0.3234 -0.9277
vn -0.0 -0.9421 -0.3354
vn -0.2438 -0.91 -0.3353
vn -0.1843 -0.688 -0.7019
vn -0.0 -0.7126 -0.7016
vn 0.0972 0.3627 -0.9268
vn -0.0 0.3734 -0.9277
vn 0.471 -0.8159 -0.3354
vn 0.2438 -0.91 -0.3353
vn 0.1843 -0.688 -0.7019
vn 0.3563 -0.6171 -0.7016
vn -0.0972 0.3627 -0.9268
vn -0.1867 0.3234 -0.9277
vn 0.8159 -0.471 -0.3354
vn 0.6662 -0.6662 -0.3353
vn 0.5036 -0.5036 -0.7019
vn 0.6171 -0.3563 -0.7016
vn -0.2655 0.2655 -0.9268
vn -0.3233 0.1867 -0.9277
vn 0.9421 -0.0 -0.3354
vn 0.91 -0.2438 -0.3353
vn 0.688 -0.1843 -0.7019
vn -0.3626 0.0971 -0.9269
vn 0.8356 0.2239 -0.5017
vn 0.7489 0.4323 -0.5023
vn 0.8647 -0.0 -0.5023
vn 0.6117 0.6117 -0.5017
vn 0.4324 0.7489 -0.5023
vn 0.2239 0.8356 -0.5017
vn -0.0 0.8647 -0.5023
vn -0.2239 0.8355 -0.5017
vn -0.4324 0.7489 -0.5023
vn -0.6117 0.6117 -0.5017
vn -0.7489 0.4324 -0.5022
vn -0.8356 0.2239 -0.5017
vn -0.8647 -0.0 -0.5023
vn -0.8356 -0.2239 -0.5017
vn -0.7489 -0.4323 -0.5023
vn -0.6117 -0.6117 -0.5017
vn -0.4323 -0.7489 -0.5023
vn -0.2239 -0.8356 -0.5017
vn 0.0 -0.8647 -0.5023
vn 0.2239 -0.8356 -0.5017
vn 0.4323 -0.7489 -0.5023
vn 0.6117 -0.6117 -0.5017
vn 0.7489 -0.4323 -0.5023
vn 0.8356 -0.2239 -0.5017
vn 0.2722 0.1572 -0.9493
vn 0.3035 0.0813 -0.9494
vn 0.4281 0.1147 -0.8964
vn 0.383 0.2211 -0.8969
vn 0.3144 -0.0 -0.9493
vn 0.4423 -0.0 -0.8969
vn 0.3035 -0.0813 -0.9494
vn 0.4281 -0.1147 -0.8964
vn 0.2722 -0.1572 -0.9493
vn 0.383 -0.2211 -0.8969
vn 0.2222 -0.2222 -0.9494
vn 0.3133 -0.3133 -0.8965
vn 0.1572 -0.2722 -0.9493
vn 0.2211 -0.383 -0.8969
vn 0.0813 -0.3035 -0.9493
vn 0.1147 -0.4281 -0.8964
vn -0.0 -0.3144 -0.9493
vn 0.0 -0.4423 -0.8969
vn -0.0813 -0.3035 -0.9494
vn -0.1147 -0.4281 -0.8964
vn -0.1572 -0.2722 -0.9493
vn -0.2211 -0.383 -0.8969
vn -0.2222 -0.2222 -0.9493
vn -0.3133 -0.3133 -0.8965
vn -0.2722 -0.1572 -0.9493
vn -0.383 -0.2212 -0.8969
vn -0.3035 -0.0813 -0.9494
vn -0.428 -0.1147 -0.8965
vn -0.3144 -0.0 -0.9493
vn -0.4423 -0.0 -0.8969
vn -0.3035 0.0813 -0.9494
vn -0.4281 0.1147 -0.8964
vn -0.2722 0.1572 -0.9493
vn -0.3831 0.2212 -0.8969
vn -0.2222 0.2222 -0.9494
vn -0.3133 0.3133 -0.8965
vn -0.1572 0.2722 -0.9493
vn -0.2212 0.3831 -0.8969
vn -0.0813 0.3035 -0.9493
vn -0.1147 0.428 -0.8965
vn -0.0 0.3143 -0.9493
vn 0.0 0.4423 -0.8969
vn 0.0813 0.3035 -0.9493
vn 0.1147 0.428 -0.8964
vn 0.1572 0.2722 -0.9493
vn 0.2212 0.3831 -0.8969
vn 0.2222 0.2222 -0.9494
vn 0.3134 0.3134 -0.8964
vn -0.6731 -0.0 -0.7395
vn -0.6494 -0.174 -0.7403
vn -0.583 -0.3366 -0.7395
vn -0.4754 -0.4754 -0.7402
vn -0.3366 -0.583 -0.7395
vn -0.174 -0.6494 -0.7403
vn -0.0 -0.6732 -0.7395
vn 0.174 -0.6494 -0.7403
vn 0.3366 -0.583 -0.7395
vn 0.4754 -0.4754 -0.7402
vn 0.583 -0.3366 -0.7395
vn 0.6494 -0.174 -0.7403
vn 0.6732 -0.0 -0.7395
vn 0.6494 0.174 -0.7403
vn 0.583 0.3365 -0.7395
vn 0.4754 0.4754 -0.7402
vn 0.3366 0.583 -0.7395
vn 0.174 0.6494 -0.7402
vn -0.0 0.6731 -0.7395
vn -0.174 0.6494 -0.7402
vn -0.3366 0.583 -0.7395
vn -0.4754 0.4754 -0.7402
vn -0.583 0.3366 -0.7395
vn -0.6494 0.174 -0.7402
vn 0.0 0.0 -1.0
vn 0.4317 0.1157 -0.8946
vn 0.3869 0.2233 -0.8947
vn 0.4467 -0.0 -0.8947
vn 0.4316 -0.1157 -0.8946
vn 0.316 -0.316 -0.8946
vn 0.3869 -0.2233 -0.8947
vn 0.1157 -0.4317 -0.8946
vn 0.2234 -0.3868 -0.8947
vn -0.1156 -0.4315 -0.8947
vn -0.0 -0.4467 -0.8947
vn -0.3159 -0.3159 -0.8947
vn -0.2234 -0.387 -0.8946
vn -0.4316 -0.1157 -0.8946
vn -0.3869 -0.2233 -0.8947
vn -0.4316 0.1157 -0.8946
vn -0.4467 -0.0 -0.8947
vn -0.316 0.316 -0.8946
vn -0.3869 0.2233 -0.8947
vn -0.1157 0.4317 -0.8946
vn -0.2233 0.3868 -0.8947
vn 0.1157 0.4317 -0.8946
vn -0.0 0.4467 -0.8947
vn 0.316 0.316 -0.8946
vn 0.2233 0.3868 -0.8947
vtan 0.6063 0.0 0.7953
vtan 0.6201 -0.0014 0.7845
vtan 0.2702 0.0008 0.9628
vtan 0.262 0.0 0.9651
vtan 0.6578 0.0089 0.7531
vtan 0.2993 -0.0003 0.9542
vtan 0.7199 0.0285 0.6935
vtan 0.3604 -0.0025 0.9328
vtan 0.8064 0.053 0.589
vtan 0.4884 -0.0084 0.8726
vtan 0.9219 0.0558 0.3834
vtan 0.757 -0.0193 0.6532
vtan 1.0 0.0001 0.0001
vtan 1.0 0.0001 0.0002
vtan 0.9219 -0.0558 -0.3833
vtan 0.7567 0.0192 -0.6535
vtan 0.8063 -0.053 -0.5891
vtan 0.4884 0.0085 -0.8726
vtan 0.7198 -0.0286 -0.6936
vtan 0.3605 0.0026 -0.9328
vtan 0.6578 -0.009 -0.7532
vtan 0.2994 0.0005 -0.9541
vtan 0.6202 0.0015 -0.7845
vtan 0.2703 -0.0007 -0.9628
vtan 0.6062 0.0 -0.7953
vtan 0.262 -0.0003 -0.9651
vtan 0.6195 0.0023 -0.785
vtan 0.2705 -0.0002 -0.9627
vtan 0.6578 0.0088 -0.7531
vtan 0.2994 -0.0006 -0.9541
vtan 0.7211 0.0262 -0.6924
vtan 0.3605 -0.0027 -0.9327
vtan 0.8059 0.0537 -0.5897
vtan 0.4874 -0.0077 -0.8732
vtan 0.9215 0.0567 -0.3843
vtan 0.7546 -0.0179 -0.6559
vtan 1.0 -0.0004 0.0005
vtan 1.0 -0.0001 0.0003
vtan 0.9216 -0.0564 0.3841
vtan 0.7552 0.0183 0.6553
vtan 0.8059 -0.0537 0.5896
vtan 0.4872 0.0075 0.8733
vtan 0.7212 -0.0259 0.6923
vtan 0.3603 0.0023 0.9328
vtan 0.6578 -0.0091 0.7532
vtan 0.2995 0.0005 0.9541
vtan 0.6195 -0.0024 0.785
vtan 0.2705 0.0001 0.9627
vtan 0.3803 -0.0002 0.9249
vtan 0.3457 0.0001 0.9383
vtan 0.7141 0.0004 0.7001
vtan 0.7498 0.0045 0.6617
vtan 0.931 0.0075 -0.365
vtan 0.9419 0.0309 -0.3346
vtan 0.9277 0.0 -0.3734
vtan 0.7016 0.0 0.7125
vtan 0.5795 0.0004 0.815
vtan 0.4494 0.0002 0.8934
vtan 0.8073 0.0149 0.59
vtan 0.8823 0.0249 0.4699
vtan 0.9539 0.0673 -0.2925
vtan 0.9688 0.0962 -0.2285
vtan 1.0 0.0 0.0001
vtan 0.8106 -0.0014 0.5856
vtan 0.9616 0.0215 0.2737
vtan 1.0 -0.0 0.0
vtan 0.9874 0.0819 -0.1355
vtan 1.0 -0.0001 0.0
vtan 0.5793 -0.0007 -0.8151
vtan 0.8106 0.0014 -0.5856
vtan 0.9616 -0.0215 -0.2737
vtan 0.8823 -0.0249 -0.4699
vtan 0.9874 -0.0818 0.1355
vtan 0.9688 -0.096 0.2285
vtan 0.3803 0.0002 -0.9249
vtan 0.4494 -0.0003 -0.8933
vtan 0.8073 -0.0149 -0.59
vtan 0.7498 -0.0045 -0.6617
vtan 0.9539 -0.0673 0.2925
vtan 0.9419 -0.0311 0.3346
vtan 0.3354 0.0001 -0.9421
vtan 0.3457 -0.0002 -0.9383
vtan 0.7141 -0.0004 -0.7
vtan 0.7016 -0.0 -0.7126
vtan 0.931 -0.0077 0.365
vtan 0.9277 0.0002 0.3734
vtan 0.3803 -0.0002 -0.9249
vtan 0.3457 0.0002 -0.9383
vtan 0.7141 0.0005 -0.7001
vtan 0.7498 0.0044 -0.6617
vtan 0.931 0.0078 0.365
vtan 0.9419 0.0309 0.3345
vtan 0.5801 -0.0001 -0.8146
vtan 0.4494 0.0003 -0.8933
vtan 0.8076 0.014 -0.5896
vtan 0.8829 0.0236 -0.4691
vtan 0.954 0.0664 0.2923
vtan 0.9687 0.0966 0.2286
vtan 1.0 0.0 -0.0
vtan 0.8106 -0.0014 -0.5856
vtan 0.9615 0.022 -0.274
vtan 1.0 -0.0 0.0
vtan 0.9872 0.0834 0.1362
vtan 1.0 -0.0 -0.0
vtan 0.5798 -0.0001 0.8147
vtan 0.8106 0.0014 0.5856
vtan 0.9615 -0.022 0.274
vtan 0.8828 -0.0236 0.4691
vtan 0.9872 -0.0833 -0.1361
vtan 0.9688 -0.0964 -0.2285
vtan 0.3803 0.0002 0.9249
vtan 0.4494 -0.0003 0.8933
vtan 0.8076 -0.014 0.5895
vtan 0.7498 -0.0044 0.6617
vtan 0.954 -0.0663 -0.2923
vtan 0.9419 -0.031 -0.3345
vtan 0.3354 0.0 0.9421
vtan 0.3457 -0.0002 0.9384
vtan 0.7141 -0.0005 0.7001
vtan 0.931 -0.0079 -0.365
vtan 0.5147 0.0003 0.8574
vtan 0.5556 0.0036 0.8315
vtan 0.5023 -0.0 0.8647
vtan 0.6253 0.0148 0.7803
vtan 0.7335 0.0318 0.6789
vtan 0.887 0.0387 0.4602
vtan 1.0 -0.0002 -0.0003
vtan 0.8873 -0.0383 -0.4597
vtan 0.7336 -0.0317 -0.6788
vtan 0.6251 -0.015 -0.7804
vtan 0.5555 -0.0036 -0.8315
vtan 0.5147 -0.0002 -0.8574
vtan 0.5023 0.0 -0.8647
vtan 0.5147 0.0005 -0.8574
vtan 0.5556 0.0036 -0.8315
vtan 0.6253 0.0148 -0.7803
vtan 0.7335 0.0319 -0.6789
vtan 0.8868 0.0388 -0.4604
vtan 1.0 0.0001 -0.0001
vtan 0.8868 -0.0389 0.4606
vtan 0.7338 -0.0316 0.6787
vtan 0.6251 -0.015 0.7804
vtan 0.5556 -0.0036 0.8315
vtan 0.5147 -0.0003 0.8574
vtan 0.9612 0.0003 0.2757
vtan 0.9525 0.0005 0.3046
vtan 0.9024 0.0003 0.4309
vtan 0.9196 0.0008 0.3929
vtan 0.9493 -0.0001 0.3144
vtan 0.8969 0.0 0.4423
vtan 0.9525 -0.0005 0.3045
vtan 0.9024 -0.0007 0.431
vtan 0.9613 0.0 0.2757
vtan 0.9195 -0.0013 0.393
vtan 0.9737 -0.0003 0.2279
vtan 0.9434 -0.005 0.3315
vtan 0.9865 -0.0004 0.1635
vtan 0.9703 -0.0062 0.2418
vtan 0.9963 -0.0002 0.0854
vtan 0.9916 -0.0053 0.1294
vtan 1.0 0.0 -0.0
vtan 1.0 0.0004 -0.0002
vtan 0.9963 0.0003 -0.0854
vtan 0.9916 0.0047 -0.1291
vtan 0.9866 0.0004 -0.1634
vtan 0.9703 0.0065 -0.242
vtan 0.9737 0.0004 -0.228
vtan 0.9435 0.0046 -0.3314
vtan 0.9613 -0.0001 -0.2756
vtan 0.9195 0.0016 -0.3931
vtan 0.9525 0.0003 -0.3045
vtan 0.9024 0.0007 -0.431
vtan 0.9493 -0.0 -0.3144
vtan 0.8969 0.0001 -0.4423
vtan 0.9525 -0.0003 -0.3045
vtan 0.9024 -0.0005 -0.431
vtan 0.9612 -0.0002 -0.2757
vtan 0.9196 -0.0008 -0.3929
vtan 0.9737 0.0002 -0.2278
vtan 0.9435 -0.0047 -0.3314
vtan 0.9865 -0.0004 -0.1635
vtan 0.9702 -0.0067 -0.2421
vtan 0.9964 0.0001 -0.0853
vtan 0.9917 -0.004 -0.1288
vtan 1.0 -0.0001 -0.0
vtan 1.0 -0.0002 -0.0001
vtan 0.9963 0.0 0.0854
vtan 0.9916 0.0047 0.1291
vtan 0.9865 0.0007 0.1635
vtan 0.9703 0.0061 0.2419
vtan 0.9737 -0.0006 0.2278
vtan 0.9435 0.0046 0.3314
vtan 0.7395 -0.0002 -0.6731
vtan 0.7515 0.0017 -0.6597
vtan 0.7808 0.0198 -0.6245
vtan 0.8226 0.0581 -0.5656
vtan 0.8737 0.0996 -0.4762
vtan 0.9461 0.0983 -0.3086
vtan 1.0 -0.0002 0.0001
vtan 0.946 -0.0985 0.3088
vtan 0.8736 -0.0997 0.4762
vtan 0.8226 -0.0582 0.5657
vtan 0.7808 -0.0196 0.6245
vtan 0.7515 -0.0017 0.6597
vtan 0.7395 -0.0001 0.6732
vtan 0.7515 0.0016 0.6597
vtan 0.7808 0.0194 0.6244
vtan 0.823 0.0569 0.5651
vtan 0.8735 0.1 0.4765
vtan 0.9456 0.0997 0.3097
vtan 1.0 -0.0001 -0.0001
vtan 0.9456 -0.0998 -0.3098
vtan 0.8735 -0.1002 -0.4765
vtan 0.823 -0.057 -0.5652
vtan 0.7809 -0.0192 -0.6244
vtan 0.7515 -0.0015 -0.6597
vtan 1.0 -0.0 0.0
vtan 0.9008 -0.0029 0.4343
vtan 0.9178 0.0003 0.3969
vtan 0.8947 -0.0001 0.4467
vtan 0.9006 -0.0016 0.4347
vtan 0.9432 0.003 0.3321
vtan 0.9179 0.0005 0.3968
vtan 0.9918 0.0011 0.1277
vtan 0.9703 0.0005 0.242
vtan 0.9918 -0.0006 -0.1279
vtan 1.0 -0.0002 0.0001
vtan 0.9432 -0.0024 -0.3322
vtan 0.9703 -0.0011 -0.2418
vtan 0.9006 0.0016 -0.4347
vtan 0.9179 -0.0005 -0.3968
vtan 0.9008 0.0029 -0.4342
vtan 0.8947 0.0001 -0.4467
vtan 0.9429 -0.0004 -0.3332
vtan 0.9178 -0.0003 -0.3969
vtan 0.9918 0.001 -0.1277
vtan 0.9703 0.0007 -0.2419
vtan 0.9918 -0.0007 0.1279
vtan 1.0 -0.0002 -0.0001
vtan 0.9429 0.0 0.3331
vtan 0.9703 -0.0004 0.242
f 0/0/0/0 1/1/1/1 2/2/2/2 
f 0/0/0/0 2/2/2/2 3/3/3/3 
f 1/1/1/1 4/4/4/4 5/5/5/5 
f 1/1/1/1 5/5/5/5 2/2/2/2 
f 4/4/4/4 6/6/6/6 7/7/7/7 
f 4/4/4/4 7/7/7/7 5/5/5/5 
f 6/6/6/6 8/8/8/8 9/9/9/9 
f 6/6/6/6 9/9/9/9 7/7/7/7 
f 8/8/8/8 10/10/10/10 11/11/11/11 
f 8/8/8/8 11/11/11/11 9/9/9/9 
f 10/10/10/10 12/12/12/12 13/13/13/13 
f 10/10/10/10 13/13/13/13 11/11/11/11 
f 12/12/12/12 14/14/14/14 15/15/15/15 
f 12/12/12/12 15/15/15/15 13/13/13/13 
f 14/14/14/14 16/16/16/16 17/17/17/17 
f 14/14/14/14 17/17/17/17 15/15/15/15 
f 16/16/16/16 18/18/18/18 19/19/19/19 
f 16/16/16/16 19/19/19/19 17/17/17/17 
f 18/18/18/18 20/20/20/20 21/21/21/21 
f 18/18/18/18 21/21/21/21 19/19/19/19 
f 20/20/20/20 22/22/22/22 23/23/23/23 
f 20/20/20/20 23/23/23/23 21/21/21/21 
f 22/22/22/22 24/24/24/24 25/25/25/25 
f 22/22/22/22 25/25/25/25 23/23/23/23 
f 24/24/24/24 26/26/26/26 27/27/27/27 
f 24/24/24/24 27/27/27/27 25/25/25/25 
f 26/26/26/26 28/28/28/28 29/29/29/29 
f 26/26/26/26 29/29/29/29 27/27/27/27 
f 28/28/28/28 30/30/30/30 31/31/31/31 
f 28/28/28/28 31/31/31/31 29/29/29/29 
f 30/30/30/30 32/32/32/32 33/33/33/33 
f 30/30/30/30 33/33/33/33 31/31/31/31 
f 32/32/32/32 34/34/34/34 35/35/35/35 
f 32/32/32/32 35/35/35/35 33/33/33/33 
f 34/34/34/34 36/36/36/36 37/37/37/37 
f 34/34/34/34 37/37/37/37 35/35/35/35 
f 36/36/36/36 38/38/38/38 39/39/39/39 
f 36/36/36/36 39/39/39/39 37/37/37/37 
f 38/38/38/38 40/40/40/40 41/41/41/41 
f 38/38/38/38 41/41/41/41 39/39/39/39 
f 40/40/40/40 42/42/42/42 43/43/43/43 
f 40/40/40/40 43/43/43/43 41/41/41/41 
f 42/42/42/42 44/44/44/44 45/45/45/45 
f 42/42/42/42 45/45/45/45 43/43/43/43 
f 44/44/44/44 46/46/46/46 47/47/47/47 
f 44/44/44/44 47/47/47/47 45/45/45/45 
f 46/46/46/46 0/0/0/0 3/3/3/3 
f 46/46/46/46 3/3/3/3 47/47/47/47 
f 48/48/48/48 49/49/49/49 50/50/50/50 
f 48/48/48/48 50/50/50/50 51/51/51/51 
f 50/50/50/50 52/52/52/52 53/53/53/53 
f 50/50/50/50 53/53/53/53 51/51/51/51 
f 54/54/54/54 52/52/52/52 50/50/50/50 
f 54/54/54/54 50/50/50/50 55/55/55/55 
f 56/56/56/56 57/57/57/57 58/58/58/58 
f 56/56/56/56 58/58/58/58 59/59/59/59 
f 58/58/58/58 60/60/60/60 61/61/61/61 
f 58/58/58/58 61/61/61/61 59/59/59/59 
f 53/53/53/53 60/60/60/60 58/58/58/58 
f 53/53/53/53 58/58/58/58 51/51/51/51 
f 62/62/62/62 63/63/63/63 64/64/64/64 
f 62/62/62/62 64/64/64/64 65/65/65/65 
f 64/64/64/64 66/66/66/66 67/67/67/67 
f 64/64/64/64 67/67/67/67 65/65/65/65 
f 61/61/61/61 66/66/66/66 64/64/64/64 
f 61/61/61/61 64/64/64/64 59/59/59/59 
f 68/68/68/68 69/69/69/69 70/70/70/70 
f 68/68/68/68 70/70/70/70 71/71/71/71 
f 70/70/70/70 72/72/72/72 73/73/73/73 
f 70/70/70/70 73/73/73/73 71/71/71/71 
f 67/67/67/67 72/72/72/72 70/70/70/70 
f 67/67/67/67 70/70/70/70 65/65/65/65 
f 74/74/74/74 75/75/75/75 76/76/76/76 
f 74/74/74/74 76/76/76/76 77/77/77/77 
f 76/76/76/76 78/78/78/78 79/79/79/79 
f 76/76/76/76 79/79/79/79 77/77/77/77 
f 73/73/73/73 78/78/78/78 76/76/76/76 
f 73/73/73/73 76/76/76/76 71/71/71/71 
f 80/80/80/80 81/81/81/81 82/82/82/82 
f 80/80/80/80 82/82/82/82 83/83/83/83 
f 82/82/82/82 84/84/84/84 85/85/85/85 
f 82/82/82/82 85/85/85/85 83/83/83/83 
f 79/79/79/79 84/84/84/84 82/82/82/82 
f 79/79/79/79 82/82/82/82 77/77/77/77 
f 86/86/86/86 87/87/87/87 88/88/88/88 
f 86/86/86/86 88/88/88/88 89/89/89/89 
f 88/88/88/88 90/90/90/90 91/91/91/91 
f 88/88/88/88 91/91/91/91 89/89/89/89 
f 85/85/85/85 90/90/90/90 88/88/88/88 
f 85/85/85/85 88/88/88/88 83/83/83/83 
f 92/92/92/92 93/93/93/93 94/94/94/94 
f 92/92/92/92 94/94/94/94 95/95/95/95 
f 94/94/94/94 96/96/96/96 97/97/97/97 
f 94/94/94/94 97/97/97/97 95/95/95/95 
f 91/91/91/91 96/96/96/96 94/94/94/94 
f 91/91/91/91 94/94/94/94 89/89/89/89 
f 98/98/98/98 99/99/99/99 100/100/100/100 
f 98/98/98/98 100/100/100/100 101/101/101/101 
f 100/100/100/100 102/102/102/102 103/103/103/103 
f 100/100/100/100 103/103/103/103 101/101/101/101 
f 97/97/97/97 102/102/102/102 100/100/100/100 
f 97/97/97/97 100/100/100/100 95/95/95/95 
f 104/104/104/104 105/105/105/105 106/106/106/106 
f 104/104/104/104 106/106/106/106 107/107/107/107 
f 106/106/106/106 108/108/108/108 109/109/109/109 
f 106/106/106/106 109/109/109/109 107/107/107/107 
f 103/103/103/103 108/108/108/108 106/106/106/106 
f 103/103/103/103 106/106/106/106 101/101/101/101 
f 110/110/110/110 111/111/111/111 112/112/112/112 
f 110/110/110/110 112/112/112/112 113/113/113/113 
f 112/112/112/112 114/114/114/114 115/115/115/115 
f 112/112/112/112 115/115/115/115 113/113/113/113 
f 109/109/109/109 114/114/114/114 112/112/112/112 
f 109/109/109/109 112/112/112/112 107/107/107/107 
f 116/116/116/116 117/117/117/117 118/118/118/118 
f 116/116/116/116 118/118/118/118 55/55/55/55 
f 118/118/118/118 119/119/119/119 54/54/54/54 
f 118/118/118/118 54/54/54/54 55/55/55/55 
f 115/115/115/115 119/119/119/119 118/118/118/118 
f 115/115/115/115 118/118/118/118 113/113/113/113 
f 120/120/120/120 49/49/49/49 48/48/48/48 
f 120/120/120/120 48/48/48/48 121/121/121/121 
f 49/49/49/49 120/120/120/120 122/122/122/122 
f 49/49/49/49 122/122/122/122 116/116/116/116 
f 123/123/123/123 57/57/57/57 56/56/56/56 
f 123/123/123/123 56/56/56/56 124/124/124/124 
f 57/57/57/57 123/123/123/123 121/121/121/121 
f 57/57/57/57 121/121/121/121 48/48/48/48 
f 125/125/125/125 63/63/63/63 62/62/62/62 
f 125/125/125/125 62/62/62/62 126/126/126/126 
f 63/63/63/63 125/125/125/125 124/124/124/124 
f 63/63/63/63 124/124/124/124 56/56/56/56 
f 127/127/127/127 69/69/69/69 68/68/68/68 
f 127/127/127/127 68/68/68/68 128/128/128/128 
f 69/69/69/69 127/127/127/127 126/126/126/126 
f 69/69/69/69 126/126/126/126 62/62/62/62 
f 129/129/129/129 75/75/75/75 74/74/74/74 
f 129/129/129/129 74/74/74/74 130/130/130/130 
f 75/75/75/75 129/129/129/129 128/128/128/128 
f 75/75/75/75 128/128/128/128 68/68/68/68 
f 131/131/131/131 81/81/81/81 80/80/80/80 
f 131/131/131/131 80/80/80/80 132/132/132/132 
f 81/81/81/81 131/131/131/131 130/130/130/130 
f 81/81/81/81 130/130/130/130 74/74/74/74 
f 133/133/133/133 87/87/87/87 86/86/86/86 
f 133/133/133/133 86/86/86/86 134/134/134/134 
f 87/87/87/87 133/133/133/133 132/132/132/132 
f 87/87/87/87 132/132/132/132 80/80/80/80 
f 135/135/135/135 93/93/93/93 92/92/92/92 
f 135/135/135/135 92/92/92/92 136/136/136/136 
f 93/93/93/93 135/135/135/135 134/134/134/134 
f 93/93/93/93 134/134/134/134 86/86/86/86 
f 137/137/137/137 99/99/99/99 98/98/98/98 
f 137/137/137/137 98/98/98/98 138/138/138/138 
f 99/99/99/99 137/137/137/137 136/136/136/136 
f 99/99/99/99 136/136/136/136 92/92/92/92 
f 139/139/139/139 105/105/105/105 104/104/104/104 
f 139/139/139/139 104/104/104/104 140/140/140/140 
f 105/105/105/105 139/139/139/139 138/138/138/138 
f 105/105/105/105 138/138/138/138 98/98/98/98 
f 141/141/141/141 111/111/111/111 110/110/110/110 
f 141/141/141/141 110/110/110/110 142/142/142/142 
f 111/111/111/111 141/141/141/141 140/140/140/140 
f 111/111/111/111 140/140/140/140 104/104/104/104 
f 143/143/143/143 117/117/117/117 116/116/116/116 
f 143/143/143/143 116/116/116/116 122/122/122/122 
f 117/117/117/117 143/143/143/143 142/142/142/142 
f 117/117/117/117 142/142/142/142 110/110/110/110 
f 144/144/144/144 145/145/145/145 146/146/146/146 
f 144/144/144/144 146/146/146/146 147/147/147/147 
f 145/145/145/145 148/148/148/148 149/149/149/149 
f 145/145/145/145 149/149/149/149 146/146/146/146 
f 148/148/148/148 150/150/150/150 151/151/151/151 
f 148/148/148/148 151/151/151/151 149/149/149/149 
f 150/150/150/150 152/152/152/152 153/153/153/153 
f 150/150/150/150 153/153/153/153 151/151/151/151 
f 152/152/152/152 154/154/154/154 155/155/155/155 
f 152/152/152/152 155/155/155/155 153/153/153/153 
f 154/154/154/154 156/156/156/156 157/157/157/157 
f 154/154/154/154 157/157/157/157 155/155/155/155 
f 156/156/156/156 158/158/158/158 159/159/159/159 
f 156/156/156/156 159/159/159/159 157/157/157/157 
f 158/158/158/158 160/160/160/160 161/161/161/161 
f 158/158/158/158 161/161/161/161 159/159/159/159 
f 160/160/160/160 162/162/162/162 163/163/163/163 
f 160/160/160/160 163/163/163/163 161/161/161/161 
f 162/162/162/162 164/164/164/164 165/165/165/165 
f 162/162/162/162 165/165/165/165 163/163/163/163 
f 164/164/164/164 166/166/166/166 167/167/167/167 
f 164/164/164/164 167/167/167/167 165/165/165/165 
f 166/166/166/166 168/168/168/168 169/169/169/169 
f 166/166/166/166 169/169/169/169 167/167/167/167 
f 168/168/168/168 170/170/170/170 171/171/171/171 
f 168/168/168/168 171/171/171/171 169/169/169/169 
f 170/170/170/170 172/172/172/172 173/173/173/173 
f 170/170/170/170 173/173/173/173 171/171/171/171 
f 172/172/172/172 174/174/174/174 175/175/175/175 
f 172/172/172/172 175/175/175/175 173/173/173/173 
f 174/174/174/174 176/176/176/176 177/177/177/177 
f 174/174/174/174 177/177/177/177 175/175/175/175 
f 176/176/176/176 178/178/178/178 179/179/179/179 
f 176/176/176/176 179/179/179/179 177/177/177/177 
f 178/178/178/178 180/180/180/180 181/181/181/181 
f 178/178/178/178 181/181/181/181 179/179/179/179 
f 180/180/180/180 182/182/182/182 183/183/183/183 
f 180/180/180/180 183/183/183/183 181/181/181/181 
f 182/182/182/182 184/184/184/184 185/185/185/185 
f 182/182/182/182 185/185/185/185 183/183/183/183 
f 184/184/184/184 186/186/186/186 187/187/187/187 
f 184/184/184/184 187/187/187/187 185/185/185/185 
f 186/186/186/186 188/188/188/188 189/189/189/189 
f 186/186/186/186 189/189/189/189 187/187/187/187 
f 188/188/188/188 190/190/190/190 191/191/191/191 
f 188/188/188/188 191/191/191/191 189/189/189/189 
f 190/190/190/190 144/144/144/144 147/147/147/147 
f 190/190/190/190 147/147/147/147 191/191/191/191 
f 192/192/192/192 193/193/193/193 52/52/52/52 
f 192/192/192/192 52/52/52/52 54/54/54/54 
f 193/193/193/193 194/194/194/194 53/53/53/53 
f 193/193/193/193 53/53/53/53 52/52/52/52 
f 194/194/194/194 195/195/195/195 60/60/60/60 
f 194/194/194/194 60/60/60/60 53/53/53/53 
f 195/195/195/195 196/196/196/196 61/61/61/61 
f 195/195/195/195 61/61/61/61 60/60/60/60 
f 196/196/196/196 197/197/197/197 66/66/66/66 
f 196/196/196/196 66/66/66/66 61/61/61/61 
f 197/197/197/197 198/198/198/198 67/67/67/67 
f 197/197/197/197 67/67/67/67 66/66/66/66 
f 198/198/198/198 199/199/199/199 72/72/72/72 
f 198/198/198/198 72/72/72/72 67/67/67/67 
f 199/199/199/199 200/200/200/200 73/73/73/73 
f 199/199/199/199 73/73/73/73 72/72/72/72 
f 200/200/200/200 201/201/201/201 78/78/78/78 
f 200/200/200/200 78/78/78/78 73/73/73/73 
f 201/201/201/201 202/202/202/202 79/79/79/79 
f 201/201/201/201 79/79/79/79 78/78/78/78 
f 202/202/202/202 203/203/203/203 84/84/84/84 
f 202/202/202/202 84/84/84/84 79/79/79/79 
f 203/203/203/203 204/204/204/204 85/85/85/85 
f 203/203/203/203 85/85/85/85 84/84/84/84 
f 204/204/204/204 205/205/205/205 90/90/90/90 
f 204/204/204/204 90/90/90/90 85/85/85/85 
f 205/205/205/205 206/206/206/206 91/91/91/91 
f 205/205/205/205 91/91/91/91 90/90/90/90 
f 206/206/206/206 207/207/207/207 96/96/96/96 
f 206/206/206/206 96/96/96/96 91/91/91/91 
f 207/207/207/207 208/208/208/208 97/97/97/97 
f 207/207/207/207 97/97/97/97 96/96/96/96 
f 208/208/208/208 209/209/209/209 102/102/102/102 
f 208/208/208/208 102/102/102/102 97/97/97/97 
f 209/209/209/209 210/210/210/210 103/103/103/103 
f 209/209/209/209 103/103/103/103 102/102/102/102 
f 210/210/210/210 211/211/211/211 108/108/108/108 
f 210/210/210/210 108/108/108/108 103/103/103/103 
f 211/211/211/211 212/212/212/212 109/109/109/109 
f 211/211/211/211 109/109/109/109 108/108/108/108 
f 212/212/212/212 213/213/213/213 114/114/114/114 
f 212/212/212/212 114/114/114/114 109/109/109/109 
f 213/213/213/213 214/214/214/214 115/115/115/115 
f 213/213/213/213 115/115/115/115 114/114/114/114 
f 214/214/214/214 215/215/215/215 119/119/119/119 
f 214/214/214/214 119/119/119/119 115/115/115/115 
f 215/215/215/215 192/192/192/192 54/54/54/54 
f 215/215/215/215 54/54/54/54 119/119/119/119 
f 192/192/192/192 216/216/216/216 193/193/193/193 
f 193/193/193/193 216/216/216/216 194/194/194/194 
f 194/194/194/194 216/216/216/216 195/195/195/195 
f 195/195/195/195 216/216/216/216 196/196/196/196 
f 196/196/196/196 216/216/216/216 197/197/197/197 
f 197/197/197/197 216/216/216/216 198/198/198/198 
f 198/198/198/198 216/216/216/216 199/199/199/199 
f 199/199/199/199 216/216/216/216 200/200/200/200 
f 200/200/200/200 216/216/216/216 201/201/201/201 
f 201/201/201/201 216/216/216/216 202/202/202/202 
f 202/202/202/202 216/216/216/216 203/203/203/203 
f 203/203/203/203 216/216/216/216 204/204/204/204 
f 204/204/204/204 216/216/216/216 205/205/205/205 
f 205/205/205/205 216/216/216/216 206/206/206/206 
f 206/206/206/206 216/216/216/216 207/207/207/207 
f 207/207/207/207 216/216/216/216 208/208/208/208 
f 208/208/208/208 216/216/216/216 209/209/209/209 
f 209/209/209/209 216/216/216/216 210/210/210/210 
f 210/210/210/210 216/216/216/216 211/211/211/211 
f 211/211/211/211 216/216/216/216 212/212/212/212 
f 212/212/212/212 216/216/216/216 213/213/213/213 
f 213/213/213/213 216/216/216/216 214/214/214/214 
f 214/214/214/214 216/216/216/216 215/215/215/215 
f 215/215/215/215 216/216/216/216 192/192/192/192 
f 1/1/1/1 217/217/217/217 218/218/218/218 
f 1/1/1/1 218/218/218/218 4/4/4/4 
f 220/219/219/219 0/0/0/0 46/46/46/46 
f 220/219/219/219 46/46/46/46 219/220/220/220 
f 42/42/42/42 221/221/221/221 222/222/222/222 
f 42/42/42/42 222/222/222/222 44/44/44/44 
f 38/38/38/38 223/223/223/223 224/224/224/224 
f 38/38/38/38 224/224/224/224 40/40/40/40 
f 34/34/34/34 225/225/225/225 226/226/226/226 
f 34/34/34/34 226/226/226/226 36/36/36/36 
f 30/30/30/30 227/227/227/227 228/228/228/228 
f 30/30/30/30 228/228/228/228 32/32/32/32 
f 26/26/26/26 229/229/229/229 230/230/230/230 
f 26/26/26/26 230/230/230/230 28/28/28/28 
f 22/22/22/22 231/231/231/231 232/232/232/232 
f 22/22/22/22 232/232/232/232 24/24/24/24 
f 18/18/18/18 233/233/233/233 234/234/234/234 
f 18/18/18/18 234/234/234/234 20/20/20/20 
f 14/14/14/14 235/235/235/235 236/236/236/236 
f 14/14/14/14 236/236/236/236 16/16/16/16 
f 10/10/10/10 237/237/237/237 238/238/238/238 
f 10/10/10/10 238/238/238/238 12/12/12/12 
f 6/6/6/6 239/239/239/239 240/240/240/240 
f 6/6/6/6 240/240/240/240 8/8/8/8 
f 144/144/144/144 190/190/190/190 239/239/239/239 
f 144/144/144/144 239/239/239/239 218/218/218/218 
f 190/190/190/190 188/188/188/188 240/240/240/240 
f 190/190/190/190 240/240/240/240 239/239/239/239 
f 188/188/188/188 186/186/186/186 237/237/237/237 
f 188/188/188/188 237/237/237/237 240/240/240/240 
f 184/184/184/184 182/182/182/182 235/235/235/235 
f 184/184/184/184 235/235/235/235 238/238/238/238 
f 180/180/180/180 178/178/178/178 233/233/233/233 
f 180/180/180/180 233/233/233/233 236/236/236/236 
f 176/176/176/176 174/174/174/174 231/231/231/231 
f 176/176/176/176 231/231/231/231 234/234/234/234 
f 172/172/172/172 170/170/170/170 229/229/229/229 
f 172/172/172/172 229/229/229/229 232/232/232/232 
f 168/168/168/168 166/166/166/166 227/227/227/227 
f 168/168/168/168 227/227/227/227 230/230/230/230 
f 164/164/164/164 162/162/162/162 225/225/225/225 
f 164/164/164/164 225/225/225/225 228/228/228/228 
f 160/160/160/160 158/158/158/158 223/223/223/223 
f 160/160/160/160 223/223/223/223 226/226/226/226 
f 156/156/156/156 154/154/154/154 221/221/221/221 
f 156/156/156/156 221/221/221/221 224/224/224/224 
f 152/152/152/152 150/150/150/150 219/220/220/220 
f 152/152/152/152 219/220/220/220 222/222/222/222 
f 148/148/148/148 145/145/145/145 217/217/217/217 
f 148/148/148/148 217/217/217/217 220/219/219/219 
f 220/219/219/219 219/220/220/220 150/150/150/150 
f 220/219/219/219 150/150/150/150 148/148/148/148 
f 222/222/222/222 221/221/221/221 154/154/154/154 
f 222/222/222/222 154/154/154/154 152/152/152/152 
f 224/224/224/224 223/223/223/223 158/158/158/158 
f 224/224/224/224 158/158/158/158 156/156/156/156 
f 226/226/226/226 225/225/225/225 162/162/162/162 
f 226/226/226/226 162/162/162/162 160/160/160/160 
f 228/228/228/228 227/227/227/227 166/166/166/166 
f 228/228/228/228 166/166/166/166 164/164/164/164 
f 230/230/230/230 229/229/229/229 170/170/170/170 
f 230/230/230/230 170/170/170/170 168/168/168/168 
f 232/232/232/232 231/231/231/231 174/174/174/174 
f 232/232/232/232 174/174/174/174 172/172/172/172 
f 234/234/234/234 233/233/233/233 178/178/178/178 
f 234/234/234/234 178/178/178/178 176/176/176/176 
f 236/236/236/236 235/235/235/235 182/182/182/182 
f 236/236/236/236 182/182/182/182 180/180/180/180 
f 238/238/238/238 237/237/237/237 186/186/186/186 
f 238/238/238/238 186/186/186/186 184/184/184/184 
f 218/218/218/218 217/217/217/217 145/145/145/145 
f 218/218/218/218 145/145/145/145 144/144/144/144 
f 0/0/0/0 220/219/219/219 217/217/217/217 
f 0/0/0/0 217/217/217/217 1/1/1/1 
f 219/220/220/220 46/46/46/46 44/44/44/44 
f 219/220/220/220 44/44/44/44 222/222/222/222 
f 221/221/221/221 42/42/42/42 40/40/40/40 
f 221/221/221/221 40/40/40/40 224/224/224/224 
f 223/223/223/223 38/38/38/38 36/36/36/36 
f 223/223/223/223 36/36/36/36 226/226/226/226 
f 225/225/225/225 34/34/34/34 32/32/32/32 
f 225/225/225/225 32/32/32/32 228/228/228/228 
f 227/227/227/227 30/30/30/30 28/28/28/28 
f 227/227/227/227 28/28/28/28 230/230/230/230 
f 229/229/229/229 26/26/26/26 24/24/24/24 
f 229/229/229/229 24/24/24/24 232/232/232/232 
f 231/231/231/231 22/22/22/22 20/20/20/20 
f 231/231/231/231 20/20/20/20 234/234/234/234 
f 233/233/233/233 18/18/18/18 16/16/16/16 
f 233/233/233/233 16/16/16/16 236/236/236/236 
f 235/235/235/235 14/14/14/14 12/12/12/12 
f 235/235/235/235 12/12/12/12 238/238/238/238 
f 237/237/237/237 10/10/10/10 8/8/8/8 
f 237/237/237/237 8/8/8/8 240/240/240/240 
f 239/239/239/239 6/6/6/6 4/4/4/4 
f 239/239/239/239 4/4/4/4 218/218/218/218 
f 50/50/50/50 49/49/49/49 116/116/116/116 
f 50/50/50/50 116/116/116/116 55/55/55/55 
f 58/58/58/58 57/57/57/57 48/48/48/48 
f 58/58/58/58 48/48/48/48 51/51/51/51 
f 64/64/64/64 63/63/63/63 56/56/56/56 
f 64/64/64/64 56/56/56/56 59/59/59/59 
f 70/70/70/70 69/69/69/69 62/62/62/62 
f 70/70/70/70 62/62/62/62 65/65/65/65 
f 76/76/76/76 75/75/75/75 68/68/68/68 
f 76/76/76/76 68/68/68/68 71/71/71/71 
f 82/82/82/82 81/81/81/81 74/74/74/74 
f 82/82/82/82 74/74/74/74 77/77/77/77 
f 88/88/88/88 87/87/87/87 80/80/80/80 
f 88/88/88/88 80/80/80/80 83/83/83/83 
f 94/94/94/94 93/93/93/93 86/86/86/86 
f 94/94/94/94 86/86/86/86 89/89/89/89 
f 100/100/100/100 99/99/99/99 92/92/92/92 
f 100/100/100/100 92/92/92/92 95/95/95/95 
f 106/106/106/106 105/105/105/105 98/98/98/98 
f 106/106/106/106 98/98/98/98 101/101/101/101 
f 112/112/112/112 111/111/111/111 104/104/104/104 
f 112/112/112/112 104/104/104/104 107/107/107/107 
f 118/118/118/118 117/117/117/117 110/110/110/110 
f 118/118/118/118 110/110/110/110 113/113/113/113 
f 121/121/121/121 147/147/147/147 146/146/146/146 
f 121/121/121/121 146/146/146/146 120/120/120/120 
f 120/120/120/120 146/146/146/146 149/149/149/149 
f 120/120/120/120 149/149/149/149 122/122/122/122 
f 124/124/124/124 189/189/189/189 191/191/191/191 
f 124/124/124/124 191/191/191/191 123/123/123/123 
f 123/123/123/123 191/191/191/191 147/147/147/147 
f 123/123/123/123 147/147/147/147 121/121/121/121 
f 126/126/126/126 185/185/185/185 187/187/187/187 
f 126/126/126/126 187/187/187/187 125/125/125/125 
f 125/125/125/125 187/187/187/187 189/189/189/189 
f 125/125/125/125 189/189/189/189 124/124/124/124 
f 128/128/128/128 181/181/181/181 183/183/183/183 
f 128/128/128/128 183/183/183/183 127/127/127/127 
f 127/127/127/127 183/183/183/183 185/185/185/185 
f 127/127/127/127 185/185/185/185 126/126/126/126 
f 130/130/130/130 177/177/177/177 179/179/179/179 
f 130/130/130/130 179/179/179/179 129/129/129/129 
f 129/129/129/129 179/179/179/179 181/181/181/181 
f 129/129/129/129 181/181/181/181 128/128/128/128 
f 132/132/132/132 173/173/173/173 175/175/175/175 
f 132/132/132/132 175/175/175/175 131/131/131/131 
f 131/131/131/131 175/175/175/175 177/177/177/177 
f 131/131/131/131 177/177/177/177 130/130/130/130 
f 134/134/134/134 169/169/169/169 171/171/171/171 
f 134/134/134/134 171/171/171/171 133/133/133/133 
f 133/133/133/133 171/171/171/171 173/173/173/173 
f 133/133/133/133 173/173/173/173 132/132/132/132 
f 136/136/136/136 165/165/165/165 167/167/167/167 
f 136/136/136/136 167/167/167/167 135/135/135/135 
f 135/135/135/135 167/167/167/167 169/169/169/169 
f 135/135/135/135 169/169/169/169 134/134/134/134 
f 138/138/138/138 161/161/161/161 163/163/163/163 
f 138/138/138/138 163/163/163/163 137/137/137/137 
f 137/137/137/137 163/163/163/163 165/165/165/165 
f 137/137/137/137 165/165/165/165 136/136/136/136 
f 140/140/140/140 157/157/157/157 159/159/159/159 
f 140/140/140/140 159/159/159/159 139/139/139/139 
f 139/139/139/139 159/159/159/159 161/161/161/161 
f 139/139/139/139 161/161/161/161 138/138/138/138 
f 142/142/142/142 153/153/153/153 155/155/155/155 
f 142/142/142/142 155/155/155/155 141/141/141/141 
f 141/141/141/141 155/155/155/155 157/157/157/157 
f 141/141/141/141 157/157/157/157 140/140/140/140 
f 122/122/122/122 149/149/149/149 151/151/151/151 
f 122/122/122/122 151/151/151/151 143/143/143/143 
f 143/143/143/143 151/151/151/151 153/153/153/153 
f 143/143/143/143 153/153/153/153 142/142/142/142 
