v -1424.1924 664.2318 569.6151
v -1423.5601 670.6962 568.7933
v -1423.5601 670.6962 575.7249
v -1424.1924 664.2318 575.7249
v -1424.6558 660.3631 570.1983
v -1422.8682 662.2974 568.0746
v -1422.8682 662.2974 575.7249
v -1424.6558 660.3631 575.7249
v -1418.7144 690.9595 562.8899
v -1417.0488 693.1411 560.9223
v -1417.0488 693.141 575.7249
v -1418.7144 690.9595 575.7249
v -1418.7144 695.3224 562.9677
v -1418.7144 695.3224 575.7249
v -1421.4199 679.6951 566.1924
v -1418.7144 686.5964 562.8547
v -1418.7144 686.5964 575.7249
v -1421.4199 679.6951 575.7249
v -1424.6841 664.2318 569.0108
v -1424.0337 670.6962 568.2117
v -1419.1938 686.5964 562.2658
v -1419.208 690.9595 562.2835
v -1417.5747 693.1411 560.2768
v -1419.2393 695.3224 562.3223
v -1421.9053 679.6951 565.5968
v -1430.1499 660.3631 575.7255
v -1425.6514 660.3631 570.1992
v -1423.3945 662.2974 567.4271
v -1425.1533 660.3631 569.5871
v -1430.1499 695.3224 575.7256
v -1425.1758 664.2318 568.4064
v -1430.1494 664.2318 568.4065
v -1430.1494 670.6962 567.6303
v -1424.5068 670.6962 567.6302
v -1425.6509 660.3631 568.9761
v -1430.1494 660.3631 568.9761
v -1430.1494 662.2974 566.7795
v -1423.9219 662.2974 566.7795
v -1419.7017 690.9595 561.6769
v -1430.1494 690.9595 561.677
v -1430.1494 693.1411 559.6311
v -1418.1001 693.1411 559.6311
v -1430.1494 695.3225 561.677
v -1419.7651 695.3225 561.677
v -1422.3896 679.6951 565.0014
v -1430.1494 679.6951 565.0014
v -1430.1494 686.5964 561.677
v -1419.6729 686.5964 561.6769
gi 0 0 0 0
gi 0 0 0 0
gi 0 0 0 0
gi 0 0 0 0
gi 0 0 0 0
gi 0 0 0 0
gi 0 0 0 0
gi 0 0 0 0
gi 0 0 0 0
gi 0 0 0 0
gi 0 0 0 0
gi 0 0 0 0
gi 0 0 0 0
gi 0 0 0 0
gi 0 0 0 0
gi 0 0 0 0
gi 0 0 0 0
gi 0 0 0 0
gi 0 0 0 0
gi 0 0 0 0
gi 0 0 0 0
gi 0 0 0 0
gi 0 0 0 0
gi 0 0 0 0
gi 0 0 0 0
gi 0 0 0 0
gi 0 0 0 0
gi 0 0 0 0
gi 0 0 0 0
gi 0 0 0 0
gi 0 0 0 0
gi 0 0 0 0
gi 0 0 0 0
gi 0 0 0 0
gi 0 0 0 0
gi 0 0 0 0
gi 0 0 0 0
gi 0 0 0 0
gi 0 0 0 0
gi 0 0 0 0
gi 0 0 0 0
gi 0 0 0 0
gi 0 0 0 0
gi 0 0 0 0
gi 0 0 0 0
gi 0 0 0 0
gi 0 0 0 0
gi 0 0 0 0
gw 0.0 0.0 0.0 0.0
gw 0.0 0.0 0.0 0.0
gw 0.0 0.0 0.0 0.0
gw 0.0 0.0 0.0 0.0
gw 0.0 0.0 0.0 0.0
gw 0.0 0.0 0.0 0.0
gw 0.0 0.0 0.0 0.0
gw 0.0 0.0 0.0 0.0
gw 0.0 0.0 0.0 0.0
gw 0.0 0.0 0.0 0.0
gw 0.0 0.0 0.0 0.0
gw 0.0 0.0 0.0 0.0
gw 0.0 0.0 0.0 0.0
gw 0.0 0.0 0.0 0.0
gw 0.0 0.0 0.0 0.0
gw 0.0 0.0 0.0 0.0
gw 0.0 0.0 0.0 0.0
gw 0.0 0.0 0.0 0.0
gw 0.0 0.0 0.0 0.0
gw 0.0 0.0 0.0 0.0
gw 0.0 0.0 0.0 0.0
gw 0.0 0.0 0.0 0.0
gw 0.0 0.0 0.0 0.0
gw 0.0 0.0 0.0 0.0
gw 0.0 0.0 0.0 0.0
gw 0.0 0.0 0.0 0.0
gw 0.0 0.0 0.0 0.0
gw 0.0 0.0 0.0 0.0
gw 0.0 0.0 0.0 0.0
gw 0.0 0.0 0.0 0.0
gw 0.0 0.0 0.0 0.0
gw 0.0 0.0 0.0 0.0
gw 0.0 0.0 0.0 0.0
gw 0.0 0.0 0.0 0.0
gw 0.0 0.0 0.0 0.0
gw 0.0 0.0 0.0 0.0
gw 0.0 0.0 0.0 0.0
gw 0.0 0.0 0.0 0.0
gw 0.0 0.0 0.0 0.0
gw 0.0 0.0 0.0 0.0
gw 0.0 0.0 0.0 0.0
gw 0.0 0.0 0.0 0.0
gw 0.0 0.0 0.0 0.0
gw 0.0 0.0 0.0 0.0
gw 0.0 0.0 0.0 0.0
gw 0.0 0.0 0.0 0.0
gw 0.0 0.0 0.0 0.0
gw 0.0 0.0 0.0 0.0
vt 0.4476 0.6742
vt 0.427 0.6742
vt 0.4439 0.6911
vt 0.4476 0.6911
vt 0.4457 0.6929
vt 0.5504 0.8881
vt 0.5526 0.9084
vt 0.5337 0.9084
vt 0.5337 0.8881
vt 0.9865 0.7672
vt 0.9959 0.7791
vt 0.9632 0.7791
vt 0.9619 0.7672
vt 0.5337 0.882
vt 0.5546 0.882
vt 0.5687 0.9721
vt 0.5741 0.979
vt 0.5337 0.979
vt 0.5337 0.9721
vt 0.5685 0.9859
vt 0.5337 0.9859
vt 0.5597 0.9367
vt 0.5688 0.9584
vt 0.5337 0.9584
vt 0.5337 0.9367
vt 0.6028 0.9094
vt 0.605 0.8907
vt 0.6071 0.8899
vt 0.605 0.9099
vt 0.5887 0.9599
vt 0.5888 0.9735
vt 0.5867 0.9726
vt 0.5865 0.9593
vt 0.5834 0.9806
vt 0.5815 0.9806
vt 0.589 0.988
vt 0.5871 0.99
vt 0.5978 0.9381
vt 0.5957 0.9372
vt 0.6007 0.8862
vt 0.6028 0.8842
vt 0.0078 0.7789
vt 0.0079 0.7672
vt 0.0107 0.7672
vt 0.0104 0.779
vt 0.0091 0.8976
vt 0.0091 0.876
vt 0.0105 0.8749
vt 0.0406 0.8976
vn 0.0 -1.0 0.0
vn 0.0 -1.0 0.0001
vn 0.0 -1.0 -0.0
vn 0.0 -1.0 0.0
vn 0.9118 0.3114 -0.2676
vn 0.9231 -0.2213 -0.3144
vn 0.9863 -0.1647 0.0
vn 0.9686 0.2488 0.0
vn 0.4051 -0.9097 -0.0917
vn 0.915 -0.0672 -0.3978
vn 0.9973 -0.0728 0.0
vn 0.401 -0.9161 -0.0
vn 0.8773 -0.4014 -0.2631
vn 0.9163 0.0033 -0.4005
vn 1.0 0.0 0.0
vn 0.9473 -0.3203 0.0
vn 0.4484 0.8877 -0.1047
vn 0.4433 0.8964 0.0
vn 0.8737 -0.3895 -0.2915
vn 0.9078 -0.2348 -0.3475
vn 0.9826 -0.1857 0.0
vn 0.9543 -0.2989 0.0
vn 0.7354 0.3179 -0.5984
vn 0.7508 -0.2505 -0.6112
vn 0.7473 -0.2678 -0.6082
vn 0.7058 -0.4145 -0.5745
vn 0.7755 0.0047 -0.6314
vn 0.2665 0.9391 -0.2169
vn 0.6984 -0.4345 -0.5687
vn 0.7734 -0.0758 -0.6293
vn 0.2356 -0.9527 -0.1918
vn 0.0 1.0 0.0
vn 0.3715 0.3626 -0.8547
vn -0.0 0.2858 -0.9583
vn -0.0 -0.2005 -0.9797
vn 0.408 -0.2541 -0.8769
vn 0.138 -0.924 -0.3567
vn 0.0 -0.9355 -0.3534
vn 0.0 -0.0747 -0.9972
vn 0.4597 -0.0629 -0.8858
vn 0.3557 -0.462 -0.8124
vn 0.0 -0.3678 -0.9299
vn 0.0 0.0 -1.0
vn 0.4625 0.0025 -0.8866
vn 0.0 0.9176 -0.3974
vn 0.1561 0.9026 -0.4011
vn 0.3737 -0.4407 -0.8161
vn -0.0 -0.3584 -0.9336
vn -0.0 -0.2226 -0.9749
vn 0.4273 -0.251 -0.8686
vtan 1.0 0.0 -0.0002
vtan 1.0 0.0 -0.0001
vtan 1.0 0.0 -0.0006
vtan 1.0 0.0 -0.0009
vtan 1.0 0.0 -0.0009
vtan 0.0004 -0.0001 -1.0
vtan 0.0001 0.0 -1.0
vtan 0.0004 -0.0 -1.0
vtan -0.2532 -0.0865 -0.9635
vtan -0.3057 0.0733 -0.9493
vtan 0.0 0.0 -1.0
vtan -0.0373 0.0837 -0.9958
vtan -0.3967 0.0291 -0.9175
vtan -0.0 0.0 -1.0
vtan -0.3967 0.0291 -0.9175
vtan -0.2392 0.1095 -0.9648
vtan -0.4005 -0.0014 -0.9163
vtan 0.0 0.0 -1.0
vtan -0.0472 -0.0934 -0.9945
vtan -0.2662 0.1187 -0.9566
vtan -0.3364 0.087 -0.9377
vtan -0.3696 -0.2851 -0.8844
vtan -0.4013 0.538 -0.7413
vtan -0.6756 0.4112 -0.6119
vtan -0.6588 -0.217 -0.7204
vtan -0.6637 -0.2559 -0.7029
vtan -0.7031 -0.3107 -0.6396
vtan -0.4488 -0.4917 -0.7462
vtan -0.4118 -0.3415 -0.8449
vtan -0.6314 0.0 -0.7755
vtan -0.4005 0.0249 -0.916
vtan -0.943 0.2074 -0.2603
vtan -0.8835 0.4223 -0.2029
vtan -0.7128 -0.3517 -0.6068
vtan -0.4655 -0.4949 -0.7338
vtan -0.2213 0.7408 -0.6342
vtan -0.4285 0.6691 -0.6072
vtan -0.4008 -0.0379 -0.9154
vtan -0.5663 -0.1709 -0.8063
vtan -0.6348 -0.0015 -0.7727
vtan -0.6323 -0.0217 -0.7744
vtan -0.8964 0.4433 0.0003
vtan -0.8938 0.4463 -0.0435
vtan -0.9638 0.2605 -0.0563
vtan -1.0 0.0 0.0001
vtan 0.9284 -0.1451 0.342
vtan 1.0 0.0 -0.0
vtan 1.0 -0.0 -0.0
vtan 0.913 0.1135 0.3919
vtan 0.9904 0.1288 0.0497
vtan 1.0 0.0 0.0
vtan 1.0 0.0 0.0
vtan 0.888 0.0326 0.4586
vtan 1.0 0.0 -0.0
vtan 0.9346 0.1758 0.3092
vtan 1.0 0.0 -0.0
vtan 1.0 -0.0 0.0
vtan 0.8866 -0.0013 0.4625
vtan 1.0 -0.0 0.0
vtan 0.9877 -0.1427 0.0634
vtan 0.9275 0.1776 0.3288
vtan 1.0 -0.0 -0.0
vtan 1.0 0.0 -0.0
vtan 0.9041 0.1186 0.4105
vtan 0.672 0.5301 0.517
vtan 0.8063 -0.3503 0.4766
vtan 0.5793 -0.1947 0.7915
vtan 0.5126 0.3166 0.7982
vtan 0.6472 -0.5053 0.5707
vtan 0.4714 -0.3306 0.8176
vtan 0.5554 -0.2508 0.7929
vtan 0.7872 -0.3692 0.494
vtan 0.8866 0.0011 0.4625
vtan 0.6311 0.0238 0.7753
vtan 0.1408 0.3816 0.9135
vtan -0.0059 0.2266 0.974
vtan 0.6325 -0.5225 0.5718
vtan 0.4625 -0.3323 0.822
vtan 0.5653 0.5318 0.6306
vtan 0.5665 0.789 0.238
vtan 0.63 -0.0173 0.7764
vtan 0.6315 0.0001 0.7754
vtan 0.6664 -0.1798 0.7236
vtan 0.885 -0.0508 0.4629
vtan 0.0573 0.2092 0.9762
vtan 0.0635 0.3961 0.916
vtan -0.0002 0.3974 0.9176
vtan -0.0 -0.0 1.0
f 7/0/0/0 25/1/0/1 26/2/0/2 
f 7/0/0/0 26/2/0/2 4/3/0/3 
f 28/4/0/4 4/3/0/4 26/2/0/4 
f 35/0/1/5 34/3/1/5 26/2/1/5 
f 35/0/2/6 26/2/2/6 25/1/2/6 
f 28/4/3/7 26/2/3/7 34/3/3/7 
f 0/5/4/8 1/6/5/9 2/7/6/10 
f 0/5/4/8 2/7/6/10 3/8/7/10 
f 4/9/8/11 5/10/9/12 6/11/10/10 
f 4/9/8/11 6/11/10/10 7/12/11/13 
f 0/5/4/8 3/8/7/10 6/13/10/10 
f 0/5/4/8 6/13/10/10 5/14/9/14 
f 8/15/12/15 9/16/13/16 10/17/14/17 
f 8/15/12/15 10/17/14/17 11/18/15/10 
f 12/19/16/18 13/20/17/10 10/17/14/17 
f 12/19/16/18 10/17/14/17 9/16/13/16 
f 14/21/18/19 15/22/19/20 16/23/20/10 
f 14/21/18/19 16/23/20/10 17/24/21/10 
f 1/6/5/9 14/21/18/19 17/24/21/10 
f 1/6/5/9 17/24/21/10 2/7/6/10 
f 1/25/5/21 0/26/4/22 18/27/22/23 
f 1/25/5/21 18/27/22/23 19/28/23/24 
f 20/29/24/25 21/30/25/26 8/31/12/27 
f 20/29/24/25 8/31/12/27 15/32/19/28 
f 21/30/25/26 22/33/26/29 9/34/13/30 
f 21/30/25/26 9/34/13/30 8/31/12/27 
f 9/34/13/30 22/33/26/29 23/35/27/31 
f 9/34/13/30 23/35/27/31 12/36/16/32 
f 24/37/28/33 20/29/24/25 15/32/19/28 
f 24/37/28/33 15/32/19/28 14/38/18/34 
f 19/28/23/24 24/37/28/33 14/38/18/34 
f 19/28/23/24 14/38/18/34 1/25/5/21 
f 16/23/20/10 15/22/19/20 8/15/12/15 
f 16/23/20/10 8/15/12/15 11/18/15/10 
f 18/27/22/23 0/26/4/22 5/39/9/35 
f 18/27/22/23 5/39/9/35 27/40/29/36 
f 5/41/9/37 4/42/8/38 28/43/30/39 
f 5/41/9/37 28/43/30/39 27/44/29/40 
f 13/45/17/41 12/46/16/42 23/47/27/43 
f 13/45/17/41 23/47/27/43 29/48/31/44 
f 30/5/32/45 31/8/33/46 32/7/34/47 
f 30/5/32/45 32/7/34/47 33/6/35/48 
f 34/9/36/49 35/12/37/50 36/11/38/51 
f 34/9/36/49 36/11/38/51 37/10/39/52 
f 36/13/38/53 31/8/33/46 30/5/32/45 
f 36/13/38/53 30/5/32/45 37/14/39/52 
f 38/15/40/54 39/18/41/55 40/17/42/56 
f 38/15/40/54 40/17/42/56 41/16/43/57 
f 40/17/42/56 42/20/44/58 43/19/45/59 
f 40/17/42/56 43/19/45/59 41/16/43/57 
f 44/21/46/60 45/24/47/61 46/23/48/62 
f 44/21/46/60 46/23/48/62 47/22/49/63 
f 33/6/35/48 32/7/34/47 45/24/47/61 
f 33/6/35/48 45/24/47/61 44/21/46/60 
f 30/26/32/64 33/25/35/65 19/28/23/66 
f 30/26/32/64 19/28/23/66 18/27/22/67 
f 38/31/40/68 21/30/25/69 20/29/24/70 
f 38/31/40/68 20/29/24/70 47/32/49/71 
f 38/31/40/68 41/34/43/72 22/33/26/73 
f 38/31/40/68 22/33/26/73 21/30/25/69 
f 43/36/45/74 23/35/27/75 22/33/26/73 
f 43/36/45/74 22/33/26/73 41/34/43/72 
f 44/38/46/76 47/32/49/71 20/29/24/70 
f 44/38/46/76 20/29/24/70 24/37/28/77 
f 33/25/35/65 44/38/46/76 24/37/28/77 
f 33/25/35/65 24/37/28/77 19/28/23/66 
f 38/15/40/54 47/22/49/63 46/23/48/62 
f 38/15/40/54 46/23/48/62 39/18/41/55 
f 27/40/29/78 37/39/39/79 30/26/32/64 
f 27/40/29/78 30/26/32/64 18/27/22/67 
f 27/44/29/80 28/43/30/81 34/42/36/82 
f 27/44/29/80 34/42/36/82 37/41/39/83 
f 23/47/27/84 43/46/45/85 42/45/44/86 
f 23/47/27/84 42/45/44/86 29/48/31/87 
