v 487.9513 98.6729 144.3932
v 487.7501 98.6729 144.3939
v 487.7561 98.6729 144.3339
v 487.9451 98.6729 144.3332
v 488.0348 99.2488 145.189
v 487.6718 99.2488 145.1902
v 487.5217 104.4995 146.7139
v 488.1946 104.4995 146.7117
v 488.1964 104.8019 146.7293
v 487.5199 104.8019 146.7314
v 488.1318 102.5054 146.1134
v 487.5807 102.5054 146.1152
v 488.0319 99.942 145.1613
v 487.9796 100.5255 144.6626
v 487.7236 100.5255 144.6635
v 487.6744 99.942 145.1625
v 487.6442 98.6729 142.4311
v 487.8444 98.6729 142.4101
v 487.8444 98.6729 142.4704
v 487.6565 98.6729 142.4901
v 487.4524 98.6729 142.4919
v 487.4763 98.6729 142.5473
v 487.2769 98.6729 142.5902
v 487.3114 98.6729 142.6396
v 487.1246 98.6729 142.7217
v 487.1685 98.6729 142.7631
v 487.002 98.6729 142.8812
v 487.0532 98.6729 142.913
v 486.9139 98.6729 143.0621
v 486.9706 98.6729 143.0829
v 486.8643 98.6729 143.257
v 486.9238 98.6729 143.266
v 486.8546 98.6729 143.458
v 486.9149 98.6729 143.4548
v 486.8857 98.6729 143.6567
v 486.9441 98.6729 143.6415
v 486.9563 98.6729 143.8452
v 487.0104 98.6729 143.8185
v 487.0632 98.6729 144.0155
v 487.1108 98.6729 143.9785
v 487.2023 98.6729 144.1609
v 487.2415 98.6729 144.115
v 487.3678 98.6729 144.2753
v 487.397 98.6729 144.2225
v 487.553 98.6729 144.354
v 487.5709 98.6729 144.2964
v 488.0325 98.6729 142.4889
v 488.0446 98.6729 142.4298
v 488.213 98.6729 142.5449
v 488.2367 98.6729 142.4894
v 488.3785 98.6729 142.636
v 488.413 98.6729 142.5865
v 488.5223 98.6729 142.7587
v 488.566 98.6729 142.7171
v 488.6385 98.6729 142.9077
v 488.6897 98.6729 142.8757
v 488.7223 98.6729 143.0771
v 488.7788 98.6729 143.0561
v 488.7703 98.6729 143.2599
v 488.8298 98.6729 143.2507
v 488.7804 98.6729 143.4486
v 488.8407 98.6729 143.4516
v 488.7524 98.6729 143.6355
v 488.8109 98.6729 143.6505
v 488.6874 98.6729 143.8129
v 488.7416 98.6729 143.8394
v 488.588 98.6729 143.9736
v 488.6357 98.6729 144.0105
v 488.4583 98.6729 144.111
v 488.4976 98.6729 144.1567
v 488.3035 98.6729 144.2195
v 488.3329 98.6729 144.2722
v 488.1301 98.6729 144.2946
v 488.1482 98.6729 144.3521
v 487.4805 99.2488 141.6477
v 487.8417 99.2488 141.6098
v 487.1344 99.2488 141.7575
v 486.8175 99.2488 141.9348
v 486.5428 99.2488 142.1722
v 486.3215 99.2488 142.4601
v 486.1626 99.2488 142.7866
v 486.0728 99.2488 143.1384
v 486.0555 99.2488 143.501
v 486.1117 99.2488 143.8598
v 486.239 99.2488 144.1998
v 486.432 99.2488 144.5073
v 486.683 99.2488 144.7697
v 486.9817 99.2488 144.9762
v 487.3158 99.2488 145.1183
v 488.2032 99.2488 141.6454
v 488.55 99.2488 141.753
v 488.868 99.2488 141.9282
v 489.1443 99.2488 142.1638
v 489.3674 99.2488 142.4502
v 489.5283 99.2488 142.7757
v 489.6205 99.2488 143.1269
v 489.64 99.2488 143.4895
v 489.5862 99.2488 143.8486
v 489.4612 99.2488 144.1895
v 489.2701 99.2488 144.4982
v 489.0208 99.2488 144.7622
v 488.7234 99.2488 144.9705
v 488.3903 99.2488 145.1148
v 487.8368 104.4995 140.0785
v 487.1674 104.4994 140.1488
v 487.1637 104.8019 140.1315
v 487.8368 104.8019 140.0609
v 486.5259 104.4994 140.3524
v 486.5189 104.8019 140.3362
v 485.9387 104.4994 140.6809
v 485.9286 104.8019 140.6664
v 485.4296 104.4994 141.1209
v 485.4167 104.8019 141.1087
v 485.0194 104.4995 141.6543
v 485.0044 104.8019 141.645
v 484.7251 104.4995 142.2594
v 484.7085 104.8019 142.2533
v 484.5586 104.4995 142.9113
v 484.5411 104.8019 142.9087
v 484.5267 104.4995 143.5835
v 484.509 104.8019 143.5844
v 484.6307 104.4995 144.2483
v 484.6136 104.8019 144.2527
v 484.8665 104.4995 144.8785
v 484.8506 104.8019 144.8863
v 485.2242 104.4995 145.4484
v 485.2103 104.8019 145.4592
v 485.6895 104.4995 145.9346
v 485.678 104.8019 145.948
v 486.243 104.4995 146.3172
v 486.2344 104.8019 146.3326
v 486.8622 104.4995 146.5806
v 486.8569 104.8019 146.5974
v 488.5067 104.4995 140.1445
v 488.5104 104.8019 140.1272
v 489.1494 104.4995 140.3439
v 489.1564 104.8019 140.3277
v 489.7388 104.4995 140.6686
v 489.7489 104.8019 140.6541
v 490.2507 104.4995 141.1053
v 490.2635 104.8019 141.0932
v 490.6643 104.4995 141.6361
v 490.6793 104.8019 141.6268
v 490.9625 104.4995 142.2393
v 490.9791 104.8019 142.2332
v 491.1332 104.4995 142.8902
v 491.1506 104.8019 142.8875
v 491.1694 104.4995 143.5621
v 491.1871 104.8019 143.563
v 491.0697 104.4995 144.2275
v 491.0868 104.8019 144.232
v 490.838 104.4995 144.8593
v 490.8538 104.8019 144.8671
v 490.4839 104.4995 145.4314
v 490.4978 104.8019 145.4423
v 490.0219 104.4995 145.9206
v 490.0333 104.8019 145.934
v 489.4708 104.4995 146.3068
v 489.4794 104.8019 146.3222
v 488.8533 104.4995 146.5741
v 488.8585 104.8019 146.591
v 487.2903 102.5054 140.7377
v 487.8387 102.5054 140.6801
v 486.765 102.5054 140.9044
v 486.2839 102.5054 141.1735
v 485.8669 102.5054 141.5339
v 485.531 102.5054 141.9709
v 485.2899 102.5054 142.4665
v 485.1536 102.5054 143.0005
v 485.1274 102.5054 143.5511
v 485.2126 102.5054 144.0956
v 485.4058 102.5054 144.6118
v 485.6989 102.5054 145.0786
v 486.0798 102.5054 145.4769
v 486.5332 102.5054 145.7903
v 487.0404 102.5054 146.006
v 488.4585 101.6056 140.3831
v 488.0983 100.5255 142.1641
v 487.8434 100.5255 142.139
v 487.8375 101.6056 140.3219
v 489.0541 101.6056 140.5679
v 488.3428 100.5255 142.24
v 489.6003 101.6056 140.8688
v 488.567 100.5255 142.3635
v 490.0748 101.6056 141.2736
v 488.7618 100.5255 142.5297
v 490.4581 101.6056 141.7655
v 488.9192 100.5255 142.7316
v 490.7345 101.6056 142.3246
v 489.0326 100.5255 142.9611
v 490.8928 101.6056 142.9278
v 489.0975 100.5255 143.2087
v 490.9264 101.6056 143.5505
v 489.1113 100.5255 143.4644
v 490.8339 101.6056 144.1673
v 489.0734 100.5255 143.7175
v 490.6191 101.6056 144.7528
v 488.9852 100.5255 143.9579
v 490.2909 101.6056 145.2831
v 488.8506 100.5255 144.1756
v 489.8627 101.6056 145.7365
v 488.6748 100.5255 144.3617
v 489.3521 101.6056 146.0944
v 488.4651 100.5255 144.5086
v 488.7797 101.6056 146.3422
v 488.2302 100.5255 144.6103
v 488.1692 101.6056 146.4697
v 487.4862 99.942 141.6749
v 487.5887 100.5255 142.1658
v 487.8418 99.942 141.6376
v 487.1455 99.942 141.7831
v 487.3447 100.5255 142.2432
v 486.8335 99.942 141.9576
v 487.1213 100.5255 142.3682
v 486.563 99.942 142.1913
v 486.9276 100.5255 142.5356
v 486.3452 99.942 142.4747
v 486.7716 100.5255 142.7385
v 486.1888 99.942 142.7961
v 486.6595 100.5255 142.9688
v 486.1003 99.942 143.1425
v 486.5962 100.5255 143.2168
v 486.0834 99.942 143.4995
v 486.5841 100.5255 143.4725
v 486.1387 99.942 143.8527
v 486.6237 100.5255 143.7254
v 486.2639 99.942 144.1875
v 486.7134 100.5255 143.9652
v 486.454 99.942 144.4902
v 486.8495 100.5255 144.182
v 486.701 99.942 144.7485
v 487.0265 100.5255 144.367
v 486.9951 99.942 144.9518
v 487.2371 100.5255 144.5126
v 487.3241 99.942 145.0917
v 487.4727 100.5255 144.6127
v 488.1978 99.942 141.6726
v 488.5391 99.942 141.7786
v 488.8522 99.942 141.9511
v 489.1241 99.942 142.183
v 489.3439 99.942 142.465
v 489.5023 99.942 142.7854
v 489.593 99.942 143.1312
v 489.6122 99.942 143.4882
v 489.5592 99.942 143.8417
v 489.4362 99.942 144.1773
v 489.248 99.942 144.4812
v 489.0026 99.942 144.7411
v 488.7098 99.942 144.9462
v 488.3818 99.942 145.0883
v 487.5455 101.6056 146.4717
v 487.217 101.6056 140.3871
v 486.6227 101.6056 140.5758
v 486.0784 101.6056 140.8802
v 485.6066 101.6056 141.288
v 485.2264 101.6056 141.7824
v 484.9536 101.6056 142.3432
v 484.7993 101.6056 142.9474
v 484.7697 101.6056 143.5704
v 484.8662 101.6056 144.1865
v 485.0846 101.6056 144.7706
v 485.4163 101.6056 145.2988
v 485.8474 101.6056 145.7494
v 486.3604 101.6056 146.104
v 486.9343 101.6056 146.3481
v 488.4657 102.239 140.3475
v 487.8374 102.239 140.2856
v 489.0684 102.239 140.5345
v 489.621 102.239 140.839
v 490.1011 102.239 141.2485
v 490.4889 102.239 141.7462
v 490.7686 102.239 142.3118
v 490.9287 102.239 142.9222
v 490.9626 102.239 143.5522
v 490.869 102.239 144.1763
v 490.6517 102.239 144.7687
v 490.3197 102.239 145.3052
v 489.8865 102.239 145.764
v 489.3698 102.239 146.1261
v 488.7906 102.239 146.3768
v 488.173 102.239 146.5058
v 487.542 102.239 146.5078
v 487.2096 102.239 140.3515
v 486.6083 102.239 140.5424
v 486.0575 102.239 140.8505
v 485.5801 102.239 141.263
v 485.1956 102.239 141.7633
v 484.9196 102.239 142.3307
v 484.7633 102.239 142.9421
v 484.7334 102.239 143.5723
v 484.8311 102.239 144.1957
v 485.0521 102.239 144.7867
v 485.3876 102.239 145.3211
v 485.8239 102.239 145.7771
v 486.3429 102.239 146.1358
v 486.9236 102.239 146.3828
v 488.3875 102.5054 140.7342
v 488.9139 102.5054 140.8975
v 489.3966 102.5054 141.1635
v 489.8159 102.5054 141.5212
v 490.1548 102.5054 141.956
v 490.399 102.5054 142.45
v 490.5388 102.5054 142.9832
v 490.5685 102.5054 143.5335
v 490.4868 102.5054 144.0786
v 490.297 102.5054 144.5961
v 490.007 102.5054 145.0648
v 489.6285 102.5054 145.4655
v 489.1771 102.5054 145.7818
v 488.6714 102.5054 146.0007
gi 0 0 0 0
gi 0 0 0 0
gi 0 0 0 0
gi 0 0 0 0
gi 0 0 0 0
gi 0 0 0 0
gi 0 0 0 0
gi 0 0 0 0
gi 0 0 0 0
gi 0 0 0 0
gi 0 0 0 0
gi 0 0 0 0
gi 0 0 0 0
gi 0 0 0 0
gi 0 0 0 0
gi 0 0 0 0
gi 0 0 0 0
gi 0 0 0 0
gi 0 0 0 0
gi 0 0 0 0
gi 0 0 0 0
gi 0 0 0 0
gi 0 0 0 0
gi 0 0 0 0
gi 0 0 0 0
gi 0 0 0 0
gi 0 0 0 0
gi 0 0 0 0
gi 0 0 0 0
gi 0 0 0 0
gi 0 0 0 0
gi 0 0 0 0
gi 0 0 0 0
gi 0 0 0 0
gi 0 0 0 0
gi 0 0 0 0
gi 0 0 0 0
gi 0 0 0 0
gi 0 0 0 0
gi 0 0 0 0
gi 0 0 0 0
gi 0 0 0 0
gi 0 0 0 0
gi 0 0 0 0
gi 0 0 0 0
gi 0 0 0 0
gi 0 0 0 0
gi 0 0 0 0
gi 0 0 0 0
gi 0 0 0 0
gi 0 0 0 0
gi 0 0 0 0
gi 0 0 0 0
gi 0 0 0 0
gi 0 0 0 0
gi 0 0 0 0
gi 0 0 0 0
gi 0 0 0 0
gi 0 0 0 0
gi 0 0 0 0
gi 0 0 0 0
gi 0 0 0 0
gi 0 0 0 0
gi 0 0 0 0
gi 0 0 0 0
gi 0 0 0 0
gi 0 0 0 0
gi 0 0 0 0
gi 0 0 0 0
gi 0 0 0 0
gi 0 0 0 0
gi 0 0 0 0
gi 0 0 0 0
gi 0 0 0 0
gi 0 0 0 0
gi 0 0 0 0
gi 0 0 0 0
gi 0 0 0 0
gi 0 0 0 0
gi 0 0 0 0
gi 0 0 0 0
gi 0 0 0 0
gi 0 0 0 0
gi 0 0 0 0
gi 0 0 0 0
gi 0 0 0 0
gi 0 0 0 0
gi 0 0 0 0
gi 0 0 0 0
gi 0 0 0 0
gi 0 0 0 0
gi 0 0 0 0
gi 0 0 0 0
gi 0 0 0 0
gi 0 0 0 0
gi 0 0 0 0
gi 0 0 0 0
gi 0 0 0 0
gi 0 0 0 0
gi 0 0 0 0
gi 0 0 0 0
gi 0 0 0 0
gi 0 0 0 0
gi 0 0 0 0
gi 0 0 0 0
gi 0 0 0 0
gi 0 0 0 0
gi 0 0 0 0
gi 0 0 0 0
gi 0 0 0 0
gi 0 0 0 0
gi 0 0 0 0
gi 0 0 0 0
gi 0 0 0 0
gi 0 0 0 0
gi 0 0 0 0
gi 0 0 0 0
gi 0 0 0 0
gi 0 0 0 0
gi 0 0 0 0
gi 0 0 0 0
gi 0 0 0 0
gi 0 0 0 0
gi 0 0 0 0
gi 0 0 0 0
gi 0 0 0 0
gi 0 0 0 0
gi 0 0 0 0
gi 0 0 0 0
gi 0 0 0 0
gi 0 0 0 0
gi 0 0 0 0
gi 0 0 0 0
gi 0 0 0 0
gi 0 0 0 0
gi 0 0 0 0
gi 0 0 0 0
gi 0 0 0 0
gi 0 0 0 0
gi 0 0 0 0
gi 0 0 0 0
gi 0 0 0 0
gi 0 0 0 0
gi 0 0 0 0
gi 0 0 0 0
gi 0 0 0 0
gi 0 0 0 0
gi 0 0 0 0
gi 0 0 0 0
gi 0 0 0 0
gi 0 0 0 0
gi 0 0 0 0
gi 0 0 0 0
gi 0 0 0 0
gi 0 0 0 0
gi 0 0 0 0
gi 0 0 0 0
gi 0 0 0 0
gi 0 0 0 0
gi 0 0 0 0
gi 0 0 0 0
gi 0 0 0 0
gi 0 0 0 0
gi 0 0 0 0
gi 0 0 0 0
gi 0 0 0 0
gi 0 0 0 0
gi 0 0 0 0
gi 0 0 0 0
gi 0 0 0 0
gi 0 0 0 0
gi 0 0 0 0
gi 0 0 0 0
gi 0 0 0 0
gi 0 0 0 0
gi 0 0 0 0
gi 0 0 0 0
gi 0 0 0 0
gi 0 0 0 0
gi 0 0 0 0
gi 0 0 0 0
gi 0 0 0 0
gi 0 0 0 0
gi 0 0 0 0
gi 0 0 0 0
gi 0 0 0 0
gi 0 0 0 0
gi 0 0 0 0
gi 0 0 0 0
gi 0 0 0 0
gi 0 0 0 0
gi 0 0 0 0
gi 0 0 0 0
gi 0 0 0 0
gi 0 0 0 0
gi 0 0 0 0
gi 0 0 0 0
gi 0 0 0 0
gi 0 0 0 0
gi 0 0 0 0
gi 0 0 0 0
gi 0 0 0 0
gi 0 0 0 0
gi 0 0 0 0
gi 0 0 0 0
gi 0 0 0 0
gi 0 0 0 0
gi 0 0 0 0
gi 0 0 0 0
gi 0 0 0 0
gi 0 0 0 0
gi 0 0 0 0
gi 0 0 0 0
gi 0 0 0 0
gi 0 0 0 0
gi 0 0 0 0
gi 0 0 0 0
gi 0 0 0 0
gi 0 0 0 0
gi 0 0 0 0
gi 0 0 0 0
gi 0 0 0 0
gi 0 0 0 0
gi 0 0 0 0
gi 0 0 0 0
gi 0 0 0 0
gi 0 0 0 0
gi 0 0 0 0
gi 0 0 0 0
gi 0 0 0 0
gi 0 0 0 0
gi 0 0 0 0
gi 0 0 0 0
gi 0 0 0 0
gi 0 0 0 0
gi 0 0 0 0
gi 0 0 0 0
gi 0 0 0 0
gi 0 0 0 0
gi 0 0 0 0
gi 0 0 0 0
gi 0 0 0 0
gi 0 0 0 0
gi 0 0 0 0
gi 0 0 0 0
gi 0 0 0 0
gi 0 0 0 0
gi 0 0 0 0
gi 0 0 0 0
gi 0 0 0 0
gi 0 0 0 0
gi 0 0 0 0
gi 0 0 0 0
gi 0 0 0 0
gi 0 0 0 0
gi 0 0 0 0
gi 0 0 0 0
gi 0 0 0 0
gi 0 0 0 0
gi 0 0 0 0
gi 0 0 0 0
gi 0 0 0 0
gi 0 0 0 0
gi 0 0 0 0
gi 0 0 0 0
gi 0 0 0 0
gi 0 0 0 0
gi 0 0 0 0
gi 0 0 0 0
gi 0 0 0 0
gi 0 0 0 0
gi 0 0 0 0
gi 0 0 0 0
gi 0 0 0 0
gi 0 0 0 0
gi 0 0 0 0
gi 0 0 0 0
gi 0 0 0 0
gi 0 0 0 0
gi 0 0 0 0
gi 0 0 0 0
gi 0 0 0 0
gi 0 0 0 0
gi 0 0 0 0
gi 0 0 0 0
gi 0 0 0 0
gi 0 0 0 0
gi 0 0 0 0
gi 0 0 0 0
gi 0 0 0 0
gi 0 0 0 0
gi 0 0 0 0
gi 0 0 0 0
gi 0 0 0 0
gi 0 0 0 0
gi 0 0 0 0
gi 0 0 0 0
gi 0 0 0 0
gi 0 0 0 0
gi 0 0 0 0
gi 0 0 0 0
gi 0 0 0 0
gi 0 0 0 0
gi 0 0 0 0
gi 0 0 0 0
gi 0 0 0 0
gi 0 0 0 0
gi 0 0 0 0
gi 0 0 0 0
gi 0 0 0 0
gw 0.0 0.0 0.0 0.0
gw 0.0 0.0 0.0 0.0
gw 0.0 0.0 0.0 0.0
gw 0.0 0.0 0.0 0.0
gw 0.0 0.0 0.0 0.0
gw 0.0 0.0 0.0 0.0
gw 0.0 0.0 0.0 0.0
gw 0.0 0.0 0.0 0.0
gw 0.0 0.0 0.0 0.0
gw 0.0 0.0 0.0 0.0
gw 0.0 0.0 0.0 0.0
gw 0.0 0.0 0.0 0.0
gw 0.0 0.0 0.0 0.0
gw 0.0 0.0 0.0 0.0
gw 0.0 0.0 0.0 0.0
gw 0.0 0.0 0.0 0.0
gw 0.0 0.0 0.0 0.0
gw 0.0 0.0 0.0 0.0
gw 0.0 0.0 0.0 0.0
gw 0.0 0.0 0.0 0.0
gw 0.0 0.0 0.0 0.0
gw 0.0 0.0 0.0 0.0
gw 0.0 0.0 0.0 0.0
gw 0.0 0.0 0.0 0.0
gw 0.0 0.0 0.0 0.0
gw 0.0 0.0 0.0 0.0
gw 0.0 0.0 0.0 0.0
gw 0.0 0.0 0.0 0.0
gw 0.0 0.0 0.0 0.0
gw 0.0 0.0 0.0 0.0
gw 0.0 0.0 0.0 0.0
gw 0.0 0.0 0.0 0.0
gw 0.0 0.0 0.0 0.0
gw 0.0 0.0 0.0 0.0
gw 0.0 0.0 0.0 0.0
gw 0.0 0.0 0.0 0.0
gw 0.0 0.0 0.0 0.0
gw 0.0 0.0 0.0 0.0
gw 0.0 0.0 0.0 0.0
gw 0.0 0.0 0.0 0.0
gw 0.0 0.0 0.0 0.0
gw 0.0 0.0 0.0 0.0
gw 0.0 0.0 0.0 0.0
gw 0.0 0.0 0.0 0.0
gw 0.0 0.0 0.0 0.0
gw 0.0 0.0 0.0 0.0
gw 0.0 0.0 0.0 0.0
gw 0.0 0.0 0.0 0.0
gw 0.0 0.0 0.0 0.0
gw 0.0 0.0 0.0 0.0
gw 0.0 0.0 0.0 0.0
gw 0.0 0.0 0.0 0.0
gw 0.0 0.0 0.0 0.0
gw 0.0 0.0 0.0 0.0
gw 0.0 0.0 0.0 0.0
gw 0.0 0.0 0.0 0.0
gw 0.0 0.0 0.0 0.0
gw 0.0 0.0 0.0 0.0
gw 0.0 0.0 0.0 0.0
gw 0.0 0.0 0.0 0.0
gw 0.0 0.0 0.0 0.0
gw 0.0 0.0 0.0 0.0
gw 0.0 0.0 0.0 0.0
gw 0.0 0.0 0.0 0.0
gw 0.0 0.0 0.0 0.0
gw 0.0 0.0 0.0 0.0
gw 0.0 0.0 0.0 0.0
gw 0.0 0.0 0.0 0.0
gw 0.0 0.0 0.0 0.0
gw 0.0 0.0 0.0 0.0
gw 0.0 0.0 0.0 0.0
gw 0.0 0.0 0.0 0.0
gw 0.0 0.0 0.0 0.0
gw 0.0 0.0 0.0 0.0
gw 0.0 0.0 0.0 0.0
gw 0.0 0.0 0.0 0.0
gw 0.0 0.0 0.0 0.0
gw 0.0 0.0 0.0 0.0
gw 0.0 0.0 0.0 0.0
gw 0.0 0.0 0.0 0.0
gw 0.0 0.0 0.0 0.0
gw 0.0 0.0 0.0 0.0
gw 0.0 0.0 0.0 0.0
gw 0.0 0.0 0.0 0.0
gw 0.0 0.0 0.0 0.0
gw 0.0 0.0 0.0 0.0
gw 0.0 0.0 0.0 0.0
gw 0.0 0.0 0.0 0.0
gw 0.0 0.0 0.0 0.0
gw 0.0 0.0 0.0 0.0
gw 0.0 0.0 0.0 0.0
gw 0.0 0.0 0.0 0.0
gw 0.0 0.0 0.0 0.0
gw 0.0 0.0 0.0 0.0
gw 0.0 0.0 0.0 0.0
gw 0.0 0.0 0.0 0.0
gw 0.0 0.0 0.0 0.0
gw 0.0 0.0 0.0 0.0
gw 0.0 0.0 0.0 0.0
gw 0.0 0.0 0.0 0.0
gw 0.0 0.0 0.0 0.0
gw 0.0 0.0 0.0 0.0
gw 0.0 0.0 0.0 0.0
gw 0.0 0.0 0.0 0.0
gw 0.0 0.0 0.0 0.0
gw 0.0 0.0 0.0 0.0
gw 0.0 0.0 0.0 0.0
gw 0.0 0.0 0.0 0.0
gw 0.0 0.0 0.0 0.0
gw 0.0 0.0 0.0 0.0
gw 0.0 0.0 0.0 0.0
gw 0.0 0.0 0.0 0.0
gw 0.0 0.0 0.0 0.0
gw 0.0 0.0 0.0 0.0
gw 0.0 0.0 0.0 0.0
gw 0.0 0.0 0.0 0.0
gw 0.0 0.0 0.0 0.0
gw 0.0 0.0 0.0 0.0
gw 0.0 0.0 0.0 0.0
gw 0.0 0.0 0.0 0.0
gw 0.0 0.0 0.0 0.0
gw 0.0 0.0 0.0 0.0
gw 0.0 0.0 0.0 0.0
gw 0.0 0.0 0.0 0.0
gw 0.0 0.0 0.0 0.0
gw 0.0 0.0 0.0 0.0
gw 0.0 0.0 0.0 0.0
gw 0.0 0.0 0.0 0.0
gw 0.0 0.0 0.0 0.0
gw 0.0 0.0 0.0 0.0
gw 0.0 0.0 0.0 0.0
gw 0.0 0.0 0.0 0.0
gw 0.0 0.0 0.0 0.0
gw 0.0 0.0 0.0 0.0
gw 0.0 0.0 0.0 0.0
gw 0.0 0.0 0.0 0.0
gw 0.0 0.0 0.0 0.0
gw 0.0 0.0 0.0 0.0
gw 0.0 0.0 0.0 0.0
gw 0.0 0.0 0.0 0.0
gw 0.0 0.0 0.0 0.0
gw 0.0 0.0 0.0 0.0
gw 0.0 0.0 0.0 0.0
gw 0.0 0.0 0.0 0.0
gw 0.0 0.0 0.0 0.0
gw 0.0 0.0 0.0 0.0
gw 0.0 0.0 0.0 0.0
gw 0.0 0.0 0.0 0.0
gw 0.0 0.0 0.0 0.0
gw 0.0 0.0 0.0 0.0
gw 0.0 0.0 0.0 0.0
gw 0.0 0.0 0.0 0.0
gw 0.0 0.0 0.0 0.0
gw 0.0 0.0 0.0 0.0
gw 0.0 0.0 0.0 0.0
gw 0.0 0.0 0.0 0.0
gw 0.0 0.0 0.0 0.0
gw 0.0 0.0 0.0 0.0
gw 0.0 0.0 0.0 0.0
gw 0.0 0.0 0.0 0.0
gw 0.0 0.0 0.0 0.0
gw 0.0 0.0 0.0 0.0
gw 0.0 0.0 0.0 0.0
gw 0.0 0.0 0.0 0.0
gw 0.0 0.0 0.0 0.0
gw 0.0 0.0 0.0 0.0
gw 0.0 0.0 0.0 0.0
gw 0.0 0.0 0.0 0.0
gw 0.0 0.0 0.0 0.0
gw 0.0 0.0 0.0 0.0
gw 0.0 0.0 0.0 0.0
gw 0.0 0.0 0.0 0.0
gw 0.0 0.0 0.0 0.0
gw 0.0 0.0 0.0 0.0
gw 0.0 0.0 0.0 0.0
gw 0.0 0.0 0.0 0.0
gw 0.0 0.0 0.0 0.0
gw 0.0 0.0 0.0 0.0
gw 0.0 0.0 0.0 0.0
gw 0.0 0.0 0.0 0.0
gw 0.0 0.0 0.0 0.0
gw 0.0 0.0 0.0 0.0
gw 0.0 0.0 0.0 0.0
gw 0.0 0.0 0.0 0.0
gw 0.0 0.0 0.0 0.0
gw 0.0 0.0 0.0 0.0
gw 0.0 0.0 0.0 0.0
gw 0.0 0.0 0.0 0.0
gw 0.0 0.0 0.0 0.0
gw 0.0 0.0 0.0 0.0
gw 0.0 0.0 0.0 0.0
gw 0.0 0.0 0.0 0.0
gw 0.0 0.0 0.0 0.0
gw 0.0 0.0 0.0 0.0
gw 0.0 0.0 0.0 0.0
gw 0.0 0.0 0.0 0.0
gw 0.0 0.0 0.0 0.0
gw 0.0 0.0 0.0 0.0
gw 0.0 0.0 0.0 0.0
gw 0.0 0.0 0.0 0.0
gw 0.0 0.0 0.0 0.0
gw 0.0 0.0 0.0 0.0
gw 0.0 0.0 0.0 0.0
gw 0.0 0.0 0.0 0.0
gw 0.0 0.0 0.0 0.0
gw 0.0 0.0 0.0 0.0
gw 0.0 0.0 0.0 0.0
gw 0.0 0.0 0.0 0.0
gw 0.0 0.0 0.0 0.0
gw 0.0 0.0 0.0 0.0
gw 0.0 0.0 0.0 0.0
gw 0.0 0.0 0.0 0.0
gw 0.0 0.0 0.0 0.0
gw 0.0 0.0 0.0 0.0
gw 0.0 0.0 0.0 0.0
gw 0.0 0.0 0.0 0.0
gw 0.0 0.0 0.0 0.0
gw 0.0 0.0 0.0 0.0
gw 0.0 0.0 0.0 0.0
gw 0.0 0.0 0.0 0.0
gw 0.0 0.0 0.0 0.0
gw 0.0 0.0 0.0 0.0
gw 0.0 0.0 0.0 0.0
gw 0.0 0.0 0.0 0.0
gw 0.0 0.0 0.0 0.0
gw 0.0 0.0 0.0 0.0
gw 0.0 0.0 0.0 0.0
gw 0.0 0.0 0.0 0.0
gw 0.0 0.0 0.0 0.0
gw 0.0 0.0 0.0 0.0
gw 0.0 0.0 0.0 0.0
gw 0.0 0.0 0.0 0.0
gw 0.0 0.0 0.0 0.0
gw 0.0 0.0 0.0 0.0
gw 0.0 0.0 0.0 0.0
gw 0.0 0.0 0.0 0.0
gw 0.0 0.0 0.0 0.0
gw 0.0 0.0 0.0 0.0
gw 0.0 0.0 0.0 0.0
gw 0.0 0.0 0.0 0.0
gw 0.0 0.0 0.0 0.0
gw 0.0 0.0 0.0 0.0
gw 0.0 0.0 0.0 0.0
gw 0.0 0.0 0.0 0.0
gw 0.0 0.0 0.0 0.0
gw 0.0 0.0 0.0 0.0
gw 0.0 0.0 0.0 0.0
gw 0.0 0.0 0.0 0.0
gw 0.0 0.0 0.0 0.0
gw 0.0 0.0 0.0 0.0
gw 0.0 0.0 0.0 0.0
gw 0.0 0.0 0.0 0.0
gw 0.0 0.0 0.0 0.0
gw 0.0 0.0 0.0 0.0
gw 0.0 0.0 0.0 0.0
gw 0.0 0.0 0.0 0.0
gw 0.0 0.0 0.0 0.0
gw 0.0 0.0 0.0 0.0
gw 0.0 0.0 0.0 0.0
gw 0.0 0.0 0.0 0.0
gw 0.0 0.0 0.0 0.0
gw 0.0 0.0 0.0 0.0
gw 0.0 0.0 0.0 0.0
gw 0.0 0.0 0.0 0.0
gw 0.0 0.0 0.0 0.0
gw 0.0 0.0 0.0 0.0
gw 0.0 0.0 0.0 0.0
gw 0.0 0.0 0.0 0.0
gw 0.0 0.0 0.0 0.0
gw 0.0 0.0 0.0 0.0
gw 0.0 0.0 0.0 0.0
gw 0.0 0.0 0.0 0.0
gw 0.0 0.0 0.0 0.0
gw 0.0 0.0 0.0 0.0
gw 0.0 0.0 0.0 0.0
gw 0.0 0.0 0.0 0.0
gw 0.0 0.0 0.0 0.0
gw 0.0 0.0 0.0 0.0
gw 0.0 0.0 0.0 0.0
gw 0.0 0.0 0.0 0.0
gw 0.0 0.0 0.0 0.0
gw 0.0 0.0 0.0 0.0
gw 0.0 0.0 0.0 0.0
gw 0.0 0.0 0.0 0.0
gw 0.0 0.0 0.0 0.0
gw 0.0 0.0 0.0 0.0
gw 0.0 0.0 0.0 0.0
gw 0.0 0.0 0.0 0.0
gw 0.0 0.0 0.0 0.0
gw 0.0 0.0 0.0 0.0
gw 0.0 0.0 0.0 0.0
gw 0.0 0.0 0.0 0.0
gw 0.0 0.0 0.0 0.0
gw 0.0 0.0 0.0 0.0
gw 0.0 0.0 0.0 0.0
gw 0.0 0.0 0.0 0.0
gw 0.0 0.0 0.0 0.0
gw 0.0 0.0 0.0 0.0
gw 0.0 0.0 0.0 0.0
gw 0.0 0.0 0.0 0.0
gw 0.0 0.0 0.0 0.0
gw 0.0 0.0 0.0 0.0
gw 0.0 0.0 0.0 0.0
gw 0.0 0.0 0.0 0.0
gw 0.0 0.0 0.0 0.0
gw 0.0 0.0 0.0 0.0
gw 0.0 0.0 0.0 0.0
gw 0.0 0.0 0.0 0.0
gw 0.0 0.0 0.0 0.0
gw 0.0 0.0 0.0 0.0
vt 0.5179 0.0173
vt 0.4869 0.0173
vt 0.4869 0.0141
vt 0.5179 0.0141
vt 0.5179 0.0474
vt 0.4869 0.0474
vt 0.4869 0.1668
vt 0.5179 0.1668
vt 0.5179 0.1687
vt 0.4869 0.1687
vt 0.5179 0.1252
vt 0.4869 0.1252
vt 0.5179 0.0699
vt 0.5179 0.0877
vt 0.4869 0.0877
vt 0.4869 0.0699
vt 0.0531 0.0173
vt 0.0221 0.0173
vt 0.0221 0.0141
vt 0.0531 0.0141
vt 0.0841 0.0173
vt 0.0841 0.0141
vt 0.1151 0.0173
vt 0.1151 0.0141
vt 0.1461 0.0173
vt 0.1461 0.0141
vt 0.1771 0.0173
vt 0.1771 0.0141
vt 0.208 0.0173
vt 0.208 0.0141
vt 0.239 0.0173
vt 0.239 0.0141
vt 0.27 0.0173
vt 0.27 0.0141
vt 0.301 0.0173
vt 0.301 0.0141
vt 0.332 0.0173
vt 0.332 0.0141
vt 0.363 0.0173
vt 0.363 0.0141
vt 0.394 0.0173
vt 0.394 0.0141
vt 0.4249 0.0173
vt 0.4249 0.0141
vt 0.4559 0.0173
vt 0.4559 0.0141
vt 0.9517 0.0141
vt 0.9788 0.0145
vt 0.9788 0.0177
vt 0.9517 0.0173
vt 0.9207 0.0141
vt 0.9207 0.0173
vt 0.8897 0.0141
vt 0.8897 0.0173
vt 0.8588 0.0141
vt 0.8587 0.0173
vt 0.8278 0.0141
vt 0.8278 0.0173
vt 0.7968 0.0141
vt 0.7968 0.0173
vt 0.7658 0.0141
vt 0.7658 0.0173
vt 0.7348 0.0141
vt 0.7348 0.0173
vt 0.7038 0.0141
vt 0.7038 0.0173
vt 0.6728 0.0141
vt 0.6728 0.0173
vt 0.6419 0.0141
vt 0.6418 0.0173
vt 0.6109 0.0141
vt 0.6109 0.0173
vt 0.5799 0.0141
vt 0.5799 0.0173
vt 0.5489 0.0141
vt 0.5489 0.0173
vt 0.0531 0.0474
vt 0.0221 0.0474
vt 0.0841 0.0474
vt 0.1151 0.0474
vt 0.1461 0.0474
vt 0.1771 0.0474
vt 0.208 0.0474
vt 0.239 0.0474
vt 0.27 0.0474
vt 0.301 0.0474
vt 0.332 0.0474
vt 0.363 0.0474
vt 0.394 0.0474
vt 0.4249 0.0474
vt 0.4559 0.0474
vt 0.9788 0.0479
vt 0.9517 0.0474
vt 0.9207 0.0474
vt 0.8897 0.0474
vt 0.8587 0.0474
vt 0.8278 0.0474
vt 0.7968 0.0474
vt 0.7658 0.0474
vt 0.7348 0.0474
vt 0.7038 0.0474
vt 0.6728 0.0474
vt 0.6418 0.0474
vt 0.6109 0.0474
vt 0.5799 0.0474
vt 0.5489 0.0474
vt 0.0221 0.1668
vt 0.0531 0.1668
vt 0.0531 0.1687
vt 0.0221 0.1687
vt 0.0841 0.1668
vt 0.0841 0.1687
vt 0.1151 0.1668
vt 0.1151 0.1687
vt 0.1461 0.1668
vt 0.1461 0.1687
vt 0.1771 0.1668
vt 0.177 0.1687
vt 0.208 0.1668
vt 0.208 0.1687
vt 0.239 0.1668
vt 0.239 0.1687
vt 0.27 0.1668
vt 0.27 0.1687
vt 0.301 0.1668
vt 0.301 0.1687
vt 0.332 0.1668
vt 0.332 0.1687
vt 0.363 0.1668
vt 0.363 0.1687
vt 0.394 0.1668
vt 0.3939 0.1687
vt 0.4249 0.1668
vt 0.4249 0.1687
vt 0.4559 0.1668
vt 0.4559 0.1687
vt 0.9517 0.1668
vt 0.9788 0.1681
vt 0.9788 0.1691
vt 0.9517 0.1687
vt 0.9207 0.1668
vt 0.9207 0.1687
vt 0.8897 0.1668
vt 0.8897 0.1687
vt 0.8587 0.1668
vt 0.8587 0.1687
vt 0.8278 0.1668
vt 0.8277 0.1687
vt 0.7968 0.1668
vt 0.7968 0.1687
vt 0.7658 0.1668
vt 0.7658 0.1687
vt 0.7348 0.1668
vt 0.7348 0.1687
vt 0.7038 0.1668
vt 0.7038 0.1687
vt 0.6728 0.1668
vt 0.6728 0.1687
vt 0.6418 0.1668
vt 0.6418 0.1687
vt 0.6109 0.1668
vt 0.6108 0.1687
vt 0.5799 0.1668
vt 0.5799 0.1687
vt 0.5489 0.1668
vt 0.5489 0.1687
vt 0.0531 0.1252
vt 0.0221 0.1252
vt 0.0841 0.1252
vt 0.1151 0.1252
vt 0.1461 0.1252
vt 0.1771 0.1252
vt 0.208 0.1252
vt 0.239 0.1252
vt 0.27 0.1252
vt 0.301 0.1252
vt 0.332 0.1252
vt 0.363 0.1252
vt 0.394 0.1252
vt 0.4249 0.1252
vt 0.4559 0.1252
vt 0.9517 0.1381
vt 0.9517 0.0877
vt 0.9788 0.0889
vt 0.9788 0.1387
vt 0.9207 0.1381
vt 0.9207 0.0877
vt 0.8897 0.1381
vt 0.8897 0.0877
vt 0.8587 0.1381
vt 0.8587 0.0877
vt 0.8278 0.1381
vt 0.8278 0.0877
vt 0.7968 0.1381
vt 0.7968 0.0877
vt 0.7658 0.1381
vt 0.7658 0.0877
vt 0.7348 0.1381
vt 0.7348 0.0877
vt 0.7038 0.1381
vt 0.7038 0.0877
vt 0.6728 0.1381
vt 0.6728 0.0877
vt 0.6418 0.1381
vt 0.6418 0.0877
vt 0.6109 0.1381
vt 0.6109 0.0877
vt 0.5799 0.1381
vt 0.5799 0.0877
vt 0.5489 0.1381
vt 0.5489 0.0877
vt 0.5179 0.1381
vt 0.0531 0.0699
vt 0.0531 0.0877
vt 0.0221 0.0877
vt 0.0221 0.0699
vt 0.0841 0.0699
vt 0.0841 0.0877
vt 0.1151 0.0699
vt 0.1151 0.0877
vt 0.1461 0.0699
vt 0.1461 0.0877
vt 0.1771 0.0699
vt 0.1771 0.0877
vt 0.208 0.0699
vt 0.208 0.0877
vt 0.239 0.0699
vt 0.239 0.0877
vt 0.27 0.0699
vt 0.27 0.0877
vt 0.301 0.0699
vt 0.301 0.0877
vt 0.332 0.0699
vt 0.332 0.0877
vt 0.363 0.0699
vt 0.363 0.0877
vt 0.394 0.0699
vt 0.394 0.0877
vt 0.4249 0.0699
vt 0.4249 0.0877
vt 0.4559 0.0699
vt 0.4559 0.0877
vt 0.9517 0.0699
vt 0.9788 0.0711
vt 0.9207 0.0699
vt 0.8897 0.0699
vt 0.8587 0.0699
vt 0.8278 0.0699
vt 0.7968 0.0699
vt 0.7658 0.0699
vt 0.7348 0.0699
vt 0.7038 0.0699
vt 0.6728 0.0699
vt 0.6418 0.0699
vt 0.6109 0.0699
vt 0.5799 0.0699
vt 0.5489 0.0699
vt 0.4869 0.1381
vt 0.0531 0.1381
vt 0.0221 0.1381
vt 0.0841 0.1381
vt 0.1151 0.1381
vt 0.1461 0.1381
vt 0.1771 0.1381
vt 0.208 0.1381
vt 0.239 0.1381
vt 0.27 0.1381
vt 0.301 0.1381
vt 0.332 0.1381
vt 0.363 0.1381
vt 0.394 0.1381
vt 0.4249 0.1381
vt 0.4559 0.1381
vt 0.9517 0.1533
vt 0.9788 0.1538
vt 0.9207 0.1533
vt 0.8897 0.1533
vt 0.8587 0.1533
vt 0.8278 0.1533
vt 0.7968 0.1533
vt 0.7658 0.1533
vt 0.7348 0.1533
vt 0.7038 0.1533
vt 0.6728 0.1533
vt 0.6418 0.1533
vt 0.6109 0.1533
vt 0.5799 0.1533
vt 0.5489 0.1533
vt 0.5179 0.1533
vt 0.4869 0.1533
vt 0.0531 0.1533
vt 0.0221 0.1533
vt 0.0841 0.1533
vt 0.1151 0.1533
vt 0.1461 0.1533
vt 0.1771 0.1533
vt 0.208 0.1533
vt 0.239 0.1533
vt 0.27 0.1533
vt 0.301 0.1533
vt 0.332 0.1533
vt 0.363 0.1533
vt 0.394 0.1533
vt 0.4249 0.1533
vt 0.4559 0.1533
vt 0.9517 0.1252
vt 0.9788 0.1267
vt 0.9207 0.1252
vt 0.8897 0.1252
vt 0.8587 0.1252
vt 0.8278 0.1252
vt 0.7968 0.1252
vt 0.7658 0.1252
vt 0.7348 0.1252
vt 0.7038 0.1252
vt 0.6728 0.1252
vt 0.6418 0.1252
vt 0.6109 0.1252
vt 0.5799 0.1252
vt 0.5489 0.1252
vn 0.0339 -0.9459 0.3228
vn -0.0318 -0.9458 0.3231
vn 0.0 -1.0 0.0
vn 0.0 -1.0 -0.0
vn 0.0944 -0.4265 0.8996
vn -0.0885 -0.4265 0.9002
vn -0.0965 -0.1734 0.9801
vn 0.1028 -0.1735 0.9794
vn 0.1042 -0.0583 0.9928
vn -0.0979 -0.0581 0.9935
vn 0.0979 0.3481 0.9323
vn -0.0918 0.348 0.933
vn 0.0974 0.3593 0.9281
vn 0.1029 -0.1701 0.98
vn -0.0966 -0.1701 0.9807
vn -0.0913 0.3593 0.9288
vn -0.0663 -0.9459 -0.3177
vn -0.0011 -0.9459 -0.3246
vn 0.0 -1.0 0.0
vn 0.0 -1.0 0.0
vn -0.129 -0.9458 -0.2979
vn 0.0 -1.0 0.0
vn -0.1863 -0.9459 -0.2657
vn 0.0 -1.0 0.0
vn -0.2359 -0.9458 -0.223
vn 0.0 -1.0 -0.0001
vn -0.2759 -0.9459 -0.1708
vn 0.0 -1.0 0.0001
vn -0.3048 -0.9458 -0.1117
vn 0.0 -1.0 -0.0
vn -0.3209 -0.9459 -0.048
vn 0.0 -1.0 0.0
vn -0.3242 -0.9458 0.0174
vn 0.0 -1.0 -0.0
vn -0.314 -0.9458 0.0824
vn 0.0 -1.0 0.0
vn -0.2909 -0.9459 0.1439
vn 0.0 -1.0 0.0
vn -0.256 -0.9459 0.1995
vn -0.2107 -0.9458 0.247
vn -0.1566 -0.9458 0.2844
vn 0.0 -1.0 0.0
vn -0.0961 -0.9459 0.31
vn 0.0 -1.0 -0.0002
vn 0.0 -1.0 -0.0001
vn 0.0643 -0.9458 -0.3182
vn 0.0 -1.0 0.0
vn 0.127 -0.9459 -0.2987
vn 0.0 -1.0 -0.0
vn 0.1846 -0.9459 -0.267
vn 0.0 -1.0 0.0
vn 0.2345 -0.9459 -0.2243
vn 0.0 -1.0 0.0
vn 0.275 -0.9458 -0.1726
vn 0.0 -1.0 0.0
vn 0.304 -0.9459 -0.1136
vn 0.0 -1.0 0.0
vn 0.3206 -0.9459 -0.0502
vn 0.0 -1.0 -0.0
vn 0.3242 -0.9459 0.0153
vn 0.0 -1.0 0.0
vn 0.3145 -0.9458 0.0804
vn 0.0 -1.0 -0.0001
vn 0.2919 -0.9459 0.142
vn 0.0 -1.0 0.0
vn 0.2573 -0.9459 0.1979
vn 0.0 -1.0 0.0
vn 0.2122 -0.9459 0.2455
vn 0.0 -1.0 0.0001
vn 0.1584 -0.9458 0.2834
vn 0.0 -1.0 0.0002
vn 0.0981 -0.9458 0.3094
vn -0.1849 -0.4265 -0.8854
vn -0.0029 -0.4265 -0.9045
vn -0.3594 -0.4265 -0.83
vn -0.5192 -0.4265 -0.7407
vn -0.6576 -0.4264 -0.621
vn -0.7692 -0.4265 -0.4759
vn -0.8492 -0.4264 -0.3113
vn -0.8945 -0.4265 -0.1341
vn -0.9032 -0.4264 0.0487
vn -0.8749 -0.4264 0.2298
vn -0.8107 -0.4264 0.401
vn -0.7135 -0.4264 0.5559
vn -0.587 -0.4264 0.6881
vn -0.4364 -0.4264 0.7923
vn -0.2679 -0.4264 0.8639
vn 0.1793 -0.4265 -0.8865
vn 0.3541 -0.4265 -0.8323
vn 0.5143 -0.4265 -0.744
vn 0.6536 -0.4265 -0.6253
vn 0.7661 -0.4265 -0.4808
vn 0.8472 -0.4265 -0.3168
vn 0.8936 -0.4264 -0.1399
vn 0.9035 -0.4264 0.0429
vn 0.8764 -0.4264 0.2239
vn 0.8133 -0.4264 0.3958
vn 0.7171 -0.4264 0.5513
vn 0.5914 -0.4264 0.6845
vn 0.4415 -0.4264 0.7895
vn 0.2736 -0.4264 0.8622
vn -0.0031 -0.1734 -0.9848
vn -0.2014 -0.1735 -0.964
vn -0.2042 -0.0583 -0.9772
vn -0.0031 -0.0581 -0.9983
vn -0.3914 -0.1735 -0.9037
vn -0.3967 -0.0583 -0.9161
vn -0.5653 -0.1735 -0.8065
vn -0.5729 -0.0583 -0.8175
vn -0.716 -0.1736 -0.6761
vn -0.7258 -0.0586 -0.6854
vn -0.8375 -0.1735 -0.5182
vn -0.8489 -0.0584 -0.5253
vn -0.9247 -0.1735 -0.339
vn -0.9373 -0.0583 -0.3436
vn -0.9739 -0.1735 -0.146
vn -0.9873 -0.0585 -0.148
vn -0.9834 -0.1736 0.0531
vn -0.9968 -0.0586 0.0538
vn -0.9526 -0.1735 0.2499
vn -0.9656 -0.0583 0.2533
vn -0.8828 -0.1736 0.4366
vn -0.8948 -0.0584 0.4426
vn -0.7768 -0.1734 0.6053
vn -0.7875 -0.0581 0.6136
vn -0.639 -0.1735 0.7494
vn -0.6478 -0.0583 0.7596
vn -0.4752 -0.1734 0.8626
vn -0.4817 -0.0582 0.8744
vn -0.2918 -0.1734 0.9406
vn -0.2958 -0.0581 0.9535
vn 0.1952 -0.1735 -0.9653
vn 0.1979 -0.0584 -0.9785
vn 0.3855 -0.1735 -0.9062
vn 0.3908 -0.0583 -0.9186
vn 0.56 -0.1735 -0.8101
vn 0.5677 -0.0583 -0.8211
vn 0.7117 -0.1734 -0.6808
vn 0.7215 -0.058 -0.69
vn 0.8341 -0.1734 -0.5236
vn 0.8456 -0.0581 -0.5307
vn 0.9225 -0.1734 -0.3449
vn 0.9351 -0.0582 -0.3496
vn 0.973 -0.1734 -0.1522
vn 0.9863 -0.0582 -0.1542
vn 0.9837 -0.1736 0.0467
vn 0.9972 -0.0586 0.0473
vn 0.9542 -0.1735 0.2438
vn 0.9672 -0.0583 0.2472
vn 0.8856 -0.1734 0.4309
vn 0.8976 -0.058 0.4369
vn 0.7807 -0.1735 0.6003
vn 0.7914 -0.0584 0.6086
vn 0.6439 -0.1734 0.7452
vn 0.6526 -0.0582 0.7554
vn 0.4807 -0.1734 0.8596
vn 0.4873 -0.0582 0.8713
vn 0.2979 -0.1735 0.9387
vn 0.3019 -0.0584 0.9516
vn -0.1917 0.348 -0.9177
vn -0.003 0.348 -0.9375
vn -0.3725 0.348 -0.8603
vn -0.5381 0.348 -0.7677
vn -0.6817 0.348 -0.6436
vn -0.7972 0.348 -0.4933
vn -0.8802 0.348 -0.3227
vn -0.9271 0.3481 -0.1389
vn -0.9361 0.348 0.0505
vn -0.9068 0.348 0.2379
vn -0.8403 0.3481 0.4157
vn -0.7395 0.348 0.5762
vn -0.6084 0.348 0.7132
vn -0.4523 0.348 0.8212
vn -0.2778 0.348 0.8954
vn 0.171 -0.5062 -0.8453
vn 0.1953 -0.1701 -0.9659
vn -0.0033 -0.1701 -0.9854
vn -0.0028 -0.5062 -0.8624
vn 0.3376 -0.5062 -0.7936
vn 0.3858 -0.17 -0.9068
vn 0.4905 -0.5062 -0.7094
vn 0.5604 -0.17 -0.8106
vn 0.6232 -0.5062 -0.5961
vn 0.712 -0.17 -0.6813
vn 0.7304 -0.5062 -0.4585
vn 0.8346 -0.1701 -0.5239
vn 0.8078 -0.5062 -0.3021
vn 0.9231 -0.1701 -0.345
vn 0.8521 -0.5062 -0.1333
vn 0.9736 -0.17 -0.1523
vn 0.8615 -0.5061 0.0409
vn 0.9843 -0.17 0.0467
vn 0.8356 -0.5061 0.2135
vn 0.9548 -0.17 0.244
vn 0.7755 -0.5061 0.3774
vn 0.8862 -0.17 0.431
vn 0.6837 -0.5062 0.5257
vn 0.7812 -0.1701 0.6006
vn 0.5639 -0.5062 0.6525
vn 0.6442 -0.1701 0.7457
vn 0.421 -0.5061 0.7527
vn 0.4809 -0.1701 0.8601
vn 0.2608 -0.5061 0.8221
vn 0.298 -0.1701 0.9393
vn 0.09 -0.5062 0.8577
vn -0.1909 0.3593 -0.9135
vn -0.2016 -0.1701 -0.9646
vn -0.003 0.3593 -0.9332
vn -0.3709 0.3593 -0.8564
vn -0.3916 -0.1701 -0.9043
vn -0.5356 0.3593 -0.7643
vn -0.5657 -0.17 -0.8069
vn -0.6785 0.3593 -0.6407
vn -0.7165 -0.17 -0.6765
vn -0.7936 0.3593 -0.491
vn -0.8379 -0.1701 -0.5186
vn -0.8762 0.3593 -0.3213
vn -0.9252 -0.1701 -0.3392
vn -0.9229 0.3593 -0.1383
vn -0.9746 -0.17 -0.1459
vn -0.9319 0.3593 0.0504
vn -0.984 -0.17 0.0532
vn -0.9027 0.3593 0.2368
vn -0.9532 -0.1701 0.2501
vn -0.8365 0.3592 0.4137
vn -0.8833 -0.1701 0.4368
vn -0.7361 0.3593 0.5736
vn -0.7773 -0.1701 0.6056
vn -0.6057 0.3593 0.71
vn -0.6394 -0.1701 0.7498
vn -0.4503 0.3593 0.8174
vn -0.4753 -0.1701 0.8632
vn -0.2764 0.3593 0.8913
vn -0.292 -0.17 0.9412
vn 0.185 0.3592 -0.9147
vn 0.3654 0.3592 -0.8587
vn 0.5307 0.3593 -0.7677
vn 0.6743 0.3593 -0.6452
vn 0.7904 0.3593 -0.4962
vn 0.8741 0.3593 -0.3268
vn 0.922 0.3593 -0.1442
vn 0.9322 0.3593 0.0443
vn 0.9042 0.3593 0.231
vn 0.8391 0.3593 0.4084
vn 0.7398 0.3593 0.5689
vn 0.6101 0.3593 0.7062
vn 0.4555 0.3593 0.8145
vn 0.2822 0.3593 0.8895
vn -0.0845 -0.5061 0.8583
vn -0.1764 -0.5062 -0.8442
vn -0.3427 -0.5062 -0.7914
vn -0.495 -0.5062 -0.7062
vn -0.627 -0.5062 -0.5921
vn -0.7334 -0.5062 -0.4538
vn -0.8097 -0.5062 -0.2969
vn -0.8529 -0.5062 -0.1278
vn -0.8612 -0.5062 0.0465
vn -0.8342 -0.5062 0.2189
vn -0.7731 -0.5061 0.3823
vn -0.6803 -0.5062 0.5301
vn -0.5596 -0.5062 0.6562
vn -0.4161 -0.5062 0.7554
vn -0.2556 -0.5062 0.8237
vn 0.1788 0.4316 -0.8842
vn -0.0029 0.4316 -0.9021
vn 0.3531 0.4315 -0.8301
vn 0.513 0.4316 -0.742
vn 0.6518 0.4316 -0.6236
vn 0.764 0.4316 -0.4796
vn 0.8449 0.4316 -0.316
vn 0.8912 0.4316 -0.1394
vn 0.901 0.4316 0.0429
vn 0.874 0.4316 0.2234
vn 0.8111 0.4316 0.3947
vn 0.7151 0.4316 0.5498
vn 0.5898 0.4315 0.6826
vn 0.4403 0.4316 0.7873
vn 0.2728 0.4316 0.8598
vn 0.0941 0.4316 0.8971
vn -0.0884 0.4316 0.8977
vn -0.1845 0.4315 -0.883
vn -0.3585 0.4315 -0.8278
vn -0.5178 0.4315 -0.7387
vn -0.6559 0.4315 -0.6194
vn -0.7671 0.4316 -0.4746
vn -0.8469 0.4316 -0.3106
vn -0.8921 0.4316 -0.1337
vn -0.9008 0.4316 0.0487
vn -0.8726 0.4315 0.229
vn -0.8086 0.4316 0.3999
vn -0.7115 0.4316 0.5545
vn -0.5854 0.4316 0.6864
vn -0.4352 0.4316 0.7902
vn -0.2673 0.4316 0.8616
vn 0.1858 0.348 -0.9189
vn 0.367 0.348 -0.8627
vn 0.5332 0.348 -0.7711
vn 0.6774 0.348 -0.6481
vn 0.794 0.348 -0.4984
vn 0.8781 0.348 -0.3283
vn 0.9262 0.3481 -0.1449
vn 0.9364 0.3481 0.0445
vn 0.9083 0.348 0.2321
vn 0.843 0.348 0.4102
vn 0.7432 0.348 0.5715
vn 0.6129 0.348 0.7094
vn 0.4575 0.348 0.8183
vn 0.2835 0.348 0.8936
vtan 0.9945 0.0 -0.1044
vtan 0.9952 0.0 0.098
vtan 0.9952 0.0 0.0978
vtan 0.9945 0.0 -0.1046
vtan 0.9945 0.0 -0.1044
vtan 0.9952 -0.0 0.0979
vtan 0.9952 -0.0 0.098
vtan 0.9945 0.0 -0.1044
vtan 0.9945 0.0 -0.1044
vtan 0.9952 -0.0 0.098
vtan 0.9945 0.0 -0.1044
vtan 0.9952 0.0 0.0979
vtan 0.9945 0.0 -0.1043
vtan 0.9945 0.0 -0.1044
vtan 0.9952 -0.0 0.098
vtan 0.9952 -0.0 0.0979
vtan -0.9789 0.0 0.2043
vtan -0.9951 -0.0311 0.0938
vtan -0.9945 0.0 0.1044
vtan -0.9789 0.0 0.2043
vtan -0.9176 -0.0 0.3975
vtan -0.9175 0.0 0.3977
vtan -0.8189 0.0 0.574
vtan -0.8188 0.0 0.5741
vtan -0.6866 -0.0001 0.727
vtan -0.6866 -0.0001 0.7271
vtan -0.5264 0.0001 0.8502
vtan -0.5263 0.0001 0.8503
vtan -0.344 -0.0001 0.939
vtan -0.3438 -0.0 0.9391
vtan -0.1483 0.0001 0.9889
vtan -0.1485 0.0 0.9889
vtan 0.0537 -0.0001 0.9986
vtan 0.0541 -0.0 0.9985
vtan 0.2539 0.0 0.9672
vtan 0.2541 0.0 0.9672
vtan 0.4434 0.0 0.8963
vtan 0.4436 0.0 0.8962
vtan 0.6146 0.0 0.7889
vtan 0.6146 0.0 0.7888
vtan 0.7609 -0.0 0.6489
vtan 0.761 0.0 0.6488
vtan 0.876 0.0 0.4824
vtan 0.876 0.0 0.4822
vtan 0.9551 0.0 0.2963
vtan 0.9551 -0.0 0.2963
vtan -0.9838 0.0 -0.1795
vtan -0.9983 0.0 -0.0582
vtan -0.9991 0.0147 -0.0397
vtan -0.9843 -0.0076 -0.1763
vtan -0.9203 -0.0 -0.3912
vtan -0.9202 -0.0 -0.3914
vtan -0.8227 0.0 -0.5685
vtan -0.8225 0.0 -0.5688
vtan -0.6914 -0.0 -0.7225
vtan -0.6913 0.0 -0.7226
vtan -0.532 -0.0 -0.8467
vtan -0.5317 -0.0 -0.847
vtan -0.3504 -0.0 -0.9366
vtan -0.35 -0.0 -0.9367
vtan -0.1544 -0.0 -0.988
vtan -0.1545 0.0001 -0.988
vtan 0.0471 0.0 -0.9989
vtan 0.0473 0.0 -0.9989
vtan 0.2473 -0.0 -0.9689
vtan 0.2475 -0.0 -0.9689
vtan 0.4373 0.0001 -0.8993
vtan 0.4376 0.0 -0.8992
vtan 0.6093 -0.0 -0.7929
vtan 0.6097 -0.0 -0.7927
vtan 0.7566 -0.0 -0.6539
vtan 0.7567 0.0 -0.6538
vtan 0.8726 -0.0 -0.4884
vtan 0.8728 -0.0001 -0.4881
vtan 0.9532 -0.0001 -0.3024
vtan 0.9532 0.0 -0.3022
vtan -0.9789 0.0 0.2044
vtan -0.999 -0.0392 0.0217
vtan -0.9177 -0.0 0.3974
vtan -0.8189 -0.0 0.574
vtan -0.6866 0.0 0.7271
vtan -0.5262 0.0 0.8504
vtan -0.3442 0.0 0.9389
vtan -0.1482 -0.0 0.989
vtan 0.0538 0.0 0.9986
vtan 0.254 0.0 0.9672
vtan 0.4434 0.0 0.8963
vtan 0.6146 0.0 0.7888
vtan 0.7608 -0.0 0.649
vtan 0.8759 0.0 0.4825
vtan 0.9551 0.0 0.2962
vtan -1.0 -0.0048 0.0054
vtan -0.9816 -0.0174 -0.1901
vtan -0.9202 -0.0 -0.3915
vtan -0.8226 0.0 -0.5686
vtan -0.6913 -0.0 -0.7226
vtan -0.5316 -0.0 -0.847
vtan -0.3503 0.0 -0.9366
vtan -0.1547 0.0 -0.988
vtan 0.0475 -0.0 -0.9989
vtan 0.2475 0.0 -0.9689
vtan 0.4376 0.0 -0.8992
vtan 0.6096 0.0 -0.7927
vtan 0.7567 0.0 -0.6538
vtan 0.8728 0.0 -0.4881
vtan 0.9532 -0.0 -0.3025
vtan -0.9998 -0.0175 0.0063
vtan -0.9789 -0.0001 0.2045
vtan -0.9789 -0.0001 0.2046
vtan -1.0 -0.0059 0.0035
vtan -0.9176 0.0 0.3974
vtan -0.9176 0.0 0.3974
vtan -0.8189 -0.0 0.574
vtan -0.8189 -0.0 0.5739
vtan -0.6866 0.0 0.7271
vtan -0.6866 0.0 0.7271
vtan -0.5262 0.0001 0.8504
vtan -0.5262 0.0001 0.8504
vtan -0.3442 0.0 0.9389
vtan -0.3442 0.0 0.9389
vtan -0.1482 -0.0 0.989
vtan -0.1482 -0.0 0.989
vtan 0.0539 -0.0 0.9985
vtan 0.0539 -0.0 0.9985
vtan 0.2538 0.0 0.9673
vtan 0.2537 0.0 0.9673
vtan 0.4433 -0.0 0.8964
vtan 0.4433 -0.0 0.8964
vtan 0.6147 -0.0 0.7888
vtan 0.6147 -0.0 0.7888
vtan 0.7609 -0.0 0.6489
vtan 0.7609 0.0 0.6489
vtan 0.8759 -0.0 0.4825
vtan 0.8759 0.0 0.4825
vtan 0.9551 0.0 0.2963
vtan 0.9551 0.0 0.2963
vtan -0.9799 -0.0761 -0.1844
vtan -0.9553 -0.2908 0.0542
vtan -0.9172 -0.3976 0.026
vtan -0.9796 -0.0471 -0.1953
vtan -0.9202 0.0 -0.3914
vtan -0.9202 -0.0 -0.3915
vtan -0.8226 0.0 -0.5687
vtan -0.8225 0.0 -0.5687
vtan -0.6912 0.0 -0.7226
vtan -0.6912 -0.0 -0.7227
vtan -0.5316 -0.0 -0.847
vtan -0.5316 -0.0 -0.847
vtan -0.3502 0.0 -0.9367
vtan -0.3502 0.0 -0.9367
vtan -0.1545 -0.0 -0.988
vtan -0.1545 -0.0 -0.988
vtan 0.0474 0.0 -0.9989
vtan 0.0474 0.0 -0.9989
vtan 0.2475 -0.0 -0.9689
vtan 0.2476 -0.0 -0.9689
vtan 0.4376 0.0 -0.8992
vtan 0.4376 0.0 -0.8992
vtan 0.6096 -0.0 -0.7927
vtan 0.6096 -0.0 -0.7927
vtan 0.7567 0.0 -0.6538
vtan 0.7567 0.0 -0.6537
vtan 0.8728 0.0 -0.4881
vtan 0.8728 0.0 -0.4881
vtan 0.9532 0.0 -0.3024
vtan 0.9532 0.0 -0.3024
vtan -0.9789 -0.0 0.2045
vtan -0.9993 0.0332 0.0155
vtan -0.9177 -0.0 0.3974
vtan -0.8189 0.0 0.574
vtan -0.6865 0.0 0.7271
vtan -0.5261 0.0 0.8504
vtan -0.3442 0.0 0.9389
vtan -0.1482 -0.0 0.989
vtan 0.0538 -0.0 0.9985
vtan 0.2538 0.0 0.9673
vtan 0.4434 0.0 0.8963
vtan 0.6146 -0.0 0.7888
vtan 0.7608 0.0 0.649
vtan 0.8759 0.0 0.4825
vtan 0.9551 0.0 0.2963
vtan -0.982 -0.0179 -0.1879
vtan -0.9804 -0.059 -0.1879
vtan -0.9953 -0.0943 0.0196
vtan -0.9999 0.0149 -0.0055
vtan -0.9202 0.0 -0.3914
vtan -0.9202 -0.0 -0.3915
vtan -0.8226 -0.0 -0.5687
vtan -0.8226 -0.0 -0.5687
vtan -0.6912 -0.0 -0.7226
vtan -0.6913 0.0 -0.7225
vtan -0.5317 0.0 -0.847
vtan -0.5316 -0.0 -0.847
vtan -0.3503 -0.0 -0.9366
vtan -0.3501 -0.0 -0.9367
vtan -0.1546 -0.0 -0.988
vtan -0.1545 -0.0 -0.988
vtan 0.0475 -0.0 -0.9989
vtan 0.0474 -0.0 -0.9989
vtan 0.2476 0.0 -0.9689
vtan 0.2476 -0.0 -0.9689
vtan 0.4376 -0.0 -0.8992
vtan 0.4374 0.0 -0.8993
vtan 0.6096 -0.0 -0.7927
vtan 0.6095 -0.0 -0.7928
vtan 0.7566 0.0 -0.6539
vtan 0.7567 -0.0 -0.6537
vtan 0.8728 0.0 -0.4881
vtan 0.8729 -0.0 -0.488
vtan 0.9532 -0.0 -0.3024
vtan 0.9532 -0.0 -0.3024
vtan 0.9945 -0.0 -0.1043
vtan -0.9789 -0.0 0.2045
vtan -0.9789 -0.0 0.2045
vtan -0.9998 -0.0171 0.0063
vtan -0.9993 0.034 0.0163
vtan -0.9176 -0.0 0.3974
vtan -0.9177 0.0 0.3974
vtan -0.8189 0.0 0.5739
vtan -0.8188 0.0 0.574
vtan -0.6866 0.0 0.7271
vtan -0.6865 0.0 0.7271
vtan -0.5262 0.0 0.8504
vtan -0.5263 0.0 0.8503
vtan -0.3443 0.0 0.9389
vtan -0.3443 0.0 0.9389
vtan -0.1482 -0.0 0.989
vtan -0.148 -0.0 0.989
vtan 0.054 -0.0 0.9985
vtan 0.054 -0.0 0.9985
vtan 0.2538 0.0 0.9673
vtan 0.2538 0.0 0.9673
vtan 0.4433 0.0 0.8964
vtan 0.4433 -0.0 0.8964
vtan 0.6146 -0.0 0.7888
vtan 0.6146 0.0 0.7888
vtan 0.7608 0.0 0.649
vtan 0.7609 0.0 0.6489
vtan 0.8759 0.0 0.4825
vtan 0.876 0.0 0.4823
vtan 0.9551 -0.0 0.2962
vtan 0.9551 -0.0 0.2963
vtan -0.975 -0.0498 -0.2167
vtan -0.9878 -0.1466 -0.0532
vtan -0.9202 -0.0 -0.3915
vtan -0.8226 -0.0 -0.5686
vtan -0.6913 0.0 -0.7225
vtan -0.5316 0.0 -0.847
vtan -0.3502 -0.0 -0.9367
vtan -0.1546 -0.0 -0.988
vtan 0.0475 -0.0 -0.9989
vtan 0.2475 -0.0 -0.9689
vtan 0.4376 0.0 -0.8992
vtan 0.6096 -0.0 -0.7927
vtan 0.7567 0.0 -0.6538
vtan 0.8728 0.0 -0.4881
vtan 0.9532 0.0 -0.3024
vtan 0.9952 -0.0 0.098
vtan -0.9788 -0.0 0.2046
vtan -0.9986 -0.0444 0.0293
vtan -0.9176 -0.0 0.3974
vtan -0.8189 0.0 0.574
vtan -0.6866 -0.0 0.727
vtan -0.5262 0.0 0.8504
vtan -0.3442 0.0 0.9389
vtan -0.1482 -0.0 0.989
vtan 0.0539 0.0 0.9985
vtan 0.2538 -0.0 0.9673
vtan 0.4433 -0.0 0.8964
vtan 0.6147 -0.0 0.7888
vtan 0.7609 -0.0 0.6489
vtan 0.8759 -0.0 0.4825
vtan 0.9551 0.0 0.2963
vtan -0.9786 -0.0147 -0.205
vtan -0.9974 -0.0659 -0.0283
vtan -0.9202 -0.0 -0.3915
vtan -0.8226 0.0 -0.5687
vtan -0.6913 -0.0 -0.7226
vtan -0.5317 0.0 -0.8469
vtan -0.3503 0.0 -0.9366
vtan -0.1545 -0.0 -0.988
vtan 0.0475 0.0 -0.9989
vtan 0.2476 0.0 -0.9689
vtan 0.4375 -0.0 -0.8992
vtan 0.6095 0.0 -0.7928
vtan 0.7566 0.0 -0.6538
vtan 0.8728 0.0 -0.4881
vtan 0.9532 0.0 -0.3024
vtan 0.9945 -0.0 -0.1044
vtan 0.9945 0.0 -0.1044
vtan 0.9945 -0.0 -0.1044
vtan 0.9952 -0.0 0.0979
vtan 0.9952 -0.0 0.098
vtan -0.9789 -0.0 0.2046
vtan -0.9789 0.0 0.2045
vtan -0.9993 0.0332 0.0155
vtan -0.999 0.0396 0.0221
vtan -0.9177 -0.0 0.3974
vtan -0.9177 0.0 0.3974
vtan -0.8189 -0.0 0.5739
vtan -0.8189 -0.0 0.574
vtan -0.6866 0.0 0.7271
vtan -0.6865 0.0 0.7271
vtan -0.5261 -0.0 0.8504
vtan -0.5261 0.0 0.8504
vtan -0.3443 -0.0 0.9389
vtan -0.3442 -0.0 0.9389
vtan -0.1482 0.0 0.989
vtan -0.1482 0.0 0.989
vtan 0.0539 -0.0 0.9985
vtan 0.0538 0.0 0.9985
vtan 0.2538 -0.0 0.9673
vtan 0.2538 -0.0 0.9673
vtan 0.4433 0.0 0.8964
vtan 0.4434 -0.0 0.8963
vtan 0.6147 0.0 0.7888
vtan 0.6146 0.0 0.7888
vtan 0.7609 -0.0 0.6489
vtan 0.7608 -0.0 0.649
vtan 0.8759 -0.0 0.4825
vtan 0.8759 -0.0 0.4825
vtan 0.9551 0.0 0.2963
vtan 0.9551 0.0 0.2963
vtan -0.9749 -0.051 -0.2165
vtan -0.991 -0.1265 -0.0438
vtan -0.9202 0.0 -0.3915
vtan -0.8225 0.0 -0.5688
vtan -0.6913 -0.0 -0.7226
vtan -0.5317 0.0 -0.8469
vtan -0.3502 -0.0 -0.9367
vtan -0.1546 -0.0 -0.988
vtan 0.0474 0.0 -0.9989
vtan 0.2476 0.0 -0.9689
vtan 0.4375 0.0 -0.8992
vtan 0.6096 0.0 -0.7927
vtan 0.7567 -0.0 -0.6538
vtan 0.8728 0.0 -0.488
vtan 0.9532 0.0 -0.3024
vtan -0.9808 0.0098 -0.1947
vtan -0.9806 0.0052 -0.1957
vtan -0.9999 -0.0133 -0.0032
vtan -1.0 0.0034 0.0044
vtan -0.9202 0.0 -0.3915
vtan -0.9202 -0.0 -0.3915
vtan -0.8225 0.0 -0.5687
vtan -0.8225 -0.0 -0.5687
vtan -0.6913 0.0 -0.7226
vtan -0.6913 0.0 -0.7226
vtan -0.5317 -0.0 -0.8469
vtan -0.5317 -0.0 -0.847
vtan -0.3502 0.0 -0.9367
vtan -0.3503 -0.0 -0.9366
vtan -0.1546 0.0 -0.988
vtan -0.1546 0.0 -0.988
vtan 0.0474 -0.0 -0.9989
vtan 0.0475 -0.0 -0.9989
vtan 0.2476 -0.0 -0.9689
vtan 0.2476 0.0 -0.9689
vtan 0.4375 0.0 -0.8992
vtan 0.4375 0.0 -0.8992
vtan 0.6096 -0.0 -0.7927
vtan 0.6095 -0.0 -0.7928
vtan 0.7567 0.0 -0.6538
vtan 0.7566 0.0 -0.6538
vtan 0.8728 0.0 -0.488
vtan 0.8728 0.0 -0.4881
vtan 0.9532 0.0 -0.3024
vtan 0.9532 -0.0 -0.3024
vtan 0.9952 -0.0 0.098
vtan -0.9789 -0.0 0.2046
vtan -0.999 0.0396 0.0221
vtan -0.9176 0.0 0.3974
vtan -0.8189 0.0 0.574
vtan -0.6866 -0.0 0.7271
vtan -0.5261 0.0 0.8504
vtan -0.3443 0.0 0.9389
vtan -0.1483 -0.0 0.9889
vtan 0.054 0.0 0.9985
vtan 0.2538 0.0 0.9673
vtan 0.4433 -0.0 0.8964
vtan 0.6147 -0.0 0.7888
vtan 0.7609 0.0 0.6489
vtan 0.8759 0.0 0.4825
vtan 0.9551 -0.0 0.2963
f 0/0/0/0 1/1/1/1 2/2/2/2 
f 0/0/0/0 2/2/2/2 3/3/3/3 
f 1/1/1/1 0/0/0/0 4/4/4/4 
f 1/1/1/1 4/4/4/4 5/5/5/5 
f 6/6/6/6 7/7/7/7 8/8/8/8 
f 6/6/6/6 8/8/8/8 9/9/9/9 
f 10/10/10/10 7/7/7/7 6/6/6/6 
f 10/10/10/10 6/6/6/6 11/11/11/11 
f 12/12/12/12 13/13/13/13 14/14/14/14 
f 12/12/12/12 14/14/14/14 15/15/15/15 
f 16/16/16/16 17/17/17/17 18/18/18/18 
f 16/16/16/16 18/18/18/18 19/19/19/19 
f 20/20/20/20 16/16/16/16 19/19/19/19 
f 20/20/20/20 19/19/19/19 21/21/21/21 
f 22/22/22/22 20/20/20/20 21/21/21/21 
f 22/22/22/22 21/21/21/21 23/23/23/23 
f 24/24/24/24 22/22/22/22 23/23/23/23 
f 24/24/24/24 23/23/23/23 25/25/25/25 
f 26/26/26/26 24/24/24/24 25/25/25/25 
f 26/26/26/26 25/25/25/25 27/27/27/27 
f 28/28/28/28 26/26/26/26 27/27/27/27 
f 28/28/28/28 27/27/27/27 29/29/29/29 
f 30/30/30/30 28/28/28/28 29/29/29/29 
f 30/30/30/30 29/29/29/29 31/31/31/31 
f 32/32/32/32 30/30/30/30 31/31/31/31 
f 32/32/32/32 31/31/31/31 33/33/33/33 
f 34/34/34/34 32/32/32/32 33/33/33/33 
f 34/34/34/34 33/33/33/33 35/35/35/35 
f 36/36/36/36 34/34/34/34 35/35/35/35 
f 36/36/36/36 35/35/35/35 37/37/37/37 
f 38/38/38/38 36/36/36/36 37/37/37/37 
f 38/38/38/38 37/37/37/37 39/39/18/39 
f 40/40/39/40 38/38/38/38 39/39/18/39 
f 40/40/39/40 39/39/18/39 41/41/18/41 
f 42/42/40/42 40/40/39/40 41/41/18/41 
f 42/42/40/42 41/41/18/41 43/43/41/43 
f 44/44/42/44 42/42/40/42 43/43/41/43 
f 44/44/42/44 43/43/41/43 45/45/43/45 
f 1/1/1/1 44/44/42/44 45/45/43/45 
f 1/1/1/1 45/45/43/45 2/2/2/2 
f 46/46/44/46 18/47/18/47 17/48/17/48 
f 46/46/44/46 17/48/17/48 47/49/45/49 
f 48/50/46/50 46/46/44/46 47/49/45/49 
f 48/50/46/50 47/49/45/49 49/51/47/51 
f 50/52/48/52 48/50/46/50 49/51/47/51 
f 50/52/48/52 49/51/47/51 51/53/49/53 
f 52/54/50/54 50/52/48/52 51/53/49/53 
f 52/54/50/54 51/53/49/53 53/55/51/55 
f 54/56/52/56 52/54/50/54 53/55/51/55 
f 54/56/52/56 53/55/51/55 55/57/53/57 
f 56/58/54/58 54/56/52/56 55/57/53/57 
f 56/58/54/58 55/57/53/57 57/59/55/59 
f 58/60/56/60 56/58/54/58 57/59/55/59 
f 58/60/56/60 57/59/55/59 59/61/57/61 
f 60/62/58/62 58/60/56/60 59/61/57/61 
f 60/62/58/62 59/61/57/61 61/63/59/63 
f 62/64/60/64 60/62/58/62 61/63/59/63 
f 62/64/60/64 61/63/59/63 63/65/61/65 
f 64/66/62/66 62/64/60/64 63/65/61/65 
f 64/66/62/66 63/65/61/65 65/67/63/67 
f 66/68/64/68 64/66/62/66 65/67/63/67 
f 66/68/64/68 65/67/63/67 67/69/65/69 
f 68/70/66/70 66/68/64/68 67/69/65/69 
f 68/70/66/70 67/69/65/69 69/71/67/71 
f 70/72/68/72 68/70/66/70 69/71/67/71 
f 70/72/68/72 69/71/67/71 71/73/69/73 
f 72/74/70/74 70/72/68/72 71/73/69/73 
f 72/74/70/74 71/73/69/73 73/75/71/75 
f 73/75/71/75 0/0/0/0 3/3/3/3 
f 73/75/71/75 3/3/3/3 72/74/70/74 
f 74/76/72/76 75/77/73/77 17/17/17/17 
f 74/76/72/76 17/17/17/17 16/16/16/16 
f 76/78/74/78 74/76/72/76 16/16/16/16 
f 76/78/74/78 16/16/16/16 20/20/20/20 
f 77/79/75/79 76/78/74/78 20/20/20/20 
f 77/79/75/79 20/20/20/20 22/22/22/22 
f 78/80/76/80 77/79/75/79 22/22/22/22 
f 78/80/76/80 22/22/22/22 24/24/24/24 
f 79/81/77/81 78/80/76/80 24/24/24/24 
f 79/81/77/81 24/24/24/24 26/26/26/26 
f 80/82/78/82 79/81/77/81 26/26/26/26 
f 80/82/78/82 26/26/26/26 28/28/28/28 
f 81/83/79/83 80/82/78/82 28/28/28/28 
f 81/83/79/83 28/28/28/28 30/30/30/30 
f 82/84/80/84 81/83/79/83 30/30/30/30 
f 82/84/80/84 30/30/30/30 32/32/32/32 
f 83/85/81/85 82/84/80/84 32/32/32/32 
f 83/85/81/85 32/32/32/32 34/34/34/34 
f 84/86/82/86 83/85/81/85 34/34/34/34 
f 84/86/82/86 34/34/34/34 36/36/36/36 
f 85/87/83/87 84/86/82/86 36/36/36/36 
f 85/87/83/87 36/36/36/36 38/38/38/38 
f 86/88/84/88 85/87/83/87 38/38/38/38 
f 86/88/84/88 38/38/38/38 40/40/39/40 
f 87/89/85/89 86/88/84/88 40/40/39/40 
f 87/89/85/89 40/40/39/40 42/42/40/42 
f 88/90/86/90 87/89/85/89 42/42/40/42 
f 88/90/86/90 42/42/40/42 44/44/42/44 
f 5/5/5/5 88/90/86/90 44/44/42/44 
f 5/5/5/5 44/44/42/44 1/1/1/1 
f 75/91/73/91 89/92/87/92 47/49/45/49 
f 75/91/73/91 47/49/45/49 17/48/17/48 
f 89/92/87/92 90/93/88/93 49/51/47/51 
f 89/92/87/92 49/51/47/51 47/49/45/49 
f 90/93/88/93 91/94/89/94 51/53/49/53 
f 90/93/88/93 51/53/49/53 49/51/47/51 
f 91/94/89/94 92/95/90/95 53/55/51/55 
f 91/94/89/94 53/55/51/55 51/53/49/53 
f 92/95/90/95 93/96/91/96 55/57/53/57 
f 92/95/90/95 55/57/53/57 53/55/51/55 
f 93/96/91/96 94/97/92/97 57/59/55/59 
f 93/96/91/96 57/59/55/59 55/57/53/57 
f 94/97/92/97 95/98/93/98 59/61/57/61 
f 94/97/92/97 59/61/57/61 57/59/55/59 
f 95/98/93/98 96/99/94/99 61/63/59/63 
f 95/98/93/98 61/63/59/63 59/61/57/61 
f 96/99/94/99 97/100/95/100 63/65/61/65 
f 96/99/94/99 63/65/61/65 61/63/59/63 
f 97/100/95/100 98/101/96/101 65/67/63/67 
f 97/100/95/100 65/67/63/67 63/65/61/65 
f 98/101/96/101 99/102/97/102 67/69/65/69 
f 98/101/96/101 67/69/65/69 65/67/63/67 
f 99/102/97/102 100/103/98/103 69/71/67/71 
f 99/102/97/102 69/71/67/71 67/69/65/69 
f 100/103/98/103 101/104/99/104 71/73/69/73 
f 100/103/98/103 71/73/69/73 69/71/67/71 
f 101/104/99/104 102/105/100/105 73/75/71/75 
f 101/104/99/104 73/75/71/75 71/73/69/73 
f 0/0/0/0 73/75/71/75 102/105/100/105 
f 0/0/0/0 102/105/100/105 4/4/4/4 
f 103/106/101/106 104/107/102/107 105/108/103/108 
f 103/106/101/106 105/108/103/108 106/109/104/109 
f 104/107/102/107 107/110/105/110 108/111/106/111 
f 104/107/102/107 108/111/106/111 105/108/103/108 
f 107/110/105/110 109/112/107/112 110/113/108/113 
f 107/110/105/110 110/113/108/113 108/111/106/111 
f 109/112/107/112 111/114/109/114 112/115/110/115 
f 109/112/107/112 112/115/110/115 110/113/108/113 
f 111/114/109/114 113/116/111/116 114/117/112/117 
f 111/114/109/114 114/117/112/117 112/115/110/115 
f 113/116/111/116 115/118/113/118 116/119/114/119 
f 113/116/111/116 116/119/114/119 114/117/112/117 
f 115/118/113/118 117/120/115/120 118/121/116/121 
f 115/118/113/118 118/121/116/121 116/119/114/119 
f 117/120/115/120 119/122/117/122 120/123/118/123 
f 117/120/115/120 120/123/118/123 118/121/116/121 
f 119/122/117/122 121/124/119/124 122/125/120/125 
f 119/122/117/122 122/125/120/125 120/123/118/123 
f 121/124/119/124 123/126/121/126 124/127/122/127 
f 121/124/119/124 124/127/122/127 122/125/120/125 
f 123/126/121/126 125/128/123/128 126/129/124/129 
f 123/126/121/126 126/129/124/129 124/127/122/127 
f 125/128/123/128 127/130/125/130 128/131/126/131 
f 125/128/123/128 128/131/126/131 126/129/124/129 
f 127/130/125/130 129/132/127/132 130/133/128/133 
f 127/130/125/130 130/133/128/133 128/131/126/131 
f 129/132/127/132 131/134/129/134 132/135/130/135 
f 129/132/127/132 132/135/130/135 130/133/128/133 
f 131/134/129/134 6/6/6/6 9/9/9/9 
f 131/134/129/134 9/9/9/9 132/135/130/135 
f 133/136/131/136 103/137/101/137 106/138/104/138 
f 133/136/131/136 106/138/104/138 134/139/132/139 
f 135/140/133/140 133/136/131/136 134/139/132/139 
f 135/140/133/140 134/139/132/139 136/141/134/141 
f 137/142/135/142 135/140/133/140 136/141/134/141 
f 137/142/135/142 136/141/134/141 138/143/136/143 
f 139/144/137/144 137/142/135/142 138/143/136/143 
f 139/144/137/144 138/143/136/143 140/145/138/145 
f 141/146/139/146 139/144/137/144 140/145/138/145 
f 141/146/139/146 140/145/138/145 142/147/140/147 
f 143/148/141/148 141/146/139/146 142/147/140/147 
f 143/148/141/148 142/147/140/147 144/149/142/149 
f 145/150/143/150 143/148/141/148 144/149/142/149 
f 145/150/143/150 144/149/142/149 146/151/144/151 
f 147/152/145/152 145/150/143/150 146/151/144/151 
f 147/152/145/152 146/151/144/151 148/153/146/153 
f 149/154/147/154 147/152/145/152 148/153/146/153 
f 149/154/147/154 148/153/146/153 150/155/148/155 
f 151/156/149/156 149/154/147/154 150/155/148/155 
f 151/156/149/156 150/155/148/155 152/157/150/157 
f 153/158/151/158 151/156/149/156 152/157/150/157 
f 153/158/151/158 152/157/150/157 154/159/152/159 
f 155/160/153/160 153/158/151/158 154/159/152/159 
f 155/160/153/160 154/159/152/159 156/161/154/161 
f 157/162/155/162 155/160/153/160 156/161/154/161 
f 157/162/155/162 156/161/154/161 158/163/156/163 
f 159/164/157/164 157/162/155/162 158/163/156/163 
f 159/164/157/164 158/163/156/163 160/165/158/165 
f 7/7/7/7 159/164/157/164 160/165/158/165 
f 7/7/7/7 160/165/158/165 8/8/8/8 
f 161/166/159/166 104/107/102/107 103/106/101/106 
f 161/166/159/166 103/106/101/106 162/167/160/167 
f 163/168/161/168 107/110/105/110 104/107/102/107 
f 163/168/161/168 104/107/102/107 161/166/159/166 
f 164/169/162/169 109/112/107/112 107/110/105/110 
f 164/169/162/169 107/110/105/110 163/168/161/168 
f 165/170/163/170 111/114/109/114 109/112/107/112 
f 165/170/163/170 109/112/107/112 164/169/162/169 
f 166/171/164/171 113/116/111/116 111/114/109/114 
f 166/171/164/171 111/114/109/114 165/170/163/170 
f 167/172/165/172 115/118/113/118 113/116/111/116 
f 167/172/165/172 113/116/111/116 166/171/164/171 
f 168/173/166/173 117/120/115/120 115/118/113/118 
f 168/173/166/173 115/118/113/118 167/172/165/172 
f 169/174/167/174 119/122/117/122 117/120/115/120 
f 169/174/167/174 117/120/115/120 168/173/166/173 
f 170/175/168/175 121/124/119/124 119/122/117/122 
f 170/175/168/175 119/122/117/122 169/174/167/174 
f 171/176/169/176 123/126/121/126 121/124/119/124 
f 171/176/169/176 121/124/119/124 170/175/168/175 
f 172/177/170/177 125/128/123/128 123/126/121/126 
f 172/177/170/177 123/126/121/126 171/176/169/176 
f 173/178/171/178 127/130/125/130 125/128/123/128 
f 173/178/171/178 125/128/123/128 172/177/170/177 
f 174/179/172/179 129/132/127/132 127/130/125/130 
f 174/179/172/179 127/130/125/130 173/178/171/178 
f 175/180/173/180 131/134/129/134 129/132/127/132 
f 175/180/173/180 129/132/127/132 174/179/172/179 
f 11/11/11/11 6/6/6/6 131/134/129/134 
f 11/11/11/11 131/134/129/134 175/180/173/180 
f 176/181/174/181 177/182/175/182 178/183/176/183 
f 176/181/174/181 178/183/176/183 179/184/177/184 
f 180/185/178/185 181/186/179/186 177/182/175/182 
f 180/185/178/185 177/182/175/182 176/181/174/181 
f 182/187/180/187 183/188/181/188 181/186/179/186 
f 182/187/180/187 181/186/179/186 180/185/178/185 
f 184/189/182/189 185/190/183/190 183/188/181/188 
f 184/189/182/189 183/188/181/188 182/187/180/187 
f 186/191/184/191 187/192/185/192 185/190/183/190 
f 186/191/184/191 185/190/183/190 184/189/182/189 
f 188/193/186/193 189/194/187/194 187/192/185/192 
f 188/193/186/193 187/192/185/192 186/191/184/191 
f 190/195/188/195 191/196/189/196 189/194/187/194 
f 190/195/188/195 189/194/187/194 188/193/186/193 
f 192/197/190/197 193/198/191/198 191/196/189/196 
f 192/197/190/197 191/196/189/196 190/195/188/195 
f 194/199/192/199 195/200/193/200 193/198/191/198 
f 194/199/192/199 193/198/191/198 192/197/190/197 
f 196/201/194/201 197/202/195/202 195/200/193/200 
f 196/201/194/201 195/200/193/200 194/199/192/199 
f 198/203/196/203 199/204/197/204 197/202/195/202 
f 198/203/196/203 197/202/195/202 196/201/194/201 
f 200/205/198/205 201/206/199/206 199/204/197/204 
f 200/205/198/205 199/204/197/204 198/203/196/203 
f 202/207/200/207 203/208/201/208 201/206/199/206 
f 202/207/200/207 201/206/199/206 200/205/198/205 
f 204/209/202/209 205/210/203/210 203/208/201/208 
f 204/209/202/209 203/208/201/208 202/207/200/207 
f 206/211/204/211 13/13/13/13 205/210/203/210 
f 206/211/204/211 205/210/203/210 204/209/202/209 
f 207/212/205/212 208/213/206/213 178/214/176/214 
f 207/212/205/212 178/214/176/214 209/215/207/215 
f 210/216/208/216 211/217/209/217 208/213/206/213 
f 210/216/208/216 208/213/206/213 207/212/205/212 
f 212/218/210/218 213/219/211/219 211/217/209/217 
f 212/218/210/218 211/217/209/217 210/216/208/216 
f 214/220/212/220 215/221/213/221 213/219/211/219 
f 214/220/212/220 213/219/211/219 212/218/210/218 
f 216/222/214/222 217/223/215/223 215/221/213/221 
f 216/222/214/222 215/221/213/221 214/220/212/220 
f 218/224/216/224 219/225/217/225 217/223/215/223 
f 218/224/216/224 217/223/215/223 216/222/214/222 
f 220/226/218/226 221/227/219/227 219/225/217/225 
f 220/226/218/226 219/225/217/225 218/224/216/224 
f 222/228/220/228 223/229/221/229 221/227/219/227 
f 222/228/220/228 221/227/219/227 220/226/218/226 
f 224/230/222/230 225/231/223/231 223/229/221/229 
f 224/230/222/230 223/229/221/229 222/228/220/228 
f 226/232/224/232 227/233/225/233 225/231/223/231 
f 226/232/224/232 225/231/223/231 224/230/222/230 
f 228/234/226/234 229/235/227/235 227/233/225/233 
f 228/234/226/234 227/233/225/233 226/232/224/232 
f 230/236/228/236 231/237/229/237 229/235/227/235 
f 230/236/228/236 229/235/227/235 228/234/226/234 
f 232/238/230/238 233/239/231/239 231/237/229/237 
f 232/238/230/238 231/237/229/237 230/236/228/236 
f 234/240/232/240 235/241/233/241 233/239/231/239 
f 234/240/232/240 233/239/231/239 232/238/230/238 
f 15/15/15/15 14/14/14/14 235/241/233/241 
f 15/15/15/15 235/241/233/241 234/240/232/240 
f 236/242/234/242 89/92/87/92 75/91/73/91 
f 236/242/234/242 75/91/73/91 209/243/207/243 
f 237/244/235/244 90/93/88/93 89/92/87/92 
f 237/244/235/244 89/92/87/92 236/242/234/242 
f 238/245/236/245 91/94/89/94 90/93/88/93 
f 238/245/236/245 90/93/88/93 237/244/235/244 
f 239/246/237/246 92/95/90/95 91/94/89/94 
f 239/246/237/246 91/94/89/94 238/245/236/245 
f 240/247/238/247 93/96/91/96 92/95/90/95 
f 240/247/238/247 92/95/90/95 239/246/237/246 
f 241/248/239/248 94/97/92/97 93/96/91/96 
f 241/248/239/248 93/96/91/96 240/247/238/247 
f 242/249/240/249 95/98/93/98 94/97/92/97 
f 242/249/240/249 94/97/92/97 241/248/239/248 
f 243/250/241/250 96/99/94/99 95/98/93/98 
f 243/250/241/250 95/98/93/98 242/249/240/249 
f 244/251/242/251 97/100/95/100 96/99/94/99 
f 244/251/242/251 96/99/94/99 243/250/241/250 
f 245/252/243/252 98/101/96/101 97/100/95/100 
f 245/252/243/252 97/100/95/100 244/251/242/251 
f 246/253/244/253 99/102/97/102 98/101/96/101 
f 246/253/244/253 98/101/96/101 245/252/243/252 
f 247/254/245/254 100/103/98/103 99/102/97/102 
f 247/254/245/254 99/102/97/102 246/253/244/253 
f 248/255/246/255 101/104/99/104 100/103/98/103 
f 248/255/246/255 100/103/98/103 247/254/245/254 
f 249/256/247/256 102/105/100/105 101/104/99/104 
f 249/256/247/256 101/104/99/104 248/255/246/255 
f 12/12/12/12 4/4/4/4 102/105/100/105 
f 12/12/12/12 102/105/100/105 249/256/247/256 
f 13/13/13/13 206/211/204/211 250/257/248/257 
f 13/13/13/13 250/257/248/257 14/14/14/14 
f 208/213/206/213 251/258/249/258 179/259/177/259 
f 208/213/206/213 179/259/177/259 178/214/176/214 
f 211/217/209/217 252/260/250/260 251/258/249/258 
f 211/217/209/217 251/258/249/258 208/213/206/213 
f 213/219/211/219 253/261/251/261 252/260/250/260 
f 213/219/211/219 252/260/250/260 211/217/209/217 
f 215/221/213/221 254/262/252/262 253/261/251/261 
f 215/221/213/221 253/261/251/261 213/219/211/219 
f 217/223/215/223 255/263/253/263 254/262/252/262 
f 217/223/215/223 254/262/252/262 215/221/213/221 
f 219/225/217/225 256/264/254/264 255/263/253/263 
f 219/225/217/225 255/263/253/263 217/223/215/223 
f 221/227/219/227 257/265/255/265 256/264/254/264 
f 221/227/219/227 256/264/254/264 219/225/217/225 
f 223/229/221/229 258/266/256/266 257/265/255/265 
f 223/229/221/229 257/265/255/265 221/227/219/227 
f 225/231/223/231 259/267/257/267 258/266/256/266 
f 225/231/223/231 258/266/256/266 223/229/221/229 
f 227/233/225/233 260/268/258/268 259/267/257/267 
f 227/233/225/233 259/267/257/267 225/231/223/231 
f 229/235/227/235 261/269/259/269 260/268/258/268 
f 229/235/227/235 260/268/258/268 227/233/225/233 
f 231/237/229/237 262/270/260/270 261/269/259/269 
f 231/237/229/237 261/269/259/269 229/235/227/235 
f 233/239/231/239 263/271/261/271 262/270/260/270 
f 233/239/231/239 262/270/260/270 231/237/229/237 
f 235/241/233/241 264/272/262/272 263/271/261/271 
f 235/241/233/241 263/271/261/271 233/239/231/239 
f 14/14/14/14 250/257/248/257 264/272/262/272 
f 14/14/14/14 264/272/262/272 235/241/233/241 
f 265/273/263/273 176/181/174/181 179/184/177/184 
f 265/273/263/273 179/184/177/184 266/274/264/274 
f 267/275/265/275 180/185/178/185 176/181/174/181 
f 267/275/265/275 176/181/174/181 265/273/263/273 
f 268/276/266/276 182/187/180/187 180/185/178/185 
f 268/276/266/276 180/185/178/185 267/275/265/275 
f 269/277/267/277 184/189/182/189 182/187/180/187 
f 269/277/267/277 182/187/180/187 268/276/266/276 
f 270/278/268/278 186/191/184/191 184/189/182/189 
f 270/278/268/278 184/189/182/189 269/277/267/277 
f 271/279/269/279 188/193/186/193 186/191/184/191 
f 271/279/269/279 186/191/184/191 270/278/268/278 
f 272/280/270/280 190/195/188/195 188/193/186/193 
f 272/280/270/280 188/193/186/193 271/279/269/279 
f 273/281/271/281 192/197/190/197 190/195/188/195 
f 273/281/271/281 190/195/188/195 272/280/270/280 
f 274/282/272/282 194/199/192/199 192/197/190/197 
f 274/282/272/282 192/197/190/197 273/281/271/281 
f 275/283/273/283 196/201/194/201 194/199/192/199 
f 275/283/273/283 194/199/192/199 274/282/272/282 
f 276/284/274/284 198/203/196/203 196/201/194/201 
f 276/284/274/284 196/201/194/201 275/283/273/283 
f 277/285/275/285 200/205/198/205 198/203/196/203 
f 277/285/275/285 198/203/196/203 276/284/274/284 
f 278/286/276/286 202/207/200/207 200/205/198/205 
f 278/286/276/286 200/205/198/205 277/285/275/285 
f 279/287/277/287 204/209/202/209 202/207/200/207 
f 279/287/277/287 202/207/200/207 278/286/276/286 
f 280/288/278/288 206/211/204/211 204/209/202/209 
f 280/288/278/288 204/209/202/209 279/287/277/287 
f 280/288/278/289 10/10/10/290 11/11/11/291 
f 280/288/278/289 11/11/11/291 281/289/279/292 
f 282/290/280/293 161/166/159/294 162/167/160/295 
f 282/290/280/293 162/167/160/295 266/291/264/296 
f 283/292/281/297 163/168/161/298 161/166/159/294 
f 283/292/281/297 161/166/159/294 282/290/280/293 
f 284/293/282/299 164/169/162/300 163/168/161/298 
f 284/293/282/299 163/168/161/298 283/292/281/297 
f 285/294/283/301 165/170/163/302 164/169/162/300 
f 285/294/283/301 164/169/162/300 284/293/282/299 
f 286/295/284/303 166/171/164/304 165/170/163/302 
f 286/295/284/303 165/170/163/302 285/294/283/301 
f 287/296/285/305 167/172/165/306 166/171/164/304 
f 287/296/285/305 166/171/164/304 286/295/284/303 
f 288/297/286/307 168/173/166/308 167/172/165/306 
f 288/297/286/307 167/172/165/306 287/296/285/305 
f 289/298/287/309 169/174/167/310 168/173/166/308 
f 289/298/287/309 168/173/166/308 288/297/286/307 
f 290/299/288/311 170/175/168/312 169/174/167/310 
f 290/299/288/311 169/174/167/310 289/298/287/309 
f 291/300/289/313 171/176/169/314 170/175/168/312 
f 291/300/289/313 170/175/168/312 290/299/288/311 
f 292/301/290/315 172/177/170/316 171/176/169/314 
f 292/301/290/315 171/176/169/314 291/300/289/313 
f 293/302/291/317 173/178/171/318 172/177/170/316 
f 293/302/291/317 172/177/170/316 292/301/290/315 
f 294/303/292/319 174/179/172/320 173/178/171/318 
f 294/303/292/319 173/178/171/318 293/302/291/317 
f 295/304/293/321 175/180/173/322 174/179/172/320 
f 295/304/293/321 174/179/172/320 294/303/292/319 
f 281/289/279/292 11/11/11/291 175/180/173/322 
f 281/289/279/292 175/180/173/322 295/304/293/321 
f 133/136/131/136 296/305/294/323 162/306/160/324 
f 133/136/131/136 162/306/160/324 103/137/101/137 
f 135/140/133/140 297/307/295/325 296/305/294/323 
f 135/140/133/140 296/305/294/323 133/136/131/136 
f 137/142/135/142 298/308/296/326 297/307/295/325 
f 137/142/135/142 297/307/295/325 135/140/133/140 
f 139/144/137/144 299/309/297/327 298/308/296/326 
f 139/144/137/144 298/308/296/326 137/142/135/142 
f 141/146/139/146 300/310/298/328 299/309/297/327 
f 141/146/139/146 299/309/297/327 139/144/137/144 
f 143/148/141/148 301/311/299/329 300/310/298/328 
f 143/148/141/148 300/310/298/328 141/146/139/146 
f 145/150/143/150 302/312/300/330 301/311/299/329 
f 145/150/143/150 301/311/299/329 143/148/141/148 
f 147/152/145/152 303/313/301/331 302/312/300/330 
f 147/152/145/152 302/312/300/330 145/150/143/150 
f 149/154/147/154 304/314/302/332 303/313/301/331 
f 149/154/147/154 303/313/301/331 147/152/145/152 
f 151/156/149/156 305/315/303/333 304/314/302/332 
f 151/156/149/156 304/314/302/332 149/154/147/154 
f 153/158/151/158 306/316/304/334 305/315/303/333 
f 153/158/151/158 305/315/303/333 151/156/149/156 
f 155/160/153/160 307/317/305/335 306/316/304/334 
f 155/160/153/160 306/316/304/334 153/158/151/158 
f 157/162/155/162 308/318/306/336 307/317/305/335 
f 157/162/155/162 307/317/305/335 155/160/153/160 
f 159/164/157/164 309/319/307/337 308/318/306/336 
f 159/164/157/164 308/318/306/336 157/162/155/162 
f 7/7/7/7 10/10/10/10 309/319/307/337 
f 7/7/7/7 309/319/307/337 159/164/157/164 
f 296/305/294/338 265/273/263/339 266/274/264/340 
f 296/305/294/338 266/274/264/340 162/306/160/341 
f 297/307/295/342 267/275/265/343 265/273/263/339 
f 297/307/295/342 265/273/263/339 296/305/294/338 
f 298/308/296/344 268/276/266/345 267/275/265/343 
f 298/308/296/344 267/275/265/343 297/307/295/342 
f 299/309/297/346 269/277/267/347 268/276/266/345 
f 299/309/297/346 268/276/266/345 298/308/296/344 
f 300/310/298/348 270/278/268/349 269/277/267/347 
f 300/310/298/348 269/277/267/347 299/309/297/346 
f 301/311/299/350 271/279/269/351 270/278/268/349 
f 301/311/299/350 270/278/268/349 300/310/298/348 
f 302/312/300/352 272/280/270/353 271/279/269/351 
f 302/312/300/352 271/279/269/351 301/311/299/350 
f 303/313/301/354 273/281/271/355 272/280/270/353 
f 303/313/301/354 272/280/270/353 302/312/300/352 
f 304/314/302/356 274/282/272/357 273/281/271/355 
f 304/314/302/356 273/281/271/355 303/313/301/354 
f 305/315/303/358 275/283/273/359 274/282/272/357 
f 305/315/303/358 274/282/272/357 304/314/302/356 
f 306/316/304/360 276/284/274/361 275/283/273/359 
f 306/316/304/360 275/283/273/359 305/315/303/358 
f 307/317/305/362 277/285/275/363 276/284/274/361 
f 307/317/305/362 276/284/274/361 306/316/304/360 
f 308/318/306/364 278/286/276/365 277/285/275/363 
f 308/318/306/364 277/285/275/363 307/317/305/362 
f 309/319/307/366 279/287/277/367 278/286/276/365 
f 309/319/307/366 278/286/276/365 308/318/306/364 
f 10/10/10/290 280/288/278/289 279/287/277/367 
f 10/10/10/290 279/287/277/367 309/319/307/366 
f 206/211/204/211 280/288/278/288 281/289/279/368 
f 206/211/204/211 281/289/279/368 250/257/248/257 
f 251/258/249/258 282/290/280/369 266/291/264/370 
f 251/258/249/258 266/291/264/370 179/259/177/259 
f 252/260/250/260 283/292/281/371 282/290/280/369 
f 252/260/250/260 282/290/280/369 251/258/249/258 
f 253/261/251/261 284/293/282/372 283/292/281/371 
f 253/261/251/261 283/292/281/371 252/260/250/260 
f 254/262/252/262 285/294/283/373 284/293/282/372 
f 254/262/252/262 284/293/282/372 253/261/251/261 
f 255/263/253/263 286/295/284/374 285/294/283/373 
f 255/263/253/263 285/294/283/373 254/262/252/262 
f 256/264/254/264 287/296/285/375 286/295/284/374 
f 256/264/254/264 286/295/284/374 255/263/253/263 
f 257/265/255/265 288/297/286/376 287/296/285/375 
f 257/265/255/265 287/296/285/375 256/264/254/264 
f 258/266/256/266 289/298/287/377 288/297/286/376 
f 258/266/256/266 288/297/286/376 257/265/255/265 
f 259/267/257/267 290/299/288/378 289/298/287/377 
f 259/267/257/267 289/298/287/377 258/266/256/266 
f 260/268/258/268 291/300/289/379 290/299/288/378 
f 260/268/258/268 290/299/288/378 259/267/257/267 
f 261/269/259/269 292/301/290/380 291/300/289/379 
f 261/269/259/269 291/300/289/379 260/268/258/268 
f 262/270/260/270 293/302/291/381 292/301/290/380 
f 262/270/260/270 292/301/290/380 261/269/259/269 
f 263/271/261/271 294/303/292/382 293/302/291/381 
f 263/271/261/271 293/302/291/381 262/270/260/270 
f 264/272/262/272 295/304/293/383 294/303/292/382 
f 264/272/262/272 294/303/292/382 263/271/261/271 
f 250/257/248/257 281/289/279/368 295/304/293/383 
f 250/257/248/257 295/304/293/383 264/272/262/272 
f 4/4/4/4 12/12/12/12 15/15/15/15 
f 4/4/4/4 15/15/15/15 5/5/5/5 
f 74/76/72/76 207/212/205/212 209/215/207/215 
f 74/76/72/76 209/215/207/215 75/77/73/77 
f 76/78/74/78 210/216/208/216 207/212/205/212 
f 76/78/74/78 207/212/205/212 74/76/72/76 
f 77/79/75/79 212/218/210/218 210/216/208/216 
f 77/79/75/79 210/216/208/216 76/78/74/78 
f 78/80/76/80 214/220/212/220 212/218/210/218 
f 78/80/76/80 212/218/210/218 77/79/75/79 
f 79/81/77/81 216/222/214/222 214/220/212/220 
f 79/81/77/81 214/220/212/220 78/80/76/80 
f 80/82/78/82 218/224/216/224 216/222/214/222 
f 80/82/78/82 216/222/214/222 79/81/77/81 
f 81/83/79/83 220/226/218/226 218/224/216/224 
f 81/83/79/83 218/224/216/224 80/82/78/82 
f 82/84/80/84 222/228/220/228 220/226/218/226 
f 82/84/80/84 220/226/218/226 81/83/79/83 
f 83/85/81/85 224/230/222/230 222/228/220/228 
f 83/85/81/85 222/228/220/228 82/84/80/84 
f 84/86/82/86 226/232/224/232 224/230/222/230 
f 84/86/82/86 224/230/222/230 83/85/81/85 
f 85/87/83/87 228/234/226/234 226/232/224/232 
f 85/87/83/87 226/232/224/232 84/86/82/86 
f 86/88/84/88 230/236/228/236 228/234/226/234 
f 86/88/84/88 228/234/226/234 85/87/83/87 
f 87/89/85/89 232/238/230/238 230/236/228/236 
f 87/89/85/89 230/236/228/236 86/88/84/88 
f 88/90/86/90 234/240/232/240 232/238/230/238 
f 88/90/86/90 232/238/230/238 87/89/85/89 
f 5/5/5/5 15/15/15/15 234/240/232/240 
f 5/5/5/5 234/240/232/240 88/90/86/90 
f 177/182/175/182 236/242/234/242 209/243/207/243 
f 177/182/175/182 209/243/207/243 178/183/176/183 
f 181/186/179/186 237/244/235/244 236/242/234/242 
f 181/186/179/186 236/242/234/242 177/182/175/182 
f 183/188/181/188 238/245/236/245 237/244/235/244 
f 183/188/181/188 237/244/235/244 181/186/179/186 
f 185/190/183/190 239/246/237/246 238/245/236/245 
f 185/190/183/190 238/245/236/245 183/188/181/188 
f 187/192/185/192 240/247/238/247 239/246/237/246 
f 187/192/185/192 239/246/237/246 185/190/183/190 
f 189/194/187/194 241/248/239/248 240/247/238/247 
f 189/194/187/194 240/247/238/247 187/192/185/192 
f 191/196/189/196 242/249/240/249 241/248/239/248 
f 191/196/189/196 241/248/239/248 189/194/187/194 
f 193/198/191/198 243/250/241/250 242/249/240/249 
f 193/198/191/198 242/249/240/249 191/196/189/196 
f 195/200/193/200 244/251/242/251 243/250/241/250 
f 195/200/193/200 243/250/241/250 193/198/191/198 
f 197/202/195/202 245/252/243/252 244/251/242/251 
f 197/202/195/202 244/251/242/251 195/200/193/200 
f 199/204/197/204 246/253/244/253 245/252/243/252 
f 199/204/197/204 245/252/243/252 197/202/195/202 
f 201/206/199/206 247/254/245/254 246/253/244/253 
f 201/206/199/206 246/253/244/253 199/204/197/204 
f 203/208/201/208 248/255/246/255 247/254/245/254 
f 203/208/201/208 247/254/245/254 201/206/199/206 
f 205/210/203/210 249/256/247/256 248/255/246/255 
f 205/210/203/210 248/255/246/255 203/208/201/208 
f 13/13/13/13 12/12/12/12 249/256/247/256 
f 13/13/13/13 249/256/247/256 205/210/203/210 
