v 513.3057 134.776 -219.7005
v 489.1982 214.133 -219.7005
v 485.7264 213.0783 -219.7005
v 509.8339 133.7213 -219.7005
gi 0 0 0 0
gw 0.0 0.0 0.0 0.0
gi 0 0 0 0
gw 0.0 0.0 0.0 0.0
gi 0 0 0 0
gw 0.0 0.0 0.0 0.0
gi 0 0 0 0
gw 0.0 0.0 0.0 0.0
vt 0.677 0.0
vt 0.677 3.0982
vt 0.1467 3.0982
vt 0.1467 0.0
vn 0.0 -0.0 1.0
vn 0.0 -0.0 1.0
vn 0.0 -0.0 1.0
vn 0.0 -0.0 1.0
vtan 0.9568 0.2907 0.0 1.0
vtan 0.9568 0.2907 -0.0 1.0
vtan 0.9568 0.2907 -0.0 1.0
vtan 0.9568 0.2907 0.0 1.0
f 0/0/0/0 1/1/1/1 2/2/2/2 
f 0/0/0/0 2/2/2/2 3/3/3/3 
