v -203.5728 283.722 208.4534
v -202.5159 285.9886 208.1184
v -204.6519 287.1735 208.757
v -205.7812 284.7518 209.1151
v -201.5298 288.1034 207.1581
v -203.5983 289.4329 207.731
v -200.6852 289.9145 205.6174
v -202.696 291.368 206.0851
v -200.0341 291.3107 203.6191
v -202.0004 292.8597 203.95
v -199.6283 292.181 201.2859
v -201.5668 293.7896 201.457
v -199.4867 292.4846 198.7852
v -201.4155 294.114 198.7852
v -199.6284 292.181 196.2843
v -201.5668 293.7896 196.1133
v -200.0342 291.3107 193.9509
v -202.0004 292.8597 193.6201
v -200.6853 289.9144 191.9525
v -202.696 291.3679 191.485
v -201.5298 288.1033 190.412
v -203.5984 289.4329 189.8391
v -202.5159 285.9886 189.4518
v -204.6519 287.1735 188.8131
v -203.5728 283.7221 189.1167
v -205.7811 284.7519 188.4551
v -204.6297 281.4556 189.4518
v -206.9103 282.3303 188.8131
v -205.6158 279.3409 190.412
v -207.9639 280.0709 189.8391
v -206.4603 277.5298 191.9525
v -208.8662 278.1359 191.4852
v -207.1114 276.1336 193.9509
v -209.5618 276.6441 193.6201
v -207.5172 275.2633 196.2841
v -209.9954 275.7143 196.1131
v -207.6588 274.9596 198.7849
v -210.1467 275.3898 198.7849
v -207.5172 275.2633 201.2859
v -209.9954 275.7143 201.457
v -207.1114 276.1336 203.6193
v -209.5618 276.6442 203.9501
v -206.4603 277.5298 205.6176
v -208.8662 278.1359 206.0851
v -205.6158 279.3409 207.1581
v -207.9639 280.0709 207.731
v -204.6297 281.4555 208.1183
v -206.9104 282.3302 208.757
v -199.1864 284.6925 203.5192
v -199.744 283.4969 204.062
v -198.9457 282.9898 203.606
v -198.4363 284.0821 203.11
v -198.6362 282.5711 202.6777
v -198.225 283.4531 202.2773
v -199.0771 281.6258 202.8176
v -199.4916 281.8191 203.7791
v -198.3409 286.506 201.5183
v -198.709 285.7165 202.6481
v -198.0001 285.0175 202.3142
v -197.6638 285.7388 201.282
v -197.8727 284.2084 201.6346
v -197.6012 284.7907 200.8013
v -198.0313 287.1697 198.785
v -198.1114 286.998 200.1991
v -197.4542 286.1883 200.0768
v -197.381 286.3451 198.785
v -197.4319 285.1537 199.8281
v -197.3729 285.2804 198.785
v -198.3409 286.506 196.0518
v -198.1114 286.998 197.3711
v -197.4542 286.1883 197.4933
v -197.6638 285.7388 196.2881
v -197.4319 285.1537 197.7419
v -197.6012 284.7907 196.7688
v -199.1864 284.6925 194.0509
v -198.709 285.7165 194.922
v -198.0001 285.0175 195.256
v -198.4363 284.0821 194.4601
v -197.8727 284.2084 195.9354
v -198.225 283.4531 195.2928
v -200.3416 282.2154 193.3186
v -199.744 283.4969 193.5081
v -198.9457 282.9898 193.9641
v -199.4916 281.8191 193.791
v -198.6362 282.5711 194.8923
v -199.0771 281.6258 194.7526
v -201.4967 279.7383 194.0509
v -200.9391 280.9339 193.5081
v -200.0375 280.6483 193.9641
v -200.5469 279.556 194.4601
v -199.5179 280.6805 194.8923
v -199.9291 279.7985 195.2928
v -202.3423 277.9249 196.0518
v -201.9742 278.7143 194.922
v -200.9831 278.6206 195.256
v -201.3194 277.8994 196.2881
v -200.2814 279.0431 195.9354
v -200.5529 278.4608 196.7688
v -202.6518 277.2611 198.785
v -202.5717 277.4328 197.3711
v -201.529 277.4498 197.4933
v -201.6021 277.293 198.785
v -200.7222 278.0978 197.7419
v -200.7812 277.9711 198.785
v -202.3423 277.9249 201.5183
v -202.5717 277.4328 200.1991
v -201.529 277.4498 200.0768
v -201.3194 277.8994 201.282
v -200.7222 278.0978 199.8281
v -200.5529 278.4608 200.8013
v -201.4967 279.7383 203.5192
v -201.9742 278.7143 202.6481
v -200.9831 278.6205 202.3142
v -200.5469 279.556 203.11
v -200.2814 279.0431 201.6346
v -199.9291 279.7985 202.2773
v -200.3416 282.2154 204.2515
v -200.9391 280.9339 204.062
v -200.0375 280.6483 203.606
v -199.5179 280.6804 202.6777
v -201.4598 284.4237 204.4905
v -200.857 285.7164 203.9034
v -202.1059 283.0381 204.6953
v -200.3408 286.8235 202.9617
v -199.9428 287.677 201.7401
v -199.6947 288.209 200.3138
v -199.6081 288.3947 198.785
v -199.6947 288.209 197.2562
v -199.9428 287.677 195.83
v -200.3408 286.8235 194.6084
v -200.857 285.7164 193.6666
v -201.4598 284.4237 193.0797
v -202.1059 283.0381 192.8748
v -202.752 281.6526 193.0797
v -203.3548 280.3599 193.6666
v -203.8711 279.2528 194.6084
v -204.2691 278.3993 195.83
v -204.5172 277.8672 197.2562
v -204.6037 277.6816 198.785
v -204.5172 277.8672 200.3138
v -204.2691 278.3993 201.7401
v -203.8711 279.2528 202.9617
v -203.3548 280.3599 203.9034
v -202.752 281.6526 204.4905
v -201.199 287.1083 205.8382
v -202.0297 285.3269 206.647
v -201.9196 284.8098 205.0714
v -201.2555 286.2341 204.4247
v -202.92 283.4177 206.9292
v -202.6315 283.2832 205.297
v -203.8103 281.5085 206.647
v -203.3433 281.7566 205.0714
v -204.6409 279.7271 205.8382
v -204.0075 280.3323 204.4247
v -205.3523 278.2016 204.5405
v -204.5763 279.1125 203.387
v -205.9007 277.0255 202.8572
v -205.0148 278.1721 202.041
v -206.2426 276.2924 200.8916
v -205.2882 277.5859 200.4695
v -206.3618 276.0366 198.785
v -205.3835 277.3814 198.785
v -206.2426 276.2924 196.6783
v -205.2882 277.5859 197.1006
v -205.9007 277.0255 194.713
v -205.0148 278.1721 195.5291
v -205.3523 278.2016 193.0297
v -204.5763 279.1125 194.1832
v -204.6409 279.7271 191.7319
v -204.0075 280.3323 193.1455
v -203.8102 281.5085 190.9231
v -203.3433 281.7566 192.4988
v -202.92 283.4177 190.6409
v -202.6315 283.2832 192.2731
v -202.0297 285.3269 190.9231
v -201.9196 284.8098 192.4988
v -201.199 287.1082 191.7319
v -201.2555 286.2341 193.1455
v -200.4876 288.6338 193.0297
v -200.6867 287.4539 194.1832
v -199.9392 289.81 194.713
v -200.2481 288.3943 195.5291
v -199.5973 290.5431 196.6785
v -199.9748 288.9805 197.1007
v -199.4781 290.7989 198.785
v -199.8794 289.185 198.785
v -199.5973 290.5431 200.8916
v -199.9748 288.9805 200.4695
v -199.9392 289.81 202.8571
v -200.2481 288.3943 202.041
v -200.4876 288.6339 204.5405
v -200.6866 287.4539 203.3868
v -201.0426 282.5423 202.2917
v -200.6592 283.3643 202.1702
v -200.3016 284.1313 201.8219
v -199.9953 284.7882 201.2632
v -199.7592 285.2946 200.5383
v -199.612 285.6103 199.6921
v -199.5606 285.7204 198.785
v -199.612 285.6103 197.8779
v -199.7592 285.2946 197.0317
v -199.9953 284.7882 196.3069
v -200.3016 284.1313 195.7482
v -200.6593 283.3643 195.3999
v -201.0426 282.5423 195.2784
v -201.4259 281.7202 195.3999
v -201.7836 280.9532 195.7482
v -202.0899 280.2964 196.3069
v -202.326 279.79 197.0317
v -202.4732 279.4743 197.8779
v -202.5246 279.3642 198.785
v -202.4732 279.4743 199.6921
v -202.326 279.79 200.5383
v -202.0899 280.2964 201.2632
v -201.7836 280.9532 201.8219
v -201.4259 281.7202 202.1702
v -201.2695 282.6481 198.785
v -202.4005 285.8476 207.8234
v -201.4455 287.8956 206.8934
v -204.4475 281.4578 207.8234
v -203.424 283.6527 208.1478
v -206.2202 277.6562 205.4016
v -205.4024 279.4099 206.8936
v -207.2437 275.4612 201.2068
v -206.8507 276.304 203.4666
v -207.2437 275.4612 196.3633
v -207.3809 275.1671 198.7849
v -206.2202 277.6561 192.1685
v -206.8508 276.304 194.1037
v -204.4475 281.4578 189.7467
v -205.4024 279.41 190.6767
v -202.4005 285.8476 189.7467
v -203.424 283.6527 189.4222
v -200.6277 289.6493 192.1685
v -201.4456 287.8955 190.6765
v -199.6042 291.8443 196.3633
v -199.9972 291.0015 194.1037
v -199.6042 291.8443 201.2069
v -199.4671 292.1384 198.7852
v -200.6277 289.6494 205.4016
v -199.9972 291.0016 203.4664
vt 0.6539 0.6437
vt 0.6431 0.7239
vt 0.6636 0.7293
vt 0.6751 0.6437
vt 0.6123 0.7987
vt 0.6307 0.8093
vt 0.5629 0.8628
vt 0.5779 0.8778
vt 0.4988 0.9122
vt 0.5095 0.9306
vt 0.424 0.943
vt 0.4295 0.9635
vt 0.3438 0.9537
vt 0.3438 0.9749
vt 0.2636 0.943
vt 0.2581 0.9635
vt 0.1888 0.9122
vt 0.1782 0.9306
vt 0.1247 0.8628
vt 0.1097 0.8778
vt 0.0753 0.7987
vt 0.0569 0.8093
vt 0.0445 0.7239
vt 0.024 0.7293
vt 0.0337 0.6437
vt 0.0125 0.6437
vt 0.0445 0.5635
vt 0.024 0.558
vt 0.0753 0.4886
vt 0.0569 0.478
vt 0.1247 0.4245
vt 0.1097 0.4095
vt 0.1888 0.3751
vt 0.1782 0.3568
vt 0.2636 0.3443
vt 0.2581 0.3239
vt 0.3438 0.3336
vt 0.3438 0.3124
vt 0.424 0.3443
vt 0.4295 0.3239
vt 0.4989 0.3751
vt 0.5095 0.3568
vt 0.5629 0.4245
vt 0.5779 0.4095
vt 0.6123 0.4886
vt 0.6307 0.478
vt 0.6431 0.5635
vt 0.6636 0.558
vt 0.4956 0.7313
vt 0.5131 0.689
vt 0.4984 0.6851
vt 0.4825 0.7237
vt 0.4687 0.6771
vt 0.4558 0.7083
vt 0.4731 0.6437
vt 0.504 0.6437
vt 0.4315 0.7955
vt 0.4677 0.7675
vt 0.457 0.7568
vt 0.4239 0.7824
vt 0.4352 0.735
vt 0.4085 0.7557
vt 0.3438 0.819
vt 0.3892 0.8129
vt 0.3852 0.7983
vt 0.3438 0.8038
vt 0.3773 0.7685
vt 0.3438 0.773
vt 0.2562 0.7955
vt 0.2985 0.8129
vt 0.3024 0.7983
vt 0.2637 0.7824
vt 0.3104 0.7685
vt 0.2792 0.7557
vt 0.192 0.7313
vt 0.2199 0.7675
vt 0.2306 0.7568
vt 0.2051 0.7237
vt 0.2524 0.735
vt 0.2318 0.7083
vt 0.1685 0.6437
vt 0.1746 0.689
vt 0.1892 0.6851
vt 0.1837 0.6437
vt 0.219 0.6771
vt 0.2145 0.6437
vt 0.192 0.556
vt 0.1746 0.5983
vt 0.1892 0.6022
vt 0.2051 0.5636
vt 0.219 0.6102
vt 0.2318 0.579
vt 0.2562 0.4918
vt 0.2199 0.5198
vt 0.2306 0.5305
vt 0.2637 0.505
vt 0.2524 0.5523
vt 0.2792 0.5317
vt 0.3438 0.4683
vt 0.2985 0.4744
vt 0.3024 0.489
vt 0.3438 0.4835
vt 0.3104 0.5188
vt 0.3438 0.5143
vt 0.4315 0.4918
vt 0.3892 0.4744
vt 0.3852 0.489
vt 0.4239 0.505
vt 0.3773 0.5188
vt 0.4085 0.5317
vt 0.4956 0.556
vt 0.4677 0.5198
vt 0.457 0.5305
vt 0.4825 0.5636
vt 0.4352 0.5523
vt 0.4558 0.579
vt 0.5191 0.6437
vt 0.5131 0.5983
vt 0.4984 0.6022
vt 0.4687 0.6102
vt 0.5268 0.6927
vt 0.508 0.7384
vt 0.5334 0.6437
vt 0.4778 0.7776
vt 0.4386 0.8078
vt 0.3928 0.8266
vt 0.3438 0.8332
vt 0.2948 0.8266
vt 0.249 0.8078
vt 0.2099 0.7776
vt 0.1797 0.7384
vt 0.1608 0.6927
vt 0.1543 0.6437
vt 0.1608 0.5946
vt 0.1797 0.5489
vt 0.2099 0.5097
vt 0.249 0.4795
vt 0.2948 0.4607
vt 0.3438 0.4541
vt 0.3928 0.4607
vt 0.4386 0.4795
vt 0.4778 0.5097
vt 0.508 0.5489
vt 0.5268 0.5946
vt 0.57 0.7743
vt 0.596 0.7112
vt 0.5454 0.6977
vt 0.5247 0.7481
vt 0.605 0.6437
vt 0.5527 0.6437
vt 0.596 0.5761
vt 0.5454 0.5896
vt 0.57 0.5131
vt 0.5247 0.5392
vt 0.5284 0.4591
vt 0.4914 0.4961
vt 0.4744 0.4175
vt 0.4482 0.4628
vt 0.4114 0.3915
vt 0.3978 0.4421
vt 0.3438 0.3825
vt 0.3438 0.4348
vt 0.2763 0.3915
vt 0.2898 0.4421
vt 0.2132 0.4175
vt 0.2394 0.4628
vt 0.1592 0.4591
vt 0.1962 0.4961
vt 0.1176 0.5131
vt 0.163 0.5392
vt 0.0917 0.5761
vt 0.1422 0.5896
vt 0.0826 0.6437
vt 0.135 0.6437
vt 0.0917 0.7112
vt 0.1422 0.6977
vt 0.1176 0.7743
vt 0.163 0.7481
vt 0.1592 0.8282
vt 0.1962 0.7912
vt 0.2132 0.8699
vt 0.2394 0.8245
vt 0.2763 0.8958
vt 0.2898 0.8453
vt 0.3438 0.9048
vt 0.3438 0.8525
vt 0.4114 0.8958
vt 0.3978 0.8453
vt 0.4744 0.8699
vt 0.4482 0.8245
vt 0.5284 0.8282
vt 0.4914 0.7912
vt 0.4563 0.6437
vt 0.4524 0.6727
vt 0.4412 0.6999
vt 0.4233 0.7231
vt 0.4 0.7411
vt 0.3729 0.7522
vt 0.3438 0.7561
vt 0.3147 0.7522
vt 0.2876 0.7411
vt 0.2643 0.7231
vt 0.2464 0.6999
vt 0.2353 0.6727
vt 0.2314 0.6437
vt 0.2353 0.6146
vt 0.2464 0.5874
vt 0.2643 0.5642
vt 0.2876 0.5463
vt 0.3147 0.5351
vt 0.3438 0.5312
vt 0.3729 0.5351
vt 0.4 0.5463
vt 0.4233 0.5642
vt 0.4412 0.5874
vt 0.4524 0.6146
vt 0.3438 0.6437
vt 0.6337 0.7213
vt 0.6039 0.7938
vt 0.6441 0.6437
vt 0.6337 0.566
vt 0.556 0.4315
vt 0.6039 0.4935
vt 0.4215 0.3538
vt 0.494 0.3836
vt 0.2661 0.3538
vt 0.3438 0.3434
vt 0.1316 0.4315
vt 0.1937 0.3836
vt 0.0539 0.566
vt 0.0838 0.4935
vt 0.0539 0.7213
vt 0.0435 0.6437
vt 0.1316 0.8559
vt 0.0838 0.7938
vt 0.2661 0.9335
vt 0.1937 0.9037
vt 0.4215 0.9335
vt 0.3438 0.9439
vt 0.556 0.8559
vt 0.4939 0.9037
vn 0.5495 -0.2563 0.7952
vn 0.6368 -0.0699 0.7679
vn 0.3429 0.1157 0.9322
vn 0.2375 -0.1107 0.9651
vn 0.7175 0.1042 0.6887
vn 0.4414 0.3266 0.8358
vn 0.7874 0.253 0.5621
vn 0.5258 0.5078 0.6824
vn 0.8406 0.3679 0.3976
vn 0.5907 0.6467 0.4825
vn 0.8744 0.4395 0.2057
vn 0.6313 0.7342 0.2498
vn 0.8856 0.4644 0.0
vn 0.6453 0.7639 0.0
vn 0.8743 0.4396 -0.2058
vn 0.6313 0.7342 -0.2498
vn 0.8405 0.368 -0.3976
vn 0.5907 0.6467 -0.4825
vn 0.7874 0.2531 -0.5622
vn 0.5257 0.5078 -0.6824
vn 0.7175 0.1041 -0.6887
vn 0.4414 0.3266 -0.8358
vn 0.6368 -0.0699 -0.7679
vn 0.3429 0.1157 -0.9322
vn 0.5495 -0.2562 -0.7952
vn 0.2375 -0.1107 -0.9651
vn 0.4629 -0.4429 -0.7679
vn 0.1318 -0.3371 -0.9322
vn 0.3814 -0.6166 -0.6887
vn 0.0335 -0.5481 -0.8358
vn 0.3122 -0.7659 -0.5621
vn -0.0511 -0.7291 -0.6825
vn 0.2584 -0.8804 -0.3976
vn -0.1158 -0.8682 -0.4825
vn 0.2252 -0.9523 -0.2058
vn -0.1566 -0.9555 -0.2498
vn 0.2134 -0.977 0.0
vn -0.1704 -0.9854 -0.0
vn 0.2252 -0.9523 0.2058
vn -0.1566 -0.9555 0.2498
vn 0.2583 -0.8804 0.3977
vn -0.1158 -0.8682 0.4825
vn 0.3123 -0.7658 0.5621
vn -0.0511 -0.7292 0.6824
vn 0.3813 -0.6166 0.6888
vn 0.0335 -0.5481 0.8358
vn 0.4629 -0.4429 0.7679
vn 0.1318 -0.3371 0.9322
vn 0.503 0.2852 0.8159
vn 0.4069 0.0793 0.91
vn 0.714 -0.1296 0.688
vn 0.7865 0.0263 0.617
vn 0.799 -0.4798 -0.3626
vn 0.7618 -0.5613 -0.3234
vn 0.8407 -0.3921 -0.3734
vn 0.6359 -0.2965 0.7126
vn 0.6487 0.5977 0.471
vn 0.5854 0.4621 0.6662
vn 0.849 0.1598 0.5036
vn 0.8967 0.2628 0.3563
vn 0.7278 -0.6323 -0.2654
vn 0.7041 -0.6851 -0.1867
vn 0.7021 0.7121 0.0
vn 0.6885 0.683 0.2439
vn 0.9269 0.3269 0.1844
vn 0.937 0.3492 -0.0
vn 0.6868 -0.7203 -0.0972
vn 0.683 -0.7305 0.0
vn 0.6487 0.5977 -0.4711
vn 0.6885 0.683 -0.2438
vn 0.9269 0.3269 -0.1844
vn 0.8967 0.2628 -0.3563
vn 0.6868 -0.7203 0.0972
vn 0.7041 -0.6851 0.1867
vn 0.503 0.2852 -0.8159
vn 0.5854 0.4621 -0.6662
vn 0.849 0.1598 -0.5036
vn 0.7865 0.0264 -0.6171
vn 0.7279 -0.6323 0.2654
vn 0.7619 -0.5613 0.3234
vn 0.3039 -0.1417 -0.9421
vn 0.4069 0.0793 -0.91
vn 0.714 -0.1296 -0.688
vn 0.6359 -0.2965 -0.7126
vn 0.799 -0.4798 0.3625
vn 0.8407 -0.3921 0.3734
vn 0.1049 -0.5686 -0.8159
vn 0.2008 -0.3627 -0.91
vn 0.5582 -0.4637 -0.688
vn 0.4853 -0.6194 -0.6171
vn 0.8811 -0.3036 0.3626
vn 0.9197 -0.2229 0.3233
vn -0.0408 -0.8812 -0.471
vn 0.0224 -0.7455 -0.6662
vn 0.4233 -0.7531 -0.5036
vn 0.3751 -0.8558 -0.3563
vn 0.9522 -0.1511 0.2654
vn 0.9774 -0.099 0.1867
vn -0.0942 -0.9956 -0.0
vn -0.0807 -0.9664 -0.2439
vn 0.3454 -0.9202 -0.1844
vn 0.3348 -0.9423 0.0
vn 0.9933 -0.0631 0.0972
vn 0.9986 -0.0537 -0.0
vn -0.0409 -0.8812 0.471
vn -0.0807 -0.9665 0.2438
vn 0.3454 -0.9202 0.1844
vn 0.3751 -0.8558 0.3563
vn 0.9933 -0.063 -0.0972
vn 0.9774 -0.099 -0.1867
vn 0.1048 -0.5686 0.8159
vn 0.0223 -0.7455 0.6662
vn 0.4233 -0.7531 0.5036
vn 0.4853 -0.6194 0.6171
vn 0.9522 -0.1511 -0.2655
vn 0.9196 -0.2228 -0.3234
vn 0.3039 -0.1417 0.9421
vn 0.2008 -0.3627 0.91
vn 0.5582 -0.4637 0.688
vn 0.8811 -0.3036 -0.3626
vn 0.5493 -0.0091 0.8355
vn 0.6379 0.1796 0.7488
vn 0.4552 -0.2123 0.8647
vn 0.7132 0.3423 0.6117
vn 0.7717 0.4664 0.4323
vn 0.8078 0.5452 0.2239
vn 0.8207 0.5714 -0.0
vn 0.8078 0.5452 -0.2239
vn 0.7717 0.4664 -0.4324
vn 0.7132 0.3423 -0.6116
vn 0.6379 0.1796 -0.7489
vn 0.5493 -0.0091 -0.8355
vn 0.4552 -0.2123 -0.8647
vn 0.3601 -0.4149 -0.8355
vn 0.2725 -0.6041 -0.7488
vn 0.1962 -0.7664 -0.6116
vn 0.1388 -0.891 -0.4324
vn 0.1016 -0.9693 -0.2239
vn 0.0898 -0.996 -0.0
vn 0.1016 -0.9693 0.2239
vn 0.1388 -0.891 0.4324
vn 0.1963 -0.7664 0.6116
vn 0.2725 -0.6041 0.7488
vn 0.3601 -0.415 0.8355
vn 0.9268 -0.2587 0.2723
vn 0.8948 -0.3275 0.3035
vn 0.8609 -0.2749 0.428
vn 0.9063 -0.1786 0.383
vn 0.8604 -0.4012 0.3144
vn 0.8129 -0.379 0.4423
vn 0.826 -0.4749 0.3035
vn 0.764 -0.4828 0.4281
vn 0.7939 -0.5436 0.2722
vn 0.7194 -0.5794 0.383
vn 0.7665 -0.6026 0.2222
vn 0.6801 -0.6628 0.3133
vn 0.7453 -0.6479 0.1572
vn 0.651 -0.7262 0.2211
vn 0.7321 -0.6763 0.0813
vn 0.6316 -0.7668 0.1147
vn 0.7275 -0.6861 -0.0
vn 0.6259 -0.7799 -0.0
vn 0.7321 -0.6763 -0.0813
vn 0.6316 -0.7668 -0.1147
vn 0.7453 -0.6479 -0.1572
vn 0.651 -0.7262 -0.2211
vn 0.7665 -0.6026 -0.2222
vn 0.68 -0.6628 -0.3133
vn 0.7939 -0.5437 -0.2723
vn 0.7194 -0.5795 -0.383
vn 0.826 -0.4749 -0.3035
vn 0.764 -0.4828 -0.428
vn 0.8604 -0.4012 -0.3144
vn 0.8128 -0.379 -0.4423
vn 0.8948 -0.3275 -0.3035
vn 0.8609 -0.2749 -0.4281
vn 0.9268 -0.2587 -0.2723
vn 0.9063 -0.1786 -0.383
vn 0.9543 -0.1998 -0.2222
vn 0.9449 -0.0949 -0.3133
vn 0.9754 -0.1544 -0.1572
vn 0.9747 -0.0319 -0.2211
vn 0.9887 -0.1261 -0.0813
vn 0.9934 0.0091 -0.1147
vn 0.9932 -0.1163 -0.0
vn 0.9998 0.0218 0.0
vn 0.9887 -0.1261 0.0813
vn 0.9934 0.009 0.1147
vn 0.9754 -0.1544 0.1572
vn 0.9747 -0.0319 0.2211
vn 0.9543 -0.1998 0.2222
vn 0.9449 -0.0949 0.3134
vn 0.6702 -0.3126 -0.6731
vn 0.5973 -0.4706 -0.6495
vn 0.528 -0.6175 -0.583
vn 0.4699 -0.7437 -0.4755
vn 0.4239 -0.8409 -0.3365
vn 0.3964 -0.9014 -0.174
vn 0.3857 -0.9226 0.0
vn 0.3964 -0.9014 0.174
vn 0.4239 -0.8409 0.3366
vn 0.47 -0.7437 0.4754
vn 0.528 -0.6175 0.583
vn 0.5973 -0.4706 0.6494
vn 0.6702 -0.3125 0.6732
vn 0.7444 -0.1551 0.6494
vn 0.8124 -0.0075 0.583
vn 0.8718 0.1181 0.4754
vn 0.9166 0.2158 0.3366
vn 0.9453 0.2758 0.1741
vn 0.9547 0.2975 0.0
vn 0.9453 0.2758 -0.174
vn 0.9166 0.2158 -0.3365
vn 0.8718 0.1181 -0.4754
vn 0.8125 -0.0075 -0.583
vn 0.7444 -0.1551 -0.6494
vn 0.9063 -0.4226 -0.0
vn 0.8597 -0.2733 0.4316
vn 0.9053 -0.1756 0.3869
vn 0.8109 -0.3781 0.4466
vn 0.7619 -0.4829 0.4316
vn 0.6773 -0.6644 0.3159
vn 0.7164 -0.5806 0.387
vn 0.6284 -0.7693 0.1157
vn 0.6473 -0.7288 0.2234
vn 0.6284 -0.7693 -0.1157
vn 0.6221 -0.7829 -0.0
vn 0.6773 -0.6645 -0.3159
vn 0.6474 -0.7287 -0.2233
vn 0.7619 -0.4829 -0.4316
vn 0.7165 -0.5805 -0.3869
vn 0.8597 -0.2733 -0.4316
vn 0.8109 -0.3781 -0.4467
vn 0.9443 -0.0917 -0.316
vn 0.9052 -0.1757 -0.3869
vn 0.9932 0.0132 -0.1157
vn 0.9744 -0.0275 -0.2234
vn 0.9932 0.013 0.1156
vn 0.9996 0.0266 0.0
vn 0.9443 -0.0918 0.3159
vn 0.9744 -0.0276 0.2233
vtan -0.7207 0.3359 0.6064 -1.0
vtan -0.7115 0.3303 0.6202 -1.0
vtan -0.8723 0.4076 0.2702 -1.0
vtan -0.8746 0.4079 0.262 -1.0
vtan -0.6788 0.3263 0.6578 -1.0
vtan -0.8649 0.403 0.2993 -1.0
vtan -0.6164 0.319 0.7199 -1.0
vtan -0.8464 0.392 0.3604 -1.0
vtan -0.5114 0.2969 0.8064 -1.0
vtan -0.7944 0.3611 0.4885 -1.0
vtan -0.3238 0.2127 0.9219 -1.0
vtan -0.6002 0.2585 0.7569 -1.0
vtan -0.0001 0.0001 1.0 -1.0
vtan -0.0001 0.0001 1.0 -1.0
vtan 0.3239 -0.2125 0.9219 -1.0
vtan 0.6004 -0.2588 0.7567 -1.0
vtan 0.5115 -0.297 0.8063 -1.0
vtan 0.7944 -0.3611 0.4885 -1.0
vtan 0.6165 -0.3192 0.7198 -1.0
vtan 0.8464 -0.3919 0.3605 -1.0
vtan 0.6788 -0.3264 0.6578 -1.0
vtan 0.8649 -0.4027 0.2994 -1.0
vtan 0.7116 -0.3302 0.6202 -1.0
vtan 0.8723 -0.4076 0.2703 -1.0
vtan 0.7208 -0.3361 0.6063 -1.0
vtan 0.8745 -0.4081 0.262 -1.0
vtan 0.7124 -0.3296 0.6195 -1.0
vtan 0.8724 -0.407 0.2705 -1.0
vtan 0.6863 -0.3103 0.6578 -1.0
vtan 0.8645 -0.4037 0.2994 -1.0
vtan 0.6386 -0.2689 0.721 -1.0
vtan 0.8442 -0.3966 0.3605 -1.0
vtan 0.5571 -0.2005 0.8059 -1.0
vtan 0.7881 -0.376 0.4874 -1.0
vtan 0.3723 -0.111 0.9214 -1.0
vtan 0.5869 -0.2935 0.7546 -1.0
vtan -0.0006 -0.0001 1.0 -1.0
vtan -0.0003 0.0 1.0 -1.0
vtan -0.372 0.1111 0.9216 -1.0
vtan -0.5862 0.2935 0.7552 -1.0
vtan -0.5571 0.2006 0.8059 -1.0
vtan -0.7883 0.3759 0.4872 -1.0
vtan -0.6384 0.269 0.7212 -1.0
vtan -0.8444 0.3964 0.3603 -1.0
vtan -0.6864 0.3102 0.6577 -1.0
vtan -0.8645 0.4037 0.2994 -1.0
vtan -0.7125 0.3295 0.6195 -1.0
vtan -0.8725 0.407 0.2705 -1.0
vtan -0.8383 0.3907 0.3803 -1.0
vtan -0.8504 0.3967 0.3457 -1.0
vtan -0.6343 0.2962 0.7141 -1.0
vtan -0.5978 0.2837 0.7498 -1.0
vtan 0.3339 -0.1474 0.931 -1.0
vtan 0.3163 -0.1133 0.9419 -1.0
vtan 0.3384 -0.1578 0.9277 -1.0
vtan -0.6458 0.3011 0.7016 -1.0
vtan -0.7385 0.3448 0.5795 -1.0
vtan -0.8095 0.3778 0.4494 -1.0
vtan -0.5284 0.2629 0.8073 -1.0
vtan -0.4154 0.2212 0.8823 -1.0
vtan 0.2935 -0.0626 0.9539 -1.0
vtan 0.2478 -0.0093 0.9688 -1.0
vtan -0.0 0.0 1.0 -1.0
vtan -0.5313 0.2462 0.8106 -1.0
vtan -0.2389 0.1352 0.9616 -1.0
vtan 0.0 -0.0 1.0 -1.0
vtan 0.1575 0.0169 0.9874 -1.0
vtan -0.0001 -0.0 1.0 -1.0
vtan 0.7385 -0.3451 0.5792 -1.0
vtan 0.5314 -0.2462 0.8106 -1.0
vtan 0.239 -0.1352 0.9616 -1.0
vtan 0.4154 -0.2212 0.8823 -1.0
vtan -0.1574 -0.0168 0.9874 -1.0
vtan -0.2476 0.0095 0.9688 -1.0
vtan 0.8383 -0.3907 0.3803 -1.0
vtan 0.8095 -0.3778 0.4494 -1.0
vtan 0.5284 -0.2629 0.8073 -1.0
vtan 0.5978 -0.2837 0.7498 -1.0
vtan -0.2935 0.0626 0.9539 -1.0
vtan -0.3164 0.1132 0.9419 -1.0
vtan 0.8539 -0.3981 0.3353 -1.0
vtan 0.8504 -0.3967 0.3457 -1.0
vtan 0.6343 -0.2962 0.7141 -1.0
vtan 0.6458 -0.3011 0.7016 -1.0
vtan -0.334 0.1473 0.931 -1.0
vtan -0.3383 0.158 0.9277 -1.0
vtan 0.8381 -0.391 0.3803 -1.0
vtan 0.8505 -0.3964 0.3457 -1.0
vtan 0.6347 -0.2954 0.7141 -1.0
vtan 0.6016 -0.2756 0.7497 -1.0
vtan -0.3275 0.1614 0.931 -1.0
vtan -0.2901 0.1694 0.9419 -1.0
vtan 0.7382 -0.3443 0.5801 -1.0
vtan 0.8098 -0.3773 0.4494 -1.0
vtan 0.5402 -0.2365 0.8076 -1.0
vtan 0.4351 -0.1769 0.8829 -1.0
vtan -0.2368 0.1837 0.954 -1.0
vtan -0.1664 0.1841 0.9687 -1.0
vtan 0.0001 -0.0 1.0 -1.0
vtan 0.5301 -0.2488 0.8106 -1.0
vtan 0.2577 -0.0959 0.9615 -1.0
vtan 0.0 0.0 1.0 -1.0
vtan -0.0881 0.1331 0.9872 -1.0
vtan 0.0 -0.0001 1.0 -1.0
vtan -0.7385 0.3442 0.5798 -1.0
vtan -0.5302 0.2488 0.8106 -1.0
vtan -0.2577 0.0959 0.9615 -1.0
vtan -0.4351 0.1768 0.8829 -1.0
vtan 0.0881 -0.133 0.9872 -1.0
vtan 0.1664 -0.1839 0.9687 -1.0
vtan -0.8381 0.3911 0.3803 -1.0
vtan -0.8098 0.3773 0.4494 -1.0
vtan -0.5402 0.2365 0.8076 -1.0
vtan -0.6016 0.2756 0.7498 -1.0
vtan 0.2369 -0.1836 0.954 -1.0
vtan 0.2901 -0.1696 0.9418 -1.0
vtan -0.8538 0.3981 0.3353 -1.0
vtan -0.8506 0.3964 0.3456 -1.0
vtan -0.6347 0.2954 0.7141 -1.0
vtan 0.3275 -0.1615 0.9309 -1.0
vtan -0.7769 0.3627 0.5147 -1.0
vtan -0.752 0.3546 0.5556 -1.0
vtan -0.7837 0.3654 0.5023 -1.0
vtan -0.7009 0.3431 0.6253 -1.0
vtan -0.6018 0.3158 0.7336 -1.0
vtan -0.4007 0.2295 0.887 -1.0
vtan 0.0002 -0.0003 1.0 -1.0
vtan 0.4005 -0.2289 0.8873 -1.0
vtan 0.6018 -0.3156 0.7337 -1.0
vtan 0.7009 -0.3433 0.6252 -1.0
vtan 0.752 -0.3547 0.5556 -1.0
vtan 0.7769 -0.3625 0.5148 -1.0
vtan 0.7837 -0.3654 0.5023 -1.0
vtan 0.7772 -0.3619 0.5147 -1.0
vtan 0.7551 -0.3481 0.5556 -1.0
vtan 0.7134 -0.3164 0.6253 -1.0
vtan 0.6287 -0.258 0.7336 -1.0
vtan 0.4337 -0.1594 0.8868 -1.0
vtan 0.0002 0.0 1.0 -1.0
vtan -0.4339 0.1593 0.8868 -1.0
vtan -0.6284 0.2582 0.7338 -1.0
vtan -0.7135 0.3162 0.6252 -1.0
vtan -0.7551 0.3481 0.5556 -1.0
vtan -0.7771 0.3621 0.5148 -1.0
vtan -0.2498 0.1168 0.9612 -1.0
vtan -0.2758 0.1291 0.9525 -1.0
vtan -0.3904 0.1824 0.9024 -1.0
vtan -0.3558 0.1668 0.9196 -1.0
vtan -0.285 0.1328 0.9493 -1.0
vtan -0.4008 0.187 0.8969 -1.0
vtan -0.2763 0.1282 0.9525 -1.0
vtan -0.3908 0.1816 0.9024 -1.0
vtan -0.2498 0.1165 0.9613 -1.0
vtan -0.3567 0.1649 0.9195 -1.0
vtan -0.2067 0.0961 0.9737 -1.0
vtan -0.3025 0.1356 0.9435 -1.0
vtan -0.1483 0.0687 0.9865 -1.0
vtan -0.2218 0.0967 0.9703 -1.0
vtan -0.0775 0.0359 0.9963 -1.0
vtan -0.1195 0.0499 0.9916 -1.0
vtan 0.0 0.0 1.0 -1.0
vtan 0.0003 0.0003 1.0 -1.0
vtan 0.0776 -0.0358 0.9963 -1.0
vtan 0.1189 -0.0504 0.9916 -1.0
vtan 0.1483 -0.0688 0.9866 -1.0
vtan 0.222 -0.0964 0.9703 -1.0
vtan 0.2068 -0.0959 0.9737 -1.0
vtan 0.3023 -0.1359 0.9435 -1.0
vtan 0.2498 -0.1166 0.9613 -1.0
vtan 0.3569 -0.1646 0.9195 -1.0
vtan 0.2762 -0.1284 0.9525 -1.0
vtan 0.3909 -0.1815 0.9024 -1.0
vtan 0.2849 -0.1329 0.9493 -1.0
vtan 0.4009 -0.1868 0.8969 -1.0
vtan 0.2759 -0.129 0.9525 -1.0
vtan 0.3904 -0.1825 0.9024 -1.0
vtan 0.2498 -0.1167 0.9612 -1.0
vtan 0.3558 -0.1667 0.9196 -1.0
vtan 0.2066 -0.0961 0.9737 -1.0
vtan 0.2984 -0.1443 0.9435 -1.0
vtan 0.148 -0.0695 0.9865 -1.0
vtan 0.2166 -0.1084 0.9702 -1.0
vtan 0.0774 -0.036 0.9964 -1.0
vtan 0.115 -0.0581 0.9917 -1.0
vtan -0.0 -0.0001 1.0 -1.0
vtan 0.0 -0.0002 1.0 -1.0
vtan -0.0773 0.0361 0.9964 -1.0
vtan -0.115 0.0589 0.9916 -1.0
vtan -0.1479 0.0698 0.9865 -1.0
vtan -0.2166 0.1078 0.9703 -1.0
vtan -0.2067 0.0958 0.9737 -1.0
vtan -0.2984 0.1443 0.9435 -1.0
vtan 0.61 -0.2846 0.7395 -1.0
vtan 0.5987 -0.2772 0.7515 -1.0
vtan 0.5744 -0.246 0.7808 -1.0
vtan 0.5372 -0.1864 0.8226 -1.0
vtan 0.4736 -0.1109 0.8737 -1.0
vtan 0.3213 -0.0414 0.9461 -1.0
vtan -0.0002 -0.0001 1.0 -1.0
vtan -0.3215 0.0412 0.946 -1.0
vtan -0.4737 0.1109 0.8737 -1.0
vtan -0.5373 0.1863 0.8226 -1.0
vtan -0.5742 0.2462 0.7808 -1.0
vtan -0.5986 0.2772 0.7515 -1.0
vtan -0.6101 0.2844 0.7395 -1.0
vtan -0.5972 0.2802 0.7515 -1.0
vtan -0.5577 0.2815 0.7808 -1.0
vtan -0.4881 0.2905 0.823 -1.0
vtan -0.3895 0.292 0.8735 -1.0
vtan -0.2386 0.2211 0.9456 -1.0
vtan 0.0 -0.0002 1.0 -1.0
vtan 0.2386 -0.2213 0.9456 -1.0
vtan 0.3895 -0.2921 0.8735 -1.0
vtan 0.4881 -0.2906 0.823 -1.0
vtan 0.5577 -0.2813 0.7809 -1.0
vtan 0.5973 -0.2802 0.7515 -1.0
vtan 0.0 0.0 1.0 -1.0
vtan -0.3947 0.1809 0.9008 -1.0
vtan -0.3597 0.1679 0.9178 -1.0
vtan -0.4049 0.1885 0.8947 -1.0
vtan -0.3947 0.1822 0.9006 -1.0
vtan -0.2997 0.1429 0.9433 -1.0
vtan -0.3594 0.1683 0.9179 -1.0
vtan -0.1153 0.0549 0.9918 -1.0
vtan -0.2192 0.1027 0.9702 -1.0
vtan 0.1157 -0.0546 0.9918 -1.0
vtan -0.0002 -0.0002 1.0 -1.0
vtan 0.3001 -0.1426 0.9432 -1.0
vtan 0.2187 -0.1031 0.9703 -1.0
vtan 0.3947 -0.1822 0.9006 -1.0
vtan 0.3594 -0.1682 0.9179 -1.0
vtan 0.3947 -0.1809 0.9008 -1.0
vtan 0.4049 -0.1887 0.8947 -1.0
vtan 0.3018 -0.1412 0.9429 -1.0
vtan 0.3597 -0.1679 0.9178 -1.0
vtan 0.1162 -0.0531 0.9918 -1.0
vtan 0.2196 -0.1016 0.9703 -1.0
vtan -0.1162 0.0534 0.9918 -1.0
vtan 0.0 -0.0002 1.0 -1.0
vtan -0.3018 0.1407 0.9429 -1.0
vtan -0.2195 0.1018 0.9703 -1.0
f 0/0/0/0 1/1/1/1 2/2/2/2 
f 0/0/0/0 2/2/2/2 3/3/3/3 
f 1/1/1/1 4/4/4/4 5/5/5/5 
f 1/1/1/1 5/5/5/5 2/2/2/2 
f 4/4/4/4 6/6/6/6 7/7/7/7 
f 4/4/4/4 7/7/7/7 5/5/5/5 
f 6/6/6/6 8/8/8/8 9/9/9/9 
f 6/6/6/6 9/9/9/9 7/7/7/7 
f 8/8/8/8 10/10/10/10 11/11/11/11 
f 8/8/8/8 11/11/11/11 9/9/9/9 
f 10/10/10/10 12/12/12/12 13/13/13/13 
f 10/10/10/10 13/13/13/13 11/11/11/11 
f 12/12/12/12 14/14/14/14 15/15/15/15 
f 12/12/12/12 15/15/15/15 13/13/13/13 
f 14/14/14/14 16/16/16/16 17/17/17/17 
f 14/14/14/14 17/17/17/17 15/15/15/15 
f 16/16/16/16 18/18/18/18 19/19/19/19 
f 16/16/16/16 19/19/19/19 17/17/17/17 
f 18/18/18/18 20/20/20/20 21/21/21/21 
f 18/18/18/18 21/21/21/21 19/19/19/19 
f 20/20/20/20 22/22/22/22 23/23/23/23 
f 20/20/20/20 23/23/23/23 21/21/21/21 
f 22/22/22/22 24/24/24/24 25/25/25/25 
f 22/22/22/22 25/25/25/25 23/23/23/23 
f 24/24/24/24 26/26/26/26 27/27/27/27 
f 24/24/24/24 27/27/27/27 25/25/25/25 
f 26/26/26/26 28/28/28/28 29/29/29/29 
f 26/26/26/26 29/29/29/29 27/27/27/27 
f 28/28/28/28 30/30/30/30 31/31/31/31 
f 28/28/28/28 31/31/31/31 29/29/29/29 
f 30/30/30/30 32/32/32/32 33/33/33/33 
f 30/30/30/30 33/33/33/33 31/31/31/31 
f 32/32/32/32 34/34/34/34 35/35/35/35 
f 32/32/32/32 35/35/35/35 33/33/33/33 
f 34/34/34/34 36/36/36/36 37/37/37/37 
f 34/34/34/34 37/37/37/37 35/35/35/35 
f 36/36/36/36 38/38/38/38 39/39/39/39 
f 36/36/36/36 39/39/39/39 37/37/37/37 
f 38/38/38/38 40/40/40/40 41/41/41/41 
f 38/38/38/38 41/41/41/41 39/39/39/39 
f 40/40/40/40 42/42/42/42 43/43/43/43 
f 40/40/40/40 43/43/43/43 41/41/41/41 
f 42/42/42/42 44/44/44/44 45/45/45/45 
f 42/42/42/42 45/45/45/45 43/43/43/43 
f 44/44/44/44 46/46/46/46 47/47/47/47 
f 44/44/44/44 47/47/47/47 45/45/45/45 
f 46/46/46/46 0/0/0/0 3/3/3/3 
f 46/46/46/46 3/3/3/3 47/47/47/47 
f 48/48/48/48 49/49/49/49 50/50/50/50 
f 48/48/48/48 50/50/50/50 51/51/51/51 
f 50/50/50/50 52/52/52/52 53/53/53/53 
f 50/50/50/50 53/53/53/53 51/51/51/51 
f 54/54/54/54 52/52/52/52 50/50/50/50 
f 54/54/54/54 50/50/50/50 55/55/55/55 
f 56/56/56/56 57/57/57/57 58/58/58/58 
f 56/56/56/56 58/58/58/58 59/59/59/59 
f 58/58/58/58 60/60/60/60 61/61/61/61 
f 58/58/58/58 61/61/61/61 59/59/59/59 
f 53/53/53/53 60/60/60/60 58/58/58/58 
f 53/53/53/53 58/58/58/58 51/51/51/51 
f 62/62/62/62 63/63/63/63 64/64/64/64 
f 62/62/62/62 64/64/64/64 65/65/65/65 
f 64/64/64/64 66/66/66/66 67/67/67/67 
f 64/64/64/64 67/67/67/67 65/65/65/65 
f 61/61/61/61 66/66/66/66 64/64/64/64 
f 61/61/61/61 64/64/64/64 59/59/59/59 
f 68/68/68/68 69/69/69/69 70/70/70/70 
f 68/68/68/68 70/70/70/70 71/71/71/71 
f 70/70/70/70 72/72/72/72 73/73/73/73 
f 70/70/70/70 73/73/73/73 71/71/71/71 
f 67/67/67/67 72/72/72/72 70/70/70/70 
f 67/67/67/67 70/70/70/70 65/65/65/65 
f 74/74/74/74 75/75/75/75 76/76/76/76 
f 74/74/74/74 76/76/76/76 77/77/77/77 
f 76/76/76/76 78/78/78/78 79/79/79/79 
f 76/76/76/76 79/79/79/79 77/77/77/77 
f 73/73/73/73 78/78/78/78 76/76/76/76 
f 73/73/73/73 76/76/76/76 71/71/71/71 
f 80/80/80/80 81/81/81/81 82/82/82/82 
f 80/80/80/80 82/82/82/82 83/83/83/83 
f 82/82/82/82 84/84/84/84 85/85/85/85 
f 82/82/82/82 85/85/85/85 83/83/83/83 
f 79/79/79/79 84/84/84/84 82/82/82/82 
f 79/79/79/79 82/82/82/82 77/77/77/77 
f 86/86/86/86 87/87/87/87 88/88/88/88 
f 86/86/86/86 88/88/88/88 89/89/89/89 
f 88/88/88/88 90/90/90/90 91/91/91/91 
f 88/88/88/88 91/91/91/91 89/89/89/89 
f 85/85/85/85 90/90/90/90 88/88/88/88 
f 85/85/85/85 88/88/88/88 83/83/83/83 
f 92/92/92/92 93/93/93/93 94/94/94/94 
f 92/92/92/92 94/94/94/94 95/95/95/95 
f 94/94/94/94 96/96/96/96 97/97/97/97 
f 94/94/94/94 97/97/97/97 95/95/95/95 
f 91/91/91/91 96/96/96/96 94/94/94/94 
f 91/91/91/91 94/94/94/94 89/89/89/89 
f 98/98/98/98 99/99/99/99 100/100/100/100 
f 98/98/98/98 100/100/100/100 101/101/101/101 
f 100/100/100/100 102/102/102/102 103/103/103/103 
f 100/100/100/100 103/103/103/103 101/101/101/101 
f 97/97/97/97 102/102/102/102 100/100/100/100 
f 97/97/97/97 100/100/100/100 95/95/95/95 
f 104/104/104/104 105/105/105/105 106/106/106/106 
f 104/104/104/104 106/106/106/106 107/107/107/107 
f 106/106/106/106 108/108/108/108 109/109/109/109 
f 106/106/106/106 109/109/109/109 107/107/107/107 
f 103/103/103/103 108/108/108/108 106/106/106/106 
f 103/103/103/103 106/106/106/106 101/101/101/101 
f 110/110/110/110 111/111/111/111 112/112/112/112 
f 110/110/110/110 112/112/112/112 113/113/113/113 
f 112/112/112/112 114/114/114/114 115/115/115/115 
f 112/112/112/112 115/115/115/115 113/113/113/113 
f 109/109/109/109 114/114/114/114 112/112/112/112 
f 109/109/109/109 112/112/112/112 107/107/107/107 
f 116/116/116/116 117/117/117/117 118/118/118/118 
f 116/116/116/116 118/118/118/118 55/55/55/55 
f 118/118/118/118 119/119/119/119 54/54/54/54 
f 118/118/118/118 54/54/54/54 55/55/55/55 
f 115/115/115/115 119/119/119/119 118/118/118/118 
f 115/115/115/115 118/118/118/118 113/113/113/113 
f 120/120/120/120 49/49/49/49 48/48/48/48 
f 120/120/120/120 48/48/48/48 121/121/121/121 
f 49/49/49/49 120/120/120/120 122/122/122/122 
f 49/49/49/49 122/122/122/122 116/116/116/116 
f 123/123/123/123 57/57/57/57 56/56/56/56 
f 123/123/123/123 56/56/56/56 124/124/124/124 
f 57/57/57/57 123/123/123/123 121/121/121/121 
f 57/57/57/57 121/121/121/121 48/48/48/48 
f 125/125/125/125 63/63/63/63 62/62/62/62 
f 125/125/125/125 62/62/62/62 126/126/126/126 
f 63/63/63/63 125/125/125/125 124/124/124/124 
f 63/63/63/63 124/124/124/124 56/56/56/56 
f 127/127/127/127 69/69/69/69 68/68/68/68 
f 127/127/127/127 68/68/68/68 128/128/128/128 
f 69/69/69/69 127/127/127/127 126/126/126/126 
f 69/69/69/69 126/126/126/126 62/62/62/62 
f 129/129/129/129 75/75/75/75 74/74/74/74 
f 129/129/129/129 74/74/74/74 130/130/130/130 
f 75/75/75/75 129/129/129/129 128/128/128/128 
f 75/75/75/75 128/128/128/128 68/68/68/68 
f 131/131/131/131 81/81/81/81 80/80/80/80 
f 131/131/131/131 80/80/80/80 132/132/132/132 
f 81/81/81/81 131/131/131/131 130/130/130/130 
f 81/81/81/81 130/130/130/130 74/74/74/74 
f 133/133/133/133 87/87/87/87 86/86/86/86 
f 133/133/133/133 86/86/86/86 134/134/134/134 
f 87/87/87/87 133/133/133/133 132/132/132/132 
f 87/87/87/87 132/132/132/132 80/80/80/80 
f 135/135/135/135 93/93/93/93 92/92/92/92 
f 135/135/135/135 92/92/92/92 136/136/136/136 
f 93/93/93/93 135/135/135/135 134/134/134/134 
f 93/93/93/93 134/134/134/134 86/86/86/86 
f 137/137/137/137 99/99/99/99 98/98/98/98 
f 137/137/137/137 98/98/98/98 138/138/138/138 
f 99/99/99/99 137/137/137/137 136/136/136/136 
f 99/99/99/99 136/136/136/136 92/92/92/92 
f 139/139/139/139 105/105/105/105 104/104/104/104 
f 139/139/139/139 104/104/104/104 140/140/140/140 
f 105/105/105/105 139/139/139/139 138/138/138/138 
f 105/105/105/105 138/138/138/138 98/98/98/98 
f 141/141/141/141 111/111/111/111 110/110/110/110 
f 141/141/141/141 110/110/110/110 142/142/142/142 
f 111/111/111/111 141/141/141/141 140/140/140/140 
f 111/111/111/111 140/140/140/140 104/104/104/104 
f 143/143/143/143 117/117/117/117 116/116/116/116 
f 143/143/143/143 116/116/116/116 122/122/122/122 
f 117/117/117/117 143/143/143/143 142/142/142/142 
f 117/117/117/117 142/142/142/142 110/110/110/110 
f 144/144/144/144 145/145/145/145 146/146/146/146 
f 144/144/144/144 146/146/146/146 147/147/147/147 
f 145/145/145/145 148/148/148/148 149/149/149/149 
f 145/145/145/145 149/149/149/149 146/146/146/146 
f 148/148/148/148 150/150/150/150 151/151/151/151 
f 148/148/148/148 151/151/151/151 149/149/149/149 
f 150/150/150/150 152/152/152/152 153/153/153/153 
f 150/150/150/150 153/153/153/153 151/151/151/151 
f 152/152/152/152 154/154/154/154 155/155/155/155 
f 152/152/152/152 155/155/155/155 153/153/153/153 
f 154/154/154/154 156/156/156/156 157/157/157/157 
f 154/154/154/154 157/157/157/157 155/155/155/155 
f 156/156/156/156 158/158/158/158 159/159/159/159 
f 156/156/156/156 159/159/159/159 157/157/157/157 
f 158/158/158/158 160/160/160/160 161/161/161/161 
f 158/158/158/158 161/161/161/161 159/159/159/159 
f 160/160/160/160 162/162/162/162 163/163/163/163 
f 160/160/160/160 163/163/163/163 161/161/161/161 
f 162/162/162/162 164/164/164/164 165/165/165/165 
f 162/162/162/162 165/165/165/165 163/163/163/163 
f 164/164/164/164 166/166/166/166 167/167/167/167 
f 164/164/164/164 167/167/167/167 165/165/165/165 
f 166/166/166/166 168/168/168/168 169/169/169/169 
f 166/166/166/166 169/169/169/169 167/167/167/167 
f 168/168/168/168 170/170/170/170 171/171/171/171 
f 168/168/168/168 171/171/171/171 169/169/169/169 
f 170/170/170/170 172/172/172/172 173/173/173/173 
f 170/170/170/170 173/173/173/173 171/171/171/171 
f 172/172/172/172 174/174/174/174 175/175/175/175 
f 172/172/172/172 175/175/175/175 173/173/173/173 
f 174/174/174/174 176/176/176/176 177/177/177/177 
f 174/174/174/174 177/177/177/177 175/175/175/175 
f 176/176/176/176 178/178/178/178 179/179/179/179 
f 176/176/176/176 179/179/179/179 177/177/177/177 
f 178/178/178/178 180/180/180/180 181/181/181/181 
f 178/178/178/178 181/181/181/181 179/179/179/179 
f 180/180/180/180 182/182/182/182 183/183/183/183 
f 180/180/180/180 183/183/183/183 181/181/181/181 
f 182/182/182/182 184/184/184/184 185/185/185/185 
f 182/182/182/182 185/185/185/185 183/183/183/183 
f 184/184/184/184 186/186/186/186 187/187/187/187 
f 184/184/184/184 187/187/187/187 185/185/185/185 
f 186/186/186/186 188/188/188/188 189/189/189/189 
f 186/186/186/186 189/189/189/189 187/187/187/187 
f 188/188/188/188 190/190/190/190 191/191/191/191 
f 188/188/188/188 191/191/191/191 189/189/189/189 
f 190/190/190/190 144/144/144/144 147/147/147/147 
f 190/190/190/190 147/147/147/147 191/191/191/191 
f 192/192/192/192 193/193/193/193 52/52/52/52 
f 192/192/192/192 52/52/52/52 54/54/54/54 
f 193/193/193/193 194/194/194/194 53/53/53/53 
f 193/193/193/193 53/53/53/53 52/52/52/52 
f 194/194/194/194 195/195/195/195 60/60/60/60 
f 194/194/194/194 60/60/60/60 53/53/53/53 
f 195/195/195/195 196/196/196/196 61/61/61/61 
f 195/195/195/195 61/61/61/61 60/60/60/60 
f 196/196/196/196 197/197/197/197 66/66/66/66 
f 196/196/196/196 66/66/66/66 61/61/61/61 
f 197/197/197/197 198/198/198/198 67/67/67/67 
f 197/197/197/197 67/67/67/67 66/66/66/66 
f 198/198/198/198 199/199/199/199 72/72/72/72 
f 198/198/198/198 72/72/72/72 67/67/67/67 
f 199/199/199/199 200/200/200/200 73/73/73/73 
f 199/199/199/199 73/73/73/73 72/72/72/72 
f 200/200/200/200 201/201/201/201 78/78/78/78 
f 200/200/200/200 78/78/78/78 73/73/73/73 
f 201/201/201/201 202/202/202/202 79/79/79/79 
f 201/201/201/201 79/79/79/79 78/78/78/78 
f 202/202/202/202 203/203/203/203 84/84/84/84 
f 202/202/202/202 84/84/84/84 79/79/79/79 
f 203/203/203/203 204/204/204/204 85/85/85/85 
f 203/203/203/203 85/85/85/85 84/84/84/84 
f 204/204/204/204 205/205/205/205 90/90/90/90 
f 204/204/204/204 90/90/90/90 85/85/85/85 
f 205/205/205/205 206/206/206/206 91/91/91/91 
f 205/205/205/205 91/91/91/91 90/90/90/90 
f 206/206/206/206 207/207/207/207 96/96/96/96 
f 206/206/206/206 96/96/96/96 91/91/91/91 
f 207/207/207/207 208/208/208/208 97/97/97/97 
f 207/207/207/207 97/97/97/97 96/96/96/96 
f 208/208/208/208 209/209/209/209 102/102/102/102 
f 208/208/208/208 102/102/102/102 97/97/97/97 
f 209/209/209/209 210/210/210/210 103/103/103/103 
f 209/209/209/209 103/103/103/103 102/102/102/102 
f 210/210/210/210 211/211/211/211 108/108/108/108 
f 210/210/210/210 108/108/108/108 103/103/103/103 
f 211/211/211/211 212/212/212/212 109/109/109/109 
f 211/211/211/211 109/109/109/109 108/108/108/108 
f 212/212/212/212 213/213/213/213 114/114/114/114 
f 212/212/212/212 114/114/114/114 109/109/109/109 
f 213/213/213/213 214/214/214/214 115/115/115/115 
f 213/213/213/213 115/115/115/115 114/114/114/114 
f 214/214/214/214 215/215/215/215 119/119/119/119 
f 214/214/214/214 119/119/119/119 115/115/115/115 
f 215/215/215/215 192/192/192/192 54/54/54/54 
f 215/215/215/215 54/54/54/54 119/119/119/119 
f 192/192/192/192 216/216/216/216 193/193/193/193 
f 193/193/193/193 216/216/216/216 194/194/194/194 
f 194/194/194/194 216/216/216/216 195/195/195/195 
f 195/195/195/195 216/216/216/216 196/196/196/196 
f 196/196/196/196 216/216/216/216 197/197/197/197 
f 197/197/197/197 216/216/216/216 198/198/198/198 
f 198/198/198/198 216/216/216/216 199/199/199/199 
f 199/199/199/199 216/216/216/216 200/200/200/200 
f 200/200/200/200 216/216/216/216 201/201/201/201 
f 201/201/201/201 216/216/216/216 202/202/202/202 
f 202/202/202/202 216/216/216/216 203/203/203/203 
f 203/203/203/203 216/216/216/216 204/204/204/204 
f 204/204/204/204 216/216/216/216 205/205/205/205 
f 205/205/205/205 216/216/216/216 206/206/206/206 
f 206/206/206/206 216/216/216/216 207/207/207/207 
f 207/207/207/207 216/216/216/216 208/208/208/208 
f 208/208/208/208 216/216/216/216 209/209/209/209 
f 209/209/209/209 216/216/216/216 210/210/210/210 
f 210/210/210/210 216/216/216/216 211/211/211/211 
f 211/211/211/211 216/216/216/216 212/212/212/212 
f 212/212/212/212 216/216/216/216 213/213/213/213 
f 213/213/213/213 216/216/216/216 214/214/214/214 
f 214/214/214/214 216/216/216/216 215/215/215/215 
f 215/215/215/215 216/216/216/216 192/192/192/192 
f 1/1/1/1 217/217/217/217 218/218/218/218 
f 1/1/1/1 218/218/218/218 4/4/4/4 
f 220/219/219/219 0/0/0/0 46/46/46/46 
f 220/219/219/219 46/46/46/46 219/220/220/220 
f 42/42/42/42 221/221/221/221 222/222/222/222 
f 42/42/42/42 222/222/222/222 44/44/44/44 
f 38/38/38/38 223/223/223/223 224/224/224/224 
f 38/38/38/38 224/224/224/224 40/40/40/40 
f 34/34/34/34 225/225/225/225 226/226/226/226 
f 34/34/34/34 226/226/226/226 36/36/36/36 
f 30/30/30/30 227/227/227/227 228/228/228/228 
f 30/30/30/30 228/228/228/228 32/32/32/32 
f 26/26/26/26 229/229/229/229 230/230/230/230 
f 26/26/26/26 230/230/230/230 28/28/28/28 
f 22/22/22/22 231/231/231/231 232/232/232/232 
f 22/22/22/22 232/232/232/232 24/24/24/24 
f 18/18/18/18 233/233/233/233 234/234/234/234 
f 18/18/18/18 234/234/234/234 20/20/20/20 
f 14/14/14/14 235/235/235/235 236/236/236/236 
f 14/14/14/14 236/236/236/236 16/16/16/16 
f 10/10/10/10 237/237/237/237 238/238/238/238 
f 10/10/10/10 238/238/238/238 12/12/12/12 
f 6/6/6/6 239/239/239/239 240/240/240/240 
f 6/6/6/6 240/240/240/240 8/8/8/8 
f 144/144/144/144 190/190/190/190 239/239/239/239 
f 144/144/144/144 239/239/239/239 218/218/218/218 
f 190/190/190/190 188/188/188/188 240/240/240/240 
f 190/190/190/190 240/240/240/240 239/239/239/239 
f 188/188/188/188 186/186/186/186 237/237/237/237 
f 188/188/188/188 237/237/237/237 240/240/240/240 
f 184/184/184/184 182/182/182/182 235/235/235/235 
f 184/184/184/184 235/235/235/235 238/238/238/238 
f 180/180/180/180 178/178/178/178 233/233/233/233 
f 180/180/180/180 233/233/233/233 236/236/236/236 
f 176/176/176/176 174/174/174/174 231/231/231/231 
f 176/176/176/176 231/231/231/231 234/234/234/234 
f 172/172/172/172 170/170/170/170 229/229/229/229 
f 172/172/172/172 229/229/229/229 232/232/232/232 
f 168/168/168/168 166/166/166/166 227/227/227/227 
f 168/168/168/168 227/227/227/227 230/230/230/230 
f 164/164/164/164 162/162/162/162 225/225/225/225 
f 164/164/164/164 225/225/225/225 228/228/228/228 
f 160/160/160/160 158/158/158/158 223/223/223/223 
f 160/160/160/160 223/223/223/223 226/226/226/226 
f 156/156/156/156 154/154/154/154 221/221/221/221 
f 156/156/156/156 221/221/221/221 224/224/224/224 
f 152/152/152/152 150/150/150/150 219/220/220/220 
f 152/152/152/152 219/220/220/220 222/222/222/222 
f 148/148/148/148 145/145/145/145 217/217/217/217 
f 148/148/148/148 217/217/217/217 220/219/219/219 
f 220/219/219/219 219/220/220/220 150/150/150/150 
f 220/219/219/219 150/150/150/150 148/148/148/148 
f 222/222/222/222 221/221/221/221 154/154/154/154 
f 222/222/222/222 154/154/154/154 152/152/152/152 
f 224/224/224/224 223/223/223/223 158/158/158/158 
f 224/224/224/224 158/158/158/158 156/156/156/156 
f 226/226/226/226 225/225/225/225 162/162/162/162 
f 226/226/226/226 162/162/162/162 160/160/160/160 
f 228/228/228/228 227/227/227/227 166/166/166/166 
f 228/228/228/228 166/166/166/166 164/164/164/164 
f 230/230/230/230 229/229/229/229 170/170/170/170 
f 230/230/230/230 170/170/170/170 168/168/168/168 
f 232/232/232/232 231/231/231/231 174/174/174/174 
f 232/232/232/232 174/174/174/174 172/172/172/172 
f 234/234/234/234 233/233/233/233 178/178/178/178 
f 234/234/234/234 178/178/178/178 176/176/176/176 
f 236/236/236/236 235/235/235/235 182/182/182/182 
f 236/236/236/236 182/182/182/182 180/180/180/180 
f 238/238/238/238 237/237/237/237 186/186/186/186 
f 238/238/238/238 186/186/186/186 184/184/184/184 
f 218/218/218/218 217/217/217/217 145/145/145/145 
f 218/218/218/218 145/145/145/145 144/144/144/144 
f 0/0/0/0 220/219/219/219 217/217/217/217 
f 0/0/0/0 217/217/217/217 1/1/1/1 
f 219/220/220/220 46/46/46/46 44/44/44/44 
f 219/220/220/220 44/44/44/44 222/222/222/222 
f 221/221/221/221 42/42/42/42 40/40/40/40 
f 221/221/221/221 40/40/40/40 224/224/224/224 
f 223/223/223/223 38/38/38/38 36/36/36/36 
f 223/223/223/223 36/36/36/36 226/226/226/226 
f 225/225/225/225 34/34/34/34 32/32/32/32 
f 225/225/225/225 32/32/32/32 228/228/228/228 
f 227/227/227/227 30/30/30/30 28/28/28/28 
f 227/227/227/227 28/28/28/28 230/230/230/230 
f 229/229/229/229 26/26/26/26 24/24/24/24 
f 229/229/229/229 24/24/24/24 232/232/232/232 
f 231/231/231/231 22/22/22/22 20/20/20/20 
f 231/231/231/231 20/20/20/20 234/234/234/234 
f 233/233/233/233 18/18/18/18 16/16/16/16 
f 233/233/233/233 16/16/16/16 236/236/236/236 
f 235/235/235/235 14/14/14/14 12/12/12/12 
f 235/235/235/235 12/12/12/12 238/238/238/238 
f 237/237/237/237 10/10/10/10 8/8/8/8 
f 237/237/237/237 8/8/8/8 240/240/240/240 
f 239/239/239/239 6/6/6/6 4/4/4/4 
f 239/239/239/239 4/4/4/4 218/218/218/218 
f 50/50/50/50 49/49/49/49 116/116/116/116 
f 50/50/50/50 116/116/116/116 55/55/55/55 
f 58/58/58/58 57/57/57/57 48/48/48/48 
f 58/58/58/58 48/48/48/48 51/51/51/51 
f 64/64/64/64 63/63/63/63 56/56/56/56 
f 64/64/64/64 56/56/56/56 59/59/59/59 
f 70/70/70/70 69/69/69/69 62/62/62/62 
f 70/70/70/70 62/62/62/62 65/65/65/65 
f 76/76/76/76 75/75/75/75 68/68/68/68 
f 76/76/76/76 68/68/68/68 71/71/71/71 
f 82/82/82/82 81/81/81/81 74/74/74/74 
f 82/82/82/82 74/74/74/74 77/77/77/77 
f 88/88/88/88 87/87/87/87 80/80/80/80 
f 88/88/88/88 80/80/80/80 83/83/83/83 
f 94/94/94/94 93/93/93/93 86/86/86/86 
f 94/94/94/94 86/86/86/86 89/89/89/89 
f 100/100/100/100 99/99/99/99 92/92/92/92 
f 100/100/100/100 92/92/92/92 95/95/95/95 
f 106/106/106/106 105/105/105/105 98/98/98/98 
f 106/106/106/106 98/98/98/98 101/101/101/101 
f 112/112/112/112 111/111/111/111 104/104/104/104 
f 112/112/112/112 104/104/104/104 107/107/107/107 
f 118/118/118/118 117/117/117/117 110/110/110/110 
f 118/118/118/118 110/110/110/110 113/113/113/113 
f 121/121/121/121 147/147/147/147 146/146/146/146 
f 121/121/121/121 146/146/146/146 120/120/120/120 
f 120/120/120/120 146/146/146/146 149/149/149/149 
f 120/120/120/120 149/149/149/149 122/122/122/122 
f 124/124/124/124 189/189/189/189 191/191/191/191 
f 124/124/124/124 191/191/191/191 123/123/123/123 
f 123/123/123/123 191/191/191/191 147/147/147/147 
f 123/123/123/123 147/147/147/147 121/121/121/121 
f 126/126/126/126 185/185/185/185 187/187/187/187 
f 126/126/126/126 187/187/187/187 125/125/125/125 
f 125/125/125/125 187/187/187/187 189/189/189/189 
f 125/125/125/125 189/189/189/189 124/124/124/124 
f 128/128/128/128 181/181/181/181 183/183/183/183 
f 128/128/128/128 183/183/183/183 127/127/127/127 
f 127/127/127/127 183/183/183/183 185/185/185/185 
f 127/127/127/127 185/185/185/185 126/126/126/126 
f 130/130/130/130 177/177/177/177 179/179/179/179 
f 130/130/130/130 179/179/179/179 129/129/129/129 
f 129/129/129/129 179/179/179/179 181/181/181/181 
f 129/129/129/129 181/181/181/181 128/128/128/128 
f 132/132/132/132 173/173/173/173 175/175/175/175 
f 132/132/132/132 175/175/175/175 131/131/131/131 
f 131/131/131/131 175/175/175/175 177/177/177/177 
f 131/131/131/131 177/177/177/177 130/130/130/130 
f 134/134/134/134 169/169/169/169 171/171/171/171 
f 134/134/134/134 171/171/171/171 133/133/133/133 
f 133/133/133/133 171/171/171/171 173/173/173/173 
f 133/133/133/133 173/173/173/173 132/132/132/132 
f 136/136/136/136 165/165/165/165 167/167/167/167 
f 136/136/136/136 167/167/167/167 135/135/135/135 
f 135/135/135/135 167/167/167/167 169/169/169/169 
f 135/135/135/135 169/169/169/169 134/134/134/134 
f 138/138/138/138 161/161/161/161 163/163/163/163 
f 138/138/138/138 163/163/163/163 137/137/137/137 
f 137/137/137/137 163/163/163/163 165/165/165/165 
f 137/137/137/137 165/165/165/165 136/136/136/136 
f 140/140/140/140 157/157/157/157 159/159/159/159 
f 140/140/140/140 159/159/159/159 139/139/139/139 
f 139/139/139/139 159/159/159/159 161/161/161/161 
f 139/139/139/139 161/161/161/161 138/138/138/138 
f 142/142/142/142 153/153/153/153 155/155/155/155 
f 142/142/142/142 155/155/155/155 141/141/141/141 
f 141/141/141/141 155/155/155/155 157/157/157/157 
f 141/141/141/141 157/157/157/157 140/140/140/140 
f 122/122/122/122 149/149/149/149 151/151/151/151 
f 122/122/122/122 151/151/151/151 143/143/143/143 
f 143/143/143/143 151/151/151/151 153/153/153/153 
f 143/143/143/143 153/153/153/153 142/142/142/142 
