v -1424.1953 186.521 162.5777
v -1430.3052 186.521 162.5777
v -1430.3052 192.9854 161.6566
v -1423.3735 192.9854 161.6566
v -1423.4639 186.521 163.4466
v -1422.6875 192.9854 162.471
v -1422.6875 192.9854 230.3676
v -1423.4639 186.521 229.392
v -1416.7349 213.2486 155.4631
v -1416.7349 213.2486 237.3759
v -1416.7349 208.8856 237.4178
v -1416.7349 208.8856 155.4212
v -1417.4702 213.2486 238.2489
v -1430.3052 213.2486 238.2489
v -1430.3052 208.8856 238.2489
v -1417.4351 208.8856 238.2489
v -1424.7788 182.6523 163.2538
v -1430.3052 182.6523 163.2538
v -1430.3052 184.5866 160.6466
v -1422.6553 184.5866 160.6466
v -1424.0332 182.6523 164.1391
v -1421.8369 184.5866 161.618
v -1421.8369 184.5866 231.2209
v -1424.0332 182.6523 228.6997
v -1417.4702 213.2486 154.5903
v -1430.3052 213.2486 154.5903
v -1430.3052 215.4302 152.1618
v -1415.5029 215.4302 152.1618
v -1414.6899 215.4302 153.1272
v -1414.6899 215.4302 239.7117
v -1430.3052 217.6117 154.5903
v -1417.5483 217.6117 154.5903
v -1416.7349 217.6117 155.5553
v -1416.7349 217.6116 237.2837
v -1420.7729 201.9843 158.5361
v -1430.3052 201.9843 158.5361
v -1430.3052 208.8856 154.5903
v -1417.4351 208.8856 154.5903
v -1420.0591 201.9843 159.3835
v -1420.0591 201.9843 233.4554
v -1423.3735 192.9854 231.1826
v -1424.1953 186.521 230.2609
v -1422.6553 184.5866 232.192
v -1424.7788 182.6523 229.5852
v -1415.5029 215.4302 240.6772
v -1417.5483 217.6116 238.2489
v -1420.7729 201.9843 234.3028
v -1430.3052 217.6116 238.2489
v -1430.3052 192.9854 231.1826
v -1430.3052 186.521 230.2609
v -1430.3052 184.5866 232.1922
v -1430.3052 182.6523 229.5854
v -1430.3052 215.4302 240.6772
v -1430.3052 201.9843 234.3028
gi 0 0 0 0
gi 0 0 0 0
gi 0 0 0 0
gi 0 0 0 0
gi 0 0 0 0
gi 0 0 0 0
gi 0 0 0 0
gi 0 0 0 0
gi 0 0 0 0
gi 0 0 0 0
gi 0 0 0 0
gi 0 0 0 0
gi 0 0 0 0
gi 0 0 0 0
gi 0 0 0 0
gi 0 0 0 0
gi 0 0 0 0
gi 0 0 0 0
gi 0 0 0 0
gi 0 0 0 0
gi 0 0 0 0
gi 0 0 0 0
gi 0 0 0 0
gi 0 0 0 0
gi 0 0 0 0
gi 0 0 0 0
gi 0 0 0 0
gi 0 0 0 0
gi 0 0 0 0
gi 0 0 0 0
gi 0 0 0 0
gi 0 0 0 0
gi 0 0 0 0
gi 0 0 0 0
gi 0 0 0 0
gi 0 0 0 0
gi 0 0 0 0
gi 0 0 0 0
gi 0 0 0 0
gi 0 0 0 0
gi 0 0 0 0
gi 0 0 0 0
gi 0 0 0 0
gi 0 0 0 0
gi 0 0 0 0
gi 0 0 0 0
gi 0 0 0 0
gi 0 0 0 0
gi 0 0 0 0
gi 0 0 0 0
gi 0 0 0 0
gi 0 0 0 0
gi 0 0 0 0
gi 0 0 0 0
gw 0.0 0.0 0.0 0.0
gw 0.0 0.0 0.0 0.0
gw 0.0 0.0 0.0 0.0
gw 0.0 0.0 0.0 0.0
gw 0.0 0.0 0.0 0.0
gw 0.0 0.0 0.0 0.0
gw 0.0 0.0 0.0 0.0
gw 0.0 0.0 0.0 0.0
gw 0.0 0.0 0.0 0.0
gw 0.0 0.0 0.0 0.0
gw 0.0 0.0 0.0 0.0
gw 0.0 0.0 0.0 0.0
gw 0.0 0.0 0.0 0.0
gw 0.0 0.0 0.0 0.0
gw 0.0 0.0 0.0 0.0
gw 0.0 0.0 0.0 0.0
gw 0.0 0.0 0.0 0.0
gw 0.0 0.0 0.0 0.0
gw 0.0 0.0 0.0 0.0
gw 0.0 0.0 0.0 0.0
gw 0.0 0.0 0.0 0.0
gw 0.0 0.0 0.0 0.0
gw 0.0 0.0 0.0 0.0
gw 0.0 0.0 0.0 0.0
gw 0.0 0.0 0.0 0.0
gw 0.0 0.0 0.0 0.0
gw 0.0 0.0 0.0 0.0
gw 0.0 0.0 0.0 0.0
gw 0.0 0.0 0.0 0.0
gw 0.0 0.0 0.0 0.0
gw 0.0 0.0 0.0 0.0
gw 0.0 0.0 0.0 0.0
gw 0.0 0.0 0.0 0.0
gw 0.0 0.0 0.0 0.0
gw 0.0 0.0 0.0 0.0
gw 0.0 0.0 0.0 0.0
gw 0.0 0.0 0.0 0.0
gw 0.0 0.0 0.0 0.0
gw 0.0 0.0 0.0 0.0
gw 0.0 0.0 0.0 0.0
gw 0.0 0.0 0.0 0.0
gw 0.0 0.0 0.0 0.0
gw 0.0 0.0 0.0 0.0
gw 0.0 0.0 0.0 0.0
gw 0.0 0.0 0.0 0.0
gw 0.0 0.0 0.0 0.0
gw 0.0 0.0 0.0 0.0
gw 0.0 0.0 0.0 0.0
gw 0.0 0.0 0.0 0.0
gw 0.0 0.0 0.0 0.0
gw 0.0 0.0 0.0 0.0
gw 0.0 0.0 0.0 0.0
gw 0.0 0.0 0.0 0.0
gw 0.0 0.0 0.0 0.0
vt 0.4476 0.6911
vt 0.2773 0.6911
vt 0.2773 0.6742
vt 0.4476 0.6742
vt 0.4453 0.6933
vt 0.2795 0.6933
vt 0.5504 0.8881
vt 0.5337 0.8881
vt 0.5337 0.9084
vt 0.5526 0.9084
vt 0.6076 0.8897
vt 0.6053 0.91
vt 0.7614 0.91
vt 0.7592 0.8897
vt 0.5892 0.9737
vt 0.7775 0.9737
vt 0.7776 0.96
vt 0.5891 0.96
vt 0.7937 0.9733
vt 0.8287 0.9733
vt 0.8287 0.9596
vt 0.7936 0.9596
vt 0.9865 0.7672
vt 0.9619 0.7672
vt 0.9632 0.7791
vt 0.9959 0.7791
vt 0.0112 0.7672
vt 0.0111 0.779
vt 0.2524 0.779
vt 0.2525 0.7672
vt 0.5546 0.882
vt 0.5337 0.882
vt 0.6034 0.8836
vt 0.7634 0.8836
vt 0.5687 0.9721
vt 0.5337 0.9721
vt 0.5337 0.979
vt 0.5741 0.979
vt 0.5839 0.9806
vt 0.7829 0.9806
vt 0.5337 0.9859
vt 0.5685 0.9859
vt 0.5894 0.9875
vt 0.7773 0.9875
vt 0.5597 0.9367
vt 0.5337 0.9367
vt 0.5337 0.9584
vt 0.5688 0.9584
vt 0.5982 0.9383
vt 0.7685 0.9383
vt 0.605 0.8907
vt 0.6028 0.9094
vt 0.8073 0.909
vt 0.8098 0.9096
vt 0.8121 0.8892
vt 0.8095 0.8902
vt 0.5867 0.9726
vt 0.5865 0.9593
vt 0.7912 0.9721
vt 0.791 0.9589
vt 0.6007 0.8862
vt 0.8079 0.8832
vt 0.8052 0.8857
vt 0.0079 0.7672
vt 0.0078 0.7789
vt 0.2558 0.7672
vt 0.2559 0.779
vt 0.5815 0.9806
vt 0.786 0.9801
vt 0.7884 0.9801
vt 0.5871 0.99
vt 0.7916 0.9896
vt 0.7939 0.987
vt 0.5957 0.9372
vt 0.8027 0.9379
vt 0.8002 0.9367
vt 0.1674 0.876
vt 0.1655 0.8746
vt 0.0109 0.8746
vt 0.0091 0.8976
vt 0.0091 0.876
vt 0.1674 0.8976
vt 0.8287 0.9096
vt 0.8287 0.8892
vt 0.2874 0.779
vt 0.2803 0.7672
vt 0.8287 0.8832
vt 0.8287 0.9801
vt 0.8287 0.987
vt 0.8287 0.9379
vn 0.0 -1.0 0.0
vn 0.3529 0.3982 -0.8467
vn 0.0 0.316 -0.9488
vn 0.0 -0.2354 -0.9719
vn 0.3927 -0.2994 -0.8696
vn 0.8967 0.3533 -0.2665
vn 0.9104 -0.267 -0.3159
vn 0.9105 -0.267 0.3158
vn 0.8967 0.3534 0.2665
vn 0.8514 -0.455 -0.261
vn 0.8514 -0.455 0.261
vn 0.895 -0.273 0.3526
vn 0.895 -0.273 -0.3527
vn 0.3354 -0.5075 0.7937
vn 0.0 -0.4072 0.9133
vn 0.0 -0.2568 0.9665
vn 0.4175 -0.2861 0.8625
vn 0.1148 -0.9416 -0.3164
vn 0.0002 -0.9495 -0.3139
vn 0.0 -0.0739 -0.9973
vn 0.4573 -0.0595 -0.8873
vn 0.3562 -0.9309 -0.0808
vn 0.911 -0.0637 -0.4075
vn 0.911 -0.0637 0.4076
vn 0.3562 -0.9309 0.0807
vn 0.3354 -0.5075 -0.7937
vn 0.0 -0.4073 -0.9133
vn 0.0 0.0 -1.0
vn 0.46 0.0025 -0.8879
vn 0.9121 0.0031 -0.4099
vn 0.9121 0.0031 0.4099
vn -0.0 0.9338 -0.3578
vn 0.1314 0.9234 -0.3607
vn 0.4011 0.9113 -0.0932
vn 0.4011 0.9113 0.0932
vn 0.3492 -0.5056 -0.7889
vn 0.0 -0.4138 -0.9104
vn 0.0 -0.2568 -0.9665
vn 0.4174 -0.2861 -0.8625
vn 0.8417 -0.4587 -0.285
vn 0.8417 -0.4587 0.285
vn 0.3929 -0.2994 0.8695
vn 0.3529 0.3982 0.8467
vn 0.4573 -0.0594 0.8873
vn 0.1148 -0.9416 0.3165
vn 0.4601 0.0025 0.8879
vn 0.1314 0.9234 0.3607
vn 0.3492 -0.5057 0.7889
vn 0.0 0.9338 0.3578
vn 0.0 -0.2355 0.9719
vn 0.0 0.316 0.9488
vn 0.0 -0.0739 0.9973
vn -0.0 -0.9494 0.3139
vn 0.0 0.0 1.0
vn 0.0 -0.4138 0.9104
vtan 0.0 0.0 -1.0
vtan 0.9357 -0.1502 0.3193
vtan 1.0 0.0 0.0
vtan 0.9197 0.1278 0.3713
vtan 0.2397 0.1185 0.9636
vtan 0.3054 -0.0814 0.9488
vtan -0.303 0.0889 0.9488
vtan -0.2479 -0.0977 0.9638
vtan 0.2257 -0.1314 0.9653
vtan -0.2302 0.123 0.9653
vtan -0.3373 0.1029 0.9358
vtan 0.3317 -0.1211 0.9356
vtan -0.9407 -0.1345 0.3115
vtan -1.0 0.0 0.0
vtan -0.9087 -0.1228 0.3991
vtan 0.9934 0.1088 0.0366
vtan 1.0 0.0001 0.0
vtan 0.8893 0.0306 0.4563
vtan 0.2602 0.0158 0.9654
vtan 0.4081 -0.0043 0.9129
vtan -0.4086 -0.0038 0.9127
vtan -0.2602 -0.0158 0.9654
vtan 0.4084 0.2775 0.8696
vtan -0.4066 0.0284 0.9132
vtan 0.9421 0.1806 0.2825
vtan 0.8879 -0.0013 0.46
vtan 0.4099 0.0144 0.912
vtan -0.4099 -0.0014 0.9121
vtan 1.0 0.0 -0.0
vtan 0.9913 -0.1224 0.0478
vtan -0.0092 0.1058 0.9943
vtan -0.0375 -0.0853 0.9956
vtan 0.937 0.1884 0.294
vtan 0.9087 0.1314 0.3962
vtan 0.2449 -0.146 0.9585
vtan -0.2502 0.1364 0.9585
vtan 0.6806 0.5118 0.5243
vtan 0.811 -0.3331 0.4809
vtan -0.3842 -0.2637 0.8848
vtan -0.9192 -0.0985 0.3814
vtan -0.9354 0.1727 0.3086
vtan -0.4242 0.5148 0.745
vtan 0.6636 -0.4707 0.5814
vtan 0.7995 -0.3355 0.4982
vtan -0.4826 -0.4843 0.7298
vtan -0.4293 -0.3134 0.847
vtan 0.6112 0.7458 0.265
vtan -0.8449 0.2823 0.4543
vtan -0.2829 0.6226 0.7296
vtan 0.6696 -0.1619 0.7249
vtan 0.8871 -0.0404 0.4599
vtan -0.9274 0.0126 0.3739
vtan -0.8888 0.0028 0.4582
vtan 0.8879 0.001 0.46
vtan -0.4098 0.0329 0.9116
vtan -0.8879 -0.0001 0.4601
vtan 0.1605 0.3392 0.9269
vtan -0.9048 0.3783 0.1956
vtan -0.9883 0.0934 0.1209
vtan 0.6357 -0.4907 0.5959
vtan -0.9368 -0.1684 0.3067
vtan -0.5065 -0.4876 0.7111
vtan -0.0508 -0.3571 0.9327
vtan 0.0339 0.0869 0.9956
vtan -0.0005 0.3578 0.9338
vtan 0.0363 0.3591 0.9326
vtan 0.0 -0.3578 0.9338
vtan -1.0 0.0 0.0
vtan -1.0 0.0 0.0
vtan -1.0 -0.0 0.0
f 16/0/0/0 43/1/0/0 51/2/0/0 
f 16/0/0/0 51/2/0/0 17/3/0/0 
f 43/1/0/0 16/0/0/0 20/4/0/0 
f 43/1/0/0 20/4/0/0 23/5/0/0 
f 0/6/1/1 1/7/2/2 2/8/3/2 
f 0/6/1/1 2/8/3/2 3/9/4/3 
f 4/10/5/4 5/11/6/5 6/12/7/6 
f 4/10/5/4 6/12/7/6 7/13/8/7 
f 8/14/9/8 9/15/10/9 10/16/11/10 
f 8/14/9/8 10/16/11/10 11/17/12/11 
f 12/18/13/12 13/19/14/13 14/20/15/13 
f 12/18/13/12 14/20/15/13 15/21/16/14 
f 16/22/17/15 17/23/18/16 18/24/19/2 
f 16/22/17/15 18/24/19/2 19/25/20/17 
f 20/26/21/18 21/27/22/19 22/28/23/20 
f 20/26/21/18 22/28/23/20 23/29/24/21 
f 0/6/1/1 19/30/20/17 18/31/19/2 
f 0/6/1/1 18/31/19/2 1/7/2/2 
f 21/32/22/22 4/10/5/4 7/13/8/7 
f 21/32/22/22 7/13/8/7 22/33/23/23 
f 24/34/25/24 25/35/26/2 26/36/27/2 
f 24/34/25/24 26/36/27/2 27/37/28/25 
f 8/14/9/8 28/38/29/26 29/39/30/27 
f 8/14/9/8 29/39/30/27 9/15/10/9 
f 26/36/27/2 30/40/31/28 31/41/32/29 
f 26/36/27/2 31/41/32/29 27/37/28/25 
f 28/38/29/26 32/42/33/30 33/43/34/31 
f 28/38/29/26 33/43/34/31 29/39/30/27 
f 34/44/35/32 35/45/36/2 36/46/37/2 
f 34/44/35/32 36/46/37/2 37/47/38/33 
f 38/48/39/34 11/17/12/11 10/16/11/10 
f 38/48/39/34 10/16/11/10 39/49/40/35 
f 3/9/4/3 2/8/3/2 35/45/36/2 
f 3/9/4/3 35/45/36/2 34/44/35/32 
f 5/11/6/5 38/48/39/34 39/49/40/35 
f 5/11/6/5 39/49/40/35 6/12/7/6 
f 0/50/1/36 3/51/4/37 5/11/6/5 
f 0/50/1/36 5/11/6/5 4/10/5/4 
f 6/52/7/38 40/53/41/39 41/54/42/40 
f 6/52/7/38 41/54/42/40 7/55/8/41 
f 24/56/25/42 8/14/9/8 11/17/12/11 
f 24/56/25/42 11/17/12/11 37/57/38/43 
f 9/58/10/44 12/18/13/12 15/21/16/14 
f 9/58/10/44 15/21/16/14 10/59/11/45 
f 0/50/1/36 4/10/5/4 21/32/22/22 
f 0/50/1/36 21/32/22/22 19/60/20/46 
f 41/54/42/40 42/61/43/47 22/62/23/48 
f 41/54/42/40 22/62/23/48 7/55/8/41 
f 21/27/22/19 20/26/21/18 16/63/17/49 
f 21/27/22/19 16/63/17/49 19/64/20/50 
f 43/65/44/51 23/29/24/21 22/28/23/20 
f 43/65/44/51 22/28/23/20 42/66/43/52 
f 24/56/25/42 27/67/28/53 28/38/29/26 
f 24/56/25/42 28/38/29/26 8/14/9/8 
f 29/68/30/54 44/69/45/55 12/18/13/12 
f 29/68/30/54 12/18/13/12 9/58/10/44 
f 31/70/32/56 32/42/33/30 28/38/29/26 
f 31/70/32/56 28/38/29/26 27/67/28/53 
f 29/68/30/54 33/71/34/57 45/72/46/58 
f 29/68/30/54 45/72/46/58 44/69/45/55 
f 34/73/35/59 37/57/38/43 11/17/12/11 
f 34/73/35/59 11/17/12/11 38/48/39/34 
f 10/59/11/45 15/21/16/14 46/74/47/60 
f 10/59/11/45 46/74/47/60 39/75/40/61 
f 3/51/4/37 34/73/35/59 38/48/39/34 
f 3/51/4/37 38/48/39/34 5/11/6/5 
f 39/75/40/61 46/74/47/60 40/53/41/39 
f 39/75/40/61 40/53/41/39 6/52/7/38 
f 45/76/46/62 33/77/34/31 32/78/33/63 
f 45/76/46/62 32/78/33/63 30/79/31/64 
f 32/78/33/63 31/80/32/65 30/79/31/64 
f 47/81/48/66 45/76/46/62 30/79/31/64 
f 41/54/42/40 40/53/41/39 48/82/49/13 
f 41/54/42/40 48/82/49/13 49/83/50/13 
f 24/34/25/24 37/47/38/33 36/46/37/2 
f 24/34/25/24 36/46/37/2 25/35/26/2 
f 43/65/44/51 42/66/43/52 50/84/51/67 
f 43/65/44/51 50/84/51/67 51/85/52/68 
f 50/86/51/69 42/61/43/47 41/54/42/40 
f 50/86/51/69 41/54/42/40 49/83/50/13 
f 12/18/13/12 44/69/45/55 52/87/53/13 
f 12/18/13/12 52/87/53/13 13/19/14/13 
f 52/87/53/13 44/69/45/55 45/72/46/58 
f 52/87/53/13 45/72/46/58 47/88/48/13 
f 46/74/47/60 15/21/16/14 14/20/15/13 
f 46/74/47/60 14/20/15/13 53/89/54/13 
f 40/53/41/39 46/74/47/60 53/89/54/13 
f 40/53/41/39 53/89/54/13 48/82/49/13 
