v 892.6568 693.9514 225.2954
v 892.6568 921.7285 225.2955
v 862.3293 693.7667 225.2954
v 843.4243 763.7076 225.2954
v 806.4075 796.7444 225.2954
v 764.219 921.7285 225.2955
v 764.219 818.829 225.2954
v 685.0137 763.7076 225.2954
v 722.0305 796.7444 225.2954
v 677.2706 921.7285 225.2955
v 677.2706 735.0615 225.2954
v 511.1169 764.7925 225.2954
v 548.1337 800.4415 225.2954
v 493.6741 921.7285 225.2955
v 491.6859 717.5187 225.2954
v 590.3223 818.829 225.2954
v 590.3223 921.7285 225.2955
v 669.5276 763.7076 225.2954
v 632.5108 796.7444 225.2954
v 479.9337 744.6605 225.2954
v 452.7573 784.9489 225.2954
v 415.6739 810.1027 225.2954
v 392.2671 921.7285 225.2955
v 392.2671 820.7097 225.2954
v 306.2191 921.7285 225.2955
v 373.3855 814.6663 225.2954
v 332.9428 786.5311 225.2954
v 306.2191 752.4521 225.2954
v 281.4463 776.5656 225.2954
v 250.4299 802.8395 225.2954
v 219.4135 921.7285 225.2955
v 219.4135 815.7932 225.2954
v 121.1176 921.7285 225.2955
v 183.6829 799.5222 225.2954
v 147.9523 766.3126 225.2954
v 121.1176 711.5568 225.2953
v 91.282 776.2733 225.2954
v 52.3929 803.3853 225.2954
v 22.5573 921.7285 225.2955
v 22.5573 818.286 225.2954
v -66.8607 921.7285 225.2955
v -3.6602 805.0369 225.2953
v -36.8143 781.2202 225.2953
v -66.8582 751.7426 225.2953
v 892.6568 694.0199 171.3875
v 892.6568 813.922 61.1567
v 892.6568 785.9972 2.8229
v 892.6568 921.7285 -36.0061
v 892.6568 921.7285 61.1567
v 892.6568 785.9972 119.4905
v 892.6568 748.168 -26.3441
v 892.6568 748.168 148.6574
v 892.6568 733.5838 -36.0061
v 892.6568 693.9515 -295.494
v 862.3293 693.7668 -295.494
v 892.6568 921.7286 -295.494
v 843.4243 763.7078 -295.494
v 806.4075 796.7444 -295.494
v 764.219 818.8292 -295.494
v 764.219 921.7286 -295.494
v 685.0137 763.7078 -295.494
v 677.2706 921.7286 -295.494
v 722.0305 796.7444 -295.494
v 677.2706 735.0616 -295.494
v 511.1169 764.7927 -295.494
v 493.6741 921.7286 -295.494
v 548.1337 800.4416 -295.494
v 491.6859 717.5189 -295.494
v 590.3223 921.7286 -295.494
v 590.3223 818.8292 -295.494
v 669.5276 763.7078 -295.494
v 632.5108 796.7444 -295.494
v 479.9337 744.6606 -295.494
v 452.7573 784.949 -295.494
v 415.6739 810.1028 -295.494
v 392.2671 820.7098 -295.494
v 392.2671 921.7286 -295.494
v 373.3855 814.6663 -295.494
v 306.2191 921.7286 -295.494
v 332.9428 786.5312 -295.494
v 306.2191 752.4523 -295.494
v 281.4463 776.5657 -295.494
v 250.4299 802.8395 -295.494
v 219.4135 815.7933 -295.494
v 219.4135 921.7286 -295.494
v 183.6829 799.5223 -295.494
v 121.1176 921.7286 -295.494
v 147.9523 766.3127 -295.494
v 121.1176 711.5569 -295.494
v 91.2819 776.2734 -295.494
v 52.3929 803.3854 -295.494
v 22.5573 818.2861 -295.494
v 22.5573 921.7286 -295.494
v -3.6602 805.037 -295.4939
v -66.8582 921.7286 -295.494
v -36.8143 781.2203 -295.4939
v -62.9382 751.7427 -295.4939
v 892.6568 694.02 -240.7138
v 892.6568 785.9972 -74.8351
v 892.6568 813.922 -133.1689
v 892.6568 921.7285 -133.1689
v 892.6568 785.9973 -191.5027
v 892.6568 748.168 -45.6682
v 892.6568 748.1681 -220.6697
v -1022.5669 693.9514 225.2954
v -996.0457 693.7667 225.2954
v -1022.5669 921.7285 225.2955
v -971.5663 763.7076 225.2954
v -940.124 796.7444 225.2954
v -897.9355 818.829 225.2954
v -897.9355 921.7285 225.2955
v -818.7301 763.7076 225.2954
v -810.9871 921.7285 225.2955
v -855.7468 796.7444 225.2954
v -807.9924 735.0615 225.2954
v -644.8334 764.7925 225.2954
v -627.3905 921.7285 225.2955
v -681.8501 800.4415 225.2954
v -618.8748 717.5187 225.2954
v -724.0387 921.7285 225.2955
v -724.0387 818.829 225.2954
v -794.922 763.7076 225.2954
v -766.2273 796.7444 225.2954
v -608.3136 744.6605 225.2954
v -583.5211 784.9489 225.2954
v -549.3904 810.1027 225.2954
v -525.9836 820.7097 225.2954
v -525.9836 921.7285 225.2955
v -507.1019 814.6663 225.2954
v -439.9355 921.7285 225.2955
v -466.6592 786.5311 225.2954
v -432.5942 752.4521 225.2954
v -415.1627 776.5656 225.2954
v -384.1462 802.8395 225.2954
v -353.1299 815.7932 225.2954
v -353.1299 921.7285 225.2955
v -317.3993 799.5222 225.2954
v -254.834 921.7285 225.2955
v -281.6687 766.3126 225.2954
v -250.2687 711.5568 225.2954
v -219.8564 776.2733 225.2954
v -186.1094 803.3853 225.2954
v -156.2737 818.286 225.2954
v -156.2737 921.7285 225.2955
v -130.0563 805.0369 225.2953
v -96.9022 781.2202 225.2953
v -1022.5669 694.0199 171.3875
v -1022.5669 921.7285 -36.0061
v -1022.5669 785.9972 2.8229
v -1022.5669 813.922 61.1567
v -1022.5669 921.7285 61.1567
v -1022.5669 785.9972 119.4905
v -1022.5669 748.168 -26.3441
v -1022.5669 748.168 148.6574
v -1022.5669 733.5838 -36.0061
v -1022.5669 693.9515 -295.494
v -1022.5669 921.7286 -295.494
v -996.0457 693.7668 -295.494
v -977.1409 763.7078 -295.494
v -940.124 796.7444 -295.494
v -897.9355 921.7286 -295.494
v -897.9355 818.8292 -295.494
v -818.7301 763.7078 -295.494
v -855.7468 796.7444 -295.494
v -810.9871 921.7286 -295.494
v -810.9871 735.0616 -295.494
v -644.8334 764.7927 -295.494
v -681.8501 800.4416 -295.494
v -627.3905 921.7286 -295.494
v -619.2155 717.5189 -295.494
v -724.0387 818.8292 -295.494
v -724.0387 921.7286 -295.494
v -796.8416 763.7078 -295.494
v -766.2273 796.7444 -295.494
v -609.1261 744.6606 -295.494
v -582.7922 784.949 -295.494
v -549.3904 810.1028 -295.494
v -525.9836 921.7286 -295.494
v -525.9836 820.7098 -295.494
v -439.9355 921.7286 -295.494
v -507.1019 814.6663 -295.494
v -466.6592 786.5312 -295.494
v -433.7548 752.4523 -295.494
v -415.1627 776.5657 -295.494
v -384.1462 802.8395 -295.494
v -353.1299 921.7286 -295.494
v -353.1299 815.7933 -295.494
v -254.834 921.7286 -295.494
v -317.3993 799.5223 -295.494
v -281.6687 766.3127 -295.494
v -249.0409 711.5569 -295.494
v -219.8422 776.2734 -295.494
v -186.1094 803.3854 -295.494
v -156.2737 921.7286 -295.494
v -156.2737 818.2861 -295.494
v -130.0563 805.037 -295.4939
v -96.9022 781.2203 -295.4939
v -1022.5669 694.02 -240.7138
v -1022.5669 813.922 -133.1689
v -1022.5669 785.9972 -74.8351
v -1022.5669 921.7285 -133.1689
v -1022.5669 785.9973 -191.5027
v -1022.5669 748.168 -45.6682
v -1022.5669 748.1681 -220.6696
gi 0 0 0 0
gw 0.0 0.0 0.0 0.0
gi 0 0 0 0
gw 0.0 0.0 0.0 0.0
gi 0 0 0 0
gw 0.0 0.0 0.0 0.0
gi 0 0 0 0
gw 0.0 0.0 0.0 0.0
gi 0 0 0 0
gw 0.0 0.0 0.0 0.0
gi 0 0 0 0
gw 0.0 0.0 0.0 0.0
gi 0 0 0 0
gw 0.0 0.0 0.0 0.0
gi 0 0 0 0
gw 0.0 0.0 0.0 0.0
gi 0 0 0 0
gw 0.0 0.0 0.0 0.0
gi 0 0 0 0
gw 0.0 0.0 0.0 0.0
gi 0 0 0 0
gw 0.0 0.0 0.0 0.0
gi 0 0 0 0
gw 0.0 0.0 0.0 0.0
gi 0 0 0 0
gw 0.0 0.0 0.0 0.0
gi 0 0 0 0
gw 0.0 0.0 0.0 0.0
gi 0 0 0 0
gw 0.0 0.0 0.0 0.0
gi 0 0 0 0
gw 0.0 0.0 0.0 0.0
gi 0 0 0 0
gw 0.0 0.0 0.0 0.0
gi 0 0 0 0
gw 0.0 0.0 0.0 0.0
gi 0 0 0 0
gw 0.0 0.0 0.0 0.0
gi 0 0 0 0
gw 0.0 0.0 0.0 0.0
gi 0 0 0 0
gw 0.0 0.0 0.0 0.0
gi 0 0 0 0
gw 0.0 0.0 0.0 0.0
gi 0 0 0 0
gw 0.0 0.0 0.0 0.0
gi 0 0 0 0
gw 0.0 0.0 0.0 0.0
gi 0 0 0 0
gw 0.0 0.0 0.0 0.0
gi 0 0 0 0
gw 0.0 0.0 0.0 0.0
gi 0 0 0 0
gw 0.0 0.0 0.0 0.0
gi 0 0 0 0
gw 0.0 0.0 0.0 0.0
gi 0 0 0 0
gw 0.0 0.0 0.0 0.0
gi 0 0 0 0
gw 0.0 0.0 0.0 0.0
gi 0 0 0 0
gw 0.0 0.0 0.0 0.0
gi 0 0 0 0
gw 0.0 0.0 0.0 0.0
gi 0 0 0 0
gw 0.0 0.0 0.0 0.0
gi 0 0 0 0
gw 0.0 0.0 0.0 0.0
gi 0 0 0 0
gw 0.0 0.0 0.0 0.0
gi 0 0 0 0
gw 0.0 0.0 0.0 0.0
gi 0 0 0 0
gw 0.0 0.0 0.0 0.0
gi 0 0 0 0
gw 0.0 0.0 0.0 0.0
gi 0 0 0 0
gw 0.0 0.0 0.0 0.0
gi 0 0 0 0
gw 0.0 0.0 0.0 0.0
gi 0 0 0 0
gw 0.0 0.0 0.0 0.0
gi 0 0 0 0
gw 0.0 0.0 0.0 0.0
gi 0 0 0 0
gw 0.0 0.0 0.0 0.0
gi 0 0 0 0
gw 0.0 0.0 0.0 0.0
gi 0 0 0 0
gw 0.0 0.0 0.0 0.0
gi 0 0 0 0
gw 0.0 0.0 0.0 0.0
gi 0 0 0 0
gw 0.0 0.0 0.0 0.0
gi 0 0 0 0
gw 0.0 0.0 0.0 0.0
gi 0 0 0 0
gw 0.0 0.0 0.0 0.0
gi 0 0 0 0
gw 0.0 0.0 0.0 0.0
gi 0 0 0 0
gw 0.0 0.0 0.0 0.0
gi 0 0 0 0
gw 0.0 0.0 0.0 0.0
gi 0 0 0 0
gw 0.0 0.0 0.0 0.0
gi 0 0 0 0
gw 0.0 0.0 0.0 0.0
gi 0 0 0 0
gw 0.0 0.0 0.0 0.0
gi 0 0 0 0
gw 0.0 0.0 0.0 0.0
gi 0 0 0 0
gw 0.0 0.0 0.0 0.0
gi 0 0 0 0
gw 0.0 0.0 0.0 0.0
gi 0 0 0 0
gw 0.0 0.0 0.0 0.0
gi 0 0 0 0
gw 0.0 0.0 0.0 0.0
gi 0 0 0 0
gw 0.0 0.0 0.0 0.0
gi 0 0 0 0
gw 0.0 0.0 0.0 0.0
gi 0 0 0 0
gw 0.0 0.0 0.0 0.0
gi 0 0 0 0
gw 0.0 0.0 0.0 0.0
gi 0 0 0 0
gw 0.0 0.0 0.0 0.0
gi 0 0 0 0
gw 0.0 0.0 0.0 0.0
gi 0 0 0 0
gw 0.0 0.0 0.0 0.0
gi 0 0 0 0
gw 0.0 0.0 0.0 0.0
gi 0 0 0 0
gw 0.0 0.0 0.0 0.0
gi 0 0 0 0
gw 0.0 0.0 0.0 0.0
gi 0 0 0 0
gw 0.0 0.0 0.0 0.0
gi 0 0 0 0
gw 0.0 0.0 0.0 0.0
gi 0 0 0 0
gw 0.0 0.0 0.0 0.0
gi 0 0 0 0
gw 0.0 0.0 0.0 0.0
gi 0 0 0 0
gw 0.0 0.0 0.0 0.0
gi 0 0 0 0
gw 0.0 0.0 0.0 0.0
gi 0 0 0 0
gw 0.0 0.0 0.0 0.0
gi 0 0 0 0
gw 0.0 0.0 0.0 0.0
gi 0 0 0 0
gw 0.0 0.0 0.0 0.0
gi 0 0 0 0
gw 0.0 0.0 0.0 0.0
gi 0 0 0 0
gw 0.0 0.0 0.0 0.0
gi 0 0 0 0
gw 0.0 0.0 0.0 0.0
gi 0 0 0 0
gw 0.0 0.0 0.0 0.0
gi 0 0 0 0
gw 0.0 0.0 0.0 0.0
gi 0 0 0 0
gw 0.0 0.0 0.0 0.0
gi 0 0 0 0
gw 0.0 0.0 0.0 0.0
gi 0 0 0 0
gw 0.0 0.0 0.0 0.0
gi 0 0 0 0
gw 0.0 0.0 0.0 0.0
gi 0 0 0 0
gw 0.0 0.0 0.0 0.0
gi 0 0 0 0
gw 0.0 0.0 0.0 0.0
gi 0 0 0 0
gw 0.0 0.0 0.0 0.0
gi 0 0 0 0
gw 0.0 0.0 0.0 0.0
gi 0 0 0 0
gw 0.0 0.0 0.0 0.0
gi 0 0 0 0
gw 0.0 0.0 0.0 0.0
gi 0 0 0 0
gw 0.0 0.0 0.0 0.0
gi 0 0 0 0
gw 0.0 0.0 0.0 0.0
gi 0 0 0 0
gw 0.0 0.0 0.0 0.0
gi 0 0 0 0
gw 0.0 0.0 0.0 0.0
gi 0 0 0 0
gw 0.0 0.0 0.0 0.0
gi 0 0 0 0
gw 0.0 0.0 0.0 0.0
gi 0 0 0 0
gw 0.0 0.0 0.0 0.0
gi 0 0 0 0
gw 0.0 0.0 0.0 0.0
gi 0 0 0 0
gw 0.0 0.0 0.0 0.0
gi 0 0 0 0
gw 0.0 0.0 0.0 0.0
gi 0 0 0 0
gw 0.0 0.0 0.0 0.0
gi 0 0 0 0
gw 0.0 0.0 0.0 0.0
gi 0 0 0 0
gw 0.0 0.0 0.0 0.0
gi 0 0 0 0
gw 0.0 0.0 0.0 0.0
gi 0 0 0 0
gw 0.0 0.0 0.0 0.0
gi 0 0 0 0
gw 0.0 0.0 0.0 0.0
gi 0 0 0 0
gw 0.0 0.0 0.0 0.0
gi 0 0 0 0
gw 0.0 0.0 0.0 0.0
gi 0 0 0 0
gw 0.0 0.0 0.0 0.0
gi 0 0 0 0
gw 0.0 0.0 0.0 0.0
gi 0 0 0 0
gw 0.0 0.0 0.0 0.0
gi 0 0 0 0
gw 0.0 0.0 0.0 0.0
gi 0 0 0 0
gw 0.0 0.0 0.0 0.0
gi 0 0 0 0
gw 0.0 0.0 0.0 0.0
gi 0 0 0 0
gw 0.0 0.0 0.0 0.0
gi 0 0 0 0
gw 0.0 0.0 0.0 0.0
gi 0 0 0 0
gw 0.0 0.0 0.0 0.0
gi 0 0 0 0
gw 0.0 0.0 0.0 0.0
gi 0 0 0 0
gw 0.0 0.0 0.0 0.0
gi 0 0 0 0
gw 0.0 0.0 0.0 0.0
gi 0 0 0 0
gw 0.0 0.0 0.0 0.0
gi 0 0 0 0
gw 0.0 0.0 0.0 0.0
gi 0 0 0 0
gw 0.0 0.0 0.0 0.0
gi 0 0 0 0
gw 0.0 0.0 0.0 0.0
gi 0 0 0 0
gw 0.0 0.0 0.0 0.0
gi 0 0 0 0
gw 0.0 0.0 0.0 0.0
gi 0 0 0 0
gw 0.0 0.0 0.0 0.0
gi 0 0 0 0
gw 0.0 0.0 0.0 0.0
gi 0 0 0 0
gw 0.0 0.0 0.0 0.0
gi 0 0 0 0
gw 0.0 0.0 0.0 0.0
gi 0 0 0 0
gw 0.0 0.0 0.0 0.0
gi 0 0 0 0
gw 0.0 0.0 0.0 0.0
gi 0 0 0 0
gw 0.0 0.0 0.0 0.0
gi 0 0 0 0
gw 0.0 0.0 0.0 0.0
gi 0 0 0 0
gw 0.0 0.0 0.0 0.0
gi 0 0 0 0
gw 0.0 0.0 0.0 0.0
gi 0 0 0 0
gw 0.0 0.0 0.0 0.0
gi 0 0 0 0
gw 0.0 0.0 0.0 0.0
gi 0 0 0 0
gw 0.0 0.0 0.0 0.0
gi 0 0 0 0
gw 0.0 0.0 0.0 0.0
gi 0 0 0 0
gw 0.0 0.0 0.0 0.0
gi 0 0 0 0
gw 0.0 0.0 0.0 0.0
gi 0 0 0 0
gw 0.0 0.0 0.0 0.0
gi 0 0 0 0
gw 0.0 0.0 0.0 0.0
gi 0 0 0 0
gw 0.0 0.0 0.0 0.0
gi 0 0 0 0
gw 0.0 0.0 0.0 0.0
gi 0 0 0 0
gw 0.0 0.0 0.0 0.0
gi 0 0 0 0
gw 0.0 0.0 0.0 0.0
gi 0 0 0 0
gw 0.0 0.0 0.0 0.0
gi 0 0 0 0
gw 0.0 0.0 0.0 0.0
gi 0 0 0 0
gw 0.0 0.0 0.0 0.0
gi 0 0 0 0
gw 0.0 0.0 0.0 0.0
gi 0 0 0 0
gw 0.0 0.0 0.0 0.0
gi 0 0 0 0
gw 0.0 0.0 0.0 0.0
gi 0 0 0 0
gw 0.0 0.0 0.0 0.0
gi 0 0 0 0
gw 0.0 0.0 0.0 0.0
gi 0 0 0 0
gw 0.0 0.0 0.0 0.0
gi 0 0 0 0
gw 0.0 0.0 0.0 0.0
gi 0 0 0 0
gw 0.0 0.0 0.0 0.0
gi 0 0 0 0
gw 0.0 0.0 0.0 0.0
gi 0 0 0 0
gw 0.0 0.0 0.0 0.0
gi 0 0 0 0
gw 0.0 0.0 0.0 0.0
gi 0 0 0 0
gw 0.0 0.0 0.0 0.0
gi 0 0 0 0
gw 0.0 0.0 0.0 0.0
gi 0 0 0 0
gw 0.0 0.0 0.0 0.0
gi 0 0 0 0
gw 0.0 0.0 0.0 0.0
gi 0 0 0 0
gw 0.0 0.0 0.0 0.0
gi 0 0 0 0
gw 0.0 0.0 0.0 0.0
gi 0 0 0 0
gw 0.0 0.0 0.0 0.0
gi 0 0 0 0
gw 0.0 0.0 0.0 0.0
gi 0 0 0 0
gw 0.0 0.0 0.0 0.0
gi 0 0 0 0
gw 0.0 0.0 0.0 0.0
gi 0 0 0 0
gw 0.0 0.0 0.0 0.0
gi 0 0 0 0
gw 0.0 0.0 0.0 0.0
gi 0 0 0 0
gw 0.0 0.0 0.0 0.0
gi 0 0 0 0
gw 0.0 0.0 0.0 0.0
gi 0 0 0 0
gw 0.0 0.0 0.0 0.0
gi 0 0 0 0
gw 0.0 0.0 0.0 0.0
gi 0 0 0 0
gw 0.0 0.0 0.0 0.0
gi 0 0 0 0
gw 0.0 0.0 0.0 0.0
gi 0 0 0 0
gw 0.0 0.0 0.0 0.0
gi 0 0 0 0
gw 0.0 0.0 0.0 0.0
gi 0 0 0 0
gw 0.0 0.0 0.0 0.0
gi 0 0 0 0
gw 0.0 0.0 0.0 0.0
gi 0 0 0 0
gw 0.0 0.0 0.0 0.0
gi 0 0 0 0
gw 0.0 0.0 0.0 0.0
gi 0 0 0 0
gw 0.0 0.0 0.0 0.0
gi 0 0 0 0
gw 0.0 0.0 0.0 0.0
gi 0 0 0 0
gw 0.0 0.0 0.0 0.0
gi 0 0 0 0
gw 0.0 0.0 0.0 0.0
gi 0 0 0 0
gw 0.0 0.0 0.0 0.0
gi 0 0 0 0
gw 0.0 0.0 0.0 0.0
gi 0 0 0 0
gw 0.0 0.0 0.0 0.0
gi 0 0 0 0
gw 0.0 0.0 0.0 0.0
gi 0 0 0 0
gw 0.0 0.0 0.0 0.0
gi 0 0 0 0
gw 0.0 0.0 0.0 0.0
gi 0 0 0 0
gw 0.0 0.0 0.0 0.0
gi 0 0 0 0
gw 0.0 0.0 0.0 0.0
gi 0 0 0 0
gw 0.0 0.0 0.0 0.0
gi 0 0 0 0
gw 0.0 0.0 0.0 0.0
vt 16.1435 0.0012
vt 16.1435 1.5107
vt 15.9425 0.0
vt 15.8172 0.4635
vt 15.5719 0.6824
vt 15.2923 1.5107
vt 15.2923 0.8288
vt 14.7674 0.4635
vt 15.0128 0.6824
vt 14.7161 1.5107
vt 14.7161 0.2737
vt 13.615 0.4707
vt 13.8603 0.7069
vt 13.4994 1.5107
vt 13.4863 0.1574
vt 14.1399 0.8288
vt 14.1399 1.5107
vt 14.6648 0.4635
vt 14.4195 0.6824
vt 13.4084 0.3373
vt 13.2283 0.6043
vt 12.9825 0.771
vt 12.8274 1.5107
vt 12.8274 0.8413
vt 12.2572 1.5107
vt 12.7023 0.8012
vt 12.4343 0.6148
vt 12.2572 0.3889
vt 12.093 0.5487
vt 11.8874 0.7228
vt 11.6819 1.5107
vt 11.6819 0.8087
vt 11.0305 1.5107
vt 11.4451 0.7008
vt 11.2083 0.4808
vt 11.0305 0.1179
vt 10.8328 0.5468
vt 10.5751 0.7264
vt 10.3773 1.5107
vt 10.3773 0.8252
vt 9.7848 1.5107
vt 10.2036 0.7374
vt 9.9839 0.5796
vt 9.7848 0.3842
vt 16.5007 0.0017
vt 17.2312 0.7963
vt 17.6178 0.6112
vt 17.8751 1.5107
vt 17.2312 1.5107
vt 16.8447 0.6112
vt 17.8111 0.3605
vt 16.6514 0.3605
vt 17.8751 0.2639
vt 19.5948 0.0012
vt 19.7958 0.0
vt 19.5948 1.5107
vt 19.921 0.4635
vt 20.1664 0.6824
vt 20.4459 0.8288
vt 20.4459 1.5107
vt 20.9708 0.4635
vt 21.0221 1.5107
vt 20.7255 0.6824
vt 21.0221 0.2737
vt 22.1232 0.4707
vt 22.2388 1.5107
vt 21.8779 0.7069
vt 22.252 0.1574
vt 21.5984 1.5107
vt 21.5984 0.8288
vt 21.0735 0.4635
vt 21.3188 0.6824
vt 22.3299 0.3373
vt 22.51 0.6043
vt 22.7558 0.771
vt 22.9109 0.8413
vt 22.9109 1.5107
vt 23.036 0.8012
vt 23.4811 1.5107
vt 23.304 0.6148
vt 23.4811 0.3889
vt 23.6453 0.5487
vt 23.8508 0.7228
vt 24.0564 0.8087
vt 24.0564 1.5107
vt 24.2932 0.7008
vt 24.7078 1.5107
vt 24.5299 0.4808
vt 24.7078 0.1179
vt 24.9055 0.5468
vt 25.1632 0.7264
vt 25.3609 0.8252
vt 25.3609 1.5107
vt 25.5347 0.7374
vt 25.9535 1.5107
vt 25.7544 0.5796
vt 25.9275 0.3842
vt 19.2317 0.0017
vt 18.1325 0.6112
vt 18.519 0.7963
vt 18.519 1.5107
vt 18.9056 0.6112
vt 17.9392 0.3605
vt 19.0989 0.3605
vt 3.4513 0.0012
vt 3.627 0.0
vt 3.4513 1.5107
vt 3.7893 0.4635
vt 3.9976 0.6824
vt 4.2772 0.8288
vt 4.2772 1.5107
vt 4.8021 0.4635
vt 4.8534 1.5107
vt 4.5568 0.6824
vt 4.8733 0.2737
vt 5.9545 0.4707
vt 6.0701 1.5107
vt 5.7092 0.7069
vt 6.1266 0.1574
vt 5.4296 1.5107
vt 5.4296 0.8288
vt 4.9599 0.4635
vt 5.15 0.6824
vt 6.1965 0.3373
vt 6.3608 0.6043
vt 6.587 0.771
vt 6.7421 0.8413
vt 6.7421 1.5107
vt 6.8673 0.8012
vt 7.3124 1.5107
vt 7.1353 0.6148
vt 7.361 0.3889
vt 7.4766 0.5487
vt 7.6821 0.7228
vt 7.8876 0.8087
vt 7.8876 1.5107
vt 8.1244 0.7008
vt 8.5391 1.5107
vt 8.3612 0.4808
vt 8.5693 0.1179
vt 8.7709 0.5468
vt 8.9945 0.7264
vt 9.1922 0.8252
vt 9.1922 1.5107
vt 9.366 0.7374
vt 9.5857 0.5796
vt 3.094 0.0017
vt 1.7196 1.5107
vt 1.977 0.6112
vt 2.3635 0.7963
vt 2.3635 1.5107
vt 2.7501 0.6112
vt 1.7837 0.3605
vt 2.9434 0.3605
vt 1.7196 0.2639
vt 32.287 0.0012
vt 32.287 1.5107
vt 32.1112 0.0
vt 31.986 0.4635
vt 31.7406 0.6824
vt 31.4611 1.5107
vt 31.4611 0.8288
vt 30.9362 0.4635
vt 31.1815 0.6824
vt 30.8849 1.5107
vt 30.8849 0.2737
vt 29.7838 0.4707
vt 30.0291 0.7069
vt 29.6682 1.5107
vt 29.614 0.1574
vt 30.3086 0.8288
vt 30.3086 1.5107
vt 30.7911 0.4635
vt 30.5882 0.6824
vt 29.5471 0.3373
vt 29.3726 0.6043
vt 29.1512 0.771
vt 28.9961 1.5107
vt 28.9961 0.8413
vt 28.4259 1.5107
vt 28.871 0.8012
vt 28.603 0.6148
vt 28.3849 0.3889
vt 28.2617 0.5487
vt 28.0562 0.7228
vt 27.8506 1.5107
vt 27.8506 0.8087
vt 27.1992 1.5107
vt 27.6138 0.7008
vt 27.3771 0.4808
vt 27.1608 0.1179
vt 26.9673 0.5468
vt 26.7438 0.7264
vt 26.5461 1.5107
vt 26.5461 0.8252
vt 26.3723 0.7374
vt 26.1526 0.5796
vt 0.0 0.0012
vt 0.363 0.0017
vt 0.0 1.5107
vt 1.0757 0.7963
vt 1.4623 0.6112
vt 1.0757 1.5107
vt 0.6892 0.6112
vt 1.6556 0.3605
vt 0.4959 0.3605
vn 0.7055 -0.0 0.7088
vn 0.7071 -0.0 0.7071
vn -0.0 -0.0 1.0
vn -0.0 -0.0 1.0
vn 0.0 -0.0 1.0
vn 0.0 -0.0 1.0
vn 0.0 -0.0 1.0
vn 0.0 -0.0 1.0
vn -0.0 -0.0 1.0
vn -0.0 -0.0 1.0
vn -0.0 -0.0 1.0
vn 0.0 -0.0 1.0
vn -0.0 -0.0 1.0
vn 0.0 -0.0 1.0
vn -0.0 -0.0 1.0
vn -0.0 -0.0 1.0
vn -0.0 -0.0 1.0
vn -0.0 -0.0 1.0
vn 0.0 -0.0 1.0
vn -0.0 -0.0 1.0
vn -0.0 -0.0 1.0
vn -0.0 -0.0 1.0
vn -0.0 -0.0 1.0
vn -0.0 -0.0 1.0
vn -0.0 -0.0 1.0
vn 0.0 -0.0 1.0
vn 0.0 -0.0 1.0
vn 0.0 -0.0 1.0
vn -0.0 -0.0 1.0
vn -0.0 -0.0 1.0
vn 0.0 -0.0 1.0
vn 0.0 -0.0 1.0
vn -0.0 -0.0 1.0
vn 0.0 -0.0 1.0
vn -0.0 -0.0 1.0
vn -0.0 -0.0 1.0
vn 0.0 -0.0 1.0
vn -0.0 -0.0 1.0
vn -0.0 -0.0 1.0
vn -0.0 -0.0 1.0
vn 0.0 -0.0 1.0
vn -0.0 -0.0 1.0
vn 0.0 -0.0 1.0
vn 0.0 -0.0 1.0
vn 1.0 -0.0 0.0
vn 1.0 0.0 0.0
vn 1.0 -0.0 0.0
vn 1.0 -0.0 0.0
vn 1.0 0.0 0.0
vn 1.0 0.0 0.0
vn 1.0 -0.0 0.0
vn 1.0 -0.0 0.0
vn 1.0 -0.0 0.0
vn 0.7055 0.0 -0.7088
vn -0.0 0.0 -1.0
vn 0.7071 0.0 -0.7071
vn 0.0 0.0 -1.0
vn 0.0 0.0 -1.0
vn -0.0 0.0 -1.0
vn -0.0 0.0 -1.0
vn 0.0 0.0 -1.0
vn 0.0 0.0 -1.0
vn -0.0 0.0 -1.0
vn 0.0 0.0 -1.0
vn 0.0 0.0 -1.0
vn 0.0 0.0 -1.0
vn -0.0 0.0 -1.0
vn 0.0 0.0 -1.0
vn -0.0 0.0 -1.0
vn -0.0 0.0 -1.0
vn 0.0 0.0 -1.0
vn 0.0 0.0 -1.0
vn 0.0 0.0 -1.0
vn 0.0 0.0 -1.0
vn 0.0 0.0 -1.0
vn 0.0 0.0 -1.0
vn 0.0 0.0 -1.0
vn -0.0 0.0 -1.0
vn 0.0 0.0 -1.0
vn 0.0 0.0 -1.0
vn 0.0 0.0 -1.0
vn 0.0 0.0 -1.0
vn 0.0 0.0 -1.0
vn -0.0 0.0 -1.0
vn -0.0 0.0 -1.0
vn -0.0 0.0 -1.0
vn 0.0 0.0 -1.0
vn -0.0 0.0 -1.0
vn -0.0 0.0 -1.0
vn 0.0 0.0 -1.0
vn 0.0 0.0 -1.0
vn -0.0 0.0 -1.0
vn -0.0 -0.0 -1.0
vn -0.0 -0.0 -1.0
vn 0.0 -0.0 -1.0
vn 0.0 -0.0 -1.0
vn 0.0 -0.0 -1.0
vn 1.0 0.0 0.0
vn 1.0 -0.0 0.0
vn 1.0 -0.0 0.0
vn 1.0 0.0 0.0
vn 1.0 -0.0 0.0
vn 1.0 -0.0 0.0
vn 1.0 0.0 0.0
vn -0.7053 -0.0 0.709
vn 0.0 -0.0 1.0
vn -0.7071 0.0 0.7071
vn 0.0 -0.0 1.0
vn -0.0 -0.0 1.0
vn 0.0 -0.0 1.0
vn 0.0 -0.0 1.0
vn -0.0 -0.0 1.0
vn 0.0 -0.0 1.0
vn 0.0 -0.0 1.0
vn 0.0 -0.0 1.0
vn -0.0 -0.0 1.0
vn -0.0 -0.0 1.0
vn 0.0 -0.0 1.0
vn 0.0 -0.0 1.0
vn 0.0 -0.0 1.0
vn 0.0 -0.0 1.0
vn 0.0 -0.0 1.0
vn -0.0 -0.0 1.0
vn 0.0 -0.0 1.0
vn 0.0 -0.0 1.0
vn 0.0 -0.0 1.0
vn 0.0 -0.0 1.0
vn 0.0 -0.0 1.0
vn -0.0 -0.0 1.0
vn 0.0 -0.0 1.0
vn 0.0 -0.0 1.0
vn 0.0 -0.0 1.0
vn 0.0 -0.0 1.0
vn 0.0 -0.0 1.0
vn 0.0 -0.0 1.0
vn 0.0 -0.0 1.0
vn 0.0 -0.0 1.0
vn 0.0 -0.0 1.0
vn 0.0 -0.0 1.0
vn 0.0 -0.0 1.0
vn 0.0 -0.0 1.0
vn 0.0 -0.0 1.0
vn 0.0 -0.0 1.0
vn 0.0 -0.0 1.0
vn 0.0 -0.0 1.0
vn -1.0 0.0 0.0
vn -1.0 -0.0 0.0
vn -1.0 -0.0 0.0
vn -1.0 0.0 0.0
vn -1.0 0.0 0.0
vn -1.0 0.0 0.0
vn -1.0 -0.0 0.0
vn -1.0 0.0 0.0
vn -1.0 -0.0 0.0
vn -0.7053 0.0 -0.7089
vn -0.7071 0.0 -0.7071
vn 0.0 0.0 -1.0
vn -0.0 0.0 -1.0
vn -0.0 0.0 -1.0
vn -0.0 0.0 -1.0
vn -0.0 0.0 -1.0
vn 0.0 0.0 -1.0
vn 0.0 0.0 -1.0
vn 0.0 0.0 -1.0
vn 0.0 0.0 -1.0
vn 0.0 0.0 -1.0
vn 0.0 0.0 -1.0
vn 0.0 0.0 -1.0
vn 0.0 0.0 -1.0
vn 0.0 0.0 -1.0
vn 0.0 0.0 -1.0
vn 0.0 0.0 -1.0
vn -0.0 0.0 -1.0
vn 0.0 0.0 -1.0
vn 0.0 0.0 -1.0
vn -0.0 0.0 -1.0
vn -0.0 0.0 -1.0
vn -0.0 0.0 -1.0
vn 0.0 0.0 -1.0
vn 0.0 0.0 -1.0
vn 0.0 0.0 -1.0
vn 0.0 0.0 -1.0
vn 0.0 0.0 -1.0
vn -0.0 0.0 -1.0
vn 0.0 0.0 -1.0
vn 0.0 0.0 -1.0
vn -0.0 0.0 -1.0
vn 0.0 0.0 -1.0
vn 0.0 0.0 -1.0
vn 0.0 0.0 -1.0
vn -0.0 0.0 -1.0
vn 0.0 0.0 -1.0
vn 0.0 -0.0 -1.0
vn 0.0 0.0 -1.0
vn 0.0 -0.0 -1.0
vn 0.0 -0.0 -1.0
vn -1.0 0.0 0.0
vn -1.0 -0.0 0.0
vn -1.0 -0.0 0.0
vn -1.0 -0.0 0.0
vn -1.0 -0.0 0.0
vn -1.0 -0.0 0.0
vn -1.0 0.0 0.0
vtan 0.7088 -0.0 -0.7055 1.0
vtan 0.7071 -0.0 -0.7071 1.0
vtan 1.0 0.0001 0.0 1.0
vtan 1.0 -0.0 0.0 1.0
vtan 1.0 -0.0 -0.0 1.0
vtan 1.0 -0.0 -0.0 1.0
vtan 1.0 -0.0 -0.0 1.0
vtan 1.0 0.0005 -0.0 1.0
vtan 1.0 0.0 0.0 1.0
vtan 1.0 -0.0 0.0 1.0
vtan 1.0 -0.0 0.0 1.0
vtan 1.0 -0.0001 -0.0 1.0
vtan 1.0 0.0 0.0 1.0
vtan 1.0 0.0 -0.0 1.0
vtan 1.0 0.0001 0.0 1.0
vtan 1.0 0.0 0.0 1.0
vtan 1.0 -0.0 0.0 1.0
vtan 1.0 -0.0005 0.0 1.0
vtan 1.0 -0.0 -0.0 1.0
vtan 1.0 0.0003 0.0 1.0
vtan 1.0 0.0001 0.0 1.0
vtan 1.0 0.0 0.0 1.0
vtan 1.0 -0.0 0.0 1.0
vtan 1.0 -0.0002 0.0 1.0
vtan 1.0 -0.0 0.0 1.0
vtan 1.0 -0.0001 -0.0 1.0
vtan 1.0 -0.0002 -0.0 1.0
vtan 1.0 -0.0002 -0.0 1.0
vtan 1.0 -0.0 0.0 1.0
vtan 1.0 0.0 0.0 1.0
vtan 1.0 -0.0 -0.0 1.0
vtan 1.0 -0.0 -0.0 1.0
vtan 1.0 -0.0 0.0 1.0
vtan 1.0 0.0001 0.0 1.0
vtan 1.0 -0.0001 0.0 1.0
vtan 1.0 -0.0 0.0 1.0
vtan 1.0 0.0 -0.0 1.0
vtan 1.0 -0.0 0.0 1.0
vtan 1.0 0.0 0.0 1.0
vtan 1.0 0.0001 0.0 1.0
vtan 1.0 -0.0 -0.0 1.0
vtan 1.0 0.0001 0.0 1.0
vtan 1.0 -0.0001 -0.0 1.0
vtan 1.0 -0.0 -0.0 1.0
vtan -0.0 -0.0 -1.0 1.0
vtan 0.0 -0.0 -1.0 1.0
vtan 0.0 0.0 -1.0 1.0
vtan -0.0 -0.0 -1.0 1.0
vtan 0.0 -0.0 -1.0 1.0
vtan 0.0 -0.0 -1.0 1.0
vtan -0.0 -0.0006 -1.0 1.0
vtan 0.0 0.0001 -1.0 1.0
vtan -0.0 -0.0 -1.0 1.0
vtan -0.7088 0.0 -0.7055 1.0
vtan -1.0 -0.0001 0.0 1.0
vtan -0.7071 0.0 -0.7071 1.0
vtan -1.0 0.0 -0.0 1.0
vtan -1.0 0.0 0.0 1.0
vtan -1.0 -0.0 0.0 1.0
vtan -1.0 -0.0 0.0 1.0
vtan -1.0 -0.0005 -0.0 1.0
vtan -1.0 0.0 0.0 1.0
vtan -1.0 -0.0 0.0 1.0
vtan -1.0 0.0 0.0 1.0
vtan -1.0 0.0001 0.0 1.0
vtan -1.0 -0.0 -0.0 1.0
vtan -1.0 -0.0 0.0 1.0
vtan -1.0 -0.0001 -0.0 1.0
vtan -1.0 0.0 0.0 1.0
vtan -1.0 -0.0 0.0 1.0
vtan -1.0 0.0005 0.0 1.0
vtan -1.0 0.0 0.0 1.0
vtan -1.0 -0.0003 -0.0 1.0
vtan -1.0 -0.0001 -0.0 1.0
vtan -1.0 -0.0 -0.0 1.0
vtan -1.0 0.0002 -0.0 1.0
vtan -1.0 0.0 -0.0 1.0
vtan -1.0 0.0001 0.0 1.0
vtan -1.0 0.0 0.0 1.0
vtan -1.0 0.0002 0.0 1.0
vtan -1.0 0.0002 0.0 1.0
vtan -1.0 0.0 0.0 1.0
vtan -1.0 -0.0 -0.0 1.0
vtan -1.0 0.0 0.0 1.0
vtan -1.0 0.0 0.0 1.0
vtan -1.0 -0.0001 0.0 1.0
vtan -1.0 0.0 -0.0 1.0
vtan -1.0 0.0001 0.0 1.0
vtan -1.0 0.0 0.0 1.0
vtan -1.0 -0.0 -0.0 1.0
vtan -1.0 0.0 0.0 1.0
vtan -1.0 -0.0001 0.0 1.0
vtan -1.0 -0.0 0.0 1.0
vtan -1.0 -0.0001 0.0 1.0
vtan -1.0 -0.0 0.0 1.0
vtan -1.0 0.0002 -0.0 1.0
vtan -1.0 0.0 -0.0 1.0
vtan -0.0 0.0 -1.0 1.0
vtan -0.0 -0.0 -1.0 1.0
vtan 0.0 0.0 -1.0 1.0
vtan -0.0 0.0 -1.0 1.0
vtan 0.0 0.0 -1.0 1.0
vtan 0.0 0.0006 -1.0 1.0
vtan 0.0 -0.0001 -1.0 1.0
vtan 0.709 -0.0 0.7053 1.0
vtan 1.0 -0.0001 -0.0 1.0
vtan 0.7071 0.0 0.7071 1.0
vtan 1.0 0.0 -0.0 1.0
vtan 1.0 0.0 0.0 1.0
vtan 1.0 -0.0 -0.0 1.0
vtan 1.0 -0.0 -0.0 1.0
vtan 1.0 -0.0004 0.0 1.0
vtan 1.0 -0.0 -0.0 1.0
vtan 1.0 -0.0 -0.0 1.0
vtan 1.0 -0.0 -0.0 1.0
vtan 1.0 0.0 0.0 1.0
vtan 1.0 -0.0 0.0 1.0
vtan 1.0 -0.0 -0.0 1.0
vtan 1.0 -0.0001 -0.0 1.0
vtan 1.0 0.0 -0.0 1.0
vtan 1.0 -0.0 -0.0 1.0
vtan 1.0 0.0003 -0.0 1.0
vtan 1.0 0.0001 0.0 1.0
vtan 1.0 -0.0003 -0.0 1.0
vtan 1.0 -0.0001 -0.0 1.0
vtan 1.0 -0.0 -0.0 1.0
vtan 1.0 0.0002 -0.0 1.0
vtan 1.0 0.0 -0.0 1.0
vtan 1.0 0.0001 0.0 1.0
vtan 1.0 0.0 -0.0 1.0
vtan 1.0 0.0001 0.0 1.0
vtan 1.0 0.0001 0.0 1.0
vtan 1.0 0.0 -0.0 1.0
vtan 1.0 -0.0 -0.0 1.0
vtan 1.0 0.0 0.0 1.0
vtan 1.0 0.0 0.0 1.0
vtan 1.0 -0.0001 -0.0 1.0
vtan 1.0 0.0 -0.0 1.0
vtan 1.0 0.0001 0.0 1.0
vtan 1.0 0.0 0.0 1.0
vtan 1.0 -0.0 -0.0 1.0
vtan 1.0 0.0001 -0.0 1.0
vtan 1.0 -0.0001 -0.0 1.0
vtan 1.0 -0.0 -0.0 1.0
vtan 1.0 -0.0001 -0.0 1.0
vtan 1.0 0.0001 0.0 1.0
vtan 0.0 0.0 1.0 1.0
vtan -0.0 0.0 1.0 1.0
vtan 0.0 -0.0 1.0 1.0
vtan 0.0 0.0 1.0 1.0
vtan 0.0 0.0 1.0 1.0
vtan 0.0 0.0 1.0 1.0
vtan -0.0 0.0006 1.0 1.0
vtan -0.0 -0.0001 1.0 1.0
vtan -0.0 0.0 1.0 1.0
vtan -0.7089 0.0002 0.7053 1.0
vtan -0.7071 -0.0 0.7071 1.0
vtan -1.0 0.0001 -0.0 1.0
vtan -1.0 -0.0 0.0 1.0
vtan -1.0 -0.0 0.0 1.0
vtan -1.0 -0.0 0.0 1.0
vtan -1.0 -0.0 0.0 1.0
vtan -1.0 0.0005 0.0 1.0
vtan -1.0 0.0 0.0 1.0
vtan -1.0 0.0 0.0 1.0
vtan -1.0 0.0 0.0 1.0
vtan -1.0 -0.0 -0.0 1.0
vtan -1.0 0.0 -0.0 1.0
vtan -1.0 0.0 0.0 1.0
vtan -1.0 0.0001 0.0 1.0
vtan -1.0 0.0 -0.0 1.0
vtan -1.0 -0.0 -0.0 1.0
vtan -1.0 -0.0003 -0.0 1.0
vtan -1.0 -0.0001 0.0 1.0
vtan -1.0 0.0004 0.0 1.0
vtan -1.0 0.0001 0.0 1.0
vtan -1.0 0.0 0.0 1.0
vtan -1.0 -0.0 0.0 1.0
vtan -1.0 -0.0002 0.0 1.0
vtan -1.0 -0.0 -0.0 1.0
vtan -1.0 -0.0001 -0.0 1.0
vtan -1.0 -0.0001 -0.0 1.0
vtan -1.0 -0.0001 -0.0 1.0
vtan -1.0 -0.0 -0.0 1.0
vtan -1.0 0.0 0.0 1.0
vtan -1.0 -0.0 -0.0 1.0
vtan -1.0 -0.0 -0.0 1.0
vtan -1.0 -0.0 0.0 1.0
vtan -1.0 0.0001 -0.0 1.0
vtan -1.0 -0.0 -0.0 1.0
vtan -1.0 -0.0 -0.0 1.0
vtan -1.0 0.0 0.0 1.0
vtan -1.0 -0.0001 -0.0 1.0
vtan -1.0 0.0 -0.0 1.0
vtan -1.0 0.0001 -0.0 1.0
vtan -1.0 0.0001 -0.0 1.0
vtan -1.0 -0.0001 0.0 1.0
vtan -0.7089 -0.0002 0.7053 1.0
vtan -0.0 -0.0 1.0 1.0
vtan -0.7071 -0.0 0.7071 1.0
vtan 0.0 -0.0 1.0 1.0
vtan -0.0 0.0 1.0 1.0
vtan 0.0 -0.0 1.0 1.0
vtan 0.0 -0.0 1.0 1.0
vtan 0.0 -0.0006 1.0 1.0
vtan 0.0 0.0001 1.0 1.0
f 0/0/0/0 1/1/1/1 2/2/2/2 
f 3/3/3/3 1/1/1/1 4/4/4/4 
f 2/2/2/2 1/1/1/1 3/3/3/3 
f 5/5/5/5 6/6/6/6 4/4/4/4 
f 5/5/5/5 4/4/4/4 1/1/1/1 
f 7/7/7/7 8/8/8/8 9/9/9/9 
f 8/8/8/8 6/6/6/6 5/5/5/5 
f 8/8/8/8 5/5/5/5 9/9/9/9 
f 9/9/9/9 10/10/10/10 7/7/7/7 
f 11/11/11/11 12/12/12/12 13/13/13/13 
f 14/14/14/14 11/11/11/11 13/13/13/13 
f 12/12/12/12 15/15/15/15 16/16/16/16 
f 12/12/12/12 16/16/16/16 13/13/13/13 
f 17/17/17/17 9/9/9/9 18/18/18/18 
f 16/16/16/16 15/15/15/15 18/18/18/18 
f 16/16/16/16 18/18/18/18 9/9/9/9 
f 10/10/10/10 9/9/9/9 17/17/17/17 
f 14/14/14/14 13/13/13/13 19/19/19/19 
f 20/20/20/20 13/13/13/13 21/21/21/21 
f 19/19/19/19 13/13/13/13 20/20/20/20 
f 21/21/21/21 13/13/13/13 22/22/22/22 
f 21/21/21/21 22/22/22/22 23/23/23/23 
f 22/22/22/22 24/24/24/24 25/25/25/25 
f 22/22/22/22 25/25/25/25 23/23/23/23 
f 25/25/25/25 24/24/24/24 26/26/26/26 
f 26/26/26/26 24/24/24/24 27/27/27/27 
f 27/27/27/27 24/24/24/24 28/28/28/28 
f 28/28/28/28 24/24/24/24 29/29/29/29 
f 29/29/29/29 24/24/24/24 30/30/30/30 
f 29/29/29/29 30/30/30/30 31/31/31/31 
f 30/30/30/30 32/32/32/32 33/33/33/33 
f 30/30/30/30 33/33/33/33 31/31/31/31 
f 34/34/34/34 32/32/32/32 35/35/35/35 
f 33/33/33/33 32/32/32/32 34/34/34/34 
f 35/35/35/35 32/32/32/32 36/36/36/36 
f 37/37/37/37 32/32/32/32 38/38/38/38 
f 37/37/37/37 38/38/38/38 39/39/39/39 
f 36/36/36/36 32/32/32/32 37/37/37/37 
f 38/38/38/38 40/40/40/40 41/41/41/41 
f 38/38/38/38 41/41/41/41 39/39/39/39 
f 42/42/42/42 40/40/40/40 43/43/43/43 
f 41/41/41/41 40/40/40/40 42/42/42/42 
f 0/0/0/0 44/44/44/44 1/1/1/1 
f 45/45/45/45 46/46/46/46 47/47/47/47 
f 45/45/45/45 47/47/47/47 48/48/48/48 
f 49/49/49/49 45/45/45/45 48/48/48/48 
f 49/49/49/49 48/48/48/48 1/1/1/1 
f 47/47/47/47 46/46/46/46 50/50/50/50 
f 1/1/1/1 51/51/51/51 49/49/49/49 
f 47/47/47/47 50/50/50/50 52/52/52/52 
f 1/1/1/1 44/44/44/44 51/51/51/51 
f 53/53/53/53 54/54/54/54 55/55/55/55 
f 56/56/56/56 57/57/57/57 55/55/55/55 
f 54/54/54/54 56/56/56/56 55/55/55/55 
f 57/57/57/57 58/58/58/58 59/59/59/59 
f 57/57/57/57 59/59/59/59 55/55/55/55 
f 60/60/60/60 61/61/61/61 62/62/62/62 
f 59/59/59/59 58/58/58/58 62/62/62/62 
f 59/59/59/59 62/62/62/62 61/61/61/61 
f 61/61/61/61 60/60/60/60 63/63/63/63 
f 64/64/64/64 65/65/65/65 66/66/66/66 
f 67/67/67/67 65/65/65/65 64/64/64/64 
f 68/68/68/68 69/69/69/69 66/66/66/66 
f 68/68/68/68 66/66/66/66 65/65/65/65 
f 70/70/70/70 71/71/71/71 61/61/61/61 
f 71/71/71/71 69/69/69/69 68/68/68/68 
f 71/71/71/71 68/68/68/68 61/61/61/61 
f 63/63/63/63 70/70/70/70 61/61/61/61 
f 67/67/67/67 72/72/72/72 65/65/65/65 
f 73/73/73/73 74/74/74/74 65/65/65/65 
f 72/72/72/72 73/73/73/73 65/65/65/65 
f 74/74/74/74 75/75/75/75 76/76/76/76 
f 74/74/74/74 76/76/76/76 65/65/65/65 
f 76/76/76/76 75/75/75/75 77/77/77/77 
f 76/76/76/76 77/77/77/77 78/78/78/78 
f 77/77/77/77 79/79/79/79 78/78/78/78 
f 79/79/79/79 80/80/80/80 78/78/78/78 
f 80/80/80/80 81/81/81/81 78/78/78/78 
f 81/81/81/81 82/82/82/82 78/78/78/78 
f 82/82/82/82 83/83/83/83 84/84/84/84 
f 82/82/82/82 84/84/84/84 78/78/78/78 
f 84/84/84/84 83/83/83/83 85/85/85/85 
f 84/84/84/84 85/85/85/85 86/86/86/86 
f 87/87/87/87 88/88/88/88 86/86/86/86 
f 85/85/85/85 87/87/87/87 86/86/86/86 
f 88/88/88/88 89/89/89/89 86/86/86/86 
f 90/90/90/90 91/91/91/91 92/92/92/92 
f 90/90/90/90 92/92/92/92 86/86/86/86 
f 89/89/89/89 90/90/90/90 86/86/86/86 
f 92/92/92/92 91/91/91/91 93/93/93/93 
f 92/92/92/92 93/93/93/93 94/94/94/94 
f 95/95/95/95 96/96/96/96 94/94/94/94 
f 93/93/93/93 95/95/95/95 94/94/94/94 
f 53/53/53/53 55/55/55/55 97/97/97/97 
f 47/47/47/47 98/98/98/98 99/99/99/99 
f 47/47/47/47 99/99/99/99 100/100/100/100 
f 100/100/100/100 99/99/99/99 101/101/101/101 
f 100/100/100/100 101/101/101/101 55/55/55/55 
f 98/98/98/98 47/47/47/47 102/102/102/102 
f 55/55/55/55 101/101/101/101 103/103/103/103 
f 102/102/102/102 47/47/47/47 52/52/52/52 
f 55/55/55/55 103/103/103/103 97/97/97/97 
f 104/104/104/104 105/105/105/105 106/106/106/106 
f 107/107/107/107 108/108/108/108 106/106/106/106 
f 105/105/105/105 107/107/107/107 106/106/106/106 
f 108/108/108/108 109/109/109/109 110/110/110/110 
f 108/108/108/108 110/110/110/110 106/106/106/106 
f 111/111/111/111 112/112/112/112 113/113/113/113 
f 110/110/110/110 109/109/109/109 113/113/113/113 
f 110/110/110/110 113/113/113/113 112/112/112/112 
f 112/112/112/112 111/111/111/111 114/114/114/114 
f 115/115/115/115 116/116/116/116 117/117/117/117 
f 118/118/118/118 116/116/116/116 115/115/115/115 
f 119/119/119/119 120/120/120/120 117/117/117/117 
f 119/119/119/119 117/117/117/117 116/116/116/116 
f 121/121/121/121 122/122/122/122 112/112/112/112 
f 122/122/122/122 120/120/120/120 119/119/119/119 
f 122/122/122/122 119/119/119/119 112/112/112/112 
f 114/114/114/114 121/121/121/121 112/112/112/112 
f 118/118/118/118 123/123/123/123 116/116/116/116 
f 124/124/124/124 125/125/125/125 116/116/116/116 
f 123/123/123/123 124/124/124/124 116/116/116/116 
f 125/125/125/125 126/126/126/126 127/127/127/127 
f 125/125/125/125 127/127/127/127 116/116/116/116 
f 127/127/127/127 126/126/126/126 128/128/128/128 
f 127/127/127/127 128/128/128/128 129/129/129/129 
f 128/128/128/128 130/130/130/130 129/129/129/129 
f 130/130/130/130 131/131/131/131 129/129/129/129 
f 131/131/131/131 132/132/132/132 129/129/129/129 
f 132/132/132/132 133/133/133/133 129/129/129/129 
f 133/133/133/133 134/134/31/134 135/135/134/135 
f 133/133/133/133 135/135/134/135 129/129/129/129 
f 135/135/134/135 134/134/31/134 136/136/135/136 
f 135/135/134/135 136/136/135/136 137/137/136/137 
f 138/138/137/138 139/139/138/139 137/137/136/137 
f 136/136/135/136 138/138/137/138 137/137/136/137 
f 139/139/138/139 140/140/139/140 137/137/136/137 
f 141/141/140/141 142/142/141/142 143/143/142/143 
f 141/141/140/141 143/143/142/143 137/137/136/137 
f 140/140/139/140 141/141/140/141 137/137/136/137 
f 143/143/142/143 142/142/141/142 144/144/143/144 
f 143/143/142/143 144/144/143/144 40/40/40/40 
f 145/145/144/145 43/43/43/43 40/40/40/40 
f 144/144/143/144 145/145/144/145 40/40/40/40 
f 104/104/104/104 106/106/106/106 146/146/145/146 
f 147/147/146/147 148/148/147/148 149/149/148/149 
f 147/147/146/147 149/149/148/149 150/150/149/150 
f 150/150/149/150 149/149/148/149 151/151/150/151 
f 150/150/149/150 151/151/150/151 106/106/106/106 
f 147/147/146/147 152/152/151/152 148/148/147/148 
f 106/106/106/106 151/151/150/151 153/153/152/153 
f 147/147/146/147 154/154/153/154 152/152/151/152 
f 106/106/106/106 153/153/152/153 146/146/145/146 
f 155/155/154/155 156/156/155/156 157/157/156/157 
f 158/158/157/158 156/156/155/156 159/159/158/159 
f 157/157/156/157 156/156/155/156 158/158/157/158 
f 160/160/159/160 161/161/160/161 159/159/158/159 
f 160/160/159/160 159/159/158/159 156/156/155/156 
f 162/162/161/162 163/163/162/163 164/164/163/164 
f 163/163/162/163 161/161/160/161 160/160/159/160 
f 163/163/162/163 160/160/159/160 164/164/163/164 
f 164/164/163/164 165/165/164/165 162/162/161/162 
f 166/166/165/166 167/167/166/167 168/168/167/168 
f 169/169/168/169 166/166/165/166 168/168/167/168 
f 167/167/166/167 170/170/169/170 171/171/170/171 
f 167/167/166/167 171/171/170/171 168/168/167/168 
f 172/172/171/172 164/164/163/164 173/173/172/173 
f 171/171/170/171 170/170/169/170 173/173/172/173 
f 171/171/170/171 173/173/172/173 164/164/163/164 
f 165/165/164/165 164/164/163/164 172/172/171/172 
f 169/169/168/169 168/168/167/168 174/174/173/174 
f 175/175/174/175 168/168/167/168 176/176/175/176 
f 174/174/173/174 168/168/167/168 175/175/174/175 
f 176/176/175/176 168/168/167/168 177/177/176/177 
f 176/176/175/176 177/177/176/177 178/178/177/178 
f 177/177/176/177 179/179/178/179 180/180/179/180 
f 177/177/176/177 180/180/179/180 178/178/177/178 
f 180/180/179/180 179/179/178/179 181/181/180/181 
f 181/181/180/181 179/179/178/179 182/182/181/182 
f 182/182/181/182 179/179/178/179 183/183/182/183 
f 183/183/182/183 179/179/178/179 184/184/183/184 
f 184/184/183/184 179/179/178/179 185/185/184/185 
f 184/184/183/184 185/185/184/185 186/186/185/186 
f 185/185/184/185 187/187/186/187 188/188/187/188 
f 185/185/184/185 188/188/187/188 186/186/185/186 
f 189/189/188/189 187/187/186/187 190/190/189/190 
f 188/188/187/188 187/187/186/187 189/189/188/189 
f 190/190/189/190 187/187/186/187 191/191/190/191 
f 192/192/191/192 187/187/186/187 193/193/192/193 
f 192/192/191/192 193/193/192/193 194/194/193/194 
f 191/191/190/191 187/187/186/187 192/192/191/192 
f 193/193/192/193 94/94/94/94 195/195/194/195 
f 193/193/192/193 195/195/194/195 194/194/193/194 
f 196/196/195/196 94/94/94/94 96/96/96/96 
f 195/195/194/195 94/94/94/94 196/196/195/196 
f 155/197/154/197 197/198/196/198 156/199/155/199 
f 198/200/197/200 199/201/198/201 147/147/146/147 
f 198/200/197/200 147/147/146/147 200/202/199/202 
f 201/203/200/203 198/200/197/200 200/202/199/202 
f 201/203/200/203 200/202/199/202 156/199/155/199 
f 199/201/198/201 202/204/201/204 147/147/146/147 
f 156/199/155/199 203/205/202/205 201/203/200/203 
f 202/204/201/204 154/154/153/154 147/147/146/147 
f 156/199/155/199 197/198/196/198 203/205/202/205 
