v 1302.4087 414.2494 -105.4622
v 1302.4087 522.5558 -105.4132
v 1296.6211 522.5558 -110.8785
v 1296.6211 414.2494 -110.8785
v 1296.6211 414.2494 42.592
v 1296.6211 522.5558 42.592
v 1302.4087 522.5558 36.0117
v 1302.4087 414.2494 35.8398
v 1314.9131 672.6033 -64.2952
v 1314.9131 656.5529 -76.0531
v 1314.9131 640.8757 -82.3986
v 1314.9131 630.8621 -33.1996
v 1314.9131 630.8621 -83.9965
v 1314.9131 690.8933 -33.1996
v 1314.9131 683.428 -50.1111
v 1314.9131 685.1077 -20.0632
v 1314.9131 656.7395 9.4248
v 1314.9131 630.8621 16.8444
v 1314.9131 641.9955 15.397
v 1314.9131 672.7899 -2.7064
v 1296.6211 598.2702 42.592
v 1302.4087 598.2702 36.1318
v 1314.9131 623.3322 -33.1996
v 1314.913 623.3322 -85.1981
v 1314.9131 623.3322 17.8232
v 1313.8079 522.5558 -33.1996
v 1313.8079 522.5558 -85.9442
v 1313.8079 420.9913 -85.4935
v 1313.8079 420.9913 -33.1996
v 1313.8079 420.9913 17.5801
v 1313.8079 522.5558 18.4816
v 1296.6211 598.2702 -110.8785
v 1302.4087 598.2702 -105.1833
v 1307.2725 585.5773 12.0505
v 1307.2725 581.9877 13.677
v 1307.2725 578.2299 16.0327
v 1307.2725 598.2702 19.1537
v 1307.2725 576.9963 18.9649
v 1307.2725 598.2702 7.227
v 1307.2725 594.2708 7.3392
v 1307.2725 593.3734 8.0683
v 1307.2725 589.7839 8.7414
v 1307.2725 591.5786 7.3392
v 1307.2725 585.5212 9.0218
v 1307.2725 587.2599 7.4514
v 1313.8079 587.2599 7.4514
v 1313.8079 589.7839 8.7414
v 1313.8079 591.5786 7.3392
v 1313.8079 598.2702 -33.1996
v 1313.8079 593.3734 8.0683
v 1313.8079 594.2708 7.3392
v 1313.8079 598.2702 7.227
v 1313.8079 585.5212 9.0218
v 1313.8079 578.2299 16.0327
v 1313.8079 576.9963 18.9649
v 1313.8079 581.9877 13.677
v 1313.8079 585.5773 12.0505
v 1313.8079 591.6112 -74.8194
v 1313.8079 590.6367 -76.2525
v 1313.8079 588.1719 -75.3927
v 1313.8079 586.9681 -76.3098
v 1313.8079 587.0827 -78.5454
v 1313.8079 583.7581 -80.8383
v 1313.8079 579.3442 -82.2713
v 1313.8079 576.994 -84.8508
v 1313.8079 576.8212 -86.1851
v 1313.8079 598.2702 -74.5901
v 1313.8079 594.8212 -74.7048
v 1313.8079 593.9614 -75.5073
v 1307.2723 576.994 -84.8508
v 1307.2723 579.3442 -82.2713
v 1307.2723 583.7581 -80.8383
v 1307.2725 598.2702 -74.5901
v 1307.2725 587.0827 -78.5454
v 1307.2725 586.9681 -76.3098
v 1307.2725 588.1719 -75.3927
v 1307.2725 590.6367 -76.2525
v 1307.2725 591.6112 -74.8194
v 1307.2725 593.9614 -75.5073
v 1307.2725 594.8212 -74.7048
v 1307.2723 598.2702 -86.2803
v 1307.2723 576.8212 -86.1851
v 1302.4087 598.2702 -86.2803
v 1302.4087 522.5558 -85.9442
v 1302.4087 598.2702 19.1537
v 1302.4087 598.2702 -33.1996
v 1302.4087 420.9913 -85.4935
v 1302.4087 420.9913 -33.1996
v 1302.4087 420.9913 17.5801
v 1302.4087 522.5558 18.4816
v 1296.6211 630.8621 42.5921
v 1302.4087 630.8621 36.1835
v 1296.6211 630.8621 -110.8785
v 1302.4087 630.8621 -105.0843
v 1302.4087 623.3322 -33.1996
v 1302.4086 623.3322 -85.1981
v 1302.4087 623.3322 17.8233
v 1302.4087 630.8621 16.8444
v 1302.4087 641.9955 15.397
v 1302.4087 656.7395 9.4248
v 1302.4087 672.7899 -2.7064
v 1302.4087 685.1077 -20.0632
v 1302.4087 690.8933 -33.1996
v 1302.4087 683.428 -50.1111
v 1302.4087 672.6033 -64.2952
v 1302.4087 656.5529 -76.0531
v 1302.4087 640.8757 -82.3986
v 1302.4087 630.8621 -83.9965
v 1315.5244 414.2494 -110.8785
v 1302.4087 414.2494 -33.1996
v 1315.5244 414.2494 -33.1996
v 1315.5244 414.2494 42.592
v 1315.5244 522.5558 42.592
v 1315.5244 630.8621 -110.8785
v 1315.5244 598.2702 -110.8785
v 1296.6211 716.8506 -33.1996
v 1315.5244 716.8506 -33.1996
v 1315.5244 712.2286 -50.3495
v 1296.6211 712.2286 -50.3495
v 1315.5244 702.0601 -70.6743
v 1296.6211 702.0601 -70.6743
v 1315.5244 687.8242 -85.9179
v 1296.6211 687.8242 -85.9179
v 1315.5244 665.0837 -101.1616
v 1296.6211 665.0837 -101.1616
v 1296.6211 642.5281 -108.7834
v 1315.5244 642.5281 -108.7834
v 1296.6211 712.9681 -18.846
v 1315.5244 712.9681 -18.846
v 1296.6211 706.3124 -3.6023
v 1315.5244 706.3124 -3.6023
v 1296.6211 694.1102 12.9963
v 1315.5244 694.1102 12.9963
v 1296.6211 675.8068 27.9012
v 1315.5244 675.8068 27.9012
v 1315.5244 630.8621 42.5921
v 1315.5244 654.7303 38.0636
v 1296.6211 654.7303 38.0636
v 1315.5244 598.2702 42.592
v 1315.5244 522.5558 -110.8785
v 1302.4087 706.8705 -49.4021
v 1302.4087 697.2465 -66.588
v 1302.4087 710.3077 -33.1996
v 1302.4087 653.2506 31.0278
v 1302.4087 671.8113 21.4037
v 1302.4087 690.0284 7.3113
v 1302.4087 701.7148 -8.4997
v 1302.4087 683.4977 -81.3678
v 1302.4087 662.1873 -97.5225
v 1302.4087 640.4042 -102.7809
gi 0 0 0 0
gi 0 0 0 0
gi 0 0 0 0
gi 0 0 0 0
gi 0 0 0 0
gi 0 0 0 0
gi 0 0 0 0
gi 0 0 0 0
gi 0 0 0 0
gi 0 0 0 0
gi 0 0 0 0
gi 0 0 0 0
gi 0 0 0 0
gi 0 0 0 0
gi 0 0 0 0
gi 0 0 0 0
gi 0 0 0 0
gi 0 0 0 0
gi 0 0 0 0
gi 0 0 0 0
gi 0 0 0 0
gi 0 0 0 0
gi 0 0 0 0
gi 0 0 0 0
gi 0 0 0 0
gi 0 0 0 0
gi 0 0 0 0
gi 0 0 0 0
gi 0 0 0 0
gi 0 0 0 0
gi 0 0 0 0
gi 0 0 0 0
gi 0 0 0 0
gi 0 0 0 0
gi 0 0 0 0
gi 0 0 0 0
gi 0 0 0 0
gi 0 0 0 0
gi 0 0 0 0
gi 0 0 0 0
gi 0 0 0 0
gi 0 0 0 0
gi 0 0 0 0
gi 0 0 0 0
gi 0 0 0 0
gi 0 0 0 0
gi 0 0 0 0
gi 0 0 0 0
gi 0 0 0 0
gi 0 0 0 0
gi 0 0 0 0
gi 0 0 0 0
gi 0 0 0 0
gi 0 0 0 0
gi 0 0 0 0
gi 0 0 0 0
gi 0 0 0 0
gi 0 0 0 0
gi 0 0 0 0
gi 0 0 0 0
gi 0 0 0 0
gi 0 0 0 0
gi 0 0 0 0
gi 0 0 0 0
gi 0 0 0 0
gi 0 0 0 0
gi 0 0 0 0
gi 0 0 0 0
gi 0 0 0 0
gi 0 0 0 0
gi 0 0 0 0
gi 0 0 0 0
gi 0 0 0 0
gi 0 0 0 0
gi 0 0 0 0
gi 0 0 0 0
gi 0 0 0 0
gi 0 0 0 0
gi 0 0 0 0
gi 0 0 0 0
gi 0 0 0 0
gi 0 0 0 0
gi 0 0 0 0
gi 0 0 0 0
gi 0 0 0 0
gi 0 0 0 0
gi 0 0 0 0
gi 0 0 0 0
gi 0 0 0 0
gi 0 0 0 0
gi 0 0 0 0
gi 0 0 0 0
gi 0 0 0 0
gi 0 0 0 0
gi 0 0 0 0
gi 0 0 0 0
gi 0 0 0 0
gi 0 0 0 0
gi 0 0 0 0
gi 0 0 0 0
gi 0 0 0 0
gi 0 0 0 0
gi 0 0 0 0
gi 0 0 0 0
gi 0 0 0 0
gi 0 0 0 0
gi 0 0 0 0
gi 0 0 0 0
gi 0 0 0 0
gi 0 0 0 0
gi 0 0 0 0
gi 0 0 0 0
gi 0 0 0 0
gi 0 0 0 0
gi 0 0 0 0
gi 0 0 0 0
gi 0 0 0 0
gi 0 0 0 0
gi 0 0 0 0
gi 0 0 0 0
gi 0 0 0 0
gi 0 0 0 0
gi 0 0 0 0
gi 0 0 0 0
gi 0 0 0 0
gi 0 0 0 0
gi 0 0 0 0
gi 0 0 0 0
gi 0 0 0 0
gi 0 0 0 0
gi 0 0 0 0
gi 0 0 0 0
gi 0 0 0 0
gi 0 0 0 0
gi 0 0 0 0
gi 0 0 0 0
gi 0 0 0 0
gi 0 0 0 0
gi 0 0 0 0
gi 0 0 0 0
gi 0 0 0 0
gi 0 0 0 0
gi 0 0 0 0
gi 0 0 0 0
gi 0 0 0 0
gi 0 0 0 0
gi 0 0 0 0
gi 0 0 0 0
gi 0 0 0 0
gi 0 0 0 0
gw 0.0 0.0 0.0 0.0
gw 0.0 0.0 0.0 0.0
gw 0.0 0.0 0.0 0.0
gw 0.0 0.0 0.0 0.0
gw 0.0 0.0 0.0 0.0
gw 0.0 0.0 0.0 0.0
gw 0.0 0.0 0.0 0.0
gw 0.0 0.0 0.0 0.0
gw 0.0 0.0 0.0 0.0
gw 0.0 0.0 0.0 0.0
gw 0.0 0.0 0.0 0.0
gw 0.0 0.0 0.0 0.0
gw 0.0 0.0 0.0 0.0
gw 0.0 0.0 0.0 0.0
gw 0.0 0.0 0.0 0.0
gw 0.0 0.0 0.0 0.0
gw 0.0 0.0 0.0 0.0
gw 0.0 0.0 0.0 0.0
gw 0.0 0.0 0.0 0.0
gw 0.0 0.0 0.0 0.0
gw 0.0 0.0 0.0 0.0
gw 0.0 0.0 0.0 0.0
gw 0.0 0.0 0.0 0.0
gw 0.0 0.0 0.0 0.0
gw 0.0 0.0 0.0 0.0
gw 0.0 0.0 0.0 0.0
gw 0.0 0.0 0.0 0.0
gw 0.0 0.0 0.0 0.0
gw 0.0 0.0 0.0 0.0
gw 0.0 0.0 0.0 0.0
gw 0.0 0.0 0.0 0.0
gw 0.0 0.0 0.0 0.0
gw 0.0 0.0 0.0 0.0
gw 0.0 0.0 0.0 0.0
gw 0.0 0.0 0.0 0.0
gw 0.0 0.0 0.0 0.0
gw 0.0 0.0 0.0 0.0
gw 0.0 0.0 0.0 0.0
gw 0.0 0.0 0.0 0.0
gw 0.0 0.0 0.0 0.0
gw 0.0 0.0 0.0 0.0
gw 0.0 0.0 0.0 0.0
gw 0.0 0.0 0.0 0.0
gw 0.0 0.0 0.0 0.0
gw 0.0 0.0 0.0 0.0
gw 0.0 0.0 0.0 0.0
gw 0.0 0.0 0.0 0.0
gw 0.0 0.0 0.0 0.0
gw 0.0 0.0 0.0 0.0
gw 0.0 0.0 0.0 0.0
gw 0.0 0.0 0.0 0.0
gw 0.0 0.0 0.0 0.0
gw 0.0 0.0 0.0 0.0
gw 0.0 0.0 0.0 0.0
gw 0.0 0.0 0.0 0.0
gw 0.0 0.0 0.0 0.0
gw 0.0 0.0 0.0 0.0
gw 0.0 0.0 0.0 0.0
gw 0.0 0.0 0.0 0.0
gw 0.0 0.0 0.0 0.0
gw 0.0 0.0 0.0 0.0
gw 0.0 0.0 0.0 0.0
gw 0.0 0.0 0.0 0.0
gw 0.0 0.0 0.0 0.0
gw 0.0 0.0 0.0 0.0
gw 0.0 0.0 0.0 0.0
gw 0.0 0.0 0.0 0.0
gw 0.0 0.0 0.0 0.0
gw 0.0 0.0 0.0 0.0
gw 0.0 0.0 0.0 0.0
gw 0.0 0.0 0.0 0.0
gw 0.0 0.0 0.0 0.0
gw 0.0 0.0 0.0 0.0
gw 0.0 0.0 0.0 0.0
gw 0.0 0.0 0.0 0.0
gw 0.0 0.0 0.0 0.0
gw 0.0 0.0 0.0 0.0
gw 0.0 0.0 0.0 0.0
gw 0.0 0.0 0.0 0.0
gw 0.0 0.0 0.0 0.0
gw 0.0 0.0 0.0 0.0
gw 0.0 0.0 0.0 0.0
gw 0.0 0.0 0.0 0.0
gw 0.0 0.0 0.0 0.0
gw 0.0 0.0 0.0 0.0
gw 0.0 0.0 0.0 0.0
gw 0.0 0.0 0.0 0.0
gw 0.0 0.0 0.0 0.0
gw 0.0 0.0 0.0 0.0
gw 0.0 0.0 0.0 0.0
gw 0.0 0.0 0.0 0.0
gw 0.0 0.0 0.0 0.0
gw 0.0 0.0 0.0 0.0
gw 0.0 0.0 0.0 0.0
gw 0.0 0.0 0.0 0.0
gw 0.0 0.0 0.0 0.0
gw 0.0 0.0 0.0 0.0
gw 0.0 0.0 0.0 0.0
gw 0.0 0.0 0.0 0.0
gw 0.0 0.0 0.0 0.0
gw 0.0 0.0 0.0 0.0
gw 0.0 0.0 0.0 0.0
gw 0.0 0.0 0.0 0.0
gw 0.0 0.0 0.0 0.0
gw 0.0 0.0 0.0 0.0
gw 0.0 0.0 0.0 0.0
gw 0.0 0.0 0.0 0.0
gw 0.0 0.0 0.0 0.0
gw 0.0 0.0 0.0 0.0
gw 0.0 0.0 0.0 0.0
gw 0.0 0.0 0.0 0.0
gw 0.0 0.0 0.0 0.0
gw 0.0 0.0 0.0 0.0
gw 0.0 0.0 0.0 0.0
gw 0.0 0.0 0.0 0.0
gw 0.0 0.0 0.0 0.0
gw 0.0 0.0 0.0 0.0
gw 0.0 0.0 0.0 0.0
gw 0.0 0.0 0.0 0.0
gw 0.0 0.0 0.0 0.0
gw 0.0 0.0 0.0 0.0
gw 0.0 0.0 0.0 0.0
gw 0.0 0.0 0.0 0.0
gw 0.0 0.0 0.0 0.0
gw 0.0 0.0 0.0 0.0
gw 0.0 0.0 0.0 0.0
gw 0.0 0.0 0.0 0.0
gw 0.0 0.0 0.0 0.0
gw 0.0 0.0 0.0 0.0
gw 0.0 0.0 0.0 0.0
gw 0.0 0.0 0.0 0.0
gw 0.0 0.0 0.0 0.0
gw 0.0 0.0 0.0 0.0
gw 0.0 0.0 0.0 0.0
gw 0.0 0.0 0.0 0.0
gw 0.0 0.0 0.0 0.0
gw 0.0 0.0 0.0 0.0
gw 0.0 0.0 0.0 0.0
gw 0.0 0.0 0.0 0.0
gw 0.0 0.0 0.0 0.0
gw 0.0 0.0 0.0 0.0
gw 0.0 0.0 0.0 0.0
gw 0.0 0.0 0.0 0.0
gw 0.0 0.0 0.0 0.0
gw 0.0 0.0 0.0 0.0
gw 0.0 0.0 0.0 0.0
gw 0.0 0.0 0.0 0.0
gw 0.0 0.0 0.0 0.0
gw 0.0 0.0 0.0 0.0
gw 0.0 0.0 0.0 0.0
vt 0.0174 -0.0
vt 0.0175 0.3361
vt -0.0 0.3361
vt 0.0 0.0
vt 0.4926 0.0
vt 0.4926 0.3361
vt 0.4715 0.3361
vt 0.4709 0.0
vt 0.1495 0.8017
vt 0.1118 0.7519
vt 0.0914 0.7033
vt 0.2493 0.6722
vt 0.0863 0.6722
vt 0.2493 0.8585
vt 0.195 0.8353
vt 0.2915 0.8406
vt 0.3861 0.7525
vt 0.4099 0.6722
vt 0.4053 0.7068
vt 0.3472 0.8023
vt 0.4926 0.5711
vt 0.4718 0.5711
vt 0.2493 0.6488
vt 0.0824 0.6488
vt 0.4131 0.6488
vt 0.2493 0.3361
vt 0.08 0.3361
vt 0.0815 0.0209
vt 0.2493 0.0209
vt 0.4123 0.0209
vt 0.4152 0.3361
vt -0.0 0.5711
vt 0.0183 0.5711
vt 0.3945 0.5317
vt 0.3998 0.5205
vt 0.4073 0.5089
vt 0.4173 0.5711
vt 0.4167 0.5051
vt 0.3791 0.5711
vt 0.3794 0.5587
vt 0.3818 0.5559
vt 0.3839 0.5447
vt 0.3794 0.5503
vt 0.3848 0.5315
vt 0.3798 0.5369
vt 0.2493 0.5711
vt 0.1157 0.5504
vt 0.1111 0.5474
vt 0.1139 0.5397
vt 0.111 0.536
vt 0.1038 0.5364
vt 0.0964 0.526
vt 0.0918 0.5123
vt 0.0835 0.505
vt 0.0793 0.5045
vt 0.1165 0.5711
vt 0.1161 0.5604
vt 0.1135 0.5577
vt 0.0789 0.5711
vt 0.0261 0.5672
vt 0.0261 0.3353
vt 0.041 0.5015
vt 0.041 0.5672
vt 0.4345 0.5207
vt 0.4345 0.3062
vt 0.4544 0.4719
vt 0.4544 0.5207
vt 0.0611 0.3716
vt 0.0224 0.3716
vt 0.0224 0.3478
vt 0.0611 0.3478
vt 0.4812 0.3062
vt 0.4812 0.4719
vt 0.4544 0.1366
vt 0.4812 0.1366
vt 0.0224 0.3494
vt 0.0611 0.3494
vt 0.0611 0.37
vt 0.0224 0.37
vt 0.0224 0.3562
vt 0.0611 0.3562
vt 0.0611 0.3632
vt 0.0224 0.3632
vt 0.0224 0.3524
vt 0.0611 0.3524
vt 0.0611 0.367
vt 0.0224 0.367
vt 0.0224 0.3546
vt 0.0611 0.3546
vt 0.0611 0.3648
vt 0.0224 0.3648
vt 0.0224 0.352
vt 0.0611 0.352
vt 0.0611 0.3674
vt 0.0224 0.3674
vt 0.0224 0.3552
vt 0.0611 0.3552
vt 0.0611 0.3642
vt 0.0224 0.3642
vt 0.0611 0.3663
vt 0.0224 0.3663
vt 0.0224 0.3531
vt 0.0611 0.3531
vt 0.0224 0.3459
vt 0.0611 0.3459
vt 0.0611 0.3734
vt 0.0224 0.3734
vt 0.0224 0.3557
vt 0.0611 0.3557
vt 0.0611 0.3637
vt 0.0224 0.3637
vt 0.061 0.3353
vt 0.061 0.5015
vt 0.0261 0.0241
vt 0.061 0.0241
vt 0.2554 0.0037
vt 0.2554 0.019
vt 0.1511 0.019
vt 0.1511 0.0037
vt 0.3566 0.0037
vt 0.3566 0.019
vt 0.4704 0.3371
vt 0.435 0.3371
vt 0.435 0.0212
vt 0.4704 0.0212
vt 0.4553 0.5064
vt 0.435 0.5064
vt 0.0611 0.2177
vt 0.0224 0.2177
vt 0.0224 0.1989
vt 0.0611 0.1989
vt 0.0611 0.244
vt 0.0224 0.244
vt 0.0611 0.2674
vt 0.0224 0.2674
vt 0.0611 0.2853
vt 0.0224 0.2853
vt 0.0611 0.2992
vt 0.0224 0.2992
vt 0.0611 0.316
vt 0.0224 0.316
vt 0.0611 0.3295
vt 0.0224 0.3295
vt 0.0611 0.341
vt 0.0224 0.341
vt 0.4704 0.5726
vt 0.4553 0.5726
vt 0.4345 0.0887
vt 0.4544 0.0887
vt 0.4926 0.6722
vt 0.472 0.6722
vt -0.0 0.6722
vt 0.0186 0.6722
vt 0.0282 0.2905
vt 0.0686 0.2905
vt 0.0686 0.4293
vt 0.0282 0.4293
vt 0.0282 0.1542
vt 0.0686 0.1542
vt 0.0282 0.1341
vt 0.0686 0.1341
vt 0.0282 0.1044
vt 0.0686 0.1044
vt 0.0282 0.065
vt 0.0686 0.065
vt 0.0282 0.0222
vt 0.0686 0.0222
vt 0.0282 0.6789
vt 0.0686 0.6789
vt 0.0686 0.7252
vt 0.0282 0.7252
vt 0.0282 0.6438
vt 0.0686 0.6438
vt 0.0282 0.5987
vt 0.0686 0.5987
vt 0.0282 0.5608
vt 0.0686 0.5608
vt 0.0282 0.518
vt 0.0686 0.518
vt 0.0282 0.4761
vt 0.0686 0.4761
vt 0.0282 0.4494
vt 0.0686 0.4494
vt 0.0636 0.5308
vt 0.0636 0.5497
vt 0.0177 0.5497
vt 0.0636 0.2777
vt 0.0177 0.2777
vt 0.0636 0.7082
vt 0.0177 0.7082
vt 0.0177 0.4157
vt 0.0636 0.4157
vt 0.0636 0.1149
vt 0.0177 0.1149
vt 0.0177 0.0007
vt 0.0636 0.0007
vt 0.0636 0.036
vt 0.0177 0.0123
vt 0.0636 0.0123
vt 0.0636 0.4989
vt 0.0177 0.4989
vt 0.0177 0.4389
vt 0.0636 0.4389
vt 0.0177 0.3677
vt 0.0636 0.3677
vt 0.0177 0.3143
vt 0.0636 0.3143
vt 0.0177 0.2347
vt 0.0636 0.2347
vt 0.0636 0.1557
vt 0.0177 0.1557
vt 0.0636 0.5492
vt 0.0177 0.5492
vt 0.0636 0.6026
vt 0.0177 0.6026
vt 0.0636 0.6607
vt 0.0177 0.6607
vt 0.0636 0.7248
vt 0.0177 0.7248
vt 0.0636 0.1233
vt 0.0177 0.1233
vt 0.0177 0.0588
vt 0.0636 0.0588
vt 0.0177 0.0019
vt 0.0636 0.0019
vt 0.0177 0.2113
vt 0.0636 0.2113
vt 0.0636 0.3876
vt 0.0177 0.3876
vt 0.0177 0.0083
vt 0.0636 0.0083
vt 0.0636 0.6527
vt 0.0177 0.6527
vt 0.1973 0.9081
vt 0.1943 0.9247
vt 0.129 0.8932
vt 0.1422 0.8782
vt 0.2493 0.9188
vt 0.478 0.7463
vt 0.4555 0.7417
vt 0.2493 -0.0
vt 0.4454 0.8117
vt 0.4246 0.7993
vt 0.3976 0.8685
vt 0.3793 0.8558
vt 0.3443 0.9064
vt 0.3286 0.8921
vt 0.2954 0.927
vt 0.2493 0.9391
vt 0.0801 0.849
vt 0.0947 0.8356
vt 0.0312 0.7784
vt 0.0429 0.7694
vt 0.0067 0.7084
vt 0.026 0.7018
vn -0.7142 -0.6276 0.31
vn -0.919 -0.0003 0.3944
vn -0.9285 -0.0008 -0.3714
vn -0.7794 -0.5452 -0.3088
vn -0.7591 -0.5512 0.3462
vn -0.911 0.0005 0.4124
vn -0.9356 0.0 -0.3529
vn -0.5691 -0.7944 -0.2123
vn -0.6763 -0.5157 0.5259
vn -0.6803 -0.3568 0.6402
vn -0.6825 -0.1959 0.7041
vn -1.0 0.0 0.0
vn -0.7071 -0.1114 0.6983
vn -0.6266 -0.7794 0.0003
vn -0.6815 -0.63 0.3723
vn -0.685 -0.6336 -0.3595
vn -0.6788 -0.3623 -0.6387
vn -0.7071 -0.0912 -0.7012
vn -0.6795 -0.1865 -0.7096
vn -0.6743 -0.5299 -0.5143
vn -0.9128 0.0006 0.4085
vn -0.9342 0.0004 -0.3568
vn -0.7071 0.7071 -0.0
vn -0.5695 0.5335 0.6254
vn -0.5709 0.5418 -0.6169
vn -1.0 0.0 0.0
vn -0.7071 0.0031 0.7071
vn -0.5776 0.5785 0.576
vn -0.7071 0.7071 0.0
vn -0.5778 0.5797 -0.5746
vn -0.7071 0.0063 -0.7071
vn -0.9259 -0.0014 -0.3779
vn -0.9219 -0.0006 0.3874
vn -0.8539 -0.44 -0.278
vn -0.6923 -0.3412 -0.6358
vn -0.6451 -0.5822 -0.4949
vn -0.5769 -0.575 -0.5802
vn -0.2099 -0.2498 -0.9453
vn -0.2944 -0.9075 -0.2996
vn -0.6414 -0.2668 -0.7193
vn -0.8414 -0.0798 -0.5345
vn -0.8502 -0.0501 -0.5241
vn -0.6099 -0.1095 -0.7849
vn -0.6246 -0.7165 -0.3105
vn -0.599 -0.1046 -0.7939
vn -0.8595 -0.0668 -0.5068
vn -0.6038 -0.0759 -0.7935
vn -0.8389 -0.0753 -0.5391
vn -0.7071 -0.7071 0.0
vn -0.6085 -0.1172 -0.7849
vn -0.7871 -0.2145 -0.5784
vn -0.5788 -0.5846 -0.5685
vn -0.809 -0.5394 -0.2337
vn -0.7817 -0.4752 -0.404
vn -0.6007 -0.4394 -0.668
vn -0.6923 -0.3413 -0.6358
vn -0.6018 -0.6752 -0.4265
vn -0.8661 -0.1688 0.4706
vn -0.5924 -0.2527 0.765
vn -0.7501 -0.1038 0.6531
vn -0.827 -0.51 0.2365
vn -0.6121 -0.7093 0.3496
vn -0.676 -0.3264 0.6607
vn -0.7695 -0.3462 0.5366
vn -0.6454 -0.6931 0.3211
vn -0.5842 -0.5344 0.6108
vn -0.5791 -0.586 0.5668
vn -0.7953 -0.2316 0.5602
vn -0.6108 -0.1829 0.7703
vn -0.6453 -0.6931 0.3211
vn -0.6538 -0.4102 0.6359
vn -0.7223 -0.3063 0.6201
vn -0.293 -0.9081 0.2992
vn -0.8348 -0.4937 0.2435
vn -0.6156 -0.7149 0.3315
vn -0.6145 -0.1239 0.7792
vn -0.8725 -0.1532 0.4639
vn -0.5956 -0.2713 0.7561
vn -0.7597 -0.1502 0.6327
vn -0.6359 -0.2949 0.7132
vn -0.5771 -0.5762 0.5787
vn -0.2705 -0.2874 0.9188
vn -0.9051 -0.3001 0.3014
vn -0.7071 0.0031 0.7071
vn -0.9056 -0.2986 -0.3013
vn -0.7071 -0.7071 0.0
vn -0.904 0.303 0.3016
vn -0.7071 0.7071 0.0
vn -0.9035 0.3044 -0.3017
vn -0.7071 0.0063 -0.7071
vn -0.8901 0.0404 0.454
vn -0.9277 -0.0397 -0.3711
vn -0.903 0.0303 -0.4286
vn -0.9157 -0.0425 0.3996
vn -0.7071 0.7071 0.0
vn -0.9224 0.2506 0.2938
vn -0.9193 0.2598 -0.2958
vn -0.7071 -0.0912 -0.7012
vn -0.7369 -0.1719 -0.6537
vn -0.7378 -0.3331 -0.5872
vn -0.7431 -0.4802 -0.466
vn -0.7306 -0.5939 -0.3369
vn -0.8101 -0.5863 0.0002
vn -0.7346 -0.5841 0.3452
vn -0.7407 -0.4704 0.4797
vn -0.736 -0.3296 0.5914
vn -0.7334 -0.1822 0.6549
vn -0.7071 -0.1114 0.6983
vn -0.0 -0.7071 -0.7071
vn -0.7071 -0.7071 -0.0
vn 0.0 -1.0 0.0
vn 0.0 -0.7071 0.7071
vn 0.0 -0.0 1.0
vn 0.0 0.0887 -0.9961
vn 0.0 0.0 -1.0
vn -0.8566 0.5159 -0.0063
vn 0.0 1.0 0.0005
vn 0.0 0.9346 -0.3556
vn -0.9019 0.3998 -0.1634
vn 0.0 0.821 -0.5709
vn -0.8879 0.384 -0.2533
vn 0.0 0.6481 -0.7616
vn -0.8967 0.2774 -0.3449
vn 0.0 0.4423 -0.8968
vn -0.9032 0.1836 -0.388
vn -0.91 0.1081 -0.4002
vn 0.0 0.2491 -0.9685
vn -0.8923 0.4277 0.1446
vn 0.0 0.9434 0.3315
vn -0.8834 0.4054 0.235
vn 0.0 0.8664 0.4993
vn -0.8755 0.358 0.3246
vn 0.0 0.7244 0.6894
vn -0.8732 0.2616 0.4111
vn 0.0 0.5365 0.8439
vn 0.0 0.0936 0.9956
vn 0.0 0.313 0.9497
vn -0.8744 0.1478 0.4621
vn 0.0 -0.0 1.0
vn 0.0 0.0 -1.0
vn -0.9113 -0.3835 0.1495
vn -0.9175 -0.326 0.2278
vn -0.9119 -0.4101 -0.0125
vn -0.9331 -0.1201 -0.3389
vn -0.9386 -0.1855 -0.2908
vn -0.931 -0.2662 -0.2497
vn -0.9276 -0.3312 -0.1728
vn -0.9178 -0.2603 0.2998
vn -0.8992 -0.1848 0.3966
vn -0.922 -0.0931 0.3758
vtan 0.398 0.0002 0.9174
vtan 0.3944 0.0 0.919
vtan -0.3714 -0.0021 0.9285
vtan 0.1953 -0.6796 0.7071
vtan -0.1168 0.6386 0.7606
vtan 0.4124 -0.0012 0.911
vtan -0.3529 -0.0 0.9356
vtan -0.3477 -0.0014 0.9376
vtan 0.4183 0.3188 0.8505
vtan 0.5684 0.2946 0.7682
vtan 0.6768 0.1943 0.7101
vtan -0.0 -0.0001 1.0
vtan 0.6898 0.1087 0.7158
vtan 0.0006 -0.0001 1.0
vtan 0.2741 0.252 0.9281
vtan -0.2635 -0.2444 0.9332
vtan -0.5634 -0.3008 0.7695
vtan -0.6955 -0.0897 0.713
vtan -0.6841 -0.1882 0.7047
vtan -0.4062 -0.3154 0.8576
vtan 0.4085 -0.0014 0.9128
vtan -0.3568 -0.0001 0.9342
vtan 0.0 0.0 1.0
vtan 0.4564 -0.4275 0.7803
vtan -0.4474 0.4247 0.7871
vtan 0.0 0.0 1.0
vtan 0.7071 -0.0032 0.7071
vtan 0.4069 -0.4076 0.8175
vtan -0.4056 0.4069 0.8185
vtan -0.7071 0.0062 0.7071
vtan -0.3779 -0.0034 0.9259
vtan 0.3874 0.0001 0.9219
vtan -0.2461 -0.1292 0.9606
vtan -0.5392 -0.341 0.7701
vtan -0.3655 -0.3336 0.869
vtan -0.4108 -0.4097 0.8145
vtan -0.6036 -0.7275 0.3262
vtan -0.0924 -0.285 0.9541
vtan -0.6646 -0.2753 0.6947
vtan -0.5321 -0.0508 0.8452
vtan -0.5224 -0.043 0.8516
vtan -0.7725 -0.1387 0.6196
vtan -0.2033 -0.2346 0.9506
vtan -0.7831 -0.131 0.608
vtan -0.5054 -0.0382 0.862
vtan -0.7888 -0.0869 0.6085
vtan -0.537 -0.0471 0.8423
vtan 0.0 -0.0 1.0
vtan -0.7707 -0.1484 0.6197
vtan -0.5579 -0.1524 0.8158
vtan -0.4 -0.404 0.8227
vtan -0.1948 -0.1292 0.9723
vtan -0.3451 -0.21 0.9148
vtan -0.537 -0.3972 0.7442
vtan -0.5757 -0.2699 0.7718
vtan -0.2824 -0.3197 0.9045
vtan 0.4618 0.0903 0.8824
vtan 0.6992 0.3106 0.644
vtan 0.638 -0.3733 0.6735
vtan 0.1964 0.1321 0.9716
vtan 0.2254 0.2673 0.9369
vtan 0.5963 0.2844 0.7507
vtan 0.4905 0.2177 0.8438
vtan 0.2177 0.236 0.9471
vtan 0.4452 0.4183 0.7917
vtan 0.3984 0.4031 0.8239
vtan 0.5382 0.1553 0.8284
vtan 0.7418 0.208 0.6376
vtan 0.2156 0.2381 0.947
vtan 0.5392 0.337 0.7718
vtan 0.5688 0.2468 0.7845
vtan 0.0927 0.2845 0.9542
vtan 0.3055 -0.0476 0.951
vtan 0.2129 0.2542 0.9434
vtan 0.761 0.1674 0.6268
vtan 0.4571 0.0792 0.8859
vtan 0.6852 0.3197 0.6544
vtan 0.5397 0.3971 0.7423
vtan 0.6543 0.2839 0.7009
vtan 0.4094 0.409 0.8155
vtan 0.6187 0.6793 0.3946
vtan 0.4253 -0.6385 0.6414
vtan 0.7071 0.0031 0.7071
vtan 0.9627 -0.0805 0.2582
vtan 0.8167 -0.4072 0.409
vtan 0.4242 -0.6369 -0.6437
vtan 0.7071 -0.7071 -0.0001
vtan 0.9557 -0.2789 -0.0941
vtan 0.8168 -0.4061 -0.4097
vtan -0.9557 0.2795 0.0923
vtan -0.8154 0.415 0.4035
vtan -0.6169 0.2737 0.738
vtan -0.7672 0.2231 0.6014
vtan 0.7071 -0.7071 0.0
vtan 0.8154 -0.415 -0.4035
vtan 0.9561 -0.2783 0.0917
vtan 0.8152 -0.4163 0.4026
vtan 0.7717 -0.243 0.5877
vtan 0.6062 -0.3039 0.735
vtan 0.9561 -0.2783 0.0917
vtan 0.6503 -0.1755 0.7392
vtan 0.7918 -0.1411 0.5943
vtan 0.8033 -0.2011 0.5606
vtan 0.4999 -0.2924 0.8152
vtan 0.4886 -0.2736 0.8285
vtan 0.8057 -0.1858 0.5625
vtan 0.4999 -0.2924 0.8152
vtan 0.8033 -0.2011 0.5606
vtan 0.789 -0.0965 0.6068
vtan 0.6613 -0.1178 0.7408
vtan 0.7881 -0.5585 0.259
vtan 0.5621 -0.7503 0.348
vtan -0.5505 0.7487 -0.3693
vtan -0.7908 0.5491 -0.2706
vtan -0.5621 0.7503 -0.348
vtan -0.7881 0.5585 -0.259
vtan 0.6916 -0.3199 0.6476
vtan 0.7369 -0.2994 0.6061
vtan 0.7908 -0.5491 0.2706
vtan 0.5505 -0.7487 0.3693
vtan 0.7567 -0.3544 0.5494
vtan 0.6386 -0.4172 0.6467
vtan 0.7639 -0.5855 0.2713
vtan 0.7638 -0.5856 0.2713
vtan 0.9627 -0.0807 0.2581
vtan 0.8116 -0.3847 0.4396
vtan 0.7638 -0.5856 0.2713
vtan 0.7071 0.0031 0.7071
vtan 0.4275 0.6406 0.6378
vtan 0.8163 0.4093 0.4075
vtan 0.286 -0.0958 0.9534
vtan -0.2859 0.0963 0.9534
vtan -0.7071 -0.0063 0.7071
vtan -0.7071 -0.0063 0.7071
vtan -0.8162 -0.4104 0.4068
vtan -0.4286 -0.6417 0.636
vtan -0.9777 0.0525 0.2032
vtan -0.7995 0.3301 0.5018
vtan -0.7641 0.4915 0.4178
vtan -0.6237 0.5956 0.5063
vtan -0.9777 0.0536 0.2029
vtan -0.7216 0.3274 0.61
vtan -0.7216 0.3275 0.61
vtan -0.5205 0.7219 0.456
vtan -0.7986 0.5088 0.3214
vtan -0.7809 0.5732 0.2483
vtan -0.5879 0.7423 0.3216
vtan -0.8008 0.0782 0.5938
vtan -0.5112 0.1123 0.8521
vtan -0.5264 0.0809 0.8464
vtan -0.7972 0.0575 0.601
vtan -0.7925 0.0843 0.604
vtan -0.5443 0.116 0.8308
vtan -0.5404 0.1243 0.8322
vtan -0.7936 0.0898 0.6018
vtan -0.4242 0.6373 0.6434
vtan -0.8168 0.4061 0.4097
vtan 0.4253 -0.6385 0.6414
vtan 0.4481 -0.1052 0.8878
vtan -0.3714 0.0002 0.9285
vtan -0.4249 0.0847 0.9013
vtan 0.3999 0.0002 0.9165
vtan 0.7071 0.7071 0.0
vtan 0.7071 0.7071 -0.0
vtan 0.822 0.3696 0.4333
vtan 0.3861 0.5987 0.7018
vtan 0.3936 0.6066 -0.6907
vtan 0.821 0.3767 -0.4289
vtan 0.7071 -0.0912 -0.7012
vtan 0.7071 -0.0912 -0.7012
vtan 0.676 -0.1874 -0.7127
vtan 0.7337 -0.1728 -0.6572
vtan 0.6751 -0.364 -0.6417
vtan 0.7343 -0.335 -0.5904
vtan 0.6692 -0.5333 -0.5175
vtan 0.7384 -0.4839 -0.4696
vtan 0.6828 -0.6354 -0.3605
vtan 0.7285 -0.5958 -0.338
vtan 0.5863 -0.8101 0.0003
vtan 0.7794 -0.6266 0.0003
vtan 0.6785 -0.6324 0.3738
vtan 0.7318 -0.5867 0.3468
vtan 0.6718 -0.5186 0.5289
vtan 0.7366 -0.4735 0.4829
vtan 0.677 -0.3583 0.6429
vtan 0.7329 -0.3312 0.5943
vtan 0.6798 -0.1966 0.7066
vtan 0.7309 -0.183 0.6576
vtan 0.7071 -0.1114 0.6983
vtan 0.7071 -0.1114 0.6983
vtan -0.6999 0.6408 -0.3154
vtan -0.6265 0.6782 0.3841
vtan -1.0 -0.0005 0.0005
vtan -0.7071 0.7071 0.0001
vtan -1.0 0.0 0.0001
vtan -0.6509 0.6428 -0.4038
vtan -1.0 0.0 0.0
vtan -0.4124 -0.0012 -0.911
vtan -0.4297 -0.0638 0.9007
vtan -0.3779 0.0035 0.9258
vtan -0.8222 0.5497 0.1476
vtan -1.0 0.0005 0.0005
vtan -0.516 -0.8565 0.0105
vtan -0.4319 -0.8349 0.3412
vtan -0.46 -0.7412 0.4889
vtan -0.4426 -0.562 0.6987
vtan -0.4293 -0.3864 0.8164
vtan -0.4146 -0.2374 0.8785
vtan -0.4515 -0.8452 -0.2859
vtan -0.4686 -0.7643 -0.443
vtan -0.4832 -0.6486 -0.5881
vtan -0.4873 -0.4687 -0.7368
vtan -0.4558 -0.0789 -0.8866
vtan -0.4852 -0.2665 -0.8328
vtan -0.4873 -0.4687 -0.7368
vtan -0.4085 -0.0014 -0.9128
vtan -0.3714 0.0021 0.9285
vtan -1.0 0.0 0.0
vtan -0.3779 0.0035 0.9258
vtan 0.286 -0.0957 0.9534
vtan 0.7071 -0.0031 0.7071
vtan 0.2861 0.0948 0.9535
vtan 0.2835 -0.0768 0.9559
vtan 0.1659 -0.0098 0.9861
vtan -0.0926 0.1905 0.9773
vtan -0.123 0.3325 0.9351
vtan 0.2429 -0.0055 0.97
vtan 0.2703 0.2148 0.9385
vtan 0.0003 -0.0 1.0
vtan -0.0127 -0.0024 0.9999
vtan 0.4036 -0.307 0.8619
vtan -0.3413 -0.0004 0.9399
vtan -0.6367 -0.1482 0.7567
vtan -0.6954 -0.0897 0.713
vtan -0.2847 0.0802 0.9553
vtan -0.2861 -0.0943 0.9535
vtan -0.7071 0.0063 0.7071
vtan -0.286 0.0962 0.9534
vtan -0.0 -0.0 1.0
vtan 0.3024 -0.3707 0.8782
vtan -0.2958 -0.0005 0.9552
vtan 0.1796 -0.3824 0.9063
vtan -0.2604 0.0053 0.9655
vtan 0.1151 -0.2984 0.9475
vtan -0.1864 0.0094 0.9824
vtan 0.0774 -0.1707 0.9823
vtan -0.0064 0.0017 1.0
vtan -0.2341 0.364 0.9015
vtan 0.3112 -0.0026 0.9504
vtan -0.2747 0.4472 0.8512
vtan 0.405 -0.009 0.9143
vtan -0.3677 0.2357 0.8996
vtan 0.3773 0.0026 0.9261
vtan 0.0 0.0 1.0
vtan 0.0 -0.0 1.0
vtan 0.6898 0.1084 0.7158
vtan -0.2614 -0.2126 0.9415
vtan -0.3914 -0.2529 0.8848
vtan -0.535 -0.242 0.8095
vtan 0.4044 0.258 0.8774
vtan 0.5395 0.2421 0.8064
vtan 0.6357 0.1575 0.7557
f 0/0/0/0 1/1/1/1 2/2/2/2 
f 0/0/0/0 2/2/2/2 3/3/3/3 
f 4/4/4/4 5/5/5/5 6/6/6/6 
f 4/4/4/4 6/6/6/6 7/7/7/7 
f 8/8/8/8 9/9/9/9 10/10/10/10 
f 8/8/8/8 10/10/10/10 11/11/11/11 
f 10/10/10/10 12/12/12/12 11/11/11/11 
f 8/8/8/8 11/11/11/11 13/13/13/13 
f 8/8/8/8 13/13/13/13 14/14/14/14 
f 15/15/15/15 13/13/13/13 11/11/11/11 
f 15/15/15/15 11/11/11/11 16/16/16/16 
f 11/11/11/11 17/17/17/17 18/18/18/18 
f 11/11/11/11 18/18/18/18 16/16/16/16 
f 19/19/19/19 15/15/15/15 16/16/16/16 
f 20/20/20/20 21/21/21/21 6/6/6/6 
f 20/20/20/20 6/6/6/6 5/5/5/5 
f 22/22/22/22 11/11/11/11 12/12/12/12 
f 22/22/22/22 12/12/12/12 23/23/23/23 
f 17/17/17/17 11/11/11/11 22/22/22/22 
f 17/17/17/17 22/22/22/22 24/24/24/24 
f 25/25/25/25 26/26/26/26 27/27/27/27 
f 25/25/25/25 27/27/27/27 28/28/28/25 
f 25/25/25/25 28/28/28/25 29/29/29/28 
f 25/25/25/25 29/29/29/28 30/30/30/29 
f 31/31/31/30 2/2/2/2 1/1/1/1 
f 31/31/31/30 1/1/1/1 32/32/32/31 
f 33/33/33/32 34/34/34/33 35/35/35/34 
f 33/33/33/32 35/35/35/34 36/36/36/35 
f 35/35/35/34 37/37/37/36 36/36/36/35 
f 36/36/36/35 38/38/38/37 39/39/39/38 
f 36/36/36/35 39/39/39/38 40/40/40/39 
f 33/33/33/32 36/36/36/35 40/40/40/39 
f 33/33/33/32 40/40/40/39 41/41/41/40 
f 40/40/40/39 42/42/42/41 41/41/41/40 
f 43/43/43/42 33/33/33/32 41/41/41/40 
f 43/43/43/42 41/41/41/40 44/44/44/43 
f 45/44/45/44 46/41/46/45 47/42/47/46 
f 45/44/45/44 47/42/47/46 48/45/48/47 
f 47/42/47/46 49/40/49/48 50/39/50/49 
f 47/42/47/46 50/39/50/49 48/45/48/47 
f 50/39/50/49 51/38/51/50 48/45/48/47 
f 52/43/52/51 45/44/45/44 48/45/48/47 
f 52/43/52/51 48/45/48/47 53/35/53/52 
f 48/45/48/47 25/25/25/25 30/30/30/29 
f 48/45/48/47 30/30/30/29 53/35/53/52 
f 30/30/30/29 54/37/54/53 53/35/53/52 
f 52/43/52/51 53/35/53/52 55/34/55/54 
f 52/43/52/51 55/34/55/54 56/33/56/55 
f 57/46/57/56 58/47/58/57 59/48/59/58 
f 57/46/57/56 59/48/59/58 26/26/26/26 
f 60/49/60/59 61/50/61/60 62/51/62/61 
f 60/49/60/59 62/51/62/61 63/52/63/62 
f 64/53/64/63 65/54/65/64 26/26/26/26 
f 64/53/64/63 26/26/26/26 63/52/63/62 
f 60/49/60/59 63/52/63/62 26/26/26/26 
f 60/49/60/59 26/26/26/26 59/48/59/58 
f 26/26/26/26 25/25/25/25 48/45/48/47 
f 26/26/26/26 48/45/48/47 57/46/57/56 
f 48/45/48/47 66/55/66/65 67/56/67/66 
f 48/45/48/47 67/56/67/66 57/46/57/56 
f 68/57/68/67 57/46/57/56 67/56/67/66 
f 69/53/69/68 70/52/70/69 71/51/71/70 
f 69/53/69/68 71/51/71/70 72/55/72/71 
f 73/50/73/72 74/49/74/73 75/48/75/74 
f 73/50/73/72 75/48/75/74 76/47/76/75 
f 71/51/71/70 73/50/73/72 76/47/76/75 
f 71/51/71/70 76/47/76/75 72/55/72/71 
f 76/47/76/75 77/46/77/76 78/57/78/77 
f 76/47/76/75 78/57/78/77 72/55/72/71 
f 78/57/78/77 79/56/79/78 72/55/72/71 
f 69/53/69/68 72/55/72/71 80/58/80/79 
f 69/53/69/68 80/58/80/79 81/54/81/80 
f 82/59/82/81 83/60/83/82 81/61/81/83 
f 82/59/82/81 81/61/81/83 80/62/80/84 
f 84/63/84/85 85/64/85/86 38/65/38/87 
f 84/63/84/85 38/65/38/87 36/66/36/88 
f 38/67/38/89 51/68/51/90 50/69/50/91 
f 38/67/38/89 50/69/50/91 39/70/39/92 
f 38/65/38/87 85/64/85/86 48/71/48/93 
f 38/65/38/87 48/71/48/93 51/72/51/94 
f 72/73/72/95 66/74/66/96 48/71/48/93 
f 72/73/72/95 48/71/48/93 85/64/85/86 
f 79/75/79/97 67/76/67/98 66/77/66/96 
f 79/75/79/97 66/77/66/96 72/78/72/99 
f 78/79/78/100 68/80/68/101 67/81/67/98 
f 78/79/78/100 67/81/67/98 79/82/79/97 
f 77/83/77/102 57/84/57/103 68/85/68/101 
f 77/83/77/102 68/85/68/101 78/86/78/100 
f 76/87/76/104 58/88/58/105 57/89/57/106 
f 76/87/76/104 57/89/57/106 77/90/77/107 
f 75/91/75/108 59/92/59/109 58/93/58/105 
f 75/91/75/108 58/93/58/105 76/94/76/104 
f 74/95/74/110 60/96/60/111 59/97/59/109 
f 74/95/74/110 59/97/59/109 75/98/75/108 
f 73/99/73/112 61/100/61/113 60/101/60/114 
f 73/99/73/112 60/101/60/114 74/102/74/115 
f 71/69/71/116 62/70/62/117 61/67/61/118 
f 71/69/71/116 61/67/61/118 73/68/73/119 
f 70/103/70/120 63/104/63/121 62/105/62/117 
f 70/103/70/120 62/105/62/117 71/106/71/116 
f 69/75/69/122 64/76/64/123 63/77/63/121 
f 69/75/69/122 63/77/63/121 70/78/70/120 
f 81/107/81/124 65/108/65/125 64/109/64/126 
f 81/107/81/124 64/109/64/126 69/110/69/122 
f 81/61/81/83 83/60/83/82 26/111/26/127 
f 81/61/81/83 26/111/26/127 65/112/65/125 
f 86/113/86/128 27/114/27/129 26/111/26/127 
f 86/113/86/128 26/111/26/127 83/60/83/82 
f 87/115/87/25 28/116/28/25 27/117/27/27 
f 87/115/87/25 27/117/27/27 86/118/86/130 
f 88/119/88/131 29/120/29/28 28/116/28/25 
f 88/119/88/131 28/116/28/25 87/115/87/25 
f 89/121/89/132 30/122/30/133 29/123/29/134 
f 89/121/89/132 29/123/29/134 88/124/88/135 
f 37/125/37/136 54/126/54/137 30/122/30/133 
f 37/125/37/136 30/122/30/133 89/121/89/132 
f 35/127/35/138 53/128/53/139 54/129/54/137 
f 35/127/35/138 54/129/54/137 37/130/37/140 
f 34/131/34/141 55/132/55/142 53/128/53/139 
f 34/131/34/141 53/128/53/139 35/127/35/138 
f 33/133/33/143 56/134/56/144 55/132/55/142 
f 33/133/33/143 55/132/55/142 34/131/34/141 
f 43/135/43/145 52/136/52/146 56/134/56/144 
f 43/135/43/145 56/134/56/144 33/133/33/143 
f 44/137/44/147 45/138/45/148 52/136/52/146 
f 44/137/44/147 52/136/52/146 43/135/43/145 
f 41/139/41/149 46/140/46/150 45/138/45/148 
f 41/139/41/149 45/138/45/148 44/137/44/147 
f 42/141/42/151 47/142/47/152 46/140/46/150 
f 42/141/42/151 46/140/46/150 41/139/41/149 
f 40/143/40/153 49/144/49/154 47/142/47/152 
f 40/143/40/153 47/142/47/152 42/141/42/151 
f 39/70/39/92 50/69/50/91 49/144/49/154 
f 39/70/39/92 49/144/49/154 40/143/40/153 
f 84/145/84/155 36/146/36/156 37/125/37/136 
f 84/145/84/155 37/125/37/136 89/121/89/132 
f 82/147/82/157 80/148/80/84 72/73/72/95 
f 82/147/82/157 72/73/72/95 85/64/85/86 
f 20/20/20/20 90/149/90/158 91/150/91/159 
f 20/20/20/20 91/150/91/159 21/21/21/21 
f 92/151/92/160 31/31/31/30 32/32/32/31 
f 92/151/92/160 32/32/32/31 93/152/93/161 
f 94/153/94/162 22/154/22/163 23/155/23/164 
f 94/153/94/162 23/155/23/164 95/156/95/165 
f 96/157/96/166 24/158/24/167 22/154/22/163 
f 96/157/96/166 22/154/22/163 94/153/94/162 
f 97/159/97/168 17/160/17/169 24/158/24/167 
f 97/159/97/168 24/158/24/167 96/157/96/166 
f 98/161/98/170 18/162/18/171 17/160/17/169 
f 98/161/98/170 17/160/17/169 97/159/97/168 
f 99/163/99/172 16/164/16/173 18/162/18/171 
f 99/163/99/172 18/162/18/171 98/161/98/170 
f 100/165/100/174 19/166/19/175 16/164/16/173 
f 100/165/100/174 16/164/16/173 99/163/99/172 
f 101/167/101/176 15/168/15/177 19/169/19/175 
f 101/167/101/176 19/169/19/175 100/170/100/174 
f 102/171/102/178 13/172/13/179 15/168/15/177 
f 102/171/102/178 15/168/15/177 101/167/101/176 
f 103/173/103/180 14/174/14/181 13/172/13/179 
f 103/173/103/180 13/172/13/179 102/171/102/178 
f 104/175/104/182 8/176/8/183 14/174/14/181 
f 104/175/104/182 14/174/14/181 103/173/103/180 
f 105/177/105/184 9/178/9/185 8/176/8/183 
f 105/177/105/184 8/176/8/183 104/175/104/182 
f 106/179/106/186 10/180/10/187 9/178/9/185 
f 106/179/106/186 9/178/9/185 105/177/105/184 
f 107/181/107/188 12/182/12/189 10/180/10/187 
f 107/181/107/188 10/180/10/187 106/179/106/186 
f 95/156/95/165 23/155/23/164 12/182/12/189 
f 95/156/95/165 12/182/12/189 107/181/107/188 
f 0/183/0/190 3/184/3/191 108/185/108/192 
f 0/183/0/190 108/185/108/192 109/186/109/193 
f 109/186/109/193 108/185/108/192 110/187/110/194 
f 4/188/4/195 111/189/111/196 112/190/112/196 
f 4/188/4/195 112/190/112/196 5/191/5/197 
f 92/192/92/198 113/193/113/196 114/194/114/196 
f 92/192/92/198 114/194/114/196 31/195/31/199 
f 7/196/7/200 109/186/109/193 110/187/110/194 
f 7/196/7/200 110/187/110/194 111/197/111/201 
f 4/198/4/195 7/196/7/200 111/197/111/201 
f 115/199/115/202 116/200/116/196 117/201/117/196 
f 115/199/115/202 117/201/117/196 118/202/118/203 
f 118/202/118/203 117/201/117/196 119/203/119/196 
f 118/202/118/203 119/203/119/196 120/204/120/204 
f 120/204/120/204 119/203/119/196 121/205/121/196 
f 120/204/120/204 121/205/121/196 122/206/122/205 
f 122/206/122/205 121/205/121/196 123/207/123/196 
f 122/206/122/205 123/207/123/196 124/208/124/206 
f 125/209/125/207 126/210/126/196 113/193/113/196 
f 125/209/125/207 113/193/113/196 92/192/92/198 
f 124/208/124/206 123/207/123/196 126/210/126/196 
f 124/208/124/206 126/210/126/196 125/209/125/207 
f 127/211/127/208 128/212/128/196 116/200/116/196 
f 127/211/127/208 116/200/116/196 115/199/115/202 
f 129/213/129/209 130/214/130/196 128/212/128/196 
f 129/213/129/209 128/212/128/196 127/211/127/208 
f 131/215/131/210 132/216/132/196 130/214/130/196 
f 131/215/131/210 130/214/130/196 129/213/129/209 
f 133/217/133/211 134/218/134/196 132/216/132/196 
f 133/217/133/211 132/216/132/196 131/215/131/210 
f 90/219/90/212 135/220/135/196 136/221/136/196 
f 90/219/90/212 136/221/136/196 137/222/137/213 
f 137/222/137/213 136/221/136/196 134/223/134/196 
f 137/222/137/213 134/223/134/196 133/224/133/214 
f 5/191/5/197 112/190/112/196 138/225/138/196 
f 5/191/5/197 138/225/138/196 20/226/20/215 
f 2/227/2/216 139/228/139/196 108/229/108/217 
f 2/227/2/216 108/229/108/217 3/230/3/191 
f 31/231/31/218 114/232/114/196 139/228/139/196 
f 31/231/31/218 139/228/139/196 2/227/2/216 
f 20/226/20/215 138/225/138/196 135/220/135/196 
f 20/226/20/215 135/220/135/196 90/219/90/212 
f 1/1/1/1 0/0/0/0 86/27/86/219 
f 1/1/1/1 86/27/86/219 83/26/83/220 
f 83/26/83/220 82/58/82/221 32/32/32/31 
f 83/26/83/220 32/32/32/31 1/1/1/1 
f 32/32/32/31 82/58/82/221 95/23/95/222 
f 32/32/32/31 95/23/95/222 93/152/93/161 
f 140/233/140/223 118/234/118/224 120/235/120/225 
f 140/233/140/223 120/235/120/225 141/236/141/226 
f 140/233/140/223 103/14/103/227 102/13/102/228 
f 140/233/140/223 102/13/102/228 142/237/142/229 
f 91/150/91/159 90/149/90/158 137/238/137/230 
f 91/150/91/159 137/238/137/230 143/239/143/231 
f 98/18/98/232 97/17/97/233 91/150/91/159 
f 98/18/98/232 91/150/91/159 143/239/143/231 
f 96/24/96/234 84/36/84/235 21/21/21/21 
f 96/24/96/234 21/21/21/21 91/150/91/159 
f 84/36/84/235 89/30/89/236 6/6/6/6 
f 84/36/84/235 6/6/6/6 21/21/21/21 
f 6/6/6/6 89/30/89/236 88/29/88/237 
f 6/6/6/6 88/29/88/237 7/7/7/7 
f 86/27/86/219 0/0/0/0 109/240/109/238 
f 86/27/86/219 109/240/109/238 87/28/87/25 
f 88/29/88/237 87/28/87/25 109/240/109/238 
f 88/29/88/237 109/240/109/238 7/7/7/7 
f 133/241/133/239 144/242/144/240 143/239/143/231 
f 133/241/133/239 143/239/143/231 137/238/137/230 
f 131/243/131/241 145/244/145/242 144/242/144/240 
f 131/243/131/241 144/242/144/240 133/241/133/239 
f 129/245/129/243 146/246/146/244 145/244/145/242 
f 129/245/129/243 145/244/145/242 131/243/131/241 
f 127/247/127/245 142/237/142/229 146/246/146/244 
f 127/247/127/245 146/246/146/244 129/245/129/243 
f 127/247/127/245 115/248/115/246 142/237/142/229 
f 142/237/142/229 115/248/115/246 118/234/118/224 
f 142/237/142/229 118/234/118/224 140/233/140/223 
f 122/249/122/247 147/250/147/248 141/236/141/226 
f 122/249/122/247 141/236/141/226 120/235/120/225 
f 124/251/124/249 148/252/148/250 147/250/147/248 
f 124/251/124/249 147/250/147/248 122/249/122/247 
f 125/253/125/251 149/254/149/252 148/252/148/250 
f 125/253/125/251 148/252/148/250 124/251/124/249 
f 125/253/125/251 92/151/92/160 93/152/93/161 
f 125/253/125/251 93/152/93/161 149/254/149/252 
f 96/24/96/234 94/22/94/253 85/45/85/254 
f 96/24/96/234 85/45/85/254 84/36/84/235 
f 85/45/85/254 94/22/94/253 95/23/95/222 
f 85/45/85/254 95/23/95/222 82/58/82/221 
f 91/150/91/159 97/17/97/233 96/24/96/234 
f 95/23/95/222 107/12/107/255 93/152/93/161 
f 146/246/146/244 142/237/142/229 102/13/102/228 
f 146/246/146/244 102/13/102/228 101/15/101/256 
f 145/244/145/242 146/246/146/244 101/15/101/256 
f 145/244/145/242 101/15/101/256 100/19/100/257 
f 144/242/144/240 145/244/145/242 100/19/100/257 
f 144/242/144/240 100/19/100/257 99/16/99/258 
f 143/239/143/231 144/242/144/240 99/16/99/258 
f 143/239/143/231 99/16/99/258 98/18/98/232 
f 141/236/141/226 104/8/104/259 103/14/103/227 
f 141/236/141/226 103/14/103/227 140/233/140/223 
f 147/250/147/248 105/9/105/260 104/8/104/259 
f 147/250/147/248 104/8/104/259 141/236/141/226 
f 148/252/148/250 106/10/106/261 105/9/105/260 
f 148/252/148/250 105/9/105/260 147/250/147/248 
f 149/254/149/252 107/12/107/255 106/10/106/261 
f 149/254/149/252 106/10/106/261 148/252/148/250 
f 149/254/149/252 93/152/93/161 107/12/107/255 
