v 859.3745 680.957 -30.9478
v 859.3745 680.957 -38.9362
v 869.4093 680.957 -38.9362
v 869.4093 680.957 -30.9478
v 869.4093 692.2972 -38.9362
v 856.4197 692.2972 -38.9362
v 856.4197 692.2972 -30.9478
v 869.4093 692.2972 -30.9478
v 858.3641 682.6064 -30.9478
v 858.3641 682.6064 -38.9362
v 856.4197 683.5024 -38.9362
v 856.4197 683.5024 -30.9478
vt 0.6529 0.9132
vt 0.5979 0.9132
vt 0.5979 0.9823
vt 0.6529 0.9823
vt 0.5979 0.7366
vt 0.5979 0.826
vt 0.6529 0.826
vt 0.6529 0.7366
vt 0.5153 0.8138
vt 0.5153 0.8829
vt 0.5266 0.8068
vt 0.6529 0.8999
vt 0.5979 0.8999
vt 0.5866 0.9063
vt 0.5933 0.8829
vt 0.5933 0.7934
vt 0.5979 0.8865
vt 0.6529 0.8865
vt 0.5198 0.9823
vt 0.5199 0.8929
vt 0.5328 0.7934
vt 0.5804 0.8929
vn -0.3865 -0.6901 0.6119
vn -0.3865 -0.6901 -0.6119
vn 0.0 -0.7071 -0.7071
vn 0.0 -0.7071 0.7071
vn 0.0 0.7071 -0.7071
vn -0.5774 0.5774 -0.5773
vn -0.5774 0.5773 0.5773
vn 0.0 0.7071 0.7071
vn -0.4168 -0.469 0.7787
vn -0.4167 -0.469 -0.7787
vn -0.6715 -0.4299 -0.6035
vn -0.6715 -0.4299 0.6035
vtan 0.299 0.5339 0.7909 -1.0
vtan -0.0358 -0.6517 0.7576 -1.0
vtan 0.0002 -0.7071 0.7071 -1.0
vtan 0.0 0.7071 0.7071 -1.0
vtan 0.0 0.7071 0.7071 -1.0
vtan -0.4082 0.4082 0.8165 -1.0
vtan 0.4082 -0.4082 0.8165 -1.0
vtan 0.0 -0.7071 0.7071 -1.0
vtan -0.3649 0.7237 0.5857 -1.0
vtan 0.0004 0.7071 0.7071 -1.0
vtan -0.2207 0.8832 0.4138 -1.0
vtan 0.5172 0.5821 0.6274 -1.0
vtan -0.5172 -0.5821 0.6274 -1.0
vtan 0.2221 -0.8832 0.4131 -1.0
vtan 0.0 0.7071 -0.7071 -1.0
vtan 0.4083 0.8165 -0.4082 -1.0
vtan -0.5083 -0.3254 0.7974 -1.0
vtan 0.5083 0.3254 0.7973 -1.0
vtan -0.0001 -0.7071 -0.7071 -1.0
vtan -0.4084 -0.8165 -0.4081 -1.0
vtan -0.3198 0.9029 0.2874 -1.0
vtan 0.3198 -0.9029 0.2874 -1.0
f 0/0/0/0 1/1/1/1 2/2/2/2 
f 0/0/0/0 2/2/2/2 3/3/3/3 
f 4/4/4/4 5/5/5/5 6/6/6/6 
f 4/4/4/4 6/6/6/6 7/7/7/7 
f 0/8/0/8 3/9/3/9 8/10/8/10 
f 0/0/0/0 8/11/8/11 9/12/9/12 
f 0/0/0/0 9/12/9/12 1/1/1/1 
f 1/1/1/1 9/13/9/13 2/2/2/2 
f 8/10/8/10 3/9/3/9 7/14/7/14 
f 8/10/8/10 7/14/7/14 6/15/6/15 
f 10/16/10/16 11/17/11/17 6/6/6/6 
f 10/16/10/16 6/6/6/6 5/5/5/5 
f 4/18/4/18 2/2/2/2 9/13/9/13 
f 4/18/4/18 9/13/9/13 5/19/5/19 
f 6/15/6/15 11/20/11/20 8/10/8/10 
f 11/17/11/17 10/16/10/16 9/12/9/12 
f 11/17/11/17 9/12/9/12 8/11/8/11 
f 9/13/9/13 10/21/10/21 5/19/5/19 
