v 817.5485 287.1735 -269.4016
v 815.4125 285.9886 -270.0403
v 816.4694 283.722 -269.7052
v 818.6777 284.7518 -269.0436
v 816.4949 289.4329 -270.4276
v 814.4264 288.1034 -271.0005
v 815.5925 291.368 -272.0736
v 813.5818 289.9145 -272.5412
v 814.897 292.8597 -274.2086
v 812.9307 291.3107 -274.5396
v 814.4634 293.7896 -276.7016
v 812.5249 292.181 -276.8727
v 814.3121 294.114 -279.3734
v 812.3833 292.4846 -279.3734
v 814.4634 293.7897 -282.0454
v 812.5249 292.1811 -281.8743
v 814.897 292.8598 -284.5385
v 812.9308 291.3108 -284.2078
v 815.5927 291.368 -286.6736
v 813.5818 289.9145 -286.2061
v 816.4949 289.433 -288.3196
v 814.4264 288.1034 -287.7466
v 817.5485 287.1736 -289.3456
v 815.4125 285.9886 -288.7069
v 818.6777 284.752 -289.7036
v 816.4694 283.7222 -289.0419
v 819.8069 282.3304 -289.3456
v 817.5262 281.4557 -288.7069
v 820.8605 280.071 -288.3196
v 818.5123 279.341 -287.7467
v 821.7628 278.136 -286.6736
v 819.3569 277.5298 -286.2062
v 822.4584 276.6442 -284.5386
v 820.0079 276.1337 -284.2079
v 822.892 275.7144 -282.0457
v 820.4138 275.2634 -281.8746
v 823.0433 275.3898 -279.3738
v 820.5554 274.9596 -279.3738
v 822.892 275.7143 -276.7017
v 820.4138 275.2633 -276.8728
v 822.4584 276.6442 -274.2086
v 820.0079 276.1336 -274.5394
v 821.7628 278.1359 -272.0736
v 819.3568 277.5298 -272.5411
v 820.8605 280.0709 -270.4277
v 818.5123 279.3409 -271.0006
v 819.8069 282.3302 -269.4016
v 817.5262 281.4555 -270.0403
v 811.8423 282.9898 -274.5526
v 812.6406 283.4969 -274.0966
v 812.083 284.6925 -274.6394
v 811.3329 284.0821 -275.0486
v 811.1216 283.4531 -275.8814
v 811.5328 282.5711 -275.4809
v 811.9736 281.6258 -275.3411
v 812.3882 281.8191 -274.3795
v 810.8967 285.0175 -275.8445
v 811.6056 285.7165 -275.5105
v 811.2374 286.506 -276.6404
v 810.5604 285.7388 -276.8766
v 810.4978 284.7907 -277.3573
v 810.7693 284.2084 -276.5239
v 810.3508 286.1883 -278.0818
v 811.0079 286.998 -277.9596
v 810.928 287.1697 -279.3736
v 810.2776 286.3451 -279.3736
v 810.2694 285.2804 -279.3736
v 810.3285 285.1537 -278.3305
v 810.3508 286.1883 -280.6653
v 811.0079 286.998 -280.7875
v 811.2374 286.5061 -282.1068
v 810.5604 285.7389 -281.8705
v 810.4978 284.7908 -281.3898
v 810.3285 285.1537 -280.4166
v 810.8967 285.0175 -282.9027
v 811.6056 285.7166 -283.2366
v 812.083 284.6926 -284.1077
v 811.3329 284.0822 -283.6985
v 811.1216 283.4532 -282.8658
v 810.7693 284.2085 -282.2232
v 811.8423 282.9899 -284.1945
v 812.6406 283.4969 -284.6505
v 813.2382 282.2155 -284.84
v 812.3882 281.8192 -284.3676
v 811.9736 281.6259 -283.406
v 811.5328 282.5712 -283.2663
v 812.9341 280.6483 -284.1946
v 813.8357 280.934 -284.6506
v 814.3933 279.7384 -284.1078
v 813.4435 279.5561 -283.6986
v 812.8257 279.7986 -282.8658
v 812.4144 280.6806 -283.2664
v 813.8796 278.6207 -282.9028
v 814.8707 278.7144 -283.2367
v 815.2389 277.925 -282.1069
v 814.2159 277.8995 -281.8706
v 813.4495 278.4608 -281.3899
v 813.178 279.0432 -282.2233
v 814.4255 277.4498 -280.6654
v 815.4683 277.4328 -280.7876
v 815.5483 277.2611 -279.3737
v 814.4988 277.293 -279.3737
v 813.6777 277.9711 -279.3737
v 813.6188 278.0978 -280.4167
v 814.4255 277.4498 -278.0819
v 815.4683 277.4328 -277.9597
v 815.2389 277.9249 -276.6404
v 814.2159 277.8994 -276.8767
v 813.4495 278.4608 -277.3574
v 813.6188 278.0978 -278.3306
v 813.8796 278.6205 -275.8445
v 814.8707 278.7143 -275.5106
v 814.3933 279.7383 -274.6395
v 813.4435 279.556 -275.0487
v 812.8257 279.7985 -275.8815
v 813.178 279.0431 -276.524
v 812.9341 280.6483 -274.5527
v 813.8357 280.9339 -274.0967
v 813.2382 282.2154 -273.9071
v 812.4144 280.6804 -275.481
v 814.3564 284.4237 -273.6682
v 813.7537 285.7164 -274.2551
v 815.0024 283.0381 -273.4633
v 813.2373 286.8235 -275.1969
v 812.8394 287.677 -276.4185
v 812.5913 288.209 -277.8447
v 812.5048 288.3947 -279.3736
v 812.5913 288.209 -280.9024
v 812.8394 287.6771 -282.3286
v 813.2373 286.8235 -283.5502
v 813.7537 285.7165 -284.492
v 814.3564 284.4238 -285.079
v 815.0024 283.0381 -285.2838
v 815.6486 281.6526 -285.079
v 816.2515 280.36 -284.4921
v 816.7676 279.2529 -283.5503
v 817.1656 278.3994 -282.3287
v 817.4137 277.8672 -280.9025
v 817.5002 277.6816 -279.3737
v 817.4137 277.8672 -277.8448
v 817.1656 278.3993 -276.4186
v 816.7676 279.2528 -275.197
v 816.2515 280.3599 -274.2552
v 815.6486 281.6526 -273.6682
v 814.8162 284.8098 -273.0873
v 814.9263 285.3269 -271.5116
v 814.0956 287.1083 -272.3205
v 814.1521 286.2341 -273.734
v 815.5281 283.2832 -272.8616
v 815.8165 283.4177 -271.2294
v 816.2399 281.7566 -273.0873
v 816.7068 281.5085 -271.5116
v 816.9041 280.3323 -273.7341
v 817.5375 279.7271 -272.3206
v 817.4729 279.1125 -274.7717
v 818.2488 278.2016 -273.6183
v 817.9114 278.1721 -276.1177
v 818.7972 277.0255 -275.3015
v 818.1848 277.5859 -277.6892
v 819.1392 276.2924 -277.2671
v 818.2802 277.3814 -279.3737
v 819.2584 276.0366 -279.3737
v 818.1848 277.586 -281.0581
v 819.1392 276.2924 -281.4803
v 817.9114 278.1721 -282.6296
v 818.7972 277.0256 -283.4458
v 817.4729 279.1125 -283.9755
v 818.2488 278.2017 -285.129
v 816.9041 280.3324 -285.0132
v 817.5375 279.7272 -286.4268
v 816.2399 281.7567 -285.6599
v 816.7068 281.5086 -287.2355
v 815.5281 283.2833 -285.8855
v 815.8165 283.4178 -287.5177
v 814.8162 284.8099 -285.6599
v 814.9263 285.327 -287.2355
v 814.1521 286.2342 -285.0132
v 814.0956 287.1082 -286.4267
v 813.5833 287.4539 -283.9755
v 813.3843 288.6339 -285.1289
v 813.1448 288.3943 -282.6295
v 812.8357 289.8101 -283.4457
v 812.8713 288.9806 -281.058
v 812.4939 290.5432 -281.4801
v 812.776 289.185 -279.3736
v 812.3746 290.7989 -279.3736
v 812.8713 288.9805 -277.6891
v 812.4939 290.5431 -277.267
v 813.1447 288.3943 -276.1176
v 812.8357 289.81 -275.3015
v 813.5833 287.4539 -274.7719
v 813.3842 288.6339 -273.6182
v 813.5558 283.3643 -275.9884
v 813.9392 282.5423 -275.8669
v 813.1981 284.1313 -276.3367
v 812.8918 284.7882 -276.8954
v 812.6558 285.2946 -277.6203
v 812.5085 285.6103 -278.4666
v 812.4572 285.7204 -279.3736
v 812.5085 285.6103 -280.2807
v 812.6558 285.2946 -281.127
v 812.8918 284.7883 -281.8517
v 813.1981 284.1313 -282.4104
v 813.5558 283.3643 -282.7587
v 813.9392 282.5424 -282.8803
v 814.3225 281.7203 -282.7587
v 814.6802 280.9532 -282.4105
v 814.9865 280.2964 -281.8518
v 815.2227 279.7901 -281.127
v 815.3698 279.4743 -280.2808
v 815.4211 279.3642 -279.3737
v 815.3698 279.4743 -278.4666
v 815.2227 279.79 -277.6204
v 814.9865 280.2964 -276.8955
v 814.6802 280.9532 -276.3368
v 814.3225 281.7202 -275.9884
v 814.166 282.6481 -279.3736
v 814.342 287.8956 -271.2652
v 815.2971 285.8476 -270.3352
v 816.3206 283.6527 -270.0108
v 817.3441 281.4578 -270.3352
v 818.2991 279.4099 -271.2651
v 819.1168 277.6562 -272.7571
v 819.7473 276.304 -274.6921
v 820.1404 275.4612 -276.9519
v 820.2775 275.1671 -279.3738
v 820.1404 275.4613 -281.7955
v 819.7473 276.304 -284.0551
v 819.1168 277.6562 -285.9902
v 818.2991 279.4101 -287.4821
v 817.344 281.4579 -288.4119
v 816.3206 283.6528 -288.7365
v 815.2971 285.8477 -288.4119
v 814.3422 287.8956 -287.4821
v 813.5243 289.6494 -285.9901
v 812.8938 291.0016 -284.0551
v 812.5007 291.8444 -281.7953
v 812.3636 292.1384 -279.3734
v 812.5007 291.8443 -276.9518
v 812.8938 291.0016 -274.6922
v 813.5243 289.6494 -272.7571
gi 0 0 0 0
gi 0 0 0 0
gi 0 0 0 0
gi 0 0 0 0
gi 0 0 0 0
gi 0 0 0 0
gi 0 0 0 0
gi 0 0 0 0
gi 0 0 0 0
gi 0 0 0 0
gi 0 0 0 0
gi 0 0 0 0
gi 0 0 0 0
gi 0 0 0 0
gi 0 0 0 0
gi 0 0 0 0
gi 0 0 0 0
gi 0 0 0 0
gi 0 0 0 0
gi 0 0 0 0
gi 0 0 0 0
gi 0 0 0 0
gi 0 0 0 0
gi 0 0 0 0
gi 0 0 0 0
gi 0 0 0 0
gi 0 0 0 0
gi 0 0 0 0
gi 0 0 0 0
gi 0 0 0 0
gi 0 0 0 0
gi 0 0 0 0
gi 0 0 0 0
gi 0 0 0 0
gi 0 0 0 0
gi 0 0 0 0
gi 0 0 0 0
gi 0 0 0 0
gi 0 0 0 0
gi 0 0 0 0
gi 0 0 0 0
gi 0 0 0 0
gi 0 0 0 0
gi 0 0 0 0
gi 0 0 0 0
gi 0 0 0 0
gi 0 0 0 0
gi 0 0 0 0
gi 0 0 0 0
gi 0 0 0 0
gi 0 0 0 0
gi 0 0 0 0
gi 0 0 0 0
gi 0 0 0 0
gi 0 0 0 0
gi 0 0 0 0
gi 0 0 0 0
gi 0 0 0 0
gi 0 0 0 0
gi 0 0 0 0
gi 0 0 0 0
gi 0 0 0 0
gi 0 0 0 0
gi 0 0 0 0
gi 0 0 0 0
gi 0 0 0 0
gi 0 0 0 0
gi 0 0 0 0
gi 0 0 0 0
gi 0 0 0 0
gi 0 0 0 0
gi 0 0 0 0
gi 0 0 0 0
gi 0 0 0 0
gi 0 0 0 0
gi 0 0 0 0
gi 0 0 0 0
gi 0 0 0 0
gi 0 0 0 0
gi 0 0 0 0
gi 0 0 0 0
gi 0 0 0 0
gi 0 0 0 0
gi 0 0 0 0
gi 0 0 0 0
gi 0 0 0 0
gi 0 0 0 0
gi 0 0 0 0
gi 0 0 0 0
gi 0 0 0 0
gi 0 0 0 0
gi 0 0 0 0
gi 0 0 0 0
gi 0 0 0 0
gi 0 0 0 0
gi 0 0 0 0
gi 0 0 0 0
gi 0 0 0 0
gi 0 0 0 0
gi 0 0 0 0
gi 0 0 0 0
gi 0 0 0 0
gi 0 0 0 0
gi 0 0 0 0
gi 0 0 0 0
gi 0 0 0 0
gi 0 0 0 0
gi 0 0 0 0
gi 0 0 0 0
gi 0 0 0 0
gi 0 0 0 0
gi 0 0 0 0
gi 0 0 0 0
gi 0 0 0 0
gi 0 0 0 0
gi 0 0 0 0
gi 0 0 0 0
gi 0 0 0 0
gi 0 0 0 0
gi 0 0 0 0
gi 0 0 0 0
gi 0 0 0 0
gi 0 0 0 0
gi 0 0 0 0
gi 0 0 0 0
gi 0 0 0 0
gi 0 0 0 0
gi 0 0 0 0
gi 0 0 0 0
gi 0 0 0 0
gi 0 0 0 0
gi 0 0 0 0
gi 0 0 0 0
gi 0 0 0 0
gi 0 0 0 0
gi 0 0 0 0
gi 0 0 0 0
gi 0 0 0 0
gi 0 0 0 0
gi 0 0 0 0
gi 0 0 0 0
gi 0 0 0 0
gi 0 0 0 0
gi 0 0 0 0
gi 0 0 0 0
gi 0 0 0 0
gi 0 0 0 0
gi 0 0 0 0
gi 0 0 0 0
gi 0 0 0 0
gi 0 0 0 0
gi 0 0 0 0
gi 0 0 0 0
gi 0 0 0 0
gi 0 0 0 0
gi 0 0 0 0
gi 0 0 0 0
gi 0 0 0 0
gi 0 0 0 0
gi 0 0 0 0
gi 0 0 0 0
gi 0 0 0 0
gi 0 0 0 0
gi 0 0 0 0
gi 0 0 0 0
gi 0 0 0 0
gi 0 0 0 0
gi 0 0 0 0
gi 0 0 0 0
gi 0 0 0 0
gi 0 0 0 0
gi 0 0 0 0
gi 0 0 0 0
gi 0 0 0 0
gi 0 0 0 0
gi 0 0 0 0
gi 0 0 0 0
gi 0 0 0 0
gi 0 0 0 0
gi 0 0 0 0
gi 0 0 0 0
gi 0 0 0 0
gi 0 0 0 0
gi 0 0 0 0
gi 0 0 0 0
gi 0 0 0 0
gi 0 0 0 0
gi 0 0 0 0
gi 0 0 0 0
gi 0 0 0 0
gi 0 0 0 0
gi 0 0 0 0
gi 0 0 0 0
gi 0 0 0 0
gi 0 0 0 0
gi 0 0 0 0
gi 0 0 0 0
gi 0 0 0 0
gi 0 0 0 0
gi 0 0 0 0
gi 0 0 0 0
gi 0 0 0 0
gi 0 0 0 0
gi 0 0 0 0
gi 0 0 0 0
gi 0 0 0 0
gi 0 0 0 0
gi 0 0 0 0
gi 0 0 0 0
gi 0 0 0 0
gi 0 0 0 0
gi 0 0 0 0
gi 0 0 0 0
gi 0 0 0 0
gi 0 0 0 0
gi 0 0 0 0
gi 0 0 0 0
gi 0 0 0 0
gi 0 0 0 0
gi 0 0 0 0
gi 0 0 0 0
gi 0 0 0 0
gi 0 0 0 0
gi 0 0 0 0
gi 0 0 0 0
gi 0 0 0 0
gi 0 0 0 0
gi 0 0 0 0
gi 0 0 0 0
gi 0 0 0 0
gi 0 0 0 0
gi 0 0 0 0
gi 0 0 0 0
gi 0 0 0 0
gi 0 0 0 0
gi 0 0 0 0
gi 0 0 0 0
gi 0 0 0 0
gi 0 0 0 0
gi 0 0 0 0
gi 0 0 0 0
gw 0.0 0.0 0.0 0.0
gw 0.0 0.0 0.0 0.0
gw 0.0 0.0 0.0 0.0
gw 0.0 0.0 0.0 0.0
gw 0.0 0.0 0.0 0.0
gw 0.0 0.0 0.0 0.0
gw 0.0 0.0 0.0 0.0
gw 0.0 0.0 0.0 0.0
gw 0.0 0.0 0.0 0.0
gw 0.0 0.0 0.0 0.0
gw 0.0 0.0 0.0 0.0
gw 0.0 0.0 0.0 0.0
gw 0.0 0.0 0.0 0.0
gw 0.0 0.0 0.0 0.0
gw 0.0 0.0 0.0 0.0
gw 0.0 0.0 0.0 0.0
gw 0.0 0.0 0.0 0.0
gw 0.0 0.0 0.0 0.0
gw 0.0 0.0 0.0 0.0
gw 0.0 0.0 0.0 0.0
gw 0.0 0.0 0.0 0.0
gw 0.0 0.0 0.0 0.0
gw 0.0 0.0 0.0 0.0
gw 0.0 0.0 0.0 0.0
gw 0.0 0.0 0.0 0.0
gw 0.0 0.0 0.0 0.0
gw 0.0 0.0 0.0 0.0
gw 0.0 0.0 0.0 0.0
gw 0.0 0.0 0.0 0.0
gw 0.0 0.0 0.0 0.0
gw 0.0 0.0 0.0 0.0
gw 0.0 0.0 0.0 0.0
gw 0.0 0.0 0.0 0.0
gw 0.0 0.0 0.0 0.0
gw 0.0 0.0 0.0 0.0
gw 0.0 0.0 0.0 0.0
gw 0.0 0.0 0.0 0.0
gw 0.0 0.0 0.0 0.0
gw 0.0 0.0 0.0 0.0
gw 0.0 0.0 0.0 0.0
gw 0.0 0.0 0.0 0.0
gw 0.0 0.0 0.0 0.0
gw 0.0 0.0 0.0 0.0
gw 0.0 0.0 0.0 0.0
gw 0.0 0.0 0.0 0.0
gw 0.0 0.0 0.0 0.0
gw 0.0 0.0 0.0 0.0
gw 0.0 0.0 0.0 0.0
gw 0.0 0.0 0.0 0.0
gw 0.0 0.0 0.0 0.0
gw 0.0 0.0 0.0 0.0
gw 0.0 0.0 0.0 0.0
gw 0.0 0.0 0.0 0.0
gw 0.0 0.0 0.0 0.0
gw 0.0 0.0 0.0 0.0
gw 0.0 0.0 0.0 0.0
gw 0.0 0.0 0.0 0.0
gw 0.0 0.0 0.0 0.0
gw 0.0 0.0 0.0 0.0
gw 0.0 0.0 0.0 0.0
gw 0.0 0.0 0.0 0.0
gw 0.0 0.0 0.0 0.0
gw 0.0 0.0 0.0 0.0
gw 0.0 0.0 0.0 0.0
gw 0.0 0.0 0.0 0.0
gw 0.0 0.0 0.0 0.0
gw 0.0 0.0 0.0 0.0
gw 0.0 0.0 0.0 0.0
gw 0.0 0.0 0.0 0.0
gw 0.0 0.0 0.0 0.0
gw 0.0 0.0 0.0 0.0
gw 0.0 0.0 0.0 0.0
gw 0.0 0.0 0.0 0.0
gw 0.0 0.0 0.0 0.0
gw 0.0 0.0 0.0 0.0
gw 0.0 0.0 0.0 0.0
gw 0.0 0.0 0.0 0.0
gw 0.0 0.0 0.0 0.0
gw 0.0 0.0 0.0 0.0
gw 0.0 0.0 0.0 0.0
gw 0.0 0.0 0.0 0.0
gw 0.0 0.0 0.0 0.0
gw 0.0 0.0 0.0 0.0
gw 0.0 0.0 0.0 0.0
gw 0.0 0.0 0.0 0.0
gw 0.0 0.0 0.0 0.0
gw 0.0 0.0 0.0 0.0
gw 0.0 0.0 0.0 0.0
gw 0.0 0.0 0.0 0.0
gw 0.0 0.0 0.0 0.0
gw 0.0 0.0 0.0 0.0
gw 0.0 0.0 0.0 0.0
gw 0.0 0.0 0.0 0.0
gw 0.0 0.0 0.0 0.0
gw 0.0 0.0 0.0 0.0
gw 0.0 0.0 0.0 0.0
gw 0.0 0.0 0.0 0.0
gw 0.0 0.0 0.0 0.0
gw 0.0 0.0 0.0 0.0
gw 0.0 0.0 0.0 0.0
gw 0.0 0.0 0.0 0.0
gw 0.0 0.0 0.0 0.0
gw 0.0 0.0 0.0 0.0
gw 0.0 0.0 0.0 0.0
gw 0.0 0.0 0.0 0.0
gw 0.0 0.0 0.0 0.0
gw 0.0 0.0 0.0 0.0
gw 0.0 0.0 0.0 0.0
gw 0.0 0.0 0.0 0.0
gw 0.0 0.0 0.0 0.0
gw 0.0 0.0 0.0 0.0
gw 0.0 0.0 0.0 0.0
gw 0.0 0.0 0.0 0.0
gw 0.0 0.0 0.0 0.0
gw 0.0 0.0 0.0 0.0
gw 0.0 0.0 0.0 0.0
gw 0.0 0.0 0.0 0.0
gw 0.0 0.0 0.0 0.0
gw 0.0 0.0 0.0 0.0
gw 0.0 0.0 0.0 0.0
gw 0.0 0.0 0.0 0.0
gw 0.0 0.0 0.0 0.0
gw 0.0 0.0 0.0 0.0
gw 0.0 0.0 0.0 0.0
gw 0.0 0.0 0.0 0.0
gw 0.0 0.0 0.0 0.0
gw 0.0 0.0 0.0 0.0
gw 0.0 0.0 0.0 0.0
gw 0.0 0.0 0.0 0.0
gw 0.0 0.0 0.0 0.0
gw 0.0 0.0 0.0 0.0
gw 0.0 0.0 0.0 0.0
gw 0.0 0.0 0.0 0.0
gw 0.0 0.0 0.0 0.0
gw 0.0 0.0 0.0 0.0
gw 0.0 0.0 0.0 0.0
gw 0.0 0.0 0.0 0.0
gw 0.0 0.0 0.0 0.0
gw 0.0 0.0 0.0 0.0
gw 0.0 0.0 0.0 0.0
gw 0.0 0.0 0.0 0.0
gw 0.0 0.0 0.0 0.0
gw 0.0 0.0 0.0 0.0
gw 0.0 0.0 0.0 0.0
gw 0.0 0.0 0.0 0.0
gw 0.0 0.0 0.0 0.0
gw 0.0 0.0 0.0 0.0
gw 0.0 0.0 0.0 0.0
gw 0.0 0.0 0.0 0.0
gw 0.0 0.0 0.0 0.0
gw 0.0 0.0 0.0 0.0
gw 0.0 0.0 0.0 0.0
gw 0.0 0.0 0.0 0.0
gw 0.0 0.0 0.0 0.0
gw 0.0 0.0 0.0 0.0
gw 0.0 0.0 0.0 0.0
gw 0.0 0.0 0.0 0.0
gw 0.0 0.0 0.0 0.0
gw 0.0 0.0 0.0 0.0
gw 0.0 0.0 0.0 0.0
gw 0.0 0.0 0.0 0.0
gw 0.0 0.0 0.0 0.0
gw 0.0 0.0 0.0 0.0
gw 0.0 0.0 0.0 0.0
gw 0.0 0.0 0.0 0.0
gw 0.0 0.0 0.0 0.0
gw 0.0 0.0 0.0 0.0
gw 0.0 0.0 0.0 0.0
gw 0.0 0.0 0.0 0.0
gw 0.0 0.0 0.0 0.0
gw 0.0 0.0 0.0 0.0
gw 0.0 0.0 0.0 0.0
gw 0.0 0.0 0.0 0.0
gw 0.0 0.0 0.0 0.0
gw 0.0 0.0 0.0 0.0
gw 0.0 0.0 0.0 0.0
gw 0.0 0.0 0.0 0.0
gw 0.0 0.0 0.0 0.0
gw 0.0 0.0 0.0 0.0
gw 0.0 0.0 0.0 0.0
gw 0.0 0.0 0.0 0.0
gw 0.0 0.0 0.0 0.0
gw 0.0 0.0 0.0 0.0
gw 0.0 0.0 0.0 0.0
gw 0.0 0.0 0.0 0.0
gw 0.0 0.0 0.0 0.0
gw 0.0 0.0 0.0 0.0
gw 0.0 0.0 0.0 0.0
gw 0.0 0.0 0.0 0.0
gw 0.0 0.0 0.0 0.0
gw 0.0 0.0 0.0 0.0
gw 0.0 0.0 0.0 0.0
gw 0.0 0.0 0.0 0.0
gw 0.0 0.0 0.0 0.0
gw 0.0 0.0 0.0 0.0
gw 0.0 0.0 0.0 0.0
gw 0.0 0.0 0.0 0.0
gw 0.0 0.0 0.0 0.0
gw 0.0 0.0 0.0 0.0
gw 0.0 0.0 0.0 0.0
gw 0.0 0.0 0.0 0.0
gw 0.0 0.0 0.0 0.0
gw 0.0 0.0 0.0 0.0
gw 0.0 0.0 0.0 0.0
gw 0.0 0.0 0.0 0.0
gw 0.0 0.0 0.0 0.0
gw 0.0 0.0 0.0 0.0
gw 0.0 0.0 0.0 0.0
gw 0.0 0.0 0.0 0.0
gw 0.0 0.0 0.0 0.0
gw 0.0 0.0 0.0 0.0
gw 0.0 0.0 0.0 0.0
gw 0.0 0.0 0.0 0.0
gw 0.0 0.0 0.0 0.0
gw 0.0 0.0 0.0 0.0
gw 0.0 0.0 0.0 0.0
gw 0.0 0.0 0.0 0.0
gw 0.0 0.0 0.0 0.0
gw 0.0 0.0 0.0 0.0
gw 0.0 0.0 0.0 0.0
gw 0.0 0.0 0.0 0.0
gw 0.0 0.0 0.0 0.0
gw 0.0 0.0 0.0 0.0
gw 0.0 0.0 0.0 0.0
gw 0.0 0.0 0.0 0.0
gw 0.0 0.0 0.0 0.0
gw 0.0 0.0 0.0 0.0
gw 0.0 0.0 0.0 0.0
gw 0.0 0.0 0.0 0.0
gw 0.0 0.0 0.0 0.0
gw 0.0 0.0 0.0 0.0
gw 0.0 0.0 0.0 0.0
gw 0.0 0.0 0.0 0.0
gw 0.0 0.0 0.0 0.0
gw 0.0 0.0 0.0 0.0
gw 0.0 0.0 0.0 0.0
gw 0.0 0.0 0.0 0.0
gw 0.0 0.0 0.0 0.0
gw 0.0 0.0 0.0 0.0
gw 0.0 0.0 0.0 0.0
gw 0.0 0.0 0.0 0.0
vt 0.6636 0.7293
vt 0.6431 0.7239
vt 0.6539 0.6437
vt 0.6751 0.6437
vt 0.6307 0.8093
vt 0.6123 0.7987
vt 0.5779 0.8778
vt 0.5629 0.8628
vt 0.5095 0.9306
vt 0.4988 0.9122
vt 0.4295 0.9635
vt 0.424 0.943
vt 0.3438 0.9749
vt 0.3438 0.9537
vt 0.2581 0.9635
vt 0.2636 0.943
vt 0.1782 0.9306
vt 0.1888 0.9122
vt 0.1097 0.8778
vt 0.1247 0.8628
vt 0.0569 0.8093
vt 0.0753 0.7987
vt 0.024 0.7293
vt 0.0445 0.7239
vt 0.0125 0.6437
vt 0.0337 0.6437
vt 0.024 0.558
vt 0.0445 0.5635
vt 0.0569 0.478
vt 0.0753 0.4886
vt 0.1097 0.4095
vt 0.1247 0.4245
vt 0.1782 0.3568
vt 0.1888 0.3751
vt 0.2581 0.3239
vt 0.2636 0.3443
vt 0.3438 0.3124
vt 0.3438 0.3336
vt 0.4295 0.3239
vt 0.424 0.3443
vt 0.5095 0.3568
vt 0.4989 0.3751
vt 0.5779 0.4095
vt 0.5629 0.4245
vt 0.6307 0.478
vt 0.6123 0.4886
vt 0.6636 0.558
vt 0.6431 0.5635
vt 0.4984 0.6851
vt 0.5131 0.689
vt 0.4956 0.7313
vt 0.4825 0.7237
vt 0.4558 0.7083
vt 0.4687 0.6771
vt 0.4731 0.6437
vt 0.504 0.6437
vt 0.457 0.7568
vt 0.4677 0.7675
vt 0.4315 0.7955
vt 0.4239 0.7824
vt 0.4085 0.7557
vt 0.4352 0.735
vt 0.3852 0.7983
vt 0.3892 0.8129
vt 0.3438 0.819
vt 0.3438 0.8038
vt 0.3438 0.773
vt 0.3773 0.7685
vt 0.3024 0.7983
vt 0.2985 0.8129
vt 0.2562 0.7955
vt 0.2637 0.7824
vt 0.2792 0.7557
vt 0.3104 0.7685
vt 0.2306 0.7568
vt 0.2199 0.7675
vt 0.192 0.7313
vt 0.2051 0.7237
vt 0.2318 0.7083
vt 0.2524 0.735
vt 0.1892 0.6851
vt 0.1746 0.689
vt 0.1685 0.6437
vt 0.1837 0.6437
vt 0.2145 0.6437
vt 0.219 0.6771
vt 0.1892 0.6022
vt 0.1746 0.5983
vt 0.192 0.556
vt 0.2051 0.5636
vt 0.2318 0.579
vt 0.219 0.6102
vt 0.2306 0.5305
vt 0.2199 0.5198
vt 0.2562 0.4918
vt 0.2637 0.505
vt 0.2792 0.5317
vt 0.2524 0.5523
vt 0.3024 0.489
vt 0.2985 0.4744
vt 0.3438 0.4683
vt 0.3438 0.4835
vt 0.3438 0.5143
vt 0.3104 0.5188
vt 0.3852 0.489
vt 0.3892 0.4744
vt 0.4315 0.4918
vt 0.4239 0.505
vt 0.4085 0.5317
vt 0.3773 0.5188
vt 0.457 0.5305
vt 0.4677 0.5198
vt 0.4956 0.556
vt 0.4825 0.5636
vt 0.4558 0.579
vt 0.4352 0.5523
vt 0.4984 0.6022
vt 0.5131 0.5983
vt 0.5191 0.6437
vt 0.4687 0.6102
vt 0.5268 0.6927
vt 0.508 0.7384
vt 0.5334 0.6437
vt 0.4778 0.7776
vt 0.4386 0.8078
vt 0.3928 0.8266
vt 0.3438 0.8332
vt 0.2948 0.8266
vt 0.249 0.8078
vt 0.2099 0.7776
vt 0.1797 0.7384
vt 0.1608 0.6927
vt 0.1543 0.6437
vt 0.1608 0.5946
vt 0.1797 0.5489
vt 0.2099 0.5097
vt 0.249 0.4795
vt 0.2948 0.4607
vt 0.3438 0.4541
vt 0.3928 0.4607
vt 0.4386 0.4795
vt 0.4778 0.5097
vt 0.508 0.5489
vt 0.5268 0.5946
vt 0.5454 0.6977
vt 0.596 0.7112
vt 0.57 0.7743
vt 0.5247 0.7481
vt 0.5527 0.6437
vt 0.605 0.6437
vt 0.5454 0.5896
vt 0.596 0.5761
vt 0.5247 0.5392
vt 0.57 0.5131
vt 0.4914 0.4961
vt 0.5284 0.4591
vt 0.4482 0.4628
vt 0.4744 0.4175
vt 0.3978 0.4421
vt 0.4114 0.3915
vt 0.3438 0.4348
vt 0.3438 0.3825
vt 0.2898 0.4421
vt 0.2763 0.3915
vt 0.2394 0.4628
vt 0.2132 0.4175
vt 0.1962 0.4961
vt 0.1592 0.4591
vt 0.163 0.5392
vt 0.1176 0.5131
vt 0.1422 0.5896
vt 0.0917 0.5761
vt 0.135 0.6437
vt 0.0826 0.6437
vt 0.1422 0.6977
vt 0.0917 0.7112
vt 0.163 0.7481
vt 0.1176 0.7743
vt 0.1962 0.7912
vt 0.1592 0.8282
vt 0.2394 0.8245
vt 0.2132 0.8699
vt 0.2898 0.8453
vt 0.2763 0.8958
vt 0.3438 0.8525
vt 0.3438 0.9048
vt 0.3978 0.8453
vt 0.4114 0.8958
vt 0.4482 0.8245
vt 0.4744 0.8699
vt 0.4914 0.7912
vt 0.5284 0.8282
vt 0.4524 0.6727
vt 0.4563 0.6437
vt 0.4412 0.6999
vt 0.4233 0.7231
vt 0.4 0.7411
vt 0.3729 0.7522
vt 0.3438 0.7561
vt 0.3147 0.7522
vt 0.2876 0.7411
vt 0.2643 0.7231
vt 0.2464 0.6999
vt 0.2353 0.6727
vt 0.2314 0.6437
vt 0.2353 0.6146
vt 0.2464 0.5874
vt 0.2643 0.5642
vt 0.2876 0.5463
vt 0.3147 0.5351
vt 0.3438 0.5312
vt 0.3729 0.5351
vt 0.4 0.5463
vt 0.4233 0.5642
vt 0.4412 0.5874
vt 0.4524 0.6146
vt 0.3438 0.6437
vt 0.6039 0.7938
vt 0.6337 0.7213
vt 0.6441 0.6437
vt 0.6337 0.566
vt 0.6039 0.4935
vt 0.556 0.4315
vt 0.494 0.3836
vt 0.4215 0.3538
vt 0.3438 0.3434
vt 0.2661 0.3538
vt 0.1937 0.3836
vt 0.1316 0.4315
vt 0.0838 0.4935
vt 0.0539 0.566
vt 0.0435 0.6437
vt 0.0539 0.7213
vt 0.0838 0.7938
vt 0.1316 0.8559
vt 0.1937 0.9037
vt 0.2661 0.9335
vt 0.3438 0.9439
vt 0.4215 0.9335
vt 0.4939 0.9037
vt 0.556 0.8559
vn -0.3429 0.1157 0.9322
vn -0.6368 -0.07 0.7678
vn -0.5495 -0.2563 0.7952
vn -0.2375 -0.1107 0.9651
vn -0.4414 0.3266 0.8358
vn -0.7174 0.1043 0.6888
vn -0.5258 0.5078 0.6824
vn -0.7874 0.253 0.5621
vn -0.5907 0.6467 0.4825
vn -0.8406 0.3679 0.3976
vn -0.6313 0.7342 0.2498
vn -0.8743 0.4395 0.2058
vn -0.6454 0.7639 0.0
vn -0.8855 0.4646 0.0
vn -0.6313 0.7342 -0.2498
vn -0.8743 0.4396 -0.2058
vn -0.5907 0.6467 -0.4825
vn -0.8405 0.368 -0.3976
vn -0.5257 0.5078 -0.6824
vn -0.7874 0.253 -0.5621
vn -0.4414 0.3266 -0.8358
vn -0.7176 0.1041 -0.6887
vn -0.3429 0.1157 -0.9322
vn -0.6368 -0.0699 -0.7678
vn -0.2375 -0.1107 -0.9651
vn -0.5495 -0.2562 -0.7953
vn -0.1318 -0.3371 -0.9322
vn -0.4629 -0.4428 -0.7679
vn -0.0335 -0.548 -0.8358
vn -0.3815 -0.6166 -0.6886
vn 0.0511 -0.7291 -0.6825
vn -0.3123 -0.7658 -0.5621
vn 0.1158 -0.8682 -0.4825
vn -0.2585 -0.8804 -0.3977
vn 0.1566 -0.9555 -0.2498
vn -0.2253 -0.9523 -0.2058
vn 0.1704 -0.9854 -0.0
vn -0.2135 -0.977 -0.0
vn 0.1567 -0.9555 0.2498
vn -0.2253 -0.9523 0.2058
vn 0.1158 -0.8682 0.4825
vn -0.2584 -0.8804 0.3976
vn 0.0511 -0.7292 0.6824
vn -0.3124 -0.7658 0.5621
vn -0.0335 -0.5481 0.8358
vn -0.3814 -0.6166 0.6887
vn -0.1318 -0.3371 0.9322
vn -0.463 -0.4429 0.7678
vn -0.714 -0.1295 0.688
vn -0.4069 0.0793 0.91
vn -0.503 0.2852 0.8159
vn -0.7865 0.0263 0.617
vn -0.7618 -0.5613 -0.3234
vn -0.799 -0.4797 -0.3626
vn -0.8408 -0.3921 -0.3734
vn -0.6358 -0.2965 0.7126
vn -0.849 0.1598 0.5036
vn -0.5854 0.462 0.6662
vn -0.6488 0.5977 0.471
vn -0.8967 0.2627 0.3563
vn -0.7041 -0.6851 -0.1867
vn -0.7279 -0.6323 -0.2654
vn -0.9269 0.3269 0.1844
vn -0.6885 0.683 0.2438
vn -0.7021 0.7121 0.0
vn -0.937 0.3493 0.0
vn -0.683 -0.7304 0.0
vn -0.6868 -0.7203 -0.0972
vn -0.9269 0.3269 -0.1844
vn -0.6885 0.683 -0.2438
vn -0.6487 0.5977 -0.4711
vn -0.8967 0.2628 -0.3563
vn -0.7041 -0.6851 0.1867
vn -0.6868 -0.7204 0.0971
vn -0.849 0.1598 -0.5037
vn -0.5854 0.462 -0.6662
vn -0.503 0.2852 -0.8159
vn -0.7865 0.0264 -0.6171
vn -0.7618 -0.5613 0.3234
vn -0.7278 -0.6323 0.2654
vn -0.714 -0.1295 -0.688
vn -0.4069 0.0793 -0.91
vn -0.3039 -0.1417 -0.9421
vn -0.6358 -0.2965 -0.7126
vn -0.8407 -0.3921 0.3734
vn -0.799 -0.4797 0.3626
vn -0.5582 -0.4637 -0.688
vn -0.2008 -0.3627 -0.91
vn -0.1048 -0.5686 -0.8159
vn -0.4853 -0.6194 -0.6171
vn -0.9197 -0.2228 0.3234
vn -0.8811 -0.3036 0.3626
vn -0.4233 -0.7531 -0.5036
vn -0.0224 -0.7455 -0.6662
vn 0.0409 -0.8812 -0.4711
vn -0.3751 -0.8557 -0.3563
vn -0.9774 -0.0989 0.1867
vn -0.9522 -0.1512 0.2655
vn -0.3454 -0.9202 -0.1844
vn 0.0807 -0.9665 -0.2438
vn 0.0942 -0.9956 0.0
vn -0.3346 -0.9423 -0.0
vn -0.9986 -0.0537 -0.0
vn -0.9933 -0.063 0.0971
vn -0.3454 -0.9202 0.1844
vn 0.0807 -0.9665 0.2438
vn 0.0409 -0.8812 0.471
vn -0.3751 -0.8558 0.3563
vn -0.9774 -0.099 -0.1867
vn -0.9933 -0.063 -0.0971
vn -0.4233 -0.7531 0.5036
vn -0.0223 -0.7455 0.6662
vn -0.1049 -0.5686 0.8159
vn -0.4853 -0.6194 0.6171
vn -0.9197 -0.2228 -0.3234
vn -0.9522 -0.1512 -0.2655
vn -0.5582 -0.4637 0.688
vn -0.2008 -0.3627 0.91
vn -0.3039 -0.1417 0.9421
vn -0.8811 -0.3036 -0.3626
vn -0.5493 -0.0091 0.8356
vn -0.638 0.1796 0.7489
vn -0.4552 -0.2122 0.8647
vn -0.7132 0.3424 0.6117
vn -0.7717 0.4664 0.4324
vn -0.8079 0.5452 0.2239
vn -0.8207 0.5713 -0.0
vn -0.8079 0.5452 -0.2239
vn -0.7717 0.4664 -0.4323
vn -0.7132 0.3424 -0.6117
vn -0.638 0.1795 -0.7488
vn -0.5493 -0.0091 -0.8355
vn -0.4552 -0.2123 -0.8647
vn -0.3601 -0.415 -0.8355
vn -0.2726 -0.6041 -0.7488
vn -0.1962 -0.7664 -0.6117
vn -0.1388 -0.8909 -0.4324
vn -0.1015 -0.9693 -0.2239
vn -0.0897 -0.996 -0.0
vn -0.1016 -0.9693 0.2239
vn -0.1387 -0.891 0.4324
vn -0.1962 -0.7664 0.6117
vn -0.2726 -0.6041 0.7488
vn -0.3601 -0.415 0.8355
vn -0.8609 -0.2749 0.428
vn -0.8948 -0.3275 0.3035
vn -0.9268 -0.2587 0.2722
vn -0.9063 -0.1786 0.383
vn -0.8128 -0.379 0.4423
vn -0.8604 -0.4012 0.3144
vn -0.764 -0.4828 0.428
vn -0.826 -0.4749 0.3035
vn -0.7194 -0.5794 0.383
vn -0.7939 -0.5437 0.2723
vn -0.6801 -0.6628 0.3133
vn -0.7665 -0.6026 0.2222
vn -0.651 -0.7262 0.2211
vn -0.7453 -0.6479 0.1572
vn -0.6315 -0.7668 0.1147
vn -0.7321 -0.6763 0.0813
vn -0.6259 -0.7799 0.0
vn -0.7275 -0.6861 -0.0
vn -0.6315 -0.7668 -0.1147
vn -0.7321 -0.6763 -0.0813
vn -0.651 -0.7262 -0.2211
vn -0.7453 -0.6479 -0.1572
vn -0.6801 -0.6628 -0.3133
vn -0.7665 -0.6026 -0.2222
vn -0.7194 -0.5794 -0.383
vn -0.7939 -0.5436 -0.2723
vn -0.764 -0.4828 -0.428
vn -0.826 -0.4749 -0.3035
vn -0.8128 -0.379 -0.4423
vn -0.8604 -0.4012 -0.3144
vn -0.8609 -0.2749 -0.428
vn -0.8948 -0.3275 -0.3035
vn -0.9063 -0.1786 -0.383
vn -0.9268 -0.2587 -0.2723
vn -0.9449 -0.0948 -0.3134
vn -0.9543 -0.1999 -0.2222
vn -0.9747 -0.0319 -0.2212
vn -0.9754 -0.1545 -0.1572
vn -0.9934 0.009 -0.1147
vn -0.9887 -0.1261 -0.0813
vn -0.9998 0.0217 -0.0
vn -0.9932 -0.1163 -0.0
vn -0.9934 0.009 0.1147
vn -0.9887 -0.1262 0.0813
vn -0.9747 -0.032 0.2212
vn -0.9754 -0.1545 0.1572
vn -0.9449 -0.0948 0.3134
vn -0.9543 -0.1998 0.2222
vn -0.5973 -0.4706 -0.6494
vn -0.6702 -0.3125 -0.6732
vn -0.528 -0.6175 -0.583
vn -0.4699 -0.7437 -0.4755
vn -0.4239 -0.8409 -0.3365
vn -0.3964 -0.9014 -0.174
vn -0.3858 -0.9226 0.0
vn -0.3964 -0.9015 0.174
vn -0.4239 -0.8409 0.3366
vn -0.4699 -0.7437 0.4755
vn -0.528 -0.6175 0.583
vn -0.5973 -0.4706 0.6494
vn -0.6702 -0.3126 0.6731
vn -0.7445 -0.1551 0.6494
vn -0.8124 -0.0075 0.583
vn -0.8718 0.118 0.4755
vn -0.9166 0.2158 0.3366
vn -0.9453 0.2758 0.174
vn -0.9547 0.2976 -0.0
vn -0.9453 0.2758 -0.1739
vn -0.9166 0.2158 -0.3365
vn -0.8718 0.118 -0.4755
vn -0.8124 -0.0075 -0.583
vn -0.7444 -0.1551 -0.6494
vn -0.9063 -0.4226 -0.0
vn -0.9052 -0.1756 0.3869
vn -0.8597 -0.2734 0.4315
vn -0.8109 -0.3782 0.4466
vn -0.762 -0.4829 0.4315
vn -0.7165 -0.5806 0.3868
vn -0.6774 -0.6644 0.3158
vn -0.6474 -0.7287 0.2233
vn -0.6284 -0.7693 0.1156
vn -0.6221 -0.7829 -0.0
vn -0.6284 -0.7693 -0.1156
vn -0.6475 -0.7286 -0.2234
vn -0.6773 -0.6644 -0.3159
vn -0.7165 -0.5805 -0.3867
vn -0.762 -0.4829 -0.4316
vn -0.8108 -0.3781 -0.4467
vn -0.8597 -0.2733 -0.4315
vn -0.9053 -0.1757 -0.3868
vn -0.9443 -0.0918 -0.3159
vn -0.9743 -0.0275 -0.2234
vn -0.9932 0.0131 -0.1157
vn -0.9996 0.0269 0.0
vn -0.9932 0.013 0.1157
vn -0.9743 -0.0275 0.2234
vn -0.9443 -0.0918 0.3159
vtan 0.8723 0.4076 0.2703
vtan 0.7115 0.3303 0.6202
vtan 0.7207 0.336 0.6063
vtan 0.8746 0.4079 0.262
vtan 0.8649 0.403 0.2993
vtan 0.6789 0.3262 0.6578
vtan 0.8464 0.392 0.3604
vtan 0.6164 0.319 0.7199
vtan 0.7944 0.3611 0.4885
vtan 0.5114 0.2969 0.8064
vtan 0.6002 0.2585 0.7569
vtan 0.3239 0.2127 0.9219
vtan 0.0001 0.0001 1.0
vtan 0.0001 0.0001 1.0
vtan -0.6004 -0.2588 0.7567
vtan -0.3238 -0.2126 0.9219
vtan -0.7944 -0.3611 0.4885
vtan -0.5115 -0.297 0.8063
vtan -0.8465 -0.3919 0.3605
vtan -0.6164 -0.3192 0.7198
vtan -0.865 -0.4027 0.2994
vtan -0.6787 -0.3264 0.6579
vtan -0.8723 -0.4076 0.2702
vtan -0.7115 -0.3302 0.6202
vtan -0.8745 -0.4081 0.262
vtan -0.7208 -0.3361 0.6063
vtan -0.8725 -0.407 0.2705
vtan -0.7124 -0.3296 0.6196
vtan -0.8645 -0.4037 0.2994
vtan -0.6861 -0.3103 0.658
vtan -0.8442 -0.3966 0.3605
vtan -0.6386 -0.2689 0.7211
vtan -0.7881 -0.376 0.4874
vtan -0.5571 -0.2004 0.8059
vtan -0.5869 -0.2935 0.7546
vtan -0.3723 -0.111 0.9215
vtan 0.0003 0.0 1.0
vtan 0.0006 -0.0001 1.0
vtan 0.5862 0.2935 0.7552
vtan 0.3719 0.1111 0.9216
vtan 0.7883 0.3759 0.4872
vtan 0.557 0.2005 0.806
vtan 0.8444 0.3964 0.3603
vtan 0.6383 0.269 0.7213
vtan 0.8645 0.4037 0.2994
vtan 0.6863 0.3102 0.6579
vtan 0.8725 0.407 0.2705
vtan 0.7124 0.3295 0.6196
vtan 0.6343 0.2962 0.7141
vtan 0.8504 0.3967 0.3457
vtan 0.8383 0.3907 0.3803
vtan 0.5978 0.2837 0.7498
vtan -0.3163 -0.1133 0.9419
vtan -0.3339 -0.1474 0.931
vtan -0.3384 -0.1578 0.9277
vtan 0.6459 0.3011 0.7016
vtan 0.5284 0.2629 0.8073
vtan 0.8095 0.3778 0.4494
vtan 0.7384 0.3448 0.5795
vtan 0.4154 0.2212 0.8824
vtan -0.2478 -0.0094 0.9688
vtan -0.2935 -0.0626 0.9539
vtan 0.2389 0.1352 0.9616
vtan 0.5313 0.2462 0.8107
vtan 0.0 0.0 1.0
vtan 0.0 -0.0 1.0
vtan 0.0001 -0.0 1.0
vtan -0.1574 0.0169 0.9874
vtan -0.2389 -0.1352 0.9616
vtan -0.5313 -0.2463 0.8106
vtan -0.7385 -0.3451 0.5792
vtan -0.4154 -0.2212 0.8823
vtan 0.2476 0.0095 0.9688
vtan 0.1573 -0.0169 0.9874
vtan -0.5284 -0.2629 0.8073
vtan -0.8095 -0.3778 0.4494
vtan -0.8383 -0.3907 0.3803
vtan -0.5978 -0.2837 0.7498
vtan 0.3164 0.1132 0.9419
vtan 0.2935 0.0626 0.9539
vtan -0.6343 -0.2962 0.7141
vtan -0.8504 -0.3967 0.3457
vtan -0.8539 -0.3981 0.3353
vtan -0.6459 -0.3011 0.7016
vtan 0.3383 0.158 0.9277
vtan 0.334 0.1473 0.931
vtan -0.6347 -0.2954 0.7141
vtan -0.8505 -0.3964 0.3457
vtan -0.8382 -0.391 0.3802
vtan -0.6016 -0.2756 0.7497
vtan 0.2902 0.1695 0.9419
vtan 0.3275 0.1614 0.931
vtan -0.5402 -0.2364 0.8076
vtan -0.8098 -0.3773 0.4494
vtan -0.7382 -0.3443 0.58
vtan -0.4351 -0.1769 0.8828
vtan 0.1664 0.1841 0.9687
vtan 0.2368 0.1837 0.954
vtan -0.2577 -0.0959 0.9615
vtan -0.5301 -0.2488 0.8106
vtan -0.0001 0.0 1.0
vtan -0.0 -0.0 1.0
vtan -0.0 -0.0001 1.0
vtan 0.0881 0.1331 0.9872
vtan 0.2576 0.0959 0.9615
vtan 0.5302 0.2488 0.8106
vtan 0.7385 0.3442 0.5798
vtan 0.4351 0.1768 0.8829
vtan -0.1664 -0.184 0.9687
vtan -0.0881 -0.133 0.9872
vtan 0.5402 0.2364 0.8076
vtan 0.8098 0.3773 0.4494
vtan 0.8381 0.3911 0.3803
vtan 0.6016 0.2756 0.7498
vtan -0.2901 -0.1696 0.9418
vtan -0.2369 -0.1836 0.954
vtan 0.6347 0.2954 0.7141
vtan 0.8506 0.3963 0.3457
vtan 0.8538 0.3981 0.3353
vtan -0.3275 -0.1615 0.9309
vtan 0.7769 0.3626 0.5147
vtan 0.752 0.3546 0.5556
vtan 0.7837 0.3654 0.5022
vtan 0.701 0.3431 0.6252
vtan 0.6018 0.3158 0.7335
vtan 0.4007 0.2295 0.887
vtan -0.0002 -0.0003 1.0
vtan -0.4004 -0.229 0.8873
vtan -0.6018 -0.3156 0.7337
vtan -0.701 -0.3433 0.6251
vtan -0.752 -0.3546 0.5556
vtan -0.7769 -0.3625 0.5148
vtan -0.7837 -0.3654 0.5022
vtan -0.7772 -0.3619 0.5147
vtan -0.755 -0.3481 0.5557
vtan -0.7134 -0.3164 0.6252
vtan -0.6288 -0.258 0.7335
vtan -0.4337 -0.1594 0.8868
vtan -0.0002 0.0 1.0
vtan 0.4339 0.1594 0.8867
vtan 0.6284 0.2582 0.7338
vtan 0.7136 0.3162 0.6251
vtan 0.755 0.3481 0.5557
vtan 0.7771 0.3621 0.5148
vtan 0.3904 0.1824 0.9024
vtan 0.2758 0.1291 0.9525
vtan 0.2497 0.1168 0.9612
vtan 0.3557 0.1668 0.9196
vtan 0.4009 0.187 0.8969
vtan 0.285 0.1328 0.9493
vtan 0.3908 0.1816 0.9024
vtan 0.2763 0.1282 0.9525
vtan 0.3567 0.1649 0.9195
vtan 0.2498 0.1165 0.9612
vtan 0.3026 0.1356 0.9434
vtan 0.2067 0.0961 0.9737
vtan 0.2218 0.0967 0.9703
vtan 0.1483 0.0687 0.9865
vtan 0.1195 0.0499 0.9916
vtan 0.0775 0.0359 0.9963
vtan -0.0003 0.0003 1.0
vtan -0.0 0.0 1.0
vtan -0.1189 -0.0503 0.9916
vtan -0.0775 -0.0359 0.9963
vtan -0.222 -0.0964 0.9703
vtan -0.1483 -0.0688 0.9866
vtan -0.3023 -0.1359 0.9435
vtan -0.2068 -0.0959 0.9737
vtan -0.3569 -0.1646 0.9195
vtan -0.2499 -0.1166 0.9612
vtan -0.3908 -0.1815 0.9024
vtan -0.2761 -0.1284 0.9525
vtan -0.4009 -0.1868 0.8969
vtan -0.2849 -0.1329 0.9493
vtan -0.3904 -0.1825 0.9024
vtan -0.2759 -0.129 0.9525
vtan -0.3557 -0.1667 0.9196
vtan -0.2498 -0.1167 0.9612
vtan -0.2984 -0.1443 0.9435
vtan -0.2066 -0.0961 0.9737
vtan -0.2166 -0.1084 0.9702
vtan -0.148 -0.0695 0.9865
vtan -0.115 -0.0581 0.9917
vtan -0.0774 -0.036 0.9964
vtan -0.0 -0.0002 1.0
vtan 0.0 -0.0002 1.0
vtan 0.115 0.0589 0.9916
vtan 0.0773 0.0361 0.9964
vtan 0.2166 0.1078 0.9703
vtan 0.1479 0.0698 0.9865
vtan 0.2984 0.1443 0.9435
vtan 0.2067 0.0958 0.9737
vtan -0.5987 -0.2772 0.7515
vtan -0.61 -0.2846 0.7395
vtan -0.5743 -0.246 0.7808
vtan -0.5372 -0.1864 0.8226
vtan -0.4736 -0.1109 0.8737
vtan -0.3213 -0.0414 0.9461
vtan 0.0002 -0.0001 1.0
vtan 0.3216 0.0412 0.946
vtan 0.4737 0.1109 0.8737
vtan 0.5373 0.1864 0.8225
vtan 0.5742 0.2462 0.7808
vtan 0.5986 0.2772 0.7515
vtan 0.6101 0.2844 0.7395
vtan 0.5972 0.2802 0.7516
vtan 0.5577 0.2815 0.7808
vtan 0.4882 0.2905 0.823
vtan 0.3895 0.292 0.8735
vtan 0.2385 0.2212 0.9456
vtan -0.0001 -0.0002 1.0
vtan -0.2385 -0.2213 0.9456
vtan -0.3895 -0.2921 0.8735
vtan -0.4882 -0.2906 0.823
vtan -0.5577 -0.2813 0.7809
vtan -0.5972 -0.2802 0.7515
vtan -0.0 -0.0 1.0
vtan 0.3598 0.1679 0.9178
vtan 0.3947 0.1809 0.9008
vtan 0.4049 0.1885 0.8947
vtan 0.3945 0.1822 0.9006
vtan 0.3592 0.1682 0.918
vtan 0.2997 0.1429 0.9433
vtan 0.2191 0.1027 0.9703
vtan 0.1153 0.0549 0.9918
vtan 0.0002 -0.0002 1.0
vtan -0.1156 -0.0546 0.9918
vtan -0.2187 -0.1031 0.9703
vtan -0.3001 -0.1426 0.9432
vtan -0.3592 -0.1682 0.918
vtan -0.3946 -0.1822 0.9006
vtan -0.4049 -0.1887 0.8947
vtan -0.3947 -0.1809 0.9008
vtan -0.3596 -0.1679 0.9179
vtan -0.3017 -0.1412 0.9429
vtan -0.2196 -0.1016 0.9703
vtan -0.1162 -0.0531 0.9918
vtan 0.0 -0.0002 1.0
vtan 0.1162 0.0534 0.9918
vtan 0.2196 0.1018 0.9703
vtan 0.3018 0.1407 0.9429
f 0/0/0/0 1/1/1/1 2/2/2/2 
f 0/0/0/0 2/2/2/2 3/3/3/3 
f 1/1/1/1 0/0/0/0 4/4/4/4 
f 1/1/1/1 4/4/4/4 5/5/5/5 
f 6/6/6/6 7/7/7/7 5/5/5/5 
f 6/6/6/6 5/5/5/5 4/4/4/4 
f 8/8/8/8 9/9/9/9 7/7/7/7 
f 8/8/8/8 7/7/7/7 6/6/6/6 
f 10/10/10/10 11/11/11/11 9/9/9/9 
f 10/10/10/10 9/9/9/9 8/8/8/8 
f 12/12/12/12 13/13/13/13 11/11/11/11 
f 12/12/12/12 11/11/11/11 10/10/10/10 
f 14/14/14/14 15/15/15/15 13/13/13/13 
f 14/14/14/14 13/13/13/13 12/12/12/12 
f 16/16/16/16 17/17/17/17 15/15/15/15 
f 16/16/16/16 15/15/15/15 14/14/14/14 
f 18/18/18/18 19/19/19/19 17/17/17/17 
f 18/18/18/18 17/17/17/17 16/16/16/16 
f 20/20/20/20 21/21/21/21 19/19/19/19 
f 20/20/20/20 19/19/19/19 18/18/18/18 
f 22/22/22/22 23/23/23/23 21/21/21/21 
f 22/22/22/22 21/21/21/21 20/20/20/20 
f 24/24/24/24 25/25/25/25 23/23/23/23 
f 24/24/24/24 23/23/23/23 22/22/22/22 
f 26/26/26/26 27/27/27/27 25/25/25/25 
f 26/26/26/26 25/25/25/25 24/24/24/24 
f 28/28/28/28 29/29/29/29 27/27/27/27 
f 28/28/28/28 27/27/27/27 26/26/26/26 
f 30/30/30/30 31/31/31/31 29/29/29/29 
f 30/30/30/30 29/29/29/29 28/28/28/28 
f 32/32/32/32 33/33/33/33 31/31/31/31 
f 32/32/32/32 31/31/31/31 30/30/30/30 
f 34/34/34/34 35/35/35/35 33/33/33/33 
f 34/34/34/34 33/33/33/33 32/32/32/32 
f 36/36/36/36 37/37/37/37 35/35/35/35 
f 36/36/36/36 35/35/35/35 34/34/34/34 
f 38/38/38/38 39/39/39/39 37/37/37/37 
f 38/38/38/38 37/37/37/37 36/36/36/36 
f 40/40/40/40 41/41/41/41 39/39/39/39 
f 40/40/40/40 39/39/39/39 38/38/38/38 
f 42/42/42/42 43/43/43/43 41/41/41/41 
f 42/42/42/42 41/41/41/41 40/40/40/40 
f 44/44/44/44 45/45/45/45 43/43/43/43 
f 44/44/44/44 43/43/43/43 42/42/42/42 
f 46/46/46/46 47/47/47/47 45/45/45/45 
f 46/46/46/46 45/45/45/45 44/44/44/44 
f 3/3/3/3 2/2/2/2 47/47/47/47 
f 3/3/3/3 47/47/47/47 46/46/46/46 
f 48/48/48/48 49/49/49/49 50/50/50/50 
f 48/48/48/48 50/50/50/50 51/51/51/51 
f 52/52/52/52 53/53/53/53 48/48/48/48 
f 52/52/52/52 48/48/48/48 51/51/51/51 
f 48/48/48/48 53/53/53/53 54/54/54/54 
f 48/48/48/48 54/54/54/54 55/55/55/55 
f 56/56/56/56 57/57/57/57 58/58/58/58 
f 56/56/56/56 58/58/58/58 59/59/59/59 
f 60/60/60/60 61/61/61/61 56/56/56/56 
f 60/60/60/60 56/56/56/56 59/59/59/59 
f 56/56/56/56 61/61/61/61 52/52/52/52 
f 56/56/56/56 52/52/52/52 51/51/51/51 
f 62/62/62/62 63/63/63/63 64/64/64/64 
f 62/62/62/62 64/64/64/64 65/65/65/65 
f 66/66/66/66 67/67/67/67 62/62/62/62 
f 66/66/66/66 62/62/62/62 65/65/65/65 
f 62/62/62/62 67/67/67/67 60/60/60/60 
f 62/62/62/62 60/60/60/60 59/59/59/59 
f 68/68/68/68 69/69/69/69 70/70/70/70 
f 68/68/68/68 70/70/70/70 71/71/71/71 
f 72/72/72/72 73/73/73/73 68/68/68/68 
f 72/72/72/72 68/68/68/68 71/71/71/71 
f 68/68/68/68 73/73/73/73 66/66/66/66 
f 68/68/68/68 66/66/66/66 65/65/65/65 
f 74/74/74/74 75/75/75/75 76/76/76/76 
f 74/74/74/74 76/76/76/76 77/77/77/77 
f 78/78/78/78 79/79/79/79 74/74/74/74 
f 78/78/78/78 74/74/74/74 77/77/77/77 
f 74/74/74/74 79/79/79/79 72/72/72/72 
f 74/74/74/74 72/72/72/72 71/71/71/71 
f 80/80/80/80 81/81/81/81 82/82/82/82 
f 80/80/80/80 82/82/82/82 83/83/83/83 
f 84/84/84/84 85/85/85/85 80/80/80/80 
f 84/84/84/84 80/80/80/80 83/83/83/83 
f 80/80/80/80 85/85/85/85 78/78/78/78 
f 80/80/80/80 78/78/78/78 77/77/77/77 
f 86/86/86/86 87/87/87/87 88/88/88/88 
f 86/86/86/86 88/88/88/88 89/89/89/89 
f 90/90/90/90 91/91/91/91 86/86/86/86 
f 90/90/90/90 86/86/86/86 89/89/89/89 
f 86/86/86/86 91/91/91/91 84/84/84/84 
f 86/86/86/86 84/84/84/84 83/83/83/83 
f 92/92/92/92 93/93/93/93 94/94/94/94 
f 92/92/92/92 94/94/94/94 95/95/95/95 
f 96/96/96/96 97/97/97/97 92/92/92/92 
f 96/96/96/96 92/92/92/92 95/95/95/95 
f 92/92/92/92 97/97/97/97 90/90/90/90 
f 92/92/92/92 90/90/90/90 89/89/89/89 
f 98/98/98/98 99/99/99/99 100/100/100/100 
f 98/98/98/98 100/100/100/100 101/101/101/101 
f 102/102/102/102 103/103/103/103 98/98/98/98 
f 102/102/102/102 98/98/98/98 101/101/101/101 
f 98/98/98/98 103/103/103/103 96/96/96/96 
f 98/98/98/98 96/96/96/96 95/95/95/95 
f 104/104/104/104 105/105/105/105 106/106/106/106 
f 104/104/104/104 106/106/106/106 107/107/107/107 
f 108/108/108/108 109/109/109/109 104/104/104/104 
f 108/108/108/108 104/104/104/104 107/107/107/107 
f 104/104/104/104 109/109/109/109 102/102/102/102 
f 104/104/104/104 102/102/102/102 101/101/101/101 
f 110/110/110/110 111/111/111/111 112/112/112/112 
f 110/110/110/110 112/112/112/112 113/113/113/113 
f 114/114/114/114 115/115/115/115 110/110/110/110 
f 114/114/114/114 110/110/110/110 113/113/113/113 
f 110/110/110/110 115/115/115/115 108/108/108/108 
f 110/110/110/110 108/108/108/108 107/107/107/107 
f 116/116/116/116 117/117/117/117 118/118/118/118 
f 116/116/116/116 118/118/118/118 55/55/55/55 
f 54/54/54/54 119/119/119/119 116/116/116/116 
f 54/54/54/54 116/116/116/116 55/55/55/55 
f 116/116/116/116 119/119/119/119 114/114/114/114 
f 116/116/116/116 114/114/114/114 113/113/113/113 
f 50/50/50/50 49/49/49/49 120/120/120/120 
f 50/50/50/50 120/120/120/120 121/121/121/121 
f 122/122/122/122 120/120/120/120 49/49/49/49 
f 122/122/122/122 49/49/49/49 118/118/118/118 
f 58/58/58/58 57/57/57/57 123/123/123/123 
f 58/58/58/58 123/123/123/123 124/124/124/124 
f 121/121/121/121 123/123/123/123 57/57/57/57 
f 121/121/121/121 57/57/57/57 50/50/50/50 
f 64/64/64/64 63/63/63/63 125/125/125/125 
f 64/64/64/64 125/125/125/125 126/126/126/126 
f 124/124/124/124 125/125/125/125 63/63/63/63 
f 124/124/124/124 63/63/63/63 58/58/58/58 
f 70/70/70/70 69/69/69/69 127/127/127/127 
f 70/70/70/70 127/127/127/127 128/128/128/128 
f 126/126/126/126 127/127/127/127 69/69/69/69 
f 126/126/126/126 69/69/69/69 64/64/64/64 
f 76/76/76/76 75/75/75/75 129/129/129/129 
f 76/76/76/76 129/129/129/129 130/130/130/130 
f 128/128/128/128 129/129/129/129 75/75/75/75 
f 128/128/128/128 75/75/75/75 70/70/70/70 
f 82/82/82/82 81/81/81/81 131/131/131/131 
f 82/82/82/82 131/131/131/131 132/132/132/132 
f 130/130/130/130 131/131/131/131 81/81/81/81 
f 130/130/130/130 81/81/81/81 76/76/76/76 
f 88/88/88/88 87/87/87/87 133/133/133/133 
f 88/88/88/88 133/133/133/133 134/134/134/134 
f 132/132/132/132 133/133/133/133 87/87/87/87 
f 132/132/132/132 87/87/87/87 82/82/82/82 
f 94/94/94/94 93/93/93/93 135/135/135/135 
f 94/94/94/94 135/135/135/135 136/136/136/136 
f 134/134/134/134 135/135/135/135 93/93/93/93 
f 134/134/134/134 93/93/93/93 88/88/88/88 
f 100/100/100/100 99/99/99/99 137/137/137/137 
f 100/100/100/100 137/137/137/137 138/138/138/138 
f 136/136/136/136 137/137/137/137 99/99/99/99 
f 136/136/136/136 99/99/99/99 94/94/94/94 
f 106/106/106/106 105/105/105/105 139/139/139/139 
f 106/106/106/106 139/139/139/139 140/140/140/140 
f 138/138/138/138 139/139/139/139 105/105/105/105 
f 138/138/138/138 105/105/105/105 100/100/100/100 
f 112/112/112/112 111/111/111/111 141/141/141/141 
f 112/112/112/112 141/141/141/141 142/142/142/142 
f 140/140/140/140 141/141/141/141 111/111/111/111 
f 140/140/140/140 111/111/111/111 106/106/106/106 
f 118/118/118/118 117/117/117/117 143/143/143/143 
f 118/118/118/118 143/143/143/143 122/122/122/122 
f 142/142/142/142 143/143/143/143 117/117/117/117 
f 142/142/142/142 117/117/117/117 112/112/112/112 
f 144/144/144/144 145/145/145/145 146/146/146/146 
f 144/144/144/144 146/146/146/146 147/147/147/147 
f 148/148/148/148 149/149/149/149 145/145/145/145 
f 148/148/148/148 145/145/145/145 144/144/144/144 
f 150/150/150/150 151/151/151/151 149/149/149/149 
f 150/150/150/150 149/149/149/149 148/148/148/148 
f 152/152/152/152 153/153/153/153 151/151/151/151 
f 152/152/152/152 151/151/151/151 150/150/150/150 
f 154/154/154/154 155/155/155/155 153/153/153/153 
f 154/154/154/154 153/153/153/153 152/152/152/152 
f 156/156/156/156 157/157/157/157 155/155/155/155 
f 156/156/156/156 155/155/155/155 154/154/154/154 
f 158/158/158/158 159/159/159/159 157/157/157/157 
f 158/158/158/158 157/157/157/157 156/156/156/156 
f 160/160/160/160 161/161/161/161 159/159/159/159 
f 160/160/160/160 159/159/159/159 158/158/158/158 
f 162/162/162/162 163/163/163/163 161/161/161/161 
f 162/162/162/162 161/161/161/161 160/160/160/160 
f 164/164/164/164 165/165/165/165 163/163/163/163 
f 164/164/164/164 163/163/163/163 162/162/162/162 
f 166/166/166/166 167/167/167/167 165/165/165/165 
f 166/166/166/166 165/165/165/165 164/164/164/164 
f 168/168/168/168 169/169/169/169 167/167/167/167 
f 168/168/168/168 167/167/167/167 166/166/166/166 
f 170/170/170/170 171/171/171/171 169/169/169/169 
f 170/170/170/170 169/169/169/169 168/168/168/168 
f 172/172/172/172 173/173/173/173 171/171/171/171 
f 172/172/172/172 171/171/171/171 170/170/170/170 
f 174/174/174/174 175/175/175/175 173/173/173/173 
f 174/174/174/174 173/173/173/173 172/172/172/172 
f 176/176/176/176 177/177/177/177 175/175/175/175 
f 176/176/176/176 175/175/175/175 174/174/174/174 
f 178/178/178/178 179/179/179/179 177/177/177/177 
f 178/178/178/178 177/177/177/177 176/176/176/176 
f 180/180/180/180 181/181/181/181 179/179/179/179 
f 180/180/180/180 179/179/179/179 178/178/178/178 
f 182/182/182/182 183/183/183/183 181/181/181/181 
f 182/182/182/182 181/181/181/181 180/180/180/180 
f 184/184/184/184 185/185/185/185 183/183/183/183 
f 184/184/184/184 183/183/183/183 182/182/182/182 
f 186/186/186/186 187/187/187/187 185/185/185/185 
f 186/186/186/186 185/185/185/185 184/184/184/184 
f 188/188/188/188 189/189/189/189 187/187/187/187 
f 188/188/188/188 187/187/187/187 186/186/186/186 
f 190/190/190/190 191/191/191/191 189/189/189/189 
f 190/190/190/190 189/189/189/189 188/188/188/188 
f 147/147/147/147 146/146/146/146 191/191/191/191 
f 147/147/147/147 191/191/191/191 190/190/190/190 
f 53/53/53/53 192/192/192/192 193/193/193/193 
f 53/53/53/53 193/193/193/193 54/54/54/54 
f 52/52/52/52 194/194/194/194 192/192/192/192 
f 52/52/52/52 192/192/192/192 53/53/53/53 
f 61/61/61/61 195/195/195/195 194/194/194/194 
f 61/61/61/61 194/194/194/194 52/52/52/52 
f 60/60/60/60 196/196/196/196 195/195/195/195 
f 60/60/60/60 195/195/195/195 61/61/61/61 
f 67/67/67/67 197/197/197/197 196/196/196/196 
f 67/67/67/67 196/196/196/196 60/60/60/60 
f 66/66/66/66 198/198/198/198 197/197/197/197 
f 66/66/66/66 197/197/197/197 67/67/67/67 
f 73/73/73/73 199/199/199/199 198/198/198/198 
f 73/73/73/73 198/198/198/198 66/66/66/66 
f 72/72/72/72 200/200/200/200 199/199/199/199 
f 72/72/72/72 199/199/199/199 73/73/73/73 
f 79/79/79/79 201/201/201/201 200/200/200/200 
f 79/79/79/79 200/200/200/200 72/72/72/72 
f 78/78/78/78 202/202/202/202 201/201/201/201 
f 78/78/78/78 201/201/201/201 79/79/79/79 
f 85/85/85/85 203/203/203/203 202/202/202/202 
f 85/85/85/85 202/202/202/202 78/78/78/78 
f 84/84/84/84 204/204/204/204 203/203/203/203 
f 84/84/84/84 203/203/203/203 85/85/85/85 
f 91/91/91/91 205/205/205/205 204/204/204/204 
f 91/91/91/91 204/204/204/204 84/84/84/84 
f 90/90/90/90 206/206/206/206 205/205/205/205 
f 90/90/90/90 205/205/205/205 91/91/91/91 
f 97/97/97/97 207/207/207/207 206/206/206/206 
f 97/97/97/97 206/206/206/206 90/90/90/90 
f 96/96/96/96 208/208/208/208 207/207/207/207 
f 96/96/96/96 207/207/207/207 97/97/97/97 
f 103/103/103/103 209/209/209/209 208/208/208/208 
f 103/103/103/103 208/208/208/208 96/96/96/96 
f 102/102/102/102 210/210/210/210 209/209/209/209 
f 102/102/102/102 209/209/209/209 103/103/103/103 
f 109/109/109/109 211/211/211/211 210/210/210/210 
f 109/109/109/109 210/210/210/210 102/102/102/102 
f 108/108/108/108 212/212/212/212 211/211/211/211 
f 108/108/108/108 211/211/211/211 109/109/109/109 
f 115/115/115/115 213/213/213/213 212/212/212/212 
f 115/115/115/115 212/212/212/212 108/108/108/108 
f 114/114/114/114 214/214/214/214 213/213/213/213 
f 114/114/114/114 213/213/213/213 115/115/115/115 
f 119/119/119/119 215/215/215/215 214/214/214/214 
f 119/119/119/119 214/214/214/214 114/114/114/114 
f 54/54/54/54 193/193/193/193 215/215/215/215 
f 54/54/54/54 215/215/215/215 119/119/119/119 
f 193/193/193/193 192/192/192/192 216/216/216/216 
f 192/192/192/192 194/194/194/194 216/216/216/216 
f 194/194/194/194 195/195/195/195 216/216/216/216 
f 195/195/195/195 196/196/196/196 216/216/216/216 
f 196/196/196/196 197/197/197/197 216/216/216/216 
f 197/197/197/197 198/198/198/198 216/216/216/216 
f 198/198/198/198 199/199/199/199 216/216/216/216 
f 199/199/199/199 200/200/200/200 216/216/216/216 
f 200/200/200/200 201/201/201/201 216/216/216/216 
f 201/201/201/201 202/202/202/202 216/216/216/216 
f 202/202/202/202 203/203/203/203 216/216/216/216 
f 203/203/203/203 204/204/204/204 216/216/216/216 
f 204/204/204/204 205/205/205/205 216/216/216/216 
f 205/205/205/205 206/206/206/206 216/216/216/216 
f 206/206/206/206 207/207/207/207 216/216/216/216 
f 207/207/207/207 208/208/208/208 216/216/216/216 
f 208/208/208/208 209/209/209/209 216/216/216/216 
f 209/209/209/209 210/210/210/210 216/216/216/216 
f 210/210/210/210 211/211/211/211 216/216/216/216 
f 211/211/211/211 212/212/212/212 216/216/216/216 
f 212/212/212/212 213/213/213/213 216/216/216/216 
f 213/213/213/213 214/214/214/214 216/216/216/216 
f 214/214/214/214 215/215/215/215 216/216/216/216 
f 215/215/215/215 193/193/193/193 216/216/216/216 
f 217/217/217/217 218/218/218/218 1/1/1/1 
f 217/217/217/217 1/1/1/1 5/5/5/5 
f 219/219/219/219 220/220/220/220 47/47/47/47 
f 219/219/219/219 47/47/47/47 2/2/2/2 
f 221/221/221/221 222/222/222/222 43/43/43/43 
f 221/221/221/221 43/43/43/43 45/45/45/45 
f 223/223/223/223 224/224/224/224 39/39/39/39 
f 223/223/223/223 39/39/39/39 41/41/41/41 
f 225/225/225/225 226/226/226/226 35/35/35/35 
f 225/225/225/225 35/35/35/35 37/37/37/37 
f 227/227/227/227 228/228/228/228 31/31/31/31 
f 227/227/227/227 31/31/31/31 33/33/33/33 
f 229/229/229/229 230/230/230/230 27/27/27/27 
f 229/229/229/229 27/27/27/27 29/29/29/29 
f 231/231/231/231 232/232/232/232 23/23/23/23 
f 231/231/231/231 23/23/23/23 25/25/25/25 
f 233/233/233/233 234/234/234/234 19/19/19/19 
f 233/233/233/233 19/19/19/19 21/21/21/21 
f 235/235/235/235 236/236/236/236 15/15/15/15 
f 235/235/235/235 15/15/15/15 17/17/17/17 
f 237/237/237/237 238/238/238/238 11/11/11/11 
f 237/237/237/237 11/11/11/11 13/13/13/13 
f 239/239/239/239 240/240/240/240 7/7/7/7 
f 239/239/239/239 7/7/7/7 9/9/9/9 
f 240/240/240/240 191/191/191/191 146/146/146/146 
f 240/240/240/240 146/146/146/146 217/217/217/217 
f 239/239/239/239 189/189/189/189 191/191/191/191 
f 239/239/239/239 191/191/191/191 240/240/240/240 
f 238/238/238/238 187/187/187/187 189/189/189/189 
f 238/238/238/238 189/189/189/189 239/239/239/239 
f 236/236/236/236 183/183/183/183 185/185/185/185 
f 236/236/236/236 185/185/185/185 237/237/237/237 
f 234/234/234/234 179/179/179/179 181/181/181/181 
f 234/234/234/234 181/181/181/181 235/235/235/235 
f 232/232/232/232 175/175/175/175 177/177/177/177 
f 232/232/232/232 177/177/177/177 233/233/233/233 
f 230/230/230/230 171/171/171/171 173/173/173/173 
f 230/230/230/230 173/173/173/173 231/231/231/231 
f 228/228/228/228 167/167/167/167 169/169/169/169 
f 228/228/228/228 169/169/169/169 229/229/229/229 
f 226/226/226/226 163/163/163/163 165/165/165/165 
f 226/226/226/226 165/165/165/165 227/227/227/227 
f 224/224/224/224 159/159/159/159 161/161/161/161 
f 224/224/224/224 161/161/161/161 225/225/225/225 
f 222/222/222/222 155/155/155/155 157/157/157/157 
f 222/222/222/222 157/157/157/157 223/223/223/223 
f 220/220/220/220 151/151/151/151 153/153/153/153 
f 220/220/220/220 153/153/153/153 221/221/221/221 
f 218/218/218/218 145/145/145/145 149/149/149/149 
f 218/218/218/218 149/149/149/149 219/219/219/219 
f 151/151/151/151 220/220/220/220 219/219/219/219 
f 151/151/151/151 219/219/219/219 149/149/149/149 
f 155/155/155/155 222/222/222/222 221/221/221/221 
f 155/155/155/155 221/221/221/221 153/153/153/153 
f 159/159/159/159 224/224/224/224 223/223/223/223 
f 159/159/159/159 223/223/223/223 157/157/157/157 
f 163/163/163/163 226/226/226/226 225/225/225/225 
f 163/163/163/163 225/225/225/225 161/161/161/161 
f 167/167/167/167 228/228/228/228 227/227/227/227 
f 167/167/167/167 227/227/227/227 165/165/165/165 
f 171/171/171/171 230/230/230/230 229/229/229/229 
f 171/171/171/171 229/229/229/229 169/169/169/169 
f 175/175/175/175 232/232/232/232 231/231/231/231 
f 175/175/175/175 231/231/231/231 173/173/173/173 
f 179/179/179/179 234/234/234/234 233/233/233/233 
f 179/179/179/179 233/233/233/233 177/177/177/177 
f 183/183/183/183 236/236/236/236 235/235/235/235 
f 183/183/183/183 235/235/235/235 181/181/181/181 
f 187/187/187/187 238/238/238/238 237/237/237/237 
f 187/187/187/187 237/237/237/237 185/185/185/185 
f 145/145/145/145 218/218/218/218 217/217/217/217 
f 145/145/145/145 217/217/217/217 146/146/146/146 
f 2/2/2/2 1/1/1/1 218/218/218/218 
f 2/2/2/2 218/218/218/218 219/219/219/219 
f 45/45/45/45 47/47/47/47 220/220/220/220 
f 45/45/45/45 220/220/220/220 221/221/221/221 
f 41/41/41/41 43/43/43/43 222/222/222/222 
f 41/41/41/41 222/222/222/222 223/223/223/223 
f 37/37/37/37 39/39/39/39 224/224/224/224 
f 37/37/37/37 224/224/224/224 225/225/225/225 
f 33/33/33/33 35/35/35/35 226/226/226/226 
f 33/33/33/33 226/226/226/226 227/227/227/227 
f 29/29/29/29 31/31/31/31 228/228/228/228 
f 29/29/29/29 228/228/228/228 229/229/229/229 
f 25/25/25/25 27/27/27/27 230/230/230/230 
f 25/25/25/25 230/230/230/230 231/231/231/231 
f 21/21/21/21 23/23/23/23 232/232/232/232 
f 21/21/21/21 232/232/232/232 233/233/233/233 
f 17/17/17/17 19/19/19/19 234/234/234/234 
f 17/17/17/17 234/234/234/234 235/235/235/235 
f 13/13/13/13 15/15/15/15 236/236/236/236 
f 13/13/13/13 236/236/236/236 237/237/237/237 
f 9/9/9/9 11/11/11/11 238/238/238/238 
f 9/9/9/9 238/238/238/238 239/239/239/239 
f 5/5/5/5 7/7/7/7 240/240/240/240 
f 5/5/5/5 240/240/240/240 217/217/217/217 
f 118/118/118/118 49/49/49/49 48/48/48/48 
f 118/118/118/118 48/48/48/48 55/55/55/55 
f 50/50/50/50 57/57/57/57 56/56/56/56 
f 50/50/50/50 56/56/56/56 51/51/51/51 
f 58/58/58/58 63/63/63/63 62/62/62/62 
f 58/58/58/58 62/62/62/62 59/59/59/59 
f 64/64/64/64 69/69/69/69 68/68/68/68 
f 64/64/64/64 68/68/68/68 65/65/65/65 
f 70/70/70/70 75/75/75/75 74/74/74/74 
f 70/70/70/70 74/74/74/74 71/71/71/71 
f 76/76/76/76 81/81/81/81 80/80/80/80 
f 76/76/76/76 80/80/80/80 77/77/77/77 
f 82/82/82/82 87/87/87/87 86/86/86/86 
f 82/82/82/82 86/86/86/86 83/83/83/83 
f 88/88/88/88 93/93/93/93 92/92/92/92 
f 88/88/88/88 92/92/92/92 89/89/89/89 
f 94/94/94/94 99/99/99/99 98/98/98/98 
f 94/94/94/94 98/98/98/98 95/95/95/95 
f 100/100/100/100 105/105/105/105 104/104/104/104 
f 100/100/100/100 104/104/104/104 101/101/101/101 
f 106/106/106/106 111/111/111/111 110/110/110/110 
f 106/106/106/106 110/110/110/110 107/107/107/107 
f 112/112/112/112 117/117/117/117 116/116/116/116 
f 112/112/112/112 116/116/116/116 113/113/113/113 
f 144/144/144/144 147/147/147/147 121/121/121/121 
f 144/144/144/144 121/121/121/121 120/120/120/120 
f 148/148/148/148 144/144/144/144 120/120/120/120 
f 148/148/148/148 120/120/120/120 122/122/122/122 
f 190/190/190/190 188/188/188/188 124/124/124/124 
f 190/190/190/190 124/124/124/124 123/123/123/123 
f 147/147/147/147 190/190/190/190 123/123/123/123 
f 147/147/147/147 123/123/123/123 121/121/121/121 
f 186/186/186/186 184/184/184/184 126/126/126/126 
f 186/186/186/186 126/126/126/126 125/125/125/125 
f 188/188/188/188 186/186/186/186 125/125/125/125 
f 188/188/188/188 125/125/125/125 124/124/124/124 
f 182/182/182/182 180/180/180/180 128/128/128/128 
f 182/182/182/182 128/128/128/128 127/127/127/127 
f 184/184/184/184 182/182/182/182 127/127/127/127 
f 184/184/184/184 127/127/127/127 126/126/126/126 
f 178/178/178/178 176/176/176/176 130/130/130/130 
f 178/178/178/178 130/130/130/130 129/129/129/129 
f 180/180/180/180 178/178/178/178 129/129/129/129 
f 180/180/180/180 129/129/129/129 128/128/128/128 
f 174/174/174/174 172/172/172/172 132/132/132/132 
f 174/174/174/174 132/132/132/132 131/131/131/131 
f 176/176/176/176 174/174/174/174 131/131/131/131 
f 176/176/176/176 131/131/131/131 130/130/130/130 
f 170/170/170/170 168/168/168/168 134/134/134/134 
f 170/170/170/170 134/134/134/134 133/133/133/133 
f 172/172/172/172 170/170/170/170 133/133/133/133 
f 172/172/172/172 133/133/133/133 132/132/132/132 
f 166/166/166/166 164/164/164/164 136/136/136/136 
f 166/166/166/166 136/136/136/136 135/135/135/135 
f 168/168/168/168 166/166/166/166 135/135/135/135 
f 168/168/168/168 135/135/135/135 134/134/134/134 
f 162/162/162/162 160/160/160/160 138/138/138/138 
f 162/162/162/162 138/138/138/138 137/137/137/137 
f 164/164/164/164 162/162/162/162 137/137/137/137 
f 164/164/164/164 137/137/137/137 136/136/136/136 
f 158/158/158/158 156/156/156/156 140/140/140/140 
f 158/158/158/158 140/140/140/140 139/139/139/139 
f 160/160/160/160 158/158/158/158 139/139/139/139 
f 160/160/160/160 139/139/139/139 138/138/138/138 
f 154/154/154/154 152/152/152/152 142/142/142/142 
f 154/154/154/154 142/142/142/142 141/141/141/141 
f 156/156/156/156 154/154/154/154 141/141/141/141 
f 156/156/156/156 141/141/141/141 140/140/140/140 
f 150/150/150/150 148/148/148/148 122/122/122/122 
f 150/150/150/150 122/122/122/122 143/143/143/143 
f 152/152/152/152 150/150/150/150 143/143/143/143 
f 152/152/152/152 143/143/143/143 142/142/142/142 
