v -596.1614 664.232 -640.8578
v -596.1614 664.232 -646.9677
v -595.5298 670.6964 -646.9677
v -595.5298 670.6964 -640.0359
v -596.7576 664.232 -640.126
v -596.0881 670.6964 -639.3498
v -642.6514 670.6964 -639.3498
v -641.9824 664.232 -640.126
v -591.2822 690.9597 -633.3974
v -647.4575 690.9597 -633.3974
v -647.4861 686.5967 -633.3974
v -591.2534 686.5967 -633.3974
v -648.0564 690.9597 -634.1327
v -648.0564 690.9597 -646.9677
v -648.0564 686.5967 -646.9677
v -648.0564 686.5967 -634.0974
v -596.6252 660.3634 -641.4412
v -596.6252 660.3634 -646.9677
v -594.8372 662.2977 -646.9677
v -594.8372 662.2977 -639.3174
v -597.2324 660.3634 -640.6953
v -595.5032 662.2977 -638.4993
v -643.2363 662.2977 -638.4993
v -641.5076 660.3634 -640.6953
v -590.6838 690.9597 -634.1327
v -590.6838 690.9597 -646.9677
v -589.0181 693.1412 -646.9677
v -589.0181 693.1412 -632.1651
v -589.6804 693.1412 -631.3518
v -649.0593 693.1412 -631.3518
v -590.6838 695.3228 -646.9677
v -590.6838 695.3228 -634.2104
v -591.3455 695.3228 -633.3974
v -647.394 695.3228 -633.3974
v -593.3896 679.6954 -637.4352
v -593.3896 679.6954 -646.9677
v -590.6838 686.5967 -646.9677
v -590.6838 686.5967 -634.0974
v -593.9709 679.6954 -636.7213
v -644.7686 679.6954 -636.7213
v -643.2104 670.6964 -640.0359
v -642.5781 664.232 -640.8578
v -643.9023 662.2977 -639.3174
v -642.1145 660.3634 -641.4412
v -649.7214 693.1412 -632.1651
v -648.0564 695.3228 -634.2104
v -645.3501 679.6954 -637.4352
v -648.0564 695.3228 -646.9677
v -643.2104 670.6964 -646.9677
v -642.5781 664.232 -646.9677
v -643.9023 662.2977 -646.9677
v -642.115 660.3634 -646.9677
v -649.7214 693.1412 -646.9677
v -645.3501 679.6954 -646.9677
gi 0 0 0 0
gw 0.0 0.0 0.0 0.0
gi 0 0 0 0
gw 0.0 0.0 0.0 0.0
gi 0 0 0 0
gw 0.0 0.0 0.0 0.0
gi 0 0 0 0
gw 0.0 0.0 0.0 0.0
gi 0 0 0 0
gw 0.0 0.0 0.0 0.0
gi 0 0 0 0
gw 0.0 0.0 0.0 0.0
gi 0 0 0 0
gw 0.0 0.0 0.0 0.0
gi 0 0 0 0
gw 0.0 0.0 0.0 0.0
gi 0 0 0 0
gw 0.0 0.0 0.0 0.0
gi 0 0 0 0
gw 0.0 0.0 0.0 0.0
gi 0 0 0 0
gw 0.0 0.0 0.0 0.0
gi 0 0 0 0
gw 0.0 0.0 0.0 0.0
gi 0 0 0 0
gw 0.0 0.0 0.0 0.0
gi 0 0 0 0
gw 0.0 0.0 0.0 0.0
gi 0 0 0 0
gw 0.0 0.0 0.0 0.0
gi 0 0 0 0
gw 0.0 0.0 0.0 0.0
gi 0 0 0 0
gw 0.0 0.0 0.0 0.0
gi 0 0 0 0
gw 0.0 0.0 0.0 0.0
gi 0 0 0 0
gw 0.0 0.0 0.0 0.0
gi 0 0 0 0
gw 0.0 0.0 0.0 0.0
gi 0 0 0 0
gw 0.0 0.0 0.0 0.0
gi 0 0 0 0
gw 0.0 0.0 0.0 0.0
gi 0 0 0 0
gw 0.0 0.0 0.0 0.0
gi 0 0 0 0
gw 0.0 0.0 0.0 0.0
gi 0 0 0 0
gw 0.0 0.0 0.0 0.0
gi 0 0 0 0
gw 0.0 0.0 0.0 0.0
gi 0 0 0 0
gw 0.0 0.0 0.0 0.0
gi 0 0 0 0
gw 0.0 0.0 0.0 0.0
gi 0 0 0 0
gw 0.0 0.0 0.0 0.0
gi 0 0 0 0
gw 0.0 0.0 0.0 0.0
gi 0 0 0 0
gw 0.0 0.0 0.0 0.0
gi 0 0 0 0
gw 0.0 0.0 0.0 0.0
gi 0 0 0 0
gw 0.0 0.0 0.0 0.0
gi 0 0 0 0
gw 0.0 0.0 0.0 0.0
gi 0 0 0 0
gw 0.0 0.0 0.0 0.0
gi 0 0 0 0
gw 0.0 0.0 0.0 0.0
gi 0 0 0 0
gw 0.0 0.0 0.0 0.0
gi 0 0 0 0
gw 0.0 0.0 0.0 0.0
gi 0 0 0 0
gw 0.0 0.0 0.0 0.0
gi 0 0 0 0
gw 0.0 0.0 0.0 0.0
gi 0 0 0 0
gw 0.0 0.0 0.0 0.0
gi 0 0 0 0
gw 0.0 0.0 0.0 0.0
gi 0 0 0 0
gw 0.0 0.0 0.0 0.0
gi 0 0 0 0
gw 0.0 0.0 0.0 0.0
gi 0 0 0 0
gw 0.0 0.0 0.0 0.0
gi 0 0 0 0
gw 0.0 0.0 0.0 0.0
gi 0 0 0 0
gw 0.0 0.0 0.0 0.0
gi 0 0 0 0
gw 0.0 0.0 0.0 0.0
gi 0 0 0 0
gw 0.0 0.0 0.0 0.0
gi 0 0 0 0
gw 0.0 0.0 0.0 0.0
gi 0 0 0 0
gw 0.0 0.0 0.0 0.0
gi 0 0 0 0
gw 0.0 0.0 0.0 0.0
gi 0 0 0 0
gw 0.0 0.0 0.0 0.0
gi 0 0 0 0
gw 0.0 0.0 0.0 0.0
vt 0.4476 0.6911
vt 0.2773 0.6911
vt 0.2773 0.6742
vt 0.4476 0.6742
vt 0.4453 0.6933
vt 0.2795 0.6933
vt 0.5504 0.8881
vt 0.5337 0.8881
vt 0.5337 0.9084
vt 0.5526 0.9084
vt 0.6076 0.8897
vt 0.6053 0.91
vt 0.7614 0.91
vt 0.7592 0.8897
vt 0.5892 0.9737
vt 0.7775 0.9737
vt 0.7776 0.96
vt 0.5891 0.96
vt 0.7937 0.9733
vt 0.8287 0.9733
vt 0.8287 0.9596
vt 0.7936 0.9596
vt 0.9865 0.7672
vt 0.9619 0.7672
vt 0.9632 0.7791
vt 0.9959 0.7791
vt 0.0112 0.7672
vt 0.0111 0.779
vt 0.2524 0.779
vt 0.2525 0.7672
vt 0.5546 0.882
vt 0.5337 0.882
vt 0.6034 0.8836
vt 0.7634 0.8836
vt 0.5687 0.9721
vt 0.5337 0.9721
vt 0.5337 0.979
vt 0.5741 0.979
vt 0.5839 0.9806
vt 0.7829 0.9806
vt 0.5337 0.9859
vt 0.5685 0.9859
vt 0.5894 0.9875
vt 0.7773 0.9875
vt 0.5597 0.9367
vt 0.5337 0.9367
vt 0.5337 0.9584
vt 0.5688 0.9584
vt 0.5982 0.9383
vt 0.7685 0.9383
vt 0.605 0.8907
vt 0.6028 0.9094
vt 0.8095 0.8902
vt 0.8073 0.909
vt 0.8098 0.9096
vt 0.8121 0.8892
vt 0.5867 0.9726
vt 0.5865 0.9593
vt 0.7912 0.9721
vt 0.791 0.9589
vt 0.6007 0.8862
vt 0.8079 0.8832
vt 0.8052 0.8857
vt 0.0079 0.7672
vt 0.0078 0.7789
vt 0.2559 0.779
vt 0.2558 0.7672
vt 0.5815 0.9806
vt 0.786 0.9801
vt 0.7884 0.9801
vt 0.5871 0.99
vt 0.7916 0.9896
vt 0.7939 0.987
vt 0.5957 0.9372
vt 0.8002 0.9367
vt 0.8027 0.9379
vt 0.1674 0.876
vt 0.1655 0.8746
vt 0.0109 0.8746
vt 0.0091 0.8976
vt 0.0091 0.876
vt 0.1674 0.8976
vt 0.8287 0.9096
vt 0.8287 0.8892
vt 0.2874 0.779
vt 0.2803 0.7672
vt 0.8287 0.8832
vt 0.8287 0.9801
vt 0.8287 0.987
vt 0.8287 0.9379
vn 0.0 -1.0 -0.0
vn 0.0 -1.0 0.0
vn 0.0 -1.0 0.0
vn 0.9117 0.3115 0.2677
vn 0.9685 0.2488 0.0
vn 0.9863 -0.1647 0.0
vn 0.9232 -0.2213 0.3142
vn 0.3712 0.3626 0.8548
vn 0.408 -0.2541 0.8769
vn -0.4077 -0.254 0.8771
vn -0.3714 0.3626 0.8547
vn 0.3557 -0.4619 0.8125
vn -0.3555 -0.4619 0.8126
vn -0.427 -0.251 0.8687
vn 0.4272 -0.251 0.8686
vn -0.8773 -0.4014 0.2632
vn -0.9473 -0.3202 0.0
vn -0.9826 -0.1858 0.0
vn -0.9077 -0.2349 0.3477
vn 0.4051 -0.9097 0.0916
vn 0.401 -0.9161 0.0
vn 0.9973 -0.0728 0.0
vn 0.9149 -0.0672 0.3981
vn 0.1382 -0.9239 0.3568
vn 0.4599 -0.0629 0.8857
vn -0.4598 -0.0629 0.8858
vn -0.1381 -0.9239 0.3569
vn 0.8773 -0.4014 0.263
vn 0.9473 -0.3203 0.0
vn 1.0 -0.0 0.0
vn 0.9163 0.0032 0.4005
vn 0.4624 0.0025 0.8867
vn -0.4625 0.0025 0.8866
vn 0.4434 0.8963 -0.0
vn 0.4484 0.8877 0.1048
vn 0.1562 0.9026 0.4011
vn -0.1561 0.9026 0.4012
vn 0.8737 -0.3895 0.2914
vn 0.9543 -0.2989 0.0
vn 0.9826 -0.1857 0.0
vn 0.9078 -0.2348 0.3474
vn 0.3735 -0.4407 0.8163
vn -0.3735 -0.4407 0.8163
vn -0.9231 -0.2213 0.3145
vn -0.9118 0.3114 0.2676
vn -0.9149 -0.0672 0.3981
vn -0.4051 -0.9097 0.0917
vn -0.9163 0.0033 0.4004
vn -0.4484 0.8876 0.1048
vn -0.8737 -0.3895 0.2914
vn -0.4435 0.8963 0.0
vn -0.9863 -0.1647 0.0
vn -0.9686 0.2488 0.0
vn -0.9973 -0.0728 0.0
vn -0.4011 -0.916 0.0
vn -1.0 -0.0 0.0
vn -0.9543 -0.2989 0.0
vtan 1.0 0.0 0.0 1.0
vtan 1.0 0.0 0.0 1.0
vtan -0.2534 -0.0866 0.9635 -1.0
vtan 0.0 0.0 1.0 -1.0
vtan -0.3056 0.0733 0.9493 -1.0
vtan -0.9265 0.205 0.3154 -1.0
vtan -0.913 -0.1189 0.3903 -1.0
vtan -0.9131 0.1134 -0.3916 -1.0
vtan -0.9285 -0.1451 -0.3419 -1.0
vtan -0.9342 -0.1514 0.3229 -1.0
vtan -0.9347 0.1757 -0.3091 -1.0
vtan -0.9043 0.1185 -0.4102 -1.0
vtan -0.9038 -0.1441 0.4029 -1.0
vtan -0.2126 -0.1666 -0.9628 -1.0
vtan 0.0 0.0 -1.0 -1.0
vtan -0.3213 -0.1437 -0.936 -1.0
vtan -0.0373 0.0837 0.9958 -1.0
vtan -0.0 0.0 1.0 -1.0
vtan -0.397 0.0292 0.9173 -1.0
vtan -0.9225 0.011 0.3857 -1.0
vtan -0.8877 -0.0086 0.4603 -1.0
vtan -0.8875 -0.0021 -0.4609 -1.0
vtan -0.9217 -0.0119 -0.3876 -1.0
vtan -0.397 0.0292 0.9173 -1.0
vtan 0.0 0.0 1.0 -1.0
vtan -0.8293 0.3261 0.4537 -1.0
vtan -0.888 0.0326 -0.4587 -1.0
vtan -0.2392 0.1094 0.9648 -1.0
vtan -0.4005 -0.0014 0.9163 -1.0
vtan -0.8867 -0.0001 0.4624 -1.0
vtan -0.8866 -0.0013 -0.4625 -1.0
vtan 0.0 0.0 1.0 -1.0
vtan -0.0472 -0.0935 0.9945 -1.0
vtan -0.9858 0.1172 0.1202 -1.0
vtan -0.9877 -0.1427 -0.0634 -1.0
vtan -0.2661 0.1186 0.9566 -1.0
vtan -0.3363 0.087 0.9377 -1.0
vtan -0.9275 -0.19 0.3219 -1.0
vtan -0.9276 0.1774 -0.3286 -1.0
vtan -0.4026 0.5486 0.7327 -1.0
vtan -0.3691 -0.2827 0.8853 -1.0
vtan -0.6672 0.536 -0.5173 -1.0
vtan -0.8045 -0.3544 -0.4767 -1.0
vtan -0.2993 -0.0999 -0.9489 -1.0
vtan -0.234 0.1414 -0.9619 -1.0
vtan -0.4489 -0.4924 0.7457 -1.0
vtan -0.4114 -0.3386 0.8462 -1.0
vtan -0.6289 -0.5249 -0.5736 -1.0
vtan -0.7895 -0.3649 -0.4935 -1.0
vtan -0.2304 0.7228 0.6515 -1.0
vtan -0.3981 0.3135 -0.8621 -1.0
vtan -0.571 0.7849 -0.2407 -1.0
vtan -0.5663 -0.1709 0.8063 -1.0
vtan -0.4008 -0.0333 0.9156 -1.0
vtan -0.3992 0.0031 -0.9169 -1.0
vtan -0.2536 0.0154 -0.9672 -1.0
vtan -0.4003 0.0329 0.9158 -1.0
vtan -0.8866 0.0011 -0.4625 -1.0
vtan -0.4004 0.0128 -0.9163 -1.0
vtan -0.8829 0.4215 0.207 -1.0
vtan -0.1321 0.3834 -0.9141 -1.0
vtan 0.0233 0.1289 -0.9914 -1.0
vtan -0.4662 -0.4998 0.7299 -1.0
vtan -0.607 -0.5493 -0.5743 -1.0
vtan -0.2343 -0.1881 -0.9538 -1.0
vtan -0.8938 -0.4453 -0.0526 -1.0
vtan -0.9877 -0.1427 -0.0634 -1.0
vtan -0.9877 0.1448 0.0587 -1.0
vtan -0.8963 0.4434 -0.0004 -1.0
vtan -0.8936 0.4479 0.0295 -1.0
vtan -0.8963 -0.4435 0.0 -1.0
vtan 0.0 0.0 -1.0 -1.0
vtan -0.0 0.0 -1.0 -1.0
vtan -0.0001 0.0 -1.0 -1.0
vtan -0.0 -0.0 -1.0 -1.0
f 16/0/0/0 43/1/0/1 51/2/0/0 
f 16/0/1/0 51/2/1/0 17/3/1/0 
f 43/1/2/0 16/0/2/1 20/4/2/0 
f 43/1/1/0 20/4/1/0 23/5/1/0 
f 0/6/3/2 1/7/4/3 2/8/5/3 
f 0/6/3/2 2/8/5/3 3/9/6/4 
f 4/10/7/5 5/11/8/6 6/12/9/7 
f 4/10/7/5 6/12/9/7 7/13/10/8 
f 8/14/11/9 9/15/12/10 10/16/13/11 
f 8/14/11/9 10/16/13/11 11/17/14/12 
f 12/18/15/13 13/19/16/14 14/20/17/14 
f 12/18/15/13 14/20/17/14 15/21/18/15 
f 16/22/19/16 17/23/20/17 18/24/21/3 
f 16/22/19/16 18/24/21/3 19/25/22/18 
f 20/26/23/19 21/27/24/20 22/28/25/21 
f 20/26/23/19 22/28/25/21 23/29/26/22 
f 0/6/3/2 19/30/22/23 18/31/21/24 
f 0/6/3/2 18/31/21/24 1/7/4/3 
f 21/32/24/25 4/10/7/5 7/13/10/8 
f 21/32/24/25 7/13/10/8 22/33/25/26 
f 24/34/27/27 25/35/28/3 26/36/29/3 
f 24/34/27/27 26/36/29/3 27/37/30/28 
f 8/14/11/9 28/38/31/29 29/39/32/30 
f 8/14/11/9 29/39/32/30 9/15/12/10 
f 26/36/29/3 30/40/33/31 31/41/34/32 
f 26/36/29/3 31/41/34/32 27/37/30/28 
f 28/38/31/29 32/42/35/33 33/43/36/34 
f 28/38/31/29 33/43/36/34 29/39/32/30 
f 34/44/37/35 35/45/38/3 36/46/39/3 
f 34/44/37/35 36/46/39/3 37/47/40/36 
f 38/48/41/37 11/17/14/12 10/16/13/11 
f 38/48/41/37 10/16/13/11 39/49/42/38 
f 3/9/6/4 2/8/5/3 35/45/38/3 
f 3/9/6/4 35/45/38/3 34/44/37/35 
f 5/11/8/6 38/48/41/37 39/49/42/38 
f 5/11/8/6 39/49/42/38 6/12/9/7 
f 4/10/7/5 0/50/3/39 3/51/6/40 
f 4/10/7/5 3/51/6/40 5/11/8/6 
f 7/52/10/41 6/53/9/42 40/54/43/43 
f 7/52/10/41 40/54/43/43 41/55/44/44 
f 24/56/27/45 8/14/11/9 11/17/14/12 
f 24/56/27/45 11/17/14/12 37/57/40/46 
f 9/58/12/47 12/18/15/13 15/21/18/15 
f 9/58/12/47 15/21/18/15 10/59/13/48 
f 19/60/22/49 0/50/3/39 4/10/7/5 
f 19/60/22/49 4/10/7/5 21/32/24/25 
f 42/61/45/50 22/62/25/51 7/52/10/41 
f 42/61/45/50 7/52/10/41 41/55/44/44 
f 20/26/23/19 16/63/19/52 19/64/22/53 
f 20/26/23/19 19/64/22/53 21/27/24/20 
f 42/65/45/54 43/66/46/55 23/29/26/22 
f 42/65/45/54 23/29/26/22 22/28/25/21 
f 27/67/30/56 28/38/31/29 8/14/11/9 
f 27/67/30/56 8/14/11/9 24/56/27/45 
f 9/58/12/47 29/68/32/57 44/69/47/58 
f 9/58/12/47 44/69/47/58 12/18/15/13 
f 27/67/30/56 31/70/34/59 32/42/35/33 
f 27/67/30/56 32/42/35/33 28/38/31/29 
f 33/71/36/60 45/72/48/61 44/69/47/58 
f 33/71/36/60 44/69/47/58 29/68/32/57 
f 37/57/40/46 11/17/14/12 38/48/41/37 
f 37/57/40/46 38/48/41/37 34/73/37/62 
f 39/74/42/63 10/59/13/48 15/21/18/15 
f 39/74/42/63 15/21/18/15 46/75/49/64 
f 34/73/37/62 38/48/41/37 5/11/8/6 
f 34/73/37/62 5/11/8/6 3/51/6/40 
f 6/53/9/42 39/74/42/63 46/75/49/64 
f 6/53/9/42 46/75/49/64 40/54/43/43 
f 45/76/48/65 33/77/36/66 32/78/35/67 
f 45/76/48/65 32/78/35/67 30/79/33/68 
f 32/78/35/67 31/80/34/69 30/79/33/68 
f 47/81/50/70 45/76/48/65 30/79/33/68 
f 41/55/44/44 40/54/43/43 48/82/51/71 
f 41/55/44/44 48/82/51/71 49/83/52/14 
f 24/34/27/27 37/47/40/36 36/46/39/3 
f 24/34/27/27 36/46/39/3 25/35/28/3 
f 43/66/46/55 42/65/45/54 50/84/53/72 
f 43/66/46/55 50/84/53/72 51/85/54/73 
f 50/86/53/74 42/61/45/50 41/55/44/44 
f 50/86/53/74 41/55/44/44 49/83/52/14 
f 12/18/15/13 44/69/47/58 52/87/55/14 
f 12/18/15/13 52/87/55/14 13/19/16/14 
f 52/87/55/14 44/69/47/58 45/72/48/61 
f 52/87/55/14 45/72/48/61 47/88/50/14 
f 46/75/49/64 15/21/18/15 14/20/17/14 
f 46/75/49/64 14/20/17/14 53/89/56/14 
f 40/54/43/43 46/75/49/64 53/89/56/14 
f 40/54/43/43 53/89/56/14 48/82/51/71 
