v -972.9014 186.5211 -640.858
v -972.9014 186.5211 -646.9679
v -972.0032 192.9855 -646.9678
v -972.0032 192.9855 -640.0363
v -973.7485 186.5211 -640.1261
v -972.7974 192.9855 -639.3499
v -1039.0024 192.9855 -639.3499
v -1038.0508 186.5211 -640.1261
v -965.9641 213.2488 -633.3975
v -1045.8357 213.2488 -633.3975
v -1045.877 208.8857 -633.3975
v -965.9231 208.8857 -633.3975
v -1046.6873 213.2488 -634.1328
v -1046.6873 213.2488 -646.9678
v -1046.6873 208.8857 -646.9678
v -1046.6873 208.8857 -634.0977
v -973.5605 182.6524 -641.4413
v -973.5605 182.6524 -646.9679
v -971.0186 184.5867 -646.9679
v -971.0186 184.5867 -639.3175
v -974.4238 182.6524 -640.6954
v -971.9656 184.5867 -638.4995
v -1039.8342 184.5867 -638.4995
v -1037.3757 182.6524 -640.6954
v -965.1128 213.2488 -634.1328
v -965.1128 213.2488 -646.9678
v -962.7449 215.4303 -646.9678
v -962.7449 215.4303 -632.1652
v -963.6863 215.4303 -631.3521
v -1048.1138 215.4303 -631.3521
v -965.1128 217.6118 -646.9678
v -965.1128 217.6118 -634.2106
v -966.0537 217.6118 -633.3975
v -1045.7458 217.6118 -633.3975
v -968.9602 201.9844 -637.4354
v -968.9602 201.9844 -646.9678
v -965.1128 208.8857 -646.9678
v -965.1128 208.8857 -634.0977
v -969.7866 201.9844 -636.7213
v -1042.0129 201.9844 -636.7213
v -1039.7969 192.9855 -640.0363
v -1038.8984 186.5211 -640.858
v -1040.7812 184.5867 -639.3175
v -1038.239 182.6524 -641.4413
v -1049.0547 215.4303 -632.1652
v -1046.6873 217.6118 -634.2106
v -1042.8394 201.9844 -637.4354
v -1046.6873 217.6118 -646.9678
v -1039.7969 192.9855 -646.9678
v -1038.8984 186.5211 -646.9679
v -1040.7815 184.5867 -646.9679
v -1038.2395 182.6524 -646.9679
v -1049.0547 215.4303 -646.9678
v -1042.8394 201.9844 -646.9678
gi 0 0 0 0
gi 0 0 0 0
gi 0 0 0 0
gi 0 0 0 0
gi 0 0 0 0
gi 0 0 0 0
gi 0 0 0 0
gi 0 0 0 0
gi 0 0 0 0
gi 0 0 0 0
gi 0 0 0 0
gi 0 0 0 0
gi 0 0 0 0
gi 0 0 0 0
gi 0 0 0 0
gi 0 0 0 0
gi 0 0 0 0
gi 0 0 0 0
gi 0 0 0 0
gi 0 0 0 0
gi 0 0 0 0
gi 0 0 0 0
gi 0 0 0 0
gi 0 0 0 0
gi 0 0 0 0
gi 0 0 0 0
gi 0 0 0 0
gi 0 0 0 0
gi 0 0 0 0
gi 0 0 0 0
gi 0 0 0 0
gi 0 0 0 0
gi 0 0 0 0
gi 0 0 0 0
gi 0 0 0 0
gi 0 0 0 0
gi 0 0 0 0
gi 0 0 0 0
gi 0 0 0 0
gi 0 0 0 0
gi 0 0 0 0
gi 0 0 0 0
gi 0 0 0 0
gi 0 0 0 0
gi 0 0 0 0
gi 0 0 0 0
gi 0 0 0 0
gi 0 0 0 0
gi 0 0 0 0
gi 0 0 0 0
gi 0 0 0 0
gi 0 0 0 0
gi 0 0 0 0
gi 0 0 0 0
gw 0.0 0.0 0.0 0.0
gw 0.0 0.0 0.0 0.0
gw 0.0 0.0 0.0 0.0
gw 0.0 0.0 0.0 0.0
gw 0.0 0.0 0.0 0.0
gw 0.0 0.0 0.0 0.0
gw 0.0 0.0 0.0 0.0
gw 0.0 0.0 0.0 0.0
gw 0.0 0.0 0.0 0.0
gw 0.0 0.0 0.0 0.0
gw 0.0 0.0 0.0 0.0
gw 0.0 0.0 0.0 0.0
gw 0.0 0.0 0.0 0.0
gw 0.0 0.0 0.0 0.0
gw 0.0 0.0 0.0 0.0
gw 0.0 0.0 0.0 0.0
gw 0.0 0.0 0.0 0.0
gw 0.0 0.0 0.0 0.0
gw 0.0 0.0 0.0 0.0
gw 0.0 0.0 0.0 0.0
gw 0.0 0.0 0.0 0.0
gw 0.0 0.0 0.0 0.0
gw 0.0 0.0 0.0 0.0
gw 0.0 0.0 0.0 0.0
gw 0.0 0.0 0.0 0.0
gw 0.0 0.0 0.0 0.0
gw 0.0 0.0 0.0 0.0
gw 0.0 0.0 0.0 0.0
gw 0.0 0.0 0.0 0.0
gw 0.0 0.0 0.0 0.0
gw 0.0 0.0 0.0 0.0
gw 0.0 0.0 0.0 0.0
gw 0.0 0.0 0.0 0.0
gw 0.0 0.0 0.0 0.0
gw 0.0 0.0 0.0 0.0
gw 0.0 0.0 0.0 0.0
gw 0.0 0.0 0.0 0.0
gw 0.0 0.0 0.0 0.0
gw 0.0 0.0 0.0 0.0
gw 0.0 0.0 0.0 0.0
gw 0.0 0.0 0.0 0.0
gw 0.0 0.0 0.0 0.0
gw 0.0 0.0 0.0 0.0
gw 0.0 0.0 0.0 0.0
gw 0.0 0.0 0.0 0.0
gw 0.0 0.0 0.0 0.0
gw 0.0 0.0 0.0 0.0
gw 0.0 0.0 0.0 0.0
gw 0.0 0.0 0.0 0.0
gw 0.0 0.0 0.0 0.0
gw 0.0 0.0 0.0 0.0
gw 0.0 0.0 0.0 0.0
gw 0.0 0.0 0.0 0.0
gw 0.0 0.0 0.0 0.0
vt 0.4476 0.6911
vt 0.2773 0.6911
vt 0.2773 0.6742
vt 0.4476 0.6742
vt 0.4453 0.6933
vt 0.2795 0.6933
vt 0.5504 0.8881
vt 0.5337 0.8881
vt 0.5337 0.9084
vt 0.5526 0.9084
vt 0.6076 0.8897
vt 0.6053 0.91
vt 0.7614 0.91
vt 0.7592 0.8897
vt 0.5892 0.9737
vt 0.7775 0.9737
vt 0.7776 0.96
vt 0.5891 0.96
vt 0.7937 0.9733
vt 0.8287 0.9733
vt 0.8287 0.9596
vt 0.7936 0.9596
vt 0.9865 0.7672
vt 0.9619 0.7672
vt 0.9632 0.7791
vt 0.9959 0.7791
vt 0.0112 0.7672
vt 0.0111 0.779
vt 0.2524 0.779
vt 0.2525 0.7672
vt 0.5546 0.882
vt 0.5337 0.882
vt 0.6034 0.8836
vt 0.7634 0.8836
vt 0.5687 0.9721
vt 0.5337 0.9721
vt 0.5337 0.979
vt 0.5741 0.979
vt 0.5839 0.9806
vt 0.7829 0.9806
vt 0.5337 0.9859
vt 0.5685 0.9859
vt 0.5894 0.9875
vt 0.7773 0.9875
vt 0.5597 0.9367
vt 0.5337 0.9367
vt 0.5337 0.9584
vt 0.5688 0.9584
vt 0.5982 0.9383
vt 0.7685 0.9383
vt 0.605 0.8907
vt 0.6028 0.9094
vt 0.8073 0.909
vt 0.8098 0.9096
vt 0.8121 0.8892
vt 0.8095 0.8902
vt 0.5867 0.9726
vt 0.5865 0.9593
vt 0.7912 0.9721
vt 0.791 0.9589
vt 0.6007 0.8862
vt 0.8079 0.8832
vt 0.8052 0.8857
vt 0.0079 0.7672
vt 0.0078 0.7789
vt 0.2558 0.7672
vt 0.2559 0.779
vt 0.5815 0.9806
vt 0.786 0.9801
vt 0.7884 0.9801
vt 0.5871 0.99
vt 0.7916 0.9896
vt 0.7939 0.987
vt 0.5957 0.9372
vt 0.8027 0.9379
vt 0.8002 0.9367
vt 0.1674 0.876
vt 0.1655 0.8746
vt 0.0109 0.8746
vt 0.0091 0.8976
vt 0.0091 0.876
vt 0.1674 0.8976
vt 0.8287 0.9096
vt 0.8287 0.8892
vt 0.2874 0.779
vt 0.2803 0.7672
vt 0.8287 0.8832
vt 0.8287 0.9801
vt 0.8287 0.987
vt 0.8287 0.9379
vn 0.0 -1.0 -0.0
vn 0.0 -1.0 0.0
vn 0.0 -1.0 0.0
vn 0.8519 0.3925 0.3468
vn 0.9502 0.3116 0.0
vn 0.9732 -0.23 0.0
vn 0.8738 -0.2937 0.3876
vn 0.2732 0.3543 0.8943
vn 0.3221 -0.2664 0.9085
vn -0.322 -0.2664 0.9085
vn -0.2731 0.3543 0.8944
vn 0.2669 -0.4559 0.8491
vn -0.2668 -0.4559 0.8491
vn -0.3578 -0.2715 0.8935
vn 0.3578 -0.2715 0.8935
vn -0.8 -0.5006 0.3306
vn -0.9159 -0.4015 0.0
vn -0.9678 -0.2516 0.0
vn -0.8657 -0.2827 0.4132
vn 0.3223 -0.9398 0.1133
vn 0.3197 -0.9475 0.0001
vn 0.9972 -0.0742 0.0
vn 0.889 -0.0601 0.454
vn 0.084 -0.9306 0.3564
vn 0.4114 -0.0637 0.9092
vn -0.4114 -0.0637 0.9092
vn -0.0839 -0.9306 0.3564
vn 0.8 -0.5007 0.3306
vn 0.9158 -0.4015 0.0
vn 1.0 -0.0 0.0
vn 0.8896 0.0025 0.4567
vn 0.4138 0.0031 0.9103
vn -0.4139 0.0031 0.9103
vn 0.3637 0.9315 0.0
vn 0.3667 0.9213 0.1296
vn 0.0968 0.9109 0.4011
vn -0.0967 0.9109 0.4011
vn 0.7955 -0.4977 0.3457
vn 0.9142 -0.4053 0.0
vn 0.9678 -0.2516 0.0
vn 0.8657 -0.2827 0.4132
vn 0.2907 -0.4578 0.8402
vn -0.2907 -0.4578 0.8402
vn -0.8738 -0.2937 0.3876
vn -0.8518 0.3926 0.3469
vn -0.8889 -0.0601 0.4541
vn -0.3223 -0.9398 0.1133
vn -0.8897 0.0025 0.4566
vn -0.3667 0.9213 0.1296
vn -0.7955 -0.4977 0.3457
vn -0.3637 0.9315 0.0
vn -0.9732 -0.23 0.0
vn -0.9502 0.3116 0.0
vn -0.9972 -0.0742 0.0
vn -0.3196 -0.9475 0.0
vn -1.0 -0.0 0.0
vn -0.9142 -0.4053 0.0
vtan 1.0 0.0 0.0
vtan -0.3149 -0.1451 0.938
vtan 0.0 0.0 1.0
vtan -0.3674 0.1235 0.9218
vtan -0.9617 0.1216 0.2456
vtan -0.9467 -0.0832 0.3113
vtan -0.9467 0.0906 -0.309
vtan -0.962 -0.1006 -0.2539
vtan -0.9637 -0.1347 0.2306
vtan -0.9637 0.1262 -0.2351
vtan -0.9338 0.104 -0.3423
vtan -0.9336 -0.1227 0.3365
vtan -0.3052 -0.1348 -0.9427
vtan 0.0 0.0 -1.0
vtan -0.3941 -0.1243 -0.9106
vtan -0.0367 0.1071 0.9936
vtan -0.0 0.0001 1.0
vtan -0.453 0.0306 0.891
vtan -0.9632 0.0158 0.2683
vtan -0.9112 -0.0044 0.412
vtan -0.911 -0.0037 -0.4124
vtan -0.9632 -0.0159 -0.2683
vtan -0.453 0.0306 0.891
vtan -0.8669 0.2807 0.4119
vtan -0.9115 0.0287 -0.4104
vtan -0.2803 0.1754 0.9438
vtan -0.4567 -0.0013 0.8896
vtan -0.9103 0.0147 0.4137
vtan -0.9103 -0.0014 -0.4139
vtan -0.0 -0.0 1.0
vtan -0.0479 -0.1204 0.9916
vtan -0.9939 0.1098 -0.0096
vtan -0.9953 -0.0885 -0.039
vtan -0.2931 0.1834 0.9383
vtan -0.3928 0.1283 0.9107
vtan -0.9568 -0.149 0.2498
vtan -0.9568 0.1391 -0.2552
vtan -0.5157 0.5131 0.6861
vtan -0.4734 -0.3319 0.8159
vtan -0.8806 -0.268 -0.3907
vtan -0.3754 -0.0994 -0.9215
vtan -0.3027 0.1717 -0.9375
vtan -0.7382 0.519 -0.431
vtan -0.5724 -0.4719 0.6705
vtan -0.4927 -0.3351 0.8031
vtan -0.7222 -0.4888 -0.4894
vtan -0.843 -0.3176 -0.4341
vtan -0.2554 0.7579 0.6004
vtan -0.4512 0.2848 -0.8457
vtan -0.7286 0.6223 -0.2861
vtan -0.7153 -0.1634 0.6794
vtan -0.4566 -0.0402 0.8887
vtan -0.3652 0.013 -0.9308
vtan -0.455 0.0029 -0.8905
vtan -0.4567 0.001 0.8896
vtan -0.9098 0.033 -0.4138
vtan -0.4566 -0.0001 -0.8897
vtan -0.9243 0.3449 0.1635
vtan -0.1909 0.3786 -0.9057
vtan -0.1171 0.0925 -0.9888
vtan -0.5872 -0.492 0.6428
vtan -0.3015 -0.1698 -0.9382
vtan -0.7041 -0.4922 -0.5118
vtan -0.9303 -0.3632 -0.0511
vtan -0.9953 0.0902 0.0352
vtan -0.9315 0.3637 -0.0005
vtan -0.9302 0.3652 0.0357
vtan -0.9315 -0.3637 0.0
vtan -0.0 0.0 -1.0
vtan -0.0001 0.0 -1.0
vtan -0.0 -0.0 -1.0
f 16/0/0/0 43/1/0/0 51/2/0/0 
f 16/0/1/0 51/2/1/0 17/3/1/0 
f 43/1/2/0 16/0/2/0 20/4/2/0 
f 43/1/1/0 20/4/1/0 23/5/1/0 
f 0/6/3/1 1/7/4/2 2/8/5/2 
f 0/6/3/1 2/8/5/2 3/9/6/3 
f 4/10/7/4 5/11/8/5 6/12/9/6 
f 4/10/7/4 6/12/9/6 7/13/10/7 
f 8/14/11/8 9/15/12/9 10/16/13/10 
f 8/14/11/8 10/16/13/10 11/17/14/11 
f 12/18/15/12 13/19/16/13 14/20/17/13 
f 12/18/15/12 14/20/17/13 15/21/18/14 
f 16/22/19/15 17/23/20/16 18/24/21/2 
f 16/22/19/15 18/24/21/2 19/25/22/17 
f 20/26/23/18 21/27/24/19 22/28/25/20 
f 20/26/23/18 22/28/25/20 23/29/26/21 
f 0/6/3/1 19/30/22/22 18/31/21/2 
f 0/6/3/1 18/31/21/2 1/7/4/2 
f 21/32/24/23 4/10/7/4 7/13/10/7 
f 21/32/24/23 7/13/10/7 22/33/25/24 
f 24/34/27/25 25/35/28/2 26/36/29/2 
f 24/34/27/25 26/36/29/2 27/37/30/26 
f 8/14/11/8 28/38/31/27 29/39/32/28 
f 8/14/11/8 29/39/32/28 9/15/12/9 
f 26/36/29/2 30/40/33/29 31/41/34/30 
f 26/36/29/2 31/41/34/30 27/37/30/26 
f 28/38/31/27 32/42/35/31 33/43/36/32 
f 28/38/31/27 33/43/36/32 29/39/32/28 
f 34/44/37/33 35/45/38/2 36/46/39/2 
f 34/44/37/33 36/46/39/2 37/47/40/34 
f 38/48/41/35 11/17/14/11 10/16/13/10 
f 38/48/41/35 10/16/13/10 39/49/42/36 
f 3/9/6/3 2/8/5/2 35/45/38/2 
f 3/9/6/3 35/45/38/2 34/44/37/33 
f 5/11/8/5 38/48/41/35 39/49/42/36 
f 5/11/8/5 39/49/42/36 6/12/9/6 
f 0/50/3/37 3/51/6/38 5/11/8/5 
f 0/50/3/37 5/11/8/5 4/10/7/4 
f 6/52/9/39 40/53/43/40 41/54/44/41 
f 6/52/9/39 41/54/44/41 7/55/10/42 
f 24/56/27/43 8/14/11/8 11/17/14/11 
f 24/56/27/43 11/17/14/11 37/57/40/44 
f 9/58/12/45 12/18/15/12 15/21/18/14 
f 9/58/12/45 15/21/18/14 10/59/13/46 
f 0/50/3/37 4/10/7/4 21/32/24/23 
f 0/50/3/37 21/32/24/23 19/60/22/47 
f 41/54/44/41 42/61/45/48 22/62/25/49 
f 41/54/44/41 22/62/25/49 7/55/10/42 
f 21/27/24/19 20/26/23/18 16/63/19/50 
f 21/27/24/19 16/63/19/50 19/64/22/51 
f 43/65/46/52 23/29/26/21 22/28/25/20 
f 43/65/46/52 22/28/25/20 42/66/45/53 
f 24/56/27/43 27/67/30/54 28/38/31/27 
f 24/56/27/43 28/38/31/27 8/14/11/8 
f 29/68/32/55 44/69/47/56 12/18/15/12 
f 29/68/32/55 12/18/15/12 9/58/12/45 
f 31/70/34/57 32/42/35/31 28/38/31/27 
f 31/70/34/57 28/38/31/27 27/67/30/54 
f 29/68/32/55 33/71/36/58 45/72/48/59 
f 29/68/32/55 45/72/48/59 44/69/47/56 
f 34/73/37/60 37/57/40/44 11/17/14/11 
f 34/73/37/60 11/17/14/11 38/48/41/35 
f 10/59/13/46 15/21/18/14 46/74/49/61 
f 10/59/13/46 46/74/49/61 39/75/42/62 
f 3/51/6/38 34/73/37/60 38/48/41/35 
f 3/51/6/38 38/48/41/35 5/11/8/5 
f 39/75/42/62 46/74/49/61 40/53/43/40 
f 39/75/42/62 40/53/43/40 6/52/9/39 
f 45/76/48/63 33/77/36/32 32/78/35/64 
f 45/76/48/63 32/78/35/64 30/79/33/65 
f 32/78/35/64 31/80/34/66 30/79/33/65 
f 47/81/50/67 45/76/48/63 30/79/33/65 
f 41/54/44/41 40/53/43/40 48/82/51/13 
f 41/54/44/41 48/82/51/13 49/83/52/13 
f 24/34/27/25 37/47/40/34 36/46/39/2 
f 24/34/27/25 36/46/39/2 25/35/28/2 
f 43/65/46/52 42/66/45/53 50/84/53/68 
f 43/65/46/52 50/84/53/68 51/85/54/69 
f 50/86/53/70 42/61/45/48 41/54/44/41 
f 50/86/53/70 41/54/44/41 49/83/52/13 
f 12/18/15/12 44/69/47/56 52/87/55/13 
f 12/18/15/12 52/87/55/13 13/19/16/13 
f 52/87/55/13 44/69/47/56 45/72/48/59 
f 52/87/55/13 45/72/48/59 47/88/50/13 
f 46/74/49/61 15/21/18/14 14/20/17/13 
f 46/74/49/61 14/20/17/13 53/89/56/13 
f 40/53/43/40 46/74/49/61 53/89/56/13 
f 40/53/43/40 53/89/56/13 48/82/51/13 
