v -641.4552 133.7513 -219.7005
v -617.764 213.3199 -219.7005
v -621.2418 214.3549 -219.7005
v -644.9331 134.7863 -219.7005
gi 0 0 0 0
gi 0 0 0 0
gi 0 0 0 0
gi 0 0 0 0
gw 0.0 0.0 0.0 0.0
gw 0.0 0.0 0.0 0.0
gw 0.0 0.0 0.0 0.0
gw 0.0 0.0 0.0 0.0
vt 0.677 0.0
vt 0.6789 3.1013
vt 0.1485 3.1033
vt 0.1467 0.0
vn 0.0 -0.0 1.0
vn 0.0 -0.0 1.0
vn 0.0 -0.0 1.0
vn 0.0 -0.0 1.0
vtan 0.9586 -0.2848 -0.0
vtan 0.9626 -0.2711 -0.0
vtan 0.9624 -0.2715 -0.0
vtan 0.9585 -0.2852 -0.0
f 0/0/0/0 1/1/1/1 2/2/2/2 
f 0/0/0/0 2/2/2/2 3/3/3/3 
