v -1036.4338 692.2729 -9.5513
v -1036.7993 692.2729 -9.7027
v -1037.2 692.2729 -10.1032
v -1037.3513 692.2729 -59.7196
v -1037.3513 692.2729 -11.1238
v -1037.3513 692.2729 -58.705
v -1037.3513 692.2729 -10.4687
v -1037.2 692.2729 -60.0851
v -1036.7993 692.2729 -60.4856
v -987.0918 692.2729 -60.637
v -1036.4338 692.2729 -60.637
v -1035.2927 692.2729 -60.637
v -987.9341 692.2729 -60.637
v -986.7261 692.2729 -60.4856
v -986.3257 692.2729 -60.0851
v -986.1743 692.2729 -10.4687
v -986.1743 692.2729 -58.7223
v -986.1743 692.2729 -11.657
v -986.1743 692.2729 -59.7196
v -986.3257 692.2729 -10.1032
v -986.7261 692.2729 -9.7027
v -988.2012 692.2729 -9.5513
v -1036.0444 692.2729 -9.5513
v -987.0918 692.2729 -9.5513
v -986.1743 699.6118 -59.7196
v -986.3257 699.6118 -60.0851
v -986.7261 699.6118 -60.4856
v -1036.4338 699.6118 -60.637
v -987.9341 699.6118 -60.637
v -1035.2927 699.6118 -60.637
v -987.0918 699.6118 -60.637
v -1036.7993 699.6118 -60.4856
v -1037.2 699.6118 -60.0851
v -1037.3513 699.6118 -10.4687
v -1037.3513 699.6118 -58.705
v -1037.3513 699.6118 -11.1238
v -1037.3513 699.6118 -59.7196
v -1037.2 699.6118 -10.1032
v -1036.7993 699.6118 -9.7027
v -987.0918 699.6118 -9.5513
v -1036.0444 699.6118 -9.5513
v -988.2012 699.6118 -9.5513
v -1036.4338 699.6118 -9.5513
v -986.7261 699.6118 -9.7027
v -986.3257 699.6118 -10.1032
v -986.1743 699.6118 -11.657
v -986.1743 699.6118 -58.7223
v -986.1743 699.6118 -10.4687
v -987.032 692.5733 -9.251
v -987.032 697.645 -9.251
v -988.144 695.9443 -9.251
v -988.144 694.2437 -9.251
v -1037.6516 692.5733 -10.409
v -1037.6516 697.645 -10.409
v -1037.6516 695.9443 -11.0657
v -1037.6516 694.2437 -11.0657
v -1036.9695 692.5733 -9.4481
v -1036.9695 699.3115 -9.4481
v -1037.4546 699.3115 -9.9331
v -1037.4546 692.5733 -9.9331
v -986.5562 692.5733 -9.4481
v -986.071 692.5733 -9.9331
v -986.071 699.3115 -9.9331
v -986.5562 699.3115 -9.4481
v -1037.4546 692.5733 -60.2552
v -1037.4546 699.3115 -60.2552
v -1036.9695 699.3115 -60.7402
v -1036.9695 692.5733 -60.7402
v -1036.4937 697.645 -9.251
v -1036.4937 699.3115 -9.251
v -1036.4937 692.5733 -9.251
v -987.032 699.3115 -9.251
v -1037.6516 692.5733 -59.7793
v -1037.6516 697.645 -59.7793
v -1037.6516 699.3115 -10.409
v -985.874 692.5733 -10.409
v -985.874 697.645 -10.409
v -985.874 699.3115 -10.409
v -1036.4937 697.645 -60.9373
v -1036.4937 692.5733 -60.9373
v -1037.6516 692.5733 -58.7623
v -1036.103 692.5733 -9.251
v -988.144 699.3115 -9.251
v -1037.6516 699.3115 -11.0657
v -1036.4937 699.3115 -60.9373
v -1037.6516 699.3115 -59.7793
v -1035.3496 695.9443 -60.9373
v -1035.3496 694.2437 -60.9373
v -985.874 692.5733 -59.7793
v -985.874 697.645 -59.7793
v -985.874 695.9443 -58.7796
v -985.874 694.2437 -58.7796
v -986.5562 692.5733 -60.7402
v -986.5562 699.3115 -60.7402
v -986.071 699.3115 -60.2552
v -986.071 692.5733 -60.2552
v -987.032 697.645 -60.9373
v -987.032 699.3115 -60.9373
v -987.032 692.5733 -60.9373
v -985.874 699.3115 -59.7793
v -985.874 692.5733 -11.6002
v -987.8765 692.5733 -60.9373
v -1035.3496 699.3115 -60.9373
v -985.874 699.3115 -58.7796
v -1036.103 697.645 -9.251
v -1037.6516 697.645 -58.7623
v -1037.6516 699.3115 -58.7623
v -987.8765 697.645 -60.9373
v -985.874 697.645 -11.6002
v -988.144 692.5733 -9.251
v -988.5615 694.2437 -9.251
v -1036.103 699.3115 -9.251
v -988.144 697.645 -9.251
v -1035.5198 697.645 -9.251
v -1036.103 695.9443 -9.251
v -1035.5198 695.9443 -11.5996
v -1036.103 694.2437 -9.251
v -1037.6516 694.2437 -58.7623
v -1037.6516 692.5733 -11.0657
v -1037.6516 697.645 -58.3088
v -1037.6516 695.9443 -58.7623
v -1035.9639 695.9443 -58.3088
v -1037.6516 694.2437 -11.6939
v -1037.6516 697.645 -11.0657
v -987.8765 694.2437 -60.9373
v -1035.3496 692.5733 -60.9373
v -987.8765 699.3115 -60.9373
v -988.3699 697.645 -60.9373
v -987.8765 695.9443 -60.9373
v -988.3699 695.9443 -59.2202
v -1034.8052 694.2437 -60.9373
v -1035.3496 697.645 -60.9373
v -985.874 694.2437 -11.6002
v -985.874 692.5733 -58.7796
v -985.874 699.3115 -11.6002
v -985.874 697.645 -12.1671
v -985.874 695.9443 -11.6002
v -987.9971 695.9443 -12.1671
v -985.874 694.2437 -58.3431
v -985.874 697.645 -58.7796
v -988.5615 695.9443 -11.5996
v -1035.9639 695.9443 -11.6939
v -1034.8052 695.9443 -59.2202
v -987.9971 695.9443 -58.3431
v -985.874 697.645 -58.3431
v -985.874 694.2437 -12.1671
v -1034.8052 697.645 -60.9373
v -988.3699 694.2437 -60.9373
v -1037.6516 697.645 -11.6939
v -1037.6516 694.2437 -58.3088
v -988.5615 697.645 -9.251
v -1035.5198 694.2437 -9.251
vt 0.6734 0.6622
vt 0.6713 0.6631
vt 0.6687 0.6656
vt 0.6678 0.9769
vt 0.6678 0.672
vt 0.6678 0.9705
vt 0.6678 0.6679
vt 0.6687 0.9792
vt 0.6713 0.9817
vt 0.9831 0.9826
vt 0.6736 0.9826
vt 0.6807 0.9826
vt 0.9778 0.9826
vt 0.9853 0.9817
vt 0.9879 0.9792
vt 0.9888 0.6679
vt 0.9888 0.9706
vt 0.9888 0.6754
vt 0.9888 0.9769
vt 0.9853 0.6631
vt 0.9879 0.6656
vt 0.6758 0.6622
vt 0.9761 0.6621
vt 0.9831 0.6621
vt 0.5631 0.6536
vt 0.5626 0.6526
vt 0.5616 0.6515
vt 0.4276 0.6511
vt 0.5583 0.6511
vt 0.4307 0.6511
vt 0.5606 0.6511
vt 0.4266 0.6515
vt 0.4256 0.6526
vt 0.4252 0.7863
vt 0.4252 0.6563
vt 0.4252 0.7845
vt 0.4252 0.6536
vt 0.4256 0.7873
vt 0.4266 0.7884
vt 0.5606 0.7888
vt 0.4286 0.7888
vt 0.5577 0.7888
vt 0.4276 0.7888
vt 0.5616 0.7884
vt 0.5626 0.7873
vt 0.5631 0.7831
vt 0.5631 0.6563
vt 0.5631 0.7863
vt 0.0143 0.6233
vt 0.045 0.6233
vt 0.0347 0.6166
vt 0.0244 0.6166
vt 0.0143 0.3152
vt 0.045 0.3152
vt 0.0347 0.3112
vt 0.0244 0.3112
vt 0.0143 0.321
vt 0.0551 0.321
vt 0.0551 0.3181
vt 0.0143 0.3181
vt 0.0143 0.6262
vt 0.0143 0.6291
vt 0.0551 0.6291
vt 0.0551 0.6262
vt 0.0143 0.0134
vt 0.0551 0.0134
vt 0.0551 0.0105
vt 0.0143 0.0105
vt 0.045 0.3239
vt 0.0551 0.3239
vt 0.0143 0.3239
vt 0.0551 0.6233
vt 0.0143 0.0163
vt 0.045 0.0163
vt 0.0551 0.3152
vt 0.0143 0.632
vt 0.045 0.632
vt 0.0551 0.632
vt 0.045 0.0076
vt 0.0143 0.0076
vt 0.0124 0.0165
vt 0.0124 0.0226
vt 0.0143 0.0224
vt 0.0125 0.3241
vt 0.0125 0.3264
vt 0.0143 0.3262
vt 0.0569 0.6231
vt 0.0569 0.6164
vt 0.0551 0.6166
vt 0.057 0.3151
vt 0.057 0.3112
vt 0.0551 0.3112
vt 0.0125 0.6262
vt 0.0125 0.6292
vt 0.0126 0.318
vt 0.0126 0.321
vt 0.0125 0.0104
vt 0.0122 0.0134
vt 0.0572 0.6292
vt 0.0569 0.6262
vt 0.0568 0.321
vt 0.057 0.318
vt 0.0572 0.0134
vt 0.0572 0.0104
vt 0.0126 0.623
vt 0.0576 0.0079
vt 0.0551 0.0076
vt 0.0126 0.6317
vt 0.0125 0.3152
vt 0.0126 0.0079
vt 0.0571 0.6317
vt 0.0569 0.3241
vt 0.0551 0.0163
vt 0.0572 0.0163
vt 0.0347 0.6164
vt 0.0244 0.6164
vt 0.0347 0.3091
vt 0.0244 0.3091
vt 0.0124 0.0237
vt 0.0143 0.0235
vt 0.0125 0.3292
vt 0.0143 0.329
vt 0.0569 0.6162
vt 0.0551 0.6164
vt 0.057 0.3091
vt 0.0551 0.3091
vt 0.045 0.3262
vt 0.045 0.0224
vt 0.0551 0.0224
vt 0.045 0.329
vt 0.045 0.0235
vt 0.0143 0.6166
vt 0.0244 0.6141
vt 0.0126 0.6163
vt 0.0569 0.3265
vt 0.0551 0.3262
vt 0.045 0.6166
vt 0.045 0.3298
vt 0.0347 0.3262
vt 0.0347 0.3298
vt 0.0244 0.3262
vt 0.0244 0.0224
vt 0.0125 0.3112
vt 0.0143 0.3112
vt 0.0572 0.0225
vt 0.045 0.0252
vt 0.0347 0.0224
vt 0.0347 0.0252
vt 0.0244 0.3074
vt 0.045 0.3112
vt 0.0244 0.329
vt 0.0126 0.6161
vt 0.0143 0.6164
vt 0.0551 0.329
vt 0.0569 0.3292
vt 0.045 0.332
vt 0.0347 0.329
vt 0.0347 0.332
vt 0.0244 0.6131
vt 0.045 0.6164
vt 0.0244 0.0235
vt 0.0125 0.3091
vt 0.0143 0.3091
vt 0.0551 0.0235
vt 0.0572 0.0235
vt 0.045 0.0269
vt 0.0347 0.0235
vt 0.0347 0.0269
vt 0.0244 0.3065
vt 0.045 0.3091
vt 0.0347 0.6141
vt 0.0347 0.3074
vt 0.0347 0.6131
vt 0.0347 0.3065
vt 0.045 0.3065
vt 0.0244 0.0269
vt 0.045 0.6131
vt 0.0244 0.332
vt 0.045 0.3074
vt 0.0244 0.0252
vt 0.045 0.6141
vt 0.0244 0.3298
vn -0.0814 -0.9088 0.4093
vn -0.2318 -0.9088 0.3469
vn -0.347 -0.9087 0.2319
vn -0.4093 -0.9088 -0.0814
vn -0.3829 -0.9238 0.0
vn -0.3827 -0.9239 0.0
vn -0.4093 -0.9088 0.0814
vn -0.347 -0.9087 -0.2319
vn -0.2318 -0.9088 -0.347
vn 0.0814 -0.9088 -0.4093
vn -0.0814 -0.9088 -0.4093
vn 0.0 -0.9239 -0.3827
vn 0.0 -0.9238 -0.3828
vn 0.2319 -0.9087 -0.3471
vn 0.347 -0.9088 -0.2318
vn 0.4093 -0.9088 0.0813
vn 0.3828 -0.9238 0.0
vn 0.3827 -0.9239 0.0
vn 0.4093 -0.9088 -0.0814
vn 0.2319 -0.9087 0.347
vn 0.3469 -0.9088 0.2317
vn 0.0 -0.9238 0.3829
vn 0.0 -0.9237 0.383
vn 0.0814 -0.9088 0.4092
vn 0.4092 0.9088 -0.0814
vn 0.3468 0.9087 -0.2321
vn 0.2319 0.9088 -0.347
vn -0.0814 0.9088 -0.4092
vn 0.0 0.9239 -0.3827
vn -0.0 0.9239 -0.3827
vn 0.0813 0.9088 -0.4092
vn -0.2317 0.9087 -0.3472
vn -0.3469 0.9088 -0.2318
vn -0.4092 0.9088 0.0814
vn -0.3827 0.9239 0.0
vn -0.3827 0.9239 0.0
vn -0.4092 0.9088 -0.0814
vn -0.3469 0.9088 0.2318
vn -0.2318 0.9088 0.3469
vn 0.0814 0.9088 0.4092
vn 0.0 0.9239 0.3827
vn 0.0 0.9239 0.3827
vn -0.0814 0.9088 0.4092
vn 0.2318 0.9086 0.3473
vn 0.3469 0.9088 0.2317
vn 0.3827 0.9239 0.0
vn 0.3827 0.9239 0.0
vn 0.4092 0.9088 0.0814
vn 0.1812 -0.3709 0.9108
vn 0.1951 -0.0 0.9808
vn -0.5691 -0.0 0.8223
vn -0.2652 0.0651 0.962
vn -0.9108 -0.3709 0.1811
vn -0.9808 0.0 0.195
vn -0.8983 0.0 -0.4393
vn -0.9747 0.0774 -0.2096
vn -0.5159 -0.371 0.7721
vn -0.5159 0.371 0.7721
vn -0.7721 0.371 0.5159
vn -0.7722 -0.3709 0.5159
vn 0.5159 -0.3709 0.7722
vn 0.7722 -0.3709 0.5159
vn 0.7722 0.371 0.5159
vn 0.5158 0.371 0.7722
vn -0.7722 -0.3709 -0.5159
vn -0.7721 0.371 -0.5159
vn -0.5159 0.371 -0.7721
vn -0.5159 -0.3709 -0.7722
vn -0.1951 0.0 0.9808
vn -0.1812 0.371 0.9108
vn -0.1812 -0.371 0.9108
vn 0.1812 0.3711 0.9108
vn -0.9108 -0.3709 -0.1811
vn -0.9808 0.0 -0.195
vn -0.9108 0.371 0.1811
vn 0.9109 -0.3709 0.181
vn 0.9808 -0.0 0.1949
vn 0.9108 0.371 0.1811
vn -0.1951 0.0 -0.9808
vn -0.1812 -0.3709 -0.9108
vn -0.9239 -0.3826 0.0
vn 0.0 -0.3826 0.9239
vn 0.0 0.3827 0.9239
vn -0.9239 0.3827 0.0
vn -0.1812 0.371 -0.9108
vn -0.9108 0.371 -0.1811
vn 0.4734 0.0 -0.8809
vn 0.2249 0.072 -0.9717
vn 0.9108 -0.3709 -0.181
vn 0.9808 0.0 -0.195
vn 0.8358 0.0 0.549
vn 0.9641 0.066 0.2571
vn 0.5158 -0.3708 -0.7723
vn 0.5159 0.371 -0.7722
vn 0.7721 0.371 -0.5159
vn 0.7722 -0.3709 -0.5159
vn 0.1951 0.0 -0.9808
vn 0.1812 0.371 -0.9108
vn 0.1812 -0.3709 -0.9108
vn 0.9108 0.371 -0.181
vn 0.9239 -0.3827 0.0
vn 0.0 -0.3826 -0.9239
vn 0.0 0.3827 -0.9239
vn 0.9239 0.3827 0.0
vn 0.2414 -0.0828 0.9669
vn -0.9687 -0.0639 0.2397
vn -0.9239 0.3827 0.0
vn -0.2339 -0.0678 -0.9699
vn 0.9683 -0.079 -0.2371
vn 0.0 -0.3826 0.9239
vn -0.2844 0.3209 0.9034
vn 0.0 0.3827 0.9239
vn -0.2652 -0.0651 0.962
vn 0.2577 -0.3323 0.9073
vn 0.515 -0.0 0.8572
vn 0.4281 0.0 0.9037
vn 0.2414 0.0828 0.9669
vn -0.9687 0.0639 0.2397
vn -0.924 -0.3825 0.0
vn -0.9287 -0.2731 0.2509
vn -0.8624 0.0 0.5062
vn -0.9042 0.0 0.4271
vn -0.9344 0.2813 -0.2187
vn -0.9747 -0.0774 -0.2096
vn -0.2339 0.0678 -0.9699
vn 0.0 -0.3826 -0.9239
vn 0.0 0.3827 -0.9239
vn -0.2448 -0.278 -0.9289
vn -0.4932 -0.0 -0.8699
vn -0.4172 0.0 -0.9088
vn 0.2353 0.2805 -0.9306
vn 0.2249 -0.072 -0.9717
vn 0.9683 0.079 -0.2371
vn 0.9239 -0.3826 0.0
vn 0.9239 0.3827 0.0
vn 0.9149 -0.3158 -0.2513
vn 0.864 -0.0 -0.5036
vn 0.9069 0.0 -0.4213
vn 0.9114 0.3076 0.2735
vn 0.9641 -0.066 0.2571
vn -0.4649 -0.0 0.8853
vn -0.9258 -0.0 -0.378
vn 0.4027 0.0 -0.9153
vn 0.8915 -0.0 0.4529
vn 0.9114 -0.3076 0.2735
vn 0.9149 0.3158 -0.2513
vn 0.2353 -0.2805 -0.9306
vn -0.2448 0.278 -0.9289
vn -0.9344 -0.2812 -0.2187
vn -0.9287 0.2732 0.2509
vn -0.2844 -0.3209 0.9034
vn 0.2577 0.3323 0.9073
vtan 0.9967 -0.0717 0.0391 -1.0
vtan 0.9723 -0.2053 0.1118 -1.0
vtan 0.9378 -0.3333 0.0972 -1.0
vtan 0.9124 -0.4077 -0.0369 -1.0
vtan 0.9238 -0.3829 0.0024 -1.0
vtan 0.4312 -0.1786 0.8844 -1.0
vtan 0.9123 -0.4089 0.0221 -1.0
vtan 0.9378 -0.3327 -0.0994 -1.0
vtan 0.9728 -0.2162 -0.0834 -1.0
vtan 0.9967 0.0716 0.0391 -1.0
vtan 0.9967 -0.0742 -0.0334 -1.0
vtan 1.0 0.0 0.0 -1.0
vtan 1.0 0.0 0.0 -1.0
vtan 0.9723 0.2054 0.1119 -1.0
vtan 0.9378 0.3334 0.097 -1.0
vtan 0.9124 0.4077 -0.0368 -1.0
vtan 0.9223 0.3822 -0.0573 -1.0
vtan 0.3977 0.1647 0.9026 -1.0
vtan 0.9124 0.4067 0.0466 -1.0
vtan 0.9727 0.2164 -0.0835 -1.0
vtan 0.9378 0.3326 -0.0993 -1.0
vtan 1.0 -0.0 -0.0 -1.0
vtan 1.0 -0.0001 -0.0003 -1.0
vtan 0.9967 0.0742 -0.0334 -1.0
vtan 0.9125 -0.4077 0.035 -1.0
vtan 0.9379 -0.3377 0.0792 -1.0
vtan 0.9727 -0.2167 0.0825 -1.0
vtan 0.9967 0.0742 -0.0334 -1.0
vtan 1.0 0.0 -0.0 -1.0
vtan 0.9967 -0.0742 0.0334 -1.0
vtan 0.9725 0.2074 -0.1061 -1.0
vtan 0.9379 0.3383 -0.0773 -1.0
vtan 0.9125 0.4077 0.0349 -1.0
vtan 0.9229 0.3823 -0.045 -1.0
vtan 0.1344 0.0557 -0.9894 -1.0
vtan 0.9099 0.4131 0.0373 -1.0
vtan 0.9379 0.3379 0.0791 -1.0
vtan 0.9728 0.2166 0.0824 -1.0
vtan 0.9967 -0.0742 -0.0334 -1.0
vtan 1.0 -0.0 -0.0 -1.0
vtan 0.9967 0.0742 0.0334 -1.0
vtan 0.9725 -0.2075 -0.1061 -1.0
vtan 0.9379 -0.3383 -0.0772 -1.0
vtan 0.9232 -0.3824 0.0369 -1.0
vtan 0.4772 -0.1977 -0.8563 -1.0
vtan 0.9116 -0.411 0.0055 -1.0
vtan 0.0668 0.9286 0.3649 -1.0
vtan 0.0 1.0 0.0 -1.0
vtan -0.0 1.0 -0.0 -1.0
vtan 0.0173 0.9979 -0.0627 -1.0
vtan -0.3578 0.9282 0.1019 -1.0
vtan 0.0 1.0 0.0 -1.0
vtan 0.0 1.0 -0.0 -1.0
vtan 0.0757 0.997 0.0163 -1.0
vtan -0.1688 0.9277 0.333 -1.0
vtan 0.2331 0.9281 -0.2903 -1.0
vtan 0.3403 0.9271 -0.1574 -1.0
vtan -0.3029 0.9286 0.2144 -1.0
vtan 0.2328 0.9282 0.2903 -1.0
vtan 0.3296 0.928 0.1738 -1.0
vtan -0.3029 0.9286 -0.2144 -1.0
vtan -0.1686 0.9277 -0.3331 -1.0
vtan -0.3329 0.9278 -0.1686 -1.0
vtan 0.2903 0.9282 0.233 -1.0
vtan 0.174 0.9279 0.3297 -1.0
vtan -0.2145 0.9286 -0.3028 -1.0
vtan 0.0 1.0 -0.0 -1.0
vtan 0.0796 0.9286 -0.3625 -1.0
vtan -0.032 0.9279 0.3716 -1.0
vtan -0.0324 0.9278 -0.3716 -1.0
vtan -0.3715 0.9279 -0.0322 -1.0
vtan 0.0 1.0 0.0 -1.0
vtan 0.3678 0.9284 -0.0524 -1.0
vtan 0.3506 0.9268 0.1346 -1.0
vtan 0.0 1.0 0.0 -1.0
vtan -0.3451 0.925 -0.1591 -1.0
vtan 0.0 1.0 0.0 -1.0
vtan -0.1592 0.925 -0.345 -1.0
vtan -0.8923 0.4173 -0.1723 -1.0
vtan -0.9222 0.382 -0.0609 -1.0
vtan -0.3824 0.9234 -0.0323 -1.0
vtan -0.1718 0.4173 0.8924 -1.0
vtan -0.0638 0.3821 0.9219 -1.0
vtan -0.0337 0.9234 0.3823 -1.0
vtan -0.1726 0.4172 -0.8923 -1.0
vtan -0.0612 0.382 -0.9221 -1.0
vtan -0.0304 0.9234 -0.3825 -1.0
vtan 0.8855 0.417 -0.205 -1.0
vtan 0.914 0.3786 -0.1458 -1.0
vtan 0.3818 0.9216 -0.0699 -1.0
vtan 0.4363 0.416 0.7979 -1.0
vtan 0.7502 0.4171 0.513 -1.0
vtan -0.8061 0.4154 0.4216 -1.0
vtan -0.5507 0.4166 0.7233 -1.0
vtan -0.4432 0.4162 -0.794 -1.0
vtan -0.7234 0.4167 -0.5505 -1.0
vtan -0.7941 0.4161 -0.443 -1.0
vtan -0.5501 0.4169 -0.7236 -1.0
vtan 0.4416 0.416 -0.7949 -1.0
vtan 0.7486 0.4172 -0.5152 -1.0
vtan 0.7885 0.4165 0.4525 -1.0
vtan 0.5131 0.4174 0.75 -1.0
vtan 0.0723 0.4149 0.907 -1.0
vtan 0.3545 0.4101 0.8403 -1.0
vtan 0.1348 0.9267 0.3507 -1.0
vtan 0.8404 0.4102 0.3542 -1.0
vtan -0.8914 0.4173 0.1766 -1.0
vtan -0.291 0.4144 -0.8623 -1.0
vtan -0.8624 0.4144 -0.2908 -1.0
vtan 0.096 0.4158 -0.9044 -1.0
vtan 0.3568 0.9281 0.1068 -1.0
vtan 0.8924 0.4172 0.1721 -1.0
vtan -0.014 0.927 -0.3747 -1.0
vtan 0.0 1.0 0.0 -1.0
vtan -0.0162 0.9974 0.0702 -1.0
vtan 0.3578 0.9282 -0.1019 -1.0
vtan -0.0 1.0 0.0 -1.0
vtan -0.0637 0.9978 -0.017 -1.0
vtan 0.1685 0.9278 -0.3329 -1.0
vtan -0.2328 0.9282 0.2903 -1.0
vtan -0.3403 0.9271 0.1574 -1.0
vtan 0.3028 0.9286 -0.2144 -1.0
vtan -0.08 0.9286 0.3624 -1.0
vtan 0.0324 0.9279 -0.3714 -1.0
vtan -0.3678 0.9284 0.0524 -1.0
vtan 0.9044 0.4159 0.0955 -1.0
vtan 0.9222 0.382 0.0599 -1.0
vtan 0.3825 0.9235 0.03 -1.0
vtan 0.3712 0.928 0.0335 -1.0
vtan 0.1726 0.4173 -0.8922 -1.0
vtan 0.0622 0.382 -0.9221 -1.0
vtan 0.0319 0.9235 -0.3824 -1.0
vtan 0.0955 0.4158 0.9044 -1.0
vtan 0.0603 0.382 0.9222 -1.0
vtan 0.0308 0.9234 0.3825 -1.0
vtan 0.0335 0.9279 0.3713 -1.0
vtan -0.886 0.417 0.2029 -1.0
vtan -0.9143 0.3787 0.1438 -1.0
vtan -0.3818 0.9216 0.0693 -1.0
vtan 0.8061 0.4153 -0.4215 -1.0
vtan 0.5502 0.4168 -0.7236 -1.0
vtan -0.4412 0.4162 0.7951 -1.0
vtan -0.7485 0.4173 0.5153 -1.0
vtan 0.8914 0.4173 -0.1765 -1.0
vtan -0.1063 0.4161 0.9031 -1.0
vtan 0.02 0.9966 0.0803 -1.0
vtan -0.0621 0.998 0.0154 -1.0
vtan 0.3821 0.9224 0.0556 -1.0
vtan -0.0159 0.9977 -0.0659 -1.0
vtan 0.0 1.0 0.0 -1.0
vtan 0.0768 0.9969 -0.0188 -1.0
vtan -0.3638 0.9286 -0.0723 -1.0
vtan 0.0093 0.9239 0.3826 -1.0
vtan 0.0105 0.9433 -0.3318 -1.0
vtan 0.0194 0.3829 0.9236 -1.0
vtan 0.0241 0.3826 -0.9236 -1.0
vtan 0.0191 0.9237 -0.3827 -1.0
vtan -0.0173 0.9979 0.0627 -1.0
vtan 0.0116 0.94 0.3409 -1.0
vtan 0.0 1.0 -0.0 -1.0
vtan 0.0 1.0 -0.0 -1.0
vtan -0.02 0.9966 -0.0803 -1.0
vtan 0.0621 0.998 -0.0154 -1.0
vtan -0.9138 0.3788 0.1464 -1.0
vtan -0.3815 0.9215 0.0734 -1.0
vtan 0.9189 0.3806 0.1036 -1.0
vtan -0.2792 0.9602 0.0119 -1.0
vtan 0.0 1.0 0.0 -1.0
vtan 0.0 1.0 0.0 -1.0
vtan 0.2865 0.958 0.0081 -1.0
vtan -0.0757 0.997 -0.0163 -1.0
vtan 0.0159 0.9977 0.0659 -1.0
vtan -0.0187 0.3826 -0.9237 -1.0
vtan -0.0097 0.9239 -0.3826 -1.0
vtan -0.0317 0.9234 0.3825 -1.0
vtan -0.0624 0.3819 0.9221 -1.0
vtan -0.0103 0.9587 -0.2842 -1.0
vtan -0.0 1.0 -0.0 -1.0
vtan -0.0 1.0 0.0 -1.0
vtan -0.0094 0.9581 0.2864 -1.0
vtan -0.0545 0.4141 -0.9086 -1.0
vtan 0.0162 0.9974 -0.0701 -1.0
vtan -0.0767 0.9969 0.0188 -1.0
vtan 0.9141 0.3788 -0.1445 -1.0
vtan 0.3816 0.9216 -0.0716 -1.0
vtan -0.3817 0.9215 -0.0712 -1.0
vtan -0.9143 0.3788 -0.1433 -1.0
vtan -0.8916 0.4173 -0.1759 -1.0
vtan 0.3241 0.946 -0.0088 -1.0
vtan -0.0 1.0 -0.0 -1.0
vtan -0.0 1.0 -0.0 -1.0
vtan -0.3171 0.9483 -0.01 -1.0
vtan 0.0637 0.9978 0.017 -1.0
vtan -0.0 1.0 -0.0 -1.0
vtan -0.0 1.0 -0.0 -1.0
vtan 0.0 1.0 0.0 -1.0
vtan -0.0 1.0 0.0 -1.0
vtan 0.3171 0.9484 0.01 -1.0
vtan -0.3241 0.946 0.0089 -1.0
vtan 0.0094 0.9581 -0.2864 -1.0
vtan 0.0103 0.9587 0.2843 -1.0
vtan -0.2865 0.9581 -0.008 -1.0
vtan 0.2792 0.9601 -0.0118 -1.0
vtan -0.0105 0.9433 0.3318 -1.0
vtan -0.0116 0.94 -0.341 -1.0
f 0/0/0/0 1/1/1/1 2/2/2/2 
f 0/0/0/0 2/2/2/2 3/3/3/3 
f 4/4/4/4 5/5/5/5 2/2/2/2 
f 4/4/4/4 2/2/2/2 6/6/6/6 
f 2/2/2/2 5/5/5/5 3/3/3/3 
f 3/3/3/3 7/7/7/7 8/8/8/8 
f 3/3/3/3 8/8/8/8 9/9/9/9 
f 8/8/8/8 10/10/10/10 11/11/11/11 
f 8/8/8/8 11/11/11/11 12/12/12/12 
f 8/8/8/8 12/12/12/12 9/9/9/9 
f 9/9/9/9 13/13/13/13 14/14/14/14 
f 9/9/9/9 14/14/14/14 15/15/15/15 
f 16/16/16/16 17/17/17/17 14/14/14/14 
f 16/16/16/16 14/14/14/14 18/18/18/18 
f 14/14/14/14 17/17/17/17 15/15/15/15 
f 0/0/0/0 3/3/3/3 9/9/9/9 
f 0/0/0/0 9/9/9/9 15/15/15/15 
f 20/19/19/19 0/0/0/0 15/15/15/15 
f 20/19/19/19 15/15/15/15 19/20/20/20 
f 22/21/21/21 0/0/0/0 20/19/19/19 
f 22/21/21/21 20/19/19/19 21/22/22/22 
f 23/23/23/23 21/22/22/22 20/19/19/19 
f 24/24/24/24 25/25/25/25 26/26/26/26 
f 24/24/24/24 26/26/26/26 27/27/27/27 
f 28/28/28/11 29/29/29/28 26/26/26/26 
f 28/28/28/11 26/26/26/26 30/30/30/29 
f 26/26/26/26 29/29/29/28 27/27/27/27 
f 27/27/27/27 31/31/31/30 32/32/32/31 
f 27/27/27/27 32/32/32/31 33/33/33/32 
f 34/34/34/33 35/35/35/34 32/32/32/31 
f 34/34/34/33 32/32/32/31 36/36/36/35 
f 32/32/32/31 35/35/35/34 33/33/33/32 
f 33/33/33/32 37/37/37/36 38/38/38/37 
f 33/33/33/32 38/38/38/37 39/39/39/38 
f 40/40/40/11 41/41/41/39 38/38/38/37 
f 40/40/40/11 38/38/38/37 42/42/42/40 
f 38/38/38/37 41/41/41/39 39/39/39/38 
f 33/33/33/32 39/39/39/38 24/24/24/24 
f 33/33/33/32 24/24/24/24 27/27/27/27 
f 39/39/39/38 43/43/43/41 44/44/44/42 
f 39/39/39/38 44/44/44/42 24/24/24/24 
f 44/44/44/42 45/45/45/43 46/46/46/44 
f 44/44/44/42 46/46/46/44 24/24/24/24 
f 47/47/47/45 45/45/45/43 44/44/44/42 
f 48/48/48/46 49/49/49/47 50/50/50/48 
f 48/48/48/46 50/50/50/48 51/51/51/49 
f 52/52/52/50 53/53/53/51 54/54/54/52 
f 52/52/52/50 54/54/54/52 55/55/55/53 
f 56/56/56/54 57/57/57/55 58/58/58/56 
f 56/56/56/54 58/58/58/56 59/59/59/57 
f 60/60/60/58 61/61/61/59 62/62/62/60 
f 60/60/60/58 62/62/62/60 63/63/63/61 
f 64/64/64/62 65/65/65/63 66/66/66/64 
f 64/64/64/62 66/66/66/64 67/67/67/65 
f 68/68/68/66 69/69/69/67 57/57/57/55 
f 68/68/68/66 57/57/57/55 56/56/56/54 
f 70/70/70/68 68/68/68/66 56/56/56/54 
f 49/49/49/47 48/48/48/46 60/60/60/58 
f 49/49/49/47 60/60/60/58 63/63/63/61 
f 71/71/71/69 49/49/49/47 63/63/63/61 
f 64/64/64/62 72/72/72/70 73/73/73/71 
f 64/64/64/62 73/73/73/71 65/65/65/63 
f 53/53/53/51 52/52/52/50 58/58/58/56 
f 53/53/53/51 58/58/58/56 74/74/74/72 
f 59/59/59/57 58/58/58/56 52/52/52/50 
f 61/61/61/59 75/75/75/73 76/76/76/74 
f 61/61/61/59 76/76/76/74 62/62/62/60 
f 62/62/62/60 76/76/76/74 77/77/77/75 
f 67/67/67/65 66/66/66/64 78/78/78/76 
f 67/67/67/65 78/78/78/76 79/79/79/77 
f 3/80/3/78 5/81/5/79 80/82/80/80 
f 3/80/3/78 80/82/80/80 72/72/72/70 
f 0/83/0/81 22/84/21/82 81/85/81/83 
f 0/83/0/81 81/85/81/83 70/70/70/68 
f 39/86/39/84 41/87/41/85 82/88/82/86 
f 39/86/39/84 82/88/82/86 71/71/71/69 
f 33/89/33/87 35/90/35/88 83/91/83/89 
f 33/89/33/87 83/91/83/89 74/74/74/72 
f 60/60/60/58 20/92/19/90 19/93/20/91 
f 60/60/60/58 19/93/20/91 61/61/61/59 
f 59/59/59/57 2/94/2/92 1/95/1/93 
f 59/59/59/57 1/95/1/93 56/56/56/54 
f 67/67/67/65 8/96/8/94 7/97/7/95 
f 67/67/67/65 7/97/7/95 64/64/64/62 
f 62/62/62/60 44/98/44/96 43/99/43/97 
f 62/62/62/60 43/99/43/97 63/63/63/61 
f 57/57/57/55 38/100/38/98 37/101/37/99 
f 57/57/57/55 37/101/37/99 58/58/58/56 
f 65/65/65/63 32/102/32/100 31/103/31/101 
f 65/65/65/63 31/103/31/101 66/66/66/64 
f 48/48/48/46 23/104/23/102 20/92/19/90 
f 48/48/48/46 20/92/19/90 60/60/60/58 
f 0/83/0/81 70/70/70/68 56/56/56/54 
f 0/83/0/81 56/56/56/54 1/95/1/93 
f 64/64/64/62 7/97/7/95 3/80/3/78 
f 64/64/64/62 3/80/3/78 72/72/72/70 
f 63/63/63/61 43/99/43/97 39/86/39/84 
f 63/63/63/61 39/86/39/84 71/71/71/69 
f 58/58/58/56 37/101/37/99 33/89/33/87 
f 58/58/58/56 33/89/33/87 74/74/74/72 
f 66/66/66/64 31/103/31/101 27/105/27/103 
f 66/66/66/64 27/105/27/103 84/106/84/104 
f 61/61/61/59 19/93/20/91 15/107/15/105 
f 61/61/61/59 15/107/15/105 75/75/75/73 
f 52/52/52/50 6/108/6/106 2/94/2/92 
f 52/52/52/50 2/94/2/92 59/59/59/57 
f 79/79/79/77 10/109/10/107 8/96/8/94 
f 79/79/79/77 8/96/8/94 67/67/67/65 
f 77/77/77/75 47/110/47/108 44/98/44/96 
f 77/77/77/75 44/98/44/96 62/62/62/60 
f 69/69/69/67 42/111/42/109 38/100/38/98 
f 69/69/69/67 38/100/38/98 57/57/57/55 
f 85/112/85/110 36/113/36/111 32/102/32/100 
f 85/112/85/110 32/102/32/100 65/65/65/63 
f 79/48/79/112 78/49/78/71 86/114/86/113 
f 79/48/79/112 86/114/86/113 87/115/87/114 
f 88/52/88/115 89/53/89/71 90/116/90/116 
f 88/52/88/115 90/116/90/116 91/117/91/117 
f 92/56/92/118 93/57/93/119 94/58/94/120 
f 92/56/92/118 94/58/94/120 95/59/95/121 
f 96/68/96/71 97/69/97/122 93/57/93/119 
f 96/68/96/71 93/57/93/119 92/56/92/118 
f 98/70/98/123 96/68/96/71 92/56/92/118 
f 89/53/89/71 88/52/88/115 94/58/94/120 
f 89/53/89/71 94/58/94/120 99/74/99/124 
f 95/59/95/121 94/58/94/120 88/52/88/115 
f 15/80/15/125 17/118/17/126 100/119/100/127 
f 15/80/15/125 100/119/100/127 75/72/75/128 
f 9/83/9/129 12/120/12/130 101/121/101/131 
f 9/83/9/129 101/121/101/131 98/70/98/123 
f 27/86/27/132 29/122/29/133 102/123/102/134 
f 27/86/27/132 102/123/102/134 84/71/84/135 
f 24/89/24/136 46/124/46/137 103/125/103/138 
f 24/89/24/136 103/125/103/138 99/74/99/124 
f 95/59/95/121 14/94/14/139 13/95/13/140 
f 95/59/95/121 13/95/13/140 92/56/92/118 
f 93/57/93/119 26/100/26/141 25/101/25/142 
f 93/57/93/119 25/101/25/142 94/58/94/120 
f 92/56/92/118 13/95/13/140 9/83/9/129 
f 92/56/92/118 9/83/9/129 98/70/98/123 
f 94/58/94/120 25/101/25/142 24/89/24/136 
f 94/58/94/120 24/89/24/136 99/74/99/124 
f 88/52/88/115 18/108/18/143 14/94/14/139 
f 88/52/88/115 14/94/14/139 95/59/95/121 
f 97/69/97/122 30/111/30/144 26/100/26/141 
f 97/69/97/122 26/100/26/141 93/57/93/119 
f 68/68/68/66 104/126/104/145 69/69/69/67 
f 73/73/73/71 105/127/105/146 106/128/106/147 
f 73/73/73/71 106/128/106/147 85/112/85/110 
f 96/68/96/71 107/129/107/148 97/69/97/122 
f 76/73/76/149 108/130/108/150 77/112/77/151 
f 109/131/109/152 51/51/51/49 110/132/110/153 
f 109/131/109/152 21/133/22/154 23/104/23/102 
f 109/131/109/152 23/104/23/102 48/48/48/46 
f 41/87/41/85 40/134/40/155 111/135/111/156 
f 41/87/41/85 111/135/111/156 82/88/82/86 
f 82/88/82/86 112/136/112/157 71/71/71/69 
f 112/136/112/157 50/50/50/48 49/49/49/47 
f 22/84/21/82 21/133/22/154 109/131/109/152 
f 22/84/21/82 109/131/109/152 81/85/81/83 
f 111/135/111/156 104/126/104/145 113/137/113/158 
f 113/137/113/158 104/126/104/145 114/138/114/159 
f 113/137/113/158 114/138/114/159 115/139/115/160 
f 81/85/81/83 116/140/116/161 70/70/70/68 
f 111/135/111/156 40/134/40/155 42/111/42/109 
f 111/135/111/156 42/111/42/109 69/69/69/67 
f 80/82/80/80 117/141/117/162 72/72/72/70 
f 5/81/5/79 4/142/4/163 118/143/118/164 
f 5/81/5/79 118/143/118/164 80/82/80/80 
f 106/128/106/147 34/144/34/165 36/113/36/111 
f 106/128/106/147 36/113/36/111 85/112/85/110 
f 106/128/106/147 105/127/105/146 119/145/119/166 
f 119/145/119/166 105/127/105/146 120/146/120/167 
f 119/145/119/166 120/146/120/167 121/147/121/168 
f 118/143/118/164 55/55/55/53 122/148/122/169 
f 35/90/35/88 34/144/34/165 106/128/106/147 
f 35/90/35/88 106/128/106/147 83/91/83/89 
f 118/143/118/164 4/142/4/163 6/108/6/106 
f 118/143/118/164 6/108/6/106 52/52/52/50 
f 83/91/83/89 123/149/123/170 74/74/74/72 
f 123/149/123/170 54/54/54/52 53/53/53/51 
f 101/121/101/131 124/150/124/171 98/70/98/123 
f 12/120/12/130 11/151/11/172 125/152/125/173 
f 12/120/12/130 125/152/125/173 101/121/101/131 
f 126/153/126/174 28/154/28/175 30/111/30/144 
f 126/153/126/174 30/111/30/144 97/69/97/122 
f 126/153/126/174 107/129/107/148 127/155/127/176 
f 127/155/127/176 107/129/107/148 128/156/128/177 
f 127/155/127/176 128/156/128/177 129/157/129/178 
f 125/152/125/173 87/115/87/114 130/158/130/179 
f 29/122/29/133 28/154/28/175 126/153/126/174 
f 29/122/29/133 126/153/126/174 102/123/102/134 
f 125/152/125/173 11/151/11/172 10/104/10/180 
f 125/152/125/173 10/104/10/180 79/48/79/112 
f 102/123/102/134 131/159/131/181 78/49/78/71 
f 102/123/102/134 78/49/78/71 84/71/84/135 
f 131/159/131/181 86/114/86/113 78/49/78/71 
f 100/119/100/127 132/160/132/182 75/72/75/128 
f 17/118/17/126 16/161/16/183 133/162/133/184 
f 17/118/17/126 133/162/133/184 100/119/100/127 
f 134/163/134/185 45/164/45/186 47/113/47/187 
f 134/163/134/185 47/113/47/187 77/112/77/151 
f 134/163/134/185 108/130/108/150 135/165/135/188 
f 135/165/135/188 108/130/108/150 136/166/136/189 
f 135/165/135/188 136/166/136/189 137/167/137/190 
f 133/162/133/184 91/117/91/117 138/168/138/191 
f 46/124/46/137 45/164/45/186 134/163/134/185 
f 46/124/46/137 134/163/134/185 103/125/103/138 
f 133/162/133/184 16/161/16/183 18/108/18/143 
f 133/162/133/184 18/108/18/143 88/52/88/115 
f 103/125/103/138 139/169/139/192 99/74/99/124 
f 139/169/139/192 90/116/90/116 89/53/89/71 
f 50/50/50/48 140/170/140/193 110/132/110/153 
f 50/50/50/48 110/132/110/153 51/51/51/49 
f 54/54/54/52 141/171/141/194 122/148/122/169 
f 54/54/54/52 122/148/122/169 55/55/55/53 
f 86/114/86/113 142/172/142/195 130/158/130/179 
f 86/114/86/113 130/158/130/179 87/115/87/114 
f 90/116/90/116 143/173/143/196 138/168/138/191 
f 90/116/90/116 138/168/138/191 91/117/91/117 
f 135/165/135/188 137/167/137/190 143/173/143/196 
f 135/165/135/188 143/173/143/196 144/174/144/197 
f 145/175/145/198 137/167/137/190 136/166/136/189 
f 145/175/145/198 136/166/136/189 132/160/132/182 
f 138/168/138/191 143/173/143/196 137/167/137/190 
f 138/168/138/191 137/167/137/190 145/175/145/198 
f 144/174/144/197 143/173/143/196 90/116/90/116 
f 144/174/144/197 90/116/90/116 139/169/139/192 
f 127/155/127/176 129/157/129/178 142/172/142/195 
f 127/155/127/176 142/172/142/195 146/176/146/199 
f 147/177/147/200 129/157/129/178 128/156/128/177 
f 147/177/147/200 128/156/128/177 124/150/124/171 
f 130/158/130/179 142/172/142/195 129/157/129/178 
f 130/158/130/179 129/157/129/178 147/177/147/200 
f 146/176/146/199 142/172/142/195 86/114/86/113 
f 146/176/146/199 86/114/86/113 131/159/131/181 
f 119/145/119/166 121/147/121/168 141/171/141/194 
f 119/145/119/166 141/171/141/194 148/178/148/201 
f 149/179/149/202 121/147/121/168 120/146/120/167 
f 149/179/149/202 120/146/120/167 117/141/117/162 
f 122/148/122/169 141/171/141/194 121/147/121/168 
f 122/148/122/169 121/147/121/168 149/179/149/202 
f 148/178/148/201 141/171/141/194 54/54/54/52 
f 148/178/148/201 54/54/54/52 123/149/123/170 
f 113/137/113/158 115/139/115/160 140/170/140/193 
f 113/137/113/158 140/170/140/193 150/180/150/203 
f 151/181/151/204 115/139/115/160 114/138/114/159 
f 151/181/151/204 114/138/114/159 116/140/116/161 
f 110/132/110/153 140/170/140/193 115/139/115/160 
f 110/132/110/153 115/139/115/160 151/181/151/204 
f 150/180/150/203 140/170/140/193 50/50/50/48 
f 150/180/150/203 50/50/50/48 112/136/112/157 
f 68/68/68/66 114/138/114/159 104/126/104/145 
f 83/91/83/89 148/178/148/201 123/149/123/170 
f 118/143/118/164 122/148/122/169 149/179/149/202 
f 118/143/118/164 149/179/149/202 80/82/80/80 
f 111/135/111/156 113/137/113/158 150/180/150/203 
f 111/135/111/156 150/180/150/203 82/88/82/86 
f 81/85/81/83 151/181/151/204 116/140/116/161 
f 106/128/106/147 119/145/119/166 148/178/148/201 
f 106/128/106/147 148/178/148/201 83/91/83/89 
f 80/82/80/80 149/179/149/202 117/141/117/162 
f 73/73/73/71 120/146/120/167 105/127/105/146 
f 125/152/125/173 130/158/130/179 147/177/147/200 
f 125/152/125/173 147/177/147/200 101/121/101/131 
f 102/123/102/134 146/176/146/199 131/159/131/181 
f 126/153/126/174 127/155/127/176 146/176/146/199 
f 126/153/126/174 146/176/146/199 102/123/102/134 
f 96/68/96/71 128/156/128/177 107/129/107/148 
f 133/162/133/184 138/168/138/191 145/175/145/198 
f 133/162/133/184 145/175/145/198 100/119/100/127 
f 103/125/103/138 144/174/144/197 139/169/139/192 
f 101/121/101/131 147/177/147/200 124/150/124/171 
f 76/73/76/149 136/166/136/189 108/130/108/150 
f 82/88/82/86 150/180/150/203 112/136/112/157 
f 109/131/109/152 110/132/110/153 151/181/151/204 
f 109/131/109/152 151/181/151/204 81/85/81/83 
f 100/119/100/127 145/175/145/198 132/160/132/182 
f 134/163/134/185 135/165/135/188 144/174/144/197 
f 134/163/134/185 144/174/144/197 103/125/103/138 
f 52/52/52/50 55/55/55/53 118/143/118/164 
f 74/74/74/72 123/149/123/170 53/53/53/51 
f 69/69/69/67 104/126/104/145 111/135/111/156 
f 70/70/70/68 116/140/116/161 114/138/114/159 
f 70/70/70/68 114/138/114/159 68/68/68/66 
f 65/65/65/63 73/73/73/71 85/112/85/110 
f 78/78/78/76 66/66/66/64 84/106/84/104 
f 79/48/79/112 87/115/87/114 125/152/125/173 
f 72/72/72/70 117/141/117/162 120/146/120/167 
f 72/72/72/70 120/146/120/167 73/73/73/71 
f 99/74/99/124 139/169/139/192 89/53/89/71 
f 98/70/98/123 124/150/124/171 128/156/128/177 
f 98/70/98/123 128/156/128/177 96/68/96/71 
f 88/52/88/115 91/117/91/117 133/162/133/184 
f 97/69/97/122 107/129/107/148 126/153/126/174 
f 77/112/77/151 108/130/108/150 134/163/134/185 
f 71/71/71/69 112/136/112/157 49/49/49/47 
f 48/48/48/46 51/51/51/49 109/131/109/152 
f 75/72/75/128 132/160/132/182 136/166/136/189 
f 75/72/75/128 136/166/136/189 76/73/76/149 
