v -947.0284 59.1993 -220.8563
v -952.493 54.9361 -223.7868
v -957.0278 58.9801 -217.3988
v -950.7144 62.8083 -215.2053
v -943.4097 56.02 -226.765
v -949.7332 52.2559 -228.997
v -957.317 59.3015 -227.5913
v -960.9646 62.6647 -221.7929
v -953.7416 56.4003 -233.6668
v -959.3447 61.2348 -204.5119
v -953.2611 64.8167 -204.6158
v -951.7202 61.4931 -214.7363
v -959.1401 58.8708 -214.6723
v -959.7054 60.6109 -224.2221
v -953.4591 64.1728 -224.6648
v -965.5748 65.3216 -205.6708
v -967.3307 64.5591 -213.9276
v -967.2808 64.47 -222.5674
v -967.7537 61.2958 -212.7796
v -967.4523 59.9132 -220.6163
v -974.2062 59.7388 -219.6041
v -974.8538 61.8651 -212.4187
v -979.4142 66.7223 -213.3723
v -978.5906 66.3564 -221.9488
v -973.1665 65.1899 -205.3574
v -966.2004 66.8589 -207.0462
v -977.4539 73.1236 -207.7145
v -965.1497 58.372 -200.3947
v -957.9995 61.914 -201.8065
v -960.1033 60.5695 -208.195
v -967.1414 58.014 -207.2305
v -969.5797 62.2834 -211.7017
v -962.2001 67.1714 -212.7213
v -974.1779 56.7491 -203.9668
v -972.1855 59.7779 -197.4575
v -976.8698 64.4777 -208.3514
v -961.2346 55.6235 -207.0126
v -958.8414 55.5287 -198.7341
v -952.6792 56.2764 -200.7686
v -955.009 59.7299 -207.8651
v -958.3723 58.3708 -212.7097
v -963.7158 56.0149 -212.8564
v -966.686 60.6319 -204.01
v -964.2493 59.601 -196.9487
v -969.3236 58.967 -211.005
v -970.2163 61.2297 -208.4468
v -975.8007 56.3568 -206.7524
v -970.807 54.0186 -200.0429
v -965.673 59.3621 -202.7549
v -974.9166 63.5133 -213.9034
v -980.0741 58.2318 -211.1563
v -979.9645 58.8949 -201.2428
v -975.3314 56.7893 -195.6855
v -984.7665 61.4477 -206.5471
v -966.5798 62.3703 -221.1617
v -970.3115 63.9933 -229.5111
v -977.7781 66.5715 -223.0788
v -974.3429 62.4651 -216.882
v -980.3074 62.8565 -213.1374
v -985.8728 71.9049 -219.4034
v -969.9012 66.6845 -211.3177
v -963.6525 66.4426 -215.4105
v -976.7103 67.437 -207.4815
v -973.3108 61.8162 -229.3004
v -972.2881 64.6148 -236.7697
v -979.026 63.3479 -236.7574
v -980.4258 61.5116 -229.6162
v -985.4059 65.9092 -229.1062
v -983.9249 70.0342 -236.7697
v -979.6387 61.0086 -221.8312
v -972.8068 63.9666 -221.8312
v -984.5862 68.8784 -221.3253
v -972.0532 60.297 -209.8307
v -973.0844 61.2083 -214.7297
v -974.1718 57.2311 -215.5346
v -974.6163 55.6994 -210.5195
v -974.9547 62.0429 -221.4436
v -975.6051 57.6125 -219.9944
v -980.3208 54.0174 -213.0463
v -979.8281 54.8505 -209.7765
v -981.6311 54.5264 -218.7084
v -980.2249 58.2071 -208.9992
v -972.8096 61.3352 -209.2799
v -973.1475 58.3016 -218.14
v -980.3954 56.2641 -217.9005
v -981.1687 58.3766 -226.6878
v -973.5732 61.4813 -227.3138
v -988.1339 61.6049 -217.9462
v -987.7844 62.8455 -209.1955
v -989.024 62.4904 -226.6986
v -962.1332 61.9993 -247.0024
v -964.637 67.9958 -252.3087
v -973.0632 64.46 -250.0701
v -970.5825 59.5407 -244.536
v -978.4618 60.5905 -240.2487
v -981.3516 66.6183 -245.6042
v -967.7281 61.2267 -236.0511
v -959.5255 63.1004 -238.8541
v -975.6161 61.0938 -232.0784
v -949.1388 63.1012 -228.1082
v -948.115 65.8992 -235.5774
v -954.8534 64.6361 -235.5651
v -956.254 62.8005 -228.424
v -961.2321 67.201 -227.914
v -959.7493 71.3251 -235.5774
v -955.467 62.2971 -220.639
v -948.6339 65.2513 -220.639
v -960.4111 70.1697 -220.133
v -954.5414 57.6429 -213.8408
v -948.6964 63.6588 -214.1215
v -948.0056 60.7021 -222.9815
v -954.0563 55.7685 -222.7421
v -955.4734 57.404 -231.5294
v -949.4534 63.4737 -232.1554
v -963.0051 57.4751 -222.7878
v -963.0916 58.773 -214.0371
v -964.1243 57.9231 -231.5402
v -962.3934 61.4603 -211.1267
v -954.7186 63.0834 -206.1532
v -951.9556 65.6616 -215.6131
v -958.21 61.5551 -218.9421
v -955.2443 61.9465 -225.3297
v -947.1652 70.9949 -223.1019
v -964.9646 65.7745 -221.1928
v -967.9794 65.5326 -214.3582
v -961.3401 66.527 -228.1168
v -939.1494 55.1821 -226.1219
v -945.9457 56.8568 -226.8247
v -945.5485 59.9536 -219.731
v -937.8147 59.9579 -219.3851
v -937.4824 61.3547 -231.8701
v -945.8694 59.4503 -232.3544
v -953.5364 58.8813 -225.6588
v -951.9009 65.7545 -219.7374
v -952.3232 64.3521 -231.7757
v -945.3588 56.7473 -217.698
v -943.588 57.0085 -220.9095
v -946.5706 58.4623 -221.8392
v -948.6476 57.1402 -218.8893
v -950.8357 60.655 -219.3187
v -949.5811 61.3062 -223.1912
v -949.0269 57.8179 -215.0819
v -945.7035 57.2592 -214.039
v -952.0026 60.4161 -215.7605
v -959.8553 59.9486 -208.7771
v -960.3557 56.8179 -205.4381
v -955.9851 58.2972 -204.8747
v -955.6349 60.2202 -208.5565
v -964.0845 61.6283 -208.2447
v -964.1406 58.8784 -204.614
v -959.885 56.5066 -200.9818
v -956.1373 58.2953 -200.518
v -964.0812 57.5495 -200.6023
v -966.8439 59.6851 -207.9614
v -959.3746 62.5775 -208.5893
v -959.3868 57.1502 -216.5041
v -966.6698 55.3009 -216.1499
v -967.0381 54.8802 -225.1532
v -959.3746 57.6513 -226.1018
v -974.3131 60.5192 -217.7271
v -974.3131 64.1797 -209.5208
v -974.819 58.9212 -226.4303
v -972.6467 61.4115 -218.5686
v -970.2505 61.2737 -210.2952
v -965.1393 57.1969 -212.8189
v -966.9762 57.1853 -220.0575
v -969.2555 61.1037 -204.0279
v -963.5482 56.9205 -205.525
v -978.5791 59.7485 -217.1304
v -976.8828 59.5953 -209.8602
v -975.4509 59.1324 -202.5305
v -969.571 57.6429 -220.2205
v -963.7261 63.6588 -220.5012
v -963.0352 60.7021 -229.3613
v -969.0858 55.7685 -229.1219
v -970.5029 57.404 -237.9091
v -964.483 63.4737 -238.5351
v -978.0348 57.4751 -229.1675
v -978.1211 58.773 -220.4168
v -979.1539 57.9231 -237.9199
v -976.8173 61.6206 -240.863
v -981.3314 63.0501 -234.4761
v -973.8042 60.0101 -229.7938
v -969.462 59.6124 -235.867
v -962.2255 61.7156 -230.8194
v -966.571 63.0769 -224.086
v -965.3076 66.5534 -241.0758
v -972.583 67.8311 -245.943
v -957.9111 67.4796 -236.3184
v -966.5111 55.7053 -211.9157
v -960.6661 61.7211 -212.1964
v -959.9752 58.7644 -221.0565
v -966.026 53.8308 -220.8171
v -967.443 55.4663 -229.6043
v -961.4231 61.5361 -230.2303
v -974.9749 55.5374 -220.8627
v -975.0613 56.8353 -212.112
v -976.094 55.9854 -229.6151
v -956.8846 58.9289 -224.5647
v -963.0635 54.8224 -225.7068
v -963.3864 54.7276 -217.0954
v -956.897 58.9586 -217.0954
v -957.069 59.374 -232.0339
v -963.5876 55.2138 -232.0339
v -969.1815 59.0418 -224.5647
v -969.0813 58.7999 -217.0954
v -969.493 59.7943 -232.0339
v -956.2191 56.5497 -232.8937
v -958.8044 58.4339 -240.21
v -964.0553 61.0203 -236.4928
v -961.5884 60.1834 -229.4944
v -963.2965 66.7546 -227.6661
v -965.198 69.5462 -235.7022
v -956.7181 59.3126 -223.4028
v -950.7957 58.1519 -227.5785
v -957.1788 68.8991 -222.4589
v -979.3185 67.2958 -240.607
v -979.8823 67.2958 -233.2161
v -975.0139 63.0924 -232.6497
v -972.3585 64.0624 -239.7336
v -979.7946 67.2958 -222.9983
v -974.5959 63.0924 -225.8252
v -965.3986 67.2958 -234.281
v -966.2419 69.3605 -238.7701
v -965.3986 66.7385 -225.8252
v -976.1119 62.1542 -216.3754
v -975.447 57.9509 -223.9769
v -982.6294 62.984 -223.3353
v -983.5028 62.1542 -216.3754
v -968.7209 62.1542 -216.3754
v -968.7209 57.9509 -223.3353
v -977.1768 62.1542 -230.2953
v -981.1008 66.172 -230.2953
v -968.7209 58.4622 -230.2953
v -984.2108 56.7526 -212.83
v -984.2889 56.3752 -216.5141
v -989.3905 55.9022 -216.9025
v -989.1565 55.8552 -212.0425
v -977.498 58.0692 -214.4472
v -979.8571 57.2859 -217.8132
v -986.9929 57.8833 -221.4931
v -989.9486 57.6647 -219.9823
v -981.3944 58.8503 -222.8708
v -978.6483 61.564 -237.9653
v -977.3933 60.813 -246.4652
v -981.3634 66.5826 -247.2004
v -980.1213 69.3577 -239.6123
v -980.558 67.3375 -233.8826
v -978.8439 61.7233 -231.6116
v -971.1215 60.0343 -238.0928
v -970.8976 59.0319 -245.5624
v -972.9175 58.9943 -230.7447
v -980.5741 67.1553 -240.9562
v -980.2603 65.0859 -236.9683
v -976.9384 68.6913 -236.7986
v -976.8878 69.4948 -240.8128
v -985.1016 66.8001 -240.8666
v -984.5668 65.3755 -236.6942
v -980.2758 66.3649 -232.6152
v -977.6218 69.9207 -232.6187
v -984.5131 65.4043 -232.5126
v -975.1715 58.8547 -237.8919
v -982.6893 63.3067 -241.5965
v -984.0406 66.0908 -234.1909
v -977.0374 60.795 -230.8625
v -972.6077 52.607 -227.8891
v -970.9403 49.5725 -235.3486
v -989.4568 62.7743 -228.179
v -983.0165 57.0793 -224.8839
v -977.972 49.8292 -221.5495
v -985.0515 58.8811 -230.0658
v -982.7836 65.7917 -225.5961
v -975.2458 65.6989 -230.9857
v -977.9088 59.7905 -235.5948
v -973.0057 63.6441 -242.3464
v -970.3962 70.74 -237.9682
v -984.0092 59.7312 -242.3153
v -990.6355 58.3931 -236.6066
v -978.6195 62.5017 -248.8662
v -960.3466 60.5726 -229.6208
v -954.2629 64.1352 -229.2749
v -952.722 62.4529 -239.7105
v -960.1418 59.8467 -239.9758
v -960.7073 63.0868 -249.212
v -954.4609 66.6834 -249.204
v -966.5767 64.8026 -230.256
v -968.3325 65.3598 -238.5258
v -968.2825 66.6444 -247.0903
v -964.7095 62.7251 -243.1747
v -964.9736 63.4098 -247.9719
v -969.2949 63.0741 -247.858
v -969.6418 61.1027 -243.347
v -973.848 63.3753 -243.0687
v -974.1067 64.0553 -248.0338
v -969.3251 62.2375 -238.9033
v -965.2379 63.6856 -238.9033
v -973.7876 63.1059 -238.6273
v -950.1775 59.5001 -235.473
v -948.9435 64.8651 -228.3987
v -943.037 61.7984 -227.899
v -942.9175 59.5964 -235.7321
v -945.9525 56.1423 -239.9295
v -951.6045 56.1977 -240.9312
v -953.1331 66.9922 -237.8215
v -952.1348 70.7877 -231.1672
v -955.4492 61.4709 -243.1758
v -967.8306 60.5755 -240.7063
v -967.6876 55.9346 -246.3528
v -976.2062 57.3914 -246.2003
v -975.1826 61.9941 -240.3294
v -960.4562 59.3527 -241.2854
v -961.4764 54.7792 -247.1865
v -969.051 56.3743 -252.1592
v -976.4159 57.6809 -251.6666
v -961.6622 55.2782 -252.8692
v -951.3755 56.0073 -209.027
v -958.5815 55.3958 -209.7742
v -958.4707 56.0391 -201.1761
v -950.9958 56.5298 -201.5818
v -951.7424 56.0076 -216.4999
v -959.2155 55.5949 -216.0984
v -962.3153 62.3265 -208.7982
v -961.943 62.5499 -201.3371
v -962.6741 62.6652 -216.2891
v -966.4796 58.5222 -244.0415
v -970.2772 60.7434 -250.7099
v -977.5601 56.2168 -246.6265
v -974.0463 55.0417 -240.1129
v -981.9276 55.6321 -235.7607
v -986.1039 57.7491 -242.4472
v -971.7933 61.1191 -233.1717
v -964.3198 63.8631 -237.1865
v -979.3951 60.5226 -228.7054
v -970.2915 57.8145 -241.8282
v -970.2965 65.2423 -237.4381
v -961.4661 62.7082 -235.7555
v -961.4144 56.2755 -240.5751
v -952.5781 57.625 -241.9231
v -952.2462 65.1583 -237.3601
v -960.9711 55.5057 -249.6149
v -969.7135 56.5958 -250.3515
v -952.1787 55.7829 -250.4211
v -953.4537 55.0318 -246.4552
v -957.4044 62.2261 -248.9767
v -960.9526 62.2378 -240.4162
v -956.5455 56.0206 -237.9752
v -956.9525 59.7962 -229.613
v -961.1356 67.1868 -231.8742
v -947.8301 55.3986 -235.5019
v -945.2913 54.0127 -243.8654
v -948.8073 58.1232 -227.0634
v -982.526 60.3123 -212.0067
v -979.6772 60.9941 -209.766
v -977.9911 60.1838 -212.6061
v -980.8234 58.3924 -214.5663
v -979.1908 59.8584 -217.7842
v -975.5415 60.4177 -215.9565
v -984.193 59.4487 -216.2298
v -985.8033 61.2249 -213.5284
v -982.4489 59.6312 -219.6314
v -968.9216 53.0663 -227.8578
v -967.899 55.8649 -235.3271
v -974.6368 54.598 -235.3148
v -976.0367 52.7617 -228.1736
v -981.0167 57.1593 -227.6636
v -979.5358 61.2843 -235.3271
v -975.2495 52.2587 -220.3886
v -968.4176 55.2168 -220.3886
v -980.1971 60.1285 -219.8826
v -952.6846 59.2351 -232.5342
v -960.0385 62.0331 -234.1951
v -960.6042 60.77 -227.4805
v -953.6096 58.9344 -225.4723
v -953.5286 63.3349 -220.4688
v -961.0366 67.4591 -222.6037
v -945.7858 58.431 -225.5884
v -945.1996 61.3852 -232.3964
v -945.7059 66.3036 -220.6191
v -942.6328 58.0693 -237.7604
v -945.974 58.1127 -243.3627
v -952.6714 59.9248 -239.716
v -950.1915 57.7954 -233.6408
v -956.5647 59.0062 -235.3261
v -955.387 57.8359 -229.9757
v -946.5303 61.2408 -229.2075
v -940.0884 60.8825 -233.063
v -952.6443 59.9868 -225.0458
v -955.6636 62.4111 -218.0505
v -956.6798 59.7093 -211.4963
v -949.4768 57.9152 -211.9475
v -949.665 56.145 -220.2932
v -942.2738 56.1211 -212.3987
v -943.11 54.3154 -220.0866
v -950.5145 62.4452 -225.2757
v -953.5396 67.1652 -224.0886
v -943.0083 56.9306 -226.6626
v -968.5675 69.7939 -221.1725
v -972.7545 68.5089 -215.6124
v -967.0471 63.896 -213.3163
v -964.6953 61.2936 -221.1448
v -961.3398 59.2832 -211.0202
v -959.7953 56.9896 -218.4928
v -961.4933 66.8613 -225.851
v -962.9525 72.6023 -225.7599
v -956.4073 58.5589 -224.428
v -968.3236 58.8858 -216.1453
v -972.5106 57.6008 -210.5853
v -966.8032 52.9879 -208.2891
v -964.4514 50.3855 -216.1177
v -961.0959 48.3751 -205.993
v -959.5514 46.0815 -213.4656
v -961.2494 55.9532 -220.8239
v -962.7086 61.6941 -220.7328
v -956.1635 47.6508 -219.4008
v -958.3585 62.4111 -230.1305
v -959.3748 59.7093 -223.5763
v -952.1718 57.9152 -224.0275
v -952.3601 56.145 -232.3733
v -944.9688 56.1211 -224.4788
v -945.8051 54.3154 -232.1666
v -953.2095 62.4452 -237.3557
v -956.2345 67.1652 -236.1686
v -945.7032 56.9306 -238.7426
v -965.4733 58.185 -225.7695
v -968.8981 55.4102 -220.1174
v -962.0591 54.7195 -217.3829
v -958.4792 52.8653 -224.9083
v -955.2201 54.0289 -214.6484
v -952.4983 52.047 -221.8503
v -957.7765 58.9366 -230.1318
v -961.4916 63.1657 -230.6043
v -949.875 54.5974 -227.9032
v -978.5085 58.8504 -213.064
v -980.5974 55.7508 -212.0258
v -977.5243 55.724 -206.9233
v -975.7198 59.1851 -207.6739
v -983.3527 60.2186 -216.6313
v -985.0946 56.6771 -215.659
v -985.2416 54.5328 -208.6953
v -981.9459 54.3853 -203.9299
v -989.3956 55.078 -212.6733
v -983.2687 63.6965 -234.6526
v -977.7681 69.7326 -236.6585
v -977.1133 64.7469 -241.8193
v -982.701 59.3522 -240.6184
v -984.8142 59.4399 -246.6051
v -979.686 66.8304 -248.8345
v -989.4501 55.9778 -237.9923
v -990.7999 62.2812 -233.4733
v -992.9604 58.6879 -245.4394
v -938.8936 54.1117 -231.594
v -943.2725 55.1694 -237.8387
v -947.9398 55.3532 -232.8654
v -943.9233 54.7361 -226.7144
v -950.3315 58.6556 -230.3439
v -946.2952 57.0938 -223.4523
v -937.797 54.4435 -221.8643
v -932.8317 54.9542 -227.1361
v -939.6858 58.244 -219.121
v -955.9971 55.7513 -203.1056
v -956.0447 58.5499 -210.6444
v -962.7125 57.283 -209.6762
v -963.085 55.4466 -202.4086
v -967.9423 59.8443 -201.1972
v -967.5637 63.9693 -208.9932
v -961.2012 54.9437 -194.8141
v -954.4384 57.9017 -195.7835
v -966.0269 62.8134 -193.6112
v -949.4885 59.1824 -240.3304
v -948.0531 59.1777 -236.1991
v -944.0914 59.1785 -238.5337
v -945.774 58.0978 -242.1174
v -952.9169 62.2369 -239.1976
v -950.9694 62.5599 -235.2896
v -945.3464 61.704 -233.4066
v -941.9843 62.0848 -235.7226
v -948.7948 64.1662 -232.0144
v -975.8903 59.4677 -224.5793
v -971.3585 59.2263 -227.3043
v -986.7052 60.0424 -228.1418
v -986.3613 60.8902 -226.3718
v -966.5669 61.4531 -217.6934
v -964.5596 61.2901 -219.9486
v -955.7666 59.3048 -207.0315
v -960.8601 56.9052 -228.3459
v -956.1586 56.2206 -226.3762
v -963.7667 55.5058 -239.5246
v -965.8516 55.437 -238.9929
v -967.7279 58.0924 -251.4047
v -970.0022 57.9466 -251.0505
v -968.019 57.781 -257.6331
v -969.4243 57.082 -257.2596
v -971.2197 55.7129 -261.8365
v -971.609 56.1482 -260.9079
v -971.6259 57.6661 -211.9305
v -970.249 57.4908 -209.7243
v -962.0985 60.08 -210.8515
v -952.1689 60.2978 -220.1027
v -987.3 57.455 -212.6602
v -988.6309 57.055 -211.4866
v -978.425 56.905 -207.7475
v -977.7135 56.9926 -210.3964
v -990.0266 57.009 -218.6333
v -990.9329 57.4023 -218.5513
v -949.4951 50.1929 -201.02
v -954.6053 59.3081 -203.7791
v -956.5651 58.7279 -202.4277
v -951.0089 48.9976 -200.3879
v -962.1085 59.9265 -204.1244
v -961.4194 61.9613 -208.0612
v -966.7928 57.937 -210.0758
v -968.1576 56.53 -207.4524
v -980.1375 68.9002 -228.5574
v -974.0568 63.3846 -213.2737
v -971.3453 63.8159 -213.9329
v -971.1732 58.082 -244.1695
v -971.1761 57.4394 -245.5363
v -978.0308 58.9899 -246.1034
v -978.1401 58.9319 -244.2605
v -986.8551 61.3891 -239.37
v -984.4305 61.5033 -239.2243
v -983.3518 61.3556 -242.3342
v -984.0225 61.2037 -246.3127
v -982.285 60.5984 -233.3622
v -957.1737 61.1883 -235.0246
v -945.035 57.2471 -232.0549
v -953.4008 58.3046 -242.4257
v -974.1941 63.0264 -230.3887
v -935.3984 54.5128 -239.0
v -943.1177 55.9044 -239.6259
v -929.0048 47.7973 -234.0061
v -937.0427 59.673 -244.5168
v -931.1045 50.4822 -228.5302
gi 0 0 0 0
gi 0 0 0 0
gi 0 0 0 0
gi 0 0 0 0
gi 0 0 0 0
gi 0 0 0 0
gi 0 0 0 0
gi 0 0 0 0
gi 0 0 0 0
gi 0 0 0 0
gi 0 0 0 0
gi 0 0 0 0
gi 0 0 0 0
gi 0 0 0 0
gi 0 0 0 0
gi 0 0 0 0
gi 0 0 0 0
gi 0 0 0 0
gi 0 0 0 0
gi 0 0 0 0
gi 0 0 0 0
gi 0 0 0 0
gi 0 0 0 0
gi 0 0 0 0
gi 0 0 0 0
gi 0 0 0 0
gi 0 0 0 0
gi 0 0 0 0
gi 0 0 0 0
gi 0 0 0 0
gi 0 0 0 0
gi 0 0 0 0
gi 0 0 0 0
gi 0 0 0 0
gi 0 0 0 0
gi 0 0 0 0
gi 0 0 0 0
gi 0 0 0 0
gi 0 0 0 0
gi 0 0 0 0
gi 0 0 0 0
gi 0 0 0 0
gi 0 0 0 0
gi 0 0 0 0
gi 0 0 0 0
gi 0 0 0 0
gi 0 0 0 0
gi 0 0 0 0
gi 0 0 0 0
gi 0 0 0 0
gi 0 0 0 0
gi 0 0 0 0
gi 0 0 0 0
gi 0 0 0 0
gi 0 0 0 0
gi 0 0 0 0
gi 0 0 0 0
gi 0 0 0 0
gi 0 0 0 0
gi 0 0 0 0
gi 0 0 0 0
gi 0 0 0 0
gi 0 0 0 0
gi 0 0 0 0
gi 0 0 0 0
gi 0 0 0 0
gi 0 0 0 0
gi 0 0 0 0
gi 0 0 0 0
gi 0 0 0 0
gi 0 0 0 0
gi 0 0 0 0
gi 0 0 0 0
gi 0 0 0 0
gi 0 0 0 0
gi 0 0 0 0
gi 0 0 0 0
gi 0 0 0 0
gi 0 0 0 0
gi 0 0 0 0
gi 0 0 0 0
gi 0 0 0 0
gi 0 0 0 0
gi 0 0 0 0
gi 0 0 0 0
gi 0 0 0 0
gi 0 0 0 0
gi 0 0 0 0
gi 0 0 0 0
gi 0 0 0 0
gi 0 0 0 0
gi 0 0 0 0
gi 0 0 0 0
gi 0 0 0 0
gi 0 0 0 0
gi 0 0 0 0
gi 0 0 0 0
gi 0 0 0 0
gi 0 0 0 0
gi 0 0 0 0
gi 0 0 0 0
gi 0 0 0 0
gi 0 0 0 0
gi 0 0 0 0
gi 0 0 0 0
gi 0 0 0 0
gi 0 0 0 0
gi 0 0 0 0
gi 0 0 0 0
gi 0 0 0 0
gi 0 0 0 0
gi 0 0 0 0
gi 0 0 0 0
gi 0 0 0 0
gi 0 0 0 0
gi 0 0 0 0
gi 0 0 0 0
gi 0 0 0 0
gi 0 0 0 0
gi 0 0 0 0
gi 0 0 0 0
gi 0 0 0 0
gi 0 0 0 0
gi 0 0 0 0
gi 0 0 0 0
gi 0 0 0 0
gi 0 0 0 0
gi 0 0 0 0
gi 0 0 0 0
gi 0 0 0 0
gi 0 0 0 0
gi 0 0 0 0
gi 0 0 0 0
gi 0 0 0 0
gi 0 0 0 0
gi 0 0 0 0
gi 0 0 0 0
gi 0 0 0 0
gi 0 0 0 0
gi 0 0 0 0
gi 0 0 0 0
gi 0 0 0 0
gi 0 0 0 0
gi 0 0 0 0
gi 0 0 0 0
gi 0 0 0 0
gi 0 0 0 0
gi 0 0 0 0
gi 0 0 0 0
gi 0 0 0 0
gi 0 0 0 0
gi 0 0 0 0
gi 0 0 0 0
gi 0 0 0 0
gi 0 0 0 0
gi 0 0 0 0
gi 0 0 0 0
gi 0 0 0 0
gi 0 0 0 0
gi 0 0 0 0
gi 0 0 0 0
gi 0 0 0 0
gi 0 0 0 0
gi 0 0 0 0
gi 0 0 0 0
gi 0 0 0 0
gi 0 0 0 0
gi 0 0 0 0
gi 0 0 0 0
gi 0 0 0 0
gi 0 0 0 0
gi 0 0 0 0
gi 0 0 0 0
gi 0 0 0 0
gi 0 0 0 0
gi 0 0 0 0
gi 0 0 0 0
gi 0 0 0 0
gi 0 0 0 0
gi 0 0 0 0
gi 0 0 0 0
gi 0 0 0 0
gi 0 0 0 0
gi 0 0 0 0
gi 0 0 0 0
gi 0 0 0 0
gi 0 0 0 0
gi 0 0 0 0
gi 0 0 0 0
gi 0 0 0 0
gi 0 0 0 0
gi 0 0 0 0
gi 0 0 0 0
gi 0 0 0 0
gi 0 0 0 0
gi 0 0 0 0
gi 0 0 0 0
gi 0 0 0 0
gi 0 0 0 0
gi 0 0 0 0
gi 0 0 0 0
gi 0 0 0 0
gi 0 0 0 0
gi 0 0 0 0
gi 0 0 0 0
gi 0 0 0 0
gi 0 0 0 0
gi 0 0 0 0
gi 0 0 0 0
gi 0 0 0 0
gi 0 0 0 0
gi 0 0 0 0
gi 0 0 0 0
gi 0 0 0 0
gi 0 0 0 0
gi 0 0 0 0
gi 0 0 0 0
gi 0 0 0 0
gi 0 0 0 0
gi 0 0 0 0
gi 0 0 0 0
gi 0 0 0 0
gi 0 0 0 0
gi 0 0 0 0
gi 0 0 0 0
gi 0 0 0 0
gi 0 0 0 0
gi 0 0 0 0
gi 0 0 0 0
gi 0 0 0 0
gi 0 0 0 0
gi 0 0 0 0
gi 0 0 0 0
gi 0 0 0 0
gi 0 0 0 0
gi 0 0 0 0
gi 0 0 0 0
gi 0 0 0 0
gi 0 0 0 0
gi 0 0 0 0
gi 0 0 0 0
gi 0 0 0 0
gi 0 0 0 0
gi 0 0 0 0
gi 0 0 0 0
gi 0 0 0 0
gi 0 0 0 0
gi 0 0 0 0
gi 0 0 0 0
gi 0 0 0 0
gi 0 0 0 0
gi 0 0 0 0
gi 0 0 0 0
gi 0 0 0 0
gi 0 0 0 0
gi 0 0 0 0
gi 0 0 0 0
gi 0 0 0 0
gi 0 0 0 0
gi 0 0 0 0
gi 0 0 0 0
gi 0 0 0 0
gi 0 0 0 0
gi 0 0 0 0
gi 0 0 0 0
gi 0 0 0 0
gi 0 0 0 0
gi 0 0 0 0
gi 0 0 0 0
gi 0 0 0 0
gi 0 0 0 0
gi 0 0 0 0
gi 0 0 0 0
gi 0 0 0 0
gi 0 0 0 0
gi 0 0 0 0
gi 0 0 0 0
gi 0 0 0 0
gi 0 0 0 0
gi 0 0 0 0
gi 0 0 0 0
gi 0 0 0 0
gi 0 0 0 0
gi 0 0 0 0
gi 0 0 0 0
gi 0 0 0 0
gi 0 0 0 0
gi 0 0 0 0
gi 0 0 0 0
gi 0 0 0 0
gi 0 0 0 0
gi 0 0 0 0
gi 0 0 0 0
gi 0 0 0 0
gi 0 0 0 0
gi 0 0 0 0
gi 0 0 0 0
gi 0 0 0 0
gi 0 0 0 0
gi 0 0 0 0
gi 0 0 0 0
gi 0 0 0 0
gi 0 0 0 0
gi 0 0 0 0
gi 0 0 0 0
gi 0 0 0 0
gi 0 0 0 0
gi 0 0 0 0
gi 0 0 0 0
gi 0 0 0 0
gi 0 0 0 0
gi 0 0 0 0
gi 0 0 0 0
gi 0 0 0 0
gi 0 0 0 0
gi 0 0 0 0
gi 0 0 0 0
gi 0 0 0 0
gi 0 0 0 0
gi 0 0 0 0
gi 0 0 0 0
gi 0 0 0 0
gi 0 0 0 0
gi 0 0 0 0
gi 0 0 0 0
gi 0 0 0 0
gi 0 0 0 0
gi 0 0 0 0
gi 0 0 0 0
gi 0 0 0 0
gi 0 0 0 0
gi 0 0 0 0
gi 0 0 0 0
gi 0 0 0 0
gi 0 0 0 0
gi 0 0 0 0
gi 0 0 0 0
gi 0 0 0 0
gi 0 0 0 0
gi 0 0 0 0
gi 0 0 0 0
gi 0 0 0 0
gi 0 0 0 0
gi 0 0 0 0
gi 0 0 0 0
gi 0 0 0 0
gi 0 0 0 0
gi 0 0 0 0
gi 0 0 0 0
gi 0 0 0 0
gi 0 0 0 0
gi 0 0 0 0
gi 0 0 0 0
gi 0 0 0 0
gi 0 0 0 0
gi 0 0 0 0
gi 0 0 0 0
gi 0 0 0 0
gi 0 0 0 0
gi 0 0 0 0
gi 0 0 0 0
gi 0 0 0 0
gi 0 0 0 0
gi 0 0 0 0
gi 0 0 0 0
gi 0 0 0 0
gi 0 0 0 0
gi 0 0 0 0
gi 0 0 0 0
gi 0 0 0 0
gi 0 0 0 0
gi 0 0 0 0
gi 0 0 0 0
gi 0 0 0 0
gi 0 0 0 0
gi 0 0 0 0
gi 0 0 0 0
gi 0 0 0 0
gi 0 0 0 0
gi 0 0 0 0
gi 0 0 0 0
gi 0 0 0 0
gi 0 0 0 0
gi 0 0 0 0
gi 0 0 0 0
gi 0 0 0 0
gi 0 0 0 0
gi 0 0 0 0
gi 0 0 0 0
gi 0 0 0 0
gi 0 0 0 0
gi 0 0 0 0
gi 0 0 0 0
gi 0 0 0 0
gi 0 0 0 0
gi 0 0 0 0
gi 0 0 0 0
gi 0 0 0 0
gi 0 0 0 0
gi 0 0 0 0
gi 0 0 0 0
gi 0 0 0 0
gi 0 0 0 0
gi 0 0 0 0
gi 0 0 0 0
gi 0 0 0 0
gi 0 0 0 0
gi 0 0 0 0
gi 0 0 0 0
gi 0 0 0 0
gi 0 0 0 0
gi 0 0 0 0
gi 0 0 0 0
gi 0 0 0 0
gi 0 0 0 0
gi 0 0 0 0
gi 0 0 0 0
gi 0 0 0 0
gi 0 0 0 0
gi 0 0 0 0
gi 0 0 0 0
gi 0 0 0 0
gi 0 0 0 0
gi 0 0 0 0
gi 0 0 0 0
gi 0 0 0 0
gi 0 0 0 0
gi 0 0 0 0
gi 0 0 0 0
gi 0 0 0 0
gi 0 0 0 0
gi 0 0 0 0
gi 0 0 0 0
gi 0 0 0 0
gi 0 0 0 0
gi 0 0 0 0
gi 0 0 0 0
gi 0 0 0 0
gi 0 0 0 0
gi 0 0 0 0
gi 0 0 0 0
gi 0 0 0 0
gi 0 0 0 0
gi 0 0 0 0
gi 0 0 0 0
gi 0 0 0 0
gi 0 0 0 0
gi 0 0 0 0
gi 0 0 0 0
gi 0 0 0 0
gi 0 0 0 0
gi 0 0 0 0
gi 0 0 0 0
gi 0 0 0 0
gi 0 0 0 0
gi 0 0 0 0
gi 0 0 0 0
gi 0 0 0 0
gi 0 0 0 0
gi 0 0 0 0
gi 0 0 0 0
gi 0 0 0 0
gi 0 0 0 0
gi 0 0 0 0
gi 0 0 0 0
gi 0 0 0 0
gi 0 0 0 0
gi 0 0 0 0
gi 0 0 0 0
gi 0 0 0 0
gi 0 0 0 0
gi 0 0 0 0
gi 0 0 0 0
gi 0 0 0 0
gi 0 0 0 0
gi 0 0 0 0
gi 0 0 0 0
gi 0 0 0 0
gi 0 0 0 0
gi 0 0 0 0
gi 0 0 0 0
gi 0 0 0 0
gi 0 0 0 0
gi 0 0 0 0
gi 0 0 0 0
gi 0 0 0 0
gi 0 0 0 0
gi 0 0 0 0
gi 0 0 0 0
gi 0 0 0 0
gi 0 0 0 0
gi 0 0 0 0
gi 0 0 0 0
gi 0 0 0 0
gi 0 0 0 0
gi 0 0 0 0
gi 0 0 0 0
gi 0 0 0 0
gi 0 0 0 0
gi 0 0 0 0
gi 0 0 0 0
gi 0 0 0 0
gi 0 0 0 0
gi 0 0 0 0
gi 0 0 0 0
gi 0 0 0 0
gi 0 0 0 0
gi 0 0 0 0
gi 0 0 0 0
gi 0 0 0 0
gi 0 0 0 0
gi 0 0 0 0
gi 0 0 0 0
gi 0 0 0 0
gi 0 0 0 0
gi 0 0 0 0
gi 0 0 0 0
gi 0 0 0 0
gi 0 0 0 0
gi 0 0 0 0
gi 0 0 0 0
gi 0 0 0 0
gi 0 0 0 0
gi 0 0 0 0
gi 0 0 0 0
gi 0 0 0 0
gi 0 0 0 0
gi 0 0 0 0
gi 0 0 0 0
gi 0 0 0 0
gi 0 0 0 0
gi 0 0 0 0
gi 0 0 0 0
gw 0.0 0.0 0.0 0.0
gw 0.0 0.0 0.0 0.0
gw 0.0 0.0 0.0 0.0
gw 0.0 0.0 0.0 0.0
gw 0.0 0.0 0.0 0.0
gw 0.0 0.0 0.0 0.0
gw 0.0 0.0 0.0 0.0
gw 0.0 0.0 0.0 0.0
gw 0.0 0.0 0.0 0.0
gw 0.0 0.0 0.0 0.0
gw 0.0 0.0 0.0 0.0
gw 0.0 0.0 0.0 0.0
gw 0.0 0.0 0.0 0.0
gw 0.0 0.0 0.0 0.0
gw 0.0 0.0 0.0 0.0
gw 0.0 0.0 0.0 0.0
gw 0.0 0.0 0.0 0.0
gw 0.0 0.0 0.0 0.0
gw 0.0 0.0 0.0 0.0
gw 0.0 0.0 0.0 0.0
gw 0.0 0.0 0.0 0.0
gw 0.0 0.0 0.0 0.0
gw 0.0 0.0 0.0 0.0
gw 0.0 0.0 0.0 0.0
gw 0.0 0.0 0.0 0.0
gw 0.0 0.0 0.0 0.0
gw 0.0 0.0 0.0 0.0
gw 0.0 0.0 0.0 0.0
gw 0.0 0.0 0.0 0.0
gw 0.0 0.0 0.0 0.0
gw 0.0 0.0 0.0 0.0
gw 0.0 0.0 0.0 0.0
gw 0.0 0.0 0.0 0.0
gw 0.0 0.0 0.0 0.0
gw 0.0 0.0 0.0 0.0
gw 0.0 0.0 0.0 0.0
gw 0.0 0.0 0.0 0.0
gw 0.0 0.0 0.0 0.0
gw 0.0 0.0 0.0 0.0
gw 0.0 0.0 0.0 0.0
gw 0.0 0.0 0.0 0.0
gw 0.0 0.0 0.0 0.0
gw 0.0 0.0 0.0 0.0
gw 0.0 0.0 0.0 0.0
gw 0.0 0.0 0.0 0.0
gw 0.0 0.0 0.0 0.0
gw 0.0 0.0 0.0 0.0
gw 0.0 0.0 0.0 0.0
gw 0.0 0.0 0.0 0.0
gw 0.0 0.0 0.0 0.0
gw 0.0 0.0 0.0 0.0
gw 0.0 0.0 0.0 0.0
gw 0.0 0.0 0.0 0.0
gw 0.0 0.0 0.0 0.0
gw 0.0 0.0 0.0 0.0
gw 0.0 0.0 0.0 0.0
gw 0.0 0.0 0.0 0.0
gw 0.0 0.0 0.0 0.0
gw 0.0 0.0 0.0 0.0
gw 0.0 0.0 0.0 0.0
gw 0.0 0.0 0.0 0.0
gw 0.0 0.0 0.0 0.0
gw 0.0 0.0 0.0 0.0
gw 0.0 0.0 0.0 0.0
gw 0.0 0.0 0.0 0.0
gw 0.0 0.0 0.0 0.0
gw 0.0 0.0 0.0 0.0
gw 0.0 0.0 0.0 0.0
gw 0.0 0.0 0.0 0.0
gw 0.0 0.0 0.0 0.0
gw 0.0 0.0 0.0 0.0
gw 0.0 0.0 0.0 0.0
gw 0.0 0.0 0.0 0.0
gw 0.0 0.0 0.0 0.0
gw 0.0 0.0 0.0 0.0
gw 0.0 0.0 0.0 0.0
gw 0.0 0.0 0.0 0.0
gw 0.0 0.0 0.0 0.0
gw 0.0 0.0 0.0 0.0
gw 0.0 0.0 0.0 0.0
gw 0.0 0.0 0.0 0.0
gw 0.0 0.0 0.0 0.0
gw 0.0 0.0 0.0 0.0
gw 0.0 0.0 0.0 0.0
gw 0.0 0.0 0.0 0.0
gw 0.0 0.0 0.0 0.0
gw 0.0 0.0 0.0 0.0
gw 0.0 0.0 0.0 0.0
gw 0.0 0.0 0.0 0.0
gw 0.0 0.0 0.0 0.0
gw 0.0 0.0 0.0 0.0
gw 0.0 0.0 0.0 0.0
gw 0.0 0.0 0.0 0.0
gw 0.0 0.0 0.0 0.0
gw 0.0 0.0 0.0 0.0
gw 0.0 0.0 0.0 0.0
gw 0.0 0.0 0.0 0.0
gw 0.0 0.0 0.0 0.0
gw 0.0 0.0 0.0 0.0
gw 0.0 0.0 0.0 0.0
gw 0.0 0.0 0.0 0.0
gw 0.0 0.0 0.0 0.0
gw 0.0 0.0 0.0 0.0
gw 0.0 0.0 0.0 0.0
gw 0.0 0.0 0.0 0.0
gw 0.0 0.0 0.0 0.0
gw 0.0 0.0 0.0 0.0
gw 0.0 0.0 0.0 0.0
gw 0.0 0.0 0.0 0.0
gw 0.0 0.0 0.0 0.0
gw 0.0 0.0 0.0 0.0
gw 0.0 0.0 0.0 0.0
gw 0.0 0.0 0.0 0.0
gw 0.0 0.0 0.0 0.0
gw 0.0 0.0 0.0 0.0
gw 0.0 0.0 0.0 0.0
gw 0.0 0.0 0.0 0.0
gw 0.0 0.0 0.0 0.0
gw 0.0 0.0 0.0 0.0
gw 0.0 0.0 0.0 0.0
gw 0.0 0.0 0.0 0.0
gw 0.0 0.0 0.0 0.0
gw 0.0 0.0 0.0 0.0
gw 0.0 0.0 0.0 0.0
gw 0.0 0.0 0.0 0.0
gw 0.0 0.0 0.0 0.0
gw 0.0 0.0 0.0 0.0
gw 0.0 0.0 0.0 0.0
gw 0.0 0.0 0.0 0.0
gw 0.0 0.0 0.0 0.0
gw 0.0 0.0 0.0 0.0
gw 0.0 0.0 0.0 0.0
gw 0.0 0.0 0.0 0.0
gw 0.0 0.0 0.0 0.0
gw 0.0 0.0 0.0 0.0
gw 0.0 0.0 0.0 0.0
gw 0.0 0.0 0.0 0.0
gw 0.0 0.0 0.0 0.0
gw 0.0 0.0 0.0 0.0
gw 0.0 0.0 0.0 0.0
gw 0.0 0.0 0.0 0.0
gw 0.0 0.0 0.0 0.0
gw 0.0 0.0 0.0 0.0
gw 0.0 0.0 0.0 0.0
gw 0.0 0.0 0.0 0.0
gw 0.0 0.0 0.0 0.0
gw 0.0 0.0 0.0 0.0
gw 0.0 0.0 0.0 0.0
gw 0.0 0.0 0.0 0.0
gw 0.0 0.0 0.0 0.0
gw 0.0 0.0 0.0 0.0
gw 0.0 0.0 0.0 0.0
gw 0.0 0.0 0.0 0.0
gw 0.0 0.0 0.0 0.0
gw 0.0 0.0 0.0 0.0
gw 0.0 0.0 0.0 0.0
gw 0.0 0.0 0.0 0.0
gw 0.0 0.0 0.0 0.0
gw 0.0 0.0 0.0 0.0
gw 0.0 0.0 0.0 0.0
gw 0.0 0.0 0.0 0.0
gw 0.0 0.0 0.0 0.0
gw 0.0 0.0 0.0 0.0
gw 0.0 0.0 0.0 0.0
gw 0.0 0.0 0.0 0.0
gw 0.0 0.0 0.0 0.0
gw 0.0 0.0 0.0 0.0
gw 0.0 0.0 0.0 0.0
gw 0.0 0.0 0.0 0.0
gw 0.0 0.0 0.0 0.0
gw 0.0 0.0 0.0 0.0
gw 0.0 0.0 0.0 0.0
gw 0.0 0.0 0.0 0.0
gw 0.0 0.0 0.0 0.0
gw 0.0 0.0 0.0 0.0
gw 0.0 0.0 0.0 0.0
gw 0.0 0.0 0.0 0.0
gw 0.0 0.0 0.0 0.0
gw 0.0 0.0 0.0 0.0
gw 0.0 0.0 0.0 0.0
gw 0.0 0.0 0.0 0.0
gw 0.0 0.0 0.0 0.0
gw 0.0 0.0 0.0 0.0
gw 0.0 0.0 0.0 0.0
gw 0.0 0.0 0.0 0.0
gw 0.0 0.0 0.0 0.0
gw 0.0 0.0 0.0 0.0
gw 0.0 0.0 0.0 0.0
gw 0.0 0.0 0.0 0.0
gw 0.0 0.0 0.0 0.0
gw 0.0 0.0 0.0 0.0
gw 0.0 0.0 0.0 0.0
gw 0.0 0.0 0.0 0.0
gw 0.0 0.0 0.0 0.0
gw 0.0 0.0 0.0 0.0
gw 0.0 0.0 0.0 0.0
gw 0.0 0.0 0.0 0.0
gw 0.0 0.0 0.0 0.0
gw 0.0 0.0 0.0 0.0
gw 0.0 0.0 0.0 0.0
gw 0.0 0.0 0.0 0.0
gw 0.0 0.0 0.0 0.0
gw 0.0 0.0 0.0 0.0
gw 0.0 0.0 0.0 0.0
gw 0.0 0.0 0.0 0.0
gw 0.0 0.0 0.0 0.0
gw 0.0 0.0 0.0 0.0
gw 0.0 0.0 0.0 0.0
gw 0.0 0.0 0.0 0.0
gw 0.0 0.0 0.0 0.0
gw 0.0 0.0 0.0 0.0
gw 0.0 0.0 0.0 0.0
gw 0.0 0.0 0.0 0.0
gw 0.0 0.0 0.0 0.0
gw 0.0 0.0 0.0 0.0
gw 0.0 0.0 0.0 0.0
gw 0.0 0.0 0.0 0.0
gw 0.0 0.0 0.0 0.0
gw 0.0 0.0 0.0 0.0
gw 0.0 0.0 0.0 0.0
gw 0.0 0.0 0.0 0.0
gw 0.0 0.0 0.0 0.0
gw 0.0 0.0 0.0 0.0
gw 0.0 0.0 0.0 0.0
gw 0.0 0.0 0.0 0.0
gw 0.0 0.0 0.0 0.0
gw 0.0 0.0 0.0 0.0
gw 0.0 0.0 0.0 0.0
gw 0.0 0.0 0.0 0.0
gw 0.0 0.0 0.0 0.0
gw 0.0 0.0 0.0 0.0
gw 0.0 0.0 0.0 0.0
gw 0.0 0.0 0.0 0.0
gw 0.0 0.0 0.0 0.0
gw 0.0 0.0 0.0 0.0
gw 0.0 0.0 0.0 0.0
gw 0.0 0.0 0.0 0.0
gw 0.0 0.0 0.0 0.0
gw 0.0 0.0 0.0 0.0
gw 0.0 0.0 0.0 0.0
gw 0.0 0.0 0.0 0.0
gw 0.0 0.0 0.0 0.0
gw 0.0 0.0 0.0 0.0
gw 0.0 0.0 0.0 0.0
gw 0.0 0.0 0.0 0.0
gw 0.0 0.0 0.0 0.0
gw 0.0 0.0 0.0 0.0
gw 0.0 0.0 0.0 0.0
gw 0.0 0.0 0.0 0.0
gw 0.0 0.0 0.0 0.0
gw 0.0 0.0 0.0 0.0
gw 0.0 0.0 0.0 0.0
gw 0.0 0.0 0.0 0.0
gw 0.0 0.0 0.0 0.0
gw 0.0 0.0 0.0 0.0
gw 0.0 0.0 0.0 0.0
gw 0.0 0.0 0.0 0.0
gw 0.0 0.0 0.0 0.0
gw 0.0 0.0 0.0 0.0
gw 0.0 0.0 0.0 0.0
gw 0.0 0.0 0.0 0.0
gw 0.0 0.0 0.0 0.0
gw 0.0 0.0 0.0 0.0
gw 0.0 0.0 0.0 0.0
gw 0.0 0.0 0.0 0.0
gw 0.0 0.0 0.0 0.0
gw 0.0 0.0 0.0 0.0
gw 0.0 0.0 0.0 0.0
gw 0.0 0.0 0.0 0.0
gw 0.0 0.0 0.0 0.0
gw 0.0 0.0 0.0 0.0
gw 0.0 0.0 0.0 0.0
gw 0.0 0.0 0.0 0.0
gw 0.0 0.0 0.0 0.0
gw 0.0 0.0 0.0 0.0
gw 0.0 0.0 0.0 0.0
gw 0.0 0.0 0.0 0.0
gw 0.0 0.0 0.0 0.0
gw 0.0 0.0 0.0 0.0
gw 0.0 0.0 0.0 0.0
gw 0.0 0.0 0.0 0.0
gw 0.0 0.0 0.0 0.0
gw 0.0 0.0 0.0 0.0
gw 0.0 0.0 0.0 0.0
gw 0.0 0.0 0.0 0.0
gw 0.0 0.0 0.0 0.0
gw 0.0 0.0 0.0 0.0
gw 0.0 0.0 0.0 0.0
gw 0.0 0.0 0.0 0.0
gw 0.0 0.0 0.0 0.0
gw 0.0 0.0 0.0 0.0
gw 0.0 0.0 0.0 0.0
gw 0.0 0.0 0.0 0.0
gw 0.0 0.0 0.0 0.0
gw 0.0 0.0 0.0 0.0
gw 0.0 0.0 0.0 0.0
gw 0.0 0.0 0.0 0.0
gw 0.0 0.0 0.0 0.0
gw 0.0 0.0 0.0 0.0
gw 0.0 0.0 0.0 0.0
gw 0.0 0.0 0.0 0.0
gw 0.0 0.0 0.0 0.0
gw 0.0 0.0 0.0 0.0
gw 0.0 0.0 0.0 0.0
gw 0.0 0.0 0.0 0.0
gw 0.0 0.0 0.0 0.0
gw 0.0 0.0 0.0 0.0
gw 0.0 0.0 0.0 0.0
gw 0.0 0.0 0.0 0.0
gw 0.0 0.0 0.0 0.0
gw 0.0 0.0 0.0 0.0
gw 0.0 0.0 0.0 0.0
gw 0.0 0.0 0.0 0.0
gw 0.0 0.0 0.0 0.0
gw 0.0 0.0 0.0 0.0
gw 0.0 0.0 0.0 0.0
gw 0.0 0.0 0.0 0.0
gw 0.0 0.0 0.0 0.0
gw 0.0 0.0 0.0 0.0
gw 0.0 0.0 0.0 0.0
gw 0.0 0.0 0.0 0.0
gw 0.0 0.0 0.0 0.0
gw 0.0 0.0 0.0 0.0
gw 0.0 0.0 0.0 0.0
gw 0.0 0.0 0.0 0.0
gw 0.0 0.0 0.0 0.0
gw 0.0 0.0 0.0 0.0
gw 0.0 0.0 0.0 0.0
gw 0.0 0.0 0.0 0.0
gw 0.0 0.0 0.0 0.0
gw 0.0 0.0 0.0 0.0
gw 0.0 0.0 0.0 0.0
gw 0.0 0.0 0.0 0.0
gw 0.0 0.0 0.0 0.0
gw 0.0 0.0 0.0 0.0
gw 0.0 0.0 0.0 0.0
gw 0.0 0.0 0.0 0.0
gw 0.0 0.0 0.0 0.0
gw 0.0 0.0 0.0 0.0
gw 0.0 0.0 0.0 0.0
gw 0.0 0.0 0.0 0.0
gw 0.0 0.0 0.0 0.0
gw 0.0 0.0 0.0 0.0
gw 0.0 0.0 0.0 0.0
gw 0.0 0.0 0.0 0.0
gw 0.0 0.0 0.0 0.0
gw 0.0 0.0 0.0 0.0
gw 0.0 0.0 0.0 0.0
gw 0.0 0.0 0.0 0.0
gw 0.0 0.0 0.0 0.0
gw 0.0 0.0 0.0 0.0
gw 0.0 0.0 0.0 0.0
gw 0.0 0.0 0.0 0.0
gw 0.0 0.0 0.0 0.0
gw 0.0 0.0 0.0 0.0
gw 0.0 0.0 0.0 0.0
gw 0.0 0.0 0.0 0.0
gw 0.0 0.0 0.0 0.0
gw 0.0 0.0 0.0 0.0
gw 0.0 0.0 0.0 0.0
gw 0.0 0.0 0.0 0.0
gw 0.0 0.0 0.0 0.0
gw 0.0 0.0 0.0 0.0
gw 0.0 0.0 0.0 0.0
gw 0.0 0.0 0.0 0.0
gw 0.0 0.0 0.0 0.0
gw 0.0 0.0 0.0 0.0
gw 0.0 0.0 0.0 0.0
gw 0.0 0.0 0.0 0.0
gw 0.0 0.0 0.0 0.0
gw 0.0 0.0 0.0 0.0
gw 0.0 0.0 0.0 0.0
gw 0.0 0.0 0.0 0.0
gw 0.0 0.0 0.0 0.0
gw 0.0 0.0 0.0 0.0
gw 0.0 0.0 0.0 0.0
gw 0.0 0.0 0.0 0.0
gw 0.0 0.0 0.0 0.0
gw 0.0 0.0 0.0 0.0
gw 0.0 0.0 0.0 0.0
gw 0.0 0.0 0.0 0.0
gw 0.0 0.0 0.0 0.0
gw 0.0 0.0 0.0 0.0
gw 0.0 0.0 0.0 0.0
gw 0.0 0.0 0.0 0.0
gw 0.0 0.0 0.0 0.0
gw 0.0 0.0 0.0 0.0
gw 0.0 0.0 0.0 0.0
gw 0.0 0.0 0.0 0.0
gw 0.0 0.0 0.0 0.0
gw 0.0 0.0 0.0 0.0
gw 0.0 0.0 0.0 0.0
gw 0.0 0.0 0.0 0.0
gw 0.0 0.0 0.0 0.0
gw 0.0 0.0 0.0 0.0
gw 0.0 0.0 0.0 0.0
gw 0.0 0.0 0.0 0.0
gw 0.0 0.0 0.0 0.0
gw 0.0 0.0 0.0 0.0
gw 0.0 0.0 0.0 0.0
gw 0.0 0.0 0.0 0.0
gw 0.0 0.0 0.0 0.0
gw 0.0 0.0 0.0 0.0
gw 0.0 0.0 0.0 0.0
gw 0.0 0.0 0.0 0.0
gw 0.0 0.0 0.0 0.0
gw 0.0 0.0 0.0 0.0
gw 0.0 0.0 0.0 0.0
gw 0.0 0.0 0.0 0.0
gw 0.0 0.0 0.0 0.0
gw 0.0 0.0 0.0 0.0
gw 0.0 0.0 0.0 0.0
gw 0.0 0.0 0.0 0.0
gw 0.0 0.0 0.0 0.0
gw 0.0 0.0 0.0 0.0
gw 0.0 0.0 0.0 0.0
gw 0.0 0.0 0.0 0.0
gw 0.0 0.0 0.0 0.0
gw 0.0 0.0 0.0 0.0
gw 0.0 0.0 0.0 0.0
gw 0.0 0.0 0.0 0.0
gw 0.0 0.0 0.0 0.0
gw 0.0 0.0 0.0 0.0
gw 0.0 0.0 0.0 0.0
gw 0.0 0.0 0.0 0.0
gw 0.0 0.0 0.0 0.0
gw 0.0 0.0 0.0 0.0
gw 0.0 0.0 0.0 0.0
gw 0.0 0.0 0.0 0.0
gw 0.0 0.0 0.0 0.0
gw 0.0 0.0 0.0 0.0
gw 0.0 0.0 0.0 0.0
gw 0.0 0.0 0.0 0.0
gw 0.0 0.0 0.0 0.0
gw 0.0 0.0 0.0 0.0
gw 0.0 0.0 0.0 0.0
gw 0.0 0.0 0.0 0.0
gw 0.0 0.0 0.0 0.0
gw 0.0 0.0 0.0 0.0
gw 0.0 0.0 0.0 0.0
gw 0.0 0.0 0.0 0.0
gw 0.0 0.0 0.0 0.0
gw 0.0 0.0 0.0 0.0
gw 0.0 0.0 0.0 0.0
gw 0.0 0.0 0.0 0.0
gw 0.0 0.0 0.0 0.0
gw 0.0 0.0 0.0 0.0
gw 0.0 0.0 0.0 0.0
gw 0.0 0.0 0.0 0.0
gw 0.0 0.0 0.0 0.0
gw 0.0 0.0 0.0 0.0
gw 0.0 0.0 0.0 0.0
gw 0.0 0.0 0.0 0.0
gw 0.0 0.0 0.0 0.0
gw 0.0 0.0 0.0 0.0
gw 0.0 0.0 0.0 0.0
gw 0.0 0.0 0.0 0.0
gw 0.0 0.0 0.0 0.0
gw 0.0 0.0 0.0 0.0
gw 0.0 0.0 0.0 0.0
gw 0.0 0.0 0.0 0.0
gw 0.0 0.0 0.0 0.0
gw 0.0 0.0 0.0 0.0
gw 0.0 0.0 0.0 0.0
gw 0.0 0.0 0.0 0.0
gw 0.0 0.0 0.0 0.0
gw 0.0 0.0 0.0 0.0
gw 0.0 0.0 0.0 0.0
gw 0.0 0.0 0.0 0.0
gw 0.0 0.0 0.0 0.0
gw 0.0 0.0 0.0 0.0
gw 0.0 0.0 0.0 0.0
gw 0.0 0.0 0.0 0.0
gw 0.0 0.0 0.0 0.0
gw 0.0 0.0 0.0 0.0
gw 0.0 0.0 0.0 0.0
gw 0.0 0.0 0.0 0.0
gw 0.0 0.0 0.0 0.0
gw 0.0 0.0 0.0 0.0
gw 0.0 0.0 0.0 0.0
gw 0.0 0.0 0.0 0.0
gw 0.0 0.0 0.0 0.0
gw 0.0 0.0 0.0 0.0
gw 0.0 0.0 0.0 0.0
gw 0.0 0.0 0.0 0.0
gw 0.0 0.0 0.0 0.0
gw 0.0 0.0 0.0 0.0
gw 0.0 0.0 0.0 0.0
gw 0.0 0.0 0.0 0.0
gw 0.0 0.0 0.0 0.0
gw 0.0 0.0 0.0 0.0
gw 0.0 0.0 0.0 0.0
gw 0.0 0.0 0.0 0.0
gw 0.0 0.0 0.0 0.0
gw 0.0 0.0 0.0 0.0
gw 0.0 0.0 0.0 0.0
gw 0.0 0.0 0.0 0.0
gw 0.0 0.0 0.0 0.0
gw 0.0 0.0 0.0 0.0
gw 0.0 0.0 0.0 0.0
gw 0.0 0.0 0.0 0.0
gw 0.0 0.0 0.0 0.0
gw 0.0 0.0 0.0 0.0
gw 0.0 0.0 0.0 0.0
gw 0.0 0.0 0.0 0.0
gw 0.0 0.0 0.0 0.0
gw 0.0 0.0 0.0 0.0
gw 0.0 0.0 0.0 0.0
gw 0.0 0.0 0.0 0.0
gw 0.0 0.0 0.0 0.0
gw 0.0 0.0 0.0 0.0
gw 0.0 0.0 0.0 0.0
gw 0.0 0.0 0.0 0.0
gw 0.0 0.0 0.0 0.0
gw 0.0 0.0 0.0 0.0
gw 0.0 0.0 0.0 0.0
gw 0.0 0.0 0.0 0.0
gw 0.0 0.0 0.0 0.0
gw 0.0 0.0 0.0 0.0
gw 0.0 0.0 0.0 0.0
gw 0.0 0.0 0.0 0.0
gw 0.0 0.0 0.0 0.0
gw 0.0 0.0 0.0 0.0
gw 0.0 0.0 0.0 0.0
gw 0.0 0.0 0.0 0.0
gw 0.0 0.0 0.0 0.0
gw 0.0 0.0 0.0 0.0
gw 0.0 0.0 0.0 0.0
gw 0.0 0.0 0.0 0.0
gw 0.0 0.0 0.0 0.0
gw 0.0 0.0 0.0 0.0
gw 0.0 0.0 0.0 0.0
gw 0.0 0.0 0.0 0.0
vt 0.1166 0.7956
vt 0.1298 0.8902
vt 0.0 0.8978
vt 0.0 0.7956
vt 0.2332 0.7956
vt 0.2332 0.8978
vt 0.1166 1.0
vt 0.0 1.0
vt 0.2332 1.0
vt 0.5468 0.3673
vt 0.5615 0.2734
vt 0.7285 0.288
vt 0.7285 0.3988
vt 0.911 0.3888
vt 0.9084 0.288
vt 0.5546 0.4534
vt 0.7164 0.5033
vt 0.8843 0.4732
vt 0.0179 0.6408
vt 0.0179 0.5031
vt 0.175 0.5031
vt 0.1928 0.6305
vt 0.332 0.6408
vt 0.3191 0.5108
vt 0.175 0.7786
vt 0.0179 0.7786
vt 0.332 0.7786
vt 0.4805 0.5373
vt 0.32 0.5466
vt 0.3268 0.4296
vt 0.4642 0.416
vt 0.5837 0.4495
vt 0.6084 0.5466
vt 0.4642 0.6713
vt 0.32 0.6713
vt 0.6084 0.6713
vt 0.6606 0.8469
vt 0.6839 0.6153
vt 0.8199 0.7011
vt 0.838 0.836
vt 0.9792 0.8469
vt 0.9792 0.7011
vt 0.8199 0.9927
vt 0.6606 0.9927
vt 0.9792 0.9927
vt 0.7379 0.5099
vt 0.8725 0.4801
vt 0.8795 0.5802
vt 0.7418 0.5871
vt 0.9847 0.4865
vt 0.9967 0.5854
vt 0.8652 0.7075
vt 0.7692 0.6737
vt 0.9967 0.7126
vt 0.0528 0.3841
vt 0.0528 0.2864
vt 0.1931 0.2864
vt 0.1958 0.3861
vt 0.3335 0.3841
vt 0.3335 0.2864
vt 0.1931 0.4819
vt 0.0528 0.4819
vt 0.3335 0.4819
vt 0.0092 0.1325
vt 0.0092 0.0028
vt 0.1437 0.0028
vt 0.1415 0.1345
vt 0.2782 0.1325
vt 0.2782 0.0028
vt 0.1437 0.2623
vt 0.0092 0.2623
vt 0.2782 0.2623
vt 0.8283 0.0056
vt 0.8258 0.1565
vt 0.6713 0.1543
vt 0.6713 0.0056
vt 0.9854 0.0056
vt 0.9854 0.1543
vt 0.8283 0.303
vt 0.6713 0.303
vt 0.9854 0.303
vt 0.4643 0.6874
vt 0.4911 0.8784
vt 0.3013 0.8437
vt 0.3013 0.6874
vt 0.6272 0.6874
vt 0.6272 0.8437
vt 0.4643 1.0001
vt 0.3013 1.0001
vt 0.6272 1.0001
vt 0.3291 0.1485
vt 0.3291 0.01
vt 0.4753 0.0129
vt 0.4658 0.1505
vt 0.6098 0.1485
vt 0.6098 0.01
vt 0.4753 0.2914
vt 0.3291 0.2885
vt 0.6098 0.2885
vt 0.2874 0.7256
vt 0.266 0.762
vt 0.2282 0.6266
vt 0.2426 0.6224
vt 0.357 0.8235
vt 0.3384 0.8477
vt 0.4436 0.9349
vt 0.2578 0.7582
vt 0.2619 0.6934
vt 0.3752 0.8447
vt 0.3635 0.8798
vt 0.4566 0.9342
vt 0.4529 0.9693
vt 0.499 0.9637
vt 0.4911 0.9814
vt 0.5414 0.9932
vt 0.528 1.0028
vt 0.3388 0.8023
vt 0.3133 0.8156
vt 0.2354 0.6245
vt 0.4671 0.9391
vt 0.4615 0.9632
vt 0.2724 0.6912
vt 0.2514 0.6956
vt 0.3023 0.76
vt 0.5347 0.998
vt 0.3873 0.9002
vt 0.3944 0.8697
vt 0.3887 0.8898
vt 0.9539 0.7448
vt 0.8973 0.5916
vt 1.0016 0.6895
vt 0.9656 0.8968
vt 0.9053 0.4659
vt 0.9546 0.5209
vt 0.821 0.4139
vt 0.9707 0.4208
vt 0.7868 0.4714
vn -0.2538 0.7557 -0.6037
vn 0.2353 0.9018 -0.3624
vn 0.2758 0.8878 -0.3686
vn -0.2342 0.7401 -0.6304
vn -0.2786 0.7744 -0.568
vn 0.2691 0.91 -0.3155
vn 0.6782 0.7347 0.0122
vn 0.6745 0.7383 0.0041
vn 0.6829 0.7302 0.0219
vn 0.0703 0.9614 -0.2662
vn -0.4039 0.8712 -0.2792
vn -0.4124 0.9108 -0.0186
vn 0.0606 0.9974 -0.0384
vn 0.0493 0.9824 0.1802
vn -0.3919 0.8861 0.2475
vn 0.5556 0.8109 -0.1839
vn 0.544 0.8367 -0.0632
vn 0.524 0.8494 0.0621
vn -0.0703 0.918 -0.3903
vn 0.0052 0.9739 -0.2271
vn 0.4157 0.8976 -0.1469
vn 0.4471 0.8129 -0.3732
vn 0.8049 0.5128 -0.2986
vn 0.7917 0.6105 -0.0225
vn 0.3474 0.7107 -0.6117
vn -0.1437 0.8293 -0.5399
vn 0.7605 0.3918 -0.5179
vn -0.2446 0.9633 -0.1109
vn -0.3943 0.919 0.0038
vn -0.3296 0.8416 0.4279
vn -0.0806 0.9119 0.4025
vn 0.0932 0.6399 0.7628
vn -0.1892 0.578 0.7938
vn 0.1454 0.9586 0.2447
vn -0.0873 0.9714 -0.2206
vn 0.3535 0.6485 0.6742
vn 0.07 0.9973 0.0234
vn 0.1913 0.9773 0.091
vn -0.2872 0.9103 0.2983
vn -0.3663 0.8961 0.2505
vn -0.4715 0.8634 0.1795
vn 0.0947 0.9907 -0.0979
vn 0.549 0.8124 -0.1965
vn 0.6012 0.7882 -0.1314
vn 0.4797 0.8336 -0.2739
vn -0.4079 0.6895 0.5985
vn 0.0314 0.9396 0.3408
vn 0.0393 0.9529 0.3008
vn -0.4322 0.6992 0.5695
vn -0.3796 0.677 0.6305
vn 0.0882 0.9407 0.3276
vn 0.4829 0.8737 -0.0586
vn 0.4749 0.8784 -0.0545
vn 0.4917 0.8685 -0.0635
vn 0.0434 0.9913 -0.1243
vn 0.3114 0.9265 0.2113
vn 0.4312 0.8419 0.3244
vn 0.1123 0.9895 -0.0915
vn 0.2035 0.9785 -0.0323
vn 0.5218 0.747 0.4119
vn -0.2382 0.8454 -0.478
vn -0.2537 0.8516 -0.4588
vn -0.2209 0.8381 -0.4989
vn -0.1732 0.9798 0.0996
vn -0.1142 0.9523 0.2831
vn 0.3074 0.8776 0.3679
vn 0.3654 0.9233 0.1187
vn 0.7598 0.6431 0.0956
vn 0.699 0.6058 0.38
vn 0.2903 0.9447 -0.1524
vn -0.2252 0.9705 -0.0859
vn 0.7578 0.6278 -0.1778
vn -0.9193 0.3661 0.1446
vn -0.9297 0.2973 0.2177
vn -0.7532 0.6233 0.2101
vn -0.634 0.764 0.1197
vn -0.9299 0.2151 0.2983
vn -0.7628 0.5854 0.2746
vn -0.3567 0.9251 0.1305
vn -0.3148 0.9457 0.0813
vn -0.4046 0.8949 0.1883
vn 0.1185 0.9663 -0.2284
vn -0.3298 0.9115 -0.2459
vn -0.3261 0.9451 0.0205
vn 0.1015 0.9948 -0.007
vn 0.1331 0.9689 0.2087
vn -0.2984 0.9099 0.288
vn 0.5324 0.8459 -0.0303
vn 0.5407 0.8249 -0.1647
vn 0.5158 0.8513 0.0965
vn -0.1752 0.9152 0.3629
vn -0.0458 0.6933 0.7192
vn 0.1963 0.7383 0.6452
vn 0.0353 0.9504 0.3091
vn 0.225 0.9516 0.2094
vn 0.4302 0.7339 0.5256
vn -0.1378 0.9853 -0.1011
vn -0.2722 0.9596 -0.0714
vn -0.009 0.9918 -0.1272
vn -0.1727 0.9799 0.0996
vn -0.1137 0.9523 0.2832
vn 0.3079 0.8774 0.3678
vn 0.3658 0.9231 0.1187
vn 0.7601 0.6427 0.0956
vn 0.6993 0.6055 0.38
vn 0.2907 0.9446 -0.1524
vn -0.2247 0.9706 -0.0859
vn 0.7581 0.6274 -0.1778
vn -0.2822 0.9324 -0.2258
vn -0.6635 0.7096 -0.237
vn -0.6727 0.7397 0.0197
vn -0.3016 0.9534 -0.0082
vn -0.2712 0.9405 0.2049
vn -0.6361 0.7197 0.2781
vn 0.1429 0.9892 -0.0311
vn 0.16 0.9724 -0.1696
vn 0.1245 0.9872 0.0992
vn 0.0314 0.9913 0.1278
vn -0.3763 0.9265 -0.0077
vn -0.5383 0.8419 -0.0375
vn -0.0444 0.9895 0.1379
vn -0.1531 0.9785 0.1378
vn -0.662 0.747 -0.0616
vn 0.46 0.8454 0.2714
vn 0.4625 0.8516 0.2468
vn 0.4568 0.838 0.2983
vn 0.0509 0.9982 0.0315
vn 0.2529 0.9651 0.068
vn 0.2498 0.7896 -0.5605
vn 0.1343 0.8538 -0.503
vn -0.0596 0.7925 0.607
vn 0.1975 0.7799 0.594
vn 0.4713 0.8786 -0.0776
vn 0.3517 0.7157 -0.6034
vn 0.4241 0.7218 0.547
vn 0.178 0.9792 0.0974
vn 0.1592 0.9277 0.3376
vn 0.3977 0.8131 0.4251
vn 0.4716 0.8535 0.2216
vn 0.6901 0.6548 0.3081
vn 0.6085 0.6321 0.4798
vn 0.4845 0.8747 -0.0162
vn 0.1863 0.9729 -0.1369
vn 0.7478 0.6533 0.1182
vn 0.1028 0.7844 0.6116
vn 0.075 0.9231 0.3772
vn -0.3072 0.8983 0.3142
vn -0.2143 0.805 0.5533
vn 0.4185 0.6774 0.6049
vn 0.4126 0.8185 0.3998
vn -0.0265 0.9942 0.1045
vn -0.3781 0.9246 0.0465
vn 0.3779 0.9131 0.1533
vn 0.147 0.8666 -0.4769
vn -0.2951 0.8146 -0.4993
vn -0.3056 0.9168 -0.257
vn 0.1197 0.9543 -0.2738
vn 0.1414 0.9879 -0.0639
vn -0.2946 0.9556 0.0098
vn 0.546 0.802 -0.2423
vn 0.556 0.7485 -0.3613
vn 0.5274 0.8409 -0.1219
vn 0.1692 0.985 -0.0338
vn 0.196 0.9804 -0.0182
vn 0.5757 0.8088 -0.1202
vn 0.5681 0.8095 -0.1484
vn 0.1584 0.9873 0.0081
vn 0.5845 0.8069 -0.0848
vn -0.2446 0.9661 0.0825
vn -0.2516 0.964 0.0864
vn -0.2598 0.9614 0.0911
vn -0.2823 0.9324 -0.2258
vn -0.6636 0.7096 -0.237
vn -0.6727 0.7397 0.0197
vn -0.3017 0.9534 -0.0082
vn -0.2711 0.9405 0.2048
vn -0.6361 0.7197 0.2781
vn 0.1426 0.9893 -0.0312
vn 0.16 0.9724 -0.1696
vn 0.1245 0.9872 0.0992
vn -0.0035 0.916 0.4011
vn 0.2844 0.9567 0.0618
vn 0.0645 0.9936 -0.0925
vn -0.1695 0.9517 0.2561
vn -0.3577 0.9219 0.1491
vn -0.1623 0.9567 -0.2415
vn -0.3884 0.7201 0.5749
vn -0.2866 0.697 0.6573
vn -0.4782 0.7301 0.4881
vn -0.2822 0.9324 -0.2258
vn -0.6635 0.7096 -0.237
vn -0.6727 0.7397 0.0197
vn -0.3016 0.9534 -0.0082
vn -0.2713 0.9404 0.2049
vn -0.6361 0.7197 0.2781
vn 0.1431 0.9892 -0.031
vn 0.1599 0.9725 -0.1696
vn 0.1245 0.9872 0.0992
vn -0.5496 0.8348 0.0313
vn -0.0003 0.9991 0.0412
vn 0.0295 0.9995 0.0107
vn -0.5492 0.8357 -0.008
vn -0.5491 0.8321 0.0784
vn 0.0566 0.9963 0.0654
vn 0.5838 0.8114 0.0281
vn 0.576 0.8171 0.0251
vn 0.5922 0.8052 0.0309
vn 0.3671 0.9196 -0.14
vn 0.4995 0.8662 -0.0116
vn 0.7836 0.6088 -0.1238
vn 0.6999 0.6195 -0.3554
vn 0.8462 0.2229 -0.484
vn 0.95 0.2181 -0.2233
vn 0.5086 0.6752 -0.5342
vn 0.2229 0.9391 -0.2616
vn 0.6886 0.2113 -0.6937
vn 0.5096 0.8435 0.1699
vn 0.5757 0.8138 0.0797
vn 0.1486 0.9847 0.0907
vn -0.0703 0.9812 0.1796
vn 0.6383 0.7695 -0.0189
vn 0.1993 0.9799 0.0116
vn -0.4527 0.8861 0.0994
vn -0.5073 0.8497 0.1436
vn -0.3815 0.9233 0.0442
vn 0.1796 0.9226 -0.3413
vn 0.2836 0.9589 0.001
vn 0.4788 0.8725 0.0975
vn 0.3137 0.9318 -0.1828
vn 0.0227 0.8663 -0.4991
vn 0.1234 0.9834 -0.133
vn 0.4749 0.8013 0.3638
vn 0.5968 0.7048 0.3835
vn 0.2132 0.9291 0.3021
vn -0.1727 0.9833 -0.0567
vn -0.1311 0.9836 0.1236
vn -0.0777 0.9767 0.2
vn -0.1364 0.9901 -0.0333
vn -0.2166 0.9725 -0.0852
vn -0.1623 0.9811 0.1049
vn -0.0552 0.9322 0.3578
vn -0.0254 0.9226 0.3849
vn -0.0893 0.9412 0.3258
vn 0.7062 0.7079 0.0167
vn 0.6457 0.7581 -0.0918
vn 0.9299 0.3595 -0.078
vn 0.9484 0.3171 -0.008
vn 0.9628 0.2551 0.0896
vn 0.6591 0.7438 0.1111
vn 0.2625 0.9649 0.0003
vn 0.2334 0.9687 -0.0847
vn 0.295 0.9498 0.1039
vn -0.3433 0.8694 0.3554
vn -0.3802 0.9212 0.0829
vn -0.7123 0.7017 0.018
vn -0.6279 0.7257 0.281
vn 0.0092 0.9197 0.3926
vn -0.0387 0.9908 0.1293
vn -0.4736 0.8536 -0.217
vn -0.7417 0.6246 -0.2444
vn -0.0842 0.985 -0.1504
vn 0.7657 0.6423 -0.0336
vn 0.5946 0.7939 -0.1273
vn 0.4706 0.832 0.2936
vn 0.6138 0.71 0.3451
vn 0.7172 0.5543 0.4223
vn 0.8869 0.4583 0.0589
vn 0.2551 0.7086 0.6579
vn 0.3577 0.6331 0.6865
vn 0.4425 0.5583 0.7018
vn -0.3318 0.8935 -0.3027
vn -0.4895 0.6215 -0.6117
vn -0.6807 0.5828 -0.4438
vn -0.4959 0.8492 -0.1816
vn -0.6246 0.7806 -0.0249
vn -0.8223 0.5091 -0.2542
vn -0.2259 0.9646 0.1361
vn -0.1136 0.9918 0.0591
vn -0.3273 0.9222 0.2059
vn 0.0695 0.9913 -0.1116
vn -0.4064 0.9031 -0.1388
vn -0.4117 0.9026 0.126
vn 0.0611 0.9913 0.1168
vn 0.05 0.9421 0.3315
vn -0.3884 0.8384 0.3823
vn 0.5574 0.8285 -0.0534
vn 0.5438 0.8362 0.0715
vn 0.5221 0.8301 0.1958
vn -0.2646 0.9642 0.0172
vn -0.2009 0.9425 0.267
vn 0.0604 0.9604 0.2721
vn 0.0493 0.9973 0.0537
vn 0.3373 0.9381 0.0792
vn 0.3304 0.9082 0.257
vn 0.0015 0.9838 -0.1794
vn -0.3097 0.9227 -0.2294
vn 0.3326 0.9372 -0.1052
vn 0.5375 0.6427 -0.5459
vn 0.6466 0.6234 -0.4396
vn 0.2038 0.8667 -0.4552
vn 0.1327 0.8493 -0.511
vn 0.0309 0.8122 -0.5826
vn 0.5496 0.5703 -0.6105
vn 0.8717 0.2752 -0.4054
vn 0.8983 0.2837 -0.3354
vn 0.8265 0.2608 -0.4989
vn 0.0975 0.7733 -0.6265
vn 0.139 0.9368 -0.321
vn 0.1562 0.9384 -0.3082
vn 0.1185 0.77 -0.627
vn 0.0711 0.7769 -0.6256
vn 0.1315 0.9494 -0.2853
vn 0.1713 0.9841 0.0476
vn 0.1728 0.9842 0.0395
vn 0.1694 0.9839 0.0575
vn -0.0718 0.997 -0.0297
vn 0.4656 0.8841 -0.041
vn 0.4932 0.8669 -0.0725
vn -0.073 0.9949 -0.07
vn -0.0703 0.9973 0.0192
vn 0.5146 0.8573 -0.0175
vn 0.8831 0.4666 -0.0488
vn 0.8788 0.4743 -0.052
vn 0.8875 0.4585 -0.0459
vn -0.4465 0.8941 -0.0338
vn -0.2724 0.8844 0.379
vn -0.0429 0.9633 0.2651
vn -0.2471 0.9629 -0.1086
vn -0.0659 0.9716 -0.2272
vn 0.1932 0.9725 0.13
vn -0.416 0.7704 -0.4832
vn -0.5304 0.7286 -0.4333
vn -0.2984 0.7981 -0.5234
vn 0.229 0.8335 -0.5029
vn 0.2566 0.5356 -0.8045
vn 0.007 0.5577 -0.83
vn 0.0175 0.8463 -0.5325
vn -0.1919 0.8369 -0.5126
vn -0.2456 0.5439 -0.8024
vn 0.0202 0.9914 -0.1292
vn 0.1581 0.9821 -0.102
vn -0.1091 0.9824 -0.1515
vn 0.4913 0.8662 0.0916
vn 0.7707 0.5788 0.2663
vn 0.8416 0.5395 0.0233
vn 0.5636 0.8203 -0.0972
vn 0.5869 0.7529 -0.2978
vn 0.8578 0.4683 -0.2118
vn 0.1781 0.9586 -0.2222
vn 0.1252 0.9873 -0.0973
vn 0.2245 0.9149 -0.3355
vn 0.1988 0.8891 -0.4124
vn -0.037 0.8824 -0.4691
vn -0.1978 0.9497 -0.2428
vn -0.0086 0.9915 -0.1297
vn -0.1849 0.9738 0.1326
vn -0.3524 0.9356 0.0229
vn 0.2314 0.9703 -0.0704
vn 0.4118 0.8471 -0.3358
vn -0.0052 0.971 0.2389
vn -0.1732 0.9798 0.0995
vn -0.1142 0.9523 0.2831
vn 0.3074 0.8776 0.3679
vn 0.3654 0.9233 0.1187
vn 0.7598 0.6431 0.0956
vn 0.699 0.6057 0.3801
vn 0.2902 0.9448 -0.1524
vn -0.2252 0.9705 -0.0859
vn 0.7578 0.6278 -0.1778
vn 0.0844 0.9799 0.1806
vn 0.2724 0.9523 0.1376
vn 0.3929 0.8774 -0.2752
vn 0.1496 0.9231 -0.3543
vn 0.1604 0.6427 -0.7491
vn 0.4386 0.6055 -0.6641
vn -0.1269 0.9446 -0.3027
vn -0.1049 0.9706 0.2165
vn -0.1121 0.6274 -0.7706
vn -0.0456 0.9826 -0.18
vn 0.1616 0.9816 0.1019
vn 0.1449 0.9767 0.1583
vn -0.0687 0.9933 -0.0928
vn 0.1196 0.9634 0.2399
vn -0.1447 0.9851 -0.0927
vn -0.2758 0.8825 -0.3809
vn -0.2408 0.8691 -0.432
vn -0.316 0.8938 -0.3181
vn 0.6651 0.6755 0.3183
vn 0.5314 0.8431 0.0822
vn 0.4056 0.9118 -0.0647
vn 0.4996 0.8284 0.2535
vn 0.2442 0.9431 -0.2258
vn 0.3605 0.9215 0.1442
vn 0.6415 0.5467 0.5381
vn 0.7314 0.4372 0.5233
vn 0.4259 0.7295 0.5351
vn 0.7066 0.4325 0.5601
vn 0.7426 0.5967 0.3041
vn 0.7202 0.6809 0.133
vn 0.6512 0.6129 0.4474
vn 0.6609 0.7471 -0.0707
vn 0.6146 0.727 0.3061
vn 0.5629 0.3468 0.7502
vn 0.6001 0.2212 0.7688
vn 0.4582 0.5805 0.6731
vn 0.7066 0.4325 0.5601
vn 0.7426 0.5967 0.3041
vn 0.7202 0.6809 0.133
vn 0.6512 0.6129 0.4474
vn 0.661 0.7471 -0.0707
vn 0.6146 0.727 0.3061
vn 0.5629 0.3468 0.7502
vn 0.6001 0.2212 0.7688
vn 0.4582 0.5805 0.6731
vn 0.6651 0.6755 0.3183
vn 0.5314 0.8431 0.0822
vn 0.4056 0.9118 -0.0647
vn 0.4996 0.8283 0.2535
vn 0.2443 0.943 -0.2259
vn 0.3605 0.9215 0.1443
vn 0.6416 0.5467 0.5381
vn 0.7314 0.4373 0.5233
vn 0.4259 0.7295 0.5351
vn 0.3757 0.7633 0.5256
vn 0.3333 0.9115 0.2408
vn 0.2724 0.961 0.0473
vn 0.2335 0.8923 0.3864
vn 0.1907 0.9668 -0.1702
vn 0.1397 0.9655 0.2197
vn 0.2745 0.6305 0.726
vn 0.3784 0.53 0.7589
vn 0.0567 0.785 0.6169
vn -0.619 0.5321 0.5776
vn -0.4145 0.7942 0.4443
vn -0.4973 0.8188 0.2868
vn -0.7381 0.546 0.3963
vn -0.4546 0.4878 0.7452
vn -0.28 0.7948 0.5384
vn -0.1363 0.9667 0.2168
vn -0.1812 0.9743 0.1341
vn -0.0942 0.952 0.2911
vn -0.5491 0.5731 -0.6083
vn -0.6841 0.5201 -0.5113
vn -0.7522 0.6481 -0.1189
vn -0.5642 0.8146 -0.1342
vn -0.4377 0.8384 0.3249
vn -0.6693 0.6549 0.3508
vn -0.3418 0.9045 -0.2552
vn -0.3884 0.61 -0.6907
vn -0.1905 0.9421 0.2761
vn 0.0543 0.9985 0.0071
vn 0.1294 0.9905 0.0462
vn 0.3578 0.9296 -0.0884
vn 0.3068 0.9261 -0.2195
vn 0.6032 0.7588 -0.2457
vn 0.4689 0.7784 -0.4173
vn 0.1658 0.9394 -0.3
vn -0.0211 0.9993 -0.0317
vn 0.3408 0.7664 -0.5445
vn -0.1573 0.9798 0.1231
vn -0.0729 0.9522 0.2965
vn 0.3565 0.8776 0.3205
vn 0.3785 0.9233 0.0656
vn 0.7657 0.6431 -0.0132
vn 0.7458 0.6059 0.277
vn 0.2657 0.9447 -0.192
vn -0.2352 0.9705 -0.0531
vn 0.7249 0.6278 -0.2836
vn 0.3537 0.9046 -0.2378
vn 0.2031 0.8685 -0.4521
vn -0.1523 0.9306 -0.3328
vn 0.0538 0.9857 -0.1594
vn 0.6321 0.7167 -0.2946
vn 0.4953 0.6983 -0.5169
vn -0.0256 0.7774 -0.6285
vn -0.3476 0.8046 -0.4814
vn 0.3304 0.6351 -0.6982
vn 0.0405 0.9864 -0.1593
vn -0.0356 0.9837 -0.1765
vn 0.1002 0.9843 -0.1454
vn 0.1002 0.9843 -0.1454
vn 0.0295 0.9973 -0.0679
vn 0.0179 0.9966 -0.0804
vn 0.1422 0.9883 0.0551
vn 0.1217 0.9805 -0.1544
vn 0.1219 0.9805 -0.1544
vn 0.0658 0.9978 0.0095
vn 0.0535 0.9976 0.0446
vn -0.1239 0.9905 0.0598
vn -0.1223 0.9906 0.0619
vn -0.2532 0.9584 -0.1321
vn -0.2553 0.9569 -0.1384
vn -0.268 0.9468 -0.178
vn -0.2682 0.9468 -0.1779
vn -0.1408 0.9898 -0.023
vn -0.1686 0.9839 -0.0589
vn -0.2286 0.9638 -0.1376
vn -0.2286 0.9637 -0.1376
vn -0.0065 0.9979 0.0642
vn -0.0065 0.9983 0.0571
vn -0.0341 0.9946 0.0983
vn -0.0443 0.995 0.0891
vn -0.0059 1.0 -0.0053
vn -0.0057 1.0 -0.0054
vn 0.2977 0.3903 0.8712
vn 0.201 0.6479 0.7347
vn 0.1617 0.7253 0.6692
vn 0.2977 0.3903 0.8712
vn -0.2659 0.8888 0.3732
vn -0.3419 0.8745 0.344
vn -0.1977 0.8346 0.5142
vn -0.2735 0.8389 0.4706
vn -0.0605 0.931 0.3601
vn 0.0664 0.8565 0.5119
vn 0.1117 0.8198 0.5616
vn 0.1765 0.9693 -0.1709
vn 0.1765 0.9693 -0.1709
vn 0.2783 0.954 -0.1111
vn 0.2895 0.9515 -0.1044
vn -0.0398 0.9982 0.0456
vn -0.0428 0.9967 0.0684
vn 0.1132 0.9925 -0.0472
vn 0.2653 0.9629 -0.0499
vn -0.0567 0.9834 0.1725
vn 0.1252 0.9444 -0.3041
vn 0.3346 0.9407 -0.0558
vn 0.2424 0.9475 -0.2084
vn 0.002 0.9321 -0.3622
vn 0.3337 0.8495 0.4087
vn 0.1986 0.9779 0.065
vn 0.5097 0.8601 0.0215
vn 0.0792 0.7397 0.6683
vn 0.4721 0.8495 -0.2355
vtan 0.4702 -0.449 -0.7598
vtan 0.4749 -0.432 -0.7667
vtan 0.4755 -0.4592 -0.7504
vtan 0.4826 -0.4744 -0.7362
vtan 0.4865 -0.3961 -0.7787
vtan 0.4887 -0.4113 -0.7694
vtan 0.4676 -0.4187 -0.7784
vtan 0.4821 -0.4362 -0.7598
vtan 0.4713 -0.4174 -0.7769
vtan 0.23 -0.2753 -0.9334
vtan 0.2087 -0.2094 -0.9553
vtan 0.0435 -0.0007 -0.9991
vtan 0.0221 -0.0398 -0.999
vtan -0.153 0.1857 -0.9706
vtan -0.1445 0.2064 -0.9677
vtan 0.2285 -0.3616 -0.9039
vtan 0.0042 -0.078 -0.9969
vtan -0.208 0.1983 -0.9578
vtan -0.9872 -0.008 0.1591
vtan -0.9903 0.0365 0.134
vtan -0.9095 0.4089 -0.0752
vtan -0.8868 0.4574 -0.0662
vtan -0.5857 0.7672 -0.2613
vtan -0.5804 0.7403 -0.3392
vtan -0.9092 0.4149 -0.0343
vtan -0.9872 -0.0821 0.1366
vtan -0.5508 0.8116 -0.1948
vtan -0.323 -0.1888 -0.9274
vtan -0.3321 -0.1387 -0.933
vtan -0.3153 0.3291 -0.8901
vtan -0.3452 0.3532 -0.8695
vtan -0.2672 0.7541 -0.5999
vtan -0.1824 0.7736 -0.6068
vtan -0.3578 0.2815 -0.8903
vtan -0.2877 -0.2366 -0.928
vtan -0.3344 0.7607 -0.5564
vtan -0.3351 0.0456 -0.9411
vtan -0.3123 0.1485 -0.9383
vtan -0.3614 0.1854 -0.9138
vtan -0.323 0.13 -0.9374
vtan -0.3148 0.0253 -0.9488
vtan -0.3366 -0.0607 -0.9397
vtan -0.3147 -0.0168 -0.949
vtan -0.3454 0.108 -0.9322
vtan -0.3388 -0.112 -0.9342
vtan -0.6209 0.2711 -0.7355
vtan -0.6167 0.2865 -0.7332
vtan -0.6133 0.2606 -0.7456
vtan -0.6027 0.2458 -0.7592
vtan -0.6143 0.3251 -0.7189
vtan -0.6175 0.3097 -0.7231
vtan -0.6198 0.2938 -0.7277
vtan -0.6118 0.285 -0.7379
vtan -0.6448 0.3141 -0.6968
vtan -0.8708 0.0985 0.4816
vtan -0.9185 0.2365 0.317
vtan -0.8609 0.2762 0.4272
vtan -0.8562 0.1431 0.4965
vtan -0.8739 0.1964 0.4446
vtan -0.8514 0.4259 0.3062
vtan -0.8516 0.0548 0.5213
vtan -0.8391 0.0422 0.5423
vtan -0.875 0.0556 0.481
vtan -0.9843 -0.1758 0.0179
vtan -0.992 -0.1248 0.0197
vtan -0.9413 0.3371 -0.0178
vtan -0.9304 0.3663 0.0148
vtan -0.6459 0.7634 -0.0021
vtan -0.6258 0.7753 -0.0851
vtan -0.9544 0.2973 0.0254
vtan -0.9737 -0.2274 -0.0156
vtan -0.6255 0.7765 0.0759
vtan -0.111 0.1115 -0.9875
vtan -0.2206 0.0239 -0.9751
vtan -0.1666 0.1281 -0.9777
vtan 0.0717 0.2122 -0.9746
vtan -0.2678 0.1598 -0.9501
vtan -0.2519 0.1222 -0.96
vtan 0.0247 0.1489 -0.9885
vtan 0.3098 0.1834 -0.933
vtan -0.208 0.1105 -0.9719
vtan -0.0216 -0.2275 -0.9735
vtan -0.0528 -0.2779 -0.9591
vtan -0.0479 0.0052 -0.9988
vtan -0.0539 -0.0016 -0.9985
vtan -0.0859 0.221 -0.9715
vtan -0.0322 0.292 -0.9559
vtan -0.0616 0.003 -0.9981
vtan -0.0535 -0.1616 -0.9854
vtan -0.0687 0.1534 -0.9858
vtan -0.9214 -0.2823 0.2671
vtan -0.8989 -0.3426 0.2731
vtan -0.9236 -0.0816 0.3745
vtan -0.9215 -0.0887 0.3781
vtan -0.8758 0.1034 0.4715
vtan -0.875 0.1958 0.4428
vtan -0.9181 -0.0888 0.3863
vtan -0.918 -0.2368 0.3181
vtan -0.8954 0.0486 0.4425
vtan -0.9844 -0.1753 0.0179
vtan -0.992 -0.1243 0.0197
vtan -0.9411 0.3377 -0.0177
vtan -0.9302 0.3668 0.0148
vtan -0.6455 0.7638 -0.0021
vtan -0.6254 0.7756 -0.0851
vtan -0.9543 0.2978 0.0254
vtan -0.9738 -0.2268 -0.0156
vtan -0.6251 0.7769 0.0759
vtan 0.0548 -0.2193 -0.9741
vtan 0.0414 -0.2814 -0.9587
vtan -0.046 -0.0152 -0.9988
vtan -0.0489 -0.024 -0.9985
vtan -0.1525 0.1682 -0.9739
vtan -0.1255 0.259 -0.9577
vtan -0.0586 -0.0229 -0.998
vtan 0.0055 -0.1727 -0.985
vtan -0.1189 0.1141 -0.9863
vtan 0.4684 0.0984 -0.878
vtan 0.598 0.2365 -0.7658
vtan 0.4897 0.2762 -0.827
vtan 0.448 0.1431 -0.8825
vtan 0.4912 0.1964 -0.8486
vtan 0.5476 0.4259 -0.7203
vtan 0.4307 0.0548 -0.9008
vtan 0.4087 0.0422 -0.9117
vtan 0.4723 0.0557 -0.8797
vtan 0.0112 0.031 -0.9995
vtan 0.0046 0.069 -0.9976
vtan -0.1484 -0.5408 -0.828
vtan -0.1464 -0.4849 -0.8622
vtan 0.2053 0.6048 -0.7695
vtan 0.143 0.5765 -0.8045
vtan -0.0324 -0.0707 -0.997
vtan -0.1065 -0.6098 -0.7854
vtan 0.0899 0.5674 -0.8185
vtan -0.9252 0.2002 -0.3222
vtan -0.9034 0.2748 -0.329
vtan -0.8003 0.534 -0.2727
vtan -0.8192 0.517 -0.2481
vtan -0.6359 0.7519 -0.1739
vtan -0.6031 0.7613 -0.2381
vtan -0.8498 0.4661 -0.246
vtan -0.9458 0.1398 -0.2931
vtan -0.6364 0.756 -0.1532
vtan -0.9937 0.1081 0.0285
vtan -0.9972 0.0681 0.0315
vtan -0.9516 -0.2867 -0.1108
vtan -0.9767 -0.1729 -0.1269
vtan -0.8968 0.4134 0.1575
vtan -0.9104 0.385 0.1513
vtan -0.9996 -0.0271 0.0045
vtan -0.9221 -0.3716 -0.1083
vtan -0.9248 0.3646 0.1087
vtan 0.0154 -0.484 -0.8749
vtan -0.0156 -0.5266 -0.85
vtan -0.0052 -0.2715 -0.9624
vtan -0.0131 -0.2742 -0.9616
vtan -0.0415 -0.0586 -0.9974
vtan 0.013 0.0142 -0.9998
vtan -0.0191 -0.2773 -0.9606
vtan -0.014 -0.4263 -0.9045
vtan -0.0244 -0.1284 -0.9914
vtan 0.2326 -0.0066 0.9725
vtan 0.22 -0.0259 0.9752
vtan 0.2228 -0.0137 0.9748
vtan 0.2476 0.0039 0.9689
vtan 0.2264 -0.0442 0.973
vtan 0.2181 -0.0556 0.9743
vtan 0.2284 -0.0253 0.9732
vtan 0.2084 -0.0333 0.9775
vtan 0.2104 -0.0357 0.977
vtan 0.0549 -0.2193 -0.9741
vtan 0.0414 -0.2814 -0.9587
vtan -0.046 -0.0152 -0.9988
vtan -0.0489 -0.0241 -0.9985
vtan -0.1525 0.1682 -0.9739
vtan -0.1255 0.2591 -0.9577
vtan -0.0587 -0.023 -0.998
vtan 0.0055 -0.1727 -0.985
vtan -0.1189 0.1141 -0.9863
vtan 0.8072 -0.2342 0.5418
vtan 0.8188 -0.2759 0.5034
vtan 0.8211 -0.0001 0.5707
vtan 0.8253 -0.005 0.5647
vtan 0.8014 0.2211 0.5557
vtan 0.7518 0.2784 0.5977
vtan 0.829 0.0005 0.5593
vtan 0.8299 -0.1621 0.5338
vtan 0.8088 0.1495 0.5688
vtan 0.0549 -0.2193 -0.9741
vtan 0.0414 -0.2814 -0.9587
vtan -0.046 -0.0152 -0.9988
vtan -0.0489 -0.024 -0.9985
vtan -0.1525 0.1682 -0.9739
vtan -0.1255 0.2591 -0.9577
vtan -0.0586 -0.0228 -0.998
vtan 0.0055 -0.1727 -0.985
vtan -0.1189 0.1141 -0.9863
vtan -0.0204 0.024 -0.9995
vtan -0.016 0.0412 -0.999
vtan -0.0103 0.011 -0.9999
vtan 0.0037 -0.0071 -1.0
vtan -0.0167 0.0828 -0.9964
vtan -0.0197 0.0666 -0.9976
vtan -0.021 0.0497 -0.9985
vtan -0.0098 0.0375 -0.9992
vtan -0.0565 0.0797 -0.9952
vtan -0.7454 0.3809 0.5471
vtan -0.728 0.427 0.5364
vtan -0.5358 0.7631 0.3613
vtan -0.5026 0.7808 0.3711
vtan -0.1841 0.9747 0.127
vtan -0.2118 0.9759 0.052
vtan -0.5424 0.7331 0.4102
vtan -0.7796 0.3329 0.5305
vtan -0.1237 0.9768 0.1747
vtan -0.0859 -0.1466 0.9855
vtan 0.0279 -0.117 0.9927
vtan -0.0687 -0.0812 0.9943
vtan -0.2884 -0.1923 0.938
vtan -0.0149 0.0369 0.9992
vtan -0.0052 -0.0108 0.9999
vtan -0.2293 -0.2235 0.9474
vtan -0.466 -0.4106 0.7837
vtan -0.0273 -0.0591 0.9979
vtan 0.9833 -0.1789 0.0336
vtan 0.9589 -0.2836 0.0051
vtan 0.8727 -0.4851 0.0554
vtan 0.9495 -0.3078 0.0604
vtan 0.9968 -0.058 -0.0553
vtan 0.9825 -0.1399 -0.1229
vtan 0.8451 -0.5306 0.0655
vtan 0.7537 -0.6564 0.0336
vtan 0.977 -0.2031 -0.0647
vtan 0.9627 0.1563 -0.2208
vtan 0.9822 0.1458 -0.1184
vtan 0.9855 0.1055 -0.1325
vtan 0.8746 0.1046 -0.4734
vtan 0.9606 0.1968 -0.1965
vtan 0.9584 0.182 -0.2198
vtan 0.9904 0.0966 -0.0988
vtan 0.9991 0.0361 -0.0207
vtan 0.9627 0.1654 -0.214
vtan -0.0832 0.0595 0.9948
vtan -0.0237 0.14 0.9899
vtan 0.0315 0.1335 0.9905
vtan -0.0341 0.127 0.9913
vtan -0.1093 0.0641 0.9919
vtan -0.1602 -0.0055 0.9871
vtan -0.1308 0.0352 0.9908
vtan -0.0386 0.0963 0.9946
vtan -0.1772 -0.0525 0.9828
vtan -0.93 -0.3675 0.0006
vtan -0.9236 -0.3828 0.0182
vtan -0.7018 -0.7116 -0.0317
vtan -0.7677 -0.6369 -0.0705
vtan -0.9988 -0.0108 0.0487
vtan -0.9978 -0.0454 0.0491
vtan -0.8756 -0.483 0.0108
vtan -0.6415 -0.767 -0.0132
vtan -0.9964 -0.0847 0.0027
vtan 0.6144 -0.715 0.3335
vtan 0.764 -0.5085 0.3971
vtan 0.7572 -0.5517 0.3497
vtan 0.6206 -0.7042 0.345
vtan 0.4618 -0.8319 0.3076
vtan 0.4323 -0.8681 0.244
vtan 0.7295 -0.5876 0.35
vtan 0.5943 -0.7214 0.3556
vtan 0.5105 -0.8002 0.3147
vtan 0.7898 0.0877 -0.6071
vtan 0.7905 0.0202 -0.6121
vtan 0.677 0.2691 -0.685
vtan 0.6841 0.2533 -0.684
vtan 0.5415 0.4098 -0.734
vtan 0.5204 0.4921 -0.6978
vtan 0.6743 0.2557 -0.6928
vtan 0.7522 0.1247 -0.647
vtan 0.5846 0.3688 -0.7226
vtan 0.2316 -0.1248 -0.9648
vtan 0.2097 -0.0557 -0.9762
vtan 0.0433 0.1575 -0.9866
vtan 0.0254 0.1155 -0.993
vtan -0.1517 0.3353 -0.9298
vtan -0.1434 0.3549 -0.9239
vtan 0.2306 -0.2163 -0.9487
vtan 0.0035 0.0829 -0.9966
vtan -0.206 0.3455 -0.9155
vtan -0.9641 -0.2641 -0.0278
vtan -0.9793 -0.1996 -0.0323
vtan -0.9981 0.0623 0.0014
vtan -0.9987 0.0486 0.0142
vtan -0.9411 0.334 0.0522
vtan -0.9416 0.3359 0.0238
vtan -0.9998 0.0052 0.0197
vtan -0.9459 -0.3235 -0.0242
vtan -0.9381 0.3402 0.065
vtan -0.1755 -0.548 -0.8179
vtan -0.1113 -0.493 -0.8629
vtan -0.1437 -0.4334 -0.8896
vtan -0.1403 -0.4943 -0.8579
vtan -0.1634 -0.5709 -0.8046
vtan -0.2174 -0.6079 -0.7636
vtan -0.1802 -0.5894 -0.7875
vtan -0.1593 -0.5011 -0.8506
vtan -0.2405 -0.6377 -0.7318
vtan 0.981 -0.1808 -0.0704
vtan 0.9827 -0.1705 -0.0718
vtan 0.981 -0.1839 -0.0626
vtan 0.9804 -0.1908 -0.049
vtan 0.9866 -0.147 -0.0704
vtan 0.9856 -0.156 -0.0647
vtan 0.9828 -0.1672 -0.0788
vtan 0.9833 -0.17 -0.0655
vtan 0.9832 -0.1647 -0.0789
vtan -0.0591 -0.034 -0.9977
vtan -0.0481 -0.021 -0.9986
vtan -0.0562 -0.0514 -0.9971
vtan -0.0505 -0.0738 -0.996
vtan -0.0321 0.017 -0.9993
vtan -0.0421 0.0048 -0.9991
vtan -0.0499 -0.01 -0.9987
vtan -0.0445 -0.027 -0.9986
vtan -0.0692 0.0341 -0.997
vtan -0.815 -0.3908 0.4279
vtan -0.7813 -0.4332 0.4493
vtan -0.8716 -0.1658 0.4613
vtan -0.8674 -0.1699 0.4677
vtan -0.8733 0.054 0.4841
vtan -0.8952 0.1205 0.429
vtan -0.8644 -0.1698 0.4733
vtan -0.8251 -0.3262 0.4614
vtan -0.8803 -0.0183 0.474
vtan 0.9731 -0.1816 0.1421
vtan 0.9588 -0.2461 0.142
vtan 0.9999 -0.0105 0.0014
vtan 0.9998 -0.0201 0.0009
vtan 0.9802 0.1377 -0.142
vtan 0.9627 0.2334 -0.1365
vtan 0.9997 -0.0216 -0.0095
vtan 0.985 -0.1496 0.0861
vtan 0.9904 0.0944 -0.1012
vtan -0.3446 0.0967 0.9337
vtan -0.346 0.0293 0.9378
vtan -0.199 0.2698 0.9421
vtan -0.2066 0.254 0.9449
vtan -0.0519 0.402 0.9142
vtan -0.0491 0.4849 0.8732
vtan -0.1937 0.2556 0.9472
vtan -0.2903 0.1303 0.948
vtan -0.0957 0.3633 0.9268
vtan 0.481 -0.4551 -0.7493
vtan 0.5087 -0.3874 -0.7689
vtan 0.5282 -0.1054 -0.8426
vtan 0.498 -0.1082 -0.8604
vtan 0.477 0.2069 -0.8542
vtan 0.5363 0.2219 -0.8143
vtan 0.4856 -0.1779 -0.8559
vtan 0.4384 -0.5073 -0.7419
vtan 0.4614 0.2143 -0.8609
vtan -0.9843 -0.1758 0.0179
vtan -0.992 -0.1248 0.0197
vtan -0.9413 0.3372 -0.0177
vtan -0.9304 0.3663 0.0148
vtan -0.6459 0.7634 -0.0021
vtan -0.6257 0.7754 -0.085
vtan -0.9545 0.2973 0.0255
vtan -0.9737 -0.2274 -0.0156
vtan -0.6255 0.7766 0.0759
vtan -0.0666 -0.1753 0.9823
vtan -0.0654 -0.1243 0.9901
vtan -0.0984 0.3376 0.9361
vtan -0.065 0.3667 0.928
vtan -0.0575 0.7637 0.643
vtan -0.1384 0.7756 0.6158
vtan -0.0565 0.2978 0.953
vtan -0.0991 -0.2269 0.9689
vtan 0.022 0.7769 0.6293
vtan -0.8445 0.0583 0.5324
vtan -0.8385 0.0822 0.5386
vtan -0.8449 0.0389 0.5335
vtan -0.853 -0.0103 0.5218
vtan -0.8599 -0.0202 0.51
vtan -0.8476 -0.075 0.5253
vtan -0.8506 -0.0395 0.5243
vtan -0.8511 0.0249 0.5245
vtan -0.834 -0.1019 0.5423
vtan 0.7341 -0.6696 -0.113
vtan 0.8465 -0.5247 -0.0902
vtan 0.9096 -0.4096 -0.0698
vtan 0.8659 -0.4866 -0.1162
vtan 0.9522 -0.2773 -0.1282
vtan 0.9207 -0.3268 -0.2132
vtan 0.6971 -0.7082 -0.1117
vtan 0.5902 -0.7903 -0.1646
vtan 0.8999 -0.4026 -0.1674
vtan 0.4283 -0.8914 0.1479
vtan 0.5541 -0.8025 0.2213
vtan 0.6375 -0.7251 0.2602
vtan 0.5953 -0.7783 0.1996
vtan 0.7397 -0.6327 0.2291
vtan 0.7256 -0.6732 0.1421
vtan 0.3846 -0.9133 0.1337
vtan 0.2942 -0.9547 0.045
vtan 0.6706 -0.7228 0.167
vtan 0.4283 -0.8914 0.1479
vtan 0.5541 -0.8025 0.2214
vtan 0.6375 -0.7251 0.2602
vtan 0.5953 -0.7783 0.1997
vtan 0.7397 -0.6327 0.2291
vtan 0.7256 -0.6732 0.1421
vtan 0.3846 -0.9133 0.1337
vtan 0.2942 -0.9547 0.045
vtan 0.6706 -0.7228 0.167
vtan 0.7341 -0.6696 -0.113
vtan 0.8465 -0.5248 -0.0902
vtan 0.9096 -0.4096 -0.0699
vtan 0.8658 -0.4866 -0.1163
vtan 0.9522 -0.2774 -0.1282
vtan 0.9207 -0.3268 -0.2132
vtan 0.6971 -0.7082 -0.1117
vtan 0.5902 -0.7903 -0.1646
vtan 0.8999 -0.4026 -0.1674
vtan 0.7891 -0.5609 0.2505
vtan 0.8636 -0.3977 0.31
vtan 0.8974 -0.2714 0.3478
vtan 0.8868 -0.3584 0.2919
vtan 0.9434 -0.1326 0.304
vtan 0.9581 -0.1878 0.2163
vtan 0.7594 -0.6053 0.2386
vtan 0.6921 -0.7064 0.1483
vtan 0.9291 -0.2676 0.2552
vtan -0.6365 0.091 -0.7659
vtan -0.6507 0.0827 -0.7548
vtan -0.507 -0.006 -0.8619
vtan -0.4909 -0.0317 -0.8706
vtan -0.7834 0.1792 -0.5952
vtan -0.7676 0.1515 -0.6228
vtan -0.6555 0.076 -0.7513
vtan -0.5655 0.0084 -0.8247
vtan -0.7237 0.1353 -0.6767
vtan 0.0733 -0.692 -0.7181
vtan 0.0528 -0.6639 -0.7459
vtan -0.0965 -0.2868 -0.9531
vtan -0.1542 -0.2636 -0.9522
vtan -0.3108 0.1979 -0.9296
vtan -0.2315 0.2648 -0.9361
vtan -0.1427 -0.3184 -0.9372
vtan 0.1113 -0.713 -0.6923
vtan -0.3829 0.1877 -0.9045
vtan -0.6717 0.0312 0.7401
vtan -0.6807 0.0549 0.7305
vtan -0.6817 0.3247 0.6556
vtan -0.6349 0.3709 0.6777
vtan -0.5848 0.6303 0.5107
vtan -0.5266 0.6257 0.5755
vtan -0.6104 0.3366 0.717
vtan -0.6877 0.0085 0.7259
vtan -0.4312 0.642 0.6339
vtan -0.9718 -0.1758 0.1574
vtan -0.9791 -0.1249 0.1603
vtan -0.9343 0.3372 0.116
vtan -0.9189 0.3663 0.1467
vtan -0.6396 0.7634 0.0895
vtan -0.6316 0.7753 0.0046
vtan -0.9412 0.2973 0.1606
vtan -0.966 -0.2274 0.1227
vtan -0.6084 0.7766 0.1639
vtan -0.8285 0.421 0.3694
vtan -0.8265 0.3996 0.3964
vtan -0.8655 0.037 0.4995
vtan -0.8872 0.1204 0.4453
vtan -0.6848 0.6946 0.2206
vtan -0.6962 0.6749 0.2446
vtan -0.8443 0.3198 0.43
vtan -0.843 -0.0434 0.5362
vtan -0.7382 0.6348 0.2281
vtan -0.1317 0.1633 0.9777
vtan -0.1612 0.1686 0.9724
vtan 0.2603 0.1151 0.9586
vtan 0.3442 0.1028 0.9332
vtan 0.0017 0.0679 0.9977
vtan 0.0221 0.08 0.9966
vtan 0.0738 -0.0661 0.9951
vtan 0.3487 -0.1878 -0.9182
vtan 0.3631 -0.1888 -0.9124
vtan 0.1571 -0.001 -0.9876
vtan 0.1354 0.037 -0.9901
vtan 0.1706 0.0806 -0.982
vtan 0.1638 0.0816 -0.9831
vtan 0.1173 -0.1051 -0.9875
vtan 0.0607 -0.127 -0.99
vtan -0.2118 -0.2382 -0.9478
vtan -0.2328 -0.2429 -0.9417
vtan -0.8621 -0.134 -0.4888
vtan -0.859 -0.176 -0.4809
vtan -0.8066 -0.2666 -0.5275
vtan -0.8044 -0.2666 -0.531
vtan -0.3263 0.0586 -0.9434
vtan -0.3001 0.0525 -0.9525
vtan -0.7755 0.0357 -0.6304
vtan -0.8198 0.0148 -0.5725
vtan 0.3443 -0.0029 -0.9389
vtan 0.2842 -0.0035 -0.9587
vtan 0.5042 0.7107 -0.4906
vtan 0.6086 0.5051 -0.612
vtan 0.6828 0.4074 -0.6065
vtan 0.4741 0.7317 -0.4898
vtan 0.2159 0.4323 -0.8755
vtan 0.2169 0.4296 -0.8766
vtan 0.0692 0.5352 -0.8419
vtan -0.0099 0.4868 -0.8735
vtan 0.1383 0.3651 -0.9206
vtan 0.1442 0.4994 -0.8543
vtan 0.1475 0.5452 -0.8252
vtan -0.3103 0.2196 0.9249
vtan -0.3201 0.2207 0.9213
vtan -0.2495 0.1835 0.9508
vtan -0.161 0.1559 0.9745
vtan 0.8112 0.0056 0.5847
vtan 0.9116 0.011 0.411
vtan 0.2998 0.0112 0.9539
vtan 0.1275 0.0162 0.9917
vtan 0.9357 -0.0079 0.3527
vtan -0.2642 -0.2637 -0.9277
vtan -0.3597 0.0727 -0.9303
vtan -0.1914 -0.1639 -0.9677
vtan -0.3672 -0.3362 -0.8673
vtan -0.4628 0.5253 -0.714
vtan -0.5574 0.1672 -0.8132
vtan -0.4344 0.2788 -0.8565
vtan -0.6748 0.5332 -0.5103
vtan -0.5363 0.0648 -0.8415
f 0/0/0/0 1/1/1/1 2/2/2/2 
f 0/0/0/0 2/2/2/2 3/3/3/3 
f 1/1/1/1 0/0/0/0 4/4/4/4 
f 1/1/1/1 4/4/4/4 5/5/5/5 
f 2/2/2/2 1/1/1/1 6/6/6/6 
f 2/2/2/2 6/6/6/6 7/7/7/7 
f 1/1/1/1 5/5/5/5 8/8/8/8 
f 1/1/1/1 8/8/8/8 6/6/6/6 
f 9/9/9/9 10/10/10/10 11/11/11/11 
f 9/9/9/9 11/11/11/11 12/12/12/12 
f 13/13/13/13 12/12/12/12 11/11/11/11 
f 13/13/13/13 11/11/11/11 14/14/14/14 
f 15/15/15/15 9/9/9/9 12/12/12/12 
f 15/15/15/15 12/12/12/12 16/16/16/16 
f 17/17/17/17 16/16/16/16 12/12/12/12 
f 17/17/17/17 12/12/12/12 13/13/13/13 
f 18/18/18/18 19/19/19/19 20/20/20/20 
f 18/18/18/18 20/20/20/20 21/21/21/21 
f 22/22/22/22 21/21/21/21 20/20/20/20 
f 22/22/22/22 20/20/20/20 23/23/23/23 
f 24/24/24/24 25/25/25/25 18/18/18/18 
f 24/24/24/24 18/18/18/18 21/21/21/21 
f 24/24/24/24 21/21/21/21 22/22/22/22 
f 24/24/24/24 22/22/22/22 26/26/26/26 
f 27/18/27/27 28/19/28/28 29/20/29/29 
f 27/18/27/27 29/20/29/29 30/21/30/30 
f 31/22/31/31 30/21/30/30 29/20/29/29 
f 31/22/31/31 29/20/29/29 32/23/32/32 
f 33/24/33/33 34/25/34/34 27/18/27/27 
f 33/24/33/33 27/18/27/27 30/21/30/30 
f 33/24/33/33 30/21/30/30 31/22/31/31 
f 33/24/33/33 31/22/31/31 35/26/35/35 
f 36/27/36/36 37/28/37/37 38/29/38/38 
f 36/27/36/36 38/29/38/38 39/30/39/39 
f 36/27/36/36 39/30/39/39 40/31/40/40 
f 36/27/36/36 40/31/40/40 41/32/41/41 
f 42/33/42/42 43/34/43/43 37/28/37/37 
f 42/33/42/42 37/28/37/37 36/27/36/36 
f 44/35/44/44 42/33/42/42 36/27/36/36 
f 44/35/44/44 36/27/36/36 41/32/41/41 
f 45/0/45/45 46/1/46/46 47/2/47/47 
f 45/0/45/45 47/2/47/47 48/3/48/48 
f 49/4/49/49 50/5/50/50 46/1/46/46 
f 49/4/49/49 46/1/46/46 45/0/45/45 
f 47/2/47/47 46/1/46/46 51/6/51/51 
f 47/2/47/47 51/6/51/51 52/7/52/52 
f 50/5/50/50 53/8/53/53 51/6/51/51 
f 50/5/50/50 51/6/51/51 46/1/46/46 
f 54/36/54/54 55/37/55/55 56/38/56/56 
f 54/36/54/54 56/38/56/56 57/39/57/57 
f 58/40/58/58 57/39/57/57 56/38/56/56 
f 58/40/58/58 56/38/56/56 59/41/59/59 
f 60/42/60/60 61/43/61/61 54/36/54/54 
f 60/42/60/60 54/36/54/54 57/39/57/57 
f 62/44/62/62 60/42/60/60 57/39/57/57 
f 62/44/62/62 57/39/57/57 58/40/58/58 
f 63/18/63/63 64/19/64/64 65/20/65/65 
f 63/18/63/63 65/20/65/65 66/21/66/66 
f 67/22/67/67 66/21/66/66 65/20/65/65 
f 67/22/67/67 65/20/65/65 68/23/68/68 
f 69/24/69/69 70/25/70/70 63/18/63/63 
f 69/24/69/69 63/18/63/63 66/21/66/66 
f 69/24/69/69 66/21/66/66 67/22/67/67 
f 69/24/69/69 67/22/67/67 71/26/71/71 
f 72/45/72/72 73/46/73/73 74/47/74/74 
f 72/45/72/72 74/47/74/74 75/48/75/75 
f 73/46/73/73 76/49/76/76 77/50/77/77 
f 73/46/73/73 77/50/77/77 74/47/74/74 
f 75/48/75/75 74/47/74/74 78/51/78/78 
f 75/48/75/75 78/51/78/78 79/52/79/79 
f 74/47/74/74 77/50/77/77 80/53/80/80 
f 74/47/74/74 80/53/80/80 78/51/78/78 
f 81/54/81/81 82/55/82/82 83/56/83/83 
f 81/54/81/81 83/56/83/83 84/57/84/84 
f 85/58/85/85 84/57/84/84 83/56/83/83 
f 85/58/85/85 83/56/83/83 86/59/86/86 
f 87/60/87/87 88/61/88/88 81/54/81/81 
f 87/60/87/87 81/54/81/81 84/57/84/84 
f 87/60/87/87 84/57/84/84 85/58/85/85 
f 87/60/87/87 85/58/85/85 89/62/89/89 
f 90/54/90/90 91/55/91/91 92/56/92/92 
f 90/54/90/90 92/56/92/92 93/57/93/93 
f 94/58/94/94 93/57/93/93 92/56/92/92 
f 94/58/94/94 92/56/92/92 95/59/95/95 
f 96/60/96/96 97/61/97/97 90/54/90/90 
f 96/60/96/96 90/54/90/90 93/57/93/93 
f 96/60/96/96 93/57/93/93 94/58/94/94 
f 96/60/96/96 94/58/94/94 98/62/98/98 
f 99/18/99/99 100/19/100/100 101/20/101/101 
f 99/18/99/99 101/20/101/101 102/21/102/102 
f 103/22/103/103 102/21/102/102 101/20/101/101 
f 103/22/103/103 101/20/101/101 104/23/104/104 
f 105/24/105/105 106/25/106/106 99/18/99/99 
f 105/24/105/105 99/18/99/99 102/21/102/102 
f 105/24/105/105 102/21/102/102 103/22/103/103 
f 105/24/105/105 103/22/103/103 107/26/107/107 
f 108/54/108/108 109/55/109/109 110/56/110/110 
f 108/54/108/108 110/56/110/110 111/57/111/111 
f 112/58/112/112 111/57/111/111 110/56/110/110 
f 112/58/112/112 110/56/110/110 113/59/113/113 
f 114/60/114/114 115/61/115/115 108/54/108/108 
f 114/60/114/114 108/54/108/108 111/57/111/111 
f 114/60/114/114 111/57/111/111 112/58/112/112 
f 114/60/114/114 112/58/112/112 116/62/116/116 
f 117/36/117/117 118/37/118/118 119/38/119/119 
f 117/36/117/117 119/38/119/119 120/39/120/120 
f 121/40/121/121 120/39/120/120 119/38/119/119 
f 121/40/121/121 119/38/119/119 122/41/122/122 
f 123/42/123/123 124/43/124/124 117/36/117/117 
f 123/42/123/123 117/36/117/117 120/39/120/120 
f 125/44/125/125 123/42/123/123 120/39/120/120 
f 125/44/125/125 120/39/120/120 121/40/121/121 
f 126/0/126/126 127/1/127/127 128/2/128/128 
f 126/0/126/126 128/2/128/128 129/3/129/129 
f 126/0/126/126 130/4/130/130 131/5/131/131 
f 126/0/126/126 131/5/131/131 127/1/127/127 
f 128/2/128/128 127/1/127/127 132/6/132/132 
f 128/2/128/128 132/6/132/132 133/7/133/133 
f 131/5/131/131 134/8/134/134 132/6/132/132 
f 131/5/131/131 132/6/132/132 127/1/127/127 
f 135/63/135/135 136/64/136/136 137/65/137/137 
f 135/63/135/135 137/65/137/137 138/66/138/138 
f 139/67/139/139 138/66/138/138 137/65/137/137 
f 139/67/139/139 137/65/137/137 140/68/140/140 
f 141/69/141/141 142/70/142/142 135/63/135/135 
f 141/69/141/141 135/63/135/135 138/66/138/138 
f 141/69/141/141 138/66/138/138 139/67/139/139 
f 141/69/141/141 139/67/139/139 143/71/143/143 
f 144/72/144/144 145/73/145/145 146/74/146/146 
f 144/72/144/144 146/74/146/146 147/75/147/147 
f 144/72/144/144 148/76/148/148 149/77/149/149 
f 144/72/144/144 149/77/149/149 145/73/145/145 
f 146/74/146/146 145/73/145/145 150/78/150/150 
f 146/74/146/146 150/78/150/150 151/79/151/151 
f 149/77/149/149 152/80/152/152 150/78/150/150 
f 149/77/149/149 150/78/150/150 145/73/145/145 
f 153/54/153/153 154/55/154/154 155/56/155/155 
f 153/54/153/153 155/56/155/155 156/57/156/156 
f 157/58/157/157 156/57/156/156 155/56/155/155 
f 157/58/157/157 155/56/155/155 158/59/158/158 
f 159/60/159/159 160/61/160/160 153/54/153/153 
f 159/60/159/159 153/54/153/153 156/57/156/156 
f 159/60/159/159 156/57/156/156 157/58/157/157 
f 159/60/159/159 157/58/157/157 161/62/161/161 
f 162/2/162/162 163/1/163/163 164/0/164/164 
f 162/2/162/162 164/0/164/164 165/3/165/165 
f 163/1/163/163 166/5/166/166 167/4/167/167 
f 163/1/163/163 167/4/167/167 164/0/164/164 
f 162/2/162/162 168/7/168/168 169/6/169/169 
f 162/2/162/162 169/6/169/169 163/1/163/163 
f 163/1/163/163 169/6/169/169 170/8/170/170 
f 163/1/163/163 170/8/170/170 166/5/166/166 
f 171/54/171/171 172/55/172/172 173/56/173/173 
f 171/54/171/171 173/56/173/173 174/57/174/174 
f 175/58/175/175 174/57/174/174 173/56/173/173 
f 175/58/175/175 173/56/173/173 176/59/176/176 
f 177/60/177/177 178/61/178/178 171/54/171/171 
f 177/60/177/177 171/54/171/171 174/57/174/174 
f 177/60/177/177 174/57/174/174 175/58/175/175 
f 177/60/177/177 175/58/175/175 179/62/179/179 
f 180/54/180/180 181/55/181/181 182/56/182/182 
f 180/54/180/180 182/56/182/182 183/57/183/183 
f 184/58/184/184 183/57/183/183 182/56/182/182 
f 184/58/184/184 182/56/182/182 185/59/185/185 
f 186/60/186/186 187/61/187/187 180/54/180/180 
f 186/60/186/186 180/54/180/180 183/57/183/183 
f 186/60/186/186 183/57/183/183 184/58/184/184 
f 186/60/186/186 184/58/184/184 188/62/188/188 
f 189/54/189/189 190/55/190/190 191/56/191/191 
f 189/54/189/189 191/56/191/191 192/57/192/192 
f 193/58/193/193 192/57/192/192 191/56/191/191 
f 193/58/193/193 191/56/191/191 194/59/194/194 
f 195/60/195/195 196/61/196/196 189/54/189/189 
f 195/60/195/195 189/54/189/189 192/57/192/192 
f 195/60/195/195 192/57/192/192 193/58/193/193 
f 195/60/195/195 193/58/193/193 197/62/197/197 
f 198/0/198/198 199/1/199/199 200/2/200/200 
f 198/0/198/198 200/2/200/200 201/3/201/201 
f 202/4/202/202 203/5/203/203 199/1/199/199 
f 202/4/202/202 199/1/199/199 198/0/198/198 
f 200/2/200/200 199/1/199/199 204/6/204/204 
f 200/2/200/200 204/6/204/204 205/7/205/205 
f 203/5/203/203 206/8/206/206 204/6/204/204 
f 203/5/203/203 204/6/204/204 199/1/199/199 
f 207/18/207/207 208/19/208/208 209/20/209/209 
f 207/18/207/207 209/20/209/209 210/21/210/210 
f 211/22/211/211 210/21/210/210 209/20/209/209 
f 211/22/211/211 209/20/209/209 212/23/212/212 
f 213/24/213/213 214/25/214/214 207/18/207/207 
f 213/24/213/213 207/18/207/207 210/21/210/210 
f 213/24/213/213 210/21/210/210 211/22/211/211 
f 213/24/213/213 211/22/211/211 215/26/215/215 
f 216/45/216/216 217/46/217/217 218/47/218/218 
f 216/45/216/216 218/47/218/218 219/48/219/219 
f 217/46/217/217 220/49/220/220 221/50/221/221 
f 217/46/217/217 221/50/221/221 218/47/218/218 
f 219/48/219/219 218/47/218/218 222/51/222/222 
f 219/48/219/219 222/51/222/222 223/52/223/223 
f 218/47/218/218 221/50/221/221 224/53/224/224 
f 218/47/218/218 224/53/224/224 222/51/222/222 
f 225/81/225/225 226/82/226/226 227/83/227/227 
f 225/81/225/225 227/83/227/227 228/84/228/228 
f 229/85/229/229 230/86/230/230 226/82/226/226 
f 229/85/229/229 226/82/226/226 225/81/225/225 
f 227/83/227/227 226/82/226/226 231/87/231/231 
f 227/83/227/227 231/87/231/231 232/88/232/232 
f 226/82/226/226 230/86/230/230 233/89/233/233 
f 226/82/226/226 233/89/233/233 231/87/231/231 
f 234/46/234/234 235/47/235/235 236/48/236/236 
f 234/46/234/234 236/48/236/236 237/45/237/237 
f 234/46/234/234 238/49/238/238 239/50/239/239 
f 234/46/234/234 239/50/239/239 235/47/235/235 
f 236/48/236/236 235/47/235/235 240/51/240/240 
f 236/48/236/236 240/51/240/240 241/52/241/241 
f 235/47/235/235 239/50/239/239 242/53/242/242 
f 235/47/235/235 242/53/242/242 240/51/240/240 
f 243/27/243/243 244/28/244/244 245/29/245/245 
f 243/27/243/243 245/29/245/245 246/30/246/246 
f 243/27/243/243 246/30/246/246 247/31/247/247 
f 243/27/243/243 247/31/247/247 248/32/248/248 
f 249/33/249/249 250/34/250/250 244/28/244/244 
f 249/33/249/249 244/28/244/244 243/27/243/243 
f 251/35/251/251 249/33/249/249 243/27/243/243 
f 251/35/251/251 243/27/243/243 248/32/248/248 
f 252/72/252/252 253/73/253/253 254/74/254/254 
f 252/72/252/252 254/74/254/254 255/75/255/255 
f 252/72/252/252 256/76/256/256 257/77/257/257 
f 252/72/252/252 257/77/257/257 253/73/253/253 
f 254/74/254/254 253/73/253/253 258/78/258/258 
f 254/74/254/254 258/78/258/258 259/79/259/259 
f 257/77/257/257 260/80/260/260 258/78/258/258 
f 257/77/257/257 258/78/258/258 253/73/253/253 
f 261/56/261/261 262/55/262/262 263/54/263/263 
f 261/56/261/261 263/54/263/263 264/57/264/264 
f 265/58/265/265 266/59/266/266 261/56/261/261 
f 265/58/265/265 261/56/261/261 264/57/264/264 
f 264/57/264/264 263/54/263/263 267/61/267/267 
f 264/57/264/264 267/61/267/267 268/60/268/268 
f 265/58/265/265 264/57/264/264 268/60/268/268 
f 265/58/265/265 268/60/268/268 269/62/269/269 
f 270/54/270/270 271/55/271/271 272/56/272/272 
f 270/54/270/270 272/56/272/272 273/57/273/273 
f 274/58/274/274 273/57/273/273 272/56/272/272 
f 274/58/274/274 272/56/272/272 275/59/275/275 
f 276/60/276/276 277/61/277/277 270/54/270/270 
f 276/60/276/276 270/54/270/270 273/57/273/273 
f 276/60/276/276 273/57/273/273 274/58/274/274 
f 276/60/276/276 274/58/274/274 278/62/278/278 
f 279/9/279/279 280/10/280/280 281/11/281/281 
f 279/9/279/279 281/11/281/281 282/12/282/282 
f 283/13/283/283 282/12/282/282 281/11/281/281 
f 283/13/283/283 281/11/281/281 284/14/284/284 
f 285/15/285/285 279/9/279/279 282/12/282/282 
f 285/15/285/285 282/12/282/282 286/16/286/286 
f 287/17/287/287 286/16/286/286 282/12/282/282 
f 287/17/287/287 282/12/282/282 283/13/283/283 
f 288/90/288/288 289/91/289/289 290/92/290/290 
f 288/90/288/288 290/92/290/290 291/93/291/291 
f 292/94/292/292 291/93/291/291 290/92/290/290 
f 292/94/292/292 290/92/290/290 293/95/293/293 
f 294/96/294/294 295/97/295/295 288/90/288/288 
f 294/96/294/294 288/90/288/288 291/93/291/291 
f 294/96/294/294 291/93/291/291 292/94/292/292 
f 294/96/294/294 292/94/292/292 296/98/296/296 
f 297/27/297/297 298/28/298/298 299/29/299/299 
f 297/27/297/297 299/29/299/299 300/30/300/300 
f 297/27/297/297 300/30/300/300 301/31/301/301 
f 297/27/297/297 301/31/301/301 302/32/302/302 
f 303/33/303/303 304/34/304/304 298/28/298/298 
f 303/33/303/303 298/28/298/298 297/27/297/297 
f 305/35/305/305 303/33/303/303 297/27/297/297 
f 305/35/305/305 297/27/297/297 302/32/302/302 
f 306/0/306/306 307/1/307/307 308/2/308/308 
f 306/0/306/306 308/2/308/308 309/3/309/309 
f 310/4/310/310 311/5/311/311 307/1/307/307 
f 310/4/310/310 307/1/307/307 306/0/306/306 
f 308/2/308/308 307/1/307/307 312/6/312/312 
f 308/2/308/308 312/6/312/312 313/7/313/313 
f 307/1/307/307 311/5/311/311 314/8/314/314 
f 307/1/307/307 314/8/314/314 312/6/312/312 
f 315/0/315/315 316/1/316/316 317/2/317/317 
f 315/0/315/315 317/2/317/317 318/3/318/318 
f 319/4/319/319 320/5/320/320 316/1/316/316 
f 319/4/319/319 316/1/316/316 315/0/315/315 
f 317/2/317/317 316/1/316/316 321/6/321/321 
f 317/2/317/317 321/6/321/321 322/7/322/322 
f 320/5/320/320 323/8/323/323 321/6/321/321 
f 320/5/320/320 321/6/321/321 316/1/316/316 
f 324/54/324/324 325/55/325/325 326/56/326/326 
f 324/54/324/324 326/56/326/326 327/57/327/327 
f 328/58/328/328 327/57/327/327 326/56/326/326 
f 328/58/328/328 326/56/326/326 329/59/329/329 
f 330/60/330/330 331/61/331/331 324/54/324/324 
f 330/60/330/330 324/54/324/324 327/57/327/327 
f 330/60/330/330 327/57/327/327 328/58/328/328 
f 330/60/330/330 328/58/328/328 332/62/332/332 
f 333/54/333/333 334/55/334/334 335/56/335/335 
f 333/54/333/333 335/56/335/335 336/57/336/336 
f 337/58/337/337 336/57/336/336 335/56/335/335 
f 337/58/337/337 335/56/335/335 338/59/338/338 
f 339/60/339/339 340/61/340/340 333/54/333/333 
f 339/60/339/339 333/54/333/333 336/57/336/336 
f 339/60/339/339 336/57/336/336 337/58/337/337 
f 339/60/339/339 337/58/337/337 341/62/341/341 
f 342/54/342/342 343/55/343/343 344/56/344/344 
f 342/54/342/342 344/56/344/344 345/57/345/345 
f 346/58/346/346 345/57/345/345 344/56/344/344 
f 346/58/346/346 344/56/344/344 347/59/347/347 
f 348/60/348/348 349/61/349/349 342/54/342/342 
f 348/60/348/348 342/54/342/342 345/57/345/345 
f 348/60/348/348 345/57/345/345 346/58/346/346 
f 348/60/348/348 346/58/346/346 350/62/350/350 
f 351/63/351/351 352/64/352/352 353/65/353/353 
f 351/63/351/351 353/65/353/353 354/66/354/354 
f 355/67/355/355 354/66/354/354 353/65/353/353 
f 355/67/355/355 353/65/353/353 356/68/356/356 
f 357/69/357/357 358/70/358/358 351/63/351/351 
f 357/69/357/357 351/63/351/351 354/66/354/354 
f 357/69/357/357 354/66/354/354 355/67/355/355 
f 357/69/357/357 355/67/355/355 359/71/359/359 
f 360/18/360/360 361/19/361/361 362/20/362/362 
f 360/18/360/360 362/20/362/362 363/21/363/363 
f 364/22/364/364 363/21/363/363 362/20/362/362 
f 364/22/364/364 362/20/362/362 365/23/365/365 
f 366/24/366/366 367/25/367/367 360/18/360/360 
f 366/24/366/366 360/18/360/360 363/21/363/363 
f 366/24/366/366 363/21/363/363 364/22/364/364 
f 366/24/366/366 364/22/364/364 368/26/368/368 
f 369/18/369/369 370/19/370/370 371/20/371/371 
f 369/18/369/369 371/20/371/371 372/21/372/372 
f 373/22/373/373 372/21/372/372 371/20/371/371 
f 373/22/373/373 371/20/371/371 374/23/374/374 
f 375/24/375/375 376/25/376/376 369/18/369/369 
f 375/24/375/375 369/18/369/369 372/21/372/372 
f 375/24/375/375 372/21/372/372 373/22/373/373 
f 375/24/375/375 373/22/373/373 377/26/377/377 
f 378/28/378/378 379/29/379/379 380/30/380/380 
f 378/28/378/378 380/30/380/380 381/27/381/381 
f 381/27/381/381 380/30/380/380 382/31/382/382 
f 381/27/381/381 382/31/382/382 383/32/383/383 
f 384/33/384/384 385/34/385/385 378/28/378/378 
f 384/33/384/384 378/28/378/378 381/27/381/381 
f 386/35/386/386 384/33/384/384 381/27/381/381 
f 386/35/386/386 381/27/381/381 383/32/383/383 
f 387/83/387/387 388/84/388/388 389/81/389/389 
f 387/83/387/387 389/81/389/389 390/82/390/390 
f 390/82/390/390 389/81/389/389 391/85/391/391 
f 390/82/390/390 391/85/391/391 392/86/392/392 
f 387/83/387/387 390/82/390/390 393/87/393/393 
f 387/83/387/387 393/87/393/393 394/88/394/394 
f 390/82/390/390 392/86/392/392 395/89/395/395 
f 390/82/390/390 395/89/395/395 393/87/393/393 
f 396/83/396/396 397/84/397/397 398/81/398/398 
f 396/83/396/396 398/81/398/398 399/82/399/399 
f 399/82/399/399 398/81/398/398 400/85/400/400 
f 399/82/399/399 400/85/400/400 401/86/401/401 
f 396/83/396/396 399/82/399/399 402/87/402/402 
f 396/83/396/396 402/87/402/402 403/88/403/403 
f 399/82/399/399 401/86/401/401 404/89/404/404 
f 399/82/399/399 404/89/404/404 402/87/402/402 
f 405/83/405/405 406/84/406/406 407/81/407/407 
f 405/83/405/405 407/81/407/407 408/82/408/408 
f 408/82/408/408 407/81/407/407 409/85/409/409 
f 408/82/408/408 409/85/409/409 410/86/410/410 
f 405/83/405/405 408/82/408/408 411/87/411/411 
f 405/83/405/405 411/87/411/411 412/88/412/412 
f 408/82/408/408 410/86/410/410 413/89/413/413 
f 408/82/408/408 413/89/413/413 411/87/411/411 
f 414/83/414/414 415/84/415/415 416/81/416/416 
f 414/83/414/414 416/81/416/416 417/82/417/417 
f 417/82/417/417 416/81/416/416 418/85/418/418 
f 417/82/417/417 418/85/418/418 419/86/419/419 
f 414/83/414/414 417/82/417/417 420/87/420/420 
f 414/83/414/414 420/87/420/420 421/88/421/421 
f 417/82/417/417 419/86/419/419 422/89/422/422 
f 417/82/417/417 422/89/422/422 420/87/420/420 
f 423/83/423/423 424/84/424/424 425/81/425/425 
f 423/83/423/423 425/81/425/425 426/82/426/426 
f 426/82/426/426 425/81/425/425 427/85/427/427 
f 426/82/426/426 427/85/427/427 428/86/428/428 
f 423/83/423/423 426/82/426/426 429/87/429/429 
f 423/83/423/423 429/87/429/429 430/88/430/430 
f 426/82/426/426 428/86/428/428 431/89/431/431 
f 426/82/426/426 431/89/431/431 429/87/429/429 
f 432/56/432/432 433/57/433/433 434/54/434/434 
f 432/56/432/432 434/54/434/434 435/55/435/435 
f 436/59/436/436 437/58/437/437 433/57/433/433 
f 436/59/436/436 433/57/433/433 432/56/432/432 
f 434/54/434/434 433/57/433/433 438/60/438/438 
f 434/54/434/434 438/60/438/438 439/61/439/439 
f 437/58/437/437 440/62/440/440 438/60/438/438 
f 437/58/437/437 438/60/438/438 433/57/433/433 
f 441/18/441/441 442/19/442/442 443/20/443/443 
f 441/18/441/441 443/20/443/443 444/21/444/444 
f 445/22/445/445 444/21/444/444 443/20/443/443 
f 445/22/445/445 443/20/443/443 446/23/446/446 
f 447/24/447/447 448/25/448/448 441/18/441/441 
f 447/24/447/447 441/18/441/441 444/21/444/444 
f 447/24/447/447 444/21/444/444 445/22/445/445 
f 447/24/447/447 445/22/445/445 449/26/449/449 
f 450/18/450/450 451/19/451/451 452/20/452/452 
f 450/18/450/450 452/20/452/452 453/21/453/453 
f 453/21/453/453 452/20/452/452 454/23/454/454 
f 453/21/453/453 454/23/454/454 455/22/455/455 
f 456/24/456/456 457/25/457/457 450/18/450/450 
f 456/24/456/456 450/18/450/450 453/21/453/453 
f 456/24/456/456 453/21/453/453 455/22/455/455 
f 456/24/456/456 455/22/455/455 458/26/458/458 
f 459/18/459/459 460/19/460/460 461/20/461/461 
f 459/18/459/459 461/20/461/461 462/21/462/462 
f 463/22/463/463 462/21/462/462 461/20/461/461 
f 463/22/463/463 461/20/461/461 464/23/464/464 
f 465/24/465/465 466/25/466/466 459/18/459/459 
f 465/24/465/465 459/18/459/459 462/21/462/462 
f 465/24/465/465 462/21/462/462 463/22/463/463 
f 465/24/465/465 463/22/463/463 467/26/467/467 
f 468/72/468/468 469/73/469/469 470/74/470/470 
f 468/72/468/468 470/74/470/470 471/75/471/471 
f 468/72/468/468 472/76/472/472 473/77/473/473 
f 468/72/468/468 473/77/473/473 469/73/469/469 
f 470/74/470/470 469/73/469/469 474/78/474/474 
f 470/74/470/470 474/78/474/474 475/79/475/475 
f 473/77/473/473 476/80/476/476 474/78/474/474 
f 473/77/473/473 474/78/474/474 469/73/469/469 
f 477/99/477/477 478/100/478/478 479/101/479/479 
f 477/99/477/477 479/101/479/479 480/102/480/480 
f 478/100/478/478 477/99/477/477 481/103/481/481 
f 478/100/478/478 481/103/481/481 482/104/482/482 
f 481/103/481/481 483/105/483/483 482/104/482/482 
f 484/106/484/484 485/107/485/485 486/108/486/486 
f 484/106/484/484 486/108/486/486 487/109/487/487 
f 488/110/488/488 489/111/489/489 487/109/487/487 
f 488/110/488/488 487/109/487/487 486/108/486/486 
f 488/110/488/488 490/112/490/490 491/113/491/491 
f 488/110/488/488 491/113/491/491 489/111/489/489 
f 492/114/492/492 493/115/493/493 491/113/491/491 
f 492/114/492/492 491/113/491/491 490/112/490/490 
f 494/116/494/494 495/117/495/495 496/106/496/496 
f 494/116/494/494 496/106/496/496 497/118/497/497 
f 498/119/498/498 499/120/499/499 500/109/500/500 
f 498/119/498/498 500/109/500/500 501/108/501/501 
f 501/108/501/501 500/109/500/500 495/117/495/495 
f 501/108/501/501 495/117/495/495 494/116/494/494 
f 498/119/498/498 502/114/502/502 503/115/503/503 
f 498/119/498/498 503/115/503/503 499/120/499/499 
f 504/102/504/504 505/121/505/505 506/122/506/506 
f 504/102/504/504 506/122/506/506 507/101/507/507 
f 508/106/508/508 509/123/509/509 510/116/510/510 
f 508/106/508/508 510/116/510/510 511/117/511/511 
f 512/124/512/512 513/125/513/513 514/126/514/514 
f 510/116/510/510 514/126/514/514 513/125/513/513 
f 510/116/510/510 513/125/513/513 511/117/511/511 
f 505/121/505/505 509/123/509/509 508/106/508/508 
f 505/121/505/505 508/106/508/508 506/122/506/506 
f 515/102/515/515 516/101/516/516 517/122/517/517 
f 515/102/515/515 517/122/517/517 518/121/518/518 
f 519/117/519/519 520/116/520/520 521/123/521/521 
f 519/117/519/519 521/123/521/521 522/106/522/522 
f 520/116/520/520 519/117/519/519 523/127/523/523 
f 518/121/518/518 517/122/517/517 522/106/522/522 
f 518/121/518/518 522/106/522/522 521/123/521/521 
f 524/128/524/524 525/129/525/525 526/130/526/526 
f 526/130/526/526 527/131/527/527 524/128/524/524 
f 525/129/525/525 528/132/528/528 529/133/529/529 
f 525/129/525/525 530/134/530/530 528/132/528/528 
f 528/132/528/528 531/135/531/531 529/133/529/529 
f 525/129/525/525 529/133/529/529 526/130/526/526 
f 525/129/525/525 532/136/532/532 530/134/530/530 
