v -40.9406 665.9816 208.5975
v -39.0062 666.7592 208.5975
v -43.9916 666.7592 208.5975
v -42.2638 665.9816 208.5975
v -46.3675 672.3748 208.5975
v -47.4069 670.5941 208.5975
v -37.4444 670.5941 208.5975
v -37.8712 672.3748 208.5975
v -44.4258 674.1555 208.5975
v -39.4017 674.1555 208.5975
v -44.9622 668.2844 208.5975
v -37.7288 668.5825 208.5975
v -51.5886 662.7213 208.5975
v -48.7254 661.1245 208.5975
v -37.4444 670.5941 201.721
v -37.8712 672.3748 201.721
v -39.4017 674.1555 201.721
v -44.9622 668.2844 201.721
v -43.9916 666.7592 201.721
v -39.0062 666.7592 201.721
v -37.7288 668.5825 201.721
v -48.7254 661.1245 201.721
v -51.5886 662.7213 201.721
v -40.9406 665.9816 201.721
v -42.2638 665.9816 201.721
v -47.4069 670.5941 201.721
v -46.3675 672.3748 201.721
v -44.4258 674.1555 201.721
gi 0 0 0 0
gi 0 0 0 0
gi 0 0 0 0
gi 0 0 0 0
gi 0 0 0 0
gi 0 0 0 0
gi 0 0 0 0
gi 0 0 0 0
gi 0 0 0 0
gi 0 0 0 0
gi 0 0 0 0
gi 0 0 0 0
gi 0 0 0 0
gi 0 0 0 0
gi 0 0 0 0
gi 0 0 0 0
gi 0 0 0 0
gi 0 0 0 0
gi 0 0 0 0
gi 0 0 0 0
gi 0 0 0 0
gi 0 0 0 0
gi 0 0 0 0
gi 0 0 0 0
gi 0 0 0 0
gi 0 0 0 0
gi 0 0 0 0
gi 0 0 0 0
gw 0.0 0.0 0.0 0.0
gw 0.0 0.0 0.0 0.0
gw 0.0 0.0 0.0 0.0
gw 0.0 0.0 0.0 0.0
gw 0.0 0.0 0.0 0.0
gw 0.0 0.0 0.0 0.0
gw 0.0 0.0 0.0 0.0
gw 0.0 0.0 0.0 0.0
gw 0.0 0.0 0.0 0.0
gw 0.0 0.0 0.0 0.0
gw 0.0 0.0 0.0 0.0
gw 0.0 0.0 0.0 0.0
gw 0.0 0.0 0.0 0.0
gw 0.0 0.0 0.0 0.0
gw 0.0 0.0 0.0 0.0
gw 0.0 0.0 0.0 0.0
gw 0.0 0.0 0.0 0.0
gw 0.0 0.0 0.0 0.0
gw 0.0 0.0 0.0 0.0
gw 0.0 0.0 0.0 0.0
gw 0.0 0.0 0.0 0.0
gw 0.0 0.0 0.0 0.0
gw 0.0 0.0 0.0 0.0
gw 0.0 0.0 0.0 0.0
gw 0.0 0.0 0.0 0.0
gw 0.0 0.0 0.0 0.0
gw 0.0 0.0 0.0 0.0
gw 0.0 0.0 0.0 0.0
vt 0.2029 0.2838
vt 0.2022 0.301
vt 0.1884 0.2623
vt 0.1992 0.2736
vt 0.1382 0.2595
vt 0.1492 0.2465
vt 0.1768 0.3237
vt 0.1618 0.3254
vt 0.1298 0.2795
vt 0.1437 0.3184
vt 0.1739 0.259
vt 0.1916 0.316
vt 0.1986 0.1922
vt 0.219 0.21
vt 0.1204 0.6012
vt 0.1206 0.615
vt 0.0673 0.6159
vt 0.067 0.602
vt 0.1208 0.6289
vt 0.0675 0.6297
vt 0.0658 0.5218
vt 0.1192 0.5209
vt 0.1194 0.5328
vt 0.066 0.5336
vt 0.12 0.5715
vt 0.1202 0.5856
vt 0.0668 0.5864
vt 0.0666 0.5723
vt 0.1183 0.4654
vt 0.0649 0.4662
vt 0.118 0.4431
vt 0.0646 0.444
vt 0.1533 0.3311
vt 0.164 0.3294
vt 0.1791 0.3335
vt 0.1385 0.3399
vt 0.1307 0.3731
vt 0.2118 0.3603
vt 0.2056 0.3762
vt 0.1365 0.387
vt 0.1921 0.3931
vt 0.1512 0.3996
vt 0.1889 0.3447
vt 0.1305 0.3564
vt 0.2104 0.2816
vt 0.2357 0.2909
vt 0.1197 0.5564
vt 0.0664 0.5573
vt 0.0662 0.547
vt 0.1196 0.5462
vn 0.1416 -0.7317 0.6667
vn 0.4734 -0.5964 0.6483
vn -0.4985 -0.5759 0.6479
vn -0.1572 -0.7321 0.6628
vn 0.0 0.0 1.0
vn 0.7439 0.0353 0.6674
vn 0.6706 0.3429 0.6578
vn 0.4302 0.3697 0.8236
vn 0.012 -0.2881 0.9575
vn 0.7003 -0.2763 0.6582
vn -0.3422 -0.6136 0.7117
vn 0.233 -0.7835 0.5761
vn 0.7439 0.0353 -0.6674
vn 0.6706 0.3429 -0.6578
vn 0.4301 0.3697 -0.8236
vn 0.0119 -0.2881 -0.9575
vn -0.4985 -0.5759 -0.6479
vn 0.4734 -0.5963 -0.6483
vn 0.7003 -0.2763 -0.6582
vn 0.233 -0.7835 -0.5761
vn -0.3422 -0.6135 -0.7117
vn 0.1416 -0.7317 -0.6667
vn -0.1572 -0.7321 -0.6628
vn 0.0 0.0 -1.0
vtan 0.3469 -0.5942 -0.7257
vtan -0.0051 -0.7378 -0.675
vtan 0.5642 -0.783 -0.2619
vtan 0.5493 -0.6225 -0.5574
vtan 0.3375 -0.9413 0.0
vtan 0.3381 -0.9411 0.0
vtan 0.1794 -0.9725 -0.1486
vtan 0.4047 -0.9123 0.0629
vtan 0.3362 -0.9418 0.0
vtan 0.4297 -0.8862 0.1734
vtan 0.3479 -0.8966 -0.2741
vtan -0.0144 -0.9274 -0.3739
vtan 0.5582 -0.742 -0.3713
vtan 0.2519 -0.5235 -0.8139
vtan -0.6675 -0.0105 -0.7445
vtan -0.5971 -0.2767 -0.7529
vtan 0.5749 0.3201 -0.753
vtan 0.6655 0.0517 -0.7446
vtan -0.6486 -0.508 -0.5668
vtan 0.6015 0.563 -0.5669
vtan 0.0723 -0.9549 -0.2882
vtan -0.0056 0.9576 -0.2881
vtan 0.441 0.475 -0.7615
vtan -0.4077 -0.5039 -0.7615
vtan -0.3852 0.5217 -0.7612
vtan -0.6042 0.2617 -0.7527
vtan 0.6201 -0.2214 -0.7527
vtan 0.42 -0.4941 -0.7612
vtan -0.1499 0.5563 -0.8173
vtan 0.1788 -0.5478 -0.8173
vtan 0.3688 0.6089 -0.7023
vtan -0.3225 -0.6347 -0.7023
vtan -0.9841 -0.0308 -0.1751
vtan -0.9821 0.1862 0.0271
vtan -0.8599 0.4234 0.2852
vtan -0.8724 -0.2158 -0.4385
vtan -0.6509 0.265 -0.7114
vtan -0.9877 0.1565 0.0
vtan -0.9879 0.1551 0.0
vtan -0.7306 0.459 -0.5055
vtan -0.9879 0.1551 0.0
vtan -0.8921 0.3137 -0.3251
vtan -0.9886 0.1403 -0.0545
vtan -0.6976 -0.0696 -0.7131
vtan -0.9677 -0.1281 -0.2172
vtan -0.9326 0.3145 0.1773
vtan -0.105 0.6586 -0.7451
vtan 0.1482 -0.6503 -0.7451
vtan -0.118 -0.6524 -0.7486
vtan 0.1592 0.6436 -0.7486
f 0/0/0/0 1/1/1/1 2/2/2/2 
f 0/0/0/0 2/2/2/2 3/3/3/3 
f 4/4/4/4 5/5/4/5 6/6/5/6 
f 4/4/4/4 6/6/5/6 7/7/6/7 
f 8/8/4/8 4/4/4/4 7/7/6/7 
f 8/8/4/8 7/7/6/7 9/9/7/9 
f 6/6/5/6 5/5/4/5 10/10/8/10 
f 6/6/5/6 10/10/8/10 11/11/9/11 
f 1/1/1/1 11/11/9/11 10/10/8/10 
f 1/1/1/1 10/10/8/10 2/2/2/2 
f 10/10/8/10 5/5/4/5 12/12/10/12 
f 10/10/8/10 12/12/10/12 13/13/11/13 
f 14/14/12/14 15/15/13/15 7/16/6/16 
f 14/14/12/14 7/16/6/16 6/17/5/17 
f 7/16/6/16 15/15/13/15 16/18/14/18 
f 7/16/6/16 16/18/14/18 9/19/7/19 
f 10/20/8/20 17/21/15/21 18/22/16/22 
f 10/20/8/20 18/22/16/22 2/23/2/23 
f 19/24/17/24 20/25/18/25 11/26/9/26 
f 19/24/17/24 11/26/9/26 1/27/1/27 
f 21/28/19/28 17/21/15/21 10/20/8/20 
f 21/28/19/28 10/20/8/20 13/29/11/29 
f 22/30/20/30 21/28/19/28 13/29/11/29 
f 22/30/20/30 13/29/11/29 12/31/10/31 
f 23/32/21/32 24/33/22/33 18/34/16/34 
f 23/32/21/32 18/34/16/34 19/35/17/35 
f 14/36/12/36 25/37/23/37 26/38/23/38 
f 14/36/12/36 26/38/23/38 15/39/13/39 
f 15/39/13/39 26/38/23/38 27/40/23/40 
f 15/39/13/39 27/40/23/40 16/41/14/41 
f 17/42/15/42 25/37/23/37 14/36/12/36 
f 17/42/15/42 14/36/12/36 20/43/18/43 
f 19/35/17/35 18/34/16/34 17/42/15/42 
f 19/35/17/35 17/42/15/42 20/43/18/43 
f 17/42/15/42 21/44/19/44 22/45/20/45 
f 17/42/15/42 22/45/20/45 25/37/23/37 
f 23/46/21/46 0/47/0/47 3/48/3/48 
f 23/46/21/46 3/48/3/48 24/49/22/49 
f 0/47/0/47 23/46/21/46 19/24/17/24 
f 0/47/0/47 19/24/17/24 1/27/1/27 
f 11/26/9/26 20/25/18/25 14/14/12/14 
f 11/26/9/26 14/14/12/14 6/17/5/17 
f 2/23/2/23 18/22/16/22 24/49/22/49 
f 2/23/2/23 24/49/22/49 3/48/3/48 
