v 487.3125 98.6729 -220.7521
v 487.5137 98.6729 -220.7528
v 487.5077 98.6729 -220.6928
v 487.3187 98.6729 -220.6921
v 487.229 99.2488 -221.5479
v 487.592 99.2488 -221.5491
v 487.7421 104.4995 -223.0728
v 487.0692 104.4995 -223.0706
v 487.0674 104.8019 -223.0882
v 487.7438 104.8019 -223.0903
v 487.132 102.5054 -222.4724
v 487.6831 102.5054 -222.4741
v 487.2319 99.942 -221.5202
v 487.2842 100.5255 -221.0216
v 487.5402 100.5255 -221.0224
v 487.5894 99.942 -221.5214
v 487.6196 98.6729 -218.79
v 487.4195 98.6729 -218.769
v 487.4194 98.6729 -218.8293
v 487.6073 98.6729 -218.849
v 487.8114 98.6729 -218.8509
v 487.7875 98.6729 -218.9062
v 487.987 98.6729 -218.9491
v 487.9524 98.6729 -218.9985
v 488.1392 98.6729 -219.0806
v 488.0953 98.6729 -219.122
v 488.2618 98.6729 -219.2401
v 488.2105 98.6729 -219.2719
v 488.3498 98.6729 -219.421
v 488.2932 98.6729 -219.4418
v 488.3996 98.6729 -219.6159
v 488.34 98.6729 -219.6249
v 488.4091 98.6729 -219.8169
v 488.3489 98.6729 -219.8137
v 488.378 98.6729 -220.0156
v 488.3196 98.6729 -220.0004
v 488.3076 98.6729 -220.2041
v 488.2534 98.6729 -220.1774
v 488.2006 98.6729 -220.3744
v 488.153 98.6729 -220.3374
v 488.0615 98.6729 -220.5198
v 488.0223 98.6729 -220.474
v 487.896 98.6729 -220.6342
v 487.8668 98.6729 -220.5814
v 487.7109 98.6729 -220.7129
v 487.6929 98.6729 -220.6553
v 487.2313 98.6729 -218.8478
v 487.2192 98.6729 -218.7887
v 487.0508 98.6729 -218.9038
v 487.027 98.6729 -218.8483
v 486.8853 98.6729 -218.9949
v 486.8508 98.6729 -218.9454
v 486.7415 98.6729 -219.1176
v 486.6978 98.6729 -219.076
v 486.6253 98.6729 -219.2666
v 486.5742 98.6729 -219.2347
v 486.5415 98.6729 -219.436
v 486.485 98.6729 -219.415
v 486.4935 98.6729 -219.6188
v 486.434 98.6729 -219.6096
v 486.4833 98.6729 -219.8075
v 486.4231 98.6729 -219.8105
v 486.5114 98.6729 -219.9944
v 486.4529 98.6729 -220.0094
v 486.5764 98.6729 -220.1718
v 486.5222 98.6729 -220.1983
v 486.6758 98.6729 -220.3325
v 486.6281 98.6729 -220.3694
v 486.8055 98.6729 -220.4699
v 486.7662 98.6729 -220.5156
v 486.9603 98.6729 -220.5784
v 486.931 98.6729 -220.6311
v 487.1337 98.6729 -220.6535
v 487.1156 98.6729 -220.711
v 487.7833 99.2488 -218.0066
v 487.4221 99.2488 -217.9687
v 488.1294 99.2488 -218.1165
v 488.4463 99.2488 -218.2937
v 488.721 99.2488 -218.5311
v 488.9423 99.2488 -218.819
v 489.1011 99.2488 -219.1455
v 489.191 99.2488 -219.4973
v 489.2082 99.2488 -219.86
v 489.152 99.2488 -220.2187
v 489.0248 99.2488 -220.5587
v 488.8318 99.2488 -220.8663
v 488.5807 99.2488 -221.1286
v 488.2821 99.2488 -221.3351
v 487.9479 99.2488 -221.4772
v 487.0605 99.2488 -218.0043
v 486.7138 99.2488 -218.1119
v 486.3958 99.2488 -218.2871
v 486.1195 99.2488 -218.5227
v 485.8964 99.2488 -218.8091
v 485.7354 99.2488 -219.1346
v 485.6433 99.2488 -219.4858
v 485.6238 99.2488 -219.8484
v 485.6776 99.2488 -220.2075
v 485.8026 99.2488 -220.5484
v 485.9937 99.2488 -220.8571
v 486.243 99.2488 -221.1211
v 486.5403 99.2488 -221.3294
v 486.8735 99.2488 -221.4737
v 487.427 104.4995 -216.4374
v 488.0965 104.4994 -216.5077
v 488.1001 104.8019 -216.4904
v 487.427 104.8019 -216.4198
v 488.7379 104.4994 -216.7113
v 488.7449 104.8019 -216.6951
v 489.3251 104.4994 -217.0398
v 489.3352 104.8019 -217.0253
v 489.8342 104.4994 -217.4798
v 489.847 104.8019 -217.4676
v 490.2443 104.4995 -218.0132
v 490.2593 104.8019 -218.0039
v 490.5387 104.4995 -218.6183
v 490.5553 104.8019 -218.6122
v 490.7052 104.4995 -219.2703
v 490.7227 104.8019 -219.2676
v 490.7371 104.4995 -219.9424
v 490.7548 104.8019 -219.9433
v 490.6331 104.4995 -220.6072
v 490.6501 104.8019 -220.6116
v 490.3973 104.4995 -221.2374
v 490.4131 104.8019 -221.2452
v 490.0395 104.4995 -221.8073
v 490.0535 104.8019 -221.8181
v 489.5743 104.4995 -222.2935
v 489.5859 104.8019 -222.3069
v 489.0208 104.4995 -222.6761
v 489.0294 104.8019 -222.6915
v 488.4016 104.4995 -222.9395
v 488.4069 104.8019 -222.9563
v 486.7571 104.4995 -216.5034
v 486.7534 104.8019 -216.4861
v 486.1144 104.4995 -216.7028
v 486.1074 104.8019 -216.6866
v 485.525 104.4995 -217.0275
v 485.5149 104.8019 -217.013
v 485.0131 104.4995 -217.4642
v 485.0002 104.8019 -217.4521
v 484.5995 104.4995 -217.995
v 484.5845 104.8019 -217.9857
v 484.3013 104.4995 -218.5982
v 484.2847 104.8019 -218.5921
v 484.1306 104.4995 -219.2491
v 484.1131 104.8019 -219.2464
v 484.0944 104.4995 -219.921
v 484.0767 104.8019 -219.9219
v 484.1942 104.4995 -220.5864
v 484.1771 104.8019 -220.5909
v 484.4258 104.4995 -221.2182
v 484.41 104.8019 -221.226
v 484.7799 104.4995 -221.7903
v 484.766 104.8019 -221.8012
v 485.2419 104.4995 -222.2795
v 485.2305 104.8019 -222.2929
v 485.793 104.4995 -222.6657
v 485.7844 104.8019 -222.6811
v 486.4105 104.4995 -222.933
v 486.4052 104.8019 -222.9499
v 487.9734 102.5054 -217.0966
v 487.425 102.5054 -217.039
v 488.4988 102.5054 -217.2634
v 488.9798 102.5054 -217.5324
v 489.3969 102.5054 -217.8928
v 489.7328 102.5054 -218.3298
v 489.9739 102.5054 -218.8254
v 490.1103 102.5054 -219.3594
v 490.1364 102.5054 -219.91
v 490.0511 102.5054 -220.4545
v 489.858 102.5054 -220.9708
v 489.565 102.5054 -221.4376
v 489.184 102.5054 -221.8358
v 488.7306 102.5054 -222.1492
v 488.2234 102.5054 -222.3649
v 486.8053 101.6056 -216.742
v 487.1655 100.5255 -218.523
v 487.4203 100.5255 -218.4979
v 487.4262 101.6056 -216.6808
v 486.2097 101.6056 -216.9268
v 486.921 100.5255 -218.5989
v 485.6635 101.6056 -217.2278
v 486.6968 100.5255 -218.7224
v 485.189 101.6056 -217.6325
v 486.502 100.5255 -218.8886
v 484.8057 101.6056 -218.1244
v 486.3447 100.5255 -219.0905
v 484.5292 101.6056 -218.6835
v 486.2311 100.5255 -219.32
v 484.371 101.6056 -219.2867
v 486.1662 100.5255 -219.5676
v 484.3375 101.6056 -219.9094
v 486.1525 100.5255 -219.8233
v 484.4299 101.6056 -220.5262
v 486.1904 100.5255 -220.0764
v 484.6447 101.6056 -221.1117
v 486.2786 100.5255 -220.3168
v 484.9728 101.6056 -221.642
v 486.4133 100.5255 -220.5345
v 485.4011 101.6056 -222.0954
v 486.5891 100.5255 -220.7206
v 485.9118 101.6056 -222.4533
v 486.7987 100.5255 -220.8675
v 486.4841 101.6056 -222.7011
v 487.0336 100.5255 -220.9692
v 487.0945 101.6056 -222.8286
v 487.7776 99.942 -218.0338
v 487.675 100.5255 -218.5247
v 487.422 99.942 -217.9965
v 488.1183 99.942 -218.142
v 487.9191 100.5255 -218.6021
v 488.4303 99.942 -218.3165
v 488.1425 100.5255 -218.7271
v 488.7007 99.942 -218.5502
v 488.3362 100.5255 -218.8945
v 488.9186 99.942 -218.8336
v 488.4922 100.5255 -219.0974
v 489.075 99.942 -219.155
v 488.6042 100.5255 -219.3277
v 489.1635 99.942 -219.5014
v 488.6676 100.5255 -219.5757
v 489.1804 99.942 -219.8584
v 488.6797 100.5255 -219.8314
v 489.1251 99.942 -220.2116
v 488.6401 100.5255 -220.0843
v 488.9999 99.942 -220.5464
v 488.5504 100.5255 -220.3241
v 488.8098 99.942 -220.8491
v 488.4143 100.5255 -220.5409
v 488.5627 99.942 -221.1074
v 488.2373 100.5255 -220.7259
v 488.2687 99.942 -221.3107
v 488.0267 100.5255 -220.8715
v 487.9397 99.942 -221.4506
v 487.7911 100.5255 -220.9717
v 487.0661 99.942 -218.0316
v 486.7247 99.942 -218.1375
v 486.4116 99.942 -218.31
v 486.1396 99.942 -218.542
v 485.9199 99.942 -218.8239
v 485.7615 99.942 -219.1444
v 485.6708 99.942 -219.4901
v 485.6516 99.942 -219.8471
v 485.7046 99.942 -220.2006
v 485.8276 99.942 -220.5362
v 486.0157 99.942 -220.8401
v 486.2612 99.942 -221.1
v 486.554 99.942 -221.3051
v 486.882 99.942 -221.4472
v 487.7182 101.6056 -222.8306
v 488.0467 101.6056 -216.746
v 488.6411 101.6056 -216.9347
v 489.1854 101.6056 -217.2391
v 489.6573 101.6056 -217.6469
v 490.0374 101.6056 -218.1413
v 490.3102 101.6056 -218.7021
v 490.4645 101.6056 -219.3064
v 490.4941 101.6056 -219.9293
v 490.3976 101.6056 -220.5454
v 490.1791 101.6056 -221.1295
v 489.8475 101.6056 -221.6577
v 489.4164 101.6056 -222.1083
v 488.9034 101.6056 -222.463
v 488.3295 101.6056 -222.707
v 486.7981 102.239 -216.7064
v 487.4263 102.239 -216.6445
v 486.1955 102.239 -216.8934
v 485.6428 102.239 -217.1979
v 485.1627 102.239 -217.6074
v 484.7749 102.239 -218.1051
v 484.4952 102.239 -218.6707
v 484.3351 102.239 -219.2811
v 484.3012 102.239 -219.9112
v 484.3948 102.239 -220.5352
v 484.612 102.239 -221.1276
v 484.9441 102.239 -221.6641
v 485.3773 102.239 -222.1229
v 485.894 102.239 -222.485
v 486.4731 102.239 -222.7357
v 487.0908 102.239 -222.8647
v 487.7218 102.239 -222.8667
v 488.0541 102.239 -216.7104
v 488.6556 102.239 -216.9013
v 489.2062 102.239 -217.2094
v 489.6837 102.239 -217.6219
v 490.0683 102.239 -218.1222
v 490.3443 102.239 -218.6896
v 490.5004 102.239 -219.301
v 490.5303 102.239 -219.9312
v 490.4327 102.239 -220.5547
v 490.2117 102.239 -221.1456
v 489.8762 102.239 -221.6801
v 489.4399 102.239 -222.136
v 488.9209 102.239 -222.4948
v 488.3403 102.239 -222.7417
v 486.8763 102.5054 -217.0931
v 486.3499 102.5054 -217.2564
v 485.8671 102.5054 -217.5224
v 485.4478 102.5054 -217.8801
v 485.1091 102.5054 -218.3149
v 484.8647 102.5054 -218.8089
v 484.7249 102.5054 -219.3421
v 484.6953 102.5054 -219.8924
v 484.777 102.5054 -220.4375
v 484.9667 102.5054 -220.955
v 485.2568 102.5054 -221.4237
v 485.6353 102.5054 -221.8244
v 486.0866 102.5054 -222.1407
v 486.5924 102.5054 -222.3596
gi 0 0 0 0
gw 0.0 0.0 0.0 0.0
gi 0 0 0 0
gw 0.0 0.0 0.0 0.0
gi 0 0 0 0
gw 0.0 0.0 0.0 0.0
gi 0 0 0 0
gw 0.0 0.0 0.0 0.0
gi 0 0 0 0
gw 0.0 0.0 0.0 0.0
gi 0 0 0 0
gw 0.0 0.0 0.0 0.0
gi 0 0 0 0
gw 0.0 0.0 0.0 0.0
gi 0 0 0 0
gw 0.0 0.0 0.0 0.0
gi 0 0 0 0
gw 0.0 0.0 0.0 0.0
gi 0 0 0 0
gw 0.0 0.0 0.0 0.0
gi 0 0 0 0
gw 0.0 0.0 0.0 0.0
gi 0 0 0 0
gw 0.0 0.0 0.0 0.0
gi 0 0 0 0
gw 0.0 0.0 0.0 0.0
gi 0 0 0 0
gw 0.0 0.0 0.0 0.0
gi 0 0 0 0
gw 0.0 0.0 0.0 0.0
gi 0 0 0 0
gw 0.0 0.0 0.0 0.0
gi 0 0 0 0
gw 0.0 0.0 0.0 0.0
gi 0 0 0 0
gw 0.0 0.0 0.0 0.0
gi 0 0 0 0
gw 0.0 0.0 0.0 0.0
gi 0 0 0 0
gw 0.0 0.0 0.0 0.0
gi 0 0 0 0
gw 0.0 0.0 0.0 0.0
gi 0 0 0 0
gw 0.0 0.0 0.0 0.0
gi 0 0 0 0
gw 0.0 0.0 0.0 0.0
gi 0 0 0 0
gw 0.0 0.0 0.0 0.0
gi 0 0 0 0
gw 0.0 0.0 0.0 0.0
gi 0 0 0 0
gw 0.0 0.0 0.0 0.0
gi 0 0 0 0
gw 0.0 0.0 0.0 0.0
gi 0 0 0 0
gw 0.0 0.0 0.0 0.0
gi 0 0 0 0
gw 0.0 0.0 0.0 0.0
gi 0 0 0 0
gw 0.0 0.0 0.0 0.0
gi 0 0 0 0
gw 0.0 0.0 0.0 0.0
gi 0 0 0 0
gw 0.0 0.0 0.0 0.0
gi 0 0 0 0
gw 0.0 0.0 0.0 0.0
gi 0 0 0 0
gw 0.0 0.0 0.0 0.0
gi 0 0 0 0
gw 0.0 0.0 0.0 0.0
gi 0 0 0 0
gw 0.0 0.0 0.0 0.0
gi 0 0 0 0
gw 0.0 0.0 0.0 0.0
gi 0 0 0 0
gw 0.0 0.0 0.0 0.0
gi 0 0 0 0
gw 0.0 0.0 0.0 0.0
gi 0 0 0 0
gw 0.0 0.0 0.0 0.0
gi 0 0 0 0
gw 0.0 0.0 0.0 0.0
gi 0 0 0 0
gw 0.0 0.0 0.0 0.0
gi 0 0 0 0
gw 0.0 0.0 0.0 0.0
gi 0 0 0 0
gw 0.0 0.0 0.0 0.0
gi 0 0 0 0
gw 0.0 0.0 0.0 0.0
gi 0 0 0 0
gw 0.0 0.0 0.0 0.0
gi 0 0 0 0
gw 0.0 0.0 0.0 0.0
gi 0 0 0 0
gw 0.0 0.0 0.0 0.0
gi 0 0 0 0
gw 0.0 0.0 0.0 0.0
gi 0 0 0 0
gw 0.0 0.0 0.0 0.0
gi 0 0 0 0
gw 0.0 0.0 0.0 0.0
gi 0 0 0 0
gw 0.0 0.0 0.0 0.0
gi 0 0 0 0
gw 0.0 0.0 0.0 0.0
gi 0 0 0 0
gw 0.0 0.0 0.0 0.0
gi 0 0 0 0
gw 0.0 0.0 0.0 0.0
gi 0 0 0 0
gw 0.0 0.0 0.0 0.0
gi 0 0 0 0
gw 0.0 0.0 0.0 0.0
gi 0 0 0 0
gw 0.0 0.0 0.0 0.0
gi 0 0 0 0
gw 0.0 0.0 0.0 0.0
gi 0 0 0 0
gw 0.0 0.0 0.0 0.0
gi 0 0 0 0
gw 0.0 0.0 0.0 0.0
gi 0 0 0 0
gw 0.0 0.0 0.0 0.0
gi 0 0 0 0
gw 0.0 0.0 0.0 0.0
gi 0 0 0 0
gw 0.0 0.0 0.0 0.0
gi 0 0 0 0
gw 0.0 0.0 0.0 0.0
gi 0 0 0 0
gw 0.0 0.0 0.0 0.0
gi 0 0 0 0
gw 0.0 0.0 0.0 0.0
gi 0 0 0 0
gw 0.0 0.0 0.0 0.0
gi 0 0 0 0
gw 0.0 0.0 0.0 0.0
gi 0 0 0 0
gw 0.0 0.0 0.0 0.0
gi 0 0 0 0
gw 0.0 0.0 0.0 0.0
gi 0 0 0 0
gw 0.0 0.0 0.0 0.0
gi 0 0 0 0
gw 0.0 0.0 0.0 0.0
gi 0 0 0 0
gw 0.0 0.0 0.0 0.0
gi 0 0 0 0
gw 0.0 0.0 0.0 0.0
gi 0 0 0 0
gw 0.0 0.0 0.0 0.0
gi 0 0 0 0
gw 0.0 0.0 0.0 0.0
gi 0 0 0 0
gw 0.0 0.0 0.0 0.0
gi 0 0 0 0
gw 0.0 0.0 0.0 0.0
gi 0 0 0 0
gw 0.0 0.0 0.0 0.0
gi 0 0 0 0
gw 0.0 0.0 0.0 0.0
gi 0 0 0 0
gw 0.0 0.0 0.0 0.0
gi 0 0 0 0
gw 0.0 0.0 0.0 0.0
gi 0 0 0 0
gw 0.0 0.0 0.0 0.0
gi 0 0 0 0
gw 0.0 0.0 0.0 0.0
gi 0 0 0 0
gw 0.0 0.0 0.0 0.0
gi 0 0 0 0
gw 0.0 0.0 0.0 0.0
gi 0 0 0 0
gw 0.0 0.0 0.0 0.0
gi 0 0 0 0
gw 0.0 0.0 0.0 0.0
gi 0 0 0 0
gw 0.0 0.0 0.0 0.0
gi 0 0 0 0
gw 0.0 0.0 0.0 0.0
gi 0 0 0 0
gw 0.0 0.0 0.0 0.0
gi 0 0 0 0
gw 0.0 0.0 0.0 0.0
gi 0 0 0 0
gw 0.0 0.0 0.0 0.0
gi 0 0 0 0
gw 0.0 0.0 0.0 0.0
gi 0 0 0 0
gw 0.0 0.0 0.0 0.0
gi 0 0 0 0
gw 0.0 0.0 0.0 0.0
gi 0 0 0 0
gw 0.0 0.0 0.0 0.0
gi 0 0 0 0
gw 0.0 0.0 0.0 0.0
gi 0 0 0 0
gw 0.0 0.0 0.0 0.0
gi 0 0 0 0
gw 0.0 0.0 0.0 0.0
gi 0 0 0 0
gw 0.0 0.0 0.0 0.0
gi 0 0 0 0
gw 0.0 0.0 0.0 0.0
gi 0 0 0 0
gw 0.0 0.0 0.0 0.0
gi 0 0 0 0
gw 0.0 0.0 0.0 0.0
gi 0 0 0 0
gw 0.0 0.0 0.0 0.0
gi 0 0 0 0
gw 0.0 0.0 0.0 0.0
gi 0 0 0 0
gw 0.0 0.0 0.0 0.0
gi 0 0 0 0
gw 0.0 0.0 0.0 0.0
gi 0 0 0 0
gw 0.0 0.0 0.0 0.0
gi 0 0 0 0
gw 0.0 0.0 0.0 0.0
gi 0 0 0 0
gw 0.0 0.0 0.0 0.0
gi 0 0 0 0
gw 0.0 0.0 0.0 0.0
gi 0 0 0 0
gw 0.0 0.0 0.0 0.0
gi 0 0 0 0
gw 0.0 0.0 0.0 0.0
gi 0 0 0 0
gw 0.0 0.0 0.0 0.0
gi 0 0 0 0
gw 0.0 0.0 0.0 0.0
gi 0 0 0 0
gw 0.0 0.0 0.0 0.0
gi 0 0 0 0
gw 0.0 0.0 0.0 0.0
gi 0 0 0 0
gw 0.0 0.0 0.0 0.0
gi 0 0 0 0
gw 0.0 0.0 0.0 0.0
gi 0 0 0 0
gw 0.0 0.0 0.0 0.0
gi 0 0 0 0
gw 0.0 0.0 0.0 0.0
gi 0 0 0 0
gw 0.0 0.0 0.0 0.0
gi 0 0 0 0
gw 0.0 0.0 0.0 0.0
gi 0 0 0 0
gw 0.0 0.0 0.0 0.0
gi 0 0 0 0
gw 0.0 0.0 0.0 0.0
gi 0 0 0 0
gw 0.0 0.0 0.0 0.0
gi 0 0 0 0
gw 0.0 0.0 0.0 0.0
gi 0 0 0 0
gw 0.0 0.0 0.0 0.0
gi 0 0 0 0
gw 0.0 0.0 0.0 0.0
gi 0 0 0 0
gw 0.0 0.0 0.0 0.0
gi 0 0 0 0
gw 0.0 0.0 0.0 0.0
gi 0 0 0 0
gw 0.0 0.0 0.0 0.0
gi 0 0 0 0
gw 0.0 0.0 0.0 0.0
gi 0 0 0 0
gw 0.0 0.0 0.0 0.0
gi 0 0 0 0
gw 0.0 0.0 0.0 0.0
gi 0 0 0 0
gw 0.0 0.0 0.0 0.0
gi 0 0 0 0
gw 0.0 0.0 0.0 0.0
gi 0 0 0 0
gw 0.0 0.0 0.0 0.0
gi 0 0 0 0
gw 0.0 0.0 0.0 0.0
gi 0 0 0 0
gw 0.0 0.0 0.0 0.0
gi 0 0 0 0
gw 0.0 0.0 0.0 0.0
gi 0 0 0 0
gw 0.0 0.0 0.0 0.0
gi 0 0 0 0
gw 0.0 0.0 0.0 0.0
gi 0 0 0 0
gw 0.0 0.0 0.0 0.0
gi 0 0 0 0
gw 0.0 0.0 0.0 0.0
gi 0 0 0 0
gw 0.0 0.0 0.0 0.0
gi 0 0 0 0
gw 0.0 0.0 0.0 0.0
gi 0 0 0 0
gw 0.0 0.0 0.0 0.0
gi 0 0 0 0
gw 0.0 0.0 0.0 0.0
gi 0 0 0 0
gw 0.0 0.0 0.0 0.0
gi 0 0 0 0
gw 0.0 0.0 0.0 0.0
gi 0 0 0 0
gw 0.0 0.0 0.0 0.0
gi 0 0 0 0
gw 0.0 0.0 0.0 0.0
gi 0 0 0 0
gw 0.0 0.0 0.0 0.0
gi 0 0 0 0
gw 0.0 0.0 0.0 0.0
gi 0 0 0 0
gw 0.0 0.0 0.0 0.0
gi 0 0 0 0
gw 0.0 0.0 0.0 0.0
gi 0 0 0 0
gw 0.0 0.0 0.0 0.0
gi 0 0 0 0
gw 0.0 0.0 0.0 0.0
gi 0 0 0 0
gw 0.0 0.0 0.0 0.0
gi 0 0 0 0
gw 0.0 0.0 0.0 0.0
gi 0 0 0 0
gw 0.0 0.0 0.0 0.0
gi 0 0 0 0
gw 0.0 0.0 0.0 0.0
gi 0 0 0 0
gw 0.0 0.0 0.0 0.0
gi 0 0 0 0
gw 0.0 0.0 0.0 0.0
gi 0 0 0 0
gw 0.0 0.0 0.0 0.0
gi 0 0 0 0
gw 0.0 0.0 0.0 0.0
gi 0 0 0 0
gw 0.0 0.0 0.0 0.0
gi 0 0 0 0
gw 0.0 0.0 0.0 0.0
gi 0 0 0 0
gw 0.0 0.0 0.0 0.0
gi 0 0 0 0
gw 0.0 0.0 0.0 0.0
gi 0 0 0 0
gw 0.0 0.0 0.0 0.0
gi 0 0 0 0
gw 0.0 0.0 0.0 0.0
gi 0 0 0 0
gw 0.0 0.0 0.0 0.0
gi 0 0 0 0
gw 0.0 0.0 0.0 0.0
gi 0 0 0 0
gw 0.0 0.0 0.0 0.0
gi 0 0 0 0
gw 0.0 0.0 0.0 0.0
gi 0 0 0 0
gw 0.0 0.0 0.0 0.0
gi 0 0 0 0
gw 0.0 0.0 0.0 0.0
gi 0 0 0 0
gw 0.0 0.0 0.0 0.0
gi 0 0 0 0
gw 0.0 0.0 0.0 0.0
gi 0 0 0 0
gw 0.0 0.0 0.0 0.0
gi 0 0 0 0
gw 0.0 0.0 0.0 0.0
gi 0 0 0 0
gw 0.0 0.0 0.0 0.0
gi 0 0 0 0
gw 0.0 0.0 0.0 0.0
gi 0 0 0 0
gw 0.0 0.0 0.0 0.0
gi 0 0 0 0
gw 0.0 0.0 0.0 0.0
gi 0 0 0 0
gw 0.0 0.0 0.0 0.0
gi 0 0 0 0
gw 0.0 0.0 0.0 0.0
gi 0 0 0 0
gw 0.0 0.0 0.0 0.0
gi 0 0 0 0
gw 0.0 0.0 0.0 0.0
gi 0 0 0 0
gw 0.0 0.0 0.0 0.0
gi 0 0 0 0
gw 0.0 0.0 0.0 0.0
gi 0 0 0 0
gw 0.0 0.0 0.0 0.0
gi 0 0 0 0
gw 0.0 0.0 0.0 0.0
gi 0 0 0 0
gw 0.0 0.0 0.0 0.0
gi 0 0 0 0
gw 0.0 0.0 0.0 0.0
gi 0 0 0 0
gw 0.0 0.0 0.0 0.0
gi 0 0 0 0
gw 0.0 0.0 0.0 0.0
gi 0 0 0 0
gw 0.0 0.0 0.0 0.0
gi 0 0 0 0
gw 0.0 0.0 0.0 0.0
gi 0 0 0 0
gw 0.0 0.0 0.0 0.0
gi 0 0 0 0
gw 0.0 0.0 0.0 0.0
gi 0 0 0 0
gw 0.0 0.0 0.0 0.0
gi 0 0 0 0
gw 0.0 0.0 0.0 0.0
gi 0 0 0 0
gw 0.0 0.0 0.0 0.0
gi 0 0 0 0
gw 0.0 0.0 0.0 0.0
gi 0 0 0 0
gw 0.0 0.0 0.0 0.0
gi 0 0 0 0
gw 0.0 0.0 0.0 0.0
gi 0 0 0 0
gw 0.0 0.0 0.0 0.0
gi 0 0 0 0
gw 0.0 0.0 0.0 0.0
gi 0 0 0 0
gw 0.0 0.0 0.0 0.0
gi 0 0 0 0
gw 0.0 0.0 0.0 0.0
gi 0 0 0 0
gw 0.0 0.0 0.0 0.0
gi 0 0 0 0
gw 0.0 0.0 0.0 0.0
gi 0 0 0 0
gw 0.0 0.0 0.0 0.0
gi 0 0 0 0
gw 0.0 0.0 0.0 0.0
gi 0 0 0 0
gw 0.0 0.0 0.0 0.0
gi 0 0 0 0
gw 0.0 0.0 0.0 0.0
gi 0 0 0 0
gw 0.0 0.0 0.0 0.0
gi 0 0 0 0
gw 0.0 0.0 0.0 0.0
gi 0 0 0 0
gw 0.0 0.0 0.0 0.0
gi 0 0 0 0
gw 0.0 0.0 0.0 0.0
gi 0 0 0 0
gw 0.0 0.0 0.0 0.0
gi 0 0 0 0
gw 0.0 0.0 0.0 0.0
gi 0 0 0 0
gw 0.0 0.0 0.0 0.0
gi 0 0 0 0
gw 0.0 0.0 0.0 0.0
gi 0 0 0 0
gw 0.0 0.0 0.0 0.0
gi 0 0 0 0
gw 0.0 0.0 0.0 0.0
gi 0 0 0 0
gw 0.0 0.0 0.0 0.0
gi 0 0 0 0
gw 0.0 0.0 0.0 0.0
gi 0 0 0 0
gw 0.0 0.0 0.0 0.0
gi 0 0 0 0
gw 0.0 0.0 0.0 0.0
gi 0 0 0 0
gw 0.0 0.0 0.0 0.0
gi 0 0 0 0
gw 0.0 0.0 0.0 0.0
gi 0 0 0 0
gw 0.0 0.0 0.0 0.0
gi 0 0 0 0
gw 0.0 0.0 0.0 0.0
gi 0 0 0 0
gw 0.0 0.0 0.0 0.0
gi 0 0 0 0
gw 0.0 0.0 0.0 0.0
gi 0 0 0 0
gw 0.0 0.0 0.0 0.0
gi 0 0 0 0
gw 0.0 0.0 0.0 0.0
gi 0 0 0 0
gw 0.0 0.0 0.0 0.0
gi 0 0 0 0
gw 0.0 0.0 0.0 0.0
gi 0 0 0 0
gw 0.0 0.0 0.0 0.0
gi 0 0 0 0
gw 0.0 0.0 0.0 0.0
gi 0 0 0 0
gw 0.0 0.0 0.0 0.0
gi 0 0 0 0
gw 0.0 0.0 0.0 0.0
gi 0 0 0 0
gw 0.0 0.0 0.0 0.0
gi 0 0 0 0
gw 0.0 0.0 0.0 0.0
gi 0 0 0 0
gw 0.0 0.0 0.0 0.0
gi 0 0 0 0
gw 0.0 0.0 0.0 0.0
gi 0 0 0 0
gw 0.0 0.0 0.0 0.0
gi 0 0 0 0
gw 0.0 0.0 0.0 0.0
gi 0 0 0 0
gw 0.0 0.0 0.0 0.0
gi 0 0 0 0
gw 0.0 0.0 0.0 0.0
gi 0 0 0 0
gw 0.0 0.0 0.0 0.0
gi 0 0 0 0
gw 0.0 0.0 0.0 0.0
gi 0 0 0 0
gw 0.0 0.0 0.0 0.0
gi 0 0 0 0
gw 0.0 0.0 0.0 0.0
gi 0 0 0 0
gw 0.0 0.0 0.0 0.0
gi 0 0 0 0
gw 0.0 0.0 0.0 0.0
gi 0 0 0 0
gw 0.0 0.0 0.0 0.0
gi 0 0 0 0
gw 0.0 0.0 0.0 0.0
gi 0 0 0 0
gw 0.0 0.0 0.0 0.0
gi 0 0 0 0
gw 0.0 0.0 0.0 0.0
gi 0 0 0 0
gw 0.0 0.0 0.0 0.0
gi 0 0 0 0
gw 0.0 0.0 0.0 0.0
gi 0 0 0 0
gw 0.0 0.0 0.0 0.0
gi 0 0 0 0
gw 0.0 0.0 0.0 0.0
gi 0 0 0 0
gw 0.0 0.0 0.0 0.0
gi 0 0 0 0
gw 0.0 0.0 0.0 0.0
gi 0 0 0 0
gw 0.0 0.0 0.0 0.0
gi 0 0 0 0
gw 0.0 0.0 0.0 0.0
gi 0 0 0 0
gw 0.0 0.0 0.0 0.0
gi 0 0 0 0
gw 0.0 0.0 0.0 0.0
gi 0 0 0 0
gw 0.0 0.0 0.0 0.0
gi 0 0 0 0
gw 0.0 0.0 0.0 0.0
gi 0 0 0 0
gw 0.0 0.0 0.0 0.0
gi 0 0 0 0
gw 0.0 0.0 0.0 0.0
gi 0 0 0 0
gw 0.0 0.0 0.0 0.0
gi 0 0 0 0
gw 0.0 0.0 0.0 0.0
gi 0 0 0 0
gw 0.0 0.0 0.0 0.0
gi 0 0 0 0
gw 0.0 0.0 0.0 0.0
gi 0 0 0 0
gw 0.0 0.0 0.0 0.0
gi 0 0 0 0
gw 0.0 0.0 0.0 0.0
gi 0 0 0 0
gw 0.0 0.0 0.0 0.0
gi 0 0 0 0
gw 0.0 0.0 0.0 0.0
gi 0 0 0 0
gw 0.0 0.0 0.0 0.0
gi 0 0 0 0
gw 0.0 0.0 0.0 0.0
gi 0 0 0 0
gw 0.0 0.0 0.0 0.0
gi 0 0 0 0
gw 0.0 0.0 0.0 0.0
gi 0 0 0 0
gw 0.0 0.0 0.0 0.0
gi 0 0 0 0
gw 0.0 0.0 0.0 0.0
gi 0 0 0 0
gw 0.0 0.0 0.0 0.0
gi 0 0 0 0
gw 0.0 0.0 0.0 0.0
gi 0 0 0 0
gw 0.0 0.0 0.0 0.0
gi 0 0 0 0
gw 0.0 0.0 0.0 0.0
gi 0 0 0 0
gw 0.0 0.0 0.0 0.0
gi 0 0 0 0
gw 0.0 0.0 0.0 0.0
gi 0 0 0 0
gw 0.0 0.0 0.0 0.0
gi 0 0 0 0
gw 0.0 0.0 0.0 0.0
gi 0 0 0 0
gw 0.0 0.0 0.0 0.0
gi 0 0 0 0
gw 0.0 0.0 0.0 0.0
gi 0 0 0 0
gw 0.0 0.0 0.0 0.0
gi 0 0 0 0
gw 0.0 0.0 0.0 0.0
gi 0 0 0 0
gw 0.0 0.0 0.0 0.0
gi 0 0 0 0
gw 0.0 0.0 0.0 0.0
gi 0 0 0 0
gw 0.0 0.0 0.0 0.0
vt 0.5179 0.0173
vt 0.4869 0.0173
vt 0.4869 0.0141
vt 0.5179 0.0141
vt 0.5179 0.0474
vt 0.4869 0.0474
vt 0.4869 0.1668
vt 0.5179 0.1668
vt 0.5179 0.1687
vt 0.4869 0.1687
vt 0.5179 0.1252
vt 0.4869 0.1252
vt 0.5179 0.0699
vt 0.5179 0.0877
vt 0.4869 0.0877
vt 0.4869 0.0699
vt 0.0531 0.0173
vt 0.0221 0.0173
vt 0.0221 0.0141
vt 0.0531 0.0141
vt 0.0841 0.0173
vt 0.0841 0.0141
vt 0.1151 0.0173
vt 0.1151 0.0141
vt 0.1461 0.0173
vt 0.1461 0.0141
vt 0.1771 0.0173
vt 0.1771 0.0141
vt 0.208 0.0173
vt 0.208 0.0141
vt 0.239 0.0173
vt 0.239 0.0141
vt 0.27 0.0173
vt 0.27 0.0141
vt 0.301 0.0173
vt 0.301 0.0141
vt 0.332 0.0173
vt 0.332 0.0141
vt 0.363 0.0173
vt 0.363 0.0141
vt 0.394 0.0173
vt 0.394 0.0141
vt 0.4249 0.0173
vt 0.4249 0.0141
vt 0.4559 0.0173
vt 0.4559 0.0141
vt 0.9517 0.0141
vt 0.9788 0.0145
vt 0.9788 0.0177
vt 0.9517 0.0173
vt 0.9207 0.0141
vt 0.9207 0.0173
vt 0.8897 0.0141
vt 0.8897 0.0173
vt 0.8588 0.0141
vt 0.8587 0.0173
vt 0.8278 0.0141
vt 0.8278 0.0173
vt 0.7968 0.0141
vt 0.7968 0.0173
vt 0.7658 0.0141
vt 0.7658 0.0173
vt 0.7348 0.0141
vt 0.7348 0.0173
vt 0.7038 0.0141
vt 0.7038 0.0173
vt 0.6728 0.0141
vt 0.6728 0.0173
vt 0.6419 0.0141
vt 0.6418 0.0173
vt 0.6109 0.0141
vt 0.6109 0.0173
vt 0.5799 0.0141
vt 0.5799 0.0173
vt 0.5489 0.0141
vt 0.5489 0.0173
vt 0.0531 0.0474
vt 0.0221 0.0474
vt 0.0841 0.0474
vt 0.1151 0.0474
vt 0.1461 0.0474
vt 0.1771 0.0474
vt 0.208 0.0474
vt 0.239 0.0474
vt 0.27 0.0474
vt 0.301 0.0474
vt 0.332 0.0474
vt 0.363 0.0474
vt 0.394 0.0474
vt 0.4249 0.0474
vt 0.4559 0.0474
vt 0.9788 0.0479
vt 0.9517 0.0474
vt 0.9207 0.0474
vt 0.8897 0.0474
vt 0.8587 0.0474
vt 0.8278 0.0474
vt 0.7968 0.0474
vt 0.7658 0.0474
vt 0.7348 0.0474
vt 0.7038 0.0474
vt 0.6728 0.0474
vt 0.6418 0.0474
vt 0.6109 0.0474
vt 0.5799 0.0474
vt 0.5489 0.0474
vt 0.0221 0.1668
vt 0.0531 0.1668
vt 0.0531 0.1687
vt 0.0221 0.1687
vt 0.0841 0.1668
vt 0.0841 0.1687
vt 0.1151 0.1668
vt 0.1151 0.1687
vt 0.1461 0.1668
vt 0.1461 0.1687
vt 0.1771 0.1668
vt 0.177 0.1687
vt 0.208 0.1668
vt 0.208 0.1687
vt 0.239 0.1668
vt 0.239 0.1687
vt 0.27 0.1668
vt 0.27 0.1687
vt 0.301 0.1668
vt 0.301 0.1687
vt 0.332 0.1668
vt 0.332 0.1687
vt 0.363 0.1668
vt 0.363 0.1687
vt 0.394 0.1668
vt 0.3939 0.1687
vt 0.4249 0.1668
vt 0.4249 0.1687
vt 0.4559 0.1668
vt 0.4559 0.1687
vt 0.9517 0.1668
vt 0.9788 0.1681
vt 0.9788 0.1691
vt 0.9517 0.1687
vt 0.9207 0.1668
vt 0.9207 0.1687
vt 0.8897 0.1668
vt 0.8897 0.1687
vt 0.8587 0.1668
vt 0.8587 0.1687
vt 0.8278 0.1668
vt 0.8277 0.1687
vt 0.7968 0.1668
vt 0.7968 0.1687
vt 0.7658 0.1668
vt 0.7658 0.1687
vt 0.7348 0.1668
vt 0.7348 0.1687
vt 0.7038 0.1668
vt 0.7038 0.1687
vt 0.6728 0.1668
vt 0.6728 0.1687
vt 0.6418 0.1668
vt 0.6418 0.1687
vt 0.6109 0.1668
vt 0.6108 0.1687
vt 0.5799 0.1668
vt 0.5799 0.1687
vt 0.5489 0.1668
vt 0.5489 0.1687
vt 0.0531 0.1252
vt 0.0221 0.1252
vt 0.0841 0.1252
vt 0.1151 0.1252
vt 0.1461 0.1252
vt 0.1771 0.1252
vt 0.208 0.1252
vt 0.239 0.1252
vt 0.27 0.1252
vt 0.301 0.1252
vt 0.332 0.1252
vt 0.363 0.1252
vt 0.394 0.1252
vt 0.4249 0.1252
vt 0.4559 0.1252
vt 0.9517 0.1381
vt 0.9517 0.0877
vt 0.9788 0.0889
vt 0.9788 0.1387
vt 0.9207 0.1381
vt 0.9207 0.0877
vt 0.8897 0.1381
vt 0.8897 0.0877
vt 0.8587 0.1381
vt 0.8587 0.0877
vt 0.8278 0.1381
vt 0.8278 0.0877
vt 0.7968 0.1381
vt 0.7968 0.0877
vt 0.7658 0.1381
vt 0.7658 0.0877
vt 0.7348 0.1381
vt 0.7348 0.0877
vt 0.7038 0.1381
vt 0.7038 0.0877
vt 0.6728 0.1381
vt 0.6728 0.0877
vt 0.6418 0.1381
vt 0.6418 0.0877
vt 0.6109 0.1381
vt 0.6109 0.0877
vt 0.5799 0.1381
vt 0.5799 0.0877
vt 0.5489 0.1381
vt 0.5489 0.0877
vt 0.5179 0.1381
vt 0.0531 0.0699
vt 0.0531 0.0877
vt 0.0221 0.0877
vt 0.0221 0.0699
vt 0.0841 0.0699
vt 0.0841 0.0877
vt 0.1151 0.0699
vt 0.1151 0.0877
vt 0.1461 0.0699
vt 0.1461 0.0877
vt 0.1771 0.0699
vt 0.1771 0.0877
vt 0.208 0.0699
vt 0.208 0.0877
vt 0.239 0.0699
vt 0.239 0.0877
vt 0.27 0.0699
vt 0.27 0.0877
vt 0.301 0.0699
vt 0.301 0.0877
vt 0.332 0.0699
vt 0.332 0.0877
vt 0.363 0.0699
vt 0.363 0.0877
vt 0.394 0.0699
vt 0.394 0.0877
vt 0.4249 0.0699
vt 0.4249 0.0877
vt 0.4559 0.0699
vt 0.4559 0.0877
vt 0.9517 0.0699
vt 0.9788 0.0711
vt 0.9207 0.0699
vt 0.8897 0.0699
vt 0.8587 0.0699
vt 0.8278 0.0699
vt 0.7968 0.0699
vt 0.7658 0.0699
vt 0.7348 0.0699
vt 0.7038 0.0699
vt 0.6728 0.0699
vt 0.6418 0.0699
vt 0.6109 0.0699
vt 0.5799 0.0699
vt 0.5489 0.0699
vt 0.4869 0.1381
vt 0.0531 0.1381
vt 0.0221 0.1381
vt 0.0841 0.1381
vt 0.1151 0.1381
vt 0.1461 0.1381
vt 0.1771 0.1381
vt 0.208 0.1381
vt 0.239 0.1381
vt 0.27 0.1381
vt 0.301 0.1381
vt 0.332 0.1381
vt 0.363 0.1381
vt 0.394 0.1381
vt 0.4249 0.1381
vt 0.4559 0.1381
vt 0.9517 0.1533
vt 0.9788 0.1538
vt 0.9207 0.1533
vt 0.8897 0.1533
vt 0.8587 0.1533
vt 0.8278 0.1533
vt 0.7968 0.1533
vt 0.7658 0.1533
vt 0.7348 0.1533
vt 0.7038 0.1533
vt 0.6728 0.1533
vt 0.6418 0.1533
vt 0.6109 0.1533
vt 0.5799 0.1533
vt 0.5489 0.1533
vt 0.5179 0.1533
vt 0.4869 0.1533
vt 0.0531 0.1533
vt 0.0221 0.1533
vt 0.0841 0.1533
vt 0.1151 0.1533
vt 0.1461 0.1533
vt 0.1771 0.1533
vt 0.208 0.1533
vt 0.239 0.1533
vt 0.27 0.1533
vt 0.301 0.1533
vt 0.332 0.1533
vt 0.363 0.1533
vt 0.394 0.1533
vt 0.4249 0.1533
vt 0.4559 0.1533
vt 0.9517 0.1252
vt 0.9788 0.1267
vt 0.9207 0.1252
vt 0.8897 0.1252
vt 0.8587 0.1252
vt 0.8278 0.1252
vt 0.7968 0.1252
vt 0.7658 0.1252
vt 0.7348 0.1252
vt 0.7038 0.1252
vt 0.6728 0.1252
vt 0.6418 0.1252
vt 0.6109 0.1252
vt 0.5799 0.1252
vt 0.5489 0.1252
vn -0.0339 -0.9459 -0.3228
vn 0.0318 -0.9458 -0.3231
vn 0.0 -1.0 0.0
vn 0.0 -1.0 0.0
vn -0.0944 -0.4265 -0.8996
vn 0.0885 -0.4265 -0.9002
vn 0.0965 -0.1734 -0.9801
vn -0.1028 -0.1735 -0.9795
vn -0.1042 -0.0583 -0.9928
vn 0.0978 -0.0581 -0.9935
vn -0.0978 0.348 -0.9324
vn 0.0919 0.348 -0.933
vn -0.0974 0.3592 -0.9282
vn -0.1029 -0.17 -0.9801
vn 0.0966 -0.17 -0.9807
vn 0.0913 0.3593 -0.9288
vn 0.0664 -0.9458 0.3177
vn 0.001 -0.9459 0.3246
vn 0.0 -1.0 -0.0
vn 0.0 -1.0 -0.0
vn 0.129 -0.9459 0.2977
vn -0.0 -1.0 0.0001
vn 0.1862 -0.9459 0.2658
vn 0.0 -1.0 -0.0
vn 0.236 -0.9459 0.2228
vn 0.0 -1.0 0.0
vn 0.276 -0.9459 0.1708
vn 0.0 -1.0 0.0001
vn 0.3047 -0.9459 0.1117
vn 0.0 -1.0 0.0
vn 0.321 -0.9459 0.0481
vn 0.0 -1.0 -0.0
vn 0.3241 -0.9459 -0.0175
vn 0.0 -1.0 0.0
vn 0.3139 -0.9459 -0.0823
vn 0.0 -1.0 -0.0
vn 0.291 -0.9458 -0.1439
vn 0.0 -1.0 -0.0
vn 0.2559 -0.9459 -0.1996
vn 0.0 -1.0 -0.0
vn 0.2107 -0.9459 -0.247
vn 0.0 -1.0 0.0
vn 0.1566 -0.9458 -0.2844
vn 0.0 -1.0 -0.0001
vn 0.0962 -0.9459 -0.31
vn 0.0 -1.0 0.0001
vn 0.0 -1.0 -0.0001
vn -0.0643 -0.9459 0.3182
vn 0.0 -1.0 0.0
vn -0.127 -0.9459 0.2987
vn 0.0 -1.0 0.0001
vn -0.1847 -0.9458 0.267
vn 0.0 -1.0 -0.0
vn -0.2346 -0.9459 0.2243
vn 0.0 -1.0 0.0
vn -0.2748 -0.9459 0.1726
vn 0.0 -1.0 0.0
vn -0.304 -0.9459 0.1137
vn 0.0 -1.0 -0.0
vn -0.3206 -0.9459 0.0502
vn 0.0 -1.0 0.0
vn -0.3243 -0.9458 -0.0153
vn 0.0 -1.0 -0.0
vn -0.3145 -0.9459 -0.0804
vn 0.0 -1.0 0.0
vn -0.2919 -0.9458 -0.142
vn 0.0 -1.0 0.0
vn -0.2573 -0.9459 -0.1979
vn 0.0 -1.0 -0.0001
vn -0.2122 -0.9459 -0.2456
vn 0.0 -1.0 0.0
vn -0.1584 -0.9458 -0.2833
vn 0.0 -1.0 0.0
vn -0.0981 -0.9458 -0.3094
vn 0.185 -0.4265 0.8853
vn 0.0029 -0.4265 0.9045
vn 0.3594 -0.4265 0.83
vn 0.5191 -0.4265 0.7407
vn 0.6577 -0.4264 0.621
vn 0.7692 -0.4264 0.4759
vn 0.8492 -0.4265 0.3114
vn 0.8945 -0.4265 0.134
vn 0.9032 -0.4264 -0.0488
vn 0.8749 -0.4264 -0.2296
vn 0.8108 -0.4264 -0.4009
vn 0.7134 -0.4264 -0.556
vn 0.5869 -0.4265 -0.6882
vn 0.4365 -0.4265 -0.7922
vn 0.2679 -0.4265 -0.8639
vn -0.1793 -0.4264 0.8866
vn -0.3541 -0.4265 0.8323
vn -0.5143 -0.4265 0.744
vn -0.6535 -0.4265 0.6253
vn -0.7661 -0.4265 0.4809
vn -0.8472 -0.4265 0.3168
vn -0.8936 -0.4265 0.1397
vn -0.9035 -0.4265 -0.0429
vn -0.8764 -0.4265 -0.2238
vn -0.8133 -0.4265 -0.3957
vn -0.717 -0.4265 -0.5514
vn -0.5914 -0.4264 -0.6844
vn -0.4415 -0.4265 -0.7894
vn -0.2735 -0.4265 -0.8622
vn 0.0031 -0.1734 0.9848
vn 0.2014 -0.1735 0.964
vn 0.2042 -0.0582 0.9772
vn 0.0031 -0.0581 0.9983
vn 0.3914 -0.1735 0.9037
vn 0.3967 -0.0582 0.9161
vn 0.5653 -0.1735 0.8064
vn 0.573 -0.0583 0.8175
vn 0.7161 -0.1735 0.6761
vn 0.7258 -0.0583 0.6854
vn 0.8375 -0.1734 0.5182
vn 0.8489 -0.0582 0.5253
vn 0.9246 -0.1736 0.339
vn 0.9373 -0.0585 0.3437
vn 0.974 -0.1735 0.1459
vn 0.9873 -0.0585 0.148
vn 0.9834 -0.1735 -0.0531
vn 0.9968 -0.0584 -0.0539
vn 0.9526 -0.1735 -0.2499
vn 0.9656 -0.058 -0.2534
vn 0.8828 -0.1734 -0.4366
vn 0.8949 -0.0581 -0.4425
vn 0.7768 -0.1735 -0.6054
vn 0.7875 -0.0584 -0.6136
vn 0.639 -0.1735 -0.7494
vn 0.6478 -0.0584 -0.7596
vn 0.4752 -0.1734 -0.8626
vn 0.4817 -0.0582 -0.8744
vn 0.2918 -0.1734 -0.9406
vn 0.2958 -0.0581 -0.9535
vn -0.1952 -0.1735 0.9653
vn -0.1979 -0.0584 0.9785
vn -0.3855 -0.1735 0.9063
vn -0.3908 -0.0582 0.9186
vn -0.5601 -0.1735 0.8101
vn -0.5677 -0.0584 0.8211
vn -0.7117 -0.1735 0.6808
vn -0.7214 -0.0583 0.69
vn -0.8341 -0.1735 0.5236
vn -0.8456 -0.0583 0.5307
vn -0.9225 -0.1735 0.3449
vn -0.9351 -0.0583 0.3496
vn -0.973 -0.1735 0.1522
vn -0.9863 -0.0583 0.1543
vn -0.9837 -0.1736 -0.0468
vn -0.9972 -0.0585 -0.0475
vn -0.9542 -0.1734 -0.2438
vn -0.9672 -0.0582 -0.2472
vn -0.8856 -0.1734 -0.4309
vn -0.8977 -0.0582 -0.4368
vn -0.7807 -0.1735 -0.6003
vn -0.7914 -0.0584 -0.6086
vn -0.6439 -0.1734 -0.7452
vn -0.6526 -0.0582 -0.7554
vn -0.4807 -0.1735 -0.8596
vn -0.4873 -0.0583 -0.8713
vn -0.2978 -0.1735 -0.9387
vn -0.3019 -0.0584 -0.9515
vn 0.1918 0.348 0.9177
vn 0.003 0.348 0.9375
vn 0.3726 0.348 0.8603
vn 0.538 0.348 0.7677
vn 0.6816 0.348 0.6436
vn 0.7972 0.348 0.4932
vn 0.8802 0.348 0.3227
vn 0.9272 0.348 0.1389
vn 0.9361 0.348 -0.0506
vn 0.9068 0.348 -0.238
vn 0.8404 0.3481 -0.4155
vn 0.7395 0.348 -0.5762
vn 0.6084 0.348 -0.7133
vn 0.4523 0.348 -0.8212
vn 0.2777 0.3481 -0.8954
vn -0.171 -0.5062 0.8453
vn -0.1954 -0.1701 0.9659
vn 0.0033 -0.1701 0.9854
vn 0.0028 -0.5062 0.8624
vn -0.3376 -0.5062 0.7936
vn -0.3858 -0.17 0.9068
vn -0.4904 -0.5062 0.7094
vn -0.5604 -0.17 0.8106
vn -0.6231 -0.5062 0.5962
vn -0.7121 -0.17 0.6812
vn -0.7304 -0.5062 0.4585
vn -0.8345 -0.17 0.5241
vn -0.8078 -0.5062 0.3021
vn -0.923 -0.1701 0.3452
vn -0.8521 -0.5062 0.1333
vn -0.9736 -0.1701 0.1521
vn -0.8615 -0.5062 -0.041
vn -0.9843 -0.17 -0.0468
vn -0.8356 -0.5061 -0.2135
vn -0.9548 -0.1701 -0.2439
vn -0.7755 -0.5062 -0.3774
vn -0.8861 -0.17 -0.4311
vn -0.6837 -0.5061 -0.5257
vn -0.7812 -0.17 -0.6007
vn -0.5638 -0.5062 -0.6526
vn -0.6442 -0.17 -0.7457
vn -0.421 -0.5062 -0.7527
vn -0.481 -0.17 -0.8601
vn -0.2608 -0.5062 -0.8221
vn -0.2982 -0.17 -0.9392
vn -0.09 -0.5062 -0.8577
vn 0.1909 0.3593 0.9135
vn 0.2016 -0.1701 0.9646
vn 0.0029 0.3592 0.9332
vn 0.3709 0.3593 0.8564
vn 0.3915 -0.1701 0.9043
vn 0.5356 0.3593 0.7642
vn 0.5656 -0.1701 0.8069
vn 0.6785 0.3593 0.6407
vn 0.7165 -0.17 0.6766
vn 0.7936 0.3592 0.4911
vn 0.838 -0.17 0.5185
vn 0.8762 0.3592 0.3213
vn 0.9252 -0.17 0.3393
vn 0.9229 0.3592 0.1383
vn 0.9745 -0.1701 0.1461
vn 0.9319 0.3593 -0.0504
vn 0.984 -0.17 -0.0532
vn 0.9027 0.3592 -0.2368
vn 0.9532 -0.1701 -0.2501
vn 0.8365 0.3593 -0.4137
vn 0.8833 -0.1701 -0.4369
vn 0.7361 0.3593 -0.5737
vn 0.7773 -0.17 -0.6057
vn 0.6057 0.3592 -0.71
vn 0.6395 -0.17 -0.7498
vn 0.4503 0.3593 -0.8174
vn 0.4755 -0.17 -0.8631
vn 0.2764 0.3593 -0.8914
vn 0.292 -0.17 -0.9412
vn -0.185 0.3593 0.9147
vn -0.3653 0.3592 0.8588
vn -0.5307 0.3592 0.7676
vn -0.6743 0.3593 0.6452
vn -0.7904 0.3593 0.4961
vn -0.8741 0.3593 0.3268
vn -0.922 0.3593 0.1442
vn -0.9322 0.3593 -0.0443
vn -0.9042 0.3593 -0.2309
vn -0.8392 0.3593 -0.4082
vn -0.7398 0.3593 -0.5689
vn -0.6101 0.3593 -0.7062
vn -0.4555 0.3593 -0.8145
vn -0.2823 0.3592 -0.8895
vn 0.0845 -0.5062 -0.8583
vn 0.1764 -0.5062 0.8442
vn 0.3427 -0.5062 0.7914
vn 0.495 -0.5062 0.7062
vn 0.627 -0.5062 0.5922
vn 0.7334 -0.5062 0.4538
vn 0.8097 -0.5062 0.2968
vn 0.8529 -0.5062 0.1278
vn 0.8612 -0.5061 -0.0465
vn 0.8342 -0.5062 -0.2189
vn 0.773 -0.5062 -0.3823
vn 0.6803 -0.5062 -0.5301
vn 0.5597 -0.5062 -0.6561
vn 0.4161 -0.5062 -0.7554
vn 0.2555 -0.5062 -0.8237
vn -0.1788 0.4316 0.8842
vn 0.0029 0.4316 0.9021
vn -0.3531 0.4316 0.8301
vn -0.513 0.4315 0.742
vn -0.6518 0.4316 0.6236
vn -0.764 0.4316 0.4796
vn -0.8449 0.4315 0.316
vn -0.8912 0.4316 0.1394
vn -0.9011 0.4316 -0.0429
vn -0.874 0.4316 -0.2233
vn -0.8111 0.4316 -0.3947
vn -0.7151 0.4316 -0.5498
vn -0.5898 0.4316 -0.6825
vn -0.4403 0.4315 -0.7873
vn -0.2728 0.4316 -0.8598
vn -0.0941 0.4316 -0.8972
vn 0.0884 0.4316 -0.8977
vn 0.1845 0.4315 0.883
vn 0.3585 0.4316 0.8278
vn 0.5178 0.4316 0.7387
vn 0.6558 0.4316 0.6194
vn 0.7671 0.4316 0.4746
vn 0.8469 0.4316 0.3105
vn 0.8921 0.4316 0.1337
vn 0.9007 0.4316 -0.0486
vn 0.8725 0.4316 -0.229
vn 0.8086 0.4316 -0.3999
vn 0.7116 0.4315 -0.5545
vn 0.5854 0.4316 -0.6864
vn 0.4352 0.4316 -0.7902
vn 0.2672 0.4316 -0.8616
vn -0.1858 0.348 0.9189
vn -0.367 0.348 0.8627
vn -0.5331 0.348 0.7711
vn -0.6775 0.348 0.648
vn -0.794 0.348 0.4985
vn -0.8781 0.3481 0.3284
vn -0.9262 0.3481 0.1448
vn -0.9364 0.348 -0.0445
vn -0.9083 0.348 -0.232
vn -0.843 0.348 -0.4101
vn -0.7431 0.348 -0.5715
vn -0.6129 0.348 -0.7094
vn -0.4576 0.348 -0.8182
vn -0.2835 0.348 -0.8936
vtan -0.9945 -0.0 0.1044 1.0
vtan -0.9952 -0.0 -0.098 1.0
vtan -0.9952 -0.0 -0.0978 1.0
vtan -0.9945 0.0 0.1047 1.0
vtan -0.9945 -0.0 0.1044 1.0
vtan -0.9952 -0.0 -0.0979 1.0
vtan -0.9952 0.0 -0.098 1.0
vtan -0.9945 0.0 0.1044 1.0
vtan -0.9945 -0.0 0.1043 1.0
vtan -0.9952 0.0 -0.098 1.0
vtan -0.9945 0.0 0.1044 1.0
vtan -0.9952 -0.0 -0.098 1.0
vtan -0.9945 -0.0 0.1043 1.0
vtan -0.9945 -0.0 0.1044 1.0
vtan -0.9952 -0.0 -0.098 1.0
vtan -0.9952 -0.0 -0.0979 1.0
vtan 0.9789 0.0 -0.2045 1.0
vtan 0.9951 -0.0311 -0.0937 1.0
vtan 0.9945 0.0 -0.1043 1.0
vtan 0.9789 0.0 -0.2045 1.0
vtan 0.9177 0.0 -0.3974 1.0
vtan 0.9176 -0.0 -0.3974 1.0
vtan 0.8189 -0.0 -0.5739 1.0
vtan 0.8188 0.0 -0.5741 1.0
vtan 0.6866 0.0 -0.7271 1.0
vtan 0.6866 -0.0 -0.727 1.0
vtan 0.5261 0.0 -0.8504 1.0
vtan 0.526 -0.0 -0.8505 1.0
vtan 0.3443 0.0 -0.9389 1.0
vtan 0.3444 -0.0 -0.9388 1.0
vtan 0.1482 0.0 -0.989 1.0
vtan 0.1481 0.0 -0.989 1.0
vtan -0.054 0.0 -0.9985 1.0
vtan -0.0541 -0.0 -0.9985 1.0
vtan -0.2536 0.0 -0.9673 1.0
vtan -0.2539 0.0 -0.9672 1.0
vtan -0.4433 0.0 -0.8964 1.0
vtan -0.4435 0.0 -0.8963 1.0
vtan -0.6147 0.0001 -0.7888 1.0
vtan -0.6145 0.0 -0.7889 1.0
vtan -0.7608 0.0 -0.649 1.0
vtan -0.761 -0.0 -0.6488 1.0
vtan -0.8759 0.0 -0.4824 1.0
vtan -0.8761 0.0 -0.4821 1.0
vtan -0.9551 0.0 -0.2963 1.0
vtan -0.9552 -0.0 -0.2961 1.0
vtan 0.9838 -0.0 0.1795 1.0
vtan 0.9983 -0.0 0.0581 1.0
vtan 0.9991 0.0147 0.0397 1.0
vtan 0.9843 -0.0076 0.1763 1.0
vtan 0.9204 0.0 0.3911 1.0
vtan 0.9202 0.0 0.3915 1.0
vtan 0.8227 0.0001 0.5685 1.0
vtan 0.8224 0.0 0.5689 1.0
vtan 0.6914 -0.0 0.7225 1.0
vtan 0.6911 -0.0 0.7227 1.0
vtan 0.5319 0.0 0.8468 1.0
vtan 0.5317 0.0 0.847 1.0
vtan 0.3506 0.0 0.9365 1.0
vtan 0.3503 -0.0 0.9366 1.0
vtan 0.1547 -0.0 0.988 1.0
vtan 0.1545 0.0 0.988 1.0
vtan -0.0474 0.0 0.9989 1.0
vtan -0.0475 0.0001 0.9989 1.0
vtan -0.2473 -0.0 0.9689 1.0
vtan -0.2475 -0.0 0.9689 1.0
vtan -0.4373 0.0 0.8993 1.0
vtan -0.4376 0.0 0.8992 1.0
vtan -0.6094 0.0 0.7929 1.0
vtan -0.6097 0.0 0.7926 1.0
vtan -0.7565 -0.0001 0.654 1.0
vtan -0.7567 -0.0 0.6538 1.0
vtan -0.8726 0.0 0.4884 1.0
vtan -0.8728 0.0 0.4881 1.0
vtan -0.9532 0.0 0.3024 1.0
vtan -0.9532 0.0 0.3022 1.0
vtan 0.9789 -0.0 -0.2045 1.0
vtan 0.999 -0.0392 -0.0217 1.0
vtan 0.9177 0.0 -0.3974 1.0
vtan 0.8189 -0.0 -0.5739 1.0
vtan 0.6866 -0.0 -0.7271 1.0
vtan 0.5261 -0.0 -0.8504 1.0
vtan 0.3443 -0.0 -0.9389 1.0
vtan 0.1482 0.0 -0.989 1.0
vtan -0.054 0.0 -0.9985 1.0
vtan -0.2539 -0.0 -0.9672 1.0
vtan -0.4432 -0.0 -0.8964 1.0
vtan -0.6147 -0.0 -0.7887 1.0
vtan -0.7609 0.0 -0.6489 1.0
vtan -0.8759 -0.0 -0.4825 1.0
vtan -0.9551 -0.0 -0.2962 1.0
vtan 1.0 -0.0047 -0.0054 1.0
vtan 0.9816 -0.0174 0.1901 1.0
vtan 0.9202 0.0 0.3915 1.0
vtan 0.8226 0.0 0.5686 1.0
vtan 0.6913 -0.0 0.7226 1.0
vtan 0.5317 -0.0 0.847 1.0
vtan 0.3503 0.0 0.9366 1.0
vtan 0.1545 -0.0 0.988 1.0
vtan -0.0475 -0.0 0.9989 1.0
vtan -0.2475 0.0 0.9689 1.0
vtan -0.4375 0.0 0.8992 1.0
vtan -0.6096 -0.0 0.7927 1.0
vtan -0.7567 -0.0 0.6538 1.0
vtan -0.8728 0.0 0.4881 1.0
vtan -0.9532 0.0 0.3024 1.0
vtan 0.9998 -0.0175 -0.0063 1.0
vtan 0.9789 -0.0001 -0.2045 1.0
vtan 0.9789 -0.0001 -0.2045 1.0
vtan 1.0 -0.0059 -0.0035 1.0
vtan 0.9176 0.0 -0.3974 1.0
vtan 0.9176 0.0 -0.3974 1.0
vtan 0.8189 -0.0 -0.574 1.0
vtan 0.8189 0.0 -0.574 1.0
vtan 0.6866 0.0 -0.7271 1.0
vtan 0.6866 0.0 -0.7271 1.0
vtan 0.5262 0.0001 -0.8504 1.0
vtan 0.5262 0.0001 -0.8504 1.0
vtan 0.3442 -0.0 -0.9389 1.0
vtan 0.3443 -0.0 -0.9389 1.0
vtan 0.1482 -0.0 -0.989 1.0
vtan 0.1482 -0.0 -0.989 1.0
vtan -0.0539 -0.0 -0.9985 1.0
vtan -0.054 -0.0 -0.9985 1.0
vtan -0.2538 0.0 -0.9673 1.0
vtan -0.2538 0.0 -0.9673 1.0
vtan -0.4433 0.0 -0.8964 1.0
vtan -0.4433 -0.0 -0.8964 1.0
vtan -0.6147 0.0 -0.7888 1.0
vtan -0.6146 -0.0 -0.7888 1.0
vtan -0.7609 0.0 -0.6489 1.0
vtan -0.7609 -0.0 -0.6489 1.0
vtan -0.8759 0.0 -0.4825 1.0
vtan -0.8759 0.0 -0.4825 1.0
vtan -0.9551 -0.0 -0.2963 1.0
vtan -0.9551 -0.0 -0.2963 1.0
vtan 0.9799 -0.0761 0.1844 1.0
vtan 0.9553 -0.2908 -0.0542 1.0
vtan 0.9172 -0.3976 -0.026 1.0
vtan 0.9796 -0.0471 0.1953 1.0
vtan 0.9202 0.0 0.3914 1.0
vtan 0.9202 0.0 0.3915 1.0
vtan 0.8225 -0.0 0.5687 1.0
vtan 0.8225 -0.0 0.5687 1.0
vtan 0.6913 -0.0 0.7226 1.0
vtan 0.6912 -0.0 0.7227 1.0
vtan 0.5316 0.0 0.847 1.0
vtan 0.5316 0.0 0.847 1.0
vtan 0.3502 -0.0 0.9367 1.0
vtan 0.3502 -0.0 0.9367 1.0
vtan 0.1545 0.0 0.988 1.0
vtan 0.1545 0.0 0.988 1.0
vtan -0.0475 -0.0 0.9989 1.0
vtan -0.0475 -0.0 0.9989 1.0
vtan -0.2475 0.0 0.9689 1.0
vtan -0.2476 -0.0 0.9689 1.0
vtan -0.4375 0.0 0.8992 1.0
vtan -0.4376 0.0 0.8992 1.0
vtan -0.6096 0.0 0.7927 1.0
vtan -0.6096 0.0 0.7927 1.0
vtan -0.7567 -0.0 0.6538 1.0
vtan -0.7567 -0.0 0.6537 1.0
vtan -0.8728 0.0 0.4881 1.0
vtan -0.8728 0.0 0.4881 1.0
vtan -0.9532 -0.0 0.3024 1.0
vtan -0.9532 -0.0 0.3024 1.0
vtan 0.9789 -0.0 -0.2045 1.0
vtan 0.9993 0.0332 -0.0155 1.0
vtan 0.9176 -0.0 -0.3974 1.0
vtan 0.8189 0.0 -0.5739 1.0
vtan 0.6866 0.0 -0.7271 1.0
vtan 0.5261 0.0 -0.8504 1.0
vtan 0.3442 -0.0 -0.9389 1.0
vtan 0.1482 0.0 -0.989 1.0
vtan -0.054 0.0 -0.9985 1.0
vtan -0.2538 -0.0 -0.9672 1.0
vtan -0.4432 0.0 -0.8964 1.0
vtan -0.6147 0.0 -0.7888 1.0
vtan -0.7609 0.0 -0.6489 1.0
vtan -0.8759 0.0 -0.4825 1.0
vtan -0.9551 -0.0 -0.2962 1.0
vtan 0.982 -0.0179 0.1879 1.0
vtan 0.9804 -0.059 0.188 1.0
vtan 0.9953 -0.0944 -0.0196 1.0
vtan 0.9999 0.0149 0.0055 1.0
vtan 0.9202 0.0 0.3915 1.0
vtan 0.9202 0.0 0.3915 1.0
vtan 0.8226 0.0 0.5687 1.0
vtan 0.8226 0.0 0.5687 1.0
vtan 0.6913 0.0 0.7226 1.0
vtan 0.6912 -0.0 0.7226 1.0
vtan 0.5317 -0.0 0.8469 1.0
vtan 0.5318 -0.0 0.8469 1.0
vtan 0.3503 -0.0 0.9366 1.0
vtan 0.3503 -0.0 0.9366 1.0
vtan 0.1545 -0.0 0.988 1.0
vtan 0.1544 0.0 0.988 1.0
vtan -0.0475 -0.0 0.9989 1.0
vtan -0.0475 -0.0 0.9989 1.0
vtan -0.2475 0.0 0.9689 1.0
vtan -0.2475 0.0 0.9689 1.0
vtan -0.4376 -0.0 0.8992 1.0
vtan -0.4375 0.0 0.8992 1.0
vtan -0.6095 0.0 0.7928 1.0
vtan -0.6096 -0.0 0.7927 1.0
vtan -0.7567 -0.0 0.6538 1.0
vtan -0.7567 -0.0 0.6538 1.0
vtan -0.8728 -0.0 0.4881 1.0
vtan -0.8728 0.0 0.4881 1.0
vtan -0.9532 -0.0 0.3024 1.0
vtan -0.9531 0.0 0.3026 1.0
vtan -0.9945 -0.0 0.1044 1.0
vtan 0.9789 -0.0 -0.2046 1.0
vtan 0.9789 0.0 -0.2046 1.0
vtan 0.9998 -0.0171 -0.0063 1.0
vtan 0.9993 0.0341 -0.0162 1.0
vtan 0.9176 -0.0 -0.3974 1.0
vtan 0.9177 -0.0 -0.3973 1.0
vtan 0.8189 -0.0 -0.574 1.0
vtan 0.8189 -0.0 -0.574 1.0
vtan 0.6866 -0.0 -0.7271 1.0
vtan 0.6866 -0.0 -0.727 1.0
vtan 0.5262 -0.0 -0.8504 1.0
vtan 0.5261 -0.0 -0.8504 1.0
vtan 0.3443 -0.0 -0.9389 1.0
vtan 0.3443 0.0 -0.9389 1.0
vtan 0.1482 0.0 -0.989 1.0
vtan 0.1482 -0.0 -0.989 1.0
vtan -0.054 0.0 -0.9985 1.0
vtan -0.054 0.0 -0.9985 1.0
vtan -0.2538 0.0 -0.9673 1.0
vtan -0.2538 0.0 -0.9673 1.0
vtan -0.4433 0.0 -0.8964 1.0
vtan -0.4433 -0.0 -0.8964 1.0
vtan -0.6147 0.0 -0.7888 1.0
vtan -0.6147 0.0 -0.7888 1.0
vtan -0.7608 0.0 -0.649 1.0
vtan -0.7608 0.0 -0.649 1.0
vtan -0.8759 0.0 -0.4825 1.0
vtan -0.8759 -0.0 -0.4825 1.0
vtan -0.9551 -0.0 -0.2962 1.0
vtan -0.9551 -0.0 -0.2963 1.0
vtan 0.975 -0.0498 0.2167 1.0
vtan 0.9877 -0.1467 0.0534 1.0
vtan 0.9202 0.0 0.3914 1.0
vtan 0.8226 0.0 0.5687 1.0
vtan 0.6913 0.0 0.7226 1.0
vtan 0.5316 0.0 0.847 1.0
vtan 0.3502 0.0 0.9367 1.0
vtan 0.1545 0.0 0.988 1.0
vtan -0.0475 0.0 0.9989 1.0
vtan -0.2475 -0.0 0.9689 1.0
vtan -0.4375 0.0 0.8992 1.0
vtan -0.6096 -0.0 0.7927 1.0
vtan -0.7568 0.0 0.6537 1.0
vtan -0.8728 0.0 0.4881 1.0
vtan -0.9532 -0.0 0.3024 1.0
vtan -0.9952 0.0 -0.098 1.0
vtan 0.9789 0.0 -0.2046 1.0
vtan 0.9986 -0.0444 -0.0293 1.0
vtan 0.9177 -0.0 -0.3974 1.0
vtan 0.8189 0.0 -0.574 1.0
vtan 0.6866 -0.0 -0.727 1.0
vtan 0.5262 -0.0 -0.8504 1.0
vtan 0.3442 0.0 -0.9389 1.0
vtan 0.1482 -0.0 -0.989 1.0
vtan -0.0539 0.0 -0.9985 1.0
vtan -0.2538 -0.0 -0.9672 1.0
vtan -0.4433 -0.0 -0.8964 1.0
vtan -0.6146 -0.0 -0.7888 1.0
vtan -0.7608 -0.0 -0.649 1.0
vtan -0.8759 0.0 -0.4825 1.0
vtan -0.9551 -0.0 -0.2963 1.0
vtan 0.9786 -0.0147 0.2051 1.0
vtan 0.9974 -0.0659 0.0283 1.0
vtan 0.9202 0.0 0.3915 1.0
vtan 0.8226 0.0 0.5687 1.0
vtan 0.6913 0.0 0.7226 1.0
vtan 0.5317 -0.0 0.8469 1.0
vtan 0.3503 0.0 0.9366 1.0
vtan 0.1545 0.0 0.988 1.0
vtan -0.0475 -0.0 0.9989 1.0
vtan -0.2475 0.0 0.9689 1.0
vtan -0.4376 -0.0 0.8992 1.0
vtan -0.6095 0.0 0.7928 1.0
vtan -0.7566 -0.0 0.6538 1.0
vtan -0.8728 0.0 0.4881 1.0
vtan -0.9532 -0.0 0.3024 1.0
vtan -0.9945 0.0 0.1043 1.0
vtan -0.9945 -0.0 0.1043 -1.0
vtan -0.9945 -0.0 0.1044 -1.0
vtan -0.9952 0.0 -0.098 -1.0
vtan -0.9952 -0.0 -0.098 -1.0
vtan 0.9789 0.0 -0.2045 -1.0
vtan 0.9789 -0.0 -0.2045 -1.0
vtan 0.9993 0.0332 -0.0155 -1.0
vtan 0.999 0.0396 -0.0221 -1.0
vtan 0.9176 0.0 -0.3974 -1.0
vtan 0.9176 0.0 -0.3974 -1.0
vtan 0.8189 -0.0 -0.574 -1.0
vtan 0.8189 -0.0 -0.5739 -1.0
vtan 0.6866 0.0 -0.727 -1.0
vtan 0.6866 -0.0 -0.7271 -1.0
vtan 0.5261 0.0 -0.8504 -1.0
vtan 0.5261 0.0 -0.8504 -1.0
vtan 0.3442 -0.0 -0.9389 -1.0
vtan 0.3442 0.0 -0.9389 -1.0
vtan 0.1482 0.0 -0.989 -1.0
vtan 0.1482 -0.0 -0.989 -1.0
vtan -0.0539 -0.0 -0.9985 -1.0
vtan -0.054 -0.0 -0.9985 -1.0
vtan -0.2538 0.0 -0.9673 -1.0
vtan -0.2538 0.0 -0.9672 -1.0
vtan -0.4433 -0.0 -0.8964 -1.0
vtan -0.4432 0.0 -0.8964 -1.0
vtan -0.6147 -0.0 -0.7888 -1.0
vtan -0.6147 0.0 -0.7888 -1.0
vtan -0.7609 0.0 -0.6489 -1.0
vtan -0.7609 0.0 -0.6489 -1.0
vtan -0.8759 -0.0 -0.4824 -1.0
vtan -0.8759 -0.0 -0.4825 -1.0
vtan -0.9551 -0.0 -0.2962 -1.0
vtan -0.9551 0.0 -0.2962 -1.0
vtan 0.9749 -0.0511 0.2165 1.0
vtan 0.991 -0.1265 0.0438 1.0
vtan 0.9202 0.0 0.3914 1.0
vtan 0.8225 -0.0 0.5687 1.0
vtan 0.6912 -0.0 0.7226 1.0
vtan 0.5317 -0.0 0.8469 1.0
vtan 0.3503 0.0 0.9366 1.0
vtan 0.1545 -0.0 0.988 1.0
vtan -0.0475 -0.0 0.9989 1.0
vtan -0.2475 0.0 0.9689 1.0
vtan -0.4375 0.0 0.8992 1.0
vtan -0.6096 0.0 0.7927 1.0
vtan -0.7567 -0.0 0.6538 1.0
vtan -0.8728 0.0 0.4881 1.0
vtan -0.9532 -0.0 0.3025 1.0
vtan 0.9808 0.0098 0.1947 -1.0
vtan 0.9806 0.0052 0.1958 -1.0
vtan 0.9999 -0.0133 0.0032 -1.0
vtan 1.0 0.0034 -0.0044 -1.0
vtan 0.9202 -0.0 0.3914 -1.0
vtan 0.9202 0.0 0.3915 -1.0
vtan 0.8225 -0.0 0.5687 -1.0
vtan 0.8226 0.0 0.5687 -1.0
vtan 0.6912 0.0 0.7226 -1.0
vtan 0.6913 -0.0 0.7226 -1.0
vtan 0.5317 0.0 0.8469 -1.0
vtan 0.5317 0.0 0.8469 -1.0
vtan 0.3503 -0.0 0.9366 -1.0
vtan 0.3503 -0.0 0.9366 -1.0
vtan 0.1545 0.0 0.988 -1.0
vtan 0.1545 0.0 0.988 -1.0
vtan -0.0475 0.0 0.9989 -1.0
vtan -0.0475 0.0 0.9989 -1.0
vtan -0.2475 -0.0 0.9689 -1.0
vtan -0.2475 -0.0 0.9689 -1.0
vtan -0.4375 -0.0 0.8992 -1.0
vtan -0.4375 0.0 0.8992 -1.0
vtan -0.6096 -0.0 0.7927 -1.0
vtan -0.6095 -0.0 0.7928 -1.0
vtan -0.7567 0.0 0.6538 -1.0
vtan -0.7566 0.0 0.6538 -1.0
vtan -0.8728 -0.0 0.4881 -1.0
vtan -0.8728 -0.0 0.4881 -1.0
vtan -0.9532 0.0 0.3025 -1.0
vtan -0.9532 0.0 0.3024 -1.0
vtan -0.9952 -0.0 -0.098 1.0
vtan 0.9789 0.0 -0.2045 1.0
vtan 0.999 0.0396 -0.0221 1.0
vtan 0.9176 -0.0 -0.3974 1.0
vtan 0.8189 0.0 -0.574 1.0
vtan 0.6866 -0.0 -0.727 1.0
vtan 0.5262 0.0 -0.8504 1.0
vtan 0.3442 0.0 -0.9389 1.0
vtan 0.1482 0.0 -0.989 1.0
vtan -0.0539 0.0 -0.9985 1.0
vtan -0.2538 -0.0 -0.9673 1.0
vtan -0.4433 0.0 -0.8964 1.0
vtan -0.6147 -0.0 -0.7888 1.0
vtan -0.7609 0.0 -0.6489 1.0
vtan -0.8759 -0.0 -0.4824 1.0
vtan -0.9551 -0.0 -0.2962 1.0
f 0/0/0/0 1/1/1/1 2/2/2/2 
f 0/0/0/0 2/2/2/2 3/3/3/3 
f 1/1/1/1 0/0/0/0 4/4/4/4 
f 1/1/1/1 4/4/4/4 5/5/5/5 
f 6/6/6/6 7/7/7/7 8/8/8/8 
f 6/6/6/6 8/8/8/8 9/9/9/9 
f 10/10/10/10 7/7/7/7 6/6/6/6 
f 10/10/10/10 6/6/6/6 11/11/11/11 
f 12/12/12/12 13/13/13/13 14/14/14/14 
f 12/12/12/12 14/14/14/14 15/15/15/15 
f 16/16/16/16 17/17/17/17 18/18/18/18 
f 16/16/16/16 18/18/18/18 19/19/19/19 
f 20/20/20/20 16/16/16/16 19/19/19/19 
f 20/20/20/20 19/19/19/19 21/21/21/21 
f 22/22/22/22 20/20/20/20 21/21/21/21 
f 22/22/22/22 21/21/21/21 23/23/23/23 
f 24/24/24/24 22/22/22/22 23/23/23/23 
f 24/24/24/24 23/23/23/23 25/25/25/25 
f 26/26/26/26 24/24/24/24 25/25/25/25 
f 26/26/26/26 25/25/25/25 27/27/27/27 
f 28/28/28/28 26/26/26/26 27/27/27/27 
f 28/28/28/28 27/27/27/27 29/29/29/29 
f 30/30/30/30 28/28/28/28 29/29/29/29 
f 30/30/30/30 29/29/29/29 31/31/31/31 
f 32/32/32/32 30/30/30/30 31/31/31/31 
f 32/32/32/32 31/31/31/31 33/33/33/33 
f 34/34/34/34 32/32/32/32 33/33/33/33 
f 34/34/34/34 33/33/33/33 35/35/35/35 
f 36/36/36/36 34/34/34/34 35/35/35/35 
f 36/36/36/36 35/35/35/35 37/37/37/37 
f 38/38/38/38 36/36/36/36 37/37/37/37 
f 38/38/38/38 37/37/37/37 39/39/39/39 
f 40/40/40/40 38/38/38/38 39/39/39/39 
f 40/40/40/40 39/39/39/39 41/41/41/41 
f 42/42/42/42 40/40/40/40 41/41/41/41 
f 42/42/42/42 41/41/41/41 43/43/43/43 
f 44/44/44/44 42/42/42/42 43/43/43/43 
f 44/44/44/44 43/43/43/43 45/45/45/45 
f 1/1/1/1 44/44/44/44 45/45/45/45 
f 1/1/1/1 45/45/45/45 2/2/2/2 
f 46/46/46/46 18/47/18/47 17/48/17/48 
f 46/46/46/46 17/48/17/48 47/49/47/49 
f 48/50/48/50 46/46/46/46 47/49/47/49 
f 48/50/48/50 47/49/47/49 49/51/49/51 
f 50/52/50/52 48/50/48/50 49/51/49/51 
f 50/52/50/52 49/51/49/51 51/53/51/53 
f 52/54/52/54 50/52/50/52 51/53/51/53 
f 52/54/52/54 51/53/51/53 53/55/53/55 
f 54/56/54/56 52/54/52/54 53/55/53/55 
f 54/56/54/56 53/55/53/55 55/57/55/57 
f 56/58/56/58 54/56/54/56 55/57/55/57 
f 56/58/56/58 55/57/55/57 57/59/57/59 
f 58/60/58/60 56/58/56/58 57/59/57/59 
f 58/60/58/60 57/59/57/59 59/61/59/61 
f 60/62/60/62 58/60/58/60 59/61/59/61 
f 60/62/60/62 59/61/59/61 61/63/61/63 
f 62/64/62/64 60/62/60/62 61/63/61/63 
f 62/64/62/64 61/63/61/63 63/65/63/65 
f 64/66/64/66 62/64/62/64 63/65/63/65 
f 64/66/64/66 63/65/63/65 65/67/65/67 
f 66/68/66/68 64/66/64/66 65/67/65/67 
f 66/68/66/68 65/67/65/67 67/69/67/69 
f 68/70/68/70 66/68/66/68 67/69/67/69 
f 68/70/68/70 67/69/67/69 69/71/69/71 
f 70/72/70/72 68/70/68/70 69/71/69/71 
f 70/72/70/72 69/71/69/71 71/73/71/73 
f 72/74/72/74 70/72/70/72 71/73/71/73 
f 72/74/72/74 71/73/71/73 73/75/73/75 
f 73/75/73/75 0/0/0/0 3/3/3/3 
f 73/75/73/75 3/3/3/3 72/74/72/74 
f 74/76/74/76 75/77/75/77 17/17/17/17 
f 74/76/74/76 17/17/17/17 16/16/16/16 
f 76/78/76/78 74/76/74/76 16/16/16/16 
f 76/78/76/78 16/16/16/16 20/20/20/20 
f 77/79/77/79 76/78/76/78 20/20/20/20 
f 77/79/77/79 20/20/20/20 22/22/22/22 
f 78/80/78/80 77/79/77/79 22/22/22/22 
f 78/80/78/80 22/22/22/22 24/24/24/24 
f 79/81/79/81 78/80/78/80 24/24/24/24 
f 79/81/79/81 24/24/24/24 26/26/26/26 
f 80/82/80/82 79/81/79/81 26/26/26/26 
f 80/82/80/82 26/26/26/26 28/28/28/28 
f 81/83/81/83 80/82/80/82 28/28/28/28 
f 81/83/81/83 28/28/28/28 30/30/30/30 
f 82/84/82/84 81/83/81/83 30/30/30/30 
f 82/84/82/84 30/30/30/30 32/32/32/32 
f 83/85/83/85 82/84/82/84 32/32/32/32 
f 83/85/83/85 32/32/32/32 34/34/34/34 
f 84/86/84/86 83/85/83/85 34/34/34/34 
f 84/86/84/86 34/34/34/34 36/36/36/36 
f 85/87/85/87 84/86/84/86 36/36/36/36 
f 85/87/85/87 36/36/36/36 38/38/38/38 
f 86/88/86/88 85/87/85/87 38/38/38/38 
f 86/88/86/88 38/38/38/38 40/40/40/40 
f 87/89/87/89 86/88/86/88 40/40/40/40 
f 87/89/87/89 40/40/40/40 42/42/42/42 
f 88/90/88/90 87/89/87/89 42/42/42/42 
f 88/90/88/90 42/42/42/42 44/44/44/44 
f 5/5/5/5 88/90/88/90 44/44/44/44 
f 5/5/5/5 44/44/44/44 1/1/1/1 
f 75/91/75/91 89/92/89/92 47/49/47/49 
f 75/91/75/91 47/49/47/49 17/48/17/48 
f 89/92/89/92 90/93/90/93 49/51/49/51 
f 89/92/89/92 49/51/49/51 47/49/47/49 
f 90/93/90/93 91/94/91/94 51/53/51/53 
f 90/93/90/93 51/53/51/53 49/51/49/51 
f 91/94/91/94 92/95/92/95 53/55/53/55 
f 91/94/91/94 53/55/53/55 51/53/51/53 
f 92/95/92/95 93/96/93/96 55/57/55/57 
f 92/95/92/95 55/57/55/57 53/55/53/55 
f 93/96/93/96 94/97/94/97 57/59/57/59 
f 93/96/93/96 57/59/57/59 55/57/55/57 
f 94/97/94/97 95/98/95/98 59/61/59/61 
f 94/97/94/97 59/61/59/61 57/59/57/59 
f 95/98/95/98 96/99/96/99 61/63/61/63 
f 95/98/95/98 61/63/61/63 59/61/59/61 
f 96/99/96/99 97/100/97/100 63/65/63/65 
f 96/99/96/99 63/65/63/65 61/63/61/63 
f 97/100/97/100 98/101/98/101 65/67/65/67 
f 97/100/97/100 65/67/65/67 63/65/63/65 
f 98/101/98/101 99/102/99/102 67/69/67/69 
f 98/101/98/101 67/69/67/69 65/67/65/67 
f 99/102/99/102 100/103/100/103 69/71/69/71 
f 99/102/99/102 69/71/69/71 67/69/67/69 
f 100/103/100/103 101/104/101/104 71/73/71/73 
f 100/103/100/103 71/73/71/73 69/71/69/71 
f 101/104/101/104 102/105/102/105 73/75/73/75 
f 101/104/101/104 73/75/73/75 71/73/71/73 
f 0/0/0/0 73/75/73/75 102/105/102/105 
f 0/0/0/0 102/105/102/105 4/4/4/4 
f 103/106/103/106 104/107/104/107 105/108/105/108 
f 103/106/103/106 105/108/105/108 106/109/106/109 
f 104/107/104/107 107/110/107/110 108/111/108/111 
f 104/107/104/107 108/111/108/111 105/108/105/108 
f 107/110/107/110 109/112/109/112 110/113/110/113 
f 107/110/107/110 110/113/110/113 108/111/108/111 
f 109/112/109/112 111/114/111/114 112/115/112/115 
f 109/112/109/112 112/115/112/115 110/113/110/113 
f 111/114/111/114 113/116/113/116 114/117/114/117 
f 111/114/111/114 114/117/114/117 112/115/112/115 
f 113/116/113/116 115/118/115/118 116/119/116/119 
f 113/116/113/116 116/119/116/119 114/117/114/117 
f 115/118/115/118 117/120/117/120 118/121/118/121 
f 115/118/115/118 118/121/118/121 116/119/116/119 
f 117/120/117/120 119/122/119/122 120/123/120/123 
f 117/120/117/120 120/123/120/123 118/121/118/121 
f 119/122/119/122 121/124/121/124 122/125/122/125 
f 119/122/119/122 122/125/122/125 120/123/120/123 
f 121/124/121/124 123/126/123/126 124/127/124/127 
f 121/124/121/124 124/127/124/127 122/125/122/125 
f 123/126/123/126 125/128/125/128 126/129/126/129 
f 123/126/123/126 126/129/126/129 124/127/124/127 
f 125/128/125/128 127/130/127/130 128/131/128/131 
f 125/128/125/128 128/131/128/131 126/129/126/129 
f 127/130/127/130 129/132/129/132 130/133/130/133 
f 127/130/127/130 130/133/130/133 128/131/128/131 
f 129/132/129/132 131/134/131/134 132/135/132/135 
f 129/132/129/132 132/135/132/135 130/133/130/133 
f 131/134/131/134 6/6/6/6 9/9/9/9 
f 131/134/131/134 9/9/9/9 132/135/132/135 
f 133/136/133/136 103/137/103/137 106/138/106/138 
f 133/136/133/136 106/138/106/138 134/139/134/139 
f 135/140/135/140 133/136/133/136 134/139/134/139 
f 135/140/135/140 134/139/134/139 136/141/136/141 
f 137/142/137/142 135/140/135/140 136/141/136/141 
f 137/142/137/142 136/141/136/141 138/143/138/143 
f 139/144/139/144 137/142/137/142 138/143/138/143 
f 139/144/139/144 138/143/138/143 140/145/140/145 
f 141/146/141/146 139/144/139/144 140/145/140/145 
f 141/146/141/146 140/145/140/145 142/147/142/147 
f 143/148/143/148 141/146/141/146 142/147/142/147 
f 143/148/143/148 142/147/142/147 144/149/144/149 
f 145/150/145/150 143/148/143/148 144/149/144/149 
f 145/150/145/150 144/149/144/149 146/151/146/151 
f 147/152/147/152 145/150/145/150 146/151/146/151 
f 147/152/147/152 146/151/146/151 148/153/148/153 
f 149/154/149/154 147/152/147/152 148/153/148/153 
f 149/154/149/154 148/153/148/153 150/155/150/155 
f 151/156/151/156 149/154/149/154 150/155/150/155 
f 151/156/151/156 150/155/150/155 152/157/152/157 
f 153/158/153/158 151/156/151/156 152/157/152/157 
f 153/158/153/158 152/157/152/157 154/159/154/159 
f 155/160/155/160 153/158/153/158 154/159/154/159 
f 155/160/155/160 154/159/154/159 156/161/156/161 
f 157/162/157/162 155/160/155/160 156/161/156/161 
f 157/162/157/162 156/161/156/161 158/163/158/163 
f 159/164/159/164 157/162/157/162 158/163/158/163 
f 159/164/159/164 158/163/158/163 160/165/160/165 
f 7/7/7/7 159/164/159/164 160/165/160/165 
f 7/7/7/7 160/165/160/165 8/8/8/8 
f 161/166/161/166 104/107/104/107 103/106/103/106 
f 161/166/161/166 103/106/103/106 162/167/162/167 
f 163/168/163/168 107/110/107/110 104/107/104/107 
f 163/168/163/168 104/107/104/107 161/166/161/166 
f 164/169/164/169 109/112/109/112 107/110/107/110 
f 164/169/164/169 107/110/107/110 163/168/163/168 
f 165/170/165/170 111/114/111/114 109/112/109/112 
f 165/170/165/170 109/112/109/112 164/169/164/169 
f 166/171/166/171 113/116/113/116 111/114/111/114 
f 166/171/166/171 111/114/111/114 165/170/165/170 
f 167/172/167/172 115/118/115/118 113/116/113/116 
f 167/172/167/172 113/116/113/116 166/171/166/171 
f 168/173/168/173 117/120/117/120 115/118/115/118 
f 168/173/168/173 115/118/115/118 167/172/167/172 
f 169/174/169/174 119/122/119/122 117/120/117/120 
f 169/174/169/174 117/120/117/120 168/173/168/173 
f 170/175/170/175 121/124/121/124 119/122/119/122 
f 170/175/170/175 119/122/119/122 169/174/169/174 
f 171/176/171/176 123/126/123/126 121/124/121/124 
f 171/176/171/176 121/124/121/124 170/175/170/175 
f 172/177/172/177 125/128/125/128 123/126/123/126 
f 172/177/172/177 123/126/123/126 171/176/171/176 
f 173/178/173/178 127/130/127/130 125/128/125/128 
f 173/178/173/178 125/128/125/128 172/177/172/177 
f 174/179/174/179 129/132/129/132 127/130/127/130 
f 174/179/174/179 127/130/127/130 173/178/173/178 
f 175/180/175/180 131/134/131/134 129/132/129/132 
f 175/180/175/180 129/132/129/132 174/179/174/179 
f 11/11/11/11 6/6/6/6 131/134/131/134 
f 11/11/11/11 131/134/131/134 175/180/175/180 
f 176/181/176/181 177/182/177/182 178/183/178/183 
f 176/181/176/181 178/183/178/183 179/184/179/184 
f 180/185/180/185 181/186/181/186 177/182/177/182 
f 180/185/180/185 177/182/177/182 176/181/176/181 
f 182/187/182/187 183/188/183/188 181/186/181/186 
f 182/187/182/187 181/186/181/186 180/185/180/185 
f 184/189/184/189 185/190/185/190 183/188/183/188 
f 184/189/184/189 183/188/183/188 182/187/182/187 
f 186/191/186/191 187/192/187/192 185/190/185/190 
f 186/191/186/191 185/190/185/190 184/189/184/189 
f 188/193/188/193 189/194/189/194 187/192/187/192 
f 188/193/188/193 187/192/187/192 186/191/186/191 
f 190/195/190/195 191/196/191/196 189/194/189/194 
f 190/195/190/195 189/194/189/194 188/193/188/193 
f 192/197/192/197 193/198/193/198 191/196/191/196 
f 192/197/192/197 191/196/191/196 190/195/190/195 
f 194/199/194/199 195/200/195/200 193/198/193/198 
f 194/199/194/199 193/198/193/198 192/197/192/197 
f 196/201/196/201 197/202/197/202 195/200/195/200 
f 196/201/196/201 195/200/195/200 194/199/194/199 
f 198/203/198/203 199/204/199/204 197/202/197/202 
f 198/203/198/203 197/202/197/202 196/201/196/201 
f 200/205/200/205 201/206/201/206 199/204/199/204 
f 200/205/200/205 199/204/199/204 198/203/198/203 
f 202/207/202/207 203/208/203/208 201/206/201/206 
f 202/207/202/207 201/206/201/206 200/205/200/205 
f 204/209/204/209 205/210/205/210 203/208/203/208 
f 204/209/204/209 203/208/203/208 202/207/202/207 
f 206/211/206/211 13/13/13/13 205/210/205/210 
f 206/211/206/211 205/210/205/210 204/209/204/209 
f 207/212/207/212 208/213/208/213 178/214/178/214 
f 207/212/207/212 178/214/178/214 209/215/209/215 
f 210/216/210/216 211/217/211/217 208/213/208/213 
f 210/216/210/216 208/213/208/213 207/212/207/212 
f 212/218/212/218 213/219/213/219 211/217/211/217 
f 212/218/212/218 211/217/211/217 210/216/210/216 
f 214/220/214/220 215/221/215/221 213/219/213/219 
f 214/220/214/220 213/219/213/219 212/218/212/218 
f 216/222/216/222 217/223/217/223 215/221/215/221 
f 216/222/216/222 215/221/215/221 214/220/214/220 
f 218/224/218/224 219/225/219/225 217/223/217/223 
f 218/224/218/224 217/223/217/223 216/222/216/222 
f 220/226/220/226 221/227/221/227 219/225/219/225 
f 220/226/220/226 219/225/219/225 218/224/218/224 
f 222/228/222/228 223/229/223/229 221/227/221/227 
f 222/228/222/228 221/227/221/227 220/226/220/226 
f 224/230/224/230 225/231/225/231 223/229/223/229 
f 224/230/224/230 223/229/223/229 222/228/222/228 
f 226/232/226/232 227/233/227/233 225/231/225/231 
f 226/232/226/232 225/231/225/231 224/230/224/230 
f 228/234/228/234 229/235/229/235 227/233/227/233 
f 228/234/228/234 227/233/227/233 226/232/226/232 
f 230/236/230/236 231/237/231/237 229/235/229/235 
f 230/236/230/236 229/235/229/235 228/234/228/234 
f 232/238/232/238 233/239/233/239 231/237/231/237 
f 232/238/232/238 231/237/231/237 230/236/230/236 
f 234/240/234/240 235/241/235/241 233/239/233/239 
f 234/240/234/240 233/239/233/239 232/238/232/238 
f 15/15/15/15 14/14/14/14 235/241/235/241 
f 15/15/15/15 235/241/235/241 234/240/234/240 
f 236/242/236/242 89/92/89/92 75/91/75/91 
f 236/242/236/242 75/91/75/91 209/243/209/243 
f 237/244/237/244 90/93/90/93 89/92/89/92 
f 237/244/237/244 89/92/89/92 236/242/236/242 
f 238/245/238/245 91/94/91/94 90/93/90/93 
f 238/245/238/245 90/93/90/93 237/244/237/244 
f 239/246/239/246 92/95/92/95 91/94/91/94 
f 239/246/239/246 91/94/91/94 238/245/238/245 
f 240/247/240/247 93/96/93/96 92/95/92/95 
f 240/247/240/247 92/95/92/95 239/246/239/246 
f 241/248/241/248 94/97/94/97 93/96/93/96 
f 241/248/241/248 93/96/93/96 240/247/240/247 
f 242/249/242/249 95/98/95/98 94/97/94/97 
f 242/249/242/249 94/97/94/97 241/248/241/248 
f 243/250/243/250 96/99/96/99 95/98/95/98 
f 243/250/243/250 95/98/95/98 242/249/242/249 
f 244/251/244/251 97/100/97/100 96/99/96/99 
f 244/251/244/251 96/99/96/99 243/250/243/250 
f 245/252/245/252 98/101/98/101 97/100/97/100 
f 245/252/245/252 97/100/97/100 244/251/244/251 
f 246/253/246/253 99/102/99/102 98/101/98/101 
f 246/253/246/253 98/101/98/101 245/252/245/252 
f 247/254/247/254 100/103/100/103 99/102/99/102 
f 247/254/247/254 99/102/99/102 246/253/246/253 
f 248/255/248/255 101/104/101/104 100/103/100/103 
f 248/255/248/255 100/103/100/103 247/254/247/254 
f 249/256/249/256 102/105/102/105 101/104/101/104 
f 249/256/249/256 101/104/101/104 248/255/248/255 
f 12/12/12/12 4/4/4/4 102/105/102/105 
f 12/12/12/12 102/105/102/105 249/256/249/256 
f 13/13/13/13 206/211/206/211 250/257/250/257 
f 13/13/13/13 250/257/250/257 14/14/14/14 
f 208/213/208/213 251/258/251/258 179/259/179/259 
f 208/213/208/213 179/259/179/259 178/214/178/214 
f 211/217/211/217 252/260/252/260 251/258/251/258 
f 211/217/211/217 251/258/251/258 208/213/208/213 
f 213/219/213/219 253/261/253/261 252/260/252/260 
f 213/219/213/219 252/260/252/260 211/217/211/217 
f 215/221/215/221 254/262/254/262 253/261/253/261 
f 215/221/215/221 253/261/253/261 213/219/213/219 
f 217/223/217/223 255/263/255/263 254/262/254/262 
f 217/223/217/223 254/262/254/262 215/221/215/221 
f 219/225/219/225 256/264/256/264 255/263/255/263 
f 219/225/219/225 255/263/255/263 217/223/217/223 
f 221/227/221/227 257/265/257/265 256/264/256/264 
f 221/227/221/227 256/264/256/264 219/225/219/225 
f 223/229/223/229 258/266/258/266 257/265/257/265 
f 223/229/223/229 257/265/257/265 221/227/221/227 
f 225/231/225/231 259/267/259/267 258/266/258/266 
f 225/231/225/231 258/266/258/266 223/229/223/229 
f 227/233/227/233 260/268/260/268 259/267/259/267 
f 227/233/227/233 259/267/259/267 225/231/225/231 
f 229/235/229/235 261/269/261/269 260/268/260/268 
f 229/235/229/235 260/268/260/268 227/233/227/233 
f 231/237/231/237 262/270/262/270 261/269/261/269 
f 231/237/231/237 261/269/261/269 229/235/229/235 
f 233/239/233/239 263/271/263/271 262/270/262/270 
f 233/239/233/239 262/270/262/270 231/237/231/237 
f 235/241/235/241 264/272/264/272 263/271/263/271 
f 235/241/235/241 263/271/263/271 233/239/233/239 
f 14/14/14/14 250/257/250/257 264/272/264/272 
f 14/14/14/14 264/272/264/272 235/241/235/241 
f 265/273/265/273 176/181/176/181 179/184/179/184 
f 265/273/265/273 179/184/179/184 266/274/266/274 
f 267/275/267/275 180/185/180/185 176/181/176/181 
f 267/275/267/275 176/181/176/181 265/273/265/273 
f 268/276/268/276 182/187/182/187 180/185/180/185 
f 268/276/268/276 180/185/180/185 267/275/267/275 
f 269/277/269/277 184/189/184/189 182/187/182/187 
f 269/277/269/277 182/187/182/187 268/276/268/276 
f 270/278/270/278 186/191/186/191 184/189/184/189 
f 270/278/270/278 184/189/184/189 269/277/269/277 
f 271/279/271/279 188/193/188/193 186/191/186/191 
f 271/279/271/279 186/191/186/191 270/278/270/278 
f 272/280/272/280 190/195/190/195 188/193/188/193 
f 272/280/272/280 188/193/188/193 271/279/271/279 
f 273/281/273/281 192/197/192/197 190/195/190/195 
f 273/281/273/281 190/195/190/195 272/280/272/280 
f 274/282/274/282 194/199/194/199 192/197/192/197 
f 274/282/274/282 192/197/192/197 273/281/273/281 
f 275/283/275/283 196/201/196/201 194/199/194/199 
f 275/283/275/283 194/199/194/199 274/282/274/282 
f 276/284/276/284 198/203/198/203 196/201/196/201 
f 276/284/276/284 196/201/196/201 275/283/275/283 
f 277/285/277/285 200/205/200/205 198/203/198/203 
f 277/285/277/285 198/203/198/203 276/284/276/284 
f 278/286/278/286 202/207/202/207 200/205/200/205 
f 278/286/278/286 200/205/200/205 277/285/277/285 
f 279/287/279/287 204/209/204/209 202/207/202/207 
f 279/287/279/287 202/207/202/207 278/286/278/286 
f 280/288/280/288 206/211/206/211 204/209/204/209 
f 280/288/280/288 204/209/204/209 279/287/279/287 
f 280/288/280/289 10/10/10/290 11/11/11/291 
f 280/288/280/289 11/11/11/291 281/289/281/292 
f 282/290/282/293 161/166/161/294 162/167/162/295 
f 282/290/282/293 162/167/162/295 266/291/266/296 
f 283/292/283/297 163/168/163/298 161/166/161/294 
f 283/292/283/297 161/166/161/294 282/290/282/293 
f 284/293/284/299 164/169/164/300 163/168/163/298 
f 284/293/284/299 163/168/163/298 283/292/283/297 
f 285/294/285/301 165/170/165/302 164/169/164/300 
f 285/294/285/301 164/169/164/300 284/293/284/299 
f 286/295/286/303 166/171/166/304 165/170/165/302 
f 286/295/286/303 165/170/165/302 285/294/285/301 
f 287/296/287/305 167/172/167/306 166/171/166/304 
f 287/296/287/305 166/171/166/304 286/295/286/303 
f 288/297/288/307 168/173/168/308 167/172/167/306 
f 288/297/288/307 167/172/167/306 287/296/287/305 
f 289/298/289/309 169/174/169/310 168/173/168/308 
f 289/298/289/309 168/173/168/308 288/297/288/307 
f 290/299/290/311 170/175/170/312 169/174/169/310 
f 290/299/290/311 169/174/169/310 289/298/289/309 
f 291/300/291/313 171/176/171/314 170/175/170/312 
f 291/300/291/313 170/175/170/312 290/299/290/311 
f 292/301/292/315 172/177/172/316 171/176/171/314 
f 292/301/292/315 171/176/171/314 291/300/291/313 
f 293/302/293/317 173/178/173/318 172/177/172/316 
f 293/302/293/317 172/177/172/316 292/301/292/315 
f 294/303/294/319 174/179/174/320 173/178/173/318 
f 294/303/294/319 173/178/173/318 293/302/293/317 
f 295/304/295/321 175/180/175/322 174/179/174/320 
f 295/304/295/321 174/179/174/320 294/303/294/319 
f 281/289/281/292 11/11/11/291 175/180/175/322 
f 281/289/281/292 175/180/175/322 295/304/295/321 
f 133/136/133/136 296/305/296/323 162/306/162/324 
f 133/136/133/136 162/306/162/324 103/137/103/137 
f 135/140/135/140 297/307/297/325 296/305/296/323 
f 135/140/135/140 296/305/296/323 133/136/133/136 
f 137/142/137/142 298/308/298/326 297/307/297/325 
f 137/142/137/142 297/307/297/325 135/140/135/140 
f 139/144/139/144 299/309/299/327 298/308/298/326 
f 139/144/139/144 298/308/298/326 137/142/137/142 
f 141/146/141/146 300/310/300/328 299/309/299/327 
f 141/146/141/146 299/309/299/327 139/144/139/144 
f 143/148/143/148 301/311/301/329 300/310/300/328 
f 143/148/143/148 300/310/300/328 141/146/141/146 
f 145/150/145/150 302/312/302/330 301/311/301/329 
f 145/150/145/150 301/311/301/329 143/148/143/148 
f 147/152/147/152 303/313/303/331 302/312/302/330 
f 147/152/147/152 302/312/302/330 145/150/145/150 
f 149/154/149/154 304/314/304/332 303/313/303/331 
f 149/154/149/154 303/313/303/331 147/152/147/152 
f 151/156/151/156 305/315/305/333 304/314/304/332 
f 151/156/151/156 304/314/304/332 149/154/149/154 
f 153/158/153/158 306/316/306/334 305/315/305/333 
f 153/158/153/158 305/315/305/333 151/156/151/156 
f 155/160/155/160 307/317/307/335 306/316/306/334 
f 155/160/155/160 306/316/306/334 153/158/153/158 
f 157/162/157/162 308/318/308/336 307/317/307/335 
f 157/162/157/162 307/317/307/335 155/160/155/160 
f 159/164/159/164 309/319/309/337 308/318/308/336 
f 159/164/159/164 308/318/308/336 157/162/157/162 
f 7/7/7/7 10/10/10/10 309/319/309/337 
f 7/7/7/7 309/319/309/337 159/164/159/164 
f 296/305/296/338 265/273/265/339 266/274/266/340 
f 296/305/296/338 266/274/266/340 162/306/162/341 
f 297/307/297/342 267/275/267/343 265/273/265/339 
f 297/307/297/342 265/273/265/339 296/305/296/338 
f 298/308/298/344 268/276/268/345 267/275/267/343 
f 298/308/298/344 267/275/267/343 297/307/297/342 
f 299/309/299/346 269/277/269/347 268/276/268/345 
f 299/309/299/346 268/276/268/345 298/308/298/344 
f 300/310/300/348 270/278/270/349 269/277/269/347 
f 300/310/300/348 269/277/269/347 299/309/299/346 
f 301/311/301/350 271/279/271/351 270/278/270/349 
f 301/311/301/350 270/278/270/349 300/310/300/348 
f 302/312/302/352 272/280/272/353 271/279/271/351 
f 302/312/302/352 271/279/271/351 301/311/301/350 
f 303/313/303/354 273/281/273/355 272/280/272/353 
f 303/313/303/354 272/280/272/353 302/312/302/352 
f 304/314/304/356 274/282/274/357 273/281/273/355 
f 304/314/304/356 273/281/273/355 303/313/303/354 
f 305/315/305/358 275/283/275/359 274/282/274/357 
f 305/315/305/358 274/282/274/357 304/314/304/356 
f 306/316/306/360 276/284/276/361 275/283/275/359 
f 306/316/306/360 275/283/275/359 305/315/305/358 
f 307/317/307/362 277/285/277/363 276/284/276/361 
f 307/317/307/362 276/284/276/361 306/316/306/360 
f 308/318/308/364 278/286/278/365 277/285/277/363 
f 308/318/308/364 277/285/277/363 307/317/307/362 
f 309/319/309/366 279/287/279/367 278/286/278/365 
f 309/319/309/366 278/286/278/365 308/318/308/364 
f 10/10/10/290 280/288/280/289 279/287/279/367 
f 10/10/10/290 279/287/279/367 309/319/309/366 
f 206/211/206/211 280/288/280/288 281/289/281/368 
f 206/211/206/211 281/289/281/368 250/257/250/257 
f 251/258/251/258 282/290/282/369 266/291/266/370 
f 251/258/251/258 266/291/266/370 179/259/179/259 
f 252/260/252/260 283/292/283/371 282/290/282/369 
f 252/260/252/260 282/290/282/369 251/258/251/258 
f 253/261/253/261 284/293/284/372 283/292/283/371 
f 253/261/253/261 283/292/283/371 252/260/252/260 
f 254/262/254/262 285/294/285/373 284/293/284/372 
f 254/262/254/262 284/293/284/372 253/261/253/261 
f 255/263/255/263 286/295/286/374 285/294/285/373 
f 255/263/255/263 285/294/285/373 254/262/254/262 
f 256/264/256/264 287/296/287/375 286/295/286/374 
f 256/264/256/264 286/295/286/374 255/263/255/263 
f 257/265/257/265 288/297/288/376 287/296/287/375 
f 257/265/257/265 287/296/287/375 256/264/256/264 
f 258/266/258/266 289/298/289/377 288/297/288/376 
f 258/266/258/266 288/297/288/376 257/265/257/265 
f 259/267/259/267 290/299/290/378 289/298/289/377 
f 259/267/259/267 289/298/289/377 258/266/258/266 
f 260/268/260/268 291/300/291/379 290/299/290/378 
f 260/268/260/268 290/299/290/378 259/267/259/267 
f 261/269/261/269 292/301/292/380 291/300/291/379 
f 261/269/261/269 291/300/291/379 260/268/260/268 
f 262/270/262/270 293/302/293/381 292/301/292/380 
f 262/270/262/270 292/301/292/380 261/269/261/269 
f 263/271/263/271 294/303/294/382 293/302/293/381 
f 263/271/263/271 293/302/293/381 262/270/262/270 
f 264/272/264/272 295/304/295/383 294/303/294/382 
f 264/272/264/272 294/303/294/382 263/271/263/271 
f 250/257/250/257 281/289/281/368 295/304/295/383 
f 250/257/250/257 295/304/295/383 264/272/264/272 
f 4/4/4/4 12/12/12/12 15/15/15/15 
f 4/4/4/4 15/15/15/15 5/5/5/5 
f 74/76/74/76 207/212/207/212 209/215/209/215 
f 74/76/74/76 209/215/209/215 75/77/75/77 
f 76/78/76/78 210/216/210/216 207/212/207/212 
f 76/78/76/78 207/212/207/212 74/76/74/76 
f 77/79/77/79 212/218/212/218 210/216/210/216 
f 77/79/77/79 210/216/210/216 76/78/76/78 
f 78/80/78/80 214/220/214/220 212/218/212/218 
f 78/80/78/80 212/218/212/218 77/79/77/79 
f 79/81/79/81 216/222/216/222 214/220/214/220 
f 79/81/79/81 214/220/214/220 78/80/78/80 
f 80/82/80/82 218/224/218/224 216/222/216/222 
f 80/82/80/82 216/222/216/222 79/81/79/81 
f 81/83/81/83 220/226/220/226 218/224/218/224 
f 81/83/81/83 218/224/218/224 80/82/80/82 
f 82/84/82/84 222/228/222/228 220/226/220/226 
f 82/84/82/84 220/226/220/226 81/83/81/83 
f 83/85/83/85 224/230/224/230 222/228/222/228 
f 83/85/83/85 222/228/222/228 82/84/82/84 
f 84/86/84/86 226/232/226/232 224/230/224/230 
f 84/86/84/86 224/230/224/230 83/85/83/85 
f 85/87/85/87 228/234/228/234 226/232/226/232 
f 85/87/85/87 226/232/226/232 84/86/84/86 
f 86/88/86/88 230/236/230/236 228/234/228/234 
f 86/88/86/88 228/234/228/234 85/87/85/87 
f 87/89/87/89 232/238/232/238 230/236/230/236 
f 87/89/87/89 230/236/230/236 86/88/86/88 
f 88/90/88/90 234/240/234/240 232/238/232/238 
f 88/90/88/90 232/238/232/238 87/89/87/89 
f 5/5/5/5 15/15/15/15 234/240/234/240 
f 5/5/5/5 234/240/234/240 88/90/88/90 
f 177/182/177/182 236/242/236/242 209/243/209/243 
f 177/182/177/182 209/243/209/243 178/183/178/183 
f 181/186/181/186 237/244/237/244 236/242/236/242 
f 181/186/181/186 236/242/236/242 177/182/177/182 
f 183/188/183/188 238/245/238/245 237/244/237/244 
f 183/188/183/188 237/244/237/244 181/186/181/186 
f 185/190/185/190 239/246/239/246 238/245/238/245 
f 185/190/185/190 238/245/238/245 183/188/183/188 
f 187/192/187/192 240/247/240/247 239/246/239/246 
f 187/192/187/192 239/246/239/246 185/190/185/190 
f 189/194/189/194 241/248/241/248 240/247/240/247 
f 189/194/189/194 240/247/240/247 187/192/187/192 
f 191/196/191/196 242/249/242/249 241/248/241/248 
f 191/196/191/196 241/248/241/248 189/194/189/194 
f 193/198/193/198 243/250/243/250 242/249/242/249 
f 193/198/193/198 242/249/242/249 191/196/191/196 
f 195/200/195/200 244/251/244/251 243/250/243/250 
f 195/200/195/200 243/250/243/250 193/198/193/198 
f 197/202/197/202 245/252/245/252 244/251/244/251 
f 197/202/197/202 244/251/244/251 195/200/195/200 
f 199/204/199/204 246/253/246/253 245/252/245/252 
f 199/204/199/204 245/252/245/252 197/202/197/202 
f 201/206/201/206 247/254/247/254 246/253/246/253 
f 201/206/201/206 246/253/246/253 199/204/199/204 
f 203/208/203/208 248/255/248/255 247/254/247/254 
f 203/208/203/208 247/254/247/254 201/206/201/206 
f 205/210/205/210 249/256/249/256 248/255/248/255 
f 205/210/205/210 248/255/248/255 203/208/203/208 
f 13/13/13/13 12/12/12/12 249/256/249/256 
f 13/13/13/13 249/256/249/256 205/210/205/210 
