v 872.0224 220.997 193.0334
v 848.7258 220.9971 169.7368
v 816.3393 220.9971 169.7368
v 872.0224 220.9971 246.6149
v 816.3393 220.9971 246.6149
v 872.0224 207.888 246.6149
v 872.0224 212.9781 246.6149
v 816.3393 212.9781 246.6149
v 816.3393 207.888 246.6149
v 816.3393 212.9782 169.7368
v 816.3393 207.888 169.7368
v 818.824 204.0866 171.9271
v 818.824 204.0865 244.4246
v 848.7258 207.888 169.7368
v 850.9161 204.0866 171.9272
v 825.1035 201.1721 177.4627
v 825.1035 201.1721 238.889
v 872.0224 201.1721 238.889
v 872.0224 204.0865 244.4246
v 830.8787 -2.4607 197.2232
v 830.8787 186.6513 197.2232
v 848.0438 186.6513 182.1163
v 848.0438 -2.4607 182.1163
v 830.8787 -2.4607 218.5877
v 830.8787 186.6513 218.5877
v 848.0438 -2.4607 233.6947
v 848.0438 186.6513 233.6947
v 872.0224 -2.4607 233.6947
v 872.0224 186.6513 233.6947
v 830.8787 191.226 197.2232
v 829.0898 192.5001 196.5711
v 847.3026 192.5001 180.5418
v 848.0438 191.226 182.1163
v 830.8787 191.226 218.5877
v 829.0898 192.5001 219.2399
v 848.0438 191.226 233.6947
v 847.3026 192.5001 235.2692
v 872.0224 191.226 233.6947
v 872.0224 192.5001 235.2692
v 830.3276 196.3225 197.0224
v 828.3272 199.2604 196.2931
v 846.9869 199.2604 179.8707
v 847.8154 196.3225 181.6313
v 830.3276 196.3225 218.7886
v 828.3272 199.2604 219.5179
v 847.8154 196.3224 234.1796
v 846.9869 199.2604 235.9403
v 872.0224 196.3224 234.1796
v 872.0224 199.2604 235.9403
v 856.4516 201.1721 177.4627
v 858.8597 199.2604 179.8707
v 846.8694 188.9387 179.6212
v 858.6102 188.9386 179.6212
v 861.1053 186.6513 182.1163
v 828.0436 188.9387 196.1897
v 828.0436 188.9387 219.6212
v 846.8694 188.9387 236.1898
v 861.1053 191.226 182.1163
v 860.6203 196.3225 181.6314
v 860.4815 193.7742 181.4925
v 847.7499 193.7742 181.4925
v 830.17 193.7742 196.9649
v 830.17 193.7742 218.8461
v 847.7499 193.7742 234.3185
v 859.5307 192.5001 180.5418
v 872.0224 212.9781 245.6863
v 872.0224 215.2093 245.6863
v 817.3942 215.2093 245.6863
v 817.3942 212.9781 245.6863
v 817.3942 215.2093 170.6654
v 817.3942 212.9782 170.6654
v 848.7258 215.2093 169.7368
v 816.3393 215.2093 169.7368
v 816.3393 215.2093 246.6149
v 849.6544 215.2093 170.6654
v 872.0224 188.9386 236.1898
v 872.0224 193.7742 234.3185
v 872.0224 215.2093 246.6149
v 896.001 186.6513 233.6947
v 896.001 -2.4607 233.6947
v 896.001 191.226 233.6947
v 896.7422 192.5001 235.2692
v 896.2293 196.3224 234.1796
v 897.0579 199.2604 235.9403
v 904.8743 186.6513 225.8853
v 906.751 188.9387 227.7621
v 897.1752 188.9387 236.1898
v 904.8743 191.226 225.8853
v 905.3436 193.7742 226.3546
v 905.2391 196.3225 226.2502
v 896.2949 193.7742 234.3185
v 906.0587 192.5001 227.0697
v 923.4135 204.0865 244.4245
v 925.6038 207.888 246.6149
v 917.7123 201.0647 238.7234
v 917.878 201.1721 238.889
v 925.6038 215.2093 246.6149
v 925.6038 220.9971 246.6149
v 924.6752 215.2093 245.6863
v 848.7258 212.9782 169.7368
v 861.1053 -2.4607 182.1163
v 849.6544 212.9782 170.6654
v 925.6038 212.9781 246.6149
v 904.8743 -2.4607 225.8853
v 906.5634 199.2604 227.5744
v 924.6752 212.9781 245.6863
v 848.7258 220.9971 137.3503
v 925.6038 220.9971 193.0335
v 925.6038 220.9971 137.3504
v 925.6038 212.9782 137.3504
v 925.6038 212.9782 193.0335
v 925.6038 207.888 193.0335
v 925.6038 207.888 137.3504
v 848.7258 212.9782 137.3503
v 848.7258 207.888 137.3503
v 923.4135 204.0866 139.8351
v 850.9161 204.0866 139.8351
v 917.878 201.1721 146.1145
v 856.4516 201.1721 146.1145
v 923.4135 204.0866 193.0335
v 917.878 201.1721 193.0335
v 861.1053 186.6513 169.0548
v 876.2122 186.6513 151.8897
v 876.2122 -2.4607 151.8897
v 861.1053 -2.4607 169.0548
v 897.5767 186.6513 151.8897
v 897.5767 -2.4607 151.8897
v 912.6837 186.6513 169.0548
v 912.6837 -2.4607 169.0548
v 912.6837 186.6513 193.0335
v 912.6837 -2.4607 193.0335
v 859.5307 192.5001 168.3136
v 875.56 192.5001 150.1009
v 876.2122 191.226 151.8897
v 861.1053 191.226 169.0548
v 898.2288 192.5001 150.1009
v 897.5767 191.226 151.8897
v 914.2581 192.5001 168.3136
v 912.6837 191.226 169.0548
v 914.2581 192.5001 193.0335
v 912.6837 191.226 193.0335
v 858.8597 199.2604 167.998
v 875.282 199.2604 149.3382
v 876.0113 196.3225 151.3387
v 860.6203 196.3225 168.8264
v 898.5068 199.2604 149.3383
v 897.7775 196.3225 151.3386
v 914.9293 199.2604 167.998
v 913.1685 196.3225 168.8264
v 914.9293 199.2604 193.0335
v 913.1685 196.3225 193.0335
v 858.6102 188.9387 167.8805
v 875.1786 188.9387 149.0547
v 898.6102 188.9387 149.0547
v 915.1788 188.9387 167.8805
v 860.4815 193.7742 168.761
v 875.9538 193.7742 151.1811
v 897.835 193.7742 151.1811
v 913.3074 193.7742 168.761
v 924.6752 215.2093 138.4053
v 924.6752 215.2093 193.0335
v 924.6752 212.9782 193.0335
v 924.6752 212.9782 138.4053
v 849.6544 215.2093 138.4052
v 849.6544 212.9782 138.4052
v 848.7258 215.2093 137.3503
v 925.6038 215.2093 137.3504
v 915.1788 188.9386 193.0335
v 913.3074 193.7742 193.0335
v 925.6038 215.2093 193.0335
v 912.6837 186.6513 217.0121
v 912.6837 -2.4607 217.0121
v 912.6837 191.226 217.0121
v 914.2581 192.5001 217.7533
v 913.1685 196.3225 217.2404
v 914.9293 199.2604 218.069
v 915.1788 188.9387 218.1863
v 913.3074 193.7742 217.3059
gi 0 0 0 0
gi 0 0 0 0
gi 0 0 0 0
gi 0 0 0 0
gi 0 0 0 0
gi 0 0 0 0
gi 0 0 0 0
gi 0 0 0 0
gi 0 0 0 0
gi 0 0 0 0
gi 0 0 0 0
gi 0 0 0 0
gi 0 0 0 0
gi 0 0 0 0
gi 0 0 0 0
gi 0 0 0 0
gi 0 0 0 0
gi 0 0 0 0
gi 0 0 0 0
gi 0 0 0 0
gi 0 0 0 0
gi 0 0 0 0
gi 0 0 0 0
gi 0 0 0 0
gi 0 0 0 0
gi 0 0 0 0
gi 0 0 0 0
gi 0 0 0 0
gi 0 0 0 0
gi 0 0 0 0
gi 0 0 0 0
gi 0 0 0 0
gi 0 0 0 0
gi 0 0 0 0
gi 0 0 0 0
gi 0 0 0 0
gi 0 0 0 0
gi 0 0 0 0
gi 0 0 0 0
gi 0 0 0 0
gi 0 0 0 0
gi 0 0 0 0
gi 0 0 0 0
gi 0 0 0 0
gi 0 0 0 0
gi 0 0 0 0
gi 0 0 0 0
gi 0 0 0 0
gi 0 0 0 0
gi 0 0 0 0
gi 0 0 0 0
gi 0 0 0 0
gi 0 0 0 0
gi 0 0 0 0
gi 0 0 0 0
gi 0 0 0 0
gi 0 0 0 0
gi 0 0 0 0
gi 0 0 0 0
gi 0 0 0 0
gi 0 0 0 0
gi 0 0 0 0
gi 0 0 0 0
gi 0 0 0 0
gi 0 0 0 0
gi 0 0 0 0
gi 0 0 0 0
gi 0 0 0 0
gi 0 0 0 0
gi 0 0 0 0
gi 0 0 0 0
gi 0 0 0 0
gi 0 0 0 0
gi 0 0 0 0
gi 0 0 0 0
gi 0 0 0 0
gi 0 0 0 0
gi 0 0 0 0
gi 0 0 0 0
gi 0 0 0 0
gi 0 0 0 0
gi 0 0 0 0
gi 0 0 0 0
gi 0 0 0 0
gi 0 0 0 0
gi 0 0 0 0
gi 0 0 0 0
gi 0 0 0 0
gi 0 0 0 0
gi 0 0 0 0
gi 0 0 0 0
gi 0 0 0 0
gi 0 0 0 0
gi 0 0 0 0
gi 0 0 0 0
gi 0 0 0 0
gi 0 0 0 0
gi 0 0 0 0
gi 0 0 0 0
gi 0 0 0 0
gi 0 0 0 0
gi 0 0 0 0
gi 0 0 0 0
gi 0 0 0 0
gi 0 0 0 0
gi 0 0 0 0
gi 0 0 0 0
gi 0 0 0 0
gi 0 0 0 0
gi 0 0 0 0
gi 0 0 0 0
gi 0 0 0 0
gi 0 0 0 0
gi 0 0 0 0
gi 0 0 0 0
gi 0 0 0 0
gi 0 0 0 0
gi 0 0 0 0
gi 0 0 0 0
gi 0 0 0 0
gi 0 0 0 0
gi 0 0 0 0
gi 0 0 0 0
gi 0 0 0 0
gi 0 0 0 0
gi 0 0 0 0
gi 0 0 0 0
gi 0 0 0 0
gi 0 0 0 0
gi 0 0 0 0
gi 0 0 0 0
gi 0 0 0 0
gi 0 0 0 0
gi 0 0 0 0
gi 0 0 0 0
gi 0 0 0 0
gi 0 0 0 0
gi 0 0 0 0
gi 0 0 0 0
gi 0 0 0 0
gi 0 0 0 0
gi 0 0 0 0
gi 0 0 0 0
gi 0 0 0 0
gi 0 0 0 0
gi 0 0 0 0
gi 0 0 0 0
gi 0 0 0 0
gi 0 0 0 0
gi 0 0 0 0
gi 0 0 0 0
gi 0 0 0 0
gi 0 0 0 0
gi 0 0 0 0
gi 0 0 0 0
gi 0 0 0 0
gi 0 0 0 0
gi 0 0 0 0
gi 0 0 0 0
gi 0 0 0 0
gi 0 0 0 0
gi 0 0 0 0
gi 0 0 0 0
gi 0 0 0 0
gi 0 0 0 0
gi 0 0 0 0
gi 0 0 0 0
gi 0 0 0 0
gi 0 0 0 0
gi 0 0 0 0
gi 0 0 0 0
gi 0 0 0 0
gi 0 0 0 0
gi 0 0 0 0
gi 0 0 0 0
gi 0 0 0 0
gi 0 0 0 0
gi 0 0 0 0
gw 0.0 0.0 0.0 0.0
gw 0.0 0.0 0.0 0.0
gw 0.0 0.0 0.0 0.0
gw 0.0 0.0 0.0 0.0
gw 0.0 0.0 0.0 0.0
gw 0.0 0.0 0.0 0.0
gw 0.0 0.0 0.0 0.0
gw 0.0 0.0 0.0 0.0
gw 0.0 0.0 0.0 0.0
gw 0.0 0.0 0.0 0.0
gw 0.0 0.0 0.0 0.0
gw 0.0 0.0 0.0 0.0
gw 0.0 0.0 0.0 0.0
gw 0.0 0.0 0.0 0.0
gw 0.0 0.0 0.0 0.0
gw 0.0 0.0 0.0 0.0
gw 0.0 0.0 0.0 0.0
gw 0.0 0.0 0.0 0.0
gw 0.0 0.0 0.0 0.0
gw 0.0 0.0 0.0 0.0
gw 0.0 0.0 0.0 0.0
gw 0.0 0.0 0.0 0.0
gw 0.0 0.0 0.0 0.0
gw 0.0 0.0 0.0 0.0
gw 0.0 0.0 0.0 0.0
gw 0.0 0.0 0.0 0.0
gw 0.0 0.0 0.0 0.0
gw 0.0 0.0 0.0 0.0
gw 0.0 0.0 0.0 0.0
gw 0.0 0.0 0.0 0.0
gw 0.0 0.0 0.0 0.0
gw 0.0 0.0 0.0 0.0
gw 0.0 0.0 0.0 0.0
gw 0.0 0.0 0.0 0.0
gw 0.0 0.0 0.0 0.0
gw 0.0 0.0 0.0 0.0
gw 0.0 0.0 0.0 0.0
gw 0.0 0.0 0.0 0.0
gw 0.0 0.0 0.0 0.0
gw 0.0 0.0 0.0 0.0
gw 0.0 0.0 0.0 0.0
gw 0.0 0.0 0.0 0.0
gw 0.0 0.0 0.0 0.0
gw 0.0 0.0 0.0 0.0
gw 0.0 0.0 0.0 0.0
gw 0.0 0.0 0.0 0.0
gw 0.0 0.0 0.0 0.0
gw 0.0 0.0 0.0 0.0
gw 0.0 0.0 0.0 0.0
gw 0.0 0.0 0.0 0.0
gw 0.0 0.0 0.0 0.0
gw 0.0 0.0 0.0 0.0
gw 0.0 0.0 0.0 0.0
gw 0.0 0.0 0.0 0.0
gw 0.0 0.0 0.0 0.0
gw 0.0 0.0 0.0 0.0
gw 0.0 0.0 0.0 0.0
gw 0.0 0.0 0.0 0.0
gw 0.0 0.0 0.0 0.0
gw 0.0 0.0 0.0 0.0
gw 0.0 0.0 0.0 0.0
gw 0.0 0.0 0.0 0.0
gw 0.0 0.0 0.0 0.0
gw 0.0 0.0 0.0 0.0
gw 0.0 0.0 0.0 0.0
gw 0.0 0.0 0.0 0.0
gw 0.0 0.0 0.0 0.0
gw 0.0 0.0 0.0 0.0
gw 0.0 0.0 0.0 0.0
gw 0.0 0.0 0.0 0.0
gw 0.0 0.0 0.0 0.0
gw 0.0 0.0 0.0 0.0
gw 0.0 0.0 0.0 0.0
gw 0.0 0.0 0.0 0.0
gw 0.0 0.0 0.0 0.0
gw 0.0 0.0 0.0 0.0
gw 0.0 0.0 0.0 0.0
gw 0.0 0.0 0.0 0.0
gw 0.0 0.0 0.0 0.0
gw 0.0 0.0 0.0 0.0
gw 0.0 0.0 0.0 0.0
gw 0.0 0.0 0.0 0.0
gw 0.0 0.0 0.0 0.0
gw 0.0 0.0 0.0 0.0
gw 0.0 0.0 0.0 0.0
gw 0.0 0.0 0.0 0.0
gw 0.0 0.0 0.0 0.0
gw 0.0 0.0 0.0 0.0
gw 0.0 0.0 0.0 0.0
gw 0.0 0.0 0.0 0.0
gw 0.0 0.0 0.0 0.0
gw 0.0 0.0 0.0 0.0
gw 0.0 0.0 0.0 0.0
gw 0.0 0.0 0.0 0.0
gw 0.0 0.0 0.0 0.0
gw 0.0 0.0 0.0 0.0
gw 0.0 0.0 0.0 0.0
gw 0.0 0.0 0.0 0.0
gw 0.0 0.0 0.0 0.0
gw 0.0 0.0 0.0 0.0
gw 0.0 0.0 0.0 0.0
gw 0.0 0.0 0.0 0.0
gw 0.0 0.0 0.0 0.0
gw 0.0 0.0 0.0 0.0
gw 0.0 0.0 0.0 0.0
gw 0.0 0.0 0.0 0.0
gw 0.0 0.0 0.0 0.0
gw 0.0 0.0 0.0 0.0
gw 0.0 0.0 0.0 0.0
gw 0.0 0.0 0.0 0.0
gw 0.0 0.0 0.0 0.0
gw 0.0 0.0 0.0 0.0
gw 0.0 0.0 0.0 0.0
gw 0.0 0.0 0.0 0.0
gw 0.0 0.0 0.0 0.0
gw 0.0 0.0 0.0 0.0
gw 0.0 0.0 0.0 0.0
gw 0.0 0.0 0.0 0.0
gw 0.0 0.0 0.0 0.0
gw 0.0 0.0 0.0 0.0
gw 0.0 0.0 0.0 0.0
gw 0.0 0.0 0.0 0.0
gw 0.0 0.0 0.0 0.0
gw 0.0 0.0 0.0 0.0
gw 0.0 0.0 0.0 0.0
gw 0.0 0.0 0.0 0.0
gw 0.0 0.0 0.0 0.0
gw 0.0 0.0 0.0 0.0
gw 0.0 0.0 0.0 0.0
gw 0.0 0.0 0.0 0.0
gw 0.0 0.0 0.0 0.0
gw 0.0 0.0 0.0 0.0
gw 0.0 0.0 0.0 0.0
gw 0.0 0.0 0.0 0.0
gw 0.0 0.0 0.0 0.0
gw 0.0 0.0 0.0 0.0
gw 0.0 0.0 0.0 0.0
gw 0.0 0.0 0.0 0.0
gw 0.0 0.0 0.0 0.0
gw 0.0 0.0 0.0 0.0
gw 0.0 0.0 0.0 0.0
gw 0.0 0.0 0.0 0.0
gw 0.0 0.0 0.0 0.0
gw 0.0 0.0 0.0 0.0
gw 0.0 0.0 0.0 0.0
gw 0.0 0.0 0.0 0.0
gw 0.0 0.0 0.0 0.0
gw 0.0 0.0 0.0 0.0
gw 0.0 0.0 0.0 0.0
gw 0.0 0.0 0.0 0.0
gw 0.0 0.0 0.0 0.0
gw 0.0 0.0 0.0 0.0
gw 0.0 0.0 0.0 0.0
gw 0.0 0.0 0.0 0.0
gw 0.0 0.0 0.0 0.0
gw 0.0 0.0 0.0 0.0
gw 0.0 0.0 0.0 0.0
gw 0.0 0.0 0.0 0.0
gw 0.0 0.0 0.0 0.0
gw 0.0 0.0 0.0 0.0
gw 0.0 0.0 0.0 0.0
gw 0.0 0.0 0.0 0.0
gw 0.0 0.0 0.0 0.0
gw 0.0 0.0 0.0 0.0
gw 0.0 0.0 0.0 0.0
gw 0.0 0.0 0.0 0.0
gw 0.0 0.0 0.0 0.0
gw 0.0 0.0 0.0 0.0
gw 0.0 0.0 0.0 0.0
gw 0.0 0.0 0.0 0.0
gw 0.0 0.0 0.0 0.0
gw 0.0 0.0 0.0 0.0
gw 0.0 0.0 0.0 0.0
gw 0.0 0.0 0.0 0.0
gw 0.0 0.0 0.0 0.0
gw 0.0 0.0 0.0 0.0
gw 0.0 0.0 0.0 0.0
gw 0.0 0.0 0.0 0.0
vt 0.2388 0.7828
vt 0.2969 0.8339
vt 0.2969 0.905
vt 0.1052 0.7828
vt 0.1052 0.905
vt 0.0579 0.1688
vt 0.0419 0.1688
vt 0.0419 0.0149
vt 0.0579 0.0149
vt 0.0579 0.974
vt 0.0419 0.974
vt 0.0419 0.7325
vt 0.0577 0.7325
vt 0.0698 0.7394
vt 0.0698 0.9671
vt 0.0577 0.6441
vt 0.0694 0.6381
vt 0.0694 0.7257
vt 0.0871 0.7568
vt 0.0871 0.9497
vt 0.0872 0.0391
vt 0.0872 0.1688
vt 0.0698 0.1688
vt 0.0698 0.0217
vt 0.8929 0.0091
vt 0.8929 0.9005
vt 0.9967 0.9005
vt 0.9967 0.0091
vt 0.8048 0.0091
vt 0.8048 0.9005
vt 0.649 0.0091
vt 0.649 0.9005
vt 0.7184 0.9005
vt 0.7184 0.0091
vt 0.475 0.0091
vt 0.475 0.9005
vt 0.4571 0.9414
vt 0.4571 0.9493
vt 0.35 0.9493
vt 0.35 0.9414
vt 0.5643 0.9414
vt 0.5643 0.9493
vt 0.6715 0.9414
vt 0.6715 0.9493
vt 0.7774 0.9414
vt 0.7744 0.9493
vt 0.4571 0.9727
vt 0.4571 0.9908
vt 0.35 0.9908
vt 0.35 0.9727
vt 0.5643 0.9727
vt 0.5643 0.9908
vt 0.6715 0.9727
vt 0.6715 0.9908
vt 0.7764 0.9727
vt 0.7732 0.9908
vt 0.0866 0.623
vt 0.0941 0.6164
vt 0.0941 0.6488
vt 0.0866 0.7086
vt 0.148 0.048
vt 0.0964 0.0996
vt 0.0961 0.8159
vt 0.0961 0.8889
vt 0.145 0.6998
vt 0.35 0.9133
vt 0.35 0.9274
vt 0.3027 0.9274
vt 0.2923 0.9133
vt 0.4571 0.9133
vt 0.4571 0.9274
vt 0.5643 0.9274
vt 0.5643 0.9133
vt 0.6715 0.9274
vt 0.6715 0.9133
vt 0.2923 0.9414
vt 0.2945 0.9727
vt 0.2951 0.9571
vt 0.35 0.9571
vt 0.4571 0.9571
vt 0.5643 0.9571
vt 0.6715 0.9571
vt 0.2991 0.9493
vt 0.0389 0.1707
vt 0.0318 0.1707
vt 0.0318 0.0178
vt 0.0389 0.0178
vt 0.0389 0.971
vt 0.0318 0.971
vt 0.0318 0.7325
vt 0.0389 0.7325
vt 0.0059 0.2501
vt 0.0059 0.1595
vt 0.0243 0.1595
vt 0.0243 0.2501
vt 0.0059 0.4945
vt 0.0243 0.4945
vt 0.0272 0.253
vt 0.0272 0.4915
vt 0.0272 0.1569
vt 0.0272 0.2471
vt 0.0964 0.1688
vt 0.7728 0.9274
vt 0.7774 0.9133
vt 0.7761 0.9571
vt 0.0243 0.6503
vt 0.0059 0.6503
vt 0.0272 0.4974
vt 0.0272 0.6503
vt 0.3698 0.9005
vt 0.3698 0.0091
vt 0.6161 0.9133
vt 0.617 0.9274
vt 0.6161 0.9414
vt 0.6163 0.9571
vt 0.6163 0.9727
vt 0.6167 0.9493
vt 0.0698 0.0267
vt 0.0579 0.0207
vt 0.0877 0.0425
vt 0.0872 0.042
vt 0.0243 0.5004
vt 0.0059 0.5004
vt 0.0272 0.503
vt 0.0419 0.6441
vt 0.3177 0.0091
vt 0.3177 0.9005
vt 0.3563 0.9005
vt 0.3563 0.0091
vt 0.3017 0.9908
vt 0.0318 0.6422
vt 0.0389 0.6422
vt 0.1052 0.9004
vt 0.0419 0.0207
vt 0.3161 0.0091
vt 0.3161 0.9005
vt 0.6169 0.9908
vt 0.1227 0.0733
vt 0.0389 0.0233
vt 0.0318 0.0233
vt 0.38 0.9005
vt 0.48 0.9005
vt 0.48 0.0091
vt 0.38 0.0091
vt 0.5472 0.9005
vt 0.5472 0.0091
vt 0.6467 0.9005
vt 0.6467 0.0091
vt 0.7432 0.9005
vt 0.7432 0.0091
vt 0.8931 0.9005
vt 0.8931 0.0091
vt 0.339 0.9005
vt 0.339 0.0091
vt 0.9972 0.0091
vt 0.9972 0.9005
vn 0.0 1.0 0.0
vn -0.3015 0.9045 -0.3015
vn -0.5774 0.5774 -0.5773
vn 0.0 0.7071 0.7071
vn -0.5774 0.5773 0.5774
vn 0.0 -0.2584 0.966
vn 0.0 0.7071 0.7071
vn -0.5773 0.5774 0.5773
vn -0.6761 -0.3073 0.6696
vn -0.5773 0.5774 -0.5773
vn -0.6761 -0.3073 -0.6696
vn -0.4376 -0.7728 -0.4596
vn -0.4376 -0.7728 0.4596
vn -0.6494 -0.3957 -0.6494
vn -0.3433 -0.8743 -0.3433
vn -0.1928 -0.9566 -0.2187
vn -0.1918 -0.9569 0.218
vn 0.0 -0.8629 0.5055
vn 0.0 -0.7204 0.6935
vn -0.9112 0.0 -0.4119
vn -0.7866 -0.4981 -0.365
vn -0.3058 -0.4658 -0.8304
vn -0.3531 0.0 -0.9356
vn -0.9112 -0.0 0.4119
vn -0.7866 -0.4981 0.365
vn -0.3531 -0.0 0.9356
vn -0.3057 -0.4658 0.8304
vn 0.0 -0.0 1.0
vn 0.0 -0.4027 0.9154
vn -0.9007 -0.0386 -0.4328
vn -0.9108 -0.1043 -0.3994
vn -0.3605 -0.108 -0.9265
vn -0.335 -0.0375 -0.9415
vn -0.9007 -0.0387 0.4328
vn -0.9108 -0.1043 0.3994
vn -0.335 -0.0375 0.9415
vn -0.3605 -0.108 0.9265
vn 0.0 -0.0308 0.9995
vn 0.0 -0.1244 0.9922
vn -0.8652 -0.3031 -0.3994
vn -0.5588 -0.8161 -0.1473
vn -0.1386 -0.7507 -0.646
vn -0.3334 -0.2783 -0.9008
vn -0.8652 -0.3031 0.3994
vn -0.5588 -0.8162 0.1469
vn -0.3334 -0.2783 0.9008
vn -0.139 -0.7815 0.6082
vn 0.0 -0.2404 0.9707
vn 0.0 -0.6945 0.7195
vn -0.3186 -0.8927 -0.3186
vn -0.4817 -0.732 -0.4817
vn -0.3633 0.0 -0.9317
vn -0.7071 -0.0 -0.7071
vn -0.6466 -0.4048 -0.6466
vn -0.9161 -0.0 -0.4009
vn -0.9161 0.0 0.4009
vn -0.3633 0.0 0.9317
vn -0.707 -0.0209 -0.707
vn -0.6814 -0.267 -0.6814
vn -0.6549 0.3772 -0.6549
vn -0.3195 0.3911 -0.8631
vn -0.8227 0.423 -0.3798
vn -0.8227 0.4229 0.3798
vn -0.3195 0.3911 0.8631
vn -0.6911 -0.2113 -0.6912
vn 0.0 0.7071 0.7071
vn 0.0 -0.7071 0.7071
vn -0.3015 -0.9045 0.3015
vn -0.3015 0.9045 0.3015
vn -0.3015 -0.9045 -0.3015
vn -0.3015 0.9045 -0.3015
vn -0.3015 -0.9045 -0.3015
vn -0.5773 -0.5774 -0.5773
vn -0.5773 -0.5774 0.5773
vn -0.5773 -0.5774 -0.5773
vn 0.0 -0.0 1.0
vn 0.0 0.3408 0.9401
vn 0.0 -0.7071 0.7071
vn 0.3058 -0.4658 0.8304
vn 0.3531 -0.0 0.9356
vn 0.335 -0.0375 0.9415
vn 0.3605 -0.108 0.9265
vn 0.3334 -0.2783 0.9008
vn 0.139 -0.7815 0.6082
vn 0.6407 -0.4232 0.6407
vn 0.7071 0.0 0.7071
vn 0.3633 0.0 0.9317
vn 0.7068 -0.0315 0.7068
vn 0.6595 0.3606 0.6595
vn 0.6837 -0.2551 0.6837
vn 0.3195 0.3911 0.8631
vn 0.7019 -0.121 0.7019
vn 0.4624 -0.7566 0.4624
vn 0.6756 -0.2953 0.6756
vn 0.2487 -0.9361 0.2488
vn 0.2599 -0.93 0.2598
vn 0.5773 -0.5774 0.5773
vn 0.5773 0.5774 0.5773
vn 0.3015 -0.9045 0.3015
vn -0.3015 0.9045 -0.3015
vn -0.7071 0.0 -0.7071
vn -0.5773 0.5774 -0.5773
vn 0.5773 0.5774 0.5773
vn 0.7071 -0.0 0.7071
vn 0.3657 -0.8558 0.3657
vn 0.3015 0.9045 0.3015
vn 0.7071 0.7071 0.0
vn -0.5773 0.5774 -0.5774
vn 0.5774 0.5773 -0.5774
vn 0.5773 0.5774 -0.5773
vn 0.7071 0.7071 0.0
vn 0.966 -0.2584 -0.0
vn 0.6696 -0.3073 -0.6761
vn -0.5773 0.5774 -0.5773
vn -0.6696 -0.3073 -0.6761
vn 0.4596 -0.7728 -0.4376
vn -0.4596 -0.7728 -0.4376
vn 0.218 -0.9569 -0.1918
vn -0.2187 -0.9566 -0.1928
vn 0.6935 -0.7204 -0.0
vn 0.5055 -0.8628 -0.0
vn -0.8304 -0.4658 -0.3058
vn -0.365 -0.4981 -0.7866
vn -0.4119 0.0 -0.9112
vn -0.9356 -0.0 -0.3531
vn 0.365 -0.4981 -0.7866
vn 0.4119 0.0 -0.9112
vn 0.8304 -0.4658 -0.3058
vn 0.9356 0.0 -0.3531
vn 0.9154 -0.4026 0.0
vn 1.0 0.0 0.0
vn -0.9265 -0.108 -0.3605
vn -0.3994 -0.1043 -0.9108
vn -0.4328 -0.0386 -0.9007
vn -0.9415 -0.0375 -0.335
vn 0.3994 -0.1043 -0.9108
vn 0.4328 -0.0386 -0.9007
vn 0.9265 -0.108 -0.3605
vn 0.9415 -0.0375 -0.335
vn 0.9922 -0.1244 0.0
vn 0.9995 -0.0308 0.0
vn -0.646 -0.7507 -0.1386
vn -0.1473 -0.8161 -0.5588
vn -0.3994 -0.3031 -0.8652
vn -0.9008 -0.2783 -0.3334
vn 0.1469 -0.8162 -0.5588
vn 0.3994 -0.3031 -0.8652
vn 0.6082 -0.7815 -0.139
vn 0.9008 -0.2783 -0.3334
vn 0.7195 -0.6945 0.0
vn 0.9707 -0.2404 0.0
vn -0.9317 0.0 -0.3633
vn -0.4009 -0.0 -0.9161
vn 0.4009 0.0 -0.9161
vn 0.9317 0.0 -0.3633
vn -0.8631 0.3911 -0.3195
vn -0.3798 0.4229 -0.8227
vn 0.3798 0.4229 -0.8227
vn 0.8631 0.3911 -0.3195
vn 0.3015 -0.9045 -0.3015
vn 0.7071 -0.7071 -0.0
vn 0.7071 0.7071 0.0
vn 0.3015 0.9045 -0.3015
vn -0.3015 -0.9045 -0.3015
vn -0.3015 0.9045 -0.3015
vn -0.5773 -0.5774 -0.5773
vn 0.5773 -0.5774 -0.5773
vn 1.0 -0.0 0.0
vn 0.9402 0.3407 0.0
vn 0.7071 -0.7071 -0.0
vn 0.8304 -0.4658 0.3058
vn 0.9356 0.0 0.3531
vn 0.9415 -0.0375 0.335
vn 0.9265 -0.1079 0.3605
vn 0.9008 -0.2783 0.3334
vn 0.6082 -0.7815 0.139
vn 0.9317 0.0 0.3633
vn 0.8631 0.3911 0.3195
vtan -0.0001 0.0 -1.0
vtan 0.0945 -0.2863 -0.9535
vtan 0.4081 -0.4084 -0.8165
vtan 0.0 0.7071 -0.7071
vtan -0.4083 0.4082 -0.8165
vtan 0.0001 -0.966 -0.2584
vtan 0.3873 -0.6519 0.6519
vtan -0.1768 -0.7787 0.6019
vtan 0.1165 -0.942 -0.3146
vtan 0.3307 -0.9388 -0.0969
vtan -0.6331 -0.7631 0.13
vtan -0.4339 -0.8159 -0.3821
vtan 0.2268 -0.9515 0.2077
vtan 0.827 -0.5466 0.1318
vtan 0.8269 -0.5466 -0.1319
vtan 0.115 -0.8952 0.4305
vtan 0.0941 -0.3956 0.9136
vtan 0.151 -0.5671 0.8097
vtan 0.9765 -0.2089 0.0526
vtan 0.9768 -0.2077 -0.0525
vtan 0.0241 -0.2266 -0.9737
vtan -0.0 -0.5055 -0.8629
vtan -0.0001 -0.6935 -0.7204
vtan 0.1544 -0.5681 -0.8083
vtan 0.4119 0.0 -0.9112
vtan 0.4188 0.0041 -0.9081
vtan 0.895 0.1568 -0.4175
vtan 0.9356 0.0 -0.3531
vtan -0.4119 0.0 -0.9112
vtan -0.3084 -0.1953 -0.931
vtan -0.9356 0.0 -0.3531
vtan -0.9378 -0.0032 -0.3471
vtan -0.5079 0.1857 -0.8412
vtan -0.4119 0.0 -0.9112
vtan -1.0 0.0 0.0
vtan -0.4331 0.0004 0.9013
vtan -0.4015 -0.0008 0.9159
vtan -0.9319 -0.0006 0.3627
vtan -0.9421 0.0003 0.3353
vtan 0.4331 -0.0004 0.9013
vtan 0.4015 0.0008 0.9159
vtan 0.9421 -0.0003 0.3352
vtan 0.9319 0.0006 0.3627
vtan 1.0 0.0 0.0
vtan -0.419 -0.0003 0.908
vtan -0.3459 0.0679 0.9358
vtan -0.9514 -0.0801 0.2972
vtan -0.9378 -0.0002 0.3471
vtan 0.419 0.0003 0.908
vtan 0.3456 -0.0682 0.9359
vtan 0.9378 0.0002 0.3471
vtan 0.9484 0.0716 0.3088
vtan 0.0841 -0.3614 0.9286
vtan 0.035 -0.5653 0.8241
vtan -0.027 -0.6492 0.7602
vtan 0.0269 -0.2279 0.9733
vtan -0.0426 -0.1486 -0.988
vtan -0.0277 -0.6109 -0.7913
vtan 0.8253 -0.5646 -0.0022
vtan 0.8257 -0.5641 0.0071
vtan -0.0419 -0.1496 0.9879
vtan -0.9388 0.0024 0.3443
vtan -0.9317 0.0 0.3633
vtan -0.7071 0.0 0.7071
vtan -0.7628 0.3431 0.548
vtan -0.4222 0.0025 0.9065
vtan -0.4009 -0.0 0.9161
vtan 0.4009 -0.0 0.9161
vtan 0.4222 -0.0025 0.9065
vtan 0.9317 -0.0 0.3633
vtan 0.9388 -0.0024 0.3443
vtan -0.7073 0.0208 0.7066
vtan -0.7319 0.2486 0.6345
vtan -0.7557 -0.3269 0.5675
vtan -0.9377 0.0003 0.3473
vtan -0.4188 0.0006 0.9081
vtan 0.4188 -0.0006 0.9081
vtan 0.9377 -0.0003 0.3473
vtan -0.7227 0.202 0.6609
vtan 0.3904 -0.651 0.651
vtan 0.0 -0.7071 -0.7071
vtan 0.6396 -0.4264 -0.6396
vtan -0.1043 -0.3456 0.9326
vtan -0.9331 -0.345 0.1019
vtan 0.6396 -0.4264 -0.6396
vtan 0.6396 -0.4264 0.6396
vtan -0.6743 -0.4259 -0.6032
vtan -0.4083 -0.8165 -0.4082
vtan -0.6396 -0.4264 -0.6396
vtan 0.1061 -0.3461 0.9322
vtan 0.4316 -0.816 0.3844
vtan -0.4082 -0.8165 0.4082
vtan 0.4357 -0.8159 -0.3802
vtan 0.9533 -0.2909 -0.0806
vtan 0.9534 -0.2815 0.1088
vtan -0.4091 -0.4074 0.8165
vtan -0.1129 -0.2802 0.9533
vtan 0.0 -0.7195 -0.6945
vtan 1.0 -0.0 -0.0
vtan 0.0001 -0.7071 -0.7071
vtan 0.0 -0.7071 0.7071
vtan -0.0766 -0.2922 -0.9533
vtan 0.0 -0.7071 -0.7071
vtan -0.9378 0.0032 0.3471
vtan -0.9356 -0.0 0.3531
vtan -0.9421 -0.0003 0.3353
vtan -0.9319 0.0006 0.3627
vtan -0.9378 0.0002 0.3471
vtan -0.9484 0.0716 0.3088
vtan -0.9388 -0.0024 0.3443
vtan -0.7149 -0.0244 0.6988
vtan -0.7071 0.0 0.7071
vtan -0.9317 -0.0 0.3633
vtan -0.7072 -0.002 0.7071
vtan -0.7128 0.0214 0.7011
vtan -0.71 -0.0157 0.7041
vtan -0.9377 -0.0003 0.3473
vtan -0.7077 -0.0077 0.7064
vtan -0.0001 -0.966 -0.2584
vtan -0.0 -0.6935 -0.7204
vtan -0.1492 -0.5804 -0.8005
vtan -0.1035 -0.9452 -0.3096
vtan 0.0314 -0.6104 -0.7915
vtan 0.0168 -0.2527 -0.9674
vtan -0.042 -0.2797 -0.9592
vtan 0.0003 -0.7195 -0.6945
vtan 0.0 -0.5055 -0.8629
vtan -1.0 -0.0 0.0
vtan 0.0 -0.7071 -0.7071
vtan -0.1542 -0.7715 -0.6173
vtan 0.4083 -0.8165 0.4083
vtan 0.0961 -0.2858 -0.9535
vtan -0.3019 -0.3905 -0.8697
vtan 0.9356 0.0 -0.3531
vtan 0.9521 -0.1496 -0.2667
vtan 0.7628 -0.3431 -0.548
vtan 0.7071 0.0 -0.7071
vtan -0.8763 0.4024 0.2648
vtan 0.4083 -0.8165 0.4083
vtan -0.2166 -0.7901 -0.5735
vtan 0.0 0.0 -1.0
vtan 0.0 0.7071 -0.7071
vtan 0.4082 0.4083 -0.8165
vtan -0.3873 -0.6519 0.6519
vtan 0.1518 -0.7707 0.6189
vtan -0.7071 -0.0 0.7071
vtan -0.7149 -0.0244 0.6988
vtan -0.739 -0.0282 0.6731
vtan 0.1105 -0.3503 -0.9301
vtan -0.3903 -0.651 0.651
vtan 0.095 -0.3432 0.9345
vtan -0.6396 -0.4264 -0.6396
vtan -1.0 0.0 -0.0001
vtan -0.7071 0.7071 -0.0
vtan -0.8165 -0.4084 0.4081
vtan -0.9535 -0.2863 0.0945
vtan -0.8165 0.4082 -0.4083
vtan 0.602 -0.7787 -0.1768
vtan 0.6519 -0.6519 0.3873
vtan -0.2584 -0.966 0.0001
vtan -0.3146 -0.942 0.1165
vtan -0.3821 -0.8159 -0.4339
vtan 0.1301 -0.7631 -0.6331
vtan -0.0969 -0.9388 0.3307
vtan 0.2077 -0.9516 0.2268
vtan -0.1319 -0.5466 0.8269
vtan 0.1318 -0.5466 0.827
vtan 0.8097 -0.5671 0.151
vtan 0.9136 -0.3956 0.0941
vtan 0.4305 -0.8952 0.115
vtan -0.0525 -0.2077 0.9768
vtan 0.0526 -0.2089 0.9765
vtan -0.7204 -0.6935 -0.0001
vtan -0.8628 -0.5055 -0.0
vtan -0.9737 -0.2266 0.0241
vtan -0.8083 -0.5681 0.1544
vtan 0.3471 -0.0032 -0.9378
vtan 0.9081 -0.0041 -0.4188
vtan 0.9112 -0.0 -0.4119
vtan 0.3531 -0.0 -0.9356
vtan 0.9081 0.0041 0.4188
vtan 0.9112 -0.0 0.4119
vtan 0.3471 0.0032 0.9378
vtan 0.3531 -0.0 0.9356
vtan 0.0 0.0 1.0
vtan 0.0 -0.0 1.0
vtan 0.3627 -0.0006 -0.9319
vtan 0.9159 -0.0008 -0.4015
vtan 0.9013 0.0004 -0.4331
vtan 0.3353 0.0003 -0.9421
vtan 0.9159 0.0008 0.4015
vtan 0.9013 -0.0004 0.4331
vtan 0.3627 0.0006 0.9319
vtan 0.3353 -0.0003 0.9421
vtan 0.2972 -0.0801 -0.9514
vtan 0.9358 0.0679 -0.3459
vtan 0.908 -0.0003 -0.419
vtan 0.3471 -0.0002 -0.9378
vtan 0.9359 -0.0682 0.3456
vtan 0.908 0.0003 0.419
vtan 0.3087 0.0715 0.9484
vtan 0.3471 0.0002 0.9378
vtan 0.7602 -0.6491 -0.027
vtan 0.8241 -0.5653 0.035
vtan 0.9286 -0.3614 0.0841
vtan 0.9733 -0.2279 0.0269
vtan -0.7913 -0.6109 -0.0277
vtan -0.988 -0.1486 -0.0426
vtan 0.0071 -0.5641 0.8257
vtan -0.0022 -0.5646 0.8253
vtan 0.9879 -0.1496 -0.0419
vtan 0.3443 0.0024 -0.9388
vtan 0.548 0.3431 -0.7629
vtan 0.7071 0.0 -0.7071
vtan 0.3633 0.0 -0.9317
vtan 0.9065 0.0025 -0.4222
vtan 0.9161 -0.0 -0.4009
vtan 0.9161 -0.0 0.4009
vtan 0.9065 -0.0025 0.4222
vtan 0.3633 -0.0 0.9317
vtan 0.3443 -0.0024 0.9388
vtan 0.7066 0.0208 -0.7073
vtan 0.5675 -0.3269 -0.7557
vtan 0.6345 0.2486 -0.7319
vtan 0.3473 0.0003 -0.9378
vtan 0.9081 0.0006 -0.4188
vtan 0.9081 -0.0006 0.4188
vtan 0.3473 -0.0003 0.9378
vtan 0.661 0.202 -0.7227
vtan -0.6396 -0.4264 0.6396
vtan -0.7071 -0.7071 0.0
vtan 0.651 -0.651 0.3903
vtan 0.9326 -0.3456 -0.1042
vtan 0.6396 -0.4264 0.6396
vtan -0.6396 -0.4264 0.6396
vtan 0.1019 -0.345 -0.933
vtan -0.6032 -0.4259 -0.6743
vtan 0.9322 -0.3461 0.1061
vtan -0.4082 -0.8165 -0.4083
vtan 0.3844 -0.816 0.4316
vtan 0.4082 -0.8165 -0.4082
vtan -0.3802 -0.8159 0.4357
vtan 0.1088 -0.2815 0.9534
vtan -0.0807 -0.2909 0.9533
vtan 0.9533 -0.2801 -0.1129
vtan 0.8165 -0.4074 -0.4091
vtan -0.6945 -0.7195 0.0
vtan -0.0 -0.0 1.0
vtan -0.7071 -0.7071 0.0001
vtan 0.7071 -0.7071 0.0
vtan -0.7071 -0.7071 -0.0
vtan -0.9533 -0.2922 -0.0767
vtan -0.3471 -0.0032 0.9378
vtan -0.3531 -0.0 0.9356
vtan 0.3353 -0.0003 -0.9421
vtan 0.0 0.0 -1.0
vtan 0.3627 0.0006 -0.9319
vtan 0.3471 0.0002 -0.9378
vtan 0.3088 0.0716 -0.9484
vtan 0.3443 -0.0024 -0.9388
vtan 0.3633 -0.0 -0.9317
vtan 0.7071 0.0 -0.7071
vtan 0.6988 -0.0244 -0.7149
vtan 0.7071 -0.002 -0.7071
vtan 0.7041 -0.0157 -0.7099
vtan 0.7011 0.0214 -0.7128
vtan 0.3473 -0.0003 -0.9378
vtan 0.7064 -0.0077 -0.7077
vtan -0.2584 -0.966 -0.0001
vtan -0.3096 -0.9452 -0.1035
vtan -0.8005 -0.5804 -0.1492
vtan -0.7204 -0.6935 -0.0
vtan -0.9592 -0.2797 -0.0419
vtan -0.9675 -0.2524 0.0173
vtan -0.7915 -0.6104 0.0314
vtan -0.6945 -0.7195 0.0003
vtan -0.8628 -0.5055 -0.0
vtan -0.0 -0.0 -1.0
vtan -0.6173 -0.7714 -0.1542
vtan -0.7071 -0.7071 0.0
vtan -0.9535 -0.2858 0.0961
vtan -0.8697 -0.3905 -0.3019
vtan 0.7071 -0.0 -0.7071
vtan 0.2648 0.4024 -0.8763
vtan -0.5735 -0.7901 -0.2166
vtan -1.0 0.0 -0.0
vtan -0.8165 0.4083 0.4082
vtan -0.7071 0.7071 -0.0
vtan 0.6519 -0.6519 -0.3873
vtan 0.6189 -0.7706 0.1518
vtan -0.7071 -0.0 0.7071
vtan -0.6988 0.0244 0.7149
vtan 0.6731 -0.0282 -0.739
vtan -0.9301 -0.3503 0.1105
vtan 0.9345 -0.3432 0.095
vtan 0.651 -0.651 -0.3903
vtan -0.7071 -0.7071 0.0
f 0/0/0/0 1/1/1/1 2/2/2/2 
f 0/0/0/0 2/2/2/2 3/3/3/3 
f 4/4/4/4 3/3/3/3 2/2/2/2 
f 5/5/5/5 6/6/6/6 7/7/7/7 
f 5/5/5/5 7/7/7/7 8/8/8/8 
f 8/9/8/9 7/10/7/10 9/11/9/11 
f 8/9/8/9 9/11/9/11 10/12/10/12 
f 10/12/10/12 11/13/11/13 12/14/12/14 
f 10/12/10/12 12/14/12/14 8/9/8/9 
f 13/15/13/15 14/16/14/16 11/17/11/17 
f 13/15/13/15 11/17/11/17 10/12/10/12 
f 15/18/15/18 16/19/16/19 12/14/12/14 
f 15/18/15/18 12/14/12/14 11/13/11/13 
f 16/20/16/20 17/21/17/21 18/22/18/22 
f 16/20/16/20 18/22/18/22 12/23/12/23 
f 19/24/19/24 20/25/20/25 21/26/21/26 
f 19/24/19/24 21/26/21/26 22/27/22/27 
f 23/28/23/28 24/29/24/29 20/25/20/25 
f 23/28/23/28 20/25/20/25 19/24/19/24 
f 25/30/25/30 26/31/26/31 24/32/24/32 
f 25/30/25/30 24/32/24/32 23/33/23/33 
f 27/34/27/34 28/35/28/34 26/31/26/31 
f 27/34/27/34 26/31/26/31 25/30/25/30 
f 29/36/29/35 30/37/30/36 31/38/31/37 
f 29/36/29/35 31/38/31/37 32/39/32/38 
f 33/40/33/39 34/41/34/40 30/37/30/36 
f 33/40/33/39 30/37/30/36 29/36/29/35 
f 33/40/33/39 35/42/35/41 36/43/36/42 
f 33/40/33/39 36/43/36/42 34/41/34/40 
f 35/42/35/41 37/44/37/43 38/45/38/43 
f 35/42/35/41 38/45/38/43 36/43/36/42 
f 39/46/39/44 40/47/40/45 41/48/41/46 
f 39/46/39/44 41/48/41/46 42/49/42/47 
f 43/50/43/48 44/51/44/49 40/47/40/45 
f 43/50/43/48 40/47/40/45 39/46/39/44 
f 43/50/43/48 45/52/45/50 46/53/46/51 
f 43/50/43/48 46/53/46/51 44/51/44/49 
f 45/52/45/50 47/54/47/43 48/55/48/43 
f 45/52/45/50 48/55/48/43 46/53/46/51 
f 49/56/49/52 50/57/50/53 41/58/41/54 
f 49/56/49/52 41/58/41/54 15/59/15/55 
f 16/20/16/20 44/60/44/56 46/61/46/57 
f 15/18/15/18 40/62/40/58 44/63/44/59 
f 15/18/15/18 44/63/44/59 16/19/16/19 
f 15/59/15/55 41/58/41/54 40/64/40/60 
f 21/65/21/61 51/66/51/62 52/67/52/63 
f 21/65/21/61 52/67/52/63 53/68/53/64 
f 20/69/20/65 54/70/54/66 51/66/51/62 
f 20/69/20/65 51/66/51/62 21/65/21/61 
f 55/71/55/67 54/70/54/66 20/69/20/65 
f 55/71/55/67 20/69/20/65 24/72/24/68 
f 56/73/56/69 55/71/55/67 24/72/24/68 
f 56/73/56/69 24/72/24/68 26/74/26/70 
f 32/39/32/38 57/75/57/71 52/67/52/63 
f 32/39/32/38 52/67/52/63 51/66/51/62 
f 29/36/29/35 32/39/32/38 51/66/51/62 
f 29/36/29/35 51/66/51/62 54/70/54/66 
f 33/40/33/39 29/36/29/35 54/70/54/66 
f 33/40/33/39 54/70/54/66 55/71/55/67 
f 56/73/56/69 35/42/35/41 33/40/33/39 
f 56/73/56/69 33/40/33/39 55/71/55/67 
f 42/49/42/47 58/76/58/72 59/77/59/73 
f 42/49/42/47 59/77/59/73 60/78/60/74 
f 39/46/39/44 42/49/42/47 60/78/60/74 
f 39/46/39/44 60/78/60/74 61/79/61/75 
f 43/50/43/48 39/46/39/44 61/79/61/75 
f 43/50/43/48 61/79/61/75 62/80/62/76 
f 45/52/45/50 43/50/43/48 62/80/62/76 
f 45/52/45/50 62/80/62/76 63/81/63/77 
f 60/78/60/74 59/77/59/73 64/82/64/78 
f 60/78/60/74 64/82/64/78 31/38/31/37 
f 61/79/61/75 60/78/60/74 31/38/31/37 
f 61/79/61/75 31/38/31/37 30/37/30/36 
f 62/80/62/76 61/79/61/75 30/37/30/36 
f 62/80/62/76 30/37/30/36 34/41/34/40 
f 36/43/36/42 63/81/63/77 62/80/62/76 
f 36/43/36/42 62/80/62/76 34/41/34/40 
f 65/83/65/79 66/84/66/80 67/85/67/81 
f 65/83/65/79 67/85/67/81 68/86/68/82 
f 68/87/68/83 67/88/67/84 69/89/69/85 
f 68/87/68/83 69/89/69/85 70/90/70/86 
f 2/91/2/87 1/92/1/88 71/93/71/89 
f 2/91/2/87 71/93/71/89 72/94/72/90 
f 4/95/4/91 2/91/2/87 72/94/72/90 
f 4/95/4/91 72/94/72/90 73/96/73/92 
f 6/6/6/6 65/83/65/79 68/86/68/82 
f 6/6/6/6 68/86/68/82 7/7/7/7 
f 7/10/7/10 68/87/68/83 70/90/70/86 
f 7/10/7/10 70/90/70/86 9/11/9/11 
f 72/94/72/90 69/97/69/93 67/98/67/94 
f 72/94/72/90 67/98/67/94 73/96/73/92 
f 71/93/71/89 74/99/74/95 69/100/69/96 
f 71/93/71/89 69/100/69/96 72/94/72/90 
f 5/5/5/5 8/8/8/8 12/23/12/23 
f 5/5/5/5 12/23/12/23 18/22/18/22 
f 17/21/17/21 16/20/16/20 46/61/46/57 
f 17/21/17/21 46/61/46/57 48/101/48/97 
f 75/102/75/98 56/73/56/69 26/74/26/70 
f 75/102/75/98 26/74/26/70 28/103/28/43 
f 35/42/35/41 56/73/56/69 75/102/75/98 
f 35/42/35/41 75/102/75/98 37/44/37/43 
f 45/52/45/50 63/81/63/77 76/104/76/43 
f 45/52/45/50 76/104/76/43 47/54/47/43 
f 63/81/63/77 36/43/36/42 38/45/38/43 
f 63/81/63/77 38/45/38/43 76/104/76/43 
f 4/95/4/91 73/96/73/92 77/105/77/99 
f 4/95/4/91 77/105/77/99 3/106/3/100 
f 77/105/77/99 73/96/73/92 67/107/67/101 
f 77/105/77/99 67/107/67/101 66/108/66/102 
f 78/109/78/103 28/35/28/34 27/34/27/34 
f 78/109/78/103 27/34/27/34 79/110/79/104 
f 80/42/80/105 81/43/81/106 38/45/38/34 
f 80/42/80/105 38/45/38/34 37/44/37/34 
f 82/52/82/107 83/53/83/108 48/55/48/34 
f 82/52/82/107 48/55/48/34 47/54/47/34 
f 78/74/78/109 84/111/84/110 85/112/85/111 
f 78/74/78/109 85/112/85/111 86/73/86/112 
f 85/112/85/111 87/113/87/113 80/42/80/105 
f 85/112/85/111 80/42/80/105 86/73/86/112 
f 88/114/88/114 89/115/89/115 82/52/82/107 
f 88/114/88/114 82/52/82/107 90/81/90/116 
f 91/116/91/117 88/114/88/114 90/81/90/116 
f 91/116/91/117 90/81/90/116 81/43/81/106 
f 5/5/5/118 18/22/18/119 92/117/92/120 
f 5/5/5/118 92/117/92/120 93/118/93/121 
f 83/61/83/122 94/119/94/123 95/120/95/124 
f 83/61/83/122 95/120/95/124 48/101/48/125 
f 17/21/17/126 48/101/48/125 95/120/95/124 
f 75/102/75/127 28/103/28/34 78/74/78/109 
f 75/102/75/127 78/74/78/109 86/73/86/112 
f 75/102/75/127 86/73/86/112 80/42/80/105 
f 75/102/75/127 80/42/80/105 37/44/37/34 
f 76/104/76/34 90/81/90/116 82/52/82/107 
f 76/104/76/34 82/52/82/107 47/54/47/34 
f 38/45/38/34 81/43/81/106 90/81/90/116 
f 38/45/38/34 90/81/90/116 76/104/76/34 
f 77/105/77/128 96/121/96/129 97/122/97/130 
f 77/105/77/128 97/122/97/130 3/106/3/100 
f 77/105/77/128 66/108/66/102 98/123/98/131 
f 77/105/77/128 98/123/98/131 96/121/96/129 
f 10/12/10/12 9/11/9/11 99/124/99/132 
f 10/12/10/12 99/124/99/132 13/15/13/15 
f 15/59/15/55 11/17/11/17 14/16/14/16 
f 15/59/15/55 14/16/14/16 49/56/49/52 
f 22/125/22/133 21/126/21/134 53/127/53/135 
f 22/125/22/133 53/127/53/135 100/128/100/136 
f 32/39/32/38 31/38/31/37 64/82/64/78 
f 32/39/32/38 64/82/64/78 57/75/57/71 
f 42/49/42/47 41/48/41/46 50/129/50/137 
f 42/49/42/47 50/129/50/137 58/76/58/72 
f 70/90/70/86 69/89/69/85 74/130/74/138 
f 70/90/70/86 74/130/74/138 101/131/101/139 
f 99/124/99/132 9/11/9/11 70/90/70/86 
f 99/124/99/132 70/90/70/86 101/131/101/139 
f 0/0/0/140 3/3/3/141 97/132/97/142 
f 6/6/6/143 5/5/5/118 93/118/93/121 
f 6/6/6/143 93/118/93/121 102/133/102/144 
f 18/22/18/119 17/21/17/126 95/120/95/124 
f 18/22/18/119 95/120/95/124 92/117/92/120 
f 78/109/78/103 79/110/79/104 103/134/103/145 
f 78/109/78/103 103/134/103/145 84/135/84/146 
f 91/116/91/117 81/43/81/106 80/42/80/105 
f 91/116/91/117 80/42/80/105 87/113/87/113 
f 104/136/104/147 83/53/83/108 82/52/82/107 
f 104/136/104/147 82/52/82/107 89/115/89/115 
f 94/119/94/123 83/61/83/122 104/137/104/148 
f 66/84/66/102 65/83/65/149 105/138/105/150 
f 66/84/66/102 105/138/105/150 98/139/98/151 
f 105/138/105/150 65/83/65/149 6/6/6/143 
f 105/138/105/150 6/6/6/143 102/133/102/144 
f 0/0/0/152 107/3/106/153 106/2/107/154 
f 0/0/0/152 106/2/107/154 1/1/1/155 
f 108/4/108/156 106/2/107/154 107/3/106/153 
f 109/7/109/157 110/6/110/158 111/5/111/159 
f 109/7/109/157 111/5/111/159 112/8/112/160 
f 113/11/113/161 109/10/109/162 112/9/112/163 
f 113/11/113/161 112/9/112/163 114/12/114/164 
f 115/14/115/165 116/13/116/166 114/12/114/164 
f 115/14/115/165 114/12/114/164 112/9/112/163 
f 116/17/116/167 14/16/14/168 13/15/13/169 
f 116/17/116/167 13/15/13/169 114/12/114/164 
f 115/14/115/165 117/19/117/170 118/18/118/171 
f 115/14/115/165 118/18/118/171 116/13/116/166 
f 119/22/119/172 120/21/120/173 117/20/117/174 
f 119/22/119/172 117/20/117/174 115/23/115/175 
f 121/140/121/176 122/141/122/177 123/142/123/178 
f 121/140/121/176 123/142/123/178 124/143/124/179 
f 122/141/122/177 125/144/125/180 126/145/126/181 
f 122/141/122/177 126/145/126/181 123/142/123/178 
f 125/144/125/180 127/146/127/182 128/147/128/183 
f 125/144/125/180 128/147/128/183 126/145/126/181 
f 127/146/127/182 129/148/129/184 130/149/130/185 
f 127/146/127/182 130/149/130/185 128/147/128/183 
f 131/38/131/186 132/37/132/187 133/36/133/188 
f 131/38/131/186 133/36/133/188 134/39/134/189 
f 132/37/132/187 135/41/135/190 136/40/136/191 
f 132/37/132/187 136/40/136/191 133/36/133/188 
f 136/40/136/191 135/41/135/190 137/43/137/192 
f 136/40/136/191 137/43/137/192 138/42/138/193 
f 138/42/138/193 137/43/137/192 139/45/139/184 
f 138/42/138/193 139/45/139/184 140/44/140/184 
f 141/48/141/194 142/47/142/195 143/46/143/196 
f 141/48/141/194 143/46/143/196 144/49/144/197 
f 142/47/142/195 145/51/145/198 146/50/146/199 
f 142/47/142/195 146/50/146/199 143/46/143/196 
f 146/50/146/199 145/51/145/198 147/53/147/200 
f 146/50/146/199 147/53/147/200 148/52/148/201 
f 148/52/148/201 147/53/147/200 149/55/149/184 
f 148/52/148/201 149/55/149/184 150/54/150/184 
f 141/58/141/202 50/57/50/203 49/56/49/204 
f 141/58/141/202 49/56/49/204 118/59/118/205 
f 117/20/117/174 147/61/147/206 145/60/145/207 
f 145/63/145/208 142/62/142/209 118/18/118/171 
f 145/63/145/208 118/18/118/171 117/19/117/170 
f 118/59/118/205 142/64/142/210 141/58/141/202 
f 121/65/121/211 53/68/53/212 52/67/52/213 
f 121/65/121/211 52/67/52/213 151/66/151/214 
f 122/69/122/215 121/65/121/211 151/66/151/214 
f 122/69/122/215 151/66/151/214 152/70/152/216 
f 122/69/122/215 152/70/152/216 153/71/153/217 
f 122/69/122/215 153/71/153/217 125/72/125/218 
f 125/72/125/218 153/71/153/217 154/73/154/219 
f 125/72/125/218 154/73/154/219 127/74/127/220 
f 52/67/52/213 57/75/57/221 134/39/134/189 
f 52/67/52/213 134/39/134/189 151/66/151/214 
f 151/66/151/214 134/39/134/189 133/36/133/188 
f 151/66/151/214 133/36/133/188 152/70/152/216 
f 152/70/152/216 133/36/133/188 136/40/136/191 
f 152/70/152/216 136/40/136/191 153/71/153/217 
f 154/73/154/219 153/71/153/217 136/40/136/191 
f 154/73/154/219 136/40/136/191 138/42/138/193 
f 59/77/59/222 58/76/58/223 144/49/144/197 
f 59/77/59/222 144/49/144/197 155/78/155/224 
f 155/78/155/224 144/49/144/197 143/46/143/196 
f 155/78/155/224 143/46/143/196 156/79/156/225 
f 156/79/156/225 143/46/143/196 146/50/146/199 
f 156/79/156/225 146/50/146/199 157/80/157/226 
f 157/80/157/226 146/50/146/199 148/52/148/201 
f 157/80/157/226 148/52/148/201 158/81/158/227 
f 64/82/64/228 59/77/59/222 155/78/155/224 
f 64/82/64/228 155/78/155/224 131/38/131/186 
f 131/38/131/186 155/78/155/224 156/79/156/225 
f 131/38/131/186 156/79/156/225 132/37/132/187 
f 132/37/132/187 156/79/156/225 157/80/157/226 
f 132/37/132/187 157/80/157/226 135/41/135/190 
f 137/43/137/192 135/41/135/190 157/80/157/226 
f 137/43/137/192 157/80/157/226 158/81/158/227 
f 159/85/159/229 160/84/160/230 161/83/161/231 
f 159/85/159/229 161/83/161/231 162/86/162/232 
f 163/89/163/233 159/88/159/234 162/87/162/235 
f 163/89/163/233 162/87/162/235 164/90/164/236 
f 71/93/71/237 1/92/1/88 106/91/107/238 
f 71/93/71/237 106/91/107/238 165/94/165/239 
f 165/94/165/239 106/91/107/238 108/95/108/240 
f 165/94/165/239 108/95/108/240 166/96/166/241 
f 162/86/162/232 161/83/161/231 110/6/110/158 
f 162/86/162/232 110/6/110/158 109/7/109/157 
f 164/90/164/236 162/87/162/235 109/10/109/162 
f 164/90/164/236 109/10/109/162 113/11/113/161 
f 159/98/159/242 163/97/163/243 165/94/165/239 
f 159/98/159/242 165/94/165/239 166/96/166/241 
f 163/100/163/244 74/99/74/245 71/93/71/237 
f 163/100/163/244 71/93/71/237 165/94/165/239 
f 111/5/111/159 119/22/119/172 115/23/115/175 
f 111/5/111/159 115/23/115/175 112/8/112/160 
f 120/21/120/173 149/101/149/246 147/61/147/206 
f 120/21/120/173 147/61/147/206 117/20/117/174 
f 167/102/167/247 129/103/129/184 127/74/127/220 
f 167/102/167/247 127/74/127/220 154/73/154/219 
f 167/102/167/247 154/73/154/219 138/42/138/193 
f 167/102/167/247 138/42/138/193 140/44/140/184 
f 168/104/168/184 158/81/158/227 148/52/148/201 
f 168/104/168/184 148/52/148/201 150/54/150/184 
f 139/45/139/184 137/43/137/192 158/81/158/227 
f 139/45/139/184 158/81/158/227 168/104/168/184 
f 169/105/169/248 166/96/166/241 108/95/108/240 
f 169/105/169/248 108/95/108/240 107/106/106/249 
f 169/105/169/248 160/108/160/250 159/107/159/251 
f 169/105/169/248 159/107/159/251 166/96/166/241 
f 130/149/130/185 129/148/129/184 170/150/170/252 
f 130/149/130/185 170/150/170/252 171/151/171/253 
f 172/42/172/254 140/44/140/255 139/45/139/255 
f 172/42/172/254 139/45/139/255 173/43/173/256 
f 174/52/174/257 150/54/150/255 149/55/149/255 
f 174/52/174/257 149/55/149/255 175/53/175/258 
f 170/74/170/259 176/73/176/260 85/112/85/261 
f 170/74/170/259 85/112/85/261 84/111/84/262 
f 172/42/172/254 87/113/87/263 85/112/85/261 
f 172/42/172/254 85/112/85/261 176/73/176/260 
f 174/52/174/257 89/115/89/264 88/114/88/265 
f 174/52/174/257 88/114/88/265 177/81/177/266 
f 177/81/177/266 88/114/88/265 91/116/91/267 
f 177/81/177/266 91/116/91/267 173/43/173/256 
f 111/5/111/268 93/118/93/269 92/117/92/270 
f 111/5/111/268 92/117/92/270 119/22/119/271 
f 95/120/95/272 94/119/94/273 175/61/175/274 
f 95/120/95/272 175/61/175/274 149/101/149/275 
f 120/21/120/276 95/120/95/272 149/101/149/275 
f 167/102/167/277 176/73/176/260 170/74/170/259 
f 167/102/167/277 170/74/170/259 129/103/129/255 
f 172/42/172/254 176/73/176/260 167/102/167/277 
f 172/42/172/254 167/102/167/277 140/44/140/255 
f 174/52/174/257 177/81/177/266 168/104/168/255 
f 174/52/174/257 168/104/168/255 150/54/150/255 
f 177/81/177/266 173/43/173/256 139/45/139/255 
f 177/81/177/266 139/45/139/255 168/104/168/255 
f 97/122/97/130 96/121/96/278 169/105/169/279 
f 97/122/97/130 169/105/169/279 107/106/106/249 
f 169/105/169/279 96/121/96/278 98/123/98/280 
f 169/105/169/279 98/123/98/280 160/108/160/250 
f 99/124/99/281 113/11/113/161 114/12/114/164 
f 99/124/99/281 114/12/114/164 13/15/13/169 
f 14/16/14/168 116/17/116/167 118/59/118/205 
f 14/16/14/168 118/59/118/205 49/56/49/204 
f 53/152/53/212 121/140/121/176 124/143/124/179 
f 53/152/53/212 124/143/124/179 100/153/100/282 
f 64/82/64/228 131/38/131/186 134/39/134/189 
f 64/82/64/228 134/39/134/189 57/75/57/221 
f 50/129/50/283 141/48/141/194 144/49/144/197 
f 50/129/50/283 144/49/144/197 58/76/58/223 
f 74/130/74/138 163/89/163/233 164/90/164/236 
f 74/130/74/138 164/90/164/236 101/131/101/284 
f 99/124/99/281 101/131/101/284 164/90/164/236 
f 99/124/99/281 164/90/164/236 113/11/113/161 
f 0/0/0/285 97/132/97/286 107/3/106/287 
f 93/118/93/269 111/5/111/268 110/6/110/288 
f 93/118/93/269 110/6/110/288 102/133/102/289 
f 95/120/95/272 120/21/120/276 119/22/119/271 
f 95/120/95/272 119/22/119/271 92/117/92/270 
f 103/154/103/290 171/151/171/253 170/150/170/252 
f 103/154/103/290 170/150/170/252 84/155/84/291 
f 91/116/91/267 87/113/87/263 172/42/172/254 
f 91/116/91/267 172/42/172/254 173/43/173/256 
f 104/136/104/292 89/115/89/264 174/52/174/257 
f 104/136/104/292 174/52/174/257 175/53/175/258 
f 94/119/94/273 104/137/104/293 175/61/175/274 
f 105/138/105/294 161/83/161/295 160/84/160/296 
f 105/138/105/294 160/84/160/296 98/139/98/151 
f 105/138/105/294 102/133/102/289 110/6/110/288 
f 105/138/105/294 110/6/110/288 161/83/161/295 
