v 1297.1624 186.521 162.5777
v 1296.3403 192.9854 161.6566
v 1303.272 192.9854 161.6566
v 1303.272 186.521 162.5777
v 1295.6541 192.9854 230.3676
v 1295.6541 192.9854 162.471
v 1296.4304 186.521 163.4466
v 1296.4304 186.521 229.392
v 1289.7017 208.8856 237.4178
v 1289.7017 213.2486 237.3759
v 1289.7017 213.2486 155.4631
v 1289.7017 208.8856 155.4212
v 1303.272 208.8856 238.2489
v 1303.272 213.2486 238.2489
v 1290.437 213.2486 238.2489
v 1290.4019 208.8856 238.2489
v 1297.7454 182.6523 163.2538
v 1295.6218 184.5866 160.6466
v 1303.272 184.5866 160.6466
v 1303.272 182.6523 163.2538
v 1294.8037 184.5866 231.2209
v 1294.8037 184.5866 161.618
v 1296.9998 182.6523 164.1391
v 1296.9998 182.6523 228.6997
v 1290.437 213.2486 154.5903
v 1288.4695 215.4302 152.1618
v 1303.272 215.4302 152.1618
v 1303.272 213.2486 154.5903
v 1287.6562 215.4302 239.7117
v 1287.6562 215.4302 153.1272
v 1290.5149 217.6117 154.5903
v 1303.272 217.6117 154.5903
v 1289.7017 217.6116 237.2837
v 1289.7017 217.6117 155.5553
v 1293.7395 201.9843 158.5361
v 1290.4019 208.8856 154.5903
v 1303.272 208.8856 154.5903
v 1303.272 201.9843 158.5361
v 1293.0256 201.9843 159.3835
v 1293.0256 201.9843 233.4554
v 1297.1624 186.521 230.2609
v 1296.3403 192.9854 231.1826
v 1295.6218 184.5866 232.192
v 1297.7454 182.6523 229.5852
v 1288.4695 215.4302 240.6772
v 1290.5149 217.6116 238.2489
v 1293.7395 201.9843 234.3028
v 1303.272 217.6116 238.2489
v 1303.272 192.9854 231.1826
v 1303.272 186.521 230.2609
v 1303.272 184.5866 232.1922
v 1303.272 182.6523 229.5854
v 1303.272 215.4302 240.6772
v 1303.272 201.9843 234.3028
gi 0 0 0 0
gi 0 0 0 0
gi 0 0 0 0
gi 0 0 0 0
gi 0 0 0 0
gi 0 0 0 0
gi 0 0 0 0
gi 0 0 0 0
gi 0 0 0 0
gi 0 0 0 0
gi 0 0 0 0
gi 0 0 0 0
gi 0 0 0 0
gi 0 0 0 0
gi 0 0 0 0
gi 0 0 0 0
gi 0 0 0 0
gi 0 0 0 0
gi 0 0 0 0
gi 0 0 0 0
gi 0 0 0 0
gi 0 0 0 0
gi 0 0 0 0
gi 0 0 0 0
gi 0 0 0 0
gi 0 0 0 0
gi 0 0 0 0
gi 0 0 0 0
gi 0 0 0 0
gi 0 0 0 0
gi 0 0 0 0
gi 0 0 0 0
gi 0 0 0 0
gi 0 0 0 0
gi 0 0 0 0
gi 0 0 0 0
gi 0 0 0 0
gi 0 0 0 0
gi 0 0 0 0
gi 0 0 0 0
gi 0 0 0 0
gi 0 0 0 0
gi 0 0 0 0
gi 0 0 0 0
gi 0 0 0 0
gi 0 0 0 0
gi 0 0 0 0
gi 0 0 0 0
gi 0 0 0 0
gi 0 0 0 0
gi 0 0 0 0
gi 0 0 0 0
gi 0 0 0 0
gi 0 0 0 0
gw 0.0 0.0 0.0 0.0
gw 0.0 0.0 0.0 0.0
gw 0.0 0.0 0.0 0.0
gw 0.0 0.0 0.0 0.0
gw 0.0 0.0 0.0 0.0
gw 0.0 0.0 0.0 0.0
gw 0.0 0.0 0.0 0.0
gw 0.0 0.0 0.0 0.0
gw 0.0 0.0 0.0 0.0
gw 0.0 0.0 0.0 0.0
gw 0.0 0.0 0.0 0.0
gw 0.0 0.0 0.0 0.0
gw 0.0 0.0 0.0 0.0
gw 0.0 0.0 0.0 0.0
gw 0.0 0.0 0.0 0.0
gw 0.0 0.0 0.0 0.0
gw 0.0 0.0 0.0 0.0
gw 0.0 0.0 0.0 0.0
gw 0.0 0.0 0.0 0.0
gw 0.0 0.0 0.0 0.0
gw 0.0 0.0 0.0 0.0
gw 0.0 0.0 0.0 0.0
gw 0.0 0.0 0.0 0.0
gw 0.0 0.0 0.0 0.0
gw 0.0 0.0 0.0 0.0
gw 0.0 0.0 0.0 0.0
gw 0.0 0.0 0.0 0.0
gw 0.0 0.0 0.0 0.0
gw 0.0 0.0 0.0 0.0
gw 0.0 0.0 0.0 0.0
gw 0.0 0.0 0.0 0.0
gw 0.0 0.0 0.0 0.0
gw 0.0 0.0 0.0 0.0
gw 0.0 0.0 0.0 0.0
gw 0.0 0.0 0.0 0.0
gw 0.0 0.0 0.0 0.0
gw 0.0 0.0 0.0 0.0
gw 0.0 0.0 0.0 0.0
gw 0.0 0.0 0.0 0.0
gw 0.0 0.0 0.0 0.0
gw 0.0 0.0 0.0 0.0
gw 0.0 0.0 0.0 0.0
gw 0.0 0.0 0.0 0.0
gw 0.0 0.0 0.0 0.0
gw 0.0 0.0 0.0 0.0
gw 0.0 0.0 0.0 0.0
gw 0.0 0.0 0.0 0.0
gw 0.0 0.0 0.0 0.0
gw 0.0 0.0 0.0 0.0
gw 0.0 0.0 0.0 0.0
gw 0.0 0.0 0.0 0.0
gw 0.0 0.0 0.0 0.0
gw 0.0 0.0 0.0 0.0
gw 0.0 0.0 0.0 0.0
vt 0.2773 0.6742
vt 0.2773 0.6911
vt 0.4476 0.6911
vt 0.4476 0.6742
vt 0.4453 0.6933
vt 0.2795 0.6933
vt 0.5504 0.8881
vt 0.5526 0.9084
vt 0.5337 0.9084
vt 0.5337 0.8881
vt 0.7614 0.91
vt 0.6053 0.91
vt 0.6076 0.8897
vt 0.7592 0.8897
vt 0.7776 0.96
vt 0.7775 0.9737
vt 0.5892 0.9737
vt 0.5891 0.96
vt 0.8287 0.9596
vt 0.8287 0.9733
vt 0.7937 0.9733
vt 0.7936 0.9596
vt 0.9865 0.7672
vt 0.9959 0.7791
vt 0.9632 0.7791
vt 0.9619 0.7672
vt 0.2524 0.779
vt 0.0111 0.779
vt 0.0112 0.7672
vt 0.2525 0.7672
vt 0.5337 0.882
vt 0.5546 0.882
vt 0.6034 0.8836
vt 0.7634 0.8836
vt 0.5687 0.9721
vt 0.5741 0.979
vt 0.5337 0.979
vt 0.5337 0.9721
vt 0.7829 0.9806
vt 0.5839 0.9806
vt 0.5685 0.9859
vt 0.5337 0.9859
vt 0.7773 0.9875
vt 0.5894 0.9875
vt 0.5597 0.9367
vt 0.5688 0.9584
vt 0.5337 0.9584
vt 0.5337 0.9367
vt 0.5982 0.9383
vt 0.7685 0.9383
vt 0.605 0.8907
vt 0.6028 0.9094
vt 0.8121 0.8892
vt 0.8098 0.9096
vt 0.8073 0.909
vt 0.8095 0.8902
vt 0.5867 0.9726
vt 0.5865 0.9593
vt 0.7912 0.9721
vt 0.791 0.9589
vt 0.6007 0.8862
vt 0.8052 0.8857
vt 0.8079 0.8832
vt 0.0078 0.7789
vt 0.0079 0.7672
vt 0.2558 0.7672
vt 0.2559 0.779
vt 0.5815 0.9806
vt 0.7884 0.9801
vt 0.786 0.9801
vt 0.5871 0.99
vt 0.7939 0.987
vt 0.7916 0.9896
vt 0.5957 0.9372
vt 0.8027 0.9379
vt 0.8002 0.9367
vt 0.0091 0.8976
vt 0.0091 0.876
vt 0.0109 0.8746
vt 0.1674 0.876
vt 0.1655 0.8746
vt 0.1674 0.8976
vt 0.8287 0.9096
vt 0.8287 0.8892
vt 0.2874 0.779
vt 0.2803 0.7672
vt 0.8287 0.8832
vt 0.8287 0.9801
vt 0.8287 0.987
vt 0.8287 0.9379
vn 0.0 -1.0 0.0
vn -0.3527 0.3982 -0.8468
vn -0.3926 -0.2994 -0.8696
vn 0.0 -0.2354 -0.9719
vn 0.0 0.316 -0.9488
vn -0.9105 -0.267 0.3158
vn -0.9104 -0.267 -0.316
vn -0.8967 0.3533 -0.2666
vn -0.8967 0.3534 0.2666
vn -0.8951 -0.273 0.3526
vn -0.8513 -0.4551 0.261
vn -0.8513 -0.4551 -0.261
vn -0.895 -0.273 -0.3527
vn 0.0 -0.2568 0.9665
vn 0.0 -0.4072 0.9133
vn -0.3354 -0.5075 0.7937
vn -0.4175 -0.2861 0.8625
vn -0.1148 -0.9416 -0.3164
vn -0.4574 -0.0594 -0.8873
vn 0.0 -0.0739 -0.9973
vn -0.0 -0.9495 -0.3139
vn -0.911 -0.0637 0.4075
vn -0.911 -0.0637 -0.4075
vn -0.3563 -0.9309 -0.0807
vn -0.3563 -0.9309 0.0808
vn -0.3353 -0.5075 -0.7937
vn -0.46 0.0025 -0.8879
vn 0.0 0.0 -1.0
vn 0.0 -0.4073 -0.9133
vn -0.9121 0.0031 0.41
vn -0.9121 0.0031 -0.41
vn -0.1314 0.9234 -0.3607
vn 0.0 0.9338 -0.3578
vn -0.4011 0.9113 0.0932
vn -0.4011 0.9113 -0.0932
vn -0.3492 -0.5056 -0.7889
vn -0.4174 -0.2861 -0.8625
vn 0.0 -0.2568 -0.9665
vn 0.0 -0.4138 -0.9104
vn -0.8417 -0.4587 -0.285
vn -0.8417 -0.4587 0.285
vn -0.3527 0.3982 0.8468
vn -0.3928 -0.2994 0.8695
vn -0.4574 -0.0594 0.8873
vn -0.1149 -0.9416 0.3165
vn -0.46 0.0024 0.8879
vn -0.1314 0.9234 0.3607
vn -0.3492 -0.5056 0.7889
vn 0.0 0.9338 0.3578
vn 0.0 -0.2355 0.9719
vn 0.0 0.316 0.9488
vn -0.0 -0.0739 0.9973
vn -0.0 -0.9494 0.3139
vn 0.0 0.0 1.0
vn 0.0 -0.4138 0.9104
vtan 0.0 0.0 -1.0
vtan -0.9357 -0.1501 0.3192
vtan -0.9197 0.1278 0.3713
vtan -1.0 0.0 0.0
vtan 0.3031 0.0889 0.9488
vtan -0.3054 -0.0814 0.9487
vtan -0.2398 0.1184 0.9636
vtan 0.248 -0.0977 0.9638
vtan 0.3373 0.1029 0.9358
vtan 0.2302 0.123 0.9653
vtan -0.2257 -0.1314 0.9653
vtan -0.3317 -0.1211 0.9356
vtan 1.0 0.0 0.0
vtan 0.9407 -0.1345 0.3115
vtan 0.9087 -0.1228 0.3991
vtan -0.9934 0.1089 0.0366
vtan -0.8893 0.0306 0.4564
vtan -1.0 0.0 0.0
vtan 0.4086 -0.0038 0.9127
vtan -0.408 -0.0043 0.913
vtan -0.2602 0.0158 0.9654
vtan 0.2602 -0.0158 0.9654
vtan -0.4084 0.2775 0.8696
vtan 0.4065 0.0284 0.9132
vtan -0.9421 0.1806 0.2825
vtan -0.8879 -0.0013 0.46
vtan 0.41 -0.0014 0.9121
vtan -0.4099 0.0144 0.912
vtan -0.9913 -0.1224 0.0478
vtan -1.0 0.0 -0.0
vtan 0.0375 -0.0853 0.9956
vtan 0.0093 0.1058 0.9943
vtan -0.937 0.1884 0.294
vtan -0.9087 0.1314 0.3962
vtan -0.2449 -0.146 0.9585
vtan 0.2502 0.1364 0.9585
vtan -0.6808 0.5117 0.5242
vtan -0.8111 -0.333 0.4809
vtan 0.9354 0.1727 0.3085
vtan 0.9192 -0.0985 0.3813
vtan 0.3843 -0.2637 0.8848
vtan 0.4243 0.5148 0.7449
vtan -0.6636 -0.4708 0.5814
vtan -0.7995 -0.3355 0.4982
vtan 0.4826 -0.4843 0.7298
vtan 0.4293 -0.3134 0.847
vtan -0.611 0.7459 0.265
vtan 0.2829 0.6226 0.7296
vtan 0.8449 0.2823 0.4544
vtan -0.887 -0.0404 0.46
vtan -0.6696 -0.1619 0.7249
vtan 0.9274 0.0126 0.3739
vtan 0.8888 0.0028 0.4583
vtan -0.8879 0.001 0.46
vtan 0.8879 -0.0001 0.46
vtan 0.4098 0.0329 0.9116
vtan -0.1603 0.3393 0.9269
vtan 0.9883 0.0934 0.1209
vtan 0.9048 0.3782 0.1956
vtan -0.6357 -0.4907 0.5959
vtan 0.9368 -0.1684 0.3067
vtan 0.5065 -0.4876 0.7111
vtan 0.0005 0.3578 0.9338
vtan -0.036 0.3592 0.9326
vtan -0.0338 0.087 0.9956
vtan 0.0508 -0.3571 0.9327
vtan 0.0 -0.3578 0.9338
vtan 1.0 0.0 0.0
vtan 1.0 -0.0 0.0
vtan 1.0 -0.0 0.0
f 51/0/0/0 43/1/0/0 16/2/0/0 
f 51/0/0/0 16/2/0/0 19/3/0/0 
f 22/4/0/0 16/2/0/0 43/1/0/0 
f 22/4/0/0 43/1/0/0 23/5/0/0 
f 0/6/1/1 1/7/2/2 2/8/3/3 
f 0/6/1/1 2/8/3/3 3/9/4/3 
f 4/10/5/4 5/11/6/5 6/12/7/6 
f 4/10/5/4 6/12/7/6 7/13/8/7 
f 8/14/9/8 9/15/10/9 10/16/11/10 
f 8/14/9/8 10/16/11/10 11/17/12/11 
f 12/18/13/12 13/19/14/12 14/20/15/13 
f 12/18/13/12 14/20/15/13 15/21/16/14 
f 16/22/17/15 17/23/18/16 18/24/19/3 
f 16/22/17/15 18/24/19/3 19/25/20/17 
f 20/26/21/18 21/27/22/19 22/28/23/20 
f 20/26/21/18 22/28/23/20 23/29/24/21 
f 0/6/1/1 3/9/4/3 18/30/19/3 
f 0/6/1/1 18/30/19/3 17/31/18/16 
f 7/13/8/7 6/12/7/6 21/32/22/22 
f 7/13/8/7 21/32/22/22 20/33/21/23 
f 24/34/25/24 25/35/26/25 26/36/27/3 
f 24/34/25/24 26/36/27/3 27/37/28/3 
f 28/38/29/26 29/39/30/27 10/16/11/10 
f 28/38/29/26 10/16/11/10 9/15/10/9 
f 30/40/31/28 31/41/32/29 26/36/27/3 
f 30/40/31/28 26/36/27/3 25/35/26/25 
f 32/42/33/30 33/43/34/31 29/39/30/27 
f 32/42/33/30 29/39/30/27 28/38/29/26 
f 34/44/35/32 35/45/36/33 36/46/37/3 
f 34/44/35/32 36/46/37/3 37/47/38/3 
f 8/14/9/8 11/17/12/11 38/48/39/34 
f 8/14/9/8 38/48/39/34 39/49/40/35 
f 1/7/2/2 34/44/35/32 37/47/38/3 
f 1/7/2/2 37/47/38/3 2/8/3/3 
f 39/49/40/35 38/48/39/34 5/11/6/5 
f 39/49/40/35 5/11/6/5 4/10/5/4 
f 0/50/1/36 6/12/7/6 5/11/6/5 
f 0/50/1/36 5/11/6/5 1/51/2/37 
f 40/52/41/38 41/53/42/39 4/54/5/40 
f 40/52/41/38 4/54/5/40 7/55/8/41 
f 11/17/12/11 10/16/11/10 24/56/25/42 
f 11/17/12/11 24/56/25/42 35/57/36/43 
f 15/21/16/14 14/20/15/13 9/58/10/44 
f 15/21/16/14 9/58/10/44 8/59/9/45 
f 0/50/1/36 17/60/18/46 21/32/22/22 
f 0/50/1/36 21/32/22/22 6/12/7/6 
f 40/52/41/38 7/55/8/41 20/61/21/47 
f 40/52/41/38 20/61/21/47 42/62/43/48 
f 21/27/22/19 17/63/18/49 16/64/17/50 
f 21/27/22/19 16/64/17/50 22/28/23/20 
f 20/26/21/18 23/29/24/21 43/65/44/51 
f 20/26/21/18 43/65/44/51 42/66/43/52 
f 24/56/25/42 10/16/11/10 29/39/30/27 
f 24/56/25/42 29/39/30/27 25/67/26/53 
f 14/20/15/13 44/68/45/54 28/69/29/55 
f 14/20/15/13 28/69/29/55 9/58/10/44 
f 29/39/30/27 33/43/34/31 30/70/31/56 
f 29/39/30/27 30/70/31/56 25/67/26/53 
f 28/69/29/55 44/68/45/54 45/71/46/57 
f 28/69/29/55 45/71/46/57 32/72/33/58 
f 34/73/35/59 38/48/39/34 11/17/12/11 
f 34/73/35/59 11/17/12/11 35/57/36/43 
f 46/74/47/60 15/21/16/14 8/59/9/45 
f 46/74/47/60 8/59/9/45 39/75/40/61 
f 1/51/2/37 5/11/6/5 38/48/39/34 
f 1/51/2/37 38/48/39/34 34/73/35/59 
f 41/53/42/39 46/74/47/60 39/75/40/61 
f 41/53/42/39 39/75/40/61 4/54/5/40 
f 31/76/32/62 30/77/31/63 33/78/34/64 
f 31/76/32/62 33/78/34/64 45/79/46/65 
f 33/78/34/64 32/80/33/30 45/79/46/65 
f 47/81/48/66 31/76/32/62 45/79/46/65 
f 48/82/49/12 41/53/42/39 40/52/41/38 
f 48/82/49/12 40/52/41/38 49/83/50/12 
f 36/46/37/3 35/45/36/33 24/34/25/24 
f 36/46/37/3 24/34/25/24 27/37/28/3 
f 50/84/51/67 42/66/43/52 43/65/44/51 
f 50/84/51/67 43/65/44/51 51/85/52/68 
f 50/86/51/69 49/83/50/12 40/52/41/38 
f 50/86/51/69 40/52/41/38 42/62/43/48 
f 52/87/53/12 44/68/45/54 14/20/15/13 
f 52/87/53/12 14/20/15/13 13/19/14/12 
f 52/87/53/12 47/88/48/12 45/71/46/57 
f 52/87/53/12 45/71/46/57 44/68/45/54 
f 12/18/13/12 15/21/16/14 46/74/47/60 
f 12/18/13/12 46/74/47/60 53/89/54/12 
f 53/89/54/12 46/74/47/60 41/53/42/39 
f 53/89/54/12 41/53/42/39 48/82/49/12 
