v -833.3086 687.1912 234.4267
v -833.7307 687.1912 234.2518
v -834.1932 687.1912 233.7893
v -834.368 687.1913 176.4923
v -834.368 687.1912 232.6107
v -834.368 687.1913 177.664
v -834.368 687.1912 233.3672
v -834.1932 687.1913 176.0703
v -833.7307 687.1913 175.6077
v -776.3282 687.1913 175.4329
v -831.9907 687.1913 175.4329
v -777.301 687.1913 175.4329
v -833.3086 687.1913 175.4329
v -775.9061 687.1913 175.6077
v -775.4436 687.1913 176.0702
v -775.2688 687.1912 233.3672
v -775.2688 687.1913 177.644
v -775.2688 687.1912 231.995
v -775.2688 687.1913 176.4923
v -775.4436 687.1912 233.7893
v -775.9061 687.1912 234.2518
v -777.6094 687.1912 234.4267
v -832.8588 687.1912 234.4267
v -776.3282 687.1912 234.4267
v -775.2688 695.6662 176.4923
v -775.4436 695.6662 176.0702
v -775.9061 695.6662 175.6077
v -833.3086 695.6662 175.4329
v -777.301 695.6662 175.4329
v -831.9907 695.6662 175.4329
v -776.3282 695.6662 175.4329
v -833.7307 695.6662 175.6077
v -834.1932 695.6662 176.0703
v -834.368 695.6661 233.3672
v -834.368 695.6662 177.664
v -834.368 695.6661 232.6107
v -834.368 695.6662 176.4923
v -834.1932 695.6661 233.7893
v -833.7307 695.6661 234.2518
v -776.3282 695.6661 234.4267
v -832.8588 695.6661 234.4267
v -777.6094 695.6661 234.4267
v -833.3086 695.6661 234.4267
v -775.9061 695.6661 234.2518
v -775.4436 695.6661 233.7893
v -775.2688 695.6661 231.995
v -775.2688 695.6662 177.644
v -775.2688 695.6661 233.3672
v -776.2593 687.538 234.7734
v -776.2593 693.395 234.7734
v -777.5435 691.431 234.7734
v -777.5435 689.4669 234.7734
v -834.7148 687.538 233.4362
v -834.7148 693.395 233.4362
v -834.7148 691.431 232.6779
v -834.7148 689.4669 232.6779
v -833.9271 687.538 234.5458
v -833.9271 695.3193 234.5458
v -834.4872 695.3193 233.9858
v -834.4872 687.538 233.9858
v -775.7097 687.538 234.5458
v -775.1497 687.538 233.9858
v -775.1497 695.3193 233.9858
v -775.7097 695.3193 234.5458
v -834.4872 687.5381 175.8738
v -834.4872 695.3194 175.8738
v -833.9271 695.3194 175.3137
v -833.9271 687.5381 175.3137
v -833.3776 693.395 234.7735
v -833.3776 695.3193 234.7735
v -833.3776 687.538 234.7735
v -776.2593 695.3193 234.7734
v -834.7148 687.5381 176.4233
v -834.7148 693.395 176.4233
v -834.7148 695.3193 233.4362
v -774.922 687.538 233.4362
v -774.922 693.395 233.4362
v -774.922 695.3193 233.4362
v -833.3776 693.395 175.0861
v -833.3776 687.5381 175.0861
v -834.7148 687.5381 177.5978
v -832.9266 687.538 234.7735
v -777.5435 695.3193 234.7734
v -834.7148 695.3193 232.6779
v -833.3776 695.3194 175.0861
v -834.7148 695.3194 176.4233
v -832.0565 691.431 175.0861
v -832.0565 689.467 175.0861
v -774.922 687.5381 176.4233
v -774.922 693.395 176.4233
v -774.922 691.431 177.5778
v -774.922 689.467 177.5778
v -775.7097 687.5381 175.3137
v -775.7097 695.3194 175.3137
v -775.1497 695.3194 175.8738
v -775.1497 687.5381 175.8738
v -776.2593 693.395 175.0861
v -776.2593 695.3194 175.0861
v -776.2593 687.5381 175.0861
v -774.922 695.3194 176.4233
v -774.922 687.538 232.0606
v -777.2345 687.5381 175.0861
v -832.0565 695.3194 175.0861
v -774.922 695.3194 177.5778
v -832.9266 693.395 234.7735
v -834.7148 693.395 177.5978
v -834.7148 695.3194 177.5978
v -777.2345 693.395 175.0861
v -774.922 693.395 232.0606
v -777.5435 687.538 234.7734
v -778.0256 689.4669 234.7734
v -832.9266 695.3193 234.7735
v -777.5435 693.395 234.7734
v -832.2531 693.395 234.7735
v -832.9266 691.431 234.7735
v -832.2531 691.431 232.0613
v -832.9266 689.4669 234.7735
v -834.7148 689.467 177.5978
v -834.7148 687.538 232.6779
v -834.7148 693.395 178.1215
v -834.7148 691.431 177.5978
v -832.7659 691.431 178.1215
v -834.7148 689.4669 231.9524
v -834.7148 693.395 232.6779
v -777.2345 689.467 175.0861
v -832.0565 687.5381 175.0861
v -777.2345 695.3194 175.0861
v -777.8043 693.395 175.0861
v -777.2345 691.431 175.0861
v -777.8043 691.431 177.069
v -831.4276 689.467 175.0861
v -832.0565 693.395 175.0861
v -774.922 689.4669 232.0606
v -774.922 687.5381 177.5778
v -774.922 695.3193 232.0606
v -774.922 693.395 231.4059
v -774.922 691.431 232.0606
v -777.3737 691.431 231.4059
v -774.922 689.467 178.0819
v -774.922 693.395 177.5778
v -778.0256 691.431 232.0613
v -832.7659 691.431 231.9524
v -831.4276 691.431 177.069
v -777.3737 691.431 178.0819
v -774.922 693.395 178.0819
v -774.922 689.4669 231.4059
v -831.4276 693.395 175.0861
v -777.8043 689.467 175.0861
v -834.7148 693.395 231.9524
v -834.7148 689.467 178.1215
v -778.0256 693.395 234.7734
v -832.2531 689.4669 234.7735
gi 0 0 0 0
gw 0.0 0.0 0.0 0.0
gi 0 0 0 0
gw 0.0 0.0 0.0 0.0
gi 0 0 0 0
gw 0.0 0.0 0.0 0.0
gi 0 0 0 0
gw 0.0 0.0 0.0 0.0
gi 0 0 0 0
gw 0.0 0.0 0.0 0.0
gi 0 0 0 0
gw 0.0 0.0 0.0 0.0
gi 0 0 0 0
gw 0.0 0.0 0.0 0.0
gi 0 0 0 0
gw 0.0 0.0 0.0 0.0
gi 0 0 0 0
gw 0.0 0.0 0.0 0.0
gi 0 0 0 0
gw 0.0 0.0 0.0 0.0
gi 0 0 0 0
gw 0.0 0.0 0.0 0.0
gi 0 0 0 0
gw 0.0 0.0 0.0 0.0
gi 0 0 0 0
gw 0.0 0.0 0.0 0.0
gi 0 0 0 0
gw 0.0 0.0 0.0 0.0
gi 0 0 0 0
gw 0.0 0.0 0.0 0.0
gi 0 0 0 0
gw 0.0 0.0 0.0 0.0
gi 0 0 0 0
gw 0.0 0.0 0.0 0.0
gi 0 0 0 0
gw 0.0 0.0 0.0 0.0
gi 0 0 0 0
gw 0.0 0.0 0.0 0.0
gi 0 0 0 0
gw 0.0 0.0 0.0 0.0
gi 0 0 0 0
gw 0.0 0.0 0.0 0.0
gi 0 0 0 0
gw 0.0 0.0 0.0 0.0
gi 0 0 0 0
gw 0.0 0.0 0.0 0.0
gi 0 0 0 0
gw 0.0 0.0 0.0 0.0
gi 0 0 0 0
gw 0.0 0.0 0.0 0.0
gi 0 0 0 0
gw 0.0 0.0 0.0 0.0
gi 0 0 0 0
gw 0.0 0.0 0.0 0.0
gi 0 0 0 0
gw 0.0 0.0 0.0 0.0
gi 0 0 0 0
gw 0.0 0.0 0.0 0.0
gi 0 0 0 0
gw 0.0 0.0 0.0 0.0
gi 0 0 0 0
gw 0.0 0.0 0.0 0.0
gi 0 0 0 0
gw 0.0 0.0 0.0 0.0
gi 0 0 0 0
gw 0.0 0.0 0.0 0.0
gi 0 0 0 0
gw 0.0 0.0 0.0 0.0
gi 0 0 0 0
gw 0.0 0.0 0.0 0.0
gi 0 0 0 0
gw 0.0 0.0 0.0 0.0
gi 0 0 0 0
gw 0.0 0.0 0.0 0.0
gi 0 0 0 0
gw 0.0 0.0 0.0 0.0
gi 0 0 0 0
gw 0.0 0.0 0.0 0.0
gi 0 0 0 0
gw 0.0 0.0 0.0 0.0
gi 0 0 0 0
gw 0.0 0.0 0.0 0.0
gi 0 0 0 0
gw 0.0 0.0 0.0 0.0
gi 0 0 0 0
gw 0.0 0.0 0.0 0.0
gi 0 0 0 0
gw 0.0 0.0 0.0 0.0
gi 0 0 0 0
gw 0.0 0.0 0.0 0.0
gi 0 0 0 0
gw 0.0 0.0 0.0 0.0
gi 0 0 0 0
gw 0.0 0.0 0.0 0.0
gi 0 0 0 0
gw 0.0 0.0 0.0 0.0
gi 0 0 0 0
gw 0.0 0.0 0.0 0.0
gi 0 0 0 0
gw 0.0 0.0 0.0 0.0
gi 0 0 0 0
gw 0.0 0.0 0.0 0.0
gi 0 0 0 0
gw 0.0 0.0 0.0 0.0
gi 0 0 0 0
gw 0.0 0.0 0.0 0.0
gi 0 0 0 0
gw 0.0 0.0 0.0 0.0
gi 0 0 0 0
gw 0.0 0.0 0.0 0.0
gi 0 0 0 0
gw 0.0 0.0 0.0 0.0
gi 0 0 0 0
gw 0.0 0.0 0.0 0.0
gi 0 0 0 0
gw 0.0 0.0 0.0 0.0
gi 0 0 0 0
gw 0.0 0.0 0.0 0.0
gi 0 0 0 0
gw 0.0 0.0 0.0 0.0
gi 0 0 0 0
gw 0.0 0.0 0.0 0.0
gi 0 0 0 0
gw 0.0 0.0 0.0 0.0
gi 0 0 0 0
gw 0.0 0.0 0.0 0.0
gi 0 0 0 0
gw 0.0 0.0 0.0 0.0
gi 0 0 0 0
gw 0.0 0.0 0.0 0.0
gi 0 0 0 0
gw 0.0 0.0 0.0 0.0
gi 0 0 0 0
gw 0.0 0.0 0.0 0.0
gi 0 0 0 0
gw 0.0 0.0 0.0 0.0
gi 0 0 0 0
gw 0.0 0.0 0.0 0.0
gi 0 0 0 0
gw 0.0 0.0 0.0 0.0
gi 0 0 0 0
gw 0.0 0.0 0.0 0.0
gi 0 0 0 0
gw 0.0 0.0 0.0 0.0
gi 0 0 0 0
gw 0.0 0.0 0.0 0.0
gi 0 0 0 0
gw 0.0 0.0 0.0 0.0
gi 0 0 0 0
gw 0.0 0.0 0.0 0.0
gi 0 0 0 0
gw 0.0 0.0 0.0 0.0
gi 0 0 0 0
gw 0.0 0.0 0.0 0.0
gi 0 0 0 0
gw 0.0 0.0 0.0 0.0
gi 0 0 0 0
gw 0.0 0.0 0.0 0.0
gi 0 0 0 0
gw 0.0 0.0 0.0 0.0
gi 0 0 0 0
gw 0.0 0.0 0.0 0.0
gi 0 0 0 0
gw 0.0 0.0 0.0 0.0
gi 0 0 0 0
gw 0.0 0.0 0.0 0.0
gi 0 0 0 0
gw 0.0 0.0 0.0 0.0
gi 0 0 0 0
gw 0.0 0.0 0.0 0.0
gi 0 0 0 0
gw 0.0 0.0 0.0 0.0
gi 0 0 0 0
gw 0.0 0.0 0.0 0.0
gi 0 0 0 0
gw 0.0 0.0 0.0 0.0
gi 0 0 0 0
gw 0.0 0.0 0.0 0.0
gi 0 0 0 0
gw 0.0 0.0 0.0 0.0
gi 0 0 0 0
gw 0.0 0.0 0.0 0.0
gi 0 0 0 0
gw 0.0 0.0 0.0 0.0
gi 0 0 0 0
gw 0.0 0.0 0.0 0.0
gi 0 0 0 0
gw 0.0 0.0 0.0 0.0
gi 0 0 0 0
gw 0.0 0.0 0.0 0.0
gi 0 0 0 0
gw 0.0 0.0 0.0 0.0
gi 0 0 0 0
gw 0.0 0.0 0.0 0.0
gi 0 0 0 0
gw 0.0 0.0 0.0 0.0
gi 0 0 0 0
gw 0.0 0.0 0.0 0.0
gi 0 0 0 0
gw 0.0 0.0 0.0 0.0
gi 0 0 0 0
gw 0.0 0.0 0.0 0.0
gi 0 0 0 0
gw 0.0 0.0 0.0 0.0
gi 0 0 0 0
gw 0.0 0.0 0.0 0.0
gi 0 0 0 0
gw 0.0 0.0 0.0 0.0
gi 0 0 0 0
gw 0.0 0.0 0.0 0.0
gi 0 0 0 0
gw 0.0 0.0 0.0 0.0
gi 0 0 0 0
gw 0.0 0.0 0.0 0.0
gi 0 0 0 0
gw 0.0 0.0 0.0 0.0
gi 0 0 0 0
gw 0.0 0.0 0.0 0.0
gi 0 0 0 0
gw 0.0 0.0 0.0 0.0
gi 0 0 0 0
gw 0.0 0.0 0.0 0.0
gi 0 0 0 0
gw 0.0 0.0 0.0 0.0
gi 0 0 0 0
gw 0.0 0.0 0.0 0.0
gi 0 0 0 0
gw 0.0 0.0 0.0 0.0
gi 0 0 0 0
gw 0.0 0.0 0.0 0.0
gi 0 0 0 0
gw 0.0 0.0 0.0 0.0
gi 0 0 0 0
gw 0.0 0.0 0.0 0.0
gi 0 0 0 0
gw 0.0 0.0 0.0 0.0
gi 0 0 0 0
gw 0.0 0.0 0.0 0.0
gi 0 0 0 0
gw 0.0 0.0 0.0 0.0
gi 0 0 0 0
gw 0.0 0.0 0.0 0.0
gi 0 0 0 0
gw 0.0 0.0 0.0 0.0
gi 0 0 0 0
gw 0.0 0.0 0.0 0.0
gi 0 0 0 0
gw 0.0 0.0 0.0 0.0
gi 0 0 0 0
gw 0.0 0.0 0.0 0.0
gi 0 0 0 0
gw 0.0 0.0 0.0 0.0
gi 0 0 0 0
gw 0.0 0.0 0.0 0.0
gi 0 0 0 0
gw 0.0 0.0 0.0 0.0
gi 0 0 0 0
gw 0.0 0.0 0.0 0.0
gi 0 0 0 0
gw 0.0 0.0 0.0 0.0
gi 0 0 0 0
gw 0.0 0.0 0.0 0.0
gi 0 0 0 0
gw 0.0 0.0 0.0 0.0
gi 0 0 0 0
gw 0.0 0.0 0.0 0.0
gi 0 0 0 0
gw 0.0 0.0 0.0 0.0
gi 0 0 0 0
gw 0.0 0.0 0.0 0.0
gi 0 0 0 0
gw 0.0 0.0 0.0 0.0
gi 0 0 0 0
gw 0.0 0.0 0.0 0.0
gi 0 0 0 0
gw 0.0 0.0 0.0 0.0
gi 0 0 0 0
gw 0.0 0.0 0.0 0.0
gi 0 0 0 0
gw 0.0 0.0 0.0 0.0
gi 0 0 0 0
gw 0.0 0.0 0.0 0.0
gi 0 0 0 0
gw 0.0 0.0 0.0 0.0
gi 0 0 0 0
gw 0.0 0.0 0.0 0.0
gi 0 0 0 0
gw 0.0 0.0 0.0 0.0
gi 0 0 0 0
gw 0.0 0.0 0.0 0.0
gi 0 0 0 0
gw 0.0 0.0 0.0 0.0
gi 0 0 0 0
gw 0.0 0.0 0.0 0.0
gi 0 0 0 0
gw 0.0 0.0 0.0 0.0
gi 0 0 0 0
gw 0.0 0.0 0.0 0.0
gi 0 0 0 0
gw 0.0 0.0 0.0 0.0
gi 0 0 0 0
gw 0.0 0.0 0.0 0.0
gi 0 0 0 0
gw 0.0 0.0 0.0 0.0
vt 0.6734 0.6622
vt 0.6713 0.6631
vt 0.6687 0.6656
vt 0.6678 0.9769
vt 0.6678 0.672
vt 0.6678 0.9705
vt 0.6678 0.6679
vt 0.6687 0.9792
vt 0.6713 0.9817
vt 0.9831 0.9826
vt 0.6807 0.9826
vt 0.9778 0.9826
vt 0.6736 0.9826
vt 0.9853 0.9817
vt 0.9879 0.9792
vt 0.9888 0.6679
vt 0.9888 0.9706
vt 0.9888 0.6754
vt 0.9888 0.9769
vt 0.9853 0.6631
vt 0.9879 0.6656
vt 0.6758 0.6622
vt 0.9761 0.6621
vt 0.9831 0.6621
vt 0.5631 0.6536
vt 0.5626 0.6526
vt 0.5616 0.6515
vt 0.4276 0.6511
vt 0.5583 0.6511
vt 0.4307 0.6511
vt 0.5606 0.6511
vt 0.4266 0.6515
vt 0.4256 0.6526
vt 0.4252 0.7863
vt 0.4252 0.6563
vt 0.4252 0.7845
vt 0.4252 0.6536
vt 0.4256 0.7873
vt 0.4266 0.7884
vt 0.5606 0.7888
vt 0.4286 0.7888
vt 0.5577 0.7888
vt 0.4276 0.7888
vt 0.5616 0.7884
vt 0.5626 0.7873
vt 0.5631 0.7831
vt 0.5631 0.6563
vt 0.5631 0.7863
vt 0.0143 0.6233
vt 0.045 0.6233
vt 0.0347 0.6166
vt 0.0244 0.6166
vt 0.0143 0.3152
vt 0.045 0.3152
vt 0.0347 0.3112
vt 0.0244 0.3112
vt 0.0143 0.321
vt 0.0551 0.321
vt 0.0551 0.3181
vt 0.0143 0.3181
vt 0.0143 0.6262
vt 0.0143 0.6291
vt 0.0551 0.6291
vt 0.0551 0.6262
vt 0.0143 0.0134
vt 0.0551 0.0134
vt 0.0551 0.0105
vt 0.0143 0.0105
vt 0.045 0.3239
vt 0.0551 0.3239
vt 0.0143 0.3239
vt 0.0551 0.6233
vt 0.0143 0.0163
vt 0.045 0.0163
vt 0.0551 0.3152
vt 0.0143 0.632
vt 0.045 0.632
vt 0.0551 0.632
vt 0.045 0.0076
vt 0.0143 0.0076
vt 0.0124 0.0165
vt 0.0124 0.0226
vt 0.0143 0.0224
vt 0.0125 0.3241
vt 0.0125 0.3264
vt 0.0143 0.3262
vt 0.0569 0.6231
vt 0.0569 0.6164
vt 0.0551 0.6166
vt 0.057 0.3151
vt 0.057 0.3112
vt 0.0551 0.3112
vt 0.0125 0.6262
vt 0.0125 0.6292
vt 0.0126 0.318
vt 0.0126 0.321
vt 0.0125 0.0104
vt 0.0122 0.0134
vt 0.0572 0.6292
vt 0.0569 0.6262
vt 0.0568 0.321
vt 0.057 0.318
vt 0.0572 0.0134
vt 0.0572 0.0104
vt 0.0126 0.623
vt 0.0576 0.0079
vt 0.0551 0.0076
vt 0.0126 0.6317
vt 0.0125 0.3152
vt 0.0126 0.0079
vt 0.0571 0.6317
vt 0.0569 0.3241
vt 0.0551 0.0163
vt 0.0572 0.0163
vt 0.0347 0.6164
vt 0.0244 0.6164
vt 0.0347 0.3091
vt 0.0244 0.3091
vt 0.0124 0.0237
vt 0.0143 0.0235
vt 0.0125 0.3292
vt 0.0143 0.329
vt 0.0569 0.6162
vt 0.0551 0.6164
vt 0.057 0.3091
vt 0.0551 0.3091
vt 0.045 0.3262
vt 0.045 0.0224
vt 0.0551 0.0224
vt 0.045 0.329
vt 0.045 0.0235
vt 0.0143 0.6166
vt 0.0244 0.6141
vt 0.0126 0.6163
vt 0.0569 0.3265
vt 0.0551 0.3262
vt 0.045 0.6166
vt 0.045 0.3298
vt 0.0347 0.3262
vt 0.0347 0.3298
vt 0.0244 0.3262
vt 0.0244 0.0224
vt 0.0125 0.3112
vt 0.0143 0.3112
vt 0.0572 0.0225
vt 0.045 0.0252
vt 0.0347 0.0224
vt 0.0347 0.0252
vt 0.0244 0.3074
vt 0.045 0.3112
vt 0.0244 0.329
vt 0.0126 0.6161
vt 0.0143 0.6164
vt 0.0551 0.329
vt 0.0569 0.3292
vt 0.045 0.332
vt 0.0347 0.329
vt 0.0347 0.332
vt 0.0244 0.6131
vt 0.045 0.6164
vt 0.0244 0.0235
vt 0.0125 0.3091
vt 0.0143 0.3091
vt 0.0551 0.0235
vt 0.0572 0.0235
vt 0.045 0.0269
vt 0.0347 0.0235
vt 0.0347 0.0269
vt 0.0244 0.3065
vt 0.045 0.3091
vt 0.0347 0.6141
vt 0.0347 0.3074
vt 0.0347 0.6131
vt 0.0347 0.3065
vt 0.045 0.3065
vt 0.0244 0.0269
vt 0.045 0.6131
vt 0.0244 0.332
vt 0.045 0.3074
vt 0.0244 0.0252
vt 0.045 0.6141
vt 0.0244 0.3298
vn -0.0814 -0.9088 0.4093
vn -0.2318 -0.9087 0.3471
vn -0.3469 -0.9088 0.2318
vn -0.4092 -0.9088 -0.0814
vn -0.3827 -0.9239 -0.0
vn -0.3828 -0.9238 -0.0
vn -0.4092 -0.9088 0.0814
vn -0.3469 -0.9088 -0.232
vn -0.2318 -0.9088 -0.3468
vn 0.0814 -0.9088 -0.4092
vn 0.0 -0.9237 -0.383
vn 0.0 -0.9239 -0.3826
vn -0.0814 -0.9089 -0.409
vn 0.2318 -0.9088 -0.347
vn 0.347 -0.9087 -0.2319
vn 0.4092 -0.9088 0.0814
vn 0.3827 -0.9239 -0.0
vn 0.3825 -0.924 -0.0
vn 0.4092 -0.9088 -0.0814
vn 0.2318 -0.9088 0.3469
vn 0.347 -0.9088 0.2316
vn 0.0 -0.9239 0.3827
vn 0.0 -0.9239 0.3827
vn 0.0815 -0.9087 0.4093
vn 0.4092 0.9088 -0.0814
vn 0.347 0.9088 -0.2318
vn 0.2318 0.9088 -0.3469
vn -0.0814 0.9088 -0.4092
vn 0.0 0.9239 -0.3827
vn -0.0 0.9239 -0.3827
vn 0.0814 0.9089 -0.409
vn -0.2318 0.9089 -0.3467
vn -0.3469 0.9088 -0.2317
vn -0.4092 0.9088 0.0814
vn -0.3827 0.9239 0.0
vn -0.3829 0.9238 0.0
vn -0.4092 0.9088 -0.0814
vn -0.3469 0.9089 0.2316
vn -0.2318 0.9088 0.3469
vn 0.0814 0.9088 0.4093
vn 0.0 0.9239 0.3827
vn 0.0 0.9239 0.3827
vn -0.0814 0.9088 0.4092
vn 0.2319 0.9089 0.3467
vn 0.3469 0.9088 0.2319
vn 0.3826 0.9239 0.0
vn 0.3825 0.9239 0.0
vn 0.4092 0.9088 0.0814
vn 0.1812 -0.3709 0.9108
vn 0.1951 0.0 0.9808
vn -0.5691 0.0 0.8222
vn -0.2652 0.065 0.962
vn -0.9108 -0.371 0.1812
vn -0.9808 0.0 0.1951
vn -0.8983 0.0 -0.4393
vn -0.9747 0.0774 -0.2095
vn -0.5159 -0.3709 0.7721
vn -0.516 0.371 0.7721
vn -0.7721 0.371 0.5159
vn -0.7721 -0.371 0.5159
vn 0.5159 -0.371 0.7722
vn 0.7721 -0.371 0.516
vn 0.7721 0.371 0.516
vn 0.5159 0.371 0.7721
vn -0.7722 -0.371 -0.5159
vn -0.7721 0.371 -0.5159
vn -0.5159 0.371 -0.7722
vn -0.5159 -0.371 -0.7721
vn -0.1952 0.0 0.9808
vn -0.1812 0.371 0.9108
vn -0.1812 -0.371 0.9108
vn 0.1811 0.3709 0.9108
vn -0.9108 -0.371 -0.1812
vn -0.9808 0.0 -0.1951
vn -0.9108 0.371 0.1811
vn 0.9108 -0.3709 0.1812
vn 0.9808 0.0 0.1951
vn 0.9108 0.3709 0.1812
vn -0.1951 0.0 -0.9808
vn -0.1812 -0.371 -0.9108
vn -0.9239 -0.3827 -0.0
vn 0.0 -0.3827 0.9239
vn 0.0 0.3826 0.9239
vn -0.9239 0.3827 0.0
vn -0.1812 0.371 -0.9108
vn -0.9108 0.371 -0.1812
vn 0.4733 -0.0 -0.8809
vn 0.2249 0.072 -0.9717
vn 0.9108 -0.371 -0.1812
vn 0.9808 0.0 -0.1952
vn 0.8358 0.0 0.549
vn 0.9641 0.066 0.2571
vn 0.5159 -0.371 -0.7721
vn 0.5159 0.371 -0.7721
vn 0.7722 0.3709 -0.5159
vn 0.7721 -0.3709 -0.516
vn 0.1951 0.0 -0.9808
vn 0.1811 0.371 -0.9108
vn 0.1811 -0.371 -0.9108
vn 0.9108 0.3709 -0.1812
vn 0.9239 -0.3827 0.0
vn 0.0 -0.3827 -0.9239
vn 0.0 0.3827 -0.9239
vn 0.9239 0.3827 0.0
vn 0.2414 -0.0828 0.9669
vn -0.9687 -0.0639 0.2397
vn -0.9239 0.3827 0.0
vn -0.2338 -0.0678 -0.9699
vn 0.9683 -0.079 -0.2371
vn 0.0 -0.3826 0.9239
vn -0.2844 0.3209 0.9034
vn 0.0 0.3827 0.9239
vn -0.2652 -0.0651 0.962
vn 0.2577 -0.3322 0.9073
vn 0.5149 -0.0 0.8572
vn 0.4282 0.0 0.9037
vn 0.2414 0.0828 0.9669
vn -0.9687 0.0639 0.2397
vn -0.9239 -0.3826 -0.0
vn -0.9287 -0.2731 0.2509
vn -0.8624 -0.0 0.5062
vn -0.9042 0.0 0.4271
vn -0.9344 0.2812 -0.2186
vn -0.9747 -0.0774 -0.2095
vn -0.2338 0.0678 -0.9699
vn 0.0 -0.3827 -0.9239
vn 0.0 0.3826 -0.9239
vn -0.2448 -0.278 -0.9289
vn -0.4932 0.0 -0.8699
vn -0.4171 0.0 -0.9088
vn 0.2352 0.2805 -0.9306
vn 0.2249 -0.072 -0.9717
vn 0.9683 0.079 -0.2371
vn 0.9239 -0.3827 -0.0
vn 0.9239 0.3828 0.0
vn 0.9149 -0.3157 -0.2514
vn 0.864 -0.0 -0.5036
vn 0.9069 0.0 -0.4213
vn 0.9114 0.3076 0.2735
vn 0.9641 -0.0659 0.2572
vn -0.465 -0.0 0.8853
vn -0.9258 -0.0 -0.378
vn 0.4026 0.0 -0.9154
vn 0.8915 -0.0 0.4529
vn 0.9114 -0.3076 0.2735
vn 0.915 0.3157 -0.2513
vn 0.2353 -0.2805 -0.9306
vn -0.2448 0.278 -0.9289
vn -0.9344 -0.2812 -0.2186
vn -0.9287 0.2731 0.2509
vn -0.2844 -0.3209 0.9034
vn 0.2577 0.3322 0.9073
vtan 0.9967 -0.0717 0.0392 -1.0
vtan 0.9723 -0.2052 0.1121 -1.0
vtan 0.9378 -0.3332 0.0973 -1.0
vtan 0.9124 -0.4075 -0.0369 -1.0
vtan 0.9239 -0.3827 0.0025 -1.0
vtan 0.4331 -0.1795 0.8833 -1.0
vtan 0.9123 -0.4088 0.0223 -1.0
vtan 0.9378 -0.3324 -0.1001 -1.0
vtan 0.9728 -0.2163 -0.0834 -1.0
vtan 0.9967 0.0717 0.0391 -1.0
vtan 1.0 0.0 0.0 -1.0
vtan 1.0 0.0 0.0 -1.0
vtan 0.9967 -0.0742 -0.0334 -1.0
vtan 0.9723 0.2054 0.1117 -1.0
vtan 0.9378 0.3333 0.0971 -1.0
vtan 0.9124 0.4076 -0.0368 -1.0
vtan 0.9224 0.3821 -0.057 -1.0
vtan 0.3952 0.1636 0.9039 -1.0
vtan 0.9124 0.4067 0.0467 -1.0
vtan 0.9728 0.2163 -0.0834 -1.0
vtan 0.9378 0.3327 -0.0992 -1.0
vtan 1.0 0.0 -0.0 -1.0
vtan 1.0 -0.0001 -0.0003 -1.0
vtan 0.9967 0.0743 -0.0335 -1.0
vtan 0.9124 -0.4077 0.035 -1.0
vtan 0.9379 -0.3379 0.079 -1.0
vtan 0.9728 -0.2166 0.0824 -1.0
vtan 0.9967 0.0742 -0.0334 -1.0
vtan 1.0 0.0 -0.0 -1.0
vtan 0.9967 -0.0742 0.0334 -1.0
vtan 0.9725 0.2077 -0.1058 -1.0
vtan 0.9379 0.3383 -0.0772 -1.0
vtan 0.9124 0.4077 0.0349 -1.0
vtan 0.9229 0.3823 -0.0447 -1.0
vtan 0.1343 0.0557 -0.9894 -1.0
vtan 0.9099 0.4131 0.0379 -1.0
vtan 0.9379 0.3379 0.0789 -1.0
vtan 0.9728 0.2167 0.0824 -1.0
vtan 0.9967 -0.0742 -0.0335 -1.0
vtan 1.0 -0.0 -0.0 -1.0
vtan 0.9967 0.0742 0.0334 -1.0
vtan 0.9724 -0.2075 -0.1063 -1.0
vtan 0.9378 -0.3383 -0.0774 -1.0
vtan 0.9233 -0.3824 0.037 -1.0
vtan 0.4788 -0.1982 -0.8553 -1.0
vtan 0.9116 -0.411 0.0052 -1.0
vtan 0.0668 0.9287 0.3649 -1.0
vtan 0.0 1.0 0.0 -1.0
vtan 0.0 1.0 0.0 -1.0
vtan 0.0173 0.9979 -0.0627 -1.0
vtan -0.3578 0.9282 0.1019 -1.0
vtan 0.0 1.0 0.0 -1.0
vtan 0.0757 0.997 0.0163 -1.0
vtan -0.1687 0.9277 0.333 -1.0
vtan 0.233 0.9282 -0.2902 -1.0
vtan 0.3402 0.9271 -0.1575 -1.0
vtan -0.3028 0.9286 0.2145 -1.0
vtan 0.233 0.9282 0.2903 -1.0
vtan 0.3296 0.928 0.174 -1.0
vtan -0.3028 0.9286 -0.2145 -1.0
vtan -0.1687 0.9277 -0.333 -1.0
vtan -0.333 0.9277 -0.1688 -1.0
vtan 0.2902 0.9281 0.2331 -1.0
vtan 0.1739 0.928 0.3296 -1.0
vtan -0.2144 0.9286 -0.3029 -1.0
vtan 0.0795 0.9286 -0.3624 -1.0
vtan -0.0319 0.9279 0.3716 -1.0
vtan -0.0322 0.9279 -0.3715 -1.0
vtan -0.3715 0.9279 -0.0322 -1.0
vtan 0.0 1.0 0.0 -1.0
vtan 0.3677 0.9285 -0.0524 -1.0
vtan 0.3506 0.9268 0.1347 -1.0
vtan -0.3451 0.925 -0.1592 -1.0
vtan -0.1591 0.925 -0.3451 -1.0
vtan -0.8923 0.4172 -0.1725 -1.0
vtan -0.9221 0.3821 -0.061 -1.0
vtan -0.3825 0.9234 -0.0323 -1.0
vtan -0.1717 0.4173 0.8924 -1.0
vtan -0.064 0.3819 0.922 -1.0
vtan -0.0338 0.9234 0.3824 -1.0
vtan -0.1725 0.4173 -0.8923 -1.0
vtan -0.0608 0.382 -0.9221 -1.0
vtan -0.0302 0.9235 -0.3824 -1.0
vtan 0.8854 0.4171 -0.2051 -1.0
vtan 0.9139 0.3787 -0.146 -1.0
vtan 0.3817 0.9216 -0.07 -1.0
vtan 0.4366 0.4159 0.7978 -1.0
vtan 0.75 0.4172 0.5132 -1.0
vtan -0.806 0.4153 0.4217 -1.0
vtan -0.5505 0.4168 0.7234 -1.0
vtan -0.4431 0.4161 -0.7941 -1.0
vtan -0.7233 0.4166 -0.5507 -1.0
vtan -0.7939 0.4162 -0.4433 -1.0
vtan -0.5506 0.4164 -0.7235 -1.0
vtan 0.4415 0.416 -0.795 -1.0
vtan 0.7486 0.4171 -0.5154 -1.0
vtan 0.7885 0.4164 0.4526 -1.0
vtan 0.5131 0.417 0.7502 -1.0
vtan 0.072 0.415 0.907 -1.0
vtan 0.3544 0.4101 0.8404 -1.0
vtan 0.1347 0.9268 0.3507 -1.0
vtan 0.8403 0.4102 0.3545 -1.0
vtan -0.8915 0.4172 0.1767 -1.0
vtan -0.291 0.4141 -0.8625 -1.0
vtan -0.8624 0.4144 -0.2909 -1.0
vtan 0.0959 0.4158 -0.9044 -1.0
vtan 0.3568 0.9281 0.1068 -1.0
vtan 0.8923 0.4172 0.1722 -1.0
vtan -0.014 0.927 -0.3748 -1.0
vtan 0.0 1.0 -0.0 -1.0
vtan -0.0162 0.9974 0.0701 -1.0
vtan 0.3578 0.9282 -0.1019 -1.0
vtan 0.0 1.0 -0.0 -1.0
vtan -0.0637 0.9978 -0.017 -1.0
vtan 0.1687 0.9277 -0.333 -1.0
vtan -0.233 0.9281 0.2903 -1.0
vtan -0.3402 0.9271 0.1574 -1.0
vtan 0.3028 0.9286 -0.2144 -1.0
vtan -0.0799 0.9286 0.3623 -1.0
vtan 0.0323 0.9279 -0.3715 -1.0
vtan -0.3677 0.9285 0.0524 -1.0
vtan 0.9044 0.4158 0.0956 -1.0
vtan 0.9223 0.3818 0.06 -1.0
vtan 0.3826 0.9234 0.03 -1.0
vtan 0.3712 0.9279 0.0335 -1.0
vtan 0.1725 0.4172 -0.8923 -1.0
vtan 0.0623 0.3819 -0.9221 -1.0
vtan 0.0319 0.9234 -0.3825 -1.0
vtan 0.0955 0.4158 0.9044 -1.0
vtan 0.0605 0.382 0.9222 -1.0
vtan 0.0309 0.9234 0.3825 -1.0
vtan 0.0335 0.9279 0.3713 -1.0
vtan -0.8859 0.4171 0.203 -1.0
vtan -0.9143 0.3786 0.1438 -1.0
vtan -0.3817 0.9217 0.0693 -1.0
vtan 0.806 0.4154 -0.4217 -1.0
vtan 0.5505 0.4166 -0.7234 -1.0
vtan -0.4414 0.4161 0.795 -1.0
vtan -0.7485 0.4173 0.5153 -1.0
vtan 0.8915 0.4172 -0.1766 -1.0
vtan -0.1061 0.4159 0.9032 -1.0
vtan 0.02 0.9966 0.0803 -1.0
vtan -0.0621 0.998 0.0154 -1.0
vtan 0.3821 0.9225 0.0557 -1.0
vtan -0.0159 0.9977 -0.0659 -1.0
vtan 0.0768 0.9969 -0.0188 -1.0
vtan -0.3638 0.9287 -0.0724 -1.0
vtan 0.0091 0.9239 0.3826 -1.0
vtan 0.0106 0.9433 -0.3317 -1.0
vtan 0.019 0.3826 0.9237 -1.0
vtan 0.0243 0.3826 -0.9236 -1.0
vtan 0.0191 0.9237 -0.3826 -1.0
vtan -0.0173 0.9979 0.0628 -1.0
vtan 0.0117 0.94 0.3409 -1.0
vtan -0.0 1.0 0.0 -1.0
vtan -0.0 1.0 0.0 -1.0
vtan -0.02 0.9966 -0.0803 -1.0
vtan 0.062 0.998 -0.0153 -1.0
vtan -0.9139 0.3786 0.1467 -1.0
vtan -0.3816 0.9214 0.0735 -1.0
vtan 0.9189 0.3806 0.1036 -1.0
vtan -0.2792 0.9602 0.0119 -1.0
vtan -0.0 1.0 -0.0 -1.0
vtan -0.0 1.0 -0.0 -1.0
vtan 0.2864 0.9581 0.0081 -1.0
vtan -0.0756 0.997 -0.0163 -1.0
vtan 0.0159 0.9977 0.0659 -1.0
vtan -0.0189 0.3829 -0.9236 -1.0
vtan -0.0098 0.9238 -0.3827 -1.0
vtan -0.0318 0.9234 0.3825 -1.0
vtan -0.0626 0.382 0.9221 -1.0
vtan -0.0103 0.9587 -0.2842 -1.0
vtan 0.0 1.0 0.0 -1.0
vtan 0.0 1.0 0.0 -1.0
vtan -0.0094 0.958 0.2865 -1.0
vtan -0.0544 0.4138 -0.9088 -1.0
vtan 0.0162 0.9974 -0.0701 -1.0
vtan -0.0767 0.9969 0.0188 -1.0
vtan 0.9142 0.3787 -0.1446 -1.0
vtan 0.3817 0.9215 -0.0717 -1.0
vtan -0.3818 0.9215 -0.0712 -1.0
vtan -0.9144 0.3787 -0.1433 -1.0
vtan -0.8916 0.4172 -0.176 -1.0
vtan 0.324 0.946 -0.0088 -1.0
vtan 0.0 1.0 0.0 -1.0
vtan -0.0 1.0 0.0 -1.0
vtan -0.3171 0.9484 -0.01 -1.0
vtan 0.0637 0.9978 0.017 -1.0
vtan 0.0 1.0 0.0 -1.0
vtan -0.0 1.0 0.0 -1.0
vtan -0.0 1.0 0.0 -1.0
vtan 0.0 1.0 -0.0 -1.0
vtan 0.3171 0.9484 0.01 -1.0
vtan -0.324 0.946 0.0089 -1.0
vtan 0.0094 0.958 -0.2865 -1.0
vtan 0.0103 0.9587 0.2842 -1.0
vtan -0.2865 0.9581 -0.008 -1.0
vtan 0.2792 0.9602 -0.0118 -1.0
vtan -0.0105 0.9433 0.3318 -1.0
vtan -0.0116 0.94 -0.3409 -1.0
f 0/0/0/0 1/1/1/1 2/2/2/2 
f 0/0/0/0 2/2/2/2 3/3/3/3 
f 4/4/4/4 5/5/5/5 2/2/2/2 
f 4/4/4/4 2/2/2/2 6/6/6/6 
f 2/2/2/2 5/5/5/5 3/3/3/3 
f 3/3/3/3 7/7/7/7 8/8/8/8 
f 3/3/3/3 8/8/8/8 9/9/9/9 
f 10/10/10/10 11/11/11/11 8/8/8/8 
f 10/10/10/10 8/8/8/8 12/12/12/12 
f 8/8/8/8 11/11/11/11 9/9/9/9 
f 9/9/9/9 13/13/13/13 14/14/14/14 
f 9/9/9/9 14/14/14/14 15/15/15/15 
f 16/16/16/16 17/17/17/17 14/14/14/14 
f 16/16/16/16 14/14/14/14 18/18/18/18 
f 14/14/14/14 17/17/17/17 15/15/15/15 
f 0/0/0/0 3/3/3/3 9/9/9/9 
f 0/0/0/0 9/9/9/9 15/15/15/15 
f 20/19/19/19 0/0/0/0 15/15/15/15 
f 20/19/19/19 15/15/15/15 19/20/20/20 
f 22/21/21/21 0/0/0/0 20/19/19/19 
f 22/21/21/21 20/19/19/19 21/22/22/22 
f 23/23/23/23 21/22/22/22 20/19/19/19 
f 24/24/24/24 25/25/25/25 26/26/26/26 
f 24/24/24/24 26/26/26/26 27/27/27/27 
f 28/28/28/10 29/29/29/28 26/26/26/26 
f 28/28/28/10 26/26/26/26 30/30/30/29 
f 26/26/26/26 29/29/29/28 27/27/27/27 
f 27/27/27/27 31/31/31/30 32/32/32/31 
f 27/27/27/27 32/32/32/31 33/33/33/32 
f 34/34/34/33 35/35/35/34 32/32/32/31 
f 34/34/34/33 32/32/32/31 36/36/36/35 
f 32/32/32/31 35/35/35/34 33/33/33/32 
f 33/33/33/32 37/37/37/36 38/38/38/37 
f 33/33/33/32 38/38/38/37 39/39/39/38 
f 40/40/40/10 41/41/41/39 38/38/38/37 
f 40/40/40/10 38/38/38/37 42/42/42/40 
f 38/38/38/37 41/41/41/39 39/39/39/38 
f 33/33/33/32 39/39/39/38 24/24/24/24 
f 33/33/33/32 24/24/24/24 27/27/27/27 
f 39/39/39/38 43/43/43/41 44/44/44/42 
f 39/39/39/38 44/44/44/42 24/24/24/24 
f 44/44/44/42 45/45/45/43 46/46/46/44 
f 44/44/44/42 46/46/46/44 24/24/24/24 
f 47/47/47/45 45/45/45/43 44/44/44/42 
f 48/48/48/46 49/49/49/47 50/50/50/48 
f 48/48/48/46 50/50/50/48 51/51/51/49 
f 52/52/52/50 53/53/53/47 54/54/54/51 
f 52/52/52/50 54/54/54/51 55/55/55/52 
f 56/56/56/53 57/57/57/54 58/58/58/55 
f 56/56/56/53 58/58/58/55 59/59/59/56 
f 60/60/60/57 61/61/61/58 62/62/62/59 
f 60/60/60/57 62/62/62/59 63/63/63/60 
f 64/64/64/61 65/65/65/62 66/66/66/63 
f 64/64/64/61 66/66/66/63 67/67/67/64 
f 68/68/68/47 69/69/69/65 57/57/57/54 
f 68/68/68/47 57/57/57/54 56/56/56/53 
f 70/70/70/66 68/68/68/47 56/56/56/53 
f 49/49/49/47 48/48/48/46 60/60/60/57 
f 49/49/49/47 60/60/60/57 63/63/63/60 
f 71/71/71/67 49/49/49/47 63/63/63/60 
f 64/64/64/61 72/72/72/68 73/73/73/69 
f 64/64/64/61 73/73/73/69 65/65/65/62 
f 53/53/53/47 52/52/52/50 58/58/58/55 
f 53/53/53/47 58/58/58/55 74/74/74/70 
f 59/59/59/56 58/58/58/55 52/52/52/50 
f 61/61/61/58 75/75/75/71 76/76/76/47 
f 61/61/61/58 76/76/76/47 62/62/62/59 
f 62/62/62/59 76/76/76/47 77/77/77/72 
f 67/67/67/64 66/66/66/63 78/78/78/47 
f 67/67/67/64 78/78/78/47 79/79/79/73 
f 3/80/3/74 5/81/5/75 80/82/80/76 
f 3/80/3/74 80/82/80/76 72/72/72/68 
f 0/83/0/77 22/84/21/78 81/85/81/79 
f 0/83/0/77 81/85/81/79 70/70/70/66 
f 39/86/39/80 41/87/41/81 82/88/82/82 
f 39/86/39/80 82/88/82/82 71/71/71/67 
f 33/89/33/83 35/90/35/84 83/91/83/85 
f 33/89/33/83 83/91/83/85 74/74/74/70 
f 60/60/60/57 20/92/19/86 19/93/20/87 
f 60/60/60/57 19/93/20/87 61/61/61/58 
f 59/59/59/56 2/94/2/88 1/95/1/89 
f 59/59/59/56 1/95/1/89 56/56/56/53 
f 67/67/67/64 8/96/8/90 7/97/7/91 
f 67/67/67/64 7/97/7/91 64/64/64/61 
f 62/62/62/59 44/98/44/92 43/99/43/93 
f 62/62/62/59 43/99/43/93 63/63/63/60 
f 57/57/57/54 38/100/38/94 37/101/37/95 
f 57/57/57/54 37/101/37/95 58/58/58/55 
f 65/65/65/62 32/102/32/96 31/103/31/97 
f 65/65/65/62 31/103/31/97 66/66/66/63 
f 48/48/48/46 23/104/23/98 20/92/19/86 
f 48/48/48/46 20/92/19/86 60/60/60/57 
f 0/83/0/77 70/70/70/66 56/56/56/53 
f 0/83/0/77 56/56/56/53 1/95/1/89 
f 64/64/64/61 7/97/7/91 3/80/3/74 
f 64/64/64/61 3/80/3/74 72/72/72/68 
f 63/63/63/60 43/99/43/93 39/86/39/80 
f 63/63/63/60 39/86/39/80 71/71/71/67 
f 58/58/58/55 37/101/37/95 33/89/33/83 
f 58/58/58/55 33/89/33/83 74/74/74/70 
f 66/66/66/63 31/103/31/97 27/105/27/99 
f 66/66/66/63 27/105/27/99 84/106/84/100 
f 61/61/61/58 19/93/20/87 15/107/15/101 
f 61/61/61/58 15/107/15/101 75/75/75/71 
f 52/52/52/50 6/108/6/102 2/94/2/88 
f 52/52/52/50 2/94/2/88 59/59/59/56 
f 79/79/79/73 12/109/12/103 8/96/8/90 
f 79/79/79/73 8/96/8/90 67/67/67/64 
f 77/77/77/72 47/110/47/104 44/98/44/92 
f 77/77/77/72 44/98/44/92 62/62/62/59 
f 69/69/69/65 42/111/42/105 38/100/38/94 
f 69/69/69/65 38/100/38/94 57/57/57/54 
f 85/112/85/106 36/113/36/107 32/102/32/96 
f 85/112/85/106 32/102/32/96 65/65/65/62 
f 79/48/79/108 78/49/78/47 86/114/86/109 
f 79/48/79/108 86/114/86/109 87/115/87/110 
f 88/52/88/111 89/53/89/47 90/116/90/112 
f 88/52/88/111 90/116/90/112 91/117/91/113 
f 92/56/92/114 93/57/93/115 94/58/94/116 
f 92/56/92/114 94/58/94/116 95/59/95/117 
f 96/68/96/47 97/69/97/118 93/57/93/115 
f 96/68/96/47 93/57/93/115 92/56/92/114 
f 98/70/98/119 96/68/96/47 92/56/92/114 
f 89/53/89/47 88/52/88/111 94/58/94/116 
f 89/53/89/47 94/58/94/116 99/74/99/120 
f 95/59/95/117 94/58/94/116 88/52/88/111 
f 15/80/15/121 17/118/17/122 100/119/100/123 
f 15/80/15/121 100/119/100/123 75/72/75/124 
f 9/83/9/125 11/120/11/126 101/121/101/127 
f 9/83/9/125 101/121/101/127 98/70/98/119 
f 27/86/27/128 29/122/29/129 102/123/102/130 
f 27/86/27/128 102/123/102/130 84/71/84/131 
f 24/89/24/132 46/124/46/133 103/125/103/134 
f 24/89/24/132 103/125/103/134 99/74/99/120 
f 95/59/95/117 14/94/14/135 13/95/13/136 
f 95/59/95/117 13/95/13/136 92/56/92/114 
f 93/57/93/115 26/100/26/137 25/101/25/138 
f 93/57/93/115 25/101/25/138 94/58/94/116 
f 92/56/92/114 13/95/13/136 9/83/9/125 
f 92/56/92/114 9/83/9/125 98/70/98/119 
f 94/58/94/116 25/101/25/138 24/89/24/132 
f 94/58/94/116 24/89/24/132 99/74/99/120 
f 88/52/88/111 18/108/18/139 14/94/14/135 
f 88/52/88/111 14/94/14/135 95/59/95/117 
f 97/69/97/118 30/111/30/140 26/100/26/137 
f 97/69/97/118 26/100/26/137 93/57/93/115 
f 68/68/68/47 104/126/104/141 69/69/69/65 
f 73/73/73/69 105/127/105/142 106/128/106/143 
f 73/73/73/69 106/128/106/143 85/112/85/106 
f 96/68/96/47 107/129/107/144 97/69/97/118 
f 76/73/76/47 108/130/108/145 77/112/77/146 
f 109/131/109/147 51/51/51/49 110/132/110/148 
f 109/131/109/147 21/133/22/149 23/104/23/98 
f 109/131/109/147 23/104/23/98 48/48/48/46 
f 41/87/41/81 40/134/40/150 111/135/111/151 
f 41/87/41/81 111/135/111/151 82/88/82/82 
f 82/88/82/82 112/136/112/152 71/71/71/67 
f 112/136/112/152 50/50/50/48 49/49/49/47 
f 22/84/21/78 21/133/22/149 109/131/109/147 
f 22/84/21/78 109/131/109/147 81/85/81/79 
f 111/135/111/151 104/126/104/141 113/137/113/153 
f 113/137/113/153 104/126/104/141 114/138/114/154 
f 113/137/113/153 114/138/114/154 115/139/115/155 
f 81/85/81/79 116/140/116/156 70/70/70/66 
f 111/135/111/151 40/134/40/150 42/111/42/105 
f 111/135/111/151 42/111/42/105 69/69/69/65 
f 80/82/80/76 117/141/117/157 72/72/72/68 
f 5/81/5/75 4/142/4/158 118/143/118/159 
f 5/81/5/75 118/143/118/159 80/82/80/76 
f 106/128/106/143 34/144/34/160 36/113/36/107 
f 106/128/106/143 36/113/36/107 85/112/85/106 
f 106/128/106/143 105/127/105/142 119/145/119/161 
f 119/145/119/161 105/127/105/142 120/146/120/162 
f 119/145/119/161 120/146/120/162 121/147/121/163 
f 118/143/118/159 55/55/55/52 122/148/122/164 
f 35/90/35/84 34/144/34/160 106/128/106/143 
f 35/90/35/84 106/128/106/143 83/91/83/85 
f 118/143/118/159 4/142/4/158 6/108/6/102 
f 118/143/118/159 6/108/6/102 52/52/52/50 
f 83/91/83/85 123/149/123/165 74/74/74/70 
f 123/149/123/165 54/54/54/51 53/53/53/47 
f 101/121/101/127 124/150/124/166 98/70/98/119 
f 11/120/11/126 10/151/10/167 125/152/125/168 
f 11/120/11/126 125/152/125/168 101/121/101/127 
f 126/153/126/169 28/154/28/170 30/111/30/140 
f 126/153/126/169 30/111/30/140 97/69/97/118 
f 126/153/126/169 107/129/107/144 127/155/127/171 
f 127/155/127/171 107/129/107/144 128/156/128/172 
f 127/155/127/171 128/156/128/172 129/157/129/173 
f 125/152/125/168 87/115/87/110 130/158/130/174 
f 29/122/29/129 28/154/28/170 126/153/126/169 
f 29/122/29/129 126/153/126/169 102/123/102/130 
f 125/152/125/168 10/151/10/167 12/104/12/175 
f 125/152/125/168 12/104/12/175 79/48/79/108 
f 102/123/102/130 131/159/131/176 78/49/78/47 
f 102/123/102/130 78/49/78/47 84/71/84/131 
f 131/159/131/176 86/114/86/109 78/49/78/47 
f 100/119/100/123 132/160/132/177 75/72/75/124 
f 17/118/17/122 16/161/16/178 133/162/133/179 
f 17/118/17/122 133/162/133/179 100/119/100/123 
f 134/163/134/180 45/164/45/181 47/113/47/182 
f 134/163/134/180 47/113/47/182 77/112/77/146 
f 134/163/134/180 108/130/108/145 135/165/135/183 
f 135/165/135/183 108/130/108/145 136/166/136/184 
f 135/165/135/183 136/166/136/184 137/167/137/185 
f 133/162/133/179 91/117/91/113 138/168/138/186 
f 46/124/46/133 45/164/45/181 134/163/134/180 
f 46/124/46/133 134/163/134/180 103/125/103/134 
f 133/162/133/179 16/161/16/178 18/108/18/139 
f 133/162/133/179 18/108/18/139 88/52/88/111 
f 103/125/103/134 139/169/139/187 99/74/99/120 
f 139/169/139/187 90/116/90/112 89/53/89/47 
f 50/50/50/48 140/170/140/188 110/132/110/148 
f 50/50/50/48 110/132/110/148 51/51/51/49 
f 54/54/54/51 141/171/141/189 122/148/122/164 
f 54/54/54/51 122/148/122/164 55/55/55/52 
f 86/114/86/109 142/172/142/190 130/158/130/174 
f 86/114/86/109 130/158/130/174 87/115/87/110 
f 90/116/90/112 143/173/143/191 138/168/138/186 
f 90/116/90/112 138/168/138/186 91/117/91/113 
f 135/165/135/183 137/167/137/185 143/173/143/191 
f 135/165/135/183 143/173/143/191 144/174/144/192 
f 145/175/145/193 137/167/137/185 136/166/136/184 
f 145/175/145/193 136/166/136/184 132/160/132/177 
f 138/168/138/186 143/173/143/191 137/167/137/185 
f 138/168/138/186 137/167/137/185 145/175/145/193 
f 144/174/144/192 143/173/143/191 90/116/90/112 
f 144/174/144/192 90/116/90/112 139/169/139/187 
f 127/155/127/171 129/157/129/173 142/172/142/190 
f 127/155/127/171 142/172/142/190 146/176/146/194 
f 147/177/147/195 129/157/129/173 128/156/128/172 
f 147/177/147/195 128/156/128/172 124/150/124/166 
f 130/158/130/174 142/172/142/190 129/157/129/173 
f 130/158/130/174 129/157/129/173 147/177/147/195 
f 146/176/146/194 142/172/142/190 86/114/86/109 
f 146/176/146/194 86/114/86/109 131/159/131/176 
f 119/145/119/161 121/147/121/163 141/171/141/189 
f 119/145/119/161 141/171/141/189 148/178/148/196 
f 149/179/149/197 121/147/121/163 120/146/120/162 
f 149/179/149/197 120/146/120/162 117/141/117/157 
f 122/148/122/164 141/171/141/189 121/147/121/163 
f 122/148/122/164 121/147/121/163 149/179/149/197 
f 148/178/148/196 141/171/141/189 54/54/54/51 
f 148/178/148/196 54/54/54/51 123/149/123/165 
f 113/137/113/153 115/139/115/155 140/170/140/188 
f 113/137/113/153 140/170/140/188 150/180/150/198 
f 151/181/151/199 115/139/115/155 114/138/114/154 
f 151/181/151/199 114/138/114/154 116/140/116/156 
f 110/132/110/148 140/170/140/188 115/139/115/155 
f 110/132/110/148 115/139/115/155 151/181/151/199 
f 150/180/150/198 140/170/140/188 50/50/50/48 
f 150/180/150/198 50/50/50/48 112/136/112/152 
f 68/68/68/47 114/138/114/154 104/126/104/141 
f 83/91/83/85 148/178/148/196 123/149/123/165 
f 118/143/118/159 122/148/122/164 149/179/149/197 
f 118/143/118/159 149/179/149/197 80/82/80/76 
f 111/135/111/151 113/137/113/153 150/180/150/198 
f 111/135/111/151 150/180/150/198 82/88/82/82 
f 81/85/81/79 151/181/151/199 116/140/116/156 
f 106/128/106/143 119/145/119/161 148/178/148/196 
f 106/128/106/143 148/178/148/196 83/91/83/85 
f 80/82/80/76 149/179/149/197 117/141/117/157 
f 73/73/73/69 120/146/120/162 105/127/105/142 
f 125/152/125/168 130/158/130/174 147/177/147/195 
f 125/152/125/168 147/177/147/195 101/121/101/127 
f 102/123/102/130 146/176/146/194 131/159/131/176 
f 126/153/126/169 127/155/127/171 146/176/146/194 
f 126/153/126/169 146/176/146/194 102/123/102/130 
f 96/68/96/47 128/156/128/172 107/129/107/144 
f 133/162/133/179 138/168/138/186 145/175/145/193 
f 133/162/133/179 145/175/145/193 100/119/100/123 
f 103/125/103/134 144/174/144/192 139/169/139/187 
f 101/121/101/127 147/177/147/195 124/150/124/166 
f 76/73/76/47 136/166/136/184 108/130/108/145 
f 82/88/82/82 150/180/150/198 112/136/112/152 
f 109/131/109/147 110/132/110/148 151/181/151/199 
f 109/131/109/147 151/181/151/199 81/85/81/79 
f 100/119/100/123 145/175/145/193 132/160/132/177 
f 134/163/134/180 135/165/135/183 144/174/144/192 
f 134/163/134/180 144/174/144/192 103/125/103/134 
f 52/52/52/50 55/55/55/52 118/143/118/159 
f 74/74/74/70 123/149/123/165 53/53/53/47 
f 69/69/69/65 104/126/104/141 111/135/111/151 
f 70/70/70/66 116/140/116/156 114/138/114/154 
f 70/70/70/66 114/138/114/154 68/68/68/47 
f 65/65/65/62 73/73/73/69 85/112/85/106 
f 78/78/78/47 66/66/66/63 84/106/84/100 
f 79/48/79/108 87/115/87/110 125/152/125/168 
f 72/72/72/68 117/141/117/157 120/146/120/162 
f 72/72/72/68 120/146/120/162 73/73/73/69 
f 99/74/99/120 139/169/139/187 89/53/89/47 
f 98/70/98/119 124/150/124/166 128/156/128/172 
f 98/70/98/119 128/156/128/172 96/68/96/47 
f 88/52/88/111 91/117/91/113 133/162/133/179 
f 97/69/97/118 107/129/107/144 126/153/126/169 
f 77/112/77/146 108/130/108/145 134/163/134/180 
f 71/71/71/67 112/136/112/152 49/49/49/47 
f 48/48/48/46 51/51/51/49 109/131/109/147 
f 75/72/75/124 132/160/132/177 136/166/136/184 
f 75/72/75/124 136/166/136/184 76/73/76/47 
