v 310.7825 289.3175 573.1042
v 335.4323 286.8249 573.1042
v 321.4374 268.2938 573.1041
v 307.4424 269.2821 573.1041
v 265.4576 264.012 589.753
v 286.9271 268.0172 589.753
v 307.4424 269.2821 589.753
v 360.4004 259.7023 589.7529
v 321.4374 268.2938 589.753
v 341.7936 264.9848 589.7529
v 252.417 259.0482 589.753
v 252.417 259.0482 573.1041
v 231.5654 277.3044 573.1042
v 244.7834 277.2351 573.1042
v 265.4576 264.012 573.1041
v 260.2097 282.3391 573.1042
v 279.1345 286.8148 573.1042
v 286.9271 268.0172 573.1041
v 299.8079 289.3175 573.1042
v 353.4028 282.6134 573.1042
v 341.7936 264.9849 573.1041
v 365.6483 278.1268 573.1042
v 360.4003 259.7024 573.1041
v 384.1212 278.4874 573.1042
v 242.3236 131.4047 577.4579
v 242.7034 246.9973 577.4581
v 252.2687 238.0317 582.1382
v 251.5093 139.7446 582.1381
v 251.5093 139.7446 589.7529
v 252.2687 238.0317 589.753
v 362.7457 237.817 589.7529
v 363.6947 140.6129 589.7529
v 362.7457 237.817 582.1379
v 363.6947 140.6129 582.1381
v 380.7804 123.2083 573.1041
v 380.9211 123.0649 573.1041
v 380.7804 123.0649 573.1041
v 376.509 127.5594 573.1041
v 376.2717 251.4265 573.1042
v 380.7804 255.963 573.1042
v 384.1212 119.805 573.1041
v 231.5654 119.805 573.104
v 233.1379 123.0648 573.104
v 233.1379 255.963 573.1042
v 372.2375 131.9106 577.458
v 237.9207 251.4801 573.1042
v 237.7308 127.2348 573.104
v 371.7631 246.89 577.4579
v 384.1213 119.805 583.6722
v 231.5656 119.805 583.6722
v 231.5654 277.3043 583.6722
v 384.1213 278.4874 583.6722
v 365.6484 278.1268 583.6722
v 353.4028 282.6134 583.6722
v 335.4323 286.8249 583.6722
v 310.7826 289.3175 583.6722
v 299.8079 289.3175 583.6722
v 279.1345 286.8148 583.6722
v 260.2097 282.3391 583.6722
v 244.7834 277.2351 583.6722
gi 0 0 0 0
gi 0 0 0 0
gi 0 0 0 0
gi 0 0 0 0
gi 0 0 0 0
gi 0 0 0 0
gi 0 0 0 0
gi 0 0 0 0
gi 0 0 0 0
gi 0 0 0 0
gi 0 0 0 0
gi 0 0 0 0
gi 0 0 0 0
gi 0 0 0 0
gi 0 0 0 0
gi 0 0 0 0
gi 0 0 0 0
gi 0 0 0 0
gi 0 0 0 0
gi 0 0 0 0
gi 0 0 0 0
gi 0 0 0 0
gi 0 0 0 0
gi 0 0 0 0
gi 0 0 0 0
gi 0 0 0 0
gi 0 0 0 0
gi 0 0 0 0
gi 0 0 0 0
gi 0 0 0 0
gi 0 0 0 0
gi 0 0 0 0
gi 0 0 0 0
gi 0 0 0 0
gi 0 0 0 0
gi 0 0 0 0
gi 0 0 0 0
gi 0 0 0 0
gi 0 0 0 0
gi 0 0 0 0
gi 0 0 0 0
gi 0 0 0 0
gi 0 0 0 0
gi 0 0 0 0
gi 0 0 0 0
gi 0 0 0 0
gi 0 0 0 0
gi 0 0 0 0
gi 0 0 0 0
gi 0 0 0 0
gi 0 0 0 0
gi 0 0 0 0
gi 0 0 0 0
gi 0 0 0 0
gi 0 0 0 0
gi 0 0 0 0
gi 0 0 0 0
gi 0 0 0 0
gi 0 0 0 0
gi 0 0 0 0
gw 0.0 0.0 0.0 0.0
gw 0.0 0.0 0.0 0.0
gw 0.0 0.0 0.0 0.0
gw 0.0 0.0 0.0 0.0
gw 0.0 0.0 0.0 0.0
gw 0.0 0.0 0.0 0.0
gw 0.0 0.0 0.0 0.0
gw 0.0 0.0 0.0 0.0
gw 0.0 0.0 0.0 0.0
gw 0.0 0.0 0.0 0.0
gw 0.0 0.0 0.0 0.0
gw 0.0 0.0 0.0 0.0
gw 0.0 0.0 0.0 0.0
gw 0.0 0.0 0.0 0.0
gw 0.0 0.0 0.0 0.0
gw 0.0 0.0 0.0 0.0
gw 0.0 0.0 0.0 0.0
gw 0.0 0.0 0.0 0.0
gw 0.0 0.0 0.0 0.0
gw 0.0 0.0 0.0 0.0
gw 0.0 0.0 0.0 0.0
gw 0.0 0.0 0.0 0.0
gw 0.0 0.0 0.0 0.0
gw 0.0 0.0 0.0 0.0
gw 0.0 0.0 0.0 0.0
gw 0.0 0.0 0.0 0.0
gw 0.0 0.0 0.0 0.0
gw 0.0 0.0 0.0 0.0
gw 0.0 0.0 0.0 0.0
gw 0.0 0.0 0.0 0.0
gw 0.0 0.0 0.0 0.0
gw 0.0 0.0 0.0 0.0
gw 0.0 0.0 0.0 0.0
gw 0.0 0.0 0.0 0.0
gw 0.0 0.0 0.0 0.0
gw 0.0 0.0 0.0 0.0
gw 0.0 0.0 0.0 0.0
gw 0.0 0.0 0.0 0.0
gw 0.0 0.0 0.0 0.0
gw 0.0 0.0 0.0 0.0
gw 0.0 0.0 0.0 0.0
gw 0.0 0.0 0.0 0.0
gw 0.0 0.0 0.0 0.0
gw 0.0 0.0 0.0 0.0
gw 0.0 0.0 0.0 0.0
gw 0.0 0.0 0.0 0.0
gw 0.0 0.0 0.0 0.0
gw 0.0 0.0 0.0 0.0
gw 0.0 0.0 0.0 0.0
gw 0.0 0.0 0.0 0.0
gw 0.0 0.0 0.0 0.0
gw 0.0 0.0 0.0 0.0
gw 0.0 0.0 0.0 0.0
gw 0.0 0.0 0.0 0.0
gw 0.0 0.0 0.0 0.0
gw 0.0 0.0 0.0 0.0
gw 0.0 0.0 0.0 0.0
gw 0.0 0.0 0.0 0.0
gw 0.0 0.0 0.0 0.0
gw 0.0 0.0 0.0 0.0
vt 0.6641 0.4155
vt 0.6068 0.4094
vt 0.6394 0.364
vt 0.6719 0.3664
vt 0.7694 0.3535
vt 0.7195 0.3633
vt 0.5488 0.3429
vt 0.5921 0.3559
vt 0.7997 0.3413
vt 0.8481 0.3861
vt 0.8174 0.3859
vt 0.7816 0.3984
vt 0.7376 0.4094
vt 0.6896 0.4155
vt 0.5651 0.3991
vt 0.5366 0.3881
vt 0.4937 0.389
vt 0.8231 0.0284
vt 0.8223 0.3118
vt 0.8 0.2898
vt 0.8018 0.0489
vt 0.5434 0.2893
vt 0.5412 0.051
vt 0.4408 0.1672
vt 0.4726 0.1672
vt 0.4726 0.2037
vt 0.4408 0.2037
vt 0.4408 0.3751
vt 0.4726 0.3751
vt 0.4726 0.5781
vt 0.4408 0.5781
vt 0.4408 0.3487
vt 0.4726 0.3487
vt 0.4408 0.3076
vt 0.4726 0.3076
vt 0.4408 0.2689
vt 0.4726 0.2689
vt 0.4408 0.2426
vt 0.4726 0.2426
vt 0.4408 0.0817
vt 0.4726 0.0817
vt 0.4726 0.2893
vt 0.4408 0.2893
vt 0.4408 0.0891
vt 0.4726 0.0891
vt 0.4726 0.2819
vt 0.4408 0.2819
vt 0.4408 0.0801
vt 0.4726 0.0801
vt 0.4726 0.2909
vt 0.4408 0.2909
vt 0.4408 0.088
vt 0.4726 0.088
vt 0.4726 0.283
vt 0.4408 0.283
vt 0.5015 0.0083
vt 0.5012 0.008
vt 0.5015 0.008
vt 0.5114 0.019
vt 0.512 0.3227
vt 0.5015 0.3338
vt 0.4937 0.0
vt 0.8481 0.0
vt 0.8445 0.008
vt 0.8445 0.3338
vt 0.5213 0.0297
vt 0.8334 0.3228
vt 0.8338 0.0182
vt 0.5224 0.3115
vn 0.0362 0.7173 -0.6958
vn 0.1189 0.7114 -0.6927
vn -0.0805 -0.692 -0.7174
vn -0.0031 -0.6916 -0.7223
vn 0.1965 -0.6991 -0.6875
vn 0.0884 -0.715 -0.6935
vn -0.0032 -0.7214 -0.6925
vn -0.8351 0.1137 -0.5382
vn -0.0829 -0.7122 -0.6971
vn -0.1563 -0.7025 -0.6943
vn 0.828 0.1547 -0.539
vn 0.0923 0.0172 -0.9956
vn -0.5759 0.579 -0.5771
vn -0.1043 0.6586 -0.7452
vn 0.1856 -0.6602 -0.7278
vn -0.1952 0.6897 -0.6973
vn -0.1262 0.7083 -0.6946
vn 0.085 -0.6875 -0.7212
vn -0.0433 0.719 -0.6936
vn 0.2065 0.6902 -0.6936
vn -0.1506 -0.6771 -0.7203
vn 0.109 0.6514 -0.7509
vn -0.0729 0.0099 -0.9973
vn 0.5722 0.5834 -0.5763
vn 0.346 0.3673 -0.8634
vn 0.3454 -0.3559 -0.8683
vn 0.4667 -0.4821 -0.7415
vn 0.4649 0.4868 -0.7396
vn 0.5777 0.5777 -0.5766
vn 0.5744 -0.58 -0.5777
vn -0.5748 -0.5793 -0.578
vn -0.5824 0.5723 -0.5772
vn -0.4802 -0.4796 -0.7344
vn -0.4851 0.4795 -0.7313
vn -0.0 0.0 -1.0
vn -0.0 0.0 -1.0
vn 0.0 0.0 -1.0
vn -0.1094 0.1121 -0.9877
vn -0.1083 -0.1077 -0.9883
vn -0.0 -0.0 -1.0
vn 0.5773 -0.5774 -0.5773
vn -0.5774 -0.5773 -0.5773
vn -0.0 0.0 -1.0
vn -0.0 -0.0 -1.0
vn -0.3643 0.3672 -0.8559
vn 0.1069 -0.1039 -0.9888
vn 0.1089 0.1064 -0.9883
vn -0.3614 -0.357 -0.8614
vn 0.0 -1.0 0.0
vn 0.0 -1.0 0.0
vn -1.0 -0.0 0.0
vn -1.0 0.0 0.0
vn 1.0 0.0 -0.0
vn 1.0 0.0 -0.0
vn -0.0195 0.9998 0.0
vn -0.0195 0.9998 -0.0
vn 0.344 0.939 0.0
vn 0.344 0.939 -0.0
vn 0.2282 0.9736 0.0
vn 0.2282 0.9736 0.0
vn 0.1006 0.9949 0.0
vn 0.1006 0.9949 0.0
vn 0.0 1.0 -0.0
vn 0.0 1.0 0.0
vn -0.1202 0.9928 0.0
vn -0.2302 0.9732 0.0
vn -0.2301 0.9732 0.0
vn -0.3141 0.9494 0.0
vn -0.3141 0.9494 0.0
vn 0.0052 1.0 0.0
vn 0.0052 1.0 0.0
vtan -0.9993 0.0261 -0.0251
vtan -0.9929 0.0853 -0.0828
vtan -0.9968 0.056 0.0578
vtan -1.0 0.0023 0.0021
vtan -0.9805 -0.1402 -0.1378
vtan -0.9961 -0.0634 -0.0616
vtan -1.0 0.0023 0.0023
vtan -0.5501 -0.1717 0.8173
vtan -0.9966 0.0597 0.0575
vtan -0.9877 0.1119 0.1091
vtan -0.5608 0.2284 -0.7958
vtan -0.9957 0.0016 -0.0923
vtan -0.8175 -0.4085 0.406
vtan -0.9945 -0.0693 0.078
vtan -0.9826 -0.1245 -0.1376
vtan -0.9808 -0.1371 0.1389
vtan -0.992 -0.0902 0.0882
vtan -0.9964 -0.0589 -0.0613
vtan -0.9991 -0.0313 0.03
vtan -0.9784 0.1456 -0.1465
vtan -0.9886 0.1031 0.1098
vtan -0.994 0.0716 -0.0822
vtan -0.9973 -0.0007 0.0729
vtan -0.8201 0.4075 -0.4018
vtan -0.9304 0.0152 -0.3663
vtan -0.9315 -0.0179 -0.3632
vtan -0.8782 -0.1532 -0.4531
vtan -0.8787 0.1516 -0.4526
vtan -0.8162 0.409 -0.4081
vtan -0.8186 -0.4069 -0.4054
vtan -0.8183 0.4069 0.406
vtan -0.8129 -0.4101 0.4135
vtan -0.9882 0.1341 0.0736
vtan -0.5333 0.0726 0.8428
vtan -0.1508 -0.6778 0.7197
vtan -0.1564 -0.7031 0.6936
vtan 0.9787 0.1828 0.0939
vtan 0.5298 0.099 0.8423
vtan -0.5333 0.0726 0.8428
vtan -0.9882 0.1341 0.0736
vtan 0.197 -0.7007 0.6858
vtan 0.1861 -0.6618 0.7262
vtan 0.0885 -0.7157 0.6927
vtan 0.0851 -0.6883 0.7204
vtan -0.0032 -0.7223 0.6916
vtan -0.0031 -0.6925 0.7214
vtan -0.0829 -0.7126 0.6966
vtan -0.0806 -0.6924 0.717
vtan -0.5196 -0.519 0.6787
vtan -0.4071 -0.4103 0.816
vtan 0.4065 -0.4104 0.8163
vtan 0.5157 -0.5327 0.671
vtan -0.5201 0.5141 0.6821
vtan -0.4117 0.4046 0.8166
vtan -0.5196 -0.519 0.6787
vtan 0.5108 0.5348 0.6731
vtan 0.4077 0.4077 0.8171
vtan 0.4077 0.4077 0.8171
vtan -0.9986 0.0527 0.0
vtan -0.9998 0.018 0.0
vtan -1.0 -0.0012 -0.0
vtan -0.9939 -0.0009 0.11
vtan -0.9941 -0.0001 0.1089
vtan -1.0 -0.0015 0.0
vtan -0.8165 -0.4086 -0.4079
vtan -0.8165 0.4086 0.408
vtan -1.0 0.0007 0.0
vtan -1.0 0.0017 0.0
vtan -0.8663 -0.1497 0.4765
vtan -0.9225 -0.016 0.3857
vtan -0.9942 -0.0003 -0.1075
vtan -0.994 -0.0015 -0.1097
vtan -0.87 0.1537 0.4685
vtan -0.925 0.0209 0.3794
vtan 1.0 0.0 0.0
f 0/0/0/0 1/1/1/1 2/2/2/2 
f 0/0/0/0 2/2/2/2 3/3/3/3 
f 4/4/4/4 5/5/5/5 6/3/6/6 
f 4/4/4/4 6/3/6/6 7/6/7/7 
f 6/3/6/6 8/2/8/8 9/7/9/9 
f 6/3/6/6 9/7/9/9 7/6/7/7 
f 10/8/10/10 4/4/4/4 7/6/7/7 
f 11/8/11/11 12/9/12/12 13/10/13/13 
f 11/8/11/11 13/10/13/13 14/4/14/14 
f 14/4/14/14 13/10/13/13 15/11/15/15 
f 14/4/14/14 15/11/15/15 16/12/16/16 
f 17/5/17/17 14/4/14/14 16/12/16/16 
f 17/5/17/17 16/12/16/16 18/13/18/18 
f 17/5/17/17 18/13/18/18 3/3/3/3 
f 18/13/18/18 0/0/0/0 3/3/3/3 
f 1/1/1/1 19/14/19/19 20/7/20/20 
f 1/1/1/1 20/7/20/20 2/2/2/2 
f 19/14/19/19 21/15/21/21 22/6/22/22 
f 19/14/19/19 22/6/22/22 20/7/20/20 
f 21/15/21/21 23/16/23/23 22/6/22/22 
f 24/17/24/24 25/18/25/25 26/19/26/26 
f 24/17/24/24 26/19/26/26 27/20/27/27 
f 28/20/28/28 29/19/29/29 30/21/30/30 
f 28/20/28/28 30/21/30/30 31/22/31/31 
f 22/23/22/32 7/24/7/33 9/25/9/34 
f 22/23/22/32 9/25/9/34 20/26/20/35 
f 11/27/11/36 10/28/10/37 7/29/7/38 
f 11/27/11/36 7/29/7/38 22/30/22/39 
f 14/31/14/40 4/32/4/41 10/28/10/37 
f 14/31/14/40 10/28/10/37 11/27/11/36 
f 17/33/17/42 5/34/5/43 4/32/4/41 
f 17/33/17/42 4/32/4/41 14/31/14/40 
f 3/35/3/44 6/36/6/45 5/34/5/43 
f 3/35/3/44 5/34/5/43 17/33/17/42 
f 2/37/2/46 8/38/8/47 6/36/6/45 
f 2/37/2/46 6/36/6/45 3/35/3/44 
f 20/26/20/35 9/25/9/34 8/38/8/47 
f 20/26/20/35 8/38/8/47 2/37/2/46 
f 32/39/32/48 30/40/30/49 29/41/29/50 
f 32/39/32/48 29/41/29/50 26/42/26/51 
f 33/43/33/52 31/44/31/53 30/45/30/49 
f 33/43/33/52 30/45/30/49 32/46/32/54 
f 27/47/27/55 28/48/28/56 31/49/31/53 
f 27/47/27/55 31/49/31/53 33/50/33/52 
f 26/51/26/51 29/52/29/50 28/53/28/57 
f 26/51/26/51 28/53/28/57 27/54/27/55 
f 34/55/34/58 35/56/35/59 36/57/36/60 
f 37/58/37/61 38/59/38/62 39/60/39/63 
f 37/58/37/61 39/60/39/63 34/55/34/58 
f 36/57/36/60 35/56/35/59 40/61/40/64 
f 36/57/36/60 40/61/40/64 41/62/41/65 
f 36/57/36/60 41/62/41/65 42/63/42/66 
f 23/16/23/23 40/61/40/64 35/56/35/59 
f 23/16/23/23 35/56/35/59 34/55/34/58 
f 23/16/23/23 34/55/34/58 39/60/39/63 
f 12/9/12/12 11/8/11/11 43/64/43/67 
f 27/20/27/27 33/22/33/68 44/65/44/69 
f 27/20/27/27 44/65/44/69 24/17/24/24 
f 41/62/41/65 12/9/12/12 43/64/43/67 
f 41/62/41/65 43/64/43/67 42/63/42/66 
f 39/60/39/63 38/59/38/62 45/66/45/70 
f 39/60/39/63 45/66/45/70 43/64/43/67 
f 22/6/22/22 39/60/39/63 43/64/43/67 
f 22/6/22/22 43/64/43/67 11/8/11/11 
f 22/6/22/22 23/16/23/23 39/60/39/63 
f 46/67/46/71 45/66/45/70 25/18/25/25 
f 46/67/46/71 25/18/25/25 24/17/24/24 
f 33/22/33/68 32/21/32/72 47/68/47/73 
f 33/22/33/68 47/68/47/73 44/65/44/69 
f 37/58/37/61 46/67/46/71 24/17/24/24 
f 37/58/37/61 24/17/24/24 44/65/44/69 
f 32/21/32/72 26/19/26/26 25/18/25/25 
f 32/21/32/72 25/18/25/25 47/68/47/73 
f 44/65/44/69 47/68/47/73 38/59/38/62 
f 44/65/44/69 38/59/38/62 37/58/37/61 
f 47/68/47/73 25/18/25/25 45/66/45/70 
f 47/68/47/73 45/66/45/70 38/59/38/62 
f 42/63/42/66 43/64/43/67 45/66/45/70 
f 42/63/42/66 45/66/45/70 46/67/46/71 
f 36/57/36/60 42/63/42/66 46/67/46/71 
f 36/57/36/60 46/67/46/71 34/55/34/58 
f 37/58/37/61 34/55/34/58 46/67/46/71 
f 40/61/48/74 48/61/48/74 49/62/48/74 
f 40/61/49/74 49/62/49/74 41/62/49/74 
f 41/62/50/74 49/62/50/74 50/9/50/74 
f 41/62/51/74 50/9/51/74 12/9/51/74 
f 23/16/52/74 51/16/52/74 48/61/52/74 
f 23/16/53/74 48/61/53/74 40/61/53/74 
f 21/15/54/74 52/15/54/74 51/16/54/74 
f 21/15/55/74 51/16/55/74 23/16/55/74 
f 19/14/56/74 53/14/56/74 52/15/56/74 
f 19/14/57/74 52/15/57/74 21/15/57/74 
f 1/1/58/74 54/1/58/74 53/14/58/74 
f 1/1/59/74 53/14/59/74 19/14/59/74 
f 0/0/60/74 55/0/60/74 54/1/60/74 
f 0/0/61/74 54/1/61/74 1/1/61/74 
f 55/0/62/74 0/0/62/74 18/13/62/74 
f 55/0/63/74 18/13/63/74 56/13/63/74 
f 16/12/64/74 57/12/64/74 56/13/64/74 
f 16/12/64/74 56/13/64/74 18/13/64/74 
f 15/11/65/74 58/11/65/74 57/12/65/74 
f 15/11/66/74 57/12/66/74 16/12/66/74 
f 13/10/67/74 59/10/67/74 58/11/67/74 
f 13/10/68/74 58/11/68/74 15/11/68/74 
f 12/9/69/74 50/9/69/74 59/10/69/74 
f 12/9/70/74 59/10/70/74 13/10/70/74 
