v 1297.1624 186.521 -299.6432
v 1296.3403 192.9854 -300.5645
v 1303.272 192.9854 -300.5645
v 1303.272 186.521 -299.6432
v 1295.6541 192.9854 -231.8534
v 1295.6541 192.9854 -299.75
v 1296.4304 186.521 -298.7744
v 1296.4304 186.521 -232.8289
v 1289.7017 208.8856 -224.8032
v 1289.7017 213.2486 -224.8451
v 1289.7017 213.2486 -306.7579
v 1289.7017 208.8857 -306.7998
v 1303.272 208.8856 -223.972
v 1303.272 213.2486 -223.972
v 1290.437 213.2486 -223.972
v 1290.4019 208.8856 -223.972
v 1297.7454 182.6523 -298.9672
v 1295.6218 184.5866 -301.5744
v 1303.272 184.5866 -301.5744
v 1303.272 182.6523 -298.9672
v 1294.8037 184.5866 -231.0001
v 1294.8037 184.5866 -300.603
v 1296.9998 182.6523 -298.0819
v 1296.9998 182.6523 -233.5212
v 1290.437 213.2486 -307.6307
v 1288.4695 215.4303 -310.0592
v 1303.272 215.4303 -310.0592
v 1303.272 213.2486 -307.6307
v 1287.6562 215.4302 -222.5092
v 1287.6562 215.4303 -309.0938
v 1290.5149 217.6117 -307.6307
v 1303.272 217.6117 -307.6307
v 1289.7017 217.6117 -224.9373
v 1289.7017 217.6117 -306.6657
v 1293.7395 201.9843 -303.6849
v 1290.4019 208.8857 -307.6307
v 1303.272 208.8857 -307.6307
v 1303.272 201.9843 -303.6849
v 1293.0256 201.9843 -302.8375
v 1293.0256 201.9843 -228.7656
v 1297.1624 186.521 -231.9601
v 1296.3403 192.9854 -231.0384
v 1295.6218 184.5866 -230.029
v 1297.7454 182.6523 -232.6358
v 1288.4695 215.4302 -221.5439
v 1290.5149 217.6117 -223.972
v 1293.7395 201.9843 -227.9181
v 1303.272 217.6117 -223.972
v 1303.272 192.9854 -231.0384
v 1303.272 186.521 -231.9601
v 1303.272 184.5866 -230.0288
v 1303.272 182.6523 -232.6357
v 1303.272 215.4302 -221.5439
v 1303.272 201.9843 -227.9182
gi 0 0 0 0
gi 0 0 0 0
gi 0 0 0 0
gi 0 0 0 0
gi 0 0 0 0
gi 0 0 0 0
gi 0 0 0 0
gi 0 0 0 0
gi 0 0 0 0
gi 0 0 0 0
gi 0 0 0 0
gi 0 0 0 0
gi 0 0 0 0
gi 0 0 0 0
gi 0 0 0 0
gi 0 0 0 0
gi 0 0 0 0
gi 0 0 0 0
gi 0 0 0 0
gi 0 0 0 0
gi 0 0 0 0
gi 0 0 0 0
gi 0 0 0 0
gi 0 0 0 0
gi 0 0 0 0
gi 0 0 0 0
gi 0 0 0 0
gi 0 0 0 0
gi 0 0 0 0
gi 0 0 0 0
gi 0 0 0 0
gi 0 0 0 0
gi 0 0 0 0
gi 0 0 0 0
gi 0 0 0 0
gi 0 0 0 0
gi 0 0 0 0
gi 0 0 0 0
gi 0 0 0 0
gi 0 0 0 0
gi 0 0 0 0
gi 0 0 0 0
gi 0 0 0 0
gi 0 0 0 0
gi 0 0 0 0
gi 0 0 0 0
gi 0 0 0 0
gi 0 0 0 0
gi 0 0 0 0
gi 0 0 0 0
gi 0 0 0 0
gi 0 0 0 0
gi 0 0 0 0
gi 0 0 0 0
gw 0.0 0.0 0.0 0.0
gw 0.0 0.0 0.0 0.0
gw 0.0 0.0 0.0 0.0
gw 0.0 0.0 0.0 0.0
gw 0.0 0.0 0.0 0.0
gw 0.0 0.0 0.0 0.0
gw 0.0 0.0 0.0 0.0
gw 0.0 0.0 0.0 0.0
gw 0.0 0.0 0.0 0.0
gw 0.0 0.0 0.0 0.0
gw 0.0 0.0 0.0 0.0
gw 0.0 0.0 0.0 0.0
gw 0.0 0.0 0.0 0.0
gw 0.0 0.0 0.0 0.0
gw 0.0 0.0 0.0 0.0
gw 0.0 0.0 0.0 0.0
gw 0.0 0.0 0.0 0.0
gw 0.0 0.0 0.0 0.0
gw 0.0 0.0 0.0 0.0
gw 0.0 0.0 0.0 0.0
gw 0.0 0.0 0.0 0.0
gw 0.0 0.0 0.0 0.0
gw 0.0 0.0 0.0 0.0
gw 0.0 0.0 0.0 0.0
gw 0.0 0.0 0.0 0.0
gw 0.0 0.0 0.0 0.0
gw 0.0 0.0 0.0 0.0
gw 0.0 0.0 0.0 0.0
gw 0.0 0.0 0.0 0.0
gw 0.0 0.0 0.0 0.0
gw 0.0 0.0 0.0 0.0
gw 0.0 0.0 0.0 0.0
gw 0.0 0.0 0.0 0.0
gw 0.0 0.0 0.0 0.0
gw 0.0 0.0 0.0 0.0
gw 0.0 0.0 0.0 0.0
gw 0.0 0.0 0.0 0.0
gw 0.0 0.0 0.0 0.0
gw 0.0 0.0 0.0 0.0
gw 0.0 0.0 0.0 0.0
gw 0.0 0.0 0.0 0.0
gw 0.0 0.0 0.0 0.0
gw 0.0 0.0 0.0 0.0
gw 0.0 0.0 0.0 0.0
gw 0.0 0.0 0.0 0.0
gw 0.0 0.0 0.0 0.0
gw 0.0 0.0 0.0 0.0
gw 0.0 0.0 0.0 0.0
gw 0.0 0.0 0.0 0.0
gw 0.0 0.0 0.0 0.0
gw 0.0 0.0 0.0 0.0
gw 0.0 0.0 0.0 0.0
gw 0.0 0.0 0.0 0.0
gw 0.0 0.0 0.0 0.0
vt 0.2773 0.6742
vt 0.2773 0.6911
vt 0.4476 0.6911
vt 0.4476 0.6742
vt 0.4453 0.6933
vt 0.2795 0.6933
vt 0.5504 0.8881
vt 0.5526 0.9084
vt 0.5337 0.9084
vt 0.5337 0.8881
vt 0.7614 0.91
vt 0.6053 0.91
vt 0.6076 0.8897
vt 0.7592 0.8897
vt 0.7776 0.96
vt 0.7775 0.9737
vt 0.5892 0.9737
vt 0.5891 0.96
vt 0.8287 0.9596
vt 0.8287 0.9733
vt 0.7937 0.9733
vt 0.7936 0.9596
vt 0.9865 0.7672
vt 0.9959 0.7791
vt 0.9632 0.7791
vt 0.9619 0.7672
vt 0.2524 0.779
vt 0.0111 0.779
vt 0.0112 0.7672
vt 0.2525 0.7672
vt 0.5337 0.882
vt 0.5546 0.882
vt 0.6034 0.8836
vt 0.7634 0.8836
vt 0.5687 0.9721
vt 0.5741 0.979
vt 0.5337 0.979
vt 0.5337 0.9721
vt 0.7829 0.9806
vt 0.5839 0.9806
vt 0.5685 0.9859
vt 0.5337 0.9859
vt 0.7773 0.9875
vt 0.5894 0.9875
vt 0.5597 0.9367
vt 0.5688 0.9584
vt 0.5337 0.9584
vt 0.5337 0.9367
vt 0.5982 0.9383
vt 0.7685 0.9383
vt 0.605 0.8907
vt 0.6028 0.9094
vt 0.8121 0.8892
vt 0.8098 0.9096
vt 0.8073 0.909
vt 0.8095 0.8902
vt 0.5867 0.9726
vt 0.5865 0.9593
vt 0.7912 0.9721
vt 0.791 0.9589
vt 0.6007 0.8862
vt 0.8052 0.8857
vt 0.8079 0.8832
vt 0.0078 0.7789
vt 0.0079 0.7672
vt 0.2558 0.7672
vt 0.2559 0.779
vt 0.5815 0.9806
vt 0.7884 0.9801
vt 0.786 0.9801
vt 0.5871 0.99
vt 0.7939 0.987
vt 0.7916 0.9896
vt 0.5957 0.9372
vt 0.8027 0.9379
vt 0.8002 0.9367
vt 0.0091 0.8976
vt 0.0091 0.876
vt 0.0109 0.8746
vt 0.1674 0.876
vt 0.1655 0.8746
vt 0.1674 0.8976
vt 0.8287 0.9096
vt 0.8287 0.8892
vt 0.2874 0.779
vt 0.2803 0.7672
vt 0.8287 0.8832
vt 0.8287 0.9801
vt 0.8287 0.987
vt 0.8287 0.9379
vn 0.0 -1.0 -0.0
vn 0.0 -1.0 0.0
vn -0.0 -1.0 0.0
vn 0.0 -1.0 -0.0
vn -0.3527 0.3982 -0.8468
vn -0.3927 -0.2994 -0.8696
vn 0.0 -0.2354 -0.9719
vn 0.0 0.316 -0.9488
vn -0.9105 -0.267 0.3158
vn -0.9104 -0.267 -0.316
vn -0.8967 0.3534 -0.2666
vn -0.8967 0.3534 0.2666
vn -0.8951 -0.273 0.3526
vn -0.8514 -0.455 0.261
vn -0.8513 -0.4551 -0.261
vn -0.895 -0.273 -0.3527
vn 0.0 -0.2568 0.9665
vn 0.0 -0.4072 0.9133
vn -0.3354 -0.5075 0.7937
vn -0.4175 -0.2861 0.8625
vn -0.1149 -0.9416 -0.3165
vn -0.4574 -0.0594 -0.8873
vn 0.0 -0.0739 -0.9973
vn -0.0 -0.9494 -0.314
vn -0.911 -0.0637 0.4075
vn -0.911 -0.0637 -0.4074
vn -0.3564 -0.9308 -0.0808
vn -0.3563 -0.9309 0.0809
vn -0.3353 -0.5075 -0.7937
vn -0.46 0.0025 -0.8879
vn 0.0 0.0 -1.0
vn 0.0 -0.4073 -0.9133
vn -0.9121 0.0031 0.41
vn -0.9121 0.0031 -0.41
vn -0.1314 0.9234 -0.3607
vn 0.0 0.9338 -0.3578
vn -0.4011 0.9113 0.0932
vn -0.4011 0.9113 -0.0932
vn -0.3492 -0.5056 -0.7889
vn -0.4174 -0.2861 -0.8625
vn 0.0 -0.2568 -0.9665
vn 0.0 -0.4138 -0.9104
vn -0.8417 -0.4587 -0.285
vn -0.8417 -0.4587 0.285
vn -0.3527 0.3982 0.8468
vn -0.3928 -0.2994 0.8695
vn -0.4574 -0.0594 0.8873
vn -0.1149 -0.9416 0.3166
vn -0.46 0.0025 0.8879
vn -0.1314 0.9234 0.3607
vn -0.3492 -0.5056 0.7889
vn 0.0 0.9338 0.3579
vn 0.0 -0.2355 0.9719
vn 0.0 0.316 0.9488
vn -0.0 -0.0739 0.9973
vn -0.0 -0.9494 0.314
vn 0.0 0.0 1.0
vn 0.0 -0.4138 0.9104
vtan -0.0 0.0 -1.0
vtan 0.0 0.0 -1.0
vtan -0.0 0.0 -1.0
vtan -0.0 0.0 -1.0
vtan -0.9357 -0.1501 0.3192
vtan -0.9197 0.1278 0.3713
vtan -1.0 0.0 0.0
vtan 0.3031 0.0889 0.9488
vtan -0.3054 -0.0814 0.9487
vtan -0.2398 0.1184 0.9636
vtan 0.248 -0.0977 0.9638
vtan 0.3373 0.1029 0.9358
vtan 0.2302 0.123 0.9653
vtan -0.2257 -0.1314 0.9653
vtan -0.3317 -0.1211 0.9356
vtan 1.0 -0.0 -0.0
vtan 1.0 0.0 0.0
vtan 0.9407 -0.1345 0.3115
vtan 0.9086 -0.1228 0.3991
vtan -0.9934 0.1089 0.0366
vtan -0.8893 0.0306 0.4564
vtan -1.0 0.0 0.0
vtan 0.4086 -0.0038 0.9127
vtan -0.408 -0.0043 0.913
vtan -0.2602 0.0158 0.9654
vtan 0.2602 -0.0157 0.9654
vtan -0.4083 0.2775 0.8696
vtan 0.4065 0.0284 0.9132
vtan -0.9421 0.1806 0.2825
vtan -0.8879 -0.0013 0.46
vtan 0.41 -0.0014 0.9121
vtan -0.4099 0.0144 0.912
vtan -0.9913 -0.1224 0.0478
vtan -1.0 0.0 -0.0
vtan 0.0375 -0.0853 0.9957
vtan 0.0093 0.1058 0.9943
vtan -0.937 0.1884 0.294
vtan -0.9087 0.1314 0.3962
vtan -0.2449 -0.146 0.9585
vtan 0.2502 0.1364 0.9585
vtan -0.6808 0.5117 0.5242
vtan -0.8111 -0.333 0.4809
vtan 0.9354 0.1727 0.3085
vtan 0.9192 -0.0985 0.3813
vtan 0.3843 -0.2637 0.8848
vtan 0.4244 0.5148 0.7449
vtan -0.6636 -0.4708 0.5814
vtan -0.7995 -0.3355 0.4982
vtan 0.4826 -0.4843 0.7298
vtan 0.4293 -0.3134 0.8471
vtan -0.611 0.7459 0.265
vtan 0.2829 0.6226 0.7296
vtan 0.8449 0.2823 0.4544
vtan -0.887 -0.0404 0.46
vtan -0.6696 -0.162 0.7249
vtan 0.9274 0.0126 0.3739
vtan 0.8888 0.0028 0.4583
vtan -0.8879 0.001 0.46
vtan 0.8879 -0.0001 0.46
vtan 0.4099 0.0329 0.9116
vtan -0.1603 0.3392 0.9269
vtan 0.9883 0.0934 0.121
vtan 0.9048 0.3782 0.1957
vtan -0.6357 -0.4907 0.5959
vtan 0.9368 -0.1684 0.3067
vtan 0.5065 -0.4876 0.7111
vtan 0.0005 0.3578 0.9338
vtan -0.036 0.3592 0.9326
vtan -0.0338 0.087 0.9956
vtan 0.0508 -0.3571 0.9327
vtan 0.0375 -0.0853 0.9957
vtan 0.0 -0.3579 0.9338
vtan 1.0 0.0 0.0
vtan 1.0 -0.0 0.0
vtan 1.0 -0.0 0.0
vtan 1.0 -0.0 -0.0
f 51/0/0/0 43/1/0/0 16/2/0/0 
f 51/0/1/1 16/2/1/1 19/3/1/1 
f 22/4/2/2 16/2/2/2 43/1/2/2 
f 22/4/3/3 43/1/3/3 23/5/3/3 
f 0/6/4/4 1/7/5/5 2/8/6/6 
f 0/6/4/4 2/8/6/6 3/9/7/6 
f 4/10/8/7 5/11/9/8 6/12/10/9 
f 4/10/8/7 6/12/10/9 7/13/11/10 
f 8/14/12/11 9/15/13/12 10/16/14/13 
f 8/14/12/11 10/16/14/13 11/17/15/14 
f 12/18/16/15 13/19/17/16 14/20/18/17 
f 12/18/16/15 14/20/18/17 15/21/19/18 
f 16/22/20/19 17/23/21/20 18/24/22/6 
f 16/22/20/19 18/24/22/6 19/25/23/21 
f 20/26/24/22 21/27/25/23 22/28/26/24 
f 20/26/24/22 22/28/26/24 23/29/27/25 
f 0/6/4/4 3/9/7/6 18/30/22/6 
f 0/6/4/4 18/30/22/6 17/31/21/20 
f 7/13/11/10 6/12/10/9 21/32/25/26 
f 7/13/11/10 21/32/25/26 20/33/24/27 
f 24/34/28/28 25/35/29/29 26/36/30/6 
f 24/34/28/28 26/36/30/6 27/37/31/6 
f 28/38/32/30 29/39/33/31 10/16/14/13 
f 28/38/32/30 10/16/14/13 9/15/13/12 
f 30/40/34/32 31/41/35/33 26/36/30/6 
f 30/40/34/32 26/36/30/6 25/35/29/29 
f 32/42/36/34 33/43/37/35 29/39/33/31 
f 32/42/36/34 29/39/33/31 28/38/32/30 
f 34/44/38/36 35/45/39/37 36/46/40/6 
f 34/44/38/36 36/46/40/6 37/47/41/6 
f 8/14/12/11 11/17/15/14 38/48/42/38 
f 8/14/12/11 38/48/42/38 39/49/43/39 
f 1/7/5/5 34/44/38/36 37/47/41/6 
f 1/7/5/5 37/47/41/6 2/8/6/6 
f 39/49/43/39 38/48/42/38 5/11/9/8 
f 39/49/43/39 5/11/9/8 4/10/8/7 
f 0/50/4/40 6/12/10/9 5/11/9/8 
f 0/50/4/40 5/11/9/8 1/51/5/41 
f 40/52/44/42 41/53/45/43 4/54/8/44 
f 40/52/44/42 4/54/8/44 7/55/11/45 
f 11/17/15/14 10/16/14/13 24/56/28/46 
f 11/17/15/14 24/56/28/46 35/57/39/47 
f 15/21/19/18 14/20/18/17 9/58/13/48 
f 15/21/19/18 9/58/13/48 8/59/12/49 
f 0/50/4/40 17/60/21/50 21/32/25/26 
f 0/50/4/40 21/32/25/26 6/12/10/9 
f 40/52/44/42 7/55/11/45 20/61/24/51 
f 40/52/44/42 20/61/24/51 42/62/46/52 
f 21/27/25/23 17/63/21/53 16/64/20/54 
f 21/27/25/23 16/64/20/54 22/28/26/24 
f 20/26/24/22 23/29/27/25 43/65/47/55 
f 20/26/24/22 43/65/47/55 42/66/46/56 
f 24/56/28/46 10/16/14/13 29/39/33/31 
f 24/56/28/46 29/39/33/31 25/67/29/57 
f 14/20/18/17 44/68/48/58 28/69/32/59 
f 14/20/18/17 28/69/32/59 9/58/13/48 
f 29/39/33/31 33/43/37/35 30/70/34/60 
f 29/39/33/31 30/70/34/60 25/67/29/57 
f 28/69/32/59 44/68/48/58 45/71/49/61 
f 28/69/32/59 45/71/49/61 32/72/36/62 
f 34/73/38/63 38/48/42/38 11/17/15/14 
f 34/73/38/63 11/17/15/14 35/57/39/47 
f 46/74/50/64 15/21/19/18 8/59/12/49 
f 46/74/50/64 8/59/12/49 39/75/43/65 
f 1/51/5/41 5/11/9/8 38/48/42/38 
f 1/51/5/41 38/48/42/38 34/73/38/63 
f 41/53/45/43 46/74/50/64 39/75/43/65 
f 41/53/45/43 39/75/43/65 4/54/8/44 
f 31/76/35/66 30/77/34/67 33/78/37/68 
f 31/76/35/66 33/78/37/68 45/79/49/69 
f 33/78/37/68 32/80/36/70 45/79/49/69 
f 47/81/51/71 31/76/35/66 45/79/49/69 
f 48/82/52/16 41/53/45/43 40/52/44/42 
f 48/82/52/16 40/52/44/42 49/83/53/16 
f 36/46/40/6 35/45/39/37 24/34/28/28 
f 36/46/40/6 24/34/28/28 27/37/31/6 
f 50/84/54/72 42/66/46/56 43/65/47/55 
f 50/84/54/72 43/65/47/55 51/85/55/73 
f 50/86/54/74 49/83/53/16 40/52/44/42 
f 50/86/54/74 40/52/44/42 42/62/46/52 
f 52/87/56/16 44/68/48/58 14/20/18/17 
f 52/87/56/16 14/20/18/17 13/19/17/16 
f 52/87/56/16 47/88/51/16 45/71/49/61 
f 52/87/56/16 45/71/49/61 44/68/48/58 
f 12/18/16/15 15/21/19/18 46/74/50/64 
f 12/18/16/15 46/74/50/64 53/89/57/75 
f 53/89/57/75 46/74/50/64 41/53/45/43 
f 53/89/57/75 41/53/45/43 48/82/52/16 
