v -92.332 687.1913 -250.5396
v -92.7945 687.1913 -251.0022
v -92.9693 687.1913 -251.4242
v -34.9295 687.1913 -250.3648
v -92.7945 687.1913 -308.7212
v -92.9693 687.1913 -252.7965
v -92.9693 687.1913 -307.1475
v -92.9693 687.1913 -308.2992
v -91.9099 687.1913 -309.3586
v -92.332 687.1913 -309.1838
v -34.5074 687.1913 -309.1838
v -90.937 687.1913 -309.3586
v -36.2474 687.1913 -309.3586
v -34.9295 687.1913 -309.3586
v -33.8701 687.1913 -308.2992
v -34.0449 687.1913 -308.7212
v -34.0449 687.1913 -251.0022
v -33.8701 687.1913 -307.1275
v -33.8701 687.1913 -252.1808
v -33.8701 687.1913 -251.4243
v -34.5074 687.1913 -250.5396
v -35.3794 687.1913 -250.3648
v -90.6288 687.1913 -250.3648
v -91.9099 687.1913 -250.3648
v -92.7945 695.6663 -251.0022
v -92.332 695.6663 -250.5396
v -91.9099 695.6663 -250.3648
v -92.9693 695.6663 -308.2992
v -34.5074 695.6663 -250.5396
v -90.6288 695.6663 -250.3648
v -35.3794 695.6663 -250.3648
v -34.9295 695.6663 -250.3648
v -33.8701 695.6663 -251.4243
v -34.0449 695.6663 -251.0022
v -34.0449 695.6663 -308.7212
v -33.8701 695.6663 -252.1808
v -33.8701 695.6663 -307.1275
v -33.8701 695.6663 -308.2992
v -34.9295 695.6663 -309.3586
v -34.5074 695.6663 -309.1838
v -92.332 695.6663 -309.1838
v -36.2474 695.6663 -309.3586
v -90.937 695.6663 -309.3586
v -91.9099 695.6663 -309.3586
v -92.7945 695.6663 -308.7212
v -92.9693 695.6663 -307.1475
v -92.9693 695.6663 -252.7965
v -92.9693 695.6663 -251.4242
v -90.6946 691.4311 -250.018
v -91.9789 693.3951 -250.018
v -91.9789 687.5381 -250.018
v -90.6946 689.467 -250.018
v -33.5233 691.4311 -252.1136
v -33.5233 693.3951 -251.3553
v -33.5233 687.5381 -251.3553
v -33.5233 689.467 -252.1136
v -33.7509 695.3195 -250.8057
v -34.311 695.3195 -250.2456
v -34.311 687.5381 -250.2456
v -33.7509 687.5381 -250.8057
v -93.0885 695.3195 -250.8057
v -93.0885 687.5381 -250.8057
v -92.5284 687.5381 -250.2456
v -92.5284 695.3195 -250.2456
v -34.311 695.3195 -309.4777
v -33.7509 695.3195 -308.9177
v -33.7509 687.5381 -308.9177
v -34.311 687.5381 -309.4777
v -34.8605 695.3195 -250.018
v -34.8605 693.3951 -250.018
v -34.8605 687.5381 -250.018
v -91.9789 695.3195 -250.018
v -33.5233 693.3951 -308.3681
v -33.5233 687.5381 -308.3681
v -33.5233 695.3195 -251.3553
v -93.3161 693.3951 -251.3553
v -93.3161 687.5381 -251.3553
v -93.3161 695.3195 -251.3553
v -34.8605 693.3951 -309.7054
v -34.8605 687.5381 -309.7054
v -33.5233 687.5381 -307.1937
v -35.3115 687.5381 -250.018
v -90.6946 695.3195 -250.018
v -33.5233 695.3195 -252.1136
v -34.8605 695.3195 -309.7054
v -33.5233 695.3195 -308.3681
v -36.1816 691.4311 -309.7054
v -36.1816 689.467 -309.7054
v -93.3161 691.4311 -307.2136
v -93.3161 693.3951 -308.3681
v -93.3161 687.5381 -308.3681
v -93.3161 689.467 -307.2136
v -93.0885 695.3195 -308.9177
v -92.5284 695.3195 -309.4777
v -92.5284 687.5381 -309.4777
v -93.0885 687.5381 -308.9177
v -91.9788 695.3195 -309.7054
v -91.9788 693.3951 -309.7054
v -91.9788 687.5381 -309.7054
v -93.3161 695.3195 -308.3681
v -93.3161 687.5381 -252.7309
v -91.0037 687.5381 -309.7054
v -36.1816 695.3195 -309.7054
v -93.3161 695.3195 -307.2136
v -35.3115 693.3951 -250.018
v -33.5233 695.3195 -307.1937
v -33.5233 693.3951 -307.1937
v -91.0037 693.3951 -309.7054
v -93.3161 693.3951 -252.7309
v -90.6946 687.5381 -250.018
v -90.2124 689.467 -250.018
v -35.3115 695.3195 -250.018
v -90.6946 693.3951 -250.018
v -35.985 693.3951 -250.018
v -35.985 691.4311 -252.7302
v -35.3115 691.4311 -250.018
v -35.3115 689.467 -250.018
v -33.5233 689.467 -307.1937
v -33.5233 687.5381 -252.1136
v -33.5233 693.3951 -306.67
v -35.4722 691.4311 -306.67
v -33.5233 691.4311 -307.1937
v -33.5233 689.467 -252.8391
v -33.5233 693.3951 -252.1136
v -91.0037 689.467 -309.7054
v -36.1816 687.5381 -309.7054
v -91.0037 695.3195 -309.7054
v -90.4338 693.3951 -309.7054
v -90.4338 691.4311 -307.7225
v -91.0037 691.4311 -309.7054
v -36.8105 689.467 -309.7054
v -36.1816 693.3951 -309.7054
v -93.3161 689.467 -252.7309
v -93.3161 687.5381 -307.2136
v -93.3161 695.3195 -252.7309
v -93.3161 693.3951 -253.3856
v -90.8644 691.4311 -253.3856
v -93.3161 691.4311 -252.7309
v -93.3161 689.467 -306.7096
v -93.3161 693.3951 -307.2136
v -90.2124 691.4311 -252.7302
v -35.4722 691.4311 -252.8391
v -36.8105 691.4311 -307.7225
v -90.8644 691.4311 -306.7096
v -93.3161 693.3951 -306.7096
v -93.3161 689.467 -253.3856
v -36.8105 693.3951 -309.7054
v -90.4338 689.467 -309.7054
v -33.5233 693.3951 -252.8391
v -33.5233 689.467 -306.67
v -90.2124 693.3951 -250.018
v -35.985 689.467 -250.018
vt 0.9853 0.6631
vt 0.9879 0.6656
vt 0.9888 0.6679
vt 0.6734 0.6622
vt 0.9879 0.9792
vt 0.9888 0.6754
vt 0.9888 0.9706
vt 0.9888 0.9769
vt 0.9831 0.9826
vt 0.9853 0.9817
vt 0.6713 0.9817
vt 0.9778 0.9826
vt 0.6807 0.9826
vt 0.6736 0.9826
vt 0.6678 0.9769
vt 0.6687 0.9792
vt 0.6687 0.6656
vt 0.6678 0.9705
vt 0.6678 0.672
vt 0.6678 0.6679
vt 0.6713 0.6631
vt 0.9761 0.6621
vt 0.6758 0.6622
vt 0.9831 0.6621
vt 0.5626 0.7873
vt 0.5616 0.7884
vt 0.5606 0.7888
vt 0.5631 0.6536
vt 0.4266 0.7884
vt 0.5577 0.7888
vt 0.4286 0.7888
vt 0.4276 0.7888
vt 0.4252 0.7863
vt 0.4256 0.7873
vt 0.4256 0.6526
vt 0.4252 0.7845
vt 0.4252 0.6563
vt 0.4252 0.6536
vt 0.4276 0.6511
vt 0.4266 0.6515
vt 0.5616 0.6515
vt 0.4307 0.6511
vt 0.5583 0.6511
vt 0.5606 0.6511
vt 0.5626 0.6526
vt 0.5631 0.6563
vt 0.5631 0.7831
vt 0.5631 0.7863
vt 0.0347 0.6166
vt 0.045 0.6233
vt 0.0143 0.6233
vt 0.0244 0.6166
vt 0.0347 0.3112
vt 0.045 0.3152
vt 0.0143 0.3152
vt 0.0244 0.3112
vt 0.0551 0.3181
vt 0.0551 0.321
vt 0.0143 0.321
vt 0.0143 0.3181
vt 0.0551 0.6291
vt 0.0143 0.6291
vt 0.0143 0.6262
vt 0.0551 0.6262
vt 0.0551 0.0105
vt 0.0551 0.0134
vt 0.0143 0.0134
vt 0.0143 0.0105
vt 0.0551 0.3239
vt 0.045 0.3239
vt 0.0143 0.3239
vt 0.0551 0.6233
vt 0.045 0.0163
vt 0.0143 0.0163
vt 0.0551 0.3152
vt 0.045 0.632
vt 0.0143 0.632
vt 0.0551 0.632
vt 0.045 0.0076
vt 0.0143 0.0076
vt 0.0124 0.0165
vt 0.0143 0.0224
vt 0.0124 0.0226
vt 0.0125 0.3241
vt 0.0143 0.3262
vt 0.0125 0.3264
vt 0.0569 0.6231
vt 0.0551 0.6166
vt 0.0569 0.6164
vt 0.057 0.3151
vt 0.0551 0.3112
vt 0.057 0.3112
vt 0.0125 0.6292
vt 0.0125 0.6262
vt 0.0126 0.321
vt 0.0126 0.318
vt 0.0122 0.0134
vt 0.0125 0.0104
vt 0.0569 0.6262
vt 0.0572 0.6292
vt 0.057 0.318
vt 0.0568 0.321
vt 0.0572 0.0104
vt 0.0572 0.0134
vt 0.0126 0.623
vt 0.0576 0.0079
vt 0.0551 0.0076
vt 0.0126 0.6317
vt 0.0125 0.3152
vt 0.0126 0.0079
vt 0.0571 0.6317
vt 0.0569 0.3241
vt 0.0572 0.0163
vt 0.0551 0.0163
vt 0.0347 0.6164
vt 0.0244 0.6164
vt 0.0347 0.3091
vt 0.0244 0.3091
vt 0.0143 0.0235
vt 0.0124 0.0237
vt 0.0143 0.329
vt 0.0125 0.3292
vt 0.0551 0.6164
vt 0.0569 0.6162
vt 0.0551 0.3091
vt 0.057 0.3091
vt 0.045 0.3262
vt 0.0551 0.0224
vt 0.045 0.0224
vt 0.045 0.329
vt 0.045 0.0235
vt 0.0143 0.6166
vt 0.0244 0.6141
vt 0.0126 0.6163
vt 0.0551 0.3262
vt 0.0569 0.3265
vt 0.045 0.6166
vt 0.045 0.3298
vt 0.0347 0.3298
vt 0.0347 0.3262
vt 0.0244 0.3262
vt 0.0244 0.0224
vt 0.0143 0.3112
vt 0.0125 0.3112
vt 0.0572 0.0225
vt 0.045 0.0252
vt 0.0347 0.0252
vt 0.0347 0.0224
vt 0.0244 0.3074
vt 0.045 0.3112
vt 0.0244 0.329
vt 0.0143 0.6164
vt 0.0126 0.6161
vt 0.0551 0.329
vt 0.0569 0.3292
vt 0.045 0.332
vt 0.0347 0.332
vt 0.0347 0.329
vt 0.0244 0.6131
vt 0.045 0.6164
vt 0.0244 0.0235
vt 0.0143 0.3091
vt 0.0125 0.3091
vt 0.0551 0.0235
vt 0.0572 0.0235
vt 0.045 0.0269
vt 0.0347 0.0269
vt 0.0347 0.0235
vt 0.0244 0.3065
vt 0.045 0.3091
vt 0.0347 0.6141
vt 0.0347 0.3074
vt 0.0347 0.6131
vt 0.0347 0.3065
vt 0.045 0.3065
vt 0.0244 0.0269
vt 0.045 0.6131
vt 0.0244 0.332
vt 0.045 0.3074
vt 0.0244 0.0252
vt 0.045 0.6141
vt 0.0244 0.3298
vn -0.2318 -0.9088 0.3469
vn -0.3469 -0.9088 0.2318
vn -0.4092 -0.9088 0.0814
vn 0.0814 -0.9088 0.4092
vn -0.3469 -0.9088 -0.2317
vn -0.3827 -0.9239 0.0
vn -0.3827 -0.9239 0.0
vn -0.4092 -0.9088 -0.0814
vn -0.0814 -0.9088 -0.4092
vn -0.2318 -0.9088 -0.347
vn 0.2319 -0.9088 -0.3469
vn 0.0 -0.9239 -0.3827
vn 0.0 -0.9239 -0.3827
vn 0.0814 -0.9088 -0.4092
vn 0.4092 -0.9088 -0.0814
vn 0.3469 -0.9088 -0.2318
vn 0.3469 -0.9088 0.2317
vn 0.3827 -0.9239 0.0
vn 0.3827 -0.9239 0.0
vn 0.4092 -0.9088 0.0814
vn 0.2318 -0.9088 0.3469
vn 0.0 -0.9239 0.3827
vn 0.0 -0.924 0.3824
vn -0.0814 -0.9088 0.4092
vn -0.3469 0.9088 0.2318
vn -0.2318 0.9088 0.3469
vn -0.0814 0.9088 0.4092
vn -0.4092 0.9088 -0.0814
vn 0.2318 0.9088 0.3469
vn 0.0 0.9239 0.3827
vn 0.0 0.9239 0.3827
vn 0.0814 0.9089 0.4089
vn 0.4092 0.9088 0.0814
vn 0.3469 0.9088 0.2317
vn 0.3469 0.9088 -0.2318
vn 0.3827 0.9239 0.0
vn 0.3827 0.9239 0.0
vn 0.4092 0.9088 -0.0814
vn 0.0814 0.9088 -0.4092
vn 0.2318 0.9089 -0.3467
vn -0.2319 0.9088 -0.347
vn 0.0 0.9239 -0.3827
vn 0.0 0.9239 -0.3826
vn -0.0814 0.9088 -0.4092
vn -0.3469 0.9088 -0.2319
vn -0.3827 0.9239 0.0
vn -0.3827 0.9239 0.0
vn -0.4092 0.9088 0.0814
vn 0.5691 -0.0 0.8223
vn -0.1951 0.0 0.9808
vn -0.1812 -0.371 0.9108
vn 0.2652 0.0651 0.962
vn 0.8983 0.0 -0.4393
vn 0.9808 0.0 0.1951
vn 0.9108 -0.371 0.1811
vn 0.9747 0.0774 -0.2095
vn 0.7721 0.371 0.5159
vn 0.5159 0.371 0.7721
vn 0.5159 -0.3709 0.7722
vn 0.7722 -0.371 0.5159
vn -0.7722 0.371 0.5159
vn -0.7721 -0.371 0.5159
vn -0.5159 -0.371 0.7721
vn -0.5159 0.371 0.7721
vn 0.516 0.3709 -0.7721
vn 0.7722 0.371 -0.5159
vn 0.7721 -0.371 -0.5159
vn 0.516 -0.371 -0.7721
vn 0.1812 0.371 0.9108
vn 0.1951 0.0 0.9808
vn 0.1812 -0.3709 0.9108
vn -0.1812 0.3709 0.9108
vn 0.9808 0.0 -0.1951
vn 0.9108 -0.371 -0.1811
vn 0.9108 0.371 0.1812
vn -0.9808 0.0 0.195
vn -0.9108 -0.371 0.1812
vn -0.9108 0.371 0.1811
vn 0.1952 0.0 -0.9808
vn 0.1812 -0.371 -0.9108
vn 0.9239 -0.3827 0.0
vn 0.0 -0.3827 0.9239
vn 0.0 0.3827 0.9239
vn 0.9239 0.3827 0.0
vn 0.1812 0.371 -0.9108
vn 0.9108 0.371 -0.1811
vn -0.4733 -0.0 -0.8809
vn -0.2249 0.072 -0.9717
vn -0.8358 -0.0 0.549
vn -0.9808 0.0 -0.195
vn -0.9108 -0.371 -0.1811
vn -0.9641 0.066 0.2571
vn -0.7721 0.371 -0.5159
vn -0.5159 0.371 -0.7721
vn -0.5159 -0.3709 -0.7722
vn -0.7722 -0.371 -0.5159
vn -0.1812 0.371 -0.9108
vn -0.1952 0.0 -0.9808
vn -0.1812 -0.371 -0.9108
vn -0.9108 0.371 -0.1811
vn -0.9239 -0.3827 0.0
vn 0.0 -0.3827 -0.9239
vn 0.0 0.3827 -0.9239
vn -0.9239 0.3827 0.0
vn -0.2414 -0.0828 0.9669
vn 0.9239 0.3827 0.0
vn 0.9687 -0.0639 0.2397
vn 0.2338 -0.0678 -0.9699
vn -0.9683 -0.079 -0.2371
vn 0.0 -0.3827 0.9239
vn 0.2844 0.3209 0.9034
vn 0.0 0.3827 0.9239
vn 0.2652 -0.0651 0.962
vn -0.2576 -0.3323 0.9073
vn -0.4282 -0.0 0.9037
vn -0.5149 0.0 0.8572
vn -0.2414 0.0828 0.9669
vn 0.9687 0.0639 0.2397
vn 0.9239 -0.3827 0.0
vn 0.9287 -0.2731 0.2509
vn 0.9042 0.0 0.4271
vn 0.8624 -0.0 0.5062
vn 0.9344 0.2812 -0.2186
vn 0.9747 -0.0774 -0.2095
vn 0.2338 0.0678 -0.9699
vn 0.0 -0.3827 -0.9239
vn 0.0 0.3827 -0.9239
vn 0.2448 -0.278 -0.9289
vn 0.4171 -0.0 -0.9088
vn 0.4931 0.0 -0.87
vn -0.2352 0.2805 -0.9306
vn -0.2249 -0.072 -0.9717
vn -0.9683 0.079 -0.2371
vn -0.9239 -0.3827 0.0
vn -0.9239 0.3827 0.0
vn -0.9149 -0.3158 -0.2513
vn -0.9069 0.0 -0.4213
vn -0.864 -0.0 -0.5035
vn -0.9114 0.3076 0.2735
vn -0.9641 -0.066 0.2571
vn 0.4649 -0.0 0.8854
vn 0.9258 -0.0 -0.378
vn -0.4026 -0.0 -0.9154
vn -0.8915 -0.0 0.453
vn -0.9114 -0.3076 0.2735
vn -0.915 0.3157 -0.2513
vn -0.2353 -0.2805 -0.9306
vn 0.2447 0.278 -0.9289
vn 0.9344 -0.2812 -0.2186
vn 0.9287 0.2731 0.2509
vn 0.2844 -0.3209 0.9034
vn -0.2577 0.3322 0.9073
vtan -0.9728 0.2163 -0.0835 1.0
vtan -0.9378 0.3324 -0.1001 1.0
vtan -0.9124 0.4076 -0.0358 1.0
vtan -0.9967 -0.0716 0.0391 1.0
vtan -0.9378 0.3333 0.0969 1.0
vtan -0.8698 0.3603 0.3372 1.0
vtan -0.9223 0.382 -0.0577 1.0
vtan -0.9124 0.4067 0.0463 1.0
vtan -0.9967 0.0716 0.0391 1.0
vtan -0.9723 0.2054 0.1116 1.0
vtan -0.9727 -0.2163 -0.0835 1.0
vtan -1.0 0.0 -0.0 1.0
vtan -1.0 0.0 0.0 1.0
vtan -0.9967 -0.0742 -0.0334 1.0
vtan -0.9124 -0.4076 -0.036 1.0
vtan -0.9378 -0.3325 -0.0999 1.0
vtan -0.9378 -0.3333 0.0972 1.0
vtan -0.8786 -0.3639 0.3092 1.0
vtan -0.9239 -0.3827 0.0024 1.0
vtan -0.9123 -0.4088 0.0222 1.0
vtan -0.9723 -0.2054 0.1115 1.0
vtan -1.0 -0.0001 -0.0003 1.0
vtan 0.0 0.0 0.0 -1.0
vtan -1.0 -0.0 0.0 -1.0
vtan -0.9967 0.0742 -0.0334 1.0
vtan -0.9379 -0.3384 -0.0771 1.0
vtan -0.9725 -0.2076 -0.1059 1.0
vtan -0.9967 -0.0742 -0.0334 1.0
vtan -0.9124 -0.4077 0.0351 1.0
vtan -0.9728 0.2167 0.0825 1.0
vtan -1.0 -0.0 0.0 1.0
vtan -0.9967 0.0742 0.0334 1.0
vtan -0.9124 0.408 0.0313 1.0
vtan -0.9379 0.3378 0.0794 1.0
vtan -0.9379 0.3384 -0.0771 1.0
vtan -0.613 0.2539 -0.7482 1.0
vtan -0.9229 0.3823 -0.0449 1.0
vtan -0.9099 0.4131 0.0377 1.0
vtan -0.9967 0.0742 -0.0335 1.0
vtan -0.9725 0.2077 -0.1058 1.0
vtan -0.9727 -0.2167 0.0825 1.0
vtan -1.0 0.0 0.0 1.0
vtan -0.9967 -0.0742 0.0334 1.0
vtan -0.9379 -0.3377 0.0796 1.0
vtan -0.4768 -0.1975 -0.8565 1.0
vtan -0.9232 -0.3824 0.0371 1.0
vtan -0.9116 -0.411 0.0061 1.0
vtan -0.0 1.0 0.0 1.0
vtan 0.0 1.0 0.0 1.0
vtan -0.0669 0.9286 0.3649 1.0
vtan -0.0173 0.9979 -0.0628 1.0
vtan 0.0 1.0 0.0 1.0
vtan 0.3578 0.9282 0.1019 1.0
vtan -0.0757 0.997 0.0163 1.0
vtan -0.3402 0.9271 -0.1575 1.0
vtan -0.233 0.9282 -0.2903 1.0
vtan 0.1687 0.9277 0.333 1.0
vtan 0.3029 0.9286 0.2145 1.0
vtan 0.3029 0.9286 -0.2145 1.0
vtan -0.3296 0.928 0.1739 1.0
vtan -0.233 0.9282 0.2903 1.0
vtan 0.1687 0.9277 -0.333 1.0
vtan -0.1739 0.928 0.3296 1.0
vtan -0.2902 0.9282 0.233 1.0
vtan 0.333 0.9277 -0.1687 1.0
vtan 0.2144 0.9286 -0.3029 1.0
vtan -0.0795 0.9286 -0.3624 1.0
vtan 0.0319 0.9279 0.3715 1.0
vtan 0.0323 0.9279 -0.3715 1.0
vtan 0.3715 0.9279 -0.0321 1.0
vtan -0.3677 0.9284 -0.0524 1.0
vtan 0.0 1.0 0.0 1.0
vtan -0.3507 0.9268 0.1346 1.0
vtan 0.3451 0.925 -0.1591 1.0
vtan 0.1591 0.925 -0.3451 1.0
vtan 0.8923 0.4172 -0.1723 1.0
vtan 0.3825 0.9234 -0.0323 1.0
vtan 0.9222 0.382 -0.061 1.0
vtan 0.1718 0.4172 0.8924 1.0
vtan 0.0339 0.9233 0.3825 1.0
vtan 0.0644 0.3817 0.9221 1.0
vtan 0.1725 0.4172 -0.8923 1.0
vtan 0.0302 0.9235 -0.3825 1.0
vtan 0.0606 0.382 -0.9222 1.0
vtan -0.8854 0.417 -0.2051 1.0
vtan -0.3818 0.9216 -0.07 1.0
vtan -0.914 0.3786 -0.1461 1.0
vtan -0.75 0.4172 0.5132 1.0
vtan -0.4366 0.4159 0.7978 1.0
vtan 0.5505 0.4166 0.7234 1.0
vtan 0.8061 0.4152 0.4217 1.0
vtan 0.7234 0.4166 -0.5506 1.0
vtan 0.4431 0.4162 -0.794 1.0
vtan 0.5505 0.4166 -0.7234 1.0
vtan 0.794 0.4161 -0.4432 1.0
vtan -0.7486 0.4171 -0.5154 1.0
vtan -0.4415 0.4161 -0.795 1.0
vtan -0.5132 0.4171 0.7501 1.0
vtan -0.7885 0.4164 0.4526 1.0
vtan -0.0721 0.4149 0.907 1.0
vtan -0.3544 0.4101 0.8404 1.0
vtan -0.1347 0.9268 0.3507 1.0
vtan -0.8404 0.4101 0.3543 1.0
vtan 0.8915 0.4172 0.1767 1.0
vtan 0.2909 0.4144 -0.8624 1.0
vtan 0.8624 0.4144 -0.2907 1.0
vtan -0.096 0.4155 -0.9045 1.0
vtan -0.8924 0.4172 0.172 1.0
vtan -0.3568 0.9281 0.1067 1.0
vtan 0.0 1.0 -0.0 1.0
vtan 0.014 0.927 -0.3748 1.0
vtan 0.0162 0.9974 0.0702 1.0
vtan -0.0 1.0 -0.0 1.0
vtan -0.3578 0.9282 -0.1019 1.0
vtan 0.0637 0.9978 -0.017 1.0
vtan 0.3402 0.9271 0.1574 1.0
vtan 0.233 0.9282 0.2902 1.0
vtan -0.1687 0.9277 -0.3329 1.0
vtan -0.3029 0.9286 -0.2144 1.0
vtan 0.0799 0.9286 0.3624 1.0
vtan -0.0323 0.9279 -0.3715 1.0
vtan 0.3677 0.9285 0.0524 1.0
vtan -0.9044 0.4158 0.0954 1.0
vtan -0.3713 0.9279 0.0335 1.0
vtan -0.3825 0.9235 0.03 1.0
vtan -0.9222 0.382 0.06 1.0
vtan -0.1726 0.4172 -0.8923 1.0
vtan -0.0321 0.9234 -0.3825 1.0
vtan -0.0627 0.3819 -0.9221 1.0
vtan -0.0954 0.4158 0.9044 1.0
vtan -0.0335 0.9279 0.3713 1.0
vtan -0.0309 0.9234 0.3825 1.0
vtan -0.0605 0.382 0.9222 1.0
vtan 0.8859 0.4171 0.2028 1.0
vtan 0.3818 0.9217 0.0692 1.0
vtan 0.9143 0.3787 0.1436 1.0
vtan -0.5506 0.4166 -0.7234 1.0
vtan -0.8061 0.4152 -0.4217 1.0
vtan 0.7485 0.4172 0.5154 1.0
vtan 0.4415 0.4162 0.7949 1.0
vtan -0.8915 0.4172 -0.1765 1.0
vtan 0.1061 0.4161 0.9031 1.0
vtan -0.02 0.9966 0.0803 1.0
vtan -0.3821 0.9224 0.0556 1.0
vtan 0.062 0.998 0.0154 1.0
vtan 0.0159 0.9977 -0.0659 1.0
vtan 0.3639 0.9286 -0.0723 1.0
vtan -0.0767 0.9969 -0.0188 1.0
vtan -0.009 0.9238 0.3827 1.0
vtan -0.0105 0.9433 -0.3318 1.0
vtan -0.0189 0.3826 0.9237 1.0
vtan -0.0192 0.9237 -0.3826 1.0
vtan -0.0246 0.3826 -0.9236 1.0
vtan 0.0173 0.9979 0.0627 1.0
vtan -0.0117 0.94 0.341 1.0
vtan 0.0 1.0 0.0 1.0
vtan 0.0 1.0 0.0 1.0
vtan 0.0201 0.9966 -0.0803 1.0
vtan -0.062 0.998 -0.0153 1.0
vtan 0.3817 0.9214 0.0735 1.0
vtan 0.9139 0.3785 0.1467 1.0
vtan -0.9189 0.3806 0.1037 1.0
vtan 0.2792 0.9602 0.0119 1.0
vtan 0.0 1.0 -0.0 1.0
vtan 0.0 1.0 0.0 1.0
vtan -0.2864 0.9581 0.0081 1.0
vtan 0.0757 0.997 -0.0163 1.0
vtan -0.0159 0.9977 0.0659 1.0
vtan 0.0098 0.9238 -0.3827 1.0
vtan 0.0189 0.3826 -0.9237 1.0
vtan 0.0319 0.9234 0.3825 1.0
vtan 0.0629 0.3819 0.9221 1.0
vtan 0.0103 0.9587 -0.2842 1.0
vtan 0.0 1.0 -0.0 1.0
vtan -0.0 1.0 -0.0 1.0
vtan 0.0094 0.958 0.2865 1.0
vtan 0.0544 0.414 -0.9086 1.0
vtan -0.0162 0.9974 -0.0702 1.0
vtan 0.0768 0.9969 0.0188 1.0
vtan -0.3817 0.9215 -0.0716 1.0
vtan -0.9142 0.3787 -0.1444 1.0
vtan 0.3817 0.9215 -0.0712 1.0
vtan 0.8916 0.4172 -0.1758 1.0
vtan 0.9143 0.3787 -0.1433 1.0
vtan -0.3241 0.946 -0.0088 1.0
vtan -0.0 1.0 0.0 1.0
vtan -0.0 1.0 0.0 1.0
vtan 0.3171 0.9484 -0.01 1.0
vtan -0.0638 0.9978 0.017 1.0
vtan 0.0 1.0 0.0 1.0
vtan 0.0 1.0 -0.0 1.0
vtan -0.0 1.0 -0.0 1.0
vtan -0.0 1.0 0.0 1.0
vtan -0.317 0.9484 0.0101 1.0
vtan 0.324 0.946 0.0089 1.0
vtan -0.0094 0.958 -0.2865 1.0
vtan -0.0103 0.9587 0.2842 1.0
vtan 0.2865 0.9581 -0.008 1.0
vtan -0.2792 0.9602 -0.0118 1.0
vtan 0.0105 0.9433 0.3318 1.0
vtan 0.0116 0.94 -0.3409 1.0
f 0/0/0/0 1/1/1/1 2/2/2/2 
f 0/0/0/0 2/2/2/2 3/3/3/3 
f 4/4/4/4 5/5/5/5 6/6/6/6 
f 4/4/4/4 6/6/6/6 7/7/7/7 
f 5/5/5/5 4/4/4/4 8/8/8/8 
f 5/5/5/5 8/8/8/8 2/2/2/2 
f 4/4/4/4 9/9/9/9 8/8/8/8 
f 10/10/10/10 11/11/11/11 12/12/12/12 
f 10/10/10/10 12/12/12/12 13/13/13/13 
f 11/11/11/11 10/10/10/10 14/14/14/14 
f 11/11/11/11 14/14/14/14 8/8/8/8 
f 10/10/10/10 15/15/15/15 14/14/14/14 
f 8/8/8/8 14/14/14/14 3/3/3/3 
f 8/8/8/8 3/3/3/3 2/2/2/2 
f 16/16/16/16 17/17/17/17 18/18/18/18 
f 16/16/16/16 18/18/18/18 19/19/19/19 
f 17/17/17/17 16/16/16/16 3/3/3/3 
f 17/17/17/17 3/3/3/3 14/14/14/14 
f 16/16/16/16 20/20/20/20 3/3/3/3 
f 22/21/21/21 0/0/0/0 3/3/3/3 
f 22/21/21/12 3/3/3/22 21/22/22/23 
f 23/23/23/24 0/0/0/0 22/21/21/21 
f 24/24/24/25 25/25/25/26 26/26/26/27 
f 24/24/24/25 26/26/26/27 27/27/27/28 
f 28/28/28/29 29/29/29/30 30/30/30/12 
f 28/28/28/29 30/30/30/12 31/31/31/31 
f 29/29/29/30 28/28/28/29 32/32/32/32 
f 29/29/29/30 32/32/32/32 26/26/26/27 
f 28/28/28/29 33/33/33/33 32/32/32/32 
f 34/34/34/34 35/35/35/35 36/36/36/36 
f 34/34/34/34 36/36/36/36 37/37/37/37 
f 35/35/35/35 34/34/34/34 38/38/38/38 
f 35/35/35/35 38/38/38/38 32/32/32/32 
f 34/34/34/34 39/39/39/39 38/38/38/38 
f 32/32/32/32 38/38/38/38 27/27/27/28 
f 32/32/32/32 27/27/27/28 26/26/26/27 
f 40/40/40/40 41/41/41/41 42/42/42/12 
f 40/40/40/40 42/42/42/12 43/43/43/42 
f 41/41/41/41 40/40/40/40 27/27/27/28 
f 41/41/41/41 27/27/27/28 38/38/38/38 
f 40/40/40/40 44/44/44/43 27/27/27/28 
f 45/45/45/44 46/46/46/45 24/24/24/25 
f 45/45/45/44 24/24/24/25 27/27/27/28 
f 47/47/47/46 24/24/24/25 46/46/46/45 
f 48/48/48/47 49/49/49/48 50/50/50/49 
f 48/48/48/47 50/50/50/49 51/51/51/50 
f 52/52/52/51 53/53/53/48 54/54/54/52 
f 52/52/52/51 54/54/54/52 55/55/55/53 
f 56/56/56/54 57/57/57/55 58/58/58/56 
f 56/56/56/54 58/58/58/56 59/59/59/57 
f 60/60/60/58 61/61/61/59 62/62/62/60 
f 60/60/60/58 62/62/62/60 63/63/63/61 
f 64/64/64/62 65/65/65/63 66/66/66/64 
f 64/64/64/62 66/66/66/64 67/67/67/65 
f 57/57/57/55 68/68/68/66 69/69/69/48 
f 57/57/57/55 69/69/69/48 58/58/58/56 
f 70/70/70/67 58/58/58/56 69/69/69/48 
f 62/62/62/60 50/50/50/49 49/49/49/48 
f 62/62/62/60 49/49/49/48 63/63/63/61 
f 71/71/71/68 63/63/63/61 49/49/49/48 
f 66/66/66/64 65/65/65/63 72/72/72/48 
f 66/66/66/64 72/72/72/48 73/73/73/69 
f 56/56/56/54 54/54/54/52 53/53/53/48 
f 56/56/56/54 53/53/53/48 74/74/74/70 
f 59/59/59/57 54/54/54/52 56/56/56/54 
f 75/75/75/71 76/76/76/72 60/60/60/58 
f 75/75/75/71 60/60/60/58 77/77/77/73 
f 60/60/60/58 76/76/76/72 61/61/61/59 
f 78/78/78/48 64/64/64/62 67/67/67/65 
f 78/78/78/48 67/67/67/65 79/79/79/74 
f 14/80/14/75 73/73/73/69 80/81/80/76 
f 14/80/14/75 80/81/80/76 17/82/17/77 
f 3/83/3/78 70/70/70/67 81/84/81/79 
f 3/83/3/78 81/84/81/79 21/85/22/80 
f 26/86/26/81 71/71/71/68 82/87/82/82 
f 26/86/26/81 82/87/82/82 29/88/29/83 
f 32/89/32/84 74/74/74/70 83/90/83/85 
f 32/89/32/84 83/90/83/85 35/91/35/86 
f 1/92/1/87 0/93/0/88 62/62/62/60 
f 1/92/1/87 62/62/62/60 61/61/61/59 
f 20/94/20/89 16/95/16/90 59/59/59/57 
f 20/94/20/89 59/59/59/57 58/58/58/56 
f 15/96/15/91 10/97/10/92 67/67/67/65 
f 15/96/15/91 67/67/67/65 66/66/66/64 
f 25/98/25/93 24/99/24/94 60/60/60/58 
f 25/98/25/93 60/60/60/58 63/63/63/61 
f 33/100/33/95 28/101/28/96 57/57/57/55 
f 33/100/33/95 57/57/57/55 56/56/56/54 
f 39/102/39/97 34/103/34/98 65/65/65/63 
f 39/102/39/97 65/65/65/63 64/64/64/62 
f 0/93/0/88 23/104/23/99 50/50/50/49 
f 0/93/0/88 50/50/50/49 62/62/62/60 
f 3/83/3/78 20/94/20/89 58/58/58/56 
f 3/83/3/78 58/58/58/56 70/70/70/67 
f 14/80/14/75 15/96/15/91 66/66/66/64 
f 14/80/14/75 66/66/66/64 73/73/73/69 
f 26/86/26/81 25/98/25/93 63/63/63/61 
f 26/86/26/81 63/63/63/61 71/71/71/68 
f 32/89/32/84 33/100/33/95 56/56/56/54 
f 32/89/32/84 56/56/56/54 74/74/74/70 
f 38/105/38/100 39/102/39/97 64/64/64/62 
f 38/105/38/100 64/64/64/62 84/106/84/101 
f 2/107/2/102 1/92/1/87 61/61/61/59 
f 2/107/2/102 61/61/61/59 76/76/76/72 
f 16/95/16/90 19/108/19/103 54/54/54/52 
f 16/95/16/90 54/54/54/52 59/59/59/57 
f 10/97/10/92 13/109/13/104 79/79/79/74 
f 10/97/10/92 79/79/79/74 67/67/67/65 
f 24/99/24/94 47/110/47/105 77/77/77/73 
f 24/99/24/94 77/77/77/73 60/60/60/58 
f 28/101/28/96 31/111/31/106 68/68/68/66 
f 28/101/28/96 68/68/68/66 57/57/57/55 
f 34/103/34/98 37/112/37/107 85/113/85/108 
f 34/103/34/98 85/113/85/108 65/65/65/63 
f 86/114/86/109 78/49/78/48 79/50/79/110 
f 86/114/86/109 79/50/79/110 87/115/87/111 
f 88/116/88/112 89/53/89/48 90/54/90/113 
f 88/116/88/112 90/54/90/113 91/117/91/114 
f 92/56/92/115 93/57/93/116 94/58/94/117 
f 92/56/92/115 94/58/94/117 95/59/95/118 
f 93/57/93/116 96/68/96/119 97/69/97/71 
f 93/57/93/116 97/69/97/71 94/58/94/117 
f 98/70/98/120 94/58/94/117 97/69/97/71 
f 92/56/92/115 90/54/90/113 89/53/89/48 
f 92/56/92/115 89/53/89/48 99/74/99/121 
f 95/59/95/118 90/54/90/113 92/56/92/115 
f 2/80/2/122 76/73/76/123 100/118/100/124 
f 2/80/2/122 100/118/100/124 5/119/5/125 
f 8/83/8/126 98/70/98/120 101/120/101/127 
f 8/83/8/126 101/120/101/127 11/121/11/128 
f 38/86/38/129 84/71/84/130 102/122/102/131 
f 38/86/38/129 102/122/102/131 41/123/41/132 
f 27/89/27/133 99/74/99/121 103/124/103/134 
f 27/89/27/133 103/124/103/134 45/125/45/135 
f 9/94/9/136 4/95/4/137 95/59/95/118 
f 9/94/9/136 95/59/95/118 94/58/94/117 
f 44/100/44/138 40/101/40/139 93/57/93/116 
f 44/100/44/138 93/57/93/116 92/56/92/115 
f 8/83/8/126 9/94/9/136 94/58/94/117 
f 8/83/8/126 94/58/94/117 98/70/98/120 
f 27/89/27/133 44/100/44/138 92/56/92/115 
f 27/89/27/133 92/56/92/115 99/74/99/121 
f 4/95/4/137 7/108/7/140 90/54/90/113 
f 4/95/4/137 90/54/90/113 95/59/95/118 
f 40/101/40/139 43/111/43/141 96/68/96/119 
f 40/101/40/139 96/68/96/119 93/57/93/116 
f 69/69/69/48 68/68/68/66 104/126/104/142 
f 105/127/105/143 106/128/106/144 72/72/72/48 
f 105/127/105/143 72/72/72/48 85/113/85/108 
f 97/69/97/71 96/68/96/119 107/129/107/145 
f 75/72/75/48 77/113/77/146 108/130/108/147 
f 109/131/109/148 110/132/110/149 51/51/51/50 
f 109/131/109/148 50/50/50/49 23/104/23/99 
f 109/131/109/148 23/104/23/99 22/133/21/150 
f 111/134/111/151 30/135/30/152 29/88/29/83 
f 111/134/111/151 29/88/29/83 82/87/82/82 
f 82/87/82/82 71/71/71/68 112/136/112/153 
f 112/136/112/153 49/49/49/48 48/48/48/47 
f 109/131/109/148 22/133/21/150 21/85/22/80 
f 109/131/109/148 21/85/22/80 81/84/81/79 
f 111/134/111/151 113/137/113/154 104/126/104/142 
f 113/137/113/154 114/138/114/155 115/139/115/156 
f 113/137/113/154 115/139/115/156 104/126/104/142 
f 81/84/81/79 70/70/70/67 116/140/116/157 
f 111/134/111/151 68/68/68/66 31/111/31/106 
f 111/134/111/151 31/111/31/106 30/135/30/152 
f 80/81/80/76 73/73/73/69 117/141/117/158 
f 118/142/118/159 18/143/18/160 17/82/17/77 
f 118/142/118/159 17/82/17/77 80/81/80/76 
f 105/127/105/143 85/113/85/108 37/112/37/107 
f 105/127/105/143 37/112/37/107 36/144/36/161 
f 105/127/105/143 119/145/119/162 106/128/106/144 
f 119/145/119/162 120/146/120/163 121/147/121/164 
f 119/145/119/162 121/147/121/164 106/128/106/144 
f 118/142/118/159 122/148/122/165 55/55/55/53 
f 105/127/105/143 36/144/36/161 35/91/35/86 
f 105/127/105/143 35/91/35/86 83/90/83/85 
f 118/142/118/159 54/54/54/52 19/108/19/103 
f 118/142/118/159 19/108/19/103 18/143/18/160 
f 83/90/83/85 74/74/74/70 123/149/123/166 
f 123/149/123/166 53/53/53/48 52/52/52/51 
f 101/120/101/127 98/70/98/120 124/150/124/167 
f 125/151/125/168 12/152/12/169 11/121/11/128 
f 125/151/125/168 11/121/11/128 101/120/101/127 
f 126/153/126/170 96/68/96/119 43/111/43/141 
f 126/153/126/170 43/111/43/141 42/154/42/171 
f 126/153/126/170 127/155/127/172 107/129/107/145 
f 127/155/127/172 128/156/128/173 129/157/129/174 
f 127/155/127/172 129/157/129/174 107/129/107/145 
f 125/151/125/168 130/158/130/175 87/115/87/111 
f 126/153/126/170 42/154/42/171 41/123/41/132 
f 126/153/126/170 41/123/41/132 102/122/102/131 
f 125/151/125/168 79/50/79/110 13/104/13/176 
f 125/151/125/168 13/104/13/176 12/152/12/169 
f 78/49/78/48 131/159/131/177 102/122/102/131 
f 78/49/78/48 102/122/102/131 84/71/84/130 
f 131/159/131/177 78/49/78/48 86/114/86/109 
f 100/118/100/124 76/73/76/123 132/160/132/178 
f 133/161/133/179 6/162/6/180 5/119/5/125 
f 133/161/133/179 5/119/5/125 100/118/100/124 
f 134/163/134/181 77/113/77/146 47/112/47/182 
f 134/163/134/181 47/112/47/182 46/164/46/183 
f 134/163/134/181 135/165/135/184 108/130/108/147 
f 135/165/135/184 136/166/136/185 137/167/137/186 
f 135/165/135/184 137/167/137/186 108/130/108/147 
f 133/161/133/179 138/168/138/187 91/117/91/114 
f 134/163/134/181 46/164/46/183 45/125/45/135 
f 134/163/134/181 45/125/45/135 103/124/103/134 
f 133/161/133/179 90/54/90/113 7/108/7/140 
f 133/161/133/179 7/108/7/140 6/162/6/180 
f 103/124/103/134 99/74/99/121 139/169/139/188 
f 139/169/139/188 89/53/89/48 88/116/88/112 
f 110/132/110/149 140/170/140/189 48/48/48/47 
f 110/132/110/149 48/48/48/47 51/51/51/50 
f 122/148/122/165 141/171/141/190 52/52/52/51 
f 122/148/122/165 52/52/52/51 55/55/55/53 
f 130/158/130/175 142/172/142/191 86/114/86/109 
f 130/158/130/175 86/114/86/109 87/115/87/111 
f 138/168/138/187 143/173/143/192 88/116/88/112 
f 138/168/138/187 88/116/88/112 91/117/91/114 
f 143/173/143/192 136/166/136/185 135/165/135/184 
f 143/173/143/192 135/165/135/184 144/174/144/193 
f 137/167/137/186 136/166/136/185 145/175/145/194 
f 137/167/137/186 145/175/145/194 132/160/132/178 
f 136/166/136/185 143/173/143/192 138/168/138/187 
f 136/166/136/185 138/168/138/187 145/175/145/194 
f 88/116/88/112 143/173/143/192 144/174/144/193 
f 88/116/88/112 144/174/144/193 139/169/139/188 
f 142/172/142/191 128/156/128/173 127/155/127/172 
f 142/172/142/191 127/155/127/172 146/176/146/195 
f 129/157/129/174 128/156/128/173 147/177/147/196 
f 129/157/129/174 147/177/147/196 124/150/124/167 
f 128/156/128/173 142/172/142/191 130/158/130/175 
f 128/156/128/173 130/158/130/175 147/177/147/196 
f 86/114/86/109 142/172/142/191 146/176/146/195 
f 86/114/86/109 146/176/146/195 131/159/131/177 
f 141/171/141/190 120/146/120/163 119/145/119/162 
f 141/171/141/190 119/145/119/162 148/178/148/197 
f 121/147/121/164 120/146/120/163 149/179/149/198 
f 121/147/121/164 149/179/149/198 117/141/117/158 
f 120/146/120/163 141/171/141/190 122/148/122/165 
f 120/146/120/163 122/148/122/165 149/179/149/198 
f 52/52/52/51 141/171/141/190 148/178/148/197 
f 52/52/52/51 148/178/148/197 123/149/123/166 
f 140/170/140/189 114/138/114/155 113/137/113/154 
f 140/170/140/189 113/137/113/154 150/180/150/199 
f 115/139/115/156 114/138/114/155 151/181/151/200 
f 115/139/115/156 151/181/151/200 116/140/116/157 
f 114/138/114/155 140/170/140/189 110/132/110/149 
f 114/138/114/155 110/132/110/149 151/181/151/200 
f 48/48/48/47 140/170/140/189 150/180/150/199 
f 48/48/48/47 150/180/150/199 112/136/112/153 
f 69/69/69/48 104/126/104/142 115/139/115/156 
f 83/90/83/85 123/149/123/166 148/178/148/197 
f 149/179/149/198 122/148/122/165 118/142/118/159 
f 149/179/149/198 118/142/118/159 80/81/80/76 
f 150/180/150/199 113/137/113/154 111/134/111/151 
f 150/180/150/199 111/134/111/151 82/87/82/82 
f 81/84/81/79 116/140/116/157 151/181/151/200 
f 148/178/148/197 119/145/119/162 105/127/105/143 
f 148/178/148/197 105/127/105/143 83/90/83/85 
f 80/81/80/76 117/141/117/158 149/179/149/198 
f 72/72/72/48 106/128/106/144 121/147/121/164 
f 147/177/147/196 130/158/130/175 125/151/125/168 
f 147/177/147/196 125/151/125/168 101/120/101/127 
f 102/122/102/131 131/159/131/177 146/176/146/195 
f 146/176/146/195 127/155/127/172 126/153/126/170 
f 146/176/146/195 126/153/126/170 102/122/102/131 
f 97/69/97/71 107/129/107/145 129/157/129/174 
f 145/175/145/194 138/168/138/187 133/161/133/179 
f 145/175/145/194 133/161/133/179 100/118/100/124 
f 103/124/103/134 139/169/139/188 144/174/144/193 
f 101/120/101/127 124/150/124/167 147/177/147/196 
f 75/72/75/48 108/130/108/147 137/167/137/186 
f 82/87/82/82 112/136/112/153 150/180/150/199 
f 151/181/151/200 110/132/110/149 109/131/109/148 
f 151/181/151/200 109/131/109/148 81/84/81/79 
f 100/118/100/124 132/160/132/178 145/175/145/194 
f 144/174/144/193 135/165/135/184 134/163/134/181 
f 144/174/144/193 134/163/134/181 103/124/103/134 
f 54/54/54/52 118/142/118/159 55/55/55/53 
f 74/74/74/70 53/53/53/48 123/149/123/166 
f 68/68/68/66 111/134/111/151 104/126/104/142 
f 115/139/115/156 116/140/116/157 70/70/70/67 
f 115/139/115/156 70/70/70/67 69/69/69/48 
f 65/65/65/63 85/113/85/108 72/72/72/48 
f 78/78/78/48 84/106/84/101 64/64/64/62 
f 79/50/79/110 125/151/125/168 87/115/87/111 
f 121/147/121/164 117/141/117/158 73/73/73/69 
f 121/147/121/164 73/73/73/69 72/72/72/48 
f 99/74/99/121 89/53/89/48 139/169/139/188 
f 129/157/129/174 124/150/124/167 98/70/98/120 
f 129/157/129/174 98/70/98/120 97/69/97/71 
f 90/54/90/113 133/161/133/179 91/117/91/114 
f 96/68/96/119 126/153/126/170 107/129/107/145 
f 77/113/77/146 134/163/134/181 108/130/108/147 
f 71/71/71/68 49/49/49/48 112/136/112/153 
f 50/50/50/49 109/131/109/148 51/51/51/50 
f 137/167/137/186 132/160/132/178 76/73/76/123 
f 137/167/137/186 76/73/76/123 75/72/75/48 
