v -436.7146 665.9816 227.0266
v -436.7146 666.7592 228.9609
v -436.7146 666.7592 223.9755
v -436.7146 665.9816 225.7034
v -436.7146 672.3748 221.5996
v -436.7146 670.5941 220.5602
v -436.7146 670.5941 230.5228
v -436.7146 672.3748 230.096
v -436.7146 674.1555 223.5414
v -436.7146 674.1555 228.5654
v -436.7146 668.2844 223.005
v -436.7146 668.5825 230.2384
v -436.7146 662.7213 216.3786
v -436.7146 661.1245 219.2418
v -429.8381 670.5941 230.5228
v -429.8381 672.3748 230.096
v -429.8381 674.1555 228.5654
v -429.8381 668.2844 223.005
v -429.8381 666.7592 223.9755
v -429.8381 666.7592 228.9609
v -429.8381 668.5825 230.2384
v -429.8381 661.1245 219.2418
v -429.8381 662.7213 216.3786
v -429.8381 665.9816 227.0266
v -429.8381 665.9816 225.7034
v -429.8381 670.5941 220.5602
v -429.8381 672.3748 221.5996
v -429.8381 674.1555 223.5414
vt 0.1992 0.5029
vt 0.2019 0.5199
vt 0.1809 0.4846
vt 0.1937 0.4935
vt 0.1311 0.4913
vt 0.1394 0.4765
vt 0.1813 0.5471
vt 0.1669 0.5515
vt 0.1267 0.5126
vt 0.1478 0.5482
vt 0.166 0.4841
vt 0.1943 0.5366
vt 0.1776 0.4138
vt 0.2009 0.4273
vt 0.0645 0.2791
vt 0.0646 0.2653
vt 0.1179 0.2654
vt 0.1179 0.2792
vt 0.0646 0.2515
vt 0.118 0.2515
vt 0.1178 0.3595
vt 0.0645 0.3594
vt 0.0645 0.3476
vt 0.1178 0.3476
vt 0.0645 0.3089
vt 0.0645 0.2947
vt 0.1179 0.2948
vt 0.1179 0.3089
vt 0.0644 0.415
vt 0.1178 0.415
vt 0.0644 0.4372
vt 0.1177 0.4373
vt 0.1564 0.5656
vt 0.1671 0.564
vt 0.1821 0.5684
vt 0.1415 0.5741
vt 0.1331 0.6072
vt 0.2144 0.5958
vt 0.2079 0.6115
vt 0.1386 0.6212
vt 0.1941 0.6282
vt 0.1531 0.634
vt 0.1918 0.5797
vt 0.1331 0.5904
vt 0.2143 0.517
vt 0.2395 0.5268
vt 0.0645 0.3239
vt 0.1179 0.324
vt 0.1179 0.3342
vt 0.0645 0.3342
vn -0.6667 -0.7317 0.1416
vn -0.6483 -0.5964 0.4734
vn -0.6479 -0.5759 -0.4985
vn -0.6627 -0.7322 -0.1571
vn -1.0 0.0 0.0
vn -1.0 -0.0 0.0
vn -0.6674 0.0353 0.7439
vn -0.6578 0.3429 0.6706
vn -1.0 -0.0 0.0
vn -0.8236 0.3697 0.4301
vn -0.9575 -0.288 0.012
vn -0.6582 -0.2763 0.7003
vn -0.7117 -0.6135 -0.3422
vn -0.5761 -0.7835 0.233
vn 0.6674 0.0353 0.7439
vn 0.6578 0.3429 0.6706
vn 0.8236 0.3698 0.4301
vn 0.9575 -0.2881 0.0119
vn 0.6479 -0.5759 -0.4985
vn 0.6483 -0.5964 0.4734
vn 0.6582 -0.2763 0.7003
vn 0.576 -0.7835 0.233
vn 0.7117 -0.6135 -0.3422
vn 0.6668 -0.7317 0.1416
vn 0.6628 -0.7321 -0.1572
vn 1.0 0.0 0.0
vn 1.0 0.0 0.0
vn 1.0 0.0 0.0
vtan 0.6538 -0.4831 0.5824 1.0
vtan 0.745 -0.6251 0.2327 1.0
vtan 0.1615 -0.7435 0.649 1.0
vtan 0.4284 -0.5428 0.7224 1.0
vtan 0.0 -0.8608 0.509 1.0
vtan 0.0 -0.8604 0.5096 1.0
vtan 0.2482 -0.9312 0.2668 1.0
vtan 0.0303 -0.8776 0.4784 1.0
vtan 0.0 -0.8583 0.5131 1.0
vtan -0.0799 -0.8264 0.5574 1.0
vtan 0.2512 -0.8134 0.5246 1.0
vtan 0.4877 -0.8651 0.1171 1.0
vtan 0.2676 -0.6871 0.6755 1.0
vtan 0.7478 -0.39 0.5373 1.0
vtan -0.7447 0.0341 0.6665 1.0
vtan -0.7532 0.302 0.5844 1.0
vtan -0.7532 -0.298 -0.5865 1.0
vtan -0.7447 -0.0291 -0.6667 1.0
vtan -0.5672 0.5391 0.6226 1.0
vtan -0.5672 -0.5369 -0.6246 1.0
vtan -0.2883 0.9568 -0.0373 1.0
vtan -0.2883 -0.9565 0.0434 1.0
vtan -0.7617 -0.4906 -0.4232 1.0
vtan -0.7617 0.4899 0.4241 1.0
vtan -0.7614 -0.5065 0.4047 1.0
vtan -0.7528 -0.2391 0.6132 1.0
vtan -0.7528 0.2431 -0.6117 1.0
vtan -0.7614 0.5078 -0.4031 1.0
vtan -0.8174 -0.552 0.1646 1.0
vtan -0.8174 0.5524 -0.1636 1.0
vtan -0.7025 -0.6221 -0.3456 1.0
vtan -0.7025 0.62 0.3493 1.0
vtan 0.1669 -0.0386 -0.9852 1.0
vtan -0.0335 0.1806 -0.983 1.0
vtan -0.2941 0.4145 -0.8612 1.0
vtan 0.4289 -0.2276 -0.8742 1.0
vtan 0.7166 0.2412 -0.6544 1.0
vtan -0.0 0.138 -0.9904 1.0
vtan -0.0 0.139 -0.9903 1.0
vtan 0.5149 0.4451 -0.7327 1.0
vtan -0.0 0.1391 -0.9903 1.0
vtan 0.3323 0.2999 -0.8942 1.0
vtan 0.0495 0.1234 -0.9911 1.0
vtan 0.7068 -0.0937 -0.7012 1.0
vtan 0.2071 -0.1359 -0.9688 1.0
vtan -0.1876 0.3034 -0.9342 1.0
vtan -0.7453 -0.6543 0.1282 1.0
vtan -0.7453 0.6549 -0.1251 1.0
vtan -0.7488 0.6478 0.1401 1.0
vtan -0.7488 -0.648 -0.1391 1.0
f 0/0/0/0 1/1/1/1 2/2/2/2 
f 0/0/0/0 2/2/2/2 3/3/3/3 
f 4/4/4/4 5/5/5/5 6/6/6/6 
f 4/4/4/4 6/6/6/6 7/7/7/7 
f 8/8/8/8 4/4/4/4 7/7/7/7 
f 8/8/8/8 7/7/7/7 9/9/9/9 
f 6/6/6/6 5/5/5/5 10/10/10/10 
f 6/6/6/6 10/10/10/10 11/11/11/11 
f 1/1/1/1 11/11/11/11 10/10/10/10 
f 1/1/1/1 10/10/10/10 2/2/2/2 
f 10/10/10/10 5/5/5/5 12/12/12/12 
f 10/10/10/10 12/12/12/12 13/13/13/13 
f 14/14/14/14 15/15/15/15 7/16/7/16 
f 14/14/14/14 7/16/7/16 6/17/6/17 
f 7/16/7/16 15/15/15/15 16/18/16/18 
f 7/16/7/16 16/18/16/18 9/19/9/19 
f 10/20/10/20 17/21/17/21 18/22/18/22 
f 10/20/10/20 18/22/18/22 2/23/2/23 
f 19/24/19/24 20/25/20/25 11/26/11/26 
f 19/24/19/24 11/26/11/26 1/27/1/27 
f 21/28/21/28 17/21/17/21 10/20/10/20 
f 21/28/21/28 10/20/10/20 13/29/13/29 
f 22/30/22/30 21/28/21/28 13/29/13/29 
f 22/30/22/30 13/29/13/29 12/31/12/31 
f 23/32/23/32 24/33/24/33 18/34/18/34 
f 23/32/23/32 18/34/18/34 19/35/19/35 
f 14/36/14/36 25/37/25/37 26/38/26/38 
f 14/36/14/36 26/38/26/38 15/39/15/39 
f 15/39/15/39 26/38/26/38 27/40/27/40 
f 15/39/15/39 27/40/27/40 16/41/16/41 
f 17/42/17/42 25/37/25/37 14/36/14/36 
f 17/42/17/42 14/36/14/36 20/43/20/43 
f 19/35/19/35 18/34/18/34 17/42/17/42 
f 19/35/19/35 17/42/17/42 20/43/20/43 
f 17/42/17/42 21/44/21/44 22/45/22/45 
f 17/42/17/42 22/45/22/45 25/37/25/37 
f 23/46/23/46 0/47/0/47 3/48/3/48 
f 23/46/23/46 3/48/3/48 24/49/24/49 
f 0/47/0/47 23/46/23/46 19/24/19/24 
f 0/47/0/47 19/24/19/24 1/27/1/27 
f 11/26/11/26 20/25/20/25 14/14/14/14 
f 11/26/11/26 14/14/14/14 6/17/6/17 
f 2/23/2/23 18/22/18/22 24/49/24/49 
f 2/23/2/23 24/49/24/49 3/48/3/48 
