v 493.0905 842.05 -230.8684
v 491.9643 842.3416 -230.9465
v 491.9643 831.9463 -269.7425
v 493.0905 831.6548 -269.6644
v 491.14 843.1379 -231.1598
v 491.14 832.7424 -269.9559
v 490.8382 844.2256 -231.4513
v 490.8382 833.8303 -270.2473
v 491.14 845.3134 -231.7428
v 491.14 834.9181 -270.5388
v 491.9643 846.1097 -231.9561
v 491.9643 835.7142 -270.7522
v 493.0905 846.4012 -232.0342
v 493.0905 836.0057 -270.8303
v 494.2166 846.1097 -231.9561
v 494.2166 835.7142 -270.7522
v 495.041 845.3134 -231.7428
v 495.041 834.9181 -270.5388
v 495.3427 844.2256 -231.4513
v 495.3427 833.8303 -270.2473
v 495.041 843.1379 -231.1598
v 495.041 832.7424 -269.9559
v 494.2166 842.3416 -230.9465
v 494.2166 831.9463 -269.7425
v 493.0905 852.4454 -192.0723
v 491.9643 852.7369 -192.1504
v 491.14 853.5331 -192.3638
v 490.8382 854.621 -192.6553
v 491.14 855.7087 -192.9467
v 491.9643 856.5049 -193.1601
v 493.0905 856.7964 -193.2382
v 494.2166 856.5049 -193.1601
v 495.041 855.7087 -192.9467
v 495.3427 854.621 -192.6553
v 495.041 853.5331 -192.3638
v 494.2166 852.7369 -192.1504
v 493.0905 862.8408 -153.2763
v 491.9643 863.1322 -153.3544
v 491.14 863.9285 -153.5678
v 490.8382 865.0162 -153.8593
v 491.14 866.104 -154.1507
v 491.9643 866.9003 -154.3641
v 493.0905 867.1918 -154.4422
v 494.2166 866.9003 -154.3641
v 495.041 866.104 -154.1507
v 495.3427 865.0162 -153.8593
v 495.041 863.9285 -153.5678
v 494.2166 863.1322 -153.3544
v 492.5627 884.3558 -79.316
v 492.7858 884.1403 -79.2582
v 493.0905 884.0615 -79.2371
v 493.6181 884.3558 -79.316
v 492.5627 884.9443 -79.4737
v 493.6998 884.65 -79.3948
v 493.6181 884.9443 -79.4737
v 493.3951 885.1597 -79.5314
v 493.0905 885.2386 -79.5525
v 492.7858 885.1597 -79.5314
v 492.4811 884.65 -79.3948
v 493.3951 884.1403 -79.2582
v 493.0905 875.6521 -102.2188
v 491.5444 876.0522 -102.326
v 491.9643 875.8819 -105.7719
v 493.0905 875.5905 -105.6938
v 490.4126 877.1454 -102.6189
v 491.14 876.6782 -105.9853
v 489.9984 878.6389 -103.0191
v 490.8382 877.7659 -106.2768
v 490.4126 880.1322 -103.4192
v 491.14 878.8537 -106.5682
v 491.5444 881.2255 -103.7122
v 491.9643 879.65 -106.7816
v 493.0905 881.6256 -103.8194
v 493.0905 879.9415 -106.8597
v 494.6365 881.2255 -103.7122
v 494.2166 879.65 -106.7816
v 495.7683 880.1322 -103.4192
v 495.041 878.8537 -106.5682
v 496.1826 878.6389 -103.0191
v 495.3427 877.7659 -106.2768
v 495.7683 877.1454 -102.6189
v 495.041 876.6782 -105.9853
v 494.6365 876.0522 -102.326
v 494.2166 875.8819 -105.7719
v 493.0905 879.7686 -85.467
v 491.4417 880.1953 -85.5814
v 491.1581 878.0246 -92.3798
v 493.0905 877.5245 -92.2458
v 490.2347 881.3611 -85.8937
v 489.7435 879.391 -92.746
v 489.7929 882.9538 -86.3205
v 489.2257 881.2575 -93.2461
v 490.2347 884.5464 -86.7472
v 489.7435 883.1241 -93.7462
v 491.4417 885.7122 -87.0596
v 491.1581 884.4905 -94.1123
v 493.0905 886.139 -87.174
v 493.0905 884.9906 -94.2464
v 494.7392 885.7122 -87.0596
v 495.0228 884.4905 -94.1123
v 495.9462 884.5464 -86.7472
v 496.4374 883.1241 -93.7462
v 496.388 882.9538 -86.3205
v 496.9552 881.2575 -93.2461
v 495.9462 881.3611 -85.8937
v 496.4374 879.391 -92.7459
v 494.7392 880.1953 -85.5814
v 495.0228 878.0246 -92.3798
v 491.5612 876.9532 -99.0759
v 493.0905 876.5574 -98.9698
v 490.4417 878.0346 -99.3656
v 490.0319 879.5117 -99.7614
v 490.4417 880.9889 -100.1572
v 491.5612 882.0703 -100.447
v 493.0905 882.466 -100.553
v 494.6197 882.0703 -100.447
v 495.7392 880.9889 -100.1572
v 496.1489 879.5117 -99.7614
v 495.7392 878.0346 -99.3656
v 494.6197 876.9532 -99.0759
vt 0.9876 0.5241
vt 0.9633 0.5241
vt 0.9633 0.0053
vt 0.9876 0.0053
vt 0.9391 0.5241
vt 0.9391 0.0053
vt 0.9148 0.5241
vt 0.9148 0.0053
vt 0.8906 0.5241
vt 0.8906 0.0053
vt 0.8663 0.5241
vt 0.8663 0.0053
vt 0.8421 0.5241
vt 0.8421 0.0053
vt 0.8178 0.5241
vt 0.8178 0.0053
vt 0.7936 0.5241
vt 0.7936 0.0053
vt 0.7694 0.5241
vt 0.7694 0.0053
vt 0.7451 0.5241
vt 0.7451 0.0053
vt 0.7209 0.5241
vt 0.7209 0.0053
vt 0.6966 0.5241
vt 0.6966 0.0053
vt 0.9918 0.0129
vt 0.9876 0.6851
vt 0.9633 0.6851
vt 0.9633 0.6416
vt 0.9876 0.6416
vt 0.9391 0.6851
vt 0.9391 0.6416
vt 0.9148 0.6851
vt 0.9148 0.6416
vt 0.8906 0.6851
vt 0.8906 0.6416
vt 0.8663 0.6851
vt 0.8663 0.6416
vt 0.8421 0.6851
vt 0.8421 0.6416
vt 0.8178 0.6851
vt 0.8178 0.6416
vt 0.7936 0.6851
vt 0.7936 0.6416
vt 0.7694 0.6851
vt 0.7694 0.6416
vt 0.7451 0.6851
vt 0.7451 0.6416
vt 0.7209 0.6851
vt 0.7209 0.6416
vt 0.6966 0.6851
vt 0.6966 0.6416
vt 0.9876 0.9029
vt 0.9633 0.9029
vt 0.9633 0.8158
vt 0.9876 0.8158
vt 0.9391 0.9029
vt 0.9391 0.8158
vt 0.9148 0.9029
vt 0.9148 0.8158
vt 0.8906 0.9029
vt 0.8906 0.8158
vt 0.8663 0.9029
vt 0.8663 0.8158
vt 0.8421 0.9029
vt 0.8421 0.8158
vt 0.8178 0.9029
vt 0.8178 0.8158
vt 0.7936 0.9029
vt 0.7936 0.8158
vt 0.7694 0.9029
vt 0.7694 0.8158
vt 0.7451 0.9029
vt 0.7451 0.8158
vt 0.7209 0.9029
vt 0.7209 0.8158
vt 0.6966 0.9029
vt 0.6966 0.8158
vt 0.9876 0.99
vt 0.9633 0.99
vt 0.9391 0.99
vt 0.9148 0.99
vt 0.8906 0.99
vt 0.8663 0.99
vt 0.8421 0.99
vt 0.8178 0.99
vt 0.7936 0.99
vt 0.7694 0.99
vt 0.7451 0.99
vt 0.7209 0.99
vt 0.6966 0.99
vt 0.9633 0.7287
vt 0.9876 0.7287
vt 0.9391 0.7287
vt 0.9148 0.7287
vt 0.8906 0.7287
vt 0.8663 0.7287
vt 0.8421 0.7287
vt 0.8178 0.7287
vt 0.7936 0.7287
vt 0.7694 0.7287
vt 0.7451 0.7287
vt 0.7209 0.7287
vt 0.6966 0.7287
vn 0.0 -0.9659 0.2588
vn -0.5 -0.8365 0.2241
vn -0.5 -0.8365 0.2241
vn 0.0 -0.9659 0.2588
vn -0.866 -0.483 0.1294
vn -0.866 -0.483 0.1294
vn -1.0 -0.0 0.0
vn -1.0 0.0 0.0
vn -0.866 0.483 -0.1294
vn -0.866 0.483 -0.1294
vn -0.5 0.8365 -0.2241
vn -0.5 0.8365 -0.2241
vn 0.0 0.9659 -0.2588
vn 0.0 0.9659 -0.2588
vn 0.5 0.8365 -0.2241
vn 0.5 0.8365 -0.2242
vn 0.866 0.4829 -0.1294
vn 0.866 0.483 -0.1294
vn 1.0 0.0 0.0
vn 1.0 -0.0 0.0
vn 0.866 -0.483 0.1294
vn 0.866 -0.483 0.1294
vn 0.5 -0.8365 0.2241
vn 0.5 -0.8365 0.2241
vn 0.0 -0.9659 0.2588
vn -0.5 -0.8365 0.2241
vn -0.866 -0.483 0.1294
vn -1.0 -0.0 -0.0
vn -0.866 0.483 -0.1294
vn -0.5 0.8365 -0.2241
vn 0.0 0.9659 -0.2588
vn 0.5 0.8365 -0.2241
vn 0.866 0.483 -0.1294
vn 1.0 0.0 -0.0
vn 0.866 -0.483 0.1294
vn 0.5 -0.8365 0.2241
vn 0.0 -0.9659 0.2588
vn -0.5 -0.8365 0.2241
vn -0.866 -0.4829 0.1294
vn -1.0 0.0 0.0
vn -0.866 0.483 -0.1294
vn -0.5 0.8365 -0.2241
vn 0.0 0.9659 -0.2588
vn 0.5 0.8365 -0.2241
vn 0.866 0.4829 -0.1294
vn 1.0 -0.0 0.0
vn 0.866 -0.4829 0.1294
vn 0.5 -0.8365 0.2241
vn -0.5447 -0.105 0.832
vn -0.3154 -0.3294 0.8899
vn 0.0 -0.4121 0.9112
vn 0.5447 -0.105 0.8321
vn -0.5401 0.5015 0.6758
vn 0.6261 0.1996 0.7538
vn 0.54 0.5016 0.6759
vn 0.3109 0.7209 0.6194
vn 0.0 0.8008 0.5989
vn -0.3108 0.7209 0.6194
vn -0.6261 0.1995 0.7538
vn 0.3154 -0.3295 0.8899
vn 0.0 -0.9892 0.1466
vn -0.4967 -0.8607 0.1121
vn -0.4961 -0.8622 0.1024
vn 0.0 -0.9906 0.1368
vn -0.8603 -0.5094 0.018
vn -0.8593 -0.5114 0.0084
vn -0.9934 -0.0296 -0.1105
vn -0.9923 -0.0322 -0.12
vn -0.8604 0.4501 -0.2391
vn -0.8593 0.4471 -0.2484
vn -0.4967 0.8014 -0.3332
vn -0.4962 0.7979 -0.3424
vn 0.0 0.93 -0.3677
vn 0.0 0.9263 -0.3768
vn 0.4967 0.8014 -0.3332
vn 0.4962 0.7979 -0.3424
vn 0.8603 0.4502 -0.2391
vn 0.8593 0.4471 -0.2484
vn 0.9934 -0.0296 -0.1105
vn 0.9923 -0.0321 -0.12
vn 0.8603 -0.5094 0.018
vn 0.8593 -0.5113 0.0084
vn 0.4967 -0.8607 0.1121
vn 0.4961 -0.8622 0.1024
vn 0.0 -0.8973 0.4413
vn -0.49 -0.7694 0.4097
vn -0.5005 -0.8432 0.1963
vn 0.0 -0.9733 0.2296
vn -0.8476 -0.4205 0.3236
vn -0.8665 -0.488 0.1051
vn -0.977 0.0548 0.2063
vn -0.9998 -0.0034 -0.0192
vn -0.8444 0.5282 0.0894
vn -0.8652 0.4805 -0.1434
vn -0.4868 0.8735 0.0042
vn -0.4992 0.8342 -0.2342
vn 0.0 0.9996 -0.027
vn 0.0 0.9636 -0.2674
vn 0.4868 0.8735 0.0042
vn 0.4992 0.8342 -0.2342
vn 0.8444 0.5282 0.0895
vn 0.8652 0.4805 -0.1434
vn 0.977 0.0548 0.2063
vn 0.9998 -0.0033 -0.0192
vn 0.8476 -0.4204 0.3236
vn 0.8665 -0.4879 0.1051
vn 0.49 -0.7694 0.4097
vn 0.5006 -0.8432 0.1963
vn -0.4993 -0.8495 0.1706
vn 0.0 -0.9787 0.2052
vn -0.8647 -0.4965 0.076
vn -0.9985 -0.0143 -0.0532
vn -0.8647 0.468 -0.1824
vn -0.4992 0.821 -0.277
vn 0.0 0.9502 -0.3116
vn 0.4992 0.821 -0.277
vn 0.8647 0.468 -0.1824
vn 0.9985 -0.0143 -0.0532
vn 0.8647 -0.4965 0.076
vn 0.4993 -0.8495 0.1706
vtan 1.0 0.0 -0.0 1.0
vtan 0.866 -0.483 0.1294 1.0
vtan 0.866 -0.483 0.1294 1.0
vtan 1.0 0.0 0.0 1.0
vtan 0.5 -0.8365 0.2241 1.0
vtan 0.5 -0.8365 0.2241 1.0
vtan 0.0 -0.9659 0.2589 1.0
vtan -0.0 -0.9659 0.2588 1.0
vtan -0.5 -0.8365 0.2241 1.0
vtan -0.5 -0.8365 0.2242 1.0
vtan -0.866 -0.483 0.1294 1.0
vtan -0.866 -0.4829 0.1294 1.0
vtan -1.0 0.0 -0.0 1.0
vtan -1.0 0.0 -0.0 1.0
vtan -0.866 0.483 -0.1294 1.0
vtan -0.866 0.4829 -0.1294 1.0
vtan -0.5 0.8365 -0.2241 1.0
vtan -0.5 0.8365 -0.2242 1.0
vtan -0.0 0.9659 -0.2589 1.0
vtan 0.0 0.9659 -0.2588 1.0
vtan 0.5 0.8365 -0.2241 1.0
vtan 0.5 0.8365 -0.2241 1.0
vtan 0.866 0.483 -0.1294 1.0
vtan 0.866 0.4829 -0.1294 1.0
vtan 1.0 0.0 0.0 1.0
vtan 1.0 0.0 -0.0 1.0
vtan 0.866 -0.483 0.1294 1.0
vtan 1.0 0.0 -0.0 1.0
vtan 1.0 0.0 -0.0 1.0
vtan 0.866 -0.483 0.1294 1.0
vtan 0.5 -0.8365 0.2242 1.0
vtan 0.5 -0.8365 0.2241 1.0
vtan 0.0 -0.9659 0.2588 1.0
vtan 0.0 -0.9659 0.2589 1.0
vtan -0.5 -0.8365 0.2241 1.0
vtan -0.5 -0.8365 0.2241 1.0
vtan -0.866 -0.483 0.1294 1.0
vtan -0.866 -0.483 0.1294 1.0
vtan -1.0 0.0 -0.0 1.0
vtan -1.0 0.0 -0.0 1.0
vtan -0.866 0.483 -0.1294 1.0
vtan -0.866 0.483 -0.1294 1.0
vtan -0.5 0.8365 -0.2241 1.0
vtan -0.5 0.8365 -0.2241 1.0
vtan -0.0 0.9659 -0.2588 1.0
vtan -0.0 0.9659 -0.2589 1.0
vtan 0.5 0.8365 -0.2242 1.0
vtan 0.5 0.8365 -0.2241 1.0
vtan 0.866 0.483 -0.1294 1.0
vtan 0.866 0.483 -0.1294 1.0
vtan 1.0 0.0 0.0 1.0
vtan 1.0 0.0 0.0 1.0
vtan 1.0 0.0 0.0 1.0
vtan 0.866 -0.483 0.1294 1.0
vtan 0.866 -0.483 0.1294 1.0
vtan 1.0 0.0 -0.0 1.0
vtan 0.5 -0.8365 0.2242 1.0
vtan 0.5 -0.8365 0.2242 1.0
vtan -0.0 -0.9659 0.2588 1.0
vtan 0.0 -0.9659 0.2588 1.0
vtan -0.5 -0.8365 0.2241 1.0
vtan -0.5 -0.8365 0.2241 1.0
vtan -0.866 -0.483 0.1294 1.0
vtan -0.866 -0.483 0.1294 1.0
vtan -1.0 0.0 -0.0 1.0
vtan -1.0 0.0 -0.0 1.0
vtan -0.866 0.483 -0.1294 1.0
vtan -0.866 0.483 -0.1294 1.0
vtan -0.5 0.8365 -0.2241 1.0
vtan -0.5 0.8365 -0.2241 1.0
vtan 0.0 0.9659 -0.2588 1.0
vtan -0.0 0.9659 -0.2588 1.0
vtan 0.5 0.8365 -0.2242 1.0
vtan 0.5 0.8365 -0.2242 1.0
vtan 0.866 0.4829 -0.1294 1.0
vtan 0.866 0.483 -0.1294 1.0
vtan 1.0 0.0 -0.0 1.0
vtan 1.0 0.0 0.0 1.0
vtan 1.0 0.0 0.0 -1.0
vtan 0.9995 0.0045 0.0303 1.0
vtan 0.866 -0.4829 0.1294 1.0
vtan 0.866 -0.483 0.1294 1.0
vtan 0.9994 0.0046 0.033 1.0
vtan 0.5 -0.8365 0.2241 1.0
vtan 0.5 -0.8365 0.2242 1.0
vtan -0.0 -0.9659 0.2588 1.0
vtan 0.0 -0.9659 0.2588 1.0
vtan -0.5 -0.8365 0.2242 1.0
vtan -0.5 -0.8365 0.2241 1.0
vtan -0.866 -0.483 0.1294 1.0
vtan -0.866 -0.483 0.1294 1.0
vtan -1.0 0.0 -0.0 1.0
vtan -1.0 0.0 -0.0 1.0
vtan -0.866 0.483 -0.1294 1.0
vtan -0.866 0.483 -0.1294 1.0
vtan -0.5 0.8365 -0.2242 1.0
vtan -0.5 0.8365 -0.2241 1.0
vtan -0.0 0.9659 -0.2588 1.0
vtan -0.0 0.9659 -0.2588 1.0
vtan 0.5 0.8365 -0.2241 1.0
vtan 0.5 0.8365 -0.2242 1.0
vtan 0.866 0.4829 -0.1294 1.0
vtan 0.866 0.483 -0.1294 1.0
vtan 0.9995 -0.0045 -0.0303 1.0
vtan 0.9994 -0.0045 -0.033 1.0
vtan 0.9987 -0.0229 -0.0466 1.0
vtan 0.8662 -0.4828 0.1293 1.0
vtan 0.8656 -0.4837 0.1296 1.0
vtan 1.0 0.0019 0.0078 1.0
vtan 0.5004 -0.8363 0.224 1.0
vtan 0.4987 -0.8372 0.2244 1.0
vtan 0.0005 -0.9659 0.2587 1.0
vtan -0.0017 -0.9659 0.2588 1.0
vtan -0.4996 -0.8367 0.2241 1.0
vtan -0.5013 -0.8358 0.2239 1.0
vtan -0.8659 -0.4832 0.1294 1.0
vtan -0.8665 -0.4822 0.1292 1.0
vtan -1.0 0.0 -0.0 1.0
vtan -1.0 0.0 0.0 1.0
vtan -0.8659 0.4832 -0.1294 1.0
vtan -0.8665 0.4822 -0.1292 1.0
vtan -0.4996 0.8367 -0.2241 1.0
vtan -0.5013 0.8358 -0.2239 1.0
vtan 0.0005 0.9659 -0.2587 1.0
vtan -0.0018 0.9659 -0.2588 1.0
vtan 0.5004 0.8363 -0.224 1.0
vtan 0.4987 0.8372 -0.2243 1.0
vtan 0.8661 0.4828 -0.1293 1.0
vtan 0.8656 0.4837 -0.1296 1.0
vtan 0.9987 0.0229 0.0466 1.0
vtan 1.0 -0.0018 -0.0078 1.0
vtan 0.9792 -0.1848 -0.0836 1.0
vtan 0.8669 -0.4814 0.129 1.0
vtan 0.5025 -0.8351 0.2237 1.0
vtan 0.0035 -0.966 0.2586 1.0
vtan -0.4974 -0.838 0.2243 1.0
vtan -0.8652 -0.4844 0.1295 1.0
vtan -1.0 0.0001 -0.0 1.0
vtan -0.8652 0.4845 -0.1296 1.0
vtan -0.4975 0.8379 -0.2244 1.0
vtan 0.0034 0.966 -0.2586 1.0
vtan 0.5026 0.8351 -0.2236 1.0
vtan 0.8669 0.4815 -0.129 1.0
vtan 0.9792 0.1848 0.0836 1.0
vtan 0.866 -0.483 0.1294 1.0
vtan 0.9999 0.003 0.0145 1.0
vtan 0.5 -0.8365 0.2241 1.0
vtan 0.0 -0.9659 0.2588 1.0
vtan -0.5 -0.8365 0.2242 1.0
vtan -0.866 -0.4829 0.1294 1.0
vtan -1.0 0.0 0.0 1.0
vtan -0.866 0.4829 -0.1294 1.0
vtan -0.5 0.8365 -0.2242 1.0
vtan 0.0 0.9659 -0.2588 1.0
vtan 0.5 0.8365 -0.2241 1.0
vtan 0.866 0.483 -0.1294 1.0
vtan 0.9999 -0.003 -0.0145 1.0
vtan 0.866 -0.483 0.1294 1.0
vtan 1.0 0.0 0.0 1.0
vtan 0.5 -0.8365 0.2242 1.0
vtan -0.0 -0.9659 0.2588 1.0
vtan -0.5 -0.8365 0.2241 1.0
vtan -0.866 -0.483 0.1294 1.0
vtan -1.0 0.0 -0.0 1.0
vtan -0.866 0.483 -0.1294 1.0
vtan -0.5 0.8365 -0.2241 1.0
vtan 0.0 0.9659 -0.2588 1.0
vtan 0.5 0.8365 -0.2242 1.0
vtan 0.866 0.4829 -0.1294 1.0
vtan 1.0 0.0 -0.0 1.0
f 0/0/0/0 1/1/1/1 2/2/2/2 
f 0/0/0/0 2/2/2/2 3/3/3/3 
f 1/1/1/1 4/4/4/4 5/5/5/5 
f 1/1/1/1 5/5/5/5 2/2/2/2 
f 4/4/4/4 6/6/6/6 7/7/7/7 
f 4/4/4/4 7/7/7/7 5/5/5/5 
f 6/6/6/6 8/8/8/8 9/9/9/9 
f 6/6/6/6 9/9/9/9 7/7/7/7 
f 8/8/8/8 10/10/10/10 11/11/11/11 
f 8/8/8/8 11/11/11/11 9/9/9/9 
f 10/10/10/10 12/12/12/12 13/13/13/13 
f 10/10/10/10 13/13/13/13 11/11/11/11 
f 12/12/12/12 14/14/14/14 15/15/15/15 
f 12/12/12/12 15/15/15/15 13/13/13/13 
f 14/14/14/14 16/16/16/16 17/17/17/17 
f 14/14/14/14 17/17/17/17 15/15/15/15 
f 16/16/16/16 18/18/18/18 19/19/19/19 
f 16/16/16/16 19/19/19/19 17/17/17/17 
f 18/18/18/18 20/20/20/20 21/21/21/21 
f 18/18/18/18 21/21/21/21 19/19/19/19 
f 20/20/20/20 22/22/22/22 23/23/23/23 
f 20/20/20/20 23/23/23/23 21/21/21/21 
f 22/22/22/22 0/24/0/24 3/25/3/25 
f 22/22/22/22 3/25/3/25 23/23/23/23 
f 1/2/1/26 0/3/0/27 24/0/24/28 
f 1/2/1/26 24/0/24/28 25/1/25/29 
f 25/1/25/29 26/4/26/30 4/5/4/31 
f 25/1/25/29 4/5/4/31 1/2/1/26 
f 26/4/26/30 27/6/27/32 6/7/6/33 
f 26/4/26/30 6/7/6/33 4/5/4/31 
f 27/6/27/32 28/8/28/34 8/9/8/35 
f 27/6/27/32 8/9/8/35 6/7/6/33 
f 28/8/28/34 29/10/29/36 10/11/10/37 
f 28/8/28/34 10/11/10/37 8/9/8/35 
f 29/10/29/36 30/12/30/38 12/13/12/39 
f 29/10/29/36 12/13/12/39 10/11/10/37 
f 30/12/30/38 31/14/31/40 14/15/14/41 
f 30/12/30/38 14/15/14/41 12/13/12/39 
f 31/14/31/40 32/16/32/42 16/17/16/43 
f 31/14/31/40 16/17/16/43 14/15/14/41 
f 32/16/32/42 33/18/33/44 18/19/18/45 
f 32/16/32/42 18/19/18/45 16/17/16/43 
f 33/18/33/44 34/20/34/46 20/21/20/47 
f 33/18/33/44 20/21/20/47 18/19/18/45 
f 34/20/34/46 35/22/35/48 22/23/22/49 
f 34/20/34/46 22/23/22/49 20/21/20/47 
f 0/25/0/50 22/23/22/49 35/22/35/48 
f 0/25/0/50 35/22/35/48 24/24/24/51 
f 36/0/36/52 37/1/37/53 25/2/25/54 
f 36/0/36/52 25/2/25/54 24/3/24/55 
f 37/1/37/53 38/4/38/56 26/5/26/57 
f 37/1/37/53 26/5/26/57 25/2/25/54 
f 38/4/38/56 39/6/39/58 27/7/27/59 
f 38/4/38/56 27/7/27/59 26/5/26/57 
f 39/6/39/58 40/8/40/60 28/9/28/61 
f 39/6/39/58 28/9/28/61 27/7/27/59 
f 40/8/40/60 41/10/41/62 29/11/29/63 
f 40/8/40/60 29/11/29/63 28/9/28/61 
f 41/10/41/62 42/12/42/64 30/13/30/65 
f 41/10/41/62 30/13/30/65 29/11/29/63 
f 42/12/42/64 43/14/43/66 31/15/31/67 
f 42/12/42/64 31/15/31/67 30/13/30/65 
f 43/14/43/66 44/16/44/68 32/17/32/69 
f 43/14/43/66 32/17/32/69 31/15/31/67 
f 44/16/44/68 45/18/45/70 33/19/33/71 
f 44/16/44/68 33/19/33/71 32/17/32/69 
f 45/18/45/70 46/20/46/72 34/21/34/73 
f 45/18/45/70 34/21/34/73 33/19/33/71 
f 46/20/46/72 47/22/47/74 35/23/35/75 
f 46/20/46/72 35/23/35/75 34/21/34/73 
f 47/22/47/74 36/24/36/76 24/25/24/77 
f 47/22/47/74 24/25/24/77 35/23/35/75 
f 48/26/48/78 49/26/49/78 50/26/50/78 
f 48/26/48/78 50/26/50/78 51/26/51/78 
f 48/26/48/78 51/26/51/78 52/26/52/78 
f 51/26/51/78 53/26/53/78 54/26/54/78 
f 51/26/51/78 54/26/54/78 52/26/52/78 
f 54/26/54/78 55/26/55/78 56/26/56/78 
f 54/26/54/78 56/26/56/78 52/26/52/78 
f 56/26/56/78 57/26/57/78 52/26/52/78 
f 58/26/58/78 48/26/48/78 52/26/52/78 
f 59/26/59/78 51/26/51/78 50/26/50/78 
f 60/27/60/79 61/28/61/80 62/29/62/81 
f 60/27/60/79 62/29/62/81 63/30/63/82 
f 61/28/61/80 64/31/64/83 65/32/65/84 
f 61/28/61/80 65/32/65/84 62/29/62/81 
f 64/31/64/83 66/33/66/85 67/34/67/86 
f 64/31/64/83 67/34/67/86 65/32/65/84 
f 66/33/66/85 68/35/68/87 69/36/69/88 
f 66/33/66/85 69/36/69/88 67/34/67/86 
f 68/35/68/87 70/37/70/89 71/38/71/90 
f 68/35/68/87 71/38/71/90 69/36/69/88 
f 70/37/70/89 72/39/72/91 73/40/73/92 
f 70/37/70/89 73/40/73/92 71/38/71/90 
f 72/39/72/91 74/41/74/93 75/42/75/94 
f 72/39/72/91 75/42/75/94 73/40/73/92 
f 74/41/74/93 76/43/76/95 77/44/77/96 
f 74/41/74/93 77/44/77/96 75/42/75/94 
f 76/43/76/95 78/45/78/97 79/46/79/98 
f 76/43/76/95 79/46/79/98 77/44/77/96 
f 78/45/78/97 80/47/80/99 81/48/81/100 
f 78/45/78/97 81/48/81/100 79/46/79/98 
f 80/47/80/99 82/49/82/101 83/50/83/102 
f 80/47/80/99 83/50/83/102 81/48/81/100 
f 82/49/82/101 60/51/60/103 63/52/63/104 
f 82/49/82/101 63/52/63/104 83/50/83/102 
f 84/53/84/105 85/54/85/106 86/55/86/107 
f 84/53/84/105 86/55/86/107 87/56/87/108 
f 86/55/86/107 85/54/85/106 88/57/88/109 
f 86/55/86/107 88/57/88/109 89/58/89/110 
f 89/58/89/110 88/57/88/109 90/59/90/111 
f 89/58/89/110 90/59/90/111 91/60/91/112 
f 91/60/91/112 90/59/90/111 92/61/92/113 
f 91/60/91/112 92/61/92/113 93/62/93/114 
f 93/62/93/114 92/61/92/113 94/63/94/115 
f 93/62/93/114 94/63/94/115 95/64/95/116 
f 94/63/94/115 96/65/96/117 97/66/97/118 
f 94/63/94/115 97/66/97/118 95/64/95/116 
f 96/65/96/117 98/67/98/119 99/68/99/120 
f 96/65/96/117 99/68/99/120 97/66/97/118 
f 98/67/98/119 100/69/100/121 101/70/101/122 
f 98/67/98/119 101/70/101/122 99/68/99/120 
f 100/69/100/121 102/71/102/123 103/72/103/124 
f 100/69/100/121 103/72/103/124 101/70/101/122 
f 102/71/102/123 104/73/104/125 105/74/105/126 
f 102/71/102/123 105/74/105/126 103/72/103/124 
f 104/73/104/125 106/75/106/127 107/76/107/128 
f 104/73/104/125 107/76/107/128 105/74/105/126 
f 106/75/106/127 84/77/84/129 87/78/87/130 
f 106/75/106/127 87/78/87/130 107/76/107/128 
f 50/79/50/131 49/80/49/132 85/54/85/106 
f 50/79/50/131 85/54/85/106 84/53/84/105 
f 49/80/49/132 48/81/48/133 88/57/88/109 
f 49/80/49/132 88/57/88/109 85/54/85/106 
f 88/57/88/109 48/81/48/133 58/82/58/134 
f 88/57/88/109 58/82/58/134 90/59/90/111 
f 90/59/90/111 58/82/58/134 52/83/52/135 
f 90/59/90/111 52/83/52/135 92/61/92/113 
f 52/83/52/135 57/84/57/136 94/63/94/115 
f 52/83/52/135 94/63/94/115 92/61/92/113 
f 57/84/57/136 56/85/56/137 96/65/96/117 
f 57/84/57/136 96/65/96/117 94/63/94/115 
f 56/85/56/137 55/86/55/138 98/67/98/119 
f 56/85/56/137 98/67/98/119 96/65/96/117 
f 55/86/55/138 54/87/54/139 100/69/100/121 
f 55/86/55/138 100/69/100/121 98/67/98/119 
f 54/87/54/139 53/88/53/140 102/71/102/123 
f 54/87/54/139 102/71/102/123 100/69/100/121 
f 53/88/53/140 51/89/51/141 104/73/104/125 
f 53/88/53/140 104/73/104/125 102/71/102/123 
f 51/89/51/141 59/90/59/142 106/75/106/127 
f 51/89/51/141 106/75/106/127 104/73/104/125 
f 59/90/59/142 50/91/50/143 84/77/84/129 
f 59/90/59/142 84/77/84/129 106/75/106/127 
f 87/56/87/108 86/55/86/107 108/92/108/144 
f 87/56/87/108 108/92/108/144 109/93/109/145 
f 86/55/86/107 89/58/89/110 110/94/110/146 
f 86/55/86/107 110/94/110/146 108/92/108/144 
f 89/58/89/110 91/60/91/112 111/95/111/147 
f 89/58/89/110 111/95/111/147 110/94/110/146 
f 91/60/91/112 93/62/93/114 112/96/112/148 
f 91/60/91/112 112/96/112/148 111/95/111/147 
f 93/62/93/114 95/64/95/116 113/97/113/149 
f 93/62/93/114 113/97/113/149 112/96/112/148 
f 95/64/95/116 97/66/97/118 114/98/114/150 
f 95/64/95/116 114/98/114/150 113/97/113/149 
f 97/66/97/118 99/68/99/120 115/99/115/151 
f 97/66/97/118 115/99/115/151 114/98/114/150 
f 99/68/99/120 101/70/101/122 116/100/116/152 
f 99/68/99/120 116/100/116/152 115/99/115/151 
f 101/70/101/122 103/72/103/124 117/101/117/153 
f 101/70/101/122 117/101/117/153 116/100/116/152 
f 103/72/103/124 105/74/105/126 118/102/118/154 
f 103/72/103/124 118/102/118/154 117/101/117/153 
f 105/74/105/126 107/76/107/128 119/103/119/155 
f 105/74/105/126 119/103/119/155 118/102/118/154 
f 107/76/107/128 87/78/87/130 109/104/109/156 
f 107/76/107/128 109/104/109/156 119/103/119/155 
f 109/93/109/145 108/92/108/144 61/28/61/80 
f 109/93/109/145 61/28/61/80 60/27/60/79 
f 108/92/108/144 110/94/110/146 64/31/64/83 
f 108/92/108/144 64/31/64/83 61/28/61/80 
f 110/94/110/146 111/95/111/147 66/33/66/85 
f 110/94/110/146 66/33/66/85 64/31/64/83 
f 111/95/111/147 112/96/112/148 68/35/68/87 
f 111/95/111/147 68/35/68/87 66/33/66/85 
f 112/96/112/148 113/97/113/149 70/37/70/89 
f 112/96/112/148 70/37/70/89 68/35/68/87 
f 113/97/113/149 114/98/114/150 72/39/72/91 
f 113/97/113/149 72/39/72/91 70/37/70/89 
f 114/98/114/150 115/99/115/151 74/41/74/93 
f 114/98/114/150 74/41/74/93 72/39/72/91 
f 115/99/115/151 116/100/116/152 76/43/76/95 
f 115/99/115/151 76/43/76/95 74/41/74/93 
f 116/100/116/152 117/101/117/153 78/45/78/97 
f 116/100/116/152 78/45/78/97 76/43/76/95 
f 117/101/117/153 118/102/118/154 80/47/80/99 
f 117/101/117/153 80/47/80/99 78/45/78/97 
f 118/102/118/154 119/103/119/155 82/49/82/101 
f 118/102/118/154 82/49/82/101 80/47/80/99 
f 119/103/119/155 109/104/109/156 60/51/60/103 
f 119/103/119/155 60/51/60/103 82/49/82/101 
f 63/30/63/82 62/29/62/81 37/2/37/157 
f 63/30/63/82 37/2/37/157 36/3/36/158 
f 62/29/62/81 65/32/65/84 38/5/38/159 
f 62/29/62/81 38/5/38/159 37/2/37/157 
f 65/32/65/84 67/34/67/86 39/7/39/160 
f 65/32/65/84 39/7/39/160 38/5/38/159 
f 67/34/67/86 69/36/69/88 40/9/40/161 
f 67/34/67/86 40/9/40/161 39/7/39/160 
f 69/36/69/88 71/38/71/90 41/11/41/162 
f 69/36/69/88 41/11/41/162 40/9/40/161 
f 71/38/71/90 73/40/73/92 42/13/42/163 
f 71/38/71/90 42/13/42/163 41/11/41/162 
f 73/40/73/92 75/42/75/94 43/15/43/164 
f 73/40/73/92 43/15/43/164 42/13/42/163 
f 75/42/75/94 77/44/77/96 44/17/44/165 
f 75/42/75/94 44/17/44/165 43/15/43/164 
f 77/44/77/96 79/46/79/98 45/19/45/166 
f 77/44/77/96 45/19/45/166 44/17/44/165 
f 79/46/79/98 81/48/81/100 46/21/46/167 
f 79/46/79/98 46/21/46/167 45/19/45/166 
f 81/48/81/100 83/50/83/102 47/23/47/168 
f 81/48/81/100 47/23/47/168 46/21/46/167 
f 83/50/83/102 63/52/63/104 36/25/36/169 
f 83/50/83/102 36/25/36/169 47/23/47/168 
