v 516.2248 186.5211 -640.858
v 516.2248 186.5211 -646.9679
v 516.8566 192.9855 -646.9678
v 516.8566 192.9855 -640.0363
v 515.6288 186.5211 -640.1261
v 516.298 192.9855 -639.3499
v 469.735 192.9855 -639.3499
v 470.404 186.5211 -640.1261
v 521.1039 213.2488 -633.3975
v 464.9289 213.2488 -633.3975
v 464.8998 208.8857 -633.3975
v 521.1328 208.8857 -633.3975
v 464.33 213.2488 -634.1328
v 464.33 213.2488 -646.9678
v 464.33 208.8857 -646.9678
v 464.33 208.8857 -634.0977
v 515.7612 182.6524 -641.4413
v 515.7612 182.6524 -646.9679
v 517.549 184.5867 -646.9679
v 517.549 184.5867 -639.3175
v 515.154 182.6524 -640.6954
v 516.883 184.5867 -638.4995
v 469.1498 184.5867 -638.4995
v 470.8788 182.6524 -640.6954
v 521.7026 213.2488 -634.1328
v 521.7026 213.2488 -646.9678
v 523.3679 215.4303 -646.9678
v 523.3679 215.4303 -632.1652
v 522.706 215.4303 -631.3521
v 463.3268 215.4303 -631.3521
v 521.7026 217.6118 -646.9678
v 521.7026 217.6118 -634.2106
v 521.0407 217.6118 -633.3975
v 464.9919 217.6118 -633.3975
v 518.9965 201.9844 -637.4354
v 518.9965 201.9844 -646.9678
v 521.7026 208.8857 -646.9678
v 521.7026 208.8857 -634.0977
v 518.4155 201.9844 -636.7213
v 467.6174 201.9844 -636.7213
v 469.176 192.9855 -640.0363
v 469.808 186.5211 -640.858
v 468.4838 184.5867 -639.3175
v 470.2714 182.6524 -641.4413
v 462.6647 215.4303 -632.1652
v 464.33 217.6118 -634.2106
v 467.0363 201.9844 -637.4354
v 464.33 217.6118 -646.9678
v 469.176 192.9855 -646.9678
v 469.808 186.5211 -646.9679
v 468.4838 184.5867 -646.9679
v 470.2714 182.6524 -646.9679
v 462.6647 215.4303 -646.9678
v 467.0363 201.9844 -646.9678
gi 0 0 0 0
gw 0.0 0.0 0.0 0.0
gi 0 0 0 0
gw 0.0 0.0 0.0 0.0
gi 0 0 0 0
gw 0.0 0.0 0.0 0.0
gi 0 0 0 0
gw 0.0 0.0 0.0 0.0
gi 0 0 0 0
gw 0.0 0.0 0.0 0.0
gi 0 0 0 0
gw 0.0 0.0 0.0 0.0
gi 0 0 0 0
gw 0.0 0.0 0.0 0.0
gi 0 0 0 0
gw 0.0 0.0 0.0 0.0
gi 0 0 0 0
gw 0.0 0.0 0.0 0.0
gi 0 0 0 0
gw 0.0 0.0 0.0 0.0
gi 0 0 0 0
gw 0.0 0.0 0.0 0.0
gi 0 0 0 0
gw 0.0 0.0 0.0 0.0
gi 0 0 0 0
gw 0.0 0.0 0.0 0.0
gi 0 0 0 0
gw 0.0 0.0 0.0 0.0
gi 0 0 0 0
gw 0.0 0.0 0.0 0.0
gi 0 0 0 0
gw 0.0 0.0 0.0 0.0
gi 0 0 0 0
gw 0.0 0.0 0.0 0.0
gi 0 0 0 0
gw 0.0 0.0 0.0 0.0
gi 0 0 0 0
gw 0.0 0.0 0.0 0.0
gi 0 0 0 0
gw 0.0 0.0 0.0 0.0
gi 0 0 0 0
gw 0.0 0.0 0.0 0.0
gi 0 0 0 0
gw 0.0 0.0 0.0 0.0
gi 0 0 0 0
gw 0.0 0.0 0.0 0.0
gi 0 0 0 0
gw 0.0 0.0 0.0 0.0
gi 0 0 0 0
gw 0.0 0.0 0.0 0.0
gi 0 0 0 0
gw 0.0 0.0 0.0 0.0
gi 0 0 0 0
gw 0.0 0.0 0.0 0.0
gi 0 0 0 0
gw 0.0 0.0 0.0 0.0
gi 0 0 0 0
gw 0.0 0.0 0.0 0.0
gi 0 0 0 0
gw 0.0 0.0 0.0 0.0
gi 0 0 0 0
gw 0.0 0.0 0.0 0.0
gi 0 0 0 0
gw 0.0 0.0 0.0 0.0
gi 0 0 0 0
gw 0.0 0.0 0.0 0.0
gi 0 0 0 0
gw 0.0 0.0 0.0 0.0
gi 0 0 0 0
gw 0.0 0.0 0.0 0.0
gi 0 0 0 0
gw 0.0 0.0 0.0 0.0
gi 0 0 0 0
gw 0.0 0.0 0.0 0.0
gi 0 0 0 0
gw 0.0 0.0 0.0 0.0
gi 0 0 0 0
gw 0.0 0.0 0.0 0.0
gi 0 0 0 0
gw 0.0 0.0 0.0 0.0
gi 0 0 0 0
gw 0.0 0.0 0.0 0.0
gi 0 0 0 0
gw 0.0 0.0 0.0 0.0
gi 0 0 0 0
gw 0.0 0.0 0.0 0.0
gi 0 0 0 0
gw 0.0 0.0 0.0 0.0
gi 0 0 0 0
gw 0.0 0.0 0.0 0.0
gi 0 0 0 0
gw 0.0 0.0 0.0 0.0
gi 0 0 0 0
gw 0.0 0.0 0.0 0.0
gi 0 0 0 0
gw 0.0 0.0 0.0 0.0
gi 0 0 0 0
gw 0.0 0.0 0.0 0.0
gi 0 0 0 0
gw 0.0 0.0 0.0 0.0
gi 0 0 0 0
gw 0.0 0.0 0.0 0.0
gi 0 0 0 0
gw 0.0 0.0 0.0 0.0
gi 0 0 0 0
gw 0.0 0.0 0.0 0.0
gi 0 0 0 0
gw 0.0 0.0 0.0 0.0
vt 0.4476 0.6911
vt 0.2773 0.6911
vt 0.2773 0.6742
vt 0.4476 0.6742
vt 0.4453 0.6933
vt 0.2795 0.6933
vt 0.5504 0.8881
vt 0.5337 0.8881
vt 0.5337 0.9084
vt 0.5526 0.9084
vt 0.6076 0.8897
vt 0.6053 0.91
vt 0.7614 0.91
vt 0.7592 0.8897
vt 0.5892 0.9737
vt 0.7775 0.9737
vt 0.7776 0.96
vt 0.5891 0.96
vt 0.7937 0.9733
vt 0.8287 0.9733
vt 0.8287 0.9596
vt 0.7936 0.9596
vt 0.9865 0.7672
vt 0.9619 0.7672
vt 0.9632 0.7791
vt 0.9959 0.7791
vt 0.0112 0.7672
vt 0.0111 0.779
vt 0.2524 0.779
vt 0.2525 0.7672
vt 0.5546 0.882
vt 0.5337 0.882
vt 0.6034 0.8836
vt 0.7634 0.8836
vt 0.5687 0.9721
vt 0.5337 0.9721
vt 0.5337 0.979
vt 0.5741 0.979
vt 0.5839 0.9806
vt 0.7829 0.9806
vt 0.5337 0.9859
vt 0.5685 0.9859
vt 0.5894 0.9875
vt 0.7773 0.9875
vt 0.5597 0.9367
vt 0.5337 0.9367
vt 0.5337 0.9584
vt 0.5688 0.9584
vt 0.5982 0.9383
vt 0.7685 0.9383
vt 0.605 0.8907
vt 0.6028 0.9094
vt 0.8095 0.8902
vt 0.8073 0.909
vt 0.8098 0.9096
vt 0.8121 0.8892
vt 0.5867 0.9726
vt 0.5865 0.9593
vt 0.7912 0.9721
vt 0.791 0.9589
vt 0.6007 0.8862
vt 0.8079 0.8832
vt 0.8052 0.8857
vt 0.0079 0.7672
vt 0.0078 0.7789
vt 0.2559 0.779
vt 0.2558 0.7672
vt 0.5815 0.9806
vt 0.786 0.9801
vt 0.7884 0.9801
vt 0.5871 0.99
vt 0.7916 0.9896
vt 0.7939 0.987
vt 0.5957 0.9372
vt 0.8002 0.9367
vt 0.8027 0.9379
vt 0.1674 0.876
vt 0.1655 0.8746
vt 0.0109 0.8746
vt 0.0091 0.8976
vt 0.0091 0.876
vt 0.1674 0.8976
vt 0.8287 0.9096
vt 0.8287 0.8892
vt 0.2874 0.779
vt 0.2803 0.7672
vt 0.8287 0.8832
vt 0.8287 0.9801
vt 0.8287 0.987
vt 0.8287 0.9379
vn 0.0 -1.0 0.0
vn 0.0 -1.0 0.0
vn 0.9118 0.3115 0.2677
vn 0.9686 0.2488 0.0
vn 0.9863 -0.1647 0.0
vn 0.9232 -0.2213 0.3143
vn 0.3713 0.3625 0.8548
vn 0.408 -0.254 0.8769
vn -0.4078 -0.254 0.877
vn -0.3713 0.3625 0.8548
vn 0.3556 -0.4619 0.8125
vn -0.3555 -0.4619 0.8125
vn -0.4272 -0.251 0.8686
vn 0.4272 -0.251 0.8686
vn -0.8773 -0.4015 0.2631
vn -0.9473 -0.3203 0.0
vn -0.9826 -0.1858 0.0
vn -0.9078 -0.2348 0.3474
vn 0.4051 -0.9097 0.0916
vn 0.401 -0.9161 0.0002
vn 0.9973 -0.0728 0.0
vn 0.9149 -0.0672 0.3981
vn 0.1382 -0.9239 0.3568
vn 0.4598 -0.0629 0.8858
vn -0.4598 -0.0629 0.8858
vn -0.1381 -0.9239 0.3569
vn 0.8773 -0.4014 0.2631
vn 0.9473 -0.3203 0.0
vn 1.0 -0.0 0.0
vn 0.9164 0.0032 0.4004
vn 0.4625 0.0025 0.8866
vn -0.4625 0.0025 0.8866
vn 0.4434 0.8963 -0.0
vn 0.4484 0.8877 0.1048
vn 0.1562 0.9026 0.4011
vn -0.1562 0.9026 0.4011
vn 0.8738 -0.3895 0.2912
vn 0.9543 -0.2989 0.0
vn 0.9826 -0.1858 0.0
vn 0.9078 -0.2349 0.3474
vn 0.3737 -0.4407 0.8162
vn -0.3737 -0.4407 0.8162
vn -0.9231 -0.2213 0.3144
vn -0.9118 0.3115 0.2677
vn -0.9149 -0.0672 0.3981
vn -0.4051 -0.9096 0.0918
vn -0.9163 0.0032 0.4004
vn -0.4484 0.8877 0.1048
vn -0.8738 -0.3895 0.2913
vn -0.4434 0.8963 0.0
vn -0.9863 -0.1647 0.0
vn -0.9686 0.2488 0.0
vn -0.9973 -0.0728 0.0
vn -0.4011 -0.9161 0.0
vn -1.0 -0.0 0.0
vn -0.9543 -0.2989 0.0
vtan 1.0 0.0 0.0 1.0
vtan 1.0 0.0 0.0 1.0
vtan -0.2533 -0.0865 0.9635 -1.0
vtan 0.0 0.0 1.0 -1.0
vtan -0.3056 0.0733 0.9493 -1.0
vtan -0.9265 0.205 0.3155 -1.0
vtan -0.913 -0.1188 0.3903 -1.0
vtan -0.9131 0.1135 -0.3917 -1.0
vtan -0.9285 -0.145 -0.3418 -1.0
vtan -0.9343 -0.1514 0.3228 -1.0
vtan -0.9347 0.1757 -0.3091 -1.0
vtan -0.9041 0.1186 -0.4104 -1.0
vtan -0.9038 -0.144 0.4029 -1.0
vtan -0.2126 -0.1666 -0.9628 -1.0
vtan 0.0 0.0 -1.0 -1.0
vtan -0.321 -0.1437 -0.9361 -1.0
vtan -0.0373 0.0837 0.9958 -1.0
vtan -0.0001 0.0002 1.0 -1.0
vtan -0.397 0.0292 0.9173 -1.0
vtan -0.9225 0.011 0.3857 -1.0
vtan -0.8877 -0.0086 0.4603 -1.0
vtan -0.8875 -0.0021 -0.4609 -1.0
vtan -0.9218 -0.0119 -0.3874 -1.0
vtan -0.397 0.0292 0.9173 -1.0
vtan -0.8293 0.3262 0.4537 -1.0
vtan -0.888 0.0325 -0.4587 -1.0
vtan -0.2392 0.1095 0.9648 -1.0
vtan -0.4004 -0.0014 0.9164 -1.0
vtan -0.8866 -0.0001 0.4625 -1.0
vtan -0.8866 -0.0013 -0.4625 -1.0
vtan 0.0 0.0 1.0 -1.0
vtan -0.0472 -0.0935 0.9945 -1.0
vtan -0.9858 0.1172 0.1202 -1.0
vtan -0.9877 -0.1427 -0.0634 -1.0
vtan -0.266 0.1186 0.9567 -1.0
vtan -0.3363 0.087 0.9377 -1.0
vtan -0.9275 -0.19 0.322 -1.0
vtan -0.9276 0.1775 -0.3288 -1.0
vtan -0.4026 0.5486 0.7328 -1.0
vtan -0.3691 -0.2826 0.8854 -1.0
vtan -0.6673 0.5359 -0.5172 -1.0
vtan -0.8045 -0.3543 -0.4767 -1.0
vtan -0.2992 -0.0999 -0.9489 -1.0
vtan -0.2341 0.1414 -0.9619 -1.0
vtan -0.4489 -0.4924 0.7457 -1.0
vtan -0.4114 -0.3385 0.8463 -1.0
vtan -0.6289 -0.5249 -0.5736 -1.0
vtan -0.7893 -0.365 -0.4937 -1.0
vtan -0.2304 0.7229 0.6515 -1.0
vtan -0.3982 0.3136 -0.862 -1.0
vtan -0.5709 0.785 -0.2407 -1.0
vtan -0.5663 -0.1709 0.8063 -1.0
vtan -0.4008 -0.0333 0.9155 -1.0
vtan -0.3992 0.0031 -0.9169 -1.0
vtan -0.2537 0.0154 -0.9672 -1.0
vtan -0.4002 0.0329 0.9158 -1.0
vtan -0.8866 0.0011 -0.4625 -1.0
vtan -0.4004 0.0128 -0.9163 -1.0
vtan -0.8829 0.4215 0.2071 -1.0
vtan -0.1319 0.3834 -0.9141 -1.0
vtan 0.0234 0.1288 -0.9914 -1.0
vtan -0.4661 -0.4998 0.7301 -1.0
vtan -0.6068 -0.5494 -0.5744 -1.0
vtan -0.2341 -0.1881 -0.9538 -1.0
vtan -0.8938 -0.4453 -0.0525 -1.0
vtan -0.9877 -0.1427 -0.0634 -1.0
vtan -0.9877 0.1448 0.0588 -1.0
vtan -0.8963 0.4434 -0.0004 -1.0
vtan -0.8936 0.4479 0.0297 -1.0
vtan -0.8963 -0.4434 0.0 -1.0
vtan -0.0 -0.0 -1.0 -1.0
f 16/0/0/0 43/1/0/0 51/2/0/0 
f 16/0/0/0 51/2/0/0 17/3/0/0 
f 43/1/1/0 16/0/1/1 20/4/1/0 
f 43/1/0/1 20/4/0/0 23/5/0/0 
f 0/6/2/2 1/7/3/3 2/8/4/3 
f 0/6/2/2 2/8/4/3 3/9/5/4 
f 4/10/6/5 5/11/7/6 6/12/8/7 
f 4/10/6/5 6/12/8/7 7/13/9/8 
f 8/14/10/9 9/15/11/10 10/16/12/11 
f 8/14/10/9 10/16/12/11 11/17/13/12 
f 12/18/14/13 13/19/15/14 14/20/16/14 
f 12/18/14/13 14/20/16/14 15/21/17/15 
f 16/22/18/16 17/23/19/17 18/24/20/3 
f 16/22/18/16 18/24/20/3 19/25/21/18 
f 20/26/22/19 21/27/23/20 22/28/24/21 
f 20/26/22/19 22/28/24/21 23/29/25/22 
f 0/6/2/2 19/30/21/23 18/31/20/3 
f 0/6/2/2 18/31/20/3 1/7/3/3 
f 21/32/23/24 4/10/6/5 7/13/9/8 
f 21/32/23/24 7/13/9/8 22/33/24/25 
f 24/34/26/26 25/35/27/3 26/36/28/3 
f 24/34/26/26 26/36/28/3 27/37/29/27 
f 8/14/10/9 28/38/30/28 29/39/31/29 
f 8/14/10/9 29/39/31/29 9/15/11/10 
f 26/36/28/3 30/40/32/30 31/41/33/31 
f 26/36/28/3 31/41/33/31 27/37/29/27 
f 28/38/30/28 32/42/34/32 33/43/35/33 
f 28/38/30/28 33/43/35/33 29/39/31/29 
f 34/44/36/34 35/45/37/3 36/46/38/3 
f 34/44/36/34 36/46/38/3 37/47/39/35 
f 38/48/40/36 11/17/13/12 10/16/12/11 
f 38/48/40/36 10/16/12/11 39/49/41/37 
f 3/9/5/4 2/8/4/3 35/45/37/3 
f 3/9/5/4 35/45/37/3 34/44/36/34 
f 5/11/7/6 38/48/40/36 39/49/41/37 
f 5/11/7/6 39/49/41/37 6/12/8/7 
f 4/10/6/5 0/50/2/38 3/51/5/39 
f 4/10/6/5 3/51/5/39 5/11/7/6 
f 7/52/9/40 6/53/8/41 40/54/42/42 
f 7/52/9/40 40/54/42/42 41/55/43/43 
f 24/56/26/44 8/14/10/9 11/17/13/12 
f 24/56/26/44 11/17/13/12 37/57/39/45 
f 9/58/11/46 12/18/14/13 15/21/17/15 
f 9/58/11/46 15/21/17/15 10/59/12/47 
f 19/60/21/48 0/50/2/38 4/10/6/5 
f 19/60/21/48 4/10/6/5 21/32/23/24 
f 42/61/44/49 22/62/24/50 7/52/9/40 
f 42/61/44/49 7/52/9/40 41/55/43/43 
f 20/26/22/19 16/63/18/51 19/64/21/52 
f 20/26/22/19 19/64/21/52 21/27/23/20 
f 42/65/44/53 43/66/45/54 23/29/25/22 
f 42/65/44/53 23/29/25/22 22/28/24/21 
f 27/67/29/55 28/38/30/28 8/14/10/9 
f 27/67/29/55 8/14/10/9 24/56/26/44 
f 9/58/11/46 29/68/31/56 44/69/46/57 
f 9/58/11/46 44/69/46/57 12/18/14/13 
f 27/67/29/55 31/70/33/58 32/42/34/32 
f 27/67/29/55 32/42/34/32 28/38/30/28 
f 33/71/35/59 45/72/47/60 44/69/46/57 
f 33/71/35/59 44/69/46/57 29/68/31/56 
f 37/57/39/45 11/17/13/12 38/48/40/36 
f 37/57/39/45 38/48/40/36 34/73/36/61 
f 39/74/41/62 10/59/12/47 15/21/17/15 
f 39/74/41/62 15/21/17/15 46/75/48/63 
f 34/73/36/61 38/48/40/36 5/11/7/6 
f 34/73/36/61 5/11/7/6 3/51/5/39 
f 6/53/8/41 39/74/41/62 46/75/48/63 
f 6/53/8/41 46/75/48/63 40/54/42/42 
f 45/76/47/64 33/77/35/65 32/78/34/66 
f 45/76/47/64 32/78/34/66 30/79/32/67 
f 32/78/34/66 31/80/33/68 30/79/32/67 
f 47/81/49/69 45/76/47/64 30/79/32/67 
f 41/55/43/43 40/54/42/42 48/82/50/14 
f 41/55/43/43 48/82/50/14 49/83/51/14 
f 24/34/26/26 37/47/39/35 36/46/38/3 
f 24/34/26/26 36/46/38/3 25/35/27/3 
f 43/66/45/54 42/65/44/53 50/84/52/14 
f 43/66/45/54 50/84/52/14 51/85/53/70 
f 50/86/52/14 42/61/44/49 41/55/43/43 
f 50/86/52/14 41/55/43/43 49/83/51/14 
f 12/18/14/13 44/69/46/57 52/87/54/14 
f 12/18/14/13 52/87/54/14 13/19/15/14 
f 52/87/54/14 44/69/46/57 45/72/47/60 
f 52/87/54/14 45/72/47/60 47/88/49/14 
f 46/75/48/63 15/21/17/15 14/20/16/14 
f 46/75/48/63 14/20/16/14 53/89/55/14 
f 40/54/42/42 46/75/48/63 53/89/55/14 
f 40/54/42/42 53/89/55/14 48/82/50/14 
