v -207.7045 220.9971 -239.7409
v -207.7045 220.9971 -316.4948
v -284.5825 220.9971 -316.4948
v -284.5825 220.9971 -239.7409
v -284.5825 212.9782 -239.7409
v -284.5825 212.9782 -316.4948
v -284.5825 207.888 -316.4948
v -284.5825 207.888 -239.7409
v -207.7045 212.9782 -316.4948
v -207.7045 207.888 -316.4948
v -207.7045 212.9782 -239.7409
v -207.7045 207.888 -239.7409
v -282.3922 204.0866 -241.9277
v -209.8948 204.0866 -241.9277
v -209.8948 204.0866 -314.308
v -282.3922 204.0866 -314.308
v -276.8567 201.1721 -247.4543
v -215.4303 201.1721 -247.4543
v -215.4303 201.1721 -308.7814
v -276.8567 201.1721 -308.7814
v -235.1909 186.6514 -304.1154
v -220.084 186.6514 -289.0085
v -220.084 -2.4607 -289.0085
v -235.1909 -2.4606 -304.1154
v -220.084 186.6514 -267.644
v -220.084 -2.4607 -267.644
v -235.1909 186.6514 -252.537
v -235.1909 -2.4607 -252.537
v -256.5554 186.6514 -252.537
v -256.5554 -2.4607 -252.537
v -271.6624 186.6514 -267.644
v -271.6624 -2.4607 -267.644
v -271.6624 186.6514 -289.0085
v -271.6624 -2.4607 -289.0085
v -256.5554 186.6514 -304.1154
v -256.5554 -2.4606 -304.1154
v -234.5387 192.5002 -305.69
v -218.5094 192.5002 -289.6607
v -220.084 191.226 -289.0085
v -235.1909 191.226 -304.1154
v -218.5094 192.5002 -266.9918
v -220.084 191.226 -267.644
v -234.5387 192.5002 -250.9625
v -235.1909 191.226 -252.537
v -257.2075 192.5002 -250.9625
v -256.5554 191.226 -252.537
v -273.2368 192.5002 -266.9918
v -271.6624 191.226 -267.644
v -273.2368 192.5002 -289.6607
v -271.6624 191.226 -289.0085
v -257.2075 192.5002 -305.69
v -256.5554 191.226 -304.1154
v -234.2607 199.2605 -306.361
v -217.8384 199.2605 -289.9387
v -219.599 196.3225 -289.2094
v -234.99 196.3225 -304.6004
v -217.8384 199.2605 -266.7139
v -219.599 196.3225 -267.4432
v -234.2607 199.2605 -250.2914
v -234.99 196.3225 -252.0521
v -257.4855 199.2605 -250.2914
v -256.7562 196.3225 -252.0521
v -273.908 199.2605 -266.7139
v -272.1472 196.3225 -267.4432
v -273.908 199.2605 -289.9387
v -272.1472 196.3225 -289.2094
v -257.4855 199.2605 -306.361
v -256.7562 196.3225 -304.6004
v -234.1573 188.9388 -306.6105
v -217.5889 188.9388 -290.042
v -217.5889 188.9388 -266.6105
v -234.1573 188.9388 -250.0419
v -257.5889 188.9388 -250.0419
v -274.1575 188.9388 -266.6105
v -274.1575 188.9388 -290.042
v -257.5889 188.9388 -306.6105
v -234.9325 193.7742 -304.7392
v -219.4602 193.7742 -289.2668
v -219.4602 193.7742 -267.3856
v -234.9325 193.7742 -251.9133
v -256.8137 193.7742 -251.9133
v -272.2861 193.7742 -267.3856
v -272.2861 193.7742 -289.2668
v -256.8137 193.7742 -304.7392
v -283.6539 215.2094 -240.6694
v -283.6539 215.2094 -315.5662
v -283.6539 212.9782 -315.5662
v -283.6539 212.9782 -240.6694
v -208.6331 215.2094 -315.5662
v -208.6331 212.9782 -315.5662
v -208.6331 215.2094 -240.6694
v -208.6331 212.9782 -240.6694
v -284.5825 215.2094 -239.7409
v -284.5825 215.2094 -316.4948
v -207.7045 215.2094 -316.4948
v -207.7045 215.2094 -239.7409
gi 0 0 0 0
gi 0 0 0 0
gi 0 0 0 0
gi 0 0 0 0
gi 0 0 0 0
gi 0 0 0 0
gi 0 0 0 0
gi 0 0 0 0
gi 0 0 0 0
gi 0 0 0 0
gi 0 0 0 0
gi 0 0 0 0
gi 0 0 0 0
gi 0 0 0 0
gi 0 0 0 0
gi 0 0 0 0
gi 0 0 0 0
gi 0 0 0 0
gi 0 0 0 0
gi 0 0 0 0
gi 0 0 0 0
gi 0 0 0 0
gi 0 0 0 0
gi 0 0 0 0
gi 0 0 0 0
gi 0 0 0 0
gi 0 0 0 0
gi 0 0 0 0
gi 0 0 0 0
gi 0 0 0 0
gi 0 0 0 0
gi 0 0 0 0
gi 0 0 0 0
gi 0 0 0 0
gi 0 0 0 0
gi 0 0 0 0
gi 0 0 0 0
gi 0 0 0 0
gi 0 0 0 0
gi 0 0 0 0
gi 0 0 0 0
gi 0 0 0 0
gi 0 0 0 0
gi 0 0 0 0
gi 0 0 0 0
gi 0 0 0 0
gi 0 0 0 0
gi 0 0 0 0
gi 0 0 0 0
gi 0 0 0 0
gi 0 0 0 0
gi 0 0 0 0
gi 0 0 0 0
gi 0 0 0 0
gi 0 0 0 0
gi 0 0 0 0
gi 0 0 0 0
gi 0 0 0 0
gi 0 0 0 0
gi 0 0 0 0
gi 0 0 0 0
gi 0 0 0 0
gi 0 0 0 0
gi 0 0 0 0
gi 0 0 0 0
gi 0 0 0 0
gi 0 0 0 0
gi 0 0 0 0
gi 0 0 0 0
gi 0 0 0 0
gi 0 0 0 0
gi 0 0 0 0
gi 0 0 0 0
gi 0 0 0 0
gi 0 0 0 0
gi 0 0 0 0
gi 0 0 0 0
gi 0 0 0 0
gi 0 0 0 0
gi 0 0 0 0
gi 0 0 0 0
gi 0 0 0 0
gi 0 0 0 0
gi 0 0 0 0
gi 0 0 0 0
gi 0 0 0 0
gi 0 0 0 0
gi 0 0 0 0
gi 0 0 0 0
gi 0 0 0 0
gi 0 0 0 0
gi 0 0 0 0
gi 0 0 0 0
gi 0 0 0 0
gi 0 0 0 0
gi 0 0 0 0
gw 0.0 0.0 0.0 0.0
gw 0.0 0.0 0.0 0.0
gw 0.0 0.0 0.0 0.0
gw 0.0 0.0 0.0 0.0
gw 0.0 0.0 0.0 0.0
gw 0.0 0.0 0.0 0.0
gw 0.0 0.0 0.0 0.0
gw 0.0 0.0 0.0 0.0
gw 0.0 0.0 0.0 0.0
gw 0.0 0.0 0.0 0.0
gw 0.0 0.0 0.0 0.0
gw 0.0 0.0 0.0 0.0
gw 0.0 0.0 0.0 0.0
gw 0.0 0.0 0.0 0.0
gw 0.0 0.0 0.0 0.0
gw 0.0 0.0 0.0 0.0
gw 0.0 0.0 0.0 0.0
gw 0.0 0.0 0.0 0.0
gw 0.0 0.0 0.0 0.0
gw 0.0 0.0 0.0 0.0
gw 0.0 0.0 0.0 0.0
gw 0.0 0.0 0.0 0.0
gw 0.0 0.0 0.0 0.0
gw 0.0 0.0 0.0 0.0
gw 0.0 0.0 0.0 0.0
gw 0.0 0.0 0.0 0.0
gw 0.0 0.0 0.0 0.0
gw 0.0 0.0 0.0 0.0
gw 0.0 0.0 0.0 0.0
gw 0.0 0.0 0.0 0.0
gw 0.0 0.0 0.0 0.0
gw 0.0 0.0 0.0 0.0
gw 0.0 0.0 0.0 0.0
gw 0.0 0.0 0.0 0.0
gw 0.0 0.0 0.0 0.0
gw 0.0 0.0 0.0 0.0
gw 0.0 0.0 0.0 0.0
gw 0.0 0.0 0.0 0.0
gw 0.0 0.0 0.0 0.0
gw 0.0 0.0 0.0 0.0
gw 0.0 0.0 0.0 0.0
gw 0.0 0.0 0.0 0.0
gw 0.0 0.0 0.0 0.0
gw 0.0 0.0 0.0 0.0
gw 0.0 0.0 0.0 0.0
gw 0.0 0.0 0.0 0.0
gw 0.0 0.0 0.0 0.0
gw 0.0 0.0 0.0 0.0
gw 0.0 0.0 0.0 0.0
gw 0.0 0.0 0.0 0.0
gw 0.0 0.0 0.0 0.0
gw 0.0 0.0 0.0 0.0
gw 0.0 0.0 0.0 0.0
gw 0.0 0.0 0.0 0.0
gw 0.0 0.0 0.0 0.0
gw 0.0 0.0 0.0 0.0
gw 0.0 0.0 0.0 0.0
gw 0.0 0.0 0.0 0.0
gw 0.0 0.0 0.0 0.0
gw 0.0 0.0 0.0 0.0
gw 0.0 0.0 0.0 0.0
gw 0.0 0.0 0.0 0.0
gw 0.0 0.0 0.0 0.0
gw 0.0 0.0 0.0 0.0
gw 0.0 0.0 0.0 0.0
gw 0.0 0.0 0.0 0.0
gw 0.0 0.0 0.0 0.0
gw 0.0 0.0 0.0 0.0
gw 0.0 0.0 0.0 0.0
gw 0.0 0.0 0.0 0.0
gw 0.0 0.0 0.0 0.0
gw 0.0 0.0 0.0 0.0
gw 0.0 0.0 0.0 0.0
gw 0.0 0.0 0.0 0.0
gw 0.0 0.0 0.0 0.0
gw 0.0 0.0 0.0 0.0
gw 0.0 0.0 0.0 0.0
gw 0.0 0.0 0.0 0.0
gw 0.0 0.0 0.0 0.0
gw 0.0 0.0 0.0 0.0
gw 0.0 0.0 0.0 0.0
gw 0.0 0.0 0.0 0.0
gw 0.0 0.0 0.0 0.0
gw 0.0 0.0 0.0 0.0
gw 0.0 0.0 0.0 0.0
gw 0.0 0.0 0.0 0.0
gw 0.0 0.0 0.0 0.0
gw 0.0 0.0 0.0 0.0
gw 0.0 0.0 0.0 0.0
gw 0.0 0.0 0.0 0.0
gw 0.0 0.0 0.0 0.0
gw 0.0 0.0 0.0 0.0
gw 0.0 0.0 0.0 0.0
gw 0.0 0.0 0.0 0.0
gw 0.0 0.0 0.0 0.0
gw 0.0 0.0 0.0 0.0
vt 0.2969 0.905
vt 0.2969 0.7136
vt 0.1052 0.7136
vt 0.1052 0.905
vt 0.0419 0.0149
vt 0.0419 0.2559
vt 0.0579 0.2559
vt 0.0579 0.0149
vt 0.0419 0.4944
vt 0.0577 0.4944
vt 0.0419 0.7325
vt 0.0577 0.7325
vt 0.0419 0.974
vt 0.0579 0.974
vt 0.0698 0.9671
vt 0.0698 0.7394
vt 0.0694 0.7257
vt 0.0694 0.5012
vt 0.0694 0.4876
vt 0.0694 0.2627
vt 0.0698 0.2491
vt 0.0698 0.0217
vt 0.0871 0.9497
vt 0.0871 0.7568
vt 0.0866 0.7086
vt 0.0866 0.5183
vt 0.0866 0.4704
vt 0.0866 0.2799
vt 0.0872 0.2317
vt 0.0872 0.0391
vt 0.8215 0.9003
vt 0.8927 0.9003
vt 0.8927 0.0086
vt 0.8215 0.0086
vt 0.9935 0.9003
vt 0.9935 0.0086
vt 0.3056 0.9003
vt 0.3768 0.9003
vt 0.3768 0.0086
vt 0.3056 0.0086
vt 0.4775 0.9003
vt 0.4775 0.0086
vt 0.5488 0.9003
vt 0.5488 0.0086
vt 0.6495 0.9003
vt 0.6495 0.0086
vt 0.7207 0.9003
vt 0.7207 0.0086
vt 0.1356 0.9493
vt 0.2428 0.9493
vt 0.2428 0.9414
vt 0.1356 0.9414
vt 0.35 0.9493
vt 0.35 0.9414
vt 0.4571 0.9493
vt 0.4571 0.9414
vt 0.5643 0.9493
vt 0.5643 0.9414
vt 0.6715 0.9493
vt 0.6715 0.9414
vt 0.7787 0.9493
vt 0.7787 0.9414
vt 0.8859 0.9493
vt 0.8859 0.9414
vt 0.9931 0.9493
vt 0.9931 0.9414
vt 0.1356 0.9908
vt 0.2428 0.9908
vt 0.2428 0.9727
vt 0.1356 0.9727
vt 0.35 0.9908
vt 0.35 0.9727
vt 0.4571 0.9908
vt 0.4571 0.9727
vt 0.5643 0.9908
vt 0.5643 0.9727
vt 0.6715 0.9908
vt 0.6715 0.9727
vt 0.7787 0.9908
vt 0.7787 0.9727
vt 0.8859 0.9908
vt 0.8859 0.9727
vt 0.9931 0.9908
vt 0.9931 0.9727
vt 0.0941 0.6488
vt 0.0941 0.5768
vt 0.145 0.5258
vt 0.0941 0.412
vt 0.0941 0.34
vt 0.148 0.2241
vt 0.0964 0.1725
vt 0.0964 0.0996
vt 0.148 0.048
vt 0.0961 0.8889
vt 0.0961 0.8159
vt 0.145 0.6998
vt 0.1356 0.9133
vt 0.1356 0.9274
vt 0.2428 0.9274
vt 0.2428 0.9133
vt 0.35 0.9274
vt 0.35 0.9133
vt 0.4571 0.9274
vt 0.4571 0.9133
vt 0.5643 0.9274
vt 0.5643 0.9133
vt 0.6715 0.9274
vt 0.6715 0.9133
vt 0.7787 0.9274
vt 0.7787 0.9133
vt 0.8859 0.9274
vt 0.8859 0.9133
vt 0.9931 0.9274
vt 0.9931 0.9133
vt 0.1356 0.9571
vt 0.2428 0.9571
vt 0.35 0.9571
vt 0.4571 0.9571
vt 0.5643 0.9571
vt 0.6715 0.9571
vt 0.7787 0.9571
vt 0.8859 0.9571
vt 0.9931 0.9571
vt 0.0318 0.0178
vt 0.0318 0.2559
vt 0.0389 0.2559
vt 0.0389 0.0178
vt 0.0318 0.4944
vt 0.0389 0.4944
vt 0.0318 0.7325
vt 0.0389 0.7325
vt 0.0318 0.971
vt 0.0389 0.971
vt 0.0243 0.4945
vt 0.0059 0.4945
vt 0.0059 0.7385
vt 0.0243 0.7385
vt 0.0059 0.9829
vt 0.0243 0.9829
vt 0.0059 0.2501
vt 0.0243 0.2501
vt 0.0243 0.0061
vt 0.0059 0.0061
vt 0.0272 0.7355
vt 0.0272 0.4974
vt 0.0272 0.4915
vt 0.0272 0.253
vt 0.0272 0.2471
vt 0.0272 0.009
vt 0.0272 0.9799
vt 0.0272 0.7414
vn 0.5773 0.5774 0.5773
vn 0.5773 0.5773 -0.5774
vn -0.5773 0.5774 -0.5773
vn -0.5773 0.5773 0.5774
vn -0.5773 0.5774 0.5773
vn -0.5773 0.5774 -0.5774
vn -0.6757 -0.2951 -0.6756
vn -0.6756 -0.2951 0.6756
vn 0.5773 0.5774 -0.5773
vn 0.6756 -0.2951 -0.6756
vn 0.5773 0.5774 0.5773
vn 0.6757 -0.2951 0.6756
vn -0.4624 -0.7564 0.4627
vn 0.4624 -0.7564 0.4627
vn 0.4624 -0.7564 -0.4627
vn -0.4624 -0.7564 -0.4627
vn -0.2162 -0.952 0.2165
vn 0.217 -0.9516 0.2177
vn 0.218 -0.9512 -0.2183
vn -0.2172 -0.9517 -0.2171
vn 0.3387 -0.4655 -0.8177
vn 0.8177 -0.4655 -0.3387
vn 0.9239 0.0 -0.3827
vn 0.3827 0.0 -0.9239
vn 0.8177 -0.4655 0.3387
vn 0.9239 0.0 0.3827
vn 0.3387 -0.4655 0.8177
vn 0.3827 -0.0 0.9239
vn -0.3387 -0.4655 0.8177
vn -0.3827 -0.0 0.9239
vn -0.8177 -0.4655 0.3387
vn -0.9239 -0.0 0.3827
vn -0.8177 -0.4655 -0.3387
vn -0.9239 0.0 -0.3827
vn -0.3387 -0.4655 -0.8177
vn -0.3827 0.0 -0.9239
vn 0.3805 -0.1071 -0.9186
vn 0.9186 -0.1071 -0.3805
vn 0.9232 -0.0385 -0.3824
vn 0.3824 -0.0385 -0.9232
vn 0.9186 -0.1071 0.3805
vn 0.9232 -0.0385 0.3824
vn 0.3805 -0.1071 0.9186
vn 0.3824 -0.0384 0.9232
vn -0.3805 -0.1071 0.9186
vn -0.3824 -0.0384 0.9232
vn -0.9186 -0.1071 0.3805
vn -0.9232 -0.0384 0.3824
vn -0.9186 -0.1071 -0.3805
vn -0.9232 -0.0384 -0.3824
vn -0.3805 -0.1071 -0.9186
vn -0.3824 -0.0384 -0.9232
vn 0.1476 -0.7559 -0.6379
vn 0.6388 -0.7551 -0.1476
vn 0.8879 -0.2764 -0.3678
vn 0.3678 -0.2764 -0.8879
vn 0.6389 -0.7551 0.1473
vn 0.8879 -0.2764 0.3678
vn 0.1479 -0.7801 0.6079
vn 0.3678 -0.2764 0.8879
vn -0.1475 -0.7801 0.608
vn -0.3678 -0.2764 0.8879
vn -0.6008 -0.7857 0.1477
vn -0.8879 -0.2764 0.3678
vn -0.6007 -0.7856 -0.148
vn -0.8879 -0.2764 -0.3678
vn -0.1472 -0.7559 -0.6379
vn -0.3678 -0.2764 -0.8879
vn 0.3827 0.0 -0.9239
vn 0.9239 0.0 -0.3827
vn 0.9239 0.0 0.3827
vn 0.3827 0.0 0.9239
vn -0.3827 0.0 0.9239
vn -0.9239 0.0 0.3827
vn -0.9239 0.0 -0.3827
vn -0.3827 0.0 -0.9239
vn 0.3526 0.3886 -0.8512
vn 0.8513 0.3886 -0.3526
vn 0.8512 0.3887 0.3526
vn 0.3526 0.3886 0.8513
vn -0.3526 0.3886 0.8512
vn -0.8512 0.3886 0.3526
vn -0.8513 0.3886 -0.3526
vn -0.3526 0.3886 -0.8513
vn -0.3015 -0.9045 0.3015
vn -0.3015 -0.9045 -0.3015
vn -0.3015 0.9045 -0.3015
vn -0.3015 0.9045 0.3015
vn 0.3015 -0.9045 -0.3015
vn 0.3015 0.9045 -0.3015
vn 0.3015 -0.9045 0.3015
vn 0.3015 0.9045 0.3015
vn -0.5773 -0.5774 0.5773
vn -0.5773 -0.5774 -0.5774
vn 0.5773 -0.5774 -0.5773
vn 0.5773 -0.5774 0.5773
vtan 0.8165 -0.4083 -0.4082
vtan 0.8165 -0.4082 0.4082
vtan 0.8165 0.4083 -0.4082
vtan 0.8165 0.4082 0.4082
vtan -0.6165 -0.7719 0.1554
vtan -0.4093 -0.8165 -0.4072
vtan 0.2083 -0.9555 0.2091
vtan 0.3095 -0.9453 -0.1034
vtan 0.4071 -0.8165 -0.4095
vtan -0.2089 -0.9555 0.2085
vtan 0.4095 -0.8165 0.407
vtan -0.2088 -0.9555 -0.2086
vtan -0.1503 -0.7702 0.6199
vtan 0.1023 -0.945 -0.3105
vtan 0.1459 -0.5796 -0.8017
vtan -0.1458 -0.5796 -0.8018
vtan -0.8016 -0.5796 -0.1463
vtan -0.8017 -0.5796 0.1463
vtan -0.1463 -0.5798 0.8015
vtan 0.1462 -0.5798 0.8016
vtan 0.8006 -0.5805 0.1488
vtan 0.8004 -0.5806 -0.1491
vtan 0.0575 -0.2338 -0.9706
vtan -0.0577 -0.2351 -0.9703
vtan -0.973 -0.2288 -0.0301
vtan -0.9728 -0.2297 0.0296
vtan -0.0575 -0.2358 0.9701
vtan 0.0577 -0.2345 0.9704
vtan 0.9733 -0.2282 0.0267
vtan 0.9734 -0.2273 -0.0273
vtan 0.9239 0.0 0.3827
vtan 0.3827 0.0 0.9239
vtan 0.3827 -0.0 0.9239
vtan 0.9239 0.0 0.3827
vtan -0.2943 0.1676 0.9409
vtan -0.3827 -0.0 0.9239
vtan -0.4572 -0.1676 0.8735
vtan -0.9239 0.0 0.3827
vtan -0.9239 0.0 0.3827
vtan -0.3827 0.0 0.9239
vtan -0.9239 0.0 -0.3827
vtan -0.9239 0.0 -0.3827
vtan -0.3827 0.0 -0.9239
vtan -0.3827 0.0 -0.9239
vtan 0.3827 0.0 -0.9239
vtan 0.3827 0.0 -0.9239
vtan 0.9239 0.0 -0.3827
vtan 0.9239 0.0 -0.3827
vtan 0.9212 -0.0441 0.3867
vtan 0.3827 -0.0 0.9239
vtan 0.3827 0.0 0.9239
vtan 0.9235 -0.0159 0.3832
vtan -0.3827 -0.0 0.9239
vtan -0.3827 0.0 0.9239
vtan -0.9239 -0.0 0.3827
vtan -0.9239 0.0 0.3827
vtan -0.9239 -0.0 -0.3827
vtan -0.9239 0.0 -0.3827
vtan -0.3827 -0.0 -0.9239
vtan -0.3827 0.0 -0.9239
vtan 0.3827 -0.0 -0.9239
vtan 0.3827 0.0 -0.9239
vtan 0.9239 -0.0 -0.3827
vtan 0.9239 0.0 -0.3827
vtan 0.9248 0.0441 0.3779
vtan 0.924 0.0159 0.3821
vtan 0.8084 -0.2794 0.5181
vtan 0.3143 0.081 0.9459
vtan 0.3827 -0.0 0.9239
vtan 0.9059 -0.1093 0.4092
vtan -0.3141 -0.0813 0.9459
vtan -0.3827 -0.0 0.9239
vtan -0.9433 0.0734 0.3237
vtan -0.9239 -0.0 0.3827
vtan -0.9434 -0.0737 -0.3234
vtan -0.9239 0.0 -0.3827
vtan -0.3256 0.0717 -0.9428
vtan -0.3827 -0.0 -0.9239
vtan 0.3258 -0.0715 -0.9427
vtan 0.3827 -0.0 -0.9239
vtan 0.9458 0.0811 -0.3144
vtan 0.9239 -0.0 -0.3827
vtan 0.989 0.1128 0.0952
vtan 0.9299 0.1093 0.3511
vtan -0.7658 -0.6426 0.0274
vtan -0.7661 -0.642 -0.0316
vtan -0.9874 -0.1501 -0.0506
vtan 0.0071 -0.6441 0.7649
vtan -0.0071 -0.6441 0.7649
vtan 0.9875 -0.1488 -0.0515
vtan 0.7969 -0.6032 -0.0328
vtan 0.7967 -0.6036 0.0298
vtan 0.9877 -0.1488 0.0487
vtan -0.0075 -0.6138 -0.7894
vtan 0.0021 -0.6144 -0.789
vtan -0.9875 -0.1499 0.0479
vtan 0.8734 -0.1676 0.4572
vtan 0.9239 0.0 0.3827
vtan 0.3827 -0.0 0.9239
vtan 0.3827 0.0 0.9239
vtan -0.3827 -0.0 0.9239
vtan -0.3827 0.0 0.9239
vtan -0.9239 -0.0 0.3827
vtan -0.9239 0.0 0.3827
vtan -0.9239 0.0 -0.3827
vtan -0.9239 0.0 -0.3827
vtan -0.3827 0.0 -0.9239
vtan -0.3827 0.0 -0.9239
vtan 0.3827 -0.0 -0.9239
vtan 0.3827 0.0 -0.9239
vtan 0.9239 -0.0 -0.3827
vtan 0.9239 0.0 -0.3827
vtan 0.9239 -0.0 0.3827
vtan 0.9409 0.1676 0.2943
vtan 0.8885 0.1464 0.4349
vtan 0.3827 0.0 0.9239
vtan -0.3827 -0.0 0.9239
vtan -0.9239 -0.0 0.3827
vtan -0.9239 -0.0 -0.3827
vtan -0.3827 -0.0 -0.9239
vtan 0.3827 -0.0 -0.9239
vtan 0.9239 -0.0 -0.3827
vtan 0.9358 -0.1464 0.3208
vtan 0.6396 -0.4264 -0.6396
vtan 0.6396 -0.4264 0.6396
vtan -0.6382 -0.4264 -0.641
vtan -0.9316 -0.3468 0.1087
vtan -0.6396 -0.4264 0.6396
vtan 0.641 -0.4264 -0.6382
vtan -0.6396 -0.4264 -0.6396
vtan 0.6386 -0.4264 0.6406
vtan -0.0955 -0.3433 0.9344
vtan 0.4062 -0.8165 -0.4103
vtan -0.4082 -0.8165 0.4082
vtan -0.4083 -0.8165 -0.4083
vtan 0.4103 -0.8165 0.4062
vtan 0.4082 -0.8165 -0.4082
vtan -0.1511 -0.7704 0.6193
vtan 0.4083 -0.8165 0.4083
vtan -0.4104 -0.8165 -0.4062
vtan -0.6148 -0.7727 0.1579
vtan 0.9533 -0.2809 -0.1107
vtan 0.9533 -0.2915 0.0788
vtan -0.1107 -0.2809 -0.9533
vtan 0.0786 -0.2916 -0.9533
vtan -0.9533 -0.2809 0.1108
vtan -0.9533 -0.2916 -0.0786
vtan 0.1106 -0.2809 0.9533
vtan -0.0787 -0.2916 0.9533
f 0/0/0/0 1/1/1/1 2/2/2/2 
f 0/0/0/0 2/2/2/2 3/3/3/3 
f 4/4/4/4 5/5/5/5 6/6/6/6 
f 4/4/4/4 6/6/6/6 7/7/7/7 
f 5/5/5/5 8/8/8/8 9/9/9/9 
f 5/5/5/5 9/9/9/9 6/6/6/6 
f 8/8/8/8 10/10/10/10 11/11/11/11 
f 8/8/8/8 11/11/11/11 9/9/9/9 
f 10/10/10/10 4/12/4/12 7/13/7/13 
f 10/10/10/10 7/13/7/13 11/11/11/11 
f 12/14/12/14 13/15/13/15 11/11/11/11 
f 12/14/12/14 11/11/11/11 7/13/7/13 
f 13/16/13/16 14/17/14/17 9/9/9/9 
f 13/16/13/16 9/9/9/9 11/11/11/11 
f 14/18/14/18 15/19/15/19 6/6/6/6 
f 14/18/14/18 6/6/6/6 9/9/9/9 
f 15/20/15/20 12/21/12/21 7/7/7/7 
f 15/20/15/20 7/7/7/7 6/6/6/6 
f 12/14/12/14 16/22/16/22 17/23/17/23 
f 12/14/12/14 17/23/17/23 13/15/13/15 
f 13/16/13/16 17/24/17/24 18/25/18/25 
f 13/16/13/16 18/25/18/25 14/17/14/17 
f 14/18/14/18 18/26/18/26 19/27/19/27 
f 14/18/14/18 19/27/19/27 15/19/15/19 
f 15/20/15/20 19/28/19/28 16/29/16/29 
f 15/20/15/20 16/29/16/29 12/21/12/21 
f 20/30/20/30 21/31/21/31 22/32/22/32 
f 20/30/20/30 22/32/22/32 23/33/23/33 
f 21/31/21/31 24/34/24/34 25/35/25/35 
f 21/31/21/31 25/35/25/35 22/32/22/32 
f 24/36/24/36 26/37/26/37 27/38/27/38 
f 24/36/24/36 27/38/27/38 25/39/25/39 
f 26/37/26/37 28/40/28/40 29/41/29/41 
f 26/37/26/37 29/41/29/41 27/38/27/38 
f 28/40/28/40 30/42/30/42 31/43/31/43 
f 28/40/28/40 31/43/31/43 29/41/29/41 
f 30/42/30/42 32/44/32/44 33/45/33/45 
f 30/42/30/42 33/45/33/45 31/43/31/43 
f 32/44/32/44 34/46/34/46 35/47/35/47 
f 32/44/32/44 35/47/35/47 33/45/33/45 
f 34/46/34/46 20/30/20/30 23/33/23/33 
f 34/46/34/46 23/33/23/33 35/47/35/47 
f 36/48/36/48 37/49/37/49 38/50/38/50 
f 36/48/36/48 38/50/38/50 39/51/39/51 
f 37/49/37/49 40/52/40/52 41/53/41/53 
f 37/49/37/49 41/53/41/53 38/50/38/50 
f 40/52/40/52 42/54/42/54 43/55/43/55 
f 40/52/40/52 43/55/43/55 41/53/41/53 
f 42/54/42/54 44/56/44/56 45/57/45/57 
f 42/54/42/54 45/57/45/57 43/55/43/55 
f 44/56/44/56 46/58/46/58 47/59/47/59 
f 44/56/44/56 47/59/47/59 45/57/45/57 
f 46/58/46/58 48/60/48/60 49/61/49/61 
f 46/58/46/58 49/61/49/61 47/59/47/59 
f 48/60/48/60 50/62/50/62 51/63/51/63 
f 48/60/48/60 51/63/51/63 49/61/49/61 
f 50/62/50/62 36/64/36/64 39/65/39/65 
f 50/62/50/62 39/65/39/65 51/63/51/63 
f 52/66/52/66 53/67/53/67 54/68/54/68 
f 52/66/52/66 54/68/54/68 55/69/55/69 
f 53/67/53/67 56/70/56/70 57/71/57/71 
f 53/67/53/67 57/71/57/71 54/68/54/68 
f 56/70/56/70 58/72/58/72 59/73/59/73 
f 56/70/56/70 59/73/59/73 57/71/57/71 
f 58/72/58/72 60/74/60/74 61/75/61/75 
f 58/72/58/72 61/75/61/75 59/73/59/73 
f 60/74/60/74 62/76/62/76 63/77/63/77 
f 60/74/60/74 63/77/63/77 61/75/61/75 
f 62/76/62/76 64/78/64/78 65/79/65/79 
f 62/76/62/76 65/79/65/79 63/77/63/77 
f 64/78/64/78 66/80/66/80 67/81/67/81 
f 64/78/64/78 67/81/67/81 65/79/65/79 
f 66/80/66/80 52/82/52/82 55/83/55/83 
f 66/80/66/80 55/83/55/83 67/81/67/81 
f 56/84/56/84 53/85/53/85 18/25/18/25 
f 56/84/56/84 18/25/18/25 17/24/17/24 
f 18/25/18/25 53/85/53/85 52/86/52/86 
f 18/26/18/26 52/87/52/87 66/88/66/88 
f 18/26/18/26 66/88/66/88 19/27/19/27 
f 19/28/19/28 66/89/66/89 64/90/64/90 
f 19/28/19/28 64/90/64/90 62/91/62/91 
f 19/28/19/28 62/91/62/91 16/29/16/29 
f 16/29/16/29 62/91/62/91 60/92/60/92 
f 60/93/60/93 58/94/58/94 17/23/17/23 
f 60/93/60/93 17/23/17/23 16/22/16/22 
f 17/24/17/24 58/95/58/95 56/84/56/84 
f 20/96/20/96 68/97/68/97 69/98/69/98 
f 20/96/20/96 69/98/69/98 21/99/21/99 
f 21/99/21/99 69/98/69/98 70/100/70/100 
f 21/99/21/99 70/100/70/100 24/101/24/101 
f 24/101/24/101 70/100/70/100 71/102/71/102 
f 24/101/24/101 71/102/71/102 26/103/26/103 
f 26/103/26/103 71/102/71/102 72/104/72/104 
f 26/103/26/103 72/104/72/104 28/105/28/105 
f 28/105/28/105 72/104/72/104 73/106/73/106 
f 28/105/28/105 73/106/73/106 30/107/30/107 
f 30/107/30/107 73/106/73/106 74/108/74/108 
f 30/107/30/107 74/108/74/108 32/109/32/109 
f 32/109/32/109 74/108/74/108 75/110/75/110 
f 32/109/32/109 75/110/75/110 34/111/34/111 
f 34/111/34/111 75/110/75/110 68/112/68/112 
f 34/111/34/111 68/112/68/112 20/113/20/113 
f 68/97/68/97 39/51/39/51 38/50/38/50 
f 68/97/68/97 38/50/38/50 69/98/69/98 
f 69/98/69/98 38/50/38/50 41/53/41/53 
f 69/98/69/98 41/53/41/53 70/100/70/100 
f 70/100/70/100 41/53/41/53 43/55/43/55 
f 70/100/70/100 43/55/43/55 71/102/71/102 
f 71/102/71/102 43/55/43/55 45/57/45/57 
f 71/102/71/102 45/57/45/57 72/104/72/104 
f 72/104/72/104 45/57/45/57 47/59/47/59 
f 72/104/72/104 47/59/47/59 73/106/73/106 
f 73/106/73/106 47/59/47/59 49/61/49/61 
f 73/106/73/106 49/61/49/61 74/108/74/108 
f 74/108/74/108 49/61/49/61 51/63/51/63 
f 74/108/74/108 51/63/51/63 75/110/75/110 
f 75/110/75/110 51/63/51/63 39/65/39/65 
f 75/110/75/110 39/65/39/65 68/112/68/112 
f 76/114/76/114 55/69/55/69 54/68/54/68 
f 76/114/76/114 54/68/54/68 77/115/77/115 
f 77/115/77/115 54/68/54/68 57/71/57/71 
f 77/115/77/115 57/71/57/71 78/116/78/116 
f 78/116/78/116 57/71/57/71 59/73/59/73 
f 78/116/78/116 59/73/59/73 79/117/79/117 
f 79/117/79/117 59/73/59/73 61/75/61/75 
f 79/117/79/117 61/75/61/75 80/118/80/118 
f 80/118/80/118 61/75/61/75 63/77/63/77 
f 80/118/80/118 63/77/63/77 81/119/81/119 
f 81/119/81/119 63/77/63/77 65/79/65/79 
f 81/119/81/119 65/79/65/79 82/120/82/120 
f 82/120/82/120 65/79/65/79 67/81/67/81 
f 82/120/82/120 67/81/67/81 83/121/83/121 
f 83/121/83/121 67/81/67/81 55/83/55/83 
f 83/121/83/121 55/83/55/83 76/122/76/122 
f 36/48/36/48 76/114/76/114 77/115/77/115 
f 36/48/36/48 77/115/77/115 37/49/37/49 
f 37/49/37/49 77/115/77/115 78/116/78/116 
f 37/49/37/49 78/116/78/116 40/52/40/52 
f 40/52/40/52 78/116/78/116 79/117/79/117 
f 40/52/40/52 79/117/79/117 42/54/42/54 
f 42/54/42/54 79/117/79/117 80/118/80/118 
f 42/54/42/54 80/118/80/118 44/56/44/56 
f 44/56/44/56 80/118/80/118 81/119/81/119 
f 44/56/44/56 81/119/81/119 46/58/46/58 
f 46/58/46/58 81/119/81/119 82/120/82/120 
f 46/58/46/58 82/120/82/120 48/60/48/60 
f 48/60/48/60 82/120/82/120 83/121/83/121 
f 48/60/48/60 83/121/83/121 50/62/50/62 
f 50/62/50/62 83/121/83/121 76/122/76/122 
f 50/62/50/62 76/122/76/122 36/64/36/64 
f 84/123/84/123 85/124/85/124 86/125/86/125 
f 84/123/84/123 86/125/86/125 87/126/87/126 
f 85/124/85/124 88/127/88/127 89/128/89/128 
f 85/124/85/124 89/128/89/128 86/125/86/125 
f 88/127/88/127 90/129/90/129 91/130/91/130 
f 88/127/88/127 91/130/91/130 89/128/89/128 
f 90/129/90/129 84/131/84/123 87/132/87/131 
f 90/129/90/129 87/132/87/131 91/130/91/130 
f 92/133/92/132 3/134/3/133 2/135/2/134 
f 92/133/92/132 2/135/2/134 93/136/93/135 
f 93/136/93/135 2/135/2/134 1/137/1/136 
f 93/136/93/135 1/137/1/136 94/138/94/137 
f 0/139/0/138 95/140/95/139 94/141/94/140 
f 0/139/0/138 94/141/94/140 1/142/1/136 
f 95/140/95/139 0/139/0/138 3/134/3/133 
f 95/140/95/139 3/134/3/133 92/133/92/132 
f 87/126/87/126 86/125/86/125 5/5/5/5 
f 87/126/87/126 5/5/5/5 4/4/4/4 
f 86/125/86/125 89/128/89/128 8/8/8/8 
f 86/125/86/125 8/8/8/8 5/5/5/5 
f 89/128/89/128 91/130/91/130 10/10/10/10 
f 89/128/89/128 10/10/10/10 8/8/8/8 
f 91/130/91/130 87/132/87/131 4/12/4/12 
f 91/130/91/130 4/12/4/12 10/10/10/10 
f 85/143/85/141 84/144/84/142 92/133/92/132 
f 85/143/85/141 92/133/92/132 93/136/93/135 
f 84/145/84/143 90/146/90/144 95/140/95/139 
f 84/145/84/143 95/140/95/139 92/133/92/132 
f 90/147/90/145 88/148/88/146 94/141/94/140 
f 90/147/90/145 94/141/94/140 95/140/95/139 
f 88/149/88/147 85/150/85/148 93/136/93/135 
f 88/149/88/147 93/136/93/135 94/138/94/137 
