v -1003.6387 220.997 -263.2878
v -980.342 220.9971 -239.9911
v -947.9556 220.9971 -239.9911
v -1003.6387 220.9971 -316.8692
v -947.9556 220.9971 -316.8692
v -1003.6387 207.888 -316.8692
v -1003.6387 212.9782 -316.8692
v -947.9556 212.9782 -316.8692
v -947.9556 207.888 -316.8692
v -947.9556 212.9782 -239.9911
v -947.9556 207.888 -239.9911
v -950.4404 204.0866 -242.1814
v -950.4404 204.0866 -314.6789
v -980.342 207.888 -239.9911
v -982.5325 204.0866 -242.1815
v -956.7197 201.1721 -247.717
v -956.7197 201.1721 -309.1433
v -1003.6387 201.1721 -309.1433
v -1003.6387 204.0866 -314.6789
v -962.4951 -2.4607 -267.4776
v -962.4951 186.6514 -267.4776
v -979.6602 186.6514 -252.3706
v -979.6602 -2.4607 -252.3706
v -962.4951 -2.4607 -288.8421
v -962.4951 186.6514 -288.8421
v -979.6602 -2.4606 -303.949
v -979.6602 186.6514 -303.949
v -1003.6387 -2.4606 -303.949
v -1003.6387 186.6514 -303.949
v -962.4951 191.226 -267.4776
v -960.7061 192.5002 -266.8254
v -978.9189 192.5002 -250.7961
v -979.6602 191.226 -252.3706
v -962.4951 191.226 -288.8421
v -960.7061 192.5002 -289.4942
v -979.6602 191.226 -303.949
v -978.9189 192.5002 -305.5235
v -1003.6387 191.226 -303.949
v -1003.6387 192.5002 -305.5235
v -961.9438 196.3225 -267.2767
v -959.9436 199.2605 -266.5475
v -978.6033 199.2605 -250.125
v -979.4316 196.3225 -251.8857
v -961.9438 196.3225 -289.0429
v -959.9436 199.2605 -289.7722
v -979.4316 196.3225 -304.4339
v -978.6033 199.2605 -306.1946
v -1003.6387 196.3225 -304.4339
v -1003.6387 199.2605 -306.1946
v -988.0679 201.1721 -247.717
v -990.4761 199.2605 -250.125
v -978.4858 188.9388 -249.8755
v -990.2266 188.9386 -249.8755
v -992.7217 186.6514 -252.3706
v -959.6599 188.9388 -266.4441
v -959.6599 188.9388 -289.8756
v -978.4858 188.9388 -306.4441
v -992.7217 191.226 -252.3706
v -992.2366 196.3225 -251.8857
v -992.0979 193.7742 -251.7469
v -979.3662 193.7742 -251.7469
v -961.7864 193.7742 -267.2192
v -961.7864 193.7742 -289.1004
v -979.3662 193.7742 -304.5728
v -991.147 192.5002 -250.7961
v -1003.6387 212.9782 -315.9406
v -1003.6387 215.2094 -315.9406
v -949.0105 215.2094 -315.9406
v -949.0105 212.9782 -315.9406
v -949.0105 215.2094 -240.9197
v -949.0105 212.9782 -240.9197
v -980.342 215.2094 -239.9911
v -947.9556 215.2094 -239.9911
v -947.9556 215.2094 -316.8692
v -981.2708 215.2094 -240.9197
v -1003.6387 188.9386 -306.4441
v -1003.6387 193.7742 -304.5728
v -1003.6387 215.2094 -316.8692
v -1027.6174 186.6514 -303.949
v -1027.6174 -2.4606 -303.949
v -1027.6174 191.226 -303.949
v -1028.3586 192.5002 -305.5235
v -1027.8457 196.3225 -304.4339
v -1028.6743 199.2605 -306.1946
v -1036.4907 186.6514 -296.1397
v -1038.3674 188.9388 -298.0164
v -1028.7915 188.9388 -306.4441
v -1036.4907 191.226 -296.1397
v -1036.96 193.7742 -296.6089
v -1036.8555 196.3225 -296.5045
v -1027.9111 193.7742 -304.5728
v -1037.675 192.5002 -297.3241
v -1055.0298 204.0866 -314.6789
v -1057.2202 207.888 -316.8692
v -1049.3286 201.0647 -308.9778
v -1049.4944 201.1721 -309.1433
v -1057.2202 215.2094 -316.8692
v -1057.2202 220.9971 -316.8692
v -1056.2915 215.2094 -315.9406
v -980.342 212.9782 -239.9911
v -992.7217 -2.4607 -252.3706
v -981.2708 212.9782 -240.9197
v -1057.2202 212.9782 -316.8692
v -1036.4907 -2.4607 -296.1397
v -1038.1797 199.2605 -297.8288
v -1056.2915 212.9782 -315.9406
v -980.342 220.9971 -207.6046
v -1057.2202 220.9971 -263.2878
v -1057.2202 220.9971 -207.6047
v -1057.2202 212.9782 -207.6047
v -1057.2202 212.9782 -263.2878
v -1057.2202 207.888 -263.2878
v -1057.2202 207.888 -207.6047
v -980.342 212.9782 -207.6046
v -980.342 207.888 -207.6046
v -1055.0298 204.0866 -210.0894
v -982.5325 204.0866 -210.0894
v -1049.4944 201.1721 -216.3689
v -988.0679 201.1721 -216.3688
v -1055.0298 204.0866 -263.2878
v -1049.4944 201.1721 -263.2878
v -992.7217 186.6514 -239.3092
v -1007.8286 186.6513 -222.1441
v -1007.8286 -2.4607 -222.1441
v -992.7217 -2.4607 -239.3092
v -1029.1931 186.6513 -222.1441
v -1029.1931 -2.4607 -222.1441
v -1044.3 186.6514 -239.3092
v -1044.3 -2.4607 -239.3092
v -1044.3 186.6514 -263.2878
v -1044.3 -2.4607 -263.2878
v -991.147 192.5002 -238.568
v -1007.1763 192.5001 -220.3552
v -1007.8286 191.226 -222.1441
v -992.7217 191.226 -239.3092
v -1029.8452 192.5001 -220.3552
v -1029.1931 191.226 -222.1441
v -1045.8745 192.5002 -238.568
v -1044.3 191.226 -239.3092
v -1045.8745 192.5002 -263.2878
v -1044.3 191.226 -263.2878
v -990.4761 199.2605 -238.2523
v -1006.8984 199.2604 -219.5926
v -1007.6277 196.3225 -221.593
v -992.2366 196.3225 -239.0808
v -1030.123 199.2604 -219.5926
v -1029.3938 196.3225 -221.5929
v -1046.5457 199.2605 -238.2523
v -1044.7849 196.3225 -239.0808
v -1046.5457 199.2605 -263.2878
v -1044.7849 196.3225 -263.2878
v -990.2266 188.9388 -238.1348
v -1006.7949 188.9387 -219.3091
v -1030.2266 188.9387 -219.3091
v -1046.7952 188.9388 -238.1349
v -992.0979 193.7742 -239.0154
v -1007.5701 193.7742 -221.4354
v -1029.4514 193.7742 -221.4354
v -1044.9238 193.7742 -239.0154
v -1056.2915 215.2093 -208.6596
v -1056.2915 215.2094 -263.2878
v -1056.2915 212.9782 -263.2878
v -1056.2915 212.9782 -208.6596
v -981.2708 215.2093 -208.6596
v -981.2708 212.9782 -208.6596
v -980.342 215.2093 -207.6046
v -1057.2202 215.2093 -207.6047
v -1046.7952 188.9386 -263.2878
v -1044.9238 193.7742 -263.2878
v -1057.2202 215.2094 -263.2878
v -1044.3 186.6514 -287.2664
v -1044.3 -2.4607 -287.2664
v -1044.3 191.226 -287.2664
v -1045.8745 192.5002 -288.0077
v -1044.7849 196.3225 -287.4947
v -1046.5457 199.2605 -288.3233
v -1046.7952 188.9388 -288.4406
v -1044.9238 193.7742 -287.5603
gi 0 0 0 0
gi 0 0 0 0
gi 0 0 0 0
gi 0 0 0 0
gi 0 0 0 0
gi 0 0 0 0
gi 0 0 0 0
gi 0 0 0 0
gi 0 0 0 0
gi 0 0 0 0
gi 0 0 0 0
gi 0 0 0 0
gi 0 0 0 0
gi 0 0 0 0
gi 0 0 0 0
gi 0 0 0 0
gi 0 0 0 0
gi 0 0 0 0
gi 0 0 0 0
gi 0 0 0 0
gi 0 0 0 0
gi 0 0 0 0
gi 0 0 0 0
gi 0 0 0 0
gi 0 0 0 0
gi 0 0 0 0
gi 0 0 0 0
gi 0 0 0 0
gi 0 0 0 0
gi 0 0 0 0
gi 0 0 0 0
gi 0 0 0 0
gi 0 0 0 0
gi 0 0 0 0
gi 0 0 0 0
gi 0 0 0 0
gi 0 0 0 0
gi 0 0 0 0
gi 0 0 0 0
gi 0 0 0 0
gi 0 0 0 0
gi 0 0 0 0
gi 0 0 0 0
gi 0 0 0 0
gi 0 0 0 0
gi 0 0 0 0
gi 0 0 0 0
gi 0 0 0 0
gi 0 0 0 0
gi 0 0 0 0
gi 0 0 0 0
gi 0 0 0 0
gi 0 0 0 0
gi 0 0 0 0
gi 0 0 0 0
gi 0 0 0 0
gi 0 0 0 0
gi 0 0 0 0
gi 0 0 0 0
gi 0 0 0 0
gi 0 0 0 0
gi 0 0 0 0
gi 0 0 0 0
gi 0 0 0 0
gi 0 0 0 0
gi 0 0 0 0
gi 0 0 0 0
gi 0 0 0 0
gi 0 0 0 0
gi 0 0 0 0
gi 0 0 0 0
gi 0 0 0 0
gi 0 0 0 0
gi 0 0 0 0
gi 0 0 0 0
gi 0 0 0 0
gi 0 0 0 0
gi 0 0 0 0
gi 0 0 0 0
gi 0 0 0 0
gi 0 0 0 0
gi 0 0 0 0
gi 0 0 0 0
gi 0 0 0 0
gi 0 0 0 0
gi 0 0 0 0
gi 0 0 0 0
gi 0 0 0 0
gi 0 0 0 0
gi 0 0 0 0
gi 0 0 0 0
gi 0 0 0 0
gi 0 0 0 0
gi 0 0 0 0
gi 0 0 0 0
gi 0 0 0 0
gi 0 0 0 0
gi 0 0 0 0
gi 0 0 0 0
gi 0 0 0 0
gi 0 0 0 0
gi 0 0 0 0
gi 0 0 0 0
gi 0 0 0 0
gi 0 0 0 0
gi 0 0 0 0
gi 0 0 0 0
gi 0 0 0 0
gi 0 0 0 0
gi 0 0 0 0
gi 0 0 0 0
gi 0 0 0 0
gi 0 0 0 0
gi 0 0 0 0
gi 0 0 0 0
gi 0 0 0 0
gi 0 0 0 0
gi 0 0 0 0
gi 0 0 0 0
gi 0 0 0 0
gi 0 0 0 0
gi 0 0 0 0
gi 0 0 0 0
gi 0 0 0 0
gi 0 0 0 0
gi 0 0 0 0
gi 0 0 0 0
gi 0 0 0 0
gi 0 0 0 0
gi 0 0 0 0
gi 0 0 0 0
gi 0 0 0 0
gi 0 0 0 0
gi 0 0 0 0
gi 0 0 0 0
gi 0 0 0 0
gi 0 0 0 0
gi 0 0 0 0
gi 0 0 0 0
gi 0 0 0 0
gi 0 0 0 0
gi 0 0 0 0
gi 0 0 0 0
gi 0 0 0 0
gi 0 0 0 0
gi 0 0 0 0
gi 0 0 0 0
gi 0 0 0 0
gi 0 0 0 0
gi 0 0 0 0
gi 0 0 0 0
gi 0 0 0 0
gi 0 0 0 0
gi 0 0 0 0
gi 0 0 0 0
gi 0 0 0 0
gi 0 0 0 0
gi 0 0 0 0
gi 0 0 0 0
gi 0 0 0 0
gi 0 0 0 0
gi 0 0 0 0
gi 0 0 0 0
gi 0 0 0 0
gi 0 0 0 0
gi 0 0 0 0
gi 0 0 0 0
gi 0 0 0 0
gi 0 0 0 0
gi 0 0 0 0
gi 0 0 0 0
gi 0 0 0 0
gi 0 0 0 0
gi 0 0 0 0
gi 0 0 0 0
gi 0 0 0 0
gi 0 0 0 0
gi 0 0 0 0
gw 0.0 0.0 0.0 0.0
gw 0.0 0.0 0.0 0.0
gw 0.0 0.0 0.0 0.0
gw 0.0 0.0 0.0 0.0
gw 0.0 0.0 0.0 0.0
gw 0.0 0.0 0.0 0.0
gw 0.0 0.0 0.0 0.0
gw 0.0 0.0 0.0 0.0
gw 0.0 0.0 0.0 0.0
gw 0.0 0.0 0.0 0.0
gw 0.0 0.0 0.0 0.0
gw 0.0 0.0 0.0 0.0
gw 0.0 0.0 0.0 0.0
gw 0.0 0.0 0.0 0.0
gw 0.0 0.0 0.0 0.0
gw 0.0 0.0 0.0 0.0
gw 0.0 0.0 0.0 0.0
gw 0.0 0.0 0.0 0.0
gw 0.0 0.0 0.0 0.0
gw 0.0 0.0 0.0 0.0
gw 0.0 0.0 0.0 0.0
gw 0.0 0.0 0.0 0.0
gw 0.0 0.0 0.0 0.0
gw 0.0 0.0 0.0 0.0
gw 0.0 0.0 0.0 0.0
gw 0.0 0.0 0.0 0.0
gw 0.0 0.0 0.0 0.0
gw 0.0 0.0 0.0 0.0
gw 0.0 0.0 0.0 0.0
gw 0.0 0.0 0.0 0.0
gw 0.0 0.0 0.0 0.0
gw 0.0 0.0 0.0 0.0
gw 0.0 0.0 0.0 0.0
gw 0.0 0.0 0.0 0.0
gw 0.0 0.0 0.0 0.0
gw 0.0 0.0 0.0 0.0
gw 0.0 0.0 0.0 0.0
gw 0.0 0.0 0.0 0.0
gw 0.0 0.0 0.0 0.0
gw 0.0 0.0 0.0 0.0
gw 0.0 0.0 0.0 0.0
gw 0.0 0.0 0.0 0.0
gw 0.0 0.0 0.0 0.0
gw 0.0 0.0 0.0 0.0
gw 0.0 0.0 0.0 0.0
gw 0.0 0.0 0.0 0.0
gw 0.0 0.0 0.0 0.0
gw 0.0 0.0 0.0 0.0
gw 0.0 0.0 0.0 0.0
gw 0.0 0.0 0.0 0.0
gw 0.0 0.0 0.0 0.0
gw 0.0 0.0 0.0 0.0
gw 0.0 0.0 0.0 0.0
gw 0.0 0.0 0.0 0.0
gw 0.0 0.0 0.0 0.0
gw 0.0 0.0 0.0 0.0
gw 0.0 0.0 0.0 0.0
gw 0.0 0.0 0.0 0.0
gw 0.0 0.0 0.0 0.0
gw 0.0 0.0 0.0 0.0
gw 0.0 0.0 0.0 0.0
gw 0.0 0.0 0.0 0.0
gw 0.0 0.0 0.0 0.0
gw 0.0 0.0 0.0 0.0
gw 0.0 0.0 0.0 0.0
gw 0.0 0.0 0.0 0.0
gw 0.0 0.0 0.0 0.0
gw 0.0 0.0 0.0 0.0
gw 0.0 0.0 0.0 0.0
gw 0.0 0.0 0.0 0.0
gw 0.0 0.0 0.0 0.0
gw 0.0 0.0 0.0 0.0
gw 0.0 0.0 0.0 0.0
gw 0.0 0.0 0.0 0.0
gw 0.0 0.0 0.0 0.0
gw 0.0 0.0 0.0 0.0
gw 0.0 0.0 0.0 0.0
gw 0.0 0.0 0.0 0.0
gw 0.0 0.0 0.0 0.0
gw 0.0 0.0 0.0 0.0
gw 0.0 0.0 0.0 0.0
gw 0.0 0.0 0.0 0.0
gw 0.0 0.0 0.0 0.0
gw 0.0 0.0 0.0 0.0
gw 0.0 0.0 0.0 0.0
gw 0.0 0.0 0.0 0.0
gw 0.0 0.0 0.0 0.0
gw 0.0 0.0 0.0 0.0
gw 0.0 0.0 0.0 0.0
gw 0.0 0.0 0.0 0.0
gw 0.0 0.0 0.0 0.0
gw 0.0 0.0 0.0 0.0
gw 0.0 0.0 0.0 0.0
gw 0.0 0.0 0.0 0.0
gw 0.0 0.0 0.0 0.0
gw 0.0 0.0 0.0 0.0
gw 0.0 0.0 0.0 0.0
gw 0.0 0.0 0.0 0.0
gw 0.0 0.0 0.0 0.0
gw 0.0 0.0 0.0 0.0
gw 0.0 0.0 0.0 0.0
gw 0.0 0.0 0.0 0.0
gw 0.0 0.0 0.0 0.0
gw 0.0 0.0 0.0 0.0
gw 0.0 0.0 0.0 0.0
gw 0.0 0.0 0.0 0.0
gw 0.0 0.0 0.0 0.0
gw 0.0 0.0 0.0 0.0
gw 0.0 0.0 0.0 0.0
gw 0.0 0.0 0.0 0.0
gw 0.0 0.0 0.0 0.0
gw 0.0 0.0 0.0 0.0
gw 0.0 0.0 0.0 0.0
gw 0.0 0.0 0.0 0.0
gw 0.0 0.0 0.0 0.0
gw 0.0 0.0 0.0 0.0
gw 0.0 0.0 0.0 0.0
gw 0.0 0.0 0.0 0.0
gw 0.0 0.0 0.0 0.0
gw 0.0 0.0 0.0 0.0
gw 0.0 0.0 0.0 0.0
gw 0.0 0.0 0.0 0.0
gw 0.0 0.0 0.0 0.0
gw 0.0 0.0 0.0 0.0
gw 0.0 0.0 0.0 0.0
gw 0.0 0.0 0.0 0.0
gw 0.0 0.0 0.0 0.0
gw 0.0 0.0 0.0 0.0
gw 0.0 0.0 0.0 0.0
gw 0.0 0.0 0.0 0.0
gw 0.0 0.0 0.0 0.0
gw 0.0 0.0 0.0 0.0
gw 0.0 0.0 0.0 0.0
gw 0.0 0.0 0.0 0.0
gw 0.0 0.0 0.0 0.0
gw 0.0 0.0 0.0 0.0
gw 0.0 0.0 0.0 0.0
gw 0.0 0.0 0.0 0.0
gw 0.0 0.0 0.0 0.0
gw 0.0 0.0 0.0 0.0
gw 0.0 0.0 0.0 0.0
gw 0.0 0.0 0.0 0.0
gw 0.0 0.0 0.0 0.0
gw 0.0 0.0 0.0 0.0
gw 0.0 0.0 0.0 0.0
gw 0.0 0.0 0.0 0.0
gw 0.0 0.0 0.0 0.0
gw 0.0 0.0 0.0 0.0
gw 0.0 0.0 0.0 0.0
gw 0.0 0.0 0.0 0.0
gw 0.0 0.0 0.0 0.0
gw 0.0 0.0 0.0 0.0
gw 0.0 0.0 0.0 0.0
gw 0.0 0.0 0.0 0.0
gw 0.0 0.0 0.0 0.0
gw 0.0 0.0 0.0 0.0
gw 0.0 0.0 0.0 0.0
gw 0.0 0.0 0.0 0.0
gw 0.0 0.0 0.0 0.0
gw 0.0 0.0 0.0 0.0
gw 0.0 0.0 0.0 0.0
gw 0.0 0.0 0.0 0.0
gw 0.0 0.0 0.0 0.0
gw 0.0 0.0 0.0 0.0
gw 0.0 0.0 0.0 0.0
gw 0.0 0.0 0.0 0.0
gw 0.0 0.0 0.0 0.0
gw 0.0 0.0 0.0 0.0
gw 0.0 0.0 0.0 0.0
gw 0.0 0.0 0.0 0.0
gw 0.0 0.0 0.0 0.0
gw 0.0 0.0 0.0 0.0
gw 0.0 0.0 0.0 0.0
gw 0.0 0.0 0.0 0.0
gw 0.0 0.0 0.0 0.0
gw 0.0 0.0 0.0 0.0
gw 0.0 0.0 0.0 0.0
gw 0.0 0.0 0.0 0.0
vt 0.2388 0.7828
vt 0.2969 0.8339
vt 0.2969 0.905
vt 0.1052 0.7828
vt 0.1052 0.905
vt 0.0579 0.1688
vt 0.0419 0.1688
vt 0.0419 0.0149
vt 0.0579 0.0149
vt 0.0579 0.974
vt 0.0419 0.974
vt 0.0419 0.7325
vt 0.0577 0.7325
vt 0.0698 0.7394
vt 0.0698 0.9671
vt 0.0577 0.6441
vt 0.0694 0.6381
vt 0.0694 0.7257
vt 0.0871 0.7568
vt 0.0871 0.9497
vt 0.0872 0.0391
vt 0.0872 0.1688
vt 0.0698 0.1688
vt 0.0698 0.0217
vt 0.8929 0.0091
vt 0.8929 0.9005
vt 0.9967 0.9005
vt 0.9967 0.0091
vt 0.8048 0.0091
vt 0.8048 0.9005
vt 0.649 0.0091
vt 0.649 0.9005
vt 0.7184 0.9005
vt 0.7184 0.0091
vt 0.475 0.0091
vt 0.475 0.9005
vt 0.4571 0.9414
vt 0.4571 0.9493
vt 0.35 0.9493
vt 0.35 0.9414
vt 0.5643 0.9414
vt 0.5643 0.9493
vt 0.6715 0.9414
vt 0.6715 0.9493
vt 0.7774 0.9414
vt 0.7744 0.9493
vt 0.4571 0.9727
vt 0.4571 0.9908
vt 0.35 0.9908
vt 0.35 0.9727
vt 0.5643 0.9727
vt 0.5643 0.9908
vt 0.6715 0.9727
vt 0.6715 0.9908
vt 0.7764 0.9727
vt 0.7732 0.9908
vt 0.0866 0.623
vt 0.0941 0.6164
vt 0.0941 0.6488
vt 0.0866 0.7086
vt 0.148 0.048
vt 0.0964 0.0996
vt 0.0961 0.8159
vt 0.0961 0.8889
vt 0.145 0.6998
vt 0.35 0.9133
vt 0.35 0.9274
vt 0.3027 0.9274
vt 0.2923 0.9133
vt 0.4571 0.9133
vt 0.4571 0.9274
vt 0.5643 0.9274
vt 0.5643 0.9133
vt 0.6715 0.9274
vt 0.6715 0.9133
vt 0.2923 0.9414
vt 0.2945 0.9727
vt 0.2951 0.9571
vt 0.35 0.9571
vt 0.4571 0.9571
vt 0.5643 0.9571
vt 0.6715 0.9571
vt 0.2991 0.9493
vt 0.0389 0.1707
vt 0.0318 0.1707
vt 0.0318 0.0178
vt 0.0389 0.0178
vt 0.0389 0.971
vt 0.0318 0.971
vt 0.0318 0.7325
vt 0.0389 0.7325
vt 0.0059 0.2501
vt 0.0059 0.1595
vt 0.0243 0.1595
vt 0.0243 0.2501
vt 0.0059 0.4945
vt 0.0243 0.4945
vt 0.0272 0.253
vt 0.0272 0.4915
vt 0.0272 0.1569
vt 0.0272 0.2471
vt 0.0964 0.1688
vt 0.7728 0.9274
vt 0.7774 0.9133
vt 0.7761 0.9571
vt 0.0243 0.6503
vt 0.0059 0.6503
vt 0.0272 0.4974
vt 0.0272 0.6503
vt 0.3698 0.9005
vt 0.3698 0.0091
vt 0.6161 0.9133
vt 0.617 0.9274
vt 0.6161 0.9414
vt 0.6163 0.9571
vt 0.6163 0.9727
vt 0.6167 0.9493
vt 0.0698 0.0267
vt 0.0579 0.0207
vt 0.0877 0.0425
vt 0.0872 0.042
vt 0.0243 0.5004
vt 0.0059 0.5004
vt 0.0272 0.503
vt 0.0419 0.6441
vt 0.3177 0.0091
vt 0.3177 0.9005
vt 0.3373 0.9005
vt 0.3373 0.0091
vt 0.3017 0.9908
vt 0.0318 0.6422
vt 0.0389 0.6422
vt 0.1052 0.9004
vt 0.0419 0.0207
vt 0.3161 0.0091
vt 0.3161 0.9005
vt 0.6169 0.9908
vt 0.1227 0.0733
vt 0.0389 0.0233
vt 0.0318 0.0233
vt 0.38 0.9005
vt 0.48 0.9005
vt 0.48 0.0091
vt 0.38 0.0091
vt 0.5472 0.9005
vt 0.5472 0.0091
vt 0.6467 0.9005
vt 0.6467 0.0091
vt 0.7432 0.9005
vt 0.7432 0.0091
vt 0.8931 0.9005
vt 0.8931 0.0091
vt 0.9972 0.0091
vt 0.9972 0.9005
vn -0.0 1.0 0.0
vn 0.3015 0.9045 0.3015
vn 0.5774 0.5774 0.5773
vn -0.0 0.7071 -0.7071
vn 0.5774 0.5773 -0.5774
vn 0.0 -0.2584 -0.966
vn 0.0 0.7071 -0.7071
vn 0.5773 0.5774 -0.5773
vn 0.6761 -0.3073 -0.6696
vn 0.5773 0.5774 0.5773
vn 0.6761 -0.3073 0.6696
vn 0.4376 -0.7728 0.4596
vn 0.4376 -0.7728 -0.4596
vn 0.6494 -0.3957 0.6494
vn 0.3433 -0.8743 0.3433
vn 0.1928 -0.9566 0.2187
vn 0.1918 -0.9569 -0.218
vn 0.0 -0.8629 -0.5055
vn 0.0 -0.7204 -0.6935
vn 0.9112 0.0 0.4119
vn 0.7866 -0.4981 0.365
vn 0.3058 -0.4658 0.8304
vn 0.3531 0.0 0.9356
vn 0.9112 0.0 -0.4119
vn 0.7866 -0.4981 -0.365
vn 0.3531 0.0 -0.9356
vn 0.3058 -0.4658 -0.8304
vn 0.0 0.0 -1.0
vn 0.0 -0.4027 -0.9154
vn 0.9007 -0.0386 0.4328
vn 0.9108 -0.1044 0.3994
vn 0.3605 -0.108 0.9265
vn 0.335 -0.0375 0.9415
vn 0.9007 -0.0387 -0.4328
vn 0.9108 -0.1043 -0.3994
vn 0.335 -0.0375 -0.9415
vn 0.3605 -0.108 -0.9265
vn 0.0 -0.0308 -0.9995
vn 0.0 -0.1244 -0.9922
vn 0.8652 -0.3031 0.3994
vn 0.5588 -0.8161 0.1473
vn 0.1386 -0.7507 0.646
vn 0.3334 -0.2783 0.9008
vn 0.8652 -0.3031 -0.3994
vn 0.5588 -0.8162 -0.1469
vn 0.3334 -0.2783 -0.9008
vn 0.139 -0.7815 -0.6082
vn 0.0 -0.2403 -0.9707
vn 0.0 -0.6945 -0.7195
vn 0.3186 -0.8927 0.3186
vn 0.4817 -0.732 0.4817
vn 0.3633 0.0 0.9317
vn 0.7071 -0.0 0.7071
vn 0.6466 -0.4048 0.6466
vn 0.9161 -0.0 0.4009
vn 0.9161 0.0 -0.4009
vn 0.3633 0.0 -0.9317
vn 0.707 -0.0209 0.7069
vn 0.6814 -0.267 0.6814
vn 0.6549 0.3772 0.6549
vn 0.3195 0.3911 0.8631
vn 0.8227 0.4229 0.3798
vn 0.8227 0.4229 -0.3798
vn 0.3195 0.3911 -0.8631
vn 0.6911 -0.2112 0.6912
vn 0.0 0.7071 -0.7071
vn 0.0 -0.7071 -0.7071
vn 0.3015 -0.9045 -0.3015
vn 0.3015 0.9045 -0.3015
vn 0.3015 -0.9045 0.3015
vn 0.3015 0.9045 0.3015
vn 0.3015 -0.9045 0.3015
vn 0.5773 -0.5774 0.5773
vn 0.5773 -0.5774 -0.5773
vn 0.5773 -0.5774 0.5773
vn -0.0 -0.0 -1.0
vn 0.0 0.3408 -0.9401
vn 0.0 -0.7071 -0.7071
vn -0.3058 -0.4658 -0.8304
vn -0.3531 0.0 -0.9356
vn -0.335 -0.0375 -0.9415
vn -0.3605 -0.108 -0.9265
vn -0.3334 -0.2783 -0.9008
vn -0.139 -0.7815 -0.6082
vn -0.6407 -0.4232 -0.6407
vn -0.7071 0.0 -0.7071
vn -0.3633 0.0 -0.9317
vn -0.7068 -0.0315 -0.7068
vn -0.6595 0.3606 -0.6595
vn -0.6837 -0.2552 -0.6837
vn -0.3195 0.3911 -0.8631
vn -0.7019 -0.121 -0.7019
vn -0.4624 -0.7566 -0.4624
vn -0.6756 -0.2953 -0.6756
vn -0.2484 -0.9361 -0.249
vn -0.2598 -0.93 -0.2598
vn -0.5773 -0.5774 -0.5773
vn -0.5773 0.5774 -0.5773
vn -0.3015 -0.9045 -0.3015
vn 0.3015 0.9045 0.3015
vn 0.7071 -0.0 0.7071
vn 0.5773 0.5774 0.5773
vn -0.5773 0.5774 -0.5773
vn -0.7071 -0.0 -0.7071
vn -0.3657 -0.8558 -0.3657
vn -0.3015 0.9045 -0.3015
vn -0.7071 0.7071 -0.0
vn 0.5773 0.5774 0.5774
vn -0.5774 0.5773 0.5774
vn -0.5773 0.5774 0.5773
vn -0.7071 0.7071 0.0
vn -0.966 -0.2584 0.0
vn -0.6696 -0.3073 0.6761
vn 0.5773 0.5774 0.5774
vn 0.6696 -0.3073 0.6761
vn -0.4596 -0.7728 0.4376
vn 0.4596 -0.7729 0.4376
vn -0.218 -0.9569 0.1918
vn 0.2187 -0.9566 0.1928
vn -0.6935 -0.7205 -0.0
vn -0.5055 -0.8629 0.0
vn 0.8304 -0.4658 0.3058
vn 0.365 -0.4981 0.7866
vn 0.4119 0.0 0.9112
vn 0.9356 0.0 0.3531
vn -0.365 -0.4981 0.7866
vn -0.4119 -0.0 0.9112
vn -0.8304 -0.4658 0.3058
vn -0.9356 -0.0 0.3531
vn -0.9154 -0.4027 0.0
vn -1.0 -0.0 0.0
vn 0.9265 -0.108 0.3605
vn 0.3994 -0.1043 0.9108
vn 0.4328 -0.0387 0.9007
vn 0.9415 -0.0375 0.335
vn -0.3994 -0.1043 0.9108
vn -0.4328 -0.0387 0.9007
vn -0.9265 -0.108 0.3605
vn -0.9415 -0.0375 0.335
vn -0.9922 -0.1244 0.0
vn -0.9995 -0.0308 0.0
vn 0.646 -0.7507 0.1386
vn 0.1473 -0.8161 0.5588
vn 0.3994 -0.3031 0.8652
vn 0.9008 -0.2783 0.3334
vn -0.1469 -0.8162 0.5588
vn -0.3994 -0.3031 0.8652
vn -0.6082 -0.7815 0.139
vn -0.9008 -0.2783 0.3334
vn -0.7195 -0.6945 0.0
vn -0.9707 -0.2404 0.0
vn 0.9317 0.0 0.3633
vn 0.4009 -0.0 0.9161
vn -0.4009 0.0 0.9161
vn -0.9317 0.0 0.3633
vn 0.8631 0.3911 0.3195
vn 0.3798 0.423 0.8227
vn -0.3798 0.4229 0.8227
vn -0.8631 0.3911 0.3195
vn -0.3015 -0.9045 0.3015
vn -0.7071 -0.7071 0.0
vn -0.7071 0.7071 0.0
vn -0.3015 0.9045 0.3015
vn 0.3015 -0.9045 0.3015
vn 0.3015 0.9045 0.3015
vn 0.5773 -0.5774 0.5773
vn -0.5773 -0.5774 0.5773
vn -1.0 -0.0 0.0
vn -0.9401 0.3408 0.0
vn -0.7071 -0.7071 -0.0
vn -0.8304 -0.4658 -0.3058
vn -0.9356 -0.0 -0.3531
vn -0.9415 -0.0375 -0.335
vn -0.9265 -0.108 -0.3605
vn -0.9008 -0.2783 -0.3334
vn -0.6082 -0.7815 -0.139
vn -0.9317 0.0 -0.3633
vn -0.8631 0.3911 -0.3195
vtan 0.0001 -0.0 1.0
vtan -0.0945 -0.2863 0.9535
vtan -0.4081 -0.4084 0.8165
vtan -0.0 0.7071 0.7071
vtan 0.4083 0.4082 0.8165
vtan -0.0001 -0.966 0.2584
vtan -0.3873 -0.6519 -0.6519
vtan 0.1768 -0.7787 -0.602
vtan -0.1165 -0.942 0.3146
vtan -0.3307 -0.9388 0.0969
vtan 0.6331 -0.7631 -0.13
vtan 0.4339 -0.8159 0.3821
vtan -0.2268 -0.9515 -0.2077
vtan -0.827 -0.5466 -0.1318
vtan -0.8269 -0.5466 0.1319
vtan -0.115 -0.8952 -0.4305
vtan -0.0941 -0.3956 -0.9136
vtan -0.1511 -0.5671 -0.8097
vtan -0.9765 -0.2089 -0.0526
vtan -0.9768 -0.2077 0.0525
vtan -0.0241 -0.2266 0.9737
vtan 0.0 -0.5055 0.8629
vtan 0.0001 -0.6935 0.7204
vtan -0.1544 -0.5681 0.8083
vtan -0.4119 -0.0 0.9112
vtan -0.4188 0.0041 0.9081
vtan -0.895 0.1568 0.4175
vtan -0.9356 -0.0 0.3531
vtan 0.4119 -0.0 0.9112
vtan 0.3084 -0.1953 0.931
vtan 0.9356 -0.0 0.3531
vtan 0.9378 -0.0032 0.3471
vtan 0.5079 0.1857 0.8412
vtan 0.4119 -0.0 0.9112
vtan 1.0 0.0 0.0
vtan 0.4331 0.0004 -0.9013
vtan 0.4015 -0.0008 -0.9159
vtan 0.9319 -0.0006 -0.3627
vtan 0.9421 0.0003 -0.3352
vtan -0.4331 -0.0004 -0.9013
vtan -0.4015 0.0008 -0.9159
vtan -0.9421 -0.0003 -0.3352
vtan -0.9319 0.0006 -0.3627
vtan -1.0 0.0 0.0
vtan 0.419 -0.0003 -0.908
vtan 0.3459 0.0679 -0.9358
vtan 0.9514 -0.0801 -0.2972
vtan 0.9378 -0.0002 -0.3471
vtan -0.419 0.0003 -0.908
vtan -0.3456 -0.0682 -0.9359
vtan -0.9378 0.0002 -0.3472
vtan -0.9484 0.0715 -0.3087
vtan -0.0841 -0.3614 -0.9286
vtan -0.0351 -0.5654 -0.8241
vtan 0.0269 -0.6492 -0.7602
vtan -0.0269 -0.2279 -0.9733
vtan 0.0426 -0.1486 0.988
vtan 0.0276 -0.6109 0.7912
vtan -0.8253 -0.5647 0.0022
vtan -0.8257 -0.5641 -0.0071
vtan 0.0419 -0.1496 -0.9879
vtan 0.9388 0.0024 -0.3443
vtan 0.9317 0.0 -0.3633
vtan 0.7071 0.0 -0.7071
vtan 0.7628 0.3431 -0.548
vtan 0.4222 0.0025 -0.9065
vtan 0.4009 -0.0 -0.9161
vtan -0.4009 -0.0 -0.9161
vtan -0.4222 -0.0025 -0.9065
vtan -0.9317 -0.0 -0.3633
vtan -0.9388 -0.0024 -0.3443
vtan 0.7072 0.0209 -0.7067
vtan 0.7319 0.2486 -0.6344
vtan 0.7557 -0.3269 -0.5675
vtan 0.9378 0.0003 -0.3473
vtan 0.4188 0.0006 -0.9081
vtan -0.4188 -0.0006 -0.9081
vtan -0.9378 -0.0003 -0.3473
vtan 0.7227 0.202 -0.661
vtan -0.3904 -0.651 -0.651
vtan 0.0 -0.7071 0.7071
vtan -0.6396 -0.4264 0.6396
vtan 0.1042 -0.3456 -0.9326
vtan 0.9331 -0.345 -0.1019
vtan -0.6396 -0.4264 -0.6396
vtan 0.6743 -0.4259 0.6033
vtan 0.4083 -0.8165 0.4082
vtan 0.6396 -0.4264 0.6396
vtan -0.1062 -0.3461 -0.9322
vtan -0.4316 -0.816 -0.3844
vtan 0.4082 -0.8165 -0.4082
vtan -0.4357 -0.8159 0.3802
vtan -0.9533 -0.2909 0.0807
vtan -0.9534 -0.2815 -0.1088
vtan 0.4089 -0.4075 -0.8165
vtan 0.1129 -0.2801 -0.9533
vtan 0.0 -0.7195 0.6945
vtan -1.0 -0.0 0.0
vtan -0.0001 -0.7071 0.7071
vtan -0.0 -0.7071 -0.7071
vtan 0.0767 -0.2922 0.9533
vtan 0.0 -0.7071 0.7071
vtan 0.9378 0.0032 -0.3471
vtan 0.9356 -0.0 -0.3531
vtan 0.9421 -0.0003 -0.3353
vtan 0.9319 0.0006 -0.3627
vtan 0.9378 0.0002 -0.3471
vtan 0.9484 0.0716 -0.3088
vtan 0.9388 -0.0024 -0.3443
vtan 0.7149 -0.0244 -0.6988
vtan 0.7071 0.0 -0.7071
vtan 0.9317 -0.0 -0.3633
vtan 0.7071 -0.002 -0.7071
vtan 0.7128 0.0214 -0.7011
vtan 0.7099 -0.0157 -0.7041
vtan 0.9378 -0.0003 -0.3473
vtan 0.7077 -0.0077 -0.7064
vtan 0.0001 -0.966 0.2584
vtan 0.0 -0.6935 0.7204
vtan 0.1492 -0.5804 0.8005
vtan 0.1035 -0.9452 0.3096
vtan -0.0314 -0.6104 0.7915
vtan -0.0166 -0.2529 0.9673
vtan 0.0421 -0.2797 0.9592
vtan -0.0003 -0.7195 0.6945
vtan 0.0 -0.5055 0.8629
vtan 1.0 -0.0 -0.0
vtan -0.0 -0.7071 0.7071
vtan 0.1542 -0.7715 0.6173
vtan -0.4083 -0.8165 -0.4083
vtan -0.096 -0.2858 0.9535
vtan 0.3021 -0.3906 0.8696
vtan -0.9356 0.0 0.3531
vtan -0.9521 -0.1496 0.2667
vtan -0.7071 -0.0 0.7071
vtan -0.7071 0.0 0.7071
vtan 0.8763 0.4024 -0.2648
vtan -0.4083 -0.8165 -0.4083
vtan 0.2167 -0.7901 0.5734
vtan -0.0 -0.0 1.0
vtan -0.0 0.7071 0.7071
vtan -0.4082 0.4083 0.8165
vtan 0.3873 -0.6519 -0.6519
vtan -0.1518 -0.7707 -0.6189
vtan 0.7071 -0.0 -0.7071
vtan 0.7149 -0.0244 -0.6988
vtan 0.739 -0.0282 -0.6731
vtan -0.1105 -0.3503 0.9301
vtan 0.3903 -0.651 -0.651
vtan -0.0951 -0.3432 -0.9345
vtan 0.6396 -0.4264 0.6396
vtan 1.0 0.0 0.0001
vtan 0.7071 0.7071 0.0
vtan 0.8165 -0.4084 -0.4081
vtan 0.9535 -0.2863 -0.0945
vtan 0.8165 0.4082 0.4083
vtan -0.602 -0.7787 0.1768
vtan -0.6519 -0.6519 -0.3873
vtan 0.2584 -0.966 -0.0001
vtan 0.3146 -0.942 -0.1165
vtan 0.3821 -0.8159 0.4338
vtan -0.1301 -0.7631 0.6331
vtan 0.0969 -0.9388 -0.3307
vtan -0.2077 -0.9515 -0.2268
vtan 0.1319 -0.5466 -0.8269
vtan -0.1318 -0.5466 -0.827
vtan -0.8097 -0.567 -0.1511
vtan -0.9136 -0.3956 -0.0941
vtan -0.4305 -0.8952 -0.115
vtan 0.0525 -0.2077 -0.9768
vtan -0.0526 -0.2089 -0.9765
vtan 0.7205 -0.6935 0.0001
vtan 0.8629 -0.5055 0.0
vtan 0.9737 -0.2266 -0.0241
vtan 0.8083 -0.5681 -0.1544
vtan -0.3471 -0.0032 0.9378
vtan -0.9081 -0.0041 0.4188
vtan -0.9112 -0.0 0.4119
vtan -0.3531 0.0 0.9356
vtan -0.9081 0.0041 -0.4188
vtan -0.9112 0.0 -0.4119
vtan -0.3471 0.0032 -0.9378
vtan -0.3531 0.0 -0.9356
vtan 0.0 0.0 -1.0
vtan -0.0 0.0 -1.0
vtan -0.3627 -0.0006 0.9319
vtan -0.9158 -0.0008 0.4015
vtan -0.9013 0.0004 0.4331
vtan -0.3353 0.0003 0.9421
vtan -0.9159 0.0008 -0.4015
vtan -0.9013 -0.0004 -0.4331
vtan -0.3627 0.0006 -0.9319
vtan -0.3353 -0.0003 -0.9421
vtan -0.2972 -0.0801 0.9514
vtan -0.9358 0.0679 0.3459
vtan -0.908 -0.0003 0.419
vtan -0.3471 -0.0002 0.9378
vtan -0.9359 -0.0682 -0.3456
vtan -0.908 0.0003 -0.419
vtan -0.3088 0.0716 -0.9484
vtan -0.3471 0.0002 -0.9378
vtan -0.7602 -0.6492 0.027
vtan -0.8241 -0.5653 -0.035
vtan -0.9286 -0.3614 -0.0841
vtan -0.9733 -0.2279 -0.0269
vtan 0.7913 -0.6109 0.0277
vtan 0.988 -0.1486 0.0426
vtan -0.0071 -0.5641 -0.8257
vtan 0.0022 -0.5647 -0.8253
vtan -0.9879 -0.1496 0.0419
vtan -0.3443 0.0024 0.9388
vtan -0.548 0.3431 0.7629
vtan -0.7071 0.0 0.7071
vtan -0.3633 0.0 0.9317
vtan -0.9065 0.0025 0.4222
vtan -0.9161 -0.0 0.4009
vtan -0.9161 0.0 -0.4009
vtan -0.9065 -0.0025 -0.4222
vtan -0.3633 -0.0 -0.9317
vtan -0.3443 -0.0024 -0.9388
vtan -0.7066 0.0209 0.7073
vtan -0.5675 -0.3268 0.7557
vtan -0.6345 0.2486 0.7319
vtan -0.3473 0.0003 0.9378
vtan -0.9081 0.0006 0.4188
vtan -0.9081 -0.0006 -0.4188
vtan -0.3473 -0.0003 -0.9378
vtan -0.661 0.202 0.7227
vtan 0.6396 -0.4264 -0.6396
vtan 0.7071 -0.7071 0.0
vtan -0.651 -0.651 -0.3903
vtan -0.9326 -0.3456 0.1042
vtan -0.6396 -0.4264 -0.6396
vtan -0.102 -0.345 0.933
vtan 0.6033 -0.4259 0.6743
vtan -0.9322 -0.3461 -0.1061
vtan 0.4082 -0.8165 0.4083
vtan -0.3845 -0.816 -0.4316
vtan -0.4082 -0.8165 0.4082
vtan 0.3803 -0.8159 -0.4356
vtan -0.1087 -0.2816 -0.9534
vtan 0.0804 -0.291 -0.9533
vtan -0.9533 -0.2802 0.1128
vtan -0.8165 -0.4074 0.4091
vtan 0.6945 -0.7195 0.0
vtan 0.0 -0.0 -1.0
vtan 0.7071 -0.7071 -0.0001
vtan -0.7071 -0.7071 -0.0
vtan 0.7071 -0.7071 0.0
vtan 0.9533 -0.2922 0.0767
vtan 0.3471 -0.0032 -0.9378
vtan 0.3531 0.0 -0.9356
vtan -0.3352 -0.0003 0.9421
vtan 0.0 0.0 1.0
vtan -0.3627 0.0006 0.9319
vtan -0.3471 0.0002 0.9378
vtan -0.3088 0.0716 0.9484
vtan -0.3443 -0.0024 0.9388
vtan -0.3633 -0.0 0.9317
vtan -0.7071 0.0 0.7071
vtan -0.6988 -0.0244 0.7149
vtan -0.7071 -0.002 0.7072
vtan -0.7041 -0.0157 0.71
vtan -0.7011 0.0214 0.7128
vtan -0.3473 -0.0003 0.9378
vtan -0.7064 -0.0077 0.7077
vtan 0.2584 -0.966 0.0001
vtan 0.3096 -0.9452 0.1035
vtan 0.8005 -0.5804 0.1492
vtan 0.7205 -0.6935 0.0
vtan 0.9592 -0.2797 0.0417
vtan 0.9675 -0.2521 -0.0177
vtan 0.7915 -0.6104 -0.0314
vtan 0.6945 -0.7195 -0.0003
vtan 0.8629 -0.5055 0.0
vtan 0.0 -0.0 1.0
vtan 0.6173 -0.7714 0.1541
vtan 0.7071 -0.7071 -0.0
vtan 0.9535 -0.2858 -0.0961
vtan 0.8697 -0.3905 0.3019
vtan -0.2648 0.4024 0.8763
vtan 0.5735 -0.79 0.2165
vtan 1.0 0.0 0.0
vtan 0.8165 0.4083 -0.4082
vtan 0.7071 0.7071 -0.0
vtan -0.6519 -0.6519 0.3872
vtan -0.6189 -0.7706 -0.1518
vtan 0.7071 0.0 -0.7071
vtan 0.6988 0.0244 -0.7149
vtan -0.6731 -0.0282 0.739
vtan 0.9301 -0.3503 -0.1105
vtan -0.9345 -0.3432 -0.095
vtan -0.651 -0.651 0.3903
f 0/0/0/0 1/1/1/1 2/2/2/2 
f 0/0/0/0 2/2/2/2 3/3/3/3 
f 4/4/4/4 3/3/3/3 2/2/2/2 
f 5/5/5/5 6/6/6/6 7/7/7/7 
f 5/5/5/5 7/7/7/7 8/8/8/8 
f 8/9/8/9 7/10/7/10 9/11/9/11 
f 8/9/8/9 9/11/9/11 10/12/10/12 
f 10/12/10/12 11/13/11/13 12/14/12/14 
f 10/12/10/12 12/14/12/14 8/9/8/9 
f 13/15/13/15 14/16/14/16 11/17/11/17 
f 13/15/13/15 11/17/11/17 10/12/10/12 
f 15/18/15/18 16/19/16/19 12/14/12/14 
f 15/18/15/18 12/14/12/14 11/13/11/13 
f 16/20/16/20 17/21/17/21 18/22/18/22 
f 16/20/16/20 18/22/18/22 12/23/12/23 
f 19/24/19/24 20/25/20/25 21/26/21/26 
f 19/24/19/24 21/26/21/26 22/27/22/27 
f 23/28/23/28 24/29/24/29 20/25/20/25 
f 23/28/23/28 20/25/20/25 19/24/19/24 
f 25/30/25/30 26/31/26/31 24/32/24/32 
f 25/30/25/30 24/32/24/32 23/33/23/33 
f 27/34/27/34 28/35/28/34 26/31/26/31 
f 27/34/27/34 26/31/26/31 25/30/25/30 
f 29/36/29/35 30/37/30/36 31/38/31/37 
f 29/36/29/35 31/38/31/37 32/39/32/38 
f 33/40/33/39 34/41/34/40 30/37/30/36 
f 33/40/33/39 30/37/30/36 29/36/29/35 
f 33/40/33/39 35/42/35/41 36/43/36/42 
f 33/40/33/39 36/43/36/42 34/41/34/40 
f 35/42/35/41 37/44/37/43 38/45/38/43 
f 35/42/35/41 38/45/38/43 36/43/36/42 
f 39/46/39/44 40/47/40/45 41/48/41/46 
f 39/46/39/44 41/48/41/46 42/49/42/47 
f 43/50/43/48 44/51/44/49 40/47/40/45 
f 43/50/43/48 40/47/40/45 39/46/39/44 
f 43/50/43/48 45/52/45/50 46/53/46/51 
f 43/50/43/48 46/53/46/51 44/51/44/49 
f 45/52/45/50 47/54/47/43 48/55/48/43 
f 45/52/45/50 48/55/48/43 46/53/46/51 
f 49/56/49/52 50/57/50/53 41/58/41/54 
f 49/56/49/52 41/58/41/54 15/59/15/55 
f 16/20/16/20 44/60/44/56 46/61/46/57 
f 15/18/15/18 40/62/40/58 44/63/44/59 
f 15/18/15/18 44/63/44/59 16/19/16/19 
f 15/59/15/55 41/58/41/54 40/64/40/60 
f 21/65/21/61 51/66/51/62 52/67/52/63 
f 21/65/21/61 52/67/52/63 53/68/53/64 
f 20/69/20/65 54/70/54/66 51/66/51/62 
f 20/69/20/65 51/66/51/62 21/65/21/61 
f 55/71/55/67 54/70/54/66 20/69/20/65 
f 55/71/55/67 20/69/20/65 24/72/24/68 
f 56/73/56/69 55/71/55/67 24/72/24/68 
f 56/73/56/69 24/72/24/68 26/74/26/70 
f 32/39/32/38 57/75/57/71 52/67/52/63 
f 32/39/32/38 52/67/52/63 51/66/51/62 
f 29/36/29/35 32/39/32/38 51/66/51/62 
f 29/36/29/35 51/66/51/62 54/70/54/66 
f 33/40/33/39 29/36/29/35 54/70/54/66 
f 33/40/33/39 54/70/54/66 55/71/55/67 
f 56/73/56/69 35/42/35/41 33/40/33/39 
f 56/73/56/69 33/40/33/39 55/71/55/67 
f 42/49/42/47 58/76/58/72 59/77/59/73 
f 42/49/42/47 59/77/59/73 60/78/60/74 
f 39/46/39/44 42/49/42/47 60/78/60/74 
f 39/46/39/44 60/78/60/74 61/79/61/75 
f 43/50/43/48 39/46/39/44 61/79/61/75 
f 43/50/43/48 61/79/61/75 62/80/62/76 
f 45/52/45/50 43/50/43/48 62/80/62/76 
f 45/52/45/50 62/80/62/76 63/81/63/77 
f 60/78/60/74 59/77/59/73 64/82/64/78 
f 60/78/60/74 64/82/64/78 31/38/31/37 
f 61/79/61/75 60/78/60/74 31/38/31/37 
f 61/79/61/75 31/38/31/37 30/37/30/36 
f 62/80/62/76 61/79/61/75 30/37/30/36 
f 62/80/62/76 30/37/30/36 34/41/34/40 
f 36/43/36/42 63/81/63/77 62/80/62/76 
f 36/43/36/42 62/80/62/76 34/41/34/40 
f 65/83/65/79 66/84/66/80 67/85/67/81 
f 65/83/65/79 67/85/67/81 68/86/68/82 
f 68/87/68/83 67/88/67/81 69/89/69/84 
f 68/87/68/83 69/89/69/84 70/90/70/85 
f 2/91/2/86 1/92/1/87 71/93/71/88 
f 2/91/2/86 71/93/71/88 72/94/72/89 
f 4/95/4/90 2/91/2/86 72/94/72/89 
f 4/95/4/90 72/94/72/89 73/96/73/91 
f 6/6/6/6 65/83/65/79 68/86/68/82 
f 6/6/6/6 68/86/68/82 7/7/7/7 
f 7/10/7/10 68/87/68/83 70/90/70/85 
f 7/10/7/10 70/90/70/85 9/11/9/11 
f 72/94/72/89 69/97/69/92 67/98/67/93 
f 72/94/72/89 67/98/67/93 73/96/73/91 
f 71/93/71/88 74/99/74/94 69/100/69/95 
f 71/93/71/88 69/100/69/95 72/94/72/89 
f 5/5/5/5 8/8/8/8 12/23/12/23 
f 5/5/5/5 12/23/12/23 18/22/18/22 
f 17/21/17/21 16/20/16/20 46/61/46/57 
f 17/21/17/21 46/61/46/57 48/101/48/96 
f 75/102/75/97 56/73/56/69 26/74/26/70 
f 75/102/75/97 26/74/26/70 28/103/28/43 
f 35/42/35/41 56/73/56/69 75/102/75/97 
f 35/42/35/41 75/102/75/97 37/44/37/43 
f 45/52/45/50 63/81/63/77 76/104/76/43 
f 45/52/45/50 76/104/76/43 47/54/47/43 
f 63/81/63/77 36/43/36/42 38/45/38/43 
f 63/81/63/77 38/45/38/43 76/104/76/43 
f 4/95/4/90 73/96/73/91 77/105/77/98 
f 4/95/4/90 77/105/77/98 3/106/3/99 
f 77/105/77/98 73/96/73/91 67/107/67/100 
f 77/105/77/98 67/107/67/100 66/108/66/101 
f 78/109/78/102 28/35/28/34 27/34/27/34 
f 78/109/78/102 27/34/27/34 79/110/79/103 
f 80/42/80/104 81/43/81/105 38/45/38/34 
f 80/42/80/104 38/45/38/34 37/44/37/34 
f 82/52/82/106 83/53/83/107 48/55/48/34 
f 82/52/82/106 48/55/48/34 47/54/47/34 
f 78/74/78/108 84/111/84/109 85/112/85/110 
f 78/74/78/108 85/112/85/110 86/73/86/111 
f 85/112/85/110 87/113/87/112 80/42/80/104 
f 85/112/85/110 80/42/80/104 86/73/86/111 
f 88/114/88/113 89/115/89/114 82/52/82/106 
f 88/114/88/113 82/52/82/106 90/81/90/115 
f 91/116/91/116 88/114/88/113 90/81/90/115 
f 91/116/91/116 90/81/90/115 81/43/81/105 
f 5/5/5/117 18/22/18/118 92/117/92/119 
f 5/5/5/117 92/117/92/119 93/118/93/120 
f 83/61/83/121 94/119/94/122 95/120/95/123 
f 83/61/83/121 95/120/95/123 48/101/48/124 
f 17/21/17/125 48/101/48/124 95/120/95/123 
f 75/102/75/126 28/103/28/34 78/74/78/108 
f 75/102/75/126 78/74/78/108 86/73/86/111 
f 75/102/75/126 86/73/86/111 80/42/80/104 
f 75/102/75/126 80/42/80/104 37/44/37/34 
f 76/104/76/34 90/81/90/115 82/52/82/106 
f 76/104/76/34 82/52/82/106 47/54/47/34 
f 38/45/38/34 81/43/81/105 90/81/90/115 
f 38/45/38/34 90/81/90/115 76/104/76/34 
f 77/105/77/127 96/121/96/128 97/122/97/129 
f 77/105/77/127 97/122/97/129 3/106/3/99 
f 77/105/77/127 66/108/66/101 98/123/98/130 
f 77/105/77/127 98/123/98/130 96/121/96/128 
f 10/12/10/12 9/11/9/11 99/124/99/131 
f 10/12/10/12 99/124/99/131 13/15/13/15 
f 15/59/15/55 11/17/11/17 14/16/14/16 
f 15/59/15/55 14/16/14/16 49/56/49/52 
f 22/125/22/132 21/126/21/133 53/127/53/134 
f 22/125/22/132 53/127/53/134 100/128/100/135 
f 32/39/32/38 31/38/31/37 64/82/64/78 
f 32/39/32/38 64/82/64/78 57/75/57/71 
f 42/49/42/47 41/48/41/46 50/129/50/136 
f 42/49/42/47 50/129/50/136 58/76/58/72 
f 70/90/70/85 69/89/69/84 74/130/74/137 
f 70/90/70/85 74/130/74/137 101/131/101/138 
f 99/124/99/131 9/11/9/11 70/90/70/85 
f 99/124/99/131 70/90/70/85 101/131/101/138 
f 0/0/0/139 3/3/3/140 97/132/97/141 
f 6/6/6/142 5/5/5/117 93/118/93/120 
f 6/6/6/142 93/118/93/120 102/133/102/143 
f 18/22/18/118 17/21/17/125 95/120/95/123 
f 18/22/18/118 95/120/95/123 92/117/92/119 
f 78/109/78/102 79/110/79/103 103/134/103/144 
f 78/109/78/102 103/134/103/144 84/135/84/145 
f 91/116/91/116 81/43/81/105 80/42/80/104 
f 91/116/91/116 80/42/80/104 87/113/87/112 
f 104/136/104/146 83/53/83/107 82/52/82/106 
f 104/136/104/146 82/52/82/106 89/115/89/114 
f 94/119/94/122 83/61/83/121 104/137/104/147 
f 66/84/66/80 65/83/65/148 105/138/105/149 
f 66/84/66/80 105/138/105/149 98/139/98/150 
f 105/138/105/149 65/83/65/148 6/6/6/142 
f 105/138/105/149 6/6/6/142 102/133/102/143 
f 0/0/0/151 107/3/106/152 106/2/107/153 
f 0/0/0/151 106/2/107/153 1/1/1/154 
f 108/4/108/155 106/2/107/153 107/3/106/152 
f 109/7/109/156 110/6/110/157 111/5/111/158 
f 109/7/109/156 111/5/111/158 112/8/112/159 
f 113/11/113/160 109/10/109/161 112/9/112/162 
f 113/11/113/160 112/9/112/162 114/12/114/163 
f 115/14/115/164 116/13/116/165 114/12/114/163 
f 115/14/115/164 114/12/114/163 112/9/112/162 
f 116/17/116/166 14/16/14/167 13/15/13/168 
f 116/17/116/166 13/15/13/168 114/12/114/163 
f 115/14/115/164 117/19/117/169 118/18/118/170 
f 115/14/115/164 118/18/118/170 116/13/116/165 
f 119/22/119/171 120/21/120/172 117/20/117/173 
f 119/22/119/171 117/20/117/173 115/23/115/174 
f 121/140/121/175 122/141/122/176 123/142/123/177 
f 121/140/121/175 123/142/123/177 124/143/124/178 
f 122/141/122/176 125/144/125/179 126/145/126/180 
f 122/141/122/176 126/145/126/180 123/142/123/177 
f 125/144/125/179 127/146/127/181 128/147/128/182 
f 125/144/125/179 128/147/128/182 126/145/126/180 
f 127/146/127/181 129/148/129/183 130/149/130/184 
f 127/146/127/181 130/149/130/184 128/147/128/182 
f 131/38/131/185 132/37/132/186 133/36/133/187 
f 131/38/131/185 133/36/133/187 134/39/134/188 
f 132/37/132/186 135/41/135/189 136/40/136/190 
f 132/37/132/186 136/40/136/190 133/36/133/187 
f 136/40/136/190 135/41/135/189 137/43/137/191 
f 136/40/136/190 137/43/137/191 138/42/138/192 
f 138/42/138/192 137/43/137/191 139/45/139/183 
f 138/42/138/192 139/45/139/183 140/44/140/183 
f 141/48/141/193 142/47/142/194 143/46/143/195 
f 141/48/141/193 143/46/143/195 144/49/144/196 
f 142/47/142/194 145/51/145/197 146/50/146/198 
f 142/47/142/194 146/50/146/198 143/46/143/195 
f 146/50/146/198 145/51/145/197 147/53/147/199 
f 146/50/146/198 147/53/147/199 148/52/148/200 
f 148/52/148/200 147/53/147/199 149/55/149/183 
f 148/52/148/200 149/55/149/183 150/54/150/183 
f 141/58/141/201 50/57/50/202 49/56/49/203 
f 141/58/141/201 49/56/49/203 118/59/118/204 
f 117/20/117/173 147/61/147/205 145/60/145/206 
f 145/63/145/207 142/62/142/208 118/18/118/170 
f 145/63/145/207 118/18/118/170 117/19/117/169 
f 118/59/118/204 142/64/142/209 141/58/141/201 
f 121/65/121/210 53/68/53/211 52/67/52/212 
f 121/65/121/210 52/67/52/212 151/66/151/213 
f 122/69/122/214 121/65/121/210 151/66/151/213 
f 122/69/122/214 151/66/151/213 152/70/152/215 
f 122/69/122/214 152/70/152/215 153/71/153/216 
f 122/69/122/214 153/71/153/216 125/72/125/217 
f 125/72/125/217 153/71/153/216 154/73/154/218 
f 125/72/125/217 154/73/154/218 127/74/127/219 
f 52/67/52/212 57/75/57/220 134/39/134/188 
f 52/67/52/212 134/39/134/188 151/66/151/213 
f 151/66/151/213 134/39/134/188 133/36/133/187 
f 151/66/151/213 133/36/133/187 152/70/152/215 
f 152/70/152/215 133/36/133/187 136/40/136/190 
f 152/70/152/215 136/40/136/190 153/71/153/216 
f 154/73/154/218 153/71/153/216 136/40/136/190 
f 154/73/154/218 136/40/136/190 138/42/138/192 
f 59/77/59/221 58/76/58/222 144/49/144/196 
f 59/77/59/221 144/49/144/196 155/78/155/223 
f 155/78/155/223 144/49/144/196 143/46/143/195 
f 155/78/155/223 143/46/143/195 156/79/156/224 
f 156/79/156/224 143/46/143/195 146/50/146/198 
f 156/79/156/224 146/50/146/198 157/80/157/225 
f 157/80/157/225 146/50/146/198 148/52/148/200 
f 157/80/157/225 148/52/148/200 158/81/158/226 
f 64/82/64/227 59/77/59/221 155/78/155/223 
f 64/82/64/227 155/78/155/223 131/38/131/185 
f 131/38/131/185 155/78/155/223 156/79/156/224 
f 131/38/131/185 156/79/156/224 132/37/132/186 
f 132/37/132/186 156/79/156/224 157/80/157/225 
f 132/37/132/186 157/80/157/225 135/41/135/189 
f 137/43/137/191 135/41/135/189 157/80/157/225 
f 137/43/137/191 157/80/157/225 158/81/158/226 
f 159/85/159/228 160/84/160/229 161/83/161/230 
f 159/85/159/228 161/83/161/230 162/86/162/231 
f 163/89/163/232 159/88/159/228 162/87/162/233 
f 163/89/163/232 162/87/162/233 164/90/164/234 
f 71/93/71/235 1/92/1/87 106/91/107/236 
f 71/93/71/235 106/91/107/236 165/94/165/237 
f 165/94/165/237 106/91/107/236 108/95/108/238 
f 165/94/165/237 108/95/108/238 166/96/166/239 
f 162/86/162/231 161/83/161/230 110/6/110/157 
f 162/86/162/231 110/6/110/157 109/7/109/156 
f 164/90/164/234 162/87/162/233 109/10/109/161 
f 164/90/164/234 109/10/109/161 113/11/113/160 
f 159/98/159/240 163/97/163/241 165/94/165/237 
f 159/98/159/240 165/94/165/237 166/96/166/239 
f 163/100/163/242 74/99/74/243 71/93/71/235 
f 163/100/163/242 71/93/71/235 165/94/165/237 
f 111/5/111/158 119/22/119/171 115/23/115/174 
f 111/5/111/158 115/23/115/174 112/8/112/159 
f 120/21/120/172 149/101/149/244 147/61/147/205 
f 120/21/120/172 147/61/147/205 117/20/117/173 
f 167/102/167/245 129/103/129/183 127/74/127/219 
f 167/102/167/245 127/74/127/219 154/73/154/218 
f 167/102/167/245 154/73/154/218 138/42/138/192 
f 167/102/167/245 138/42/138/192 140/44/140/183 
f 168/104/168/183 158/81/158/226 148/52/148/200 
f 168/104/168/183 148/52/148/200 150/54/150/183 
f 139/45/139/183 137/43/137/191 158/81/158/226 
f 139/45/139/183 158/81/158/226 168/104/168/183 
f 169/105/169/246 166/96/166/239 108/95/108/238 
f 169/105/169/246 108/95/108/238 107/106/106/247 
f 169/105/169/246 160/108/160/248 159/107/159/249 
f 169/105/169/246 159/107/159/249 166/96/166/239 
f 130/149/130/184 129/148/129/183 170/150/170/250 
f 130/149/130/184 170/150/170/250 171/151/171/251 
f 172/42/172/252 140/44/140/253 139/45/139/253 
f 172/42/172/252 139/45/139/253 173/43/173/254 
f 174/52/174/255 150/54/150/253 149/55/149/253 
f 174/52/174/255 149/55/149/253 175/53/175/256 
f 170/74/170/257 176/73/176/258 85/112/85/259 
f 170/74/170/257 85/112/85/259 84/111/84/260 
f 172/42/172/252 87/113/87/261 85/112/85/259 
f 172/42/172/252 85/112/85/259 176/73/176/258 
f 174/52/174/255 89/115/89/262 88/114/88/263 
f 174/52/174/255 88/114/88/263 177/81/177/264 
f 177/81/177/264 88/114/88/263 91/116/91/265 
f 177/81/177/264 91/116/91/265 173/43/173/254 
f 111/5/111/266 93/118/93/267 92/117/92/268 
f 111/5/111/266 92/117/92/268 119/22/119/269 
f 95/120/95/270 94/119/94/271 175/61/175/272 
f 95/120/95/270 175/61/175/272 149/101/149/273 
f 120/21/120/274 95/120/95/270 149/101/149/273 
f 167/102/167/275 176/73/176/258 170/74/170/257 
f 167/102/167/275 170/74/170/257 129/103/129/253 
f 172/42/172/252 176/73/176/258 167/102/167/275 
f 172/42/172/252 167/102/167/275 140/44/140/253 
f 174/52/174/255 177/81/177/264 168/104/168/253 
f 174/52/174/255 168/104/168/253 150/54/150/253 
f 177/81/177/264 173/43/173/254 139/45/139/253 
f 177/81/177/264 139/45/139/253 168/104/168/253 
f 97/122/97/129 96/121/96/276 169/105/169/277 
f 97/122/97/129 169/105/169/277 107/106/106/247 
f 169/105/169/277 96/121/96/276 98/123/98/278 
f 169/105/169/277 98/123/98/278 160/108/160/248 
f 99/124/99/279 113/11/113/160 114/12/114/163 
f 99/124/99/279 114/12/114/163 13/15/13/168 
f 14/16/14/167 116/17/116/166 118/59/118/204 
f 14/16/14/167 118/59/118/204 49/56/49/203 
f 53/127/53/134 121/140/121/175 124/143/124/178 
f 53/127/53/134 124/143/124/178 100/128/100/135 
f 64/82/64/227 131/38/131/185 134/39/134/188 
f 64/82/64/227 134/39/134/188 57/75/57/220 
f 50/129/50/280 141/48/141/193 144/49/144/196 
f 50/129/50/280 144/49/144/196 58/76/58/222 
f 74/130/74/137 163/89/163/232 164/90/164/234 
f 74/130/74/137 164/90/164/234 101/131/101/281 
f 99/124/99/279 101/131/101/281 164/90/164/234 
f 99/124/99/279 164/90/164/234 113/11/113/160 
f 0/0/0/282 97/132/97/283 107/3/106/284 
f 93/118/93/267 111/5/111/266 110/6/110/285 
f 93/118/93/267 110/6/110/285 102/133/102/286 
f 95/120/95/270 120/21/120/274 119/22/119/269 
f 95/120/95/270 119/22/119/269 92/117/92/268 
f 103/152/103/287 171/151/171/251 170/150/170/250 
f 103/152/103/287 170/150/170/250 84/153/84/288 
f 91/116/91/265 87/113/87/261 172/42/172/252 
f 91/116/91/265 172/42/172/252 173/43/173/254 
f 104/136/104/289 89/115/89/262 174/52/174/255 
f 104/136/104/289 174/52/174/255 175/53/175/256 
f 94/119/94/271 104/137/104/290 175/61/175/272 
f 105/138/105/291 161/83/161/292 160/84/160/229 
f 105/138/105/291 160/84/160/229 98/139/98/150 
f 105/138/105/291 102/133/102/286 110/6/110/285 
f 105/138/105/291 110/6/110/285 161/83/161/292 
