v 921.9351 413.9112 -317.2691
v 921.9351 418.506 -317.2692
v 921.9355 418.5059 245.8139
v 921.9355 413.9112 245.8139
v -1052.8756 413.9112 -317.2692
v -1052.8757 418.506 -317.2691
v -1052.8756 413.9112 245.8143
v -1052.8757 418.5059 245.8143
v 914.8004 422.2418 -310.1346
v 914.8008 422.2417 238.6792
v -1045.741 422.2418 -310.1346
v -1045.741 422.2417 238.6796
gi 0 0 0 0
gi 0 0 0 0
gi 0 0 0 0
gi 0 0 0 0
gi 0 0 0 0
gi 0 0 0 0
gi 0 0 0 0
gi 0 0 0 0
gi 0 0 0 0
gi 0 0 0 0
gi 0 0 0 0
gi 0 0 0 0
gw 0.0 0.0 0.0 0.0
gw 0.0 0.0 0.0 0.0
gw 0.0 0.0 0.0 0.0
gw 0.0 0.0 0.0 0.0
gw 0.0 0.0 0.0 0.0
gw 0.0 0.0 0.0 0.0
gw 0.0 0.0 0.0 0.0
gw 0.0 0.0 0.0 0.0
gw 0.0 0.0 0.0 0.0
gw 0.0 0.0 0.0 0.0
gw 0.0 0.0 0.0 0.0
gw 0.0 0.0 0.0 0.0
vt 8.7004 0.2886
vt 11.258 0.2886
vt 11.258 0.3294
vt 8.7004 0.3295
vt 20.2278 0.2885
vt 20.2278 0.3294
vt 22.7854 0.2885
vt 22.7854 0.3294
vt -0.2694 0.3295
vt -0.2694 0.2886
vt 22.753 0.3929
vt 20.2602 0.3929
vt 8.668 0.393
vt -0.237 0.393
vt 11.2256 0.393
vt 8.7328 0.393
vt 20.1954 0.393
vt 11.2904 0.393
vn -1.0 -0.0 0.0
vn -1.0 0.0 -0.0
vn 0.0 0.0 1.0
vn 0.0 0.0 1.0
vn 0.7071 0.0 -0.7071
vn 0.6222 0.475 -0.6222
vn 0.6223 0.475 0.6222
vn 0.707 0.0 0.7072
vn -0.7072 0.0 -0.707
vn -0.6222 0.475 -0.6223
vn 0.2455 0.9378 -0.2455
vn 0.2455 0.9378 0.2455
vn -0.2455 0.9378 -0.2455
vn -0.6223 0.4748 0.6223
vn -0.2455 0.9378 0.2455
vtan 0.0 0.0 1.0
vtan -0.0 0.0 1.0
vtan 1.0 0.0 -0.0
vtan 1.0 0.0 -0.0
vtan -0.7071 -0.0 -0.7071
vtan -0.4946 -0.3776 -0.7828
vtan 0.4946 0.3776 -0.7828
vtan 0.7072 0.0 -0.707
vtan -0.7828 0.3776 -0.4946
vtan -0.7071 0.0 -0.7071
vtan -0.707 -0.0 0.7072
vtan -0.7828 -0.3776 0.4946
vtan -0.0622 -0.2375 -0.9694
vtan 0.0622 0.2375 -0.9694
vtan -0.9694 -0.2375 0.0622
vtan -0.9694 0.2375 -0.0622
vtan 0.4947 -0.3775 0.7828
vtan 0.0622 -0.2375 0.9694
vtan -0.0622 0.2375 0.9694
vtan -0.4946 0.3776 0.7828
vtan 0.7828 -0.3776 -0.4946
vtan 0.9694 -0.2375 -0.0622
vtan 0.9694 0.2375 0.0622
vtan 0.7828 0.3775 0.4947
f 4/0/0/0 6/1/0/0 7/2/0/0 
f 4/0/1/1 7/2/1/1 5/3/1/1 
f 6/1/2/2 3/4/2/2 2/5/2/2 
f 6/1/3/3 2/5/3/3 7/2/3/3 
f 0/6/4/4 1/7/5/5 2/5/6/6 
f 0/6/4/4 2/5/6/6 3/4/7/7 
f 1/8/5/8 0/9/4/9 4/0/8/10 
f 1/8/5/8 4/0/8/10 5/3/9/11 
f 1/7/5/5 8/10/10/12 9/11/11/13 
f 1/7/5/5 9/11/11/13 2/5/6/6 
f 5/3/9/11 10/12/12/14 8/13/10/15 
f 5/3/9/11 8/13/10/15 1/8/5/8 
f 7/2/13/16 11/14/14/17 10/15/12/18 
f 7/2/13/16 10/15/12/18 5/3/9/19 
f 2/5/6/20 9/16/11/21 11/17/14/22 
f 2/5/6/20 11/17/14/22 7/2/13/23 
