v 856.8469 692.2729 -9.5513
v 856.4814 692.2729 -9.7027
v 856.0808 692.2729 -10.1032
v 855.9294 692.2729 -59.7196
v 855.9294 692.2729 -11.1238
v 855.9294 692.2729 -58.705
v 855.9294 692.2729 -10.4687
v 856.0808 692.2729 -60.0851
v 856.4814 692.2729 -60.4856
v 906.1891 692.2729 -60.637
v 856.8469 692.2729 -60.637
v 857.9882 692.2729 -60.637
v 905.3467 692.2729 -60.637
v 906.5547 692.2729 -60.4856
v 906.9552 692.2729 -60.0851
v 907.1066 692.2729 -10.4687
v 907.1066 692.2729 -58.7223
v 907.1066 692.2729 -11.657
v 907.1066 692.2729 -59.7196
v 906.9552 692.2729 -10.1032
v 906.5547 692.2729 -9.7027
v 905.0797 692.2729 -9.5513
v 857.2365 692.2729 -9.5513
v 906.1891 692.2729 -9.5513
v 907.1066 699.6118 -59.7196
v 906.9552 699.6118 -60.0851
v 906.5547 699.6118 -60.4856
v 856.8469 699.6118 -60.637
v 905.3467 699.6118 -60.637
v 857.9882 699.6118 -60.637
v 906.1891 699.6118 -60.637
v 856.4814 699.6118 -60.4856
v 856.0808 699.6118 -60.0851
v 855.9294 699.6118 -10.4687
v 855.9294 699.6118 -58.705
v 855.9294 699.6118 -11.1238
v 855.9294 699.6118 -59.7196
v 856.0808 699.6118 -10.1032
v 856.4814 699.6118 -9.7027
v 906.1891 699.6118 -9.5513
v 857.2365 699.6118 -9.5513
v 905.0797 699.6118 -9.5513
v 856.8469 699.6118 -9.5513
v 906.5547 699.6118 -9.7027
v 906.9552 699.6118 -10.1032
v 907.1066 699.6118 -11.657
v 907.1066 699.6118 -58.7223
v 907.1066 699.6118 -10.4687
v 906.2488 692.5733 -9.251
v 906.2488 697.645 -9.251
v 905.1368 695.9443 -9.251
v 905.1368 694.2437 -9.251
v 855.6292 692.5733 -10.409
v 855.6292 697.645 -10.409
v 855.6292 695.9443 -11.0657
v 855.6292 694.2437 -11.0657
v 856.3113 692.5733 -9.4481
v 856.3113 699.3115 -9.4481
v 855.8263 699.3115 -9.9331
v 855.8263 692.5733 -9.9331
v 906.7247 692.5733 -9.4481
v 907.2097 692.5733 -9.9331
v 907.2097 699.3115 -9.9331
v 906.7247 699.3115 -9.4481
v 855.8263 692.5733 -60.2552
v 855.8263 699.3115 -60.2552
v 856.3113 699.3115 -60.7402
v 856.3113 692.5733 -60.7402
v 856.7872 697.645 -9.251
v 856.7872 699.3115 -9.251
v 856.7872 692.5733 -9.251
v 906.2488 699.3115 -9.251
v 855.6292 692.5733 -59.7793
v 855.6292 697.645 -59.7793
v 855.6292 699.3115 -10.409
v 907.4069 692.5733 -10.409
v 907.4069 697.645 -10.409
v 907.4069 699.3115 -10.409
v 856.7872 697.645 -60.9373
v 856.7872 692.5733 -60.9373
v 855.6292 692.5733 -58.7623
v 857.1777 692.5733 -9.251
v 905.1368 699.3115 -9.251
v 855.6292 699.3115 -11.0657
v 856.7872 699.3115 -60.9373
v 855.6292 699.3115 -59.7793
v 857.9312 695.9443 -60.9373
v 857.9312 694.2437 -60.9373
v 907.4069 692.5733 -59.7793
v 907.4069 697.645 -59.7793
v 907.4069 695.9443 -58.7796
v 907.4069 694.2437 -58.7796
v 906.7247 692.5733 -60.7402
v 906.7247 699.3115 -60.7402
v 907.2097 699.3115 -60.2552
v 907.2097 692.5733 -60.2552
v 906.2488 697.645 -60.9373
v 906.2488 699.3115 -60.9373
v 906.2488 692.5733 -60.9373
v 907.4069 699.3115 -59.7793
v 907.4069 692.5733 -11.6002
v 905.4043 692.5733 -60.9373
v 857.9312 699.3115 -60.9373
v 907.4069 699.3115 -58.7796
v 857.1777 697.645 -9.251
v 855.6292 697.645 -58.7623
v 855.6292 699.3115 -58.7623
v 905.4043 697.645 -60.9373
v 907.4069 697.645 -11.6002
v 905.1368 692.5733 -9.251
v 904.7192 694.2437 -9.251
v 857.1777 699.3115 -9.251
v 905.1368 697.645 -9.251
v 857.761 697.645 -9.251
v 857.1777 695.9443 -9.251
v 857.761 695.9443 -11.5996
v 857.1777 694.2437 -9.251
v 855.6292 694.2437 -58.7623
v 855.6292 692.5733 -11.0657
v 855.6292 697.645 -58.3088
v 855.6292 695.9443 -58.7623
v 857.3169 695.9443 -58.3088
v 855.6292 694.2437 -11.6939
v 855.6292 697.645 -11.0657
v 905.4043 694.2437 -60.9373
v 857.9312 692.5733 -60.9373
v 905.4043 699.3115 -60.9373
v 904.9109 697.645 -60.9373
v 905.4043 695.9443 -60.9373
v 904.9109 695.9443 -59.2202
v 858.4757 694.2437 -60.9373
v 857.9312 697.645 -60.9373
v 907.4069 694.2437 -11.6002
v 907.4069 692.5733 -58.7796
v 907.4069 699.3115 -11.6002
v 907.4069 697.645 -12.1671
v 907.4069 695.9443 -11.6002
v 905.2838 695.9443 -12.1671
v 907.4069 694.2437 -58.3431
v 907.4069 697.645 -58.7796
v 904.7192 695.9443 -11.5996
v 857.3169 695.9443 -11.6939
v 858.4757 695.9443 -59.2202
v 905.2838 695.9443 -58.3431
v 907.4069 697.645 -58.3431
v 907.4069 694.2437 -12.1671
v 858.4757 697.645 -60.9373
v 904.9109 694.2437 -60.9373
v 855.6292 697.645 -11.6939
v 855.6292 694.2437 -58.3088
v 904.7192 697.645 -9.251
v 857.761 694.2437 -9.251
vt 0.6734 0.6622
vt 0.6713 0.6631
vt 0.6687 0.6656
vt 0.6678 0.9769
vt 0.6678 0.672
vt 0.6678 0.9705
vt 0.6678 0.6679
vt 0.6687 0.9792
vt 0.6713 0.9817
vt 0.9831 0.9826
vt 0.6736 0.9826
vt 0.6807 0.9826
vt 0.9778 0.9826
vt 0.9853 0.9817
vt 0.9879 0.9792
vt 0.9888 0.6679
vt 0.9888 0.9706
vt 0.9888 0.6754
vt 0.9888 0.9769
vt 0.9853 0.6631
vt 0.9879 0.6656
vt 0.6758 0.6622
vt 0.9761 0.6621
vt 0.9831 0.6621
vt 0.5631 0.6536
vt 0.5626 0.6526
vt 0.5616 0.6515
vt 0.4276 0.6511
vt 0.5583 0.6511
vt 0.4307 0.6511
vt 0.5606 0.6511
vt 0.4266 0.6515
vt 0.4256 0.6526
vt 0.4252 0.7863
vt 0.4252 0.6563
vt 0.4252 0.7845
vt 0.4252 0.6536
vt 0.4256 0.7873
vt 0.4266 0.7884
vt 0.5606 0.7888
vt 0.4286 0.7888
vt 0.5577 0.7888
vt 0.4276 0.7888
vt 0.5616 0.7884
vt 0.5626 0.7873
vt 0.5631 0.7831
vt 0.5631 0.6563
vt 0.5631 0.7863
vt 0.0143 0.6233
vt 0.045 0.6233
vt 0.0347 0.6166
vt 0.0244 0.6166
vt 0.0143 0.3152
vt 0.045 0.3152
vt 0.0347 0.3112
vt 0.0244 0.3112
vt 0.0143 0.321
vt 0.0551 0.321
vt 0.0551 0.3181
vt 0.0143 0.3181
vt 0.0143 0.6262
vt 0.0143 0.6291
vt 0.0551 0.6291
vt 0.0551 0.6262
vt 0.0143 0.0134
vt 0.0551 0.0134
vt 0.0551 0.0105
vt 0.0143 0.0105
vt 0.045 0.3239
vt 0.0551 0.3239
vt 0.0143 0.3239
vt 0.0551 0.6233
vt 0.0143 0.0163
vt 0.045 0.0163
vt 0.0551 0.3152
vt 0.0143 0.632
vt 0.045 0.632
vt 0.0551 0.632
vt 0.045 0.0076
vt 0.0143 0.0076
vt 0.0124 0.0165
vt 0.0124 0.0226
vt 0.0143 0.0224
vt 0.0125 0.3241
vt 0.0125 0.3264
vt 0.0143 0.3262
vt 0.0569 0.6231
vt 0.0569 0.6164
vt 0.0551 0.6166
vt 0.057 0.3151
vt 0.057 0.3112
vt 0.0551 0.3112
vt 0.0125 0.6262
vt 0.0125 0.6292
vt 0.0126 0.318
vt 0.0126 0.321
vt 0.0125 0.0104
vt 0.0122 0.0134
vt 0.0572 0.6292
vt 0.0569 0.6262
vt 0.0568 0.321
vt 0.057 0.318
vt 0.0572 0.0134
vt 0.0572 0.0104
vt 0.0126 0.623
vt 0.0576 0.0079
vt 0.0551 0.0076
vt 0.0126 0.6317
vt 0.0125 0.3152
vt 0.0126 0.0079
vt 0.0571 0.6317
vt 0.0569 0.3241
vt 0.0551 0.0163
vt 0.0572 0.0163
vt 0.0347 0.6164
vt 0.0244 0.6164
vt 0.0347 0.3091
vt 0.0244 0.3091
vt 0.0124 0.0237
vt 0.0143 0.0235
vt 0.0125 0.3292
vt 0.0143 0.329
vt 0.0569 0.6162
vt 0.0551 0.6164
vt 0.057 0.3091
vt 0.0551 0.3091
vt 0.045 0.3262
vt 0.045 0.0224
vt 0.0551 0.0224
vt 0.045 0.329
vt 0.045 0.0235
vt 0.0143 0.6166
vt 0.0244 0.6141
vt 0.0126 0.6163
vt 0.0569 0.3265
vt 0.0551 0.3262
vt 0.045 0.6166
vt 0.045 0.3298
vt 0.0347 0.3262
vt 0.0347 0.3298
vt 0.0244 0.3262
vt 0.0244 0.0224
vt 0.0125 0.3112
vt 0.0143 0.3112
vt 0.0572 0.0225
vt 0.045 0.0252
vt 0.0347 0.0224
vt 0.0347 0.0252
vt 0.0244 0.3074
vt 0.045 0.3112
vt 0.0244 0.329
vt 0.0126 0.6161
vt 0.0143 0.6164
vt 0.0551 0.329
vt 0.0569 0.3292
vt 0.045 0.332
vt 0.0347 0.329
vt 0.0347 0.332
vt 0.0244 0.6131
vt 0.045 0.6164
vt 0.0244 0.0235
vt 0.0125 0.3091
vt 0.0143 0.3091
vt 0.0551 0.0235
vt 0.0572 0.0235
vt 0.045 0.0269
vt 0.0347 0.0235
vt 0.0347 0.0269
vt 0.0244 0.3065
vt 0.045 0.3091
vt 0.0347 0.6141
vt 0.0347 0.3074
vt 0.0347 0.6131
vt 0.0347 0.3065
vt 0.045 0.3065
vt 0.0244 0.0269
vt 0.045 0.6131
vt 0.0244 0.332
vt 0.045 0.3074
vt 0.0244 0.0252
vt 0.045 0.6141
vt 0.0244 0.3298
vn -0.0814 -0.9088 0.4093
vn -0.2318 -0.9088 0.347
vn -0.347 -0.9088 0.2319
vn -0.4094 -0.9087 -0.0815
vn -0.3828 -0.9238 0.0
vn -0.3829 -0.9238 0.0
vn -0.4094 -0.9087 0.0814
vn -0.3469 -0.9088 -0.2318
vn -0.2318 -0.9088 -0.3469
vn 0.0814 -0.9088 -0.4093
vn -0.0814 -0.9089 -0.409
vn -0.0 -0.9239 -0.3826
vn -0.0 -0.9238 -0.3828
vn 0.2319 -0.9088 -0.347
vn 0.347 -0.9088 -0.2318
vn 0.4093 -0.9088 0.0814
vn 0.3828 -0.9238 0.0
vn 0.3828 -0.9238 0.0
vn 0.4093 -0.9088 -0.0814
vn 0.2319 -0.9087 0.347
vn 0.347 -0.9088 0.2319
vn 0.0 -0.9239 0.3827
vn 0.0 -0.9238 0.3828
vn 0.0814 -0.9089 0.409
vn 0.4092 0.9088 -0.0814
vn 0.3469 0.9088 -0.2318
vn 0.2318 0.9088 -0.3469
vn -0.0814 0.9088 -0.4092
vn 0.0 0.9239 -0.3827
vn -0.0 0.9239 -0.3827
vn 0.0814 0.9088 -0.4093
vn -0.2318 0.9087 -0.3472
vn -0.3469 0.9088 -0.2318
vn -0.4093 0.9087 0.0814
vn -0.3827 0.9239 0.0
vn -0.3828 0.9238 0.0
vn -0.4093 0.9088 -0.0814
vn -0.3468 0.9089 0.2317
vn -0.2318 0.9088 0.3469
vn 0.0814 0.9088 0.4092
vn 0.0 0.9239 0.3826
vn 0.0 0.9239 0.3827
vn -0.0814 0.9089 0.409
vn 0.2318 0.9087 0.3473
vn 0.3469 0.9088 0.2319
vn 0.3827 0.9239 0.0
vn 0.3827 0.9239 0.0
vn 0.4092 0.9088 0.0814
vn 0.1812 -0.3709 0.9108
vn 0.1951 -0.0 0.9808
vn -0.569 -0.0 0.8223
vn -0.2652 0.0651 0.962
vn -0.9109 -0.3708 0.1812
vn -0.9808 0.0 0.1951
vn -0.8983 0.0 -0.4393
vn -0.9747 0.0774 -0.2096
vn -0.5159 -0.3709 0.7722
vn -0.5159 0.371 0.7721
vn -0.7722 0.371 0.5159
vn -0.7722 -0.3708 0.5159
vn 0.5159 -0.3708 0.7722
vn 0.7721 -0.3709 0.516
vn 0.7721 0.371 0.516
vn 0.5159 0.3709 0.7722
vn -0.7722 -0.3708 -0.516
vn -0.7722 0.3709 -0.5159
vn -0.5159 0.371 -0.7721
vn -0.5159 -0.3709 -0.7722
vn -0.1951 0.0 0.9808
vn -0.1812 0.371 0.9108
vn -0.1812 -0.371 0.9108
vn 0.1812 0.371 0.9108
vn -0.9109 -0.3707 -0.1812
vn -0.9808 0.0 -0.1951
vn -0.9109 0.3708 0.1812
vn 0.9108 -0.3709 0.1812
vn 0.9808 -0.0 0.1952
vn 0.9108 0.371 0.1812
vn -0.1951 0.0 -0.9808
vn -0.1812 -0.3709 -0.9108
vn -0.924 -0.3824 0.0
vn 0.0 -0.3827 0.9239
vn 0.0 0.3827 0.9239
vn -0.9239 0.3825 0.0
vn -0.1811 0.371 -0.9108
vn -0.9108 0.3709 -0.1811
vn 0.4734 0.0 -0.8809
vn 0.2249 0.072 -0.9717
vn 0.9108 -0.3709 -0.1812
vn 0.9808 0.0 -0.1952
vn 0.8358 -0.0 0.549
vn 0.9641 0.066 0.2571
vn 0.5159 -0.3709 -0.7722
vn 0.5159 0.3709 -0.7722
vn 0.7721 0.3709 -0.516
vn 0.7722 -0.3709 -0.516
vn 0.1951 0.0 -0.9808
vn 0.1811 0.371 -0.9108
vn 0.1812 -0.3709 -0.9108
vn 0.9108 0.3709 -0.1812
vn 0.9239 -0.3826 0.0
vn 0.0 -0.3826 -0.9239
vn 0.0 0.3827 -0.9239
vn 0.9239 0.3827 0.0
vn 0.2414 -0.0828 0.9669
vn -0.9687 -0.0639 0.2397
vn -0.9239 0.3826 0.0
vn -0.2339 -0.0678 -0.9699
vn 0.9683 -0.079 -0.2371
vn 0.0 -0.3825 0.9239
vn -0.2844 0.3209 0.9034
vn 0.0 0.3827 0.9239
vn -0.2652 -0.0651 0.962
vn 0.2576 -0.3323 0.9073
vn 0.5149 0.0 0.8572
vn 0.4281 0.0 0.9037
vn 0.2414 0.0828 0.9669
vn -0.9687 0.0639 0.2397
vn -0.9239 -0.3826 0.0
vn -0.9287 -0.2731 0.2509
vn -0.8624 0.0 0.5062
vn -0.9042 0.0 0.4271
vn -0.9344 0.2812 -0.2187
vn -0.9747 -0.0774 -0.2096
vn -0.2339 0.0678 -0.9699
vn 0.0 -0.3826 -0.9239
vn 0.0 0.3827 -0.9239
vn -0.2448 -0.278 -0.9289
vn -0.4932 -0.0 -0.8699
vn -0.4171 0.0 -0.9088
vn 0.2353 0.2805 -0.9306
vn 0.2249 -0.072 -0.9717
vn 0.9683 0.079 -0.2371
vn 0.9239 -0.3825 0.0
vn 0.9239 0.3827 0.0
vn 0.9149 -0.3157 -0.2514
vn 0.864 0.0 -0.5036
vn 0.9069 -0.0 -0.4213
vn 0.9114 0.3076 0.2735
vn 0.9641 -0.066 0.2571
vn -0.4649 -0.0 0.8854
vn -0.9258 0.0 -0.378
vn 0.4027 -0.0 -0.9153
vn 0.8915 -0.0 0.4529
vn 0.9114 -0.3076 0.2735
vn 0.9149 0.3158 -0.2514
vn 0.2353 -0.2805 -0.9306
vn -0.2448 0.278 -0.9289
vn -0.9344 -0.2812 -0.2187
vn -0.9287 0.2732 0.2509
vn -0.2844 -0.3209 0.9034
vn 0.2576 0.3323 0.9073
vtan 0.9967 -0.0717 0.0391 -1.0
vtan 0.9723 -0.2053 0.1118 -1.0
vtan 0.9378 -0.3333 0.0972 -1.0
vtan 0.9123 -0.4078 -0.0369 -1.0
vtan 0.9238 -0.3828 0.0024 -1.0
vtan 0.4312 -0.1788 0.8844 -1.0
vtan 0.9123 -0.409 0.0221 -1.0
vtan 0.9378 -0.3327 -0.0994 -1.0
vtan 0.9728 -0.2163 -0.0834 -1.0
vtan 0.9967 0.0717 0.0391 -1.0
vtan 0.9967 -0.0742 -0.0334 -1.0
vtan 1.0 -0.0 -0.0 -1.0
vtan 1.0 -0.0 -0.0 -1.0
vtan 0.9723 0.2054 0.1119 -1.0
vtan 0.9378 0.3333 0.0971 -1.0
vtan 0.9124 0.4076 -0.0368 -1.0
vtan 0.9223 0.3822 -0.0573 -1.0
vtan 0.3978 0.1648 0.9025 -1.0
vtan 0.9124 0.4067 0.0466 -1.0
vtan 0.9727 0.2163 -0.0835 -1.0
vtan 0.9378 0.3327 -0.0994 -1.0
vtan 1.0 -0.0 -0.0 -1.0
vtan 1.0 -0.0001 -0.0003 -1.0
vtan 0.9967 0.0742 -0.0334 -1.0
vtan 0.9124 -0.4077 0.035 -1.0
vtan 0.9379 -0.3378 0.079 -1.0
vtan 0.9728 -0.2166 0.0824 -1.0
vtan 0.9967 0.0742 -0.0334 -1.0
vtan 1.0 0.0 0.0 -1.0
vtan 1.0 0.0 -0.0 -1.0
vtan 0.9967 -0.0742 0.0334 -1.0
vtan 0.9725 0.2075 -0.1062 -1.0
vtan 0.9379 0.3383 -0.0773 -1.0
vtan 0.9124 0.4079 0.0349 -1.0
vtan 0.9229 0.3823 -0.045 -1.0
vtan 0.1345 0.0557 -0.9893 -1.0
vtan 0.9099 0.4132 0.0373 -1.0
vtan 0.9379 0.3377 0.079 -1.0
vtan 0.9728 0.2166 0.0824 -1.0
vtan 0.9967 -0.0742 -0.0334 -1.0
vtan 1.0 -0.0 -0.0 -1.0
vtan 0.9967 0.0742 0.0334 -1.0
vtan 0.9725 -0.2075 -0.1062 -1.0
vtan 0.9379 -0.3383 -0.0771 -1.0
vtan 0.9233 -0.3824 0.0369 -1.0
vtan 0.4774 -0.1977 -0.8562 -1.0
vtan 0.9116 -0.411 0.0055 -1.0
vtan 0.0668 0.9287 0.3649 -1.0
vtan 0.0 1.0 0.0 -1.0
vtan -0.0 1.0 -0.0 -1.0
vtan 0.0173 0.9979 -0.0627 -1.0
vtan -0.3576 0.9283 0.1019 -1.0
vtan 0.0 1.0 -0.0 -1.0
vtan 0.0 1.0 -0.0 -1.0
vtan 0.0757 0.997 0.0163 -1.0
vtan -0.1687 0.9277 0.3329 -1.0
vtan 0.233 0.9281 -0.2903 -1.0
vtan 0.3402 0.9271 -0.1575 -1.0
vtan -0.3027 0.9286 0.2144 -1.0
vtan 0.2328 0.9282 0.2902 -1.0
vtan 0.3295 0.928 0.1739 -1.0
vtan -0.3028 0.9286 -0.2145 -1.0
vtan -0.1686 0.9277 -0.333 -1.0
vtan -0.3328 0.9278 -0.1687 -1.0
vtan 0.2902 0.9282 0.233 -1.0
vtan 0.1739 0.9279 0.3297 -1.0
vtan -0.2144 0.9286 -0.3028 -1.0
vtan 0.0 1.0 -0.0 -1.0
vtan 0.0795 0.9286 -0.3625 -1.0
vtan -0.0319 0.9279 0.3716 -1.0
vtan -0.0323 0.9279 -0.3715 -1.0
vtan -0.3713 0.928 -0.0322 -1.0
vtan 0.0 1.0 0.0 -1.0
vtan 0.3675 0.9285 -0.0524 -1.0
vtan 0.3506 0.9268 0.1346 -1.0
vtan 0.0 1.0 0.0 -1.0
vtan -0.3451 0.925 -0.1591 -1.0
vtan 0.0 1.0 0.0 -1.0
vtan -0.1591 0.925 -0.345 -1.0
vtan -0.8922 0.4175 -0.1724 -1.0
vtan -0.9221 0.3822 -0.0609 -1.0
vtan -0.3822 0.9235 -0.0323 -1.0
vtan -0.1718 0.4173 0.8924 -1.0
vtan -0.0644 0.3819 0.9219 -1.0
vtan -0.0339 0.9233 0.3825 -1.0
vtan -0.1724 0.4172 -0.8923 -1.0
vtan -0.0608 0.382 -0.9222 -1.0
vtan -0.0303 0.9234 -0.3825 -1.0
vtan 0.8854 0.4172 -0.205 -1.0
vtan 0.9139 0.3787 -0.1459 -1.0
vtan 0.3816 0.9217 -0.0699 -1.0
vtan 0.4364 0.416 0.7978 -1.0
vtan 0.75 0.4173 0.5132 -1.0
vtan -0.806 0.4154 0.4217 -1.0
vtan -0.5505 0.4167 0.7234 -1.0
vtan -0.4431 0.4161 -0.794 -1.0
vtan -0.7233 0.4166 -0.5506 -1.0
vtan -0.794 0.4161 -0.4432 -1.0
vtan -0.5503 0.4169 -0.7235 -1.0
vtan 0.4415 0.416 -0.795 -1.0
vtan 0.7486 0.4171 -0.5154 -1.0
vtan 0.7885 0.4165 0.4526 -1.0
vtan 0.5129 0.4175 0.7501 -1.0
vtan 0.072 0.4147 0.9071 -1.0
vtan 0.3544 0.4102 0.8403 -1.0
vtan 0.1347 0.9268 0.3507 -1.0
vtan 0.8403 0.4102 0.3543 -1.0
vtan -0.8914 0.4174 0.1766 -1.0
vtan -0.2909 0.4142 -0.8624 -1.0
vtan -0.8624 0.4143 -0.2908 -1.0
vtan 0.096 0.4156 -0.9045 -1.0
vtan 0.3567 0.9281 0.1068 -1.0
vtan 0.8923 0.4173 0.1721 -1.0
vtan -0.014 0.927 -0.3747 -1.0
vtan 0.0 1.0 0.0 -1.0
vtan -0.0162 0.9974 0.0702 -1.0
vtan 0.3577 0.9282 -0.1019 -1.0
vtan -0.0 1.0 0.0 -1.0
vtan -0.0637 0.9978 -0.017 -1.0
vtan 0.1686 0.9278 -0.3329 -1.0
vtan -0.2329 0.9282 0.2903 -1.0
vtan -0.3402 0.9271 0.1574 -1.0
vtan 0.3028 0.9286 -0.2144 -1.0
vtan -0.0799 0.9286 0.3623 -1.0
vtan 0.0323 0.9279 -0.3714 -1.0
vtan -0.3677 0.9285 0.0524 -1.0
vtan 0.9044 0.4159 0.0955 -1.0
vtan 0.9222 0.3821 0.0599 -1.0
vtan 0.3824 0.9235 0.03 -1.0
vtan 0.3712 0.9279 0.0335 -1.0
vtan 0.1725 0.4173 -0.8922 -1.0
vtan 0.0623 0.382 -0.922 -1.0
vtan 0.0319 0.9235 -0.3824 -1.0
vtan 0.0955 0.4158 0.9044 -1.0
vtan 0.0606 0.382 0.9222 -1.0
vtan 0.0309 0.9234 0.3825 -1.0
vtan 0.0335 0.9279 0.3713 -1.0
vtan -0.8859 0.4171 0.2029 -1.0
vtan -0.9143 0.3787 0.1438 -1.0
vtan -0.3818 0.9216 0.0693 -1.0
vtan 0.806 0.4154 -0.4217 -1.0
vtan 0.5504 0.4167 -0.7235 -1.0
vtan -0.4413 0.416 0.7951 -1.0
vtan -0.7485 0.4172 0.5154 -1.0
vtan 0.8915 0.4173 -0.1766 -1.0
vtan -0.1061 0.4162 0.9031 -1.0
vtan 0.0201 0.9966 0.0803 -1.0
vtan -0.0621 0.998 0.0154 -1.0
vtan 0.382 0.9225 0.0556 -1.0
vtan -0.0159 0.9977 -0.0659 -1.0
vtan 0.0 1.0 0.0 -1.0
vtan 0.0768 0.9969 -0.0188 -1.0
vtan -0.3639 0.9286 -0.0723 -1.0
vtan 0.0091 0.9239 0.3825 -1.0
vtan 0.0105 0.9433 -0.3318 -1.0
vtan 0.0191 0.3827 0.9237 -1.0
vtan 0.0247 0.3825 -0.9236 -1.0
vtan 0.0192 0.9237 -0.3827 -1.0
vtan -0.0173 0.9979 0.0628 -1.0
vtan 0.0116 0.94 0.3409 -1.0
vtan 0.0 1.0 -0.0 -1.0
vtan 0.0 1.0 -0.0 -1.0
vtan -0.02 0.9966 -0.0803 -1.0
vtan 0.0621 0.998 -0.0154 -1.0
vtan -0.9139 0.3786 0.1465 -1.0
vtan -0.3815 0.9214 0.0734 -1.0
vtan 0.9189 0.3807 0.1036 -1.0
vtan -0.2792 0.9602 0.0119 -1.0
vtan 0.0 1.0 0.0 -1.0
vtan 0.0 1.0 0.0 -1.0
vtan 0.2865 0.9581 0.0081 -1.0
vtan -0.0757 0.997 -0.0163 -1.0
vtan 0.0159 0.9977 0.0659 -1.0
vtan -0.019 0.3825 -0.9238 -1.0
vtan -0.0098 0.9239 -0.3826 -1.0
vtan -0.0318 0.9234 0.3825 -1.0
vtan -0.0626 0.382 0.9221 -1.0
vtan -0.0103 0.9587 -0.2842 -1.0
vtan -0.0 1.0 0.0 -1.0
vtan -0.0 1.0 0.0 -1.0
vtan -0.0094 0.9581 0.2864 -1.0
vtan -0.0544 0.4138 -0.9087 -1.0
vtan 0.0162 0.9974 -0.0701 -1.0
vtan -0.0768 0.9969 0.0188 -1.0
vtan 0.9141 0.3788 -0.1445 -1.0
vtan 0.3816 0.9216 -0.0716 -1.0
vtan -0.3817 0.9215 -0.0712 -1.0
vtan -0.9144 0.3787 -0.1433 -1.0
vtan -0.8916 0.4172 -0.1759 -1.0
vtan 0.324 0.946 -0.0088 -1.0
vtan -0.0 1.0 -0.0 -1.0
vtan -0.0 1.0 -0.0 -1.0
vtan -0.3171 0.9483 -0.01 -1.0
vtan 0.0637 0.9978 0.017 -1.0
vtan -0.0 1.0 -0.0 -1.0
vtan 0.0 1.0 -0.0 -1.0
vtan 0.0 1.0 0.0 -1.0
vtan -0.0 1.0 0.0 -1.0
vtan 0.3171 0.9484 0.01 -1.0
vtan -0.3241 0.946 0.0089 -1.0
vtan 0.0094 0.958 -0.2864 -1.0
vtan 0.0103 0.9587 0.2843 -1.0
vtan -0.2865 0.9581 -0.008 -1.0
vtan 0.2792 0.9602 -0.0118 -1.0
vtan -0.0105 0.9433 0.3318 -1.0
vtan -0.0116 0.94 -0.3409 -1.0
f 0/0/0/0 1/1/1/1 2/2/2/2 
f 0/0/0/0 2/2/2/2 3/3/3/3 
f 4/4/4/4 5/5/5/5 2/2/2/2 
f 4/4/4/4 2/2/2/2 6/6/6/6 
f 2/2/2/2 5/5/5/5 3/3/3/3 
f 3/3/3/3 7/7/7/7 8/8/8/8 
f 3/3/3/3 8/8/8/8 9/9/9/9 
f 8/8/8/8 10/10/10/10 11/11/11/11 
f 8/8/8/8 11/11/11/11 12/12/12/12 
f 8/8/8/8 12/12/12/12 9/9/9/9 
f 9/9/9/9 13/13/13/13 14/14/14/14 
f 9/9/9/9 14/14/14/14 15/15/15/15 
f 16/16/16/16 17/17/17/17 14/14/14/14 
f 16/16/16/16 14/14/14/14 18/18/18/18 
f 14/14/14/14 17/17/17/17 15/15/15/15 
f 0/0/0/0 3/3/3/3 9/9/9/9 
f 0/0/0/0 9/9/9/9 15/15/15/15 
f 20/19/19/19 0/0/0/0 15/15/15/15 
f 20/19/19/19 15/15/15/15 19/20/20/20 
f 22/21/21/21 0/0/0/0 20/19/19/19 
f 22/21/21/21 20/19/19/19 21/22/22/22 
f 23/23/23/23 21/22/22/22 20/19/19/19 
f 24/24/24/24 25/25/25/25 26/26/26/26 
f 24/24/24/24 26/26/26/26 27/27/27/27 
f 28/28/28/28 29/29/29/29 26/26/26/26 
f 28/28/28/28 26/26/26/26 30/30/30/30 
f 26/26/26/26 29/29/29/29 27/27/27/27 
f 27/27/27/27 31/31/31/31 32/32/32/32 
f 27/27/27/27 32/32/32/32 33/33/33/33 
f 34/34/34/34 35/35/35/35 32/32/32/32 
f 34/34/34/34 32/32/32/32 36/36/36/36 
f 32/32/32/32 35/35/35/35 33/33/33/33 
f 33/33/33/33 37/37/37/37 38/38/38/38 
f 33/33/33/33 38/38/38/38 39/39/39/39 
f 40/40/40/28 41/41/41/40 38/38/38/38 
f 40/40/40/28 38/38/38/38 42/42/42/41 
f 38/38/38/38 41/41/41/40 39/39/39/39 
f 33/33/33/33 39/39/39/39 24/24/24/24 
f 33/33/33/33 24/24/24/24 27/27/27/27 
f 39/39/39/39 43/43/43/42 44/44/44/43 
f 39/39/39/39 44/44/44/43 24/24/24/24 
f 44/44/44/43 45/45/45/44 46/46/46/45 
f 44/44/44/43 46/46/46/45 24/24/24/24 
f 47/47/47/46 45/45/45/44 44/44/44/43 
f 48/48/48/47 49/49/49/48 50/50/50/49 
f 48/48/48/47 50/50/50/49 51/51/51/50 
f 52/52/52/51 53/53/53/52 54/54/54/53 
f 52/52/52/51 54/54/54/53 55/55/55/54 
f 56/56/56/55 57/57/57/56 58/58/58/57 
f 56/56/56/55 58/58/58/57 59/59/59/58 
f 60/60/60/59 61/61/61/60 62/62/62/61 
f 60/60/60/59 62/62/62/61 63/63/63/62 
f 64/64/64/63 65/65/65/64 66/66/66/65 
f 64/64/64/63 66/66/66/65 67/67/67/66 
f 68/68/68/67 69/69/69/68 57/57/57/56 
f 68/68/68/67 57/57/57/56 56/56/56/55 
f 70/70/70/69 68/68/68/67 56/56/56/55 
f 49/49/49/48 48/48/48/47 60/60/60/59 
f 49/49/49/48 60/60/60/59 63/63/63/62 
f 71/71/71/70 49/49/49/48 63/63/63/62 
f 64/64/64/63 72/72/72/71 73/73/73/72 
f 64/64/64/63 73/73/73/72 65/65/65/64 
f 53/53/53/52 52/52/52/51 58/58/58/57 
f 53/53/53/52 58/58/58/57 74/74/74/73 
f 59/59/59/58 58/58/58/57 52/52/52/51 
f 61/61/61/60 75/75/75/74 76/76/76/75 
f 61/61/61/60 76/76/76/75 62/62/62/61 
f 62/62/62/61 76/76/76/75 77/77/77/76 
f 67/67/67/66 66/66/66/65 78/78/78/77 
f 67/67/67/66 78/78/78/77 79/79/79/78 
f 3/80/3/79 5/81/5/80 80/82/80/81 
f 3/80/3/79 80/82/80/81 72/72/72/71 
f 0/83/0/82 22/84/21/83 81/85/81/84 
f 0/83/0/82 81/85/81/84 70/70/70/69 
f 39/86/39/85 41/87/41/86 82/88/82/87 
f 39/86/39/85 82/88/82/87 71/71/71/70 
f 33/89/33/88 35/90/35/89 83/91/83/90 
f 33/89/33/88 83/91/83/90 74/74/74/73 
f 60/60/60/59 20/92/19/91 19/93/20/92 
f 60/60/60/59 19/93/20/92 61/61/61/60 
f 59/59/59/58 2/94/2/93 1/95/1/94 
f 59/59/59/58 1/95/1/94 56/56/56/55 
f 67/67/67/66 8/96/8/95 7/97/7/96 
f 67/67/67/66 7/97/7/96 64/64/64/63 
f 62/62/62/61 44/98/44/97 43/99/43/98 
f 62/62/62/61 43/99/43/98 63/63/63/62 
f 57/57/57/56 38/100/38/99 37/101/37/100 
f 57/57/57/56 37/101/37/100 58/58/58/57 
f 65/65/65/64 32/102/32/101 31/103/31/102 
f 65/65/65/64 31/103/31/102 66/66/66/65 
f 48/48/48/47 23/104/23/103 20/92/19/91 
f 48/48/48/47 20/92/19/91 60/60/60/59 
f 0/83/0/82 70/70/70/69 56/56/56/55 
f 0/83/0/82 56/56/56/55 1/95/1/94 
f 64/64/64/63 7/97/7/96 3/80/3/79 
f 64/64/64/63 3/80/3/79 72/72/72/71 
f 63/63/63/62 43/99/43/98 39/86/39/85 
f 63/63/63/62 39/86/39/85 71/71/71/70 
f 58/58/58/57 37/101/37/100 33/89/33/88 
f 58/58/58/57 33/89/33/88 74/74/74/73 
f 66/66/66/65 31/103/31/102 27/105/27/104 
f 66/66/66/65 27/105/27/104 84/106/84/105 
f 61/61/61/60 19/93/20/92 15/107/15/106 
f 61/61/61/60 15/107/15/106 75/75/75/74 
f 52/52/52/51 6/108/6/107 2/94/2/93 
f 52/52/52/51 2/94/2/93 59/59/59/58 
f 79/79/79/78 10/109/10/108 8/96/8/95 
f 79/79/79/78 8/96/8/95 67/67/67/66 
f 77/77/77/76 47/110/47/109 44/98/44/97 
f 77/77/77/76 44/98/44/97 62/62/62/61 
f 69/69/69/68 42/111/42/110 38/100/38/99 
f 69/69/69/68 38/100/38/99 57/57/57/56 
f 85/112/85/111 36/113/36/112 32/102/32/101 
f 85/112/85/111 32/102/32/101 65/65/65/64 
f 79/48/79/113 78/49/78/77 86/114/86/114 
f 79/48/79/113 86/114/86/114 87/115/87/115 
f 88/52/88/116 89/53/89/77 90/116/90/117 
f 88/52/88/116 90/116/90/117 91/117/91/118 
f 92/56/92/119 93/57/93/120 94/58/94/121 
f 92/56/92/119 94/58/94/121 95/59/95/122 
f 96/68/96/72 97/69/97/123 93/57/93/120 
f 96/68/96/72 93/57/93/120 92/56/92/119 
f 98/70/98/124 96/68/96/72 92/56/92/119 
f 89/53/89/77 88/52/88/116 94/58/94/121 
f 89/53/89/77 94/58/94/121 99/74/99/125 
f 95/59/95/122 94/58/94/121 88/52/88/116 
f 15/80/15/126 17/118/17/127 100/119/100/128 
f 15/80/15/126 100/119/100/128 75/72/75/129 
f 9/83/9/130 12/120/12/131 101/121/101/132 
f 9/83/9/130 101/121/101/132 98/70/98/124 
f 27/86/27/133 29/122/29/134 102/123/102/135 
f 27/86/27/133 102/123/102/135 84/71/84/136 
f 24/89/24/137 46/124/46/138 103/125/103/139 
f 24/89/24/137 103/125/103/139 99/74/99/125 
f 95/59/95/122 14/94/14/140 13/95/13/141 
f 95/59/95/122 13/95/13/141 92/56/92/119 
f 93/57/93/120 26/100/26/142 25/101/25/143 
f 93/57/93/120 25/101/25/143 94/58/94/121 
f 92/56/92/119 13/95/13/141 9/83/9/130 
f 92/56/92/119 9/83/9/130 98/70/98/124 
f 94/58/94/121 25/101/25/143 24/89/24/137 
f 94/58/94/121 24/89/24/137 99/74/99/125 
f 88/52/88/116 18/108/18/144 14/94/14/140 
f 88/52/88/116 14/94/14/140 95/59/95/122 
f 97/69/97/123 30/111/30/145 26/100/26/142 
f 97/69/97/123 26/100/26/142 93/57/93/120 
f 68/68/68/67 104/126/104/146 69/69/69/68 
f 73/73/73/72 105/127/105/147 106/128/106/148 
f 73/73/73/72 106/128/106/148 85/112/85/111 
f 96/68/96/72 107/129/107/149 97/69/97/123 
f 76/73/76/150 108/130/108/151 77/112/77/152 
f 109/131/109/153 51/51/51/50 110/132/110/154 
f 109/131/109/153 21/133/22/155 23/104/23/103 
f 109/131/109/153 23/104/23/103 48/48/48/47 
f 41/87/41/86 40/134/40/156 111/135/111/157 
f 41/87/41/86 111/135/111/157 82/88/82/87 
f 82/88/82/87 112/136/112/158 71/71/71/70 
f 112/136/112/158 50/50/50/49 49/49/49/48 
f 22/84/21/83 21/133/22/155 109/131/109/153 
f 22/84/21/83 109/131/109/153 81/85/81/84 
f 111/135/111/157 104/126/104/146 113/137/113/159 
f 113/137/113/159 104/126/104/146 114/138/114/160 
f 113/137/113/159 114/138/114/160 115/139/115/161 
f 81/85/81/84 116/140/116/162 70/70/70/69 
f 111/135/111/157 40/134/40/156 42/111/42/110 
f 111/135/111/157 42/111/42/110 69/69/69/68 
f 80/82/80/81 117/141/117/163 72/72/72/71 
f 5/81/5/80 4/142/4/164 118/143/118/165 
f 5/81/5/80 118/143/118/165 80/82/80/81 
f 106/128/106/148 34/144/34/166 36/113/36/112 
f 106/128/106/148 36/113/36/112 85/112/85/111 
f 106/128/106/148 105/127/105/147 119/145/119/167 
f 119/145/119/167 105/127/105/147 120/146/120/168 
f 119/145/119/167 120/146/120/168 121/147/121/169 
f 118/143/118/165 55/55/55/54 122/148/122/170 
f 35/90/35/89 34/144/34/166 106/128/106/148 
f 35/90/35/89 106/128/106/148 83/91/83/90 
f 118/143/118/165 4/142/4/164 6/108/6/107 
f 118/143/118/165 6/108/6/107 52/52/52/51 
f 83/91/83/90 123/149/123/171 74/74/74/73 
f 123/149/123/171 54/54/54/53 53/53/53/52 
f 101/121/101/132 124/150/124/172 98/70/98/124 
f 12/120/12/131 11/151/11/173 125/152/125/174 
f 12/120/12/131 125/152/125/174 101/121/101/132 
f 126/153/126/175 28/154/28/176 30/111/30/145 
f 126/153/126/175 30/111/30/145 97/69/97/123 
f 126/153/126/175 107/129/107/149 127/155/127/177 
f 127/155/127/177 107/129/107/149 128/156/128/178 
f 127/155/127/177 128/156/128/178 129/157/129/179 
f 125/152/125/174 87/115/87/115 130/158/130/180 
f 29/122/29/134 28/154/28/176 126/153/126/175 
f 29/122/29/134 126/153/126/175 102/123/102/135 
f 125/152/125/174 11/151/11/173 10/104/10/181 
f 125/152/125/174 10/104/10/181 79/48/79/113 
f 102/123/102/135 131/159/131/182 78/49/78/77 
f 102/123/102/135 78/49/78/77 84/71/84/136 
f 131/159/131/182 86/114/86/114 78/49/78/77 
f 100/119/100/128 132/160/132/183 75/72/75/129 
f 17/118/17/127 16/161/16/184 133/162/133/185 
f 17/118/17/127 133/162/133/185 100/119/100/128 
f 134/163/134/186 45/164/45/187 47/113/47/188 
f 134/163/134/186 47/113/47/188 77/112/77/152 
f 134/163/134/186 108/130/108/151 135/165/135/189 
f 135/165/135/189 108/130/108/151 136/166/136/190 
f 135/165/135/189 136/166/136/190 137/167/137/191 
f 133/162/133/185 91/117/91/118 138/168/138/192 
f 46/124/46/138 45/164/45/187 134/163/134/186 
f 46/124/46/138 134/163/134/186 103/125/103/139 
f 133/162/133/185 16/161/16/184 18/108/18/144 
f 133/162/133/185 18/108/18/144 88/52/88/116 
f 103/125/103/139 139/169/139/193 99/74/99/125 
f 139/169/139/193 90/116/90/117 89/53/89/77 
f 50/50/50/49 140/170/140/194 110/132/110/154 
f 50/50/50/49 110/132/110/154 51/51/51/50 
f 54/54/54/53 141/171/141/195 122/148/122/170 
f 54/54/54/53 122/148/122/170 55/55/55/54 
f 86/114/86/114 142/172/142/196 130/158/130/180 
f 86/114/86/114 130/158/130/180 87/115/87/115 
f 90/116/90/117 143/173/143/197 138/168/138/192 
f 90/116/90/117 138/168/138/192 91/117/91/118 
f 135/165/135/189 137/167/137/191 143/173/143/197 
f 135/165/135/189 143/173/143/197 144/174/144/198 
f 145/175/145/199 137/167/137/191 136/166/136/190 
f 145/175/145/199 136/166/136/190 132/160/132/183 
f 138/168/138/192 143/173/143/197 137/167/137/191 
f 138/168/138/192 137/167/137/191 145/175/145/199 
f 144/174/144/198 143/173/143/197 90/116/90/117 
f 144/174/144/198 90/116/90/117 139/169/139/193 
f 127/155/127/177 129/157/129/179 142/172/142/196 
f 127/155/127/177 142/172/142/196 146/176/146/200 
f 147/177/147/201 129/157/129/179 128/156/128/178 
f 147/177/147/201 128/156/128/178 124/150/124/172 
f 130/158/130/180 142/172/142/196 129/157/129/179 
f 130/158/130/180 129/157/129/179 147/177/147/201 
f 146/176/146/200 142/172/142/196 86/114/86/114 
f 146/176/146/200 86/114/86/114 131/159/131/182 
f 119/145/119/167 121/147/121/169 141/171/141/195 
f 119/145/119/167 141/171/141/195 148/178/148/202 
f 149/179/149/203 121/147/121/169 120/146/120/168 
f 149/179/149/203 120/146/120/168 117/141/117/163 
f 122/148/122/170 141/171/141/195 121/147/121/169 
f 122/148/122/170 121/147/121/169 149/179/149/203 
f 148/178/148/202 141/171/141/195 54/54/54/53 
f 148/178/148/202 54/54/54/53 123/149/123/171 
f 113/137/113/159 115/139/115/161 140/170/140/194 
f 113/137/113/159 140/170/140/194 150/180/150/204 
f 151/181/151/205 115/139/115/161 114/138/114/160 
f 151/181/151/205 114/138/114/160 116/140/116/162 
f 110/132/110/154 140/170/140/194 115/139/115/161 
f 110/132/110/154 115/139/115/161 151/181/151/205 
f 150/180/150/204 140/170/140/194 50/50/50/49 
f 150/180/150/204 50/50/50/49 112/136/112/158 
f 68/68/68/67 114/138/114/160 104/126/104/146 
f 83/91/83/90 148/178/148/202 123/149/123/171 
f 118/143/118/165 122/148/122/170 149/179/149/203 
f 118/143/118/165 149/179/149/203 80/82/80/81 
f 111/135/111/157 113/137/113/159 150/180/150/204 
f 111/135/111/157 150/180/150/204 82/88/82/87 
f 81/85/81/84 151/181/151/205 116/140/116/162 
f 106/128/106/148 119/145/119/167 148/178/148/202 
f 106/128/106/148 148/178/148/202 83/91/83/90 
f 80/82/80/81 149/179/149/203 117/141/117/163 
f 73/73/73/72 120/146/120/168 105/127/105/147 
f 125/152/125/174 130/158/130/180 147/177/147/201 
f 125/152/125/174 147/177/147/201 101/121/101/132 
f 102/123/102/135 146/176/146/200 131/159/131/182 
f 126/153/126/175 127/155/127/177 146/176/146/200 
f 126/153/126/175 146/176/146/200 102/123/102/135 
f 96/68/96/72 128/156/128/178 107/129/107/149 
f 133/162/133/185 138/168/138/192 145/175/145/199 
f 133/162/133/185 145/175/145/199 100/119/100/128 
f 103/125/103/139 144/174/144/198 139/169/139/193 
f 101/121/101/132 147/177/147/201 124/150/124/172 
f 76/73/76/150 136/166/136/190 108/130/108/151 
f 82/88/82/87 150/180/150/204 112/136/112/158 
f 109/131/109/153 110/132/110/154 151/181/151/205 
f 109/131/109/153 151/181/151/205 81/85/81/84 
f 100/119/100/128 145/175/145/199 132/160/132/183 
f 134/163/134/186 135/165/135/189 144/174/144/198 
f 134/163/134/186 144/174/144/198 103/125/103/139 
f 52/52/52/51 55/55/55/54 118/143/118/165 
f 74/74/74/73 123/149/123/171 53/53/53/52 
f 69/69/69/68 104/126/104/146 111/135/111/157 
f 70/70/70/69 116/140/116/162 114/138/114/160 
f 70/70/70/69 114/138/114/160 68/68/68/67 
f 65/65/65/64 73/73/73/72 85/112/85/111 
f 78/78/78/77 66/66/66/65 84/106/84/105 
f 79/48/79/113 87/115/87/115 125/152/125/174 
f 72/72/72/71 117/141/117/163 120/146/120/168 
f 72/72/72/71 120/146/120/168 73/73/73/72 
f 99/74/99/125 139/169/139/193 89/53/89/77 
f 98/70/98/124 124/150/124/172 128/156/128/178 
f 98/70/98/124 128/156/128/178 96/68/96/72 
f 88/52/88/116 91/117/91/118 133/162/133/185 
f 97/69/97/123 107/129/107/149 126/153/126/175 
f 77/112/77/152 108/130/108/151 134/163/134/186 
f 71/71/71/70 112/136/112/158 49/49/49/48 
f 48/48/48/47 51/51/51/50 109/131/109/153 
f 75/72/75/129 132/160/132/183 136/166/136/190 
f 75/72/75/129 136/166/136/190 76/73/76/150 
