v -225.0867 664.2318 569.3783
v -224.4549 670.6962 568.5564
v -224.4549 670.6962 575.4881
v -225.0867 664.2318 575.4881
v -271.5764 670.6962 567.8701
v -225.0135 670.6962 567.8701
v -225.6827 664.2318 568.6463
v -270.9075 664.2318 568.6463
v -276.4114 686.5964 561.9177
v -276.3826 690.9595 561.9177
v -220.2073 690.9595 561.9177
v -220.1788 686.5964 561.9177
v -276.9814 686.5964 575.4881
v -276.9814 690.9595 575.4881
v -276.9814 690.9595 562.6531
v -276.9814 686.5964 562.6179
v -225.5504 660.3631 569.9615
v -223.7623 662.2974 567.8378
v -223.7623 662.2974 575.4881
v -225.5504 660.3631 575.4881
v -272.1616 662.2974 567.0197
v -224.4283 662.2974 567.0197
v -226.1575 660.3631 569.2157
v -270.4326 660.3631 569.2157
v -219.6089 690.9595 562.6531
v -217.9434 693.1411 560.6855
v -217.9434 693.141 575.4881
v -219.6089 690.9595 575.4881
v -277.9844 693.1411 559.8723
v -218.6055 693.1411 559.8723
v -219.6089 695.3226 562.7309
v -219.6089 695.3226 575.4881
v -276.3193 695.3226 561.9177
v -220.2706 695.3226 561.9177
v -222.3148 679.6952 565.9556
v -219.6089 686.5964 562.6179
v -219.6089 686.5964 575.4881
v -222.3148 679.6952 575.4881
v -222.8961 679.6952 565.2417
v -273.6941 679.6952 565.2417
v -271.5032 664.2318 569.3783
v -272.1355 670.6962 568.5564
v -272.8276 662.2974 567.8378
v -271.0398 660.3631 569.9615
v -278.6465 693.1411 560.6855
v -276.9814 695.3226 562.7309
v -274.2751 679.6952 565.9556
v -276.9814 695.3226 575.4881
v -272.1355 670.6962 575.4881
v -271.5032 664.2318 575.4881
v -272.8276 662.2974 575.4881
v -271.04 660.3631 575.4881
v -278.6465 693.141 575.4881
v -274.2751 679.6952 575.4881
gi 0 0 0 0
gi 0 0 0 0
gi 0 0 0 0
gi 0 0 0 0
gi 0 0 0 0
gi 0 0 0 0
gi 0 0 0 0
gi 0 0 0 0
gi 0 0 0 0
gi 0 0 0 0
gi 0 0 0 0
gi 0 0 0 0
gi 0 0 0 0
gi 0 0 0 0
gi 0 0 0 0
gi 0 0 0 0
gi 0 0 0 0
gi 0 0 0 0
gi 0 0 0 0
gi 0 0 0 0
gi 0 0 0 0
gi 0 0 0 0
gi 0 0 0 0
gi 0 0 0 0
gi 0 0 0 0
gi 0 0 0 0
gi 0 0 0 0
gi 0 0 0 0
gi 0 0 0 0
gi 0 0 0 0
gi 0 0 0 0
gi 0 0 0 0
gi 0 0 0 0
gi 0 0 0 0
gi 0 0 0 0
gi 0 0 0 0
gi 0 0 0 0
gi 0 0 0 0
gi 0 0 0 0
gi 0 0 0 0
gi 0 0 0 0
gi 0 0 0 0
gi 0 0 0 0
gi 0 0 0 0
gi 0 0 0 0
gi 0 0 0 0
gi 0 0 0 0
gi 0 0 0 0
gi 0 0 0 0
gi 0 0 0 0
gi 0 0 0 0
gi 0 0 0 0
gi 0 0 0 0
gi 0 0 0 0
gw 0.0 0.0 0.0 0.0
gw 0.0 0.0 0.0 0.0
gw 0.0 0.0 0.0 0.0
gw 0.0 0.0 0.0 0.0
gw 0.0 0.0 0.0 0.0
gw 0.0 0.0 0.0 0.0
gw 0.0 0.0 0.0 0.0
gw 0.0 0.0 0.0 0.0
gw 0.0 0.0 0.0 0.0
gw 0.0 0.0 0.0 0.0
gw 0.0 0.0 0.0 0.0
gw 0.0 0.0 0.0 0.0
gw 0.0 0.0 0.0 0.0
gw 0.0 0.0 0.0 0.0
gw 0.0 0.0 0.0 0.0
gw 0.0 0.0 0.0 0.0
gw 0.0 0.0 0.0 0.0
gw 0.0 0.0 0.0 0.0
gw 0.0 0.0 0.0 0.0
gw 0.0 0.0 0.0 0.0
gw 0.0 0.0 0.0 0.0
gw 0.0 0.0 0.0 0.0
gw 0.0 0.0 0.0 0.0
gw 0.0 0.0 0.0 0.0
gw 0.0 0.0 0.0 0.0
gw 0.0 0.0 0.0 0.0
gw 0.0 0.0 0.0 0.0
gw 0.0 0.0 0.0 0.0
gw 0.0 0.0 0.0 0.0
gw 0.0 0.0 0.0 0.0
gw 0.0 0.0 0.0 0.0
gw 0.0 0.0 0.0 0.0
gw 0.0 0.0 0.0 0.0
gw 0.0 0.0 0.0 0.0
gw 0.0 0.0 0.0 0.0
gw 0.0 0.0 0.0 0.0
gw 0.0 0.0 0.0 0.0
gw 0.0 0.0 0.0 0.0
gw 0.0 0.0 0.0 0.0
gw 0.0 0.0 0.0 0.0
gw 0.0 0.0 0.0 0.0
gw 0.0 0.0 0.0 0.0
gw 0.0 0.0 0.0 0.0
gw 0.0 0.0 0.0 0.0
gw 0.0 0.0 0.0 0.0
gw 0.0 0.0 0.0 0.0
gw 0.0 0.0 0.0 0.0
gw 0.0 0.0 0.0 0.0
gw 0.0 0.0 0.0 0.0
gw 0.0 0.0 0.0 0.0
gw 0.0 0.0 0.0 0.0
gw 0.0 0.0 0.0 0.0
gw 0.0 0.0 0.0 0.0
gw 0.0 0.0 0.0 0.0
vt 0.2773 0.6742
vt 0.2773 0.6911
vt 0.4476 0.6911
vt 0.4476 0.6742
vt 0.4453 0.6933
vt 0.2795 0.6933
vt 0.5504 0.8881
vt 0.5526 0.9084
vt 0.5337 0.9084
vt 0.5337 0.8881
vt 0.7614 0.91
vt 0.6053 0.91
vt 0.6076 0.8897
vt 0.7592 0.8897
vt 0.7776 0.96
vt 0.7775 0.9737
vt 0.5892 0.9737
vt 0.5891 0.96
vt 0.8287 0.9596
vt 0.8287 0.9733
vt 0.7937 0.9733
vt 0.7936 0.9596
vt 0.9865 0.7672
vt 0.9959 0.7791
vt 0.9632 0.7791
vt 0.9619 0.7672
vt 0.2524 0.779
vt 0.0111 0.779
vt 0.0112 0.7672
vt 0.2525 0.7672
vt 0.5337 0.882
vt 0.5546 0.882
vt 0.6034 0.8836
vt 0.7634 0.8836
vt 0.5687 0.9721
vt 0.5741 0.979
vt 0.5337 0.979
vt 0.5337 0.9721
vt 0.7829 0.9806
vt 0.5839 0.9806
vt 0.5685 0.9859
vt 0.5337 0.9859
vt 0.7773 0.9875
vt 0.5894 0.9875
vt 0.5597 0.9367
vt 0.5688 0.9584
vt 0.5337 0.9584
vt 0.5337 0.9367
vt 0.5982 0.9383
vt 0.7685 0.9383
vt 0.6028 0.9094
vt 0.605 0.8907
vt 0.8095 0.8902
vt 0.8121 0.8892
vt 0.8098 0.9096
vt 0.8073 0.909
vt 0.5867 0.9726
vt 0.5865 0.9593
vt 0.7912 0.9721
vt 0.791 0.9589
vt 0.6007 0.8862
vt 0.8052 0.8857
vt 0.8079 0.8832
vt 0.0078 0.7789
vt 0.0079 0.7672
vt 0.2559 0.779
vt 0.2558 0.7672
vt 0.5815 0.9806
vt 0.7884 0.9801
vt 0.786 0.9801
vt 0.5871 0.99
vt 0.7939 0.987
vt 0.7916 0.9896
vt 0.5957 0.9372
vt 0.8002 0.9367
vt 0.8027 0.9379
vt 0.0091 0.8976
vt 0.0091 0.876
vt 0.0109 0.8746
vt 0.1674 0.876
vt 0.1655 0.8746
vt 0.1674 0.8976
vt 0.8287 0.9096
vt 0.8287 0.8892
vt 0.2874 0.779
vt 0.2803 0.7672
vt 0.8287 0.8832
vt 0.8287 0.9801
vt 0.8287 0.987
vt 0.8287 0.9379
vn 0.0 -1.0 0.0
vn 0.0 -1.0 -0.0001
vn 0.0 -1.0 0.0
vn 0.9118 0.3115 -0.2677
vn 0.9232 -0.2213 -0.3143
vn 0.9863 -0.1647 0.0
vn 0.9685 0.2488 0.0
vn -0.4077 -0.254 -0.8771
vn 0.4079 -0.254 -0.877
vn 0.3713 0.3626 -0.8548
vn -0.3714 0.3626 -0.8547
vn -0.4271 -0.251 -0.8687
vn -0.3556 -0.4619 -0.8125
vn 0.3557 -0.462 -0.8124
vn 0.4272 -0.251 -0.8686
vn -0.9826 -0.1858 0.0
vn -0.9473 -0.3202 0.0
vn -0.8773 -0.4014 -0.2631
vn -0.9078 -0.2349 -0.3475
vn 0.405 -0.9097 -0.0917
vn 0.9149 -0.0672 -0.3981
vn 0.9973 -0.0728 0.0
vn 0.4009 -0.9161 -0.0
vn -0.4598 -0.0629 -0.8858
vn 0.4598 -0.0629 -0.8858
vn 0.1381 -0.9239 -0.3568
vn -0.1381 -0.9239 -0.3568
vn 0.8773 -0.4014 -0.263
vn 0.9163 0.0033 -0.4004
vn 1.0 -0.0 -0.0
vn 0.9473 -0.3203 0.0
vn -0.4624 0.0025 -0.8866
vn 0.4624 0.0025 -0.8867
vn 0.4484 0.8877 -0.1047
vn 0.4434 0.8963 0.0
vn -0.1562 0.9026 -0.4012
vn 0.1563 0.9026 -0.4011
vn 0.8737 -0.3895 -0.2914
vn 0.9078 -0.2349 -0.3474
vn 0.9826 -0.1858 0.0
vn 0.9543 -0.2989 0.0
vn 0.3736 -0.4407 -0.8162
vn -0.3737 -0.4407 -0.8162
vn -0.9118 0.3115 -0.2676
vn -0.9231 -0.2213 -0.3145
vn -0.9149 -0.0672 -0.3981
vn -0.405 -0.9097 -0.0916
vn -0.9163 0.0033 -0.4004
vn -0.4484 0.8876 -0.1048
vn -0.8738 -0.3895 -0.2913
vn -0.4434 0.8963 0.0
vn -0.9863 -0.1647 0.0
vn -0.9686 0.2488 0.0
vn -0.9973 -0.0728 -0.0
vn -0.401 -0.9161 -0.0
vn -1.0 -0.0 -0.0
vn -0.9543 -0.2989 0.0
vtan 1.0 0.0 0.0
vtan -0.2533 -0.0865 -0.9635
vtan -0.3057 0.0733 -0.9493
vtan 0.0 0.0 -1.0
vtan -0.9131 0.1134 0.3916
vtan -0.913 -0.1188 -0.3903
vtan -0.9265 0.205 -0.3155
vtan -0.9285 -0.145 0.3419
vtan -0.9042 0.1186 0.4103
vtan -0.9346 0.1757 0.3091
vtan -0.9342 -0.1514 -0.3229
vtan -0.9039 -0.144 -0.4029
vtan 0.0 0.0 1.0
vtan -0.2125 -0.1666 0.9628
vtan -0.3211 -0.1438 0.9361
vtan -0.0373 0.0838 -0.9958
vtan -0.397 0.0292 -0.9173
vtan -0.0 0.0 -1.0
vtan -0.8875 -0.0021 0.4609
vtan -0.8877 -0.0086 -0.4603
vtan -0.9225 0.0111 -0.3857
vtan -0.9218 -0.0118 0.3875
vtan -0.8293 0.3261 -0.4537
vtan -0.888 0.0326 0.4587
vtan -0.2391 0.1094 -0.9648
vtan -0.4004 -0.0014 -0.9163
vtan -0.0 0.0 -1.0
vtan -0.8866 -0.0013 0.4624
vtan -0.8867 -0.0001 -0.4624
vtan -0.0472 -0.0935 -0.9945
vtan 0.0 0.0 -1.0
vtan -0.9877 -0.1427 0.0634
vtan -0.9858 0.1172 -0.1202
vtan -0.2661 0.1186 -0.9566
vtan -0.3364 0.087 -0.9377
vtan -0.9275 -0.19 -0.3219
vtan -0.9276 0.1775 0.3288
vtan -0.3692 -0.2826 -0.8853
vtan -0.4026 0.5486 -0.7328
vtan -0.6672 0.536 0.5173
vtan -0.234 0.1414 0.9619
vtan -0.2993 -0.0999 0.9489
vtan -0.8045 -0.3543 0.4766
vtan -0.4488 -0.4923 -0.7458
vtan -0.4114 -0.3385 -0.8463
vtan -0.6288 -0.525 0.5736
vtan -0.7894 -0.365 0.4936
vtan -0.2304 0.7228 -0.6515
vtan -0.5709 0.7849 0.2407
vtan -0.3981 0.3135 0.8621
vtan -0.4008 -0.0333 -0.9155
vtan -0.5663 -0.1708 -0.8063
vtan -0.3992 0.0031 0.9169
vtan -0.2536 0.0155 0.9672
vtan -0.4003 0.0329 -0.9158
vtan -0.4004 0.0128 0.9163
vtan -0.8866 0.0011 0.4625
vtan -0.8828 0.4216 -0.2071
vtan 0.0233 0.1288 0.9914
vtan -0.132 0.3834 0.9141
vtan -0.4662 -0.4998 -0.7299
vtan -0.6067 -0.5494 0.5744
vtan -0.2341 -0.1881 0.9538
vtan -0.8963 0.4434 0.0004
vtan -0.8936 0.4479 -0.0297
vtan -0.9877 0.1449 -0.0588
vtan -0.8938 -0.4453 0.0525
vtan -0.9877 -0.1427 0.0634
vtan -0.8963 -0.4434 0.0
vtan -0.0 0.0 1.0
vtan -0.0001 -0.0 1.0
vtan -0.0 -0.0 1.0
vtan -0.0 -0.0 1.0
f 51/0/0/0 43/1/0/0 16/2/0/0 
f 51/0/0/0 16/2/0/0 19/3/0/0 
f 22/4/1/0 16/2/1/0 43/1/1/0 
f 22/4/2/0 43/1/2/0 23/5/2/0 
f 0/6/3/1 1/7/4/2 2/8/5/3 
f 0/6/3/1 2/8/5/3 3/9/6/3 
f 4/10/7/4 5/11/8/5 6/12/9/6 
f 4/10/7/4 6/12/9/6 7/13/10/7 
f 8/14/11/8 9/15/12/9 10/16/13/10 
f 8/14/11/8 10/16/13/10 11/17/14/11 
f 12/18/15/12 13/19/16/12 14/20/17/13 
f 12/18/15/12 14/20/17/13 15/21/18/14 
f 16/22/19/15 17/23/20/16 18/24/21/3 
f 16/22/19/15 18/24/21/3 19/25/22/17 
f 20/26/23/18 21/27/24/19 22/28/25/20 
f 20/26/23/18 22/28/25/20 23/29/26/21 
f 0/6/3/1 3/9/6/3 18/30/21/3 
f 0/6/3/1 18/30/21/3 17/31/20/16 
f 7/13/10/7 6/12/9/6 21/32/24/22 
f 7/13/10/7 21/32/24/22 20/33/23/23 
f 24/34/27/24 25/35/28/25 26/36/29/26 
f 24/34/27/24 26/36/29/26 27/37/30/3 
f 28/38/31/27 29/39/32/28 10/16/13/10 
f 28/38/31/27 10/16/13/10 9/15/12/9 
f 30/40/33/29 31/41/34/30 26/36/29/26 
f 30/40/33/29 26/36/29/26 25/35/28/25 
f 32/42/35/31 33/43/36/32 29/39/32/28 
f 32/42/35/31 29/39/32/28 28/38/31/27 
f 34/44/37/33 35/45/38/34 36/46/39/3 
f 34/44/37/33 36/46/39/3 37/47/40/3 
f 8/14/11/8 11/17/14/11 38/48/41/35 
f 8/14/11/8 38/48/41/35 39/49/42/36 
f 1/7/4/2 34/44/37/33 37/47/40/3 
f 1/7/4/2 37/47/40/3 2/8/5/3 
f 39/49/42/36 38/48/41/35 5/11/8/5 
f 39/49/42/36 5/11/8/5 4/10/7/4 
f 1/50/4/37 0/51/3/38 6/12/9/6 
f 1/50/4/37 6/12/9/6 5/11/8/5 
f 7/52/10/39 40/53/43/40 41/54/44/41 
f 7/52/10/39 41/54/44/41 4/55/7/42 
f 11/17/14/11 10/16/13/10 24/56/27/43 
f 11/17/14/11 24/56/27/43 35/57/38/44 
f 15/21/18/14 14/20/17/13 9/58/12/45 
f 15/21/18/14 9/58/12/45 8/59/11/46 
f 6/12/9/6 0/51/3/38 17/60/20/47 
f 6/12/9/6 17/60/20/47 21/32/24/22 
f 7/52/10/39 20/61/23/48 42/62/45/49 
f 7/52/10/39 42/62/45/49 40/53/43/40 
f 17/63/20/50 16/64/19/51 22/28/25/20 
f 17/63/20/50 22/28/25/20 21/27/24/19 
f 42/65/45/52 20/26/23/18 23/29/26/21 
f 42/65/45/52 23/29/26/21 43/66/46/53 
f 10/16/13/10 29/39/32/28 25/67/28/54 
f 10/16/13/10 25/67/28/54 24/56/27/43 
f 9/58/12/45 14/20/17/13 44/68/47/55 
f 9/58/12/45 44/68/47/55 28/69/31/56 
f 25/67/28/54 29/39/32/28 33/43/36/32 
f 25/67/28/54 33/43/36/32 30/70/33/57 
f 44/68/47/55 45/71/48/58 32/72/35/59 
f 44/68/47/55 32/72/35/59 28/69/31/56 
f 38/48/41/35 11/17/14/11 35/57/38/44 
f 38/48/41/35 35/57/38/44 34/73/37/60 
f 39/74/42/61 46/75/49/62 15/21/18/14 
f 39/74/42/61 15/21/18/14 8/59/11/46 
f 5/11/8/5 38/48/41/35 34/73/37/60 
f 5/11/8/5 34/73/37/60 1/50/4/37 
f 4/55/7/42 41/54/44/41 46/75/49/62 
f 4/55/7/42 46/75/49/62 39/74/42/61 
f 31/76/34/63 30/77/33/64 33/78/36/65 
f 31/76/34/63 33/78/36/65 45/79/48/66 
f 33/78/36/65 32/80/35/67 45/79/48/66 
f 47/81/50/68 31/76/34/63 45/79/48/66 
f 48/82/51/12 41/54/44/41 40/53/43/40 
f 48/82/51/12 40/53/43/40 49/83/52/12 
f 36/46/39/3 35/45/38/34 24/34/27/24 
f 36/46/39/3 24/34/27/24 27/37/30/3 
f 50/84/53/69 42/65/45/52 43/66/46/53 
f 50/84/53/69 43/66/46/53 51/85/54/70 
f 50/86/53/71 49/83/52/12 40/53/43/40 
f 50/86/53/71 40/53/43/40 42/62/45/49 
f 52/87/55/72 44/68/47/55 14/20/17/13 
f 52/87/55/72 14/20/17/13 13/19/16/12 
f 52/87/55/72 47/88/50/12 45/71/48/58 
f 52/87/55/72 45/71/48/58 44/68/47/55 
f 12/18/15/12 15/21/18/14 46/75/49/62 
f 12/18/15/12 46/75/49/62 53/89/56/12 
f 53/89/56/12 46/75/49/62 41/54/44/41 
f 53/89/56/12 41/54/44/41 48/82/51/12 
