v -787.7843 927.3633 -247.1001
v -787.7844 990.7952 -247.1
v -787.7844 990.7952 -274.7776
v -787.7843 927.3633 -274.7776
v -759.728 927.3633 -241.3098
v -759.728 1014.4712 -241.3098
v -762.8389 1011.3603 -241.3098
v -762.8389 927.3633 -241.3098
v -759.728 1014.4712 -274.7776
v -759.728 927.3633 -274.7776
v -767.5886 927.3633 -247.1001
v -767.5886 1006.6105 -247.1
v -806.3059 1006.6105 -247.1
v -806.3059 990.7953 -247.1
v -806.3059 1011.3603 -241.3098
v -806.3059 990.7953 -274.7776
v -806.3059 1014.4711 -241.3098
v -806.3059 1014.4711 -274.7776
v -824.8276 990.7952 -274.7776
v -824.8275 990.7952 -247.1
v -824.8276 927.3633 -247.1001
v -824.8276 927.3633 -274.7776
v -846.9467 1011.3603 -241.3098
v -850.0575 1014.4712 -241.3098
v -850.0574 927.3633 -241.3098
v -846.9465 927.3633 -241.3098
v -850.0575 1014.4712 -274.7776
v -850.0574 927.3633 -274.7776
v -842.1969 1006.6105 -247.1
v -842.1969 927.3633 -247.1001
gi 0 0 0 0
gi 0 0 0 0
gi 0 0 0 0
gi 0 0 0 0
gi 0 0 0 0
gi 0 0 0 0
gi 0 0 0 0
gi 0 0 0 0
gi 0 0 0 0
gi 0 0 0 0
gi 0 0 0 0
gi 0 0 0 0
gi 0 0 0 0
gi 0 0 0 0
gi 0 0 0 0
gi 0 0 0 0
gi 0 0 0 0
gi 0 0 0 0
gi 0 0 0 0
gi 0 0 0 0
gi 0 0 0 0
gi 0 0 0 0
gi 0 0 0 0
gi 0 0 0 0
gi 0 0 0 0
gi 0 0 0 0
gi 0 0 0 0
gi 0 0 0 0
gi 0 0 0 0
gi 0 0 0 0
gw 0.0 0.0 0.0 0.0
gw 0.0 0.0 0.0 0.0
gw 0.0 0.0 0.0 0.0
gw 0.0 0.0 0.0 0.0
gw 0.0 0.0 0.0 0.0
gw 0.0 0.0 0.0 0.0
gw 0.0 0.0 0.0 0.0
gw 0.0 0.0 0.0 0.0
gw 0.0 0.0 0.0 0.0
gw 0.0 0.0 0.0 0.0
gw 0.0 0.0 0.0 0.0
gw 0.0 0.0 0.0 0.0
gw 0.0 0.0 0.0 0.0
gw 0.0 0.0 0.0 0.0
gw 0.0 0.0 0.0 0.0
gw 0.0 0.0 0.0 0.0
gw 0.0 0.0 0.0 0.0
gw 0.0 0.0 0.0 0.0
gw 0.0 0.0 0.0 0.0
gw 0.0 0.0 0.0 0.0
gw 0.0 0.0 0.0 0.0
gw 0.0 0.0 0.0 0.0
gw 0.0 0.0 0.0 0.0
gw 0.0 0.0 0.0 0.0
gw 0.0 0.0 0.0 0.0
gw 0.0 0.0 0.0 0.0
gw 0.0 0.0 0.0 0.0
gw 0.0 0.0 0.0 0.0
gw 0.0 0.0 0.0 0.0
gw 0.0 0.0 0.0 0.0
vt 0.9965 0.1543
vt 0.7878 0.1543
vt 0.7878 0.0638
vt 0.9965 0.0638
vt 0.9965 0.2169
vt 0.7282 0.2169
vt 0.7384 0.2067
vt 0.9965 0.2067
vt 0.7282 0.3263
vt 0.9965 0.3263
vt 0.9965 0.1878
vt 0.7541 0.1878
vt 0.8487 0.1878
vt 0.8487 0.1543
vt 0.8487 0.2067
vt 0.8487 0.0638
vt 0.8487 0.2169
vt 0.8487 0.3263
vn -0.7071 -0.0 0.7071
vn -0.3015 -0.3015 0.9045
vn -0.7071 -0.7071 0.0
vn -1.0 -0.0 0.0
vn 0.7071 -0.0 0.7071
vn 0.5773 0.5774 0.5774
vn -0.1277 -0.1277 0.9836
vn -0.4277 -0.0 0.9039
vn 0.7071 0.7071 0.0
vn 1.0 0.0 0.0
vn -0.4277 -0.0 0.9039
vn -0.3387 -0.3387 0.8778
vn 0.0 -0.4276 0.9039
vn -0.0 -0.7071 0.7071
vn 0.0 -0.4276 0.9039
vn -0.0 -1.0 0.0
vn 0.0 0.7071 0.7071
vn 0.0 1.0 0.0
vn 0.7071 -0.7071 -0.0
vn 0.3015 -0.3015 0.9045
vn 0.7071 -0.0 0.7071
vn 0.1277 -0.1277 0.9836
vn -0.5773 0.5774 0.5774
vn -0.7071 -0.0 0.7071
vn 0.4277 -0.0 0.9039
vn -0.7071 0.7071 0.0
vn -1.0 -0.0 0.0
vn 0.3387 -0.3387 0.8778
vn 0.4277 -0.0 0.9039
vtan 0.0 -1.0 -0.0
vtan 0.0953 -0.9535 -0.286
vtan 0.7071 -0.7071 -0.0
vtan 0.0 -1.0 0.0
vtan -0.0 -1.0 -0.0
vtan 0.4082 -0.8165 0.4083
vtan 0.0164 -0.9918 -0.1266
vtan -0.0 -1.0 -0.0
vtan 0.7071 -0.7071 -0.0
vtan 0.0 -1.0 0.0
vtan 0.0 -1.0 0.0
vtan 0.1219 -0.9409 -0.316
vtan -0.9535 0.0953 -0.286
vtan -0.9409 0.1219 -0.316
vtan -1.0 0.0 0.0
vtan -1.0 0.0 0.0
vtan -0.9918 0.0164 -0.1266
vtan -1.0 0.0 0.0
vtan -0.7071 0.7071 0.0
vtan -1.0 0.0 0.0
vtan -0.8165 0.4082 0.4082
vtan -1.0 -0.0 0.0
vtan -0.7071 0.7071 0.0
vtan -1.0 0.0 0.0
vtan -0.7071 -0.7071 0.0
vtan -0.0953 -0.9535 -0.286
vtan -0.0 -1.0 -0.0
vtan -0.0164 -0.9918 -0.1266
vtan -0.4082 -0.8165 0.4083
vtan 0.0 -1.0 0.0
vtan 0.0 -1.0 -0.0
vtan -0.7071 -0.7071 -0.0
vtan 0.0 -1.0 0.0
vtan -0.1219 -0.9409 -0.316
vtan -0.0 -1.0 0.0
vtan 0.9535 0.0954 -0.286
vtan 1.0 0.0 0.0
vtan 1.0 0.0 0.0
vtan 0.9409 0.1219 -0.316
vtan 1.0 0.0 0.0
vtan 0.9918 0.0164 -0.1266
vtan 0.7071 0.7071 0.0
vtan 1.0 -0.0 0.0
vtan 1.0 -0.0 0.0
vtan 0.8165 0.4082 0.4082
vtan 1.0 -0.0 0.0
vtan 0.7071 0.7071 0.0
f 0/0/0/0 1/1/1/1 2/2/2/2 
f 0/0/0/0 2/2/2/2 3/3/3/3 
f 4/4/4/4 5/5/5/5 6/6/6/6 
f 4/4/4/4 6/6/6/6 7/7/7/7 
f 8/8/8/8 5/5/5/5 4/4/4/4 
f 8/8/8/8 4/4/4/4 9/9/9/9 
f 1/1/1/1 0/0/0/0 10/10/10/10 
f 1/1/1/1 10/10/10/10 11/11/11/11 
f 11/11/11/11 10/10/10/10 7/7/7/7 
f 11/11/11/11 7/7/7/7 6/6/6/6 
f 1/1/1/12 11/11/11/13 12/12/12/14 
f 1/1/1/12 12/12/12/14 13/13/13/15 
f 11/11/11/13 6/6/6/16 14/14/14/17 
f 11/11/11/13 14/14/14/17 12/12/12/14 
f 2/2/2/18 1/1/1/12 13/13/13/15 
f 2/2/2/18 13/13/13/15 15/15/15/19 
f 6/6/6/16 5/5/5/20 16/16/16/21 
f 6/6/6/16 16/16/16/21 14/14/14/17 
f 5/5/5/20 8/8/8/22 17/17/17/23 
f 5/5/5/20 17/17/17/23 16/16/16/21 
f 18/2/18/24 19/1/19/25 20/0/20/26 
f 18/2/18/24 20/0/20/26 21/3/9/9 
f 22/6/21/27 23/5/22/28 24/4/23/29 
f 22/6/21/27 24/4/23/29 25/7/24/30 
f 24/4/23/29 23/5/22/28 26/8/25/31 
f 24/4/23/29 26/8/25/31 27/9/26/32 
f 19/1/19/25 28/11/27/33 29/10/28/34 
f 19/1/19/25 29/10/28/34 20/0/20/26 
f 28/11/27/33 22/6/21/27 25/7/24/30 
f 28/11/27/33 25/7/24/30 29/10/28/34 
f 19/1/19/35 13/13/13/36 12/12/12/37 
f 19/1/19/35 12/12/12/37 28/11/27/38 
f 28/11/27/38 12/12/12/37 14/14/14/39 
f 28/11/27/38 14/14/14/39 22/6/21/40 
f 13/13/13/36 19/1/19/35 18/2/18/41 
f 13/13/13/36 18/2/18/41 15/15/15/42 
f 16/16/16/43 23/5/22/44 22/6/21/40 
f 16/16/16/43 22/6/21/40 14/14/14/39 
f 17/17/17/45 26/8/25/46 23/5/22/44 
f 17/17/17/45 23/5/22/44 16/16/16/43 
