v 914.8004 413.9112 -310.1346
v 914.8004 494.0526 -310.1345
v 914.8008 494.0525 238.6792
v 914.8008 413.9111 238.6792
v -1045.741 413.9112 -310.1346
v -1045.741 494.0526 -310.1344
v -1045.741 413.9111 238.6796
v -1045.741 494.0525 238.6796
vt 8.6439 0.3609
vt 6.4963 0.3609
vt 6.4963 0.6819
vt 8.6439 0.6819
vt -1.3153 0.3609
vt -1.3153 0.6819
vt 16.4555 0.3608
vt 16.4555 0.6819
vt 18.6031 0.6819
vt 18.6031 0.3608
vn -1.0 -0.0 0.0
vn -1.0 0.0 0.0
vn 0.0 -0.0 1.0
vn 0.0 -0.0 1.0
vn 0.7071 -0.0 -0.7071
vn 0.7071 -0.0 -0.7071
vn 0.7069 -0.0 0.7073
vn 0.7069 0.0 0.7073
vn -0.7073 0.0 -0.7069
vn -0.7073 -0.0 -0.7069
vtan -0.0 0.0 -1.0 -1.0
vtan -0.0 0.0 -1.0 -1.0
vtan 0.0 0.0 -1.0 -1.0
vtan -1.0 0.0 0.0 -1.0
vtan -1.0 0.0 0.0 -1.0
vtan -1.0 0.0 0.0 -1.0
vtan -1.0 0.0 0.0 -1.0
vtan -1.0 0.0 0.0 -1.0
vtan 0.7071 0.0 0.7071 -1.0
vtan 0.7071 0.0 0.7071 -1.0
vtan -0.7073 0.0 0.7069 -1.0
vtan -0.7073 -0.0 0.7069 -1.0
vtan 0.7069 0.0 -0.7073 -1.0
vtan 0.7069 -0.0 -0.7073 -1.0
f 4/0/0/0 6/1/0/0 7/2/0/1 
f 4/0/1/2 7/2/1/2 5/3/1/2 
f 6/1/2/3 3/4/2/3 2/5/2/4 
f 6/1/3/5 2/5/3/6 7/2/3/7 
f 0/6/4/8 1/7/5/9 2/8/6/10 
f 0/6/4/8 2/8/6/10 3/9/7/11 
f 1/7/5/9 0/6/4/8 4/0/8/12 
f 1/7/5/9 4/0/8/12 5/3/9/13 
