v -49.4366 674.1237 -284.2985
v -37.8483 674.1237 -284.2985
v -37.8484 674.1237 -275.0735
v -49.4366 674.1237 -275.0735
v -34.436 687.2192 -275.0735
v -34.436 687.2192 -284.2985
v -49.4366 687.2192 -284.2985
v -49.4366 687.2192 -275.0735
v -36.6815 676.0284 -275.0735
v -36.6815 676.0284 -284.2985
v -34.436 677.063 -275.0735
v -34.436 677.063 -284.2985
vt 0.5979 0.9823
vt 0.5979 0.9132
vt 0.6529 0.9132
vt 0.6529 0.9823
vt 0.6529 0.826
vt 0.5979 0.826
vt 0.5979 0.7366
vt 0.6529 0.7366
vt 0.5153 0.8138
vt 0.5266 0.8068
vt 0.5153 0.8829
vt 0.5979 0.8999
vt 0.6529 0.8999
vt 0.5866 0.9063
vt 0.5933 0.8829
vt 0.5933 0.7934
vt 0.6529 0.8865
vt 0.5979 0.8865
vt 0.5198 0.9823
vt 0.5199 0.8929
vt 0.5328 0.7934
vt 0.5804 0.8929
vn 0.0 -0.7071 -0.7071
vn 0.3865 -0.6901 -0.6119
vn 0.3865 -0.6901 0.6119
vn 0.0 -0.7071 0.7071
vn 0.5774 0.5773 0.5773
vn 0.5774 0.5774 -0.5773
vn 0.0 0.7071 -0.7071
vn 0.0 0.7071 0.7071
vn 0.4167 -0.469 0.7787
vn 0.4167 -0.469 -0.7787
vn 0.6715 -0.4299 0.6035
vn 0.6715 -0.4299 -0.6035
vtan -0.0002 -0.7071 0.7071 1.0
vtan 0.0358 -0.6517 0.7576 1.0
vtan -0.299 0.5339 0.7909 1.0
vtan -0.0 0.7071 0.7071 1.0
vtan -0.4082 -0.4082 0.8165 1.0
vtan 0.4082 0.4082 0.8165 1.0
vtan 0.0 0.7071 0.7071 1.0
vtan -0.0 -0.7071 0.7071 1.0
vtan 0.3649 0.7237 0.5857 1.0
vtan 0.2207 0.8832 0.4139 1.0
vtan -0.0003 0.7071 0.7071 1.0
vtan 0.5172 -0.5821 0.6274 1.0
vtan -0.5172 0.5821 0.6274 1.0
vtan -0.2221 -0.8832 0.4131 1.0
vtan -0.0 0.7071 -0.7071 1.0
vtan -0.4083 0.8165 -0.4082 1.0
vtan -0.5083 0.3254 0.7973 1.0
vtan 0.5083 -0.3254 0.7974 1.0
vtan 0.0001 -0.7071 -0.7071 1.0
vtan 0.4084 -0.8165 -0.4081 1.0
vtan 0.3198 0.9029 0.2874 1.0
vtan -0.3198 -0.9029 0.2874 1.0
f 0/0/0/0 1/1/1/1 2/2/2/2 
f 0/0/0/0 2/2/2/2 3/3/3/3 
f 4/4/4/4 5/5/5/5 6/6/6/6 
f 4/4/4/4 6/6/6/6 7/7/7/7 
f 2/8/2/8 8/9/8/9 3/10/3/10 
f 9/11/9/11 8/12/8/12 2/2/2/2 
f 9/11/9/11 2/2/2/2 1/1/1/1 
f 1/1/1/1 0/0/0/0 9/13/9/13 
f 7/14/7/14 3/10/3/10 8/9/8/9 
f 7/14/7/14 8/9/8/9 4/15/4/15 
f 4/4/4/4 10/16/10/16 11/17/11/17 
f 4/4/4/4 11/17/11/17 5/5/5/5 
f 9/13/9/13 0/0/0/0 6/18/6/18 
f 9/13/9/13 6/18/6/18 5/19/5/19 
f 4/15/4/15 8/9/8/9 10/20/10/20 
f 9/11/9/11 11/17/11/17 10/16/10/16 
f 9/11/9/11 10/16/10/16 8/12/8/12 
f 9/13/9/13 5/19/5/19 11/21/11/21 
