v 52.3152 279.8812 199.0069
v 52.3152 280.1829 197.8808
v 92.4797 280.1829 197.8808
v 92.4797 279.8812 199.0069
v 52.3152 281.0073 197.0564
v 92.4797 281.0073 197.0564
v 52.3152 282.1334 196.7545
v 92.4797 282.1334 196.7545
v 52.3152 283.2596 197.0564
v 92.4797 283.2596 197.0564
v 52.3152 284.0839 197.8808
v 92.4797 284.0839 197.8808
v 52.3152 284.3857 199.0069
v 92.4797 284.3857 199.0069
v 52.3152 284.0839 200.1329
v 92.4797 284.0839 200.1329
v 52.3152 283.2596 200.9574
v 92.4797 283.2596 200.9574
v 52.3152 282.1334 201.259
v 92.4797 282.1334 201.259
v 52.3152 281.0073 200.9574
v 92.4797 281.0073 200.9574
v 52.3152 280.1829 200.1329
v 92.4797 280.1829 200.1329
v 12.1506 279.8812 199.0069
v 12.1506 280.1829 197.8808
v 12.1506 281.0073 197.0564
v 12.1506 282.1334 196.7545
v 12.1506 283.2596 197.0564
v 12.1506 284.0839 197.8808
v 12.1506 284.3857 199.0069
v 12.1506 284.0839 200.1329
v 12.1506 283.2596 200.9574
v 12.1506 282.1334 201.259
v 12.1506 281.0073 200.9574
v 12.1506 280.1829 200.1329
v -28.014 279.8812 199.0069
v -28.014 280.1829 197.8808
v -28.014 281.0073 197.0564
v -28.014 282.1334 196.7545
v -28.014 283.2596 197.0564
v -28.014 284.0839 197.8808
v -28.014 284.3857 199.0069
v -28.014 284.0839 200.1329
v -28.014 283.2596 200.9574
v -28.014 282.1334 201.259
v -28.014 281.0073 200.9574
v -28.014 280.1829 200.1329
v -62.4588 279.8812 199.0069
v -62.4588 280.1829 197.8808
v -62.4588 281.0073 197.0564
v -62.4588 282.1334 196.7545
v -62.4588 283.2596 197.0564
v -62.4588 284.0839 197.8808
v -62.4588 284.3857 199.0069
v -62.4588 284.0839 200.1329
v -62.4588 283.2596 200.9574
v -62.4588 282.1334 201.259
v -62.4588 281.0073 200.9574
v -62.4588 280.1829 200.1329
v -217.3974 280.1829 197.8808
v -177.2328 280.1829 197.8808
v -177.2328 279.8812 199.0069
v -217.3974 279.8812 199.0069
v -217.3974 281.0073 197.0564
v -177.2328 281.0073 197.0564
v -217.3974 282.1334 196.7545
v -177.2328 282.1334 196.7545
v -217.3974 283.2596 197.0564
v -177.2328 283.2596 197.0564
v -217.3974 284.0839 197.8808
v -177.2328 284.0839 197.8808
v -217.3974 284.3857 199.0069
v -177.2328 284.3857 199.0069
v -217.3974 284.0839 200.1329
v -177.2328 284.0839 200.1329
v -217.3974 283.2596 200.9574
v -177.2328 283.2596 200.9574
v -217.3974 282.1334 201.259
v -177.2328 282.1334 201.259
v -217.3974 281.0073 200.9574
v -177.2328 281.0073 200.9574
v -217.3974 280.1829 200.1329
v -177.2328 280.1829 200.1329
v -137.0682 280.1829 197.8808
v -137.0682 279.8812 199.0069
v -137.0682 281.0073 197.0564
v -137.0682 282.1334 196.7545
v -137.0682 283.2596 197.0564
v -137.0682 284.0839 197.8808
v -137.0682 284.3857 199.0069
v -137.0682 284.0839 200.1329
v -137.0682 283.2596 200.9574
v -137.0682 282.1334 201.259
v -137.0682 281.0073 200.9574
v -137.0682 280.1829 200.1329
v -96.9036 280.1829 197.8808
v -96.9036 279.8812 199.0069
v -96.9036 281.0073 197.0564
v -96.9036 282.1334 196.7545
v -96.9036 283.2596 197.0564
v -96.9036 284.0839 197.8808
v -96.9036 284.3857 199.0069
v -96.9036 284.0839 200.1329
v -96.9036 283.2596 200.9574
v -96.9036 282.1334 201.259
v -96.9036 281.0073 200.9574
v -96.9036 280.1829 200.1329
vt 0.9876 0.5241
vt 0.9633 0.5241
vt 0.9633 0.0053
vt 0.9876 0.0053
vt 0.9391 0.5241
vt 0.9391 0.0053
vt 0.9148 0.5241
vt 0.9148 0.0053
vt 0.8906 0.5241
vt 0.8906 0.0053
vt 0.8663 0.5241
vt 0.8663 0.0053
vt 0.8421 0.5241
vt 0.8421 0.0053
vt 0.8178 0.5241
vt 0.8178 0.0053
vt 0.7936 0.5241
vt 0.7936 0.0053
vt 0.7694 0.5241
vt 0.7694 0.0053
vt 0.7451 0.5241
vt 0.7451 0.0053
vt 0.7209 0.5241
vt 0.7209 0.0053
vt 0.6966 0.5241
vt 0.6966 0.0053
vt 0.9876 0.4502
vt 0.9633 0.4502
vt 0.9391 0.4502
vt 0.9148 0.4502
vt 0.8906 0.4502
vt 0.8663 0.4502
vt 0.8421 0.4502
vt 0.8178 0.4502
vt 0.7936 0.4502
vt 0.7694 0.4502
vt 0.7451 0.4502
vt 0.7209 0.4502
vt 0.6966 0.4502
vn 0.0 -1.0 -0.0
vn 0.0 -0.866 -0.5
vn 0.0 -0.866 -0.5
vn 0.0 -1.0 0.0
vn 0.0 -0.5 -0.866
vn 0.0 -0.5 -0.866
vn 0.0 -0.0 -1.0
vn 0.0 -0.0 -1.0
vn 0.0 0.5 -0.866
vn 0.0 0.5 -0.866
vn 0.0 0.866 -0.5
vn 0.0 0.866 -0.5
vn 0.0 1.0 0.0
vn 0.0 1.0 0.0
vn 0.0 0.866 0.5
vn 0.0 0.866 0.5
vn 0.0 0.5 0.866
vn 0.0 0.5 0.866
vn 0.0 -0.0 1.0
vn 0.0 -0.0 1.0
vn 0.0 -0.5 0.866
vn 0.0 -0.5 0.866
vn 0.0 -0.866 0.5
vn 0.0 -0.866 0.5
vn 0.0 -1.0 -0.0
vn 0.0 -0.866 -0.5
vn 0.0 -0.5 -0.866
vn 0.0 -0.0 -1.0
vn 0.0 0.5 -0.866
vn 0.0 0.866 -0.5
vn 0.0 1.0 -0.0
vn 0.0 0.866 0.5
vn 0.0 0.5 0.866
vn 0.0 -0.0 1.0
vn 0.0 -0.5 0.866
vn 0.0 -0.866 0.5
vn 0.0 -1.0 -0.0
vn 0.0 -0.866 -0.5
vn 0.0 -0.5 -0.866
vn 0.0 -0.0 -1.0
vn 0.0 0.5 -0.866
vn 0.0 0.866 -0.5
vn 0.0 1.0 -0.0
vn 0.0 0.866 0.5
vn 0.0 0.5 0.866
vn 0.0 -0.0 1.0
vn 0.0 -0.5 0.866
vn 0.0 -0.866 0.5
vn 0.0 -1.0 0.0
vn 0.0 -0.866 -0.5
vn 0.0 -0.5 -0.866
vn 0.0 -0.0 -1.0
vn 0.0 0.5001 -0.866
vn 0.0 0.866 -0.5
vn 0.0 1.0 0.0
vn 0.0 0.866 0.5
vn 0.0 0.5 0.866
vn 0.0 -0.0 1.0
vn 0.0 -0.5 0.866
vn 0.0 -0.866 0.5
vn 0.0 -0.866 -0.5
vn 0.0 -0.866 -0.5
vn 0.0 -1.0 0.0
vn 0.0 -1.0 0.0
vn 0.0 -0.5 -0.866
vn 0.0 -0.5 -0.866
vn 0.0 -0.0 -1.0
vn 0.0 -0.0 -1.0
vn 0.0 0.5 -0.866
vn 0.0 0.5 -0.866
vn 0.0 0.866 -0.5
vn 0.0 0.866 -0.5
vn 0.0 1.0 -0.0
vn 0.0 1.0 0.0
vn 0.0 0.866 0.5
vn 0.0 0.866 0.5
vn 0.0 0.5 0.866
vn 0.0 0.5 0.866
vn 0.0 -0.0 1.0
vn 0.0 -0.0 1.0
vn 0.0 -0.5 0.866
vn 0.0 -0.5 0.866
vn 0.0 -0.866 0.5
vn 0.0 -0.866 0.5
vn 0.0 -0.866 -0.5
vn 0.0 -1.0 0.0
vn 0.0 -0.5 -0.866
vn 0.0 -0.0 -1.0
vn 0.0 0.5 -0.866
vn 0.0 0.866 -0.5
vn 0.0 1.0 0.0
vn 0.0 0.866 0.5
vn 0.0 0.5 0.866
vn 0.0 -0.0 1.0
vn 0.0 -0.5 0.866
vn 0.0 -0.866 0.5
vn 0.0 -0.866 -0.5
vn 0.0 -1.0 -0.0
vn 0.0 -0.5 -0.866
vn 0.0 -0.0 -1.0
vn 0.0 0.5 -0.866
vn 0.0 0.866 -0.5
vn 0.0 1.0 -0.0
vn 0.0 0.866 0.5
vn 0.0 0.5 0.866
vn 0.0 -0.0 1.0
vn 0.0 -0.5 0.866
vn 0.0 -0.866 0.5
vtan 0.0 -0.0 1.0 1.0
vtan 0.0 -0.5 0.866 1.0
vtan 0.0 -0.5 0.866 1.0
vtan 0.0 0.0 1.0 1.0
vtan 0.0 -0.866 0.5 1.0
vtan 0.0 -0.866 0.5 1.0
vtan 0.0 -1.0 0.0 1.0
vtan 0.0 -1.0 0.0 1.0
vtan 0.0 -0.866 -0.5 1.0
vtan 0.0 -0.866 -0.5 1.0
vtan 0.0 -0.5 -0.866 1.0
vtan 0.0 -0.5 -0.866 1.0
vtan 0.0 0.0 -1.0 1.0
vtan 0.0 0.0 -1.0 1.0
vtan 0.0 0.5 -0.866 1.0
vtan 0.0 0.5 -0.866 1.0
vtan 0.0 0.866 -0.5 1.0
vtan 0.0 0.866 -0.5 1.0
vtan 0.0 1.0 0.0 1.0
vtan 0.0 1.0 0.0 1.0
vtan 0.0 0.866 0.5 1.0
vtan 0.0 0.866 0.5 1.0
vtan 0.0 0.5 0.866 1.0
vtan 0.0 0.5 0.866 1.0
vtan 0.0 -0.0 1.0 1.0
vtan 0.0 0.0 1.0 1.0
vtan 0.0 -0.5 0.866 1.0
vtan 0.0 0.0 1.0 1.0
vtan 0.0 -0.5 0.866 1.0
vtan 0.0 -0.866 0.5 1.0
vtan 0.0 -0.866 0.5 1.0
vtan 0.0 -1.0 0.0 1.0
vtan 0.0 -0.866 -0.5 1.0
vtan 0.0 -0.5 -0.866 1.0
vtan 0.0 0.0 -1.0 1.0
vtan 0.0 0.0 -1.0 1.0
vtan 0.0 0.5 -0.866 1.0
vtan 0.0 0.5 -0.866 1.0
vtan 0.0 0.866 -0.5 1.0
vtan 0.0 0.866 -0.5 1.0
vtan 0.0 1.0 0.0 1.0
vtan 0.0 0.866 0.5 1.0
vtan 0.0 0.866 0.5 1.0
vtan 0.0 0.5 0.866 1.0
vtan 0.0 -0.0 1.0 1.0
vtan 0.0 -0.0 1.0 1.0
vtan 0.0 -0.5 0.866 1.0
vtan 0.0 -0.5 0.866 1.0
vtan 0.0 -0.866 0.5 1.0
vtan 0.0 -1.0 0.0 1.0
vtan 0.0 -1.0 0.0 1.0
vtan 0.0 -0.866 -0.5 1.0
vtan 0.0 -0.866 -0.5 1.0
vtan 0.0 -0.5 -0.866 1.0
vtan 0.0 -0.5 -0.866 1.0
vtan 0.0 -0.0 -1.0 1.0
vtan 0.0 0.5 -0.866 1.0
vtan 0.0 0.5 -0.866 1.0
vtan 0.0 0.866 -0.5 1.0
vtan 0.0 0.866 -0.5 1.0
vtan 0.0 1.0 0.0 1.0
vtan 0.0 0.866 0.5 1.0
vtan 0.0 0.866 0.5 1.0
vtan 0.0 0.5 0.866 1.0
vtan 0.0 0.5 0.866 1.0
vtan 0.0 -0.0 1.0 1.0
vtan 0.0 0.0 1.0 1.0
vtan 0.0 -0.5 0.866 1.0
vtan 0.0 -0.5 0.866 1.0
vtan 0.0 -0.0 1.0 1.0
vtan 0.0 -0.866 0.5 1.0
vtan 0.0 -0.866 0.5 1.0
vtan 0.0 -1.0 0.0 1.0
vtan 0.0 -1.0 0.0 1.0
vtan 0.0 -0.866 -0.5001 1.0
vtan 0.0 -0.5 -0.866 1.0
vtan 0.0 -0.5 -0.866 1.0
vtan 0.0 0.0 -1.0 1.0
vtan 0.0 -0.0 -1.0 1.0
vtan 0.0 0.5 -0.866 1.0
vtan 0.0 0.5 -0.866 1.0
vtan 0.0 0.866 -0.5 1.0
vtan 0.0 0.866 -0.5 1.0
vtan 0.0 1.0 0.0 1.0
vtan 0.0 1.0 0.0 1.0
vtan 0.0 0.866 0.5 1.0
vtan 0.0 0.866 0.5 1.0
vtan 0.0 0.5 0.866 1.0
vtan 0.0 0.5 0.866 1.0
vtan 0.0 0.0 1.0 1.0
vtan 0.0 -0.0 1.0 1.0
vtan 0.0 -0.5 0.866 -1.0
vtan 0.0 -0.5 0.866 -1.0
vtan 0.0 0.0 1.0 -1.0
vtan 0.0 0.0 1.0 -1.0
vtan 0.0 -0.866 0.5 -1.0
vtan 0.0 -0.866 0.5 -1.0
vtan 0.0 -1.0 0.0 -1.0
vtan 0.0 -1.0 0.0 -1.0
vtan 0.0 -0.866 -0.5 -1.0
vtan 0.0 -0.866 -0.5 -1.0
vtan 0.0 -0.5 -0.866 -1.0
vtan 0.0 -0.5 -0.866 -1.0
vtan 0.0 -0.0 -1.0 -1.0
vtan 0.0 0.0 -1.0 -1.0
vtan 0.0 0.5 -0.866 -1.0
vtan 0.0 0.5 -0.866 -1.0
vtan 0.0 0.866 -0.5 -1.0
vtan 0.0 0.866 -0.5 -1.0
vtan 0.0 1.0 0.0 -1.0
vtan 0.0 1.0 0.0 -1.0
vtan 0.0 0.866 0.5 -1.0
vtan 0.0 0.866 0.5 -1.0
vtan 0.0 0.5 0.866 -1.0
vtan 0.0 0.5 0.866 -1.0
vtan 0.0 0.0 1.0 -1.0
vtan 0.0 -0.5 0.866 -1.0
vtan 0.0 -0.5 0.866 -1.0
vtan 0.0 -0.866 0.5 -1.0
vtan 0.0 -0.866 0.5 -1.0
vtan 0.0 -1.0 0.0 -1.0
vtan 0.0 -1.0 0.0 -1.0
vtan 0.0 -0.866 -0.5 -1.0
vtan 0.0 -0.866 -0.5 -1.0
vtan 0.0 -0.5 -0.866 -1.0
vtan 0.0 -0.5 -0.866 -1.0
vtan 0.0 0.0 -1.0 -1.0
vtan 0.0 0.5 -0.866 -1.0
vtan 0.0 0.5 -0.866 -1.0
vtan 0.0 0.866 -0.5 -1.0
vtan 0.0 0.866 -0.5 -1.0
vtan 0.0 0.866 0.5 -1.0
vtan 0.0 0.866 0.5 -1.0
vtan 0.0 0.5 0.866 -1.0
vtan 0.0 0.5 0.866 -1.0
vtan 0.0 -0.5 0.866 -1.0
vtan 0.0 -0.0 1.0 -1.0
vtan 0.0 -0.866 0.5 -1.0
vtan 0.0 -0.866 0.5 -1.0
vtan 0.0 -1.0 0.0 -1.0
vtan 0.0 -1.0 0.0 -1.0
vtan 0.0 -0.866 -0.5 -1.0
vtan 0.0 -0.866 -0.5 -1.0
vtan 0.0 -0.5 -0.866 -1.0
vtan 0.0 -0.5 -0.866 -1.0
vtan 0.0 0.0 -1.0 -1.0
vtan 0.0 -0.0 -1.0 -1.0
vtan 0.0 0.5 -0.866 -1.0
vtan 0.0 0.866 -0.5 -1.0
vtan 0.0 0.866 -0.5 -1.0
vtan 0.0 1.0 0.0 -1.0
vtan 0.0 1.0 0.0 -1.0
vtan 0.0 0.866 0.5 -1.0
vtan 0.0 0.866 0.5 -1.0
vtan 0.0 0.5 0.866 -1.0
vtan 0.0 0.5 0.866 -1.0
vtan 0.0 -0.5 0.866 -1.0
vtan 0.0 -0.866 -0.5 -1.0
vtan 0.0 0.5 -0.866 -1.0
vtan 0.0 0.866 -0.5 -1.0
vtan 0.0 1.0 0.0 -1.0
vtan 0.0 0.866 0.5 -1.0
f 0/0/0/0 1/1/1/1 2/2/2/2 
f 0/0/0/0 2/2/2/2 3/3/3/3 
f 1/1/1/1 4/4/4/4 5/5/5/5 
f 1/1/1/1 5/5/5/5 2/2/2/2 
f 4/4/4/4 6/6/6/6 7/7/7/7 
f 4/4/4/4 7/7/7/7 5/5/5/5 
f 6/6/6/6 8/8/8/8 9/9/9/9 
f 6/6/6/6 9/9/9/9 7/7/7/7 
f 8/8/8/8 10/10/10/10 11/11/11/11 
f 8/8/8/8 11/11/11/11 9/9/9/9 
f 10/10/10/10 12/12/12/12 13/13/13/13 
f 10/10/10/10 13/13/13/13 11/11/11/11 
f 12/12/12/12 14/14/14/14 15/15/15/15 
f 12/12/12/12 15/15/15/15 13/13/13/13 
f 14/14/14/14 16/16/16/16 17/17/17/17 
f 14/14/14/14 17/17/17/17 15/15/15/15 
f 16/16/16/16 18/18/18/18 19/19/19/19 
f 16/16/16/16 19/19/19/19 17/17/17/17 
f 18/18/18/18 20/20/20/20 21/21/21/21 
f 18/18/18/18 21/21/21/21 19/19/19/19 
f 20/20/20/20 22/22/22/22 23/23/23/23 
f 20/20/20/20 23/23/23/23 21/21/21/21 
f 22/22/22/22 0/24/0/24 3/25/3/25 
f 22/22/22/22 3/25/3/25 23/23/23/23 
f 1/2/1/26 0/3/0/0 24/0/24/27 
f 1/2/1/26 24/0/24/27 25/1/25/28 
f 25/1/25/28 26/4/26/29 4/5/4/30 
f 25/1/25/28 4/5/4/30 1/2/1/26 
f 26/4/26/29 27/6/27/31 6/7/6/6 
f 26/4/26/29 6/7/6/6 4/5/4/30 
f 27/6/27/31 28/8/28/32 8/9/8/8 
f 27/6/27/31 8/9/8/8 6/7/6/6 
f 28/8/28/32 29/10/29/33 10/11/10/10 
f 28/8/28/32 10/11/10/10 8/9/8/8 
f 29/10/29/33 30/12/30/34 12/13/12/35 
f 29/10/29/33 12/13/12/35 10/11/10/10 
f 30/12/30/34 31/14/31/36 14/15/14/37 
f 30/12/30/34 14/15/14/37 12/13/12/35 
f 31/14/31/36 32/16/32/38 16/17/16/39 
f 31/14/31/36 16/17/16/39 14/15/14/37 
f 32/16/32/38 33/18/33/40 18/19/18/18 
f 32/16/32/38 18/19/18/18 16/17/16/39 
f 33/18/33/40 34/20/34/41 20/21/20/42 
f 33/18/33/40 20/21/20/42 18/19/18/18 
f 34/20/34/41 35/22/35/43 22/23/22/22 
f 34/20/34/41 22/23/22/22 20/21/20/42 
f 0/25/0/44 22/23/22/22 35/22/35/43 
f 0/25/0/44 35/22/35/43 24/24/24/27 
f 36/0/36/45 37/1/37/46 25/2/25/47 
f 36/0/36/45 25/2/25/47 24/3/24/27 
f 37/1/37/46 38/4/38/48 26/5/26/29 
f 37/1/37/46 26/5/26/29 25/2/25/47 
f 38/4/38/48 39/6/39/49 27/7/27/50 
f 38/4/38/48 27/7/27/50 26/5/26/29 
f 39/6/39/49 40/8/40/51 28/9/28/52 
f 39/6/39/49 28/9/28/52 27/7/27/50 
f 40/8/40/51 41/10/41/53 29/11/29/54 
f 40/8/40/51 29/11/29/54 28/9/28/52 
f 41/10/41/53 42/12/42/55 30/13/30/34 
f 41/10/41/53 30/13/30/34 29/11/29/54 
f 42/12/42/55 43/14/43/56 31/15/31/57 
f 42/12/42/55 31/15/31/57 30/13/30/34 
f 43/14/43/56 44/16/44/58 32/17/32/59 
f 43/14/43/56 32/17/32/59 31/15/31/57 
f 44/16/44/58 45/18/45/60 33/19/33/40 
f 44/16/44/58 33/19/33/40 32/17/32/59 
f 45/18/45/60 46/20/46/61 34/21/34/62 
f 45/18/45/60 34/21/34/62 33/19/33/40 
f 46/20/46/61 47/22/47/63 35/23/35/64 
f 46/20/46/61 35/23/35/64 34/21/34/62 
f 47/22/47/63 36/24/36/65 24/25/24/27 
f 47/22/47/63 24/25/24/27 35/23/35/64 
f 48/26/48/66 49/27/49/67 37/2/37/68 
f 48/26/48/66 37/2/37/68 36/3/36/69 
f 49/27/49/67 50/28/50/70 38/5/38/71 
f 49/27/49/67 38/5/38/71 37/2/37/68 
f 50/28/50/70 51/29/51/72 39/7/39/73 
f 50/28/50/70 39/7/39/73 38/5/38/71 
f 51/29/51/72 52/30/52/74 40/9/40/51 
f 51/29/51/72 40/9/40/51 39/7/39/73 
f 52/30/52/74 53/31/53/75 41/11/41/76 
f 52/30/52/74 41/11/41/76 40/9/40/51 
f 53/31/53/75 54/32/54/77 42/13/42/78 
f 53/31/53/75 42/13/42/78 41/11/41/76 
f 54/32/54/77 55/33/55/79 43/15/43/80 
f 54/32/54/77 43/15/43/80 42/13/42/78 
f 55/33/55/79 56/34/56/81 44/17/44/82 
f 55/33/55/79 44/17/44/82 43/15/43/80 
f 56/34/56/81 57/35/57/83 45/19/45/84 
f 56/34/56/81 45/19/45/84 44/17/44/82 
f 57/35/57/83 58/36/58/85 46/21/46/86 
f 57/35/57/83 46/21/46/86 45/19/45/84 
f 58/36/58/85 59/37/59/87 47/23/47/88 
f 58/36/58/85 47/23/47/88 46/21/46/86 
f 59/37/59/87 48/38/48/89 36/25/36/90 
f 59/37/59/87 36/25/36/90 47/23/47/88 
f 60/2/60/91 61/1/61/92 62/0/62/93 
f 60/2/60/91 62/0/62/93 63/3/63/94 
f 64/5/64/95 65/4/65/96 61/1/61/92 
f 64/5/64/95 61/1/61/92 60/2/60/91 
f 66/7/66/97 67/6/67/98 65/4/65/96 
f 66/7/66/97 65/4/65/96 64/5/64/95 
f 68/9/68/99 69/8/69/100 67/6/67/98 
f 68/9/68/99 67/6/67/98 66/7/66/97 
f 70/11/70/101 71/10/71/102 69/8/69/100 
f 70/11/70/101 69/8/69/100 68/9/68/99 
f 72/13/72/103 73/12/73/104 71/10/71/102 
f 72/13/72/103 71/10/71/102 70/11/70/101 
f 74/15/74/105 75/14/75/106 73/12/73/104 
f 74/15/74/105 73/12/73/104 72/13/72/103 
f 76/17/76/107 77/16/77/108 75/14/75/106 
f 76/17/76/107 75/14/75/106 74/15/74/105 
f 78/19/78/109 79/18/79/110 77/16/77/108 
f 78/19/78/109 77/16/77/108 76/17/76/107 
f 80/21/80/111 81/20/81/112 79/18/79/110 
f 80/21/80/111 79/18/79/110 78/19/78/109 
f 82/23/82/113 83/22/83/114 81/20/81/112 
f 82/23/82/113 81/20/81/112 80/21/80/111 
f 63/25/63/115 62/24/62/27 83/22/83/114 
f 63/25/63/115 83/22/83/114 82/23/82/113 
f 61/2/61/116 84/1/84/117 85/0/85/93 
f 61/2/61/116 85/0/85/93 62/3/62/27 
f 65/5/65/118 86/4/86/119 84/1/84/117 
f 65/5/65/118 84/1/84/117 61/2/61/116 
f 67/7/67/120 87/6/87/121 86/4/86/119 
f 67/7/67/120 86/4/86/119 65/5/65/118 
f 69/9/69/122 88/8/88/123 87/6/87/121 
f 69/9/69/122 87/6/87/121 67/7/67/120 
f 71/11/71/124 89/10/89/125 88/8/88/123 
f 71/11/71/124 88/8/88/123 69/9/69/122 
f 73/13/73/104 90/12/90/126 89/10/89/125 
f 73/13/73/104 89/10/89/125 71/11/71/124 
f 75/15/75/127 91/14/91/128 90/12/90/126 
f 75/15/75/127 90/12/90/126 73/13/73/104 
f 77/17/77/129 92/16/92/130 91/14/91/128 
f 77/17/77/129 91/14/91/128 75/15/75/127 
f 79/19/79/110 93/18/93/110 92/16/92/130 
f 79/19/79/110 92/16/92/130 77/17/77/129 
f 81/21/81/131 94/20/94/132 93/18/93/110 
f 81/21/81/131 93/18/93/110 79/19/79/110 
f 83/23/83/133 95/22/95/134 94/20/94/132 
f 83/23/83/133 94/20/94/132 81/21/81/131 
f 62/25/62/93 85/24/85/27 95/22/95/134 
f 62/25/62/93 95/22/95/134 83/23/83/133 
f 84/2/84/117 96/1/96/135 97/0/97/136 
f 84/2/84/117 97/0/97/136 85/3/85/27 
f 86/5/86/137 98/4/98/138 96/1/96/135 
f 86/5/86/137 96/1/96/135 84/2/84/117 
f 87/7/87/139 99/6/99/140 98/4/98/138 
f 87/7/87/139 98/4/98/138 86/5/86/137 
f 88/9/88/141 100/8/100/142 99/6/99/140 
f 88/9/88/141 99/6/99/140 87/7/87/139 
f 89/11/89/143 101/10/101/144 100/8/100/142 
f 89/11/89/143 100/8/100/142 88/9/88/141 
f 90/13/90/145 102/12/102/146 101/10/101/144 
f 90/13/90/145 101/10/101/144 89/11/89/143 
f 91/15/91/147 103/14/103/56 102/12/102/146 
f 91/15/91/147 102/12/102/146 90/13/90/145 
f 92/17/92/148 104/16/104/149 103/14/103/56 
f 92/17/92/148 103/14/103/56 91/15/91/147 
f 93/19/93/150 105/18/105/151 104/16/104/149 
f 93/19/93/150 104/16/104/149 92/17/92/148 
f 94/21/94/152 106/20/106/153 105/18/105/151 
f 94/21/94/152 105/18/105/151 93/19/93/150 
f 95/23/95/154 107/22/107/155 106/20/106/153 
f 95/23/95/154 106/20/106/153 94/21/94/152 
f 85/25/85/27 97/24/97/65 107/22/107/155 
f 85/25/85/27 107/22/107/155 95/23/95/154 
f 96/2/96/156 49/27/49/67 48/26/48/66 
f 96/2/96/156 48/26/48/66 97/3/97/69 
f 98/5/98/138 50/28/50/70 49/27/49/67 
f 98/5/98/138 49/27/49/67 96/2/96/156 
f 99/7/99/140 51/29/51/72 50/28/50/70 
f 99/7/99/140 50/28/50/70 98/5/98/138 
f 100/9/100/157 52/30/52/74 51/29/51/72 
f 100/9/100/157 51/29/51/72 99/7/99/140 
f 101/11/101/144 53/31/53/75 52/30/52/74 
f 101/11/101/144 52/30/52/74 100/9/100/157 
f 102/13/102/78 54/32/54/77 53/31/53/75 
f 102/13/102/78 53/31/53/75 101/11/101/144 
f 103/15/103/158 55/33/55/79 54/32/54/77 
f 103/15/103/158 54/32/54/77 102/13/102/78 
f 104/17/104/159 56/34/56/81 55/33/55/79 
f 104/17/104/159 55/33/55/79 103/15/103/158 
f 105/19/105/160 57/35/57/83 56/34/56/81 
f 105/19/105/160 56/34/56/81 104/17/104/159 
f 106/21/106/161 58/36/58/85 57/35/57/83 
f 106/21/106/161 57/35/57/83 105/19/105/160 
f 107/23/107/88 59/37/59/87 58/36/58/85 
f 107/23/107/88 58/36/58/85 106/21/106/161 
f 97/25/97/90 48/38/48/89 59/37/59/87 
f 97/25/97/90 59/37/59/87 107/23/107/88 
