v 921.9351 413.9112 -317.2691
v 921.9351 418.506 -317.2692
v 921.9355 418.5059 245.8139
v 921.9355 413.9112 245.8139
v -1052.8756 413.9112 -317.2692
v -1052.8757 418.506 -317.2691
v -1052.8756 413.9112 245.8143
v -1052.8757 418.5059 245.8143
v 914.8004 422.2418 -310.1346
v 914.8008 422.2417 238.6792
v -1045.741 422.2418 -310.1346
v -1045.741 422.2417 238.6796
vt 8.7004 0.2886
vt 11.258 0.2886
vt 11.258 0.3294
vt 8.7004 0.3295
vt 20.2278 0.2885
vt 20.2278 0.3294
vt 22.7854 0.2885
vt 22.7854 0.3294
vt -0.2694 0.3295
vt -0.2694 0.2886
vt 22.753 0.3929
vt 20.2602 0.3929
vt 8.668 0.393
vt -0.237 0.393
vt 11.2256 0.393
vt 8.7328 0.393
vt 20.1954 0.393
vt 11.2904 0.393
vn -1.0 -0.0 0.0
vn -1.0 0.0 -0.0
vn 0.0 0.0 1.0
vn 0.0 0.0 1.0
vn 0.7071 0.0 -0.7071
vn 0.6222 0.475 -0.6222
vn 0.6223 0.475 0.6222
vn 0.7069 0.0 0.7073
vn -0.7073 0.0 -0.7069
vn -0.6222 0.475 -0.6223
vn 0.2455 0.9378 -0.2455
vn 0.2455 0.9378 0.2455
vn -0.2455 0.9378 -0.2455
vn -0.6223 0.4747 0.6224
vn -0.2455 0.9378 0.2455
vtan 0.0 0.0 1.0 1.0
vtan -0.0 0.0 1.0 1.0
vtan -0.0 0.0 1.0 1.0
vtan -0.0 0.0 1.0 1.0
vtan 1.0 0.0 -0.0 1.0
vtan 1.0 0.0 -0.0 1.0
vtan 1.0 0.0 -0.0 1.0
vtan 1.0 0.0 -0.0 1.0
vtan -0.7071 -0.0 -0.7071 1.0
vtan -0.4946 -0.3776 -0.7828 1.0
vtan 0.4946 0.3776 -0.7828 1.0
vtan 0.7073 0.0 -0.7069 1.0
vtan -0.7828 0.3776 -0.4946 1.0
vtan -0.7071 0.0 -0.7071 1.0
vtan -0.7069 -0.0 0.7073 1.0
vtan -0.7828 -0.3776 0.4946 1.0
vtan -0.0622 -0.2375 -0.9694 1.0
vtan 0.0622 0.2375 -0.9694 1.0
vtan -0.9694 -0.2375 0.0622 1.0
vtan -0.9694 0.2375 -0.0622 1.0
vtan 0.4948 -0.3775 0.7827 1.0
vtan 0.0622 -0.2375 0.9694 1.0
vtan -0.0622 0.2375 0.9694 1.0
vtan -0.4946 0.3776 0.7828 1.0
vtan 0.7828 -0.3776 -0.4946 1.0
vtan 0.9694 -0.2375 -0.0622 1.0
vtan 0.9694 0.2375 0.0622 1.0
vtan 0.7828 0.3774 0.4948 1.0
f 4/0/0/0 6/1/0/0 7/2/0/0 
f 4/0/1/1 7/2/1/2 5/3/1/3 
f 6/1/2/4 3/4/2/5 2/5/2/4 
f 6/1/3/6 2/5/3/7 7/2/3/7 
f 0/6/4/8 1/7/5/9 2/5/6/10 
f 0/6/4/8 2/5/6/10 3/4/7/11 
f 1/8/5/12 0/9/4/13 4/0/8/14 
f 1/8/5/12 4/0/8/14 5/3/9/15 
f 1/7/5/9 8/10/10/16 9/11/11/17 
f 1/7/5/9 9/11/11/17 2/5/6/10 
f 5/3/9/15 10/12/12/18 8/13/10/19 
f 5/3/9/15 8/13/10/19 1/8/5/12 
f 7/2/13/20 11/14/14/21 10/15/12/22 
f 7/2/13/20 10/15/12/22 5/3/9/23 
f 2/5/6/24 9/16/11/25 11/17/14/26 
f 2/5/6/24 11/17/14/26 7/2/13/27 
