v -688.9853 279.8812 -279.1519
v -688.9853 280.1829 -280.278
v -648.8207 280.1829 -280.278
v -648.8207 279.8812 -279.1519
v -688.9853 281.0074 -281.1023
v -648.8207 281.0074 -281.1023
v -688.9853 282.1335 -281.4041
v -648.8207 282.1335 -281.4041
v -688.9853 283.2597 -281.1023
v -648.8207 283.2597 -281.1023
v -688.9853 284.0839 -280.278
v -648.8207 284.0839 -280.278
v -688.9853 284.3857 -279.1518
v -648.8207 284.3857 -279.1518
v -688.9853 284.0839 -278.0257
v -648.8207 284.0839 -278.0257
v -688.9853 283.2596 -277.2013
v -648.8207 283.2596 -277.2013
v -688.9853 282.1334 -276.8996
v -648.8207 282.1334 -276.8996
v -688.9853 281.0073 -277.2013
v -648.8207 281.0073 -277.2013
v -688.9853 280.1829 -278.0258
v -648.8207 280.1829 -278.0258
v -729.1499 279.8812 -279.1519
v -729.1499 280.1829 -280.278
v -729.1499 281.0074 -281.1023
v -729.1499 282.1335 -281.4041
v -729.1499 283.2597 -281.1023
v -729.1499 284.0839 -280.278
v -729.1499 284.3857 -279.1518
v -729.1499 284.0839 -278.0257
v -729.1499 283.2596 -277.2013
v -729.1499 282.1334 -276.8996
v -729.1499 281.0073 -277.2013
v -729.1499 280.1829 -278.0258
v -769.3145 279.8812 -279.1519
v -769.3145 280.1829 -280.278
v -769.3145 281.0074 -281.1023
v -769.3145 282.1335 -281.4041
v -769.3145 283.2597 -281.1023
v -769.3145 284.0839 -280.278
v -769.3145 284.3857 -279.1518
v -769.3145 284.0839 -278.0257
v -769.3145 283.2596 -277.2013
v -769.3145 282.1334 -276.8996
v -769.3145 281.0073 -277.2013
v -769.3145 280.1829 -278.0258
v -803.7593 279.8812 -279.1519
v -803.7593 280.1829 -280.278
v -803.7593 281.0074 -281.1023
v -803.7593 282.1335 -281.4041
v -803.7593 283.2597 -281.1023
v -803.7593 284.0839 -280.278
v -803.7593 284.3857 -279.1518
v -803.7593 284.0839 -278.0257
v -803.7593 283.2596 -277.2013
v -803.7593 282.1334 -276.8996
v -803.7593 281.0073 -277.2013
v -803.7593 280.1829 -278.0258
v -958.6978 280.1829 -280.278
v -918.5332 280.1829 -280.278
v -918.5332 279.8812 -279.1519
v -958.6978 279.8812 -279.1519
v -958.6978 281.0074 -281.1023
v -918.5332 281.0074 -281.1023
v -958.6978 282.1335 -281.4041
v -918.5332 282.1335 -281.4041
v -958.6978 283.2597 -281.1023
v -918.5332 283.2597 -281.1023
v -958.6978 284.0839 -280.278
v -918.5332 284.0839 -280.278
v -958.6978 284.3857 -279.1518
v -918.5332 284.3857 -279.1518
v -958.6978 284.0839 -278.0257
v -918.5332 284.0839 -278.0257
v -958.6978 283.2596 -277.2013
v -918.5332 283.2596 -277.2013
v -958.6978 282.1334 -276.8996
v -918.5332 282.1334 -276.8996
v -958.6978 281.0073 -277.2013
v -918.5332 281.0073 -277.2013
v -958.6978 280.1829 -278.0258
v -918.5332 280.1829 -278.0258
v -878.3687 280.1829 -280.278
v -878.3687 279.8812 -279.1519
v -878.3687 281.0074 -281.1023
v -878.3687 282.1335 -281.4041
v -878.3687 283.2597 -281.1023
v -878.3687 284.0839 -280.278
v -878.3687 284.3857 -279.1518
v -878.3687 284.0839 -278.0257
v -878.3687 283.2596 -277.2013
v -878.3687 282.1334 -276.8996
v -878.3687 281.0073 -277.2013
v -878.3687 280.1829 -278.0258
v -838.204 280.1829 -280.278
v -838.204 279.8812 -279.1519
v -838.204 281.0074 -281.1023
v -838.204 282.1335 -281.4041
v -838.204 283.2597 -281.1023
v -838.204 284.0839 -280.278
v -838.204 284.3857 -279.1518
v -838.204 284.0839 -278.0257
v -838.204 283.2596 -277.2013
v -838.204 282.1334 -276.8996
v -838.204 281.0073 -277.2013
v -838.204 280.1829 -278.0258
vt 0.9876 0.5241
vt 0.9633 0.5241
vt 0.9633 0.0053
vt 0.9876 0.0053
vt 0.9391 0.5241
vt 0.9391 0.0053
vt 0.9148 0.5241
vt 0.9148 0.0053
vt 0.8906 0.5241
vt 0.8906 0.0053
vt 0.8663 0.5241
vt 0.8663 0.0053
vt 0.8421 0.5241
vt 0.8421 0.0053
vt 0.8178 0.5241
vt 0.8178 0.0053
vt 0.7936 0.5241
vt 0.7936 0.0053
vt 0.7694 0.5241
vt 0.7694 0.0053
vt 0.7451 0.5241
vt 0.7451 0.0053
vt 0.7209 0.5241
vt 0.7209 0.0053
vt 0.6966 0.5241
vt 0.6966 0.0053
vt 0.9876 0.4502
vt 0.9633 0.4502
vt 0.9391 0.4502
vt 0.9148 0.4502
vt 0.8906 0.4502
vt 0.8663 0.4502
vt 0.8421 0.4502
vt 0.8178 0.4502
vt 0.7936 0.4502
vt 0.7694 0.4502
vt 0.7451 0.4502
vt 0.7209 0.4502
vt 0.6966 0.4502
vn 0.0 -1.0 0.0
vn 0.0 -0.866 -0.5
vn 0.0 -0.866 -0.5
vn 0.0 -1.0 -0.0
vn 0.0 -0.5 -0.866
vn 0.0 -0.5 -0.866
vn 0.0 -0.0 -1.0
vn 0.0 -0.0 -1.0
vn 0.0 0.5001 -0.866
vn 0.0 0.5 -0.866
vn 0.0 0.866 -0.5
vn 0.0 0.866 -0.5
vn 0.0 1.0 0.0
vn 0.0 1.0 0.0
vn 0.0 0.866 0.5
vn 0.0 0.866 0.5
vn 0.0 0.5 0.866
vn 0.0 0.5 0.866
vn 0.0 -0.0 1.0
vn 0.0 -0.0 1.0
vn 0.0 -0.5 0.866
vn 0.0 -0.5 0.866
vn 0.0 -0.866 0.5
vn 0.0 -0.866 0.5
vn 0.0 -1.0 0.0
vn 0.0 -0.866 -0.5
vn 0.0 -0.5 -0.866
vn 0.0 -0.0 -1.0
vn 0.0 0.5 -0.866
vn 0.0 0.866 -0.5
vn 0.0 1.0 0.0
vn 0.0 0.866 0.5
vn 0.0 0.5 0.866
vn 0.0 -0.0 1.0
vn 0.0 -0.5 0.866
vn 0.0 -0.866 0.5
vn 0.0 -1.0 0.0
vn 0.0 -0.866 -0.5
vn 0.0 -0.5 -0.866
vn 0.0 -0.0 -1.0
vn 0.0 0.5 -0.866
vn 0.0 0.866 -0.5
vn 0.0 1.0 0.0
vn 0.0 0.866 0.5
vn 0.0 0.5 0.866
vn 0.0 -0.0 1.0
vn 0.0 -0.5 0.866
vn 0.0 -0.866 0.5
vn 0.0 -1.0 0.0
vn 0.0 -0.866 -0.5
vn 0.0 -0.5 -0.866
vn 0.0 -0.0 -1.0
vn 0.0 0.5001 -0.866
vn 0.0 0.866 -0.5
vn 0.0 1.0 -0.0
vn 0.0 0.866 0.5
vn 0.0 0.5 0.866
vn 0.0 -0.0 1.0
vn 0.0 -0.5 0.866
vn 0.0 -0.866 0.5
vn 0.0 -0.866 -0.5
vn 0.0 -0.866 -0.5
vn 0.0 -1.0 0.0
vn 0.0 -1.0 -0.0
vn 0.0 -0.5 -0.866
vn 0.0 -0.5 -0.866
vn 0.0 -0.0 -1.0
vn 0.0 -0.0 -1.0
vn 0.0 0.5 -0.866
vn 0.0 0.5001 -0.866
vn 0.0 0.866 -0.5
vn 0.0 0.866 -0.5
vn 0.0 1.0 0.0
vn 0.0 1.0 -0.0
vn 0.0 0.866 0.5
vn 0.0 0.866 0.5
vn 0.0 0.5 0.866
vn 0.0 0.5 0.866
vn 0.0 -0.0 1.0
vn 0.0 -0.0 1.0
vn 0.0 -0.5 0.866
vn 0.0 -0.5 0.866
vn 0.0 -0.866 0.5
vn 0.0 -0.866 -0.5
vn 0.0 -1.0 0.0
vn 0.0 -0.5 -0.866
vn 0.0 -0.0 -1.0
vn 0.0 0.5 -0.866
vn 0.0 0.866 -0.5
vn 0.0 1.0 0.0
vn 0.0 0.866 0.5
vn 0.0 0.5 0.866
vn 0.0 -0.0 1.0
vn 0.0 -0.5 0.866
vn 0.0 -0.866 0.5
vn 0.0 -0.866 -0.5
vn 0.0 -1.0 0.0
vn 0.0 -0.5 -0.866
vn 0.0 -0.0 -1.0
vn 0.0 0.5 -0.866
vn 0.0 0.866 -0.5
vn 0.0 1.0 0.0
vn 0.0 0.866 0.5
vn 0.0 0.5 0.866
vn 0.0 -0.0 1.0
vn 0.0 -0.5 0.866
vn 0.0 -0.866 0.5
vtan 0.0 0.0 1.0 1.0
vtan 0.0 -0.5 0.866 1.0
vtan 0.0 -0.5 0.866 1.0
vtan 0.0 -0.0 1.0 1.0
vtan 0.0 -0.866 0.5 1.0
vtan 0.0 -0.866 0.5 1.0
vtan 0.0 -1.0 0.0 1.0
vtan 0.0 -1.0 0.0 1.0
vtan 0.0 -0.866 -0.5001 1.0
vtan 0.0 -0.866 -0.5 1.0
vtan 0.0 -0.5 -0.866 1.0
vtan 0.0 -0.5 -0.866 1.0
vtan 0.0 0.0 -1.0 1.0
vtan 0.0 0.0 -1.0 1.0
vtan 0.0 0.5 -0.866 1.0
vtan 0.0 0.5 -0.866 1.0
vtan 0.0 0.866 -0.5 1.0
vtan 0.0 0.866 -0.5 1.0
vtan 0.0 1.0 0.0 1.0
vtan 0.0 1.0 0.0 1.0
vtan 0.0 0.866 0.5 1.0
vtan 0.0 0.866 0.5 1.0
vtan 0.0 0.5 0.866 1.0
vtan 0.0 0.5 0.866 1.0
vtan 0.0 0.0 1.0 1.0
vtan 0.0 -0.0 1.0 1.0
vtan 0.0 -0.5 0.866 1.0
vtan 0.0 0.0 1.0 1.0
vtan 0.0 0.0 1.0 1.0
vtan 0.0 -0.5 0.866 1.0
vtan 0.0 -0.866 0.5 1.0
vtan 0.0 -0.866 0.5 1.0
vtan 0.0 -1.0 0.0 1.0
vtan 0.0 -0.866 -0.5 1.0
vtan 0.0 -0.5 -0.866 1.0
vtan 0.0 0.0 -1.0 1.0
vtan 0.0 0.0 -1.0 1.0
vtan 0.0 0.5 -0.866 1.0
vtan 0.0 0.5 -0.866 1.0
vtan 0.0 0.866 -0.5 1.0
vtan 0.0 0.866 -0.5 1.0
vtan 0.0 0.866 0.5 1.0
vtan 0.0 0.866 0.5 1.0
vtan 0.0 0.5 0.866 1.0
vtan 0.0 0.5 0.866 1.0
vtan 0.0 0.0 1.0 1.0
vtan 0.0 0.0 1.0 1.0
vtan 0.0 0.0 1.0 1.0
vtan 0.0 -0.5 0.866 1.0
vtan 0.0 -0.5 0.866 1.0
vtan 0.0 0.0 1.0 1.0
vtan 0.0 -0.866 0.5 1.0
vtan 0.0 -1.0 0.0 1.0
vtan 0.0 -0.866 -0.5 1.0
vtan 0.0 -0.866 -0.5 1.0
vtan 0.0 -0.5 -0.866 1.0
vtan 0.0 -0.5 -0.866 1.0
vtan 0.0 0.0 -1.0 1.0
vtan 0.0 0.0 -1.0 1.0
vtan 0.0 0.5 -0.866 1.0
vtan 0.0 0.5 -0.866 1.0
vtan 0.0 0.866 -0.5 1.0
vtan 0.0 0.866 -0.5 1.0
vtan 0.0 1.0 0.0 1.0
vtan 0.0 0.866 0.5 1.0
vtan 0.0 0.866 0.5 1.0
vtan 0.0 0.5 0.866 1.0
vtan 0.0 0.5 0.866 1.0
vtan 0.0 0.0 1.0 1.0
vtan 0.0 0.0 1.0 1.0
vtan 0.0 0.0 1.0 1.0
vtan 0.0 -0.5 0.866 1.0
vtan 0.0 0.0 1.0 1.0
vtan 0.0 -0.866 0.5 1.0
vtan 0.0 -0.866 0.5 1.0
vtan 0.0 -1.0 0.0 1.0
vtan 0.0 -1.0 0.0 1.0
vtan 0.0 -0.866 -0.5001 1.0
vtan 0.0 -0.866 -0.5 1.0
vtan 0.0 -0.5 -0.866 1.0
vtan 0.0 -0.5 -0.866 1.0
vtan 0.0 -0.0 -1.0 1.0
vtan 0.0 0.0 -1.0 1.0
vtan 0.0 0.5 -0.866 1.0
vtan 0.0 0.866 -0.5 1.0
vtan 0.0 1.0 0.0 1.0
vtan 0.0 1.0 0.0 1.0
vtan 0.0 0.866 0.5 1.0
vtan 0.0 0.866 0.5 1.0
vtan 0.0 0.5 0.866 1.0
vtan 0.0 0.5 0.866 1.0
vtan 0.0 0.0 1.0 1.0
vtan 0.0 0.0 1.0 1.0
vtan 0.0 -0.5 0.866 -1.0
vtan 0.0 -0.5 0.866 -1.0
vtan 0.0 -0.0 1.0 -1.0
vtan 0.0 -0.866 0.5 -1.0
vtan 0.0 -0.866 0.5 -1.0
vtan 0.0 -1.0 0.0 -1.0
vtan 0.0 -1.0 0.0 -1.0
vtan 0.0 -0.866 -0.5 -1.0
vtan 0.0 -0.866 -0.5001 -1.0
vtan 0.0 -0.5 -0.866 -1.0
vtan 0.0 -0.5 -0.866 -1.0
vtan 0.0 0.0 -1.0 -1.0
vtan 0.0 -0.0 -1.0 -1.0
vtan 0.0 0.5 -0.866 -1.0
vtan 0.0 0.5 -0.866 -1.0
vtan 0.0 0.866 -0.5 -1.0
vtan 0.0 0.866 -0.5 -1.0
vtan 0.0 1.0 0.0 -1.0
vtan 0.0 0.866 0.5 -1.0
vtan 0.0 0.866 0.5 -1.0
vtan 0.0 0.5 0.866 -1.0
vtan 0.0 -0.0 1.0 -1.0
vtan 0.0 -0.5 0.866 -1.0
vtan 0.0 -0.866 0.5 -1.0
vtan 0.0 -0.866 0.5 -1.0
vtan 0.0 -1.0 0.0 -1.0
vtan 0.0 -1.0 0.0 -1.0
vtan 0.0 -0.866 -0.5001 -1.0
vtan 0.0 -0.866 -0.5001 -1.0
vtan 0.0 -0.5 -0.866 -1.0
vtan 0.0 -0.5 -0.866 -1.0
vtan 0.0 -0.0 -1.0 -1.0
vtan 0.0 0.0 -1.0 -1.0
vtan 0.0 0.5 -0.866 -1.0
vtan 0.0 0.5 -0.866 -1.0
vtan 0.0 0.866 -0.5 -1.0
vtan 0.0 0.866 -0.5 -1.0
vtan 0.0 1.0 0.0 -1.0
vtan 0.0 1.0 0.0 -1.0
vtan 0.0 0.866 0.5 -1.0
vtan 0.0 0.5 0.866 -1.0
vtan 0.0 0.5 0.866 -1.0
vtan 0.0 0.0 1.0 -1.0
vtan 0.0 -0.5 0.866 -1.0
vtan 0.0 0.0 1.0 -1.0
vtan 0.0 -0.866 0.5 -1.0
vtan 0.0 -0.866 0.5 -1.0
vtan 0.0 -1.0 0.0 -1.0
vtan 0.0 -1.0 0.0 -1.0
vtan 0.0 -0.866 -0.5 -1.0
vtan 0.0 -0.866 -0.5 -1.0
vtan 0.0 -0.5 -0.866 -1.0
vtan 0.0 -0.5 -0.866 -1.0
vtan 0.0 0.0 -1.0 -1.0
vtan 0.0 0.0 -1.0 -1.0
vtan 0.0 0.5 -0.866 -1.0
vtan 0.0 0.5 -0.866 -1.0
vtan 0.0 0.866 -0.5 -1.0
vtan 0.0 0.866 -0.5 -1.0
vtan 0.0 1.0 0.0 -1.0
vtan 0.0 1.0 0.0 -1.0
vtan 0.0 0.866 0.5 -1.0
vtan 0.0 0.866 0.5 -1.0
vtan 0.0 0.5 0.866 -1.0
vtan 0.0 0.5 0.866 -1.0
vtan 0.0 0.0 1.0 -1.0
vtan 0.0 0.0 1.0 -1.0
vtan 0.0 -0.5 0.866 -1.0
vtan 0.0 -0.5 0.866 -1.0
vtan 0.0 0.0 1.0 -1.0
vtan 0.0 -0.866 0.5 -1.0
vtan 0.0 -0.866 0.5 -1.0
vtan 0.0 -1.0 0.0 -1.0
vtan 0.0 -0.866 -0.5 -1.0
vtan 0.0 -0.866 -0.5001 -1.0
vtan 0.0 -0.5 -0.866 -1.0
vtan 0.0 -0.0 -1.0 -1.0
vtan 0.0 0.5 -0.866 -1.0
vtan 0.0 0.866 -0.5 -1.0
vtan 0.0 1.0 0.0 -1.0
vtan 0.0 0.866 0.5 -1.0
vtan 0.0 0.866 0.5 -1.0
vtan 0.0 0.5 0.866 -1.0
f 0/0/0/0 1/1/1/1 2/2/2/2 
f 0/0/0/0 2/2/2/2 3/3/3/3 
f 1/1/1/1 4/4/4/4 5/5/5/5 
f 1/1/1/1 5/5/5/5 2/2/2/2 
f 4/4/4/4 6/6/6/6 7/7/7/7 
f 4/4/4/4 7/7/7/7 5/5/5/5 
f 6/6/6/6 8/8/8/8 9/9/9/9 
f 6/6/6/6 9/9/9/9 7/7/7/7 
f 8/8/8/8 10/10/10/10 11/11/11/11 
f 8/8/8/8 11/11/11/11 9/9/9/9 
f 10/10/10/10 12/12/12/12 13/13/13/13 
f 10/10/10/10 13/13/13/13 11/11/11/11 
f 12/12/12/12 14/14/14/14 15/15/15/15 
f 12/12/12/12 15/15/15/15 13/13/13/13 
f 14/14/14/14 16/16/16/16 17/17/17/17 
f 14/14/14/14 17/17/17/17 15/15/15/15 
f 16/16/16/16 18/18/18/18 19/19/19/19 
f 16/16/16/16 19/19/19/19 17/17/17/17 
f 18/18/18/18 20/20/20/20 21/21/21/21 
f 18/18/18/18 21/21/21/21 19/19/19/19 
f 20/20/20/20 22/22/22/22 23/23/23/23 
f 20/20/20/20 23/23/23/23 21/21/21/21 
f 22/22/22/22 0/24/0/24 3/25/3/25 
f 22/22/22/22 3/25/3/25 23/23/23/23 
f 1/2/1/26 0/3/0/27 24/0/24/28 
f 1/2/1/26 24/0/24/28 25/1/25/29 
f 25/1/25/29 26/4/26/30 4/5/4/31 
f 25/1/25/29 4/5/4/31 1/2/1/26 
f 26/4/26/30 27/6/27/6 6/7/6/32 
f 26/4/26/30 6/7/6/32 4/5/4/31 
f 27/6/27/6 28/8/28/33 8/9/8/8 
f 27/6/27/6 8/9/8/8 6/7/6/32 
f 28/8/28/33 29/10/29/34 10/11/10/10 
f 28/8/28/33 10/11/10/10 8/9/8/8 
f 29/10/29/34 30/12/30/35 12/13/12/36 
f 29/10/29/34 12/13/12/36 10/11/10/10 
f 30/12/30/35 31/14/31/37 14/15/14/38 
f 30/12/30/35 14/15/14/38 12/13/12/36 
f 31/14/31/37 32/16/32/39 16/17/16/40 
f 31/14/31/37 16/17/16/40 14/15/14/38 
f 32/16/32/39 33/18/33/18 18/19/18/18 
f 32/16/32/39 18/19/18/18 16/17/16/40 
f 33/18/33/18 34/20/34/41 20/21/20/42 
f 33/18/33/18 20/21/20/42 18/19/18/18 
f 34/20/34/41 35/22/35/43 22/23/22/44 
f 34/20/34/41 22/23/22/44 20/21/20/42 
f 0/25/0/45 22/23/22/44 35/22/35/43 
f 0/25/0/45 35/22/35/43 24/24/24/46 
f 36/0/36/47 37/1/37/48 25/2/25/49 
f 36/0/36/47 25/2/25/49 24/3/24/50 
f 37/1/37/48 38/4/38/51 26/5/26/30 
f 37/1/37/48 26/5/26/30 25/2/25/49 
f 38/4/38/51 39/6/39/52 27/7/27/32 
f 38/4/38/51 27/7/27/32 26/5/26/30 
f 39/6/39/52 40/8/40/53 28/9/28/54 
f 39/6/39/52 28/9/28/54 27/7/27/32 
f 40/8/40/53 41/10/41/55 29/11/29/56 
f 40/8/40/53 29/11/29/56 28/9/28/54 
f 41/10/41/55 42/12/42/57 30/13/30/58 
f 41/10/41/55 30/13/30/58 29/11/29/56 
f 42/12/42/57 43/14/43/59 31/15/31/60 
f 42/12/42/57 31/15/31/60 30/13/30/58 
f 43/14/43/59 44/16/44/61 32/17/32/62 
f 43/14/43/59 32/17/32/62 31/15/31/60 
f 44/16/44/61 45/18/45/63 33/19/33/18 
f 44/16/44/61 33/19/33/18 32/17/32/62 
f 45/18/45/63 46/20/46/64 34/21/34/65 
f 45/18/45/63 34/21/34/65 33/19/33/18 
f 46/20/46/64 47/22/47/66 35/23/35/67 
f 46/20/46/64 35/23/35/67 34/21/34/65 
f 47/22/47/66 36/24/36/68 24/25/24/69 
f 47/22/47/66 24/25/24/69 35/23/35/67 
f 48/26/48/70 49/27/49/71 37/2/37/1 
f 48/26/48/70 37/2/37/1 36/3/36/72 
f 49/27/49/71 50/28/50/73 38/5/38/74 
f 49/27/49/71 38/5/38/74 37/2/37/1 
f 50/28/50/73 51/29/51/75 39/7/39/76 
f 50/28/50/73 39/7/39/76 38/5/38/74 
f 51/29/51/75 52/30/52/77 40/9/40/78 
f 51/29/51/75 40/9/40/78 39/7/39/76 
f 52/30/52/77 53/31/53/79 41/11/41/80 
f 52/30/52/77 41/11/41/80 40/9/40/78 
f 53/31/53/79 54/32/54/81 42/13/42/82 
f 53/31/53/79 42/13/42/82 41/11/41/80 
f 54/32/54/81 55/33/55/83 43/15/43/59 
f 54/32/54/81 43/15/43/59 42/13/42/82 
f 55/33/55/83 56/34/56/84 44/17/44/40 
f 55/33/55/83 44/17/44/40 43/15/43/59 
f 56/34/56/84 57/35/57/85 45/19/45/86 
f 56/34/56/84 45/19/45/86 44/17/44/40 
f 57/35/57/85 58/36/58/87 46/21/46/88 
f 57/35/57/85 46/21/46/88 45/19/45/86 
f 58/36/58/87 59/37/59/89 47/23/47/90 
f 58/36/58/87 47/23/47/90 46/21/46/88 
f 59/37/59/89 48/38/48/91 36/25/36/92 
f 59/37/59/89 36/25/36/92 47/23/47/90 
f 60/2/60/93 61/1/61/94 62/0/62/0 
f 60/2/60/93 62/0/62/0 63/3/63/95 
f 64/5/64/96 65/4/65/97 61/1/61/94 
f 64/5/64/96 61/1/61/94 60/2/60/93 
f 66/7/66/98 67/6/67/99 65/4/65/97 
f 66/7/66/98 65/4/65/97 64/5/64/96 
f 68/9/68/100 69/8/69/101 67/6/67/99 
f 68/9/68/100 67/6/67/99 66/7/66/98 
f 70/11/70/102 71/10/71/103 69/8/69/101 
f 70/11/70/102 69/8/69/101 68/9/68/100 
f 72/13/72/104 73/12/73/105 71/10/71/103 
f 72/13/72/104 71/10/71/103 70/11/70/102 
f 74/15/74/106 75/14/75/107 73/12/73/105 
f 74/15/74/106 73/12/73/105 72/13/72/104 
f 76/17/76/108 77/16/77/109 75/14/75/107 
f 76/17/76/108 75/14/75/107 74/15/74/106 
f 78/19/78/110 79/18/79/18 77/16/77/109 
f 78/19/78/110 77/16/77/109 76/17/76/108 
f 80/21/80/111 81/20/81/112 79/18/79/18 
f 80/21/80/111 79/18/79/18 78/19/78/110 
f 82/23/23/23 83/22/82/113 81/20/81/112 
f 82/23/23/23 81/20/81/112 80/21/80/111 
f 63/25/63/114 62/24/62/24 83/22/82/113 
f 63/25/63/114 83/22/82/113 82/23/23/23 
f 61/2/61/94 84/1/83/115 85/0/84/27 
f 61/2/61/94 85/0/84/27 62/3/62/27 
f 65/5/65/116 86/4/85/117 84/1/83/115 
f 65/5/65/116 84/1/83/115 61/2/61/94 
f 67/7/67/118 87/6/86/119 86/4/85/117 
f 67/7/67/118 86/4/85/117 65/5/65/116 
f 69/9/69/120 88/8/87/121 87/6/86/119 
f 69/9/69/120 87/6/86/119 67/7/67/118 
f 71/11/71/122 89/10/88/123 88/8/87/121 
f 71/11/71/122 88/8/87/121 69/9/69/120 
f 73/13/73/124 90/12/89/125 89/10/88/123 
f 73/13/73/124 89/10/88/123 71/11/71/122 
f 75/15/75/126 91/14/90/127 90/12/89/125 
f 75/15/75/126 90/12/89/125 73/13/73/124 
f 77/17/77/128 92/16/91/129 91/14/90/127 
f 77/17/77/128 91/14/90/127 75/15/75/126 
f 79/19/79/130 93/18/92/131 92/16/91/129 
f 79/19/79/130 92/16/91/129 77/17/77/128 
f 81/21/81/112 94/20/93/132 93/18/92/131 
f 81/21/81/112 93/18/92/131 79/19/79/130 
f 83/23/82/133 95/22/94/134 94/20/93/132 
f 83/23/82/133 94/20/93/132 81/21/81/112 
f 62/25/62/135 85/24/84/24 95/22/94/134 
f 62/25/62/135 95/22/94/134 83/23/82/133 
f 84/2/83/115 96/1/95/136 97/0/96/137 
f 84/2/83/115 97/0/96/137 85/3/84/27 
f 86/5/85/138 98/4/97/139 96/1/95/136 
f 86/5/85/138 96/1/95/136 84/2/83/115 
f 87/7/86/140 99/6/98/141 98/4/97/139 
f 87/7/86/140 98/4/97/139 86/5/85/138 
f 88/9/87/142 100/8/99/143 99/6/98/141 
f 88/9/87/142 99/6/98/141 87/7/86/140 
f 89/11/88/144 101/10/100/145 100/8/99/143 
f 89/11/88/144 100/8/99/143 88/9/87/142 
f 90/13/89/146 102/12/101/147 101/10/100/145 
f 90/13/89/146 101/10/100/145 89/11/88/144 
f 91/15/90/148 103/14/102/149 102/12/101/147 
f 91/15/90/148 102/12/101/147 90/13/89/146 
f 92/17/91/150 104/16/103/151 103/14/102/149 
f 92/17/91/150 103/14/102/149 91/15/90/148 
f 93/19/92/152 105/18/104/153 104/16/103/151 
f 93/19/92/152 104/16/103/151 92/17/91/150 
f 94/21/93/154 106/20/105/155 105/18/104/153 
f 94/21/93/154 105/18/104/153 93/19/92/152 
f 95/23/94/156 107/22/106/157 106/20/105/155 
f 95/23/94/156 106/20/105/155 94/21/93/154 
f 85/25/84/158 97/24/96/159 107/22/106/157 
f 85/25/84/158 107/22/106/157 95/23/94/156 
f 96/2/95/160 49/27/49/161 48/26/48/70 
f 96/2/95/160 48/26/48/70 97/3/96/162 
f 98/5/97/163 50/28/50/164 49/27/49/161 
f 98/5/97/163 49/27/49/161 96/2/95/160 
f 99/7/98/165 51/29/51/75 50/28/50/164 
f 99/7/98/165 50/28/50/164 98/5/97/163 
f 100/9/99/166 52/30/52/167 51/29/51/75 
f 100/9/99/166 51/29/51/75 99/7/98/165 
f 101/11/100/168 53/31/53/79 52/30/52/167 
f 101/11/100/168 52/30/52/167 100/9/99/166 
f 102/13/101/147 54/32/54/169 53/31/53/79 
f 102/13/101/147 53/31/53/79 101/11/100/168 
f 103/15/102/170 55/33/55/83 54/32/54/169 
f 103/15/102/170 54/32/54/169 102/13/101/147 
f 104/17/103/171 56/34/56/84 55/33/55/83 
f 104/17/103/171 55/33/55/83 103/15/102/170 
f 105/19/104/172 57/35/57/85 56/34/56/84 
f 105/19/104/172 56/34/56/84 104/17/103/171 
f 106/21/105/173 58/36/58/174 57/35/57/85 
f 106/21/105/173 57/35/57/85 105/19/104/172 
f 107/23/106/175 59/37/59/89 58/36/58/174 
f 107/23/106/175 58/36/58/174 106/21/105/173 
f 97/25/96/159 48/38/48/91 59/37/59/89 
f 97/25/96/159 59/37/59/89 107/23/106/175 
