v -1424.1924 664.232 -639.178
v -1424.1924 664.232 -645.2879
v -1423.5601 670.6964 -645.2879
v -1423.5601 670.6964 -638.3562
v -1424.6558 660.3633 -639.7613
v -1424.6558 660.3633 -645.2879
v -1422.8682 662.2976 -645.2879
v -1422.8682 662.2976 -637.6375
v -1418.7144 690.9597 -632.4528
v -1418.7144 690.9597 -645.2879
v -1417.0488 693.1412 -645.2879
v -1417.0488 693.1412 -630.4853
v -1418.7144 695.3228 -645.2879
v -1418.7144 695.3228 -632.5305
v -1421.4199 679.6954 -635.7552
v -1421.4199 679.6954 -645.2879
v -1418.7144 686.5966 -645.2879
v -1418.7144 686.5966 -632.4176
v -1424.0337 670.6964 -637.7747
v -1424.6841 664.232 -638.5738
v -1419.208 690.9597 -631.8465
v -1419.1938 686.5966 -631.8288
v -1417.5747 693.1412 -629.8397
v -1419.2393 695.3228 -631.8852
v -1421.9053 679.6954 -635.1598
v -1425.6514 660.3633 -639.7621
v -1430.1499 660.3633 -645.2885
v -1423.3945 662.2976 -636.99
v -1425.1533 660.3633 -639.15
v -1430.1499 695.3228 -645.2885
v -1425.1758 664.232 -637.9694
v -1424.5068 670.6964 -637.1931
v -1430.1494 670.6964 -637.1933
v -1430.1494 664.232 -637.9694
v -1425.6509 660.3633 -638.539
v -1423.9219 662.2976 -636.3424
v -1430.1494 662.2976 -636.3424
v -1430.1494 660.3633 -638.539
v -1419.7017 690.9597 -631.2399
v -1418.1001 693.1412 -629.1941
v -1430.1494 693.1412 -629.194
v -1430.1494 690.9597 -631.2399
v -1419.7651 695.3228 -631.24
v -1430.1494 695.3228 -631.2399
v -1422.3896 679.6954 -634.5644
v -1419.6729 686.5966 -631.2399
v -1430.1494 686.5966 -631.2399
v -1430.1494 679.6954 -634.5644
vt 0.4476 0.6742
vt 0.4476 0.6911
vt 0.4439 0.6911
vt 0.427 0.6742
vt 0.4457 0.6929
vt 0.5504 0.8881
vt 0.5337 0.8881
vt 0.5337 0.9084
vt 0.5526 0.9084
vt 0.9865 0.7672
vt 0.9619 0.7672
vt 0.9632 0.7791
vt 0.9959 0.7791
vt 0.5546 0.882
vt 0.5337 0.882
vt 0.5687 0.9721
vt 0.5337 0.9721
vt 0.5337 0.979
vt 0.5741 0.979
vt 0.5337 0.9859
vt 0.5685 0.9859
vt 0.5597 0.9367
vt 0.5337 0.9367
vt 0.5337 0.9584
vt 0.5688 0.9584
vt 0.6071 0.8899
vt 0.605 0.8907
vt 0.6028 0.9094
vt 0.605 0.9099
vt 0.5867 0.9726
vt 0.5888 0.9735
vt 0.5887 0.9599
vt 0.5865 0.9593
vt 0.5815 0.9806
vt 0.5834 0.9806
vt 0.5871 0.99
vt 0.589 0.988
vt 0.5978 0.9381
vt 0.5957 0.9372
vt 0.6007 0.8862
vt 0.6028 0.8842
vt 0.0107 0.7672
vt 0.0079 0.7672
vt 0.0078 0.7789
vt 0.0104 0.779
vt 0.0105 0.8749
vt 0.0091 0.876
vt 0.0091 0.8976
vt 0.0406 0.8976
vn 0.0 -1.0 0.0
vn 0.0 -1.0 0.0
vn 0.0 -1.0 -0.0
vn 0.9118 0.3114 0.2675
vn 0.9686 0.2488 0.0
vn 0.9863 -0.1647 0.0
vn 0.9231 -0.2214 0.3144
vn 0.4051 -0.9097 0.0916
vn 0.401 -0.9161 0.0
vn 0.9973 -0.0728 0.0
vn 0.915 -0.0672 0.3978
vn 0.8773 -0.4015 0.2631
vn 0.9473 -0.3203 0.0
vn 1.0 -0.0 0.0
vn 0.9163 0.0032 0.4005
vn 0.4434 0.8963 0.0
vn 0.4484 0.8877 0.1047
vn 0.8736 -0.3895 0.2915
vn 0.9543 -0.2989 0.0
vn 0.9826 -0.1857 0.0
vn 0.9078 -0.2349 0.3475
vn 0.7354 0.318 0.5984
vn 0.7508 -0.2505 0.6112
vn 0.7057 -0.4145 0.5745
vn 0.7473 -0.2678 0.6081
vn 0.7754 0.0047 0.6314
vn 0.2665 0.9391 0.217
vn 0.6984 -0.4345 0.5687
vn 0.7734 -0.0759 0.6293
vn 0.2357 -0.9527 0.1918
vn 0.0 1.0 0.0
vn 0.3715 0.3627 0.8547
vn 0.408 -0.2541 0.8769
vn -0.0 -0.2005 0.9797
vn 0.0 0.2859 0.9583
vn 0.1381 -0.9239 0.3568
vn 0.4598 -0.0629 0.8858
vn 0.0 -0.0747 0.9972
vn 0.0 -0.9355 0.3534
vn 0.3558 -0.462 0.8124
vn 0.4625 0.0025 0.8866
vn 0.0 0.0 1.0
vn 0.0 -0.3678 0.9299
vn 0.1561 0.9026 0.4012
vn 0.0 0.9176 0.3974
vn 0.3737 -0.4407 0.8161
vn 0.4273 -0.251 0.8686
vn 0.0 -0.2226 0.9749
vn -0.0 -0.3584 0.9336
vtan 1.0 0.0 0.0002 1.0
vtan 1.0 0.0 0.0008 1.0
vtan 1.0 0.0 0.0006 1.0
vtan 1.0 0.0 0.0001 1.0
vtan 1.0 0.0 0.0008 1.0
vtan 0.0001 0.0 1.0 -1.0
vtan 0.0004 0.0 1.0 -1.0
vtan 0.0004 0.0 1.0 -1.0
vtan 0.0004 0.0 1.0 -1.0
vtan 0.0004 -0.0 1.0 -1.0
vtan 0.0004 -0.0 1.0 -1.0
vtan 0.0004 -0.0 1.0 -1.0
vtan -0.2532 -0.0865 0.9635 -1.0
vtan 0.0 0.0 1.0 -1.0
vtan 0.0 0.0 1.0 -1.0
vtan -0.3058 0.0733 0.9493 -1.0
vtan -0.0373 0.0837 0.9958 -1.0
vtan -0.0 0.0 1.0 -1.0
vtan -0.3968 0.0291 0.9175 -1.0
vtan -0.3968 0.0291 0.9175 -1.0
vtan -0.2393 0.1095 0.9648 -1.0
vtan -0.4005 -0.0014 0.9163 -1.0
vtan -0.0472 -0.0935 0.9945 -1.0
vtan -0.2663 0.1187 0.9566 -1.0
vtan -0.3364 0.087 0.9377 -1.0
vtan -0.6756 0.4112 0.6119 -1.0
vtan -0.4013 0.5381 0.7412 -1.0
vtan -0.3696 -0.2851 0.8844 -1.0
vtan -0.6588 -0.217 0.7204 -1.0
vtan -0.4488 -0.4918 0.7461 -1.0
vtan -0.7031 -0.3107 0.6396 -1.0
vtan -0.6637 -0.256 0.7028 -1.0
vtan -0.4118 -0.3416 0.8448 -1.0
vtan -0.4005 0.0249 0.916 -1.0
vtan -0.6314 0.0 0.7754 -1.0
vtan -0.8835 0.4223 0.2028 -1.0
vtan -0.943 0.2075 0.2603 -1.0
vtan -0.7129 -0.3518 0.6067 -1.0
vtan -0.4655 -0.4949 0.7337 -1.0
vtan -0.2213 0.7408 0.6342 -1.0
vtan -0.4284 0.6691 0.6072 -1.0
vtan -0.6348 -0.0015 0.7727 -1.0
vtan -0.5662 -0.171 0.8064 -1.0
vtan -0.4008 -0.038 0.9154 -1.0
vtan -0.6323 -0.0217 0.7744 -1.0
vtan -0.9638 0.2605 0.0562 -1.0
vtan -0.8938 0.4464 0.0432 -1.0
vtan -0.8963 0.4434 -0.0003 -1.0
vtan -1.0 0.0 -0.0 -1.0
vtan 0.9284 -0.1451 -0.342 1.0
vtan 0.913 0.1135 -0.3919 1.0
vtan 1.0 -0.0 0.0 1.0
vtan 1.0 0.0 0.0 1.0
vtan 0.9904 0.1289 -0.0498 1.0
vtan 0.888 0.0326 -0.4587 1.0
vtan 1.0 0.0 -0.0 1.0
vtan 0.888 0.0326 -0.4587 1.0
vtan 0.9346 0.1759 -0.3093 1.0
vtan 0.8866 -0.0013 -0.4625 1.0
vtan 1.0 0.0 -0.0 1.0
vtan 0.9877 -0.1427 -0.0634 1.0
vtan 1.0 0.0 -0.0 1.0
vtan 0.9275 0.1776 -0.3288 1.0
vtan 0.9041 0.1186 -0.4105 1.0
vtan 1.0 0.0 0.0 1.0
vtan 0.672 0.5301 -0.517 1.0
vtan 0.5125 0.3165 -0.7982 1.0
vtan 0.5793 -0.1947 -0.7915 1.0
vtan 0.8063 -0.3503 -0.4766 1.0
vtan 0.5554 -0.2507 -0.7929 1.0
vtan 0.4714 -0.3306 -0.8176 1.0
vtan 0.6473 -0.5053 -0.5708 1.0
vtan 0.7872 -0.3692 -0.494 1.0
vtan 0.6311 0.0238 -0.7753 1.0
vtan 0.8866 0.0011 -0.4625 1.0
vtan -0.0059 0.2267 -0.9739 1.0
vtan 0.1408 0.3817 -0.9135 1.0
vtan 0.6325 -0.5225 -0.5718 1.0
vtan 0.4626 -0.3324 -0.8219 1.0
vtan 0.5665 0.7889 -0.2381 1.0
vtan 0.5653 0.5317 -0.6306 1.0
vtan 0.63 -0.0173 -0.7764 1.0
vtan 0.8849 -0.0508 -0.463 1.0
vtan 0.6664 -0.1798 -0.7236 1.0
vtan 0.6314 0.0001 -0.7754 1.0
vtan -0.0002 0.3974 -0.9176 1.0
vtan 0.0635 0.3961 -0.916 1.0
vtan 0.0573 0.2093 -0.9762 1.0
vtan -0.0 0.0 -1.0 1.0
f 5/0/0/0 4/1/0/1 25/2/0/2 
f 5/0/0/0 25/2/0/2 26/3/0/3 
f 28/4/0/4 25/2/0/2 4/1/0/1 
f 37/0/0/5 26/3/0/5 25/2/0/5 
f 37/0/1/6 25/2/1/7 34/1/1/8 
f 28/4/2/9 34/1/2/10 25/2/2/11 
f 0/5/3/12 1/6/4/13 2/7/5/14 
f 0/5/3/12 2/7/5/14 3/8/6/15 
f 4/9/7/16 5/10/8/17 6/11/9/13 
f 4/9/7/16 6/11/9/13 7/12/10/18 
f 0/5/3/12 7/13/10/19 6/14/9/13 
f 0/5/3/12 6/14/9/13 1/6/4/13 
f 8/15/11/20 9/16/12/13 10/17/13/13 
f 8/15/11/20 10/17/13/13 11/18/14/21 
f 10/17/13/13 12/19/15/13 13/20/16/22 
f 10/17/13/13 13/20/16/22 11/18/14/21 
f 14/21/17/23 15/22/18/14 16/23/19/13 
f 14/21/17/23 16/23/19/13 17/24/20/24 
f 3/8/6/15 2/7/5/14 15/22/18/14 
f 3/8/6/15 15/22/18/14 14/21/17/23 
f 19/25/21/25 0/26/3/26 3/27/6/27 
f 19/25/21/25 3/27/6/27 18/28/22/28 
f 8/29/11/29 20/30/23/30 21/31/24/31 
f 8/29/11/29 21/31/24/31 17/32/20/32 
f 11/33/14/33 22/34/25/34 20/30/23/30 
f 11/33/14/33 20/30/23/30 8/29/11/29 
f 11/33/14/33 13/35/16/35 23/36/26/36 
f 11/33/14/33 23/36/26/36 22/34/25/34 
f 17/32/20/32 21/31/24/31 24/37/27/37 
f 17/32/20/32 24/37/27/37 14/38/17/38 
f 14/38/17/38 24/37/27/37 18/28/22/28 
f 14/38/17/38 18/28/22/28 3/27/6/27 
f 8/15/11/20 17/24/20/24 16/23/19/13 
f 8/15/11/20 16/23/19/13 9/16/12/13 
f 7/39/10/39 0/26/3/26 19/25/21/25 
f 7/39/10/39 19/25/21/25 27/40/28/40 
f 28/41/29/41 4/42/7/42 7/43/10/43 
f 28/41/29/41 7/43/10/43 27/44/28/44 
f 23/45/26/45 13/46/16/46 12/47/15/47 
f 23/45/26/45 12/47/15/47 29/48/30/48 
f 30/5/31/49 31/8/32/50 32/7/33/51 
f 30/5/31/49 32/7/33/51 33/6/34/52 
f 34/9/35/53 35/12/36/54 36/11/37/52 
f 34/9/35/53 36/11/37/52 37/10/38/55 
f 30/5/31/49 33/6/34/52 36/14/37/52 
f 30/5/31/49 36/14/37/52 35/13/36/56 
f 38/15/39/57 39/18/40/58 40/17/41/59 
f 38/15/39/57 40/17/41/59 41/16/42/52 
f 42/20/43/60 43/19/44/61 40/17/41/59 
f 42/20/43/60 40/17/41/59 39/18/40/58 
f 44/21/45/62 45/24/46/63 46/23/47/52 
f 44/21/45/62 46/23/47/52 47/22/48/64 
f 31/8/32/50 44/21/45/62 47/22/48/64 
f 31/8/32/50 47/22/48/64 32/7/33/51 
f 30/26/31/65 19/25/21/66 18/28/22/67 
f 30/26/31/65 18/28/22/67 31/27/32/68 
f 21/31/24/69 20/30/23/70 38/29/39/71 
f 21/31/24/69 38/29/39/71 45/32/46/72 
f 38/29/39/71 20/30/23/70 22/34/25/73 
f 38/29/39/71 22/34/25/73 39/33/40/74 
f 22/34/25/73 23/36/26/75 42/35/43/76 
f 22/34/25/73 42/35/43/76 39/33/40/74 
f 44/38/45/77 24/37/27/78 21/31/24/69 
f 44/38/45/77 21/31/24/69 45/32/46/72 
f 31/27/32/68 18/28/22/67 24/37/27/78 
f 31/27/32/68 24/37/27/78 44/38/45/77 
f 46/23/47/52 45/24/46/63 38/15/39/57 
f 46/23/47/52 38/15/39/57 41/16/42/52 
f 30/26/31/65 35/39/36/79 27/40/28/80 
f 30/26/31/65 27/40/28/80 19/25/21/66 
f 27/44/28/81 35/43/36/82 34/42/35/83 
f 27/44/28/81 34/42/35/83 28/41/29/84 
f 43/47/44/85 42/46/43/86 23/45/26/87 
f 43/47/44/85 23/45/26/87 29/48/30/88 
