v 790.1294 279.8812 199.0069
v 790.1294 280.1829 197.8808
v 830.2939 280.1829 197.8808
v 830.2939 279.8812 199.0069
v 790.1294 281.0073 197.0564
v 830.2939 281.0073 197.0564
v 790.1294 282.1334 196.7545
v 830.2939 282.1334 196.7545
v 790.1294 283.2596 197.0564
v 830.2939 283.2596 197.0564
v 790.1294 284.0839 197.8808
v 830.2939 284.0839 197.8808
v 790.1294 284.3857 199.0069
v 830.2939 284.3857 199.0069
v 790.1294 284.0839 200.1329
v 830.2939 284.0839 200.1329
v 790.1294 283.2596 200.9574
v 830.2939 283.2596 200.9574
v 790.1294 282.1334 201.259
v 830.2939 282.1334 201.259
v 790.1294 281.0073 200.9574
v 830.2939 281.0073 200.9574
v 790.1294 280.1829 200.1329
v 830.2939 280.1829 200.1329
v 749.9647 279.8812 199.0069
v 749.9647 280.1829 197.8808
v 749.9647 281.0073 197.0564
v 749.9647 282.1334 196.7545
v 749.9647 283.2596 197.0564
v 749.9647 284.0839 197.8808
v 749.9647 284.3857 199.0069
v 749.9647 284.0839 200.1329
v 749.9647 283.2596 200.9574
v 749.9647 282.1334 201.259
v 749.9647 281.0073 200.9574
v 749.9647 280.1829 200.1329
v 709.8002 279.8812 199.0069
v 709.8002 280.1829 197.8808
v 709.8002 281.0073 197.0564
v 709.8002 282.1334 196.7545
v 709.8002 283.2596 197.0564
v 709.8002 284.0839 197.8808
v 709.8002 284.3857 199.0069
v 709.8002 284.0839 200.1329
v 709.8002 283.2596 200.9574
v 709.8002 282.1334 201.259
v 709.8002 281.0073 200.9574
v 709.8002 280.1829 200.1329
v 675.3553 279.8812 199.0069
v 675.3553 280.1829 197.8808
v 675.3553 281.0073 197.0564
v 675.3553 282.1334 196.7545
v 675.3553 283.2596 197.0564
v 675.3553 284.0839 197.8808
v 675.3553 284.3857 199.0069
v 675.3553 284.0839 200.1329
v 675.3553 283.2596 200.9574
v 675.3553 282.1334 201.259
v 675.3553 281.0073 200.9574
v 675.3553 280.1829 200.1329
v 520.4168 280.1829 197.8808
v 560.5814 280.1829 197.8808
v 560.5814 279.8812 199.0069
v 520.4168 279.8812 199.0069
v 520.4168 281.0073 197.0564
v 560.5814 281.0073 197.0564
v 520.4168 282.1334 196.7545
v 560.5814 282.1334 196.7545
v 520.4168 283.2596 197.0564
v 560.5814 283.2596 197.0564
v 520.4168 284.0839 197.8808
v 560.5814 284.0839 197.8808
v 520.4168 284.3857 199.0069
v 560.5814 284.3857 199.0069
v 520.4168 284.0839 200.1329
v 560.5814 284.0839 200.1329
v 520.4168 283.2596 200.9574
v 560.5814 283.2596 200.9574
v 520.4168 282.1334 201.259
v 560.5814 282.1334 201.259
v 520.4168 281.0073 200.9574
v 560.5814 281.0073 200.9574
v 520.4168 280.1829 200.1329
v 560.5814 280.1829 200.1329
v 600.746 280.1829 197.8808
v 600.746 279.8812 199.0069
v 600.746 281.0073 197.0564
v 600.746 282.1334 196.7545
v 600.746 283.2596 197.0564
v 600.746 284.0839 197.8808
v 600.746 284.3857 199.0069
v 600.746 284.0839 200.1329
v 600.746 283.2596 200.9574
v 600.746 282.1334 201.259
v 600.746 281.0073 200.9574
v 600.746 280.1829 200.1329
v 640.9106 280.1829 197.8808
v 640.9106 279.8812 199.0069
v 640.9106 281.0073 197.0564
v 640.9106 282.1334 196.7545
v 640.9106 283.2596 197.0564
v 640.9106 284.0839 197.8808
v 640.9106 284.3857 199.0069
v 640.9106 284.0839 200.1329
v 640.9106 283.2596 200.9574
v 640.9106 282.1334 201.259
v 640.9106 281.0073 200.9574
v 640.9106 280.1829 200.1329
vt 0.9876 0.5241
vt 0.9633 0.5241
vt 0.9633 0.0053
vt 0.9876 0.0053
vt 0.9391 0.5241
vt 0.9391 0.0053
vt 0.9148 0.5241
vt 0.9148 0.0053
vt 0.8906 0.5241
vt 0.8906 0.0053
vt 0.8663 0.5241
vt 0.8663 0.0053
vt 0.8421 0.5241
vt 0.8421 0.0053
vt 0.8178 0.5241
vt 0.8178 0.0053
vt 0.7936 0.5241
vt 0.7936 0.0053
vt 0.7694 0.5241
vt 0.7694 0.0053
vt 0.7451 0.5241
vt 0.7451 0.0053
vt 0.7209 0.5241
vt 0.7209 0.0053
vt 0.6966 0.5241
vt 0.6966 0.0053
vt 0.9876 0.4502
vt 0.9633 0.4502
vt 0.9391 0.4502
vt 0.9148 0.4502
vt 0.8906 0.4502
vt 0.8663 0.4502
vt 0.8421 0.4502
vt 0.8178 0.4502
vt 0.7936 0.4502
vt 0.7694 0.4502
vt 0.7451 0.4502
vt 0.7209 0.4502
vt 0.6966 0.4502
vn 0.0 -1.0 -0.0
vn 0.0 -0.866 -0.5
vn 0.0 -0.866 -0.5
vn 0.0 -1.0 0.0
vn 0.0 -0.5 -0.866
vn 0.0 -0.5 -0.866
vn 0.0 -0.0 -1.0
vn 0.0 -0.0 -1.0
vn 0.0 0.5 -0.866
vn 0.0 0.5 -0.866
vn 0.0 0.866 -0.5
vn 0.0 0.866 -0.5
vn 0.0 1.0 0.0
vn 0.0 1.0 -0.0
vn 0.0 0.866 0.5
vn 0.0 0.866 0.5
vn 0.0 0.5 0.866
vn 0.0 0.5 0.866
vn 0.0 -0.0 1.0
vn 0.0 -0.0 1.0
vn 0.0 -0.5 0.866
vn 0.0 -0.5 0.866
vn 0.0 -0.866 0.5
vn 0.0 -0.866 0.5
vn 0.0 -1.0 -0.0
vn 0.0 -0.866 -0.5
vn 0.0 -0.5 -0.866
vn 0.0 -0.0 -1.0
vn 0.0 0.5 -0.866
vn 0.0 0.866 -0.5
vn 0.0 1.0 -0.0
vn 0.0 0.866 0.5
vn 0.0 0.5 0.866
vn 0.0 -0.0 1.0
vn 0.0 -0.5 0.866
vn 0.0 -0.866 0.5
vn 0.0 -1.0 -0.0
vn 0.0 -0.866 -0.5
vn 0.0 -0.5 -0.866
vn 0.0 -0.0 -1.0
vn 0.0 0.5 -0.866
vn 0.0 0.866 -0.5
vn 0.0 1.0 -0.0
vn 0.0 0.866 0.5
vn 0.0 0.5 0.866
vn 0.0 -0.0 1.0
vn 0.0 -0.5 0.866
vn 0.0 -0.866 0.5
vn 0.0 -1.0 -0.0
vn 0.0 -0.866 -0.5
vn 0.0 -0.5 -0.866
vn 0.0 -0.0 -1.0
vn 0.0 0.5 -0.866
vn 0.0 0.866 -0.5
vn 0.0 1.0 0.0
vn 0.0 0.866 0.5
vn 0.0 0.5 0.866
vn 0.0 -0.0 1.0
vn 0.0 -0.5 0.866
vn 0.0 -0.866 0.5
vn 0.0 -0.866 -0.5
vn 0.0 -0.866 -0.5
vn 0.0 -1.0 -0.0
vn 0.0 -1.0 0.0
vn 0.0 -0.5 -0.866
vn 0.0 -0.5 -0.866
vn 0.0 -0.0 -1.0
vn 0.0 -0.0 -1.0
vn 0.0 0.5 -0.866
vn 0.0 0.5 -0.866
vn 0.0 0.866 -0.5
vn 0.0 0.866 -0.5
vn 0.0 1.0 -0.0
vn 0.0 1.0 0.0
vn 0.0 0.866 0.5
vn 0.0 0.866 0.5
vn 0.0 0.5 0.866
vn 0.0 0.5 0.866
vn 0.0 -0.0 1.0
vn 0.0 -0.0 1.0
vn 0.0 -0.5 0.866
vn 0.0 -0.5 0.866
vn 0.0 -0.866 0.5
vn 0.0 -0.866 0.5
vn 0.0 -0.866 -0.5
vn 0.0 -1.0 0.0
vn 0.0 -0.5 -0.866
vn 0.0 -0.0 -1.0
vn 0.0 0.5 -0.866
vn 0.0 0.866 -0.5
vn 0.0 0.866 0.5
vn 0.0 0.5 0.866
vn 0.0 -0.0 1.0
vn 0.0 -0.5 0.866
vn 0.0 -0.866 0.5
vn 0.0 -0.866 -0.5
vn 0.0 -1.0 0.0
vn 0.0 -0.5 -0.866
vn 0.0 -0.0 -1.0
vn 0.0 0.5 -0.866
vn 0.0 0.866 -0.5
vn 0.0 1.0 0.0
vn 0.0 0.866 0.5
vn 0.0 0.5 0.866
vn 0.0 -0.0 1.0
vn 0.0 -0.5 0.866
vn 0.0 -0.866 0.5
vtan 0.0 -0.0 1.0 1.0
vtan 0.0 -0.5 0.866 1.0
vtan 0.0 -0.5 0.866 1.0
vtan 0.0 0.0 1.0 1.0
vtan 0.0 -0.866 0.5 1.0
vtan 0.0 -0.866 0.5 1.0
vtan 0.0 -1.0 0.0 1.0
vtan 0.0 -1.0 0.0 1.0
vtan 0.0 -0.866 -0.5 1.0
vtan 0.0 -0.866 -0.5 1.0
vtan 0.0 -0.5 -0.866 1.0
vtan 0.0 -0.5 -0.866 1.0
vtan 0.0 0.0 -1.0 1.0
vtan 0.0 -0.0 -1.0 1.0
vtan 0.0 0.5 -0.866 1.0
vtan 0.0 0.5 -0.866 1.0
vtan 0.0 0.866 -0.5 1.0
vtan 0.0 0.866 -0.5 1.0
vtan 0.0 1.0 0.0 1.0
vtan 0.0 1.0 0.0 1.0
vtan 0.0 0.866 0.5 1.0
vtan 0.0 0.866 0.5 1.0
vtan 0.0 0.5 0.866 1.0
vtan 0.0 0.5 0.866 1.0
vtan 0.0 -0.0 1.0 1.0
vtan 0.0 0.0 1.0 1.0
vtan 0.0 -0.5 0.866 1.0
vtan 0.0 0.0 1.0 1.0
vtan 0.0 -0.5 0.866 1.0
vtan 0.0 -0.866 0.5 1.0
vtan 0.0 -0.866 0.5 1.0
vtan 0.0 -1.0 0.0 1.0
vtan 0.0 -1.0 0.0 1.0
vtan 0.0 -0.866 -0.5 1.0
vtan 0.0 -0.866 -0.5 1.0
vtan 0.0 -0.5 -0.866 1.0
vtan 0.0 -0.5 -0.866 1.0
vtan 0.0 -0.0 -1.0 1.0
vtan 0.0 0.0 -1.0 1.0
vtan 0.0 0.5 -0.866 1.0
vtan 0.0 0.5 -0.866 1.0
vtan 0.0 0.866 -0.5 1.0
vtan 0.0 0.866 -0.5 1.0
vtan 0.0 1.0 0.0 1.0
vtan 0.0 1.0 0.0 1.0
vtan 0.0 0.866 0.5 1.0
vtan 0.0 0.866 0.5 1.0
vtan 0.0 0.5 0.866 1.0
vtan 0.0 0.5 0.866 1.0
vtan 0.0 -0.0 1.0 1.0
vtan 0.0 -0.0 1.0 1.0
vtan 0.0 -0.5 0.866 1.0
vtan 0.0 -0.5 0.866 1.0
vtan 0.0 -0.866 0.5 1.0
vtan 0.0 -0.866 0.5 1.0
vtan 0.0 -1.0 0.0 1.0
vtan 0.0 -1.0 0.0 1.0
vtan 0.0 -0.866 -0.5 1.0
vtan 0.0 -0.866 -0.5 1.0
vtan 0.0 -0.5 -0.866 1.0
vtan 0.0 -0.5 -0.866 1.0
vtan 0.0 -0.0 -1.0 1.0
vtan 0.0 -0.0 -1.0 1.0
vtan 0.0 0.5 -0.866 1.0
vtan 0.0 0.5 -0.866 1.0
vtan 0.0 0.866 -0.5 1.0
vtan 0.0 0.866 -0.5 1.0
vtan 0.0 1.0 0.0 1.0
vtan 0.0 1.0 0.0 1.0
vtan 0.0 0.866 0.5 1.0
vtan 0.0 0.5 0.866 1.0
vtan 0.0 0.5 0.866 1.0
vtan 0.0 -0.0 1.0 1.0
vtan 0.0 0.0 1.0 1.0
vtan 0.0 -0.0 1.0 1.0
vtan 0.0 -0.5 0.866 1.0
vtan 0.0 -0.5 0.866 1.0
vtan 0.0 -0.0 1.0 1.0
vtan 0.0 -0.866 0.5 1.0
vtan 0.0 -1.0 0.0 1.0
vtan 0.0 -1.0 0.0 1.0
vtan 0.0 -0.866 -0.5 1.0
vtan 0.0 -0.5 -0.866 1.0
vtan 0.0 -0.5 -0.866 1.0
vtan 0.0 0.0 -1.0 1.0
vtan 0.0 -0.0 -1.0 1.0
vtan 0.0 0.5 -0.866 1.0
vtan 0.0 0.5 -0.866 1.0
vtan 0.0 0.866 -0.5 1.0
vtan 0.0 0.866 -0.5 1.0
vtan 0.0 1.0 0.0 1.0
vtan 0.0 1.0 0.0 1.0
vtan 0.0 0.866 0.5 1.0
vtan 0.0 0.866 0.5 1.0
vtan 0.0 0.5 0.866 1.0
vtan 0.0 0.5 0.866 1.0
vtan 0.0 -0.0 1.0 1.0
vtan 0.0 -0.0 1.0 1.0
vtan 0.0 -0.5 0.866 -1.0
vtan 0.0 -0.5 0.866 -1.0
vtan 0.0 -0.0 1.0 -1.0
vtan 0.0 0.0 1.0 -1.0
vtan 0.0 -0.866 0.5 -1.0
vtan 0.0 -0.866 0.5 -1.0
vtan 0.0 -1.0 0.0 -1.0
vtan 0.0 -1.0 0.0 -1.0
vtan 0.0 -0.866 -0.5 -1.0
vtan 0.0 -0.866 -0.5 -1.0
vtan 0.0 -0.5 -0.866 -1.0
vtan 0.0 -0.5 -0.866 -1.0
vtan 0.0 -0.0 -1.0 -1.0
vtan 0.0 0.0 -1.0 -1.0
vtan 0.0 0.5 -0.866 -1.0
vtan 0.0 0.5 -0.866 -1.0
vtan 0.0 0.866 -0.5 -1.0
vtan 0.0 0.866 -0.5 -1.0
vtan 0.0 1.0 0.0 -1.0
vtan 0.0 1.0 0.0 -1.0
vtan 0.0 0.866 0.5 -1.0
vtan 0.0 0.866 0.5 -1.0
vtan 0.0 0.5 0.866 -1.0
vtan 0.0 0.5 0.866 -1.0
vtan 0.0 0.0 1.0 -1.0
vtan 0.0 -0.0 1.0 -1.0
vtan 0.0 -0.5 0.866 -1.0
vtan 0.0 -0.5 0.866 -1.0
vtan 0.0 0.0 1.0 -1.0
vtan 0.0 -0.0 1.0 -1.0
vtan 0.0 -0.866 0.5 -1.0
vtan 0.0 -0.866 0.5 -1.0
vtan 0.0 -1.0 0.0 -1.0
vtan 0.0 -1.0 0.0 -1.0
vtan 0.0 -0.866 -0.5 -1.0
vtan 0.0 -0.866 -0.5 -1.0
vtan 0.0 -0.5 -0.866 -1.0
vtan 0.0 -0.5 -0.866 -1.0
vtan 0.0 0.5 -0.866 -1.0
vtan 0.0 0.5 -0.866 -1.0
vtan 0.0 0.866 -0.5 -1.0
vtan 0.0 0.866 -0.5 -1.0
vtan 0.0 1.0 0.0 -1.0
vtan 0.0 1.0 0.0 -1.0
vtan 0.0 0.866 0.5 -1.0
vtan 0.0 0.866 0.5 -1.0
vtan 0.0 0.5 0.866 -1.0
vtan 0.0 0.5 0.866 -1.0
vtan 0.0 0.0 1.0 -1.0
vtan 0.0 -0.5 0.866 -1.0
vtan 0.0 -0.5 0.866 -1.0
vtan 0.0 0.0 1.0 -1.0
vtan 0.0 -0.866 0.5 -1.0
vtan 0.0 -1.0 0.0 -1.0
vtan 0.0 -0.866 -0.5 -1.0
vtan 0.0 -0.5 -0.866 -1.0
vtan 0.0 -0.5 -0.866 -1.0
vtan 0.0 0.0 -1.0 -1.0
vtan 0.0 0.5 -0.866 -1.0
vtan 0.0 0.5 -0.866 -1.0
vtan 0.0 0.866 -0.5 -1.0
vtan 0.0 0.866 -0.5 -1.0
vtan 0.0 1.0 0.0 -1.0
vtan 0.0 1.0 0.0 -1.0
vtan 0.0 0.866 0.5 -1.0
vtan 0.0 0.866 0.5 -1.0
vtan 0.0 0.5 0.866 -1.0
vtan 0.0 0.0 1.0 -1.0
vtan 0.0 0.0 1.0 -1.0
vtan 0.0 -0.5 0.866 -1.0
vtan 0.0 -0.5 0.866 -1.0
vtan 0.0 -0.0 1.0 -1.0
vtan 0.0 0.0 1.0 -1.0
vtan 0.0 -0.866 0.5 -1.0
vtan 0.0 -0.866 0.5 -1.0
vtan 0.0 -1.0 0.0 -1.0
vtan 0.0 -1.0 0.0 -1.0
vtan 0.0 -0.866 -0.5 -1.0
vtan 0.0 -0.866 -0.5 -1.0
vtan 0.0 -0.5 -0.866 -1.0
vtan 0.0 -0.5 -0.866 -1.0
vtan 0.0 0.0 -1.0 -1.0
vtan 0.0 0.5 -0.866 -1.0
vtan 0.0 0.5 -0.866 -1.0
vtan 0.0 0.866 -0.5 -1.0
vtan 0.0 1.0 0.0 -1.0
vtan 0.0 0.866 0.5 -1.0
vtan 0.0 0.866 0.5 -1.0
vtan 0.0 0.5 0.866 -1.0
vtan 0.0 0.5 0.866 -1.0
f 0/0/0/0 1/1/1/1 2/2/2/2 
f 0/0/0/0 2/2/2/2 3/3/3/3 
f 1/1/1/1 4/4/4/4 5/5/5/5 
f 1/1/1/1 5/5/5/5 2/2/2/2 
f 4/4/4/4 6/6/6/6 7/7/7/7 
f 4/4/4/4 7/7/7/7 5/5/5/5 
f 6/6/6/6 8/8/8/8 9/9/9/9 
f 6/6/6/6 9/9/9/9 7/7/7/7 
f 8/8/8/8 10/10/10/10 11/11/11/11 
f 8/8/8/8 11/11/11/11 9/9/9/9 
f 10/10/10/10 12/12/12/12 13/13/13/13 
f 10/10/10/10 13/13/13/13 11/11/11/11 
f 12/12/12/12 14/14/14/14 15/15/15/15 
f 12/12/12/12 15/15/15/15 13/13/13/13 
f 14/14/14/14 16/16/16/16 17/17/17/17 
f 14/14/14/14 17/17/17/17 15/15/15/15 
f 16/16/16/16 18/18/18/18 19/19/19/19 
f 16/16/16/16 19/19/19/19 17/17/17/17 
f 18/18/18/18 20/20/20/20 21/21/21/21 
f 18/18/18/18 21/21/21/21 19/19/19/19 
f 20/20/20/20 22/22/22/22 23/23/23/23 
f 20/20/20/20 23/23/23/23 21/21/21/21 
f 22/22/22/22 0/24/0/24 3/25/3/25 
f 22/22/22/22 3/25/3/25 23/23/23/23 
f 1/2/1/26 0/3/0/0 24/0/24/27 
f 1/2/1/26 24/0/24/27 25/1/25/28 
f 25/1/25/28 26/4/26/29 4/5/4/30 
f 25/1/25/28 4/5/4/30 1/2/1/26 
f 26/4/26/29 27/6/27/31 6/7/6/32 
f 26/4/26/29 6/7/6/32 4/5/4/30 
f 27/6/27/31 28/8/28/33 8/9/8/34 
f 27/6/27/31 8/9/8/34 6/7/6/32 
f 28/8/28/33 29/10/29/35 10/11/10/36 
f 28/8/28/33 10/11/10/36 8/9/8/34 
f 29/10/29/35 30/12/30/37 12/13/12/38 
f 29/10/29/35 12/13/12/38 10/11/10/36 
f 30/12/30/37 31/14/31/39 14/15/14/40 
f 30/12/30/37 14/15/14/40 12/13/12/38 
f 31/14/31/39 32/16/32/41 16/17/16/42 
f 31/14/31/39 16/17/16/42 14/15/14/40 
f 32/16/32/41 33/18/33/43 18/19/18/44 
f 32/16/32/41 18/19/18/44 16/17/16/42 
f 33/18/33/43 34/20/34/45 20/21/20/46 
f 33/18/33/43 20/21/20/46 18/19/18/44 
f 34/20/34/45 35/22/35/47 22/23/22/48 
f 34/20/34/45 22/23/22/48 20/21/20/46 
f 0/25/0/49 22/23/22/48 35/22/35/47 
f 0/25/0/49 35/22/35/47 24/24/24/27 
f 36/0/36/50 37/1/37/51 25/2/25/52 
f 36/0/36/50 25/2/25/52 24/3/24/27 
f 37/1/37/51 38/4/38/53 26/5/26/54 
f 37/1/37/51 26/5/26/54 25/2/25/52 
f 38/4/38/53 39/6/39/55 27/7/27/56 
f 38/4/38/53 27/7/27/56 26/5/26/54 
f 39/6/39/55 40/8/40/57 28/9/28/58 
f 39/6/39/55 28/9/28/58 27/7/27/56 
f 40/8/40/57 41/10/41/59 29/11/29/60 
f 40/8/40/57 29/11/29/60 28/9/28/58 
f 41/10/41/59 42/12/42/61 30/13/30/62 
f 41/10/41/59 30/13/30/62 29/11/29/60 
f 42/12/42/61 43/14/43/63 31/15/31/64 
f 42/12/42/61 31/15/31/64 30/13/30/62 
f 43/14/43/63 44/16/44/65 32/17/32/66 
f 43/14/43/63 32/17/32/66 31/15/31/64 
f 44/16/44/65 45/18/45/67 33/19/33/68 
f 44/16/44/65 33/19/33/68 32/17/32/66 
f 45/18/45/67 46/20/46/69 34/21/34/45 
f 45/18/45/67 34/21/34/45 33/19/33/68 
f 46/20/46/69 47/22/47/70 35/23/35/71 
f 46/20/46/69 35/23/35/71 34/21/34/45 
f 47/22/47/70 36/24/36/72 24/25/24/73 
f 47/22/47/70 24/25/24/73 35/23/35/71 
f 48/26/48/74 49/27/49/75 37/2/37/76 
f 48/26/48/74 37/2/37/76 36/3/36/77 
f 49/27/49/75 50/28/50/78 38/5/38/53 
f 49/27/49/75 38/5/38/53 37/2/37/76 
f 50/28/50/78 51/29/51/79 39/7/39/80 
f 50/28/50/78 39/7/39/80 38/5/38/53 
f 51/29/51/79 52/30/52/81 40/9/40/57 
f 51/29/51/79 40/9/40/57 39/7/39/80 
f 52/30/52/81 53/31/53/82 41/11/41/83 
f 52/30/52/81 41/11/41/83 40/9/40/57 
f 53/31/53/82 54/32/54/84 42/13/42/85 
f 53/31/53/82 42/13/42/85 41/11/41/83 
f 54/32/54/84 55/33/55/86 43/15/43/87 
f 54/32/54/84 43/15/43/87 42/13/42/85 
f 55/33/55/86 56/34/56/88 44/17/44/89 
f 55/33/55/86 44/17/44/89 43/15/43/87 
f 56/34/56/88 57/35/57/90 45/19/45/91 
f 56/34/56/88 45/19/45/91 44/17/44/89 
f 57/35/57/90 58/36/58/92 46/21/46/93 
f 57/35/57/90 46/21/46/93 45/19/45/91 
f 58/36/58/92 59/37/59/94 47/23/47/95 
f 58/36/58/92 47/23/47/95 46/21/46/93 
f 59/37/59/94 48/38/48/96 36/25/36/97 
f 59/37/59/94 36/25/36/97 47/23/47/95 
f 60/2/60/98 61/1/61/99 62/0/62/100 
f 60/2/60/98 62/0/62/100 63/3/63/101 
f 64/5/64/102 65/4/65/103 61/1/61/99 
f 64/5/64/102 61/1/61/99 60/2/60/98 
f 66/7/66/104 67/6/67/105 65/4/65/103 
f 66/7/66/104 65/4/65/103 64/5/64/102 
f 68/9/68/106 69/8/69/107 67/6/67/105 
f 68/9/68/106 67/6/67/105 66/7/66/104 
f 70/11/70/108 71/10/71/109 69/8/69/107 
f 70/11/70/108 69/8/69/107 68/9/68/106 
f 72/13/72/110 73/12/73/111 71/10/71/109 
f 72/13/72/110 71/10/71/109 70/11/70/108 
f 74/15/74/112 75/14/75/113 73/12/73/111 
f 74/15/74/112 73/12/73/111 72/13/72/110 
f 76/17/76/114 77/16/77/115 75/14/75/113 
f 76/17/76/114 75/14/75/113 74/15/74/112 
f 78/19/78/116 79/18/79/117 77/16/77/115 
f 78/19/78/116 77/16/77/115 76/17/76/114 
f 80/21/80/118 81/20/81/119 79/18/79/117 
f 80/21/80/118 79/18/79/117 78/19/78/116 
f 82/23/82/120 83/22/83/121 81/20/81/119 
f 82/23/82/120 81/20/81/119 80/21/80/118 
f 63/25/63/122 62/24/62/123 83/22/83/121 
f 63/25/63/122 83/22/83/121 82/23/82/120 
f 61/2/61/124 84/1/84/125 85/0/85/126 
f 61/2/61/124 85/0/85/126 62/3/62/127 
f 65/5/65/128 86/4/86/129 84/1/84/125 
f 65/5/65/128 84/1/84/125 61/2/61/124 
f 67/7/67/130 87/6/87/131 86/4/86/129 
f 67/7/67/130 86/4/86/129 65/5/65/128 
f 69/9/69/132 88/8/88/133 87/6/87/131 
f 69/9/69/132 87/6/87/131 67/7/67/130 
f 71/11/71/134 89/10/89/135 88/8/88/133 
f 71/11/71/134 88/8/88/133 69/9/69/132 
f 73/13/73/111 90/12/73/111 89/10/89/135 
f 73/13/73/111 89/10/89/135 71/11/71/134 
f 75/15/75/136 91/14/90/137 90/12/73/111 
f 75/15/75/136 90/12/73/111 73/13/73/111 
f 77/17/77/138 92/16/91/139 91/14/90/137 
f 77/17/77/138 91/14/90/137 75/15/75/136 
f 79/19/79/140 93/18/92/141 92/16/91/139 
f 79/19/79/140 92/16/91/139 77/17/77/138 
f 81/21/81/142 94/20/93/143 93/18/92/141 
f 81/21/81/142 93/18/92/141 79/19/79/140 
f 83/23/83/144 95/22/94/145 94/20/93/143 
f 83/23/83/144 94/20/93/143 81/21/81/142 
f 62/25/62/123 85/24/85/146 95/22/94/145 
f 62/25/62/123 95/22/94/145 83/23/83/144 
f 84/2/84/147 96/1/95/148 97/0/96/149 
f 84/2/84/147 97/0/96/149 85/3/85/126 
f 86/5/86/129 98/4/97/150 96/1/95/148 
f 86/5/86/129 96/1/95/148 84/2/84/147 
f 87/7/87/131 99/6/98/151 98/4/97/150 
f 87/7/87/131 98/4/97/150 86/5/86/129 
f 88/9/88/133 100/8/99/152 99/6/98/151 
f 88/9/88/133 99/6/98/151 87/7/87/131 
f 89/11/89/153 101/10/100/154 100/8/99/152 
f 89/11/89/153 100/8/99/152 88/9/88/133 
f 90/13/73/111 102/12/101/155 101/10/100/154 
f 90/13/73/111 101/10/100/154 89/11/89/153 
f 91/15/90/156 103/14/102/157 102/12/101/155 
f 91/15/90/156 102/12/101/155 90/13/73/111 
f 92/17/91/158 104/16/103/159 103/14/102/157 
f 92/17/91/158 103/14/102/157 91/15/90/156 
f 93/19/92/160 105/18/104/161 104/16/103/159 
f 93/19/92/160 104/16/103/159 92/17/91/158 
f 94/21/93/162 106/20/105/163 105/18/104/161 
f 94/21/93/162 105/18/104/161 93/19/92/160 
f 95/23/94/145 107/22/106/164 106/20/105/163 
f 95/23/94/145 106/20/105/163 94/21/93/162 
f 85/25/85/165 97/24/96/166 107/22/106/164 
f 85/25/85/165 107/22/106/164 95/23/94/145 
f 96/2/95/167 49/27/49/168 48/26/48/169 
f 96/2/95/167 48/26/48/169 97/3/96/170 
f 98/5/97/171 50/28/50/172 49/27/49/168 
f 98/5/97/171 49/27/49/168 96/2/95/167 
f 99/7/98/173 51/29/51/174 50/28/50/172 
f 99/7/98/173 50/28/50/172 98/5/97/171 
f 100/9/99/175 52/30/52/176 51/29/51/174 
f 100/9/99/175 51/29/51/174 99/7/98/173 
f 101/11/100/177 53/31/53/178 52/30/52/176 
f 101/11/100/177 52/30/52/176 100/9/99/175 
f 102/13/101/179 54/32/54/84 53/31/53/178 
f 102/13/101/179 53/31/53/178 101/11/100/177 
f 103/15/102/180 55/33/55/181 54/32/54/84 
f 103/15/102/180 54/32/54/84 102/13/101/179 
f 104/17/103/182 56/34/56/88 55/33/55/181 
f 104/17/103/182 55/33/55/181 103/15/102/180 
f 105/19/104/183 57/35/57/90 56/34/56/88 
f 105/19/104/183 56/34/56/88 104/17/103/182 
f 106/21/105/184 58/36/58/185 57/35/57/90 
f 106/21/105/184 57/35/57/90 105/19/104/183 
f 107/23/106/186 59/37/59/187 58/36/58/185 
f 107/23/106/186 58/36/58/185 106/21/105/184 
f 97/25/96/166 48/38/48/96 59/37/59/187 
f 97/25/96/166 59/37/59/187 107/23/106/186 
