v 145.7639 664.232 -640.8578
v 145.7639 664.232 -646.9678
v 146.3957 670.6964 -646.9678
v 146.3957 670.6964 -640.0362
v 145.1679 664.232 -640.126
v 145.8371 670.6964 -639.3498
v 99.2739 670.6964 -639.3498
v 99.9431 664.232 -640.126
v 150.643 690.9597 -633.3974
v 94.4677 690.9597 -633.3974
v 94.4391 686.5966 -633.3974
v 150.6718 686.5966 -633.3974
v 93.8691 690.9597 -634.1328
v 93.8691 690.9597 -646.9678
v 93.8691 686.5966 -646.9678
v 93.8691 686.5966 -634.0976
v 145.3002 660.3633 -641.4412
v 145.3002 660.3633 -646.9678
v 147.0881 662.2976 -646.9678
v 147.0881 662.2976 -639.3174
v 144.6931 660.3633 -640.6953
v 146.4221 662.2976 -638.4994
v 98.6889 662.2976 -638.4994
v 100.4177 660.3633 -640.6953
v 151.2416 690.9597 -634.1328
v 151.2416 690.9597 -646.9678
v 152.9072 693.1412 -646.9678
v 152.9072 693.1412 -632.1652
v 152.2448 693.1412 -631.352
v 92.8659 693.1412 -631.352
v 151.2416 695.3228 -646.9678
v 151.2416 695.3228 -634.2106
v 150.5798 695.3228 -633.3974
v 94.5312 695.3228 -633.3974
v 148.5356 679.6954 -637.4353
v 148.5356 679.6954 -646.9678
v 151.2416 686.5966 -646.9678
v 151.2416 686.5966 -634.0976
v 147.9543 679.6954 -636.7213
v 97.1564 679.6954 -636.7213
v 98.715 670.6964 -640.0362
v 99.3471 664.232 -640.8578
v 98.0229 662.2976 -639.3174
v 99.8107 660.3633 -641.4412
v 92.204 693.1412 -632.1652
v 93.8691 695.3228 -634.2106
v 96.5751 679.6954 -637.4353
v 93.8691 695.3228 -646.9678
v 98.715 670.6964 -646.9678
v 99.3471 664.232 -646.9678
v 98.0226 662.2976 -646.9678
v 99.8105 660.3633 -646.9678
v 92.204 693.1412 -646.9678
v 96.5754 679.6954 -646.9678
vt 0.4476 0.6911
vt 0.2773 0.6911
vt 0.2773 0.6742
vt 0.4476 0.6742
vt 0.4453 0.6933
vt 0.2795 0.6933
vt 0.5504 0.8881
vt 0.5337 0.8881
vt 0.5337 0.9084
vt 0.5526 0.9084
vt 0.6076 0.8897
vt 0.6053 0.91
vt 0.7614 0.91
vt 0.7592 0.8897
vt 0.5892 0.9737
vt 0.7775 0.9737
vt 0.7776 0.96
vt 0.5891 0.96
vt 0.7937 0.9733
vt 0.8287 0.9733
vt 0.8287 0.9596
vt 0.7936 0.9596
vt 0.9865 0.7672
vt 0.9619 0.7672
vt 0.9632 0.7791
vt 0.9959 0.7791
vt 0.0112 0.7672
vt 0.0111 0.779
vt 0.2524 0.779
vt 0.2525 0.7672
vt 0.5546 0.882
vt 0.5337 0.882
vt 0.6034 0.8836
vt 0.7634 0.8836
vt 0.5687 0.9721
vt 0.5337 0.9721
vt 0.5337 0.979
vt 0.5741 0.979
vt 0.5839 0.9806
vt 0.7829 0.9806
vt 0.5337 0.9859
vt 0.5685 0.9859
vt 0.5894 0.9875
vt 0.7773 0.9875
vt 0.5597 0.9367
vt 0.5337 0.9367
vt 0.5337 0.9584
vt 0.5688 0.9584
vt 0.5982 0.9383
vt 0.7685 0.9383
vt 0.605 0.8907
vt 0.6028 0.9094
vt 0.8095 0.8902
vt 0.8073 0.909
vt 0.8098 0.9096
vt 0.8121 0.8892
vt 0.5867 0.9726
vt 0.5865 0.9593
vt 0.7912 0.9721
vt 0.791 0.9589
vt 0.6007 0.8862
vt 0.8079 0.8832
vt 0.8052 0.8857
vt 0.0079 0.7672
vt 0.0078 0.7789
vt 0.2559 0.779
vt 0.2558 0.7672
vt 0.5815 0.9806
vt 0.786 0.9801
vt 0.7884 0.9801
vt 0.5871 0.99
vt 0.7916 0.9896
vt 0.7939 0.987
vt 0.5957 0.9372
vt 0.8002 0.9367
vt 0.8027 0.9379
vt 0.1674 0.876
vt 0.1655 0.8746
vt 0.0109 0.8746
vt 0.0091 0.8976
vt 0.0091 0.876
vt 0.1674 0.8976
vt 0.8287 0.9096
vt 0.8287 0.8892
vt 0.2874 0.779
vt 0.2803 0.7672
vt 0.8287 0.8832
vt 0.8287 0.9801
vt 0.8287 0.987
vt 0.8287 0.9379
vn 0.0 -1.0 0.0
vn 0.0 -1.0 0.0
vn 0.0 -1.0 -0.0
vn 0.0 -1.0 0.0
vn 0.9118 0.3115 0.2677
vn 0.9686 0.2488 0.0
vn 0.9863 -0.1647 0.0
vn 0.9232 -0.2213 0.3143
vn 0.3713 0.3625 0.8548
vn 0.4079 -0.2541 0.877
vn -0.4078 -0.254 0.877
vn -0.3713 0.3625 0.8548
vn 0.3556 -0.4619 0.8125
vn -0.3557 -0.4619 0.8125
vn -0.4272 -0.251 0.8686
vn 0.4272 -0.251 0.8686
vn -0.8773 -0.4014 0.263
vn -0.9473 -0.3202 0.0
vn -0.9826 -0.1858 -0.0
vn -0.9078 -0.2348 0.3475
vn 0.4051 -0.9097 0.0916
vn 0.401 -0.9161 0.0
vn 0.9973 -0.0728 0.0
vn 0.9149 -0.0672 0.3981
vn 0.1382 -0.9239 0.3569
vn 0.4599 -0.0629 0.8858
vn -0.4599 -0.0629 0.8858
vn -0.1381 -0.9239 0.3569
vn 0.8773 -0.4015 0.263
vn 0.9473 -0.3203 0.0
vn 1.0 -0.0 0.0
vn 0.9163 0.0033 0.4005
vn 0.4623 0.0025 0.8867
vn -0.4625 0.0025 0.8866
vn 0.4434 0.8963 -0.0
vn 0.4484 0.8877 0.1047
vn 0.1562 0.9026 0.4011
vn -0.1562 0.9026 0.4012
vn 0.8738 -0.3895 0.2913
vn 0.9543 -0.2989 0.0
vn 0.9826 -0.1858 0.0
vn 0.9078 -0.2348 0.3474
vn 0.3736 -0.4407 0.8162
vn -0.3736 -0.4407 0.8162
vn -0.9231 -0.2213 0.3144
vn -0.9118 0.3115 0.2677
vn -0.9149 -0.0672 0.3981
vn -0.405 -0.9097 0.0917
vn -0.9163 0.0033 0.4004
vn -0.4484 0.8877 0.1048
vn -0.8738 -0.3895 0.2913
vn -0.4434 0.8963 0.0
vn -0.9863 -0.1647 0.0
vn -0.9685 0.2488 0.0
vn -0.9973 -0.0728 0.0
vn -0.401 -0.9161 -0.0
vn -1.0 -0.0 0.0
vn -0.9543 -0.2989 -0.0
vtan 1.0 0.0 0.0 1.0
vtan 1.0 0.0 0.0 1.0
vtan -0.2533 -0.0865 0.9635 -1.0
vtan 0.0 0.0 1.0 -1.0
vtan -0.3056 0.0733 0.9493 -1.0
vtan -0.9265 0.205 0.3155 -1.0
vtan -0.913 -0.1188 0.3903 -1.0
vtan -0.9131 0.1135 -0.3917 -1.0
vtan -0.9285 -0.145 -0.3418 -1.0
vtan -0.9343 -0.1514 0.3229 -1.0
vtan -0.9346 0.1758 -0.3092 -1.0
vtan -0.9042 0.1186 -0.4104 -1.0
vtan -0.9038 -0.144 0.4029 -1.0
vtan -0.2125 -0.1666 -0.9629 -1.0
vtan 0.0 0.0 -1.0 -1.0
vtan 0.0 -0.0 -1.0 -1.0
vtan -0.3211 -0.1437 -0.9361 -1.0
vtan -0.0373 0.0837 0.9958 -1.0
vtan -0.0 0.0 1.0 -1.0
vtan -0.397 0.0292 0.9173 -1.0
vtan -0.9225 0.011 0.3858 -1.0
vtan -0.8877 -0.0086 0.4603 -1.0
vtan -0.8874 -0.0021 -0.4609 -1.0
vtan -0.9218 -0.0119 -0.3876 -1.0
vtan -0.397 0.0292 0.9173 -1.0
vtan 0.0 0.0 1.0 -1.0
vtan -0.8293 0.3261 0.4537 -1.0
vtan -0.888 0.0326 -0.4587 -1.0
vtan -0.2392 0.1094 0.9648 -1.0
vtan -0.4005 -0.0014 0.9163 -1.0
vtan -0.8867 -0.0001 0.4623 -1.0
vtan -0.8866 -0.0013 -0.4625 -1.0
vtan 0.0 0.0 1.0 -1.0
vtan -0.0472 -0.0935 0.9945 -1.0
vtan -0.9858 0.1172 0.1202 -1.0
vtan -0.9877 -0.1427 -0.0634 -1.0
vtan -0.2661 0.1186 0.9566 -1.0
vtan -0.3363 0.087 0.9377 -1.0
vtan -0.9275 -0.19 0.322 -1.0
vtan -0.9276 0.1775 -0.3288 -1.0
vtan -0.4026 0.5486 0.7328 -1.0
vtan -0.3692 -0.2826 0.8854 -1.0
vtan -0.6673 0.5359 -0.5172 -1.0
vtan -0.8044 -0.3544 -0.4767 -1.0
vtan -0.2993 -0.0999 -0.9489 -1.0
vtan -0.2341 0.1414 -0.9619 -1.0
vtan -0.4489 -0.4924 0.7457 -1.0
vtan -0.4114 -0.3385 0.8463 -1.0
vtan -0.6287 -0.525 -0.5737 -1.0
vtan -0.7894 -0.3649 -0.4937 -1.0
vtan -0.2303 0.7229 0.6515 -1.0
vtan -0.3982 0.3136 -0.8621 -1.0
vtan -0.5709 0.785 -0.2407 -1.0
vtan -0.5662 -0.1709 0.8064 -1.0
vtan -0.4008 -0.0333 0.9156 -1.0
vtan -0.3992 0.0031 -0.9169 -1.0
vtan -0.2536 0.0154 -0.9672 -1.0
vtan -0.4004 0.0329 0.9157 -1.0
vtan -0.8866 0.0011 -0.4625 -1.0
vtan -0.4003 0.0128 -0.9163 -1.0
vtan -0.8829 0.4215 0.2071 -1.0
vtan -0.1319 0.3834 -0.9141 -1.0
vtan 0.0234 0.1288 -0.9914 -1.0
vtan -0.4662 -0.4998 0.73 -1.0
vtan -0.6069 -0.5493 -0.5744 -1.0
vtan -0.2341 -0.1881 -0.9538 -1.0
vtan -0.8938 -0.4454 -0.0525 -1.0
vtan -0.9877 -0.1427 -0.0634 -1.0
vtan -0.9877 0.1448 0.0588 -1.0
vtan -0.8963 0.4434 -0.0004 -1.0
vtan -0.8936 0.4479 0.0297 -1.0
vtan -0.8963 -0.4434 0.0 -1.0
vtan -0.0 0.0 -1.0 -1.0
vtan -0.0 0.0 -1.0 -1.0
vtan -0.0 -0.0 -1.0 -1.0
vtan 0.0 -0.0 -1.0 -1.0
f 16/0/0/0 43/1/0/0 51/2/0/0 
f 16/0/1/0 51/2/1/0 17/3/1/0 
f 43/1/2/1 16/0/2/0 20/4/2/0 
f 43/1/3/1 20/4/3/1 23/5/3/0 
f 0/6/4/2 1/7/5/3 2/8/6/3 
f 0/6/4/2 2/8/6/3 3/9/7/4 
f 4/10/8/5 5/11/9/6 6/12/10/7 
f 4/10/8/5 6/12/10/7 7/13/11/8 
f 8/14/12/9 9/15/13/10 10/16/14/11 
f 8/14/12/9 10/16/14/11 11/17/15/12 
f 12/18/16/13 13/19/17/14 14/20/18/15 
f 12/18/16/13 14/20/18/15 15/21/19/16 
f 16/22/20/17 17/23/21/18 18/24/22/3 
f 16/22/20/17 18/24/22/3 19/25/23/19 
f 20/26/24/20 21/27/25/21 22/28/26/22 
f 20/26/24/20 22/28/26/22 23/29/27/23 
f 0/6/4/2 19/30/23/24 18/31/22/25 
f 0/6/4/2 18/31/22/25 1/7/5/3 
f 21/32/25/26 4/10/8/5 7/13/11/8 
f 21/32/25/26 7/13/11/8 22/33/26/27 
f 24/34/28/28 25/35/29/3 26/36/30/3 
f 24/34/28/28 26/36/30/3 27/37/31/29 
f 8/14/12/9 28/38/32/30 29/39/33/31 
f 8/14/12/9 29/39/33/31 9/15/13/10 
f 26/36/30/3 30/40/34/32 31/41/35/33 
f 26/36/30/3 31/41/35/33 27/37/31/29 
f 28/38/32/30 32/42/36/34 33/43/37/35 
f 28/38/32/30 33/43/37/35 29/39/33/31 
f 34/44/38/36 35/45/39/3 36/46/40/25 
f 34/44/38/36 36/46/40/25 37/47/41/37 
f 38/48/42/38 11/17/15/12 10/16/14/11 
f 38/48/42/38 10/16/14/11 39/49/43/39 
f 3/9/7/4 2/8/6/3 35/45/39/3 
f 3/9/7/4 35/45/39/3 34/44/38/36 
f 5/11/9/6 38/48/42/38 39/49/43/39 
f 5/11/9/6 39/49/43/39 6/12/10/7 
f 4/10/8/5 0/50/4/40 3/51/7/41 
f 4/10/8/5 3/51/7/41 5/11/9/6 
f 7/52/11/42 6/53/10/43 40/54/44/44 
f 7/52/11/42 40/54/44/44 41/55/45/45 
f 24/56/28/46 8/14/12/9 11/17/15/12 
f 24/56/28/46 11/17/15/12 37/57/41/47 
f 9/58/13/48 12/18/16/13 15/21/19/16 
f 9/58/13/48 15/21/19/16 10/59/14/49 
f 19/60/23/50 0/50/4/40 4/10/8/5 
f 19/60/23/50 4/10/8/5 21/32/25/26 
f 42/61/46/51 22/62/26/52 7/52/11/42 
f 42/61/46/51 7/52/11/42 41/55/45/45 
f 20/26/24/20 16/63/20/53 19/64/23/54 
f 20/26/24/20 19/64/23/54 21/27/25/21 
f 42/65/46/55 43/66/47/56 23/29/27/23 
f 42/65/46/55 23/29/27/23 22/28/26/22 
f 27/67/31/57 28/38/32/30 8/14/12/9 
f 27/67/31/57 8/14/12/9 24/56/28/46 
f 9/58/13/48 29/68/33/58 44/69/48/59 
f 9/58/13/48 44/69/48/59 12/18/16/13 
f 27/67/31/57 31/70/35/60 32/42/36/34 
f 27/67/31/57 32/42/36/34 28/38/32/30 
f 33/71/37/61 45/72/49/62 44/69/48/59 
f 33/71/37/61 44/69/48/59 29/68/33/58 
f 37/57/41/47 11/17/15/12 38/48/42/38 
f 37/57/41/47 38/48/42/38 34/73/38/63 
f 39/74/43/64 10/59/14/49 15/21/19/16 
f 39/74/43/64 15/21/19/16 46/75/50/65 
f 34/73/38/63 38/48/42/38 5/11/9/6 
f 34/73/38/63 5/11/9/6 3/51/7/41 
f 6/53/10/43 39/74/43/64 46/75/50/65 
f 6/53/10/43 46/75/50/65 40/54/44/44 
f 45/76/49/66 33/77/37/67 32/78/36/68 
f 45/76/49/66 32/78/36/68 30/79/34/69 
f 32/78/36/68 31/80/35/70 30/79/34/69 
f 47/81/51/71 45/76/49/66 30/79/34/69 
f 41/55/45/45 40/54/44/44 48/82/52/14 
f 41/55/45/45 48/82/52/14 49/83/53/14 
f 24/34/28/28 37/47/41/37 36/46/40/25 
f 24/34/28/28 36/46/40/25 25/35/29/3 
f 43/66/47/56 42/65/46/55 50/84/54/72 
f 43/66/47/56 50/84/54/72 51/85/55/73 
f 50/86/54/74 42/61/46/51 41/55/45/45 
f 50/86/54/74 41/55/45/45 49/83/53/14 
f 12/18/16/13 44/69/48/59 52/87/56/14 
f 12/18/16/13 52/87/56/14 13/19/17/14 
f 52/87/56/14 44/69/48/59 45/72/49/62 
f 52/87/56/14 45/72/49/62 47/88/51/14 
f 46/75/50/65 15/21/19/16 14/20/18/15 
f 46/75/50/65 14/20/18/15 53/89/57/75 
f 40/54/44/44 46/75/50/65 53/89/57/75 
f 40/54/44/44 53/89/57/75 48/82/52/14 
