v -688.9853 279.8812 199.0069
v -688.9853 280.1829 197.8808
v -648.8207 280.1829 197.8808
v -648.8207 279.8812 199.0069
v -688.9853 281.0073 197.0564
v -648.8207 281.0073 197.0564
v -688.9853 282.1334 196.7545
v -648.8207 282.1334 196.7545
v -688.9853 283.2596 197.0564
v -648.8207 283.2596 197.0564
v -688.9853 284.0839 197.8808
v -648.8207 284.0839 197.8808
v -688.9853 284.3857 199.0069
v -648.8207 284.3857 199.0069
v -688.9853 284.0839 200.1329
v -648.8207 284.0839 200.1329
v -688.9853 283.2596 200.9574
v -648.8207 283.2596 200.9574
v -688.9853 282.1334 201.259
v -648.8207 282.1334 201.259
v -688.9853 281.0073 200.9574
v -648.8207 281.0073 200.9574
v -688.9853 280.1829 200.1329
v -648.8207 280.1829 200.1329
v -729.1499 279.8812 199.0069
v -729.1499 280.1829 197.8808
v -729.1499 281.0073 197.0564
v -729.1499 282.1334 196.7545
v -729.1499 283.2596 197.0564
v -729.1499 284.0839 197.8808
v -729.1499 284.3857 199.0069
v -729.1499 284.0839 200.1329
v -729.1499 283.2596 200.9574
v -729.1499 282.1334 201.259
v -729.1499 281.0073 200.9574
v -729.1499 280.1829 200.1329
v -769.3145 279.8812 199.0069
v -769.3145 280.1829 197.8808
v -769.3145 281.0073 197.0564
v -769.3145 282.1334 196.7545
v -769.3145 283.2596 197.0564
v -769.3145 284.0839 197.8808
v -769.3145 284.3857 199.0069
v -769.3145 284.0839 200.1329
v -769.3145 283.2596 200.9574
v -769.3145 282.1334 201.259
v -769.3145 281.0073 200.9574
v -769.3145 280.1829 200.1329
v -803.7593 279.8812 199.0069
v -803.7593 280.1829 197.8808
v -803.7593 281.0073 197.0564
v -803.7593 282.1334 196.7545
v -803.7593 283.2596 197.0564
v -803.7593 284.0839 197.8808
v -803.7593 284.3857 199.0069
v -803.7593 284.0839 200.1329
v -803.7593 283.2596 200.9574
v -803.7593 282.1334 201.259
v -803.7593 281.0073 200.9574
v -803.7593 280.1829 200.1329
v -958.6978 280.1829 197.8808
v -918.5332 280.1829 197.8808
v -918.5332 279.8812 199.0069
v -958.6978 279.8812 199.0069
v -958.6978 281.0073 197.0564
v -918.5332 281.0073 197.0564
v -958.6978 282.1334 196.7545
v -918.5332 282.1334 196.7545
v -958.6978 283.2596 197.0564
v -918.5332 283.2596 197.0564
v -958.6978 284.0839 197.8808
v -918.5332 284.0839 197.8808
v -958.6978 284.3857 199.0069
v -918.5332 284.3857 199.0069
v -958.6978 284.0839 200.1329
v -918.5332 284.0839 200.1329
v -958.6978 283.2596 200.9574
v -918.5332 283.2596 200.9574
v -958.6978 282.1334 201.259
v -918.5332 282.1334 201.259
v -958.6978 281.0073 200.9574
v -918.5332 281.0073 200.9574
v -958.6978 280.1829 200.1329
v -918.5332 280.1829 200.1329
v -878.3687 280.1829 197.8808
v -878.3687 279.8812 199.0069
v -878.3687 281.0073 197.0564
v -878.3687 282.1334 196.7545
v -878.3687 283.2596 197.0564
v -878.3687 284.0839 197.8808
v -878.3687 284.3857 199.0069
v -878.3687 284.0839 200.1329
v -878.3687 283.2596 200.9574
v -878.3687 282.1334 201.259
v -878.3687 281.0073 200.9574
v -878.3687 280.1829 200.1329
v -838.204 280.1829 197.8808
v -838.204 279.8812 199.0069
v -838.204 281.0073 197.0564
v -838.204 282.1334 196.7545
v -838.204 283.2596 197.0564
v -838.204 284.0839 197.8808
v -838.204 284.3857 199.0069
v -838.204 284.0839 200.1329
v -838.204 283.2596 200.9574
v -838.204 282.1334 201.259
v -838.204 281.0073 200.9574
v -838.204 280.1829 200.1329
vt 0.9876 0.5241
vt 0.9633 0.5241
vt 0.9633 0.0053
vt 0.9876 0.0053
vt 0.9391 0.5241
vt 0.9391 0.0053
vt 0.9148 0.5241
vt 0.9148 0.0053
vt 0.8906 0.5241
vt 0.8906 0.0053
vt 0.8663 0.5241
vt 0.8663 0.0053
vt 0.8421 0.5241
vt 0.8421 0.0053
vt 0.8178 0.5241
vt 0.8178 0.0053
vt 0.7936 0.5241
vt 0.7936 0.0053
vt 0.7694 0.5241
vt 0.7694 0.0053
vt 0.7451 0.5241
vt 0.7451 0.0053
vt 0.7209 0.5241
vt 0.7209 0.0053
vt 0.6966 0.5241
vt 0.6966 0.0053
vt 0.9876 0.4502
vt 0.9633 0.4502
vt 0.9391 0.4502
vt 0.9148 0.4502
vt 0.8906 0.4502
vt 0.8663 0.4502
vt 0.8421 0.4502
vt 0.8178 0.4502
vt 0.7936 0.4502
vt 0.7694 0.4502
vt 0.7451 0.4502
vt 0.7209 0.4502
vt 0.6966 0.4502
vn 0.0 -1.0 0.0
vn 0.0 -0.866 -0.5
vn 0.0 -0.866 -0.5
vn 0.0 -1.0 0.0
vn 0.0 -0.5 -0.866
vn 0.0 -0.5 -0.866
vn 0.0 -0.0 -1.0
vn 0.0 -0.0 -1.0
vn 0.0 0.5 -0.866
vn 0.0 0.5 -0.866
vn 0.0 0.866 -0.5
vn 0.0 0.866 -0.5
vn 0.0 1.0 0.0
vn 0.0 1.0 -0.0
vn 0.0 0.866 0.5
vn 0.0 0.866 0.5
vn 0.0 0.5 0.866
vn 0.0 0.5 0.866
vn 0.0 -0.0 1.0
vn 0.0 -0.0 1.0
vn 0.0 -0.5 0.866
vn 0.0 -0.5 0.866
vn 0.0 -0.866 0.5
vn 0.0 -0.866 0.5
vn 0.0 -1.0 -0.0
vn 0.0 -0.866 -0.5
vn 0.0 -0.5 -0.866
vn 0.0 -0.0 -1.0
vn 0.0 0.5 -0.866
vn 0.0 0.866 -0.5
vn 0.0 1.0 0.0
vn 0.0 0.866 0.5
vn 0.0 0.5 0.866
vn 0.0 -0.0 1.0
vn 0.0 -0.5 0.866
vn 0.0 -0.866 0.5
vn 0.0 -1.0 -0.0
vn 0.0 -0.866 -0.5
vn 0.0 -0.5 -0.866
vn 0.0 -0.0 -1.0
vn 0.0 0.5 -0.866
vn 0.0 0.866 -0.5
vn 0.0 1.0 0.0
vn 0.0 0.866 0.5
vn 0.0 0.5 0.866
vn 0.0 -0.0 1.0
vn 0.0 -0.5 0.866
vn 0.0 -0.866 0.5
vn 0.0 -1.0 -0.0
vn 0.0 -0.866 -0.5
vn 0.0 -0.5 -0.866
vn 0.0 -0.0 -1.0
vn 0.0 0.5 -0.866
vn 0.0 0.866 -0.5
vn 0.0 1.0 0.0
vn 0.0 0.866 0.5
vn 0.0 0.5 0.866
vn 0.0 -0.0 1.0
vn 0.0 -0.5 0.866
vn 0.0 -0.866 0.5
vn 0.0 -0.866 -0.5
vn 0.0 -0.866 -0.5
vn 0.0 -1.0 0.0
vn 0.0 -0.5 -0.866
vn 0.0 -0.5 -0.866
vn 0.0 -0.0 -1.0
vn 0.0 -0.0 -1.0
vn 0.0 0.5 -0.866
vn 0.0 0.5 -0.866
vn 0.0 0.866 -0.5
vn 0.0 0.866 -0.5
vn 0.0 1.0 -0.0
vn 0.0 1.0 0.0
vn 0.0 0.866 0.5
vn 0.0 0.866 0.5
vn 0.0 0.5 0.866
vn 0.0 0.5 0.866
vn 0.0 -0.0 1.0
vn 0.0 -0.0 1.0
vn 0.0 -0.5 0.866
vn 0.0 -0.5 0.866
vn 0.0 -0.866 0.5
vn 0.0 -0.866 0.5
vn 0.0 -0.866 -0.5
vn 0.0 -1.0 -0.0
vn 0.0 -0.5 -0.866
vn 0.0 -0.0 -1.0
vn 0.0 0.5 -0.866
vn 0.0 0.866 -0.5
vn 0.0 1.0 0.0
vn 0.0 0.866 0.5
vn 0.0 0.5 0.866
vn 0.0 -0.0 1.0
vn 0.0 -0.5 0.866
vn 0.0 -0.866 0.5
vn 0.0 -0.866 -0.5
vn 0.0 -1.0 0.0
vn 0.0 -0.5 -0.866
vn 0.0 -0.0 -1.0
vn 0.0 0.5 -0.866
vn 0.0 0.866 -0.5
vn 0.0 1.0 -0.0
vn 0.0 0.866 0.5
vn 0.0 0.5 0.866
vn 0.0 -0.0 1.0
vn 0.0 -0.5 0.866
vn 0.0 -0.866 0.5
vtan 0.0 0.0 1.0 1.0
vtan 0.0 -0.5 0.866 1.0
vtan 0.0 -0.5 0.866 1.0
vtan 0.0 0.0 1.0 1.0
vtan 0.0 -0.866 0.5 1.0
vtan 0.0 -0.866 0.5 1.0
vtan 0.0 -1.0 0.0 1.0
vtan 0.0 -1.0 0.0 1.0
vtan 0.0 -0.866 -0.5 1.0
vtan 0.0 -0.866 -0.5 1.0
vtan 0.0 -0.5 -0.866 1.0
vtan 0.0 -0.5 -0.866 1.0
vtan 0.0 0.0 -1.0 1.0
vtan 0.0 -0.0 -1.0 1.0
vtan 0.0 0.5 -0.866 1.0
vtan 0.0 0.5 -0.866 1.0
vtan 0.0 0.866 -0.5 1.0
vtan 0.0 0.866 -0.5 1.0
vtan 0.0 1.0 0.0 1.0
vtan 0.0 1.0 0.0 1.0
vtan 0.0 0.866 0.5 1.0
vtan 0.0 0.866 0.5 1.0
vtan 0.0 0.5 0.866 1.0
vtan 0.0 0.5 0.866 1.0
vtan 0.0 0.0 1.0 1.0
vtan 0.0 0.0 1.0 1.0
vtan 0.0 -0.5 0.866 1.0
vtan 0.0 -0.5 0.866 1.0
vtan 0.0 -0.866 0.5 1.0
vtan 0.0 -1.0 0.0 1.0
vtan 0.0 -0.866 -0.5 1.0
vtan 0.0 -0.866 -0.5 1.0
vtan 0.0 -0.5 -0.866 1.0
vtan 0.0 -0.5 -0.866 1.0
vtan 0.0 0.5 -0.866 1.0
vtan 0.0 0.5 -0.866 1.0
vtan 0.0 0.866 -0.5 1.0
vtan 0.0 0.866 -0.5 1.0
vtan 0.0 1.0 0.0 1.0
vtan 0.0 0.866 0.5 1.0
vtan 0.0 0.866 0.5 1.0
vtan 0.0 0.5 0.866 1.0
vtan 0.0 0.5 0.866 1.0
vtan 0.0 -0.0 1.0 1.0
vtan 0.0 -0.5 0.866 1.0
vtan 0.0 -0.5 0.866 1.0
vtan 0.0 -0.866 0.5 1.0
vtan 0.0 -0.866 0.5 1.0
vtan 0.0 -1.0 0.0 1.0
vtan 0.0 -0.866 -0.5 1.0
vtan 0.0 -0.866 -0.5 1.0
vtan 0.0 -0.5 -0.866 1.0
vtan 0.0 -0.5 -0.866 1.0
vtan 0.0 0.0 -1.0 1.0
vtan 0.0 0.5 -0.866 1.0
vtan 0.0 0.5 -0.866 1.0
vtan 0.0 0.866 -0.5 1.0
vtan 0.0 0.866 -0.5 1.0
vtan 0.0 1.0 0.0 1.0
vtan 0.0 0.866 0.5 1.0
vtan 0.0 0.5 0.866 1.0
vtan 0.0 0.5 0.866 1.0
vtan 0.0 -0.0 1.0 1.0
vtan 0.0 -0.0 1.0 1.0
vtan 0.0 -0.5 0.866 1.0
vtan 0.0 -0.0 1.0 1.0
vtan 0.0 -0.866 0.5 1.0
vtan 0.0 -1.0 0.0 1.0
vtan 0.0 -1.0 0.0 1.0
vtan 0.0 -0.866 -0.5 1.0
vtan 0.0 -0.866 -0.5 1.0
vtan 0.0 -0.5 -0.866 1.0
vtan 0.0 -0.5 -0.866 1.0
vtan 0.0 0.0 -1.0 1.0
vtan 0.0 0.0 -1.0 1.0
vtan 0.0 0.5 -0.866 1.0
vtan 0.0 0.5 -0.866 1.0
vtan 0.0 0.866 -0.5 1.0
vtan 0.0 0.866 -0.5 1.0
vtan 0.0 1.0 0.0 1.0
vtan 0.0 1.0 0.0 1.0
vtan 0.0 0.866 0.5 1.0
vtan 0.0 0.866 0.5 1.0
vtan 0.0 0.5 0.866 1.0
vtan 0.0 0.5 0.866 1.0
vtan 0.0 -0.0 1.0 1.0
vtan 0.0 -0.5 0.866 -1.0
vtan 0.0 -0.5 0.866 -1.0
vtan 0.0 0.0 1.0 -1.0
vtan 0.0 -0.866 0.5 -1.0
vtan 0.0 -0.866 0.5 -1.0
vtan 0.0 -1.0 0.0 -1.0
vtan 0.0 -0.866 -0.5 -1.0
vtan 0.0 -0.866 -0.5 -1.0
vtan 0.0 -0.5 -0.866 -1.0
vtan 0.0 -0.5 -0.866 -1.0
vtan 0.0 0.0 -1.0 -1.0
vtan 0.0 0.5 -0.866 -1.0
vtan 0.0 0.5 -0.866 -1.0
vtan 0.0 0.866 -0.5 -1.0
vtan 0.0 0.866 -0.5 -1.0
vtan 0.0 1.0 0.0 -1.0
vtan 0.0 0.866 0.5 -1.0
vtan 0.0 0.866 0.5 -1.0
vtan 0.0 0.5 0.866 -1.0
vtan 0.0 0.5 0.866 -1.0
vtan 0.0 0.0 1.0 -1.0
vtan 0.0 -0.5 0.866 -1.0
vtan 0.0 -0.0 1.0 -1.0
vtan 0.0 0.0 1.0 -1.0
vtan 0.0 -0.866 0.5 -1.0
vtan 0.0 -0.866 0.5 -1.0
vtan 0.0 -1.0 0.0 -1.0
vtan 0.0 -0.866 -0.5 -1.0
vtan 0.0 -0.866 -0.5 -1.0
vtan 0.0 -0.5 -0.866 -1.0
vtan 0.0 -0.5 -0.866 -1.0
vtan 0.0 0.0 -1.0 -1.0
vtan 0.0 0.0 -1.0 -1.0
vtan 0.0 0.5 -0.866 -1.0
vtan 0.0 0.5 -0.866 -1.0
vtan 0.0 0.866 -0.5 -1.0
vtan 0.0 0.866 -0.5 -1.0
vtan 0.0 1.0 0.0 -1.0
vtan 0.0 1.0 0.0 -1.0
vtan 0.0 0.866 0.5 -1.0
vtan 0.0 0.866 0.5 -1.0
vtan 0.0 0.5 0.866 -1.0
vtan 0.0 0.5 0.866 -1.0
vtan 0.0 0.0 1.0 -1.0
vtan 0.0 -0.0 1.0 -1.0
vtan 0.0 -0.5 0.866 -1.0
vtan 0.0 -0.5 0.866 -1.0
vtan 0.0 0.0 1.0 -1.0
vtan 0.0 -0.0 1.0 -1.0
vtan 0.0 -0.866 0.5 -1.0
vtan 0.0 -0.866 0.5 -1.0
vtan 0.0 -1.0 0.0 -1.0
vtan 0.0 -1.0 0.0 -1.0
vtan 0.0 -0.866 -0.5 -1.0
vtan 0.0 -0.866 -0.5 -1.0
vtan 0.0 -0.5 -0.866 -1.0
vtan 0.0 -0.5 -0.866 -1.0
vtan 0.0 0.0 -1.0 -1.0
vtan 0.0 -0.0 -1.0 -1.0
vtan 0.0 0.5 -0.866 -1.0
vtan 0.0 0.5 -0.866 -1.0
vtan 0.0 0.866 -0.5 -1.0
vtan 0.0 1.0 0.0 -1.0
vtan 0.0 1.0 0.0 -1.0
vtan 0.0 0.866 0.5 -1.0
vtan 0.0 0.866 0.5 -1.0
vtan 0.0 0.5 0.866 -1.0
vtan 0.0 0.5 0.866 -1.0
vtan 0.0 -0.0 1.0 -1.0
vtan 0.0 0.0 1.0 -1.0
vtan 0.0 -0.5 0.866 -1.0
vtan 0.0 -0.5 0.866 -1.0
vtan 0.0 0.0 1.0 -1.0
vtan 0.0 -0.866 0.5 -1.0
vtan 0.0 -0.866 0.5 -1.0
vtan 0.0 -1.0 0.0 -1.0
vtan 0.0 -0.866 -0.5 -1.0
vtan 0.0 -0.866 -0.5 -1.0
vtan 0.0 -0.5 -0.866 -1.0
vtan 0.0 -0.5 -0.866 -1.0
vtan 0.0 -0.0 -1.0 -1.0
vtan 0.0 0.5 -0.866 -1.0
vtan 0.0 0.5 -0.866 -1.0
vtan 0.0 0.866 -0.5 -1.0
vtan 0.0 0.866 -0.5 -1.0
vtan 0.0 1.0 0.0 -1.0
vtan 0.0 0.866 0.5 -1.0
vtan 0.0 0.866 0.5 -1.0
vtan 0.0 0.5 0.866 -1.0
vtan 0.0 0.5 0.866 -1.0
f 0/0/0/0 1/1/1/1 2/2/2/2 
f 0/0/0/0 2/2/2/2 3/3/3/3 
f 1/1/1/1 4/4/4/4 5/5/5/5 
f 1/1/1/1 5/5/5/5 2/2/2/2 
f 4/4/4/4 6/6/6/6 7/7/7/7 
f 4/4/4/4 7/7/7/7 5/5/5/5 
f 6/6/6/6 8/8/8/8 9/9/9/9 
f 6/6/6/6 9/9/9/9 7/7/7/7 
f 8/8/8/8 10/10/10/10 11/11/11/11 
f 8/8/8/8 11/11/11/11 9/9/9/9 
f 10/10/10/10 12/12/12/12 13/13/13/13 
f 10/10/10/10 13/13/13/13 11/11/11/11 
f 12/12/12/12 14/14/14/14 15/15/15/15 
f 12/12/12/12 15/15/15/15 13/13/13/13 
f 14/14/14/14 16/16/16/16 17/17/17/17 
f 14/14/14/14 17/17/17/17 15/15/15/15 
f 16/16/16/16 18/18/18/18 19/19/19/19 
f 16/16/16/16 19/19/19/19 17/17/17/17 
f 18/18/18/18 20/20/20/20 21/21/21/21 
f 18/18/18/18 21/21/21/21 19/19/19/19 
f 20/20/20/20 22/22/22/22 23/23/23/23 
f 20/20/20/20 23/23/23/23 21/21/21/21 
f 22/22/22/22 0/24/0/24 3/25/3/25 
f 22/22/22/22 3/25/3/25 23/23/23/23 
f 1/2/1/26 0/3/0/24 24/0/24/0 
f 1/2/1/26 24/0/24/0 25/1/25/27 
f 25/1/25/27 26/4/26/28 4/5/4/4 
f 25/1/25/27 4/5/4/4 1/2/1/26 
f 26/4/26/28 27/6/27/6 6/7/6/29 
f 26/4/26/28 6/7/6/29 4/5/4/4 
f 27/6/27/6 28/8/28/30 8/9/8/31 
f 27/6/27/6 8/9/8/31 6/7/6/29 
f 28/8/28/30 29/10/29/32 10/11/10/33 
f 28/8/28/30 10/11/10/33 8/9/8/31 
f 29/10/29/32 30/12/30/12 12/13/12/12 
f 29/10/29/32 12/13/12/12 10/11/10/33 
f 30/12/30/12 31/14/31/34 14/15/14/35 
f 30/12/30/12 14/15/14/35 12/13/12/12 
f 31/14/31/34 32/16/32/36 16/17/16/37 
f 31/14/31/34 16/17/16/37 14/15/14/35 
f 32/16/32/36 33/18/33/18 18/19/18/38 
f 32/16/32/36 18/19/18/38 16/17/16/37 
f 33/18/33/18 34/20/34/39 20/21/20/40 
f 33/18/33/18 20/21/20/40 18/19/18/38 
f 34/20/34/39 35/22/35/41 22/23/22/42 
f 34/20/34/39 22/23/22/42 20/21/20/40 
f 0/25/0/0 22/23/22/42 35/22/35/41 
f 0/25/0/0 35/22/35/41 24/24/24/24 
f 36/0/36/43 37/1/37/44 25/2/25/45 
f 36/0/36/43 25/2/25/45 24/3/24/24 
f 37/1/37/44 38/4/38/46 26/5/26/47 
f 37/1/37/44 26/5/26/47 25/2/25/45 
f 38/4/38/46 39/6/39/48 27/7/27/29 
f 38/4/38/46 27/7/27/29 26/5/26/47 
f 39/6/39/48 40/8/40/49 28/9/28/50 
f 39/6/39/48 28/9/28/50 27/7/27/29 
f 40/8/40/49 41/10/41/51 29/11/29/52 
f 40/8/40/49 29/11/29/52 28/9/28/50 
f 41/10/41/51 42/12/42/53 30/13/30/12 
f 41/10/41/51 30/13/30/12 29/11/29/52 
f 42/12/42/53 43/14/43/54 31/15/31/55 
f 42/12/42/53 31/15/31/55 30/13/30/12 
f 43/14/43/54 44/16/44/56 32/17/32/57 
f 43/14/43/54 32/17/32/57 31/15/31/55 
f 44/16/44/56 45/18/45/58 33/19/33/38 
f 44/16/44/56 33/19/33/38 32/17/32/57 
f 45/18/45/58 46/20/46/59 34/21/34/39 
f 45/18/45/58 34/21/34/39 33/19/33/38 
f 46/20/46/59 47/22/47/60 35/23/35/61 
f 46/20/46/59 35/23/35/61 34/21/34/39 
f 47/22/47/60 36/24/36/62 24/25/24/0 
f 47/22/47/60 24/25/24/0 35/23/35/61 
f 48/26/48/63 49/27/49/64 37/2/37/44 
f 48/26/48/63 37/2/37/44 36/3/36/65 
f 49/27/49/64 50/28/50/66 38/5/38/46 
f 49/27/49/64 38/5/38/46 37/2/37/44 
f 50/28/50/66 51/29/51/67 39/7/39/68 
f 50/28/50/66 39/7/39/68 38/5/38/46 
f 51/29/51/67 52/30/52/69 40/9/40/70 
f 51/29/51/67 40/9/40/70 39/7/39/68 
f 52/30/52/69 53/31/53/71 41/11/41/72 
f 52/30/52/69 41/11/41/72 40/9/40/70 
f 53/31/53/71 54/32/54/73 42/13/42/74 
f 53/31/53/71 42/13/42/74 41/11/41/72 
f 54/32/54/73 55/33/55/75 43/15/43/76 
f 54/32/54/73 43/15/43/76 42/13/42/74 
f 55/33/55/75 56/34/56/77 44/17/44/78 
f 55/33/55/75 44/17/44/78 43/15/43/76 
f 56/34/56/77 57/35/57/79 45/19/45/80 
f 56/34/56/77 45/19/45/80 44/17/44/78 
f 57/35/57/79 58/36/58/81 46/21/46/82 
f 57/35/57/79 46/21/46/82 45/19/45/80 
f 58/36/58/81 59/37/59/83 47/23/47/84 
f 58/36/58/81 47/23/47/84 46/21/46/82 
f 59/37/59/83 48/38/48/85 36/25/36/62 
f 59/37/59/83 36/25/36/62 47/23/47/84 
f 60/2/60/86 61/1/61/87 62/0/62/88 
f 60/2/60/86 62/0/62/88 63/3/3/3 
f 64/5/63/89 65/4/64/90 61/1/61/87 
f 64/5/63/89 61/1/61/87 60/2/60/86 
f 66/7/65/7 67/6/66/91 65/4/64/90 
f 66/7/65/7 65/4/64/90 64/5/63/89 
f 68/9/67/92 69/8/68/93 67/6/66/91 
f 68/9/67/92 67/6/66/91 66/7/65/7 
f 70/11/69/94 71/10/70/95 69/8/68/93 
f 70/11/69/94 69/8/68/93 68/9/67/92 
f 72/13/71/13 73/12/72/96 71/10/70/95 
f 72/13/71/13 71/10/70/95 70/11/69/94 
f 74/15/73/97 75/14/74/98 73/12/72/96 
f 74/15/73/97 73/12/72/96 72/13/71/13 
f 76/17/75/99 77/16/76/100 75/14/74/98 
f 76/17/75/99 75/14/74/98 74/15/73/97 
f 78/19/77/19 79/18/78/101 77/16/76/100 
f 78/19/77/19 77/16/76/100 76/17/75/99 
f 80/21/79/102 81/20/80/103 79/18/78/101 
f 80/21/79/102 79/18/78/101 78/19/77/19 
f 82/23/81/104 83/22/82/105 81/20/80/103 
f 82/23/81/104 81/20/80/103 80/21/79/102 
f 63/25/3/25 62/24/62/106 83/22/82/105 
f 63/25/3/25 83/22/82/105 82/23/81/104 
f 61/2/61/87 84/1/83/107 85/0/84/108 
f 61/2/61/87 85/0/84/108 62/3/62/109 
f 65/5/64/110 86/4/85/111 84/1/83/107 
f 65/5/64/110 84/1/83/107 61/2/61/87 
f 67/7/66/91 87/6/86/112 86/4/85/111 
f 67/7/66/91 86/4/85/111 65/5/64/110 
f 69/9/68/113 88/8/87/114 87/6/86/112 
f 69/9/68/113 87/6/86/112 67/7/66/91 
f 71/11/70/115 89/10/88/116 88/8/87/114 
f 71/11/70/115 88/8/87/114 69/9/68/113 
f 73/13/72/117 90/12/89/118 89/10/88/116 
f 73/13/72/117 89/10/88/116 71/11/70/115 
f 75/15/74/119 91/14/90/120 90/12/89/118 
f 75/15/74/119 90/12/89/118 73/13/72/117 
f 77/17/76/121 92/16/91/122 91/14/90/120 
f 77/17/76/121 91/14/90/120 75/15/74/119 
f 79/19/78/123 93/18/92/124 92/16/91/122 
f 79/19/78/123 92/16/91/122 77/17/76/121 
f 81/21/80/125 94/20/93/126 93/18/92/124 
f 81/21/80/125 93/18/92/124 79/19/78/123 
f 83/23/82/127 95/22/94/128 94/20/93/126 
f 83/23/82/127 94/20/93/126 81/21/80/125 
f 62/25/62/129 85/24/84/130 95/22/94/128 
f 62/25/62/129 95/22/94/128 83/23/82/127 
f 84/2/83/131 96/1/95/132 97/0/96/133 
f 84/2/83/131 97/0/96/133 85/3/84/134 
f 86/5/85/135 98/4/97/136 96/1/95/132 
f 86/5/85/135 96/1/95/132 84/2/83/131 
f 87/7/86/137 99/6/98/138 98/4/97/136 
f 87/7/86/137 98/4/97/136 86/5/85/135 
f 88/9/87/139 100/8/99/140 99/6/98/138 
f 88/9/87/139 99/6/98/138 87/7/86/137 
f 89/11/88/141 101/10/100/142 100/8/99/140 
f 89/11/88/141 100/8/99/140 88/9/87/139 
f 90/13/89/143 102/12/101/144 101/10/100/142 
f 90/13/89/143 101/10/100/142 89/11/88/141 
f 91/15/90/145 103/14/102/146 102/12/101/144 
f 91/15/90/145 102/12/101/144 90/13/89/143 
f 92/17/91/122 104/16/103/147 103/14/102/146 
f 92/17/91/122 103/14/102/146 91/15/90/145 
f 93/19/92/148 105/18/104/149 104/16/103/147 
f 93/19/92/148 104/16/103/147 92/17/91/122 
f 94/21/93/150 106/20/105/151 105/18/104/149 
f 94/21/93/150 105/18/104/149 93/19/92/148 
f 95/23/94/152 107/22/106/153 106/20/105/151 
f 95/23/94/152 106/20/105/151 94/21/93/150 
f 85/25/84/154 97/24/96/155 107/22/106/153 
f 85/25/84/154 107/22/106/153 95/23/94/152 
f 96/2/95/156 49/27/49/157 48/26/48/63 
f 96/2/95/156 48/26/48/63 97/3/96/158 
f 98/5/97/159 50/28/50/160 49/27/49/157 
f 98/5/97/159 49/27/49/157 96/2/95/156 
f 99/7/98/161 51/29/51/67 50/28/50/160 
f 99/7/98/161 50/28/50/160 98/5/97/159 
f 100/9/99/162 52/30/52/163 51/29/51/67 
f 100/9/99/162 51/29/51/67 99/7/98/161 
f 101/11/100/164 53/31/53/165 52/30/52/163 
f 101/11/100/164 52/30/52/163 100/9/99/162 
f 102/13/101/166 54/32/54/73 53/31/53/165 
f 102/13/101/166 53/31/53/165 101/11/100/164 
f 103/15/102/167 55/33/55/168 54/32/54/73 
f 103/15/102/167 54/32/54/73 102/13/101/166 
f 104/17/103/169 56/34/56/170 55/33/55/168 
f 104/17/103/169 55/33/55/168 103/15/102/167 
f 105/19/104/171 57/35/57/79 56/34/56/170 
f 105/19/104/171 56/34/56/170 104/17/103/169 
f 106/21/105/172 58/36/58/173 57/35/57/79 
f 106/21/105/172 57/35/57/79 105/19/104/171 
f 107/23/106/174 59/37/59/175 58/36/58/173 
f 107/23/106/174 58/36/58/173 106/21/105/172 
f 97/25/96/155 48/38/48/85 59/37/59/175 
f 97/25/96/155 59/37/59/175 107/23/106/174 
