v -1002.3765 1012.8544 -78.9648
v -1002.3765 921.7285 -78.9648
v -1002.3765 921.7286 -253.5484
v -1002.3765 1226.3665 -55.205
v 868.5942 921.7286 -253.5484
v 868.5942 921.7285 181.2989
v 868.5942 1296.7107 181.2989
v 868.5942 1296.7107 -253.5484
v 260.9595 1012.8544 -253.5484
v 350.4165 1012.8544 -253.5484
v 483.5212 1232.0508 -253.5484
v 306.3723 1296.7107 -253.5484
v 485.9138 1262.5728 -253.5484
v 156.7723 1265.1343 -253.5484
v 158.0407 1224.7788 -253.5484
v -106.3922 1012.8544 -253.5484
v -17.3642 1012.8544 -253.5484
v 116.2691 1225.0874 -253.5484
v -62.637 1296.7107 -253.5484
v 116.2692 1263.8557 -253.5484
v -244.7236 1263.9564 -253.5484
v -243.276 1226.1421 -253.5484
v -654.3627 1264.8518 -253.5484
v -634.8088 1273.0774 -253.5484
v -717.1721 1296.7107 -253.5484
v -1002.3765 1296.7107 -253.5484
v -849.9751 921.7286 -253.5484
v -849.9751 1012.8544 -253.5484
v -285.9917 1225.8687 -253.5484
v -285.7285 1262.7603 -253.5484
v -431.9675 1296.7107 -253.5484
v -477.5808 1012.8544 -253.5484
v -617.4873 1265.9857 -253.5484
v -611.7913 1230.1038 -253.5484
v -390.144 1012.8544 -253.5484
v 137.1943 1273.0774 -253.5484
v 121.8677 1296.7107 -253.5484
v 137.1943 1216.3766 -253.5484
v 121.9907 921.7286 -253.5484
v -17.3642 921.7286 -253.5484
v -265.4967 1273.0774 -253.5484
v -247.3022 1296.7107 -253.5484
v -265.4967 1216.3766 -253.5484
v -247.1321 921.7286 -253.5484
v -390.144 921.7286 -253.5484
v -634.8088 1216.3766 -253.5484
v -659.9546 1232.2556 -253.5484
v -760.5881 1012.8544 -253.5484
v -618.5051 921.7286 -253.5484
v -760.5881 921.7286 -253.5484
v 507.7523 1273.0774 -253.5484
v 587.4832 1296.7107 -253.5484
v 507.7523 1216.3766 -253.5484
v 492.5505 921.7286 -253.5484
v 350.4166 921.7286 -253.5484
v 527.1452 1264.6255 -253.5484
v 527.7934 1225.0796 -253.5484
v 632.1132 1012.8544 -253.5484
v 720.9921 1012.8544 -253.5484
v 720.9921 921.7286 -253.5484
v -1002.3765 921.7285 181.2989
v -1002.3765 921.7285 10.5668
v -1002.3765 1012.8544 10.5669
v -1002.3765 1227.198 -14.0184
v -1002.3765 1296.7107 -36.1247
v -1002.3765 1273.6328 -34.2205
v -1002.3765 1266.2395 -55.3048
v -1002.3765 1012.8544 -33.8904
v -1002.3765 1217.6573 -34.2205
v -106.3922 921.7286 -253.5484
v 261.3456 921.7286 -253.5484
v 632.1132 921.7286 -253.5484
v -477.5808 921.7286 -253.5484
v 156.7723 1265.1343 181.2989
v 306.3723 1296.7107 181.2989
v 485.9138 1262.5728 181.2989
v 350.2876 1012.8544 181.2989
v 483.5212 1232.0508 181.2989
v 260.9596 1012.8544 181.2989
v 158.0408 1224.7788 181.2989
v -244.7235 1263.9564 181.2989
v -62.6369 1296.7107 181.2989
v 116.2692 1263.8557 181.2989
v -105.1708 1012.8544 181.2989
v 116.2692 1225.0874 181.2989
v -17.3641 1012.8544 181.2989
v -243.2759 1226.1421 181.2989
v -654.3627 1264.8518 181.2989
v -1002.3765 1296.7107 181.2989
v -717.172 1296.7107 181.2989
v -634.8088 1273.0774 181.2989
v -849.9751 1012.8544 181.2989
v -849.9751 921.7285 181.2989
v -477.5808 1012.8544 181.2989
v -611.7913 1230.1038 181.2989
v -617.4873 1265.9857 181.2989
v -285.7284 1262.7603 181.2989
v -431.9675 1296.7107 181.2989
v -285.9917 1225.8687 181.2989
v -389.5715 1012.8544 181.2989
v 121.8677 1296.7107 181.2989
v 137.1944 1273.0774 181.2989
v 137.1944 1216.3766 181.2989
v 121.9908 921.7285 181.2989
v -17.3641 921.7285 181.2989
v -247.3022 1296.7107 181.2989
v -265.4966 1273.0774 181.2989
v -265.4966 1216.3766 181.2989
v -247.132 921.7285 181.2989
v -389.5715 921.7285 181.2989
v -761.2629 1012.8544 181.2989
v -659.9546 1232.2556 181.2989
v -634.8088 1216.3766 181.2989
v -618.5051 921.7285 181.2989
v -761.2629 921.7285 181.2989
v 507.7523 1273.0774 181.2989
v 587.4833 1296.7107 181.2989
v 507.7523 1216.3766 181.2989
v 492.5505 921.7285 181.2989
v 350.2877 921.7285 181.2989
v 632.1133 1012.8544 181.2989
v 527.7935 1225.0796 181.2989
v 527.1453 1264.6255 181.2989
v 721.4477 1012.8544 181.2989
v 721.4477 921.7285 181.2989
v -105.1708 921.7285 181.2989
v 261.3457 921.7285 181.2989
v 632.1133 921.7285 181.2989
v -477.5808 921.7285 181.2989
v -1002.3765 1263.7299 -14.1457
vt 1.1653 0.4482
vt 1.1653 0.0009
vt 2.0222 0.0009
vt 1.0487 1.4961
vt 11.2051 0.0009
vt 13.3394 0.0009
vt 13.3394 1.8414
vt 11.2051 1.8414
vt 8.2228 0.4482
vt 8.6618 0.4482
vt 9.3151 1.524
vt 8.4457 1.8414
vt 9.3269 1.6738
vt 7.7114 1.6864
vt 7.7176 1.4883
vt 6.4198 0.4482
vt 6.8567 0.4482
vt 7.5126 1.4898
vt 6.6345 1.8414
vt 7.5126 1.6801
vt 5.7408 1.6806
vt 5.7479 1.495
vt 3.7303 1.685
vt 3.8262 1.7254
vt 3.422 1.8414
vt 2.0222 1.8414
vt 2.7702 0.0009
vt 2.7702 0.4482
vt 5.5383 1.4937
vt 5.5396 1.6747
vt 4.8218 1.8414
vt 4.5979 0.4482
vt 3.9113 1.6906
vt 3.9392 1.5145
vt 5.0271 0.4482
vt 7.6153 1.7254
vt 7.5401 1.8414
vt 7.6153 1.4471
vt 7.5407 0.0009
vt 6.8567 0.0009
vt 5.6389 1.7254
vt 5.7282 1.8414
vt 5.6389 1.4471
vt 5.729 0.0009
vt 5.0271 0.0009
vt 3.8262 1.4471
vt 3.7028 1.525
vt 3.2089 0.4482
vt 3.9063 0.0009
vt 3.2089 0.0009
vt 9.4341 1.7254
vt 9.8254 1.8414
vt 9.4341 1.4471
vt 9.3595 0.0009
vt 8.6618 0.0009
vt 9.5292 1.6839
vt 9.5324 1.4898
vt 10.0444 0.4482
vt 10.4807 0.4482
vt 10.4807 0.0009
vt -0.1121 0.0009
vt 0.7228 0.0009
vt 0.7228 0.4482
vt 0.8465 1.5002
vt 0.955 1.8414
vt 0.9457 1.7281
vt 1.0492 1.6918
vt 0.9441 0.4482
vt 0.9457 1.4534
vt 6.4198 0.0009
vt 8.2247 0.0009
vt 10.0444 0.0009
vt 4.5979 0.0009
vt 8.6612 0.4482
vt 6.4258 0.4482
vt 5.0299 0.4482
vt 5.0299 0.0009
vt 3.2056 0.4482
vt 3.2056 0.0009
vt 8.6612 0.0009
vt 10.4829 0.4482
vt 10.4829 0.0009
vt 6.4258 0.0009
vt -0.1121 1.8414
vt 0.8472 1.6795
vn 1.0 -0.0 0.0
vn 1.0 0.0 0.0
vn 0.7071 -0.0 0.7071
vn 1.0 -0.0 0.0
vn -0.7071 -0.0 0.7071
vn -0.7071 0.0 -0.7071
vn -0.7071 0.0 -0.7071
vn -0.7071 -0.0 0.7071
vn 0.0 -0.0 1.0
vn 0.0 -0.0 1.0
vn -0.0 -0.0 1.0
vn 0.0 -0.0 1.0
vn -0.0 -0.0 1.0
vn 0.0 -0.0 1.0
vn -0.0 -0.0 1.0
vn 0.0 -0.0 1.0
vn 0.0 -0.0 1.0
vn 0.0 -0.0 1.0
vn -0.0 -0.0 1.0
vn -0.0 -0.0 1.0
vn 0.0 -0.0 1.0
vn 0.0 -0.0 1.0
vn -0.0 -0.0 1.0
vn -0.0 0.0 1.0
vn -0.0 0.0 1.0
vn 0.7071 -0.0 0.7071
vn 0.0 -0.0 1.0
vn 0.0 -0.0 1.0
vn 0.0 -0.0 1.0
vn -0.0 -0.0 1.0
vn 0.0 -0.0 1.0
vn 0.0 -0.0 1.0
vn 0.0 -0.0 1.0
vn 0.0 -0.0 1.0
vn 0.0 -0.0 1.0
vn 0.0 -0.0 1.0
vn -0.0 -0.0 1.0
vn 0.0 -0.0 1.0
vn 0.0 -0.0 1.0
vn 0.0 -0.0 1.0
vn -0.0 0.0 1.0
vn -0.0 -0.0 1.0
vn -0.0 -0.0 1.0
vn 0.0 -0.0 1.0
vn 0.0 -0.0 1.0
vn -0.0 -0.0 1.0
vn 0.0 -0.0 1.0
vn 0.0 -0.0 1.0
vn 0.0 -0.0 1.0
vn 0.0 -0.0 1.0
vn -0.0 -0.0 1.0
vn 0.0 0.0 1.0
vn 0.0 -0.0 1.0
vn 0.0 -0.0 1.0
vn 0.0 -0.0 1.0
vn 0.0 -0.0 1.0
vn 0.0 -0.0 1.0
vn 0.0 -0.0 1.0
vn 0.0 -0.0 1.0
vn 0.0 -0.0 1.0
vn 0.7071 0.0 -0.7071
vn 1.0 -0.0 0.0
vn 1.0 -0.0 0.0
vn 1.0 -0.0 0.0
vn 1.0 0.0 0.0
vn 1.0 -0.0 0.0
vn 1.0 0.0 0.0
vn 1.0 -0.0 0.0
vn 0.0 -0.0 1.0
vn 0.0 -0.0 1.0
vn 0.0 -0.0 1.0
vn 0.0 -0.0 1.0
vn -0.0 0.0 -1.0
vn 0.0 0.0 -1.0
vn 0.0 0.0 -1.0
vn 0.0 0.0 -1.0
vn 0.0 0.0 -1.0
vn -0.0 0.0 -1.0
vn 0.0 0.0 -1.0
vn 0.0 0.0 -1.0
vn -0.0 0.0 -1.0
vn 0.0 0.0 -1.0
vn -0.0 0.0 -1.0
vn -0.0 0.0 -1.0
vn -0.0 0.0 -1.0
vn 0.0 0.0 -1.0
vn -0.0 0.0 -1.0
vn 0.7071 0.0 -0.7071
vn -0.0 0.0 -1.0
vn -0.0 0.0 -1.0
vn 0.0 0.0 -1.0
vn 0.0 0.0 -1.0
vn -0.0 0.0 -1.0
vn -0.0 0.0 -1.0
vn -0.0 0.0 -1.0
vn -0.0 0.0 -1.0
vn 0.0 0.0 -1.0
vn -0.0 0.0 -1.0
vn -0.0 0.0 -1.0
vn 0.0 0.0 -1.0
vn -0.0 0.0 -1.0
vn -0.0 0.0 -1.0
vn 0.0 0.0 -1.0
vn 0.0 0.0 -1.0
vn 0.0 0.0 -1.0
vn -0.0 -0.0 -1.0
vn -0.0 0.0 -1.0
vn 0.0 0.0 -1.0
vn 0.0 0.0 -1.0
vn -0.0 0.0 -1.0
vn -0.0 0.0 -1.0
vn -0.0 0.0 -1.0
vn 0.0 0.0 -1.0
vn 0.0 0.0 -1.0
vn 0.0 0.0 -1.0
vn 0.0 0.0 -1.0
vn -0.0 0.0 -1.0
vn 0.0 0.0 -1.0
vn 0.0 0.0 -1.0
vn -0.0 0.0 -1.0
vn 0.0 0.0 -1.0
vn 0.0 0.0 -1.0
vn 0.0 0.0 -1.0
vn 0.0 0.0 -1.0
vn -0.0 0.0 -1.0
vn -0.0 0.0 -1.0
vn -0.0 0.0 -1.0
vn -0.0 0.0 -1.0
vtan 0.0 0.0 -1.0 1.0
vtan 0.0 0.0 -1.0 1.0
vtan 0.7071 -0.0 -0.7071 1.0
vtan 0.0 0.0001 -1.0 1.0
vtan 0.7071 0.0 0.7071 1.0
vtan -0.7071 0.0 0.7071 1.0
vtan -0.7071 0.0 0.7071 1.0
vtan 0.7071 0.0 0.7071 1.0
vtan 1.0 -0.0001 -0.0 1.0
vtan 1.0 0.0 -0.0 1.0
vtan 1.0 -0.0 0.0 1.0
vtan 1.0 0.0 -0.0 1.0
vtan 1.0 -0.0 0.0 1.0
vtan 1.0 -0.0 -0.0 1.0
vtan 1.0 -0.0002 0.0 1.0
vtan 1.0 -0.0001 -0.0 1.0
vtan 1.0 0.0 -0.0 1.0
vtan 1.0 -0.0001 -0.0 1.0
vtan 1.0 0.0 0.0 1.0
vtan 1.0 -0.0001 0.0 1.0
vtan 1.0 0.0 -0.0 1.0
vtan 1.0 0.0 -0.0 1.0
vtan 1.0 -0.0 0.0 1.0
vtan 1.0 -0.0 0.0 1.0
vtan 1.0 -0.0 0.0 1.0
vtan 0.7071 -0.0 -0.7071 1.0
vtan 1.0 0.0 0.0 1.0
vtan 1.0 -0.0 -0.0 1.0
vtan 1.0 0.0001 0.0 1.0
vtan 1.0 0.0 0.0 1.0
vtan 1.0 0.0 -0.0 1.0
vtan 1.0 -0.0001 -0.0 1.0
vtan 1.0 -0.0 -0.0 1.0
vtan 1.0 -0.0001 -0.0 1.0
vtan 1.0 0.0 -0.0 1.0
vtan 1.0 0.0 -0.0 1.0
vtan 1.0 -0.0001 0.0 1.0
vtan 1.0 -0.0 -0.0 1.0
vtan 1.0 0.0 -0.0 1.0
vtan 1.0 -0.0006 0.0 1.0
vtan 1.0 -0.0 0.0 1.0
vtan 1.0 0.0001 0.0 1.0
vtan 1.0 0.0 -0.0 1.0
vtan 1.0 -0.0001 0.0 1.0
vtan 1.0 0.0002 -0.0 1.0
vtan 1.0 0.0 -0.0 1.0
vtan 1.0 0.0 -0.0 1.0
vtan 1.0 0.0 0.0 1.0
vtan 1.0 0.0 0.0 1.0
vtan 1.0 -0.0 -0.0 1.0
vtan 1.0 0.0 -0.0 1.0
vtan 1.0 0.0 -0.0 1.0
vtan 1.0 -0.0 -0.0 1.0
vtan 1.0 -0.0001 -0.0 1.0
vtan 1.0 0.0 -0.0 1.0
vtan -0.7071 -0.0 -0.7071 1.0
vtan 0.0 0.0 -1.0 1.0
vtan -0.0 -0.0 -1.0 1.0
vtan -0.0 -0.0001 -1.0 1.0
vtan 0.0 0.0 -1.0 1.0
vtan 0.0 0.0001 -1.0 1.0
vtan -0.0 -0.0 -1.0 1.0
vtan 0.0 0.0001 -1.0 1.0
vtan 1.0 -0.0 -0.0 1.0
vtan 1.0 -0.0 -0.0 1.0
vtan 1.0 -0.0 -0.0 1.0
vtan 1.0 -0.0 -0.0 1.0
vtan 1.0 -0.0 -0.0 -1.0
vtan 1.0 0.0 0.0 -1.0
vtan 1.0 -0.0 0.0 -1.0
vtan 1.0 0.0 0.0 -1.0
vtan 1.0 -0.0001 0.0 -1.0
vtan 1.0 -0.0001 -0.0 -1.0
vtan 1.0 -0.0002 -0.0 -1.0
vtan 1.0 0.0 0.0 -1.0
vtan 1.0 0.0 -0.0 -1.0
vtan 1.0 -0.0 0.0 -1.0
vtan 1.0 -0.0001 -0.0 -1.0
vtan 1.0 0.0 -0.0 -1.0
vtan 1.0 0.0 -0.0 -1.0
vtan 1.0 0.0 0.0 -1.0
vtan 1.0 -0.0 -0.0 -1.0
vtan 0.7071 0.0 0.7071 -1.0
vtan 1.0 -0.0 -0.0 -1.0
vtan 1.0 -0.0 -0.0 -1.0
vtan 1.0 -0.0 -0.0 -1.0
vtan 0.7071 -0.0 0.7071 -1.0
vtan 1.0 -0.0001 -0.0 -1.0
vtan 1.0 0.0001 -0.0 -1.0
vtan 1.0 0.0 -0.0 -1.0
vtan 1.0 -0.0001 -0.0 -1.0
vtan 1.0 0.0 0.0 -1.0
vtan 1.0 -0.0002 -0.0 -1.0
vtan 1.0 0.0 -0.0 -1.0
vtan 1.0 -0.0001 0.0 -1.0
vtan 1.0 0.0 -0.0 -1.0
vtan 1.0 -0.0 -0.0 -1.0
vtan 1.0 0.0 0.0 -1.0
vtan 1.0 -0.0 0.0 -1.0
vtan 1.0 -0.0006 -0.0 -1.0
vtan 1.0 0.0001 -0.0 -1.0
vtan 1.0 0.0 0.0 -1.0
vtan 1.0 0.0 -0.0 -1.0
vtan 1.0 0.0002 -0.0 -1.0
vtan 1.0 -0.0001 -0.0 -1.0
vtan 1.0 0.0 0.0 -1.0
vtan 1.0 0.0 0.0 -1.0
vtan 1.0 0.0 0.0 -1.0
vtan 1.0 -0.0 -0.0 -1.0
vtan 1.0 0.0 0.0 -1.0
vtan 1.0 -0.0001 -0.0 -1.0
vtan 1.0 -0.0 -0.0 -1.0
vtan 1.0 0.0 0.0 -1.0
vtan 1.0 0.0 0.0 -1.0
vtan 0.7071 0.0 -0.7071 -1.0
vtan 0.7071 0.0 -0.7071 -1.0
vtan 1.0 -0.0 -0.0 -1.0
vtan 1.0 -0.0 -0.0 -1.0
vtan 1.0 -0.0 -0.0 -1.0
vtan 1.0 -0.0 -0.0 -1.0
vtan -0.7071 0.0 -0.7071 1.0
vtan 0.0 0.0 -1.0 1.0
f 0/0/0/0 1/1/1/1 2/2/2/2 
f 0/0/0/0 2/2/2/2 3/3/3/3 
f 4/4/4/4 5/5/5/5 6/6/6/6 
f 4/4/4/4 6/6/6/6 7/7/7/7 
f 8/8/8/8 9/9/9/9 10/10/10/10 
f 8/8/8/8 10/10/10/10 11/11/11/11 
f 10/10/10/10 12/12/12/12 11/11/11/11 
f 8/8/8/8 11/11/11/11 13/13/13/13 
f 8/8/8/8 13/13/13/13 14/14/14/14 
f 15/15/15/15 16/16/16/16 17/17/17/17 
f 15/15/15/15 17/17/17/17 18/18/18/18 
f 17/17/17/17 19/19/19/19 18/18/18/18 
f 15/15/15/15 18/18/18/18 20/20/20/20 
f 15/15/15/15 20/20/20/20 21/21/21/21 
f 22/22/22/22 23/23/23/23 24/24/24/24 
f 22/22/22/22 24/24/24/24 25/25/25/25 
f 2/2/2/2 26/26/26/26 27/27/27/27 
f 2/2/2/2 27/27/27/27 25/25/25/25 
f 28/28/28/28 29/29/29/29 30/30/30/30 
f 28/28/28/28 30/30/30/30 31/31/31/31 
f 30/30/30/30 32/32/32/32 33/33/33/33 
f 30/30/30/30 33/33/33/33 31/31/31/31 
f 34/34/34/34 28/28/28/28 31/31/31/31 
f 19/19/19/19 35/35/35/35 36/36/36/36 
f 19/19/19/19 36/36/36/36 18/18/18/18 
f 37/37/37/37 17/17/17/17 16/16/16/16 
f 37/37/37/37 16/16/16/16 38/38/38/38 
f 39/39/39/26 38/38/38/38 16/16/16/16 
f 29/29/29/29 40/40/40/39 41/41/41/40 
f 29/29/29/29 41/41/41/40 30/30/30/30 
f 42/42/42/41 28/28/28/28 34/34/34/34 
f 42/42/42/41 34/34/34/34 43/43/43/42 
f 44/44/44/26 43/43/43/42 34/34/34/34 
f 45/45/45/43 46/46/46/44 47/47/47/45 
f 45/45/45/43 47/47/47/45 48/48/48/46 
f 49/49/49/26 48/48/48/46 47/47/47/45 
f 47/47/47/45 46/46/46/44 22/22/22/22 
f 47/47/47/45 22/22/22/22 25/25/25/25 
f 27/27/27/27 47/47/47/45 25/25/25/25 
f 50/50/50/47 51/51/51/48 11/11/11/11 
f 50/50/50/47 11/11/11/11 12/12/12/12 
f 52/52/52/49 10/10/10/10 9/9/9/9 
f 52/52/52/49 9/9/9/9 53/53/53/50 
f 54/54/54/26 53/53/53/50 9/9/9/9 
f 55/55/55/51 56/56/56/52 57/57/57/53 
f 55/55/55/51 57/57/57/53 58/58/58/54 
f 7/7/7/7 55/55/55/51 58/58/58/54 
f 4/4/4/4 7/7/7/7 58/58/58/54 
f 4/4/4/4 58/58/58/54 59/59/59/26 
f 60/60/60/55 61/61/61/56 62/62/62/57 
f 60/60/60/55 62/62/62/57 63/63/63/58 
f 64/64/64/59 65/65/64/60 66/66/65/61 
f 64/64/64/59 66/66/65/61 25/25/25/25 
f 62/62/62/57 67/67/66/56 68/68/67/62 
f 62/62/62/57 68/68/67/62 63/63/63/58 
f 20/20/20/20 18/18/18/18 41/41/41/40 
f 20/20/20/20 41/41/41/40 40/40/40/39 
f 15/15/15/15 21/21/21/21 42/42/42/41 
f 15/15/15/15 42/42/42/41 69/69/68/63 
f 43/43/43/42 69/69/68/63 42/42/42/41 
f 13/13/13/13 11/11/11/11 36/36/36/36 
f 13/13/13/13 36/36/36/36 35/35/35/35 
f 8/8/8/8 14/14/14/14 37/37/37/37 
f 8/8/8/8 37/37/37/37 70/70/69/64 
f 38/38/38/38 70/70/69/64 37/37/37/37 
f 55/55/55/51 7/7/7/7 51/51/51/48 
f 55/55/55/51 51/51/51/48 50/50/50/47 
f 57/57/57/53 56/56/56/52 52/52/52/49 
f 57/57/57/53 52/52/52/49 71/71/70/65 
f 53/53/53/50 71/71/70/65 52/52/52/49 
f 30/30/30/30 24/24/24/24 23/23/23/23 
f 30/30/30/30 23/23/23/23 32/32/32/32 
f 31/31/31/31 33/33/33/33 45/45/45/43 
f 31/31/31/31 45/45/45/43 72/72/71/66 
f 48/48/48/46 72/72/71/66 45/45/45/43 
f 73/13/72/67 74/11/73/68 75/12/74/69 
f 73/13/72/67 75/12/74/69 76/73/75/70 
f 75/12/74/69 77/10/76/71 76/73/75/70 
f 73/13/72/67 76/73/75/70 78/8/77/72 
f 73/13/72/67 78/8/77/72 79/14/78/73 
f 80/20/79/74 81/18/80/75 82/19/81/76 
f 80/20/79/74 82/19/81/76 83/74/82/77 
f 82/19/81/76 84/17/83/78 85/16/84/79 
f 82/19/81/76 85/16/84/79 83/74/82/77 
f 86/21/85/80 80/20/79/74 83/74/82/77 
f 87/22/86/81 88/25/87/82 89/24/88/83 
f 87/22/86/81 89/24/88/83 90/23/89/84 
f 91/27/90/85 92/26/91/26 60/2/60/86 
f 91/27/90/85 60/2/60/86 88/25/87/82 
f 93/31/92/87 94/33/93/88 95/32/94/89 
f 93/31/92/87 95/32/94/89 96/29/95/90 
f 95/32/94/89 97/30/96/91 96/29/95/90 
f 93/31/92/87 96/29/95/90 98/28/97/92 
f 93/31/92/87 98/28/97/92 99/75/98/93 
f 100/36/99/94 101/35/100/95 82/19/81/76 
f 100/36/99/94 82/19/81/76 81/18/80/75 
f 85/16/84/79 84/17/83/78 102/37/101/96 
f 85/16/84/79 102/37/101/96 103/38/102/97 
f 104/39/103/26 85/16/84/79 103/38/102/97 
f 105/41/104/98 106/40/105/99 96/29/95/90 
f 105/41/104/98 96/29/95/90 97/30/96/91 
f 99/75/98/93 98/28/97/92 107/42/106/100 
f 99/75/98/93 107/42/106/100 108/43/107/101 
f 109/76/108/26 99/75/98/93 108/43/107/101 
f 110/77/109/102 111/46/110/103 112/45/111/104 
f 110/77/109/102 112/45/111/104 113/48/112/105 
f 114/78/113/26 110/77/109/102 113/48/112/105 
f 87/22/86/81 111/46/110/103 110/77/109/102 
f 87/22/86/81 110/77/109/102 88/25/87/82 
f 91/27/90/85 88/25/87/82 110/77/109/102 
f 115/50/114/106 75/12/74/69 74/11/73/68 
f 115/50/114/106 74/11/73/68 116/51/115/107 
f 76/73/75/70 77/10/76/71 117/52/116/108 
f 76/73/75/70 117/52/116/108 118/53/117/109 
f 119/79/118/26 76/73/75/70 118/53/117/109 
f 120/57/119/110 121/56/120/111 122/55/121/112 
f 120/57/119/110 122/55/121/112 123/80/122/113 
f 6/7/6/114 123/80/122/113 122/55/121/112 
f 123/80/122/113 6/7/6/114 5/4/5/115 
f 123/80/122/113 5/4/5/115 124/81/123/26 
f 105/41/104/98 81/18/80/75 80/20/79/74 
f 105/41/104/98 80/20/79/74 106/40/105/99 
f 107/42/106/100 86/21/85/80 83/74/82/77 
f 107/42/106/100 83/74/82/77 125/82/124/116 
f 108/43/107/101 107/42/106/100 125/82/124/116 
f 100/36/99/94 74/11/73/68 73/13/72/67 
f 100/36/99/94 73/13/72/67 101/35/100/95 
f 102/37/101/96 79/14/78/73 78/8/77/72 
f 102/37/101/96 78/8/77/72 126/70/125/117 
f 103/38/102/97 102/37/101/96 126/70/125/117 
f 116/51/115/107 6/7/6/114 122/55/121/112 
f 116/51/115/107 122/55/121/112 115/50/114/106 
f 117/52/116/108 121/56/120/111 120/57/119/110 
f 117/52/116/108 120/57/119/110 127/71/126/118 
f 118/53/117/109 117/52/116/108 127/71/126/118 
f 97/30/96/91 95/32/94/89 90/23/89/84 
f 97/30/96/91 90/23/89/84 89/24/88/83 
f 112/45/111/104 94/33/93/88 93/31/92/87 
f 112/45/111/104 93/31/92/87 128/72/127/119 
f 113/48/112/105 112/45/111/104 128/72/127/119 
f 64/64/64/59 88/83/87/120 129/84/64/121 
f 64/64/64/59 129/84/64/121 65/65/64/60 
f 0/0/0/0 3/3/3/3 68/68/67/62 
f 0/0/0/0 68/68/67/62 67/67/66/56 
f 25/25/25/25 66/66/65/61 3/3/3/3 
f 25/25/25/25 3/3/3/3 2/2/2/2 
f 63/63/63/58 129/84/64/121 88/83/87/120 
f 63/63/63/58 88/83/87/120 60/60/60/55 
