v -1424.1953 186.521 162.5777
v -1430.3052 186.521 162.5777
v -1430.3052 192.9854 161.6566
v -1423.3735 192.9854 161.6566
v -1423.4639 186.521 163.4466
v -1422.6875 192.9854 162.471
v -1422.6875 192.9854 230.3676
v -1423.4639 186.521 229.392
v -1416.7349 213.2486 155.4631
v -1416.7349 213.2486 237.3759
v -1416.7349 208.8856 237.4178
v -1416.7349 208.8856 155.4212
v -1417.4702 213.2486 238.2489
v -1430.3052 213.2486 238.2489
v -1430.3052 208.8856 238.2489
v -1417.4351 208.8856 238.2489
v -1424.7788 182.6523 163.2538
v -1430.3052 182.6523 163.2538
v -1430.3052 184.5866 160.6466
v -1422.6553 184.5866 160.6466
v -1424.0332 182.6523 164.1391
v -1421.8369 184.5866 161.618
v -1421.8369 184.5866 231.2209
v -1424.0332 182.6523 228.6997
v -1417.4702 213.2486 154.5903
v -1430.3052 213.2486 154.5903
v -1430.3052 215.4302 152.1618
v -1415.5029 215.4302 152.1618
v -1414.6899 215.4302 153.1272
v -1414.6899 215.4302 239.7117
v -1430.3052 217.6117 154.5903
v -1417.5483 217.6117 154.5903
v -1416.7349 217.6117 155.5553
v -1416.7349 217.6116 237.2837
v -1420.7729 201.9843 158.5361
v -1430.3052 201.9843 158.5361
v -1430.3052 208.8856 154.5903
v -1417.4351 208.8856 154.5903
v -1420.0591 201.9843 159.3835
v -1420.0591 201.9843 233.4554
v -1423.3735 192.9854 231.1826
v -1424.1953 186.521 230.2609
v -1422.6553 184.5866 232.192
v -1424.7788 182.6523 229.5852
v -1415.5029 215.4302 240.6772
v -1417.5483 217.6116 238.2489
v -1420.7729 201.9843 234.3028
v -1430.3052 217.6116 238.2489
v -1430.3052 192.9854 231.1826
v -1430.3052 186.521 230.2609
v -1430.3052 184.5866 232.1922
v -1430.3052 182.6523 229.5854
v -1430.3052 215.4302 240.6772
v -1430.3052 201.9843 234.3028
vt 0.4476 0.6911
vt 0.2773 0.6911
vt 0.2773 0.6742
vt 0.4476 0.6742
vt 0.4453 0.6933
vt 0.2795 0.6933
vt 0.5504 0.8881
vt 0.5337 0.8881
vt 0.5337 0.9084
vt 0.5526 0.9084
vt 0.6076 0.8897
vt 0.6053 0.91
vt 0.7614 0.91
vt 0.7592 0.8897
vt 0.5892 0.9737
vt 0.7775 0.9737
vt 0.7776 0.96
vt 0.5891 0.96
vt 0.7937 0.9733
vt 0.8287 0.9733
vt 0.8287 0.9596
vt 0.7936 0.9596
vt 0.9865 0.7672
vt 0.9619 0.7672
vt 0.9632 0.7791
vt 0.9959 0.7791
vt 0.0112 0.7672
vt 0.0111 0.779
vt 0.2524 0.779
vt 0.2525 0.7672
vt 0.5546 0.882
vt 0.5337 0.882
vt 0.6034 0.8836
vt 0.7634 0.8836
vt 0.5687 0.9721
vt 0.5337 0.9721
vt 0.5337 0.979
vt 0.5741 0.979
vt 0.5839 0.9806
vt 0.7829 0.9806
vt 0.5337 0.9859
vt 0.5685 0.9859
vt 0.5894 0.9875
vt 0.7773 0.9875
vt 0.5597 0.9367
vt 0.5337 0.9367
vt 0.5337 0.9584
vt 0.5688 0.9584
vt 0.5982 0.9383
vt 0.7685 0.9383
vt 0.605 0.8907
vt 0.6028 0.9094
vt 0.8073 0.909
vt 0.8098 0.9096
vt 0.8121 0.8892
vt 0.8095 0.8902
vt 0.5867 0.9726
vt 0.5865 0.9593
vt 0.7912 0.9721
vt 0.791 0.9589
vt 0.6007 0.8862
vt 0.8079 0.8832
vt 0.8052 0.8857
vt 0.0079 0.7672
vt 0.0078 0.7789
vt 0.2558 0.7672
vt 0.2559 0.779
vt 0.5815 0.9806
vt 0.786 0.9801
vt 0.7884 0.9801
vt 0.5871 0.99
vt 0.7916 0.9896
vt 0.7939 0.987
vt 0.5957 0.9372
vt 0.8027 0.9379
vt 0.8002 0.9367
vt 0.1674 0.876
vt 0.1655 0.8746
vt 0.0109 0.8746
vt 0.0091 0.8976
vt 0.0091 0.876
vt 0.1674 0.8976
vt 0.8287 0.9096
vt 0.8287 0.8892
vt 0.2874 0.779
vt 0.2803 0.7672
vt 0.8287 0.8832
vt 0.8287 0.9801
vt 0.8287 0.987
vt 0.8287 0.9379
vn 0.0 -1.0 0.0
vn 0.0 -1.0 0.0
vn 0.3529 0.3982 -0.8467
vn 0.0 0.316 -0.9488
vn 0.0 -0.2354 -0.9719
vn 0.3927 -0.2994 -0.8696
vn 0.8967 0.3533 -0.2665
vn 0.9104 -0.267 -0.3159
vn 0.9105 -0.267 0.3158
vn 0.8967 0.3534 0.2665
vn 0.8514 -0.455 -0.261
vn 0.8514 -0.455 0.261
vn 0.895 -0.273 0.3526
vn 0.895 -0.273 -0.3527
vn 0.3354 -0.5075 0.7937
vn 0.0 -0.4072 0.9133
vn 0.0 -0.2568 0.9665
vn 0.4175 -0.2861 0.8625
vn 0.1149 -0.9416 -0.3166
vn 0.0001 -0.9494 -0.314
vn 0.0 -0.0739 -0.9973
vn 0.4573 -0.0595 -0.8873
vn 0.3564 -0.9308 -0.0809
vn 0.911 -0.0637 -0.4075
vn 0.911 -0.0637 0.4076
vn 0.3564 -0.9308 0.0808
vn 0.3354 -0.5075 -0.7937
vn 0.0 -0.4073 -0.9133
vn 0.0 0.0 -1.0
vn 0.46 0.0025 -0.8879
vn 0.9121 0.0031 -0.4099
vn 0.9121 0.0031 0.4099
vn -0.0 0.9338 -0.3578
vn 0.1314 0.9234 -0.3607
vn 0.4011 0.9113 -0.0932
vn 0.4011 0.9113 0.0932
vn 0.3492 -0.5056 -0.7889
vn 0.0 -0.4138 -0.9104
vn 0.0 -0.2568 -0.9665
vn 0.4174 -0.2861 -0.8625
vn 0.8417 -0.4587 -0.285
vn 0.8417 -0.4587 0.285
vn 0.3929 -0.2994 0.8695
vn 0.3529 0.3982 0.8467
vn 0.4573 -0.0594 0.8873
vn 0.1149 -0.9416 0.3166
vn 0.4601 0.0025 0.8879
vn 0.1314 0.9234 0.3607
vn 0.3492 -0.5057 0.7889
vn 0.0 0.9338 0.3578
vn 0.0 -0.2355 0.9719
vn 0.0 0.316 0.9488
vn 0.0 -0.0739 0.9973
vn -0.0 -0.9494 0.3141
vn 0.0 0.0 1.0
vn 0.0 -0.4138 0.9104
vtan 0.0 0.0 -1.0 1.0
vtan 0.0 0.0 -1.0 1.0
vtan 0.9357 -0.1502 0.3193 -1.0
vtan 1.0 0.0 0.0 -1.0
vtan 0.9197 0.1278 0.3713 -1.0
vtan 0.2397 0.1185 0.9636 -1.0
vtan 0.3054 -0.0814 0.9488 -1.0
vtan -0.303 0.0889 0.9488 -1.0
vtan -0.2479 -0.0977 0.9638 -1.0
vtan 0.2257 -0.1314 0.9653 -1.0
vtan -0.2302 0.123 0.9653 -1.0
vtan -0.3373 0.1029 0.9358 -1.0
vtan 0.3317 -0.1211 0.9356 -1.0
vtan -0.9407 -0.1345 0.3115 -1.0
vtan -1.0 0.0 0.0 -1.0
vtan -0.9087 -0.1228 0.3991 -1.0
vtan 0.9934 0.1089 0.0366 -1.0
vtan 1.0 0.0001 0.0 -1.0
vtan 0.8893 0.0306 0.4563 -1.0
vtan 0.2602 0.0157 0.9654 -1.0
vtan 0.4081 -0.0043 0.9129 -1.0
vtan -0.4086 -0.0038 0.9127 -1.0
vtan -0.2602 -0.0158 0.9654 -1.0
vtan 0.8893 0.0306 0.4563 -1.0
vtan 0.4084 0.2775 0.8696 -1.0
vtan -0.4066 0.0284 0.9132 -1.0
vtan 0.9421 0.1806 0.2825 -1.0
vtan 0.8879 -0.0013 0.46 -1.0
vtan 0.4099 0.0144 0.912 -1.0
vtan -0.4099 -0.0014 0.9121 -1.0
vtan 1.0 0.0 -0.0 -1.0
vtan 0.9913 -0.1224 0.0478 -1.0
vtan -0.0092 0.1058 0.9943 -1.0
vtan -0.0375 -0.0853 0.9956 -1.0
vtan 0.937 0.1884 0.294 -1.0
vtan 0.9087 0.1314 0.3962 -1.0
vtan 0.2449 -0.146 0.9585 -1.0
vtan -0.2502 0.1364 0.9585 -1.0
vtan 0.6806 0.5118 0.5243 -1.0
vtan 0.811 -0.3331 0.4809 -1.0
vtan -0.3842 -0.2637 0.8848 -1.0
vtan -0.9192 -0.0985 0.3814 -1.0
vtan -0.9354 0.1727 0.3086 -1.0
vtan -0.4242 0.5148 0.745 -1.0
vtan 0.6636 -0.4707 0.5814 -1.0
vtan 0.7995 -0.3355 0.4982 -1.0
vtan -0.4826 -0.4843 0.7298 -1.0
vtan -0.4293 -0.3134 0.847 -1.0
vtan 0.6112 0.7458 0.265 -1.0
vtan -0.8449 0.2823 0.4543 -1.0
vtan -0.2829 0.6226 0.7296 -1.0
vtan 0.6696 -0.162 0.7248 -1.0
vtan 0.8871 -0.0404 0.4599 -1.0
vtan -0.9274 0.0126 0.3739 -1.0
vtan -0.8888 0.0028 0.4582 -1.0
vtan 0.8879 0.001 0.46 -1.0
vtan -0.4098 0.0329 0.9116 -1.0
vtan -0.8879 -0.0001 0.4601 -1.0
vtan 0.1605 0.3392 0.9269 -1.0
vtan -0.9048 0.3783 0.1956 -1.0
vtan -0.9883 0.0934 0.1209 -1.0
vtan 0.6357 -0.4907 0.5959 -1.0
vtan -0.9368 -0.1684 0.3067 -1.0
vtan -0.5065 -0.4876 0.7111 -1.0
vtan -0.0508 -0.3571 0.9327 -1.0
vtan -0.0375 -0.0853 0.9956 -1.0
vtan 0.0339 0.0869 0.9956 -1.0
vtan -0.0005 0.3578 0.9338 -1.0
vtan 0.0363 0.3591 0.9326 -1.0
vtan 0.0 -0.3578 0.9338 -1.0
vtan -1.0 0.0 0.0 -1.0
vtan -1.0 0.0 0.0 -1.0
vtan -1.0 -0.0 0.0 -1.0
f 16/0/0/0 43/1/0/1 51/2/0/1 
f 16/0/1/1 51/2/1/1 17/3/1/1 
f 43/1/0/1 16/0/0/0 20/4/0/1 
f 43/1/0/1 20/4/0/1 23/5/0/1 
f 0/6/2/2 1/7/3/3 2/8/4/3 
f 0/6/2/2 2/8/4/3 3/9/5/4 
f 4/10/6/5 5/11/7/6 6/12/8/7 
f 4/10/6/5 6/12/8/7 7/13/9/8 
f 8/14/10/9 9/15/11/10 10/16/12/11 
f 8/14/10/9 10/16/12/11 11/17/13/12 
f 12/18/14/13 13/19/15/14 14/20/16/14 
f 12/18/14/13 14/20/16/14 15/21/17/15 
f 16/22/18/16 17/23/19/17 18/24/20/3 
f 16/22/18/16 18/24/20/3 19/25/21/18 
f 20/26/22/19 21/27/23/20 22/28/24/21 
f 20/26/22/19 22/28/24/21 23/29/25/22 
f 0/6/2/2 19/30/21/23 18/31/20/3 
f 0/6/2/2 18/31/20/3 1/7/3/3 
f 21/32/23/24 4/10/6/5 7/13/9/8 
f 21/32/23/24 7/13/9/8 22/33/24/25 
f 24/34/26/26 25/35/27/3 26/36/28/3 
f 24/34/26/26 26/36/28/3 27/37/29/27 
f 8/14/10/9 28/38/30/28 29/39/31/29 
f 8/14/10/9 29/39/31/29 9/15/11/10 
f 26/36/28/3 30/40/32/30 31/41/33/31 
f 26/36/28/3 31/41/33/31 27/37/29/27 
f 28/38/30/28 32/42/34/32 33/43/35/33 
f 28/38/30/28 33/43/35/33 29/39/31/29 
f 34/44/36/34 35/45/37/3 36/46/38/3 
f 34/44/36/34 36/46/38/3 37/47/39/35 
f 38/48/40/36 11/17/13/12 10/16/12/11 
f 38/48/40/36 10/16/12/11 39/49/41/37 
f 3/9/5/4 2/8/4/3 35/45/37/3 
f 3/9/5/4 35/45/37/3 34/44/36/34 
f 5/11/7/6 38/48/40/36 39/49/41/37 
f 5/11/7/6 39/49/41/37 6/12/8/7 
f 0/50/2/38 3/51/5/39 5/11/7/6 
f 0/50/2/38 5/11/7/6 4/10/6/5 
f 6/52/8/40 40/53/42/41 41/54/43/42 
f 6/52/8/40 41/54/43/42 7/55/9/43 
f 24/56/26/44 8/14/10/9 11/17/13/12 
f 24/56/26/44 11/17/13/12 37/57/39/45 
f 9/58/11/46 12/18/14/13 15/21/17/15 
f 9/58/11/46 15/21/17/15 10/59/12/47 
f 0/50/2/38 4/10/6/5 21/32/23/24 
f 0/50/2/38 21/32/23/24 19/60/21/48 
f 41/54/43/42 42/61/44/49 22/62/24/50 
f 41/54/43/42 22/62/24/50 7/55/9/43 
f 21/27/23/20 20/26/22/19 16/63/18/51 
f 21/27/23/20 16/63/18/51 19/64/21/52 
f 43/65/45/53 23/29/25/22 22/28/24/21 
f 43/65/45/53 22/28/24/21 42/66/44/54 
f 24/56/26/44 27/67/29/55 28/38/30/28 
f 24/56/26/44 28/38/30/28 8/14/10/9 
f 29/68/31/56 44/69/46/57 12/18/14/13 
f 29/68/31/56 12/18/14/13 9/58/11/46 
f 31/70/33/58 32/42/34/32 28/38/30/28 
f 31/70/33/58 28/38/30/28 27/67/29/55 
f 29/68/31/56 33/71/35/59 45/72/47/60 
f 29/68/31/56 45/72/47/60 44/69/46/57 
f 34/73/36/61 37/57/39/45 11/17/13/12 
f 34/73/36/61 11/17/13/12 38/48/40/36 
f 10/59/12/47 15/21/17/15 46/74/48/62 
f 10/59/12/47 46/74/48/62 39/75/41/63 
f 3/51/5/39 34/73/36/61 38/48/40/36 
f 3/51/5/39 38/48/40/36 5/11/7/6 
f 39/75/41/63 46/74/48/62 40/53/42/41 
f 39/75/41/63 40/53/42/41 6/52/8/40 
f 45/76/47/64 33/77/35/65 32/78/34/66 
f 45/76/47/64 32/78/34/66 30/79/32/67 
f 32/78/34/66 31/80/33/68 30/79/32/67 
f 47/81/49/69 45/76/47/64 30/79/32/67 
f 41/54/43/42 40/53/42/41 48/82/50/14 
f 41/54/43/42 48/82/50/14 49/83/51/14 
f 24/34/26/26 37/47/39/35 36/46/38/3 
f 24/34/26/26 36/46/38/3 25/35/27/3 
f 43/65/45/53 42/66/44/54 50/84/52/70 
f 43/65/45/53 50/84/52/70 51/85/53/71 
f 50/86/52/72 42/61/44/49 41/54/43/42 
f 50/86/52/72 41/54/43/42 49/83/51/14 
f 12/18/14/13 44/69/46/57 52/87/54/14 
f 12/18/14/13 52/87/54/14 13/19/15/14 
f 52/87/54/14 44/69/46/57 45/72/47/60 
f 52/87/54/14 45/72/47/60 47/88/49/14 
f 46/74/48/62 15/21/17/15 14/20/16/14 
f 46/74/48/62 14/20/16/14 53/89/55/14 
f 40/53/42/41 46/74/48/62 53/89/55/14 
f 40/53/42/41 53/89/55/14 48/82/50/14 
