v 1297.1624 186.521 162.5777
v 1296.3403 192.9854 161.6566
v 1303.272 192.9854 161.6566
v 1303.272 186.521 162.5777
v 1295.6541 192.9854 230.3676
v 1295.6541 192.9854 162.471
v 1296.4304 186.521 163.4466
v 1296.4304 186.521 229.392
v 1289.7017 208.8856 237.4178
v 1289.7017 213.2486 237.3759
v 1289.7017 213.2486 155.4631
v 1289.7017 208.8856 155.4212
v 1303.272 208.8856 238.2489
v 1303.272 213.2486 238.2489
v 1290.437 213.2486 238.2489
v 1290.4019 208.8856 238.2489
v 1297.7454 182.6523 163.2538
v 1295.6218 184.5866 160.6466
v 1303.272 184.5866 160.6466
v 1303.272 182.6523 163.2538
v 1294.8037 184.5866 231.2209
v 1294.8037 184.5866 161.618
v 1296.9998 182.6523 164.1391
v 1296.9998 182.6523 228.6997
v 1290.437 213.2486 154.5903
v 1288.4695 215.4302 152.1618
v 1303.272 215.4302 152.1618
v 1303.272 213.2486 154.5903
v 1287.6562 215.4302 239.7117
v 1287.6562 215.4302 153.1272
v 1290.5149 217.6117 154.5903
v 1303.272 217.6117 154.5903
v 1289.7017 217.6116 237.2837
v 1289.7017 217.6117 155.5553
v 1293.7395 201.9843 158.5361
v 1290.4019 208.8856 154.5903
v 1303.272 208.8856 154.5903
v 1303.272 201.9843 158.5361
v 1293.0256 201.9843 159.3835
v 1293.0256 201.9843 233.4554
v 1297.1624 186.521 230.2609
v 1296.3403 192.9854 231.1826
v 1295.6218 184.5866 232.192
v 1297.7454 182.6523 229.5852
v 1288.4695 215.4302 240.6772
v 1290.5149 217.6116 238.2489
v 1293.7395 201.9843 234.3028
v 1303.272 217.6116 238.2489
v 1303.272 192.9854 231.1826
v 1303.272 186.521 230.2609
v 1303.272 184.5866 232.1922
v 1303.272 182.6523 229.5854
v 1303.272 215.4302 240.6772
v 1303.272 201.9843 234.3028
vt 0.2773 0.6742
vt 0.2773 0.6911
vt 0.4476 0.6911
vt 0.4476 0.6742
vt 0.4453 0.6933
vt 0.2795 0.6933
vt 0.5504 0.8881
vt 0.5526 0.9084
vt 0.5337 0.9084
vt 0.5337 0.8881
vt 0.7614 0.91
vt 0.6053 0.91
vt 0.6076 0.8897
vt 0.7592 0.8897
vt 0.7776 0.96
vt 0.7775 0.9737
vt 0.5892 0.9737
vt 0.5891 0.96
vt 0.8287 0.9596
vt 0.8287 0.9733
vt 0.7937 0.9733
vt 0.7936 0.9596
vt 0.9865 0.7672
vt 0.9959 0.7791
vt 0.9632 0.7791
vt 0.9619 0.7672
vt 0.2524 0.779
vt 0.0111 0.779
vt 0.0112 0.7672
vt 0.2525 0.7672
vt 0.5337 0.882
vt 0.5546 0.882
vt 0.6034 0.8836
vt 0.7634 0.8836
vt 0.5687 0.9721
vt 0.5741 0.979
vt 0.5337 0.979
vt 0.5337 0.9721
vt 0.7829 0.9806
vt 0.5839 0.9806
vt 0.5685 0.9859
vt 0.5337 0.9859
vt 0.7773 0.9875
vt 0.5894 0.9875
vt 0.5597 0.9367
vt 0.5688 0.9584
vt 0.5337 0.9584
vt 0.5337 0.9367
vt 0.5982 0.9383
vt 0.7685 0.9383
vt 0.605 0.8907
vt 0.6028 0.9094
vt 0.8121 0.8892
vt 0.8098 0.9096
vt 0.8073 0.909
vt 0.8095 0.8902
vt 0.5867 0.9726
vt 0.5865 0.9593
vt 0.7912 0.9721
vt 0.791 0.9589
vt 0.6007 0.8862
vt 0.8052 0.8857
vt 0.8079 0.8832
vt 0.0078 0.7789
vt 0.0079 0.7672
vt 0.2558 0.7672
vt 0.2559 0.779
vt 0.5815 0.9806
vt 0.7884 0.9801
vt 0.786 0.9801
vt 0.5871 0.99
vt 0.7939 0.987
vt 0.7916 0.9896
vt 0.5957 0.9372
vt 0.8027 0.9379
vt 0.8002 0.9367
vt 0.0091 0.8976
vt 0.0091 0.876
vt 0.0109 0.8746
vt 0.1674 0.876
vt 0.1655 0.8746
vt 0.1674 0.8976
vt 0.8287 0.9096
vt 0.8287 0.8892
vt 0.2874 0.779
vt 0.2803 0.7672
vt 0.8287 0.8832
vt 0.8287 0.9801
vt 0.8287 0.987
vt 0.8287 0.9379
vn 0.0 -1.0 0.0
vn 0.0 -1.0 0.0
vn -0.3527 0.3982 -0.8468
vn -0.3926 -0.2994 -0.8696
vn 0.0 -0.2354 -0.9719
vn 0.0 0.316 -0.9488
vn -0.9105 -0.267 0.3158
vn -0.9104 -0.267 -0.316
vn -0.8967 0.3533 -0.2666
vn -0.8967 0.3534 0.2666
vn -0.8951 -0.273 0.3526
vn -0.8513 -0.4551 0.261
vn -0.8513 -0.4551 -0.261
vn -0.895 -0.273 -0.3527
vn 0.0 -0.2568 0.9665
vn 0.0 -0.4072 0.9133
vn -0.3354 -0.5075 0.7937
vn -0.4175 -0.2861 0.8625
vn -0.1149 -0.9416 -0.3166
vn -0.4574 -0.0594 -0.8873
vn 0.0 -0.0739 -0.9973
vn -0.0 -0.9494 -0.314
vn -0.911 -0.0637 0.4075
vn -0.911 -0.0637 -0.4075
vn -0.3564 -0.9308 -0.0808
vn -0.3564 -0.9308 0.0809
vn -0.3353 -0.5075 -0.7937
vn -0.46 0.0025 -0.8879
vn 0.0 0.0 -1.0
vn 0.0 -0.4073 -0.9133
vn -0.9121 0.0031 0.41
vn -0.9121 0.0031 -0.41
vn -0.1314 0.9234 -0.3607
vn 0.0 0.9338 -0.3578
vn -0.4011 0.9113 0.0932
vn -0.4011 0.9113 -0.0932
vn -0.3492 -0.5056 -0.7889
vn -0.4174 -0.2861 -0.8625
vn 0.0 -0.2568 -0.9665
vn 0.0 -0.4138 -0.9104
vn -0.8417 -0.4587 -0.285
vn -0.8417 -0.4587 0.285
vn -0.3527 0.3982 0.8468
vn -0.3928 -0.2994 0.8695
vn -0.4574 -0.0594 0.8873
vn -0.1149 -0.9416 0.3166
vn -0.46 0.0024 0.8879
vn -0.1314 0.9234 0.3607
vn -0.3492 -0.5056 0.7889
vn 0.0 0.9338 0.3578
vn 0.0 -0.2355 0.9719
vn 0.0 0.316 0.9488
vn -0.0 -0.0739 0.9973
vn -0.0 -0.9494 0.3141
vn 0.0 0.0 1.0
vn 0.0 -0.4138 0.9104
vtan 0.0 0.0 -1.0 -1.0
vtan -0.9357 -0.1501 0.3192 1.0
vtan -0.9197 0.1278 0.3713 1.0
vtan -1.0 0.0 0.0 1.0
vtan 0.3031 0.0889 0.9488 1.0
vtan -0.3054 -0.0814 0.9487 1.0
vtan -0.2398 0.1184 0.9636 1.0
vtan 0.248 -0.0977 0.9638 1.0
vtan 0.3373 0.1029 0.9358 1.0
vtan 0.2302 0.123 0.9653 1.0
vtan -0.2257 -0.1314 0.9653 1.0
vtan -0.3317 -0.1211 0.9356 1.0
vtan 1.0 0.0 0.0 1.0
vtan 0.9407 -0.1345 0.3115 1.0
vtan 0.9087 -0.1228 0.3991 1.0
vtan -0.9934 0.1089 0.0366 1.0
vtan -0.8893 0.0306 0.4564 1.0
vtan -1.0 0.0 0.0 1.0
vtan 0.4086 -0.0038 0.9127 1.0
vtan -0.408 -0.0043 0.913 1.0
vtan -0.2602 0.0158 0.9654 1.0
vtan 0.2602 -0.0157 0.9654 1.0
vtan -0.8893 0.0306 0.4564 1.0
vtan -0.4084 0.2775 0.8696 1.0
vtan 0.4065 0.0284 0.9132 1.0
vtan -0.9421 0.1806 0.2825 1.0
vtan -0.8879 -0.0013 0.46 1.0
vtan 0.41 -0.0014 0.9121 1.0
vtan -0.4099 0.0144 0.912 1.0
vtan -0.9913 -0.1224 0.0478 1.0
vtan -1.0 0.0 -0.0 1.0
vtan 0.0375 -0.0853 0.9956 1.0
vtan 0.0093 0.1058 0.9943 1.0
vtan -0.937 0.1884 0.294 1.0
vtan -0.9087 0.1314 0.3962 1.0
vtan -0.2449 -0.146 0.9585 1.0
vtan 0.2502 0.1364 0.9585 1.0
vtan -0.6808 0.5117 0.5242 1.0
vtan -0.8111 -0.333 0.4809 1.0
vtan 0.9354 0.1727 0.3085 1.0
vtan 0.9192 -0.0985 0.3813 1.0
vtan 0.3843 -0.2637 0.8848 1.0
vtan 0.4243 0.5148 0.7449 1.0
vtan -0.6636 -0.4708 0.5814 1.0
vtan -0.7995 -0.3355 0.4982 1.0
vtan 0.4826 -0.4843 0.7298 1.0
vtan 0.4293 -0.3134 0.847 1.0
vtan -0.611 0.7459 0.265 1.0
vtan 0.2829 0.6226 0.7296 1.0
vtan 0.8449 0.2823 0.4544 1.0
vtan -0.887 -0.0404 0.46 1.0
vtan -0.6696 -0.162 0.7248 1.0
vtan 0.9274 0.0126 0.3739 1.0
vtan 0.8888 0.0028 0.4583 1.0
vtan -0.8879 0.001 0.46 1.0
vtan 0.8879 -0.0001 0.46 1.0
vtan 0.4098 0.0329 0.9116 1.0
vtan -0.1603 0.3393 0.9269 1.0
vtan 0.9883 0.0934 0.1209 1.0
vtan 0.9048 0.3782 0.1956 1.0
vtan -0.6357 -0.4907 0.5959 1.0
vtan 0.9368 -0.1684 0.3067 1.0
vtan 0.5065 -0.4876 0.7111 1.0
vtan 0.0005 0.3578 0.9338 1.0
vtan -0.036 0.3592 0.9326 1.0
vtan -0.0338 0.087 0.9956 1.0
vtan 0.0508 -0.3571 0.9327 1.0
vtan 0.0375 -0.0853 0.9956 1.0
vtan 0.0 -0.3578 0.9338 1.0
vtan 1.0 0.0 0.0 1.0
vtan 1.0 -0.0 0.0 1.0
vtan 1.0 -0.0 0.0 1.0
f 51/0/0/0 43/1/0/0 16/2/0/0 
f 51/0/1/0 16/2/1/0 19/3/1/0 
f 22/4/1/0 16/2/1/0 43/1/1/0 
f 22/4/0/0 43/1/0/0 23/5/0/0 
f 0/6/2/1 1/7/3/2 2/8/4/3 
f 0/6/2/1 2/8/4/3 3/9/5/3 
f 4/10/6/4 5/11/7/5 6/12/8/6 
f 4/10/6/4 6/12/8/6 7/13/9/7 
f 8/14/10/8 9/15/11/9 10/16/12/10 
f 8/14/10/8 10/16/12/10 11/17/13/11 
f 12/18/14/12 13/19/15/12 14/20/16/13 
f 12/18/14/12 14/20/16/13 15/21/17/14 
f 16/22/18/15 17/23/19/16 18/24/20/3 
f 16/22/18/15 18/24/20/3 19/25/21/17 
f 20/26/22/18 21/27/23/19 22/28/24/20 
f 20/26/22/18 22/28/24/20 23/29/25/21 
f 0/6/2/1 3/9/5/3 18/30/20/3 
f 0/6/2/1 18/30/20/3 17/31/19/22 
f 7/13/9/7 6/12/8/6 21/32/23/23 
f 7/13/9/7 21/32/23/23 20/33/22/24 
f 24/34/26/25 25/35/27/26 26/36/28/3 
f 24/34/26/25 26/36/28/3 27/37/29/3 
f 28/38/30/27 29/39/31/28 10/16/12/10 
f 28/38/30/27 10/16/12/10 9/15/11/9 
f 30/40/32/29 31/41/33/30 26/36/28/3 
f 30/40/32/29 26/36/28/3 25/35/27/26 
f 32/42/34/31 33/43/35/32 29/39/31/28 
f 32/42/34/31 29/39/31/28 28/38/30/27 
f 34/44/36/33 35/45/37/34 36/46/38/3 
f 34/44/36/33 36/46/38/3 37/47/39/3 
f 8/14/10/8 11/17/13/11 38/48/40/35 
f 8/14/10/8 38/48/40/35 39/49/41/36 
f 1/7/3/2 34/44/36/33 37/47/39/3 
f 1/7/3/2 37/47/39/3 2/8/4/3 
f 39/49/41/36 38/48/40/35 5/11/7/5 
f 39/49/41/36 5/11/7/5 4/10/6/4 
f 0/50/2/37 6/12/8/6 5/11/7/5 
f 0/50/2/37 5/11/7/5 1/51/3/38 
f 40/52/42/39 41/53/43/40 4/54/6/41 
f 40/52/42/39 4/54/6/41 7/55/9/42 
f 11/17/13/11 10/16/12/10 24/56/26/43 
f 11/17/13/11 24/56/26/43 35/57/37/44 
f 15/21/17/14 14/20/16/13 9/58/11/45 
f 15/21/17/14 9/58/11/45 8/59/10/46 
f 0/50/2/37 17/60/19/47 21/32/23/23 
f 0/50/2/37 21/32/23/23 6/12/8/6 
f 40/52/42/39 7/55/9/42 20/61/22/48 
f 40/52/42/39 20/61/22/48 42/62/44/49 
f 21/27/23/19 17/63/19/50 16/64/18/51 
f 21/27/23/19 16/64/18/51 22/28/24/20 
f 20/26/22/18 23/29/25/21 43/65/45/52 
f 20/26/22/18 43/65/45/52 42/66/44/53 
f 24/56/26/43 10/16/12/10 29/39/31/28 
f 24/56/26/43 29/39/31/28 25/67/27/54 
f 14/20/16/13 44/68/46/55 28/69/30/56 
f 14/20/16/13 28/69/30/56 9/58/11/45 
f 29/39/31/28 33/43/35/32 30/70/32/57 
f 29/39/31/28 30/70/32/57 25/67/27/54 
f 28/69/30/56 44/68/46/55 45/71/47/58 
f 28/69/30/56 45/71/47/58 32/72/34/59 
f 34/73/36/60 38/48/40/35 11/17/13/11 
f 34/73/36/60 11/17/13/11 35/57/37/44 
f 46/74/48/61 15/21/17/14 8/59/10/46 
f 46/74/48/61 8/59/10/46 39/75/41/62 
f 1/51/3/38 5/11/7/5 38/48/40/35 
f 1/51/3/38 38/48/40/35 34/73/36/60 
f 41/53/43/40 46/74/48/61 39/75/41/62 
f 41/53/43/40 39/75/41/62 4/54/6/41 
f 31/76/33/63 30/77/32/64 33/78/35/65 
f 31/76/33/63 33/78/35/65 45/79/47/66 
f 33/78/35/65 32/80/34/67 45/79/47/66 
f 47/81/49/68 31/76/33/63 45/79/47/66 
f 48/82/50/12 41/53/43/40 40/52/42/39 
f 48/82/50/12 40/52/42/39 49/83/51/12 
f 36/46/38/3 35/45/37/34 24/34/26/25 
f 36/46/38/3 24/34/26/25 27/37/29/3 
f 50/84/52/69 42/66/44/53 43/65/45/52 
f 50/84/52/69 43/65/45/52 51/85/53/70 
f 50/86/52/71 49/83/51/12 40/52/42/39 
f 50/86/52/71 40/52/42/39 42/62/44/49 
f 52/87/54/12 44/68/46/55 14/20/16/13 
f 52/87/54/12 14/20/16/13 13/19/15/12 
f 52/87/54/12 47/88/49/12 45/71/47/58 
f 52/87/54/12 45/71/47/58 44/68/46/55 
f 12/18/14/12 15/21/17/14 46/74/48/61 
f 12/18/14/12 46/74/48/61 53/89/55/12 
f 53/89/55/12 46/74/48/61 41/53/43/40 
f 53/89/55/12 41/53/43/40 48/82/50/12 
