v -250.1106 55.4369 169.8278
v -247.1801 51.1737 164.3633
v -253.568 55.2177 159.8284
v -255.7615 59.0459 166.1419
v -244.2018 52.2576 173.4467
v -241.9698 48.4935 167.1231
v -243.3755 55.5391 159.5392
v -249.174 58.9023 155.8917
v -237.3 52.6379 163.1147
v -266.455 57.4724 157.5116
v -266.351 61.0543 163.5952
v -256.2306 57.7307 165.136
v -256.2946 55.1084 157.7162
v -246.7448 56.8485 157.1508
v -246.302 60.4104 163.3972
v -265.296 61.5592 151.2815
v -257.0392 60.7967 149.5255
v -248.3995 60.7076 149.5756
v -258.1871 57.5334 149.1026
v -250.3505 56.1508 149.404
v -251.3627 55.9764 142.6501
v -258.5482 58.1027 142.0025
v -257.5945 62.9599 137.4421
v -249.0179 62.594 138.2658
v -265.6094 61.4275 143.6898
v -263.9207 63.0965 150.6559
v -263.2523 69.3612 139.4024
v -270.5721 54.6096 151.7067
v -269.1603 58.1516 158.8568
v -262.7719 56.8071 156.7531
v -263.7363 54.2516 149.715
v -259.2651 58.521 147.2766
v -258.2455 63.409 154.6563
v -267.0 52.9866 142.6785
v -273.5093 56.0155 144.6707
v -262.6155 60.7153 139.9865
v -263.9542 51.8611 155.6217
v -272.2327 51.7663 158.0149
v -270.1982 52.514 164.1771
v -263.1017 55.9675 161.8472
v -258.2572 54.6084 158.484
v -258.1104 52.2525 153.1405
v -266.9568 56.8695 150.1702
v -274.0181 55.8386 152.607
v -259.9618 55.2046 147.5327
v -262.52 57.4673 146.64
v -264.2144 52.5944 141.0556
v -270.924 50.2562 146.0493
v -268.2119 55.5997 151.1833
v -257.0635 59.7509 141.9396
v -259.8105 54.4694 136.7823
v -269.724 55.1325 136.8918
v -275.2814 53.0269 141.5249
v -264.4198 57.6853 132.0898
v -249.8052 58.6079 150.2765
v -241.4558 60.2309 146.5447
v -247.8881 62.8091 139.0782
v -254.0848 58.7027 142.5133
v -257.8295 59.0941 136.5489
v -251.5635 68.1425 130.9836
v -259.6492 62.9221 146.955
v -255.5563 62.6802 153.2039
v -263.4854 63.6746 140.146
v -241.6664 58.0538 143.5455
v -234.1971 60.8524 144.5682
v -234.2095 59.5855 137.8303
v -241.3506 57.7492 136.4305
v -241.8606 62.1468 131.4504
v -234.1971 66.2718 132.9314
v -249.1356 57.2462 137.2177
v -249.1356 60.2043 144.0496
v -249.6416 65.116 132.2701
v -261.1361 56.5346 144.8031
v -256.2372 57.4459 143.7719
v -255.4323 53.4687 142.6846
v -260.4473 51.937 142.24
v -249.5233 58.2805 141.9016
v -250.9724 53.8501 141.2512
v -257.9205 50.255 136.5355
v -261.1903 51.0881 137.0282
v -252.2584 50.764 135.2252
v -261.9677 54.4447 136.6314
v -261.6869 57.5728 144.0467
v -252.8269 54.5392 143.7088
v -253.0663 52.5017 136.461
v -244.2791 54.6142 135.6876
v -243.653 57.7189 143.2831
v -253.0206 57.8425 128.7223
v -261.7712 59.0831 129.0719
v -244.2682 58.728 127.8322
v -223.9644 58.2369 154.7231
v -218.6582 64.2334 152.2193
v -220.8967 60.6976 143.7931
v -226.4308 55.7783 146.2738
v -230.7181 56.8281 138.3945
v -225.3627 62.8559 135.5048
v -234.9156 57.4643 149.1281
v -232.1127 59.338 157.3308
v -238.8884 57.3314 141.2401
v -242.8586 59.3388 167.7174
v -235.3894 62.1368 168.7413
v -235.4017 60.8737 162.0029
v -242.5428 59.0381 160.6023
v -243.0529 63.4386 155.6242
v -235.3894 67.5627 157.107
v -250.3279 58.5347 161.3892
v -250.3279 61.4889 168.2224
v -250.8339 66.4073 156.4451
v -257.1261 53.8805 162.3149
v -256.8453 59.8964 168.1599
v -247.9854 56.9397 168.8507
v -248.2247 52.0061 162.8
v -239.4374 53.6416 161.383
v -238.8114 59.7113 167.4029
v -248.1791 53.7127 153.8511
v -256.9297 55.0106 153.7647
v -239.4266 54.1607 152.732
v -259.8401 57.6979 154.4628
v -264.8136 59.321 162.1377
v -255.3538 61.8992 164.9008
v -252.0247 57.7927 158.6463
v -245.6371 58.1841 161.612
v -247.8649 67.2325 169.6912
v -249.774 62.0121 151.8917
v -256.6086 61.7702 148.877
v -242.85 62.7646 155.5161
v -244.845 51.4197 177.7069
v -244.1421 53.0944 170.9106
v -251.2358 56.1912 171.3078
v -251.5818 56.1955 179.0416
v -239.0968 57.5923 179.3739
v -238.6124 55.6879 170.987
v -245.3081 55.1189 163.3199
v -251.2295 61.9921 164.9554
v -239.191 60.5897 164.533
v -253.2688 52.9849 171.4975
v -250.0574 53.2461 173.2682
v -249.1277 54.6999 170.2857
v -252.0775 53.3778 168.2087
v -251.6481 56.8926 166.0206
v -247.7756 57.5438 167.2752
v -255.8849 54.0555 167.8295
v -256.9279 53.4968 171.1528
v -255.2063 56.6537 164.8537
v -262.1898 56.1862 157.001
v -265.5287 53.0555 156.5006
v -266.0922 54.5348 160.8712
v -262.4103 56.4578 161.2214
v -262.7222 57.8659 152.7719
v -266.3528 55.116 152.7157
v -269.9851 52.7442 156.9713
v -270.4489 54.5329 160.719
v -270.3645 53.7871 152.7751
v -263.0054 55.9227 150.0125
v -262.3774 58.8151 157.4817
v -254.4628 53.3878 157.4694
v -254.8169 51.5385 150.1866
v -245.8136 51.1178 149.8182
v -244.865 53.8889 157.4817
v -253.2397 56.7568 142.5432
v -261.446 60.4173 142.5432
v -244.5365 55.1588 142.0373
v -252.3982 57.6491 144.2095
v -260.6716 57.5113 146.6058
v -258.1479 53.4345 151.717
v -250.9093 53.4229 149.8801
v -266.939 57.3413 147.6008
v -265.4419 53.1581 153.308
v -253.8364 55.9861 138.2772
v -261.1067 55.8329 139.9735
v -268.4364 55.37 141.4054
v -250.7463 53.8805 147.2853
v -250.4656 59.8964 153.1302
v -241.6056 56.9397 153.8211
v -241.845 52.0061 147.7704
v -233.0577 53.6416 146.3534
v -232.4316 59.7113 152.3733
v -241.7993 53.7127 138.8215
v -250.5499 55.0106 138.7351
v -233.0469 54.1607 137.7024
v -230.1039 57.8582 140.039
v -236.4907 59.2877 135.5249
v -241.173 56.2477 143.0522
v -235.0999 55.85 147.3943
v -240.1475 57.9532 154.6308
v -246.8809 59.3145 150.2852
v -229.891 62.791 151.5487
v -225.0238 64.0687 144.2733
v -234.6484 63.7172 158.9451
v -259.0511 51.9429 150.3452
v -258.7704 57.9587 156.1902
v -249.9104 55.002 156.881
v -250.1498 50.0684 150.8304
v -241.3625 51.7039 149.4133
v -240.7365 57.7737 155.4332
v -250.1041 51.775 141.8814
v -258.8547 53.0729 141.795
v -241.3517 52.223 140.7623
v -246.4022 55.1665 159.9717
v -245.26 51.06 153.7928
v -253.8715 50.9652 153.47
v -253.8715 55.1962 159.9594
v -238.933 55.6116 159.7874
v -238.933 51.4514 153.2687
v -246.4022 55.2794 147.6748
v -253.8715 55.0375 147.775
v -238.933 56.0319 147.3632
v -238.0731 52.7873 160.6371
v -230.7568 54.6715 158.0518
v -234.474 57.2579 152.801
v -241.4724 56.421 155.2679
v -243.3007 62.9922 153.5598
v -235.2646 65.7838 151.6583
v -247.564 55.5502 160.1382
v -243.3883 54.3895 166.0607
v -248.5079 65.1367 159.6774
v -230.3597 63.5334 137.5378
v -237.7507 63.5334 136.9739
v -238.3171 59.33 141.8424
v -231.2332 60.2999 144.4978
v -247.9685 63.5334 137.0618
v -245.1416 59.33 142.2603
v -236.6859 63.5334 151.4578
v -232.1967 65.5981 150.6143
v -245.1416 62.9761 151.4578
v -254.5914 58.3918 140.7444
v -246.99 54.1885 141.4093
v -247.6315 59.2215 134.2269
v -254.5914 58.3918 133.3535
v -254.5914 58.3918 148.1353
v -247.6315 54.1885 148.1353
v -240.6715 58.3918 139.6796
v -240.6715 62.4096 135.7555
v -240.6715 54.6998 148.1353
v -258.1368 52.9902 132.6454
v -254.4528 52.6128 132.5674
v -254.0643 52.1398 127.4658
v -258.9243 52.0928 127.6997
v -256.5195 54.3068 139.3582
v -253.1537 53.5235 136.9992
v -249.4736 54.1209 129.8633
v -250.9845 53.9023 126.9077
v -248.0959 55.0879 135.4619
v -233.0015 57.8016 138.208
v -224.5017 57.0506 139.463
v -223.7665 62.8202 135.4929
v -231.3546 65.5953 136.7349
v -237.0842 63.5751 136.2983
v -239.3552 57.9609 138.0124
v -232.874 56.2719 145.7348
v -225.4044 55.2695 145.9587
v -240.222 55.2319 143.9388
v -230.0106 63.3929 136.2822
v -233.9985 61.3235 136.596
v -234.1682 64.9289 139.918
v -230.1541 65.7324 139.9685
v -230.1002 63.0377 131.7547
v -234.2726 61.613 132.2896
v -238.3517 62.6025 136.5805
v -238.3481 66.1583 139.2345
v -238.4542 61.6419 132.3432
v -233.075 55.0923 141.6848
v -229.3704 59.5443 134.1669
v -236.7759 62.3284 132.8156
v -240.1042 57.0326 139.819
v -243.0778 48.8446 144.2487
v -235.6183 45.8101 145.9159
v -242.7878 59.0119 127.3996
v -246.0829 53.3169 133.8398
v -249.4174 46.0668 138.8843
v -240.901 55.1187 131.8048
v -245.3707 62.0293 134.0727
v -239.9811 61.9365 141.6104
v -235.3721 56.0281 138.9475
v -228.6205 59.8817 143.8505
v -232.9987 66.9776 146.4601
v -228.6516 55.9688 132.8472
v -234.3602 54.6307 126.2208
v -222.1006 58.7393 138.2368
v -241.3461 56.8102 156.5098
v -241.6919 60.3728 162.5934
v -231.2563 58.6905 164.1343
v -230.991 56.0843 156.7144
v -221.7548 59.3244 156.149
v -221.7628 62.921 162.3954
v -240.7108 61.0402 150.2797
v -232.441 61.5974 148.5238
v -223.8766 62.882 148.5738
v -227.7921 58.9627 152.1468
v -222.9949 59.6474 151.8827
v -223.1089 59.3117 147.5613
v -227.6199 57.3403 147.2144
v -227.8981 59.6129 143.0083
v -222.933 60.2929 142.7495
v -232.0635 58.4751 147.5312
v -232.0635 59.9232 151.6184
v -232.3396 59.3435 143.0686
v -235.4938 55.7377 166.6788
v -242.5681 61.1027 167.9128
v -243.0679 58.036 173.8194
v -235.2347 55.834 173.9388
v -231.0374 52.3799 170.9038
v -230.0356 52.4353 165.2517
v -233.1453 63.2298 163.7233
v -239.7997 67.0253 164.7215
v -227.791 57.7085 161.4071
v -230.2605 56.8131 149.0258
v -224.614 52.1722 149.1687
v -224.7665 53.629 140.6501
v -230.6375 58.2317 141.6737
v -229.6814 55.5903 156.4001
v -223.7803 51.0168 155.3799
v -218.8076 52.6119 147.8052
v -219.3002 53.9185 140.4404
v -218.0977 51.5158 155.1941
v -261.9398 52.2449 165.4808
v -261.1926 51.6334 158.2747
v -269.7908 52.2767 158.3856
v -269.385 52.7674 165.8604
v -254.4669 52.2452 165.1139
v -254.8684 51.8325 157.6409
v -262.1686 58.5641 154.541
v -269.6298 58.7875 154.9133
v -254.6777 58.9028 154.1822
v -226.9253 54.7598 150.3767
v -220.257 56.981 146.579
v -224.3403 52.4544 139.2962
v -230.8539 51.2793 142.8101
v -235.2062 51.8697 134.9286
v -228.5197 53.9867 130.7524
v -237.795 57.3567 145.063
v -233.7804 60.1007 152.5365
v -242.2615 56.7602 137.4612
v -229.1387 54.0521 146.5648
v -233.5287 61.4799 146.5598
v -235.2113 58.9458 155.3902
v -230.3917 52.5131 155.4419
v -229.0437 53.8626 164.2782
v -233.6067 61.3959 164.6101
v -221.3519 51.7433 155.8852
v -220.6154 52.8334 147.1428
v -220.5457 52.0205 164.6776
v -224.5117 51.2694 163.4026
v -221.9901 58.4637 159.4519
v -230.5507 58.4754 155.9037
v -232.9917 52.2582 160.3108
v -241.3539 56.0338 159.9038
v -239.0927 63.4244 155.7207
v -235.465 51.6362 169.0262
v -227.1014 50.2503 171.565
v -243.9034 54.3608 168.049
v -258.9602 56.5499 134.3303
v -261.2008 57.2317 137.1791
v -258.3607 56.4214 138.8652
v -256.4005 54.63 136.033
v -253.1826 56.096 137.6654
v -255.0104 56.6553 141.3148
v -254.7371 55.6863 132.6633
v -257.4384 57.4625 131.0529
v -251.3354 55.8688 134.4075
v -243.109 49.3039 147.9346
v -235.6398 52.1025 148.9572
v -235.6521 50.8356 142.2194
v -242.7932 48.9993 140.8196
v -243.3032 53.3969 135.8395
v -235.6398 57.5219 137.3205
v -250.5782 48.4963 141.6068
v -250.5782 51.4544 148.4387
v -251.0842 56.3661 136.6591
v -238.4326 55.4727 164.1718
v -236.7717 58.2707 156.8179
v -243.4863 57.0076 156.252
v -245.4945 55.172 163.2467
v -250.498 59.5725 163.3277
v -248.3632 63.6967 155.8197
v -245.3784 54.6686 171.0705
v -238.5704 57.6228 171.6568
v -250.3477 62.5412 171.1504
v -233.2064 54.3069 174.2234
v -227.6041 54.3503 170.8823
v -231.2509 56.1624 164.1848
v -237.326 54.033 166.6647
v -235.6407 55.2438 160.2916
v -240.9911 54.0735 161.4694
v -241.7593 57.4784 170.326
v -237.9039 57.1201 176.7679
v -245.921 56.2244 164.212
v -252.9163 58.6487 161.1928
v -259.4705 55.9469 160.1765
v -259.0193 54.1528 167.3795
v -250.6736 52.3826 167.1912
v -258.5681 52.3587 174.5825
v -250.8802 50.553 173.7462
v -245.6912 58.6828 166.3418
v -246.8783 63.4028 163.3167
v -244.3042 53.1682 173.848
v -249.7944 66.0315 148.2888
v -255.3544 64.7465 144.1018
v -257.6505 60.1336 149.8091
v -249.822 57.5312 152.1609
v -259.9467 55.5208 155.5164
v -252.474 53.2272 157.061
v -245.1158 63.0989 155.363
v -245.2069 68.8399 153.9037
v -246.5388 54.7965 160.449
v -254.8215 55.1234 148.5327
v -260.3816 53.8384 144.3457
v -262.6777 49.2255 150.053
v -254.8491 46.6231 152.4048
v -264.9738 44.6127 155.7603
v -257.5012 42.3191 157.3049
v -250.1429 52.1908 155.6069
v -250.234 57.9317 154.1476
v -251.566 43.8884 160.6929
v -240.8363 58.6487 158.4978
v -247.3905 55.9469 157.4815
v -246.9393 54.1528 164.6845
v -238.5936 52.3826 164.4962
v -246.488 52.3587 171.8876
v -238.8002 50.553 171.0513
v -233.6112 58.6828 163.6468
v -234.7982 63.4028 160.6218
v -232.2242 53.1682 171.153
v -245.1974 54.4226 151.383
v -250.8494 51.6478 147.9582
v -253.5839 50.9571 154.7972
v -246.0586 49.1029 158.377
v -256.3185 50.2665 161.6362
v -249.1165 48.2846 164.358
v -240.8351 55.1742 159.0798
v -240.3625 59.4033 155.3648
v -243.0637 50.835 166.9813
v -257.9028 55.088 138.3478
v -258.9409 51.9884 136.2589
v -264.0436 51.9616 139.3319
v -263.293 55.4227 141.1365
v -254.3354 56.4562 133.5036
v -255.3079 52.9147 131.7617
v -262.2716 50.7704 131.6147
v -267.037 50.6229 134.9104
v -258.2935 51.3156 127.4606
v -236.3142 59.9341 133.5877
v -234.3083 65.9702 139.0882
v -229.1476 60.9845 139.743
v -230.3484 55.5898 134.1552
v -224.3617 55.6775 132.0421
v -222.1323 63.068 137.1703
v -232.9746 52.2154 127.4062
v -237.4935 58.5188 126.0564
v -225.5275 54.9255 123.8958
v -239.3728 50.3493 177.9628
v -233.1281 51.407 173.5838
v -238.1014 51.5908 168.9165
v -244.2524 50.9737 172.933
v -240.6229 54.8932 166.5247
v -247.5145 53.3314 170.5612
v -249.1025 50.681 179.0593
v -243.8307 51.1918 184.0247
v -251.8458 54.4816 177.1705
v -267.8612 51.9889 160.8592
v -260.3224 54.7875 160.8116
v -261.2906 53.5206 154.1437
v -268.5582 51.6842 153.7713
v -269.7697 56.0819 148.914
v -261.9736 60.2069 149.2926
v -276.1527 51.1813 155.6552
v -275.1833 54.1393 162.4179
v -277.3556 59.051 150.8294
v -230.6365 55.42 167.3677
v -234.7677 55.4153 168.8033
v -232.4331 55.4161 172.7649
v -228.8495 54.3354 171.0822
v -231.7693 58.4745 163.9394
v -235.6772 58.7975 165.887
v -237.5603 57.9416 171.5098
v -235.2443 58.3224 174.8721
v -238.9524 60.4038 168.0616
v -246.3876 55.7053 140.9661
v -243.6625 55.4639 145.4978
v -242.825 56.28 130.1511
v -244.595 57.1278 130.495
v -253.2734 57.6907 150.2893
v -251.0182 57.5277 152.2968
v -263.9353 55.5424 161.0896
v -242.621 53.1428 155.9962
v -244.5906 52.4582 160.6977
v -231.4423 51.7434 153.0895
v -231.974 51.6746 151.0047
v -219.5621 54.33 149.1284
v -219.9163 54.1842 146.8541
v -213.3337 54.0186 148.8372
v -213.7072 53.3196 147.4319
v -209.1302 51.9505 145.6365
v -210.059 52.3858 145.2473
v -259.0363 53.9037 145.2304
v -261.2424 53.7284 146.6073
v -260.1152 56.3176 154.7578
v -250.8641 56.5354 164.6873
v -258.3066 53.6926 129.5563
v -259.4802 53.2926 128.2254
v -263.2192 53.1426 138.4312
v -260.5704 53.2302 139.1428
v -252.3335 53.2466 126.8296
v -252.4155 53.6399 125.9234
v -269.9468 46.4305 167.3612
v -267.1877 55.5457 162.2509
v -268.5391 54.9655 160.2912
v -270.5789 45.2352 165.8474
v -266.8424 56.1641 154.7477
v -262.9056 58.1989 155.4368
v -260.8911 54.1746 150.0634
v -263.5144 52.7676 148.6987
v -242.4094 65.1378 136.7189
v -257.6931 59.6222 142.7995
v -257.0339 60.0535 145.511
v -226.7974 54.3196 145.683
v -225.4305 53.677 145.6801
v -224.8634 55.2275 138.8256
v -226.7063 55.1695 138.7162
v -231.5968 57.6267 130.0012
v -231.7426 57.7409 132.4258
v -228.6326 57.5932 133.5044
v -224.6542 57.4413 132.8338
v -237.6046 56.836 134.5712
v -235.9423 57.4259 159.6826
v -238.9119 53.4847 171.8213
v -228.5411 54.5422 163.4555
v -240.5781 59.264 142.6622
v -231.9669 50.7504 181.4579
v -231.3409 52.142 173.7386
v -236.9607 44.0349 187.8516
v -226.4501 55.9106 179.8136
v -242.4366 46.7198 185.7518
vt 0.1166 0.7956
vt 0.1298 0.8902
vt 0.0 0.8978
vt 0.0 0.7956
vt 0.2332 0.7956
vt 0.2332 0.8978
vt 0.1166 1.0
vt 0.0 1.0
vt 0.2332 1.0
vt 0.5468 0.3673
vt 0.5615 0.2734
vt 0.7285 0.288
vt 0.7285 0.3988
vt 0.911 0.3888
vt 0.9084 0.288
vt 0.5546 0.4534
vt 0.7164 0.5033
vt 0.8843 0.4732
vt 0.0179 0.6408
vt 0.0179 0.5031
vt 0.175 0.5031
vt 0.1928 0.6305
vt 0.332 0.6408
vt 0.3191 0.5108
vt 0.175 0.7786
vt 0.0179 0.7786
vt 0.332 0.7786
vt 0.4805 0.5373
vt 0.32 0.5466
vt 0.3268 0.4296
vt 0.4642 0.416
vt 0.5837 0.4495
vt 0.6084 0.5466
vt 0.4642 0.6713
vt 0.32 0.6713
vt 0.6084 0.6713
vt 0.6606 0.8469
vt 0.6839 0.6153
vt 0.8199 0.7011
vt 0.838 0.836
vt 0.9792 0.8469
vt 0.9792 0.7011
vt 0.8199 0.9927
vt 0.6606 0.9927
vt 0.9792 0.9927
vt 0.7379 0.5099
vt 0.8725 0.4801
vt 0.8795 0.5802
vt 0.7418 0.5871
vt 0.9847 0.4865
vt 0.9967 0.5854
vt 0.8652 0.7075
vt 0.7692 0.6737
vt 0.9967 0.7126
vt 0.0528 0.3841
vt 0.0528 0.2864
vt 0.1931 0.2864
vt 0.1958 0.3861
vt 0.3335 0.3841
vt 0.3335 0.2864
vt 0.1931 0.4819
vt 0.0528 0.4819
vt 0.3335 0.4819
vt 0.0092 0.1325
vt 0.0092 0.0028
vt 0.1437 0.0028
vt 0.1415 0.1345
vt 0.2782 0.1325
vt 0.2782 0.0028
vt 0.1437 0.2623
vt 0.0092 0.2623
vt 0.2782 0.2623
vt 0.8283 0.0056
vt 0.8258 0.1565
vt 0.6713 0.1543
vt 0.6713 0.0056
vt 0.9854 0.0056
vt 0.9854 0.1543
vt 0.8283 0.303
vt 0.6713 0.303
vt 0.9854 0.303
vt 0.4643 0.6874
vt 0.4911 0.8784
vt 0.3013 0.8437
vt 0.3013 0.6874
vt 0.6272 0.6874
vt 0.6272 0.8437
vt 0.4643 1.0001
vt 0.3013 1.0001
vt 0.6272 1.0001
vt 0.3291 0.1485
vt 0.3291 0.01
vt 0.4753 0.0129
vt 0.4658 0.1505
vt 0.6098 0.1485
vt 0.6098 0.01
vt 0.4753 0.2914
vt 0.3291 0.2885
vt 0.6098 0.2885
vt 0.2874 0.7256
vt 0.266 0.762
vt 0.2282 0.6266
vt 0.2426 0.6224
vt 0.357 0.8235
vt 0.3384 0.8477
vt 0.4436 0.9349
vt 0.2578 0.7582
vt 0.2619 0.6934
vt 0.3752 0.8447
vt 0.3635 0.8798
vt 0.4566 0.9342
vt 0.4529 0.9693
vt 0.499 0.9637
vt 0.4911 0.9814
vt 0.5414 0.9932
vt 0.528 1.0028
vt 0.3388 0.8023
vt 0.3133 0.8156
vt 0.2354 0.6245
vt 0.4671 0.9391
vt 0.4615 0.9632
vt 0.2724 0.6912
vt 0.2514 0.6956
vt 0.3023 0.76
vt 0.5347 0.998
vt 0.3873 0.9002
vt 0.3944 0.8697
vt 0.3887 0.8898
vt 0.9539 0.7448
vt 0.8973 0.5916
vt 1.0016 0.6895
vt 0.9656 0.8968
vt 0.9053 0.4659
vt 0.9546 0.5209
vt 0.821 0.4139
vt 0.9707 0.4208
vt 0.7868 0.4714
vn 0.6037 0.7558 -0.2538
vn 0.3623 0.9018 0.2355
vn 0.3686 0.8879 0.2754
vn 0.6304 0.7401 -0.2342
vn 0.5683 0.7741 -0.2787
vn 0.3155 0.91 0.2691
vn -0.0122 0.7348 0.6782
vn -0.0041 0.7383 0.6745
vn -0.022 0.7305 0.6825
vn 0.2662 0.9614 0.0703
vn 0.2792 0.8711 -0.4039
vn 0.0186 0.9108 -0.4124
vn 0.0384 0.9974 0.0606
vn -0.1802 0.9824 0.0493
vn -0.2476 0.886 -0.392
vn 0.1844 0.8111 0.5551
vn 0.0632 0.8367 0.544
vn -0.0618 0.8493 0.5242
vn 0.3903 0.918 -0.0703
vn 0.2271 0.9739 0.0052
vn 0.1469 0.8976 0.4157
vn 0.3732 0.8129 0.4471
vn 0.2986 0.5128 0.8049
vn 0.0224 0.6104 0.7917
vn 0.6117 0.7107 0.3474
vn 0.5399 0.8293 -0.1437
vn 0.5179 0.3917 0.7605
vn 0.111 0.9633 -0.2446
vn -0.0038 0.919 -0.3943
vn -0.4279 0.8416 -0.3296
vn -0.4025 0.9119 -0.0806
vn -0.7628 0.6399 0.0932
vn -0.7938 0.578 -0.1892
vn -0.2447 0.9586 0.1454
vn 0.2207 0.9714 -0.0873
vn -0.6742 0.6485 0.3535
vn -0.0236 0.9973 0.0699
vn -0.091 0.9773 0.1913
vn -0.2983 0.9103 -0.2872
vn -0.2505 0.8961 -0.3664
vn -0.1795 0.8635 -0.4714
vn 0.0978 0.9907 0.0947
vn 0.1965 0.8124 0.549
vn 0.1314 0.7883 0.6011
vn 0.2739 0.8336 0.4797
vn -0.5985 0.6895 -0.4079
vn -0.3408 0.9396 0.0314
vn -0.3008 0.9529 0.0393
vn -0.5695 0.6991 -0.4323
vn -0.6304 0.6769 -0.3801
vn -0.3276 0.9407 0.0882
vn 0.0586 0.8737 0.4829
vn 0.0545 0.8784 0.4749
vn 0.0635 0.8685 0.4917
vn 0.1244 0.9913 0.0432
vn -0.2112 0.9265 0.3115
vn -0.3244 0.8419 0.4312
vn 0.0915 0.9895 0.1122
vn 0.0323 0.9786 0.2035
vn -0.4119 0.747 0.5218
vn 0.478 0.8454 -0.2382
vn 0.4588 0.8516 -0.2537
vn 0.4988 0.8381 -0.2207
vn -0.0996 0.9798 -0.1732
vn -0.2831 0.9522 -0.1142
vn -0.3678 0.8776 0.3075
vn -0.1187 0.9233 0.3654
vn -0.0956 0.6431 0.7598
vn -0.38 0.6059 0.6989
vn 0.1524 0.9448 0.2902
vn 0.086 0.9705 -0.2253
vn 0.1779 0.6278 0.7578
vn -0.1445 0.3663 -0.9192
vn -0.2177 0.2972 -0.9297
vn -0.2101 0.6233 -0.7532
vn -0.1197 0.764 -0.634
vn -0.2983 0.215 -0.9299
vn -0.2746 0.5854 -0.7628
vn -0.1305 0.9251 -0.3567
vn -0.0813 0.9457 -0.3148
vn -0.1884 0.8949 -0.4046
vn 0.2284 0.9663 0.1185
vn 0.2459 0.9115 -0.3298
vn -0.0205 0.9451 -0.326
vn 0.0071 0.9948 0.1015
vn -0.2088 0.9689 0.133
vn -0.288 0.9099 -0.2984
vn 0.0303 0.846 0.5324
vn 0.1647 0.8249 0.5407
vn -0.0965 0.8513 0.5158
vn -0.363 0.9152 -0.1752
vn -0.7192 0.6933 -0.0458
vn -0.6452 0.7383 0.1963
vn -0.3091 0.9504 0.0353
vn -0.2096 0.9515 0.2253
vn -0.5256 0.7339 0.4302
vn 0.1014 0.9853 -0.1378
vn 0.0714 0.9596 -0.2722
vn 0.1272 0.9918 -0.009
vn -0.0996 0.9799 -0.1726
vn -0.2832 0.9523 -0.1137
vn -0.3679 0.8774 0.3078
vn -0.1187 0.9231 0.3658
vn -0.0956 0.6427 0.7601
vn -0.3799 0.6055 0.6993
vn 0.1524 0.9446 0.2907
vn 0.0859 0.9706 -0.2247
vn 0.1779 0.6274 0.7581
vn 0.2259 0.9323 -0.2824
vn 0.237 0.7096 -0.6636
vn -0.0197 0.7397 -0.6727
vn 0.0082 0.9534 -0.3016
vn -0.2049 0.9405 -0.2712
vn -0.2781 0.7197 -0.6361
vn 0.031 0.9892 0.1431
vn 0.1696 0.9724 0.16
vn -0.0992 0.9872 0.1245
vn -0.1279 0.9913 0.0313
vn 0.0077 0.9265 -0.3763
vn 0.0375 0.8419 -0.5383
vn -0.1378 0.9895 -0.0444
vn -0.1378 0.9785 -0.1531
vn 0.0615 0.747 -0.662
vn -0.2714 0.8454 0.46
vn -0.2468 0.8516 0.4625
vn -0.2983 0.8381 0.4568
vn -0.0315 0.9982 0.0509
vn -0.068 0.9651 0.2529
vn 0.5604 0.7897 0.2496
vn 0.503 0.8538 0.1342
vn -0.607 0.7925 -0.0596
vn -0.594 0.7799 0.1974
vn 0.0776 0.8786 0.4713
vn 0.6034 0.7157 0.3517
vn -0.547 0.7218 0.4241
vn -0.0973 0.9792 0.1781
vn -0.3376 0.9277 0.1593
vn -0.4251 0.8131 0.3976
vn -0.2216 0.8535 0.4716
vn -0.3082 0.6549 0.6901
vn -0.4797 0.6321 0.6085
vn 0.0162 0.8746 0.4845
vn 0.1369 0.9729 0.1863
vn -0.1182 0.6534 0.7478
vn -0.6115 0.7845 0.1029
vn -0.3772 0.9231 0.075
vn -0.3142 0.8983 -0.3072
vn -0.5533 0.805 -0.2143
vn -0.6049 0.6774 0.4185
vn -0.3999 0.8185 0.4126
vn -0.1045 0.9942 -0.0265
vn -0.0465 0.9246 -0.3781
vn -0.1533 0.9131 0.3779
vn 0.4769 0.8666 0.147
vn 0.4993 0.8146 -0.2951
vn 0.257 0.9168 -0.3056
vn 0.2738 0.9543 0.1197
vn 0.0639 0.9879 0.1413
vn -0.0098 0.9556 -0.2946
vn 0.2423 0.802 0.546
vn 0.3614 0.7485 0.5561
vn 0.1219 0.8409 0.5274
vn 0.0337 0.985 0.1694
vn 0.0182 0.9804 0.196
vn 0.1203 0.8088 0.5757
vn 0.1484 0.8095 0.5681
vn -0.0081 0.9873 0.1584
vn 0.0848 0.8069 0.5845
vn -0.0825 0.9661 -0.2446
vn -0.0864 0.964 -0.2516
vn -0.0911 0.9614 -0.2598
vn 0.2258 0.9324 -0.2822
vn 0.2369 0.7096 -0.6635
vn -0.0197 0.7397 -0.6727
vn 0.0082 0.9534 -0.3016
vn -0.2049 0.9404 -0.2713
vn -0.2781 0.7197 -0.6361
vn 0.0312 0.9893 0.1426
vn 0.1696 0.9724 0.16
vn -0.0992 0.9872 0.1245
vn -0.4011 0.916 -0.0035
vn -0.0618 0.9567 0.2843
vn 0.0925 0.9936 0.0645
vn -0.2561 0.9517 -0.1695
vn -0.1493 0.9219 -0.3576
vn 0.2415 0.9567 -0.1623
vn -0.575 0.7201 -0.3885
vn -0.6573 0.697 -0.2866
vn -0.4881 0.7301 -0.4782
vn 0.2258 0.9324 -0.2822
vn 0.237 0.7096 -0.6636
vn -0.0197 0.7397 -0.6727
vn 0.0082 0.9534 -0.3017
vn -0.205 0.9404 -0.2713
vn -0.2781 0.7197 -0.6362
vn 0.0311 0.9892 0.1429
vn 0.1696 0.9725 0.1599
vn -0.0992 0.9872 0.1245
vn -0.0313 0.8348 -0.5496
vn -0.0412 0.9991 -0.0003
vn -0.0104 0.9995 0.03
vn 0.0081 0.8356 -0.5492
vn -0.078 0.832 -0.5493
vn -0.0654 0.9963 0.0566
vn -0.0277 0.8116 0.5836
vn -0.0251 0.8171 0.576
vn -0.0309 0.8052 0.5922
vn 0.14 0.9196 0.3671
vn 0.0116 0.8662 0.4995
vn 0.1238 0.6088 0.7836
vn 0.3554 0.6195 0.6999
vn 0.484 0.2229 0.8462
vn 0.2234 0.2181 0.95
vn 0.5342 0.6752 0.5086
vn 0.2617 0.9391 0.2229
vn 0.6937 0.2112 0.6886
vn -0.1699 0.8435 0.5096
vn -0.0797 0.8138 0.5757
vn -0.0907 0.9847 0.1486
vn -0.1796 0.9812 -0.0704
vn 0.0189 0.7695 0.6383
vn -0.0116 0.9799 0.1993
vn -0.0994 0.8861 -0.4527
vn -0.1436 0.8497 -0.5073
vn -0.0443 0.9233 -0.3815
vn 0.3414 0.9226 0.1796
vn -0.001 0.9589 0.2836
vn -0.0976 0.8725 0.4788
vn 0.1828 0.9318 0.3136
vn 0.499 0.8663 0.0226
vn 0.133 0.9834 0.1234
vn -0.3638 0.8013 0.4749
vn -0.3835 0.7048 0.5968
vn -0.3021 0.9291 0.2132
vn 0.0567 0.9833 -0.1727
vn -0.1236 0.9836 -0.1311
vn -0.2 0.9767 -0.0777
vn 0.0333 0.9901 -0.1364
vn 0.0852 0.9725 -0.2166
vn -0.1049 0.9812 -0.1622
vn -0.3578 0.9322 -0.0552
vn -0.3849 0.9226 -0.0253
vn -0.3258 0.9412 -0.0893
vn -0.0167 0.7077 0.7063
vn 0.0918 0.7581 0.6456
vn 0.078 0.3595 0.9299
vn 0.008 0.3171 0.9484
vn -0.0897 0.255 0.9628
vn -0.1111 0.7438 0.6591
vn -0.0003 0.9649 0.2625
vn 0.0847 0.9687 0.2334
vn -0.1039 0.9498 0.295
vn -0.3554 0.8694 -0.3432
vn -0.0829 0.9212 -0.3802
vn -0.018 0.7017 -0.7123
vn -0.281 0.7258 -0.6279
vn -0.3926 0.9197 0.0091
vn -0.1289 0.9909 -0.0385
vn 0.2171 0.8536 -0.4736
vn 0.2444 0.6246 -0.7417
vn 0.1504 0.985 -0.0842
vn 0.0336 0.6423 0.7657
vn 0.1273 0.7939 0.5946
vn -0.2936 0.8321 0.4706
vn -0.3451 0.71 0.6138
vn -0.4223 0.5543 0.7172
vn -0.0589 0.4582 0.8869
vn -0.6577 0.7088 0.2551
vn -0.6865 0.6331 0.3577
vn -0.7018 0.5583 0.4425
vn 0.303 0.8934 -0.3319
vn 0.6117 0.6215 -0.4895
vn 0.4438 0.5828 -0.6807
vn 0.1816 0.8492 -0.4959
vn 0.0249 0.7806 -0.6245
vn 0.2542 0.5091 -0.8223
vn -0.1362 0.9645 -0.2262
vn -0.0591 0.9918 -0.1136
vn -0.2059 0.9222 -0.3273
vn 0.1116 0.9913 0.0695
vn 0.1389 0.903 -0.4065
vn -0.126 0.9026 -0.4117
vn -0.1168 0.9913 0.061
vn -0.3315 0.9421 0.05
vn -0.3824 0.8384 -0.3884
vn 0.0538 0.8288 0.557
vn -0.0714 0.8362 0.5438
vn -0.1958 0.8301 0.5221
vn -0.0172 0.9642 -0.2645
vn -0.267 0.9425 -0.2009
vn -0.2721 0.9604 0.0604
vn -0.0537 0.9973 0.0493
vn -0.0791 0.9381 0.3373
vn -0.2569 0.9082 0.3304
vn 0.1793 0.9838 0.0012
vn 0.2294 0.9227 -0.3097
vn 0.1052 0.9372 0.3326
vn 0.5459 0.6427 0.5375
vn 0.4396 0.6234 0.6466
vn 0.4552 0.8667 0.2038
vn 0.511 0.8493 0.1326
vn 0.5826 0.8122 0.0309
vn 0.6105 0.5703 0.5496
vn 0.4054 0.2752 0.8717
vn 0.3354 0.2837 0.8983
vn 0.4989 0.2607 0.8265
vn 0.6265 0.7733 0.0975
vn 0.321 0.9368 0.139
vn 0.3083 0.9384 0.1561
vn 0.6269 0.77 0.1185
vn 0.6256 0.7769 0.0711
vn 0.2853 0.9494 0.1315
vn -0.0476 0.9841 0.1713
vn -0.0395 0.9842 0.1728
vn -0.0575 0.9839 0.1694
vn 0.0297 0.997 -0.0718
vn 0.041 0.8841 0.4656
vn 0.0724 0.8671 0.4929
vn 0.07 0.9949 -0.0731
vn -0.0192 0.9973 -0.0703
vn 0.0175 0.8573 0.5146
vn 0.0491 0.4668 0.883
vn 0.052 0.4743 0.8788
vn 0.0459 0.4585 0.8875
vn 0.0337 0.8941 -0.4465
vn -0.379 0.8844 -0.2724
vn -0.2651 0.9633 -0.043
vn 0.1086 0.9629 -0.2471
vn 0.2272 0.9716 -0.0657
vn -0.13 0.9725 0.1932
vn 0.4831 0.7705 -0.416
vn 0.4334 0.7286 -0.5304
vn 0.5234 0.7981 -0.2984
vn 0.5028 0.8335 0.2289
vn 0.8045 0.5356 0.2566
vn 0.83 0.5577 0.007
vn 0.5325 0.8463 0.0175
vn 0.5126 0.8369 -0.1919
vn 0.8024 0.544 -0.2456
vn 0.1292 0.9914 0.0202
vn 0.102 0.9821 0.1581
vn 0.1515 0.9824 -0.1091
vn -0.0915 0.8662 0.4913
vn -0.2663 0.5788 0.7707
vn -0.0233 0.5395 0.8417
vn 0.0972 0.8203 0.5636
vn 0.2977 0.7529 0.5869
vn 0.2118 0.4683 0.8578
vn 0.2218 0.9588 0.1775
vn 0.0973 0.9873 0.1252
vn 0.3354 0.9149 0.2245
vn 0.4124 0.8891 0.1988
vn 0.4691 0.8824 -0.037
vn 0.2428 0.9497 -0.1978
vn 0.1297 0.9915 -0.0086
vn -0.1326 0.9738 -0.1848
vn -0.0229 0.9356 -0.3524
vn 0.0703 0.9704 0.2311
vn 0.3358 0.8471 0.4118
vn -0.2389 0.971 -0.0052
vn -0.0996 0.9798 -0.1732
vn -0.2831 0.9523 -0.1142
vn -0.3678 0.8776 0.3075
vn -0.1187 0.9233 0.3654
vn -0.0956 0.6431 0.7598
vn -0.38 0.6058 0.699
vn 0.1524 0.9448 0.2902
vn 0.086 0.9705 -0.2253
vn 0.1779 0.6277 0.7578
vn -0.1806 0.9799 0.0844
vn -0.1376 0.9523 0.2724
vn 0.2753 0.8774 0.3929
vn 0.3543 0.9231 0.1496
vn 0.7491 0.6427 0.1604
vn 0.6641 0.6054 0.4387
vn 0.3027 0.9446 -0.1269
vn -0.2165 0.9706 -0.1049
vn 0.7706 0.6274 -0.1122
vn 0.18 0.9826 -0.0456
vn -0.1018 0.9816 0.1616
vn -0.1583 0.9767 0.1449
vn 0.0928 0.9933 -0.0687
vn -0.2392 0.9635 0.1198
vn 0.0927 0.9852 -0.1445
vn 0.3809 0.8825 -0.2758
vn 0.432 0.8691 -0.2408
vn 0.3181 0.8938 -0.316
vn -0.3183 0.6755 0.6651
vn -0.0822 0.8431 0.5314
vn 0.0647 0.9118 0.4056
vn -0.2535 0.8283 0.4996
vn 0.2259 0.943 0.2443
vn -0.1443 0.9215 0.3605
vn -0.5381 0.5467 0.6416
vn -0.5234 0.4371 0.7315
vn -0.5352 0.7295 0.426
vn -0.5601 0.4324 0.7066
vn -0.3041 0.5967 0.7426
vn -0.133 0.6809 0.7202
vn -0.4474 0.6129 0.6513
vn 0.0707 0.7471 0.6609
vn -0.306 0.7271 0.6146
vn -0.7502 0.3468 0.5629
vn -0.7688 0.2211 0.6001
vn -0.6731 0.5805 0.4582
vn -0.5601 0.4324 0.7066
vn -0.3041 0.5967 0.7426
vn -0.133 0.6809 0.7202
vn -0.4474 0.6129 0.6513
vn 0.0707 0.7471 0.661
vn -0.306 0.727 0.6146
vn -0.7502 0.3468 0.5629
vn -0.7687 0.2212 0.6001
vn -0.6731 0.5805 0.4582
vn -0.3183 0.6755 0.6651
vn -0.0822 0.8431 0.5314
vn 0.0647 0.9118 0.4056
vn -0.2535 0.8283 0.4996
vn 0.2259 0.943 0.2443
vn -0.1442 0.9215 0.3605
vn -0.5381 0.5467 0.6416
vn -0.5233 0.4373 0.7314
vn -0.5352 0.7295 0.426
vn -0.5256 0.7633 0.3757
vn -0.2408 0.9115 0.3334
vn -0.0472 0.961 0.2724
vn -0.3864 0.8923 0.2334
vn 0.1702 0.9668 0.1907
vn -0.2197 0.9655 0.1397
vn -0.726 0.6305 0.2745
vn -0.7589 0.53 0.3784
vn -0.6169 0.785 0.0567
vn -0.5776 0.5321 -0.619
vn -0.4443 0.7942 -0.4145
vn -0.2868 0.8188 -0.4973
vn -0.3963 0.546 -0.7381
vn -0.7452 0.4878 -0.4546
vn -0.5384 0.7948 -0.28
vn -0.2167 0.9667 -0.1363
vn -0.1341 0.9743 -0.1812
vn -0.2911 0.952 -0.0942
vn 0.6083 0.5731 -0.5491
vn 0.5113 0.5201 -0.6841
vn 0.1189 0.648 -0.7523
vn 0.1342 0.8147 -0.5642
vn -0.3249 0.8384 -0.4377
vn -0.3506 0.655 -0.6693
vn 0.2552 0.9045 -0.3418
vn 0.6907 0.61 -0.3884
vn -0.2762 0.9421 -0.1904
vn -0.0071 0.9985 0.0543
vn -0.0462 0.9905 0.1294
vn 0.0884 0.9296 0.3578
vn 0.2195 0.9261 0.3068
vn 0.2457 0.7588 0.6032
vn 0.4173 0.7785 0.4689
vn 0.3 0.9394 0.1658
vn 0.0317 0.9993 -0.0211
vn 0.5446 0.7664 0.3408
vn -0.1231 0.9798 -0.1573
vn -0.2965 0.9522 -0.0729
vn -0.3205 0.8776 0.3565
vn -0.0656 0.9233 0.3785
vn 0.0132 0.6431 0.7657
vn -0.277 0.6058 0.7458
vn 0.192 0.9448 0.2657
vn 0.0531 0.9705 -0.2352
vn 0.2836 0.6278 0.7249
vn 0.2376 0.9046 0.3538
vn 0.4521 0.8685 0.2031
vn 0.3327 0.9306 -0.1524
vn 0.1595 0.9857 0.0538
vn 0.2945 0.7167 0.6322
vn 0.5169 0.6983 0.4952
vn 0.6285 0.7774 -0.0256
vn 0.4814 0.8046 -0.3476
vn 0.6982 0.6351 0.3304
vn 0.1593 0.9864 0.0405
vn 0.1765 0.9837 -0.0356
vn 0.1455 0.9843 0.1002
vn 0.1455 0.9843 0.1002
vn 0.0679 0.9973 0.0295
vn 0.0804 0.9966 0.0179
vn -0.0551 0.9883 0.1422
vn 0.1544 0.9805 0.1217
vn 0.1544 0.9805 0.1219
vn -0.0095 0.9978 0.0658
vn -0.0446 0.9976 0.0535
vn -0.0598 0.9905 -0.1238
vn -0.0619 0.9906 -0.1223
vn 0.132 0.9584 -0.2532
vn 0.1384 0.9569 -0.2554
vn 0.1781 0.9468 -0.268
vn 0.1779 0.9468 -0.2683
vn 0.023 0.9898 -0.1408
vn 0.0588 0.9839 -0.1686
vn 0.1376 0.9638 -0.2286
vn 0.1376 0.9637 -0.2286
vn -0.0642 0.9979 -0.0066
vn -0.0571 0.9983 -0.0065
vn -0.0983 0.9946 -0.0341
vn -0.0891 0.995 -0.0443
vn 0.0053 1.0 -0.0059
vn 0.0054 1.0 -0.0057
vn -0.8713 0.3902 0.2977
vn -0.7347 0.6479 0.201
vn -0.6692 0.7253 0.1617
vn -0.8713 0.3903 0.2977
vn -0.3733 0.8888 -0.2659
vn -0.344 0.8745 -0.3419
vn -0.5142 0.8346 -0.1977
vn -0.4706 0.8389 -0.2735
vn -0.3601 0.931 -0.0605
vn -0.5119 0.8565 0.0664
vn -0.5616 0.8198 0.1117
vn 0.171 0.9693 0.1765
vn 0.171 0.9693 0.1765
vn 0.1111 0.9541 0.2783
vn 0.1044 0.9515 0.2894
vn -0.0456 0.9982 -0.0398
vn -0.0684 0.9967 -0.0428
vn 0.0472 0.9925 0.1132
vn 0.0499 0.9629 0.2653
vn -0.1725 0.9834 -0.0567
vn 0.3041 0.9444 0.1252
vn 0.0558 0.9407 0.3346
vn 0.2084 0.9475 0.2424
vn 0.3621 0.9321 0.002
vn -0.4087 0.8495 0.3337
vn -0.065 0.9779 0.1986
vn -0.0215 0.8601 0.5097
vn -0.6683 0.7397 0.0792
vn 0.2355 0.8495 0.4721
vtan 0.7598 -0.449 0.4702 1.0
vtan 0.7667 -0.432 0.4749 1.0
vtan 0.7504 -0.4591 0.4755 1.0
vtan 0.7362 -0.4744 0.4826 1.0
vtan 0.7785 -0.3964 0.4866 1.0
vtan 0.7694 -0.4113 0.4887 1.0
vtan 0.7784 -0.4187 0.4676 1.0
vtan 0.7598 -0.4362 0.4821 1.0
vtan 0.7769 -0.4172 0.4716 1.0
vtan 0.9334 -0.2753 0.23 1.0
vtan 0.9553 -0.2094 0.2087 1.0
vtan 0.9991 -0.0007 0.0435 1.0
vtan 0.999 -0.0398 0.0221 1.0
vtan 0.9706 0.1858 -0.153 1.0
vtan 0.9677 0.2065 -0.1445 1.0
vtan 0.9039 -0.3618 0.2283 1.0
vtan 0.9969 -0.078 0.0042 1.0
vtan 0.9578 0.1982 -0.2081 1.0
vtan -0.1591 -0.008 -0.9872 1.0
vtan -0.134 0.0365 -0.9903 1.0
vtan 0.0752 0.4089 -0.9095 1.0
vtan 0.0662 0.4574 -0.8868 1.0
vtan 0.2613 0.7672 -0.5857 1.0
vtan 0.3392 0.7403 -0.5804 1.0
vtan 0.0343 0.4149 -0.9092 1.0
vtan -0.1366 -0.0822 -0.9872 1.0
vtan 0.1948 0.8116 -0.5507 1.0
vtan 0.9274 -0.1889 -0.3229 1.0
vtan 0.933 -0.1387 -0.3321 1.0
vtan 0.8901 0.3291 -0.3153 1.0
vtan 0.8695 0.3532 -0.3453 1.0
vtan 0.5999 0.7541 -0.2673 1.0
vtan 0.6068 0.7736 -0.1824 1.0
vtan 0.8903 0.2815 -0.3578 1.0
vtan 0.928 -0.2367 -0.2876 1.0
vtan 0.5564 0.7607 -0.3344 1.0
vtan 0.9411 0.0458 -0.3351 1.0
vtan 0.9383 0.1485 -0.3123 1.0
vtan 0.9138 0.1854 -0.3615 1.0
vtan 0.9374 0.13 -0.323 1.0
vtan 0.9488 0.0254 -0.3148 1.0
vtan 0.9397 -0.0606 -0.3366 1.0
vtan 0.949 -0.0168 -0.3147 1.0
vtan 0.9322 0.1079 -0.3454 1.0
vtan 0.9342 -0.112 -0.3388 1.0
vtan 0.7355 0.2711 -0.6209 1.0
vtan 0.7332 0.2865 -0.6167 1.0
vtan 0.7456 0.2606 -0.6133 1.0
vtan 0.7592 0.2458 -0.6027 1.0
vtan 0.7191 0.3249 -0.6142 1.0
vtan 0.7231 0.3097 -0.6175 1.0
vtan 0.7277 0.2938 -0.6198 1.0
vtan 0.7379 0.285 -0.6118 1.0
vtan 0.6968 0.3141 -0.6448 1.0
vtan -0.4817 0.0984 -0.8708 1.0
vtan -0.317 0.2365 -0.9185 1.0
vtan -0.4272 0.2762 -0.8609 1.0
vtan -0.4965 0.143 -0.8562 1.0
vtan -0.4446 0.1964 -0.8739 1.0
vtan -0.3062 0.4259 -0.8514 1.0
vtan -0.5213 0.0548 -0.8516 1.0
vtan -0.5423 0.0422 -0.8391 1.0
vtan -0.4809 0.0558 -0.875 1.0
vtan -0.0179 -0.1758 -0.9843 1.0
vtan -0.0197 -0.1249 -0.992 1.0
vtan 0.0177 0.3372 -0.9413 1.0
vtan -0.0148 0.3663 -0.9304 1.0
vtan 0.0021 0.7634 -0.6459 1.0
vtan 0.0851 0.7753 -0.6258 1.0
vtan -0.0254 0.2973 -0.9544 1.0
vtan 0.0156 -0.2274 -0.9737 1.0
vtan -0.0759 0.7766 -0.6255 1.0
vtan 0.9876 0.1115 -0.1109 1.0
vtan 0.9751 0.0239 -0.2207 1.0
vtan 0.9777 0.1281 -0.1666 1.0
vtan 0.9746 0.2122 0.0718 1.0
vtan 0.9501 0.1598 -0.2678 1.0
vtan 0.96 0.1222 -0.2518 1.0
vtan 0.9885 0.1489 0.0247 1.0
vtan 0.933 0.1833 0.3098 1.0
vtan 0.9719 0.1105 -0.2081 1.0
vtan 0.9735 -0.2275 -0.0216 1.0
vtan 0.9592 -0.2779 -0.0528 1.0
vtan 0.9988 0.0052 -0.0479 1.0
vtan 0.9985 -0.0016 -0.0539 1.0
vtan 0.9714 0.2212 -0.0859 1.0
vtan 0.9559 0.292 -0.0322 1.0
vtan 0.9981 0.003 -0.0616 1.0
vtan 0.9854 -0.1616 -0.0535 1.0
vtan 0.9858 0.1534 -0.0687 1.0
vtan -0.2671 -0.2824 -0.9214 1.0
vtan -0.2731 -0.3426 -0.8989 1.0
vtan -0.3745 -0.0816 -0.9236 1.0
vtan -0.3781 -0.0887 -0.9215 1.0
vtan -0.4716 0.1035 -0.8757 1.0
vtan -0.4428 0.1958 -0.875 1.0
vtan -0.3863 -0.0887 -0.9181 1.0
vtan -0.3181 -0.2368 -0.918 1.0
vtan -0.4425 0.0486 -0.8954 1.0
vtan -0.0179 -0.1752 -0.9844 1.0
vtan -0.0197 -0.1243 -0.992 1.0
vtan 0.0178 0.3376 -0.9411 1.0
vtan -0.0148 0.3668 -0.9302 1.0
vtan 0.0021 0.7637 -0.6455 1.0
vtan 0.0851 0.7756 -0.6254 1.0
vtan -0.0254 0.2978 -0.9543 1.0
vtan 0.0156 -0.2269 -0.9738 1.0
vtan -0.0759 0.7769 -0.6251 1.0
vtan 0.9741 -0.2194 0.0549 1.0
vtan 0.9587 -0.2814 0.0414 1.0
vtan 0.9988 -0.0152 -0.046 1.0
vtan 0.9985 -0.024 -0.0489 1.0
vtan 0.9739 0.1682 -0.1525 1.0
vtan 0.9577 0.259 -0.1255 1.0
vtan 0.998 -0.0228 -0.0586 1.0
vtan 0.985 -0.1727 0.0055 1.0
vtan 0.9863 0.1141 -0.1189 1.0
vtan 0.878 0.0984 0.4684 1.0
vtan 0.7658 0.2365 0.598 1.0
vtan 0.827 0.2762 0.4897 1.0
vtan 0.8825 0.143 0.448 1.0
vtan 0.8486 0.1964 0.4912 1.0
vtan 0.7203 0.4259 0.5476 1.0
vtan 0.9008 0.0548 0.4307 1.0
vtan 0.9117 0.0422 0.4087 1.0
vtan 0.8797 0.0557 0.4723 1.0
vtan 0.9995 0.031 0.0112 1.0
vtan 0.9976 0.0691 0.0046 1.0
vtan 0.828 -0.5407 -0.1483 1.0
vtan 0.8622 -0.485 -0.1464 1.0
vtan 0.7695 0.6048 0.2053 1.0
vtan 0.8045 0.5765 0.143 1.0
vtan 0.997 -0.0707 -0.0324 1.0
vtan 0.7854 -0.6098 -0.1064 1.0
vtan 0.8185 0.5674 0.0899 1.0
vtan 0.3222 0.2003 -0.9252 1.0
vtan 0.329 0.2749 -0.9034 1.0
vtan 0.2727 0.534 -0.8003 1.0
vtan 0.2481 0.5171 -0.8192 1.0
vtan 0.174 0.7519 -0.6359 1.0
vtan 0.2381 0.7613 -0.6031 1.0
vtan 0.246 0.4662 -0.8498 1.0
vtan 0.2931 0.1398 -0.9458 1.0
vtan 0.1531 0.756 -0.6364 1.0
vtan -0.0285 0.1081 -0.9937 1.0
vtan -0.0315 0.0681 -0.9972 1.0
vtan 0.1108 -0.2867 -0.9516 1.0
vtan 0.1269 -0.1728 -0.9767 1.0
vtan -0.1575 0.4134 -0.8968 1.0
vtan -0.1513 0.385 -0.9104 1.0
vtan -0.0045 -0.0271 -0.9996 1.0
vtan 0.1083 -0.3716 -0.9221 1.0
vtan -0.1087 0.3645 -0.9248 1.0
vtan 0.8749 -0.4841 0.0154 1.0
vtan 0.85 -0.5266 -0.0156 1.0
vtan 0.9624 -0.2715 -0.0052 1.0
vtan 0.9616 -0.2742 -0.0131 1.0
vtan 0.9974 -0.0585 -0.0415 1.0
vtan 0.9998 0.0142 0.013 1.0
vtan 0.9606 -0.2772 -0.0191 1.0
vtan 0.9045 -0.4263 -0.014 1.0
vtan 0.9914 -0.1284 -0.0244 1.0
vtan -0.9725 -0.0067 0.2326 -1.0
vtan -0.9752 -0.0259 0.22 -1.0
vtan -0.9748 -0.0137 0.2228 -1.0
vtan -0.9689 0.0039 0.2476 -1.0
vtan -0.973 -0.0442 0.2264 -1.0
vtan -0.9743 -0.0556 0.2181 -1.0
vtan -0.9732 -0.0253 0.2284 -1.0
vtan -0.9775 -0.0333 0.2084 -1.0
vtan -0.977 -0.0357 0.2104 -1.0
vtan 0.9741 -0.2193 0.0549 1.0
vtan 0.9587 -0.2814 0.0414 1.0
vtan 0.9988 -0.0152 -0.046 1.0
vtan 0.9985 -0.024 -0.0489 1.0
vtan 0.9739 0.1682 -0.1525 1.0
vtan 0.9577 0.259 -0.1255 1.0
vtan 0.998 -0.023 -0.0587 1.0
vtan 0.985 -0.1727 0.0055 1.0
vtan 0.9863 0.1141 -0.1189 1.0
vtan -0.5418 -0.2342 0.8072 1.0
vtan -0.5034 -0.2759 0.8188 1.0
vtan -0.5707 -0.0001 0.8211 1.0
vtan -0.5647 -0.005 0.8253 1.0
vtan -0.5557 0.2209 0.8015 1.0
vtan -0.5977 0.2784 0.7518 1.0
vtan -0.5593 0.0006 0.8289 1.0
vtan -0.5338 -0.1621 0.8299 1.0
vtan -0.5688 0.1495 0.8088 1.0
vtan 0.9741 -0.2193 0.0549 1.0
vtan 0.9587 -0.2814 0.0414 1.0
vtan 0.9988 -0.0152 -0.046 1.0
vtan 0.9985 -0.0241 -0.0489 1.0
vtan 0.9739 0.1682 -0.1525 1.0
vtan 0.9577 0.2591 -0.1255 1.0
vtan 0.998 -0.0229 -0.0586 1.0
vtan 0.985 -0.1727 0.0055 1.0
vtan 0.9863 0.1141 -0.1189 1.0
vtan 0.9995 0.024 -0.0204 1.0
vtan 0.999 0.0412 -0.016 1.0
vtan 0.9999 0.0107 -0.0104 1.0
vtan 1.0 -0.0072 0.0038 1.0
vtan 0.9964 0.0826 -0.0165 1.0
vtan 0.9976 0.0666 -0.0197 1.0
vtan 0.9986 0.0494 -0.0213 1.0
vtan 0.9992 0.0375 -0.0098 1.0
vtan 0.9952 0.0797 -0.0565 1.0
vtan -0.5471 0.3809 -0.7454 1.0
vtan -0.5364 0.427 -0.728 1.0
vtan -0.3613 0.7631 -0.5358 1.0
vtan -0.3711 0.7808 -0.5026 1.0
vtan -0.127 0.9747 -0.1841 1.0
vtan -0.052 0.9759 -0.2118 1.0
vtan -0.4102 0.7331 -0.5425 1.0
vtan -0.5305 0.3329 -0.7796 1.0
vtan -0.1747 0.9768 -0.1237 1.0
vtan -0.9855 -0.1466 -0.0859 1.0
vtan -0.9927 -0.117 0.0279 1.0
vtan -0.9943 -0.0812 -0.0687 1.0
vtan -0.938 -0.1924 -0.2884 1.0
vtan -0.9992 0.0369 -0.0149 1.0
vtan -0.9999 -0.0108 -0.0052 1.0
vtan -0.9474 -0.2235 -0.2293 1.0
vtan -0.7837 -0.4107 -0.466 1.0
vtan -0.9979 -0.0591 -0.0273 1.0
vtan -0.0336 -0.179 0.9833 1.0
vtan -0.0051 -0.2836 0.9589 1.0
vtan -0.0554 -0.4851 0.8727 1.0
vtan -0.0604 -0.3078 0.9495 1.0
vtan 0.0554 -0.0579 0.9968 1.0
vtan 0.1229 -0.1399 0.9825 1.0
vtan -0.0655 -0.5306 0.8451 1.0
vtan -0.0336 -0.6564 0.7536 1.0
vtan 0.0647 -0.2031 0.977 1.0
vtan 0.2208 0.1563 0.9627 1.0
vtan 0.1184 0.1458 0.9822 1.0
vtan 0.1325 0.1055 0.9855 1.0
vtan 0.4734 0.1046 0.8746 1.0
vtan 0.1965 0.1968 0.9606 1.0
vtan 0.2198 0.182 0.9584 1.0
vtan 0.0988 0.0966 0.9904 1.0
vtan 0.0207 0.0361 0.9991 1.0
vtan 0.214 0.1654 0.9627 1.0
vtan -0.9948 0.0595 -0.0832 1.0
vtan -0.9899 0.14 -0.0237 1.0
vtan -0.9905 0.1335 0.0315 1.0
vtan -0.9913 0.127 -0.0341 1.0
vtan -0.9919 0.0641 -0.1094 1.0
vtan -0.9871 -0.0055 -0.1601 1.0
vtan -0.9908 0.0352 -0.1308 1.0
vtan -0.9946 0.0963 -0.0386 1.0
vtan -0.9828 -0.0525 -0.1772 1.0
vtan -0.0006 -0.3674 -0.9301 1.0
vtan -0.0182 -0.3828 -0.9236 1.0
vtan 0.0317 -0.7116 -0.7018 1.0
vtan 0.0705 -0.6369 -0.7677 1.0
vtan -0.0486 -0.0109 -0.9988 1.0
vtan -0.0491 -0.0452 -0.9978 1.0
vtan -0.0108 -0.483 -0.8756 1.0
vtan 0.0132 -0.767 -0.6415 1.0
vtan -0.0027 -0.0848 -0.9964 1.0
vtan -0.3335 -0.7151 0.6144 -1.0
vtan -0.3971 -0.5085 0.764 -1.0
vtan -0.3497 -0.5517 0.7572 -1.0
vtan -0.345 -0.7042 0.6206 -1.0
vtan -0.3076 -0.8319 0.4618 -1.0
vtan -0.244 -0.8681 0.4323 -1.0
vtan -0.3501 -0.5874 0.7296 -1.0
vtan -0.3556 -0.7213 0.5943 -1.0
vtan -0.3147 -0.8002 0.5105 -1.0
vtan 0.6071 0.0875 0.7898 1.0
vtan 0.6121 0.0202 0.7905 1.0
vtan 0.685 0.2691 0.677 1.0
vtan 0.684 0.2533 0.6841 1.0
vtan 0.734 0.4098 0.5415 1.0
vtan 0.6978 0.4922 0.5204 1.0
vtan 0.6928 0.256 0.6742 1.0
vtan 0.647 0.1247 0.7522 1.0
vtan 0.7226 0.3689 0.5846 1.0
vtan 0.9648 -0.1248 0.2316 1.0
vtan 0.9762 -0.0557 0.2097 1.0
vtan 0.9866 0.1575 0.0433 1.0
vtan 0.993 0.1155 0.0254 1.0
vtan 0.9298 0.3353 -0.1517 1.0
vtan 0.9238 0.3549 -0.1434 1.0
vtan 0.9487 -0.2165 0.2304 1.0
vtan 0.9966 0.0829 0.0035 1.0
vtan 0.9155 0.3455 -0.206 1.0
vtan 0.0278 -0.264 -0.9641 1.0
vtan 0.0322 -0.1996 -0.9794 1.0
vtan -0.0014 0.0623 -0.9981 1.0
vtan -0.0142 0.0486 -0.9987 1.0
vtan -0.0522 0.334 -0.9411 1.0
vtan -0.0238 0.3359 -0.9416 1.0
vtan -0.0198 0.0048 -0.9998 1.0
vtan 0.0242 -0.3235 -0.9459 1.0
vtan -0.0651 0.3402 -0.9381 1.0
vtan 0.8179 -0.548 -0.1755 1.0
vtan 0.8629 -0.493 -0.1113 1.0
vtan 0.8896 -0.4334 -0.1437 1.0
vtan 0.8579 -0.4942 -0.1403 1.0
vtan 0.8046 -0.5709 -0.1634 1.0
vtan 0.7637 -0.6079 -0.2174 1.0
vtan 0.7875 -0.5894 -0.1802 1.0
vtan 0.8506 -0.5011 -0.1593 1.0
vtan 0.7318 -0.6377 -0.2406 1.0
vtan 0.0704 -0.1808 0.981 1.0
vtan 0.0718 -0.1704 0.9827 1.0
vtan 0.0626 -0.1838 0.981 1.0
vtan 0.049 -0.1907 0.9804 1.0
vtan 0.0704 -0.147 0.9866 1.0
vtan 0.0647 -0.156 0.9856 1.0
vtan 0.0788 -0.1672 0.9828 1.0
vtan 0.0655 -0.17 0.9833 1.0
vtan 0.0788 -0.1647 0.9832 1.0
vtan 0.9977 -0.034 -0.0591 1.0
vtan 0.9986 -0.021 -0.0481 1.0
vtan 0.9971 -0.0513 -0.0561 1.0
vtan 0.996 -0.0738 -0.0505 1.0
vtan 0.9993 0.017 -0.0321 1.0
vtan 0.9991 0.0049 -0.0421 1.0
vtan 0.9987 -0.0102 -0.0501 1.0
vtan 0.9986 -0.027 -0.0445 1.0
vtan 0.997 0.0341 -0.0692 1.0
vtan -0.4279 -0.3909 -0.8149 1.0
vtan -0.4493 -0.4332 -0.7813 1.0
vtan -0.4613 -0.1658 -0.8716 1.0
vtan -0.4677 -0.1698 -0.8674 1.0
vtan -0.4841 0.0541 -0.8733 1.0
vtan -0.429 0.1205 -0.8952 1.0
vtan -0.4734 -0.1698 -0.8643 1.0
vtan -0.4613 -0.3262 -0.8251 1.0
vtan -0.4741 -0.0183 -0.8803 1.0
vtan -0.142 -0.1816 0.9731 1.0
vtan -0.142 -0.2461 0.9588 1.0
vtan -0.0014 -0.0105 0.9999 1.0
vtan -0.0009 -0.0201 0.9998 1.0
vtan 0.142 0.1377 0.9802 1.0
vtan 0.1365 0.2334 0.9627 1.0
vtan 0.0095 -0.0216 0.9997 1.0
vtan -0.0861 -0.1496 0.985 1.0
vtan 0.1012 0.0944 0.9904 1.0
vtan -0.9337 0.0968 -0.3446 1.0
vtan -0.9378 0.0293 -0.346 1.0
vtan -0.9421 0.2698 -0.199 1.0
vtan -0.9449 0.254 -0.2066 1.0
vtan -0.9142 0.402 -0.0519 1.0
vtan -0.8732 0.4849 -0.0491 1.0
vtan -0.9473 0.255 -0.1938 1.0
vtan -0.948 0.1303 -0.2903 1.0
vtan -0.9268 0.3632 -0.0957 1.0
vtan 0.7493 -0.4551 0.481 1.0
vtan 0.7689 -0.3874 0.5086 1.0
vtan 0.8426 -0.1054 0.5282 1.0
vtan 0.8604 -0.1082 0.498 1.0
vtan 0.8542 0.2069 0.477 1.0
vtan 0.8143 0.2219 0.5363 1.0
vtan 0.8559 -0.1777 0.4857 1.0
vtan 0.7419 -0.5072 0.4385 1.0
vtan 0.8609 0.2143 0.4615 1.0
vtan -0.0179 -0.1758 -0.9843 1.0
vtan -0.0197 -0.1248 -0.992 1.0
vtan 0.0177 0.3372 -0.9413 1.0
vtan -0.0148 0.3663 -0.9304 1.0
vtan 0.0021 0.7634 -0.6459 1.0
vtan 0.0851 0.7753 -0.6258 1.0
vtan -0.0254 0.2973 -0.9544 1.0
vtan 0.0156 -0.2274 -0.9737 1.0
vtan -0.0759 0.7766 -0.6254 1.0
vtan -0.9823 -0.1753 -0.0666 1.0
vtan -0.9901 -0.1243 -0.0655 1.0
vtan -0.9361 0.3377 -0.0984 1.0
vtan -0.928 0.3667 -0.065 1.0
vtan -0.643 0.7637 -0.0575 1.0
vtan -0.6157 0.7757 -0.1383 1.0
vtan -0.9529 0.2978 -0.0565 1.0
vtan -0.9689 -0.2269 -0.0991 1.0
vtan -0.6293 0.7769 0.022 1.0
vtan -0.5324 0.0583 -0.8445 1.0
vtan -0.5387 0.0822 -0.8385 1.0
vtan -0.5335 0.0389 -0.8449 1.0
vtan -0.5218 -0.0103 -0.853 1.0
vtan -0.5101 -0.0197 -0.8599 1.0
vtan -0.5253 -0.0748 -0.8476 1.0
vtan -0.5243 -0.0395 -0.8506 1.0
vtan -0.5245 0.0249 -0.8511 1.0
vtan -0.5424 -0.1019 -0.834 1.0
vtan 0.113 -0.6696 0.7341 1.0
vtan 0.0902 -0.5247 0.8465 1.0
vtan 0.0698 -0.4096 0.9096 1.0
vtan 0.1163 -0.4866 0.8658 1.0
vtan 0.1282 -0.2774 0.9522 1.0
vtan 0.2132 -0.3268 0.9207 1.0
vtan 0.1117 -0.7082 0.6971 1.0
vtan 0.1646 -0.7904 0.5901 1.0
vtan 0.1674 -0.4027 0.8999 1.0
vtan -0.1479 -0.8914 0.4283 1.0
vtan -0.2214 -0.8025 0.5541 1.0
vtan -0.2602 -0.7251 0.6375 1.0
vtan -0.1996 -0.7783 0.5953 1.0
vtan -0.2291 -0.6327 0.7397 1.0
vtan -0.1421 -0.6732 0.7256 1.0
vtan -0.1337 -0.9133 0.3846 1.0
vtan -0.045 -0.9547 0.2942 1.0
vtan -0.167 -0.7228 0.6706 1.0
vtan -0.1479 -0.8914 0.4283 1.0
vtan -0.2214 -0.8024 0.5541 1.0
vtan -0.2602 -0.7252 0.6375 1.0
vtan -0.1996 -0.7783 0.5953 1.0
vtan -0.2291 -0.6327 0.7397 1.0
vtan -0.1421 -0.6732 0.7256 1.0
vtan -0.1337 -0.9133 0.3846 1.0
vtan -0.045 -0.9547 0.2943 1.0
vtan -0.167 -0.7228 0.6706 1.0
vtan 0.113 -0.6696 0.7341 1.0
vtan 0.0902 -0.5247 0.8465 1.0
vtan 0.0699 -0.4096 0.9096 1.0
vtan 0.1162 -0.4866 0.8659 1.0
vtan 0.1282 -0.2774 0.9522 1.0
vtan 0.2132 -0.3268 0.9207 1.0
vtan 0.1117 -0.7082 0.6971 1.0
vtan 0.1645 -0.7903 0.5902 1.0
vtan 0.1674 -0.4027 0.8999 1.0
vtan -0.2505 -0.5609 0.7891 1.0
vtan -0.31 -0.3977 0.8636 1.0
vtan -0.3478 -0.2714 0.8974 1.0
vtan -0.2919 -0.3584 0.8868 1.0
vtan -0.304 -0.1325 0.9434 1.0
vtan -0.2163 -0.1878 0.9581 1.0
vtan -0.2386 -0.6053 0.7594 1.0
vtan -0.1483 -0.7064 0.6921 1.0
vtan -0.2551 -0.2676 0.9291 1.0
vtan 0.7659 0.091 -0.6364 1.0
vtan 0.7548 0.0827 -0.6507 1.0
vtan 0.8619 -0.006 -0.507 1.0
vtan 0.8706 -0.0317 -0.4909 1.0
vtan 0.5952 0.1792 -0.7834 1.0
vtan 0.6228 0.1515 -0.7676 1.0
vtan 0.7514 0.076 -0.6555 1.0
vtan 0.8247 0.0084 -0.5655 1.0
vtan 0.6767 0.1353 -0.7237 1.0
vtan 0.7181 -0.692 0.0733 1.0
vtan 0.7459 -0.6639 0.0528 1.0
vtan 0.9531 -0.2868 -0.0965 1.0
vtan 0.9522 -0.2636 -0.1542 1.0
vtan 0.9296 0.198 -0.3108 1.0
vtan 0.9362 0.2646 -0.2314 1.0
vtan 0.9372 -0.3184 -0.1427 1.0
vtan 0.6922 -0.713 0.1113 1.0
vtan 0.9045 0.1878 -0.3829 1.0
vtan -0.7401 0.0312 -0.6717 1.0
vtan -0.7305 0.0549 -0.6807 1.0
vtan -0.6556 0.3247 -0.6817 1.0
vtan -0.6777 0.3709 -0.6349 1.0
vtan -0.5107 0.6303 -0.5847 1.0
vtan -0.5756 0.6257 -0.5266 1.0
vtan -0.717 0.3366 -0.6104 1.0
vtan -0.7259 0.0085 -0.6877 1.0
vtan -0.6339 0.6421 -0.4311 1.0
vtan -0.1574 -0.1758 -0.9718 1.0
vtan -0.1603 -0.1249 -0.9791 1.0
vtan -0.116 0.3372 -0.9343 1.0
vtan -0.1467 0.3663 -0.9189 1.0
vtan -0.0896 0.7634 -0.6396 1.0
vtan -0.0046 0.7753 -0.6315 1.0
vtan -0.1606 0.2973 -0.9412 1.0
vtan -0.1227 -0.2274 -0.966 1.0
vtan -0.1639 0.7765 -0.6084 1.0
vtan -0.3694 0.421 -0.8284 1.0
vtan -0.3964 0.3997 -0.8265 1.0
vtan -0.4996 0.0368 -0.8655 1.0
vtan -0.4453 0.1205 -0.8872 1.0
vtan -0.2206 0.6946 -0.6847 1.0
vtan -0.2446 0.6749 -0.6962 1.0
vtan -0.43 0.3198 -0.8443 1.0
vtan -0.5362 -0.0434 -0.843 1.0
vtan -0.2282 0.6348 -0.7382 1.0
vtan -0.9777 0.1633 -0.1317 1.0
vtan -0.9724 0.1686 -0.1612 1.0
vtan -0.9586 0.1152 0.2603 1.0
vtan -0.9332 0.1029 0.3442 1.0
vtan -0.9977 0.0678 0.0017 1.0
vtan -0.9966 0.08 0.0221 1.0
vtan -0.9951 -0.0661 0.0737 1.0
vtan 0.9182 -0.1878 0.3487 1.0
vtan 0.9124 -0.1889 0.363 1.0
vtan 0.9876 -0.001 0.1571 1.0
vtan 0.9901 0.037 0.1354 1.0
vtan 0.982 0.0806 0.1706 1.0
vtan 0.9831 0.0816 0.1638 1.0
vtan 0.9875 -0.1051 0.1172 1.0
vtan 0.99 -0.127 0.0607 1.0
vtan 0.9478 -0.2382 -0.2118 1.0
vtan 0.9417 -0.243 -0.2328 1.0
vtan 0.4887 -0.134 -0.8621 1.0
vtan 0.4809 -0.1759 -0.859 1.0
vtan 0.5275 -0.2666 -0.8066 1.0
vtan 0.5309 -0.2666 -0.8044 1.0
vtan 0.9434 0.0586 -0.3264 1.0
vtan 0.9525 0.0525 -0.3001 1.0
vtan 0.6304 0.0357 -0.7755 1.0
vtan 0.5725 0.0147 -0.8198 1.0
vtan 0.9389 -0.0029 0.3442 1.0
vtan 0.9588 -0.0035 0.2842 1.0
vtan 0.4906 0.7107 0.5042 1.0
vtan 0.6119 0.5052 0.6086 1.0
vtan 0.6065 0.4074 0.6827 1.0
vtan 0.4897 0.7317 0.4741 1.0
vtan 0.8755 0.4323 0.2159 1.0
vtan 0.8766 0.4296 0.2169 1.0
vtan 0.8419 0.5351 0.0692 1.0
vtan 0.8735 0.4868 -0.0099 1.0
vtan 0.9206 0.3651 0.1383 1.0
vtan 0.8543 0.4994 0.1441 1.0
vtan 0.8252 0.5452 0.1475 1.0
vtan -0.9249 0.2196 -0.3103 -1.0
vtan -0.9213 0.2208 -0.32 -1.0
vtan -0.9508 0.1835 -0.2496 -1.0
vtan -0.9745 0.1559 -0.1611 -1.0
vtan -0.5847 0.0056 0.8112 -1.0
vtan -0.4111 0.011 0.9115 -1.0
vtan -0.9539 0.0112 0.2998 -1.0
vtan -0.9917 0.0162 0.1275 -1.0
vtan -0.3527 -0.0079 0.9357 -1.0
vtan 0.9277 -0.2637 -0.2642 1.0
vtan 0.9303 0.0727 -0.3596 1.0
vtan 0.9677 -0.1639 -0.1914 1.0
vtan 0.8673 -0.3362 -0.3672 1.0
vtan 0.714 0.5253 -0.4628 1.0
vtan 0.8132 0.1672 -0.5574 1.0
vtan 0.8565 0.2788 -0.4344 1.0
vtan 0.5103 0.5332 -0.6748 1.0
vtan 0.8415 0.0648 -0.5363 1.0
f 0/0/0/0 1/1/1/1 2/2/2/2 
f 0/0/0/0 2/2/2/2 3/3/3/3 
f 1/1/1/1 0/0/0/0 4/4/4/4 
f 1/1/1/1 4/4/4/4 5/5/5/5 
f 2/2/2/2 1/1/1/1 6/6/6/6 
f 2/2/2/2 6/6/6/6 7/7/7/7 
f 1/1/1/1 5/5/5/5 8/8/8/8 
f 1/1/1/1 8/8/8/8 6/6/6/6 
f 9/9/9/9 10/10/10/10 11/11/11/11 
f 9/9/9/9 11/11/11/11 12/12/12/12 
f 13/13/13/13 12/12/12/12 11/11/11/11 
f 13/13/13/13 11/11/11/11 14/14/14/14 
f 15/15/15/15 9/9/9/9 12/12/12/12 
f 15/15/15/15 12/12/12/12 16/16/16/16 
f 17/17/17/17 16/16/16/16 12/12/12/12 
f 17/17/17/17 12/12/12/12 13/13/13/13 
f 18/18/18/18 19/19/19/19 20/20/20/20 
f 18/18/18/18 20/20/20/20 21/21/21/21 
f 22/22/22/22 21/21/21/21 20/20/20/20 
f 22/22/22/22 20/20/20/20 23/23/23/23 
f 24/24/24/24 25/25/25/25 18/18/18/18 
f 24/24/24/24 18/18/18/18 21/21/21/21 
f 24/24/24/24 21/21/21/21 22/22/22/22 
f 24/24/24/24 22/22/22/22 26/26/26/26 
f 27/18/27/27 28/19/28/28 29/20/29/29 
f 27/18/27/27 29/20/29/29 30/21/30/30 
f 31/22/31/31 30/21/30/30 29/20/29/29 
f 31/22/31/31 29/20/29/29 32/23/32/32 
f 33/24/33/33 34/25/34/34 27/18/27/27 
f 33/24/33/33 27/18/27/27 30/21/30/30 
f 33/24/33/33 30/21/30/30 31/22/31/31 
f 33/24/33/33 31/22/31/31 35/26/35/35 
f 36/27/36/36 37/28/37/37 38/29/38/38 
f 36/27/36/36 38/29/38/38 39/30/39/39 
f 36/27/36/36 39/30/39/39 40/31/40/40 
f 36/27/36/36 40/31/40/40 41/32/41/41 
f 42/33/42/42 43/34/43/43 37/28/37/37 
f 42/33/42/42 37/28/37/37 36/27/36/36 
f 44/35/44/44 42/33/42/42 36/27/36/36 
f 44/35/44/44 36/27/36/36 41/32/41/41 
f 45/0/45/45 46/1/46/46 47/2/47/47 
f 45/0/45/45 47/2/47/47 48/3/48/48 
f 49/4/49/49 50/5/50/50 46/1/46/46 
f 49/4/49/49 46/1/46/46 45/0/45/45 
f 47/2/47/47 46/1/46/46 51/6/51/51 
f 47/2/47/47 51/6/51/51 52/7/52/52 
f 50/5/50/50 53/8/53/53 51/6/51/51 
f 50/5/50/50 51/6/51/51 46/1/46/46 
f 54/36/54/54 55/37/55/55 56/38/56/56 
f 54/36/54/54 56/38/56/56 57/39/57/57 
f 58/40/58/58 57/39/57/57 56/38/56/56 
f 58/40/58/58 56/38/56/56 59/41/59/59 
f 60/42/60/60 61/43/61/61 54/36/54/54 
f 60/42/60/60 54/36/54/54 57/39/57/57 
f 62/44/62/62 60/42/60/60 57/39/57/57 
f 62/44/62/62 57/39/57/57 58/40/58/58 
f 63/18/63/63 64/19/64/64 65/20/65/65 
f 63/18/63/63 65/20/65/65 66/21/66/66 
f 67/22/67/67 66/21/66/66 65/20/65/65 
f 67/22/67/67 65/20/65/65 68/23/68/68 
f 69/24/69/69 70/25/70/70 63/18/63/63 
f 69/24/69/69 63/18/63/63 66/21/66/66 
f 69/24/69/69 66/21/66/66 67/22/67/67 
f 69/24/69/69 67/22/67/67 71/26/71/71 
f 72/45/72/72 73/46/73/73 74/47/74/74 
f 72/45/72/72 74/47/74/74 75/48/75/75 
f 73/46/73/73 76/49/76/76 77/50/77/77 
f 73/46/73/73 77/50/77/77 74/47/74/74 
f 75/48/75/75 74/47/74/74 78/51/78/78 
f 75/48/75/75 78/51/78/78 79/52/79/79 
f 74/47/74/74 77/50/77/77 80/53/80/80 
f 74/47/74/74 80/53/80/80 78/51/78/78 
f 81/54/81/81 82/55/82/82 83/56/83/83 
f 81/54/81/81 83/56/83/83 84/57/84/84 
f 85/58/85/85 84/57/84/84 83/56/83/83 
f 85/58/85/85 83/56/83/83 86/59/86/86 
f 87/60/87/87 88/61/88/88 81/54/81/81 
f 87/60/87/87 81/54/81/81 84/57/84/84 
f 87/60/87/87 84/57/84/84 85/58/85/85 
f 87/60/87/87 85/58/85/85 89/62/89/89 
f 90/54/90/90 91/55/91/91 92/56/92/92 
f 90/54/90/90 92/56/92/92 93/57/93/93 
f 94/58/94/94 93/57/93/93 92/56/92/92 
f 94/58/94/94 92/56/92/92 95/59/95/95 
f 96/60/96/96 97/61/97/97 90/54/90/90 
f 96/60/96/96 90/54/90/90 93/57/93/93 
f 96/60/96/96 93/57/93/93 94/58/94/94 
f 96/60/96/96 94/58/94/94 98/62/98/98 
f 99/18/99/99 100/19/100/100 101/20/101/101 
f 99/18/99/99 101/20/101/101 102/21/102/102 
f 103/22/103/103 102/21/102/102 101/20/101/101 
f 103/22/103/103 101/20/101/101 104/23/104/104 
f 105/24/105/105 106/25/106/106 99/18/99/99 
f 105/24/105/105 99/18/99/99 102/21/102/102 
f 105/24/105/105 102/21/102/102 103/22/103/103 
f 105/24/105/105 103/22/103/103 107/26/107/107 
f 108/54/108/108 109/55/109/109 110/56/110/110 
f 108/54/108/108 110/56/110/110 111/57/111/111 
f 112/58/112/112 111/57/111/111 110/56/110/110 
f 112/58/112/112 110/56/110/110 113/59/113/113 
f 114/60/114/114 115/61/115/115 108/54/108/108 
f 114/60/114/114 108/54/108/108 111/57/111/111 
f 114/60/114/114 111/57/111/111 112/58/112/112 
f 114/60/114/114 112/58/112/112 116/62/116/116 
f 117/36/117/117 118/37/118/118 119/38/119/119 
f 117/36/117/117 119/38/119/119 120/39/120/120 
f 121/40/121/121 120/39/120/120 119/38/119/119 
f 121/40/121/121 119/38/119/119 122/41/122/122 
f 123/42/123/123 124/43/124/124 117/36/117/117 
f 123/42/123/123 117/36/117/117 120/39/120/120 
f 125/44/125/125 123/42/123/123 120/39/120/120 
f 125/44/125/125 120/39/120/120 121/40/121/121 
f 126/0/126/126 127/1/127/127 128/2/128/128 
f 126/0/126/126 128/2/128/128 129/3/129/129 
f 126/0/126/126 130/4/130/130 131/5/131/131 
f 126/0/126/126 131/5/131/131 127/1/127/127 
f 128/2/128/128 127/1/127/127 132/6/132/132 
f 128/2/128/128 132/6/132/132 133/7/133/133 
f 131/5/131/131 134/8/134/134 132/6/132/132 
f 131/5/131/131 132/6/132/132 127/1/127/127 
f 135/63/135/135 136/64/136/136 137/65/137/137 
f 135/63/135/135 137/65/137/137 138/66/138/138 
f 139/67/139/139 138/66/138/138 137/65/137/137 
f 139/67/139/139 137/65/137/137 140/68/140/140 
f 141/69/141/141 142/70/142/142 135/63/135/135 
f 141/69/141/141 135/63/135/135 138/66/138/138 
f 141/69/141/141 138/66/138/138 139/67/139/139 
f 141/69/141/141 139/67/139/139 143/71/143/143 
f 144/72/144/144 145/73/145/145 146/74/146/146 
f 144/72/144/144 146/74/146/146 147/75/147/147 
f 144/72/144/144 148/76/148/148 149/77/149/149 
f 144/72/144/144 149/77/149/149 145/73/145/145 
f 146/74/146/146 145/73/145/145 150/78/150/150 
f 146/74/146/146 150/78/150/150 151/79/151/151 
f 149/77/149/149 152/80/152/152 150/78/150/150 
f 149/77/149/149 150/78/150/150 145/73/145/145 
f 153/54/153/153 154/55/154/154 155/56/155/155 
f 153/54/153/153 155/56/155/155 156/57/156/156 
f 157/58/157/157 156/57/156/156 155/56/155/155 
f 157/58/157/157 155/56/155/155 158/59/158/158 
f 159/60/159/159 160/61/160/160 153/54/153/153 
f 159/60/159/159 153/54/153/153 156/57/156/156 
f 159/60/159/159 156/57/156/156 157/58/157/157 
f 159/60/159/159 157/58/157/157 161/62/161/161 
f 162/2/162/162 163/1/163/163 164/0/164/164 
f 162/2/162/162 164/0/164/164 165/3/165/165 
f 163/1/163/163 166/5/166/166 167/4/167/167 
f 163/1/163/163 167/4/167/167 164/0/164/164 
f 162/2/162/162 168/7/168/168 169/6/169/169 
f 162/2/162/162 169/6/169/169 163/1/163/163 
f 163/1/163/163 169/6/169/169 170/8/170/170 
f 163/1/163/163 170/8/170/170 166/5/166/166 
f 171/54/171/171 172/55/172/172 173/56/173/173 
f 171/54/171/171 173/56/173/173 174/57/174/174 
f 175/58/175/175 174/57/174/174 173/56/173/173 
f 175/58/175/175 173/56/173/173 176/59/176/176 
f 177/60/177/177 178/61/178/178 171/54/171/171 
f 177/60/177/177 171/54/171/171 174/57/174/174 
f 177/60/177/177 174/57/174/174 175/58/175/175 
f 177/60/177/177 175/58/175/175 179/62/179/179 
f 180/54/180/180 181/55/181/181 182/56/182/182 
f 180/54/180/180 182/56/182/182 183/57/183/183 
f 184/58/184/184 183/57/183/183 182/56/182/182 
f 184/58/184/184 182/56/182/182 185/59/185/185 
f 186/60/186/186 187/61/187/187 180/54/180/180 
f 186/60/186/186 180/54/180/180 183/57/183/183 
f 186/60/186/186 183/57/183/183 184/58/184/184 
f 186/60/186/186 184/58/184/184 188/62/188/188 
f 189/54/189/189 190/55/190/190 191/56/191/191 
f 189/54/189/189 191/56/191/191 192/57/192/192 
f 193/58/193/193 192/57/192/192 191/56/191/191 
f 193/58/193/193 191/56/191/191 194/59/194/194 
f 195/60/195/195 196/61/196/196 189/54/189/189 
f 195/60/195/195 189/54/189/189 192/57/192/192 
f 195/60/195/195 192/57/192/192 193/58/193/193 
f 195/60/195/195 193/58/193/193 197/62/197/197 
f 198/0/198/198 199/1/199/199 200/2/200/200 
f 198/0/198/198 200/2/200/200 201/3/201/201 
f 202/4/202/202 203/5/203/203 199/1/199/199 
f 202/4/202/202 199/1/199/199 198/0/198/198 
f 200/2/200/200 199/1/199/199 204/6/204/204 
f 200/2/200/200 204/6/204/204 205/7/205/205 
f 203/5/203/203 206/8/206/206 204/6/204/204 
f 203/5/203/203 204/6/204/204 199/1/199/199 
f 207/18/207/207 208/19/208/208 209/20/209/209 
f 207/18/207/207 209/20/209/209 210/21/210/210 
f 211/22/211/211 210/21/210/210 209/20/209/209 
f 211/22/211/211 209/20/209/209 212/23/212/212 
f 213/24/213/213 214/25/214/214 207/18/207/207 
f 213/24/213/213 207/18/207/207 210/21/210/210 
f 213/24/213/213 210/21/210/210 211/22/211/211 
f 213/24/213/213 211/22/211/211 215/26/215/215 
f 216/45/216/216 217/46/217/217 218/47/218/218 
f 216/45/216/216 218/47/218/218 219/48/219/219 
f 217/46/217/217 220/49/220/220 221/50/221/221 
f 217/46/217/217 221/50/221/221 218/47/218/218 
f 219/48/219/219 218/47/218/218 222/51/222/222 
f 219/48/219/219 222/51/222/222 223/52/223/223 
f 218/47/218/218 221/50/221/221 224/53/224/224 
f 218/47/218/218 224/53/224/224 222/51/222/222 
f 225/81/225/225 226/82/226/226 227/83/227/227 
f 225/81/225/225 227/83/227/227 228/84/228/228 
f 229/85/229/229 230/86/230/230 226/82/226/226 
f 229/85/229/229 226/82/226/226 225/81/225/225 
f 227/83/227/227 226/82/226/226 231/87/231/231 
f 227/83/227/227 231/87/231/231 232/88/232/232 
f 226/82/226/226 230/86/230/230 233/89/233/233 
f 226/82/226/226 233/89/233/233 231/87/231/231 
f 234/46/234/234 235/47/235/235 236/48/236/236 
f 234/46/234/234 236/48/236/236 237/45/237/237 
f 234/46/234/234 238/49/238/238 239/50/239/239 
f 234/46/234/234 239/50/239/239 235/47/235/235 
f 236/48/236/236 235/47/235/235 240/51/240/240 
f 236/48/236/236 240/51/240/240 241/52/241/241 
f 235/47/235/235 239/50/239/239 242/53/242/242 
f 235/47/235/235 242/53/242/242 240/51/240/240 
f 243/27/243/243 244/28/244/244 245/29/245/245 
f 243/27/243/243 245/29/245/245 246/30/246/246 
f 243/27/243/243 246/30/246/246 247/31/247/247 
f 243/27/243/243 247/31/247/247 248/32/248/248 
f 249/33/249/249 250/34/250/250 244/28/244/244 
f 249/33/249/249 244/28/244/244 243/27/243/243 
f 251/35/251/251 249/33/249/249 243/27/243/243 
f 251/35/251/251 243/27/243/243 248/32/248/248 
f 252/72/252/252 253/73/253/253 254/74/254/254 
f 252/72/252/252 254/74/254/254 255/75/255/255 
f 252/72/252/252 256/76/256/256 257/77/257/257 
f 252/72/252/252 257/77/257/257 253/73/253/253 
f 254/74/254/254 253/73/253/253 258/78/258/258 
f 254/74/254/254 258/78/258/258 259/79/259/259 
f 257/77/257/257 260/80/260/260 258/78/258/258 
f 257/77/257/257 258/78/258/258 253/73/253/253 
f 261/56/261/261 262/55/262/262 263/54/263/263 
f 261/56/261/261 263/54/263/263 264/57/264/264 
f 265/58/265/265 266/59/266/266 261/56/261/261 
f 265/58/265/265 261/56/261/261 264/57/264/264 
f 264/57/264/264 263/54/263/263 267/61/267/267 
f 264/57/264/264 267/61/267/267 268/60/268/268 
f 265/58/265/265 264/57/264/264 268/60/268/268 
f 265/58/265/265 268/60/268/268 269/62/269/269 
f 270/54/270/270 271/55/271/271 272/56/272/272 
f 270/54/270/270 272/56/272/272 273/57/273/273 
f 274/58/274/274 273/57/273/273 272/56/272/272 
f 274/58/274/274 272/56/272/272 275/59/275/275 
f 276/60/276/276 277/61/277/277 270/54/270/270 
f 276/60/276/276 270/54/270/270 273/57/273/273 
f 276/60/276/276 273/57/273/273 274/58/274/274 
f 276/60/276/276 274/58/274/274 278/62/278/278 
f 279/9/279/279 280/10/280/280 281/11/281/281 
f 279/9/279/279 281/11/281/281 282/12/282/282 
f 283/13/283/283 282/12/282/282 281/11/281/281 
f 283/13/283/283 281/11/281/281 284/14/284/284 
f 285/15/285/285 279/9/279/279 282/12/282/282 
f 285/15/285/285 282/12/282/282 286/16/286/286 
f 287/17/287/287 286/16/286/286 282/12/282/282 
f 287/17/287/287 282/12/282/282 283/13/283/283 
f 288/90/288/288 289/91/289/289 290/92/290/290 
f 288/90/288/288 290/92/290/290 291/93/291/291 
f 292/94/292/292 291/93/291/291 290/92/290/290 
f 292/94/292/292 290/92/290/290 293/95/293/293 
f 294/96/294/294 295/97/295/295 288/90/288/288 
f 294/96/294/294 288/90/288/288 291/93/291/291 
f 294/96/294/294 291/93/291/291 292/94/292/292 
f 294/96/294/294 292/94/292/292 296/98/296/296 
f 297/27/297/297 298/28/298/298 299/29/299/299 
f 297/27/297/297 299/29/299/299 300/30/300/300 
f 297/27/297/297 300/30/300/300 301/31/301/301 
f 297/27/297/297 301/31/301/301 302/32/302/302 
f 303/33/303/303 304/34/304/304 298/28/298/298 
f 303/33/303/303 298/28/298/298 297/27/297/297 
f 305/35/305/305 303/33/303/303 297/27/297/297 
f 305/35/305/305 297/27/297/297 302/32/302/302 
f 306/0/306/306 307/1/307/307 308/2/308/308 
f 306/0/306/306 308/2/308/308 309/3/309/309 
f 310/4/310/310 311/5/311/311 307/1/307/307 
f 310/4/310/310 307/1/307/307 306/0/306/306 
f 308/2/308/308 307/1/307/307 312/6/312/312 
f 308/2/308/308 312/6/312/312 313/7/313/313 
f 307/1/307/307 311/5/311/311 314/8/314/314 
f 307/1/307/307 314/8/314/314 312/6/312/312 
f 315/0/315/315 316/1/316/316 317/2/317/317 
f 315/0/315/315 317/2/317/317 318/3/318/318 
f 319/4/319/319 320/5/320/320 316/1/316/316 
f 319/4/319/319 316/1/316/316 315/0/315/315 
f 317/2/317/317 316/1/316/316 321/6/321/321 
f 317/2/317/317 321/6/321/321 322/7/322/322 
f 320/5/320/320 323/8/323/323 321/6/321/321 
f 320/5/320/320 321/6/321/321 316/1/316/316 
f 324/54/324/324 325/55/325/325 326/56/326/326 
f 324/54/324/324 326/56/326/326 327/57/327/327 
f 328/58/328/328 327/57/327/327 326/56/326/326 
f 328/58/328/328 326/56/326/326 329/59/329/329 
f 330/60/330/330 331/61/331/331 324/54/324/324 
f 330/60/330/330 324/54/324/324 327/57/327/327 
f 330/60/330/330 327/57/327/327 328/58/328/328 
f 330/60/330/330 328/58/328/328 332/62/332/332 
f 333/54/333/333 334/55/334/334 335/56/335/335 
f 333/54/333/333 335/56/335/335 336/57/336/336 
f 337/58/337/337 336/57/336/336 335/56/335/335 
f 337/58/337/337 335/56/335/335 338/59/338/338 
f 339/60/339/339 340/61/340/340 333/54/333/333 
f 339/60/339/339 333/54/333/333 336/57/336/336 
f 339/60/339/339 336/57/336/336 337/58/337/337 
f 339/60/339/339 337/58/337/337 341/62/341/341 
f 342/54/342/342 343/55/343/343 344/56/344/344 
f 342/54/342/342 344/56/344/344 345/57/345/345 
f 346/58/346/346 345/57/345/345 344/56/344/344 
f 346/58/346/346 344/56/344/344 347/59/347/347 
f 348/60/348/348 349/61/349/349 342/54/342/342 
f 348/60/348/348 342/54/342/342 345/57/345/345 
f 348/60/348/348 345/57/345/345 346/58/346/346 
f 348/60/348/348 346/58/346/346 350/62/350/350 
f 351/63/351/351 352/64/352/352 353/65/353/353 
f 351/63/351/351 353/65/353/353 354/66/354/354 
f 355/67/355/355 354/66/354/354 353/65/353/353 
f 355/67/355/355 353/65/353/353 356/68/356/356 
f 357/69/357/357 358/70/358/358 351/63/351/351 
f 357/69/357/357 351/63/351/351 354/66/354/354 
f 357/69/357/357 354/66/354/354 355/67/355/355 
f 357/69/357/357 355/67/355/355 359/71/359/359 
f 360/18/360/360 361/19/361/361 362/20/362/362 
f 360/18/360/360 362/20/362/362 363/21/363/363 
f 364/22/364/364 363/21/363/363 362/20/362/362 
f 364/22/364/364 362/20/362/362 365/23/365/365 
f 366/24/366/366 367/25/367/367 360/18/360/360 
f 366/24/366/366 360/18/360/360 363/21/363/363 
f 366/24/366/366 363/21/363/363 364/22/364/364 
f 366/24/366/366 364/22/364/364 368/26/368/368 
f 369/18/369/369 370/19/370/370 371/20/371/371 
f 369/18/369/369 371/20/371/371 372/21/372/372 
f 373/22/373/373 372/21/372/372 371/20/371/371 
f 373/22/373/373 371/20/371/371 374/23/374/374 
f 375/24/375/375 376/25/376/376 369/18/369/369 
f 375/24/375/375 369/18/369/369 372/21/372/372 
f 375/24/375/375 372/21/372/372 373/22/373/373 
f 375/24/375/375 373/22/373/373 377/26/377/377 
f 378/28/378/378 379/29/379/379 380/30/380/380 
f 378/28/378/378 380/30/380/380 381/27/381/381 
f 381/27/381/381 380/30/380/380 382/31/382/382 
f 381/27/381/381 382/31/382/382 383/32/383/383 
f 384/33/384/384 385/34/385/385 378/28/378/378 
f 384/33/384/384 378/28/378/378 381/27/381/381 
f 386/35/386/386 384/33/384/384 381/27/381/381 
f 386/35/386/386 381/27/381/381 383/32/383/383 
f 387/83/387/387 388/84/388/388 389/81/389/389 
f 387/83/387/387 389/81/389/389 390/82/390/390 
f 390/82/390/390 389/81/389/389 391/85/391/391 
f 390/82/390/390 391/85/391/391 392/86/392/392 
f 387/83/387/387 390/82/390/390 393/87/393/393 
f 387/83/387/387 393/87/393/393 394/88/394/394 
f 390/82/390/390 392/86/392/392 395/89/395/395 
f 390/82/390/390 395/89/395/395 393/87/393/393 
f 396/83/396/396 397/84/397/397 398/81/398/398 
f 396/83/396/396 398/81/398/398 399/82/399/399 
f 399/82/399/399 398/81/398/398 400/85/400/400 
f 399/82/399/399 400/85/400/400 401/86/401/401 
f 396/83/396/396 399/82/399/399 402/87/402/402 
f 396/83/396/396 402/87/402/402 403/88/403/403 
f 399/82/399/399 401/86/401/401 404/89/404/404 
f 399/82/399/399 404/89/404/404 402/87/402/402 
f 405/83/405/405 406/84/406/406 407/81/407/407 
f 405/83/405/405 407/81/407/407 408/82/408/408 
f 408/82/408/408 407/81/407/407 409/85/409/409 
f 408/82/408/408 409/85/409/409 410/86/410/410 
f 405/83/405/405 408/82/408/408 411/87/411/411 
f 405/83/405/405 411/87/411/411 412/88/412/412 
f 408/82/408/408 410/86/410/410 413/89/413/413 
f 408/82/408/408 413/89/413/413 411/87/411/411 
f 414/83/414/414 415/84/415/415 416/81/416/416 
f 414/83/414/414 416/81/416/416 417/82/417/417 
f 417/82/417/417 416/81/416/416 418/85/418/418 
f 417/82/417/417 418/85/418/418 419/86/419/419 
f 414/83/414/414 417/82/417/417 420/87/420/420 
f 414/83/414/414 420/87/420/420 421/88/421/421 
f 417/82/417/417 419/86/419/419 422/89/422/422 
f 417/82/417/417 422/89/422/422 420/87/420/420 
f 423/83/423/423 424/84/424/424 425/81/425/425 
f 423/83/423/423 425/81/425/425 426/82/426/426 
f 426/82/426/426 425/81/425/425 427/85/427/427 
f 426/82/426/426 427/85/427/427 428/86/428/428 
f 423/83/423/423 426/82/426/426 429/87/429/429 
f 423/83/423/423 429/87/429/429 430/88/430/430 
f 426/82/426/426 428/86/428/428 431/89/431/431 
f 426/82/426/426 431/89/431/431 429/87/429/429 
f 432/56/432/432 433/57/433/433 434/54/434/434 
f 432/56/432/432 434/54/434/434 435/55/435/435 
f 436/59/436/436 437/58/437/437 433/57/433/433 
f 436/59/436/436 433/57/433/433 432/56/432/432 
f 434/54/434/434 433/57/433/433 438/60/438/438 
f 434/54/434/434 438/60/438/438 439/61/439/439 
f 437/58/437/437 440/62/440/440 438/60/438/438 
f 437/58/437/437 438/60/438/438 433/57/433/433 
f 441/18/441/441 442/19/442/442 443/20/443/443 
f 441/18/441/441 443/20/443/443 444/21/444/444 
f 445/22/445/445 444/21/444/444 443/20/443/443 
f 445/22/445/445 443/20/443/443 446/23/446/446 
f 447/24/447/447 448/25/448/448 441/18/441/441 
f 447/24/447/447 441/18/441/441 444/21/444/444 
f 447/24/447/447 444/21/444/444 445/22/445/445 
f 447/24/447/447 445/22/445/445 449/26/449/449 
f 450/18/450/450 451/19/451/451 452/20/452/452 
f 450/18/450/450 452/20/452/452 453/21/453/453 
f 453/21/453/453 452/20/452/452 454/23/454/454 
f 453/21/453/453 454/23/454/454 455/22/455/455 
f 456/24/456/456 457/25/457/457 450/18/450/450 
f 456/24/456/456 450/18/450/450 453/21/453/453 
f 456/24/456/456 453/21/453/453 455/22/455/455 
f 456/24/456/456 455/22/455/455 458/26/458/458 
f 459/18/459/459 460/19/460/460 461/20/461/461 
f 459/18/459/459 461/20/461/461 462/21/462/462 
f 463/22/463/463 462/21/462/462 461/20/461/461 
f 463/22/463/463 461/20/461/461 464/23/464/464 
f 465/24/465/465 466/25/466/466 459/18/459/459 
f 465/24/465/465 459/18/459/459 462/21/462/462 
f 465/24/465/465 462/21/462/462 463/22/463/463 
f 465/24/465/465 463/22/463/463 467/26/467/467 
f 468/72/468/468 469/73/469/469 470/74/470/470 
f 468/72/468/468 470/74/470/470 471/75/471/471 
f 468/72/468/468 472/76/472/472 473/77/473/473 
f 468/72/468/468 473/77/473/473 469/73/469/469 
f 470/74/470/470 469/73/469/469 474/78/474/474 
f 470/74/470/470 474/78/474/474 475/79/475/475 
f 473/77/473/473 476/80/476/476 474/78/474/474 
f 473/77/473/473 474/78/474/474 469/73/469/469 
f 477/99/477/477 478/100/478/478 479/101/479/479 
f 477/99/477/477 479/101/479/479 480/102/480/480 
f 478/100/478/478 477/99/477/477 481/103/481/481 
f 478/100/478/478 481/103/481/481 482/104/482/482 
f 481/103/481/481 483/105/483/483 482/104/482/482 
f 484/106/484/484 485/107/485/485 486/108/486/486 
f 484/106/484/484 486/108/486/486 487/109/487/487 
f 488/110/488/488 489/111/489/489 487/109/487/487 
f 488/110/488/488 487/109/487/487 486/108/486/486 
f 488/110/488/488 490/112/490/490 491/113/491/491 
f 488/110/488/488 491/113/491/491 489/111/489/489 
f 492/114/492/492 493/115/493/493 491/113/491/491 
f 492/114/492/492 491/113/491/491 490/112/490/490 
f 494/116/494/494 495/117/495/495 496/106/496/496 
f 494/116/494/494 496/106/496/496 497/118/497/497 
f 498/119/498/498 499/120/499/499 500/109/500/500 
f 498/119/498/498 500/109/500/500 501/108/501/501 
f 501/108/501/501 500/109/500/500 495/117/495/495 
f 501/108/501/501 495/117/495/495 494/116/494/494 
f 498/119/498/498 502/114/502/502 503/115/503/503 
f 498/119/498/498 503/115/503/503 499/120/499/499 
f 504/102/504/504 505/121/505/505 506/122/506/506 
f 504/102/504/504 506/122/506/506 507/101/507/507 
f 508/106/508/508 509/123/509/509 510/116/510/510 
f 508/106/508/508 510/116/510/510 511/117/511/511 
f 512/124/512/512 513/125/513/513 514/126/514/514 
f 510/116/510/510 514/126/514/514 513/125/513/513 
f 510/116/510/510 513/125/513/513 511/117/511/511 
f 505/121/505/505 509/123/509/509 508/106/508/508 
f 505/121/505/505 508/106/508/508 506/122/506/506 
f 515/102/515/515 516/101/516/516 517/122/517/517 
f 515/102/515/515 517/122/517/517 518/121/518/518 
f 519/117/519/519 520/116/520/520 521/123/521/521 
f 519/117/519/519 521/123/521/521 522/106/522/522 
f 520/116/520/520 519/117/519/519 523/127/523/523 
f 518/121/518/518 517/122/517/517 522/106/522/522 
f 518/121/518/518 522/106/522/522 521/123/521/521 
f 524/128/524/524 525/129/525/525 526/130/526/526 
f 526/130/526/526 527/131/527/527 524/128/524/524 
f 525/129/525/525 528/132/528/528 529/133/529/529 
f 525/129/525/525 530/134/530/530 528/132/528/528 
f 528/132/528/528 531/135/531/531 529/133/529/529 
f 525/129/525/525 529/133/529/529 526/130/526/526 
f 525/129/525/525 532/136/532/532 530/134/530/530 
