v 790.1294 279.8812 -279.1519
v 790.1294 280.1829 -280.278
v 830.2939 280.1829 -280.278
v 830.2939 279.8812 -279.1519
v 790.1294 281.0074 -281.1023
v 830.2939 281.0074 -281.1023
v 790.1294 282.1335 -281.4041
v 830.2939 282.1335 -281.4041
v 790.1294 283.2597 -281.1023
v 830.2939 283.2597 -281.1023
v 790.1294 284.0839 -280.278
v 830.2939 284.0839 -280.278
v 790.1294 284.3857 -279.1518
v 830.2939 284.3857 -279.1518
v 790.1294 284.0839 -278.0257
v 830.2939 284.0839 -278.0257
v 790.1294 283.2596 -277.2013
v 830.2939 283.2596 -277.2013
v 790.1294 282.1334 -276.8996
v 830.2939 282.1334 -276.8996
v 790.1294 281.0073 -277.2013
v 830.2939 281.0073 -277.2013
v 790.1294 280.1829 -278.0258
v 830.2939 280.1829 -278.0258
v 749.9647 279.8812 -279.1519
v 749.9647 280.1829 -280.278
v 749.9647 281.0074 -281.1023
v 749.9647 282.1335 -281.4041
v 749.9647 283.2597 -281.1023
v 749.9647 284.0839 -280.278
v 749.9647 284.3857 -279.1518
v 749.9647 284.0839 -278.0257
v 749.9647 283.2596 -277.2013
v 749.9647 282.1334 -276.8996
v 749.9647 281.0073 -277.2013
v 749.9647 280.1829 -278.0258
v 709.8002 279.8812 -279.1519
v 709.8002 280.1829 -280.278
v 709.8002 281.0074 -281.1023
v 709.8002 282.1335 -281.4041
v 709.8002 283.2597 -281.1023
v 709.8002 284.0839 -280.278
v 709.8002 284.3857 -279.1518
v 709.8002 284.0839 -278.0257
v 709.8002 283.2596 -277.2013
v 709.8002 282.1334 -276.8996
v 709.8002 281.0073 -277.2013
v 709.8002 280.1829 -278.0258
v 675.3553 279.8812 -279.1519
v 675.3553 280.1829 -280.278
v 675.3553 281.0074 -281.1023
v 675.3553 282.1335 -281.4041
v 675.3553 283.2597 -281.1023
v 675.3553 284.0839 -280.278
v 675.3553 284.3857 -279.1518
v 675.3553 284.0839 -278.0257
v 675.3553 283.2596 -277.2013
v 675.3553 282.1334 -276.8996
v 675.3553 281.0073 -277.2013
v 675.3553 280.1829 -278.0258
v 520.4168 280.1829 -280.278
v 560.5814 280.1829 -280.278
v 560.5814 279.8812 -279.1519
v 520.4168 279.8812 -279.1519
v 520.4168 281.0074 -281.1023
v 560.5814 281.0074 -281.1023
v 520.4168 282.1335 -281.4041
v 560.5814 282.1335 -281.4041
v 520.4168 283.2597 -281.1023
v 560.5814 283.2597 -281.1023
v 520.4168 284.0839 -280.278
v 560.5814 284.0839 -280.278
v 520.4168 284.3857 -279.1518
v 560.5814 284.3857 -279.1518
v 520.4168 284.0839 -278.0257
v 560.5814 284.0839 -278.0257
v 520.4168 283.2596 -277.2013
v 560.5814 283.2596 -277.2013
v 520.4168 282.1334 -276.8996
v 560.5814 282.1334 -276.8996
v 520.4168 281.0073 -277.2013
v 560.5814 281.0073 -277.2013
v 520.4168 280.1829 -278.0258
v 560.5814 280.1829 -278.0258
v 600.746 280.1829 -280.278
v 600.746 279.8812 -279.1519
v 600.746 281.0074 -281.1023
v 600.746 282.1335 -281.4041
v 600.746 283.2597 -281.1023
v 600.746 284.0839 -280.278
v 600.746 284.3857 -279.1518
v 600.746 284.0839 -278.0257
v 600.746 283.2596 -277.2013
v 600.746 282.1334 -276.8996
v 600.746 281.0073 -277.2013
v 600.746 280.1829 -278.0258
v 640.9106 280.1829 -280.278
v 640.9106 279.8812 -279.1519
v 640.9106 281.0074 -281.1023
v 640.9106 282.1335 -281.4041
v 640.9106 283.2597 -281.1023
v 640.9106 284.0839 -280.278
v 640.9106 284.3857 -279.1518
v 640.9106 284.0839 -278.0257
v 640.9106 283.2596 -277.2013
v 640.9106 282.1334 -276.8996
v 640.9106 281.0073 -277.2013
v 640.9106 280.1829 -278.0258
vt 0.9876 0.5241
vt 0.9633 0.5241
vt 0.9633 0.0053
vt 0.9876 0.0053
vt 0.9391 0.5241
vt 0.9391 0.0053
vt 0.9148 0.5241
vt 0.9148 0.0053
vt 0.8906 0.5241
vt 0.8906 0.0053
vt 0.8663 0.5241
vt 0.8663 0.0053
vt 0.8421 0.5241
vt 0.8421 0.0053
vt 0.8178 0.5241
vt 0.8178 0.0053
vt 0.7936 0.5241
vt 0.7936 0.0053
vt 0.7694 0.5241
vt 0.7694 0.0053
vt 0.7451 0.5241
vt 0.7451 0.0053
vt 0.7209 0.5241
vt 0.7209 0.0053
vt 0.6966 0.5241
vt 0.6966 0.0053
vt 0.9876 0.4502
vt 0.9633 0.4502
vt 0.9391 0.4502
vt 0.9148 0.4502
vt 0.8906 0.4502
vt 0.8663 0.4502
vt 0.8421 0.4502
vt 0.8178 0.4502
vt 0.7936 0.4502
vt 0.7694 0.4502
vt 0.7451 0.4502
vt 0.7209 0.4502
vt 0.6966 0.4502
vn 0.0 -1.0 0.0
vn 0.0 -0.866 -0.5
vn 0.0 -0.866 -0.5
vn 0.0 -1.0 -0.0
vn 0.0 -0.5 -0.866
vn 0.0 -0.5 -0.866
vn 0.0 -0.0 -1.0
vn 0.0 -0.0 -1.0
vn 0.0 0.5 -0.866
vn 0.0 0.5 -0.866
vn 0.0 0.866 -0.5
vn 0.0 0.866 -0.5
vn 0.0 1.0 0.0
vn 0.0 1.0 -0.0
vn 0.0 0.866 0.5
vn 0.0 0.866 0.5
vn 0.0 0.5 0.866
vn 0.0 0.5 0.866
vn 0.0 -0.0 1.0
vn 0.0 -0.0 1.0
vn 0.0 -0.5 0.866
vn 0.0 -0.5 0.866
vn 0.0 -0.866 0.5
vn 0.0 -0.866 0.5
vn 0.0 -1.0 0.0
vn 0.0 -0.866 -0.5
vn 0.0 -0.5 -0.866
vn 0.0 -0.0 -1.0
vn 0.0 0.5001 -0.866
vn 0.0 0.866 -0.5
vn 0.0 1.0 0.0
vn 0.0 0.866 0.5
vn 0.0 0.5 0.866
vn 0.0 -0.0 1.0
vn 0.0 -0.5 0.866
vn 0.0 -0.866 0.5
vn 0.0 -1.0 -0.0
vn 0.0 -0.866 -0.5
vn 0.0 -0.5 -0.866
vn 0.0 -0.0 -1.0
vn 0.0 0.5 -0.866
vn 0.0 0.866 -0.5
vn 0.0 1.0 -0.0
vn 0.0 0.866 0.5
vn 0.0 0.5 0.866
vn 0.0 -0.0 1.0
vn 0.0 -0.5 0.866
vn 0.0 -0.866 0.5
vn 0.0 -1.0 0.0
vn 0.0 -0.866 -0.5
vn 0.0 -0.5 -0.866
vn 0.0 -0.0 -1.0
vn 0.0 0.5001 -0.866
vn 0.0 0.866 -0.5
vn 0.0 1.0 0.0
vn 0.0 0.866 0.5
vn 0.0 0.5 0.866
vn 0.0 -0.0 1.0
vn 0.0 -0.5 0.866
vn 0.0 -0.866 0.5
vn 0.0 -0.866 -0.5
vn 0.0 -0.866 -0.5
vn 0.0 -1.0 0.0
vn 0.0 -1.0 -0.0
vn 0.0 -0.5 -0.866
vn 0.0 -0.5 -0.866
vn 0.0 -0.0 -1.0
vn 0.0 -0.0 -1.0
vn 0.0 0.5 -0.866
vn 0.0 0.5001 -0.866
vn 0.0 0.866 -0.5
vn 0.0 0.866 -0.5
vn 0.0 1.0 0.0
vn 0.0 1.0 0.0
vn 0.0 0.866 0.5
vn 0.0 0.866 0.5
vn 0.0 0.5 0.866
vn 0.0 0.5 0.866
vn 0.0 -0.0 1.0
vn 0.0 -0.0 1.0
vn 0.0 -0.5 0.866
vn 0.0 -0.5 0.866
vn 0.0 -0.866 0.5
vn 0.0 -0.866 0.5
vn 0.0 -0.866 -0.5
vn 0.0 -1.0 -0.0
vn 0.0 -0.5 -0.866
vn 0.0 -0.0 -1.0
vn 0.0 0.5 -0.866
vn 0.0 0.866 -0.5
vn 0.0 1.0 -0.0
vn 0.0 0.866 0.5
vn 0.0 0.5 0.866
vn 0.0 -0.0 1.0
vn 0.0 -0.5 0.866
vn 0.0 -0.866 0.5
vn 0.0 -0.866 -0.5
vn 0.0 -1.0 0.0
vn 0.0 -0.5 -0.866
vn 0.0 -0.0 -1.0
vn 0.0 0.5 -0.866
vn 0.0 0.866 -0.5
vn 0.0 1.0 0.0
vn 0.0 0.866 0.5
vn 0.0 0.5 0.866
vn 0.0 -0.0 1.0
vn 0.0 -0.5 0.866
vn 0.0 -0.866 0.5
vtan 0.0 0.0 1.0 1.0
vtan 0.0 -0.5 0.866 1.0
vtan 0.0 -0.5 0.866 1.0
vtan 0.0 -0.0 1.0 1.0
vtan 0.0 -0.866 0.5 1.0
vtan 0.0 -0.866 0.5 1.0
vtan 0.0 -1.0 0.0 1.0
vtan 0.0 -1.0 0.0 1.0
vtan 0.0 -0.866 -0.5 1.0
vtan 0.0 -0.866 -0.5 1.0
vtan 0.0 -0.5 -0.866 1.0
vtan 0.0 -0.5 -0.866 1.0
vtan 0.0 0.0 -1.0 1.0
vtan 0.0 -0.0 -1.0 1.0
vtan 0.0 0.5 -0.866 1.0
vtan 0.0 0.5 -0.866 1.0
vtan 0.0 0.866 -0.5 1.0
vtan 0.0 0.866 -0.5 1.0
vtan 0.0 1.0 0.0 1.0
vtan 0.0 1.0 0.0 1.0
vtan 0.0 0.866 0.5 1.0
vtan 0.0 0.866 0.5 1.0
vtan 0.0 0.5 0.866 1.0
vtan 0.0 0.5 0.866 1.0
vtan 0.0 0.0 1.0 1.0
vtan 0.0 -0.0 1.0 1.0
vtan 0.0 -0.5 0.866 1.0
vtan 0.0 0.0 1.0 1.0
vtan 0.0 0.0 1.0 1.0
vtan 0.0 -0.5 0.866 1.0
vtan 0.0 -0.866 0.5 1.0
vtan 0.0 -1.0 0.0 1.0
vtan 0.0 -1.0 0.0 1.0
vtan 0.0 -0.866 -0.5001 1.0
vtan 0.0 -0.866 -0.5 1.0
vtan 0.0 -0.5 -0.866 1.0
vtan 0.0 -0.5 -0.866 1.0
vtan 0.0 0.0 -1.0 1.0
vtan 0.0 0.0 -1.0 1.0
vtan 0.0 0.5 -0.866 1.0
vtan 0.0 0.866 -0.5 1.0
vtan 0.0 0.866 -0.5 1.0
vtan 0.0 1.0 0.0 1.0
vtan 0.0 1.0 0.0 1.0
vtan 0.0 0.866 0.5 1.0
vtan 0.0 0.866 0.5 1.0
vtan 0.0 0.5 0.866 1.0
vtan 0.0 0.5 0.866 1.0
vtan 0.0 0.0 1.0 1.0
vtan 0.0 0.0 1.0 1.0
vtan 0.0 -0.0 1.0 1.0
vtan 0.0 -0.5 0.866 1.0
vtan 0.0 -0.866 0.5 1.0
vtan 0.0 -0.866 0.5 1.0
vtan 0.0 -1.0 0.0 1.0
vtan 0.0 -0.866 -0.5 1.0
vtan 0.0 -0.866 -0.5001 1.0
vtan 0.0 -0.5 -0.866 1.0
vtan 0.0 -0.5 -0.866 1.0
vtan 0.0 -0.0 -1.0 1.0
vtan 0.0 0.0 -1.0 1.0
vtan 0.0 0.5 -0.866 1.0
vtan 0.0 0.5 -0.866 1.0
vtan 0.0 0.866 -0.5 1.0
vtan 0.0 0.866 -0.5 1.0
vtan 0.0 1.0 0.0 1.0
vtan 0.0 1.0 0.0 1.0
vtan 0.0 0.866 0.5 1.0
vtan 0.0 0.866 0.5 1.0
vtan 0.0 0.5 0.866 1.0
vtan 0.0 0.5 0.866 1.0
vtan 0.0 -0.0 1.0 1.0
vtan 0.0 0.0 1.0 1.0
vtan 0.0 0.0 1.0 1.0
vtan 0.0 -0.5 0.866 1.0
vtan 0.0 -0.5 0.866 1.0
vtan 0.0 -0.0 1.0 1.0
vtan 0.0 -0.866 0.5 1.0
vtan 0.0 -0.866 0.5 1.0
vtan 0.0 -1.0 0.0 1.0
vtan 0.0 -1.0 0.0 1.0
vtan 0.0 -0.866 -0.5001 1.0
vtan 0.0 -0.866 -0.5 1.0
vtan 0.0 -0.5 -0.866 1.0
vtan 0.0 -0.5 -0.866 1.0
vtan 0.0 0.0 -1.0 1.0
vtan 0.0 -0.0 -1.0 1.0
vtan 0.0 0.5 -0.866 1.0
vtan 0.0 0.5 -0.866 1.0
vtan 0.0 0.866 -0.5 1.0
vtan 0.0 0.866 -0.5 1.0
vtan 0.0 1.0 0.0 1.0
vtan 0.0 1.0 0.0 1.0
vtan 0.0 0.866 0.5 1.0
vtan 0.0 0.866 0.5 1.0
vtan 0.0 0.5 0.866 1.0
vtan 0.0 0.5 0.866 1.0
vtan 0.0 0.0 1.0 1.0
vtan 0.0 -0.0 1.0 1.0
vtan 0.0 -0.5 0.866 -1.0
vtan 0.0 -0.5 0.866 -1.0
vtan 0.0 0.0 1.0 -1.0
vtan 0.0 -0.0 1.0 -1.0
vtan 0.0 -0.866 0.5 -1.0
vtan 0.0 -0.866 0.5 -1.0
vtan 0.0 -1.0 0.0 -1.0
vtan 0.0 -1.0 0.0 -1.0
vtan 0.0 -0.866 -0.5 -1.0
vtan 0.0 -0.866 -0.5001 -1.0
vtan 0.0 -0.5 -0.866 -1.0
vtan 0.0 -0.5 -0.866 -1.0
vtan 0.0 0.0 -1.0 -1.0
vtan 0.0 0.5 -0.866 -1.0
vtan 0.0 0.5 -0.866 -1.0
vtan 0.0 0.866 -0.5 -1.0
vtan 0.0 1.0 0.0 -1.0
vtan 0.0 1.0 0.0 -1.0
vtan 0.0 0.866 0.5 -1.0
vtan 0.0 0.866 0.5 -1.0
vtan 0.0 0.5 0.866 -1.0
vtan 0.0 0.5 0.866 -1.0
vtan 0.0 -0.0 1.0 -1.0
vtan 0.0 0.0 1.0 -1.0
vtan 0.0 -0.5 0.866 -1.0
vtan 0.0 -0.0 1.0 -1.0
vtan 0.0 -0.866 0.5 -1.0
vtan 0.0 -0.866 0.5 -1.0
vtan 0.0 -1.0 0.0 -1.0
vtan 0.0 -1.0 0.0 -1.0
vtan 0.0 -0.866 -0.5001 -1.0
vtan 0.0 -0.866 -0.5 -1.0
vtan 0.0 -0.5 -0.866 -1.0
vtan 0.0 -0.5 -0.866 -1.0
vtan 0.0 -0.0 -1.0 -1.0
vtan 0.0 0.5 -0.866 -1.0
vtan 0.0 0.5 -0.866 -1.0
vtan 0.0 0.866 -0.5 -1.0
vtan 0.0 0.866 -0.5 -1.0
vtan 0.0 1.0 0.0 -1.0
vtan 0.0 1.0 0.0 -1.0
vtan 0.0 0.866 0.5 -1.0
vtan 0.0 0.866 0.5 -1.0
vtan 0.0 0.5 0.866 -1.0
vtan 0.0 0.5 0.866 -1.0
vtan 0.0 -0.0 1.0 -1.0
vtan 0.0 -0.5 0.866 -1.0
vtan 0.0 -0.5 0.866 -1.0
vtan 0.0 0.0 1.0 -1.0
vtan 0.0 -0.0 1.0 -1.0
vtan 0.0 -0.866 0.5 -1.0
vtan 0.0 -0.866 0.5 -1.0
vtan 0.0 -1.0 0.0 -1.0
vtan 0.0 -1.0 0.0 -1.0
vtan 0.0 -0.866 -0.5 -1.0
vtan 0.0 -0.5 -0.866 -1.0
vtan 0.0 -0.5 -0.866 -1.0
vtan 0.0 0.0 -1.0 -1.0
vtan 0.0 0.5 -0.866 -1.0
vtan 0.0 0.5 -0.866 -1.0
vtan 0.0 0.866 -0.5 -1.0
vtan 0.0 0.866 -0.5 -1.0
vtan 0.0 1.0 0.0 -1.0
vtan 0.0 1.0 0.0 -1.0
vtan 0.0 0.866 0.5 -1.0
vtan 0.0 0.866 0.5 -1.0
vtan 0.0 0.5 0.866 -1.0
vtan 0.0 0.5 0.866 -1.0
vtan 0.0 -0.0 1.0 -1.0
vtan 0.0 0.0 1.0 -1.0
vtan 0.0 -0.5 0.866 -1.0
vtan 0.0 -0.5 0.866 -1.0
vtan 0.0 0.0 1.0 -1.0
vtan 0.0 0.0 1.0 -1.0
vtan 0.0 -0.866 0.5 -1.0
vtan 0.0 -1.0 0.0 -1.0
vtan 0.0 -0.866 -0.5 -1.0
vtan 0.0 -0.5 -0.866 -1.0
vtan 0.0 -0.5 -0.866 -1.0
vtan 0.0 0.0 -1.0 -1.0
vtan 0.0 0.5 -0.866 -1.0
vtan 0.0 0.866 -0.5 -1.0
vtan 0.0 1.0 0.0 -1.0
vtan 0.0 0.866 0.5 -1.0
vtan 0.0 0.866 0.5 -1.0
vtan 0.0 0.5 0.866 -1.0
vtan 0.0 0.5 0.866 -1.0
vtan 0.0 0.0 1.0 -1.0
f 0/0/0/0 1/1/1/1 2/2/2/2 
f 0/0/0/0 2/2/2/2 3/3/3/3 
f 1/1/1/1 4/4/4/4 5/5/5/5 
f 1/1/1/1 5/5/5/5 2/2/2/2 
f 4/4/4/4 6/6/6/6 7/7/7/7 
f 4/4/4/4 7/7/7/7 5/5/5/5 
f 6/6/6/6 8/8/8/8 9/9/9/9 
f 6/6/6/6 9/9/9/9 7/7/7/7 
f 8/8/8/8 10/10/10/10 11/11/11/11 
f 8/8/8/8 11/11/11/11 9/9/9/9 
f 10/10/10/10 12/12/12/12 13/13/13/13 
f 10/10/10/10 13/13/13/13 11/11/11/11 
f 12/12/12/12 14/14/14/14 15/15/15/15 
f 12/12/12/12 15/15/15/15 13/13/13/13 
f 14/14/14/14 16/16/16/16 17/17/17/17 
f 14/14/14/14 17/17/17/17 15/15/15/15 
f 16/16/16/16 18/18/18/18 19/19/19/19 
f 16/16/16/16 19/19/19/19 17/17/17/17 
f 18/18/18/18 20/20/20/20 21/21/21/21 
f 18/18/18/18 21/21/21/21 19/19/19/19 
f 20/20/20/20 22/22/22/22 23/23/23/23 
f 20/20/20/20 23/23/23/23 21/21/21/21 
f 22/22/22/22 0/24/0/24 3/25/3/25 
f 22/22/22/22 3/25/3/25 23/23/23/23 
f 1/2/1/26 0/3/0/27 24/0/24/28 
f 1/2/1/26 24/0/24/28 25/1/25/29 
f 25/1/25/29 26/4/26/30 4/5/4/4 
f 25/1/25/29 4/5/4/4 1/2/1/26 
f 26/4/26/30 27/6/27/31 6/7/6/32 
f 26/4/26/30 6/7/6/32 4/5/4/4 
f 27/6/27/31 28/8/28/33 8/9/8/34 
f 27/6/27/31 8/9/8/34 6/7/6/32 
f 28/8/28/33 29/10/29/35 10/11/10/36 
f 28/8/28/33 10/11/10/36 8/9/8/34 
f 29/10/29/35 30/12/30/37 12/13/12/38 
f 29/10/29/35 12/13/12/38 10/11/10/36 
f 30/12/30/37 31/14/31/39 14/15/14/14 
f 30/12/30/37 14/15/14/14 12/13/12/38 
f 31/14/31/39 32/16/32/40 16/17/16/41 
f 31/14/31/39 16/17/16/41 14/15/14/14 
f 32/16/32/40 33/18/33/42 18/19/18/43 
f 32/16/32/40 18/19/18/43 16/17/16/41 
f 33/18/33/42 34/20/34/44 20/21/20/45 
f 33/18/33/42 20/21/20/45 18/19/18/43 
f 34/20/34/44 35/22/35/46 22/23/22/47 
f 34/20/34/44 22/23/22/47 20/21/20/45 
f 0/25/0/48 22/23/22/47 35/22/35/46 
f 0/25/0/48 35/22/35/46 24/24/24/49 
f 36/0/36/50 37/1/37/51 25/2/25/29 
f 36/0/36/50 25/2/25/29 24/3/24/28 
f 37/1/37/51 38/4/38/52 26/5/26/53 
f 37/1/37/51 26/5/26/53 25/2/25/29 
f 38/4/38/52 39/6/39/54 27/7/27/31 
f 38/4/38/52 27/7/27/31 26/5/26/53 
f 39/6/39/54 40/8/40/55 28/9/28/56 
f 39/6/39/54 28/9/28/56 27/7/27/31 
f 40/8/40/55 41/10/41/57 29/11/29/58 
f 40/8/40/55 29/11/29/58 28/9/28/56 
f 41/10/41/57 42/12/42/59 30/13/30/60 
f 41/10/41/57 30/13/30/60 29/11/29/58 
f 42/12/42/59 43/14/43/61 31/15/31/62 
f 42/12/42/59 31/15/31/62 30/13/30/60 
f 43/14/43/61 44/16/44/63 32/17/32/64 
f 43/14/43/61 32/17/32/64 31/15/31/62 
f 44/16/44/63 45/18/45/65 33/19/33/66 
f 44/16/44/63 33/19/33/66 32/17/32/64 
f 45/18/45/65 46/20/46/67 34/21/34/68 
f 45/18/45/65 34/21/34/68 33/19/33/66 
f 46/20/46/67 47/22/47/69 35/23/35/70 
f 46/20/46/67 35/23/35/70 34/21/34/68 
f 47/22/47/69 36/24/36/71 24/25/24/72 
f 47/22/47/69 24/25/24/72 35/23/35/70 
f 48/26/48/73 49/27/49/74 37/2/37/75 
f 48/26/48/73 37/2/37/75 36/3/36/76 
f 49/27/49/74 50/28/50/77 38/5/38/78 
f 49/27/49/74 38/5/38/78 37/2/37/75 
f 50/28/50/77 51/29/51/79 39/7/39/80 
f 50/28/50/77 39/7/39/80 38/5/38/78 
f 51/29/51/79 52/30/52/81 40/9/40/82 
f 51/29/51/79 40/9/40/82 39/7/39/80 
f 52/30/52/81 53/31/53/83 41/11/41/84 
f 52/30/52/81 41/11/41/84 40/9/40/82 
f 53/31/53/83 54/32/54/85 42/13/42/86 
f 53/31/53/83 42/13/42/86 41/11/41/84 
f 54/32/54/85 55/33/55/87 43/15/43/88 
f 54/32/54/85 43/15/43/88 42/13/42/86 
f 55/33/55/87 56/34/56/89 44/17/44/90 
f 55/33/55/87 44/17/44/90 43/15/43/88 
f 56/34/56/89 57/35/57/91 45/19/45/92 
f 56/34/56/89 45/19/45/92 44/17/44/90 
f 57/35/57/91 58/36/58/93 46/21/46/94 
f 57/35/57/91 46/21/46/94 45/19/45/92 
f 58/36/58/93 59/37/59/95 47/23/47/96 
f 58/36/58/93 47/23/47/96 46/21/46/94 
f 59/37/59/95 48/38/48/97 36/25/36/98 
f 59/37/59/95 36/25/36/98 47/23/47/96 
f 60/2/60/99 61/1/61/100 62/0/62/101 
f 60/2/60/99 62/0/62/101 63/3/63/102 
f 64/5/64/103 65/4/65/104 61/1/61/100 
f 64/5/64/103 61/1/61/100 60/2/60/99 
f 66/7/66/105 67/6/67/106 65/4/65/104 
f 66/7/66/105 65/4/65/104 64/5/64/103 
f 68/9/68/107 69/8/69/108 67/6/67/106 
f 68/9/68/107 67/6/67/106 66/7/66/105 
f 70/11/70/109 71/10/71/110 69/8/69/108 
f 70/11/70/109 69/8/69/108 68/9/68/107 
f 72/13/72/111 73/12/73/38 71/10/71/110 
f 72/13/72/111 71/10/71/110 70/11/70/109 
f 74/15/74/112 75/14/75/113 73/12/73/38 
f 74/15/74/112 73/12/73/38 72/13/72/111 
f 76/17/76/114 77/16/77/90 75/14/75/113 
f 76/17/76/114 75/14/75/113 74/15/74/112 
f 78/19/78/115 79/18/79/116 77/16/77/90 
f 78/19/78/115 77/16/77/90 76/17/76/114 
f 80/21/80/117 81/20/81/118 79/18/79/116 
f 80/21/80/117 79/18/79/116 78/19/78/115 
f 82/23/82/119 83/22/83/120 81/20/81/118 
f 82/23/82/119 81/20/81/118 80/21/80/117 
f 63/25/63/121 62/24/62/122 83/22/83/120 
f 63/25/63/121 83/22/83/120 82/23/82/119 
f 61/2/61/100 84/1/84/123 85/0/85/124 
f 61/2/61/100 85/0/85/124 62/3/62/101 
f 65/5/65/125 86/4/86/126 84/1/84/123 
f 65/5/65/125 84/1/84/123 61/2/61/100 
f 67/7/67/127 87/6/87/128 86/4/86/126 
f 67/7/67/127 86/4/86/126 65/5/65/125 
f 69/9/69/129 88/8/88/130 87/6/87/128 
f 69/9/69/129 87/6/87/128 67/7/67/127 
f 71/11/71/131 89/10/89/132 88/8/88/130 
f 71/11/71/131 88/8/88/130 69/9/69/129 
f 73/13/73/38 90/12/90/133 89/10/89/132 
f 73/13/73/38 89/10/89/132 71/11/71/131 
f 75/15/75/134 91/14/91/135 90/12/90/133 
f 75/15/75/134 90/12/90/133 73/13/73/38 
f 77/17/77/136 92/16/92/137 91/14/91/135 
f 77/17/77/136 91/14/91/135 75/15/75/134 
f 79/19/79/138 93/18/93/139 92/16/92/137 
f 79/19/79/138 92/16/92/137 77/17/77/136 
f 81/21/81/140 94/20/94/141 93/18/93/139 
f 81/21/81/140 93/18/93/139 79/19/79/138 
f 83/23/83/142 95/22/95/143 94/20/94/141 
f 83/23/83/142 94/20/94/141 81/21/81/140 
f 62/25/62/122 85/24/85/144 95/22/95/143 
f 62/25/62/122 95/22/95/143 83/23/83/142 
f 84/2/84/145 96/1/96/146 97/0/97/147 
f 84/2/84/145 97/0/97/147 85/3/85/148 
f 86/5/86/149 98/4/98/150 96/1/96/146 
f 86/5/86/149 96/1/96/146 84/2/84/145 
f 87/7/87/151 99/6/99/152 98/4/98/150 
f 87/7/87/151 98/4/98/150 86/5/86/149 
f 88/9/88/130 100/8/100/153 99/6/99/152 
f 88/9/88/130 99/6/99/152 87/7/87/151 
f 89/11/89/154 101/10/101/155 100/8/100/153 
f 89/11/89/154 100/8/100/153 88/9/88/130 
f 90/13/90/133 102/12/102/156 101/10/101/155 
f 90/13/90/133 101/10/101/155 89/11/89/154 
f 91/15/91/157 103/14/103/158 102/12/102/156 
f 91/15/91/157 102/12/102/156 90/13/90/133 
f 92/17/92/159 104/16/104/160 103/14/103/158 
f 92/17/92/159 103/14/103/158 91/15/91/157 
f 93/19/93/161 105/18/105/162 104/16/104/160 
f 93/19/93/161 104/16/104/160 92/17/92/159 
f 94/21/94/163 106/20/106/164 105/18/105/162 
f 94/21/94/163 105/18/105/162 93/19/93/161 
f 95/23/95/165 107/22/107/166 106/20/106/164 
f 95/23/95/165 106/20/106/164 94/21/94/163 
f 85/25/85/167 97/24/97/168 107/22/107/166 
f 85/25/85/167 107/22/107/166 95/23/95/165 
f 96/2/96/169 49/27/49/170 48/26/48/171 
f 96/2/96/169 48/26/48/171 97/3/97/172 
f 98/5/98/150 50/28/50/173 49/27/49/170 
f 98/5/98/150 49/27/49/170 96/2/96/169 
f 99/7/99/174 51/29/51/79 50/28/50/173 
f 99/7/99/174 50/28/50/173 98/5/98/150 
f 100/9/100/175 52/30/52/81 51/29/51/79 
f 100/9/100/175 51/29/51/79 99/7/99/174 
f 101/11/101/176 53/31/53/177 52/30/52/81 
f 101/11/101/176 52/30/52/81 100/9/100/175 
f 102/13/102/178 54/32/54/85 53/31/53/177 
f 102/13/102/178 53/31/53/177 101/11/101/176 
f 103/15/103/179 55/33/55/87 54/32/54/85 
f 103/15/103/179 54/32/54/85 102/13/102/178 
f 104/17/104/180 56/34/56/89 55/33/55/87 
f 104/17/104/180 55/33/55/87 103/15/103/179 
f 105/19/105/181 57/35/57/91 56/34/56/89 
f 105/19/105/181 56/34/56/89 104/17/104/180 
f 106/21/106/182 58/36/58/183 57/35/57/91 
f 106/21/106/182 57/35/57/91 105/19/105/181 
f 107/23/107/184 59/37/59/185 58/36/58/183 
f 107/23/107/184 58/36/58/183 106/21/106/182 
f 97/25/97/186 48/38/48/97 59/37/59/185 
f 97/25/97/186 59/37/59/185 107/23/107/184 
