v -1086.4229 1306.2317 318.901
v -1045.4917 1314.4902 251.0364
v 935.0042 1314.4901 251.0364
v 997.5962 1306.2317 318.901
v 935.0042 1314.4901 -332.0527
v 997.5962 1306.2318 -408.1466
v -1045.4917 1314.4901 -332.0527
v -1086.4229 1306.2318 -408.1466
v -1086.4229 907.744 318.9009
v -1086.4229 907.7441 -408.1466
v 997.5961 907.744 318.9009
v 872.4121 907.7441 183.1716
v -1004.5605 907.7441 183.1716
v 997.5961 907.7441 -408.1466
v 872.4121 907.7441 -255.959
v -1004.5605 907.7441 -255.959
v -1004.5605 1303.1974 183.1717
v 872.4121 1303.1974 183.1717
v 872.4121 1303.1974 -255.9589
v -1004.5605 1303.1974 -255.9589
vt 0.8033 2.3417
vt 0.8899 2.4853
vt 5.0805 2.4853
vt 5.213 2.3417
vt 5.0805 3.7191
vt 5.213 3.8801
vt 0.8899 3.7191
vt 0.8033 3.8801
vt 0.8033 1.5384
vt 5.213 1.5384
vt 4.9481 1.2512
vt 0.9765 1.2512
vt 5.213 0.0
vt 4.9481 0.322
vt 0.8033 0.0
vt 0.9765 0.322
vt 0.9765 2.6289
vt 4.9481 2.6289
vt 4.9481 3.5581
vt 0.9765 3.5581
vt 0.0 2.3417
vt 0.0 3.8801
vt 6.0163 3.8801
vt 6.0163 2.3417
vt 0.8033 4.6834
vt 5.213 4.6834
vn -0.0 -0.9927 -0.1208
vn 0.0 -0.9927 -0.1208
vn -0.1308 -0.9914 0.0
vn -0.1308 -0.9914 -0.0
vn 0.0 -0.9942 0.1079
vn 0.0 -0.9942 0.1079
vn 0.1978 -0.9802 -0.0
vn 0.1978 -0.9802 0.0
vn 0.0 1.0 -0.0
vn 0.0 1.0 0.0
vn 0.0 1.0 0.0
vn 0.0 1.0 0.0
vn 0.0 1.0 0.0
vn 0.0 1.0 0.0
vn -0.0 1.0 0.0
vn -0.0 1.0 0.0
vn 0.0 -0.9864 0.1641
vn -0.0 -0.9864 0.1641
vn 0.1776 -0.9841 0.0
vn 0.1776 -0.9841 0.0
vn 0.0 -0.9892 -0.1468
vn 0.0 -0.9892 -0.1468
vn -0.266 -0.964 0.0
vn -0.266 -0.964 0.0
vn 0.5872 -0.5506 0.5933
vn 0.5886 -0.5484 -0.594
vn 0.5773 0.5775 -0.5773
vn 0.5773 0.5775 0.5773
vn -0.5888 -0.5528 -0.5896
vn -0.5773 0.5775 -0.5773
vn -0.5773 0.5775 0.5773
vn -0.5876 -0.5544 0.5894
vtan 1.0 -0.0 -0.0 -1.0
vtan 1.0 -0.0 -0.0 -1.0
vtan 1.0 0.0 0.0 -1.0
vtan 1.0 0.0 0.0 -1.0
vtan 0.9914 -0.1308 -0.0 -1.0
vtan 0.9914 -0.1308 -0.0 -1.0
vtan 0.9914 -0.1308 -0.0 -1.0
vtan 0.9914 -0.1308 -0.0001 -1.0
vtan 0.9914 -0.1308 -0.0001 -1.0
vtan 0.9914 -0.1308 -0.0001 -1.0
vtan 0.9802 0.1978 0.0001 -1.0
vtan 0.9802 0.1978 0.0001 -1.0
vtan 0.9802 0.1978 0.0 -1.0
vtan 0.9802 0.1978 0.0 -1.0
vtan 0.9802 0.1978 0.0 -1.0
vtan 1.0 -0.0 -0.0001 -1.0
vtan 1.0 -0.0 -0.0001 -1.0
vtan 1.0 -0.0 0.0 -1.0
vtan 1.0 -0.0 0.0 -1.0
vtan 1.0 0.0 -0.0 -1.0
vtan 1.0 0.0 -0.0 -1.0
vtan 1.0 0.0 0.0001 -1.0
vtan 1.0 -0.0 0.0 -1.0
vtan 1.0 -0.0 0.0 -1.0
vtan 1.0 -0.0 0.0 -1.0
vtan 0.9841 0.1776 0.0 -1.0
vtan 0.9841 0.1776 0.0 -1.0
vtan 0.9841 0.1776 0.0 -1.0
vtan 0.9841 0.1776 -0.0001 -1.0
vtan 0.9841 0.1776 -0.0001 -1.0
vtan 0.964 -0.266 -0.0 -1.0
vtan 0.964 -0.266 -0.0 -1.0
vtan 0.964 -0.266 0.0001 -1.0
vtan 0.964 -0.266 0.0001 -1.0
vtan 0.964 -0.266 0.0001 -1.0
vtan 0.3874 0.8348 0.3913 -1.0
vtan 0.386 0.8362 -0.3895 -1.0
vtan -0.4084 0.8164 0.4084 -1.0
vtan -0.4083 0.8164 -0.4084 -1.0
vtan 0.8084 0.3992 0.4325 -1.0
vtan 0.8083 -0.4028 -0.4295 -1.0
vtan 0.8166 0.4083 -0.4081 -1.0
vtan 0.8166 -0.4083 0.4081 -1.0
vtan -0.4084 -0.8164 0.4084 -1.0
vtan -0.4083 -0.8164 -0.4084 -1.0
vtan 0.3907 -0.8333 0.3912 -1.0
vtan 0.3914 -0.8323 -0.3926 -1.0
vtan 0.8166 -0.4083 -0.4081 -1.0
vtan 0.8165 0.4083 0.4081 -1.0
vtan 0.8091 -0.4026 0.428 -1.0
vtan 0.8094 0.3995 -0.4304 -1.0
f 0/0/0/0 1/1/0/1 2/2/0/1 
f 0/0/1/2 2/2/1/2 3/3/1/3 
f 3/3/2/4 2/2/2/5 4/4/2/6 
f 3/3/3/7 4/4/3/8 5/5/3/9 
f 4/4/4/2 6/6/4/2 7/7/4/2 
f 4/4/5/2 7/7/5/2 5/5/5/3 
f 0/0/6/10 7/7/6/11 6/6/6/10 
f 0/0/7/12 6/6/7/13 1/1/7/14 
f 8/8/8/2 10/9/8/2 11/10/8/2 
f 8/8/9/2 11/10/9/2 12/11/9/2 
f 10/9/10/15 13/12/10/15 14/13/10/16 
f 10/9/11/17 14/13/11/18 11/10/11/17 
f 9/14/12/2 15/15/12/2 14/13/12/2 
f 9/14/13/2 14/13/13/2 13/12/13/2 
f 8/8/14/19 12/11/14/20 15/15/14/20 
f 8/8/15/21 15/15/15/21 9/14/15/21 
f 1/1/16/2 16/16/16/2 17/17/16/3 
f 1/1/17/22 17/17/17/23 2/2/17/24 
f 2/2/18/25 17/17/18/26 18/18/18/27 
f 2/2/19/28 18/18/19/29 4/4/19/29 
f 18/18/20/2 19/19/20/2 6/6/20/2 
f 18/18/21/2 6/6/21/2 4/4/21/2 
f 19/19/22/30 16/16/22/30 1/1/22/31 
f 19/19/23/32 1/1/23/33 6/6/23/34 
f 7/7/24/35 0/0/25/36 8/20/26/37 
f 7/7/24/35 8/20/26/37 9/21/27/38 
f 0/0/25/39 3/3/28/40 10/9/29/41 
f 0/0/25/39 10/9/29/41 8/8/26/42 
f 13/22/30/43 10/23/29/44 3/3/28/45 
f 13/22/30/43 3/3/28/45 5/5/31/46 
f 9/24/27/47 13/25/30/48 5/5/31/49 
f 9/24/27/47 5/5/31/49 7/7/24/50 
