v -825.286 516.433 -299.6265
v -825.286 516.433 -259.7971
v -825.0305 517.4016 -260.0526
v -825.0305 517.4016 -299.3711
v -824.8915 516.433 -300.0211
v -824.636 517.4016 -299.7656
v -830.0674 510.6351 -305.1981
v -830.4619 510.6351 -304.8036
v -828.7847 511.8853 -303.1259
v -828.3901 511.8853 -303.5205
v -825.5925 515.7084 -299.9331
v -825.198 515.7084 -300.3277
v -825.7382 514.8398 -300.8679
v -826.1327 514.8398 -300.4734
v -827.3901 512.804 -302.5203
v -827.7847 512.804 -302.1258
v -826.9983 513.6799 -301.3393
v -826.6038 513.6799 -301.7338
v -827.7847 512.804 -257.2978
v -826.9983 513.6799 -258.0844
v -825.5925 515.7084 -259.4905
v -824.8915 516.433 -259.4025
v -824.636 517.4016 -259.658
v -828.7847 511.8852 -256.2977
v -830.4619 510.635 -254.62
v -830.0674 510.635 -254.2255
v -828.3901 511.8852 -255.9031
v -825.7382 514.8398 -258.5557
v -825.1979 515.7084 -259.096
v -826.1327 514.8398 -258.9502
v -827.3901 512.804 -256.9033
v -826.6038 513.6799 -257.6898
v -779.8944 510.635 -254.2255
v -781.5717 511.8852 -255.9032
v -784.2236 514.8398 -258.5557
v -784.7639 515.7084 -259.096
v -783.358 513.6799 -257.6898
v -782.5717 512.804 -256.9033
v -785.0703 516.433 -259.4025
v -784.6758 516.433 -259.7971
v -784.9313 517.4016 -260.0526
v -785.3258 517.4016 -259.6581
v -779.4999 510.635 -254.62
v -781.1771 511.8852 -256.2977
v -784.3694 515.7084 -259.4905
v -783.8291 514.8398 -258.9502
v -782.1771 512.804 -257.2978
v -782.9635 513.6799 -258.0844
v -830.0674 509.8056 -305.1981
v -830.4619 509.8056 -304.8036
v -830.4619 509.8055 -254.62
v -830.0674 509.8055 -254.2255
v -779.8944 509.8055 -254.2255
v -779.4999 509.8055 -254.62
v -832.0255 509.8056 -307.1875
v -832.4509 509.8056 -306.7622
v -832.4509 509.8055 -252.6615
v -832.0255 509.8055 -252.2361
v -777.9363 509.8055 -252.2362
v -777.5109 509.8055 -252.6615
v -832.0255 506.6333 -307.1875
v -832.4509 506.6333 -306.7622
v -832.4509 506.6332 -252.6615
v -832.0255 506.6332 -252.2361
v -777.9363 506.6332 -252.2362
v -777.5109 506.6332 -252.6615
v -784.6758 516.433 -299.6265
v -784.9313 517.4016 -299.3711
v -782.1771 512.804 -302.1258
v -782.9635 513.6799 -301.3393
v -784.3694 515.7084 -299.9331
v -785.0703 516.433 -300.0211
v -785.3258 517.4016 -299.7656
v -781.1771 511.8853 -303.126
v -779.4999 510.6351 -304.8036
v -779.8944 510.6351 -305.1982
v -781.5717 511.8853 -303.5205
v -784.2236 514.8398 -300.868
v -784.7639 515.7084 -300.3277
v -783.8291 514.8398 -300.4734
v -782.5717 512.804 -302.5204
v -783.358 513.6799 -301.7338
v -779.4999 509.8056 -304.8036
v -779.8944 509.8056 -305.1982
v -777.5109 509.8056 -306.7622
v -777.9363 509.8056 -307.1875
v -777.5109 506.6333 -306.7622
v -777.9363 506.6333 -307.1875
vt 0.2788 0.949
vt 0.2788 0.7224
vt 0.2734 0.7237
vt 0.2733 0.9476
vt 0.2778 0.9519
vt 0.2712 0.9499
vt 0.3144 0.9807
vt 0.3147 0.9785
vt 0.3052 0.9689
vt 0.3029 0.9712
vt 0.2829 0.9508
vt 0.2816 0.9534
vt 0.286 0.9566
vt 0.2879 0.9539
vt 0.2972 0.9656
vt 0.2995 0.9633
vt 0.2945 0.9588
vt 0.2922 0.9615
vt 0.2995 0.7081
vt 0.2945 0.7126
vt 0.2829 0.7206
vt 0.2755 0.7168
vt 0.2725 0.7161
vt 0.2711 0.7216
vt 0.2947 0.692
vt 0.3045 0.6818
vt 0.302 0.6802
vt 0.2924 0.6897
vt 0.2773 0.707
vt 0.2743 0.7119
vt 0.2768 0.7135
vt 0.2801 0.7089
vt 0.285 0.7026
vt 0.2891 0.6976
vt 0.2867 0.6954
vt 0.2823 0.7004
vt 0.0164 0.6802
vt 0.026 0.6897
vt 0.0411 0.707
vt 0.0441 0.7119
vt 0.0361 0.7004
vt 0.0317 0.6953
vt 0.0459 0.7161
vt 0.044 0.7173
vt 0.0451 0.7238
vt 0.0473 0.7216
vt 0.014 0.6812
vt 0.0237 0.692
vt 0.0416 0.7135
vt 0.0383 0.7089
vt 0.0293 0.6976
vt 0.0334 0.7026
vt 0.3147 0.6929
vt 0.3052 0.7024
vt 0.2879 0.7175
vt 0.3184 0.9812
vt 0.3194 0.9785
vt 0.3194 0.6929
vt 0.302 0.6754
vt 0.0164 0.6754
vt 0.3048 0.6767
vt 0.0138 0.6766
vt 0.3283 0.9921
vt 0.3307 0.9896
vt 0.3307 0.6817
vt 0.3131 0.6641
vt 0.0053 0.6641
vt 0.316 0.6653
vt 0.0029 0.6653
vt 0.3307 0.9921
vt 0.3488 0.9921
vt 0.3488 0.9896
vt 0.3488 0.6817
vt 0.3131 0.6461
vt 0.0053 0.6461
vt 0.3155 0.6461
vt 0.0029 0.6461
vt 0.0451 0.9476
vt 0.0473 0.9498
vn -0.8484 0.4106 -0.3342
vn -0.8484 0.4106 0.3342
vn -0.6219 0.7482 0.231
vn -0.6219 0.7482 -0.231
vn -0.3343 0.4107 -0.8483
vn -0.2311 0.7482 -0.6219
vn -0.3551 0.4594 -0.8141
vn -0.8141 0.4594 -0.3551
vn -0.5035 0.8445 -0.1825
vn -0.1824 0.8445 -0.5035
vn -0.7704 0.5642 -0.2968
vn -0.2969 0.5643 -0.7704
vn -0.2649 0.6653 -0.6979
vn -0.698 0.6653 -0.2649
vn -0.2114 0.7904 -0.575
vn -0.575 0.7904 -0.2115
vn -0.6399 0.7303 -0.2391
vn -0.239 0.7303 -0.6399
vn -0.575 0.7904 0.2115
vn -0.64 0.7303 0.239
vn -0.7703 0.5643 0.2969
vn -0.3343 0.4106 0.8483
vn -0.2311 0.7482 0.6219
vn -0.5035 0.8445 0.1825
vn -0.8141 0.4594 0.3551
vn -0.3551 0.4594 0.8142
vn -0.1824 0.8445 0.5035
vn -0.2649 0.6654 0.6979
vn -0.2967 0.5643 0.7704
vn -0.698 0.6653 0.2649
vn -0.2114 0.7904 0.575
vn -0.2391 0.7303 0.6399
vn 0.355 0.4594 0.8142
vn 0.1824 0.8445 0.5035
vn 0.2649 0.6654 0.6979
vn 0.2968 0.5643 0.7704
vn 0.2391 0.7304 0.6398
vn 0.2114 0.7904 0.575
vn 0.3343 0.4106 0.8483
vn 0.8484 0.4106 0.3342
vn 0.6219 0.7482 0.2311
vn 0.231 0.7483 0.6219
vn 0.8141 0.4594 0.3551
vn 0.5035 0.8445 0.1825
vn 0.7703 0.5643 0.2969
vn 0.698 0.6653 0.2649
vn 0.575 0.7904 0.2114
vn 0.6399 0.7303 0.239
vn -0.2275 0.8042 -0.5492
vn -0.5491 0.8042 -0.2275
vn -0.5491 0.8042 0.2275
vn -0.2275 0.8042 0.5492
vn 0.2275 0.8042 0.5491
vn 0.5491 0.8042 0.2275
vn -0.297 0.6303 -0.7173
vn -0.7173 0.6303 -0.2972
vn -0.7173 0.6303 0.2971
vn -0.2971 0.6303 0.7173
vn 0.2971 0.6303 0.7173
vn 0.7173 0.6303 0.2971
vn -0.3826 0.0 -0.9239
vn -0.9239 0.0 -0.3827
vn -0.9239 0.0 0.3827
vn -0.3827 0.0 0.9239
vn 0.3827 0.0 0.9239
vn 0.9239 0.0 0.3827
vn 0.8484 0.4106 -0.3342
vn 0.6219 0.7482 -0.2311
vn 0.575 0.7904 -0.2114
vn 0.6399 0.7303 -0.239
vn 0.7704 0.5642 -0.2968
vn 0.3343 0.4106 -0.8483
vn 0.2311 0.7482 -0.6219
vn 0.5035 0.8445 -0.1825
vn 0.8142 0.4594 -0.355
vn 0.3551 0.4594 -0.8141
vn 0.1824 0.8445 -0.5035
vn 0.265 0.6653 -0.6979
vn 0.2968 0.5643 -0.7704
vn 0.6981 0.6653 -0.2648
vn 0.2114 0.7904 -0.575
vn 0.239 0.7304 -0.6399
vn 0.5492 0.8042 -0.2274
vn 0.2275 0.8042 -0.5491
vn 0.7173 0.6303 -0.2972
vn 0.2971 0.6303 -0.7173
vn 0.9239 0.0 -0.3827
vn 0.3826 0.0 -0.9239
vtan -0.4241 -0.9049 -0.0351 -1.0
vtan -0.4234 -0.9052 0.0371 -1.0
vtan -0.783 -0.5904 -0.1957 -1.0
vtan -0.7698 -0.6383 0.005 -1.0
vtan -0.5587 -0.8112 -0.1725 -1.0
vtan -0.9425 -0.3307 -0.0477 -1.0
vtan -0.6816 -0.7233 -0.1109 -1.0
vtan -0.4997 -0.8658 0.0255 -1.0
vtan -0.8583 -0.5132 -0.0066 -1.0
vtan -0.9601 -0.2634 -0.0939 -1.0
vtan -0.5869 -0.8095 -0.0155 -1.0
vtan -0.7466 -0.6401 -0.1811 -1.0
vtan -0.833 -0.5225 -0.1819 -1.0
vtan -0.6823 -0.7302 -0.0359 -1.0
vtan -0.9333 -0.3379 -0.1213 -1.0
vtan -0.8075 -0.5898 -0.0091 -1.0
vtan -0.7447 -0.6661 -0.0413 -1.0
vtan -0.869 -0.4549 -0.1947 -1.0
vtan -0.8048 -0.5929 0.028 -1.0
vtan -0.7462 -0.6649 0.0336 -1.0
vtan -0.5828 -0.812 0.0313 -1.0
vtan -0.5014 -0.4205 -0.7562 -1.0
vtan -0.9423 -0.1287 -0.3091 -1.0
vtan -0.9729 -0.1761 -0.1496 -1.0
vtan -0.8609 -0.5083 -0.023 -1.0
vtan -0.5771 -0.5724 -0.5825 -1.0
vtan -0.9331 -0.2267 -0.279 -1.0
vtan -0.9777 -0.2102 -0.0017 -1.0
vtan -0.9603 -0.2476 -0.1285 -1.0
vtan -0.9536 -0.2186 -0.2072 -1.0
vtan -0.636 -0.6467 -0.4211 -1.0
vtan -0.716 -0.6422 -0.2738 -1.0
vtan -0.7666 -0.6283 -0.1329 -1.0
vtan -0.8152 -0.5753 -0.0664 -1.0
vtan -0.9707 -0.2384 -0.0291 -1.0
vtan -0.9635 -0.26 -0.0633 -1.0
vtan -0.9347 0.1587 0.318 -1.0
vtan -0.9775 0.2109 0.0004 -1.0
vtan -0.9603 0.2476 0.1285 -1.0
vtan -0.9533 0.2219 0.2048 -1.0
vtan -0.9638 0.2583 0.0652 -1.0
vtan -0.9694 0.2445 0.0203 -1.0
vtan -0.9413 0.1908 0.2786 -1.0
vtan -0.5181 0.514 0.6837 -1.0
vtan -0.7748 0.5452 0.32 -1.0
vtan -0.9729 0.1832 0.141 -1.0
vtan -0.5572 0.4462 0.7003 -1.0
vtan -0.8618 0.5059 0.0367 -1.0
vtan -0.6342 0.6298 0.4486 -1.0
vtan -0.716 0.6422 0.2738 -1.0
vtan -0.8134 0.5801 0.0439 -1.0
vtan -0.7666 0.6279 0.1341 -1.0
vtan -0.4676 -0.8813 0.0683 -1.0
vtan -0.8561 -0.5161 0.0264 -1.0
vtan -0.6816 -0.7307 0.039 -1.0
vtan -0.8215 -0.4613 -0.3352 -1.0
vtan -0.8163 -0.5744 -0.0602 -1.0
vtan -0.8251 -0.565 0.0055 -1.0
vtan -0.9655 -0.113 -0.2344 -1.0
vtan -0.9642 0.1071 0.2425 -1.0
vtan -0.7662 -0.3757 -0.5213 -1.0
vtan -0.7565 0.3626 0.5443 -1.0
vtan -0.9546 -0.2128 0.2083 -1.0
vtan -0.6553 -0.7551 -0.02 -1.0
vtan -0.6378 -0.7656 0.0842 -1.0
vtan -0.947 -0.0983 -0.3058 -1.0
vtan -0.9451 0.0868 0.3151 -1.0
vtan -0.6322 -0.4094 -0.6578 -1.0
vtan -0.6331 0.4115 0.6556 -1.0
vtan -0.2411 -0.7764 -0.5823 -1.0
vtan 0.0 -1.0 0.0 -1.0
vtan 0.0 -1.0 0.0 -1.0
vtan -0.9237 -0.0197 -0.3826 -1.0
vtan -0.9239 0.0 0.3827 -1.0
vtan -0.3827 0.0 -0.9239 -1.0
vtan -0.3824 0.0373 0.9232 -1.0
vtan 0.4257 -0.9044 0.0304 -1.0
vtan 0.4234 -0.9052 -0.0371 -1.0
vtan 0.7261 -0.6615 -0.1875 -1.0
vtan 0.7317 -0.6604 0.1689 -1.0
vtan 0.8033 -0.5944 0.037 -1.0
vtan 0.8047 -0.593 -0.028 -1.0
vtan 0.7462 -0.6648 -0.0336 -1.0
vtan 0.7462 -0.6648 0.0335 -1.0
vtan 0.5828 -0.812 0.0313 -1.0
vtan 0.5827 -0.8121 -0.0313 -1.0
vtan 0.7279 -0.4437 0.5228 -1.0
vtan 0.5014 -0.4205 0.7562 -1.0
vtan 0.9423 -0.1287 0.3091 -1.0
vtan 0.9729 -0.1817 0.1428 -1.0
vtan 0.8609 -0.5083 0.0229 -1.0
vtan 0.577 -0.5724 0.5826 -1.0
vtan 0.9331 -0.2266 0.2791 -1.0
vtan 0.9777 -0.2102 0.0017 -1.0
vtan 0.9603 -0.2476 0.1286 -1.0
vtan 0.9535 -0.2187 0.2073 -1.0
vtan 0.6359 -0.6467 0.4212 -1.0
vtan 0.7159 -0.6422 0.2739 -1.0
vtan 0.7666 -0.6283 0.1327 -1.0
vtan 0.8152 -0.5753 0.0665 -1.0
vtan 0.9707 -0.2384 0.0292 -1.0
vtan 0.9635 -0.26 0.0632 -1.0
vtan 0.9348 0.1745 -0.3092 -1.0
vtan 0.9832 0.1566 -0.0936 -1.0
vtan 0.9643 0.1828 -0.1918 -1.0
vtan 0.9549 0.1754 -0.2395 -1.0
vtan 0.971 0.1795 -0.1578 -1.0
vtan 0.9774 0.1706 -0.1248 -1.0
vtan 0.9425 0.1457 -0.3009 -1.0
vtan 0.9729 0.1777 -0.1477 -1.0
vtan 0.4686 -0.881 0.0656 -1.0
vtan 0.4676 -0.8813 -0.0683 -1.0
vtan 0.8561 -0.5161 -0.0264 -1.0
vtan 0.8564 -0.5158 0.0242 -1.0
vtan 0.6816 -0.7307 0.0391 -1.0
vtan 0.6816 -0.7307 -0.039 -1.0
vtan 0.8242 -0.5662 0.0121 -1.0
vtan 0.8251 -0.565 -0.0056 -1.0
vtan 0.9655 -0.113 0.2345 -1.0
vtan 0.9738 0.1878 -0.1283 -1.0
vtan 0.7661 -0.3757 0.5214 -1.0
vtan 0.6369 -0.766 0.0872 -1.0
vtan 0.6378 -0.7656 -0.0842 -1.0
vtan 0.947 -0.0983 0.3058 -1.0
vtan 0.9549 0.1961 -0.2231 -1.0
vtan 0.6323 -0.4094 0.6577 -1.0
vtan 0.9237 -0.0197 0.3826 -1.0
vtan 0.9239 0.0 -0.3826 -1.0
vtan 0.3827 0.0 0.9239 -1.0
vtan -0.7828 0.5868 -0.207 -1.0
vtan -0.9729 0.1747 -0.1513 -1.0
f 0/0/0/0 1/1/1/1 2/2/2/2 
f 0/0/0/0 2/2/2/2 3/3/3/3 
f 4/4/4/4 0/0/0/0 3/3/3/3 
f 4/4/4/4 3/3/3/3 5/5/5/5 
f 6/6/6/6 7/7/7/7 8/8/8/8 
f 6/6/6/6 8/8/8/8 9/9/9/9 
f 10/10/10/10 11/11/11/11 12/12/12/12 
f 10/10/10/10 12/12/12/12 13/13/13/13 
f 14/14/14/14 15/15/15/15 16/16/16/16 
f 14/14/14/14 16/16/16/16 17/17/17/17 
f 9/9/9/9 8/8/8/8 15/15/15/15 
f 9/9/9/9 15/15/15/15 14/14/14/14 
f 13/13/13/13 12/12/12/12 17/17/17/17 
f 13/13/13/13 17/17/17/17 16/16/16/16 
f 0/0/0/0 4/4/4/4 11/11/11/11 
f 0/0/0/0 11/11/11/11 10/10/10/10 
f 15/15/15/15 18/18/18/18 19/19/19/19 
f 15/15/15/15 19/19/19/19 16/16/16/16 
f 1/1/1/1 0/0/0/0 10/10/10/10 
f 1/1/1/1 10/10/10/10 20/20/20/20 
f 2/2/2/2 1/21/1/21 21/22/21/22 
f 2/2/2/2 21/22/21/22 22/23/22/23 
f 23/24/23/24 24/25/24/25 25/26/25/26 
f 23/24/23/24 25/26/25/26 26/27/26/27 
f 27/28/27/28 28/29/28/29 20/30/20/30 
f 27/28/27/28 20/30/20/30 29/31/29/31 
f 19/32/19/32 18/33/18/33 30/34/30/34 
f 19/32/19/32 30/34/30/34 31/35/31/35 
f 18/33/18/33 23/24/23/24 26/27/26/27 
f 18/33/18/33 26/27/26/27 30/34/30/34 
f 31/35/31/35 27/28/27/28 29/31/29/31 
f 31/35/31/35 29/31/29/31 19/32/19/32 
f 28/29/28/29 21/22/21/22 1/21/1/21 
f 28/29/28/29 1/21/1/21 20/30/20/30 
f 26/27/26/27 25/26/25/26 32/36/32/36 
f 26/27/26/27 32/36/32/36 33/37/33/37 
f 28/29/28/29 27/28/27/28 34/38/34/38 
f 28/29/28/29 34/38/34/38 35/39/35/39 
f 36/40/36/40 31/35/31/35 30/34/30/34 
f 36/40/36/40 30/34/30/34 37/41/37/41 
f 27/28/27/28 31/35/31/35 36/40/36/40 
f 27/28/27/28 36/40/36/40 34/38/34/38 
f 30/34/30/34 26/27/26/27 33/37/33/37 
f 30/34/30/34 33/37/33/37 37/41/37/41 
f 21/22/21/22 28/29/28/29 35/39/35/39 
f 21/22/21/22 35/39/35/39 38/42/38/42 
f 38/42/38/42 39/43/39/43 40/44/40/44 
f 38/42/38/42 40/44/40/44 41/45/41/45 
f 32/36/32/36 42/46/42/46 43/47/43/47 
f 32/36/32/36 43/47/43/47 33/37/33/37 
f 44/48/44/48 35/39/35/39 34/38/34/38 
f 44/48/44/48 34/38/34/38 45/49/45/49 
f 37/41/37/41 46/50/46/50 47/51/47/51 
f 37/41/37/41 47/51/47/51 36/40/36/40 
f 33/37/33/37 43/47/43/47 46/50/46/50 
f 33/37/33/37 46/50/46/50 37/41/37/41 
f 45/49/45/49 34/38/34/38 36/40/36/40 
f 45/49/45/49 36/40/36/40 47/51/47/51 
f 39/43/39/43 38/42/38/42 35/39/35/39 
f 39/43/39/43 35/39/35/39 44/48/44/48 
f 41/45/41/45 22/23/22/23 21/22/21/22 
f 41/45/41/45 21/22/21/22 38/42/38/42 
f 7/7/7/7 24/52/24/52 23/53/23/53 
f 7/7/7/7 23/53/23/53 8/8/8/8 
f 13/13/13/13 29/54/29/54 20/20/20/20 
f 13/13/13/13 20/20/20/20 10/10/10/10 
f 16/16/16/16 19/19/19/19 29/54/29/54 
f 16/16/16/16 29/54/29/54 13/13/13/13 
f 8/8/8/8 23/53/23/53 18/18/18/18 
f 8/8/8/8 18/18/18/18 15/15/15/15 
f 48/55/48/55 49/56/49/56 7/7/7/7 
f 48/55/48/55 7/7/7/7 6/6/6/6 
f 7/7/7/7 49/56/49/56 50/57/50/57 
f 7/7/7/7 50/57/50/57 24/52/24/52 
f 51/58/51/58 52/59/52/59 32/36/32/36 
f 51/58/51/58 32/36/32/36 25/26/25/26 
f 50/60/50/60 51/58/51/58 25/26/25/26 
f 50/60/50/60 25/26/25/26 24/25/24/25 
f 52/59/52/59 53/61/53/61 42/46/42/46 
f 52/59/52/59 42/46/42/46 32/36/32/36 
f 54/62/54/62 55/63/55/63 49/56/49/56 
f 54/62/54/62 49/56/49/56 48/55/48/55 
f 55/63/55/63 56/64/56/64 50/57/50/57 
f 55/63/55/63 50/57/50/57 49/56/49/56 
f 57/65/57/65 58/66/58/66 52/59/52/59 
f 57/65/57/65 52/59/52/59 51/58/51/58 
f 56/67/56/67 57/65/57/65 51/58/51/58 
f 56/67/56/67 51/58/51/58 50/60/50/60 
f 58/66/58/66 59/68/59/68 53/61/53/61 
f 58/66/58/66 53/61/53/61 52/59/52/59 
f 54/69/54/69 60/70/60/70 61/71/61/71 
f 54/69/54/69 61/71/61/71 55/63/55/63 
f 55/63/55/63 61/71/61/71 62/72/62/71 
f 55/63/55/63 62/72/62/71 56/64/56/64 
f 57/65/57/65 63/73/63/72 64/74/64/73 
f 57/65/57/65 64/74/64/73 58/66/58/66 
f 56/67/56/67 62/75/62/74 63/73/63/72 
f 56/67/56/67 63/73/63/72 57/65/57/65 
f 58/66/58/66 64/74/64/73 65/76/65/75 
f 58/66/58/66 65/76/65/75 59/68/59/68 
f 39/0/39/76 66/1/66/77 67/2/67/78 
f 39/0/39/76 67/2/67/78 40/3/40/79 
f 46/15/46/80 68/18/68/81 69/19/69/82 
f 46/15/46/80 69/19/69/82 47/16/47/83 
f 44/10/44/84 70/20/70/85 66/1/66/77 
f 44/10/44/84 66/1/66/77 39/0/39/76 
f 67/2/67/86 66/21/66/87 71/22/71/88 
f 67/2/67/86 71/22/71/88 72/23/72/89 
f 73/24/73/90 74/25/74/91 75/26/75/92 
f 73/24/73/90 75/26/75/92 76/27/76/93 
f 77/28/77/94 78/29/78/95 70/30/70/96 
f 77/28/77/94 70/30/70/96 79/31/79/97 
f 69/32/69/98 68/33/68/99 80/34/80/100 
f 69/32/69/98 80/34/80/100 81/35/81/101 
f 68/33/68/99 73/24/73/90 76/27/76/93 
f 68/33/68/99 76/27/76/93 80/34/80/100 
f 81/35/81/101 77/28/77/94 79/31/79/97 
f 81/35/81/101 79/31/79/97 69/32/69/98 
f 78/29/78/95 71/22/71/88 66/21/66/87 
f 78/29/78/95 66/21/66/87 70/30/70/96 
f 76/27/76/93 75/26/75/92 6/36/6/102 
f 76/27/76/93 6/36/6/102 9/37/9/103 
f 78/29/78/95 77/28/77/94 12/38/12/104 
f 78/29/78/95 12/38/12/104 11/39/11/105 
f 17/40/17/106 81/35/81/101 80/34/80/100 
f 17/40/17/106 80/34/80/100 14/41/14/107 
f 77/28/77/94 81/35/81/101 17/40/17/106 
f 77/28/77/94 17/40/17/106 12/38/12/104 
f 80/34/80/100 76/27/76/93 9/37/9/103 
f 80/34/80/100 9/37/9/103 14/41/14/107 
f 71/22/71/88 78/29/78/95 11/39/11/105 
f 71/22/71/88 11/39/11/105 4/42/4/108 
f 5/45/5/109 72/23/72/89 71/22/71/88 
f 5/45/5/109 71/22/71/88 4/42/4/108 
f 42/7/42/110 74/52/74/111 73/53/73/112 
f 42/7/42/110 73/53/73/112 43/8/43/113 
f 45/13/45/114 79/54/79/115 70/20/70/85 
f 45/13/45/114 70/20/70/85 44/10/44/84 
f 47/16/47/83 69/19/69/82 79/54/79/115 
f 47/16/47/83 79/54/79/115 45/13/45/114 
f 43/8/43/113 73/53/73/112 68/18/68/81 
f 43/8/43/113 68/18/68/81 46/15/46/80 
f 42/7/42/110 53/56/53/116 82/57/82/117 
f 42/7/42/110 82/57/82/117 74/52/74/111 
f 83/58/83/118 48/59/48/119 6/36/6/102 
f 83/58/83/118 6/36/6/102 75/26/75/92 
f 82/60/82/120 83/58/83/118 75/26/75/92 
f 82/60/82/120 75/26/75/92 74/25/74/91 
f 59/63/59/121 84/64/84/122 82/57/82/117 
f 59/63/59/121 82/57/82/117 53/56/53/116 
f 85/65/85/123 54/66/54/124 48/59/48/119 
f 85/65/85/123 48/59/48/119 83/58/83/118 
f 84/67/84/125 85/65/85/123 83/58/83/118 
f 84/67/84/125 83/58/83/118 82/60/82/120 
f 59/63/59/121 65/71/65/70 86/72/86/71 
f 59/63/59/121 86/72/86/71 84/64/84/122 
f 85/65/85/123 87/73/87/126 60/74/60/127 
f 85/65/85/123 60/74/60/127 54/66/54/124 
f 84/67/84/125 86/75/86/128 87/73/87/126 
f 84/67/84/125 87/73/87/126 85/65/85/123 
f 40/44/40/44 67/77/67/129 72/78/72/130 
f 40/44/40/44 72/78/72/130 41/45/41/45 
f 72/78/72/130 5/5/5/5 3/3/3/3 
f 72/78/72/130 3/3/3/3 41/45/41/45 
f 3/3/3/3 2/2/2/2 22/23/22/23 
f 3/3/3/3 22/23/22/23 41/45/41/45 
