v -1427.3459 419.9638 -636.9755
v -1427.1633 419.9636 570.7463
v -1427.1633 415.4613 570.7463
v -1427.3459 415.4615 -636.9755
v 1297.6368 419.9636 570.7468
v 1297.6366 419.9637 42.2644
v 1297.6366 415.4614 42.4481
v 1297.6368 415.4613 570.7468
v -1431.717 424.4658 575.3
v -1431.8987 424.466 -641.53
v 1302.1904 424.4659 42.0485
v 1302.1906 424.4658 575.3005
v -1431.8987 419.9638 -641.53
v -1431.8987 415.4615 -641.53
v -1431.717 415.4613 575.3
v -1431.717 419.9636 575.3
v 1302.1904 419.9637 -110.0689
v 1302.1906 415.4614 -110.069
v 1302.1906 415.4615 -641.6024
v 1302.1906 419.9638 -641.6024
v 1302.1906 415.4613 575.3005
v 1302.1906 419.9636 575.3005
v 1302.1906 424.466 -641.6024
v 1302.1904 424.4659 -110.0689
v 1302.1907 415.4614 42.4159
v 1297.636 415.4615 -637.0493
v 1297.636 419.9638 -637.0493
v 1297.6365 415.4614 -110.1483
v 1297.6365 419.9637 -110.1483
v 1302.1904 419.9637 42.2322
vt 18.4629 1.0961
vt 22.1504 1.0961
vt 22.1504 1.1206
vt 18.4629 1.1206
vt 6.479 1.0961
vt 8.0867 1.0961
vt 8.0861 1.1206
vt 6.479 1.1206
vt -1.8204 1.0961
vt -1.8204 1.1206
vt 18.4491 1.0471
vt 18.4491 1.0226
vt 22.1643 1.0226
vt 22.1643 1.0471
vt 8.5512 1.0471
vt 8.5512 1.0226
vt 10.1775 1.0226
vt 10.1775 1.0471
vt 11.0295 1.0471
vt 11.0295 1.0226
vt 18.4768 1.0226
vt 18.4768 1.0471
vt -1.8343 1.0471
vt -1.8343 1.0226
vt 6.4929 1.0226
vt 6.4929 1.0471
vt 22.1643 1.0716
vt 18.4491 1.0716
vt 10.1775 1.0716
vt 8.5512 1.0716
vt 18.4768 1.0716
vt 11.0295 1.0716
vt 6.4929 1.0716
vt -1.8343 1.0716
vt 11.0432 1.0961
vt 11.0432 1.1206
vt 10.1636 1.0961
vt 10.1636 1.1206
vt 8.5515 1.1206
vt 8.5515 1.0961
vt 6.4651 1.0471
vt 6.4651 1.0226
vt 8.0862 1.0226
vt 8.0868 1.0471
vt 6.4651 1.0716
vt 8.0873 1.0716
vt 22.1643 1.1257
vt 18.4491 1.1257
vt 8.0862 1.1257
vt 6.4651 1.1257
vt 6.4929 1.1257
vt -1.8343 1.1257
vt 11.0419 1.1029
vt 11.0295 1.0784
vt 18.4768 1.1262
vt 11.0308 1.1229
vt 11.0432 1.1178
vt 10.1775 1.1257
vt 8.5512 1.1257
vn 1.0 0.0 -0.0002
vn 1.0 0.0 -0.0002
vn -1.0 -0.0 0.0
vn -1.0 0.0 0.0
vn 0.0 0.0 -1.0
vn 0.0 0.0 -1.0
vn -1.0 0.0 0.0001
vn -1.0 0.0 0.0001
vn 1.0 0.0001 0.0
vn 1.0 0.0 0.0
vn -0.0 0.0 -1.0
vn -0.0 0.0 -1.0
vn -0.0 0.0 1.0
vn -0.0 0.0 1.0
vn -1.0 0.0 0.0001
vn 1.0 0.0 0.0
vn -0.0 0.0 -1.0
vn -0.0 0.0 -1.0
vn -0.0 0.0 1.0
vn -0.0 0.0 1.0
vn 0.0 0.0 1.0
vn -1.0 0.0 0.0
vn -1.0 0.0 0.0
vn 1.0 0.0 0.0
vn 1.0 0.0001 -0.0
vn 1.0 0.0 -0.0
vn 1.0 -0.0 -0.0
vn 0.577 0.578 0.577
vn -0.4845 0.7285 -0.4843
vn -0.4843 0.7285 0.4845
vn 0.5771 0.5779 -0.577
vn 0.3799 0.925 -0.0
vn -0.9188 0.3947 -0.0
vn -0.577 0.578 -0.5771
vn 0.4845 0.7285 0.4844
vn 0.3014 -0.9045 -0.3016
vn -0.5773 -0.5774 0.5774
vn -0.5774 -0.5773 -0.5774
vn 0.3016 -0.9046 0.3014
vn -0.3016 -0.9046 -0.3014
vn -0.7147 -0.6994 -0.0
vn 0.7179 -0.6962 -0.0
vn 0.5773 -0.5773 0.5774
vn -0.5771 0.578 0.577
vn 0.4843 0.7285 -0.4845
vn 0.5774 -0.5773 -0.5773
vn -0.3014 -0.9045 0.3016
vn 0.3938 0.9192 0.0
vn -0.922 0.3871 -0.0
vn 0.7112 -0.7029 -0.0
vn -0.7034 -0.7108 0.0
vtan 0.0002 -0.0 1.0 1.0
vtan 0.0002 -0.0 1.0 1.0
vtan 0.0002 -0.0 1.0 1.0
vtan 0.0002 -0.0 1.0 1.0
vtan 0.0002 -0.0 1.0 1.0
vtan -0.0 0.0 -1.0 1.0
vtan -0.0 0.0 -1.0 1.0
vtan -0.0 0.0 -1.0 1.0
vtan -0.0 0.0 -1.0 1.0
vtan -0.0 0.0 -1.0 1.0
vtan 1.0 0.0 0.0 1.0
vtan 1.0 0.0 0.0 1.0
vtan 1.0 0.0 0.0 1.0
vtan 1.0 0.0 0.0 1.0
vtan 1.0 0.0 0.0 1.0
vtan 0.0001 -0.0 1.0 1.0
vtan 0.0001 -0.0 1.0 1.0
vtan 0.0001 -0.0 1.0 1.0
vtan 0.0001 -0.0 1.0 1.0
vtan 0.0001 -0.0 1.0 1.0
vtan -0.0 0.0 -1.0 1.0
vtan -0.0 0.0 -1.0 1.0
vtan 0.0 0.0 -1.0 1.0
vtan 0.0 0.0 -1.0 1.0
vtan -1.0 0.0 0.0 1.0
vtan -1.0 0.0 0.0 1.0
vtan -1.0 0.0 0.0 1.0
vtan 1.0 0.0 0.0 1.0
vtan 1.0 0.0 0.0 1.0
vtan 1.0 0.0 0.0 1.0
vtan 0.0001 -0.0 1.0 1.0
vtan 0.0001 -0.0 1.0 1.0
vtan 0.0001 -0.0 1.0 1.0
vtan 0.0001 -0.0 1.0 1.0
vtan 0.0 0.0 -1.0 1.0
vtan 0.0 0.0 -1.0 1.0
vtan 0.0 0.0 -1.0 1.0
vtan 0.0 0.0 -1.0 1.0
vtan -1.0 0.0 0.0 1.0
vtan -1.0 0.0 0.0 1.0
vtan -1.0 0.0 0.0 1.0
vtan -1.0 0.0 0.0 1.0
vtan -1.0 0.0 0.0 1.0
vtan 1.0 0.0 0.0 1.0
vtan 1.0 0.0 0.0 1.0
vtan 1.0 0.0 0.0 1.0
vtan -1.0 0.0 0.0 1.0
vtan -1.0 0.0 0.0 1.0
vtan -0.0 0.0 -1.0 1.0
vtan -0.0 0.0 -1.0 1.0
vtan -0.0 0.0 -1.0 1.0
vtan -0.0 0.0 -1.0 1.0
vtan 0.0 0.0 -1.0 1.0
vtan 0.0 0.0 -1.0 1.0
vtan -0.0 0.0 -1.0 1.0
vtan -0.0 0.0 -1.0 1.0
vtan -0.0 0.0 -1.0 1.0
vtan -0.0 0.0 -1.0 1.0
vtan -0.0 0.0 -1.0 1.0
vtan -0.0 0.0 -1.0 1.0
vtan -0.0 0.0 -1.0 1.0
vtan -0.4076 -0.4084 0.8167 1.0
vtan -0.2681 0.4033 0.8749 1.0
vtan 0.2683 -0.4034 0.8748 1.0
vtan 0.4078 0.4082 0.8167 1.0
vtan -0.0 -0.0 -1.0 1.0
vtan 0.0 -0.0 -1.0 1.0
vtan 0.4077 -0.4084 -0.8167 1.0
vtan 0.2682 0.4033 -0.8749 1.0
vtan 0.8748 -0.4034 -0.2682 1.0
vtan 0.8168 0.4083 -0.4077 1.0
vtan 0.8167 -0.4084 0.4078 1.0
vtan 0.8749 0.4033 0.2682 1.0
vtan 0.0955 -0.2861 0.9534 1.0
vtan 0.4083 0.4082 0.8165 1.0
vtan -0.4082 -0.4083 0.8165 1.0
vtan -0.0952 0.2859 0.9535 1.0
vtan 0.0953 0.2859 -0.9535 1.0
vtan 0.0 0.0 -1.0 1.0
vtan -0.0 0.0 -1.0 1.0
vtan 0.4083 -0.4083 -0.8165 1.0
vtan 0.9534 -0.2861 -0.0953 1.0
vtan 0.8165 0.4082 -0.4083 1.0
vtan 0.8165 -0.4082 0.4082 1.0
vtan 0.9535 0.2859 0.0953 1.0
vtan -0.8167 0.4078 0.4083 1.0
vtan -0.8167 -0.409 -0.4071 1.0
vtan -0.8749 0.4034 -0.2681 1.0
vtan -0.8748 -0.4034 0.2684 1.0
vtan -0.8165 0.4077 0.4088 1.0
vtan -0.8165 -0.409 -0.4076 1.0
vtan -0.9535 0.2863 -0.0943 1.0
vtan -0.9534 -0.2858 0.0961 1.0
vtan 0.0 0.0 -1.0 1.0
vtan -0.2682 -0.4034 -0.8748 1.0
vtan -0.4077 0.4083 -0.8168 1.0
vtan 0.0 -0.0 -1.0 1.0
vtan -0.0953 -0.2861 -0.9534 1.0
vtan -0.4082 0.4082 -0.8165 1.0
vtan -0.0 0.0 -1.0 1.0
vtan -0.0 -0.0 -1.0 1.0
f 0/0/0/0 1/1/0/1 2/2/0/0 
f 0/0/1/2 2/2/1/3 3/3/1/4 
f 4/4/2/5 5/5/2/6 6/6/2/6 
f 4/4/3/7 6/6/3/8 7/7/3/9 
f 1/8/4/10 4/4/4/11 7/7/4/12 
f 1/8/5/13 7/7/5/14 2/9/5/14 
f 12/10/6/15 13/11/6/16 14/12/6/15 
f 12/10/7/17 14/12/7/18 15/13/7/19 
f 16/14/8/20 17/15/8/21 18/16/8/21 
f 16/14/9/22 18/16/9/23 19/17/9/22 
f 19/18/10/24 18/19/10/24 13/20/10/24 
f 19/18/11/25 13/20/11/25 12/21/11/26 
f 15/22/12/27 14/23/12/28 20/24/12/27 
f 15/22/13/29 20/24/13/29 21/25/13/29 
f 8/26/14/30 9/27/14/31 12/10/14/32 
f 8/26/14/30 12/10/14/32 15/13/14/33 
f 22/28/15/34 23/29/15/35 16/14/15/36 
f 22/28/15/34 16/14/15/36 19/17/15/37 
f 9/30/16/38 22/31/16/39 19/18/16/40 
f 9/30/17/41 19/18/17/42 12/21/17/42 
f 11/32/18/43 8/33/18/43 15/22/18/43 
f 11/32/19/44 15/22/19/44 21/25/19/45 
f 26/34/20/46 0/0/20/47 3/3/20/46 
f 26/34/20/46 3/3/20/46 25/35/20/47 
f 26/36/21/48 25/37/21/48 27/38/21/49 
f 26/36/22/50 27/38/22/51 28/39/22/51 
f 21/40/23/52 20/41/23/52 24/42/23/53 
f 21/40/24/54 24/42/24/55 29/43/24/56 
f 11/44/25/57 21/40/25/58 29/43/25/58 
f 11/44/26/59 29/43/26/59 10/45/26/60 
f 0/0/27/61 9/27/28/62 8/26/29/63 
f 0/0/27/61 8/26/29/63 1/1/30/64 
f 10/45/31/65 5/5/32/66 4/4/33/67 
f 10/45/31/65 4/4/33/67 11/44/34/68 
f 11/32/34/69 4/4/33/70 1/8/30/71 
f 11/32/34/69 1/8/30/71 8/33/29/72 
f 2/2/35/73 14/46/36/74 13/47/37/75 
f 2/2/35/73 13/47/37/75 3/3/38/76 
f 7/7/39/77 6/6/40/78 24/48/41/79 
f 7/7/39/77 24/48/41/79 20/49/42/80 
f 7/7/39/81 20/50/42/82 14/51/36/83 
f 7/7/39/81 14/51/36/83 2/9/35/84 
f 0/0/27/85 26/52/43/86 22/53/44/87 
f 0/0/27/85 22/53/44/87 9/30/28/88 
f 13/54/37/89 18/55/45/90 25/56/46/91 
f 13/54/37/89 25/56/46/91 3/3/38/92 
f 23/29/47/93 22/28/44/94 26/36/43/95 
f 23/29/47/93 26/36/43/95 28/39/48/96 
f 25/37/46/97 18/57/45/98 17/58/49/99 
f 25/37/46/97 17/58/49/99 27/38/50/100 
