v 422.2353 279.8812 -279.1519
v 422.2353 280.1829 -280.278
v 462.3999 280.1829 -280.278
v 462.3999 279.8812 -279.1519
v 422.2353 281.0074 -281.1023
v 462.3999 281.0074 -281.1023
v 422.2353 282.1335 -281.4041
v 462.3999 282.1335 -281.4041
v 422.2353 283.2597 -281.1023
v 462.3999 283.2597 -281.1023
v 422.2353 284.0839 -280.278
v 462.3999 284.0839 -280.278
v 422.2353 284.3857 -279.1518
v 462.3999 284.3857 -279.1518
v 422.2353 284.0839 -278.0257
v 462.3999 284.0839 -278.0257
v 422.2353 283.2596 -277.2013
v 462.3999 283.2596 -277.2013
v 422.2353 282.1334 -276.8996
v 462.3999 282.1334 -276.8996
v 422.2353 281.0073 -277.2013
v 462.3999 281.0073 -277.2013
v 422.2353 280.1829 -278.0258
v 462.3999 280.1829 -278.0258
v 382.0707 279.8812 -279.1519
v 382.0707 280.1829 -280.278
v 382.0707 281.0074 -281.1023
v 382.0707 282.1335 -281.4041
v 382.0707 283.2597 -281.1023
v 382.0707 284.0839 -280.278
v 382.0707 284.3857 -279.1518
v 382.0707 284.0839 -278.0257
v 382.0707 283.2596 -277.2013
v 382.0707 282.1334 -276.8996
v 382.0707 281.0073 -277.2013
v 382.0707 280.1829 -278.0258
v 341.9061 279.8812 -279.1519
v 341.9061 280.1829 -280.278
v 341.9061 281.0074 -281.1023
v 341.9061 282.1335 -281.4041
v 341.9061 283.2597 -281.1023
v 341.9061 284.0839 -280.278
v 341.9061 284.3857 -279.1518
v 341.9061 284.0839 -278.0257
v 341.9061 283.2596 -277.2013
v 341.9061 282.1334 -276.8996
v 341.9061 281.0073 -277.2013
v 341.9061 280.1829 -278.0258
v 307.4613 279.8812 -279.1519
v 307.4613 280.1829 -280.278
v 307.4613 281.0074 -281.1023
v 307.4613 282.1335 -281.4041
v 307.4613 283.2597 -281.1023
v 307.4613 284.0839 -280.278
v 307.4613 284.3857 -279.1518
v 307.4613 284.0839 -278.0257
v 307.4613 283.2596 -277.2013
v 307.4613 282.1334 -276.8996
v 307.4613 281.0073 -277.2013
v 307.4613 280.1829 -278.0258
v 152.5228 280.1829 -280.278
v 192.6874 280.1829 -280.278
v 192.6874 279.8812 -279.1519
v 152.5228 279.8812 -279.1519
v 152.5228 281.0074 -281.1023
v 192.6874 281.0074 -281.1023
v 152.5228 282.1335 -281.4041
v 192.6874 282.1335 -281.4041
v 152.5228 283.2597 -281.1023
v 192.6874 283.2597 -281.1023
v 152.5228 284.0839 -280.278
v 192.6874 284.0839 -280.278
v 152.5228 284.3857 -279.1518
v 192.6874 284.3857 -279.1518
v 152.5228 284.0839 -278.0257
v 192.6874 284.0839 -278.0257
v 152.5228 283.2596 -277.2013
v 192.6874 283.2596 -277.2013
v 152.5228 282.1334 -276.8996
v 192.6874 282.1334 -276.8996
v 152.5228 281.0073 -277.2013
v 192.6874 281.0073 -277.2013
v 152.5228 280.1829 -278.0258
v 192.6874 280.1829 -278.0258
v 232.8519 280.1829 -280.278
v 232.8519 279.8812 -279.1519
v 232.8519 281.0074 -281.1023
v 232.8519 282.1335 -281.4041
v 232.8519 283.2597 -281.1023
v 232.8519 284.0839 -280.278
v 232.8519 284.3857 -279.1518
v 232.8519 284.0839 -278.0257
v 232.8519 283.2596 -277.2013
v 232.8519 282.1334 -276.8996
v 232.8519 281.0073 -277.2013
v 232.8519 280.1829 -278.0258
v 273.0165 280.1829 -280.278
v 273.0166 279.8812 -279.1519
v 273.0165 281.0074 -281.1023
v 273.0165 282.1335 -281.4041
v 273.0165 283.2597 -281.1023
v 273.0165 284.0839 -280.278
v 273.0165 284.3857 -279.1518
v 273.0165 284.0839 -278.0257
v 273.0165 283.2596 -277.2013
v 273.0165 282.1334 -276.8996
v 273.0165 281.0073 -277.2013
v 273.0165 280.1829 -278.0258
vt 0.9876 0.5241
vt 0.9633 0.5241
vt 0.9633 0.0053
vt 0.9876 0.0053
vt 0.9391 0.5241
vt 0.9391 0.0053
vt 0.9148 0.5241
vt 0.9148 0.0053
vt 0.8906 0.5241
vt 0.8906 0.0053
vt 0.8663 0.5241
vt 0.8663 0.0053
vt 0.8421 0.5241
vt 0.8421 0.0053
vt 0.8178 0.5241
vt 0.8178 0.0053
vt 0.7936 0.5241
vt 0.7936 0.0053
vt 0.7694 0.5241
vt 0.7694 0.0053
vt 0.7451 0.5241
vt 0.7451 0.0053
vt 0.7209 0.5241
vt 0.7209 0.0053
vt 0.6966 0.5241
vt 0.6966 0.0053
vt 0.9876 0.4502
vt 0.9633 0.4502
vt 0.9391 0.4502
vt 0.9148 0.4502
vt 0.8906 0.4502
vt 0.8663 0.4502
vt 0.8421 0.4502
vt 0.8178 0.4502
vt 0.7936 0.4502
vt 0.7694 0.4502
vt 0.7451 0.4502
vt 0.7209 0.4502
vt 0.6966 0.4502
vn 0.0 -1.0 0.0
vn 0.0 -0.866 -0.5
vn 0.0 -0.866 -0.5
vn 0.0 -1.0 -0.0
vn 0.0 -0.5 -0.866
vn 0.0 -0.5 -0.866
vn 0.0 -0.0 -1.0
vn 0.0 -0.0 -1.0
vn 0.0 0.5001 -0.866
vn 0.0 0.5 -0.866
vn 0.0 0.866 -0.5
vn 0.0 0.866 -0.5
vn 0.0 1.0 0.0
vn 0.0 1.0 0.0
vn 0.0 0.866 0.5
vn 0.0 0.866 0.5
vn 0.0 0.5 0.866
vn 0.0 0.5 0.866
vn 0.0 -0.0 1.0
vn 0.0 -0.0 1.0
vn 0.0 -0.5 0.866
vn 0.0 -0.5 0.866
vn 0.0 -0.866 0.5
vn 0.0 -0.866 0.5
vn 0.0 -1.0 -0.0
vn 0.0 -0.866 -0.5
vn 0.0 -0.5 -0.866
vn 0.0 -0.0 -1.0
vn 0.0 0.5 -0.866
vn 0.0 0.866 -0.5
vn 0.0 1.0 -0.0
vn 0.0 0.866 0.5
vn 0.0 0.5 0.866
vn 0.0 -0.0 1.0
vn 0.0 -0.5 0.866
vn 0.0 -0.866 0.5
vn 0.0 -1.0 0.0
vn 0.0 -0.866 -0.5
vn 0.0 -0.5 -0.866
vn 0.0 -0.0 -1.0
vn 0.0 0.5 -0.866
vn 0.0 0.866 -0.5
vn 0.0 1.0 0.0
vn 0.0 0.866 0.5
vn 0.0 0.5 0.866
vn 0.0 -0.0 1.0
vn 0.0 -0.5 0.866
vn 0.0 -0.866 0.5
vn 0.0 -1.0 0.0
vn 0.0 -0.866 -0.5
vn 0.0 -0.5 -0.866
vn 0.0 -0.0 -1.0
vn 0.0 0.5001 -0.866
vn 0.0 0.866 -0.5
vn 0.0 1.0 0.0
vn 0.0 0.866 0.5
vn 0.0 0.5 0.866
vn 0.0 -0.0 1.0
vn 0.0 -0.5 0.866
vn 0.0 -0.866 0.5
vn 0.0 -0.866 -0.5
vn 0.0 -0.866 -0.5
vn 0.0 -1.0 0.0
vn 0.0 -1.0 0.0
vn 0.0 -0.5 -0.866
vn 0.0 -0.5 -0.866
vn 0.0 -0.0 -1.0
vn 0.0 -0.0 -1.0
vn 0.0 0.5 -0.866
vn 0.0 0.5 -0.866
vn 0.0 0.866 -0.5
vn 0.0 0.866 -0.5
vn 0.0 1.0 -0.0
vn 0.0 1.0 0.0
vn 0.0 0.866 0.5
vn 0.0 0.866 0.5
vn 0.0 0.5 0.866
vn 0.0 0.5 0.866
vn 0.0 -0.0 1.0
vn 0.0 -0.0 1.0
vn 0.0 -0.5 0.866
vn 0.0 -0.5 0.866
vn 0.0 -0.866 0.5
vn 0.0 -0.866 0.5
vn 0.0 -0.866 -0.5
vn 0.0 -1.0 0.0
vn 0.0 -0.5 -0.866
vn 0.0 -0.0 -1.0
vn 0.0 0.866 -0.5
vn 0.0 1.0 0.0
vn 0.0 0.866 0.5
vn 0.0 0.5 0.866
vn 0.0 -0.0 1.0
vn 0.0 -0.5 0.866
vn 0.0 -0.866 0.5
vn 0.0 -0.866 -0.5
vn 0.0 -1.0 0.0
vn 0.0 -0.5 -0.866
vn 0.0 -0.0 -1.0
vn 0.0 0.866 -0.5
vn 0.0 1.0 0.0
vn 0.0 0.866 0.5
vn 0.0 -0.0 1.0
vn 0.0 -0.5 0.866
vn 0.0 -0.866 0.5
vtan 0.0 0.0 1.0 1.0
vtan 0.0 -0.5 0.866 1.0
vtan 0.0 -0.5 0.866 1.0
vtan 0.0 -0.0 1.0 1.0
vtan 0.0 -0.866 0.5 1.0
vtan 0.0 -0.866 0.5 1.0
vtan 0.0 -1.0 0.0 1.0
vtan 0.0 -1.0 0.0 1.0
vtan 0.0 -0.866 -0.5001 1.0
vtan 0.0 -0.866 -0.5 1.0
vtan 0.0 -0.5 -0.866 1.0
vtan 0.0 -0.5 -0.866 1.0
vtan 0.0 0.0 -1.0 1.0
vtan 0.0 0.0 -1.0 1.0
vtan 0.0 0.5 -0.866 1.0
vtan 0.0 0.5 -0.866 1.0
vtan 0.0 0.866 -0.5 1.0
vtan 0.0 0.866 -0.5 1.0
vtan 0.0 1.0 0.0 1.0
vtan 0.0 1.0 0.0 1.0
vtan 0.0 0.866 0.5 1.0
vtan 0.0 0.866 0.5 1.0
vtan 0.0 0.5 0.866 1.0
vtan 0.0 0.5 0.866 1.0
vtan 0.0 0.0 1.0 1.0
vtan 0.0 -0.0 1.0 1.0
vtan 0.0 -0.5 0.866 1.0
vtan 0.0 -0.0 1.0 1.0
vtan 0.0 -0.5 0.866 1.0
vtan 0.0 -0.866 0.5 1.0
vtan 0.0 -0.866 0.5 1.0
vtan 0.0 -1.0 0.0 1.0
vtan 0.0 -1.0 0.0 1.0
vtan 0.0 -0.866 -0.5 1.0
vtan 0.0 -0.866 -0.5001 1.0
vtan 0.0 -0.5 -0.866 1.0
vtan 0.0 -0.5 -0.866 1.0
vtan 0.0 -0.0 -1.0 1.0
vtan 0.0 0.5 -0.866 1.0
vtan 0.0 0.5 -0.866 1.0
vtan 0.0 0.866 -0.5 1.0
vtan 0.0 0.866 -0.5 1.0
vtan 0.0 1.0 0.0 1.0
vtan 0.0 0.866 0.5 1.0
vtan 0.0 0.866 0.5 1.0
vtan 0.0 0.5 0.866 1.0
vtan 0.0 0.5 0.866 1.0
vtan 0.0 0.0 1.0 1.0
vtan 0.0 -0.0 1.0 1.0
vtan 0.0 0.0 1.0 1.0
vtan 0.0 -0.5 0.866 1.0
vtan 0.0 -0.5 0.866 1.0
vtan 0.0 -0.0 1.0 1.0
vtan 0.0 -0.866 0.5 1.0
vtan 0.0 -0.866 0.5 1.0
vtan 0.0 -1.0 0.0 1.0
vtan 0.0 -1.0 0.0 1.0
vtan 0.0 -0.866 -0.5 1.0
vtan 0.0 -0.866 -0.5 1.0
vtan 0.0 -0.5 -0.866 1.0
vtan 0.0 -0.5 -0.866 1.0
vtan 0.0 0.0 -1.0 1.0
vtan 0.0 0.5 -0.866 1.0
vtan 0.0 0.5 -0.866 1.0
vtan 0.0 0.866 -0.5 1.0
vtan 0.0 0.866 -0.5 1.0
vtan 0.0 1.0 0.0 1.0
vtan 0.0 1.0 0.0 1.0
vtan 0.0 0.866 0.5 1.0
vtan 0.0 0.5 0.866 1.0
vtan 0.0 0.5 0.866 1.0
vtan 0.0 0.0 1.0 1.0
vtan 0.0 -0.0 1.0 1.0
vtan 0.0 0.0 1.0 1.0
vtan 0.0 -0.5 0.866 1.0
vtan 0.0 -0.5 0.866 1.0
vtan 0.0 0.0 1.0 1.0
vtan 0.0 -0.866 0.5 1.0
vtan 0.0 -1.0 0.0 1.0
vtan 0.0 -1.0 0.0 1.0
vtan 0.0 -0.866 -0.5001 1.0
vtan 0.0 -0.866 -0.5 1.0
vtan 0.0 -0.5 -0.866 1.0
vtan 0.0 -0.5 -0.866 1.0
vtan 0.0 0.0 -1.0 1.0
vtan 0.0 0.0 -1.0 1.0
vtan 0.0 0.5 -0.866 1.0
vtan 0.0 0.5 -0.866 1.0
vtan 0.0 0.866 -0.5 1.0
vtan 0.0 0.866 -0.5 1.0
vtan 0.0 1.0 0.0 1.0
vtan 0.0 1.0 0.0 1.0
vtan 0.0 0.866 0.5 1.0
vtan 0.0 0.866 0.5 1.0
vtan 0.0 0.5 0.866 1.0
vtan 0.0 0.5 0.866 1.0
vtan 0.0 0.0 1.0 1.0
vtan 0.0 0.0 1.0 1.0
vtan 0.0 -0.5 0.866 -1.0
vtan 0.0 -0.5 0.866 -1.0
vtan 0.0 0.0 1.0 -1.0
vtan 0.0 0.0 1.0 -1.0
vtan 0.0 -0.866 0.5 -1.0
vtan 0.0 -0.866 0.5 -1.0
vtan 0.0 -1.0 0.0 -1.0
vtan 0.0 -1.0 0.0 -1.0
vtan 0.0 -0.866 -0.5 -1.0
vtan 0.0 -0.866 -0.5 -1.0
vtan 0.0 -0.5 -0.866 -1.0
vtan 0.0 -0.5 -0.866 -1.0
vtan 0.0 -0.0 -1.0 -1.0
vtan 0.0 0.0 -1.0 -1.0
vtan 0.0 0.5 -0.866 -1.0
vtan 0.0 0.5 -0.866 -1.0
vtan 0.0 0.866 -0.5 -1.0
vtan 0.0 0.866 -0.5 -1.0
vtan 0.0 1.0 0.0 -1.0
vtan 0.0 1.0 0.0 -1.0
vtan 0.0 0.866 0.5 -1.0
vtan 0.0 0.866 0.5 -1.0
vtan 0.0 0.5 0.866 -1.0
vtan 0.0 0.5 0.866 -1.0
vtan 0.0 0.0 1.0 -1.0
vtan 0.0 0.0 1.0 -1.0
vtan 0.0 -0.5 0.866 -1.0
vtan 0.0 -0.5 0.866 -1.0
vtan 0.0 0.0 1.0 -1.0
vtan 0.0 -0.866 0.5 -1.0
vtan 0.0 -0.866 0.5 -1.0
vtan 0.0 -0.866 -0.5 -1.0
vtan 0.0 -0.5 -0.866 -1.0
vtan 0.0 -0.5 -0.866 -1.0
vtan 0.0 0.0 -1.0 -1.0
vtan 0.0 0.0 -1.0 -1.0
vtan 0.0 0.5 -0.866 -1.0
vtan 0.0 0.5 -0.866 -1.0
vtan 0.0 0.866 -0.5 -1.0
vtan 0.0 0.866 -0.5 -1.0
vtan 0.0 1.0 0.0 -1.0
vtan 0.0 1.0 0.0 -1.0
vtan 0.0 0.866 0.5 -1.0
vtan 0.0 0.866 0.5 -1.0
vtan 0.0 0.5 0.866 -1.0
vtan 0.0 0.5 0.866 -1.0
vtan 0.0 0.0 1.0 -1.0
vtan 0.0 -0.5 0.866 -1.0
vtan 0.0 -0.5 0.866 -1.0
vtan 0.0001 0.0 1.0 -1.0
vtan 0.0 -0.866 0.5 -1.0
vtan 0.0 -0.866 0.5 -1.0
vtan 0.0 -0.866 -0.5 -1.0
vtan 0.0 -0.5 -0.866 -1.0
vtan 0.0 -0.5 -0.866 -1.0
vtan 0.0 0.5 -0.866 -1.0
vtan 0.0 0.5 -0.866 -1.0
vtan 0.0 0.866 -0.5 -1.0
vtan 0.0 1.0 0.0 -1.0
vtan 0.0 0.866 0.5 -1.0
vtan 0.0 0.866 0.5 -1.0
vtan 0.0 0.5 0.866 -1.0
vtan -0.0 0.5 0.866 -1.0
vtan -0.0 0.0 1.0 -1.0
vtan -0.0001 0.0 1.0 -1.0
vtan 0.0 -0.5 0.866 -1.0
vtan 0.0 0.0 1.0 -1.0
vtan 0.0001 0.0 1.0 -1.0
vtan 0.0 -0.866 0.5 -1.0
vtan 0.0 0.5 -0.866 -1.0
vtan -0.0 0.5 0.866 -1.0
vtan -0.0 0.5 0.866 -1.0
vtan -0.0001 0.0 1.0 -1.0
f 0/0/0/0 1/1/1/1 2/2/2/2 
f 0/0/0/0 2/2/2/2 3/3/3/3 
f 1/1/1/1 4/4/4/4 5/5/5/5 
f 1/1/1/1 5/5/5/5 2/2/2/2 
f 4/4/4/4 6/6/6/6 7/7/7/7 
f 4/4/4/4 7/7/7/7 5/5/5/5 
f 6/6/6/6 8/8/8/8 9/9/9/9 
f 6/6/6/6 9/9/9/9 7/7/7/7 
f 8/8/8/8 10/10/10/10 11/11/11/11 
f 8/8/8/8 11/11/11/11 9/9/9/9 
f 10/10/10/10 12/12/12/12 13/13/13/13 
f 10/10/10/10 13/13/13/13 11/11/11/11 
f 12/12/12/12 14/14/14/14 15/15/15/15 
f 12/12/12/12 15/15/15/15 13/13/13/13 
f 14/14/14/14 16/16/16/16 17/17/17/17 
f 14/14/14/14 17/17/17/17 15/15/15/15 
f 16/16/16/16 18/18/18/18 19/19/19/19 
f 16/16/16/16 19/19/19/19 17/17/17/17 
f 18/18/18/18 20/20/20/20 21/21/21/21 
f 18/18/18/18 21/21/21/21 19/19/19/19 
f 20/20/20/20 22/22/22/22 23/23/23/23 
f 20/20/20/20 23/23/23/23 21/21/21/21 
f 22/22/22/22 0/24/0/24 3/25/3/25 
f 22/22/22/22 3/25/3/25 23/23/23/23 
f 1/2/1/26 0/3/0/0 24/0/24/27 
f 1/2/1/26 24/0/24/27 25/1/25/28 
f 25/1/25/28 26/4/26/29 4/5/4/30 
f 25/1/25/28 4/5/4/30 1/2/1/26 
f 26/4/26/29 27/6/27/31 6/7/6/32 
f 26/4/26/29 6/7/6/32 4/5/4/30 
f 27/6/27/31 28/8/28/33 8/9/8/34 
f 27/6/27/31 8/9/8/34 6/7/6/32 
f 28/8/28/33 29/10/29/35 10/11/10/36 
f 28/8/28/33 10/11/10/36 8/9/8/34 
f 29/10/29/35 30/12/30/37 12/13/12/12 
f 29/10/29/35 12/13/12/12 10/11/10/36 
f 30/12/30/37 31/14/31/38 14/15/14/39 
f 30/12/30/37 14/15/14/39 12/13/12/12 
f 31/14/31/38 32/16/32/40 16/17/16/41 
f 31/14/31/38 16/17/16/41 14/15/14/39 
f 32/16/32/40 33/18/33/42 18/19/18/18 
f 32/16/32/40 18/19/18/18 16/17/16/41 
f 33/18/33/42 34/20/34/43 20/21/20/44 
f 33/18/33/42 20/21/20/44 18/19/18/18 
f 34/20/34/43 35/22/35/45 22/23/22/46 
f 34/20/34/43 22/23/22/46 20/21/20/44 
f 0/25/0/47 22/23/22/46 35/22/35/45 
f 0/25/0/47 35/22/35/45 24/24/24/48 
f 36/0/36/49 37/1/37/50 25/2/25/51 
f 36/0/36/49 25/2/25/51 24/3/24/52 
f 37/1/37/50 38/4/38/53 26/5/26/54 
f 37/1/37/50 26/5/26/54 25/2/25/51 
f 38/4/38/53 39/6/39/55 27/7/27/56 
f 38/4/38/53 27/7/27/56 26/5/26/54 
f 39/6/39/55 40/8/40/57 28/9/28/58 
f 39/6/39/55 28/9/28/58 27/7/27/56 
f 40/8/40/57 41/10/41/59 29/11/29/60 
f 40/8/40/57 29/11/29/60 28/9/28/58 
f 41/10/41/59 42/12/42/61 30/13/30/37 
f 41/10/41/59 30/13/30/37 29/11/29/60 
f 42/12/42/61 43/14/43/62 31/15/31/63 
f 42/12/42/61 31/15/31/63 30/13/30/37 
f 43/14/43/62 44/16/44/64 32/17/32/65 
f 43/14/43/62 32/17/32/65 31/15/31/63 
f 44/16/44/64 45/18/45/66 33/19/33/67 
f 44/16/44/64 33/19/33/67 32/17/32/65 
f 45/18/45/66 46/20/46/68 34/21/34/43 
f 45/18/45/66 34/21/34/43 33/19/33/67 
f 46/20/46/68 47/22/47/69 35/23/35/70 
f 46/20/46/68 35/23/35/70 34/21/34/43 
f 47/22/47/69 36/24/36/71 24/25/24/72 
f 47/22/47/69 24/25/24/72 35/23/35/70 
f 48/26/48/73 49/27/49/74 37/2/37/75 
f 48/26/48/73 37/2/37/75 36/3/36/76 
f 49/27/49/74 50/28/50/77 38/5/38/53 
f 49/27/49/74 38/5/38/53 37/2/37/75 
f 50/28/50/77 51/29/51/78 39/7/39/79 
f 50/28/50/77 39/7/39/79 38/5/38/53 
f 51/29/51/78 52/30/52/80 40/9/40/81 
f 51/29/51/78 40/9/40/81 39/7/39/79 
f 52/30/52/80 53/31/53/82 41/11/41/83 
f 52/30/52/80 41/11/41/83 40/9/40/81 
f 53/31/53/82 54/32/54/84 42/13/42/85 
f 53/31/53/82 42/13/42/85 41/11/41/83 
f 54/32/54/84 55/33/55/86 43/15/43/87 
f 54/32/54/84 43/15/43/87 42/13/42/85 
f 55/33/55/86 56/34/56/88 44/17/44/89 
f 55/33/55/86 44/17/44/89 43/15/43/87 
f 56/34/56/88 57/35/57/90 45/19/45/91 
f 56/34/56/88 45/19/45/91 44/17/44/89 
f 57/35/57/90 58/36/58/92 46/21/46/93 
f 57/35/57/90 46/21/46/93 45/19/45/91 
f 58/36/58/92 59/37/59/94 47/23/47/95 
f 58/36/58/92 47/23/47/95 46/21/46/93 
f 59/37/59/94 48/38/48/96 36/25/36/97 
f 59/37/59/94 36/25/36/97 47/23/47/95 
f 60/2/60/98 61/1/61/99 62/0/62/100 
f 60/2/60/98 62/0/62/100 63/3/63/101 
f 64/5/64/102 65/4/65/103 61/1/61/99 
f 64/5/64/102 61/1/61/99 60/2/60/98 
f 66/7/66/104 67/6/67/105 65/4/65/103 
f 66/7/66/104 65/4/65/103 64/5/64/102 
f 68/9/68/106 69/8/69/107 67/6/67/105 
f 68/9/68/106 67/6/67/105 66/7/66/104 
f 70/11/70/108 71/10/71/109 69/8/69/107 
f 70/11/70/108 69/8/69/107 68/9/68/106 
f 72/13/72/110 73/12/73/111 71/10/71/109 
f 72/13/72/110 71/10/71/109 70/11/70/108 
f 74/15/74/112 75/14/75/113 73/12/73/111 
f 74/15/74/112 73/12/73/111 72/13/72/110 
f 76/17/76/114 77/16/77/115 75/14/75/113 
f 76/17/76/114 75/14/75/113 74/15/74/112 
f 78/19/78/116 79/18/79/117 77/16/77/115 
f 78/19/78/116 77/16/77/115 76/17/76/114 
f 80/21/80/118 81/20/81/119 79/18/79/117 
f 80/21/80/118 79/18/79/117 78/19/78/116 
f 82/23/82/120 83/22/83/121 81/20/81/119 
f 82/23/82/120 81/20/81/119 80/21/80/118 
f 63/25/63/122 62/24/62/123 83/22/83/121 
f 63/25/63/122 83/22/83/121 82/23/82/120 
f 61/2/61/124 84/1/84/125 85/0/85/126 
f 61/2/61/124 85/0/85/126 62/3/62/126 
f 65/5/65/127 86/4/86/128 84/1/84/125 
f 65/5/65/127 84/1/84/125 61/2/61/124 
f 67/7/67/105 87/6/87/56 86/4/86/128 
f 67/7/67/105 86/4/86/128 65/5/65/127 
f 69/9/69/129 88/8/40/57 87/6/87/56 
f 69/9/69/129 87/6/87/56 67/7/67/105 
f 71/11/71/130 89/10/88/131 88/8/40/57 
f 71/11/71/130 88/8/40/57 69/9/69/129 
f 73/13/73/132 90/12/89/133 89/10/88/131 
f 73/13/73/132 89/10/88/131 71/11/71/130 
f 75/15/75/134 91/14/90/135 90/12/89/133 
f 75/15/75/134 90/12/89/133 73/13/73/132 
f 77/17/77/136 92/16/91/137 91/14/90/135 
f 77/17/77/136 91/14/90/135 75/15/75/134 
f 79/19/79/138 93/18/92/139 92/16/91/137 
f 79/19/79/138 92/16/91/137 77/17/77/136 
f 81/21/81/140 94/20/93/141 93/18/92/139 
f 81/21/81/140 93/18/92/139 79/19/79/138 
f 83/23/83/142 95/22/94/143 94/20/93/141 
f 83/23/83/142 94/20/93/141 81/21/81/140 
f 62/25/62/144 85/24/85/123 95/22/94/143 
f 62/25/62/144 95/22/94/143 83/23/83/142 
f 84/2/84/145 96/1/95/146 97/0/96/147 
f 84/2/84/145 97/0/96/147 85/3/85/126 
f 86/5/86/148 98/4/97/149 96/1/95/146 
f 86/5/86/148 96/1/95/146 84/2/84/145 
f 87/7/87/56 99/6/98/55 98/4/97/149 
f 87/7/87/56 98/4/97/149 86/5/86/148 
f 88/9/40/150 100/8/40/57 99/6/98/55 
f 88/9/40/150 99/6/98/55 87/7/87/56 
f 89/11/88/151 101/10/99/152 100/8/40/57 
f 89/11/88/151 100/8/40/57 88/9/40/150 
f 90/13/89/133 102/12/100/61 101/10/99/152 
f 90/13/89/133 101/10/99/152 89/11/88/151 
f 91/15/90/153 103/14/101/154 102/12/100/61 
f 91/15/90/153 102/12/100/61 90/13/89/133 
f 92/17/91/155 104/16/44/64 103/14/101/154 
f 92/17/91/155 103/14/101/154 91/15/90/153 
f 93/19/92/156 105/18/102/66 104/16/44/64 
f 93/19/92/156 104/16/44/64 92/17/91/155 
f 94/21/93/157 106/20/103/158 105/18/102/66 
f 94/21/93/157 105/18/102/66 93/19/92/156 
f 95/23/94/159 107/22/104/160 106/20/103/158 
f 95/23/94/159 106/20/103/158 94/21/93/157 
f 85/25/85/161 97/24/96/162 107/22/104/160 
f 85/25/85/161 107/22/104/160 95/23/94/159 
f 96/2/95/163 49/27/49/74 48/26/48/164 
f 96/2/95/163 48/26/48/164 97/3/96/165 
f 98/5/97/166 50/28/50/77 49/27/49/74 
f 98/5/97/166 49/27/49/74 96/2/95/163 
f 99/7/98/79 51/29/51/78 50/28/50/77 
f 99/7/98/79 50/28/50/77 98/5/97/166 
f 100/9/40/81 52/30/52/80 51/29/51/78 
f 100/9/40/81 51/29/51/78 99/7/98/79 
f 101/11/99/152 53/31/53/82 52/30/52/80 
f 101/11/99/152 52/30/52/80 100/9/40/81 
f 102/13/100/85 54/32/54/84 53/31/53/82 
f 102/13/100/85 53/31/53/82 101/11/99/152 
f 103/15/101/167 55/33/55/86 54/32/54/84 
f 103/15/101/167 54/32/54/84 102/13/100/85 
f 104/17/44/89 56/34/56/88 55/33/55/86 
f 104/17/44/89 55/33/55/86 103/15/101/167 
f 105/19/102/91 57/35/57/90 56/34/56/88 
f 105/19/102/91 56/34/56/88 104/17/44/89 
f 106/21/103/158 58/36/58/92 57/35/57/90 
f 106/21/103/158 57/35/57/90 105/19/102/91 
f 107/23/104/168 59/37/59/169 58/36/58/92 
f 107/23/104/168 58/36/58/92 106/21/103/158 
f 97/25/96/170 48/38/48/96 59/37/59/169 
f 97/25/96/170 59/37/59/169 107/23/104/168 
